<svg id="SvgjsSvg1001" width="288" height="288" xmlns="http://www.w3.org/2000/svg" version="1.1" xmlns:xlink="http://www.w3.org/1999/xlink" xmlns:svgjs="http://svgjs.com/svgjs"><defs id="SvgjsDefs1002"></defs><g id="SvgjsG1008" transform="matrix(0.916700005531311,0,0,0.916700005531311,11.99610424041748,11.995198249816895)"><svg xmlns="http://www.w3.org/2000/svg" width="288" height="288" viewBox="0 0 32 32"><path d="M13.445 31.384c-0.399-0.285-0.437-0.399-0.323-1.198 0.152-0.989 0.133-3.746-0.019-5.438-0.057-0.628-0.38-1.73-0.685-2.472-0.323-0.723-0.646-1.597-0.742-1.939s-0.475-1.046-0.837-1.578c-0.723-1.084-0.799-1.369-0.399-1.692 0.57-0.475 1.312-2.396 1.426-3.708 0.114-1.293 0.114-1.312 0.875-1.711 0.646-0.342 1.103-0.399 3.137-0.399 1.997 0 2.491 0.057 3.137 0.38 0.837 0.418 0.761 0.114 1.16 4.373 0.057 0.628 0.171 1.217 0.247 1.293s0.114-0.133 0.076-0.475l-0.076-0.628 0.475 0.761c0.266 0.418 0.532 0.875 0.608 1.008 0.076 0.152-0.266 1.084-0.761 2.092-0.475 1.008-0.875 1.959-0.875 2.092s-0.076 0.38-0.171 0.57c-0.475 0.97-0.818 3.29-0.856 5.799l-0.019 2.662-0.551 0.19c-0.913 0.304-1.027-0.076-1.046-3.271-0.019-1.654-0.133-3.156-0.266-3.651-0.228-0.78-0.285-0.837-0.875-0.837-0.475 0-0.742 0.133-1.046 0.532-0.361 0.494-0.399 0.856-0.494 3.993-0.095 3.746-0.171 3.917-1.103 3.252zM16.772 21.496c0.038-0.133-0.247-0.19-0.742-0.19-0.818 0.019-0.818 0.019-0.932-0.742l-0.114-0.761-0.038 0.894c0 0.551 0.076 0.913 0.228 0.989 0.38 0.152 1.521 0.038 1.597-0.19zM19.016 19.328c0.057-0.114-0.019-0.133-0.171-0.076-0.342 0.133-0.399 0.266-0.133 0.266 0.114 0 0.247-0.076 0.304-0.19zM17.913 18.815c0.133 0.152 1.198-0.247 1.198-0.437 0-0.304-0.761-0.399-1.426-0.19-0.456 0.152-0.666 0.342-0.666 0.589 0 0.323 0.057 0.342 0.399 0.171 0.209-0.133 0.437-0.171 0.494-0.133zM14.414 18.568c0.095-0.076-0.133-0.247-0.494-0.361-1.027-0.342-1.806 0.152-0.837 0.551 0.418 0.171 1.046 0.076 1.331-0.19zM21.203 18.302c0-0.057-0.095-0.152-0.228-0.228s-0.152-0.057-0.076 0.076c0.133 0.228 0.304 0.304 0.304 0.152zM19.301 12.027c0-0.057-0.095-0.152-0.228-0.228s-0.152-0.057-0.076 0.076c0.133 0.228 0.304 0.304 0.304 0.152z" fill="#ffffff" class="color000 svgShape"></path><path d="M10.478 29.064c-1.217-0.666-3.974-3.423-4.487-4.488-0.209-0.456-0.628-1.997-0.932-3.423-0.285-1.426-0.589-2.529-0.646-2.453-0.076 0.057-0.133 0.038-0.133-0.076 0-0.304 0.532-0.456 0.646-0.19 0.057 0.133 0.057-0.076 0-0.437-0.057-0.399 0.019-1.046 0.19-1.521s0.304-0.989 0.304-1.16c0-0.171 0.133-0.418 0.285-0.551s0.742-0.932 1.312-1.787c1.35-2.035 2.529-3.099 4.392-4.012l1.521-0.742h2.567c2.909 0 3.594 0.19 5.685 1.445 1.921 1.16 3.004 2.301 3.765 3.955 0.361 0.78 0.78 1.692 0.951 1.997 0.19 0.38 0.323 1.312 0.361 2.814 0.095 2.472-0.228 4.126-1.179 6.199-0.989 2.111-3.252 4.202-4.583 4.202-0.342 0-0.628-0.038-0.628-0.076s-0.057-0.228-0.133-0.418c-0.076-0.228-0.057-0.285 0.095-0.19 0.133 0.076 0.228 0.038 0.228-0.057 0-0.114-0.076-0.209-0.19-0.209-0.475 0 0.095-4.297 0.78-5.876 0.875-1.997 1.559-3.175 2.111-3.651l0.57-0.475-0.666-0.456c-0.685-0.475-1.426-1.54-1.559-2.282-0.038-0.228-0.095-1.198-0.114-2.187-0.019-1.692-0.057-1.806-0.437-1.787-0.209 0.019-0.989-0.209-1.73-0.475-2.016-0.742-5.058-0.589-6.94 0.342l-0.856 0.437-0.019 1.217c-0.038 2.187-0.78 3.879-1.902 4.392-0.646 0.304-0.57 0.723 0.323 1.578 0.494 0.475 1.065 1.369 1.54 2.377 0.418 0.894 0.837 1.768 0.932 1.939 0.57 1.103 0.951 5.476 0.532 6.275-0.247 0.475-0.856 0.418-1.959-0.19zM22.667 16.533c-0.076-0.057-0.19-0.057-0.266 0-0.057 0.076 0 0.133 0.133 0.133s0.19-0.057 0.133-0.133zM21.526 15.202c-0.076-0.057-0.19-0.057-0.266 0-0.057 0.076 0 0.133 0.133 0.133s0.19-0.057 0.133-0.133zM21.716 11.627c-0.076-0.152-0.228-0.285-0.361-0.266-0.19 0-0.19 0.038 0 0.114 0.114 0.038 0.228 0.228 0.228 0.399 0 0.152 0.057 0.247 0.114 0.171 0.076-0.057 0.076-0.247 0.019-0.418z" fill="#ffffff" class="color000 svgShape"></path><path d="M27.401 19.348c-.057-.076-.152-.437-.209-.799s-.171-.856-.266-1.122c-.095-.266-.323-1.122-.494-1.902-.532-2.339-1.103-3.328-2.928-5.115-2.985-2.928-6.332-3.879-9.812-2.833-.723.209-1.407.456-1.521.532-.095.057-.532.228-.97.342-1.236.361-3.594 2.263-5.647 4.583-.247.266-.285.361-.095.228.266-.209.247-.038-.152.97-.266.646-.551 1.369-.646 1.578s-.228.856-.304 1.426c-.057.57-.209 1.198-.304 1.407-.209.38-.361.361-3.099-.038l-.951-.152.665-.152c1.635-.361 2.662-1.103 2.662-1.901 0-.475.133-.875 1.008-3.156.361-.932.418-.989.532-.57l.133.475.019-.513c.019-.304-.057-.532-.171-.532-.095 0-.228-.323-.285-.704-.247-1.616-.475-2.13-1.255-2.738-.418-.323-.685-.665-.57-.723.304-.19 2.396.057 2.358.285-.019.114.247.475.57.799.608.589.627.589 1.084.266.628-.418 1.844-1.122 2.605-1.464.475-.228.608-.418.723-1.046.076-.418.209-.818.323-.875.152-.095.323.057.97.951.076.133.19.152.285.019.076-.114.475-.304.894-.437 2.415-.78 2.605-1.046 2.092-2.814-.209-.761-.247-1.141-.114-1.274.114-.114.209-.418.209-.647 0-.513.78-1.388 1.236-1.388.342 0 .38.399.076.704-.418.418-.38 1.635.095 2.529.247.475.513 1.141.589 1.483.133.627.589.875 1.35.78.209-.019.494 0 .646.076 1.103.418 1.578.475 2.016.323.646-.247.589-.266.742.399.076.323.266.628.437.685.19.076.742.418 1.255.761.494.342 1.027.627 1.141.627.133 0 .494-.304.818-.665.513-.589.913-.78 1.445-.685.076 0 .133-.114.133-.266 0-.304.38-.342 1.141-.095.437.133.437.152.057.171-.228.019-.456.19-.532.399s-.209.342-.304.285c-.095-.076-.247.095-.361.361-.095.266-.361.856-.57 1.293-.437.932-.475 1.179-.133 1.521.78.856 1.806 3.137 2.396 5.381.114.418.266.856.361.989.228.361 1.141.628 2.13.628.513 0 .989.076 1.046.19.076.114-.019.133-.209.057-.209-.076-.285-.038-.209.076s-.361.361-1.065.589c-1.369.437-2.928.666-3.061.437zM4.222 15.868c-.057-.133-.095-.038-.095.228s.038.361.095.247c.038-.133.038-.361 0-.475zM4.983 8.167c-.076-.057-.19-.057-.266 0-.057.076 0 .133.133.133s.19-.057.133-.133zM31.147 19.005c.076-.057.19-.057.266 0 .057.076 0 .133-.133.133s-.19-.057-.133-.133zM31.756 18.758c.057-.095.152-.19.209-.19s.038.095-.019.19c-.057.114-.152.19-.209.19s-.038-.076.019-.19z" fill="#ffffff" class="color000 svgShape"></path></svg></g></svg>