<?xml version="1.0" encoding="UTF-8" standalone="no"?>
<!-- Created with Inkscape (http://www.inkscape.org/) -->

<svg
   xmlns:dc="http://purl.org/dc/elements/1.1/"
   xmlns:cc="http://creativecommons.org/ns#"
   xmlns:rdf="http://www.w3.org/1999/02/22-rdf-syntax-ns#"
   xmlns:svg="http://www.w3.org/2000/svg"
   xmlns="http://www.w3.org/2000/svg"
   xmlns:sodipodi="http://sodipodi.sourceforge.net/DTD/sodipodi-0.dtd"
   xmlns:inkscape="http://www.inkscape.org/namespaces/inkscape"
   width="9.7082129mm"
   height="11.639727mm"
   viewBox="0 0 9.7082129 11.639727"
   version="1.1"
   id="svg7156"
   inkscape:version="0.92.5 (2060ec1f9f, 2020-04-08)"
   sodipodi:docname="kharadron-overlords.svg">
  <defs
     id="defs7150">
    <clipPath
       clipPathUnits="userSpaceOnUse"
       id="clipPath6125">
      <path
         d="m 261.895,550.982 h 27.644 v 33.16 h -27.644 z"
         id="path6123"
         inkscape:connector-curvature="0" />
    </clipPath>
  </defs>
  <sodipodi:namedview
     id="base"
     pagecolor="#ffffff"
     bordercolor="#666666"
     borderopacity="1.0"
     inkscape:pageopacity="0.0"
     inkscape:pageshadow="2"
     inkscape:zoom="0.35"
     inkscape:cx="-355.93947"
     inkscape:cy="-252.28938"
     inkscape:document-units="mm"
     inkscape:current-layer="layer1"
     showgrid="false"
     inkscape:window-width="1920"
     inkscape:window-height="1017"
     inkscape:window-x="-8"
     inkscape:window-y="-8"
     inkscape:window-maximized="1"
     fit-margin-top="0"
     fit-margin-left="0"
     fit-margin-right="0"
     fit-margin-bottom="0" />
  <metadata
     id="metadata7153">
    <rdf:RDF>
      <cc:Work
         rdf:about="">
        <dc:format>image/svg+xml</dc:format>
        <dc:type
           rdf:resource="http://purl.org/dc/dcmitype/StillImage" />
        <dc:title></dc:title>
      </cc:Work>
    </rdf:RDF>
  </metadata>
  <g
     inkscape:label="Layer 1"
     inkscape:groupmode="layer"
     id="layer1"
     transform="translate(-200.00898,-70.442042)">
    <g
       transform="matrix(0.35277777,0,0,-0.35277777,107.61825,276.45597)"
       id="g6119">
      <g
         id="g6121"
         clip-path="url(#clipPath6125)">
        <g
           id="g6127"
           transform="translate(278.3833,572.5469)">
          <path
             d="M 0,0 C -0.123,-1.257 0.833,-2.07 2.192,-2.171 3.209,-2.246 4.11,-1.481 4.181,-0.552 4.279,0.719 3.486,1.869 2.232,1.839 1.161,1.813 -0.027,1.461 0,0 m -7.511,-2.142 c 0.462,-0.098 0.752,0.204 1.089,0.396 0.928,0.526 1.276,1.275 1.033,2.272 C -5.61,1.433 -6.255,1.953 -7.182,1.969 -7.849,1.981 -8.463,1.776 -9.031,1.458 -9.725,1.07 -10.103,-0.08 -9.759,-0.726 c 0.48,-0.9 1.33,-1.227 2.248,-1.416 m -4.971,-3.228 c 0.081,0.663 0.16,1.311 0.243,1.985 -0.684,-0.001 -1.262,-0.076 -1.572,-0.709 -0.288,-0.591 -0.161,-1.392 0.405,-1.73 0.598,-0.358 1.269,-0.657 1.947,-0.803 1.223,-0.264 2.483,-0.269 3.71,-0.005 1.279,0.274 1.893,1.145 1.995,2.659 0.031,0.465 0.176,0.844 0.692,1.064 0.241,-0.26 0.492,-0.537 0.75,-0.808 0.373,-0.391 0.749,-0.78 1.129,-1.164 0.179,-0.181 0.378,-0.228 0.624,-0.1 1.039,0.539 1.462,0.902 2.143,1.882 0.265,-0.335 0.489,-0.653 0.527,-1.108 0.023,-0.267 0.167,-0.573 0.354,-0.768 1.047,-1.1 2.389,-1.531 3.869,-1.612 0.648,-0.035 1.297,-0.065 1.946,-0.1 0.652,-0.035 1.223,0.212 1.753,0.546 0.606,0.381 0.836,1.27 0.402,1.817 -0.212,0.268 -0.654,0.372 -1.009,0.498 -0.18,0.063 -0.4,0.011 -0.697,0.011 0.064,-0.431 0.099,-0.827 0.185,-1.211 0.138,-0.618 0.016,-0.713 -0.537,-0.674 -0.965,0.068 -1.924,0.257 -2.876,0.448 -0.473,0.094 -0.929,0.287 -1.383,0.464 -0.572,0.223 -1.03,0.572 -1.27,1.176 -0.085,0.215 -0.275,0.39 -0.421,0.581 -0.518,0.677 -1.041,1.349 -1.551,2.031 -0.074,0.1 -0.119,0.244 -0.124,0.37 -0.019,0.433 0.008,0.869 -0.023,1.3 C -1.31,1.2 -1.078,1.575 -0.7,1.912 0.685,3.146 2.727,3.207 4.296,2.293 4.727,2.042 5.019,1.537 5.347,1.127 5.718,0.662 5.553,0.146 5.491,-0.385 5.404,-1.131 5.307,-1.414 6.343,-1.492 7.741,-1.596 9.049,-2.003 9.929,-3.16 10.26,-3.594 10.408,-4.218 10.493,-4.777 10.666,-5.923 10.19,-6.905 9.368,-7.648 8.962,-8.014 8.363,-8.267 7.816,-8.357 6.516,-8.572 5.199,-8.48 3.897,-8.265 2.893,-8.1 2.743,-8.299 2.865,-9.301 c 0.247,-2.038 0.886,-3.983 1.332,-5.973 0.33,-1.471 0.541,-2.952 0.526,-4.461 -10e-4,-0.102 -0.063,-0.252 -0.143,-0.297 -1.006,-0.572 -2.008,-1.153 -3.144,-1.443 -0.021,-0.005 -0.048,0.011 -0.095,0.023 0.363,1.378 0.206,2.757 -0.004,4.136 -0.014,0.092 -0.009,0.206 -0.061,0.272 -0.354,0.451 -0.122,0.822 0.092,1.249 0.715,1.427 0.757,2.878 0.178,4.388 -0.452,1.177 -1.328,1.993 -2.14,2.876 -0.366,0.398 -0.709,0.829 -1.127,1.162 -0.339,0.269 -0.774,0.419 -1.171,0.61 -0.044,0.021 -0.135,-0.018 -0.185,-0.055 -0.466,-0.349 -0.982,-0.652 -1.378,-1.068 -0.726,-0.762 -1.472,-1.532 -2.042,-2.408 -0.679,-1.043 -1.022,-2.222 -0.668,-3.508 0.11,-0.4 0.071,-0.842 0.194,-1.236 0.121,-0.39 0.374,-0.737 0.543,-1.115 0.065,-0.148 0.113,-0.344 0.074,-0.492 -0.265,-1.014 -0.573,-2.012 -0.325,-3.088 0.135,-0.587 0.179,-1.194 0.271,-1.836 -0.123,0.036 -0.21,0.053 -0.29,0.085 -0.985,0.389 -1.965,0.786 -2.953,1.165 -0.315,0.12 -0.4,0.333 -0.343,0.632 0.23,1.194 0.488,2.383 0.689,3.581 0.234,1.4 0.412,2.809 0.63,4.211 0.098,0.627 0.229,1.25 0.357,1.872 0.046,0.224 0.143,0.438 0.19,0.663 0.116,0.548 -0.121,0.865 -0.679,0.811 -1.273,-0.124 -2.51,0.081 -3.744,0.335 -1.424,0.293 -2.659,0.86 -3.171,2.37 -0.257,0.758 -0.221,1.516 -0.058,2.307 0.151,0.731 0.667,1.143 1.136,1.586 0.505,0.477 1.169,0.657 1.876,0.633 0.202,-0.007 0.405,0.033 0.608,0.041 0.234,0.01 0.503,-0.074 0.492,0.333 -0.01,0.404 -0.134,0.585 -0.525,0.622 -0.144,0.014 -0.291,0.002 -0.483,0.002 0.256,1.526 0.713,2.89 1.973,3.862 0.501,0.387 1.087,0.503 1.675,0.543 1.035,0.07 2.083,0.208 3.094,-0.186 C -5.762,3.836 -5.591,3.762 -5.381,3.676 -5.518,3.4 -5.624,3.154 -5.76,2.925 -5.89,2.706 -5.835,2.561 -5.664,2.393 -5.318,2.054 -4.957,1.719 -4.672,1.331 -4.503,1.099 -4.435,0.777 -4.374,0.484 -4.149,-0.603 -4.756,-1.338 -5.471,-2.023 -5.734,-2.276 -5.972,-2.558 -6.254,-2.788 -6.602,-3.073 -6.698,-3.445 -6.748,-3.86 -6.79,-4.206 -6.816,-4.568 -6.936,-4.89 -7.205,-5.612 -7.9,-5.778 -8.53,-5.814 -9.86,-5.89 -11.214,-5.992 -12.482,-5.37"
             style="fill:#fff;fill-opacity:1;fill-rule:nonzero;stroke:none"
             id="path6129"
             inkscape:connector-curvature="0" />
        </g>
        <g
           id="g6131"
           transform="translate(288.1616,571.8395)">
          <path
             d="m 0,0 c -1.29,-0.113 -2.526,0.321 -3.81,-0.047 0,0.324 -0.01,0.667 0.002,1.01 0.05,1.385 -0.645,2.369 -1.946,2.892 -1.728,0.696 -3.327,0.571 -4.891,-0.447 -0.712,-0.463 -0.925,-1.163 -1.055,-1.902 -0.079,-0.448 -0.085,-0.932 0,-1.376 0.07,-0.363 0.271,-0.732 0.505,-1.024 0.585,-0.73 0.61,-0.784 -0.052,-1.464 -0.273,-0.28 -0.59,-0.517 -0.865,-0.796 -0.252,-0.254 -0.487,-0.197 -0.698,0.013 -0.516,0.513 -1.016,1.043 -1.526,1.57 0.273,0.366 0.545,0.671 0.745,1.017 0.149,0.259 0.204,0.57 0.301,0.859 0.004,0.012 -0.001,0.027 10e-4,0.04 0.153,1.088 -0.14,2.041 -0.928,2.806 -0.421,0.409 -0.174,0.802 -0.038,1.182 0.176,0.49 0.021,0.936 -0.512,1.093 -0.5,0.147 -1.018,0.288 -1.534,0.315 -1.215,0.064 -2.442,0.099 -3.627,-0.246 -1.159,-0.337 -1.946,-1.157 -2.499,-2.187 -0.482,-0.896 -0.844,-1.844 -0.779,-2.937 -0.43,-0.023 -0.817,-0.063 -1.205,-0.06 -0.388,0.004 -0.54,0.247 -0.443,0.623 0.033,0.128 0.046,0.265 0.047,0.398 0.003,0.908 -0.004,1.816 0.005,2.725 0.003,0.269 0.033,0.541 0.085,0.805 0.015,0.074 0.153,0.175 0.236,0.176 0.595,0.004 1.19,-0.021 1.785,-0.022 0.293,-0.001 0.484,0.137 0.608,0.427 0.382,0.894 0.765,1.79 1.207,2.655 0.162,0.318 0.487,0.554 0.739,0.825 0.322,0.346 0.642,0.693 0.971,1.033 0.12,0.124 0.261,0.226 0.41,0.353 0.234,-0.324 0.442,-0.619 0.656,-0.909 0.163,-0.22 0.392,-0.328 0.637,-0.193 0.285,0.155 0.135,0.418 0.044,0.611 -0.146,0.306 -0.342,0.588 -0.52,0.888 0.825,0.576 5.105,1.597 6.043,1.408 -0.026,-0.425 -0.058,-0.849 -0.078,-1.274 -0.012,-0.272 0.014,-0.545 0.375,-0.551 0.329,-0.006 0.49,0.203 0.516,0.511 0.028,0.35 0.036,0.702 0.058,1.166 0.416,-0.052 0.818,-0.092 1.217,-0.154 0.397,-0.062 0.809,-0.092 1.181,-0.229 0.702,-0.259 1.4,-0.545 2.059,-0.896 0.454,-0.242 0.844,-0.608 1.253,-0.929 0.252,-0.198 0.265,-0.399 0.001,-0.624 -0.224,-0.191 -0.412,-0.425 -0.653,-0.679 0.146,-0.167 0.31,-0.353 0.498,-0.567 0.185,0.166 0.345,0.309 0.505,0.451 0.336,0.299 0.606,0.3 0.86,-0.06 0.354,-0.502 0.718,-1.009 0.981,-1.559 0.209,-0.436 0.273,-0.941 0.4,-1.416 0.081,-0.305 0.3,-0.379 0.585,-0.375 0.61,0.007 1.22,-0.001 1.83,0.004 C -0.126,4.934 0.002,4.902 0.002,4.673 -0.002,3.125 0,1.576 0,0"
             style="fill:#fff;fill-opacity:1;fill-rule:nonzero;stroke:none"
             id="path6133"
             inkscape:connector-curvature="0" />
        </g>
        <g
           id="g6135"
           transform="translate(274.2528,559.1247)">
          <path
             d="m 0,0 h -0.007 c 0,0.215 0.038,0.44 -0.012,0.643 C -0.063,0.819 -0.208,0.969 -0.308,1.131 -0.459,0.976 -0.709,0.839 -0.74,0.663 -0.816,0.23 -0.824,-0.223 -0.788,-0.662 c 0.011,-0.144 0.241,-0.27 0.371,-0.405 0.139,0.14 0.339,0.258 0.401,0.426 C 0.054,-0.451 0,-0.216 0,0 m 2.767,-0.812 c 0,-0.314 0.036,-0.625 0.405,-0.649 0.346,-0.023 0.432,0.273 0.462,0.553 0.044,0.415 0.104,0.834 0.083,1.248 C 3.709,0.506 3.507,0.662 3.393,0.823 3.24,0.7 2.995,0.603 2.954,0.451 2.845,0.038 2.822,-0.398 2.767,-0.812 M 1.78,-0.215 c 0.006,0 0.011,0 0.016,0 0,0.434 0.031,0.871 -0.016,1.3 C 1.763,1.242 1.566,1.38 1.45,1.528 1.345,1.378 1.163,1.236 1.148,1.078 1.073,0.257 1.036,-0.568 0.996,-1.392 0.983,-1.65 1.041,-1.912 1.344,-1.95 c 0.323,-0.039 0.419,0.219 0.431,0.475 0.02,0.419 0.005,0.84 0.005,1.26 M 1.762,2.762 C 2.422,2.647 3.086,2.554 3.74,2.41 4.18,2.313 4.459,2.029 4.677,1.599 5.203,0.562 5.088,-0.513 4.815,-1.531 4.627,-2.235 4.207,-2.878 3.353,-3.178 2.408,-3.509 1.491,-3.743 0.505,-3.541 c -0.306,0.062 -0.625,0.189 -0.879,0.369 -1.342,0.951 -1.987,2.28 -1.842,3.906 0.059,0.667 0.599,1.15 1.164,1.532 0.594,0.403 1.293,0.282 1.944,0.397"
             style="fill:#fff;fill-opacity:1;fill-rule:nonzero;stroke:none"
             id="path6137"
             inkscape:connector-curvature="0" />
        </g>
        <g
           id="g6139"
           transform="translate(267.3827,563.3804)">
          <path
             d="M 0,0 C 0.592,-0.032 1.237,-0.067 1.961,-0.106 1.335,-3.6 1.04,-7.098 0.146,-10.56 c -0.411,0.227 -0.804,0.428 -1.18,0.657 -0.437,0.267 -0.853,0.567 -1.287,0.837 -0.345,0.214 -0.284,0.503 -0.141,0.777 0.978,1.87 1.465,3.911 2.05,5.914 C -0.192,-1.621 -0.137,-0.819 0,0"
             style="fill:#fff;fill-opacity:1;fill-rule:nonzero;stroke:none"
             id="path6141"
             inkscape:connector-curvature="0" />
        </g>
        <g
           id="g6143"
           transform="translate(284.1854,563.4153)">
          <path
             d="m 0,0 c 0.745,-3.021 0.934,-6.133 2.364,-9.045 -0.79,-0.422 -1.573,-0.84 -2.396,-1.28 -0.741,3.559 -1.471,7.071 -2.21,10.622 C -1.479,0.196 -0.733,0.097 0,0"
             style="fill:#fff;fill-opacity:1;fill-rule:nonzero;stroke:none"
             id="path6145"
             inkscape:connector-curvature="0" />
        </g>
        <g
           id="g6147"
           transform="translate(284.6895,563.3889)">
          <path
             d="m 0,0 c 0.508,0 0.902,0.03 1.287,-0.018 0.116,-0.015 0.261,-0.235 0.295,-0.383 0.156,-0.679 0.295,-1.362 0.406,-2.05 0.137,-0.847 0.52,-1.578 1.008,-2.261 0.431,-0.602 0.874,-1.2 1.582,-1.52 0.271,-0.123 0.1,-0.286 0.015,-0.427 C 4.065,-7.534 3.286,-8.12 2.334,-8.6 0.974,-5.899 0.825,-2.891 0,0"
             style="fill:#fff;fill-opacity:1;fill-rule:nonzero;stroke:none"
             id="path6149"
             inkscape:connector-curvature="0" />
        </g>
        <g
           id="g6151"
           transform="translate(261.8943,556.9232)">
          <path
             d="M 0,0 C 0.354,0.252 0.707,0.456 1.004,0.723 1.874,1.508 2.354,2.53 2.661,3.639 2.916,4.56 3.146,5.488 3.384,6.414 3.416,6.541 3.423,6.674 3.448,6.856 3.923,6.762 4.379,6.672 4.944,6.561 4.449,3.561 3.506,0.759 2.034,-1.962 1.299,-1.289 0.456,-0.857 0,0"
             style="fill:#fff;fill-opacity:1;fill-rule:nonzero;stroke:none"
             id="path6153"
             inkscape:connector-curvature="0" />
        </g>
        <g
           id="g6155"
           transform="translate(272.6537,562.1636)">
          <path
             d="M 0,0 C 0.362,0.76 1.43,1.861 2.925,3.06 4.156,2.373 4.845,1.13 5.886,0.194 3.884,0.473 1.97,0.604 0,0"
             style="fill:#fff;fill-opacity:1;fill-rule:nonzero;stroke:none"
             id="path6157"
             inkscape:connector-curvature="0" />
        </g>
        <g
           id="g6159"
           transform="translate(270.8577,573.7614)">
          <path
             d="M 0,0 C 0.663,0.013 1.258,-0.341 1.484,-1.013 1.61,-1.388 1.383,-1.993 0.983,-2.292 0.853,-2.39 0.707,-2.468 0.589,-2.577 0.218,-2.923 -0.856,-2.65 -1.274,-2.21 -1.546,-1.923 -1.652,-1.009 -1.428,-0.643 -1.246,-0.345 -0.493,-0.006 0,0"
             style="fill:#fff;fill-opacity:1;fill-rule:nonzero;stroke:none"
             id="path6161"
             inkscape:connector-curvature="0" />
        </g>
        <g
           id="g6163"
           transform="translate(281.0667,572.2622)">
          <path
             d="M 0,0 C 0.014,0.498 -0.372,1.011 -0.733,1.01 -0.99,1.009 -1.267,0.711 -1.266,0.438 -1.263,0.088 -0.842,-0.43 -0.557,-0.422 -0.259,-0.413 -0.028,-0.309 0,0 M -2.171,0.315 C -2.349,1.121 -1.212,1.82 -0.453,1.82 0.358,1.821 1.006,0.987 0.993,-0.005 0.984,-0.659 0.224,-1.206 -0.669,-1.21 -1.583,-1.213 -2.271,-0.506 -2.171,0.315"
             style="fill:#fff;fill-opacity:1;fill-rule:nonzero;stroke:none"
             id="path6165"
             inkscape:connector-curvature="0" />
        </g>
      </g>
    </g>
  </g>
</svg>
