<?xml version="1.0" encoding="UTF-8" standalone="no"?>
<!-- Created with Inkscape (http://www.inkscape.org/) -->

<svg
   xmlns:dc="http://purl.org/dc/elements/1.1/"
   xmlns:cc="http://creativecommons.org/ns#"
   xmlns:rdf="http://www.w3.org/1999/02/22-rdf-syntax-ns#"
   xmlns:svg="http://www.w3.org/2000/svg"
   xmlns="http://www.w3.org/2000/svg"
   xmlns:sodipodi="http://sodipodi.sourceforge.net/DTD/sodipodi-0.dtd"
   xmlns:inkscape="http://www.inkscape.org/namespaces/inkscape"
   width="5.4105825mm"
   height="11.381514mm"
   viewBox="0 0 5.4105825 11.381514"
   version="1.1"
   id="svg7496"
   inkscape:version="0.92.5 (2060ec1f9f, 2020-04-08)"
   sodipodi:docname="sacrosanct-chamber.svg">
  <defs
     id="defs7490">
    <clipPath
       clipPathUnits="userSpaceOnUse"
       id="clipPath6041">
      <path
         d="m 267.764,593.256 h 15.421 v 32.273 h -15.421 z"
         id="path6039"
         inkscape:connector-curvature="0" />
    </clipPath>
  </defs>
  <sodipodi:namedview
     id="base"
     pagecolor="#ffffff"
     bordercolor="#666666"
     borderopacity="1.0"
     inkscape:pageopacity="0.0"
     inkscape:pageshadow="2"
     inkscape:zoom="0.35"
     inkscape:cx="-241.20385"
     inkscape:cy="-587.06306"
     inkscape:document-units="mm"
     inkscape:current-layer="layer1"
     showgrid="false"
     fit-margin-top="0"
     fit-margin-left="0"
     fit-margin-right="0"
     fit-margin-bottom="0"
     inkscape:window-width="1920"
     inkscape:window-height="1017"
     inkscape:window-x="-8"
     inkscape:window-y="-8"
     inkscape:window-maximized="1" />
  <metadata
     id="metadata7493">
    <rdf:RDF>
      <cc:Work
         rdf:about="">
        <dc:format>image/svg+xml</dc:format>
        <dc:type
           rdf:resource="http://purl.org/dc/dcmitype/StillImage" />
        <dc:title></dc:title>
      </cc:Work>
    </rdf:RDF>
  </metadata>
  <g
     inkscape:label="Layer 1"
     inkscape:groupmode="layer"
     id="layer1"
     transform="translate(-169.65185,17.875282)">
    <g
       transform="matrix(0.35277777,0,0,-0.35277777,75.180033,202.79376)"
       id="g6035">
      <g
         id="g6037"
         clip-path="url(#clipPath6041)">
        <g
           id="g6043"
           transform="translate(272.0223,606.2697)">
          <path
             d="M 0,0 C 0.009,-0.018 0.018,-0.035 0.028,-0.052 1.061,-0.428 2.147,-0.555 3.229,-0.732 3.27,-0.942 3.16,-1.127 3.07,-1.307 2.856,-1.737 2.626,-2.158 2.391,-2.577 2.17,-2.969 1.936,-3.354 1.707,-3.741 1.562,-3.986 1.406,-4.225 1.269,-4.475 0.999,-4.971 0.749,-5.478 0.47,-5.968 0.296,-6.274 0.066,-6.549 -0.108,-6.854 -0.361,-7.296 -0.713,-7.658 -1.019,-8.057 -1.23,-8.331 -1.456,-8.594 -1.661,-8.873 c -0.194,-0.263 -0.368,-0.541 -0.555,-0.81 -0.222,-0.321 -0.447,-0.639 -0.673,-0.957 -0.294,-0.416 -0.59,-0.831 -0.887,-1.245 -0.073,-0.103 -0.161,-0.198 -0.223,-0.307 -0.063,-0.113 -0.094,-0.244 -0.153,-0.36 -0.104,-0.204 -0.106,-0.319 0.022,-0.462 0.291,0.161 0.594,0.31 0.877,0.49 0.264,0.168 0.507,0.369 0.759,0.555 0.44,0.324 0.886,0.64 1.319,0.973 0.482,0.369 0.957,0.746 1.425,1.133 0.264,0.219 0.507,0.464 0.761,0.696 0.361,0.329 0.726,0.653 1.085,0.984 0.343,0.316 0.678,0.639 1.021,0.954 0.314,0.289 0.639,0.565 0.948,0.858 0.306,0.29 0.615,0.58 0.893,0.896 0.274,0.311 0.502,0.661 0.766,0.98 0.52,0.63 1.051,1.25 1.578,1.874 0.378,0.447 0.781,0.874 1.07,1.39 0.147,0.261 0.288,0.525 0.524,0.729 0.176,0.152 0.363,0.316 0.473,0.515 0.181,0.329 0.302,0.692 0.453,1.039 0.086,0.195 0.176,0.389 0.272,0.579 0.083,0.165 0.177,0.325 0.261,0.477 C 9.577,2.094 8.802,2.095 8.028,2.062 7.249,2.028 6.495,2.181 5.721,2.292 c 0.098,0.189 0.191,0.354 0.271,0.524 0.113,0.237 0.213,0.481 0.325,0.719 0.046,0.099 0.11,0.19 0.16,0.288 0.121,0.237 0.226,0.483 0.358,0.713 0.199,0.345 0.408,0.686 0.627,1.02 0.29,0.443 0.578,0.889 0.897,1.311 0.265,0.352 0.576,0.668 0.862,1.005 0.184,0.217 0.394,0.423 0.532,0.668 0.175,0.31 0.424,0.54 0.667,0.783 0.211,0.209 0.417,0.421 0.515,0.712 0.035,0.104 0.033,0.114 -0.074,0.12 -0.189,0.009 -0.381,-0.007 -0.565,0.027 -0.508,0.093 -1.016,0.198 -1.52,0.316 -0.327,0.077 -0.692,0.089 -0.9,0.437 0.083,0.093 0.172,0.189 0.256,0.288 0.173,0.205 0.341,0.414 0.514,0.618 0.197,0.231 0.406,0.452 0.595,0.688 0.19,0.239 0.353,0.5 0.545,0.737 0.376,0.465 0.768,0.917 1.145,1.382 0.092,0.114 0.231,0.223 0.157,0.412 -0.123,0.316 -0.223,0.641 -0.362,0.95 -0.104,0.233 -0.253,0.446 -0.383,0.668 -0.093,0.16 -0.171,0.333 -0.287,0.475 C 9.805,17.461 9.531,17.749 9.273,18.051 9.122,18.229 8.995,18.428 8.838,18.6 8.634,18.825 8.413,19.034 8.192,19.244 8.176,19.259 8.088,19.237 8.071,19.209 7.978,19.055 7.895,18.894 7.814,18.733 7.736,18.58 7.677,18.415 7.585,18.271 7.456,18.071 7.294,17.892 7.163,17.693 6.959,17.383 6.767,17.065 6.574,16.748 6.456,16.553 6.345,16.354 6.232,16.156 6.085,15.896 5.941,15.634 5.791,15.376 5.733,15.276 5.681,15.162 5.596,15.092 5.42,14.948 5.338,14.743 5.214,14.566 5.043,14.322 4.884,14.067 4.698,13.835 4.483,13.567 4.235,13.326 4.017,13.062 3.842,12.849 3.694,12.614 3.525,12.396 3.378,12.206 3.203,12.037 3.069,11.839 2.784,11.418 2.508,10.989 2.244,10.554 2.072,10.27 1.93,9.966 1.768,9.675 1.691,9.537 1.6,9.407 1.509,9.278 1.465,9.215 1.402,9.165 1.355,9.104 1.286,9.015 1.228,8.918 1.16,8.828 0.981,8.592 0.796,8.36 0.622,8.12 0.589,8.076 0.575,7.994 0.593,7.945 0.604,7.916 0.694,7.905 0.749,7.904 0.904,7.902 1.06,7.924 1.214,7.911 1.565,7.883 1.915,7.841 2.265,7.801 2.454,7.779 2.646,7.715 2.831,7.731 3.152,7.759 3.435,7.633 3.733,7.572 3.843,7.549 3.951,7.521 4.074,7.491 4.027,7.344 3.979,7.169 3.915,7 3.819,6.742 3.724,6.483 3.606,6.236 3.475,5.962 3.316,5.702 3.171,5.435 2.995,5.114 2.825,4.789 2.645,4.471 2.39,4.019 2.117,3.577 1.873,3.12 1.604,2.617 1.358,2.103 1.103,1.594 0.934,1.254 0.769,0.912 0.593,0.576 0.549,0.491 0.477,0.417 0.405,0.35 0.275,0.228 0.136,0.116 0,0"
             style="fill:#fff;fill-opacity:1;fill-rule:nonzero;stroke:none"
             id="path6045"
             inkscape:connector-curvature="0" />
        </g>
        <g
           id="g6047"
           transform="translate(272.0223,606.2697)">
          <path
             d="M 0,0 C 0.136,0.116 0.275,0.228 0.405,0.35 0.477,0.417 0.549,0.491 0.593,0.576 0.769,0.912 0.934,1.254 1.103,1.594 1.358,2.103 1.604,2.617 1.873,3.12 2.117,3.577 2.39,4.019 2.645,4.471 2.825,4.789 2.995,5.114 3.171,5.435 3.316,5.702 3.475,5.962 3.606,6.236 3.724,6.483 3.819,6.742 3.915,7 3.979,7.169 4.027,7.344 4.074,7.491 3.951,7.521 3.843,7.549 3.733,7.572 3.435,7.633 3.152,7.759 2.831,7.731 2.646,7.715 2.454,7.779 2.265,7.801 1.915,7.841 1.565,7.883 1.214,7.911 1.06,7.924 0.904,7.902 0.749,7.904 0.694,7.905 0.604,7.916 0.593,7.945 0.575,7.994 0.589,8.076 0.622,8.12 0.796,8.36 0.981,8.592 1.16,8.828 c 0.068,0.09 0.126,0.187 0.195,0.276 0.047,0.061 0.11,0.111 0.154,0.174 0.091,0.129 0.182,0.259 0.259,0.397 0.162,0.291 0.304,0.595 0.476,0.879 0.264,0.435 0.54,0.864 0.825,1.285 0.134,0.198 0.309,0.367 0.456,0.557 0.169,0.218 0.317,0.453 0.492,0.666 0.218,0.264 0.466,0.505 0.681,0.773 0.186,0.232 0.345,0.487 0.516,0.731 0.124,0.177 0.206,0.382 0.382,0.526 0.085,0.07 0.137,0.184 0.195,0.284 0.15,0.258 0.294,0.52 0.441,0.78 0.113,0.198 0.224,0.397 0.342,0.592 0.193,0.317 0.385,0.635 0.589,0.945 0.131,0.199 0.293,0.378 0.422,0.578 0.092,0.144 0.151,0.309 0.229,0.462 0.081,0.161 0.164,0.322 0.257,0.476 0.017,0.028 0.105,0.05 0.121,0.035 0.221,-0.21 0.442,-0.419 0.646,-0.644 0.157,-0.172 0.284,-0.371 0.435,-0.549 0.258,-0.302 0.532,-0.59 0.783,-0.898 0.116,-0.142 0.194,-0.315 0.287,-0.475 0.13,-0.222 0.279,-0.435 0.383,-0.668 0.139,-0.309 0.239,-0.634 0.362,-0.95 0.074,-0.189 -0.065,-0.298 -0.157,-0.412 C 10.554,14.183 10.162,13.731 9.786,13.266 9.594,13.029 9.431,12.768 9.241,12.529 9.052,12.293 8.843,12.072 8.646,11.841 8.473,11.637 8.305,11.428 8.132,11.223 8.048,11.124 7.959,11.028 7.876,10.935 c 0.208,-0.348 0.573,-0.36 0.9,-0.437 0.504,-0.118 1.012,-0.223 1.52,-0.316 0.184,-0.034 0.376,-0.018 0.565,-0.027 0.107,-0.006 0.109,-0.016 0.074,-0.12 C 10.837,9.744 10.631,9.532 10.42,9.323 10.177,9.08 9.928,8.85 9.753,8.54 9.615,8.295 9.405,8.089 9.221,7.872 8.935,7.535 8.624,7.219 8.359,6.867 8.04,6.445 7.752,5.999 7.462,5.556 7.243,5.222 7.034,4.881 6.835,4.536 6.703,4.306 6.598,4.06 6.477,3.823 6.427,3.725 6.363,3.634 6.317,3.535 6.205,3.297 6.105,3.053 5.992,2.816 5.912,2.646 5.819,2.481 5.721,2.292 6.495,2.181 7.249,2.028 8.028,2.062 8.802,2.095 9.577,2.094 10.355,2.108 10.271,1.956 10.177,1.796 10.094,1.631 9.998,1.441 9.908,1.247 9.822,1.052 9.671,0.705 9.55,0.342 9.369,0.013 9.259,-0.186 9.072,-0.35 8.896,-0.502 8.66,-0.706 8.519,-0.97 8.372,-1.231 8.083,-1.747 7.68,-2.174 7.302,-2.621 6.775,-3.245 6.244,-3.865 5.724,-4.495 5.46,-4.814 5.232,-5.164 4.958,-5.475 4.68,-5.791 4.371,-6.081 4.065,-6.371 3.756,-6.664 3.431,-6.94 3.117,-7.229 2.774,-7.544 2.439,-7.867 2.096,-8.183 1.737,-8.514 1.372,-8.838 1.011,-9.167 0.757,-9.399 0.514,-9.644 0.25,-9.863 c -0.468,-0.387 -0.943,-0.764 -1.425,-1.133 -0.433,-0.333 -0.879,-0.649 -1.319,-0.973 -0.252,-0.186 -0.495,-0.387 -0.759,-0.555 -0.283,-0.18 -0.586,-0.329 -0.877,-0.49 -0.128,0.143 -0.126,0.258 -0.022,0.462 0.059,0.116 0.09,0.247 0.153,0.36 0.062,0.109 0.15,0.204 0.223,0.307 0.297,0.414 0.593,0.829 0.887,1.245 0.226,0.318 0.451,0.636 0.673,0.957 0.187,0.269 0.361,0.547 0.555,0.81 0.205,0.279 0.431,0.542 0.642,0.816 0.306,0.399 0.658,0.761 0.911,1.203 0.174,0.305 0.404,0.58 0.578,0.886 0.279,0.49 0.529,0.997 0.799,1.493 0.137,0.25 0.293,0.489 0.438,0.734 0.229,0.387 0.463,0.772 0.684,1.164 0.235,0.419 0.465,0.84 0.679,1.27 0.09,0.18 0.2,0.365 0.159,0.575 -1.082,0.177 -2.168,0.304 -3.201,0.68 C 0.018,-0.035 0.009,-0.018 0,0"
             style="fill:#fff;fill-opacity:1;fill-rule:nonzero;stroke:none"
             id="path6049"
             inkscape:connector-curvature="0" />
        </g>
      </g>
    </g>
  </g>
</svg>
