<?xml version="1.0" encoding="UTF-8" standalone="no"?>
<!-- Created with Inkscape (http://www.inkscape.org/) -->

<svg
   xmlns:dc="http://purl.org/dc/elements/1.1/"
   xmlns:cc="http://creativecommons.org/ns#"
   xmlns:rdf="http://www.w3.org/1999/02/22-rdf-syntax-ns#"
   xmlns:svg="http://www.w3.org/2000/svg"
   xmlns="http://www.w3.org/2000/svg"
   xmlns:sodipodi="http://sodipodi.sourceforge.net/DTD/sodipodi-0.dtd"
   xmlns:inkscape="http://www.inkscape.org/namespaces/inkscape"
   width="10.636004mm"
   height="10.200774mm"
   viewBox="0 0 10.636004 10.200774"
   version="1.1"
   id="svg7578"
   inkscape:version="0.92.5 (2060ec1f9f, 2020-04-08)"
   sodipodi:docname="seraphon.svg">
  <defs
     id="defs7572">
    <clipPath
       clipPathUnits="userSpaceOnUse"
       id="clipPath6097">
      <path
         d="m 282.101,472.183 h 30.152 v 28.931 h -30.152 z"
         id="path6095"
         inkscape:connector-curvature="0" />
    </clipPath>
  </defs>
  <sodipodi:namedview
     id="base"
     pagecolor="#ffffff"
     bordercolor="#666666"
     borderopacity="1.0"
     inkscape:pageopacity="0.0"
     inkscape:pageshadow="2"
     inkscape:zoom="0.35"
     inkscape:cx="177.24239"
     inkscape:cy="247.84847"
     inkscape:document-units="mm"
     inkscape:current-layer="layer1"
     showgrid="false"
     fit-margin-top="0"
     fit-margin-left="0"
     fit-margin-right="0"
     fit-margin-bottom="0"
     inkscape:window-width="1920"
     inkscape:window-height="1017"
     inkscape:window-x="-8"
     inkscape:window-y="-8"
     inkscape:window-maximized="1" />
  <metadata
     id="metadata7575">
    <rdf:RDF>
      <cc:Work
         rdf:about="">
        <dc:format>image/svg+xml</dc:format>
        <dc:type
           rdf:resource="http://purl.org/dc/dcmitype/StillImage" />
        <dc:title></dc:title>
      </cc:Work>
    </rdf:RDF>
  </metadata>
  <g
     inkscape:label="Layer 1"
     inkscape:groupmode="layer"
     id="layer1"
     transform="translate(-58.93795,-204.20913)">
    <g
       transform="matrix(0.35277777,0,0,-0.35277777,-40.581012,380.9908)"
       id="g6091">
      <g
         id="g6093"
         clip-path="url(#clipPath6097)">
        <g
           id="g6099"
           transform="translate(285.819,490.6524)">
          <path
             d="M 0,0 C 1.078,0.626 2.077,1.206 3.164,1.839 2.957,1.93 2.856,2.01 2.751,2.015 2.004,2.047 1.257,2.086 0.511,2.078 -0.01,2.071 -0.094,1.939 -0.074,1.407 -0.065,1.165 -0.072,0.921 -0.061,0.679 -0.051,0.475 -0.025,0.271 0,0 M 15.261,2.883 C 14.81,2.802 14.354,2.738 13.907,2.636 13.127,2.457 12.432,1.496 12.443,0.79 12.448,0.516 12.381,0.242 12.378,-0.033 c -0.004,-0.239 0.006,-0.485 0.065,-0.715 0.068,-0.263 0.189,-0.515 0.303,-0.765 0.058,-0.128 0.123,-0.281 0.231,-0.354 0.859,-0.584 1.716,-1.203 2.846,-1.01 0.796,0.136 1.48,0.464 1.934,1.185 0.33,0.524 0.366,1.087 0.358,1.682 -0.025,1.705 -1.146,2.833 -2.854,2.893 m -5.829,7.578 h 2.389 c 0.192,-0.039 0.386,-0.121 0.575,-0.112 0.652,0.034 0.775,-0.509 0.528,-0.881 -0.239,-0.36 -0.322,-0.747 -0.361,-1.152 -0.1,-1.052 0.073,-2.129 1.422,-2.226 0.846,-0.06 1.374,0.15 1.638,0.849 0.107,0.284 0.143,0.598 0.19,0.901 0.1,0.638 -0.175,1.191 -0.438,1.738 -0.136,0.282 -0.084,0.484 0.178,0.631 0.1,0.055 0.222,0.093 0.337,0.1 0.473,0.028 0.949,0.066 1.422,0.056 0.559,-0.011 1.123,-0.026 1.672,-0.116 0.456,-0.076 0.561,-0.354 0.284,-0.712 -0.288,-0.371 -0.352,-0.77 -0.337,-1.211 0.012,-0.375 0,-0.752 0.011,-1.127 0.018,-0.612 0.532,-1.164 1.137,-1.122 0.799,0.057 1.42,-0.19 1.883,-0.84 0.025,-0.036 0.056,-0.07 0.092,-0.095 0.362,-0.245 0.476,-0.6 0.503,-1.019 0.028,-0.431 0.225,-0.632 0.664,-0.69 0.851,-0.113 1.697,-0.078 2.528,0.153 0.36,0.1 0.494,0.051 0.621,-0.298 0.045,-0.122 0.064,-0.26 0.061,-0.39 C 26.417,2.18 26.401,1.462 26.365,0.745 26.354,0.528 26.29,0.311 26.229,0.101 26.16,-0.136 25.996,-0.207 25.764,-0.111 25.601,-0.044 25.439,0.026 25.272,0.084 24.417,0.38 23.564,0.61 22.811,-0.148 c -0.09,-0.09 -0.178,-0.232 -0.179,-0.351 -0.006,-0.464 0.023,-0.928 0.04,-1.391 0.023,-0.637 0.431,-1.121 1.077,-1.178 0.684,-0.06 1.387,-0.173 1.954,0.423 0.218,0.23 0.553,0.069 0.565,-0.253 0.033,-0.916 0.063,-1.832 0.058,-2.748 -0.003,-0.524 -0.306,-0.666 -0.779,-0.429 -0.224,0.112 -0.458,0.268 -0.693,0.28 -0.516,0.026 -1.037,-0.014 -1.554,-0.052 -0.293,-0.021 -0.459,-0.202 -0.546,-0.496 -0.208,-0.707 -0.131,-1.422 -0.104,-2.138 0.02,-0.554 0.356,-0.868 0.828,-1.039 0.658,-0.237 1.327,-0.157 1.985,0.032 0.511,0.147 0.842,-0.038 0.871,-0.574 0.036,-0.659 0.003,-1.323 -0.014,-1.984 -0.004,-0.126 -0.062,-0.257 -0.118,-0.375 -0.106,-0.223 -0.25,-0.315 -0.53,-0.238 -0.926,0.256 -1.858,0.435 -2.839,0.339 -0.461,-0.046 -0.851,-0.213 -1.241,-0.402 -0.138,-0.066 -0.251,-0.243 -0.315,-0.394 -0.416,-0.986 -0.804,-1.983 -1.225,-2.967 -0.22,-0.515 -0.526,-0.996 -0.72,-1.52 -0.219,-0.591 -0.502,-0.866 -1.132,-0.851 -1.469,0.035 -2.937,0.08 -4.404,0.146 -0.15,0.006 -0.357,0.142 -0.428,0.276 -0.337,0.632 -0.63,1.287 -0.949,1.929 -0.221,0.443 -0.496,0.862 -0.68,1.319 -0.205,0.514 -0.441,0.724 -1.002,0.727 -0.519,0.003 -1.038,0.003 -1.557,0.013 -2.242,0.043 -4.484,0.09 -6.726,0.136 -0.121,0.002 -0.242,0.016 -0.363,0.022 -0.891,0.044 -1.781,0.103 -2.672,0.123 -0.268,0.006 -0.459,0.061 -0.628,0.274 -0.513,0.65 -1.039,1.291 -1.565,1.93 -0.291,0.355 -0.429,2.095 -0.188,2.489 0.011,0.019 0.028,0.035 0.039,0.054 0.446,0.719 0.893,1.438 1.337,2.158 0.098,0.16 0.208,0.2 0.271,-0.002 0.229,-0.74 0.772,-1.277 1.187,-1.896 0.343,-0.512 1.043,-0.5 1.36,0.026 0.335,0.556 0.676,1.108 1.019,1.659 0.197,0.316 0.274,0.31 0.484,0 0.416,-0.611 0.832,-1.223 1.256,-1.829 0.375,-0.535 1.169,-0.673 1.505,-0.247 0.195,0.248 0.353,0.534 0.486,0.822 0.239,0.514 0.36,1.09 0.835,1.52 0.076,-0.104 0.159,-0.202 0.223,-0.311 0.29,-0.494 0.656,-0.963 0.838,-1.495 0.182,-0.529 0.473,-0.654 0.974,-0.677 0.321,-0.015 0.471,0.079 0.513,0.355 0.049,0.313 0.061,0.632 0.078,0.949 0.023,0.406 0.047,0.812 0.05,1.219 0.005,0.74 -0.003,1.48 -0.011,2.22 0,0.049 -0.039,0.099 -0.077,0.187 C 9.286,-4.446 9.163,-4.505 9.085,-4.601 8.723,-5.044 8.374,-5.499 8.019,-5.948 7.699,-6.354 7.297,-6.336 7.043,-5.889 6.734,-5.343 6.444,-4.786 6.146,-4.234 5.962,-3.894 5.818,-3.849 5.545,-4.099 5.092,-4.515 4.651,-4.944 4.22,-5.382 3.964,-5.643 3.738,-5.934 3.478,-6.234 3.382,-6.119 3.32,-6.058 3.274,-5.986 2.866,-5.358 2.462,-4.728 2.055,-4.099 1.826,-3.744 1.485,-3.727 1.246,-4.064 0.825,-4.656 0.405,-5.249 -0.007,-5.847 c -0.274,-0.399 -0.635,-0.417 -0.882,0.01 -0.287,0.494 -0.531,1.014 -0.774,1.532 -0.275,0.59 -0.522,1.192 -1.331,1.184 -0.068,-10e-4 -0.15,0.111 -0.206,0.186 -0.318,0.421 -0.45,0.917 -0.463,1.427 -0.037,1.523 -0.049,3.048 -0.055,4.572 0,0.134 0.076,0.32 0.179,0.397 0.96,0.715 1.845,1.507 2.656,2.387 0.122,0.133 0.364,0.21 0.554,0.216 0.751,0.024 1.504,0.031 2.254,-0.001 0.366,-0.017 0.469,0.154 0.559,0.454 0.294,0.976 0.194,1.942 -0.012,2.913 -0.125,0.589 0.009,0.763 0.619,0.838 0.12,0.015 0.243,0.021 0.364,0.017 C 4.173,10.261 4.891,10.239 5.608,10.204 5.96,10.187 6.209,9.77 6.103,9.427 5.999,9.092 5.895,8.755 5.822,8.413 5.603,7.384 5.972,6.661 6.917,6.232 7.938,5.769 9.193,6.375 9.336,7.448 9.414,8.034 9.363,8.639 9.359,9.236 9.358,9.328 9.309,9.429 9.258,9.512 8.956,10.008 8.971,10.104 9.432,10.461"
             style="fill:#fff;fill-opacity:1;fill-rule:nonzero;stroke:none"
             id="path6101"
             inkscape:connector-curvature="0" />
        </g>
        <g
           id="g6103"
           transform="translate(300.8458,491.7157)">
          <path
             d="m 0,0 c -0.01,0.03 -0.02,0.061 -0.029,0.091 -0.278,-0.105 -0.63,-0.136 -0.819,-0.329 -0.454,-0.46 -0.711,-1.317 0.134,-1.813 C 0.161,-2.563 1.18,-2.551 1.4,-1.15 1.449,-0.843 1.376,-0.572 1.103,-0.359 0.774,-0.101 0.423,0.045 0,0 M 0.197,1.229 C 1.663,1.223 2.493,0.38 2.49,-1.1 2.488,-2.297 2.008,-2.985 0.991,-3.249 c -1.021,-0.264 -2.38,0.243 -2.943,1.141 -0.33,0.527 -0.276,1.129 -0.149,1.704 0.262,1.191 0.994,1.686 2.298,1.633"
             style="fill:#fff;fill-opacity:1;fill-rule:nonzero;stroke:none"
             id="path6105"
             inkscape:connector-curvature="0" />
        </g>
      </g>
    </g>
  </g>
</svg>
