<?xml version="1.0" encoding="UTF-8" standalone="no"?>
<!-- Created with Inkscape (http://www.inkscape.org/) -->

<svg
   xmlns:dc="http://purl.org/dc/elements/1.1/"
   xmlns:cc="http://creativecommons.org/ns#"
   xmlns:rdf="http://www.w3.org/1999/02/22-rdf-syntax-ns#"
   xmlns:svg="http://www.w3.org/2000/svg"
   xmlns="http://www.w3.org/2000/svg"
   xmlns:sodipodi="http://sodipodi.sourceforge.net/DTD/sodipodi-0.dtd"
   xmlns:inkscape="http://www.inkscape.org/namespaces/inkscape"
   width="9.6266556mm"
   height="12.396277mm"
   viewBox="0 0 9.6266556 12.396277"
   version="1.1"
   id="svg7456"
   inkscape:version="0.92.5 (2060ec1f9f, 2020-04-08)"
   sodipodi:docname="sylvaneth.svg">
  <defs
     id="defs7450">
    <clipPath
       clipPathUnits="userSpaceOnUse"
       id="clipPath6085">
      <path
         d="m 304.429,509.135 h 27.296 v 35.257 h -27.296 z"
         id="path6083"
         inkscape:connector-curvature="0" />
    </clipPath>
  </defs>
  <sodipodi:namedview
     id="base"
     pagecolor="#ffffff"
     bordercolor="#666666"
     borderopacity="1.0"
     inkscape:pageopacity="0.0"
     inkscape:pageshadow="2"
     inkscape:zoom="0.35"
     inkscape:cx="-341.8079"
     inkscape:cy="369.14032"
     inkscape:document-units="mm"
     inkscape:current-layer="layer1"
     showgrid="false"
     fit-margin-top="0"
     fit-margin-left="0"
     fit-margin-right="0"
     fit-margin-bottom="0"
     inkscape:window-width="1920"
     inkscape:window-height="1017"
     inkscape:window-x="-8"
     inkscape:window-y="-8"
     inkscape:window-maximized="1" />
  <metadata
     id="metadata7453">
    <rdf:RDF>
      <cc:Work
         rdf:about="">
        <dc:format>image/svg+xml</dc:format>
        <dc:type
           rdf:resource="http://purl.org/dc/dcmitype/StillImage" />
        <dc:title></dc:title>
      </cc:Work>
    </rdf:RDF>
  </metadata>
  <g
     inkscape:label="Layer 1"
     inkscape:groupmode="layer"
     id="layer1"
     transform="translate(-196.27001,-234.10543)">
    <g
       transform="matrix(0.35277777,0,0,-0.35277777,88.874222,426.13496)"
       id="g6079">
      <g
         id="g6081"
         clip-path="url(#clipPath6085)">
        <g
           id="g6087"
           transform="translate(304.4286,526.0061)">
          <path
             d="M 0,0 C 0.091,0.377 0.2,0.751 0.269,1.132 0.437,2.073 0.86,2.879 1.434,3.642 2.166,4.616 3.149,5.204 4.232,5.668 4.849,5.933 5.498,5.788 6.134,5.778 6.407,5.773 6.696,5.74 6.949,5.643 7.314,5.504 7.684,5.336 7.995,5.104 8.349,4.84 8.67,4.517 8.953,4.176 9.493,3.523 9.788,2.762 9.839,1.909 9.944,0.151 9.513,-1.425 8.373,-2.807 7.682,-3.647 6.797,-3.735 5.824,-3.661 4.998,-3.598 4.445,-3.107 4.007,-2.48 3.854,-2.261 3.851,-1.939 3.777,-1.664 3.519,-0.708 3.649,0.24 3.994,1.128 4.407,2.192 5.893,2.437 6.506,1.809 6.898,1.406 6.844,0.94 6.738,0.429 6.675,0.519 6.618,0.613 6.549,0.698 6.19,1.144 5.611,1.083 5.381,0.559 5.061,-0.167 5.015,-0.942 5.516,-1.56 6.184,-2.385 6.722,-2.123 7.191,-1.352 7.461,-0.908 7.514,-0.33 7.651,0.191 7.728,0.481 7.774,0.779 7.84,1.072 8.01,1.825 7.402,3.342 6.727,3.717 6.467,3.861 6.128,3.945 5.833,3.926 5.235,3.887 4.677,3.743 4.185,3.303 3.495,2.687 3.116,1.886 2.8,1.082 2.398,0.061 2.416,-1.049 2.535,-2.14 c 0.098,-0.902 0.407,-1.711 1.054,-2.374 0.514,-0.528 1.149,-0.757 1.867,-0.817 0.481,-0.04 0.936,-0.049 1.393,0.19 0.546,0.286 1.036,0.628 1.359,1.145 0.495,0.792 1.031,1.577 1.382,2.433 0.356,0.871 0.56,1.815 0.741,2.744 0.332,1.701 0.265,3.425 -0.196,5.08 -0.328,1.178 -0.888,2.299 -1.408,3.415 -0.795,1.707 -1.739,3.328 -2.953,4.78 -0.077,0.092 -0.128,0.334 -0.08,0.375 0.1,0.084 0.312,0.151 0.412,0.098 0.328,-0.171 0.641,-0.382 0.936,-0.608 1.145,-0.877 2.093,-1.94 2.852,-3.161 0.54,-0.868 1.027,-1.768 1.527,-2.66 0.16,-0.286 0.282,-0.592 0.43,-0.906 0.006,0.085 0.02,0.17 0.015,0.255 -0.05,0.818 -0.072,1.64 -0.161,2.454 -0.141,1.302 -0.544,2.522 -1.286,3.615 -0.183,0.27 -0.403,0.519 -0.554,0.804 -0.091,0.172 -0.081,0.398 -0.116,0.599 0.192,0.028 0.431,0.142 0.567,0.067 0.538,-0.294 1.045,-0.644 1.559,-0.982 0.134,-0.088 0.248,-0.207 0.449,-0.263 -0.017,0.099 -0.034,0.198 -0.051,0.297 -0.14,0.821 -0.106,1.641 0.054,2.453 0.104,0.529 0.404,0.951 0.808,1.305 0.215,0.188 0.404,0.167 0.609,-0.015 0.618,-0.549 0.825,-1.278 0.846,-2.055 0.016,-0.589 -0.071,-1.18 -0.109,-1.771 -0.004,-0.054 0.012,-0.11 0.022,-0.197 0.48,0.359 0.919,0.718 1.391,1.027 0.231,0.152 0.516,0.265 0.789,0.301 0.336,0.043 0.471,-0.192 0.306,-0.487 C 16.412,13.968 16.045,12.855 15.77,11.713 15.633,11.142 15.566,10.552 15.495,9.968 15.416,9.324 15.368,8.676 15.311,8.029 15.301,7.918 15.309,7.805 15.344,7.691 c 0.23,0.808 0.664,1.503 1.05,2.225 0.48,0.901 1.171,1.64 1.789,2.436 0.776,1.001 1.726,1.817 2.773,2.52 0.11,0.075 0.271,0.102 0.409,0.103 0.334,0.004 0.476,-0.253 0.302,-0.535 -0.133,-0.215 -0.264,-0.439 -0.435,-0.624 -0.596,-0.645 -1.013,-1.398 -1.419,-2.169 -0.529,-1.002 -1.13,-1.965 -1.668,-2.962 -0.373,-0.69 -0.703,-1.392 -0.87,-2.181 -0.18,-0.852 -0.507,-1.679 -0.452,-2.565 0.06,-0.953 0.1,-1.916 0.276,-2.851 0.2,-1.067 0.459,-2.138 0.84,-3.152 0.415,-1.104 1.081,-2.117 2.082,-2.77 0.746,-0.486 1.612,-0.673 2.539,-0.286 0.795,0.333 1.477,0.759 1.891,1.527 0.146,0.27 0.249,0.578 0.304,0.881 0.23,1.266 0.159,2.534 -0.203,3.758 -0.299,1.01 -0.808,1.926 -1.675,2.599 -0.843,0.655 -2.326,0.452 -2.858,-0.462 -0.204,-0.35 -0.31,-0.784 -0.36,-1.193 -0.118,-0.954 0.149,-1.869 0.447,-2.758 0.123,-0.366 0.391,-0.696 0.645,-1.001 0.255,-0.306 0.736,-0.25 0.978,0.095 0.511,0.731 0.537,1.551 0.159,2.34 -0.107,0.222 -0.28,0.127 -0.438,0.063 -0.188,-0.076 -0.369,-0.177 -0.563,-0.227 -0.214,-0.055 -0.346,0.046 -0.36,0.283 -0.039,0.677 0.642,1.409 1.318,1.41 0.802,0.002 1.598,-0.688 1.724,-1.541 0.081,-0.544 0.107,-1.097 0.144,-1.648 0.073,-1.086 -0.507,-1.853 -1.278,-2.507 -0.155,-0.132 -0.387,-0.227 -0.59,-0.241 -0.812,-0.057 -1.575,-0.035 -2.298,0.523 -0.763,0.588 -1.35,1.272 -1.61,2.168 -0.202,0.695 -0.24,1.441 -0.316,2.168 -0.038,0.359 -0.004,0.727 0.01,1.091 0.036,0.947 0.431,1.723 1.069,2.42 0.836,0.914 1.878,1.114 3.059,1.208 1.478,0.117 2.546,-0.625 3.565,-1.442 0.778,-0.623 1.285,-1.529 1.635,-2.469 0.266,-0.714 0.29,-1.482 0.268,-2.248 -0.012,-0.433 0.069,-0.867 0.061,-1.3 -0.008,-0.42 -0.084,-0.838 -0.115,-1.258 -0.055,-0.752 -0.225,-1.484 -0.557,-2.149 -0.439,-0.879 -1.128,-1.54 -1.977,-2.063 -1.373,-0.846 -2.836,-0.865 -4.328,-0.529 -0.414,0.093 -0.775,0.423 -1.161,0.644 -0.29,0.166 -0.582,0.331 -0.914,0.52 0.325,-0.721 0.596,-1.422 0.949,-2.079 0.512,-0.954 1.07,-1.885 1.638,-2.808 0.245,-0.397 0.563,-0.748 0.85,-1.119 0.141,-0.181 0.288,-0.424 0.076,-0.571 -0.156,-0.108 -0.506,-0.131 -0.649,-0.026 -0.653,0.476 -1.263,1.009 -1.887,1.524 -0.933,0.769 -1.51,1.84 -2.304,2.729 -0.291,0.325 -0.468,0.757 -0.672,1.154 -0.232,0.448 -0.44,0.91 -0.647,1.371 -0.056,0.126 -0.07,0.272 -0.161,0.41 0,-0.204 -0.009,-0.408 0.002,-0.611 0.014,-0.277 0.056,-0.553 0.064,-0.83 0.046,-1.831 0.453,-3.579 1.179,-5.256 0.135,-0.31 0.289,-0.611 0.434,-0.917 0.137,-0.29 0.027,-0.513 -0.288,-0.472 -0.285,0.036 -0.583,0.148 -0.825,0.304 -0.463,0.301 -0.891,0.656 -1.395,1.035 0.019,-0.175 0.037,-0.296 0.045,-0.418 0.062,-0.953 0.197,-1.917 -0.232,-2.821 -0.141,-0.298 -0.373,-0.558 -0.591,-0.812 -0.172,-0.199 -0.376,-0.17 -0.575,10e-4 -0.575,0.493 -0.878,1.124 -0.904,1.871 -0.026,0.73 -0.006,1.461 -0.006,2.207 -0.077,-0.062 -0.185,-0.163 -0.307,-0.244 -0.511,-0.342 -1.018,-0.69 -1.544,-1.007 -0.196,-0.119 -0.502,-0.179 -0.609,0.073 -0.068,0.162 0.016,0.461 0.136,0.617 0.829,1.07 1.385,2.264 1.696,3.575 0.061,0.256 0.074,0.525 0.095,0.789 0.066,0.841 0.128,1.682 0.187,2.524 0.012,0.172 0.002,0.347 -0.035,0.523 -0.307,-1.043 -0.858,-1.963 -1.424,-2.852 -0.995,-1.564 -2.104,-3.049 -3.672,-4.112 -0.12,-0.081 -0.229,-0.179 -0.345,-0.267 -0.213,-0.162 -0.388,-0.055 -0.551,0.088 -0.195,0.169 -0.044,0.298 0.062,0.429 1.287,1.595 2.273,3.369 3.097,5.238 0.033,0.074 0.047,0.156 0.095,0.322 C 8.995,-6.989 8.824,-7.03 8.686,-7.122 7.839,-7.688 6.891,-7.835 5.897,-7.873 4.977,-7.908 4.064,-7.865 3.244,-7.447 2.355,-6.994 1.495,-6.455 0.987,-5.542 0.53,-4.718 0.222,-3.84 0.178,-2.885 0.153,-2.321 0.118,-1.758 0.08,-1.196 0.074,-1.111 0.028,-1.03 0,-0.946 Z"
             style="fill:#fff;fill-opacity:1;fill-rule:nonzero;stroke:none"
             id="path6089"
             inkscape:connector-curvature="0" />
        </g>
      </g>
    </g>
  </g>
</svg>
