<?xml version="1.0" encoding="UTF-8" standalone="no"?>
<!-- Created with Inkscape (http://www.inkscape.org/) -->

<svg
   xmlns:dc="http://purl.org/dc/elements/1.1/"
   xmlns:cc="http://creativecommons.org/ns#"
   xmlns:rdf="http://www.w3.org/1999/02/22-rdf-syntax-ns#"
   xmlns:svg="http://www.w3.org/2000/svg"
   xmlns="http://www.w3.org/2000/svg"
   xmlns:sodipodi="http://sodipodi.sourceforge.net/DTD/sodipodi-0.dtd"
   xmlns:inkscape="http://www.inkscape.org/namespaces/inkscape"
   width="5.2477098mm"
   height="12.760472mm"
   viewBox="0 0 5.2477098 12.760472"
   version="1.1"
   id="svg7268"
   inkscape:version="0.92.5 (2060ec1f9f, 2020-04-08)"
   sodipodi:docname="warrior-chamber.svg">
  <defs
     id="defs7262">
    <clipPath
       clipPathUnits="userSpaceOnUse"
       id="clipPath6113">
      <path
         d="m 268.235,633.086 h 14.963 v 36.274 h -14.963 z"
         id="path6111"
         inkscape:connector-curvature="0" />
    </clipPath>
  </defs>
  <sodipodi:namedview
     id="base"
     pagecolor="#ffffff"
     bordercolor="#666666"
     borderopacity="1.0"
     inkscape:pageopacity="0.0"
     inkscape:pageshadow="2"
     inkscape:zoom="3.959798"
     inkscape:cx="132.25836"
     inkscape:cy="10.796076"
     inkscape:document-units="mm"
     inkscape:current-layer="layer1"
     showgrid="false"
     fit-margin-top="0"
     fit-margin-left="0"
     fit-margin-right="0"
     fit-margin-bottom="0"
     inkscape:window-width="1920"
     inkscape:window-height="1017"
     inkscape:window-x="-8"
     inkscape:window-y="-8"
     inkscape:window-maximized="1" />
  <metadata
     id="metadata7265">
    <rdf:RDF>
      <cc:Work
         rdf:about="">
        <dc:format>image/svg+xml</dc:format>
        <dc:type
           rdf:resource="http://purl.org/dc/dcmitype/StillImage" />
        <dc:title></dc:title>
      </cc:Work>
    </rdf:RDF>
  </metadata>
  <g
     inkscape:label="Layer 1"
     inkscape:groupmode="layer"
     id="layer1"
     transform="translate(-32.149954,-91.804292)">
    <g
       transform="matrix(0.35277777,0,0,-0.35277777,-62.481378,327.90615)"
       id="g6107">
      <g
         id="g6109"
         clip-path="url(#clipPath6113)">
        <g
           id="g6115"
           transform="translate(280.9377,667.3325)">
          <path
             d="m 0,0 c -0.056,-0.003 -0.099,0.004 -0.137,-0.007 -0.292,-0.085 -0.563,-0.207 -0.766,-0.446 -0.063,-0.074 -0.126,-0.149 -0.194,-0.218 -0.316,-0.32 -0.698,-0.418 -1.132,-0.336 -0.067,0.012 -0.132,0.028 -0.198,0.041 -0.247,0.047 -0.462,-0.014 -0.638,-0.195 -0.09,-0.091 -0.189,-0.175 -0.26,-0.279 -0.179,-0.262 -0.429,-0.364 -0.732,-0.364 -0.296,0.001 -0.554,-0.101 -0.796,-0.268 -0.134,-0.093 -0.285,-0.164 -0.434,-0.234 -0.128,-0.06 -0.263,-0.056 -0.392,0.01 -0.196,0.101 -0.224,0.311 -0.037,0.428 0.128,0.082 0.284,0.14 0.435,0.163 0.272,0.041 0.468,0.178 0.564,0.424 0.147,0.379 0.408,0.633 0.763,0.815 0.123,0.063 0.257,0.16 0.315,0.276 0.109,0.216 0.166,0.458 0.244,0.689 C -3.41,0.509 -3.426,0.518 -3.442,0.527 -3.518,0.441 -3.599,0.358 -3.67,0.268 -3.832,0.06 -4.035,-0.085 -4.288,-0.16 -4.425,-0.2 -4.559,-0.249 -4.696,-0.287 c -0.203,-0.057 -0.366,-0.16 -0.473,-0.351 -0.155,-0.277 -0.393,-0.438 -0.705,-0.511 -0.124,-0.03 -0.249,-0.109 -0.343,-0.198 -0.117,-0.111 -0.204,-0.256 -0.303,-0.387 -0.107,-0.144 -0.2,-0.301 -0.323,-0.43 -0.078,-0.082 -0.193,-0.143 -0.303,-0.177 -0.137,-0.043 -0.302,0.029 -0.34,0.114 -0.039,0.089 0.035,0.204 0.19,0.295 0.007,0.004 0.014,0.007 0.02,0.01 0.236,0.137 0.41,0.317 0.48,0.593 0.051,0.197 0.141,0.379 0.331,0.49 0.174,0.102 0.303,0.309 0.346,0.536 -0.073,-0.023 -0.142,-0.057 -0.215,-0.067 -0.274,-0.038 -0.46,-0.203 -0.619,-0.412 -0.041,-0.053 -0.077,-0.111 -0.12,-0.163 -0.174,-0.208 -0.353,-0.403 -0.634,-0.479 -0.101,-0.027 -0.191,-0.114 -0.275,-0.187 -0.188,-0.163 -0.338,-0.358 -0.442,-0.586 -0.058,-0.127 -0.156,-0.209 -0.293,-0.26 -0.21,-0.077 -0.431,-0.148 -0.614,-0.272 -0.46,-0.309 -0.765,-0.737 -0.857,-1.294 -0.131,-0.792 0.1,-1.468 0.735,-1.96 0.643,-0.498 1.373,-0.606 2.112,-0.235 0.304,0.153 0.604,0.249 0.935,0.276 0.089,0.008 0.181,0.018 0.266,0.044 0.128,0.038 0.265,0.07 0.373,0.143 0.214,0.146 0.43,0.166 0.66,0.067 0.276,-0.118 0.53,-0.075 0.765,0.095 0.246,0.177 0.486,0.365 0.755,0.568 -0.175,0.089 -0.325,0.106 -0.478,0.054 -0.141,-0.048 -0.285,-0.098 -0.414,-0.172 -0.214,-0.124 -0.417,-0.156 -0.625,0.002 -0.03,0.022 -0.069,0.031 -0.101,0.051 -0.115,0.072 -0.232,0.086 -0.364,0.045 -0.129,-0.041 -0.262,-0.064 -0.395,-0.09 -0.111,-0.023 -0.21,10e-4 -0.278,0.099 -0.071,0.101 -0.088,0.216 -0.018,0.316 0.053,0.077 0.129,0.148 0.21,0.191 0.178,0.093 0.363,0.058 0.547,-0.002 0.253,-0.084 0.511,-0.098 0.775,-0.045 0.214,0.042 0.35,0.2 0.501,0.329 0.172,0.146 0.355,0.181 0.565,0.14 0.162,-0.032 0.322,-0.08 0.485,-0.09 0.138,-0.009 0.298,-0.012 0.414,0.048 0.282,0.144 0.487,0.383 0.712,0.67 -0.163,0.009 -0.28,0.029 -0.394,0.018 -0.148,-0.015 -0.296,-0.049 -0.441,-0.086 -0.224,-0.057 -0.442,-0.065 -0.661,0.023 -0.306,0.122 -0.602,0.098 -0.881,-0.084 -0.069,-0.045 -0.138,-0.092 -0.212,-0.127 -0.074,-0.035 -0.152,-0.07 -0.232,-0.079 -0.135,-0.014 -0.246,0.043 -0.324,0.159 -0.071,0.106 -0.035,0.202 0.025,0.293 0.179,0.275 0.413,0.476 0.748,0.526 0.215,0.031 0.431,0.055 0.647,0.076 0.357,0.034 0.646,0.18 0.84,0.492 0.051,0.082 0.113,0.159 0.166,0.24 0.161,0.249 0.387,0.33 0.677,0.293 0.359,-0.046 0.662,0.081 0.907,0.347 0.177,0.193 0.334,0.41 0.534,0.576 C -0.381,-0.588 -0.195,-0.308 0,0 m -6.964,-29.232 c 0.105,0.012 0.178,0.021 0.277,0.033 -0.007,0.303 0.06,0.599 -0.041,0.904 -0.049,0.149 -0.02,0.325 -0.022,0.488 -0.007,0.427 -0.012,0.854 -0.015,1.28 -0.003,0.353 -0.004,0.705 -0.001,1.057 0.005,0.486 0.017,0.972 0.02,1.457 0,0.104 0.02,0.178 0.107,0.25 0.212,0.175 0.246,0.384 0.11,0.622 -0.062,0.11 -0.136,0.217 -0.221,0.31 -0.067,0.073 -0.096,0.148 -0.093,0.242 0.001,0.045 0,0.09 0,0.135 0.001,2.497 0.001,4.995 0.002,7.492 v 0.288 c -0.052,0.023 -0.085,0.039 -0.119,0.052 -0.215,0.089 -0.231,0.113 -0.23,0.353 0.002,0.42 -0.008,0.84 0.009,1.259 0.009,0.223 0.053,0.447 0.107,0.664 0.018,0.07 0.113,0.13 0.185,0.175 0.159,0.099 0.161,0.093 0.085,0.25 -0.019,0.039 -0.034,0.082 -0.038,0.125 -0.042,0.424 -0.097,0.847 -0.119,1.272 -0.021,0.426 -0.007,0.854 -0.011,1.282 -0.002,0.307 -0.005,0.614 -0.014,0.921 -0.007,0.224 -0.221,0.431 -0.449,0.436 -0.225,0.005 -0.45,-0.005 -0.674,0.006 -0.186,0.008 -0.371,0.043 -0.556,0.056 -0.202,0.013 -0.404,0.013 -0.606,0.018 -0.253,0.007 -0.511,-0.038 -0.743,0.116 -0.038,0.026 -0.102,0.016 -0.154,0.016 -0.472,0.003 -0.945,0.003 -1.417,0.008 -0.152,0.002 -0.276,-0.06 -0.388,-0.153 -0.04,-0.034 -0.072,-0.077 -0.115,-0.107 -0.145,-0.101 -0.332,-0.056 -0.389,0.109 -0.048,0.139 -0.083,0.29 -0.086,0.436 -0.01,0.51 -0.003,1.02 -0.004,1.529 0,0.06 0.007,0.127 -0.018,0.177 -0.097,0.198 -0.087,0.408 -0.086,0.617 0.009,1.47 0.019,2.94 0.032,4.409 0.002,0.218 -0.041,0.433 -0.047,0.644 -0.017,0.53 0.007,1.064 0.06,1.592 0.032,0.324 0.374,0.439 0.652,0.261 0.055,-0.036 0.122,-0.051 0.182,-0.078 0.119,-0.056 0.248,-0.086 0.333,-0.21 0.046,-0.066 0.142,-0.121 0.224,-0.137 0.227,-0.045 0.457,-0.07 0.688,0.002 0.105,0.033 0.219,0.054 0.329,0.054 0.847,0.002 1.694,-0.01 2.541,-0.004 1.101,0.008 2.203,0.034 3.305,0.04 0.313,0.002 0.625,-0.048 0.938,-0.056 0.442,-0.011 0.884,-0.005 1.326,-0.009 0.164,-0.001 0.329,-0.021 0.493,-0.014 0.178,0.007 0.356,0.034 0.534,0.055 0.082,0.009 0.163,0.031 0.244,0.034 0.501,0.021 1.003,0.04 1.504,0.056 0.102,0.003 0.186,0.017 0.261,0.099 0.047,0.052 0.125,0.082 0.194,0.103 0.113,0.034 0.23,0.055 0.345,0.078 C 1.616,1.893 1.808,1.789 1.881,1.617 1.93,1.504 1.963,1.377 1.972,1.254 1.993,1 1.988,0.745 2.001,0.49 2.019,0.139 1.993,-0.224 2.075,-0.56 2.261,-1.326 2.148,-2.096 2.164,-2.863 2.192,-4.152 2.181,-5.442 2.184,-6.732 2.184,-7.031 2.18,-7.331 2.171,-7.631 2.165,-7.844 2.097,-7.911 1.892,-7.933 1.848,-7.938 1.802,-7.939 1.761,-7.954 1.633,-8 1.532,-7.968 1.431,-7.88 1.272,-7.741 1.092,-7.661 0.875,-7.746 0.855,-7.754 0.831,-7.753 0.809,-7.754 0.39,-7.77 -0.028,-7.79 -0.447,-7.799 c -0.277,-0.007 -0.555,0.008 -0.832,0.001 -0.194,-0.005 -0.386,-0.038 -0.58,-0.047 -0.269,-0.013 -0.539,-0.016 -0.809,-0.02 -0.35,-0.005 -0.595,-0.247 -0.6,-0.606 -0.003,-0.27 0.002,-0.54 0.002,-0.81 0,-0.449 0.006,-0.898 -0.005,-1.347 -0.004,-0.215 -0.05,-0.429 -0.058,-0.644 -0.006,-0.124 0.026,-0.249 0.04,-0.374 0.003,-0.028 0.011,-0.058 0.007,-0.085 -0.021,-0.153 -0.044,-0.306 -0.069,-0.475 0.312,-0.058 0.338,-0.283 0.34,-0.516 0.005,-0.524 0.006,-1.049 0.002,-1.573 -10e-4,-0.059 -0.037,-0.124 -0.071,-0.177 -0.071,-0.111 -0.152,-0.216 -0.242,-0.341 -0.014,0.001 -0.056,0.005 -0.102,0.008 -0.008,-0.023 -0.02,-0.043 -0.02,-0.063 -0.003,-0.263 -0.004,-0.525 -0.004,-0.788 -0.002,-2.227 -0.006,-4.454 -0.002,-6.682 0.001,-0.218 -0.064,-0.386 -0.209,-0.543 -0.179,-0.193 -0.246,-0.442 -0.3,-0.692 -0.029,-0.132 0.043,-0.222 0.147,-0.276 0.112,-0.058 0.135,-0.14 0.135,-0.255 -0.003,-0.555 -10e-4,-1.11 0.006,-1.665 0.004,-0.239 0.031,-0.478 0.038,-0.717 0.007,-0.262 0.006,-0.524 0.004,-0.786 -0.004,-0.524 -0.012,-1.047 -0.018,-1.571 -0.001,-0.111 0,-0.222 0,-0.361 h 0.587 c 0.015,-0.119 0.029,-0.213 0.036,-0.307 0.01,-0.121 0.028,-0.234 0.103,-0.338 0.036,-0.051 0.047,-0.126 0.049,-0.191 0.006,-0.172 0.005,-0.345 -0.002,-0.517 -0.007,-0.194 -0.036,-0.239 -0.228,-0.273 -0.149,-0.025 -0.21,-0.11 -0.219,-0.24 -0.01,-0.136 -0.045,-0.278 0.121,-0.373 0.505,-0.291 0.412,-0.261 0.422,-0.761 0.002,-0.097 -0.002,-0.195 0,-0.293 0.013,-0.59 -0.27,-0.992 -0.785,-1.253 -0.118,-0.06 -0.232,-0.136 -0.332,-0.223 -0.256,-0.223 -0.564,-0.273 -0.883,-0.265 -0.374,0.01 -0.748,0.038 -1.121,0.071 -0.108,0.01 -0.226,0.046 -0.314,0.107 -0.277,0.191 -0.542,0.399 -0.81,0.604 -0.047,0.036 -0.091,0.08 -0.123,0.13 -0.167,0.265 -0.352,0.523 -0.486,0.805 -0.064,0.136 -0.042,0.321 -0.032,0.482 0.003,0.06 0.071,0.138 0.13,0.167 0.184,0.093 0.33,0.204 0.44,0.393 0.066,0.112 0.166,0.2 0.174,0.344 0.005,0.091 -0.009,0.157 -0.103,0.2 -0.056,0.026 -0.099,0.081 -0.148,0.125 -0.042,0.038 -0.079,0.086 -0.127,0.116 -0.17,0.109 -0.279,0.246 -0.25,0.461 0.005,0.037 0.004,0.076 -0.001,0.113 -0.031,0.197 0.079,0.307 0.237,0.388 0.053,0.028 0.105,0.057 0.16,0.08 0.18,0.08 0.271,0.202 0.188,0.42"
             style="fill:#fff;fill-opacity:1;fill-rule:nonzero;stroke:none"
             id="path6117"
             inkscape:connector-curvature="0" />
        </g>
      </g>
    </g>
  </g>
</svg>
