<!-- Generated by IcoMoon.io -->
<svg version="1.1" xmlns="http://www.w3.org/2000/svg" width="32" height="32" viewBox="0 0 32 32">
<title>allies-daughters-of-khaine</title>
<path d="M6.662 11.773c-0.018 0.084-0.017 0.17-0.053 0.236-0.147 0.272-0.208 0.574-0.308 0.861-0.052 0.153-0.066 0.317-0.099 0.476-0.018 0.086-0.037 0.172-0.056 0.257-0.037 0.157-0.091 0.313-0.111 0.472-0.018 0.15-0.003 0.305-0.002 0.458 0.005 0.374 0.009 0.749 0.012 1.123 0.003 0.339 0.004 0.678 0.005 1.018 0.001 0.241 0.015 0.483-0.006 0.722-0.022 0.249 0.113 0.467 0.108 0.71 0 0.004 0.006 0.008 0.007 0.012 0.023 0.095 0.048 0.189 0.071 0.284 0.010 0.042 0.017 0.087 0.034 0.127 0.032 0.077 0.088 0.149 0.103 0.228 0.036 0.192 0.090 0.379 0.136 0.568 0.029 0.119 0.047 0.244 0.101 0.351 0.060 0.117 0.051 0.238 0.076 0.357 0.023 0.117 0.106 0.219 0.093 0.351-0.005 0.051 0.011 0.108 0.034 0.154 0.091 0.191 0.178 0.383 0.199 0.597 0.004 0.034 0.014 0.069 0.031 0.098 0.115 0.2 0.185 0.425 0.349 0.597 0.067 0.071 0.118 0.158 0.183 0.232 0.166 0.187 0.334 0.372 0.504 0.556 0.106 0.115 0.249 0.196 0.32 0.344 0.012 0.026 0.035 0.050 0.058 0.066 0.14 0.108 0.283 0.213 0.425 0.32 0.039 0.029 0.083 0.053 0.119 0.087 0.113 0.109 0.221 0.222 0.336 0.33 0.079 0.073 0.164 0.14 0.246 0.209 0.169 0.143 0.33 0.298 0.546 0.372 0.055 0.019 0.108 0.051 0.155 0.085 0.099 0.074 0.189 0.159 0.29 0.228 0.093 0.064 0.189 0.135 0.294 0.167 0.302 0.089 0.554 0.249 0.766 0.479 0.020 0.021 0.044 0.043 0.071 0.051 0.314 0.089 0.596 0.285 0.938 0.286 0.047 0 0.094 0.029 0.14 0.044 0.226 0.073 0.454 0.126 0.696 0.106 0.117-0.010 0.236-0.006 0.354-0.001 0.042 0.002 0.086 0.019 0.124 0.038 0.167 0.087 0.341 0.151 0.529 0.156 0.223 0.008 0.445 0.005 0.667 0.006 0.124 0 0.243 0.001 0.363 0.050 0.080 0.032 0.174 0.035 0.262 0.036 0.474 0.003 0.948 0.003 1.422-0.001 0.078 0 0.157-0.015 0.231-0.037 0.123-0.037 0.242-0.083 0.362-0.129 0.224-0.085 0.451-0.126 0.693-0.098 0.1 0.012 0.207-0.002 0.308-0.020 0.218-0.037 0.435-0.079 0.651-0.129 0.118-0.028 0.243-0.059 0.344-0.123 0.186-0.119 0.352-0.269 0.574-0.324 0.040-0.010 0.076-0.046 0.107-0.077 0.075-0.075 0.162-0.125 0.263-0.157 0.075-0.024 0.145-0.062 0.213-0.1 0.234-0.133 0.444-0.307 0.697-0.412 0.088-0.037 0.167-0.083 0.267-0.058 0.021 0.006 0.052 0 0.069-0.013 0.098-0.073 0.198-0.147 0.29-0.227s0.177-0.171 0.272-0.248c0.168-0.137 0.351-0.256 0.511-0.401 0.214-0.194 0.415-0.404 0.619-0.61 0.066-0.066 0.124-0.14 0.185-0.211 0.171-0.195 0.377-0.363 0.458-0.625 0.010-0.032 0.034-0.060 0.053-0.089 0.119-0.169 0.228-0.344 0.277-0.55 0.012-0.052 0.038-0.105 0.073-0.144 0.171-0.195 0.273-0.431 0.392-0.657 0.043-0.082 0.072-0.172 0.108-0.258 0.080-0.191 0.158-0.381 0.24-0.571 0.033-0.077 0.067-0.153 0.109-0.225 0.079-0.139 0.147-0.275 0.157-0.441 0.007-0.090 0.043-0.182 0.082-0.265 0.075-0.156 0.148-0.317 0.161-0.489 0.025-0.324 0.183-0.624 0.164-0.955-0.001-0.023 0.015-0.047 0.021-0.071 0.031-0.139 0.068-0.277 0.092-0.418 0.021-0.125 0.012-0.257 0.042-0.38 0.054-0.228 0.078-0.454 0.068-0.688-0.004-0.091 0.016-0.188 0.049-0.273s0.053-0.167 0.041-0.257c-0.007-0.053 0.002-0.109-0.001-0.163-0.004-0.123 0.004-0.248-0.019-0.367-0.048-0.251-0.11-0.499-0.169-0.748-0.026-0.11-0.056-0.219-0.088-0.328-0.064-0.222-0.133-0.442-0.195-0.665s-0.11-0.449-0.181-0.669c-0.038-0.12-0.064-0.236-0.055-0.361 0.004-0.053-0.002-0.11-0.017-0.161-0.057-0.193-0.12-0.385-0.181-0.577-0.033-0.103-0.064-0.206-0.101-0.308-0.081-0.216-0.156-0.435-0.25-0.647-0.077-0.176-0.168-0.345-0.265-0.511-0.093-0.156-0.2-0.304-0.302-0.455-0.044-0.066-0.081-0.138-0.136-0.193-0.18-0.181-0.375-0.347-0.45-0.606-0.003-0.008-0.011-0.016-0.016-0.024-0.113-0.202-0.319-0.32-0.455-0.503-0.008-0.011-0.023-0.020-0.037-0.023-0.152-0.035-0.263-0.125-0.356-0.247-0.029-0.038-0.074-0.064-0.112-0.096-0.155-0.128-0.317-0.251-0.466-0.388-0.302-0.277-0.596-0.562-0.892-0.845-0.121-0.115-0.262-0.189-0.419-0.241-0.054-0.018-0.11-0.046-0.152-0.082-0.114-0.098-0.239-0.151-0.393-0.139-0.059 0.005-0.125-0.018-0.181-0.042-0.081-0.035-0.154-0.091-0.235-0.121-0.131-0.049-0.253-0.102-0.351-0.206-0.090-0.095-0.193-0.168-0.336-0.161-0.045 0.002-0.094-0.025-0.138-0.046-0.152-0.071-0.302-0.133-0.479-0.125-0.221 0.009-0.444-0.003-0.666-0.010-0.058-0.002-0.117-0.015-0.173-0.027-0.062-0.014-0.125-0.028-0.183-0.052-0.149-0.062-0.316-0.072-0.453-0.169-0.1-0.069-0.213-0.097-0.336-0.092-0.133 0.008-0.267 0.005-0.4 0.003-0.085-0.001-0.163 0.010-0.241 0.055-0.048 0.028-0.112 0.034-0.17 0.034-0.316 0.004-0.632 0.005-0.947 0.003-0.239-0.001-0.453 0.111-0.685 0.142-0.014 0.002-0.026 0.012-0.040 0.019-0.236 0.111-0.472 0.222-0.707 0.334-0.036 0.017-0.065 0.045-0.1 0.063-0.068 0.036-0.138 0.071-0.209 0.099-0.183 0.073-0.377 0.123-0.548 0.216-0.248 0.135-0.509 0.231-0.767 0.342-0.229 0.099-0.465 0.19-0.681 0.316-0.24 0.14-0.481 0.266-0.751 0.33-0.071 0.017-0.122 0.050-0.173 0.1-0.107 0.102-0.214 0.205-0.337 0.287-0.121 0.080-0.242 0.17-0.392 0.199-0.036 0.008-0.069 0.037-0.099 0.062-0.072 0.060-0.139 0.126-0.211 0.185-0.11 0.090-0.223 0.177-0.335 0.264-0.194 0.15-0.403 0.279-0.566 0.47-0.104 0.121-0.206 0.252-0.358 0.327-0.065 0.032-0.114 0.093-0.172 0.139-0.138 0.11-0.241 0.262-0.416 0.326-0.023 0.008-0.043 0.039-0.055 0.064-0.119 0.239-0.227 0.482-0.355 0.715-0.261 0.473-0.453 0.972-0.598 1.491-0.035 0.122-0.091 0.218-0.219 0.243zM16.34 32c-0.074-0.144-0.161-0.273-0.153-0.433 0.004-0.074 0.001-0.148 0.001-0.223 0-0.024 0.009-0.054-0.002-0.073-0.079-0.138-0.066-0.301-0.125-0.444-0.009-0.022-0.022-0.045-0.025-0.069-0.034-0.213-0.132-0.412-0.171-0.62-0.038-0.206-0.139-0.399-0.13-0.617 0.003-0.084-0.044-0.17-0.067-0.256-0.051-0.18-0.11-0.357-0.151-0.538-0.044-0.197-0.064-0.399-0.109-0.595-0.058-0.255-0.13-0.506-0.197-0.758-0.017-0.064-0.062-0.079-0.123-0.079-0.321-0.003-0.641-0.008-0.962-0.013-0.059-0.002-0.125-0.001-0.173-0.028-0.147-0.081-0.306-0.059-0.462-0.080-0.076-0.009-0.157-0.023-0.226-0.057-0.169-0.081-0.344-0.121-0.529-0.112-0.249 0.011-0.473-0.052-0.688-0.181-0.236-0.141-0.487-0.258-0.731-0.386-0.039-0.021-0.079-0.041-0.116-0.066-0.13-0.086-0.256-0.181-0.391-0.258-0.093-0.053-0.201-0.078-0.297-0.126-0.153-0.079-0.312-0.153-0.402-0.314-0.007-0.012-0.017-0.028-0.029-0.032-0.15-0.051-0.229-0.183-0.336-0.283-0.018-0.017-0.035-0.037-0.056-0.048-0.341-0.161-0.584-0.448-0.873-0.676-0.127-0.1-0.24-0.219-0.363-0.323-0.075-0.064-0.159-0.116-0.241-0.171-0.019-0.012-0.052-0.024-0.068-0.017-0.088 0.043-0.193 0.075-0.255 0.144-0.12 0.133-0.279 0.201-0.417 0.303-0.145 0.109-0.299 0.207-0.449 0.309-0.073 0.050-0.143 0.108-0.242 0.086-0.022-0.005-0.054-0.003-0.071 0.010-0.104 0.079-0.207 0.16-0.308 0.242-0.176 0.141-0.35 0.287-0.529 0.424-0.032 0.025-0.083 0.033-0.126 0.035-0.127 0.005-0.213-0.122-0.154-0.235 0.035-0.066 0.079-0.121 0.053-0.205-0.007-0.024 0.027-0.075 0.055-0.093 0.149-0.091 0.217-0.244 0.288-0.387 0.109-0.218 0.251-0.411 0.403-0.598 0.111-0.138 0.234-0.266 0.351-0.4 0.016-0.018 0.037-0.038 0.040-0.060 0.035-0.255 0.219-0.448 0.28-0.716-0.020-0.029-0.052-0.078-0.086-0.125-0.166-0.228-0.332-0.453-0.497-0.681-0.021-0.027-0.030-0.062-0.046-0.093-0.104-0.206-0.219-0.402-0.385-0.568-0.081-0.082-0.137-0.193-0.197-0.294-0.050-0.085-0.093-0.174-0.133-0.264-0.023-0.053-0.052-0.111-0.051-0.167 0-0.094-0.023-0.175-0.070-0.252-0.104-0.167-0.111-0.353-0.113-0.542 0-0.057-0.015-0.115-0.026-0.172-0.008-0.048-0.019-0.096-0.032-0.143-0.061-0.223-0.122-0.446-0.184-0.668-0.009-0.033-0.038-0.063-0.041-0.095-0.015-0.215-0.124-0.414-0.117-0.634 0.001-0.029 0.003-0.064-0.012-0.085-0.066-0.096-0.065-0.204-0.068-0.313-0.004-0.097 0.007-0.198-0.050-0.287-0.008-0.011-0.007-0.029-0.007-0.043-0.003-0.237-0.043-0.468-0.088-0.7-0.006-0.028 0.005-0.067-0.011-0.085-0.091-0.106-0.069-0.232-0.074-0.354-0.004-0.069 0.006-0.14-0.006-0.207-0.013-0.071-0.045-0.14-0.071-0.218-0.137-0.004-0.257-0.051-0.353-0.151-0.016-0.017-0.043-0.026-0.066-0.031-0.167-0.036-0.336-0.064-0.501-0.105-0.099-0.025-0.191-0.078-0.289-0.106-0.178-0.052-0.36-0.096-0.54-0.143-0.047-0.012-0.095-0.023-0.143-0.034-0.364-0.077-0.725-0.183-1.104-0.143-0.047 0.006-0.095 0.001-0.15 0.001 0.002-0.104 0.062-0.154 0.129-0.196 0.087-0.053 0.183-0.068 0.285-0.063 0.11 0.006 0.213-0.014 0.317-0.053 0.076-0.028 0.164-0.030 0.247-0.035 0.094-0.006 0.187 0 0.281-0.001 0.035-0.001 0.070 0.001 0.103-0.008 0.155-0.046 0.305-0.107 0.462-0.139 0.18-0.038 0.345-0.111 0.514-0.176 0.090-0.035 0.154-0.117 0.26-0.126 0.101-0.009 0.203-0.034 0.301-0.063 0.103-0.030 0.21-0.061 0.3-0.115 0.088-0.054 0.169-0.071 0.267-0.031 0.073-0.131 0.132-0.256 0.119-0.408-0.008-0.097 0.007-0.197 0.002-0.296-0.004-0.111 0.012-0.215 0.078-0.309 0.006-0.008 0.011-0.018 0.013-0.026 0.037-0.162 0.074-0.324 0.111-0.486 0.009-0.043 0.018-0.087 0.035-0.127 0.073-0.183 0.153-0.362 0.225-0.545 0.090-0.228 0.142-0.466 0.196-0.705 0.007-0.028 0.013-0.059 0.028-0.084 0.163-0.266 0.208-0.582 0.371-0.849 0.059-0.095 0.085-0.211 0.135-0.312 0.11-0.226 0.224-0.449 0.339-0.672 0.050-0.095 0.096-0.19 0.189-0.257 0.038-0.028 0.055-0.105 0.057-0.16 0.006-0.147-0.022-0.298-0.001-0.443 0.027-0.195-0.082-0.316-0.176-0.461-0.169-0.261-0.327-0.529-0.471-0.804-0.154-0.294-0.31-0.583-0.543-0.825-0.048-0.049-0.086-0.108-0.125-0.165-0.206-0.314-0.425-0.617-0.669-0.903-0.096-0.111-0.167-0.243-0.248-0.367-0.151-0.23-0.302-0.462-0.451-0.694-0.028-0.044-0.044-0.096-0.071-0.157 0.135-0.005 0.242-0.013 0.355 0.076 0.154 0.121 0.334 0.208 0.501 0.313 0.066 0.041 0.133 0.086 0.188 0.14 0.183 0.18 0.355 0.372 0.58 0.503 0.046 0.027 0.079 0.076 0.122 0.108 0.063 0.047 0.125 0.104 0.197 0.128 0.137 0.047 0.234 0.137 0.337 0.23 0.113 0.101 0.245 0.181 0.368 0.272 0.145 0.11 0.297 0.212 0.432 0.333 0.246 0.221 0.527 0.375 0.839 0.479 0.072 0.024 0.139 0.074 0.202 0.119 0.163 0.114 0.324 0.054 0.37-0.141 0.032-0.14 0.124-0.209 0.268-0.202 0.136 0.007 0.249-0.054 0.357-0.125 0.228-0.148 0.454-0.298 0.681-0.447 0.079-0.051 0.157-0.102 0.238-0.15 0.11-0.064 0.219-0.116 0.345-0.153 0.268-0.077 0.528-0.18 0.775-0.318s0.506-0.258 0.778-0.35c0.18-0.062 0.345-0.167 0.519-0.245s0.35-0.155 0.529-0.223c0.235-0.089 0.472-0.163 0.697-0.281 0.168-0.088 0.357-0.135 0.537-0.197 0.088-0.031 0.18-0.052 0.27-0.079 0.193-0.057 0.386-0.116 0.579-0.172 0.087-0.025 0.135-0.074 0.133-0.169-0.001-0.038 0.001-0.082 0.018-0.116 0.077-0.153 0.077-0.316 0.067-0.478-0.011-0.213 0.076-0.405 0.117-0.608 0.077-0.376 0.156-0.753 0.231-1.13 0.011-0.057 0.007-0.118 0.011-0.176 0.005-0.054-0.005-0.119 0.021-0.16 0.092-0.146 0.060-0.305 0.067-0.46 0.005-0.089-0.002-0.175 0.060-0.254 0.023-0.030 0.013-0.084 0.022-0.127 0.011-0.050 0.027-0.097 0.047-0.166 0.083 0.073 0.086 0.155 0.106 0.227 0.061 0.218 0.119 0.437 0.17 0.657 0.029 0.129 0.045 0.262 0.065 0.393s0.030 0.264 0.056 0.394c0.012 0.066 0.039 0.135 0.078 0.188 0.11 0.152 0.149 0.317 0.12 0.5-0.011 0.069-0.004 0.128 0.027 0.197 0.036 0.078 0.038 0.171 0.046 0.258 0.008 0.083 0.012 0.161 0.053 0.242 0.037 0.069 0.037 0.161 0.038 0.244 0.004 0.147-0.008 0.297 0.128 0.442 0.075 0 0.181-0.005 0.287 0.001 0.073 0.005 0.15 0.010 0.216 0.037 0.125 0.051 0.255 0.064 0.388 0.079 0.175 0.021 0.346 0.067 0.52 0.103 0.077 0.015 0.154 0.041 0.23 0.045 0.143 0.007 0.287-0.013 0.429 0.002 0.233 0.025 0.468 0.037 0.686 0.153 0.138 0.074 0.276 0.145 0.41 0.228 0.154 0.095 0.332 0.147 0.496 0.225 0.092 0.044 0.18 0.099 0.263 0.158 0.152 0.109 0.289 0.231 0.484 0.272 0.137 0.028 0.267 0.098 0.395 0.159 0.187 0.088 0.371 0.183 0.553 0.279 0.055 0.030 0.105 0.073 0.154 0.114 0.127 0.109 0.246 0.228 0.381 0.325 0.102 0.074 0.225 0.119 0.337 0.178 0.074 0.038 0.155 0.068 0.219 0.12 0.198 0.162 0.388 0.333 0.582 0.499 0.030 0.025 0.066 0.044 0.117 0.078 0.081-0.045 0.171-0.090 0.256-0.145 0.125-0.081 0.237-0.183 0.367-0.249 0.156-0.081 0.32-0.145 0.474-0.233 0.058-0.034 0.125-0.022 0.181 0.022 0.059 0.045 0.075 0.103 0.038 0.169-0.124 0.224-0.248 0.448-0.376 0.669-0.053 0.093-0.115 0.181-0.172 0.272-0.067 0.106-0.080 0.224-0.047 0.341 0.064 0.225 0.172 0.431 0.312 0.616 0.171 0.228 0.36 0.445 0.535 0.67 0.066 0.085 0.125 0.178 0.172 0.274 0.091 0.185 0.242 0.323 0.366 0.481 0.146 0.185 0.254 0.384 0.29 0.619 0.005 0.034 0.019 0.066 0.030 0.098 0.086 0.257 0.171 0.512 0.259 0.768 0.078 0.223 0.16 0.445 0.238 0.668 0.048 0.135 0.113 0.267 0.132 0.405 0.022 0.163 0.102 0.297 0.155 0.444 0.052 0.143 0.098 0.288 0.142 0.434 0.050 0.165 0.088 0.332 0.141 0.496 0.056 0.173 0.126 0.34 0.146 0.524 0.022 0.193 0.119 0.28 0.31 0.276 0.139-0.002 0.257 0.061 0.357 0.127 0.175 0.117 0.355 0.153 0.556 0.135 0.094-0.008 0.188-0.005 0.282-0.001 0.042 0.002 0.098 0.005 0.125 0.031 0.066 0.065 0.145 0.063 0.222 0.053 0.186-0.023 0.361 0.037 0.538 0.071 0.118 0.022 0.227 0.098 0.367 0.164-0.14 0.047-0.257 0.080-0.368 0.126-0.126 0.053-0.252 0.113-0.371 0.183-0.239 0.139-0.472 0.287-0.711 0.425-0.067 0.038-0.146 0.067-0.223 0.077-0.207 0.025-0.381 0.126-0.56 0.22-0.052 0.028-0.103 0.060-0.157 0.084-0.121 0.053-0.217 0.125-0.258 0.26-0.016 0.054-0.060 0.1-0.089 0.151-0.044 0.077-0.115 0.151-0.125 0.232-0.027 0.213-0.091 0.42-0.106 0.637-0.008 0.13-0.054 0.258-0.089 0.386-0.073 0.271-0.175 0.532-0.216 0.813-0.020 0.129-0.080 0.252-0.12 0.378-0.056 0.178-0.126 0.354-0.162 0.536-0.033 0.163-0.098 0.309-0.157 0.46-0.015 0.037-0.037 0.072-0.041 0.11-0.049 0.346-0.233 0.644-0.348 0.967-0.091 0.257-0.216 0.496-0.36 0.726-0.003 0.005-0.006 0.008-0.007 0.013-0.060 0.241-0.229 0.421-0.346 0.63-0.015 0.026-0.030 0.055-0.052 0.072-0.135 0.096-0.186 0.251-0.278 0.378-0.051 0.069-0.058 0.143-0.016 0.222 0.037 0.070 0.068 0.142 0.103 0.213 0.099 0.209 0.198 0.419 0.3 0.626 0.021 0.043 0.053 0.081 0.080 0.122 0.037 0.061 0.075 0.123 0.115 0.189-0.051 0.034-0.087 0.057-0.123 0.082-0.086 0.062-0.169 0.075-0.274 0.027-0.21-0.096-0.426-0.178-0.642-0.259-0.063-0.024-0.133-0.032-0.2-0.039-0.14-0.016-0.285 0.032-0.421-0.042-0.018-0.009-0.081 0.022-0.092 0.048-0.048 0.113-0.14 0.172-0.236 0.235-0.061 0.039-0.119 0.095-0.155 0.156-0.123 0.207-0.316 0.302-0.536 0.364-0.134 0.038-0.26 0.086-0.353 0.2-0.030 0.037-0.081 0.055-0.121 0.083-0.060 0.042-0.12 0.085-0.178 0.13-0.023 0.018-0.039 0.046-0.065 0.060-0.198 0.106-0.336 0.288-0.52 0.412-0.125 0.085-0.254 0.166-0.383 0.245-0.104 0.065-0.207 0.132-0.316 0.186-0.073 0.036-0.158 0.047-0.236 0.076-0.11 0.039-0.219 0.087-0.329 0.128-0.295 0.109-0.564 0.279-0.873 0.358-0.266 0.067-0.521 0.173-0.785 0.254-0.112 0.034-0.23 0.060-0.346 0.065-0.102 0.004-0.2 0.010-0.284 0.066-0.176 0.116-0.373 0.11-0.57 0.114-0.148 0.003-0.295 0.010-0.416 0.118-0.051 0.046-0.087 0.090-0.085 0.162 0.001 0.038-0.009 0.078-0.021 0.114-0.052 0.174-0.105 0.348-0.159 0.521-0.008 0.028-0.016 0.062-0.036 0.079-0.090 0.077-0.089 0.181-0.1 0.284-0.014 0.122-0.035 0.242-0.052 0.364-0.007 0.038-0.018 0.077-0.020 0.116-0.025 0.42-0.118 0.829-0.225 1.235-0.022 0.081-0.025 0.166-0.045 0.247-0.037 0.157-0.082 0.314-0.121 0.472-0.022 0.095-0.040 0.192-0.058 0.288-0.011 0.063-0.020 0.126-0.030 0.189-0.021 0.126-0.038 0.253-0.065 0.377-0.018 0.085-0.049 0.167-0.074 0.25z"></path>
<path d="M15.378 9.833c-0.002-0.008-0.003-0.016-0.005-0.024-0.082 0.023-0.165 0.046-0.246 0.070-0.11 0.033-0.218 0.066-0.327 0.1-0.11 0.035-0.223 0.067-0.33 0.11-0.084 0.035-0.161 0.087-0.244 0.125-0.063 0.028-0.095 0.075-0.080 0.136 0.017 0.063 0.053 0.12 0.084 0.178 0.081 0.155 0.188 0.291 0.342 0.374 0.158 0.085 0.328 0.15 0.495 0.217 0.060 0.023 0.127 0.030 0.192 0.041 0.14 0.025 0.28 0.060 0.421 0.070 0.256 0.019 0.506-0.033 0.759-0.066 0.209-0.028 0.387-0.117 0.571-0.195 0.206-0.086 0.375-0.231 0.545-0.375 0.138-0.118 0.128-0.334-0.060-0.423-0.096-0.046-0.198-0.080-0.294-0.127-0.191-0.097-0.395-0.164-0.606-0.176-0.405-0.023-0.813-0.024-1.219-0.035zM14.208 20.965c0.011-0.154 0.152-0.172 0.237-0.24 0.19-0.15 0.393-0.284 0.595-0.417 0.075-0.050 0.163-0.080 0.245-0.118 0.090-0.044 0.179-0.090 0.271-0.131 0.135-0.059 0.271-0.12 0.41-0.171 0.067-0.024 0.142-0.030 0.214-0.045 0.183-0.038 0.365-0.096 0.55-0.11 0.373-0.028 0.746-0.043 1.119-0.041 0.139 0.001 0.276 0.070 0.416 0.101 0.099 0.022 0.201 0.040 0.302 0.045 0.191 0.008 0.364 0.059 0.535 0.148 0.103 0.053 0.231 0.057 0.346 0.091 0.14 0.040 0.279 0.081 0.414 0.136 0.152 0.062 0.295 0.142 0.447 0.204 0.041 0.017 0.109 0.011 0.145-0.013 0.094-0.060 0.139 0.022 0.187 0.061 0.024 0.020 0.028 0.097 0.009 0.132-0.092 0.176-0.192 0.347-0.295 0.517-0.044 0.073-0.095 0.144-0.154 0.205-0.192 0.195-0.383 0.391-0.586 0.573-0.125 0.111-0.275 0.198-0.414 0.295-0.078 0.054-0.153 0.115-0.235 0.164-0.221 0.13-0.437 0.275-0.671 0.378-0.285 0.126-0.583 0.225-0.882 0.316-0.191 0.058-0.393 0.082-0.591 0.122-0.199 0.040-0.397 0.105-0.598 0.116-0.37 0.022-0.742 0.013-1.112 0.014-0.087 0.001-0.174-0.006-0.26-0.014-0.105-0.011-0.21-0.025-0.314-0.043-0.195-0.035-0.388-0.089-0.584-0.106-0.28-0.023-0.521-0.157-0.777-0.248-0.184-0.066-0.36-0.152-0.516-0.283-0.138-0.116-0.305-0.196-0.46-0.291-0.221-0.138-0.448-0.268-0.662-0.416-0.133-0.093-0.258-0.201-0.366-0.322-0.068-0.076-0.102-0.184-0.142-0.283-0.008-0.021 0.015-0.062 0.035-0.084 0.202-0.225 0.393-0.461 0.612-0.667 0.19-0.179 0.388-0.353 0.623-0.478 0.115-0.061 0.207-0.163 0.315-0.238 0.176-0.122 0.36-0.23 0.534-0.355 0.195-0.14 0.41-0.238 0.621-0.345 0.198-0.101 0.388-0.217 0.586-0.315 0.119-0.059 0.248-0.099 0.374-0.144 0.131-0.045 0.261-0.104 0.397-0.124 0.211-0.032 0.287-0.152 0.292-0.346 0.002-0.073 0.022-0.146 0.023-0.219 0.004-0.258-0.022-0.52 0.008-0.775 0.065-0.537 0.022-1.075 0.028-1.612 0.006-0.412-0.021-0.824-0.036-1.236-0.001-0.022-0.029-0.062-0.050-0.066-0.168-0.031-0.338-0.048-0.505-0.084-0.169-0.037-0.347-0.043-0.506-0.135-0.057-0.034-0.133-0.034-0.199-0.055-0.134-0.043-0.269-0.086-0.401-0.138-0.217-0.085-0.433-0.175-0.647-0.267-0.043-0.019-0.079-0.055-0.116-0.085-0.098-0.077-0.193-0.158-0.294-0.231-0.072-0.052-0.139-0.031-0.21 0.023-0.222 0.169-0.43 0.353-0.628 0.55-0.117 0.116-0.245 0.221-0.367 0.333-0.099 0.093-0.123 0.219-0.148 0.345-0.021 0.106-0.057 0.209-0.086 0.314-0.024 0.087-0.055 0.173-0.069 0.262-0.020 0.132-0.020 0.268-0.042 0.399-0.027 0.156-0.069 0.311-0.105 0.466-0.005 0.022-0.007 0.045-0.008 0.066-0.014 0.171-0.026 0.343-0.041 0.514-0.011 0.136-0.018 0.272-0.041 0.406-0.020 0.112-0.067 0.22-0.092 0.331-0.027 0.123-0.075 0.253-0.055 0.371 0.034 0.206 0.061 0.418 0.164 0.61 0.085 0.16 0.148 0.333 0.222 0.5 0.009 0.020 0.022 0.039 0.036 0.055 0.101 0.122 0.084 0.211-0.054 0.298-0.023 0.015-0.060 0.032-0.065 0.054-0.030 0.132-0.125 0.088-0.174 0.046-0.107-0.092-0.196-0.205-0.292-0.31-0.020-0.022-0.037-0.045-0.058-0.065-0.222-0.205-0.4-0.446-0.535-0.712-0.093-0.184-0.155-0.384-0.228-0.578-0.036-0.092-0.068-0.184-0.102-0.276-0.004-0.009-0.010-0.018-0.011-0.027-0.042-0.329-0.057-0.659-0.032-0.99 0.009-0.132 0.008-0.266 0.033-0.394 0.033-0.174 0.088-0.345 0.13-0.517 0.024-0.097 0.047-0.196 0.062-0.295 0.034-0.22 0.054-0.443 0.131-0.655 0.033-0.090 0.043-0.188 0.066-0.283 0.029-0.127 0.060-0.254 0.091-0.381 0.022-0.089 0.041-0.178 0.068-0.266 0.016-0.052 0.034-0.11 0.068-0.151 0.071-0.083 0.156-0.155 0.23-0.234 0.050-0.053 0.082-0.124 0.136-0.171 0.136-0.123 0.28-0.235 0.418-0.356 0.084-0.074 0.161-0.156 0.244-0.231 0.040-0.036 0.089-0.060 0.13-0.094 0.064-0.051 0.064-0.106 0.022-0.178-0.126-0.215-0.248-0.434-0.368-0.654-0.020-0.036-0.021-0.081-0.035-0.12-0.027-0.078-0.072-0.093-0.139-0.047-0.166 0.112-0.334 0.22-0.493 0.341-0.071 0.054-0.121 0.135-0.181 0.203-0.198 0.228-0.399 0.454-0.595 0.683-0.116 0.136-0.235 0.271-0.334 0.418-0.060 0.089-0.087 0.201-0.125 0.305-0.046 0.128-0.088 0.259-0.13 0.389-0.037 0.116-0.070 0.235-0.11 0.351-0.045 0.13-0.096 0.258-0.14 0.389-0.059 0.175-0.122 0.35-0.169 0.529-0.067 0.252-0.126 0.506-0.184 0.76-0.023 0.103-0.034 0.208-0.052 0.311-0.017 0.095-0.039 0.187-0.054 0.282-0.024 0.149-0.040 0.299-0.065 0.448-0.020 0.118-0.047 0.235-0.070 0.353-0.002 0.013-0.005 0.026-0.005 0.038 0 0.265-0.026 0.534 0.008 0.794 0.035 0.268 0.072 0.539 0.18 0.797 0.122 0.289 0.208 0.593 0.322 0.886 0.051 0.132 0.131 0.253 0.198 0.379 0.010 0.019 0.019 0.040 0.024 0.061 0.024 0.085 0.047 0.171 0.069 0.257 0.001 0.003 0.005 0.005 0.006 0.008 0.022 0.127-0.104 0.147-0.162 0.215-0.037 0.043-0.087 0.059-0.139 0.002-0.146-0.161-0.36-0.271-0.436-0.483-0.073-0.202-0.221-0.331-0.357-0.48-0.095-0.103-0.175-0.22-0.252-0.337-0.089-0.135-0.174-0.273-0.246-0.418-0.050-0.102-0.085-0.213-0.107-0.325-0.041-0.213-0.063-0.429-0.101-0.642-0.026-0.144-0.063-0.285-0.060-0.434 0.004-0.167-0.035-0.335-0.027-0.501 0.008-0.207 0.042-0.414 0.068-0.62 0.022-0.178 0.048-0.356 0.078-0.534 0.016-0.095 0.045-0.188 0.067-0.283 0.005-0.019 0.013-0.038 0.011-0.057-0.024-0.208 0.063-0.396 0.107-0.592 0.022-0.102 0.022-0.21 0.051-0.309 0.051-0.171 0.038-0.359 0.14-0.519 0.037-0.058 0.036-0.14 0.051-0.211 0.029-0.124 0.045-0.251 0.089-0.368 0.070-0.189 0.154-0.374 0.241-0.555 0.095-0.197 0.192-0.392 0.302-0.58 0.14-0.237 0.302-0.461 0.442-0.697 0.111-0.188 0.265-0.336 0.414-0.491 0.244-0.256 0.493-0.507 0.724-0.775 0.211-0.246 0.467-0.439 0.712-0.645 0.217-0.184 0.444-0.358 0.673-0.527 0.116-0.085 0.254-0.142 0.369-0.228 0.102-0.077 0.18-0.184 0.281-0.264 0.156-0.125 0.322-0.24 0.487-0.355 0.081-0.056 0.163-0.112 0.251-0.155s0.159-0.012 0.206 0.072c0.003 0.006 0.002 0.014 0.006 0.018 0.205 0.181 0.033 0.327-0.043 0.482-0.111 0.228-0.247 0.449-0.323 0.689-0.084 0.269-0.181 0.54-0.179 0.831 0 0.088-0.028 0.176-0.036 0.264-0.022 0.272 0.081 0.508 0.217 0.73 0.219 0.36 0.434 0.727 0.684 1.065 0.165 0.224 0.372 0.426 0.638 0.545 0.177 0.079 0.35 0.168 0.531 0.237 0.129 0.050 0.27 0.072 0.403 0.113 0.128 0.038 0.253 0.085 0.379 0.128 0.073 0.025 0.145 0.051 0.24 0.082 0-0.111-0.004-0.198 0-0.283 0.013-0.273 0.024-0.547 0.045-0.819 0.004-0.058 0.038-0.115 0.066-0.169 0.038-0.074 0.025-0.106-0.057-0.115-0.11-0.013-0.224-0.018-0.33-0.043-0.123-0.029-0.247-0.064-0.359-0.12-0.164-0.083-0.337-0.166-0.471-0.288-0.182-0.168-0.389-0.314-0.512-0.547-0.072-0.137-0.217-0.23-0.381-0.27-0.028-0.007-0.068-0.048-0.067-0.071 0.006-0.107 0.011-0.216 0.039-0.318 0.038-0.143 0.079-0.29 0.15-0.418 0.131-0.234 0.275-0.462 0.432-0.678 0.159-0.221 0.335-0.431 0.514-0.637 0.123-0.14 0.249-0.285 0.399-0.393 0.163-0.119 0.353-0.199 0.534-0.293 0.014-0.008 0.052 0.001 0.056 0.011 0.010 0.023 0.017 0.061 0.005 0.077-0.063 0.085-0.127 0.169-0.199 0.247-0.143 0.155-0.308 0.292-0.433 0.461-0.12 0.16-0.2 0.349-0.294 0.528-0.018 0.035-0.014 0.081-0.023 0.142 0.095-0.022 0.175-0.040 0.255-0.056 0.128-0.025 0.257-0.056 0.386-0.070 0.203-0.022 0.408-0.035 0.612-0.046 0.241-0.013 0.484-0.051 0.721-0.023 0.222 0.026 0.46-0.018 0.669 0.103 0.063 0.037 0.131 0.063 0.199 0.089 0.027 0.010 0.059 0.008 0.089 0.011 0.001-0.031 0.011-0.066 0-0.092-0.036-0.081-0.083-0.157-0.12-0.239-0.074-0.167-0.121-0.352-0.222-0.499-0.118-0.172-0.279-0.316-0.43-0.464-0.069-0.068-0.089-0.109-0.028-0.166 0.021-0.020 0.073-0.036 0.091-0.023 0.153 0.1 0.324 0.172 0.446 0.317 0.066 0.078 0.162 0.13 0.228 0.208 0.132 0.156 0.253 0.321 0.377 0.483 0.047 0.060 0.092 0.122 0.139 0.183 0.183 0.238 0.303 0.509 0.4 0.79 0.058 0.168 0.095 0.344 0.132 0.517 0.022 0.105 0.004 0.189-0.107 0.261-0.116 0.077-0.223 0.173-0.295 0.309-0.154 0.289-0.402 0.493-0.674 0.668-0.126 0.081-0.264 0.127-0.412 0.154-0.077 0.014-0.149 0.054-0.223 0.084-0.015 0.006-0.028 0.024-0.041 0.024-0.141-0.009-0.142 0.077-0.136 0.183 0.019 0.297 0.035 0.593 0.045 0.889 0.007 0.19 0.001 0.197 0.185 0.185 0.154-0.009 0.303-0.044 0.44-0.129 0.070-0.044 0.16-0.058 0.237-0.094 0.275-0.126 0.553-0.248 0.821-0.388 0.165-0.086 0.321-0.189 0.453-0.328 0.112-0.118 0.255-0.209 0.36-0.332 0.135-0.16 0.247-0.341 0.367-0.513 0.057-0.082 0.121-0.163 0.165-0.253 0.079-0.159 0.151-0.322 0.212-0.489 0.031-0.085 0.039-0.18 0.046-0.271 0.016-0.213 0.036-0.426 0.032-0.639-0.003-0.165-0.038-0.33-0.062-0.493-0.012-0.081-0.022-0.164-0.045-0.242-0.040-0.133-0.102-0.261-0.136-0.396-0.037-0.139-0.086-0.282-0.023-0.432 0.073-0.173 0.224-0.247 0.403-0.188 0.060 0.021 0.119 0.048 0.181 0.063 0.104 0.024 0.184 0.081 0.259 0.155 0.033 0.032 0.090 0.054 0.136 0.054 0.178-0.004 0.328 0.044 0.432 0.199 0.016 0.022 0.044 0.037 0.066 0.054 0.099 0.080 0.2 0.156 0.297 0.238 0.088 0.075 0.174 0.153 0.257 0.233 0.048 0.047 0.090 0.1 0.13 0.155 0.168 0.228 0.387 0.399 0.602 0.579 0.24 0.202 0.44 0.45 0.662 0.674 0.139 0.139 0.24 0.3 0.34 0.465 0.089 0.147 0.204 0.278 0.301 0.421 0.143 0.214 0.309 0.419 0.356 0.686 0.005 0.027 0.025 0.051 0.036 0.078 0.052 0.14 0.104 0.282 0.157 0.422 0.086 0.23 0.178 0.459 0.257 0.692 0.043 0.125 0.064 0.257 0.096 0.384 0.034 0.135 0.068 0.27 0.103 0.404 0.002 0.006 0.005 0.012 0.005 0.019 0.016 0.181 0.033 0.362 0.048 0.544 0.015 0.189 0.037 0.378 0.038 0.568 0.006 0.417-0.003 0.834 0.002 1.251 0.002 0.18 0.033 0.359 0.031 0.537-0.002 0.26-0.006 0.522-0.037 0.78-0.024 0.199-0.093 0.393-0.142 0.589-0.013 0.055-0.031 0.109-0.042 0.164-0.018 0.086-0.024 0.175-0.051 0.258-0.031 0.1-0.072 0.198-0.121 0.292-0.072 0.141-0.152 0.279-0.233 0.416-0.029 0.050-0.069 0.093-0.105 0.139-0.083 0.107-0.165 0.215-0.251 0.319-0.055 0.066-0.113 0.133-0.178 0.189-0.215 0.186-0.425 0.382-0.654 0.549-0.158 0.114-0.356 0.118-0.546 0.068-0.081-0.022-0.090-0.073-0.035-0.147 0.109-0.148 0.227-0.29 0.321-0.447 0.148-0.245 0.282-0.5 0.418-0.752 0.081-0.15 0.12-0.312 0.143-0.48 0.013-0.1 0.058-0.196 0.084-0.294 0.026-0.096 0.044-0.195 0.070-0.29 0.044-0.168 0.092-0.335 0.138-0.502 0.006-0.018 0.017-0.036 0.018-0.053 0.018-0.36 0.058-0.718 0.010-1.079-0.039-0.306-0.049-0.615-0.091-0.92-0.033-0.238-0.078-0.473-0.079-0.714 0-0.107-0.017-0.215-0.039-0.32-0.028-0.132-0.073-0.26-0.105-0.391-0.022-0.089-0.029-0.181-0.050-0.269-0.046-0.19-0.098-0.378-0.145-0.567-0.020-0.080-0.031-0.161-0.052-0.24-0.021-0.081-0.045-0.163-0.072-0.242-0.037-0.11-0.074-0.221-0.117-0.329-0.057-0.146-0.135-0.286-0.179-0.435-0.068-0.234-0.297-0.321-0.426-0.496-0.298-0.081-0.472-0.342-0.718-0.498-0.114-0.072-0.218-0.162-0.334-0.232-0.089-0.055-0.134-0.016-0.154 0.089-0.044 0.232-0.101 0.462-0.148 0.693-0.017 0.082-0.023 0.16 0.062 0.226 0.119 0.090 0.225 0.199 0.34 0.295 0.092 0.076 0.201 0.132 0.282 0.216 0.144 0.151 0.283 0.308 0.402 0.478 0.055 0.081 0.069 0.196 0.083 0.298 0.034 0.229 0.051 0.463 0.084 0.692 0.026 0.181 0.052 0.358 0.037 0.543-0.012 0.155 0.029 0.313 0.033 0.469 0.007 0.285 0.026 0.572-0.003 0.853-0.031 0.302-0.011 0.606-0.045 0.905-0.020 0.182-0.106 0.349-0.217 0.508-0.126 0.181-0.266 0.345-0.428 0.49-0.17 0.15-0.35 0.289-0.532 0.425-0.173 0.129-0.348 0.257-0.534 0.369-0.163 0.098-0.342 0.172-0.513 0.257-0.048 0.024-0.096 0.051-0.14 0.081-0.065 0.045-0.121 0.050-0.181-0.009-0.036-0.035-0.080-0.061-0.122-0.089-0.063-0.041-0.066-0.117 0.007-0.196 0.155-0.169 0.315-0.337 0.475-0.504 0.099-0.103 0.211-0.196 0.302-0.306 0.101-0.123 0.186-0.259 0.275-0.391 0.014-0.020 0.013-0.048 0.019-0.072 0.040-0.192 0.020-0.382 0.010-0.576-0.022-0.458-0.006-0.918-0.012-1.376-0.003-0.183-0.028-0.364-0.038-0.547-0.015-0.272-0.082-0.519-0.291-0.711-0.093-0.085-0.176-0.181-0.268-0.266-0.081-0.076-0.17-0.144-0.254-0.216-0.020-0.017-0.035-0.038-0.050-0.060-0.201-0.29-0.314-0.242-0.507-0.093-0.25 0.192-0.526 0.336-0.806 0.468-0.204 0.096-0.419 0.179-0.637 0.234-0.238 0.061-0.463 0.176-0.72 0.169-0.107-0.003-0.214 0.024-0.323 0.034-0.080 0.008-0.1 0.052-0.1 0.125 0 0.349-0.001 0.698-0.007 1.047-0.008 0.427-0.017 0.853-0.028 1.279-0.009 0.351-0.001 0.705-0.039 1.053-0.038 0.338-0.033 0.674-0.044 1.012-0.007 0.183-0.148 0.314-0.328 0.341-0.105 0.015-0.205 0.059-0.307 0.089-0.118 0.035-0.238 0.066-0.355 0.104-0.075 0.024-0.145 0.063-0.218 0.092-0.088 0.035-0.177 0.066-0.266 0.098-0.155 0.059-0.313 0.11-0.463 0.178-0.245 0.112-0.486 0.234-0.727 0.354-0.176 0.088-0.354 0.172-0.521 0.272-0.198 0.119-0.395 0.242-0.577 0.386-0.199 0.156-0.383 0.334-0.568 0.508-0.047 0.043-0.047 0.099 0.008 0.151 0.189 0.179 0.403 0.324 0.629 0.447 0.184 0.101 0.387 0.168 0.576 0.259 0.187 0.092 0.386 0.129 0.589 0.16 0.095 0.015 0.184 0.065 0.274 0.097 0.015 0.006 0.031 0.009 0.047 0.010 0.153 0.015 0.309 0.016 0.459 0.047 0.327 0.069 0.655 0.025 0.982 0.029 0.266 0.004 0.532-0.021 0.798-0.037 0.108-0.007 0.216-0.018 0.322-0.039 0.145-0.031 0.289-0.067 0.43-0.114 0.265-0.087 0.536-0.165 0.789-0.279 0.345-0.155 0.672-0.35 0.95-0.615 0.060-0.057 0.13-0.103 0.194-0.156 0.089-0.074 0.124-0.144-0.040-0.198-0.194-0.065-0.394-0.109-0.591-0.165-0.051-0.014-0.097-0.043-0.149-0.058-0.118-0.035-0.237-0.066-0.357-0.096-0.094-0.023-0.189-0.045-0.284-0.066-0.024-0.006-0.050-0.012-0.075-0.012-0.154-0.001-0.311-0.012-0.465 0.002s-0.305 0.049-0.457 0.080c-0.072 0.014-0.066 0.070-0.029 0.11 0.117 0.124 0.093 0.273 0.061 0.411-0.020 0.086-0.13 0.096-0.21 0.094-0.182-0.002-0.364-0.022-0.546-0.030-0.116-0.005-0.233 0.003-0.349-0.001-0.416-0.011-0.831-0.025-1.248-0.038-0.022 0-0.048-0.008-0.067 0.001-0.153 0.067-0.206-0.048-0.271-0.144-0.014-0.022-0.031-0.041-0.046-0.062z"></path>
</svg>
