<!-- Generated by IcoMoon.io -->
<svg version="1.1" xmlns="http://www.w3.org/2000/svg" width="32" height="32" viewBox="0 0 32 32">
<title>allies-ironjawz</title>
<path d="M6.662 11.772c-0.018 0.084-0.017 0.171-0.053 0.237-0.148 0.272-0.208 0.573-0.308 0.861-0.053 0.152-0.067 0.317-0.099 0.476-0.018 0.086-0.036 0.171-0.057 0.257-0.037 0.157-0.090 0.312-0.11 0.471-0.018 0.15-0.003 0.305-0.002 0.458 0.003 0.374 0.009 0.749 0.012 1.123 0.003 0.339 0.004 0.679 0.004 1.017 0.001 0.242 0.015 0.484-0.006 0.723-0.022 0.249 0.114 0.466 0.108 0.709 0 0.004 0.006 0.008 0.007 0.013 0.024 0.094 0.048 0.189 0.071 0.283 0.011 0.043 0.017 0.087 0.033 0.127 0.033 0.078 0.089 0.149 0.103 0.228 0.037 0.192 0.090 0.379 0.136 0.568 0.029 0.119 0.048 0.244 0.101 0.351 0.060 0.117 0.052 0.237 0.076 0.356 0.023 0.117 0.106 0.22 0.093 0.352-0.005 0.050 0.012 0.107 0.033 0.154 0.091 0.191 0.178 0.383 0.199 0.598 0.003 0.033 0.014 0.069 0.031 0.098 0.115 0.201 0.186 0.425 0.349 0.598 0.068 0.072 0.119 0.158 0.184 0.232 0.165 0.187 0.334 0.372 0.503 0.556 0.106 0.115 0.249 0.196 0.321 0.344 0.013 0.026 0.034 0.048 0.058 0.066 0.141 0.108 0.283 0.213 0.425 0.319 0.039 0.030 0.083 0.054 0.118 0.088 0.114 0.109 0.222 0.222 0.337 0.329 0.079 0.074 0.164 0.14 0.247 0.21 0.169 0.143 0.329 0.297 0.546 0.371 0.055 0.018 0.108 0.050 0.155 0.085 0.099 0.074 0.189 0.159 0.29 0.228 0.093 0.064 0.189 0.135 0.294 0.166 0.302 0.089 0.554 0.249 0.765 0.48 0.020 0.021 0.045 0.043 0.071 0.050 0.314 0.089 0.597 0.285 0.939 0.286 0.047 0 0.094 0.028 0.14 0.044 0.227 0.073 0.455 0.126 0.695 0.105 0.118-0.010 0.237-0.006 0.354-0.001 0.042 0.003 0.086 0.018 0.124 0.038 0.166 0.088 0.34 0.15 0.529 0.157 0.222 0.007 0.445 0.004 0.666 0.004 0.124 0.001 0.243 0.002 0.364 0.050 0.079 0.032 0.174 0.035 0.262 0.035 0.474 0.003 0.948 0.003 1.422 0 0.078 0 0.158-0.015 0.232-0.038 0.122-0.037 0.242-0.084 0.361-0.129 0.224-0.086 0.451-0.127 0.694-0.099 0.1 0.012 0.206-0.003 0.308-0.020 0.218-0.037 0.435-0.079 0.65-0.129 0.119-0.028 0.244-0.059 0.344-0.123 0.186-0.119 0.352-0.269 0.574-0.324 0.039-0.010 0.076-0.045 0.106-0.076 0.075-0.075 0.162-0.125 0.263-0.158 0.074-0.024 0.145-0.061 0.213-0.1 0.235-0.133 0.445-0.307 0.696-0.411 0.088-0.037 0.167-0.084 0.267-0.058 0.021 0.005 0.052-0.001 0.069-0.014 0.099-0.073 0.197-0.146 0.291-0.226s0.176-0.172 0.272-0.249c0.168-0.136 0.351-0.256 0.511-0.4 0.215-0.195 0.415-0.405 0.619-0.611 0.066-0.067 0.123-0.14 0.185-0.211 0.172-0.195 0.378-0.364 0.459-0.625 0.009-0.033 0.033-0.061 0.053-0.089 0.12-0.17 0.229-0.344 0.278-0.551 0.012-0.051 0.038-0.105 0.073-0.144 0.172-0.195 0.274-0.431 0.393-0.657 0.043-0.082 0.071-0.172 0.107-0.258 0.079-0.191 0.159-0.382 0.24-0.572 0.033-0.076 0.068-0.152 0.109-0.225 0.079-0.138 0.147-0.275 0.158-0.44 0.005-0.090 0.043-0.182 0.082-0.266 0.074-0.156 0.147-0.317 0.16-0.488 0.026-0.324 0.183-0.625 0.165-0.955-0.002-0.023 0.014-0.047 0.020-0.071 0.032-0.139 0.069-0.278 0.092-0.418 0.021-0.125 0.012-0.257 0.042-0.38 0.054-0.227 0.079-0.454 0.069-0.688-0.003-0.090 0.017-0.188 0.048-0.273s0.053-0.166 0.042-0.257c-0.007-0.053 0.001-0.109-0.001-0.163-0.004-0.122 0.003-0.247-0.019-0.367-0.048-0.252-0.11-0.499-0.169-0.748-0.026-0.11-0.056-0.219-0.088-0.328-0.064-0.222-0.133-0.442-0.195-0.665s-0.11-0.45-0.181-0.67c-0.038-0.12-0.064-0.236-0.055-0.362 0.003-0.053-0.002-0.11-0.017-0.161-0.057-0.193-0.12-0.384-0.181-0.577-0.033-0.103-0.064-0.206-0.101-0.308-0.080-0.217-0.156-0.436-0.249-0.648-0.077-0.176-0.168-0.345-0.266-0.511-0.092-0.157-0.201-0.304-0.302-0.456-0.044-0.065-0.081-0.138-0.136-0.192-0.179-0.181-0.375-0.348-0.45-0.606-0.003-0.009-0.012-0.016-0.016-0.024-0.114-0.202-0.32-0.321-0.456-0.503-0.008-0.011-0.023-0.019-0.037-0.023-0.152-0.035-0.263-0.125-0.356-0.247-0.029-0.038-0.074-0.064-0.113-0.095-0.155-0.129-0.317-0.252-0.466-0.388-0.302-0.278-0.597-0.562-0.893-0.846-0.12-0.115-0.262-0.189-0.42-0.24-0.054-0.018-0.109-0.046-0.152-0.084-0.114-0.098-0.238-0.15-0.392-0.138-0.059 0.005-0.125-0.018-0.181-0.042-0.081-0.034-0.153-0.091-0.236-0.121-0.13-0.048-0.252-0.102-0.351-0.206-0.089-0.094-0.192-0.167-0.335-0.16-0.045 0.002-0.094-0.025-0.138-0.045-0.152-0.072-0.302-0.134-0.479-0.126-0.221 0.010-0.444-0.003-0.666-0.010-0.058-0.002-0.116-0.015-0.174-0.028-0.062-0.014-0.125-0.028-0.182-0.052-0.15-0.063-0.317-0.073-0.454-0.169-0.099-0.069-0.212-0.098-0.336-0.091-0.133 0.007-0.267 0.004-0.4 0.003-0.085-0.002-0.164 0.010-0.241 0.055-0.048 0.028-0.113 0.033-0.17 0.033-0.316 0.004-0.632 0.004-0.948 0.003-0.239-0.001-0.454 0.112-0.685 0.142-0.014 0.002-0.027 0.013-0.040 0.019-0.236 0.111-0.472 0.222-0.707 0.334-0.035 0.017-0.065 0.044-0.099 0.063-0.069 0.035-0.138 0.071-0.21 0.099-0.183 0.073-0.377 0.122-0.547 0.216-0.247 0.135-0.51 0.232-0.767 0.342-0.23 0.099-0.466 0.191-0.681 0.316-0.239 0.14-0.481 0.266-0.751 0.33-0.072 0.017-0.122 0.050-0.174 0.1-0.106 0.102-0.214 0.205-0.336 0.286s-0.242 0.171-0.393 0.201c-0.036 0.007-0.069 0.036-0.099 0.061-0.072 0.060-0.139 0.126-0.211 0.186-0.11 0.090-0.222 0.177-0.334 0.264-0.194 0.15-0.404 0.278-0.567 0.47-0.104 0.121-0.206 0.252-0.358 0.327-0.064 0.032-0.115 0.093-0.172 0.139-0.138 0.109-0.242 0.262-0.415 0.326-0.024 0.008-0.043 0.038-0.056 0.064-0.119 0.238-0.227 0.482-0.354 0.715-0.262 0.473-0.453 0.973-0.598 1.491-0.034 0.121-0.091 0.218-0.219 0.243zM16.34 31.999c-0.074-0.145-0.161-0.273-0.153-0.433 0.003-0.074 0.001-0.148 0.001-0.222 0-0.024 0.009-0.054-0.002-0.073-0.079-0.139-0.067-0.301-0.125-0.445-0.009-0.023-0.022-0.045-0.025-0.069-0.034-0.214-0.133-0.412-0.171-0.62-0.039-0.206-0.14-0.399-0.131-0.617 0.003-0.084-0.043-0.171-0.067-0.256-0.051-0.18-0.11-0.357-0.15-0.538-0.044-0.196-0.064-0.399-0.109-0.595-0.058-0.254-0.13-0.505-0.196-0.757-0.017-0.064-0.062-0.079-0.123-0.079-0.321-0.003-0.641-0.007-0.961-0.013-0.059-0.001-0.125 0-0.174-0.027-0.146-0.082-0.306-0.060-0.461-0.080-0.077-0.010-0.158-0.023-0.227-0.057-0.168-0.082-0.344-0.121-0.529-0.113-0.248 0.011-0.472-0.052-0.688-0.181-0.236-0.142-0.487-0.258-0.731-0.386-0.039-0.020-0.079-0.041-0.115-0.065-0.131-0.086-0.257-0.181-0.392-0.258-0.093-0.053-0.201-0.078-0.297-0.127-0.153-0.079-0.312-0.152-0.401-0.313-0.008-0.013-0.018-0.028-0.030-0.033-0.149-0.050-0.228-0.182-0.335-0.283-0.018-0.018-0.035-0.038-0.056-0.048-0.341-0.161-0.585-0.448-0.873-0.676-0.126-0.1-0.239-0.219-0.363-0.323-0.075-0.064-0.159-0.116-0.241-0.171-0.019-0.013-0.052-0.025-0.068-0.017-0.089 0.043-0.193 0.074-0.256 0.144-0.119 0.133-0.278 0.201-0.416 0.303-0.145 0.109-0.298 0.207-0.449 0.309-0.074 0.050-0.144 0.108-0.243 0.086-0.022-0.004-0.053-0.003-0.070 0.010-0.104 0.079-0.207 0.16-0.309 0.242-0.176 0.142-0.349 0.287-0.528 0.425-0.032 0.025-0.084 0.033-0.126 0.034-0.128 0.005-0.212-0.122-0.154-0.235 0.034-0.066 0.079-0.121 0.053-0.205-0.007-0.024 0.028-0.075 0.056-0.093 0.148-0.092 0.216-0.244 0.288-0.387 0.109-0.218 0.251-0.411 0.402-0.598 0.112-0.137 0.234-0.266 0.351-0.4 0.017-0.018 0.038-0.038 0.041-0.059 0.034-0.256 0.219-0.449 0.28-0.717-0.020-0.029-0.053-0.078-0.087-0.125-0.165-0.227-0.332-0.453-0.497-0.68-0.020-0.027-0.030-0.062-0.046-0.093-0.104-0.206-0.22-0.402-0.385-0.568-0.081-0.082-0.136-0.192-0.196-0.294-0.049-0.084-0.092-0.174-0.132-0.263-0.024-0.053-0.053-0.111-0.053-0.167 0.001-0.093-0.023-0.175-0.070-0.252-0.104-0.167-0.111-0.353-0.112-0.542-0.001-0.058-0.016-0.115-0.027-0.172-0.009-0.048-0.019-0.096-0.032-0.144-0.061-0.222-0.122-0.445-0.184-0.668-0.009-0.033-0.038-0.062-0.041-0.094-0.014-0.216-0.124-0.414-0.117-0.634 0.001-0.028 0.003-0.064-0.013-0.085-0.066-0.096-0.064-0.204-0.068-0.313-0.003-0.097 0.007-0.197-0.050-0.286-0.007-0.012-0.007-0.029-0.007-0.043-0.003-0.237-0.043-0.469-0.088-0.7-0.005-0.028 0.005-0.068-0.011-0.086-0.090-0.105-0.069-0.232-0.074-0.354-0.003-0.069 0.006-0.14-0.006-0.206-0.013-0.072-0.044-0.14-0.071-0.218-0.136-0.004-0.257-0.050-0.353-0.151-0.016-0.017-0.043-0.026-0.066-0.031-0.167-0.035-0.336-0.063-0.502-0.104-0.099-0.025-0.191-0.077-0.288-0.106-0.179-0.052-0.36-0.096-0.541-0.143-0.047-0.013-0.095-0.023-0.143-0.033-0.364-0.077-0.725-0.183-1.104-0.143-0.047 0.005-0.095 0.001-0.15 0.001 0.002-0.104 0.061-0.154 0.129-0.196 0.087-0.053 0.184-0.069 0.285-0.064 0.109 0.006 0.212-0.013 0.318-0.053 0.075-0.028 0.163-0.030 0.247-0.035 0.094-0.005 0.187 0 0.281-0.001 0.035-0.001 0.071 0.002 0.103-0.008 0.155-0.046 0.305-0.107 0.462-0.14 0.18-0.038 0.344-0.111 0.513-0.176 0.090-0.035 0.154-0.118 0.261-0.127 0.101-0.009 0.203-0.033 0.301-0.062 0.103-0.031 0.209-0.061 0.299-0.116 0.089-0.053 0.169-0.071 0.267-0.031 0.074-0.13 0.133-0.256 0.12-0.407-0.009-0.098 0.006-0.197 0.002-0.296-0.004-0.112 0.012-0.216 0.078-0.31 0.006-0.008 0.011-0.017 0.013-0.026 0.038-0.162 0.074-0.324 0.111-0.486 0.010-0.043 0.018-0.087 0.035-0.128 0.074-0.182 0.153-0.362 0.225-0.545 0.090-0.227 0.142-0.466 0.196-0.704 0.007-0.029 0.013-0.060 0.028-0.084 0.164-0.266 0.208-0.583 0.371-0.85 0.059-0.095 0.085-0.21 0.135-0.312 0.109-0.226 0.223-0.449 0.338-0.672 0.049-0.094 0.095-0.19 0.189-0.257 0.038-0.028 0.055-0.104 0.058-0.16 0.005-0.147-0.023-0.298-0.002-0.443 0.028-0.196-0.083-0.317-0.176-0.461-0.168-0.26-0.327-0.528-0.471-0.803-0.155-0.294-0.31-0.584-0.543-0.825-0.048-0.049-0.087-0.108-0.125-0.165-0.206-0.313-0.425-0.616-0.67-0.902-0.095-0.112-0.167-0.243-0.248-0.367-0.151-0.231-0.303-0.461-0.451-0.694-0.028-0.044-0.045-0.096-0.072-0.157 0.135-0.005 0.243-0.013 0.355 0.075 0.153 0.121 0.333 0.208 0.501 0.313 0.066 0.042 0.133 0.087 0.188 0.141 0.183 0.18 0.354 0.371 0.58 0.502 0.046 0.027 0.079 0.075 0.121 0.108 0.063 0.047 0.125 0.104 0.196 0.128 0.137 0.047 0.234 0.137 0.338 0.231 0.113 0.101 0.245 0.181 0.367 0.272 0.146 0.109 0.298 0.211 0.432 0.333 0.247 0.221 0.527 0.375 0.838 0.48 0.073 0.024 0.139 0.074 0.203 0.119 0.163 0.115 0.323 0.054 0.369-0.141 0.033-0.14 0.124-0.209 0.268-0.202 0.136 0.007 0.249-0.054 0.357-0.125 0.228-0.148 0.454-0.298 0.68-0.446 0.079-0.051 0.158-0.102 0.238-0.15 0.11-0.064 0.219-0.117 0.345-0.153 0.268-0.077 0.528-0.18 0.775-0.318 0.248-0.139 0.507-0.258 0.779-0.35 0.18-0.061 0.344-0.166 0.518-0.246s0.35-0.155 0.529-0.222c0.234-0.088 0.472-0.163 0.696-0.281 0.168-0.088 0.357-0.135 0.537-0.196 0.089-0.031 0.18-0.052 0.269-0.079 0.193-0.057 0.386-0.116 0.579-0.172 0.087-0.025 0.135-0.074 0.133-0.17-0.001-0.038 0.002-0.082 0.018-0.115 0.076-0.153 0.076-0.316 0.067-0.479-0.011-0.213 0.076-0.405 0.118-0.608 0.076-0.376 0.155-0.752 0.231-1.13 0.012-0.057 0.007-0.118 0.012-0.176 0.004-0.054-0.006-0.118 0.020-0.16 0.091-0.146 0.059-0.305 0.067-0.46 0.005-0.089-0.002-0.176 0.060-0.253 0.023-0.030 0.013-0.085 0.023-0.128 0.012-0.049 0.028-0.098 0.047-0.166 0.084 0.073 0.086 0.155 0.106 0.227 0.061 0.218 0.119 0.437 0.17 0.658 0.030 0.129 0.046 0.262 0.065 0.393s0.030 0.263 0.055 0.394c0.013 0.066 0.040 0.135 0.079 0.189 0.11 0.151 0.149 0.317 0.12 0.499-0.011 0.070-0.003 0.129 0.028 0.197 0.035 0.078 0.038 0.171 0.046 0.258 0.008 0.084 0.012 0.16 0.053 0.241 0.036 0.069 0.037 0.162 0.038 0.245 0.003 0.147-0.009 0.297 0.127 0.442 0.075 0 0.181-0.005 0.288 0.001 0.073 0.004 0.15 0.010 0.216 0.038 0.126 0.051 0.255 0.064 0.388 0.079 0.175 0.021 0.347 0.067 0.52 0.103 0.077 0.015 0.153 0.041 0.231 0.045 0.142 0.007 0.287-0.013 0.428 0.002 0.233 0.025 0.468 0.036 0.686 0.153 0.138 0.074 0.276 0.145 0.41 0.227 0.154 0.094 0.332 0.146 0.496 0.225 0.092 0.044 0.181 0.099 0.263 0.158 0.152 0.109 0.289 0.231 0.484 0.271 0.137 0.029 0.267 0.099 0.396 0.16 0.186 0.088 0.37 0.182 0.552 0.279 0.055 0.030 0.105 0.073 0.153 0.115 0.128 0.108 0.247 0.227 0.382 0.324 0.102 0.074 0.224 0.12 0.337 0.178 0.074 0.039 0.155 0.069 0.219 0.12 0.197 0.161 0.388 0.333 0.582 0.499 0.030 0.025 0.066 0.043 0.118 0.078 0.080-0.045 0.171-0.090 0.256-0.145 0.124-0.081 0.237-0.182 0.367-0.249 0.155-0.080 0.32-0.145 0.473-0.233 0.058-0.033 0.125-0.022 0.181 0.021 0.058 0.046 0.074 0.104 0.038 0.17-0.124 0.223-0.249 0.447-0.376 0.669-0.054 0.093-0.115 0.181-0.173 0.272-0.067 0.106-0.080 0.223-0.047 0.341 0.064 0.225 0.173 0.43 0.312 0.616 0.172 0.229 0.359 0.445 0.535 0.67 0.066 0.085 0.125 0.178 0.172 0.274 0.091 0.186 0.242 0.323 0.366 0.481 0.146 0.186 0.253 0.384 0.29 0.619 0.005 0.033 0.019 0.066 0.030 0.099 0.086 0.256 0.171 0.512 0.26 0.767 0.077 0.223 0.159 0.446 0.237 0.668 0.047 0.135 0.113 0.268 0.132 0.406 0.022 0.162 0.101 0.296 0.155 0.443 0.052 0.143 0.099 0.288 0.142 0.435 0.050 0.165 0.089 0.333 0.142 0.496 0.056 0.173 0.126 0.34 0.146 0.525 0.021 0.192 0.119 0.279 0.31 0.276 0.138-0.002 0.257 0.061 0.356 0.128 0.176 0.116 0.354 0.152 0.557 0.135 0.093-0.008 0.187-0.005 0.281-0.002 0.043 0.002 0.099 0.005 0.125 0.032 0.067 0.064 0.145 0.063 0.221 0.053 0.186-0.023 0.362 0.037 0.539 0.070 0.118 0.023 0.226 0.099 0.366 0.164-0.14 0.048-0.257 0.080-0.368 0.127-0.127 0.053-0.252 0.114-0.371 0.182-0.239 0.138-0.471 0.288-0.71 0.425-0.067 0.038-0.146 0.067-0.222 0.076-0.207 0.025-0.382 0.127-0.56 0.221-0.053 0.028-0.103 0.059-0.157 0.084-0.12 0.053-0.217 0.125-0.258 0.261-0.017 0.054-0.060 0.1-0.089 0.151-0.044 0.076-0.115 0.15-0.125 0.232-0.027 0.214-0.090 0.42-0.105 0.637-0.009 0.13-0.055 0.258-0.089 0.385-0.074 0.27-0.176 0.532-0.216 0.812-0.019 0.13-0.080 0.252-0.12 0.379-0.057 0.178-0.126 0.354-0.162 0.537-0.033 0.162-0.098 0.308-0.158 0.459-0.014 0.037-0.036 0.073-0.041 0.111-0.048 0.347-0.232 0.644-0.348 0.967-0.091 0.257-0.216 0.496-0.36 0.726-0.003 0.004-0.006 0.008-0.007 0.013-0.059 0.241-0.229 0.421-0.347 0.63-0.014 0.026-0.029 0.055-0.052 0.071-0.135 0.096-0.186 0.252-0.278 0.379-0.050 0.069-0.058 0.144-0.016 0.222 0.037 0.069 0.069 0.142 0.103 0.213 0.099 0.209 0.198 0.419 0.299 0.626 0.022 0.043 0.054 0.081 0.079 0.122 0.038 0.061 0.075 0.123 0.116 0.189-0.051 0.034-0.088 0.058-0.123 0.084-0.086 0.062-0.17 0.074-0.274 0.027-0.21-0.096-0.426-0.178-0.643-0.26-0.063-0.023-0.133-0.032-0.201-0.039-0.14-0.016-0.284 0.032-0.42-0.042-0.018-0.010-0.082 0.022-0.092 0.048-0.048 0.113-0.14 0.172-0.236 0.235-0.061 0.039-0.119 0.094-0.155 0.156-0.123 0.207-0.317 0.302-0.535 0.364-0.135 0.038-0.262 0.087-0.354 0.201-0.029 0.036-0.080 0.055-0.12 0.084-0.060 0.042-0.12 0.084-0.178 0.13-0.023 0.018-0.039 0.046-0.064 0.059-0.198 0.106-0.336 0.288-0.519 0.413-0.125 0.084-0.254 0.166-0.384 0.245-0.104 0.065-0.206 0.132-0.316 0.186-0.074 0.036-0.159 0.047-0.237 0.075-0.11 0.040-0.218 0.088-0.328 0.129-0.295 0.109-0.563 0.279-0.873 0.358-0.266 0.067-0.522 0.173-0.785 0.253-0.112 0.034-0.23 0.061-0.346 0.065-0.102 0.003-0.2 0.010-0.283 0.065-0.176 0.116-0.373 0.111-0.57 0.115-0.149 0.003-0.295 0.010-0.416 0.118-0.051 0.046-0.087 0.089-0.085 0.162 0.001 0.038-0.009 0.077-0.020 0.114-0.052 0.175-0.105 0.349-0.159 0.522-0.009 0.028-0.016 0.062-0.036 0.079-0.090 0.077-0.089 0.181-0.101 0.284-0.013 0.122-0.034 0.242-0.052 0.364-0.006 0.039-0.018 0.078-0.019 0.116-0.026 0.421-0.119 0.829-0.226 1.235-0.021 0.081-0.024 0.166-0.043 0.247-0.038 0.158-0.083 0.314-0.121 0.472-0.023 0.095-0.040 0.191-0.058 0.288-0.012 0.063-0.019 0.126-0.029 0.19-0.021 0.125-0.038 0.252-0.065 0.377-0.018 0.084-0.048 0.166-0.074 0.25z"></path>
<path d="M17.499 24.761c-0.010-0.013-0.018-0.035-0.029-0.037-0.204-0.027-0.349-0.164-0.515-0.263-0.059-0.035-0.13-0.053-0.192-0.083-0.095-0.047-0.204-0.081-0.279-0.15-0.166-0.15-0.36-0.238-0.56-0.323-0.305-0.129-0.611-0.253-0.915-0.385-0.084-0.037-0.175-0.078-0.238-0.141-0.099-0.096-0.23-0.099-0.342-0.152-0.11-0.053-0.231-0.084-0.338-0.14-0.168-0.090-0.351 0.013-0.361 0.206-0.006 0.12-0.019 0.24-0.047 0.356-0.007 0.030-0.089 0.074-0.118 0.064-0.16-0.061-0.315-0.134-0.47-0.207-0.223-0.107-0.446-0.214-0.665-0.328-0.112-0.058-0.216-0.13-0.325-0.195-0.022-0.013-0.045-0.024-0.077-0.041 0.090-0.126 0.019-0.226-0.038-0.338-0.074-0.143-0.115-0.303-0.179-0.451-0.062-0.144-0.104-0.3-0.222-0.414-0.004-0.005-0.013-0.008-0.014-0.013-0.043-0.178-0.177-0.176-0.32-0.168-0.104 0.006-0.211-0.001-0.315-0.003s-0.186-0.065-0.213-0.149c-0.032-0.098-0.025-0.211-0.027-0.317-0.002-0.187-0.010-0.376 0.007-0.563 0.093-1.004 0.017-2.009 0.038-3.013 0.004-0.197-0.021-0.396-0.043-0.593-0.008-0.065-0.031-0.134-0.116-0.155-0.017-0.004-0.039-0.063-0.030-0.081 0.106-0.208 0.217-0.414 0.329-0.619 0.066-0.122 0.134-0.242 0.206-0.36 0.084-0.137 0.174-0.27 0.258-0.406 0.074-0.117 0.143-0.237 0.215-0.355 0.1-0.167 0.198-0.335 0.302-0.5 0.079-0.126 0.162-0.252 0.252-0.371 0.064-0.084 0.138-0.165 0.218-0.233 0.084-0.073 0.199-0.022 0.198 0.089-0.002 0.131-0.019 0.263-0.034 0.395-0.012 0.106-0.019 0.214-0.048 0.315-0.072 0.245-0.059 0.503-0.151 0.746-0.101 0.265-0.221 0.536-0.186 0.831 0.018 0.15 0.065 0.295 0.1 0.442 0.036 0.149 0.069 0.299 0.112 0.446 0.027 0.091 0.071 0.177 0.103 0.268 0.026 0.076 0.047 0.155 0.067 0.234 0.028 0.114 0.056 0.228 0.080 0.344 0.018 0.084 0.028 0.17 0.048 0.253 0.020 0.086 0.048 0.171 0.073 0.257 0.002 0.009 0.008 0.018 0.008 0.028 0.016 0.148 0.028 0.297 0.048 0.444 0.021 0.15 0.066 0.298 0.072 0.446 0.004 0.106 0.066 0.147 0.133 0.192 0.028 0.020 0.078 0.038 0.103 0.027 0.033-0.015 0.063-0.058 0.074-0.094 0.068-0.229 0.13-0.46 0.192-0.69 0.037-0.134 0.070-0.268 0.11-0.401 0.023-0.079 0.048-0.158 0.086-0.231 0.030-0.059 0.092-0.070 0.155-0.046s0.097 0.064 0.094 0.134c-0.002 0.073 0.002 0.145 0.001 0.217-0.006 0.161 0.039 0.309 0.117 0.447 0.112 0.199 0.183 0.411 0.228 0.634 0.008 0.037 0.031 0.070 0.049 0.11 0.033-0.011 0.060-0.025 0.087-0.027 0.099-0.008 0.121-0.069 0.122-0.156 0.002-0.144 0.092-0.503 0.204-0.634 0.097 0.114 0.229 0.105 0.364 0.112 0.045 0.003 0.094 0.090 0.125 0.147 0.107 0.197 0.208 0.399 0.31 0.598 0.030 0.058 0.045 0.128 0.087 0.176 0.076 0.087 0.186 0.059 0.232-0.045 0.064-0.149 0.131-0.296 0.196-0.445 0.025-0.058 0.055-0.092 0.127-0.064 0.038 0.016 0.084 0.015 0.127 0.017 0.091 0.002 0.149 0.046 0.196 0.123 0.101 0.164 0.247 0.284 0.395 0.405 0.122 0.101 0.217 0.232 0.328 0.347 0.023 0.024 0.061 0.048 0.092 0.048 0.023 0 0.058-0.031 0.071-0.057 0.071-0.14 0.142-0.28 0.201-0.425 0.031-0.074 0.044-0.155 0.055-0.234 0.019-0.145 0.028-0.291 0.044-0.436 0.011-0.1 0.088-0.181 0.187-0.201 0.111-0.023 0.168 0.008 0.231 0.118 0.050 0.089 0.082 0.189 0.201 0.228 0.034 0.011 0.034 0.106 0.064 0.154 0.023 0.037 0.074 0.086 0.105 0.081 0.040-0.008 0.088-0.055 0.105-0.097 0.070-0.164 0.13-0.333 0.194-0.499 0.064-0.164 0.13-0.327 0.191-0.491 0.049-0.13 0.090-0.263 0.14-0.393 0.065-0.172 0.138-0.342 0.202-0.514 0.046-0.124 0.088-0.248 0.124-0.374 0.023-0.079 0.028-0.165 0.048-0.244 0.060-0.229 0.039-0.476 0.16-0.69 0.007-0.011 0.008-0.025 0.009-0.038 0.014-0.123 0.034-0.245 0.041-0.368 0.018-0.359 0.028-0.719 0.045-1.077 0.013-0.275 0.025-0.549 0.051-0.823 0.004-0.048 0.063-0.111 0.111-0.13 0.061-0.025 0.138-0.011 0.181 0.059 0.027 0.042 0.046 0.089 0.077 0.126 0.023 0.027 0.059 0.059 0.089 0.059 0.094 0 0.159 0.027 0.181 0.125 0.039 0.174 0.077 0.349 0.12 0.522 0.036 0.143 0.078 0.284 0.119 0.425 0.044 0.151 0.091 0.301 0.136 0.451 0.041 0.135 0.085 0.268 0.12 0.403 0.023 0.094 0.029 0.191 0.049 0.286 0.061 0.288 0.035 0.581 0.047 0.872 0.004 0.087 0.047 0.172 0.069 0.259 0.020 0.078 0.038 0.156 0.055 0.235 0.030 0.137 0.053 0.276 0.092 0.41 0.058 0.198 0.086 0.399 0.082 0.604-0.003 0.076-0.006 0.151-0.002 0.227 0.008 0.154-0.032 0.283-0.151 0.39-0.072 0.064-0.126 0.147-0.188 0.221-0.151 0.18-0.301 0.36-0.453 0.539-0.206 0.24-0.43 0.462-0.584 0.746-0.099 0.183-0.248 0.338-0.371 0.51-0.134 0.186-0.285 0.359-0.35 0.589-0.050 0.177-0.139 0.344-0.198 0.519-0.042 0.124-0.060 0.257-0.096 0.383-0.039 0.136-0.081 0.273-0.134 0.404-0.107 0.268-0.209 0.54-0.337 0.798-0.115 0.233-0.26 0.452-0.398 0.675-0.054 0.087-0.16 0.068-0.245 0.093-0.046 0.013-0.087 0.041-0.13 0.063z"></path>
<path d="M8.057 11.982c0.028-0.064 0.058-0.129 0.084-0.194 0.036-0.085 0.062-0.176 0.106-0.257 0.051-0.094 0.117-0.182 0.178-0.273 0.055-0.082 0.106-0.169 0.169-0.245 0.171-0.205 0.344-0.405 0.52-0.606 0.031-0.036 0.080-0.056 0.113-0.090 0.078-0.083 0.149-0.171 0.225-0.254 0.121-0.13 0.242-0.261 0.367-0.388 0.058-0.058 0.116-0.125 0.188-0.156 0.201-0.088 0.376-0.047 0.484 0.125 0.023 0.037 0.082 0.088 0.104 0.079 0.041-0.016 0.084-0.065 0.097-0.109 0.064-0.221 0.204-0.369 0.405-0.471 0.043-0.021 0.079-0.059 0.123-0.075 0.071-0.028 0.145-0.059 0.22-0.061 0.216-0.008 0.433-0.001 0.649-0.005 0.058-0.002 0.115-0.022 0.181-0.035 0 0.023 0.005 0.039 0 0.052-0.114 0.27-0.232 0.538-0.341 0.81-0.038 0.095-0.055 0.2-0.088 0.298-0.042 0.129-0.092 0.255-0.134 0.384-0.068 0.208-0.133 0.416-0.194 0.626-0.048 0.166-0.089 0.334-0.134 0.502-0.043 0.155-0.164 0.242-0.324 0.231-0.174-0.013-0.353-0.012-0.521-0.051-0.319-0.076-0.64-0.033-0.959-0.029-0.135 0.002-0.27 0.089-0.404 0.14-0.274 0.106-0.403 0.343-0.518 0.588-0.059 0.126-0.113 0.256-0.159 0.388-0.018 0.050-0.009 0.11-0.009 0.165-0.002 0.115 0 0.231-0.001 0.345-0.001 0.127-0.023 0.141-0.15 0.147-0.11 0.006-0.207-0.005-0.277-0.101v-0.158c0.014-0.025 0.040-0.051 0.041-0.077 0.003-0.16 0.003-0.319-0.002-0.479-0.001-0.038-0.025-0.077-0.039-0.115z"></path>
<path d="M15.821 13.809c0 0.053-0.002 0.105 0.001 0.158 0.002 0.026 0.013 0.071 0.027 0.074 0.031 0.005 0.072-0.001 0.098-0.018 0.063-0.041 0.12-0.090 0.177-0.139 0.016-0.013 0.033-0.033 0.038-0.053 0.018-0.088 0.026-0.177 0.047-0.264 0.021-0.089 0.052-0.175 0.078-0.262 0.028-0.089 0.090-0.173 0.007-0.272-0.126-0.148-0.239-0.307-0.367-0.453-0.027-0.031-0.095-0.030-0.145-0.034-0.013-0.001-0.038 0.033-0.043 0.053-0.019 0.089-0.031 0.178-0.048 0.267-0.014 0.073-0.022 0.15-0.053 0.216-0.061 0.127-0.043 0.24 0.050 0.334 0.11 0.113 0.155 0.24 0.134 0.394zM13.538 10.667c-0.008 0.009-0.017 0.018-0.025 0.028 0.012 0.038 0.017 0.079 0.037 0.113 0.064 0.11 0.123 0.223 0.202 0.321 0.069 0.087 0.15 0.196 0.247 0.225 0.229 0.069 0.471 0.097 0.707 0.138 0.060 0.010 0.123 0.002 0.185 0.007 0.116 0.010 0.233 0.027 0.35 0.035 0.073 0.005 0.102-0.042 0.111-0.11 0.007-0.054 0.025-0.106 0.034-0.16 0.016-0.089 0.028-0.179 0.043-0.27-0.091-0.024-0.171-0.059-0.252-0.064-0.313-0.018-0.629 0.027-0.935-0.085-0.136-0.050-0.278-0.084-0.42-0.12-0.094-0.023-0.19-0.038-0.284-0.057zM18.548 11.491c-0.027-0.13-0.056-0.271-0.085-0.412-0.039-0.183-0.085-0.365-0.115-0.55-0.014-0.092-0.067-0.084-0.116-0.062-0.058 0.025-0.109 0.069-0.16 0.11-0.154 0.12-0.304 0.246-0.46 0.364-0.139 0.107-0.283 0.206-0.425 0.309-0.105 0.075-0.211 0.148-0.315 0.226-0.077 0.059-0.153 0.12-0.223 0.186-0.018 0.018-0.020 0.062-0.014 0.090 0.003 0.013 0.042 0.028 0.064 0.028 0.121-0.001 0.243-0.002 0.364-0.011 0.277-0.019 0.553-0.043 0.83-0.064 0.088-0.007 0.176-0.015 0.265-0.020 0.051-0.002 0.104-0.008 0.154-0.001 0.119 0.015 0.23-0.068 0.236-0.193zM16.697 8.036c0.234-0.028 0.469-0.057 0.704-0.085 0.009-0.002 0.019-0.003 0.029-0.003 0.225-0.016 0.451-0.028 0.676-0.049 0.133-0.013 0.206 0.060 0.273 0.155 0.050 0.072 0.091 0.152 0.153 0.211 0.033 0.032 0.102 0.033 0.155 0.038 0.143 0.013 0.287 0.014 0.429 0.030 0.039 0.005 0.080 0.040 0.111 0.071 0.062 0.062 0.112 0.137 0.177 0.196 0.17 0.153 0.258 0.354 0.338 0.56 0.087 0.222 0.171 0.445 0.251 0.669 0.036 0.1 0.055 0.207 0.093 0.307 0.064 0.171 0.143 0.338 0.203 0.511 0.085 0.244 0.156 0.494 0.134 0.757-0.003 0.028-0.035 0.067-0.063 0.078-0.112 0.045-0.155 0.099-0.147 0.227 0.008 0.139 0.013 0.274-0.078 0.391-0.004 0.005-0.008 0.013-0.006 0.018 0.039 0.175-0.106 0.197-0.209 0.252-0.094 0.050-0.19 0.094-0.286 0.14-0.179 0.085-0.358 0.17-0.537 0.255-0.014 0.007-0.028 0.016-0.040 0.026-0.145 0.125-0.212 0.439-0.135 0.617 0.008 0.018 0.008 0.038 0.013 0.057 0.038 0.184 0.076 0.367 0.11 0.551 0.009 0.050 0.021 0.108 0.007 0.153-0.053 0.165-0.12 0.326-0.176 0.49-0.032 0.093-0.042 0.194-0.080 0.283-0.125 0.285-0.265 0.564-0.386 0.85-0.053 0.126-0.079 0.265-0.113 0.4-0.020 0.078-0.034 0.156-0.048 0.236s-0.031 0.159-0.037 0.239c-0.018 0.226-0.016 0.453-0.048 0.676-0.036 0.241-0.096 0.48-0.217 0.695-0.020 0.035-0.083 0.062-0.127 0.064-0.050 0.003-0.121 0.011-0.124-0.085-0.002-0.047-0.045-0.091-0.066-0.138-0.022-0.048-0.037-0.1-0.059-0.148-0.013-0.026-0.033-0.062-0.054-0.065s-0.061 0.024-0.069 0.047c-0.060 0.168-0.109 0.341-0.174 0.507-0.050 0.13-0.11 0.258-0.184 0.376-0.036 0.058-0.106 0.042-0.164-0.006-0.048-0.038-0.111-0.099-0.157-0.090-0.083 0.016-0.047 0.109-0.053 0.17-0.014 0.153-0.080 0.237-0.173 0.192-0.054-0.027-0.101-0.1-0.121-0.163-0.047-0.144-0.056-0.287-0.013-0.443 0.036-0.129 0.015-0.273 0.016-0.411 0-0.171-0.005-0.344-0.003-0.516 0.003-0.164-0.057-0.248-0.214-0.291-0.186-0.050-0.233-0.013-0.26 0.182-0.012 0.081-0.046 0.159-0.066 0.24-0.022 0.087-0.043 0.176-0.057 0.264-0.019 0.128-0.021 0.258-0.048 0.384-0.044 0.196-0.1 0.389-0.161 0.58-0.012 0.037-0.082 0.090-0.1 0.082-0.043-0.020-0.094-0.068-0.104-0.113-0.028-0.123-0.028-0.252-0.053-0.375-0.041-0.203-0.066-0.41-0.151-0.604-0.055-0.127-0.080-0.269-0.107-0.406-0.025-0.13-0.044-0.262-0.048-0.395-0.003-0.119 0.019-0.237 0.028-0.356 0.007-0.088 0.018-0.176 0.013-0.263-0.003-0.054-0.1-0.059-0.141 0-0.059 0.084-0.116 0.172-0.152 0.267-0.093 0.244-0.171 0.494-0.26 0.739-0.059 0.164-0.123 0.324-0.126 0.502-0.001 0.023-0.023 0.046-0.037 0.067-0.031 0.046-0.063 0.090-0.094 0.135-0.045-0.039-0.109-0.071-0.133-0.121-0.050-0.105-0.079-0.218-0.117-0.328-0.015-0.045-0.032-0.090-0.043-0.137-0.056-0.239-0.108-0.479-0.165-0.717-0.037-0.149-0.1-0.293-0.118-0.443-0.022-0.187-0.14-0.336-0.172-0.515-0.018-0.092-0.028-0.19-0.017-0.283 0.020-0.171-0.008-0.321-0.118-0.457-0.074-0.091-0.075-0.384 0.002-0.476 0.081-0.097 0.155-0.207 0.293-0.237 0.013-0.002 0.030-0.018 0.033-0.030 0.019-0.085 0.044-0.171 0.051-0.257 0.018-0.245 0.019-0.491 0.044-0.734 0.012-0.114 0.052-0.227 0.099-0.333 0.069-0.152 0.053-0.187-0.107-0.226-0.124-0.030-0.241-0.087-0.364-0.118-0.154-0.039-0.311-0.063-0.466-0.094-0.089-0.017-0.176-0.038-0.264-0.052-0.071-0.011-0.147-0.032-0.215-0.018-0.162 0.034-0.405-0.066-0.477-0.216-0.009-0.018-0.008-0.045-0.002-0.066 0.048-0.174 0.104-0.346 0.144-0.522 0.052-0.226 0.139-0.44 0.165-0.675 0.028-0.249 0.079-0.499 0.195-0.733 0.091-0.185 0.152-0.386 0.219-0.583 0.023-0.064 0.013-0.138 0.033-0.202 0.043-0.138 0.091-0.275 0.145-0.409 0.012-0.028 0.053-0.055 0.085-0.065 0.147-0.044 0.295-0.089 0.445-0.12 0.115-0.023 0.234-0.027 0.351-0.035 0.131-0.009 0.264-0.007 0.395-0.023 0.143-0.017 0.285-0.049 0.428-0.074 0.013-0.002 0.026-0.003 0.038-0.004 0.24-0.015 0.479-0.027 0.718-0.044 0.096-0.008 0.195-0.019 0.286-0.047 0.069-0.021 0.119-0.073 0.117-0.162-0.003-0.15 0.064-0.225 0.207-0.259 0.155-0.038 0.308-0.085 0.465-0.119 0.076-0.016 0.157-0.010 0.236-0.014 0.001 0.005 0.001 0.010 0.002 0.014z"></path>
<path d="M21.133 11.139c-0.033-0.168-0.069-0.335-0.098-0.504-0.008-0.053 0.009-0.11 0.009-0.165 0-0.076-0.006-0.153-0.008-0.229-0.003-0.104-0.004-0.209-0.006-0.314-0.002-0.072-0.001-0.145-0.006-0.216-0.002-0.023-0.013-0.051-0.028-0.069-0.080-0.089-0.148-0.188-0.267-0.237-0.21-0.089-0.311-0.285-0.422-0.463-0.064-0.102-0.101-0.22-0.187-0.309-0.018-0.018-0.019-0.050-0.028-0.076 0.033-0.003 0.072-0.019 0.1-0.008 0.158 0.062 0.313 0.131 0.471 0.195 0.026 0.010 0.058 0.001 0.087 0.008 0.076 0.018 0.152 0.033 0.225 0.060 0.105 0.040 0.204 0.099 0.312 0.132 0.176 0.053 0.344 0.119 0.486 0.242 0.044 0.038 0.117 0.039 0.172 0.067 0.166 0.082 0.334 0.16 0.493 0.254 0.231 0.138 0.456 0.286 0.679 0.436 0.145 0.099 0.276 0.222 0.427 0.308 0.123 0.069 0.232 0.145 0.328 0.247 0.054 0.059 0.119 0.109 0.183 0.158 0.1 0.077 0.165 0.175 0.218 0.29 0.035 0.076 0.113 0.134 0.174 0.198 0.031 0.033 0.074 0.055 0.099 0.091 0.049 0.070 0.009 0.158-0.075 0.158-0.127 0-0.254-0.013-0.38-0.019-0.040-0.002-0.079-0.008-0.119-0.005-0.124 0.008-0.247 0.017-0.37 0.031-0.041 0.005-0.079 0.028-0.119 0.039-0.17 0.051-0.341 0.096-0.509 0.153-0.159 0.053-0.31 0.15-0.472 0.168-0.194 0.022-0.33 0.158-0.51 0.196-0.021 0.005-0.048 0.014-0.059 0.030-0.075 0.104-0.184 0.141-0.301 0.186-0.163 0.063-0.265-0.002-0.377-0.095-0.082-0.069-0.082-0.171-0.095-0.255-0.034-0.223-0.038-0.451-0.055-0.677z"></path>
</svg>
