<!-- Generated by IcoMoon.io -->
<svg version="1.1" xmlns="http://www.w3.org/2000/svg" width="32" height="32" viewBox="0 0 32 32">
<title>allies-legions-of-nagash</title>
<path d="M15.877 5.033v0.002c-0.069 0-0.139 0.008-0.207-0.002-0.299-0.042-0.572 0.087-0.86 0.123-0.020 0.003-0.041 0.013-0.060 0.024-0.305 0.156-0.608 0.315-0.914 0.471-0.041 0.021-0.090 0.027-0.134 0.044-0.182 0.068-0.367 0.131-0.546 0.207-0.262 0.112-0.52 0.233-0.779 0.351-0.227 0.103-0.463 0.19-0.675 0.316-0.252 0.147-0.506 0.274-0.791 0.339-0.045 0.011-0.087 0.049-0.121 0.083-0.169 0.177-0.357 0.34-0.58 0.429-0.189 0.077-0.338 0.188-0.482 0.321-0.085 0.079-0.171 0.154-0.263 0.225-0.158 0.119-0.328 0.224-0.479 0.351-0.189 0.16-0.33 0.369-0.544 0.509-0.155 0.102-0.275 0.26-0.431 0.361-0.105 0.068-0.174 0.139-0.228 0.252-0.17 0.355-0.371 0.697-0.528 1.058-0.143 0.327-0.242 0.672-0.366 1.007-0.029 0.079-0.064 0.187-0.126 0.215-0.101 0.045-0.124 0.102-0.117 0.194 0.001 0.018-0.007 0.035-0.013 0.052-0.079 0.209-0.163 0.417-0.236 0.628-0.088 0.26-0.19 0.516-0.19 0.797 0 0.063-0.030 0.126-0.047 0.189-0.041 0.156-0.111 0.312-0.117 0.469-0.015 0.438-0.004 0.877-0.001 1.315 0.003 0.38 0.011 0.76 0.013 1.14 0.001 0.318-0.009 0.636-0.006 0.953 0 0.096 0.018 0.194 0.040 0.289 0.043 0.191 0.094 0.381 0.144 0.57 0.029 0.114 0.060 0.228 0.092 0.342 0.059 0.216 0.122 0.432 0.179 0.648 0.022 0.084 0.027 0.172 0.056 0.253 0.054 0.148 0.105 0.29 0.126 0.453 0.019 0.149 0.106 0.293 0.091 0.456-0.002 0.015 0.018 0.031 0.024 0.048 0.060 0.165 0.175 0.308 0.184 0.494 0.005 0.084 0.034 0.171 0.068 0.249 0.19 0.433 0.488 0.793 0.802 1.136 0.245 0.267 0.513 0.516 0.779 0.763 0.158 0.147 0.335 0.274 0.5 0.413 0.14 0.117 0.278 0.239 0.415 0.362 0.172 0.153 0.335 0.318 0.56 0.401 0.086 0.032 0.16 0.095 0.237 0.149 0.201 0.139 0.38 0.305 0.628 0.377 0.173 0.050 0.345 0.127 0.474 0.273 0.073 0.083 0.157 0.177 0.255 0.212 0.312 0.107 0.602 0.287 0.945 0.293 0.045 0.001 0.088 0.030 0.134 0.041 0.162 0.037 0.322 0.086 0.486 0.103 0.16 0.018 0.324-0.002 0.486 0.001 0.064 0.002 0.139-0.001 0.188 0.031 0.16 0.103 0.336 0.151 0.519 0.161 0.271 0.015 0.544 0.008 0.816 0.012 0.050 0.001 0.101 0.009 0.151 0.017 0.132 0.022 0.261 0.061 0.394 0.064 0.355 0.009 0.712-0.011 1.066 0.006 0.309 0.015 0.595-0.050 0.878-0.162 0.209-0.083 0.422-0.141 0.653-0.117 0.121 0.013 0.246 0.007 0.366-0.011 0.189-0.029 0.373-0.087 0.562-0.112 0.279-0.037 0.497-0.192 0.727-0.334 0.192-0.117 0.403-0.203 0.583-0.342 0.008-0.006 0.021-0.006 0.031-0.011 0.204-0.113 0.409-0.226 0.613-0.341 0.195-0.109 0.373-0.264 0.621-0.24 0.022 0.003 0.049-0.011 0.068-0.026 0.104-0.083 0.207-0.169 0.31-0.253 0.094-0.079 0.186-0.159 0.281-0.237 0.18-0.15 0.366-0.295 0.539-0.452 0.131-0.118 0.247-0.253 0.371-0.381 0.196-0.201 0.407-0.39 0.584-0.608 0.146-0.18 0.24-0.402 0.374-0.592 0.16-0.226 0.2-0.504 0.374-0.729 0.256-0.333 0.383-0.742 0.545-1.128 0.056-0.136 0.11-0.275 0.181-0.404 0.079-0.147 0.162-0.288 0.167-0.463 0.003-0.073 0.023-0.155 0.061-0.218 0.147-0.246 0.187-0.523 0.231-0.796 0.037-0.234 0.146-0.456 0.118-0.7-0.002-0.010 0.005-0.020 0.008-0.031 0.040-0.177 0.085-0.352 0.117-0.53 0.019-0.099 0.004-0.205 0.027-0.302 0.054-0.219 0.076-0.44 0.065-0.665-0.004-0.086 0.005-0.177 0.037-0.255 0.045-0.111 0.075-0.217 0.049-0.336-0.008-0.038 0.004-0.080 0.002-0.12-0.012-0.183-0.006-0.371-0.044-0.548-0.072-0.335-0.169-0.665-0.259-0.997-0.026-0.097-0.069-0.19-0.094-0.287-0.035-0.133-0.060-0.268-0.091-0.402-0.077-0.332-0.248-0.644-0.217-0.999 0.003-0.027-0.010-0.057-0.019-0.085-0.11-0.34-0.218-0.681-0.334-1.019-0.066-0.192-0.131-0.386-0.222-0.566-0.113-0.221-0.252-0.43-0.383-0.642-0.093-0.151-0.176-0.313-0.292-0.443-0.169-0.19-0.338-0.366-0.458-0.601-0.107-0.207-0.311-0.366-0.473-0.546-0.006-0.008-0.018-0.013-0.028-0.015-0.153-0.025-0.26-0.115-0.351-0.236-0.029-0.040-0.076-0.066-0.115-0.099-0.148-0.122-0.304-0.237-0.444-0.366-0.314-0.291-0.615-0.597-0.935-0.881-0.113-0.1-0.266-0.155-0.401-0.23-0.049-0.027-0.108-0.044-0.149-0.081-0.112-0.098-0.234-0.15-0.387-0.139-0.060 0.005-0.126-0.017-0.184-0.042-0.083-0.035-0.16-0.083-0.238-0.127-0.115-0.064-0.236-0.119-0.34-0.196-0.109-0.079-0.2-0.179-0.352-0.163-0.039 0.004-0.082-0.023-0.121-0.041-0.15-0.071-0.297-0.13-0.473-0.136-0.326-0.012-0.656 0.049-0.978-0.075-0.176-0.068-0.366-0.095-0.536-0.189-0.087-0.049-0.196-0.072-0.297-0.080-0.155-0.012-0.312-0.004-0.468 0-0.042 0.001-0.094 0.001-0.125 0.024-0.096 0.071-0.203 0.067-0.313 0.065-0.145-0.002-0.29 0-0.435 0zM4.698 15.982c-0.132 0.020-0.241-0.042-0.337-0.139-0.017-0.017-0.043-0.029-0.067-0.034-0.168-0.034-0.338-0.061-0.504-0.102-0.094-0.022-0.18-0.068-0.271-0.098-0.157-0.052-0.314-0.109-0.475-0.146-0.192-0.044-0.399-0.042-0.582-0.109-0.284-0.102-0.569-0.079-0.858-0.072-0.013 0-0.027-0.005-0.041-0.007 0.016-0.127 0.118-0.223 0.266-0.244 0.071-0.010 0.145-0.008 0.216-0.012 0.043-0.003 0.094 0.006 0.129-0.011 0.206-0.103 0.426-0.070 0.642-0.079 0.059-0.003 0.117-0.023 0.176-0.039 0.149-0.040 0.297-0.082 0.447-0.123 0.2-0.054 0.393-0.119 0.574-0.23 0.113-0.069 0.26-0.079 0.391-0.118 0.122-0.036 0.252-0.060 0.362-0.118 0.092-0.049 0.17-0.072 0.26-0.027 0.112-0.159 0.132-0.335 0.124-0.519-0.004-0.098 0-0.196 0.003-0.293 0-0.022 0.004-0.044 0.011-0.064 0.052-0.163 0.127-0.322 0.154-0.489 0.051-0.32 0.236-0.589 0.313-0.897 0.054-0.218 0.118-0.434 0.178-0.652 0.008-0.027 0.016-0.056 0.028-0.082 0.119-0.274 0.241-0.547 0.36-0.821 0.053-0.119 0.097-0.243 0.154-0.359 0.106-0.217 0.219-0.433 0.329-0.647 0.049-0.095 0.099-0.187 0.19-0.257 0.040-0.030 0.056-0.109 0.056-0.167 0.003-0.155-0.031-0.315-0.008-0.466 0.020-0.131-0.025-0.22-0.087-0.316-0.092-0.143-0.19-0.282-0.275-0.429-0.191-0.325-0.359-0.664-0.565-0.979-0.209-0.32-0.452-0.619-0.679-0.929-0.229-0.313-0.461-0.622-0.682-0.939-0.153-0.22-0.29-0.45-0.433-0.676-0.012-0.020-0.018-0.045-0.025-0.064 0.223-0.072 0.361 0.084 0.519 0.181 0.053 0.033 0.097 0.082 0.153 0.104 0.23 0.090 0.392 0.266 0.568 0.429 0.195 0.183 0.39 0.386 0.625 0.5 0.293 0.143 0.506 0.381 0.773 0.552 0.233 0.148 0.437 0.344 0.663 0.506 0.119 0.086 0.259 0.142 0.389 0.21 0.146 0.075 0.299 0.138 0.437 0.225 0.153 0.096 0.333 0.023 0.358-0.162 0.017-0.123 0.14-0.191 0.262-0.2 0.117-0.010 0.242-0.051 0.343-0.112 0.328-0.2 0.651-0.41 0.968-0.626 0.134-0.093 0.29-0.111 0.433-0.17 0.22-0.090 0.437-0.187 0.654-0.282 0.261-0.114 0.524-0.226 0.782-0.343 0.175-0.079 0.344-0.169 0.518-0.246 0.181-0.082 0.364-0.157 0.547-0.233 0.219-0.091 0.438-0.183 0.659-0.269 0.181-0.071 0.364-0.137 0.548-0.2 0.099-0.034 0.202-0.055 0.303-0.085 0.186-0.056 0.373-0.113 0.56-0.17 0.077-0.023 0.126-0.066 0.121-0.155-0.002-0.032-0.002-0.069 0.011-0.096 0.102-0.198 0.059-0.412 0.081-0.62 0.018-0.161 0.072-0.317 0.106-0.477 0.081-0.386 0.162-0.772 0.238-1.16 0.019-0.099-0.011-0.215 0.029-0.3 0.085-0.184 0.056-0.373 0.068-0.561 0.003-0.046 0.020-0.092 0.033-0.136 0.016-0.056 0.033-0.113 0.049-0.169s0.033-0.109 0.049-0.163c0.013 0.002 0.026 0.004 0.041 0.004 0.026 0.097 0.055 0.193 0.080 0.29 0.049 0.182 0.1 0.363 0.141 0.546 0.032 0.14 0.054 0.283 0.076 0.426 0.021 0.139 0.032 0.279 0.057 0.418 0.011 0.058 0.035 0.122 0.073 0.168 0.128 0.154 0.144 0.328 0.124 0.517-0.006 0.056 0.016 0.114 0.028 0.171 0.006 0.027 0.026 0.053 0.029 0.081 0.037 0.265 0.070 0.531 0.109 0.795 0.016 0.104 0.049 0.205 0.076 0.317 0.128 0 0.243-0.005 0.356 0.002 0.072 0.004 0.141 0.029 0.212 0.044 0.119 0.024 0.238 0.049 0.358 0.071 0.16 0.030 0.328 0.037 0.478 0.092 0.22 0.081 0.443 0.052 0.665 0.064 0.253 0.014 0.499 0.037 0.736 0.151 0.324 0.156 0.624 0.356 0.967 0.478 0.151 0.055 0.272 0.188 0.409 0.282 0.056 0.038 0.118 0.070 0.181 0.094 0.174 0.070 0.353 0.128 0.524 0.203 0.165 0.072 0.331 0.147 0.482 0.245 0.154 0.099 0.293 0.222 0.43 0.344 0.14 0.125 0.29 0.225 0.468 0.286 0.078 0.027 0.157 0.063 0.22 0.114 0.199 0.162 0.389 0.334 0.584 0.501 0.065 0.057 0.133 0.097 0.219 0.041 0.169-0.112 0.335-0.227 0.507-0.335 0.060-0.038 0.132-0.056 0.196-0.088 0.076-0.038 0.148-0.084 0.225-0.121 0.051-0.024 0.107-0.052 0.162-0.052 0.128-0.002 0.183 0.115 0.122 0.226-0.074 0.133-0.137 0.273-0.211 0.405-0.081 0.144-0.156 0.296-0.26 0.421-0.154 0.185-0.157 0.376-0.066 0.578 0.184 0.411 0.464 0.757 0.756 1.096 0.061 0.071 0.102 0.156 0.157 0.231 0.16 0.215 0.328 0.423 0.482 0.64 0.119 0.169 0.21 0.351 0.24 0.562 0.016 0.115 0.074 0.224 0.114 0.336 0.15 0.423 0.303 0.844 0.448 1.268 0.044 0.129 0.064 0.267 0.105 0.397 0.041 0.126 0.099 0.248 0.143 0.373 0.050 0.139 0.096 0.28 0.14 0.421 0.055 0.179 0.107 0.358 0.157 0.539 0.053 0.192 0.101 0.384 0.151 0.576 0.028 0.105 0.133 0.201 0.24 0.189 0.162-0.019 0.294 0.059 0.417 0.132 0.154 0.091 0.3 0.155 0.482 0.132 0.101-0.012 0.204-0.011 0.305-0.001 0.072 0.007 0.14 0.041 0.21 0.060 0.044 0.011 0.090 0.026 0.134 0.023 0.224-0.014 0.44 0.027 0.649 0.095 0.099 0.032 0.19 0.086 0.287 0.142-0.516 0.117-0.921 0.446-1.372 0.686-0.101 0.054-0.211 0.090-0.319 0.13-0.124 0.047-0.254 0.080-0.376 0.133-0.132 0.058-0.26 0.13-0.386 0.2-0.071 0.040-0.128 0.088-0.162 0.175-0.046 0.119-0.129 0.223-0.194 0.335-0.020 0.034-0.043 0.071-0.049 0.109-0.033 0.212-0.056 0.426-0.092 0.637-0.022 0.128-0.061 0.253-0.097 0.377-0.058 0.206-0.121 0.409-0.181 0.614-0.106 0.364-0.207 0.728-0.317 1.091-0.052 0.176-0.118 0.347-0.178 0.521-0.001 0.004-0.004 0.006-0.004 0.010-0.021 0.254-0.141 0.476-0.231 0.706-0.104 0.265-0.227 0.523-0.345 0.783-0.072 0.157-0.147 0.313-0.227 0.465-0.045 0.087-0.1 0.168-0.156 0.247-0.088 0.122-0.187 0.237-0.272 0.362-0.078 0.113-0.15 0.23-0.209 0.354-0.019 0.039 0.003 0.106 0.024 0.152 0.073 0.162 0.157 0.319 0.233 0.478 0.059 0.124 0.107 0.253 0.17 0.374 0.042 0.082 0.103 0.154 0.154 0.232 0.011 0.018 0.016 0.040 0.027 0.071-0.073 0.041-0.142 0.087-0.216 0.122-0.025 0.012-0.064 0.013-0.091 0.004-0.245-0.096-0.486-0.207-0.737-0.29-0.116-0.039-0.249-0.024-0.373-0.039-0.076-0.009-0.15-0.036-0.226-0.040-0.036-0.002-0.096 0.025-0.109 0.054-0.045 0.104-0.128 0.161-0.217 0.221-0.068 0.045-0.134 0.105-0.176 0.174-0.122 0.204-0.313 0.293-0.527 0.354-0.133 0.039-0.247 0.099-0.354 0.197-0.142 0.131-0.314 0.228-0.471 0.343-0.075 0.056-0.148 0.117-0.214 0.183-0.169 0.172-0.379 0.287-0.582 0.411-0.099 0.059-0.195 0.124-0.298 0.174-0.083 0.039-0.177 0.055-0.264 0.087-0.092 0.033-0.183 0.068-0.272 0.107-0.222 0.099-0.439 0.207-0.663 0.297-0.18 0.072-0.368 0.126-0.553 0.184-0.132 0.041-0.262 0.085-0.395 0.115-0.182 0.041-0.367 0.066-0.55 0.106-0.073 0.016-0.151 0.037-0.212 0.079-0.162 0.113-0.347 0.091-0.525 0.096-0.154 0.005-0.305 0.009-0.424 0.124-0.030 0.029-0.074 0.069-0.072 0.102 0.008 0.197-0.124 0.351-0.151 0.537-0.017 0.112-0.049 0.227-0.135 0.323-0.041 0.047-0.025 0.145-0.035 0.22-0.014 0.1-0.027 0.2-0.043 0.299-0.011 0.064-0.034 0.127-0.037 0.192-0.019 0.409-0.12 0.802-0.219 1.195-0.073 0.295-0.15 0.589-0.21 0.886-0.048 0.237-0.070 0.478-0.109 0.717-0.013 0.077-0.049 0.15-0.074 0.225-0.011 0.003-0.022 0.005-0.034 0.007-0.040-0.136-0.085-0.271-0.116-0.409-0.015-0.069-0.002-0.145-0.001-0.217 0.001-0.090 0.015-0.182-0.061-0.254-0.010-0.009-0.018-0.027-0.016-0.040 0.016-0.139-0.056-0.257-0.089-0.383-0.036-0.139-0.063-0.279-0.101-0.417-0.047-0.169-0.102-0.335-0.151-0.502-0.011-0.034-0.012-0.072-0.021-0.106-0.045-0.185-0.091-0.371-0.136-0.555-0.031-0.126-0.065-0.251-0.091-0.378-0.041-0.206-0.070-0.413-0.117-0.617-0.061-0.261-0.132-0.519-0.206-0.776-0.007-0.026-0.058-0.054-0.089-0.055-0.329-0.010-0.659-0.012-0.988-0.019-0.050-0.001-0.108 0.003-0.149-0.019-0.164-0.088-0.343-0.071-0.518-0.087-0.064-0.005-0.13-0.024-0.185-0.054-0.165-0.087-0.341-0.128-0.524-0.114-0.302 0.024-0.554-0.099-0.806-0.242-0.21-0.12-0.43-0.224-0.645-0.335-0.022-0.011-0.048-0.021-0.065-0.038-0.21-0.197-0.482-0.282-0.73-0.41-0.147-0.076-0.3-0.149-0.385-0.306-0.007-0.012-0.017-0.024-0.027-0.033-0.117-0.1-0.235-0.2-0.352-0.298-0.026-0.020-0.051-0.043-0.080-0.056-0.261-0.115-0.444-0.334-0.663-0.503-0.063-0.049-0.121-0.103-0.181-0.155-0.211-0.18-0.422-0.359-0.641-0.546-0.196 0.14-0.375 0.27-0.557 0.397-0.21 0.147-0.42 0.294-0.636 0.433-0.054 0.034-0.127 0.038-0.192 0.053-0.020 0.005-0.049-0.005-0.063 0.005-0.099 0.070-0.198 0.14-0.291 0.217-0.181 0.148-0.358 0.303-0.54 0.449-0.036 0.028-0.1 0.045-0.144 0.036-0.054-0.011-0.12-0.044-0.147-0.088-0.023-0.040-0.013-0.115 0.010-0.161 0.028-0.059 0.068-0.104 0.040-0.178-0.009-0.024 0.021-0.080 0.049-0.096 0.153-0.087 0.207-0.248 0.296-0.381 0.138-0.202 0.262-0.414 0.407-0.61 0.107-0.145 0.237-0.273 0.358-0.408 0.011-0.013 0.025-0.028 0.031-0.044 0.093-0.237 0.184-0.473 0.277-0.715-0.17-0.237-0.349-0.487-0.527-0.738-0.031-0.044-0.061-0.089-0.087-0.136-0.094-0.162-0.179-0.329-0.282-0.486-0.069-0.104-0.171-0.185-0.238-0.29-0.091-0.143-0.162-0.297-0.241-0.448-0.011-0.022-0.022-0.049-0.019-0.073 0.015-0.154-0.079-0.272-0.126-0.407-0.037-0.103-0.039-0.219-0.055-0.329-0.025-0.162-0.035-0.328-0.076-0.487-0.056-0.22-0.132-0.434-0.201-0.651-0.005-0.018-0.014-0.034-0.017-0.051-0.034-0.212-0.067-0.424-0.101-0.636-0.004-0.018-0.009-0.034-0.012-0.052-0.024-0.1-0.053-0.199-0.070-0.3-0.028-0.169-0.047-0.339-0.071-0.508-0.026-0.189-0.013-0.395-0.089-0.561-0.124-0.273-0.002-0.579-0.162-0.848z"></path>
<path d="M16.403 5.78c0.451 0.483 1.017 0.864 1.432 1.403 0.084 0.109 0.184 0.207 0.288 0.298 0.729 0.641 1.379 1.361 2.058 2.053 0.151 0.154 0.3 0.309 0.449 0.464 0.169 0.177 0.177 0.282 0.029 0.473-0.228 0.295-0.349 0.624-0.366 0.999-0.057 1.248-0.12 2.497-0.189 3.744-0.019 0.33-0.064 0.659-0.103 0.987-0.008 0.066-0.045 0.13-0.065 0.195-0.019 0.060-0.026 0.127-0.056 0.181-0.029 0.052-0.074 0.108-0.127 0.132-0.404 0.196-0.813 0.383-1.219 0.576-0.128 0.062-0.251 0.132-0.376 0.201-0.154 0.085-0.212 0.054-0.217-0.118-0.024-0.797-0.003-1.593 0.088-2.385 0.047-0.404 0.115-0.807 0.162-1.211 0.009-0.078-0.006-0.176-0.048-0.239-0.258-0.392-0.527-0.776-0.79-1.164-0.119-0.175-0.23-0.355-0.351-0.529-0.113-0.164-0.23-0.326-0.35-0.486-0.024-0.033-0.063-0.057-0.1-0.077-0.117-0.061-0.158-0.051-0.222 0.064-0.519 0.93-1.037 1.86-1.554 2.791-0.021 0.039-0.034 0.087-0.035 0.132-0.018 0.446-0.032 0.892-0.049 1.337-0.004 0.104-0.025 0.207-0.023 0.311 0.005 0.253 0.021 0.505 0.028 0.757 0.004 0.13 0.004 0.262-0.010 0.391-0.011 0.102-0.038 0.205-0.073 0.301-0.065 0.176-0.175 0.212-0.346 0.127-0.117-0.058-0.23-0.126-0.351-0.177-0.279-0.117-0.561-0.23-0.845-0.335-0.084-0.031-0.18-0.034-0.272-0.035-0.153-0.004-0.245-0.080-0.261-0.233-0.002-0.023-0.002-0.046-0.002-0.069-0.015-0.969-0.013-1.939-0.049-2.907-0.024-0.659-0.062-1.321-0.225-1.967-0.056-0.218-0.075-0.448-0.095-0.673-0.035-0.403-0.208-0.752-0.413-1.089-0.11-0.181-0.106-0.244 0.054-0.374 0.594-0.488 1.189-0.976 1.787-1.458 0.671-0.542 1.318-1.111 1.932-1.716 0.26-0.257 0.518-0.516 0.875-0.675z"></path>
<path d="M14.997 18.076c0.013-0.144 0.035-0.283 0.037-0.423 0.011-0.727 0.011-1.454 0.024-2.181 0.004-0.234 0.030-0.467 0.046-0.701 0.001-0.011 0.005-0.023 0.004-0.034-0.041-0.263 0.088-0.472 0.21-0.687 0.382-0.672 0.761-1.345 1.141-2.017 0.019-0.034 0.041-0.064 0.065-0.1 0.167 0.074 0.295 0.184 0.38 0.342 0.192 0.36 0.384 0.719 0.575 1.080 0.154 0.29 0.269 0.596 0.307 0.924 0.013 0.112 0.006 0.233-0.019 0.343-0.075 0.317-0.108 0.635-0.103 0.96 0.007 0.508 0.007 1.016-0.004 1.524-0.005 0.249-0.043 0.496-0.063 0.745-0.011 0.134-0.014 0.268-0.020 0.403-0.004 0.079 0.039 0.091 0.103 0.075 0.011-0.003 0.022-0.005 0.033-0.010 0.869-0.343 1.74-0.679 2.604-1.032 0.423-0.173 0.355-0.086 0.369-0.538 0.041-1.292 0.066-2.585 0.104-3.877 0.014-0.5 0.043-0.998 0.070-1.498 0.008-0.167 0.090-0.245 0.238-0.224 0.048 0.007 0.106 0.046 0.132 0.087 0.32 0.514 0.666 1.006 1.069 1.457 0.068 0.075 0.094 0.155 0.085 0.252-0.026 0.31-0.035 0.622-0.078 0.93-0.094 0.694-0.032 1.39-0.051 2.085-0.017 0.604-0.013 1.209-0.056 1.811-0.011 0.157-0.041 0.358-0.199 0.474-0.139 0.103-0.275 0.218-0.429 0.289-0.792 0.358-1.585 0.711-2.385 1.048-0.35 0.147-0.719 0.247-1.074 0.382-0.197 0.074-0.38 0.184-0.576 0.262-0.303 0.12-0.609 0.234-0.92 0.332-0.084 0.026-0.195 0.009-0.281-0.023-0.526-0.195-1.056-0.382-1.57-0.606-1.155-0.501-2.357-0.838-3.587-1.084-0.064-0.012-0.131-0.006-0.195-0.012-0.045-0.005-0.101-0.004-0.132-0.028-0.083-0.067-0.171-0.094-0.275-0.097-0.023-0.001-0.060-0.069-0.064-0.108-0.032-0.387-0.056-0.775-0.087-1.162-0.042-0.529-0.116-1.057-0.128-1.586-0.019-0.876-0.124-1.742-0.223-2.609-0.025-0.215 0.015-0.405 0.155-0.57 0.354-0.416 0.708-0.832 1.066-1.244 0.035-0.041 0.117-0.087 0.152-0.072 0.047 0.021 0.090 0.095 0.098 0.152 0.031 0.22 0.053 0.442 0.069 0.665 0.019 0.288 0.034 0.576 0.044 0.863 0.028 0.735 0.050 1.469 0.082 2.203 0.009 0.192 0.056 0.381 0.064 0.573 0.011 0.342 0.007 0.684 0.009 1.027 0.002 0.152 0.007 0.209 0.197 0.267 0.5 0.15 0.991 0.328 1.487 0.493 0.474 0.157 0.949 0.311 1.424 0.465 0.018 0.006 0.037 0.006 0.078 0.013z"></path>
<path d="M16.712 22.573c0-0.154 0.004-0.275-0.001-0.395-0.008-0.207-0.026-0.413-0.029-0.621-0.003-0.16-0.117-0.298-0.292-0.33-0.164-0.030-0.305 0.057-0.351 0.223-0.030 0.111-0.047 0.225-0.079 0.336-0.042 0.15-0.087 0.301-0.143 0.448-0.024 0.064-0.112 0.121-0.106 0.174s0.094 0.097 0.144 0.147c0.117 0.117 0.167 0.119 0.285 0.004 0.094-0.092 0.196-0.105 0.316-0.058 0.070 0.027 0.145 0.041 0.255 0.072zM15.354 24.072c0.006 0.306 0.012 0.609 0.019 0.911 0.002 0.042 0.001 0.085 0 0.127-0.002 0.071-0.020 0.132-0.102 0.146-0.089 0.014-0.1-0.059-0.112-0.117-0.058-0.274-0.109-0.55-0.172-0.823-0.019-0.081-0.068-0.158-0.113-0.23-0.013-0.021-0.065-0.038-0.087-0.028s-0.045 0.056-0.041 0.084c0.014 0.114 0.034 0.228 0.058 0.34 0.063 0.274 0.129 0.546 0.193 0.818 0.004 0.018 0.003 0.037 0.006 0.085-0.159-0.127-0.266-0.265-0.32-0.433-0.092-0.292-0.169-0.59-0.254-0.884-0.026-0.085-0.011-0.156 0.047-0.224 0.093-0.109 0.103-0.23 0.054-0.366-0.088-0.25-0.159-0.507-0.252-0.754-0.041-0.113-0.119-0.212-0.18-0.317-0.046-0.079-0.089-0.157-0.136-0.234-0.022-0.035-0.043-0.079-0.076-0.098-0.159-0.088-0.436-0.173-0.619 0.019-0.093 0.098-0.256 0.102-0.355 0.009-0.24-0.228-0.476-0.46-0.704-0.697-0.041-0.043-0.062-0.123-0.061-0.185 0.003-0.235 0.006-0.47 0.032-0.703 0.035-0.332 0.087-0.662 0.139-0.992 0.016-0.106 0.12-0.188 0.207-0.153 0.195 0.078 0.382 0.175 0.571 0.266 0.016 0.007 0.026 0.026 0.041 0.042-0.011 0.016-0.019 0.030-0.028 0.041-0.265 0.274-0.262 0.689 0.012 0.956 0.053 0.051 0.124 0.097 0.194 0.117 0.297 0.079 0.594 0.16 0.895 0.213 0.26 0.046 0.527 0.062 0.792 0.077 0.222 0.012 0.387-0.133 0.562-0.24 0.022-0.013 0.027-0.061 0.030-0.094 0.005-0.044 0.002-0.089 0.002-0.129 0.233-0.015 0.431 0.044 0.628 0.13 0.085 0.036 0.196 0.040 0.29 0.023 0.147-0.026 0.288-0.083 0.432-0.125 0.149-0.044 0.21-0.016 0.275 0.125 0.090 0.197 0.237 0.256 0.442 0.19 0.071-0.022 0.152-0.031 0.226-0.023 0.353 0.035 0.686-0.075 1.025-0.133 0.205-0.036 0.407-0.083 0.612-0.119 0.079-0.013 0.115-0.052 0.142-0.127 0.080-0.221 0.107-0.448 0.099-0.681-0.002-0.047-0.036-0.091-0.043-0.139-0.006-0.038-0.009-0.105 0.011-0.115 0.202-0.109 0.409-0.21 0.616-0.308 0.067-0.031 0.12-0.010 0.135 0.081-0.108 0.046-0.123 0.143-0.122 0.252 0.003 0.491-0.072 0.972-0.173 1.451-0.029 0.134-0.104 0.228-0.226 0.269-0.151 0.052-0.253 0.156-0.348 0.274-0.080 0.098-0.155 0.2-0.234 0.3-0.133 0.169-0.297 0.196-0.474 0.072-0.085-0.059-0.163-0.129-0.242-0.196-0.098-0.084-0.187-0.073-0.305-0.019-0.51 0.235-0.664 0.694-0.778 1.184-0.027 0.116-0.049 0.233-0.082 0.347-0.030 0.098-0.016 0.159 0.092 0.193 0.129 0.040 0.153 0.106 0.099 0.23-0.023 0.053-0.053 0.102-0.083 0.152-0.078 0.132-0.134 0.267-0.124 0.425 0.003 0.038-0.006 0.077-0.012 0.115-0.026 0.162-0.049 0.323-0.079 0.484-0.041 0.222-0.221 0.329-0.404 0.484 0.006-0.069 0.008-0.103 0.012-0.137 0.037-0.274 0.074-0.547 0.112-0.82 0.019-0.137 0.041-0.274 0.062-0.41 0.005-0.034 0.019-0.072 0.010-0.102s-0.040-0.072-0.066-0.075c-0.025-0.004-0.074 0.028-0.081 0.054-0.034 0.122-0.064 0.245-0.084 0.37-0.040 0.253-0.072 0.508-0.108 0.766h-0.23c0.017-0.251 0.034-0.495 0.049-0.74 0.005-0.092 0.010-0.184 0.005-0.276-0.001-0.027-0.031-0.070-0.053-0.074-0.025-0.004-0.071 0.019-0.082 0.044-0.023 0.046-0.036 0.101-0.040 0.154-0.016 0.237-0.028 0.476-0.041 0.714-0.005 0.109-0.056 0.184-0.165 0.207-0.094 0.020-0.147-0.022-0.148-0.122-0.004-0.258 0-0.516-0.004-0.773 0-0.049 0.037-0.131-0.057-0.134-0.087-0.004-0.117 0.064-0.117 0.14-0.002 0.227-0.002 0.454-0.003 0.681 0 0.027 0.001 0.055 0 0.081-0.004 0.163-0.034 0.201-0.165 0.207-0.16 0.005-0.237-0.057-0.241-0.211-0.006-0.246-0.001-0.493-0.004-0.739-0.001-0.162-0.049-0.194-0.194-0.148z"></path>
</svg>
