<!-- Generated by IcoMoon.io -->
<svg version="1.1" xmlns="http://www.w3.org/2000/svg" width="32" height="32" viewBox="0 0 32 32">
<title>allies-nighthaunt</title>
<path d="M22.666 7.533c0.097 0.070 0.212-0.003 0.319 0.053 0.070 0.036 0.032-0.051 0.092-0.002 0.187 0.154 0.252 0.315 0.436 0.473 0.028 0.024 0.062 0.042 0.111 0.073 0.076-0.042 0.162-0.085 0.242-0.137 0.117-0.077 0.224-0.173 0.347-0.236 0.148-0.076 0.304-0.137 0.449-0.221 0.055-0.032 0.118-0.021 0.171 0.020 0.056 0.043 0.071 0.098 0.037 0.16-0.117 0.212-0.236 0.424-0.357 0.634-0.051 0.088-0.109 0.172-0.163 0.258-0.064 0.101-0.076 0.212-0.044 0.324 0.060 0.213 0.164 0.408 0.295 0.584 0.163 0.216 0.341 0.421 0.507 0.634 0.062 0.080 0.117 0.168 0.163 0.259 0.086 0.175 0.229 0.306 0.347 0.456 0.138 0.176 0.24 0.364 0.274 0.587 0.005 0.032 0.018 0.062 0.029 0.093 0.081 0.242 0.162 0.485 0.246 0.727 0.073 0.211 0.151 0.422 0.225 0.633 0.045 0.127 0.108 0.253 0.125 0.384 0.021 0.154 0.097 0.281 0.147 0.42 0.049 0.136 0.093 0.273 0.135 0.411 0.047 0.155 0.083 0.315 0.134 0.47 0.053 0.164 0.119 0.322 0.138 0.496 0.020 0.183 0.113 0.266 0.295 0.262 0.131-0.003 0.242 0.057 0.337 0.12 0.166 0.11 0.335 0.145 0.527 0.128 0.088-0.008 0.177-0.005 0.266-0.002 0.041 0.002 0.093 0.005 0.119 0.030 0.062 0.061 0.136 0.060 0.21 0.051 0.176-0.023 0.343 0.035 0.51 0.067 0.112 0.021 0.214 0.093 0.347 0.155-0.131 0.045-0.242 0.076-0.348 0.121-0.12 0.051-0.239 0.107-0.352 0.172-0.226 0.131-0.447 0.273-0.673 0.403-0.063 0.037-0.137 0.063-0.21 0.072-0.197 0.023-0.362 0.12-0.531 0.209-0.049 0.026-0.097 0.057-0.148 0.080-0.114 0.051-0.206 0.118-0.245 0.247-0.015 0.052-0.056 0.095-0.084 0.143-0.042 0.073-0.108 0.143-0.118 0.22-0.026 0.202-0.087 0.399-0.1 0.603-0.009 0.124-0.052 0.245-0.085 0.365-0.070 0.257-0.165 0.504-0.205 0.77-0.017 0.122-0.075 0.239-0.113 0.358-0.053 0.169-0.119 0.335-0.154 0.508-0.031 0.155-0.092 0.293-0.149 0.436-0.014 0.034-0.033 0.069-0.039 0.105-0.046 0.328-0.221 0.61-0.329 0.916-0.087 0.243-0.205 0.47-0.342 0.688-0.003 0.004-0.005 0.008-0.006 0.012-0.056 0.229-0.217 0.399-0.328 0.597-0.014 0.024-0.028 0.052-0.050 0.068-0.127 0.090-0.176 0.238-0.264 0.358-0.047 0.066-0.054 0.136-0.014 0.211 0.035 0.066 0.065 0.135 0.098 0.202 0.094 0.198 0.187 0.396 0.284 0.593 0.020 0.041 0.051 0.076 0.075 0.115 0.036 0.058 0.070 0.117 0.109 0.18-0.048 0.032-0.082 0.054-0.117 0.078-0.081 0.059-0.16 0.070-0.259 0.026-0.199-0.090-0.404-0.169-0.608-0.247-0.060-0.022-0.126-0.030-0.19-0.037-0.132-0.014-0.269 0.031-0.399-0.039-0.017-0.010-0.077 0.020-0.088 0.044-0.044 0.108-0.131 0.164-0.223 0.223-0.057 0.037-0.112 0.089-0.146 0.148-0.117 0.195-0.301 0.285-0.507 0.344-0.127 0.036-0.248 0.081-0.335 0.19-0.028 0.034-0.076 0.052-0.114 0.080-0.057 0.040-0.113 0.080-0.169 0.122-0.022 0.017-0.037 0.044-0.061 0.057-0.188 0.1-0.318 0.273-0.492 0.39-0.119 0.080-0.241 0.157-0.363 0.233-0.099 0.061-0.196 0.125-0.3 0.175-0.069 0.034-0.15 0.045-0.223 0.071-0.105 0.039-0.207 0.083-0.312 0.122-0.278 0.103-0.532 0.265-0.826 0.339-0.251 0.063-0.493 0.164-0.743 0.24-0.106 0.033-0.218 0.058-0.328 0.062-0.096 0.004-0.189 0.010-0.268 0.061-0.166 0.11-0.352 0.105-0.54 0.108-0.14 0.003-0.279 0.010-0.394 0.112-0.048 0.042-0.082 0.085-0.080 0.153 0.001 0.036-0.009 0.073-0.020 0.108-0.049 0.165-0.099 0.329-0.15 0.493-0.008 0.026-0.015 0.059-0.034 0.075-0.085 0.072-0.084 0.171-0.095 0.268-0.013 0.116-0.033 0.23-0.050 0.344-0.005 0.037-0.016 0.074-0.018 0.11-0.024 0.399-0.112 0.785-0.213 1.17-0.020 0.076-0.023 0.157-0.042 0.234-0.036 0.149-0.079 0.297-0.115 0.447-0.022 0.090-0.038 0.182-0.055 0.274-0.011 0.060-0.018 0.119-0.028 0.179-0.020 0.119-0.036 0.24-0.061 0.358-0.017 0.080-0.046 0.157-0.070 0.236-0.070-0.136-0.153-0.259-0.146-0.409 0.004-0.070 0.001-0.14 0.002-0.211 0-0.023 0.008-0.052-0.002-0.070-0.075-0.13-0.063-0.285-0.119-0.42-0.009-0.022-0.021-0.042-0.024-0.065-0.032-0.202-0.125-0.39-0.162-0.587-0.036-0.195-0.132-0.378-0.124-0.584 0.004-0.080-0.041-0.162-0.063-0.242-0.049-0.17-0.104-0.339-0.143-0.511-0.042-0.186-0.060-0.377-0.102-0.563-0.055-0.24-0.125-0.478-0.187-0.718-0.016-0.061-0.058-0.074-0.117-0.075-0.303-0.002-0.606-0.006-0.91-0.013-0.055-0.001-0.118 0-0.165-0.025-0.138-0.078-0.29-0.057-0.437-0.076-0.072-0.009-0.148-0.023-0.213-0.053-0.16-0.078-0.325-0.115-0.502-0.108-0.235 0.011-0.447-0.048-0.652-0.171-0.223-0.134-0.461-0.244-0.692-0.365-0.037-0.020-0.075-0.040-0.109-0.062-0.124-0.081-0.243-0.171-0.371-0.244-0.088-0.051-0.191-0.074-0.281-0.12-0.145-0.075-0.295-0.145-0.38-0.296-0.007-0.012-0.017-0.027-0.028-0.031-0.142-0.048-0.217-0.174-0.318-0.268-0.017-0.015-0.033-0.035-0.053-0.044-0.323-0.153-0.553-0.424-0.827-0.641-0.119-0.095-0.226-0.207-0.343-0.305-0.071-0.060-0.151-0.11-0.228-0.162-0.018-0.012-0.049-0.023-0.065-0.016-0.083 0.041-0.183 0.070-0.241 0.136-0.113 0.126-0.264 0.19-0.394 0.287-0.137 0.103-0.283 0.196-0.426 0.293-0.070 0.047-0.136 0.101-0.23 0.081-0.022-0.005-0.052-0.003-0.067 0.010-0.099 0.074-0.196 0.152-0.293 0.23-0.166 0.134-0.331 0.271-0.5 0.401-0.031 0.024-0.080 0.031-0.12 0.033-0.121 0.005-0.202-0.116-0.146-0.222 0.033-0.062 0.074-0.114 0.051-0.193-0.006-0.023 0.026-0.071 0.052-0.089 0.14-0.086 0.206-0.231 0.273-0.366 0.103-0.207 0.238-0.39 0.38-0.567 0.106-0.13 0.222-0.252 0.333-0.379 0.015-0.017 0.036-0.036 0.039-0.056 0.033-0.242 0.207-0.425 0.265-0.679-0.019-0.028-0.050-0.074-0.082-0.118-0.156-0.215-0.315-0.428-0.47-0.643-0.019-0.026-0.029-0.060-0.043-0.089-0.099-0.194-0.208-0.381-0.365-0.539-0.077-0.078-0.128-0.182-0.185-0.278-0.048-0.080-0.088-0.165-0.126-0.249-0.023-0.051-0.050-0.106-0.050-0.158 0-0.088-0.022-0.165-0.067-0.238-0.099-0.159-0.105-0.335-0.106-0.513-0.001-0.055-0.015-0.109-0.025-0.164-0.008-0.045-0.018-0.091-0.031-0.136-0.057-0.212-0.115-0.422-0.174-0.633-0.009-0.031-0.036-0.059-0.039-0.089-0.014-0.204-0.117-0.392-0.11-0.6 0-0.027 0.002-0.061-0.013-0.080-0.062-0.091-0.061-0.193-0.064-0.296-0.004-0.091 0.006-0.187-0.047-0.271-0.007-0.011-0.006-0.027-0.006-0.041-0.003-0.224-0.041-0.444-0.083-0.662-0.005-0.028 0.005-0.065-0.011-0.082-0.086-0.099-0.065-0.22-0.071-0.334-0.003-0.065 0.006-0.132-0.005-0.196-0.012-0.068-0.042-0.132-0.067-0.207-0.129-0.004-0.243-0.047-0.334-0.143-0.014-0.015-0.041-0.024-0.062-0.029-0.158-0.033-0.318-0.060-0.475-0.099-0.093-0.023-0.18-0.073-0.273-0.1-0.169-0.049-0.341-0.091-0.512-0.136-0.045-0.012-0.090-0.022-0.136-0.032-0.345-0.073-0.687-0.173-1.046-0.136-0.044 0.005-0.090 0.001-0.142 0.001 0.002-0.099 0.058-0.146 0.122-0.185 0.082-0.051 0.174-0.065 0.269-0.060 0.105 0.005 0.202-0.013 0.301-0.051 0.072-0.027 0.155-0.028 0.234-0.033 0.089-0.005 0.177-0.001 0.267-0.001 0.033-0.001 0.066 0.001 0.097-0.008 0.146-0.043 0.289-0.101 0.437-0.132 0.17-0.036 0.326-0.106 0.486-0.167 0.085-0.033 0.146-0.11 0.247-0.119 0.097-0.009 0.193-0.032 0.286-0.059 0.097-0.029 0.198-0.058 0.283-0.11 0.084-0.051 0.16-0.067 0.253-0.029 0.070-0.124 0.125-0.242 0.112-0.386-0.008-0.092 0.006-0.187 0.003-0.28-0.005-0.106 0.011-0.205 0.073-0.293 0.005-0.008 0.010-0.016 0.013-0.025 0.034-0.154 0.070-0.306 0.105-0.46 0.009-0.041 0.017-0.082 0.033-0.121 0.070-0.172 0.145-0.343 0.213-0.515 0.085-0.216 0.135-0.442 0.185-0.668 0.006-0.027 0.012-0.056 0.026-0.080 0.155-0.251 0.197-0.552 0.352-0.804 0.055-0.090 0.080-0.199 0.127-0.296 0.104-0.213 0.212-0.426 0.322-0.636 0.046-0.089 0.089-0.18 0.178-0.244 0.036-0.027 0.052-0.099 0.054-0.151 0.005-0.14-0.021-0.283-0.001-0.42 0.026-0.184-0.078-0.299-0.166-0.437-0.16-0.247-0.309-0.501-0.446-0.761-0.146-0.278-0.294-0.552-0.515-0.781-0.044-0.046-0.081-0.102-0.117-0.156-0.195-0.297-0.403-0.584-0.634-0.855-0.090-0.106-0.158-0.23-0.235-0.347-0.144-0.219-0.287-0.437-0.428-0.657-0.027-0.042-0.042-0.091-0.068-0.149 0.127-0.005 0.23-0.013 0.336 0.071 0.146 0.115 0.316 0.197 0.474 0.296 0.062 0.040 0.126 0.082 0.178 0.134 0.173 0.17 0.335 0.352 0.55 0.475 0.043 0.025 0.074 0.071 0.115 0.102 0.060 0.044 0.117 0.099 0.186 0.121 0.129 0.044 0.221 0.13 0.319 0.219 0.108 0.096 0.232 0.171 0.348 0.258 0.138 0.103 0.282 0.201 0.409 0.315 0.233 0.21 0.499 0.355 0.794 0.455 0.070 0.024 0.132 0.070 0.193 0.112l0.596 0.364 0.12 0.766c-0.183 0.142-0.035 0.149-0.191 0.33-0.098 0.115-0.194 0.239-0.339 0.31-0.061 0.030-0.108 0.088-0.163 0.131-0.13 0.103-0.228 0.248-0.393 0.308-0.023 0.008-0.042 0.037-0.053 0.061-0.112 0.226-0.214 0.456-0.335 0.677-0.248 0.448-0.429 0.921-0.567 1.412-0.033 0.116-0.087 0.207-0.208 0.23-0.016 0.080-0.016 0.162-0.050 0.224-0.14 0.257-0.197 0.543-0.292 0.815-0.050 0.144-0.063 0.3-0.094 0.45-0.017 0.081-0.034 0.163-0.054 0.244-0.035 0.148-0.086 0.295-0.104 0.446-0.018 0.143-0.004 0.289-0.002 0.434 0.004 0.354 0.008 0.709 0.011 1.064 0.003 0.322 0.004 0.643 0.005 0.964 0 0.228 0.014 0.457-0.005 0.684-0.021 0.235 0.107 0.442 0.102 0.671-0.001 0.005 0.005 0.008 0.006 0.013 0.023 0.089 0.044 0.179 0.067 0.268 0.010 0.040 0.016 0.082 0.032 0.12 0.031 0.073 0.083 0.141 0.098 0.216 0.034 0.182 0.086 0.359 0.129 0.538 0.027 0.113 0.044 0.231 0.096 0.333 0.056 0.111 0.049 0.225 0.071 0.337s0.1 0.209 0.088 0.334c-0.005 0.047 0.011 0.101 0.033 0.146 0.086 0.182 0.168 0.363 0.188 0.567 0.003 0.032 0.014 0.065 0.029 0.092 0.108 0.19 0.175 0.403 0.331 0.567 0.063 0.067 0.112 0.149 0.174 0.219 0.157 0.178 0.317 0.352 0.477 0.527 0.099 0.109 0.235 0.185 0.303 0.326 0.012 0.024 0.033 0.046 0.055 0.063 0.134 0.101 0.268 0.202 0.402 0.302 0.038 0.028 0.080 0.052 0.113 0.083 0.108 0.102 0.21 0.21 0.318 0.312 0.074 0.070 0.155 0.132 0.233 0.198 0.16 0.136 0.312 0.282 0.518 0.352 0.052 0.018 0.101 0.048 0.146 0.081 0.093 0.070 0.178 0.15 0.274 0.216 0.088 0.061 0.179 0.128 0.279 0.157 0.286 0.085 0.524 0.236 0.725 0.455 0.018 0.020 0.042 0.041 0.067 0.048 0.297 0.084 0.565 0.27 0.889 0.27 0.044 0 0.089 0.027 0.133 0.042 0.214 0.070 0.43 0.119 0.658 0.1 0.111-0.010 0.224-0.005 0.335-0.001 0.040 0.002 0.082 0.017 0.117 0.036 0.157 0.083 0.323 0.143 0.502 0.148 0.21 0.007 0.42 0.005 0.631 0.005 0.117 0 0.23 0.001 0.343 0.047 0.076 0.030 0.165 0.033 0.249 0.033 0.448 0.003 0.897 0.003 1.347 0 0.073-0.001 0.149-0.014 0.22-0.036 0.116-0.034 0.229-0.079 0.343-0.122 0.212-0.081 0.427-0.12 0.656-0.093 0.095 0.012 0.196-0.003 0.292-0.019 0.206-0.035 0.412-0.074 0.615-0.122 0.112-0.027 0.23-0.056 0.326-0.117 0.176-0.112 0.333-0.254 0.543-0.306 0.038-0.010 0.072-0.043 0.101-0.072 0.071-0.071 0.154-0.118 0.249-0.15 0.070-0.023 0.137-0.058 0.202-0.095 0.222-0.126 0.421-0.29 0.66-0.39 0.083-0.034 0.158-0.079 0.253-0.055 0.020 0.005 0.049 0 0.065-0.013 0.093-0.069 0.187-0.138 0.276-0.214s0.167-0.162 0.258-0.235c0.159-0.129 0.333-0.242 0.484-0.38 0.203-0.183 0.393-0.383 0.587-0.578 0.062-0.062 0.117-0.133 0.175-0.199 0.163-0.184 0.357-0.344 0.434-0.593 0.009-0.030 0.032-0.057 0.051-0.083 0.113-0.161 0.216-0.326 0.262-0.521 0.012-0.049 0.037-0.099 0.070-0.136 0.163-0.184 0.259-0.409 0.371-0.622 0.041-0.079 0.068-0.164 0.101-0.245 0.076-0.181 0.151-0.362 0.228-0.541 0.032-0.072 0.064-0.145 0.103-0.212 0.074-0.131 0.139-0.261 0.149-0.418 0.005-0.085 0.040-0.172 0.078-0.251 0.070-0.148 0.139-0.3 0.152-0.463 0.024-0.306 0.174-0.591 0.155-0.905-0.001-0.022 0.014-0.044 0.019-0.067 0.031-0.132 0.065-0.262 0.088-0.395 0.020-0.119 0.011-0.244 0.040-0.361 0.052-0.215 0.074-0.43 0.065-0.652-0.004-0.086 0.015-0.178 0.046-0.259s0.051-0.158 0.039-0.245c-0.006-0.050 0.001-0.102-0.001-0.154-0.004-0.116 0.004-0.235-0.018-0.348-0.045-0.238-0.104-0.473-0.16-0.708-0.024-0.104-0.053-0.208-0.083-0.31-0.061-0.211-0.126-0.419-0.184-0.63s-0.104-0.426-0.171-0.634c-0.036-0.114-0.061-0.224-0.052-0.343 0.004-0.050-0.001-0.103-0.015-0.152-0.054-0.183-0.114-0.364-0.172-0.546-0.031-0.098-0.061-0.196-0.096-0.292-0.076-0.205-0.148-0.413-0.236-0.613-0.073-0.166-0.16-0.327-0.252-0.484-0.087-0.148-0.19-0.287-0.286-0.431-0.042-0.061-0.077-0.13-0.129-0.183-0.17-0.171-0.355-0.329-0.426-0.573-0.003-0.009-0.011-0.015-0.015-0.024-0.108-0.192-0.303-0.304-0.431-0.476-0.007-0.010-0.023-0.019-0.035-0.022-0.144-0.033-0.134-0.004-0.221-0.118-0.027-0.036-0.070-0.061-0.107-0.090-0.147-0.122-0.301-0.123-0.441-0.252z"></path>
<path d="M14.386 18.375c-0.003 0.017-0.005 0.033-0.007 0.051 0.044 0.027 0.089 0.053 0.133 0.080 0.010-0.005 0.020-0.012 0.031-0.017-0.008-0.034-0.005-0.088-0.026-0.099-0.036-0.019-0.086-0.012-0.13-0.015zM16.733 17.919c0.043 0.091 0.079 0.165 0.119 0.253 0.091-0.146 0.061-0.215-0.119-0.253zM17.185 20.035c0.187-0.103 0.277-0.34 0.193-0.456-0.061 0.145-0.119 0.283-0.193 0.456zM14.882 15.496c0.008-0.010 0.015-0.020 0.024-0.030-0.004-0.016-0.005-0.033-0.011-0.048-0.11-0.288-0.291-0.531-0.495-0.759-0.186-0.208-0.362-0.423-0.474-0.684-0.036-0.085-0.093-0.162-0.14-0.242-0.014 0.003-0.026 0.006-0.040 0.009-0.022 0.077-0.035 0.156-0.068 0.228-0.043 0.095-0.037 0.169 0.019 0.262 0.045 0.074 0.044 0.175 0.062 0.266 0.011 0.052 0.005 0.144 0.031 0.154 0.165 0.062 0.259 0.202 0.379 0.315 0.095 0.091 0.202 0.171 0.31 0.249 0.132 0.097 0.269 0.187 0.404 0.281zM14.798 20.362c-0.014-0.001-0.028-0.003-0.042-0.004-0.033 0.143-0.078 0.284-0.092 0.428-0.021 0.204-0.007 0.412-0.028 0.616-0.011 0.111 0.007 0.195 0.074 0.286 0.115 0.157 0.224 0.321 0.316 0.492 0.076 0.138 0.122 0.292 0.183 0.438 0.013 0.030 0.034 0.057 0.052 0.085 0.017-0.005 0.034-0.010 0.051-0.014-0.012-0.098-0.024-0.195-0.036-0.293-0.025-0.199-0.055-0.397-0.074-0.596-0.011-0.119 0.004-0.241-0.008-0.361-0.022-0.215 0.024-0.438-0.135-0.633-0.108-0.132-0.176-0.296-0.261-0.445zM16.455 23.38c0.011 0.010 0.022 0.021 0.033 0.031 0.042-0.041 0.088-0.080 0.128-0.122 0.105-0.113 0.175-0.249 0.344-0.311 0.108-0.040 0.236-0.175 0.253-0.284 0.052-0.325 0.054-0.658 0.079-0.988 0.006-0.085 0.020-0.169 0.033-0.253 0.031-0.196 0.062-0.393 0.094-0.589-0.018-0.009-0.036-0.018-0.054-0.026-0.083 0.098-0.176 0.188-0.247 0.294-0.097 0.146-0.136 0.166-0.284 0.1-0.021-0.009-0.061-0.014-0.070-0.003-0.015 0.019-0.029 0.061-0.018 0.077 0.125 0.189 0.085 0.409 0.125 0.614 0.038 0.193-0.015 0.38-0.126 0.536-0.197 0.28-0.259 0.596-0.291 0.925zM15.775 24.107c0.014-0.001 0.026-0.003 0.040-0.004 0.009-0.018 0.025-0.036 0.028-0.055 0.044-0.327 0.089-0.654 0.13-0.982 0.005-0.037 0.001-0.080-0.013-0.115-0.111-0.281-0.003-0.529 0.13-0.764 0.060-0.105 0.072-0.197 0.061-0.313-0.024-0.226-0.031-0.454-0.034-0.681-0.002-0.132 0.023-0.264 0.022-0.396 0-0.031-0.058-0.083-0.092-0.087-0.128-0.011-0.258 0.165-0.242 0.291s0.014 0.254-0.002 0.378c-0.007 0.054-0.085 0.097-0.104 0.154-0.043 0.132-0.093 0.268-0.099 0.405-0.007 0.155 0.036 0.312 0.048 0.468 0.024 0.308 0.042 0.616 0.057 0.925 0.006 0.126 0.044 0.275-0.008 0.372-0.101 0.186 0.060 0.268 0.080 0.401zM16.576 19.099c0.016-0.004 0.032-0.008 0.048-0.013-0.021-0.099-0.033-0.201-0.063-0.296s-0.084-0.186-0.126-0.279c-0.036-0.083-0.050-0.211-0.111-0.241-0.107-0.052-0.163 0.080-0.23 0.146-0.058 0.058-0.126 0.124-0.145 0.198-0.052 0.205-0.081 0.417-0.117 0.625-0.009 0.055-0.001 0.115-0.019 0.165-0.070 0.199-0.096 0.378 0.029 0.581 0.070 0.114 0.144 0.195 0.254 0.25 0.15 0.077 0.203 0.054 0.249-0.11 0.027-0.095 0.063-0.154 0.179-0.163 0.13-0.010 0.235-0.238 0.194-0.363-0.053-0.165-0.096-0.334-0.143-0.502zM14.368 17.92c0.001-0.005 0.002-0.009 0.003-0.014 0.077 0 0.158 0.014 0.231-0.002 0.22-0.052 0.437-0.113 0.653-0.175 0.076-0.023 0.077-0.090 0.014-0.149-0.060-0.058-0.111-0.126-0.169-0.185-0.052-0.053-0.106-0.105-0.162-0.154-0.119-0.103-0.268-0.185-0.356-0.31-0.143-0.201-0.361-0.231-0.56-0.292-0.136-0.041-0.25-0.085-0.354-0.183-0.121-0.113-0.253-0.217-0.393-0.304-0.127-0.078-0.192-0.024-0.192 0.121 0 0.083-0.021 0.166-0.035 0.249-0.014 0.079-0.044 0.156-0.043 0.233 0.002 0.092 0.017 0.189 0.049 0.275 0.051 0.137 0.090 0.296 0.187 0.393 0.144 0.146 0.334 0.247 0.504 0.365 0.021 0.014 0.044 0.029 0.068 0.033 0.185 0.034 0.37 0.067 0.555 0.099zM16.981 17.742c0.045 0.042 0.074 0.089 0.114 0.101 0.207 0.065 0.424 0.104 0.625 0.184 0.239 0.096 0.425 0.020 0.587-0.139 0.229-0.227 0.465-0.432 0.75-0.595 0.167-0.095 0.28-0.293 0.401-0.457 0.093-0.125 0.164-0.267 0.239-0.405 0.047-0.086 0.019-0.152-0.077-0.176-0.148-0.038-0.296-0.072-0.446-0.102-0.045-0.009-0.096-0.005-0.141 0.004-0.184 0.035-0.37 0.070-0.551 0.114-0.084 0.021-0.169 0.053-0.243 0.098-0.188 0.112-0.371 0.233-0.555 0.352-0.031 0.020-0.070 0.046-0.080 0.076-0.085 0.321-0.284 0.562-0.523 0.779-0.040 0.035-0.059 0.095-0.1 0.167zM11.815 14.123h0.052c0.009-0.198 0.058-0.406 0.017-0.593-0.071-0.328-0.077-0.655-0.099-0.985-0.009-0.129-0.064-0.264-0.129-0.377-0.093-0.161-0.222-0.308-0.191-0.507 0.019-0.123 0.073-0.243 0.124-0.36 0.042-0.097 0.071-0.182 0.025-0.291-0.072-0.169-0.030-0.324 0.092-0.465 0.105-0.121 0.238-0.176 0.382-0.226 0.084-0.029 0.16-0.082 0.248-0.129-0.003-0.005 0.017 0.015 0.018 0.037 0.007 0.2-0.044 0.378-0.223 0.49-0.079 0.050-0.108 0.108-0.052 0.177 0.068 0.085 0.073 0.171 0.047 0.266-0.035 0.127-0.077 0.253-0.107 0.382-0.022 0.089 0.001 0.175 0.109 0.175 0.091 0 0.121-0.075 0.127-0.163 0.005-0.070 0.015-0.144 0.039-0.211 0.052-0.157 0.122-0.308 0.171-0.466 0.094-0.301 0.188-0.596 0.436-0.817 0.047-0.042 0.070-0.141 0.062-0.208-0.029-0.229-0.070-0.456-0.119-0.681-0.053-0.238-0.123-0.472-0.188-0.707-0.010-0.039-0.033-0.074-0.050-0.111-0.035 0.027-0.075 0.050-0.104 0.082-0.21 0.236-0.408 0.484-0.628 0.709-0.243 0.248-0.539 0.444-0.639 0.811-0.063 0.234-0.192 0.45-0.156 0.707 0.042 0.297 0.075 0.597 0.116 0.894 0.055 0.399 0.168 0.784 0.297 1.164 0.046 0.136 0.093 0.274 0.123 0.414 0.055 0.264 0.097 0.531 0.147 0.795 0.013 0.065 0.035 0.128 0.053 0.193zM13.444 20.659c0-0.094 0.011-0.191-0.003-0.284-0.022-0.146-0.064-0.289-0.090-0.436-0.017-0.1 0.015-0.186 0.141-0.263 0.090 0.163 0.186 0.317 0.263 0.48 0.059 0.124 0.091 0.259 0.143 0.387 0.014 0.033 0.053 0.057 0.081 0.086 0.022-0.033 0.052-0.064 0.062-0.1 0.051-0.189 0.089-0.381 0.146-0.568 0.030-0.095 0.103-0.176 0.135-0.271 0.063-0.19 0.009-0.351-0.146-0.483-0.221-0.188-0.45-0.37-0.653-0.576-0.169-0.171-0.403-0.174-0.596-0.278-0.211-0.114-0.437-0.2-0.655-0.298-0.019-0.008-0.043-0.014-0.056-0.030-0.193-0.232-0.477-0.305-0.734-0.425-0.18-0.083-0.227-0.314-0.118-0.483 0.287-0.449 0.611-0.878 0.797-1.385 0.038-0.103 0.053-0.216 0.062-0.326 0.004-0.042-0.030-0.099-0.062-0.131-0.052-0.052-0.099-0.058-0.123 0.040-0.061 0.25-0.263 0.552-0.453 0.688-0.039-0.116-0.086-0.217-0.058-0.345 0.070-0.318 0.115-0.643 0.062-0.966-0.023-0.138-0.099-0.271-0.168-0.399-0.154-0.283-0.289-0.57-0.357-0.89-0.073-0.347-0.203-0.672-0.467-0.928-0.34-0.329-0.481-0.756-0.57-1.204-0.074-0.366-0.079-0.738-0.019-1.104 0.029-0.174 0.103-0.342 0.163-0.511 0.061-0.173 0.118-0.348 0.198-0.512 0.065-0.132 0.147-0.261 0.246-0.37 0.253-0.281 0.512-0.558 0.783-0.822 0.18-0.174 0.105-0.429 0.010-0.59-0.113-0.192-0.261-0.365-0.348-0.568-0.132-0.307-0.072-0.608 0.179-0.837 0.17-0.154 0.306-0.31 0.371-0.539 0.046-0.16 0.141-0.315 0.246-0.447 0.159-0.2 0.118-0.399 0.026-0.59-0.128-0.266-0.122-0.534-0.067-0.806 0.015-0.072 0.033-0.176 0.16-0.166 0.12 0.008 0.155 0.083 0.157 0.182 0.007 0.274 0.103 0.524 0.183 0.782 0.065 0.211 0.081 0.445-0.033 0.642-0.134 0.23-0.183 0.479-0.222 0.73-0.037 0.233-0.117 0.441-0.286 0.606-0.12 0.117-0.126 0.223-0.042 0.376 0.115 0.207 0.221 0.412 0.469 0.499 0.072 0.025 0.124 0.112 0.185 0.172 0.068 0.065 0.13 0.136 0.205 0.19 0.018 0.014 0.102-0.020 0.112-0.047 0.125-0.365 0.359-0.639 0.675-0.854 0.229-0.155 0.268-0.4 0.138-0.647-0.142-0.269-0.314-0.531-0.401-0.817-0.084-0.272-0.111-0.576 0.092-0.833 0.085-0.107 0.177-0.21 0.251-0.323 0.042-0.064 0.072-0.145 0.080-0.221 0.031-0.309 0.102-0.604 0.207-0.898 0.082-0.23 0.103-0.484 0.144-0.729 0.045-0.27 0.079-0.543 0.122-0.814 0.042-0.267 0.089-0.533 0.14-0.798 0.008-0.039 0.057-0.1 0.086-0.099 0.061 0.003 0.155 0.023 0.173 0.063 0.056 0.133 0.116 0.277 0.117 0.418 0.005 0.473 0.004 0.947-0.032 1.419-0.020 0.281-0.117 0.556-0.162 0.837-0.021 0.129-0.011 0.267 0.005 0.399 0.026 0.238 0.087 0.474 0.093 0.711 0.004 0.117-0.072 0.242-0.13 0.353-0.038 0.073-0.070 0.119-0.014 0.206 0.188 0.287 0.35 0.589 0.439 0.924 0.015 0.058 0.027 0.117 0.029 0.177 0.006 0.205 0.008 0.409 0.009 0.615 0 0.029-0.022 0.058-0.020 0.086 0.004 0.058 0.016 0.115 0.025 0.173 0.054-0.014 0.142-0.012 0.156-0.043 0.058-0.127 0.207-0.108 0.287-0.197 0.017-0.018 0.118 0.014 0.158 0.049 0.084 0.072 0.148 0.167 0.23 0.242 0.042 0.041 0.106 0.088 0.157 0.085 0.378-0.021 0.607 0.206 0.806 0.476 0.089 0.12 0.168 0.253 0.22 0.392 0.049 0.135 0.072 0.284 0.073 0.427 0.002 0.138 0.056 0.2 0.183 0.2 0.232 0 0.347 0.176 0.488 0.314 0.031 0.031 0.057 0.067 0.112 0.132 0.009-0.080 0.021-0.121 0.016-0.16-0.023-0.199-0.049-0.391-0.103-0.589-0.089-0.325-0.196-0.666-0.121-1.014 0.039-0.183 0.109-0.361 0.175-0.538 0.032-0.086 0.083-0.145 0.204-0.122 0.050 0.009 0.153-0.066 0.17-0.123 0.045-0.139 0.061-0.289 0.077-0.437 0.014-0.145-0.001-0.294 0.026-0.435 0.014-0.074 0.080-0.149 0.143-0.198 0.094-0.072 0.212-0.041 0.239 0.072 0.084 0.359 0.255 0.705 0.143 1.095-0.026 0.094 0.042 0.212 0.047 0.32 0.007 0.123-0.012 0.247-0.011 0.37 0 0.202 0 0.404 0.013 0.605 0.013 0.197 0.049 0.391 0.060 0.588 0.013 0.231 0.011 0.464 0.015 0.696 0 0.013 0.005 0.028-0.001 0.038-0.131 0.25-0.031 0.526-0.088 0.783-0.047 0.211-0.112 0.418-0.167 0.628-0.017 0.064-0.038 0.129-0.042 0.195-0.005 0.089 0.009 0.181 0.005 0.271-0.004 0.108 0.014 0.198 0.1 0.277 0.058 0.054 0.087 0.137 0.138 0.2 0.024 0.029 0.075 0.056 0.108 0.051 0.028-0.005 0.049-0.058 0.069-0.092 0.092-0.158 0.172-0.324 0.278-0.472 0.058-0.080 0.086-0.148 0.074-0.246-0.026-0.227-0.040-0.455-0.066-0.681-0.011-0.093-0.041-0.183-0.065-0.275-0.087-0.328-0.052-0.644 0.084-0.954 0.038-0.089 0.046-0.19 0.068-0.286 0.006-0.030 0.001-0.066 0.016-0.088 0.106-0.149 0.093-0.317 0.089-0.485-0.010-0.335 0.084-0.65 0.172-0.968 0.042-0.147 0.023-0.316 0.007-0.473-0.032-0.307-0.057-0.619-0.132-0.917-0.032-0.127-0.16-0.269-0.281-0.327-0.253-0.121-0.363-0.333-0.427-0.568-0.060-0.221-0.080-0.458-0.084-0.689-0.005-0.369 0.089-0.709 0.357-0.988 0.172-0.179 0.159-0.399 0.13-0.629-0.052-0.415-0.243-0.807-0.211-1.236 0.008-0.111 0.012-0.224 0.039-0.332 0.010-0.041 0.080-0.090 0.123-0.091 0.051-0.001 0.135 0.037 0.147 0.076 0.057 0.183 0.091 0.371 0.141 0.557 0.042 0.16 0.093 0.317 0.143 0.475 0.117 0.38 0.252 0.756 0.351 1.141 0.045 0.177 0.054 0.365-0.036 0.555-0.054 0.114-0.031 0.267-0.031 0.402-0.001 0.246 0.006 0.492 0.011 0.737 0 0.014 0.003 0.027-0.001 0.039-0.162 0.414 0.084 0.74 0.225 1.093 0.050 0.124 0.084 0.266 0.080 0.398-0.010 0.3-0.039 0.6-0.076 0.898-0.021 0.163-0.073 0.321-0.11 0.482-0.064 0.277-0.056 0.54 0.049 0.815s0.252 0.541 0.267 0.854c0.010 0.202 0.116 0.398 0.133 0.601 0.021 0.246 0.002 0.496-0.017 0.744-0.006 0.083-0.006 0.137 0.067 0.185 0.122 0.080 0.24 0.167 0.361 0.249 0.059 0.039 0.1 0.022 0.104-0.052 0.017-0.32 0.014-0.637-0.116-0.938-0.187-0.44-0.143-0.868 0.052-1.293 0.087-0.19 0.161-0.385 0.23-0.581 0.021-0.061 0.021-0.137 0.006-0.202-0.041-0.174-0.008-0.333 0.075-0.485 0.005-0.007 0.007-0.017 0.014-0.022 0.167-0.117 0.323 0.001 0.483 0.026 0.095 0.014 0.068 0.091 0.070 0.154 0.011 0.226 0.033 0.453 0.032 0.679-0.001 0.161-0.014 0.326-0.055 0.481-0.068 0.251-0.118 0.5-0.068 0.758 0.014 0.074 0.052 0.143 0.075 0.215 0.033 0.099 0.087 0.201 0.088 0.302 0.002 0.287 0.038 0.591-0.042 0.859-0.1 0.336-0.048 0.672-0.103 1.005-0.015 0.089 0.031 0.187 0.028 0.28-0.007 0.222-0.027 0.444-0.042 0.665-0.012 0.172-0.020 0.343-0.036 0.514-0.009 0.093-0.036 0.185-0.048 0.279-0.059 0.464-0.111 0.928-0.176 1.391-0.016 0.121-0.074 0.236-0.103 0.356-0.099 0.403-0.197 0.806-0.29 1.211-0.038 0.163-0.129 0.282-0.259 0.382-0.042 0.033-0.088 0.080-0.1 0.129-0.036 0.145-0.075 0.293-0.081 0.441-0.015 0.37-0.096 0.709-0.346 0.998-0.070 0.082-0.104 0.197-0.155 0.296-0.094 0.182-0.232 0.224-0.413 0.127-0.142-0.075-0.403-0.021-0.561 0.108-0.113 0.091-0.234 0.173-0.35 0.26-0.029 0.023-0.064 0.048-0.078 0.080-0.058 0.132-0.112 0.171-0.259 0.136-0.093-0.023-0.109 0.014-0.101 0.089 0.005 0.051 0.011 0.103 0.025 0.152 0.043 0.154 0.019 0.298-0.047 0.439-0.016 0.034-0.032 0.075-0.028 0.111 0.032 0.297-0.113 0.562-0.152 0.846-0.019 0.14-0.056 0.278-0.074 0.418-0.005 0.033 0.031 0.070 0.048 0.106 0.033-0.017 0.075-0.028 0.093-0.054 0.024-0.038 0.033-0.087 0.044-0.132 0.049-0.218 0.099-0.435 0.145-0.653 0.032-0.155 0.053-0.313 0.083-0.469 0.017-0.088 0.032-0.179 0.068-0.259 0.023-0.051 0.086-0.084 0.131-0.125 0.074-0.069 0.146-0.14 0.224-0.205 0.043-0.036 0.096-0.062 0.145-0.094 0.034 0.061 0.091 0.119 0.099 0.183 0.008 0.070-0.010 0.161-0.052 0.215-0.144 0.183-0.215 0.388-0.245 0.616-0.042 0.328-0.123 0.653-0.138 0.982-0.014 0.301-0.105 0.568-0.212 0.841-0.103 0.262-0.289 0.452-0.474 0.648-0.088 0.093-0.177 0.186-0.257 0.286-0.098 0.12-0.201 0.212-0.372 0.17-0.035-0.008-0.084 0.010-0.117 0.031-0.141 0.089-0.282 0.178-0.417 0.275-0.043 0.032-0.081 0.082-0.102 0.133-0.099 0.24-0.169 0.494-0.294 0.719-0.114 0.207-0.364 0.277-0.588 0.142-0.193-0.116-0.376-0.246-0.559-0.376-0.056-0.039-0.107-0.090-0.146-0.145-0.135-0.187-0.263-0.379-0.396-0.567-0.086-0.122-0.184-0.236-0.263-0.363-0.078-0.125-0.136-0.263-0.207-0.392-0.041-0.073-0.086-0.146-0.143-0.206-0.15-0.157-0.265-0.334-0.275-0.551-0.011-0.232-0.123-0.425-0.202-0.631-0.015-0.040-0.034-0.086-0.026-0.124 0.032-0.146-0.041-0.234-0.145-0.315-0.136-0.107-0.27-0.214-0.397-0.332-0.238-0.221-0.395-0.494-0.409-0.821-0.014-0.308-0.115-0.575-0.302-0.811-0.077-0.097-0.092-0.193-0.043-0.298 0.019-0.042 0.064-0.088 0.104-0.095 0.030-0.005 0.073 0.045 0.106 0.076 0.097 0.092 0.184 0.195 0.289 0.276 0.057 0.043 0.145 0.042 0.211 0.076 0.038 0.019 0.077 0.064 0.088 0.105 0.080 0.285 0.163 0.568 0.172 0.869 0.004 0.122 0.073 0.226 0.248 0.276z"></path>
<path d="M16.551 0.9c0.014 0.202 0.019 0.404 0.042 0.604 0.032 0.26-0.033 0.508-0.108 0.747-0.080 0.258 0.003 0.493 0.038 0.736 0.024 0.173 0.060 0.345 0.1 0.515 0.030 0.127 0.070 0.251 0.119 0.371 0.074 0.182 0.151 0.364 0.242 0.538 0.045 0.084 0.12 0.155 0.193 0.22 0.265 0.23 0.294 0.54 0.268 0.851-0.032 0.375-0.217 0.67-0.539 0.876-0.268 0.172-0.721 0.138-0.962-0.073-0.057-0.050-0.153-0.070-0.184-0.128-0.052-0.099-0.069-0.217-0.099-0.327-0.061-0.226 0.010-0.418 0.141-0.602 0.106-0.149 0.065-0.303-0.057-0.437-0.245-0.269-0.411-0.588-0.615-0.883-0.286-0.414-0.197-0.829-0.038-1.25 0.084-0.222 0.239-0.39 0.406-0.554 0.158-0.155 0.306-0.325 0.431-0.507 0.056-0.080 0.055-0.203 0.070-0.309 0.032-0.224 0.051-0.451 0.088-0.674 0.028-0.168 0.069-0.334 0.117-0.498 0.014-0.048 0.073-0.109 0.117-0.115 0.040-0.005 0.108 0.051 0.127 0.095 0.048 0.117 0.090 0.24 0.106 0.365 0.018 0.145 0.005 0.292 0.005 0.438-0.005 0-0.008 0.001-0.012 0.001z"></path>
</svg>
