<!-- Generated by IcoMoon.io -->
<svg version="1.1" xmlns="http://www.w3.org/2000/svg" width="32" height="32" viewBox="0 0 32 32">
<title>allies-nurgle</title>
<path d="M6.66 11.753c-0.018 0.090-0.017 0.171-0.051 0.232-0.146 0.268-0.205 0.565-0.304 0.847-0.062 0.175-0.111 0.357-0.108 0.549 0.002 0.065-0.034 0.132-0.051 0.197-0.040 0.161-0.107 0.323-0.112 0.485-0.014 0.439-0.003 0.878 0.001 1.317 0.003 0.368 0.011 0.738 0.012 1.106 0.001 0.32-0.008 0.639-0.005 0.959 0.001 0.097 0.011 0.199 0.042 0.289 0.065 0.186 0.056 0.389 0.14 0.567 0.003 0.009 0 0.020 0.002 0.030 0.017 0.071 0.028 0.144 0.051 0.212 0.023 0.065 0.071 0.123 0.084 0.188 0.039 0.191 0.088 0.38 0.137 0.568 0.025 0.099 0.032 0.207 0.074 0.298 0.058 0.128 0.076 0.26 0.106 0.393 0.037 0.161 0.098 0.316 0.099 0.484 0.122 0.216 0.206 0.445 0.235 0.693 0.001 0.004 0.003 0.009 0.006 0.013 0.112 0.208 0.19 0.433 0.35 0.615 0.078 0.088 0.139 0.191 0.217 0.28 0.161 0.18 0.327 0.353 0.49 0.53 0.106 0.115 0.248 0.196 0.318 0.346 0.012 0.025 0.037 0.047 0.060 0.066 0.218 0.182 0.467 0.325 0.667 0.532 0.136 0.14 0.292 0.261 0.439 0.391 0.169 0.15 0.334 0.305 0.554 0.384 0.068 0.025 0.131 0.068 0.19 0.112 0.099 0.073 0.188 0.16 0.29 0.227 0.089 0.060 0.185 0.117 0.287 0.148 0.284 0.089 0.525 0.243 0.729 0.459 0.023 0.025 0.049 0.055 0.079 0.064 0.315 0.089 0.596 0.286 0.938 0.287 0.046 0 0.093 0.031 0.141 0.041 0.162 0.038 0.324 0.086 0.489 0.104 0.154 0.018 0.313-0.001 0.47 0.004 0.072 0.002 0.153 0.003 0.213 0.036 0.171 0.092 0.351 0.153 0.544 0.159 0.251 0.008 0.503 0.002 0.755 0.006 0.068 0.002 0.135 0.018 0.203 0.029 0.111 0.018 0.222 0.053 0.333 0.054 0.469 0.006 0.938 0.004 1.407 0.001 0.078-0.001 0.158-0.013 0.232-0.036 0.17-0.051 0.341-0.102 0.503-0.172 0.166-0.071 0.334-0.066 0.506-0.061 0.118 0.003 0.238 0.003 0.353-0.016 0.218-0.035 0.434-0.082 0.651-0.128 0.096-0.021 0.202-0.033 0.281-0.085 0.23-0.15 0.451-0.313 0.714-0.405 0.017-0.005 0.026-0.030 0.042-0.040 0.083-0.051 0.166-0.103 0.252-0.149 0.069-0.037 0.146-0.061 0.213-0.1 0.241-0.141 0.462-0.316 0.722-0.426 0.079-0.033 0.152-0.067 0.24-0.048 0.025 0.005 0.061-0.002 0.082-0.018 0.098-0.073 0.196-0.148 0.289-0.227s0.178-0.169 0.274-0.246c0.168-0.137 0.35-0.257 0.51-0.402 0.211-0.191 0.41-0.397 0.609-0.601 0.137-0.141 0.27-0.286 0.398-0.435 0.096-0.111 0.188-0.228 0.235-0.373 0.017-0.050 0.052-0.095 0.082-0.139 0.107-0.16 0.209-0.321 0.258-0.511 0.017-0.065 0.048-0.133 0.092-0.182 0.154-0.172 0.241-0.382 0.349-0.582 0.055-0.103 0.096-0.215 0.141-0.324 0.080-0.19 0.158-0.382 0.239-0.572 0.031-0.072 0.063-0.144 0.102-0.211 0.080-0.138 0.15-0.275 0.161-0.439 0.006-0.090 0.047-0.179 0.079-0.267 0.041-0.116 0.096-0.226 0.131-0.344 0.075-0.26 0.068-0.539 0.182-0.789 0.006-0.013 0.008-0.030 0.006-0.044-0.022-0.17 0.030-0.332 0.065-0.495 0.025-0.115 0.056-0.23 0.074-0.346 0.015-0.092-0.003-0.19 0.020-0.279 0.064-0.241 0.084-0.483 0.075-0.732-0.003-0.086 0.020-0.177 0.052-0.258s0.050-0.158 0.039-0.244c-0.006-0.044-0.006-0.089-0.003-0.133 0.011-0.228-0.003-0.452-0.069-0.672-0.044-0.146-0.069-0.296-0.106-0.445-0.032-0.129-0.069-0.256-0.106-0.384-0.062-0.217-0.127-0.433-0.188-0.651-0.062-0.223-0.112-0.449-0.182-0.669-0.037-0.115-0.061-0.227-0.053-0.347 0.003-0.053 0.001-0.11-0.014-0.161-0.059-0.198-0.123-0.395-0.187-0.591-0.036-0.112-0.073-0.224-0.115-0.334-0.066-0.175-0.135-0.348-0.203-0.523-0.023-0.060-0.040-0.122-0.068-0.18-0.153-0.333-0.385-0.617-0.569-0.932-0.043-0.075-0.117-0.131-0.17-0.2-0.131-0.169-0.317-0.298-0.368-0.524-0.005-0.023-0.023-0.044-0.039-0.062-0.145-0.161-0.289-0.322-0.437-0.479-0.025-0.026-0.068-0.037-0.105-0.050-0.096-0.032-0.175-0.083-0.239-0.165-0.045-0.058-0.104-0.104-0.161-0.152-0.158-0.133-0.324-0.258-0.476-0.398-0.302-0.277-0.597-0.561-0.893-0.845-0.117-0.112-0.255-0.182-0.407-0.233-0.059-0.020-0.118-0.051-0.165-0.090-0.111-0.093-0.231-0.142-0.38-0.133-0.064 0.004-0.133-0.020-0.195-0.046-0.082-0.033-0.154-0.089-0.236-0.118-0.126-0.046-0.243-0.1-0.339-0.2-0.093-0.098-0.2-0.173-0.349-0.166-0.045 0.002-0.092-0.029-0.136-0.049-0.148-0.068-0.295-0.118-0.466-0.123-0.337-0.008-0.68 0.039-1.009-0.085-0.155-0.058-0.325-0.075-0.468-0.169-0.102-0.066-0.211-0.1-0.336-0.094-0.147 0.006-0.296-0.001-0.444 0.004-0.057 0.003-0.113 0.025-0.17 0.038-0.070 0.017-0.14 0.047-0.21 0.048-0.321 0.006-0.642 0.004-0.963 0.003-0.116 0-0.218 0.027-0.325 0.076-0.104 0.047-0.237 0.029-0.343 0.073-0.258 0.108-0.509 0.235-0.762 0.356-0.031 0.015-0.054 0.043-0.084 0.059-0.065 0.033-0.13 0.067-0.197 0.093-0.183 0.072-0.379 0.119-0.548 0.214-0.247 0.137-0.506 0.239-0.767 0.341-0.325 0.126-0.642 0.271-0.933 0.467-0.064 0.043-0.141 0.070-0.215 0.095-0.117 0.039-0.237 0.067-0.353 0.104-0.032 0.010-0.060 0.035-0.083 0.059-0.217 0.218-0.446 0.417-0.748 0.509-0.037 0.011-0.070 0.036-0.1 0.061-0.072 0.060-0.139 0.125-0.211 0.185-0.114 0.092-0.231 0.182-0.346 0.272-0.193 0.152-0.408 0.275-0.564 0.474-0.078 0.099-0.177 0.183-0.274 0.268-0.091 0.082-0.192 0.153-0.287 0.23s-0.178 0.179-0.284 0.233c-0.103 0.052-0.15 0.125-0.196 0.219-0.174 0.354-0.359 0.703-0.535 1.055-0.164 0.328-0.257 0.681-0.367 1.028-0.039 0.124-0.082 0.235-0.225 0.261zM16.060 0.005c0.025 0.089 0.049 0.179 0.073 0.268 0.049 0.185 0.102 0.37 0.146 0.557 0.032 0.134 0.053 0.27 0.075 0.406s0.031 0.274 0.057 0.408c0.014 0.071 0.041 0.145 0.083 0.203 0.108 0.148 0.14 0.311 0.117 0.486-0.011 0.075-0.003 0.139 0.029 0.211 0.035 0.077 0.036 0.172 0.043 0.259 0.006 0.079 0.016 0.151 0.049 0.227 0.036 0.082 0.042 0.182 0.042 0.273 0 0.146 0.007 0.285 0.123 0.42 0.085 0 0.192-0.004 0.299 0.002 0.072 0.004 0.144 0.025 0.216 0.039 0.125 0.025 0.249 0.050 0.374 0.075 0.173 0.035 0.346 0.070 0.52 0.103 0.1 0.018 0.203 0.047 0.303 0.046 0.272-0.003 0.541 0.011 0.808 0.062 0.015 0.003 0.031 0.003 0.043 0.011 0.182 0.094 0.39 0.137 0.552 0.276 0.051 0.045 0.115 0.077 0.178 0.104 0.139 0.061 0.283 0.111 0.423 0.172 0.062 0.027 0.121 0.066 0.176 0.106 0.096 0.069 0.187 0.145 0.281 0.216 0.028 0.020 0.060 0.036 0.092 0.047 0.156 0.058 0.315 0.109 0.469 0.172 0.128 0.052 0.25 0.116 0.374 0.176 0.080 0.039 0.16 0.077 0.235 0.123 0.063 0.039 0.122 0.083 0.178 0.131 0.128 0.107 0.247 0.226 0.382 0.324 0.098 0.071 0.216 0.114 0.324 0.172 0.087 0.046 0.176 0.088 0.254 0.146 0.137 0.103 0.268 0.216 0.398 0.327 0.086 0.072 0.169 0.148 0.246 0.216 0.189-0.032 0.306-0.161 0.446-0.249 0.133-0.083 0.251-0.188 0.414-0.221 0.073-0.015 0.135-0.078 0.202-0.119 0.061-0.038 0.125-0.060 0.196-0.032 0.093 0.034 0.128 0.115 0.082 0.199-0.124 0.225-0.249 0.447-0.376 0.669-0.051 0.089-0.109 0.175-0.165 0.26-0.073 0.111-0.084 0.232-0.050 0.354 0.061 0.216 0.166 0.413 0.296 0.592 0.172 0.234 0.365 0.453 0.543 0.683 0.068 0.089 0.131 0.185 0.182 0.285 0.095 0.189 0.25 0.329 0.376 0.491 0.139 0.179 0.238 0.371 0.275 0.595 0.006 0.034 0.018 0.067 0.028 0.099 0.086 0.252 0.17 0.503 0.259 0.753 0.087 0.246 0.18 0.489 0.267 0.736 0.041 0.116 0.094 0.232 0.106 0.353 0.018 0.163 0.099 0.297 0.153 0.445 0.052 0.143 0.1 0.287 0.145 0.432 0.049 0.165 0.086 0.334 0.14 0.497 0.059 0.177 0.128 0.349 0.15 0.539 0.022 0.192 0.118 0.272 0.316 0.27 0.138-0.001 0.252 0.066 0.356 0.13 0.167 0.102 0.332 0.155 0.526 0.132 0.083-0.010 0.168-0.001 0.252-0.004 0.081-0.002 0.154 0.005 0.224 0.058 0.033 0.026 0.093 0.033 0.138 0.028 0.196-0.021 0.38 0.044 0.57 0.064 0.014 0.002 0.027 0.011 0.041 0.017 0.101 0.046 0.202 0.092 0.332 0.152-0.133 0.046-0.249 0.080-0.359 0.128-0.139 0.061-0.277 0.128-0.409 0.204-0.232 0.132-0.455 0.276-0.687 0.409-0.067 0.038-0.146 0.066-0.223 0.075-0.197 0.024-0.363 0.119-0.534 0.207-0.066 0.034-0.129 0.074-0.196 0.104-0.111 0.052-0.197 0.12-0.236 0.245-0.018 0.059-0.061 0.111-0.097 0.163-0.094 0.132-0.161 0.271-0.156 0.437 0.001 0.015 0.003 0.032-0.001 0.045-0.088 0.256-0.063 0.532-0.16 0.79-0.094 0.252-0.175 0.511-0.214 0.782-0.018 0.125-0.074 0.244-0.112 0.366-0.058 0.183-0.13 0.363-0.169 0.55-0.034 0.167-0.099 0.318-0.162 0.473-0.015 0.037-0.036 0.073-0.040 0.111-0.040 0.339-0.226 0.625-0.337 0.939-0.093 0.266-0.248 0.503-0.364 0.757-0.1 0.217-0.226 0.412-0.348 0.613-0.018 0.030-0.032 0.066-0.057 0.085-0.127 0.096-0.183 0.242-0.272 0.365-0.061 0.085-0.073 0.168-0.018 0.262 0.037 0.064 0.064 0.133 0.096 0.2 0.097 0.204 0.194 0.409 0.293 0.612 0.021 0.044 0.051 0.082 0.077 0.124 0.039 0.061 0.079 0.121 0.128 0.196-0.081 0.047-0.144 0.092-0.214 0.125-0.032 0.015-0.075 0.017-0.111 0.008-0.081-0.021-0.161-0.048-0.238-0.080-0.168-0.070-0.332-0.15-0.503-0.213-0.071-0.026-0.154-0.025-0.232-0.031-0.13-0.011-0.267 0.029-0.39-0.058-0.022 0.016-0.051 0.025-0.059 0.044-0.054 0.118-0.145 0.194-0.253 0.259-0.061 0.037-0.118 0.096-0.154 0.157-0.121 0.202-0.31 0.296-0.524 0.357-0.139 0.039-0.269 0.090-0.367 0.207-0.030 0.036-0.080 0.055-0.122 0.082-0.037 0.024-0.079 0.042-0.112 0.069-0.217 0.177-0.428 0.361-0.649 0.533-0.115 0.089-0.245 0.161-0.369 0.239-0.104 0.064-0.208 0.132-0.317 0.185-0.078 0.039-0.168 0.050-0.249 0.081-0.115 0.043-0.225 0.097-0.341 0.139-0.286 0.104-0.544 0.277-0.846 0.343-0.124 0.026-0.24 0.084-0.362 0.121-0.225 0.068-0.453 0.131-0.68 0.193-0.033 0.010-0.069 0.016-0.103 0.011-0.104-0.015-0.201 0.011-0.282 0.065-0.173 0.113-0.365 0.107-0.556 0.111-0.154 0.003-0.311 0.003-0.427 0.125-0.036 0.036-0.062 0.085-0.080 0.132-0.025 0.068-0.035 0.141-0.054 0.211s-0.040 0.142-0.068 0.21c-0.052 0.13-0.046 0.279-0.152 0.394-0.039 0.042-0.032 0.13-0.044 0.197-0.019 0.125-0.037 0.252-0.056 0.378-0.005 0.034-0.015 0.068-0.017 0.102-0.026 0.425-0.118 0.839-0.227 1.249-0.020 0.076-0.024 0.156-0.041 0.232-0.038 0.159-0.082 0.315-0.119 0.473-0.024 0.1-0.041 0.202-0.061 0.303-0.016 0.077-0.031 0.154-0.045 0.232-0.017 0.092-0.042 0.184-0.046 0.276-0.003 0.108-0.034 0.203-0.102 0.32-0.048-0.156-0.13-0.277-0.129-0.427 0.001-0.084-0.001-0.168 0.002-0.252 0.002-0.070-0.001-0.138-0.053-0.194-0.012-0.014-0.025-0.036-0.024-0.053 0.023-0.178-0.096-0.325-0.106-0.5-0.007-0.118-0.070-0.232-0.109-0.348-0.006-0.018-0.018-0.035-0.023-0.054-0.045-0.185-0.103-0.368-0.126-0.556-0.020-0.159-0.067-0.307-0.114-0.457-0.009-0.028-0.025-0.054-0.032-0.083-0.038-0.177-0.070-0.356-0.111-0.533-0.086-0.379-0.174-0.757-0.263-1.135-0.011-0.042-0.035-0.081-0.056-0.128-0.191 0-0.378 0.002-0.565-0.001-0.178-0.002-0.355-0.007-0.532-0.014-0.039-0.001-0.083-0.004-0.116-0.023-0.149-0.084-0.314-0.068-0.475-0.083-0.072-0.008-0.148-0.021-0.212-0.053-0.168-0.084-0.343-0.125-0.528-0.117-0.254 0.011-0.482-0.052-0.702-0.184-0.236-0.141-0.488-0.257-0.732-0.385-0.039-0.020-0.077-0.042-0.114-0.067-0.131-0.086-0.257-0.181-0.393-0.257-0.097-0.055-0.212-0.077-0.31-0.132-0.141-0.078-0.293-0.146-0.377-0.298-0.010-0.017-0.024-0.037-0.039-0.042-0.135-0.045-0.209-0.162-0.304-0.253-0.032-0.031-0.062-0.068-0.1-0.086-0.282-0.133-0.491-0.36-0.723-0.557-0.063-0.054-0.132-0.104-0.195-0.159-0.092-0.081-0.179-0.168-0.273-0.246-0.098-0.082-0.204-0.154-0.306-0.231-0.137 0.073-0.267 0.123-0.367 0.234-0.063 0.072-0.158 0.115-0.24 0.169-0.136 0.089-0.273 0.176-0.409 0.266-0.040 0.027-0.077 0.060-0.117 0.089-0.080 0.060-0.155 0.125-0.268 0.101-0.018-0.004-0.043-0.003-0.056 0.007-0.105 0.078-0.21 0.158-0.311 0.239-0.176 0.142-0.348 0.289-0.526 0.427-0.036 0.027-0.093 0.037-0.14 0.038-0.12 0.003-0.204-0.119-0.15-0.226 0.035-0.071 0.082-0.131 0.055-0.219-0.006-0.021 0.025-0.067 0.049-0.082 0.151-0.089 0.221-0.241 0.292-0.383 0.124-0.245 0.281-0.461 0.46-0.666 0.101-0.115 0.202-0.23 0.302-0.345 0.012-0.015 0.031-0.031 0.033-0.047 0.038-0.259 0.218-0.459 0.285-0.721-0.023-0.034-0.052-0.079-0.083-0.123-0.166-0.226-0.333-0.452-0.498-0.679-0.018-0.024-0.029-0.052-0.042-0.078-0.104-0.218-0.226-0.42-0.397-0.595-0.082-0.083-0.134-0.194-0.194-0.296-0.043-0.072-0.071-0.153-0.114-0.225-0.050-0.082-0.075-0.168-0.076-0.266-0.001-0.047-0.021-0.095-0.041-0.138-0.074-0.152-0.151-0.303-0.129-0.478 0.022-0.173-0.043-0.331-0.076-0.492-0.046-0.22-0.127-0.433-0.193-0.649-0.004-0.014-0.015-0.026-0.018-0.040-0.040-0.211-0.079-0.423-0.118-0.634-0.005-0.028 0.004-0.065-0.011-0.086-0.091-0.132-0.064-0.284-0.075-0.43-0.002-0.025 0.006-0.053-0.003-0.073-0.076-0.142-0.053-0.297-0.066-0.448-0.008-0.092-0.029-0.183-0.050-0.274-0.026-0.108-0.028-0.219-0.085-0.325-0.039-0.070-0.025-0.174-0.019-0.261 0.010-0.142-0.023-0.273-0.085-0.407-0.131-0.002-0.246-0.046-0.339-0.143-0.016-0.017-0.042-0.028-0.065-0.033-0.162-0.036-0.326-0.064-0.487-0.106-0.108-0.028-0.21-0.079-0.317-0.111-0.175-0.051-0.351-0.093-0.526-0.139-0.053-0.014-0.105-0.025-0.158-0.038-0.028-0.008-0.055-0.025-0.084-0.028-0.335-0.039-0.66-0.16-1.006-0.113-0.047 0.007-0.097 0.001-0.15 0.001-0.017-0.099 0.046-0.155 0.115-0.188 0.078-0.037 0.168-0.062 0.253-0.067 0.129-0.006 0.252-0.020 0.376-0.061 0.1-0.032 0.214-0.026 0.322-0.030 0.146-0.004 0.29 0.005 0.432-0.068 0.102-0.053 0.224-0.068 0.339-0.088 0.175-0.032 0.335-0.109 0.499-0.172 0.085-0.032 0.145-0.111 0.246-0.121 0.106-0.011 0.212-0.036 0.315-0.066 0.098-0.028 0.202-0.056 0.286-0.111 0.092-0.059 0.177-0.076 0.275-0.037 0.077-0.133 0.132-0.261 0.118-0.412-0.008-0.089 0.005-0.178 0.003-0.267-0.004-0.121 0.006-0.237 0.081-0.339 0.003-0.004 0.005-0.008 0.006-0.013 0.038-0.156 0.075-0.313 0.113-0.47 0.012-0.052 0.019-0.107 0.039-0.156 0.075-0.192 0.156-0.382 0.232-0.574 0.087-0.218 0.137-0.447 0.188-0.676 0.005-0.024 0.011-0.050 0.023-0.070 0.16-0.257 0.203-0.564 0.357-0.824 0.062-0.105 0.096-0.227 0.149-0.338 0.112-0.23 0.23-0.457 0.345-0.686 0.048-0.097 0.103-0.185 0.189-0.256 0.038-0.032 0.053-0.106 0.054-0.161 0.004-0.148-0.024-0.299-0.003-0.443 0.028-0.19-0.079-0.309-0.169-0.448-0.168-0.261-0.329-0.528-0.473-0.803-0.156-0.298-0.315-0.591-0.551-0.837-0.054-0.057-0.093-0.127-0.14-0.19-0.215-0.289-0.432-0.575-0.646-0.865-0.059-0.079-0.108-0.164-0.163-0.246-0.145-0.211-0.294-0.42-0.434-0.635-0.067-0.102-0.118-0.215-0.186-0.341 0.139-0.009 0.244-0.021 0.356 0.068 0.154 0.12 0.334 0.207 0.501 0.313 0.074 0.047 0.147 0.098 0.21 0.16 0.176 0.173 0.341 0.357 0.558 0.482 0.046 0.027 0.079 0.075 0.123 0.107 0.075 0.053 0.15 0.117 0.235 0.149 0.105 0.039 0.184 0.107 0.267 0.178 0.13 0.112 0.274 0.209 0.41 0.313 0.153 0.117 0.305 0.232 0.455 0.353 0.189 0.151 0.374 0.303 0.614 0.375 0.102 0.030 0.196 0.086 0.293 0.133 0.039 0.019 0.075 0.045 0.111 0.070 0.154 0.111 0.328 0.052 0.357-0.137 0.017-0.106 0.082-0.149 0.155-0.196 0.019-0.012 0.047-0.025 0.068-0.021 0.173 0.036 0.306-0.051 0.439-0.137 0.286-0.185 0.569-0.374 0.857-0.555 0.118-0.075 0.24-0.137 0.382-0.176 0.274-0.075 0.538-0.184 0.788-0.325 0.244-0.138 0.499-0.253 0.767-0.342 0.176-0.058 0.336-0.161 0.505-0.239 0.175-0.079 0.349-0.159 0.529-0.225 0.239-0.089 0.481-0.167 0.71-0.286 0.168-0.088 0.357-0.134 0.539-0.195 0.097-0.032 0.198-0.057 0.297-0.087 0.174-0.052 0.347-0.105 0.522-0.157 0.124-0.037 0.139-0.054 0.154-0.182 0.004-0.034 0.002-0.073 0.017-0.102 0.084-0.167 0.075-0.346 0.070-0.523-0.004-0.203 0.080-0.385 0.118-0.577 0.076-0.377 0.155-0.753 0.231-1.131 0.011-0.053 0.006-0.108 0.010-0.162s-0.006-0.118 0.018-0.16c0.089-0.146 0.065-0.304 0.070-0.46 0.003-0.093-0.004-0.185 0.063-0.268 0.024-0.028 0.010-0.085 0.019-0.128 0.011-0.048 0.030-0.095 0.045-0.142 0.016 0.002 0.032 0.004 0.047 0.005z"></path>
<path d="M14.198 13.71h-0.003c0-0.099-0.001-0.197 0-0.296 0.002-0.207-0.037-0.401-0.164-0.571-0.032-0.042-0.049-0.096-0.068-0.146-0.122-0.33-0.33-0.594-0.617-0.794-0.131-0.091-0.272-0.16-0.432-0.188-0.439-0.078-0.844 0.011-1.216 0.252-0.254 0.166-0.436 0.393-0.585 0.656-0.13 0.228-0.228 0.457-0.21 0.725 0.005 0.074-0.010 0.148-0.004 0.222 0.010 0.126-0.015 0.254 0.037 0.379 0.075 0.181 0.175 0.34 0.308 0.482 0.097 0.104 0.193 0.209 0.285 0.317 0.183 0.213 0.396 0.366 0.691 0.367 0.147 0 0.301 0.024 0.441-0.010 0.213-0.051 0.425-0.079 0.643-0.076 0.097 0.002 0.182-0.035 0.254-0.104 0.114-0.11 0.241-0.207 0.343-0.325 0.168-0.195 0.327-0.399 0.297-0.683-0.007-0.068-0.001-0.138-0.001-0.207zM13.823 18.679c-0.001 0.234 0.006 0.426 0.078 0.617s0.108 0.397 0.167 0.595c0.046 0.155 0.14 0.281 0.264 0.384 0.042 0.035 0.085 0.068 0.125 0.104 0.408 0.373 0.881 0.523 1.431 0.442 0.701-0.104 1.374-0.752 1.384-1.531 0.003-0.196-0.002-0.402-0.061-0.584-0.082-0.256-0.201-0.505-0.339-0.736-0.164-0.274-0.398-0.474-0.741-0.496-0.060-0.004-0.119 0.003-0.177-0.003-0.067-0.008-0.132-0.027-0.197-0.042-0.239-0.052-0.48-0.055-0.714 0.007-0.090 0.024-0.175 0.058-0.269 0.054-0.039-0.002-0.083-0.002-0.117 0.015-0.271 0.138-0.542 0.262-0.679 0.578-0.090 0.208-0.187 0.4-0.154 0.595zM19.236 15.817c0.089-0.004 0.178-0.003 0.265-0.017 0.062-0.010 0.139-0.023 0.176-0.064 0.111-0.124 0.261-0.15 0.404-0.199 0.333-0.114 0.617-0.299 0.837-0.582 0.466-0.603 0.488-1.448 0.048-2.059-0.603-0.839-1.898-1.106-2.845-0.020-0.209 0.239-0.367 0.526-0.339 0.873 0.008 0.098 0.002 0.197-0.005 0.296-0.005 0.062-0.028 0.124-0.034 0.186-0.011 0.111-0.035 0.226-0.018 0.334 0.037 0.218 0.158 0.403 0.294 0.574 0.079 0.098 0.172 0.21 0.283 0.253 0.132 0.051 0.219 0.141 0.321 0.223 0.046 0.038 0.095 0.070 0.143 0.104 0.143 0.102 0.306 0.097 0.47 0.099zM15.373 10.359c-0.081 0.012-0.134 0.018-0.187 0.028-0.037 0.008-0.078 0.014-0.107 0.036-0.095 0.073-0.197 0.056-0.297 0.028-0.105-0.030-0.132-0.132-0.074-0.224 0.127-0.196 0.266-0.388 0.374-0.594 0.182-0.353 0.342-0.717 0.517-1.074 0.122-0.247 0.253-0.49 0.378-0.736 0.032-0.061 0.065-0.122 0.089-0.187s0.047-0.125 0.118-0.162c0.026-0.013 0.051-0.064 0.048-0.096-0.015-0.162 0.045-0.286 0.166-0.39 0.051-0.045 0.088-0.105 0.135-0.165 0.142 0.068 0.255 0.138 0.296 0.307 0.036 0.154 0.096 0.3 0.085 0.461-0.001 0.019 0.003 0.041 0.012 0.057 0.107 0.17 0.141 0.361 0.186 0.553 0.053 0.229 0.131 0.453 0.205 0.675 0.068 0.204 0.141 0.406 0.219 0.607 0.041 0.108 0.096 0.211 0.145 0.318 0.011 0.026 0.018 0.055 0.026 0.083 0.021 0.070 0.043 0.139 0.061 0.21 0.014 0.052 0.030 0.104 0.033 0.157 0.006 0.083 0.003 0.168 0.003 0.252-0.003 0.165-0.064 0.232-0.229 0.247-0.063 0.006-0.128 0.002-0.192 0.004-0.043 0.002-0.086 0.005-0.149 0.009 0 0.16-0.003 0.31 0 0.462 0.003 0.167 0.008 0.334 0.019 0.501 0.003 0.043 0.026 0.099 0.060 0.124 0.049 0.036 0.090-0.015 0.124-0.050 0.055-0.059 0.118-0.096 0.197-0.12 0.060-0.019 0.109-0.080 0.157-0.126 0.028-0.026 0.039-0.075 0.069-0.094 0.189-0.123 0.367-0.263 0.587-0.34 0.287-0.102 0.582-0.148 0.882-0.177 0.133-0.012 0.265-0.035 0.398-0.040 0.112-0.004 0.229-0.004 0.337 0.020 0.246 0.054 0.488 0.126 0.732 0.189 0.089 0.024 0.149 0.082 0.22 0.137 0.184 0.139 0.375 0.274 0.579 0.382 0.129 0.068 0.225 0.154 0.303 0.271 0.079 0.119 0.159 0.239 0.246 0.352 0.051 0.066 0.090 0.136 0.080 0.216-0.018 0.134 0.049 0.22 0.15 0.281 0.109 0.065 0.148 0.153 0.166 0.275 0.038 0.259 0.094 0.514 0.137 0.773 0.011 0.071 0.011 0.146 0.005 0.219-0.012 0.158-0.039 0.314-0.047 0.472-0.012 0.301-0.116 0.566-0.282 0.813-0.154 0.229-0.299 0.465-0.454 0.694-0.044 0.063-0.1 0.125-0.164 0.167-0.331 0.216-0.666 0.425-1.032 0.577-0.091 0.038-0.184 0.072-0.276 0.106-0.047 0.018-0.099 0.024-0.139 0.049-0.149 0.095-0.304 0.152-0.486 0.138-0.039-0.003-0.094 0.033-0.118 0.068-0.037 0.053 0.003 0.103 0.043 0.143 0.161 0.168 0.341 0.308 0.546 0.424 0.128 0.072 0.241 0.189 0.329 0.31 0.118 0.162 0.261 0.278 0.447 0.346 0.013 0.004 0.032 0.002 0.043 0.010 0.142 0.107 0.247 0.025 0.35-0.068 0.047-0.043 0.095-0.085 0.146-0.132 0.005-0.053 0.006-0.112 0.017-0.17 0.018-0.11 0.068-0.161 0.154-0.172 0.098-0.011 0.211 0.047 0.248 0.126 0.081 0.174 0.163 0.346 0.243 0.52 0.016 0.035 0.026 0.074 0.038 0.111 0.024 0.081 0.043 0.161 0.070 0.241 0.061 0.181 0.15 0.339 0.311 0.455 0.055 0.040 0.093 0.115 0.125 0.18 0.099 0.209 0.186 0.423 0.289 0.63 0.053 0.108 0.13 0.205 0.195 0.309 0.020 0.032 0.043 0.068 0.048 0.104 0.043 0.271 0.132 0.524 0.268 0.762 0.025 0.043 0.080 0.093 0.025 0.146-0.055 0.054-0.125 0.033-0.176-0.006-0.059-0.047-0.121-0.060-0.191-0.059-0.073 0-0.135-0.025-0.183-0.082-0.061-0.074-0.139-0.096-0.236-0.097-0.092 0-0.184-0.025-0.275-0.041-0.14-0.025-0.279-0.065-0.419-0.075-0.281-0.019-0.563-0.016-0.844-0.033-0.389-0.024-0.777-0.053-1.164-0.091-0.087-0.009-0.169-0.066-0.244-0.096-0.003-0.033-0.005-0.043-0.003-0.053 0.034-0.211 0.163-0.357 0.326-0.484 0.095-0.075 0.093-0.121 0.016-0.21-0.041-0.047-0.089-0.090-0.14-0.126-0.161-0.115-0.324-0.226-0.488-0.336-0.122-0.081-0.249-0.155-0.372-0.236-0.025-0.018-0.039-0.051-0.063-0.073-0.026-0.025-0.057-0.061-0.087-0.063-0.052-0.003-0.072 0.043-0.077 0.091-0.017 0.132-0.025 0.266-0.050 0.396-0.063 0.32-0.168 0.628-0.3 0.926-0.025 0.056-0.060 0.087-0.12 0.093-0.030 0.003-0.060 0.008-0.087 0.018-0.172 0.061-0.272 0.101-0.296 0.365-0.023 0.244-0.132 0.473-0.386 0.582-0.108 0.047-0.22 0.084-0.325 0.135-0.061 0.029-0.124 0.068-0.164 0.118-0.048 0.063-0.107 0.098-0.176 0.127-0.418 0.172-0.852 0.282-1.302 0.332-0.059 0.006-0.118 0.013-0.175 0.027-0.372 0.089-0.735-0.002-1.099-0.059-0.056-0.009-0.111-0.038-0.162-0.067-0.224-0.126-0.454-0.233-0.704-0.303-0.113-0.032-0.232-0.090-0.259-0.235-0.012-0.064-0.061-0.093-0.115-0.125-0.113-0.068-0.227-0.139-0.326-0.225-0.060-0.053-0.093-0.136-0.134-0.208-0.070-0.125-0.137-0.25-0.204-0.375-0.127-0.234-0.261-0.465-0.376-0.703-0.037-0.075-0.027-0.173-0.039-0.261-0.010-0.068-0.007-0.139-0.029-0.203-0.026-0.077-0.098-0.080-0.147-0.015-0.029 0.039-0.054 0.080-0.089 0.112-0.097 0.089-0.196 0.175-0.282 0.277-0.009 0.003-0.018 0.009-0.027 0.009-0.318-0.006-0.327 0.201-0.277 0.435 0.011 0.052 0.025 0.098 0.025 0.154 0 0.082 0.023 0.165 0.094 0.225 0.077 0.064 0.1 0.148 0.064 0.24-0.037 0.095-0.118 0.12-0.216 0.125-0.061 0.003-0.122 0.027-0.183 0.042-0.057 0.014-0.114 0.027-0.171 0.041-0.052 0.012-0.104 0.023-0.156 0.037-0.042 0.012-0.083 0.040-0.126 0.040-0.217 0.002-0.393 0.122-0.581 0.201-0.105 0.044-0.204 0.066-0.313 0.065-0.316-0.002-0.631 0.001-0.948-0.010-0.143-0.004-0.273 0.021-0.393 0.098-0.082 0.053-0.16 0.075-0.262 0.031-0.077-0.033-0.174-0.024-0.262-0.032-0.032-0.003-0.066-0.005-0.122-0.010 0.021-0.061 0.024-0.12 0.055-0.155 0.123-0.139 0.197-0.301 0.276-0.467 0.168-0.357 0.353-0.706 0.529-1.060 0.025-0.048 0.046-0.098 0.068-0.147 0.107-0.244 0.217-0.486 0.319-0.732 0.076-0.182 0.153-0.362 0.283-0.515 0.027-0.032 0.037-0.080 0.049-0.122 0.038-0.137 0.073-0.275 0.113-0.431 0.142 0.118 0.254 0.258 0.446 0.261 0.053 0.115 0.104 0.228 0.167 0.365 0.116-0.080 0.218-0.136 0.302-0.214 0.106-0.099 0.204-0.204 0.281-0.337 0.071-0.125 0.194-0.223 0.305-0.319 0.308-0.264 0.593-0.547 0.825-0.881 0.052-0.075 0.129-0.134 0.198-0.196 0.057-0.051 0.089-0.104 0.053-0.196-0.134-0.020-0.274-0.043-0.415-0.061-0.119-0.016-0.227-0.052-0.332-0.115-0.204-0.121-0.421-0.211-0.652-0.276-0.119-0.033-0.237-0.094-0.269-0.245-0.010-0.043-0.064-0.082-0.106-0.111-0.084-0.060-0.175-0.109-0.261-0.167-0.105-0.072-0.166-0.175-0.215-0.294s-0.119-0.225-0.181-0.337c-0.132-0.242-0.268-0.482-0.393-0.728-0.032-0.062-0.027-0.144-0.038-0.216-0.002-0.010 0.003-0.020 0.002-0.030-0.034-0.211 0.031-0.418 0.024-0.63s0.003-0.424-0.002-0.636c-0.002-0.087-0.022-0.173-0.039-0.301 0.059-0.097 0.132-0.237 0.223-0.365 0.113-0.161 0.217-0.326 0.293-0.51 0.029-0.070 0.083-0.132 0.135-0.189 0.11-0.119 0.232-0.228 0.338-0.352 0.154-0.18 0.342-0.304 0.556-0.403 0.206-0.094 0.399-0.216 0.624-0.264 0.018-0.004 0.038-0.014 0.053-0.025 0.146-0.108 0.31-0.141 0.489-0.124 0.088 0.009 0.178-0.004 0.266 0.004 0.062 0.005 0.123 0.026 0.183 0.042 0.047 0.012 0.095 0.039 0.141 0.038 0.18-0.009 0.351 0.034 0.524 0.072 0.071 0.015 0.146 0.018 0.219 0.022 0.093 0.004 0.188-0.006 0.271 0.051 0.019 0.013 0.048 0.019 0.071 0.018 0.119-0.010 0.218 0.032 0.328 0.078 0.158 0.066 0.275 0.17 0.392 0.279 0.131 0.121 0.254 0.248 0.382 0.371 0.068 0.065 0.141 0.125 0.203 0.194 0.044 0.050 0.078 0.111 0.106 0.172 0.043 0.093 0.118 0.149 0.204 0.141 0.085-0.009 0.16-0.078 0.171-0.177 0.014-0.112 0.017-0.226 0.022-0.339 0.010-0.207 0.020-0.414 0.024-0.622 0.001-0.061-0.019-0.123-0.030-0.188z"></path>
</svg>
