<!-- Generated by IcoMoon.io -->
<svg version="1.1" xmlns="http://www.w3.org/2000/svg" width="32" height="32" viewBox="0 0 32 32">
<title>allies-skaven</title>
<path d="M10.979 6.889c0.1-0.088 0.111-0.034 0.242-0.088 0.105-0.044 0.212-0.085 0.308-0.142 0.347-0.206 0.712-0.368 1.088-0.511 0.166-0.064 0.327-0.143 0.49-0.217 0.13-0.058 0.255-0.131 0.391-0.174 0.356-0.114 0.677-0.302 1.011-0.463 0.174-0.085 0.358-0.135 0.541-0.193 0.419-0.132 0.84-0.050 1.258-0.078 0.115-0.007 0.223-0.011 0.334-0.059 0.093-0.040 0.211-0.026 0.317-0.031 0.244-0.010 0.468 0.029 0.703 0.137 0.272 0.123 0.57 0.231 0.888 0.204 0.129-0.010 0.259 0.011 0.388 0.004 0.207-0.011 0.388 0.071 0.58 0.123 0.237 0.064 0.422 0.181 0.613 0.321 0.141 0.104 0.317 0.162 0.477 0.241 0.013 0.006 0.027 0.016 0.040 0.014 0.342-0.059 0.553 0.239 0.847 0.31 0.047 0.011-0.016 0.005 0.020 0.039 0.063 0.058 0.125 0.117 0.188 0.175 0.169-0.224 0.178-0.692 0.376-1.135-0.098-0.074 0 0-0.116-0.050-0.237-0.102-0.355-0.198-0.597-0.277-0.161-0.053-0.311-0.114-0.436-0.221-0.134-0.113-0.28-0.193-0.44-0.263-0.202-0.088-0.388-0.212-0.586-0.307-0.161-0.077-0.327-0.157-0.498-0.197-0.179-0.042-0.368-0.041-0.554-0.054-0.206-0.015-0.414 0.008-0.616-0.078-0.109-0.046-0.237-0.052-0.357-0.070-0.323-0.051-0.647-0.099-0.98-0.151-0.095-0.104-0.114-0.241-0.107-0.389 0.004-0.078 0.012-0.169-0.021-0.233-0.058-0.115-0.046-0.237-0.074-0.352-0.050-0.201-0.055-0.403-0.081-0.606-0.012-0.095-0.073-0.182-0.107-0.275-0.029-0.079-0.056-0.16-0.076-0.242-0.016-0.069-0.016-0.142-0.031-0.212-0.083-0.379-0.167-0.756-0.253-1.133-0.018-0.080-0.047-0.158-0.076-0.255-0.038 0.036-0.060 0.046-0.066 0.063-0.121 0.36-0.101 0.744-0.19 1.11-0.046 0.194-0.051 0.399-0.092 0.594-0.074 0.352-0.161 0.7-0.242 1.050-0.013 0.056-0.027 0.113-0.026 0.17 0.002 0.209-0.023 0.41-0.071 0.616-0.036 0.154-0.098 0.213-0.236 0.253-0.378 0.109-0.754 0.223-1.126 0.35-0.202 0.069-0.394 0.171-0.592 0.253-0.297 0.123-0.598 0.238-0.895 0.363-0.144 0.061-0.281 0.14-0.424 0.205-0.202 0.091-0.407 0.177-0.61 0.265-0.308 0.133-0.468 0.193-0.776 0.327-0.075 0.032-0.15 0.060-0.224 0.092 0.011 0.352 0.212 0.807 0.437 1.211 0.013-0.011 0.025-0.022 0.037-0.033z"></path>
<path d="M12.136 25.484c-0.093-0.036-0.187-0.071-0.282-0.1-0.155-0.047-0.258-0.153-0.366-0.253-0.136-0.125-0.288-0.219-0.459-0.274-0.26-0.082-0.47-0.241-0.679-0.404-0.028-0.022-0.053-0.053-0.085-0.065-0.314-0.123-0.564-0.337-0.807-0.561-0.109-0.102-0.223-0.201-0.337-0.297-0.125-0.107-0.244-0.222-0.381-0.312-0.231-0.153-0.379-0.388-0.586-0.563-0.326-0.278-0.586-0.613-0.831-0.956-0.165-0.231-0.301-0.486-0.341-0.783-0.017-0.13-0.099-0.251-0.146-0.378-0.024-0.066-0.033-0.137-0.048-0.205-0.017-0.077-0.031-0.153-0.051-0.229-0.070-0.274-0.14-0.548-0.216-0.821-0.061-0.226-0.13-0.45-0.194-0.674-0.058-0.206-0.115-0.411-0.169-0.617-0.023-0.089-0.041-0.18-0.057-0.271s-0.036-0.184-0.037-0.276c-0.005-1.076-0.011-2.153-0.007-3.23 0-0.169 0.019-0.227 0.075-0.386 0.036-0.1 0.055-0.083 0.071-0.185-0.298 0.046-0.678 0.025-1.054 0.227-0.002 0.056-0.002 0.231 0.002 0.286 0.006 0.107-0.051-0.023-0.067 0.044-0.145 0.045-0.244 0.077-0.342 0.106-0.13 0.037-0.261 0.072-0.39 0.109-0.103 0.030-0.22 0.040-0.306 0.098-0.244 0.163-0.526 0.217-0.797 0.303-0.13 0.040-0.266 0.103-0.393 0.092-0.337-0.029-0.65 0.102-0.98 0.11-0.14 0.004-0.253 0.073-0.311 0.246 0.333-0.012 0.636-0.016 0.937 0.075 0.348 0.105 0.707 0.174 1.061 0.262 0.139 0.034 0.275 0.072 0.412 0.11s0.276 0.071 0.408 0.124c0.115 0.046 0.222 0.116 0.358 0.191 0.011 0.034 0.052 0.101 0.052 0.17 0 0.229 0.037 0.45 0.090 0.673 0.054 0.228 0.060 0.467 0.096 0.7 0.046 0.294 0.099 0.587 0.153 0.881 0.029 0.154 0.060 0.307 0.101 0.459 0.087 0.317 0.21 0.628 0.261 0.949 0.043 0.275 0.102 0.54 0.176 0.808 0.078 0.285 0.209 0.53 0.358 0.773 0.059 0.096 0.151 0.171 0.213 0.266 0.17 0.256 0.328 0.52 0.498 0.776 0.114 0.172 0.241 0.335 0.362 0.502-0.092 0.193-0.199 0.368-0.257 0.557-0.038 0.124-0.101 0.212-0.18 0.306-0.244 0.291-0.506 0.569-0.664 0.923-0.037 0.084-0.080 0.183-0.151 0.232-0.159 0.109-0.171 0.284-0.233 0.434-0.048 0.116 0.035 0.22 0.161 0.21 0.061-0.005 0.128-0.028 0.177-0.065 0.151-0.109 0.297-0.224 0.437-0.348 0.153-0.136 0.287-0.296 0.519-0.298 0.031 0 0.065-0.028 0.094-0.048 0.208-0.14 0.409-0.294 0.624-0.421 0.194-0.116 0.331-0.321 0.579-0.364 0.076 0.047 0.161 0.090 0.231 0.151 0.196 0.167 0.384 0.344 0.58 0.511 0.18 0.153 0.366 0.301 0.55 0.448 0.189 0.151 0.399 0.28 0.565 0.451 0.124 0.128 0.258 0.224 0.41 0.306 0.125 0.067 0.259 0.119 0.384 0.187 0.161 0.088 0.321 0.179 0.481 0.269 0.415-0.303 0.625-0.659 0.731-0.941z"></path>
<path d="M17.355 17.904c-0.080 0.168-0.202 0.322-0.253 0.498-0.109 0.372-0.373 0.659-0.515 1.010-0.007 0.016-0.028 0.026-0.055 0.051-0.159-0.313-0.34-0.596-0.46-0.924-0.15-0.415-0.371-0.807-0.587-1.196-0.302-0.545-0.627-1.078-0.944-1.616-0.015-0.025-0.025-0.052-0.043-0.074-0.357-0.411-0.572-0.91-0.848-1.371-0.11-0.184-0.189-0.386-0.28-0.581-0.027-0.058-0.040-0.124-0.073-0.179-0.183-0.306-0.264-0.65-0.367-0.986-0.058-0.19-0.088-0.389-0.136-0.609 0.079-0.015 0.161-0.042 0.242-0.042 0.416-0.002 0.832 0.005 1.247 0.005 0.474 0 0.948 0 1.423-0.009 0.279-0.005 0.558-0.031 0.838-0.038 0.258-0.006 0.517-0.007 0.774 0.005 0.473 0.021 0.946 0.059 1.419 0.077 0.38 0.014 0.762 0.005 1.142 0.010 0.082 0.001 0.165 0.016 0.262 0.026-0.051 0.353-0.161 0.66-0.315 0.951-0.13 0.247-0.278 0.484-0.412 0.73-0.055 0.1-0.091 0.21-0.138 0.315-0.078 0.176-0.164 0.35-0.236 0.529-0.075 0.185-0.144 0.373-0.204 0.563-0.069 0.217-0.189 0.4-0.33 0.575-0.085 0.105-0.168 0.217-0.226 0.337-0.312 0.646-0.616 1.296-0.925 1.943zM19.905 26.655l-0.734-0.947c-0.146-0.257-0.299-0.507-0.43-0.768-0.106-0.211-0.187-0.434-0.274-0.655-0.052-0.133-0.038-0.258 0.031-0.391 0.244-0.471 0.475-0.948 0.711-1.423 0.192-0.384 0.383-0.769 0.578-1.152 0.059-0.114 0.125-0.227 0.202-0.329 0.272-0.358 0.465-0.753 0.59-1.187 0.075-0.261 0.157-0.524 0.267-0.773 0.159-0.36 0.34-0.71 0.522-1.060 0.203-0.394 0.411-0.786 0.628-1.174 0.23-0.411 0.475-0.815 0.709-1.226 0.109-0.192 0.207-0.391 0.307-0.589 0.168-0.332 0.337-0.663 0.499-0.998 0.056-0.115 0.093-0.24 0.139-0.36 0.013-0.034 0.017-0.071 0.033-0.103 0.217-0.451 0.436-0.901 0.661-1.365 0.467-0.039 0.909-0.077 1.361-0.114l1.429 0.153c0.126 0.028 0.223 0.046 0.317 0.072 0.216 0.061 0.429 0.094 0.657 0.051 0.148-0.028 0.254-0.087 0.328-0.213 0.267-0.451 0.532-0.902 0.713-1.397 0.054-0.147 0.124-0.295 0.221-0.415 0.11-0.137 0.196-0.281 0.265-0.44 0.031-0.071 0.075-0.138 0.12-0.201 0.148-0.21 0.276-0.433 0.233-0.696-0.028-0.176 0.020-0.306 0.12-0.436 0.045-0.058 0.121-0.114 0.048-0.23-0.1 0.010-0.213 0.014-0.323 0.033-0.269 0.046-0.535 0.108-0.804 0.15-0.496 0.077-0.993 0.148-1.491 0.213-0.455 0.060-0.912 0.109-1.369 0.161-0.057 0.005-0.118-0.006-0.16-0.009 0.238-0.646 0.484-1.265 0.696-1.897 0.12-0.359 0.285-0.687 0.508-0.99 0.085-0.116 0.171-0.231 0.255-0.347 0.078-0.106 0.057-0.174-0.073-0.194-0.176-0.026-0.356-0.060-0.533-0.053-0.458 0.018-0.916 0.057-1.374 0.086-0.042 0.002-0.087-0.001-0.127-0.014-0.223-0.070-0.451-0.077-0.682-0.070-0.553 0.016-1.105 0.032-1.658 0.049-0.027 0.001-0.055 0.012-0.085 0.018-0.020 0.16-0.039 0.314-0.062 0.493-0.003 0.269 0.017 0.638-0.389 1.289-0.096 0.244-0.192 0.482-0.28 0.721-0.046 0.127-0.071 0.261-0.109 0.39-0.036 0.123-0.064 0.252-0.187 0.327-0.023 0.015-0.048 0.040-0.053 0.065-0.038 0.181-0.168 0.187-0.315 0.179-0.121-0.007-0.244 0.009-0.366 0.001-0.134-0.008-0.268-0.032-0.401-0.049-0.036-0.005-0.070-0.018-0.106-0.020-0.444-0.018-0.889-0.052-1.333-0.049-1.443 0.011-2.887 0.033-4.329 0.058-0.337 0.006-0.674 0.040-1.011 0.074-0.33 0.032-0.656 0.025-0.987-0.014-0.318-0.037-0.644-0.014-0.966-0.016s-0.647 0.004-0.97-0.007c-0.22-0.007-0.439-0.038-0.644-0.057-0.062-0.145-0.124-0.275-0.174-0.408-0.094-0.247-0.18-0.498-0.274-0.746-0.015-0.040-0.016-0.073-0.008-0.101-0.317-0.584-0.352-1.094-0.348-1.325-0.008 0.005-0.015 0.009-0.024 0.015-0.024-0.098-0.043-0.166-0.058-0.235-0.037-0.168-0.075-0.336-0.109-0.505-0.022-0.111-0.084-0.161-0.197-0.15-0.043 0.005-0.086 0.006-0.13 0.008-0.99 0.037-1.981 0.109-2.971-0.016-0.14-0.017-0.266-0.038-0.374-0.136-0.16-0.144-0.324-0.283-0.487-0.422-0.076-0.065-0.151-0.134-0.234-0.189-0.168-0.109-0.35-0.199-0.511-0.317-0.11-0.081-0.211-0.088-0.355-0.058 0.072 0.131 0.125 0.249 0.197 0.354 0.334 0.492 0.683 0.974 1.006 1.474 0.138 0.214 0.224 0.462 0.332 0.695 0.039 0.084 0.063 0.177 0.11 0.256 0.174 0.288 0.348 0.578 0.537 0.856 0.183 0.27 0.295 0.569 0.439 0.886-0.316 0-0.606 0.003-0.897 0-0.48-0.006-0.96 0.027-1.438-0.046-0.227-0.035-0.462-0.024-0.685-0.071-0.336-0.071-0.667-0.171-0.997-0.265-0.244-0.070-0.485-0.154-0.773-0.247 0.035 0.106 0.041 0.179 0.078 0.229 0.284 0.396 0.592 0.774 0.82 1.206 0.133 0.254 0.254 0.514 0.37 0.776 0.085 0.19 0.15 0.388 0.229 0.579 0.052 0.126 0.128 0.244 0.171 0.372 0.107 0.315 0.212 0.626 0.542 0.786 0.21 0.273 0.536 0.437 0.704 0.749 0.040 0.075 0.1 0.095 0.181 0.077 0.072-0.016 0.145-0.027 0.236-0.045-0.003 0.010-0.005 0.019-0.008 0.028 0.296-0.166 0.68-0.333 1.16-0.461 0.056-0.052 0.13-0.080 0.22-0.096 0.119-0.021 0.235-0.059 0.354-0.081 0.148-0.027 0.296-0.060 0.445-0.067 0.302-0.014 0.604-0.011 0.906-0.016 0.163-0.002 0.282 0.052 0.361 0.213 0.383 0.771 0.776 1.537 1.166 2.305 0.181 0.358 0.345 0.725 0.549 1.068 0.363 0.612 0.568 1.3 0.933 1.909 0.187 0.313 0.388 0.617 0.575 0.929 0.088 0.148 0.177 0.298 0.237 0.459 0.289 0.768 0.661 1.497 1.043 2.221 0.301 0.572 0.572 1.157 0.783 1.769 0.063 0.182 0.138 0.359 0.196 0.543 0.045 0.138 0.056 0.279-0.023 0.414-0.34 0.585-0.705 1.153-1.129 1.68-0.018 0.023-0.031 0.048-0.050 0.078-0.004-0.001-0.006-0.003-0.011-0.004-0.107 0.352-0.647 1.090-0.939 1.095 0.010 0.006 0.020 0.012 0.031 0.018-0.252 0.26-0.48 0.496-0.71 0.731-0.019 0.019-0.049 0.028-0.075 0.040-0.243 0.111-0.275 0.364-0.063 0.523 0.143 0.108 0.294 0.204 0.437 0.311 0.268 0.198 0.515 0.411 0.61 0.754 0.023 0.085 0.091 0.161 0.152 0.231 0.27 0.306 0.544 0.609 0.816 0.914 0.081 0.090 0.163 0.181 0.245 0.27 0.291 0.313 0.582 0.626 0.86 0.925 0.181-0.045 0.273-0.134 0.327-0.285 0.070-0.195 0.161-0.383 0.248-0.572 0.076-0.162 0.167-0.317 0.237-0.481 0.14-0.327 0.271-0.658 0.422-1.026 0.034 0.081 0.056 0.118 0.066 0.157 0.050 0.208 0.094 0.417 0.146 0.624 0.069 0.277 0.147 0.552 0.217 0.827 0.059 0.233 0.157 0.457 0.133 0.707-0.016 0.166 0.047 0.312 0.151 0.501 0.033-0.135 0.060-0.223 0.076-0.311 0.042-0.24 0.067-0.482 0.12-0.72 0.095-0.42 0.206-0.835 0.307-1.252 0.026-0.105 0.041-0.211 0.060-0.317 0.206 0.504 0.389 1.002 0.55 1.507 0.055 0.172 0.158 0.296 0.285 0.445 0.096-0.080 0.187-0.147 0.267-0.225 0.155-0.15 0.305-0.305 0.455-0.459 0.2-0.205 0.398-0.411 0.594-0.619 0.029-0.030 0.047-0.071 0.068-0.108 0.040-0.064 0.075-0.132 0.121-0.192 0.053-0.067 0.118-0.125 0.174-0.19 0.169-0.193 0.346-0.378 0.487-0.598 0.114-0.177 0.296-0.309 0.448-0.462 0.036-0.036 0.095-0.071 0.097-0.109 0.009-0.151 0.132-0.215 0.216-0.306 0.121-0.13 0.254-0.246 0.402-0.388-0.223-0.158-0.442-0.297-0.642-0.461-0.202-0.165-0.356-0.378-0.543-0.581z"></path>
<path d="M30.097 14.812c-0.285-0.097-0.594-0.043-0.881-0.15-0.12-0.045-0.272-0.014-0.407-0.003-0.129 0.011-0.236-0.026-0.346-0.088-0.155-0.088-0.308-0.177-0.499-0.182-0.13-0.004-0.217-0.083-0.25-0.223-0.052-0.224-0.114-0.446-0.183-0.666-0.333-0.074-1.107-0.117-1.479-0.118 0.038 0.141 0.078 0.162 0.115 0.304 0.084 0.319 0.185 0.635 0.242 0.958 0.045 0.26 0.035 0.529 0.045 0.793 0.001 0.040-0.026 0.081-0.034 0.123-0.021 0.111-0.041 0.223-0.055 0.336-0.024 0.206-0.038 0.413-0.065 0.618-0.031 0.233-0.067 0.467-0.108 0.7-0.068 0.393-0.142 0.785-0.217 1.177-0.016 0.084-0.039 0.168-0.070 0.248-0.079 0.206-0.19 0.4-0.198 0.632-0.002 0.073-0.057 0.145-0.089 0.217-0.151 0.34-0.296 0.683-0.458 1.017-0.118 0.244-0.261 0.475-0.392 0.712-0.041 0.075-0.086 0.149-0.122 0.225-0.056 0.116-0.101 0.236-0.16 0.35-0.072 0.14-0.149 0.278-0.231 0.412-0.056 0.091-0.115 0.183-0.189 0.261-0.316 0.332-0.632 0.664-0.958 0.986-0.143 0.14-0.31 0.254-0.463 0.383-0.127 0.106-0.249 0.215-0.374 0.323-0.134 0.117-0.262 0.216-0.462 0.239-0.166 0.018-0.324 0.139-0.481 0.223-0.214 0.114-0.424 0.236-0.636 0.355-0.018 0.010-0.041 0.014-0.059 0.026-0.138 0.085-0.275 0.17-0.413 0.254 0.212 0.403 0.54 0.744 0.757 0.952 0.083-0.032 0.167-0.062 0.252-0.088 0.259-0.079 0.492-0.26 0.718-0.421 0.233-0.165 0.436-0.371 0.667-0.541 0.233-0.173 0.46-0.363 0.756-0.434 0.087-0.021 0.176-0.071 0.24-0.133 0.204-0.198 0.396-0.407 0.579-0.597 0.147 0.011 0.28 0.016 0.413 0.033 0.105 0.013 0.212 0.027 0.312 0.061 0.189 0.066 0.378 0.138 0.559 0.222 0.176 0.082 0.298 0.017 0.42-0.115-0.068-0.107-0.141-0.204-0.195-0.311-0.13-0.257-0.246-0.519-0.374-0.776-0.059-0.117-0.051-0.216 0.029-0.319 0.105-0.135 0.212-0.269 0.302-0.414 0.12-0.193 0.234-0.39 0.341-0.593 0.298-0.566 0.562-1.142 0.724-1.762 0.011-0.042 0.035-0.079 0.048-0.12 0.047-0.141 0.095-0.284 0.14-0.426 0.088-0.273 0.177-0.545 0.259-0.82 0.045-0.151 0.065-0.309 0.113-0.459 0.128-0.395 0.25-0.796 0.276-1.207 0.021-0.316 0.232-0.517 0.338-0.777 0.009-0.023 0.040-0.042 0.066-0.054 0.27-0.13 0.511-0.319 0.821-0.365 0.109-0.016 0.212-0.083 0.315-0.132 0.394-0.188 0.72-0.504 1.162-0.6 0.060-0.013 0.113-0.060 0.176-0.096-0.119-0.053-0.225-0.111-0.339-0.15z"></path>
</svg>
