<?xml version="1.0" encoding="UTF-8" standalone="no"?>
<!-- Created with Inkscape (http://www.inkscape.org/) -->

<svg
   xmlns:dc="http://purl.org/dc/elements/1.1/"
   xmlns:cc="http://creativecommons.org/ns#"
   xmlns:rdf="http://www.w3.org/1999/02/22-rdf-syntax-ns#"
   xmlns:svg="http://www.w3.org/2000/svg"
   xmlns="http://www.w3.org/2000/svg"
   xmlns:sodipodi="http://sodipodi.sourceforge.net/DTD/sodipodi-0.dtd"
   xmlns:inkscape="http://www.inkscape.org/namespaces/inkscape"
   width="10.409328mm"
   height="10.024357mm"
   viewBox="0 0 10.409328 10.024357"
   version="1.1"
   id="svg7306"
   inkscape:version="0.92.5 (2060ec1f9f, 2020-04-08)"
   sodipodi:docname="beasts-of-chaos.svg">
  <defs
     id="defs7300">
    <clipPath
       clipPathUnits="userSpaceOnUse"
       id="clipPath6503">
      <path
         d="m 173.488,558.782 h 29.526 v 28.416 h -29.526 z"
         id="path6501"
         inkscape:connector-curvature="0" />
    </clipPath>
  </defs>
  <sodipodi:namedview
     id="base"
     pagecolor="#ffffff"
     bordercolor="#666666"
     borderopacity="1.0"
     inkscape:pageopacity="0.0"
     inkscape:pageshadow="2"
     inkscape:zoom="0.35"
     inkscape:cx="85.385472"
     inkscape:cy="136.08653"
     inkscape:document-units="mm"
     inkscape:current-layer="layer1"
     showgrid="false"
     fit-margin-top="0"
     fit-margin-left="0"
     fit-margin-right="0"
     fit-margin-bottom="0"
     inkscape:window-width="1920"
     inkscape:window-height="1017"
     inkscape:window-x="-8"
     inkscape:window-y="-8"
     inkscape:window-maximized="1" />
  <metadata
     id="metadata7303">
    <rdf:RDF>
      <cc:Work
         rdf:about="">
        <dc:format>image/svg+xml</dc:format>
        <dc:type
           rdf:resource="http://purl.org/dc/dcmitype/StillImage" />
        <dc:title></dc:title>
      </cc:Work>
    </rdf:RDF>
  </metadata>
  <g
     inkscape:label="Layer 1"
     inkscape:groupmode="layer"
     id="layer1"
     transform="translate(-83.241761,-174.81521)">
    <g
       transform="matrix(0.35277777,0,0,-0.35277777,22.037406,381.96543)"
       id="g6497">
      <g
         id="g6499"
         clip-path="url(#clipPath6503)">
        <g
           id="g6505"
           transform="translate(194.2746,575.0405)">
          <path
             d="m 0,0 c -0.102,-0.038 -0.167,-0.064 -0.234,-0.088 -0.217,-0.079 -0.416,-0.182 -0.575,-0.359 -0.148,-0.165 -0.312,-0.315 -0.47,-0.471 -0.101,-0.1 -0.201,-0.198 -0.342,-0.251 -0.133,-0.049 -0.193,-0.18 -0.165,-0.291 0.042,-0.164 0.198,-0.305 0.37,-0.311 0.127,-0.005 0.258,0.004 0.383,0.027 0.065,0.012 0.132,0.058 0.179,0.107 0.103,0.108 0.193,0.229 0.291,0.342 0.026,0.031 0.062,0.058 0.1,0.073 0.281,0.115 0.349,0.207 0.339,0.515 -0.006,0.196 0.002,0.385 0.094,0.564 0.018,0.035 0.018,0.08 0.03,0.143 m -9.543,-1.72 c 0.036,-0.047 0.077,-0.096 0.116,-0.147 0.077,-0.102 0.177,-0.147 0.302,-0.109 0.129,0.04 0.201,0.131 0.218,0.266 0.008,0.056 0.003,0.116 0.022,0.168 0.052,0.137 0.028,0.263 -0.072,0.358 -0.153,0.147 -0.241,0.335 -0.361,0.503 -0.043,0.059 -0.112,0.111 -0.18,0.139 -0.146,0.062 -0.283,0.117 -0.355,0.28 -0.049,0.111 -0.183,0.159 -0.292,0.133 -0.124,-0.03 -0.215,-0.111 -0.222,-0.235 -0.011,-0.22 -0.03,-0.444 0.057,-0.658 0.037,-0.093 0.071,-0.188 0.102,-0.283 0.095,-0.29 0.357,-0.457 0.665,-0.415 m 9.412,-0.177 c -0.151,-0.087 -0.253,-0.146 -0.355,-0.205 -0.047,-0.028 -0.096,-0.055 -0.142,-0.086 -0.053,-0.035 -0.108,-0.07 -0.152,-0.114 -0.092,-0.09 -0.173,-0.19 -0.266,-0.28 -0.163,-0.16 -0.338,-0.31 -0.496,-0.476 -0.06,-0.063 -0.104,-0.155 -0.125,-0.241 -0.042,-0.167 -0.064,-0.339 -0.09,-0.509 -0.029,-0.196 0.021,-0.311 0.15,-0.362 0.154,-0.062 0.26,-0.022 0.383,0.142 0.017,0.023 0.035,0.044 0.078,0.097 0.047,-0.115 0.096,-0.207 0.123,-0.304 0.054,-0.191 0.133,-0.361 0.27,-0.509 0.071,-0.077 0.13,-0.174 0.166,-0.273 0.209,-0.568 0.585,-0.998 1.079,-1.335 0.148,-0.101 0.287,-0.217 0.444,-0.303 0.348,-0.19 0.721,-0.303 1.124,-0.298 0.266,0.004 0.532,-10e-4 0.798,-10e-4 0.151,0 0.298,-0.003 0.441,-0.074 0.057,-0.028 0.139,-0.012 0.208,-0.004 0.098,0.012 0.196,0.054 0.293,0.049 0.332,-0.015 0.624,0.1 0.892,0.272 0.363,0.231 0.717,0.477 1.066,0.728 0.186,0.133 0.371,0.275 0.524,0.442 0.281,0.305 0.54,0.629 0.804,0.949 0.143,0.175 0.213,0.375 0.154,0.603 -0.031,0.118 0.007,0.192 0.115,0.242 0.098,0.046 0.151,0.126 0.173,0.233 0.012,0.062 0.041,0.121 0.065,0.18 0.018,0.047 0.049,0.091 0.057,0.139 0.055,0.337 0.105,0.675 0.159,1.013 0.018,0.111 0.053,0.221 0.069,0.333 0.026,0.176 0.057,0.353 0.061,0.531 0.003,0.194 0.1,0.332 0.229,0.503 C 8.229,-1.007 8.285,-1.167 8.331,-1.33 8.458,-1.772 8.593,-2.211 8.701,-2.657 8.74,-2.82 8.721,-2.999 8.714,-3.17 8.703,-3.464 8.68,-3.758 8.664,-4.052 8.639,-4.503 8.653,-4.96 8.581,-5.403 8.529,-5.724 8.466,-6.049 8.387,-6.367 8.363,-6.464 8.337,-6.56 8.312,-6.656 8.289,-6.746 8.265,-6.836 8.242,-6.926 8.22,-7.016 8.203,-7.107 8.175,-7.195 8.12,-7.363 8.064,-7.532 8,-7.697 7.949,-7.831 7.558,-8.332 7.454,-8.431 7.4,-8.483 7.335,-8.55 7.324,-8.619 7.254,-9.036 7.003,-9.334 6.699,-9.596 6.466,-9.797 6.23,-10 5.976,-10.173 c -0.212,-0.144 -0.451,-0.249 -0.682,-0.366 -0.173,-0.088 -0.346,-0.177 -0.526,-0.249 -0.259,-0.104 -0.521,-0.2 -0.787,-0.285 -0.093,-0.03 -0.199,-0.028 -0.298,-0.026 -0.165,0.002 -0.331,0.018 -0.496,0.022 -0.063,10e-4 -0.137,0.003 -0.187,-0.027 -0.145,-0.088 -0.3,-0.091 -0.459,-0.085 -0.014,0 -0.029,0.003 -0.043,-10e-4 -0.387,-0.097 -0.716,0.065 -1.041,0.238 -0.026,0.014 -0.053,0.043 -0.075,0.039 -0.249,-0.038 -0.452,0.122 -0.684,0.157 -0.067,0.011 -0.133,0.047 -0.193,0.084 -0.097,0.059 -0.187,0.132 -0.284,0.192 -0.348,0.214 -0.699,0.423 -1.046,0.638 -0.054,0.033 -0.098,0.082 -0.145,0.126 -0.103,0.099 -0.205,0.198 -0.307,0.298 -0.041,0.04 -0.085,0.078 -0.12,0.123 -0.278,0.355 -0.743,0.384 -1.037,0.304 -0.241,-0.065 -0.298,-0.195 -0.25,-0.402 0.028,-0.117 0.013,-0.212 -0.042,-0.326 -0.042,-0.087 10e-4,-0.218 0.014,-0.329 0.008,-0.068 0.043,-0.135 0.046,-0.203 0.008,-0.223 0,-0.446 0.01,-0.668 0.009,-0.196 -0.058,-0.404 0.085,-0.58 -0.006,-0.251 0.006,-0.504 -0.024,-0.752 -0.025,-0.205 -0.096,-0.405 -0.157,-0.604 -0.017,-0.056 -0.069,-0.102 -0.109,-0.15 -0.04,-0.048 -0.107,-0.087 -0.125,-0.142 -0.059,-0.183 -0.116,-0.369 -0.148,-0.558 -0.027,-0.16 -0.054,-0.31 -0.177,-0.428 -0.03,-0.029 -0.05,-0.07 -0.067,-0.109 -0.125,-0.282 -0.243,-0.567 -0.373,-0.846 -0.11,-0.235 -0.116,-0.232 -0.377,-0.274 -0.07,-0.145 -0.144,-0.298 -0.219,-0.45 -0.016,-0.031 -0.039,-0.06 -0.063,-0.086 -0.082,-0.089 -0.173,-0.111 -0.248,-0.06 -0.084,0.058 -0.093,0.141 -0.063,0.23 0.039,0.116 0.077,0.231 0.123,0.344 0.035,0.084 0.052,0.156 -0.006,0.242 -0.059,0.089 -0.05,0.187 -0.003,0.287 0.054,0.117 0.101,0.238 0.138,0.361 0.034,0.116 0.048,0.224 -0.038,0.345 -0.064,0.09 -0.08,0.228 -0.082,0.345 -0.008,0.518 -0.005,1.036 -10e-4,1.553 10e-4,0.152 -0.018,0.283 -0.169,0.365 -0.093,0.051 -0.085,0.154 -0.104,0.247 -0.123,0.608 -0.056,1.222 -0.078,1.834 -0.003,0.096 -0.041,0.19 -0.065,0.285 -0.009,0.035 -0.026,0.068 -0.032,0.102 -0.054,0.332 -0.108,0.663 -0.162,0.994 -0.003,0.019 -0.017,0.036 -0.037,0.079 -0.034,-0.051 -0.071,-0.084 -0.081,-0.124 -0.022,-0.098 -0.042,-0.198 -0.046,-0.297 -0.02,-0.453 -0.034,-0.905 -0.051,-1.358 0,-0.028 -0.004,-0.056 -0.006,-0.082 -0.067,-0.044 -0.15,-0.073 -0.186,-0.131 -0.034,-0.054 -0.021,-0.139 -0.021,-0.21 -0.002,-0.28 0,-0.561 0,-0.841 -10e-4,-0.337 -0.067,-0.398 -0.411,-0.352 0,-0.109 0,-0.215 0,-0.322 0,-0.244 0,-0.489 -0.001,-0.733 0,-0.167 -0.013,-0.331 -0.147,-0.458 0.113,-0.188 0.135,-0.385 0.128,-0.59 -0.005,-0.136 -0.01,-0.274 0.003,-0.409 0.011,-0.119 0.045,-0.236 0.073,-0.353 0.013,-0.056 0.033,-0.11 0.051,-0.164 0.032,-0.101 0.063,-0.202 0.097,-0.302 0.06,-0.174 0.154,-0.345 0.173,-0.524 0.023,-0.228 0.027,-0.475 -0.186,-0.664 -0.142,0.1 -0.217,0.247 -0.292,0.388 -0.073,0.139 -0.124,0.29 -0.189,0.433 -0.026,0.058 -0.055,0.122 -0.101,0.164 -0.292,0.269 -0.409,0.636 -0.556,0.985 -0.148,0.35 -0.288,0.704 -0.423,1.059 -0.053,0.139 -0.083,0.287 -0.122,0.431 -0.005,0.02 -0.009,0.049 10e-4,0.062 0.137,0.181 0.048,0.39 0.076,0.584 0.004,0.027 0.005,0.068 -0.011,0.083 -0.129,0.123 -0.083,0.282 -0.084,0.427 -0.004,0.704 -0.003,1.409 -0.003,2.113 v 0.24 c -0.231,-0.072 -0.316,0.116 -0.443,0.21 -0.125,0.092 -0.212,0.234 -0.326,0.365 -0.032,-0.053 -0.064,-0.105 -0.105,-0.171 -0.289,0.115 -0.486,-0.05 -0.686,-0.222 -0.272,-0.233 -0.555,-0.453 -0.829,-0.684 -0.164,-0.138 -0.323,-0.283 -0.479,-0.431 -0.071,-0.067 -0.14,-0.11 -0.242,-0.121 -0.096,-0.01 -0.195,-0.047 -0.28,-0.096 -0.161,-0.093 -0.314,-0.202 -0.469,-0.307 -0.104,-0.071 -0.216,-0.111 -0.344,-0.103 -0.596,0.033 -1.12,-0.199 -1.636,-0.456 -0.225,-0.113 -0.444,-0.2 -0.69,-0.051 -0.103,0.063 -0.219,0.045 -0.335,0.011 -0.093,-0.028 -0.191,-0.043 -0.288,-0.054 -0.164,-0.018 -0.328,-0.035 -0.493,-0.04 -0.367,-0.011 -0.729,0.008 -1.054,0.217 -0.057,0.036 -0.132,0.063 -0.198,0.061 -0.401,-0.011 -0.688,0.196 -0.948,0.468 -0.109,0.114 -0.226,0.219 -0.343,0.325 -0.025,0.022 -0.064,0.035 -0.097,0.038 -0.175,0.017 -0.311,0.094 -0.42,0.233 -0.048,0.061 -0.117,0.106 -0.173,0.161 -0.313,0.302 -0.561,0.65 -0.739,1.047 -0.044,0.098 -0.095,0.194 -0.142,0.29 -0.082,0.167 -0.154,0.335 -0.319,0.449 -0.078,0.054 -0.131,0.153 -0.176,0.241 -0.144,0.282 -0.255,0.574 -0.305,0.893 -0.04,0.26 -0.118,0.518 -0.209,0.766 -0.08,0.217 -0.151,0.43 -0.181,0.661 -0.03,0.226 -0.101,0.448 -0.136,0.674 -0.028,0.176 -0.04,0.356 -0.041,0.535 -0.002,0.222 0.013,0.445 0.025,0.667 0.012,0.231 0.002,0.457 -0.083,0.678 -0.035,0.092 -0.05,0.198 -0.045,0.296 0.021,0.415 0.071,0.83 0.079,1.246 0.008,0.435 0.13,0.85 0.188,1.276 0.014,0.105 0.045,0.187 0.152,0.24 0.08,0.04 0.144,0.115 0.221,0.179 0.118,-0.036 0.155,-0.137 0.175,-0.243 0.024,-0.127 0.049,-0.256 0.051,-0.385 0.002,-0.103 -0.028,-0.208 -0.049,-0.311 -0.02,-0.097 -0.059,-0.192 -0.068,-0.29 -0.012,-0.119 0.007,-0.231 0.162,-0.258 0.075,-0.013 0.094,-0.078 0.092,-0.15 -0.005,-0.168 0.055,-0.317 0.111,-0.475 0.082,-0.233 0.123,-0.483 0.165,-0.728 0.048,-0.287 0.138,-0.564 0.174,-0.856 0.02,-0.162 0.109,-0.321 0.107,-0.496 0,-0.028 0.004,-0.058 0.013,-0.085 0.088,-0.263 0.154,-0.537 0.272,-0.786 0.199,-0.418 0.413,-0.834 0.791,-1.13 0.132,-0.104 0.225,-0.233 0.302,-0.384 0.053,-0.103 0.148,-0.193 0.243,-0.262 0.219,-0.16 0.465,-0.287 0.672,-0.459 0.198,-0.165 0.431,-0.255 0.65,-0.375 0.046,-0.026 0.112,-0.023 0.169,-0.023 0.46,-0.002 0.92,-0.003 1.38,0 0.07,0.001 0.161,-0.004 0.206,0.035 0.116,0.101 0.245,0.099 0.383,0.105 0.073,0.003 0.151,0.036 0.218,0.073 0.205,0.114 0.407,0.232 0.608,0.354 0.151,0.093 0.299,0.191 0.446,0.291 0.094,0.065 0.175,0.157 0.277,0.201 0.38,0.161 0.666,0.441 0.954,0.72 0.016,0.015 0.027,0.038 0.045,0.046 0.311,0.146 0.465,0.437 0.654,0.697 0.165,0.228 0.355,0.431 0.6,0.58 0.095,0.058 0.168,0.154 0.259,0.24 0.152,-0.093 0.304,-0.177 0.497,-0.154 0.266,0.031 0.399,0.169 0.306,0.411 -0.063,0.162 -0.068,0.304 -0.037,0.462 0.003,0.02 -0.006,0.042 -0.005,0.033 -0.111,0.087 -0.201,0.163 -0.297,0.23 -0.165,0.116 -0.336,0.224 -0.502,0.34 -0.064,0.044 -0.117,0.103 -0.18,0.15 -0.066,0.05 -0.137,0.094 -0.206,0.14 -0.018,0.011 -0.048,0.016 -0.054,0.03 -0.098,0.279 -0.363,0.415 -0.535,0.63 -0.037,0.046 -0.053,0.11 -0.073,0.168 -0.009,0.026 0.007,0.068 -0.008,0.083 -0.136,0.137 -0.083,0.31 -0.09,0.469 -0.004,0.09 -0.029,0.157 -0.095,0.227 -0.252,0.268 -0.263,0.501 -0.065,0.81 0.036,0.056 0.059,0.131 0.059,0.198 0.004,0.46 0,0.92 -0.004,1.38 0,0.041 -0.022,0.082 -0.029,0.124 -0.013,0.07 -0.05,0.152 -0.028,0.21 0.086,0.223 -0.027,0.434 -0.017,0.651 0.011,0.223 0.011,0.446 0.014,0.669 0.001,0.02 -0.009,0.04 -0.017,0.071 -0.199,0.042 -0.4,0.087 -0.602,0.125 -0.08,0.015 -0.149,0 -0.197,-0.089 -0.08,-0.147 -0.142,-0.178 -0.291,-0.129 -0.243,0.081 -0.479,0.182 -0.721,0.268 -0.065,0.023 -0.137,0.036 -0.206,0.036 -0.127,-0.001 -0.244,0.012 -0.331,0.119 -0.051,0.062 -0.12,0.089 -0.193,0.057 -0.156,-0.071 -0.301,-0.038 -0.455,0.014 -0.215,0.072 -0.438,0.12 -0.654,0.191 -0.486,0.159 -0.953,0.363 -1.42,0.573 -0.278,0.125 -0.509,0.307 -0.754,0.474 -0.484,0.332 -0.856,0.785 -1.261,1.199 -0.552,0.564 -0.958,1.23 -1.249,1.962 -0.197,0.498 -0.394,0.998 -0.554,1.508 -0.102,0.324 -0.189,0.672 0.055,0.988 0.007,-0.002 0.017,0 0.02,-0.004 0.193,-0.231 0.407,-0.447 0.57,-0.697 0.273,-0.418 0.639,-0.716 1.072,-0.944 0.445,-0.234 0.893,-0.463 1.336,-0.699 0.114,-0.061 0.207,-0.161 0.324,-0.21 0.245,-0.104 0.465,-0.253 0.7,-0.373 0.259,-0.131 0.528,-0.252 0.821,-0.296 0.035,-0.005 0.071,-0.021 0.098,-0.042 0.158,-0.124 0.336,-0.119 0.513,-0.069 0.145,0.04 0.272,0.035 0.415,-0.026 0.163,-0.07 0.343,-0.1 0.515,-0.144 0.027,-0.007 0.063,-0.01 0.085,0.002 0.154,0.085 0.304,0.025 0.46,0.006 0.334,-0.041 0.672,-0.079 1.008,-0.02 0.105,0.019 0.207,0.056 0.308,0.092 0.129,0.046 0.19,0.018 0.22,-0.113 0.009,-0.042 0.008,-0.086 0.011,-0.129 0.004,-0.041 0.007,-0.083 0.012,-0.148 0.075,-0.003 0.145,0.003 0.211,-0.011 0.074,-0.016 0.162,-0.031 0.213,-0.079 0.091,-0.087 0.166,-0.194 0.237,-0.3 0.186,-0.275 0.527,-0.301 0.711,-0.02 0.124,0.19 0.338,0.231 0.484,0.377 0.039,0.038 0.138,0.019 0.209,0.02 0.272,0.003 0.522,0.074 0.712,0.277 0.143,0.154 0.337,0.201 0.512,0.289 0.258,0.13 0.546,0.192 0.782,0.372 0.06,0.045 0.165,0.037 0.25,0.046 0.262,0.028 0.524,0.066 0.787,0.072 0.199,0.005 0.398,-0.034 0.597,-0.053 0.124,-0.013 0.242,-10e-4 0.352,0.067 0.043,0.026 0.092,0.051 0.14,0.055 0.414,0.039 0.843,0.117 1.241,0.003 0.402,-0.115 0.802,-0.128 1.208,-0.169 0.305,-0.031 0.619,-0.075 0.899,-0.226 0.019,-0.01 0.039,-0.027 0.058,-0.027 0.277,-0.01 0.489,-0.182 0.727,-0.287 0.107,-0.047 0.207,-0.044 0.31,0.005 0.06,0.028 0.123,0.051 0.213,0.089 0.009,-0.113 0.014,-0.19 0.021,-0.267 0.01,-0.109 0.059,-0.192 0.166,-0.23 0.103,-0.037 0.204,-0.004 0.285,0.095 0.05,0.061 0.083,0.141 0.142,0.189 0.126,0.106 0.232,0.276 0.371,0.313 0.221,0.061 0.429,0.175 0.678,0.163 0.445,-0.022 0.891,10e-4 1.337,0.006 0.021,0 0.046,-0.005 0.064,0.003 0.232,0.106 0.489,0.097 0.728,0.161 0.434,0.117 0.855,0.281 1.284,0.417 0.267,0.085 0.485,0.252 0.693,0.424 0.629,0.518 1.127,1.139 1.48,1.88 0.183,0.385 0.327,0.78 0.458,1.182 0.073,0.227 0.161,0.448 0.347,0.611 0.021,0.018 0.046,0.031 0.073,0.049 C 7.31,11.904 7.428,11.661 7.538,11.414 7.557,11.373 7.551,11.318 7.547,11.27 7.528,11.02 7.499,10.771 7.487,10.52 7.477,10.312 7.487,10.103 7.484,9.895 7.48,9.66 7.512,9.42 7.404,9.196 7.383,9.152 7.379,9.097 7.379,9.048 7.375,8.745 7.237,8.48 7.155,8.199 7.077,7.927 6.962,7.673 6.819,7.432 6.677,7.192 6.518,6.962 6.364,6.728 6.242,6.543 6.115,6.361 5.995,6.174 5.96,6.121 5.92,6.06 5.914,5.999 5.891,5.755 5.704,5.66 5.528,5.552 5.467,5.515 5.403,5.482 5.347,5.437 5.084,5.227 4.827,5.011 4.562,4.804 4.45,4.716 4.332,4.628 4.204,4.569 3.91,4.437 3.612,4.315 3.309,4.206 3.142,4.146 2.962,4.125 2.789,4.082 2.735,4.069 2.676,4.053 2.633,4.02 2.495,3.915 2.342,3.872 2.172,3.862 2.095,3.857 2.015,3.835 1.946,3.802 1.797,3.729 1.655,3.648 1.476,3.69 1.436,3.7 1.367,3.677 1.341,3.645 1.21,3.486 0.995,3.515 0.839,3.411 0.81,3.393 0.722,3.423 0.689,3.458 0.523,3.631 0.423,3.635 0.27,3.432 0.229,3.376 0.178,3.325 0.124,3.282 -0.032,3.158 -0.024,2.983 -0.027,2.813 -0.029,2.651 -0.055,2.483 0.068,2.341 0.113,2.289 0.127,2.213 0.161,2.151 0.249,1.991 0.344,1.835 0.426,1.672 0.48,1.565 0.487,1.453 0.41,1.346 0.387,1.314 0.379,1.267 0.377,1.226 0.371,1.082 0.369,0.939 0.369,0.796 0.368,0.373 0.358,-0.051 0.374,-0.473 0.381,-0.664 0.301,-0.813 0.231,-0.974 0.204,-1.036 0.172,-1.105 0.175,-1.169 c 0.011,-0.22 -0.069,-0.4 -0.207,-0.563 -0.05,-0.059 -0.081,-0.133 -0.099,-0.165"
             style="fill:#fff;fill-opacity:1;fill-rule:nonzero;stroke:none"
             id="path6507"
             inkscape:connector-curvature="0" />
        </g>
      </g>
    </g>
  </g>
</svg>
