<!-- Generated by IcoMoon.io -->
<svg version="1.1" xmlns="http://www.w3.org/2000/svg" width="32" height="32" viewBox="0 0 32 32">
<title>cypher-lords</title>
<path fill="#fff" d="M15.479 31.997c-0.181-0.203-0.245-0.427-0.198-0.707 0.059-0.344 0.017-0.687-0.093-1.023-0.034-0.104-0.013-0.226-0.013-0.34-0.001-0.156 0.004-0.313 0.001-0.469-0.008-0.597-0.161-1.164-0.306-1.739-0.135-0.535-0.146-1.1-0.243-1.646-0.148-0.823-0.325-1.642-0.488-2.463-0.018-0.092-0.029-0.186-0.030-0.278-0.001-0.157-0.003-0.316 0.014-0.471 0.094-0.859-0.122-1.663-0.422-2.452-0.076-0.201-0.155-0.4-0.227-0.602-0.013-0.038-0.001-0.085-0.001-0.128 0.042 0.008 0.1 0 0.123 0.025 0.199 0.218 0.446 0.274 0.729 0.244 0.060-0.007 0.13 0.034 0.188 0.067 0.182 0.104 0.372 0.144 0.585 0.144 0.45-0.001 0.885-0.050 1.305-0.229 0.195-0.084 0.412-0.117 0.619-0.174 0.195-0.054 0.389-0.113 0.585-0.164 0.038-0.011 0.083 0.003 0.159 0.007-0.034 0.079-0.046 0.156-0.090 0.198-0.164 0.153-0.25 0.349-0.359 0.54-0.337 0.591-0.462 1.254-0.688 1.882-0.033 0.089 0.003 0.201-0.007 0.302-0.009 0.102-0.029 0.203-0.051 0.304-0.021 0.097-0.063 0.193 0.047 0.269 0.017 0.012 0.014 0.066 0.009 0.097-0.13 0.784-0.271 1.567-0.389 2.352-0.072 0.48-0.085 0.969-0.167 1.448-0.066 0.391-0.194 0.77-0.291 1.155-0.159 0.631-0.193 1.272-0.127 1.918 0.055 0.532-0.050 1.056-0.096 1.581-0.011 0.119-0.033 0.237-0.049 0.357-0.008-0.005-0.018-0.005-0.029-0.005zM24.192 13.278c0.005 0.173-0.001 0.324 0.188 0.357 0.004 0.001 0.009 0.007 0.011 0.011 0.049 0.115 0.097 0.227 0.231 0.277 0.117 0.043 0.227 0.104 0.354 0.164-0.066 0.121 0.026 0.165 0.113 0.206 0.136 0.063 0.239 0.135 0.244 0.309 0.001 0.058 0.084 0.134 0.147 0.164 0.247 0.122 0.502 0.115 0.734-0.030 0.076-0.047 0.136-0.159 0.153-0.25 0.033-0.178 0.030-0.363 0.043-0.546 0.447 0.075 0.889 0.148 1.332 0.22 0.072 0.012 0.144 0.024 0.218 0.026 0.535 0.014 1.070 0.020 1.604 0.043 0.202 0.009 0.417 0.024 0.601 0.1 0.387 0.159 0.787 0.209 1.196 0.229 0.067 0.004 0.13 0.050 0.195 0.073 0.092 0.031 0.185 0.079 0.279 0.087 0.224 0.018 0.451 0.012 0.675 0.029 0.071 0.005 0.173 0.038 0.199 0.089 0.038 0.076-0.109 0.215-0.215 0.224-0.052 0.004-0.105 0.005-0.157 0-0.654-0.063-1.296 0.042-1.937 0.156-0.644 0.114-1.303 0.176-1.93 0.35-0.962 0.268-1.939 0.43-2.923 0.577-0.164 0.025-0.323 0.087-0.485 0.126-0.070 0.017-0.147 0.030-0.215 0.018-0.054-0.009-0.101-0.060-0.151-0.092 0.033-0.039 0.075-0.076 0.098-0.121 0.034-0.064 0.087-0.14 0.075-0.201-0.041-0.21-0.096-0.42-0.165-0.622-0.085-0.245-0.298-0.332-0.531-0.214-0.155 0.079-0.273 0.071-0.396-0.050-0.156-0.153-0.316-0.303-0.481-0.445-0.056-0.049-0.134-0.081-0.207-0.105-0.209-0.067-0.424-0.118-0.629-0.193-0.121-0.045-0.231-0.119-0.345-0.184-0.17-0.097-0.334-0.209-0.511-0.292-0.294-0.138-0.59-0.273-0.896-0.383-0.59-0.212-1.181-0.422-1.782-0.603-0.22-0.067-0.469-0.035-0.699-0.077-0.38-0.069-0.761-0.149-1.132-0.253-0.148-0.042-0.303-0.136-0.404-0.25-0.185-0.211-0.344-0.448-0.49-0.69-0.059-0.097-0.066-0.229-0.079-0.349-0.004-0.033 0.046-0.088 0.084-0.105 0.26-0.125 0.515-0.092 0.774 0.021 0.122 0.054 0.258 0.109 0.388 0.109 0.792-0.003 1.564 0.127 2.334 0.296 0.164 0.035 0.33 0.073 0.496 0.072 0.224-0.001 0.417 0.072 0.612 0.165 0.591 0.279 1.195 0.538 1.778 0.833 0.267 0.135 0.505 0.332 0.745 0.514 0.052 0.039 0.084 0.14 0.081 0.212-0.011 0.252 0.079 0.325 0.328 0.294 0.168-0.021 0.302-0.051 0.357-0.231 0.003-0.024 0.042-0.034 0.094-0.068zM-0.716 14.87c0.051-0.030 0.101-0.081 0.156-0.088 0.275-0.033 0.552-0.054 0.827-0.081 0.041-0.004 0.104-0.004 0.118-0.029 0.080-0.143 0.222-0.126 0.345-0.135 0.827-0.062 1.617-0.26 2.391-0.561 0.4-0.156 0.845-0.194 1.267-0.298 0.325-0.080 0.648-0.17 0.965-0.275 0.125-0.041 0.233-0.132 0.368-0.212 0.005 0.008 0.038 0.051 0.043 0.060-0.076 0.174-0.151 0.319-0.201 0.471-0.042 0.129 0.041 0.18 0.161 0.177 0.052-0.001 0.105-0.001 0.156-0.011 0.199-0.039 0.4-0.075 0.598-0.125 0.089-0.022 0.178-0.064 0.256-0.115 0.353-0.233 0.699-0.476 1.050-0.712 0.055-0.037 0.118-0.072 0.182-0.087 0.416-0.101 0.81-0.244 1.15-0.515 0.045-0.035 0.1-0.056 0.152-0.081 0.227-0.109 0.227-0.108 0.379 0.083 0.125 0.156 0.303 0.165 0.425 0.007s0.281-0.254 0.468-0.295c0.966-0.214 1.932-0.428 2.901-0.628 0.233-0.049 0.479-0.047 0.717-0.076 0.092-0.011 0.184-0.037 0.273-0.067 0.327-0.11 0.652-0.226 1.019-0.354-0.038 0.115-0.054 0.202-0.093 0.275-0.168 0.308-0.338 0.615-0.518 0.917-0.087 0.146-0.231 0.256-0.248 0.445-0.003 0.031-0.085 0.075-0.134 0.080-0.759 0.085-1.515 0.193-2.269 0.328-0.546 0.097-1.070 0.283-1.619 0.348-0.549 0.066-1.049 0.271-1.539 0.514-0.106 0.052-0.227 0.077-0.342 0.111-0.632 0.186-1.166 0.542-1.655 0.97-0.178 0.156-0.404 0.273-0.477 0.527-0.003 0.009-0.011 0.018-0.018 0.025-0.228 0.235-0.227 0.273 0 0.514 0.058 0.062 0.125 0.115 0.168 0.186 0.026 0.043 0.014 0.109 0.020 0.164-0.052 0.005-0.122 0.034-0.153 0.011-0.148-0.106-0.312-0.117-0.481-0.098-0.325 0.034-0.587-0.067-0.779-0.338-0.083-0.118-0.201-0.172-0.342-0.144-0.547 0.106-1.032-0.017-1.505-0.313-0.37-0.231-0.799-0.292-1.243-0.328-0.684-0.054-1.385-0.029-2.050-0.262-0.214-0.075-0.421-0.034-0.624 0.060-0.070 0.033-0.156 0.028-0.235 0.041-0.012-0.026-0.020-0.055-0.029-0.083zM14.058 10.401c0.159-0.359 0.309-0.704 0.464-1.048 0.167-0.368 0.247-0.757 0.262-1.158 0.014-0.387 0.029-0.768 0.165-1.145 0.073-0.203 0.037-0.446 0.055-0.67 0.052-0.674 0.115-1.348 0.157-2.022 0.069-1.113 0.123-2.229 0.189-3.343 0.016-0.266 0.043-0.532 0.077-0.797 0.009-0.076 0.060-0.147 0.093-0.222 0.016 0.001 0.031 0.003 0.046 0.004 0.014 0.056 0.035 0.111 0.041 0.168 0.094 1.070 0.186 2.141 0.279 3.211 0.003 0.031-0.003 0.067 0.011 0.093 0.226 0.451 0.184 0.952 0.275 1.427 0.19 0.976 0.222 1.976 0.472 2.94 0.111 0.431 0.205 0.863 0.277 1.303 0.049 0.298 0.203 0.577 0.309 0.865 0.035 0.097 0.085 0.193 0.101 0.294 0.020 0.123-0.054 0.185-0.18 0.172-0.030-0.004-0.063-0.011-0.090-0.024-0.346-0.16-0.712-0.146-1.081-0.126-0.298 0.016-0.597 0.011-0.894 0.021-0.076 0.003-0.169 0.001-0.226 0.042-0.165 0.123-0.338 0.126-0.523 0.081-0.088-0.022-0.174-0.043-0.281-0.068zM15.046 19.055c-0.088 0-0.168-0.025-0.214 0.004-0.182 0.114-0.355 0.064-0.526-0.008-0.25-0.106-0.492-0.235-0.744-0.337-0.271-0.109-0.548-0.203-0.826-0.295-0.812-0.271-1.63-0.523-2.396-0.913-0.135-0.068-0.277-0.123-0.417-0.184-0.256-0.11-0.501-0.231-0.691-0.45-0.090-0.105-0.218-0.178-0.333-0.261-0.312-0.222-0.627-0.439-0.938-0.661-0.206-0.147-0.211-0.476 0.008-0.61 0.354-0.214 0.716-0.413 1.084-0.599 0.359-0.182 0.729-0.34 1.096-0.507 0.081-0.037 0.163-0.076 0.248-0.097 0.054-0.013 0.114 0.008 0.172 0.014-0.007 0.063 0.007 0.139-0.024 0.185-0.071 0.104-0.168 0.186-0.245 0.286-0.215 0.277-0.426 0.556-0.636 0.837-0.077 0.104-0.041 0.176 0.079 0.211 0.066 0.018 0.131 0.043 0.198 0.049 0.379 0.026 0.679 0.216 0.974 0.437 0.645 0.48 1.32 0.897 2.128 1.069 0.521 0.111 1.028 0.282 1.542 0.426 0.172 0.049 0.268 0.159 0.302 0.342 0.028 0.147 0.093 0.287 0.149 0.427 0.087 0.214 0.1 0.425 0.008 0.635zM9.184 19.057c-0.013-0.161-0.043-0.325-0.033-0.485 0.009-0.123 0.062-0.248 0.11-0.365 0.049-0.115 0.121-0.093 0.21-0.026 0.199 0.148 0.397 0.306 0.615 0.424 0.32 0.172 0.59 0.395 0.835 0.658 0.077 0.083 0.188 0.144 0.294 0.188 0.165 0.067 0.292 0.165 0.354 0.333 0.051 0.14-0.004 0.231-0.151 0.243-0.287 0.022-0.477 0.174-0.591 0.427-0.21 0.464-0.555 0.801-1.006 1.019-0.324 0.157-0.595 0.372-0.822 0.645-0.438 0.526-0.926 1.001-1.452 1.437-0.379 0.315-0.7 0.674-0.93 1.116-0.104 0.199-0.231 0.387-0.355 0.574-0.026 0.039-0.089 0.055-0.136 0.081-0.020-0.051-0.052-0.101-0.056-0.153-0.003-0.043 0.024-0.089 0.043-0.132 0.104-0.235 0.216-0.466 0.308-0.704 0.031-0.083 0.012-0.186 0.016-0.279 0.003-0.049-0.007-0.105 0.014-0.146 0.198-0.368 0.374-0.753 0.608-1.096 0.288-0.424 0.526-0.867 0.709-1.343 0.075-0.194 0.172-0.382 0.27-0.567 0.172-0.319 0.286-0.65 0.295-1.016 0.005-0.193 0.201-0.33 0.387-0.269 0.132 0.043 0.219 0.008 0.294-0.105 0.174-0.269 0.185-0.291 0.169-0.459zM15.565 11.629c0.071 0.105 0.142 0.182 0.184 0.274 0.247 0.532 0.501 1.061 0.725 1.602 0.123 0.298 0.231 0.611 0.274 0.928 0.037 0.262-0.003 0.547-0.060 0.809-0.127 0.58-0.232 1.168-0.59 1.673-0.176 0.247-0.287 0.53-0.344 0.837-0.043 0.24-0.138 0.471-0.216 0.704-0.014 0.045-0.058 0.080-0.118 0.161-0.067-0.189-0.136-0.334-0.168-0.486-0.11-0.527-0.308-1.021-0.519-1.512-0.051-0.121-0.093-0.244-0.144-0.366-0.526-1.256-0.283-2.415 0.442-3.513 0.223-0.338 0.433-0.679 0.535-1.112zM20.534 14.288c0.079 0.039 0.128 0.063 0.177 0.089 0.525 0.273 1.045 0.552 1.574 0.814 0.513 0.256 0.932 0.635 1.382 0.989-0.328 0.219-0.625 0.471-0.968 0.632-0.546 0.26-1.117 0.469-1.685 0.678-0.136 0.050-0.308 0.034-0.458 0.009-0.205-0.034-0.38 0.026-0.565 0.089-0.325 0.113-0.653 0.215-0.981 0.319-0.039 0.012-0.083 0.009-0.125 0.012-0.22 0.013-0.258 0.052-0.222 0.273 0.021 0.128-0.033 0.182-0.146 0.214-0.236 0.067-0.481 0.118-0.704 0.218-0.561 0.25-1.189 0.233-1.753 0.462-0.026 0.011-0.064 0.011-0.092 0.003-0.142-0.046-0.304-0.375-0.244-0.514 0.087-0.202 0.181-0.4 0.281-0.595 0.081-0.16 0.232-0.245 0.397-0.285 0.64-0.155 1.284-0.298 1.924-0.45 0.396-0.094 0.797-0.178 1.183-0.306 0.492-0.163 0.973-0.357 1.453-0.551 0.202-0.081 0.391-0.199 0.586-0.299 0.127-0.064 0.114-0.14 0.028-0.235-0.307-0.33-0.611-0.662-0.917-0.993-0.071-0.076-0.146-0.135-0.093-0.269 0.030-0.076-0.016-0.181-0.033-0.304zM19.302 19.385c0.146-0.080 0.269-0.174 0.409-0.219 0.627-0.203 1.171-0.552 1.709-0.918 0.143-0.097 0.278-0.205 0.422-0.302 0.19-0.127 0.309-0.081 0.404 0.127 0.215 0.471 0.236 0.983 0.349 1.477 0.169 0.73 0.312 1.466 0.601 2.172 0.321 0.785 0.543 1.613 0.814 2.418 0.056 0.167 0.148 0.32 0.216 0.484 0.063 0.151 0.115 0.307 0.173 0.46-0.017 0.011-0.033 0.021-0.050 0.031-0.039-0.039-0.084-0.073-0.115-0.117-0.287-0.413-0.561-0.835-0.859-1.241-0.615-0.835-1.239-1.663-1.867-2.488-0.090-0.118-0.229-0.198-0.338-0.304-0.307-0.3-0.608-0.607-0.915-0.907-0.062-0.060-0.143-0.101-0.215-0.151-0.034-0.024-0.075-0.039-0.102-0.068-0.274-0.295-0.273-0.295-0.635-0.455zM9.052 11.731c-0.021-0.142-0.035-0.248-0.054-0.355-0.051-0.309-0.069-0.629-0.165-0.924-0.198-0.615-0.295-1.25-0.435-1.877-0.155-0.69-0.311-1.378-0.472-2.067-0.030-0.126-0.081-0.248-0.128-0.368-0.072-0.18-0.147-0.358-0.227-0.534-0.058-0.127-0.063-0.241 0.069-0.344 0.022 0.037 0.049 0.079 0.071 0.122 0.712 1.349 1.553 2.621 2.376 3.902 0.142 0.222 0.344 0.406 0.528 0.597 0.27 0.278 0.555 0.54 0.825 0.818 0.139 0.144 0.114 0.21-0.083 0.269-0.075 0.022-0.155 0.041-0.231 0.034-0.22-0.020-0.379 0.077-0.525 0.231-0.126 0.132-0.266 0.25-0.401 0.374-0.123 0.111-0.275 0.127-0.384 0.014-0.232-0.243-0.431-0.092-0.641 0.018-0.031 0.017-0.058 0.042-0.123 0.089zM25.026 6.795c-0.051 0.094-0.102 0.189-0.155 0.282-0.062 0.11-0.134 0.214-0.186 0.328-0.093 0.202-0.173 0.41-0.264 0.614-0.087 0.195-0.165 0.397-0.274 0.581-0.393 0.667-0.801 1.327-1.107 2.043-0.062 0.144-0.151 0.277-0.199 0.424-0.058 0.176-0.083 0.362-0.128 0.542-0.020 0.076-0.038 0.173-0.092 0.212-0.035 0.026-0.146-0.016-0.202-0.056-0.244-0.177-0.511-0.287-0.81-0.315-0.237-0.022-0.421-0.113-0.518-0.344-0.054-0.126-0.155-0.185-0.292-0.207-0.186-0.029-0.37-0.071-0.551-0.122-0.063-0.018-0.113-0.081-0.168-0.125 0.045-0.046 0.081-0.106 0.135-0.136 0.325-0.18 0.656-0.35 0.982-0.53 0.509-0.279 0.955-0.641 1.381-1.035 0.763-0.703 1.534-1.398 2.304-2.095 0.034-0.031 0.075-0.056 0.111-0.084 0.011 0.008 0.021 0.016 0.033 0.024z"></path>
</svg>
