<svg id="SvgjsSvg1012" width="288" height="288" xmlns="http://www.w3.org/2000/svg" version="1.1" xmlns:xlink="http://www.w3.org/1999/xlink" xmlns:svgjs="http://svgjs.com/svgjs"><defs id="SvgjsDefs1013"></defs><g id="SvgjsG1014"><svg xmlns="http://www.w3.org/2000/svg" width="288" height="288" viewBox="0 0 32 32"><path d="M16.132 31.821c.281-.195.281-.238-.022-.238-.195 0-.411-.151-.498-.325-.065-.173-.022-.325.087-.325.13 0 .216.108.216.216 0 .13.108.216.216.216.389 0 .216-.368-.303-.606-.389-.173-.627-.649-1.103-2.142-.325-1.038-.779-2.509-1.017-3.266l-.433-1.384.562-.584c.865-.909.735-1.687-.433-2.423l-.735-.454-1.622.498c-.887.26-1.666.433-1.709.389s.173-.844.476-1.774c.433-1.363.498-1.774.303-2.206-.325-.692-1.168-.887-2.228-.541-.714.238-1.017.238-1.666.022-1.622-.562-2.639-.995-2.639-1.146 0-.108-.389-.173-.887-.173-.779 0-2.142-.541-2.142-.865 0-.216 2.055-1.06 3.137-1.298.606-.13 1.406-.389 1.795-.562 1.125-.519 2.206-.649 2.206-.26 0 1.038 1.644.973 2.444-.087l.433-.562-.584-1.471c-.325-.8-.498-1.536-.411-1.622.108-.108.562-.043 1.038.13 1.168.411 1.947.389 2.661-.043 1.255-.779 1.449-1.493.606-2.336l-.541-.541.562-1.341c.303-.757.714-1.795.93-2.336s.519-1.298.692-1.666c.173-.454.433-.714.692-.714.238 0 .368.043.303.108-.195.195.649 2.682 1.493 4.413.649 1.341.714 1.622.454 1.774-.195.108-.498.433-.692.735-.346.519-.325.584.195 1.406.671 1.038 1.082 1.082 3.245.325 1.666-.584 2.293-.541 2.25.173-.022.433-.043.433-.13.065-.087-.303-.303 0-.844 1.168-.671 1.406-.714 1.666-.519 2.401.216.779.303.844.973.844.562 0 .8-.13 1.017-.519l.281-.541 1.839.649c1.017.346 2.38.844 3.028 1.082s1.493.519 1.839.627c.368.087.498.173.303.195s-.411.173-.498.346c-.065.173-.303.325-.541.325s-.476.087-.541.195c-.065.108-.584.26-1.146.346s-1.493.389-2.055.671c-1.19.606-1.73.649-2.12.195-.151-.195-.627-.325-1.103-.325-.757 0-.887.087-1.211.757-.346.735-.346.822.108 2.098.281.757.692 1.557.909 1.795.519.541.562 1.103.108 1.276-.26.087-.281.043-.065-.303s.216-.476-.022-.692c-.26-.238-.281-.216-.173.108.173.454-.411.498-.909.087-.627-.519-2.639-1.255-3.072-1.125-.216.087-.671.476-.973.887l-.584.757 1.428 1.774-.389 1.536c-.216.844-.671 2.163-1.017 2.899-.368.757-.714 1.817-.779 2.38-.087.606-.281 1.017-.476 1.06-.281.087-.281.065 0-.13zM17.278 18.561c1.103-.325 2.033-1.276 2.25-2.293l.151-.8.151.757c.108.562.151.433.13-.584-.022-.757-.108-1.363-.173-1.363s-.281-.389-.454-.844c-1.038-2.639-5.494-2.726-6.576-.13-.476 1.168-.389 2.942.195 3.807 1.038 1.557 2.423 2.012 4.326 1.449zM13.211 30.501c.065-.108.173-.216.238-.216s.043.108-.022.216c-.065.13-.173.216-.238.216s-.043-.087.022-.216z" fill="#ffffff" class="color000 svgShape"></path><path d="M19.074 30.48c.108-.173.043-.216-.173-.13-.281.087-.303 0-.151-.562.325-1.276.735-2.315.887-2.315.108 0 .173-.195.173-.433s.303-1.06.649-1.817c.735-1.536.909-1.644 2.834-1.644h1.211l.195-1.557.195-1.579 2.055-1.017c1.125-.562 2.271-1.017 2.531-1.038.26 0 .541-.087.606-.216.498-.8 1.211.433.757 1.298-.325.627-.498.433-.238-.281.173-.454.151-.541-.087-.454-.151.065-.346.325-.411.584-.065.281-.454.865-.887 1.341-.584.649-.757 1.017-.692 1.471.043.325 0 .649-.108.714-.087.065-.173.519-.173 1.017 0 .671.065.822.216.584s.216-.087.216.541c0 .627-.065.779-.216.541-.13-.195-.216-.216-.216-.065 0 .13.108.325.216.389.13.065.195.389.195.714-.022.389-.065.454-.13.195-.087-.368-.13-.368-.346-.065-.195.26-.909.389-2.704.541l-2.444.195-1.622 1.233c-.887.671-1.687 1.384-1.774 1.579s-.281.389-.433.433c-.173.022-.238-.043-.13-.195zM12.26 29.766c-.195-.238-.195-.325.022-.411.151-.065.043-.13-.238-.13-.281-.022-1.06-.454-1.709-.995l-1.168-.973h-1.774c-.952 0-2.12-.065-2.574-.13l-.8-.151v-1.125c0-3.028-.195-3.677-1.644-5.689-1.038-1.471-1.298-1.947-1.082-2.142.195-.216.433-.195 1.103.151.476.216 1.709.8 2.747 1.276 2.033.93 2.293 1.255 2.055 2.682-.173 1.125.195 1.428 1.904 1.493l1.493.065.584 1.103c.303.606.735 1.579.973 2.163.216.584.541 1.19.735 1.341.281.238.281.26 0 .13-.26-.13-.281-.087-.043.151.13.151.26.454.26.671s.13.389.281.389c.173 0 .151.087-.065.216-.454.303-.779.26-1.06-.087zM31.166 15.575c.065-.108.173-.216.238-.216s.043.108-.022.216c-.065.13-.173.216-.238.216s-.043-.087.022-.216z" fill="#ffffff" class="color000 svgShape"></path></svg></g></svg>