<?xml version="1.0" encoding="UTF-8" standalone="no"?>
<!-- Created with Inkscape (http://www.inkscape.org/) -->

<svg
   xmlns:dc="http://purl.org/dc/elements/1.1/"
   xmlns:cc="http://creativecommons.org/ns#"
   xmlns:rdf="http://www.w3.org/1999/02/22-rdf-syntax-ns#"
   xmlns:svg="http://www.w3.org/2000/svg"
   xmlns="http://www.w3.org/2000/svg"
   xmlns:sodipodi="http://sodipodi.sourceforge.net/DTD/sodipodi-0.dtd"
   xmlns:inkscape="http://www.inkscape.org/namespaces/inkscape"
   width="9.4152689mm"
   height="9.5550032mm"
   viewBox="0 0 9.4152689 9.5550032"
   version="1.1"
   id="svg7538"
   inkscape:version="0.92.5 (2060ec1f9f, 2020-04-08)"
   sodipodi:docname="khorne-demons.svg">
  <defs
     id="defs7532">
    <clipPath
       clipPathUnits="userSpaceOnUse"
       id="clipPath6591">
      <path
         d="m 176.018,472.234 h 26.802 v 27.155 h -26.802 z"
         id="path6589"
         inkscape:connector-curvature="0" />
    </clipPath>
  </defs>
  <sodipodi:namedview
     id="base"
     pagecolor="#ffffff"
     bordercolor="#666666"
     borderopacity="1.0"
     inkscape:pageopacity="0.0"
     inkscape:pageshadow="2"
     inkscape:zoom="0.35"
     inkscape:cx="69.221207"
     inkscape:cy="32.342421"
     inkscape:document-units="mm"
     inkscape:current-layer="layer1"
     showgrid="false"
     fit-margin-top="0"
     fit-margin-left="0"
     fit-margin-right="0"
     fit-margin-bottom="0"
     inkscape:window-width="1920"
     inkscape:window-height="1017"
     inkscape:window-x="-8"
     inkscape:window-y="-8"
     inkscape:window-maximized="1" />
  <metadata
     id="metadata7535">
    <rdf:RDF>
      <cc:Work
         rdf:about="">
        <dc:format>image/svg+xml</dc:format>
        <dc:type
           rdf:resource="http://purl.org/dc/dcmitype/StillImage" />
        <dc:title></dc:title>
      </cc:Work>
    </rdf:RDF>
  </metadata>
  <g
     inkscape:label="Layer 1"
     inkscape:groupmode="layer"
     id="layer1"
     transform="translate(-87.518556,-147.8356)">
    <g
       transform="matrix(0.35277777,0,0,-0.35277777,25.4017,323.98665)"
       id="g6585">
      <g
         id="g6587"
         clip-path="url(#clipPath6591)">
        <g
           id="g6593"
           transform="translate(183.8326,480.1741)">
          <path
             d="m 0,0 c -0.092,-0.12 -0.178,-0.219 -0.249,-0.327 -0.157,-0.242 -0.043,-0.532 0.238,-0.589 0.239,-0.049 0.479,-0.068 0.723,0.009 0.121,0.038 0.257,0.035 0.387,0.034 0.173,-0.002 0.346,-0.028 0.52,-0.03 0.785,-0.007 1.57,-0.019 2.355,-0.01 0.365,0.005 0.729,0.054 1.093,0.086 0.224,0.019 0.44,0.073 0.673,0.031 0.402,-0.072 0.809,-0.143 1.215,-0.153 0.599,-0.015 1.199,-0.054 1.799,0.059 0.312,0.059 0.643,0.015 0.965,0.019 0.514,0.006 1.028,0.012 1.542,0.02 0.237,0.003 0.43,0.088 0.524,0.318 0.088,0.217 0.036,0.408 -0.127,0.575 -0.039,0.04 -0.077,0.101 -0.08,0.154 -0.01,0.271 -0.153,0.45 -0.369,0.596 C 11.052,0.898 10.881,1.003 10.768,1.149 10.503,1.491 10.246,1.844 10.027,2.216 9.707,2.76 9.259,3.176 8.793,3.583 8.504,3.834 8.226,4.097 7.945,4.358 7.836,4.458 7.742,4.577 7.626,4.667 7.471,4.788 7.365,4.942 7.266,5.107 7.046,5.473 6.804,5.822 6.514,6.14 6.104,6.589 5.518,6.508 5.258,5.964 5.177,5.794 5.063,5.631 4.932,5.496 4.495,5.049 4.039,4.62 3.599,4.176 3.207,3.78 2.823,3.375 2.444,2.967 2.321,2.835 2.23,2.675 2.117,2.533 2.058,2.459 1.983,2.397 1.913,2.333 1.849,2.274 1.773,2.227 1.716,2.162 1.315,1.706 0.883,1.279 0.495,0.811 0.292,0.567 0.06,0.347 -0.17,0.104 -0.108,0.066 -0.067,0.041 0,0 m 1.293,10.474 c -0.051,0.073 -0.096,0.153 -0.155,0.221 -0.932,1.074 -1.866,2.147 -2.801,3.219 -0.058,0.067 -0.102,0.172 -0.231,0.102 -0.023,-0.012 -0.089,0.036 -0.122,0.07 -0.168,0.172 -0.366,0.253 -0.61,0.244 -0.278,-0.011 -0.555,0.008 -0.828,-0.085 -0.127,-0.044 -0.276,-0.026 -0.415,-0.027 -0.619,-0.008 -1.239,-0.016 -1.858,-0.015 -0.118,0 -0.237,0.039 -0.355,0.06 -0.094,0.016 -0.187,0.044 -0.281,0.047 -0.227,0.006 -0.454,-0.007 -0.681,0.003 -0.125,0.006 -0.249,0.043 -0.396,0.07 0,0.421 0.002,0.812 -10e-4,1.203 -0.004,0.697 -0.007,1.395 -0.021,2.092 -0.003,0.182 -0.048,0.363 -0.067,0.545 -0.012,0.11 -0.012,0.222 -0.019,0.37 0.2,0.036 0.384,0.089 0.571,0.097 0.358,0.016 0.7,0.106 1.046,0.187 0.133,0.031 0.275,0.027 0.413,0.029 0.384,0.005 0.767,0.002 1.15,0.01 0.103,0.002 0.205,0.033 0.307,0.049 0.094,0.015 0.188,0.037 0.282,0.037 1.186,0.003 2.372,-0.01 3.557,0.013 0.301,0.006 0.476,-0.124 0.615,-0.338 0.216,-0.332 0.466,-0.624 0.784,-0.864 0.2,-0.152 0.368,-0.345 0.562,-0.505 0.124,-0.102 0.299,-0.152 0.396,-0.27 0.1,-0.121 0.138,-0.292 0.272,-0.399 0.135,-0.108 0.294,-0.207 0.383,-0.348 0.175,-0.279 0.461,-0.427 0.679,-0.649 0.34,-0.345 0.641,-0.727 0.962,-1.091 0.138,-0.156 0.272,-0.314 0.478,-0.396 0.073,-0.029 0.122,-0.12 0.181,-0.184 0.122,-0.133 0.257,-0.211 0.443,-0.1 0.043,-0.053 0.076,-0.129 0.129,-0.148 0.055,-0.02 0.131,0.025 0.197,0.024 0.204,-0.003 0.394,0.014 0.566,0.15 0.12,0.094 0.211,0.196 0.284,0.332 0.12,0.223 0.266,0.413 0.545,0.486 0.147,0.038 0.272,0.181 0.393,0.292 0.417,0.383 0.828,0.772 1.241,1.16 0.102,0.095 0.212,0.185 0.295,0.295 0.211,0.283 0.464,0.516 0.738,0.737 0.18,0.145 0.324,0.336 0.481,0.51 0.111,0.122 0.227,0.242 0.321,0.377 0.184,0.264 0.355,0.537 0.529,0.807 0.174,0.269 0.244,0.322 0.531,0.188 0.327,-0.153 0.659,-0.14 0.997,-0.143 0.279,-0.003 0.558,-0.002 0.837,-0.003 0.052,0 0.107,0.005 0.156,-0.009 0.635,-0.181 1.284,-0.071 1.926,-0.103 0.009,-0.001 0.018,-0.001 0.027,0.002 0.632,0.193 1.281,0.064 1.922,0.1 0.208,0.011 0.418,10e-4 0.666,10e-4 0.172,-0.306 0.368,-0.624 0.53,-0.959 0.056,-0.115 0.027,-0.271 0.038,-0.409 0.016,-0.222 0.036,-0.444 0.049,-0.666 0.003,-0.06 0.012,-0.144 -0.021,-0.177 -0.132,-0.132 -0.087,-0.292 -0.09,-0.444 -0.004,-0.235 -0.003,-0.47 0.003,-0.706 0.001,-0.086 0.005,-0.177 0.035,-0.256 0.129,-0.337 0.063,-0.647 -0.058,-0.976 -0.109,-0.298 -0.304,-0.331 -0.566,-0.329 -0.277,0.002 -0.555,-0.024 -0.833,-0.037 -0.035,-0.002 -0.073,-0.009 -0.104,0.002 -0.285,0.106 -0.573,0.047 -0.862,0.026 -0.137,-0.01 -0.275,-10e-4 -0.413,-0.008 -0.057,-0.003 -0.116,-0.02 -0.171,-0.041 -0.152,-0.057 -0.297,-0.094 -0.433,0.042 -0.032,0.032 -0.093,0.047 -0.141,0.048 -0.269,0.002 -0.538,-0.007 -0.808,-0.005 -0.121,10e-4 -0.242,0.031 -0.362,0.025 -0.189,-0.008 -0.379,-0.054 -0.567,-0.05 -0.278,0.007 -0.411,-0.178 -0.564,-0.357 -0.321,-0.377 -0.647,-0.751 -0.978,-1.12 -0.325,-0.364 -0.661,-0.719 -0.989,-1.08 -0.216,-0.238 -0.427,-0.482 -0.639,-0.723 -0.022,-0.026 -0.037,-0.057 -0.065,-0.101 0.269,-0.195 0.542,-0.216 0.828,-0.07 0.118,0.06 0.234,0.057 0.301,-0.052 0.123,-0.2 0.321,-0.234 0.519,-0.256 0.441,-0.049 0.885,-0.083 1.328,-0.118 0.183,-0.015 0.366,-0.017 0.549,-0.026 0.209,-0.01 0.417,-0.025 0.618,0.064 0.068,0.03 0.155,0.024 0.232,0.023 0.358,-0.006 0.716,-0.016 1.073,-0.025 0.208,-0.005 0.408,0.007 0.617,0.062 0.307,0.081 0.634,0.092 0.953,0.126 0.276,0.03 0.554,0.042 0.83,0.077 0.199,0.025 0.35,-0.078 0.511,-0.159 0.035,-0.018 0.072,-0.058 0.08,-0.095 C 18.783,10.017 18.84,9.854 18.839,9.694 18.837,9.128 18.813,8.562 18.797,7.997 18.794,7.909 18.783,7.821 18.792,7.735 18.8,7.662 18.813,7.576 18.856,7.522 18.961,7.391 18.956,7.257 18.877,7.134 18.544,6.613 18.201,6.098 17.863,5.58 17.808,5.496 17.727,5.484 17.636,5.482 17.043,5.466 16.45,5.444 15.857,5.429 15.256,5.414 14.655,5.405 14.054,5.393 14.012,5.392 13.97,5.382 13.932,5.376 13.921,5.352 13.904,5.327 13.909,5.322 c 0.219,-0.25 0.263,-0.618 0.576,-0.812 0.134,-0.083 0.218,-0.246 0.333,-0.365 0.075,-0.078 0.127,-0.187 0.268,-0.187 0.04,0 0.098,-0.069 0.118,-0.119 C 15.305,3.587 15.47,3.402 15.719,3.288 15.78,3.26 15.836,3.212 15.881,3.161 16.056,2.966 16.221,2.763 16.396,2.57 16.477,2.481 16.57,2.402 16.665,2.329 16.866,2.175 17.057,2.014 17.17,1.781 c 0.018,-0.038 0.047,-0.073 0.078,-0.1 0.454,-0.395 0.863,-0.834 1.271,-1.275 0.092,-0.1 0.114,-0.206 0.114,-0.333 0,-1.151 0,-2.303 0.01,-3.454 0.002,-0.224 0.052,-0.447 0.073,-0.672 0.024,-0.251 0.051,-0.503 0.058,-0.756 0.014,-0.521 0.01,-1.043 0.025,-1.565 0.005,-0.159 -0.049,-0.262 -0.178,-0.347 -0.277,-0.182 -0.544,-0.379 -0.823,-0.557 -0.073,-0.047 -0.183,-0.084 -0.263,-0.066 -0.563,0.122 -1.13,0.049 -1.695,0.066 -0.589,0.017 -1.16,-0.099 -1.733,-0.21 -0.281,-0.054 -0.566,-0.087 -0.849,-0.134 -0.077,-0.013 -0.171,-0.02 -0.221,-0.068 -0.146,-0.136 -0.316,-0.124 -0.49,-0.123 -0.751,10e-4 -1.501,0.006 -2.252,-0.001 C 10.106,-7.816 9.916,-7.857 9.727,-7.879 9.571,-7.896 9.416,-7.922 9.26,-7.925 8.85,-7.932 8.44,-7.94 8.03,-7.924 c -0.347,0.013 -0.694,0.048 -1.04,0.09 -1.503,0.184 -3.011,0.079 -4.517,0.08 -0.654,0 -1.308,-0.018 -1.962,-0.017 -0.181,0 -0.363,0.029 -0.542,0.06 -0.943,0.163 -1.894,0.151 -2.841,0.109 -1.176,-0.054 -2.352,-0.062 -3.528,-0.071 -0.219,-0.001 -0.435,-0.024 -0.644,-0.186 -0.126,0.159 -0.246,0.304 -0.357,0.456 -0.02,0.028 -0.006,0.082 -0.006,0.123 -0.006,0.523 0.027,1.05 -0.027,1.568 -0.047,0.441 -0.047,0.886 -0.106,1.32 -0.067,0.486 -0.102,0.969 -0.097,1.457 0,0.034 -0.001,0.072 -0.014,0.103 -0.163,0.38 -0.089,0.777 -0.062,1.163 0.016,0.248 0.088,0.493 0.075,0.749 -0.011,0.234 -0.002,0.47 -0.002,0.719 0.475,0.203 0.833,0.576 1.214,0.913 0.192,0.17 0.329,0.402 0.496,0.603 0.183,0.22 0.376,0.432 0.556,0.654 0.313,0.385 0.629,0.767 0.923,1.166 0.269,0.365 0.517,0.752 0.873,1.036 0.343,0.274 0.606,0.623 0.927,0.916 0.03,0.027 0.045,0.069 0.082,0.126 -0.203,0.001 -0.318,0.093 -0.42,0.239 C -3.101,5.615 -3.29,5.641 -3.482,5.64 -4.319,5.637 -5.157,5.638 -5.995,5.638 c -0.375,0 -0.75,-0.001 -1.125,0.002 -0.233,0.002 -0.233,0.022 -0.271,0.252 -0.093,0.564 -0.045,1.131 -0.055,1.696 -0.013,0.758 -0.011,1.516 -0.02,2.274 -0.002,0.155 -0.025,0.31 -0.04,0.489 0.094,0.024 0.175,0.061 0.256,0.063 0.4,0.009 0.801,0.017 1.2,0.01 0.31,-0.005 0.619,-0.048 0.928,-0.047 0.51,0.003 1.021,0.034 1.532,0.04 0.339,0.004 0.678,-0.017 1.017,-0.024 0.231,-0.005 0.464,-0.054 0.693,0.03 0.038,0.015 0.086,0.008 0.13,0.006 0.442,-0.024 0.883,-0.052 1.325,-0.071 0.145,-0.007 0.293,0.026 0.436,0.01 0.41,-0.049 0.81,0.038 1.215,0.057 0.014,10e-4 0.027,0.019 0.067,0.049"
             style="fill:#fff;fill-opacity:1;fill-rule:nonzero;stroke:none"
             id="path6595"
             inkscape:connector-curvature="0" />
        </g>
      </g>
    </g>
  </g>
</svg>
