<?xml version="1.0" encoding="UTF-8" standalone="no"?>
<!-- Created with Inkscape (http://www.inkscape.org/) -->

<svg
   xmlns:dc="http://purl.org/dc/elements/1.1/"
   xmlns:cc="http://creativecommons.org/ns#"
   xmlns:rdf="http://www.w3.org/1999/02/22-rdf-syntax-ns#"
   xmlns:svg="http://www.w3.org/2000/svg"
   xmlns="http://www.w3.org/2000/svg"
   xmlns:sodipodi="http://sodipodi.sourceforge.net/DTD/sodipodi-0.dtd"
   xmlns:inkscape="http://www.inkscape.org/namespaces/inkscape"
   width="8.9612513mm"
   height="11.142968mm"
   viewBox="0 0 8.9612513 11.142968"
   version="1.1"
   id="svg7622"
   inkscape:version="0.92.5 (2060ec1f9f, 2020-04-08)"
   sodipodi:docname="khorne-humans.svg">
  <defs
     id="defs7616">
    <clipPath
       clipPathUnits="userSpaceOnUse"
       id="clipPath6815">
      <path
         d="m 216.656,513.558 h 25.438 v 31.717 h -25.438 z"
         id="path6813"
         inkscape:connector-curvature="0" />
    </clipPath>
  </defs>
  <sodipodi:namedview
     id="base"
     pagecolor="#ffffff"
     bordercolor="#666666"
     borderopacity="1.0"
     inkscape:pageopacity="0.0"
     inkscape:pageshadow="2"
     inkscape:zoom="0.35"
     inkscape:cx="-208.77964"
     inkscape:cy="-501.79956"
     inkscape:document-units="mm"
     inkscape:current-layer="layer1"
     showgrid="false"
     fit-margin-top="0"
     fit-margin-left="0"
     fit-margin-right="0"
     fit-margin-bottom="0"
     inkscape:window-width="1920"
     inkscape:window-height="1017"
     inkscape:window-x="-8"
     inkscape:window-y="-8"
     inkscape:window-maximized="1" />
  <metadata
     id="metadata7619">
    <rdf:RDF>
      <cc:Work
         rdf:about="">
        <dc:format>image/svg+xml</dc:format>
        <dc:type
           rdf:resource="http://purl.org/dc/dcmitype/StillImage" />
        <dc:title></dc:title>
      </cc:Work>
    </rdf:RDF>
  </metadata>
  <g
     inkscape:label="Layer 1"
     inkscape:groupmode="layer"
     id="layer1"
     transform="translate(-161.07295,-4.9225657)">
    <g
       transform="matrix(0.35277777,0,0,-0.35277777,84.632068,197.27601)"
       id="g6809">
      <g
         id="g6811"
         clip-path="url(#clipPath6815)">
        <g
           id="g6817"
           transform="translate(227.8066,520.1114)">
          <path
             d="m 0,0 c 0.031,-0.108 0.032,-0.197 0.076,-0.248 0.108,-0.125 0.265,-0.143 0.423,-0.15 0.171,-0.008 0.344,-0.007 0.512,-0.037 0.083,-0.015 0.158,-0.086 0.231,-0.14 0.108,-0.08 0.2,-0.218 0.316,-0.239 0.207,-0.037 0.436,-0.125 0.639,0.041 0.022,0.018 0.069,0.005 0.104,0.011 0.229,0.038 0.457,0.078 0.686,0.118 0.005,0.001 0.011,0.001 0.015,0.004 0.219,0.123 0.474,0.108 0.708,0.176 0.108,0.031 0.2,0.127 0.148,0.207 C 3.751,-0.091 3.651,0.086 3.516,0.229 3.228,0.535 3.117,0.92 3.039,1.307 2.989,1.554 2.879,1.743 2.73,1.93 2.582,2.117 2.444,2.311 2.469,2.574 2.477,2.657 2.458,2.744 2.446,2.828 2.429,2.955 2.4,3.081 2.387,3.208 2.353,3.519 2.325,3.831 2.294,4.143 2.292,4.163 2.28,4.181 2.276,4.201 2.254,4.299 2.235,4.398 2.212,4.497 2.202,4.537 2.197,4.596 2.169,4.613 2.006,4.712 1.603,4.569 1.55,4.381 1.483,4.146 1.432,3.905 1.396,3.664 1.36,3.425 1.354,3.182 1.329,2.942 1.322,2.875 1.305,2.803 1.271,2.747 1.159,2.568 1.027,2.4 0.921,2.218 0.807,2.024 0.712,1.818 0.61,1.617 0.528,1.455 0.434,1.298 0.37,1.129 0.292,0.927 0.24,0.715 0.177,0.507 0.171,0.488 0.164,0.469 0.157,0.45 0.102,0.294 0.048,0.138 0,0 m 6.355,4.315 c 0.201,0 0.388,0.006 0.586,0.089 0.199,0.083 0.433,0.081 0.651,0.117 0.03,0.005 0.059,0.014 0.088,0.022 0.218,0.058 0.435,0.124 0.655,0.173 0.199,0.046 0.403,0.074 0.604,0.111 0.015,0.002 0.03,0.008 0.044,0.014 0.148,0.061 0.301,0.113 0.443,0.186 0.174,0.088 0.364,0.168 0.505,0.297 0.345,0.315 0.607,0.703 0.865,1.091 0.105,0.159 0.218,0.315 0.3,0.485 0.095,0.196 0.164,0.406 0.234,0.613 0.016,0.048 -10e-4,0.11 -0.012,0.164 C 11.299,7.773 11.27,7.868 11.25,7.964 11.213,8.147 11.179,8.33 11.142,8.513 11.14,8.522 11.132,8.53 11.13,8.54 11.105,8.629 11.07,8.716 11.059,8.807 11.05,8.886 11.03,8.936 10.944,8.925 10.664,8.889 10.384,8.85 10.104,8.812 10.095,8.81 10.085,8.805 10.076,8.803 9.976,8.779 9.878,8.752 9.777,8.734 9.708,8.722 9.637,8.726 9.567,8.716 9.416,8.696 9.265,8.671 9.114,8.65 9.044,8.641 8.974,8.637 8.904,8.628 8.748,8.606 8.592,8.581 8.436,8.558 8.372,8.549 8.306,8.545 8.243,8.531 8.003,8.475 7.766,8.408 7.525,8.36 7.3,8.316 7.071,8.291 6.844,8.257 6.829,8.254 6.816,8.245 6.802,8.241 6.585,8.179 6.366,8.124 6.152,8.054 6.005,8.007 5.86,7.948 5.722,7.88 5.536,7.788 5.361,7.653 5.139,7.732 4.897,7.818 4.685,7.698 4.501,7.603 4.219,7.456 3.974,7.238 3.716,7.047 3.583,6.948 3.586,6.727 3.711,6.635 3.969,6.444 4.075,6.173 4.123,5.864 4.145,5.727 4.178,5.578 4.25,5.463 4.494,5.076 4.861,4.829 5.268,4.636 5.383,4.582 5.493,4.516 5.606,4.458 5.674,4.422 5.741,4.372 5.814,4.362 5.993,4.336 6.174,4.329 6.355,4.315 m -9.092,0.069 0.015,-0.055 c 0.199,0.047 0.407,0.073 0.595,0.148 0.192,0.075 0.372,0.189 0.544,0.304 0.321,0.214 0.629,0.445 0.949,0.659 0.154,0.104 0.208,0.24 0.179,0.412 -0.02,0.114 -0.065,0.223 -0.088,0.336 -0.078,0.393 -0.323,0.64 -0.679,0.794 -0.12,0.053 -0.24,0.105 -0.359,0.16 C -1.692,7.194 -1.8,7.249 -1.91,7.304 -2.068,7.382 -2.221,7.471 -2.384,7.537 -2.566,7.61 -2.756,7.661 -2.942,7.722 -2.951,7.725 -2.958,7.734 -2.967,7.738 -3.152,7.822 -3.337,7.909 -3.523,7.99 -3.622,8.033 -3.723,8.071 -3.826,8.103 -4.041,8.171 -4.254,8.249 -4.474,8.293 -4.7,8.338 -4.948,8.305 -5.16,8.382 -5.537,8.518 -5.958,8.436 -6.316,8.653 -6.455,8.737 -6.648,8.746 -6.766,8.848 -6.911,8.975 -7.069,8.969 -7.228,8.979 -7.292,8.983 -7.375,8.933 -7.425,8.884 -7.522,8.787 -7.608,8.676 -7.69,8.565 -7.838,8.362 -7.97,8.147 -8.129,7.954 -8.202,7.866 -8.239,7.786 -8.245,7.675 -8.254,7.538 -8.234,7.426 -8.158,7.298 -7.949,6.943 -7.768,6.569 -7.582,6.2 c 0.172,-0.342 0.397,-0.647 0.66,-0.921 0.227,-0.237 0.455,-0.478 0.764,-0.617 0.096,-0.044 0.184,-0.107 0.28,-0.148 0.217,-0.092 0.43,-0.217 0.656,-0.252 0.337,-0.053 0.691,-0.089 1.024,-0.042 0.313,0.045 0.62,0.035 0.93,0.045 0.06,0.001 0.122,0.008 0.18,0.022 0.118,0.028 0.234,0.064 0.351,0.097 M 7.875,22.109 C 7.606,22.157 7.315,22.223 7.021,22.255 6.727,22.287 6.43,22.293 6.134,22.295 5.523,22.301 4.912,22.298 4.301,22.294 4.255,22.294 4.194,22.266 4.164,22.23 3.905,21.918 3.644,21.609 3.269,21.425 3.248,21.415 3.235,21.39 3.218,21.371 3.061,21.193 2.911,21.01 2.747,20.841 2.617,20.707 2.468,20.594 2.334,20.464 2.104,20.243 1.935,19.958 1.581,19.881 1.388,19.839 1.147,19.89 1.04,20.057 0.985,20.144 0.913,20.224 0.834,20.289 0.74,20.367 0.62,20.413 0.53,20.495 c -0.3,0.275 -0.575,0.58 -0.892,0.834 -0.331,0.266 -0.6,0.575 -0.816,0.935 -0.058,0.097 -0.134,0.112 -0.23,0.081 -0.076,-0.024 -0.15,-0.07 -0.226,-0.075 -0.396,-0.027 -0.792,-0.054 -1.188,-0.059 -0.238,-0.003 -0.477,0.045 -0.716,0.052 -0.318,0.01 -0.636,0.004 -0.954,0.002 -0.036,-0.001 -0.083,-0.015 -0.105,-0.04 -0.242,-0.272 -0.283,-0.605 -0.282,-0.95 0,-0.015 0.006,-0.029 0.007,-0.044 0.015,-0.205 0.077,-0.422 0.029,-0.612 -0.039,-0.154 -0.014,-0.286 0.004,-0.423 0.009,-0.073 0.078,-0.187 0.132,-0.195 0.212,-0.03 0.429,-0.028 0.644,-0.033 0.149,-0.003 0.298,0.006 0.446,0.001 0.128,-0.005 0.255,-0.035 0.382,-0.032 0.1,10e-4 0.199,0.041 0.3,0.052 0.144,0.016 0.292,0.041 0.434,0.025 0.166,-0.018 0.346,-0.012 0.475,-0.166 0.179,-0.211 0.37,-0.412 0.559,-0.614 0.254,-0.272 0.511,-0.54 0.778,-0.822 -0.077,-0.035 -0.14,-0.092 -0.181,-0.078 -0.226,0.075 -0.413,-0.044 -0.621,-0.086 -0.302,-0.063 -0.619,-0.063 -0.931,-0.069 -0.26,-0.006 -0.522,0.009 -0.782,0.029 -0.388,0.03 -0.776,0.07 -1.163,0.113 -0.275,0.031 -0.508,-0.043 -0.46,-0.426 0.035,-0.278 0.009,-0.564 0.008,-0.847 0,-0.024 -0.003,-0.057 -0.018,-0.071 -0.086,-0.081 -0.04,-0.158 0.007,-0.228 0.147,-0.221 0.297,-0.442 0.452,-0.657 0.027,-0.037 0.09,-0.066 0.137,-0.068 0.54,-0.014 1.079,-0.023 1.619,-0.033 0.054,-10e-4 0.107,0 0.205,0 -0.102,-0.145 -0.17,-0.271 -0.266,-0.37 -0.115,-0.119 -0.26,-0.209 -0.379,-0.325 -0.08,-0.078 -0.128,-0.189 -0.207,-0.269 -0.107,-0.109 -0.234,-0.197 -0.345,-0.302 -0.171,-0.163 -0.336,-0.333 -0.503,-0.5 -0.185,-0.184 -0.372,-0.368 -0.553,-0.556 -0.031,-0.032 -0.055,-0.085 -0.056,-0.129 -0.024,-0.707 -0.043,-1.414 -0.063,-2.121 -0.009,-0.291 -0.022,-0.583 -0.028,-0.874 -10e-4,-0.051 0.011,-0.128 0.045,-0.148 0.235,-0.144 0.422,-0.345 0.767,-0.299 0.593,0.079 1.197,0.009 1.778,-0.139 C -1.931,9.884 -1.639,9.867 -1.341,9.87 -0.404,9.879 0.534,9.896 1.472,9.898 2.274,9.899 3.076,9.875 3.878,9.879 4.167,9.881 4.455,9.953 4.744,9.957 5.222,9.964 5.7,9.938 6.178,9.931 6.562,9.926 6.946,9.933 7.33,9.928 7.423,9.927 7.515,9.895 7.609,9.888 7.652,9.884 7.722,9.89 7.737,9.916 c 0.049,0.082 0.102,0.174 0.109,0.266 0.03,0.425 0.045,0.851 0.066,1.277 0,0.015 0.004,0.03 0.005,0.045 0.029,0.349 0.07,0.697 0.082,1.046 0.009,0.265 -0.017,0.532 -0.028,0.798 -0.001,0.019 -0.008,0.038 -0.009,0.042 -0.063,0.035 -0.122,0.056 -0.166,0.094 -0.188,0.164 -0.385,0.32 -0.554,0.502 -0.274,0.293 -0.54,0.595 -0.787,0.911 -0.184,0.235 -0.365,0.464 -0.604,0.648 -0.13,0.1 -0.229,0.239 -0.338,0.355 0.072,0.031 0.143,0.04 0.173,0.079 0.082,0.108 0.187,0.116 0.306,0.116 0.578,0 1.156,0.002 1.734,0.01 0.041,0 0.105,0.045 0.116,0.082 0.026,0.085 0.035,0.178 0.035,0.267 0.003,0.609 0.001,1.218 0.001,1.848 H 3.652 c -0.005,0.014 -0.01,0.029 -0.015,0.044 0.128,0.142 0.248,0.29 0.384,0.423 0.423,0.415 0.731,0.946 1.251,1.264 0.077,0.047 0.172,0.088 0.259,0.091 0.144,0.004 0.288,-0.04 0.431,-0.039 0.588,0.004 1.176,0.015 1.763,0.034 0.052,0.002 0.143,0.083 0.144,0.129 0.01,0.613 0.006,1.226 0.006,1.861 M 6.156,-3.454 C 6.046,-3.644 5.963,-3.776 5.892,-3.915 5.864,-3.971 5.853,-4.04 5.851,-4.103 5.845,-4.245 5.844,-4.386 5.852,-4.527 5.861,-4.699 5.837,-4.857 5.733,-5.001 5.696,-5.052 5.685,-5.122 5.665,-5.184 5.655,-5.213 5.658,-5.248 5.643,-5.272 5.592,-5.356 5.551,-5.486 5.478,-5.511 5.25,-5.586 5.136,-5.882 4.855,-5.83 4.769,-5.814 4.682,-5.773 4.613,-5.721 4.58,-5.697 4.567,-5.615 4.578,-5.566 4.665,-5.184 4.797,-4.809 4.754,-4.409 4.733,-4.214 4.71,-4.019 4.673,-3.827 4.647,-3.692 4.547,-3.618 4.409,-3.624 4.271,-3.631 4.192,-3.719 4.164,-3.853 4.149,-3.922 4.12,-3.993 4.126,-4.06 4.152,-4.33 4,-4.543 3.91,-4.775 3.777,-5.12 3.634,-5.462 3.499,-5.807 3.439,-5.961 3.397,-6.123 3.333,-6.275 3.315,-6.318 3.251,-6.362 3.204,-6.366 3.132,-6.373 3.055,-6.349 2.982,-6.332 2.857,-6.304 2.75,-6.297 2.627,-6.379 2.365,-6.553 2.029,-6.357 2.004,-6.03 1.982,-5.754 1.983,-5.474 1.939,-5.202 1.876,-4.812 1.779,-4.427 1.701,-4.039 1.684,-3.953 1.636,-3.942 1.561,-3.944 1.245,-3.953 1.143,-4.083 1.102,-4.448 1.056,-4.857 0.991,-5.266 0.906,-5.67 0.832,-6.023 0.572,-6.15 0.22,-6.069 c -0.144,0.034 -0.299,0.024 -0.45,0.025 -0.126,0.002 -0.253,10e-4 -0.377,-0.017 -0.138,-0.019 -0.188,0.047 -0.223,0.165 -0.148,0.495 -0.29,0.992 -0.459,1.481 -0.061,0.179 -0.189,0.335 -0.287,0.502 -0.022,-0.004 -0.043,-0.008 -0.065,-0.011 -0.018,-0.072 -0.049,-0.144 -0.051,-0.217 -0.006,-0.267 10e-4,-0.535 -0.005,-0.802 -0.002,-0.121 -0.015,-0.243 -0.04,-0.36 -0.03,-0.143 -0.123,-0.271 -0.262,-0.286 -0.179,-0.019 -0.365,0.014 -0.546,0.038 -0.036,0.005 -0.077,0.064 -0.094,0.107 -0.064,0.164 -0.118,0.332 -0.178,0.498 -0.011,0.033 -0.021,0.077 -0.046,0.093 -0.158,0.097 -0.135,0.25 -0.139,0.4 -0.005,0.243 -0.115,0.365 -0.313,0.364 -0.232,-0.002 -0.353,-0.127 -0.36,-0.373 -0.002,-0.071 0.005,-0.141 0.004,-0.212 -0.002,-0.171 -0.1,-0.228 -0.248,-0.141 -0.182,0.106 -0.251,0.294 -0.287,0.479 -0.044,0.231 -0.063,0.471 -0.057,0.706 0.007,0.316 -0.006,0.617 -0.182,0.897 -0.055,0.087 -0.075,0.213 -0.069,0.318 0.019,0.281 0.027,0.57 0.1,0.839 0.159,0.588 0.091,1.128 -0.242,1.634 -0.081,0.125 -0.09,0.242 -0.005,0.365 0.014,0.021 0.036,0.051 0.03,0.067 C -4.712,0.686 -4.75,0.93 -4.892,1.064 -5.201,1.355 -5.535,1.616 -5.739,1.999 -5.801,2.116 -5.903,2.109 -6.001,2.066 -6.244,1.958 -6.458,1.799 -6.609,1.585 -6.78,1.345 -6.981,1.158 -7.259,1.073 -7.38,1.036 -7.517,1.05 -7.646,1.048 -8.039,1.042 -8.321,1.23 -8.531,1.553 c -0.221,0.34 -0.499,0.623 -0.819,0.88 -0.332,0.268 -0.599,0.607 -0.794,0.998 -0.302,0.607 -0.378,1.254 -0.373,1.919 10e-4,0.106 0.008,0.213 -0.003,0.318 -0.043,0.411 -0.091,0.821 -0.137,1.232 -0.002,0.015 -0.009,0.031 -0.007,0.045 0.052,0.301 -0.123,0.514 -0.277,0.74 -0.117,0.173 -0.187,0.362 -0.166,0.583 0.014,0.141 -0.044,0.298 0,0.424 0.058,0.165 0.17,0.318 0.285,0.453 0.139,0.165 0.311,0.301 0.46,0.458 0.166,0.175 0.224,0.399 0.262,0.631 0.036,0.227 0.073,0.456 0.128,0.679 0.05,0.203 -0.001,0.376 -0.095,0.55 -0.043,0.078 -0.074,0.165 -0.094,0.251 -0.092,0.385 -0.178,0.772 -0.266,1.158 -0.008,0.035 -0.016,0.069 -0.019,0.104 -0.055,0.82 -0.083,1.64 -0.072,2.462 0.006,0.452 0.131,0.875 0.257,1.3 0.089,0.304 0.192,0.604 0.29,0.906 0.016,0.047 0.037,0.096 0.067,0.135 0.221,0.286 0.338,0.617 0.412,0.964 0.078,0.367 0.277,0.666 0.497,0.958 0.087,0.116 0.156,0.245 0.231,0.37 0.279,0.468 0.512,0.965 0.907,1.358 0.133,0.133 0.216,0.315 0.34,0.458 0.236,0.272 0.478,0.54 0.732,0.796 0.375,0.379 0.835,0.634 1.325,0.829 0.288,0.115 0.59,0.198 0.884,0.297 0.422,0.143 0.843,0.292 1.266,0.431 0.238,0.078 0.48,0.143 0.721,0.211 0.193,0.055 0.386,0.108 0.58,0.159 0.131,0.034 0.262,0.067 0.395,0.092 0.201,0.038 0.405,0.065 0.606,0.103 0.3,0.056 0.604,0.099 0.897,0.179 0.537,0.145 1.079,0.18 1.631,0.147 0.871,-0.052 1.743,-0.094 2.615,-0.138 0.448,-0.022 0.9,-0.007 1.343,-0.066 0.28,-0.038 0.551,-0.171 0.818,-0.281 0.245,-0.1 0.478,-0.227 0.718,-0.341 0.126,-0.06 0.255,-0.114 0.379,-0.176 0.254,-0.128 0.506,-0.261 0.76,-0.39 0.267,-0.135 0.538,-0.265 0.802,-0.405 0.261,-0.138 0.522,-0.277 0.774,-0.431 0.405,-0.249 0.739,-0.58 1.014,-0.962 0.267,-0.371 0.521,-0.754 0.742,-1.153 0.139,-0.25 0.216,-0.537 0.306,-0.813 0.08,-0.243 0.138,-0.493 0.207,-0.739 0.051,-0.184 0.092,-0.372 0.158,-0.55 0.149,-0.399 0.315,-0.792 0.466,-1.191 0.145,-0.385 0.307,-0.766 0.41,-1.162 0.1,-0.387 0.141,-0.789 0.197,-1.186 0.078,-0.548 0.166,-1.096 0.208,-1.647 0.028,-0.371 0.081,-0.753 -0.076,-1.118 -0.032,-0.075 -0.018,-0.169 -0.03,-0.254 -0.053,-0.348 -0.11,-0.695 -0.16,-1.043 -0.006,-0.042 0.001,-0.107 0.028,-0.13 0.146,-0.124 0.158,-0.273 0.138,-0.452 C 13.251,9.755 13.196,9.001 13.368,8.26 13.531,7.553 13.692,6.842 14.009,6.182 14.071,6.052 14.166,5.937 14.237,5.81 14.263,5.764 14.287,5.699 14.275,5.651 14.157,5.161 14.019,4.675 13.911,4.182 13.841,3.868 13.638,3.682 13.378,3.545 13.233,3.469 13.072,3.414 12.911,3.381 12.743,3.346 12.612,3.265 12.504,3.142 12.338,2.954 12.195,2.741 12.01,2.575 11.768,2.358 11.493,2.176 11.233,1.979 11.005,1.806 10.773,1.636 10.55,1.456 10.34,1.288 9.897,1.374 9.736,1.489 9.598,1.587 9.456,1.683 9.307,1.764 9.084,1.885 8.74,1.702 8.665,1.46 8.543,1.066 8.397,0.68 8.263,0.29 8.144,-0.057 8.048,-0.414 7.901,-0.748 7.796,-0.985 7.803,-1.256 7.636,-1.478 7.573,-1.562 7.612,-1.726 7.609,-1.854 7.597,-2.374 7.586,-2.894 7.576,-3.414 7.575,-3.445 7.573,-3.477 7.583,-3.505 7.707,-3.859 7.484,-4.067 7.259,-4.272 7.18,-4.342 7.097,-4.41 7.007,-4.464 6.739,-4.626 6.429,-4.489 6.362,-4.182 6.331,-4.039 6.317,-3.893 6.28,-3.751 6.257,-3.66 6.208,-3.576 6.156,-3.454"
             style="fill:#fff;fill-opacity:1;fill-rule:nonzero;stroke:none"
             id="path6819"
             inkscape:connector-curvature="0" />
        </g>
        <g
           id="g6821"
           transform="translate(232.1513,533.6387)">
          <path
             d="m 0,0 c -0.024,-0.013 -0.046,-0.025 -0.078,-0.043 0.042,-0.051 0.085,-0.093 0.119,-0.142 0.087,-0.126 0.021,-0.277 -0.133,-0.285 -0.119,-0.006 -0.239,0.02 -0.358,0.019 -0.19,-0.001 -0.38,-0.015 -0.57,-0.017 -0.353,-0.004 -0.706,-0.006 -1.06,-0.003 -0.11,0 -0.222,0.007 -0.329,0.03 -0.434,0.093 -0.855,-0.069 -1.286,-0.052 -0.616,0.026 -1.234,0.029 -1.851,0.058 -0.078,0.004 -0.177,0.092 -0.219,0.168 -0.028,0.051 0.027,0.149 0.048,0.224 0.005,0.018 0.035,0.032 0.035,0.047 -10e-4,0.197 0.163,0.27 0.275,0.388 0.17,0.179 0.344,0.363 0.474,0.571 0.21,0.337 0.526,0.558 0.808,0.819 0.209,0.192 0.398,0.405 0.589,0.616 0.134,0.148 0.243,0.321 0.387,0.456 0.155,0.145 0.4,0.082 0.518,-0.091 0.079,-0.118 0.172,-0.229 0.272,-0.33 C -1.96,2.028 -1.555,1.629 -1.154,1.226 -0.918,0.989 -0.685,0.749 -0.455,0.506 -0.301,0.343 -0.155,0.172 0,0"
             style="fill:#fff;fill-opacity:1;fill-rule:nonzero;stroke:none"
             id="path6823"
             inkscape:connector-curvature="0" />
        </g>
      </g>
    </g>
  </g>
</svg>
