<?xml version="1.0" encoding="UTF-8" standalone="no"?>
<!-- Created with Inkscape (http://www.inkscape.org/) -->

<svg
   xmlns:dc="http://purl.org/dc/elements/1.1/"
   xmlns:cc="http://creativecommons.org/ns#"
   xmlns:rdf="http://www.w3.org/1999/02/22-rdf-syntax-ns#"
   xmlns:svg="http://www.w3.org/2000/svg"
   xmlns="http://www.w3.org/2000/svg"
   xmlns:sodipodi="http://sodipodi.sourceforge.net/DTD/sodipodi-0.dtd"
   xmlns:inkscape="http://www.inkscape.org/namespaces/inkscape"
   width="11.42501mm"
   height="11.296086mm"
   viewBox="0 0 11.42501 11.296086"
   version="1.1"
   id="svg6909"
   inkscape:version="0.92.5 (2060ec1f9f, 2020-04-08)"
   sodipodi:docname="nurgle-demons.svg">
  <defs
     id="defs6903">
    <clipPath
       clipPathUnits="userSpaceOnUse"
       id="clipPath6735">
      <path
         d="m 172.457,381.342 h 32.451 v 32.026 h -32.451 z"
         id="path6733"
         inkscape:connector-curvature="0" />
    </clipPath>
  </defs>
  <sodipodi:namedview
     id="base"
     pagecolor="#ffffff"
     bordercolor="#666666"
     borderopacity="1.0"
     inkscape:pageopacity="0.0"
     inkscape:pageshadow="2"
     inkscape:zoom="0.35"
     inkscape:cx="321.59057"
     inkscape:cy="-392.93877"
     inkscape:document-units="mm"
     inkscape:current-layer="layer1"
     showgrid="false"
     fit-margin-top="0"
     fit-margin-left="0"
     fit-margin-right="0"
     fit-margin-bottom="0"
     inkscape:window-width="1920"
     inkscape:window-height="1017"
     inkscape:window-x="-8"
     inkscape:window-y="-8"
     inkscape:window-maximized="1" />
  <metadata
     id="metadata6906">
    <rdf:RDF>
      <cc:Work
         rdf:about="">
        <dc:format>image/svg+xml</dc:format>
        <dc:type
           rdf:resource="http://purl.org/dc/dcmitype/StillImage" />
        <dc:title></dc:title>
      </cc:Work>
    </rdf:RDF>
  </metadata>
  <g
     inkscape:label="Layer 1"
     inkscape:groupmode="layer"
     id="layer1"
     transform="translate(-20.745828,-33.572199)">
    <g
       transform="matrix(0.35277777,0,0,-0.35277777,-40.106128,179.39924)"
       id="g6729">
      <g
         id="g6731"
         clip-path="url(#clipPath6735)">
        <g
           id="g6737"
           transform="translate(185.5758,399.2932)">
          <path
             d="m 0,0 h -0.005 c 0,0.234 0.014,0.47 -0.003,0.703 C -0.03,1.01 -0.051,1.315 -0.236,1.59 -0.365,1.781 -0.453,2.003 -0.543,2.217 -0.766,2.747 -1.11,3.184 -1.554,3.543 -1.871,3.798 -2.219,3.996 -2.628,4.065 -3.724,4.248 -4.683,3.955 -5.519,3.232 -5.921,2.886 -6.175,2.434 -6.431,1.981 -6.611,1.66 -6.728,1.325 -6.737,0.957 -6.744,0.673 -6.743,0.389 -6.742,0.105 c 0,-0.133 -0.015,-0.271 0.013,-0.399 0.095,-0.436 0.341,-0.797 0.621,-1.132 0.202,-0.243 0.451,-0.449 0.635,-0.704 0.154,-0.214 0.363,-0.338 0.563,-0.487 0.291,-0.218 0.61,-0.299 0.965,-0.279 0.1,0.006 0.201,-0.004 0.301,-0.003 0.251,0.004 0.504,-0.017 0.745,0.075 0.256,0.097 0.521,0.11 0.791,0.099 0.1,-0.005 0.205,-0.012 0.3,0.011 0.144,0.034 0.314,0.056 0.416,0.147 0.38,0.339 0.793,0.651 1.069,1.088 0.15,0.237 0.329,0.47 0.324,0.776 C -0.003,-0.469 0,-0.234 0,0 m -0.767,-10.237 c -0.066,-0.53 0.102,-1.026 0.225,-1.528 0.044,-0.178 0.13,-0.346 0.166,-0.525 0.105,-0.513 0.331,-0.944 0.768,-1.251 0.055,-0.038 0.101,-0.088 0.149,-0.135 1.567,-1.497 4.146,-1.161 5.268,0.694 0.142,0.234 0.274,0.483 0.356,0.743 0.167,0.528 0.152,1.074 0.085,1.621 -0.027,0.212 -0.079,0.405 -0.172,0.598 C 5.925,-9.704 5.799,-9.375 5.652,-9.057 5.51,-8.751 5.344,-8.452 5.073,-8.245 4.411,-7.738 4.459,-7.734 3.611,-7.722 3.561,-7.721 3.51,-7.728 3.46,-7.723 3.403,-7.717 3.336,-7.717 3.293,-7.687 3.123,-7.57 2.935,-7.558 2.739,-7.564 2.504,-7.571 2.269,-7.558 2.034,-7.571 1.92,-7.577 1.794,-7.595 1.699,-7.651 1.552,-7.739 1.403,-7.751 1.242,-7.758 1.119,-7.763 0.988,-7.773 0.876,-7.818 0.698,-7.888 0.524,-7.978 0.362,-8.082 0.195,-8.19 0.037,-8.315 -0.11,-8.45 c -0.254,-0.233 -0.335,-0.574 -0.509,-0.858 -0.129,-0.213 -0.169,-0.453 -0.149,-0.702 0.006,-0.076 0.001,-0.151 0.001,-0.227 m 10.944,5.901 c 0.216,0.013 0.432,0.031 0.649,0.038 0.206,0.007 0.365,0.094 0.512,0.233 0.081,0.077 0.189,0.129 0.293,0.177 0.098,0.045 0.205,0.07 0.309,0.103 0.723,0.225 1.34,0.606 1.802,1.219 0.653,0.865 0.895,1.829 0.673,2.892 C 14.007,2.282 12.181,3.308 10.577,3.118 9.504,2.991 8.678,2.435 7.999,1.649 7.742,1.352 7.59,0.962 7.401,0.609 7.36,0.532 7.353,0.431 7.349,0.34 7.336,-0.011 7.334,-0.363 7.319,-0.714 7.314,-0.829 7.299,-0.949 7.257,-1.054 7.156,-1.307 7.151,-1.562 7.222,-1.816 7.394,-2.431 7.735,-2.94 8.224,-3.347 8.323,-3.43 8.454,-3.474 8.568,-3.54 8.652,-3.588 8.749,-3.627 8.813,-3.695 9.184,-4.089 9.604,-4.368 10.177,-4.336 m -11.148,11 C -0.757,6.57 -0.6,6.504 -0.445,6.433 -0.393,6.409 -0.34,6.38 -0.298,6.342 -0.087,6.152 0.121,5.958 0.331,5.766 0.571,5.546 0.816,5.33 1.052,5.104 1.221,4.942 1.382,4.77 1.537,4.595 1.578,4.549 1.584,4.473 1.606,4.411 1.672,4.229 1.83,4.116 2.006,4.124 2.171,4.133 2.317,4.25 2.361,4.431 2.387,4.536 2.395,4.646 2.399,4.755 2.424,5.325 2.45,5.894 2.463,6.464 2.466,6.593 2.422,6.723 2.402,6.839 2.239,6.817 2.107,6.804 1.977,6.782 1.922,6.772 1.859,6.758 1.82,6.723 1.618,6.548 1.389,6.603 1.174,6.656 0.978,6.704 0.913,6.95 1.046,7.105 c 0.142,0.166 0.27,0.336 0.334,0.548 0.009,0.031 0.031,0.06 0.054,0.084 0.242,0.253 0.374,0.562 0.492,0.888 0.087,0.24 0.252,0.45 0.366,0.682 0.195,0.397 0.371,0.805 0.568,1.201 0.258,0.517 0.53,1.027 0.793,1.541 0.068,0.134 0.137,0.27 0.187,0.411 0.042,0.116 0.087,0.222 0.209,0.266 0.101,0.036 0.114,0.111 0.114,0.199 0,0.076 -0.01,0.153 0.004,0.226 0.02,0.105 0.032,0.226 0.092,0.306 0.16,0.213 0.345,0.407 0.528,0.618 0.289,-0.151 0.562,-0.292 0.591,-0.662 0.005,-0.065 0.047,-0.126 0.063,-0.19 C 5.48,13.061 5.527,12.9 5.546,12.735 5.567,12.555 5.582,12.394 5.681,12.219 5.817,11.978 5.854,11.682 5.932,11.409 5.966,11.289 5.996,11.168 6.03,11.048 6.053,10.967 6.092,10.889 6.099,10.807 6.127,10.467 6.281,10.166 6.381,9.849 6.451,9.627 6.512,9.404 6.614,9.192 6.735,8.937 6.869,8.68 6.932,8.409 6.993,8.142 7.228,7.938 7.19,7.641 7.185,7.604 7.204,7.557 7.227,7.524 7.474,7.165 7.358,6.76 7.367,6.373 7.369,6.241 7.272,6.136 7.144,6.095 7.034,6.059 6.917,6.038 6.801,6.031 6.619,6.021 6.436,6.029 6.223,6.029 6.22,5.725 6.21,5.443 6.217,5.161 6.222,4.928 6.25,4.695 6.263,4.462 6.268,4.37 6.256,4.278 6.253,4.186 6.251,4.119 6.235,4.048 6.254,3.987 6.276,3.912 6.313,3.811 6.371,3.787 6.426,3.765 6.534,3.808 6.587,3.857 6.723,3.984 6.852,4.1 7.049,4.139 7.2,4.169 7.298,4.297 7.379,4.43 c 0.047,0.077 0.107,0.151 0.177,0.205 0.708,0.547 1.515,0.85 2.401,0.95 0.475,0.053 0.95,0.111 1.426,0.149 0.19,0.015 0.39,0.008 0.575,-0.035 C 12.48,5.576 12.996,5.426 13.516,5.292 13.694,5.246 13.808,5.121 13.948,5.016 14.329,4.73 14.725,4.457 15.143,4.229 15.382,4.099 15.57,3.945 15.719,3.727 15.913,3.443 16.103,3.156 16.312,2.884 16.416,2.749 16.422,2.598 16.413,2.455 16.4,2.26 16.476,2.134 16.62,2.027 c 0.027,-0.02 0.047,-0.052 0.076,-0.065 0.283,-0.129 0.338,-0.376 0.378,-0.656 0.065,-0.464 0.162,-0.925 0.251,-1.386 0.042,-0.216 0.053,-0.43 0.023,-0.65 -0.043,-0.324 -0.083,-0.649 -0.1,-0.975 -0.032,-0.581 -0.247,-1.089 -0.566,-1.565 -0.321,-0.481 -0.627,-0.973 -0.951,-1.453 -0.082,-0.121 -0.193,-0.235 -0.316,-0.315 -0.69,-0.448 -1.388,-0.882 -2.152,-1.197 -0.155,-0.064 -0.31,-0.128 -0.47,-0.178 -0.249,-0.079 -0.486,-0.178 -0.708,-0.319 -0.072,-0.046 -0.17,-0.06 -0.259,-0.068 -0.133,-0.014 -0.269,10e-4 -0.402,-0.016 -0.236,-0.031 -0.317,-0.225 -0.151,-0.394 0.222,-0.227 0.462,-0.438 0.712,-0.635 0.142,-0.112 0.335,-0.161 0.473,-0.277 0.229,-0.192 0.467,-0.39 0.638,-0.63 0.234,-0.329 0.522,-0.559 0.892,-0.698 0.062,-0.024 0.136,-0.027 0.19,-0.062 0.177,-0.118 0.328,-0.084 0.478,0.049 0.149,0.132 0.304,0.257 0.464,0.39 0.007,0.115 0.004,0.241 0.024,0.365 0.035,0.218 0.157,0.334 0.339,0.344 0.229,0.012 0.428,-0.123 0.504,-0.303 0.135,-0.322 0.289,-0.637 0.434,-0.955 0.035,-0.075 0.073,-0.15 0.1,-0.228 0.11,-0.316 0.208,-0.636 0.329,-0.947 0.043,-0.112 0.117,-0.234 0.212,-0.301 0.37,-0.261 0.561,-0.643 0.718,-1.04 0.174,-0.443 0.38,-0.868 0.603,-1.286 0.008,-0.015 0.016,-0.031 0.029,-0.041 0.203,-0.153 0.256,-0.378 0.298,-0.611 0.085,-0.466 0.254,-0.902 0.496,-1.309 0.03,-0.051 0.057,-0.103 0.079,-0.157 0.048,-0.117 0.003,-0.205 -0.123,-0.211 -0.08,-0.004 -0.184,0.004 -0.238,0.052 -0.139,0.124 -0.296,0.125 -0.464,0.142 -0.107,0.01 -0.227,0.07 -0.305,0.145 -0.147,0.144 -0.3,0.227 -0.512,0.207 -0.22,-0.021 -0.426,0.055 -0.638,0.114 -0.262,0.073 -0.539,0.112 -0.812,0.128 -0.62,0.036 -1.246,0.009 -1.86,0.081 -0.743,0.087 -1.49,0.079 -2.229,0.174 -0.172,0.023 -0.332,0.135 -0.496,0.204 0.06,0.218 0.105,0.404 0.165,0.584 0.019,0.059 0.072,0.11 0.12,0.154 0.136,0.123 0.28,0.239 0.416,0.363 0.157,0.143 0.156,0.24 0.024,0.409 -0.106,0.134 -0.236,0.229 -0.381,0.318 -0.285,0.176 -0.556,0.374 -0.83,0.568 -0.171,0.121 -0.331,0.258 -0.505,0.375 -0.123,0.082 -0.262,0.142 -0.433,0.233 -0.007,0.016 -0.018,0.088 -0.058,0.134 -0.038,0.045 -0.11,0.094 -0.16,0.087 -0.053,-0.006 -0.111,-0.068 -0.141,-0.12 C 9.798,-11.448 9.802,-11.514 9.8,-11.573 9.78,-12.106 9.664,-12.619 9.485,-13.12 9.367,-13.45 9.239,-13.777 9.121,-14.108 9.066,-14.262 8.987,-14.356 8.806,-14.379 8.652,-14.398 8.501,-14.468 8.357,-14.533 8.213,-14.599 8.115,-14.721 8.099,-14.883 8.077,-15.112 8.057,-15.328 7.953,-15.553 7.865,-15.745 7.784,-15.932 7.638,-16.08 7.541,-16.179 7.42,-16.262 7.297,-16.328 7.077,-16.446 6.857,-16.561 6.608,-16.623 6.482,-16.654 6.36,-16.761 6.271,-16.864 6.186,-16.964 6.099,-17.042 5.979,-17.091 5.2,-17.406 4.404,-17.657 3.561,-17.746 3.128,-17.791 2.7,-17.873 2.268,-17.933 2.17,-17.946 2.066,-17.951 1.969,-17.938 c -0.424,0.059 -0.848,0.12 -1.269,0.194 -0.128,0.023 -0.252,0.082 -0.372,0.137 -0.404,0.185 -0.797,0.395 -1.209,0.557 -0.209,0.082 -0.439,0.112 -0.606,0.277 -0.068,0.067 -0.136,0.153 -0.158,0.242 -0.036,0.147 -0.12,0.226 -0.249,0.29 -0.156,0.078 -0.305,0.172 -0.45,0.27 -0.258,0.175 -0.424,0.414 -0.531,0.712 -0.079,0.217 -0.207,0.42 -0.337,0.613 -0.32,0.475 -0.585,0.979 -0.813,1.501 -0.064,0.147 -0.055,0.326 -0.075,0.492 -0.015,0.132 -0.006,0.27 -0.039,0.397 -0.017,0.068 -0.09,0.147 -0.155,0.17 -0.088,0.03 -0.164,-0.041 -0.185,-0.13 -0.034,-0.144 -0.161,-0.19 -0.261,-0.255 -0.158,-0.104 -0.297,-0.218 -0.386,-0.387 -0.051,-0.096 -0.121,-0.136 -0.241,-0.138 -0.362,-0.005 -0.518,-0.168 -0.51,-0.531 0.003,-0.147 0.049,-0.293 0.075,-0.439 0.009,-0.048 0.029,-0.097 0.022,-0.143 -0.029,-0.213 0.034,-0.39 0.185,-0.543 0.057,-0.058 0.111,-0.129 0.137,-0.204 0.089,-0.257 -0.071,-0.515 -0.341,-0.523 -0.199,-0.005 -0.37,-0.079 -0.554,-0.126 -0.305,-0.079 -0.61,-0.164 -0.916,-0.223 -0.19,-0.037 -0.373,-0.082 -0.549,-0.152 -0.232,-0.092 -0.452,-0.219 -0.686,-0.304 -0.154,-0.055 -0.325,-0.086 -0.488,-0.087 -0.646,-0.005 -1.293,-0.004 -1.938,0.017 -0.331,0.011 -0.63,-0.046 -0.907,-0.227 -0.139,-0.092 -0.272,-0.111 -0.446,-0.045 -0.174,0.065 -0.377,0.055 -0.567,0.075 -0.057,0.006 -0.116,0.001 -0.18,0.001 -0.089,0.124 -0.055,0.243 0.035,0.34 0.259,0.281 0.419,0.615 0.572,0.962 0.214,0.482 0.467,0.948 0.702,1.421 0.249,0.503 0.518,0.995 0.708,1.527 0.117,0.33 0.293,0.639 0.438,0.96 0.076,0.167 0.129,0.346 0.216,0.507 0.094,0.175 0.221,0.333 0.322,0.505 0.067,0.114 0.128,0.234 0.166,0.359 0.085,0.28 0.153,0.564 0.24,0.889 0.271,-0.287 0.519,-0.553 0.922,-0.56 0.043,-0.108 0.081,-0.209 0.123,-0.308 0.039,-0.091 0.074,-0.185 0.126,-0.268 0.088,-0.143 0.1,-0.119 0.255,-0.048 0.284,0.131 0.481,0.353 0.691,0.567 0.112,0.114 0.233,0.216 0.271,0.384 0.012,0.052 0.062,0.098 0.104,0.139 0.366,0.357 0.71,0.742 1.109,1.058 0.317,0.251 0.552,0.556 0.791,0.868 0.158,0.206 0.317,0.412 0.487,0.609 0.081,0.094 0.187,0.165 0.282,0.247 0.139,0.119 0.15,0.158 0.102,0.395 -0.213,0.033 -0.435,0.073 -0.658,0.099 -0.336,0.039 -0.648,0.121 -0.947,0.301 -0.393,0.238 -0.82,0.407 -1.27,0.529 -0.237,0.065 -0.482,0.192 -0.537,0.505 -0.015,0.085 -0.126,0.182 -0.216,0.219 -0.272,0.11 -0.494,0.288 -0.694,0.49 -0.108,0.109 -0.191,0.256 -0.247,0.401 -0.111,0.284 -0.257,0.541 -0.432,0.791 -0.313,0.447 -0.555,0.937 -0.774,1.436 -0.05,0.112 -0.065,0.243 -0.078,0.367 -0.019,0.191 -0.024,0.383 -0.034,0.574 -10e-4,0.033 -0.005,0.07 0.006,0.099 0.125,0.315 0.074,0.645 0.085,0.969 0.013,0.359 -0.012,0.72 0.002,1.078 0.008,0.193 -0.025,0.365 -0.138,0.561 0.198,0.313 0.398,0.64 0.609,0.961 0.17,0.258 0.347,0.509 0.453,0.803 0.069,0.19 0.169,0.354 0.327,0.495 0.243,0.217 0.47,0.454 0.682,0.702 0.312,0.364 0.679,0.642 1.127,0.814 0.101,0.039 0.19,0.107 0.289,0.152 0.228,0.103 0.458,0.202 0.687,0.302 0.237,0.103 0.473,0.211 0.712,0.308 0.106,0.042 0.219,0.084 0.331,0.089 0.293,0.012 0.586,0.004 0.88,0.004 0.151,0 0.288,-0.039 0.434,-0.089 0.207,-0.072 0.442,-0.065 0.664,-0.095 0.114,-0.015 0.231,-0.028 0.34,-0.061 0.3,-0.091 0.605,-0.133 0.917,-0.118 0.137,0.007 0.261,-0.014 0.385,-0.084 0.178,-0.1 0.371,-0.081 0.492,-0.041"
             style="fill:#fff;fill-opacity:1;fill-rule:nonzero;stroke:none"
             id="path6739"
             inkscape:connector-curvature="0" />
        </g>
      </g>
    </g>
  </g>
</svg>
