<?xml version="1.0" encoding="UTF-8" standalone="no"?>
<!-- Created with Inkscape (http://www.inkscape.org/) -->

<svg
   xmlns:dc="http://purl.org/dc/elements/1.1/"
   xmlns:cc="http://creativecommons.org/ns#"
   xmlns:rdf="http://www.w3.org/1999/02/22-rdf-syntax-ns#"
   xmlns:svg="http://www.w3.org/2000/svg"
   xmlns="http://www.w3.org/2000/svg"
   xmlns:sodipodi="http://sodipodi.sourceforge.net/DTD/sodipodi-0.dtd"
   xmlns:inkscape="http://www.inkscape.org/namespaces/inkscape"
   width="8.6112814mm"
   height="10.950167mm"
   viewBox="0 0 8.6112814 10.950167"
   version="1.1"
   id="svg7670"
   inkscape:version="0.92.5 (2060ec1f9f, 2020-04-08)"
   sodipodi:docname="nurgle-humans.svg">
  <defs
     id="defs7664">
    <clipPath
       clipPathUnits="userSpaceOnUse"
       id="clipPath6651">
      <path
         d="M 217.492,426.608 H 241.95 V 457.69 H 217.492 Z"
         id="path6649"
         inkscape:connector-curvature="0" />
    </clipPath>
  </defs>
  <sodipodi:namedview
     id="base"
     pagecolor="#ffffff"
     bordercolor="#666666"
     borderopacity="1.0"
     inkscape:pageopacity="0.0"
     inkscape:pageshadow="2"
     inkscape:zoom="0.35"
     inkscape:cx="667.70187"
     inkscape:cy="717.83607"
     inkscape:document-units="mm"
     inkscape:current-layer="layer1"
     showgrid="false"
     fit-margin-top="0"
     fit-margin-left="0"
     fit-margin-right="0"
     fit-margin-bottom="0"
     inkscape:window-width="1920"
     inkscape:window-height="1017"
     inkscape:window-x="-8"
     inkscape:window-y="-8"
     inkscape:window-maximized="1" />
  <metadata
     id="metadata7667">
    <rdf:RDF>
      <cc:Work
         rdf:about="">
        <dc:format>image/svg+xml</dc:format>
        <dc:type
           rdf:resource="http://purl.org/dc/dcmitype/StillImage" />
        <dc:title></dc:title>
      </cc:Work>
    </rdf:RDF>
  </metadata>
  <g
     inkscape:label="Layer 1"
     inkscape:groupmode="layer"
     id="layer1"
     transform="translate(70.829452,-327.81063)">
    <g
       transform="matrix(0.35277777,0,0,-0.35277777,-147.56203,489.26895)"
       id="g6645">
      <g
         id="g6647"
         clip-path="url(#clipPath6651)">
        <g
           id="g6653"
           transform="translate(230.3026,433.6016)">
          <path
             d="M 0,0 C 0.066,-0.11 0.109,-0.241 0.199,-0.319 0.394,-0.49 0.506,-0.713 0.634,-0.928 0.659,-0.971 0.684,-1.02 0.722,-1.046 0.77,-1.08 0.831,-1.113 0.887,-1.113 c 0.192,-0.001 0.385,0.002 0.575,0.024 0.099,0.012 0.205,0.047 0.286,0.103 0.157,0.11 0.225,0.568 0.125,0.734 -0.029,0.05 -0.064,0.1 -0.08,0.154 C 1.755,0.034 1.737,0.172 1.694,0.301 1.527,0.793 1.352,1.283 1.184,1.774 1.08,2.079 0.983,2.386 0.887,2.694 0.839,2.847 0.81,3.007 0.755,3.158 0.731,3.225 0.665,3.277 0.618,3.336 0.496,3.488 0.37,3.638 0.254,3.795 0.231,3.826 0.244,3.886 0.246,3.932 0.252,4.014 0.241,4.078 0.136,4.074 0.106,4.073 0.075,4.085 0.045,4.092 -0.233,4.152 -0.443,3.981 -0.483,3.725 -0.494,3.65 -0.557,3.582 -0.599,3.513 -0.659,3.416 -0.728,3.325 -0.781,3.225 -0.827,3.138 -0.855,3.042 -0.893,2.952 -0.953,2.812 -1.029,2.677 -1.075,2.533 -1.195,2.152 -1.302,1.767 -1.417,1.384 -1.467,1.217 -1.538,1.055 -1.506,0.873 -1.501,0.844 -1.527,0.808 -1.541,0.777 -1.571,0.714 -1.609,0.654 -1.631,0.588 -1.693,0.406 -1.718,0.203 -1.813,0.042 c -0.126,-0.214 -0.122,-0.433 -0.122,-0.659 0,-0.034 0.031,-0.076 0.059,-0.098 0.087,-0.068 0.192,-0.117 0.269,-0.195 0.205,-0.205 0.488,-0.242 0.733,-0.085 0.067,0.042 0.141,0.073 0.212,0.107 0.147,0.071 0.288,0.148 0.365,0.305 C -0.203,-0.391 -0.103,-0.202 0,0 M 6.96,8.148 C 6.959,8.142 6.959,8.137 6.958,8.131 6.814,8.125 6.669,8.13 6.527,8.109 6.187,8.057 5.846,8.01 5.511,7.931 4.982,7.806 4.446,7.694 3.974,7.395 3.894,7.343 3.782,7.332 3.683,7.319 3.541,7.301 3.393,7.316 3.254,7.285 2.946,7.216 2.644,7.111 2.334,7.051 2.009,6.988 1.933,6.713 1.793,6.487 1.785,6.474 1.792,6.452 1.791,6.434 1.783,6.273 1.773,6.112 1.77,5.951 1.77,5.92 1.795,5.887 1.81,5.857 1.885,5.698 1.974,5.544 2.034,5.38 2.081,5.249 2.077,5.1 2.124,4.969 2.221,4.693 2.436,4.504 2.664,4.339 2.833,4.217 3.027,4.131 3.208,4.025 3.397,3.913 3.568,3.763 3.808,3.766 3.883,3.767 3.958,3.75 4.032,3.735 4.4,3.662 4.744,3.79 5.095,3.861 5.107,3.864 5.116,3.878 5.129,3.882 5.191,3.901 5.253,3.924 5.317,3.935 5.539,3.975 5.763,4.009 5.985,4.047 6.007,4.05 6.026,4.066 6.047,4.072 6.119,4.091 6.191,4.11 6.264,4.126 6.316,4.137 6.371,4.135 6.422,4.15 6.597,4.203 6.767,4.286 6.945,4.309 7.189,4.34 7.405,4.444 7.573,4.59 7.842,4.823 8.076,5.099 8.306,5.374 8.488,5.593 8.643,5.836 8.807,6.071 8.836,6.113 8.86,6.169 8.863,6.22 8.88,6.57 8.89,6.92 8.903,7.27 8.911,7.471 8.853,7.636 8.695,7.779 8.401,8.046 8.078,8.173 7.681,8.076 7.639,8.066 7.592,8.076 7.547,8.081 7.351,8.103 7.156,8.125 6.96,8.148 M -8.187,8.184 C -8.39,8.184 -8.594,8.202 -8.794,8.179 -8.986,8.158 -9.178,8.085 -9.313,7.946 -9.624,7.625 -9.809,7.226 -9.956,6.81 -9.967,6.78 -9.962,6.737 -9.948,6.707 c 0.102,-0.211 0.201,-0.423 0.313,-0.629 0.263,-0.484 0.528,-0.97 0.908,-1.377 0.222,-0.236 0.453,-0.464 0.745,-0.618 0.097,-0.051 0.189,-0.113 0.29,-0.154 0.22,-0.091 0.439,-0.194 0.669,-0.249 0.189,-0.046 0.393,-0.042 0.59,-0.038 0.254,0.006 0.507,0.049 0.76,0.049 0.504,-10e-4 1,0.039 1.492,0.16 0.234,0.057 0.449,0.149 0.641,0.276 0.367,0.241 0.715,0.513 1.065,0.78 0.052,0.039 0.097,0.122 0.099,0.187 0.005,0.175 0.006,0.345 -0.062,0.525 -0.07,0.186 -0.165,0.342 -0.291,0.486 -0.115,0.133 -0.255,0.224 -0.426,0.285 -0.163,0.058 -0.308,0.163 -0.466,0.237 -0.147,0.068 -0.303,0.12 -0.451,0.186 -0.168,0.075 -0.33,0.165 -0.5,0.234 -0.18,0.072 -0.368,0.125 -0.552,0.188 -0.016,0.005 -0.03,0.019 -0.046,0.025 -0.188,0.064 -0.371,0.161 -0.564,0.184 -0.261,0.032 -0.515,0.082 -0.713,0.244 -0.226,0.185 -0.489,0.273 -0.745,0.387 -0.32,0.143 -0.661,0.1 -0.995,0.109 m 3.449,1.771 c 0.003,-0.004 -0.007,0.021 -0.026,0.037 -0.165,0.137 -0.183,0.335 -0.201,0.525 -0.005,0.054 0.047,0.141 0.097,0.166 0.174,0.091 0.358,0.166 0.541,0.239 0.16,0.064 0.325,0.117 0.489,0.176 0.018,-0.144 0.058,-0.273 0.046,-0.397 -0.03,-0.284 0.114,-0.502 0.239,-0.728 0.112,-0.2 0.259,-0.383 0.343,-0.594 0.106,-0.266 0.274,-0.445 0.53,-0.558 0.047,-0.021 0.099,-0.077 0.11,-0.126 0.034,-0.148 0.155,-0.19 0.267,-0.239 0.228,-0.102 0.46,-0.197 0.692,-0.292 0.082,-0.034 0.164,-0.073 0.25,-0.09 0.403,-0.081 0.803,-0.105 1.216,-0.032 0.462,0.081 0.918,0.171 1.352,0.354 0.053,0.022 0.115,0.049 0.144,0.093 0.07,0.108 0.17,0.153 0.288,0.18 0.367,0.083 0.626,0.39 0.64,0.761 0.005,0.138 0.066,0.231 0.194,0.279 0.067,0.025 0.139,0.036 0.205,0.063 0.037,0.015 0.085,0.041 0.097,0.074 0.099,0.264 0.207,0.527 0.28,0.799 0.062,0.229 0.076,0.469 0.119,0.703 0.034,0.188 0.168,0.263 0.349,0.205 C 3.574,11.537 3.625,11.515 3.67,11.487 3.974,11.298 4.279,11.11 4.579,10.917 4.78,10.788 4.792,10.588 4.618,10.425 4.595,10.403 4.559,10.385 4.552,10.359 4.531,10.282 4.491,10.19 4.515,10.125 4.537,10.066 4.632,10 4.697,9.997 5.1,9.977 5.502,10.001 5.904,9.917 6.16,9.863 6.433,9.887 6.699,9.88 6.85,9.876 7.003,9.891 7.153,9.881 7.298,9.871 7.441,9.84 7.603,9.815 7.573,9.927 7.575,10.037 7.522,10.104 7.333,10.339 7.23,10.612 7.114,10.883 7.038,11.06 6.957,11.233 6.799,11.362 6.727,11.42 6.671,11.511 6.634,11.598 6.488,11.938 6.354,12.284 6.213,12.626 6.198,12.661 6.16,12.686 6.127,12.723 6.113,12.692 6.105,12.68 6.102,12.668 6.035,12.356 5.904,12.237 5.593,12.206 5.572,12.204 5.548,12.198 5.531,12.185 5.445,12.12 5.382,12.159 5.322,12.226 5.103,12.47 4.883,12.713 4.663,12.956 4.604,13.022 4.55,13.095 4.485,13.155 c -0.133,0.12 -0.272,0.234 -0.403,0.347 0.102,0.042 0.183,0.074 0.263,0.109 0.057,0.025 0.11,0.062 0.17,0.08 0.527,0.16 0.991,0.446 1.448,0.742 0.055,0.036 0.099,0.093 0.136,0.147 0.114,0.168 0.225,0.338 0.333,0.509 0.163,0.258 0.36,0.502 0.397,0.818 0.033,0.286 0.05,0.573 0.072,0.86 0.003,0.031 -0.002,0.063 -0.008,0.094 -0.046,0.257 -0.095,0.513 -0.139,0.77 C 6.735,17.742 6.692,17.827 6.596,17.896 6.529,17.944 6.449,18.028 6.446,18.1 6.439,18.249 6.393,18.367 6.3,18.478 6.231,18.561 6.175,18.655 6.115,18.744 6.029,18.873 5.927,18.972 5.783,19.048 5.577,19.156 5.392,19.302 5.197,19.431 5.124,19.479 5.054,19.538 4.973,19.566 4.8,19.626 4.624,19.683 4.444,19.714 4.237,19.75 4.021,19.791 3.816,19.767 3.576,19.739 3.313,19.798 3.094,19.637 3.08,19.626 3.046,19.643 3.021,19.643 2.957,19.643 2.89,19.651 2.829,19.636 2.716,19.609 2.598,19.582 2.498,19.527 2.311,19.423 2.103,19.328 1.962,19.175 1.774,18.972 1.53,18.875 1.312,18.73 1.297,18.72 1.269,18.728 1.238,18.728 v 1.454 c 0.051,0.002 0.092,0.003 0.132,0.006 0.24,0.022 0.326,0.178 0.221,0.395 -0.016,0.032 -0.033,0.067 -0.034,0.101 -0.008,0.305 -0.133,0.575 -0.245,0.848 -0.084,0.203 -0.201,0.396 -0.259,0.605 -0.044,0.165 -0.212,0.293 -0.149,0.489 0.003,0.008 -0.014,0.021 -0.02,0.033 -0.022,0.052 -0.052,0.102 -0.064,0.156 -0.029,0.131 -0.05,0.263 -0.074,0.394 -0.608,-0.89 -0.911,-1.909 -1.451,-2.836 0.139,0 0.255,0.006 0.371,-0.002 0.234,-0.016 0.338,-0.145 0.312,-0.376 -0.026,-0.226 -0.049,-0.452 -0.078,-0.678 -0.035,-0.271 -0.217,-0.381 -0.489,-0.304 -0.029,0.008 -0.066,-0.008 -0.099,-0.015 -0.115,-0.024 -0.2,0.005 -0.255,0.119 -0.038,0.079 -0.083,0.161 -0.143,0.222 -0.162,0.162 -0.338,0.31 -0.499,0.472 -0.224,0.225 -0.446,0.443 -0.797,0.431 -0.029,-0.001 -0.059,0.019 -0.09,0.026 -0.072,0.017 -0.144,0.039 -0.218,0.048 -0.283,0.036 -0.567,0.067 -0.85,0.102 -0.026,0.003 -0.053,0.012 -0.077,0.023 -0.246,0.112 -0.515,0.091 -0.751,0.036 -0.282,-0.065 -0.541,-0.231 -0.809,-0.353 -0.255,-0.116 -0.503,-0.238 -0.681,-0.468 -0.065,-0.085 -0.151,-0.153 -0.22,-0.236 -0.096,-0.115 -0.19,-0.233 -0.273,-0.358 -0.086,-0.129 -0.159,-0.267 -0.234,-0.404 -0.116,-0.211 -0.361,-0.381 -0.225,-0.677 0.007,-0.015 -0.001,-0.036 -0.001,-0.054 -0.017,-0.357 -0.043,-0.715 -0.047,-1.072 -0.003,-0.308 0.065,-0.601 0.238,-0.868 0.141,-0.218 0.286,-0.439 0.388,-0.676 0.084,-0.196 0.21,-0.334 0.382,-0.436 0.112,-0.067 0.241,-0.102 0.256,-0.262 0.002,-0.024 0.039,-0.052 0.066,-0.064 0.125,-0.056 0.254,-0.106 0.38,-0.161 0.396,-0.173 0.768,-0.419 1.225,-0.383 0.009,-0.103 -0.006,-0.189 0.026,-0.25 0.067,-0.131 0.063,-0.254 -0.006,-0.372 -0.052,-0.088 -0.119,-0.17 -0.19,-0.243 -0.248,-0.256 -0.494,-0.512 -0.753,-0.756 -0.224,-0.211 -0.461,-0.409 -0.699,-0.605 -0.063,-0.052 -0.142,-0.073 -0.21,0.02 -0.078,0.108 -0.166,0.211 -0.256,0.31 -0.139,0.153 -0.361,0.108 -0.432,-0.086 -0.07,-0.192 -0.139,-0.385 -0.206,-0.579 C -6.781,11.059 -6.91,10.672 -7.044,10.287 -7.093,10.147 -7.15,10.01 -7.211,9.875 -7.315,9.646 -7.427,9.421 -7.532,9.194 -7.548,9.161 -7.549,9.121 -7.561,9.07 c 0.169,0.034 0.319,0.061 0.467,0.096 0.476,0.113 0.953,0.222 1.426,0.347 0.193,0.051 0.38,0.13 0.561,0.214 0.128,0.059 0.242,0.148 0.369,0.228 M 4.943,-5.449 c -0.012,0.023 -0.025,0.038 -0.028,0.054 -0.038,0.21 -0.077,0.42 -0.111,0.631 -0.024,0.154 -0.11,0.245 -0.24,0.24 C 4.438,-4.528 4.344,-4.627 4.337,-4.78 4.329,-4.969 4.319,-5.159 4.332,-5.347 4.345,-5.531 4.271,-5.645 4.126,-5.751 3.912,-5.906 3.709,-6.078 3.519,-6.261 3.39,-6.385 3.245,-6.44 3.057,-6.47 c 0,0.071 10e-4,0.136 0,0.201 -0.002,0.343 0.005,0.685 -0.01,1.027 C 3.036,-4.985 2.811,-4.873 2.599,-5.02 2.529,-5.068 2.458,-5.182 2.464,-5.26 2.486,-5.571 2.399,-5.849 2.281,-6.128 2.18,-6.368 2.104,-6.619 2.01,-6.862 1.994,-6.903 1.941,-6.959 1.905,-6.959 1.528,-6.965 1.148,-6.994 0.795,-6.811 c -0.081,0.042 -0.111,0.092 -0.109,0.179 0.002,0.135 0.01,0.272 -0.01,0.405 -0.032,0.215 -0.078,0.43 -0.133,0.641 -0.031,0.115 -0.16,0.159 -0.277,0.122 -0.038,-0.012 -0.086,-0.022 -0.121,-0.009 -0.182,0.067 -0.308,-0.01 -0.322,-0.211 -0.014,-0.193 -0.021,-0.387 -0.031,-0.58 -0.011,-0.202 -0.021,-0.404 -0.032,-0.63 -0.141,0.007 -0.293,-0.021 -0.413,0.028 -0.195,0.079 -0.39,0.056 -0.584,0.055 -0.345,0 -0.359,-0.012 -0.435,0.321 -0.077,0.335 -0.122,0.677 -0.181,1.013 0.22,0.054 0.239,0.092 0.133,0.252 -0.055,0.084 -0.125,0.167 -0.208,0.221 -0.141,0.093 -0.303,0.025 -0.355,-0.137 -0.021,-0.068 -0.029,-0.141 -0.032,-0.212 -0.005,-0.117 0.007,-0.235 -0.003,-0.352 -0.026,-0.303 0.055,-0.587 0.15,-0.869 0.007,-0.02 0.008,-0.043 0.013,-0.072 -0.3,-0.013 -0.578,0.05 -0.84,0.171 -0.109,0.05 -0.178,0.147 -0.182,0.279 -10e-4,0.027 -0.04,0.068 -0.069,0.076 -0.185,0.055 -0.289,0.204 -0.278,0.401 0.01,0.184 0.021,0.369 0.017,0.553 -0.005,0.195 -0.062,0.297 -0.214,0.322 -0.147,0.025 -0.253,-0.043 -0.324,-0.221 -0.094,-0.238 -0.184,-0.478 -0.273,-0.717 -0.034,-0.091 -0.076,-0.16 -0.192,-0.153 -0.036,0.003 -0.077,-0.032 -0.113,-0.055 -0.052,-0.033 -0.098,-0.081 -0.154,-0.104 -0.163,-0.068 -0.262,-0.01 -0.317,0.156 -0.078,0.233 -0.168,0.463 -0.251,0.695 -0.125,0.347 -0.241,0.698 -0.239,1.072 0.003,0.493 0.045,0.988 0.025,1.481 -0.015,0.393 -0.176,0.757 -0.37,1.1 -0.002,0.004 -0.004,0.009 -0.008,0.011 -0.228,0.15 -0.196,0.413 -0.279,0.627 -0.076,0.195 -0.179,0.38 -0.26,0.574 -0.032,0.075 -0.039,0.161 -0.057,0.242 -0.009,0.037 -0.006,0.084 -0.027,0.111 C -6.769,0.236 -7.003,0.466 -7.309,0.62 -7.475,0.703 -7.62,0.829 -7.782,0.923 -7.849,0.963 -7.935,0.99 -8.012,0.99 -8.397,0.994 -8.784,1.048 -9.162,0.913 -9.256,0.88 -9.368,0.898 -9.47,0.882 -9.615,0.86 -9.76,0.834 -9.902,0.797 -9.976,0.778 -10.01,0.787 -10.03,0.863 c -0.111,0.431 -0.336,0.801 -0.617,1.141 -0.349,0.423 -0.696,0.848 -1.045,1.27 -0.09,0.108 -0.149,0.221 -0.136,0.368 0.01,0.116 -0.005,0.235 0.003,0.351 0.028,0.396 -0.084,0.764 -0.212,1.131 -0.031,0.09 -0.032,0.195 -0.03,0.292 0.005,0.184 -0.066,0.334 -0.149,0.494 -0.075,0.146 -0.114,0.328 -0.109,0.492 0.007,0.193 -0.064,0.337 -0.167,0.483 -0.062,0.087 -0.116,0.181 -0.171,0.273 -0.119,0.198 -0.112,0.425 -0.128,0.642 -0.02,0.27 0.118,0.481 0.308,0.662 0.147,0.14 0.295,0.278 0.435,0.424 0.172,0.178 0.238,0.403 0.273,0.644 0.031,0.216 0.067,0.433 0.122,0.644 0.044,0.17 0.023,0.329 -0.055,0.471 -0.112,0.204 -0.244,0.398 -0.377,0.589 -0.046,0.066 -0.064,0.112 -0.037,0.194 0.04,0.117 0.06,0.243 0.072,0.367 0.005,0.048 -0.039,0.098 -0.052,0.149 -0.031,0.12 -0.098,0.248 -0.078,0.36 0.103,0.561 0.098,1.128 0.137,1.693 0.05,0.716 0.191,1.426 0.279,2.14 0.062,0.504 0.176,0.995 0.358,1.465 0.104,0.268 0.283,0.509 0.436,0.757 0.225,0.367 0.454,0.732 0.689,1.094 0.189,0.292 0.383,0.581 0.588,0.863 0.202,0.278 0.405,0.556 0.632,0.812 0.413,0.467 0.865,0.896 1.444,1.152 0.375,0.167 0.768,0.293 1.148,0.451 0.319,0.134 0.627,0.294 0.944,0.431 0.148,0.064 0.304,0.112 0.46,0.15 0.441,0.109 0.886,0.204 1.326,0.315 0.386,0.098 0.778,0.13 1.172,0.164 0.185,0.016 0.366,0.08 0.549,0.118 0.225,0.047 0.448,0.116 0.675,0.128 0.53,0.028 1.063,0.051 1.592,0.031 0.392,-0.014 0.781,-0.101 1.172,-0.153 0.107,-0.014 0.214,-0.024 0.322,-0.026 0.351,-0.004 0.703,0.003 1.054,-0.007 0.22,-0.006 0.442,-0.016 0.656,-0.06 0.262,-0.054 0.516,-0.133 0.752,-0.273 0.222,-0.131 0.466,-0.223 0.699,-0.335 0.136,-0.065 0.269,-0.136 0.404,-0.204 0.147,-0.073 0.295,-0.145 0.442,-0.218 0.152,-0.076 0.304,-0.152 0.456,-0.227 0.111,-0.056 0.223,-0.11 0.335,-0.166 0.224,-0.111 0.453,-0.211 0.669,-0.335 0.439,-0.253 0.834,-0.563 1.157,-0.957 0.16,-0.194 0.311,-0.395 0.466,-0.593 0.016,-0.021 0.03,-0.05 0.052,-0.061 0.408,-0.19 0.536,-0.61 0.771,-0.941 0.088,-0.124 0.159,-0.262 0.225,-0.399 0.032,-0.066 0.069,-0.161 0.045,-0.217 -0.099,-0.226 0.027,-0.415 0.092,-0.604 0.123,-0.352 0.297,-0.686 0.42,-1.038 0.167,-0.478 0.32,-0.963 0.453,-1.451 0.065,-0.24 0.064,-0.496 0.106,-0.743 0.03,-0.176 0.068,-0.353 0.128,-0.521 0.122,-0.342 0.191,-0.691 0.206,-1.053 0.011,-0.245 0.021,-0.489 0.061,-0.735 0.051,-0.321 0.03,-0.655 0.037,-0.983 0.003,-0.153 0.008,-0.306 -0.003,-0.458 C 11.394,10.841 11.355,10.372 11.319,9.904 11.305,9.725 11.253,9.54 11.285,9.371 11.327,9.152 11.282,8.967 11.197,8.777 11.183,8.746 11.18,8.706 11.182,8.671 11.202,8.42 11.153,8.181 11.084,7.94 11.044,7.799 11.02,7.65 11.017,7.503 11.006,6.994 10.999,6.485 11.007,5.976 11.009,5.814 11.056,5.651 11.096,5.492 11.15,5.284 11.203,5.074 11.283,4.875 11.342,4.728 11.436,4.594 11.528,4.463 11.645,4.296 11.648,4.271 11.529,4.112 11.346,3.867 11.145,3.631 10.994,3.367 10.88,3.168 10.755,3.009 10.574,2.861 10.355,2.682 10.215,2.41 10.01,2.21 9.67,1.878 9.316,1.558 8.948,1.257 8.654,1.017 8.336,0.804 8.018,0.595 7.931,0.537 7.81,0.52 7.701,0.508 7.437,0.481 7.202,0.561 7.01,0.747 6.932,0.824 6.854,0.867 6.747,0.807 6.728,0.796 6.703,0.795 6.681,0.794 6.484,0.785 6.396,0.675 6.346,0.488 6.289,0.273 6.187,0.07 6.114,-0.142 5.983,-0.521 5.793,-0.879 5.813,-1.305 5.828,-1.616 5.758,-1.931 5.755,-2.245 5.752,-2.654 5.784,-3.063 5.789,-3.472 5.79,-3.596 5.765,-3.723 5.731,-3.843 5.648,-4.142 5.556,-4.438 5.461,-4.733 5.414,-4.878 5.355,-5.021 5.297,-5.162 5.247,-5.283 5.123,-5.381 4.943,-5.449"
             style="fill:#fff;fill-opacity:1;fill-rule:nonzero;stroke:none"
             id="path6655"
             inkscape:connector-curvature="0" />
        </g>
        <g
           id="g6657"
           transform="translate(233.7237,448.4332)">
          <path
             d="m 0,0 c -0.091,0 -0.155,0.008 -0.217,-0.001 -0.238,-0.035 -0.403,0.086 -0.551,0.248 -0.026,0.029 -0.056,0.062 -0.091,0.075 -0.393,0.148 -0.78,0.682 -0.715,1.086 0.049,0.308 0.001,0.625 0.086,0.917 0.067,0.234 0.193,0.474 0.355,0.654 0.256,0.283 0.565,0.512 0.95,0.618 C 0.551,3.799 1.331,3.516 1.76,2.881 2.185,2.252 2.148,1.413 1.68,0.811 1.413,0.467 1.055,0.279 0.648,0.163 0.605,0.151 0.548,0.142 0.527,0.112 0.425,-0.034 0.273,0.001 0.134,-0.007 0.08,-0.011 0.026,-0.002 0,0"
             style="fill:#fff;fill-opacity:1;fill-rule:nonzero;stroke:none"
             id="path6659"
             inkscape:connector-curvature="0" />
        </g>
        <g
           id="g6661"
           transform="translate(228.554,450.53)">
          <path
             d="m 0,0 c 0,-0.049 -0.005,-0.1 0.001,-0.148 0.04,-0.343 -0.126,-0.594 -0.355,-0.819 -0.013,-0.012 -0.026,-0.025 -0.038,-0.039 -0.214,-0.253 -0.466,-0.391 -0.819,-0.365 -0.236,0.018 -0.477,-0.053 -0.717,-0.073 -0.333,-0.028 -0.583,0.13 -0.789,0.376 -0.155,0.185 -0.313,0.367 -0.465,0.554 -0.137,0.167 -0.191,0.361 -0.178,0.577 0.009,0.144 -0.01,0.29 0.009,0.431 0.065,0.514 0.335,0.913 0.735,1.224 0.336,0.262 0.728,0.377 1.152,0.332 0.612,-0.066 0.973,-0.456 1.213,-0.987 0.037,-0.081 0.069,-0.167 0.118,-0.24 C -0.029,0.671 -0.008,0.5 -0.002,0.324 0.002,0.216 -0.001,0.108 -0.001,0 Z"
             style="fill:#fff;fill-opacity:1;fill-rule:nonzero;stroke:none"
             id="path6663"
             inkscape:connector-curvature="0" />
        </g>
        <g
           id="g6665"
           transform="translate(231.692,444.9249)">
          <path
             d="m 0,0 c 0.042,-0.707 -0.481,-1.333 -1.021,-1.546 -0.677,-0.267 -1.28,-0.138 -1.848,0.321 -0.365,0.295 -0.447,0.696 -0.574,1.102 -0.093,0.297 0.019,0.521 0.128,0.765 0.065,0.143 0.129,0.288 0.178,0.436 0.059,0.179 0.194,0.263 0.357,0.313 0.44,0.137 0.878,0.258 1.351,0.226 C -1.178,1.6 -0.923,1.601 -0.688,1.518 -0.576,1.478 -0.475,1.355 -0.41,1.246 -0.297,1.054 -0.201,0.849 -0.126,0.639 -0.053,0.436 -0.016,0.219 0.036,0.009 0.024,0.006 0.012,0.003 0,0"
             style="fill:#fff;fill-opacity:1;fill-rule:nonzero;stroke:none"
             id="path6667"
             inkscape:connector-curvature="0" />
        </g>
      </g>
    </g>
  </g>
</svg>
