<?xml version="1.0" encoding="UTF-8" standalone="no"?>
<!-- Created with Inkscape (http://www.inkscape.org/) -->

<svg
   xmlns:dc="http://purl.org/dc/elements/1.1/"
   xmlns:cc="http://creativecommons.org/ns#"
   xmlns:rdf="http://www.w3.org/1999/02/22-rdf-syntax-ns#"
   xmlns:svg="http://www.w3.org/2000/svg"
   xmlns="http://www.w3.org/2000/svg"
   xmlns:sodipodi="http://sodipodi.sourceforge.net/DTD/sodipodi-0.dtd"
   xmlns:inkscape="http://www.inkscape.org/namespaces/inkscape"
   width="10.243561mm"
   height="9.5440636mm"
   viewBox="0 0 10.243561 9.5440636"
   version="1.1"
   id="svg7230"
   inkscape:version="0.92.5 (2060ec1f9f, 2020-04-08)"
   sodipodi:docname="skaven.svg">
  <defs
     id="defs7224">
    <clipPath
       clipPathUnits="userSpaceOnUse"
       id="clipPath6527">
      <path
         d="m 215.328,557.878 h 29.082 v 27.057 h -29.082 z"
         id="path6525"
         inkscape:connector-curvature="0" />
    </clipPath>
  </defs>
  <sodipodi:namedview
     id="base"
     pagecolor="#ffffff"
     bordercolor="#666666"
     borderopacity="1.0"
     inkscape:pageopacity="0.0"
     inkscape:pageshadow="2"
     inkscape:zoom="0.35"
     inkscape:cx="182.21505"
     inkscape:cy="-173.39255"
     inkscape:document-units="mm"
     inkscape:current-layer="layer1"
     showgrid="false"
     fit-margin-top="0"
     fit-margin-left="0"
     fit-margin-right="0"
     fit-margin-bottom="0"
     inkscape:window-width="1920"
     inkscape:window-height="1017"
     inkscape:window-x="-8"
     inkscape:window-y="-8"
     inkscape:window-maximized="1" />
  <metadata
     id="metadata7227">
    <rdf:RDF>
      <cc:Work
         rdf:about="">
        <dc:format>image/svg+xml</dc:format>
        <dc:type
           rdf:resource="http://purl.org/dc/dcmitype/StillImage" />
        <dc:title></dc:title>
      </cc:Work>
    </rdf:RDF>
  </metadata>
  <g
     inkscape:label="Layer 1"
     inkscape:groupmode="layer"
     id="layer1"
     transform="translate(-57.622268,-93.41249)">
    <g
       transform="matrix(0.35277777,0,0,-0.35277777,-18.340664,299.76351)"
       id="g6521">
      <g
         id="g6523"
         clip-path="url(#clipPath6527)">
        <g
           id="g6529"
           transform="translate(230.2987,570.3146)">
          <path
             d="m 0,0 c 0.025,0.042 0.039,0.059 0.047,0.079 0.154,0.366 0.421,0.673 0.54,1.061 0.053,0.174 0.171,0.327 0.25,0.494 0.319,0.667 0.633,1.337 0.954,2.002 0.057,0.119 0.136,0.23 0.22,0.331 0.152,0.185 0.283,0.379 0.353,0.611 0.05,0.169 0.1,0.34 0.167,0.503 C 2.638,5.34 2.757,5.594 2.874,5.848 2.91,5.929 2.957,6.004 2.997,6.083 3.187,6.45 3.386,6.813 3.561,7.187 3.639,7.356 3.667,7.548 3.726,7.758 3.605,7.77 3.52,7.783 3.435,7.784 3.043,7.789 2.65,7.781 2.258,7.795 1.77,7.813 1.283,7.853 0.795,7.874 0.529,7.886 0.262,7.885 -0.004,7.878 -0.277,7.871 -0.55,7.844 -0.824,7.839 -1.312,7.83 -1.801,7.83 -2.29,7.83 c -0.443,0 -0.887,0.008 -1.33,0.006 -0.083,0 -0.166,-0.03 -0.245,-0.046 0.05,-0.228 0.081,-0.434 0.141,-0.63 0.105,-0.346 0.189,-0.7 0.378,-1.016 C -3.312,6.088 -3.299,6.02 -3.271,5.959 -3.181,5.765 -3.103,5.563 -2.993,5.381 -2.705,4.907 -2.489,4.389 -2.12,3.966 -2.1,3.944 -2.088,3.916 -2.073,3.891 -1.736,3.317 -1.389,2.749 -1.066,2.167 -0.848,1.773 -0.632,1.372 -0.478,0.951 -0.357,0.62 -0.17,0.337 0,0 m -14.971,11.699 c 0.58,-0.163 1.11,-0.327 1.648,-0.458 0.285,-0.069 0.584,-0.077 0.876,-0.119 0.567,-0.084 1.137,-0.038 1.706,-0.05 0.219,-0.004 0.439,0 0.664,0 0.004,0.026 0.015,0.05 0.008,0.065 -0.155,0.352 -0.317,0.699 -0.541,1.017 -0.241,0.344 -0.467,0.698 -0.594,1.109 -0.066,0.215 -0.207,0.407 -0.313,0.61 -0.123,0.234 -0.244,0.468 -0.376,0.723 0.083,0.011 0.133,0.024 0.181,0.021 0.429,-0.019 0.858,-0.042 1.287,-0.062 0.399,-0.018 0.799,-0.05 1.198,-0.047 0.548,0.005 1.096,0.036 1.643,0.057 0.206,0.008 0.219,0.001 0.267,-0.206 0.056,-0.246 0.099,-0.494 0.164,-0.737 0.129,-0.487 0.256,-0.974 0.407,-1.454 0.121,-0.386 0.276,-0.763 0.421,-1.159 0.226,-0.022 0.451,-0.058 0.676,-0.062 0.592,-0.008 1.184,-10e-4 1.776,-0.002 0.088,0 0.176,-0.016 0.265,-0.021 0.251,-0.014 0.506,-0.063 0.752,-0.035 1.307,0.148 2.619,0.095 3.93,0.113 0.704,0.01 1.407,0.041 2.11,0.045 0.362,0.002 0.733,0.007 1.084,-0.066 0.312,-0.066 0.617,-0.034 0.925,-0.057 0.127,-0.009 0.24,0.002 0.274,0.156 0.004,0.021 0.015,0.046 0.032,0.058 0.23,0.163 0.226,0.432 0.306,0.665 0.081,0.236 0.186,0.463 0.262,0.7 0.164,0.513 0.322,1.029 0.47,1.547 0.04,0.139 0.037,0.291 0.053,0.437 0.027,0.01 0.046,0.025 0.067,0.025 0.666,0.018 1.332,0.034 1.999,0.05 0.044,0.002 0.092,0.009 0.133,-0.003 0.416,-0.124 0.833,-0.03 1.25,-0.007 0.376,0.022 0.754,0.053 1.128,-0.034 0.163,-0.039 0.183,-0.088 0.087,-0.221 -0.165,-0.228 -0.343,-0.45 -0.48,-0.693 -0.126,-0.224 -0.22,-0.468 -0.303,-0.712 -0.212,-0.624 -0.428,-1.245 -0.715,-1.84 -0.009,-0.018 -0.005,-0.042 -0.01,-0.096 1.45,0.127 2.875,0.35 4.274,0.602 0.091,-0.122 0.027,-0.18 -0.018,-0.233 C 13.881,11.181 13.838,11.03 13.865,10.836 13.901,10.573 13.771,10.349 13.624,10.139 13.574,10.068 13.536,9.988 13.49,9.913 13.406,9.775 13.318,9.64 13.237,9.5 13.156,9.36 13.063,9.223 13.007,9.073 12.815,8.556 12.543,8.082 12.263,7.611 12.181,7.472 12.067,7.406 11.904,7.388 11.726,7.369 11.556,7.357 11.378,7.408 10.49,7.661 9.585,7.711 8.67,7.616 8.471,7.595 8.273,7.57 8.044,7.543 7.918,7.292 7.782,7.024 7.648,6.754 7.585,6.629 7.525,6.502 7.467,6.375 7.42,6.275 7.369,6.175 7.335,6.07 7.222,5.716 7.072,5.381 6.867,5.071 6.818,4.997 6.782,4.914 6.744,4.834 6.627,4.588 6.521,4.336 6.392,4.096 6.248,3.83 6.076,3.579 5.927,3.315 5.757,3.014 5.597,2.707 5.433,2.401 5.311,2.174 5.186,1.948 5.069,1.718 4.899,1.382 4.746,1.036 4.565,0.706 4.327,0.274 4.239,-0.211 4.051,-0.659 3.934,-0.936 3.78,-1.201 3.617,-1.455 3.484,-1.661 3.347,-1.859 3.257,-2.089 3.2,-2.233 3.109,-2.362 3.039,-2.501 2.813,-2.949 2.589,-3.399 2.365,-3.848 2.246,-4.086 2.133,-4.327 2.007,-4.561 1.941,-4.682 1.925,-4.8 1.976,-4.923 2.101,-5.223 2.226,-5.524 2.364,-5.818 2.445,-5.992 2.545,-6.157 2.647,-6.32 2.788,-6.545 2.919,-6.781 3.09,-6.983 3.381,-7.328 3.697,-7.652 4.009,-7.979 4.153,-8.129 4.32,-8.251 4.518,-8.329 4.575,-8.352 4.622,-8.401 4.689,-8.45 4.543,-8.595 4.411,-8.72 4.288,-8.853 4.196,-8.952 4.061,-9.018 4.049,-9.182 4.046,-9.222 3.984,-9.258 3.948,-9.295 3.792,-9.452 3.603,-9.589 3.487,-9.772 3.341,-10 3.158,-10.188 2.984,-10.388 2.916,-10.466 2.841,-10.538 2.77,-10.612 2.749,-10.633 2.718,-10.65 2.709,-10.675 c -0.113,-0.319 -0.375,-0.52 -0.597,-0.751 -0.19,-0.197 -0.387,-0.388 -0.584,-0.578 -0.083,-0.08 -0.177,-0.149 -0.274,-0.229 -0.165,0.168 -0.257,0.34 -0.32,0.544 -0.143,0.467 -0.313,0.925 -0.469,1.387 -0.055,0.161 -0.107,0.324 -0.152,0.488 -0.031,0.108 -0.069,0.202 -0.153,0.287 -0.054,0.056 -0.07,0.158 -0.082,0.242 -0.026,0.186 -0.095,0.285 -0.233,0.308 -0.133,0.022 -0.304,-0.065 -0.365,-0.201 -0.289,-0.646 -0.574,-1.295 -0.863,-1.942 -0.063,-0.141 -0.142,-0.275 -0.208,-0.415 -0.093,-0.201 -0.192,-0.401 -0.268,-0.608 -0.056,-0.155 -0.152,-0.246 -0.336,-0.294 -0.288,0.31 -0.588,0.633 -0.887,0.955 -0.086,0.092 -0.17,0.186 -0.253,0.279 -0.282,0.313 -0.564,0.625 -0.842,0.942 -0.063,0.071 -0.133,0.15 -0.158,0.238 -0.103,0.369 -0.372,0.593 -0.666,0.8 -0.139,0.098 -0.278,0.195 -0.413,0.297 -0.217,0.165 -0.183,0.421 0.066,0.541 0.064,0.031 0.121,0.083 0.172,0.134 0.779,0.776 1.472,1.624 2.105,2.521 0.243,0.345 0.452,0.713 0.681,1.067 0.089,0.137 0.09,0.287 0.049,0.427 -0.073,0.246 -0.171,0.485 -0.262,0.726 -0.071,0.187 -0.138,0.376 -0.222,0.556 -0.206,0.442 -0.408,0.887 -0.636,1.318 -0.35,0.662 -0.68,1.332 -0.947,2.032 -0.096,0.25 -0.204,0.492 -0.395,0.689 -0.056,0.057 -0.09,0.135 -0.13,0.206 C -5.323,1.98 -5.702,2.674 -5.985,3.416 -6.021,3.51 -6.086,3.593 -6.137,3.681 -6.16,3.719 -6.185,3.756 -6.205,3.795 -6.537,4.438 -6.871,5.08 -7.199,5.725 -7.47,6.259 -7.74,6.794 -7.999,7.334 -8.083,7.509 -8.211,7.565 -8.389,7.56 -8.686,7.553 -8.982,7.551 -9.278,7.546 -9.352,7.545 -9.43,7.555 -9.5,7.536 -9.856,7.442 -10.214,7.352 -10.563,7.237 -10.921,7.12 -11.27,6.975 -11.623,6.844 -11.665,6.829 -11.709,6.822 -11.752,6.809 -11.856,6.778 -11.927,6.804 -11.995,6.9 c -0.246,0.344 -0.565,0.612 -0.896,0.874 -0.13,0.103 -0.206,0.284 -0.283,0.442 -0.126,0.259 -0.233,0.527 -0.347,0.792 -0.033,0.074 -0.071,0.148 -0.094,0.225 -0.147,0.502 -0.387,0.958 -0.68,1.387 -0.2,0.292 -0.41,0.577 -0.609,0.869 -0.036,0.053 -0.042,0.128 -0.067,0.21"
             style="fill:#fff;fill-opacity:1;fill-rule:nonzero;stroke:none"
             id="path6531"
             inkscape:connector-curvature="0" />
        </g>
      </g>
    </g>
  </g>
</svg>
