<?xml version="1.0" encoding="UTF-8" standalone="no"?>
<!-- Created with Inkscape (http://www.inkscape.org/) -->

<svg
   xmlns:dc="http://purl.org/dc/elements/1.1/"
   xmlns:cc="http://creativecommons.org/ns#"
   xmlns:rdf="http://www.w3.org/1999/02/22-rdf-syntax-ns#"
   xmlns:svg="http://www.w3.org/2000/svg"
   xmlns="http://www.w3.org/2000/svg"
   xmlns:sodipodi="http://sodipodi.sourceforge.net/DTD/sodipodi-0.dtd"
   xmlns:inkscape="http://www.inkscape.org/namespaces/inkscape"
   width="11.250677mm"
   height="11.50178mm"
   viewBox="0 0 11.250677 11.50178"
   version="1.1"
   id="svg6867"
   inkscape:version="0.92.5 (2060ec1f9f, 2020-04-08)"
   sodipodi:docname="slaanesh-demons.svg">
  <defs
     id="defs6861">
    <clipPath
       clipPathUnits="userSpaceOnUse"
       id="clipPath6675">
      <path
         d="m 213.57,381.177 h 32.303 v 32.667 H 213.57 Z"
         id="path6673"
         inkscape:connector-curvature="0" />
    </clipPath>
  </defs>
  <sodipodi:namedview
     id="base"
     pagecolor="#ffffff"
     bordercolor="#666666"
     borderopacity="1.0"
     inkscape:pageopacity="0.0"
     inkscape:pageshadow="2"
     inkscape:zoom="0.35"
     inkscape:cx="-130.16745"
     inkscape:cy="-261.12151"
     inkscape:document-units="mm"
     inkscape:current-layer="layer1"
     showgrid="false"
     fit-margin-top="0"
     fit-margin-left="0"
     fit-margin-right="0"
     fit-margin-bottom="0"
     inkscape:window-width="1920"
     inkscape:window-height="1017"
     inkscape:window-x="-8"
     inkscape:window-y="-8"
     inkscape:window-maximized="1" />
  <metadata
     id="metadata6864">
    <rdf:RDF>
      <cc:Work
         rdf:about="">
        <dc:format>image/svg+xml</dc:format>
        <dc:type
           rdf:resource="http://purl.org/dc/dcmitype/StillImage" />
        <dc:title></dc:title>
      </cc:Work>
    </rdf:RDF>
  </metadata>
  <g
     inkscape:label="Layer 1"
     inkscape:groupmode="layer"
     id="layer1"
     transform="translate(-140.27347,-68.243154)">
    <g
       transform="matrix(0.35277777,0,0,-0.35277777,64.89585,214.23782)"
       id="g6669">
      <g
         id="g6671"
         clip-path="url(#clipPath6675)">
        <g
           id="g6677"
           transform="translate(225.4722,400.8461)">
          <path
             d="M 0,0 C -0.366,0.07 -0.706,0.153 -1.051,0.196 -1.669,0.273 -2.289,0.351 -2.886,0.06 -3.008,0 -3.197,-0.033 -3.31,0.018 -3.846,0.261 -4.34,0.051 -4.829,-0.099 -5.368,-0.265 -5.368,-0.284 -5.713,0.143 -5.775,0.219 -5.889,0.253 -5.979,0.307 -6.026,0.224 -6.103,0.145 -6.115,0.057 c -0.06,-0.418 -0.262,-0.701 -0.632,-0.935 -0.751,-0.475 -1.551,-0.896 -2.125,-1.61 -0.189,-0.234 -0.412,-0.375 -0.739,-0.305 -0.18,0.038 -0.308,-0.076 -0.23,-0.262 0.234,-0.562 0.189,-1.036 -0.368,-1.382 -0.017,-0.01 -0.024,-0.037 -0.038,-0.055 -0.692,-0.871 -1.241,-1.804 -1.378,-2.94 -0.129,-1.073 -0.278,-2.153 -0.088,-3.22 0.162,-0.909 0.39,-1.824 0.734,-2.678 0.234,-0.582 0.438,-1.256 1.073,-1.603 0.036,-0.02 0.068,-0.065 0.082,-0.106 0.097,-0.282 0.211,-0.562 0.273,-0.852 0.055,-0.259 0.232,-0.426 0.503,-0.408 0.082,0.005 0.189,-0.001 0.248,-0.047 0.279,-0.22 0.572,-0.432 0.808,-0.693 0.286,-0.317 0.498,-0.698 0.907,-0.897 0.621,-0.301 1.229,-0.63 1.853,-0.926 0.21,-0.099 0.333,-0.243 0.347,-0.455 0.021,-0.301 0.14,-0.352 0.396,-0.223 0.555,0.282 1.141,0.238 1.733,0.16 0.435,-0.057 0.872,-0.123 1.309,-0.13 0.313,-0.006 0.626,0.09 0.941,0.121 1.258,0.125 2.423,0.54 3.543,1.106 0.167,0.085 0.369,0.106 0.523,0.205 0.132,0.085 0.226,0.235 0.321,0.368 0.061,0.085 0.069,0.216 0.141,0.283 0.363,0.335 0.737,0.659 1.111,0.983 0.404,0.35 0.648,0.913 1.317,0.912 0.212,0 0.29,0.321 0.147,0.503 -0.144,0.185 -0.127,0.31 0.033,0.496 0.333,0.385 0.728,0.748 0.724,1.327 -0.003,0.324 0.123,0.589 0.403,0.78 0.17,0.116 0.112,0.244 -0.019,0.363 -0.232,0.21 -0.253,0.482 -0.15,0.745 0.348,0.888 0.319,1.809 0.17,2.711 -0.158,0.956 -0.313,1.906 -0.319,2.878 0,0.093 -0.074,0.193 -0.133,0.277 -0.151,0.215 -0.324,0.415 -0.468,0.635 -0.174,0.263 -0.31,0.551 -0.494,0.807 -0.195,0.271 -0.165,0.424 0.136,0.588 0.101,0.056 0.194,0.166 0.241,0.272 0.15,0.343 0.645,0.595 0.995,0.443 0.585,-0.253 1.151,-0.544 1.384,-1.206 0.08,-0.23 0.212,-0.34 0.479,-0.332 0.221,0.006 0.417,-0.061 0.295,-0.397 -0.119,-0.329 -0.163,-0.681 0.208,-0.935 0.103,-0.07 0.159,-0.219 0.22,-0.339 0.374,-0.729 0.406,-1.498 0.276,-2.289 -0.021,-0.125 -0.022,-0.266 0.017,-0.384 0.073,-0.22 0.237,-0.42 0.267,-0.642 0.131,-0.954 0.223,-1.913 0.34,-2.869 0.018,-0.153 0.09,-0.299 0.137,-0.449 0.104,0.116 0.212,0.23 0.312,0.35 0.027,0.033 0.034,0.084 0.049,0.126 0.479,1.323 0.7,2.702 0.782,4.094 0.047,0.799 -0.135,1.61 -0.103,2.411 0.053,1.347 -0.504,2.532 -0.87,3.771 -0.01,0.032 -0.031,0.061 -0.043,0.092 -0.092,0.253 -0.176,0.509 -0.279,0.757 -0.067,0.162 -0.186,0.455 -0.239,0.445 -0.401,-0.071 -0.58,0.262 -0.847,0.416 -0.493,0.285 -0.506,0.366 -0.188,0.84 0.06,0.089 0.189,0.13 0.287,0.193 0.105,0.068 0.267,0.111 0.307,0.206 0.302,0.725 0.929,1.106 1.538,1.513 0.103,0.069 0.215,0.181 0.245,0.293 0.137,0.518 0.476,0.717 0.986,0.536 0.223,-0.079 0.433,-0.236 0.659,-0.261 1.334,-0.15 2.631,-0.231 3.899,0.48 1.533,0.859 2.566,2.762 2.169,4.566 -0.037,0.17 -0.099,0.334 -0.179,0.599 C 19.631,8.616 19.495,8.428 19.354,8.243 19.186,8.023 19.052,7.751 18.835,7.598 18.432,7.312 17.984,7.088 17.548,6.852 16.078,6.057 14.327,6.648 13.52,7.866 c -0.854,1.288 -0.737,2.445 -0.047,3.602 0.349,0.584 0.941,0.974 1.606,1.207 0.103,0.036 0.198,0.095 0.296,0.144 -0.005,0.034 -0.011,0.069 -0.017,0.103 -0.137,0.026 -0.274,0.077 -0.41,0.075 C 14.105,12.984 13.323,12.79 12.536,12.438 11.471,11.962 10.937,11.098 10.618,10.103 10.376,9.349 10.35,8.523 10.26,7.726 10.235,7.501 10.298,7.255 10.366,7.033 10.654,6.094 10.821,5.187 9.973,4.414 9.607,4.08 9.344,3.529 8.705,3.941 8.678,3.959 8.622,3.933 8.618,3.933 8.579,3.65 8.61,3.357 8.496,3.14 8.089,2.367 6.925,2.492 6.473,2.921 6.316,3.07 6.11,3.282 6.114,3.462 6.121,3.836 5.903,3.983 5.643,4.084 4.834,4.402 4.022,4.717 3.195,4.981 2.748,5.123 2.269,5.195 1.8,5.235 1.138,5.291 0.471,5.308 -0.193,5.306 -1.344,5.302 -2.502,5.347 -3.641,5.224 -4.38,5.144 -5.094,4.811 -5.81,4.565 -5.931,4.524 -6.007,4.351 -6.103,4.239 l 0.071,-0.093 c 0.964,0 1.928,-0.001 2.892,0.001 0.773,10e-4 1.519,-0.13 2.178,-0.549 C -0.411,3.249 0.207,3.221 0.817,3.114 1.156,3.055 1.579,2.975 1.777,2.744 2.034,2.442 2.319,2.426 2.628,2.385 3.708,2.24 4.484,1.735 4.803,0.638 4.905,0.288 4.627,-0.297 4.264,-0.351 4.054,-0.383 3.961,-0.476 3.865,-0.652 3.591,-1.153 3.313,-1.199 2.81,-0.911 2.214,-0.571 1.692,-0.087 0.989,0.05 0.947,0.058 0.905,0.086 0.873,0.115 0.476,0.476 0.34,0.46 0,0"
             style="fill:#fff;fill-opacity:1;fill-rule:nonzero;stroke:none"
             id="path6679"
             inkscape:connector-curvature="0" />
        </g>
        <g
           id="g6681"
           transform="translate(225.4722,400.8461)">
          <path
             d="M 0,0 C 0.34,0.46 0.476,0.476 0.873,0.115 0.905,0.086 0.947,0.058 0.989,0.05 1.692,-0.087 2.214,-0.571 2.81,-0.911 c 0.503,-0.288 0.781,-0.242 1.055,0.259 0.096,0.176 0.189,0.269 0.399,0.301 0.363,0.054 0.641,0.639 0.539,0.989 C 4.484,1.735 3.708,2.24 2.628,2.385 2.319,2.426 2.034,2.442 1.777,2.744 1.579,2.975 1.156,3.055 0.817,3.114 0.207,3.221 -0.411,3.249 -0.962,3.598 -1.621,4.017 -2.367,4.148 -3.14,4.147 -4.104,4.145 -5.068,4.146 -6.032,4.146 l -0.071,0.093 c 0.096,0.112 0.172,0.285 0.293,0.326 0.716,0.246 1.43,0.579 2.169,0.659 1.139,0.123 2.297,0.078 3.448,0.082 C 0.471,5.308 1.138,5.291 1.8,5.235 2.269,5.195 2.748,5.123 3.195,4.981 4.022,4.717 4.834,4.402 5.643,4.084 5.903,3.983 6.121,3.836 6.114,3.462 6.11,3.282 6.316,3.07 6.473,2.921 6.925,2.492 8.089,2.367 8.496,3.14 8.61,3.357 8.579,3.65 8.618,3.933 c 0.004,0 0.06,0.026 0.087,0.008 0.639,-0.412 0.902,0.139 1.268,0.473 0.848,0.773 0.681,1.68 0.393,2.619 -0.068,0.222 -0.131,0.468 -0.106,0.693 0.09,0.797 0.116,1.623 0.358,2.377 0.319,0.995 0.853,1.859 1.918,2.335 0.787,0.352 1.569,0.546 2.412,0.559 0.136,0.002 0.273,-0.049 0.41,-0.075 0.006,-0.034 0.012,-0.069 0.017,-0.103 -0.098,-0.049 -0.193,-0.108 -0.296,-0.144 -0.665,-0.233 -1.257,-0.623 -1.606,-1.207 -0.69,-1.157 -0.807,-2.314 0.047,-3.602 0.807,-1.218 2.558,-1.809 4.028,-1.014 0.436,0.236 0.884,0.46 1.287,0.746 0.217,0.153 0.351,0.425 0.519,0.645 0.141,0.185 0.277,0.373 0.47,0.635 0.08,-0.265 0.142,-0.429 0.179,-0.599 C 20.4,6.475 19.367,4.572 17.834,3.713 16.566,3.002 15.269,3.083 13.935,3.233 13.709,3.258 13.499,3.415 13.276,3.494 12.766,3.675 12.427,3.476 12.29,2.958 12.26,2.846 12.148,2.734 12.045,2.665 11.436,2.258 10.809,1.877 10.507,1.152 10.467,1.057 10.305,1.014 10.2,0.946 10.102,0.883 9.973,0.842 9.913,0.753 9.595,0.279 9.608,0.198 10.101,-0.087 c 0.267,-0.154 0.446,-0.487 0.847,-0.416 0.053,0.01 0.172,-0.283 0.239,-0.445 0.103,-0.248 0.187,-0.504 0.279,-0.757 0.012,-0.031 0.033,-0.06 0.043,-0.092 0.366,-1.239 0.923,-2.424 0.87,-3.771 -0.032,-0.801 0.15,-1.612 0.103,-2.411 -0.082,-1.392 -0.303,-2.771 -0.782,-4.094 -0.015,-0.042 -0.022,-0.093 -0.049,-0.126 -0.1,-0.12 -0.208,-0.234 -0.312,-0.35 -0.047,0.15 -0.119,0.296 -0.137,0.449 -0.117,0.956 -0.209,1.915 -0.34,2.869 -0.03,0.222 -0.194,0.422 -0.267,0.642 -0.039,0.118 -0.038,0.259 -0.017,0.384 0.13,0.791 0.098,1.56 -0.276,2.289 -0.061,0.12 -0.117,0.269 -0.22,0.339 C 9.711,-5.323 9.755,-4.971 9.874,-4.642 9.996,-4.306 9.8,-4.239 9.579,-4.245 9.312,-4.253 9.18,-4.143 9.1,-3.913 8.867,-3.251 8.301,-2.96 7.716,-2.707 7.366,-2.555 6.871,-2.807 6.721,-3.15 6.674,-3.256 6.581,-3.366 6.48,-3.422 6.179,-3.586 6.149,-3.739 6.344,-4.01 c 0.184,-0.256 0.32,-0.544 0.494,-0.807 0.144,-0.22 0.317,-0.42 0.468,-0.635 0.059,-0.084 0.133,-0.184 0.133,-0.277 0.006,-0.972 0.161,-1.922 0.319,-2.878 0.149,-0.902 0.178,-1.823 -0.17,-2.711 -0.103,-0.263 -0.082,-0.535 0.15,-0.745 0.131,-0.119 0.189,-0.247 0.019,-0.363 -0.28,-0.191 -0.406,-0.456 -0.403,-0.78 0.004,-0.579 -0.391,-0.942 -0.724,-1.327 -0.16,-0.186 -0.177,-0.311 -0.033,-0.496 0.143,-0.182 0.065,-0.503 -0.147,-0.503 -0.669,10e-4 -0.913,-0.562 -1.317,-0.912 -0.374,-0.324 -0.748,-0.648 -1.111,-0.983 -0.072,-0.067 -0.08,-0.198 -0.141,-0.283 -0.095,-0.133 -0.189,-0.283 -0.321,-0.368 -0.154,-0.099 -0.356,-0.12 -0.523,-0.205 -1.12,-0.566 -2.285,-0.981 -3.543,-1.106 -0.315,-0.031 -0.628,-0.127 -0.941,-0.121 -0.437,0.007 -0.874,0.073 -1.309,0.13 -0.592,0.078 -1.178,0.122 -1.733,-0.16 -0.256,-0.129 -0.375,-0.078 -0.396,0.223 -0.014,0.212 -0.137,0.356 -0.347,0.455 -0.624,0.296 -1.232,0.625 -1.853,0.926 -0.409,0.199 -0.621,0.58 -0.907,0.897 -0.236,0.261 -0.529,0.473 -0.808,0.693 -0.059,0.046 -0.166,0.052 -0.248,0.047 -0.271,-0.018 -0.448,0.149 -0.503,0.408 -0.062,0.29 -0.176,0.57 -0.273,0.852 -0.014,0.041 -0.046,0.086 -0.082,0.106 -0.635,0.347 -0.839,1.021 -1.073,1.603 -0.344,0.854 -0.572,1.769 -0.734,2.678 -0.19,1.067 -0.041,2.147 0.088,3.22 0.137,1.136 0.686,2.069 1.378,2.94 0.014,0.018 0.021,0.045 0.038,0.055 0.557,0.346 0.602,0.82 0.368,1.382 -0.078,0.186 0.05,0.3 0.23,0.262 0.327,-0.07 0.55,0.071 0.739,0.305 0.574,0.714 1.374,1.135 2.125,1.61 0.37,0.234 0.572,0.517 0.632,0.935 0.012,0.088 0.089,0.167 0.136,0.25 0.09,-0.054 0.204,-0.088 0.266,-0.164 0.345,-0.427 0.345,-0.408 0.884,-0.242 0.489,0.15 0.983,0.36 1.519,0.117 C -3.197,-0.033 -3.008,0 -2.886,0.06 -2.289,0.351 -1.669,0.273 -1.051,0.196 -0.706,0.153 -0.366,0.07 0,0"
             style="fill:#fff;fill-opacity:1;fill-rule:nonzero;stroke:none"
             id="path6683"
             inkscape:connector-curvature="0" />
        </g>
      </g>
    </g>
  </g>
</svg>
