<?xml version="1.0" encoding="UTF-8" standalone="no"?>
<!-- Created with Inkscape (http://www.inkscape.org/) -->

<svg
   xmlns:dc="http://purl.org/dc/elements/1.1/"
   xmlns:cc="http://creativecommons.org/ns#"
   xmlns:rdf="http://www.w3.org/1999/02/22-rdf-syntax-ns#"
   xmlns:svg="http://www.w3.org/2000/svg"
   xmlns="http://www.w3.org/2000/svg"
   xmlns:sodipodi="http://sodipodi.sourceforge.net/DTD/sodipodi-0.dtd"
   xmlns:inkscape="http://www.inkscape.org/namespaces/inkscape"
   width="11.297003mm"
   height="11.369251mm"
   viewBox="0 0 11.297003 11.369251"
   version="1.1"
   id="svg7011"
   inkscape:version="0.92.5 (2060ec1f9f, 2020-04-08)"
   sodipodi:docname="slaves-to-darkness.svg">
  <defs
     id="defs7005">
    <clipPath
       clipPathUnits="userSpaceOnUse"
       id="clipPath6787">
      <path
         d="m 173.408,512.752 h 32.024 v 32.228 h -32.024 z"
         id="path6785"
         inkscape:connector-curvature="0" />
    </clipPath>
  </defs>
  <sodipodi:namedview
     id="base"
     pagecolor="#ffffff"
     bordercolor="#666666"
     borderopacity="1.0"
     inkscape:pageopacity="0.0"
     inkscape:pageshadow="2"
     inkscape:zoom="0.35"
     inkscape:cx="72.777238"
     inkscape:cy="-138.51481"
     inkscape:document-units="mm"
     inkscape:current-layer="layer1"
     showgrid="false"
     fit-margin-top="0"
     fit-margin-left="0"
     fit-margin-right="0"
     fit-margin-bottom="0"
     inkscape:window-width="1920"
     inkscape:window-height="1017"
     inkscape:window-x="-8"
     inkscape:window-y="-8"
     inkscape:window-maximized="1" />
  <metadata
     id="metadata7008">
    <rdf:RDF>
      <cc:Work
         rdf:about="">
        <dc:format>image/svg+xml</dc:format>
        <dc:type
           rdf:resource="http://purl.org/dc/dcmitype/StillImage" />
        <dc:title></dc:title>
      </cc:Work>
    </rdf:RDF>
  </metadata>
  <g
     inkscape:label="Layer 1"
     inkscape:groupmode="layer"
     id="layer1"
     transform="translate(-86.577689,-100.81537)">
    <g
       transform="matrix(0.35277777,0,0,-0.35277777,25.40299,293.07213)"
       id="g6781">
      <g
         id="g6783"
         clip-path="url(#clipPath6787)">
        <g
           id="g6789"
           transform="translate(189.3616,521.3758)">
          <path
             d="M 0,0 C 0.609,-0.002 1.083,0.043 1.551,0.138 3.442,0.522 4.959,1.499 6.126,3.03 6.484,3.5 6.752,4.019 6.955,4.573 7.068,4.884 7.184,5.195 7.296,5.507 7.424,5.864 7.531,6.224 7.505,6.612 7.49,6.839 7.503,7.068 7.503,7.297 7.503,7.349 7.504,7.402 7.497,7.453 7.463,7.696 7.411,7.938 7.394,8.182 7.365,8.603 7.362,9.025 7.341,9.447 7.326,9.731 7.296,10.014 7.197,10.286 6.837,11.273 6.299,12.154 5.577,12.915 4.106,14.464 2.297,15.281 0.16,15.287 -1.857,15.293 -3.594,14.555 -5.046,13.155 -5.431,12.783 -5.791,12.383 -6.077,11.932 -6.412,11.403 -6.667,10.829 -6.924,10.258 -6.988,10.117 -7.057,9.978 -7.062,9.814 -7.071,9.548 -7.094,9.282 -7.113,9.017 -7.116,8.972 -7.133,8.928 -7.139,8.883 -7.151,8.799 -7.165,8.716 -7.169,8.632 -7.188,8.223 -7.205,7.814 -7.223,7.405 -7.224,7.38 -7.228,7.353 -7.235,7.328 -7.315,7.026 -7.287,6.717 -7.26,6.415 -7.232,6.101 -7.159,5.788 -7.081,5.481 -6.97,5.039 -6.806,4.614 -6.6,4.206 -6.314,3.637 -5.935,3.135 -5.527,2.651 -5.407,2.509 -5.264,2.401 -5.105,2.308 -5.01,2.253 -4.913,2.193 -4.837,2.115 -4.622,1.898 -4.419,1.67 -4.209,1.448 -4.164,1.401 -4.114,1.358 -4.061,1.321 -2.797,0.457 -1.399,0.018 0,0 m -1.249,-3.973 c 0.006,0.107 0.011,0.17 0.012,0.233 0.002,0.326 0.002,0.652 0.005,0.979 10e-4,0.182 0.012,0.36 0.05,0.542 0.04,0.185 0.009,0.386 0.009,0.596 -0.07,0.014 -0.139,0.031 -0.208,0.042 -0.974,0.156 -1.902,0.455 -2.774,0.915 -0.408,0.215 -0.795,0.473 -1.183,0.725 -0.121,0.079 -0.23,0.106 -0.364,0.063 -0.111,-0.037 -0.225,-0.065 -0.337,-0.101 -0.144,-0.046 -0.252,-0.118 -0.354,-0.249 -0.195,-0.249 -0.439,-0.46 -0.662,-0.688 -0.072,-0.072 -0.143,-0.145 -0.206,-0.209 0.118,-0.334 0.4,-0.332 0.652,-0.37 0.139,-0.021 0.283,-0.004 0.41,-0.004 0.062,-0.097 0.041,-0.165 -0.013,-0.219 -0.058,-0.06 -0.121,-0.12 -0.193,-0.163 -0.134,-0.079 -0.273,-0.156 -0.417,-0.214 -0.088,-0.035 -0.191,-0.051 -0.286,-0.045 -0.204,0.014 -0.399,-0.021 -0.598,-0.057 -0.288,-0.051 -0.58,-0.076 -0.87,-0.119 -0.08,-0.011 -0.158,-0.046 -0.236,-0.072 -0.086,-0.029 -0.169,-0.072 -0.256,-0.088 -0.271,-0.05 -0.537,-0.102 -0.76,-0.282 -0.127,-0.103 -0.283,-0.093 -0.432,-0.076 -0.111,0.012 -0.179,0.132 -0.107,0.193 0.141,0.118 0.126,0.282 0.16,0.426 0.161,0.682 0.31,1.367 0.459,2.052 0.08,0.374 0.153,0.749 0.226,1.124 0.027,0.139 0.037,0.282 0.069,0.42 0.01,0.049 0.055,0.107 0.098,0.125 0.034,0.013 0.102,-0.02 0.133,-0.053 0.037,-0.041 0.053,-0.102 0.076,-0.155 0.117,-0.283 0.231,-0.566 0.351,-0.847 0.022,-0.051 0.064,-0.092 0.109,-0.155 0.052,0.046 0.092,0.076 0.124,0.112 0.117,0.131 0.235,0.261 0.346,0.397 0.14,0.17 0.329,0.274 0.51,0.389 0.123,0.078 0.171,0.174 0.169,0.322 -0.002,0.181 0.028,0.362 0.046,0.543 0.011,0.103 -0.021,0.19 -0.08,0.274 -0.464,0.668 -0.83,1.386 -1.105,2.152 -0.183,0.511 -0.32,1.033 -0.413,1.567 -0.023,0.132 -0.076,0.225 -0.19,0.3 -0.091,0.06 -0.157,0.156 -0.242,0.225 -0.046,0.038 -0.109,0.079 -0.165,0.079 -0.522,0.006 -1.044,0.004 -1.566,0.002 -0.025,0 -0.049,-0.011 -0.09,-0.021 0.023,-0.068 0.044,-0.128 0.065,-0.188 0.047,-0.127 0.094,-0.255 0.142,-0.382 0.008,-0.024 0.017,-0.053 0.036,-0.065 0.149,-0.097 0.164,-0.259 0.201,-0.409 0.027,-0.114 0.042,-0.23 0.062,-0.345 0.014,-0.082 0.007,-0.159 -0.078,-0.201 -0.074,-0.037 -0.142,-0.012 -0.196,0.043 -0.28,0.283 -0.622,0.464 -0.986,0.615 -0.24,0.1 -0.466,0.232 -0.701,0.346 -0.092,0.044 -0.195,0.069 -0.284,0.119 -0.21,0.117 -0.422,0.233 -0.619,0.369 -0.195,0.135 -0.403,0.234 -0.625,0.314 -0.127,0.046 -0.245,0.116 -0.368,0.174 -0.152,0.073 -0.301,0.155 -0.458,0.214 -0.174,0.065 -0.346,0.136 -0.546,0.129 -0.08,-0.003 -0.164,0.105 -0.256,0.169 0.103,0.118 0.21,0.186 0.332,0.234 0.164,0.066 0.314,0.15 0.444,0.277 0.096,0.094 0.223,0.157 0.334,0.236 0.418,0.294 0.861,0.54 1.331,0.74 0.317,0.136 0.637,0.264 0.948,0.414 0.263,0.127 0.513,0.282 0.772,0.42 0.067,0.035 0.147,0.073 0.218,0.069 0.174,-0.009 0.299,0.073 0.419,0.177 0.123,0.109 0.188,0.131 0.251,0.082 0.066,-0.051 0.055,-0.131 -0.031,-0.279 C -11.089,9.645 -11.241,9.38 -11.392,9.115 -11.407,9.088 -11.415,9.057 -11.437,9 c 0.187,0 0.353,-10e-4 0.519,0 0.366,0.002 0.731,0.002 1.096,0.007 0.286,0.003 0.468,0.138 0.531,0.42 0.14,0.629 0.432,1.202 0.666,1.795 0.193,0.49 0.437,0.96 0.666,1.435 0.076,0.158 0.185,0.299 0.263,0.456 0.077,0.156 0.142,0.319 0.198,0.483 0.034,0.099 -0.003,0.204 -0.077,0.27 -0.106,0.095 -0.228,0.171 -0.346,0.252 -0.069,0.047 -0.147,0.081 -0.213,0.133 -0.168,0.133 -0.33,0.273 -0.49,0.405 -0.061,-0.064 -0.114,-0.129 -0.176,-0.184 -0.072,-0.062 -0.122,-0.131 -0.138,-0.228 -0.017,-0.1 -0.05,-0.198 -0.08,-0.314 -0.177,0.171 -0.255,0.344 -0.29,0.571 -0.089,0.578 -0.175,1.159 -0.398,1.709 -0.14,0.344 -0.242,0.702 -0.377,1.047 -0.06,0.156 -0.147,0.306 -0.246,0.441 -0.094,0.126 -0.08,0.267 -0.091,0.402 -0.009,0.104 0.151,0.176 0.234,0.107 0.129,-0.109 0.281,-0.157 0.434,-0.213 0.114,-0.041 0.213,-0.122 0.319,-0.185 0.038,-0.023 0.074,-0.053 0.114,-0.071 0.189,-0.088 0.382,-0.165 0.566,-0.26 0.235,-0.121 0.494,-0.155 0.744,-0.224 0.364,-0.099 0.73,-0.193 1.096,-0.283 0.176,-0.044 0.354,-0.075 0.54,-0.114 -0.024,-0.108 -0.111,-0.139 -0.188,-0.185 -0.167,-0.101 -0.332,-0.205 -0.494,-0.313 -0.052,-0.034 -0.094,-0.084 -0.158,-0.144 0.211,-0.201 0.407,-0.389 0.603,-0.576 0.029,-0.027 0.066,-0.047 0.088,-0.078 0.142,-0.192 0.345,-0.262 0.568,-0.309 0.089,-0.019 0.165,-0.021 0.246,0.012 0.223,0.091 0.444,0.189 0.671,0.27 0.418,0.148 0.77,0.409 1.125,0.661 0.371,0.261 0.76,0.475 1.194,0.615 0.328,0.105 0.646,0.242 0.971,0.357 0.091,0.031 0.19,0.036 0.286,0.052 0.146,0.024 0.292,0.048 0.455,0.074 0.02,0.202 0.041,0.381 0.055,0.562 0.021,0.272 0.045,0.544 0.055,0.817 0.004,0.113 -0.025,0.227 -0.038,0.33 -0.22,0.062 -0.398,-0.011 -0.581,-0.053 -0.081,-0.019 -0.167,-0.041 -0.248,-0.033 -0.128,0.013 -0.229,-0.03 -0.327,-0.099 -0.118,-0.084 -0.281,-0.084 -0.354,0 -0.091,0.106 -0.09,0.249 -0.011,0.368 0.154,0.232 0.33,0.45 0.43,0.719 0.057,0.153 0.153,0.293 0.285,0.412 0.102,0.092 0.155,0.238 0.23,0.36 0.064,0.106 0.131,0.21 0.19,0.318 0.12,0.216 0.251,0.427 0.348,0.653 0.184,0.428 0.442,0.812 0.679,1.209 0.029,0.048 0.088,0.078 0.12,0.126 0.044,0.062 0.111,0.135 0.105,0.198 -0.017,0.197 0.128,0.282 0.222,0.424 0.129,-0.136 0.299,-0.21 0.297,-0.411 0.245,-0.552 0.405,-1.14 0.7,-1.671 C 1.242,21.357 1.338,21.194 1.425,21.027 1.527,20.831 1.619,20.631 1.72,20.434 1.937,20.011 2.157,19.589 2.376,19.167 2.45,19.023 2.524,18.879 2.594,18.742 2.5,18.608 2.394,18.592 2.263,18.655 2.164,18.702 2.057,18.733 1.955,18.775 1.792,18.842 1.637,18.916 1.503,19.04 1.401,19.134 1.266,19.191 1.128,19.276 1.092,19.071 1.098,18.899 1.15,18.73 1.272,18.334 1.321,17.928 1.316,17.514 1.315,17.419 1.329,17.324 1.336,17.22 1.892,17.231 2.374,17.005 2.882,16.897 3.175,16.835 3.45,16.719 3.675,16.499 3.784,16.392 3.931,16.322 4.067,16.245 4.264,16.132 4.464,16.021 4.668,15.922 4.802,15.856 4.945,15.808 5.085,15.758 5.266,15.693 5.427,15.6 5.568,15.47 5.76,15.295 5.956,15.125 6.157,14.947 c 0.126,0.114 0.241,0.22 0.357,0.323 0.122,0.108 0.255,0.205 0.367,0.321 0.162,0.168 0.314,0.347 0.463,0.527 0.034,0.041 0.039,0.107 0.064,0.18 -0.119,0.057 -0.227,0.109 -0.336,0.162 -0.035,0.017 -0.071,0.033 -0.103,0.055 -0.115,0.077 -0.139,0.201 -0.039,0.298 0.072,0.07 0.168,0.125 0.263,0.159 0.324,0.115 0.653,0.22 0.981,0.325 0.235,0.074 0.474,0.136 0.708,0.212 0.104,0.033 0.201,0.087 0.302,0.132 0.171,0.076 0.342,0.154 0.515,0.228 0.143,0.061 0.289,0.119 0.434,0.176 0.054,0.02 0.112,0.043 0.167,0.043 0.208,10e-4 0.266,-0.083 0.208,-0.286 C 10.398,17.42 10.293,17.037 10.179,16.657 10.134,16.508 10.068,16.366 10.012,16.221 10.005,16.203 9.991,16.187 9.986,16.168 9.851,15.625 9.545,15.14 9.444,14.585 9.428,14.497 9.384,14.414 9.353,14.327 9.01,14.365 9.013,14.681 8.886,14.893 8.637,14.784 8.492,14.577 8.34,14.374 8.161,14.135 7.98,13.897 7.794,13.663 7.69,13.53 7.675,13.483 7.771,13.332 7.901,13.129 8.041,12.933 8.178,12.735 8.513,12.251 8.794,11.739 8.994,11.184 9.065,10.989 9.154,10.799 9.207,10.599 9.27,10.362 9.309,10.118 9.349,9.875 9.395,9.601 9.431,9.326 9.47,9.051 9.483,8.954 9.52,8.88 9.614,8.835 9.701,8.793 9.78,8.731 9.869,8.691 c 0.069,-0.03 0.147,-0.053 0.222,-0.054 0.143,-0.002 0.291,-0.006 0.428,0.028 0.31,0.076 0.623,0.045 0.935,0.054 0.05,0.001 0.101,0.007 0.159,0.012 -0.045,0.311 -0.116,0.597 -0.329,0.829 -0.121,0.133 -0.167,0.29 -0.146,0.47 0.01,0.083 0.049,0.118 0.126,0.149 0.199,0.079 0.365,0.022 0.528,-0.091 C 12,9.943 12.207,9.795 12.423,9.662 12.555,9.58 12.707,9.532 12.841,9.455 13.152,9.276 13.455,9.084 13.766,8.906 13.872,8.846 13.992,8.811 14.106,8.764 14.191,8.729 14.278,8.701 14.359,8.659 14.595,8.537 14.831,8.413 15.063,8.282 15.17,8.221 15.264,8.136 15.37,8.074 15.528,7.983 15.692,7.903 15.853,7.817 15.915,7.784 15.975,7.749 16.07,7.696 15.993,7.644 15.947,7.6 15.892,7.58 15.76,7.532 15.665,7.453 15.568,7.347 15.422,7.188 15.247,7.055 15.016,7.001 14.725,6.933 14.448,6.811 14.159,6.732 13.68,6.601 13.267,6.337 12.839,6.103 12.628,5.987 12.407,5.89 12.186,5.795 11.971,5.703 11.748,5.631 11.534,5.536 11.463,5.504 11.41,5.431 11.337,5.367 11.259,5.38 11.251,5.435 11.279,5.518 c 0.108,0.32 0.143,0.662 0.295,0.969 0.022,0.044 0.029,0.096 0.045,0.153 C 11.573,6.648 11.542,6.659 11.511,6.659 11.152,6.658 10.793,6.656 10.434,6.653 10.389,6.653 10.33,6.658 10.302,6.633 10.155,6.5 9.964,6.468 9.791,6.393 9.706,6.357 9.662,6.307 9.637,6.214 9.523,5.793 9.394,5.377 9.279,4.957 9.236,4.8 9.204,4.639 9.187,4.478 9.151,4.153 9.036,3.857 8.867,3.582 8.652,3.232 8.436,2.883 8.205,2.543 8.001,2.244 7.777,1.958 7.544,1.643 7.783,1.319 8.037,0.974 8.293,0.629 8.35,0.551 8.424,0.545 8.497,0.602 8.574,0.662 8.654,0.722 8.715,0.797 8.848,0.961 9.048,1.072 9.102,1.301 9.111,1.34 9.19,1.39 9.233,1.387 9.276,1.383 9.318,1.323 9.354,1.281 9.368,1.265 9.365,1.231 9.365,1.205 9.361,0.744 9.483,0.304 9.603,-0.135 9.717,-0.549 9.844,-0.96 9.968,-1.372 c 0.028,-0.093 0.07,-0.181 0.102,-0.274 0.111,-0.319 0.227,-0.637 0.325,-0.961 0.051,-0.17 -0.04,-0.25 -0.221,-0.238 -0.16,0.011 -0.303,0.057 -0.439,0.146 -0.085,0.055 -0.19,0.098 -0.289,0.107 -0.199,0.018 -0.382,0.078 -0.561,0.157 -0.426,0.189 -0.855,0.369 -1.306,0.489 -0.232,0.061 -0.468,0.104 -0.701,0.162 -0.06,0.015 -0.125,0.043 -0.168,0.085 -0.123,0.119 -0.118,0.225 0.028,0.32 0.167,0.108 0.299,0.25 0.436,0.388 0.023,0.023 0.042,0.048 0.066,0.077 C 7.022,-0.447 6.6,-0.172 6.253,0.175 5.701,-0.236 5.14,-0.624 4.536,-0.944 4.33,-1.054 4.108,-1.136 3.891,-1.225 3.536,-1.37 3.179,-1.513 2.821,-1.653 2.477,-1.788 2.121,-1.865 1.75,-1.841 1.611,-1.832 1.513,-1.877 1.435,-1.986 1.404,-2.028 1.36,-2.06 1.332,-2.104 1.303,-2.151 1.266,-2.206 1.266,-2.258 c -0.004,-0.535 -0.002,-1.07 0,-1.605 0,-0.03 0.014,-0.06 0.027,-0.11 0.155,0.083 0.295,0.159 0.437,0.232 0.144,0.075 0.286,0.157 0.436,0.219 0.142,0.06 0.246,0.227 0.464,0.158 C 2.595,-3.461 2.565,-3.55 2.532,-3.638 2.424,-3.925 2.316,-4.211 2.206,-4.497 2.181,-4.564 2.16,-4.636 2.121,-4.694 1.909,-5.005 1.767,-5.361 1.517,-5.649 1.441,-5.737 1.387,-5.845 1.335,-5.95 1.222,-6.178 1.118,-6.409 1.009,-6.639 0.929,-6.809 0.851,-6.974 0.81,-7.164 0.767,-7.369 0.656,-7.562 0.565,-7.756 0.447,-8.009 0.317,-8.257 0.194,-8.508 0.164,-8.569 0.133,-8.624 0.054,-8.624 c -0.086,0 -0.126,0.052 -0.155,0.125 -0.081,0.206 -0.161,0.413 -0.25,0.615 -0.127,0.285 -0.266,0.565 -0.392,0.85 -0.092,0.208 -0.157,0.428 -0.26,0.631 -0.214,0.424 -0.446,0.839 -0.669,1.259 -0.061,0.115 -0.116,0.234 -0.17,0.352 -0.096,0.214 -0.193,0.426 -0.282,0.643 -0.091,0.222 -0.171,0.448 -0.259,0.672 -0.032,0.08 -0.042,0.151 0.033,0.212 0.064,0.052 0.128,0.044 0.199,0.007 0.291,-0.155 0.598,-0.285 0.77,-0.595 0.02,-0.036 0.065,-0.06 0.132,-0.12"
             style="fill:#fff;fill-opacity:1;fill-rule:nonzero;stroke:none"
             id="path6791"
             inkscape:connector-curvature="0" />
        </g>
        <g
           id="g6793"
           transform="translate(189.6812,525.0896)">
          <path
             d="M 0,0 C 0.121,-0.059 0.221,-0.122 0.33,-0.156 0.568,-0.233 0.776,-0.083 0.789,0.169 0.794,0.265 0.783,0.363 0.77,0.46 0.722,0.83 0.523,1.137 0.346,1.453 0.32,1.498 0.261,1.542 0.209,1.553 0.09,1.58 -0.034,1.592 -0.152,1.53 -0.322,1.441 -0.46,1.318 -0.574,1.163 -0.823,0.825 -0.877,0.437 -0.873,0.034 -0.871,-0.161 -0.789,-0.228 -0.59,-0.22 -0.363,-0.212 -0.156,-0.152 0,0 m -3.245,2.536 c -0.012,-0.121 0.02,-0.219 0.111,-0.301 0.028,-0.025 0.052,-0.062 0.062,-0.098 0.05,-0.183 0.188,-0.261 0.358,-0.285 0.425,-0.059 0.849,-0.111 1.273,0.031 0.252,0.084 0.317,0.158 0.292,0.42 -0.015,0.152 -0.105,0.244 -0.218,0.329 -0.076,0.057 -0.146,0.125 -0.212,0.195 -0.196,0.212 -0.453,0.32 -0.715,0.416 -0.058,0.022 -0.129,0.01 -0.194,0.005 C -2.604,3.238 -2.718,3.219 -2.834,3.207 -3.036,3.187 -3.139,3.098 -3.18,2.899 -3.204,2.779 -3.223,2.657 -3.245,2.536 M 1.947,1.942 c 0.085,0 0.169,-10e-4 0.254,0 0.2,0.002 0.388,0.056 0.554,0.164 C 2.854,2.172 3.001,2.231 2.91,2.407 2.899,2.428 2.927,2.467 2.932,2.498 2.942,2.555 2.953,2.612 2.957,2.67 2.967,2.818 2.972,2.966 2.982,3.114 2.989,3.228 2.945,3.342 2.842,3.367 2.68,3.406 2.5,3.467 2.348,3.431 1.937,3.332 1.542,3.178 1.201,2.916 1.075,2.82 0.982,2.694 0.936,2.539 0.87,2.318 0.955,2.147 1.167,2.054 1.417,1.944 1.675,1.893 1.947,1.942 M 1.238,-2.478 C 1.205,-2.449 1.193,-2.442 1.186,-2.432 1.149,-2.38 1.122,-2.294 1.047,-2.323 1.001,-2.342 0.965,-2.416 0.949,-2.472 0.927,-2.547 0.89,-2.586 0.815,-2.586 0.711,-2.588 0.607,-2.587 0.528,-2.587 0.47,-2.504 0.436,-2.414 0.373,-2.384 0.341,-2.369 0.258,-2.457 0.176,-2.513 c -0.301,0.064 -0.632,0.132 -0.961,0.204 -0.057,0.013 -0.115,0.068 -0.164,0.058 -0.248,-0.049 -0.391,0.115 -0.554,0.25 -0.105,0.086 -0.221,0.162 -0.34,0.227 -0.074,0.039 -0.095,0.086 -0.108,0.165 -0.02,0.12 -0.059,0.238 -0.103,0.352 -0.119,0.303 -0.252,0.6 -0.365,0.905 -0.157,0.423 -0.542,0.766 -1.085,0.638 -0.178,-0.042 -0.352,0.019 -0.508,0.096 -0.134,0.066 -0.199,0.191 -0.202,0.354 -0.003,0.194 -0.017,0.391 -0.05,0.583 -0.06,0.345 -0.193,0.665 -0.412,0.941 -0.227,0.285 -0.356,0.601 -0.372,0.968 -0.009,0.194 -0.038,0.389 -0.07,0.582 -0.022,0.127 0.007,0.232 0.088,0.326 0.23,0.267 0.309,0.579 0.289,0.924 -0.008,0.13 0.003,0.262 -0.011,0.391 -0.033,0.314 0.08,0.587 0.215,0.858 0.052,0.104 0.103,0.213 0.127,0.326 0.097,0.452 0.296,0.861 0.502,1.269 0.18,0.359 0.446,0.637 0.773,0.862 0.011,0.007 0.023,0.013 0.032,0.022 0.271,0.264 0.597,0.437 0.943,0.577 0.048,0.019 0.093,0.049 0.143,0.063 0.376,0.108 0.751,0.219 1.129,0.318 0.378,0.098 0.76,0.085 1.143,0.023 C 0.486,9.731 0.718,9.695 0.951,9.666 1.225,9.632 1.475,9.536 1.731,9.431 2.17,9.251 2.525,8.968 2.848,8.633 2.93,8.549 3.008,8.461 3.095,8.382 3.166,8.316 3.242,8.254 3.326,8.205 3.435,8.141 3.494,8.041 3.538,7.933 3.663,7.622 3.83,7.337 4.009,7.056 4.179,6.789 4.285,6.495 4.282,6.17 4.281,6.027 4.3,5.884 4.312,5.741 4.334,5.462 4.367,5.183 4.379,4.904 4.394,4.539 4.475,4.207 4.766,3.957 4.847,3.887 4.869,3.797 4.864,3.693 4.854,3.446 4.761,3.225 4.663,3.003 4.446,2.515 4.232,2.025 4.028,1.531 3.974,1.401 3.965,1.253 3.93,1.114 3.898,0.987 3.866,0.861 3.821,0.739 3.764,0.584 3.75,0.585 3.59,0.605 3.481,0.618 3.37,0.625 3.26,0.624 3.072,0.623 2.904,0.557 2.749,0.451 2.684,0.408 2.613,0.376 2.546,0.335 2.508,0.311 2.463,0.288 2.44,0.252 2.217,-0.079 2.008,-0.409 2.021,-0.84 2.03,-1.123 1.977,-1.409 1.947,-1.693 1.943,-1.735 1.922,-1.783 1.894,-1.814 1.72,-2.009 1.544,-2.201 1.365,-2.391 1.332,-2.426 1.283,-2.447 1.238,-2.478"
             style="fill:#fff;fill-opacity:1;fill-rule:nonzero;stroke:none"
             id="path6795"
             inkscape:connector-curvature="0" />
        </g>
      </g>
    </g>
  </g>
</svg>
