<?xml version="1.0" encoding="UTF-8" standalone="no"?>
<!-- Created with Inkscape (http://www.inkscape.org/) -->

<svg
   xmlns:dc="http://purl.org/dc/elements/1.1/"
   xmlns:cc="http://creativecommons.org/ns#"
   xmlns:rdf="http://www.w3.org/1999/02/22-rdf-syntax-ns#"
   xmlns:svg="http://www.w3.org/2000/svg"
   xmlns="http://www.w3.org/2000/svg"
   xmlns:sodipodi="http://sodipodi.sourceforge.net/DTD/sodipodi-0.dtd"
   xmlns:inkscape="http://www.inkscape.org/namespaces/inkscape"
   width="10.167218mm"
   height="11.445405mm"
   viewBox="0 0 10.167218 11.445405"
   version="1.1"
   id="svg7724"
   inkscape:version="0.92.5 (2060ec1f9f, 2020-04-08)"
   sodipodi:docname="tzeentch-demons.svg">
  <defs
     id="defs7718">
    <clipPath
       clipPathUnits="userSpaceOnUse"
       id="clipPath6715">
      <path
         d="m 174.251,425.73 h 28.864 v 32.526 h -28.864 z"
         id="path6713"
         inkscape:connector-curvature="0" />
    </clipPath>
  </defs>
  <sodipodi:namedview
     id="base"
     pagecolor="#ffffff"
     bordercolor="#666666"
     borderopacity="1.0"
     inkscape:pageopacity="0.0"
     inkscape:pageshadow="2"
     inkscape:zoom="0.35"
     inkscape:cx="-60.786357"
     inkscape:cy="-229.79944"
     inkscape:document-units="mm"
     inkscape:current-layer="layer1"
     showgrid="false"
     fit-margin-top="0"
     fit-margin-left="0"
     fit-margin-right="0"
     fit-margin-bottom="0"
     inkscape:window-width="1920"
     inkscape:window-height="1017"
     inkscape:window-x="-8"
     inkscape:window-y="-8"
     inkscape:window-maximized="1" />
  <metadata
     id="metadata7721">
    <rdf:RDF>
      <cc:Work
         rdf:about="">
        <dc:format>image/svg+xml</dc:format>
        <dc:type
           rdf:resource="http://purl.org/dc/dcmitype/StillImage" />
        <dc:title></dc:title>
      </cc:Work>
    </rdf:RDF>
  </metadata>
  <g
     inkscape:label="Layer 1"
     inkscape:groupmode="layer"
     id="layer1"
     transform="translate(-121.91639,-76.586826)">
    <g
       transform="matrix(0.35277777,0,0,-0.35277777,60.443705,238.24932)"
       id="g6709">
      <g
         id="g6711"
         clip-path="url(#clipPath6715)">
        <g
           id="g6717"
           transform="translate(192.4888,458.2559)">
          <path
             d="m 0,0 c 0.17,-0.068 0.186,-0.199 0.203,-0.345 0.077,-0.677 -0.239,-1.204 -0.628,-1.706 -0.097,-0.125 -0.197,-0.248 -0.281,-0.38 -0.252,-0.395 -0.607,-0.677 -0.989,-0.931 -0.043,-0.029 -0.106,-0.027 -0.159,-0.042 -0.062,-0.017 -0.134,-0.024 -0.184,-0.06 -0.509,-0.368 -1.089,-0.657 -1.407,-1.24 -0.056,-0.102 -0.081,-0.222 -0.116,-0.336 -0.013,-0.043 0,-0.1 -0.023,-0.136 -0.205,-0.32 -0.149,-0.685 -0.173,-1.034 -0.023,-0.325 -0.013,-0.652 -0.033,-0.977 -0.028,-0.467 0.068,-0.908 0.244,-1.337 0.053,-0.129 0.094,-0.263 0.144,-0.394 0.294,-0.771 0.146,-1.511 -0.2,-2.217 -0.217,-0.442 -0.501,-0.851 -0.748,-1.279 -0.156,-0.271 -0.372,-0.471 -0.615,-0.67 -0.387,-0.317 -0.742,-0.679 -1.083,-1.048 -0.326,-0.353 -0.478,-0.796 -0.507,-1.275 -0.012,-0.205 -0.01,-0.411 -0.01,-0.616 0,-0.456 0.138,-0.868 0.442,-1.208 0.259,-0.29 0.543,-0.557 0.821,-0.839 -0.193,-0.29 -0.501,-0.43 -0.857,-0.516 -0.184,-0.044 -0.35,-0.164 -0.529,-0.24 -0.212,-0.091 -0.424,-0.183 -0.644,-0.251 -0.223,-0.068 -0.353,-0.225 -0.475,-0.406 -0.103,-0.153 -0.223,-0.294 -0.332,-0.442 -0.077,-0.103 -0.14,-0.218 -0.223,-0.315 -0.15,-0.175 -0.309,-0.343 -0.466,-0.511 -0.051,-0.053 -0.12,-0.091 -0.163,-0.15 -0.225,-0.308 -0.441,-0.623 -0.667,-0.931 -0.637,-0.865 -0.868,-1.877 -1.081,-2.901 -0.102,-0.491 -0.122,-0.985 -0.079,-1.475 0.051,-0.574 0.16,-1.143 0.248,-1.713 0.032,-0.202 0.058,-0.408 0.12,-0.602 0.066,-0.21 0.168,-0.41 0.26,-0.611 0.213,-0.463 0.488,-0.899 0.612,-1.399 0.069,-0.275 0.198,-0.546 0.096,-0.863 -0.229,-0.034 -0.457,-0.05 -0.688,0.066 -0.398,0.201 -0.806,0.381 -1.206,0.575 -0.073,0.036 -0.133,0.098 -0.199,0.148 -0.066,0.051 -0.125,0.128 -0.199,0.147 -0.214,0.055 -0.329,0.204 -0.41,0.388 -0.073,0.166 -0.185,0.276 -0.361,0.323 -0.044,0.012 -0.093,0.032 -0.122,0.064 -0.184,0.208 -0.432,0.315 -0.661,0.457 -0.21,0.13 -0.422,0.288 -0.571,0.482 -0.191,0.248 -0.424,0.438 -0.661,0.63 -0.159,0.129 -0.323,0.251 -0.395,0.457 -0.015,0.042 -0.051,0.08 -0.085,0.11 -0.298,0.267 -0.486,0.607 -0.652,0.964 -0.066,0.142 -0.175,0.264 -0.261,0.396 -0.177,0.273 -0.361,0.542 -0.526,0.822 -0.187,0.321 -0.353,0.653 -0.533,0.978 -0.152,0.273 -0.315,0.539 -0.462,0.815 -0.046,0.087 -0.071,0.193 -0.077,0.292 -0.01,0.162 -0.035,0.31 -0.123,0.452 -0.04,0.065 -0.04,0.159 -0.048,0.241 -0.009,0.093 0.028,0.211 -0.016,0.275 -0.221,0.313 -0.096,0.716 -0.289,1.035 -0.044,0.072 -0.032,0.181 -0.033,0.273 -0.004,0.178 -0.003,0.351 -0.127,0.504 -0.04,0.049 -0.041,0.139 -0.042,0.211 -0.003,0.831 -0.003,1.661 -0.005,2.491 0,0.019 -0.004,0.039 0.001,0.056 0.086,0.308 0.17,0.617 0.261,0.923 0.066,0.22 0.142,0.437 0.215,0.656 0.046,0.139 0.089,0.28 0.142,0.417 0.11,0.283 0.243,0.558 0.333,0.848 0.108,0.351 0.333,0.622 0.553,0.897 0.633,0.791 1.444,1.367 2.309,1.877 0.678,0.4 1.41,0.68 2.133,0.98 0.572,0.237 1.117,0.522 1.521,1.014 0.439,0.534 0.721,1.128 0.71,1.837 -0.004,0.299 0.01,0.597 0.005,0.896 -0.012,0.777 0.164,1.505 0.496,2.209 0.12,0.255 0.188,0.539 0.338,0.786 0.033,0.055 0.064,0.116 0.111,0.157 0.414,0.366 0.726,0.815 1.072,1.239 0.193,0.237 0.421,0.474 0.784,0.525 0.39,0.056 0.77,0.189 1.155,0.287 0.063,0.016 0.127,0.028 0.191,0.039 0.351,0.063 0.675,0.193 0.988,0.364 0.133,0.073 0.297,0.112 0.449,0.12 0.326,0.017 0.653,0.003 0.98,0.002 0.102,0 0.216,-0.029 0.305,0.006 0.351,0.138 0.743,0.121 1.079,0.304 0.098,0.053 0.199,0.102 0.302,0.142 0.427,0.163 0.708,0.539 1.101,0.75 0.113,0.061 0.232,0.116 0.339,0.187 C -0.24,-0.2 -0.13,-0.102 0,0"
             style="fill:#fff;fill-opacity:1;fill-rule:nonzero;stroke:none"
             id="path6719"
             inkscape:connector-curvature="0" />
        </g>
        <g
           id="g6721"
           transform="translate(195.4669,432.2616)">
          <path
             d="m 0,0 c 0,-0.345 0.005,-0.69 -0.001,-1.035 -0.006,-0.295 -0.012,-0.578 -0.113,-0.874 -0.103,-0.299 -0.266,-0.585 -0.282,-0.923 -0.008,-0.159 -0.144,-0.32 -0.245,-0.464 -0.754,-1.071 -1.69,-1.955 -2.881,-2.505 -0.988,-0.457 -2.038,-0.731 -3.15,-0.626 -0.605,0.057 -1.204,0.144 -1.775,0.364 -0.099,0.038 -0.192,0.107 -0.269,0.182 -0.16,0.155 -0.294,0.329 -0.498,0.443 -0.142,0.078 -0.236,0.236 -0.369,0.336 -0.101,0.076 -0.223,0.138 -0.346,0.167 -0.353,0.085 -0.645,0.267 -0.916,0.5 -0.356,0.305 -0.563,0.714 -0.779,1.116 -0.176,0.327 -0.35,0.655 -0.52,0.985 -0.029,0.056 -0.031,0.126 -0.056,0.185 -0.064,0.154 -0.106,0.328 -0.207,0.454 -0.285,0.353 -0.36,0.768 -0.393,1.196 -0.033,0.408 -0.072,0.819 -0.06,1.227 0.009,0.292 0.096,0.581 0.154,0.87 0.014,0.072 0.072,0.14 0.072,0.21 -0.002,0.281 0.118,0.528 0.22,0.774 0.445,1.065 1.151,1.93 2.058,2.641 1.008,0.79 2.165,1.243 3.407,1.477 0.529,0.1 1.075,0.081 1.612,-0.05 0.416,-0.102 0.836,-0.188 1.22,-0.389 0.008,-0.004 0.017,-0.009 0.026,-0.01 0.645,-0.06 1.14,-0.448 1.648,-0.784 C -1.59,4.902 -0.929,4.146 -0.438,3.25 -0.278,2.959 -0.133,2.656 -0.164,2.298 -0.177,2.145 -0.144,1.974 -0.083,1.833 -0.009,1.662 0,1.492 0,1.315 0.002,0.877 0.001,0.438 0.001,0 Z"
             style="fill:#fff;fill-opacity:1;fill-rule:nonzero;stroke:none"
             id="path6723"
             inkscape:connector-curvature="0" />
        </g>
        <g
           id="g6725"
           transform="translate(195.6721,427.0613)">
          <path
             d="M 0,0 C 0.148,0.415 0.291,0.796 0.418,1.183 0.522,1.499 0.604,1.823 0.699,2.143 0.723,2.222 0.75,2.304 0.791,2.375 0.889,2.543 0.906,2.721 0.919,2.911 0.942,3.233 0.999,3.553 1.038,3.874 1.057,4.022 1.08,4.17 1.08,4.319 1.084,5.261 1.092,6.204 1.077,7.145 1.072,7.451 1.164,7.708 1.319,7.956 1.374,8.042 1.43,8.126 1.489,8.217 1.672,8.195 1.848,8.181 2.021,8.151 2.73,8.027 3.436,8.069 4.134,8.208 4.347,8.25 4.549,8.366 4.746,8.466 4.846,8.517 4.93,8.564 5.053,8.566 5.3,8.57 5.5,8.682 5.613,8.917 c 0.153,0.318 0.31,0.635 0.458,0.956 0.034,0.074 0.032,0.164 0.056,0.244 0.028,0.095 0.071,0.186 0.1,0.281 0.042,0.14 0.078,0.282 0.119,0.435 0.371,0.11 0.821,-0.197 0.862,-0.599 C 7.222,10.099 7.273,9.969 7.308,9.837 7.313,9.819 7.327,9.803 7.331,9.785 7.412,9.315 7.442,8.841 7.319,8.377 7.276,8.215 7.209,8.061 7.228,7.891 7.279,7.428 7.104,7.015 6.945,6.601 6.76,6.123 6.571,5.646 6.37,5.175 6.07,4.476 5.62,3.87 5.176,3.257 4.619,2.489 3.889,1.915 3.153,1.341 2.933,1.169 2.737,0.965 2.51,0.804 2.284,0.643 2.039,0.503 1.789,0.38 1.381,0.177 0.96,0 0.548,-0.197 0.361,-0.287 0.214,-0.28 0.096,-0.093 0.073,-0.055 0.031,-0.029 0,0"
             style="fill:#fff;fill-opacity:1;fill-rule:nonzero;stroke:none"
             id="path6727"
             inkscape:connector-curvature="0" />
        </g>
      </g>
    </g>
  </g>
</svg>
