<?xml version="1.0" encoding="UTF-8" standalone="no"?>
<!-- Created with Inkscape (http://www.inkscape.org/) -->

<svg
   xmlns:dc="http://purl.org/dc/elements/1.1/"
   xmlns:cc="http://creativecommons.org/ns#"
   xmlns:rdf="http://www.w3.org/1999/02/22-rdf-syntax-ns#"
   xmlns:svg="http://www.w3.org/2000/svg"
   xmlns="http://www.w3.org/2000/svg"
   xmlns:sodipodi="http://sodipodi.sourceforge.net/DTD/sodipodi-0.dtd"
   xmlns:inkscape="http://www.inkscape.org/namespaces/inkscape"
   width="8.9726143mm"
   height="11.033583mm"
   viewBox="0 0 8.9726143 11.033583"
   version="1.1"
   id="svg7774"
   inkscape:version="0.92.5 (2060ec1f9f, 2020-04-08)"
   sodipodi:docname="tzeentch-humans.svg">
  <defs
     id="defs7768">
    <clipPath
       clipPathUnits="userSpaceOnUse"
       id="clipPath6831">
      <path
         d="m 216.656,469.328 h 25.438 v 31.291 h -25.438 z"
         id="path6829"
         inkscape:connector-curvature="0" />
    </clipPath>
  </defs>
  <sodipodi:namedview
     id="base"
     pagecolor="#ffffff"
     bordercolor="#666666"
     borderopacity="1.0"
     inkscape:pageopacity="0.0"
     inkscape:pageshadow="2"
     inkscape:zoom="0.35"
     inkscape:cx="28.384694"
     inkscape:cy="-427.72055"
     inkscape:document-units="mm"
     inkscape:current-layer="layer1"
     showgrid="false"
     inkscape:window-width="1920"
     inkscape:window-height="1017"
     inkscape:window-x="-8"
     inkscape:window-y="-8"
     inkscape:window-maximized="1"
     fit-margin-top="0"
     fit-margin-left="0"
     fit-margin-right="0"
     fit-margin-bottom="0" />
  <metadata
     id="metadata7771">
    <rdf:RDF>
      <cc:Work
         rdf:about="">
        <dc:format>image/svg+xml</dc:format>
        <dc:type
           rdf:resource="http://purl.org/dc/dcmitype/StillImage" />
        <dc:title></dc:title>
      </cc:Work>
    </rdf:RDF>
  </metadata>
  <g
     inkscape:label="Layer 1"
     inkscape:groupmode="layer"
     id="layer1"
     transform="translate(-98.323216,-24.632023)">
    <g
       transform="matrix(0.35277777,0,0,-0.35277777,21.891782,201.2379)"
       id="g6825">
      <g
         id="g6827"
         clip-path="url(#clipPath6831)">
        <g
           id="g6833"
           transform="translate(227.9734,485.0148)">
          <path
             d="m 0,0 c -0.05,-0.045 -0.105,-0.132 -0.181,-0.156 -0.103,-0.033 -0.225,-0.04 -0.33,-0.018 -0.178,0.036 -0.348,0.104 -0.522,0.158 -0.046,0.014 -0.092,0.032 -0.14,0.041 -0.202,0.041 -0.405,0.075 -0.605,0.119 -0.638,0.139 -1.275,0.278 -1.91,0.426 -0.159,0.037 -0.308,0.045 -0.467,0 C -4.232,0.548 -4.32,0.567 -4.425,0.567 -4.35,0.404 -4.368,0.25 -4.272,0.108 c 0.083,-0.122 0.095,-0.298 0.119,-0.454 0.128,-0.852 0.319,-1.688 0.559,-2.516 0.093,-0.32 0.086,-0.666 -0.073,-0.975 -0.1,-0.193 -0.288,-0.316 -0.492,-0.376 -0.282,-0.084 -0.576,-0.133 -0.864,-0.198 -0.308,-0.069 -0.619,-0.13 -0.923,-0.216 -0.14,-0.039 -0.267,-0.126 -0.399,-0.194 -0.248,-0.128 -0.494,-0.26 -0.745,-0.384 -0.145,-0.072 -0.296,-0.132 -0.446,-0.195 -0.077,-0.032 -0.1,-0.085 -0.056,-0.153 0.147,-0.225 0.268,-0.478 0.455,-0.664 0.286,-0.283 0.615,-0.523 0.934,-0.772 0.224,-0.174 0.461,-0.33 0.69,-0.496 0.207,-0.149 0.42,-0.291 0.616,-0.454 0.129,-0.107 0.234,-0.245 0.353,-0.373 0.131,0.015 0.251,-0.059 0.303,-0.233 0.1,-0.338 0.184,-0.68 0.274,-1.021 0.002,-0.008 0.003,-0.016 0.004,-0.024 0.023,-0.155 0.01,-0.287 -0.162,-0.36 -0.118,-0.049 -0.224,-0.129 -0.342,-0.178 -0.118,-0.049 -0.228,-0.013 -0.33,0.065 -0.098,0.074 -0.206,0.133 -0.31,0.199 -0.047,0.031 -0.094,0.063 -0.142,0.092 -0.062,0.037 -0.122,0.097 -0.188,0.104 -0.237,0.027 -0.4,0.19 -0.592,0.298 -0.253,0.143 -0.5,0.299 -0.746,0.454 -0.226,0.143 -0.455,0.282 -0.67,0.441 -0.293,0.217 -0.581,0.441 -0.857,0.679 -0.312,0.269 -0.667,0.491 -0.926,0.82 -0.07,0.088 -0.135,0.181 -0.194,0.278 -0.126,0.205 -0.264,0.397 -0.463,0.541 -0.05,0.035 -0.091,0.089 -0.12,0.144 -0.096,0.178 -0.198,0.355 -0.271,0.543 -0.062,0.164 -0.177,0.284 -0.267,0.423 -0.109,0.171 -0.197,0.371 -0.192,0.594 0.002,0.087 -0.053,0.174 -0.076,0.262 -0.024,0.088 -0.057,0.178 -0.056,0.267 0,0.155 -0.016,0.296 -0.111,0.427 -0.036,0.05 -0.03,0.13 -0.041,0.197 -0.02,0.115 -0.013,0.241 -0.062,0.342 -0.084,0.173 -0.079,0.351 -0.094,0.533 -0.008,0.095 -0.062,0.186 -0.095,0.279 -0.015,0.044 -0.043,0.089 -0.043,0.133 -0.004,0.764 -0.005,1.528 -0.004,2.292 0,0.043 0.004,0.096 0.029,0.126 0.104,0.127 0.097,0.279 0.118,0.427 0.011,0.076 0.042,0.15 0.066,0.224 0.005,0.015 0.02,0.027 0.024,0.042 0.062,0.203 0.116,0.407 0.185,0.607 0.057,0.162 0.131,0.318 0.196,0.477 0.032,0.077 0.063,0.154 0.09,0.233 0.086,0.259 0.154,0.525 0.324,0.749 0.107,0.141 0.198,0.296 0.31,0.434 0.396,0.492 0.872,0.899 1.405,1.23 0.476,0.294 0.966,0.567 1.465,0.818 0.365,0.183 0.759,0.306 1.133,0.471 0.43,0.19 0.834,0.422 1.14,0.792 0.379,0.456 0.624,0.965 0.627,1.572 0.001,0.337 -0.011,0.676 0.014,1.011 0.026,0.34 0.029,0.687 0.169,1.011 0.102,0.236 0.191,0.479 0.283,0.72 0.06,0.157 0.11,0.318 0.173,0.474 0.062,0.152 0.143,0.286 0.274,0.403 0.191,0.172 0.35,0.381 0.521,0.575 0.07,0.079 0.137,0.16 0.201,0.244 0.042,0.053 0.074,0.114 0.114,0.17 0.032,0.045 0.063,0.094 0.104,0.13 0.119,0.104 0.243,0.202 0.366,0.301 0.022,0.018 0.047,0.037 0.073,0.042 0.23,0.045 0.459,0.098 0.691,0.127 0.329,0.041 0.66,0.068 0.991,0.094 0.21,0.016 0.421,0.022 0.631,0.029 0.478,0.018 0.957,0.026 1.434,0.056 0.183,0.011 0.365,0.067 0.546,0.111 0.157,0.039 0.317,0.075 0.464,0.141 0.224,0.1 0.457,0.201 0.652,0.347 0.308,0.231 0.568,0.518 0.787,0.839 0.064,0.093 0.139,0.183 0.225,0.254 0.044,0.037 0.126,0.045 0.188,0.038 C 4.72,15.595 4.749,15.516 4.751,15.47 4.758,15.324 4.752,15.178 4.754,15.032 4.758,14.803 4.621,14.627 4.53,14.436 4.418,14.2 4.259,13.998 4.081,13.804 3.904,13.612 3.778,13.373 3.597,13.185 3.445,13.027 3.248,12.911 3.07,12.778 3.055,12.767 3.031,12.768 3.011,12.767 2.829,12.761 2.69,12.667 2.559,12.555 2.494,12.499 2.437,12.428 2.362,12.392 1.998,12.219 1.759,11.922 1.548,11.594 1.532,11.57 1.512,11.547 1.506,11.521 1.442,11.26 1.346,11.001 1.325,10.737 1.288,10.276 1.304,9.812 1.285,9.349 1.269,8.985 1.389,8.656 1.5,8.32 1.6,8.016 1.719,7.71 1.757,7.397 1.787,7.148 1.731,6.88 1.672,6.63 1.511,5.948 1.097,5.393 0.741,4.807 0.566,4.519 0.276,4.386 0.057,4.163 -0.225,3.877 -0.512,3.595 -0.773,3.291 -0.96,3.073 -1.059,2.796 -1.096,2.512 -1.152,2.084 -1.192,1.646 -1.03,1.235 -0.941,1.01 -0.795,0.799 -0.636,0.614 -0.445,0.391 -0.214,0.203 0,0"
             style="fill:#fff;fill-opacity:1;fill-rule:nonzero;stroke:none"
             id="path6835"
             inkscape:connector-curvature="0" />
        </g>
        <g
           id="g6837"
           transform="translate(227.0464,478.112)">
          <path
             d="m 0,0 c 0.013,-0.09 0.031,-0.17 0.034,-0.25 0.013,-0.44 0.182,-0.807 0.52,-1.086 0.234,-0.193 0.475,-0.382 0.732,-0.543 0.405,-0.253 0.846,-0.37 1.328,-0.246 0.076,0.019 0.161,0.011 0.242,0.007 0.429,-0.02 0.795,0.124 1.106,0.418 0.058,0.055 0.128,0.1 0.199,0.137 0.43,0.225 0.696,0.572 0.793,1.049 0.037,0.181 0.082,0.362 0.131,0.54 C 5.182,0.381 5.16,0.725 5.013,1.062 4.984,1.128 4.957,1.198 4.95,1.269 4.904,1.755 4.676,2.126 4.27,2.394 4.2,2.44 4.132,2.495 4.077,2.558 3.855,2.811 3.584,2.991 3.251,3.035 2.952,3.075 2.648,3.068 2.346,3.087 1.858,3.117 1.472,2.887 1.102,2.61 1.025,2.552 0.945,2.495 0.858,2.455 0.497,2.286 0.216,2.024 0.114,1.645 0.007,1.245 -0.027,0.826 -0.089,0.415 m -3.749,-6.244 c -0.017,0.079 -0.04,0.177 -0.057,0.276 -0.004,0.023 0.011,0.055 0.027,0.075 0.27,0.334 0.472,0.708 0.659,1.092 0.034,0.07 0.11,0.118 0.152,0.186 0.132,0.214 0.258,0.431 0.385,0.649 0.113,0.196 0.226,0.393 0.336,0.592 0.051,0.093 0.096,0.189 0.141,0.286 0.006,0.015 -0.001,0.039 -0.008,0.057 -0.078,0.212 -0.158,0.422 -0.236,0.634 -0.067,0.183 -0.131,0.367 -0.197,0.55 -0.004,0.011 -0.012,0.022 -0.013,0.034 -0.029,0.446 -0.397,0.62 -0.686,0.859 -0.392,0.325 -0.841,0.562 -1.271,0.829 -0.154,0.095 -0.26,0.265 -0.392,0.396 -0.134,0.133 -0.274,0.261 -0.416,0.396 0.161,0.212 0.414,0.295 0.677,0.37 0.3,0.084 0.596,0.182 0.893,0.279 0.385,0.127 0.768,0.26 1.152,0.388 0.126,0.041 0.263,0.058 0.378,0.119 0.087,0.045 0.156,0.136 0.215,0.219 0.074,0.105 0.137,0.22 0.194,0.336 0.075,0.152 0.156,0.305 0.201,0.466 0.021,0.078 -0.037,0.177 -0.058,0.267 -0.008,0.035 -0.028,0.075 -0.019,0.106 0.077,0.246 -0.034,0.463 -0.102,0.685 -0.096,0.314 -0.198,0.626 -0.304,0.937 -0.125,0.369 -0.257,0.735 -0.385,1.103 -0.011,0.03 -0.029,0.06 -0.032,0.091 -0.004,0.057 -0.023,0.14 0.006,0.165 0.064,0.056 0.132,0.132 0.245,0.08 C -2.21,6.627 -2.049,6.592 -1.915,6.512 -1.526,6.28 -1.1,6.191 -0.659,6.136 -0.572,6.126 -0.478,6.081 -0.409,6.025 -0.146,5.809 0.138,5.676 0.492,5.691 0.611,5.696 0.745,5.641 0.852,5.58 1.067,5.458 1.293,5.509 1.388,5.74 1.524,6.07 1.643,6.406 1.775,6.737 1.821,6.853 1.89,6.96 1.941,7.074 2.083,7.401 2.223,7.728 2.361,8.057 2.493,8.371 2.619,8.687 2.752,9.001 2.819,9.157 2.89,9.312 2.969,9.462 2.991,9.504 3.048,9.554 3.088,9.553 3.164,9.552 3.246,9.54 3.273,9.433 3.43,8.826 3.675,8.251 3.916,7.675 3.945,7.604 3.959,7.527 3.983,7.454 4.101,7.101 4.221,6.748 4.338,6.394 4.398,6.214 4.432,6.022 4.514,5.854 4.652,5.57 4.855,5.346 5.169,5.236 5.317,5.185 5.457,5.103 5.591,5.019 5.691,4.956 5.778,4.995 5.87,5.019 6.038,5.063 6.202,5.121 6.372,5.153 6.691,5.213 7.017,5.238 7.331,5.317 7.664,5.4 7.985,5.528 8.312,5.636 8.382,5.66 8.447,5.703 8.527,5.64 8.604,5.578 8.617,5.528 8.576,5.436 8.436,5.121 8.301,4.804 8.177,4.482 8.11,4.306 8.076,4.117 8.016,3.938 7.912,3.624 7.779,3.317 7.694,2.998 7.592,2.618 7.701,2.145 8.165,1.992 8.289,1.951 8.398,1.865 8.512,1.798 8.554,1.773 8.592,1.742 8.633,1.715 9.078,1.427 9.523,1.138 9.971,0.854 10.132,0.752 10.307,0.672 10.466,0.568 10.609,0.473 10.588,0.336 10.444,0.242 10.244,0.11 10.053,-0.034 9.859,-0.174 9.846,-0.183 9.836,-0.198 9.822,-0.206 9.52,-0.361 9.218,-0.518 8.914,-0.668 8.798,-0.726 8.676,-0.773 8.553,-0.816 8.358,-0.886 8.264,-1.03 8.205,-1.222 8.163,-1.357 8.08,-1.479 8.014,-1.607 8.005,-1.625 7.987,-1.642 7.987,-1.66 7.98,-1.939 7.743,-2.153 7.774,-2.448 7.782,-2.527 7.711,-2.619 7.667,-2.7 c -0.036,-0.064 -0.04,-0.112 0.01,-0.175 0.088,-0.108 0.178,-0.22 0.24,-0.344 0.215,-0.427 0.417,-0.861 0.627,-1.292 0.121,-0.246 0.25,-0.488 0.368,-0.735 0.029,-0.06 0.041,-0.134 0.04,-0.2 C 8.948,-5.647 8.872,-5.706 8.681,-5.661 8.258,-5.562 7.842,-5.45 7.444,-5.264 7.141,-5.123 6.807,-5.049 6.49,-4.934 6.323,-4.873 6.16,-4.799 6.003,-4.716 5.802,-4.61 5.604,-4.577 5.399,-4.689 5.271,-4.759 5.148,-4.836 5.022,-4.91 4.995,-4.927 4.97,-4.956 4.94,-4.961 4.684,-5.012 4.508,-5.192 4.316,-5.346 4.272,-5.381 4.234,-5.439 4.218,-5.494 4.077,-5.976 3.942,-6.461 3.805,-6.944 3.797,-6.972 3.787,-6.999 3.775,-7.024 3.544,-7.484 3.321,-7.949 3.079,-8.403 3.006,-8.539 2.887,-8.652 2.78,-8.766 c -0.017,-0.018 -0.107,0 -0.131,0.029 -0.111,0.132 -0.244,0.261 -0.305,0.416 -0.091,0.231 -0.127,0.483 -0.188,0.725 -0.012,0.051 -0.018,0.108 -0.046,0.15 -0.297,0.459 -0.442,0.98 -0.606,1.494 -0.08,0.25 -0.196,0.489 -0.302,0.73 -0.02,0.045 -0.062,0.095 -0.105,0.113 -0.138,0.055 -0.28,0.125 -0.424,0.136 -0.19,0.014 -0.384,-0.018 -0.575,-0.039 -0.253,-0.028 -0.508,-0.053 -0.758,-0.099 -0.41,-0.077 -0.817,-0.17 -1.225,-0.258 -0.111,-0.024 -0.222,-0.05 -0.33,-0.083 -0.166,-0.051 -0.329,-0.11 -0.494,-0.163 -0.164,-0.053 -0.33,-0.103 -0.495,-0.154 -0.043,-0.013 -0.085,-0.028 -0.128,-0.038 -0.055,-0.013 -0.11,-0.031 -0.166,-0.032 -0.11,-0.002 -0.22,0.006 -0.34,0.01"
             style="fill:#fff;fill-opacity:1;fill-rule:nonzero;stroke:none"
             id="path6839"
             inkscape:connector-curvature="0" />
        </g>
        <g
           id="g6841"
           transform="translate(240.7794,484.0418)">
          <path
             d="M 0,0 C 0.123,0.009 0.242,-0.039 0.319,-0.153 0.496,-0.415 0.692,-0.67 0.827,-0.953 1.005,-1.325 1.133,-1.72 1.279,-2.107 1.296,-2.151 1.297,-2.203 1.298,-2.251 1.303,-2.677 1.307,-3.104 1.31,-3.531 1.311,-3.579 1.314,-3.632 1.296,-3.675 1.157,-3.998 1.161,-4.345 1.109,-4.684 1.062,-4.99 0.97,-5.295 0.855,-5.584 0.63,-6.151 0.341,-6.688 -0.03,-7.174 -0.127,-7.3 -0.269,-7.39 -0.391,-7.497 c -0.221,-0.195 -0.451,-0.382 -0.663,-0.587 -0.313,-0.303 -0.62,-0.612 -1.038,-0.77 -0.315,-0.119 -0.632,-0.231 -0.95,-0.34 -0.161,-0.056 -0.326,-0.094 -0.487,-0.149 -0.063,-0.022 -0.119,-0.068 -0.179,-0.1 -0.3,-0.161 -0.618,-0.261 -0.959,-0.288 -0.092,-0.007 -0.143,0.023 -0.193,0.107 -0.158,0.271 -0.231,0.569 -0.31,0.867 -0.015,0.059 -0.032,0.118 -0.055,0.174 -0.08,0.196 -0.014,0.422 0.136,0.575 0.222,0.228 0.492,0.357 0.786,0.461 0.088,0.031 0.171,0.097 0.236,0.166 0.199,0.208 0.385,0.427 0.582,0.636 0.091,0.097 0.187,0.195 0.296,0.269 0.25,0.168 0.393,0.417 0.535,0.667 0.023,0.042 0.037,0.112 0.018,0.15 -0.077,0.152 -0.048,0.311 -0.046,0.467 0.002,0.085 -0.025,0.133 -0.102,0.171 -0.605,0.298 -1.177,0.651 -1.718,1.056 -0.128,0.097 -0.277,0.166 -0.417,0.248 -0.149,0.088 -0.298,0.175 -0.448,0.262 -0.017,0.01 -0.038,0.014 -0.056,0.023 -0.138,0.064 -0.155,0.181 -0.035,0.275 0.113,0.088 0.23,0.14 0.39,0.128 0.347,-0.026 0.695,-0.027 1.04,0.061 0.126,0.033 0.268,0.026 0.4,0.012 0.305,-0.032 0.61,-0.08 0.915,-0.119 0.116,-0.015 0.233,-0.025 0.35,-0.034 0.366,-0.029 0.734,-0.048 1.082,0.093 0.328,0.132 0.604,0.338 0.744,0.678 0.147,0.356 0.297,0.712 0.416,1.077 0.086,0.264 0.141,0.54 0.177,0.816 C 0.075,-0.304 0.022,-0.153 0,0"
             style="fill:#fff;fill-opacity:1;fill-rule:nonzero;stroke:none"
             id="path6843"
             inkscape:connector-curvature="0" />
        </g>
      </g>
    </g>
  </g>
</svg>
