<!-- Generated by IcoMoon.io -->
<svg version="1.1" xmlns="http://www.w3.org/2000/svg" width="32" height="32" viewBox="0 0 32 32">
<title>bladeborn-morgwaeth</title>
<path fill="#fff" d="M14.447 29.402c0 0.607 0 1.211 0 1.818-0.025 0.107-0.065 0.2-0.118 0.284l0.002-0.004c-0.066-0.077-0.128-0.161-0.181-0.25l-0.005-0.008c-0.279-0.503-0.568-1.112-0.817-1.741l-0.039-0.111c-0.139-0.414-0.404-0.506-0.728-0.651-1.198-0.516-2.523-0.749-3.586-1.575-0.116-0.087-0.291-0.12-0.364-0.23-0.816-0.982-1.82-0.931-2.876-0.535-0.166 0.048-0.362 0.086-0.565 0.105l-0.014 0.001c0-0.226 0-0.452 0.029-0.673 0.004-0.133 0.033-0.257 0.082-0.37l-0.003 0.007c0.404-0.793 0.245-1.43-0.255-2.182-1.039-1.46-1.737-3.232-1.936-5.151l-0.004-0.047c-0.013-0.347-0.249-0.636-0.57-0.727l-0.006-0.001c-0.703-0.323-1.409-0.647-2.108-0.978-0.138-0.078-0.257-0.162-0.368-0.254l0.004 0.003c0.096-0.101 0.203-0.19 0.321-0.265l0.007-0.004c0.321-0.163 0.727-0.338 1.143-0.492l0.087-0.028c0.82-0.276 1.387-0.56 1.548-1.662 0.309-2.076 1.18-3.908 2.451-5.386l-0.011 0.014c0.097-0.16 0.154-0.353 0.154-0.559 0-0.091-0.011-0.179-0.032-0.264l0.002 0.008c-0.095-0.491-0.313-0.956-0.423-1.455-0.062-0.269-0.139-0.698 0.423-0.396 0.124 0.066 0.324 0 0.444 0.062 1.019 0.596 1.843 0.236 2.694-0.419 0.891-0.657 1.941-1.159 3.077-1.443l0.061-0.013c0.791-0.177 1.414-0.757 1.648-1.508l0.004-0.016c0.217-0.63 0.436-1.148 0.684-1.649l-0.037 0.082c0.048-0.11 0.185-0.182 0.284-0.273 0.045 0.092 0.078 0.199 0.094 0.311l0.001 0.006c-0.054 1.353-0.127 2.703-0.171 4.055 0 0.415-0.208 0.516-0.594 0.626-1.291 0.344-2.381 0.727-3.432 1.184l0.156-0.060c-0.637 0.284-1.164 0.823-1.726 1.269-0.259 0.207-0.466 0.48-0.729 0.698-1.66 1.455-2.548 3.361-2.982 5.456-0.142 0.643-0.223 1.383-0.223 2.141 0 1.916 0.518 3.712 1.421 5.255l-0.026-0.049c0.766 1.414 1.803 2.59 3.050 3.493l0.030 0.020c0.834 0.548 1.793 1.053 2.8 1.465l0.113 0.041c0.451 0.168 1.008 0.328 1.578 0.45l0.082 0.014c0.275 0.052 0.482 0.29 0.482 0.577 0 0.026-0.002 0.052-0.005 0.077v-0.003c-0.048 0.632-0.025 1.273-0.025 1.905z"></path>
<path fill="#fff" d="M17.232 29.311c0-0.632 0-1.269 0-1.905-0.004-0.025-0.007-0.054-0.007-0.083 0-0.287 0.233-0.52 0.52-0.52 2.862-0.418 4.995-2.059 6.802-4.171 0.425-0.563 0.78-1.212 1.032-1.909l0.017-0.051c0.221-0.432 0.431-0.945 0.599-1.477l0.019-0.073c0.246-0.886 0.388-1.903 0.388-2.953 0-1.195-0.183-2.345-0.523-3.427l0.022 0.081c-0.604-2.055-1.827-3.771-3.452-4.979l-0.025-0.018c-0.437-0.313-0.87-0.63-1.311-0.931-1.029-0.689-2.249-1.181-3.563-1.393l-0.052-0.007c-0.426-0.077-0.473-0.247-0.47-0.585 0-1.24 0-2.484 0-3.725 0.016-0.111 0.041-0.21 0.076-0.305l-0.003 0.009c0.062 0.086 0.123 0.183 0.176 0.285l0.006 0.012c0.206 0.374 0.392 0.811 0.532 1.266l0.014 0.050c0.182 0.837 0.776 1.091 1.497 1.281 1.576 0.437 2.946 1.162 4.115 2.122l-0.020-0.016c0.275 0.223 0.629 0.359 1.014 0.359 0.235 0 0.459-0.050 0.661-0.141l-0.011 0.004c0.415-0.127 0.841-0.222 1.26-0.331-0.054 0.478-0.143 0.908-0.265 1.323l0.014-0.054c-0.096 0.229-0.151 0.493-0.151 0.771 0 0.5 0.179 0.957 0.478 1.312l-0.003-0.003c0.967 1.308 1.63 2.895 1.859 4.619l0.006 0.051c0.010 0.715 0.517 1.31 1.192 1.453l0.009 0.002c0.693 0.239 1.284 0.506 1.846 0.819l-0.057-0.029c0.065 0.028 0.149 0.059 0.237 0.086l0.018 0.005c-0.073 0.087-0.157 0.162-0.25 0.223l-0.004 0.003c-0.685 0.284-1.38 0.545-2.065 0.837-0.415 0.168-0.719 0.53-0.803 0.971l-0.001 0.008c-0.448 1.642-0.893 2.963-1.402 4.254l0.098-0.282c-0.209 0.521-0.499 0.969-0.861 1.348l0.002-0.002c-0.648 0.684-0.44 1.415-0.28 2.182 0.037 0.171 0.084 0.342 0.12 0.516 0.113 0.535 0 0.676-0.51 0.564-0.062-0.016-0.116-0.039-0.168-0.067l0.004 0.002c-0.899-0.433-1.635-0.578-2.585 0.197-0.979 0.729-2.128 1.293-3.375 1.625l-0.070 0.015c-0.795 0.201-1.419 0.786-1.67 1.541l-0.005 0.016c-0.182 0.458-0.434 0.891-0.652 1.331 0-0.483 0-0.968-0.025-1.455 0-0.211 0-0.422 0-0.636z"></path>
<path fill="#fff" d="M17.101 19.802c0.098 0.437 0.244 0.979 0.334 1.532 0 0.011 0 0.023 0 0.036 0 0.215-0.038 0.422-0.107 0.614l0.004-0.012c0 0.047-0.080 0.087-0.124 0.127l-1.529 1.498c-0.564-0.539-1.143-1.066-1.685-1.623-0.12-0.127-0.233-0.473-0.171-0.539 0.51-0.52 0.266-1.149 0.302-1.727s0-1.091 0-1.633c0-0.313 0.023-0.604-0.437-0.626-0.102 0-0.222-0.276-0.28-0.444-0.043-0.285-0.116-0.541-0.215-0.783l0.008 0.022c-0.127-0.182-0.466-0.408-0.604-0.363-0.554 0.222-0.539-0.080-0.681-0.473-0.276-0.789-0.091-1.534 0.033-2.295 0.084-0.527 0.259-0.611 0.67-0.23 0.149 0.165 0.364 0.268 0.603 0.268 0.207 0 0.395-0.077 0.537-0.204l-0.001 0.001c0.241-0.172 0.397-0.452 0.397-0.768 0-0.128-0.025-0.25-0.072-0.361l0.002 0.006c-0.122-0.282-0.325-0.509-0.58-0.659l-0.007-0.004c-0.364-0.204-0.241-0.23 0-0.452 0.473-0.429 0.848-0.971 1.307-1.422 0.648-0.647 0.99-0.641 1.61-0.080s1.092 1.091 1.631 1.648c0.025 0.025-0.047 0.218-0.105 0.236-0.404 0.12-0.728 0.363-0.728 0.782 0 0.015-0.001 0.033-0.001 0.051 0 0.376 0.122 0.723 0.328 1.005l-0.003-0.005c0.149 0.145 0.353 0.233 0.578 0.233 0.187 0 0.359-0.061 0.498-0.165l-0.002 0.002c0.674-0.363 0.728-0.363 0.87 0.363 0.063 0.274 0.1 0.59 0.1 0.914 0 0.532-0.098 1.040-0.277 1.509l0.009-0.029c-0.066 0.168-0.127 0.469-0.481 0.174s-0.768 0.040-0.845 0.363c-0.102 0.576-0.302 1.089-0.583 1.547l0.011-0.020c-0.313 0.481-0.215 1.223-0.317 1.982zM16.689 15.241c0.994 0 1.62-0.323 1.624-0.749 0-0.291-0.546-0.985-0.776-0.989-0.39 0-1.114 0.833-1.070 1.295 0.047 0.17 0.123 0.319 0.224 0.447l-0.002-0.003zM14.218 15.241l0.729-0.273c-0.099-0.276-0.201-0.505-0.317-0.726l0.014 0.031c-0.12-0.193-0.338-0.328-0.44-0.524-0.168-0.323-0.328-0.204-0.575-0.109-0.506 0.185-0.506 0.589-0.408 0.96 0.109 0.458 0.495 0.63 0.998 0.63zM14.454 19.461h0.018c0 0.57 0 1.142 0 1.716 0 0.091 0.139 0.175 0.211 0.266 0.075-0.071 0.143-0.146 0.205-0.229l0.003-0.005c0.068-0.089 0.114-0.198 0.131-0.317v-0.004c-0.046-1.045-0.104-2.086-0.175-3.124-0.032-0.137-0.082-0.259-0.148-0.369l0.003 0.006c-0.084 0.145-0.237 0.288-0.248 0.437-0.018 0.531 0 1.069 0 1.623zM15.546 19.796c0 0.632 0 1.266 0 1.898 0.026 0.173 0.070 0.328 0.132 0.475l-0.005-0.013c0.091-0.134 0.262-0.269 0.266-0.408 0.018-1.356 0-2.709 0-4.067 0-0.109-0.135-0.215-0.208-0.32-0.062 0.116-0.174 0.236-0.178 0.363-0.019 0.673-0.008 1.371-0.008 2.059zM16.854 19.512c0-0.632 0-1.269 0-1.903 0-0.087-0.12-0.168-0.186-0.247-0.066 0.083-0.182 0.168-0.185 0.251 0 1.211 0 2.419 0 3.638 0 0.083 0.12 0.164 0.185 0.247 0.066-0.083 0.182-0.168 0.186-0.255 0.007-0.589 0-1.168 0-1.742zM16.576 16.602c-0.275-0.408-0.558-0.764-0.868-1.097l0.005 0.005c-0.124-0.116-0.899 0.636-0.863 0.866 0 0.12 0.145 0.305 0.24 0.317 0.345 0.040 0.746 0.062 1.151 0.062 0.012 0 0.022 0 0.034 0h-0.002c0.069 0.014 0.139-0.058 0.303-0.149z"></path>
</svg>
