<!-- Generated by IcoMoon.io -->
<svg version="1.1" xmlns="http://www.w3.org/2000/svg" width="32" height="32" viewBox="0 0 32 32">
<title>bladeborn-khagra</title>
<path fill="#fff" d="M17.104 29.238c0-0.609 0-1.215 0-1.824s0.033-0.642 0.625-0.788c0.591-0.145 1.096-0.248 1.661-0.409 1.086-0.359 2.027-0.881 2.846-1.545l-0.016 0.012c1.41-1.095 2.636-2.36 3.345-4.031 0.584-1.382 1.132-2.783 1.026-4.341-0.058-0.868 0.048-1.74-0.178-2.612-0.562-2.313-1.767-4.289-3.412-5.792l-0.009-0.008c-0.648-0.571-1.382-1.066-2.176-1.462l-0.059-0.026c-0.907-0.495-1.962-0.857-3.080-1.026l-0.052-0.007c-0.292-0.009-0.525-0.247-0.525-0.539 0-0.028 0.002-0.056 0.007-0.083v0.003c0-1.335 0-2.672 0-4.013 0.016-0.094 0.046-0.179 0.086-0.257l-0.002 0.005c0.062 0.054 0.149 0.099 0.182 0.168 0.279 0.507 0.553 1.108 0.78 1.731l0.029 0.093c0.136 0.537 0.578 0.941 1.125 1.020l0.008 0.001c1.045 0.242 1.966 0.619 2.805 1.119l-0.045-0.024c0.698 0.406 1.287 0.799 1.851 1.224l-0.047-0.034c0.183 0.157 0.425 0.253 0.688 0.253 0.147 0 0.288-0.030 0.415-0.084l-0.007 0.003c0.398-0.135 0.807-0.237 1.216-0.335s0.555 0.066 0.445 0.456c-0.115 0.464-0.25 0.86-0.414 1.241l0.020-0.052c-0.070 0.143-0.111 0.309-0.111 0.486 0 0.324 0.137 0.618 0.358 0.823l0.001 0.001c0.596 0.74 1.077 1.602 1.402 2.537l0.018 0.060c0.333 0.959 0.753 1.901 0.763 2.948 0 0.386 0.288 0.572 0.61 0.708l2.494 1.051c0.080 0.033 0.161 0.073 0.238 0.11-0.077 0.058-0.162 0.111-0.253 0.156l-0.009 0.004c-0.803 0.343-1.607 0.678-2.414 1.014-0.402 0.128-0.687 0.497-0.687 0.933 0 0.007 0 0.013 0 0.020v-0.001c-0.083 0.73-0.266 1.396-0.536 2.015l0.018-0.046c-0.297 0.937-0.668 1.748-1.124 2.503l0.029-0.051c-0.172 0.266-0.241 0.63-0.467 0.824-0.778 0.657-0.577 1.423-0.366 2.215 0.014 0.024 0.026 0.051 0.036 0.081l0.001 0.003c0.219 0.864 0.022 1.043-0.869 0.795-0.162-0.032-0.304-0.079-0.44-0.14l0.012 0.005c-0.194-0.109-0.427-0.173-0.673-0.173-0.392 0-0.746 0.161-0.999 0.421-0.799 0.656-1.728 1.191-2.739 1.559l-0.066 0.021c-0.36 0.138-0.793 0.264-1.239 0.355l-0.054 0.009c-0.425 0.084-0.764 0.381-0.907 0.772l-0.003 0.009c-0.252 0.576-0.522 1.142-0.792 1.707-0.102 0.197-0.198 0.357-0.302 0.513l0.012-0.020c-0.035-0.17-0.064-0.381-0.082-0.595l-0.002-0.021c-0.004-0.554 0.004-1.098 0.004-1.645z"></path>
<path fill="#fff" d="M14.442 2.904c0 0.609 0 1.215 0 1.824 0 0.397-0.153 0.628-0.573 0.661-1.216 0.105-2.3 0.624-3.367 1.157-0.582 0.308-1.083 0.671-1.525 1.096l0.002-0.002c-1.030 0.971-2.070 1.948-2.72 3.243-0.545 1.037-0.939 2.245-1.111 3.522l-0.006 0.056c-0.070 0.341-0.13 0.766-0.169 1.198l-0.003 0.046c-0.001 0.059-0.002 0.129-0.002 0.197 0 3.573 1.73 6.743 4.398 8.719l0.029 0.021c0.55 0.421 1.169 0.824 1.82 1.177l0.075 0.037c0.545 0.25 1.179 0.447 1.843 0.559l0.046 0.007c1.259 0.238 1.263 0.211 1.263 1.503 0 1.095 0 2.188 0 3.283 0 0.095-0.080 0.19-0.124 0.288-0.039-0.073-0.091-0.142-0.128-0.223-0.277-0.631-0.599-1.252-0.818-1.905-0.138-0.431-0.489-0.757-0.926-0.855l-0.009-0.002c-0.318-0.095-0.639-0.164-0.954-0.266-1.183-0.386-2.21-0.936-3.116-1.633l0.024 0.018c-0.116-0.091-0.277-0.135-0.387-0.234-0.23-0.247-0.559-0.4-0.923-0.4-0.207 0-0.402 0.049-0.574 0.137l0.007-0.003c-0.34 0.145-0.744 0.27-1.162 0.357l-0.044 0.008c-0.171 0.044-0.366 0.052-0.288-0.262s0.143-0.711 0.267-1.043c0.086-0.219 0.137-0.473 0.137-0.738 0-0.488-0.17-0.937-0.454-1.291l0.003 0.004c-0.463-0.765-0.917-1.663-1.305-2.596l-0.050-0.136c-0.103-0.24-0.198-0.526-0.266-0.822l-0.007-0.035c-0.102-0.365-0.186-0.73-0.273-1.124-0.047-0.2-0.109-0.401-0.139-0.609-0.047-0.365-0.244-0.521-0.614-0.661-0.812-0.332-1.494-0.677-2.146-1.071l0.069 0.039c-0.325-0.182-0.307-0.328 0.025-0.475 0.473-0.229 1.077-0.475 1.695-0.69l0.13-0.039c0.691-0.219 0.862-0.752 0.957-1.357 0.309-1.879 1.035-3.548 2.082-4.967l-0.022 0.031c0.366-0.496 0.705-0.978 0.366-1.645-0.080-0.232-0.134-0.5-0.153-0.778l-0.001-0.010c-0.175-0.791-0.084-0.89 0.701-0.729 0.091 0.018 0.182 0.022 0.27 0.044 1.388 0.365 1.395 0.365 2.527-0.438 0.992-0.724 2.162-1.273 3.429-1.573l0.066-0.014c0.523-0.039 0.95-0.408 1.075-0.896l0.002-0.009c0.237-0.653 0.483-1.198 0.764-1.721l-0.034 0.070c0.065-0.1 0.139-0.186 0.222-0.262l0.001-0.001c0.049 0.088 0.086 0.192 0.105 0.3l0.001 0.006c-0.004 0.635-0.008 1.273-0.008 1.907z"></path>
<path fill="#fff" d="M14.028 18.754c-0.256 0.149-0.544 0.215-0.628 0.365-0.366 0.729-1.231 0.857-1.72 1.43 0 0.025-0.116 0.018-0.146 0-0.029-0.033-0.048-0.077-0.048-0.125 0-0.012 0.001-0.025 0.004-0.037v0.001c0.287-0.718 0.73-1.32 1.29-1.789l0.007-0.006c0.548-0.416 0.548-0.438 0.219-1.018-0.105-0.183-0.2-0.395-0.27-0.618l-0.007-0.023c-0.153-0.471-0.281-0.518-0.635-0.143-0.143 0.149-0.182 0.204-0.288 0-0.175-0.329-0.398-0.365-0.629-0.058s-0.387 0.197-0.672 0.033c-0.344-0.164-0.786-0.341-1.238-0.496l-0.098-0.029c-0.259-0.116-0.266-0.365 0-0.471 0.519-0.226 1.059-0.412 1.599-0.595 0.025-0.006 0.054-0.010 0.084-0.010 0.094 0 0.18 0.036 0.244 0.094 0.259 0.365 0.504 0.3 0.697-0.022s0.205-0.132 0.339 0.022c0.271 0.306 0.325 0.288 0.49-0.054 0.099-0.215 0.175-0.445 0.285-0.657 0.321-0.62 0.292-0.678-0.285-1.149-0.493-0.427-0.876-0.966-1.113-1.578l-0.009-0.027c-0.002-0.009-0.003-0.021-0.003-0.034 0-0.048 0.017-0.091 0.047-0.124 0.020-0.012 0.046-0.020 0.073-0.020s0.052 0.008 0.074 0.020h-0.001c0.566 0.5 1.387 0.69 1.738 1.459 0.135 0.306 0.442 0.285 0.73 0.175s0.482-0.234 0.73-0.347c0.248-0.113 0.562-0.27 0.19-0.628-0.073-0.073-0.037-0.27-0.025-0.409s0.102-0.255 0.066-0.365c-0.365-0.861 0.23-1.553 0.398-2.32 0-0.077 0.116-0.204 0.143-0.194 0.102 0.029 0.234 0.084 0.271 0.168 0.237 0.551 0.453 1.095 0.668 1.671 0.018 0.037 0.028 0.080 0.028 0.126s-0.011 0.089-0.028 0.128l0.001-0.002c-0.248 0.303-0.464 0.584 0 0.894 0.033 0.022 0 0.244-0.073 0.31-0.304 0.3-0.175 0.459 0.154 0.573 0.143 0.048 0.292 0.077 0.43 0.132 0.211 0.119 0.454 0.215 0.711 0.277l0.020 0.004c0.366 0.025 0.304-0.405 0.475-0.562 0.363-0.295 0.77-0.582 1.193-0.846l0.052-0.030c0.045-0.030 0.096-0.061 0.149-0.088l0.464-0.208c-0.058 0.146-0.109 0.296-0.175 0.438-0.268 0.623-0.677 1.141-1.189 1.533l-0.009 0.007c-0.172 0.089-0.286 0.264-0.286 0.468 0 0.118 0.039 0.227 0.105 0.315l-0.001-0.001c0.097 0.203 0.196 0.452 0.279 0.709l0.013 0.045c0.128 0.288 0.266 0.587 0.617 0.19 0.039-0.045 0.094-0.075 0.156-0.080h0.001c0.281 0 0.463 0.587 0.825 0.168s0.617-0.044 0.913 0c0.358 0.090 0.668 0.202 0.963 0.342l-0.032-0.014c0.102 0.040 0.281 0.135 0.273 0.171-0.021 0.146-0.093 0.273-0.197 0.364l-0.001 0.001c-0.175 0.090-0.393 0.184-0.618 0.266l-0.044 0.014c-0.243 0.1-0.45 0.213-0.643 0.347l0.012-0.008c-0.241 0.186-0.402 0.226-0.563-0.087s-0.366-0.365-0.544-0.047c-0.197 0.365-0.329 0.182-0.529 0.025-0.402-0.318-0.504-0.273-0.639 0.238-0.035 0.175-0.073 0.322-0.117 0.464l0.008-0.030c-0.053 0.099-0.086 0.217-0.086 0.342 0 0.282 0.16 0.527 0.395 0.648l0.004 0.002c0.426 0.29 0.747 0.706 0.912 1.195l0.005 0.016c0.070 0.205 0.464 0.321 0.209 0.58-0.052 0.054-0.402-0.161-0.599-0.281-0.538-0.295-0.99-0.683-1.347-1.146l-0.008-0.010c-0.153-0.223-0.321-0.281-0.602-0.087-0.312 0.186-0.682 0.37-1.066 0.529l-0.059 0.021c-0.252 0.128-0.311 0.365-0.022 0.449 0.459 0.149 0.27 0.306 0.037 0.442s-0.277 0.365-0.106 0.51c0.277 0.27 0.19 0.521 0.084 0.814-0.153 0.423-0.262 0.857-0.42 1.277-0.047 0.12-0.208 0.201-0.314 0.3-0.087-0.099-0.215-0.182-0.263-0.3-0.208-0.533-0.397-1.068-0.581-1.609-0.007-0.028-0.012-0.061-0.012-0.095 0-0.075 0.022-0.145 0.061-0.202l-0.001 0.001c0.271-0.296 0.252-0.511-0.095-0.73-0.219-0.135-0.339-0.303 0.054-0.394 0.117-0.032 0.216-0.096 0.292-0.182l0.001-0.001c0.039-0.040 0.033-0.204 0-0.219-0.412-0.161-0.793-0.325-1.198-0.511zM14.643 17.543c0 0.062 0 0.124 0 0.182-0.033 0.303 0.204 0.291 0.395 0.365 0.3 0.142 0.273-0.135 0.366-0.244s0.037-0.175 0.077-0.256c0.073-0.138 0.164-0.27 0.245-0.409 0.138 0.106 0.259 0.227 0.361 0.36l0.003 0.005c0.070 0.124 0.040 0.299 0.087 0.438 0.037 0.082 0.109 0.143 0.195 0.168h0.002c0.012 0.001 0.026 0.001 0.040 0.001 0.338 0 0.614-0.274 0.614-0.613 0-0.047-0.005-0.093-0.015-0.136l0.001 0.004c-0.087-0.365 0-0.459 0.336-0.332s0.453-0.182 0.548-0.416c0.095-0.234-0.116-0.281-0.281-0.335-0.096-0.016-0.181-0.044-0.261-0.082l0.006 0.003c-0.179-0.113-0.248-0.266-0.054-0.427 0.087-0.057 0.19-0.115 0.296-0.168l0.018-0.008c0.164-0.099 0.366-0.143 0.241-0.445s-0.116-0.569-0.504-0.427c-0.281 0.105-0.395 0.025-0.427-0.248-0.003-0.19-0.034-0.371-0.087-0.543l0.004 0.014c-0.054-0.139-0.186-0.236-0.341-0.236-0.143 0-0.266 0.082-0.326 0.201l-0.001 0.002c-0.058 0.099-0.044 0.241-0.099 0.343-0.088 0.171-0.209 0.324-0.314 0.489-0.099-0.171-0.205-0.335-0.296-0.511-0.025-0.051 0-0.139-0.025-0.175-0.091-0.109-0.209-0.287-0.3-0.281-0.182 0.025-0.339 0.114-0.452 0.243l-0.001 0.001c-0.080 0.099-0.054 0.285-0.070 0.434-0.023 0.27-0.124 0.365-0.412 0.273-0.486-0.182-0.423 0.241-0.533 0.496-0.149 0.365 0.211 0.273 0.329 0.394 0.051 0.054 0.186 0 0.259 0.062 0.097 0.071 0.182 0.148 0.258 0.232l0.001 0.001c-0.073 0.062-0.152 0.122-0.236 0.177l-0.009 0.005c-0.086 0.048-0.193 0.097-0.303 0.142l-0.022 0.007c-0.366 0.161-0.252 0.434-0.149 0.686s0.209 0.459 0.529 0.303c0.321-0.156 0.486-0.153 0.311 0.259z"></path>
</svg>
