<!-- Generated by IcoMoon.io -->
<svg version="1.1" xmlns="http://www.w3.org/2000/svg" width="512" height="512" viewBox="0 0 512 512">
<title>bladeborn-grashrak</title>
<path fill="#fff" d="M236.944 25.312c-0.768 3.408-1.44 7.68-1.888 12.016l-0.048 0.496c-0.352 6.208 0 12.4 0 18.608 0 0.928 0.88 1.744 1.12 2.688 3.92 18.192 0 24.096-18.32 27.856-26.592 6.208-49.856 17.776-69.552 33.6l0.336-0.256c-19.104 14.72-34.576 33.152-45.488 54.32l-0.416 0.896c-10.8 18.496-17.424 40.576-18.032 64.192v0.176c0 6.32 0.4 12.624 0 18.96-1.648 24.4 5.856 46.816 15.408 68.448 11.536 25.264 28.448 46.32 49.392 62.368l0.384 0.272c20.848 16.816 46.16 29.024 73.856 34.624l1.12 0.192c10.368 2.048 12.24 3.504 11.712 14.272s2.224 22.288-2.224 33.168c-0.928 2.272 0.656 5.84 0.88 8.432 0.528 5.84 1.232 11.696 1.28 17.536 0 1.936-1.824 3.92-2.816 5.84-1.472-1.424-2.736-3.040-3.808-4.8l-0.064-0.112c-5.312-12.288-10.432-24.688-15.808-36.928-0.96-1.664-2.464-2.896-4.288-3.488l-0.064-0.016c-6.336-2.288-12.72-4.448-19.152-6.192-24-6.976-44.8-18.24-62.592-33.040l0.288 0.208c-2.688-2.864-6.496-4.656-10.736-4.656-2.496 0-4.848 0.624-6.912 1.712l0.080-0.032c-5.616 1.952-12.24 3.52-19.072 4.448l-0.544 0.064c-6.736 1.648-8.912 0-7.552-6.848 0.992-5.152 2.64-10.256 4.032-15.328 0.992-2.848 1.568-6.144 1.568-9.568 0-6.736-2.224-12.944-5.952-17.952l0.064 0.080c-17.424-23.424-29.040-52.112-32.208-83.296l-0.064-0.72c-0.688-7.904-6.208-11.232-12.832-14.112-11.712-4.976-22.832-10.416-34.144-15.792-1.504-1.008-2.832-2.144-3.968-3.424l-0.016-0.016c1.024-0.816 2.176-1.616 3.376-2.32l0.144-0.080c7.92-3.568 15.872-7.088 23.824-10.528 4.4-1.936 8.912-3.632 13.36-5.44 6.256-2.416 10.608-8.384 10.608-15.36 0-0.048 0-0.096 0-0.144v0.016c2.976-24.832 11.152-47.28 23.408-66.912l-0.4 0.688c5.856-8.896 12.352-17.152 17.984-26.080 0.832-1.712 1.312-3.744 1.312-5.888 0-1.152-0.144-2.256-0.4-3.344l0.016 0.096c-1.984-9.424-4.912-18.608-6.896-27.968-1.168-5.84 1.344-7.536 7.264-5.84 2.336 0.656 4.688 1.232 6.96 1.984 21.728 6.624 22.368 7.552 40.128-4.976 17.152-12.144 37.168-21.632 58.736-27.328l1.28-0.304c8.48-1.568 15.2-7.76 17.536-15.808l0.048-0.16c3.856-10.384 7.504-18.704 11.552-26.8l-0.72 1.584c0.896-1.712 1.744-3.136 2.688-4.496l-0.112 0.176c1.264 1.328 2.336 2.864 3.12 4.576l0.048 0.112c0.8 3.088 1.584 7.040 2.16 11.040l0.064 0.608z"></path>
<path fill="#fff" d="M430.016 93.76c-2.368 10.688-4.88 19.52-7.856 28.112l0.544-1.792c-0.768 1.456-1.232 3.184-1.232 5.024 0 3.12 1.296 5.92 3.376 7.904 16.304 20.192 28.16 44.672 33.664 71.456l0.176 1.088c1.28 5.84 1.888 11.344 3.104 16.976 0.944 6.464 5.28 11.712 11.12 13.936l0.128 0.048c13.456 5.2 26.768 10.816 40.112 16.256 0.912 0.496 1.712 0.992 2.448 1.552l-0.048-0.032c-0.656 0.656-1.168 1.648-1.936 1.808-13.6 3.344-24.72 12.64-38.544 15.68-6.88 1.44-12.144 6.976-13.168 13.888l-0.016 0.096c-1.344 7.088-1.744 14.336-3.344 21.36-1.28 5.568-3.856 10.816-5.44 16.32-6.272 22.224-18.912 40.944-32.144 59.44-1.616 1.744-2.608 4.064-2.608 6.624 0 1.392 0.288 2.72 0.816 3.904l-0.032-0.064c2.752 7.088 4.512 14.576 6.624 21.936 0.368 1.232 0.592 2.688 0.592 4.16 0 0.048 0 0.080 0 0.112 0 3.856-0.88 6.8-5.84 5.216-6.864-2.112-13.936-3.696-20.736-5.84-1.968-0.912-4.288-1.456-6.736-1.456-4.176 0-7.968 1.584-10.864 4.176l0.016-0.016c-5.040 4.32-11.184 7.424-16.512 11.712-14.992 11.344-32.976 15.792-50.192 21.648-10.368 3.568-17.568 8.080-21.088 18.96-3.648 9.84-7.456 18.080-11.808 25.984l0.496-0.992c-0.656 1.28-2.928 1.744-4.448 2.576-0.352-1.648-1.408-3.504-1.056-4.976 0.992-4.288 1.552-9.232 1.552-14.304s-0.576-10-1.648-14.752l0.080 0.448c-0.768-6.8-1.2-14.656-1.2-22.608 0-3.808 0.096-7.584 0.288-11.328l-0.016 0.528c0-4.208 2.336-5.84 6.144-6.624 9.248-2.464 18.144-6.192 27.52-8.144 25.008-5.312 44.4-20.064 62.768-36.56 2.512-2.288 4.688-4.976 7.264-7.2 20.096-17.248 30.688-40.256 40.064-64.352 5.136-12.704 8.096-27.424 8.096-42.864 0-3.040-0.112-6.032-0.336-9.008l0.032 0.4c-0.992-14.928 1.456-29.904-2.8-44.816-13.824-48.432-40.464-87.040-84.848-112.32-15.6-8.912-33.776-15.488-53.104-18.656l-0.944-0.112c-4.384-0.768-7.136-1.584-7.552-6.672-0.592-7.2-2.512-14.272-2.688-21.408-0.4-14.576 0-29.248 0-43.824 0-1.456 1.808-2.928 2.752-4.384 1.408 1.056 3.456 1.808 4.032 3.216 4.032 9.232 7.968 18.544 11.712 28.032 2.816 7.712 9.376 13.456 17.424 15.072l0.16 0.032c28.528 7.824 53.376 20.736 74.72 37.824l-0.4-0.32c5.856 4.56 11.712 3.168 17.984 1.584 7.392-1.632 13.44-3.312 19.344-5.296l-1.312 0.384c5.568-1.984 7.136 0.128 7.312 5.312z"></path>
<path fill="#fff" d="M156.656 180.368c0-3.92 0-7.776 0-11.712 0-0.688 0.992-1.344 1.584-2.048 0.592 0.688 1.648 1.408 1.696 2.176 0.768 8.096 4.8 15.12 10.72 19.84l0.064 0.048c5.008 5.296 12.096 8.592 19.968 8.592 6.784 0 12.992-2.448 17.776-6.528l-0.048 0.032c7.776-5.632 16.656-11.12 25.92-15.984l1.216-0.576c2.576-1.344 9.888-6.368 9.728 3.68 0 1.936 0 4.976 1.76 0.288 4.224-12.336 14.688-8.192 22.144-6.368 9.376 3.136 17.488 7.12 24.96 11.968l-0.432-0.256c4.688 2.512 4.096 7.376 4.16 11.696 0 2.112 0.528 4.288 2.976 1.984 3.456-3.232 6.336-2.576 10.432-0.768 3.232 1.312 6.976 2.080 10.912 2.080 9.616 0 18.176-4.576 23.6-11.664l0.048-0.080 8.48-11.344c1.088 4.464 1.76 9.6 1.824 14.88v0.048c-0.72 19.632-16.016 35.456-35.36 37.024l-0.144 0.016c-11.936 0.976-21.248 10.896-21.248 22.976 0 1.152 0.080 2.256 0.256 3.344l-0.016-0.112c0.176 0.656 0.256 1.44 0.256 2.224 0 5.168-4.128 9.36-9.28 9.472h-0.016c-9.952 1.984-9.776 1.984-10.368 11.696-0.528 8.144-1.584 16.256-2.288 24.4 0 1.872-0.528 4.384 0.4 5.568 6.496 7.552 0.928 13.28-2.576 19.184-2.4 3.936-4.784 7.312-7.392 10.528l0.112-0.176c-2.576 3.104-5.84 5.84-8.432 8.768-0.464-3.28-1.184-6.56-1.456-9.824-0.016-5.568-3.040-10.448-7.536-13.056l-0.080-0.048c-2.464-1.552-4.448-3.664-5.824-6.176l-0.048-0.096c-1.872-3.68-0.4-14.208-7.728-2.864 0 0-4.512-1.824-4.56-2.864-0.032-1.104-0.032-2.4-0.032-3.712 0-5.312 0.24-10.576 0.672-15.76l-0.048 0.688c0-3.808 1.648-7.552 1.744-11.344 0-7.616 0-7.616-8.368-7.84-9.728 0-13.36-2.4-11.712-11.712 2.704-14.736-8.368-21.76-14.64-31.52-0.928-1.456-4.336-1.68-6.624-2.048-14.768-2.368-26.928-11.68-33.2-24.432l-0.128-0.256c-2.736-6.384-4.784-13.808-5.808-21.568l-0.048-0.432zM231.552 251.44c7.264-1.872 12.768-3.104 18.144-4.848 1.136-0.832 1.856-2.176 1.856-3.68 0-0.192-0.016-0.384-0.032-0.576v0.016c-0.928-2.576-2.288-5.84-4.464-6.96-3.584-1.232-7.712-1.936-12-1.936-0.080 0-0.16 0-0.24 0h0.016c-4.096-0.288-10.48 6.56-9.312 10.816 0.88 2.928 4.224 5.088 6.032 7.136zM281.744 248.048c4.224 1.648 8.32 0.88 8.256-4.032-0.496-3.984-1.744-7.584-3.584-10.784l0.080 0.144c-0.736-0.896-1.84-1.472-3.088-1.472-0.112 0-0.224 0-0.32 0.016h0.016c-5.648 2.48-10.416 5.072-14.96 7.984l0.432-0.256c-1.136 1.216-1.808 2.848-1.808 4.656 0 0.56 0.064 1.088 0.192 1.6l-0.016-0.048c0.928 2.928 3.392 3.808 6.912 2.4 1.344-0.304 2.896-0.464 4.48-0.464 1.248 0 2.464 0.112 3.664 0.288l-0.128-0.016zM268.8 272.32c0-10.816-4.448-13.68-12.768-9.536l-1.232 0.656c-2.448 2.080-4 5.168-4 8.608 0 1.536 0.32 3.008 0.864 4.336l-0.032-0.080c2.576 2.656 5.424 4.976 8.544 6.96l0.192 0.112z"></path>
</svg>
