<!-- Generated by IcoMoon.io -->
<svg version="1.1" xmlns="http://www.w3.org/2000/svg" width="32" height="32" viewBox="0 0 32 32">
<title>bladeborn-eyesofthenine</title>
<path fill="#fff" d="M17.218 29.21c0-0.609 0-1.214 0-1.823 0-0.507 0.106-0.612 0.595-0.755 0.305-0.111 0.682-0.219 1.068-0.3l0.056-0.010c1.175-0.175 2.15-0.791 3.063-1.459 1.387-1.029 2.632-2.214 3.405-3.811 0.42-0.868 0.865-1.718 0.975-2.699 0.033-0.295 0.12-0.587 0.128-0.882 0-0.821-0.048-1.645 0-2.458 0.009-0.118 0.014-0.256 0.014-0.394 0-0.846-0.191-1.647-0.532-2.364l0.014 0.033c-0.391-0.854-0.697-1.78-1.372-2.495-0.573-0.605-1.026-1.335-1.654-1.867-1.573-1.331-3.318-2.356-5.435-2.553-0.281-0.025-0.339-0.2-0.339-0.438 0-0.697 0-1.397 0-2.093s0-1.397 0-2.094c0.016-0.093 0.048-0.176 0.090-0.252l-0.002 0.004c0.057 0.055 0.108 0.116 0.151 0.182l0.003 0.004c0.318 0.711 0.631 1.418 0.938 2.133 0.114 0.274 0.345 0.48 0.628 0.556l0.007 0.002c1.173 0.373 2.121 0.737 3.041 1.149l-0.183-0.073c0.686 0.327 1.274 0.727 1.794 1.201l-0.005-0.005c0.261 0.248 0.614 0.4 1.004 0.4 0.21 0 0.408-0.044 0.589-0.123l-0.010 0.004c0.347-0.099 0.683-0.23 1.030-0.317 0.434-0.113 0.519 0 0.395 0.438s-0.223 0.872-0.364 1.291c-0.055 0.124-0.088 0.269-0.088 0.422 0 0.291 0.117 0.554 0.307 0.745 0.637 0.809 1.148 1.752 1.482 2.777l0.018 0.064c0.273 0.716 0.525 1.584 0.71 2.477l0.020 0.115c0.070 0.488 0.411 0.882 0.863 1.030l0.009 0.003c0.73 0.285 1.46 0.598 2.161 0.905 0.061 0.042 0.113 0.091 0.156 0.148l0.001 0.002c-0.040 0.041-0.086 0.076-0.136 0.104l-0.003 0.002c-0.73 0.306-1.482 0.624-2.238 0.901-0.438 0.095-0.767 0.455-0.818 0.9v0.005c-0.337 2.046-1.097 3.868-2.187 5.445l0.029-0.045c-0.405 0.562-0.682 1.12-0.364 1.823 0.033 0.104 0.060 0.228 0.076 0.354l0.001 0.011c0.325 1.288 0.325 1.291-0.971 0.934-0.259-0.073-0.5-0.215-0.763-0.27-0.079-0.023-0.168-0.037-0.261-0.037-0.224 0-0.43 0.079-0.591 0.209l0.002-0.001c-1.098 0.958-2.444 1.659-3.929 1.994l-0.060 0.012c-0.971 0.178-1.369 0.806-1.686 1.594-0.12 0.299-0.241 0.602-0.365 0.893-0.102 0.215-0.24 0.42-0.364 0.631-0.025-0.27-0.070-0.536-0.077-0.802-0.033-0.507-0.022-0.992-0.022-1.477z"></path>
<path fill="#fff" d="M14.553 2.889c0 0.609 0 1.214 0 1.823 0 0.387-0.143 0.627-0.565 0.671-0.418 0.050-0.78 0.114-1.134 0.196l0.072-0.014c-0.195 0.040-0.367 0.092-0.53 0.16l0.018-0.007c-0.704 0.266-1.289 0.535-1.851 0.841l0.077-0.039c-0.648 0.405-1.209 0.827-1.731 1.294l0.012-0.011c-1.088 0.941-2.008 2.039-2.734 3.264l-0.033 0.061c-0.183 0.352-0.349 0.764-0.476 1.193l-0.013 0.050c-0.399 1.118-0.63 2.406-0.63 3.75 0 0.404 0.021 0.803 0.062 1.197l-0.004-0.049c0.138 0.736 0.314 1.377 0.538 1.995l-0.028-0.087c0.377 1.5 1.092 2.799 2.062 3.861l-0.007-0.007c0.896 0.971 1.924 1.803 3.058 2.471l0.062 0.034c0.956 0.558 2.015 0.729 3.037 1.065 0.73 0.237 0.73 0.244 0.73 1.006 0 1.216 0 2.431 0 3.646-0.016 0.094-0.045 0.179-0.086 0.257l0.002-0.005c-0.062-0.058-0.149-0.106-0.178-0.178-0.186-0.434-0.365-0.868-0.534-1.316-0.27-0.781-0.672-1.371-1.562-1.571-1.6-0.399-2.993-1.124-4.167-2.103l0.016 0.013c-0.701-0.562-1.355-0.219-2.036-0.124-0.205 0.049-0.378 0.104-0.545 0.166l0.030-0.009c-0.438 0.124-0.533 0.037-0.409-0.423 0.102-0.364 0.234-0.73 0.365-1.094 0.059-0.149 0.093-0.322 0.093-0.502 0-0.317-0.105-0.608-0.282-0.844l0.003 0.004c-0.466-0.764-0.969-1.703-1.424-2.668l-0.082-0.195c-0.381-0.808-0.641-1.748-0.728-2.737l-0.002-0.031c-0.020-0.306-0.227-0.558-0.506-0.648l-0.005-0.001c-0.687-0.314-1.376-0.609-2.055-0.934-0.171-0.109-0.319-0.229-0.452-0.364 0.149-0.134 0.315-0.255 0.494-0.358l0.014-0.007c0.631-0.277 1.27-0.548 1.92-0.784 0.427-0.157 0.519-0.423 0.595-0.868 0.325-1.91 0.92-3.749 2.191-5.244 0.672-0.787 0.412-1.554 0.263-2.363-0.058-0.31-0.128-0.616-0.194-0.922 0.339 0.006 0.661 0.060 0.966 0.156l-0.024-0.007c0.971 0.445 1.745 0.19 2.555-0.43 1.039-0.769 2.279-1.334 3.623-1.609l0.060-0.011c0.423-0.060 0.768-0.342 0.917-0.721l0.003-0.008c0.168-0.42 0.336-0.835 0.521-1.247 0.11-0.24 0.248-0.471 0.365-0.704 0.036-0.043 0.077-0.080 0.122-0.111l0.002-0.001c0.039 0.066 0.113 0.13 0.116 0.197 0 0.486 0 0.97 0 1.459v0.547z"></path>
<path fill="#fff" d="M12.848 15.896c-0.182-0.693 0.143-1.36 0.621-1.973 0.4-0.522 0.961-0.903 1.608-1.071l0.020-0.005c0.271-0.081 0.584-0.128 0.907-0.128 1.114 0 2.098 0.554 2.692 1.401l0.007 0.011c0.402 0.502 0.645 1.147 0.645 1.847 0 0.509-0.128 0.988-0.353 1.407l0.008-0.015c-0.473 1.085-1.528 1.834-2.761 1.856h-0.003c-1.376 0.077-2.344-0.554-3.099-1.641-0.343-0.492-0.306-1.025-0.292-1.688z"></path>
<path fill="#fff" d="M11.001 13.683c0-2.188 0.759-3.489 1.982-4.57 0.156-0.127 0.336-0.234 0.53-0.312l0.013-0.005c0.118-0.040 0.255-0.068 0.397-0.077h0.005c-0.025 0.135-0.044 0.273-0.080 0.409-0.070 0.259-0.143 0.518-0.223 0.777-0.071 0.171-0.111 0.369-0.111 0.577 0 0.509 0.246 0.961 0.625 1.244l0.004 0.003c0.095 0.073 0.215 0.109 0.31 0.178 0.336 0.256 0.31 0.347-0.106 0.583-1.307 0.748-2.153 1.798-2.168 3.38-0.021 0.119-0.056 0.226-0.106 0.324l0.003-0.007-0.234-0.252c-0.523-0.573-0.843-1.34-0.843-2.18 0-0.025 0-0.052 0.001-0.077v0.004z"></path>
<path fill="#fff" d="M20.718 18.704c0.252 1.149-0.339 2.067-0.869 2.954-0.459 0.766-1.219 1.294-1.912 1.856-0.044 0.037-0.157 0-0.234-0.022 0 0-0.022-0.102 0-0.149 0.153-0.391 0.336-0.773 0.467-1.17 0.318-0.951 0.102-1.509-0.73-2.046-0.365-0.226-0.365-0.248 0-0.448 0.996-0.513 1.773-1.333 2.221-2.333l0.012-0.031c0.067-0.257 0.106-0.552 0.106-0.856 0-0.012 0-0.023 0-0.035v0.002c0.039-0.102 0.089-0.19 0.151-0.268l-0.002 0.002c0.073 0.052 0.172 0.087 0.209 0.157 0.427 0.74 0.803 1.499 0.581 2.389z"></path>
</svg>
