<!-- Generated by IcoMoon.io -->
<svg version="1.1" xmlns="http://www.w3.org/2000/svg" width="32" height="32" viewBox="0 0 32 32">
<title>skabbiks-plaguepack</title>
<path fill="#fff" d="M15.367 31.608c-0.338-0.293-0.721-0.766-0.856-1.059-0.428-0.811-1.464-1.284-3.987-1.779-2.343-0.473-3.334-0.833-3.762-1.397-0.338-0.428-0.518-1.306-0.248-1.306 0.113 0 0.158-0.090 0.090-0.203s0.023-0.248 0.203-0.338c0.18-0.068 0.338-0.27 0.338-0.45s0.293-0.924 0.653-1.644c0.924-1.915 1.126-2.658 1.487-6.037 0.068-0.743 0.248-1.802 0.383-2.365 0.315-1.374 1.96-4.73 2.297-4.73 0.563 0 1.667-1.442 1.667-2.207 0-0.383 0.225-0.991 0.496-1.351 0.45-0.541 0.473-0.833 0.405-2.838l-0.068-2.23 0.788-0.518c0.428-0.27 0.878-0.518 0.991-0.518 0.113-0.023 0.405-0.203 0.653-0.405 0.428-0.405 0.428-0.383 0.248 0.946-0.383 2.635-0.27 4.009 0.405 4.978 0.586 0.811 0.608 0.878 0.248 1.284-0.36 0.383-0.315 0.473 1.239 1.892 2.343 2.117 2.68 2.906 3.198 7.32 0.496 4.257 1.194 6.532 2.478 8.244 0.496 0.653 0.901 1.329 0.901 1.532 0 1.126-1.532 2.072-3.897 2.365-1.734 0.225-3.424 0.631-3.244 0.788 0.135 0.135-1.329 1.779-1.982 2.207-0.473 0.315-0.563 0.293-1.126-0.18zM16.448 24.986c0.878-0.090 1.081-0.473 0.496-0.946-0.18-0.158-0.338-0.45-0.338-0.676 0-0.541 1.059-2.816 1.464-3.153 0.18-0.135 0.428-0.608 0.563-1.036s0.36-0.766 0.473-0.766c0.113 0 0.203-0.225 0.203-0.518s0.203-0.586 0.496-0.721c0.721-0.338 0.698-0.586-0.068-1.464l-0.698-0.788-0.586 0.676c-0.608 0.676-0.631 0.676-2.748 0.608-1.847-0.068-2.23-0.158-2.861-0.631-0.383-0.293-0.766-0.541-0.833-0.541s-0.473 0.36-0.924 0.811c-0.653 0.653-0.766 0.878-0.541 1.126 0.135 0.18 0.541 0.315 0.878 0.315 0.563 0 0.743 0.225 1.802 2.297 1.014 2.027 1.149 2.455 1.059 3.311-0.068 0.541-0.225 1.059-0.36 1.149-0.608 0.36 0.608 1.442 1.329 1.171 0.18-0.068 0.721-0.158 1.194-0.225z"></path>
<path fill="#fff" d="M14.804 19.715c-0.743-1.014-1.036-1.825-0.811-2.185 0.203-0.293 3.041-0.135 3.356 0.18 0.18 0.18 0.158 0.428-0.113 0.878-0.36 0.586-0.405 0.743-0.405 1.149 0 0.338-0.676 0.924-1.036 0.924-0.158 0-0.631-0.428-0.991-0.946z"></path>
</svg>
