<!-- Generated by IcoMoon.io -->
<svg version="1.1" xmlns="http://www.w3.org/2000/svg" width="512" height="512" viewBox="0 0 512 512">
<title>bladeborn-velmorn</title>
<path fill="#fff" d="M255.701 150.825c-0.974 1.937-4.483 7.725-7.798 12.863l-6.028 9.345 1.478 9.329c2.034 12.832 2.235 67.331 0.255 68.977-1.827 1.519-4.811-0.811-4.811-3.755 0-1.162-1.022-4.792-2.274-8.066s-3.059-9.079-4.025-12.903c-0.965-3.823-4-12.127-6.745-18.453-5.494-12.656-5.346-10.368-2.131-33.101 1.385-9.799 0.101-9.937-8.322-0.889-11.062 11.883-11.98 14.032-12.076 28.272l-0.079 11.884 5.613 11.166c5.102 10.147 6.757 15.879 7.719 26.717 0.168 1.886-0.399 2.927-1.734 3.194-1.088 0.219-1.979-0.179-1.979-0.881 0-2.145-4.547-11.412-9.997-20.373-5.393-8.865-7.927-20.041-8.084-35.668-0.052-5.099-2.025-13.129-3.618-14.721-0.98-0.98-6.392 6.726-7.25 10.322-0.427 1.797-1.548 4.153-2.49 5.238-3.246 3.736-1.233 22.219 3.109 28.528 1.951 2.832 4.24 7.465 5.092 10.293s2.864 6.869 4.474 8.979c3.518 4.614 3.625 5.797 0.655 7.384-2.861 1.533-2.030 9.791 1.252 12.445 1.411 1.141 1.88 2.531 1.427 4.235-0.579 2.194 0.155 2.923 5.4 5.366 7.82 3.638 10.033 3.659 10.033 0.087 0-3.449 1.978-4.801 3.754-2.563 2.571 3.246 15.538 4.541 18.413 1.84 3.083-2.896 10.475-2.663 11.954 0.375 0.531 1.087 1.4 2.87 1.937 3.962 1.692 3.445 18.704 2.889 19.203-0.628 0.682-4.813 9.283-6.355 12.6-2.262 1.892 2.337 2.315 2.397 6.973 1.016 6.783-2.014 7.787-3.080 7.787-8.251 0-5.204 3.357-5.877 4.524-0.904 0.808 3.449 4.611 4.277 7.298 1.588 1.276-1.276 1.686-2.855 1.223-4.695-0.385-1.526-0.206-3.368 0.397-4.090 1.468-1.771 4.627-10.975 4.649-13.547 0.007-1.134 2.437-4.612 5.394-7.731 8.995-9.484 15.729-31.286 12.658-40.977-5.481-17.303-9.434-20.688-10.434-8.93-0.998 11.738-4.367 27.693-6.511 30.84-1.060 1.557-3.078 5.123-4.486 7.921-4.067 8.095-11.752 19.208-13.3 19.225-2.397 0.024-1.587-3.274 2.546-10.323 2.18-3.719 3.962-7.041 3.962-7.381 0-0.344 1.212-3.038 2.693-5.988 3.897-7.758 5.346-20.869 3.652-33.075l-1.36-9.82-8.998-9.42c-12.319-12.894-12.594-12.498-9.605 13.779 2.488 21.861 1.329 36.833-3.421 44.232-5.19 8.084-8.984 16.046-8.987 18.862-0.005 2.167-0.611 2.546-4.070 2.546h-4.068l0.56-16.125c0.307-8.87 1.101-23.511 1.769-32.537 2.761-37.452 3.436-32.919-7.321-49.382-4.729-7.238-6.204-7.826-8.447-3.369l-0.001-0.001zM297.647 279.4c-1.557 1.219-4.611 2.502-6.791 2.853s-5.353 0.857-7.058 1.127c-2.099 0.331-3.776-0.241-5.204-1.775-2.558-2.745-5.383-1.928-6.325 1.824-1.438 5.733-26.682 4.988-26.682-0.788 0-3.111-2.744-3.747-7.679-1.771-4.191 1.678-5.811 1.583-16.154-0.942-1.948-0.476-3.383-0.12-4.381 1.082-1.76 2.118-9.191 2.406-11.167 0.43-3.469-3.469-4.083 1.168-0.992 7.483 3.334 6.81 3.976 14.317 1.401 16.45-4.008 3.327-2.162 14.198 3.846 22.635 3.101 4.354 5.167 4.372 7.399 0.061 3.356-6.491 9.595-1.308 10.213 8.487 1.032 16.37 10.726 36.316 10.726 22.067 0-3.68 1.095-4.817 3.32-3.442 0.963 0.594 1.256 1.964 0.804 3.758-1.527 6.082 4.097 6.627 7.464 0.725 2.18-3.823 4.256-3.503 4.256 0.655 0 5.135 5.148 4.806 6.392-0.409 1.004-4.205 1.384-4.67 3.259-3.95 1.080 0.414 1.428 1.533 1.005 3.221-0.781 3.111 0.98 4.483 3.813 2.966 1.991-1.065 3.409-6.433 5.421-20.502 1.565-10.955 8.959-18.293 12.724-12.627 2.522 3.8 4.913 2.853 10.067-3.989 6.565-8.714 8.471-16.962 4.951-21.433-2.76-3.507-2.623-5.19 1.205-14.844 3.882-9.802 0.892-14.604-5.825-9.349l-0.005-0.001zM235.085 301.925c5.387 4.594 6.012 6.604 2.302 7.406-8.191 1.776-10.692 1.089-13.948-3.827-6.326-9.56 1.73-12.035 11.645-3.58l0.001 0.001zM285.368 299.123c3.31 7.262-5.39 13.321-15.207 10.591-8.39-2.334-8.041-4.2 1.702-9.098 9.781-4.916 11.842-5.145 13.505-1.493v0zM255.33 313.546c0.452 0.731 1.207 3.151 1.677 5.376s1.192 5.123 1.599 6.438c1.027 3.297-2.72 4.759-4.913 1.914-1.118-1.452-1.727-1.632-2.105-0.628-1.762 4.696-4.928 1.276-4.191-4.527 1.142-8.979 5.062-13.216 7.931-8.576l0.001 0.002z"></path>
<path fill="#fff" d="M426.768 94.88c-1.68 8.288-3.872 15.488-6.624 22.4l0.304-0.864c-1.232 2.080-1.968 4.592-1.968 7.264 0 4.24 1.84 8.064 4.768 10.688l0.016 0.016c10.064 12.368 18.208 26.768 23.712 42.448l0.32 1.008c5.568 13.12 9.792 28.368 11.92 44.272l0.096 0.912c0.128 5.584 3.616 10.304 8.512 12.256l0.096 0.032c14.768 5.2 27.712 14.864 43.536 17.568 0.896 0.384 1.68 0.896 2.336 1.52-0.624 0.624-1.376 1.168-2.176 1.616l-0.048 0.032c-10.656 3.92-21.968 6.432-30.88 14.224-16.64 0-21.92 10.080-22.624 25.232-1.056 8.688-3.104 16.608-6.080 24.064l0.224-0.64c-2.4 8.688-5.312 16.16-8.88 23.28l0.336-0.736c-5.568 12.048-12.032 22.448-19.632 31.92l0.224-0.288c-10.32 11.696-8.912 22.656-4.848 35.12 1.28 4.080 2.944 8.016 3.984 12.176s-1.344 5.856-4.752 4.752c-7.264-2.048-14.544-4.16-21.68-6.624-2.016-0.944-4.4-1.488-6.88-1.488-4.080 0-7.824 1.472-10.72 3.904l0.032-0.016c-10.48 8.56-22.448 15.952-35.328 21.664l-1.008 0.4c-6.96 2.864-13.824 5.856-20.864 8.544s-13.712 4.048-20.096 7.024c-3.472 1.344-6.272 3.808-8 6.944l-0.048 0.080c-5.856 10.768-9.136 22.544-14.416 33.488-0.672 1.104-1.792 1.856-3.088 2.048h-0.016c-0.992 0-1.936-1.52-2.752-2.512-0.096-0.208-0.16-0.448-0.16-0.704s0.064-0.496 0.16-0.72v0.016c4.384-19.968-2.048-39.856-0.464-59.936-0.032-0.256-0.032-0.544-0.032-0.848 0-4.944 3.824-9.008 8.672-9.392h0.032c12.832-3.28 25.488-7.088 38.192-10.656 1.52-0.512 2.832-1.088 4.064-1.776l-0.144 0.064c25.552-12.704 47.040-29.952 64.192-50.88l0.256-0.336c5.856-7.44 10.784-15.168 15.936-22.944 5.456-8.608 9.824-18.576 12.512-29.2l0.16-0.72c0.176-1.52 0.544-2.896 1.088-4.192l-0.032 0.096c8.368-12.88 8.256-27.28 7.792-41.808v-7.312c0-35.952 0.656-36.176-12.064-68.496-5.936-14.592-13.232-27.2-21.968-38.624l0.304 0.4c-10.336-14.144-22.464-26.192-36.256-36.080l-0.48-0.336c-8.736-5.856-17.568-11.696-26.768-17.552-1.344-0.64-2.912-1.008-4.592-1.008-0.448 0-0.88 0.032-1.312 0.080h0.048c-3.952-0.32-7.568-1.552-10.72-3.456l0.112 0.064c-7.648-3.28-16.672-6.128-26.032-8.048l-0.928-0.16c-8.544-1.936-11.312-3.984-11.712-12.656v-59.968c0-1.12 1.056-2.176 1.712-3.264 0.928 0.368 1.712 0.88 2.4 1.52 1.824 2.416 3.52 5.168 4.976 8.064l0.144 0.304c3.392 7.776 6.848 15.632 9.664 23.712 1.888 6.064 6.944 10.608 13.2 11.68l0.112 0.016c13.952 2.832 26.32 7.232 37.808 13.088l-0.832-0.384c14.944 6.864 27.792 14.688 39.632 23.776l-0.48-0.352c3.68 3.040 8.448 4.864 13.632 4.864 2.768 0 5.424-0.528 7.84-1.472l-0.144 0.048c7.712-1.664 14.128-3.472 20.384-5.648l-1.232 0.368c4.624-1.712 4.336 0.704 4.4 7.024l-0.080 0.016z"></path>
<path fill="#fff" d="M234.384 29.552c-0.928 4.912-2.4 11.408-3.344 18.032-0.064 0.736-0.096 1.616-0.096 2.496 0 2.112 0.208 4.176 0.608 6.176l-0.032-0.208c0.8 3.44 1.488 7.744 1.952 12.144l0.048 0.512c0.304 13.12 0 12.352-12.832 15.28-28.656 6.496-55.776 16.384-77.008 38.16-4.368 4.048-9.12 7.888-14.096 11.408l-0.432 0.288c-12.48 9.824-18.992 24.112-26.944 37.104-7.088 11.712-14.768 23.424-15.008 37.888-10.32 22.176-5.872 45.84-5.216 68.672 1.584 17.952 6.512 34.432 14.176 49.28l-0.336-0.752c10.624 23.52 25.552 43.376 43.92 59.36l0.192 0.176c10.928 9.952 23.28 18.624 36.656 25.6l0.96 0.448c3.456 1.52 7.888 3.136 12.4 4.512l0.896 0.24c10.656 4.496 23.344 8.528 36.464 11.424l1.504 0.288c3.808 0.704 5.040 2.512 4.736 5.856-1.28 14.336 2.176 28.8-2.176 43.2-1.584 5.376 1.456 12.064 2.112 18.144 0.144 1.088 0.224 2.352 0.224 3.632s-0.080 2.544-0.224 3.776l0.016-0.16c-0.352 0.864-1.104 1.52-2.032 1.68h-0.016c-1.232 0-3.456-0.88-3.52-1.52-1.168-14.688-10.544-26.224-15.408-39.456-0.752-1.984-3.104-4.752-4.848-4.8-14.176-0.88-25.072-11.696-39.312-12.224-14.112-9.664-31.056-14.864-43.072-27.68-2.176-2.656-5.456-4.352-9.12-4.352-1.408 0-2.736 0.256-3.968 0.688l0.080-0.032c-8.672 2.4-17.28 4.8-25.888 7.376-4.096 1.232-5.344-0.88-5.152-4.272 0.256-2.592 0.72-4.944 1.408-7.232l-0.064 0.256c2.176-8.192 4.624-16.336 6.512-24.592-0.128-2.24-0.976-4.272-2.368-5.856l0.016 0.016c-13.824-19.296-24.944-41.696-32.16-65.776l-0.416-1.6c-2.064-6.56-3.856-14.464-5.008-22.592l-0.096-0.832c-1.28-10.544-4.736-16.384-14.88-18.032-12.432-1.936-21.92-9.024-32.16-14.992-2.704-1.52-1.888-1.808 0-3.52 9.424-8.016 21.328-10.352 32.464-14.224 8.4-2.144 14.576-9.584 14.704-18.48v-0.016c1.504-14.224 4.816-27.28 9.728-39.52l-0.352 0.992c7.44-20.32 18.032-37.824 31.328-52.848l-0.16 0.176c1.952-1.776 3.184-4.32 3.184-7.168 0-1.664-0.416-3.232-1.168-4.592l0.032 0.048c-2.752-5.584-4.64-12.064-5.312-18.912l-0.016-0.24c-2.336-15.152-2.992-15.088 12.368-10.304 7.216 2.288 14.704 7.376 21.44 6.432s13.056-7.44 19.104-12.064c13.824-10.592 30.24-16.112 45.472-23.888 5.168-1.84 11.232-3.264 17.504-4.064l0.432-0.048c5.152-0.784 9.264-4.448 10.704-9.264l0.032-0.096c4.096-11.696 11.712-21.904 14-34.304 0-0.768 0.992-1.456 1.456-2.224 1.168 0.88 3.168 1.584 3.328 2.576 0.768 5.040 1.232 10.768 2.112 18.32l-0.032 0.080z"></path>
</svg>
