<!-- Generated by IcoMoon.io -->
<svg version="1.1" xmlns="http://www.w3.org/2000/svg" width="32" height="32" viewBox="0 0 32 32">
<title>bladeborn-sepulchral</title>
<path fill="#fff" d="M17.226 29.088c0-0.695 0-1.39 0-2.089 0-0.251 0.069-0.364 0.346-0.4 2.225-0.293 4.173-1.304 5.641-2.79l0.001-0.001c0.577-0.555 1.107-1.149 1.589-1.782l0.028-0.038c0.784-1.133 1.364-2.47 1.654-3.913l0.012-0.068c0.009-0.081 0.014-0.177 0.014-0.273s-0.005-0.191-0.015-0.285l0.001 0.011c0-0.848-0.033-1.695 0-2.547 0.062-1.197-0.336-2.267-0.79-3.34-0.516-1.2-1.213-2.225-2.070-3.094l0.001 0.001c-0.805-0.818-1.735-1.509-2.759-2.045l-0.061-0.029c-0.708-0.372-1.53-0.688-2.391-0.904l-0.078-0.016c-0.201-0.051-0.404-0.080-0.608-0.112-0.404-0.066-0.521-0.164-0.525-0.582 0-1.361 0-2.722 0-4.086 0-0.073 0.069-0.149 0.102-0.222 0.037 0.077 0.077 0.153 0.11 0.233 0.364 0.775 0.699 1.55 1.038 2.329 0.066 0.155 0.199 0.27 0.361 0.312l0.004 0.001c0.977 0.336 2.007 0.52 2.914 1.067 0.717 0.402 1.325 0.802 1.904 1.238l-0.041-0.030c0.56 0.451 1.093 0.568 1.719 0.215 0.080-0.044 0.178-0.149 0.23-0.127 0.394 0.157 0.729-0.422 1.093-0.105-0.077 0.338-0.141 0.68-0.23 1.015s-0.197 0.56-0.241 0.844c-0.028 0.087-0.045 0.188-0.045 0.291 0 0.241 0.087 0.463 0.231 0.635l-0.001-0.002c0.57 0.699 1.047 1.504 1.395 2.376l0.022 0.062c0.194 0.438 0.377 0.966 0.519 1.511l0.016 0.075c0.153 0.439 0.28 0.959 0.359 1.496l0.006 0.048c0.018 0.404 0.288 0.74 0.657 0.857l0.007 0.002c0.517 0.215 1.027 0.455 1.545 0.677 0.131 0.058 0.28 0.084 0.415 0.145 0.211 0.102 0.419 0.218 0.627 0.327-0.173 0.099-0.378 0.198-0.591 0.283l-0.035 0.012c-0.78 0.259-1.457 0.771-2.277 0.935-0.157 0.073-0.272 0.212-0.309 0.382l-0.001 0.004c-0.132 1.045-0.388 1.996-0.755 2.888l0.027-0.075c-0.332 0.757-0.678 1.514-1.056 2.248-0.215 0.422-0.525 0.793-0.757 1.204-0.099 0.134-0.158 0.303-0.158 0.486 0 0.124 0.027 0.242 0.077 0.349l-0.002-0.005c0.147 0.435 0.275 0.956 0.358 1.493l0.007 0.054c0.055 0.244-0.073 0.364-0.251 0.321-0.5-0.108-0.926-0.234-1.338-0.386l0.067 0.021c-0.157-0.072-0.341-0.113-0.534-0.113-0.332 0-0.635 0.123-0.866 0.327l0.002-0.001c-1.066 0.916-2.38 1.571-3.83 1.851l-0.052 0.009c-0.158 0.047-0.295 0.102-0.425 0.17l0.012-0.006c-0.438 0.168-0.83 0.298-0.918 0.903-0.062 0.44-0.39 0.844-0.593 1.266-0.102 0.211-0.186 0.433-0.28 0.651-0.033 0.077-0.073 0.153-0.113 0.23-0.033-0.077-0.098-0.153-0.098-0.232 0-0.728 0-1.456 0-2.184z"></path>
<path fill="#fff" d="M14.53 29.258c0 0.695 0 1.39 0 2.089 0 0.052-0.054 0.098-0.084 0.149-0.037-0.040-0.095-0.073-0.113-0.12-0.189-0.466-0.364-0.932-0.557-1.397-0.116-0.317-0.238-0.583-0.379-0.837l0.016 0.030c-0.218-0.38-0.591-0.65-1.029-0.727l-0.009-0.001c-1.464-0.328-2.747-0.962-3.829-1.834l0.018 0.014c-0.285-0.219-0.606-0.422-0.946-0.592l-0.035-0.016c-0.106-0.053-0.23-0.085-0.361-0.085-0.056 0-0.112 0.006-0.165 0.016l0.005-0.001c-0.568 0.138-1.129 0.317-1.694 0.477-0.222 0.062-0.364-0.054-0.313-0.273 0.132-0.511 0.269-0.931 0.429-1.339l-0.027 0.080c0.201-0.51 0.28-0.975-0.182-1.39-0.089-0.077-0.162-0.172-0.212-0.279l-0.002-0.005c-0.459-0.99-1.045-1.914-1.406-2.958-0.277-0.742-0.493-1.61-0.609-2.509l-0.007-0.060c-0.031-0.133-0.114-0.243-0.227-0.308l-0.002-0.001c-0.641-0.309-1.293-0.593-1.938-0.895-0.237-0.109-0.456-0.269-0.699-0.364s-0.153-0.207-0.033-0.298c0.136-0.098 0.29-0.185 0.455-0.253l0.014-0.006c0.755-0.323 1.516-0.633 2.269-0.964 0.089-0.059 0.152-0.154 0.164-0.264v-0.002c0.029-1.365 0.554-2.595 1.093-3.8 0.425-0.864 0.89-1.606 1.418-2.296l-0.024 0.032c0.15-0.175 0.241-0.403 0.241-0.652 0-0.061-0.006-0.121-0.016-0.18l0.001 0.006c-0.116-0.575-0.295-1.135-0.441-1.707-0.005-0.048-0.009-0.104-0.009-0.16s0.003-0.112 0.009-0.166l-0.001 0.007c0.12 0.007 0.231 0.021 0.339 0.043l-0.016-0.003c0.51 0.13 1.016 0.295 1.533 0.396 0.040 0.004 0.087 0.006 0.134 0.006 0.197 0 0.385-0.039 0.557-0.107l-0.010 0.003c0.173-0.073 0.322-0.166 0.454-0.279l-0.003 0.002c0.898-0.638 1.925-1.193 3.016-1.619l0.097-0.033c0.415-0.166 0.923-0.324 1.445-0.444l0.075-0.014c0.241-0.025 0.435-0.201 0.488-0.429l0.001-0.004c0.157-0.509 0.364-1.001 0.543-1.496 0-0.058 0-0.127 0.044-0.171 0.135-0.197 0.276-0.386 0.415-0.575 0.052 0.185 0.093 0.405 0.115 0.63l0.001 0.017c0 1.12 0 2.241 0 3.362 0 0.543-0.054 0.505-0.593 0.702s-1.238 0.077-1.821 0.433c-0.488 0.309-1.093 0.444-1.589 0.728-0.532 0.311-0.993 0.652-1.412 1.038l0.006-0.005c-0.675 0.549-1.271 1.146-1.804 1.797l-0.018 0.022c-0.728 0.997-1.457 2.030-1.668 3.275-0.080 0.51-0.332 0.935-0.426 1.456-0.096 0.539-0.151 1.161-0.151 1.796 0 1.243 0.211 2.437 0.6 3.548l-0.023-0.076c0.361 1.032 0.802 1.924 1.338 2.75l-0.030-0.050c0.339 0.5 0.722 0.932 1.154 1.311l0.008 0.007c0.51 0.496 1.057 0.963 1.633 1.392l0.043 0.031c0.996 0.798 2.223 1.35 3.566 1.542l0.040 0.005c0.136 0.012 0.26 0.036 0.379 0.069l-0.015-0.004c0.783 0.222 0.783 0.226 0.786 1.040 0 0.575 0 1.154 0 1.729z"></path>
<path fill="#fff" d="M20.948 14.674c-0.127 0.829-0.259 1.62-0.365 2.409-0.016 0.093-0.026 0.2-0.026 0.31 0 0.17 0.023 0.333 0.066 0.489l-0.003-0.013c0.048 0.126 0.075 0.27 0.075 0.423 0 0.309-0.115 0.591-0.306 0.805l0.001-0.001c-0.288 0.51-0.827 0.848-1.445 0.848-0.067 0-0.134-0.004-0.199-0.012l0.008 0.001c-0.339-0.033-0.543 0.207-0.579 0.622-0.029 0.331 0.025 0.67 0 0.997-0.025 0.182-0.172 0.484-0.284 0.495-0.68 0.062-1.257 0.601-1.989 0.422-0.601-0.145-1.217-0.236-1.821-0.411-0.142-0.040-0.273-0.313-0.299-0.491-0.047-0.364 0-0.728 0-1.092 0-0.429-0.116-0.524-0.531-0.553-0.12 0-0.245 0-0.365 0-0.291 0-0.576 0.051-0.848-0.197-0.396-0.388-0.718-0.85-0.943-1.366l-0.011-0.028c-0.004-0.016-0.006-0.036-0.006-0.055 0-0.073 0.028-0.139 0.075-0.189 0.448-0.429 0.273-0.935 0.189-1.43-0.126-0.505-0.221-1.102-0.264-1.713l-0.002-0.034c0-1.069 0.116-2.132 0.813-3.027 0.020-0.021 0.037-0.046 0.046-0.074l0.001-0.002c0.306-1.423 1.555-1.674 2.648-2.070 0.396-0.124 0.852-0.196 1.324-0.196 0.061 0 0.121 0.001 0.182 0.004h-0.009c0.448 0.027 0.867 0.093 1.27 0.196l-0.047-0.010c0.029 0 0.073 0.171 0.051 0.189-0.207 0.168-0.396 0.323-0.321 0.644 0 0.043-0.237 0.141-0.365 0.226-0.077 0.054-0.145 0.108-0.209 0.166l0.002-0.002c0.095 0.005 0.185 0.021 0.27 0.049l-0.007-0.002c0.042 0.041 0.070 0.095 0.077 0.155v0.001c-0.069 0.048-0.16 0.077-0.233 0.12-0.149 0.095-0.295 0.196-0.44 0.298 0.066 0.080 0.131 0.164 0.193 0.247 0 0-0.037 0.044-0.058 0.066l-0.426 0.404c0.241 0.102 0.39-0.098 0.579-0.171 0.247-0.098 0.506-0.164 0.729-0.273 0.080-0.037 0.12-0.16 0.182-0.244-0.626-0.302 0-0.364 0.091-0.549s0.083-0.342 0.164-0.499c0.080-0.157 0.321-0.317 0.291-0.396-0.102-0.244 0.033-0.309 0.172-0.232 0.385 0.16 0.716 0.344 1.022 0.561l-0.016-0.011c0.63 0.511 1.091 1.211 1.298 2.011l0.006 0.026c0.102 0.393 0.411 0.702 0.423 1.142 0.036 0.382 0.096 0.729 0.181 1.066l-0.011-0.047zM16.861 17.042c0.009 0.282 0.045 0.552 0.104 0.811l-0.006-0.028c0.054 0.169 0.157 0.308 0.293 0.406l0.002 0.002c0.24 0.092 0.518 0.146 0.808 0.146 0.35 0 0.682-0.078 0.979-0.217l-0.014 0.006c0.232-0.125 0.386-0.365 0.386-0.642 0-0.006 0-0.012 0-0.018v0.001c0-0.012 0-0.026 0-0.040 0-0.389-0.061-0.765-0.175-1.117l0.007 0.026c-0.087-0.226-0.193-0.226-0.364-0.276-0.587-0.171-0.998 0.284-1.501 0.4-0.332 0.073-0.623 0.288-0.521 0.543zM13.991 18.432c0.663 0 0.823-0.153 1.060-0.924 0.058-0.13 0.091-0.283 0.091-0.443 0-0.012 0-0.023-0.001-0.035v0.002c-0.055-0.236-0.234-0.422-0.462-0.486l-0.005-0.001c-0.336-0.12-0.649-0.298-0.988-0.389-0.104-0.036-0.223-0.057-0.348-0.057s-0.244 0.021-0.356 0.059l0.008-0.002c-0.495 0.247-0.612 1.233-0.259 1.666 0.321 0.338 0.759 0.564 1.249 0.611l0.007 0.001zM16.675 19.771c-0.102-0.317-0.237-0.702-0.365-1.092-0.069-0.251-0.262-0.193-0.433-0.201s-0.23 0.098-0.273 0.27c-0.091 0.338-0.259 0.659-0.339 0.997 0.002 0.178 0.041 0.347 0.109 0.499l-0.003-0.008c0.156-0.022 0.296-0.059 0.429-0.111l-0.014 0.005c0.139-0.066 0.197-0.28 0.434-0.095s0.456 0.069 0.456-0.266z"></path>
</svg>
