<!-- Generated by IcoMoon.io -->
<svg version="1.1" xmlns="http://www.w3.org/2000/svg" width="512" height="512" viewBox="0 0 512 512">
<title>bladeborn-domitans</title>
<path fill="#fff" d="M425.223 95.121c-1.675 8.264-3.861 15.442-6.604 22.334l0.303-0.862c-1.228 2.074-1.962 4.579-1.962 7.242 0 4.227 1.834 8.040 4.754 10.656l0.016 0.016c10.034 12.332 18.154 26.689 23.642 42.323l0.319 1.005c5.551 13.082 9.763 28.285 11.885 44.142l0.096 0.91c0.127 5.567 3.606 10.274 8.487 12.22l0.096 0.032c14.724 5.185 27.63 14.82 43.408 17.516 0.894 0.383 1.675 0.893 2.329 1.516-0.622 0.622-1.372 1.165-2.17 1.611l-0.048 0.032c-10.625 3.908-21.903 6.413-30.789 14.182-16.591 0-21.856 10.050-22.558 25.158-1.053 8.663-3.095 16.559-6.062 23.993l0.224-0.638c-2.393 8.663-5.296 16.113-8.854 23.212l0.335-0.734c-5.551 12.012-11.997 22.382-19.574 31.826l0.224-0.287c-10.289 11.661-8.885 22.589-4.834 35.017 1.276 4.068 2.935 7.993 3.972 12.14s-1.34 5.839-4.738 4.738c-7.243-2.042-14.501-4.147-21.616-6.604-2.010-0.941-4.387-1.483-6.86-1.483-4.068 0-7.801 1.467-10.688 3.892l0.032-0.016c-10.449 8.535-22.382 15.905-35.224 21.6l-1.005 0.399c-6.94 2.856-13.783 5.839-20.803 8.519s-13.671 4.036-20.036 7.003c-3.462 1.34-6.253 3.797-7.976 6.923l-0.048 0.080c-5.839 10.736-9.109 22.478-14.373 33.389-0.67 1.101-1.786 1.851-3.079 2.042h-0.016c-0.989 0-1.93-1.515-2.744-2.505-0.096-0.207-0.159-0.447-0.159-0.702s0.064-0.495 0.159-0.718v0.016c4.371-19.909-2.042-39.738-0.462-59.759-0.032-0.255-0.032-0.543-0.032-0.846 0-4.93 3.813-8.981 8.647-9.365h0.032c12.794-3.271 25.413-7.067 38.079-10.625 1.515-0.51 2.824-1.085 4.052-1.771l-0.144 0.064c25.476-12.666 46.901-29.863 64.002-50.73l0.255-0.335c5.839-7.418 10.752-15.123 15.889-22.877 5.44-8.582 9.795-18.521 12.475-29.114l0.159-0.718c0.175-1.515 0.543-2.887 1.085-4.18l-0.032 0.096c8.344-12.842 8.231-27.2 7.769-41.685v-7.291c0-35.846 0.654-36.070-12.029-68.294-5.918-14.549-13.193-27.12-21.903-38.51l0.303 0.399c-10.305-14.102-22.397-26.114-36.149-35.974l-0.478-0.335c-8.71-5.838-17.516-11.662-26.689-17.5-1.34-0.638-2.904-1.005-4.579-1.005-0.447 0-0.877 0.032-1.308 0.080h0.048c-3.94-0.319-7.546-1.547-10.688-3.446l0.111 0.064c-7.625-3.27-16.623-6.11-25.955-8.025l-0.925-0.159c-8.519-1.93-11.279-3.972-11.678-12.618v-59.791c0-1.117 1.053-2.169 1.707-3.255 0.925 0.367 1.707 0.877 2.393 1.515 1.818 2.409 3.51 5.153 4.962 8.040l0.144 0.303c3.382 7.753 6.828 15.586 9.635 23.642 1.882 6.046 6.923 10.576 13.161 11.645l0.111 0.016c13.911 2.824 26.243 7.211 37.697 13.050l-0.829-0.383c14.9 6.844 27.71 14.644 39.515 23.706l-0.478-0.351c3.669 3.031 8.423 4.85 13.592 4.85 2.76 0 5.408-0.526 7.817-1.468l-0.144 0.048c7.69-1.659 14.087-3.462 20.324-5.632l-1.228 0.367c4.611-1.707 4.323 0.702 4.387 7.004l-0.080 0.016z"></path>
<path fill="#fff" d="M233.406 29.986c-0.925 4.897-2.393 11.375-3.334 17.979-0.064 0.734-0.095 1.611-0.095 2.489 0 2.106 0.208 4.163 0.606 6.158l-0.032-0.208c0.798 3.43 1.483 7.721 1.946 12.108l0.048 0.51c0.303 13.082 0 12.316-12.794 15.235-28.572 6.477-55.612 16.335-76.781 38.047-4.355 4.036-9.093 7.865-14.054 11.374l-0.43 0.287c-12.443 9.795-18.936 24.041-26.864 36.995-7.067 11.678-14.725 23.355-14.963 37.776-10.29 22.111-5.855 45.705-5.201 68.469 1.579 17.899 6.493 34.331 14.134 49.135l-0.335-0.75c10.593 23.45 25.477 43.248 43.79 59.185l0.191 0.175c10.896 9.923 23.212 18.569 36.548 25.524l0.957 0.447c3.446 1.515 7.864 3.127 12.363 4.498l0.893 0.24c10.625 4.483 23.275 8.503 36.356 11.39l1.5 0.287c3.797 0.702 5.025 2.505 4.722 5.839-1.276 14.293 2.169 28.715-2.169 43.072-1.579 5.36 1.452 12.029 2.106 18.091 0.143 1.085 0.224 2.345 0.224 3.622s-0.080 2.536-0.224 3.765l0.016-0.159c-0.351 0.861-1.101 1.515-2.026 1.675h-0.016c-1.228 0-3.446-0.877-3.51-1.515-1.165-14.644-10.513-26.147-15.363-39.339-0.75-1.978-3.095-4.738-4.833-4.786-14.134-0.877-24.998-11.661-39.196-12.188-14.071-9.635-30.964-14.82-42.945-27.599-2.169-2.648-5.44-4.339-9.093-4.339-1.404 0-2.728 0.255-3.957 0.686l0.080-0.032c-8.647 2.393-17.229 4.786-25.811 7.354-4.084 1.228-5.328-0.877-5.137-4.26 0.255-2.584 0.718-4.93 1.404-7.211l-0.064 0.255c2.169-8.168 4.611-16.288 6.493-24.519-0.127-2.233-0.973-4.26-2.361-5.839l0.016 0.016c-13.783-19.239-24.87-41.573-32.065-65.582l-0.415-1.596c-2.058-6.541-3.845-14.421-4.993-22.526l-0.096-0.829c-1.276-10.513-4.722-16.336-14.836-17.979-12.395-1.93-21.855-8.998-32.065-14.948-2.696-1.516-1.883-1.803 0-3.51 9.396-7.993 21.265-10.322 32.368-14.182 8.375-2.137 14.533-9.555 14.66-18.425v-0.016c1.499-14.182 4.802-27.2 9.7-39.404l-0.351 0.989c7.418-20.26 17.979-37.713 31.235-52.692l-0.159 0.175c1.946-1.771 3.174-4.308 3.174-7.147 0-1.659-0.415-3.222-1.165-4.579l0.032 0.048c-2.744-5.567-4.626-12.028-5.296-18.856l-0.016-0.24c-2.329-15.108-2.983-15.043 12.332-10.273 7.195 2.281 14.66 7.354 21.377 6.413s13.017-7.418 19.047-12.028c13.783-10.561 30.151-16.064 45.338-23.817 5.153-1.834 11.199-3.255 17.453-4.052l0.43-0.048c5.137-0.782 9.237-4.435 10.673-9.236l0.032-0.096c4.084-11.662 11.678-21.84 13.958-34.203 0-0.765 0.989-1.451 1.452-2.217 1.165 0.877 3.159 1.579 3.318 2.569 0.766 5.025 1.228 10.736 2.106 18.266l-0.032 0.080z"></path>
<path fill="#fff" d="M161.994 363.175c0-0.272-0.41-24.28-0.819-53.471l-0.682-52.925-8.047-12.413c-8.594-13.368-9.412-15.141-5.593-14.049 1.228 0.41 9.003 2.592 17.187 4.911l14.868 4.365 9.548-9.685c7.23-7.093 9.275-9.958 8.184-11.321-1.228-1.5-8.594-24.007-8.594-26.19s3.274-0.137 13.913 8.594l11.594 9.548 11.458-3.956c8.184-2.864 11.868-4.774 13.095-7.093 1.364-2.592 12.685-37.784 16.232-50.060 0.682-2.864 1.5-1.5 4.092 7.502 1.774 5.865 5.865 18.687 9.003 28.372l5.865 17.596 9.548 3.274c5.32 1.91 10.503 3.683 11.594 3.956 2.046 0.682 16.505-9.685 22.916-16.642 1.774-1.774 3.683-3.274 4.228-3.274 0.682 0-1.091 6.957-3.956 15.278l-5.047 15.414 8.048 9.275c4.501 5.047 8.729 9.139 9.412 9.139 2.318 0 29.736-8.047 32.464-9.548 4.638-2.455 3.546 0.682-4.638 13.641l-7.502 11.868v53.471c0 48.697-0.137 53.471-2.318 54.289-4.365 1.774-25.372-2.455-43.104-8.729-23.189-8.048-33.419-8.594-44.332-2.592l-7.093 3.956-7.093-3.274c-10.503-4.911-21.142-4.501-39.966 1.91-18.415 6.139-30.964 9.139-38.466 9.139-3.274 0-5.865-0.137-6.001-0.272zM193.912 349.671c25.78-10.23 38.876-12.55 51.151-8.729l3.001 0.954v-99.712l-4.911-3.683c-3.683-2.864-6.821-3.956-12.685-4.365-6.957-0.546-9.821 0.273-25.371 6.411-9.548 3.956-20.87 7.911-25.099 8.867l-7.638 1.774-0.41 52.788-0.273 52.925 4.365-0.954c2.455-0.546 10.503-3.41 17.869-6.274zM339.183 303.157c0.409-57.835 1.228-53.061-10.503-54.835-3.274-0.546-14.322-4.228-24.689-8.321-20.188-8.048-26.872-9.139-34.919-5.32-2.592 1.228-5.865 3.683-7.365 5.593-2.455 3.137-2.592 5.593-1.91 51.97 0.272 26.736 1.091 48.697 1.637 48.697 0.546-0.137 3.683-0.954 6.957-1.91 3.956-1.091 8.866-1.364 13.368-0.818 6.82 0.818 11.731 2.318 42.012 13.095 6.002 2.183 11.868 3.819 12.959 3.546 1.774-0.272 2.046-7.229 2.455-51.697z"></path>
</svg>
