<!-- Generated by IcoMoon.io -->
<svg version="1.1" xmlns="http://www.w3.org/2000/svg" width="512" height="512" viewBox="0 0 512 512">
<title>bladeborn-khagra</title>
<path fill="#fff" d="M273.664 467.808c0-9.744 0-19.44 0-29.184s0.528-10.272 10-12.608c9.456-2.32 17.536-3.968 26.576-6.544 17.376-5.744 32.432-14.096 45.536-24.72l-0.256 0.192c22.56-17.52 42.176-37.76 53.52-64.496 9.344-22.112 18.112-44.528 16.416-69.456-0.928-13.888 0.768-27.84-2.848-41.792-8.992-37.008-28.272-68.624-54.592-92.672l-0.144-0.128c-10.368-9.136-22.112-17.056-34.816-23.392l-0.944-0.416c-14.512-7.92-31.392-13.712-49.28-16.416l-0.832-0.112c-4.672-0.144-8.4-3.952-8.4-8.624 0-0.448 0.032-0.896 0.112-1.328v0.048c0-21.36 0-42.752 0-64.208 0.256-1.504 0.736-2.864 1.376-4.112l-0.032 0.080c0.992 0.864 2.384 1.584 2.912 2.688 4.464 8.112 8.848 17.728 12.48 27.696l0.464 1.488c2.176 8.592 9.248 15.056 18 16.32l0.128 0.016c16.72 3.872 31.456 9.904 44.88 17.904l-0.72-0.384c11.168 6.496 20.592 12.784 29.616 19.584l-0.752-0.544c2.928 2.512 6.8 4.048 11.008 4.048 2.352 0 4.608-0.48 6.64-1.344l-0.112 0.048c6.368-2.16 12.912-3.792 19.456-5.36s8.88 1.056 7.12 7.296c-1.84 7.424-4 13.76-6.624 19.856l0.32-0.832c-1.12 2.288-1.776 4.944-1.776 7.776 0 5.184 2.192 9.888 5.728 13.168l0.016 0.016c9.536 11.84 17.232 25.632 22.432 40.592l0.288 0.96c5.328 15.344 12.048 30.416 12.208 47.168 0 6.176 4.608 9.152 9.76 11.328l39.904 16.816c1.28 0.528 2.576 1.168 3.808 1.76-1.232 0.928-2.592 1.776-4.048 2.496l-0.144 0.064c-12.848 5.488-25.712 10.848-38.624 16.224-6.432 2.048-10.992 7.952-10.992 14.928 0 0.112 0 0.208 0 0.32v-0.016c-1.328 11.68-4.256 22.336-8.576 32.24l0.288-0.736c-4.752 14.992-10.688 27.968-17.984 40.048l0.464-0.816c-2.752 4.256-3.856 10.080-7.472 13.184-12.448 10.512-9.232 22.768-5.856 35.44 0.224 0.384 0.416 0.816 0.576 1.296l0.016 0.048c3.504 13.824 0.352 16.688-13.904 12.72-2.592-0.512-4.864-1.264-7.040-2.24l0.192 0.080c-3.104-1.744-6.832-2.768-10.768-2.768-6.272 0-11.936 2.576-15.984 6.736-12.784 10.496-27.648 19.056-43.824 24.944l-1.056 0.336c-5.76 2.208-12.688 4.224-19.824 5.68l-0.864 0.144c-6.8 1.344-12.224 6.096-14.512 12.352l-0.048 0.144c-4.032 9.216-8.352 18.272-12.672 27.312-1.632 3.152-3.168 5.712-4.832 8.208l0.192-0.32c-0.56-2.72-1.024-6.096-1.312-9.52l-0.032-0.336c-0.064-8.864 0.064-17.568 0.064-26.32z"></path>
<path fill="#fff" d="M231.072 46.464c0 9.744 0 19.44 0 29.184 0 6.352-2.448 10.048-9.168 10.576-19.456 1.68-36.8 9.984-53.872 18.512-9.312 4.928-17.328 10.736-24.4 17.536l0.032-0.032c-16.48 15.536-33.12 31.168-43.52 51.888-8.72 16.592-15.024 35.92-17.776 56.352l-0.096 0.896c-1.12 5.456-2.080 12.256-2.704 19.168l-0.048 0.736c-0.016 0.944-0.032 2.064-0.032 3.152 0 57.168 27.68 107.888 70.368 139.504l0.464 0.336c8.8 6.736 18.704 13.184 29.12 18.832l1.2 0.592c8.72 4 18.864 7.152 29.488 8.944l0.736 0.112c20.144 3.808 20.208 3.376 20.208 24.048 0 17.52 0 35.008 0 52.528 0 1.52-1.28 3.040-1.984 4.608-0.624-1.168-1.456-2.272-2.048-3.568-4.432-10.096-9.584-20.032-13.088-30.48-2.208-6.896-7.824-12.112-14.816-13.68l-0.144-0.032c-5.088-1.52-10.224-2.624-15.264-4.256-18.928-6.176-35.36-14.976-49.856-26.128l0.384 0.288c-1.856-1.456-4.432-2.16-6.192-3.744-3.68-3.952-8.944-6.4-14.768-6.4-3.312 0-6.432 0.784-9.184 2.192l0.112-0.048c-5.44 2.32-11.904 4.32-18.592 5.712l-0.704 0.128c-2.736 0.704-5.856 0.832-4.608-4.192s2.288-11.376 4.272-16.688c1.376-3.504 2.192-7.568 2.192-11.808 0-7.808-2.72-14.992-7.264-20.656l0.048 0.064c-7.408-12.24-14.672-26.608-20.88-41.536l-0.8-2.176c-1.648-3.84-3.168-8.416-4.256-13.152l-0.112-0.56c-1.632-5.84-2.976-11.68-4.368-17.984-0.752-3.2-1.744-6.416-2.224-9.744-0.752-5.84-3.904-8.336-9.824-10.576-12.992-5.312-23.904-10.832-34.336-17.136l1.104 0.624c-5.2-2.912-4.912-5.248 0.4-7.6 7.568-3.664 17.232-7.6 27.12-11.040l2.080-0.624c11.056-3.504 13.792-12.032 15.312-21.712 4.944-30.064 16.56-56.768 33.312-79.472l-0.352 0.496c5.856-7.936 11.28-15.648 5.856-26.32-1.28-3.712-2.144-8-2.448-12.448l-0.016-0.16c-2.8-12.656-1.344-14.24 11.216-11.664 1.456 0.288 2.912 0.352 4.32 0.704 22.208 5.84 22.32 5.84 40.432-7.008 15.872-11.584 34.592-20.368 54.864-25.168l1.056-0.224c8.368-0.624 15.2-6.528 17.2-14.336l0.032-0.144c3.792-10.448 7.728-19.168 12.224-27.536l-0.544 1.12c1.040-1.6 2.224-2.976 3.552-4.192l0.016-0.016c0.784 1.408 1.376 3.072 1.68 4.8l0.016 0.096c-0.064 10.16-0.128 20.368-0.128 30.512z"></path>
<path fill="#fff" d="M224.448 300.064c-4.096 2.384-8.704 3.44-10.048 5.84-5.856 11.664-19.696 13.712-27.52 22.88 0 0.4-1.856 0.288-2.336 0-0.464-0.528-0.768-1.232-0.768-2 0-0.192 0.016-0.4 0.064-0.592v0.016c4.592-11.488 11.68-21.12 20.64-28.624l0.112-0.096c8.768-6.656 8.768-7.008 3.504-16.288-1.68-2.928-3.2-6.32-4.32-9.888l-0.112-0.368c-2.448-7.536-4.496-8.288-10.16-2.288-2.288 2.384-2.912 3.264-4.608 0-2.8-5.264-6.368-5.84-10.064-0.928s-6.192 3.152-10.752 0.528c-5.504-2.624-12.576-5.456-19.808-7.936l-1.568-0.464c-4.144-1.856-4.256-5.84 0-7.536 8.304-3.616 16.944-6.592 25.584-9.52 0.4-0.096 0.864-0.16 1.344-0.16 1.504 0 2.88 0.576 3.904 1.504 4.144 5.84 8.064 4.8 11.152-0.352s3.28-2.112 5.424 0.352c4.336 4.896 5.2 4.608 7.84-0.864 1.584-3.44 2.8-7.12 4.56-10.512 5.136-9.92 4.672-10.848-4.56-18.384-7.888-6.832-14.016-15.456-17.808-25.248l-0.144-0.432c-0.032-0.144-0.048-0.336-0.048-0.544 0-0.768 0.272-1.456 0.752-1.984 0.32-0.192 0.736-0.32 1.168-0.32s0.832 0.128 1.184 0.32h-0.016c9.056 8 22.192 11.040 27.808 23.344 2.16 4.896 7.072 4.56 11.68 2.8s7.712-3.744 11.68-5.552c3.968-1.808 8.992-4.32 3.040-10.048-1.168-1.168-0.592-4.32-0.4-6.544s1.632-4.080 1.056-5.84c-5.84-13.776 3.68-24.848 6.368-37.12 0-1.232 1.856-3.264 2.288-3.104 1.632 0.464 3.744 1.344 4.336 2.688 3.792 8.816 7.248 17.52 10.688 26.736 0.288 0.592 0.448 1.28 0.448 2.016s-0.176 1.424-0.448 2.048l0.016-0.032c-3.968 4.848-7.424 9.344 0 14.304 0.528 0.352 0 3.904-1.168 4.96-4.864 4.8-2.8 7.344 2.464 9.168 2.288 0.768 4.672 1.232 6.88 2.112 3.376 1.904 7.264 3.44 11.376 4.432l0.32 0.064c5.856 0.4 4.864-6.48 7.6-8.992 5.808-4.72 12.32-9.312 19.088-13.536l0.832-0.48c0.72-0.48 1.536-0.976 2.384-1.408l7.424-3.328c-0.928 2.336-1.744 4.736-2.8 7.008-4.288 9.968-10.832 18.256-19.024 24.528l-0.144 0.112c-2.752 1.424-4.576 4.224-4.576 7.488 0 1.888 0.624 3.632 1.68 5.040l-0.016-0.016c1.552 3.248 3.136 7.232 4.464 11.344l0.208 0.72c2.048 4.608 4.256 9.392 9.872 3.040 0.624-0.72 1.504-1.2 2.496-1.28h0.016c4.496 0 7.408 9.392 13.2 2.688s9.872-0.704 14.608 0c5.728 1.44 10.688 3.232 15.408 5.472l-0.512-0.224c1.632 0.64 4.496 2.16 4.368 2.736-0.336 2.336-1.488 4.368-3.152 5.824l-0.016 0.016c-2.8 1.44-6.288 2.944-9.888 4.256l-0.704 0.224c-3.888 1.6-7.2 3.408-10.288 5.552l0.192-0.128c-3.856 2.976-6.432 3.616-9.008-1.392s-5.856-5.84-8.704-0.752c-3.152 5.84-5.264 2.912-8.464 0.4-6.432-5.088-8.064-4.368-10.224 3.808-0.56 2.8-1.168 5.152-1.872 7.424l0.128-0.48c-0.848 1.584-1.376 3.472-1.376 5.472 0 4.512 2.56 8.432 6.32 10.368l0.064 0.032c6.816 4.64 11.952 11.296 14.592 19.12l0.080 0.256c1.12 3.28 7.424 5.136 3.344 9.28-0.832 0.864-6.432-2.576-9.584-4.496-8.608-4.72-15.84-10.928-21.552-18.336l-0.128-0.16c-2.448-3.568-5.136-4.496-9.632-1.392-4.992 2.976-10.912 5.92-17.056 8.464l-0.944 0.336c-4.032 2.048-4.976 5.84-0.352 7.184 7.344 2.384 4.32 4.896 0.592 7.072s-4.432 5.84-1.696 8.16c4.432 4.32 3.040 8.336 1.344 13.024-2.448 6.768-4.192 13.712-6.72 20.432-0.752 1.92-3.328 3.216-5.024 4.8-1.392-1.584-3.44-2.912-4.208-4.8-3.328-8.528-6.352-17.088-9.296-25.744-0.112-0.448-0.192-0.976-0.192-1.52 0-1.2 0.352-2.32 0.976-3.232l-0.016 0.016c4.336-4.736 4.032-8.176-1.52-11.68-3.504-2.16-5.424-4.848 0.864-6.304 1.872-0.512 3.456-1.536 4.672-2.912l0.016-0.016c0.624-0.64 0.528-3.264 0-3.504-6.592-2.576-12.688-5.2-19.168-8.176zM234.288 280.688c0 0.992 0 1.984 0 2.912-0.528 4.848 3.264 4.656 6.32 5.84 4.8 2.272 4.368-2.16 5.856-3.904s0.592-2.8 1.232-4.096c1.168-2.208 2.624-4.32 3.92-6.544 2.208 1.696 4.144 3.632 5.776 5.76l0.048 0.080c1.12 1.984 0.64 4.784 1.392 7.008 0.592 1.312 1.744 2.288 3.12 2.688h0.032c0.192 0.016 0.416 0.016 0.64 0.016 5.408 0 9.824-4.384 9.824-9.808 0-0.752-0.080-1.488-0.24-2.176l0.016 0.064c-1.392-5.84 0-7.344 5.376-5.312s7.248-2.912 8.768-6.656c1.52-3.744-1.856-4.496-4.496-5.36-1.536-0.256-2.896-0.704-4.176-1.312l0.096 0.048c-2.864-1.808-3.968-4.256-0.864-6.832 1.392-0.912 3.040-1.84 4.736-2.688l0.288-0.128c2.624-1.584 5.856-2.288 3.856-7.12s-1.856-9.104-8.064-6.832c-4.496 1.68-6.32 0.4-6.832-3.968-0.048-3.040-0.544-5.936-1.392-8.688l0.064 0.224c-0.864-2.224-2.976-3.776-5.456-3.776-2.288 0-4.256 1.312-5.216 3.216l-0.016 0.032c-0.928 1.584-0.704 3.856-1.584 5.488-1.408 2.736-3.344 5.184-5.024 7.824-1.584-2.736-3.28-5.36-4.736-8.176-0.4-0.816 0-2.224-0.4-2.8-1.456-1.744-3.344-4.592-4.8-4.496-2.912 0.4-5.424 1.824-7.232 3.888l-0.016 0.016c-1.28 1.584-0.864 4.56-1.12 6.944-0.368 4.32-1.984 5.84-6.592 4.368-7.776-2.912-6.768 3.856-8.528 7.936-2.384 5.84 3.376 4.368 5.264 6.304 0.816 0.864 2.976 0 4.144 0.992 1.552 1.136 2.912 2.368 4.128 3.712l0.016 0.016c-1.168 0.992-2.432 1.952-3.776 2.832l-0.144 0.080c-1.376 0.768-3.088 1.552-4.848 2.272l-0.352 0.112c-5.856 2.576-4.032 6.944-2.384 10.976s3.344 7.344 8.464 4.848c5.136-2.496 7.776-2.448 4.976 4.144z"></path>
</svg>
