<!-- Generated by IcoMoon.io -->
<svg version="1.1" xmlns="http://www.w3.org/2000/svg" width="512" height="512" viewBox="0 0 512 512">
<title>bladeborn-hedkrakka</title>
<path fill="#fff" d="M275.616 465.152c0-10.144 0-20.336 0-30.512 0-5.408 0.592-8.32 7.392-9.28 19.552-3.008 37.088-9.36 52.848-18.512l-0.72 0.384c22.576-11.952 41.344-28.256 55.776-47.952l0.32-0.448c9.552-12.928 17.776-27.728 23.984-43.536l0.448-1.312c4.368-12.464 9.52-24.816 8.624-38.672-0.688-12.064-0.528-24.224 0-36.352 0.080-1.312 0.128-2.848 0.128-4.384 0-11.024-2.192-21.52-6.144-31.104l0.192 0.544c-6.928-16.656-12-34.48-23.312-48.64s-22.208-29.12-38.896-38.16c-10.432-5.936-19.344-11.952-27.776-18.544l0.496 0.368c-7.456-5.824-16.736-6.128-24.896-9.776-6.768-2.48-15.008-4.752-23.472-6.4l-1.088-0.176c-1.392-0.4-2.56-2.384-3.264-3.904-0.128-0.656-0.208-1.408-0.208-2.16s0.080-1.504 0.224-2.224l-0.016 0.080c0-20.384 0-40.784 0-61.040 0.224-2.016 0.688-3.84 1.328-5.584l-0.048 0.16 2.512 5.824c3.216 6.064 6.464 13.408 9.216 20.992l0.4 1.28c4.432 15.312 16.912 19.616 29.92 23.296 19.056 4.896 35.68 13.232 50.048 24.352l-0.304-0.224c5.168 3.968 11.008 7.808 17.088 11.264l0.752 0.384c1.456 0.72 3.184 1.12 4.976 1.12 1.024 0 2.016-0.144 2.96-0.384l-0.080 0.016c9.216-2.224 18.24-5.072 27.392-7.28 2.624-0.64 5.824-0.864 3.92 4.304s-1.632 12.464-4.144 17.936c-6.88 14.8 0.528 25.344 9.216 35.824 1.216 1.296 2.288 2.768 3.152 4.368l0.064 0.112c10.032 21.968 21.232 43.456 23.312 68.384 0 0.176-0.016 0.4-0.016 0.624 0 8.384 6.032 15.376 14 16.848l0.112 0.016c4.64 1.808 8.464 3.632 12.176 5.68l-0.512-0.256c8.384 3.2 16.912 5.824 25.424 8.912l2.56 1.104-2.384 2.512c-8.288 7.856-19.648 9.376-29.152 14.336-1.232 0.64-2.8 0.592-4.144 1.104-10.192 3.696-17.536 12.848-18.544 23.84v0.112c-5.008 26.096-12.544 51.664-29.52 73.28-3.856 5.104-7.712 10.896-11.216 16.928l-0.448 0.832c-0.336 0.928-0.544 2.016-0.544 3.152s0.208 2.224 0.576 3.2l-0.016-0.064c2.192 10.256 4.704 18.928 7.744 27.36l-0.448-1.424c2.624 6.528-0.592 6.528-4.784 5.824-6.72-0.704-12.864-1.984-18.72-3.84l0.656 0.192c-2.688-1.248-5.824-1.984-9.12-1.984-5.168 0-9.92 1.776-13.648 4.768l0.048-0.032c-8.848 6-19.28 12.224-30.064 17.888l-1.824 0.864c-11.152 6.368-24.112 11.232-37.872 13.856l-0.8 0.112c-6.288 0.72-11.344 5.28-12.752 11.264l-0.016 0.096c-3.904 11.184-9.456 21.792-14.336 32.624-0.56 0.752-1.2 1.376-1.952 1.904l-0.032 0.016c-0.464-0.832-1.28-1.696-1.28-2.512 0-11.136 0-22.256 0-33.424z"></path>
<path fill="#fff" d="M232.656 45.104c0 8.736 0 17.472 0 26.208s-0.64 8.080-8.864 12.048c-11.248 5.472-23.776 5.824-35.28 10.832-18.816 8.144-35.008 18.544-49.232 31.088l0.192-0.176c-6.416 5.824-12.544 12.128-18.48 18.528-9.52 10.624-17.616 22.784-23.824 36.016l-0.384 0.912c-4.928 11.312-9.424 24.816-12.768 38.784l-0.336 1.712c-1.312 4.576-2.144 9.856-2.272 15.312v0.080c-0.352 10.656 0 21.312 0 32.032 0.352 15.088 3.552 29.328 9.088 42.352l-0.288-0.768c7.968 26.976 22.848 49.856 42.592 67.376l0.144 0.128c9.296 9.232 19.616 17.456 30.752 24.48l0.736 0.432c16.080 9.264 32.064 18.928 51.312 20.336 3.264 0 6.288 2.224 9.552 2.752 5.824 0.992 7.584 4.896 7.52 10.368 0 21.312 0 42.704 0 64.080-0.224 1.488-0.688 2.816-1.312 4.032l0.032-0.080c-1.456-1.104-3.92-2.048-4.208-3.44-3.424-13.904-8.528-26.128-15.2-37.312l0.336 0.624c-1.776-3.712-4.88-6.56-8.704-7.952l-0.112-0.032c-5.312-1.92-11.152-2.32-16.56-4.080-18.8-6.576-35.088-15.056-49.888-25.52l0.624 0.416c-6.24-4.192-13.824-6.288-18.72-12.688-0.832-1.056-4.208-0.928-5.824-0.352-8.624 2.56-17.136 5.536-25.776 8.272-5.408 1.68-7.456 0.352-6.352-5.008 1.328-7.712 3.36-14.544 6.064-21.024l-0.224 0.656c1.488-2.528 2.368-5.552 2.368-8.8 0-4.72-1.856-8.976-4.88-12.112-11.024-13.28-16.688-29.712-24.016-45.2-5.92-13.632-10.048-29.424-11.616-45.968l-0.048-0.624c-0.256-3.328-2.432-6.096-5.424-7.2l-0.064-0.016c-8.976-4.304-17.84-8.736-26.768-13.152-2.512-1.232-5.136-2.288-7.584-3.552s-9.040-3.84-8.848-5.168c0.704-5.824 6.64-5.184 10.848-6.928 10.144-4.080 19.936-9.088 30.032-13.28 4.576-1.456 7.824-5.648 7.856-10.608 0.832-8.384 3.856-16.544 5.312-24.912 3.488-15.088 8.624-28.368 15.344-40.672l-0.416 0.832c4.848-9.824 10.688-18.272 17.568-25.76l-0.080 0.080c3.344-3.040 5.408-7.392 5.408-12.224 0-2.192-0.416-4.256-1.2-6.176l0.048 0.112c-2.624-7.568-5.008-15.264-7.232-23.296-1.408-4.672 1.52-7.856 5.824-6.752 8.752 2.208 17.488 4.208 26 7.216 1.136 0.512 2.448 0.8 3.84 0.8 2.528 0 4.832-0.976 6.528-2.56 8.784-6.736 18.672-13.072 29.088-18.528l1.12-0.528c12.88-6.912 27.824-12.88 43.504-17.12l1.504-0.352c5.76-1.040 10.368-5.056 12.208-10.368l0.032-0.112c4.080-10.080 8.336-20.208 12.656-30.224 0.624-1.328 2.384-2.224 3.552-3.312 0.928 1.456 2.56 2.912 2.624 4.368 0 10.192 0 20.384 0 30.512z"></path>
<path fill="#fff" d="M290.128 239.376c-12-4.432-23.312-3.68-32.304 5.824-4.016 4.256-7.232 3.904-10.544-0.352-8.096-10.368-18.304-9.504-29.152-5.824l-0.864 0.816c-6.992 0.992-14.16 1.568-21.056 3.088-5.84 1.232-8.096 6.752-9.68 11.184s-2.912 9.376-9.152 8.8c-6.912-0.32-12.432-6.016-12.432-12.976 0-0.064 0-0.128 0-0.192v0.016c0-0.928 0-1.92 0-2.848 0-12.592 0-12.816-12.592-15.728-4.256-0.992-7.056-2.736-7.696-7.168-1.76-11.936 12.832-29.12 24.944-28.192 4.848 0.88 9.024 3.232 12.176 6.576l0.016 0.016c3.152 3.088 0.992 6.928-1.92 10.192-1.168 1.328-1.856 5.168-1.056 5.824 1.984 1.632 5.824 3.552 7.36 2.736 2.864-1.136 6.176-1.808 9.648-1.808s6.768 0.656 9.84 1.856l-0.192-0.064c10.256 2.32 21.104 2.512 28.56-8.208 2.512-3.552 4.432-5.824 1.392-9.904-0.448-0.864-0.72-1.856-0.72-2.912 0-0.448 0.048-0.88 0.144-1.312v0.048c2.848-19.744-9.44-33.024-19.76-47.248-0.768-1.28-1.424-2.768-1.936-4.32l-0.048-0.16c2.016 0.224 3.792 0.496 5.52 0.88l-0.32-0.064c13.024 3.12 23.952 10.656 31.328 20.928l0.112 0.16c2.32 3.44 3.744 3.728 6.368 1.168s7.056-6.64 10.256-10.256c5.248-6.72 13.296-11.088 22.352-11.296h4.704c-0.768 1.68-1.056 3.84-2.288 4.944-5.344 5.264-9.744 11.456-12.96 18.304l-0.176 0.384c-2.976 5.2-4.736 11.44-4.736 18.064 0 0.384 0 0.768 0.016 1.152v-0.064c0.016 0.256 0.016 0.576 0.016 0.896 0 3.696-0.688 7.232-1.936 10.496l0.064-0.208c-0.48 0.992-0.768 2.16-0.768 3.392 0 2.272 0.944 4.288 2.448 5.76 2.864 3.152 4.912 8.736 8.048 9.376 3.248 0.768 6.976 1.232 10.784 1.232s7.536-0.448 11.104-1.28l-0.32 0.064c2.768-1.2 6-1.92 9.424-1.92 3.072 0 6 0.576 8.704 1.632l-0.176-0.064c1.28 0.64 3.504 0 5.072-0.832s5.824-1.52 2.512-5.424c-1.376-1.68-2.624-3.6-3.648-5.632l-0.080-0.192c-0.576-0.816-0.912-1.84-0.912-2.944 0-0.224 0.016-0.416 0.032-0.64v0.032c3.728-4.832 9.152-8.208 15.36-9.232l0.144-0.016c8.16 0.592 22.976 13.744 24.432 21.728 1.632 8.912-0.928 12.592-9.744 13.808-10.32 1.456-14.336 6.864-13.232 17.472 0.224 0.832 0.32 1.776 0.32 2.768 0 6.432-5.232 11.664-11.664 11.664-0.624 0-1.248-0.048-1.856-0.144l0.064 0.016c-3.504-0.288-4.608-1.856-5.424-5.248-2.688-10.896-6.992-14.208-17.488-15.264-5.456-0.8-10.128-1.776-14.704-2.992l0.88 0.192z"></path>
<path fill="#fff" d="M290.96 240.192c4.128 11.52 8.288 26.144 11.584 41.088l0.48 2.592c1.6 5.488 2.512 11.792 2.512 18.32s-0.912 12.832-2.64 18.8l0.128-0.48c-2.448 8.144-3.968 16.544-6.176 24.752-0.992 3.968-2.496 7.472-4.464 10.656l0.096-0.16c-0.992 1.632-3.84 2.096-5.824 3.088-0.928-1.392-1.632-3.040-2.016-4.8l-0.016-0.080c0-4.832 0-9.744 0-14.576-0.928-10.432-2.464-20.8-3.504-31.216-1.344-13.168-9.744-22.496-17.488-32.208-11.664-14.512-10.32-18.464 2.912-30.944 7.632-7.168 15.616-4.832 23.744-5.824z"></path>
<path fill="#fff" d="M218.128 239.376c7.456 0.528 14.624-0.768 21.76 5.008 11.376 9.2 14.064 20.048 4.768 31.456-2.688 3.376-5.824 6.288-8.8 9.552-8.224 9.44-9.792 21.424-11.664 32.976s-2.048 21.84-3.152 32.736c-0.576 2.72-1.328 5.104-2.32 7.36l0.096-0.24c-2.096-1.92-5.008-3.504-5.824-5.824-2.048-4.72-2.976-9.968-4.544-14.912-3.28-10.048-5.2-21.6-5.2-33.616 0-8.048 0.848-15.888 2.464-23.424l-0.112 0.72c0.512-9.568 2.608-18.512 6.032-26.752l-0.192 0.544c-3.152-6.992 6.592-8.736 5.824-14.672z"></path>
<path fill="#fff" d="M290.432 219.792c-0.56 0.096-1.2 0.144-1.856 0.144-6.176 0-11.312-4.48-12.304-10.368l-0.016-0.080c-1.52-4.832 1.52-14.336 6.992-15.84 15.152-4.144 25.664-14.208 35.92-24.992 0.592-0.528 1.984-0.992 2.448-0.688 0.688 0.576 1.12 1.44 1.12 2.4 0 0.032 0 0.080 0 0.112-0.656 5.648-1.808 10.768-3.424 15.68l0.16-0.544c-3.616 9.024-7.52 16.688-12.032 23.952l0.368-0.656c-3.84 6.112-8.624 12.752-17.376 10.896z"></path>
<path fill="#fff" d="M213.984 219.616c-2.048-0.112-3.92-0.816-5.456-1.936l0.032 0.016c-12.8-11.312-21.392-27.152-23.296-44.944l-0.032-0.32c0-1.52 1.232-3.088 1.856-4.592 1.296 0.72 2.416 1.568 3.376 2.56 6.944 9.792 16.528 17.328 27.696 21.632l0.416 0.144c2.8 0.912 5.184 2.48 7.040 4.528l0.016 0.016c2.688 3.2 8.992 4.944 5.248 11.664s-5.888 12.064-16.912 11.232z"></path>
</svg>
