<!-- Generated by IcoMoon.io -->
<svg version="1.1" xmlns="http://www.w3.org/2000/svg" width="32" height="32" viewBox="0 0 32 32">
<title>bladeborn-wurmspat</title>
<path fill="#fff" d="M14.657 29.163c0 0.703 0 1.403 0 2.103 0 0.080-0.136 0.158-0.209 0.234-0.058-0.055-0.146-0.103-0.177-0.172-0.305-0.693-0.642-1.37-0.88-2.085-0.082-0.29-0.305-0.514-0.588-0.596l-0.005-0.002c-0.679-0.249-1.353-0.502-2.039-0.732-1.125-0.44-2.096-1.021-2.95-1.735l0.017 0.014c-0.134-0.138-0.32-0.223-0.528-0.223-0.104 0-0.203 0.021-0.292 0.060l0.005-0.002c-0.402 0.154-0.894 0.297-1.398 0.406l-0.069 0.012c-0.396 0.107-0.477 0.044-0.437-0.366 0.038-0.202 0.086-0.378 0.144-0.546l-0.008 0.026c0.113-0.465 0.231-0.934 0.33-1.403 0.007-0.029 0.011-0.062 0.011-0.096 0-0.084-0.024-0.163-0.067-0.228l0.001 0.002c-0.906-1.014-1.361-2.279-1.871-3.498-0.25-0.683-0.442-1.481-0.541-2.307l-0.005-0.051c-0.003-0.277-0.159-0.518-0.389-0.639l-0.004-0.002c-0.243-0.121-0.462-0.286-0.708-0.395-0.572-0.263-1.155-0.498-1.731-0.759-0.094-0.060-0.176-0.131-0.245-0.211l-0.001-0.001c0.077-0.080 0.139-0.194 0.234-0.238 0.686-0.308 1.371-0.627 2.075-0.894 0.408-0.114 0.708-0.472 0.733-0.902v-0.003c0.143-1.499 0.733-2.854 1.383-4.184 0.327-0.627 0.693-1.168 1.111-1.662l-0.011 0.014c0.145-0.153 0.235-0.36 0.235-0.589 0-0.146-0.037-0.284-0.102-0.405l0.002 0.005c-0.154-0.388-0.29-0.852-0.384-1.329l-0.009-0.051c-0.066-0.296 0.117-0.45 0.44-0.366 0.525 0.125 1.056 0.245 1.566 0.421 0.075 0.034 0.162 0.054 0.254 0.054 0.157 0 0.301-0.058 0.41-0.154l-0.001 0.001c0.436-0.322 0.909-0.59 1.35-0.909 1.023-0.732 2.223-1.066 3.392-1.466 0.383-0.103 0.682-0.389 0.801-0.757l0.002-0.008c0.213-0.59 0.477-1.162 0.733-1.736 0.029-0.066 0.128-0.154 0.177-0.146 0.088 0.026 0.158 0.089 0.194 0.171l0.001 0.002c0.045 0.13 0.070 0.279 0.070 0.434 0 0.003 0 0.007 0 0.009v-0.001c0 1.066 0 2.132 0 3.198 0 0.425-0.146 0.619-0.597 0.732-1.386 0.393-2.783 0.759-3.997 1.612-1.122 0.779-2.088 1.675-2.914 2.689l-0.020 0.025c-0.868 1.11-1.499 2.448-1.794 3.907l-0.011 0.060c-0.18 0.729-0.284 1.566-0.284 2.427 0 1.15 0.184 2.256 0.525 3.292l-0.021-0.075c0.51 1.466 1.134 2.894 2.314 4.030 0.791 0.843 1.678 1.581 2.647 2.202l0.055 0.033c0.868 0.549 1.892 0.937 2.991 1.095l0.042 0.005c0.205 0.022 0.403 0.128 0.613 0.146 0.366 0.037 0.455 0.227 0.447 0.549 0 0.641 0 1.283 0 1.92z"></path>
<path fill="#fff" d="M17.345 29.195c0-0.608 0.033-1.22 0-1.832-0.007-0.034-0.011-0.073-0.011-0.114 0-0.335 0.266-0.609 0.6-0.619h0.001c0.059 0 0.113-0.059 0.173-0.059 0.84 0 1.54-0.444 2.303-0.711 0.797-0.315 1.482-0.742 2.075-1.27l-0.007 0.006c0.994-0.762 1.842-1.649 2.541-2.646l0.025-0.039c0.784-1.234 1.467-2.564 1.617-4.003 0.33-2.891 0-5.715-1.801-8.145-0.859-1.166-1.89-2.148-3.065-2.928l-0.045-0.028c-1.247-0.81-2.607-1.198-3.989-1.589-0.243-0.070-0.389-0.139-0.389-0.399 0-1.374 0-2.743 0-4.114 0-0.070 0.077-0.136 0.117-0.202 0.041 0.038 0.076 0.082 0.105 0.129l0.002 0.003c0.315 0.681 0.642 1.359 0.924 2.052 0.111 0.316 0.365 0.555 0.683 0.643l0.007 0.002c0.87 0.251 1.6 0.524 2.304 0.845l-0.104-0.043c0.862 0.417 1.597 0.858 2.289 1.357l-0.045-0.031c0.32 0.279 0.742 0.449 1.203 0.449 0.195 0 0.383-0.030 0.56-0.087l-0.013 0.004c0.391-0.103 0.866-0.189 1.352-0.241l0.046-0.004c-0.077 0.461-0.143 0.927-0.227 1.384-0.040 0.227-0.105 0.43-0.193 0.62l0.007-0.016c-0.041 0.076-0.064 0.167-0.064 0.262 0 0.123 0.039 0.236 0.106 0.329l-0.001-0.002c0.275 0.432 0.587 0.843 0.848 1.282 0.198 0.334 0.344 0.7 0.51 1.051 0.491 0.976 0.85 2.108 1.013 3.303l0.006 0.056c0 0.005 0 0.011 0 0.016 0 0.498 0.353 0.914 0.822 1.011l0.007 0.001c0.552 0.205 1.014 0.421 1.457 0.668l-0.053-0.027c0.366 0.146 0.733 0.227 1.1 0.341-0.308 0.207-0.676 0.425-1.056 0.626l-0.070 0.034c-0.407 0.191-0.85 0.311-1.272 0.469-0.528 0.177-0.912 0.642-0.968 1.203v0.006c-0.315 2.228-1.214 4.203-2.536 5.82l0.016-0.021c-0.366 0.454 0 0.967 0.044 1.466 0 0.077 0.154 0.139 0.161 0.212 0.027 0.113 0.043 0.244 0.043 0.379 0 0.166-0.023 0.325-0.068 0.477l0.003-0.012c-0.070 0.125-0.492 0.077-0.733 0.059-0.143 0-0.268-0.14-0.414-0.183-0.531-0.173-0.971-0.296-1.54 0.154-0.962 0.712-2.068 1.315-3.252 1.754l-0.092 0.030c-0.341 0.125-0.751 0.235-1.173 0.308l-0.045 0.007c-0.305 0.065-0.548 0.282-0.647 0.566l-0.002 0.006c-0.297 0.689-0.609 1.37-0.92 2.052-0.047 0.078-0.096 0.147-0.151 0.21l0.001-0.002c-0.043-0.070-0.077-0.15-0.095-0.237l-0.001-0.005c0-0.67 0-1.345 0-2.015z"></path>
<path fill="#fff" d="M16.065 12.366c0-0.85 0-1.7 0-2.564 0-0.469 0.146-0.549 0.55-0.293 0.557 0.366 1.1 0.732 1.62 1.135 0.169 0.125 0.323 0.282 0.198 0.543-0.525 1.098-0.586 2.315-0.994 3.444-0.134 0.454-0.547 0.781-1.037 0.781-0.003 0-0.006 0-0.009 0-0.137-0.028-0.247-0.118-0.303-0.239l-0.001-0.003c-0.026-0.113-0.041-0.243-0.041-0.377 0-0.058 0.003-0.115 0.009-0.172l-0.001 0.007c0-0.758 0-1.517 0-2.275z"></path>
<path fill="#fff" d="M9.293 19.744c0-0.216 0-0.428 0-0.641 0-0.007-0.001-0.017-0.001-0.027 0-0.346 0.23-0.638 0.545-0.733l0.006-0.001c1.134-0.411 2.274-0.788 3.414-1.172 0.136-0.043 0.323-0.109 0.418-0.055 0.266 0.173 0.496 0.357 0.709 0.562l-0.002-0.001c0.022 0.022-0.025 0.168-0.077 0.22-0.167 0.168-0.345 0.325-0.534 0.468l-0.012 0.009c-0.756 0.55-1.516 1.092-2.281 1.627-0.57 0.396-1.145 0.78-1.727 1.154-0.052 0.033-0.239-0.029-0.249-0.077-0.107-0.436-0.187-0.876-0.279-1.316z"></path>
<path fill="#fff" d="M20.062 22.506c-0.271-0.113-0.504-0.253-0.713-0.422l0.006 0.004c-0.623-0.663-1.21-1.355-1.807-2.040-0.179-0.205-0.366-0.414-0.513-0.634-0.084-0.113-0.206-0.267-0.187-0.385 0.081-0.334 0.173-0.617 0.283-0.889l-0.016 0.043c0.283 0.091 0.525 0.197 0.756 0.323l-0.022-0.012c1.298 0.831 2.567 1.682 3.869 2.525 0.141 0.071 0.263 0.159 0.366 0.264 0.052 0.070 0.044 0.286 0 0.308-0.649 0.311-1.323 0.604-2.021 0.915z"></path>
<path fill="#fff" d="M12.16 22.605c-0.712-0.216-1.383-0.395-2.032-0.63-0.33-0.117-0.348-0.422-0.066-0.637 0.366-0.29 0.78-0.557 1.177-0.835 0.957-0.674 1.914-1.352 2.879-2.019 0.149-0.084 0.325-0.165 0.507-0.231l0.024-0.007c0.121 0.297 0.26 0.586 0.367 0.89 0.022 0.084-0.080 0.227-0.154 0.319-0.787 0.977-1.579 1.948-2.376 2.912-0.095 0.089-0.203 0.168-0.318 0.233l-0.009 0.004z"></path>
<path fill="#fff" d="M22.596 19.814l-0.165 1.242c-0.491 0.041-0.704-0.411-1.049-0.619-1.030-0.627-2.006-1.334-3.003-2.011-0.125-0.084-0.294-0.132-0.366-0.245-0.136-0.191-0.553-0.271-0.315-0.633 0.29-0.444 0.591-0.564 0.979-0.428 1.163 0.399 2.321 0.817 3.495 1.183 0.309 0.095 0.367 0.235 0.367 0.502v1.003z"></path>
<path fill="#fff" d="M15.772 12.414c0 0.825 0 1.649 0 2.47 0 0.582 0 0.538-0.562 0.428-0.342-0.048-0.616-0.296-0.699-0.621l-0.001-0.006c-0.342-1.155-0.666-2.313-0.972-3.473-0.002-0.019-0.004-0.041-0.004-0.065 0-0.162 0.069-0.309 0.179-0.411 0.572-0.436 1.162-0.857 1.771-1.242 0.271-0.172 0.282 0.099 0.286 0.271 0 0.882 0 1.766 0 2.648z"></path>
<path fill="#fff" d="M15.768 16.48c0 0.454-0.521 1.007-0.895 0.985-0.474-0.076-0.833-0.482-0.833-0.971 0-0.052 0.004-0.103 0.012-0.153l-0.001 0.006c0.076-0.422 0.432-0.741 0.867-0.759h0.002c0.447 0.079 0.79 0.438 0.846 0.886l0.001 0.005z"></path>
<path fill="#fff" d="M17.785 16.549c0.001 0.016 0.002 0.036 0.002 0.055 0 0.449-0.357 0.816-0.804 0.831h-0.001c-0.486-0.083-0.859-0.475-0.913-0.962v-0.005c0.025-0.366 0.557-0.905 0.887-0.89 0.466 0.018 0.835 0.4 0.835 0.868 0 0.037-0.002 0.073-0.007 0.108z"></path>
<path fill="#fff" d="M15.984 18.93c-0.616 0-0.847-0.234-0.836-0.81-0.001-0.016-0.002-0.036-0.002-0.055 0-0.453 0.368-0.82 0.822-0.82 0.005 0 0.009 0 0.014 0h-0.001c0.496 0.034 0.884 0.443 0.884 0.943 0 0.006 0 0.012 0 0.018v-0.001c-0.037 0.411-0.379 0.73-0.796 0.73-0.029 0-0.058-0.002-0.087-0.005h0.004z"></path>
</svg>
