<!-- Generated by IcoMoon.io -->
<svg version="1.1" xmlns="http://www.w3.org/2000/svg" width="512" height="512" viewBox="0 0 512 512">
<title>bladeborn-eyesofthenine</title>
<path fill="#fff" d="M275.488 467.36c0-9.744 0-19.424 0-29.168 0-8.112 1.696-9.792 9.52-12.080 4.88-1.776 10.912-3.504 17.088-4.8l0.896-0.16c18.8-2.8 34.4-12.656 49.008-23.344 22.192-16.464 42.112-35.424 54.48-60.976 6.72-13.888 13.84-27.488 15.6-43.184 0.528-4.72 1.92-9.392 2.048-14.112 0-13.136-0.768-26.32 0-39.328 0.144-1.888 0.224-4.096 0.224-6.304 0-13.536-3.056-26.352-8.512-37.824l0.224 0.528c-6.256-13.664-11.152-28.48-21.952-39.92-9.168-9.68-16.416-21.36-26.464-29.872-25.168-21.296-53.088-37.696-86.96-40.848-4.496-0.4-5.424-3.2-5.424-7.008 0-11.152 0-22.352 0-33.488s0-22.352 0-33.504c0.256-1.488 0.768-2.816 1.44-4.032l-0.032 0.064c0.912 0.88 1.728 1.856 2.416 2.912l0.048 0.064c5.088 11.376 10.096 22.688 15.008 34.128 1.824 4.384 5.52 7.68 10.048 8.896l0.112 0.032c18.768 5.968 33.936 11.792 48.656 18.384l-2.928-1.168c10.976 5.232 20.384 11.632 28.704 19.216l-0.080-0.080c4.176 3.968 9.824 6.4 16.064 6.4 3.36 0 6.528-0.704 9.424-1.968l-0.16 0.064c5.552-1.584 10.928-3.68 16.48-5.072 6.944-1.808 8.304 0 6.32 7.008s-3.568 13.952-5.824 20.656c-0.88 1.984-1.408 4.304-1.408 6.752 0 4.656 1.872 8.864 4.912 11.92 10.192 12.944 18.368 28.032 23.712 44.432l0.288 1.024c4.368 11.456 8.4 25.344 11.36 39.632l0.32 1.84c1.12 7.808 6.576 14.112 13.808 16.48l0.144 0.048c11.68 4.56 23.36 9.568 34.576 14.48 0.976 0.672 1.808 1.456 2.496 2.368l0.016 0.032c-0.64 0.656-1.376 1.216-2.176 1.664l-0.048 0.032c-11.68 4.896-23.712 9.984-35.808 14.416-7.008 1.52-12.272 7.28-13.088 14.4v0.080c-5.392 32.736-17.552 61.888-34.992 87.12l0.464-0.72c-6.48 8.992-10.912 17.92-5.824 29.168 0.528 1.664 0.96 3.648 1.216 5.664l0.016 0.176c5.2 20.608 5.2 20.656-15.536 14.944-4.144-1.168-8-3.44-12.208-4.32-1.264-0.368-2.688-0.592-4.176-0.592-3.584 0-6.88 1.264-9.456 3.344l0.032-0.016c-17.568 15.328-39.104 26.544-62.864 31.904l-0.96 0.192c-15.536 2.848-21.904 12.896-26.976 25.504-1.92 4.784-3.856 9.632-5.84 14.288-1.632 3.44-3.84 6.72-5.824 10.096-0.4-4.32-1.12-8.576-1.232-12.832-0.528-8.112-0.352-15.872-0.352-23.632z"></path>
<path fill="#fff" d="M232.848 46.224c0 9.744 0 19.424 0 29.168 0 6.192-2.288 10.032-9.040 10.736-6.688 0.8-12.48 1.824-18.144 3.136l1.152-0.224c-3.12 0.64-5.872 1.472-8.48 2.56l0.288-0.112c-11.264 4.256-20.624 8.56-29.616 13.456l1.232-0.624c-10.368 6.48-19.344 13.232-27.696 20.704l0.192-0.176c-17.408 15.056-32.128 32.624-43.744 52.224l-0.528 0.976c-2.928 5.632-5.584 12.224-7.616 19.088l-0.208 0.8c-6.384 17.888-10.080 38.496-10.080 60 0 6.464 0.336 12.848 0.992 19.152l-0.064-0.784c2.208 11.776 5.024 22.032 8.608 31.92l-0.448-1.392c6.032 24 17.472 44.784 32.992 61.776l-0.112-0.112c14.336 15.536 30.784 28.848 48.928 39.536l0.992 0.544c15.296 8.928 32.24 11.664 48.592 17.040 11.68 3.792 11.68 3.904 11.68 16.096 0 19.456 0 38.896 0 58.336-0.256 1.504-0.72 2.864-1.376 4.112l0.032-0.080c-0.992-0.928-2.384-1.696-2.848-2.848-2.976-6.944-5.84-13.888-8.544-21.056-4.32-12.496-10.752-21.936-24.992-25.136-25.6-6.384-47.888-17.984-66.672-33.648l0.256 0.208c-11.216-8.992-21.68-3.504-32.576-1.984-3.28 0.784-6.048 1.664-8.72 2.656l0.48-0.144c-7.008 1.984-8.528 0.592-6.544-6.768 1.632-5.824 3.744-11.68 5.84-17.504 0.944-2.384 1.488-5.152 1.488-8.032 0-5.072-1.68-9.728-4.512-13.504l0.048 0.064c-7.456-12.224-15.504-27.248-22.784-42.688l-1.312-3.12c-6.096-12.928-10.256-27.968-11.648-43.792l-0.032-0.496c-0.32-4.896-3.632-8.928-8.096-10.368l-0.080-0.016c-10.992-5.024-22.016-9.744-32.88-14.944-2.736-1.744-5.104-3.664-7.232-5.824 2.384-2.144 5.040-4.080 7.904-5.728l0.224-0.112c10.096-4.432 20.32-8.768 30.72-12.544 6.832-2.512 8.304-6.768 9.52-13.888 5.2-30.56 14.72-59.984 35.056-83.904 10.752-12.592 6.592-24.864 4.208-37.808-0.928-4.96-2.048-9.856-3.104-14.752 5.424 0.096 10.576 0.96 15.456 2.496l-0.384-0.112c15.536 7.12 27.92 3.040 40.88-6.88 16.624-12.304 36.464-21.344 57.968-25.744l0.96-0.176c6.768-0.96 12.288-5.472 14.672-11.536l0.048-0.128c2.688-6.72 5.376-13.36 8.336-19.952 1.76-3.84 3.968-7.536 5.84-11.264 0.576-0.688 1.232-1.28 1.952-1.776l0.032-0.016c0.624 1.056 1.808 2.080 1.856 3.152 0 7.776 0 15.52 0 23.344v8.752z"></path>
<path fill="#fff" d="M205.568 254.336c-2.912-11.088 2.288-21.76 9.936-31.568 6.4-8.352 15.376-14.448 25.728-17.136l0.32-0.080c4.336-1.296 9.344-2.048 14.512-2.048 17.824 0 33.568 8.864 43.072 22.416l0.112 0.176c6.432 8.032 10.32 18.352 10.32 29.552 0 8.144-2.048 15.808-5.648 22.512l0.128-0.24c-7.568 17.36-24.448 29.344-44.176 29.696h-0.048c-22.016 1.232-37.504-8.864-49.584-26.256-5.488-7.872-4.896-16.4-4.672-27.008z"></path>
<path fill="#fff" d="M176.016 218.928c0-35.008 12.144-55.824 31.712-73.12 2.496-2.032 5.376-3.744 8.48-4.992l0.208-0.080c1.888-0.64 4.080-1.088 6.352-1.232h0.080c-0.4 2.16-0.704 4.368-1.28 6.544-1.12 4.144-2.288 8.288-3.568 12.432-1.136 2.736-1.776 5.904-1.776 9.232 0 8.144 3.936 15.376 10 19.904l0.064 0.048c1.52 1.168 3.44 1.744 4.96 2.848 5.376 4.096 4.96 5.552-1.696 9.328-20.912 11.968-34.448 28.768-34.688 54.080-0.336 1.904-0.896 3.616-1.696 5.184l0.048-0.112-3.744-4.032c-8.368-9.168-13.488-21.44-13.488-34.88 0-0.4 0-0.832 0.016-1.232v0.064z"></path>
<path fill="#fff" d="M331.488 299.264c4.032 18.384-5.424 33.072-13.904 47.264-7.344 12.256-19.504 20.704-30.592 29.696-0.704 0.592-2.512 0-3.744-0.352 0 0-0.352-1.632 0-2.384 2.448-6.256 5.376-12.368 7.472-18.72 5.088-15.216 1.632-24.144-11.68-32.736-5.84-3.616-5.84-3.968 0-7.168 15.936-8.208 28.368-21.328 35.536-37.328l0.192-0.496c1.072-4.112 1.696-8.832 1.696-13.696 0-0.192 0-0.368 0-0.56v0.032c0.624-1.632 1.424-3.040 2.416-4.288l-0.032 0.032c1.168 0.832 2.752 1.392 3.344 2.512 6.832 11.84 12.848 23.984 9.296 38.224z"></path>
</svg>
