<!-- Generated by IcoMoon.io -->
<svg version="1.1" xmlns="http://www.w3.org/2000/svg" width="512" height="512" viewBox="0 0 512 512">
<title>bladeborn-grymwatch</title>
<path fill="#fff" d="M232.72 468.24c0 10.656 0 21.312 0 31.968-0.288 1.424-0.768 2.688-1.424 3.84l0.032-0.064c-1.168-0.816-2.976-1.392-3.44-2.512-2.624-5.824-4.896-12.224-7.28-18.4 0-0.4 0-0.992 0-1.456-5.008-13.68-12.016-24.048-28.208-27.936-15.632-3.872-29.376-10.080-41.632-18.288l0.464 0.288c-10.736-5.92-19.952-12.064-28.592-18.864l0.448 0.336c-1.888-1.712-4.4-2.752-7.136-2.752-1.312 0-2.56 0.224-3.728 0.672l0.080-0.032c-8.688 2.144-17.488 4.608-25.776 7.328-4.016 1.328-5.824 0-5.376-3.68 0.848-6.064 2.384-11.552 4.528-16.688l-0.176 0.448c2-3.616 3.184-7.92 3.184-12.512 0-6.768-2.56-12.912-6.768-17.568l0.016 0.016c-13.472-17.168-20.992-37.856-27.632-58.224-2.688-8.576-4.512-18.512-5.12-28.784l-0.016-0.336c0-0.112 0-0.224 0-0.336 0-3.712-2.416-6.864-5.776-7.968l-0.064-0.016c-11.68-4.144-21.456-8.528-30.832-13.52l1.232 0.592c-4.432-2.624-8.912-5.008-13.408-7.52 4.016-2.688 8.736-5.44 13.632-7.904l0.768-0.352c10.608-3.616 21.968-6.224 30.784-13.856 1.696-1.264 2.912-3.088 3.424-5.168l0.016-0.064c2.912-36.624 18.352-68.080 40.112-96.848 2.192-2.288 3.52-5.408 3.52-8.848 0-1.52-0.272-2.992-0.768-4.352l0.032 0.096c-2.848-8.448-5.824-16.944-7.696-25.632-1.456-5.824 0.752-7.456 6.64-5.824 8.096 2.448 16.448 4.24 24.368 7.168 1.424 0.592 3.104 0.944 4.848 0.944 3.024 0 5.792-1.040 8-2.768l-0.032 0.016c6.272-3.6 11.632-7.264 16.688-11.312l-0.256 0.208c11.664-11.168 28.208-12.928 41.168-21.712 3.984-2.048 8.704-3.232 13.696-3.232 0.496 0 0.976 0.016 1.472 0.032h-0.064c6.4-0.336 11.776-4.512 13.84-10.256l0.032-0.112c3.456-7.216 5.84-14.784 9.088-22.24 0.992-3.152 2.032-5.776 3.264-8.288l-0.144 0.368c1.36-1.952 2.848-3.664 4.48-5.216l0.016-0.016c0.832 1.824 1.424 3.952 1.744 6.176l0.016 0.128c0 19.328 0 38.736 0 58.224 0 8.512-0.704 9.088-9.68 10.944-20.784 4.4-39.2 11.168-56.24 20.176l1.168-0.56c-8.848 5.168-16.48 10.944-23.36 17.52l0.048-0.048c-10.016 9.040-19.264 18.224-28.048 27.872l-0.288 0.32c-2.848 3.424-5.584 7.232-8.032 11.216l-0.24 0.416c-3.952 5.52-7.84 11.824-11.248 18.416l-0.4 0.864c-2.48 5.968-4.8 13.168-6.512 20.576l-0.192 0.96c-3.488 12.688-9.616 24.752-8.224 38.544 0.192 2.384 0.288 5.184 0.288 7.984s-0.112 5.6-0.32 8.336l0.016-0.368c-0.032 1.184-0.064 2.56-0.064 3.952 0 21.6 4.848 42.080 13.536 60.384l-0.368-0.848c9.68 23.344 23.344 43.232 40.352 59.712l0.048 0.048c13.328 12.768 28.704 23.536 45.584 31.744l1.056 0.464c10.448 5.248 22.56 9.312 35.296 11.536l0.8 0.112c0.928 0 1.92 0 2.848 0 11.648 2.32 12.064 3.152 12.112 14.848 0 9.2 0 18.4 0 27.6z"></path>
<path fill="#fff" d="M275.776 466.96c0-9.68 0-19.328 0-29.12 0-7.68 2.16-11.648 8.912-11.648 10.912 0 19.872-5.824 29.904-8.448 18.512-5.968 34.448-15.376 47.792-27.568l-0.096 0.096c13.776-10.576 25.392-23.136 34.624-37.392l0.352-0.576c5.824-9.376 9.552-19.616 15.216-29.12s5.84-21.664 10.384-31.92c0.8-2.32 1.264-5.008 1.264-7.792 0-0.736-0.032-1.44-0.096-2.144v0.096c0-11.632-0.592-23.296 0-34.944 1.344-20.544-4.832-39.136-12.176-58.224-11.584-26.72-28.624-49.168-49.824-66.736l-0.288-0.224c-10.032-9.552-21.888-17.312-34.992-22.672l-0.752-0.288c-14.464-5.072-28.736-12.464-44.72-12.624-4.368 0-5.824-1.856-5.824-5.824 0-13.088 0-26.144 0-39.2 0-10.176 0-20.384 0-30.512 0-0.816 0.864-1.632 1.328-2.448 0.592 0.592 1.696 1.104 1.76 1.76 2.032 13.392 10.784 24.16 14.688 36.816 0.864 3.664 3.792 6.496 7.456 7.2l0.064 0.016c19.136 5.472 35.696 12.32 51.296 20.752l-1.344-0.672c10.512 5.232 19.552 11.040 27.872 17.712l-0.304-0.24c8.224 7.632 16.192 6.768 25.184 4.544 5.488-1.392 10.784-3.376 16.256-4.944s6.304-0.864 5.072 5.824c-0.48 7.088-1.856 13.68-4 19.936l0.16-0.544c-4.896 9.952-1.328 17.056 4.32 24.928 11.472 15.536 20.416 33.744 25.792 53.408l0.256 1.136c1.92 6.384 3.632 14.256 4.848 22.304l0.128 0.992c0.304 10.256 7.088 18.88 16.384 21.904l0.176 0.048c12.016 4.192 23.856 9.024 35.664 13.632 0.912 0.464 1.696 0.944 2.432 1.488l-0.048-0.032c-0.64 0.592-1.168 1.456-1.984 1.808-11.648 4.944-23.312 9.776-34.976 14.784-7.568 3.248-13.632 6.592-14.992 16.944-2.656 13.904-6.288 26.128-10.976 37.808l0.48-1.344c-4.8 15.84-11.936 29.632-21.12 41.808l0.256-0.336c-4.208 5.296-7.104 12-11.664 17.472-0.944 1.392-1.52 3.136-1.52 4.992 0 1.408 0.32 2.736 0.896 3.92l-0.032-0.048c2.496 7.44 4.528 16.256 5.744 25.344l0.080 0.752c0.864 5.824-0.464 6.528-6.24 4.944-6.768-1.808-13.632-3.552-20.288-5.824-1.808-0.688-3.92-1.088-6.112-1.088-4.72 0-9.008 1.824-12.192 4.816l0.016-0.016c-13.36 10.72-28.784 19.616-45.456 26l-1.184 0.384c-9.856 3.312-19.776 6.4-29.152 10.144-3.84 1.488-6.64 4.832-7.344 8.896l-0.016 0.064c-3.888 10.944-8.192 20.24-13.232 29.056l0.464-0.88c-1.168 2.512-1.984 5.136-3.024 7.68-0.736-2.688-1.312-5.872-1.616-9.152l-0.016-0.224c-0.064-9.024 0.064-18.048 0.064-27.44z"></path>
<path fill="#fff" d="M290.416 335.568c0-3.376 0-6.816 0-10.176 0.4-6.224-0.4-7.28-5.824-6.624-0.464 0-1.104 0-1.392 0-6.464 5.408-14.992 4.768-22.192 7.856-2.016 1.376-4.496 2.192-7.168 2.192-3.056 0-5.856-1.072-8.064-2.848l0.032 0.016c-5.136-3.712-13.76-1.984-20.048-6.128-2.096-1.392-5.536-0.752-8.336-0.992 0 2.448 0.752 4.896 0.816 7.328 0 5.824 0 11.648 0 17.472 0 1.104-1.168 2.096-1.744 3.152-0.832-0.528-2.048-0.864-2.336-1.568-2.512-5.824-7.568-12.864-4.432-18.688s0-8.784-3.264-11.632-6.704-5.232-10.080-7.856c-8.864-6.768-15.040-14.784-13.536-26.848 0-0.384-0.016-0.848-0.016-1.312 0-7.568 0.864-14.928 2.464-22l-0.128 0.672c2.8-8.032-1.392-16.704-4.832-24.512-2.176-5.312-3.424-11.472-3.424-17.936 0-5.024 0.768-9.872 2.176-14.448l-0.096 0.336c2.992-10.656 7.44-19.968 13.2-28.336l-0.192 0.32c3.968-5.984 9.152-10.848 15.232-14.32l0.224-0.112c14.272-9.2 31.712-14.656 50.416-14.656 1.856 0 3.68 0.048 5.52 0.16l-0.256-0.016c4.544 0.384 8.736 1.344 12.672 2.832l-0.32-0.112c10.816 3.488 20.16 7.68 28.912 12.768l-0.704-0.368c11.92 7.792 20.224 20.224 22.4 34.656l0.032 0.288c0.368 2.064 0.896 3.872 1.584 5.632l-0.080-0.192c1.696 4.32 2.672 9.328 2.672 14.56 0 6.992-1.744 13.568-4.8 19.328l0.112-0.224c-1.536 2.992-2.912 6.496-3.92 10.16l-0.096 0.384c-0.336 1.040-0.544 2.224-0.544 3.456 0 1.584 0.32 3.104 0.928 4.464l-0.032-0.080c5.84 8.32 4.368 17.472 4.016 26.544-0.144 6.512-1.296 12.688-3.328 18.48l0.112-0.416c-2.288 4.256-5.056 7.888-8.272 11.072 0 0.288-0.992 0-1.328 0.4-5.552 3.184-10.288 7.056-14.288 11.6l-0.048 0.064c-2.512 3.968-1.104 10.32-1.856 15.552-0.736 4.752-1.712 8.896-2.96 12.928l0.176-0.64c0 1.104-1.456 1.92-2.224 2.848-0.576-1.152-1.024-2.48-1.264-3.872l-0.016-0.096c0-3.376 0-6.752 0-10.144zM232.128 277.808c0 1.856-0.64 3.68-0.832 5.472 0 4.608-2.288 10.016-0.464 13.568 4.496 7.776 9.376 14.512 14.864 20.688l-0.112-0.144c0 0 5.84-2.272 5.84-3.904 0.496-3.44 0.768-7.408 0.768-11.44 0-2.016-0.080-4.016-0.224-6l0.016 0.256c-0.768-15.2-3.552-17.824-18.48-18.464h-1.456c0.992-1.568 1.568-3.552 2.912-4.544 2.624-1.856 5.84-2.56 5.84-7.104s-3.088-5.824-5.84-8.672c-10.784-10.016-23.664-8.512-36.432-8.224-1.104 0-2.912 1.056-3.152 1.92 0 0.064 0 0.144 0 0.208 0 1.344 0.528 2.56 1.408 3.456 5.824 6.176 12.4 12 18.176 18.464 2.944 3.296 7.216 5.36 11.968 5.36 1.936 0 3.808-0.336 5.504-0.976l-0.112 0.032zM299.856 249.104c-10.672-2.048-19.12 3.552-26.88 10.368-1.744 1.44-2.864 3.6-2.864 6.032s1.104 4.592 2.848 6.016l0.016 0.016c2.032 1.808 4.32 3.456 6.736 4.848l0.192 0.112c2.016 0.848 4.352 1.344 6.832 1.344 4.432 0 8.512-1.616 11.632-4.272l-0.032 0.016c3.856-5.424 7.744-11.664 11.2-18.16l0.448-0.928c0.592-0.992-1.232-4.432-2.752-5.136-1.168-0.256-2.528-0.384-3.904-0.384-1.152 0-2.288 0.096-3.376 0.288l0.128-0.016zM278.4 291.664c0.080-1.136 0.144-2.448 0.144-3.776s-0.048-2.656-0.144-3.968l0.016 0.176c-0.768-4.544-3.856-5.824-8.288-5.824s-9.44-0.464-10.912 4.672c-1.92 6.752 0.64 13.984-2.688 21.024-1.456 2.912 1.232 8.032 2.56 11.632 0.304 0.928 3.68 1.92 4.080 1.52 3.728-4.192 6.832-9.152 10.848-12.992 2.944-2.416 4.8-6.064 4.8-10.144 0-0.816-0.080-1.632-0.224-2.4l0.016 0.080z"></path>
<path fill="#fff" d="M242.8 329.232c1.408 1.056 3.92 1.92 4.080 3.088 1.232 9.84-0.992 20.032 3.152 29.632 0 0.032 0 0.080 0 0.112 0 0.928-0.48 1.744-1.2 2.208h-0.016c-0.592 0-1.744-0.528-2.384-1.104-7.456-6.4-11.648-23.76-7.632-31.616 0.528-0.816 2.384-1.328 4.016-2.32z"></path>
<path fill="#fff" d="M279.52 325.968c2.224 1.28 5.008 2.032 5.072 3.024 0.464 5.248 4.912 9.776 0.928 15.952-2.8 4.432-2.32 10.944-8.4 13.568-0.464-4.656-1.104-9.312-1.28-13.984-0.144-2.144-0.224-4.656-0.224-7.152s0.080-5.024 0.24-7.504l-0.016 0.336c0.288-1.344 2.288-2.56 3.68-4.256z"></path>
<path fill="#fff" d="M230.144 327.024c0.464 0.704 2.448 2.8 2.096 3.312-5.824 8.32 0 16.368 0.4 24.512-0.256 1.424-0.752 2.704-1.424 3.84l0.032-0.048c-1.168-0.768-2.864-1.344-3.376-2.448-2.4-4.608-4.8-10.16-6.784-15.872l-0.256-0.896c-0.144-0.624-0.224-1.328-0.224-2.080 0-5.424 4.176-9.888 9.488-10.32z"></path>
<path fill="#fff" d="M270.608 342.032c0.096 0.832 0.16 1.808 0.16 2.768 0 6.224-2.272 11.92-6 16.304l0.032-0.032-2.224 3.376c-0.464-1.28-1.456-2.624-1.328-3.84 0.4-5.824 1.232-11.232 1.744-16.896 0-2.208 0.992-5.008 0-6.688-2.848-4.944 0.832-5.824 3.92-6.624 0.752 0 2.752 2.912 3.312 4.832 0.32 1.456 0.48 3.152 0.48 4.864 0 0.688-0.032 1.36-0.080 2.032v-0.096z"></path>
</svg>
