<!-- Generated by IcoMoon.io -->
<svg version="1.1" xmlns="http://www.w3.org/2000/svg" width="512" height="512" viewBox="0 0 512 512">
<title>bladeborn-grysellesarenai</title>
<path fill="#fff" d="M225.299 149.821c-0.541 1.305-1.773 2.891-2.737 3.523s-2.494 2.609-3.399 4.394c-0.905 1.784-2.843 5.273-4.308 7.754s-3.032 5.966-3.482 7.745c-0.451 1.78-1.313 4.456-1.916 5.946-5.893 14.547-5.296 45.714 0.922 48.078 7.447 2.831 8.611 7.687 1.843 7.687-5.594 0-19.123-11.123-23.655-19.448-2.369-4.352-1.972-14.020 0.794-19.369 1.517-2.934 1.441-6.803-0.143-7.411-1.732-0.665-11.131 9.054-11.145 11.525-0.006 0.982-0.641 3.798-1.408 6.257-1.048 3.356-1.25 5.483-0.813 8.52 0.321 2.225 0.821 5.964 1.109 8.306 0.296 2.397 1.31 5.446 2.32 6.971 3.476 5.249 3.868 6.772 2.216 8.604-2.397 2.659-13.601 0.796-16.544-2.75-0.55-0.664-1.418-1.207-1.929-1.207-4.1 0-14.399-14.167-15.85-21.801-1.739-9.149-2.485-9.628-3.957-2.539-3.128 15.067 6.833 42.572 17.962 49.598 1.629 1.029 2.963 2.167 2.963 2.531 0 0.596 2.6 2.594 8.429 6.478 3.599 2.399 11.709 0.993 11.709-2.029 0-1.822 7.775-5.939 10.17-5.385 5.643 1.305 12.027 3.569 13.343 4.731 2.542 2.246 5.919 8.104 5.919 10.269 0 2.588 2.761 10.697 4.19 12.308 1.245 1.404 2.768 6.524 2.781 9.349 0.005 1.065 0.371 3.243 0.815 4.84l0.806 2.904h4.3c5.173 0 8.089 2.486 9.853 8.399 0.591 1.983 1.806 5.002 2.7 6.711 1.859 3.555 2.1 5.050 2.869 17.807 0.717 11.903 5.175 19.002 15.088 24.025 8.849 4.483 23.308-9.685 22.182-21.736-0.606-6.486 1.156-18.106 3.262-21.512 0.899-1.455 1.637-3.476 1.64-4.49 0.016-7.048 4.050-11.125 8.652-8.744 3.61 1.866 4.802-0.157 6.664-11.301 0.639-3.82 1.692-7.849 5.366-20.526 3.707-12.791 24.164-17.849 30.44-7.527 1.707 2.807 5.994 3.659 8.861 1.762 7.879-5.217 15.414-12.803 16.705-16.82 0.525-1.635 1.454-3.546 2.065-4.246s1.762-3.314 2.559-5.809c0.796-2.494 1.981-5.929 2.63-7.633 0.815-2.139 1.192-6.021 1.215-12.535 0.052-14.307-2.063-17.788-3.441-5.666-1.315 11.572-13.423 23.225-25.553 24.591-6.14 0.692-7.317-4.85-2.491-11.725 1.392-1.981 1.575-3.482 1.615-13.167 0.063-15.364-2.659-21.638-12.581-28.991l-2.423-1.796-0.939 2.060c-0.832 1.829-0.741 2.21 0.815 3.384 2.479 1.87 5.007 11.57 4.361 16.733-1.818 14.544-12.774 28.27-22.563 28.27-8.006 0-7.753-7.931 0.308-9.655 3.274-0.7 3.675-1.616 4.765-10.869 0.502-4.26 1.063-8.704 1.245-9.875s0.015-2.969-0.374-3.994-1.106-4.772-1.593-8.326c-0.486-3.554-1.537-8.031-2.337-9.948-0.798-1.917-1.788-5.403-2.2-7.745-1.207-6.869-9.048-21.986-12.133-23.392-0.959-0.438-2.106-1.54-2.546-2.45-1.084-2.237-1.253 3.139-0.188 5.942 0.885 2.328 3.52 22.377 3.43 26.096-0.166 6.845-1.793 14.879-3.872 19.115-1.978 4.030-2.215 5.333-2.243 12.294-0.035 9.040-1.32 12.025-8.243 19.169-6.303 6.505-6.786 7.576-5.55 12.339 2.837 10.936-1.434 16.487-10.491 13.636-2.923-0.921-4.126-0.952-6.665-0.172-12.512 3.841-19.671-3.126-14.898-14.502 1.459-3.478 0.88-6.809-1.512-8.69-1.911-1.505-6.727-8.257-9.208-12.914-1.001-1.881-1.587-5.118-1.913-10.57-0.416-6.977-0.696-8.13-2.494-10.267-4.363-5.185-4.416-31.909-0.089-44.93 1.792-5.397-0.069-10.998-2.059-6.194l-0.002 0.002zM285.339 286.023c1.265 3.988-5.834 10.888-11.204 10.888-1.547 0-1.698-0.283-1.277-2.389 1.318-6.589 10.996-13.18 12.481-8.498v0zM239.851 287.5c7.567 7.998 7.337 12.662-0.369 7.473-3.759-2.531-6.3-6.426-5.275-8.084 0.811-1.313 4.167-0.95 5.644 0.612zM262.486 302.286c1.084 2.615-0.216 8.094-1.798 7.579-1.44-0.471-2.305-5.331-1.373-7.727 1.065-2.74 1.993-2.696 3.171 0.148v0zM262.866 332.646c0.209 6.698-0.726 19.105-1.497 19.877-1.387 1.385-2.026-2.245-2.101-11.918-0.046-5.928-0.354-11.512-0.687-12.413-0.414-1.121-0.205-2.036 0.663-2.904 2.251-2.252 3.393 0.068 3.62 7.358v0zM270.471 337.707c-0.637 7.035-1.89 9.041-3.313 5.3-1.276-3.358-0.967-12.178 0.5-14.274l1.279-1.826 1.071 2.043c0.823 1.57 0.93 3.598 0.464 8.755v0.002zM253.671 328.784c0.881 1.424 1.033 11.611 0.222 14.792-2.053 8.042-3.554-1.476-2.321-14.716 0.113-1.214 1.368-1.26 2.099-0.075v0z"></path>
<path fill="#fff" d="M426.768 94.88c-1.68 8.288-3.872 15.488-6.624 22.4l0.304-0.864c-1.232 2.080-1.968 4.592-1.968 7.264 0 4.24 1.84 8.064 4.768 10.688l0.016 0.016c10.064 12.368 18.208 26.768 23.712 42.448l0.32 1.008c5.568 13.12 9.792 28.368 11.92 44.272l0.096 0.912c0.128 5.584 3.616 10.304 8.512 12.256l0.096 0.032c14.768 5.2 27.712 14.864 43.536 17.568 0.896 0.384 1.68 0.896 2.336 1.52-0.624 0.624-1.376 1.168-2.176 1.616l-0.048 0.032c-10.656 3.92-21.968 6.432-30.88 14.224-16.64 0-21.92 10.080-22.624 25.232-1.056 8.688-3.104 16.608-6.080 24.064l0.224-0.64c-2.4 8.688-5.312 16.16-8.88 23.28l0.336-0.736c-5.568 12.048-12.032 22.448-19.632 31.92l0.224-0.288c-10.32 11.696-8.912 22.656-4.848 35.12 1.28 4.080 2.944 8.016 3.984 12.176s-1.344 5.856-4.752 4.752c-7.264-2.048-14.544-4.16-21.68-6.624-2.016-0.944-4.4-1.488-6.88-1.488-4.080 0-7.824 1.472-10.72 3.904l0.032-0.016c-10.48 8.56-22.448 15.952-35.328 21.664l-1.008 0.4c-6.96 2.864-13.824 5.856-20.864 8.544s-13.712 4.048-20.096 7.024c-3.472 1.344-6.272 3.808-8 6.944l-0.048 0.080c-5.856 10.768-9.136 22.544-14.416 33.488-0.672 1.104-1.792 1.856-3.088 2.048h-0.016c-0.992 0-1.936-1.52-2.752-2.512-0.096-0.208-0.16-0.448-0.16-0.704s0.064-0.496 0.16-0.72v0.016c4.384-19.968-2.048-39.856-0.464-59.936-0.032-0.256-0.032-0.544-0.032-0.848 0-4.944 3.824-9.008 8.672-9.392h0.032c12.832-3.28 25.488-7.088 38.192-10.656 1.52-0.512 2.832-1.088 4.064-1.776l-0.144 0.064c25.552-12.704 47.040-29.952 64.192-50.88l0.256-0.336c5.856-7.44 10.784-15.168 15.936-22.944 5.456-8.608 9.824-18.576 12.512-29.2l0.16-0.72c0.176-1.52 0.544-2.896 1.088-4.192l-0.032 0.096c8.368-12.88 8.256-27.28 7.792-41.808v-7.312c0-35.952 0.656-36.176-12.064-68.496-5.936-14.592-13.232-27.2-21.968-38.624l0.304 0.4c-10.336-14.144-22.464-26.192-36.256-36.080l-0.48-0.336c-8.736-5.856-17.568-11.696-26.768-17.552-1.344-0.64-2.912-1.008-4.592-1.008-0.448 0-0.88 0.032-1.312 0.080h0.048c-3.952-0.32-7.568-1.552-10.72-3.456l0.112 0.064c-7.648-3.28-16.672-6.128-26.032-8.048l-0.928-0.16c-8.544-1.936-11.312-3.984-11.712-12.656v-59.968c0-1.12 1.056-2.176 1.712-3.264 0.928 0.368 1.712 0.88 2.4 1.52 1.824 2.416 3.52 5.168 4.976 8.064l0.144 0.304c3.392 7.776 6.848 15.632 9.664 23.712 1.888 6.064 6.944 10.608 13.2 11.68l0.112 0.016c13.952 2.832 26.32 7.232 37.808 13.088l-0.832-0.384c14.944 6.864 27.792 14.688 39.632 23.776l-0.48-0.352c3.68 3.040 8.448 4.864 13.632 4.864 2.768 0 5.424-0.528 7.84-1.472l-0.144 0.048c7.712-1.664 14.128-3.472 20.384-5.648l-1.232 0.368c4.624-1.712 4.336 0.704 4.4 7.024l-0.080 0.016z"></path>
<path fill="#fff" d="M234.384 29.552c-0.928 4.912-2.4 11.408-3.344 18.032-0.064 0.736-0.096 1.616-0.096 2.496 0 2.112 0.208 4.176 0.608 6.176l-0.032-0.208c0.8 3.44 1.488 7.744 1.952 12.144l0.048 0.512c0.304 13.12 0 12.352-12.832 15.28-28.656 6.496-55.776 16.384-77.008 38.16-4.368 4.048-9.12 7.888-14.096 11.408l-0.432 0.288c-12.48 9.824-18.992 24.112-26.944 37.104-7.088 11.712-14.768 23.424-15.008 37.888-10.32 22.176-5.872 45.84-5.216 68.672 1.584 17.952 6.512 34.432 14.176 49.28l-0.336-0.752c10.624 23.52 25.552 43.376 43.92 59.36l0.192 0.176c10.928 9.952 23.28 18.624 36.656 25.6l0.96 0.448c3.456 1.52 7.888 3.136 12.4 4.512l0.896 0.24c10.656 4.496 23.344 8.528 36.464 11.424l1.504 0.288c3.808 0.704 5.040 2.512 4.736 5.856-1.28 14.336 2.176 28.8-2.176 43.2-1.584 5.376 1.456 12.064 2.112 18.144 0.144 1.088 0.224 2.352 0.224 3.632s-0.080 2.544-0.224 3.776l0.016-0.16c-0.352 0.864-1.104 1.52-2.032 1.68h-0.016c-1.232 0-3.456-0.88-3.52-1.52-1.168-14.688-10.544-26.224-15.408-39.456-0.752-1.984-3.104-4.752-4.848-4.8-14.176-0.88-25.072-11.696-39.312-12.224-14.112-9.664-31.056-14.864-43.072-27.68-2.176-2.656-5.456-4.352-9.12-4.352-1.408 0-2.736 0.256-3.968 0.688l0.080-0.032c-8.672 2.4-17.28 4.8-25.888 7.376-4.096 1.232-5.344-0.88-5.152-4.272 0.256-2.592 0.72-4.944 1.408-7.232l-0.064 0.256c2.176-8.192 4.624-16.336 6.512-24.592-0.128-2.24-0.976-4.272-2.368-5.856l0.016 0.016c-13.824-19.296-24.944-41.696-32.16-65.776l-0.416-1.6c-2.064-6.56-3.856-14.464-5.008-22.592l-0.096-0.832c-1.28-10.544-4.736-16.384-14.88-18.032-12.432-1.936-21.92-9.024-32.16-14.992-2.704-1.52-1.888-1.808 0-3.52 9.424-8.016 21.328-10.352 32.464-14.224 8.4-2.144 14.576-9.584 14.704-18.48v-0.016c1.504-14.224 4.816-27.28 9.728-39.52l-0.352 0.992c7.44-20.32 18.032-37.824 31.328-52.848l-0.16 0.176c1.952-1.776 3.184-4.32 3.184-7.168 0-1.664-0.416-3.232-1.168-4.592l0.032 0.048c-2.752-5.584-4.64-12.064-5.312-18.912l-0.016-0.24c-2.336-15.152-2.992-15.088 12.368-10.304 7.216 2.288 14.704 7.376 21.44 6.432s13.056-7.44 19.104-12.064c13.824-10.592 30.24-16.112 45.472-23.888 5.168-1.84 11.232-3.264 17.504-4.064l0.432-0.048c5.152-0.784 9.264-4.448 10.704-9.264l0.032-0.096c4.096-11.696 11.712-21.904 14-34.304 0-0.768 0.992-1.456 1.456-2.224 1.168 0.88 3.168 1.584 3.328 2.576 0.768 5.040 1.232 10.768 2.112 18.32l-0.032 0.080z"></path>
</svg>
