<!-- Generated by IcoMoon.io -->
<svg version="1.1" xmlns="http://www.w3.org/2000/svg" width="32" height="32" viewBox="0 0 32 32">
<title>bladeborn-skaeth</title>
<path fill="#fff" d="M17.175 29.108c0-0.607 0.041-1.221 0-1.829-0.037-0.48 0.204-0.645 0.589-0.732s0.824-0.146 1.23-0.241c2.080-0.498 3.662-1.741 5.068-3.292 1.069-1.218 1.878-2.689 2.325-4.312l0.018-0.077c0.157-0.573 0.264-1.24 0.296-1.925l0.001-0.021c0.026-0.268 0.041-0.58 0.041-0.896 0-1.527-0.346-2.972-0.964-4.263l0.025 0.060c-1.098-2.326-2.596-4.206-5.008-5.308-0.903-0.477-1.951-0.843-3.057-1.043l-0.067-0.009c-0.001 0-0.002 0-0.003 0-0.266 0-0.483-0.216-0.483-0.482 0-0.020 0.001-0.039 0.003-0.057v0.002c0-1.312 0-2.622 0-3.932 0.012-0.091 0.033-0.173 0.065-0.252l-0.002 0.007c0.084 0.062 0.205 0.11 0.245 0.198 0.311 0.673 0.648 1.343 0.893 2.041 0.121 0.344 0.318 0.424 0.619 0.552 0.875 0.366 1.864 0.414 2.672 1.020 0.732 0.548 1.615 0.9 2.377 1.415 0.151 0.136 0.352 0.219 0.572 0.219 0.151 0 0.294-0.039 0.417-0.107l-0.005 0.002c0.252-0.097 0.546-0.172 0.85-0.213l0.020-0.002c0.992-0.237 1.098-0.179 0.678 0.757-0.516 1.116-0.198 1.924 0.432 2.838 0.89 1.259 1.479 2.791 1.63 4.449l0.003 0.036c0 0.006 0 0.013 0 0.020 0 0.497 0.32 0.92 0.765 1.075l0.008 0.002c0.802 0.321 1.596 0.673 2.394 1.009l0.264 0.113-0.23 0.099c-0.824 0.34-1.637 0.71-2.475 1.010-0.538 0.194-0.622 0.661-0.688 1.071-0.18 1.181-0.514 2.244-0.985 3.229l0.030-0.069c-0.385 0.898-0.823 1.67-1.336 2.386l0.025-0.038c-0.225 0.275-0.361 0.63-0.361 1.017 0 0.166 0.025 0.325 0.072 0.475l-0.003-0.011c0.047 0.234 0.113 0.461 0.172 0.695 0.19 0.731 0.19 0.731-0.542 0.651-0.158-0.019-0.302-0.066-0.431-0.134l0.007 0.003c-0.809-0.432-1.534-0.183-2.161 0.336-0.904 0.747-1.992 1.304-3.185 1.595l-0.054 0.011c-1.139 0.274-1.688 0.991-2.054 1.986-0.161 0.435-0.367 0.853-0.557 1.277-0.052-0.465-0.11-0.921-0.139-1.386-0.029-0.351-0.014-0.688-0.014-1.024z"></path>
<path fill="#fff" d="M14.558 29.243c0 0.673 0 1.343 0 2.012-0.016 0.088-0.047 0.166-0.089 0.237l0.002-0.003c-0.070-0.070-0.171-0.128-0.209-0.212-0.287-0.543-0.574-1.198-0.815-1.873l-0.034-0.109c-0.114-0.44-0.472-0.774-0.916-0.855l-0.007-0.001c-0.432-0.121-0.86-0.253-1.282-0.402-1.315-0.47-2.452-1.115-3.453-1.923l0.023 0.017c-0.18-0.118-0.403-0.189-0.64-0.189-0.062 0-0.123 0.005-0.183 0.014l0.007-0.001c-0.546 0.071-1.040 0.199-1.508 0.381l0.044-0.014c-0.322 0.124-0.402 0.029-0.366-0.238 0.018-0.318 0.086-0.614 0.197-0.889l-0.007 0.019c0.116-0.253 0.183-0.548 0.183-0.86 0-0.485-0.164-0.932-0.44-1.288l0.004 0.005c-1.041-1.468-1.745-3.245-1.962-5.168l-0.005-0.051c-0.062-0.6-0.542-0.732-0.985-0.925-0.623-0.274-1.223-0.589-1.831-0.867-0.41-0.187-0.268-0.303 0.029-0.424 0.689-0.285 1.38-0.579 2.072-0.857 0.417-0.164 0.711-0.553 0.732-1.014v-0.003c0.326-2.214 1.211-4.177 2.505-5.8l-0.019 0.024c0.127-0.127 0.207-0.301 0.207-0.495 0-0.117-0.029-0.228-0.079-0.325l0.002 0.004c-0.169-0.416-0.311-0.907-0.407-1.414l-0.007-0.048c-0.041-0.201-0.095-0.523 0.366-0.336 0.384 0.157 0.864 0.103 1.219 0.289 0.579 0.307 1 0.047 1.402-0.26 1.080-0.867 2.372-1.521 3.783-1.873l0.069-0.014c1.099-0.237 1.38-0.999 1.743-1.8 0.146-0.322 0.245-0.673 0.366-1.002 0.025-0.062 0.121-0.099 0.187-0.146 0.041 0.074 0.11 0.143 0.11 0.212 0 1.312 0 2.623 0 3.932 0 0.336-0.19 0.482-0.52 0.501-1.265 0.134-2.412 0.543-3.413 1.164l0.034-0.020c-2.015 1.088-3.605 2.742-4.586 4.747l-0.028 0.063c-0.672 1.37-1.066 2.982-1.066 4.685 0 0.524 0.037 1.039 0.109 1.544l-0.007-0.058c0.3 2.123 1.166 4.005 2.442 5.534l-0.015-0.018c1.24 1.467 2.818 2.611 4.616 3.316l0.079 0.027c0.504 0.195 1.092 0.345 1.703 0.42l0.037 0.004c0.001 0 0.002 0 0.003 0 0.358 0 0.648 0.289 0.648 0.647 0 0.054-0.007 0.105-0.018 0.154l0.001-0.005c-0.029 0.611 0 1.222 0 1.829z"></path>
<path fill="#fff" d="M16.604 22.824c-0.414 0.3-0.854 0.482-1.33 0.172-0.183-0.121-0.439-0.318-0.443-0.48 0.013-0.272 0.139-0.513 0.332-0.679l0.001-0.001c0.711-0.527 2.482-0.336 3.167 0.245 0.366 0.307 0.396 0.929-0.205 1.405-0.495 0.459-1.156 0.745-1.883 0.757h-0.003c-0.872-0.037-1.754 0.103-2.563-0.447-0.608-0.416-1.161-1.24-0.868-1.693 0.352-0.436 0.77-0.801 1.242-1.086l0.021-0.012c0.236-0.152 0.508-0.277 0.798-0.36l0.021-0.006c0.348-0.117 0.528-0.366 0.41-0.692-0.114-0.271-0.312-0.489-0.561-0.626l-0.007-0.003c-0.281-0.114-0.606-0.19-0.946-0.211h-0.009c-0.995-0.164-1.745-1.016-1.745-2.044 0-0.053 0.002-0.105 0.006-0.157v0.007c0-0.278 0.055-0.417 0.341-0.128 0.19 0.173 0.434 0.291 0.704 0.325l0.007 0.001c0.871 0.036 1.586 0.657 1.763 1.48l0.002 0.012c0.037 0.143 0.367 0.366 0.421 0.319 0.165-0.141 0.302-0.31 0.405-0.499l0.005-0.010c0.011-0.026 0.017-0.056 0.017-0.088s-0.007-0.062-0.018-0.089l0.001 0.002c-0.232-0.585-0.486-1.083-0.781-1.554l0.023 0.040c-0.222-0.216-0.523-0.354-0.854-0.366h-0.002c-1.23-0.048-2.208-1.056-2.208-2.292 0-0.077 0.004-0.155 0.012-0.23l-0.001 0.009c0.033-0.152 0.081-0.287 0.143-0.412l-0.005 0.011c0.103 0.080 0.216 0.154 0.315 0.241 0.234 0.216 0.439 0.589 0.699 0.632 0.879 0.15 1.33 0.702 1.699 1.427 0.091 0.179 0.322 0.289 0.491 0.432 0.12-0.183 0.221-0.394 0.292-0.618l0.005-0.018c0.001-0.016 0.001-0.033 0.001-0.050 0-0.618-0.358-1.153-0.878-1.409l-0.009-0.004c-0.579-0.282-1.26-0.366-1.622-1.038-0.33-0.6-0.571-1.178-0.256-1.858 0.143-0.307 0.187-0.293 0.388 0 0.273 0.301 0.557 0.579 0.855 0.838l0.012 0.011c0.255 0.268 0.495 0.557 0.716 0.861l0.016 0.024c0.058 0.084-0.018 0.268 0.041 0.366 0.149 0.195 0.303 0.368 0.468 0.53l0.001 0.001c0.154-0.179 0.436-0.366 0.443-0.53 0-0.439 0.055-1.050-0.198-1.291-1.070-1.032-0.384-2.015-0.066-3.021 0.091-0.241 0.198-0.448 0.323-0.642l-0.008 0.014c0.082-0.122 0.164-0.229 0.255-0.328l-0.002 0.002c0.075 0.086 0.143 0.182 0.201 0.284l0.005 0.009c0.184 0.41 0.367 0.82 0.524 1.236 0.311 0.816 0.509 1.602-0.256 2.326-0.48 0.457-0.241 1.098-0.179 1.646 0.046 0.153 0.186 0.263 0.351 0.263 0.111 0 0.211-0.049 0.278-0.128v-0.001c0.129-0.15 0.222-0.334 0.263-0.538l0.001-0.008c0.092-0.52 0.429-0.947 0.883-1.162l0.010-0.004c0.306-0.178 0.555-0.425 0.727-0.722l0.005-0.010c0.202-0.348 0.249-0.084 0.315 0.033 0.12 0.186 0.192 0.413 0.192 0.657 0 0.197-0.047 0.382-0.13 0.546l0.003-0.007c-0.27 0.644-0.782 1.141-1.418 1.388l-0.018 0.006c-1.007 0.42-1.428 0.856-1.344 1.785 0.018 0.202 0.208 0.387 0.319 0.585 0.165-0.154 0.406-0.274 0.476-0.461 0.279-0.772 0.732-1.269 1.596-1.379 0.275-0.033 0.505-0.406 0.758-0.614 0.095-0.080 0.202-0.15 0.303-0.223 0.076 0.114 0.138 0.247 0.18 0.389l0.003 0.011c0.15 1.098-0.824 2.293-1.996 2.439-0.941 0.109-1.684 0.829-1.829 1.747l-0.002 0.012c-0.009 0.052-0.014 0.111-0.014 0.173 0 0.161 0.033 0.314 0.093 0.453l-0.003-0.008c0.055 0.137 0.187 0.232 0.34 0.232s0.285-0.095 0.339-0.229l0.001-0.003c0.149-0.21 0.273-0.452 0.361-0.712l0.006-0.020c0.132-0.581 0.586-0.706 1.051-0.863 0.388-0.132 0.765-0.3 1.15-0.449l0.293-0.117c0.016 0.075 0.029 0.168 0.036 0.262v0.007c-0.018 1.382-0.791 2.239-2.124 2.243-0.032-0.004-0.070-0.006-0.107-0.006-0.472 0-0.873 0.305-1.014 0.729l-0.002 0.008c-0.245 0.973-0.977 1.339-1.765 1.635-0.582 0.216-1.142 0.523-1.146 1.123s0.641 0.859 1.194 1.017c0.988 0.282 1.893-0.070 2.779-0.439 0.303-0.124 0.301-0.578 0.044-0.83-0.366-0.366-1.464-0.417-1.886-0.113-0.297 0.204-0.132 0.402 0.044 0.486 0.21 0.071 0.452 0.114 0.704 0.121h0.003z"></path>
<path fill="#fff" d="M16.593 22.842l0.058-0.029h-0.047z"></path>
</svg>
