<!-- Generated by IcoMoon.io -->
<svg version="1.1" xmlns="http://www.w3.org/2000/svg" width="512" height="512" viewBox="0 0 512 512">
<title>bladeborn-morgok</title>
<path fill="#fff" d="M233.2 45.632c0 10.208 0 20.384 0 30.576 0 6.832-1.984 9.28-8.096 9.616-27.296 1.568-50.144 14.144-71.84 29.12-20.96 15.104-38.048 34.192-50.448 56.288l-0.448 0.864c-10.112 16.416-17.12 35.808-19.712 56.56l-0.080 0.704c-3.088 30.416-3.152 61.52 11.312 90.24 5.744 12.896 11.472 23.664 17.84 33.952l-0.704-1.216c9.328 13.744 18.896 27.792 33.888 36.544 11.008 6.4 20.464 15.024 31.904 21.264 8.976 4.224 19.984 8.4 31.328 11.856l1.856 0.496c4.448 1.504 9.632 2.624 14.992 3.136l0.272 0.016c5.84 0.832 8.064 4.256 8 9.904 0 21.376 0 42.704 0 64.080 0 1.392-1.456 2.752-2.224 4.144-1.104-0.928-2.688-1.632-3.152-2.784-2.448-6.176-4.72-12.416-6.88-18.688-4.48-13.344-10.272-25.344-26.192-28.368-14.864-3.376-27.968-8.976-39.744-16.496l0.496 0.288c-12.656-6.256-23.568-13.2-33.632-21.152l0.384 0.288c-1.888-1.2-4.192-1.904-6.64-1.904-1.008 0-2 0.128-2.944 0.336l0.080-0.016c-10.624 2.416-19.296 4.928-27.776 7.84l1.872-0.56c-4.016 1.28-5.824 0-5.824-3.744 0.624-3.664 1.472-6.864 2.576-9.952l-0.128 0.4c0.256-2.176 0.688-4.144 1.28-6.048l-0.064 0.224c2.336-4.112 3.744-9.024 3.744-14.256 0-7.52-2.848-14.384-7.536-19.568l0.016 0.032c-14.512-17.488-21.392-38.848-27.696-60.288-2.32-7.056-3.792-15.184-4.080-23.616v-0.144c0-6.288-3.744-8.384-7.824-10.368-12.432-5.824-25.072-11.664-37.6-17.488-1.488-0.992-2.768-2.144-3.888-3.408l-0.016-0.032c1.28-1.104 2.336-2.688 3.792-3.264 12.768-5.184 25.6-10.192 38.368-15.376 4.208-1.616 7.12-5.616 7.12-10.288 0-0.16 0-0.304-0.016-0.432v0.016c1.776-18.208 6.304-34.928 13.168-50.368l-0.4 1.024c6.864-17.232 16.112-32.048 27.536-44.88l-0.144 0.16c2.208-2.432 3.552-5.664 3.552-9.2 0-1.536-0.24-3.024-0.72-4.4l0.032 0.080c-1.328-6.4-4.016-12.576-5.824-18.88-0.96-2.336-1.744-5.088-2.192-7.936l-0.032-0.224c0-3.264 0.928-5.824 5.072-4.48 8.224 2.32 16.56 4.208 24.672 6.752 1.44 0.56 3.104 0.88 4.832 0.88 3.2 0 6.144-1.104 8.464-2.944l-0.032 0.016c10.544-7.28 22.048-13.216 32.88-20.096 13.936-8.912 30.272-11.072 45.376-16.768 3.28-1.168 5.92-3.504 7.424-6.512l0.032-0.080c4.8-7.872 8.8-16.976 11.488-26.624l0.192-0.752c1.136-2.864 2.528-5.344 4.192-7.616l-0.064 0.096c0.464-0.752 1.984-1.68 2.288-1.456 1.024 0.608 1.776 1.568 2.096 2.72l0.016 0.032c0 5.824 0 11.664 0 17.488z"></path>
<path fill="#fff" d="M276.176 465.376c0-11.2 0-22.304 0-33.488 0-4.080 1.696-5.472 5.84-6.352 15.008-2.192 28.448-5.68 41.28-10.416l-1.392 0.448c14.432-6 26.848-13.728 37.792-23.152l-0.176 0.16c20.992-18.752 42.848-37.28 51.328-66.352 2.448-8.32 7.344-15.904 9.792-24.752 2.64-9.008 4.144-19.344 4.144-30.032 0-0.352 0-0.72 0-1.072v0.048c0-11.184-0.528-22.368 0-33.488-0.032-13.056-2.528-25.52-7.056-36.976l0.24 0.688c-3.616-9.936-7.264-18.144-11.408-26.064l0.56 1.184c-7.312-15.616-16.896-28.912-28.48-40.16l-0.032-0.032c-11.536-11.52-24.56-21.568-38.752-29.808l-0.896-0.48c-16.128-9.632-35.040-16.496-55.232-19.36l-0.8-0.096c-3.824-0.272-6.816-3.408-6.816-7.264 0-0.288 0.016-0.544 0.048-0.8v0.032c0-22.288 0-44.592 0-66.88 0-0.992 1.232-1.92 1.856-2.848 0.48 0.672 0.944 1.424 1.344 2.224l0.048 0.112c4.944 12.352 10.208 24.576 14.688 37.040 1.744 4.56 5.952 7.808 10.912 8.224h0.048c17.504 1.744 32.608 10.592 47.76 18.352 10.448 5.376 19.456 11.344 27.728 18.144l-0.256-0.224c3.376 3.2 7.952 5.168 12.992 5.168 3.488 0 6.752-0.944 9.552-2.592l-0.096 0.048c2.624-1.168 5.472-3.504 7.856-3.088 5.84 0.992 10.512-6.224 16.448-1.856-1.344 4.944-2.912 9.904-4.016 14.976-1.344 4.944-2.576 11.088-3.408 17.344l-0.080 0.768c-0.048 0.48-0.064 1.024-0.064 1.584 0 2.928 0.704 5.68 1.92 8.144l-0.048-0.112c4.080 7.52 9.040 14.576 13.296 21.968 9.52 14.688 16.432 32 19.6 50.576l0.112 0.8c0.72 6.32 1.824 12.032 3.392 17.552l-0.176-0.752c1.056 6.688 5.52 12.112 11.536 14.528l0.112 0.048c13.408 4.768 26.24 11.136 39.296 16.896 1.136 0.672 2.112 1.44 2.976 2.32-0.688 0.432-1.488 0.848-2.336 1.232l-0.128 0.048c-13.232 5.296-26.416 10.72-39.712 15.728-6.384 2.32-11.056 7.92-12 14.688l-0.016 0.096c-1.168 3.952-2.128 8.656-2.688 13.52l-0.048 0.416c-1.392 24.24-13.648 44.032-25.776 64.080-4.256 6.88-9.328 13.216-13.76 19.968-0.288 0.768-0.464 1.648-0.464 2.56s0.176 1.792 0.48 2.624l-0.016-0.048c2.448 9.152 4.768 18.352 7.76 27.328 1.168 3.376 1.984 5.824-2.624 5.184s-9.392-1.344-14.064-2.048c-1.536-0.064-2.96-0.4-4.288-0.96l0.080 0.032c-10.912-6.176-20.4-2.224-29.152 4.544-16.336 13.008-35.936 22.688-57.328 27.664l-0.976 0.176c-3.008 0.624-5.68 1.6-8.144 2.928l0.16-0.080c-5.84 3.2-11.088 5.824-13.36 13.216-4.512 12.688-9.024 23.088-14.112 33.152l0.752-1.632c-0.528 1.232-1.232 2.384-1.856 3.616-0.72-1.072-1.28-2.304-1.568-3.664l-0.016-0.064c0-11.664 0-23.296 0-34.944z"></path>
<path fill="#fff" d="M368.256 206.832c0.096 0.896 0.144 1.936 0.144 2.992 0 12.24-6.912 22.88-17.056 28.208l-0.176 0.080c-4.256 2.512-6.464 8.912-8.864 13.92s-3.616 5.824-6.24 0c-2.672-5.296-5.296-9.712-8.16-13.968l0.288 0.448c-0.928-1.792-2.768-2.96-4.88-2.96-1.808 0-3.376 0.864-4.384 2.192l-0.016 0.016c-5.008 5.12-4.944 9.904 0 16.192s5.072 6.288-0.592 12.688c-2.8 3.216-5.008 6.928-7.696 10.256s-6.176 7.584-11.664 6.752c-7.632-1.104-9.328 3.616-11.136 9.968-4.080 14.448 1.52 23.296 16.448 24.176 4.32 0 8.688 0 13.056 0h5.824c-0.624 1.888-1.424 3.536-2.384 5.040l0.064-0.096c-2.224 2.56-4.944 4.656-7.12 7.28-2.944 4-7.6 6.576-12.896 6.576-0.8 0-1.584-0.064-2.368-0.176l0.096 0.016c-0.56-0.048-1.2-0.064-1.872-0.064-6.272 0-12 2.224-16.48 5.936l0.048-0.032c-15.68 10.768-32.72 12.656-49.152 0-2.528-2.32-5.456-4.272-8.656-5.728l-0.208-0.080c-1.52-0.256-3.264-0.4-5.040-0.4s-3.52 0.144-5.232 0.416l0.192-0.032c-9.552-0.064-17.712-5.824-21.28-14.064l-0.064-0.16c-1.104-2.080-1.104-3.664 1.68-3.776 1.744-0.112 3.792-0.192 5.84-0.192s4.080 0.080 6.096 0.224l-0.256-0.016c1.072 0.224 2.304 0.336 3.552 0.336 6.912 0 12.96-3.744 16.16-9.328l0.048-0.096c1.456-2.736 4.144-5.168 1.168-9.088-1.52-1.984-0.768-5.824-1.232-8.384-0.992-6.464-2.736-7.808-9.552-7.28-1.28 0-3.328 1.568-3.68 1.168-5.952-6.288-11.68-13.008-17.056-20.032l-0.432-0.608c-3.552-4.944 0.464-10.080 2.32-14.912 0.848-1.488 1.536-3.232 1.952-5.056l0.032-0.112c0-1.056-1.408-2.56-2.624-3.152-0.16-0.032-0.336-0.048-0.528-0.048-1.040 0-1.984 0.464-2.608 1.2-2.224 3.68-3.92 7.632-5.84 11.36-0.688 1.104-2.224 1.744-3.376 2.624-0.688-1.232-1.392-2.384-2.048-3.616-0.8-1.36-1.632-3.024-2.368-4.736l-0.128-0.32c-3.376-8.576-3.376-8.576-11.664-4.944-7.52 3.264-13.824 0.704-14.064-7.392-0.736-7.552-3.12-14.416-6.768-20.432l0.128 0.208c-1.536-3.168-2.432-6.864-2.432-10.784 0-3.584 0.736-6.976 2.096-10.048l-0.064 0.16c5.2-14.848 17.504-23.296 28.448-33.024 1.168-0.992 3.616-0.528 5.824-0.704 0.016 0.304 0.032 0.656 0.032 1.008 0 1.696-0.192 3.376-0.576 4.96l0.032-0.144c-1.744 4.496-3.712 8.32-6 11.936l0.176-0.288c-5.072 7.808-2.688 14.624 2.384 21.088 2.272 3.248 5.984 5.344 10.208 5.344 3.408 0 6.496-1.376 8.752-3.6 5.424-5.072 10.272-10.192 18.656-8.8 1.456 0 3.376-1.632 4.784-2.8 7.232-6.112 14.4-12.224 21.456-18.448 11.136-9.904 20-10.304 31.664-1.28l24.976 19.168c1.344 1.152 2.848 2.256 4.416 3.312l0.192 0.128c3.376 1.984 6.768-4.24 10.384 0 2.384 2.8 5.376 5.072 7.76 7.808 2.16 2.848 5.536 4.688 9.36 4.688 2.32 0 4.496-0.688 6.336-1.856l-0.048 0.032c3.664-3.408 6.128-8.048 6.752-13.232l0.016-0.112c1.632-8.848-3.152-16.592-6.24-24.576-0.304-1.056-0.496-2.288-0.576-3.568v-0.048c1.328 0 2.912-0.352 3.968 0 11.536 6.336 20.832 15.504 27.104 26.576l0.192 0.336c1.648 5.312 2.64 11.44 2.752 17.776v0.048zM223.872 231.488c-5.824 0-12.24 8.672-9.856 12.88 3.712 5.76 7.888 10.768 12.56 15.232l0.032 0.032c4.432 4.608 9.616 1.168 14.464 0 6.592-1.328 6.992-2.208 4.48-8.208-0.928-2.224-2.912-4.192-3.088-6.4-1.104-12.688-11.776-11.232-18.592-13.52zM275.664 259.84c0.976 0.224 2.096 0.368 3.248 0.368 4.72 0 8.88-2.288 11.488-5.808l0.032-0.048c3.264-5.824 7.168-11.184 4.784-19.568-1.568-5.824-4.72-4.672-6.944-4.48-11.664 0.928-18.016 9.152-22.048 19.28-3.024 7.632-1.104 10.080 9.456 10.256zM242.816 290.48c0 0.864-0.992 1.92-0.768 2.688 2.144 8.368 4.528 15.424 7.392 22.256l-0.384-1.040c0.928 2.096 5.472 3.088 8.512 3.44s5.824-2.224 6.88-5.824 2.16-6.224 2.912-9.376c0.864-4.016 1.328-8.048 2.048-12.064-2.848 2.56-5.824 4.944-8.512 7.744-1.072 1.52-2.8 2.496-4.768 2.496s-3.712-0.976-4.768-2.48l-0.016-0.016c-1.872-2.048-3.776-3.952-5.76-5.76l-0.064-0.064c-0.784-0.704-1.68-1.344-2.592-1.92l-0.096-0.048z"></path>
</svg>
