<!-- Generated by IcoMoon.io -->
<svg version="1.1" xmlns="http://www.w3.org/2000/svg" width="32" height="32" viewBox="0 0 32 32">
<title>bladeborn-steelheart</title>
<path fill="#fff" d="M17.322 29.229c0.014-0.26 0.023-0.564 0.023-0.869s-0.009-0.609-0.025-0.911l0.002 0.041c-0.066-0.594 0.334-0.686 0.734-0.822 0.933-0.319 1.928-0.517 2.79-0.965 2.463-1.231 4.352-3.305 5.314-5.835l0.024-0.073c0.455-1.131 0.719-2.442 0.719-3.814 0-0.376-0.020-0.747-0.058-1.113l0.004 0.046c-0.207-2.015-0.947-3.827-2.072-5.332l0.020 0.028c-0.956-1.354-2.187-2.45-3.616-3.226l-0.055-0.028c-0.931-0.444-2.031-0.844-3.172-1.141l-0.132-0.029c-0.368-0.107-0.499-0.205-0.496-0.573 0-1.251 0-2.501 0-3.756 0.008-0.126 0.025-0.242 0.051-0.355l-0.003 0.014c0.104 0.094 0.194 0.199 0.271 0.313l0.004 0.006c0.238 0.452 0.474 0.999 0.673 1.564l0.028 0.091c0.113 0.47 0.493 0.826 0.966 0.905l0.007 0.001c1.696 0.452 3.178 1.193 4.466 2.172l-0.031-0.022c0.296 0.25 0.682 0.401 1.103 0.401 0.183 0 0.36-0.029 0.525-0.082l-0.012 0.003c0.341-0.099 0.69-0.18 1.036-0.261s0.466 0.136 0.393 0.414c-0.15 0.553-0.3 1-0.473 1.436l0.033-0.093c-0.039 0.097-0.062 0.209-0.062 0.327 0 0.229 0.086 0.437 0.228 0.595l-0.001-0.001c1.208 1.702 2.111 3.547 2.321 5.663 0.016 0.439 0.302 0.807 0.697 0.945l0.007 0.002 2.416 0.939c0.055 0.019 0.114 0.029 0.173 0.044-0.059 0.066-0.107 0.158-0.18 0.187-0.654 0.283-1.307 0.568-1.975 0.822-0.659 0.187-1.141 0.766-1.178 1.463v0.003c-0.17 1.572-0.738 2.987-1.6 4.173l0.018-0.025c-0.319 0.429-0.643 0.921-0.939 1.432l-0.041 0.076c-0.069 0.113-0.111 0.25-0.111 0.396 0 0.038 0.003 0.075 0.008 0.111v-0.004c0.129 0.546 0.29 1.1 0.455 1.628 0.103 0.33-0.025 0.499-0.337 0.437-0.482-0.085-0.912-0.22-1.316-0.403l0.034 0.014c-0.459-0.224-0.734-0.113-1.141 0.177-1.363 1.002-2.802 1.881-4.487 2.234-0.452 0.096-0.812 0.418-0.959 0.838l-0.003 0.009c-0.245 0.572-0.508 1.141-0.789 1.706-0.064 0.114-0.126 0.21-0.193 0.302l0.005-0.009c-0.031-0.113-0.055-0.248-0.069-0.386l-0.001-0.010c-0.022-0.598-0.018-1.21-0.018-1.82z"></path>
<path fill="#fff" d="M5.801 7.521c-0.132-0.565-0.257-1.027-0.341-1.497-0.011-0.107-0.016-0.23-0.016-0.355s0.006-0.249 0.018-0.371l-0.001 0.016c0.198 0.043 0.4 0.077 0.595 0.136s0.444 0.187 0.676 0.249c0.169 0.056 0.362 0.088 0.563 0.088 0.478 0 0.914-0.183 1.24-0.482l-0.001 0.001c0.986-0.808 2.172-1.409 3.472-1.722l0.060-0.013c1.050-0.249 1.622-0.77 1.811-1.834 0.066-0.386 0.396-0.733 0.606-1.078 0.092 0.376 0.165 0.826 0.204 1.288l0.002 0.033c0 0.895 0 1.793-0.062 2.684-0.046 0.208-0.187 0.376-0.374 0.46l-0.004 0.002c-0.757 0.275-1.542 0.48-2.306 0.733-2.335 0.814-4.039 2.399-5.33 4.456-0.809 1.336-1.338 2.925-1.466 4.626l-0.002 0.036c-0.041 0.349-0.064 0.753-0.064 1.163 0 2.565 0.905 4.92 2.414 6.76l-0.016-0.020c1.122 1.431 2.605 2.531 4.313 3.173l0.068 0.022c0.672 0.242 1.381 0.367 2.070 0.573 0.455 0.129 0.881 0.289 0.789 0.909-0.083 0.422-0.139 0.915-0.157 1.418v0.016c0 0.627 0.103 1.255 0.14 1.885-0.006 0.219-0.031 0.428-0.074 0.632l0.004-0.022c-0.143-0.125-0.265-0.268-0.363-0.428l-0.005-0.008c-0.177-0.373-0.339-0.816-0.464-1.274l-0.013-0.057c-0.202-0.807-0.734-1.137-1.509-1.302-1.108-0.243-2.086-0.683-2.941-1.283l0.026 0.018c-0.526-0.423-1.114-0.816-1.737-1.154l-0.062-0.031c-0.319-0.143-0.804 0.070-1.211 0.139-0.113 0.018-0.209 0.113-0.323 0.146-0.298 0.092-0.598 0.169-0.9 0.249 0.023-0.339 0.090-0.655 0.195-0.953l-0.008 0.025c0.163-0.308 0.258-0.674 0.258-1.062 0-0.56-0.198-1.073-0.529-1.473l0.003 0.004c-0.954-1.357-1.608-2.991-1.83-4.759l-0.006-0.052c-0.021-0.631-0.469-1.152-1.063-1.286l-0.009-0.002c-0.739-0.253-1.366-0.532-1.964-0.858l0.066 0.033c-0.076-0.050-0.141-0.109-0.197-0.174l-0.001-0.001c0.073-0.066 0.136-0.162 0.224-0.198 0.434-0.209 0.979-0.431 1.54-0.623l0.113-0.033c0.706-0.18 1.232-0.778 1.303-1.507l0.001-0.007c0.322-1.998 1.105-3.771 2.235-5.267l-0.021 0.030c0.145-0.233 0.269-0.503 0.36-0.787l0.008-0.026z"></path>
<path fill="#fff" d="M16.173 18.714c0 1.159 0 2.322 0 3.481 0 0.509 0.121 1.012 0.169 1.522 0.029 0.319 0 0.66-0.426 0.663s-0.47-0.337-0.43-0.657c0.393-2.916 0.088-5.843 0.165-8.762-0.009-0.672-0.079-1.322-0.205-1.953l0.012 0.068c-0.023-0.231-0.217-0.412-0.453-0.412-0.088 0-0.17 0.025-0.239 0.068l0.002-0.001c-0.368 0.198-0.695 1.134-0.463 1.501 0.403 0.638 0.249 1.152-0.177 1.695-0.183 0.288-0.368 0.627-0.531 0.978l-0.023 0.055c-0.094 0.136-0.151 0.303-0.151 0.484 0 0.197 0.067 0.378 0.178 0.522l-0.002-0.002c0.058 0.118 0.092 0.257 0.092 0.403s-0.034 0.286-0.095 0.409l0.002-0.006c-0.368 0.645-0.837 1.24-1.278 1.834-0.079 0.077-0.171 0.141-0.272 0.188l-0.007 0.003c0-0.117-0.051-0.249 0-0.345 0.224-0.488 0.473-0.961 0.709-1.445 0.209-0.429 0.334-0.829-0.205-1.156-0.077-0.098-0.123-0.223-0.123-0.358 0-0.068 0.012-0.132 0.033-0.193l-0.001 0.004c0.214-0.503 0.461-0.937 0.749-1.337l-0.014 0.020c0.345-0.462 0.411-0.895 0-1.291s-0.29-0.752-0.080-1.148c0.368-0.686 0.734-1.375 1.102-2.047 0.209-0.367 0.143-0.503-0.261-0.503h-0.070c-0.419 0-1.068 0.146-1.204-0.052-0.216-0.319-0.107-0.869-0.117-1.324 0-0.55 0-1.1 0-1.647 0-0.129 0.165-0.367 0.249-0.367 1.946 0.026 3.891 0.095 5.838 0.107 0.485 0 0.687 0.066 0.654 0.609-0.051 0.822 0 1.647 0 2.472 0 0.234-0.029 0.444-0.368 0.257-0.111-0.045-0.239-0.073-0.374-0.073-0.026 0-0.051 0.001-0.077 0.003h0.003c-1.047-0.019-1.047 0-0.58 0.924 0.323 0.642 0.654 1.28 0.966 1.926 0.045 0.088 0.073 0.192 0.073 0.302 0 0.246-0.135 0.461-0.335 0.576l-0.003 0.002c-0.5 0.367-0.389 0.733-0.066 1.14 0.232 0.3 0.407 0.649 0.613 0.975s0.503 0.704 0 1.152c-0.18 0.154-0.143 0.671-0.059 0.983 0.202 0.603 0.405 1.098 0.637 1.577l-0.035-0.080c0.031 0.091 0.054 0.198 0.066 0.309l0.001 0.007c-0.105-0.063-0.195-0.134-0.275-0.216-0.433-0.602-0.877-1.195-1.259-1.834-0.066-0.115-0.105-0.253-0.105-0.399 0-0.121 0.026-0.236 0.073-0.339l-0.002 0.005c0.368-0.462 0.249-0.799-0.062-1.214-0.185-0.3-0.379-0.661-0.552-1.033l-0.028-0.067c-0.438-0.766-0.444-0.762 0.143-1.53 0.037-0.043 0.136-0.099 0.132-0.107-0.298-0.524-0.606-1.041-0.911-1.563-0.232 0.246-0.551 0.396-0.561 0.829-0.033 1.427-0.114 2.85-0.173 4.273-0.022 0.396-0.008 0.764-0.008 1.13z"></path>
</svg>
