<!-- Generated by IcoMoon.io -->
<svg version="1.1" xmlns="http://www.w3.org/2000/svg" width="32" height="32" viewBox="0 0 32 32">
<title>bladeborn-rippa</title>
<path fill="#fff" d="M17.119 29.007c0-0.601 0-1.204 0-1.809 0-0.329 0-0.521 0.453-0.586 1.34-0.229 2.539-0.667 3.624-1.288l-0.053 0.028c0.423-0.206 0.787-0.447 1.115-0.729l-0.007 0.006c1.086-1.009 2.209-2 2.915-3.368 0.489-0.951 1.003-1.913 1.086-2.97 0.078-0.713 0.123-1.541 0.123-2.377 0-0.746-0.036-1.484-0.105-2.212l0.007 0.093c-0.186-1.263-0.649-2.392-1.324-3.361l0.016 0.025c-0.8-1.197-1.677-2.362-2.984-3.147-0.909-0.546-1.738-1.212-2.802-1.469-0.568-0.134-1.123-0.361-1.691-0.47-0.25-0.054-0.361-0.119-0.361-0.384 0-1.414 0-2.832 0-4.247 0.017-0.091 0.049-0.172 0.092-0.246l-0.002 0.004c0.044 0.060 0.086 0.129 0.123 0.202l0.004 0.009c0.307 0.759 0.601 1.523 0.919 2.279 0.113 0.279 0.357 0.484 0.654 0.538l0.006 0.001c0.627 0.155 1.156 0.331 1.668 0.543l-0.078-0.029c1.18 0.431 2.2 1.011 3.103 1.731l-0.022-0.016c0.493 0.412 0.938 0.361 1.449 0.221 0.402-0.094 0.796-0.21 1.198-0.286 0.203-0.036 0.362 0.050 0.279 0.307-0.152 0.536-0.319 1.085-0.449 1.613-0.033 0.094-0.052 0.202-0.052 0.314 0 0.229 0.079 0.441 0.213 0.606l-0.002-0.002c0.798 1.026 1.425 2.232 1.809 3.541l0.020 0.077c0.211 0.68 0.311 1.375 0.485 2.055 0.058 0.328 0.29 0.591 0.595 0.693l0.006 0.002c0.768 0.296 1.531 0.607 2.299 0.911 0.17 0.069 0.141 0.167 0.036 0.253-0.498 0.348-1.070 0.64-1.682 0.85l-0.048 0.014c-0.246 0.102-0.482 0.232-0.724 0.315-0.334 0.109-0.42 0.319-0.474 0.662-0.279 1.745-0.85 3.31-1.665 4.718l0.035-0.066c-0.292 0.501-0.591 0.932-0.917 1.337l0.015-0.020c-0.107 0.125-0.171 0.289-0.171 0.467 0 0.074 0.011 0.145 0.031 0.211l-0.001-0.005c0.090 0.398 0.228 0.788 0.315 1.187 0.033 0.214 0.053 0.464 0.058 0.719v0.005c-0.088 0.006-0.192 0.009-0.296 0.009-0.209 0-0.413-0.012-0.615-0.036l0.024 0.002c-0.345-0.076-0.651-0.184-0.936-0.326l0.023 0.011c-0.090-0.044-0.197-0.069-0.309-0.069-0.19 0-0.363 0.073-0.491 0.193-0.676 0.501-1.443 0.98-2.246 1.401l-0.097 0.047c-0.62 0.307-1.343 0.573-2.098 0.759l-0.075 0.016c-0.485 0.137-0.837 0.3-0.981 0.868-0.184 0.701-0.674 1.298-0.833 2.029 0 0.048-0.069 0.090-0.105 0.134-0.043-0.067-0.075-0.145-0.093-0.227l-0.001-0.005c0-0.755 0-1.508 0-2.261z"></path>
<path fill="#fff" d="M14.454 2.916c0 0.662 0 1.324 0 1.986 0 0.268-0.087 0.361-0.362 0.482-0.724 0.319-1.539 0.336-2.288 0.636-0.879 0.396-1.633 0.835-2.335 1.34l0.040-0.027c-1.443 1.002-2.582 2.346-3.314 3.919l-0.025 0.060c-0.649 1.263-1.061 2.745-1.139 4.315l-0.001 0.025c-0.002 0.073-0.003 0.157-0.003 0.242 0 1.477 0.295 2.886 0.829 4.171l-0.026-0.072c0.491 1.304 1.209 2.42 2.117 3.352l-0.002-0.002c1.034 1.068 2.252 1.948 3.607 2.59l0.076 0.032c0.489 0.236 1.056 0.412 1.651 0.499l0.032 0.004c1.148 0.167 1.151 0.159 1.151 1.273s0 2.228 0 3.338c-0.014 0.093-0.043 0.177-0.082 0.254l0.002-0.005c-0.055-0.057-0.104-0.121-0.145-0.191l-0.003-0.005c-0.303-0.524-0.586-1.136-0.812-1.773l-0.024-0.078c-0.092-0.378-0.383-0.669-0.754-0.761l-0.007-0.002c-0.525-0.192-1.064-0.319-1.593-0.521-1.286-0.48-2.392-1.152-3.346-1.992l0.012 0.010c-0.106-0.123-0.262-0.2-0.436-0.2-0.106 0-0.206 0.029-0.291 0.079l0.003-0.002c-0.51 0.221-1.057 0.361-1.589 0.536-0.301 0.094-0.456-0.047-0.362-0.361 0.119-0.394 0.261-0.782 0.401-1.172 0.072-0.16 0.112-0.346 0.112-0.541 0-0.297-0.095-0.571-0.257-0.795l0.003 0.004c-0.853-1.209-1.523-2.618-1.93-4.136l-0.022-0.093c-0.115-0.513-0.232-1.031-0.311-1.552-0.022-0.241-0.186-0.438-0.408-0.505l-0.004-0.001c-0.829-0.361-1.64-0.767-2.455-1.161-0.069-0.036-0.105-0.141-0.156-0.213l0.203-0.098c0.818-0.336 1.639-0.662 2.451-1.013 0.138-0.058 0.319-0.225 0.326-0.362 0.073-1.414 0.576-2.705 1.119-3.979 0.317-0.69 0.688-1.284 1.121-1.826l-0.014 0.018c0.362-0.478 0.608-0.872 0.362-1.527-0.145-0.394-0.188-0.857-0.33-1.277-0.088-0.261 0.036-0.398 0.3-0.361 0.616 0.088 1.165 0.221 1.692 0.399l-0.066-0.020c0.1 0.040 0.216 0.063 0.337 0.063 0.241 0 0.459-0.091 0.623-0.241l-0.001 0.001c0.782-0.478 1.543-0.995 2.357-1.407 0.548-0.279 1.185-0.511 1.851-0.666l0.057-0.011c0.854-0.198 1.050-0.853 1.278-1.538 0.152-0.445 0.362-0.872 0.554-1.302 0-0.043 0.080-0.073 0.119-0.109 0.029 0.054 0.076 0.105 0.076 0.159 0 0.691 0 1.382 0 2.076z"></path>
<path fill="#fff" d="M14.813 10.718c0 0.361 0.058 0.553 0 0.659-0.388 0.564 0.043 0.948 0.296 1.346 0.134 0.213 0.428 0.514 0.587 0.482 0.33-0.065 0.163-0.449 0.159-0.684-0.003-0.038-0.006-0.082-0.006-0.127 0-0.426 0.176-0.812 0.458-1.088 0.34-0.329 0.547-0.676 0.3-1.176-0.050-0.102 0.058-0.34 0.167-0.438 0.037-0.012 0.079-0.018 0.122-0.018 0.104 0 0.198 0.039 0.27 0.103 0.196 0.3 0.663 0.311 0.725 0.724s-0.261 0.572-0.456 0.828c-0.293 0.33-0.472 0.767-0.472 1.246 0 0.3 0.070 0.583 0.195 0.834l-0.005-0.011c0.025 0.054 0.047 0.113 0.069 0.167 0.069-0.048 0.159-0.083 0.196-0.145 0.088-0.155 0.177-0.341 0.253-0.533l0.012-0.032c0.115-0.342 0.404-0.597 0.757-0.664l0.006-0.001c0.552-0.082 0.997-0.465 1.166-0.974l0.003-0.011c0.138-0.361 0.275-0.198 0.413-0.033s0.184 0.3 0.286 0.445c0.074 0.086 0.118 0.198 0.118 0.321 0 0.198-0.116 0.369-0.285 0.448l-0.003 0.001c-0.362 0.21-0.612 0.55-1.086 0.571-0.345 0.021-0.617 0.298-0.63 0.642v0.001c0 0.058 0 0.119 0 0.181-0.036 0.221-0.177 0.597-0.105 0.641 0.322 0.202 0.398-0.217 0.612-0.334 0.341-0.181 0.659-0.398 1.086-0.217 0.143 0.075 0.314 0.119 0.495 0.119 0.409 0 0.765-0.226 0.95-0.559l0.003-0.006c0.156-0.238 0.282-0.021 0.315 0.065 0.253 0.741 0 1.573-0.941 1.447-0.087 0-0.196 0.029-0.268 0-0.909-0.459-1.257 0.311-1.738 0.785-0.029 0.029 0 0.109 0 0.163 0.020 0.002 0.045 0.003 0.069 0.003s0.048-0.001 0.072-0.003h-0.003c0.063-0.014 0.118-0.036 0.17-0.063l-0.004 0.002c0.685-0.361 1.271 0 1.785 0.361 0.25 0.159 0.362 0.217 0.587 0.069 0.101-0.094 0.221-0.169 0.355-0.215l0.007-0.002c0.006 0 0.012 0 0.018 0 0.144 0 0.273 0.060 0.366 0.156 0.045 0.067 0.072 0.15 0.072 0.239 0 0.051-0.009 0.102-0.025 0.147l0.001-0.003c-0.116 0.225-0.243 0.42-0.389 0.6l0.005-0.006c-0.122 0.211-0.345 0.351-0.602 0.351-0.167 0-0.319-0.059-0.438-0.157l0.001 0.001c-0.123-0.087-0.21-0.221-0.33-0.307-0.218-0.162-0.493-0.259-0.79-0.259-0.391 0-0.743 0.168-0.986 0.435l-0.001 0.001c-0.037 0.043-0.072 0.090-0.103 0.141l-0.003 0.005c0.060 0.035 0.131 0.062 0.204 0.078l0.005 0.001c0.539 0.018 0.84 0.361 1.108 0.767 0.337 0.496 0.652 1.010 1.336 1.085 0.050 0 0.148 0.228 0.123 0.261-0.178 0.242-0.391 0.448-0.632 0.613l-0.009 0.006c-0.094 0.035-0.202 0.056-0.315 0.056-0.359 0-0.669-0.206-0.82-0.507l-0.002-0.005c-0.074-0.239-0.145-0.431-0.225-0.618l0.016 0.040c-0.12-0.196-0.275-0.448-0.468-0.507-0.37-0.098-0.814-0.177-1.267-0.222l-0.036-0.003c-0.004 0.020-0.006 0.045-0.006 0.069s0.002 0.048 0.006 0.072v-0.003c0 0 0.061 0 0.079 0.029 0.468 0.528 0.811 1.085 0.656 1.845-0.090 0.438 0.275 0.626 0.493 0.901 0.094 0.119 0.196 0.34 0.144 0.442-0.102 0.135-0.254 0.226-0.427 0.246h-0.003c-0.814 0.115-1.144-0.192-1.159-1.035 0-0.123 0-0.242 0-0.361 0-0.014 0.001-0.032 0.001-0.050 0-0.698-0.45-1.291-1.075-1.505l-0.012-0.003c-0.054-0.021-0.257 0.163-0.246 0.192 0.293 0.724 0.044 1.342-0.297 1.95-0.094 0.114-0.15 0.262-0.15 0.423 0 0.185 0.075 0.354 0.198 0.475 0.261 0.261 0 0.384-0.163 0.445-0.453 0.152-0.724-0.156-0.988-0.455-0.113-0.151-0.181-0.342-0.181-0.548 0-0.167 0.045-0.323 0.122-0.458l-0.002 0.005c0.044-0.075 0.134-0.127 0.177-0.206 0.145-0.25 0.42-0.528 0.362-0.755-0.12-0.461-0.293-0.866-0.515-1.237l0.012 0.021c0 0-0.225 0.048-0.228 0.083-0.058 0.745-0.553 1.129-1.13 1.49-0.355 0.17-0.596 0.526-0.596 0.939 0 0.066 0.006 0.13 0.017 0.193l-0.001-0.007c0.025 0.144-0.069 0.181-0.221 0.134-0.412-0.127-0.709-0.497-0.724-0.939v-0.002c-0.058-0.361 0-0.723 0.459-0.846 0.105-0.029 0.174-0.203 0.275-0.221 0.822-0.152 0.84-0.792 0.88-1.414-0.014-0.152-0.048-0.291-0.098-0.423l0.004 0.011c-0.102 0.084-0.193 0.174-0.277 0.272l-0.003 0.003c-0.18 0.26-0.476 0.427-0.812 0.427-0.041 0-0.083-0.003-0.123-0.008h0.005c-0.579-0.040-1.136 0-1.448 0.636-0.088 0.101-0.216 0.164-0.36 0.164-0.030 0-0.060-0.003-0.088-0.008h0.003c-0.119-0.054-0.192-0.279-0.228-0.442-0.012-0.082-0.020-0.175-0.020-0.27s0.007-0.189 0.020-0.28l-0.001 0.011c0-0.003 0-0.006 0-0.009 0-0.42 0.34-0.76 0.76-0.76 0.016 0 0.030 0 0.046 0.001h-0.002c0.041-0.006 0.088-0.010 0.136-0.010s0.095 0.004 0.141 0.010l-0.005-0.001c0.84 0.207 1.257-0.401 1.716-0.904 0.21-0.225 0.098-0.496-0.192-0.492-0.633 0-1.242 0-1.76-0.478-0.138-0.127-0.46-0.058-0.699-0.073s-0.42 0-0.63 0c-0.21 0-0.278-0.148-0.181-0.304 0.211-0.321 0.422-0.598 0.65-0.86l-0.009 0.010c0.076-0.092 0.19-0.151 0.317-0.151 0.095 0 0.182 0.032 0.252 0.086l-0.001-0.001c0.226 0.133 0.419 0.264 0.602 0.407l-0.012-0.009c0.409 0.33 0.808 0.607 1.366 0.275 0.194-0.080 0.421-0.143 0.656-0.179l0.016-0.002c0.116-0.036 0.362-0.050 0.029-0.188-0.184-0.076-0.33-0.25-0.514-0.34-0.426-0.205-0.746-0.572-0.887-1.019l-0.003-0.011c-0.116-0.442-0.502-0.766-0.968-0.789h-0.003c-0.315-0.021-0.361-0.181-0.152-0.413 0.192-0.225 0.477-0.367 0.794-0.367 0.34 0 0.643 0.162 0.833 0.414l0.002 0.003c0.125 0.183 0.231 0.395 0.307 0.618l0.006 0.018c0.246 0.723 0.916 0.763 1.495 0.941 0.040 0 0.17-0.177 0.211-0.29 0.021-0.058-0.050-0.17-0.109-0.227-0.482-0.47-0.76-0.952-0.442-1.668 0.177-0.398-0.073-0.814-0.362-1.135-0.203-0.221-0.018-0.361 0.13-0.394 0.115-0.053 0.25-0.086 0.392-0.086 0.238 0 0.457 0.088 0.623 0.234l-0.001-0.001c0.112 0.119 0.196 0.266 0.245 0.426l0.002 0.008z"></path>
</svg>
