<!-- Generated by IcoMoon.io -->
<svg version="1.1" xmlns="http://www.w3.org/2000/svg" width="512" height="512" viewBox="0 0 512 512">
<title>bladeborn-hrothgorn</title>
<path fill="#fff" d="M514.048 254.48c-0.8 0.56-1.76 1.136-2.736 1.632l-0.144 0.064c-10.064 4.256-21.072 6.192-29.792 13.632-1.584 1.28-4.752 0.528-6.96 1.28-8.48 1.776-14.912 8.8-15.744 17.472v0.080c-4.64 34.336-18.272 64.832-38.432 89.888l0.288-0.352c-2.512 2.432-4.080 5.824-4.080 9.6 0 1.632 0.288 3.2 0.832 4.656l-0.032-0.096c2.4 7.488 1.456 16.080 6.384 23.392 0.688 1.056 0.352 2.8 0.4 4.256 0 4.512-1.344 5.84-5.856 4.512-7.344-1.344-13.824-3.2-20.016-5.584l0.768 0.256c-2.56-1.344-5.6-2.144-8.832-2.144-5.824 0-11.040 2.592-14.576 6.688l-0.016 0.032c-5.616 5.696-12.432 10.192-20.048 13.088l-0.384 0.128c-7.552 2.864-13.104 8.768-21.952 10.048-11.664 2.672-21.952 6.512-31.52 11.52l0.72-0.336c-2.928 1.376-5.248 3.664-6.64 6.464l-0.032 0.080c-5.216 11.216-9.84 22.752-14.928 34.032-0.528 1.168-2.8 1.52-4.256 2.272-0.464-1.28-1.696-2.864-1.344-3.728 4.096-9.472 1.68-18.416 0-28.080-0.672-6.416-1.040-13.872-1.040-21.424 0-5.28 0.176-10.528 0.544-15.712l-0.048 0.704c0-6.144 5.856-6.192 9.376-7.312 9.024-2.928 18.8-3.792 27.568-7.248 18.976-7.264 35.36-16.592 50.080-27.936l-0.448 0.336c17.392-14.24 32.064-31.024 43.648-49.888l0.496-0.848c2.336-3.648 4.432-7.824 6.048-12.224l0.144-0.448c4.448-12.512 8.784-25.136 12.704-37.84 1.296-4.192 2.096-9.024 2.176-14.064v-0.048c0.352-10.704 0-21.408 0-32.096 0-0.016 0-0.048 0-0.080 0-13.024-2.512-25.488-7.088-36.912l0.224 0.672c-2.976-7.952-3.568-16.592-7.792-24.384-10.88-21.872-24.576-40.56-40.944-56.576l-0.032-0.032c-12.208-11.488-26.24-21.248-41.552-28.8l-0.992-0.448c-13.008-6.688-28.192-11.2-44.256-12.592l-0.464-0.032c-4.32 0-5.856-1.984-6.272-5.84s-2.512-6.368-2.512-9.6c0-18.48 0-37.008 0-55.488 0.464-1.856 1.2-3.504 2.144-4.976l-0.032 0.064c1.648 1.344 3.984 2.336 4.752 4.032 4.384 10 8.656 20.112 12.512 30.352 2.48 6.32 8.176 10.88 15.024 11.68l0.096 0.016c25.936 6.048 48.608 17.424 67.744 32.992l-0.32-0.224c9.648 7.664 19.488 11.344 31.664 4.736 5.088-2.032 11.024-3.568 17.2-4.352l0.352-0.032c4.32 5.84-0.528 10.992-1.52 16.368-1.088 4.624-2.496 8.672-4.256 12.512l0.176-0.4c-1.088 2.064-1.728 4.496-1.728 7.088 0 4.032 1.536 7.696 4.064 10.464l-0.016-0.016c10.896 13.488 19.648 29.232 25.456 46.368l0.304 1.072c5.232 12.304 9.328 26.64 11.568 41.568l0.128 1.008c0.592 6.512 5.024 11.856 11.008 13.76l0.112 0.032c13.408 4.976 26.576 10.656 39.792 16.032 0.288 0.128 1.408 0.832 3.104 1.344z"></path>
<path fill="#fff" d="M230.976 503.936c-1.92-0.928-3.168-1.232-3.216-1.584-1.056-13.984-11.232-24.208-15.088-37.008 0-0.4 0-1.12 0-1.408-1.824-1.984-3.344-4.976-5.856-5.84-12.064-4.256-24.64-7.184-36.352-12.272-12.416-5.12-23.104-11.12-32.944-18.208l0.464 0.32c-20.72-15.376-20.304-15.84-44.896-8.304-3.456 1.056-8.656 3.104-10.432 1.584-3.456-3.040-1.52-7.776 0.464-11.712 1.12-2.512 0-6.144 1.408-8.416 7.2-12.336 2.336-23.392-4.688-32.8-11.152-16.192-20.176-34.944-26.048-55.040l-0.352-1.376c-2.048-6.448-3.616-14.032-4.4-21.84l-0.048-0.496c-1.344-10.816-4.512-15.904-14.928-18.128s-19.6-8.944-29.264-13.68c-1.696-0.88-3.216-1.984-4.8-2.928 1.488-1.808 3.216-3.344 5.12-4.624l0.096-0.048c5.84-2.864 12.288-5.152 18.384-7.952 8.144-3.504 14.816-6.896 21.28-10.624l-0.944 0.512c2.576-1.84 4.336-4.656 4.8-7.888v-0.064c2.912-20 8-38 15.168-54.96l-0.544 1.456c6.432-16.368 17.104-29.76 26.4-44.096 1.376-1.792 2.224-4.096 2.224-6.576 0-1.872-0.48-3.648-1.296-5.184l0.032 0.064c-2.592-6.928-4.864-15.2-6.416-23.744l-0.144-0.928c-1.12-5.2 0.768-6.368 6.432-4.912 4.16 0.992 8.256 2.176 12.416 3.264 17.568 4.784 23.408 3.632 37.936-7.6 14.064-11.104 30.88-19.344 49.264-23.568l0.848-0.176c2.16-0.672 3.92-1.344 5.632-2.112l-0.304 0.128c15.456-4.912 15.392-4.912 21.2-19.008 2.688-6.608 5.552-13.168 8.32-19.76 1.12-2.576 2.176-5.152 3.216-7.712 0.592 2.624 1.056 5.312 1.808 7.888 3.696 12.736-1.92 25.44 0 38.128 0.88 6.144 1.344 12.336 2.176 18.48 0.080 0.448 0.112 0.96 0.112 1.488 0 4.768-3.456 8.752-8.016 9.568l-0.064 0.016c-7.088 1.056-14.16 1.936-21.264 3.040-2.016 0.208-3.856 0.768-5.536 1.632l0.096-0.048c-13.936 7.248-28.4 13.632-41.568 22.096-21.488 14.176-38.928 32.8-51.344 54.656l-0.416 0.784c-4.496 7.776-9.248 15.44-13.232 23.392-1.744 3.888-3.136 8.448-4.032 13.168l-0.064 0.384c-0.464 1.888 0.4 4.16-0.352 5.84-10 22.272-5.856 45.92-4.912 68.768 0.656 15.072 4.624 29.056 11.2 41.456l-0.256-0.528c7.136 14.080 12.416 29.232 23.408 40.944 10.24 11.856 20.768 22.64 31.904 32.768l0.288 0.256c9.088 7.6 19.344 14.32 30.352 19.76l0.896 0.4c7.968 3.504 17.472 6.656 27.28 8.96l1.152 0.24c4.496 1.344 9.248 1.984 13.936 3.104 10.544 2.448 13.568 8.88 11.056 16.784-4.16 12.928-1.92 25.904-2.336 38.896 0 4.56 2.288 9.232 2.512 13.92-0.576 3.392-1.6 6.448-3.008 9.248l0.080-0.176z"></path>
<path fill="#fff" d="M250.944 242.832c4.848 1.648 8.944 2.704 12.88 4.32 7.488 3.104 14.928 6.432 22.256 9.888s16.208 7.84 24.112 12.208c9.472 5.264 18.72 10.992 27.968 16.656 2.752 1.744 4.224 4.032 0.832 6.72-0.768 0.64-1.408 1.344-2.112 2.048-10.304 10.816-10.176 10.64-22.816 0.88-3.888-2.944-8.288-5.68-12.912-8.032l-0.48-0.208c-14.8-7.6-29.792-14.912-44.656-22.464-1.344-1.104-3.104-1.776-5.008-1.776-1.504 0-2.912 0.416-4.112 1.152l0.032-0.016c-16.512 9.232-33.184 18.176-50.16 26.624-5.216 2.624-4.032 4.736-0.992 7.184 7.888 6.192 16.048 12.048 24.064 18.080 4.224 3.168 8.32 6.432 12.416 9.696 8.256 6.736 12.176 7.136 20.672 1.872 3.392-2.4 7.376-4.928 11.488-7.232l0.688-0.352c4.464-2.176 2.928-4.56 0.528-6.432-3.392-2.576-7.2-5.104-11.184-7.376l-0.528-0.288c-3.744-2.176-7.792-3.744-11.712-5.84-10.128-5.84-9.136-5.84-0.704-13.92s15.104-2.928 20.896 0.288c12.88 7.2 24.704 16.256 36.992 24.512 1.168 0.816 2.224 1.936 3.456 2.64 2.224 1.344 5.856 2.048 6.56 3.92 1.872 4.384-1.872 7.264-4.864 9.536-14.752 11.168-30.144 21.472-44.256 33.328-2.144 2.288-5.184 3.712-8.544 3.712-3.232 0-6.144-1.296-8.256-3.408-19.088-13.52-37.808-27.536-56.656-41.392-3.712-3.488-7.904-6.544-12.448-9.024l-0.32-0.16c-9.536-3.392-7.888-10.688-8.128-17.888s4.624-10.88 10.592-13.792c20.080-9.936 40.048-20.224 60.112-30.176 3.68-1.68 8.432-3.536 13.296-5.152l1.056-0.288z"></path>
<path fill="#fff" d="M168.112 229.744c1.168-4.64 2.368-8.416 3.776-12.112l-0.24 0.768c3.888-9.248 7.92-18.4 12.048-27.488 1.168-2.272 2.688-4.208 4.48-5.824l0.016-0.016c3.856-3.568 7.968-6.96 11.712-10.464 0.736 4.576 1.232 9.936 1.344 15.376v0.128c-0.016 0.576-0.032 1.232-0.032 1.92 0 10.896 2.304 21.248 6.48 30.608l-0.192-0.48c0.896 2.224 1.424 4.816 1.424 7.52 0 4.192-1.264 8.080-3.408 11.328l0.048-0.080c-3.136 4.192-6.032 8.912-8.48 13.92l-0.224 0.528c-2.336 6.592-6.56 6.144-13.472 2.576-11.232-5.6-13.52-15.664-15.28-28.176z"></path>
<path fill="#fff" d="M254.16 161.552c-4.4 7.952-2.4 17.552-2.88 26.32-0.176 1.616-0.272 3.472-0.272 5.344 0 7.68 1.664 15.008 4.624 21.6l-0.144-0.32c1.136 1.568 1.824 3.52 1.824 5.632 0 3.872-2.272 7.232-5.552 8.768l-0.064 0.032c-1.824 1.472-3.472 2.944-5.024 4.496-3.216 2.448-8.432 7.36-9.664 6.56-6.784-4.832-12.736-10.016-18.144-15.68l-0.048-0.048c-0.816-0.816 0-3.68 0.592-5.44 3.568-12.736 6.384-25.792 11.12-38.064 4.56-9.968 9.488-18.496 15.104-26.496l-0.336 0.528c0.928-1.52 4.4-3.168 5.392-2.512s2.512 3.68 3.456 5.84c0.112 0.576 0.176 1.232 0.176 1.904 0 0.544-0.048 1.072-0.112 1.6v-0.064z"></path>
<path fill="#fff" d="M289.568 225.424c-1.344 5.84-2.336 11.696-4.16 17.536-0.496 2.336-2.544 4.064-4.976 4.064-1.712 0-3.216-0.832-4.128-2.112l-0.016-0.016c-7.488-9.008-13.168-18.48-9.248-31.232 1.536-6.080 2.976-13.696 3.952-21.456l0.112-0.992c0.656-4.688 1.696-8.88 3.12-12.912l-0.144 0.448c1.456-3.68 4.448-10.112 5.856-9.888 6.272 0.928 3.344 6.96 3.216 10.592 0 0.32 0 0.688 0 1.088 0 12.736 1.952 25.024 5.568 36.576l-0.224-0.864c0.576 2.688 0.96 5.84 1.104 9.056z"></path>
<path fill="#fff" d="M321.648 240.208c-0.816 2.976-1.936 8.080-3.456 13.040-1.12 3.456-3.040 3.040-5.856 0.352-10.656-9.472-12.112-21.344-12.352-35.088 0.4-13.040 4.256-25.088 10.704-35.392l-0.176 0.288c0.592-1.168 2.176-1.744 3.344-2.624 0.64 1.584 1.408 3.040 1.936 4.624 0.064 0.432 0.096 0.944 0.096 1.456s-0.032 1.024-0.096 1.52v-0.064c-0.192 2.448-0.304 5.312-0.304 8.192 0 12.736 2.144 24.992 6.096 36.368l-0.224-0.768c0.256 1.616 0.384 3.488 0.384 5.392 0 0.944-0.032 1.872-0.112 2.8v-0.128z"></path>
</svg>
