<!-- Generated by IcoMoon.io -->
<svg version="1.1" xmlns="http://www.w3.org/2000/svg" width="512" height="512" viewBox="0 0 512 512">
<title>bladeborn-elathain</title>
<path fill="#fff" d="M232.656 26.048c0 14.832-0.4 29.648 0 44.48 0.304 6.656-0.688 10.048-8.112 11.68-14.016 3.296-25.824 7.040-37.28 11.504l1.872-0.656c-35.68 14.112-64.592 38.944-83.424 70.512l-0.416 0.768c-14.432 22.944-20.208 47.696-23.36 74.208-3.104 24.576 1.68 47.632 7.712 70.464 7.088 22.944 18.944 42.64 34.464 58.768l-0.048-0.048c22.88 26.208 53.264 45.344 87.792 54.144l1.2 0.272c6.848 1.744 16.544 2.208 19.456 6.768 3.568 5.84 1.76 14.944 1.856 22.656 0 15.76 0 31.52 0 47.28-0.256 1.968-0.72 3.728-1.328 5.424l0.064-0.176c-1.44-1.344-2.688-2.88-3.68-4.576l-0.048-0.096c-4.96-11.264-9.232-22.944-14.896-33.856-2.528-4.4-6.464-7.744-11.184-9.472l-0.144-0.048c-24.288-8.288-44.928-17.536-64.56-28.416l2.032 1.040c-3.248-2.368-6.112-4.832-8.752-7.52l-0.016-0.016c-6.656-5.088-12.912-10.8-22.736-6.72-4.8 1.472-10.512 2.64-16.384 3.28l-0.432 0.048c-11.68 2.624-11.68 2.688-8.832-9.456 1.088-4.832 2.352-8.96 3.888-12.928l-0.224 0.624c1.040-2.608 1.632-5.632 1.632-8.784 0-5.712-1.952-10.976-5.232-15.152l0.048 0.048c-15.024-24.864-29.216-50.432-32.432-80.32 0-0.144 0-0.288 0-0.448 0-11.28-8.032-20.704-18.672-22.88l-0.16-0.032c-11.392-3.552-21.088-7.52-30.336-12.176l1.12 0.512c-3.344-1.456-4.368-3.376 0-5.264 6.832-3.664 15.024-7.312 23.52-10.416l1.376-0.432c15.024-4.032 20.624-13.84 23.376-28.192 4.448-29.424 16.336-55.456 33.664-76.96l-0.24 0.32c10.352-12.368 5.2-24.224 3.92-36.656 0-2.736-2.048-5.424-2.288-8.176-0.592-5.84 0.528-10.048 7.776-5.424 1.456 0.992 3.744 0.704 5.488 1.456 4.656 2.352 10.144 3.744 15.936 3.744 9.152 0 17.472-3.408 23.824-9.024l-0.032 0.032c17.52-13.392 38.464-23.232 61.264-28.064l1.008-0.192c6.848-0.784 12.272-5.984 13.424-12.624l0.016-0.096c3.408-10.592 7.376-19.664 12.112-28.256l-0.416 0.832c0.528-1.232 1.984-2.048 3.040-3.040 0.432 0.896 0.848 1.952 1.2 3.056l0.032 0.16c0.832 4.096 1.456 8.224 2.224 12.368z"></path>
<path fill="#fff" d="M275.84 464.48c0-9.744 0.4-19.504 0-29.184-0.064-0.4-0.096-0.864-0.096-1.344 0-5.104 4.016-9.264 9.072-9.504h0.016c23.52-3.776 44.528-12.288 62.784-24.576l-0.56 0.352c10.352-7.36 18.992-17.152 29.216-24.752 17.536-12.72 26.64-31.392 35.632-49.44 7.648-15.056 13.072-32.528 15.296-51.024l0.080-0.768c0.816-6.176 1.264-13.328 1.264-20.592 0-24.208-5.088-47.232-14.24-68.048l0.416 1.088c-16.192-36.352-42.8-65.648-76.016-84.752l-0.88-0.464c-15.824-9.152-34.256-15.952-53.872-19.36l-0.992-0.144c-4.336-0.816-7.312-1.232-7.248-6.544 0-21.424 0-42.784 0-64.224 0.256-1.232 0.72-2.288 1.36-3.232l-0.016 0.032c1.056 0.928 2.512 1.632 3.104 2.8 4 7.376 7.792 16.112 10.864 25.152l0.352 1.232c2.192 8.512 9.152 14.944 17.808 16.32l0.128 0.016c21.344 5.888 40.048 14.32 57.024 25.184l-0.832-0.496c3.568 2.016 6.64 4.176 9.52 6.56l-0.096-0.080c5.376 5.856 13.056 9.536 21.6 9.536 4.592 0 8.944-1.056 12.816-2.944l-0.176 0.080c4.288-1.68 9.664-3.344 15.168-4.72l0.944-0.208c-0.528 5.84-0.864 11.968-1.68 17.92-0.624 2.544-1.472 4.784-2.592 6.864l0.080-0.144c-1.296 2.768-2.064 6.016-2.064 9.424 0 5.92 2.272 11.296 5.984 15.328l-0.016-0.016c17.28 23.184 29.296 51.28 33.712 81.856l0.112 0.976c0.72 8.432 6.16 15.424 13.632 18.4l0.144 0.048c11.344 4.848 22.608 9.92 33.952 14.832 1.232 0.384 2.656 0.688 4.128 0.8h0.080c-1.2 0.768-2.608 1.6-4.064 2.32l-0.256 0.128c-11.344 4.784-22.608 9.744-34.080 14.176-7.040 2.16-12.24 8.192-13.136 15.552l-0.016 0.096c-4.256 32.576-16.080 61.776-33.648 86.64l0.4-0.608c-10.464 15.296-8.176 27.904-4.368 42.608 0.704 2.624 1.056 5.312 1.52 8-3.040 0-5.856-0.288-9.056-0.624-2.112-0.080-4.112-0.496-5.968-1.216l0.128 0.048c-14.544-7.072-26.24-4.56-38.912 6.352-15.6 13.36-35.696 20.144-55.28 25.52-14.176 3.344-24.992 14.752-27.424 28.976l-0.032 0.208c0 0.864 0 2.112 0 2.864-2.864 4.848-5.84 9.584-8.88 14.352-0.624-4.848-1.52-9.632-1.744-14.48-0.4-6.608-0.176-12.896-0.128-19.2z"></path>
<path fill="#fff" d="M253.12 369.968c-25.248 5.84-48.496-4.624-70.768-15.824-8.624-5.568-15.536-13.088-20.192-21.968l-0.16-0.32c-4.32-7.072 0.992-14.768 5.856-20.32 11.152-13.408 25.456-23.84 41.792-30.224l0.688-0.24c15.84-5.424 32.368-7.296 48.144-12.032 18.176-5.424 36.688-10.336 52.176-22.704 5.44-3.568 8.992-9.632 8.992-16.528 0-0.56-0.016-1.104-0.064-1.648v0.080c-0.304-8.096-5.872-14.8-13.376-16.832l-0.128-0.032c-20.048-6.128-40.896-11.68-61.776-9.584-16.416 1.68-33.12 4.192-47.376 14.080-9.456 6.544-9.872 12.32 0 17.52 7.712 4.288 16.672 7.504 26.192 9.136l0.512 0.080c5.568 0.464 12.064 0.736 18.608 0.736 4.736 0 9.44-0.144 14.112-0.416l-0.64 0.032c5.856 0 10.576-1.52 10.816-8.64 0.048-0.352 0.064-0.768 0.064-1.184 0-5.76-4.432-10.448-10.080-10.88h-0.032c-7.056 0.144-13.84 1.024-20.368 2.528l0.672-0.128c-1.76-0.064-3.408-0.4-4.976-0.976l0.112 0.032c0.64-1.696 0.816-4.032 2.048-4.96 5.936-5.088 13.728-8.176 22.24-8.176 11.312 0 21.344 5.472 27.6 13.92l0.064 0.096c6.368 8.624 1.744 25.328-8.064 31.872-9.744 6.368-21.664 10.144-34.48 10.144-4.384 0-8.656-0.448-12.8-1.28l0.4 0.080c-14.56-2.816-27.424-6.848-39.6-12.144l1.2 0.464c-11.568-4.112-20.96-11.968-26.912-22.064l-0.128-0.224c-3.504-6.416-4.192-11.664 1.408-16.352 7.408-7.024 15.84-13.072 25.040-17.856l0.624-0.288c19.344-7.824 17.008-6.656 13.792-27.264 0-0.864-1.28-1.68-1.28-2.512 0-2.736 0.368-5.488 0.528-8.224 1.456 1.808 2.8 3.728 4.32 5.424 4.192 5.056 8.464 9.6 12.976 13.888l0.064 0.064c2.512 2.528 5.984 4.080 9.824 4.080 6.64 0 12.176-4.656 13.536-10.88l0.016-0.096c2.288-6.768 3.568-13.84 5.376-20.72 0.864-3.696 1.888-6.848 3.136-9.904l-0.16 0.432c0.4-1.056 1.92-1.632 2.976-2.384 0.688 0.992 1.28 2.128 1.776 3.328l0.048 0.128c1.12 5.088 2.224 10.224 3.040 15.408 2.224 13.664 9.056 23.344 17.008 24.112s19.744-8.4 24.784-19.328c0-0.4 0-1.168 0-1.392 1.28-1.28 2.624-2.448 3.968-3.616 0.416 1.488 0.672 3.216 0.672 4.976 0 0.32 0 0.608-0.016 0.912v-0.048c-1.104 6.928-2.56 12.992-4.448 18.848l0.256-0.88c-2.624 7.248 0 10.288 6.72 12.736 12.496 3.856 23.088 10.736 31.328 19.792l0.048 0.064c9.104 10.688 8.704 16.528 0.992 28.192-17.824 26.496-45.28 35.6-74.208 41.152-22.72 4.4-42.816 10.784-61.84 19.168l1.824-0.736c-6.48 3.6-11.808 8.592-15.664 14.608l-0.112 0.176c-1.344 2.464-2.128 5.408-2.128 8.528 0 7.152 4.144 13.328 10.144 16.288l0.112 0.048c16.032 7.808 34.912 12.368 54.848 12.368 20.448 0 39.776-4.8 56.912-13.344l-0.736 0.336c9.872-4.56 11.12-13.424 1.824-18.048-8.992-4.544-19.424-7.968-30.416-9.712l-0.624-0.080c-10.048-1.52-20.8-5.84-30.8 0-3.984 2.976-7.456 6.304-10.48 10l-0.080 0.112c3.616 3.504 6.944 9.52 10.912 9.984 7.488-0.096 14.688-1.2 21.488-3.184l-0.576 0.144c0.752-0.064 1.648-0.096 2.544-0.096s1.776 0.032 2.656 0.096h-0.128c-0.608 1.888-1.36 3.536-2.32 5.056l0.048-0.096c-2.816 4.448-7.728 7.376-13.328 7.376-0.528 0-1.072-0.032-1.584-0.080h0.064c-2.176-0.144-4.72-0.24-7.28-0.24s-5.104 0.096-7.616 0.256l0.336-0.016c-11.408-0.208-21.088-7.328-25.056-17.328l-0.064-0.192c-1.856-7.12 5.088-20.832 13.728-25.152 19.632-9.68 39.84-13.424 61.12-4.896 5.856 2.448 13.376 2.624 19.168 5.84 10 4.8 18.64 10.4 26.432 16.96l-0.192-0.144c10.992 9.856 9.456 22-2.736 30.4-25.184 16.528-52.416 27.2-84.896 22.416z"></path>
</svg>
