<!-- Generated by IcoMoon.io -->
<svg version="1.1" xmlns="http://www.w3.org/2000/svg" width="32" height="32" viewBox="0 0 32 32">
<title>bladeborn-zarbag</title>
<path fill="#fff" d="M21.834 16.016c-0.015 0.205-0.025 0.446-0.025 0.687s0.009 0.482 0.027 0.719l-0.002-0.032c0.009 0.080 0.015 0.174 0.015 0.269 0 0.67-0.257 1.282-0.678 1.74l0.002-0.002c-0.563 0.673-1.088 1.423-1.548 2.216l-0.041 0.078c-0.201 0.338-0.54 0.575-0.939 0.634l-0.007 0.001c-1.229 0.25-2.465 0.474-3.679 0.698-0.018 0.002-0.041 0.003-0.062 0.003-0.1 0-0.193-0.024-0.275-0.068l0.003 0.002c-0.318-0.152-0.577-0.295-0.828-0.451l0.037 0.021c-0.662-0.4-1.313-0.82-1.975-1.22-0.736-0.441-1.321-0.952-1.28-1.926-0.039-0.321-0.118-0.613-0.232-0.886l0.007 0.022c-0.018-0.070-0.029-0.195 0-0.213 0.046-0.030 0.102-0.047 0.162-0.047 0.033 0 0.064 0.005 0.094 0.014l-0.002-0.001c0.257 0.119 0.479 0.262 0.677 0.433l-0.004-0.003c0.329 0.311 0.774 0.502 1.262 0.502 0.086 0 0.171-0.006 0.255-0.017l-0.010 0.001c0.069-0.012 0.147-0.018 0.228-0.018s0.16 0.007 0.237 0.020l-0.009-0.001c0.736 0.158 1.167-0.302 1.497-0.816s0.493-1.029 0.912-1.448c0.045-0.047 0.073-0.111 0.073-0.18 0-0.145-0.117-0.261-0.261-0.261-0.006 0-0.013 0-0.018 0.001h0.001c-0.276-0.018-0.552 0-0.828 0-0.113-0.023-0.214-0.062-0.307-0.113l0.006 0.003c0.030-0.127 0.079-0.238 0.143-0.339l-0.003 0.005c0.402-0.437 0.806-0.875 1.233-1.291 0.18-0.172 0.166-0.264 0-0.426-0.496-0.459-0.964-0.955-1.472-1.4-0.148-0.156-0.357-0.254-0.589-0.254-0.112 0-0.22 0.023-0.318 0.065l0.005-0.002c-0.594 0.206-1.348 0.412-2.118 0.573l-0.13 0.023c-0.017 0.004-0.037 0.006-0.057 0.006-0.069 0-0.131-0.026-0.178-0.069-0.018-0.035-0.028-0.076-0.028-0.119s0.011-0.084 0.028-0.121l-0.001 0.002c0.5-0.893 1.015-1.775 1.512-2.668 0.111-0.191 0.195-0.367 0.463-0.338 0.806 0.088 1.523-0.309 2.295-0.418 0.997-0.119 1.89-0.302 2.755-0.551l-0.121 0.030c0.736-0.232 1.030-0.059 1.38 0.625 0.51 1.086 1.145 2.020 1.905 2.837l-0.007-0.007c0.82 0.812 0.839 1.691 0.816 2.668-0.008 0.264 0 0.541 0 0.812zM18.663 13.73c-0.095-0.009-0.207-0.013-0.318-0.013s-0.223 0.005-0.333 0.014l0.014-0.001c-0.527 0.092-1.203 0.125-1.409 0.611-0.166 0.367 0.335 0.823 0.574 1.223 0.039 0.048 0.079 0.092 0.124 0.132l0.001 0.001c0.114 0.147 0.221 0.151 0.368 0 0.537-0.611 1.081-1.209 1.614-1.82 0-0.018-0.045-0.147-0.073-0.151-0.199-0.004-0.383 0.004-0.563 0.004zM18.846 18.876l-0.074-0.496c-0.177 0.162-0.368 0.312-0.527 0.489s-0.169 0.32-0.287 0.445c-0.118 0.125-0.096 0.228 0.019 0.367 0.104 0.158 0.28 0.261 0.481 0.261 0.085 0 0.167-0.018 0.241-0.052l-0.004 0.002c0.114-0.062 0.111-0.367 0.147-0.551 0.007-0.077 0.011-0.165 0.011-0.255 0-0.072-0.003-0.143-0.008-0.214l0.001 0.010zM16.271 18.184l-0.099-0.526c-0.144 0.184-0.291 0.367-0.438 0.547-0.102 0.109-0.194 0.229-0.274 0.357l-0.006 0.010c-0.084 0.166-0.117 0.367 0.117 0.441s0.39 0.111 0.585 0.166c0.037-0.168 0.080-0.334 0.111-0.504 0.008-0.092 0.012-0.199 0.012-0.306 0-0.064-0.002-0.128-0.005-0.192v0.009zM17.238 17.766c-0.055 0.051-0.151 0.096-0.169 0.158-0.010 0.055-0.016 0.119-0.016 0.184s0.006 0.129 0.017 0.19l-0.001-0.007c0.026 0.287 0.070 0.577 0.103 0.864 0.471-0.022 0.398-0.559 0.699-0.735 0.033 0 0-0.242-0.059-0.297-0.164-0.12-0.35-0.238-0.545-0.341l-0.025-0.012z"></path>
<path fill="#fff" d="M17.195 29.144c0-0.672 0-1.346 0-2.018 0-0.25 0.070-0.367 0.368-0.419 0.507-0.070 0.951-0.163 1.384-0.285l-0.071 0.018c1.723-0.478 3.209-1.332 4.42-2.474l-0.005 0.005c0.845-0.806 1.587-1.707 2.217-2.687l0.035-0.058c0.082-0.115 0.152-0.248 0.205-0.388l0.004-0.013c0.291-0.879 0.578-1.756 0.85-2.643 0.079-0.234 0.129-0.505 0.139-0.785v-0.005c0-0.857 0-1.713 0-2.573-0.003-0.694-0.143-1.354-0.392-1.957l0.013 0.035c-0.114-0.305-0.213-0.614-0.316-0.926-0.465-1.369-1.202-2.54-2.153-3.499l0.001 0.001c-0.818-0.841-1.76-1.555-2.798-2.116l-0.061-0.030c-1.081-0.577-2.244-0.797-3.352-1.235-0.127-0.051-0.229-0.144-0.289-0.261l-0.002-0.003c-0.1-0.23-0.167-0.496-0.187-0.775v-0.008c-0.022-1.036 0-2.076 0-3.116-0.003-0.023-0.004-0.050-0.004-0.077 0-0.069 0.010-0.136 0.027-0.2l-0.001 0.005c0.043-0.069 0.109-0.122 0.185-0.15l0.003-0.001c0.005-0.001 0.011-0.001 0.017-0.001 0.055 0 0.104 0.026 0.135 0.067 0.121 0.202 0.244 0.444 0.352 0.694l0.015 0.041c0.217 0.529 0.394 1.070 0.622 1.588 0.087 0.151 0.223 0.266 0.385 0.325l0.005 0.002c0.453 0.151 0.923 0.246 1.38 0.389 1.101 0.364 2.057 0.863 2.913 1.49l-0.029-0.021c0.245 0.153 0.458 0.312 0.656 0.486l-0.005-0.005c0.441 0.455 0.931 0.434 1.471 0.242 0.329-0.117 0.734-0.228 1.149-0.31l0.058-0.009c0.062 0 0.236 0.172 0.243 0.279 0.002 0.038 0.003 0.082 0.003 0.127 0 0.496-0.137 0.96-0.377 1.355l0.007-0.012c-0.258 0.478-0.243 0.541 0.062 0.959 0.614 0.81 1.147 1.733 1.558 2.721l0.031 0.083c0.356 0.829 0.621 1.792 0.749 2.798l0.006 0.054c0.018 0.497 0.364 0.909 0.827 1.028l0.008 0.002c0.839 0.231 1.545 0.827 2.446 0.875 0.045 0 0.084 0.063 0.129 0.096-0.039 0.041-0.084 0.077-0.133 0.108l-0.003 0.002c-0.609 0.373-1.31 0.695-2.051 0.929l-0.068 0.018c-0.651 0.149-1.137 0.7-1.184 1.373v0.005c-0.265 2.003-1.054 3.786-2.224 5.252l0.017-0.021c-0.563 0.705-0.39 1.291-0.236 1.97 0.023 0.088 0.078 0.166 0.103 0.254 0.073 0.268 0.139 0.541 0.209 0.812-0.135 0.011-0.292 0.016-0.451 0.016s-0.316-0.006-0.471-0.017l0.020 0.001c-0.266-0.073-0.491-0.154-0.707-0.251l0.030 0.012c-0.137-0.048-0.296-0.077-0.461-0.077-0.305 0-0.588 0.096-0.82 0.26l0.005-0.003c-0.928 0.637-1.989 1.219-3.107 1.693l-0.12 0.046c-0.371 0.163-0.805 0.291-1.255 0.363l-0.031 0.004c-0.372 0.031-0.676 0.289-0.775 0.634l-0.002 0.006c-0.261 0.662-0.559 1.312-0.843 1.966-0.036 0.092-0.077 0.171-0.124 0.244l0.003-0.005c-0.033 0.041-0.082 0.067-0.139 0.067-0.005 0-0.009 0-0.013-0.001h0.001c-0.074-0.029-0.169-0.088-0.184-0.151-0.018-0.104-0.029-0.223-0.029-0.345 0-0.039 0.001-0.078 0.003-0.116v0.006c0-0.58 0-1.162 0-1.742z"></path>
<path fill="#fff" d="M5.025 26.178c0.055-0.198 0.117-0.397 0.166-0.598 0.084-0.367 0.14-0.768 0.254-1.136 0.033-0.090 0.052-0.194 0.052-0.302 0-0.225-0.082-0.43-0.219-0.588l0.001 0.001c-0.733-0.952-1.321-2.061-1.705-3.261l-0.021-0.077c-0.232-0.801-0.349-1.631-0.526-2.448-0.016-0.146-0.083-0.274-0.183-0.367-0.412-0.239-0.839-0.448-1.273-0.65-0.508-0.239-1.034-0.452-1.542-0.698-0.026-0.048-0.041-0.104-0.041-0.163 0-0.045 0.009-0.087 0.024-0.126l-0.001 0.002c0.157-0.087 0.345-0.175 0.54-0.247l0.030-0.009c0.681-0.298 1.353-0.617 2.045-0.893 0.243-0.087 0.413-0.315 0.413-0.582 0-0.014 0-0.027-0.001-0.041v0.002c0.089-1.144 0.391-2.198 0.865-3.151l-0.022 0.049c0.147-0.293 0.213-0.629 0.368-0.911 0.435-0.766 0.852-1.409 1.303-2.025l-0.041 0.059c0.133-0.133 0.215-0.317 0.215-0.519 0-0.135-0.036-0.261-0.1-0.369l0.002 0.004c-0.171-0.423-0.309-0.918-0.389-1.432l-0.005-0.038c-0.070-0.338 0.052-0.418 0.394-0.338 0.578 0.139 1.155 0.293 1.739 0.408 0.030 0.005 0.065 0.007 0.1 0.007 0.146 0 0.281-0.043 0.396-0.115l-0.003 0.002c0.714-0.441 1.394-0.945 2.123-1.352 0.45-0.229 1-0.461 1.565-0.658l0.097-0.029c0.15-0.072 0.323-0.126 0.505-0.153l0.010-0.001c0.905-0.080 1.284-0.691 1.542-1.47 0.151-0.455 0.367-0.889 0.548-1.33 0.022-0.048 0.080-0.078 0.121-0.117 0.029 0.055 0.084 0.106 0.080 0.158-0.033 0.434 0.397 0.856 0.026 1.293 0.051 0.812-0.154 1.635 0.121 2.444 0.129 0.367 0.029 0.537-0.386 0.668-0.486 0.151-0.99 0.236-1.472 0.367-0.48 0.13-0.897 0.295-1.29 0.498l0.035-0.017c-1.081 0.596-2.207 1.158-3.031 2.102-0.137 0.167-0.286 0.315-0.447 0.448l-0.006 0.005c-0.843 0.639-1.317 1.573-1.839 2.436-0.441 0.736-0.618 1.654-0.89 2.496-0.32 1.007-0.143 2.051-0.191 3.076-0.002 0.065-0.003 0.142-0.003 0.22 0 1.191 0.282 2.315 0.785 3.31l-0.020-0.043c0.312 0.68 0.651 1.348 1.026 1.996 0.423 0.737 0.967 1.355 1.612 1.848l0.015 0.011c0.65 0.481 1.21 1.102 1.932 1.496 0.968 0.526 1.938 1.073 3.076 1.176 0.011 0 0.022-0.001 0.034-0.001 0.083 0 0.164 0.011 0.24 0.032l-0.007-0.002c0.82 0.367 0.894 0.092 0.861 1.102-0.022 0.691 0.111 1.389-0.151 2.080-0.078 0.205 0.114 0.511 0.151 0.775 0.088 0.602-0.080 1.070-0.187 0.955-0.166-0.209-0.3-0.454-0.389-0.718l-0.005-0.017c-0.258-0.603-0.486-1.217-0.773-1.801-0.078-0.158-0.32-0.25-0.504-0.33-0.552-0.236-1.166-0.199-1.721-0.492-1.218-0.643-2.506-1.165-3.539-2.113-0.158-0.143-0.273-0.125-0.478-0.055-0.533 0.191-1.103 0.276-1.633 0.471-0.273 0.139-0.353 0.099-0.379-0.209z"></path>
</svg>
