<!-- Generated by IcoMoon.io -->
<svg version="1.1" xmlns="http://www.w3.org/2000/svg" width="32" height="32" viewBox="0 0 32 32">
<title>bladeborn-myari</title>
<path fill="#fff" d="M14.755 28.052c-0.077 0.444-0.18 0.883-0.224 1.331-0.001 0.038-0.002 0.082-0.002 0.127 0 0.273 0.020 0.543 0.060 0.805l-0.004-0.029c0.029 0.297 0.080 0.594 0.095 0.895-0.014 0.117-0.048 0.224-0.098 0.321l0.003-0.006c-0.079-0.065-0.147-0.139-0.204-0.224l-0.002-0.004c-0.29-0.545-0.576-1.201-0.816-1.878l-0.033-0.106c-0.108-0.446-0.472-0.783-0.923-0.85l-0.005-0.001c-1.162-0.253-2.19-0.678-3.115-1.252l0.042 0.024c-0.38-0.219-0.699-0.428-1.005-0.654l0.028 0.019c-0.734-0.602-1.468-0.862-2.405-0.477-0.28 0.103-0.622 0.198-0.972 0.268l-0.045 0.007c0.037-0.402 0.111-0.769 0.216-1.123l-0.011 0.041c0.334-0.829 0.187-1.496-0.301-2.271-0.918-1.441-1.696-2.978-1.872-4.739-0.026-0.648-0.449-1.191-1.032-1.394l-0.011-0.003c-0.664-0.253-1.296-0.613-1.938-0.932-0.074-0.037-0.121-0.121-0.183-0.183 0.088-0.043 0.176-0.095 0.268-0.136 0.771-0.327 1.552-0.634 2.313-0.99 0.198-0.104 0.343-0.286 0.392-0.505l0.001-0.005c0.242-2.293 1.139-4.34 2.498-5.995l-0.015 0.019c0.177-0.205 0.286-0.475 0.286-0.769 0-0.118-0.018-0.231-0.050-0.34l0.002 0.009c-0.111-0.495-0.213-0.99-0.316-1.489-0.066-0.322-0.022-0.439 0.368-0.279 1.289 0.536 2.438 0.323 3.539-0.587 0.706-0.602 1.577-1.032 2.535-1.216l0.035-0.006c0.98-0.176 1.792-0.682 1.99-1.809 0.082-0.245 0.193-0.457 0.332-0.649l-0.005 0.007c0.099-0.18 0.205-0.367 0.312-0.528 0.086 0.198 0.153 0.427 0.189 0.666l0.002 0.016c0 0.367-0.077 0.733-0.099 1.074s-0.018 0.785-0.018 1.174c0 0.055 0.059 0.107 0.073 0.165 0.271 1.155 0.022 1.536-1.127 1.712-1.868 0.29-3.498 1.146-4.748 2.385l0.001-0.001c-0.936 0.909-1.905 1.801-2.456 3.011-0.593 1.168-1.006 2.528-1.16 3.965l-0.005 0.051c-0.028 0.306-0.045 0.663-0.045 1.023 0 1.053 0.138 2.074 0.398 3.047l-0.019-0.082c0.623 2.422 2.031 4.45 3.932 5.848l0.029 0.020c0.931 0.762 2.034 1.355 3.239 1.711l0.066 0.016c0.29 0.066 0.584 0.121 0.878 0.162 0.933 0.132 1.057 0.267 1.064 1.207v0.367z"></path>
<path fill="#fff" d="M17.31 29.116c0.017-0.26 0.027-0.564 0.027-0.869s-0.010-0.609-0.030-0.911l0.002 0.041c-0.080-0.63 0.294-0.829 0.753-0.884 3.128-0.367 5.283-2.273 7.034-4.661 0.593-0.835 1.045-1.818 1.293-2.878l0.011-0.056c0.287-0.95 0.452-2.043 0.452-3.174 0-0.045 0-0.089-0.001-0.135v0.007c-0.125-2.725-0.977-5.187-3.003-7.126-0.673-0.727-1.409-1.378-2.204-1.951l-0.043-0.030c-1.023-0.672-2.237-1.143-3.545-1.326l-0.047-0.005c-0.51-0.059-0.697-0.228-0.69-0.734 0.018-1.221 0-2.443 0-3.668 0.005-0.1 0.015-0.193 0.031-0.285l-0.002 0.014c0.088 0.070 0.216 0.121 0.261 0.216 0.259 0.462 0.495 1.001 0.679 1.563l0.018 0.066c0.101 0.482 0.489 0.85 0.973 0.92l0.006 0.001c1.337 0.281 2.518 0.808 3.547 1.535l-0.029-0.020c1.135 0.869 2.225 1.298 3.591 0.638 0.29-0.139 0.47 0.066 0.367 0.389-0.127 0.46-0.27 0.914-0.429 1.364-0.047 0.122-0.074 0.263-0.074 0.41 0 0.324 0.132 0.618 0.346 0.83 0.493 0.569 0.902 1.227 1.198 1.944l0.018 0.048c0.403 1.119 0.918 2.22 1.005 3.44 0.009 0.378 0.251 0.698 0.589 0.82l0.006 0.002c0.867 0.334 1.737 0.66 2.603 0.99 0.080 0.029 0.158 0.066 0.234 0.099-0.066 0.079-0.143 0.145-0.227 0.2l-0.004 0.002c-0.804 0.337-1.616 0.653-2.416 0.99-0.472 0.188-0.805 0.633-0.826 1.157v0.003c-0.283 1.786-0.837 3.514-2.012 4.933-0.701 0.85-0.701 1.695-0.368 2.648 0.243 0.682 0.095 0.836-0.606 0.734-0.064-0.007-0.122-0.023-0.175-0.050l0.003 0.001c-0.966-0.565-1.755-0.198-2.57 0.392-1.053 0.791-2.31 1.374-3.677 1.659l-0.061 0.011c-0.454 0.091-0.816 0.411-0.967 0.831l-0.003 0.009c-0.224 0.488-0.452 0.972-0.687 1.467-0.099 0.198-0.216 0.388-0.327 0.583 0-0.209-0.033-0.418-0.037-0.627 0.004-0.528 0.008-1.049 0.008-1.566z"></path>
<path fill="#fff" d="M15.886 21.953c0.657-0.084 1.314-0.158 1.968-0.257 0.223-0.035 0.423-0.105 0.604-0.206l-0.009 0.005c0.668-0.367 0.691-0.851 0-1.156-0.574-0.243-1.241-0.385-1.942-0.385-0.602 0-1.181 0.105-1.718 0.296l0.036-0.011c-0.131 0.061-0.225 0.183-0.245 0.327v0.002c0 0.095 0.18 0.246 0.298 0.264 0.837 0.136 1.686 0.367 2.5-0.139 0.111-0.066 0.316 0 0.477 0.029-0.039 0.156-0.095 0.293-0.166 0.42l0.005-0.009c-0.077 0.090-0.184 0.153-0.305 0.175l-0.003 0.001c-1.197 0.235-2.401 0.396-3.513-0.286-0.557-0.341-0.54-0.799 0.066-1.101 0.461-0.277 1.001-0.475 1.578-0.558l0.023-0.003c1.388-0.103 2.805-0.177 4.039 0.675 0.238 0.137 0.44 0.308 0.606 0.51l0.003 0.004c0.249 0.367 0.191 0.653-0.22 0.965-0.876 0.653-1.945 1.095-3.108 1.233l-0.031 0.003c-1.223 0.173-2.405-0.139-3.591-0.388-0.132-0.029-0.232-0.195-0.368-0.257-0.643-0.3-1.398-0.649-1.347-1.415 0.059-0.84 0.753-1.409 1.509-1.76 0.506-0.238 1.079-0.334 1.612-0.528 0.29-0.103 0.686-0.205 0.8-0.429 0.202-0.367-0.146-0.66-0.455-0.881-0.121-0.084-0.253-0.162-0.367-0.242-0.319-0.201-0.782-0.642-0.925-0.558-0.377 0.295-0.69 0.65-0.93 1.054l-0.010 0.018c-0.033 0.061-0.052 0.134-0.052 0.211s0.019 0.15 0.053 0.213l-0.001-0.002c0.557 0.627 0.070 0.573-0.368 0.573-0.477 0-0.954 0.029-1.428 0-0.58-0.041-0.61-0.084-0.242-0.558 0.463-0.598 0.987-1.148 1.468-1.727 0.183-0.22 0.327-0.477 0.489-0.715-0.349-0.22-0.775-0.686-1.028-0.609-0.734 0.228-0.595-0.209-0.576-0.572 0.035-0.363 0.088-0.688 0.161-1.006l-0.009 0.052c0.3 0.169 0.61 0.323 0.896 0.51 0.403 0.261 0.793 0.762 1.178 0.733s0.682-0.565 1.009-0.891c0.324-0.302 0.621-0.618 0.897-0.955l0.014-0.017c0.093-0.121 0.148-0.275 0.148-0.443 0-0.066-0.009-0.13-0.025-0.19l0.001 0.005c-0.117-0.102-0.272-0.164-0.441-0.164-0.060 0-0.117 0.008-0.173 0.022l0.005-0.001c-0.455 0.139-0.882 0.367-1.326 0.55-0.033 0.007-0.071 0.011-0.111 0.011s-0.077-0.004-0.113-0.012l0.004 0.001c0.029-0.052 0.051-0.125 0.099-0.154 0.463-0.322 0.996-0.636 1.552-0.912l0.075-0.034c0.368-0.15 0.654-0.279 0.51-0.682s-0.51-0.367-0.859-0.257c-1.468 0.411-2.937 0.848-3.969 2.109-0.106 0.092-0.226 0.17-0.358 0.228l-0.009 0.004c-0.033-0.117-0.060-0.258-0.075-0.402l-0.001-0.013c-0.011-0.124-0.016-0.267-0.016-0.412s0.006-0.289 0.018-0.431l-0.001 0.019c0.010-0.149 0.084-0.28 0.194-0.366l0.001-0.001c0.83-0.415 1.689-0.766 2.504-1.21 2.53-1.376 4.927-0.965 7.277 0.458 0.455 0.275 0.951 0.48 1.421 0.733 0.109 0.078 0.202 0.173 0.272 0.282l0.003 0.004c0.029 0.041 0 0.117 0 0.18-0.023 0.411-0.044 0.821-0.070 1.232-0.279-0.257-0.547-0.532-0.837-0.774-0.95-0.81-2.147-1.357-3.462-1.519l-0.032-0.003c-0.247-0.029-0.701-0.195-0.701 0.3 0 0.429 0.407 0.286 0.639 0.275 0.024-0.001 0.052-0.001 0.080-0.001 0.739 0 1.4 0.331 1.845 0.852l0.003 0.004c0.525 0.554 0.47 1.185-0.103 1.713-0.253 0.262-0.494 0.541-0.718 0.835l-0.018 0.023c0.529 0.232 0.734-0.308 1.083-0.484s0.525-0.505 0.804-0.733c0.088-0.074 0.253-0.052 0.386-0.074 0.070 0.347 0.125 0.764 0.152 1.189l0.002 0.029c0 0.092-0.286 0.195-0.444 0.286-0.368 0.205-0.734 0.393-1.069 0.62-0.048 0.033-0.025 0.286 0.044 0.367 0.368 0.448 0.734 0.877 1.102 1.317 0.29 0.345 0.573 0.7 0.863 1.045 0.191 0.227 0.095 0.308-0.154 0.312h-1.928c-0.249 0-0.419-0.029-0.242-0.367 0.091-0.141 0.145-0.313 0.145-0.498 0-0.075-0.009-0.146-0.025-0.216l0.001 0.007c-0.263-0.389-0.546-0.729-0.858-1.038l-0.001-0.001c-0.018-0.022-0.114 0-0.15 0.022-0.563 0.389-1.049 0.77-1.514 1.175l0.019-0.017c-0.158 0.146-0.129 0.499-0.172 0.76-0.019 0.121 0.033 0.264 0 0.367s-0.187 0.316-0.313 0.341c-0.47 0.095-0.951 0.146-1.428 0.202-0.769 0.147-1.425 0.549-1.894 1.113l-0.004 0.006c-0.368 0.388-0.249 0.796 0.298 1.1 0.695 0.422 1.535 0.67 2.433 0.67 0.108 0 0.214-0.004 0.321-0.011l-0.014 0.001zM17.49 15.288l-1.41-1.672c0 0-0.059 0-0.088 0-0.368 0-1.626 1.716-1.41 1.936 0.383 0.395 0.828 0.728 1.319 0.984l0.028 0.014c0.323 0.15 1.505-0.752 1.56-1.261zM17.172 11.683c-0.206 0.084-0.54 0.129-0.584 0.264-0.003 0.028-0.005 0.060-0.005 0.093 0 0.212 0.073 0.407 0.194 0.562l-0.002-0.002c0.167 0.28 0.389 0.511 0.653 0.681l0.008 0.005c0.119 0.054 0.258 0.085 0.404 0.085s0.285-0.031 0.41-0.088l-0.006 0.003c0.163-0.095 0.27-0.268 0.27-0.468 0-0.116-0.037-0.224-0.099-0.312l0.001 0.002c-0.283-0.462-0.598-0.854-1.244-0.825z"></path>
</svg>
