<!-- Generated by IcoMoon.io -->
<svg version="1.1" xmlns="http://www.w3.org/2000/svg" width="32" height="32" viewBox="0 0 32 32">
<title>bladeborn-ironskull</title>
<path fill="#fff" d="M17.223 29.070v-2.087c0-0.203 0.058-0.334 0.295-0.363 0.175-0.022 0.334-0.141 0.506-0.164 2.072-0.296 3.877-1.262 5.226-2.671l0.003-0.003c0.47-0.462 0.884-0.979 1.332-1.455 0.7-0.791 1.226-1.752 1.504-2.814l0.011-0.048c0.174-0.432 0.326-0.945 0.432-1.475l0.010-0.056c0.131-1.19 0.273-3.437-0.080-4.365-0.288-0.75-0.364-1.564-0.75-2.266-0.392-0.77-0.823-1.433-1.314-2.046l0.018 0.023c-0.92-1.108-2.003-2.039-3.221-2.77l-0.056-0.031c-0.714-0.42-1.545-0.735-2.429-0.899l-0.048-0.007c-1.456-0.259-1.456-0.338-1.456-1.818 0-0.877 0-1.757 0-2.634 0.003-0.191 0.021-0.376 0.054-0.555l-0.003 0.020c0-0.033 0.087-0.073 0.139-0.077s0.135 0.022 0.15 0.058c0.149 0.364 0.28 0.728 0.429 1.070s0.364 0.815 0.55 1.219c0.302 0.622 0.961 0.727 1.5 0.852 1.246 0.336 2.333 0.889 3.272 1.623l-0.020-0.016c0.3 0.268 0.65 0.488 1.032 0.646l0.024 0.009c0.074 0.009 0.16 0.013 0.247 0.013 0.276 0 0.54-0.048 0.785-0.138l-0.015 0.005c0.313-0.069 0.618-0.197 0.932-0.28s0.484 0.11 0.408 0.396c-0.135 0.483-0.276 0.968-0.448 1.455-0.043 0.095-0.070 0.206-0.070 0.322 0 0.194 0.071 0.371 0.187 0.508l-0.001-0.001c0.398 0.495 0.776 1.049 1.111 1.632l0.033 0.063c0.219 0.447 0.439 0.993 0.625 1.555l0.027 0.096c0.307 0.707 0.51 1.527 0.564 2.387l0.001 0.020c0 0.007 0 0.015 0 0.023 0 0.339 0.223 0.627 0.53 0.725l0.006 0.002c0.899 0.298 1.689 0.881 2.658 0.997 0.061 0.016 0.114 0.039 0.164 0.067l-0.003-0.002c-0.043 0.052-0.083 0.127-0.141 0.156-0.67 0.302-1.326 0.655-2.021 0.887-0.682 0.154-1.189 0.742-1.216 1.452v0.003c-0.177 1.285-0.576 2.444-1.158 3.489l0.026-0.050c-0.391 0.733-0.799 1.36-1.252 1.95l0.024-0.033c-0.157 0.198-0.252 0.451-0.252 0.727 0 0.114 0.017 0.225 0.047 0.329l-0.002-0.009c0.049 0.473 0.168 0.907 0.346 1.308l-0.011-0.027c0.178 0.331 0.033 0.512-0.363 0.498-0.22-0.020-0.423-0.068-0.613-0.139l0.015 0.005c-0.284-0.095-0.564-0.193-0.834-0.313-0.098-0.048-0.214-0.077-0.336-0.077-0.22 0-0.419 0.093-0.559 0.241-0.772 0.611-1.65 1.145-2.591 1.563l-0.077 0.031c-0.525 0.229-1.187 0.466-1.866 0.666l-0.129 0.033c-0.32 0.063-0.571 0.299-0.654 0.605l-0.001 0.006c-0.295 0.803-0.602 1.473-0.952 2.117l0.042-0.084c-0.040 0.084-0.179 0.127-0.27 0.189-0.034-0.073-0.059-0.157-0.072-0.246l-0.001-0.005c0.029-0.684 0.029-1.35 0.029-2.015z"></path>
<path fill="#fff" d="M5.207 25.93c0.080-0.432 0.17-0.793 0.277-1.146l-0.020 0.073c0.074-0.181 0.116-0.393 0.116-0.613 0-0.404-0.143-0.774-0.381-1.064l0.002 0.003c-1.093-1.389-1.54-3.037-1.984-4.696-0.014-0.054-0.022-0.117-0.022-0.182s0.008-0.127 0.023-0.187l-0.001 0.005c0.146-0.564-0.244-0.804-0.619-1.047-0.137-0.078-0.298-0.151-0.465-0.211l-0.023-0.007c-0.652-0.27-1.307-0.539-1.952-0.819-0.073-0.033-0.109-0.138-0.16-0.211 0.073-0.037 0.149-0.077 0.226-0.11l2.469-1.007c0.305-0.124 0.518-0.416 0.521-0.759 0.254-2.269 1.16-4.29 2.523-5.914l-0.014 0.018c0.118-0.107 0.193-0.261 0.193-0.432 0-0.077-0.014-0.149-0.041-0.215l0.001 0.004c-0.185-0.524-0.32-1.073-0.463-1.615-0.088-0.338 0.102-0.487 0.469-0.393 0.558 0.1 1.046 0.234 1.517 0.409l-0.060-0.020c0.077 0.037 0.167 0.059 0.263 0.059 0.148 0 0.284-0.052 0.391-0.14l-0.001 0.001c0.728-0.444 1.456-0.957 2.185-1.364 0.503-0.253 1.128-0.515 1.77-0.741l0.12-0.037c0.192-0.078 0.422-0.147 0.658-0.196l0.026-0.005c0.355-0.059 0.636-0.319 0.727-0.656l0.002-0.006c0.266-0.691 0.691-1.316 0.845-2.059 0-0.047 0.069-0.091 0.105-0.134 0.029 0.051 0.084 0.098 0.088 0.149 0 0.178 0 0.364 0 0.541 0 0.91 0 1.818 0 2.725-0.001 0.025-0.001 0.056-0.001 0.086 0 0.191 0.017 0.378 0.048 0.559l-0.003-0.020c0.095 0.524 0.080 0.539-0.365 0.673-0.848 0.247-1.707 0.473-2.548 0.786-0.985 0.403-1.83 0.95-2.554 1.624l0.005-0.005c-0.627 0.516-1.182 1.078-1.676 1.691l-0.017 0.022c-0.506 0.688-1.067 1.354-1.311 2.237-0.135 0.487-0.583 0.895-0.513 1.48-0.487 0.829-0.324 1.746-0.364 2.641 0 0.331 0 0.665 0 0.997 0 0.001 0 0.003 0 0.004 0 1.159 0.269 2.255 0.748 3.23l-0.019-0.044c0.3 0.819 0.669 1.526 1.114 2.176l-0.021-0.034c0.768 0.965 1.604 1.816 2.52 2.574l0.029 0.023c0.834 0.691 1.82 1.070 2.774 1.546 0.328 0.13 0.709 0.221 1.105 0.257l0.016 0.001c0.175 0.033 0.364 0 0.535 0.044 0.655 0.156 0.655 0.164 0.662 0.829 0 0.451 0 0.905 0 1.36 0 0.823-0.237 1.637 0 2.463 0.025 0.102-0.080 0.244-0.124 0.363-0.083-0.080-0.226-0.149-0.244-0.244-0.175-0.793-0.666-1.455-0.899-2.208-0.066-0.225-0.225-0.403-0.431-0.493l-0.005-0.002c-0.046-0.030-0.102-0.051-0.162-0.058h-0.002c-1.093-0.113-2.032-0.655-2.986-1.121-0.769-0.41-1.427-0.839-2.045-1.318l0.032 0.023c-0.255-0.186-0.396-0.363-0.765-0.172-0.412 0.162-0.901 0.302-1.405 0.396l-0.051 0.008c-0.361 0.112-0.386 0.112-0.386-0.379z"></path>
<path fill="#fff" d="M13.345 17.248c-0.116 0-0.273-0.051-0.364 0-0.685 0.553-1.427-0.033-2.13 0.116-0.044 0-0.193-0.172-0.182-0.247 0.091-0.52-0.481-0.665-0.604-1.069 0-0.048-0.332-0.062-0.47 0-0.298 0.127-0.419 0-0.386-0.259 0.044-0.364-0.182-0.604-0.346-0.891-0.204-0.364-0.434-0.23-0.674-0.127-0.12 0.051-0.273 0.24-0.313 0.215-0.226-0.141-0.033-0.294 0-0.454s0.033-0.291-0.029-0.338c-0.425-0.331-0.145-0.539 0.098-0.775 0.305-0.291 0.593-0.607 0.907-0.891 0.124-0.112 0.309-0.259 0.452-0.244 0.553 0.058 0.911-0.295 1.256-0.593 0.362-0.348 0.694-0.718 0.999-1.111l0.017-0.023c0.098-0.112 0.201-0.225 0.305-0.331 0.052-0.075 0.137-0.124 0.233-0.124s0.182 0.048 0.233 0.123l0.001 0.001c0.207 0.251 0.365 0.535 0.604 0.771 0.653 0.734 1.323 1.407 2.028 2.042l0.022 0.020c0.24 0.204 0.586 0.411 0.251 0.815-0.025 0.033 0.037 0.171 0.087 0.232 0.517 0.586 1.023 1.179 1.562 1.743 0.317 0.327 0.411 0.313 0.761 0.025s0.786-0.644 1.166-0.982c0.27-0.261 0.491-0.572 0.645-0.92l0.007-0.018c0.142-0.295 0.623-0.418 0.929-0.651 0.128-0.119 0.227-0.268 0.285-0.436l0.002-0.008c0.382-0.997 0.87-1.961 0.855-3.066-0.007-0.016-0.011-0.036-0.011-0.055 0-0.080 0.065-0.145 0.145-0.145 0.069 0 0.127 0.048 0.141 0.113v0.001c0.598 0.582 1.268 1.117 1.457 1.994 0.066 0.287 0.083 0.589 0.175 0.866 0.056 0.329 0.247 0.604 0.512 0.772l0.005 0.003c0.218 0.113 0.168 0.382-0.054 0.509-0.087 0.033-0.201 0.068-0.316 0.097l-0.023 0.005c-0.75 0.295-0.929 0.854-0.513 1.55 0.137 0.209 0.247 0.451 0.316 0.71l0.004 0.017c0.091 0.466 0 0.535-0.535 0.452-0.082-0.018-0.175-0.029-0.271-0.029-0.381 0-0.723 0.164-0.959 0.427l-0.001 0.001c-0.277 0.32-0.444 0.24-0.703 0-0.197-0.163-0.425-0.3-0.671-0.398l-0.018-0.005c-0.459-0.222-0.531-0.182-0.652 0.32-0.095 0.393-0.091 0.389-0.364 0.174-0.139-0.105-0.226-0.4-0.481-0.112s-0.32 0.346 0 0.698c0.477 0.535 0.979 1.055 1.457 1.596 0.316 0.303 0.584 0.655 0.79 1.043l0.011 0.022c0.084 0.285 0.273 0.515 0.523 0.652l0.006 0.003c0.324 0.168 0.276 0.484 0.203 0.796-0.086 0.313-0.368 0.539-0.703 0.539-0.009 0-0.017 0-0.026 0h0.001c-0.291 0.029-0.674-0.127-0.677-0.437 0-0.408-0.251-0.545-0.488-0.771-0.237-0.253-0.446-0.535-0.622-0.84l-0.011-0.022c-0.474-0.715-1.004-1.335-1.599-1.885l-0.007-0.006c-0.182-0.174-0.309-0.139-0.382 0.105 0 0.058-0.069 0.102-0.091 0.156-0.098 0.166-0.275 0.276-0.479 0.276-0.074 0-0.145-0.014-0.209-0.041l0.004 0.001c-0.021-0.004-0.044-0.006-0.067-0.006-0.081 0-0.157 0.027-0.218 0.073l0.001-0.001c-0.239 0.189-0.454 0.379-0.655 0.581-0.473 0.48-0.958 0.954-1.384 1.455-0.266 0.324-0.729 0.466-0.794 1.008-0.029 0.288-0.761 0.363-1.034 0.141s-0.39-0.728-0.135-0.928c0.404-0.313 0.579-0.808 1.093-1.059s0.845-0.764 1.256-1.164c0.28-0.276 0.564-0.549 0.83-0.84 0.087-0.098 0.207-0.305 0.168-0.363-0.064-0.097-0.103-0.215-0.103-0.343 0-0.255 0.152-0.475 0.371-0.571l0.004-0.002c0.342-0.218 0.189-0.291 0.029-0.484-0.364-0.437-0.695-0.891-1.041-1.339-0.809-0.135-1.23-0.808-1.82-1.269-0.27-0.218-0.564 0-0.729 0.178-0.141 0.149-0.229 0.352-0.229 0.575 0 0.047 0.004 0.094 0.012 0.139l-0.001-0.005c0.232 0.457 0.488 0.851 0.779 1.214l-0.011-0.014c0.314 0.388 0.77 0.65 1.287 0.708l0.009 0.001c0.149 0.033 0.23 0.095 0.12 0.226-0.145 0.242-0.405 0.403-0.704 0.403-0.045 0-0.088-0.004-0.131-0.011l0.005 0.001zM21.229 21.416c-0.143 0.058-0.263 0.117-0.377 0.185l0.012-0.007c-0.058 0.040-0.127 0.16-0.106 0.2 0.046 0.11 0.129 0.195 0.234 0.242l0.003 0.001c0.012 0.002 0.025 0.002 0.039 0.002 0.102 0 0.192-0.046 0.252-0.118v-0.001c0.057-0.118 0.093-0.256 0.098-0.402v-0.002c-0.007-0.025-0.091-0.062-0.156-0.102zM12.806 22.228c0.077-0.111 0.148-0.236 0.205-0.368l0.005-0.014c0.022-0.12-0.32-0.429-0.394-0.363-0.056 0.059-0.091 0.138-0.091 0.226 0 0.016 0.001 0.033 0.004 0.048v-0.002c0.084 0.181 0.176 0.336 0.282 0.48l-0.005-0.008z"></path>
</svg>
