<!-- Generated by IcoMoon.io -->
<svg version="1.1" xmlns="http://www.w3.org/2000/svg" width="512" height="512" viewBox="0 0 512 512">
<title>bladeborn-magore</title>
<path fill="#fff" d="M275.424 466.544c0-10.16 0.528-20.416 0-30.576-0.528-7.472 3.152-10.032 9.456-11.664 10.096-2.752 20.16-5.824 30.128-9.168 17.744-6.592 33.056-15.376 46.656-26.224l-0.32 0.256c14-10.48 25.952-22.768 35.744-36.656l0.336-0.512c6.784-9.952 12.784-21.328 17.472-33.376l0.4-1.168c3.232-8.224 6.336-18.32 8.704-28.672l0.288-1.488c2.416-10 3.824-21.504 3.824-33.312 0-12.592-1.584-24.832-4.56-36.496l0.208 1.024c-10.848-50.016-41.856-91.296-83.904-115.664l-0.848-0.448c-15.776-9.472-34.336-16.144-54.144-18.816l-0.752-0.080c-5.84-0.832-8.704-2.336-8.64-8.64 0-20.896 0-41.776 0-62.608 0-1.392 1.632-2.8 2.448-4.144 1.168 0.832 2.8 1.408 3.344 2.512 4.32 9.632 9.104 19.184 12.448 29.168 1.712 7.072 7.536 12.4 14.736 13.344l0.096 0.016c27.104 6.688 50.784 18.576 70.976 34.656l-0.368-0.272c4.384 3.84 10.144 6.176 16.464 6.176 3.312 0 6.464-0.624 9.344-1.792l-0.176 0.064c5.376-2.048 10.928-3.68 16.48-5.312s6.88-0.352 6.784 5.36c-0.128 3.040-0.64 5.904-1.52 8.624l0.064-0.208c-2.016 7.248-4.016 13.056-6.288 18.752l0.432-1.232c-0.656 1.616-1.056 3.488-1.056 5.456 0 4.144 1.712 7.872 4.496 10.528 12.272 15.248 21.824 33.28 27.52 52.944l0.272 1.088c3.776 10.272 6.832 22.368 8.592 34.88l0.112 0.96c0.64 6.544 5.84 10.384 12.512 12.72 13.088 4.72 25.984 9.856 38.96 14.88 0.704 0.288 1.232 1.12 1.856 1.68-0.752 0.592-1.392 1.456-2.224 1.632-13.728 3.040-24.064 13.888-38.432 15.744-6.976 1.152-12.304 6.96-12.672 14.096v0.032c-2.832 16.272-6.88 30.688-12.208 44.448l0.544-1.568c-6.096 17.904-14.752 33.392-25.696 46.96l0.24-0.288c-4.912 6.592-8.24 12.144-4.8 20.832 1.952 6.16 3.376 13.344 4 20.752l0.032 0.368c1.12 6.768-0.768 8.4-7.584 6.48-6.464-1.632-11.936-3.456-17.2-5.664l0.8 0.288c-2.368-1.264-5.184-2.032-8.176-2.032-4.752 0-9.056 1.888-12.208 4.944-18.224 17.504-41.584 25.376-64.768 32.544-12.384 3.904-19.808 9.68-23.376 22.048-3.712 10.528-7.424 19.168-11.648 27.536l0.608-1.344c-0.704 1.232-1.488 2.288-2.4 3.216-0.688-1.152-1.184-2.48-1.44-3.888l-0.016-0.080c0-11.152 0-22.288 0-33.488z"></path>
<path fill="#fff" d="M231.68 32.144c1.344 9.52 2.8 18.96 3.856 28.48 0.144 1.968 0.208 4.24 0.208 6.56s-0.080 4.592-0.224 6.864l0.016-0.304c0.016 0.224 0.032 0.496 0.032 0.752 0 4.768-3.856 8.64-8.64 8.64-0.048 0-0.112 0-0.16 0h0.016c-42.176 5.424-75.632 26.944-103.024 58-15.808 17.632-27.888 38.96-34.752 62.512l-0.288 1.152c-3.92 13.664-4.208 27.424-7.424 40.848-1.584 6.656 0.992 14.224 1.52 21.408 3.216 41.664 20.976 78.64 48.16 106.384l-0.032-0.032c12.736 13.168 27.376 24.4 43.504 33.248l0.944 0.48c12.336 6.096 26.752 11.36 41.776 15.104l1.504 0.304c12.448 3.328 12.384 2.688 14.080 15.472 0.704 4.256 1.104 9.136 1.104 14.112s-0.4 9.872-1.168 14.656l0.064-0.528c-1.168 6.768 2.048 14.176 2.224 21.296 0 4.736 2.736 10.624-3.216 14.176-1.952-2.88-4-6.32-5.888-9.856l-0.32-0.64c-3.872-7.232-7.664-15.872-10.8-24.8l-0.4-1.328c-1.104-4.224-4.352-7.504-8.496-8.624l-0.080-0.016c-12.208-4.256-24.768-7.648-36.784-12.368-7.744-3.344-14.352-7.040-20.56-11.296l0.416 0.256c-8.944-5.824-17.52-11.664-26.288-17.504-1.744-1.52-4.064-2.448-6.592-2.448-1.44 0-2.8 0.288-4.032 0.832l0.064-0.032c-5.904 1.904-13.408 3.808-21.088 5.28l-1.28 0.192c-2.416 0.352-5.248 0.56-8.096 0.592h-0.016c0-0.112 0-0.24 0-0.368 0-2.608 0.224-5.168 0.688-7.648l-0.048 0.256c1.28-5.12 3.216-10.080 4.608-15.168 0.944-2.624 1.488-5.664 1.488-8.8 0-5.888-1.888-11.344-5.104-15.776l0.048 0.080c-13.36-20.288-24.368-43.712-31.76-68.672l-0.48-1.872c-0.496-2.128-0.784-4.56-0.784-7.072 0-1.072 0.048-2.128 0.144-3.168l-0.016 0.144c0.016-0.352 0.032-0.768 0.032-1.2 0-9.648-6.464-17.776-15.296-20.304l-0.16-0.032c-10.752-4.192-21.088-9.456-31.536-14.352-1.504-0.96-2.8-2.080-3.888-3.36l-0.016-0.016c1.024-0.864 2.176-1.648 3.376-2.32l0.128-0.064c6.592-2.912 13.2-5.824 19.856-8.576 1.888-0.88 4.144-1.696 6.464-2.32l0.288-0.064c13.536-3.216 19.68-12.192 20.736-25.568 2.32-16.32 6.992-31.056 13.696-44.624l-0.384 0.848c5.552-14.864 12.992-27.712 22.224-39.040l-0.208 0.256c3.344-3.264 5.408-7.84 5.408-12.88 0-2.56-0.528-4.992-1.488-7.2l0.048 0.128c-1.904-5.664-3.36-12.32-4.112-19.168l-0.032-0.416c-0.144-0.624-0.24-1.344-0.24-2.080 0-1.76 0.48-3.424 1.312-4.848l-0.032 0.048c0.832-0.992 4.144-0.352 6.32 0 4.672 0.656 8.896 1.776 12.88 3.344l-0.384-0.128c3.344 1.92 7.344 3.056 11.632 3.056 6.144 0 11.728-2.32 15.936-6.16l-0.016 0.016c18.336-14.224 40.24-24.8 64.144-30.192l1.104-0.224c13.072-3.104 17.168-12.304 21.68-22.16 3.152-6.88 5.824-14.064 8.576-21.008 0.464-1.232 1.824-2.048 2.752-3.040 0.72 1.024 1.264 2.256 1.568 3.552l0.016 0.064c0 6.768 0 13.6 0 20.368z"></path>
<path fill="#fff" d="M281.28 295.488c0-9.744 0.464-19.488-0.288-29.168 0-3.68-3.616-7.12-5.552-10.688-2.512 3.344-6.832 6.416-7.184 9.92-1.696 17.2-2.224 34.592-3.344 51.856-0.032 0.384-0.048 0.848-0.048 1.312 0 4.592 1.808 8.736 4.736 11.824 5.824 6.72 5.248 9.792 0.624 16.576s-7.408 12.304-11.68 18.32c-0.736 0.464-1.616 0.768-2.576 0.768-0.592 0-1.152-0.112-1.664-0.288l0.032 0.016c-5.312-9.040-10.512-18.144-15.36-27.488-0.528-0.992 0.864-3.44 1.92-4.784 3.312-4.576 5.312-10.288 5.312-16.48 0-0.928-0.048-1.856-0.144-2.768l0.016 0.112c0-11.136 0.352-22.352 0-33.488-0.48-7.744-1.744-14.976-3.68-21.92l0.176 0.736c-1.264-2.368-3.68-4-6.448-4.208h-0.032c-2.704 0.752-4.832 2.688-5.824 5.2l-0.016 0.064c-0.416 1.968-0.672 4.224-0.672 6.56 0 1.28 0.080 2.528 0.224 3.744l-0.016-0.144c0 16.976 0 33.952 0 50.928-0.24 1.52-0.672 2.896-1.28 4.176l0.032-0.096c-1.632-0.688-3.856-0.992-4.8-2.224-5.376-7.12-10.16-13.008-7.648-24.272 3.152-14.352 0.864-29.936 0.832-44.976 0.016-0.176 0.016-0.384 0.016-0.592 0-1.808-0.608-3.456-1.616-4.8l0.016 0.016c-2.32-1.776-4.912-3.408-7.664-4.768l-0.272-0.128c-1.296 2.448-3.504 4.832-3.568 7.344-0.4 11.136 0 22.352 0 33.488 0 3.904 0 7.76 0 11.664s-1.856 4.144-4.672 2.112c-0.752-0.592-1.392-1.344-2.16-1.984-5.2-4.256-12.448-7.584-14.96-13.12s0.464-12.72 0.288-19.248c-0.352-10.544-1.456-21.12-1.744-31.68 0.256-2.112 1.52-3.904 3.28-4.88l0.032-0.016c3.424-1.264 7.616-2.432 11.936-3.28l0.576-0.096c7.136-1.968 13.024-6.48 16.688-12.48l0.080-0.128c1.76-2.736 1.12-6.32-2.912-6.256-8.48 0-17.52-2.848-25.056 3.904-2.864 2.576-5.376 0.4-5.84-3.2 0-2.448 0-4.896 0-7.296 0-4.672-2.576-11.136-0.352-13.6 4.432-5.088 8 2.272 12.256 3.68 14.832 4.72 35.056-0.704 42.336-11.68 3.744-5.312 3.44-8.864-1.984-11.664-3.936-2.096-8.544-3.536-13.44-4.080l-0.176-0.016c-3.040-0.192-6.608-0.288-10.192-0.288s-7.152 0.112-10.672 0.32l0.48-0.016c-0.768-0.144-1.648-0.224-2.544-0.224-4.096 0-7.808 1.68-10.48 4.352-3.152 3.504-7.36 1.168-7.936-3.68-0.128-1.536-0.192-3.296-0.192-5.104s0.080-3.584 0.208-5.328l-0.016 0.224c0-6.72 0-6.48 7.408-4.32 2.816 0.736 6.032 1.184 9.376 1.184 0.224 0 0.432 0 0.656 0h-0.032c9.232 0 18.464 0 27.68 0 2.912 0 6.88 0.752 8.464-0.768 7.584-7.232 12.256-2.8 17.936 2.688 7.776 7.536 8.64 7.472 16.064-0.4 5.264-5.824 9.936-8.464 17.52-3.744 2.544 1.376 5.552 2.192 8.768 2.192 0.336 0 0.656-0.016 0.976-0.032h-0.048c13.088 0 26.16 0 39.248-0.832 3.152 0 4.496 0 4.736 3.152 0.064 0.864 0.096 1.888 0.096 2.912s-0.032 2.048-0.096 3.056v-0.144c0 3.808-0.768 7.584-1.168 11.376-2.832-1.536-6.128-2.96-9.568-4.080l-0.416-0.128c-14.656-3.664-29.2-5.12-43.68 1.632-5.84 2.688-6.192 6.72-2.464 11.664 4.768 7.456 13.008 12.32 22.368 12.32 0.336 0 0.704 0 1.040-0.016h-0.048c9.568-0.464 19.392 1.28 28.144-4.656 2.112-1.392 4.672-1.344 4.096 2.736-0.528 3.344-0.928 7.376-1.104 11.456v0.208c-0.4 10.16 0 9.632-10.56 7.296-3.568-0.72-7.68-1.136-11.904-1.136-2.432 0-4.8 0.144-7.136 0.4l0.288-0.032c-5.328 0.4-5.84 4.784-2.512 9.28 5.488 7.008 13.536 9.040 21.248 11.68 9.856 3.328 8.88 3.040 8.336 12.544-0.176 3.152-0.272 6.832-0.272 10.544 0 8.96 0.592 17.776 1.744 26.432l-0.112-1.024c0.928 6.88 0.288 11.088-6.256 13.888-2.624 1.568-4.912 3.2-7.008 5.008l0.064-0.064c-2.912 1.984-5.84 3.856-8.944 5.824-0.752-3.328-1.232-7.2-1.344-11.168v-0.080c0.592-9.024 2.112-18.080 2.576-27.184 0 0 0-0.016 0-0.016 0-3.984-0.848-7.76-2.4-11.168l0.048 0.176c-1.456-2.512-3.2-4.656-5.184-6.528l-0.016-0.016c-2.976 2.272-5.6 4.736-7.952 7.456l-0.064 0.064c-1.232 1.68-0.592 4.656-0.592 7.12 0 11.664-0.352 23.344 0 35.008 0.144 4.432 1.344 8.56 3.392 12.144l-0.064-0.112c0.96 1.12 1.536 2.576 1.536 4.176 0 1.92-0.832 3.648-2.176 4.8-4.56 4.784-8.944 9.68-13.44 14.576-0.768-6.88-1.696-13.712-2.224-20.608-0.288-4.32 0-8.688 0-13.056z"></path>
</svg>
