<!-- Generated by IcoMoon.io -->
<svg version="1.1" xmlns="http://www.w3.org/2000/svg" width="32" height="32" viewBox="0 0 32 32">
<title>bladeborn-stormsire</title>
<path fill="#fff" d="M14.646 3.020c0 0.518-0.019 1.036 0 1.55 0.018 0.364-0.124 0.521-0.474 0.609-0.73 0.19-1.493 0.405-2.223 0.653-2.134 0.745-3.867 2.186-4.966 4.045l-0.023 0.043c-0.343 0.484-0.691 1.043-1.004 1.622l-0.044 0.088c-0.39 0.931-0.671 2.011-0.791 3.139l-0.005 0.052c-0.215 1.459 0.062 2.789 0.405 4.145 0.285 1.134 0.902 2.115 1.497 3.114 0.873 1.459 2.189 2.443 3.57 3.281 0.865 0.489 1.868 0.868 2.93 1.083l0.066 0.011c0.88 0.211 1.055 0.273 1.055 1.207 0 1.156 0 2.309 0 3.464-0.029 0.138-0.082 0.261-0.155 0.368l0.002-0.004c-0.052-0.099-0.114-0.193-0.157-0.291-0.259-0.493-0.539-1.114-0.786-1.752l-0.046-0.134c-0.223-0.686-0.763-0.883-1.339-1.032-1.591-0.412-2.976-1.127-4.155-2.086l0.020 0.015c-0.265-0.224-0.611-0.359-0.987-0.359-0.141 0-0.279 0.020-0.41 0.055l0.011-0.003c-0.099 0.037-0.179 0.072-0.258 0.113l0.014-0.006-1.266 0.364c0.052-0.534 0.153-1.021 0.298-1.489l-0.014 0.052c0.087-0.193 0.139-0.418 0.139-0.655 0-0.387-0.137-0.743-0.364-1.022l0.002 0.003c-1.039-1.521-1.785-3.327-2.113-5.274l-0.011-0.078c-0.063-0.45-0.375-0.814-0.791-0.949l-0.009-0.002c-0.653-0.288-1.295-0.587-1.938-0.893-0.124-0.079-0.232-0.168-0.328-0.269l-0.001-0.001c0.109-0.070 0.239-0.141 0.374-0.205l0.023-0.009c0.631-0.252 1.256-0.533 1.905-0.73 0.416-0.094 0.723-0.457 0.73-0.892v-0.001c0.281-1.88 0.924-3.567 1.857-5.054l-0.032 0.055c0.124-0.181 0.257-0.34 0.404-0.484l0.001-0.001c0.383-0.419 0.631-0.839 0.365-1.459-0.102-0.366-0.189-0.811-0.244-1.264l-0.003-0.045c-0.106-0.423 0.149-0.383 0.387-0.332 0.493 0.106 0.975 0.285 1.461 0.364 0.071 0.014 0.151 0.021 0.234 0.021 0.245 0 0.474-0.069 0.669-0.189l-0.006 0.003c1.3-1.127 2.872-1.688 4.453-2.249 0.467-0.164 0.828-0.364 0.967-0.916 0.198-0.56 0.429-1.041 0.706-1.493l-0.020 0.034c0.052-0.102 0.114-0.204 0.168-0.306 0.066 0.128 0.186 0.252 0.19 0.364 0.018 0.668 0 1.331 0 1.998z"></path>
<path fill="#fff" d="M17.256 29.046c0-0.605 0-1.214 0-1.823 0-0.478 0.135-0.693 0.664-0.73 1.439-0.163 2.734-0.675 3.829-1.45l-0.025 0.017c1.238-0.816 2.282-1.815 3.123-2.97l0.023-0.034c0.43-0.593 0.799-1.271 1.075-1.997l0.020-0.060c0.493-1.22 0.779-2.634 0.779-4.115 0-0.062 0-0.124-0.002-0.185v0.010c-0.071-2.424-0.922-4.636-2.31-6.408l0.018 0.024c-1.535-2.057-3.78-3.51-6.366-4.001l-0.064-0.011c-0.606-0.116-0.792-0.364-0.774-0.955 0.040-1.185 0-2.37 0-3.555 0.018-0.114 0.044-0.216 0.080-0.313l-0.003 0.011c0.085 0.074 0.158 0.159 0.216 0.254l0.003 0.005c0.277 0.653 0.511 1.323 0.821 1.962 0.129 0.263 0.346 0.466 0.613 0.573l0.008 0.003c1.58 0.418 2.966 1.051 4.212 1.877l-0.052-0.032c0.169 0.080 0.313 0.18 0.438 0.299l-0.001-0.001c0.455 0.58 1.043 0.496 1.653 0.383 0.453-0.084 0.913-0.139 1.368-0.208-0.074 0.52-0.175 0.977-0.305 1.422l0.018-0.070c-0.080 0.166-0.126 0.361-0.126 0.566 0 0.382 0.16 0.726 0.417 0.969l0.001 0.001c0.457 0.576 0.828 1.247 1.080 1.972l0.014 0.048c0.431 1.093 1.008 2.187 0.982 3.423 0.007 0.41 0.287 0.752 0.665 0.855l0.007 0.002c0.803 0.321 1.61 0.624 2.416 0.934 0.048 0.017 0.107 0.031 0.167 0.043l0.009 0.001c-0.062 0.066-0.109 0.157-0.182 0.193-0.489 0.219-0.975 0.459-1.478 0.634-1.461 0.511-1.563 0.612-1.788 2.093-0.222 1.221-0.618 2.312-1.166 3.308l0.028-0.056c-0.336 0.66-0.832 1.24-1.23 1.871-0.090 0.131-0.145 0.293-0.145 0.469 0 0.035 0.002 0.070 0.007 0.105v-0.004c0.116 0.547 0.288 1.094 0.445 1.623 0.073 0.252 0.025 0.438-0.271 0.416-0.312-0.003-0.609-0.064-0.881-0.173l0.016 0.006c-0.239-0.15-0.528-0.238-0.839-0.238-0.398 0-0.761 0.145-1.040 0.387l0.002-0.002c-1.173 0.919-2.57 1.614-4.093 1.989l-0.076 0.016c-0.513 0.073-0.919 0.458-1.020 0.955l-0.001 0.008c-0.23 0.622-0.486 1.152-0.784 1.654l0.025-0.046c-0.062 0.111-0.125 0.204-0.194 0.294l0.004-0.006c-0.026-0.090-0.047-0.197-0.058-0.305l-0.001-0.007c0.017-0.637 0.027-1.275 0.029-1.914z"></path>
<path fill="#fff" d="M10.847 14.83h1.734c0.248 0 0.427-0.037 0.317 0.391-0.281 1.112-0.241 1.094 0.843 0.882 0.37-0.050 0.798-0.078 1.232-0.078 0.055 0 0.112 0 0.167 0.001h-0.009c-0.055 0.507-0.129 0.947-0.224 1.379l0.016-0.085c-0.248 0.978-0.544 1.947-0.795 2.917-0.001 0.017-0.001 0.037-0.001 0.057 0 0.158 0.028 0.308 0.080 0.448l-0.003-0.009c0.139-0.070 0.259-0.151 0.366-0.246l-0.002 0.002c0.832-0.948 1.668-1.9 2.475-2.869 0.689-0.825 1.336-1.692 2.032-2.512 0.158-0.162 0.376-0.264 0.619-0.273h0.002c1.095-0.025 2.189 0 3.284 0 0.387 0 0.364 0.109 0.306 0.481-0.113 0.823-0.393 1.562-0.802 2.211l0.014-0.023c-0.236 0.35-0.5 0.652-0.798 0.918l-0.005 0.004c-0.102 0.102-0.307 0.102-0.468 0.146 0.058-0.099 0.12-0.218 0.174-0.342l0.009-0.023c0.095-0.248 0.19-0.5 0.267-0.754 0.143-0.474-0.044-0.78-0.464-0.641-0.873 0.291-1.803 0.562-2.346 1.404-0.657 1.025-0.223 2.33 0.97 3.012 0.359 0.177 0.663 0.357 0.95 0.559l-0.023-0.016c0.139 0.109 0.175 0.364 0.259 0.536-0.156 0.065-0.336 0.112-0.525 0.131l-0.007 0.001c-1.894-0.114-3.785-0.3-5.68-0.339-1.11 0.045-2.154 0.16-3.176 0.338l0.143-0.020c-0.082 0.012-0.175 0.020-0.271 0.020s-0.19-0.007-0.282-0.020l0.011 0.001c-0.12 0-0.314-0.109-0.325-0.19 0-0.003 0-0.006 0-0.009 0-0.141 0.062-0.268 0.16-0.356h0.001c0.418-0.227 0.766-0.445 1.101-0.68l-0.035 0.023c0.408-0.3 0.745-0.673 0.995-1.102l0.010-0.018c0.438-0.951 0.573-1.608-0.73-2.4-0.466-0.268-1.005-0.503-1.573-0.674l-0.055-0.014c-0.182-0.062-0.434 0.087-0.653 0.142 0.036 0.222 0.089 0.42 0.16 0.609l-0.007-0.021c0.132 0.266 0.314 0.507 0.46 0.769 0.033 0.058 0 0.153 0 0.234-0.080 0-0.182 0-0.234-0.022-0.365-0.306-0.847-0.562-1.051-0.955-0.33-0.666-0.646-1.466-0.9-2.292l-0.031-0.118c-0.105-0.314 0.029-0.514 0.412-0.503 0.628 0.004 1.267-0.007 1.905-0.007z"></path>
<path fill="#fff" d="M13.61 14.958l0.559-2.341c0.182-0.78 0.364-1.564 0.548-2.345 0.090-0.233 0.177-0.42 0.271-0.602l-0.015 0.033c0.099-0.255 0.31-0.295 0.459-0.146 0.898 0.897 1.879 0.657 2.891 0.27 0.126-0.032 0.27-0.051 0.419-0.051 0 0 0.001 0 0.001 0-0.084 0.12-0.168 0.238-0.248 0.364-0.53 0.827-1.062 1.656-1.587 2.491-0.068 0.129-0.133 0.284-0.186 0.443l-0.007 0.023c0.156 0.046 0.336 0.073 0.522 0.073 0.001 0 0.003 0 0.004 0 0.766-0.113 1.533-0.252 2.295-0.364 0.091 0 0.186 0 0.277 0-0.009 0.097-0.035 0.186-0.075 0.268l0.002-0.005c-0.383 0.533-0.77 1.064-1.171 1.582-0.751 0.974-1.514 1.937-2.274 2.899-0.234 0.299-0.471 0.594-0.73 0.882-0.088 0.096-0.181 0.184-0.28 0.266l-0.005 0.004c0.016-0.157 0.041-0.3 0.078-0.438l-0.004 0.019c0.292-0.904 0.602-1.801 0.887-2.705 0.157-0.492 0.058-0.639-0.445-0.565-0.588 0.084-1.165 0.252-1.748 0.364-0.398 0.070-0.445 0.044-0.434-0.419z"></path>
</svg>
