<!-- Generated by IcoMoon.io -->
<svg version="1.1" xmlns="http://www.w3.org/2000/svg" width="512" height="512" viewBox="0 0 512 512">
<title>bladeborn-steelheart</title>
<path fill="#fff" d="M277.152 467.664c0.224-4.16 0.368-9.024 0.368-13.904s-0.144-9.744-0.4-14.576l0.032 0.656c-1.056-9.504 5.344-10.976 11.744-13.152 14.928-5.104 30.848-8.272 44.64-15.44 39.408-19.696 69.632-52.88 85.024-93.36l0.384-1.168c7.28-18.096 11.504-39.072 11.504-61.024 0-6.016-0.32-11.952-0.928-17.808l0.064 0.736c-3.312-32.24-15.152-61.232-33.152-85.312l0.32 0.448c-15.296-21.664-34.992-39.2-57.856-51.616l-0.88-0.448c-14.896-7.104-32.496-13.504-50.752-18.256l-2.112-0.464c-5.888-1.712-7.984-3.28-7.936-9.168 0-20.016 0-40.016 0-60.096 0.128-2.016 0.4-3.872 0.816-5.68l-0.048 0.224c1.664 1.504 3.104 3.184 4.336 5.008l0.064 0.096c3.808 7.232 7.584 15.984 10.768 25.024l0.448 1.456c1.808 7.52 7.888 13.216 15.456 14.48l0.112 0.016c27.136 7.232 50.848 19.088 71.456 34.752l-0.496-0.352c4.736 4 10.912 6.416 17.648 6.416 2.928 0 5.76-0.464 8.4-1.312l-0.192 0.048c5.456-1.584 11.040-2.88 16.576-4.176s7.456 2.176 6.288 6.624c-2.4 8.848-4.8 16-7.568 22.976l0.528-1.488c-0.624 1.552-0.992 3.344-0.992 5.232 0 3.664 1.376 6.992 3.648 9.52l-0.016-0.016c19.328 27.232 33.776 56.752 37.136 90.608 0.256 7.024 4.832 12.912 11.152 15.12l0.112 0.032 38.656 15.024c0.88 0.304 1.824 0.464 2.768 0.704-0.944 1.056-1.712 2.528-2.88 2.992-10.464 4.528-20.912 9.088-31.6 13.152-10.544 2.992-18.256 12.256-18.848 23.408v0.048c-2.72 25.152-11.808 47.792-25.6 66.768l0.288-0.4c-5.104 6.864-10.288 14.736-15.024 22.912l-0.656 1.216c-1.104 1.808-1.776 4-1.776 6.336 0 0.608 0.048 1.2 0.128 1.776v-0.064c2.064 8.736 4.64 17.6 7.28 26.048 1.648 5.28-0.4 7.984-5.392 6.992-7.712-1.36-14.592-3.52-21.056-6.448l0.544 0.224c-7.344-3.584-11.744-1.808-18.256 2.832-21.808 16.032-44.832 30.096-71.792 35.744-7.232 1.536-12.992 6.688-15.344 13.408l-0.048 0.144c-3.92 9.152-8.128 18.256-12.624 27.296-1.024 1.824-2.016 3.36-3.088 4.832l0.080-0.144c-0.496-1.808-0.88-3.968-1.104-6.176l-0.016-0.16c-0.352-9.568-0.288-19.36-0.288-29.12z"></path>
<path fill="#fff" d="M92.816 120.336c-2.112-9.040-4.112-16.432-5.456-23.952-0.176-1.712-0.256-3.68-0.256-5.68s0.096-3.984 0.288-5.936l-0.016 0.256c3.168 0.688 6.4 1.232 9.52 2.176s7.104 2.992 10.816 3.984c2.704 0.896 5.792 1.408 9.008 1.408 7.648 0 14.624-2.928 19.84-7.712l-0.016 0.016c15.776-12.928 34.752-22.544 55.552-27.552l0.96-0.208c16.8-3.984 25.952-12.32 28.976-29.344 1.056-6.176 6.336-11.728 9.696-17.248 1.472 6.016 2.64 13.216 3.264 20.608l0.032 0.528c0 14.32 0 28.688-0.992 42.944-0.736 3.328-2.992 6.016-5.984 7.36l-0.064 0.032c-12.112 4.4-24.672 7.68-36.896 11.728-37.36 13.024-64.624 38.384-85.28 71.296-12.944 21.376-21.408 46.8-23.456 74.016l-0.032 0.576c-0.656 5.584-1.024 12.048-1.024 18.608 0 41.040 14.48 78.72 38.624 108.16l-0.256-0.32c17.952 22.896 41.68 40.496 69.008 50.768l1.088 0.352c10.752 3.872 22.096 5.872 33.12 9.168 7.28 2.064 14.096 4.624 12.624 14.544-1.328 6.752-2.224 14.64-2.512 22.688v0.256c0 10.032 1.648 20.080 2.24 30.16-0.096 3.504-0.496 6.848-1.184 10.112l0.064-0.352c-2.288-2-4.24-4.288-5.808-6.848l-0.080-0.128c-2.832-5.968-5.424-13.056-7.424-20.384l-0.208-0.912c-3.232-12.912-11.744-18.192-24.144-20.832-17.728-3.888-33.376-10.928-47.056-20.528l0.416 0.288c-8.416-6.768-17.824-13.056-27.792-18.464l-0.992-0.496c-5.104-2.288-12.864 1.12-19.376 2.224-1.808 0.288-3.344 1.808-5.168 2.336-4.768 1.472-9.568 2.704-14.4 3.984 0.368-5.424 1.44-10.48 3.12-15.248l-0.128 0.4c2.608-4.928 4.128-10.784 4.128-16.992 0-8.96-3.168-17.168-8.464-23.568l0.048 0.064c-15.264-21.712-25.728-47.856-29.28-76.144l-0.096-0.832c-0.336-10.096-7.504-18.432-17.008-20.576l-0.144-0.032c-11.824-4.048-21.856-8.512-31.424-13.728l1.056 0.528c-1.216-0.8-2.256-1.744-3.152-2.784l-0.016-0.016c1.168-1.056 2.176-2.592 3.584-3.168 6.944-3.344 15.664-6.896 24.64-9.968l1.808-0.528c11.296-2.88 19.712-12.448 20.848-24.112l0.016-0.112c5.152-31.968 17.68-60.336 35.76-84.272l-0.336 0.48c2.32-3.728 4.304-8.048 5.76-12.592l0.128-0.416z"></path>
<path fill="#fff" d="M258.768 299.424c0 18.544 0 37.152 0 55.696 0 8.144 1.936 16.192 2.704 24.352 0.464 5.104 0 10.56-6.816 10.608s-7.52-5.392-6.88-10.512c6.288-46.656 1.408-93.488 2.64-140.192-0.144-10.752-1.264-21.152-3.28-31.248l0.192 1.088c-0.368-3.696-3.472-6.592-7.248-6.592-1.408 0-2.72 0.4-3.824 1.088l0.032-0.016c-5.888 3.168-11.12 18.144-7.408 24.016 6.448 10.208 3.984 18.432-2.832 27.12-2.928 4.608-5.888 10.032-8.496 15.648l-0.368 0.88c-1.504 2.176-2.416 4.848-2.416 7.744 0 3.152 1.072 6.048 2.848 8.352l-0.032-0.032c0.928 1.888 1.472 4.112 1.472 6.448s-0.544 4.576-1.52 6.544l0.032-0.096c-5.888 10.32-13.392 19.84-20.448 29.344-1.264 1.232-2.736 2.256-4.352 3.008l-0.112 0.048c0-1.872-0.816-3.984 0-5.52 3.584-7.808 7.568-15.376 11.344-23.12 3.344-6.864 5.344-13.264-3.28-18.496-1.232-1.568-1.968-3.568-1.968-5.728 0-1.088 0.192-2.112 0.528-3.088l-0.016 0.064c3.424-8.048 7.376-14.992 11.984-21.392l-0.224 0.32c5.52-7.392 6.576-14.32 0-20.656s-4.64-12.032-1.28-18.368c5.888-10.976 11.744-22 17.632-32.752 3.344-5.872 2.288-8.048-4.176-8.048h-1.12c-6.704 0-17.088 2.336-19.264-0.832-3.456-5.104-1.712-13.904-1.872-21.184 0-8.8 0-17.6 0-26.352 0-2.064 2.64-5.872 3.984-5.872 31.136 0.416 62.256 1.52 93.408 1.712 7.76 0 10.992 1.056 10.464 9.744-0.816 13.152 0 26.352 0 39.552 0 3.744-0.464 7.104-5.888 4.112-1.776-0.72-3.824-1.168-5.984-1.168-0.416 0-0.816 0.016-1.232 0.048h0.048c-16.752-0.304-16.752 0-9.28 14.784 5.168 10.272 10.464 20.48 15.456 30.816 0.72 1.408 1.168 3.072 1.168 4.832 0 3.936-2.16 7.376-5.36 9.216l-0.048 0.032c-8 5.872-6.224 11.728-1.056 18.24 3.712 4.8 6.512 10.384 9.808 15.6s8.048 11.264 0 18.432c-2.88 2.464-2.288 10.736-0.944 15.728 3.232 9.648 6.48 17.568 10.192 25.232l-0.56-1.28c0.496 1.456 0.864 3.168 1.056 4.944l0.016 0.112c-1.68-1.008-3.12-2.144-4.4-3.456-6.928-9.632-14.032-19.12-20.144-29.344-1.056-1.84-1.68-4.048-1.68-6.384 0-1.936 0.416-3.776 1.168-5.424l-0.032 0.080c5.888-7.392 3.984-12.784-0.992-19.424-2.96-4.8-6.064-10.576-8.832-16.528l-0.448-1.072c-7.008-12.256-7.104-12.192 2.288-24.48 0.592-0.688 2.176-1.584 2.112-1.712-4.768-8.384-9.696-16.656-14.576-25.008-3.712 3.936-8.816 6.336-8.976 13.264-0.528 22.832-1.824 45.6-2.768 68.368-0.352 6.336-0.128 12.224-0.128 18.080z"></path>
</svg>
