<!-- Generated by IcoMoon.io -->
<svg version="1.1" xmlns="http://www.w3.org/2000/svg" width="32" height="32" viewBox="0 0 32 32">
<title>bladeborn-thundrik</title>
<path fill="#fff" d="M14.388 2.813c0 0.636 0 1.272 0 1.908 0 0.363-0.083 0.639-0.531 0.67-1.204 0.083-2.253 0.658-3.322 1.13-0.579 0.283-1.074 0.641-1.499 1.069-0.939 0.887-1.904 1.756-2.566 2.908-0.886 1.415-1.454 3.112-1.567 4.932l-0.002 0.031c-0.008 0.158-0.013 0.343-0.013 0.529 0 1.672 0.37 3.258 1.031 4.68l-0.029-0.069c0.695 1.597 1.761 2.922 3.096 3.904l0.026 0.018c0.943 0.676 1.866 1.375 2.991 1.72 0.493 0.169 1.104 0.329 1.731 0.448l0.088 0.014c0.415 0.066 0.575 0.232 0.571 0.639 0 1.301 0 2.603 0 3.904 0 0.095-0.091 0.185-0.141 0.276-0.050-0.077-0.101-0.168-0.148-0.263l-0.008-0.017c-0.305-0.884-0.64-1.632-1.030-2.345l0.039 0.080c-0.214-0.338-0.778-0.546-1.223-0.643-1.537-0.412-2.876-1.102-4.024-2.020l0.021 0.016c-0.448-0.323-0.775-0.465-1.292-0.24-0.345 0.153-0.782 0.098-1.125 0.255-0.564 0.262-0.469-0.105-0.436-0.396 0.019-0.283 0.090-0.545 0.206-0.783l-0.006 0.012c0.465-0.8 0.135-1.454-0.309-2.112-1.007-1.407-1.689-3.113-1.903-4.96l-0.005-0.049c-0.077-0.698-0.611-0.796-1.092-1.022-0.557-0.266-1.113-0.523-1.663-0.803-0.218-0.11-0.425-0.255 0-0.425 0.55-0.226 1.092-0.498 1.641-0.705 0.652-0.241 1.052-0.531 1.146-1.36 0.245-1.654 0.821-3.135 1.66-4.432l-0.026 0.043c0.272-0.462 0.629-0.873 0.895-1.338 0.044-0.108 0.069-0.234 0.069-0.366 0-0.1-0.014-0.197-0.041-0.288l0.002 0.007c-0.116-0.52-0.27-1.029-0.421-1.538-0.112-0.363 0.091-0.415 0.364-0.363 0.252 0.029 0.482 0.093 0.695 0.188l-0.014-0.006c0.953 0.509 1.721 0.156 2.522-0.4 1.128-0.782 2.318-1.454 3.727-1.647 0.42-0.048 0.756-0.353 0.85-0.753l0.001-0.007c0.211-0.709 0.506-1.396 0.779-2.087 0.037-0.091 0.135-0.156 0.207-0.236 0.043 0.088 0.075 0.192 0.090 0.299l0.001 0.006c-0.011 0.643-0.014 1.309-0.014 1.985z"></path>
<path fill="#fff" d="M17.14 29.523c0-0.796 0.048-1.593-0.022-2.381-0.033-0.363 0.062-0.407 0.335-0.443 1.499-0.192 2.848-0.708 4.016-1.477l-0.036 0.022c1.329-0.843 2.433-1.919 3.28-3.181l0.025-0.040c0.611-0.927 1.109-1.998 1.435-3.143l0.020-0.082c0.134-0.675 0.227-1.47 0.258-2.279l0.001-0.029c0.030-0.282 0.048-0.609 0.048-0.941 0-1.532-0.369-2.977-1.022-4.253l0.024 0.054c-0.772-1.583-1.86-2.904-3.191-3.922l-0.026-0.019c-1.319-1.017-2.923-1.73-4.672-2.006l-0.059-0.008c-0.32-0.051-0.386-0.178-0.404-0.458-0.044-0.749-0.135-1.491-0.171-2.236-0.029-0.607 0-1.211 0-1.817 0.022-0.113 0.063-0.213 0.118-0.302l-0.002 0.004c0.077 0.077 0.182 0.138 0.222 0.229 0.313 0.534 0.595 1.153 0.813 1.801l0.021 0.071c0.149 0.625 0.55 0.757 1.034 0.931 1.118 0.378 2.022 0.747 2.899 1.161l-0.167-0.071c0.643 0.327 1.198 0.714 1.69 1.164l-0.006-0.005c0.23 0.2 0.532 0.322 0.864 0.322 0.171 0 0.335-0.033 0.485-0.092l-0.009 0.003c0.506-0.131 1.009-0.272 1.51-0.411-0.034 0.521-0.132 1.009-0.288 1.469l0.012-0.040c-0.401 0.84 0.054 1.454 0.451 2.058 0.933 1.325 1.566 2.925 1.768 4.657l0.005 0.048c0.012 0.494 0.337 0.909 0.786 1.052l0.007 0.002c0.648 0.218 1.277 0.494 1.904 0.767 0.218 0.113 0.405 0.234 0.58 0.37l-0.009-0.007c-0.189 0.083-0.364 0.168-0.564 0.243-0.625 0.255-1.277 0.465-1.875 0.778-0.353 0.145-0.616 0.445-0.704 0.814l-0.002 0.008c-0.302 1.294-0.484 2.643-1.212 3.81-0.436 0.702-0.826 1.436-1.292 2.116-0.148 0.175-0.238 0.405-0.238 0.654 0 0.115 0.019 0.227 0.055 0.33l-0.002-0.007c0.102 0.309 0.164 0.632 0.255 0.945 0.237 0.821 0.164 0.992-0.557 0.676-1.248-0.549-2.147-0.12-3.079 0.625-1.070 0.854-2.431 1.091-3.665 1.603-0.314 0.077-0.556 0.321-0.628 0.631l-0.001 0.006c-0.24 0.682-0.514 1.265-0.837 1.815l0.026-0.048c-0.037 0.077-0.084 0.149-0.124 0.222-0.031-0.087-0.055-0.189-0.069-0.295l-0.001-0.007c0-0.484 0-0.967 0-1.454z"></path>
<path fill="#fff" d="M19.676 19.779c0.085 0.106 0.171 0.224 0.252 0.347l0.010 0.016c0.153 0.243 0.462 0.643 0.404 0.728-0.279 0.361-0.637 0.647-1.049 0.836l-0.017 0.007c-0.346 0.13-0.623-0.233-0.797-0.571s-0.364-0.728-0.6-1.091c-0.054-0.087-0.218-0.109-0.334-0.164 0.016 0.117 0.045 0.223 0.084 0.323l-0.003-0.010c0.262 0.506 0.506 1.018 0.808 1.494s-0.069 0.614-0.338 0.753c-0.091 0.050-0.199 0.080-0.314 0.080-0.272 0-0.506-0.166-0.605-0.403l-0.002-0.004c-0.028-0.135-0.060-0.249-0.101-0.361l0.006 0.018c-0.073-0.149-0.171-0.287-0.258-0.429-0.019 0.149-0.048 0.298-0.062 0.443s0 0.182 0 0.272c0 1.218 0 1.2-1.256 1.16-0.498 0-0.728-0.189-0.702-0.698s0-1.091 0-1.632l0.131-0.083-0.080-0.080-0.084 0.131c-0.052 0.348-0.123 0.654-0.216 0.949l0.012-0.045c-0.095 0.255-0.277 0.672-0.419 0.672-0.394-0.049-0.75-0.168-1.070-0.346l0.015 0.008c-0.037 0 0-0.266 0.048-0.363 0.127-0.27 0.309-0.512 0.422-0.782s0.226-0.662 0.334-0.992l-0.033 0.037 0.207-0.4-0.025 0.037 0.207-0.4-0.029 0.037 0.214-0.214-0.029 0.033c0.918-0.581 2.224-0.502 2.911 0.182l0.087 0.298c0.037-0.029 0.106-0.077 0.102-0.087-0.053-0.095-0.106-0.174-0.161-0.251l0.005 0.007c0.048-0.196 0.091-0.396 0.141-0.593 0.12-0.465-0.077-0.676-0.538-0.68l0.037 0.029c-0.488-0.579-0.4-0.593 0.255-0.916 0.964-0.48 1.601 0.025 2.286 0.509 0.342 0.24 0.673 0.498 0.993 0.771 0.243 0.203 0.637 0.425 0.652 0.662-0.040 0.457-0.155 0.877-0.334 1.263l0.010-0.023c0 0.037-0.255 0.051-0.364 0-0.276-0.153-0.531-0.338-0.797-0.512l-0.91-0.909-0.083-0.131-0.077 0.080 0.127 0.083 0.728 0.728zM18.221 18.325l0.083 0.127 0.077-0.080-0.127-0.080-0.083-0.131-0.077 0.080zM16.692 20.524c-0.029 0.047-0.080 0.095-0.080 0.141s0.048 0.098 0.077 0.149c0.029-0.048 0.080-0.095 0.080-0.141s-0.048-0.098-0.077-0.149z"></path>
<path fill="#fff" d="M14.946 13.235c0.066 0.153 0.087 0.363 0.2 0.45 0.434 0.328 0.637 0.579-0.058 0.818-0.087 0.029-0.106 0.243-0.156 0.363l0.029-0.033c-0.335 0.411-0.652 0.844-1.019 1.225-0.082 0.054-0.184 0.087-0.294 0.087-0.077 0-0.15-0.016-0.215-0.045l0.004 0.001c-0.238-0.169-0.448-0.349-0.639-0.547l-0.001-0.002-0.083-0.131-0.077 0.080 0.127 0.083c0.185 0.938-0.364 1.421-1.092 1.786-0.238 0.139-0.44 0.28-0.633 0.434l0.011-0.009c-0.178-0.218-0.332-0.465-0.454-0.731l-0.009-0.021c-0.492-1.684-0.641-3.744 1.161-5.21 0.214-0.178 0.396-0.389 0.67-0.098-0.242 0.131-0.242 0.262 0 0.392l0.088 0.301c0.037-0.029 0.105-0.077 0.102-0.087-0.053-0.095-0.106-0.174-0.161-0.251l0.005 0.007v-0.33h0.909l-0.037-0.033 0.43 0.363 0.149-0.552-0.029 0.037 0.214-0.214-0.037 0.033c0.928-0.033 0.939-0.040 0.953-0.887 0-0.182 0-0.363 0-0.545 0-0.876 0.149-0.985 1.001-0.927 0.426 0.025 0.6 0.211 0.586 0.622 0 0.211 0 0.421 0 0.632 0 0.552-0.058 1.043 0.729 1.218 0.473 0.109 0.451 0.425 0.066 0.811-0.317 0.347-0.646 0.667-0.993 0.966l-0.014 0.012c-0.172 0.117-0.384 0.188-0.613 0.188-0.041 0-0.080-0.002-0.12-0.007h0.005c-0.245-0.066-0.458-0.168-0.647-0.302l0.006 0.004-0.546-0.545-0.364-0.182-0.083-0.131-0.077 0.080 0.127 0.083 0.364 0.182 0.364 0.363zM12.249 14.293v-0.516l0.145-0.589-0.12-0.022c-0.023 0.168-0.044 0.33-0.062 0.498-0.001 0.012-0.001 0.028-0.001 0.044s0.001 0.031 0.002 0.045v-0.002c-0.287 0.189-0.284 0.363 0 0.571-0.004 0.052-0.007 0.111-0.007 0.171s0.003 0.12 0.008 0.178l-0.001-0.008c0.032 0.107 0.072 0.2 0.12 0.287l-0.004-0.008c0.033-0.105 0.11-0.214 0.091-0.309-0.041-0.131-0.099-0.244-0.173-0.345l0.002 0.003zM14.847 14.254c-0.276-0.228-0.584-0.452-0.905-0.657l-0.038-0.023c-0.162-0.057-0.348-0.090-0.542-0.091 0.058 0.207 0.062 0.465 0.193 0.607 0.183 0.179 0.409 0.315 0.662 0.389l0.012 0.003c0.106 0.037 0.273-0.091 0.619-0.229z"></path>
<path fill="#fff" d="M13.89 19.924c-0.309 0.459-0.629 0.909-0.924 1.378s-0.498 0.552-0.99 0.255l-0.299-0.189c-0.641-0.436-0.654-0.589-0.12-1.174 0.116-0.131 0.218-0.276 0.328-0.418l0.182-0.178 0.546-0.545c0.028 0.006 0.060 0.010 0.093 0.010 0.255 0 0.463-0.206 0.463-0.462 0-0.033-0.004-0.065-0.010-0.096l0.001 0.003 0.131-0.084-0.080-0.080-0.083 0.13-1.273 1.272c-0.207 0.081-0.383 0.17-0.549 0.273l0.014-0.008c-0.463 0.338-0.506 0.33-0.75-0.211s-0.178-0.956 0.364-1.349c0.673-0.491 1.347-0.981 2.034-1.454 0.186-0.127 0.459-0.287 0.633-0.24 0.505 0.178 0.929 0.367 1.336 0.585l-0.052-0.025-0.298 0.637 0.037-0.029c-0.691 0.247-0.728 0.309-0.328 0.815 0.051 0.089 0.091 0.193 0.115 0.302l0.001 0.007 0.029-0.033-0.214 0.214 0.029-0.037-0.207 0.4 0.025-0.037-0.207 0.4z"></path>
<path fill="#fff" d="M18.967 15.409c0.729-0.709 0.448-1.566 0.364-2.4-0.016-0.124-0.024-0.267-0.024-0.412s0.009-0.289 0.026-0.429l-0.002 0.016c0.084-0.527 0.193-0.57 0.564-0.255 0.846 0.688 1.391 1.72 1.419 2.878v0.005c-0.017 0.913-0.162 1.786-0.418 2.611l0.017-0.066c-0.087 0.363-0.346 0.48-0.68 0.262-0.127-0.080-0.204-0.255-0.335-0.301-0.982-0.338-1.229-1.007-0.913-1.945z"></path>
<path fill="#fff" d="M18.997 15.376c-0.192 0.214-0.398 0.407-0.62 0.581l-0.011 0.008c-0.16 0.105-0.488 0.214-0.582 0.134-0.355-0.32-0.676-0.663-0.966-1.032l-0.014-0.018c-0.127-0.156-0.149-0.473-0.291-0.531-0.652-0.258-0.404-0.535-0.069-0.84 0.655-0.596 1.314-1.185 1.962-1.786 0.382-0.363 0.521-0.2 0.532 0.236 0.025 1.091 0.346 2.182 0.029 3.271zM18.38 13.816c-0.171-0.196-0.251-0.363-0.364-0.418-0.28-0.11-1.146 0.502-1.161 0.803 0 0.069 0.080 0.203 0.12 0.203 0.023 0.001 0.050 0.001 0.078 0.001 0.298 0 0.587-0.038 0.863-0.107l-0.024 0.005c0.168-0.062 0.291-0.291 0.488-0.487z"></path>
<path fill="#fff" d="M14.931 14.878c0.192-0.081 0.42-0.153 0.655-0.202l0.025-0.005c0.214-0.025 0.6-0.033 0.64 0.066 0.311 0.631 0.697 1.171 1.155 1.641l-0.001-0.001c0.025 0.025-0.098 0.222-0.189 0.287-0.324 0.247-0.67 0.462-0.997 0.705-0.122 0.104-0.279 0.167-0.453 0.167s-0.332-0.063-0.454-0.168l0.001 0.001c-0.25-0.198-0.53-0.392-0.823-0.569l-0.036-0.020c-0.363-0.182-0.448-0.33-0.112-0.628s0.811-0.676 0.618-1.294z"></path>
<path fill="#fff" d="M13.341 11.785c-0.185-0.229-0.328-0.535-0.567-0.67-0.517-0.291-0.364-0.579-0.029-0.807 0.361-0.232 0.793-0.474 1.238-0.692l0.079-0.035c0.382-0.204 0.557 0.054 0.666 0.334 0.17 0.433-0.048 0.883-0.502 1.192-0.091 0.058-0.131 0.189-0.193 0.291l0.037-0.033-0.214 0.214 0.029-0.037-0.579 0.189z"></path>
<path fill="#fff" d="M16.805 10.447c0-0.847 0.316-1.062 0.964-0.811 0.179 0.066 0.334 0.152 0.474 0.258l-0.005-0.003c0.299 0.24 0.841 0.564 0.801 0.728-0.084 0.363-0.488 0.636-0.764 0.945-0.037 0.044-0.12 0.098-0.142 0.087-0.452-0.272-0.835-0.537-1.201-0.823l0.026 0.020c-0.131-0.091-0.139-0.348-0.154-0.4z"></path>
<path fill="#fff" d="M14.579 17.958h2.406l-0.037-0.029c-0.039 0.116-0.080 0.33-0.127 0.33-0.691 0.022-1.387 0.022-2.078 0-0.047 0-0.087-0.214-0.127-0.33z"></path>
</svg>
