<!-- Generated by IcoMoon.io -->
<svg version="1.1" xmlns="http://www.w3.org/2000/svg" width="32" height="32" viewBox="0 0 32 32">
<title>bladeborn-briarqueen</title>
<path fill="#fff" d="M26.673 5.93c-0.105 0.518-0.242 0.968-0.414 1.4l0.019-0.054c-0.077 0.13-0.123 0.287-0.123 0.454 0 0.265 0.115 0.504 0.298 0.668l0.001 0.001c0.629 0.773 1.138 1.673 1.482 2.653l0.020 0.063c0.348 0.82 0.612 1.773 0.745 2.767l0.006 0.057c0.008 0.349 0.226 0.644 0.532 0.766l0.006 0.002c0.923 0.325 1.732 0.929 2.721 1.098 0.056 0.024 0.105 0.056 0.146 0.095-0.039 0.039-0.086 0.073-0.136 0.101l-0.003 0.002c-0.666 0.245-1.373 0.402-1.93 0.889-1.040 0-1.37 0.63-1.414 1.577-0.066 0.543-0.194 1.038-0.38 1.504l0.014-0.040c-0.15 0.543-0.332 1.010-0.555 1.455l0.021-0.046c-0.348 0.753-0.752 1.403-1.227 1.995l0.014-0.018c-0.645 0.731-0.557 1.416-0.303 2.195 0.080 0.255 0.184 0.501 0.249 0.761s-0.084 0.366-0.297 0.297c-0.454-0.128-0.909-0.26-1.355-0.414-0.126-0.059-0.275-0.093-0.43-0.093-0.255 0-0.489 0.092-0.67 0.244l0.002-0.001c-0.655 0.535-1.403 0.997-2.208 1.354l-0.063 0.025c-0.435 0.179-0.864 0.366-1.304 0.534s-0.857 0.253-1.256 0.439c-0.217 0.084-0.392 0.238-0.5 0.434l-0.003 0.005c-0.366 0.673-0.571 1.409-0.901 2.093-0.042 0.069-0.112 0.116-0.193 0.128h-0.001c-0.062 0-0.121-0.095-0.172-0.157-0.006-0.013-0.010-0.028-0.010-0.044s0.004-0.031 0.010-0.045v0.001c0.274-1.248-0.128-2.491-0.029-3.746-0.002-0.016-0.002-0.034-0.002-0.053 0-0.309 0.239-0.563 0.542-0.587h0.002c0.802-0.205 1.593-0.443 2.387-0.666 0.095-0.032 0.177-0.068 0.254-0.111l-0.009 0.004c1.597-0.794 2.94-1.872 4.012-3.18l0.016-0.021c0.366-0.465 0.674-0.948 0.996-1.434 0.341-0.538 0.614-1.161 0.782-1.825l0.010-0.045c0.011-0.095 0.034-0.181 0.068-0.262l-0.002 0.006c0.523-0.805 0.516-1.705 0.487-2.613 0-0.154 0-0.303 0-0.457 0-2.247 0.041-2.261-0.754-4.281-0.371-0.912-0.827-1.7-1.373-2.414l0.019 0.025c-0.646-0.884-1.404-1.637-2.266-2.255l-0.030-0.021c-0.546-0.366-1.098-0.731-1.673-1.097-0.084-0.040-0.182-0.063-0.287-0.063-0.028 0-0.055 0.002-0.082 0.005h0.003c-0.247-0.020-0.473-0.097-0.67-0.216l0.007 0.004c-0.478-0.205-1.042-0.383-1.627-0.503l-0.058-0.010c-0.534-0.121-0.707-0.249-0.732-0.791 0-0.395 0-0.791 0-1.186 0-0.853 0-1.705 0-2.562 0-0.070 0.066-0.136 0.107-0.204 0.058 0.023 0.107 0.055 0.15 0.095 0.114 0.151 0.22 0.323 0.311 0.504l0.009 0.019c0.212 0.486 0.428 0.977 0.604 1.482 0.118 0.379 0.434 0.663 0.825 0.73l0.007 0.001c0.872 0.177 1.645 0.452 2.363 0.818l-0.052-0.024c0.934 0.429 1.737 0.918 2.477 1.486l-0.030-0.022c0.23 0.19 0.528 0.304 0.852 0.304 0.173 0 0.339-0.033 0.49-0.092l-0.009 0.003c0.482-0.104 0.883-0.217 1.274-0.353l-0.077 0.023c0.289-0.107 0.271 0.044 0.275 0.439z"></path>
<path fill="#fff" d="M14.649 1.847c-0.058 0.307-0.15 0.713-0.209 1.127-0.004 0.046-0.006 0.101-0.006 0.156 0 0.132 0.013 0.261 0.038 0.386l-0.002-0.013c0.050 0.215 0.093 0.484 0.122 0.759l0.003 0.032c0.019 0.82 0 0.772-0.802 0.955-1.791 0.406-3.486 1.024-4.813 2.385-0.273 0.253-0.57 0.493-0.881 0.713l-0.027 0.018c-0.78 0.614-1.187 1.507-1.684 2.319-0.443 0.732-0.923 1.464-0.938 2.368-0.645 1.386-0.367 2.865-0.326 4.292 0.099 1.122 0.407 2.152 0.886 3.080l-0.021-0.047c0.664 1.47 1.597 2.711 2.745 3.71l0.012 0.011c0.683 0.622 1.455 1.164 2.291 1.6l0.060 0.028c0.216 0.095 0.493 0.196 0.775 0.282l0.056 0.015c0.666 0.281 1.459 0.533 2.279 0.714l0.094 0.018c0.238 0.044 0.315 0.157 0.296 0.366-0.080 0.896 0.136 1.8-0.136 2.7-0.099 0.336 0.091 0.754 0.132 1.134 0.009 0.068 0.014 0.147 0.014 0.227s-0.005 0.159-0.014 0.236l0.001-0.010c-0.022 0.054-0.069 0.095-0.127 0.105h-0.001c-0.077 0-0.216-0.055-0.22-0.095-0.073-0.918-0.659-1.639-0.963-2.466-0.047-0.124-0.194-0.297-0.303-0.3-0.886-0.055-1.567-0.731-2.457-0.764-0.882-0.604-1.941-0.929-2.692-1.73-0.136-0.166-0.341-0.272-0.57-0.272-0.088 0-0.171 0.016-0.248 0.043l0.005-0.002c-0.542 0.15-1.080 0.3-1.618 0.461-0.256 0.077-0.334-0.055-0.322-0.267 0.016-0.162 0.045-0.309 0.088-0.452l-0.004 0.016c0.136-0.512 0.289-1.021 0.407-1.537-0.008-0.14-0.061-0.267-0.148-0.366l0.001 0.001c-0.864-1.206-1.559-2.606-2.010-4.111l-0.026-0.1c-0.129-0.41-0.241-0.904-0.313-1.412l-0.006-0.052c-0.080-0.659-0.296-1.024-0.93-1.127-0.777-0.121-1.37-0.564-2.010-0.937-0.169-0.095-0.118-0.113 0-0.22 0.589-0.501 1.333-0.647 2.029-0.889 0.525-0.134 0.911-0.599 0.919-1.155v-0.001c0.094-0.889 0.301-1.705 0.608-2.47l-0.022 0.062c0.465-1.27 1.127-2.364 1.958-3.303l-0.010 0.011c0.122-0.111 0.199-0.27 0.199-0.448 0-0.104-0.026-0.202-0.073-0.287l0.002 0.003c-0.172-0.349-0.29-0.754-0.332-1.182l-0.001-0.015c-0.146-0.947-0.187-0.943 0.773-0.644 0.451 0.143 0.919 0.461 1.34 0.402s0.816-0.465 1.194-0.754c0.864-0.662 1.89-1.007 2.842-1.493 0.323-0.115 0.702-0.204 1.094-0.254l0.027-0.003c0.322-0.049 0.579-0.278 0.669-0.579l0.002-0.006c0.256-0.731 0.732-1.369 0.875-2.144 0-0.048 0.062-0.091 0.091-0.139 0.073 0.055 0.198 0.099 0.208 0.161 0.048 0.315 0.077 0.673 0.132 1.145z"></path>
<path fill="#fff" d="M17.894 17.52c0 0.545 0 1.098 0 1.643 0 0.202-0.058 0.435 0.249 0.509 0.037 0 0.070 0.205 0.048 0.3-0.154 0.632-0.319 1.259-0.484 1.888-0.034 0.152-0.088 0.287-0.161 0.409l0.004-0.007c-0.117 0.187-0.366 0.164-0.402-0.037-0.122-0.892-0.63-1.756-0.235-2.696 0.018-0.060 0.029-0.129 0.029-0.2 0-0.023-0.001-0.048-0.003-0.071v0.003c0-1.156 0-2.312 0-3.468 0-0.216-0.066-0.336-0.311-0.329-0.458 0-0.912 0-1.37 0-0.256 0-0.311 0.138-0.293 0.344 0.077 0.834-0.179 1.694 0.165 2.514 0.014 0.039 0.022 0.085 0.022 0.134s-0.008 0.094-0.023 0.136l0.001-0.003c-0.245 0.854-0.489 1.707-0.732 2.561 0 0.044-0.074 0.074-0.114 0.107-0.030-0.044-0.057-0.093-0.079-0.145l-0.002-0.005c-0.188-0.776-0.37-1.553-0.546-2.331-0.017-0.054-0.027-0.117-0.027-0.183s0.010-0.128 0.028-0.187l-0.001 0.005c0.337-0.791 0.114-1.617 0.165-2.422 0.029-0.486 0.066-0.538-0.567-0.523-0.274 0-0.549 0-0.82 0-0.194 0-0.527-0.124-0.542 0.146s-0.33 0.432-0.132 0.753c0.366 0.607 0.194 1.233-0.018 1.862-0.165 0.501-0.282 1.021-0.425 1.53-0.036 0.085-0.077 0.159-0.127 0.227l0.002-0.003c-0.048-0.067-0.090-0.143-0.122-0.224l-0.002-0.007c-0.183-0.68-0.395-1.361-0.52-2.053-0.064-0.219-0.101-0.47-0.101-0.73 0-0.384 0.080-0.749 0.225-1.080l-0.007 0.018c0.041-0.077-0.062-0.278-0.154-0.366-0.443-0.432-0.468-0.663-0.091-1.226 0-0.025 0.062-0.043 0.062-0.062 0-0.797 0.253-1.614-0.15-2.382-0.241-0.457-0.235-0.593 0.136-1.068 0.042-0.067 0.080-0.145 0.113-0.227l0.004-0.011c0.268-0.545 0.282-0.556 0.732-0.63s0.534 0 0.528 0.366c0 0.523 0 0.531 0.432 0.545 0.366 0 0.732 0 1.099 0 0.007 0.001 0.017 0.001 0.027 0.001 0.235 0 0.425-0.19 0.425-0.424 0-0.014-0.001-0.026-0.002-0.039v0.002c0-0.395 0-0.791 0-1.186 0-0.249 0.044-0.34 0.367-0.3 0.732 0.088 0.732 0.047 0.765 0.779 0 0.366 0.025 0.731 0.041 1.097l1.157 0.088c0.082 0.011 0.177 0.016 0.273 0.016s0.191-0.006 0.284-0.017l-0.011 0.001c0.101-0.036 0.178-0.114 0.211-0.213l0.001-0.002c0.012-0.068 0.018-0.147 0.018-0.227s-0.007-0.159-0.018-0.235l0.001 0.009c-0.047-0.732 0.172-0.571 0.612-0.593 0.297 0 0.34 0.165 0.344 0.402s-0.058 0.67 0.080 0.768c0.179 0.079 0.388 0.124 0.607 0.124 0.091 0 0.18-0.007 0.267-0.023l-0.010 0.001c0.604-0.022 1.208-0.073 1.809-0.113 0.029 0 0.052-0.037 0.080-0.043 0.056-0.018 0.122-0.027 0.188-0.027 0.249 0 0.467 0.137 0.583 0.338l0.002 0.003c0.039 0.107 0.061 0.229 0.061 0.357 0 0.211-0.061 0.408-0.167 0.573l0.003-0.004c-0.131 0.129-0.212 0.308-0.212 0.507 0 0.007 0 0.014 0 0.021v-0.001c0 0.395 0 0.791 0 1.186 0 0.282-0.037 0.531 0.264 0.786 0.105 0.126 0.168 0.289 0.168 0.466 0 0.199-0.080 0.379-0.209 0.511-0.138 0.097-0.227 0.256-0.227 0.435 0 0.031 0.003 0.062 0.008 0.091v-0.003c-0.003 0.070-0.004 0.151-0.004 0.233 0 0.455 0.048 0.899 0.139 1.327l-0.007-0.041c0.103 0.336-0.161 0.786-0.286 1.178-0.099 0.311-0.245 0.607-0.366 0.914-0.062 0.194-0.091 0.399-0.136 0.6-0.095-0.201-0.27-0.402-0.27-0.604 0-0.57-0.414-0.988-0.487-1.518-0.029-0.23-0.037-0.465-0.052-0.695 0-0.025 0.044-0.052 0.044-0.077l0.043-1.701c-0.567-0.029-1.139-0.070-1.707-0.070-0.073 0-0.212 0.194-0.216 0.3 0.022 0.564 0.033 1.145 0.033 1.72zM17.894 13.075c0 0.274 0 0.545 0 0.816 0 0.006 0 0.014 0 0.020 0 0.232 0.188 0.42 0.421 0.42 0.014 0 0.028-0.001 0.043-0.002h-0.002c0.425 0 0.845 0 1.271 0 0.074 0 0.206-0.070 0.212-0.117 0.095-0.543 0.159-1.184 0.179-1.835v-0.020c-0.040-0.303-0.296-0.535-0.607-0.535-0.008 0-0.016 0-0.024 0.001h0.001c-0.11-0.010-0.238-0.016-0.367-0.016s-0.257 0.006-0.383 0.016l0.016-0.001c-0.678 0.091-0.769 0.208-0.773 0.892 0.008 0.121 0.008 0.241 0.008 0.358zM13.833 13.177c0-0.121 0-0.241 0-0.366 0-0.706-0.245-0.958-0.945-0.999-0.179 0-0.366 0-0.542 0-0.012-0.001-0.027-0.002-0.042-0.002-0.249 0-0.451 0.202-0.451 0.45 0 0.024 0.002 0.048 0.006 0.071v-0.003c0.016 0.174 0.026 0.377 0.026 0.581 0 0.334-0.025 0.664-0.075 0.984l0.005-0.036c-0.091 0.366 0 0.428 0.275 0.468 0.081 0.005 0.175 0.009 0.27 0.009s0.19-0.003 0.284-0.009l-0.012 0.001c1.197 0.018 1.227 0.103 1.197-1.149zM16.941 13.068c0-0.241 0-0.486 0-0.731 0-0.114-0.033-0.27-0.107-0.319-0.531-0.336-1.073-0.234-1.626-0.029-0.429 0.157-0.165 0.505-0.234 0.762-0.007 0.041-0.011 0.087-0.011 0.136s0.004 0.095 0.012 0.14l-0.001-0.005c0.022 0.414 0.047 0.83 0.073 1.244l1.344 0.062h0.091c0.010 0.001 0.021 0.001 0.034 0.001 0.235 0 0.425-0.19 0.425-0.425 0-0.008 0-0.016-0.001-0.024v0.001c0.004-0.268-0.004-0.542-0.004-0.812z"></path>
</svg>
