<!-- Generated by IcoMoon.io -->
<svg version="1.1" xmlns="http://www.w3.org/2000/svg" width="512" height="512" viewBox="0 0 512 512">
<title>bladeborn-morgwaeth</title>
<path fill="#fff" d="M231.152 470.432c0 9.712 0 19.376 0 29.088-0.4 1.712-1.040 3.2-1.888 4.544l0.032-0.064c-1.056-1.232-2.048-2.576-2.896-4l-0.080-0.128c-4.464-8.048-9.088-17.792-13.072-27.856l-0.624-1.776c-2.224-6.624-6.464-8.096-11.648-10.416-19.168-8.256-40.368-11.984-57.376-25.2-1.856-1.392-4.656-1.92-5.824-3.68-13.056-15.712-29.12-14.896-46.016-8.56-2.656 0.768-5.792 1.376-9.040 1.68l-0.224 0.016c0-3.616 0-7.232 0.464-10.768 0.064-2.128 0.528-4.112 1.312-5.92l-0.048 0.112c6.464-12.688 3.92-22.88-4.080-34.912-16.624-23.36-27.792-51.712-30.976-82.416l-0.064-0.752c-0.208-5.552-3.984-10.176-9.12-11.632l-0.096-0.016c-11.248-5.168-22.544-10.352-33.728-15.648-2.208-1.248-4.112-2.592-5.888-4.064l0.064 0.048c1.536-1.616 3.248-3.040 5.136-4.24l0.112-0.064c5.136-2.608 11.632-5.408 18.288-7.872l1.392-0.448c13.12-4.416 22.192-8.96 24.768-26.592 4.944-33.216 18.88-62.528 39.216-86.176l-0.176 0.224c1.552-2.56 2.464-5.648 2.464-8.944 0-1.456-0.176-2.864-0.512-4.224l0.032 0.128c-1.52-7.856-5.008-15.296-6.768-23.28-0.992-4.304-2.224-11.168 6.768-6.336 1.984 1.056 5.184 0 7.104 0.992 16.304 9.536 29.488 3.776 43.104-6.704 14.256-10.512 31.056-18.544 49.232-23.088l0.976-0.208c12.656-2.832 22.624-12.112 26.368-24.128l0.064-0.256c3.472-10.080 6.976-18.368 10.944-26.384l-0.592 1.312c0.768-1.76 2.96-2.912 4.544-4.368 0.72 1.472 1.248 3.184 1.504 4.976l0.016 0.096c-0.864 21.648-2.032 43.248-2.736 64.88 0 6.64-3.328 8.256-9.504 10.016-20.656 5.504-38.096 11.632-54.912 18.944l2.496-0.96c-10.192 4.544-18.624 13.168-27.616 20.304-4.144 3.312-7.456 7.68-11.664 11.168-26.56 23.28-40.768 53.776-47.712 87.296-2.272 10.288-3.568 22.128-3.568 34.256 0 30.656 8.288 59.392 22.736 84.080l-0.416-0.784c12.256 22.624 28.848 41.44 48.8 55.888l0.48 0.32c13.344 8.768 28.688 16.848 44.8 23.44l1.808 0.656c7.216 2.688 16.128 5.248 25.248 7.2l1.312 0.224c4.4 0.832 7.712 4.64 7.712 9.232 0 0.416-0.032 0.832-0.080 1.232v-0.048c-0.768 10.112-0.4 20.368-0.4 30.48z"></path>
<path fill="#fff" d="M275.712 468.976c0-10.112 0-20.304 0-30.48-0.064-0.4-0.112-0.864-0.112-1.328 0-4.592 3.728-8.32 8.32-8.32 45.792-6.688 79.92-32.944 108.832-66.736 6.8-9.008 12.48-19.392 16.512-30.544l0.272-0.816c3.536-6.912 6.896-15.12 9.584-23.632l0.304-1.168c3.936-14.176 6.208-30.448 6.208-47.248 0-19.12-2.928-37.52-8.368-54.832l0.352 1.296c-9.664-32.88-29.232-60.336-55.232-79.664l-0.4-0.288c-6.992-5.008-13.92-10.080-20.976-14.896-16.464-11.024-35.984-18.896-57.008-22.288l-0.832-0.112c-6.816-1.232-7.568-3.952-7.52-9.36 0-19.84 0-39.744 0-59.6 0.256-1.776 0.656-3.36 1.216-4.88l-0.048 0.144c0.992 1.376 1.968 2.928 2.816 4.56l0.096 0.192c3.296 5.984 6.272 12.976 8.512 20.256l0.224 0.8c2.912 13.392 12.416 17.456 23.952 20.496 25.216 6.992 47.136 18.592 65.84 33.952l-0.32-0.256c4.4 3.568 10.064 5.744 16.224 5.744 3.76 0 7.344-0.8 10.576-2.256l-0.176 0.064c6.64-2.032 13.456-3.552 20.16-5.296-0.864 7.648-2.288 14.528-4.24 21.168l0.224-0.864c-1.536 3.664-2.416 7.888-2.416 12.336 0 8 2.864 15.312 7.648 20.992l-0.048-0.048c15.472 20.928 26.080 46.32 29.744 73.904l0.096 0.816c0.16 11.44 8.272 20.96 19.072 23.248l0.144 0.032c11.088 3.824 20.544 8.096 29.536 13.104l-0.912-0.464c1.040 0.448 2.384 0.944 3.792 1.376l0.288 0.080c-1.168 1.392-2.512 2.592-4 3.568l-0.064 0.048c-10.96 4.544-22.080 8.72-33.040 13.392-6.64 2.688-11.504 8.48-12.848 15.536l-0.016 0.128c-7.168 26.272-14.288 47.408-22.432 68.064l1.568-4.512c-3.344 8.336-7.984 15.504-13.776 21.568l0.032-0.032c-10.368 10.944-7.040 22.64-4.48 34.912 0.592 2.736 1.344 5.472 1.92 8.256 1.808 8.56 0 10.816-8.16 9.024-0.992-0.256-1.856-0.624-2.688-1.072l0.064 0.032c-14.384-6.928-26.16-9.248-41.36 3.152-15.664 11.664-34.048 20.688-54 26l-1.12 0.24c-12.72 3.216-22.704 12.576-26.72 24.656l-0.080 0.256c-2.912 7.328-6.944 14.256-10.432 21.296 0-7.728 0-15.488-0.4-23.28 0-3.376 0-6.752 0-10.176z"></path>
<path fill="#fff" d="M273.616 316.832c1.568 6.992 3.904 15.664 5.344 24.512 0 0.176 0 0.368 0 0.576 0 3.44-0.608 6.752-1.712 9.824l0.064-0.192c0 0.752-1.28 1.392-1.984 2.032l-24.464 23.968c-9.024-8.624-18.288-17.056-26.96-25.968-1.92-2.032-3.728-7.568-2.736-8.624 8.16-8.32 4.256-18.384 4.832-27.632s0-17.456 0-26.128c0-5.008 0.368-9.664-6.992-10.016-1.632 0-3.552-4.416-4.48-7.104-0.688-4.56-1.856-8.656-3.44-12.528l0.128 0.352c-2.032-2.912-7.456-6.528-9.664-5.808-8.864 3.552-8.624-1.28-10.896-7.568-4.416-12.624-1.456-24.544 0.528-36.72 1.344-8.432 4.144-9.776 10.72-3.68 2.384 2.64 5.824 4.288 9.648 4.288 3.312 0 6.32-1.232 8.592-3.264l-0.016 0.016c3.856-2.752 6.352-7.232 6.352-12.288 0-2.048-0.4-4-1.152-5.776l0.032 0.096c-1.952-4.512-5.2-8.144-9.28-10.544l-0.112-0.064c-5.824-3.264-3.856-3.68 0-7.232 7.568-6.864 13.568-15.536 20.912-22.752 10.368-10.352 15.84-10.256 25.76-1.28s17.472 17.456 26.096 26.368c0.4 0.4-0.752 3.488-1.68 3.776-6.464 1.92-11.648 5.808-11.648 12.512 0 0.24-0.016 0.528-0.016 0.816 0 6.016 1.952 11.568 5.248 16.080l-0.048-0.080c2.384 2.32 5.648 3.728 9.248 3.728 2.992 0 5.744-0.976 7.968-2.64l-0.032 0.032c10.784-5.808 11.648-5.808 13.92 5.808 1.008 4.384 1.6 9.44 1.6 14.624 0 8.512-1.568 16.64-4.432 24.144l0.144-0.464c-1.056 2.688-2.032 7.504-7.696 2.784s-12.288 0.64-13.52 5.808c-1.632 9.216-4.832 17.424-9.328 24.752l0.176-0.32c-5.008 7.696-3.44 19.568-5.072 31.712zM267.024 243.856c15.904 0 25.92-5.168 25.984-11.984 0-4.656-8.736-15.76-12.416-15.824-6.24 0-17.824 13.328-17.12 20.72 0.752 2.72 1.968 5.104 3.584 7.152l-0.032-0.048zM227.488 243.856l11.664-4.368c-1.584-4.416-3.216-8.080-5.072-11.616l0.224 0.496c-1.92-3.088-5.408-5.248-7.040-8.384-2.688-5.168-5.248-3.264-9.2-1.744-8.096 2.96-8.096 9.424-6.528 15.36 1.744 7.328 7.92 10.080 15.968 10.080zM231.264 311.376h0.288c0 9.12 0 18.272 0 27.456 0 1.456 2.224 2.8 3.376 4.256 1.2-1.136 2.288-2.336 3.28-3.664l0.048-0.080c1.088-1.424 1.824-3.168 2.096-5.072v-0.064c-0.736-16.72-1.664-33.376-2.8-49.984-0.512-2.192-1.312-4.144-2.368-5.904l0.048 0.096c-1.344 2.32-3.792 4.608-3.968 6.992-0.288 8.496 0 17.104 0 25.968zM248.736 316.736c0 10.112 0 20.256 0 30.368 0.416 2.768 1.12 5.248 2.112 7.6l-0.080-0.208c1.456-2.144 4.192-4.304 4.256-6.528 0.288-21.696 0-43.344 0-65.072 0-1.744-2.16-3.44-3.328-5.12-0.992 1.856-2.784 3.776-2.848 5.808-0.304 10.768-0.128 21.936-0.128 32.944zM269.664 312.192c0-10.112 0-20.304 0-30.448 0-1.392-1.92-2.688-2.976-3.952-1.056 1.328-2.912 2.688-2.96 4.016 0 19.376 0 38.704 0 58.208 0 1.328 1.92 2.624 2.96 3.952 1.056-1.328 2.912-2.688 2.976-4.080 0.112-9.424 0-18.688 0-27.872zM265.216 265.632c-4.4-6.528-8.928-12.224-13.888-17.552l0.080 0.080c-1.984-1.856-14.384 10.176-13.808 13.856 0 1.92 2.32 4.88 3.84 5.072 5.52 0.64 11.936 0.992 18.416 0.992 0.192 0 0.352 0 0.544 0h-0.032c1.104 0.224 2.224-0.928 4.848-2.384z"></path>
</svg>
