<!-- Generated by IcoMoon.io -->
<svg version="1.1" xmlns="http://www.w3.org/2000/svg" width="32" height="32" viewBox="0 0 32 32">
<title>bladeborn-garrek</title>
<path fill="#fff" d="M12.141 10.532c0.203 0.012 0.44 0.018 0.68 0.018s0.476-0.007 0.713-0.020l-0.033 0.001c0.043-0.005 0.091-0.007 0.141-0.007 0.522 0 0.976 0.294 1.204 0.725l0.004 0.008c0.215 0.304 0.446 0.572 0.699 0.815l0.002 0.002c0.276 0.283 0.48 0.268 0.686-0.091 0.313-0.475 0.695-0.874 1.139-1.196l0.013-0.009c0.225-0.179 0.514-0.287 0.828-0.287 0.093 0 0.183 0.010 0.271 0.027l-0.009-0.002c0.109 0.003 0.238 0.005 0.368 0.005 0.438 0 0.872-0.018 1.301-0.055l-0.056 0.004c0.53 0 1.065 0.058 1.591 0.116 0.109 0.033 0.195 0.113 0.236 0.215l0.001 0.003c0.196 0.646 0 1.299 0 1.949 0 0.243-0.687 0.534-1.069 0.501-0.192-0.010-0.372-0.047-0.539-0.109l0.012 0.004c-0.148-0.065-0.322-0.104-0.504-0.104-0.158 0-0.309 0.028-0.449 0.080l0.009-0.003c-0.137 0.045-0.296 0.072-0.461 0.072-0.186 0-0.362-0.033-0.527-0.093l0.011 0.004c-0.082-0.031-0.178-0.048-0.277-0.048-0.243 0-0.462 0.107-0.612 0.277l-0.001 0.001c-0.364 0.272-0.364 0.472-0.044 0.827 0.472 0.555 0.955 0.947 1.791 0.653 0.364-0.134 0.909 0.167 1.308 0.048 0.48-0.141 0.876 0.094 1.312 0.077 0.069 0 0.222 0.193 0.207 0.218-0.2 0.33 0 0.632 0.021 0.947 0.005 0.029 0.008 0.062 0.008 0.097 0 0.285-0.197 0.523-0.462 0.589l-0.004 0.001c-0.259 0.087-0.557 0.137-0.868 0.137-0.258-0.025-0.566-0.287-0.694 0.062-0.058 0.156 0.185 0.468 0.364 0.657 0.364 0.399 0.726 0.762 1.115 1.143s0.705 0.889 0.436 1.517c0 0.025 0 0.058 0 0.087-0.050 0.399-0.098 0.798-0.15 1.198l-1.337 0.091c-0.305 0-0.436-0.137-0.432-0.436 0-0.453 0-0.908 0-1.361 0-0.196-0.036-0.363-0.287-0.363s-0.364 0.131-0.364 0.385c0 0.422 0 0.846 0 1.267s-0.175 0.534-0.545 0.519-0.726 0-1.090 0c-0.305 0-0.439-0.137-0.432-0.439s0-0.665 0-0.995c0.001-0.027 0.001-0.060 0.001-0.092 0-0.158-0.010-0.314-0.028-0.467l0.002 0.018c0-0.065-0.127-0.171-0.171-0.16s-0.243 0.105-0.247 0.17c-0.025 0.482-0.040 0.966-0.025 1.452 0 0.399-0.167 0.523-0.541 0.523-1.624 0-1.547 0.069-1.529-1.426 0-0.21 0-0.421 0-0.632s-0.146-0.164-0.273-0.189c-0.181-0.036-0.2 0.039-0.196 0.178 0 0.334 0 0.668 0 0.998 0 0.012 0 0.026 0 0.041 0 0.207-0.026 0.406-0.077 0.597l0.004-0.016c-0.088 0.262-0.233 0.505-0.585 0.446-0.026-0.003-0.057-0.004-0.089-0.004s-0.062 0.002-0.093 0.005h0.004c-1.406 0-1.217 0.131-1.232-1.187 0-0.21 0-0.424 0-0.636s-0.065-0.345-0.308-0.345c-0.243 0-0.338 0.091-0.338 0.316 0 0.454 0 0.908 0 1.357 0 0.337-0.127 0.49-0.476 0.497-1.762 0.018-1.588 0.044-1.599-1.452-0.004-0.039-0.005-0.084-0.005-0.131 0-0.365 0.13-0.7 0.345-0.961l-0.002 0.003c0.381-0.447 0.632-1.002 1.177-1.318 0.135-0.113 0.243-0.253 0.317-0.414l0.003-0.007c0.080-0.135 0.138-0.279 0.207-0.421-0.146-0.048-0.32-0.085-0.498-0.108l-0.014-0.001c-0.283 0-0.574 0.062-0.854 0.036-0.364-0.029-0.599-0.178-0.552-0.613 0.021-0.193-0.098-0.395-0.098-0.595 0-0.668 0.077-0.762 0.726-0.806 0.364-0.021 0.759 0 1.141 0 0.070 0.007 0.15 0.011 0.232 0.011 0.265 0 0.52-0.040 0.76-0.113l-0.018 0.005c0.251-0.116 0.338-0.141 0.581 0.029 0.086 0.063 0.194 0.102 0.31 0.102 0.199 0 0.373-0.111 0.462-0.273l0.001-0.003c0.16-0.236 0.466-0.363 0.676-0.573 0.105-0.071 0.173-0.189 0.173-0.323 0-0.159-0.095-0.295-0.232-0.355l-0.003-0.001c-0.387-0.266-0.864-0.423-1.38-0.423-0.192 0-0.379 0.022-0.559 0.064l0.016-0.003c-0.236 0.075-0.508 0.117-0.79 0.117s-0.553-0.043-0.81-0.122l0.020 0.005c-0.122-0.028-0.263-0.045-0.406-0.045-0.046 0-0.092 0.002-0.137 0.005h0.006c-0.705-0.044-0.785-0.116-0.807-0.784 0-0.271 0-0.543 0-0.816 0-0.726 0.28-0.948 0.996-0.893 0.537 0.040 1.090 0.062 1.62 0.091zM15.121 17.066v-0.044l2.028 0.025c0.097-0.009 0.186-0.024 0.273-0.047l-0.012 0.003c-0.048-0.086-0.093-0.159-0.143-0.229l0.005 0.007c-0.323-0.388-0.654-0.769-0.977-1.153s-0.454-0.385-0.807 0c-0.218 0.243-0.462 0.465-0.687 0.725s-0.364 0.443-0.57 0.668z"></path>
<path fill="#fff" d="M17.141 29.166c0-0.603 0-1.209 0-1.814 0-0.665 0.094-0.748 0.763-0.867 0.262-0.047 0.524-0.116 0.782-0.178 1.671-0.455 3.116-1.265 4.307-2.348l-0.009 0.008c1.107-0.89 1.97-2.040 2.498-3.36l0.020-0.055c0.16-0.447 0.337-0.882 0.534-1.314 0.451-0.998 0.364-2.055 0.364-3.103 0-0.393-0.019-0.788 0-1.18 0.069-1.227-0.335-2.338-0.799-3.448-0.711-1.551-1.732-2.85-2.991-3.864l-0.020-0.016c-0.753-0.671-1.64-1.212-2.614-1.574l-0.057-0.018c-0.713-0.321-1.542-0.573-2.407-0.718l-0.059-0.008c-0.15-0.064-0.26-0.198-0.287-0.361v-0.003c-0.021-1.419 0-2.839 0-4.258 0-0.069 0.073-0.137 0.113-0.204 0.042 0.038 0.078 0.080 0.108 0.128l0.002 0.003c0.279 0.559 0.578 1.265 0.84 1.989l0.047 0.149c0.096 0.354 0.391 0.619 0.754 0.671l0.005 0.001c1.609 0.421 3.020 1.064 4.288 1.905l-0.052-0.033c0.107 0.062 0.199 0.14 0.274 0.231l0.001 0.002c0.443 0.588 1.021 0.53 1.631 0.363 0.142-0.040 0.287-0.077 0.428-0.123 0.298-0.094 0.672-0.363 0.88-0.116 0.138 0.171-0.044 0.599-0.091 0.914-0.021 0.063-0.046 0.117-0.075 0.168l0.002-0.005c-0.090 0.232-0.142 0.502-0.142 0.783 0 0.555 0.203 1.063 0.541 1.452l-0.002-0.003c0.885 1.228 1.512 2.701 1.769 4.296l0.008 0.058c0.087 0.505 0.091 1.114 0.639 1.42 0.293 0.162 0.643 0.322 1.004 0.457l0.056 0.018c0.556 0.214 1.123 0.403 1.682 0.609 0.048 0 0.080 0.069 0.12 0.105-0.040 0.041-0.085 0.076-0.135 0.104l-0.003 0.002-2.329 0.939c-0.498 0.141-0.865 0.566-0.922 1.083l-0.001 0.006c-0.162 1.005-0.415 1.905-0.757 2.757l0.030-0.086c-0.406 0.89-0.816 1.637-1.272 2.35l0.045-0.075c-0.131 0.232-0.32 0.432-0.458 0.664-0.151 0.189-0.242 0.432-0.242 0.696 0 0.141 0.026 0.276 0.073 0.401l-0.003-0.007c0.13 0.367 0.242 0.807 0.317 1.259l0.007 0.047c0.077 0.363-0.065 0.523-0.4 0.436-0.461-0.123-0.915-0.272-1.373-0.407-0.107-0.048-0.233-0.077-0.364-0.077-0.214 0-0.411 0.073-0.567 0.198l0.002-0.001c-1.179 0.973-2.584 1.723-4.12 2.158l-0.080 0.020c-0.668 0.185-1.115 0.486-1.3 1.187-0.157 0.434-0.334 0.805-0.543 1.156l0.016-0.030c-0.131 0.272-0.251 0.552-0.364 0.824-0.029-0.323-0.069-0.65-0.079-0.977-0.040-0.494-0.029-0.933-0.029-1.386z"></path>
<path fill="#fff" d="M14.492 2.881c0 0.602 0 1.205 0 1.814 0.004 0.026 0.007 0.056 0.007 0.087 0 0.317-0.256 0.575-0.573 0.577-1.168 0.232-2.203 0.588-3.17 1.064l0.075-0.033c-0.557 0.271-1.036 0.604-1.456 0.998l0.003-0.003c-0.968 0.774-1.805 1.651-2.516 2.625l-0.027 0.039c-0.882 1.267-1.239 2.697-1.65 4.119-0.080 0.427-0.127 0.919-0.127 1.422 0 0.002 0 0.003 0 0.005-0.164 1.724 0.33 3.332 0.996 4.871 0.391 0.932 0.9 1.733 1.52 2.434l-0.008-0.010c1.315 1.434 2.831 2.646 4.749 3.223 0.509 0.152 0.973 0.436 1.552 0.41 0.020-0.003 0.043-0.004 0.067-0.004 0.313 0 0.566 0.254 0.566 0.566 0 0.015-0.001 0.031-0.002 0.045v-0.002c0 1.328 0 2.657 0 3.992-0.018 0.088-0.050 0.166-0.096 0.234l0.002-0.003c-0.058-0.062-0.145-0.113-0.175-0.185-0.185-0.461-0.364-0.933-0.541-1.397-0.269-0.65-0.614-1.187-1.387-1.386-1.099-0.318-2.055-0.729-2.945-1.242l0.064 0.034c-0.589-0.312-1.090-0.726-1.639-1.064-0.269-0.167-0.458-0.305-0.81-0.164-0.398 0.144-0.886 0.279-1.387 0.378l-0.066 0.011c-0.411 0.102-0.564-0.058-0.437-0.482 0.111-0.345 0.217-0.623 0.339-0.893l-0.022 0.055c0.098-0.201 0.154-0.436 0.154-0.685 0-0.373-0.128-0.716-0.342-0.988l0.003 0.003c-0.473-0.725-0.918-1.559-1.29-2.434l-0.040-0.107c-0.423-0.845-0.718-1.827-0.832-2.864l-0.004-0.039c0.001-0.012 0.001-0.024 0.001-0.038 0-0.39-0.287-0.714-0.661-0.771l-0.005-0.001c-0.726-0.16-1.283-0.617-1.94-0.893-0.157-0.090-0.293-0.19-0.416-0.303l0.002 0.002c0.13-0.095 0.279-0.188 0.434-0.27l0.020-0.010c0.574-0.254 1.155-0.494 1.737-0.725 0.457-0.127 0.794-0.52 0.835-0.998v-0.004c0.288-1.786 0.91-3.383 1.8-4.793l-0.031 0.052c0.207-0.361 0.428-0.671 0.675-0.959l-0.007 0.008c0.154-0.171 0.248-0.4 0.248-0.65 0-0.128-0.024-0.25-0.069-0.361l0.002 0.007c-0.131-0.486-0.239-0.98-0.364-1.473-0.073-0.287 0.036-0.399 0.316-0.327 0.436 0.116 0.868 0.225 1.294 0.363 0.137 0.066 0.296 0.105 0.466 0.105 0.259 0 0.496-0.090 0.684-0.24l-0.002 0.002c0.997-0.755 2.144-1.386 3.378-1.837l0.091-0.029c0.171-0.090 0.37-0.16 0.58-0.198l0.013-0.002c0.901-0.036 1.271-0.628 1.526-1.375 0.153-0.444 0.303-0.803 0.471-1.153l-0.027 0.064c0.094-0.162 0.194-0.302 0.304-0.432l-0.003 0.004c0.050 0.163 0.090 0.357 0.114 0.556l0.002 0.017c0 0.541 0 1.089 0 1.63z"></path>
</svg>
