<!-- Generated by IcoMoon.io -->
<svg version="1.1" xmlns="http://www.w3.org/2000/svg" width="32" height="32" viewBox="0 0 32 32">
<title>bladeborn-hedkrakka</title>
<path fill="#fff" d="M17.226 29.072c0-0.634 0-1.271 0-1.907 0-0.338 0.037-0.52 0.462-0.58 1.222-0.188 2.318-0.585 3.303-1.157l-0.045 0.024c1.411-0.747 2.584-1.766 3.486-2.997l0.020-0.028c0.597-0.808 1.111-1.733 1.499-2.721l0.028-0.082c0.273-0.779 0.595-1.551 0.539-2.417-0.043-0.754-0.033-1.514 0-2.272 0.005-0.082 0.008-0.178 0.008-0.274 0-0.689-0.137-1.345-0.384-1.944l0.012 0.034c-0.433-1.041-0.75-2.155-1.457-3.040s-1.388-1.82-2.431-2.385c-0.652-0.371-1.209-0.747-1.736-1.159l0.031 0.023c-0.466-0.364-1.046-0.383-1.556-0.611-0.423-0.155-0.938-0.297-1.467-0.4l-0.068-0.011c-0.087-0.025-0.16-0.149-0.204-0.244-0.008-0.041-0.013-0.088-0.013-0.135s0.005-0.094 0.014-0.139l-0.001 0.005c0-1.274 0-2.549 0-3.815 0.014-0.126 0.043-0.24 0.083-0.349l-0.003 0.010 0.157 0.364c0.201 0.379 0.404 0.838 0.576 1.312l0.025 0.080c0.277 0.957 1.057 1.226 1.87 1.456 1.191 0.306 2.23 0.827 3.128 1.522l-0.019-0.014c0.323 0.248 0.688 0.488 1.068 0.704l0.047 0.024c0.091 0.045 0.199 0.070 0.311 0.070 0.064 0 0.126-0.009 0.185-0.024l-0.005 0.001c0.576-0.139 1.14-0.317 1.712-0.455 0.164-0.040 0.364-0.054 0.245 0.269s-0.102 0.779-0.259 1.121c-0.43 0.925 0.033 1.584 0.576 2.239 0.076 0.081 0.143 0.173 0.197 0.273l0.004 0.007c0.627 1.373 1.327 2.716 1.457 4.274 0 0.011-0.001 0.025-0.001 0.039 0 0.524 0.377 0.961 0.875 1.053l0.007 0.001c0.29 0.113 0.529 0.227 0.761 0.355l-0.032-0.016c0.524 0.2 1.057 0.364 1.589 0.557l0.16 0.069-0.149 0.157c-0.518 0.491-1.228 0.586-1.822 0.896-0.077 0.040-0.175 0.037-0.259 0.069-0.637 0.231-1.096 0.803-1.159 1.49v0.007c-0.313 1.631-0.784 3.229-1.845 4.58-0.241 0.319-0.482 0.681-0.701 1.058l-0.028 0.052c-0.021 0.058-0.034 0.126-0.034 0.197s0.013 0.139 0.036 0.2l-0.001-0.004c0.137 0.641 0.294 1.183 0.484 1.71l-0.028-0.089c0.164 0.408-0.037 0.408-0.299 0.364-0.42-0.044-0.804-0.124-1.17-0.24l0.041 0.012c-0.168-0.078-0.364-0.124-0.57-0.124-0.323 0-0.62 0.111-0.853 0.298l0.003-0.002c-0.553 0.375-1.205 0.764-1.879 1.118l-0.114 0.054c-0.697 0.398-1.507 0.702-2.367 0.866l-0.050 0.007c-0.393 0.045-0.709 0.33-0.797 0.704l-0.001 0.006c-0.244 0.699-0.591 1.362-0.896 2.039-0.035 0.047-0.075 0.086-0.122 0.119l-0.002 0.001c-0.029-0.052-0.080-0.106-0.080-0.157 0-0.696 0-1.391 0-2.089z"></path>
<path fill="#fff" d="M14.541 2.819c0 0.546 0 1.092 0 1.638s-0.040 0.505-0.554 0.753c-0.703 0.342-1.486 0.364-2.205 0.677-1.176 0.509-2.188 1.159-3.077 1.943l0.012-0.011c-0.401 0.364-0.784 0.758-1.155 1.158-0.595 0.664-1.101 1.424-1.489 2.251l-0.024 0.057c-0.308 0.707-0.589 1.551-0.798 2.424l-0.021 0.107c-0.082 0.286-0.134 0.616-0.142 0.957v0.005c-0.022 0.666 0 1.332 0 2.002 0.022 0.943 0.222 1.833 0.568 2.647l-0.018-0.048c0.498 1.686 1.428 3.116 2.662 4.211l0.009 0.008c0.581 0.577 1.226 1.091 1.922 1.53l0.046 0.027c1.005 0.579 2.004 1.183 3.207 1.271 0.204 0 0.393 0.139 0.597 0.172 0.364 0.062 0.474 0.306 0.47 0.648 0 1.332 0 2.669 0 4.005-0.014 0.093-0.043 0.176-0.082 0.252l0.002-0.005c-0.091-0.069-0.245-0.128-0.263-0.215-0.214-0.869-0.533-1.633-0.95-2.332l0.021 0.039c-0.111-0.232-0.305-0.41-0.544-0.497l-0.007-0.002c-0.332-0.12-0.697-0.145-1.035-0.255-1.175-0.411-2.193-0.941-3.118-1.595l0.039 0.026c-0.39-0.262-0.864-0.393-1.17-0.793-0.052-0.066-0.263-0.058-0.364-0.022-0.539 0.16-1.071 0.346-1.611 0.517-0.338 0.105-0.466 0.022-0.397-0.313 0.083-0.482 0.21-0.909 0.379-1.314l-0.014 0.041c0.093-0.158 0.148-0.347 0.148-0.55 0-0.295-0.116-0.561-0.305-0.757-0.689-0.83-1.043-1.857-1.501-2.825-0.37-0.852-0.628-1.839-0.726-2.873l-0.003-0.039c-0.016-0.208-0.152-0.381-0.339-0.45l-0.004-0.001c-0.561-0.269-1.115-0.546-1.673-0.822-0.157-0.077-0.321-0.143-0.474-0.222s-0.565-0.24-0.553-0.323c0.044-0.364 0.415-0.324 0.678-0.433 0.634-0.255 1.246-0.568 1.877-0.83 0.286-0.091 0.489-0.353 0.491-0.663 0.052-0.524 0.241-1.034 0.332-1.557 0.218-0.943 0.539-1.773 0.959-2.542l-0.026 0.052c0.303-0.614 0.668-1.142 1.098-1.61l-0.005 0.005c0.209-0.19 0.338-0.462 0.338-0.764 0-0.137-0.026-0.266-0.075-0.386l0.003 0.007c-0.164-0.473-0.313-0.954-0.452-1.456-0.088-0.292 0.095-0.491 0.364-0.422 0.547 0.138 1.093 0.263 1.625 0.451 0.071 0.032 0.153 0.050 0.24 0.050 0.158 0 0.302-0.061 0.408-0.16 0.549-0.421 1.167-0.817 1.818-1.158l0.070-0.033c0.805-0.432 1.739-0.805 2.719-1.070l0.094-0.022c0.36-0.065 0.648-0.316 0.763-0.648l0.002-0.007c0.255-0.63 0.521-1.263 0.791-1.889 0.039-0.083 0.149-0.139 0.222-0.207 0.058 0.091 0.16 0.182 0.164 0.273 0 0.637 0 1.274 0 1.907z"></path>
<path fill="#fff" d="M18.133 14.961c-0.75-0.277-1.457-0.23-2.019 0.364-0.251 0.266-0.452 0.244-0.659-0.022-0.506-0.648-1.144-0.594-1.822-0.364l-0.054 0.051c-0.437 0.062-0.885 0.098-1.316 0.193-0.365 0.077-0.506 0.422-0.605 0.699s-0.182 0.586-0.572 0.55c-0.432-0.020-0.777-0.376-0.777-0.811 0-0.004 0-0.008 0-0.012v0.001c0-0.058 0-0.12 0-0.178 0-0.787 0-0.801-0.787-0.983-0.266-0.062-0.441-0.171-0.481-0.448-0.11-0.746 0.802-1.82 1.559-1.762 0.303 0.055 0.564 0.202 0.761 0.411l0.001 0.001c0.197 0.193 0.062 0.433-0.12 0.637-0.073 0.083-0.116 0.323-0.066 0.364 0.124 0.102 0.364 0.222 0.46 0.171 0.179-0.071 0.386-0.113 0.603-0.113s0.423 0.041 0.615 0.116l-0.012-0.004c0.641 0.145 1.319 0.157 1.785-0.513 0.157-0.222 0.277-0.364 0.087-0.619-0.028-0.054-0.045-0.116-0.045-0.182 0-0.028 0.003-0.055 0.009-0.082v0.003c0.178-1.234-0.59-2.064-1.235-2.953-0.048-0.080-0.089-0.173-0.121-0.27l-0.003-0.010c0.126 0.014 0.237 0.031 0.345 0.055l-0.020-0.004c0.814 0.195 1.497 0.666 1.958 1.308l0.007 0.010c0.145 0.215 0.234 0.233 0.398 0.073s0.441-0.415 0.641-0.641c0.328-0.42 0.831-0.693 1.397-0.706h0.294c-0.048 0.105-0.066 0.24-0.143 0.309-0.334 0.329-0.609 0.716-0.81 1.144l-0.011 0.024c-0.186 0.325-0.296 0.715-0.296 1.129 0 0.024 0 0.048 0.001 0.072v-0.004c0.001 0.016 0.001 0.036 0.001 0.056 0 0.231-0.043 0.452-0.121 0.656l0.004-0.013c-0.030 0.062-0.048 0.135-0.048 0.212 0 0.142 0.059 0.268 0.153 0.36 0.179 0.197 0.307 0.546 0.503 0.586 0.203 0.048 0.436 0.077 0.674 0.077s0.471-0.028 0.694-0.080l-0.020 0.004c0.173-0.075 0.375-0.12 0.589-0.12 0.192 0 0.375 0.036 0.544 0.102l-0.011-0.004c0.080 0.040 0.219 0 0.317-0.052s0.364-0.095 0.157-0.339c-0.086-0.105-0.164-0.225-0.228-0.352l-0.005-0.012c-0.036-0.051-0.057-0.115-0.057-0.184 0-0.014 0.001-0.026 0.002-0.040v0.002c0.233-0.302 0.572-0.513 0.96-0.577l0.009-0.001c0.51 0.037 1.436 0.859 1.527 1.358 0.102 0.557-0.058 0.787-0.609 0.863-0.645 0.091-0.896 0.429-0.827 1.092 0.014 0.052 0.020 0.111 0.020 0.173 0 0.402-0.327 0.729-0.729 0.729-0.039 0-0.078-0.003-0.116-0.009l0.004 0.001c-0.219-0.018-0.288-0.116-0.339-0.328-0.168-0.681-0.437-0.888-1.093-0.954-0.341-0.050-0.633-0.111-0.919-0.187l0.055 0.012z"></path>
<path fill="#fff" d="M18.185 15.012c0.258 0.72 0.518 1.634 0.724 2.568l0.030 0.162c0.1 0.343 0.157 0.737 0.157 1.145s-0.057 0.802-0.165 1.175l0.008-0.030c-0.153 0.509-0.248 1.034-0.386 1.547-0.062 0.248-0.156 0.467-0.279 0.666l0.006-0.010c-0.062 0.102-0.24 0.131-0.364 0.193-0.058-0.087-0.102-0.19-0.126-0.3l-0.001-0.005c0-0.302 0-0.609 0-0.911-0.058-0.652-0.154-1.3-0.219-1.951-0.084-0.823-0.609-1.406-1.093-2.013-0.729-0.907-0.645-1.154 0.182-1.934 0.477-0.448 0.976-0.302 1.484-0.364z"></path>
<path fill="#fff" d="M13.633 14.961c0.466 0.033 0.914-0.048 1.36 0.313 0.711 0.575 0.879 1.253 0.298 1.966-0.168 0.211-0.364 0.393-0.55 0.597-0.514 0.59-0.612 1.339-0.729 2.061s-0.128 1.365-0.197 2.046c-0.036 0.17-0.083 0.319-0.145 0.46l0.006-0.015c-0.131-0.12-0.313-0.219-0.364-0.364-0.128-0.295-0.186-0.623-0.284-0.932-0.205-0.628-0.325-1.35-0.325-2.101 0-0.503 0.053-0.993 0.154-1.464l-0.007 0.045c0.032-0.598 0.163-1.157 0.377-1.672l-0.012 0.034c-0.197-0.437 0.412-0.546 0.364-0.917z"></path>
<path fill="#fff" d="M18.152 13.737c-0.035 0.006-0.075 0.009-0.116 0.009-0.386 0-0.707-0.28-0.769-0.648l-0.001-0.005c-0.095-0.302 0.095-0.896 0.437-0.99 0.947-0.259 1.604-0.888 2.245-1.562 0.037-0.033 0.124-0.062 0.153-0.043 0.043 0.036 0.070 0.090 0.070 0.15 0 0.002 0 0.005 0 0.007-0.041 0.353-0.113 0.673-0.214 0.98l0.010-0.034c-0.226 0.564-0.47 1.043-0.752 1.497l0.023-0.041c-0.24 0.382-0.539 0.797-1.086 0.681z"></path>
<path fill="#fff" d="M13.374 13.726c-0.128-0.007-0.245-0.051-0.341-0.121l0.002 0.001c-0.8-0.707-1.337-1.697-1.456-2.809l-0.002-0.020c0-0.095 0.077-0.193 0.116-0.287 0.081 0.045 0.151 0.098 0.211 0.16 0.434 0.612 1.033 1.083 1.731 1.352l0.026 0.009c0.175 0.057 0.324 0.155 0.44 0.283l0.001 0.001c0.168 0.2 0.562 0.309 0.328 0.729s-0.368 0.754-1.057 0.702z"></path>
</svg>
