<!-- Generated by IcoMoon.io -->
<svg version="1.1" xmlns="http://www.w3.org/2000/svg" width="512" height="512" viewBox="0 0 512 512">
<title>bladeborn-stormsire</title>
<path fill="#fff" d="M234.336 48.32c0 8.288-0.304 16.576 0 24.8 0.288 5.824-1.984 8.336-7.584 9.744-11.68 3.040-23.888 6.48-35.568 10.448-34.144 11.92-61.872 34.976-79.456 64.72l-0.368 0.688c-5.488 7.744-11.056 16.688-16.064 25.952l-0.704 1.408c-6.24 14.896-10.736 32.176-12.656 50.224l-0.080 0.832c-3.44 23.344 0.992 44.624 6.48 66.32 4.56 18.144 14.432 33.84 23.952 49.824 13.968 23.344 35.024 39.088 57.12 52.496 13.84 7.824 29.888 13.888 46.88 17.328l1.056 0.176c14.080 3.376 16.88 4.368 16.88 19.312 0 18.496 0 36.944 0 55.424-0.464 2.208-1.312 4.176-2.48 5.888l0.032-0.064c-0.832-1.584-1.824-3.088-2.512-4.656-4.144-7.888-8.624-17.824-12.576-28.032l-0.736-2.144c-3.568-10.976-12.208-14.128-21.424-16.512-25.456-6.592-47.616-18.032-66.48-33.376l0.32 0.24c-4.24-3.584-9.776-5.744-15.792-5.744-2.256 0-4.464 0.32-6.56 0.88l0.176-0.048c-1.584 0.592-2.864 1.152-4.128 1.808l0.224-0.096-20.256 5.824c0.832-8.544 2.448-16.336 4.768-23.824l-0.224 0.832c1.392-3.088 2.224-6.688 2.224-10.48 0-6.192-2.192-11.888-5.824-16.352l0.032 0.048c-16.624-24.336-28.56-53.232-33.808-84.384l-0.176-1.248c-1.008-7.2-6-13.024-12.656-15.184l-0.144-0.032c-10.448-4.608-20.72-9.392-31.008-14.288-1.984-1.264-3.712-2.688-5.248-4.304l-0.016-0.016c1.744-1.12 3.824-2.256 5.984-3.28l0.368-0.144c10.096-4.032 20.096-8.528 30.48-11.68 6.656-1.504 11.568-7.312 11.68-14.272v-0.016c4.496-30.080 14.784-57.072 29.712-80.864l-0.512 0.88c1.984-2.896 4.112-5.44 6.464-7.744l0.016-0.016c6.128-6.704 10.096-13.424 5.84-23.344-1.632-5.856-3.024-12.976-3.904-20.224l-0.048-0.72c-1.696-6.768 2.384-6.128 6.192-5.312 7.888 1.696 15.6 4.56 23.376 5.824 1.136 0.224 2.416 0.336 3.744 0.336 3.92 0 7.584-1.104 10.704-3.024l-0.096 0.048c20.8-18.032 45.952-27.008 71.248-35.984 7.472-2.624 13.248-5.824 15.472-14.656 3.168-8.96 6.864-16.656 11.296-23.888l-0.32 0.544c0.832-1.632 1.824-3.264 2.688-4.896 1.056 2.048 2.976 4.032 3.040 5.824 0.288 10.688 0 21.296 0 31.968z"></path>
<path fill="#fff" d="M276.096 464.736c0-9.68 0-19.424 0-29.168 0-7.648 2.16-11.088 10.624-11.68 23.024-2.608 43.744-10.8 61.264-23.2l-0.4 0.272c19.808-13.056 36.512-29.040 49.968-47.52l0.368-0.544c6.88-9.488 12.784-20.336 17.2-31.952l0.32-0.96c7.888-19.52 12.464-42.144 12.464-65.84 0-0.992 0-1.984-0.032-2.96v0.16c-1.136-38.784-14.752-74.176-36.96-102.528l0.288 0.384c-24.56-32.912-60.48-56.16-101.856-64.016l-1.024-0.176c-9.696-1.856-12.672-5.824-12.384-15.28 0.64-18.96 0-37.92 0-56.88 0.288-1.824 0.704-3.456 1.28-5.008l-0.048 0.176c1.36 1.184 2.528 2.544 3.456 4.064l0.048 0.080c4.432 10.448 8.176 21.168 13.136 31.392 2.064 4.208 5.536 7.456 9.808 9.168l0.128 0.048c25.28 6.688 47.456 16.816 67.392 30.032l-0.832-0.512c2.704 1.28 5.008 2.88 7.008 4.784l-0.016-0.016c7.28 9.28 16.688 7.936 26.448 6.128 7.248-1.344 14.608-2.224 21.888-3.328-1.184 8.32-2.8 15.632-4.88 22.752l0.288-1.12c-1.28 2.656-2.016 5.776-2.016 9.056 0 6.112 2.56 11.616 6.672 15.504l0.016 0.016c7.312 9.216 13.248 19.952 17.28 31.552l0.224 0.768c6.896 17.488 16.128 34.992 15.712 54.768 0.112 6.56 4.592 12.032 10.64 13.68l0.112 0.032c12.848 5.136 25.76 9.984 38.656 14.944 0.768 0.272 1.712 0.496 2.672 0.688l0.144 0.016c-0.992 1.056-1.744 2.512-2.912 3.088-7.824 3.504-15.6 7.344-23.648 10.144-23.376 8.176-25.008 9.792-28.608 33.488-3.552 19.536-9.888 36.992-18.656 52.928l0.448-0.896c-5.376 10.56-13.312 19.84-19.68 29.936-1.44 2.096-2.32 4.688-2.32 7.504 0 0.56 0.032 1.12 0.112 1.68v-0.064c1.856 8.752 4.608 17.504 7.12 25.968 1.168 4.032 0.4 7.008-4.336 6.656-4.992-0.048-9.744-1.024-14.096-2.768l0.256 0.096c-3.824-2.4-8.448-3.808-13.424-3.808-6.368 0-12.176 2.32-16.64 6.192l0.032-0.032c-18.768 14.704-41.12 25.824-65.488 31.824l-1.216 0.256c-8.208 1.168-14.704 7.328-16.32 15.28l-0.016 0.128c-3.68 9.952-7.776 18.432-12.544 26.464l0.4-0.736c-0.992 1.776-2 3.264-3.104 4.704l0.064-0.096c-0.416-1.44-0.752-3.152-0.928-4.88l-0.016-0.112c0.272-10.192 0.432-20.4 0.464-30.624z"></path>
<path fill="#fff" d="M173.552 237.28h27.744c3.968 0 6.832-0.592 5.072 6.256-4.496 17.792-3.856 17.504 13.488 14.112 5.92-0.8 12.768-1.248 19.712-1.248 0.88 0 1.792 0 2.672 0.016h-0.144c-0.88 8.112-2.064 15.152-3.584 22.064l0.256-1.36c-3.968 15.648-8.704 31.152-12.72 46.672-0.016 0.272-0.016 0.592-0.016 0.912 0 2.528 0.448 4.928 1.28 7.168l-0.048-0.144c2.224-1.12 4.144-2.416 5.856-3.936l-0.032 0.032c13.312-15.168 26.688-30.4 39.6-45.904 11.024-13.2 21.376-27.072 32.512-40.192 2.528-2.592 6.016-4.224 9.904-4.368h0.032c17.52-0.4 35.024 0 52.544 0 6.192 0 5.824 1.744 4.896 7.696-1.808 13.168-6.288 24.992-12.832 35.376l0.224-0.368c-3.776 5.6-8 10.432-12.768 14.688l-0.080 0.064c-1.632 1.632-4.912 1.632-7.488 2.336 0.928-1.584 1.92-3.488 2.784-5.472l0.144-0.368c1.52-3.968 3.040-8 4.272-12.064 2.288-7.584-0.704-12.48-7.424-10.256-13.968 4.656-28.848 8.992-37.536 22.464-10.512 16.4-3.568 37.28 15.52 48.192 5.744 2.832 10.608 5.712 15.2 8.944l-0.368-0.256c2.224 1.744 2.8 5.824 4.144 8.576-2.496 1.040-5.376 1.792-8.4 2.096l-0.112 0.016c-30.304-1.824-60.56-4.8-90.88-5.424-17.76 0.72-34.464 2.56-50.816 5.408l2.288-0.32c-1.312 0.192-2.8 0.32-4.336 0.32s-3.040-0.112-4.512-0.32l0.176 0.016c-1.92 0-5.024-1.744-5.2-3.040 0-0.048 0-0.096 0-0.144 0-2.256 0.992-4.288 2.56-5.696h0.016c6.688-3.632 12.256-7.12 17.616-10.88l-0.56 0.368c6.528-4.8 11.92-10.768 15.92-17.632l0.16-0.288c7.008-15.216 9.168-25.728-11.68-38.4-7.456-4.288-16.080-8.048-25.168-10.784l-0.88-0.224c-2.912-0.992-6.944 1.392-10.448 2.272 0.576 3.552 1.424 6.72 2.56 9.744l-0.112-0.336c2.112 4.256 5.024 8.112 7.36 12.304 0.528 0.928 0 2.448 0 3.744-1.28 0-2.912 0-3.744-0.352-5.84-4.896-13.552-8.992-16.816-15.28-5.28-10.656-10.336-23.456-14.4-36.672l-0.496-1.888c-1.68-5.024 0.464-8.224 6.592-8.048 10.048 0.064 20.272-0.112 30.48-0.112z"></path>
<path fill="#fff" d="M217.76 239.328l8.944-37.456c2.912-12.48 5.824-25.024 8.768-37.52 1.44-3.728 2.832-6.72 4.336-9.632l-0.24 0.528c1.584-4.080 4.96-4.72 7.344-2.336 14.368 14.352 30.064 10.512 46.256 4.32 2.016-0.512 4.32-0.816 6.704-0.816 0 0 0.016 0 0.016 0-1.344 1.92-2.688 3.808-3.968 5.824-8.48 13.232-16.992 26.496-25.392 39.856-1.088 2.064-2.128 4.544-2.976 7.088l-0.112 0.368c2.496 0.736 5.376 1.168 8.352 1.168 0.016 0 0.048 0 0.064 0 12.256-1.808 24.528-4.032 36.72-5.824 1.456 0 2.976 0 4.432 0-0.144 1.552-0.56 2.976-1.2 4.288l0.032-0.080c-6.128 8.528-12.32 17.024-18.736 25.312-12.016 15.584-24.224 30.992-36.384 46.384-3.744 4.784-7.536 9.504-11.68 14.112-1.408 1.536-2.896 2.944-4.48 4.256l-0.080 0.064c0.256-2.512 0.656-4.8 1.248-7.008l-0.064 0.304c4.672-14.464 9.632-28.816 14.192-43.28 2.512-7.872 0.928-10.224-7.12-9.040-9.408 1.344-18.64 4.032-27.968 5.824-6.368 1.12-7.12 0.704-6.944-6.704z"></path>
</svg>
