<!-- Generated by IcoMoon.io -->
<svg version="1.1" xmlns="http://www.w3.org/2000/svg" width="32" height="32" viewBox="0 0 32 32">
<title>bladeborn-chosenaxes</title>
<path fill="#fff" d="M21.667 16.204c-0.117 0.095-0.227 0.194-0.366 0.278s-0.4 0.366-0.52 0.307c-0.189-0.045-0.328-0.211-0.328-0.41 0-0.082 0.024-0.16 0.065-0.225l-0.001 0.002c0.046-0.084 0.072-0.183 0.072-0.289 0-0.341-0.277-0.618-0.619-0.618-0.003 0-0.007 0-0.010 0h0.001c-0.136 0-0.271-0.051-0.41-0.076 0.058 0.098 0.121 0.218 0.176 0.341l0.010 0.024c0.084 0.172 0.141 0.374 0.157 0.587v0.006c0 0.157-0.157 0.307-0.241 0.461-0.073-0.103-0.121-0.264-0.22-0.3-0.207-0.077-0.464-0.151-0.729-0.208l-0.041-0.008c0 0.293-0.103 0.696 0.048 0.848 0.227 0.235 0.495 0.384 0.268 0.732-0.165 0.245-0.366 0.498-0.732 0.223-0.080-0.062-0.315 0-0.417 0.074-0.878 0.669-1.542 1.464-1.482 2.659 0.033 0.622-0.029 1.215 0.311 1.829 0.395 0.731 0 1.211-0.846 1.248h-0.366c-1.194 0-1.315-0.27-1.171-1.464 0.046-0.369 0.073-0.796 0.073-1.229 0-0.644-0.058-1.274-0.171-1.885l0.010 0.064c-0.175-0.977-0.593-1.098-1.53-0.696-0.093 0.045-0.203 0.071-0.319 0.071-0.016 0-0.033-0.001-0.050-0.002h0.002c-1.333-0.128-1.721 1.043-1.303 2.294 0.029 0.084 0.058 0.171 0.095 0.256 0.080 0.187 0.169 0.366 0.256 0.556-0.246-0.012-0.477-0.056-0.697-0.126l0.019 0.006c-1.117-0.494-1.509-1.31-1.255-2.543 0.028-0.135 0.043-0.29 0.043-0.448 0-0.543-0.187-1.042-0.501-1.438l0.004 0.005c-0.348-0.476-0.077-0.538 0.286-0.505 0.277 0.060 0.521 0.155 0.746 0.281l-0.014-0.007c0.604 0.259 0.901 0.073 0.923-0.581 0.041-1.211 0.043-1.203-1.161-1.054-0.282 0.037-0.575 0.055-0.366-0.425 0.043-0.161 0.069-0.346 0.069-0.537 0-0.097-0.007-0.193-0.020-0.286l0.001 0.011c0-0.597 0.121-0.677 0.688-0.457s0.876 0.095 0.941-0.52c0.065-0.614 0.022-0.731-0.604-0.706-0.483 0.022-0.971-0.029-1.465-0.051 0.022-0.461 0.047-0.925 0.062-1.386 0.018-0.567-0.124-1.178 0.319-1.646 0.249-0.248 0.532-0.463 0.841-0.637l0.019-0.011c0.107-0.066 0.289 0 0.436 0-0.005 0.141-0.023 0.275-0.054 0.405l0.003-0.014c-0.105 0.246-0.213 0.554-0.302 0.87l-0.013 0.055c-0.024 0.071-0.039 0.155-0.039 0.241 0 0.426 0.347 0.772 0.773 0.772 0.037 0 0.073-0.003 0.109-0.008l-0.004 0.001c0.045-0.004 0.098-0.005 0.15-0.005 0.509 0 0.973 0.198 1.315 0.522l-0.001-0.001c0.231 0.216 0.652 0.439 0.967 0.084 0.217-0.259 0.39-0.563 0.504-0.895l0.006-0.020c0.037-0.099-0.161-0.311-0.286-0.435-0.243-0.254-0.394-0.6-0.394-0.979 0-0.099 0.010-0.195 0.029-0.288l-0.002 0.009c0.027-0.116 0.066-0.219 0.116-0.314l-0.003 0.007c0.116 0.052 0.215 0.105 0.309 0.166l-0.008-0.005c0.044 0.033 0.051 0.109 0.084 0.161 0.406 0.64 0.41 0.636 0.794-0.048 0.319-0.567 0.824-0.593 1.179-0.051 0.061 0.092 0.115 0.198 0.157 0.311l0.004 0.011c0.139 0.391 0.334 0.366 0.579 0.095 0.19-0.216 0.388-0.425 0.582-0.637 0.003 0.079 0.004 0.171 0.004 0.264 0 0.255-0.011 0.507-0.032 0.757l0.002-0.033c-0.037 0.188-0.111 0.354-0.215 0.498l0.003-0.004c-0.124 0.197-0.439 0.449-0.395 0.548 0.156 0.289 0.371 0.527 0.63 0.705l0.007 0.005c0.045 0.014 0.095 0.021 0.148 0.021 0.136 0 0.26-0.052 0.354-0.135h-0.001c0.161-0.204 0.11-0.67 0.571-0.325 0.012 0.006 0.028 0.009 0.044 0.009s0.031-0.004 0.045-0.009h-0.001c0.303-0.772 0.626-0.124 0.944-0.018 0.656 0.22 1.344-0.48 1.304-1.287 0.006-0.295 0.035-0.579 0.085-0.855l-0.005 0.032c0.231 0.212 0.604 0.387 0.666 0.64 0.086 0.387 0.136 0.832 0.136 1.287 0 0.133-0.004 0.264-0.012 0.394l0.001-0.017c0 0.348-0.235 0.731 0.414 0.439 0.322-0.15 0.564-0.132 0.326 0.325 0 0.025-0.037 0.074-0.025 0.084 0.674 0.768 0.509 1.866 1.072 2.678 0.068 0.085 0.114 0.192 0.124 0.309v0.002c-0.018 0.731-0.948 1.938-1.659 2.129-0.055 0.008-0.118 0.012-0.184 0.012s-0.128-0.005-0.19-0.012l0.007 0.001c0.025-0.106 0.048-0.216 0.077-0.319 0.052-0.168 0.11-0.336 0.165-0.501s0.202-0.3 0.198-0.447c0-0.088-0.212-0.169-0.33-0.253l0.077 0.482c0.091 0.070 0.095 0.128 0.103 0.19zM11.59 14.822c0 0.67-0.018 1.339 0 2.008 0 0.165 0.143 0.447 0.256 0.468 0.367 0.070 0.326-0.263 0.326-0.49 0-0.881 0-1.767 0-2.648 0-0.006 0-0.014 0-0.020 0-0.189 0.057-0.364 0.156-0.51l-0.002 0.003c0.141-0.123 0.228-0.303 0.228-0.503 0-0.23-0.115-0.432-0.292-0.552l-0.002-0.002c-0.113-0.107-0.266-0.172-0.433-0.172-0.013 0-0.024 0-0.037 0.001h0.002c-0.099 0.022-0.208 0.264-0.212 0.41 0 0.67 0.011 1.35 0.011 2.008zM21.132 15.455c-0.073 0.084-0.157 0.138-0.157 0.198s0.077 0.128 0.118 0.19c0.077-0.059 0.145-0.126 0.203-0.199l0.002-0.002c0 0-0.095-0.106-0.165-0.187z"></path>
<path fill="#fff" d="M14.699 2.724c0 0.611 0 1.219 0 1.829 0.007 0.032 0.009 0.070 0.009 0.108 0 0.309-0.239 0.562-0.543 0.584h-0.002c-0.695 0.165-1.369 0.42-2.051 0.632-1.402 0.464-2.6 1.218-3.573 2.195-1.028 1.004-1.873 2.188-2.485 3.504l-0.031 0.073c-0.827 1.829-0.934 3.658-0.824 5.575 0.080 1.464 0.666 2.784 1.322 4.072 0.864 1.687 2.234 2.89 3.793 3.907 1.064 0.688 2.313 1.197 3.651 1.453l0.065 0.011c0.366 0.077 0.68 0.179 0.67 0.677-0.022 1.28 0 2.56 0 3.841-0.024 0.116-0.062 0.219-0.113 0.314l0.003-0.006c-0.074-0.071-0.139-0.148-0.195-0.233l-0.003-0.005c-0.271-0.523-0.559-1.176-0.81-1.846l-0.043-0.133c-0.082-0.319-0.331-0.564-0.646-0.639l-0.006-0.001c-1.904-0.538-3.566-1.359-5.036-2.43l0.045 0.031c-0.154-0.156-0.368-0.252-0.606-0.252-0.131 0-0.255 0.029-0.366 0.082l0.005-0.002c-0.322 0.109-0.706 0.201-1.102 0.259l-0.038 0.005c-0.513 0.121-0.754-0.044-0.531-0.49 0.732-1.464-0.070-2.539-0.765-3.709-0.666-1.121-1.117-2.444-1.26-3.859l-0.003-0.041c0-0.001 0-0.003 0-0.005 0-0.529-0.347-0.977-0.826-1.127l-0.009-0.002c-0.732-0.27-1.439-0.589-2.153-0.9-0.319-0.139-0.337-0.336 0-0.468 0.666-0.267 1.336-0.523 2.018-0.754 0.512-0.117 0.898-0.541 0.959-1.063l0.001-0.006c0.255-2.035 1.017-3.855 2.156-5.377l-0.021 0.030c0.432-0.585 0.835-1.098 0.271-1.829-0.062-0.077 0-0.237-0.037-0.366-0.066-0.366-0.136-0.702-0.205-1.054 0.367 0.055 0.707 0.084 1.051 0.168 0.289 0.070 0.561 0.241 0.85 0.282 0.052 0.007 0.111 0.011 0.171 0.011 0.213 0 0.413-0.048 0.593-0.135l-0.008 0.004c1.098-0.596 2.197-1.262 3.296-1.829 0.459-0.186 1.027-0.369 1.609-0.514l0.093-0.019c0.18-0.070 0.324-0.199 0.412-0.361l0.002-0.004c0.334-0.732 0.63-1.463 0.952-2.195 0.025-0.062 0.121-0.091 0.188-0.136 0.033 0.077 0.095 0.15 0.095 0.227 0 0.64 0 1.281 0 1.921z"></path>
<path fill="#fff" d="M17.317 29.163c0-0.578 0.033-1.16 0-1.738-0.037-0.465 0.198-0.633 0.582-0.761 1.339-0.379 2.435-0.765 3.5-1.21l-0.204 0.076c1.359-0.622 2.369-1.697 3.35-2.828 1.105-1.305 1.884-2.92 2.189-4.698l0.009-0.059c0.301-1.625 0.396-3.377-0.322-5.005-0.366-0.842-0.692-1.709-1.098-2.535-0.656-1.347-1.765-2.286-2.93-3.201-1.265-0.971-2.794-1.667-4.459-1.966l-0.063-0.010c-0.309-0.007-0.558-0.259-0.558-0.57 0-0.035 0.003-0.069 0.009-0.103l-0.001 0.004c0-1.251 0-2.498 0-3.75 0.016-0.117 0.046-0.224 0.087-0.324l-0.003 0.009c0.080 0.073 0.19 0.132 0.231 0.223 0.308 0.548 0.601 1.193 0.84 1.864l0.028 0.090c0.105 0.414 0.459 0.721 0.89 0.754h0.003c1.756 0.396 3.29 1.171 4.573 2.239l-0.018-0.014c0.232 0.215 0.543 0.347 0.886 0.347 0.221 0 0.43-0.055 0.612-0.152l-0.007 0.004c0.311-0.143 0.678-0.268 1.058-0.357l0.040-0.008c0.241-0.055 0.534-0.037 0.301 0.366-0.084 0.146 0 0.384-0.091 0.531-0.67 1.127-0.223 2.082 0.443 3 0.861 1.237 1.435 2.733 1.597 4.351l0.003 0.039c0.009 0.504 0.321 0.932 0.761 1.113l0.008 0.003c0.732 0.303 1.487 0.626 2.23 0.944 0.091 0.041 0.183 0.091 0.274 0.138-0.070 0.058-0.128 0.146-0.208 0.175-0.696 0.266-1.393 0.528-2.091 0.787-0.495 0.145-0.865 0.561-0.94 1.072l-0.001 0.007c-0.118 1.175-0.452 2.248-0.961 3.216l0.023-0.048c-0.436 0.812-0.732 1.756-1.336 2.404-0.655 0.702-0.26 1.314-0.223 1.975 0 0.084 0.091 0.161 0.103 0.245 0.033 0.253 0.048 0.505 0.066 0.754-0.227-0.041-0.454-0.070-0.678-0.124-0.258-0.043-0.49-0.115-0.705-0.215l0.016 0.007c-0.166-0.099-0.366-0.158-0.58-0.158-0.324 0-0.618 0.134-0.826 0.35-1.322 1.098-2.896 1.672-4.493 2.195-0.377 0.086-0.672 0.365-0.781 0.725l-0.002 0.008c-0.227 0.647-0.549 1.262-0.839 1.888-0.029 0.066-0.124 0.102-0.19 0.154-0.033-0.070-0.099-0.139-0.099-0.208 0-0.67 0-1.339 0-2.008z"></path>
</svg>
