<!-- Generated by IcoMoon.io -->
<svg version="1.1" xmlns="http://www.w3.org/2000/svg" width="512" height="512" viewBox="0 0 512 512">
<title>card-decks-twist</title>
<path fill="#fff" d="M93.952 511.92c-3.568-1.264-3.36-5.872 0.416-9.008 1.68-1.472 3.136-4.4 3.136-6.288 0-4.192 6.288-17.392 9.008-18.432 0.832-0.416 1.472-2.72 1.472-5.024 0-4.4 5.456-15.296 10.064-20.112 1.264-1.472 2.512-4.608 2.512-6.912s1.056-3.568 2.096-2.928c1.264 0.832 2.096-1.056 2.096-3.984s0.832-5.44 1.888-5.44 4.192-3.568 6.704-7.76c2.72-4.4 5.664-8.176 6.496-8.592s1.68-2.512 1.68-4.608c0-1.888 1.472-4.816 3.136-6.288s3.136-4.4 3.136-6.496c0-2.096 1.056-4.4 2.096-5.024 1.264-0.624 2.096-3.136 2.096-5.44s1.472-4.608 3.136-5.232c1.68-0.832 3.136-2.928 3.136-5.024 0-5.024 9.424-15.504 12.576-13.616 1.264 0.832 1.888 2.72 1.264 4.4s-0.208 2.928 0.832 2.928c1.264 0 2.096 1.264 2.096 2.928 0 3.776 1.264 4.608 10.064 6.496 5.232 1.056 6.704 0.624 6.704-1.888 0-1.888 1.472-3.36 3.136-3.36s3.136-1.264 3.136-2.72c0-1.68 2.304-4.192 5.232-5.664s5.232-3.984 5.232-5.664c0-1.472 1.056-2.72 2.304-2.72 1.472 0 4.4-2.096 6.912-4.608 4.192-4.608 4.608-4.608 11.312-1.472 4.192 2.304 5.872 3.984 4.192 4.608-1.472 0.624-0.208 1.264 2.72 1.264 3.36 0.208 6.080 1.68 6.912 3.984 0.624 1.888 2.304 5.024 3.568 6.912 2.096 2.928 1.264 4.816-4.816 11.104-3.984 4.192-7.968 7.536-8.8 7.536-1.888 0-7.536 5.44-7.536 7.12 0 0.624-2.096 3.568-4.608 6.496s-4.816 6.496-5.024 8.176c-0.416 2.72 9.632 7.968 21.168 10.688 3.568 0.832 5.024 2.096 3.776 2.512-1.472 0.624-2.72 2.304-2.72 3.984s-2.096 3.984-4.608 5.024c-2.72 1.264-6.288 2.928-7.968 3.984s-5.872 3.136-9.424 4.608c-3.36 1.68-7.536 4.192-9.008 5.664-1.472 1.264-4.4 2.512-6.080 2.512-4.608 0-19.488 6.704-19.488 8.8 0 0.832-1.472 1.68-3.136 1.68-3.36 0-24.72 12.368-25.776 15.088-0.416 0.832-2.096 1.68-3.776 1.68-2.72 0-7.76 2.512-22.848 11.952-2.304 1.472-8.176 4.608-12.992 6.912-5.024 2.512-9.008 5.232-9.008 5.872-0.208 3.36-7.536 10.272-9.856 9.424z"></path>
<path fill="#fff" d="M421.056 503.328c1.68-2.928-6.704-8.8-12.368-8.8-2.928 0-5.232-0.832-5.232-2.096 0-1.056-3.36-2.512-7.328-3.36-3.984-0.624-7.328-2.096-7.328-3.136s-1.264-1.888-2.928-1.888c-1.68 0-3.36-1.472-4.192-3.136-0.624-1.68-2.512-3.136-4.192-3.136-4.4 0-16.128-6.496-21.584-11.952-2.512-2.72-6.496-4.816-8.8-4.816s-4.608-0.832-5.232-1.888c-0.624-1.056-4.608-2.512-8.592-3.136-3.984-0.832-7.328-2.304-7.328-3.36 0-1.264-2.304-2.096-5.024-2.096-2.928 0-5.664-0.832-6.496-1.888-0.624-1.264-5.664-4.192-11.104-6.912s-10.064-5.44-10.48-6.288c-0.416-1.056-2.096-1.68-3.568-1.68-1.68 0-3.568-0.832-4.192-2.096-1.68-2.72 2.512-10.48 5.872-10.48 1.472 0 4.816-1.888 7.76-4.192 4.192-3.136 4.816-4.4 2.72-6.496-1.472-1.472-2.72-4.4-2.72-6.496s-1.472-3.776-3.136-3.776c-1.68 0-3.136-1.472-3.136-3.136s-0.832-3.136-2.096-3.136c-2.72 0-12.368-10.064-10.896-11.312 0.624-0.624-1.472-1.264-4.608-1.264-3.36 0-5.232-0.832-4.4-2.096 0.624-1.056-0.416-2.096-2.72-2.096s-6.496-3.568-9.856-8.384c-3.136-4.608-6.704-8.384-7.536-8.384-3.984 0-1.68-3.984 2.928-4.816 2.512-0.416 1.472-0.624-2.304-0.208-5.456 0.416-7.328-0.416-8.592-3.568-0.832-2.304-2.304-4.4-3.36-4.608-1.264-0.208-1.888-1.056-1.68-1.888 0.416-1.056-0.416-1.68-1.68-1.68s-6.080-3.776-10.48-8.384c-4.608-4.608-8.8-8.384-9.424-8.384-1.472 0-7.12-5.664-7.12-7.12 0-0.624-6.080-7.328-13.616-14.88s-13.616-14.032-13.616-14.464c0-1.888-12.992-13.824-14.88-13.824-1.056 0-1.888-1.056-1.888-2.304s-1.472-3.568-3.136-5.232c-5.232-5.44-3.568-9.856 8.384-22.848 6.288-6.912 11.52-13.824 11.52-15.088 0-1.472 2.304-3.136 5.232-3.984 2.72-0.624 5.664-3.136 6.496-5.456 1.472-4.816 12.576-16.352 15.504-16.352 1.264 0 2.096-1.056 2.096-2.304 0-2.72 3.136-5.664 12.16-12.16 5.664-3.984 6.912-4.192 7.968-1.68 0.624 1.888 3.36 3.776 6.288 4.4 3.136 0.832 5.024 2.928 5.024 5.456 0 2.304 1.472 4.192 3.136 4.192 3.36 0 6.496 8.8 4.4 12.16-0.624 1.264-2.928 1.68-5.024 1.056-3.984-1.056-19.28 11.312-19.28 15.504 0 1.056-3.776 5.872-8.384 10.688-4.608 4.608-8.384 9.216-8.384 9.856 0 0.832-1.472 2.72-3.136 4.4-3.984 3.984-3.984 8.176 0 12.16 1.68 1.68 3.136 3.984 3.136 5.232s1.472 2.304 3.136 2.304c1.68 0 3.136 1.472 3.136 3.136s1.056 3.136 2.096 3.136c1.264 0 8.8 6.288 16.768 14.256 21.168 20.32 27.248 25.568 29.552 25.568 1.264 0 1.472 1.056 0.832 2.096-0.624 1.264 0.624 2.096 2.928 2.096 2.512 0 4.192 1.056 3.776 2.512-0.208 1.472 1.056 2.512 2.72 2.72 1.68 0 3.136 1.056 3.136 2.096 0 1.888 23.264 26.192 25.152 26.192 0.416 0 4.816 3.776 9.632 8.384s10.064 8.384 11.728 8.384c1.472 0 2.72 1.472 2.72 3.36 0 2.304 1.68 2.928 6.704 2.512 5.44-0.416 7.536-2.304 10.896-8.592 4.608-8.592 10.272-9.632 11.312-1.888 0.416 2.512 1.68 4.608 2.72 4.608s1.888 1.68 1.888 3.776c0 1.888 2.304 6.080 5.232 9.216 2.72 2.928 5.664 7.968 6.496 10.896 0.624 2.928 2.096 5.44 3.136 5.44s1.888 1.68 1.888 3.984c0 2.096 1.472 5.024 3.136 6.496s3.136 4.4 3.136 6.496c0 2.304 0.832 3.984 1.68 3.984 1.056 0 3.568 3.568 5.872 7.76 2.096 4.4 5.232 9.216 6.704 10.688 1.264 1.472 2.512 4.192 2.512 5.872s1.056 2.928 2.096 2.928c1.264 0 2.096 1.472 2.096 3.136s1.68 3.136 3.776 3.36c2.096 0 2.512 0.624 1.056 1.264-1.472 0.416-2.72 1.888-2.72 2.928 0 1.264 1.056 1.472 2.096 0.832 1.264-0.624 2.096 0.624 2.096 2.928 0 2.72 1.472 4.4 3.776 4.4 2.928 0 3.136 0.416 0.416 2.096-2.512 1.68-2.096 2.096 2.096 2.304 2.928 0 3.984 0.624 2.512 1.264-2.096 0.832-1.888 1.888 1.056 4.192 2.096 1.68 2.72 2.512 1.264 1.888-3.36-1.68-0.624 7.76 2.928 9.856 3.776 2.304 3.568 9.856-0.624 9.856-1.68 0-2.72-0.832-2.096-1.68zM247.76 212.272c-0.832-0.624-1.472 0-1.472 1.472s0.624 2.096 1.472 1.472c0.624-0.832 0.624-2.096 0-2.928z"></path>
<path fill="#fff" d="M422.944 488.864c0.832-0.624 2.096-0.624 2.928 0 0.624 0.832 0 1.472-1.472 1.472s-2.096-0.624-1.472-1.472z"></path>
<path fill="#fff" d="M239.168 430.624c0.832-1.68 1.68-3.136 2.096-3.136s0.832 1.472 0.832 3.136c0 1.68-0.832 3.136-2.096 3.136-1.056 0-1.472-1.472-0.832-3.136z"></path>
<path fill="#fff" d="M347.92 362.512c0.624-1.056 1.68-2.096 2.304-2.096s0.416 1.056-0.208 2.096c-0.624 1.264-1.68 2.096-2.304 2.096s-0.416-0.832 0.208-2.096z"></path>
<path fill="#fff" d="M284.64 329.2c-5.024-4.192-6.704-7.968-2.304-5.232 1.472 0.832 1.68 0.624 0.832-0.832s-2.928-2.512-4.608-2.512c-1.68 0-2.928-0.832-2.928-2.096 0-1.056-1.472-2.096-3.136-2.096-1.888 0-3.136-1.888-3.136-4.4 0-4.192 8.8-14.88 26.816-31.856 4.816-4.608 8.8-9.856 8.8-11.728 0-2.72 0.416-2.72 1.888-0.624 1.472 2.304 2.096 2.096 3.136-0.624 2.72-7.12 1.056-11.52-8.176-21.168-5.232-5.232-9.424-10.272-9.424-11.104 0-0.624-6.912-7.328-15.088-14.88-22.848-20.752-31.216-29.552-29.76-31.648 0.624-1.056 0-1.888-1.264-1.888-3.568 0-9.424-6.288-5.872-6.288 1.472-0.208-1.264-2.096-6.080-4.608-5.024-2.304-9.008-5.456-9.008-7.12s-1.056-2.928-2.096-2.928c-2.512 0-5.232-2.096-14.672-10.896-3.136-3.36-6.912-5.872-8.176-5.872s-2.304-1.472-2.304-3.136c0-1.68-1.472-3.136-3.136-3.136s-3.136-0.624-3.136-1.68c0-2.512-21.376-6.704-41.28-8.176l-18.432-1.264-12.576-12.992c-6.912-6.912-15.296-14.464-18.864-16.768-3.36-2.096-10.688-7.536-15.92-11.952s-10.688-7.968-11.952-7.968c-1.472 0-2.512-1.472-2.512-3.136s-1.056-3.136-2.304-3.136c-3.36 0-8.592-6.080-7.12-8.384 1.888-3.136 34.576-2.512 40.864 0.624 4.4 2.304 6.704 2.304 13.408 0 4.4-1.472 9.856-2.72 11.952-2.72 3.776 0 3.984-2.096 3.984-30.384 0-16.768 0.416-30.384 1.056-30.384s4.608 3.776 9.216 8.384c4.4 4.608 9.216 8.384 10.48 8.384s2.096 1.056 1.68 2.512c-0.208 1.472 1.056 2.72 2.72 2.72s2.928 1.264 2.72 2.72c-0.416 1.472 0.832 2.512 2.512 2.512s3.136 1.888 3.136 3.984c0 2.304 7.536 11.52 16.768 20.96 15.92 15.92 16.768 17.184 16.768 26.192 0 5.024 1.264 10.688 2.72 12.16 1.264 1.472 2.72 5.44 2.928 8.8s1.264 6.704 2.304 7.328c1.056 0.624 2.928 3.136 4.192 5.456 1.264 2.512 4.816 5.664 8.176 7.328 3.136 1.68 11.104 7.968 17.392 13.824 25.984 24.304 30.176 28.080 31.648 28.080 0.832 0 2.096 2.304 2.72 5.232 0.832 2.928 2.72 5.232 4.192 5.232 1.68 0 10.688 7.536 20.32 16.768 9.424 9.216 18.016 16.768 18.864 16.768 1.056 0 1.888 0.832 1.888 2.096 0 2.72 11.952 14.672 14.672 14.672 1.056 0 2.096 0.832 2.096 1.888s4.608 6.496 10.272 12.16c13.824 13.616 15.088 19.072 6.704 27.664-3.568 3.776-6.496 7.12-6.496 7.536s-3.776 4.816-8.176 9.424c-4.608 4.816-9.856 12.16-11.728 16.128-2.72 5.664-3.984 6.704-5.44 4.608-1.472-2.304-1.888-2.096-1.888 0.832 0 1.888-1.472 3.568-3.136 3.568s-3.136 1.056-3.136 2.304c0 2.304-17.184 20.752-19.072 20.752-0.416-0.208-2.928-1.888-5.44-3.984zM254.048 189.232c-0.832-0.624-2.096-0.624-2.928 0-0.624 0.832 0 1.472 1.472 1.472s2.096-0.624 1.472-1.472z"></path>
<path fill="#fff" d="M282.752 169.104c-0.624-1.888-2.72-3.568-4.4-3.568s-2.304-0.832-1.68-2.096c0.624-1.056 0.208-2.096-0.832-2.096-3.776 0-10.688-8.176-10.688-12.576 0-2.512 1.888-4.608 5.024-5.456 2.72-0.624 5.44-2.928 6.080-5.232 0.624-2.096 2.72-4.608 5.024-5.456 2.096-0.832 9.008-6.912 15.712-13.616 11.104-11.312 11.952-12.784 12.784-24.096 2.512-29.328 6.912-40.224 16.768-40.448 3.776 0 11.952-7.12 11.952-10.48 0-1.056 5.024-7.12 11.104-13.2 13.2-13.616 20.32-22 20.32-23.68s6.704-6.912 9.008-7.12c0.832 0 1.472 1.888 1.472 4.192s-0.832 4.192-1.888 4.192c-2.928 0-2.928 44.624 0 51.136 2.096 4.192 4.192 5.44 10.064 5.872 13.2 0.624 32.688-0.832 34.784-2.512 3.776-3.136 25.984-4.192 27.456-1.472 0.832 1.472 0.832 1.888-0.208 1.056-1.472-1.472-7.328 2.928-7.328 5.664 0 1.888-6.496 8.384-8.8 8.592-0.832 0.208-2.304 0.416-3.136 0.624-1.056 0-5.44 3.568-9.856 7.536-4.608 3.984-9.008 7.328-10.064 7.328-0.832 0-1.68 1.472-1.68 3.136s-1.264 3.136-2.928 3.136c-1.472 0-10.272 7.328-19.488 16.352l-16.56 16.56-17.6 1.264c-27.664 1.888-32.272 4.4-56.992 28.288-9.856 9.424-12.16 11.104-13.408 8.176z"></path>
<path fill="#fff" d="M446.4 69.152c0.624-1.056 1.68-2.096 2.304-2.096 0.416 0 0.832 1.056 0.832 2.096 0 1.264-1.056 2.096-2.304 2.096-1.056 0-1.472-0.832-0.832-2.096z"></path>
</svg>
