<!-- Generated by IcoMoon.io -->
<svg version="1.1" xmlns="http://www.w3.org/2000/svg" width="512" height="512" viewBox="0 0 512 512">
<title>card-decks-victory</title>
<path fill="#fff" d="M258.208 510.496c0.384-1.344-1.344-3.456-3.648-4.608-2.688-1.152-4.416-3.648-4.416-6.144s-0.768-4.416-1.728-4.416c-0.96 0-2.304-2.496-3.072-5.76-0.768-3.072-2.112-6.144-3.072-6.72-0.96-0.768-1.728-3.264-1.728-5.568 0-2.496-1.344-5.568-2.88-6.912-1.92-1.536-2.88-5.76-2.88-11.904 0-5.76-0.768-9.024-1.92-8.256s-1.92-2.112-1.92-7.104c-0.192-36.864-2.496-83.904-4.224-87.552-1.728-3.264-1.728-4.8 0-6.528 2.88-2.88 3.072-9.6 0.192-12.48-1.344-1.344-1.536-8.064-0.768-19.968 1.728-26.112 1.92-164.72 0.192-172.016-1.152-4.224-0.96-6.336 0.576-6.336 1.152 0 2.112-1.344 2.112-2.88 0-2.688 3.264-3.84 9.216-3.072 1.344 0.192 2.304-1.728 2.304-4.608 0-4.608-0.192-4.8-13.824-4.8-20.736 0-27.072 2.688-10.176 4.032l13.44 0.96-14.784 0.384c-9.6 0.192-14.976 1.152-14.976 2.496 0 1.536-1.152 1.344-3.264-0.384-2.88-2.304-3.072-2.304-1.728 1.152 0.96 2.88 0.768 3.264-0.96 1.536s-1.344-4.032 1.92-10.176c2.304-4.416 3.648-8.64 3.072-9.792-0.576-0.96 0.192-1.152 1.728-0.576 1.728 0.576 3.072 0.192 3.072-1.152 0-1.152 0.768-1.728 1.728-0.96 0.96 0.576 2.304 0.192 3.072-0.96 0.576-0.96 6.528-1.92 13.056-1.92 10.176 0 12.288-0.576 14.4-4.032 1.92-2.88 2.112-4.608 0.576-6.144-2.688-2.688-2.688-10.368 0-11.328 1.152-0.384 2.88-7.104 3.648-14.976 0.96-7.872 2.688-19.392 3.84-25.536 1.92-9.6 1.728-11.904-0.768-14.592-3.456-3.84-4.224-21.312-1.152-21.312 1.152 0 1.92-2.112 1.92-4.8 0-4.416 0.768-4.8 8.64-4.8s8.64 0.384 8.64 4.8c0 2.688 0.768 4.8 1.728 4.8 2.496 0 8.64 13.632 6.72 15.168-5.376 3.84-10.752 21.312-6.72 21.312 0.768 0 2.112 6.336 2.688 14.208 0.768 7.68 2.112 16.512 3.264 19.2 0.96 2.88 1.92 9.024 1.92 13.824v8.448h7.68c4.416 0 7.68 0.96 7.68 2.112 0 1.536-2.496 1.92-7.104 1.152-4.992-0.96-6.336-0.576-4.416 0.576 1.536 0.96 6.912 1.92 11.712 1.92 12.48 0 24.768 7.104 24.768 14.208 0 1.92 1.152 2.496 3.456 1.728 2.496-0.768 2.304-0.384-0.768 1.92-4.032 3.072-12.288 2.496-12.288-0.768 0-0.96-5.568-1.728-12.48-1.728-7.104 0-12.48 0.768-12.48 1.92s0.768 1.92 1.536 1.92c0.768 0 3.072 5.952 4.992 13.44 2.688 10.368 2.88 14.784 1.344 19.584-1.344 4.224-2.112 56.448-2.496 151.28-0.384 102.896-1.152 146.096-2.688 148.784-3.072 5.568-9.6 26.496-8.832 28.8 0.384 1.152 0 1.152-0.768 0.384-1.92-1.92-8.448 11.328-8.448 17.088 0 2.496-0.96 4.992-1.92 5.568-1.152 0.768-1.728 0.192-1.536-1.152z"></path>
<path fill="#fff" d="M359.184 486.304c-1.92-0.576-3.456-1.728-3.456-2.688 0-1.152 1.344-1.152 3.648 0.192 2.688 1.344 4.032 1.152 4.608-0.576 0.768-1.728 1.152-1.728 1.152 0 0.192 2.88-1.92 4.032-5.952 3.072z"></path>
<path fill="#fff" d="M158.56 477.664c-0.192-2.304 0.96-5.76 2.688-7.68 1.536-1.728 2.496-4.608 1.92-6.144s0.192-3.264 1.728-3.84c1.728-0.576 2.304-1.92 1.728-3.072-0.576-0.96-0.192-1.92 0.768-1.92 1.152 0 1.92-0.576 1.728-1.344-0.384-0.96 1.152-3.456 3.264-5.76 4.224-4.992 10.56-5.952 10.56-1.536 0 1.536 0.96 2.88 1.92 2.88 1.152 0 3.84 1.92 5.952 4.032 3.456 3.456 3.84 4.992 2.112 7.68-1.536 2.496-1.536 3.648 0.192 4.224 1.344 0.576 0.192 1.152-2.304 1.152-2.496 0.192-7.488 2.304-10.944 4.992s-6.912 4.8-7.68 4.8-2.304 1.344-3.648 3.072c-2.112 2.88-2.304 2.88-2.304 0 0-1.536 1.728-3.456 3.648-4.224 1.92-0.576 3.456-1.92 3.456-2.88 0-1.152-2.688-0.192-5.76 2.112-3.264 2.304-5.376 4.992-4.8 5.952 0.768 0.96 0 1.728-1.344 1.728-1.536 0-2.688-1.92-2.88-4.224z"></path>
<path fill="#fff" d="M348.048 478.432c0-1.344-8.64-5.76-17.664-8.64-1.92-0.768-3.456-2.112-3.456-3.264 0-0.96-1.152-1.92-2.688-1.92-1.728 0-3.072-2.304-3.456-5.184l-0.576-5.376-4.992 4.8c-2.688 2.688-6.528 5.184-8.64 5.376-1.92 0.384-4.608 1.536-5.952 2.496-3.264 2.88-4.608-3.648-2.496-12.48 0.96-4.224 1.344-8.448 0.768-9.216s0-1.536 0.96-1.536c1.536 0 2.112-44.16 2.112-144.944 0-79.68 0.576-145.136 1.536-145.136 4.032-0.768 19.2-1.92 23.424-1.728 2.688 0.192 22.272 0.576 43.776 1.152l38.784 0.96-0.96 26.304c-0.576 14.4-2.112 32.64-3.072 40.512-1.152 7.872-1.536 18.624-0.96 24s0.384 14.784-0.384 20.928c-1.344 9.216-1.152 10.944 0.96 10.176 1.536-0.576 2.112-0.192 1.536 0.768-0.576 1.152-0.192 1.92 0.96 1.92s1.92-3.072 1.536-7.68c-0.384-9.408 0.96-10.944 7.104-8.064 2.688 1.344 6.912 2.304 9.216 2.304s5.568 0.96 7.104 2.112c2.304 1.536 1.92 1.728-1.728 0.768-3.072-0.96-4.032-0.768-3.264 0.768 0.768 1.152 2.688 2.112 4.224 2.112s2.688 0.768 2.688 1.536 2.88 2.496 6.336 3.84c3.84 1.536 5.376 2.88 3.84 3.84-2.88 1.728-37.248 1.728-41.088-0.192-2.688-1.344-3.264 0.192-4.224 9.408-0.576 5.952-2.112 11.904-3.072 12.864-1.152 1.152-2.112 4.224-2.112 7.104 0 4.608-0.768 7.872-8.448 31.68-1.728 5.376-3.072 11.136-3.072 13.056 0 1.728-0.768 3.264-1.92 3.264-0.96 0-1.92 1.344-1.92 2.88s0.96 2.88 1.92 2.88c1.152 0 1.92-1.344 1.92-2.88s0.96-2.88 2.112-2.88c2.88 0 13.248 6.336 13.248 8.064 0 0.768 2.88 1.536 6.336 1.728 5.184 0 5.568 0.384 2.304 1.728s-3.264 1.728-0.384 1.728c1.728 0.192 3.264 0.96 3.264 2.112 0 0.96 2.304 2.496 5.184 3.072 8.256 2.112 0.576 3.84-14.592 3.456-27.648-0.96-28.992-1.152-26.88-4.032 1.152-1.344 3.072-1.92 4.224-1.152 1.344 0.768 1.536 0 0.768-2.112-0.768-1.92-1.344-4.224-1.344-5.184 0-1.152-0.768-1.344-1.92-0.768-0.96 0.576-1.92 2.88-1.92 4.992s-0.768 3.456-1.728 2.88c-0.96-0.768-2.304 1.344-3.072 4.608-0.768 3.072-2.112 5.76-3.072 5.76s-1.728 1.728-1.728 3.84-1.344 4.416-2.88 4.992c-1.536 0.768-2.88 2.688-2.88 4.608 0 3.84-5.76 15.936-8.064 16.896-0.96 0.384-1.536 1.344-1.536 2.112 0 2.304-17.28 28.224-17.28 26.112 0-1.152-0.96-0.384-2.112 1.536-1.152 1.728-2.88 2.688-4.032 2.112-1.344-0.768-1.536-0.384-0.768 0.768 0.768 1.344 0.384 2.304-0.576 2.304-1.152 0-2.112 0.96-2.112 2.112 0 2.88 9.984 0.384 12.48-2.88 2.688-3.456 7.488-0.192 9.408 6.144 0.768 2.304 2.304 4.224 3.264 4.224s1.728 1.344 1.728 2.88c0 1.536 0.576 2.88 1.536 2.88 0.768 0 3.456 1.92 6.144 4.032 4.224 3.456 4.224 3.648 0.576 1.728-3.648-1.728-4.224-1.536-3.264 0.96 0.768 1.536 1.92 2.88 2.88 2.88s1.728 1.344 1.728 2.88c0 1.728-1.728 2.88-4.8 2.88-2.688 0-4.8-0.768-4.8-1.536zM326.928 455.968c2.112-2.496 1.92-2.688-0.768-1.728-1.728 0.576-3.072 1.92-3.072 2.88 0 2.496 1.152 2.112 3.84-1.152z"></path>
<path fill="#fff" d="M360.912 478.624c-1.92-1.728-1.728-4.416 0.192-4.416 0.96 0 1.728 1.344 1.728 2.88 0 3.264-0.192 3.456-1.92 1.536z"></path>
<path fill="#fff" d="M302.928 468.448c-0.576-0.96-0.192-1.92 0.768-1.92 1.152 0 2.112 0.96 2.112 1.92 0 1.152-0.384 1.92-0.768 1.92-0.576 0-1.536-0.768-2.112-1.92z"></path>
<path fill="#fff" d="M214.816 465.376c-0.576-1.536-1.92-2.496-2.88-1.728-0.96 0.576-2.496-0.768-3.072-3.072-0.768-2.112-1.728-3.456-2.304-2.88-1.728 1.728-8.256-6.912-6.912-9.024 0.768-1.152 0-1.536-1.536-0.96-2.688 0.96-9.984-4.992-8.064-6.72 0.384-0.576-1.152-2.112-3.648-3.264-4.608-2.496-16.896-14.976-16.896-17.472 0-0.768-1.152-2.688-2.496-4.032-1.152-1.344-4.032-5.952-6.144-10.176s-4.992-8.832-6.336-10.368c-1.344-1.344-2.112-3.84-1.536-5.184 0.576-1.536-0.192-2.688-1.728-2.688s-2.88-1.344-2.88-3.072c0-1.536-2.112-5.76-4.8-9.216s-4.8-7.296-4.8-8.256c0-1.152-1.344-3.072-3.072-4.608-1.728-1.344-2.688-4.224-2.112-6.72 0.384-2.688-0.192-4.032-2.112-3.84-1.536 0-3.264-0.96-3.648-2.304-0.576-1.536 0.192-1.92 2.688-1.152 3.264 1.152 3.264 1.152-0.192-1.536-2.304-1.92-3.264-4.032-2.496-6.144s0.192-3.648-1.92-4.416c-2.88-1.152-2.688-1.344 0.576-2.688 2.496-0.96 2.688-1.536 0.768-1.536-3.072-0.192-9.6-15.744-9.6-22.848 0-2.112-1.344-6.336-2.88-9.216-1.536-3.072-2.88-7.488-2.88-9.984s-0.768-5.952-1.728-7.68c-0.96-1.728-2.304-8.448-2.88-14.592-0.768-6.336-2.112-12.48-3.072-13.632s-1.728-25.536-1.92-54.144v-52.224h31.104c17.28 0 41.28 1.152 53.376 2.304l22.080 2.304 0.96 111.344c0.576 61.248 1.536 112.304 2.304 113.264 0.768 1.152 1.92 16.704 2.496 34.56 0.768 18.048 2.112 33.408 3.072 34.56 2.304 2.304 2.304 22.080 0 22.080-0.96 0-2.304-1.344-2.88-3.072zM217.504 460c0-0.576-0.96-1.536-2.304-2.304s-1.536-0.576-0.768 0.768c1.344 2.304 3.072 3.072 3.072 1.536zM214.24 450.592c-1.344-2.112-4.416 0.384-4.416 3.648 0 2.304 0.384 2.304 2.688 0.384 1.536-1.344 2.304-3.072 1.728-4.032zM209.248 445.984c-0.768-0.576-1.92-0.576-2.688 0-0.576 0.768 0 1.344 1.344 1.344s1.92-0.576 1.344-1.344zM199.264 440.032c-0.576-0.576-2.112 0-3.456 1.344-1.728 1.92-1.536 2.112 1.152 0.96 1.92-0.576 2.88-1.728 2.304-2.304z"></path>
<path fill="#fff" d="M411.984 382.64c1.728-0.384 4.416-0.384 5.76 0 1.152 0.576-0.192 0.96-3.456 0.96-3.072 0-4.224-0.384-2.304-0.96z"></path>
<path fill="#fff" d="M81.184 365.936c0-1.728 0.768-3.072 1.92-3.072 0.96 0 4.416-2.496 7.68-5.76 3.264-3.072 6.912-5.76 8.064-5.76s4.032-2.112 6.528-4.8c2.88-3.072 6.528-4.8 10.176-4.8 5.376 0 5.952 0.768 7.104 7.68 0.768 4.224 1.92 7.68 2.88 7.68s1.728 2.112 1.728 4.8c0 4.416-0.768 4.8-7.104 4.8-4.032-0.192-14.4 0.384-23.040 1.152-14.016 1.152-15.936 0.96-15.936-1.92z"></path>
<path fill="#fff" d="M85.984 280.688c-5.184-0.384-10.368-1.344-11.328-2.496-1.152-0.96-5.568-1.728-10.176-1.728-6.144 0-8.256-0.768-8.256-2.88 0-1.728 1.728-2.88 4.608-2.88 2.496 0 4.992-1.344 5.76-2.88 0.576-1.728 3.456-2.88 6.72-2.88 3.072 0 5.952-1.152 6.336-2.304 0.576-1.536 3.84-2.112 9.024-1.728 6.528 0.384 8.064 0 6.912-2.112-0.96-1.344-0.96-1.92-0.192-1.152 1.92 1.536 3.072 22.464 1.536 23.040-0.768 0.384-5.568 0.384-10.944 0z"></path>
<path fill="#fff" d="M436.944 269.36c0.768-0.576 1.92-0.576 2.688 0 0.576 0.768 0 1.344-1.344 1.344s-1.92-0.576-1.344-1.344z"></path>
<path fill="#fff" d="M85.984 181.248c-1.92-1.536-5.568-2.688-8.064-2.688s-6.528-1.344-8.832-2.88-7.488-2.88-11.328-3.264c-3.84-0.192-6.528-1.152-5.952-2.112 0.576-0.768 1.344-1.152 2.112-0.576 0.576 0.576 1.92-0.192 3.072-1.92 1.344-1.728 5.76-3.456 9.792-4.032 4.224-0.576 9.408-2.304 11.52-3.648 4.224-3.072 12.096-3.456 16.128-0.96 1.92 1.152 2.112 2.496 0.384 5.568-1.152 2.112-2.112 6.912-2.112 10.752 0 8.064-1.728 9.408-6.72 5.76z"></path>
<path fill="#fff" d="M414.096 171.456c0.576-4.032 1.152-9.6 1.152-12.48 0-4.8 0.768-5.376 6.528-5.376 3.648 0 7.296 0.96 7.872 1.92 0.576 1.152 7.488 1.92 15.36 1.92s14.592 0.768 15.168 1.536c0.576 0.96-1.536 1.152-4.8 0.768-3.264-0.576-5.568 0-5.568 1.344 0 1.152 2.112 2.112 4.8 2.112 3.072 0 4.8 1.152 4.8 2.88 0 2.304-2.688 2.88-12.288 2.88-6.72 0-12.672 0.576-13.056 1.536-0.96 2.304-13.248 8.064-17.28 8.064-3.456 0-3.84-0.768-2.688-7.104zM456.144 165.696c-1.344-0.384-3.648-0.384-4.8 0-1.344 0.576-0.384 0.96 2.304 0.96s3.648-0.384 2.496-0.96z"></path>
</svg>
