<!-- Generated by IcoMoon.io -->
<svg version="1.1" xmlns="http://www.w3.org/2000/svg" width="512" height="512" viewBox="0 0 512 512">
<title>characteristics-attacks</title>
<path fill="#fff" d="M279.040 128.16c-6.816-2.144-6.096-90.32 1.072-106.8 3.584-8.608 6.816-11.824 9.68-9.68 2.512 1.44 12.544 3.584 21.856 4.656l17.568 1.792-6.816 8.96c-3.936 5.024-8.96 15.776-11.824 24.016-2.512 8.24-5.728 14.336-7.52 13.616-1.44-1.072-3.584 4.304-5.024 12.192-4.304 25.808-14.336 53.040-18.992 51.248z"></path>
<path fill="#fff" d="M226.352 162.576c-3.936-2.144-13.616-10.4-21.504-18.272s-18.992-16.48-25.088-19.36c-24.016-11.824-26.88-13.616-26.88-18.64 0-2.864 6.816-11.472 15.408-18.992l15.056-13.984 8.24 10.032c4.656 5.376 12.896 15.056 18.272 20.784 19.712 21.856 40.144 52.688 38.352 57.696-2.144 6.096-11.824 6.448-21.856 0.72z"></path>
<path fill="#fff" d="M12.384 501.968c-13.264-13.264-15.408-21.504-8.608-35.84 4.656-9.68 8.608-12.896 19.36-14.688 7.168-1.44 13.984-3.584 15.056-5.024 1.072-1.072 5.376-4.656 10.032-7.888s18.992-15.776 31.904-28.32l23.296-22.576-2.512-16.128c-1.44-8.96-5.376-19.712-9.312-24.016-8.24-8.608-8.608-12.192-1.44-12.192 2.864 0 6.816 3.232 8.96 7.168 3.936 7.52 14.336 6.096 14.336-2.144 0-5.024 3.584-8.608 61.28-62.368 20.064-18.64 57.696-55.552 83.504-82.080s54.832-55.552 64.512-64.512c10.032-8.96 27.6-25.808 39.424-36.912 11.824-11.472 22.576-20.784 23.648-20.784s10.032-7.168 19.712-16.128c16.128-14.336 90.672-55.552 101.072-55.552 11.104 0-29.392 85.664-49.456 103.584-72.752 66.656-96.416 89.6-96.416 93.536 0 2.144-2.144 3.232-4.304 2.512-2.512-0.352-4.304 1.44-3.584 3.936 0.352 2.864-0.72 3.936-2.512 2.864-1.792-1.44-9.312 3.584-16.848 10.4-7.168 6.816-14.688 12.544-16.128 12.544-1.792 0-3.232 1.44-3.232 2.864 0 1.792-10.752 13.264-23.648 26.16-68.096 66.656-83.152 82.080-107.52 109.664-22.576 25.088-26.16 30.816-22.224 35.12 16.128 17.568 17.568 23.296 6.816 23.296-3.584 0-9.312-3.936-12.544-8.96s-8.608-8.96-12.192-8.96c-3.584 0-7.888-1.44-10.032-3.584s-14.336 7.52-35.12 28.672c-17.2 17.92-32.976 32.256-34.768 32.256s-3.584 2.144-3.584 4.656c-0.352 2.144-1.072 8.24-1.44 12.544-1.072 11.472-11.824 21.504-25.088 24.368-8.96 1.44-12.896 0-20.432-7.52zM120.624 355.024c0-2.864-1.44-5.376-3.584-5.376-1.792 0-3.584 2.512-3.584 5.376s1.792 5.376 3.584 5.376c2.144 0 3.584-2.512 3.584-5.376zM254.304 255.76c51.968-51.968 114.688-113.248 139.056-136.544s40.496-40.144 35.84-37.632c-16.48 8.96-40.864 31.184-129.376 117.552-145.152 141.568-153.76 150.528-143.36 150.528 1.792 0 45.872-42.288 97.84-93.904z"></path>
<path fill="#fff" d="M377.6 314.88c-14.336-13.616-30.464-29.744-36.192-36.192-9.68-11.104-10.032-12.192-4.304-17.92 5.376-5.376 6.816-5.376 22.944 2.864 9.312 5.024 17.568 10.032 18.64 11.104 3.232 4.304 37.632 20.784 47.664 23.296 8.96 2.144 10.032 3.584 7.888 11.824-2.864 10.752-18.992 29.024-25.808 29.024-2.864 0-16.48-10.752-30.816-24.016z"></path>
<path fill="#fff" d="M274.384 427.776c-2.512-8.24-1.792-13.616 2.144-15.056 2.512-0.72 5.728-8.24 7.168-16.48 1.44-7.888 4.656-16.848 7.52-19.36 2.864-2.864 5.024-10.032 5.024-15.776s1.072-20.432 2.144-32.608c2.864-26.16 10.752-30.112 13.616-6.448 1.072 8.24 2.864 20.784 3.936 27.6s3.232 24.368 4.304 38.704c2.512 32.608-0.72 37.28-22.576 34.048-10.752-1.44-15.776-0.72-15.776 2.144 0 3.232-6.448 6.096-7.52 3.232z"></path>
<path fill="#fff" d="M387.984 214.176c-2.864-5.024 5.024-10.752 17.568-12.192 6.096-1.072 16.48-3.936 23.296-7.168 30.816-13.616 54.48-21.504 60.928-19.712 5.024 1.44 7.168 0 7.168-3.936 0-11.824 10.4 3.936 12.896 19.36l2.144 14.688-22.576 3.936c-34.4 6.096-98.912 8.96-101.424 5.024z"></path>
<path fill="#fff" d="M68.656 228.88c-1.44-7.52-3.232-16.48-4.304-20.064-1.44-6.096 2.144-6.448 55.2-6.096 31.184 0.352 60.208 1.44 64.864 2.512 12.544 2.864 9.68 11.824-3.584 11.824-6.448 0-18.992 2.512-27.6 5.728-8.96 2.864-24.016 6.096-34.048 7.168s-19.36 3.584-20.784 6.096c-1.792 3.232-5.024 3.232-13.616 0-9.68-3.584-11.104-3.584-9.312 1.072 1.072 2.512 0.352 5.024-1.44 5.024s-4.304-6.096-5.376-13.264z"></path>
</svg>
