<!-- Generated by IcoMoon.io -->
<svg version="1.1" xmlns="http://www.w3.org/2000/svg" width="512" height="512" viewBox="0 0 512 512">
<title>characteristics-range</title>
<path fill="#fff" d="M302.208 382.96c-1.776-4.64-45.616-40.272-45.616-37.056 0 1.424-1.776 0-3.92-3.2-1.776-3.568-5.344-6.416-7.12-6.416-2.144 0-2.496 2.144-1.072 4.64 1.776 2.496 0 2.144-3.92-1.072-6.064-4.992-6.064-5.344-0.352-6.416 4.64-1.072 5.344-2.496 1.776-6.416-5.696-7.12 3.92-9.984 22.448-7.12l14.256 2.496-2.144-13.536c-4.64-25.296-26.016-62.352-46.688-80.528-11.408-9.984-38.48-23.168-53.808-25.664-7.488-1.424-16.032-4.64-18.88-6.768s-18.88-3.92-37.408-3.92c-31.712 0-33.136 0.352-52.384 13.536-11.040 7.12-21.744 13.184-23.52 13.184-2.144 0-4.64 2.496-6.064 5.344-1.072 2.848-4.272 5.344-7.12 5.344s-6.768 2.848-8.912 6.064c-7.488 13.536-7.84 0-0.72-19.6 8.56-23.168 35.28-51.664 58.432-62.352 7.12-3.568 13.904-7.84 14.96-9.264 1.072-1.776 6.768-4.272 12.464-5.696 6.064-1.424 10.688-3.568 10.688-4.992 0-4.64-19.248-20.672-27.44-23.52-4.64-1.072-8.192-3.92-8.192-5.696 0-4.272-63.072-4.272-65.92 0.352-3.2 5.344-16.032 4.272-16.032-1.424 0-8.912 23.872-26.016 47.040-33.504 24.224-7.84 73.056-11.040 68.768-4.64-1.424 2.496 2.848 3.92 11.408 3.92 7.488 0 21.744 2.144 31.36 4.992 19.952 5.344 59.152 25.664 63.424 33.136 1.424 2.496 4.64 4.64 6.768 4.64 6.064 0 41.696 38.48 58.448 62.352 20.304 29.936 26.72 45.616 28.864 70.192 1.072 11.408 3.568 21.744 4.992 22.8 1.776 1.072 3.2 7.12 3.2 13.184 0 6.416 1.072 17.456 2.496 24.944 1.776 12.112 3.2 13.536 9.616 11.408 21.024-6.416 44.896-4.272 44.896 3.92 0 2.496-9.264 11.040-20.304 18.528-11.408 7.84-27.44 21.376-35.632 30.64-14.608 16.032-20.672 19.6-23.168 13.184zM103.36 179.136c0-3.92-1.072-3.92-8.56-1.072-8.192 3.2-7.12 8.192 1.424 6.064 3.92-1.072 7.12-3.2 7.12-4.992z"></path>
<path fill="#fff" d="M233.424 447.104c1.072-2.144-8.192-3.568-22.096-3.568-22.448-0.352-53.808-6.064-70.192-12.832-5.344-2.496-6.416-1.776-4.272 2.144 1.424 2.848 0 1.776-2.848-1.776-3.2-3.92-5.696-5.696-5.696-3.92 0 1.424-3.568 0-7.84-3.92-4.272-3.568-6.416-4.64-4.992-2.144 2.848 4.992-21.744-8.56-30.288-17.104-7.84-7.488-14.608-21.024-12.112-24.592 1.072-1.776-0.352-4.272-2.496-4.992-3.568-1.424-3.568-2.144 0-2.144 2.144-0.352 4.272-2.848 4.272-5.696s4.64-9.984 10.336-15.68c16.752-17.104 54.528-32.064 101.92-39.904 14.608-2.496 26.72-6.064 26.72-7.488s2.496-2.848 5.696-2.848c11.408 0 2.144 8.912-11.040 10.688-7.488 1.072-14.256 3.92-15.328 6.416-1.072 3.2 1.424 3.92 8.912 2.848 11.408-2.144-3.2 2.144-36.352 11.040-25.664 7.12-51.664 21.024-51.664 28.144 0 3.92 6.064 4.992 26.72 4.992 27.44 0 36.352 5.344 15.68 9.616-8.192 1.424-9.616 2.848-6.064 5.344 3.2 2.496 2.496 2.848-3.2 1.776-4.272-1.072-15.328 0-24.592 1.776-14.608 3.2-16.032 4.272-9.984 7.488 3.568 2.144 7.488 4.64 8.56 6.064 4.64 6.064 28.864 14.96 49.168 17.824 12.48 1.776 24.592 4.64 27.088 6.768 2.144 1.776 23.168 4.64 45.968 6.064 40.624 2.496 42.048 2.144 50.608-5.696 4.992-4.64 8.912-10.336 8.912-13.184 0-5.696 6.064-6.064 12.464 0 18.88 16.752 24.224 17.456 64.144 9.264 32.784-7.12 73.056-24.224 85.52-36.704 5.344-5.344 5.344-5.696-0.72-7.84-3.568-1.072-9.984-3.568-14.608-5.344s-13.536-3.2-20.304-3.2c-19.248 0-14.608-6.064 8.192-10.688 29.936-5.696 29.936-6.064 25.664-13.904-1.776-3.92-7.84-10.336-13.184-14.256-5.696-3.92-12.112-9.264-14.96-11.408-2.496-2.496-12.464-4.992-22.096-6.064-9.616-0.72-17.456-2.848-17.456-4.64s-7.488-3.2-16.752-3.568c-13.184-0.352-14.96-1.072-8.192-2.848 9.984-2.848 51.312 1.776 62.352 6.768 3.92 1.776 11.040 4.272 16.032 5.696s13.184 5.344 18.528 8.912c4.992 3.92 10.336 6.768 11.408 6.768 6.416 0 30.64 29.584 32.432 39.904s0.352 13.904-13.904 28.864c-8.912 9.264-21.024 18.88-27.088 20.672-5.696 2.144-10.688 5.344-10.688 7.12s-2.144 3.2-4.992 3.2c-2.848 0-9.616 1.776-15.328 4.272-5.344 2.144-11.040 3.92-12.112 3.568-1.072 0-9.984 2.144-19.248 4.992-9.616 2.496-28.144 4.992-41.696 4.992-15.68 0-23.872 1.424-22.448 3.568 1.424 2.496-17.824 3.568-55.232 3.568-34.56 0-56.656-1.424-55.232-3.2z"></path>
</svg>
