<!-- Generated by IcoMoon.io -->
<svg version="1.1" xmlns="http://www.w3.org/2000/svg" width="512" height="512" viewBox="0 0 512 512">
<title>characteristics-strength</title>
<path fill="#fff" d="M308.256 209.024c-2.464-1.76-11.264-3.168-19.36-3.168s-15.488-1.056-16.544-2.816c-0.704-1.408 0.704-22.528 3.52-46.448 2.464-24.288 4.576-56.656 4.576-72.128s0.704-38 2.112-49.968c2.464-19.712 3.52-22.176 12.672-25.328 6.688-2.464 17.6-2.464 32.016 0 38.352 5.984 47.856 17.248 41.872 48.912-2.112 10.56-5.984 33.776-9.152 51.024-2.816 17.6-6.688 34.832-8.448 38.704s-4.224 14.784-5.28 24.288c-3.168 24.624-8.8 34.832-22.176 37.648-5.984 1.056-13.024 0.704-15.84-0.704z"></path>
<path fill="#fff" d="M65.808 143.568c-8.096-9.856-12.672-22.176-17.248-45.744-2.464-12.32-5.984-22.176-7.392-22.176-1.76 0-3.168-2.816-3.168-6.336 0-7.040 13.728-21.824 20.064-21.824 2.112 0 4.576-1.76 5.28-3.52 1.76-5.632 41.872-20.768 54.544-21.12 5.984 0 12.32 1.76 13.728 3.872 2.112 3.872 9.152 46.448 14.432 86.208l1.76 14.784-17.952 2.464c-9.856 1.408-17.952 3.872-17.952 5.632s-2.816 3.168-5.984 3.168c-3.52 0-10.912 2.464-16.544 5.28-13.024 6.688-17.6 6.688-23.584-0.704zM72.496 120.704c-2.112-6.336-9.856-7.392-9.856-1.408 0 3.168 2.464 5.632 5.632 5.632s4.928-1.76 4.224-4.224z"></path>
<path fill="#fff" d="M205.152 183.696c4.224-34.832-10.912-80.224-24.976-74.944-9.504 3.52-15.488-10.56-17.6-42.576-3.168-40.464-1.056-47.856 15.136-58.064 11.264-6.688 18.304-8.096 42.576-8.096 19.008 0 29.904 1.408 31.664 4.224 1.408 2.464 3.168 28.144 3.872 57.36 1.056 51.376 0.704 53.488-6.336 55.248-6.688 1.76-7.744 3.168-7.040 10.912 0 1.408 2.464 2.112 5.28 1.408 3.872-0.704 4.928 5.632 4.928 34.48 0 19.36-0.352 35.184-0.704 35.536-0.704 0-11.968 1.056-24.976 2.112l-24.288 1.76z"></path>
<path fill="#fff" d="M139.36 450.064c-1.76-1.408-2.816-10.208-2.816-19.712 0-9.152-1.408-16.896-2.816-16.896s-4.576-7.040-7.040-15.488c-6.336-24.624-43.28-49.968-59.472-41.52-14.784 8.096-16.544 1.408-19.008-69.312-1.408-37.296-4.224-69.68-6.336-73.888-3.872-7.040-3.168-21.12 1.408-28.496 1.056-1.76 7.040-5.632 13.376-8.448 13.728-6.336 70.032-23.216 77.056-23.216 2.816 0 11.616-4.576 19.008-9.856 7.744-5.632 15.84-9.504 17.952-8.8 8.448 2.816 16.896 27.088 16.896 47.152 0 20.416-10.56 48.912-18.304 48.912-2.464 0-5.632 2.112-7.040 4.928-3.52 5.984-31.664 19.712-40.464 19.712-5.984 0-15.84 13.024-12.32 16.544 3.52 3.168 41.52-5.984 46.8-11.264 7.744-7.744 45.392-7.040 60.88 1.056 8.448 4.224 15.488 12.672 23.568 28.144 10.912 20.416 11.968 24.272 11.968 53.84 0 17.6-1.408 30.96-2.816 29.904-1.76-1.056-4.928 3.168-7.040 9.504-3.52 10.208-39.408 45.744-48.208 48.208-1.76 0.704-9.504 4.928-17.248 9.504-14.080 9.152-33.776 14.080-38 9.504zM241.040 319.52c-1.056-3.52-1.76-1.408-1.76 4.224 0 5.984 0.704 8.448 1.76 6.336 0.704-2.464 0.704-7.392 0-10.56z"></path>
<path fill="#fff" d="M212.896 508.128c-16.896-2.816-34.128-19.008-35.184-33.424-0.704-8.8 0.704-10.208 9.152-11.264 5.28-0.704 9.504-2.464 9.504-4.224s3.52-4.224 8.096-5.632c4.224-1.056 15.84-10.56 25.328-20.416 9.856-10.208 20.064-19.36 23.216-20.768 7.040-2.464 62.64 49.968 69.312 65.808 4.224 9.504 3.872 10.912-7.040 22.176l-11.264 11.616-39.056-0.704c-21.12-0.704-44.688-2.112-52.080-3.168z"></path>
<path fill="#fff" d="M349.776 449.712c-7.392-1.056-15.84-3.872-18.656-6.688s-7.744-4.928-11.264-4.928c-3.168 0-12.672-7.744-21.12-17.248-14.432-16.192-19.712-26.736-28.848-54.896-4.224-13.728-4.224-49.264 0.352-65.456 3.872-14.080 21.472-34.48 36.24-41.872 10.56-5.28 12.672-14.080 3.168-14.080-3.168 0-11.968 3.168-19.36 7.040-7.040 3.872-15.488 7.040-18.304 7.040-3.168 0-6.336 4.224-7.392 10.56-1.408 5.984-3.168 10.56-3.872 10.56-1.056 0-8.8-7.040-17.248-15.84-10.208-10.208-19.712-16.192-28.144-17.952-6.688-1.408-13.376-4.576-14.432-7.040-1.056-2.816-4.224-4.928-7.040-4.928s-4.576-2.464-3.872-5.984c1.056-5.632 5.984-6.336 50.32-5.632 26.736 0.704 49.616 2.464 50.672 4.224 1.056 1.408 10.56 3.52 20.768 4.576 21.472 2.112 24.624 4.224 18.304 11.616-3.872 4.576-1.408 5.28 21.472 5.28 21.12 0 27.088 1.408 33.424 7.392 6.688 6.336 8.8 6.688 15.136 2.464 4.224-2.464 7.392-5.632 7.392-7.040 0-1.76 2.816-2.816 6.688-2.816 8.096 0 11.264 14.784 11.264 49.264 0 27.792-2.464 40.112-11.616 54.544-3.52 5.984-6.336 13.376-6.336 16.896 0 3.168-1.408 5.984-3.168 5.984s-3.872 3.168-4.928 7.040c-1.056 3.872-4.576 7.040-7.744 7.040-3.52 0-11.616 3.168-17.952 7.392-10.208 6.336-11.968 9.152-11.968 21.12 0 9.152 2.464 16.192 7.392 21.12 5.984 5.984 6.688 8.096 2.816 10.56-2.816 1.76-5.632 2.816-6.688 2.464s-8.096-1.056-15.488-1.76z"></path>
<path fill="#fff" d="M411.008 228.032c0-5.28-0.704-5.632-3.52-1.056s-4.576 4.576-10.56 0.704c-3.872-2.464-8.8-3.52-10.56-2.464-2.112 1.408-3.52 0.704-3.52-1.056s-4.928-4.224-10.912-5.632c-10.208-2.112-10.912-2.816-9.152-15.136 0.704-7.392 6.336-31.664 12.32-53.84 5.632-22.512 11.616-48.208 13.024-57.008 3.168-21.824 17.248-33.072 28.848-23.232 2.464 2.112 4.576 2.464 4.576 1.408 0-1.408 4.576 0.704 10.208 4.576 5.632 4.224 11.616 7.392 13.728 7.392 1.76 0 8.8 5.28 15.84 11.968l12.672 11.968-6.688 13.376c-3.872 7.392-7.040 17.952-7.040 23.216s-1.408 10.208-2.816 11.264c-1.76 1.056-7.744 12.672-13.024 25.68-5.632 13.024-12.32 26.032-15.136 28.848-2.464 2.464-5.632 9.152-6.688 14.784-2.112 10.912-11.616 14.080-11.616 4.224z"></path>
</svg>
