<!-- Generated by IcoMoon.io -->
<svg version="1.1" xmlns="http://www.w3.org/2000/svg" width="512" height="512" viewBox="0 0 512 512">
<title>characteristics-wounds</title>
<path fill="#fff" d="M172.864 507.456c-4.88-4.88-4.528-20.576 0.704-17.44 2.448 1.392 2.784 1.040 1.392-1.744-2.096-3.136-3.84-3.136-7.68 0s-4.88 2.784-5.232-2.448c-0.352-3.84-0.352-7.68 0-9.072 0-1.744-1.040-2.784-3.136-2.784-1.744 0-3.488-6.272-3.488-13.952s1.744-13.952 3.488-13.952c4.88 0 4.528-12.896-0.352-14.64-2.448-0.704-1.040-5.936 3.488-14.304 8.368-14.64 6.976-26.512-3.84-40.8-12.208-15.344-24.064-20.928-46.384-20.928-15.344 0-23.36-2.096-29.648-6.976-8.368-6.272-8.72-7.68-7.68-42.544 0.704-29.984 2.096-36.624 7.68-42.192 8.016-6.976 7.328-3.488 8.016-73.936 0.704-43.584 1.744-53.712 6.976-61.024 3.136-4.528 5.936-13.248 5.936-19.184 0-5.584 4.88-19.872 10.464-31.392 5.936-11.152 10.112-22.32 9.072-24.768-2.448-5.936 6.976-12.896 31.040-24.064 11.504-5.232 29.648-13.6 40.112-18.832 16.384-7.68 24.752-9.408 56.848-10.112 28.24-1.040 40.448 0 48.816 3.84 6.272 3.136 16.048 6.624 21.616 8.016 5.936 1.392 14.304 5.232 18.832 9.072 4.528 3.488 9.76 6.272 11.856 6.272 3.136 0 12.56 9.408 26.512 26.16 8.368 10.112 14.304 36.96 14.304 64.16 0 16.048 2.784 35.216 6.624 48.48 5.232 17.088 5.936 24.064 3.136 30.336-3.84 8.72 4.192 35.568 17.792 57.888 4.528 7.68 7.328 17.792 7.328 28.24 0 9.76 2.096 18.48 5.232 21.616 6.976 6.976 6.976 26.512 0 26.512-3.136 0-6.272 2.096-7.328 4.88s-6.976 6.976-12.896 9.408c-6.272 2.448-12.896 6.272-15.344 8.368-2.448 1.744-6.272 5.232-9.072 7.328-2.448 2.096-12.56 5.936-22.672 8.368-10.112 2.784-18.128 5.936-18.128 7.328s-3.136 3.136-6.976 4.192c-4.528 1.040-7.68 5.936-9.408 13.248-1.744 9.76-2.448 10.464-4.88 4.88-2.096-5.584-2.784-5.584-2.784-1.392-0.352 3.136 2.784 12.56 6.624 20.928s6.976 18.832 6.976 23.36c0 4.192 1.392 7.68 3.136 7.68 4.192 0 1.392 17.792-5.232 33.136-7.328 18.128-18.832 14.64-18.832-5.584 0-3.488-1.392-6.624-3.488-6.624-1.744 0-3.488 4.192-3.488 9.76 0 13.6-3.488 17.44-18.128 18.48-13.6 1.392-24.416-4.528-17.088-8.72 4.192-2.784 5.232-19.184 1.744-27.904-3.136-8.368-8.368-6.624-8.368 2.784 0 4.88-1.392 9.76-3.488 10.816-1.744 1.040-3.488 7.68-3.488 14.304 0 8.368 1.392 11.504 4.192 9.76 2.448-1.392 2.784-1.040 1.392 1.744-1.392 2.096-4.192 2.784-6.272 1.744-2.096-1.392-8.72-3.488-14.64-4.88-7.328-1.392-10.816-4.192-11.152-8.72-0.352-3.84-0.704-12.896-1.040-19.872-0.352-9.408-2.096-13.248-5.584-13.248-6.272 0-7.328 20.928-1.744 31.728 3.136 5.584 2.448 6.624-4.88 6.624-4.88 0-9.76 1.744-10.816 3.488-3.84 5.936-10.816 3.84-14.992-4.192-3.488-7.328-3.84-6.976-3.84 4.88-0.352 10.464-1.392 12.56-7.328 12.208-3.84-0.352-8.72-2.096-10.464-3.84zM181.584 473.984c-3.136-3.488-5.232-9.072-3.84-12.208 1.040-3.488 0.704-4.528-1.744-3.488-1.744 1.392-6.272 0.352-9.408-2.448-5.232-3.84-5.232-3.84-1.744 1.040 2.448 3.136 3.84 6.624 2.784 7.68-1.040 1.392-0.704 1.744 0.352 0.704 1.392-0.704 5.232 2.448 9.072 6.976 3.84 4.88 7.68 8.72 8.72 8.72s-0.704-3.136-4.192-6.976zM203.2 470.832c-0.352-5.232-1.392-5.936-4.88-3.136s-4.528 2.448-4.528-0.704c0-2.784-1.040-3.488-2.448-2.096-1.744 1.392 0.352 4.88 3.84 7.68 8.72 6.272 8.72 6.272 8.016-1.744zM174.256 423.056c1.392-5.232 1.392-10.112 0.352-11.152-2.784-2.784-8.72 6.624-8.72 14.304 0 9.072 5.936 6.976 8.368-3.136zM259.344 392.72c8.016 0 14.64-1.040 14.64-2.784 0-7.68-8.72-34.528-11.152-34.528-1.392 0-2.784-4.192-2.784-9.408 0-13.6-4.528-19.184-14.304-17.792-7.328 1.040-8.368 2.784-8.368 15.344 0 10.112-3.136 19.184-9.408 28.944-11.856 18.128-9.76 26.512 5.584 22.672 5.936-1.392 17.44-2.784 25.808-2.448zM375.12 350.176c0-2.784-1.392-5.232-3.488-5.232-1.744 0-3.488 2.448-3.488 5.232s1.744 5.232 3.488 5.232c2.096 0 3.488-2.448 3.488-5.232zM204.944 323.328c1.392-2.448 2.784-6.272 2.784-8.72 0-6.624-14.304-18.128-26.496-21.616-5.936-1.744-17.088-6.976-24.064-11.856-7.328-5.232-15.344-8.016-18.832-6.624-20.576 7.328-34.176 26.16-26.512 36.624 2.448 3.136 6.272 5.936 9.072 5.936 2.784 0.352 17.44 3.84 32.432 8.368 28.592 8.368 45.328 7.68 51.616-2.096zM350.368 327.168c8.368-1.744 16.048-2.784 16.736-1.744 3.136 2.784 25.456-23.024 25.456-28.944 0-9.76-10.464-21.28-19.184-21.28-12.208 0-40.096 8.016-40.096 11.152 0 1.392-3.136 2.784-6.976 2.784-8.368 0-26.848 7.68-36.272 14.64-6.624 5.232-6.624 5.232 0 14.304 3.488 5.232 9.408 9.408 12.56 9.408s6.976 1.392 8.016 3.488c2.096 3.136 12.208 2.448 39.76-3.84zM217.152 294.032c-1.040-1.040-4.192-1.392-6.624-0.352-2.784 1.040-1.744 2.096 2.096 2.096 3.84 0.352 5.936-0.704 4.528-1.744zM88.112 274.512c-1.040-2.784-2.096-1.744-2.096 2.096-0.352 3.84 0.704 5.936 1.744 4.528 1.040-1.040 1.392-4.192 0.352-6.624zM124.032 83.056c0-1.744-1.392-3.136-3.488-3.136-1.744 0-3.488 2.448-3.488 5.584 0 2.784 1.744 4.192 3.488 3.136 2.096-1.040 3.488-3.488 3.488-5.584z"></path>
<path fill="#fff" d="M212.96 509.2c-10.112-2.448-10.464-2.448-2.784-6.624 11.152-6.272 18.48-5.232 18.48 2.784 0 3.84-1.040 6.624-2.448 6.624-1.744-0.352-7.328-1.392-13.248-2.784z"></path>
</svg>
