<!-- Generated by IcoMoon.io -->
<svg version="1.1" xmlns="http://www.w3.org/2000/svg" width="512" height="512" viewBox="0 0 512 512">
<title>characteristics-move</title>
<path fill="#fff" d="M70.384 510.688c-1.392-2.096 2.096-10.48 7.328-18.512s11.872-18.16 14.32-22.704c2.448-4.544 5.936-8.384 8.032-8.384 1.744 0 3.152-2.448 3.152-5.232 0-2.448 2.8-6.64 6.288-8.384 3.152-2.096 4.544-3.84 3.152-3.84-1.744 0 1.056-4.896 5.936-10.832s9.088-12.224 9.088-13.968c0-1.744 5.584-11.184 12.224-20.96s12.224-19.904 12.224-22.704c0-4.544 41.216-61.472 46.112-63.568 1.744-0.704 2.8-3.488 2.8-5.936 0-2.8 2.8-6.992 6.288-9.424s7.68-8.736 9.088-13.968c3.152-13.28-5.584-12.928-18.16 0-11.184 11.52-24.096 16.064-24.096 9.088 0-2.8 1.056-4.192 1.744-3.152 2.096 2.096 38.080-35.28 43.312-45.056 2.096-4.192 5.936-8.736 8.384-10.128 2.8-1.392 4.896-4.896 4.896-7.328 0-2.8 2.448-5.584 5.232-6.992 3.152-1.056 5.232-6.288 5.232-12.576 0-8.736 1.392-10.48 8.384-10.48 9.424 0 19.568-8.384 19.568-15.712 0-8.384-6.992-9.424-13.28-1.744-5.584 6.992-9.424 7.328-57.632 8.032-28.288 0.352-51.344 1.744-51.344 3.488 0 1.392-4.192 2.448-9.776 2.448-5.232 0-13.28 2.448-17.808 5.584-5.232 3.84-9.088 4.544-11.52 2.096-3.84-3.84 23.056-21.664 33.184-21.664 2.8 0 5.936-1.392 6.64-2.8 1.056-3.152 11.52-9.424 36.672-21.664 8.032-3.84 15.712-8.736 16.768-10.48 1.056-2.096 5.232-3.488 9.088-3.488 3.488 0 6.64-1.392 6.64-2.8 0-1.744 10.48-8.032 23.76-14.32 26.544-12.928 43.664-22.352 57.28-31.088 20.256-13.28 42.96-25.504 50.656-27.248 4.544-1.392 9.424-3.84 10.832-6.288 1.392-2.096 6.288-5.936 11.184-8.384 18.512-9.424 25.84-14.32 28.64-19.568 1.744-3.152 5.584-5.584 8.384-5.584s4.192-1.744 3.152-3.488c-1.056-2.096 0.704-4.544 4.192-5.936 3.488-1.056 9.088-4.896 12.576-8.736 3.488-3.488 7.68-6.288 9.424-6.288 4.192 0 4.544 8.032 0.704 12.576-4.896 5.584-10.832 30.032-12.576 52.048-0.704 11.52-3.84 27.952-7.328 36.672-3.152 8.736-6.64 29.344-7.68 46.112-1.744 25.504-3.152 30.384-8.384 31.792-8.736 2.448-8.384 11.872 0.352 14.672 5.936 1.744 6.992 5.584 7.68 22 0.352 10.832 0.352 23.056 0 26.896-3.488 61.12-5.584 108.624-5.232 125.056 0 13.616-1.056 19.904-3.84 18.864-2.096-0.704-4.544-4.896-5.232-9.776-1.056-7.68-1.392-8.032-4.192-1.392-2.096 5.232-2.8 3.152-2.8-8.032-0.352-8.736-3.84-21.664-9.088-31.44-4.896-9.088-8.736-18.512-8.736-20.608 0-2.448-1.392-4.544-2.8-4.544-1.744 0-7.68-13.616-13.28-30.032-9.088-26.896-9.424-30.384-4.544-33.888 8.736-6.288 11.872-19.904 4.896-19.904-5.584 0-22.352 16.416-22.704 22 0 1.392-1.744 4.544-3.488 6.992-6.992 8.384-20.96 30.736-20.96 33.536 0 1.744-2.096 3.84-4.544 4.896s-12.224 13.28-22 27.248c-9.424 14.32-19.568 28.288-22.704 31.44s-8.736 10.48-12.224 16.768c-3.488 5.936-7.68 10.832-9.424 10.832-1.392 0-1.744 1.744-0.704 3.488 1.056 2.096 0.352 3.488-1.744 3.488s-2.8 1.744-1.744 3.488c1.056 2.096 0.704 3.488-1.392 3.488-1.744 0-4.544 3.152-5.584 6.992-1.392 3.84-3.84 6.288-5.584 5.232-1.744-1.392-3.152-0.352-3.152 1.392 0 2.096-2.096 3.84-4.896 3.84-5.936 0-5.232-7.68 0.704-15.024 2.448-2.8 5.584-11.184 6.64-18.864 2.448-14.672 10.832-28.64 17.808-28.992 2.448 0 5.584-2.8 6.64-5.936 1.392-3.488 6.64-10.48 12.224-15.712 10.128-9.776 12.576-16.768 5.936-16.768-5.232 0-69.504 63.568-69.504 68.816 0 2.448-1.392 4.544-3.488 4.544-1.744 0-3.488 1.392-3.488 3.488 0 1.744-5.584 8.384-12.576 14.672-12.576 11.872-29.344 28.64-49.248 50.656-6.288 6.992-11.52 14.32-11.52 16.768 0 2.8-4.544 6.64-10.48 9.424-5.584 2.448-10.48 5.232-10.48 6.64 0 1.056-2.8 4.896-6.288 8.736-3.488 3.488-8.032 9.776-10.128 13.28-2.096 4.192-4.544 5.232-5.936 2.8zM109.504 465.984c-1.392-1.056-4.192 1.744-6.288 6.288-4.192 7.68-4.192 7.68 2.096 2.096 3.488-3.488 5.232-6.992 4.192-8.384zM424.576 27.616c0-2.096-1.392-2.448-3.488-1.392-1.744 1.040-3.488 3.84-3.488 5.584 0 2.096 1.744 2.448 3.488 1.392 2.096-1.056 3.488-3.84 3.488-5.584z"></path>
</svg>
