<!-- Generated by IcoMoon.io -->
<svg version="1.1" xmlns="http://www.w3.org/2000/svg" width="512" height="512" viewBox="0 0 512 512">
<title>deployment-dagger</title>
<path fill="#fff" d="M250.784 0.016c-4.112 7.472-9.696 13.648-10.832 20.544-2.048 12.56-8.544 22.064-15.776 31.648-4.128 5.488-2.336 10.976 3.536 11.696 11.504 1.44 17.152 9.872 15.68 21.424-1.664 12.992-2.688 26.112-3.072 39.216-0.224 7.296-2.8 10.608-10.064 11.072-7.968 0.496-16 1.152-23.792 2.736-4.624 0.944-9.712 2.864-13.12 5.936-8.144 7.408-8.56 32.528-0.224 42.912 3.232-4.192 6.24-8.048 9.184-11.936 5.856-7.664 11.040-15.952 17.728-22.8 4.608-4.72 14.432-3.408 17.264 0.608 3.968 5.68 2.016 20.112-3.232 23.344-6.352 3.904-12.768 7.744-20.064 12.176 3.136 1.552 5.616 2.56 7.888 3.888 9.232 5.456 12.272 19.648 4.688 24.336-4.992 3.104-5.76 6.896-5.76 11.696-0.048 12.080-0.432 24.16 0.064 36.224 0.4 9.328 1.552 18.672 3.136 27.856 1.536 8.816 4.912 17.376 5.984 26.224 2.464 20.112-0.56 40.48 5.152 60.64 8.208 28.928 0.064 59.824 9.424 89.024 2.928 9.12 0.832 19.76 1.808 29.6 0.48 4.72 2.768 9.232 4.256 13.84 1.184-4.48 2.704-8.912 3.456-13.472 2.096-12.944 3.872-25.952 5.808-38.944 1.184-8.016 2.592-16-1.088-24.272-3.376 2.016-5.856 3.456-8.336 4.912-6.176-11.376-4.24-16.176 6.64-20.528 2.256-0.896 4.24-4.832 4.624-7.6 1.424-10.384 0.24-21.504 3.472-31.2 6.752-20.208 5.376-40.928 6.848-61.504 0.192-2.704-0.192-6.368 1.36-7.904 5.936-5.808 4.96-13.040 5.52-20.112 1.568-19.28 2.736-38.64 5.392-57.792 2.144-15.296 3.104-15.328-10.496-23.232-5.584-3.248-5.696-8.4-4.144-12.928 0.944-2.704 5.088-4.656 8.16-6.208 2.4-1.2 5.392-1.216 9.84-2.144-2.768-2.272-3.856-3.344-5.104-4.192-5.328-3.664-11.136-6.784-15.92-11.072-5.872-5.264-4.128-14.672 3.184-17.36 4.784-1.744 10.256-1.456 15.264-2.704 17.792-4.384 29.6 8.080 29.904 24.784 0.048 2.656 1.424 5.312 2.16 7.952 0.944 0.016 1.872 0.048 2.816 0.080 1.072-4 2.976-7.968 3.040-11.968 0.128-8.544-0.608-17.088-1.12-25.648-0.496-8.864-3.184-10.704-11.856-11.104-13.12-0.64-26.224-2.144-39.296-3.344-4.864-0.432-7.36-3.056-7.408-8.144-0.192-16.832-0.8-33.68-0.736-50.512 0.048-11.312 2.896-13.696 14.304-14.784 2.512-0.24 6.784-1.136 7.024-2.336 0.464-2.496-0.912-5.552-2.112-8.080-6.176-12.88-20.288-20.672-22.576-36.368-0.736-4.752-5.28-9.040-8.496-14.24z"></path>
<path fill="#fff" d="M26.704 255.104c2.048 1.456 3.040 2.768 4.144 2.896 11.456 1.36 22.336 3.472 33.328 8.192 13.136 5.632 18.208 9.632 21.312 23.952 2.576 11.904 7.088 23.376 10.864 35.024 0.4 1.216 1.744 2.096 2.528 3.216 6.784 9.504 13.408 19.168 20.416 28.512 5.072 6.72 10.976 12.832 15.92 19.648 3.648 5.024 11.040 9.184 7.68 16.768-3.248 7.296-8.512 13.648-12.176 20.784-1.36 2.64-0.72 6.336-1.088 10.704 5.984-5.312 10.72-9.024 14.864-13.312 5.232-5.44 9.28-12.208 15.088-16.832 7.728-6.176 8.128-10.48 0.176-16.672-5.968-4.656-11.68-9.712-16.816-15.232-4.544-4.896-7.984-10.8-12.176-16.064-5.76-7.232-12.272-13.856-13.296-23.84-0.32-3.12-2.512-6-3.76-9.040-4.32-10.56-11.088-20.864-12.336-31.792-1.856-16.288-1.2-33.184 1.072-49.472 1.808-13.008 7.808-25.168 14.624-36.96 7.424-12.88 17.264-22.16 29.664-29.696 3.488-2.112 7.616-6.608 7.68-10.112 0.080-4.128-3.6-8.544-6.272-12.4-1.616-2.352-4.56-3.728-6.608-5.856-8.864-9.12-17.616-18.352-26.416-27.552-1.008 0.432-2.016 0.88-3.008 1.28 1.088 4.416 1.984 8.88 3.312 13.232 0.944 3.072 2.592 5.92 3.728 8.928 2.032 5.344 4.608 10.64 5.616 16.176 0.848 4.72 1.392 10.656-0.72 14.512-3.696 6.816-9.040 12.928-14.56 18.496-13.344 13.408-19.088 30.352-24.096 47.872-1.904 6.656-5.152 12.928-13.168 14.384-14 2.56-27.984 5.072-41.952 7.712-0.912 0.16-1.68 1.152-3.584 2.56z"></path>
<path fill="#fff" d="M404.912 112.16c-5.168 3.008-10 5.072-13.888 8.224-12.096 9.84-23.728 20.256-35.776 30.176-6.064 4.992-6.752 9.040-0.784 13.456 14.144 10.48 26.192 22.224 30.608 40.304 3.488 14.304 11.488 28.272 11.632 42.432 0.224 22.928-1.456 46.768-7.856 68.576-5.104 17.424-10.24 36.128-22.16 51.2-2.88 3.648-5.728 7.376-8.272 11.248-2.464 3.712-2.464 7.312 3.008 7.504 9.888 0.368 14.976 7.84 21.552 13.312 6.512 5.408 13.312 10.432 20 15.616 0.896-0.672 1.776-1.376 2.656-2.048-0.8-2.528-1.024-5.504-2.528-7.536-6.096-8.288-12.816-16.16-18.736-24.56-1.664-2.352-2.928-6.944-1.776-9.040 6.24-11.040 14.32-20.848 17.856-33.6s9.504-24.816 13.28-37.504c1.84-6.208 0.544-13.248 1.68-19.728 0.656-3.776 2.4-9.28 5.168-10.432 10.528-4.432 21.488-8.096 32.608-10.656 7.424-1.696 15.392-0.976 23.104-1.536 2.416-0.176 4.832-0.944 8.992-1.776-2.656-1.872-3.456-2.896-4.368-3.008-16.064-1.904-32.208-3.408-48.224-5.68-6.048-0.848-14.016-1.664-17.296-5.616-4.896-5.92-6.448-14.608-9.36-22.112-3.168-8.144-5.808-16.528-9.536-24.384-3.12-6.544-6.88-12.992-11.456-18.576-5.312-6.448-9.056-13.536-5.696-21.040 3.552-7.984 9.6-14.848 14.56-22.224 4.24-6.352 12.032-10.96 11.008-20.976z"></path>
<path fill="#fff" d="M250.784 0.016c3.216 5.2 7.744 9.472 8.464 14.304 2.32 15.68 16.416 23.472 22.576 36.368 1.216 2.528 2.592 5.584 2.112 8.080-0.224 1.2-4.496 2.096-7.024 2.336-11.392 1.12-14.24 3.488-14.304 14.784-0.080 16.832 0.544 33.68 0.736 50.512 0.064 5.088 2.528 7.712 7.408 8.144 13.104 1.2 26.176 2.704 39.296 3.344 8.672 0.416 11.344 2.256 11.856 11.104 0.48 8.56 1.248 17.12 1.12 25.648-0.064 4-1.968 7.968-3.040 11.968-0.944-0.016-1.872-0.048-2.816-0.080-0.768-2.64-2.112-5.28-2.16-7.952-0.288-16.704-12.112-29.168-29.904-24.784-5.024 1.248-10.496 0.96-15.264 2.704-7.312 2.688-9.056 12.096-3.184 17.36 4.784 4.272 10.592 7.376 15.92 11.072 1.248 0.848 2.336 1.904 5.104 4.192-4.448 0.896-7.44 0.944-9.84 2.144-3.072 1.536-7.232 3.472-8.16 6.208-1.552 4.512-1.44 9.664 4.144 12.928 13.584 7.904 12.624 7.92 10.496 23.232-2.656 19.152-3.824 38.496-5.392 57.792-0.592 7.088 0.416 14.304-5.52 20.112-1.552 1.504-1.136 5.2-1.36 7.904-1.504 20.56-0.128 41.28-6.848 61.504-3.232 9.696-2.048 20.8-3.472 31.2-0.368 2.768-2.384 6.704-4.624 7.6-10.864 4.368-12.816 9.152-6.64 20.528 2.464-1.456 4.96-2.928 8.336-4.912 3.712 8.272 2.288 16.288 1.088 24.272-1.92 12.992-3.696 25.984-5.808 38.944-0.736 4.56-2.272 8.976-3.456 13.472-1.488-4.608-3.776-9.152-4.256-13.84-0.976-9.872 1.12-20.496-1.808-29.6-9.36-29.232-1.216-60.128-9.424-89.024-5.712-20.144-2.688-40.512-5.152-60.64-1.088-8.848-4.448-17.392-5.984-26.224-1.6-9.184-2.736-18.528-3.136-27.856-0.528-12.048-0.112-24.144-0.064-36.224 0.016-4.8 0.768-8.608 5.76-11.696 7.568-4.688 4.544-18.88-4.688-24.336-2.272-1.328-4.736-2.352-7.888-3.888 7.312-4.432 13.712-8.272 20.064-12.176 5.232-3.232 7.232-17.664 3.232-23.344-2.832-4.032-12.656-5.344-17.264-0.608-6.688 6.848-11.872 15.136-17.728 22.8-2.976 3.888-5.968 7.744-9.184 11.936-8.336-10.416-7.952-35.52 0.224-42.928 3.408-3.104 8.496-5.024 13.12-5.936 7.808-1.568 15.824-2.224 23.792-2.736 7.264-0.464 9.84-3.776 10.064-11.072 0.4-13.104 1.424-26.224 3.072-39.216 1.488-11.52-4.176-19.968-15.68-21.424-5.872-0.736-7.664-6.224-3.536-11.696 7.232-9.584 13.728-19.104 15.776-31.648 1.152-6.96 6.752-13.136 10.848-20.608z"></path>
<path fill="#fff" d="M26.704 255.104c1.904-1.392 2.656-2.4 3.6-2.576 13.968-2.64 27.968-5.168 41.952-7.712 8.016-1.456 11.264-7.728 13.168-14.384 4.992-17.536 10.736-34.464 24.096-47.872 5.52-5.552 10.864-11.68 14.56-18.496 2.112-3.888 1.568-9.808 0.72-14.512-1.008-5.552-3.6-10.832-5.616-16.176-1.136-3.008-2.8-5.872-3.728-8.928-1.328-4.352-2.256-8.816-3.312-13.232 1.008-0.432 2.016-0.88 3.008-1.28 8.8 9.184 17.552 18.432 26.416 27.552 2.048 2.112 4.992 3.488 6.608 5.856 2.656 3.872 6.352 8.272 6.272 12.4-0.064 3.488-4.192 7.984-7.68 10.112-12.4 7.536-22.224 16.816-29.664 29.696-6.784 11.792-12.816 23.952-14.624 36.96-2.272 16.272-2.896 33.184-1.072 49.472 1.248 10.912 8.016 21.216 12.336 31.792 1.248 3.040 3.424 5.936 3.76 9.040 1.024 10 7.536 16.64 13.296 23.84 4.192 5.232 7.648 11.152 12.176 16.064 5.136 5.52 10.864 10.592 16.816 15.232 7.968 6.208 7.552 10.496-0.176 16.672-5.808 4.624-9.84 11.392-15.088 16.832-4.128 4.304-8.88 8.016-14.864 13.312 0.368-4.368-0.256-8.032 1.088-10.704 3.664-7.136 8.928-13.488 12.176-20.784 3.36-7.552-4.064-11.744-7.68-16.768-4.928-6.816-10.864-12.896-15.92-19.648-7.008-9.344-13.616-18.992-20.416-28.512-0.784-1.12-2.144-1.984-2.528-3.216-3.776-11.632-8.304-23.12-10.864-35.024-3.104-14.32-8.16-18.288-21.312-23.952-11.008-4.72-21.872-6.832-33.328-8.192-1.136-0.112-2.112-1.392-4.176-2.88z"></path>
<path fill="#fff" d="M404.912 112.16c1.008 10.016-6.784 14.624-11.040 20.976-4.928 7.376-11.008 14.24-14.56 22.224-3.344 7.536 0.416 14.624 5.696 21.040 4.592 5.568 8.368 12.032 11.456 18.576 3.728 7.856 6.368 16.24 9.536 24.384 2.928 7.536 4.448 16.224 9.36 22.112 3.296 3.968 11.248 4.752 17.296 5.616 16.032 2.272 32.16 3.776 48.224 5.68 0.896 0.112 1.696 1.136 4.368 3.008-4.176 0.848-6.576 1.6-8.992 1.776-7.712 0.544-15.68-0.192-23.104 1.536-11.12 2.56-22.096 6.24-32.608 10.656-2.752 1.152-4.512 6.656-5.168 10.432-1.12 6.48 0.16 13.536-1.68 19.728-3.76 12.704-9.744 24.752-13.28 37.504-3.536 12.72-11.616 22.544-17.856 33.6-1.184 2.080 0.080 6.688 1.776 9.040 5.92 8.4 12.656 16.272 18.736 24.56 1.488 2.032 1.728 4.992 2.528 7.536-0.896 0.672-1.776 1.376-2.656 2.048-6.688-5.2-13.488-10.192-20-15.616-6.576-5.488-11.664-12.944-21.552-13.312-5.488-0.192-5.488-3.792-3.008-7.504 2.576-3.888 5.392-7.6 8.272-11.248 11.92-15.056 17.056-33.776 22.16-51.2 6.4-21.824 8.080-45.648 7.856-68.576-0.128-14.176-8.144-28.144-11.632-42.432-4.416-18.080-16.464-29.824-30.608-40.304-5.952-4.416-5.28-8.448 0.784-13.456 12.032-9.904 23.664-20.32 35.776-30.176 3.952-3.168 8.752-5.216 13.936-8.224z"></path>
</svg>
