<!-- Generated by IcoMoon.io -->
<svg version="1.1" xmlns="http://www.w3.org/2000/svg" width="512" height="512" viewBox="0 0 512 512">
<title>deployment-hammer</title>
<path fill="#fff" d="M295.808 171.664c-2.272-2.8-4.112-5.168-6.048-7.456-9.824-11.456-22.112-17.552-37.36-17.104-4.064 0.128-8.144 0.224-12.16 0.752-2.32 0.32-4.88 0.96-6.704 2.352-4.080 3.072-7.792 6.656-11.632 10.032-0.336 0.32-0.704 0.72-0.848 1.168-1.648 5.472-6.464 7.408-10.928 9.648-0.752 0.384-1.856 0.272-2.784 0.128-6.512-1.168-11.024 1.712-12.24 8.288-1.408 7.568-3.536 15.024-2.608 22.928 0.24 1.984-1.616 4.288-2.688 6.368-0.608 1.184-1.6 2.16-2.304 3.264-1.76 2.848-3.696 3.12-6.56 1.472-2.112-1.216-4.48-2.304-6.848-2.656-5.52-0.816-11.072-1.472-16.64-1.568-2.688-0.048-5.424 1.232-8.048 2.128-4.832 1.648-9.6 1.664-14.512 0.144-2.832-0.896-5.824-1.376-8.784-1.712-5.152-0.608-5.904-1.328-5.872-6.48 0.080-26.224 0.864-52.432-0.096-78.624-0.528-14.784-1.088-29.536-0.944-44.304 0.080-6.96 0.336-13.936 0.368-20.896 0-2.128 0.704-3.024 2.848-2.928 1.136 0.048 2.272-0.288 3.648-0.48 1.104 4.032 2.224 8.080 3.344 12.112 0.32 0.048 0.624 0.096 0.944 0.144 0.512-1.104 1.36-2.176 1.456-3.312 0.288-3.984-0.192-7.888-2.304-11.456-1.808-3.088-1.232-4.304 2.368-4.336 8.704-0.032 17.392 0.336 26.096 0.144 4.304-0.096 8.592-1.216 12.896-1.712 2.56-0.272 5.168-0.464 7.792-0.48 5.216-0.048 7.856 2.448 8.384 7.712 0.048 0.384 0.032 0.768 0.048 1.168 0.288 4.448 1.328 5.904 5.712 6.048 8 0.24 16.016 0.080 24.032 0.048 1.072 0 2.128-0.272 3.168-0.272 18.944-0.048 37.904-0.272 56.832-0.080 16.912 0.176 33.84 0.704 50.736 1.216 6.864 0.192 13.712 0.768 20.56 1.168 1.936 0.096 2.976 1.040 3.296 2.976 0.512 3.2 0.368 6.096-1.952 8.704-0.656 0.72-0.608 2.256-0.512 3.392 0.048 0.8 0.624 1.6 1.12 2.32 9.872 14.848 16.976 31.168 25.184 46.912 1.936 3.728 4.592 7.088 7.008 10.576 2.368 3.408 4.96 6.672 7.2 10.16 1.792 2.784 1.184 4.48-1.712 6.48-1.888-2.448-3.728-4.928-5.712-7.296-0.432-0.528-1.36-0.656-2.048-0.944-0.192 0.864-0.656 1.792-0.48 2.608 0.176 0.896 0.816 1.712 1.36 2.544 1.472 2.208 1.744 4.176 0.096 6.672-0.72 1.104-0.32 3.264 0.144 4.784 0.576 1.936 1.904 3.744 0.192 5.664-1.664 1.856-3.728 2.656-6.272 1.936-1.76-0.512-3.584-0.8-5.376-1.264-3.68-0.944-7.248-1.28-11.12-0.672-4.144 0.656-8.976 1.28-12.608-0.224-4.288-1.792-7.568-0.080-11.344 0.224-7.616 0.624-15.264 0.992-22.88 1.088-2.928 0.032-5.872-1.040-8.8-1.6-2.656-0.512-5.28-0.8-7.104 2.416zM182.928 185.184c-3.728-0.336-5.072 0.432-4.4 2.704 0.752 2.464 0.416 4.032-1.696 5.728-0.72 0.576-0.080 2.88-0.048 4.4 0.912-0.176 2.352 0 2.704-0.528 2.448-3.696 4.48-7.616 3.44-12.304zM129.312 96.72c2.464-2.56 2.272-13.536-0.288-15.552-2.4 2.176-2.176 13.536 0.288 15.552zM175.024 62.304c2.128-1.232 2.8-3.968 1.648-6.528-0.272-0.608-1.040-1.456-1.52-1.424-0.704 0.080-1.6 0.672-1.936 1.328-1.328 2.592-0.096 4.592 1.808 6.624zM377.936 146.112c-1.936-2.416-3.072-3.824-4.208-5.248-0.272 0.512-0.864 1.184-0.72 1.52 0.752 1.6 1.664 3.152 2.688 4.592 0.096 0.144 1.312-0.512 2.256-0.864zM132.432 197.472c2.448-2.112 2.208-3.312-0.768-5.072-0.624 0.608-1.28 1.264-1.792 1.744 0.992 1.28 1.792 2.32 2.56 3.344z"></path>
<path fill="#fff" d="M250.752 160.176c14.8-0.464 34.288 8.096 38.208 27.408 0.768 3.872 1.136 7.84 1.328 11.776 0.080 1.648-0.288 3.696-1.264 4.912-1.696 2.16-1.808 4.256-1.6 6.768 1.328 15.312 2.688 30.624 3.744 45.952 0.368 5.168-0.528 10.448-0.224 15.616 0.72 12.496 0.144 24.88-1.424 37.296-0.528 4.336 0.32 8.832 0.512 13.248 0.080 1.744 0.368 3.536 0.096 5.2-2.352 13.792-0.432 27.6-0.032 41.376 0.24 7.808 0.56 15.664 1.552 23.408 1.12 8.56 2.352 17.248 4.864 25.472 2.048 6.72 5.68 13.056 9.328 19.136 3.936 6.56 4.112 6.112-2.896 8.992-4.736 1.936-9.264 4.736-13.376 7.84-3.296 2.464-6.528 4.016-10.624 4.72-7.984 1.36-15.84 3.264-23.744 4.976-3.68 0.8-7.184 0.768-10.72-0.912-4.816-2.304-9.968-1.76-15.12-1.408-2.464 0.176-5.008 0.080-7.472-0.32-5.12-0.8-10.224-1.792-15.312-2.896-1.312-0.288-2.928-0.944-3.552-1.952-0.368-0.608 0.624-2.496 1.472-3.36 7.744-7.904 11.024-17.648 12.24-28.4 0.336-3.040 1.424-6 1.984-9.024 0.704-3.744 1.648-7.552 1.744-11.312 0.128-5.392-0.656-10.816-0.672-16.224-0.032-4.912 0.576-9.792 0.704-14.704 0.048-2.048-0.032-4.336-0.864-6.112-1.232-2.64-1.472-5.104-0.896-7.856 1.088-5.296 2.256-10.592 3.024-15.936 0.32-2.080-0.368-4.304-0.512-6.464-0.32-4.496-0.912-8.992-0.768-13.488 0.144-5.328 0.704-10.496-1.28-15.728-0.768-2.048-0.048-4.72 0.128-7.104 0.416-6.048 0.944-12.096 1.312-18.144 0.176-2.592 0.096-5.2 0.080-7.792-0.080-10.72 0.656-21.504-0.512-32.096-0.992-9.040-2.112-18.112-2.896-27.152-0.96-10.928 0.672-21.808 2.976-32.496 2.496-11.712 13.84-21.52 26.144-22.832 1.424-0.144 2.88-0.24 4.336-0.368zM280.352 262.624c1.696-1.552 2.224-9.968 0.528-11.408-0.336-0.32-1.84 0-2.16 0.48-1.36 2.048-0.192 9.136 1.616 10.928zM279.696 409.616c1.792-2.928 0.848-5.728 0.048-8.496-0.096-0.336-1.616-0.704-1.904-0.432-2.512 2.272-1.552 7.184 1.856 8.928zM237.232 431.408c1.456 1.696 2.784 3.088 4.736 1.36 1.568-1.376 0.816-3.728-1.744-5.856-0.992 1.472-1.936 2.896-2.992 4.496z"></path>
<path fill="#fff" d="M94.752 207.776c0.176 12.144-0.992 24.032-4.784 35.728-2.16 6.576-2.736 13.536-1.808 20.624 0.528 4.080 0.176 8.288 0 12.448-0.272 6.048 0.192 11.952 1.984 17.776 0.624 2 0.704 4.16 1.184 6.208 0.944 4.032 1.52 8.224 3.072 12.016 5.248 12.768 10.88 25.376 16.32 38.048 4.928 11.456 13.888 19.44 23.68 26.432 9.44 6.72 19.296 12.864 29.136 19.008 6.752 4.208 11.952 9.744 15.792 16.608 0.624 1.12 1.072 2.56 0.96 3.824-0.624 8.928-2.048 17.632-7.040 25.392-1.232 1.904-2.128 2.448-4.064 0.96-0.8-0.624-2.176-0.864-3.216-0.752-2.512 0.32-4.256-0.704-5.824-2.496-0.944-1.072-1.936-2.256-3.152-2.896-14.032-7.52-25.584-18.336-37.552-28.544-5.632-4.816-8.496-5.168-14.048-0.272-8.272 7.296-16.16 14.944-22.848 23.824-3.696 4.912-8.224 9.216-12.528 13.632-2.496 2.544-4.176 2.032-6.112-0.896-3.344-5.072-3.072-10.256-0.608-15.424 2.88-6 6.144-11.824 9.088-17.808 4.592-9.36 9.408-18.624 13.424-28.224 1.472-3.536 1.024-7.904 1.36-11.904 0.048-0.608-0.272-1.408-0.672-1.888-6.896-7.888-9.504-17.856-13.040-27.28-5.344-14.288-7.792-29.264-8.832-44.48-0.528-7.616-1.136-15.232-1.664-22.848-0.176-2.592-1.168-4.352-3.936-4.96-1.168-0.24-2.256-1.040-3.248-1.792-0.768-0.56-1.376-1.36-1.952-2.128-5.056-6.8-11.728-9.776-20.224-9.536-7.328 0.192-14.672-0.384-22.032-0.56-2.368-0.048-4.336-0.72-5.776-2.688-1.552-2.112-3.296-4.064-4.736-6.208-1.792-2.656-1.312-3.92 1.84-4.768 2.704-0.72 5.488-1.088 8.224-1.744 6.288-1.504 12.48-3.536 18.832-4.48 10.88-1.568 21.84-2.512 32.8-3.632 2.128-0.224 3.488-0.912 3.84-3.12 2.944-18.24 11.024-34.704 17.792-51.632 0.752-1.856 1.808-3.632 2.88-5.344 0.48-0.752 1.36-1.232 2.048-1.84 0.528 0.752 1.376 1.424 1.52 2.256 1.36 7.28 2.88 14.56 3.776 21.904 0.576 4.432 0.144 8.928 0.144 13.376z"></path>
<path fill="#fff" d="M427.872 200.768c2.272 3.584 5.152 7.808 7.616 12.288 0.8 1.456 0.608 3.536 0.624 5.328 0.032 3.888 0.512 4.592 4.304 5.072 2.976 0.384 6 0.416 8.928 1.008 2.368 0.48 4.576 1.696 6.896 2.368 1.6 0.48 3.264 0.848 4.912 0.896 2.368 0.080 4.816-0.528 7.104-0.176 5.056 0.768 10.224 1.424 14.992 3.168 6 2.208 12.256 1.984 18.352 3.072 1.376 0.24 2.928 0.080 4.256-0.336 1.616-0.512 2.944-0.72 4.144 0.8 1.264 1.616 2.736 3.12 1.568 5.424-0.048 0.096-0.080 0.176-0.096 0.272-3.776 9.472-4.208 9.648-14.512 9.44-3.12-0.080-6.272 0.704-9.408 1.008-0.816 0.080-1.664-0.224-2.512-0.224-2.32 0-4.784-0.384-6.96 0.224-3.888 1.072-7.648 2.656-11.36 4.176-2.592 1.072-5.2 2.16-7.552 3.648-2.544 1.616-4.976 2.176-7.936 1.6-3.408-0.656-6.896-0.96-10.352-1.312-3.696-0.368-4.88 0.912-5.168 4.672-0.528 6.816-0.768 13.744-2.032 20.432-3.984 21.136-7.392 42.464-15.376 62.608-2.176 5.52-5.52 10.592-8.416 15.824-3.408 6.112-2.992 7.328 1.952 12.16 4.288 4.16 7.904 8.944 11.904 13.392 2.88 3.2 5.664 6.576 8.944 9.328 4.144 3.456 8.928 6.144 13.088 9.6 2.32 1.904 4.24 4.528 5.68 7.152 0.752 1.328 0.624 3.728-0.128 5.072-0.528 0.944-2.832 1.312-4.288 1.184-1.952-0.176-4.016-0.752-5.808-1.648-4.928-2.448-9.68-5.28-14.608-7.696-3.344-1.648-6.96-2.688-10.304-4.352-4.16-2.096-8.24-3.776-13.040-4.352-2.544-0.32-5.024-2.176-8.080-1.616-0.992 0.192-2.256-0.464-3.248-1.024-2.464-1.36-4.432-0.816-6.16 1.216-1.936 2.304-3.968 4.496-5.808 6.864-6.336 8.144-15.072 13.184-23.68 18.384-3.504 2.128-7.184 4.016-10.576 6.336-1.072 0.72-1.696 2.416-2.032 3.776-0.432 1.76-0.128 3.696-0.56 5.44-0.656 2.64-2.416 3.168-4.544 1.6-11.904-8.736-13.28-22.752-3.248-32.72 3.216-3.2 6.672-6.16 9.92-9.36 10.864-10.688 20.192-22.592 29.040-34.976 8.752-12.256 15.888-25.296 22.080-38.96 3.552-7.84 4.48-16.176 5.344-24.528 2.032-19.328 3.888-38.672 5.52-58.016 0.992-11.92 2.208-23.872-0.624-35.792-0.656-2.736-0.144-5.76-0.176-8.656-0.032-1.744 0.96-2.224 2.464-1.808 4.432 1.184 8.832 2.608 13.296 3.584 1.472 0.288 3.2-0.48 5.616-0.896z"></path>
</svg>
