<!-- Generated by IcoMoon.io -->
<svg version="1.1" xmlns="http://www.w3.org/2000/svg" width="32" height="32" viewBox="0 0 32 32">
<title>factions-death-askurgan-trueblades-cropped</title>
<path fill="#fff" d="M15.369 30.554c-1.139-0.399-2.278-2.278-2.278-3.759 0.028-1.367 1.538-8.115 2.762-12.159 0.313-1.054 0.769-1.111 0.883-0.114 0.057 0.456 0.256 0.997 0.456 1.196 0.199 0.171 0.598 1.338 0.883 2.563 0.285 1.253 0.74 2.705 0.997 3.246s0.712 1.993 0.997 3.218c0.513 2.164 0.513 2.25-0.029 3.559-0.826 1.936-2.734 2.876-4.67 2.25z"></path>
<path fill="#fff" d="M23.029 21.613c0-0.142 0-2.62 0.029-5.524 0.029-3.275-0.057-5.382-0.256-5.496-0.142-0.085-0.883 0.342-1.623 0.997-1.595 1.367-2.591 1.879-2.933 1.509-0.114-0.142-0.598-1.281-1.025-2.534-1.794-5.239-1.68-5.296-2.278 1.253-0.057 0.683-0.171 1.281-0.256 1.367-0.199 0.199-4.072-1.623-4.471-2.079-0.171-0.228-0.513-0.399-0.712-0.399-0.313 0-0.399 0.569-0.399 2.506 0 2.278 0.085 2.677 1.025 4.613 0.541 1.168 1.224 2.363 1.452 2.648 0.683 0.712 0.256 0.911-1.851 0.883-1.595-0.029-2.164-0.171-3.502-0.911-2.392-1.367-5.78-5.239-6.122-7.033-0.285-1.509 0.028-4.442 0.626-5.98 0.883-2.306 0.769-2.221 3.389-2.050l2.335 0.171 0.854-2.050 0.826-2.050 2.563 0.057c1.395 0 3.36 0.057 4.385 0.085s3.275-0.057 5.040-0.142l3.161-0.199 1.224 1.822c1.452 2.136 1.538 2.221 2.648 2.022 0.683-0.114 1.196 0.085 2.278 0.826 2.136 1.424 2.591 2.221 2.563 4.328-0.085 2.961-0.769 4.072-5.467 8.97-2.164 2.25-3.417 3.104-3.502 2.392zM7.054 16.915c-0.228-0.427-0.37-1.936-0.399-4.328 0-4.1-0.057-4.214-2.107-4.584-0.997-0.171-1.025-0.171-1.822 1.509l-0.797 1.68 0.854 1.68c0.854 1.709 3.559 4.67 4.271 4.67 0.285 0 0.285-0.114 0-0.626zM27.499 14.637c0.256-0.513 0.626-1.253 0.826-1.652 0.228-0.399 0.513-1.281 0.683-1.993 0.256-1.224 0.256-1.281-0.712-2.193-0.57-0.513-1.253-0.94-1.509-0.94-1.025 0-1.196 0.655-1.111 4.243 0.085 3.389 0.085 3.446 0.74 3.446 0.456 0 0.769-0.285 1.082-0.911zM13.091 6.607c0-2.591-0.228-2.961-2.050-3.389-1.025-0.256-1.936 0.854-1.936 2.363 0 0.911 0.171 1.224 1.224 2.050 1.452 1.196 2.25 1.652 2.534 1.481 0.142-0.085 0.228-1.224 0.228-2.506zM21.206 8.116c1.481-0.826 1.566-0.94 1.566-1.965 0-2.42-0.997-3.246-3.161-2.591-1.367 0.427-1.623 1.167-1.111 3.417 0.541 2.449 0.456 2.392 2.705 1.139z"></path>
</svg>
