<!-- Generated by IcoMoon.io -->
<svg version="1.1" xmlns="http://www.w3.org/2000/svg" width="512" height="512" viewBox="0 0 512 512">
<title>factions-chaos-tzeentch-daemons</title>
<path fill="#fff" d="M317.040 0c2.864 3.616 3.248 14.080 1.056 18.624-4.928 10.176-11.792 19.008-19.264 27.328-3.392 3.776-7.312 7.488-12.896 8.16-0.512 0.080-1.056 0.272-1.488 0.576-8.496 5.984-17.904 10.976-23.136 20.592-0.368 0.656-0.816 1.296-0.96 2-1.488 7.248-3.904 14.288-3.52 21.888 0.288 5.312-0.080 10.688-0.384 16.016-0.416 6.912 1.616 13.248 3.824 19.648 1.856 5.344 4.24 10.832 4.432 16.288 0.224 6.224-0.576 13.040-3.008 18.72-3.92 9.264-9.552 17.824-14.416 26.704-2.24 4.112-5.632 6.976-9.184 9.952-6.352 5.344-12.24 11.28-17.856 17.44-4.88 5.36-7.2 12.144-7.36 19.408-0.128 5.536-0.336 11.216 0.752 16.576 2.096 10.352 9.6 17.104 17.488 23.36 0.656 0.528 1.344 0.992 2.016 1.472-3.712 5.072-8.784 7.296-14.624 8.832-4.432 1.152-8.4 4-12.576 6.032-0.944 0.464-1.92 1.056-2.928 1.136-5.408 0.368-8.352 3.808-10.592 8.176-0.288 0.576-0.368 1.376-0.816 1.728-6.4 4.88-8.352 13.744-15.776 17.712-0.528 0.288-0.944 0.896-1.296 1.392-5.152 7.072-10.64 13.936-15.28 21.312-2.624 4.16-4.256 9.088-5.6 13.888-2.784 9.84-6.064 19.696-7.344 29.76-1.136 8.976-0.384 18.304 0.512 27.408 0.912 9.424 2.832 18.768 4.592 28.096 0.512 2.64 1.904 5.152 3.104 7.632 2.256 4.672 4.864 9.216 6.976 13.952 1.712 3.856 3.168 7.888 4.24 11.952 0.992 3.824 1.28 7.824 1.856 11.664-6.64 1.664-11.648-0.72-16.64-3.152-4.768-2.304-9.552-4.576-14.288-6.96-1.104-0.56-2-1.536-2.976-2.304-0.992-0.8-1.904-2-3.008-2.256-3.712-0.864-5.296-3.632-6.88-6.608-0.72-1.376-1.728-2.784-3.008-3.616-5.776-3.712-11.792-7.024-17.52-10.8-2.352-1.568-4.672-3.616-6.224-5.936-3.216-4.832-8.080-7.776-12.192-11.568-1.52-1.392-2.64-3.216-3.92-4.864-0.272-0.336-0.384-0.8-0.704-1.088-8.608-7.456-12.080-18.48-18.672-27.376-6.176-8.368-10.128-18.384-15.184-27.616-1.616-2.928-3.824-5.552-5.392-8.512-0.944-1.824-1.104-4.048-1.68-6.080s-1.184-4.016-1.776-6.016c-0.096-0.32-0.384-0.56-0.432-0.848-1.008-5.312-2.016-10.656-3.024-16-0.048-0.224 0.080-0.464 0-0.624-2.976-6.256-1.344-13.664-4.96-19.776-0.384-0.672-0.368-1.632-0.368-2.48-0.064-13.472-0.128-26.944-0.096-40.416 0-1.104 0.56-2.208 0.96-3.264 0.32-0.896 1.056-1.712 1.136-2.592 0.48-6.4 2.816-12.224 5.12-18.112 2.304-5.84 3.968-11.952 6.128-17.872 3.856-10.448 10.64-18.912 18.624-26.416 15.808-14.848 34.336-25.264 54.448-33.072 9.568-3.728 19.264-7.36 26.944-14.48 9.52-8.832 15.536-19.488 15.616-32.88 0.048-6.416 0.048-12.848 0.192-19.248 0.24-10.592 3.056-20.528 7.728-30.016 1.76-3.584 2.352-7.824 4.496-11.12 2.672-4.112 6.496-7.488 9.616-11.328 3.344-4.112 6.080-8.832 9.856-12.432 3.44-3.296 6.416-7.872 12.096-7.936 0.224 0 0.432-0.048 0.624-0.096 6.128-1.616 12.272-3.2 18.384-4.832 3.808-1.008 7.632-1.904 11.36-3.152 2.384-0.8 4.528-2.304 6.912-3.2 2.16-0.816 4.448-1.664 6.704-1.728 5.776-0.224 11.552-0.032 17.328 0.032 1.056 0 2.208 0.224 3.2-0.064 5.728-1.584 11.52-2.96 17.056-5.056 4.112-1.536 8.016-3.808 11.712-6.208 4.448-2.88 8.352-6.704 12.944-9.312 3.008-1.68 6.016-3.024 7.984-5.968 0.432-0.128 0.848-0.128 1.28-0.128z"></path>
<path fill="#fff" d="M263.504 303.792c12.576 0.096 23.52 2.624 33.968 7.344 0.576 0.272 1.184 0.608 1.776 0.672 12.56 1.68 22.416 9.232 31.68 16.592 10.64 8.464 19.84 18.88 25.888 31.472 2.096 4.384 4.208 8.736 3.808 14-0.224 2.928 1.344 5.968 1.776 9.024 0.464 3.216 0.672 6.512 0.704 9.792 0.080 13.904 0.272 27.792-0.176 41.664-0.128 3.92-2.208 7.792-3.456 11.664-0.384 1.2-1.52 2.336-1.488 3.488 0.080 7.152-4.192 12.272-8.176 17.296-12.144 15.344-26.416 28.432-44.672 36.080-15.28 6.368-31.232 10.464-48.112 8.688-9.696-1.008-19.344-2.4-28.368-6.224-2.352-0.992-3.92-3.76-5.968-5.552-3.968-3.488-8.016-6.928-12.096-10.304-0.8-0.656-1.92-0.896-2.912-1.296-3.216-1.296-6.544-2.384-9.616-3.904-7.408-3.664-11.856-10.128-15.728-17.104-0.944-1.68-1.68-3.456-2.736-5.056-4.592-6.976-7.776-14.608-10.512-22.448-0.24-0.704-0.48-1.472-0.944-2.016-5.728-6.64-6.752-14.624-6.912-22.992-0.096-5.44-0.864-10.848-1.056-16.288-0.080-1.92 0.8-3.872 1.088-5.84 3.36-22.784 13.6-41.936 30.336-57.632 16.576-15.568 36.32-24.944 58.432-29.616 1.664-0.368 3.312-0.912 5.008-1.056 3.168-0.272 6.4-0.336 8.496-0.432z"></path>
<path fill="#fff" d="M467.104 320.992c6.912-0.944 12.768 3.92 13.088 11.552 0.032 0.848 0.080 1.728 0.384 2.496 3.856 9.168 3.616 18.336 0.32 27.6-0.56 1.536-0.576 3.408-0.336 5.056 0.96 6.512-1.616 12.384-3.52 18.288-2.016 6.272-4.832 12.288-7.296 18.432-5.264 13.2-13.040 24.88-21.44 36.272-8.944 12.144-20.48 21.392-32.192 30.512-3.44 2.672-6.544 5.824-10.032 8.416-2.448 1.824-5.216 3.296-7.984 4.672-7.936 3.904-16.016 7.536-23.872 11.568-3.824 1.968-5.264-1.008-6.928-2.96-0.656-0.768 0.128-2.928 0.528-4.384 0.96-3.36 2.112-6.656 3.12-10 1.184-3.824 2.112-7.728 3.456-11.504 1.824-5.104 4.432-9.952 5.792-15.184 1.152-4.352 0.992-9.072 1.472-13.616 0.224-2.096 0.656-4.16 0.944-6.224 0.32-2.096 0.848-4.208 0.848-6.32 0.080-16.448-0.416-32.928 0.32-49.36 0.192-4.544 3.856-8.976 6.064-13.376 0.176-0.336 1.536-0.128 2.352-0.048 8.080 0.608 16.16 1.728 24.256 1.712 6.016-0.032 12.032-1.568 18.048-2.432 0.32-0.048 0.656-0.096 0.944-0.24 4.72-2.16 9.136-4.88 14.48-5.776 1.952-0.336 4.112-2.768 5.104-4.768 3.36-6.688 7.392-13.104 8.416-20.864 0.368-3.12 2.256-6.080 3.664-9.504z"></path>
</svg>
