<!-- Generated by IcoMoon.io -->
<svg version="1.1" xmlns="http://www.w3.org/2000/svg" width="512" height="512" viewBox="0 0 512 512">
<title>factions-chaos-slaves-to-darkness</title>
<path fill="#fff" d="M258.256 0.128c0.448 0.624 0.784 1.408 1.36 1.856 1.584 1.136 2 2.736 2.688 4.48 3.952 9.968 7.856 20.032 12.512 29.664 5.76 11.872 12.304 23.36 18.496 35.040 1.088 2.080 2.064 4.224 3.056 6.272-1.728 2.448-3.744 1.68-6.032 1.024-5.952-1.696-10.672-5.52-15.712-8.736-0.48-0.32-1.024-0.544-2.096-1.136 0.224 3.024 0 5.744 0.736 8.144 2.096 7.072 2.896 14.24 2.848 21.568-0.016 3.28 0.176 3.264 3.408 3.392 2.16 0.080 4.384 0.384 6.464 0.976 7.344 2.048 14.736 3.952 21.888 6.544 3.088 1.12 5.488 4 8.432 5.616 6.208 3.392 12.608 6.416 18.848 9.696 3.056 1.6 6.144 3.264 8.896 5.296 3.152 2.32 5.952 5.12 9.152 7.904 6.256-7.536 15.84-11.712 19.904-21.52-2.592-1.264-4.8-2.224-6.896-3.392-2.288-1.248-2.656-3.344-0.736-5.136 1.056-0.992 2.416-1.744 3.792-2.256 6-2.144 12.032-4.208 18.112-6.16 2.48-0.8 5.152-1.024 7.568-2 3.872-1.536 7.568-3.52 11.408-5.152 3.6-1.536 7.232-3.072 10.976-4.224 1.328-0.4 3.264-0.112 4.4 0.672 0.672 0.464 0.624 2.544 0.32 3.728-1.52 5.76-2.96 11.552-4.896 17.168-2.448 7.072-5.424 13.952-8 20.992-1.344 3.68-2.288 7.504-3.424 11.264-0.608 2-1.248 3.984-1.856 5.952-5.328-0.928-5.6-5.696-7.632-9.808-2.224 2.080-4.528 3.792-6.288 5.936-3.936 4.8-7.6 9.808-11.36 14.752-0.976 1.28-1.328 2.592-0.272 4.080 2.144 3.088 4.128 6.32 6.352 9.328 6.896 9.296 11.376 19.888 15.712 30.496 1.328 3.264 1.728 6.928 2.448 10.416 0.976 4.752 1.808 9.504 2.72 14.288 0.048 0.176 0.128 0.352 0.112 0.512-1.28 5.728 3.008 7.536 6.816 9.616 0.736 0.4 1.68 0.624 2.512 0.592 8.272-0.528 16.544-1.136 24.848-1.728-0.816-4.752-2.048-9.488-5.552-13.408-1.088-1.216-1.808-3.072-2.016-4.72-0.56-4.336 2.72-6.832 6.688-4.864 4.352 2.144 8.368 4.992 12.576 7.456 2.080 1.216 4.336 2.16 6.432 3.392 5.968 3.472 11.808 7.232 17.904 10.496 6 3.2 12.352 5.696 18.352 8.88 5.456 2.88 10.608 6.272 16.56 9.84-0.72 0.352-1.136 0.736-1.648 0.848-4.432 0.928-6.368 5.264-9.936 7.232-3.296 1.824-7.024 3.056-10.672 4.128-11.008 3.2-21.248 7.904-31.136 13.744-5.68 3.344-12.208 5.216-18.288 7.872-1.312 0.56-2.384 1.712-3.952 2.864-1.072-0.224-1.12-1.184-0.624-2.72 1.856-5.888 3.552-11.808 5.328-17.824-6.592 0-13.216-0.56-19.696 0.208-3.76 0.464-7.296 3.072-10.88 4.864-0.512 0.256-0.624 1.344-0.864 2.080-1.952 6.72-3.936 13.424-5.792 20.16-0.656 2.352-1.152 4.784-1.392 7.2-0.544 5.664-2.784 10.672-5.728 15.376-3.952 6.32-7.808 12.688-12 18.848-2.512 3.664-5.552 6.96-8.544 10.64 3.888 5.28 7.952 10.768 11.968 16.272 1.088 1.488 2.4 1.536 3.584 0.384 3.408-3.408 7.696-6.080 9.36-11.024 0.208-0.656 1.856-1.52 2.144-1.312 0.864 0.608 1.808 1.648 1.984 2.624 0.512 2.624 0.448 5.392 0.928 8.016 0.816 4.48 1.728 8.944 2.896 13.344 1.6 6 3.392 11.952 5.296 17.84 2.256 6.896 4.8 13.696 7.056 20.592 1.28 3.92 0.064 5.456-3.984 4.672-2.672-0.512-5.12-2.080-7.744-2.928-4.8-1.536-9.696-2.752-14.448-4.384-3.184-1.072-6.128-2.896-9.328-3.872-6.816-2.048-13.808-3.6-20.624-5.632-1.36-0.4-2.752-1.92-3.328-3.264-0.288-0.72 0.928-2.384 1.824-3.248 2.592-2.448 5.36-4.688 7.968-6.928-3.728-7.664-10.416-12.096-15.504-17.184-9.568 6-19.040 12.064-28.656 17.856-2.592 1.584-5.6 2.48-8.48 3.536-8.768 3.248-17.52 6.624-26.4 9.504-2.896 0.944-6.256 0.592-9.392 0.752-2.4 0.128-6.816 4.144-6.832 6.48-0.064 8.416-0.016 16.848 0 25.264 0 0.656 0.256 1.328 0.416 2.128 7.056-3.552 13.568-7.68 20.688-10.496 0.208 0.32 0.4 0.624 0.608 0.928-0.528 1.456-1.008 2.944-1.6 4.384-0.992 2.448-2.336 4.784-3.008 7.28-1.76 6.736-5.216 12.608-8.88 18.368-1.488 2.352-3.408 4.464-4.688 6.896-3.52 6.672-7.68 13.168-9.888 20.256-2.128 6.8-5.28 13.040-8 19.52-0.736 1.76-1.68 3.472-2.752 5.056-0.512 0.736-1.6 1.6-2.352 1.52-0.784-0.064-1.792-1.056-2.144-1.872-5.12-11.68-9.952-23.504-15.248-35.104-2.88-6.272-6.656-12.128-9.776-18.288-2.112-4.128-3.856-8.416-5.632-12.688-1.984-4.656-3.92-9.328-5.696-14.048-0.288-0.8-0.128-2.288 0.448-2.736 0.688-0.56 2.208-0.864 2.992-0.48 4.832 2.336 9.808 4.544 12.608 9.6 0.352 0.624 1.088 1.056 1.984 1.872 0.112-1.136 0.208-1.872 0.224-2.624 0.048-3.072-0.048-6.144 0.080-9.216 0.336-7.488 0.752-15.008 1.136-22.496 0.048-0.944 0-1.92 0-2.928-4.88-1.008-9.6-1.92-14.288-2.992-19.040-4.4-36.384-12.544-52.224-23.904-1.648-1.184-3.216-1.648-5.056-1.12-2.688 0.784-5.456 1.456-8 2.56-1.312 0.56-2.224 2-3.296 3.072-3.616 3.68-7.2 7.408-10.864 11.024-1.152 1.136-2.608 2-3.52 2.688 2.048 5.808 6.464 5.872 10.464 6.496 1.808 0.272 3.68 0.064 5.52 0.048 2-0.016 2.192 1.12 1.584 2.608-0.256 0.608-0.752 1.216-1.28 1.616-4.528 3.392-9.152 6.48-15.232 6.080-1.952-0.128-3.952 0.272-5.92 0.528-5.28 0.672-10.576 1.408-15.872 2.128-0.784 0.112-1.6 0.080-2.336 0.336-3.056 0.992-6.096 1.984-9.088 3.088-2.512 0.928-5.088 1.808-7.36 3.152-2.4 1.424-4.8 2.16-7.488 1.76-0.816-0.128-1.744-0.784-2.208-1.472-0.288-0.464 0.064-1.472 0.336-2.144 0.512-1.28 1.344-2.464 1.68-3.792 1.008-3.888 1.856-7.808 2.72-11.744 1.136-5.168 2.192-10.4 3.36-15.568 1.056-4.672 2.336-9.28 3.28-13.952 1.184-5.792 2.048-11.632 3.2-17.424 0.208-1.12 1.136-2.080 1.728-3.12 0.976 0.752 2.352 1.312 2.8 2.288 1.536 3.408 2.672 7.008 4.064 10.496 0.656 1.616 1.424 3.2 2.256 4.736 0.928 1.76 1.952 2.016 3.328 0.288 1.68-2.128 3.328-4.336 5.328-6.128 2.784-2.48 5.824-4.688 8.864-6.896 1.36-1.008 2.064-2.096 2.112-3.92 0.064-2.944 0.464-5.92 0.864-8.832 0.32-2.288-0.656-4.048-1.872-5.808-7.808-11.232-13.888-23.392-18.016-36.416-2.336-7.328-3.808-14.912-5.696-22.384-0.208-0.848-0.288-1.872-0.816-2.448-2.192-2.224-4.528-4.352-6.864-6.432-0.336-0.288-0.992-0.288-1.488-0.288-8.768-0.016-17.552-0.016-26.784-0.016 0.992 2.4 2.128 4.48 2.688 6.688 0.624 2.512 2.624 4.208 3.424 6.416 1.152 3.152 1.648 6.592 2.16 9.936 0.128 0.8-0.544 2.192-1.216 2.544-0.72 0.352-2.256 0.128-2.816-0.448-5.152-5.28-11.68-8.192-18.32-10.96-3.136-1.328-6.064-3.152-9.104-4.672-1.312-0.656-2.8-0.944-4.080-1.648-3.2-1.76-6.336-3.68-9.488-5.536-2.56-1.488-5.072-3.072-7.728-4.4-4.352-2.16-8.736-4.288-13.232-6.128-3.52-1.424-6.928-3.184-11.008-3.072-1.392 0.048-2.848-1.648-4.624-2.752 1.408-1.072 2.32-2.128 3.472-2.592 4.288-1.712 7.76-4.56 11.488-7.168 7.232-5.072 14.672-9.904 22.976-13.232 5.2-2.080 10.352-4.272 15.376-6.72 4.56-2.208 8.928-4.864 13.408-7.264 0.912-0.48 1.984-1.056 2.928-0.96 3.024 0.256 5.2-1.184 7.216-3.088 1.12-1.072 2.464-2.352 3.744-0.848 0.592 0.688 0.352 2.672-0.208 3.68-2.688 4.88-5.6 9.616-8.768 14.976 3.264 0 5.936 0.016 8.592 0 5.968-0.016 11.936-0.048 17.904-0.128 4.416-0.064 7.168-2.544 8.288-6.928 2.992-11.68 7.904-22.624 12.944-33.52 2.624-5.728 5.152-11.504 7.888-17.168 1.28-2.672 3.136-5.056 4.464-7.696 1.248-2.48 2.416-5.072 3.008-7.744 0.288-1.28-0.416-3.28-1.392-4.256-1.616-1.616-3.872-2.608-5.744-4-3.152-2.336-6.224-4.8-9.328-7.216-0.592-0.464-1.12-1.008-1.392-1.248-3.408 3.184-5.936 6.736-6.016 12.096-2.784-3.072-4.352-5.552-4.88-9.104-1.344-9.264-2.688-18.56-6.256-27.36-2.256-5.6-3.984-11.376-6.064-17.040-0.624-1.696-1.392-3.488-2.528-4.88-1.872-2.288-2.864-4.816-2.896-7.68-0.016-0.8 0.56-1.872 1.2-2.352 0.544-0.416 1.728-0.48 2.4-0.208 2.608 1.12 5.184 2.4 7.696 3.728 2.752 1.456 5.456 3.024 8.208 4.48 2 1.056 4 2.16 6.128 2.928 4.256 1.52 8.544 2.928 12.88 4.144 5.808 1.648 11.664 3.12 17.52 4.56 2.752 0.688 5.568 1.152 9.232 1.888-5.136 3.392-9.696 6.4-14.688 9.696 5.12 4.832 9.408 9.632 14.448 13.424 3.056 2.288 7.088 3.536 11.344 1.456 5.744-2.8 11.776-4.96 17.456-7.84 3.584-1.792 6.816-4.288 10.080-6.624 5.216-3.76 10.736-6.896 16.896-8.928 5.888-1.952 11.616-4.432 17.52-6.352 2.864-0.928 6-1.056 9.008-1.488 1.616-0.224 2.352-1.024 2.48-2.752 0.48-7.152 1.152-14.288 1.648-21.424 0.080-1.136-0.576-2.336-1.056-4.144-2.992 0.544-5.92 1.072-8.864 1.6-0.944 0.176-1.888 0.592-2.816 0.48-2.672-0.256-4.8 0.512-7.024 2.064-1.024 0.736-4.080 0.4-4.656-0.464-0.8-1.2-2.528-2.816-1.136-5.008 3.264-5.184 6.208-10.528 9.44-15.696 2.816-4.48 6.064-8.688 8.752-13.232 2.848-4.8 5.152-9.904 7.872-14.8 2.88-5.2 5.936-10.304 8.96-15.44 0.416-0.72 1.264-1.2 1.808-1.872 0.656-0.8 1.808-1.792 1.712-2.528-0.48-3.264 1.952-5.056 3.28-7.408 0.32 0.128 0.656 0.128 1.008 0.128zM263.136 132.112c-19.984-0.016-35.728 3.12-48.288 8.032-21.952 8.608-40 22.528-53.472 41.6-8.736 12.4-16.944 25.568-18.624 41.392-0.528 4.864-1.184 9.696-1.52 14.56-0.448 6.608-0.624 13.264-0.944 19.888-0.016 0.528-0.288 1.024-0.288 1.536-0.048 5.136-0.336 10.288 0.048 15.376 0.272 3.52 1.408 6.96 2.288 10.416 1.264 4.96 2.224 10.064 4.064 14.816 4.784 12.352 12 23.296 20.832 33.12 2 2.224 4.688 3.856 7.072 5.744 1.552 1.248 3.216 2.4 4.624 3.808 3.792 3.744 6.992 8.288 11.264 11.312 18.96 13.44 40.208 20.704 63.456 21.28 34.544 0.848 64.032-11.344 88.352-35.84 10.944-11.008 19.504-23.616 24.192-38.608 0.672-2.16 1.312-4.352 2.224-6.416 4.064-9.072 6.832-18.352 5.968-28.464-0.256-2.96 0.112-5.968-0.128-8.944-0.448-5.36-1.264-10.704-1.648-16.080-0.448-6.080-0.464-12.176-0.848-18.288-0.176-2.592-0.512-5.232-1.312-7.68-4.064-12.512-10.096-24.048-18.096-34.48-23.92-31.184-55.68-47.008-89.248-48.080z"></path>
<path fill="#fff" d="M268.56 357.328c-1.008-1.6-1.616-2.56-2.224-3.536-0.992 0.656-1.952 1.328-3.52 2.352-5.024-1.2-10.8-2.56-16.56-3.952-0.416-0.112-0.864-0.464-1.248-0.384-3.408 0.72-5.808-0.912-7.904-3.296-0.272-0.32-0.784-0.48-1.008-0.816-2.064-2.88-7.088-2.48-7.344-7.824-0.176-3.52-2.848-6.88-4.256-10.368-1.088-2.672-1.936-5.456-2.96-8.144-2.608-6.88-8.8-11.696-17.216-9.824-3.152 0.688-6.56-0.048-9.024-2.4-1.072-1.024-1.984-2.848-1.952-4.32 0.064-9.936-2.72-18.848-8.896-26.656-2.688-3.408-3.952-7.344-4.336-11.664-0.336-3.856-1.008-7.664-1.328-11.488-0.112-1.216 0.224-2.624 0.8-3.728 1.328-2.528 3.28-4.784 4.256-7.408 0.848-2.288 0.816-4.96 0.944-7.472 0.128-2.448 0.112-4.928-0.144-7.36-0.512-4.8 1.344-8.88 3.296-13.024 0.928-1.984 1.888-4 2.336-6.128 1.712-8.304 5.824-15.568 9.616-22.976 1.008-1.952 2.784-3.616 4.48-5.12 5.968-5.232 11.808-10.672 19.424-13.632 10.080-3.936 20.352-7.072 31.12-8.272 2.048-0.224 4.192 0.256 6.256 0.592 7.424 1.216 15.024 1.872 22.176 3.952 9.68 2.816 17.408 9.088 24.192 16.48 1.744 1.888 4 3.328 5.952 5.056 0.784 0.672 1.52 1.488 2 2.384 3.424 6.32 7.056 12.512 10.032 19.024 1.488 3.248 2.192 7.008 2.592 10.576 0.848 7.744 1.088 15.552 1.872 23.312 0.352 3.552 1.056 7.408 3.984 9.76 4.736 3.808 3.872 8.288 2.096 12.816-1.952 5.056-4.32 9.968-6.624 14.88-3.12 6.608-5.952 13.28-7.008 20.576-0.144 0.944-0.448 1.872-0.72 2.8-1.392 4.688-1.392 4.592-6.288 4.048-3.728-0.4-7.168 0.4-10.64 2.064-5.536 2.656-8.656 7.168-10.88 12.496-0.816 1.984-1.2 4.192-1.408 6.336-0.544 5.296-0.864 10.608-1.344 15.904-0.064 0.656-0.4 1.36-0.848 1.856-2.8 3.136-5.632 6.256-8.528 9.296-1.136 1.2-2.336 2.096-3.328-0.272-0.208-0.512-1.088-1.072-1.6-1.008-0.528 0.064-1.36 0.848-1.36 1.328-0.080 3.28-2.384 3.088-4.592 3.12-0.944 0.112-1.888 0.080-2.336 0.080zM287.792 286.192c0.064-0.32 0.128-0.656 0.192-0.976 2.624 0 5.232 0.128 7.872-0.016 3.76-0.208 7.216-1.392 10-4.064 0.48-0.464 1.264-1.456 1.136-1.648-1.536-2.16 0.528-4.080 0.32-6.16-0.208-2.208 0.416-4.496 0.192-6.72-0.144-1.392-0.944-3.536-1.92-3.856-2.672-0.848-5.792-1.728-8.368-1.088-4.544 1.072-8.944 2.992-13.168 5.056-3.936 1.92-7.6 4.416-8.992 9.056-0.816 2.736 0.016 6.192 2.096 6.992 3.472 1.344 7.088 2.32 10.64 3.424zM208.528 276.768c0.416 0.864 1.088 2.272 1.808 3.664 0.352 0.688 0.992 1.28 1.184 2 0.736 2.672 2.752 3.824 5.2 4.192 6.944 1.008 13.872 1.872 20.784-0.48 3.744-1.28 4.608-2.192 4.432-6.208-0.128-2.56-1.488-4.192-3.456-5.552-0.928-0.656-2.080-1.2-2.656-2.080-2.656-4.144-7.152-5.472-11.216-7.408-1.152-0.56-2.752-0.416-4.128-0.352-1.808 0.112-3.616 0.448-5.424 0.688-2.496 0.336-4.624 1.248-5.216 4.016-0.464 2.192-0.784 4.432-1.328 7.536zM260.416 315.664c0.672 0.592 1.024 0.992 1.456 1.264 2.32 1.552 4.88 2.88 7.568 1.552s3.472-3.872 3.328-6.88c-0.352-7.168-3.92-13.088-7.408-19.008-0.448-0.736-1.728-1.216-2.672-1.36-5.424-0.912-8.624 2.528-11.536 6.256-4.144 5.344-4.96 11.632-4.88 18.144 0.048 2.944 1.312 4.128 4.256 3.952 3.664-0.176 7.168-0.784 9.888-3.92z"></path>
</svg>
