<!-- Generated by IcoMoon.io -->
<svg version="1.1" xmlns="http://www.w3.org/2000/svg" width="512" height="512" viewBox="0 0 512 512">
<title>factions-chaos-everchosen</title>
<path fill="#fff" d="M258.112 509.136c4.496-3.12 4.496-3.808-0.352-3.808-3.12 0-6.576-2.416-7.968-5.2-1.040-2.768-0.352-5.2 1.392-5.2 2.080 0 3.456 1.728 3.456 3.456 0 2.080 1.728 3.456 3.456 3.456 6.224 0 3.456-5.888-4.848-9.696-6.224-2.768-10.032-10.384-17.648-34.272-5.2-16.608-12.464-40.144-16.272-52.256l-6.928-22.144 8.992-9.344c13.84-14.544 11.76-26.992-6.928-38.768l-11.76-7.264-25.952 7.968c-14.192 4.16-26.656 6.928-27.344 6.224s2.768-13.504 7.616-28.384c6.928-21.808 7.968-28.384 4.848-35.296-5.2-11.072-18.688-14.192-35.648-8.656-11.424 3.808-16.272 3.808-26.656 0.352-25.952-8.992-42.224-15.92-42.224-18.336 0-1.728-6.224-2.768-14.192-2.768-12.464 0-34.272-8.656-34.272-13.84 0-3.456 32.88-16.96 50.192-20.768 9.696-2.080 22.496-6.224 28.72-8.992 18-8.304 35.296-10.384 35.296-4.16 0 16.608 26.304 15.568 39.104-1.392l6.928-8.992-9.344-23.536c-5.2-12.8-7.968-24.576-6.576-25.952 1.728-1.728 8.992-0.688 16.608 2.080 18.688 6.576 31.152 6.224 42.576-0.688 20.080-12.464 23.184-23.888 9.696-37.376l-8.656-8.656 8.992-21.456c4.848-12.112 11.424-28.72 14.88-37.376s8.304-20.768 11.072-26.656c2.768-7.264 6.928-11.424 11.072-11.424 3.808 0 5.888 0.688 4.848 1.728-3.12 3.12 10.384 42.912 23.888 70.608 10.384 21.456 11.424 25.952 7.264 28.384-3.12 1.728-7.968 6.928-11.072 11.76-5.536 8.304-5.2 9.344 3.12 22.496 10.736 16.608 17.312 17.312 51.92 5.2 26.656-9.344 36.688-8.656 36 2.768-0.352 6.928-0.688 6.928-2.080 1.040-1.392-4.848-4.848 0-13.504 18.688-10.736 22.496-11.424 26.656-8.304 38.416 3.456 12.464 4.848 13.504 15.568 13.504 8.992 0 12.8-2.080 16.272-8.304l4.496-8.656 29.424 10.384c16.272 5.536 38.080 13.504 48.448 17.312s23.888 8.304 29.424 10.032c5.888 1.392 7.968 2.768 4.848 3.12s-6.576 2.768-7.968 5.536c-1.040 2.768-4.848 5.2-8.656 5.2s-7.616 1.392-8.656 3.12c-1.040 1.728-9.344 4.16-18.336 5.536s-23.888 6.224-32.88 10.736c-19.040 9.696-27.68 10.384-33.92 3.12-2.416-3.12-10.032-5.2-17.648-5.2-12.112 0-14.192 1.392-19.376 12.112-5.536 11.76-5.536 13.152 1.728 33.568 4.496 12.112 11.072 24.912 14.544 28.72 8.304 8.656 8.992 17.648 1.728 20.416-4.16 1.392-4.496 0.688-1.040-4.848s3.456-7.616-0.352-11.072c-4.16-3.808-4.496-3.456-2.768 1.728 2.768 7.264-6.576 7.968-14.544 1.392-10.032-8.304-42.224-20.080-49.152-18-3.456 1.392-10.736 7.616-15.568 14.192l-9.344 12.112 22.848 28.384-6.224 24.576c-3.456 13.504-10.736 34.608-16.272 46.384-5.888 12.112-11.424 29.072-12.464 38.080-1.392 9.696-4.496 16.272-7.616 16.96-4.496 1.392-4.496 1.040 0-2.080zM276.448 296.976c17.648-5.2 32.528-20.416 36-36.688l2.416-12.8 2.416 12.112c1.728 8.992 2.416 6.928 2.080-9.344-0.352-12.112-1.728-21.808-2.768-21.808s-4.496-6.224-7.264-13.504c-16.608-42.224-87.904-43.616-105.216-2.080-7.616 18.688-6.224 47.072 3.12 60.912 16.608 24.912 38.768 32.192 69.216 23.184z"></path>
<path fill="#fff" d="M211.376 488.016c1.040-1.728 2.768-3.456 3.808-3.456s0.688 1.728-0.352 3.456c-1.040 2.080-2.768 3.456-3.808 3.456s-0.688-1.392 0.352-3.456z"></path>
<path fill="#fff" d="M305.184 487.68c1.728-2.768 0.688-3.456-2.768-2.080-4.496 1.392-4.848 0-2.416-8.992 5.2-20.416 11.76-37.040 14.192-37.040 1.728 0 2.768-3.12 2.768-6.928s4.848-16.96 10.384-29.072c11.76-24.576 14.544-26.304 45.344-26.304h19.376l3.12-24.912 3.12-25.264 32.88-16.272c18-8.992 36.336-16.272 40.496-16.608 4.16 0 8.656-1.392 9.696-3.456 7.968-12.8 19.376 6.928 12.112 20.768-5.2 10.032-7.968 6.928-3.808-4.496 2.768-7.264 2.416-8.656-1.392-7.264-2.416 1.040-5.536 5.2-6.576 9.344-1.040 4.496-7.264 13.84-14.192 21.456-9.344 10.384-12.112 16.272-11.072 23.536 0.688 5.2 0 10.384-1.728 11.424-1.392 1.040-2.768 8.304-2.768 16.272 0 10.736 1.040 13.152 3.456 9.344s3.456-1.392 3.456 8.656c0 10.032-1.040 12.464-3.456 8.656-2.080-3.12-3.456-3.456-3.456-1.040 0 2.080 1.728 5.2 3.456 6.224 2.080 1.040 3.12 6.224 3.12 11.424-0.352 6.224-1.040 7.264-2.080 3.12-1.392-5.888-2.080-5.888-5.536-1.040-3.12 4.16-14.544 6.224-43.264 8.656l-39.104 3.12-25.952 19.728c-14.192 10.736-26.992 22.144-28.384 25.264s-4.496 6.224-6.928 6.928c-2.768 0.352-3.808-0.688-2.080-3.12z"></path>
<path fill="#fff" d="M196.16 476.256c-3.12-3.808-3.12-5.2 0.352-6.576 2.416-1.040 0.688-2.080-3.808-2.080-4.496-0.352-16.96-7.264-27.344-15.92l-18.688-15.568h-28.384c-15.232 0-33.92-1.040-41.184-2.080l-12.8-2.416v-18c0-48.448-3.12-58.832-26.304-91.024-16.608-23.536-20.768-31.152-17.312-34.272 3.12-3.456 6.928-3.12 17.648 2.416 7.616 3.456 27.344 12.8 43.952 20.416 32.528 14.88 36.688 20.080 32.88 42.912-2.768 18 3.12 22.848 30.464 23.888l23.888 1.040 9.344 17.648c4.848 9.696 11.76 25.264 15.568 34.608 3.456 9.344 8.656 19.040 11.76 21.456 4.496 3.808 4.496 4.16 0 2.080-4.16-2.080-4.496-1.392-0.688 2.416 2.080 2.416 4.16 7.264 4.16 10.736s2.080 6.224 4.496 6.224c2.768 0 2.416 1.392-1.040 3.456-7.264 4.848-12.464 4.16-16.96-1.392z"></path>
<path fill="#fff" d="M498.656 249.2c1.040-1.728 2.768-3.456 3.808-3.456s0.688 1.728-0.352 3.456c-1.040 2.080-2.768 3.456-3.808 3.456s-0.688-1.392 0.352-3.456z"></path>
</svg>
