<!-- Generated by IcoMoon.io -->
<svg version="1.1" xmlns="http://www.w3.org/2000/svg" width="512" height="512" viewBox="0 0 512 512">
<title>factions-order-cities-of-sigmar-the-living-city</title>
<path fill="#fff" d="M266.448 510.032c-3.328-1.696-4.208-2.48-5.424-4.928-2.288-4.624-2.896-10.608-2-19.696 1.824-18.368 0.56-18.576-14.112-2.368-4.4 4.864-9.792 10.624-11.984 12.784-3.408 3.376-4.016 3.76-4.176 2.656-0.112-0.704 1.68-5.264 3.968-10.128 3.504-7.44 4.208-9.504 4.464-12.992 0.272-3.904 0.208-4.208-1.264-5.168-1.392-0.912-1.84-0.928-4.128-0.128-4.736 1.632-9.488 5.008-16.88 11.968-8.544 8.048-14.112 12.384-16.576 12.928-2.128 0.464-5.088-0.544-5.088-1.728 0-1.216 3.68-5.36 15.52-17.488 5.664-5.808 11.808-12.368 13.632-14.592 9.664-11.68 11.616-18.864 5.568-20.496-5.040-1.36-15.696 1.456-28.304 7.456-9.696 4.608-12.464 6.528-18.528 12.736-6.272 6.432-9.408 7.712-20.176 8.176-7.296 0.32-10.56-0.24-10.56-1.856 0-2.176 6.896-6.8 20.912-14.016 10.704-5.52 16.976-10.208 22.016-16.48 3.52-4.368 4.656-7.072 3.232-7.616-1.12-0.432-12.704 2.352-26 6.24-10.64 3.12-15.824 4-15.824 2.72 0-1.12 3.728-4.592 9.312-8.656 12.352-8.992 25.136-15.152 39.696-19.104 13.376-3.632 17.408-5.952 18.688-10.688 0.624-2.336 0.56-2.624-1.040-4.288-2.288-2.4-10.272-6.432-22.272-11.28-12.672-5.12-25.296-10.944-37.872-17.456-20.816-10.784-106.848-59.776-106.176-60.448 0.128-0.128 2.32 0.608 4.88 1.648 6.288 2.512 10.24 3.184 21.248 3.616 9.296 0.368 15.344 0 16.992-1.024 1.12-0.688 0.048-3.424-8.496-21.456-11.552-24.352-16.784-38.272-20.88-55.552-2.272-9.6-3.392-18.624-4.064-32.896-0.656-14.176-2.144-24.16-5.296-35.616-4.704-17.072-11.776-28.32-19.008-30.176-4.224-1.088-6.992-2.272-7.264-3.104-0.16-0.464 0.4-0.336 1.408 0.336 3.76 2.464 11.072 0.4 14.784-4.176 2.256-2.784 2.784-6.432 1.728-11.824-0.96-4.864-2.384-7.68-5.92-11.664-1.536-1.728-2.784-3.28-2.784-3.472 0-0.64 5.776 3.824 8.784 6.784 5.312 5.232 9.68 15.904 11.056 27.104 1.36 10.928 4.064 18.624 6.56 18.624 2.432 0 7.52-10.288 12.4-25.088 4.32-13.136 8.032-22.16 13.392-32.64 5.584-10.896 9.84-16.608 13.792-18.496 3.696-1.76 4.48-3.488 3.568-7.776-0.976-4.528-4.784-11.344-7.712-13.808-1.392-1.168-4.912-3.888-7.808-6.048-3.136-2.336-5.344-4.416-5.456-5.184s0.832-2.56 2.304-4.416c3.44-4.336 11.776-12.464 13.984-13.616 1.776-0.928 1.872-0.896 3.248 0.832 0.784 0.976 2.592 5.424 4.016 9.856 2.992 9.328 4.16 11.856 6.784 14.864 4.864 5.536 11.664 3.040 24.752-9.056 17.696-16.368 43.2-28 75.328-34.336 24.048-4.752 52.88-5.376 67.616-1.472 4.448 1.184 6.768 2.528 5.872 3.408-0.912 0.912-6.8 1.488-21.536 2.064-22.592 0.896-31.040 2.128-48.272 7.104-18.272 5.28-38.096 15.696-53.232 27.984-7.36 5.984-29.424 28.448-34.224 34.848-30.032 40.080-41.824 101.264-29.344 152.176 2.4 9.808 5.12 17.552 10.544 30.080 18.88 43.68 42.928 67.824 83.456 83.84 9.904 3.92 18 5.824 21.664 5.136 4.848-0.912 7.184-5.12 7.2-12.848 0-3.456-0.336-4.784-2.16-8.384-1.184-2.352-3.632-5.984-5.424-8.080-5.616-6.528-8.48-8.736-26.624-20.368-27.376-17.568-46.336-39.216-55.472-63.344-2.432-6.4-5.68-19.616-6.544-26.56-1.104-8.928-0.448-32.032 1.216-42.352 1.76-10.928 5.136-24.512 7.824-31.488 4.24-10.992 11.776-23.808 20.032-34.048 4.384-5.44 15.904-16.752 22.464-22.064 17.088-13.824 37.952-24.048 57.424-28.176 15.472-3.28 37.056-1.792 41.712 2.864 3.248 3.248-0.816 4.4-18.448 5.216-6.656 0.304-13.92 0.864-16.144 1.232-31.104 5.168-56 23.136-72.896 52.592-5.696 9.92-10.768 24.576-13.456 38.864-1.68 8.896-2.288 28.656-1.2 38.192 2.72 23.568 11.088 46.32 24.24 65.904 5.264 7.824 11.952 13.088 24.816 19.536 10.736 5.376 16.592 6.656 18.064 3.92 1.76-3.28-0.672-14.976-7.504-36.208-6-18.624-7.456-24.848-7.44-31.856 0-10.24 1.568-15.12 17.152-53.776 9.568-23.712 13.712-32.512 19.456-41.216 4.736-7.2 6.224-8.512 15.6-13.84 4.416-2.512 10.192-6.176 12.832-8.128s6-4.144 7.472-4.864c3.632-1.76 13.616-4.224 18.992-4.704 2.416-0.208 5.104-0.752 5.968-1.184s3.808-3.12 6.528-5.968c8.016-8.352 16.976-20.432 24.096-32.496 3.456-5.856 7.936-11.136 11.6-13.68 2.544-1.76 2.976-1.84 11.392-2.176 4.816-0.192 9.968-0.736 11.44-1.2 4.032-1.264 8.448-5.68 13.472-13.424 5.488-8.448 12.224-15.712 16.576-17.888 3.872-1.936 5.152-1.984 6.080-0.256 1.088 2.016 0.256 5.536-3.536 15.12-12.752 32.16-33.408 64.528-60.96 95.52-10.4 11.712-16.032 20.72-16.72 26.832-0.72 6.368 1.344 7.632 6.224 3.84 4.24-3.296 61.92-61.008 71.84-71.856 9.056-9.936 13.744-15.712 18.704-23.088 2.912-4.32 4.576-6.096 8.144-8.608 9.664-6.8 27.264-15.488 35.088-17.328 2.944-0.688 3.424-0.656 4.496 0.32 1.408 1.264 1.632 5.28 0.512 9.28-1.36 4.944-11.472 18.672-24.528 33.296-9.216 10.32-17.072 17.68-25.424 23.84-10.72 7.888-13.12 10.016-15.008 13.232-1.552 2.64-1.728 3.6-2.080 11.568-0.352 7.616-0.64 9.376-2.384 14.272-4.256 11.952-9.6 21.216-27.472 47.744-28 41.536-64.48 96.272-70.24 105.376-6.272 9.92-10.48 17.552-9.968 18.048 1.584 1.584 40.928-14.448 53.552-21.824 5.088-2.976 11.664-8.912 16.224-14.64 1.68-2.112 5.888-8.56 9.36-14.336 7.168-11.936 11.424-17.888 13.472-18.832 2.352-1.088 2.224 0.384-0.784 9.168-4.384 12.8-7.12 17.776-15.744 28.656-15.328 19.328-38.96 38.928-57.824 47.968-6.96 3.344-8.272 4.24-12.784 8.752-5.232 5.248-8.576 10.496-10.496 16.416-1.456 4.512-1.12 11.776 0.672 14.16 4.784 6.4 10.976 6 31.296-2.064 30.080-11.92 54.112-26.224 70.704-42.080 13.856-13.248 23.232-27.424 32.048-48.432 5.696-13.584 12.208-26.928 12.528-25.632 0.288 1.184-1.856 10.528-5.104 22.224-2.512 9.072-3.52 15.568-2.896 18.624 0.384 1.824 0.736 2.208 2.304 2.352 2.448 0.24 7.056-2.816 9.264-6.176 2.064-3.12 2.816-2.384 2.112 2.048-1.12 7.056-5.872 12.976-17.184 21.408-13.824 10.304-41.376 39.68-48.832 52.064-1.216 2.016-2.192 3.888-2.192 4.16s0.672 0.816 1.472 1.184c2.928 1.344 11.744-2.384 25.76-10.896 8.784-5.328 18.032-9.792 20.288-9.792 2.496 0 4.080 0.848 7.552 4.048 2.416 2.224 4.512 5.184 4.512 6.336 0 0.672-8.784 4.416-16.448 7.024-4.096 1.392-28.672 8.832-54.624 16.544s-49.552 14.864-52.448 15.888c-12.592 4.464-19.856 9.568-19.856 13.904 0 1.216 0.4 3.168 0.88 4.336 2.096 4.992 16.416 16.432 34.384 27.456 20.176 12.368 37.696 24.64 39.216 27.472 0.528 0.992 0.4 1.344-0.704 1.936-1.888 1.008-15.632 0.832-26.288-0.336-9.824-1.072-25.6-1.264-27.008-0.32-1.488 0.992 2.4 4.096 6.656 5.312 5.456 1.552 9.488 3.424 9.488 4.384 0 1.408-3.12 2.224-7.456 1.92-6.384-0.448-11.872-3.552-19.232-10.912-3.296-3.296-7.344-8.080-8.992-10.656-4.72-7.296-8.368-11.792-9.568-11.792-2.16 0-4.544 4.064-7.056 12.112-4.128 13.12-5.984 25.936-6.656 45.632-0.288 8.704-0.72 16.464-0.96 17.232-0.592 1.952-2.416 1.792-7.168-0.624zM300.752 15.712c-1.888-1.328-0.896-2.48 2.608-3.008 5.664-0.848 10.32 1.104 7.504 3.152-1.632 1.2-8.336 1.104-10.112-0.144z"></path>
</svg>
