<!-- Generated by IcoMoon.io -->
<svg version="1.1" xmlns="http://www.w3.org/2000/svg" width="32" height="32" viewBox="0 0 32 32">
<title>factions-order-stormcast-thunderstrike</title>
<path fill="#fff" d="M25.462 22.006c-0.288-0.132-0.525-0.306-0.779-0.343-0.425-0.063-0.796 0.061-0.714 0.614 0.114 0.76 0.29 1.513 0.376 2.275 0.092 0.598 0.145 1.287 0.145 1.989 0 0.159-0.003 0.317-0.008 0.475l0.001-0.023c-0.081 1.173-0.745 1.971-1.868 2.39-1.201 0.448-2.361 0.252-3.235-0.573-0.483-0.457-0.594-1.324-0.841-2.009-0.078-0.217-0.055-0.467-0.189-0.7-0.308 0.771-0.232 1.554 0 2.317 0.253 0.827 0.794 1.38 1.703 1.466 0.808 0.074 1.619 0.134 2.439 0.202-0.942 1.431-3.115 2.122-4.585 1.417-0.341-0.166-0.74-0.496-0.827-0.827-0.245-0.876-0.488-2.012-0.674-3.168l-0.026-0.195c-0.071-0.414-0.012-0.849-0.012-1.274l-0.218-0.036c-0.080 0.127-0.142 0.275-0.18 0.432l-0.002 0.010c-0.038 0.662-0.132 1.324-0.050 1.986 0.331 2.593-2.369 4.137-4.733 3.394-0.637-0.199-1.117-0.894-1.623-1.463 1.714 0.478 3.266 0.344 4.494-0.97 0.649-0.692 0.722-2.448 0.152-3.437 0 0.442 0 0.882 0 1.324-0.013 1.986-2.462 3.512-4.252 2.648-2.025-0.983-2.871-2.909-2.25-5.084 0.141-0.453 0.275-1.023 0.375-1.604l0.012-0.086c0.218-1.37-0.066-1.617-1.423-1.243-0.053-0.149-0.084-0.32-0.084-0.499 0-0.545 0.286-1.022 0.717-1.291l0.006-0.004c0.303-0.179 0.667-0.284 1.056-0.284 0.195 0 0.383 0.026 0.562 0.076l-0.015-0.003c0.771 0.25 1.235 0.92 1.182 1.8-0.066 1.1-0.185 2.196-0.248 3.296-0.012 0.145-0.018 0.313-0.018 0.483 0 0.351 0.028 0.695 0.083 1.031l-0.005-0.037c0.089 0.492 0.514 0.861 1.026 0.861 0.128 0 0.251-0.023 0.364-0.065l-0.007 0.002c0.599-0.19 1.129-1.089 0.885-1.579-0.076-0.152-0.331-0.225-0.53-0.305-0.341-0.142-0.692-0.26-1.209-0.45 1.285-0.933 1.13-2.14 1.039-3.31-0.108-1.367-1.136-1.996-2.025-2.461 0.165-1.655 0.283-3.171 0.465-4.682 0.343-2.831 1.954-4.748 4.661-5.372 2.768-0.635 5.672 0.197 6.962 3.412 0.554 1.355 0.884 2.926 0.903 4.571v0.008c0 0.303-0.043 0.662 0.096 0.895 0.528 0.897-0.045 1.228-0.683 1.655-1.097 0.72-1.687 2.99-1.091 4.101 0.189 0.352 0.525 0.626 0.885 1.041-0.235 0.134-0.523 0.394-0.854 0.467-0.632 0.139-0.601 0.591-0.538 1.016 0.070 0.478 0.41 0.68 0.907 0.616 0.72-0.094 1.188-0.602 1.158-1.46-0.051-1.233-0.233-2.459-0.275-3.692 0.004-0.456 0.145-0.877 0.384-1.227l-0.005 0.008c0.523-0.788 1.335-0.983 2.152-0.626 0.678 0.271 1.072 1.175 0.885 2.102zM16.677 20.816c0.543 0.87 0.993 1.541 1.391 2.247 0.521 0.943 1.413 1.536 2.082 1.405-0.356-0.662-0.945-1.324-1.041-2.037-0.139-1.048-0.754-1.703-1.227-2.347-0.263 0.166-0.477 0.283-0.688 0.412zM12.14 24.515c0.662-0.028 1.515-0.644 1.914-1.378 0.377-0.697 0.496-1.592 1.397-1.931 0.073-0.068 0.118-0.164 0.118-0.271 0-0.025-0.003-0.050-0.007-0.074v0.002c-0.084-0.122-0.195-0.219-0.326-0.282l-0.005-0.002c-0.27-0.166-0.551-0.331-0.859-0.496-0.331 0.439-0.827 0.942-1.12 1.546-0.45 0.928-0.753 1.935-1.11 2.888zM16.064 10.669c-1.246 0-2.26 0.971-2.238 2.151 0.021 1.092 1.105 2.193 2.242 2.107 1.186-0.089 2.232-0.813 2.285-2.069 0.050-1.211-0.98-2.186-2.288-2.189zM17.352 17.045l0.035 0.376c0.748 0.063 1.489 0.142 2.243 0.184 0.475 0.025 0.96-0.089 0.866-0.697-0.083-0.538-0.496-0.937-1.064-0.765-0.718 0.218-1.388 0.594-2.080 0.902zM14.845 17.363l0.048-0.349c-0.682-0.314-1.342-0.69-2.050-0.923-0.093-0.040-0.202-0.062-0.315-0.062-0.443 0-0.805 0.349-0.826 0.787v0.002c-0.026 0.22 0.405 0.7 0.642 0.708 0.831 0.028 1.666-0.096 2.502-0.162zM14.659 23.001h2.907c-0.488-0.763-2.346-0.793-2.907 0z"></path>
<path fill="#fff" d="M7.922 3.809c1.049 0.635 2.102 1.264 3.145 1.906s2.68 0.104 3.107-1.081c0.533-1.474 1.044-2.956 1.635-4.634 0.564 1.395 1.146 2.598 1.535 3.861 0.341 1.109 1.099 1.676 2.087 2.024 0.247 0.086 0.629-0.023 0.88-0.165 1.185-0.662 2.348-1.375 3.518-2.069l0.166 0.18c-0.444 0.993-0.827 2.012-1.347 2.969-0.429 0.804 0.116 1.278 0.518 1.736 0.199 0.225 0.726 0.29 1.076 0.235 1.873-0.298 3.736-0.662 5.691-0.827-0.22 0.175-0.434 0.359-0.662 0.528-1.105 0.827-2.232 1.62-3.311 2.482-0.303 0.238-0.71 0.662-0.662 0.957 0.089 0.662 0.331 1.284 1.215 1.441 1.625 0.304 3.043 0.701 4.408 1.208l-0.183-0.060-4.706 1.671c0.066 0.331 0.127 0.632 0.205 1.018h-2.866c-0.032-1.807-0.496-3.499-1.293-4.985l0.029 0.059c-2.212-4.225-6.952-5.223-10.571-2.151-1.765 1.503-2.483 3.598-2.77 5.84-0.165 1.291-0.122 1.296-1.418 1.296h-1.139c0.202-0.793-0.331-0.935-0.828-1.12-1.18-0.43-2.353-0.88-3.761-1.408 1.454-0.45 2.64-0.913 3.87-1.158 0.773-0.165 0.806-0.7 0.885-1.188 0.053-0.331-0.083-0.851-0.331-1.051-1.213-0.993-2.491-1.913-3.744-2.86-0.209-0.165-0.412-0.331-0.808-0.635 2.18 0.386 4.108 0.702 6.024 1.081 0.571 0.113 0.918-0.018 1.279-0.46s0.455-0.809 0.189-1.334c-0.389-0.758-0.707-1.554-1.046-2.337-0.103-0.237-0.182-0.485-0.271-0.728z"></path>
<path fill="#fff" d="M17.869 12.819c-0.017 0.97-0.745 1.64-1.782 1.64-0.993 0-1.734-0.726-1.722-1.696 0.013-0.993 0.778-1.665 1.866-1.628 0.002 0 0.004 0 0.006 0 0.902 0 1.633 0.731 1.633 1.632 0 0.019 0 0.037-0.001 0.056z"></path>
</svg>
