<!-- Generated by IcoMoon.io -->
<svg version="1.1" xmlns="http://www.w3.org/2000/svg" width="512" height="512" viewBox="0 0 512 512">
<title>factions-order-stormcast-warrior</title>
<path fill="#fff" d="M259.216 512c-3.2-0.352-6.448-0.64-9.648-1.12-1.92-0.288-4.112-0.48-5.648-1.488-4.208-2.8-8.64-5.552-12.016-9.2-3.488-3.776-6.176-8.448-8.56-13.056-2.080-4.016-0.352-7.424 3.392-9.872 3.44-2.256 6.144-5.344 6.688-9.712 0.064-0.672-0.256-1.616-0.752-2.064-2.112-1.92-4.512-3.536-6.528-5.552-3.248-3.232-1.584-10.272 2.464-12.336 1.904-0.976 5.024-1.28 4.528-4.72-0.096-0.64-0.432-1.264-0.64-1.872 4.512-0.624 4.624-0.624 4.48-5.392-0.24-8.656-0.8-17.328-0.896-25.968-0.112-10.112 0.112-20.224 0.16-30.32 0.016-4.24-0.112-8.496-0.016-12.72 0.016-0.896 0.544-2.048 1.232-2.656 3.2-2.848 3.776-5.744 1.584-9.392-0.48-0.784-0.848-1.664-1.52-2.224-2.944-2.416-2.912-5.648-2.896-9.072 0.064-35.024 0.016-70.048 0.064-105.104 0-2.112 0.048-3.824-2.64-4.432-0.88-0.192-2.112-1.808-2.064-2.736 0.432-9.184-0.992-18.432 1.136-27.568 0.528-2.208 1.616-3.296 3.392-4.032 1.856-0.784 2.208-1.712 0.752-3.2-0.336-0.352-0.592-0.928-0.64-1.408-0.592-9.536-1.28-19.056-1.68-28.592-0.288-6.96-0.144-13.936-0.208-20.88-0.016-3.040-3.056-6.24-6.032-6.336-10.48-0.384-20.944-0.736-31.408-1.12-0.72-0.016-1.584 0.096-2.128-0.256-3.728-2.352-7.872-1.472-11.904-1.584-4.608-0.16-9.248-0.352-13.856-0.016-1.968 0.144-4.128 1.28-5.696 2.592-3.296 2.752-6.32 2.416-7.008-1.712-0.848-5.104-0.784-10.4-0.976-15.584-0.112-3.44 0.16-6.88-0.064-10.32-0.208-2.912-1.312-5.808-1.312-8.736 0-19.104 0.16-38.176 0.304-57.28 0.016-4.336 0.848-8.848 0-12.976-1.616-7.568-0.16-14.992-0.432-22.448-0.048-1.52 0.16-3.088 0.496-4.576 0.976-4.576 5.504-6.288 9.408-3.68 0.784 0.528 1.904 0.496 2.736 0.992 1.52 0.896 2.912 2.064 4.416 3.040 1.184 0.784 2.448 2 3.696 2.048 3.376 0.112 6.768-0.336 10.144-0.496 3.872-0.192 7.728-0.4 11.616-0.432 25.168-0.208 50.336-0.4 75.504-0.496 4.128-0.016 8.24 0.736 12.384 0.832 7.408 0.144 14.848 0.288 22.256 0.016 12.448-0.432 24.864-1.184 37.312-1.808 0.448-0.016 1.136 0.016 1.28-0.24 1.968-3.136 5.648-2.352 8.4-3.648 2.080-0.992 5.6 0.848 6.576 3.392 0.688 1.808 1.136 3.776 1.232 5.664 0.48 8.304 0.144 16.688 1.232 24.896 3.184 23.872 0.672 47.824 1.44 71.696 0.304 9.392 0.064 18.816 0 28.208-0.016 3.632-0.928 4.016-4.384 4.768-2.96 0.64-5.008 0.208-7.328-1.728-1.664-1.408-4.016-1.664-6.592-1.088-4.016 0.848-8.24 0.88-12.4 0.944-6.144 0.096-12.336-0.208-18.48-0.064-7.216 0.16-14.448 0.592-21.632 0.992-2.704 0.144-6.176 4.608-6.176 8-0.016 4.704 0.112 9.424 0.112 14.112 0 5.952 0 11.936-0.16 17.888-0.096 3.040-0.752 6.048-0.88 9.088-0.064 1.68 0.496 3.424 0.688 4.528-0.304 2.848-0.592 5.264-0.88 7.904 4.192 0.48 4.704 3.472 4.752 6.576 0.096 7.696 0.096 15.36 0.048 23.040 0 0.704-0.384 1.52-0.8 2.128-1.12 1.68-2.368 3.28-3.68 5.104-0.16-0.064-0.736-0.256-1.584-0.576 0 0.992 0 1.776 0 2.592-0.016 34.864-0.096 69.696-0.016 104.56 0 2.848-1.184 4.848-2.56 7.12-1.92 3.184-3.328 6.72-4.704 10.208-0.8 2.016 0.944 2.992 2.256 4.16 0.752 0.672 1.52 1.808 1.536 2.736 0.192 8.592 0.16 17.184 0.304 25.776 0.096 6.592 0.432 13.168 0.496 19.76 0.096 8.928 0.016 17.872 0.016 27.168 2.464 0 5.312 0 7.408 0 1.136 3.552 2.56 6.496 2.944 9.584 0.48 3.888 0.24 7.92-0.048 11.84-0.048 0.672-1.872 1.568-2.96 1.728-2 0.288-2.64 1.52-2.736 3.136-0.096 1.776-0.992 3.84 1.28 5.072 1.264 0.688 2.752 1.216 3.648 2.224 1.12 1.232 2.224 2.864 2.464 4.432 0.384 2.752 0.016 5.6 0.064 8.4 0.16 8.592-4.016 14.352-11.552 17.984-0.8 0.4-1.856 0.592-2.4 1.216-3.088 3.6-7.264 4.896-11.664 5.76-2.512 0-5.056 0-7.616 0zM283.776 19.904c-0.144-0.096-0.288-0.192-0.4-0.288-0.288 0.208-0.64 0.352-0.832 0.64-4.272 6.768-10.912 9.632-18.288 11.6-2.048 0.544-4.128 2.368-5.344 4.176-2.64 3.84-5.76 6.528-10.416 7.648-1.808 0.432-3.648 1.616-4.976 2.96-1.824 1.824-3.040 4.24-4.72 6.224-2.208 2.56-4.432 5.2-7.072 7.28-1.808 1.424-5.6 0.304-5.984-1.312-0.528-2.32 1.264-3.296 2.944-4.272 3.328-1.904 5.696-4.432 6.864-8.336 0.688-2.304 2-5.104 3.872-6.24 3.424-2.096 4.368-5.456 6.496-8.512-9.088 2.64-8.976 2.736-14.512 9.376-1.92 2.304-4.272 4.704-6.928 5.808-4.864 2.064-8.464 5.248-10.752 9.728-1.824 3.6-4.432 5.648-8.16 6.88-10.912 3.648-16.848 11.632-18.336 22.736-1.424 10.704 2.304 19.744 10.96 26.24 8.848 6.64 18.816 8.352 28.896 3.376 5.104-2.512 10.224-3.792 15.696-4.528 2.544-0.336 5.216-1.072 7.36-2.4 3.2-1.968 6.192-2.208 9.536-0.784 3.44 1.472 6.784 1.184 9.84-0.928 3.888-2.704 7.616-5.6 11.616-8.544-2.752-1.36-5.2-1.568-7.712-0.528-1.92 0.8-3.92 1.472-5.712 2.496-2.704 1.536-5.104 1.584-7.856-0.048-1.76-1.040-3.968-1.616-6-1.728-1.824-0.096-3.728 0.64-5.552 1.168-2.368 0.672-4.336 0.448-5.408-2.064-0.896-2.112 0-5.104 2.416-5.856 2.368-0.736 5.296-1.264 7.568-0.576 7.264 2.176 13.712 1.904 19.232-3.888 2.16-2.256 4.848-2.592 7.776-1.952 2.368 0.528 4.768 1.184 7.168 1.36 1.824 0.144 4.16 0.24 5.488-0.72 3.6-2.56 6.784-5.696 10.656-9.088-4.368-1.28-7.616-0.688-10.864 0.144s-6.544 1.728-9.872 0.336c-5.44-2.304-10.368-1.44-15.136 1.872-1.232 0.848-2.784 1.856-4.128 1.776-1.68-0.096-3.584-0.928-4.896-2.016-1.52-1.264-0.64-3.040 0.336-4.416 0.832-1.168 1.76-2.272 2.784-3.328 3.536-3.68 8.224-4.528 12.976-4.624 7.68-0.112 13.712-2.656 17.456-9.76 2.224-4.176 5.792-5.76 10.688-5.12s9.024-1.216 12.4-4.848c3.184-3.44 6.528-6.768 9.68-10.272 2.64-2.96 5.008-6.144 7.52-9.232-5.6 0.592-10.272 2.56-13.616 6.816-5.168 6.544-11.696 9.088-19.872 6.864-4.464-1.216-8.208 0.016-11.248 3.52-0.832 0.944-1.872 1.76-2.544 2.8-2.592 4.016-6.384 5.392-10.928 5.36-4.064-0.016-7.552 1.488-10.832 3.776-1.856 1.28-3.84 2.512-5.952 3.152-1.68 0.528-3.824 0.592-5.456 0.016-3.2-1.088-3.536-4.464-0.672-6.224 1.712-1.072 3.776-1.904 5.744-2.128 3.92-0.48 6.784-2.368 8.16-5.856 2.128-5.456 5.856-9.168 11.024-11.776 1.776-0.896 3.648-2.4 4.512-4.112 1.424-3.088 2.208-6.544 3.328-9.84z"></path>
</svg>
