<!-- Generated by IcoMoon.io -->
<svg version="1.1" xmlns="http://www.w3.org/2000/svg" width="512" height="512" viewBox="0 0 512 512">
<title>factions-chaos-slaanesh-daemons</title>
<path fill="#fff" d="M325.632 142.48c0.912-0.16 1.6-0.496 1.904-0.288 8.48 5.776 13.648 0.256 18.56-5.584 3.216-3.808 6.208-7.84 9.136-11.856 5.952-8.224 2.368-17.152 0.24-25.072-7.36-27.184-1.312-51.696 12.512-75.072 5.456-9.216 14.96-13.504 23.968-17.936 10.336-5.12 21.648-6.896 33.184-6.656 2.304 0.048 4.592 0.704 6.912 1.072 0.048 0.544 0.128 1.12 0.176 1.664-1.648 0.752-3.264 1.648-4.96 2.224-10.32 3.584-19.376 9.76-24.752 18.768-10.544 17.696-13.056 36.112 0.88 56.784 13.552 20.128 39.664 27.024 61.616 16.704 5.952-2.8 11.952-5.584 17.552-9.008 5.616-3.44 10.624-7.6 13.152-14.256 1.12-2.976 3.888-5.328 6.704-8.976 4.864 14.208 5.488 27.072 1.36 40.256-10.080 32.24-41.856 52.016-73.632 49.584-10.528-0.816-20.736-1.6-30.608-5.904-7.856-3.424-13.52 0.24-15.696 8.688-0.416 1.616-2.144 3.184-3.632 4.208-9.632 6.56-19.888 12.4-24.368 24.224-0.448 1.168-2.352 2.512-3.584 2.512-4.416 0.080-5.984 3.424-7.76 6.32-2.016 3.264-1.744 6.4 1.824 8.768 3.392 2.272 6.624 4.8 10 7.152 0.672 0.464 1.664 1.12 2.32 0.944 6.688-1.696 6.48 3.888 7.968 7.488 1.536 3.728 2.816 7.6 4.224 11.376 0.448 1.168 1.12 2.24 1.52 3.424 6.976 20.704 14.096 41.248 13.152 63.712-0.416 10.288 2.224 20.704 1.52 30.944-1.52 22.272-4.928 44.304-12.608 65.456-0.128 0.336-0.176 0.736-0.384 0.992-1.648 1.808-3.344 3.584-5.008 5.376-0.704-2.192-1.808-4.336-2.064-6.576-1.872-15.376-3.424-30.816-5.488-46.16-0.384-2.976-2.72-5.664-3.728-8.624-0.624-1.824-0.912-4.016-0.576-5.92 2.016-10.944 1.728-21.664-2.32-32.112-1.152-2.976-2.272-6.56-4.576-8.352-6.944-5.456-5.376-11.872-3.36-18.672 0.128-0.464 0.032-1.024 0.032-1.824-1.28-0.496-2.608-1.52-3.856-1.44-6.24 0.448-8.176-3.92-10.624-8.432-5.632-10.384-14.496-16.064-26.56-16.112-4.8-0.032-7.072 3.392-9.456 6.848-1.248 1.824-2.8 3.712-4.624 4.864-3.52 2.224-4.144 4.912-1.952 8.432 3.44 5.568 6.56 11.328 9.792 17.024 0.336 0.624 0.368 1.696 0.832 1.936 11.248 5.584 5.952 16.784 8.256 25.28 2.48 9.136 3.024 18.832 3.936 28.336 1.408 14.512 2.48 28.976-2.656 43.296-1.12 3.088 0.528 7.968 2.4 11.12 1.824 3.056 1.408 4.256-0.624 6.736-2.24 2.72-4.784 6.16-4.992 9.456-0.608 9.664-6.192 16.352-12.096 22.928-2.352 2.608-2.608 4.672-0.528 7.472 2.4 3.184 1.12 8.128-2.528 8.144-10.544 0.048-14.224 9.040-20.544 14.512-5.744 4.992-11.536 9.952-17.104 15.136-1.248 1.168-1.44 3.392-2.512 4.864-1.376 1.936-2.864 4.096-4.832 5.28-2.64 1.6-5.92 2.096-8.688 3.504-17.28 8.848-35.376 14.928-54.72 17.232-4.592 0.544-9.184 1.856-13.76 1.744-7.232-0.16-14.464-1.12-21.664-1.904-9.424-1.024-18.88-2.304-27.76 2.448-3.44 1.824-5.248 1.44-5.648-2.88-0.368-4.016-2.736-6.4-6.56-8.192-9.824-4.624-19.792-9.168-28.928-14.96-5.36-3.392-9.088-9.248-13.84-13.68-4.080-3.808-8.48-7.264-12.896-10.704-0.832-0.656-2.304-0.736-3.472-0.656-4.336 0.256-6.976-2.224-7.856-6.352-0.992-4.576-2.8-8.96-4.304-13.424-0.208-0.656-0.704-1.408-1.28-1.664-9.92-4.8-12.688-15.216-16.208-23.792-5.696-13.888-9.68-28.768-12.144-43.6-3.136-18.896-1.040-38.064 2.736-56.816 3.44-17.152 11.952-31.728 24.928-43.632 4.672-4.288 4.64-9.76 2.896-15.376-2.096-6.768-1.936-6.736 4.832-7.056 2.432-0.112 5.2-1.328 7.072-2.928 6.768-5.744 12.944-12.192 19.872-17.76 4.8-3.872 10.288-6.992 15.792-9.824 5.792-2.976 8.688-7.408 9.616-13.648 0.24-1.648 1.744-3.088 2.688-4.624 1.328 1.024 2.976 1.776 3.968 3.056 4.512 5.792 5.712 5.792 12.688 3.648 7.84-2.432 15.616-6.288 24.304-2.32 1.936 0.896 5.152 0.384 7.184-0.624 8.672-4.288 17.776-3.056 26.784-2.528 3.68 0.208 7.344 1.12 10.944 2.016 4.048 0.992 7.616 2.64 11.040-2.096 2.608-3.6 6.496-3.008 9.472 0.704 0.736 0.896 1.776 1.616 2.816 2.16 9.376 5.008 18.896 9.744 28.128 14.992 8.272 4.704 12.56 3.76 17.44-4.464 0.96-1.616 2.64-3.392 4.336-3.872 7.728-2.224 11.872-10.256 9.456-17.68-3.632-10.992-10.496-18.832-21.312-22.848-4.64-1.728-9.632-2.528-14.512-3.472-4-0.784-7.312-1.232-10.704-4.992-3.296-3.648-9.712-4.912-15.008-6.16-6.704-1.616-13.792-1.728-20.496-3.36-3.648-0.896-6.896-3.6-10.32-5.488-9.264-5.12-19.344-7.056-29.824-7.184-14.464-0.176-28.928-0.208-43.392-0.32-1.392 0-2.8-0.24-5.92-0.496 2.24-2.48 3.392-4.928 5.168-5.568 11.104-3.808 22.112-8.976 33.584-10.32 17.344-2.032 35.008-1.536 52.528-1.648 11.696-0.048 23.424 0.672 35.12 1.168 3.184 0.128 6.56 0.16 9.536 1.12 13.84 4.544 27.632 9.296 41.328 14.256 4.288 1.536 8.352 3.76 12.352 6.032 1.168 0.672 2.528 2.608 2.368 3.792-0.752 5.984 3.296 9.216 6.976 12.432 7.28 6.32 22.352 5.36 29.008-1.536 3.008-3.136 4.704-6.656 3.504-11.152-0.24-1.408-0.208-2.816-0.336-4.224z"></path>
</svg>
