<!-- Generated by IcoMoon.io -->
<svg version="1.1" xmlns="http://www.w3.org/2000/svg" width="512" height="512" viewBox="0 0 512 512">
<title>factions-destruction-bonesplitterz</title>
<path fill="#fff" d="M107.392 511.968c-1.568-1.568-3.184-3.088-4.672-4.72-2.208-2.416-4.336-4.944-6.576-7.52 6.944-7.584 13.648-15.888 21.344-23.168 22.384-21.12 45.12-41.872 67.824-62.656 1.776-1.616 4.192-2.88 6.496-3.472 15.6-3.888 30.272-10.224 44.8-16.96 5.040-2.352 10.224-4.416 16-3.472 0.448 0.064 0.944 0.048 1.328 0.224 8.144 3.76 17.12 3.248 25.648 5.152 5.568 1.248 11.184 2.368 16.736 3.76 1.568 0.384 3.2 1.28 4.32 2.416 28.672 29.152 57.296 58.384 85.872 87.632 1.408 1.456 2.64 3.152 3.6 4.944 1.024 1.92 0.048 3.6-2.096 3.408-3.888-0.352-7.952-0.576-11.568-1.856-18.096-6.352-35.744-14.144-54.624-18.064-12.96-2.688-25.984-4.944-38.944-7.568-6.56-1.328-12.976-3.536-19.584-4.432-8.816-1.184-17.472-0.992-26.448 1.568-21.728 6.176-43.776 11.28-66.416 13.152-3.376 0.272-6.8 0.56-10.112 1.216-2.128 0.4-4.32 1.184-6.16 2.32-12.784 7.904-25.424 15.952-38.176 23.904-2.544 1.584-5.344 2.816-8.032 4.208-0.176-0.016-0.352-0.016-0.544-0.016z"></path>
<path fill="#fff" d="M390.144 265.52c-0.512-5.392-1.008-10.448-1.504-15.488-1.536-15.936-3.2-31.872-4.64-47.808-2.24-25.056-6.688-49.728-12.976-74.096-2.064-7.968-2.176-16.432-3.104-24.688-0.288-2.48 0-5.12-0.72-7.456-0.912-2.912-2.416-5.664-4-8.288-1.184-1.968-3.088-3.488-4.384-5.392-7.248-10.624-14.272-21.424-21.68-31.936-7.088-10.096-14.416-20.032-21.904-29.824-3.328-4.384-7.856-7.808-10.224-13.008-1.28-2.8-1.104-4.16 1.68-6.72 1.856-1.696 3.376-0.464 4.72 0.624 5.168 4.256 10.176 8.704 15.424 12.896 2.32 1.888 4.832 3.856 7.584 4.864 5.296 1.952 9.92 4.816 14.256 8.368 7.184 5.904 14.816 11.28 21.664 17.552 10.944 10.032 21.488 20.496 32.048 30.928 6.24 6.16 12.4 12.4 18.224 18.96 5.792 6.528 11.52 13.248 16.464 20.432 2.192 3.184 2.64 7.696 3.488 11.68 2.304 10.928 4.416 21.888 6.576 32.848 0.992 4.896 1.568 9.936 2.992 14.704 2.704 9.040 5.616 18.064 8.992 26.88 2.4 6.224 6.288 11.888 8.544 18.144 5.168 14.304 8.384 29.008 10 44.272 2.288 21.6 1.68 43.264 3.024 64.848 0.544 8.656 1.36 17.296 1.728 25.984 0.208 5.344-0.272 10.704-0.432 16.064-0.064 2.192-1.328 3.248-3.408 3.328-1.44 0.064-2.88-0.112-4.304 0.064-1.84 0.224-4.096 0.112-5.392 1.12-4.784 3.776-9.872 2.48-14.8 1.136-7.296-2-14.496-4.384-21.664-6.864-7.84-2.736-15.68-5.504-23.296-8.816-3.76-1.664-6.96-4.592-10.432-6.944-2.88-1.92-5.712-3.984-8.704-5.712-4.816-2.752-9.76-5.232-14.64-7.856-2.512-1.344-3.488-3.216-2.88-6.176 2.368-11.456 5.152-22.864 6.688-34.464 1.232-9.152 1.12-18.528 1.104-27.792 0-5.664 1.568-7.536 7.312-6.72 0.576 0.048 1.184 0.128 2.544 0.32z"></path>
<path fill="#fff" d="M41.552 414.448c0.512-11.152 0.656-22.304 1.648-33.392 1.36-15.12 3.248-30.24 5.152-45.296 1.232-9.76 2.8-19.472 4.304-29.184 1.968-12.704 3.296-25.584 6.16-38.096 5.792-25.152 12.352-50.128 18.768-75.12 7.248-28.304 15.392-56.32 25.648-83.744 7.424-19.92 16.96-38.784 26.512-57.696 1.408-2.8 2.912-5.552 4.48-8.256 1.504-2.592 2.976-2.912 5.84-1.472 3.376 1.696 3.76 2.816 2.928 5.776-0.512 1.808-1.024 4.096-0.4 5.728 3.6 9.712 2.624 19.696 1.584 29.488-2.976 28.752-2.992 57.536-1.584 86.336 0.224 4.656-1.104 8.864-3.808 12.576-2.208 3.040-2.736 6.24-1.968 9.888 1.52 7.248 2.928 14.528 4.192 21.824 0.432 2.432 0.512 5.008 0.24 7.504-1.056 9.888 0.72 19.648 1.344 29.456 0.288 4.368 0.464 8.752 0.72 13.12 0.672 11.712 1.392 23.392 1.984 35.088 0.896 17.408 2.848 34.784 2.256 52.272-0.176 5.232-1.984 8.976-6.464 11.44-5.488 3.024-10.816 6.416-16.56 8.816-17.792 7.424-34.336 17.248-51.248 26.336-9.136 4.896-18.144 10.048-27.216 15.088-1.168 0.656-2.352 1.232-3.536 1.856-0.352-0.128-0.672-0.224-0.992-0.336z"></path>
<path fill="#fff" d="M247.008 315.648c5.104 0.8 10.048 1.408 14.912 2.4 4.416 0.896 4.256 1.104 5.008 5.456 0.432 2.432 1.392 4.768 2.144 7.248 2.848-0.72 2.768-2.992 2.96-4.928 0.608-6.4 5.44-9.552 11.616-7.424 2.576 0.88 4.304 2.592 4.832 5.28 0.432 2.144 1.76 2.912 3.712 3.584 12.672 4.32 25.28 8.768 37.936 13.2 0.656 0.224 1.28 0.576 1.872 1.408-2.144 0.24-4.32 0.384-6.416 0.784-5.792 1.072-11.616 2.064-17.328 3.536-2.848 0.736-5.008 0.432-7.088-1.536-1.472-1.408-2.992-2.576-5.184-1.024-0.496 0.352-1.68-0.064-2.464-0.352-8.464-3.376-16.912-6.8-25.36-10.208-0.656-0.272-1.296-0.496-2.352-0.272 12.816 12.56 25.616 25.136 38.448 37.68-0.064 0.176-0.128 0.352-0.208 0.544-1.904-0.512-3.76-1.104-5.68-1.504-5.664-1.184-11.376-2.192-17.008-3.488-2.432-0.56-5.056-1.28-7.072-2.656-4.816-3.264-9.248-7.072-13.984-10.432-1.136-0.8-2.928-1.136-4.336-0.992-2.288 0.24-3.216-1.104-4.256-2.592-1.008-1.472-1.248-2.96-0.016-4.432 1.296-1.584 2.704-3.104 3.856-4.816 0.464-0.688 0.384-1.76 0.544-2.656-0.32-0.128-0.624-0.24-0.912-0.384-0.576 0.672-1.28 1.296-1.728 2.064-1.568 2.64-3.808 3.92-6.912 3.664-0.848-0.064-1.92-0.112-2.576 0.336-2.736 1.808-5.568 1.664-8.496 0.896-2.080-0.544-4.112-1.28-6.192-1.68-3.408-0.672-5.552-2.544-6.688-5.84-0.96-2.768-1.68-2.912-4.416-1.504-3.808 1.968-7.536 4.144-11.456 5.84-7.52 3.264-15.152 6.272-22.736 9.392-2.64 1.104-5.344 2.064-7.872 3.36-4.48 2.304-9.136 2.976-14.048 2.080-3.264-0.576-4.256-1.904-3.632-5.216 5.152-27.52 14.32-53.648 27.264-78.464 1.904-3.632 3.536-7.424 5.008-11.232 7.92-20.304 15.76-40.624 23.616-60.944 0.832-2.144 2.032-3.712 4.208-4.896 1.744-0.96 2.912-3.072 4.256-4.72 1.792-2.256 3.632-2.88 5.776-1.728 2.208 1.216 2.016 3.072 1.408 5.12-0.336 1.184-0.512 2.464-0.512 3.696 0.128 18.592 0.128 37.216 0.512 55.808 0.224 11.072 1.024 22.16 1.696 33.232 0.208 3.328-0.448 6.288-2.080 9.216-2.4 4.304-4.528 8.72-6.576 13.184-1.984 4.336-1.696 4.816 2.352 7.232 1.296 0.784 2.464 1.792 3.712 3.248-4.416 1.392-8.496 2.816-9.824 7.536-0.288 1.024-0.048 2.208-0.048 3.312 0.24 0.112 0.512 0.224 0.768 0.32 0.688-0.688 1.552-1.296 2.032-2.096 2.512-4.208 5.84-6.224 10.448-5.12 3.888 0.912 6.352-0.352 8.496-3.312 0.992-1.36 2.144-2.624 3.312-4.048-0.56-0.72-1.344-1.28-1.44-1.952-0.208-1.28-0.512-2.992 0.128-3.856 5.664-7.392 18.688-7.504 24.48-0.352 0.4 0.496 0.784 1.008 1.024 1.568 0.784 1.856 0.16 2.624-1.872 2.4-4.368-0.464-8.704-0.944-13.072-1.36-2.848-0.272-4.944 0.912-6.464 3.408zM303.072 332.832c-0.064-0.352-0.16-0.72-0.224-1.072-1.248-0.208-2.528-0.672-3.76-0.56-5.68 0.544-11.344 1.168-17.008 1.952-0.848 0.112-1.536 1.28-2.304 1.952 0.848 0.672 1.808 2 2.512 1.872 6.048-1.104 12.4-0.208 18.24-2.624 0.896-0.352 1.696-1.008 2.544-1.52zM261.824 349.84c0 0.352 0.016 0.72 0.016 1.072 8.208 2.192 16.4 4.384 24.624 6.608 0.128-0.208 0.272-0.432 0.432-0.624-1.472-0.896-2.848-2.176-4.432-2.64-5.728-1.728-11.52-3.248-17.328-4.704-1.024-0.272-2.208 0.176-3.312 0.288z"></path>
<path fill="#fff" d="M279.408 274.176c1.36-19.36-0.992-38.608-1.584-57.888-0.128-4.368 0.16-8.752 0.16-13.12 0-2.96-0.096-5.904-0.336-8.832-0.608-6.912-1.44-13.76-2.736-20.64-1.344-7.232-4.16-13.344-8.096-19.264-0.848-1.28-1.456-3.856-0.768-4.784 1.28-1.728 3.52-2.816 5.504-3.888 0.448-0.24 1.744 0.464 2.24 1.104 3.296 4.208 6.448 8.528 9.648 12.8 0.8 1.072 1.344 2.432 2.352 3.216 4.816 3.664 7.968 8.688 11.168 13.6 6.944 10.624 14.464 20.944 20.368 32.112 4.864 9.152 7.696 19.36 11.504 29.088 3.552 9.136 7.28 18.224 10.768 27.392 4.208 11.008 8.384 22.016 12.368 33.104 2.544 7.136 4.832 14.368 6.944 21.632 1.024 3.584 1.392 7.36 2.096 11.056 0.384 1.968-0.432 3.328-2.080 4.208-3.248 1.696-6.416 3.584-9.808 4.864-1.584 0.608-3.856 0.512-5.408-0.16-16.112-6.832-32.32-13.52-48.064-21.056-3.824-1.84-6.736-4.832-11.552-4.144-2.32 0.336-3.824-2.064-4.096-4.272-0.688-5.84-1.456-11.728-1.536-17.584-0.064-6.192 0.624-12.368 0.96-18.528z"></path>
<path fill="#fff" d="M447.184 493.072c-1.616-1.184-3.264-2.080-4.528-3.36-10.56-10.832-21.152-21.632-31.536-32.656-17.024-18.016-33.776-36.32-50.96-54.176-5.68-5.888-12.368-10.816-18.688-16.096-10.432-8.752-20.928-17.392-31.328-26.144-2.592-2.176-2.688-4.032-0.448-4.976 0.624-0.272 1.568-0.224 2.192 0.064 13.6 6.16 27.12 12.512 39.584 20.816 1.632 1.104 2.816 2.928 4 4.592 1.584 2.192 2.992 4.144 6.176 4.496 2.352 0.24 4.752 1.616 6.832 2.928 15.168 9.712 31.136 17.904 47.504 25.328 6.112 2.768 11.568 7.024 17.28 10.672 2.928 1.856 5.84 3.808 8.704 5.776 5.888 4.048 11.776 8.128 17.632 12.224 1.36 0.944 1.664 2.032 0.944 3.696-1.68 3.824-2.88 7.856-6.128 10.848-1.872 1.744-1.024 3.808 0.384 5.52 1.344 1.632 2.624 3.184 1.184 5.488-0.352 0.56-0.048 1.568 0.016 2.368 0.064 0.72 0.384 1.456 0.272 2.128-1.072 6.384-2 12.848-6.064 18.224-0.624 0.8-1.744 1.296-3.040 2.208z"></path>
<path fill="#fff" d="M124.512 457.728c0.112-0.832 0.128-1.664 0.32-2.464 1.12-4.784 2.32-9.552 3.424-14.352 0.288-1.28 0.208-2.656 0.288-3.984-0.32-0.096-0.608-0.208-0.912-0.288-0.512 0.72-1.248 1.36-1.472 2.176-1.968 6.96-3.76 13.936-5.776 20.88-0.544 1.84-1.248 3.824-2.512 5.168-3.6 3.856-7.504 7.424-11.328 11.056-0.576 0.56-1.44 0.88-2.368 1.408-0.176-7.136 2.416-13.568 2.592-20.208-0.4-0.096-0.784-0.176-1.184-0.24-0.4 1.008-1.008 1.968-1.184 3.024-1.008 5.824-2 11.632-2.848 17.472-0.4 2.768-1.36 5.104-3.488 7.008-2.624 2.352-5.072 4.864-7.632 7.312-0.24-0.112-0.496-0.24-0.736-0.352 0.336-2.864 0.736-5.728 1.024-8.592s0.496-5.728 0.72-8.576c-0.352-0.096-0.688-0.176-1.056-0.272-0.576 0.912-1.456 1.76-1.68 2.752-0.88 3.888-1.968 7.84-2.208 11.792-0.336 5.376-2.32 9.872-5.776 13.824-3.104 3.552-6.608 4.256-9.696 2.096-3.328-2.288-4.592-7.472-2.32-11.056 1.36-2.144 3.296-3.984 5.104-5.824 7.696-7.744 15.84-15.088 23.12-23.2 17.248-19.264 36.752-36.304 54.24-55.296 5.824-6.304 11.632-12.64 17.552-18.88 5.216-5.52 10.592-10.896 15.84-16.4 0.992-1.024 1.696-2.288 2.544-3.44-0.176-0.208-0.336-0.4-0.512-0.608-4.272 1.12-8.688 1.904-12.784 3.472-4.032 1.52-7.76 3.856-12.368 6.192 1.024-4.752 3.072-8.592 5.264-12.304 2.416-4.112 11.328-7.904 20.096-8.8-0.512 2.144-3.424 4.256-0.176 6.608 1.504-2 2.768-4.096 4.448-5.776 1.984-2 4.096-4.304 6.624-5.232 8.464-3.104 16.72-6.384 23.184-13.376 4.784 5.216 10.656 7.344 17.728 7.872-4.816 4.272-9.6 8.576-14.64 13.040-2.176-5.44-2.592-11.104-5.632-15.76-0.288 0.048-0.576 0.096-0.88 0.128 0.096 1.504 0 3.040 0.32 4.48 0.784 3.584 1.968 7.072 2.544 10.672 0.24 1.456-0.112 3.552-1.056 4.592-8.64 9.312-17.216 18.736-26.32 27.568-20.496 19.872-41.312 39.424-61.968 59.152-1.968 1.872-3.712 3.968-5.552 5.968-0.352-0.176-0.624-0.32-0.912-0.448zM197.232 362.48c-0.72 1.36-1.216 2.016-1.408 2.736-1.408 5.456 0.96 10.096 3.584 14.544 0.352 0.624 2.016 0.496 3.072 0.72 0.176-0.944 0.688-1.968 0.464-2.8-1.104-3.824-2.352-7.632-3.664-11.392-0.4-1.136-1.136-2.144-2.032-3.808zM156.4 425.12c0.464 0 0.944 0 1.408 0.016 1.792-7.456 3.584-14.928 4.144-22.688-0.96 0.608-1.664 1.328-1.856 2.144-1.44 5.904-2.816 11.808-4.096 17.776-0.176 0.848 0.24 1.84 0.4 2.752zM174.992 407.152c2.064-2.656 4.32-18.816 3.088-21.28-2.096 2.304-4.592 18.656-3.088 21.28zM142.816 424.72c-1.968 5.168-2.8 10.448-1.984 15.904 2.080-5.152 2.912-10.432 1.984-15.904z"></path>
<path fill="#fff" d="M153.776 395.808c-4.608 4.048-8.976 8.192-13.648 11.92-11.344 9.088-21.904 19.024-31.264 30.096-8.416 9.952-18.144 18.48-27.568 27.408-7.984 7.568-15.776 15.344-23.536 23.136-0.96 0.96-1.328 2.544-1.904 3.872-0.336 0.72-0.352 1.696-0.88 2.192-3.312 3.088-6.72 6.080-9.664 8.704 1.056-11.584-0.208-24.304 4.048-36.448 1.744-4.976 1.648-9.776-1.68-14.272-1.472-1.968 0.848-5.152 3.872-5.968 1.856-0.496 3.824-1.136 5.328-2.256 17.52-13.072 36.32-24.128 55.28-34.928 10.336-5.904 20.976-11.168 31.936-15.776 3.92-1.664 6.288-1.136 9.696 2.32z"></path>
<path fill="#fff" d="M425.312 397.536c4.112-0.512 8.208-1.072 12.336-1.536 6.848-0.784 13.696-1.408 20.528-2.32 1.536-0.208 2.976-1.392 4.448-2.096-0.112-0.384-0.224-0.768-0.32-1.168-1.248-0.112-2.544-0.464-3.76-0.336-12.064 1.472-24.128 3.088-36.208 4.48-2.128 0.24-4.496 0.064-6.512-0.624-4.88-1.696-9.648-3.808-14.432-5.792-0.784-0.32-1.472-0.832-2.176-1.904 5.856-1.36 11.728-2.816 17.616-4.096 4.272-0.944 8.608-1.536 12.912-2.464 3.872-0.832 7.68-0.688 11.344 0.768 13.12 5.184 26.288 10.272 39.28 15.776 6.864 2.912 7.92 11.376 2.592 16.608-4.080 4-8.432 5.344-13.824 2.624-3.216-1.632-6.688-2.768-10.592-4.336 6.72-3.024 14.416-0.896 19.872-5.6-0.064-0.384-0.128-0.768-0.224-1.136-1.12-0.064-2.256-0.352-3.328-0.208-6.080 1.008-12.128 2.368-18.24 3.104-3.472 0.432-7.296 0.624-10.56-0.4-6.56-2.032-12.816-4.944-19.2-7.52-0.56-0.224-1.056-0.624-1.584-0.96 0.048-0.24 0.048-0.544 0.048-0.832z"></path>
<path fill="#fff" d="M64.8 411.12c-2.176 6.784-5.616 12.352-7.248 18.544 0.384 0.224 0.736 0.448 1.12 0.656 0.768-0.8 1.776-1.504 2.208-2.432 2.352-4.896 4.704-9.824 6.8-14.832 1.328-3.136 3.2-5.456 6.352-6.864 10.544-4.64 21.008-9.36 31.536-14.032 2.080-0.912 4.192-1.792 7.056-3.024-0.608 1.392-0.832 2.080-1.184 2.688-1.52 2.736-3.088 5.44-4.608 8.144-1.024 1.84-1.408 3.536 1.328 4.656-0.576 0.432-0.896 0.688-1.232 0.88-19.312 10.496-38.576 21.008-57.936 31.424-4.16 2.24-8.528 4.112-12.928 5.824-1.36 0.544-3.376 0.336-4.768-0.272-1.744-0.768-3.264-2.176-4.672-3.536-2.288-2.208-0.176-7.36 3.536-9.168 3.936-1.904 7.84-3.888 11.664-6 3.856-2.096 7.536-4.432 11.376-6.56 3.696-2 7.424-3.856 11.632-6.064z"></path>
<path fill="#fff" d="M340.688 360.672c6.352-1.28 12.736-2.528 19.088-3.808 0.512-0.112 1.12-0.016 1.584-0.224 6.64-2.848 12.736-0.848 19.104 1.536 12.256 4.64 24.768 8.656 37.12 13.024 3.696 1.296 7.248 2.96 11.232 4.592-0.624 0.384-0.88 0.624-1.136 0.672-10.88 2.4-21.76 4.832-32.672 7.056-1.696 0.336-3.76-0.096-5.392-0.784-11.168-4.72-22.272-9.648-33.392-14.464-5.152-2.208-10.32-4.32-15.488-6.496-0.016-0.352-0.048-0.736-0.064-1.12z"></path>
<path fill="#fff" d="M382.896 466.704c1.52 0.336 3.088 0.56 4.592 1.024 7.248 2.256 14.464 4.64 21.712 6.832 5.776 1.744 8.48 6.8 12.080 11.216-4.768-1.024-9.504-2.080-14.64-3.2 0.768 2.864 2.592 3.936 4.592 4.656 3.264 1.184 6.672 2.064 9.92 3.296 3.152 1.216 6.304 2.512 9.264 4.144 3.296 1.84 5.504 4.704 6.448 8.496 0.576 2.352 0.224 4.272-1.728 5.728-2 1.52-4.256 2.688-6.672 1.184-4.080-2.544-8.416-4.896-11.904-8.128-11.168-10.288-22.864-20.048-32.096-32.288-0.624-0.832-1.248-1.616-1.872-2.432 0.096-0.16 0.208-0.336 0.32-0.512z"></path>
<path fill="#fff" d="M139.216 376.4c7.92-3.36 15.824-6.72 24.064-10.208-2.080 4.928-3.92 9.536-6 14.016-0.464 1.008-1.68 2.016-2.752 2.352-15.264 4.784-28.96 12.96-43.12 20.096-0.32 0.16-0.656 0.272-1.616 0.672 0.912-2.032 1.584-3.584 2.32-5.12 5.664-11.968 5.664-12.016 17.568-17.68 3.136-1.504 6.384-2.768 9.552-4.144-1.408 3.264-2.816 6.512-4.224 9.776 0.272 0.208 0.544 0.384 0.8 0.576 0.624-0.464 1.408-0.8 1.84-1.408 0.96-1.392 1.696-2.928 2.576-4.384 1.136-1.904 0.736-3.36-1.008-4.544z"></path>
<path fill="#fff" d="M333.616 418.096c5.568 1.744 11.168 3.52 16.736 5.264 16.608 5.232 16.576 5.232 28.752 17.584 2.64 2.656 5.344 5.28 8.016 7.92 0.576 0.576 1.12 1.232 2.128 2.352-1.184-0.16-1.696-0.128-2.144-0.288-8.816-2.88-17.728-5.552-26.384-8.816-3.648-1.392-7.184-3.648-10.112-6.272-5.6-4.992-10.72-10.496-16.048-15.792-0.464-0.464-0.8-1.024-1.216-1.536 0.064-0.128 0.16-0.272 0.272-0.4z"></path>
<path fill="#fff" d="M311.616 393.392c10.288 3.888 20.272 7.648 30.208 11.504 1.136 0.448 2.192 1.248 3.088 2.080 5.056 4.768 10.064 9.6 15.552 14.864-6.448-1.952-12.256-3.888-18.176-5.44-4-1.024-8.192-1.44-12.256-2.256-1.056-0.224-2.176-0.768-2.96-1.504-5.952-5.504-11.328-11.504-15.456-19.248z"></path>
<path fill="#fff" d="M311.728 348.496c4.032-0.608 8.032-1.296 12.080-1.808 5.296-0.688 10.624-1.28 15.952-1.856 0.688-0.096 1.472-0.176 2.096 0.016 6.304 2.144 12.592 4.336 19.696 6.8-1.344 0.432-1.856 0.608-2.4 0.736-7.792 1.792-15.568 3.632-23.408 5.328-1.584 0.336-3.488 0.608-4.928 0.048-5.904-2.24-11.712-4.816-17.52-7.296-0.608-0.272-1.104-0.832-1.632-1.248 0.016-0.224 0.016-0.464 0.048-0.72z"></path>
<path fill="#fff" d="M284 369.824c18.512 3.136 34.256 10.816 46.576 25.216-0.96-0.288-1.904-0.576-2.864-0.848-7.12-2.016-14.256-3.936-21.344-6.064-2.016-0.608-4.096-1.52-5.664-2.864-5.504-4.704-10.832-9.648-16.208-14.496-0.16-0.176-0.224-0.464-0.496-0.944z"></path>
<path fill="#fff" d="M361.936 445.776c3.376 1.072 6.416 2.016 9.472 2.976 5.376 1.696 10.736 3.312 16.064 5.12 2 0.672 4.144 1.472 5.712 2.816 3.984 3.424 7.68 7.168 11.952 11.216-1.104-0.176-1.632-0.224-2.128-0.352-5.328-1.52-10.608-3.184-15.952-4.56-1.952-0.512-4.048-0.352-6.064-0.688-1.408-0.224-3.2-0.336-4.096-1.232-4.992-4.832-9.728-9.92-14.944-15.28z"></path>
</svg>
