<!-- Generated by IcoMoon.io -->
<svg version="1.1" xmlns="http://www.w3.org/2000/svg" width="512" height="512" viewBox="0 0 512 512">
<title>factions-order-cities-of-sigmar-tempests-eye</title>
<path fill="#fff" d="M351.2 508.768c-3.888-5.76-49.968-85.712-51.072-88.608-0.992-2.592-1.008-2.976-0.224-4.624 1.12-2.352 4.688-4.368 9.696-5.52 4.528-1.024 5.984-2.304 6.64-5.776 0.864-4.624-0.48-8.592-7.92-23.264-9.024-17.776-9.264-19.408-3.776-24.352 1.76-1.584 29.136-18.816 33.632-21.168 4.544-2.368 6.896-1.936 8.704 1.616 1.984 3.92 19.936 69.36 20.24 73.776 0.208 2.976 0.048 3.952-0.896 5.456-1.504 2.384-5.968 5.184-12.272 7.712-8.64 3.456-11.056 7.424-10.544 17.248 0.224 4.192 0.56 5.808 1.696 7.984 2.112 4.032 2.416 5.536 5.776 28.24 3.104 20.992 4.32 34.48 3.12 34.48-0.336 0-1.6-1.44-2.784-3.216zM159.808 499.936c-0.48-0.48-0.88-1.552-0.88-2.384 0-1.792-0.256-0.864 7.968-29.68 8.016-28.096 8.672-31.488 7.040-36.368-1.648-4.944-7.904-8.304-15.504-8.32-3.936-0.016-7.024-0.976-8.8-2.752-2.192-2.192-2.496-3.568-1.808-8.048 0.752-4.912 21.28-72.736 23.104-76.304 2-3.936 2.976-4.608 5.632-3.888 1.216 0.336 2.96 0.992 3.888 1.456 2.512 1.264 26.016 17.376 27.824 19.072 2.928 2.736 3.936 4.976 3.904 8.72-0.048 5.232-1.36 8.72-6.912 18.448-5.92 10.352-10.016 18.496-10.016 19.888 0 2.688 6.976 7.28 13.536 8.912 1.664 0.416 3.6 1.504 5.232 2.928 2.48 2.192 2.576 2.368 2.336 4.848-0.128 1.424-0.88 3.952-1.648 5.632-1.728 3.76-47.248 74.4-49.568 76.928-1.84 2-3.904 2.368-5.328 0.944zM238.816 346.816c-2.080-0.384-2.8-1.712-2.784-5.168 0.016-4.688 1.248-9.056 6.768-24.048 7.168-19.44 8.448-21.488 12.672-20.208 1.136 0.336 2.432 1.2 2.864 1.904s3.008 7.056 5.696 14.128c4.48 11.76 5.104 13.024 7.232 14.944 3.072 2.752 5.728 3.424 12.256 3.040 6.976-0.4 10.624-1.648 18.72-6.432 8.576-5.072 9.168-5.504 9.824-7.2 0.88-2.336-1.424-6.256-10.432-17.712-10.976-13.952-15.584-17.632-25.648-20.544-4.208-1.216-5.36-1.296-21.2-1.296-15.744 0-16.992 0.080-20.672 1.232-6.32 2-16.576 8.16-21.888 13.152-2.528 2.384-4.752 4.336-4.944 4.336-0.864 0-6.56-3.12-8.192-4.496l-1.84-1.552 1.024-1.936c1.632-3.088 5.776-7.488 9.504-10.096 5.44-3.824 18.176-10.24 24.48-12.336 8.88-2.944 13.776-3.792 21.968-3.808 7.040 0 7.648 0.096 19.552 3.184 17.568 4.56 18.416 5.040 30.416 16.752 11.024 10.768 14 14.016 16.112 17.616 0.816 1.376 2.88 4.672 4.608 7.312 7.072 10.848 6.336 17.28-2.704 23.072-4.384 2.816-24.336 12.64-30 14.752l-3.904 1.472-24.016 0.096c-13.216 0.048-24.656-0.016-25.424-0.16zM357.68 328.336c-1.728-3.616-4.864-10.208-6.992-14.656-2.528-5.296-6.256-11.68-10.768-18.432-5.648-8.464-7.984-11.392-12.848-16.192-3.28-3.232-6.928-6.448-8.128-7.168s-4.816-2.928-8.048-4.928c-8.912-5.504-14.864-8.144-26.864-11.856-16.096-4.992-17.664-5.28-28.992-5.312-8.24-0.032-10.688 0.176-15.632 1.264-8.032 1.776-21.488 6.304-27.616 9.28-10.496 5.12-27.36 19.008-32.544 26.816-1.232 1.84-6.448 11.024-11.6 20.384-9.36 17.008-12.72 22.32-14.88 23.488-0.928 0.496-1.632 0.32-3.76-0.896-1.68-0.96-15.232-14.208-37.824-36.976-19.36-19.52-35.52-35.952-35.92-36.528-0.704-1.008-0.448-1.040 6.144-1.040 3.776 0 22.944 1.008 42.576 2.224s36.736 2.064 37.984 1.872c4.576-0.704 5.92-2.064 5.92-6.064 0-4.416-1.584-8.816-14.56-40.48-6.48-15.824-12.688-31.216-13.776-34.208-1.92-5.28-1.952-5.472-1.008-6.912 0.864-1.328 1.2-1.44 3.28-1.104 2.896 0.448 4.976 1.632 41.68 23.456 32.784 19.488 35.52 21.008 37.968 21.008 1.456 0 1.728-0.256 2.208-2.096 0.704-2.768 2.544-110.64 2.128-124.992-0.368-12.72-1.424-18.416-4.112-22.256-1.664-2.352-2.72-2.912-9.904-5.184-5.36-1.696-5.472-3.072-0.736-10.096 3.2-4.736 32.928-40.016 38.848-46.096 5.632-5.776 6.672-5.936 11.408-1.664 2.528 2.272 40.944 47.808 43.936 52.080 1.84 2.624 1.872 2.752 0.976 4.112-1.248 1.904-4.144 3.296-10.464 5.072-6.288 1.76-7.568 2.512-8.784 5.2-0.848 1.872-0.928 7.728-0.928 69.36 0 66.192 0.016 67.344 1.12 69.552 1.040 2.080 1.28 2.224 3.408 2.192 1.776-0.032 3.984-0.992 9.776-4.24 16.864-9.472 24.672-13.664 45.136-24.224 17.216-8.88 21.904-11.088 23.744-11.12l2.288-0.048-0.032 2.512c-0.016 1.552-0.912 4.768-2.32 8.384-2.64 6.768-20.128 58.464-22.544 66.688-1.84 6.256-1.952 7.44-0.848 10.080 1.392 3.328 1.968 3.392 31.616 3.392 25.84 0 26.64-0.032 30.448-1.232 8.24-2.608 26.032-3.984 28.48-2.192 1.008 0.736 1.008 0.8-0.128 2.368-0.64 0.88-11.424 11.792-23.968 24.224s-28.928 28.704-36.4 36.176c-7.472 7.456-13.904 13.568-14.288 13.568s-2.096-2.96-3.824-6.56zM367.44 296.864c1.232-1.488 1.264-4.32 0.064-6.032-0.8-1.152-1.248-1.264-3.68-1.040-2 0.192-3.168 0.672-4.192 1.696-1.312 1.312-1.376 1.568-0.72 3.168 0.4 0.944 1.44 2.336 2.32 3.072 1.36 1.136 1.872 1.264 3.424 0.832 1.008-0.288 2.256-1.040 2.8-1.696zM152.48 296.032c1.216-1.216 1.104-3.936-0.24-5.264-1.296-1.296-5.888-1.568-7.424-0.416-1.584 1.168-1.824 4.016-0.448 5.392 1.488 1.488 6.736 1.68 8.112 0.304zM199.808 246.272c2.144-1.936 0.688-7.952-2.384-9.856-2.336-1.456-6.080 1.84-6.096 5.36 0 2.048 1.392 4.704 2.64 5.040 2.224 0.576 4.864 0.336 5.824-0.544zM318.848 242.304c1.408-1.568 1.472-7.936 0.096-9.312-1.328-1.328-4.464-1.136-5.52 0.368-1.328 1.888-1.168 7.392 0.24 8.816 1.376 1.376 4 1.456 5.168 0.144zM260.384 229.632c2.592-0.736 3.248-5.472 1.104-7.968-1.216-1.408-1.68-1.552-4.528-1.456-5.376 0.192-7.072 2.352-4.992 6.384 0.912 1.76 4.864 3.984 6.384 3.584 0.464-0.128 1.36-0.368 2.016-0.56z"></path>
</svg>
