<!-- Generated by IcoMoon.io -->
<svg version="1.1" xmlns="http://www.w3.org/2000/svg" width="512" height="512" viewBox="0 0 512 512">
<title>factions-order-cities-of-sigmar-the-phoenicium</title>
<path fill="#fff" d="M259.552 510.528c-0.384-0.864-1.472-1.952-2.416-2.432-1.584-0.816-1.696-1.088-1.52-3.984 0.144-2.56 0.416-3.2 1.52-3.696 1.408-0.624 1.6-1.008 2.192-4.592 0.464-2.704 2.944-4.944 6.096-5.504 8.144-1.44 10.256-2.928 10.896-7.728 0.256-1.92 0.688-2.624 1.968-3.232 0.896-0.432 1.632-1.024 1.632-1.312 0-2.56 8.432-3.504 10.736-1.2 1.040 1.040 1.2 1.984 1.2 7.728 0 6.176-0.080 6.576-1.344 7.232-0.736 0.384-1.968 1.456-2.72 2.4-1.12 1.392-1.856 1.712-3.84 1.712-1.344 0-3.344-0.32-4.432-0.72-2.736-0.992-3.2-0.32-3.552 5.264-0.4 6.368-0.624 7.248-2 7.68-0.64 0.208-1.52 1.088-1.952 1.984-0.736 1.552-0.96 1.616-6.288 1.776-5.44 0.176-5.52 0.144-6.224-1.392zM239.024 493.984c-1.024-1.072-2.32-2.304-2.896-2.768-1.44-1.152-1.12-9.072 0.432-10.624 1.488-1.488 9.024-1.456 11.28 0.048 3.776 2.512 4.448 9.664 1.040 11.424-0.976 0.496-1.76 1.296-1.76 1.776 0 1.168-1.888 2.096-4.288 2.096-1.456 0-2.48-0.512-3.824-1.936zM256.864 482.656c-0.832-0.928-1.344-2.544-1.6-5.168-0.464-4.656-1.504-6.016-4.608-6.016-1.824 0-2.496 0.336-3.52 1.792-1.232 1.728-1.44 1.792-5.888 1.792-2.784 0-4.896-0.288-5.328-0.72-0.88-0.88-0.96-8.448-0.096-10.064 0.336-0.64 1.040-1.152 1.536-1.152s1.216-0.768 1.568-1.696c0.368-0.96 1.344-1.968 2.288-2.32 1.312-0.496 2.272-1.952 4.736-7.104 1.696-3.568 3.536-6.976 4.080-7.584 1.616-1.808 3.888-2.704 7.936-3.12l3.824-0.4 1.616 2.336c1.408 2.016 1.616 2.928 1.616 6.704s-0.256 4.816-1.92 7.856c-2.336 4.24-2.032 4.752 3.232 5.36 5.52 0.656 5.84 1.248 5.84 10.736 0 10.032-0.032 10.080-8.24 10.080-5.312 0-5.968-0.128-7.072-1.344zM219.504 478.144c-0.672-0.752-0.992-2.16-0.992-4.496 0-2.832 0.256-3.664 1.456-4.88 1.568-1.568 2.944-1.792 5.28-0.912 1.76 0.672 2.8 3.344 2.8 7.264 0 3.376-0.88 4.112-4.944 4.112-1.792 0-2.944-0.352-3.616-1.088zM293.2 475.984c-0.4-0.864-0.72-2.464-0.72-3.552 0-3.088-1.84-4.928-5.424-5.424-5.568-0.768-9.936-6.72-10.544-14.4l-0.304-3.712 2.64-2.64c2.992-2.992 5.136-3.68 9.488-3.088 2.32 0.32 3.136 0.736 3.744 1.872 0.416 0.816 1.424 1.792 2.224 2.192 1.36 0.672 1.472 1.12 1.792 6.672 0.192 3.264 0.656 6.544 1.056 7.264 0.416 0.768 1.712 1.584 3.072 1.952 3.008 0.816 4.192 2.528 4.192 6.080 0 5.264-1.856 7.216-7.536 7.968-2.784 0.368-2.992 0.304-3.68-1.184zM211.312 462.56c-4.4-1.328-7.104-5.36-7.104-10.56 0-3.168 1.168-4.976 3.216-4.976 0.56 0 1.76-0.784 2.64-1.744 2.048-2.224 4.656-2.688 10.496-1.888 3.856 0.528 5.296 1.072 8.656 3.248 4.432 2.864 5.632 4.768 5.312 8.48-0.208 2.512-1.072 3.184-5.712 4.4-1.488 0.384-2.528 1.024-2.528 1.52 0 0.464-0.512 1.12-1.152 1.472-1.328 0.704-11.504 0.752-13.808 0.048zM305.856 455.2c-1.264-1.088-1.76-2.304-2.384-5.808-0.848-4.72-1.072-10.176-0.496-12.272 0.496-1.872 2.72-2.608 7.792-2.608 5.904 0 8.544 1.392 10.64 5.6 1.152 2.304 1.488 3.92 1.488 7.024 0 6.56-1.040 7.824-7.264 8.832-5.872 0.96-7.968 0.8-9.76-0.752zM226.896 437.216c-0.512-0.624-0.656-3.952-0.512-12.080l0.208-11.216 9.984-39.072c5.488-21.488 10.384-39.952 10.88-41.040 1.36-2.992 3.728-3.696 12.512-3.696 8.544 0 10.688 0.608 12.976 3.664 2.032 2.72 2.672 5.2 3.040 11.664 0.272 4.896 1.136 8.16 8.144 30.704 6.848 22.064 8.224 25.888 10.928 30.576l3.088 5.36 0.224 8.832c0.112 4.864 0.032 10.064-0.192 11.552-0.352 2.336-0.672 2.832-2.304 3.488-2.992 1.216-12.736 2.288-18.592 2.048-4.432-0.192-5.712-0.464-7.312-1.6-1.072-0.752-2.080-1.984-2.272-2.704-0.32-1.312 0.912-4.592 3.312-8.72 1.008-1.744 1.2-3.152 1.2-8.768 0-3.68-0.288-8.016-0.64-9.648s-2.624-7.008-5.040-11.952c-5.264-10.752-5.36-11.040-6.88-22.432-1.024-7.648-1.408-9.152-2.608-10.352-1.12-1.136-1.76-1.328-3.28-0.992-3.424 0.752-3.808 1.904-5.408 16.704-0.96 8.912-0.736 13.232 1.104 21.248 1.808 7.84 3.008 10.88 4.528 11.472 0.768 0.288 0.912 1.696 0.912 8.272 0 4.352-0.272 8.864-0.592 10.016-0.336 1.2-1.808 3.296-3.424 4.896-2.224 2.192-3.616 2.992-6.4 3.712-4.784 1.232-16.576 1.28-17.6 0.064zM192.128 430.464c-7.264-9.584-19.232-31.392-24.528-44.656-3.888-9.76-2.768-15.568 7.92-41.328 5.552-13.344 6.752-20.24 4.016-22.976-1.184-1.184-2.24-1.456-7.008-1.824-19.744-1.504-38.784-9.824-58.432-25.568-12.432-9.952-25.12-24.912-28.544-33.664-0.88-2.256-1.232-4.512-1.232-7.936 0-5.984-1.664-9.888-5.936-13.872-3.136-2.928-5.328-4.128-9.424-5.152-2.192-0.544-2.736-1.024-3.952-3.44-4.096-8.144-10.624-28.56-10.688-33.44-0.016-1.52 0.592-4.624 1.344-6.896 1.152-3.44 1.328-4.88 1.024-8.64-0.672-8.512-4.368-20.272-7.376-23.424l-1.52-1.6 0.688-5.984c3.632-31.216 29.888-89.296 54.096-119.664 6.064-7.616 23.728-25.568 25.776-26.224 4.224-1.328 9.952 9.312 27.44 50.976 6.544 15.584 13.904 33.024 16.368 38.768 7.248 16.928 8.304 21.936 5.76 27.2-0.672 1.392-3.264 4.896-5.76 7.792-11.728 13.632-16.256 25.264-16.272 41.856-0.032 27.76 16.72 53.536 44.72 68.8 8.848 4.816 15.792 6.704 21.408 5.808 6.304-1.008 14.544-7.616 17.936-14.416 4.688-9.376-0.048-19.872-11.504-25.504-5.424-2.656-10.848-3.584-20.768-3.536-8.784 0.048-10.928-0.208-13.776-1.648-1.504-0.752-1.632-1.104-1.632-4.24 0.016-6.576 2.016-11.632 6.464-16.4 5.824-6.24 12.112-9.888 37.36-21.744 31.456-14.768 33.216-15.488 34.288-14.192 0.384 0.464 1.104 3.184 1.6 6.064 1.072 6.192 4.032 13.952 10.016 26.16 5.392 11.008 8.688 16.144 11.2 17.472 4.464 2.352 12.096 12.8 16.96 23.2 4.752 10.176 7.216 12.656 11.824 11.92 3.040-0.496 6.416-3.088 13.456-10.336 12.288-12.64 17.408-20.64 19.312-30.144 1.504-7.472 1.856-20.864 0.672-25.808-2.176-9.184-10.016-22.656-17.632-30.272-3.872-3.872-4.992-4.672-7.152-5.008-1.408-0.224-3.248-1.008-4.096-1.728-1.488-1.28-1.52-1.424-0.832-4.432 1.392-6.032 11.808-31.152 27.104-65.344 21.84-48.832 25.504-56.192 27.616-55.376 5.184 1.984 39.952 63.504 47.12 83.392 3.2 8.864 4.208 9.952 10.8 11.632 6.56 1.664 8.912 7.44 10.368 25.376 1.168 14.384 2.816 21.808 5.952 26.72 1.808 2.848 4.512 4.592 7.168 4.592 0.72 0 1.504 0.592 1.888 1.44 1.184 2.592 0.112 5.36-3.648 9.52-4.064 4.48-4.528 6.112-4.432 15.312 0.112 9.728 3.024 19.52 6.48 21.776 1.856 1.216 2.368 2.816 1.472 4.56-2.416 4.656-15.088 18.432-29.52 32.096-8.208 7.76-23.136 27.216-28.752 37.488-4.8 8.768-15.024 17.68-27.28 23.776-6.592 3.28-11.536 4.752-18.32 5.456-8.88 0.912-13.92 3.792-16.896 9.648-5.744 11.328-0.512 31.488 12.928 49.776 1.2 1.632 2.512 4.080 2.912 5.408 0.624 2.144 0.544 2.896-0.736 6.608-2.688 7.744-18.864 35.616-26.224 45.184-3.68 4.8-5.792 6.544-7.216 6-1.648-0.624-6.064-8.304-10.448-18.176-13.536-30.416-25.92-71.904-23.328-78.176 0.816-1.984 1.92-2.512 9.216-4.384 11.184-2.88 16.992-7.056 16.992-12.224 0-3.424-2.832-5.296-10.576-7.024-5.824-1.296-26.24-1.392-55.92-0.256-30.576 1.168-34.752 1.856-39.712 6.48-2.8 2.624-6.512 8.848-6.512 10.944 0 1.648 2.192 3.952 4.688 4.96 1.28 0.512 4.704 1.36 7.616 1.888 6.208 1.12 8.112 1.76 11.008 3.68 3.216 2.128 3.648 3.568 2.672 8.688-1.568 8.208-6.48 24.32-16.32 53.52-10.96 32.56-13.536 38.176-17.44 38.176-1.376 0-2.208-0.656-4.304-3.424zM349.376 284.224c1.936-0.736 2.656-3.424 2.064-7.728-0.48-3.552-6.752-17.152-9.056-19.632-2.24-2.416-4.448-3.264-6.384-2.48-2.416 1.008-3.136 3.296-2.88 9.264 0.176 4.32 0.4 5.28 1.408 5.968 2.384 1.648 2.688 2.144 2.688 4.368 0 3.040 1.536 8.032 2.832 9.168 1.792 1.584 6.544 2.144 9.344 1.072zM169.728 279.088c0.848-0.64 2.832-3.712 4.384-6.832 2.448-4.896 2.88-6.288 3.12-10.192 0.32-5.088-0.288-6.848-2.672-7.744-2.128-0.816-5.552 0.336-5.552 1.872 0 0.704-0.544 1.264-1.408 1.488-1.616 0.416-2.752 2.496-2.752 5.088 0 1.408-0.448 2.048-2.096 3.024-2.752 1.616-3.12 2.416-3.6 7.792-0.384 4.16-0.304 4.608 0.928 5.84 1.152 1.152 1.824 1.296 4.72 1.088 2.112-0.16 3.968-0.688 4.944-1.408zM145.968 268.752c0.608-0.528 1.504-1.968 1.984-3.168s1.792-2.896 2.912-3.76c1.648-1.248 2.032-1.968 2.032-3.664 0-1.584 0.448-2.544 1.792-3.792 1.232-1.152 1.968-2.56 2.32-4.496 0.352-1.888 1.040-3.232 2.080-4.080 0.848-0.704 1.712-2.112 1.92-3.168 0.288-1.536 0.064-2.192-1.168-3.424s-2.112-1.536-4.496-1.536c-5.392 0-7.248 1.312-8.656 6.144-0.912 3.12-2.368 4.992-4.976 6.32-0.736 0.384-1.504 1.344-1.712 2.16-0.224 0.88-0.8 1.472-1.424 1.472-0.592 0-1.696 0.512-2.464 1.136-1.296 1.056-1.408 1.568-1.408 6.832 0 4.48 0.208 5.904 0.976 6.672 2.096 2.096 8.032 2.288 10.272 0.336zM375.040 268.944c1.872-1.872 1.76-3.696-0.56-9.552-2.496-6.288-3.76-8.192-6.32-9.52-0.96-0.496-1.744-1.296-1.744-1.776s-1.088-1.552-2.4-2.384c-1.664-1.040-2.512-2.064-2.768-3.296-0.512-2.608-3.344-4.736-6.256-4.736-4.848 0-6.208 1.856-4.928 6.752 1.104 4.224 2.816 7.184 5.904 10.24 1.744 1.728 2.976 3.84 4.432 7.616 2.576 6.688 3.632 7.536 9.392 7.568 3.12 0.016 4.544-0.24 5.216-0.912zM395.808 252.736c0.512-0.576 1.024-2.112 1.136-3.424 0.192-2.224 0.064-2.432-2.032-3.44-1.232-0.576-2.24-1.472-2.24-1.968s-0.944-1.456-2.096-2.144c-1.152-0.672-2.096-1.568-2.096-2s-0.88-1.44-1.936-2.256c-1.248-0.96-2.32-2.592-3.024-4.592-0.848-2.432-1.456-3.232-2.816-3.712s-1.808-1.056-2.080-2.784c-0.688-4.336-0.912-4.816-2.528-5.584-0.896-0.432-1.712-1.36-1.824-2.064-0.272-1.936-2-2.304-3.296-0.704-1.456 1.792-0.976 4.992 1.76 11.776 2.112 5.264 3.712 7.52 5.744 8.176 0.72 0.224 1.952 2.112 3.232 4.928 2.16 4.768 4.016 7.248 5.376 7.248 0.448 0 0.976 0.464 1.184 1.040 0.72 2.016 1.552 2.528 4.048 2.528 1.648 0 2.848-0.368 3.456-1.040zM123.344 250.656c0.512-0.736 0.928-1.936 0.928-2.704 0-0.896 0.496-1.552 1.392-1.904 1.392-0.528 1.872-1.328 4.768-7.92 1.088-2.496 1.888-3.504 2.96-3.776 3.616-0.912 8.032-8.624 8.56-14.976 0.304-3.664 0.208-4.208-0.96-5.248-2.208-1.984-7.2-1.12-7.2 1.248 0 0.464-0.656 1.136-1.44 1.488-0.912 0.416-2 1.92-2.928 4.080-1.152 2.672-1.888 3.568-3.312 4.064-1.152 0.4-1.952 1.168-2.192 2.112-0.224 0.896-0.944 1.616-1.808 1.84-0.896 0.224-1.76 1.136-2.304 2.432-0.48 1.136-1.136 2.080-1.456 2.080-1.232 0-2.464 1.968-2.464 3.936 0 1.568-0.512 2.576-2.080 4.16s-2.080 2.592-2.080 4.128c0 4.544 1.968 6.112 7.872 6.224 2.256 0.048 2.976-0.208 3.728-1.264zM104.592 227.36c1.152-0.672 5.584-4.624 9.84-8.752 5.152-5.008 8.656-7.904 10.432-8.656 1.472-0.624 3.664-1.888 4.88-2.816 2.528-1.936 4.944-6.432 4.384-8.16-0.576-1.808-3.84-2.624-7.68-1.904-5.6 1.040-8.464 2.736-17.488 10.384-2.24 1.904-5.76 4.256-7.824 5.216-2.496 1.184-4.128 2.416-4.912 3.696-2.288 3.76-0.96 10.528 2.4 12.208 1.68 0.832 2.96 0.576 5.968-1.2zM412.864 228.672c3.184-1.104 3.232-4.56 0.144-11.456-1.856-4.128-3.408-5.456-8.096-6.944-3.952-1.248-4.736-1.776-5.728-3.904-0.624-1.344-2.112-2.416-5.904-4.32-11.024-5.504-19.008-6.736-19.072-2.96 0 0.256 0.896 1.008 2 1.664 1.312 0.768 2.144 1.792 2.368 2.912 0.288 1.44 0.896 1.92 3.792 3.008 4.608 1.712 6.144 2.768 6.144 4.256 0 0.816 0.592 1.456 1.776 1.904 1.024 0.384 2 1.312 2.272 2.16 0.4 1.184 1.104 1.616 3.44 2.112 2.384 0.512 2.976 0.88 3.136 2 0.112 0.8 0.8 1.6 1.648 1.92 1.296 0.496 2.512 2.432 3.472 5.52 0.368 1.168 3.472 2.752 5.488 2.784 0.688 0.016 2.096-0.272 3.136-0.64zM425.792 203.056c2.144-2.016 2.016-4.88-0.32-6.544-0.976-0.704-1.792-1.632-1.792-2.080 0-1.472-2.992-4.384-5.232-5.12-1.216-0.4-3.488-1.36-5.024-2.128s-3.456-1.408-4.24-1.408c-2.016 0-13.52-3.472-15.28-4.608-1.936-1.248-6.448-1.36-7.184-0.16-0.304 0.496-0.416 1.424-0.224 2.080 0.8 2.864 2.544 4.208 8.64 6.72 4.416 1.808 6.72 3.12 8 4.56 1.104 1.264 2.576 2.176 3.872 2.432 3.696 0.704 4.032 0.912 4.4 2.736 0.256 1.264 0.928 2.064 2.304 2.704 1.072 0.496 2.624 1.296 3.44 1.792 2.176 1.296 6.816 0.768 8.672-0.976zM106.688 195.088c17.040-8.432 21.168-10.944 21.168-12.864 0-2.752-2.944-2.864-14.608-0.56-14.768 2.912-20.672 5.504-26.576 11.648-3.52 3.68-3.68 3.968-3.376 6.24 0.816 6.080 2.912 5.68 23.392-4.464zM93.248 173.968c0.96-1.040 2.096-1.904 2.512-1.904s8.032-0.8 16.88-1.792c18.224-2.016 18.96-2.256 19.264-6.368 0.288-3.792 0-3.856-12.48-3.184-24.112 1.328-35.376 2.496-38.576 4.016-4.496 2.144-5.408 9.776-1.312 11.008 0.816 0.24 3.84 0.368 6.72 0.288 5.040-0.16 5.296-0.224 6.976-2.064zM432.72 174.496c2.976-3.68-0.688-8.848-6.368-8.944-1.328-0.016-8.432-0.848-15.808-1.824-16-2.128-29.248-2.48-31.104-0.8-1.44 1.296-1.376 2.88 0.16 4.32 0.928 0.864 2.48 1.264 5.808 1.552 10.016 0.832 25.392 3.824 30.496 5.952 3.008 1.248 4.448 1.424 10.368 1.28 4.72-0.128 5.424-0.288 6.416-1.504zM135.040 148.064c4.752-2.4 3.888-5.424-2.24-7.904-2.224-0.896-6.304-2.72-9.072-4.048-4.672-2.256-5.696-2.496-14.912-3.536-5.44-0.624-14.352-1.28-19.824-1.456l-9.92-0.336-0.896 1.408c-1.168 1.872-1.792 7.152-1.072 9.072 0.32 0.832 1.2 1.872 1.952 2.288 1.312 0.72 43.984 5.648 50.304 5.792 2.048 0.048 3.856-0.352 5.664-1.264zM407.072 146.176c12.992-1.44 24.192-2.912 24.88-3.28 1.456-0.784 2.176-3.84 1.712-7.264-0.496-3.696-1.136-4.112-6.32-4.112-10.592 0.016-18 1.12-34.336 5.152-17.856 4.4-19.296 5.088-18.576 8.688 0.592 2.96 1.344 3.44 5.36 3.44 2.016 0 14.288-1.184 27.296-2.624zM141.584 127.632c1.152-1.392 0.896-3.568-0.768-6.384-2.32-3.936-30.928-35.216-34.176-37.36-3.008-1.984-3.296-2.080-5.584-1.888-5.584 0.48-7.808 9.376-4.144 16.512 1.824 3.552 11.84 12.672 20.8 18.928 6.272 4.384 19.472 11.072 21.84 11.088 0.704 0 1.6-0.4 2.016-0.896zM379.68 125.664c9.072-4.672 22.496-14.496 29.552-21.6 3.568-3.6 6.72-7.344 7.376-8.8 1.152-2.512 1.152-2.56 0-5.168-1.552-3.52-5.808-8.096-7.536-8.096-2.256 0-7.248 4.448-21.872 19.456-14.752 15.136-16.864 17.968-16.864 22.592 0 5.424 1.472 5.68 9.344 1.616z"></path>
</svg>
