<!-- Generated by IcoMoon.io -->
<svg version="1.1" xmlns="http://www.w3.org/2000/svg" width="512" height="512" viewBox="0 0 512 512">
<title>factions-death-legions-of-nagash</title>
<path fill="#fff" d="M232.112 511.952c-2.464-0.512-4.912-1.072-7.408-1.52-1.504-0.272-3.040-0.24-4.512-0.496-2.704-0.464-3.28-1.568-2.656-4.384 0.496-2.256 0.912-4.528 1.232-6.816 0.24-1.76-0.672-3.104-2.416-3.28-2.88-0.288-3.84-1.872-3.488-4.736-0.896-0.064-1.632-0.128-2.528-0.208-0.208 0.912-0.464 1.68-0.496 2.464-0.016 1.728-0.976 2.208-2.544 2.416-5.808 0.72-6.768 0.288-6.32-5.536 0.4-5.632 1.904-11.216 3.008-16.768 0.56-2.784 1.712-5.52 1.968-8.304 0.432-5.008 3.824-7.68 7.552-9.776 2.080-1.168 5.072-1.792 7.376-1.28 6.384 1.392 12.704 1.68 19.12 0.624 4.672-0.752 9.296-1.76 13.984-2.256 3.44-0.352 6.944-0.208 10.4-0.016 0.752 0.048 1.744 1.088 2.144 1.92 1.872 3.824 1.936 7.904 1.504 12.064-0.864 8.24-1.696 16.512-2.704 24.72-0.176 1.424-0.864 3.616-1.824 3.952-1.904 0.64-4.016 0.064-5.184-2.16-0.848-1.648-1.808-1.648-2.976-0.064-0.464 0.64-1.632 1.312-2.352 1.184-2.32-0.4-4.608-1.072-6.832-1.824-1.36-0.464-1.856 0-2.784 1.008-3.152 3.376-3.008 7.28-2.768 11.408 0.208 2.992-1.2 5.312-4.128 6.544-0.624 0.272-1.12 0.784-1.68 1.184-0.896-0.048-1.792-0.048-2.688-0.048z"></path>
<path fill="#fff" d="M13.968 269.152c0.336-0.8 0.832-1.568 0.96-2.416 0.288-1.76 0.608-3.44 2.864-3.552 2.16-0.112 3.712 0.896 4.080 3.040 0.432 2.496 1.872 2.704 4.304 2.032-0.432-3.392-0.64-6.832-1.28-10.192-1.344-7.088 1.648-11.040 8.784-10.896 9.264 0.208 18.544 0.608 27.808 1.008 3.6 0.16 4.528 1.76 3.088 5.136-1.088 2.528-2.272 5.024-3.488 7.504-1.008 2.032-1.232 3.952-0.272 6.144 0.688 1.584 0.512 3.568 1.312 5.088 0.64 1.232 2.016 2.48 3.312 2.88 2.32 0.672 3.728 1.92 4.464 4.112 1.968 5.76 0.272 9.584-5.52 11.056-9.328 2.368-18.576 4.848-27.536 8.448-4.192 1.696-6.896-0.112-8.176-4.528-0.8-2.784-1.808-5.52-2.72-8.256-2.928 0.32-3.776 2.192-3.84 4.128-0.112 2.896-1.52 3.632-4.112 3.488-2.768-0.16-3.008-1.92-3.040-4.064-0.064-3.392-0.208-6.784-0.384-10.16-0.048-0.848-0.384-1.68-0.608-2.528-0.016-2.464-0.016-4.96-0.016-7.456zM55.056 249.328c-0.432 0-0.832-0.016-1.248-0.016-0.336 1.2-0.672 2.432-1.008 3.632 0.976-0.016 1.984-0.048 2.976-0.064-0.24-1.2-0.464-2.368-0.72-3.552z"></path>
<path fill="#fff" d="M497.968 245.568c-3.104 0.176-6.224 0.272-9.312 0.624-0.688 0.096-1.472 1.072-1.824 1.808-0.448 0.944-0.384 2.096-0.688 3.104-0.624 2.032-1.248 2.784-4.080 2.352-6.976-1.136-14.144-1.184-21.216-1.632-0.96-0.064-1.936 0.176-2.928 0.208-4.128 0.016-6.384-2.32-5.344-6.304 1.28-4.928 0.672-9.712 0-14.576-0.464-3.312 0.64-5.088 3.568-6.656 4.688-2.496 9.472-4.528 14.848-4.784 0.912-0.048 2.144 0.016 2.72 0.56 1.92 1.808 3.936 1.456 5.968 0.608 5.296-2.192 8.704-0.048 9.296 5.888 0.064 0.784 0.096 1.584 0.128 2.544 0.784 0.048 1.456 0.096 2.144 0.112 3.504 0.064 5.248 1.616 5.696 5.040 0.352 2.64 0.72 5.264 1.088 7.904-0.064 1.056-0.064 2.128-0.064 3.2z"></path>
<path fill="#fff" d="M259.424 0c10.56 11.104 22.72 20.032 32.432 31.6 5.872 6.992 13.328 12.64 19.792 19.184 12.352 12.512 24.528 25.216 36.768 37.84 1.616 1.68 3.28 3.28 4.832 5.024 2.816 3.168 2.976 5.536 0.352 8.848-5.424 6.88-8.24 14.576-8.56 23.424-0.672 19.088-1.408 38.16-2.544 57.248-0.912 15.232-2.432 30.416-3.792 45.632-0.128 1.536-1.072 2.992-1.584 4.496-0.384 1.136-0.496 2.432-1.072 3.456-0.64 1.136-1.504 2.464-2.592 2.992-8.576 4.176-17.264 8.128-25.856 12.24-3.28 1.584-6.448 3.424-9.696 5.088-2.896 1.52-4.352 0.832-4.288-2.432 0.24-14.176 0.288-28.384 1.072-42.544 0.608-10.592 1.744-21.2 3.616-31.632 1.008-5.648 0.448-10.080-2.992-14.672-5.76-7.712-11.104-15.744-16.576-23.68-4.080-5.936-8.080-11.952-12.144-17.904-0.64-0.944-1.36-1.92-2.256-2.608-2.832-2.256-4.576-1.936-6.32 1.184-11.216 20.096-22.4 40.208-33.552 60.352-0.576 1.024-0.848 2.352-0.912 3.552-0.672 13.024-1.424 26.048-1.824 39.056-0.16 4.864 0.72 9.76 0.848 14.624 0.128 4.72 0.208 9.472-1.824 13.936-1.584 3.504-3.76 4.416-7.264 2.752-2.016-0.96-3.904-2.16-5.968-3.040-6.72-2.816-13.472-5.632-20.272-8.224-1.856-0.72-4.016-0.8-6.032-0.848-3.6-0.064-5.648-1.856-5.888-5.472-0.016-0.352-0.016-0.72-0.016-1.072-0.32-20.88-0.336-41.792-1.072-62.64-0.432-11.92-1.744-23.824-3.168-35.696-1.088-9.2-3.056-18.272-4.512-27.424-1.168-7.232-4.736-13.408-8.352-19.568-2.432-4.128-2.384-5.424 1.28-8.416 13.936-11.44 27.936-22.784 41.936-34.144 16.24-13.184 31.424-27.536 46.544-41.968 3.312-3.232 7.488-5.6 11.504-8.528zM309.984 239.712c3.632 0.048 3.2-3.28 4.608-5.2-3.776-0.624-5.68 1.616-4.608 5.2zM344.048 102.128c1.056-1.36 1.968-2.128 2.208-3.040 0.128-0.512-0.832-1.312-1.296-1.984-0.752 0.848-1.648 1.632-2.192 2.608-0.176 0.336 0.576 1.168 1.28 2.416zM249.056 86.032c0.944-0.896 1.872-1.808 2.816-2.704-0.608-0.544-1.28-1.568-1.808-1.504-1.984 0.272-2.128 1.76-1.008 4.192z"></path>
<path fill="#fff" d="M130.928 282.656c-0.496-6.56-0.976-13.696-1.584-20.8-0.976-11.744-2.192-23.472-3.008-35.216-0.672-9.44-0.672-18.912-1.424-28.336-0.944-11.392-2.24-22.736-3.616-34.080-0.576-4.8 0.176-9.072 3.328-12.768 7.744-9.104 15.504-18.24 23.36-27.264 0.8-0.944 2.864-1.984 3.488-1.584 1.072 0.64 1.872 2.352 2.048 3.712 3.232 26.912 2.576 54.032 4.224 81.008 0.272 4.528 1.296 9.024 1.472 13.552 0.272 7.12 0.112 14.272 0.128 21.424 0.016 3.568 0.128 4.976 4.448 6.224 10.848 3.168 21.456 7.152 32.224 10.672 10.832 3.552 21.712 6.944 33.136 10.608 0.272-2.976 0.72-5.856 0.784-8.736 0.208-11.52 0.128-23.056 0.4-34.544 0.24-9.984 1.248-19.968 1.056-29.952-0.112-5.984 2.256-10.624 4.976-15.44 8.224-14.512 16.416-29.040 24.608-43.552 0.448-0.784 0.944-1.504 1.52-2.432 3.568 1.616 6.384 3.904 8.224 7.344 4.528 8.512 9.296 16.88 13.472 25.568 2.416 5.024 4.24 10.432 5.568 15.84 0.784 3.264 0.64 6.992-0.064 10.288-1.52 7.040-2.272 14.048-2.208 21.232 0.112 11.344 0.112 22.688-0.096 34.032-0.096 5.072-0.912 10.112-1.312 15.168-0.272 3.44-0.432 6.896-0.64 10.784 1.408-0.176 2.368-0.112 3.2-0.448 19.744-7.792 39.424-15.744 59.2-23.36 4.384-1.68 5.824-4.16 5.92-8.704 0.608-28.944 1.392-57.872 2.256-86.784 0.336-11.072 0.96-22.128 1.536-33.184 0.208-3.728 1.856-5.36 5.136-4.912 1.088 0.16 2.432 1.056 3.040 2.016 6.944 11.152 14.496 21.84 23.232 31.648 1.504 1.68 2.16 3.392 1.984 5.584-0.576 6.752-0.784 13.536-1.728 20.24-2.128 15.328-0.688 30.688-1.136 46-0.384 13.216-0.24 26.464-1.28 39.616-0.32 4.176-1.344 9.296-6.192 11.808-4.896 2.544-9.52 5.6-14.512 7.904-11.664 5.36-23.376 10.608-35.264 15.472-10.96 4.496-22.192 8.304-33.232 12.592-4.4 1.696-8.512 4.128-12.88 5.856-6.704 2.656-13.488 5.12-20.352 7.344-1.632 0.544-3.824 0.224-5.488-0.4-12.352-4.64-24.816-9.072-36.896-14.336-18.224-7.92-37.232-13.248-56.288-18.512-6.608-1.824-13.424-2.944-20.144-4.288-1.392-0.288-2.832-0.16-4.272-0.32-0.96-0.096-1.968-0.176-2.864-0.512-2.32-0.848-4.608-1.872-7.488-3.088z"></path>
<path fill="#fff" d="M269.584 422.848c-1.744 0-3.232 0-5.088 0 0.352-5.584 0.736-11.056 1.072-16.528 0.112-1.872 0.224-3.76 0.112-5.6-0.048-0.64-0.832-1.808-1.12-1.76-0.752 0.112-1.76 0.624-2.048 1.248-0.496 1.088-0.672 2.384-0.736 3.616-0.32 4.8-0.4 9.648-0.848 14.448-0.128 1.472-0.8 3.168-1.792 4.192-0.736 0.752-2.56 1.072-3.616 0.72-0.752-0.24-1.408-1.92-1.456-2.976-0.128-5.456 0-10.896-0.128-16.352-0.016-1.008-0.64-2.784-1.2-2.864-1.936-0.288-2.544 1.28-2.576 2.944-0.064 3.84-0.048 7.68-0.064 11.52-0.016 2.048 0 4.112-0.064 6.16-0.048 1.856-0.576 3.392-2.816 3.504-2.272 0.096-4.624 0.208-5.6-2.48-0.336-0.896-0.432-1.92-0.432-2.88-0.048-5.088 0.016-10.192-0.048-15.28-0.048-3.632-1.056-4.304-4.304-3.376 0.16 6.944 0.288 13.776 0.432 20.608 0.016 0.896 0.272 1.936-0.112 2.64-0.56 1.056-1.568 1.856-2.384 2.752-0.72-0.784-1.856-1.456-2.048-2.352-1.392-6.080-2.528-12.224-3.856-18.32-0.336-1.52-0.96-3.056-1.808-4.336-0.496-0.736-1.712-0.976-2.608-1.456-0.32 0.944-0.96 1.92-0.848 2.816 0.24 2.304 0.752 4.576 1.28 6.832 1.36 5.904 2.768 11.792 4.16 17.68 0.096 0.4 0.016 0.832 0.016 1.616-3.456-2.48-5.68-5.6-6.864-9.216-2.048-6.336-3.728-12.8-5.584-19.2-0.56-1.936-0.272-3.616 1.12-5.2 1.76-2.032 2.256-4.416 1.408-7.008-1.904-5.76-3.632-11.568-5.792-17.248-0.96-2.528-2.688-4.752-4.048-7.12-0.96-1.648-1.904-3.344-2.896-4.976-0.448-0.752-0.864-1.584-1.536-2.128-3.632-3.008-10.080-2.864-13.584 0.24-2.48 2.192-5.648 2.416-8.016 0.176-5.184-4.912-10.272-9.92-15.232-15.056-0.96-1.008-1.472-2.832-1.456-4.288 0.048-5.264 0.208-10.544 0.72-15.792 0.512-5.136 1.536-10.208 2.304-15.328 0.272-1.856 0.32-3.76 0.64-5.584 0.624-3.232 2.864-4.528 5.92-3.312 4.176 1.68 8.704 2.72 12.016 6.16-0.128 0.336-0.16 0.64-0.32 0.8-5.856 6.048-6.16 14.288-0.512 20.592 1.248 1.392 3.056 2.656 4.832 3.12 6.88 1.856 13.776 3.68 20.8 4.912 5.344 0.96 10.816 1.168 16.24 1.424 4.864 0.24 8.592-2.768 12.24-5.408 0.976-0.688 0.72-3.12 1.024-4.752 4.64-0.288 8.96 1.008 13.296 2.832 1.968 0.832 4.528 0.848 6.72 0.496 3.152-0.544 6.16-1.792 9.248-2.688 3.232-0.944 4.576-0.32 5.936 2.704 2.016 4.4 5.184 5.712 9.824 4.128 0.736-0.24 1.584-0.56 2.32-0.464 9.536 1.024 18.576-1.792 27.776-3.424 3.6-0.64 7.216-1.28 10.736-2.192 1.072-0.272 2.32-1.344 2.752-2.352 2.096-4.928 2.528-10.192 2.368-15.504-0.016-0.688-0.112-1.536-0.544-2.016-1.824-2.144-0.8-3.264 1.248-4.224 4.016-1.904 8-3.888 12.016-5.76 1.632-0.736 2.752-0.176 3.088 1.936-2.608 0.672-2.704 2.864-2.704 5.040 0.016 10.224-1.472 20.256-3.392 30.288-0.8 4.224-2.768 6.816-6.752 8.448-2.096 0.864-3.904 2.752-5.52 4.496-2.048 2.208-3.792 4.736-5.648 7.12-3.104 3.968-6.832 4.528-10.928 1.536-1.728-1.28-3.328-2.688-4.96-4.080-2.128-1.808-4.064-1.568-6.592-0.4-10.88 4.96-14.384 14.688-16.928 25.152-0.72 2.944-1.344 5.904-2.080 8.816-0.464 1.824-0.16 3.28 1.904 3.664 3.44 0.64 3.568 3.488 2.128 5.744-2.784 4.4-4.4 9.024-4.56 14.288-0.112 3.6-1.056 7.152-1.696 10.72-0.864 4.976-4.832 7.376-8.896 9.888 0.288-1.616 0.608-3.2 0.832-4.832 0.56-3.856 1.056-7.744 1.584-11.632 0.608-4.4 1.312-8.8 1.76-13.216 0.112-1.072-0.4-2.832-1.168-3.216-1.584-0.8-2.096 0.832-2.32 2.048-1.088 6.32-2.128 12.64-3.152 18.976-0.24 1.568-0.352 3.152-0.576 5.008zM266.48 368.224c0.112-2.704 0.336-4.72 0.272-6.72-0.176-5.424-0.512-10.848-0.752-16.288-0.128-2.976-3.056-5.936-6.496-6.48-3.344-0.512-6.432 1.2-7.44 4.288-0.544 1.696-0.752 3.488-1.248 5.184-1.184 4.176-2.32 8.4-3.728 12.512-0.496 1.408-2.608 2.72-2.416 3.792 0.24 1.296 2.16 2.272 3.312 3.44 2.528 2.496 3.44 2.544 6.16-0.048 2.048-1.968 4.272-2.272 6.864-1.248 1.584 0.608 3.216 0.912 5.488 1.568zM228.688 371.728c-0.352-2.128-0.4-3.568-0.864-4.864-0.224-0.608-1.36-1.392-1.872-1.248-0.608 0.176-1.312 1.184-1.36 1.872-0.096 1.2 0.16 2.496 0.512 3.664 0.432 1.312-0.512 3.76 1.984 3.504 0.72-0.064 1.232-2.192 1.616-2.928z"></path>
<path fill="#fff" d="M97.168 436.528c-2.832-4.384-5.424-8.4-8.48-13.104 0.56-0.848 1.408-2.608 2.688-3.968 8.336-8.848 16.736-17.6 25.12-26.336 3.888-4.048 10.4-3.568 13.36 1.168 1.568 2.496 2.352 5.472 3.536 8.224 0.272 0.624 0.576 1.28 1.024 1.76 1.12 1.28 2.416 2.384 3.44 3.728 2.048 2.688 4.464 3.792 8.016 3.664 6.16-0.24 10.224 6.864 7.12 12.224-1.744 2.992-2.944 6.592-6.784 7.904-0.672 0.224-1.2 1.072-1.616 1.744-4.272 7.072-8.512 14.208-12.752 21.28-0.864 1.456-1.648 2.976-2.704 4.288-1.52 1.92-3.44 2.144-5.36 0.608-2.64-2.128-5.136-4.416-7.728-6.608-3.376-2.816-5.008-2.464-6.48 1.616-0.752 2.080-2.032 3.328-4.176 3.616-2.208 0.288-3.888-0.608-5.344-2.368-3.104-3.76-6.32-7.44-9.632-10.992-1.68-1.808-1.76-3.824-1.36-5.968 0.096-0.432 0.976-0.848 1.584-1.008 1.92-0.512 3.84-0.864 6.528-1.456z"></path>
<path fill="#fff" d="M58.624 386.32c-0.576-3.616-2.208-6.112-4.528-8.128-1.872-1.616-1.968-3.376-1.184-5.52 1.12-3.088 3.040-5.536 5.872-7.056 9.2-4.928 17.328-11.264 24.832-18.464 1.504-1.424 2.992-1.616 4.864-0.864 4.64 1.824 6.784 5.312 6.16 10.288-0.4 3.312 2.704 9.632 5.584 11.264 0.384 0.224 0.848 0.336 1.28 0.352 6.896 0.432 9.76 5.632 12.464 10.784 1.296 2.48 0.384 5.52-2.432 6.896-8.448 4.128-13.136 12.144-19.696 18.208-3.44 3.168-7.488 5.696-11.344 8.4-0.464 0.336-1.52 0.128-2.192-0.112-4.016-1.392-5.488-5.072-7.568-8.288-0.576-0.896-1.68-1.472-2.528-2.192-0.608 1.2-1.472 2.32-1.76 3.6-0.4 1.728-0.24 3.6-0.624 5.312-0.128 0.576-1.072 1.232-1.76 1.424-0.912 0.24-1.968-0.016-2.928 0.112-1.904 0.288-2.768-0.496-3.056-2.352-0.384-2.416-0.944-4.56-4-5.184-1.072-0.224-2.256-2.016-2.592-3.28-1.024-3.904-2.56-7.392-5.76-10-1.6-1.312-1.696-2.64-0.224-4.288 2.992-3.392 5.024-3.936 9.184-2.16 1.168 0.56 2.432 0.8 3.952 1.248z"></path>
<path fill="#fff" d="M164.368 480.912c-1.088 2.48-0.608 4.112 1.52 5.248 1.936 1.056 3.488 2.304 2.208 4.864-1.68 3.376-3.968 4.848-6.72 3.76-3.888-1.536-7.664-3.392-11.504-5.088-1.392-0.608-2.784-1.12-4.272-1.728-0.912-4.224 0.864-6.672 5.232-6.528 2.784 0.112 3.2-1.92 3.776-3.712 0.608-1.872-1.024-2.464-2.352-2.944-3.168-1.2-6.368-2.272-9.536-3.504-3.616-1.408-4.752-4.624-2.752-7.968 1.872-3.12 3.904-6.192 5.872-9.264 0.176-0.288 0.4-0.784 0.64-0.8 3.664-0.544 4.016-3.728 5.408-6.272 2.016-3.728 4.512-7.184 6.784-10.784 0.432-0.672 0.944-1.344 1.184-2.080 0.976-2.832 3.088-4.496 5.68-5.744 3.168-1.536 4.272-1.456 6.528 1.28 2.752 3.328 5.52 6.72 9.712 8.176 3.168 1.088 6.528 1.792 9.856 2.24 4.048 0.56 7.488 3.44 8.48 7.392 1.072 4.224 0.688 8.224-0.624 12.352-2.016 6.368-3.712 12.848-5.456 19.28-1.072 3.952-2.416 7.68-5.92 10.192-3.76 2.688-6.112 2.096-9.536-0.912-2.384-2.128-5.568-3.424-8.464-4.928-1.808-0.96-3.76-1.632-5.76-2.48z"></path>
<path fill="#fff" d="M388.16 457.12c-7.040 3.728-13.92 7.456-20.88 11.040-2.128 1.088-3.504-0.112-4.416-2.096-2.304-4.96-5.6-5.648-9.776-2.128-2.832 2.384-4.512 1.808-6.16-1.728-2.24-4.736-5.072-9.216-7.008-14.048-1.856-4.624-3.6-9.488-4.16-14.384-0.624-5.536 6.768-14.096 14.512-11.792 2.752 0.832 5.040 0.352 7.232-1.424 0.96-0.784 2.096-1.344 3.216-1.92 2.080-1.072 3.504-2.528 4.128-4.928 0.4-1.584 1.392-3.104 2.384-4.448 3.792-5.136 9.808-4.976 13.488 0.336 0.752 1.088 1.296 2.352 1.984 3.488 4.064 6.896 8.112 13.824 12.256 20.688 0.896 1.472 0.96 2.592-0.544 3.568-4.224 2.784-8.448 5.536-12.656 8.336-0.736 0.496-2.016 1.28-1.92 1.632 0.272 1.088 0.976 2.784 1.728 2.896 4.064 0.624 4.784 4.128 6.592 6.928z"></path>
<path fill="#fff" d="M420.624 426.080c0-2.48 0-4.784 0-8.064-2.016 0.912-3.728 1.312-4.896 2.352-3.056 2.72-5.904 5.712-8.784 8.64-1.424 1.456-2.896 2.752-5.136 1.936-2.144-0.784-2.192-2.784-3.008-4.56-1.28-2.768-3.632-5.040-5.536-7.552-0.896-1.184-2.128-2.256-2.592-3.568-1.584-4.448-4.016-8.288-7.216-11.744-2.752-2.976-2.656-3.312-0.048-6.496 1.136-1.392 2.384-2.656 3.44-4.112 1.968-2.656 4.912-3.504 7.712-4.912 4.624-2.32 9.088-5.264 12.88-8.736 1.632-1.504 1.68-4.928 2.032-7.552 0.832-6.080 1.184-6.32 7.056-4.496 8.416 2.608 16.48 5.76 22.8 12.304 1.392 1.424 1.824 2.704 1.2 4.512-1.792 5.136-3.68 10.224-5.248 15.44-0.448 1.52-0.352 3.552 0.288 4.96 1.12 2.464 1.2 4.512-0.384 6.752-2.832 4-5.52 8.112-8.336 12.128-1.632 2.432-2.784 2.896-6.256 2.768z"></path>
<path fill="#fff" d="M322.608 438.928c3.968 3.008 6.368 6.864 8.128 11.104 2.304 5.52 4.56 11.056 6.704 16.608 1.968 5.088 0.288 8.912-4.784 11.056-1.728 0.72-3.552 1.168-5.344 1.68-4.048 1.168-5.936 4.672-4.64 8.704 0.8 2.528-0.512 4.848-3.376 5.632-3.776 1.024-7.6 1.984-11.408 2.896-2.768 0.672-5.808-1.584-6.112-4.416-0.448-3.824-1.456-4.448-5.088-3.2-1.28 0.432-2.528 0.912-3.776 1.344-5.136 1.728-10.224-1.008-12.016-6.144-2.768-8.016-3.84-16.288-3.776-24.72 0.048-7.152 5.68-10.624 12.080-7.408 0.32 0.16 0.688 0.288 0.944 0.512 4.624 4.336 9.2 2.944 13.712-0.128 5.36-3.664 10.656-7.456 15.952-11.216 0.896-0.72 1.76-1.472 2.816-2.304z"></path>
<path fill="#fff" d="M71.264 326.608c3.008 0.672 5.936 1.088 8.704 1.968 4.624 1.472 6.048 4.496 4.16 8.96-2.816 6.656-8.688 9.968-15.104 11.744-5.856 1.632-10.768 4.608-15.536 8.016-2.032 1.456-4 2.88-6.56 1.68s-2.864-3.632-3.488-6.16c-0.896-3.568-2.64-6.928-4.080-10.32-0.16-0.336-0.976-0.672-1.36-0.56-0.496 0.128-1.136 0.688-1.2 1.136-0.208 1.232-0.112 2.48-0.224 3.728-0.112 1.472 0.672 3.376-1.824 3.76-3.328 0.512-5.36-0.336-6-2.944-1.184-4.752-2.144-9.552-3.232-14.336-0.64-2.72-0.448-5.2 1.28-7.6 1.184-1.632 1.92-1.504 3.376-0.4 2.144 1.584 4.528 2.832 6.832 4.24 0.336-0.272 0.672-0.544 1.008-0.8-1.088-2.928-1.968-5.968-3.376-8.704-2.496-4.928-2.416-6.32 2.272-9.136 3.12-1.856 6.496-3.312 9.824-4.8 5.2-2.32 10.448-4.528 15.728-6.72 3.856-1.584 7.504-0.976 10.88 1.424 2.592 1.824 3.216 3.616 2.384 6.704-1.504 5.536-2.992 11.072-4.4 16.608-0.208 0.832-0.016 1.728-0.016 2.528z"></path>
<path fill="#fff" d="M466.928 342.976c2.864 0.288 5.344 0.336 7.744 0.832 2.432 0.512 2.688 1.392 1.296 3.6-2.832 4.528-5.68 9.072-8.56 13.584-1.408 2.208-3.392 2.656-5.696 1.36-3.376-1.92-4.672-1.456-6.448 2.080-1.2 2.384-2.528 4.72-3.968 6.976-1.728 2.64-2.56 2.832-5.152 1.168-5.936-3.888-11.792-7.968-17.76-11.808-1.616-1.056-3.504-1.76-5.36-2.272-2.352-0.64-3.376-1.632-2.528-4.176 0.384-1.136 0.128-2.464 0.24-3.712 0.208-2.128 0.336-4.272 0.736-6.32 0.64-3.264 2.592-5.424 5.68-6.896 1.648-0.784 3.104-2.304 4.224-3.792 1.984-2.72 3.776-5.632 5.376-8.592 0.832-1.52 1.184-3.328 1.648-5.024 0.288-1.024 0.32-2.128 0.624-3.152 1.792-6.048 3.616-6.944 9.712-5.536 4.928 1.168 9.936 2.032 14.944 2.896 1.92 0.336 2.72 1.248 3.392 3.12 2.72 7.712 0.544 15.344 0.112 23.024-0.064 0.944-0.208 1.904-0.272 2.688z"></path>
<path fill="#fff" d="M126.208 98c-2.096 2.48-4.128 5.040-6.304 7.44-9.104 10.080-18.432 19.936-27.312 30.192-4.24 4.896-7.68 10.496-11.472 15.792-4.416 6.16-8.896 12.288-13.136 18.576-0.96 1.408-1.296 3.392-1.472 5.152s0.288 3.552 0.352 5.344c0.096 2.432-2.128 5.232-4.512 5.568-0.688 0.096-1.696-0.176-2.144-0.64-2.944-3.264-6.384-3.2-10.032-1.632-3.424 1.472-6.896 1.584-10.496 0.8-3.424-0.736-4.608-1.872-5.008-5.296-0.208-1.68-0.112-3.392 0.048-5.072 0.208-2.208-0.336-3.904-2.592-4.672-2.032-0.688-2.080-2.144-1.12-3.6 1.28-1.92 2.832-3.632 4.176-5.52 2.016-2.816 3.936-5.68 5.872-8.528 0.288-0.448 0.464-0.96 0.784-1.408 2.816-3.904 3.664-3.84 5.808 0.384 0.608 1.184 1.2 2.368 2.048 4 1.536-1.136 2.944-1.984 4.16-3.104 17.536-16.32 35.872-31.696 55.344-45.648 3.264-2.352 6.544-4.688 10-6.672 1.968-1.136 4.336-1.584 6.528-2.32 0.112 0.288 0.288 0.576 0.464 0.864z"></path>
<path fill="#fff" d="M390.896 82.72c1.424 0.64 2.928 1.184 4.272 1.984 12.656 7.376 24.992 15.184 35.648 25.392 4.912 4.72 8.592 10.176 11.856 16.064 1.984 3.568 4.128 7.088 6.432 10.48 0.8 1.168 2.32 1.808 3.504 2.704 0.336-0.24 0.672-0.496 1.008-0.736-0.56-1.584-1.024-3.216-1.728-4.736-0.56-1.28-0.976-2.368 0.752-2.976 0.096-0.016 0.176-0.064 0.224-0.128 1.248-1.52 2.368-3.28 4.8-2.544 2.592 0.784 3.952 2.784 5.152 5.088 2.976 5.68 6 11.328 9.2 16.864 1.184 2.032 1.072 3.152-1.2 4.064s-4.288 1.744-6.88 0.608c-1.024-0.448-2.768 0.72-4.192 1.168 0.496 1.072 0.832 2.272 1.52 3.2 0.672 0.896 1.728 1.504 2.944 2.496-7.28 4.928-14.32 9.712-21.68 14.72-1.856-5.808-3.76-11.056-5.232-16.416-4.912-17.936-15.616-32.72-25.952-47.68-6.592-9.536-13.584-18.784-20.384-28.16-0.208-0.272-0.32-0.576-0.464-0.896 0.16-0.208 0.288-0.384 0.4-0.544z"></path>
<path fill="#fff" d="M460.688 257.952c3.216 0.64 6.784 1.408 10.384 2.048 2.464 0.448 4.928 0.8 7.408 1.024s3.792 1.472 4.288 3.952c0.624 3.2 1.408 6.336 2.368 9.44 0.128 0.432 2.128 0.848 2.304 0.576 1.936-2.656 3.952-0.544 5.408 0.24 1.024 0.56 1.808 2.784 1.616 4.080-0.64 3.952-1.744 7.824-2.816 11.68-0.688 2.48-2.208 3.12-4.736 2.32-4.72-1.52-5.472-0.944-6.096 4.048-0.272 2.192-0.832 4.384-1.504 6.496-1.232 3.936-4.112 5.424-8.048 4.048-2.688-0.96-5.264-2.192-7.792-3.488-3.968-2.048-8.016-2.704-12.4-1.408-4.336 1.28-7.408-1.184-7.296-5.744 0.112-4.080 0.32-8.176 0.736-12.24 0.128-1.312 0.976-2.64 1.696-3.824 0.96-1.584 2.16-3.040 3.168-4.624 1.312-2.048 1.088-3.856-0.544-5.824-0.784-0.96-1.12-2.864-0.736-4.048 1.568-5.12 6.88-8.784 12.576-8.8z"></path>
<path fill="#fff" d="M30.336 226.224c-1.616 0.64-2.384 1.168-3.232 1.248-1.248 0.128-2.832 0.384-3.712-0.224-0.72-0.496-1.072-2.416-0.688-3.328 1.248-2.992 0.72-5.888 0.496-8.928-0.224-2.992 0.24-6.032 0.496-9.040 0.128-1.76 1.232-3.12 2.896-2.72 1.2 0.288 2.416 1.584 3.104 2.752 0.512 0.864 0.208 2.24 0.32 4.288 1.12-0.944 2.048-1.36 2.352-2.032 0.944-2.208 1.824-4.464 2.368-6.816 1.008-4.4 4.16-6.336 8.080-6.544 6.704-0.336 13.392 0.16 19.456 3.632 4.016 2.32 4.112 3.616 1.28 7.152-3.888 4.832-3.2 10.256-1.648 15.744 0.832 2.976 1.648 5.984 2.032 9.024 0.432 3.488-1.696 5.792-5.248 5.936-7.92 0.352-15.84 0.64-23.76 0.944-2.88 0.096-4.016-1.168-4.192-4.304-0.128-2.096-0.24-4.176-0.352-6.768z"></path>
<path fill="#fff" d="M479.984 199.488c0.32 6.096-0.832 8.304-6.592 10.432-5.248 1.92-10.72 3.264-16.080 4.848-1.872 0.56-2.88-0.32-3.216-2.144-0.56-3.056-0.944-6.192-1.744-9.184-0.672-2.544-1.824-4.976-2.784-7.456-0.448-1.168-0.896-2.304-1.408-3.44-0.496-1.056-0.848-2.272-1.632-3.088-1.456-1.504-1.696-2.864 0.176-3.904 6.528-3.664 13.040-7.344 19.76-10.656 1.584-0.784 3.952-0.336 5.872 0.048 1.904 0.384 3.6 1.584 5.472 2.048 3.040 0.752 4.736 2.688 5.52 5.568 0.832 3.008 1.68 6.016 2.384 9.040 0.352 1.536-0.016 2.816-1.92 3.168-4.016 0.784-4.016 0.8-3.824 4.72z"></path>
</svg>
