<svg id="SvgjsSvg1001" width="288" height="288" xmlns="http://www.w3.org/2000/svg" version="1.1" xmlns:xlink="http://www.w3.org/1999/xlink" xmlns:svgjs="http://svgjs.com/svgjs"><defs id="SvgjsDefs1002"></defs><g id="SvgjsG1008" transform="matrix(0.916700005531311,0,0,0.916700005531311,11.995190620422363,11.996034622192383)"><svg xmlns="http://www.w3.org/2000/svg" width="288" height="288" viewBox="0 0 32 32"><path d="M4.716 29.879c-3.244-1.144-5.111-4.131-4.644-7.398.513-3.594 3.127-5.928 6.651-5.905 3.874 0 6.885 2.941 6.885 6.745 0 2.801-1.914 5.531-4.481 6.418-1.517.537-3.174.583-4.411.14zM14.191 23.694c0-.724-.093-1.727-.187-2.24l-.187-.957 1.774-.443c.98-.233 1.844-.537 1.914-.653s-.257-.583-.724-1.074l-.84-.84 2.054-.56c1.12-.303 2.544-.724 3.174-.887l1.144-.35-.864-.864c-.467-.467-.84-.91-.84-.98s.653-.14 1.47-.163c.794-.023 3.337-.163 5.625-.28 2.311-.117 4.224-.187 4.294-.14.047.07-1.494.607-3.431 1.237-1.937.607-3.501 1.167-3.501 1.237-.023.07.35.513.794 1.027.443.49.817.934.817.957 0 .047-.7.303-1.564.583-.887.257-2.147.653-2.824.887-.677.21-1.19.443-1.167.537.047.093.677.7 1.424 1.354.794.7 1.237 1.237 1.05 1.284-.163.047-1.657.467-3.337.957-1.657.49-3.711 1.05-4.551 1.284l-1.517.397v-1.307zM10.224 16.763c-.513-.303-1.424-.63-2.03-.7-.63-.093-1.12-.187-1.12-.233s.397-.7.887-1.447c.467-.77 1.657-2.661 2.614-4.201l1.75-2.824.887 1.774.887 1.75 1.494-2.38c.817-1.33 1.587-2.497 1.727-2.637.117-.117.443.187.84.864.35.583.7 1.074.77 1.074.093 0 .35-.28.56-.653 1.027-1.657 3.687-5.508 3.687-5.321 0 .117-.794 2.637-1.774 5.578l-1.797 5.368-.607-1.074c-.327-.607-.653-1.097-.724-1.097s-.84 1.214-1.704 2.684c-.887 1.47-1.634 2.684-1.68 2.684-.07 0-.397-.42-.723-.934-.35-.513-.7-.864-.793-.817-.117.07-.583.793-1.074 1.634s-.957 1.517-1.027 1.494c-.07 0-.537-.28-1.05-.583z" fill="#ffffff" class="color000 svgShape"></path></svg></g></svg>