<!-- Generated by IcoMoon.io -->
<svg version="1.1" xmlns="http://www.w3.org/2000/svg" width="512" height="512" viewBox="0 0 512 512">
<title>factions-death-soulblight-gravelords</title>
<path fill="#fff" d="M109.952 20.496l4.864 20.496-8.336 39.6-18.416 27.088-18.416 26.752v8.688c0 5.216-4.176 16.32-9.376 25.36l-9.728 16.32-5.216-2.080-5.216-1.744 2.080 18.064c1.040 10.080 3.824 22.928 6.256 28.832l4.16 10.416 1.392-6.944c0.688-3.824 2.080-10.768 3.12-15.28l1.744-8.336 18.064 16.672-4.864-26.4 6.944-9.376c7.648-10.768 29.872-24.32 33.696-20.496 1.392 1.392 0.688 8.688-1.744 16.32l-4.176 13.888h-10.416l2.080 7.648c1.392 4.512 4.512 10.080 6.944 12.848l4.864 4.864 10.080-22.224c5.552-12.16 14.24-27.44 19.456-34.032 4.864-6.592 9.024-13.2 9.024-14.944 0-1.392-4.176-4.864-9.376-7.296l-9.024-4.864 18.752-12.512 12.512 3.12c6.944 1.744 13.2 4.864 13.888 7.296 0.688 2.080-6.592 12.848-16.672 23.968-9.728 10.768-21.184 27.088-25.008 35.776l-7.296 15.984-1.392 28.832-1.744 28.832 6.256 25.008c3.12 13.888 8.336 29.52 11.12 35.424 3.12 5.552 9.376 15.632 13.888 21.888l8.688 11.456 6.944-6.944c3.472-4.176 7.984-6.592 9.376-5.552 1.744 0.688 4.864 6.256 7.296 12.16l4.176 10.416h12.512l15.984-18.752 16.32-19.104-2.432-8.688-2.080-9.024h5.552c3.12 0 5.552-0.688 5.552-1.392 0-1.040-4.864-6.592-10.768-12.512l-11.12-10.768 3.12-3.12c1.744-1.392 5.904-3.472 9.376-4.176l5.904-1.040-17.36-24.32 2.080-7.984 2.080-7.648h5.552c3.12 0 9.024 3.472 13.552 7.648l7.984 7.296v-27.792l15.984-23.616 8.336-1.040 8.336-1.392 9.024 12.512v54.88l12.16-10.768c6.944-5.904 13.888-10.768 15.632-10.768 1.392 0 5.216 1.040 8.336 2.080l5.552 2.080v11.12c0 6.256-4.512 28.128-10.416 48.288-5.552 20.496-10.416 39.952-10.416 43.072v6.256l10.416-12.512c5.552-6.944 14.928-14.592 20.848-17.024l10.416-4.176 5.552 4.512 5.904 4.864-2.080 24.32c-1.040 13.2-5.216 35.088-9.728 47.936-4.176 12.848-14.592 35.424-22.928 50.016-8.336 14.928-14.592 28.128-13.888 30.224 1.392 4.176 58.704-48.288 79.888-73.632 9.376-10.768 22.928-30.56 30.56-43.424 7.984-13.2 17.712-34.048 22.224-46.896 10.768-30.912 19.104-72.592 19.104-95.168 0-25.008-5.904-59.056-13.888-81.968-3.824-10.768-13.552-30.912-21.536-45.152-8.336-14.24-14.592-28.48-13.888-31.616l1.040-5.904-27.792-26.752c-14.928-14.592-33.344-29.184-40.288-32.304-6.944-2.784-13.552-4.512-14.592-3.472-1.040 0.688 2.432 7.648 7.296 14.928 4.864 6.944 9.024 16.672 9.024 20.848 0 4.512-3.12 11.12-6.592 14.592-3.824 3.824-12.848 8.336-20.144 10.416s-20.496 3.824-29.52 3.824h-16.32l-28.128 27.44v17.36l6.592 3.824c3.824 1.744 7.648 3.472 8.688 3.472s1.040-4.864 0-10.416l-2.080-10.416h5.552c3.12 0 6.592 2.432 7.648 5.216 1.392 3.12 1.040 14.24-0.352 25.36l-2.432 19.792-13.2 12.512c-7.296 6.944-17.712 13.888-22.928 14.944l-10.080 2.784-6.256-8.336-6.592-7.984 2.432-20.848c1.040-11.456 3.12-23.968 3.824-28.128l1.744-7.296-9.024-10.768-9.376-11.12h-22.928l-1.744 4.176c-1.040 2.432-6.944 7.648-13.2 11.12l-11.808 6.944 9.376-11.12 9.376-11.456-2.080-16.32c-1.040-9.024-2.432-16.672-2.784-17.36s-6.592 6.944-13.552 16.672c-6.944 9.376-13.888 17.36-15.632 17.36-2.080 0-0.352-6.592 3.12-14.944l6.944-14.592v-21.536c0-11.808-1.392-22.224-3.12-23.264s-5.552 7.648-9.024 19.792c-3.12 11.808-8.336 25.36-11.12 30.224l-4.864 8.688 1.744-13.888c1.040-7.648 0.352-20.144-1.392-27.44-3.12-13.888-12.848-30.224-19.456-32.304l-3.824-1.392 5.216 20.496zM102.304 127.472c-1.040 3.12-2.080 6.256-2.080 6.944s-3.12 1.392-6.944 1.392-6.944-1.392-6.944-3.472c0-3.12 10.080-10.080 15.28-10.416 1.392 0 1.744 2.432 0.688 5.552z"></path>
<path fill="#fff" d="M65.136 273.024l-4.16 29.184 4.512 5.552c2.432 2.784 6.256 5.216 9.024 5.216 2.432 0 6.592-3.472 8.688-7.648l4.176-7.296-6.256-27.44c-3.472-14.944-7.648-27.088-9.024-27.088s-4.512 13.2-6.944 29.52z"></path>
<path fill="#fff" d="M270.416 279.968v24.656l-12.512 25.696-12.16 26.048-43.424 41.68-43.072 41.68-5.216 12.848c-2.784 7.296-5.216 16.672-5.216 21.536 0 4.512 3.824 13.2 8.688 18.752l8.688 10.416 17.712 4.176 17.712 4.512 18.416-2.080c10.416-1.040 24.32-4.512 31.616-7.984l12.848-6.256 10.080-15.632 10.416-15.984-2.784-59.744-6.944-11.12-7.296-11.12-12.16 15.984-12.512 15.632 4.864 13.2c2.432 6.944 4.512 16.32 4.864 20.848v8.336l-19.792 19.792-12.512 2.080-12.16 2.432-10.080-4.864-9.728-4.512-1.040-9.376c-0.688-5.216 1.392-13.552 4.176-19.104 3.12-5.216 21.536-26.752 41.328-47.936l36.128-38.208 5.904 4.864c3.12 2.784 6.592 3.824 7.984 2.784 1.040-1.392 0.352-11.808-1.392-23.264s-2.432-20.848-1.744-20.848c1.040 0 4.864 2.784 8.688 5.904l6.944 6.256-2.432-13.888c-3.12-15.632-13.2-46.192-19.104-55.92l-3.472-6.592-0.352 24.32z"></path>
<path fill="#fff" d="M96.048 294.208c-1.392 2.080-3.472 13.888-4.864 26.4l-2.080 22.576 5.904 2.080c3.12 1.392 7.296 1.744 9.024 0.352 4.176-2.432 3.472-24.656-1.744-41.328l-4.176-13.888-2.080 3.824z"></path>
</svg>
