<!-- Generated by IcoMoon.io -->
<svg version="1.1" xmlns="http://www.w3.org/2000/svg" width="512" height="512" viewBox="0 0 512 512">
<title>factions-chaos-nurgle-rotbringers</title>
<path fill="#fff" d="M353.12 484.288c-3.968-4.896-6.656-8.224-10.784-13.296-2.448 3.744-5.552 6.688-6.4 10.16-3.152 13.056-2.864 13.136-15.168 21.104-0.448-4.368-0.064-8.336-1.392-11.648-1.504-3.728-4.496-6.864-6.864-10.24-2.72 3.168-6.304 5.952-7.968 9.616-2.512 5.536-2.72 12.256-5.824 17.296-1.808 2.896-8.032 5.472-11.12 4.496-3.6-1.104-6.432-5.952-8.608-9.744-1.344-2.336 0.176-6.528-1.36-8.496-2.112-2.672-5.872-5.264-9.040-5.424-2.096-0.112-4.8 3.856-6.512 6.48-0.928 1.44-0.288 3.84-0.48 5.792-0.416 3.92 1.28 9.6-5.792 8.8-5.728-0.656-13.424 1.472-14.416-7.888-0.4-3.904 0.592-8.176-0.688-11.664-1.232-3.376-4.608-5.952-7.040-8.864-2.784 2.688-6.928 4.912-7.984 8.16-1.52 4.704-0.8 10.128-1.056 15.728-8.672-0.752-12.064-5.84-13.856-12.416-0.768-2.816-0.176-6.128-1.344-8.688-1.056-2.288-3.456-4.768-5.776-5.408-1.408-0.4-4.32 2.080-5.552 3.952-3.504 5.312-6.512 10.96-10.96 18.64-8.352-16.16-14.048-29.328-12.368-44.208 1.648-14.528-0.416-27.968-8.672-40.272-1.232-1.824-1.856-4.144-2.4-6.336-5.488-21.328-24.592-33.536-45.984-29.072-8.688 1.808-15.808 2.784-20.416-7.984-3.248-7.568-10.512-13.28-14.864-20.528-4.416-7.344-8.32-15.28-10.8-23.44-4.912-16.096-8.784-32.512-12.928-48.816-2.384-9.376-3.792-17.856 5.472-25.712 10.896-9.216 11.76-25.072 6.64-38.608-3.040-8.032-3.664-17.248-3.968-25.984-0.304-8.432 0.64-17.008 2-25.36 3.328-20.528 3.088-42.976 11.824-60.992 13.168-27.12 28.064-55.392 55.408-71.712 15.152-9.024 32.528-15.040 49.6-19.92 38.368-10.944 77.488-14.064 117.52-10.224 23.264 2.224 43.6 10.496 63.216 21.584 12.88 7.28 25.952 14.912 36.912 24.656 9.776 8.688 18.080 19.744 24.56 31.152 5.472 9.616 8.064 21.104 10.672 32.064 5.472 23.184 12.416 46.352 14.448 69.888 1.984 23.216-1.616 46.88-2.32 70.368-0.592 19.648-0.64 39.296-0.832 58.944-0.016 1.936-0.112 4.432 0.944 5.76 8.96 11.12 1.824 19.872-4.72 27.744-13.568 16.272-27.328 32.608-47.12 41.872-2.96 1.392-7.216 2.16-10.128 1.152-13.872-4.8-18.208-3.456-21.904 11.232-3.28 13.12-4.768 26.72-6.544 40.176-0.976 7.424-0.4 15.088-1.472 22.496-1.040 6.992-3.344 13.856-5.824 23.632zM185.92 223.616c13.312-8.048 13.312-8.048 17.952 6.192 6.464 19.824 30.8 37.888 51.472 38.144 27.44 0.352 53.952-17.552 63.088-42.976 1.792-5.008 2.256-10.512 3.28-15.728 13.296 2.096 21.728 8.096 19.664 14.736-2.384 7.712 2.096 8.88 6.992 9.616 9.056 1.328 18.208 2.4 27.344 2.64 17.6 0.464 18.416-0.128 12.112-16.144-4.384-11.152-11.408-21.296-17.152-31.76-14.464 6.64-16.656 5.552-30.416-14.416 40.336-16.512 56.96-45.536 32.176-83.888-20.592-31.872-51.872-29.264-83.040-8.592 0-6.368-2-12.896 0.368-15.616 8.032-9.216 4.192-17.36 0.368-26.192-2.576-5.952-4.304-12.288-6.928-18.24-1.008-2.336-3.216-5.408-5.2-5.664-1.936-0.272-5.232 2.176-6.288 4.272-4.080 8.048-6.88 16.8-11.376 24.56-4.032 7.008-5.472 12.24 0.512 19.312 2.16 2.56-0.768 9.392-1.392 14.288-3.68-1.456-8.464-1.904-10.896-4.496-15.296-16.432-47.712-22.896-68.048-13.184-12.144 5.792-19.52 15.856-25.12 27.504-6.72 13.984-6.4 29.264-1.28 42.672 6.48 17.008 18.672 30.32 38.064 34.816 2.688 0.624 6.4 4.448 6.592 7.008 0.64 8.816-20.752 24.768-29.696 22.56-5.584-1.36-9.568-0.544-11.824 5.296-4.896 12.752-10.144 25.36-14.864 38.144-2.32 6.288-0.704 10.768 7.184 9.056 8.96-1.936 17.952-3.888 26.592-6.816 7.872-2.688 14.096-7.408 9.744-17.136zM171.664 340.576c16.736-0.16 36.304-4.192 51.584-19.552 3.088-3.104 6.976-8.464 6.192-11.776-2.288-9.776-8.24-17.376-18.56-21.088-10.976-3.92-21.632-8.752-32.416-13.216-12.288-5.072-24.192-11.424-36.896-14.928-14-3.856-26.304-2.608-36.016 10.144-8.96 11.76-6.176 22.432 2.32 32.88 1.008 1.232 1.36 2.976 2.224 4.336 13.184 21.456 30.736 35.392 61.568 33.184zM387.232 259.376c-11.088 1.44-19.76 1.648-27.888 3.792-17.008 4.448-33.712 10.080-50.624 14.864-8.4 2.384-16.512 10.56-15.296 17.968 4.24 25.872 20.64 43.952 48.784 41.52 8.4-0.72 16.544-4.944 24.896-5.344 21.968-1.040 34.928-13.888 45.376-31.248 6.592-10.944 5.6-29.488-4.608-36.336-6.176-4.096-15.168-3.968-20.624-5.232zM301.504 408.224c-0.544-0.64-1.104-1.264-1.648-1.904-0.24-1.936 0-4.096-0.768-5.792-9.632-21.12-11.184-45.472-25.632-64.608-2.048-2.72-5.664-5.968-8.496-5.888-2.912 0.096-6.432 3.424-8.416 6.24-13.040 18.56-13.936 41.52-21.856 61.984-2.928 7.584-2.352 13.856 6.080 17.92 8.816 4.256 15.76 0.832 20.576-5.712 5.024-6.864 7.184-9.024 11.232 0.64 2.864 6.864 10.032 10.256 17.024 7.744 4.672-1.696 8-6.992 11.904-10.624z"></path>
<path fill="#fff" d="M355.44 120.192c-0.24 15.104-16.096 28.96-33.472 29.264-10.384 0.176-22.624-12.928-22.448-24.080 0.288-18.784 13.232-33.824 29.376-33.168 14.528 0.592 28.496 13.92 26.544 27.984z"></path>
<path fill="#fff" d="M235.456 115.568c0 14.112-9.616 22.080-26.992 22.4-11.776 0.24-24.56-13.12-24.592-25.728-0.048-15.168 12.080-27.632 26.944-27.648 13.664 0 24.656 13.776 24.624 30.976z"></path>
<path fill="#fff" d="M263.792 184.736c14.8-1.904 21.584 6.768 22.688 22.64 1.104 15.84-10.864 28.048-25.712 28.224-12.72 0.16-24.736-12.608-25.008-26.64-0.304-16.72 8.208-24.096 28.032-24.24z"></path>
</svg>
