<!-- Generated by IcoMoon.io -->
<svg version="1.1" xmlns="http://www.w3.org/2000/svg" width="512" height="512" viewBox="0 0 512 512">
<title>factions-order-sylvaneth-alternative</title>
<path fill="#fff" d="M218.304 475.872c0-10.608 3.264-20.4 8.976-27.744 13.872-17.536 6.528-24.064-28.96-25.696-27.328-1.216-29.36-1.632-35.072-13.056-3.264-6.528-6.112-17.136-6.112-23.248v-11.424h-33.44c-42.832-0.416-66.896-10.192-97.488-41.2-11.824-11.824-19.984-22.032-17.952-22.032 1.632 0 6.928 3.264 11.424 7.344 7.344 6.528 7.344 6.112-0.816-7.344-4.48-7.744-11.424-27.744-15.088-44.048-7.744-35.072-3.664-59.152 13.872-76.272 23.248-23.248 42.832-5.712 55.072 50.176 2.848 13.056-2.032 11.008-12.24-5.296-5.296-7.744-12.64-15.904-17.136-18.352-18.768-9.792-22.032 35.072-4.896 68.112 13.056 25.696 61.184 66.080 51.392 43.232-1.632-4.080-4.080-18.352-4.896-31.808l-1.632-24.48 11.824 24.88c14.272 29.776 25.296 38.336 48.944 38.336 18.352 0 19.168-0.816 22.848-24.88 2.448-13.872 1.632-15.088-17.536-27.328-23.664-15.504-46.912-47.728-55.888-77.904-9.376-31.408-6.528-81.584 4.896-97.072 9.376-12.24 30.592-17.536 39.968-9.792 7.344 6.112 19.984 49.36 17.952 61.584-1.216 9.792-1.632 9.376-8.56-4.080-12.64-25.296-18.352-30.992-26.512-26.112-11.008 6.928-15.504 30.992-8.976 51.392 7.344 22.848 12.24 28.144 12.64 13.056 0-10.608 1.232-9.376 10.192 10.608 11.424 25.296 22.848 38.752 39.968 47.728 11.008 5.712 12.24 5.712 15.904-1.216 2.448-4.080 8.56-11.824 13.872-17.136l9.376-9.376-8.16-8.56c-18.352-19.984-36.704-74.64-36.704-109.312 0-37.936 18.352-81.984 36.304-87.696 11.824-3.664 28.544 4.896 33.44 17.136 5.712 15.088 5.712 66.080 0 71.792-3.264 3.264-4.48 1.232-4.896-7.344-0.4-21.216-3.664-32.624-11.824-40.784-8.16-7.744-8.16-7.744-16.72 0.816-6.528 6.112-8.976 15.504-10.608 35.488-1.632 18.768-0.816 26.928 2.448 26.928 2.448 0 4.48-2.848 4.48-6.112s2.032-6.112 4.080-6.112c2.448 0 4.080 8.56 4.48 19.584 0 19.168 8.16 44.464 20.4 62.4 6.528 9.792 6.928 9.792 15.504 2.032s8.976-7.744 20.8 3.664c10.608 10.192 11.424 10.192 9.376 2.448-1.216-4.896-0.416-8.56 2.032-8.56 5.712 0 21.216-49.76 21.216-67.712 0-13.872 7.744-20.4 8.56-6.528 0 4.896 1.216 4.080 4.080-3.264 7.744-19.168-4.48-61.184-18.352-61.184-6.528 0-13.872 15.504-17.136 36.704-3.664 22.848-8.56 20.4-11.824-6.112-8.16-64.032 38.752-90.96 62.4-35.488 13.872 32.624 15.904 70.56 4.896 106.864-8.56 29.776-27.328 65.264-33.856 65.264-2.032 0 2.448 8.16 9.792 18.352s13.872 18.352 14.688 18.352c0.816 0 6.928-2.848 13.456-6.112 14.272-7.344 29.36-26.512 40.384-50.992 5.712-13.456 8.16-15.904 8.16-8.976 0.416 14.272 6.928 10.608 12.24-7.744 5.712-19.168 2.848-45.68-6.112-53.024-7.744-6.528-20.4 4.896-30.592 26.928l-7.344 16.32v-16.32c-0.416-16.32 5.296-36.704 15.088-53.84 10.608-18.768 39.968-8.56 49.76 17.536 6.112 15.504 4.896 62.816-2.032 85.248-8.16 28.144-32.624 61.184-55.472 76.272-19.168 12.24-19.984 13.456-17.536 27.328 3.664 23.248 3.664 23.248 23.664 24.48 16.72 0.816 20.8-0.816 30.992-11.824 6.528-6.928 13.872-19.168 16.72-27.744 2.448-8.16 6.112-16.72 8.16-18.768 4.896-5.712 4.48 35.072-0.416 48.128-6.112 17.136 2.448 13.056 28.56-13.056 20.4-20.4 24.064-26.928 28.56-46.912 6.112-30.176 2.448-48.544-9.376-46.912-4.896 0.816-13.056 7.744-18.352 15.504-13.456 20.4-16.72 19.584-12.24-2.448 4.896-23.248 17.536-45.28 27.744-48.544 19.168-6.112 44.864 26.928 44.864 57.92 0 15.088-13.872 59.952-22.848 73.824l-6.928 11.008 8.976-7.744c4.48-4.48 9.792-6.928 11.008-5.296 4.080 4.080-33.856 37.52-56.704 50.176-18.768 10.192-25.296 11.824-56.704 11.824h-35.888v14.688c0 8.56-3.264 19.168-7.744 24.48-6.528 8.16-11.424 9.376-35.072 9.792-33.856 0-41.2 6.928-27.328 24.48 6.112 7.344 8.976 17.136 8.976 28.144v16.72l-10.608-15.504c-11.424-17.136-15.904-16.72-19.984 1.216-3.264 15.504-8.16 15.504-12.64-0.416-4.896-16.72-9.792-16.72-20.8 0l-9.376 13.872v-16.32zM234.624 401.232c0-2.032-7.344-8.56-16.32-14.272s-17.136-14.688-18.768-20.4c-2.032-8.56-3.664-9.376-10.608-5.712-6.112 3.264-7.344 7.744-6.528 19.168 1.216 15.088 1.216 15.088 21.616 16.32 11.424 0.816 22.032 2.848 24.48 5.296 4.896 4.896 6.112 4.48 6.112-0.416zM306 397.552c19.984-2.448 20.4-2.848 21.616-17.536 0.816-11.424-0.416-15.904-6.528-19.168-6.928-3.664-8.56-2.848-10.608 5.712-1.632 5.712-9.792 14.688-18.352 20.4-17.952 11.008-27.328 22.032-14.272 16.32 4.080-1.632 17.136-4.48 28.144-5.712zM239.104 366.144c-4.48-6.112-8.56-16.72-8.56-23.664-0.4-11.824-0.4-12.24-6.112-4.896-9.792 12.64-6.928 24.064 7.344 33.44 16.32 10.608 18.352 9.376 7.344-4.896zM291.728 353.92c0-4.896-2.848-11.008-6.112-13.872-5.296-4.080-6.112-3.664-6.112 4.896 0 5.712-3.664 15.088-8.16 20.8-11.424 14.688-10.192 15.904 6.112 5.712 8.56-5.712 13.872-12.24 14.272-17.536zM205.664 317.616c17.136-8.56 22.848-26.512 8.976-26.512-8.56 0-24.88 17.952-24.88 26.928 0 7.344 1.632 6.928 15.904-0.416zM320.272 321.696c0-13.872-24.48-36.304-31.408-28.96-4.48 4.48 6.928 22.848 15.904 26.928 11.008 4.48 15.504 4.896 15.504 2.032zM267.248 246.224c-10.608-14.688-11.008-14.688-23.248-3.264-13.872 12.64-11.824 15.504 11.424 15.504h20.4l-8.56-12.24zM275.408 240.528c0-1.216-2.032-3.264-4.896-4.896s-3.264-1.216-1.632 1.632c2.848 4.896 6.528 6.528 6.528 3.264zM271.328 228.288c0-1.216-2.032-3.264-4.896-4.896s-3.264-1.216-1.632 1.632c2.848 4.896 6.528 6.528 6.528 3.264z"></path>
</svg>
