<!-- Generated by IcoMoon.io -->
<svg version="1.1" xmlns="http://www.w3.org/2000/svg" width="512" height="512" viewBox="0 0 512 512">
<title>factions-destruction-kruleboyz</title>
<path fill="#fff" d="M384.208 157.424c-2.496 2.8-6.176 5.184-9.776 6.224-6.352 1.856-13.040 2.56-19.040 3.616-3.84-0.816-7.28-0.816-9.024-4.544-0.4-0.88-2.032-1.52-3.152-1.744-3.488-0.64-5.296-3.2-3.952-6.464 1.216-2.976 2.848-5.408 5.936-7.28 9.952-5.888 19.856-11.872 25.44-22.768 1.52-3.024 4.896-3.792 7.856-2.272 3.44 1.856 6.816 4.080 9.664 6.752 1.344 1.216 1.392 3.904 1.744 6 0.24 1.52-0.288 3.2-0.064 4.768 0.992 6.864-1.344 12.816-5.648 17.696zM384.208 349.376c-1.216 1.28-0.464 4.48-0.64 6.816-0.576 6.816-4.768 11.056-10.304 14.096-1.456 0.816-4.080 0.928-5.296 0.112-4.368-2.912-8.736-5.472-9.84-11.696-2.448-13.744-6.4-27.136-13.28-39.36-2.032-3.552-5.472-6.352-8.384-9.376-0.64-0.576-2.448-0.88-2.976-0.4-0.816 0.64-1.28 2.096-1.28 3.2 0 8.912 0.352 17.808 0.288 26.72-0.064 8.272 0.112 16.368-3.616 24.4-3.152 6.752-3.728 14.608-5.76 21.888-1.344 4.72-2.912 9.488-5.12 13.856-2.032 4.128-7.344 5.296-12.512 3.552-4.080-1.392-5.536-4.128-5.408-9.376 0.176-5.76 0.816-11.296 3.376-16.592 2.336-4.832 0.528-9.904-0.352-14.736-1.28-7.216-2.976-14.384-4.432-21.6-0.176-0.704-0.24-1.456-0.288-2.096-3.552-0.752-4.832 1.456-4.896 4.080-0.112 5.584-0.464 10.88-4.128 15.6-1.344 1.744-1.168 4.592-2.16 6.752-1.28 2.736-2.976 5.296-4.544 7.92-0.576 1.056-1.744 2.096-1.744 3.152 0 6.112-3.488 10.544-6.4 15.424-1.52 2.56-3.264 4.080-5.936 3.904-1.568-0.112-4.080-1.104-4.544-2.272-3.376-8.848-6.752-17.696-9.376-26.72-2.336-7.968-3.952-16.192-8.032-23.632-0.288-0.528 0-1.344 0-2.032-0.4-0.064-0.752-0.112-1.168-0.24-0.88 3.552-1.92 7.040-2.56 10.592-1.92 10.944-3.152 22.064-5.824 32.832-1.104 4.592-0.176 8.736-0.4 13.104-0.352 6.048-3.312 9.6-8.208 9.488-5.584-0.112-9.136-4.016-9.136-10.016 0-3.312 0.992-6.928-0.064-9.776-2.624-7.104-6.4-13.68-9.312-20.672-1.856-4.432-3.024-9.2-4.592-13.744-1.344-4.016-2.848-7.968-4.256-12-0.464-1.216-0.752-2.496-1.104-3.728-0.464-0.112-0.928-0.176-1.392-0.288-1.696 5.008-3.488 10.016-4.896 15.136-0.752 2.848-0.752 5.888-1.168 8.848-0.112 0.928-0.176 2.272-0.816 2.736-3.312 2.672-2.624 6.4-3.152 9.904-0.528 3.152-1.744 6.112-2.624 9.2-0.064 0.24-0.24 0.464-0.4 0.64-3.904 4.192-8.912 0.816-13.328 1.696-0.752 0.112-2.16-2.672-3.088-4.256-3.616-6.176-7.216-12.4-10.656-18.624-3.44-6.288-7.168-12.4-7.104-20.080 0-4.592-0.576-9.312-1.808-13.744-0.88-2.976-2.912-5.888-5.184-8.032-6.528-6.224-7.68-14.384-8.384-22.528-0.352-4.016-1.808-6.4-5.712-8.144-1.056 2.672-1.984 5.408-3.088 8.096-2.848 7.040-5.936 14.096-8.496 21.248-1.056 3.024-1.168 6.528-1.344 9.776-0.24 4.192-0.176 8.32-0.24 12.512 0 0.528 0.176 1.056 0.064 1.52-0.288 1.392-11.12 7.632-12.512 7.504-4.896-0.352-5.712-3.552-6.928-7.68-1.744-5.584-4.192-11.36-2.912-16.832 1.216-5.36 0.88-11.872 6.528-15.776 2.496-1.696 4.48-4.128 6.64-6.352 2.032-2.032 0.816-5.76-1.808-7.168-5.36-2.8-10.080-6.528-12.976-12-1.696-3.2 0.24-10.88 3.152-12.976 0.816-0.576 2.496-1.168 3.024-0.752 4.192 3.088 10.368 0.112 14.144 4.544 0.288 0.4 2.448-0.064 2.976-0.704 1.92-2.448 3.488-5.072 4.656-6.816-3.152-4.832-5.888-9.136-8.672-13.392-1.168-1.696-2.448-3.312-3.728-4.896-1.92-2.384-1.856-4.256 0.4-7.216-0.176-0.288-0.352-0.64-0.576-0.928-1.632-2.736-2.032-5.408 0.88-7.568 2.56-1.856 4.896-1.056 7.68 1.92 6.176 6.576 12.4 13.104 18.864 19.328 1.696 1.632 4.432 2.448 6.816 3.088 3.2 0.816 6.528 1.056 11.12 1.744-1.168-3.264-1.744-6-3.024-8.32-2.496-4.544-3.552-9.664-5.584-14.208-2.272-5.008-1.056-9.6-1.216-14.32-0.112-4.192 5.536-8.672 9.488-7.28 1.744 0.64 4.016 4.016 3.664 5.584-1.216 5.36 1.984 8.96 3.952 12.928 4.432 8.784 8.672 17.76 13.968 25.968 3.664 5.712 8.96 10.368 13.568 15.424 0.288 0.288 1.104 0.064 2.672 0.064-2.448-6.4-5.008-12.336-6.864-18.464-1.28-4.080-1.632-8.496-2.448-12.752-0.176-1.056-0.176-2.448-0.88-3.088-5.584-5.184-2.208-11.648-2.336-17.52 0-0.992 3.616-2.496 5.76-2.912 0.816-0.112 3.088 2.272 3.024 3.44-0.352 5.584 1.456 10.544 3.024 15.776 1.856 6.112 3.44 12.176 6.352 17.936 2.208 4.304 6.528 7.168 7.632 12.048 0.064 0.352 1.28 0.88 1.456 0.752 0.64-0.64 1.52-1.392 1.696-2.272 1.056-4.832 1.984-9.776 2.848-14.672 1.392-7.168 3.088-14.384 3.84-21.6 0.288-3.2 1.392-4.944 4.128-5.472 1.392-0.24 3.904 0.288 4.48 1.344 2.624 4.256 5.12 8.672 6.816 13.328 2.096 5.824 3.264 12.048 5.072 17.984 0.352 1.28 1.568 2.384 2.624 3.264 0.352 0.24 2.336-0.816 2.272-1.104-0.4-3.728 2.336-6.288 3.44-9.376 1.856-5.072 3.952-10.080 6.112-15.024 0.928-2.16 2.384-4.080 3.376-6.176 0.928-2.032 0.752-4.656 4.304-4.304 0.704 0.064 1.568-2.336 2.56-3.44 1.568-1.808 3.088-3.792 5.072-5.12 3.264-2.272 6.288-1.216 6.928 2.672 1.456 8.272 3.792 16.768 3.2 24.976-0.64 9.6 3.2 18.16 4.016 27.424 1.28-3.616 2.496-7.216 3.792-10.832 0.24-0.576 0.4-1.168 0.816-1.632 8.848-9.552 13.104-21.952 20.208-32.544 2.848-4.128 5.072-8.736 8.096-12.688 1.056-1.456 3.664-2.336 5.648-2.384 3.152-0.176 4.48 2.336 2.672 5.008-3.376 5.008-3.2 10.88-4.656 16.368-0.64 2.624-1.344 5.184-2.208 7.744-1.392 4.256-3.088 8.448-4.304 12.752-1.744 6.352-3.2 12.816-4.768 19.216-0.288 1.344-0.464 2.672-0.64 3.616 3.728-2.56 8.096-4.656 11.36-7.92 4.768-4.832 8.784-10.416 13.104-15.712 0.464-0.576 0.64-1.456 1.168-1.92 5.296-4.544 6.992-10.944 8.784-17.232 0.816-3.088 3.84-4.896 6.928-3.84 2.848 0.88 2.096 3.152 1.696 5.472-0.928 6.048-3.616 11.056-7.504 15.84-6.112 7.568-11.696 15.6-17.472 23.456 0.112 0.288 0.288 0.576 0.464 0.928 2.032-0.928 4.304-1.456 6-2.8 3.152-2.384 6.4-3.312 10.368-2.672 5.12 0.816 9.6-0.288 13.28-4.544 1.456-1.696 4.128-2.448 6.4-2.976 1.168-0.288 3.44 0.352 3.792 1.168 0.4 1.056-0.176 3.152-1.104 4.016-2.672 2.672-5.824 4.896-8.672 7.392-1.808 1.568-3.488 3.376-5.12 5.12-3.44 3.664-6.752 7.392-10.128 11.12l-0.928-0.528c0.4 0.992 0.752 1.984 0.928 2.496 6.4 0 12.4-0.112 18.464 0.064 1.632 0 3.264 0.88 4.944 1.104 1.456 0.176 2.976 0.4 4.368 0.064 1.808-0.4 3.44-1.392 5.184-2.032 10.192-3.904 16.24 3.152 16.832 12.224 0.704 11.296 0.464 22.592 0.576 33.936 0 3.44-0.112 6.688-3.024 9.552zM130.88 107.12c2.496-0.4 5.296-0.464 7.68 0.24 1.568 0.4 2.56 3.312 4.016 3.488 3.488 0.528 5.888 2.448 8.272 4.544 3.44 3.024 6.816 6.176 9.952 9.552 2.448 2.736 4.432 5.888 6.816 8.672 1.92 2.208 4.128 4.192 6.176 6.288 3.2 3.152 2.8 6.576-1.456 8.272-3.792 1.52-7.92 2.336-12.288 3.552-5.12-1.696-10.544-2.496-14.912-5.12-4.432-2.56-9.088-6-9.136-12.336 0-0.752-1.104-1.856-1.92-2.16-2.624-0.88-3.616-2.672-3.84-5.296-0.464-5.408-1.168-10.768-1.456-16.192-0.064-1.168 1.216-3.312 2.096-3.488zM213.152 171.104c3.2-0.24 4.256 1.392 4.768 4.304 0.24 1.344 1.744 2.8 3.024 3.664 3.616 2.448 6.752 5.12 7.216 9.904-3.152 0.928-5.12 0.528-6.576-2.8-0.752-1.696-3.44-2.56-5.296-3.616-1.392-0.752-2.976-1.168-4.48-1.744-0.752 1.392-1.456 2.496-2.16 3.664-0.288-0.112-0.64-0.288-0.992-0.4-0.112-2.672-0.288-5.36-0.352-8.032 0-3.088 1.696-4.656 4.832-4.944zM260.256 185.36c1.568-2.496 2.848-5.248 3.84-8.032 1.216-3.264 3.728-4.768 6.688-5.824 2.384-0.816 3.84 0.928 3.552 2.8-0.464 3.152-1.744 6.176-2.976 9.136-0.288 0.816-1.392 1.392-2.208 1.92-2.56 1.632-5.12 3.376-7.856 4.656-1.456 0.704-3.264 0.704-4.944 0.992-0.176-0.464-0.352-0.928-0.464-1.392 1.456-1.392 3.312-2.56 4.368-4.256zM483.584 217.264c0.064-7.504 1.168-15.248-0.4-22.416-1.216-5.472-5.408-10.48-9.088-15.136-5.296-6.688-10.016-13.68-11.936-22.064-1.456-6.528-1.568-13.28-2.208-19.904-0.704-6.992-1.056-14.208-5.888-20.256-3.264-4.128-5.584-8.96-8.144-13.568-0.816-1.456-1.456-3.088-1.92-4.72-2.8-9.664-7.92-17.296-17.472-21.6-4.592-2.032-8.736-5.072-13.040-7.632-4.656-2.8-8.32-7.744-14.912-5.712-0.88 0.288-2.448-0.528-3.312-1.28-3.2-2.976-3.728-12.512-0.928-15.84-3.088-2.448-6.112-4.896-9.2-7.216-0.992-0.752-2.272-1.056-3.152-1.856-4.368-3.904-11.232-4.944-13.392-11.472-0.176-0.464-0.88-0.88-1.344-1.104-3.664-1.808-6.288-5.472-10.768-5.888-1.456-0.112-2.736-1.632-4.016-2.56-3.664-2.624-6.928-6.048-12.176-5.296-0.88 0.112-1.92-0.352-2.8-0.752-4.304-1.92-10.368 0.352-12.288 4.832-1.28 2.848-3.552 4.432-6.464 3.792-2.848-0.64-3.728-3.2-3.088-5.936 0.528-2.384-0.576-3.616-2.448-4.768-3.792-2.272-7.392-4.768-11.056-7.168-0.4-0.24-0.928-0.352-1.392-0.4-4.72-0.4-9.552-0.464-14.208-1.216-3.264-0.528-5.408 0.928-7.68 2.672-2.976 2.208-5.76 4.896-9.088 6.224-5.648 2.336-8.384 6.576-10.192 11.936-0.752 2.336-1.92 4.656-3.312 6.64-1.168 1.632-2.8 3.616-4.544 4.016-5.712 1.344-9.2-2.736-9.136-8.672 0.064-3.312 0.4-7.456-3.84-9.552-1.744-0.816-3.088-2.496-4.656-3.728-1.216-0.928-2.448-1.856-3.792-2.496-2.976-1.344-6.288-2.032-8.96-3.792-2.208-1.392-3.488-1.52-5.536 0-6.688 4.832-14.032 6.176-22 3.904-0.752-0.24-2.208-0.352-2.336-0.064-1.392 3.488-4.944 2.672-7.456 3.952-2.672 1.344-5.008 3.44-7.68 4.592-2.272 0.992-4.832 1.344-7.344 1.456-0.352 0.064-0.88-2.624-1.392-4.432-2.8 0.352-4.128 2.912-4.896 5.648-1.92 6.992-6.688 10.128-13.616 10.592-2.624 0.176-5.184 0.24-7.808 0.528-1.568 0.112-3.264 0.24-4.72 0.88-9.264 4.128-17.12 10.24-24.736 16.768-1.056 0.928-2.624 1.216-3.952 1.744-2.384 0.928-5.008 1.392-7.040 2.8-6.176 4.128-8.56 10.592-9.776 17.52-1.344 7.392-8.144 14.672-15.424 16.656-2.736 0.752-5.76 1.984-7.68 3.904-4.192 4.128-5.008 10.88-10.768 13.92-0.464 0.24-0.704 1.056-0.928 1.632-1.056 2.56-1.856 5.296-3.136 7.808-2.448 4.768-5.296 9.376-7.744 14.144-2.096 4.128-3.952 8.448-5.648 12.752-1.216 3.2-1.984 6.576-3.088 9.776-1.104 3.152-2.8 6.176-3.488 9.376-1.168 5.072 0.752 10.944-4.016 15.136-0.352 0.288-0.24 1.168-0.24 1.808 0.176 9.2 0.112 18.4 0.576 27.6 0.704 13.040 2.448 26.032-1.392 38.896-0.24 0.704 0.064 1.92 0.528 2.336 4.896 4.016 6.176 9.552 6.352 15.424 0.176 4.48 1.104 9.264-2.208 12.976-3.376 3.728-4.192 8.096-4.368 12.752-0.24 7.28 3.904 13.216 6.464 19.504 2.8 6.864 7.632 12.864 7.856 20.72 0.112 4.432 0.4 8.912 0.752 13.392 0.112 0.928 0.464 2.448 1.168 2.736 2.912 1.28 3.024 3.664 2.8 6.176-0.752 7.68-1.632 15.376-2.384 23.056-0.352 3.84-0.064 7.68 2.624 10.88 2.912 3.44 6.4 6.464 8.784 10.192 2.912 4.544 6.64 6.864 11.872 7.344 1.696 0.176 3.376 0.88 5.472 1.456-0.816 3.44-1.856 6.4-2.096 9.44-0.64 9.376 4.592 16.304 10.016 23.12 1.392 1.808 2.736 3.2 5.36 3.264 1.28 0.064 3.024 1.104 3.728 2.208 3.264 5.248 6.048 10.72 9.312 15.952 0.928 1.568 2.56 3.024 4.192 3.792 1.568 0.704 3.664 0.24 5.472 0.64 2.496 0.528 5.936 0.928 6.112 3.904 0.24 5.76 4.192 10.016 7.456 12.752 8.56 7.216 19.040 10.768 30.688 9.376 6.928-0.816 11.296-1.808 11.584 6.528 0.176 5.008 0.176 8.736 7.040 9.84 6.4 1.056 12.576 2.16 18.976 1.456 2.448-0.288 4.944-0.752 7.392-0.704 11.872 0.176 23.808 0.352 35.632 0.992 2.56 0.112 4.944 2.272 7.456 3.376 2.208 1.056 4.432 2.096 6.752 2.912 1.056 0.352 2.272 0.288 3.44 0.352 7.392 0.4 14.96 1.856 22.176 0.928 9.488-1.28 17.872-6.176 25.904-11.584 6.992-4.72 13.792-10.192 23.232-9.664 2.56 0.176 5.296-1.216 7.808-2.336 15.488-6.816 30.912-13.744 46.336-20.672 10.304-4.656 20.608-9.312 30.864-14.208 1.744-0.816 3.312-2.496 4.432-4.128 3.024-4.656 5.824-9.488 8.496-14.384 0.88-1.568 1.456-3.44 1.744-5.248 0.64-4.128 1.216-8.272 1.52-12.464 0.4-6.464 3.44-10.88 9.136-14.032 3.312-1.856 6.816-4.432 8.736-7.568 3.088-5.072 4.944-10.832 7.28-16.304 0.928-2.208 2.16-4.368 2.624-6.64 1.52-7.168 7.808-12.976 14.912-13.504 2.976-0.288 4.944-1.984 5.072-4.896 0.24-6.816 0.288-13.616 0.064-20.384-0.064-1.744-1.216-3.616-2.336-5.072-1.568-2.032-3.84-3.552-5.248-5.712-2.736-4.304-2.032-10.544 1.92-11.824 6.464-2.032 7.968-6.112 7.568-12 0-0.704 0.64-1.456 0.528-2.16-0.176-1.568-0.464-3.152-1.056-4.592-1.456-3.616-4.128-7.040-4.432-10.72-0.528-6.528 0.352-13.104 0.704-19.68 0.24-4.48 3.024-7.104 6.688-9.136 1.168-0.64 2.56-1.216 3.264-2.272 3.616-5.712 4.544-13.152 0.528-18.512-3.264-4.432-2.496-8.848 1.344-12.688 0.64-0.576 1.456-1.392 1.52-2.096z"></path>
</svg>
