<!-- Generated by IcoMoon.io -->
<svg version="1.1" xmlns="http://www.w3.org/2000/svg" width="512" height="512" viewBox="0 0 512 512">
<title>factions-chaos-jade-obelisk</title>
<path fill="#fff" d="M17.456 327.424c-1.68-6.256-3.776-12.272-4.864-18.48-2.704-15.488-5.072-31.040-7.296-46.592-0.48-3.408-0.736-7.392 0.512-10.432 3.712-9.136 15.712-10.752 24.096-4.224 12.896 10.064 26.096 19.728 39.152 29.584 7.776 5.856 15.616 11.648 23.232 17.696 4.448 3.536 8.8 3.168 12.976 0.112 9.664-7.056 19.456-14 28.544-21.744 2.592-2.192 3.824-6.928 4.176-10.608 0.72-7.936 0.368-15.968 0.528-23.952 0.4-18.944 4.176-36.992 13.76-53.6 0.992-1.712 1.296-3.776 2.4-7.136-6.208 0.736-11.28 1.456-16.368 1.936-4.784 0.464-9.664 0.304-14.384 1.184-9.824 1.824-19.52 4.592-29.376 6.208-19.152 3.12-28.96 18.944-42.176 30.112-1.824 1.52-3.76 2.912-6.064 4.688-5.904-12.48-11.232-24.16-11.6-37.584-0.256-9.568-1.616-19.104-2.048-28.688-0.928-19.504 5.744-36.8 16.032-52.928 5.984-9.376 11.312-19.424 18.768-27.456 8.048-8.704 18.016-15.664 27.536-22.912 11.696-8.928 23.376-18.016 35.856-25.76 8.496-5.264 18.096-9.136 27.648-12.208 12.576-4.032 25.52-6.992 38.448-9.76 7.664-1.632 15.568-2.144 23.392-2.96 8.304-0.8 16.608-1.92 24.944-1.92 8.544 0 17.072 1.088 25.584 1.984 3.904 0.416 7.76 1.472 13.456 2.608-6.72 4.96-11.584 8.704-16.56 12.224-5.152 3.648-7.424 9.088-5.392 15.2 1.664 5.008 6.208 5.216 10.688 5.44 4.784 0.272 9.504 1.104 14.256 1.344 8.864 0.416 10.24 7.776 12.512 13.776 3.776 10.032 2.4 20.672-0.224 30.48-2.976 11.072-7.504 21.92-12.8 32.128-6.384 12.272-6.976 12.016 6.464 15.408 21.904 5.52 38.72 18.384 52.704 35.808 8.784 10.96 16.496 22.528 21.328 35.648 2.832 7.776 4.48 16.080 5.888 24.304 1.392 7.968 2.624 16.112 2.448 24.144-0.512 22.736-5.984 44.416-18.72 63.408-6.224 9.296-14.912 16.976-23.6 26.672 13.312 24.32 27.2 50.048 41.44 75.552 7.968 14.24 16.448 28.144 24.88 42.112 2.144 3.536 1.92 6.224-1.008 9.088-3.696 3.6-6.896 7.728-10.816 11.008-2.288 1.92-5.024 2.8-7.264-1.52-4.448-8.624-9.488-17.024-14.784-25.168-3.584-5.488-8.608-10.080-12.064-15.648-7.2-11.632-13.888-23.584-20.56-35.536-2.96-5.28-5.152-11.008-7.936-16.384-0.736-1.424-2.448-2.384-5.056-2.88 1.152 6.592 2.144 13.216 3.504 19.776 1.2 5.792 2.752 11.52 4.24 17.232 2.256 8.608 4.608 17.216 6.944 25.792 1.824 6.64 3.456 13.344 5.584 19.872 1.728 5.28 4.112 10.368 6.16 15.536 0.608 1.504 1.296 3.072 1.456 4.64 0.992 9.44 0.048 10.576-9.504 12.576-2.976 0.624-5.888 1.568-8.784 2.448-2.832 0.88-5.648 1.84-8.96 2.928-12-43.504-23.808-86.4-35.648-129.264-0.848 0-1.712-0.048-2.56-0.064-0.88 2.864-2.416 5.728-2.512 8.624-0.272 9.664-0.608 19.376 0.16 29.008 0.8 10.288 2.864 20.496 4.32 30.736 1.008 7.184 2 14.352 2.912 21.536 0.992 7.792 1.84 15.616 2.8 23.424 0.832 6.768 1.776 13.52 2.512 20.304 0.192 1.616-0.224 3.296-0.432 5.68h-29.968c-0.16-2.656-0.352-4.896-0.432-7.136-0.768-17.36-1.104-34.736-2.416-52.032-1.040-13.616-3.072-27.184-5.104-40.704-1.152-7.664-3.024-15.232-4.848-22.8-0.368-1.568-1.936-2.864-2.96-4.288-0.592 0.16-1.2 0.352-1.808 0.512-2.656 13.152-5.84 26.24-7.84 39.488-2.256 14.976-3.328 30.112-5.216 45.152-1.344 10.64-3.344 21.2-4.64 31.872-0.48 4.064-2.672 5.008-5.904 4.656-7.616-0.8-15.248-1.568-22.736-3.088-1.888-0.4-4.736-3.776-4.528-5.52 0.976-8.512 2.752-16.96 4.384-25.376 0.944-4.848 2.416-9.584 3.28-14.416 1.92-10.736 3.952-21.44 5.328-32.24 1.968-15.44 3.392-30.928 4.944-46.4 0.208-2.128-0.208-4.32-0.32-6.48-0.736-0.208-1.472-0.4-2.192-0.608-7.632 16.48-15.856 32.704-22.736 49.504-4.432 10.784-6.8 22.384-10.288 33.568-2.4 7.68-4.752 15.408-7.776 22.864-2.016 4.992-6.832 3.952-10.336 2.256-6.624-3.136-13.040-6.832-19.2-10.8-8.4-5.392-7.2-7.792-1.552-15.872 11.84-16.944 20.544-35.376 29.104-53.968 6.32-13.728 12.848-27.392 18.848-41.28 0.8-1.872-0.848-4.848-1.504-7.296-0.144-0.48-0.784-0.896-1.264-1.248-10.368-6.944-7.552-8.464-16.448 1.6-8.624 9.744-15.376 20.464-20.176 32.624-2.8 7.056-10.8 9.2-17.904 6.88-12.672-4.176-24.72-10.576-38.464-11.28-2.72-0.144-5.376-1.504-8.512-1.616 11.44 21.296 28.768 36.32 50.304 49.040-8.976 7.040-17.728 14.080-26.784 20.72-1.040 0.768-3.904-0.528-5.728-1.296-14.56-6.096-23.36-18.768-32.976-30.144-8.208-9.712-14.976-20.656-22.176-31.2-5.312-7.76-10.48-15.6-15.248-23.696-1.040-1.776-1.056-5.376 0.064-6.992 3.6-5.104 7.52-10.128 12.112-14.336 6.528-5.984 13.968-1.424 20.544 0.224 13.152 3.328 26 7.84 38.944 12.016 9.088 2.928 18.112 6.064 27.12 9.2 3.136 1.088 4.912 0.512 6.224-2.912 4.576-11.84 9.536-23.52 14.208-35.312 0.736-1.84 0.88-3.952 1.712-8-7.392 2.032-13.408 3.504-19.296 5.376-8.592 2.72-16.976 6.16-25.664 8.464-8.384 2.208-15.184-1.52-21.824-6.768-10.736-8.448-22.032-16.192-33.408-23.776-2.928-1.936-7.056-2.080-12.72-3.6 1.216 6.576 1.616 11.024 2.928 15.2 1.872 5.904-0.064 9.872-6.208 11.6-4.896 1.392-9.696 3.072-15.808 5.024zM247.36 341.408c6.64-1.248 13.344-2.24 19.92-3.76 18.768-4.32 33.712-15.344 48.544-26.992 19.168-15.040 26.096-36.048 29.024-58.528 1.088-8.288-2.384-17.312-4.432-25.824-4.4-18.384-13.008-34.592-29.12-45.12-9.712-6.352-21.248-9.872-31.296-15.824-10.576-6.304-21.872-6-32.624-3.92-14.096 2.72-27.968 7.344-41.472 12.352-10.544 3.92-19.424 10.48-24.8 21.328-4.608 9.28-8.656 18.512-10.080 28.848-1.312 9.552-3.536 19.008-4.4 28.608-0.416 4.592 1.408 9.376 2.144 14.080 0.992 6.512 1.664 13.104 2.976 19.552 0.624 3.072 1.872 6.352 3.776 8.768 6.304 7.92 12.624 15.856 19.68 23.056 14.176 14.512 31.056 23.312 52.128 23.36zM57.632 169.008c0.512 1.36 1.52 4.064 2.544 6.736 1.888-1.776 3.856-3.488 5.648-5.328 7.76-7.984 16.816-14.544 27.552-16.752 13.568-2.816 27.6-3.328 41.376-5.216 9.328-1.296 18.672-2.8 27.808-5.008 16.704-4.032 33.968-6.944 49.68-13.504 16.8-7.008 32.192-17.44 47.952-26.816 10.848-6.464 16.432-17.392 19.040-28.96 2.336-10.336 2.176-15.44-10.384-14.56-3.968 0.272-7.984 0.208-11.984 0.048-8.88-0.352-15.6-4.224-17.056-10.896-1.008-4.64-0.416-9.616-0.64-14.448-0.208-4.032-2.048-8.256-6.064-7.984-8.608 0.576-17.168 2.24-25.632 4.032-9.136 1.936-18.208 4.336-27.2 6.928-9.072 2.624-18.352 4.912-26.864 8.832-20.288 9.328-38.304 22.352-54.16 37.92-10.448 10.272-19.84 21.776-28.528 33.648-10.704 14.608-10.224 32.656-13.104 51.328z"></path>
<path fill="#fff" d="M333.344 102.016c-2.144 8.768 4.704 11.024 8.56 12.672 26.624 11.36 40.96 33.696 54.16 57.552 7.136 12.928 11.6 26.752 14.512 40.912 2.208 10.752 1.984 21.984 3.024 32.992 0.432 4.736 1.808 9.408 1.84 14.128 0.016 3.952-0.944 8-2.048 11.856-7.152 25.2-17.904 48.464-37.664 66.512-2 1.84-4.848 2.864-6.688 4.816-3.296 3.488-5.28 1.264-7.424-1.136-0.4-0.432-0.528-1.136-0.976-1.52-8.864-8-5.952-15.232 0.848-22.896 5.808-6.528 11.28-13.472 15.984-20.832 3.488-5.44 6.928-11.6 7.92-17.84 1.936-12.272 2.496-24.8 3.072-37.264 1.248-26.576-7.36-50.928-21.76-72.224-11.168-16.528-26.288-30.56-46.56-36.8-3.808-1.184-7.424-3.008-11.12-4.576-6.736-2.832-8.784-8.192-5.696-14.544 4.784-9.824 7.872-20.080 9.696-30.992 2.144-12.848 6.256-25.376 9.328-38.096 0.576-2.4 0.72-5.104 0.208-7.504-1.664-7.888 3.008-12.72 8.192-16.96 3.696-3.024 7.968-5.488 12.304-7.472 2.256-1.008 5.536-1.248 7.84-0.432 13.264 4.736 26.72 9.2 39.456 15.136 7.68 3.584 14 9.952 21.28 14.544 11.888 7.52 23.632 15.408 32.128 26.656 9.168 12.16 17.84 24.88 25.104 38.24 8.448 15.536 15.872 31.712 22.272 48.176 4.176 10.752 5.68 22.528 8.416 33.808 6.944 28.768 8.416 58.080 7.136 87.488-0.48 11.12-2.88 22.16-4.432 33.232-0.976 6.944-0.992 14.24-3.2 20.752-3.808 11.168-8.56 22.064-13.68 32.704-12.16 25.312-32.768 43.712-52.448 62.832-4.176 4.064-8.176 8.304-12.272 12.48-5.072-8.416-9.536-16.544-14.704-24.16-3.2-4.704-2-8 1.616-11.152 4.384-3.776 9.072-7.216 13.456-10.976 9.984-8.56 15.184-20.24 20.336-31.92 6.224-14.096 13.040-27.968 18.688-42.304 3.824-9.696 7.088-19.84 8.832-30.096 1.968-11.424 2.928-23.216 2.496-34.752-0.608-15.744-2.816-31.456-4.576-47.136-3.712-33.248-18.976-62.352-33.552-91.584-10.528-21.072-27.136-36.272-48.144-47.024-10.752-5.52-20.864-12.256-31.296-18.352-4.848-2.832-7.040-1.872-8.144 3.376-2.176 10.176-0.064 14.144 8.496 20.448 17.008 12.56 34.224 24.944 50.288 38.624 12.304 10.496 21.024 24.176 26.752 39.552 4.896 13.152 10.8 26 14.624 39.456 3.136 11.024 4.016 22.704 5.6 34.128 1.728 12.528 3.744 25.088 4.448 37.68 0.416 7.52-0.832 15.28-2.448 22.704-1.568 7.248-4 14.448-7.040 21.2-5.12 11.392-9.808 23.312-16.864 33.488-10.368 14.912-22.544 28.56-34.16 42.592-4.224 5.104-6.368 4.528-9.44-1.504-2.448-4.816-4.544-9.984-7.872-14.128-2.8-3.488-1.248-5.52 0.608-7.872 6.112-7.872 12.848-15.328 18.464-23.536 5.984-8.768 11.584-17.904 16.128-27.456 4.224-8.864 7.344-18.352 10.016-27.808 1.824-6.48 2.592-13.424 2.864-20.192 0.464-10.496 1.184-21.136-0.144-31.472-1.632-12.928-3.92-26.080-8.384-38.24-4.896-13.376-12.208-25.984-19.152-38.544-7.088-12.768-18.048-22.336-29.648-30.688-8.864-6.368-19.008-10.976-28.656-16.272-1.888-1.040-4.080-1.568-6.688-2.544z"></path>
<path fill="#fff" d="M157.12 92.72c-5.232 0-10.496 0.16-15.744-0.048-6.624-0.272-10.176-5.024-7.504-10.8 7.344-15.776 18.768-26.608 36.752-29.6 10.64-1.776 21.072-4.912 31.712-6.736 2.016-0.352 6.464 2.416 6.624 4.064 0.928 9.856 0.432 19.664-5.68 28.272-5.024 7.104-12.88 9.808-20.448 12.016-8.24 2.416-17.024 2.96-25.568 4.32-0.064-0.512-0.112-0.992-0.192-1.504zM194.8 65.424c-14.656-2.144-27.6 1.056-39.088 9.856-1.136 0.848-2.496 2.976-2.144 3.824 0.592 1.392 2.592 3.168 3.856 3.072 7.84-0.528 16.032-0.352 23.376-2.72 6.064-1.968 13.392-4.864 14-14.032z"></path>
</svg>
