<!-- Generated by IcoMoon.io -->
<svg version="1.1" xmlns="http://www.w3.org/2000/svg" width="512" height="512" viewBox="0 0 512 512">
<title>factions-chaos-scions-of-the-flame</title>
<path fill="#fff" d="M113.584 266.656c-0.928-0.688-1.504-1.152-2.112-1.552-3.664-2.352-7.68-1.008-9.152 3.040-0.944 2.592-2.336 3.136-3.664 1.072-3.136-4.912-8.496-6.784-12.992-9.68-6.496-4.192-13.568-7.504-20.464-11.040-8.72-4.448-18.32-5.728-27.792-7.312-5.648-0.928-11.376-1.296-17.040-2.048-1.744-0.224-3.456-0.784-5.12-1.392-3.232-1.2-6.464-2.080-9.936-1.088-0.784 0.24-1.696 0.064-3.36 0.064 1.072-1.152 1.552-1.984 2.272-2.416 1.744-1.008 3.504-2.112 5.408-2.72 7.008-2.208 13.968-4.56 21.12-6.208 6.032-1.392 12.336-1.616 18.416-2.832 10.816-2.144 21.824-3.6 31.568-9.616 4.336-2.672 9.456-4.064 14.096-6.288 2.512-1.2 4.944-2.688 7.104-4.432 3.104-2.464 5.904-5.264 9.328-8.384 0.816 2.8 1.664 5.184 2.144 7.632 0.592 2.928 0.832 5.936 1.296 8.88 0.464 2.912 1.664 4.192 4.352 3.408 7.632-2.224 15.184 0.512 22.784-0.096 1.344-0.096 2.656-0.384 3.984-0.608 1.12-0.208 2.208-0.544 3.312-0.64 1.2-0.096 2.432-0.080 3.648 0.048 6.928 0.672 13.328-0.096 17.728-6.496 2.080 3.104 2.832 6.192 2.736 9.632-0.288 9.792-0.64 19.664 2.032 29.2 1.296 4.608 3.072 9.232 5.472 13.36 4.72 8.096 9.984 15.888 15.104 23.744 0.768 1.168 1.888 2.208 3.040 3.040 3.152 2.272 6.496 4.272 9.616 6.576 11.984 8.88 25.504 13.824 40.16 15.92 8.304 1.168 16.528-0.080 24.592-1.696 28.784-5.776 49.872-21.648 62.48-48.368 4.752-10.064 5.664-20.8 6.112-31.68 0.256-6.112 0.992-12.208 1.536-18.704 5.088 5.024 11.2 4.288 17.264 3.824 2.592-0.208 5.168-0.448 7.76-0.528 1.12-0.048 2.384-0.016 3.312 0.464 4.56 2.352 9.472 1.584 14.256 1.744 2.24 0.080 3.12-1.536 3.072-3.728-0.144-5.616-0.048-11.216-0.048-16.784 3.36 2.544 6.208 5.36 9.6 7.168 8.112 4.336 16.432 8.416 25.472 10.592 15.152 3.616 29.312 10.16 44.224 14.496 8.224 2.384 16.624 4.112 24.88 6.32 4.672 1.248 9.248 2.816 13.84 4.352 1.152 0.384 2.144 1.216 3.056 2.288-1.168 0.096-2.352 0.304-3.52 0.256-6.496-0.24-12.256 2.8-18.368 4.144-8.448 1.888-16.928 3.568-25.392 5.344-0.784 0.16-1.6 0.32-2.352 0.544-8.608 2.72-17.216 5.488-25.84 8.144-1.664 0.512-3.456 0.672-5.2 0.768-1.68 0.080-2.272-1.008-1.968-2.576 0.256-1.36 0.672-2.672 0.928-4.016 0.368-1.984-0.624-2.976-2.448-2.144-5.648 2.592-11.216 5.36-16.832 8.080-0.144 0.064-0.304 0.16-0.384 0.304-4.208 7.376-12.8 10.928-16.4 18.992-0.864 1.968-3.824 2.992-5.904 4.512-0.816-7.376-1.536-14.448-2.368-21.536-0.144-1.28-0.672-2.496-0.992-3.744-0.464-1.776-1.68-2.448-3.44-2.352-3.568 0.176-7.12 0.256-10.672 0.544-0.704 0.064-1.584 0.704-2 1.344-0.992 1.456-1.744 3.104-2.64 4.64-1.232 2.144-1.696 4.336-0.736 6.72 0.304 0.736 0.384 1.552 0.672 2.816-2.384 0.32-4.64 0.752-6.928 0.912-2.736 0.176-5.504 0.080-8.24 0.256-0.784 0.064-1.904 0.544-2.192 1.152-0.224 0.48 0.336 1.808 0.928 2.16 3.568 2.272 4.496 5.104 2.352 8.832-0.144 0.24-0.016 0.624-0.016 1.056 1.232 0.064 2.432 0.128 4.096 0.176-1.504 1.84-2.8 3.424-4.064 5.040-1.776 2.272-1.584 2.912 0.944 4.128 0.752 0.368 1.36 1.040 1.968 1.632 1.856 1.84 3.536 3.92 5.584 5.552 1.856 1.456 3.2 2.832 3.664 5.36 0.336 1.92 1.68 3.808 2.992 5.392 10.736 12.96 21.6 25.84 32.336 38.784 1.376 1.664 2.304 3.68 3.376 5.584 0.304 0.544 0.368 1.232 0.544 1.856-0.16 0.128-0.336 0.224-0.512 0.336-0.768-0.528-1.52-1.072-2.288-1.552-7.328-4.752-14.752-9.36-21.952-14.288-4.72-3.232-9.408-6.624-13.6-10.48-6.048-5.584-11.728-11.616-17.408-17.6-2.24-2.368-3.104-0.288-4.352 1.040-1.344-2.224-2.64-4.416-3.984-6.688-5.488 3.536-10.672 6.96-15.936 10.272-0.976 0.608-2.208 0.752-3.312 1.136-2.288 0.768-4.608 1.424-6.816 2.368-3.504 1.52-4.64 1.28-6.512-1.968-0.896-1.536-1.808-2.8-3.92-2.672-0.704 0.048-1.456-0.832-2.208-1.296-3.296 2.576-3.264 5.248 0.464 12.816-2.752 0.624-5.36 1.248-8.016 1.776-1.12 0.224-2.272 0.16-3.376 0.304-1.52 0.208-3.376 0.064-4.4 0.896-0.816 0.672-0.32 2.72-0.912 3.92-1.6 3.36-0.608 6.704-0.208 10.016 0.512 4.208 0.144 8.032-2.928 11.296-0.848 0.896-1.088 2.32-1.776 3.408-0.544 0.848-1.536 1.456-1.984 2.352-0.544 1.056-0.736 2.288-1.248 4.096 3.952-0.944 7.168-1.856 10.464-2.496 2.416-0.448 4.912-0.512 7.376-0.752 0.864-0.080 1.76-0.144 2.608-0.336 3.264-0.816 4.064-0.432 5.328 2.16-2.544 3.744-5.008 7.104-7.152 10.656-0.752 1.232-0.768 2.928-1.040 4.432-0.48 2.688-0.592 5.488-1.392 8.064-2.656 8.32-5.744 16.48-8.336 24.816-3.76 12.112-7.184 24.32-10.832 36.464-0.944 3.152-2.208 6.24-3.344 9.36-0.672 1.856-1.968 2.352-3.84 1.856-3.056-0.768-3.824-0.464-4.592 2.576-0.976 3.792-1.68 7.68-2.24 11.536-0.144 0.912 0.48 2.272 1.216 2.88 0.368 0.304 1.808-0.512 2.656-0.976 1.168-0.624 2.272-1.424 3.968-2.512-0.256 3.728-0.256 6.768-0.736 9.744-1.312 8.368-2.736 16.688-4.288 25.008-0.288 1.504-1.456 2.816-2.208 4.208-0.336-0.064-0.672-0.128-1.008-0.176-0.336-0.992-0.848-1.984-1.008-3.024-1.76-10.528-3.456-21.056-5.136-31.6-0.256-1.6-0.48-3.232-0.368-4.832 0.592-7.408-1.216-14.672-1.392-21.984-0.144-5.856-2.112-10.832-4.336-15.936-1.456-3.344-2.8-6.72-4.368-10-6.656-14.016-10.384-29.024-15.424-43.616-1.856-5.36-3.616-10.736-7.808-15.248 6.928-3.952 12.912 0.768 19.52 1.296-0.16-1.76 0.144-3.648-0.528-5.040-1.728-3.52-1.376-7.072-0.864-10.688 0.832-5.936 1.6-11.856 2.448-18.128-4.336-0.864-8.592-1.728-12.816-2.544-5.248-1.040-10.48-2.048-15.728-3.040-1.088-0.208-1.76-0.544-2.032-1.888-0.224-1.152-1.040-2.528-2-3.12-1.888-1.152-1.632-2.288-0.672-3.792 2.16-3.28 3.92-6.704 3.584-11.344-1.392 0.4-2.848 0.528-3.984 1.216-4.272 2.528-8.72 4.096-13.792 4.064-1.12 0-2.448 0.784-3.344 1.6-3.44 3.184-6.688 6.624-10.16 9.76-1.392 1.248-3.12 2.288-4.88 2.928-3.136 1.152-5.792 2.832-7.776 5.552-0.512 0.704-1.168 1.344-1.888 1.84-10.272 7.344-20.528 14.672-30.8 22.032-0.608 0.432-1.232 0.784-1.856 1.2-0.224-0.208-0.432-0.4-0.64-0.608 0.944-1.504 1.76-3.104 2.88-4.48 3.040-3.792 6.16-7.504 9.312-11.216 3.648-4.272 6.896-8.768 9.024-14.016 1.152-2.848 3.232-4.8 6.128-5.856 4.128-1.472 6.768-4.416 8.688-8.32 1.744-3.536 3.984-6.848 6.080-10.208 0.992-1.6 1.232-2.976 0.592-4.944-1.536-4.672-3.92-8.768-6.48-12.912-5.552-9.072-9.856-18.72-11.696-29.328-0.672-3.792-1.152-4.096-5.024-3.824-10.016 0.688-20.016 1.36-30.048 2.064-0.896 0.064-1.808 0.144-2.64 0.4-1.552 0.512-2.352 1.68-1.52 3.2 1.616 3.2 0.288 6-0.608 9.184zM84.592 228.672c-0.64 2.656 0.864 4.512 3.040 6.080 0.784 0.56 1.664 1.056 2.336 1.744 4.944 4.912 10.688 3.824 15.392-0.256 1.28-1.12 2.608-2.656 2.928-4.208 1.248-5.888-2.688-13.664-8.096-16.352-1.040-0.512-2.352-0.832-3.456-0.688-5.504 0.624-11.952 7.872-12.128 13.712zM386.016 229.264c0.128 8.592 2.992 12.144 9.76 12.080 5.36-0.048 10.272-5.888 10.16-12.144-0.048-2.832-7.248-9.328-10.288-9.28-5.488 0.128-9.696 4.208-9.632 9.328zM357.84 261.904c0.080-0.336 0.16-0.672 0.24-1.008-1.136-1.424-2.272-2.832-3.52-4.416-0.816 0.912-1.664 1.52-1.984 2.352-0.24 0.624 0.048 2.112 0.4 2.208 1.552 0.48 3.232 0.608 4.864 0.864zM242.416 369.504c0.288 0 0.544 0 0.832 0 0.096-0.864 0.48-1.824 0.224-2.544-0.16-0.464-1.28-0.608-1.968-0.896-0.128 0.176-0.256 0.336-0.384 0.528 0.432 0.976 0.848 1.936 1.296 2.912z"></path>
<path fill="#fff" d="M182.72 177.824c2.64 15.968 4.32 32.336 13.808 46.72-1.296 0.24-2.352 0.144-2.896 0.624-0.864 0.752-1.84 1.856-1.92 2.88-0.048 0.56 1.696 1.856 2.544 1.808 3.264-0.288 5.168 1.28 6.688 3.84 0.848 1.456 2.064 2.736 2.832 4.224 1.072 2.080 1.904 4.288 2.992 6.816 3.072-0.816 5.36 1.552 7.568 4.144 0.672 0.784 1.44 1.552 2.288 2.16 13.184 9.456 27.184 17.184 43.328 20.352 6.464 1.28 12.56 0.432 19.024-1.36 12.224-3.408 20.24-12.128 28.832-20.224 3.632-3.424 5.888-7.92 7.312-12.72 2.16-7.456 4.576-14.864 6.128-22.432 2.208-10.672 0.928-21.2-3.808-31.008-4.56-9.456-6.096-19.28-4.256-29.504 0.624-3.504 2.448-6.8 3.68-10.208 0.448-1.232 0.848-2.512 0.976-3.968-3.952 2.368-8.592 3.968-10.752 8.176-2.304 4.48-3.952 9.312-5.584 14.112-2.272 6.624-0.208 13.104 1.088 19.6 1.904 9.52 1.072 18.816-1.008 28.32-2.72 12.336-9.632 21.312-18.992 28.992-1.44 1.168-2.896 2.352-4.256 3.616-8.336 7.872-17.856 10.432-29.248 8.080-9.184-1.888-13.264-7.952-16.128-15.744-0.304-0.832-0.256-1.776-0.544-2.608-3.504-9.968-1.616-19.744 1.040-29.472 1.744-6.4 5.216-11.84 9.76-16.56 10.544-10.976 21.28-21.792 33.28-31.2 9.792-7.68 18.064-16.928 26.272-26.192 6.64-7.488 8.672-16.96 10.912-26.352 1.776-7.424 0.24-14.656-0.304-21.952-0.368-4.8-1.152-9.552-1.824-14.88 2.208 2.112 4.48 3.888 6.256 6.080 4.528 5.472 7.856 11.696 10.272 18.336 4.864 13.456 9.28 27.104 11.392 41.328 1.632 10.976 1.824 21.888-2.752 32.448-0.992 2.272-0.608 5.248-0.464 7.872 0.448 8.976 1.536 17.936 1.504 26.912-0.080 14.432-1.584 28.752-5.632 42.704-3.264 11.28-8.224 22.032-16.32 30.304-12.448 12.72-26.352 23.632-45.264 25.712-13.44 1.472-26.912 2.752-39.984-1.136-17.872-5.296-31.968-15.712-39.936-33.184-3.216-7.040-7.152-13.904-9.28-21.296-3.488-12.112-4.432-24.544-1.984-37.184 1.68-8.912 2.272-18 3.36-26.992z"></path>
<path fill="#fff" d="M236.544 254.544c-2.896-0.864-5.328-2.496-7.312-4.896-0.688-0.832-1.44-1.696-2.336-2.24-6.544-3.888-11.44-9.216-15.744-15.488-9.28-13.456-13.632-29.056-19.968-43.792-2.224-5.2-2.992-11.056-4.224-16.656-0.256-1.168 0.208-2.544 0.448-3.808 1.392-7.152 2.848-14.272 4.256-21.392 1.056-5.312 3.504-10 7.12-13.872 5.952-6.384 12.272-12.448 18.448-18.624 0.288-0.288 0.768-0.336 1.76-0.768-0.48 0.992-0.64 1.44-0.912 1.84-0.592 0.864-1.376 1.648-1.808 2.576-1.136 2.496-1.536 5.248 0.4 7.328 1.808 1.936 4.288 0.784 6.336-0.080 1.536-0.64 2.992-1.616 4.272-2.736 9.904-8.608 19.84-17.168 29.536-25.968 1.632-1.504 3.072-4.128 3.136-6.304 0.256-9.936 0.368-19.904-0.16-29.824-0.4-7.696-3.792-14.56-8.752-20.448-7.152-8.48-11.168-18.48-14.816-28.704-1.344-3.744-0.048-7.168 1.056-10.592 0.288-0.016 0.56-0.064 0.832-0.080 0.752 2.896 1.504 5.792 2.352 9.056 4.032-1.36 6.112 1.52 8.64 3.824 2.192 1.984 4.64 3.84 7.296 5.104 12.128 5.696 22.192 13.744 30.144 24.576 4.112 5.6 8.864 10.736 13.12 16.24 4.784 6.192 7.536 13.152 7.248 21.136-0.048 1.36 0.224 2.736 0.432 4.096 2.64 16.528-2.816 30.688-12.64 43.584-5.936 7.792-13.408 14.032-20.672 20.448-1.504 1.312-3.152 2.576-4.96 3.456-5.216 2.576-9.68 6.112-14.048 9.872-4.176 3.584-8.752 6.704-12.832 10.384-2.464 2.224-4.752 4.912-6.416 7.792-5.008 8.688-10.096 17.344-12.72 27.168-0.896 3.36-1.536 6.784-2.192 10.176-0.704 3.68 0.448 7.072 2.144 10.24 3.28 6.128 6.688 12.208 9.936 18.336 0.672 1.248 0.928 2.72 1.456 4.032 0.32 0.784 0.816 1.536 1.28 2.272 0.448 0.688 0.976 1.344 1.472 2-0.176 0.256-0.4 0.512-0.624 0.736z"></path>
</svg>
