<!-- Generated by IcoMoon.io -->
<svg version="1.1" xmlns="http://www.w3.org/2000/svg" width="512" height="512" viewBox="0 0 512 512">
<title>factions-destruction-gloomspite-gitz</title>
<path fill="#fff" d="M49.296 140.864c0-0.72 0-1.424 0-2.144 2.144-2.72 4.144-5.552 6.464-8.112 13.968-15.504 17.872-35.248 23.040-54.48 0.944-3.504 1.6-7.216 3.36-10.32 2.736-4.832 8.112-4.208 10.624 0.752 3.28 6.512 3.904 13.392 3.504 20.544-0.496 8.736-0.4 17.424 2.736 25.824 1.424 3.84 3.104 7.328 6.304 10.032 2.448 2.048 4.864 4.192 7.104 6.48 3.232 3.28 3.408 7.504 0.512 10.832-2.656 3.056-6.24 4.768-10.032 3.568-3.36-1.040-6.288-0.24-9.376 0.32-2.8 0.512-3.312 1.52-2.032 4.080 2.096 4.128 4.096 8.304 6.48 12.272 1.008 1.664 2.608 3.28 4.352 4.096 2.336 1.12 5.040 1.632 7.648 2 1.040 0.16 2.512-0.448 3.344-1.184 3.952-3.536 6.688-7.728 7.152-13.28 0.24-2.784 1.2-5.52 1.872-8.288 0.56-2.224 1.456-4.384 1.712-6.656 0.4-3.68 1.472-6.928 4.16-9.584 1.712-1.696 3.28-3.536 5.104-5.072 2.384-2.032 3.168-4.432 3.184-7.504 0.112-11.12 0.576-22.256 0.672-33.376 0-1.264-1.232-2.768-2.272-3.792-0.752-0.736-2.112-0.848-3.216-1.232-6.816-2.32-13.68-4.544-20.448-6.976-1.040-0.384-2.4-1.552-2.56-2.56-0.752-4.384 2.736-8.176 7.136-8.464 2.16-0.128 4.592-0.24 6.4-1.296 10.512-6.064 16.16-16.080 20.48-26.864 2.832-7.088 4.832-14.512 7.152-21.792 1.040-3.28 2.944-5.744 5.856-7.648 1.968-1.264 2.896-1.088 3.744 1.088 2.4 6.24 2.688 12.656 1.856 19.2-0.608 4.56-1.712 9.12-0.32 13.776 0.736 2.448 1.136 5.008 1.744 7.504 1.152 4.752 1.888 9.76 7.504 11.712 0.848 0.288 1.776 1.136 2.096 1.968 1.552 3.952 4.752 5.952 8.288 7.84 5.104 2.736 5.264 8.272 0.528 11.536-1.008 0.688-2.16 1.232-3.312 1.664-5.392 2.032-10.944 3.072-16.736 2.608-1.52-0.112-3.024 0-4.544 0.016-1.936 0.016-2.72 0.944-2.368 2.896 0.896 4.816 1.632 9.648 2.592 14.432 0.896 4.528 3.568 5.92 7.568 3.648 3.072-1.744 5.84-4.032 8.592-6.288 5.152-4.208 10.544-6.8 17.328-3.968 2.992 1.232 4.272 0.384 4.976-2.8 1.776-8.352 3.504-16.704 5.232-25.088 0.352-1.712-0.16-2.832-2.096-2.88-6.080-0.16-11.088-2.96-15.872-6.352-2.8-1.984-2.624-5.456 0.448-7.040 2.288-1.184 4.64-2.32 7.088-3.104 8.496-2.72 13.232-9.024 16.816-16.688 3.936-8.448 8.112-16.8 12.16-25.2 0.832-1.712 2.272-1.808 3.872-1.36 1.632 0.448 3.072 1.088 2.896 3.216-0.208 2.384-0.352 4.784-0.64 7.168-1.152 9.36-1.008 18.464 2.336 27.6 2.208 6.032 5.568 10.4 11.088 13.28 1.648 0.848 2.592 2.080 2.144 3.84-0.672 2.72-1.36 5.52-2.544 8.048-1.776 3.792-3.408 4.352-7.568 3.408-1.744-0.384-3.472-0.784-5.232-1.072-3.232-0.56-4.24 0.128-4.88 3.28-0.496 2.448-1.024 4.88-1.488 7.328-1.136 5.888-2.112 11.696 0.752 17.488 1.552 3.168 6.304 5.152 8.576 2.768 6.352-6.656 13.808-12.304 15.888-22.416 2.432-11.936 10.224-19.008 22.72-20.32 4.768-0.496 9.52-1.36 14.288-1.52 3.872-0.112 7.776 0.576 11.68 0.928 3.456 0.304 6.88 0.736 10.336 0.896 2.096 0.096 4.192-0.288 6.288-0.4 1.488-0.096 3.008-0.272 4.48-0.064 5.968 0.832 11.904 2.272 17.92 2.608 10.288 0.576 19.936 3.92 29.52 6.976 10.112 3.232 19.712 8.16 29.456 12.544 3.056 1.376 5.856 3.312 8.688 5.152 0.672 0.416 0.928 1.408 1.52 2.032 1.040 1.184 2.032 2.496 3.296 3.408 1.712 1.2 3.904 1.808 5.504 3.136 3.76 3.12 7.328 6.512 10.944 9.824 7.136 6.512 11.536 14.864 15.456 23.456 0.832 1.808 0.272 4.272 0.24 6.432-0.016 1.456-0.56 3.008-0.224 4.352 1.264 4.896 2.768 9.744 4.24 14.592 0.56 1.856 0.672 3.504-1.136 4.752-1.776 1.248-3.568 1.888-5.664 0.608-4.304-2.656-8.64-5.264-13.040-7.792-10.736-6.24-22.144-10.736-34.56-11.76-8.128-0.672-16.384-0.56-24.528-0.176-14.016 0.64-27.68 3.84-41.056 7.76-8.384 2.448-16.016 6.864-22.768 12.56-4.096 3.424-8.128 6.944-12.208 10.4-4.944 4.192-9.040 9.072-12.192 14.752-6.432 11.696-12.896 23.376-19.36 35.040-0.736 1.312-1.488 2.624-2.208 3.968-1.040 1.968-0.672 3.536 0.672 5.376 1.296 1.776 2.336 4.016 2.72 6.176 0.832 4.88 0.016 9.536-2.96 13.744-0.72 1.024-1.12 2.832-0.688 3.92 0.24 0.672 2.272 0.752 3.52 0.976 3.136 0.56 6.688 0.288 9.328 1.712 6.912 3.68 13.856 7.104 19.536 13.104 11.712 12.384 20.784 26.16 26.096 42.384 0.72 2.16 1.248 4.48 1.296 6.752 0.096 3.344-2.16 5.328-5.040 6.544-2.704 1.152-4.752 0.128-7.024-1.632-2.88-2.256-6.144-4.208-9.552-5.568-3.856-1.536-8.016-2.272-12.080-3.296-9.712-2.432-18.784-1.648-27.136 4.592-5.968 4.464-11.36 9.44-16 15.264-2.384 2.992-2.272 3.984-0.096 7.056 3.056 4.272 6.128 8.528 8.976 12.944 2.72 4.24 4.704 5.008 9.76 4.496 3.472-0.352 7.568-1.664 9.872 2.768 0.128 0.272 0.56 0.448 0.864 0.576 1.92 0.912 2.512 2.544 2.112 4.464-0.56 2.672-1.152 5.376-2.080 7.952-1.088 3.136-0.64 3.968 2.768 4.080 2.048 0.064 4.128-0.016 6.128 0.352 2.16 0.416 4.592 0.8 6.256 2.080 8.752 6.544 17.36 13.328 25.904 20.144 2.544 2 4.368 2.272 6.928 0.32 0.72-0.528 1.36-1.152 1.984-1.776 6.128-6.24 13.328-10.96 21.184-14.704 0.848-0.4 1.936-0.784 2.768-0.576 4.704 1.152 9.776 0.976 14.016 3.92 0.832 0.576 2.032 0.96 3.024 0.912 1.088-0.048 2.256-0.512 3.232-1.072 1.488-0.832 2.736-2.32 4.32-2.784 4.496-1.344 9.12-2.368 13.696-3.408 4.48-1.024 9.264-1.2 13.44-2.944 16.528-6.88 30.032-17.84 39.808-32.848 10.288-15.76 19.072-32.336 24.592-50.448 0.272-0.864 0.72-1.696 1.072-2.544 0.272 0 0.512-0.016 0.784-0.016 0.864 2.176 2 4.32 2.512 6.592 1.072 4.672 1.6 9.488 2.736 14.144 1.888 7.84 2.080 15.68 0.464 23.568-1.472 7.248-2.992 14.464-4.656 21.632-1.488 6.4-3.12 12.752-4.864 19.088-1.696 6.176-3.648 12.272-5.376 18.448-1.088 3.904-1.376 8.16-3.072 11.76-8.352 17.76-17.92 34.848-30.576 49.968-11.248 13.456-24.288 24.928-40.064 32.752-12.256 6.080-25.2 10.576-38.464 14.256-17.952 4.992-36.048 9.040-54.592 11.136-4.496 0.512-9.024 0.896-13.52 1.344-6.592 0-13.184 0-19.792 0-4.416-1.008-8.848-1.984-13.264-3.008-7.088-1.648-14.24-3.104-21.232-5.056-8.048-2.272-16.176-4.464-23.84-7.68-10.672-4.48-21.072-9.712-31.408-14.976-9.072-4.608-17.696-10-24.88-17.36-5.408-5.552-10.96-10.976-16.080-16.784-3.84-4.32-7.536-8.864-10.496-13.792-10.848-17.984-19.168-37.12-25.104-57.28-0.288-1.008-0.624-2.176-1.36-2.832-4.384-3.856-5.888-9.024-6.64-14.48-1.136-8.288-2.032-16.624-3.184-24.912-0.864-6.176-3.568-11.232-9.136-14.64-4.384-2.704-5.696-7.664-3.248-12.208 5.504-10.224 7.888-21.456 10.944-32.512 0.272-0.928 0.288-1.936 0.384-2.912 0.896-10.976 0.128-21.696-4.992-31.744-1.872-3.68-1.552-7.328 0.304-11.024 0.8-1.6 1.232-3.536 1.312-5.344 0.16-3.392 0.288-3.856 3.728-4.192 6.544-0.624 12.096-3.392 17.088-7.504 0.96-0.8 1.984-1.52 2.96-2.288 5.216-4.080 8.576-9.408 10.384-15.728 0.56-1.984-0.064-3.28-1.968-4.384-3.52-2.080-6.928-4.368-10.256-6.752-0.912-0.672-2.096-1.968-2-2.88 0.4-4.672-2.080-8.16-4.256-11.808-2.608-4.368-4.992-8.848-5.408-14.064-0.384-4.592-2.56-6.768-7.168-6.928-1.824-0.048-3.984-0.064-5.488 0.8-4.832 2.88-7.76-0.112-10.688-3.072-1.088-1.008-1.632-2.496-2.384-3.76zM224.288 356.704c-0.24 0.096-0.496 0.208-0.752 0.288-0.832-1.072-1.856-2.048-2.448-3.248-2.736-5.296-5.12-10.768-8.112-15.904-1.36-2.368-3.536-4.432-5.776-6.112-3.904-2.896-8.112-5.376-12.192-8.016-2.384-1.536-4.656-3.312-7.2-4.56-5.744-2.8-11.632-5.344-17.472-8-4.56-2.080-9.376-2.736-14.32-2.384-2.656 0.208-5.12 2.176-5.184 4.208-0.096 2.784 2.256 3.024 4.128 3.744 0.336 0.128 0.688 0.16 1.024 0.272 6.256 1.856 11.616 5.184 16.352 9.696 9.552 9.072 16.784 19.808 22.816 31.392 1.808 3.472 3.504 7.024 4.992 10.624 1.52 3.68-0.464 6.016-4.368 5.28-1.12-0.208-2.272-0.608-3.248-1.184-6-3.504-12.432-4.704-19.248-3.92-1.040 0.112-2.592 0.464-2.912 1.152-0.352 0.784 0.24 2.16 0.72 3.136 0.4 0.848 1.2 1.536 1.856 2.272 3.616 4.080 7.216 8.128 10.8 12.208 1.344 1.52 2.208 3.232 0.912 5.056-1.552 2.208-1.808 5.68-5.952 5.488-5.92-0.288-11.904-0.096-17.824-0.048-2.384 0.016-4.16 0.96-4.528 3.584-0.352 2.448 1.088 3.568 3.056 4.704 2.96 1.712 5.792 3.744 8.496 5.856 3.312 2.608 3.856 5.776 1.664 9.584-2.048 3.616-1.424 7.424 0.208 11.056 0.912 2.032 4.928 3.68 6.624 2.88 1.456-0.688 2.208-3.92 1.072-6.112-1.696-3.232-0.896-5.92 0.944-8.736 1.872-2.896 3.504-5.968 5.232-8.928 0.8-1.376 1.6-2.768 2.544-4.048 4.592-6.32 9.44-12.48 13.792-18.96 4.304-6.464 9.776-11.808 15.568-16.784 2.592-2.208 6.192-3.312 9.44-4.656 4.48-1.872 9.2-3.232 13.584-5.296 4.080-1.936 4.832-5.68 2.48-9.6-2.48-4.096-4.864-8.288-7.616-12.208-1.936-2.72-4.272-5.264-6.816-7.424-1.136-0.976-3.232-0.832-4.896-1.184-0.176 1.408-0.72 2.88-0.512 4.208 0.912 5.792 2.096 11.568 3.104 17.328 0.176 1.040 0.016 2.176 0.016 3.296zM180.56 212.416c-0.16 0.288-0.32 0.576-0.464 0.864 2.688 2.544 3.216 5.696 3.008 9.12-0.016 0.512 0.048 1.088 0.272 1.552 2.32 5.28 4.48 10.672 7.136 15.776 0.832 1.584 2.896 2.8 4.672 3.52 2.96 1.184 6.192 1.6 9.184 2.688 2.912 1.072 5.568 1.248 8.496-0.048 2.656-1.152 3.12-1.824 1.696-4.32-2.688-4.72-5.456-9.376-8.272-14.032-3.872-6.432-9.6-10.768-16.512-13.376-2.848-1.12-6.112-1.2-9.2-1.76zM243.024 292c-3.12 0.928-6.912 1.472-10.112 3.136-4.72 2.448-9.088 5.6-13.456 8.624-3.472 2.4-3.872 4.832-1.632 8.448 0.848 1.344 1.824 2.736 3.104 3.616 5.328 3.744 6.016 3.12 9.44-0.528 5.264-5.616 10.8-10.832 17.696-14.432 1.472-0.784 2.784-1.92 4.016-3.072 1.536-1.472 1.344-3.024-0.64-3.744-2.448-0.896-5.104-1.264-8.4-2.032zM171.536 395.072c1.136-1.296 1.808-2.048 2.496-2.784-0.832-0.72-1.584-1.712-2.544-2.032-0.416-0.128-1.824 1.152-1.824 1.808 0 0.832 0.976 1.648 1.872 3.008zM193.92 96.256c0 0.512 0.016 1.008 0.016 1.52 1.232 0.128 2.432 0.288 3.648 0.416-0.112-0.8-0.208-2.272-0.352-2.288-1.088-0.048-2.208 0.208-3.312 0.352z"></path>
</svg>
