<!-- Generated by IcoMoon.io -->
<svg version="1.1" xmlns="http://www.w3.org/2000/svg" width="512" height="512" viewBox="0 0 512 512">
<title>factions-order-stormcast-eternals-sacrosanct</title>
<path fill="#fff" d="M331.28 0c5.168 5.68 10.448 11.28 15.52 17.056 4.64 5.296 9.12 10.752 13.6 16.176 1.296 1.584 2.384 3.312 3.456 5.056 0.816 1.328 1.392 2.768 2.16 4.112 1.92 3.44 4.16 6.736 5.728 10.32 2.016 4.592 3.6 9.424 5.152 14.208 0.272 0.832-0.448 2.048-0.912 2.992s-1.088 1.808-1.76 2.624c-5.088 6.016-10.352 11.904-15.248 18.048-3.52 4.432-6.448 9.312-9.936 13.792-2.992 3.856-6.432 7.376-9.584 11.088-4.784 5.632-9.488 11.296-14.128 16.848 6.080 6.688 14.208 6.992 21.6 8.912 5.472 1.408 11.040 2.384 16.624 3.392 2.176 0.4 4.464 0.272 6.688 0.352 1.44 0.048 2.896 0 4.96 0-0.816 1.744-1.168 3.2-2.048 4.224-3.408 3.968-7.040 7.744-10.512 11.648-1.6 1.792-3.36 3.488-4.592 5.504-3.648 6.016-8.304 11.12-13.232 16.064-3.392 3.392-6.288 7.28-9.216 11.12-7.792 10.16-15.152 20.656-21.232 31.984-4.624 8.608-9.568 17.056-14.224 25.664-1.296 2.384-1.968 5.104-3.152 7.584-1.712 3.648-3.616 7.168-5.52 10.96 24.224 6.064 48.736 2.976 72.672 3.52-2.368 5.008-4.944 10.304-7.328 15.696-2.208 4.944-3.744 10.24-6.4 14.896-2.096 3.664-5.168 6.848-8.256 9.792-2.784 2.672-4.848 5.68-6.912 8.864-3.872 5.936-8 11.792-12.48 17.296-11.552 14.208-23.552 28.032-34.976 42.336-8.64 10.784-18.288 20.512-28.384 29.872-9.328 8.64-18.544 17.424-27.824 26.112-3.136 2.928-6.384 5.76-9.584 8.608-14.992 13.408-30.288 26.464-46.72 38.16-6.496 4.64-12.416 10.080-18.848 14.8-3.92 2.88-8.288 5.2-12.512 7.664-2.64 1.536-5.424 2.848-8.864 4.672 0.224-1.952 0.064-3.456 0.624-4.624 1.664-3.6 3.296-7.248 5.472-10.544 6.32-9.52 12.608-19.056 19.408-28.224 11.008-14.832 22.672-29.152 33.552-44.048 9.728-13.328 18.288-27.408 25.968-42.080 6.704-12.768 14.544-24.928 21.6-37.536 4.064-7.264 7.664-14.784 11.184-22.32 0.816-1.712 0.48-3.968 0.72-6.224-1.376-0.064-2.304-0.048-3.2-0.208-3.696-0.624-7.376-1.328-11.072-2-2.528-0.464-5.040-1.024-7.536-1.44-4.544-0.736-9.184-1.168-13.664-2.208-5.152-1.2-10.16-2.928-15.568-4.544 1.6-1.664 2.688-3.344 4.224-4.32 4.736-2.992 6.736-7.952 9.072-12.528 7.52-14.672 14.592-29.568 22.16-44.208 2.848-5.552 6.848-10.512 9.888-15.984 4.672-8.384 9.28-16.848 13.344-25.536 2.64-5.632 4.272-11.744 6.24-17.296-5.36-1.456-10.32-3.248-15.456-4.080-5.312-0.864-10.768-0.784-16.16-1.184-2.576-0.192-5.136-0.448-7.68-0.672-5.456-0.512-10.88-1.072-16.88-1.648 0.784-1.408 1.44-3.056 2.48-4.384 6.144-7.712 12.368-15.296 17.296-23.952 6.32-11.088 12.72-22.24 20.096-32.624 7.248-10.192 15.648-19.536 23.744-29.104 4.8-5.632 9.072-11.552 12.768-18.016 1.808-3.152 4.576-5.776 6.56-8.864 3.056-4.752 5.984-9.584 8.656-14.576 5.248-9.776 10.656-19.376 17.52-28.144 2.304-2.928 3.872-6.432 5.616-9.744 1.504-2.88 2.768-5.872 4.16-8.816 0.352-0.064 0.72-0.208 1.088-0.32z"></path>
</svg>
