<!-- Generated by IcoMoon.io -->
<svg version="1.1" xmlns="http://www.w3.org/2000/svg" width="32" height="32" viewBox="0 0 32 32">
<title>factions-destruction-kruleboyz</title>
<path fill="#fff" d="M11.841 0.625c-1.015 0.453-1.593 0.625-2.155 0.625-0.734 0-0.859 0.062-1.921 0.953-1.296 1.093-3.342 3.311-6.575 7.168-0.125 0.141-0.359 1.733-0.609 3.889-0.359 3.248-0.375 3.842-0.219 5.263 0.359 3.389 2.046 6.622 4.935 9.464 1.234 1.218 1.562 1.437 3.248 2.249 2.592 1.218 5.247 1.765 8.511 1.765h2.264l2.374-1.124c2.061-0.968 2.592-1.312 3.998-2.499l1.609-1.374 1.89-3.483 1.905-3.467 0.312-2.296c0.484-3.436 0.453-4.279-0.297-6.715-0.765-2.467-1.562-3.842-3.358-5.794-1.858-2.030-3.795-3.248-6.918-4.388l-2.389-0.859h-5.216l-1.39 0.625zM16.807 1.75c0.047 0.203 0.094 0.656 0.094 1.015 0 0.765-0.265 0.984-1.156 0.984-0.469 0-0.625-0.094-0.875-0.515-0.672-1.093-0.265-1.827 1.015-1.827 0.718 0 0.828 0.047 0.921 0.344zM19.025 3.561c-0.64 0.812-0.718 0.999-0.718 1.718 0 0.453-0.047 0.812-0.109 0.812-0.078 0-0.094-0.406-0.047-0.906 0.062-0.75 0.187-1.031 0.703-1.702 0.344-0.453 0.687-0.812 0.75-0.828 0.078 0-0.187 0.406-0.578 0.906zM20.867 3.686c0.141 0.125 0.25 0.437 0.25 0.687 0 0.734-0.562 1.078-1.562 0.937-0.656-0.078-0.843-1.234-0.281-1.624 0.453-0.312 1.281-0.312 1.593 0zM12.918 4.405c0.422 0.625 0.547 0.968 0.531 1.452l-0.016 0.625-0.125-0.734c-0.078-0.406-0.297-0.968-0.515-1.249-0.469-0.64-0.625-0.906-0.515-0.906 0.047 0 0.328 0.375 0.64 0.812zM25.24 3.999c0.39 0.375 0.312 1.202-0.125 1.609-0.312 0.297-0.5 0.344-0.906 0.265-0.281-0.047-0.625-0.156-0.75-0.234-0.297-0.203-0.25-1.218 0.094-1.593 0.328-0.375 1.343-0.406 1.687-0.047zM17.073 5.81c-0.125 0.328-0.281 0.593-0.359 0.593s-0.031-0.203 0.109-0.468c0.125-0.25 0.25-0.828 0.265-1.281l0.016-0.828 0.094 0.703c0.062 0.437 0.016 0.921-0.125 1.281zM14.777 6.482c0.078 0.203 0.016 0.156-0.156-0.094-0.234-0.328-0.281-0.609-0.219-1.249l0.062-0.843 0.094 0.937c0.062 0.515 0.156 1.078 0.219 1.249zM7.656 5.076c0.203 0.25 0.281 0.515 0.219 0.75-0.094 0.312-0.109 0.312-0.187-0.109-0.094-0.562-0.453-0.796-0.999-0.656s-0.765 0.703-0.437 1.078c0.187 0.219 0.422 0.281 0.859 0.234 0.593-0.062 0.593-0.062 0.234 0.219-0.406 0.297-1.031 0.234-1.327-0.156-0.312-0.375-0.25-1.39 0.078-1.577 0.5-0.297 1.234-0.203 1.562 0.219zM12.591 4.842c0.5 0.187 0.531 0.656 0.094 1.359-0.265 0.437-0.39 0.515-0.921 0.515-0.469 0-0.656-0.078-0.859-0.39-0.297-0.453-0.328-1.187-0.062-1.452 0.219-0.219 1.203-0.25 1.749-0.031zM7.453 5.701c0 0.406-0.062 0.468-0.484 0.515-0.656 0.062-0.921-0.265-0.593-0.734 0.172-0.234 0.375-0.328 0.656-0.297 0.359 0.031 0.422 0.125 0.422 0.515zM23.366 6.966c-0.141 0.328-0.39 0.796-0.562 1.046-0.297 0.422-0.297 0.422 0.016 0.953l0.328 0.515-0.468 0.656c-0.265 0.344-0.562 0.64-0.672 0.64-0.125-0.016-0.109-0.078 0.062-0.203 0.125-0.109 0.375-0.375 0.515-0.625 0.25-0.359 0.265-0.484 0.094-0.89-0.265-0.625-0.375-0.593-0.609 0.156-0.25 0.859-0.812 1.124-1.999 0.999-0.734-0.094-1.015-0.219-1.499-0.64-0.672-0.593-0.843-0.593-0.562 0 0.125 0.265 0.547 0.562 1.327 0.906 1.343 0.625 1.39 0.765 0.687 2.155-0.484 0.968-0.937 1.265-1.89 1.265-0.328 0-0.5 0.141-0.812 0.672-0.64 1.078-0.921 1.249-2.046 1.265-0.859 0.016-1.062-0.031-1.421-0.375-0.234-0.219-0.515-0.578-0.64-0.828-0.203-0.359-0.328-0.422-0.921-0.422s-0.781-0.078-1.171-0.515c-0.359-0.39-0.453-0.64-0.469-1.203 0-0.64 0.047-0.75 0.515-1.015l0.5-0.312-0.812-0.047c-0.734-0.047-0.875-0.109-1.234-0.593-0.406-0.515-0.422-0.593-0.25-1.327 0.265-1.109 0.234-1.39-0.156-1.858-0.203-0.219-0.078-0.109 0.265 0.25s0.812 0.937 1.046 1.281c0.344 0.515 0.578 0.672 1.452 0.968 0.562 0.187 1.062 0.312 1.078 0.297 0.031-0.031 0.203-0.359 0.39-0.734 0.187-0.359 0.437-0.656 0.562-0.656 0.141 0 0.234-0.141 0.234-0.359 0-0.484 0.999-1.046 1.827-1.046 0.625 0 0.937 0.265 1.562 1.327 0.172 0.265 0.203 0.203 0.219-0.547l0.031-0.859 0.187 1.718h1.078c1.046 0 1.062-0.016 1.593-0.625 0.281-0.344 0.531-0.703 0.531-0.812 0-0.094 0.062-0.219 0.141-0.265 0.062-0.047 0.094 0.078 0.062 0.281-0.062 0.281 0.031 0.39 0.406 0.562 0.437 0.172 0.515 0.156 0.796-0.172 0.156-0.203 0.297-0.422 0.312-0.468 0-0.234 0.5-1.265 0.562-1.202 0.031 0.047-0.047 0.344-0.187 0.687zM7.515 8.215c0.5 0.422 0.796 1.281 0.796 2.311 0 0.672 0.031 0.75 0.515 0.953 0.562 0.25 0.344 0.312-0.265 0.078-0.359-0.125-0.406-0.234-0.406-0.906 0-0.999-0.359-2.015-0.859-2.405-0.265-0.203-0.39-0.437-0.375-0.718 0.031-0.406 0.031-0.406 0.094-0.047 0.047 0.203 0.265 0.531 0.5 0.734zM28.161 7.653c0.39 0.219 0.422 1.577 0.047 1.89s-1.265 0.25-1.609-0.109c-0.515-0.515-0.531-0.921-0.078-1.452 0.422-0.515 1.046-0.64 1.64-0.328zM6 10.105c0.328 0.297 0.344 0.5 0.109 1.296-0.203 0.656-0.64 0.937-1.452 0.937-0.406 0-0.547-0.078-0.625-0.359-0.156-0.609-0.094-1.218 0.172-1.687 0.219-0.375 0.375-0.453 0.89-0.453 0.359 0 0.734 0.109 0.906 0.265zM25.318 11.62l0.5 0.297 1.468-1.374-0.64 0.703c-0.359 0.39-0.765 0.921-0.906 1.203-0.25 0.5-1.452 1.452-1.843 1.452-0.109 0-0.531-0.125-0.937-0.265-0.672-0.234-0.765-0.234-1.015-0.016-0.312 0.265-1.296 0.469-1.296 0.25 0-0.062 0.172-0.125 0.39-0.125s0.578-0.109 0.781-0.25c0.453-0.297 0.515-0.999 0.156-1.624-0.344-0.593-0.281-0.765 0.078-0.187 0.172 0.281 0.312 0.75 0.312 1.031 0 0.5 0.047 0.547 0.781 0.796l0.781 0.265 0.687-0.437c0.953-0.609 1.312-1.359 0.718-1.546-0.468-0.141-0.781-0.531-0.765-0.906 0.016-0.312 0.031-0.312 0.125 0.047 0.062 0.203 0.344 0.515 0.625 0.687zM27.208 12.401l-0.656 1.031 0.359 0.5c0.187 0.281 0.593 0.765 0.875 1.078l0.547 0.562-0.172 1.078-0.156 1.078 0.062-1.031c0.062-1.015 0.062-1.031-0.609-1.796-1.14-1.312-1.156-1.327-0.406-2.577 0.359-0.609 0.687-1.062 0.734-1.031 0.031 0.047-0.219 0.547-0.578 1.109zM8.967 13.306c-0.109 0.422-0.078 0.593 0.187 0.937 0.328 0.469 0.968 0.578 1.327 0.234 0.172-0.156 0.172-0.125 0.031 0.156-0.25 0.5-0.812 0.453-1.343-0.109-0.625-0.656-0.765-0.422-0.547 0.968 0.297 1.843 0.125 1.687 1.812 1.687 1.421 0 1.515 0.016 2.061 0.468 0.531 0.422 2.139 1.093 2.639 1.093 0.109 0 1.078-0.328 2.139-0.718 1.78-0.64 1.968-0.75 2.139-1.203 0.141-0.375 0.203-0.437 0.25-0.234 0.047 0.156 0.078 0.281 0.094 0.281s0.422-0.109 0.89-0.25c0.468-0.141 1.671-0.297 2.655-0.359l1.78-0.094 0.484-1.484 0.468-1.484 0.094 4.060 0.921 1.171c0.828 1.046 0.906 1.203 0.734 1.484-0.125 0.172-0.75 1.203-1.421 2.296-0.984 1.624-1.327 2.061-1.952 2.452-0.64 0.422-0.89 0.484-1.78 0.484s-1.156-0.078-1.796-0.468l-0.765-0.468h-3.186l-3.186 0.016-0.609 0.453c-0.344 0.265-0.75 0.468-0.89 0.468-0.406 0-2.53 0.999-2.78 1.296-0.156 0.203-0.469 0.265-1.171 0.265h-0.968l-0.859-0.89c-0.734-0.765-1.015-1.234-1.749-2.952l-0.89-2.046 0.25-0.625c0.219-0.547 0.39-0.687 1.53-1.249l1.296-0.64 0.344-1.39c0.187-0.75 0.375-1.484 0.406-1.609 0.062-0.187-0.062-0.219-0.64-0.172-0.796 0.062-1.281-0.281-1.733-1.156-0.125-0.265-0.422-0.656-0.64-0.89s-0.359-0.469-0.312-0.515c0.047-0.047 0.297 0.156 0.578 0.469 0.265 0.312 0.484 0.469 0.484 0.359 0.016-0.219 0.781-0.843 0.781-0.64 0 0.078-0.125 0.203-0.297 0.312-0.437 0.265-0.484 0.734-0.141 1.281 0.281 0.437 0.375 0.484 1.156 0.484 0.547 0 0.875-0.078 0.921-0.203 0.031-0.094 0.156-0.5 0.265-0.89 0.187-0.703 0.187-0.703 0.25-0.203 0.031 0.281 0.109 0.515 0.187 0.515 0.156 0 0.234-0.25 0.406-1.171 0.078-0.344 0.156-0.515 0.187-0.359 0.016 0.141-0.016 0.484-0.094 0.781zM3.939 14.197c0.344 0.547 0.625 0.812 0.953 0.875 0.25 0.062 0.453 0.172 0.453 0.25 0 0.094-0.141 0.078-0.328-0.016-0.39-0.219-0.765-0.094-0.765 0.234 0 0.141-0.312 0.578-0.703 0.984-0.687 0.75-0.687 0.75-0.75 2.077l-0.047 1.312-0.031-1.405-0.031-1.421 0.687-0.672c0.937-0.921 0.999-1.265 0.406-2.124-0.437-0.64-0.547-0.859-0.406-0.859 0.031 0 0.281 0.344 0.562 0.765zM16.276 26.019c0.234 0.609 0.187 1.14-0.172 1.64-0.25 0.359-0.437 0.453-0.875 0.453-1.031 0-1.437-0.843-0.906-1.874 0.265-0.515 0.422-0.593 1.218-0.609 0.484-0.016 0.609 0.047 0.734 0.39zM22.913 26.315c0.219 0.203 0.39 0.5 0.39 0.656 0 0.219-0.047 0.187-0.203-0.109-0.312-0.625-1.39-0.625-1.593 0.016-0.203 0.625 0.875 1.234 1.421 0.796 0.078-0.062 0.016 0.016-0.141 0.156-0.359 0.344-1.093 0.359-1.343 0.062-0.109-0.125-0.234-0.484-0.281-0.796-0.078-0.5-0.031-0.625 0.281-0.875 0.515-0.39 1.015-0.375 1.468 0.094zM22.945 26.799c0.141 0.39-0.172 0.765-0.656 0.765-0.547 0-0.843-0.422-0.562-0.765 0.281-0.328 1.093-0.328 1.218 0zM8.874 27.268c0.656 0.515 0.718 1.14 0.141 1.702-0.375 0.39-1.062 0.515-1.421 0.265-0.265-0.172-0.531-0.75-0.531-1.171 0-0.453 0.593-1.031 1.218-1.187 0.031-0.016 0.297 0.172 0.593 0.39zM12.622 27.518c0.484 0.375 0.344 1.687-0.203 1.968-0.375 0.203-1.14 0.062-1.609-0.281l-0.375-0.281 0.265-0.859c0.172-0.547 0.375-0.89 0.547-0.921 0.281-0.078 1.093 0.156 1.374 0.375zM19.774 27.674c0.047 0.203 0.094 0.656 0.094 1.015 0 0.75-0.265 0.984-1.156 0.984-0.422 0-0.609-0.094-0.859-0.453-0.39-0.547-0.422-1.218-0.062-1.609 0.187-0.203 0.468-0.281 1.062-0.281 0.718 0 0.828 0.047 0.921 0.344z"></path>
<path fill="#fff" d="M15.214 2.062c-0.297 0.297-0.234 0.562 0.203 0.843 0.547 0.359 0.89 0.187 0.828-0.437-0.031-0.422-0.125-0.531-0.437-0.562-0.219-0.031-0.484 0.047-0.593 0.156zM16.089 2.406c0.031 0.156 0 0.344-0.078 0.422-0.25 0.25-0.672-0.031-0.672-0.437 0-0.312 0.062-0.375 0.344-0.328 0.203 0.031 0.375 0.172 0.406 0.344z"></path>
<path fill="#fff" d="M19.649 4.046c-0.219 0.234-0.234 0.375-0.094 0.625 0.297 0.578 1.093 0.359 1.093-0.297 0-0.39-0.234-0.625-0.609-0.625-0.062 0-0.25 0.141-0.39 0.297zM20.493 4.373c0 0.375-0.468 0.531-0.734 0.265-0.187-0.187-0.187-0.25 0.031-0.468 0.297-0.297 0.703-0.187 0.703 0.203z"></path>
<path fill="#fff" d="M23.866 4.545c-0.281 0.422-0.172 0.703 0.328 0.843 0.468 0.109 0.828-0.156 0.828-0.625 0-0.593-0.781-0.75-1.156-0.219zM24.787 4.842c0 0.453-0.344 0.578-0.765 0.265-0.265-0.203-0.265-0.219-0.016-0.484 0.375-0.375 0.781-0.25 0.781 0.219z"></path>
<path fill="#fff" d="M11.123 5.311c-0.234 0.437 0.047 0.89 0.64 1.015 0.5 0.109 0.906-0.203 0.921-0.718 0.016-0.64-1.249-0.875-1.562-0.297zM12.278 5.248c0.312 0.125 0.328 0.593 0.016 0.843-0.422 0.344-1.265-0.187-1.078-0.687 0.094-0.25 0.609-0.328 1.062-0.156z"></path>
<path fill="#fff" d="M14.917 7.84c-0.312 0.187-0.515 0.437-0.515 0.625 0 0.172-0.125 0.344-0.297 0.39-0.156 0.031-0.437 0.406-0.625 0.796-0.281 0.593-0.578 0.89-1.515 1.499-1.078 0.703-1.156 0.796-1.156 1.312 0 0.344 0.141 0.734 0.406 1.078l0.406 0.531 0.281-0.515c0.219-0.422 0.359-0.515 0.796-0.515 0.515 0 0.531 0.016 0.531 0.625 0 1.359 1.015 2.233 2.327 2.030 0.344-0.062 0.75-0.172 0.89-0.25 0.297-0.156 1.234-1.733 1.234-2.061 0-0.359 0.547-0.734 1.062-0.734 0.375 0 0.5 0.062 0.5 0.281 0 0.156-0.078 0.359-0.187 0.469-0.203 0.203 0 0.25 0.281 0.062 0.25-0.156 0.999-1.687 0.999-2.046 0-0.219-0.297-0.422-1.171-0.796-1.109-0.5-1.171-0.547-1.437-1.281-0.141-0.422-0.468-0.999-0.718-1.296-0.359-0.453-0.547-0.547-1.015-0.531-0.312 0-0.812 0.156-1.078 0.328z"></path>
<path fill="#fff" d="M20.493 9.027c0 0.078 0.109 0.234 0.234 0.344s0.234 0.125 0.234 0.031c0-0.078-0.109-0.234-0.234-0.344s-0.234-0.125-0.234-0.031z"></path>
<path fill="#fff" d="M10.607 9.793c-0.062 0.047-0.109 0.203-0.109 0.328 0 0.187 0.047 0.187 0.234 0.031 0.125-0.109 0.234-0.25 0.234-0.328 0-0.172-0.219-0.187-0.359-0.031z"></path>
<path fill="#fff" d="M26.974 8.215c-0.344 0.359-0.234 0.718 0.297 0.984 0.515 0.25 0.718 0.078 0.718-0.625 0-0.609-0.562-0.796-1.015-0.359zM27.801 8.637c0.047 0.359 0 0.422-0.328 0.422-0.5 0-0.703-0.469-0.312-0.734 0.375-0.281 0.578-0.172 0.64 0.312z"></path>
<path fill="#fff" d="M4.579 10.527c-0.109 0.125-0.172 0.422-0.141 0.672 0.031 0.344 0.141 0.453 0.484 0.484 0.812 0.094 1.187-0.593 0.609-1.109-0.359-0.328-0.718-0.344-0.953-0.047zM5.5 10.792c0.265 0.484 0.078 0.796-0.422 0.734-0.437-0.047-0.625-0.39-0.453-0.843 0.125-0.328 0.687-0.265 0.875 0.109z"></path>
<path fill="#fff" d="M21.039 16.695l-1.093 0.265 0.031 0.531c0.234 3.498 0.219 4.498-0.016 5.403-0.297 1.156-0.297 1.156-0.047 1.156 0.125 0 0.406-0.968 0.812-2.827 0.328-1.546 0.64-2.842 0.703-2.873 0.047-0.031 0.25 0.734 0.453 1.687 0.359 1.609 0.359 1.827 0.172 2.842-0.312 1.749-0.359 2.202-0.187 2.030 0.172-0.187 2.249-5.7 2.764-7.356l0.359-1.156-1.437 0.016c-0.781 0.016-1.905 0.141-2.514 0.281z"></path>
<path fill="#fff" d="M8.936 17.414c0 0.875 2.795 7.387 3.248 7.543 0.234 0.078 0.234-0.515-0.031-2.499-0.109-0.828-0.141-1.484-0.078-1.437 0.062 0.031 0.469 0.734 0.921 1.546 0.437 0.812 0.89 1.484 0.999 1.484 0.265 0 0.359-0.562 0.5-3.092 0.047-1.062 0.156-1.874 0.219-1.796 0.062 0.062 0.531 1.203 1.015 2.499 0.656 1.718 0.968 2.389 1.156 2.389s0.484-0.75 1.187-3.061c0.515-1.687 0.953-3.155 0.984-3.264s-0.687 0.078-1.796 0.484c-1.015 0.375-1.983 0.672-2.171 0.687-0.172 0-0.718-0.141-1.203-0.297l-0.875-0.312-0.047 1.265-0.047 1.249-1.452-1.733c-1.343-1.577-1.515-1.733-1.999-1.733-0.297 0-0.531 0.031-0.531 0.078z"></path>
<path fill="#fff" d="M26.115 19.225c0 1.281-0.078 1.89-0.39 2.858-0.219 0.687-0.359 1.265-0.328 1.296 0.016 0.031 0.578-0.812 1.218-1.874l1.171-1.905-0.718-0.89c-0.39-0.484-0.765-0.937-0.828-0.999-0.078-0.062-0.125 0.625-0.125 1.515z"></path>
<path fill="#fff" d="M5.563 19.116c-0.953 0.453-1.14 0.609-1.343 1.124-0.234 0.578-0.234 0.625 0.312 1.858 0.297 0.687 0.656 1.53 0.796 1.874 0.25 0.625 0.25 0.625 0.328-1.874l0.078-2.499 0.828 2.343c0.703 2.030 0.937 2.483 1.687 3.436 0.484 0.609 0.89 1.124 0.921 1.14 0.031 0.031 0.125-0.094 0.234-0.265 0.141-0.281-0.016-0.734-0.953-2.858-0.609-1.39-1.218-3.045-1.359-3.67-0.125-0.625-0.281-1.14-0.328-1.124-0.047 0-0.593 0.234-1.202 0.515z"></path>
<path fill="#fff" d="M14.605 26.487c-0.172 0.453 0.156 1.078 0.593 1.124 0.5 0.062 0.796-0.281 0.734-0.859-0.047-0.375-0.125-0.437-0.64-0.484-0.422-0.031-0.609 0.016-0.687 0.219zM15.761 26.643c0.125 0.344-0.156 0.765-0.5 0.765-0.156 0-0.344-0.109-0.437-0.25-0.234-0.375-0.016-0.765 0.437-0.765 0.234 0 0.437 0.109 0.5 0.25z"></path>
<path fill="#fff" d="M7.984 27.596c-0.375 0.094-0.468 0.765-0.141 1.062 0.141 0.125 0.328 0.234 0.422 0.234 0.203 0 0.672-0.515 0.672-0.734 0-0.234-0.656-0.625-0.953-0.562zM8.718 28.408c-0.062 0.094-0.281 0.172-0.5 0.172-0.297 0-0.375-0.078-0.375-0.375 0-0.203 0.094-0.406 0.203-0.453 0.25-0.094 0.796 0.437 0.672 0.656z"></path>
<path fill="#fff" d="M11.31 28.111c-0.297 0.468 0.016 0.968 0.562 0.906 0.297-0.031 0.437-0.156 0.469-0.406 0.109-0.734-0.656-1.093-1.031-0.5zM12.060 28.189c0.25 0.297 0.094 0.703-0.297 0.703-0.359 0-0.547-0.437-0.312-0.718s0.375-0.281 0.609 0.016z"></path>
<path fill="#fff" d="M18.181 27.986c-0.265 0.265-0.234 0.5 0.094 0.796 0.593 0.547 1.109 0.203 0.906-0.593-0.109-0.422-0.656-0.547-0.999-0.203zM19.009 28.408c0 0.468-0.234 0.562-0.625 0.265-0.265-0.187-0.265-0.25-0.094-0.468 0.312-0.375 0.718-0.25 0.718 0.203z"></path>
</svg>
