<!-- Generated by IcoMoon.io -->
<svg version="1.1" xmlns="http://www.w3.org/2000/svg" width="512" height="512" viewBox="0 0 512 512">
<title>factions-chaos-slaanesh-sybarites</title>
<path fill="#fff" d="M350.048 487.568c-2.544-6.64-4.272-11.168-6-15.664-1.056-0.304-2.112-0.592-3.168-0.88-3.28 13.408-6.144 27.168-23.536 31.824 0-5.808 0.528-11.504-0.256-17.024-0.32-2.32-3.408-4.256-5.232-6.352-1.68 1.872-4.080 3.504-4.864 5.696-1.952 5.568-3.36 11.328-4.656 17.12-1.664 7.328-5.248 10.56-13.44 9.52-8.512-1.088-11.040-4.96-11.744-13.136-0.368-4.064-5.44-7.744-8.384-11.568-1.984 3.696-4.528 7.184-5.744 11.12-1.104 3.632-0.768 7.696-1.040 11.456-21.136 0.64-26.176 1.056-24.224-23.136 0.176-2.144-2.912-4.576-4.48-6.864-1.824 1.68-5.104 3.28-5.216 5.040-0.368 6.608 0.32 13.264 0.624 19.92-13.824 1.312-16.592-2.016-22.672-30.24-7.088 9.2-12.864 16.704-20.16 26.192-9.232-17.264-13.12-32.224-11.44-48.416 2.304-22.112-9.888-39.936-19.616-57.344-7.184-12.864-22.512-18.368-38.816-13.904-9.168 2.512-13.632-1.376-20.736-8.656-22.976-23.728-26.464-53.648-32.768-83.088-0.64-3.024-2.176-5.968-3.824-8.656-5.616-9.104-4.528-17.136 2.912-24.768 12.56-12.912 16.992-26.704 6.896-43.84-3.312-5.616-3.296-13.792-3.056-20.768 0.4-13.072 2.768-26.080 3.104-39.168 1.056-43.040 24.704-75.2 50.496-106.352 15.84-19.136 39.104-26.112 61.152-32.592 37.248-10.944 75.072-15.12 114.96-12.080 35.44 2.704 64.352 16.864 92.464 33.824 20.64 12.464 38.096 30.112 43.904 56.304 4.272 19.248 11.92 37.712 17.248 56.768 10.592 38 6.16 76.304 1.552 114.624-2.464 20.48-5.088 41.12 6.064 60.432 1.104 1.92 0.304 6.48-1.344 8.208-16.56 17.392-33.312 34.608-50.368 51.52-5.872 5.824-13.056 6.784-20.752 2.544-6.736-3.696-10.528-0.912-13.792 5.824-8.864 18.256-8.256 37.744-8.512 57.104-0.192 13.696-3.568 26.144-11.552 39.44zM198.832 86.704c20.896 5.504 40.672 10.272 60.064 16.224 3.472 1.056 5.376 7.104 8.016 10.864-4.72 1.728-9.552 5.088-14.144 4.784-8.272-0.56-16.336-4.416-24.592-4.848-10.48-0.56-23.136-2.464-31.12 2.384-10.224 6.192-20.928 12.912-28.176 24.96-20.688 34.4-0.56 85.088 38.88 89.872 21.456 2.608 43.12 0.88 61.040-16.048 18.32-17.312 24.96-49.584 12.624-71.632-1.36-2.432-0.56-6.080-0.752-9.168 3.568-0.192 7.936-1.808 10.592-0.336 10.224 5.616 13.168 15.776 14.656 26.592 1.28 9.264 2.832 18.496 4.512 29.232 13.984-23.68 9.232-59.696-9.392-77.376 9.424-9.616 17.264-21.664 34.080-16.304 2.848 0.912 6.352 0.272 9.456-0.24 16.272-2.576 25.472-15.76 21.792-30.928-17.472 13.040-30.24 15.264-38.8 5.184-3.552-4.16-5.632-11.648-4.704-16.992 0.896-5.12 6.512-9.44 10.16-14.24-19.184 0.384-31.232 10.656-28.944 28.176 1.68 12.928 0.144 20.896-11.568 28.064-6.896 4.224-10.656 5.056-15.792-0.864-1.744-2.016-4-4.080-6.448-4.976-23.424-8.544-47.12-7.52-71.456-2.384zM163.872 336.544c20.48-0.176 40-2.672 56.768-16.48 7.504-6.16 8.16-12.496 3.744-19.52-2.576-4.080-6.928-7.888-11.36-9.824-22-9.648-44.080-19.328-66.656-27.472-7.776-2.8-17.248-2.176-25.792-1.36-9.616 0.896-19.728 15.648-18.224 24.528 4.608 26.656 33.28 50.032 61.504 50.112zM386.496 262.512c-0.272-1.056-0.56-2.128-0.832-3.184-27.392 7.232-54.896 13.984-81.968 22.192-3.68 1.104-7.696 9.744-7.216 14.416 2.784 26.624 21.872 41.456 47.2 38.4 9.424-1.152 18.544-4.464 27.952-5.712 18.496-2.48 29.376-14.8 38.544-29.088 11.952-18.608 2.72-36.096-18.928-36.736-1.616-0.064-3.216-0.192-4.784-0.272zM267.84 400.016c2.4 3.152 4.896 8.88 9.232 11.376 4.448 2.544 10.944 3.12 16.080 2.144 2.24-0.432 5.552-7.744 4.544-10.544-8.016-22.48-16.304-44.928-25.904-66.768-4.48-10.208-9.504-10.144-13.632 0.048-8.688 21.456-16.304 43.392-23.328 65.456-2.544 8 8.16 15.696 16.288 11.648 6.016-3.024 10.784-8.512 16.704-13.376z"></path>
</svg>
