<!-- Generated by IcoMoon.io -->
<svg version="1.1" xmlns="http://www.w3.org/2000/svg" width="512" height="512" viewBox="0 0 512 512">
<title>factions-order-lumineth-realmlords</title>
<path fill="#fff" d="M254.304 467.456c-7.136-0.784-16.192 0.96-20.976-2.816-10.432-8.24-23.296-18.128-26.224-29.616-1.84-7.264 10.96-20.592 19.872-27.888 33.984-27.76 114.752-19.28 137.552 19.712 7.488 12.832 8.464 44.544-3.376 53.552-15.424 11.728-32.576 26.976-50.192 28.784-53.728 5.488-108.096 5.648-156.832-24.912-20.8-13.088-30.48-45.76-15.936-65.776 9.584-13.216 24.352-23.376 38.448-32.224 13.696-8.576 29.968-12.8 44.24-20.592 16.848-9.2 26.544-23.52 24.4-44.064-0.48-4.64-0.080-9.376-0.080-14.064 0-38.528-2.624-42.96-39.024-64.336-6.88 24.784-13.984 49.168-20.368 73.744-6.048 23.248-20.24 28.208-46.304 15.712 12.352-29.824 26.352-59.088 36.48-89.648 7.872-23.744 14.848-24.4-15.856-38.4-3.504-1.584-6.752-3.68-10.016-5.44 1.568-12.208 3.024-23.872 4.656-36.736 13.696 10.512 27.36 20.976 45.536 34.944 13.216-36.032 25.808-68.624 36.96-101.696 5.024-14.88-1.584-21.648-16.304-16.032-23.2 8.848-45.376 20.448-65.856 29.904 10.944-21.808 30.88-42.352 58.992-48.16 24.304-5.024 32.928-14.544 26.272-40.896-34.944 8.704-69.904 16.944-95.392 47.328-6.8-25.232-7.616-26.624 25.92-45.952 17.872-10.304 38.848-15.36 58.816-21.536 4.56-1.408 10.656 2.176 16.032 3.536 2.048 0.528 4.128 2.16 6 1.872 45.6-7.392 57.728-3.584 99.552 20.624 16.192 9.36 22.192 20.096 21.072 38.592-16.416-10.592-30.88-21.904-47.024-29.696-15.28-7.392-32.288-11.040-51.296-17.248 0 14.32 0 25.216 0 37.664 30.432-1.328 54.512 10.016 76.512 30.864 20.928 19.84 21.856 50.448-8.064 70.368-5.424 3.6-11.552 6.4-17.696 8.64-12.96 4.688-13.872 11.776-5.312 21.248 6.96-3.824 14.048-7.36 20.752-11.504 6.608-4.080 12.832-8.768 19.392-13.312 1.968 6.576 3.904 12 5.168 17.6 2.896 12.976 1.216 23.552-14.32 26.896-18 3.888-18.256 12.56-10.544 28.416 15.152 31.088 27.36 63.632 40.864 95.776-18.528 9.36-29.952 6-38.544-13.696-5.792-13.312-11.424-26.72-17.44-39.936-5.728-12.608-11.872-25.040-18.88-39.76-9.632 6.448-20.416 12.304-29.312 20.32-3.76 3.376-4.608 11.264-4.864 17.2-0.976 23.824-1.488 47.648-1.616 71.504-0.128 23.552-15.856 32.496-34.336 40.464-19.616 8.464-40.368 16.112-57.2 28.736-20.448 15.328-18.832 42.080 3.456 52.24 43.136 19.632 88.72 30.576 134.496 8.288 7.808-3.808 15.824-17.424 15.232-25.84-0.704-9.6-9.008-21.808-17.52-27.104-23.088-14.352-47.792-10.768-71.424 0.976-16.992 8.464-17.44 21.888-1.216 32.576 4.208 2.768 8.944 4.784 13.44 7.152-0.208 1.216-0.48 2.416-0.736 3.648zM253.12 234.128c9.504-7.616 17.024-15.584 26.144-20.464 13.184-7.088 10.784-15.328 5.552-25.84-9.184-18.4-17.68-37.136-27.248-57.376-12.144 24.304-23.776 46.912-34.592 69.952-1.44 3.072-0.096 9.776 2.416 12.080 8.592 7.808 18.304 14.448 27.728 21.664zM276.688 77.040c-3.776 16.112 11.744 60.208 23.728 68.24 1.984 1.36 5.648 3.232 6.784 2.416 7.616-5.44 18-10.24 21.12-17.872 2.976-7.28 0.784-19.408-3.648-26.528-10.72-17.12-28.688-23.472-47.968-26.272z"></path>
</svg>
