<!-- Generated by IcoMoon.io -->
<svg version="1.1" xmlns="http://www.w3.org/2000/svg" width="512" height="512" viewBox="0 0 512 512">
<title>factions-death-askurgan-trueblades</title>
<path fill="#fff" d="M245.904 488.864c-18.224-6.384-36.448-36.448-36.448-60.144 0.448-21.872 24.608-129.84 44.192-194.544 5.008-16.864 12.304-17.776 14.128-1.824 0.912 7.296 4.096 15.952 7.296 19.136 3.184 2.736 9.568 21.408 14.128 41.008 4.56 20.048 11.84 43.28 15.952 51.936s11.392 31.888 15.952 51.488c8.208 34.624 8.208 36-0.464 56.944-13.216 30.976-43.744 46.016-74.72 36z"></path>
<path fill="#fff" d="M368.464 345.808c0-2.272 0-41.92 0.464-88.384 0.464-52.4-0.912-86.112-4.096-87.936-2.272-1.36-14.128 5.472-25.968 15.952-25.52 21.872-41.456 30.064-46.928 24.144-1.824-2.272-9.568-20.496-16.4-40.544-28.704-83.824-26.88-84.736-36.448 20.048-0.912 10.928-2.736 20.496-4.096 21.872-3.184 3.184-65.152-25.968-71.536-33.264-2.736-3.648-8.208-6.384-11.392-6.384-5.008 0-6.384 9.104-6.384 40.096 0 36.448 1.36 42.832 16.4 73.808 8.656 18.688 19.584 37.808 23.232 42.368 10.928 11.392 4.096 14.576-29.616 14.128-25.52-0.464-34.624-2.736-56.032-14.576-38.272-21.872-92.48-83.824-97.952-112.528-4.56-24.144 0.448-71.072 10.016-95.68 14.128-36.896 12.304-35.536 54.224-32.8l37.36 2.736 13.664-32.8 13.216-32.8 41.008 0.912c22.32 0 53.76 0.912 70.16 1.36s52.4-0.912 80.64-2.272l50.576-3.184 19.584 29.152c23.232 34.176 24.608 35.536 42.368 32.352 10.928-1.824 19.136 1.36 36.448 13.216 34.176 22.784 41.456 35.536 41.008 69.248-1.36 47.376-12.304 65.152-87.472 143.52-34.624 36-54.672 49.664-56.032 38.272zM112.864 270.64c-3.648-6.832-5.92-30.976-6.384-69.248 0-65.6-0.912-67.424-33.712-73.344-15.952-2.736-16.4-2.736-29.152 24.144l-12.752 26.88 13.664 26.88c13.664 27.344 56.944 74.72 68.336 74.72 4.56 0 4.56-1.824 0-10.016zM439.984 234.192c4.096-8.208 10.016-20.048 13.216-26.432 3.648-6.384 8.208-20.496 10.928-31.888 4.096-19.584 4.096-20.496-11.392-35.088-9.12-8.208-20.048-15.040-24.144-15.040-16.4 0-19.136 10.48-17.776 67.888 1.36 54.224 1.36 55.136 11.84 55.136 7.296 0 12.304-4.56 17.312-14.576zM209.456 105.712c0-41.456-3.648-47.376-32.8-54.224-16.4-4.096-30.976 13.664-30.976 37.808 0 14.576 2.736 19.584 19.584 32.8 23.232 19.136 36 26.432 40.544 23.696 2.272-1.36 3.648-19.584 3.648-40.096zM339.296 129.856c23.696-13.216 25.056-15.040 25.056-31.44 0-38.72-15.952-51.936-50.576-41.456-21.872 6.832-25.968 18.672-17.776 54.672 8.656 39.184 7.296 38.272 43.28 18.224z"></path>
</svg>
