<!-- Generated by IcoMoon.io -->
<svg version="1.1" xmlns="http://www.w3.org/2000/svg" width="512" height="512" viewBox="0 0 512 512">
<title>factions-order-questor-soulsworn</title>
<path fill="#fff" d="M114.288 478.608c-20.24-8.544-63.84-49.008-77.776-71.936-25.184-42.72-33.264-69.696-35.968-121.392-3.6-79.136 10.784-122.288 56.208-168.608 39.568-40.464 82.72-62.944 147.024-76.432s68.336-13.488 113.296-2.24c48.112 12.592 86.768 31.472 116.896 57.104 32.368 27.872 47.664 53.056 64.736 104.304 27.424 84.528 12.144 167.248-43.168 232.448-17.088 20.24-43.616 37.76-49.008 32.816-0.896-1.344 4.944-15.728 13.488-31.92 18.432-37.312 23.376-70.592 16.192-115.552-9.888-64.736-38.224-104.752-94.864-135.328-28.32-15.28-30.576-15.728-78.688-15.728-47.216 0-51.248 0.896-79.584 14.832-53.504 26.080-88.128 75.088-98.016 138.032-8.096 51.712 0.448 89.92 31.024 134.432 18.88 27.424 18.432 33.728-1.792 25.184z"></path>
<path fill="#fff" d="M201.952 469.168c-27.424-12.592-43.168-28.32-59.792-60.24-43.168-84.528 15.728-192.432 108.352-198.72 43.616-3.152 74.192 9.44 104.752 42.72 31.024 33.728 36.864 49.008 37.312 95.312 0.448 34.176-0.896 40.464-12.144 59.344-15.28 26.528-33.264 40.912-70.592 57.552-36.864 16.64-77.328 17.984-107.904 4.048z"></path>
</svg>
