<!-- Generated by IcoMoon.io -->
<svg version="1.1" xmlns="http://www.w3.org/2000/svg" width="512" height="512" viewBox="0 0 512 512">
<title>factions-order-cities-of-sigmar-greywater-fastness</title>
<path fill="#fff" d="M146.208 510.992c-0.704-0.704-1.296-2-1.296-2.88 0-2.016 3.52-12.576 6.928-20.736 6.864-16.48 7.504-30.016 1.584-33.904-0.816-0.544-4.704-1.872-8.624-2.96-12.24-3.392-17.488-6.4-16.528-9.488 0.688-2.192 4.352-7.536 8.032-11.648 7.6-8.544 13.904-18.256 25.696-39.648 14.352-26.032 17.52-33.104 17.52-39.152 0-5.792-1.584-8.032-15.12-21.392-6.832-6.752-12.832-13.12-13.344-14.16s-1.12-3.584-1.344-5.664c-0.592-5.2-4.8-17.488-8.368-24.384-1.888-3.664-4.16-6.928-6.256-9.008-3.792-3.76-4.88-6.624-4.864-12.832 0.016-5.776 1.616-10.048 5.328-14.096 3.6-3.936 5.168-7.184 6.608-13.648 1.456-6.496 1.504-17.872 0.112-20.368-2.416-4.32-2.496-4.816-1.776-10.96 0.784-6.688 2.32-10.784 4.608-12.288 0.848-0.56 4.064-1.6 7.136-2.32 13.504-3.168 16.448-4.656 22.544-11.376 4.256-4.688 7.76-11.632 10.080-19.936 2.496-8.944 3.792-10.832 9.12-13.184 3.552-1.568 16.48-4.8 33.952-8.496 22.624-4.784 27.136-5.552 33.024-5.648 7.088-0.096 8.72 0.64 15.264 6.992 7.568 7.344 15.088 10.608 25.952 11.28 4.448 0.272 7.36 0.096 11.328-0.72 6.64-1.36 9.504-1.344 11.632 0.032 2.176 1.424 5.28 7.728 8.080 16.432 3.072 9.552 5.536 14.208 9.808 18.464 4.112 4.112 9.44 6.992 18.4 9.952 6.64 2.192 10.992 5.296 12.464 8.864 1.328 3.184 0.496 9.584-1.664 12.752-2.336 3.456-2.768 5.952-2.032 12.080 1.376 11.616 5.184 21.136 9.696 24.24 3.984 2.736 5.552 6.080 5.152 10.96-0.448 5.168-2.16 8.8-7.552 15.968-10.048 13.36-12.464 20.816-14.032 43.184-0.944 13.504-5.312 18.608-16.992 19.824-2.976 0.304-6.432 1.088-7.712 1.728-3.136 1.6-5.312 5.776-4.928 9.472 0.368 3.488 5.024 13.040 12.176 24.96 3.12 5.184 9.712 16.368 14.672 24.848s11.76 19.792 15.12 25.152c3.36 5.36 6.912 11.216 7.904 13.008l1.808 3.248-1.456 1.552c-2.016 2.144-8.896 5.2-15.232 6.768-6.24 1.536-7.968 2.512-9.072 5.136-1.488 3.552 0.288 8.64 11.76 33.504 4.96 10.752 7.392 16.8 7.392 18.4 0 2.016-2.144 3.472-4.368 2.992-3.872-0.848-18.304-11.328-31.488-22.88-16.384-14.336-39.52-40.016-46.128-51.2-2.368-4-2.96-7.312-1.52-8.512 0.992-0.832 8.8-2.784 18-4.512 3.92-0.736 8.256-1.792 9.6-2.32 4.624-1.856 5.968-5.36 4.096-10.672s-17.712-30.736-22.784-36.56c-4.144-4.784-5.632-5.376-13.472-5.424-6.192-0.032-6.864 0.080-10.784 2-2.304 1.12-5.28 3.2-6.608 4.624-4.88 5.232-6.192 6.336-9.296 7.968-2.608 1.36-4.016 1.664-7.904 1.664-6.288 0-10.496-2.032-17.232-8.336-8.64-8.080-14.624-9.52-22.64-5.472-6.864 3.472-16.592 15.584-25.76 32.096-5.216 9.376-6.512 14.096-4.784 17.328 1.056 1.984 5.088 3.616 12.336 5.008 14.224 2.72 20.352 4.672 20.352 6.48 0 2.512-7.728 12.288-31.68 40.032-21.392 24.8-33.728 37.344-37.952 38.64-0.96 0.288-1.776 0.032-2.672-0.864zM274.24 344.864c2.688-0.368 6.64-1.344 8.8-2.16 4.112-1.552 24.592-13.968 31.776-19.264 7.696-5.68 15.088-14.544 19.552-23.504 2.624-5.232 10.48-29.936 11.216-35.28 1.376-9.92-1.008-20.944-8.56-39.584-6.112-15.072-7.52-17.84-12.224-24.080-7.232-9.6-10.416-11.968-27.376-20.272-21.2-10.4-21.040-10.352-39.632-10.352-17.328 0-18.192 0.176-34.112 6.368-13.424 5.232-22.928 11.392-30.8 20-3.456 3.776-13.728 20.080-16.48 26.144-2.688 5.936-5.888 15.536-6.704 20.096-0.976 5.504-1.12 19.616-0.256 26.448 1.28 10.112 3.792 19.632 6.912 26.128 2.672 5.584 4.176 7.6 12.88 17.472 5.424 6.144 11.6 12.576 13.728 14.304s5.024 4.096 6.416 5.264c5.888 4.912 21.68 11.216 30.736 12.272 6.672 0.784 28.528 0.784 34.112 0zM241.776 321.68c-10.512-1.056-16.368-4.112-26.016-13.6-2.672-2.624-6.048-9.12-6.064-11.632 0-2.32 1.568-4.192 4.24-5.040 4.096-1.312 9.6-4.512 10.928-6.368 2.4-3.36 4.864-2.48 12.080 4.288 11.888 11.152 28.272 14.784 36.176 8.032 2.992-2.56 3.872-5.040 3.872-10.944 0-5.488-1.872-9.408-6.496-13.632-7.648-6.976-17.136-11.056-25.888-11.12-4.544-0.032-5.392 0.16-8.8 2.032-3.52 1.936-4.096 2.048-8.496 1.808-5.488-0.304-8.88-1.792-11.856-5.184-9.376-10.672-9.264-29.856 0.256-43.84 6.32-9.28 15.264-15.856 25.12-18.448 5.040-1.328 16.32-1.36 21.888-0.048 7.12 1.664 35.728 10.448 38.288 11.744 3.344 1.712 4.432 3.552 3.68 6.208-1.424 4.976-9.616 16.8-14.56 21.040-3.040 2.608-5.68 3.184-9.392 2.064-3.2-0.96-13.488-7.216-20.544-12.496-5.472-4.096-7.824-4.736-13.184-3.632-7.328 1.52-10.896 4.48-12.416 10.336-0.992 3.792-1.264 9.568-0.592 12.112 0.528 1.984 2.992 2.528 13.456 2.992 9.696 0.432 19.488 2.080 25.152 4.24 24.656 9.408 35.312 28.048 27.696 48.432-2.992 7.984-6.832 11.552-17.184 15.984-8.592 3.68-13.84 4.688-25.92 4.944-5.888 0.128-12.816 0.016-15.408-0.24zM40.816 275.712c-15.040-0.864-31.76-3.056-31.76-4.144 0-0.8 8.176-3.76 26.528-9.584 10.912-3.456 21.344-7.056 23.184-8 3.968-2 9.104-7.152 11.424-11.408 0.912-1.664 5.184-15.2 9.52-30.080 10.016-34.384 12.064-39.472 24.128-59.904 8.464-14.304 9.6-16.768 9.6-20.592 0-4.288-0.336-4.896-16.912-30.464-14.144-21.824-18.304-28.736-18.304-30.384 0-0.528 0.416-1.312 0.928-1.728 1.376-1.136 6.096 1.664 29.744 17.648 25.248 17.088 27.92 18.672 32.624 19.536 3.152 0.576 4.496 0.48 9.168-0.64 5.552-1.328 72.912-24.768 78.96-27.472 6.464-2.896 10.096-6.896 12.784-14.064 0.72-1.936 3.552-14.56 6.272-28.048 4.528-22.416 6.688-30.976 8.8-34.944l0.768-1.44 0.816 1.568c0.992 1.904 2.416 7.44 9.376 36.704 3.184 13.392 6.048 23.984 6.992 25.952 1.824 3.744 7.12 9.84 9.728 11.184 0.96 0.496 4.416 1.472 7.696 2.192 9.52 2.064 20.592 6.112 44.8 16.352 21.904 9.264 33.504 13.84 35.12 13.84 2.464 0 29.632-17.568 39.408-25.504 6.928-5.616 9.296-6.912 11.52-6.352 3.472 0.864 2.496 3.872-5.104 15.76-6.128 9.584-19.888 32.336-21.584 35.696-3.824 7.584-3.616 11.632 1.184 22.656 13.344 30.624 39.6 88.72 41.040 90.8 5.392 7.84 11.648 10.56 40.528 17.584 22 5.344 24.064 5.952 22.8 6.656-0.544 0.304-5.76 1.104-11.584 1.792s-21.008 2.528-33.744 4.096c-31.984 3.936-36 3.824-39.616-1.072-2.288-3.088-3.072-5.552-10.176-31.264-7.872-28.544-9.296-32.56-17.344-48.768-6.96-14.032-11.552-21.648-20.896-34.592-8.416-11.664-10.896-14.496-18.656-21.216-11.456-9.92-20.992-15.264-37.872-21.168-16.16-5.664-26.944-7.408-50.672-8.224-25.936-0.896-34.432 0.192-56.176 7.184-15.28 4.912-22.288 7.648-30.688 12.016-14.048 7.264-22.848 15.264-36.32 32.992-4.832 6.352-10.416 13.68-12.416 16.304-4.224 5.52-11.456 19.808-14.24 28.128-2.272 6.784-6.624 23.952-7.552 29.776-0.352 2.256-1.488 10.32-2.512 17.92s-2.304 15.040-2.816 16.528c-1.392 3.952-3.952 6.944-7.552 8.832l-3.2 1.68-19.808 0.080c-10.896 0.048-23.488-0.144-27.984-0.4zM446.768 186.24c-4.752-3.152-6.672-12.272-3.792-17.92 1.744-3.424 3.696-4.24 10.080-4.24 6.944 0 8.432 0.448 10.544 3.216 1.504 1.968 1.76 2.96 1.984 7.76 0.464 9.76-2.064 12.592-11.264 12.608-4.56 0-5.744-0.224-7.552-1.408zM42.144 175.056c-1.28-1.136-2.88-3.136-3.552-4.448-2.352-4.624-1.2-12.384 2.496-16.88 1.648-1.984 2.128-2.192 5.792-2.4 3.248-0.192 4.528 0.048 6.832 1.216 4.048 2.080 4.432 3.232 4.24 12.784l-0.16 8.176-3.104 1.536c-1.792 0.88-4.624 1.648-6.656 1.792-3.28 0.24-3.728 0.096-5.888-1.792zM341.696 69.552c-6.208-2.928-8.64-11.872-4.896-18.080 1.28-2.128 8.144-5.968 10.656-5.968 1.92 0 8.368 4.928 10.128 7.728 1.824 2.912 1.488 9.968-0.64 12.944-2.928 4.096-10.256 5.728-15.248 3.36zM170.704 63.968c-4.304-1.424-5.664-3.856-5.664-10.208 0-8.528 3.072-12.144 10.624-12.512 4.848-0.224 8.192 1.28 10.544 4.752 1.616 2.384 2.544 9.040 1.6 11.44-0.848 2.144-3.728 4.768-6.544 5.936-2.192 0.912-8.464 1.248-10.56 0.56z"></path>
</svg>
