<!-- Generated by IcoMoon.io -->
<svg version="1.1" xmlns="http://www.w3.org/2000/svg" width="512" height="512" viewBox="0 0 512 512">
<title>factions-order-idoneth-deepkin</title>
<path fill="#fff" d="M247.936 512c-0.688-1.52-1.808-3.008-1.952-4.608-1.728-18.864-4.144-37.68-3.92-56.672 0.176-14.048 0.528-28.112 0.4-42.144-0.128-13.872-0.768-27.728-1.216-41.6-0.016-0.768-0.224-1.84-0.752-2.192-5.808-4.224-11.584-8.48-19.296-8.448-4.896 0.016-8.688 1.888-11.52 5.984-4.736 6.864-5.776 14.32-3.904 22.304 4.336 18.32 8.72 36.624 13.040 54.944 0.368 1.52 0.272 3.152 0.384 4.72-0.336 0.112-0.656 0.224-0.992 0.336-0.72-0.72-1.568-1.344-2.128-2.16-3.648-5.392-7.344-10.784-10.784-16.32-1.52-2.432-2.768-5.12-3.632-7.84-3.2-10.080-6.208-20.24-9.232-30.368-1.968-6.656-4.464-13.28-5.504-20.112-0.912-6-0.864-12.384 0.048-18.384 2.384-15.776 19.024-24.736 33.728-18.832 6.192 2.496 12.528 4.608 19.104 6.976 0-1.248 0-2.048 0-2.864 0-17.136-0.016-34.272 0.048-51.408 0-2.112-0.4-2.976-2.736-3.168-34.144-2.992-65.648-13.664-94.064-32.944-16.928-11.472-30.72-25.936-40.24-44.16-1.536-2.944-2.352-6.48-2.704-9.84-2.064-20.608 3.136-39.504 14.096-56.896 6.144-9.728 12.016-19.6 19.856-28.176 14.512-15.872 32.736-25.36 52.864-31.936 9.888-3.216 20.032-3.92 30.24-4.784 15.616-1.344 31.152-0.656 46.624 1.488 0.448 0.064 0.928 0.048 1.344 0.176 11.024 3.584 22.096 6.912 32.976 10.832 6.24 2.24 11.264 6.464 15.104 11.984 3.552 5.152 7.232 10.208 10.864 15.296 2.672 3.76 3.28 8.048 2.56 12.464-1.696 10.432-6.416 19.184-14.864 25.68-1.248 0.944-2.896 1.344-4.336 2.064-1.488 0.752-2.928 1.584-4.4 2.4-0.144 0.096-0.208 0.4-0.32 0.432-5.216 0.64-8.88 5.536-14.512 5.152-5.216-0.336-10.544 0.112-15.616-0.816-5.936-1.088-11.648-3.312-17.456-5.056-0.432-0.128-0.976-0.176-1.248-0.48-0.768-0.816-1.424-1.728-2.112-2.608 0.88-0.64 1.68-1.616 2.656-1.856 7.728-1.92 15.52-3.6 23.232-5.552 12.8-3.216 23.28-10.24 31.968-20.064 6.128-6.912 5.44-13.552-2.064-18.928-9.408-6.704-20.144-10.16-31.424-12.080-10.24-1.776-20.448-1.856-30.8-0.208-9.904 1.584-20.016 1.904-30.016 2.944-15.248 1.568-29.936 5.152-43.632 12.304-5.28 2.768-10.784 5.152-16.112 7.824-11.312 5.696-20.24 14.032-26.368 25.12-4.288 7.76-8.496 15.6-12.112 23.68-7.024 15.68-3.584 29.536 9.52 40.688 3.104 2.656 6.32 5.184 9.232 8.048 8.272 8.112 18.944 12.256 28.736 17.84s20.448 8.8 31.392 10.976c13.664 2.736 27.312 5.76 41.12 7.456 8.72 1.088 17.776 0.528 26.592-0.208 41.76-3.472 78.496-19.632 111.504-44.928 9.664-7.392 17.184-16.864 24.464-26.496 1.856-2.448 3.696-4.96 5.76-7.232 1.264-1.36 2.992-2.32 4.496-3.44 0.272 0.208 0.544 0.4 0.816 0.608-0.32 1.536-0.496 3.136-0.944 4.64-2.736 9.36-8.096 17.424-13.664 25.2-6.784 9.456-13.6 18.928-22.736 26.48-10.208 8.432-19.92 17.408-29.984 26-3.632 3.104-7.76 5.312-12.848 4.992-0.8-0.048-2.080 1.296-2.464 2.272-0.768 1.888-1.888 3.040-3.872 3.36-0.448 0.064-1.024 0.048-1.296 0.32-6.784 6.512-15.568 8.96-24.192 11.152-10.672 2.72-21.664 4.224-32.544 6.032-2.672 0.448-3.632 1.296-3.584 4.128 0.32 16.032 0.432 32.080 0.608 48.128 0 0.976 0 1.952 0 3.52 3.536-2.112 6.8-3.824 9.808-5.92 6.96-4.8 13.872-4.576 20.848-0.256 7.632 4.768 11.584 11.952 13.344 20.576 1.296 6.304 1.296 12.4-0.336 18.768-1.568 6.096-1.648 12.528-2.608 18.784-3.008 19.76-9.232 38.512-18 56.416-0.48 0.976-0.832 2.064-1.488 2.88-0.544 0.688-1.472 1.088-2.224 1.616-0.288-0.8-0.864-1.616-0.816-2.384 0.112-2.064 0.32-4.176 0.768-6.192 4.512-20.768 7.552-41.728 8.16-62.976 0.144-4.368-0.496-8.848-1.376-13.152-0.832-4.064-4.032-6.144-8.208-6.128-6.48 0.048-11.632 3.152-15.984 7.616-0.72 0.752-0.816 2.336-0.864 3.536-0.368 10.128-0.336 20.304-1.088 30.416-0.592 8.032-1.968 16-3.328 23.936-2.592 15.024-3.632 30.176-4.304 45.376-0.592 13.28-2.352 26.528-3.76 39.76-0.224 2.064-1.376 4.016-2.112 6-0.608 0.096-1.152 0.096-1.696 0.096z"></path>
<path fill="#fff" d="M416.576 44.128c-0.88 0.992-1.648 2.16-2.656 2.992-8.976 7.488-18.064 14.848-26.976 22.4-3.52 2.976-6.704 6.352-10.064 9.52-1.568 1.488-1.84 3.104-1.040 5.152 7.392 19.248 5.776 37.744-2.672 56.576-7.072 15.776-17.968 28.816-27.36 42.928-7.44 11.152-17.776 19.744-29.904 25.472-4.192 1.968-7.952 4.304-11.904 6.592-9.728 5.616-20.688 7.6-31.712 9.68-14.576 2.736-28.272 0.816-42.272-3.168-16.496-4.688-32.256-10.944-46.944-19.6-11.952-7.024-18.88-18-20.992-31.808-0.832-5.44 0.544-10.48 3.808-14.896 6.848-9.232 15.936-14.784 27.456-15.568 9.184-0.64 18.432-2.064 27.632-0.016 1.104 0.256 2.032 1.312 3.056 2.016-0.944 0.976-1.728 2.464-2.864 2.816-6.144 1.84-12.528 2.992-18.56 5.104-6.096 2.16-12.016 4.912-17.776 7.904-2.56 1.344-4.688 3.696-6.688 5.888-3.904 4.288-3.536 8.72 1.376 11.92 4.992 3.248 10.208 6.256 15.648 8.64 14.4 6.304 29.584 10.288 44.832 13.76 12.224 2.784 24.576 1.408 36.72-0.976 22.32-4.368 43.040-12.736 60-28.16 8.656-7.872 16.112-17.152 23.408-26.368 9.408-11.84 7.12-24.464 1.216-37.104-5.056-10.832-12.88-18.832-22.752-25.584-17.072-11.68-35.792-17.952-56.080-20.352-13.936-1.632-27.856-3.536-41.84-4.64-6.432-0.496-13.056 0.176-19.488 1.136-14.4 2.16-28.736 4.832-43.088 7.328-1.52 0.272-3.040 0.64-4.448 1.2-15.232 6.272-30.352 12.848-44.208 21.92-11.76 7.712-20.512 18.384-29.056 29.216-1.072 1.36-2.704 2.272-4.080 3.408-0.288-0.208-0.608-0.384-0.912-0.592 0.064-1.184-0.064-2.448 0.272-3.536 1.296-4.064 2.544-8.144 4.192-12.032 1.2-2.784 2.736-5.552 4.64-7.888 8.752-10.56 19.632-18.752 30.416-27.040 1.648-1.264 3.248-2.624 4.96-3.792 2.064-1.408 2.32-2.88 0.448-4.576-4.608-4.224-9.136-8.528-13.888-12.576-4.896-4.176-10.064-8.032-15.024-12.112-0.816-0.672-1.2-1.856-1.792-2.816 0.976-0.56 1.952-1.584 2.944-1.632 3.488-0.112 7.088-0.368 10.496 0.288 9.776 1.904 19.568 3.984 27.376 10.944 1.472 1.312 2.336 2.496 2.336 4.528-0.016 3.712 1.040 4.88 4.688 4.576 2.832-0.224 5.76-0.768 8.384-1.808 7.984-3.168 15.84-6.688 23.76-10.048 3.536-1.504 3.648-1.888 1.152-4.608-4.96-5.424-9.84-10.928-14.96-16.16-3.28-3.36-7.056-6.24-10.496-9.424-1.632-1.52-3.248-3.168-4.496-5.008-1.472-2.224-0.096-4.576 2.432-4.080 9.52 1.904 19.424 2.72 27.376 9.392 4.784 4.016 9.856 7.68 14.832 11.472 1.696 1.296 2.224 2.608 0.992 4.624-1.264 2.112-0.64 3.68 1.68 4.832 4.032 2.032 8.272 2.384 12.688 1.472 12.56-2.544 25.184-4.608 38.032-3.408 14.416 1.344 28.816 3.056 42.656 7.712 3.44 1.152 7.232 1.648 10.88 1.856 3.328 0.208 4.992-2.112 3.792-5.152-1.040-2.656-0.272-4.464 1.36-6.416 6.688-7.984 12.56-16.688 21.056-23.008 0.656-0.48 1.264-1.072 2.016-1.312 1.68-0.592 2.72 0.048 2.512 1.904-0.112 1.072-0.496 2.112-0.864 3.136-3.984 11.056-8 22.128-11.984 33.184-1.376 3.856-1.2 4.4 2.4 6.16 9.456 4.576 17.968 10.512 25.712 17.584 2.352 2.16 4.96 3.104 8.208 2.592 3.28-0.528 5.264-2.224 5.824-5.504 0.704-4.064 3.136-6.512 6.928-7.952 8.208-3.104 16.304-6.544 24.576-9.472 2.992-1.072 6.368-1.136 9.568-1.408 0.928-0.064 1.952 0.72 2.928 1.136 0.112 0.288 0.112 0.48 0.112 0.656z"></path>
</svg>
