<!-- Generated by IcoMoon.io -->
<svg version="1.1" xmlns="http://www.w3.org/2000/svg" width="512" height="512" viewBox="0 0 512 512">
<title>factions-order-fyreslayers</title>
<path fill="#fff" d="M311.968 351.472c-6.112-4.192-11.824-8.048-17.44-12.032-2.032-1.424-4.256-2.896-5.616-4.88-1.584-2.288-3.552-5.408-3.040-7.696 0.352-1.584 4.592-3.44 6.96-3.296 6.432 0.384 12.832 1.568 19.12 2.928 4.192 0.896 8.208 2.672 13.888 4.592-2.944-5.6-5.136-9.728-7.296-13.888-7.696-14.912-3.088-30.096 11.68-38.16 5.696-3.104 11.568-5.92 17.744-9.056-4.464-3.632-8.688-6.688-12.448-10.16-7.792-7.216-7.968-14.096-0.976-22.032 7.424-8.432 16.768-12.48 28.176-12.144 0.928-5.2-0.736-8.848-4.752-12.048-8.416-6.704-16.544-13.728-24.752-20.672-5.072-4.256-6.656-9.104-4.224-15.808 3.76-10.272 3.76-20.96 1.84-31.776-1.84-10.48-3.136-21.056-4.752-32.256-8.224 11.008-15.904 21.264-23.552 31.52-0.688 0.928-1.36 1.872-2.144 2.688-2.816 2.976-6.064 4.176-9.744 1.728-3.76-2.464-3.296-5.968-1.2-9.072 5.712-8.48 5.12-17.76 4.080-27.968-1.872 0.976-3.36 1.584-4.72 2.448-8.752 5.536-17.232 11.536-26.272 16.592-11.328 6.336-23.056 12-34.72 17.696-11.52 5.616-23.184 10.992-34.832 16.352-6.592 3.024-9.728 2.288-12.736-3.984-8-16.496-22.368-24.624-38.688-30.336-7.136-2.512-14.384-4.816-22.56-7.536 1.664-1.248 2.288-2 3.072-2.24 12.048-3.68 24.048-7.6 36.24-10.784 3.472-0.896 7.504 0.272 11.264 0.528 3.2 0.208 6.544 1.056 9.6 0.48 2.048-0.368 4.8-2.416 5.344-4.256 0.56-1.888-0.48-5.44-2.048-6.544-3.968-2.784-8.48-6.176-12.992-6.512-17.792-1.344-35.648-1.632-53.472-2.288-2.416-0.096-4.864-0.016-8.288-0.016 7.968-10.88 17.072-18.064 29.888-19.488 7.232-0.8 14.512-1.248 21.744-2.080 6.24-0.72 8.784-4.144 7.472-10.32-1.376-6.432-5.136-11.376-11.632-13.040-8.864-2.288-17.92-3.872-26.912-5.744-2.192-0.464-4.384-0.848-7.552-1.472 7.904-7.792 16.592-11.824 26.336-13.472 17.648-2.976 33.776 1.616 49.008 10.32 3.664 2.096 7.216 4.416 11.040 6.176 4.544 2.048 9.072 2.080 12.256-2.624 3.264-4.816 0.768-8.64-3.040-11.328-10.144-7.216-20.48-14.128-30.832-21.040-2.624-1.776-5.536-3.136-8.32-4.672 0.144-0.512 0.304-0.992 0.432-1.504 8.16 1.472 16.64 1.952 24.352 4.656 15.504 5.392 30.784 11.616 45.808 18.272 5.648 2.48 10.144 7.488 15.504 10.736 4.144 2.512 8.688 4.96 13.36 5.872 7.072 1.376 11.2-4.080 8.016-10.624-3.072-6.336-7.264-12.144-11.088-18.080-2.4-3.6-5.040-7.104-8.592-12.112 16.96 4.96 31.888 10.144 41.68 23.792 4.416 6.176 7.472 13.344 11.088 20.064 1.088 2.032 1.536 4.704 3.152 6.064 2.416 2.080 5.504 4.256 8.48 4.544 4.016 0.384 6.752-2.768 7.232-6.8 0.8-6.656 1.168-13.36 1.664-20.048 0.144-2.080 0.016-4.144 0.016-6.928 9.776 2.72 17.264 7.68 23.472 14.672 12.416 13.936 16.816 31.104 19.312 48.96 0.72 5.12 0.736 10.32 0.848 15.504 0.096 4.464-0.464 9.84 4.88 11.040 5.168 1.168 10.32-0.8 13.52-5.648 2.816-4.256 5.376-8.688 8.128-13.232 5.984 5.456 6.224 12.32 7.136 18.864 1.664 11.952 3.072 23.968 4.624 35.92 0.272 2.080 0.72 4.176 1.408 6.144 2.768 7.808 9.264 9.6 15.568 4.448 0.992-0.8 1.984-1.616 3.344-2.688 2.288 16.032-0.72 30.224-9.776 42.944-1.584 2.24-4.24 3.824-6.656 5.328-3.84 2.4-6.752 6.144-4.56 9.856 1.424 2.416 6.336 3.2 9.84 3.872 2.304 0.432 4.88-0.672 8.064-1.2 0 1.712 0.384 3.44-0.064 4.88-3.392 11.040-7.072 21.936-16.56 29.6-2.192 1.776-4.016 4.096-5.744 6.384-2.896 3.808-3.088 7.952 0 11.632 3.312 3.936 7.584 4.080 11.952 1.68 2.608-1.424 5.136-3.024 8.496-5.024-3.68 14.048-8.544 25.872-22.624 31.36-4.096 1.584-7.696 4.496-12.048 7.12 6.24 5.504 11.376 1.952 17.792 1.712-2.784 4.256-5.136 8.944-8.48 12.72-8.224 9.264-19.28 14.336-30.336 19.312-8.64 3.872-9.6 6.704-3.808 14.080 2.688 3.408 2.032 5.408-0.56 8.32-11.728 13.184-25.664 22.32-43.456 24.912-0.768 0.112-1.536 0.16-2.256 0.384-4.416 1.376-8.496 3.136-7.632 8.992 0.672 4.464 5.44 7.328 11.104 6.688 3.136-0.352 6.24-0.64 9.376-0.992 0.16 0.464 0.304 0.928 0.464 1.36-5.456 2.992-10.88 6.080-16.4 8.96-9.168 4.8-18.592 9.12-27.536 14.304-11.52 6.688-13.664 13.728-8.384 26.032 1.568 3.632 0.512 5.696-2.256 7.84-19.104 14.768-39.44 27.184-62.88 33.872-19.68 5.6-39.232 11.664-59.136 16.336-11.296 2.656-23.104 3.264-34.736 4.032-4.352 0.272-8.816-1.616-14.704-2.816 3.056-3.296 4.96-5.552 7.056-7.6 14.24-13.968 26.752-29.104 32.736-48.608 0.624-2 1.2-4.048 1.504-6.128 0.992-6.72-0.672-8.736-7.376-8.832-3.984-0.064-8.080-0.464-11.952 0.208-9.584 1.664-15.616 9.376-15.568 19.12 0.048 10-2.288 13.040-12.192 15.856-4.208 1.2-8.448 2.304-12.736 3.312-0.784 0.192-1.744-0.384-2.816-0.672 0.096-1.008-0.096-1.92 0.272-2.448 11.408-17.344 13.248-37.76 18.176-57.136 5.328-20.96 9.952-42.096 14.912-63.152 0.368-1.584 0.88-3.152 1.568-5.616 2.88 4.336 5.28 7.968 7.696 11.584 4.88 7.28 7.376 7.76 14.496 2.832 9.36-6.48 18.896-12.528 30.544-13.872 2.368-0.272 4.816-0.048 8.336-0.048-2.128 3.632-3.568 6.704-5.552 9.424-8.912 12.256-13.024 25.856-12.416 41.008 0.304 7.472 0.016 14.976-0.304 22.464-0.48 11.616 4.624 20.832 12.464 28.608 2.448 2.416 6.192 4.72 9.44 4.88 14.144 0.72 28.432 1.68 42.512 0.528 16.592-1.36 29.856-15.28 32.72-31.616 1.104-6.32 1.632-12.576-1.728-18.48-0.368-0.64-0.592-1.504-0.512-2.208 1.264-11.728-6.592-17.536-14.752-23.36-2.656-1.888-4.544-4.8-6.8-7.232 2.864-1.632 5.552-4.176 8.624-4.72 10.48-1.936 21.040-3.824 31.664-4.544 9.792-0.768 17.424-5.088 24.88-11.264z"></path>
<path fill="#fff" d="M352.64 218.224c-13.104 1.344-21.008 7.024-24.672 18.48-3.456 10.832-3.52 20.48 8 27.6-2.144 2.032-3.52 3.52-5.088 4.752-3.344 2.56-6.72 5.088-10.256 7.424-11.52 7.584-15.2 13.44-9.84 32.32 1.248 4.336 3.504 8.384 5.808 13.728-4.976-0.848-9.008-2.128-13.040-2.096-7.136 0.048-14.592-0.144-21.376 1.68-6.72 1.824-7.68 6.864-2.528 11.712 5.2 4.88 11.456 8.704 17.344 12.848 1.936 1.36 4.192 2.24 7.264 3.824-6.176 4.816-11.728 9.072-18.656 8.288-22.512-2.56-42.064 6.496-61.728 15.040-11.568 5.040-16.928 16.688-13.024 26.016 0.208 0.512 0.672 0.896 1.552 2.080 2.304-3.296 4.416-6.32 6.544-9.36 5.328-7.6 13.136-9.952 21.68-6.48 13.84 5.616 22.192 21.488 19.232 36.4-2.672 13.44-15.648 24.976-30.848 24.032-8.224-0.512-16.496-0.016-24.768-0.064-13.984-0.064-22.4-7.12-24.448-20.896-5.344-35.712 6.032-64.448 35.648-85.76 15.568-11.2 31.488-22.080 43.424-37.488 6.928-8.944 12.16-18.592 12.144-30.368 0-3.072-0.112-6.704-3.92-6.112-2.304 0.368-6.016 3.84-5.872 5.696 0.992 12.656-5.984 20.96-14.256 28.784-5.44 5.136-10.784 10.384-16.384 15.328-12.768 11.2-22.048 11.872-35.392 1.376-5.248-4.128-8.784-4.24-14.384-0.832-16.32 9.984-33.568 4.288-40.88-13.504-1.728-4.24-1.456-9.728-0.64-14.4 0.464-2.72 3.824-4.928 5.872-7.344 0.592 0.352 1.2 0.688 1.792 1.056 0 1.216 0 2.464 0 3.68 0.064 10.56 3.968 13.808 14.656 13.088 12.32-0.8 20.8-7.296 26.592-17.584 3.088-5.488 5.712-11.312 7.744-17.264 3.232-9.424 8.832-16.432 17.904-20.64 1.824-0.848 3.504-2.048 5.456-3.232-6.688-4.96-18.688-5.344-25.504-1.168-7.968 4.88-11.36 11.712-8.224 21.152-0.416 0.352-0.8 0.688-1.216 1.056-5.616-4.176-11.248-8.336-17.008-12.608-8.992 7.536-5.392 18-6.4 28.944-3.44-3.92-6.432-6.72-8.704-10.048-4.192-6.112-9.488-8.896-17.056-10.048-8.384-1.264-16.192-5.952-24.576-7.632-9.072-1.824-14.784-8.368-21.408-13.392-6.816-5.136-12.352-12.144-18.48-18.384 0.464-0.592 0.896-1.2 1.36-1.792 3.472 1.584 7.056 2.992 10.416 4.832 9.888 5.44 20.384 6.32 31.248 4.304 1.84-0.352 3.504-1.92 5.088-3.152 3.136-2.448 5.808-5.808 9.28-7.424 18.176-8.384 32.672-21.328 45.824-36.016 2.512-2.816 4.704-5.488 9.216-3.36 1.344 0.624 3.664-0.464 5.376-1.152 13.296-5.392 26.448-11.2 39.888-16.224 20.432-7.664 39.168-18.336 57.904-32.032-0.48 3.456-0.56 5.968-1.2 8.32-1.312 4.608-2.976 9.104-4.416 13.632-1.888 6.016 0.32 9.328 6.64 9.424 7.968 0.112 14.544-3.264 19.536-9.376 3.632-4.448 6.896-9.216 10.416-13.776 1.376-1.776 3.024-3.344 5.616-6.176 1.248 3.36 2.656 5.6 2.832 7.92 1.296 16.512 1.536 32.88-5.696 48.528-2.896 6.288-1.52 7.104 4.384 10.624 7.808 4.656 15.184 10.112 22.48 15.568 2.144 1.584 3.408 4.416 5.76 7.584zM192.48 307.328c8.112 1.984 9.888 1.040 12.688-5.76 0.48-1.168 1.952-2.24 3.232-2.768 7.584-3.296 7.632-3.312 4.8-11.472-0.384-1.152-0.624-2.368-1.040-3.936 2.512 0.416 4.352 0.736 6.224 1.008 8.912 1.312 14.832-3.664 14.048-12.608-0.32-3.824-2.352-7.584-3.92-11.248-1.888-4.448-4.976-4.816-8.496-1.744-1.408 1.248-2.896 2.576-3.776 4.192-7.92 14.608-15.728 29.312-23.76 44.336zM206.336 182.88c-10.944 3.392-16.768 7.968-18.176 13.984 9.68-0.192 14.912-4.048 18.176-13.984z"></path>
</svg>
