<!-- Generated by IcoMoon.io -->
<svg version="1.1" xmlns="http://www.w3.org/2000/svg" width="512" height="512" viewBox="0 0 512 512">
<title>factions-chaos-beasts-of-chaos</title>
<path fill="#fff" d="M485.312 8.928c2.16 4.672 4.304 9.328 6.416 14 0.208 0.432 0.208 0.976 0.176 1.456-0.432 9.392-0.752 18.768-1.328 28.176-0.528 8.368-2.528 16.464-5.040 24.48-3.968 12.688-11.728 23.152-19.040 33.936-1.616 2.368-2.208 5.408-3.76 7.84-1.184 1.84-2.992 3.36-4.736 4.736-6.128 4.88-12.256 9.856-18.656 14.368-3.824 2.688-8.144 4.736-12.384 6.8-3.44 1.664-7.056 3.040-10.656 4.288-1.984 0.688-4.144 0.768-6.208 1.28-1.232 0.304-2.416 0.768-3.552 1.28-1.28 0.576-2.464 1.44-3.792 1.872-4.192 1.376-8.4 3.392-12.656 3.648-3.584 0.208-6.32 1.232-9.168 2.992-1.408 0.864-3.104 1.504-4.752 1.728-1.216 0.176-2.992 0-3.76-0.768-2.32-2.32-3.696-2.368-6.32 0.064-3.92 3.648-6.16 7.664-5.296 12.864 0.496 2.912 1.92 5.744 3.2 8.48 1.344 2.912 3.168 5.632 4.496 8.56 1.008 2.208 1.6 4.624-0.464 6.768-0.224 0.256-0.32 0.736-0.304 1.12 0.112 6.64 0.368 13.28 0.368 19.92 0 4.736-0.208 9.488-0.608 14.192-0.144 1.552-1.28 2.992-1.888 4.496-0.496 1.28-1.296 2.624-1.28 3.92 0.016 3.664-1.216 6.704-3.68 9.376-0.592 0.64-0.864 1.6-1.456 2.24-0.768 0.816-1.664 1.536-2.608 2.16-0.48 0.32-1.28 0.208-1.712 0.544-5.024 3.968-10.080 7.92-14.32 12.8-1.024 1.184-2.304 2.24-3.68 3.008-2.896 1.648-4.928 3.76-5.312 7.248-0.272 2.512-0.8 4.992-1.232 7.488-0.608 3.6 0.336 5.856 2.896 6.848 2.464 0.928 4.512 0 6.496-2.96 0.256-0.384 0.592-0.736 0.96-1.184 0.32 0.368 0.64 0.544 0.688 0.768 2.096 8.96 8.992 15.504 12.128 23.952 1.92 5.136 5.632 8.96 9.696 12.272 4.832 3.968 9.808 8 15.344 10.784 4.704 2.368 10.224 3.6 15.488 4.304 5.472 0.736 11.136 0.064 16.704 0.272 2.368 0.096 4.704 0.816 7.056 1.248 0.688 0.144 1.408 0.416 2.080 0.336 4.064-0.496 8.128-0.96 12.16-1.648 7.488-1.296 13.088-6.224 19.072-10.288 6.16-4.192 12.448-8.416 17.728-13.616 6.064-5.968 11.36-12.816 16.4-19.712 1.408-1.936 1.056-5.376 1.024-8.144-0.016-1.728 0.336-2.64 1.712-3.76 1.44-1.168 2.736-2.896 3.28-4.624 1.6-4.928 2.848-9.968 4.144-14.992 0.384-1.456 0.48-2.992 0.736-4.464 0.544-3.232 1.216-6.48 1.616-9.744 0.368-2.896 0.688-5.84 0.656-8.752-0.016-3.44 2.208-5.584 4.016-8.944 2 6.976 3.792 13.088 5.536 19.2 1.248 4.352 2.848 8.672 3.68 13.12 0.592 3.216 0.32 6.64 0.208 9.968-0.144 4.656-0.48 9.312-0.736 13.952-0.432 8.080-0.464 16.192-1.456 24.208-0.768 6.128-2.832 12.096-4.224 18.128-1.024 4.4-1.728 8.88-2.912 13.232-0.8 2.992-1.68 6.112-3.36 8.64-2.896 4.4-6.432 8.352-9.648 12.544-0.736 0.928-1.6 1.984-1.776 3.072-1.216 7.28-5.776 12.272-10.928 17.008-10.976 10.128-24.080 16.624-37.584 22.448-6.96 2.992-14.272 4.192-21.936 3.216-1.968-0.256-4.064 0.64-6.096 1.024-1.28 0.224-2.528 0.608-3.808 0.736-2.624 0.208-5.264 0.496-7.888 0.304-2.56-0.208-5.248-0.576-7.568-1.552-3.76-1.616-7.392-3.12-11.488-4.032-4.144-0.928-8.736-1.664-12.48-4.752-3.536-2.944-7.68-5.264-11.808-7.36-5.952-2.992-11.088-6.848-15.664-11.648-2.88-3.008-6.064-6.208-9.792-7.808-3.488-1.504-7.872-1.568-11.792-1.328s-5.52 3.856-4.304 7.68c0.576 1.76 0.688 3.232-0.656 5.040-0.848 1.136-0.272 3.424-0.064 5.184 0.16 1.328 0.976 2.608 1.024 3.904 0.16 6.096-0.496 12.272 0.48 18.208 0.592 3.584 1.728 7.184 1.232 10.72-0.848 5.968-2.448 11.856-3.856 17.744-0.144 0.608-1.248 0.928-1.728 1.552-0.864 1.072-1.872 2.144-2.352 3.392-2.144 5.744-2.144 12.064-6 17.488-3.264 4.608-4.832 10.4-7.184 15.664-1.072 2.4-2.416 3.968-5.424 4.56-1.568 0.304-2.672 3.312-3.872 5.152-0.928 1.408-1.504 3.168-2.688 4.272-0.736 0.656-2.688 0.848-3.488 0.32s-1.328-2.24-1.232-3.36c0.144-1.664 0.736-3.392 1.536-4.88 1.296-2.4 0.912-4.432 0.368-7.024-0.528-2.528 0.864-5.616 1.888-8.256 1.12-2.96 2.032-5.472-0.464-8.368-1.008-1.168-0.864-3.472-0.896-5.264-0.064-9.232-0.048-18.448 0-27.696 0.016-2.4-0.544-4.288-2.8-5.584-0.848-0.48-1.616-1.68-1.76-2.672-0.608-4.384-1.232-8.784-1.408-13.2-0.224-5.568-0.272-11.152 0.016-16.72 0.304-5.856-2.080-11.136-2.992-16.72-0.496-2.992-0.928-5.968-1.408-8.96-0.16-1.072-0.368-2.144-0.528-3.216-0.304-0.048-0.608-0.112-0.912-0.16-0.496 1.808-1.328 3.6-1.44 5.424-0.48 8.304-0.768 16.608-1.072 24.912-0.048 1.456 0.064 2.624-1.888 3.168-0.864 0.256-1.76 2.096-1.776 3.232-0.176 5.68-0.048 11.36-0.064 17.040-0.016 5.104-2.144 6.64-6.816 4.896-1.568 8.8 1.872 18.128-2.096 26.112 0.528 3.872 1.568 7.36 1.328 10.768-0.48 6.496 1.12 12.608 2.688 18.72 0.848 3.328 2.32 6.544 3.76 9.696 1.68 3.648 0.576 9.984-2.912 13.68-0.8-1.024-1.712-1.92-2.304-3.008-1.888-3.536-3.6-7.184-5.536-10.72-0.96-1.728-2.032-3.52-3.392-4.896-4.304-4.336-5.856-10.112-8.208-15.44-2.88-6.576-5.52-13.232-8.096-19.92-0.928-2.416-2.528-5.632-1.648-7.44 1.488-3.104 0.736-6.048 1.072-9.008 0.112-1.088-0.704-2.288-1.024-3.44-0.256-0.928-0.496-1.92-0.496-2.896-0.048-13.68-0.048-27.376-0.064-41.056 0-0.896 0-1.76 0-2.4-6.64-1.216-9.696-6.048-13.024-10.864-0.768 2.304-1.968 3.040-4.784 2.512-2.048-0.384-4.928 1.136-6.752 2.64-8.672 7.088-17.104 14.48-25.632 21.776-0.464 0.384-0.976 1.024-1.456 1.008-5.36-0.144-8.992 3.424-12.912 6.16-3.152 2.192-6.368 3.168-10.224 3.040-9.216-0.368-17.312 3.584-25.312 7.392-4.352 2.080-8.304 4.064-13.088 1.184-1.216-0.736-3.12-0.432-4.704-0.304-2.352 0.224-4.656 0.8-6.976 1.12-2.4 0.32-4.816 0.704-7.232 0.736-6.448 0.064-12.912 0-18.56-3.92-0.912-0.64-2.256-0.896-3.392-0.864-6.736 0.16-11.568-3.392-16.016-7.84-2.944-2.912-5.344-6.448-10.032-7.184-1.76-0.272-3.312-2.080-4.864-3.312-8.352-6.688-13.68-15.552-18.064-25.088-1.552-3.376-3.488-6.336-6.176-9.12-4.656-4.816-6.48-11.296-7.936-17.808-1.28-5.696-3.104-11.296-4.624-16.928-0.704-2.624-1.392-5.248-1.984-7.888-0.912-4.144-2.032-8.272-2.512-12.48-0.528-4.784-0.528-9.648-0.624-14.464-0.064-3.232 0.224-6.496 0.048-9.744-0.144-2.576-0.416-5.248-1.216-7.68-2-6.112-1.12-12.368-0.608-18.4 0.864-10.352 2.736-20.64 4.128-30.976 0.32-2.416 0.8-4.448 3.424-5.52 1.216-0.48 2.032-1.92 3.168-3.056 0.576 0.464 1.328 0.768 1.568 1.328 2.24 4.864 3.376 9.824 1.648 15.168-0.608 1.888-1.072 3.872-1.28 5.84-0.176 1.776 0.224 3.376 2.576 3.792 0.704 0.112 1.568 1.232 1.776 2.032 1.328 5.104 2.512 10.272 3.696 15.424 0.464 1.936 0.704 3.92 1.136 5.856 1.376 6.016 2.752 12.016 4.176 18.016 0.112 0.48 0.432 0.96 0.416 1.44-0.208 5.856 2.832 10.816 4.352 16.192 2.080 7.328 6.176 13.456 10.88 19.232 2.256 2.784 5.152 5.056 7.552 7.76 1.168 1.328 1.552 3.424 2.832 4.56 1.984 1.776 4.448 2.992 6.64 4.56 2.96 2.128 5.776 4.448 8.784 6.496 4.992 3.424 9.952 6.656 16.576 6.256 6.864-0.432 13.776-0.096 20.672-0.096 0.704 0 1.648 0.256 2.080-0.096 4.224-3.472 10.304-1.392 14.624-5.424 3.2-2.992 7.776-4.448 11.616-6.768 2.128-1.296 3.92-3.152 6-4.512 2.528-1.648 5.376-2.832 7.808-4.608 3.712-2.736 7.168-5.84 10.768-8.736 2.032-1.648 4.384-2.992 6.128-4.88 2.304-2.512 3.952-5.664 6.272-8.144 3.488-3.744 7.36-7.12 11.024-10.704 1.44-1.408 2.72-2.96 4.032-4.448 0.064 0.416 0.144 0.816 0.208 1.232 2.944 0.576 5.888 1.28 8.88 1.712 4.512 0.64 6.528-3.824 5.024-7.136-1.392-3.072-1.344-5.904-0.96-8.272-1.728-1.216-3.008-2.096-4.304-2.992-3.328-2.256-6.704-4.448-9.968-6.752-1.056-0.736-1.728-1.968-2.752-2.736-1.12-0.848-2.448-1.44-3.664-2.128-0.336-0.176-0.912-0.336-0.976-0.592-1.376-5.376-6.496-7.568-9.648-11.456-0.256-0.304-0.656-0.576-0.704-0.912-0.64-3.52-1.504-7.024-1.76-10.56-0.16-2.24-0.592-4.064-2.048-5.776-3.376-3.984-3.536-8-0.96-12.48 0.704-1.232 1.136-2.8 1.184-4.224 0.224-7.888 0.368-15.808 0.384-23.696 0-1.248-0.656-2.48-0.96-3.744-0.16-0.688-0.304-1.44-0.176-2.128 1.184-7.168-0.896-14.304 0-21.456 0.272-2.144-0.736-2.736-2.752-2.896-2.288-0.176-4.544-0.768-6.768-1.328-2.192-0.528-4.064-0.816-4.352 2.256-0.256 2.56-2.32 2.528-3.904 1.984-4.816-1.664-9.536-3.648-14.304-5.504-0.64-0.256-1.376-0.592-2-0.496-2.992 0.416-5.616-0.016-7.728-2.448-0.416-0.464-1.648-0.704-2.144-0.432-3.392 1.824-6.528 0.16-9.696-0.592-3.28-0.768-6.608-1.6-9.76-2.8-8.080-3.12-16.096-6.384-24.080-9.744-13.792-5.824-23.488-16.768-33.76-27.072-12.128-12.208-20.704-26.416-26.304-42.608-2.256-6.592-5.152-12.96-7.232-19.6-1.888-6.064-2.608-12.32 1.408-18.24 3.392 4.080 7.216 7.84 10.064 12.272 4.672 7.232 10.928 12.432 18.4 16.384 7.872 4.176 15.856 8.16 23.68 12.416 5.216 2.832 10.112 6.288 15.44 8.832 5.312 2.528 10.992 4.288 16.512 6.32 2.304 0.848 4.656 1.616 7.008 2.352 0.464 0.144 1.12 0.224 1.504 0.016 6.16-3.6 11.616 0.272 17.296 1.648 0.48 0.112 1.056 0.384 1.488 0.256 6.096-2.128 11.952 0.864 18 0.768 4.736-0.064 9.264-0.256 13.552-2.352 2.096-1.008 3.648-0.384 4.192 1.84 0.416 1.616 0.416 3.36 0.624 5.184 0 0 0.208 0.256 0.304 0.224 6.336-1.968 8.128 3.488 10.432 7.072 2.576 4.016 8.88 5.344 12.752 0.368 1.296-1.648 3.552-2.56 4.832-4.192 2.752-3.552 6.656-2.672 10.224-3.584 3.072-0.768 6.704-1.232 9.056-4.544 2.144-3.040 6.016-3.952 9.472-5.152 1.408-0.496 2.848-1.008 4.192-1.696 2.784-1.408 5.424-3.056 8.256-4.336 1.328-0.592 2.896-0.592 4.384-0.768 4.56-0.528 9.12-1.344 13.68-1.408 3.856-0.064 7.728 0.896 11.584 1.072 1.728 0.096 3.536-0.544 5.296-0.896 2.352-0.464 4.704-1.136 7.072-1.408 2.096-0.256 4.288 0.144 6.384-0.144 6.064-0.768 11.792 0.864 17.616 2.128 2.736 0.592 5.664 0.32 8.48 0.592 5.296 0.544 10.576 1.136 15.856 1.888 1.184 0.16 2.192 1.28 3.376 1.616 5.408 1.552 10.624 3.488 15.632 6.112 1.296 0.688 3.376 0.096 5.040-0.224 1.184-0.224 2.288-0.928 4.176-1.776 0 2.304-0.384 4.016 0.096 5.408 0.528 1.552 1.6 3.584 2.896 3.984s3.52-0.496 4.672-1.552c2.208-1.984 3.808-4.672 6-6.688 1.392-1.28 3.36-2 5.184-2.736 10.336-4.080 21.12-1.328 31.68-2.144 1.92-0.16 3.792-1.056 5.664-1.6 1.552-0.464 3.072-0.976 4.624-1.392 6.976-1.872 14.048-3.424 20.944-5.584 17.536-5.568 28.928-18.4 38.336-33.328 3.552-5.632 6.608-11.584 9.344-17.648 1.68-3.744 2.192-7.984 3.488-11.904 1.648-4.656 3.488-8.944 7.52-11.632zM180.928 230.688c-0.224 0.096-0.48 0.16-0.736 0.256 1.296 4.496 2.464 9.040 3.92 13.488 0.976 2.96 5.952 6.928 8.24 6.32 2.672-0.704 3.808 0.432 5.040 2.352s3.424 2.8 5.264 1.712c1.6-0.96 3.056-2.896 3.664-4.704 1.568-4.656 0.752-8.88-3.632-11.888-0.496-0.336-0.592-1.248-0.976-1.824-1.872-2.752-2.912-6.112-7.056-6.928-1.68-0.336-2.88-2.752-4.512-3.952-1.536-1.088-3.28-2.416-5.024-2.512-2.304-0.16-3.792 1.728-4.176 4.080-0.208 1.168-0.048 2.4-0.048 3.6zM360.032 220.736c-0.544 0.304-1.392 0.928-2.32 1.184-5.296 1.392-9.072 4.736-12.88 8.56-3.856 3.856-7.216 8.48-12.608 10.704-2.72 1.088-3.168 3.808-1.616 6.384 3.104 5.2 12.384 5.456 16.192 0.64 1.872-2.368 3.872-5.152 6.48-6.336 2.96-1.376 4.768-3.072 5.184-6.048 0.704-5.040 1.088-10.080 1.6-15.072z"></path>
</svg>
