<!-- Generated by IcoMoon.io -->
<svg version="1.1" xmlns="http://www.w3.org/2000/svg" width="512" height="512" viewBox="0 0 512 512">
<title>factions-death-nighthaunt</title>
<path fill="#fff" d="M376.24 205.424c0 4.576 0 9.152 0 13.728-0.4 1.52-0.976 3.008-1.12 4.56-0.752 7.232-1.488 14.496-1.984 21.76-0.224 3.296 0.368 6.672 0.112 9.968-0.816 9.808-1.76 19.6-2.864 29.392-0.896 8.112-1.648 16.304-3.296 24.288-2.128 10.32-4.976 20.48-7.792 30.624-0.656 2.336-2.032 4.848-3.824 6.4-2.592 2.272-3.872 4.88-4.384 8.096-0.304 2.096-0.576 4.176-0.72 6.272-0.416 5.408-1.52 10.608-4.352 15.344-2.032 3.36-4.064 6.752-6.080 10.128-1.824 3.088-4.112 4.032-7.328 2.56-4.352-1.984-8.256-0.944-11.92 1.568-2.56 1.744-4.992 3.616-7.408 5.52-0.784 0.64-1.536 1.472-2 2.384-0.992 1.952-2.48 2.704-4.528 2.224-2.352-0.544-2.736 0.464-2.464 2.528 0.352 2.592 0.768 5.264 0.544 7.84-0.304 3.456-1.12 6.864-1.856 10.256-1.344 6.448-2.816 12.88-4.096 19.312-0.24 1.216 0.112 2.528 0.176 3.808 0.416 0.096 0.864 0.192 1.28 0.288 0.656-1.28 1.6-2.48 1.92-3.856 1.632-7.376 3.568-14.736 4.464-22.224 0.928-7.632 6.752-10.496 11.568-14.608 2.944 3.472 2.912 5.328 0.864 8.8-1.584 2.688-3.28 5.568-3.872 8.56-1.472 7.584-2.528 15.248-3.44 22.928-1.152 9.504-3.408 18.528-9.744 26-3.408 4.032-7.040 7.856-10.608 11.776-1.632 1.776-3.52 2.736-6.080 2.576-1.216-0.064-2.576 0.352-3.68 0.944-1.936 1.040-3.68 2.416-5.568 3.52-2.656 1.52-4.272 3.744-5.28 6.624-1.392 3.888-2.832 7.76-4.624 11.488-2.528 5.264-7.568 6.64-12.608 3.632-3.168-1.888-6.224-3.984-9.216-6.144-1.824-1.312-3.824-2.704-5.056-4.528-6.096-8.912-13.248-17.12-17.888-27.024-0.88-1.872-2.624-3.328-3.648-5.12-1.648-2.832-3.36-5.728-4.496-8.8-1.584-4.336-2.656-8.848-3.936-13.296-0.352-1.248-0.944-2.56-0.864-3.792 0.192-2.48-0.8-4.24-2.592-5.728-2.576-2.128-5.168-4.224-7.696-6.4-5.68-4.864-8.992-10.928-9.328-18.528-0.24-5.616-2.336-10.576-5.648-15.072-0.72-0.976-1.712-2.208-1.6-3.216 0.176-1.696 1.152-3.28 1.76-4.928 1.152 0.576 2.416 0.976 3.392 1.744 1.424 1.152 2.576 2.656 4.032 3.808 1.152 0.896 2.464 1.712 3.856 2.112 2.288 0.656 3.68 1.936 4.112 4.272 1.056 5.52 2.176 11.024 3.12 16.544 0.512 2.976 1.888 4.56 4.944 4.88 0-1.488 0.176-3.008-0.048-4.464-0.48-3.216-1.184-6.384-1.76-9.6-0.432-2.464 0.544-4.176 3.344-5.552 2.4 5.376 4.688 10.56 7.040 15.728 0.576 1.248 1.312 2.416 1.984 3.648 0.272-0.064 0.544-0.128 0.816-0.176 0.416-1.12 0.864-2.224 1.232-3.36 1.424-4.4 2.448-8.992 4.336-13.2 2.336-5.168 1.984-8.72-2.336-12.432-3.792-3.28-7.696-6.448-11.312-9.92-2.688-2.576-5.744-4.144-9.168-5.472-6.208-2.416-12.848-4.448-18.192-8.192-5.264-3.68-10.8-6.432-16.416-9.28-1.344-0.688-2.688-2.624-2.816-4.096-0.176-2.032 0.368-4.4 1.408-6.16 3.984-6.848 8.56-13.328 12.336-20.272 2.112-3.872 3.184-8.32 4.464-12.56 0.64-2.16-0.304-3.888-2.928-4.864-1.888 6.096-4.688 11.504-10.224 15.376-0.528-2.736-1.056-5.472-0.544-8.016 2.048-10.32 1.92-20-3.856-29.504-3.168-5.216-4.64-11.504-6.448-17.456-1.712-5.632-3.536-11.2-7.84-15.312-9.664-9.28-12.592-21.184-13.952-33.84-1.296-12.016 2.576-22.944 7.28-33.616 1.664-3.792 4.144-7.376 6.816-10.56 4.064-4.848 8.4-9.52 13.088-13.776 5.568-5.056 4.624-9.664 1.712-14.544-1.664-2.8-3.632-5.408-5.28-8.208-4.672-8.016-3.792-14.256 2.912-20.576 3.264-3.088 5.648-6.624 7.152-10.912 0.88-2.528 2.112-5.12 3.808-7.168 3.632-4.384 3.824-8.784 1.408-13.712-2.704-5.472-2.384-11.248-1.072-17.024 0.368-1.648 1.232-2.688 3.104-2.528 1.712 0.128 2.656 0.992 3.056 2.704 1.408 6.256 2.912 12.448 4.336 18.688 0.88 3.872 0.64 7.552-1.008 11.312-1.696 3.824-3.152 7.84-4 11.92-1.248 6.032-2.576 11.824-7.2 16.368-0.928 0.896-1.424 3.104-1.008 4.32 1.424 4.176 3.344 8.464 7.264 10.688 3.792 2.16 6.608 5.152 9.68 7.984 1.952 1.808 3.152 1.584 4.112-0.864 2.576-6.512 6.864-11.6 12.496-15.664 5.792-4.176 6.688-8.208 3.344-14.544-2.272-4.272-4.624-8.496-6.608-12.896-3.792-8.4-3.648-16.32 3.28-23.344 2.64-2.688 3.92-6 4.512-9.856 0.816-5.344 2.464-10.576 3.744-15.872 0.592-2.384 1.36-4.736 1.776-7.152 2.176-13.184 4.24-26.384 6.384-39.568 0.24-1.52 0.336-3.344 2.512-3.456 2.048-0.112 3.408 0.944 3.76 2.928 0.64 3.68 1.584 7.392 1.6 11.088 0.064 11.248 0.8 22.592-2.16 33.6-2.032 7.568-2.272 15.056-0.592 22.688 1.216 5.52 1.456 10.944-1.952 16-0.576 0.864-0.24 2.704 0.272 3.856 0.928 2.064 2.24 3.984 3.456 5.92 5.68 9.088 6.528 19.12 5.808 29.488-0.112 1.424-0.016 2.88-0.016 4.32 0.288 0.16 0.576 0.304 0.864 0.464 1.040-0.64 2.224-1.104 3.056-1.936 4.176-4.112 7.2-4.064 11.040 0.24 0.704 0.8 1.312 1.696 2.176 2.288 1.12 0.768 2.416 1.776 3.648 1.808 6.288 0.016 10.8 3.152 14.592 7.792 4.448 5.456 7.568 11.424 7.568 18.656 0 2.704 1.28 3.872 4.144 4.336 2.336 0.368 4.64 1.888 6.624 3.344 1.856 1.36 3.28 3.296 5.232 5.344 0-2.176 0.24-3.92-0.048-5.568-0.768-4.32-1.424-8.72-2.768-12.88-3.152-9.744-2.16-19.104 2.16-28.192 0.512-1.072 1.824-2.272 2.944-2.48 3.744-0.72 4.688-1.216 5.232-5.040 0.592-4.064 0.896-8.208 1.152-12.32 0.176-2.976 0.976-5.568 3.584-7.232 1.92-1.216 3.92-0.704 4.464 1.392 1.984 7.504 5.376 14.832 3.040 22.928-0.112 0.416-0.064 0.88-0.048 1.312 0.288 5.584 0.576 11.184 0.88 16.768 0.576 10.976 1.152 21.952 1.696 32.912 0.048 0.8-0.016 1.584-0.128 2.352-0.416 3.456-0.88 6.912-1.312 10.368-0.336 2.592-0.432 5.264-0.992 7.808-0.816 3.76-2.032 7.456-2.944 11.216-1.648 6.688-0.816 12.832 4.112 18.064 1.584 1.696 2.448 1.696 3.584-0.224 2.16-3.632 4.352-7.216 6.432-10.912 0.528-0.944 1.008-2.176 0.896-3.232-0.64-6.288-0.944-12.672-2.336-18.816-1.6-7.136-1.248-13.792 1.152-20.688 1.808-5.152 2.8-10.608 3.76-16 0.896-5.088 1.184-10.272 1.936-15.376 0.544-3.632 2.208-7.264 2.032-10.8-0.4-7.52-1.6-15.024-2.656-22.512-0.512-3.632-2.752-6.272-5.968-7.92-4.576-2.304-7.504-6.032-8.432-10.864-1.072-5.584-1.808-11.28-1.936-16.96-0.16-6.4 1.888-12.384 6.4-17.136 3.344-3.52 4.336-7.568 3.616-12.144-0.592-3.712-1.296-7.456-2.24-11.088-1.808-6.864-2.992-13.76-1.76-20.864 0.304-1.808 0.864-3.344 2.944-3.44 1.984-0.080 2.976 1.12 3.408 2.992 0.976 4 1.888 8.048 3.088 12 3.040 10.192 6.224 20.336 9.312 30.496 1.184 3.92 1.056 7.76-0.544 11.616-0.592 1.408-0.688 3.088-0.752 4.64-0.336 8.144 1.040 16.352-0.816 24.448-0.16 0.656-0.112 1.456 0.096 2.096 1.216 3.744 2.576 7.44 3.76 11.184s3.328 7.552 3.168 11.264c-0.368 8.816-1.296 17.712-3.040 26.384-1.568 7.904-1.488 15.232 1.744 22.656 1.776 4.064 2.832 8.448 4.048 12.768 0.656 2.352 0.72 4.88 1.456 7.216 1.568 5.056 1.92 10.192 1.488 15.408-0.704 8.8-0.72 8.816 6.496 13.76 1.008 0.688 2.128 1.216 3.632 2.064 0.752-7.696 0.592-14.56-2.16-21.152-2.24-5.408-3.296-11.088-1.824-16.768 1.344-5.152 3.408-10.128 5.328-15.12 1.584-4.112 2.448-8.096 2.272-12.72-0.304-8.112 2.576-10.56 9.68-7.984 0.336 0.112 0.656 0.24 1.008 0.288 2.048 0.224 2.928 1.248 2.704 3.344-0.128 1.216 0 2.464 0.112 3.696 0.784 8.208 0.768 16.32-1.68 24.32-0.336 1.072-0.352 2.24-0.576 3.36-1.296 6.608 1.824 12.24 3.696 18.128zM189.696 170.592c-0.992 0.896-1.824 1.536-2.528 2.288-6.512 6.912-13.024 13.824-19.488 20.768-6.032 6.496-9.168 14.56-8.896 23.040 0.304 9.6 1.936 19.28 4.16 28.656 3.168 13.392 8.032 26.384 9.904 40.112 0.128 1.008 0.688 1.952 1.040 2.944 0.352-0.048 0.704-0.112 1.072-0.16 0-4.16 0.192-8.336-0.048-12.48-0.272-4.288-1.216-8.544-1.392-12.832-0.288-6.432-1.216-12.544-5.216-17.904-2.288-3.040-2.384-6.528-1.008-10.032 0.656-1.712 1.584-3.36 2-5.152 0.368-1.568 0.592-3.344 0.192-4.864-1.296-4.992-0.080-9.040 4.464-11.744 3.28-1.952 6.88-3.344 10.56-5.088 0.432 4.496-0.528 8.096-4.24 10.576-1.648 1.104-2.048 2.176-1.056 4.176 0.752 1.504 0.864 3.52 0.624 5.216-0.416 2.752-1.456 5.408-2.048 8.16-0.304 1.424 0.24 2.944 1.888 2.8 0.992-0.080 2.4-1.168 2.704-2.112 2.224-6.64 4.144-13.376 6.288-20.048 1.36-4.224 3.648-7.92 6.704-11.216 1.072-1.168 1.808-3.44 1.504-4.976-1.808-9.216-3.936-18.368-5.984-27.52-0.272-0.832-0.752-1.584-1.216-2.624zM297.952 368.912c3.152 0 5.392-1.184 8.32-3.712 4.112-3.568 8.032-7.488 12.624-10.32 7.696-4.752 11.68-12.192 15.712-19.664 0.352-0.656-0.368-2.736-0.944-2.912-3.792-1.040-7.744-2.688-11.504-2.352-7.936 0.704-15.84 2.24-22.448 7.408-1.776 1.408-3.92 2.384-5.696 3.792-1.040 0.816-2 1.984-2.448 3.168-1.648 4.448-4.16 8.288-7.456 11.68-1.104 1.12-2.336 2.16-3.328 3.392-2.064 2.624-1.568 4.112 1.632 5.12 4.352 1.36 8.72 2.656 13.088 3.968 0.928 0.272 1.92 0.352 2.448 0.432zM227.264 365.552c0.048 0.224 0.080 0.432 0.16 0.64 4.992-1.296 9.984-2.56 14.96-3.872 3.264-0.88 3.536-1.744 1.104-4.096-3.92-3.76-8.368-7.056-11.904-11.136-3.392-3.888-7.44-5.76-12.176-7.264-3.232-1.040-6.176-3.104-9.136-4.944-2.384-1.488-4.448-3.456-6.8-4.976-2.4-1.568-3.472-0.976-3.92 1.824-0.432 2.864-1.072 5.696-1.344 8.576-0.544 6.352 1.216 12.096 5.824 16.528 6.432 6.16 14.288 8.976 23.216 8.72zM270.912 388.736c0.416-0.128 0.816-0.24 1.232-0.368-1.92-4.88-3.792-9.792-5.856-14.608-0.192-0.464-2.288-0.816-2.576-0.432-2.096 2.528-4.8 4.992-5.648 7.968-1.808 6.112-2.688 12.512-3.712 18.832-0.864 5.216 2.272 10.832 6.96 13.12 2.8 1.36 3.504 0.976 4.768-1.872 0.592-1.344 1.568-2.992 2.768-3.472 4.416-1.824 5.824-4.352 4.56-8.976-0.944-3.36-1.68-6.784-2.48-10.16zM255.2 492.704c0.368-1.456 0.688-2.24 0.8-3.088 0.688-4.976 1.36-9.92 1.984-14.896 0.24-1.92 0.88-4.048 0.304-5.728-1.888-5.52-0.288-10.272 2.064-15.184 1.104-2.272 1.648-4.992 1.712-7.52 0.128-6.752-0.096-13.536-0.288-20.288-0.016-0.992-0.576-2.448-1.296-2.768-0.784-0.352-2.24 0.112-3.056 0.688-1.824 1.312-2.288 3.296-2.272 5.584 0.016 2.688 0.416 5.824-0.816 7.936-2.576 4.4-3.632 8.848-3.264 13.792 0.72 9.376 1.472 18.752 2.176 28.144 0.080 1.216 0.368 2.688-0.16 3.632-1.984 3.616 0.016 6.208 2.096 9.68zM288.048 425.904c-0.304-0.176-0.64-0.352-0.944-0.528-1.6 1.872-3.36 3.648-4.768 5.68-1.584 2.288-3.12 3.968-6.224 2.528-1.28-0.576-1.872 0.176-1.536 1.696 0.88 4.176 1.696 8.368 2.4 12.56 0.64 3.808-0.288 7.328-2.512 10.496-2.88 4.112-4.448 8.736-5.328 13.616-0.336 1.824-0.432 3.696-0.656 5.552 0.288 0.16 0.576 0.336 0.864 0.48 1.248-1.392 2.448-2.864 3.792-4.176 1.536-1.52 3.008-3.392 4.88-4.272 4.144-1.952 6.032-4.992 6.352-9.456 0.592-8.048 1.312-16.080 2.128-24.144 0.368-3.344 1.040-6.672 1.568-10.032zM234.032 415.28c-0.368 1.008-0.688 1.536-0.752 2.096-0.72 7.056-1.504 14.096-2.032 21.168-0.080 1.28 0.544 2.816 1.312 3.888 4.208 5.904 7.936 12 10.256 18.928 0.24 0.752 0.944 1.344 1.456 2 0.48-1.712 0.336-3.088 0.224-4.464-0.624-6.736-1.52-13.44-1.776-20.176-0.24-6.16-0.592-12.080-4.928-17.008-0.96-1.104-1.424-2.592-2.176-3.888-0.4-0.752-0.88-1.424-1.584-2.528zM235.728 316.576c0.336-0.24 0.656-0.48 0.96-0.752-0.304-0.864-0.432-1.824-0.928-2.56-3.152-4.736-6.352-9.424-9.568-14.096-3.296-4.848-6.624-9.664-9.904-14.528-0.928-1.392-1.744-2.864-2.592-4.32-0.336 0.064-0.64 0.128-0.96 0.176-0.464 2.864-1.36 5.76-1.248 8.608 0.112 2.816 1.232 5.584 2.032 8.368 0.224 0.752 0.72 1.488 1.296 2.032 1.6 1.472 3.328 2.832 5.024 4.208 5.328 4.32 10.624 8.576 15.904 12.88zM283.568 408.64c3.696-2.464 4.944-5.584 3.52-8.4-1.152 2.768-2.24 5.376-3.52 8.4zM274.24 365.92c0.832 1.776 1.488 3.216 2.304 4.944 1.424-3.232 1.232-3.648-2.304-4.944z"></path>
<path fill="#fff" d="M266.928 0.016c3.104 2.24 3.824 5.808 4.032 9.104 0.544 9.2 0.72 18.432 0.704 27.632 0 2.832-1.28 5.632-1.744 8.496-0.432 2.656-1.104 5.44-0.752 8.048 1.584 12.32 3.968 24.496 10.048 35.536 0.928 1.664 1.92 3.584 3.44 4.592 9.84 6.528 8.448 26.048-0.816 33.824-7.152 5.984-15.36 6.272-23.296 1.344-3.968-2.464-4.88-5.824-5.808-9.68-0.896-3.824-0.048-7.312 1.952-10.576 3.184-5.264 2.8-6.448-0.944-11.44-4.672-6.272-8.928-12.832-13.152-19.408-2.096-3.264-2.656-7.056-2.336-10.912 0.752-8.688 3.76-16.32 10.192-22.528 3.088-2.992 5.984-6.224 8.544-9.68 1.344-1.808 2.112-4.208 2.512-6.464 1.424-7.76 2.48-15.6 3.92-23.392 0.288-1.584 1.632-2.976 2.48-4.464 0.336-0.016 0.688-0.016 1.040-0.016z"></path>
</svg>
