<!-- Generated by IcoMoon.io -->
<svg version="1.1" xmlns="http://www.w3.org/2000/svg" width="32" height="32" viewBox="0 0 32 32">
<title>factions-order-stormcast-vanguard</title>
<path fill="#fff" d="M29.99 0.065c-0.297 0.307-0.612 0.599-0.889 0.923-0.885 1.029-1.753 2.072-2.631 3.107-0.376 0.443-0.764 0.876-1.14 1.318-0.057 0.068-0.106 0.153-0.126 0.239-0.045 0.193 0.026 0.276 0.227 0.277 0.407 0.003 0.816-0.005 1.222 0.001 0.102 0.001 0.202 0.046 0.303 0.071-0.043 0.094-0.064 0.21-0.133 0.278-0.368 0.367-0.733 0.74-1.128 1.078-0.923 0.79-1.865 1.561-2.799 2.341-0.008 0.007-0.018 0.014-0.024 0.022-0.334 0.373-0.371 0.244-0.644 0.023-0.426-0.345-0.855-0.687-1.349-0.934-0.069-0.035-0.13-0.090-0.221-0.153 0.357-0.306 0.695-0.591 1.030-0.88 0.143-0.125 0.282-0.255 0.413-0.392s0.106-0.232-0.073-0.274c-0.147-0.035-0.299-0.050-0.448-0.067-0.107-0.012-0.219-0.001-0.325-0.022-0.054-0.011-0.124-0.058-0.143-0.106-0.014-0.034 0.031-0.111 0.071-0.145 0.221-0.193 0.449-0.377 0.673-0.565 0.681-0.565 1.356-1.136 2.041-1.696 1.878-1.534 3.712-3.128 5.822-4.356 0.073-0.043 0.139-0.1 0.208-0.151 0.022 0.019 0.043 0.041 0.065 0.062z"></path>
<path fill="#fff" d="M20.526 11.77c-0.087 0.080-0.149 0.148-0.221 0.202-0.634 0.477-1.268 0.95-1.903 1.424-0.081 0.061-0.179 0.128-0.132 0.231 0.031 0.068 0.129 0.128 0.208 0.145 0.658 0.141 1.318 0.27 1.978 0.405 0.106 0.022 0.209 0.056 0.312 0.088 0.197 0.062 0.225 0.158 0.077 0.3-0.47 0.452-0.926 0.921-1.423 1.339-0.926 0.779-1.899 1.503-2.814 2.297-0.624 0.54-1.315 0.975-1.982 1.452-0.039 0.029-0.083 0.056-0.114 0.092-0.073 0.087-0.033 0.185 0.077 0.202 0.027 0.004 0.054 0.003 0.081 0.001 0.683-0.041 1.366-0.081 2.049-0.124 0.133-0.008 0.297-0.061 0.364 0.095s-0.099 0.22-0.191 0.299c-1.899 1.632-3.805 3.255-5.696 4.898-0.504 0.437-0.961 0.927-1.431 1.403-0.058 0.060-0.083 0.171-0.083 0.259 0 0.030 0.115 0.079 0.183 0.090 0.444 0.076 0.889 0.144 1.334 0.215 0.083 0.014 0.166 0.027 0.248 0.041 0.005 0.019 0.011 0.039 0.016 0.058-2.786 1.57-5.571 3.138-8.357 4.708-0.008-0.009-0.016-0.018-0.024-0.027 0.011-0.027 0.020-0.056 0.035-0.081 1.108-1.925 2.066-3.925 3.001-5.936 0.24-0.516 0.52-1.013 0.785-1.517 0.026-0.050 0.069-0.091 0.141-0.126 0.003 0.050 0.007 0.1 0.007 0.151 0.001 0.402-0.001 0.804 0.005 1.206 0.001 0.075 0.038 0.149 0.058 0.224 0.080-0.035 0.177-0.053 0.236-0.11 0.751-0.714 1.492-1.442 2.25-2.148 0.293-0.273 0.625-0.504 0.941-0.755 0.046-0.037 0.1-0.071 0.132-0.118 0.027-0.041 0.048-0.11 0.030-0.148-0.018-0.035-0.092-0.069-0.134-0.062-0.63 0.107-1.238-0.113-1.86-0.129-0.299-0.008-0.597-0.014-0.896-0.023-0.068-0.003-0.136-0.015-0.253-0.027 0.16-0.152 0.278-0.285 0.415-0.395 1.451-1.165 2.764-2.481 4.115-3.757 0.623-0.589 1.273-1.151 1.91-1.726 0.037-0.033 0.083-0.060 0.106-0.1 0.034-0.062 0.069-0.134 0.068-0.201 0-0.024-0.107-0.068-0.163-0.065-0.415 0.026-0.831 0.069-1.247 0.090-0.401 0.020-0.802 0.023-1.204 0.022-0.056 0-0.144-0.058-0.159-0.107-0.014-0.043 0.045-0.121 0.087-0.168 0.046-0.052 0.113-0.084 0.168-0.128 1.427-1.119 2.851-2.24 4.28-3.357 0.372-0.291 0.759-0.563 1.137-0.845 0.022-0.016 0.041-0.035 0.062-0.053 0.345-0.282 0.69-0.566 1.038-0.846 0.175-0.141 0.398-0.151 0.608-0.018 0.197 0.126 0.379 0.273 0.573 0.402 0.307 0.202 0.621 0.396 0.931 0.595 0.069 0.043 0.139 0.096 0.235 0.166z"></path>
<path fill="#fff" d="M16.247 32c-0.030-0.318-0.050-0.635-0.091-0.952-0.058-0.467-0.144-0.933-0.194-1.401-0.103-0.955-0.181-1.913-0.291-2.868-0.086-0.737-0.206-1.471-0.311-2.206-0.005-0.038-0.020-0.080-0.009-0.113 0.145-0.441-0.035-0.884 0.009-1.325 0.011-0.111-0.060-0.179-0.171-0.202-0.141-0.029-0.28-0.062-0.454-0.102 0.289-0.244 0.546-0.475 0.823-0.686 0.067-0.050 0.187-0.042 0.282-0.038 0.619 0.024 1.241 0.022 1.853-0.080 0.297-0.050 0.597-0.115 0.881-0.22 0.38-0.141 0.756-0.305 1.112-0.498 1.311-0.71 2.367-1.662 2.974-3.071 0.273-0.635 0.426-1.267 0.375-1.955-0.050-0.665-0.077-1.332-0.122-1.999-0.008-0.124-0.033-0.251-0.079-0.365-0.24-0.603-0.443-1.229-0.749-1.798-0.568-1.060-1.482-1.768-2.557-2.278-0.147-0.069-0.284-0.162-0.434-0.216-0.186-0.068-0.382-0.118-0.576-0.156-0.623-0.121-1.253-0.259-1.89-0.208-1.372 0.109-2.686 0.406-3.767 1.342-0.396 0.344-0.747 0.728-1.003 1.189-0.292 0.525-0.547 1.077-0.886 1.571-0.449 0.657-0.486 1.395-0.504 2.132-0.016 0.606 0.027 1.217 0.096 1.818 0.035 0.305 0.178 0.6 0.287 0.895 0.057 0.153 0.042 0.262-0.087 0.372-0.186 0.157-0.357 0.33-0.578 0.536-0.177-0.536-0.345-1.041-0.511-1.548-0.023-0.072-0.037-0.148-0.061-0.219-0.048-0.132-0.156-0.171-0.284-0.179-0.504-0.031-1.011-0.042-1.512-0.095-1.161-0.125-2.32-0.258-3.475-0.413-0.569-0.076-1.131-0.206-1.696-0.314-0.041-0.008-0.079-0.027-0.156-0.054 0.067-0.022 0.096-0.031 0.128-0.042 0.254-0.087 0.505-0.191 0.763-0.258 0.961-0.247 1.921-0.502 2.89-0.714 0.687-0.151 1.391-0.228 2.084-0.358 0.345-0.064 0.683-0.168 1.023-0.263 0.043-0.012 0.095-0.079 0.102-0.126 0.175-1.313 0.764-2.422 1.618-3.42 0.836-0.978 1.822-1.743 3.014-2.217 0.49-0.196 1.018-0.299 1.535-0.418 0.223-0.052 0.352-0.148 0.414-0.371 0.278-0.991 0.566-1.98 0.852-2.97 0.394-1.365 0.787-2.729 1.182-4.094 0.019-0.065 0.048-0.128 0.072-0.191 0.015 0 0.028 0 0.043 0 0.009 0.068 0.027 0.137 0.028 0.205 0.020 0.733 0.033 1.466 0.057 2.198 0.022 0.667 0.046 1.335 0.090 2 0.015 0.229 0.113 0.455 0.129 0.684 0.053 0.79 0.088 1.583 0.129 2.375 0.014 0.276 0.019 0.277 0.272 0.368 2.176 0.782 3.794 2.156 4.622 4.364 0.057 0.152 0.13 0.299 0.178 0.455 0.086 0.278 0.282 0.405 0.555 0.458 0.376 0.073 0.748 0.177 1.128 0.235 0.348 0.053 0.705 0.048 1.053 0.096 0.704 0.098 1.406 0.21 2.108 0.327 0.348 0.057 0.692 0.134 1.038 0.205 0.084 0.018 0.166 0.050 0.25 0.095-0.308 0.094-0.61 0.221-0.941 0.198-0.22-0.016-0.421 0.016-0.61 0.128-0.031 0.019-0.073 0.042-0.105 0.035-0.356-0.071-0.65 0.12-0.965 0.225-0.164 0.056-0.318 0.137-0.502 0.090-0.034-0.009-0.080 0.020-0.119 0.034-0.179 0.058-0.354 0.132-0.536 0.174-0.54 0.124-1.080 0.24-1.622 0.349-0.293 0.058-0.413 0.228-0.46 0.52-0.088 0.539-0.163 1.092-0.342 1.604-0.451 1.285-1.253 2.335-2.313 3.187-0.998 0.798-2.116 1.339-3.387 1.536-0.185 0.029-0.266 0.119-0.278 0.297-0.005 0.076-0.018 0.152-0.039 0.224-0.037 0.121-0.014 0.215 0.073 0.311 0.045 0.050 0.069 0.148 0.058 0.216-0.198 1.176-0.394 2.353-0.61 3.526-0.163 0.88-0.358 1.752-0.531 2.63-0.105 0.538-0.19 1.079-0.285 1.619-0.011 0.058-0.024 0.115-0.037 0.174-0.019 0.003-0.034 0.005-0.049 0.007z"></path>
</svg>
