<!-- Generated by IcoMoon.io -->
<svg version="1.1" xmlns="http://www.w3.org/2000/svg" width="512" height="512" viewBox="0 0 512 512">
<title>factions-order-kharadron-overlords</title>
<path fill="#fff" d="M219.072 222.976c8.224 8.864 16.128 17.872 24.576 26.336 7.44 7.408 9.168 9.808 20.176 2.576 10.704-7.024 21.616-12.992 27.328-25.264 0.656-0.096 1.344-0.176 2.016-0.288 1.904 5.296 4.592 10.464 5.472 15.936 0.864 5.296 2.496 9.456 6.4 13.216 15.744 15.184 34.608 22.976 56.224 24.192 13.648 0.768 27.408 2.032 40.976 1.2 7.184-0.464 14.56-4.096 21.008-7.792 9.584-5.504 12.688-18 7.616-27.84-3.712-7.2-10.88-8.784-18.208-9.424-3.104-0.288-6.24-0.048-10.704-0.048 1.168 7.616 1.808 14.72 3.52 21.568 1.28 5.072-0.56 7.312-5.024 7.968-3.52 0.512-7.152 0.64-10.72 0.384-21.52-1.504-41.824-8.016-61.6-15.968-7.264-2.928-13.952-8-16.064-16.752-0.384-1.552-1.472-3.008-2.496-4.336-9.328-11.936-18.768-23.792-27.968-35.808-1.28-1.68-2.016-4.128-2.144-6.272-0.432-8.208-1.2-16.496-0.432-24.624 0.384-4.048 2.928-8.768 5.952-11.584 19.072-17.904 41.328-21.696 66.24-14.464 14.24 4.144 23.792 13.68 30.416 25.856 2.704 4.96 1.536 12.064 1.968 18.24 0.080 1.168-0.864 2.368-1.088 3.616-2.32 11.936 1.776 16.928 13.952 17.52 22.080 1.040 41.968 8 55.776 25.776 5.072 6.544 7.392 16.144 8.448 24.672 2.144 16.624-3.488 31.776-16.096 42.688-6.832 5.888-16.224 11.376-24.848 12.064-18.752 1.536-37.76-0.096-56.672-0.56-3.36-0.080-6.704-0.864-10.064-1.088-9.808-0.72-13.2 2.4-11.568 12 3.088 18.288 6.32 36.544 10.256 54.656 5.248 24.064 12.064 47.824 16.576 72.016 2.544 13.76 1.888 28.096 2.448 42.176 0.048 1.248-1.344 3.152-2.576 3.744-15.184 7.152-30.464 14.128-45.744 21.136-0.688 0.304-1.504 0.336-2.592 0.528 4.816-21.168 2.96-41.84-0.080-62.496-0.352-2.496-0.432-5.472-1.856-7.264-4.704-5.936-2.064-10.768 1.072-16.096 9.808-16.736 12.864-35.344 8.992-53.728-3.776-17.872-11.616-34.688-25.296-48.032-10.544-10.288-19.968-21.776-30.848-31.664-5.040-4.608-12.32-6.8-18.72-9.808-0.896-0.4-2.768 0.688-3.92 1.504-6.144 4.464-12.272 8.912-18.24 13.632-14.416 11.408-25.408 26.032-35.152 41.184-10.848 16.864-15.104 35.728-9.376 55.984 1.808 6.416 1.84 13.296 3.184 19.856 0.656 3.232 1.84 6.88 4 9.168 5.68 6.016 6.768 11.888 3.392 19.632-2.32 5.264-2.544 11.456-3.744 17.248-3.664 17.52 2.928 34.144 4.336 51.952-7.456-2.528-14.8-4.704-21.904-7.456-8.832-3.392-17.392-7.52-26.288-10.768-6.624-2.416-7.664-6.976-6.448-12.944 3.584-17.312 7.696-34.56 10.704-51.984 3.84-22.416 6.704-44.976 10.208-67.44 1.504-9.552 3.536-19.024 5.472-28.496 0.768-3.712 2.208-7.264 2.976-10.976 1.6-7.76-2.656-12.816-10.544-12.656-7.568 0.16-15.328 1.6-22.688 0.384-18.64-3.088-37.328-6.416-55.536-11.36-18.624-5.040-27.248-20.096-31.808-37.664-3.392-13.008 0.56-25.472 4.048-37.824 0.56-1.984 3.92-3.008 5.248-4.992 11.504-17.296 29.136-19.92 47.808-20.24 3.52-0.048 7.952 1.472 8.32-4.688 0.352-5.504-0.912-9.696-7.008-10.848-2.448-0.464-4.96-0.48-8.56-0.816 0.912-4.64 1.584-9.568 2.896-14.32 3.536-12.688 8.512-24.704 17.216-34.864 8.272-9.648 18.24-15.968 31.28-17.168 17.248-1.584 34.432-3.536 51.36 1.856 2.96 0.944 5.776 2.336 9.040 3.696-1.728 3.664-2.896 7.072-4.784 10.016-2.672 4.144-2.016 7.008 1.584 10.416 5.472 5.2 10.752 10.704 15.312 16.688 8.096 10.576 5.728 30.128-4.864 41.792-6.368 7.024-12.784 14.080-19.936 20.224-6.88 5.904-7.872 13.472-8.784 21.52-0.48 4.336-1.328 8.736-2.832 12.784-3.44 9.328-12.304 12.144-20.432 12.624-21.568 1.344-43.472 3.696-64.304-6.144 1.12-10.128 2.24-20.272 3.36-30.384-13.248-1.968-23.12 3.344-26.816 13.728-3.216 9.008 1.248 21.68 10.816 26.48 14.208 7.136 28.912 13.632 45.376 13.2 13.040-0.352 26.304 0.224 39.008-2.144 20.576-3.84 30.72-16.992 32.4-38.048 0.688-7.872 1.2-15.872 10.576-20.224zM181.088 211.712c3.92-0.912 7.92-0.864 10.672-2.704 7.2-4.816 14.72-8.896 19.76-16.928 6.88-11.008 5.648-29.84-4.784-37.872-4.048-3.104-8.784-5.984-13.648-7.264-13.296-3.456-25.488 1.408-36.64 7.84-10.256 5.936-15.792 23.792-11.024 33.152 7.44 14.624 21.040 20.048 35.68 23.76zM363.712 181.28c0-19.12-13.632-34-32.112-32.976-20.56 1.12-34.784 8.576-34.432 31.936 0.256 17.552 16.32 31.76 36.672 31.168 19.76-0.592 27.68-10.368 29.872-30.128z"></path>
<path fill="#fff" d="M228.368 212.256c1.808-2.112 2.928-3.648 4.272-4.912 14.464-13.424 12.752-30.736 10.896-47.728-0.464-4.176-4.208-8.096-6.752-11.936-2.672-4.032-5.344-8.144-8.656-11.616-5.040-5.248-0.432-9.696 1.088-13.808 3.616-9.648 1.712-16.192-8.448-19.2-9.040-2.656-18.544-5.28-27.808-5.2-17.216 0.128-34.656 0.768-51.552 3.84-19.552 3.568-32.112 17.936-41.152 34.768-7.408 13.808-13.184 28.368-12.016 45.888-6.64 0-12.944 0.56-19.024-0.304-2.016-0.288-4.96-4.176-5.024-6.464-0.256-16.832-0.032-33.712 0.336-50.608 0.080-3.952 0.816-8 2.096-11.712 0.48-1.424 3.264-2.832 5.040-2.896 8-0.304 16.048-0.352 24.048-0.048 6.4 0.224 10.112-2.528 12.448-8.384 4.224-10.544 8.096-21.36 13.696-31.2 4.704-8.224 11.488-15.312 17.648-22.672 4.304-5.152 9.072-9.936 13.76-14.752 1.424-1.472 3.232-2.592 5.024-4 3.312 4.64 6.112 9.088 9.504 13.040 1.648 1.904 4.272 3.568 6.752 4.128 5.072 1.152 8.528-2.528 6.72-7.408-2.16-5.856-5.344-11.328-8.384-17.52 28.416-13.312 59.664-17.392 91.408-21.552-0.512 7.232-0.992 13.648-1.376 20.096-0.272 4.688 0.944 8.56 6.448 9.072 4.784 0.464 8.656-3.664 9.008-9.248 0.256-4.208 0.208-8.48 1.12-12.56 0.384-1.648 3.152-4.176 4.56-4 18.384 2.336 36.624 4.944 53.424 13.872 10.384 5.52 21.392 9.648 29.168 19.312 3.008 3.744 3.696 6.032-0.352 9.2-3.776 2.96-7.152 6.464-11.072 10.080 3.568 4.032 6.416 7.28 9.68 10.944 4.56-3.904 8.656-7.44 12.88-11.056 9.072 3.536 13.68 11.072 17.168 19.248 4.128 9.68 7.696 19.616 11.264 29.488 1.936 5.376 5.328 7.456 11.024 7.232 8.64-0.352 17.312-0.352 25.952 0.080 2.064 0.096 5.776 2.4 5.776 3.712 0.352 23.712 0.256 47.44 0.256 71.184-18.928 0-37.712 0-57.552 0 0-5.024 0.032-10.64 0-16.272-0.096-20.656-10.112-34.224-28.96-42.432-15.872-6.896-32.24-9.2-48.864-6.144-15.536 2.848-30.432 9.296-39.68 22.688-4.464 6.448-5.648 15.616-6.832 23.792-2.144 14.688-0.336 28.592 11.84 39.328 4.208 3.696 4.096 7.968-0.128 11.92-5.984 5.6-12.064 11.136-17.872 16.96-3.776 3.776-7.136 3.008-10.288-0.304-7.568-7.888-14.928-15.888-22.48-23.968z"></path>
<path fill="#fff" d="M260.832 343.84c10.288 1.776 20.624 3.344 30.864 5.392 6.8 1.376 10.896 5.728 14.256 12.096 8.448 16.064 6.192 32.8 2.064 48.64-2.72 10.496-8.832 20.32-21.808 24.736-14.88 5.072-29.264 9.824-44.8 5.728-6.272-1.648-12.832-4.56-17.616-8.768-12.048-10.592-20.784-23.456-23.376-39.952-3.104-19.744 0.72-28.704 18.976-41.136 8.768-5.952 19.056-3.536 28.544-5.216 4.096-0.736 8.4-0.128 12.624-0.128 0.080-0.48 0.176-0.944 0.256-1.408zM263.28 387.216c-0.512-7.36-0.592-13.936-1.68-20.352-0.336-1.936-3.488-3.408-5.344-5.088-1.648 1.84-4.608 3.568-4.784 5.52-1.168 14.256-1.856 28.544-2.528 42.832-0.208 4.144 2.032 7.104 6.32 7.184s6.32-2.768 6.576-6.96c0.48-8 0.992-15.968 1.456-23.152zM276.64 396.144c-0.208 9.472 1.6 13.040 5.856 13.44 5.024 0.464 7.568-2.832 8.080-7.104 0.944-7.712 1.648-15.504 1.408-23.248-0.080-2.4-3.456-6.32-5.632-6.496s-6.144 2.976-6.768 5.344c-1.776 6.64-2.288 13.648-2.928 18.064zM234.528 386.752c-0.176-4 0.256-7.52-0.656-10.672-0.848-2.896-3.088-5.424-4.704-8.096-2.656 2.624-7.072 4.96-7.584 7.952-1.168 6.928-1.024 14.256-0.208 21.296 0.256 2.32 3.952 5.52 6.448 5.888 1.728 0.256 5.040-3.312 5.888-5.776 1.168-3.44 0.656-7.44 0.848-10.576z"></path>
<path fill="#fff" d="M126.192 320.544c10.288 0.512 20.096 0.976 30.688 1.472-9.952 53.584-14.064 107.52-28.096 161.696-7.84-4.48-15.2-8.528-22.384-12.864-4.656-2.832-9.040-6.144-13.632-9.072-5.376-3.44-6.704-6.88-3.824-12.656 16.736-33.584 25.856-69.728 35.248-105.76 0.944-3.648 1.584-7.44 1.936-11.184 0.304-3.536 0.048-7.136 0.048-11.632z"></path>
<path fill="#fff" d="M423.488 460.768c-11.024 5.76-22.688 11.84-35.264 18.432-11.408-54.8-22.672-108.928-34.048-163.696 11.136 1.344 21.904 2.576 32.624 4.128 1.024 0.16 2.192 2.288 2.464 3.696 5.808 29.28 10.72 58.784 17.488 87.84 3.792 16.224 10.592 31.776 16.736 49.616z"></path>
<path fill="#fff" d="M469.312 418.976c-8.256 15.536-20.32 26.176-36.32 33.712-10.976-20.56-16.496-42.528-20.912-65.024-4.384-22.288-9.68-44.384-14.752-67.36 6.72 0 12.832-0.272 18.848 0.208 1.424 0.128 3.44 2.656 3.824 4.384 2.368 10.672 4.352 21.44 6.448 32.192 4.096 21.296 15.328 38.528 30.688 53.296 3.408 3.312 7.824 5.584 12.176 8.576z"></path>
<path fill="#fff" d="M95.68 314.192c7.072 1.424 13.808 2.8 20.4 4.128 1.808 25.296-29.744 118.368-41.264 122.832-0.592 2.672-1.152 5.216-2.144 9.76-10.16-9.472-19.232-17.824-28.16-26.352-2.368-2.24-2.72-4.688 0.768-6.544 21.184-11.2 31.152-30.56 37.536-52.336 4.208-14.336 7.968-28.8 11.824-43.248 0.64-2.336 0.64-4.896 1.040-8.224z"></path>
<path fill="#fff" d="M297.456 334.192c-29.104-2.896-57.936-6.288-86.8 3.024 8.224-12.256 16.272-24.192 27.968-33.056 3.024-2.288 6.192-4.4 9.2-6.704 6.928-5.264 10.72-5.456 16.832 0.848 10.816 11.184 21.232 22.8 31.776 34.224 0.56 0.608 0.864 1.408 1.024 1.648z"></path>
<path fill="#fff" d="M156.032 178.432c1.584-13.648 20.368-24.912 32.288-18.8 4.336 2.208 9.456 4.656 11.888 8.48 7.92 12.432-1.888 31.936-16.992 32.416-7.152 0.224-16.304-0.896-21.216-8.304-2.752-4.080-4.048-9.168-5.984-13.808z"></path>
<path fill="#fff" d="M306.288 176.96c-2.32-12.528 14.816-23.232 26.544-23.28 12.384-0.048 22.256 13.312 21.824 28.448-0.272 9.696-12.528 18.16-25.984 17.904-12.96-0.256-22.64-10.192-22.384-23.072zM340.416 180.544c-0.176-8.352-5.776-15.152-12.272-14.928-4.208 0.16-8.56 4.912-8.576 9.376 0 6.192 6.672 13.872 11.968 13.776 5.888-0.128 8.992-3.008 8.88-8.224z"></path>
</svg>
