<!-- Generated by IcoMoon.io -->
<svg version="1.1" xmlns="http://www.w3.org/2000/svg" width="512" height="512" viewBox="0 0 512 512">
<title>factions-chaos-darkoath-savagers</title>
<path fill="#fff" d="M314.88 469.552c0.272 8.528 0.528 17.088 0 25.6-0.32 5.184-2.56 10.24-2.56 15.36 0 4.976 9.76-3.728 12.8-7.68 11.232-14.608 15.456-26.288 12.8-43.52-0.816-5.328-0.432-12.688-5.12-15.36-3.984-2.288-10.16 1.36-12.8 5.12-4.032 5.76-4.608 13.456-5.12 20.48zM279.040 510.512c3.968-5.616 8.064-11.392 10.24-17.92 1.536-4.592-0.672-21.12-2.56-25.36-1.76-3.952-3.776-12.368-7.68-10.48-5.856 2.832-6.096 11.616-7.68 17.92-2.992 11.936 4.32 25.744 7.68 35.84zM220.16 502.832l15.36 7.68v-30.72l-5.12-12.56-7.68-7.92-7.68 10.24v20.48zM186.88 502.832l12.8 5.12v-33.28l-5.12-15.36-7.68-10.24-12.8 18.16 5.12 22.8zM250.88 507.952l7.68-10.24 2.56-10.24-2.56-10.24-7.68-2.56zM97.28 299.52c-1.264 2.064-2.768 4.544-5.12 5.12-5.2 1.264-13.984-4.928-16.048 0-14.368 34.368 7.84 54.848 28.848 74.24 4.432 4.096 6.768 12.8 12.8 12.8 4.272 0-2.672-9.472 0-12.8 2.128-2.672 7.824 2.416 10.24 0 1.648-1.648-3.376-17.92 5.12-17.92 15.472 0 8.992 10.896 23.040 17.92 3.824 1.904 11.6-4.096 12.8 0 2.016 6.848-6.624 49.52 7.68 61.44 2.368 1.968 4.72-4.272 7.68-5.12 4.496-1.28 17.872-0.096 20.48 5.12 2.288 4.576-2.288 10.784 0 15.36 1.152 2.288 5.872 1.808 7.68 0 1.552-1.552 7.776-24.288 17.92-20.48 16.384 6.144 0.304 19.136 15.36 28.16 3.104 1.856 4.064-7.68 7.68-7.68s4.576 9.536 7.68 7.68c4.624-2.784 2.128-10.864 5.12-15.36 0.56-0.832 17.808-13.936 20.48-12.8 9.824 4.208 4.672 28.16 15.36 28.16 7.52 0 7.328-25.68 12.8-28.16 30.256-13.76 15.696-23.984 23.040-56.32 0.944-4.16 8.976 1.904 12.8 0s4.656-7.216 7.68-10.24c11.6-11.6 14-8.256 28.16 0 4.72 2.752 10.144 5.456 12.8 10.24 2.064 3.728-3.904 14.528 0 12.8 31.264-13.888 18.256-24.208 28.16-48.64 1.424-3.504 7.376-4.032 8.368-7.68 5.456-20 2.064-21.312-13.488-30.72-2.624-1.6-6.848-2.16-7.68-5.12-3.68-13.264-2.336-27.488-5.12-40.96-8.192-39.584-28.48-75.648-58.88-102.4-11.024-9.696-22.8-18.848-35.84-25.6-11.984-6.192-30.032-2.224-38.4-12.8-4.544-5.744-20.352-116.672-23.040-112.64-22.192 33.28-9.168 80.24-23.040 117.76-2.368 6.4-14-2.16-20.48 0-22.736 7.584-63.952 38.624-76.8 53.76-12.128 14.288-22.912 30.656-28.16 48.64-6.96 23.888-7.328 49.36-7.68 74.24zM238.080 376.32c-0.416-5.952-0.848-12 0-17.92 0.88-6.144 1.68-12.752 5.12-17.92 4.896-7.36 15.584-6.304 20.48 0 2 2.576 15.056 30.576 7.68 35.84-5.056 3.616-11.712-5.12-17.92-5.12-5.392 0-10.56 2.656-15.36 5.12zM176.64 325.12c-3.104-3.888-6.368-8-7.68-12.8-1.344-4.944-1.792-10.56 0-15.36 1.088-2.88 5.12-6.832 7.68-5.12 7.104 4.736 9.648 14.144 15.36 20.48 2.064 2.288 6.096 2.48 7.68 5.12 1.312 2.192 1.008 5.328 0 7.68-1.68 3.92-3.408 10.24-7.68 10.24-6.16 0-11.248-5.664-15.36-10.24zM307.2 330.24c0.208-3.52 0.448-7.424 2.56-10.24 1.024-1.36 3.536 0.64 5.12 0 6.8-2.72 11.968-9.264 15.36-15.36 2.24-4.016 0.528-12.8 5.12-12.8 4.976 0 6.112 8.080 7.68 12.8 2.992 8.96-1.6 8.064-7.68 15.36-2.448 2.928-1.536 8.944-5.12 10.24-7.216 2.624-15.456 1.264-23.040 0z"></path>
</svg>
