<!-- Generated by IcoMoon.io -->
<svg version="1.1" xmlns="http://www.w3.org/2000/svg" width="512" height="512" viewBox="0 0 512 512">
<title>factions-chaos-chaos-legionnaires</title>
<path fill="#fff" d="M257.616 491.168c-4.224-24.128-10.56-41.024-15.392-41.024-1.808 0-0.912-3.616 2.112-7.84 5.136-7.84 5.136-8.144-3.312-14.48-4.528-3.312-12.368-9.952-17.504-14.48-4.832-4.832-9.952-8.448-11.168-8.448-1.504 0-7.536 3.312-13.584 7.536-6.032 3.92-10.864 5.728-10.864 3.92 0-6.336 6.944-26.544 9.056-26.544 2.416 0 3.92-6.64 9.648-38.624 3.024-18.096 2.72-19.312-4.832-30.768-7.248-10.864-9.056-12.064-20.512-12.064-22.624 0-50.688 19.008-50.688 34.688 0 2.72-1.504 3.92-3.312 2.72-2.112-1.2-2.72-7.536-2.112-16.592 2.112-20.816 14.48-37.104 36.208-48.272 9.952-4.832 18.4-10.864 19.616-13.584 0.912-2.416 3.92-3.616 6.64-2.72 7.248 2.112 16.896-5.424 14.48-11.456-0.912-2.72-6.336-6.032-11.76-7.536-7.248-1.808-11.76-5.728-15.984-13.872-5.728-10.56-5.728-11.456-0.608-14.176 6.944-3.92 6.64-16.896-0.608-20.816-3.92-1.808-5.136-5.136-4.224-9.056 1.2-3.92-1.504-9.648-8.144-16.896-9.36-10.864-17.2-27.152-15.68-32.576 0.608-1.2-0.304-3.92-2.112-6.032-3.312-3.92-7.248-31.68-6.64-48.576 0-6.64 2.72-21.12 6.032-32.288 6.336-22.032 5.728-29.264-3.616-42.544l-6.032-8.752 11.76 6.032c22.032 11.168 23.84 15.392 22.928 50.688-0.608 26.256 0 33.792 5.136 44.96 8.144 18.704 16.288 17.2 17.2-2.72 0.304-4.832 3.024-10.864 6.032-12.976 5.136-3.616 6.336-3.312 9.952 1.808 2.112 3.616 6.944 6.336 10.56 6.336 9.36 0 24.736-10.56 32.288-21.728l6.336-9.952 18.4 17.504c19.616 18.096 24.128 19.92 32.288 12.672 4.832-4.224 5.728-3.616 10.256 9.056 6.032 15.392 9.952 16.592 19.904 6.032 6.64-6.944 7.248-11.168 9.056-45.248 1.504-36.8 1.808-38.016 10.56-46.464 5.136-4.832 13.872-9.36 19.616-10.56l10.56-1.808-8.144 6.336c-12.064 8.752-13.584 22.32-5.424 48.576 9.36 31.072 11.76 48.576 8.448 66.368-4.224 22.624-15.392 42.544-31.072 55.52-17.2 13.872-24.736 26.848-19.312 33.184 1.808 2.416 6.032 4.224 9.056 4.224 3.312 0 5.728 0.608 5.728 1.504 0 4.224-9.056 22.624-11.168 22.928-1.2 0.304-5.424 0.912-9.36 1.2-12.064 1.2-15.088 7.248-6.944 13.872 3.92 3.024 9.36 5.728 12.064 5.728 3.024 0 8.448 3.312 12.368 7.536s13.872 11.76 21.728 16.896c15.68 10.256 23.536 23.536 23.536 40.128v9.36l-7.84-9.952c-15.984-20.512-51.584-28.96-63.952-15.68-6.336 6.944-13.584 41.936-9.648 46.768 3.312 4.224 15.392 40.128 18.096 53.696l2.416 11.456-9.056-8.448-8.752-8.448-10.864 6.032c-15.088 8.448-24.432 21.12-20.208 28.064 2.416 3.92 2.416 6.944-0.912 11.76-2.416 3.616-6.64 18.4-9.648 33.184l-5.424 26.544-3.616-20.816zM264.864 362.048c3.024-11.168 7.536-18.096 7.536-12.064 0 8.752 6.336 2.416 9.648-9.648 2.112-8.144 4.832-12.672 7.248-11.76 3.312 1.2 3.616-2.72 1.808-32.88-0.912-10.864-6.032-10.864-8.752-0.304l-1.808 8.448-3.024-8.448c-3.616-10.864-6.944-10.256-9.648 1.808l-2.416 9.648-1.808-11.76c-2.72-16.896-9.36-17.808-9.36-1.2 0 9.36-0.912 11.76-3.024 8.448-1.504-2.416-3.024-7.536-3.024-11.168 0-4.224-1.808-6.944-4.528-6.944-3.312 0-4.528 3.312-4.832 11.456 0 10.256-0.304 10.56-3.312 4.224-4.528-9.36-9.648-6.64-10.864 5.424-0.912 7.248-1.808 9.056-3.616 6.032-4.832-7.84-6.64-0.608-2.72 11.76 3.92 12.976 7.536 15.984 9.36 7.248 0.608-3.024 2.72 2.416 4.832 12.064 4.224 17.808 7.84 20.816 14.48 12.064 3.616-4.832 3.92-4.832 4.224 2.72 0 19.616 8.448 22.624 13.584 4.832zM254.304 249.52c3.024-3.616 4.528-3.92 6.336-1.2 2.72 4.832 11.76 1.2 11.76-4.832 0-7.536-8.752-22.624-13.28-22.624-5.424 0-12.672 9.056-15.088 19.008-3.024 13.28 2.72 18.704 10.256 9.648zM222.32 219.056c8.448-3.312 5.424-11.76-5.728-17.2-14.176-6.64-18.704-6.336-21.424 1.504-3.616 11.168 13.28 21.12 27.152 15.68zM311.024 214.832c7.84-7.248 8.448-12.976 2.112-18.096-3.312-2.72-6.944-2.112-16.896 3.616-15.392 8.448-17.808 13.584-8.144 17.2 10.864 4.528 15.68 3.92 22.928-2.72z"></path>
</svg>
