<!-- Generated by IcoMoon.io -->
<svg version="1.1" xmlns="http://www.w3.org/2000/svg" width="512" height="512" viewBox="0 0 512 512">
<title>factions-order-cities-of-sigmar-anvilgard</title>
<path fill="#fff" d="M250.24 511.6c-6.064-1.104-10.224-5.616-12.048-13.088-0.656-2.688-1.072-19.104-1.824-71.632-0.864-60.464-0.864-68.72-0.048-73.168 1.408-7.616 3.232-11.792 6.624-15.28 6.128-6.288 13.92-8.272 20.24-5.152 4.208 2.064 9.472 7.088 10.8 10.256 1.68 4.048 1.984 18.592 0.608 29.28-0.976 7.552-1.056 14.416-0.848 68.752l0.224 60.352-1.712 3.472c-2.448 4.992-4.976 6.272-12.88 6.56-3.328 0.128-7.456-0.032-9.152-0.336zM186.832 504.608c-3.84-0.864-11.76-6.464-15.264-10.816-3.952-4.912-7.744-12.336-8.992-17.616-1.792-7.6-0.624-15.424 6.912-46.512 4.432-18.288 7.088-30.992 9.44-45.28 1.712-10.416 2.688-22.88 1.776-22.88-1.92 0-16.496 9.936-30.576 20.848-14.56 11.296-21.968 20.176-20.496 24.576 0.912 2.752 3.344 4.144 7.168 4.112 4.976-0.048 9.68-2.144 17.184-7.616 3.712-2.704 6.96-4.784 7.232-4.624 1.040 0.64 0.416 5.68-1.104 8.944-4.336 9.312-13.648 19.088-21.856 22.944-7.104 3.344-21.44 0.32-28.656-6.016-4.56-4-5.84-16.512-2.64-25.952 3.456-10.24 10.448-21.168 20.32-31.728 3.296-3.52 4.208-4.88 3.632-5.328-3.008-2.384-9.12-3.696-21.024-4.528-11.552-0.8-16.88-2.544-25.584-8.336-16.528-10.992-28.752-30.576-29.952-47.968-0.336-4.736-0.192-5.76 1.2-9.216 3.44-8.496 12.8-21.392 18.144-24.96 7.392-4.944 23.2-4.88 32.96 0.112 8.56 4.384 14 15.376 11.072 22.368-2.304 5.52-5.408 4.496-12.496-4.16-3.168-3.856-5.472-4.992-10.112-4.992-4.624 0-8.032 1.616-11.168 5.28-6.896 8.048-4.736 20.288 5.2 29.488 5.040 4.672 9.504 7.2 17.264 9.776 13.408 4.464 28.96 3.584 38.848-2.208 5.984-3.504 12.96-13.152 11.632-16.064-0.336-0.752-4.912-6-10.16-11.68-16.64-18.016-21.824-25.008-25.376-34.288-9.392-24.512-13.824-32.752-19.12-35.488-2.288-1.184-7.008-1.152-9.36 0.064-2.944 1.52-3.232 3.136-2.736 15.36 0.528 13.12 0.256 14.208-3.184 12.768-4.112-1.712-11.68-7.456-14.16-10.752-2.928-3.872-5.472-10.656-5.488-14.64-0.048-10.432 10.784-25.52 21.856-30.432 5.328-2.368 17.184-0.064 26.912 5.216 5.52 3.008 12.336 9.856 17.632 17.728 4.496 6.688 11.376 20.112 14.912 29.088 1.088 2.752 3.632 8.256 5.664 12.256 4.080 8 8.992 13.888 13.472 16.112 5.968 2.976 15.344 2.848 20.688-0.272 9.136-5.344 10.288-20.144 2.48-31.664-1.472-2.16-3.632-5.296-4.832-6.944-1.68-2.352-2.144-3.6-2.112-5.632 0.080-3.424 1.008-5.12 8-14.416 6.48-8.624 8.256-12.256 7.68-15.792-0.512-3.152-3.472-7.808-9.328-14.704-10.368-12.192-10.688-13.856-4.32-22.752 13.344-18.624 35.36-31.456 61.344-35.728 9.040-1.488 24.256-1.312 32.8 0.368 16.288 3.216 27.776 9.648 39.728 22.224 5.424 5.712 7.76 10.048 7.76 14.4 0 4.16-1.696 7.856-7.024 15.248-4.768 6.64-8.8 14.432-8.8 17.024 0 0.992 0.864 2.72 2.144 4.24 4.064 4.864 6.032 19.152 5.952 43.216-0.064 17.936 0.128 19.776 2.464 24.464 2.928 5.84 7.984 8.656 15.936 8.864 4.672 0.128 7.856-1.264 13.136-5.728 8.064-6.816 18.336-21.504 25.984-37.136 5.744-11.728 9.376-16.544 17.136-22.736 2.816-2.24 7.664-5.312 10.752-6.832 19.84-9.696 36.496-3.84 41.28 14.528 1.552 5.984 1.248 10.624-1.024 15.168-3.216 6.432-11.552 13.904-16.176 14.512-1.44 0.192-1.552 0.032-1.376-1.984 0.096-1.2 0.24-4.72 0.304-7.824 0.096-4.72-0.112-6.16-1.36-8.912-4.464-9.936-14.704-11.44-21.44-3.184-4.192 5.136-14.752 20.928-28.816 43.040-15.2 23.904-19.216 30.8-19.232 32.976-0.016 2.048 3.2 5.344 7.312 7.52 11.76 6.224 30.528 9.984 46.944 9.392 12.704-0.448 17.504-2.736 20.72-9.856 1.856-4.096 1.76-11.616-0.192-16.368-3.264-7.92-7.824-11.456-16.016-12.4-5.232-0.592-8.928-2.128-9.248-3.824-0.832-4.304 14.208-14.864 24.032-16.88 3.376-0.688 4.176-0.656 6.704 0.304 6.064 2.32 14.096 12.144 18.128 22.144 1.824 4.544 1.936 5.28 1.952 13.264 0.016 6.144-0.288 9.52-1.072 12.384-4.832 17.472-17.216 32.432-33.232 40.144-8.016 3.856-13.408 4.992-26.544 5.568-16.176 0.72-16.32 0.992-6.528 12.656 12.576 15.008 16.992 25.952 16.256 40.336-0.688 13.568-6.4 19.232-20.192 20.080-6.528 0.4-10.832-0.592-16.432-3.744-7.712-4.352-14.912-13.248-14.4-17.76 0.192-1.712 0.32-1.776 3.328-1.632 13.504 0.656 19.184 0.032 23.84-2.576 1.328-0.752 2.512-1.84 2.624-2.448 0.256-1.312-4.832-6.432-12.416-12.496-7.504-6-39.168-28.512-44.256-31.456-2.768-1.6-3.232-0.768-3.248 5.712-0.016 7.968 0.96 11.696 5.6 21.536 5.088 10.768 8.208 19.472 10.688 29.76 7.088 29.52 7.264 59.44 0.432 75.888-3.744 9.024-8.080 11.968-18.32 12.416-7.712 0.336-13.696-0.816-20.112-3.904-3.616-1.728-4.848-2.736-6.96-5.696-5.056-7.056-7.024-15.776-5.808-25.712 0.864-7.072 2.112-10.448 4.208-11.392 0.864-0.384 1.696-0.704 1.872-0.704 0.656 0 3.376 7.008 4.64 11.952 2.176 8.512 5.056 13.024 8.912 13.936 2.448 0.576 6.528-0.656 7.6-2.304 1.712-2.672 2.384-11.152 2.080-26.24-0.336-16.368-1.68-25.312-5.792-38.912-4.768-15.744-9.216-25.28-23.472-50.368-11.216-19.728-15.52-26.176-20.528-30.752-5.392-4.944-8.816-6.432-14.768-6.448-4.512-0.016-5.392 0.192-8.912 2.112-11.712 6.352-25.184 27.68-36.608 57.92-4.304 11.376-6.832 20.064-11.968 40.96-6.128 24.976-7.088 29.392-7.616 35.168-0.736 8.192 1.792 12.352 7.472 12.352 5.376 0 9.456-7.12 12.272-21.408 0.384-1.968 0.96-3.744 1.248-3.92 0.992-0.624 3.072 2.336 4.336 6.192 1.904 5.776 3.28 15.456 3.376 23.824 0.080 6.784-0.048 7.776-1.376 10.272-3.28 6.144-11.312 12.096-19.168 14.208-3.552 0.96-8.128 0.992-12.080 0.112zM228.96 269.904c2.64-2.64 1.68-6.848-2.624-11.632-4.064-4.496-8.976-5.664-11.824-2.8-1.632 1.632-1.616 3.888 0.016 5.952 0.416 0.512 1.488 2.24 2.384 3.824 3.088 5.424 8.992 7.712 12.048 4.656zM292.496 269.168c2.192-2.112 3.28-5.76 2.896-9.776-0.528-5.456-3.328-6.656-8.32-3.568-2.336 1.44-5.28 6.752-5.28 9.504 0 2.304 1.552 5.296 2.96 5.696 2.448 0.704 5.952-0.128 7.744-1.856zM136.88 123.68c-0.272-0.432-0.64-22.048-0.816-48.048l-0.32-47.264-3.616-5.216 0.336-8.912c0.416-10.848 0.976-12.72 4.112-13.584 1.504-0.416 36.336-0.64 101.904-0.64h99.616l-0.176 30.624c-0.176 30.448-0.176 30.64-1.52 31.984-1.248 1.248-2.224 1.392-12.192 1.776-8.256 0.336-11.296 0.672-12.72 1.456-1.024 0.56-3.296 1.744-5.040 2.608-5.344 2.656-7.168 5.456-8.976 13.696-0.624 2.832-1.44 5.744-1.824 6.464-1.744 3.248-6.592 5.808-11.040 5.824-2.928 0.016-6.56 1.216-6.56 2.176 0 0.48 0.816 1.44 1.808 2.16 2.336 1.664 2.72 3.376 1.952 8.8-0.752 5.36-2.4 8.784-5.152 10.736-1.952 1.392-2.688 1.472-16.432 1.856-7.904 0.224-14.464 0.432-14.576 0.464s-1.024 0.976-2.032 2.080c-1.728 1.888-1.904 1.952-2.896 0.944-0.896-0.896-1.12-2.912-1.44-12.528-0.56-16.992-0.656-17.072-20.016-16.512-12.896 0.368-12.784 0.352-32.704 6.336-17.248 5.184-21.152 6.816-30.944 13.040-8.848 5.616-17.072 10.448-17.76 10.448-0.24 0-0.672-0.352-0.96-0.784zM173.856 80.064c1.12-1.12 0.688-1.872-1.824-3.12-2.64-1.312-4.832-6.112-7.568-16.576-2.224-8.48-2.304-9.184-2.592-22.304l-0.304-13.552 3.248-3.248 73.024 0.176c56.56 0.128 73.424 0.352 74.784 0.944 2.688 1.2 3.568 4.112 3.568 11.872 0 10.624-1.648 12.48-11.264 12.64-13.84 0.24-26.896 8.624-26.896 17.248 0 2.848 0.976 4.736 2.192 4.272 0.512-0.192 2.32-2.272 4.032-4.624 3.568-4.912 8.88-8.848 14.304-10.624 1.952-0.64 6.528-1.456 10.176-1.792 12.064-1.152 12.080-1.184 12.112-19.264 0.016-11.312-0.096-12.752-1.104-13.76-1.056-1.056-5.248-1.12-81.776-1.28l-80.656-0.16v29.12c0 27.504 0.064 29.248 1.2 31.472 0.656 1.296 1.856 2.688 2.656 3.088 2.112 1.056 11.472 0.688 12.672-0.496zM187.248 75.216l1.248-1.712 43.808-0.32c40.144-0.288 43.888-0.4 44.864-1.376 0.88-0.88 0.928-1.232 0.256-2.032-0.72-0.864-6-0.976-46.656-0.976-40.848 0-45.952 0.112-46.832 0.976-0.544 0.544-0.976 1.232-0.976 1.552s-0.768 0.736-1.712 0.96c-5.696 1.28-6.416 1.584-6.416 2.736 0 1.584 0.752 1.792 6.352 1.856 4.544 0.048 4.864-0.048 6.048-1.664z"></path>
</svg>
