<!-- Generated by IcoMoon.io -->
<svg version="1.1" xmlns="http://www.w3.org/2000/svg" width="29" height="32" viewBox="0 0 29 32">
<title>fighters-agile</title>
<path fill="#fff" d="M28.941 0.331c-0.15 0.132-0.286 0.283-0.452 0.393-0.234 0.156-0.437 0.322-0.6 0.562-0.424 0.627-0.885 1.227-1.318 1.848-0.165 0.236-0.296 0.496-0.443 0.745-0.024 0.040-0.049 0.082-0.077 0.119-0.587 0.802-1.175 1.604-1.764 2.404-0.031 0.043-0.064 0.107-0.105 0.116-0.227 0.046-0.27 0.231-0.354 0.403-0.096 0.194-0.206 0.4-0.363 0.541-0.279 0.25-0.428 0.575-0.612 0.885-0.207 0.35-0.427 0.694-0.651 1.034-0.095 0.144-0.313 0.169-0.418 0.036-0.107-0.136-0.19-0.299-0.246-0.462-0.028-0.082-0.001-0.212 0.050-0.283 0.147-0.194 0.21-0.411 0.221-0.645 0.021-0.544 0.044-1.089 0.046-1.635 0-0.199-0.046-0.4-0.096-0.593-0.049-0.185-0.162-0.237-0.322-0.141-0.302 0.184-0.593 0.385-0.882 0.588-0.415 0.293-0.818 0.605-1.238 0.894-0.556 0.384-1.123 0.748-1.486 1.347-0.13 0.215-0.384 0.212-0.523-0.001-0.311-0.474-0.674-0.919-0.837-1.476-0.025-0.087-0.052-0.206-0.015-0.274 0.061-0.111 0.341-0.15 0.451-0.114 0.059 0.021 0.136 0.024 0.196 0.004 0.234-0.074 0.458-0.19 0.697-0.236 0.437-0.084 0.837-0.228 1.202-0.495 0.477-0.35 0.977-0.668 1.46-1.009 0.194-0.136 0.218-0.258 0.107-0.474-0.13-0.252-0.27-0.501-0.413-0.745-0.037-0.062-0.099-0.116-0.16-0.159-0.111-0.077-0.239-0.133-0.347-0.216-0.151-0.116-0.295-0.135-0.479-0.071-0.391 0.135-1.045-0.236-1.143-0.628-0.006-0.022-0.004-0.046-0.009-0.089 0.099-0.013 0.197-0.040 0.295-0.039 0.342 0.004 0.686 0.018 1.029 0.028 0.047 0.001 0.096 0.006 0.142-0.001 0.422-0.068 0.843-0.138 1.266-0.209 0.628-0.105 1.257-0.213 1.885-0.314 0.345-0.056 0.691-0.101 1.036-0.151 0.030-0.004 0.059-0.010 0.086-0.021 0.674-0.23 1.346-0.465 2.021-0.689 0.572-0.19 1.152-0.357 1.722-0.553 0.338-0.116 0.688-0.215 0.966-0.467 0.17-0.156 0.293-0.111 0.473 0.133 0.003 0.040 0.003 0.076 0.003 0.111z"></path>
<path fill="#fff" d="M5.604 9.347c-0.194-0.285-0.179-0.259-0.433-0.082-1.144 0.802-1.638 2.027-2.144 3.246-0.013 0.033-0.027 0.068-0.028 0.102-0.028 0.876-0.123 1.759 0.136 2.614 0.145 0.479 0.362 0.938 0.559 1.401 0.033 0.077 0.12 0.147 0.2 0.185 0.169 0.083 0.222 0.182 0.185 0.363-0.087 0.416-0.166 0.833-0.249 1.249-0.013 0.064-0.016 0.135-0.049 0.188-0.15 0.242-0.147 0.505-0.135 0.774 0.006 0.129 0.006 0.264-0.028 0.385-0.052 0.187-0.184 0.243-0.359 0.163-0.565-0.261-1.126-0.525-1.602-0.938-0.27-0.234-0.482-0.502-0.603-0.84-0.096-0.267-0.199-0.532-0.311-0.793-0.256-0.6-0.375-1.238-0.531-1.866-0.047-0.191-0.13-0.373-0.193-0.56-0.015-0.043-0.018-0.092-0.018-0.138 0.006-0.27 0.015-0.539 0.022-0.809 0-0.018-0.006-0.036-0.003-0.053 0.062-0.382 0.095-0.774 0.197-1.146 0.126-0.467 0.29-0.925 0.471-1.374 0.236-0.585 0.489-1.166 0.765-1.734 0.179-0.372 0.422-0.711 0.617-1.077 0.314-0.594 0.83-0.987 1.358-1.355 0.47-0.328 0.978-0.599 1.47-0.892 0.163-0.096 0.326-0.191 0.494-0.28 0.073-0.039 0.151-0.070 0.23-0.090 0.348-0.089 0.698-0.173 1.048-0.259 0.006-0.001 0.012-0.003 0.016-0.006 0.568-0.406 1.269-0.336 1.898-0.522 0.159-0.047 0.338-0.019 0.507-0.043 0.167-0.024 0.341-0.046 0.496-0.108 0.153-0.062 0.289-0.093 0.442-0.021 0.037 0.018 0.080 0.036 0.119 0.033 0.323-0.025 0.574 0.098 0.774 0.348 0.039 0.047 0.105 0.076 0.163 0.104 0.381 0.19 0.765 0.373 1.146 0.566 0.116 0.058 0.21 0.049 0.335 0.007 0.144-0.049 0.308-0.046 0.464-0.046 0.073 0 0.15 0.039 0.215 0.079 0.614 0.365 1.14 0.815 1.605 1.371 0.351 0.418 0.526 0.898 0.753 1.363 0.302 0.622 0.609 1.243 0.863 1.887 0.119 0.301 0.142 0.646 0.165 0.975 0.040 0.574 0.073 1.149 0.061 1.722-0.010 0.548-0.050 1.1-0.295 1.61-0.015 0.031-0.033 0.065-0.036 0.099-0.067 0.771-0.428 1.42-0.861 2.033-0.31 0.439-0.611 0.888-1.021 1.249-0.157 0.138-0.258 0.339-0.402 0.496-0.414 0.452-0.8 0.937-1.402 1.169-0.107 0.041-0.182 0.162-0.279 0.236-0.124 0.095-0.246 0.203-0.387 0.265-0.308 0.135-0.63 0.234-0.94 0.363-0.262 0.108-0.439 0.077-0.581-0.172-0.067-0.117-0.108-0.268-0.105-0.403 0.007-0.431-0.071-0.845-0.162-1.264-0.070-0.32-0.076-0.657-0.090-0.987-0.003-0.067 0.076-0.157 0.141-0.199 0.039-0.024 0.132 0.013 0.187 0.046 0.053 0.031 0.089 0.093 0.133 0.139 0.136 0.142 0.249 0.126 0.322-0.058 0.067-0.169 0.124-0.329 0.326-0.39 0.064-0.019 0.105-0.108 0.16-0.163 0.52-0.51 1.043-1.017 1.564-1.528 0.329-0.323 0.473-0.742 0.637-1.162 0.199-0.507 0.154-1.052 0.316-1.559 0.010-0.034 0.022-0.070 0.019-0.104-0.041-0.545-0.065-1.092-0.136-1.633-0.028-0.219-0.138-0.439-0.253-0.631-0.231-0.385-0.492-0.751-0.742-1.125-0.022-0.034-0.049-0.068-0.079-0.096-0.167-0.156-0.335-0.311-0.505-0.464-0.695-0.628-1.495-1.029-2.438-1.122-0.176-0.018-0.353-0.043-0.529-0.059-0.193-0.018-0.369-0.019-0.562 0.077-0.187 0.093-0.425 0.079-0.639 0.124-0.44 0.093-0.88 0.187-1.315 0.298-0.33 0.084-0.588 0.296-0.823 0.538-0.098 0.095-0.202 0.182-0.31 0.282zM5.669 6.648c0.073-0.077 0.145-0.154 0.218-0.233-0.042-0.024-0.093-0.076-0.125-0.067-0.119 0.037-0.175 0.126-0.093 0.299zM5.624 8.763c0.013 0.012 0.028 0.022 0.042 0.034 0.083-0.068 0.17-0.133 0.247-0.207 0.019-0.019 0.010-0.067 0.013-0.102-0.036 0.003-0.087-0.009-0.104 0.010-0.071 0.083-0.133 0.176-0.199 0.265z"></path>
<path fill="#fff" d="M12.854 29.045c0.010-0.13 0.025-0.259 0.028-0.39 0.004-0.166-0.090-0.267-0.242-0.268-0.139-0.001-0.216 0.093-0.21 0.267 0.003 0.071 0.037 0.144 0.027 0.21-0.016 0.101-0.041 0.207-0.096 0.29-0.073 0.107-0.167 0.12-0.282 0.018-0.259-0.233-0.534-0.452-0.8-0.677-0.274-0.23-0.584-0.323-0.943-0.267-0.227 0.036-0.419-0.119-0.496-0.365-0.341-1.076-0.68-2.152-1.026-3.226-0.022-0.068-0.071-0.141-0.129-0.181-0.252-0.175-0.513-0.338-0.771-0.505-0.053-0.036-0.125-0.058-0.159-0.107-0.375-0.523-0.771-1.034-1.106-1.584-0.185-0.304-0.37-0.618-0.525-0.938-0.245-0.507-0.468-1.032-0.513-1.611-0.034-0.436-0.125-0.87-0.133-1.306-0.012-0.559 0.016-1.119 0.061-1.678 0.024-0.298 0.119-0.591 0.182-0.886 0.087-0.408 0.224-0.796 0.44-1.156 0.219-0.366 0.415-0.744 0.639-1.109 0.082-0.133 0.203-0.246 0.319-0.354 0.178-0.166 0.384-0.304 0.545-0.482 0.52-0.575 1.223-0.91 1.808-1.399 0.271-0.227 0.585-0.405 0.863-0.625 0.102-0.082 0.184-0.215 0.228-0.341 0.095-0.273 0.399-0.415 0.654-0.277 0.166 0.090 0.333 0.181 0.491 0.286 0.245 0.165 0.434 0.376 0.542 0.662 0.087 0.233 0.209 0.451 0.31 0.677 0.101 0.224 0.052 0.408-0.154 0.538-0.325 0.205-0.655 0.4-0.983 0.6-0.044 0.028-0.086 0.064-0.126 0.098-0.345 0.307-0.692 0.614-1.033 0.925-0.082 0.074-0.135 0.178-0.212 0.258-0.073 0.074-0.15 0.165-0.24 0.193-0.132 0.040-0.207 0.111-0.279 0.221-0.2 0.308-0.408 0.612-0.625 0.906-0.341 0.459-0.554 0.963-0.574 1.54-0.021 0.615-0.053 1.23-0.049 1.845 0.001 0.205 0.095 0.412 0.16 0.614 0.086 0.264 0.185 0.523 0.277 0.784 0.070 0.194 0.132 0.393 0.209 0.584 0.093 0.236 0.184 0.476 0.304 0.698 0.108 0.2 0.231 0.4 0.385 0.566 0.261 0.282 0.551 0.538 0.83 0.805 0.156 0.148 0.236 0.159 0.405 0.037 0.196-0.139 0.37-0.298 0.628-0.348 0.141-0.028 0.25-0.191 0.39-0.268 0.336-0.185 0.68-0.36 1.023-0.532 0.172-0.086 0.323-0.062 0.442 0.102 0.187 0.261 0.418 0.43 0.742 0.464 0.034 0.003 0.068 0.022 0.098 0.040 0.37 0.221 0.774 0.353 1.192 0.446 0.046 0.010 0.092 0.024 0.138 0.037 0.193 0.055 0.285 0.16 0.279 0.316-0.007 0.16-0.148 0.347-0.307 0.372-0.221 0.036-0.357 0.179-0.476 0.344-0.123 0.169-0.039 0.339 0.173 0.366 0.197 0.025 0.341-0.067 0.464-0.209 0.096-0.111 0.19-0.228 0.296-0.331 0.144-0.138 0.313-0.173 0.508-0.114 0.591 0.182 1.166 0.399 1.706 0.711 0.32 0.185 0.677 0.308 1.012 0.471 0.233 0.114 0.453 0.249 0.68 0.373 0.025 0.015 0.050 0.043 0.076 0.044 0.264 0.013 0.393 0.221 0.547 0.385 0.041 0.044 0.074 0.145 0.052 0.193-0.036 0.074-0.119 0.173-0.185 0.176-0.19 0.009-0.336 0.068-0.479 0.194-0.059 0.052-0.194 0.056-0.279 0.031-0.285-0.081-0.55-0.033-0.836 0.018-0.516 0.092-0.904 0.43-1.369 0.611-0.119 0.046-0.151 0.147-0.113 0.264 0.067 0.206 0.031 0.385-0.122 0.539-0.016 0.016-0.034 0.036-0.040 0.058-0.153 0.464-0.542 0.716-0.894 1.002-0.253 0.206-0.299 0.449-0.133 0.734 0.102 0.173 0.221 0.339 0.308 0.519 0.111 0.227 0.19 0.468 0.298 0.697 0.081 0.173 0.181 0.338 0.286 0.498 0.074 0.113 0.173 0.209 0.256 0.317 0.071 0.093 0.163 0.191 0.065 0.316-0.104 0.132-0.221 0.276-0.412 0.213-0.329-0.108-0.679-0.175-0.941-0.431-0.084-0.083-0.179-0.156-0.265-0.236-0.259-0.239-0.553-0.416-0.866-0.579-0.526-0.276-1.092-0.498-1.5-0.963-0.031-0.036-0.071-0.062-0.111-0.087-0.356-0.228-0.357-0.231-0.335-0.642zM18.462 25.094c-0.024 0.016-0.047 0.031-0.071 0.047 0.016 0.064 0.019 0.139 0.055 0.19 0.049 0.070 0.119 0.132 0.191 0.178 0.049 0.031 0.119 0.031 0.179 0.044-0.007-0.074 0.013-0.173-0.027-0.215-0.093-0.098-0.216-0.166-0.328-0.245z"></path>
</svg>
