<!-- Generated by IcoMoon.io -->
<svg version="1.1" xmlns="http://www.w3.org/2000/svg" width="512" height="512" viewBox="0 0 512 512">
<title>fighters-mount</title>
<path fill="#fff" d="M298.144 35.2c1.072 0 2.16 0 3.248 0 0.848 0.176 1.712 0.464 2.576 0.544 4.032 0.432 8.080 0.736 12.112 1.216 3.36 0.384 3.936 1.328 3.728 4.608-0.144 2.112 0.064 4.272 0.32 6.416 0.272 2.4 0.992 4.768 1.12 7.184 0.688 11.952 1.264 23.888 1.792 35.856 0.272 6.208 2.288 7.888 8.496 7.216 4.192-0.464 8.464-0.704 12.672-0.768 5.568-0.112 11.184 0.288 16.736 0.032 13.248-0.656 26.464-1.6 39.696-2.4 1.968-0.112 3.936-0.032 4.608 2.32 0.704 2.544-0.816 5.568-3.072 6.416-3.2 1.216-6.448 2.272-9.6 3.616-1.040 0.464-1.776 1.536-2.688 2.32 0.848 0.704 1.6 1.632 2.576 2.064 4.288 1.856 8.8 3.28 12.912 5.44 4.368 2.288 8.8 3.392 13.712 3.248 7.056-0.208 14.048 0.224 20.832 2.464 1.792 0.576 3.568 0.928 3.248 3.424s-1.536 3.76-4.144 4.080c-2.928 0.352-5.824 1.072-8.656 1.936-2.96 0.896-3.504 3.76-1.040 5.712 1.872 1.488 4.016 2.816 6.24 3.648 4.896 1.824 9.856 3.504 14.88 4.784 2.4 0.64 5.264 0.848 7.632 0.176 4.4-1.28 8.192-0.368 11.888 1.776 3.2 1.856 3.504 2.848 2.4 6.432-1.2 3.824-0.4 4.72 3.648 5.040 4.656 0.352 9.296 0.944 13.936 1.536 0.752 0.096 1.856 0.784 1.968 1.392 1.008 4.448 2.304 8.896 2.576 13.424 0.32 5.152 0.176 5.472 5.344 5.68 5.232 0.208 9.088 4.464 8.704 9.696-0.24 3.648-0.288 7.328-0.896 10.912-0.544 3.248-0.032 6.224 0.992 9.216 2.144 6.416 2.608 13.008 2.288 19.68-0.256 4.928-0.528 9.824-0.896 14.752-0.464 5.984-0.672 12-1.744 17.888-0.784 4.352-3.072 8.416-4.224 12.736-3.616 13.536-10.672 24.88-20.448 34.912-11.232 11.52-24.56 19.52-39.632 24.432-12.048 3.936-24.496 6.64-36.816 9.712-12.384 3.104-24.992 3.184-37.632 2.576-2.368-0.112-3.616-1.216-4.016-3.536-0.528-3.152 0.784-5.2 4.256-6.048 10.88-2.704 21.344-6.464 31.536-11.104 8.688-3.936 17.664-7.248 26.32-11.248 16.896-7.856 30.768-19.008 36.768-37.36 2.4-7.264 3.744-14.976 4.608-22.608 0.656-5.824 0.72-12.032-0.608-17.712-2.368-9.968-4.048-20.384-10.832-28.736-1.856-2.288-3.68-4.592-5.792-6.592-3.872-3.648-9.168-3.936-13.968-5.44-10.56-3.312-21.184-2.496-31.76 0.096-2.16 0.544-3.536 2.048-3.376 4.288 0.368 5.168 0.64 10.4 1.488 15.52 0.896 5.488 2.912 10.8 3.568 16.288 1.040 8.656 4.96 15.856 9.984 22.64 2.832 3.856 6.912 6.576 11.312 7.376 5.408 1.008 10.704 2.080 15.936 3.872 7.344 2.528 10.48 9.152 6.768 15.888-6.624 12-18.336 18.208-29.312 25.2-0.064 0.048-0.16 0.064-0.256 0.096-3.424 1.072-5.632 0.352-7.664-2.608-4.464-6.496-10.448-11.104-17.728-14.064-4.176-1.68-8.368-3.312-12.592-4.896-10.992-4.16-21.696-8.768-30.976-16.208-3.008-2.4-6.336-4.432-9.664-6.384-8.912-5.248-16.224-12.256-22.656-20.208-1.76-2.176-2.832-4.976-3.856-7.648-0.656-1.68-1.424-2.576-3.264-2.464-1.168 0.064-2.352-0.048-3.52 0.112-2.688 0.368-3.376 1.616-2.32 4.080 3.76 8.752 9.136 16.352 16.688 22.224 6.912 5.344 14 10.48 21.024 15.648 3.664 2.672 3.616 4.624-0.096 7.136-1.152 0.768-2.256 1.856-2.896 3.072-1.76 3.328-0.928 8.112 1.6 10.912 0.976 1.072 1.936 2.144 2.832 3.248 3.040 3.664 2.8 7.776-0.576 11.040-4.784 4.608-9.424 9.392-14.368 13.824-8.64 7.776-15.36 17.168-22.448 26.224-0.672 0.88-1.376 2.064-1.376 3.104-0.032 4.224-2.4 6.656-5.68 8.848-1.616 1.072-3.008 2.784-3.936 4.528-1.328 2.544-0.464 3.712 2.4 3.76 10.192 0.176 20.4 0.432 30.592 0.4 10.64 0 21.264-0.176 31.904-0.4 10.096-0.208 20.192-0.608 30.288-0.848 2-0.048 3.184-0.608 3.232-2.928 0.096-4.080-0.032-4.32-4.256-4.352-0.64 0-1.28 0-1.904-0.144-2.032-0.464-3.088-1.664-3.072-3.824 0.032-2.048 0.496-3.776 2.896-4.208 3.984-0.72 7.952-1.6 11.984-2.048 1.68-0.176 3.744 0.16 5.12 1.056 3.808 2.528 7.040 1.968 10.336-0.816 3.792-3.184 8.128-5.152 13.040-6.144 4.752-0.976 9.456-2.288 14.048-3.824 5.552-1.824 11.008-3.968 16.464-6.080 4.016-1.536 4.304-1.456 5.776 2.656 0.464 1.264 0.768 2.608 1.312 3.824 1.328 2.896 0.688 5.040-1.936 6.96-2.816 2.064-5.664 4.256-8.016 6.848-1.936 2.144-3.568 4.752-4.656 7.424-1.28 3.136-0.272 4.32 3.072 4.544 1.44 0.096 2.88 0.064 4.336 0.048 10.56-0.144 21.088-0.336 31.648-0.464 3.12-0.032 6.224 0.144 9.344 0.32 0.64 0.048 1.712 0.528 1.76 0.896 0.256 2.176 0.896 4.608 0.176 6.496-0.88 2.352-2.656 4.576-4.56 6.288-6.4 5.776-12.624 11.888-19.664 16.832-21.696 15.312-43.664 30.32-67.744 41.808-7.696 3.664-15.68 6.768-23.696 9.648-6.24 2.256-12.88 3.44-19.152 5.68-23.056 8.176-46.912 12.64-71.136 15.424-4.016 0.464-8.128 0.144-12.16 0.464-7.536 0.576-15.040 1.392-22.56 2.032-3.408 0.288-6.8 0.384-10.208 0.544-5.056 0-10.096 0-15.152 0-0.704-0.144-1.376-0.336-2.112-0.432-7.52-1.008-15.024-1.936-22.512-3.008-19.584-2.816-38.496-8.256-57.472-13.776-27.2-7.888-52.912-18.8-76.464-34.592-8.016-5.376-15.632-11.28-23.568-16.72-10.752-7.376-19.84-16.64-29.424-25.376-0.256-0.224-0.432-0.544-0.704-0.896 7.472-2.816 15.024-4.176 22.848-3.376 2.928 0.288 4.784-0.784 6.176-3.056-1.040-2.464-3.008-3.312-5.44-3.344-2.16-0.048-4.352 0.032-6.48-0.288-1.552-0.224-3.024-1.008-5.040-1.728 1.36-1.248 2.048-2.144 2.928-2.704 4.608-2.832 9.12-5.888 13.968-8.208 2.832-1.376 6.256-2.032 9.376-2.048 1.936 0 4.8 1.328 5.632 2.896 2.288 4.272 5.12 4.768 9.088 2.96 0.576-0.24 1.248-0.24 1.856-0.336 2.352-0.4 3.984-1.664 4.608-4 0.944-3.568 1.984-7.088 2.624-10.688 0.608-3.376 1.648-6.368 4.080-8.896 10.16-10.608 19.488-21.744 27.248-34.368 9.12-14.832 19.76-28.688 29.376-43.216 3.264-4.96 5.504-10.64 7.984-16.096 1.040-2.288-0.032-3.92-2.576-4.256-2.576-0.336-5.216-0.32-7.824-0.288-5.296 0.032-7.040-1.488-7.888-6.72-0.992-6.032 0.928-11.344 3.664-16.528 2.048-3.856 1.504-6.464-1.28-9.856-0.944-1.136-1.536-2.832-1.648-4.32-0.272-3.568-1.36-4.384-4.736-2.896-0.992 0.432-1.872 1.072-2.8 1.632-10.384 6.32-20.656 12.816-31.184 18.944-6.448 3.744-13.2 7.024-19.792 10.432-1.76 0.928-2.544 2.272-2.896 4.224-0.176 1.024-1.136 2.496-1.968 2.672-1.008 0.208-2.752-0.432-3.344-1.28-1.44-2.144-2.816-4.48-3.504-6.928-1.936-7.024-5.616-13.2-8.992-19.536-2.208-4.144-4.24-4.752-8.688-2.976-5.856 2.352-10.688 6.288-14.288 11.488-1.616 2.32-3.568 3.424-6.176 2.544-3.2-1.056-6.304-2.464-10.208-4.048 4.464-2.352 4.656-5.92 4.144-9.888 4.656 1.36 8.384 0.448 10.88-3.504 1.936-3.056 4.144-5.2 8.128-5.344 2.64-0.096 3.312-1.968 2.096-4.224-2.16-4-6.112-6.208-10.256-5.536-7.024 1.152-9.488 2.432-9.664 7.936-0.048 1.504-0.944 1.824-2.208 1.312-0.752-0.288-1.472-0.704-2.208-0.992-3.472-1.328-5.888 0.048-6.496 3.664-0.144 0.784 0.032 1.824-0.432 2.352-0.64 0.752-1.968 1.856-2.544 1.616-2.288-0.928-4.944-1.824-6.4-3.6-2.176-2.656-3.712-5.92-5.136-9.104-1.76-3.968-1.136-7.76 1.36-11.472 3.088-4.64 5.728-9.568 8.656-14.288 1.552-2.528 3.040-5.168 5.024-7.312 5.152-5.536 9.6-11.2 12.896-18.272 4.048-8.608 8.48-17.008 11.632-26.032 0.336-0.976 0.944-1.856 1.424-2.72 3.088 0.64 2.288 2.944 2.72 4.768 0.32 1.344 0.816 3.216 1.824 3.744 1.744 0.976 2.864-0.656 3.728-2.144 0.992-1.712 2.608-2 4.192-1.184 0.992 0.496 1.776 1.504 2.48 2.4 6.048 7.856 12.064 15.712 18.016 23.632 1.184 1.6 2.48 3.152 4.608 2.72 3.616-0.736 7.168-1.824 11.056-2.832-0.944-1.376-1.44-2.112-1.984-2.832-6.448-8.672-12.944-17.296-19.376-25.984-3.776-5.072-3.84-11.28-0.288-16.48 2.8-4.096 5.68-8.112 8.464-12.192 0.944-1.376 1.984-2.432 3.76-1.744 2.080 0.816 1.216 2.432 0.976 3.92-0.736 4.4-1.504 8.848-2.112 13.28-0.096 0.656 0.368 1.616 0.896 2.032 0.384 0.288 1.616 0.144 1.92-0.224 2.112-2.736 4.656-1.936 7.376-1.264 4.72 1.168 6.592 0.368 9.456-3.616 3.568-4.976 7.040-10 10.752-14.896 1.248-1.632 3.040-2.832 4.608-4.224 0.384 0.176 0.768 0.384 1.168 0.56-0.32 2-0.464 4.048-0.976 6-1.104 4.32-2.576 8.576-3.536 12.928-0.656 2.96 1.712 4.768 4.448 3.456 1.744-0.816 3.264-2.224 4.608-3.616 5.088-5.328 10.128-10.752 15.12-16.208 1.824-2 3.824-2.464 6.768-1.216-0.688 1.68-1.36 3.28-1.984 4.896-1.328 3.392-2.896 6.736-3.808 10.256-0.272 1.072 0.944 3.424 2 3.824 3.856 1.536 7.888 2.208 12.176 1.392 2.4-0.464 4.976-0.208 7.44-0.144 2.512 0.096 4.976 0.512 7.488 0.496 4.224-0.032 8.432-0.384 12.64-0.432 2.512-0.032 5.152 0.832 7.52 0.336 4.336-0.896 7.584 1.248 11.168 2.576-7.088 20.016-33.264 53.264-49.088 65.968-3.648 2.928-6.912 6.288-10.528 9.312-5.936 4.96-12 9.76-18.016 14.624-1.584 1.28-3.040 1.056-4.624-0.208-0.944-0.752-2.192-1.552-3.312-1.568-3.936-0.048-7.92 0.096-11.84 0.496-0.944 0.096-1.856 1.328-2.64 2.16-1.040 1.072-1.92 2.288-2.864 3.456-0.56-1.488-1.152-2.976-1.712-4.448-0.096-0.224 0-0.544 0.032-0.816 0.48-7.888 0.944-15.776 1.44-23.664 0.16-2.704-0.464-3.28-3.088-2.656-2.192 0.512-4.368 1.104-6.544 1.68-1.824 0.464-2.624 1.6-2.544 3.568 0.224 4.768 0.224 9.536 0.48 14.32 0.464 9.312 0.464 9.28-7.744 13.712-2.224 1.216-4.128 0.992-5.84-0.816-2.544-2.672-5.232-5.248-7.584-8.080-2.208-2.672-4.976-3.744-8.304-3.664-2.72 0.096-3.44 1.248-1.824 3.36 4.176 5.392 8.512 10.656 12.864 15.92 1.504 1.824 3.52 2.656 6 2.496 2.368-0.144 4.176 0.896 5.088 3.184 1.472 3.68 1.888 3.92 5.488 2.080 9.776-5.024 19.472-10.144 29.184-15.232 1.28-0.672 2.64-1.28 3.952-1.92-0.464 1.152-1.168 1.792-1.968 2.32-2.8 1.824-5.68 3.504-8.416 5.392-1.312 0.896-2.624 1.968-3.52 3.264-1.392 2.032-0.496 5.168 1.504 5.248 2.8 0.112 6.112 0.496 8.368-0.736 7.648-4.176 15.504-8.32 22.24-13.792 24.912-20.144 46.288-43.52 62.32-71.408 2.4-4.176 4.4-8.608 6.608-12.912 0.4-0.784 0.864-1.616 1.504-2.208 2.544-2.32 2.8-4.784 0.512-7.28-1.52-1.664-2.944-3.568-4.8-4.704-2.32-1.392-2.496-3.232-2.464-5.488 0.16-9.632 0.256-19.248 0.4-28.88 0.048-2.528-0.816-4.16-3.232-5.312-1.68-0.816-3.040-2.384-4.64-3.712 1.504-1.824 2.864-3.264 4.032-4.832 3.584-4.864 8.16-7.344 14.4-6.848 1.776 0.16 3.152 0.576 3.52 2.224 0.704 3.216 1.536 6.496 1.488 9.744-0.096 5.648-1.424 11.312-1.104 16.912 0.384 6.704 2.16 13.424 8.736 16.992 7.344 3.936 15.264 6.288 23.6 7.328 12.72 1.6 24.864-0.992 36.512-5.504 11.312-4.384 20.464-11.424 23.696-23.984 0.144-0.528 0.272-1.088 0.56-1.504 4.128-6.096 0.8-18.112-5.904-22.592-4.832-3.36-4.544-6.96 0.576-10.176zM211.312 261.008c0.576-4.048 1.36-7.68 1.552-11.312 0.112-1.936-0.096-4.352-1.184-5.808-3.2-4.336-6.896-8.288-10.384-12.384-0.224-0.288-0.496-0.544-0.8-0.72-1.92-1.184-4.016-1.488-5.792-0.048-1.936 1.568-0.576 3.28 0.448 4.752 2.288 3.248 4.656 6.416 7.008 9.568 3.072 4.144 3.136 9.376 0.816 13.392-3.68 6.368-7.040 12.88-10.384 19.424-2.080 4.064-3.52 8.464-5.776 12.432-5.872 10.352-12.56 20.144-20.48 29.040-0.944 1.056-2.144 1.856-3.2 2.832-2.32 2.096-5.12 3.856-6.8 6.352-3.264 4.816-5.936 10-8.688 15.136-1.536 2.848-3.008 3.568-5.808 1.824-0.992-0.64-1.648-1.792-2.528-2.64-0.72-0.704-1.536-1.68-2.368-1.776-1.584-0.144-3.264 0.096-4.832 0.432-2.112 0.448-3.68 1.824-3.904 3.968-0.816 7.392-4.624 13.744-7.232 20.496-0.8 2.032-2.976 3.76-4.912 5.008-1.552 0.992-2.144 2.144-1.52 3.424 0.384 0.768 1.936 1.328 3.008 1.36 2.144 0.032 4.288-0.528 6.432-0.544 15.504-0.176 31.008-0.208 46.512-0.432 22.448-0.32 44.896-0.72 67.344-1.072 1.328-0.032 2.912 0.288 2.912-1.776 0-1.92-1.008-3.056-2.96-3.104-1.44-0.032-3.024 0.464-4.288-0.032-1.456-0.544-2.784-1.728-3.92-2.88-0.336-0.336-0.16-1.936 0.24-2.16 2.864-1.648 5.68-3.856 8.8-4.4 7.12-1.28 14.256-2.976 21.664-2.496 2.864 0.176 5.568-1.28 7.008-3.888 3.12-5.664 7.872-7.888 14.112-7.376 2.112 0.176 3.264-0.88 4.064-2.784 1.328-3.248 2.72-6.464 4.304-9.568 6.048-11.92 12.032-23.92 18.448-35.68 3.088-5.664 4.192-11.424 4.176-17.792-0.032-5.072-1.44-8.608-5.696-11.568-5.456-3.808-8.080-9.456-7.2-16.144 0.608-4.608 1.808-9.152 2.72-13.744 0.144-0.624 0.16-1.312 0.224-1.824-2.432 0.432-4.608 1.024-6.816 1.136-5.632 0.24-11.344-0.256-16.912 0.448-9.568 1.216-18.8 4.032-27.776 7.568-3.008 1.184-6 2.4-8.912 3.792-9.776 4.608-19.408 9.536-30.768 11.568zM207.6 122.496c-0.288 0.096-0.576 0.208-0.88 0.288-0.144 1.488-0.288 2.96-0.384 4.432-0.176 2.464-0.208 4.992-0.512 7.456-0.384 3.104-1.312 6.176-1.472 9.28-0.32 6.176-0.384 12.4-0.368 18.576 0.032 3.312 0.336 6.608 0.656 9.92 0.464 4.576 1.408 9.088 1.44 13.648 0.224 15.824 3.92 31.168 6.048 46.736 0.288 2.112 1.488 3.424 3.696 3.616 2.16 0.208 3.68-0.624 4.368-2.752 0.112-0.336 0.256-0.672 0.4-0.992 2.528-5.6 7.632-6.976 12.592-3.376 1.376 1.008 2.752 2.048 4.144 3.040 3.408 2.432 7.2 3.568 11.376 3.744 6.8 0.288 13.216-1.008 19.552-3.376 3.184-1.184 6.512-2.096 9.856-2.608 6.768-1.056 13.568-1.744 20.368-2.608 3.936-0.496 4.608-1.168 3.744-5.024s-2.192-7.568-3.312-11.36c-2.368-7.92-5.152-15.824-3.872-24.272 1.168-8 2.288-16.032 4.016-23.92 1.504-6.896 3.904-13.632 5.696-20.48 0.496-1.872 0.992-4.224 0.256-5.792-1.904-4-4.464-7.664-6.736-11.392-7.168 3.28-7.664 4.256-8.352 11.36-0.992 10.080-0.88 20.32-4.64 29.984-0.656 1.664-0.816 3.488-1.248 5.248-2.976 12.4-4.912 25.024-9.888 36.912-0.752 1.856-1.6 2.432-3.472 1.216 0.432-1.168 0.832-2.352 1.248-3.488 5.28-14.192 8.272-29.024 11.168-43.792 1.568-8.176 2.032-16.56 2.912-24.848 0.112-1.056-0.288-2.176-0.464-3.264-1.12 0.208-2.304 0.208-3.296 0.608-5.664 2.32-11.152 5.088-16.928 7.072-13.776 4.704-27.136 3.264-39.888-3.744-2.368-1.312-3.904-0.784-4.144 1.968-0.4 4.224-0.288 8.496-0.512 12.752-0.64 11.184-0.448 22.272 2.72 33.104 2.112 7.248 4.304 14.432 6.4 21.68 0.176 0.608-0.144 1.376-0.272 2.064-0.8-0.288-1.68-0.464-2.304-0.96-0.432-0.336-0.496-1.136-0.704-1.744-1.616-4.944-3.68-9.808-4.736-14.864-2.96-14.128-5.728-28.32-8.064-42.56-0.944-5.76-1.968-11.744 0.208-17.6 0.224-0.64-0.080-1.68-0.496-2.288-1.888-2.64-3.936-5.136-5.936-7.648zM87.408 163.2c4.976 0.112 8.48-3.056 8.528-7.664 0.032-4.4-2.4-6.8-7.104-6.928-5.216-0.144-9.168 3.264-9.248 8.080-0.112 4.032 2.752 6.416 7.824 6.528zM46.112 157.84c4.896 0.032 9.488-4.88 9.312-8.992-0.064-1.712-0.032-3.424-0.336-5.088-0.176-1.024-0.72-2.56-1.472-2.784-0.976-0.32-2.704 0.048-3.36 0.784-3.248 3.712-6.304 7.6-9.248 11.568-0.384 0.512-0.064 2.32 0.464 2.64 1.664 0.944 3.584 1.488 4.64 1.888zM315.888 107.12c-0.432-1.040-0.88-2.144-1.328-3.216-1.152 0.688-2.688 1.088-3.376 2.080-2.912 4.096-5.6 8.336-8.256 12.592-0.544 0.848-0.928 2.032-0.848 3.008 0.064 0.928 0.624 2.288 1.328 2.576s2.208-0.256 2.752-0.928c2.864-3.68 5.632-7.424 8.224-11.312 0.816-1.264 0.944-2.976 1.504-4.784zM308.992 218.512c2.16-6.176 0.672-11.76-0.384-17.312-0.144-0.672-2.048-1.168-3.2-1.392-0.272-0.048-1.248 1.376-1.152 2.032 0.816 5.552 1.312 11.216 4.736 16.688z"></path>
<path fill="#fff" d="M208.848 267.52c2.864 1.392 5.456 2.432 7.808 3.92 1.2 0.752 2.16 2.144 2.832 3.44 3.2 6.048 4.464 12.656 5.376 19.36 0.464 3.568 1.216 7.088 1.888 10.608 0.656 3.376-0.208 4.496-3.584 4.608-3.936 0.144-6.24 2.992-5.616 6.864 0.288 1.792 1.248 2.976 3.12 3.184 3.584 0.432 7.232 1.424 10.736 1.056 3.808-0.384 7.6-1.856 10.32-4.992 1.472-1.712 2.752-3.6 4.336-5.152 0.656-0.624 2-1.024 2.896-0.832 0.544 0.144 1.040 1.536 1.152 2.4 0.384 3.152-0.704 5.808-3.008 8-1.872 1.792-2.752 3.968-2.288 6.592 0.496 2.768 2.432 4.176 5.264 3.76 2.688-0.4 4.944-1.552 6.48-3.92 1.376-2.096 2.912-4.096 4.368-6.176 2.544 2.112 3.264 4.72 1.936 7.76-3.072 7.072-7.968 12.416-14.912 16.080-7.488 3.936-15.456 4.208-23.44 3.392-3.136-0.32-6.112-2.464-9.056-3.936-2.368-1.184-4.512-2.288-7.376-1.248-2.432 0.848-4.912-1.536-4.336-3.888 1.68-6.64 1.008-13.248-0.576-19.728-1.104-4.608-3.008-8.976-4.544-13.456-0.32-0.928-0.88-1.856-0.896-2.784-0.032-1.968-1.040-2.96-2.768-3.488-1.968-0.608-2.64-1.856-1.6-3.68 5.152-9.28 10.336-18.512 15.52-27.776z"></path>
</svg>
