<!-- Generated by IcoMoon.io -->
<svg version="1.1" xmlns="http://www.w3.org/2000/svg" width="35" height="32" viewBox="0 0 35 32">
<title>fighters-trapper</title>
<path fill="#fff" d="M19.839 0c0.144 0.083 0.172 0.23 0.188 0.374 0.122 1.086 0.176 2.173 0.048 3.265-0.026 0.219-0.038 0.44-0.043 0.66-0.013 0.516-0.055 1.028-0.173 1.534-0.035 0.149-0.027 0.309-0.028 0.465-0.001 0.132 0.073 0.192 0.2 0.145 0.104-0.039 0.173-0.015 0.261 0.052 0.090 0.070 0.206 0.116 0.317 0.146 0.345 0.095 0.672 0.219 0.952 0.452 0.063 0.052 0.151 0.083 0.233 0.102 0.612 0.14 1.223 0.281 1.839 0.409 0.324 0.067 0.422-0.036 0.388-0.372-0.042-0.407-0.11-0.806-0.265-1.19-0.126-0.313-0.226-0.637-0.344-0.954-0.040-0.109-0.105-0.21-0.155-0.315-0.019-0.040-0.027-0.085-0.040-0.13 0.445-0.062 0.527-0.013 0.64 0.257 0.026 0.059 0.118 0.094 0.185 0.13 0.082 0.044 0.195 0.058 0.251 0.122 0.231 0.259 0.457 0.527 0.663 0.806 0.211 0.285 0.378 0.604 0.601 0.876 0.152 0.187 0.348 0.358 0.559 0.47 0.567 0.305 1.089 0.665 1.566 1.098 0.313 0.285 0.649 0.547 0.976 0.819 0.18 0.151 0.324 0.327 0.386 0.562 0.040 0.152 0.030 0.278-0.094 0.396-0.145 0.137-0.114 0.255 0.073 0.331 0.074 0.030 0.153 0.074 0.229 0.071 0.086-0.003 0.198-0.024 0.251-0.082 0.089-0.094 0.18-0.149 0.305-0.149 0.117 0 0.235-0.005 0.352 0.008 0.165 0.019 0.253 0.138 0.337 0.271 0.054 0.085 0.134 0.171 0.224 0.208 0.282 0.118 0.573 0.216 0.771 0.472 0.023 0.028 0.056 0.050 0.089 0.069 0.548 0.325 1.093 0.659 1.648 0.972 0.224 0.126 0.43 0.247 0.556 0.488 0.113 0.216 0.328 0.298 0.565 0.323 0.27 0.027 0.315 0.062 0.317 0.339 0.001 0.132-0.044 0.265-0.069 0.398-0.112-0.042-0.233-0.067-0.335-0.126-0.273-0.157-0.566-0.207-0.878-0.233-0.614-0.050-1.227-0.132-1.84-0.198-0.298-0.031-0.598-0.054-0.898-0.081-0.021-0.001-0.044-0.001-0.063-0.011-0.578-0.282-1.251-0.2-1.832-0.476-0.048-0.023-0.114-0.015-0.172-0.013-0.185 0.003-0.372 0.030-0.555 0.009-0.613-0.065-1.223-0.157-1.837-0.216-0.503-0.048-0.989-0.144-1.442-0.368-0.384-0.19-0.778-0.235-1.204-0.207-0.249 0.016-0.512-0.048-0.755-0.124-0.251-0.077-0.284-0.402-0.122-0.606 0.159-0.199 0.282-0.429 0.402-0.655 0.062-0.117-0.011-0.22-0.153-0.238-0.188-0.023-0.378-0.094-0.569 0.009-0.034 0.017-0.104-0.013-0.148-0.038-0.315-0.172-0.652-0.276-1.004-0.332-0.026-0.004-0.052-0.012-0.075-0.023-0.352-0.169-0.703-0.341-1.055-0.509-0.073-0.034-0.151-0.059-0.229-0.075-0.39-0.083-0.495-0.043-0.646 0.323-0.281 0.677-0.661 1.284-1.165 1.821-0.312 0.332-0.587 0.698-0.878 1.050-0.089 0.108-0.066 0.305 0.073 0.437 0.315 0.301 0.638 0.591 0.957 0.887 0.153 0.141 0.301 0.289 0.458 0.426 0.121 0.105 0.246 0.208 0.38 0.294 0.356 0.229 0.375 0.511 0.044 0.773-0.017 0.013-0.034 0.026-0.051 0.039-0.262 0.2-0.327 0.359-0.176 0.508 0.292 0.29 0.536 0.44 0.813 0.179 0.031-0.030 0.059-0.062 0.091-0.091 0.159-0.144 0.339-0.156 0.488-0.004 0.327 0.335 0.661 0.664 0.954 1.026 0.257 0.317 0.531 0.609 0.875 0.824 0.523 0.325 0.937 0.747 1.23 1.292 0.105 0.196 0.277 0.36 0.508 0.343 0.212-0.016 0.328-0.23 0.372-0.405 0.106-0.421 0.387-0.739 0.577-1.109 0.056-0.112 0.137-0.165 0.267-0.16 0.097 0.004 0.149 0.035 0.169 0.13 0.050 0.229 0.179 0.359 0.427 0.388 0.202 0.024 0.28 0.211 0.294 0.379 0.066 0.726 0.366 1.372 0.636 2.034 0.313 0.763 0.559 1.555 0.864 2.321 0.301 0.758 0.629 1.505 0.966 2.247 0.121 0.266 0.312 0.5 0.457 0.757 0.118 0.208 0.223 0.425 0.324 0.642 0.028 0.060 0.027 0.137 0.024 0.206-0.013 0.261-0.235 0.398-0.472 0.293-0.058-0.026-0.121-0.054-0.165-0.098-0.396-0.383-0.89-0.616-1.362-0.88-0.036-0.020-0.091-0.048-0.118-0.034-0.156 0.077-0.278-0.009-0.41-0.067-0.32-0.138-0.641-0.273-0.962-0.41-0.009-0.004-0.020-0.007-0.030-0.012-0.372-0.183-0.75-0.358-1.117-0.551-0.426-0.224-0.884-0.324-1.355-0.384s-0.937-0.104-1.411-0.008c-0.141 0.028-0.301-0.043-0.453-0.055-0.276-0.023-0.552-0.040-0.829-0.054-0.218-0.009-0.437-0.012-0.656-0.008-0.138 0.003-0.277 0.032-0.417 0.034-0.183 0.001-0.241-0.073-0.206-0.254 0.051-0.262 0.22-0.421 0.442-0.56 0.458-0.288 0.911-0.587 1.345-0.91 0.273-0.202 0.347-0.507 0.288-0.84-0.043-0.237 0.016-0.302 0.259-0.293 0.095 0.004 0.19 0 0.294 0 0-0.212 0.008-0.406-0.003-0.597-0.009-0.152-0.105-0.237-0.257-0.266-0.23-0.046-0.423 0.008-0.589 0.176-0.177 0.18-0.27 0.153-0.464 0.001-0.302-0.239-0.496-0.54-0.634-0.891-0.040-0.101-0.124-0.19-0.202-0.267-0.285-0.285-0.601-0.527-0.953-0.733-0.349-0.204-0.664-0.47-0.984-0.722-0.241-0.188-0.46-0.406-0.702-0.593-0.195-0.151-0.401-0.29-0.617-0.405-0.215-0.114-0.382-0.266-0.538-0.45-0.37-0.438-0.755-0.863-1.141-1.288-0.145-0.159-0.238-0.129-0.298 0.082-0.056 0.198-0.188 0.302-0.383 0.347-0.565 0.129-1.062 0.395-1.507 0.761-0.149 0.122-0.188 0.128-0.278-0.039-0.052-0.098-0.095-0.204-0.132-0.309-0.050-0.14-0.145-0.191-0.286-0.177-0.282 0.027-0.462 0.262-0.425 0.558 0.012 0.095 0.042 0.192 0.031 0.286-0.024 0.224-0.222 0.413-0.45 0.44-0.198 0.023-0.372 0.078-0.515 0.234-0.056 0.062-0.157 0.086-0.239 0.124-0.312 0.141-0.625 0.281-0.937 0.422-0.125 0.056-0.249 0.121-0.376 0.169-0.116 0.043-0.167 0.125-0.151 0.235 0.043 0.301 0.078 0.606 0.149 0.902 0.097 0.395 0.222 0.785 0.341 1.175 0.091 0.297 0.188 0.593 0.294 0.884 0.024 0.069 0.086 0.152 0.146 0.169 0.042 0.012 0.129-0.067 0.168-0.124 0.081-0.12 0.146-0.249 0.21-0.379 0.245-0.501 0.483-1.005 0.734-1.503 0.028-0.055 0.129-0.108 0.19-0.102 0.063 0.005 0.148 0.073 0.172 0.134 0.102 0.254 0.066 0.515 0.003 0.776-0.079 0.328-0.171 0.656-0.214 0.989-0.028 0.219 0.019 0.448 0.032 0.672 0.034 0.59 0.040 1.183 0.105 1.769 0.101 0.929 0.241 1.852 0.364 2.778 0.005 0.043 0.013 0.085 0.016 0.128 0.043 0.614 0.082 1.23 0.13 1.844 0.026 0.321 0.048 0.644 0.106 0.961 0.030 0.163 0.121 0.319 0.204 0.466 0.14 0.247 0.306 0.48 0.442 0.729 0.144 0.262 0.035 0.483-0.243 0.578-0.114 0.040-0.211 0.133-0.316 0.202-0.011 0-0.021 0-0.032 0-0.243-0.126-0.3-0.364-0.354-0.602-0.198-0.876-0.581-1.657-1.176-2.331-0.039-0.043-0.085-0.083-0.134-0.112-0.474-0.28-0.86-0.656-1.192-1.091-0.315-0.413-0.613-0.841-0.953-1.233-0.273-0.315-0.593-0.589-0.898-0.874-0.212-0.198-0.457-0.363-0.648-0.578-0.417-0.469-0.812-0.958-1.208-1.446-0.13-0.161-0.234-0.344-0.36-0.531 0.253-0.079 0.445 0.017 0.63 0.122 0.267 0.152 0.543 0.261 0.855 0.238 0.192-0.013 0.384-0.042 0.575-0.071 0.3-0.046 0.376-0.211 0.208-0.46-0.207-0.308-0.332-0.645-0.415-1.005-0.040-0.175-0.117-0.343-0.184-0.512-0.071-0.179-0.181-0.347-0.22-0.531-0.095-0.452-0.267-0.871-0.487-1.271-0.042-0.077-0.149-0.152-0.234-0.163-0.41-0.047-0.821-0.089-1.234-0.099-0.579-0.015-1.16-0.001-1.739 0-0.177 0-0.362-0.028-0.53 0.009-0.445 0.099-0.876 0.032-1.309-0.051-0.332-0.063-0.676-0.114-0.798-0.508 0-0.021 0-0.043 0-0.065 0.020-0.008 0.039-0.020 0.059-0.024 0.356-0.073 0.724-0.105 1.039-0.32 0.032-0.021 0.083-0.021 0.125-0.020 0.251 0.007 0.417-0.122 0.565-0.315 0.112-0.146 0.25-0.281 0.399-0.388 0.16-0.116 0.239-0.245 0.235-0.444-0.005-0.253 0.003-0.505 0.013-0.758 0.005-0.142 0.067-0.255 0.2-0.327 0.258-0.137 0.257-0.14 0.034-0.335-0.024-0.021-0.050-0.043-0.069-0.067-0.065-0.082-0.114-0.16-0.060-0.278 0.036-0.079 0.051-0.179 0.040-0.265-0.013-0.11-0.069-0.214-0.095-0.323-0.036-0.146-0.108-0.215-0.266-0.16-0.126 0.044-0.175-0.038-0.203-0.142-0.027-0.101 0.011-0.153 0.113-0.167 0.133-0.017 0.147-0.11 0.085-0.196-0.058-0.081-0.148-0.137-0.243-0.222 0.090-0.021 0.171-0.056 0.253-0.058 0.741-0.015 1.464-0.134 2.175-0.336 0.043-0.012 0.093-0.007 0.138-0.005 0.13 0.004 0.259 0.019 0.388 0.011 0.148-0.009 0.297-0.060 0.444-0.054 0.329 0.016 0.634-0.056 0.94-0.175 0.438-0.169 0.884-0.319 1.331-0.462 0.706-0.227 1.388-0.491 2.026-0.884 0.638-0.395 1.181-0.906 1.774-1.355 0.026-0.019 0.047-0.044 0.070-0.067 0.21-0.207 0.425-0.41 0.63-0.621 0.239-0.245 0.476-0.493 0.702-0.749 0.148-0.167 0.276-0.354 0.415-0.528 0.157-0.196 0.337-0.378 0.47-0.587 0.187-0.293 0.323-0.618 0.509-0.913 0.402-0.632 0.769-1.276 0.901-2.026 0.017-0.097 0.069-0.156 0.185-0.163 0.065-0.004 0.148-0.058 0.183-0.114 0.194-0.315 0.401-0.624 0.552-0.958 0.137-0.301 0.195-0.636 0.313-0.946 0.12-0.312 0.184-0.629 0.171-0.96-0.019-0.462-0.048-0.923-0.070-1.384-0.011-0.227 0.027-0.274 0.262-0.341 0.109 0.192 0.258 0.374 0.32 0.582 0.124 0.414 0.206 0.841 0.292 1.266 0.028 0.141 0.070 0.261 0.203 0.325 0.169 0.082 0.339 0.167 0.515 0.224 0.108 0.035 0.235 0.048 0.347 0.030 0.364-0.059 0.609-0.285 0.747-0.618 0.215-0.524 0.289-1.081 0.345-1.638 0.021-0.215 0.028-0.429 0.204-0.587 0.043 0.008 0.086 0.008 0.129 0.008zM18.782 7.21c-0.003 0-0.005 0-0.007 0 0-0.129 0.009-0.258-0.003-0.386-0.017-0.185-0.101-0.341-0.263-0.44-0.345-0.206-0.707-0.335-1.12-0.22-0.191 0.052-0.394 0.074-0.577 0.144-0.884 0.339-1.19 1.407-0.604 2.144 0.386 0.485 0.937 0.613 1.528 0.613 0.181 0 0.356-0.036 0.491-0.168 0.292-0.281 0.488-0.612 0.511-1.027 0.013-0.22 0.028-0.441 0.043-0.66zM5.476 16.254c-0.030 0.461 0.229 0.784 0.62 0.926 0.081 0.030 0.159 0.067 0.231 0.112 0.161 0.101 0.333 0.117 0.512 0.074 0.355-0.086 0.642-0.293 0.906-0.532 0.062-0.056 0.11-0.156 0.12-0.239 0.066-0.64 0.038-1.257-0.44-1.765-0.194-0.207-0.302-0.198-0.395 0.065-0.043 0.118-0.109 0.149-0.234 0.126-0.128-0.024-0.27-0.042-0.394-0.011-0.496 0.128-0.937 0.735-0.926 1.245zM13.832 11.121c-0.196 0.027-0.378 0.048-0.558 0.077-0.226 0.035-0.419 0.13-0.559 0.317-0.261 0.347-0.153 1.124 0.195 1.387 0.034 0.026 0.073 0.047 0.113 0.062 0.176 0.066 0.348 0.146 0.53 0.187 0.116 0.026 0.259 0.020 0.367-0.026 0.344-0.148 0.679-0.32 1.016-0.484 0.25-0.121 0.266-0.167 0.18-0.425-0.040-0.122-0.13-0.263-0.099-0.366 0.055-0.181-0.031-0.309-0.085-0.448-0.087-0.226-0.324-0.27-0.515-0.354-0.060-0.026-0.165 0.062-0.254 0.087-0.054 0.016-0.114 0.019-0.171 0.015-0.059-0.004-0.116-0.021-0.16-0.031zM20.012 6.789c-0.021 0.224 0.032 0.315 0.226 0.402 0.22 0.099 0.44 0.199 0.664 0.289 0.048 0.019 0.113-0.001 0.171-0.004-0.021-0.066-0.024-0.168-0.070-0.191-0.32-0.172-0.648-0.328-0.991-0.496zM15.965 5.095c-0.238-0.003-0.367 0.105-0.332 0.271 0.011 0.050 0.052 0.118 0.091 0.128 0.036 0.008 0.108-0.043 0.128-0.086 0.050-0.098 0.077-0.206 0.113-0.313zM24.633 8.195c-0.004-0.024-0.008-0.047-0.012-0.071-0.073-0.030-0.144-0.063-0.219-0.083-0.009-0.003-0.063 0.082-0.054 0.113 0.016 0.054 0.070 0.14 0.102 0.138 0.063-0.005 0.122-0.062 0.183-0.097z"></path>
</svg>
