<!-- Generated by IcoMoon.io -->
<svg version="1.1" xmlns="http://www.w3.org/2000/svg" width="32" height="32" viewBox="0 0 32 32">
<title>fighters-berserker</title>
<path fill="#fff" d="M10.306 31.050c-0.050-0.027-0.104-0.047-0.147-0.082-0.168-0.137-0.355-0.188-0.57-0.155-0.229 0.034-0.357-0.138-0.502-0.267-0.023-0.021-0.013-0.096-0.003-0.143 0.081-0.353 0.070-0.708-0.082-1.031-0.265-0.566-0.325-1.178-0.473-1.772-0.13-0.516-0.347-1.023-0.695-1.451-0.039-0.048-0.082-0.096-0.135-0.129-0.253-0.16-0.494-0.327-0.672-0.58-0.048-0.070-0.174-0.099-0.27-0.118-0.16-0.031-0.328-0.025-0.487-0.058-0.112-0.023-0.228-0.068-0.321-0.132-0.141-0.095-0.259-0.096-0.379 0.021-0.008 0.009-0.015 0.017-0.025 0.023-0.168 0.106-0.336 0.211-0.502 0.315-0.263-0.129-0.542-0.232-0.709-0.497-0.039-0.062-0.075-0.126-0.106-0.192-0.087-0.185-0.181-0.36-0.369-0.468-0.047-0.027-0.087-0.075-0.115-0.123-0.341-0.587-0.622-1.192-0.493-1.902 0.016-0.082 0.030-0.177 0.079-0.237 0.426-0.51 0.606-1.108 0.688-1.755 0.073-0.576 0.234-1.147 0.247-1.722 0.015-0.705 0.178-1.385 0.256-2.078 0.007-0.068 0.015-0.135 0.015-0.202-0.002-0.836-0.017-1.67 0.002-2.506 0.007-0.322 0.090-0.643 0.136-0.964 0.025-0.184 0.062-0.367 0.065-0.55 0.011-0.516 0.084-1.023 0.234-1.516 0.093-0.307 0.243-0.581 0.459-0.82 0.346-0.378 0.66-0.796 1.044-1.13 0.722-0.626 1.557-1.073 2.471-1.368 0.248-0.081 0.477-0.222 0.717-0.33 0.209-0.095 0.42-0.184 0.632-0.273 0.084-0.036 0.174-0.053 0.253-0.095 0.53-0.284 1.108-0.414 1.689-0.524 0.129-0.024 0.274-0.017 0.401 0.014 0.48 0.122 0.964 0.236 1.433 0.395 0.645 0.219 1.252 0.516 1.847 0.863 0.638 0.373 1.154 0.88 1.723 1.325 0.201 0.157 0.345 0.398 0.486 0.618 0.166 0.262 0.291 0.548 0.454 0.812 0.415 0.672 0.73 1.385 0.942 2.146 0.016 0.053 0.019 0.121 0.053 0.16 0.338 0.384 0.335 0.877 0.415 1.337 0.23 1.313 0.148 2.62-0.116 3.919-0.007 0.033-0.013 0.067-0.017 0.1-0.047 0.307-0.045 0.308 0.267 0.316 0.045 0.174 0.084 0.355 0.14 0.53 0.29 0.895 0.424 1.821 0.578 2.745 0.028 0.174 0.106 0.344 0.186 0.502 0.147 0.285 0.188 0.569 0.090 0.88-0.102 0.327-0.236 0.628-0.474 0.885-0.285 0.305-0.556 0.623-0.822 0.947-0.079 0.096-0.138 0.222-0.168 0.341-0.053 0.214-0.175 0.333-0.389 0.367-0.431 0.070-0.844 0.087-1.235-0.186-0.234-0.165-0.5-0.093-0.734 0.051-0.352 0.216-0.595 0.53-0.795 0.883-0.132 0.234-0.217 0.473-0.214 0.751 0.007 0.562-0.079 1.11-0.287 1.641-0.053 0.138-0.036 0.309-0.033 0.466 0.002 0.106-0.025 0.16-0.137 0.161-0.166 0.002-0.243 0.107-0.273 0.251-0.027 0.133-0.039 0.268-0.058 0.403-0.033 0.245-0.166 0.429-0.35 0.58-0.231 0.188-0.613 0.070-0.753-0.223-0.039-0.082-0.090-0.16-0.13-0.23-0.239 0.228-0.468 0.429-0.675 0.649-0.107 0.113-0.208 0.126-0.329 0.059-0.248-0.136-0.414-0.323-0.42-0.627-0.005-0.276-0.013-0.553-0.039-0.829-0.009-0.084-0.059-0.189-0.124-0.236-0.141-0.101-0.248-0.034-0.248 0.14 0 0.136 0.019 0.271 0.013 0.405-0.005 0.093-0.011 0.205-0.061 0.273-0.17 0.223-0.219 0.479-0.253 0.742-0.031 0.239-0.085 0.257-0.328 0.234-0.228-0.021-0.366-0.157-0.507-0.305-0.087-0.090-0.164-0.189-0.262-0.264-0.048-0.037-0.144-0.053-0.195-0.028-0.053 0.025-0.089 0.106-0.107 0.171-0.014 0.050 0.005 0.112 0.016 0.166 0.059 0.31 0.030 0.37-0.245 0.505-0.062-0.002-0.13-0.002-0.198-0.002zM18.678 22.81c0.172-0.129 0.22-0.253 0.175-0.412-0.025-0.086-0.037-0.177-0.059-0.264-0.138-0.527-0.279-1.053-0.42-1.579-0.096-0.356-0.67-0.737-1.018-0.679-0.733 0.122-1.326 0.514-1.882 0.975-0.098 0.081-0.17 0.197-0.237 0.307-0.246 0.405-0.476 0.818-0.729 1.218-0.071 0.112-0.189 0.212-0.308 0.268-0.138 0.067-0.188 0.146-0.163 0.29 0.033 0.182 0.107 0.257 0.277 0.254 0.403-0.005 0.796-0.047 1.173-0.212 0.415-0.18 0.847-0.307 1.303-0.333 0.044-0.003 0.093-0.011 0.127-0.037 0.324-0.229 0.695-0.341 1.066-0.457 0.341-0.106 0.359-0.101 0.499 0.239 0.058 0.14 0.124 0.273 0.195 0.425zM6.044 21.502c0.020 0.177-0.023 0.386 0.157 0.48 0.178 0.093 0.315 0.345 0.58 0.2 0.018-0.010 0.059 0.027 0.092 0.033 0.098 0.020 0.195 0.051 0.293 0.051 0.35-0.002 0.702-0.043 1.048-0.014 0.259 0.021 0.518 0.103 0.762 0.197 0.336 0.129 0.655 0.299 0.986 0.442 0.073 0.031 0.169 0.034 0.248 0.021 0.29-0.047 0.338-0.168 0.15-0.391-0.329-0.389-0.616-0.814-1.023-1.141-0.341-0.273-0.648-0.591-0.978-0.882-0.065-0.057-0.158-0.087-0.242-0.116-0.324-0.113-0.652-0.213-0.972-0.335-0.252-0.096-0.274-0.093-0.423 0.132-0.118 0.178-0.25 0.345-0.373 0.52-0.079 0.112-0.175 0.219-0.222 0.344-0.051 0.143-0.058 0.305-0.085 0.46zM11.589 26.784c0.242-0.14 0.477-0.271 0.706-0.412 0.1-0.062 0.182-0.061 0.279-0.002 0.186 0.116 0.383 0.217 0.568 0.335 0.093 0.059 0.171 0.143 0.259 0.211 0.041 0.031 0.099 0.079 0.134 0.070 0.039-0.011 0.088-0.082 0.087-0.126-0.007-0.165-0.017-0.335-0.057-0.494-0.041-0.163-0.154-0.312-0.171-0.474-0.053-0.513-0.228-0.973-0.466-1.424-0.121-0.228-0.149-0.505-0.219-0.759-0.064-0.226-0.228-0.307-0.441-0.222-0.262 0.105-0.493 0.586-0.439 0.862 0.041 0.208 0.092 0.432 0.053 0.632-0.086 0.474-0.214 0.943-0.346 1.407-0.040 0.141-0.045 0.25 0.052 0.398zM11.322 29.765c0.068 0.116 0.126 0.226 0.198 0.327 0.027 0.038 0.084 0.054 0.126 0.081 0.023-0.047 0.075-0.101 0.065-0.141-0.025-0.113-0.065-0.225-0.121-0.327-0.028-0.053-0.102-0.079-0.154-0.118-0.031 0.053-0.064 0.104-0.113 0.177zM9.871 30.145c-0.057-0.059-0.112-0.116-0.168-0.175-0.057 0.089-0.133 0.172-0.163 0.268-0.025 0.082 0.013 0.174 0.133 0.166 0.148-0.007 0.151-0.123 0.198-0.259zM15.092 29.912c0.075-0.084 0.141-0.16 0.214-0.24-0.075-0.068-0.085-0.229-0.236-0.138-0.107 0.062-0.098 0.232 0.023 0.378z"></path>
<path fill="#fff" d="M0 13.838c0.147-0.118 0.29-0.155 0.477-0.053 0.327 0.178 0.644-0.019 0.709-0.412 0.064-0.386 0.009-0.764-0.051-1.144-0.102-0.657-0.206-1.316-0.282-1.976-0.068-0.595 0.009-1.181 0.166-1.759 0.129-0.473 0.234-0.949 0.457-1.395 0.257-0.515 0.554-0.989 0.99-1.376 0.426-0.377 0.818-0.795 1.25-1.166 0.206-0.177 0.468-0.288 0.708-0.425 0.499-0.287 0.996-0.576 1.498-0.854 0.536-0.298 1.089-0.569 1.614-0.886 0.305-0.185 0.57-0.436 0.853-0.66 0.15-0.119 0.291-0.248 0.443-0.364 0.081-0.061 0.164-0.064 0.223 0.048 0.082 0.151 0.155 0.164 0.285 0.048 0.152-0.135 0.294-0.281 0.443-0.418 0.178-0.162 0.332-0.118 0.386 0.123 0.055 0.245-0.011 0.471-0.177 0.66-0.067 0.075-0.149 0.138-0.229 0.2-0.339 0.253-0.689 0.493-1.018 0.758-0.248 0.202-0.472 0.435-0.703 0.657-0.121 0.118-0.259 0.228-0.352 0.364-0.279 0.406-0.58 0.804-0.432 1.359 0.073 0.275 0.084 0.566 0.124 0.871 0.166-0.072 0.345-0.149 0.542-0.236 0 0.048 0.011 0.081-0.002 0.098-0.172 0.24-0.349 0.474-0.668 0.53-0.044 0.007-0.087 0.025-0.129 0.043-1.261 0.55-2.149 1.463-2.691 2.726-0.308 0.714-0.576 1.44-0.83 2.177-0.311 0.899-0.386 1.814-0.412 2.746-0.009 0.305-0.041 0.609-0.039 0.913 0.005 0.541 0.021 1.082 0.050 1.622 0.025 0.508 0.075 1.017-0.115 1.506-0.048 0.126-0.105 0.25-0.174 0.366-0.081 0.135-0.161 0.133-0.267 0.022-0.143-0.152-0.296-0.293-0.437-0.446-0.081-0.086-0.16-0.177-0.22-0.276-0.274-0.462-0.519-0.938-0.641-1.467-0.009-0.044-0.020-0.090-0.041-0.128-0.391-0.691-0.785-1.382-1.179-2.072-0.042-0.075-0.090-0.146-0.134-0.216 0-0.034 0-0.068 0-0.102z"></path>
<path fill="#fff" d="M9.942 5.323c0.137-0.18 0.26-0.279 0.44-0.319 0.075-0.015 0.155-0.11 0.183-0.186 0.013-0.036-0.096-0.119-0.158-0.171-0.051-0.041-0.113-0.067-0.205-0.118 0.086-0.076 0.143-0.148 0.217-0.185 0.293-0.146 0.588-0.288 0.889-0.417 0.757-0.321 1.504-0.674 2.282-0.939 0.971-0.329 1.963-0.621 2.99-0.71 0.548-0.047 1.106-0.015 1.655 0.025 0.545 0.039 1.086 0.135 1.629 0.206 0.437 0.058 0.849-0.037 1.26-0.178 0.781-0.27 1.562-0.55 2.359-0.77 0.699-0.192 1.416-0.213 2.115 0.064 0.134 0.054 0.284 0.073 0.428 0.096 0.279 0.042 0.441 0.214 0.531 0.462 0.072 0.2-0.057 0.369-0.264 0.329-0.505-0.099-1.002-0.033-1.498 0.031-0.182 0.022-0.356 0.103-0.534 0.154-0.161 0.045-0.325 0.085-0.486 0.129-0.237 0.067-0.477 0.124-0.708 0.206-0.152 0.055-0.29 0.15-0.438 0.222-0.651 0.315-0.865 0.896-0.9 1.554-0.023 0.397 0.23 0.671 0.561 0.865 0.315 0.184 0.665 0.251 1.023 0.263 0.355 0.011 0.714 0.020 1.066-0.015 0.282-0.029 0.558-0.13 0.837-0.194 0.807-0.184 1.614-0.378 2.426-0.541 0.519-0.104 1.052-0.219 1.579-0.116 0.502 0.098 0.992 0.259 1.486 0.392 0.021 0.005 0.047 0.011 0.061 0.027 0.266 0.293 0.637 0.372 0.99 0.484 0.284 0.090 0.502 0.251 0.62 0.532 0.073 0.175 0.009 0.315-0.178 0.333-0.246 0.025-0.496 0.041-0.743 0.033-0.691-0.025-1.382-0.011-2.053 0.162-0.277 0.073-0.539 0.225-0.791 0.366-0.254 0.141-0.483 0.33-0.793 0.343-0.056 0.003-0.119 0.042-0.163 0.082-0.473 0.428-0.953 0.848-1.408 1.293-0.246 0.239-0.397 0.538-0.531 0.866-0.277 0.677-0.352 1.407-0.62 2.086-0.257 0.648-0.691 1.156-1.165 1.643-0.282 0.291-0.604 0.567-0.799 0.912-0.229 0.403-0.42 0.866-0.149 1.347 0.122 0.216 0.253 0.426 0.387 0.634 0.036 0.055 0.092 0.112 0.15 0.133 0.4 0.144 0.793 0.261 1.221 0.048 0.205-0.102 0.455-0.129 0.688-0.152 0.391-0.037 0.787-0.072 1.177-0.054 0.274 0.013 0.505 0.164 0.664 0.417 0.072 0.114 0.209 0.188 0.293 0.296 0.055 0.072 0.123 0.209 0.092 0.259-0.055 0.087-0.174 0.149-0.279 0.184-0.092 0.031-0.212-0.016-0.299 0.019-0.212 0.085-0.423 0.15-0.654 0.16-0.061 0.003-0.13 0.047-0.178 0.092-0.711 0.657-1.518 1.212-2.13 1.977-0.502 0.626-0.835 1.352-1.218 2.048-0.087 0.16-0.149 0.178-0.268 0.044-0.048-0.053-0.087-0.118-0.115-0.186-0.198-0.497-0.403-0.992-0.584-1.494-0.226-0.62-0.414-1.252-0.652-1.866-0.223-0.572-0.267-1.141-0.152-1.742 0.067-0.35 0.054-0.716 0.075-1.074 0.011-0.164 0.005-0.327 0.020-0.49 0.076-0.81-0.122-1.579-0.342-2.346-0.157-0.546-0.287-1.101-0.449-1.647-0.093-0.312-0.226-0.611-0.338-0.919-0.029-0.078-0.057-0.164-0.051-0.245 0.016-0.216-0.062-0.394-0.183-0.566-0.127-0.186-0.229-0.389-0.366-0.564-0.14-0.18-0.285-0.371-0.471-0.496-0.226-0.153-0.404-0.332-0.511-0.57-0.242-0.538-0.646-0.912-1.143-1.209-0.51-0.305-0.996-0.643-1.396-1.091-0.154-0.172-0.364-0.229-0.589-0.263-0.573-0.087-1.144-0.197-1.716-0.289-0.141-0.023-0.287-0.018-0.429-0.020-0.264-0.003-0.534 0.030-0.792-0.008-0.42-0.061-0.821 0.025-1.227 0.093-0.355 0.059-0.705 0.138-1.058 0.208-0.062 0.014-0.121 0.020-0.222 0.036zM21.527 13.257c-0.014-0.076-0.027-0.182-0.058-0.282-0.011-0.036-0.073-0.055-0.112-0.082-0.025 0.037-0.071 0.075-0.070 0.112 0.005 0.132 0.020 0.267 0.042 0.398 0.006 0.036 0.053 0.062 0.081 0.093 0.034-0.031 0.075-0.058 0.098-0.096 0.016-0.030 0.010-0.075 0.019-0.143zM20.959 3.439c-0.096-0.065-0.143-0.122-0.198-0.13-0.118-0.017-0.237 0.095-0.209 0.205 0.019 0.073 0.102 0.132 0.155 0.196 0.072-0.079 0.146-0.158 0.251-0.271z"></path>
</svg>
