<!-- Generated by IcoMoon.io -->
<svg version="1.1" xmlns="http://www.w3.org/2000/svg" width="34" height="32" viewBox="0 0 34 32">
<title>fighters-brute</title>
<path fill="#fff" d="M0 15.633c0.084-0.064 0.159-0.169 0.251-0.187 0.29-0.057 0.54-0.181 0.794-0.332 0.463-0.276 0.954-0.505 1.428-0.763 0.19-0.103 0.386-0.208 0.547-0.35 0.399-0.354 0.858-0.619 1.299-0.911 0.315-0.209 0.625-0.431 0.918-0.669 0.198-0.16 0.368-0.356 0.544-0.541 0.165-0.173 0.257-0.18 0.41-0.001 0.080 0.092 0.146 0.197 0.227 0.289 0.138 0.16 0.292 0.16 0.392-0.024 0.205-0.379 0.314-0.787 0.257-1.222-0.024-0.188-0.149-0.289-0.338-0.276-0.155 0.011-0.31 0.039-0.46 0.077-0.258 0.064-0.434-0.007-0.544-0.254-0.272-0.611-0.494-1.237-0.564-1.907-0.042-0.405-0.054-0.812-0.089-1.216-0.050-0.57-0.294-1.082-0.498-1.605-0.045-0.114-0.084-0.233-0.144-0.338-0.106-0.187-0.086-0.368-0.021-0.561 0.032-0.092 0.078-0.133 0.167-0.123 0.071 0.008 0.151 0.014 0.208 0.052 0.307 0.204 0.653 0.269 1.010 0.317 0.209 0.028 0.418 0.077 0.617 0.146 0.434 0.155 0.879 0.233 1.338 0.273 0.444 0.040 0.882 0.131 1.322 0.197 0.066 0.010 0.134 0.014 0.199 0.004 0.632-0.095 1.243 0.010 1.847 0.183 0.365 0.105 0.459 0.375 0.251 0.692-0.073 0.112-0.169 0.208-0.248 0.315-0.177 0.243-0.1 0.467 0.184 0.559 0.411 0.134 0.431 0.169 0.184 0.527-0.275 0.399-0.558 0.794-0.852 1.179-0.219 0.287-0.407 0.584-0.508 0.933-0.124 0.437-0.252 0.873-0.378 1.31-0.007 0.027-0.010 0.056-0.010 0.082 0.024 1.001-0.020 2.009 0.227 2.995 0.045 0.176 0.045 0.364 0.049 0.547 0.006 0.262 0.001 0.524-0.013 0.787-0.007 0.119-0.035 0.244-0.086 0.35-0.028 0.056-0.124 0.102-0.194 0.109-0.098 0.010-0.131 0.047-0.158 0.135-0.052 0.169-0.112 0.336-0.181 0.498-0.24 0.551-0.487 1.099-0.727 1.649-0.018 0.042-0.020 0.099-0.010 0.145 0.059 0.283 0.126 0.565 0.185 0.849 0.039 0.183 0.131 0.331 0.282 0.439 0.166 0.119 0.257 0.283 0.318 0.477 0.107 0.339 0.197 0.69 0.356 1.006 0.119 0.237 0.328 0.43 0.509 0.63 0.036 0.040 0.133 0.025 0.202 0.036 0.116 0.020 0.233 0.040 0.349 0.063 0.086 0.017 0.172 0.053 0.257 0.053 0.16 0.001 0.264 0.070 0.322 0.216 0.027 0.067 0.059 0.133 0.095 0.195 0.098 0.169 0.075 0.227-0.116 0.287-0.278 0.088-0.299 0.11-0.285 0.402 0.007 0.155 0.020 0.311 0.057 0.46s0.11 0.289 0.172 0.445c-0.071 0.024-0.142 0.031-0.193 0.068-0.046 0.033-0.088 0.099-0.091 0.152-0.001 0.032 0.073 0.088 0.119 0.098 0.184 0.040 0.297 0.134 0.324 0.29 0.024 0.142-0.054 0.308-0.227 0.37-0.498 0.179-0.999 0.345-1.504 0.499-0.319 0.099-0.644 0.177-0.971 0.25-0.177 0.040-0.361 0.053-0.543 0.075-0.133 0.017-0.266 0.025-0.398 0.049-0.328 0.057-0.653 0.144-0.982 0.177-0.526 0.053-1.054 0.081-1.582 0.103-0.275 0.011-0.41-0.172-0.363-0.445 0.004-0.022 0.007-0.045 0.015-0.066 0.186-0.506 0.371-1.013 0.558-1.518 0.347-0.937 0.643-1.886 0.749-2.887 0.024-0.223 0.11-0.441 0.158-0.663 0.031-0.141 0.078-0.29 0.057-0.425-0.038-0.243 0.077-0.361 0.35-0.403 0.099-0.015 0.201-0.013 0.298-0.029 0.195-0.035 0.311-0.156 0.361-0.347 0.113-0.423 0.112-0.824-0.181-1.187-0.093-0.116-0.158-0.257-0.241-0.381-0.093-0.138-0.167-0.146-0.255-0.014-0.148 0.222-0.29 0.449-0.414 0.685-0.066 0.123-0.133 0.158-0.248 0.089-0.398-0.233-0.822-0.41-1.204-0.681-0.658-0.466-1.352-0.886-2.048-1.293-0.731-0.427-1.516-0.723-2.364-0.829-0.227-0.028-0.406-0.144-0.533-0.335 0-0.010 0-0.021 0-0.032zM9.178 8.39c0.039-0.326-0.059-0.621-0.211-0.898-0.107-0.197-0.329-0.264-0.543-0.208-0.077 0.021-0.18 0.004-0.254-0.031-0.211-0.099-0.264-0.088-0.386 0.117-0.031 0.052-0.064 0.109-0.112 0.145-0.187 0.142-0.273 0.349-0.351 0.557-0.213 0.566-0.123 0.914 0.336 1.306 0.273 0.233 0.586 0.35 0.943 0.268 0.149-0.035 0.287-0.121 0.431-0.183 0.255-0.11 0.312-0.23 0.252-0.502-0.042-0.188-0.071-0.379-0.106-0.57zM7.814 14.54c-0.006 0-0.011-0.001-0.015-0.001 0-0.033 0-0.067 0-0.1-0.003-0.227-0.311-0.646-0.529-0.713-0.035-0.011-0.078-0.010-0.114-0.001-0.457 0.098-0.888 0.257-1.246 0.57-0.063 0.056-0.128 0.137-0.142 0.216-0.039 0.241-0.070 0.485-0.074 0.729-0.004 0.299 0.177 0.515 0.471 0.559 0.264 0.040 0.531 0.064 0.798 0.063 0.4-0.003 0.7-0.265 0.77-0.657 0.040-0.222 0.054-0.445 0.081-0.665zM8.4 23.941c0.332 0.001 0.558-0.093 0.594-0.318 0.054-0.343 0.075-0.695 0.066-1.042-0.007-0.232-0.131-0.275-0.363-0.209-0.107 0.031-0.225 0.033-0.336 0.049-0.138 0.020-0.294 0.004-0.411 0.066-0.312 0.162-0.442 0.498-0.351 0.82 0.12 0.43 0.378 0.633 0.802 0.635zM6.167 25.792c-0.103-0.067-0.167-0.141-0.218-0.133-0.053 0.008-0.128 0.095-0.13 0.148 0 0.045 0.089 0.123 0.145 0.127 0.050 0.004 0.106-0.071 0.202-0.142zM4.325 15.095c-0.046-0.112-0.082-0.198-0.119-0.285-0.039 0.040-0.102 0.075-0.113 0.123-0.028 0.121 0.047 0.166 0.232 0.162z"></path>
<path fill="#fff" d="M17.742 0c0.345 0.23 0.594 0.547 0.835 0.877 0.791 1.080 1.59 2.152 2.384 3.229 0.158 0.215 0.307 0.435 0.469 0.668-0.086 0.018-0.149 0.033-0.213 0.045-0.212 0.039-0.396 0.114-0.557 0.275-0.117 0.116-0.28 0.206-0.439 0.255-0.305 0.093-0.497 0.282-0.604 0.573-0.026 0.073-0.045 0.159-0.096 0.209-0.174 0.173-0.174 0.377-0.163 0.603 0.039 0.729 0.054 1.459 0.095 2.188 0.020 0.367 0.074 0.731 0.109 1.096 0.021 0.222 0.052 0.445 0.049 0.667-0.011 0.812 0.133 1.61 0.223 2.412 0.013 0.114 0.063 0.226 0.067 0.339 0.003 0.074-0.026 0.165-0.074 0.22-0.073 0.082-0.169 0.146-0.262 0.206-0.584 0.372-1.075 0.845-1.509 1.384-0.195 0.243-0.406 0.474-0.618 0.703-0.039 0.043-0.137 0.088-0.173 0.068-0.079-0.043-0.181-0.121-0.191-0.197-0.015-0.113-0.073-0.153-0.148-0.216-0.126-0.105-0.236-0.23-0.343-0.354-0.092-0.107-0.156-0.244-0.261-0.336-0.314-0.275-0.644-0.531-0.961-0.803-0.121-0.105-0.24-0.219-0.335-0.347-0.167-0.225-0.389-0.358-0.64-0.463-0.070-0.028-0.12-0.103-0.179-0.156 0.049-0.047 0.091-0.113 0.149-0.139 0.206-0.093 0.266-0.275 0.299-0.471 0.127-0.753 0.248-1.504 0.265-2.272 0.024-1.092 0.095-2.183 0.133-3.275 0.013-0.378-0.014-0.757-0.022-1.137-0.004-0.208-0.053-0.272-0.255-0.3-0.204-0.029-0.41-0.045-0.615-0.066-0.028-0.003-0.066-0.011-0.082 0.003-0.177 0.148-0.297 0.018-0.441-0.070-0.099-0.060-0.229-0.073-0.347-0.099-0.074-0.017-0.151-0.021-0.244-0.073 0.049-0.045 0.096-0.091 0.148-0.133 0.183-0.145 0.386-0.269 0.547-0.435 0.601-0.623 1.294-1.162 1.751-1.922 0.202-0.339 0.453-0.649 0.678-0.974 0.315-0.455 0.661-0.883 1.064-1.264 0.17-0.16 0.317-0.343 0.474-0.516 0.014-0.003 0.025-0.003 0.036-0.003zM18.045 12.302c-0.068-0.209-0.121-0.413-0.204-0.604-0.036-0.085-0.12-0.163-0.202-0.212-0.148-0.086-0.308-0.155-0.467-0.219-0.257-0.103-0.583 0.014-0.734 0.243-0.307 0.463-0.345 0.933-0.021 1.398 0.079 0.114 0.211 0.24 0.338 0.266 0.293 0.061 0.597 0.056 0.883-0.066 0.063-0.027 0.145-0.068 0.167-0.123 0.089-0.219 0.159-0.446 0.24-0.683zM17.543 5.455c0.222-0.011 0.402-0.112 0.523-0.289 0.174-0.251 0.328-0.516 0.49-0.777 0.052-0.082 0.049-0.158-0.036-0.218-0.213-0.149-0.424-0.301-0.64-0.446-0.106-0.071-0.232-0.117-0.325-0.199-0.109-0.096-0.225-0.142-0.349-0.077-0.127 0.067-0.052 0.185-0.032 0.283 0.052 0.25 0.015 0.314-0.226 0.398-0.192 0.067-0.262 0.159-0.24 0.363 0.028 0.259 0.113 0.501 0.296 0.696 0.144 0.156 0.319 0.257 0.54 0.266zM20.537 4.37c0.026-0.018 0.053-0.035 0.078-0.053-0.063-0.091-0.124-0.18-0.187-0.271-0.024 0.015-0.047 0.032-0.070 0.047 0.059 0.092 0.119 0.184 0.179 0.276z"></path>
<path fill="#fff" d="M19.374 26.277c0.215-0.338 0.321-0.69 0.271-1.077-0.013-0.096-0.077-0.187-0.117-0.279-0.093 0.060-0.218 0.102-0.272 0.187-0.067 0.106-0.091 0.247-0.105 0.377-0.013 0.123-0.050 0.212-0.16 0.272s-0.172-0.011-0.252-0.064c-0.199-0.133-0.406-0.254-0.611-0.379-0.183-0.112-0.367-0.103-0.557-0.010-0.311 0.151-0.378 0.113-0.403-0.229-0.010-0.138 0.004-0.279-0.013-0.417-0.007-0.063-0.061-0.121-0.093-0.181-0.054 0.040-0.112 0.075-0.16 0.12-0.086 0.078-0.172 0.159-0.25 0.245-0.033 0.038-0.059 0.091-0.066 0.141-0.008 0.060 0.010 0.121 0.010 0.183 0.001 0.278-0.102 0.424-0.367 0.511-0.116 0.038-0.237 0.061-0.356 0.093-0.241 0.067-0.484 0.13-0.723 0.205-0.318 0.102-0.52-0.004-0.605-0.329-0.027-0.102-0.043-0.209-0.085-0.304-0.022-0.053-0.088-0.088-0.133-0.13-0.036 0.050-0.093 0.095-0.105 0.149-0.052 0.261-0.047 0.515 0.056 0.77 0.068 0.167 0.093 0.356 0.113 0.537 0.018 0.176-0.112 0.312-0.273 0.347-0.272 0.057-0.541 0.124-0.81 0.188-0.066 0.015-0.128 0.042-0.194 0.050-0.227 0.028-0.353-0.074-0.333-0.299 0.047-0.552-0.099-1.085-0.144-1.626-0.032-0.391 0.004-0.788 0.013-1.181 0.007-0.345 0.018-0.689 0.022-1.034 0.001-0.1-0.013-0.201-0.015-0.301-0.029-0.947-1.042-1.379-1.696-1.251-0.052 0.010-0.114 0.032-0.146 0.070-0.091 0.103-0.185 0.141-0.308 0.066-0.127-0.078-0.174-0.191-0.16-0.342 0.010-0.096 0.007-0.197-0.014-0.29-0.011-0.052-0.075-0.089-0.113-0.135-0.081-0.1-0.188-0.19-0.236-0.304-0.107-0.257-0.173-0.53-0.28-0.787-0.070-0.166-0.17-0.322-0.276-0.47-0.071-0.1-0.092-0.186-0.027-0.29 0.006-0.010 0.010-0.020 0.017-0.029 0.711-0.982 0.914-2.155 1.194-3.289 0.144-0.579 0.109-1.188-0.025-1.791-0.127-0.568-0.264-1.14-0.209-1.734 0.133-1.438 0.703-2.692 1.591-3.812 0.103-0.13 0.23-0.244 0.356-0.353 0.432-0.377 0.87-0.749 1.306-1.123 0.059-0.050 0.114-0.113 0.184-0.144s0.17-0.061 0.229-0.032c0.057 0.028 0.109 0.128 0.112 0.198 0.013 0.239 0.014 0.48 0.001 0.72-0.056 1.074-0.12 2.149-0.174 3.223-0.025 0.512-0.038 1.025-0.049 1.538-0.003 0.141-0.039 0.252-0.13 0.364-0.199 0.244-0.266 0.527-0.16 0.831 0.024 0.067 0.099 0.12 0.16 0.167 0.082 0.064 0.185 0.103 0.259 0.173 0.723 0.681 1.441 1.367 2.159 2.052 0.13 0.123 0.254 0.251 0.382 0.375 0.064 0.063 0.121 0.138 0.197 0.18 0.202 0.113 0.393 0.229 0.388 0.457 0.145 0.014 0.264 0.033 0.381 0.032 0.046 0 0.102-0.036 0.134-0.073 0.156-0.173 0.305-0.352 0.459-0.529 0.186 0.166 0.192 0.165 0.349-0.024 0.363-0.438 0.728-0.875 1.085-1.317 0.059-0.073 0.077-0.177 0.117-0.265s0.066-0.195 0.131-0.258c0.258-0.247 0.527-0.481 0.796-0.716 0.199-0.173 0.212-0.264 0.064-0.484-0.052-0.077-0.088-0.167-0.116-0.255-0.254-0.81-0.357-1.642-0.365-2.488-0.006-0.474-0.043-0.947-0.057-1.421-0.007-0.218-0.006-0.435 0.013-0.651 0.046-0.577-0.017-1.147-0.095-1.717-0.038-0.273-0.038-0.273 0.206-0.392 0.045-0.022 0.091-0.043 0.145-0.070 0.078 0.149 0.163 0.16 0.296 0.046 0.159-0.138 0.28-0.089 0.432 0.057 0.183 0.176 0.385 0.339 0.601 0.469 0.335 0.199 0.591 0.466 0.815 0.778 0.474 0.663 0.824 1.392 1.099 2.152 0.183 0.505 0.209 1.046 0.137 1.585-0.011 0.081 0.004 0.166 0.004 0.25-0.001 0.138-0.001 0.278-0.008 0.416-0.008 0.142-0.033 0.285-0.035 0.427-0.003 0.703-0.004 1.405 0.003 2.108 0.001 0.1 0.052 0.199 0.071 0.3 0.021 0.107 0.063 0.22 0.045 0.322-0.052 0.287-0.035 0.569 0.050 0.844 0.169 0.543 0.324 1.088 0.622 1.582 0.159 0.262 0.211 0.562 0.209 0.868-0.001 0.301 0.007 0.597 0.128 0.886 0.039 0.093-0.015 0.252-0.073 0.357-0.146 0.268-0.335 0.515-0.477 0.785-0.146 0.28-0.278 0.572-0.378 0.87-0.053 0.16-0.042 0.349-0.032 0.523 0.010 0.165 0.127 0.206 0.234 0.078 0.192-0.229 0.391-0.463 0.529-0.724 0.159-0.299 0.296-0.596 0.601-0.78 0.056-0.033 0.085-0.138 0.098-0.213 0.114-0.709 0.024-1.412-0.077-2.113-0.018-0.127-0.025-0.257-0.056-0.381-0.033-0.133-0.084-0.262-0.139-0.388-0.096-0.218-0.213-0.428-0.301-0.65-0.13-0.331-0.245-0.668-0.36-1.006-0.031-0.092-0.049-0.195-0.040-0.292 0.046-0.538 0.123-1.075 0.152-1.614 0.079-1.487 0.166-2.975-0.208-4.441-0.133-0.52-0.399-0.976-0.689-1.42-0.165-0.251-0.326-0.508-0.515-0.741-0.156-0.192-0.349-0.356-0.53-0.529-0.056-0.053-0.146-0.082-0.18-0.145-0.042-0.080-0.070-0.188-0.049-0.272 0.010-0.039 0.152-0.075 0.225-0.063 0.365 0.063 0.626-0.141 0.625-0.52 0-0.086-0.053-0.195-0.117-0.254-0.139-0.127-0.305-0.223-0.456-0.339-0.133-0.102-0.124-0.153 0.024-0.236 0.078-0.043 0.151-0.095 0.229-0.138 0.043-0.024 0.091-0.050 0.138-0.054 0.538-0.056 1.077-0.102 1.614-0.163 0.22-0.025 0.442-0.063 0.654-0.127 1.008-0.303 2.013-0.617 3.020-0.922 0.319-0.096 0.455 0.039 0.357 0.36-0.056 0.183-0.148 0.354-0.223 0.531-0.028 0.067-0.060 0.131-0.085 0.199-0.282 0.738-0.564 1.476-0.844 2.214-0.282 0.739-0.568 1.479-0.623 2.279-0.008 0.11 0.013 0.222 0.018 0.332 0.006 0.119-0.043 0.166-0.163 0.127-0.174-0.056-0.248-0.184-0.293-0.353-0.035-0.13-0.084-0.268-0.165-0.372-0.107-0.138-0.31-0.162-0.441-0.084-0.156 0.092-0.173 0.237-0.127 0.395 0.078 0.266 0.184 0.527 0.238 0.798 0.071 0.354 0.11 0.716 0.148 1.075 0.011 0.1-0.054 0.208-0.049 0.31 0.015 0.254 0.045 0.508 0.084 0.76 0.029 0.193 0.085 0.381 0.127 0.57 0.031 0.138 0.085 0.163 0.192 0.070 0.13-0.113 0.252-0.237 0.371-0.361 0.031-0.033 0.042-0.088 0.054-0.135 0.020-0.075 0.020-0.159 0.053-0.227 0.092-0.188 0.11-0.382 0.092-0.586-0.007-0.074 0.013-0.151 0.026-0.287 0.211 0.174 0.388 0.312 0.555 0.463 0.252 0.227 0.499 0.462 0.748 0.693 0.004 0.004 0.008 0.008 0.014 0.010 0.304 0.054 0.48 0.361 0.792 0.405 0.054 0.007 0.123 0.047 0.151 0.092 0.106 0.169 0.272 0.239 0.445 0.305 0.477 0.185 0.96 0.36 1.424 0.57 0.404 0.183 0.789 0.413 1.184 0.618 0.307 0.158 0.619 0.307 0.928 0.463 0.105 0.053 0.205 0.113 0.304 0.176 0.137 0.086 0.233 0.199 0.18 0.374-0.054 0.177-0.244 0.29-0.418 0.304-0.16 0.013-0.336 0.032-0.476 0.106-0.813 0.43-1.619 0.872-2.421 1.319-0.233 0.13-0.446 0.293-0.669 0.439-0.098 0.064-0.197 0.126-0.3 0.181-0.389 0.215-0.778 0.43-1.172 0.636-0.11 0.059-0.237 0.084-0.354 0.131-0.121 0.050-0.238 0.112-0.361 0.16-0.086 0.035-0.213 0.105-0.261 0.071-0.088-0.061-0.151-0.18-0.188-0.287-0.035-0.102-0.010-0.223-0.038-0.329-0.064-0.255-0.301-0.439-0.562-0.446-0.053-0.001-0.138 0.021-0.158 0.059-0.135 0.261-0.255 0.519-0.176 0.837 0.063 0.251 0.067 0.511 0.006 0.777-0.046 0.205-0.014 0.431-0.001 0.647 0.021 0.35 0.057 0.699 0.077 1.049 0.004 0.066-0.035 0.138-0.066 0.201-0.123 0.241-0.050 0.402 0.213 0.452 0.071 0.014 0.144 0.021 0.215 0.033 0.166 0.029 0.293-0.010 0.371-0.176 0.035-0.073 0.1-0.133 0.158-0.194 0.096-0.103 0.211-0.142 0.347-0.088 0.141 0.056 0.229 0.149 0.243 0.31 0.042 0.499 0.086 1 0.133 1.499 0.010 0.105 0.014 0.215 0.049 0.312 0.145 0.402 0.152 0.82 0.159 1.239 0.013 0.649 0.042 1.293 0.292 1.904 0.013 0.031 0.031 0.068 0.024 0.096-0.021 0.070-0.038 0.165-0.088 0.192-0.047 0.026-0.167 0.006-0.201-0.038-0.13-0.163-0.262-0.188-0.466-0.137-0.144 0.038-0.315-0.033-0.474-0.053-0.232-0.029-0.463-0.057-0.695-0.084-0.028-0.003-0.060 0.006-0.082-0.006-0.406-0.208-0.829-0.091-1.247-0.068-0.082 0.004-0.165-0.007-0.247-0.018-0.195-0.025-0.391-0.060-0.586-0.079-0.165-0.017-0.332-0.024-0.498-0.021-0.163 0.004-0.326 0.031-0.491 0.040-0.085 0.004-0.186 0.018-0.255-0.018-0.134-0.067-0.248-0.059-0.382-0.007-0.112 0.043-0.236 0.067-0.356 0.071-0.059 0.003-0.142-0.046-0.17-0.096-0.022-0.040 0.006-0.135 0.043-0.176 0.135-0.146 0.192-0.321 0.223-0.512 0.026-0.165 0.061-0.329 0.105-0.49 0.095-0.352-0.052-0.649-0.393-0.778-0.308-0.119-0.314-0.131-0.219-0.449 0.081-0.271 0.153-0.543 0.238-0.812 0.061-0.195 0.205-0.264 0.406-0.314 0.271-0.067 0.524-0.208 0.778-0.329 0.028-0.013 0.031-0.12 0.014-0.173-0.050-0.158-0.11-0.312-0.179-0.462-0.024-0.053-0.084-0.091-0.131-0.13-0.014-0.011-0.043-0.007-0.066-0.008-0.915-0.042-0.889 0.026-1.194 0.688-0.269 0.584-0.491 1.181-0.524 1.836-0.024 0.453-0.071 0.907-0.107 1.359-0.003 0.033 0.003 0.073-0.013 0.099-0.205 0.349-0.057 0.704-0.017 1.055 0.031 0.269 0.042 0.271-0.199 0.407-0.059 0.032-0.114 0.070-0.17 0.106-0.12 0.081-0.245 0.086-0.357-0.003-0.356-0.285-0.707-0.576-1.060-0.865-0.022-0.015-0.040-0.045-0.071-0.081zM23.267 18.221c0.035-0.25-0.146-0.42-0.326-0.604-0.141-0.145-0.292-0.073-0.437-0.067-0.183 0.007-0.37 0.022-0.545 0.070-0.218 0.057-0.453 0.112-0.632 0.236-0.238 0.167-0.491 0.276-0.763 0.358-0.163 0.049-0.342 0.092-0.476 0.19-0.198 0.146-0.396 0.18-0.628 0.135-0.107-0.021-0.223-0.028-0.329-0.008-0.077 0.014-0.144 0.079-0.216 0.121 0.054 0.059 0.1 0.128 0.166 0.172 0.183 0.124 0.389 0.218 0.558 0.357 0.512 0.425 1.092 0.473 1.707 0.342 0.375-0.079 0.745-0.184 1.119-0.271 0.53-0.12 0.796-0.449 0.802-1.031zM15.671 18.783c-0.008-0.029-0.015-0.057-0.024-0.086-0.107-0.036-0.212-0.075-0.321-0.106-0.526-0.145-1.054-0.28-1.501-0.623-0.066-0.050-0.172-0.052-0.259-0.068-0.049-0.010-0.103 0.004-0.148-0.011-0.307-0.113-0.618-0.218-0.916-0.35-0.357-0.159-0.663-0.025-0.748 0.354-0.032 0.141-0.066 0.283-0.081 0.427-0.007 0.066 0.007 0.148 0.042 0.201 0.092 0.138 0.198 0.269 0.305 0.398 0.307 0.365 0.717 0.494 1.176 0.485 0.35-0.007 0.7-0.035 1.049-0.050 0.039-0.001 0.084-0.004 0.114 0.014 0.191 0.112 0.354 0.031 0.515-0.067 0.205-0.124 0.407-0.25 0.61-0.378 0.064-0.043 0.124-0.092 0.187-0.138zM28.53 15.485c0.010-0.46-0.353-0.971-0.735-1.095-0.038-0.013-0.1-0.015-0.123 0.007-0.117 0.114-0.251 0.123-0.402 0.099-0.056-0.008-0.124 0.011-0.176 0.038-0.22 0.113-0.393 0.275-0.474 0.515-0.1 0.301-0.128 0.61-0.068 0.922 0.029 0.152 0.099 0.279 0.244 0.358 0.234 0.128 0.463 0.266 0.693 0.402 0.114 0.067 0.192 0.039 0.262-0.075 0.047-0.077 0.113-0.149 0.186-0.202 0.357-0.254 0.554-0.598 0.593-0.968zM16.067 22.171c-0.001 0.033-0.004 0.067-0.006 0.1-0.010 0.199 0.013 0.218 0.205 0.16 0.16-0.047 0.321-0.095 0.48-0.146 0.336-0.11 0.668-0.156 1.014-0.031 0.184 0.067 0.31-0.064 0.275-0.269-0.011-0.071-0.046-0.138-0.063-0.208-0.036-0.151-0.066-0.301-0.1-0.452-0.077-0.342-0.145-0.685-0.238-1.021-0.024-0.086-0.12-0.174-0.204-0.216-0.106-0.050-0.236-0.050-0.354-0.077-0.163-0.035-0.29 0.022-0.368 0.163-0.34 0.623-0.672 1.251-0.64 1.996zM24.734 24.068c0.003 0.18-0.031 0.37 0.126 0.504 0.24 0.205 0.703 0.23 0.997 0.066 0.307-0.173 0.498-0.534 0.453-0.866-0.020-0.149-0.045-0.297-0.074-0.445-0.039-0.201-0.124-0.251-0.332-0.278-0.124-0.015-0.262-0.063-0.358-0.141-0.184-0.149-0.451-0.206-0.681-0.103-0.188 0.085-0.378 0.384-0.36 0.583 0.004 0.052 0.024 0.116 0.060 0.149 0.158 0.149 0.192 0.332 0.169 0.531zM25.825 5.419c-0.162 0.015-0.273 0.029-0.384 0.033-0.212 0.010-0.377 0.106-0.529 0.252-0.404 0.391-0.297 1.177 0.201 1.456 0.081 0.045 0.192 0.066 0.283 0.053 0.453-0.060 0.769-0.396 0.845-0.845 0.057-0.338 0.003-0.632-0.264-0.863-0.053-0.046-0.127-0.071-0.153-0.086zM32.735 15.584c0.054-0.081 0.124-0.141 0.135-0.211 0.011-0.067-0.028-0.151-0.067-0.212-0.017-0.025-0.135-0.021-0.138-0.010-0.026 0.093-0.045 0.191-0.049 0.287-0.001 0.031 0.049 0.063 0.119 0.145zM13.788 26.655c0.106-0.092 0.156-0.346 0.092-0.442-0.050-0.074-0.105-0.074-0.152 0.006-0.066 0.113-0.040 0.317 0.060 0.437zM23.619 16.393c0.079-0.213 0.047-0.296-0.133-0.363 0.045 0.123 0.084 0.232 0.133 0.363z"></path>
<path fill="#fff" d="M13.637 28.408c0.315-0.138 0.623-0.293 0.947-0.409 0.206-0.074 0.347-0.186 0.378-0.398 0.035-0.241 0.049-0.487 0.066-0.732 0.014-0.206 0.050-0.252 0.261-0.258 0.181-0.004 0.308-0.103 0.439-0.213 0.086-0.073 0.188-0.138 0.294-0.172 0.265-0.085 0.533-0.174 0.806-0.215 0.329-0.049 0.674-0.103 0.996-0.054 0.286 0.043 0.558 0.212 0.822 0.352 0.184 0.098 0.265 0.293 0.269 0.495 0.008 0.439 0.211 0.787 0.471 1.116 0.163 0.205 0.342 0.375 0.61 0.442 0.075 0.020 0.152 0.11 0.19 0.187 0.028 0.057 0.020 0.17-0.021 0.212-0.038 0.039-0.151 0.045-0.209 0.018-0.211-0.092-0.414-0.077-0.59 0.049-0.23 0.163-0.46 0.336-0.65 0.543-0.283 0.307-0.526 0.65-0.794 0.971-0.289 0.347-0.404 0.767-0.499 1.191-0.067 0.296-0.305 0.374-0.523 0.457-0.137 0.053-0.257-0.081-0.326-0.209-0.119-0.22-0.248-0.438-0.342-0.669-0.363-0.897-1.024-1.527-1.803-2.053-0.166-0.112-0.35-0.198-0.515-0.311-0.109-0.075-0.199-0.179-0.297-0.269 0.006-0.025 0.014-0.047 0.021-0.070zM17.91 27.905c0.004-0.372-0.247-0.753-0.591-0.898-0.335-0.141-0.716 0.024-0.822 0.371-0.059 0.19-0.095 0.391-0.113 0.589-0.028 0.297 0.406 0.77 0.709 0.789 0.039 0.003 0.078 0.001 0.117-0.006 0.336-0.064 0.696-0.499 0.7-0.845zM17.096 30.979c-0.141 0.078-0.265 0.112-0.243 0.271 0.004 0.029 0.028 0.054 0.043 0.081 0.028-0.020 0.068-0.035 0.081-0.061 0.040-0.081 0.070-0.167 0.119-0.29z"></path>
</svg>
