<!-- Generated by IcoMoon.io -->
<svg version="1.1" xmlns="http://www.w3.org/2000/svg" width="512" height="512" viewBox="0 0 512 512">
<title>fighters-frenzied</title>
<path fill="#fff" d="M336.224 55.408c-2.48 3.776-5.296 7.536-7.696 11.632-5.296 8.896-6.016 18.368-3.2 28.144 2.16 7.696 4.016 15.472 6.816 22.928 3.856 10.016 3.28 20.048 1.36 30.96 5.776-0.24 11.152-0.48 16.512-0.8 0.56 0 1.12-0.64 1.68-1.040 4.736-3.856 10.016-7.136 13.952-11.632 2.8-3.2 4.976-7.776 5.456-12.032 1.2-10.832 7.536-18.448 14.832-26.704-1.040 4.816-2.32 8.656-2.48 12.512-0.32 6.896-0.4 13.792 0.080 20.688 0.56 8.576 0.16 17.088-2.64 25.264-1.76 5.136-4.496 9.456-8.656 13.152-6.336 5.776-11.872 12.192-14.032 20.928-0.48 1.84-1.84 3.456-3.040 5.056-5.536 7.136-10.992 14.432-16.832 21.248-2.64 3.12-6.016 6.016-11.792 5.856 4.016-12.672 7.856-24.864 11.712-37.040-0.24-0.32-0.48-0.64-0.64-0.88-8.896 6.176-17.808 12.432-26.864 18.688-0.080-0.56-0.16-1.44-0.32-2.32-1.52-9.536-3.040-19.008-4.496-28.544-0.24-1.28-0.64-2.64-0.64-3.936-0.080-11.552 0-23.088 0-34.16-17.168 7.296-27.584 22.128-37.36 36.56-8.816-8.576-17.888-16.592-25.904-25.584-4.576-5.136-7.536-11.792-10.832-17.968-0.88-1.68-0.48-4.096-0.32-6.176 0.48-7.296 1.12-14.672 1.12-22.048-16.912 20.208-17.248 44.256-16.752 69.12-10.336-7.376-16.432-17.568-22.448-28.064 2.080 23.008 3.696 45.872-6.176 68-13.152-10.176-25.184-21.248-35.92-34.32-0.56 1.12-0.96 1.84-1.28 2.64-5.056 15.952-3.856 31.28 5.216 45.632 2.16 3.36 1.6 6.016-0.88 8.496-2.080 2.080-2.32 6.416-6.736 5.776-1.040-0.16-2.16-0.16-3.040-0.72-5.936-3.856-11.872-7.696-14.752-14.512-3.856-8.896-7.696-17.888-11.152-26.944-3.040-8.256-3.776-16.672-1.84-25.504 2.16-9.616 3.28-19.568-0.32-29.184-1.44-3.856-3.776-7.616-6.416-10.832-4.256-5.136-9.056-9.696-14.192-15.072 8.016-0.72 15.152 0.48 22.208 2.24 10.992 2.72 19.088 9.616 26.864 17.328 5.456 5.376 11.312 10.432 17.808 16.272 2-7.136 3.776-13.232 5.296-19.408 3.616-14.672 6.896-29.504 5.136-44.592-1.040-8.816-4.816-17.328-7.456-25.984-0.72-2.24-1.6-4.416-2.8-7.616 10.432 5.136 19.968 10.016 26.304 19.248 1.28 1.76 1.68 4.176 2.48 6.256 2 5.216 3.776 10.512 6.016 15.632 0.88 2 2.96 3.536 5.136 6.016 3.456-6.096 6.416-11.392 9.456-16.592 1.36-2.4 2.72-4.816 4.336-7.056 7.856-11.392 9.856-24.064 9.296-37.52-0.080-2.16 0.72-4.976 2.080-6.576 3.856-4.576 7.936-9.056 12.512-12.832 7.616-6.176 15.712-11.872 23.968-17.072-2.24 4.976-4.736 9.936-6.736 14.992-3.936 9.776-4.176 19.408 1.6 28.784 2.64 4.336 4.816 8.896 7.536 13.232 6.416 10.192 8.256 21.168 6.176 32.96-0.72 4.336-0.64 8.736-0.64 13.152 0.080 5.056 5.216 7.616 9.696 5.376 6.016-3.040 10.016-7.456 13.392-13.472 9.616-17.808 22.368-32.4 41.296-40.016z"></path>
<path fill="#fff" d="M351.632 255.712c1.28 2.56 2 4.336 2.96 5.936 5.056 9.136 11.232 17.408 19.888 23.408 2.72 1.92 3.040 3.36 0.88 5.616-2.24 2.24-4.576 4.496-6.576 6.416-10.512-1.84-15.392-10.992-23.168-17.728-8.496 8.656-16.752 17.072-25.024 25.504-46.752 47.952-93.584 95.984-140.336 143.936-11.312 11.552-22.448 23.248-33.76 34.72-7.616 7.696-16.832 13.232-26.464 17.808-7.936 3.696-16.192 6.656-24.384 9.936-4.016 1.6-5.136 0.72-4.576-3.44 0.8-6.096 1.6-12.112 2.48-18.208 1.28-8.656 5.936-15.712 11.072-22.288 5.616-7.216 12.112-13.872 18.368-20.608 55.888-59.584 111.776-119.152 167.76-178.656 5.376-5.696 11.072-11.072 16.352-16.832 1.76-1.92 2.56-4.096 0-6.896-4.816-5.136-8.896-10.912-13.312-16.352-2.16-2.56-1.76-4.656 0.72-6.736 1.52-1.28 2.8-2.88 3.696-3.776 4.576 3.36 8.976 6.576 13.392 9.776 5.056 3.696 10.016 7.616 15.232 10.992 1.2 0.8 4.176 0.48 5.216-0.48 5.696-5.136 11.072-10.672 16.512-16.032 5.456-5.456 10.992-10.752 16.192-16.352 4.256-4.496 8.496-9.216 9.936-15.472 0.48-2-0.24-4.256-0.56-7.536 4.416-6.816 12.432-8.816 21.248-9.136 1.040-0.080 2.16 0.16 3.12 0.56 11.072 4.656 16.512 22.528 10.016 32.56-1.2 1.84-2.16 2.56-4.736 1.68-4.816-1.6-9.856-0.4-13.552 2.72-6.016 5.216-11.792 10.832-16.832 16.912-7.776 9.216-14.912 19.088-21.808 28.064z"></path>
<path fill="#fff" d="M205.28 352.512c-19.728-18.528-39.136-36.64-58.544-54.768-0.64-4.736-4.656-6.256-7.936-8.576-2.56-1.84-4.656-1.76-7.136 0.080-6.896 4.976-13.952 9.696-21.088 14.592-2.96-2.8-5.536-5.056-7.936-7.536-1.68-1.68-1.52-3.12 0.56-4.896 5.616-5.056 10.912-10.432 16.352-15.712 0.88-0.8 1.52-1.84 2.4-2.64 5.136-4.816 5.536-9.296 0.88-14.672-10.096-11.712-20.208-23.408-30.64-34.8-3.616-4.016-8.016-7.616-13.792-8.176-3.28-0.32-6.656-0.080-11.152-0.080-6.176-5.696-6.656-20.368 0.32-28.144 9.136-10.272 19.008-9.536 32.96 2.4-3.44 2.48-2.4 5.856-0.72 8.496 2.96 4.576 6.336 9.056 10.096 12.992 5.136 5.296 10.912 10.016 16.352 15.072 5.136 4.816 10.096 9.856 15.392 14.432 4.416 3.856 5.456 3.616 10.176-0.16 6.496-5.056 12.992-10.096 19.408-15.312 1.76-1.44 3.2-3.456 4.896-5.296-0.080 0 0.24-0.080 0.4 0.080 7.776 6.896 7.856 7.936 1.76 16.432-2.56 3.616-5.136 7.136-7.696 10.752-2.96 4.096-2.96 5.216 0.8 8.816 8.336 8.176 16.832 16.112 25.184 24.304 12.272 11.872 24.464 23.808 36.72 35.76 0.72 0.72 1.44 1.52 2.4 2.56-10.272 11.232-20.208 22.448-30.464 34z"></path>
<path fill="#fff" d="M431.408 296.608c-16.912 5.776-32.88 8.816-49.792 10.336 3.536-23.968 16.752-42.496 31.040-60.864-10.752 5.696-21.488 10.992-34.64 11.232 4.336-4.896 8.256-10.176 12.992-14.512 8.176-7.456 17.072-14.032 25.264-21.408 5.216-4.656 9.216-10.672 14.592-15.152 3.776-3.12 8.656-4.976 13.312-6.896s9.456-3.696 14.352-4.896c4.336-1.040 8.896-1.12 13.392-1.6 2.080-0.24 4.176-0.32 6.976-0.56-1.44 1.12-2.48 2.080-3.696 2.8-16.832 10.336-24.864 26.944-31.6 44.432-3.28 8.576-5.776 17.488-8.576 26.224-0.32 1.12-0.48 2.24-0.96 4.256 8.016-1.44 15.552-2.16 22.768-4.176 18.128-5.056 34.8-2.4 50.432 7.936 0.4 0.32 0.8 0.64 2 1.52-4.736 1.2-8.816 2.72-12.992 3.28-16.672 2.16-26.864 12.672-31.84 27.424-6.176 18.528-19.888 29.344-35.44 38.416-7.216 4.176-15.872 5.936-23.968 8.416-1.6 0.48-3.776-0.56-5.696-1.52 6.496-2.080 8.656-7.936 10.752-12.752 4.096-9.376 10.432-17.248 15.072-26.144 2.32-4.736 3.856-9.776 6.256-15.792z"></path>
<path fill="#fff" d="M246.976 391.392c10.176-10.992 20.128-21.728 30.224-32.64 11.712 11.392 22.848 22.448 34.16 33.36 20.848 20.288 41.856 40.416 62.544 60.784 4.576 4.496 8.256 9.696 12.352 14.592 7.136 8.576 7.776 19.328 9.616 29.584 1.68 9.216 1.52 9.216-7.296 6.016-8.576-3.12-17.248-6.176-25.824-9.456-2.64-1.040-5.056-2.8-7.536-4.336-0.88-0.56-1.6-1.6-2.56-1.84-7.936-2.32-12.832-8.816-18.528-14.112-5.936-5.376-11.632-10.992-17.488-16.432-22.848-21.488-45.712-42.896-68.64-64.304-0.32-0.32-0.64-0.72-1.040-1.2z"></path>
<path fill="#fff" d="M118.352 265.184c-1.68 0.72-3.44 1.6-5.296 2.16-6.496 2-13.072 3.856-19.648 5.696-0.96 0.32-2.080 0.4-3.040 0.48-5.456 0.16-7.376 3.936-4.736 8.736 2 3.696 3.44 7.616 5.136 11.392 0.24 0.64 0.48 1.28 0.8 1.84 4.976 7.296 10.256 14.352 14.752 21.888 2.72 4.736 4.176 10.192 6.176 15.312 1.2 3.040 2.32 6.176 3.616 9.216 0.56 1.28 1.28 2.48 1.76 3.44-11.072-1.040-21.888-2.080-33.040-3.2 5.456 13.792 13.552 23.488 26.864 28.784-3.856 1.76-7.936 0.96-11.632-0.48-9.056-3.36-17.968-7.296-26.944-10.992-1.2-0.48-2.4-1.2-3.28-2.16-5.536-6.176-12.832-9.216-20.528-10.752-10.992-2.16-18.368-8.736-24.224-17.568-3.040-4.656-5.536-9.696-7.616-14.912-3.376-8.256-9.056-14.672-14.832-21.168-0.64-0.72-1.28-1.36-2.64-2.8 10.192 3.856 19.648 6.576 25.584 15.472 4.736 7.136 11.792 9.776 20.128 9.856 1.28 0 2.8 0.080 3.936 0.56 5.696 2.72 10.512 0.48 15.232-2.32 2-1.2 4.256-2.16 6.576-3.28-0.64-1.12-1.040-2.16-1.68-2.88-9.536-9.776-11.472-22.528-13.952-35.040-0.96-4.976-2.24-9.856-3.616-14.752-3.536-13.072-12.512-21.008-24.704-25.904-1.28-0.48-2.56-1.040-4.816-1.92 14.192-1.36 27.024-0.080 39.056 5.616 7.536 3.536 14.992 7.536 22.208 11.712 7.696 4.336 14.992 9.296 22.768 13.632 3.44 1.92 7.456 2.88 11.632 4.336z"></path>
</svg>
