<!-- Generated by IcoMoon.io -->
<svg version="1.1" xmlns="http://www.w3.org/2000/svg" width="32" height="32" viewBox="0 0 32 32">
<title>fighters-thrall</title>
<path fill="#fff" d="M16.103 0c0.042 0.081 0.112 0.159 0.122 0.243 0.136 1.185 0.267 2.371 0.394 3.557 0.013 0.122 0.075 0.161 0.187 0.176 1.054 0.145 2.032 0.507 2.955 1.027 0.575 0.324 1.098 0.718 1.582 1.167 0.17 0.159 0.217 0.178 0.408 0.051 0.516-0.34 1.033-0.68 1.533-1.045 0.825-0.601 1.739-1.056 2.6-1.595 0.044-0.028 0.105-0.031 0.203-0.059-0.063 0.086-0.095 0.134-0.132 0.179-0.497 0.608-1.001 1.212-1.492 1.825-0.394 0.491-0.771 0.995-1.157 1.491-0.161 0.208-0.323 0.417-0.489 0.621-0.090 0.112-0.089 0.214-0.027 0.34 0.261 0.524 0.519 1.050 0.762 1.581 0.223 0.483 0.3 1.006 0.379 1.528 0.009 0.063 0.022 0.128 0.023 0.192 0.004 0.128 0.069 0.199 0.191 0.222 0.323 0.059 0.645 0.117 0.969 0.176 0.751 0.14 1.501 0.282 2.252 0.418 0.191 0.034 0.387 0.031 0.575 0.070 0.195 0.040 0.386 0.113 0.577 0.171 0 0.015 0 0.031 0 0.046-0.238 0.055-0.473 0.12-0.712 0.165-0.492 0.093-0.989 0.159-1.478 0.264-0.661 0.143-1.318 0.315-1.977 0.469-0.233 0.055-0.353 0.171-0.403 0.428-0.157 0.811-0.341 1.619-0.724 2.365-0.265 0.515-0.577 0.995-0.968 1.423-0.204 0.223-0.205 0.245-0.052 0.503 0.622 1.061 1.247 2.123 1.869 3.186 0.030 0.051 0.058 0.102 0.102 0.184-0.073 0-0.132 0.017-0.175-0.003-0.155-0.073-0.317-0.14-0.452-0.241-0.849-0.636-1.69-1.282-2.534-1.923-0.295-0.223-0.317-0.219-0.645-0.035-0.507 0.284-0.998 0.604-1.53 0.828-0.808 0.343-1.67 0.494-2.548 0.527-0.335 0.013-0.667 0.031-1.001 0.040-0.144 0.004-0.195 0.063-0.196 0.207s0.048 0.207 0.194 0.211c0.279 0.008 0.52 0.12 0.739 0.286 0.351 0.265 0.663 0.563 0.885 0.949 0.171 0.3 0.294 0.604 0.262 0.962-0.022 0.249 0.027 0.28 0.273 0.281 0.286 0.001 0.571 0.012 0.857-0.003 0.089-0.004 0.202-0.056 0.255-0.125 0.351-0.451 0.802-0.686 1.372-0.757 1.042-0.132 2.006 0.109 2.938 0.542 0.313 0.145 0.524 0.387 0.57 0.75 0.007 0.054 0.070 0.122 0.122 0.144 0.391 0.153 0.782 0.305 1.181 0.436 0.112 0.036 0.262 0.031 0.372-0.013 0.388-0.156 0.769-0.144 1.122 0.055 0.505 0.286 1.013 0.577 1.476 0.922 0.442 0.329 0.708 0.791 0.681 1.376-0.005 0.124-0.008 0.247 0.001 0.371 0.055 0.671-0.326 1.123-0.781 1.532-0.203 0.183-0.464 0.219-0.73 0.203-0.189-0.012-0.375-0.048-0.563-0.050-0.085 0-0.196 0.034-0.249 0.094-0.265 0.304-0.509 0.625-0.771 0.933-0.116 0.137-0.157 0.282-0.157 0.457 0 0.208-0.007 0.421-0.048 0.624-0.113 0.546-0.517 0.913-1.072 0.962-0.918 0.079-1.838 0.143-2.757-0.003-0.176-0.028-0.353-0.035-0.53-0.056-0.309-0.036-0.567-0.179-0.764-0.41-0.086-0.101-0.143-0.239-0.18-0.37-0.059-0.204-0.161-0.312-0.369-0.316-0.274-0.007-0.55-0.004-0.825-0.007-0.172-0.001-0.262 0.117-0.361 0.237-0.203 0.247-0.417 0.489-0.633 0.726-0.097 0.106-0.226 0.143-0.376 0.149-0.32 0.013-0.614-0.028-0.896-0.202-0.507-0.313-1.047-0.577-1.535-0.918-0.376-0.262-0.701-0.6-1.029-0.922-0.197-0.194-0.219-0.445-0.12-0.706 0.090-0.242 0.082-0.25-0.165-0.348-0.114-0.046-0.228-0.095-0.339-0.153-0.129-0.067-0.206-0.047-0.252 0.102-0.032 0.106-0.087 0.208-0.144 0.304-0.206 0.342-0.49 0.53-0.91 0.535-0.873 0.009-1.745 0.046-2.619 0.065-0.281 0.005-0.524-0.102-0.734-0.289-0.167-0.149-0.203-0.145-0.395-0.030-0.234 0.141-0.47 0.284-0.714 0.409-0.493 0.253-0.99 0.496-1.488 0.74-0.562 0.274-1.161 0.054-1.445-0.506-0.212-0.416 0.020-1.083 0.538-1.131 0.087-0.008 0.176-0.077 0.25-0.136 0.408-0.324 0.856-0.578 1.356-0.732 0.090-0.028 0.191-0.048 0.282-0.038 0.069 0.008 0.176 0.065 0.186 0.114 0.015 0.078-0.017 0.187-0.070 0.249-0.078 0.091-0.191 0.157-0.293 0.227-0.247 0.168-0.497 0.334-0.739 0.541 0.039 0 0.083 0.012 0.117-0.001 0.173-0.071 0.351-0.139 0.516-0.226 0.337-0.179 0.668-0.372 1.002-0.554 0.104-0.056 0.151-0.13 0.137-0.246-0.015-0.122-0.024-0.246-0.043-0.368-0.098-0.625 0.226-1.084 0.849-1.204 0.523-0.099 1.042-0.216 1.567-0.301 0.599-0.097 1.204-0.175 1.807-0.242 0.378-0.042 1.050 0.378 1.18 0.732 0.044 0.121 0.040 0.265 0.034 0.397-0.008 0.167 0.060 0.243 0.215 0.308 0.38 0.159 0.747 0.348 1.125 0.515 0.052 0.023 0.145 0.009 0.195-0.024 0.211-0.14 0.407-0.3 0.616-0.441 0.204-0.139 0.41-0.112 0.599 0.031 0.18 0.136 0.352 0.285 0.536 0.416 0.276 0.195 0.569 0.366 0.838 0.57 0.411 0.311 0.818 0.629 1.209 0.966 0.151 0.13 0.286 0.231 0.493 0.215 0.155-0.012 0.313-0.004 0.469-0.003 0.093 0 0.141-0.042 0.143-0.134 0.009-0.343 0.194-0.577 0.464-0.769 0.368-0.261 0.768-0.399 1.223-0.397 0.625 0.004 1.251 0.007 1.876-0.009 0.457-0.011 0.814 0.161 1.102 0.503 0.165 0.196 0.196 0.195 0.373 0.003 0.241-0.261 0.48-0.524 0.725-0.781 0.099-0.105 0.106-0.184 0.015-0.304-0.337-0.44-0.661-0.888-0.989-1.334-0.13-0.179-0.149-0.377-0.085-0.582 0.036-0.116 0.007-0.218-0.095-0.262-0.3-0.129-0.605-0.245-0.914-0.352-0.043-0.015-0.125 0.032-0.169 0.073-0.289 0.269-0.634 0.375-1.023 0.363-0.564-0.017-1.133-0.011-1.693-0.069-0.371-0.038-0.74-0.145-1.094-0.266-0.179-0.061-0.339-0.206-0.482-0.339s-0.288-0.221-0.49-0.243c-0.433-0.048-0.864-0.118-1.293-0.191-0.151-0.026-0.257 0.020-0.361 0.122-0.301 0.299-0.637 0.545-1.036 0.699-0.347 0.134-0.697 0.171-1.062 0.094-0.581-0.124-1.129-0.319-1.587-0.714-0.303-0.261-0.513-0.577-0.581-0.978-0.007-0.042-0.011-0.090-0.034-0.124-0.168-0.257-0.078-0.496 0.019-0.75 0.23-0.602 0.625-1.060 1.176-1.39 0.028-0.016 0.054-0.039 0.083-0.048 0.387-0.134 0.434-0.464 0.469-0.803 0.012-0.114-0.060-0.145-0.151-0.171-0.361-0.105-0.723-0.214-1.083-0.319-0.762-0.219-1.431-0.615-2.060-1.084-0.171-0.128-0.322-0.147-0.503-0.042-0.793 0.457-1.584 0.912-2.378 1.365-0.402 0.23-0.805 0.456-1.208 0.68-0.055 0.031-0.122 0.042-0.184 0.062-0.008-0.012-0.016-0.024-0.023-0.036 0.034-0.046 0.066-0.093 0.101-0.137 0.81-1.033 1.621-2.066 2.43-3.101 0.173-0.222 0.173-0.285-0.001-0.51-0.777-0.994-1.263-2.119-1.516-3.347-0.074-0.362-0.105-0.734-0.144-1.103-0.017-0.161-0.090-0.251-0.246-0.296-1.082-0.307-2.162-0.624-3.276-0.791-0.297-0.044-0.603-0.039-0.88-0.179 0-0.022 0-0.043 0-0.065 0.144-0.040 0.286-0.106 0.433-0.118 0.513-0.046 1.029-0.078 1.545-0.109 0.425-0.026 0.851-0.031 1.274-0.067 0.3-0.026 0.595-0.098 0.895-0.129 0.276-0.028 0.333-0.059 0.378-0.335 0.176-1.070 0.57-2.057 1.157-2.965 0.133-0.207 0.128-0.37-0.009-0.572-0.599-0.879-1.186-1.768-1.775-2.655-0.040-0.062-0.065-0.133-0.097-0.2 0.016-0.013 0.032-0.028 0.047-0.042 0.218 0.134 0.438 0.262 0.649 0.406 0.705 0.481 1.337 1.069 2.118 1.439 0.124 0.059 0.222 0.101 0.329-0.017 0.651-0.71 1.476-1.158 2.341-1.544 0.789-0.352 1.614-0.565 2.469-0.663 0.192-0.023 0.295-0.118 0.343-0.304 0.156-0.608 0.32-1.214 0.486-1.819 0.169-0.611 0.344-1.218 0.516-1.828 0.011 0 0.022 0 0.032 0zM14.816 18.329c0.023 0.001 0.046 0.003 0.069 0.004 0.056 0.093 0.129 0.18 0.165 0.28 0.098 0.266 0.188 0.538 0.268 0.81 0.030 0.102 0.079 0.141 0.181 0.134 0.398-0.023 0.798-0.020 1.192-0.070 1.307-0.164 2.477-0.663 3.514-1.475 0.114-0.090 0.16-0.199 0.129-0.338-0.017-0.083-0.044-0.165-0.063-0.25-0.046-0.2 0.052-0.321 0.256-0.296 0.091 0.011 0.184 0.055 0.266 0.104 0.13 0.079 0.231 0.061 0.32-0.061 0.198-0.269 0.4-0.534 0.597-0.803 0.735-1.002 1.124-2.13 1.246-3.359 0.012-0.124-0.023-0.203-0.132-0.264-0.122-0.069-0.242-0.144-0.352-0.229-0.122-0.093-0.12-0.172 0.012-0.25 0.105-0.062 0.226-0.101 0.341-0.143 0.11-0.040 0.171-0.105 0.153-0.229-0.061-0.409-0.098-0.823-0.184-1.226-0.188-0.888-0.566-1.698-1.072-2.45-0.075-0.113-0.152-0.157-0.278-0.073-0.075 0.050-0.16 0.089-0.247 0.12-0.066 0.024-0.14 0.027-0.211 0.040-0.011-0.071-0.038-0.144-0.028-0.212 0.024-0.164 0.058-0.328 0.101-0.488 0.035-0.132-0.003-0.229-0.099-0.316-0.156-0.141-0.305-0.289-0.462-0.428-1.18-1.034-2.552-1.616-4.113-1.763-0.159-0.015-0.27 0.026-0.345 0.171-0.071 0.138-0.152 0.273-0.238 0.402-0.093 0.143-0.204 0.141-0.278-0.008-0.067-0.138-0.121-0.286-0.159-0.434-0.027-0.102-0.070-0.151-0.177-0.14-0.122 0.012-0.246 0.022-0.369 0.038-1.67 0.208-3.086 0.929-4.277 2.107-0.108 0.108-0.128 0.211-0.062 0.346 0.082 0.169 0.169 0.339 0.222 0.516 0.022 0.074-0.023 0.186-0.073 0.254-0.023 0.031-0.14 0.019-0.2-0.007-0.108-0.046-0.206-0.116-0.309-0.175-0.204-0.116-0.309-0.090-0.423 0.114-0.191 0.336-0.38 0.674-0.56 1.017-0.332 0.631-0.505 1.31-0.605 2.012-0.023 0.164 0.030 0.258 0.199 0.282 0.095 0.013 0.192 0.031 0.282 0.062 0.067 0.022 0.126 0.067 0.191 0.102-0.036 0.066-0.058 0.155-0.114 0.192-0.126 0.086-0.265 0.168-0.41 0.21-0.16 0.046-0.221 0.121-0.217 0.282 0.039 1.684 0.6 3.172 1.657 4.482 0.098 0.122 0.195 0.148 0.334 0.081 0.261-0.128 0.523-0.253 0.788-0.37 0.134-0.059 0.295-0.18 0.413-0.034 0.105 0.132-0.044 0.257-0.118 0.368-0.183 0.272-0.369 0.539-0.563 0.82 0.984 0.834 2.088 1.385 3.373 1.635 0.104-0.264 0.202-0.518 0.308-0.769 0.048-0.113 0.11-0.219 0.165-0.328zM12.017 27.065c-0.121-0.229-0.289-0.231-0.465-0.203-0.748 0.12-1.496 0.239-2.244 0.362-0.126 0.020-0.262 0.035-0.373 0.093-0.077 0.040-0.117 0.149-0.175 0.229 0.067 0.031 0.13 0.075 0.2 0.090 0.223 0.046 0.347 0.206 0.306 0.43-0.022 0.121-0.056 0.239-0.095 0.356-0.055 0.169-0.013 0.237 0.165 0.227 0.53-0.028 1.059-0.061 1.587-0.095 0.192-0.012 0.387-0.031 0.578-0.059 0.114-0.016 0.236-0.065 0.236-0.2 0-0.153-0.136-0.116-0.234-0.124-0.16-0.012-0.214-0.066-0.199-0.225 0.017-0.182 0.052-0.362 0.069-0.543 0.016-0.169 0.109-0.221 0.267-0.234 0.125-0.011 0.246-0.066 0.376-0.104zM20.789 30.796c0.114 0.028 0.179 0.052 0.245 0.059 0.183 0.020 0.368 0.017 0.546 0.052 0.755 0.148 1.515 0.056 2.272 0.040 0.089-0.001 0.218-0.003 0.199-0.148-0.019-0.133-0.129-0.12-0.229-0.104-0.304 0.047-0.67-0.188-0.756-0.485-0.079-0.274 0.012-0.502 0.258-0.641 0.109-0.062 0.118-0.132 0.013-0.203-0.054-0.036-0.126-0.051-0.194-0.061-0.647-0.093-1.298-0.026-1.947-0.031-0.065 0-0.129 0.024-0.235 0.046 0.083 0.090 0.135 0.157 0.197 0.211 0.188 0.165 0.273 0.372 0.182 0.607-0.055 0.144-0.165 0.27-0.266 0.393-0.069 0.083-0.161 0.151-0.285 0.265zM22.005 24.65c-0.028-0.070-0.044-0.121-0.067-0.168-0.144-0.296-0.105-0.467 0.147-0.676 0.036-0.031 0.085-0.093 0.075-0.121-0.013-0.039-0.075-0.077-0.122-0.087-0.21-0.046-0.422-0.083-0.633-0.121-0.53-0.095-1.056-0.191-1.6-0.079-0.226 0.047-0.245 0.055-0.16 0.276 0.086 0.225 0.17 0.452 0.252 0.678 0.050 0.137 0.133 0.226 0.285 0.251 0.551 0.093 1.105 0.132 1.664 0.089 0.047-0.004 0.093-0.023 0.161-0.040zM15.585 28.422c-0.013 0.183-0.023 0.311-0.034 0.438-0.023 0.29-0.147 0.426-0.434 0.473-0.038 0.007-0.082-0.003-0.11 0.015-0.062 0.038-0.164 0.089-0.164 0.134 0 0.075 0.047 0.182 0.109 0.222 0.333 0.215 0.68 0.412 1.017 0.62 0.275 0.168 0.547 0.343 0.82 0.515 0.079 0.051 0.159 0.079 0.226-0.013 0.065-0.087 0.028-0.161-0.042-0.227-0.012-0.011-0.024-0.022-0.035-0.034-0.125-0.13-0.156-0.538-0.044-0.678 0.027-0.034 0.078-0.052 0.122-0.065 0.179-0.044 0.219-0.161 0.082-0.29-0.113-0.106-0.247-0.187-0.374-0.28-0.233-0.172-0.466-0.344-0.699-0.516-0.133-0.095-0.268-0.191-0.442-0.315zM26.998 27.591c0.134-0.042 0.251-0.073 0.367-0.114 0.167-0.061 0.227-0.164 0.152-0.327-0.112-0.242-0.239-0.479-0.384-0.703-0.126-0.198-0.274-0.387-0.435-0.557-0.168-0.176-0.357-0.339-0.554-0.481-0.136-0.098-0.224-0.048-0.322 0.086-0.132 0.18-0.275 0.355-0.426 0.52-0.071 0.079-0.069 0.134-0.005 0.206 0.205 0.227 0.408 0.457 0.617 0.68 0.036 0.039 0.11 0.082 0.151 0.070 0.258-0.077 0.454 0.099 0.677 0.156 0.061 0.016 0.106 0.134 0.136 0.214 0.026 0.074 0.017 0.157 0.026 0.25zM14.676 24.324c0.005-0.013 0.009-0.028 0.015-0.042 0.027 0 0.054 0.001 0.081 0 0.184-0.007 0.36-0.11 0.388-0.281 0.012-0.071-0.086-0.173-0.153-0.243-0.112-0.117-0.136-0.237-0.031-0.358 0.097-0.112 0.221-0.2 0.322-0.308 0.046-0.048 0.11-0.143 0.091-0.177-0.055-0.104-0.14-0.194-0.229-0.273-0.015-0.013-0.117 0.051-0.161 0.097-0.087 0.094-0.157 0.206-0.246 0.299-0.144 0.155-0.336 0.175-0.524 0.122-0.165-0.046-0.196-0.199-0.203-0.351 0-0.011-0.001-0.022-0.004-0.032-0.026-0.132-0.112-0.171-0.197-0.070-0.126 0.151-0.258 0.311-0.335 0.488-0.129 0.292 0.031 0.659 0.386 0.847 0.246 0.13 0.531 0.191 0.798 0.282z"></path>
</svg>
