<!-- Generated by IcoMoon.io -->
<svg version="1.1" xmlns="http://www.w3.org/2000/svg" width="32" height="32" viewBox="0 0 32 32">
<title>fighters-warrior</title>
<path fill="#fff" d="M0 16.154c0.43-0.149 0.865-0.288 1.29-0.45 0.401-0.153 0.794-0.327 1.186-0.499 0.1-0.044 0.178-0.137 0.276-0.186 0.187-0.094 0.353-0.181 0.493-0.368 0.116-0.157 0.368-0.215 0.565-0.308 0.201-0.096 0.408-0.177 0.61-0.268 0.125-0.056 0.25-0.116 0.372-0.179 0.235-0.122 0.472-0.239 0.699-0.373 0.112-0.066 0.205-0.165 0.302-0.252 0.089-0.080 0.173-0.166 0.272-0.263 0.056 0.118 0.090 0.214 0.143 0.296 0.064 0.1 0.145 0.189 0.219 0.282 0.036 0.045 0.098 0.084 0.108 0.133 0.073 0.351 0.359 0.433 0.64 0.485 0.392 0.073 0.735-0.090 1.028-0.331 0.1-0.082 0.177-0.242 0.186-0.372 0.031-0.432-0.068-0.836-0.521-1.015-0.256-0.102-0.478-0.267-0.781-0.207-0.154 0.031-0.214-0.080-0.201-0.229 0.005-0.064-0.016-0.136 0.009-0.189 0.035-0.074 0.090-0.145 0.154-0.195 0.085-0.068 0.207-0.096 0.279-0.171 0.721-0.763 1.532-1.424 2.323-2.108 0.306-0.264 0.545-0.606 0.832-0.895 0.185-0.186 0.396-0.348 0.603-0.51 0.19-0.149 0.381-0.302 0.591-0.417 0.098-0.054 0.244-0.039 0.364-0.021 0.033 0.005 0.064 0.122 0.074 0.191 0.036 0.219 0.058 0.442 0.096 0.662 0.013 0.082 0.039 0.169 0.081 0.239 0.198 0.319 0.842 0.494 1.178 0.328 0.304-0.15 0.43-0.476 0.315-0.826-0.086-0.264-0.259-0.46-0.507-0.587-0.198-0.102-0.399-0.199-0.595-0.303-0.213-0.113-0.262-0.304-0.129-0.506 0.073-0.11 0.171-0.205 0.239-0.319 0.113-0.189 0.21-0.388 0.314-0.582 0.017-0.032 0.028-0.074 0.056-0.094 0.175-0.124 0.235-0.319 0.328-0.497 0.28-0.542 0.587-1.069 0.86-1.615 0.17-0.34 0.295-0.701 0.445-1.052 0.077-0.179 0.155-0.359 0.244-0.534 0.189-0.373 0.396-0.739 0.571-1.117 0.084-0.179 0.109-0.385 0.167-0.578 0.029-0.096 0.068-0.189 0.116-0.276 0.019-0.036 0.074-0.077 0.108-0.072 0.035 0.004 0.077 0.056 0.092 0.094 0.078 0.209 0.133 0.426 0.226 0.628 0.13 0.283 0.26 0.571 0.436 0.826 0.348 0.507 0.724 0.995 1.093 1.488 0.108 0.145 0.158 0.299 0.136 0.476-0.032 0.264 0.040 0.474 0.28 0.624 0.202 0.125 0.271 0.348 0.335 0.563 0.041 0.142 0.096 0.254 0.259 0.287 0.045 0.009 0.085 0.072 0.118 0.118 0.136 0.187 0.28 0.371 0.397 0.571 0.082 0.142 0.128 0.308 0.183 0.465 0.057 0.162 0.090 0.336 0.165 0.49 0.093 0.195 0.219 0.375 0.327 0.565 0.084 0.149 0.037 0.267-0.13 0.317-0.132 0.040-0.267 0.072-0.403 0.093-0.259 0.040-0.448 0.194-0.608 0.379-0.057 0.065-0.080 0.187-0.070 0.279 0.062 0.624 0.814 1.003 1.4 0.712 0.158-0.078 0.283-0.169 0.319-0.377 0.045-0.264 0.146-0.519 0.229-0.777 0.052-0.165 0.307-0.236 0.426-0.124 0.429 0.403 0.866 0.797 1.285 1.21 0.167 0.165 0.304 0.364 0.434 0.562 0.209 0.315 0.503 0.533 0.808 0.735 0.643 0.428 1.131 0.994 1.501 1.661 0.062 0.112 0.037 0.276 0.032 0.414-0.001 0.027-0.096 0.068-0.149 0.070-0.089 0.005-0.179-0.021-0.268-0.024-0.526-0.009-0.834 0.49-0.598 0.963 0.17 0.34 0.486 0.473 0.818 0.583 0.035 0.012 0.084-0.004 0.122-0.019 0.262-0.097 0.484-0.243 0.6-0.511 0.065-0.147 0.183-0.215 0.339-0.222 0.080-0.004 0.159 0.001 0.239 0 0.169-0.003 0.275 0.078 0.303 0.243 0.039 0.225 0.14 0.372 0.377 0.434 0.239 0.064 0.47 0.162 0.7 0.255 0.136 0.054 0.262 0.129 0.392 0.197 0.084 0.044 0.163 0.101 0.251 0.137 0.347 0.143 0.696 0.282 1.044 0.421 0.015 0.005 0.032 0.011 0.043 0.021 0.482 0.445 1.129 0.545 1.698 0.809 0.25 0.117 0.509 0.213 0.709 0.416 0.182 0.185 0.159 0.363-0.065 0.489-0.927 0.523-1.857 1.043-2.779 1.576-0.242 0.14-0.468 0.215-0.732 0.082-0.074-0.037-0.163-0.047-0.242-0.077-0.108-0.041-0.187-0.028-0.262 0.073-0.029 0.040-0.114 0.057-0.173 0.054-0.166-0.005-0.21 0.023-0.175 0.173 0.080 0.341-0.011 0.608-0.282 0.836-0.194 0.162-0.352 0.365-0.542 0.534-0.121 0.108-0.191 0.090-0.258-0.060-0.078-0.177-0.147-0.36-0.19-0.547-0.058-0.258-0.357-0.527-0.623-0.514-0.157 0.008-0.325 0.011-0.468 0.069-0.457 0.189-0.571 0.772-0.238 1.145 0.23 0.255 0.518 0.376 0.858 0.307 0.194-0.040 0.328 0.029 0.469 0.159-0.288 0.395-0.574 0.789-0.866 1.18-0.040 0.053-0.106 0.088-0.159 0.132-0.159 0.13-0.332 0.247-0.474 0.395-0.687 0.716-1.37 1.437-2.046 2.164-0.271 0.291-0.509 0.612-0.789 0.894-0.149 0.149-0.357 0.238-0.537 0.357-0.061 0.041-0.117 0.090-0.175 0.134-0.114 0.084-0.183 0.064-0.226-0.070-0.088-0.278-0.179-0.555-0.258-0.836-0.082-0.292-0.262-0.474-0.567-0.5-0.302-0.025-0.561 0.077-0.717 0.348-0.081 0.14-0.141 0.299-0.175 0.457-0.068 0.316 0.090 0.561 0.405 0.634 0.175 0.041 0.306 0.136 0.426 0.259 0.078 0.080 0.088 0.159 0.017 0.239-0.381 0.434-0.638 0.947-0.934 1.439-0.513 0.849-1.077 1.666-1.621 2.497-0.012 0.017-0.024 0.035-0.035 0.053-0.369 0.623-0.74 1.246-1.109 1.869-0.011 0-0.021 0-0.032 0-0.056-0.056-0.113-0.109-0.165-0.167-0.359-0.403-0.59-0.889-0.866-1.344-0.244-0.403-0.481-0.81-0.732-1.209-0.175-0.278-0.369-0.543-0.553-0.816-0.023-0.035-0.043-0.077-0.044-0.117-0.007-0.247-0.136-0.429-0.304-0.593-0.214-0.207-0.433-0.409-0.634-0.627-0.23-0.25-0.186-0.519 0.089-0.716 0.173-0.124 0.339-0.256 0.504-0.389 0.333-0.27 0.389-0.632 0.27-1.008-0.092-0.286-0.236-0.575-0.559-0.67-0.238-0.070-0.48-0.033-0.709 0.086-0.223 0.116-0.373 0.268-0.393 0.53-0.005 0.062-0.031 0.124-0.044 0.186-0.086 0.413-0.085 0.413-0.496 0.473-0.027 0.004-0.054 0.013-0.078 0.007-0.069-0.020-0.15-0.031-0.203-0.073-0.27-0.222-0.545-0.44-0.796-0.681-0.588-0.567-1.162-1.149-1.748-1.72-0.244-0.238-0.484-0.473-0.646-0.781-0.078-0.149-0.189-0.283-0.299-0.412-0.248-0.29-0.521-0.562-0.756-0.862-0.161-0.206-0.283-0.444-0.412-0.672-0.058-0.104-0.016-0.181 0.102-0.217 0.068-0.021 0.132-0.054 0.218-0.092-0.060-0.081-0.126-0.138-0.145-0.209-0.020-0.073-0.008-0.162 0.015-0.238 0.011-0.033 0.077-0.065 0.122-0.070 0.246-0.027 0.497-0.024 0.737-0.072 0.453-0.089 0.741-0.755 0.515-1.156-0.142-0.252-0.526-0.429-0.821-0.376-0.477 0.085-0.716 0.379-0.776 0.845-0.031 0.247-0.138 0.492-0.25 0.719-0.090 0.186-0.133 0.178-0.308 0.068-0.834-0.527-1.695-1.004-2.624-1.35-0.044-0.016-0.084-0.044-0.125-0.069-0.292-0.177-0.582-0.359-0.877-0.53-0.316-0.183-0.636-0.359-0.957-0.534-0.12-0.066-0.239-0.155-0.369-0.179-0.513-0.094-0.846-0.454-1.209-0.774 0.004-0.015 0.004-0.025 0.004-0.036zM17.824 24.979c0.023-0.031 0.039-0.041 0.041-0.054 0.081-0.388 0.166-0.776 0.235-1.166 0.016-0.093 0.004-0.206-0.036-0.29-0.069-0.143-0.058-0.263 0.031-0.387 0.47-0.658 1.063-1.137 1.876-1.297 0.203-0.040 0.408-0.069 0.61-0.113 0.468-0.102 0.7-0.417 0.643-0.887-0.048-0.393 0.016-0.761 0.203-1.108 0.057-0.105 0.047-0.197-0.015-0.299-0.062-0.104-0.117-0.214-0.157-0.327-0.089-0.255-0.179-0.511-0.246-0.773-0.048-0.187-0.085-0.385-0.081-0.578 0.020-0.992 0.047-1.986 0.089-2.977 0.024-0.555-0.105-1.080-0.324-1.574-0.227-0.511-0.517-0.996-0.788-1.488-0.056-0.101-0.133-0.197-0.221-0.27-0.486-0.409-1.006-0.768-1.629-0.937-0.563-0.153-1.129-0.295-1.695-0.437-0.097-0.024-0.202-0.046-0.298-0.032-0.377 0.057-0.765 0.090-1.125 0.206-0.829 0.268-1.613 0.644-2.358 1.096-0.306 0.185-0.521 0.448-0.66 0.776-0.078 0.186-0.158 0.371-0.239 0.555-0.404 0.919-0.533 1.882-0.458 2.877 0.009 0.126 0.053 0.259 0.027 0.377-0.061 0.272-0.069 0.543 0.011 0.804 0.12 0.388 0.077 0.753-0.080 1.116-0.096 0.221-0.074 0.422 0.074 0.612 0.073 0.094 0.104 0.202 0.032 0.311-0.183 0.278-0.357 0.563-0.561 0.826-0.166 0.215-0.19 0.478-0.024 0.697 0.36 0.473 0.721 0.945 1.075 1.423 0.092 0.124 0.166 0.165 0.312 0.080 0.23-0.132 0.472-0.145 0.713-0.009 0.125 0.070 0.254 0.13 0.381 0.195 0.64 0.325 1.149 0.723 1.287 1.517 0.089 0.511 0.365 0.99 0.424 1.524 0.005 0.050 0.069 0.094 0.106 0.142 0.043-0.043 0.102-0.078 0.124-0.13 0.044-0.112 0.109-0.129 0.213-0.089 0.118 0.045 0.24 0.085 0.361 0.124 0.202 0.065 0.217 0.045 0.251-0.163 0.025-0.151 0.064-0.311 0.141-0.44 0.070-0.118 0.171-0.1 0.254 0.016 0.093 0.129 0.178 0.264 0.271 0.393 0.089 0.125 0.349 0.116 0.433-0.012 0.112-0.173 0.287-0.203 0.454-0.077 0.108 0.077 0.214 0.162 0.322 0.246zM14.305 5.525c0.096-0.235 0.191-0.47 0.3-0.74-0.295 0.114-0.449 0.481-0.3 0.74zM20.178 11.438c0.082 0.155 0.134 0.312 0.323 0.353 0.016-0.26-0.074-0.363-0.323-0.353zM20.767 12.162c-0.015 0.009-0.029 0.020-0.043 0.029 0.056 0.116 0.109 0.232 0.171 0.344 0.012 0.023 0.057 0.028 0.086 0.041 0.009-0.028 0.033-0.057 0.028-0.081-0.035-0.147-0.109-0.266-0.243-0.333zM15.272 27.851c0.045-0.039 0.089-0.077 0.15-0.13-0.116-0.033-0.137-0.203-0.264-0.113-0.012 0.009 0.074 0.158 0.114 0.243zM19.536 25.922c-0.049 0.039-0.089 0.070-0.141 0.109 0.1 0.078 0.17 0.197 0.271 0.031-0.020-0.025-0.035-0.047-0.053-0.066-0.020-0.023-0.044-0.043-0.077-0.073zM16.79 3.406c-0.157 0.122-0.146 0.198 0.015 0.264-0.004-0.081-0.008-0.157-0.015-0.264z"></path>
<path fill="#fff" d="M14.973 21.007c-0.096-0.145-0.197-0.125-0.315-0.061-0.149 0.080-0.303 0.153-0.46 0.215-0.072 0.029-0.159 0.049-0.232 0.036-0.347-0.065-0.707-0.068-1.032-0.231-0.336-0.169-0.674-0.339-1.019-0.486-0.274-0.117-0.314-0.368-0.389-0.6-0.011-0.035 0.019-0.096 0.049-0.128 0.295-0.306 0.618-0.587 1.053-0.64 0.231-0.028 0.473 0.029 0.709 0.054 0.622 0.068 1.189 0.31 1.747 0.57 0.348 0.162 0.425 0.464 0.225 0.796-0.097 0.158-0.214 0.303-0.336 0.476z"></path>
<path fill="#fff" d="M18.654 20.919c-0.153-0.027-0.259-0.021-0.315 0.124-0.011 0.029-0.11 0.057-0.147 0.040-0.298-0.137-0.595-0.272-0.879-0.433-0.142-0.080-0.238-0.211-0.263-0.395-0.032-0.24 0.073-0.369 0.255-0.513 0.404-0.317 0.865-0.476 1.352-0.6 0.286-0.073 0.558-0.199 0.83-0.314 0.319-0.133 0.631-0.13 0.935 0.029 0.361 0.19 0.418 0.614 0.138 0.907-0.474 0.498-1.057 0.828-1.673 1.109-0.078 0.036-0.174 0.035-0.234 0.045z"></path>
<path fill="#fff" d="M17.051 22.080c0 0.069 0 0.138 0 0.207 0 0.352 0.003 0.357-0.306 0.521-0.050 0.027-0.165 0.008-0.205-0.035-0.094-0.101-0.195-0.116-0.325-0.118-0.217-0.004-0.434-0.032-0.646-0.076-0.186-0.039-0.278-0.211-0.26-0.42 0.021-0.254 0.045-0.507 0.061-0.761 0.011-0.171 0.058-0.316 0.195-0.434 0.177-0.151 0.345-0.315 0.514-0.476 0.089-0.085 0.169-0.086 0.266-0.009 0.438 0.349 0.688 0.794 0.704 1.36 0.003 0.080 0 0.159 0 0.239-0.001 0.001 0 0.001 0.001 0.001zM16.676 22.216c-0.028-0.037-0.050-0.081-0.085-0.102-0.012-0.008-0.068 0.033-0.086 0.064-0.039 0.062-0.073 0.129-0.094 0.198-0.011 0.035 0.004 0.106 0.025 0.113 0.035 0.012 0.105 0.001 0.122-0.024 0.047-0.072 0.076-0.158 0.118-0.248z"></path>
</svg>
