<!-- Generated by IcoMoon.io -->
<svg version="1.1" xmlns="http://www.w3.org/2000/svg" width="512" height="512" viewBox="0 0 512 512">
<title>fighters-bulwark</title>
<path fill="#fff" d="M243.792 0c4.928 0 9.856 0 14.8 0 2.624 0.176 5.232 0.448 7.856 0.512 8.432 0.224 16.864 0.192 24.896 3.52 2 0.832 4.672 1.168 6.72 0.592 3.68-1.040 6.928 0 10.304 0.864 2.464 0.624 4.96 1.216 7.392 1.936 10.064 3.024 20.688 4.224 29.968 9.728 0.656 0.4 1.472 0.528 2.224 0.8 4.624 1.6 9.296 3.056 13.824 4.864 2.592 1.040 4.96 2.624 7.424 3.968 1.76 0.944 3.456 2.096 5.312 2.816 5.696 2.208 11.008 5.024 15.808 8.848 2.864 2.288 5.808 4.624 9.088 6.256 6.208 3.104 11.536 6.752 14.368 13.536 1.36 3.232 2.88 5.632 0.128 9.056-2.704 3.376-1.6 5.68 2.56 7.248 0.48 0.176 1.168 0.304 1.392 0.688 0.544 0.896 1.056 1.92 1.168 2.928 0.016 0.256-1.504 0.992-2.304 0.976-1.392-0.016-2.768-0.448-4.16-0.688-3.872-0.688-7.712-0.576-10.672 2.304-4.8 4.624-9.536 9.328-14 14.272-3.408 3.792-5.392 8.432-6.224 13.488-0.528 3.216-0.944 6.432-1.408 9.664-2.384 16.928 5.584 28.384 20.752 37.536 1.6 0.976 3.632 1.408 5.52 1.648 4.608 0.64 9.248 1.216 13.872 1.456 11.648 0.624 22.064-2.448 29.856-11.6 3.792-4.432 7.36-9.136 10.368-14.112 2.352-3.872 3.632-8.368 5.552-12.512 0.752-1.632 1.888-3.056 3.216-5.136 1.36 1.856 2.288 2.88 2.944 4.080 4.88 8.848 9.776 17.696 14.48 26.656 1.216 2.288 1.808 4.912 2.656 7.376 0.752 2.128 1.296 4.336 2.24 6.384 1.392 3.008 3.456 5.776 4.496 8.864 1.984 5.904 3.216 12.064 5.152 17.984 5.392 16.4 8.368 33.248 9.68 50.384 1.36 17.792 0.8 35.536-1.6 53.232-0.72 5.376-1.072 10.88-4.32 15.616-0.544 0.816-0.624 2.224-0.416 3.28 0.944 5.504-2.416 9.968-3.376 15.008-0.048 0.224-0.352 0.368-0.544 0.544-4.448 3.968-5.408 9.408-5.392 14.832 0.016 6.048-1.536 11.312-4.752 16.384-2.576 4.048-5.408 8.24-6.624 12.768-1.504 5.68-4.176 10.544-6.976 15.504-2.208 3.904-4.448 7.792-6.688 11.664-0.4 0.704-0.928 1.344-1.392 2-0.288-0.016-0.544-0.048-0.832-0.096-0.464-2.176-0.992-4.336-1.344-6.512-0.4-2.416-0.368-4.928-0.944-7.312-3.616-14.768-13.536-23.888-27.12-29.392-2.992-1.216-6.56-1.776-9.76-1.504-4.432 0.4-8.8 1.712-13.104 2.944-13.104 3.76-23.6 10.784-29.088 23.888-0.544 1.296-1.232 2.528-1.76 3.824-7.392 17.52-2.176 37.936 13.232 49.088 6.656 4.816 14.176 8.416 21.36 12.464 1.632 0.928 3.456 1.472 4.976 2.112-4.336 3.808-8.512 7.664-12.864 11.312-11.488 9.664-24.496 17.056-37.792 23.824-13.216 6.688-26.336 13.936-41.568 15.296-0.976 0.096-2.208 0.64-2.704 1.408-1.472 2.208-3.616 2.992-5.968 3.504-9.008 1.984-18 4.096-27.056 5.856-9.12 1.76-18.608 0.352-27.6 3.104-0.48 0.16-1.056 0.096-1.584 0.064-11.776-0.352-23.584-0.464-35.328-1.168-6.48-0.368-13.008-1.216-19.28-2.816-5.232-1.344-10.064-4.224-15.76-2.928-0.4 0.096-0.864-0.112-1.28-0.24-9.024-2.912-18.112-5.568-27.040-8.768-19.104-6.832-37.488-15.184-54.24-26.8-3.456-2.384-6.864-4.816-10.528-7.392 0.704-0.512 1.008-0.8 1.36-0.992 10.816-5.872 18.192-15.152 24.496-25.296 4.848-7.776 6.624-16.384 5.168-25.584-2.288-14.592-10.256-25.6-21.712-34.32-1.824-1.392-4.512-1.76-6.848-2.352-1.408-0.352-2.976-0.16-4.432-0.4-4.672-0.72-9.264-1.216-13.664 1.168-0.448 0.24-1.008 0.336-1.536 0.352-9.44 0.368-15.92 5.84-21.648 12.592-1.648 1.936-3.12 4.048-4.928 5.856-4.272 4.32-5.28 9.424-3.856 15.072 0.592 2.384 0.048 3.92-2.208 5.056-0.512-0.576-1.104-1.104-1.536-1.744-4.992-7.248-10.432-14.224-14.816-21.824-5.872-10.176-11.184-20.72-16.24-31.328-3.088-6.448-6.688-12.864-6.4-20.432 0.016-0.816-0.544-1.648-0.896-2.448-3.28-7.216-6.224-14.528-7.392-22.448-0.896-5.984-2.128-11.952-3.264-17.904-4.912-26.336-4.848-52.688 0.176-78.992 1.392-7.216 3.552-14.304 5.392-21.44 2.064-7.968 4.16-15.968 6.336-23.904 0.88-3.2 2.736-5.68 5.968-6.928 0.592-0.224 1.248-0.8 1.456-1.36 1.28-3.632 2.464-7.312 3.616-11.008 1.104-3.584 1.872-7.264 3.168-10.768 1.184-3.2 3.376-6.080 4.176-9.328 0.976-3.872 2.624-7.216 4.816-10.432 2.576-3.728 5.392-3.648 7.504 0.352 2.816 5.376 5.584 10.768 8.32 16.176 1.408 2.8 2.944 5.664 6.080 6.624 5.2 1.6 10.432 3.376 15.792 3.968 4.048 0.448 8.272-0.928 12.416-1.392 8.656-0.944 15.856-4.752 21.312-11.408 3.552-4.336 6.736-9.024 9.6-13.84 9.36-15.888 6.8-31.056-3.632-45.328-3.264-4.448-7.28-8.336-11.12-12.368-0.976-1.008-2.4-1.712-3.744-2.176-2.688-0.928-5.44-1.568-8.768-2.48 4.448-3.408 8.336-6.384 12.24-9.36 11.024-8.368 22.416-16.144 35.648-20.784 2.976-1.040 5.872-2.4 8.608-3.936 9.12-5.152 18.608-9.44 28.624-12.528 19.312-5.968 38.944-10.128 59.216-10.816 2.4-0.096 4.688-0.928 6.976-1.408zM258.88 490.352c3.296-4.816 6.432-9.072 9.248-13.536 3.232-5.104 6.16-10.416 9.296-15.584 2.288-3.76 4.88-7.328 7.008-11.184 5.904-10.704 11.44-21.616 17.52-32.208 3.168-5.552 7.216-10.592 10.832-15.872 0.592-0.864 0.992-1.824 1.504-2.736 2.976-5.344 5.984-10.672 8.912-16.048 0.464-0.864 1.056-2.064 0.768-2.8s-1.52-1.36-2.448-1.6c-0.88-0.224-1.888 0.16-2.864 0.176-3.648 0.064-7.328 0.112-10.992 0.112-1.584 0-3.168-0.304-4.704-0.16-3.92 0.352-4.32-0.16-4.16-4.032 0.192-5.344 0.16-10.704 0.048-16.048-0.112-5.904-0.448-11.776-0.544-17.68-0.096-4.928 0.16-9.84-0.016-14.768-0.176-4.464-1.040-8.944-1.008-13.408 0.048-6.384 0.528-12.768 1.040-19.136 0.064-0.88 1.296-2.208 2.208-2.4 2.64-0.592 5.376-0.976 8.080-1.040 10.128-0.224 20.256-0.064 30.352-0.48 9.312-0.4 18.608-1.536 27.92-2 6.848-0.336 13.744-0.016 20.592-0.096 8.896-0.096 17.76-0.224 26.656-0.416 2.576-0.048 4.112 0.88 4.112 3.584 0 5.44-0.112 10.896-0.096 16.336 0 1.296 0.16 2.656 0.624 3.856 0.592 1.52 1.472 1.936 2.912 0.416 2.272-2.416 4.64-4.784 7.264-6.8 18.784-14.528 37.648-28.944 56.416-43.472 2.304-1.808 4.288-4.032 6.48-6.080-1.152-1.424-2-2.56-2.912-3.616-20.736-24.288-44.864-44.976-69.152-65.488-0.864-0.72-2-1.072-3.408-1.824-0.112 1.648-0.24 2.688-0.24 3.728 0 6.256 0.064 12.512 0.048 18.752 0 4.256-0.656 4.8-4.976 4.736-4.576-0.080-9.152-0.272-13.712-0.16-12.24 0.304-24.464 0.88-36.672 1.152-19.088 0.4-38.192 0.656-57.28 0.944-3.408 0.048-4.432-0.816-4.144-4.176 0.768-9.792-0.624-19.44-1.456-29.152-0.864-10-1.232-20.016-0.288-30.048 1.12-11.728 2.128-23.52 0.16-35.296-0.4-2.4 0.816-3.088 2.992-3.056 6.336 0.016 12.688 0.064 18.992-0.16 3.632-0.128 4.224-1.296 2.336-4.512-5.488-9.408-10.064-19.264-16.976-27.872-6.608-8.208-12.112-17.28-18.288-25.872-6.672-9.264-13.392-18.544-20.416-27.568-3.344-4.288-7.488-7.968-11.344-12-2.576 4.032-4.736 7.44-6.912 10.848-13.312 20.8-26.64 41.6-39.984 62.416-0.416 0.656-0.816 1.36-1.344 1.952-6.032 6.512-10.56 14.064-14.544 21.92-0.816 1.6-1.696 4.576-1.008 5.216 1.328 1.184 3.76 1.152 5.744 1.632 0.080 0.016 0.176-0.016 0.272-0.016 6.048-0.16 12.128-0.304 18.192-0.464 1.68-0.048 2.448 0.88 2.304 2.48-0.176 2.384-0.176 4.8-0.752 7.088-2.976 12.256-2.848 24.784-3.616 37.248-0.192 3.232 0.464 6.608-0.16 9.728-1.12 5.568-1.408 11.136-1.248 16.768 0.080 3.44 0.224 6.896-0.016 10.304-0.080 1.072-1.344 2.912-2.16 2.944-7.264 0.448-14.544 0.72-21.84 0.704-5.408-0.016-10.848-0.72-16.272-0.864-6.32-0.16-12.656-0.064-18.992-0.016-4.736 0.048-9.488 0.288-14.224 0.288-5.168 0-10.32-0.16-15.504-0.24-0.448 0-1.008-0.272-1.28-0.064-2.688 1.952-5.568 0.72-8.416 0.704-2.736-0.016-3.648-1.392-3.632-3.744 0.016-3.872 0.192-7.728 0.224-11.6 0-1.536-0.256-3.056-0.416-4.608-0.288-0.048-0.592-0.080-0.88-0.128-0.944 0.88-1.92 1.744-2.8 2.688-4.64 4.992-9.072 10.208-13.92 14.976-8.48 8.304-16.416 17.216-26.464 23.792-0.8 0.528-1.504 1.232-2.176 1.888-6.848 6.72-13.6 13.52-20.56 20.128-2.336 2.224-5.2 3.872-7.712 5.92-1.744 1.408-3.296 3.024-5.344 4.88 3.504 1.936 6.448 3.504 9.328 5.152 2.048 1.168 4.080 2.416 6.032 3.728 3.632 2.416 7.2 4.976 10.848 7.36 4.704 3.056 10.112 5.328 14.16 9.072 10.816 9.936 22.832 18.576 31.856 30.384 1.216 1.584 2.576 1.344 3.456-0.512 0.336-0.704 0.464-1.504 0.592-2.288 0.928-5.52 1.856-11.072 2.848-17.152 6.656-0.272 13.216-0.688 19.792-0.752 5.984-0.064 11.968 0.464 17.936 0.336 17.264-0.352 34.496-0.896 51.76-1.408 3.728-0.112 4.144 0.24 4.048 3.968-0.16 5.376-0.336 10.736-0.592 16.096-0.528 10.288-1.040 20.56-1.712 30.816-0.224 3.296-1.040 6.576-1.36 9.888-0.288 2.656-0.464 5.376-0.352 8.064 0.112 2.944 0.816 5.872 0.896 8.832 0.080 3.792-0.336 7.568-0.272 11.344 0.048 2.576-0.928 3.632-3.472 3.808-3.936 0.272-7.904 0.688-11.808 1.296-3.2 0.512-4.112 2.512-2.56 5.344 0.88 1.584 2.16 2.976 3.328 4.4 3.76 4.624 7.536 9.248 11.312 13.872 0.832 1.008 1.6 2.128 2.576 2.992 6.672 5.968 11.904 13.12 17.44 20.128 11.168 14.16 22.848 27.888 32.832 42.976 3.056 4.688 6.624 9.072 10.32 14.064zM40 129.584c-0.288 0.544-1.28 1.744-1.008 2.16 0.864 1.408 2.176 2.528 3.296 3.76 0.544-0.656 1.52-1.296 1.584-2.032 0.176-1.696-1.936-4-3.872-3.904zM140.128 430.736c-0.416-0.544-0.832-1.28-1.424-1.776-0.224-0.176-1.28 0.176-1.328 0.4-0.4 1.888-0.72 3.808-0.88 5.744-0.016 0.336 0.816 1.040 1.248 1.056 0.464 0 1.168-0.544 1.344-1.008 0.416-1.328 0.64-2.704 1.040-4.4zM47.328 389.568c0.016-0.368 0.048-0.752 0.064-1.12-1.216-0.176-2.416-0.368-3.632-0.544-0.064 1.008-0.576 2.576-0.128 2.944 1.76 1.472 2.592-0.464 3.696-1.28z"></path>
<path fill="#fff" d="M229.168 256.272c0.928-7.792 2.8-13.936 7.904-18.56 3.2-2.88 6.544-5.632 9.968-8.192 1.056-0.8 2.704-0.832 4.112-1.056 1.536-0.24 3.12-0.16 4.64-0.416 4.496-0.752 8.736-0.192 12.768 2 0.464 0.24 0.896 0.64 1.408 0.704 5.744 0.816 8.704 4.464 10.064 9.776 0.096 0.336 0.16 0.704 0.336 0.992 3.968 6.576 2.224 13.184 0.064 19.792-2.096 6.448-5.952 11.488-11.872 14.88-2.592 1.504-5.104 3.104-7.664 4.64-0.592 0.352-1.216 0.72-1.872 0.976-3.68 1.424-15.392-1.76-17.696-4.928-3.264-4.464-6.576-8.912-9.488-13.6-1.456-2.352-2.048-5.264-2.688-7.008zM261.056 232.192c0-0.416-0.016-0.816-0.016-1.232-0.832-0.592-1.632-1.584-2.512-1.696-1.568-0.192-2.928 0.72-2.624 2.448 0.176 0.928 1.392 2.352 2.064 2.304 1.056-0.048 2.064-1.152 3.088-1.824z"></path>
<path fill="#fff" d="M256.16 353.28c5.552 1.168 10.816 2.128 15.984 3.472 1.12 0.288 2.224 1.744 2.768 2.912 1.456 3.088 2.768 6.272 3.808 9.536 0.368 1.184-0.48 2.752-0.272 4.048 2.208 12.528-3.104 22.48-10.912 31.456-1.568 1.808-3.808 3.056-5.808 4.432-0.688 0.464-1.648 0.8-2.48 0.768-8.608-0.272-16.336-2.208-20.864-10.656-1.072-2.032-2.976-3.648-4.64-5.344-6.448-6.56-6.752-11.312-3.232-19.728 3.264-7.744 9.12-12.88 15.44-17.52 2.8-2.096 6.912-2.352 10.24-3.376z"></path>
<path fill="#fff" d="M427.040 227.824c6.832 3.76 11.696 8.96 13.632 16.4 1.248 4.8-2.8 13.312-7.136 16.064-1.248 0.8-2.592 1.52-3.728 2.48-1.68 1.408-1.472 2.56 0.464 3.632 2.592 1.424 2.8 2.096 1.392 4.704-2.976 5.584-6.624 7.536-12.928 6.848-1.216-0.128-2.416-0.368-3.632-0.624-7.456-1.632-20.976-12.768-24.048-19.792-2.448-5.616-1.92-11.072 1.232-16.144 2.272-3.632 5.056-6.96 7.664-10.384 0.992-1.328 2.176-1.344 3.744-0.832 1.424 0.464 3.088 0.656 4.576 0.464 3.472-0.448 6.912-1.232 10.384-1.76 1.072-0.16 2.576-0.336 3.28 0.24 2.272 1.856 3.744 1.040 5.088-1.328zM423.936 233.008c1.584 1.184 2.112 3.76 4.464 2.48 0.512-0.272 0.576-2.528 0.016-3.264-1.456-2-2.832-0.416-4.496 0.768z"></path>
<path fill="#fff" d="M232.896 113.504c0.304-1.712 0.64-3.44 0.944-5.168 0.544-2.928 1.408-5.856 1.568-8.8 0.4-8.336 10.384-16.752 19.168-14.4 2.16 0.576 4.816-0.4 7.184-0.896 3.728-0.816 4.288-0.368 6.48 2.736 2.48 3.568 5.216 7.040 8.256 10.144 3.456 3.52 4.288 6.736 2.8 11.312-1.52 4.672-2.64 9.472-3.744 14.24-0.752 3.184-1.040 6.432-5.232 7.152-1.296 0.224-2.4 1.424-3.632 2.048-4.784 2.384-9.648 2.848-15.040 1.952-6.832-1.104-19.264-11.696-18.736-20.32zM252.448 95.168c0.944-1.424 1.984-2.352 2-3.28 0.016-0.832-1.072-1.696-1.68-2.56-0.816 1.056-1.824 2.048-2.336 3.264-0.16 0.368 0.992 1.296 2 2.576z"></path>
<path fill="#fff" d="M144.592 247.312c-0.224 1.008-0.4 2.064-0.688 3.056-1.392 4.8-2.864 9.6-4.176 14.416-1.408 5.056-4.464 8.768-9.184 10.912-3.2 1.456-6.512 2.656-9.856 3.632-2.912 0.832-6.032 0.464-8.208-1.68-4.928-4.848-10.144-9.584-14.128-15.168-6.368-8.88-3.808-17.76 5.696-23.296 0.464-0.272 1.056-0.448 1.328-0.864 2.672-4.256 7.088-5.456 11.472-6.864 1.744-0.544 3.376-1.456 4.992-2.304 2.672-1.36 4.704-0.464 6.432 1.632 1.888 2.304 3.744 4.64 5.52 7.040 1.232 1.648 2.528 2.352 4.736 1.824 1.040-0.24 2.848 0.288 3.44 1.104 1.328 1.856 2.096 4.096 3.056 6.192-0.16 0.16-0.288 0.24-0.416 0.352zM130.816 260.608c0.688-0.704 1.248-1.328 1.952-2.096-0.704-0.8-1.296-1.472-1.872-2.128-2.272 1.568-2.16 2.8-0.080 4.224z"></path>
</svg>
