<!-- Generated by IcoMoon.io -->
<svg version="1.1" xmlns="http://www.w3.org/2000/svg" width="512" height="512" viewBox="0 0 512 512">
<title>fighters-warrior</title>
<path fill="#fff" d="M0 258.464c6.88-2.384 13.84-4.608 20.64-7.2 6.416-2.448 12.704-5.232 18.976-7.984 1.6-0.704 2.848-2.192 4.416-2.976 2.992-1.504 5.648-2.896 7.888-5.888 1.856-2.512 5.888-3.44 9.040-4.928 3.216-1.536 6.528-2.832 9.76-4.288 2-0.896 4-1.856 5.952-2.864 3.76-1.952 7.552-3.824 11.184-5.968 1.792-1.056 3.28-2.64 4.832-4.032 1.424-1.28 2.768-2.656 4.352-4.208 0.896 1.888 1.44 3.424 2.288 4.736 1.024 1.6 2.32 3.024 3.504 4.512 0.576 0.72 1.568 1.344 1.728 2.128 1.168 5.616 5.744 6.928 10.24 7.76 6.272 1.168 11.76-1.44 16.448-5.296 1.6-1.312 2.832-3.872 2.976-5.952 0.496-6.912-1.088-13.376-8.336-16.24-4.096-1.632-7.648-4.272-12.496-3.312-2.464 0.496-3.424-1.28-3.216-3.664 0.080-1.024-0.256-2.176 0.144-3.024 0.56-1.184 1.44-2.32 2.464-3.12 1.36-1.088 3.312-1.536 4.464-2.736 11.536-12.208 24.512-22.784 37.168-33.728 4.896-4.224 8.72-9.696 13.312-14.32 2.96-2.976 6.336-5.568 9.648-8.16 3.040-2.384 6.096-4.832 9.456-6.672 1.568-0.864 3.904-0.624 5.824-0.336 0.528 0.080 1.024 1.952 1.184 3.056 0.576 3.504 0.928 7.072 1.536 10.592 0.208 1.312 0.624 2.704 1.296 3.824 3.168 5.104 13.472 7.904 18.848 5.248 4.864-2.4 6.88-7.616 5.040-13.216-1.376-4.224-4.144-7.36-8.112-9.392-3.168-1.632-6.384-3.184-9.52-4.848-3.408-1.808-4.192-4.864-2.064-8.096 1.168-1.76 2.736-3.28 3.824-5.104 1.808-3.024 3.36-6.208 5.024-9.312 0.272-0.512 0.448-1.184 0.896-1.504 2.8-1.984 3.76-5.104 5.248-7.952 4.48-8.672 9.392-17.104 13.76-25.84 2.72-5.44 4.72-11.216 7.12-16.832 1.232-2.864 2.48-5.744 3.904-8.544 3.024-5.968 6.336-11.824 9.136-17.872 1.344-2.864 1.744-6.16 2.672-9.248 0.464-1.536 1.088-3.024 1.856-4.416 0.304-0.576 1.184-1.232 1.728-1.152 0.56 0.064 1.232 0.896 1.472 1.504 1.248 3.344 2.128 6.816 3.616 10.048 2.080 4.528 4.16 9.136 6.976 13.216 5.568 8.112 11.584 15.92 17.488 23.808 1.728 2.32 2.528 4.784 2.176 7.616-0.512 4.224 0.64 7.584 4.48 9.984 3.232 2 4.336 5.568 5.36 9.008 0.656 2.272 1.536 4.064 4.144 4.592 0.72 0.144 1.36 1.152 1.888 1.888 2.176 2.992 4.48 5.936 6.352 9.136 1.312 2.272 2.048 4.928 2.928 7.44 0.912 2.592 1.44 5.376 2.64 7.84 1.488 3.12 3.504 6 5.232 9.040 1.344 2.384 0.592 4.272-2.080 5.072-2.112 0.64-4.272 1.152-6.448 1.488-4.144 0.64-7.168 3.104-9.728 6.064-0.912 1.040-1.28 2.992-1.12 4.464 0.992 9.984 13.024 16.048 22.4 11.392 2.528-1.248 4.528-2.704 5.104-6.032 0.72-4.224 2.336-8.304 3.664-12.432 0.832-2.64 4.912-3.776 6.816-1.984 6.864 6.448 13.856 12.752 20.56 19.36 2.672 2.64 4.864 5.824 6.944 8.992 3.344 5.040 8.048 8.528 12.928 11.76 10.288 6.848 18.096 15.904 24.016 26.576 0.992 1.792 0.592 4.416 0.512 6.624-0.016 0.432-1.536 1.088-2.384 1.12-1.424 0.080-2.864-0.336-4.288-0.384-8.416-0.144-13.344 7.84-9.568 15.408 2.72 5.44 7.776 7.568 13.088 9.328 0.56 0.192 1.344-0.064 1.952-0.304 4.192-1.552 7.744-3.888 9.6-8.176 1.040-2.352 2.928-3.44 5.424-3.552 1.28-0.064 2.544 0.016 3.824 0 2.704-0.048 4.4 1.248 4.848 3.888 0.624 3.6 2.24 5.952 6.032 6.944 3.824 1.024 7.52 2.592 11.2 4.080 2.176 0.864 4.192 2.064 6.272 3.152 1.344 0.704 2.608 1.616 4.016 2.192 5.552 2.288 11.136 4.512 16.704 6.736 0.24 0.080 0.512 0.176 0.688 0.336 7.712 7.12 18.064 8.72 27.168 12.944 4 1.872 8.144 3.408 11.344 6.656 2.912 2.96 2.544 5.808-1.040 7.824-14.832 8.368-29.712 16.688-44.464 25.216-3.872 2.24-7.488 3.44-11.712 1.312-1.184-0.592-2.608-0.752-3.872-1.232-1.728-0.656-2.992-0.448-4.192 1.168-0.464 0.64-1.824 0.912-2.768 0.864-2.656-0.080-3.36 0.368-2.8 2.768 1.28 5.456-0.176 9.728-4.512 13.376-3.104 2.592-5.632 5.84-8.672 8.544-1.936 1.728-3.056 1.44-4.128-0.96-1.248-2.832-2.352-5.76-3.040-8.752-0.928-4.128-5.712-8.432-9.968-8.224-2.512 0.128-5.2 0.176-7.488 1.104-7.312 3.024-9.136 12.352-3.808 18.32 3.68 4.080 8.288 6.016 13.728 4.912 3.104-0.64 5.248 0.464 7.504 2.544-4.608 6.32-9.184 12.624-13.856 18.88-0.64 0.848-1.696 1.408-2.544 2.112-2.544 2.080-5.312 3.952-7.584 6.32-10.992 11.456-21.92 22.992-32.736 34.624-4.336 4.656-8.144 9.792-12.624 14.304-2.384 2.384-5.712 3.808-8.592 5.712-0.976 0.656-1.872 1.44-2.8 2.144-1.824 1.344-2.928 1.024-3.616-1.12-1.408-4.448-2.864-8.88-4.128-13.376-1.312-4.672-4.192-7.584-9.072-8-4.832-0.4-8.976 1.232-11.472 5.568-1.296 2.24-2.256 4.784-2.8 7.312-1.088 5.056 1.44 8.976 6.48 10.144 2.8 0.656 4.896 2.176 6.816 4.144 1.248 1.28 1.408 2.544 0.272 3.824-6.096 6.944-10.208 15.152-14.944 23.024-8.208 13.584-17.232 26.656-25.936 39.952-0.192 0.272-0.384 0.56-0.56 0.848-5.904 9.968-11.84 19.936-17.744 29.904-0.176 0-0.336 0-0.512 0-0.896-0.896-1.808-1.744-2.64-2.672-5.744-6.448-9.44-14.224-13.856-21.504-3.904-6.448-7.696-12.96-11.712-19.344-2.8-4.448-5.904-8.688-8.848-13.056-0.368-0.56-0.688-1.232-0.704-1.872-0.112-3.952-2.176-6.864-4.864-9.488-3.424-3.312-6.928-6.544-10.144-10.032-3.68-4-2.976-8.304 1.424-11.456 2.768-1.984 5.424-4.096 8.064-6.224 5.328-4.32 6.224-10.112 4.32-16.128-1.472-4.576-3.776-9.2-8.944-10.72-3.808-1.12-7.68-0.528-11.344 1.376-3.568 1.856-5.968 4.288-6.288 8.48-0.080 0.992-0.496 1.984-0.704 2.976-1.376 6.608-1.36 6.608-7.936 7.568-0.432 0.064-0.864 0.208-1.248 0.112-1.104-0.32-2.4-0.496-3.248-1.168-4.32-3.552-8.72-7.040-12.736-10.896-9.408-9.072-18.592-18.384-27.968-27.52-3.904-3.808-7.744-7.568-10.336-12.496-1.248-2.384-3.024-4.528-4.784-6.592-3.968-4.64-8.336-8.992-12.096-13.792-2.576-3.296-4.528-7.104-6.592-10.752-0.928-1.664-0.256-2.896 1.632-3.472 1.088-0.336 2.112-0.864 3.488-1.472-0.96-1.296-2.016-2.208-2.32-3.344-0.32-1.168-0.128-2.592 0.24-3.808 0.176-0.528 1.232-1.040 1.952-1.12 3.936-0.432 7.952-0.384 11.792-1.152 7.248-1.424 11.856-12.080 8.24-18.496-2.272-4.032-8.416-6.864-13.136-6.016-7.632 1.36-11.456 6.064-12.416 13.52-0.496 3.952-2.208 7.872-4 11.504-1.44 2.976-2.128 2.848-4.928 1.088-13.344-8.432-27.12-16.064-41.984-21.6-0.704-0.256-1.344-0.704-2-1.104-4.672-2.832-9.312-5.744-14.032-8.48-5.056-2.928-10.176-5.744-15.312-8.544-1.92-1.056-3.824-2.48-5.904-2.864-8.208-1.504-13.536-7.264-19.344-12.384 0.064-0.24 0.064-0.4 0.064-0.576zM285.184 399.664c0.368-0.496 0.624-0.656 0.656-0.864 1.296-6.208 2.656-12.416 3.76-18.656 0.256-1.488 0.064-3.296-0.576-4.64-1.104-2.288-0.928-4.208 0.496-6.192 7.52-10.528 17.008-18.192 30.016-20.752 3.248-0.64 6.528-1.104 9.76-1.808 7.488-1.632 11.2-6.672 10.288-14.192-0.768-6.288 0.256-12.176 3.248-17.728 0.912-1.68 0.752-3.152-0.24-4.784-0.992-1.664-1.872-3.424-2.512-5.232-1.424-4.080-2.864-8.176-3.936-12.368-0.768-2.992-1.36-6.16-1.296-9.248 0.32-15.872 0.752-31.776 1.424-47.632 0.384-8.88-1.68-17.28-5.184-25.184-3.632-8.176-8.272-15.936-12.608-23.808-0.896-1.616-2.128-3.152-3.536-4.32-7.776-6.544-16.096-12.288-26.064-14.992-9.008-2.448-18.064-4.72-27.12-6.992-1.552-0.384-3.232-0.736-4.768-0.512-6.032 0.912-12.24 1.44-18 3.296-13.264 4.288-25.808 10.304-37.728 17.536-4.896 2.96-8.336 7.168-10.56 12.416-1.248 2.976-2.528 5.936-3.824 8.88-6.464 14.704-8.528 30.112-7.328 46.032 0.144 2.016 0.848 4.144 0.432 6.032-0.976 4.352-1.104 8.688 0.176 12.864 1.92 6.208 1.232 12.048-1.28 17.856-1.536 3.536-1.184 6.752 1.184 9.792 1.168 1.504 1.664 3.232 0.512 4.976-2.928 4.448-5.712 9.008-8.976 13.216-2.656 3.44-3.040 7.648-0.384 11.152 5.76 7.568 11.536 15.12 17.2 22.768 1.472 1.984 2.656 2.64 4.992 1.28 3.68-2.112 7.552-2.32 11.408-0.144 2 1.12 4.064 2.080 6.096 3.12 10.24 5.2 18.384 11.568 20.592 24.272 1.424 8.176 5.84 15.84 6.784 24.384 0.080 0.8 1.104 1.504 1.696 2.272 0.688-0.688 1.632-1.248 1.984-2.080 0.704-1.792 1.744-2.064 3.408-1.424 1.888 0.72 3.84 1.36 5.776 1.984 3.232 1.040 3.472 0.72 4.016-2.608 0.4-2.416 1.024-4.976 2.256-7.040 1.12-1.888 2.736-1.6 4.064 0.256 1.488 2.064 2.848 4.224 4.336 6.288 1.424 2 5.584 1.856 6.928-0.192 1.792-2.768 4.592-3.248 7.264-1.232 1.728 1.232 3.424 2.592 5.152 3.936zM228.88 88.4c1.536-3.76 3.056-7.52 4.8-11.84-4.72 1.824-7.184 7.696-4.8 11.84zM322.848 183.008c1.312 2.48 2.144 4.992 5.168 5.648 0.256-4.16-1.184-5.808-5.168-5.648zM332.272 194.592c-0.24 0.144-0.464 0.32-0.688 0.464 0.896 1.856 1.744 3.712 2.736 5.504 0.192 0.368 0.912 0.448 1.376 0.656 0.144-0.448 0.528-0.912 0.448-1.296-0.56-2.352-1.744-4.256-3.888-5.328zM244.352 445.616c0.72-0.624 1.424-1.232 2.4-2.080-1.856-0.528-2.192-3.248-4.224-1.808-0.192 0.144 1.184 2.528 1.824 3.888zM312.576 414.752c-0.784 0.624-1.424 1.12-2.256 1.744 1.6 1.248 2.72 3.152 4.336 0.496-0.32-0.4-0.56-0.752-0.848-1.056-0.32-0.368-0.704-0.688-1.232-1.168zM268.64 54.496c-2.512 1.952-2.336 3.168 0.24 4.224-0.064-1.296-0.128-2.512-0.24-4.224z"></path>
<path fill="#fff" d="M239.568 336.112c-1.536-2.32-3.152-2-5.040-0.976-2.384 1.28-4.848 2.448-7.36 3.44-1.152 0.464-2.544 0.784-3.712 0.576-5.552-1.040-11.312-1.088-16.512-3.696-5.376-2.704-10.784-5.424-16.304-7.776-4.384-1.872-5.024-5.888-6.224-9.6-0.176-0.56 0.304-1.536 0.784-2.048 4.72-4.896 9.888-9.392 16.848-10.24 3.696-0.448 7.568 0.464 11.344 0.864 9.952 1.088 19.024 4.96 27.952 9.12 5.568 2.592 6.8 7.424 3.6 12.736-1.552 2.528-3.424 4.848-5.376 7.616z"></path>
<path fill="#fff" d="M298.464 334.704c-2.448-0.432-4.144-0.336-5.040 1.984-0.176 0.464-1.76 0.912-2.352 0.64-4.768-2.192-9.52-4.352-14.064-6.928-2.272-1.28-3.808-3.376-4.208-6.32-0.512-3.84 1.168-5.904 4.080-8.208 6.464-5.072 13.84-7.616 21.632-9.6 4.576-1.168 8.928-3.184 13.28-5.024 5.104-2.128 10.096-2.080 14.96 0.464 5.776 3.040 6.688 9.824 2.208 14.512-7.584 7.968-16.912 13.248-26.768 17.744-1.248 0.576-2.784 0.56-3.744 0.72z"></path>
<path fill="#fff" d="M272.816 353.28c0 1.104 0 2.208 0 3.312 0 5.632 0.048 5.712-4.896 8.336-0.8 0.432-2.64 0.128-3.28-0.56-1.504-1.616-3.12-1.856-5.2-1.888-3.472-0.064-6.944-0.512-10.336-1.216-2.976-0.624-4.448-3.376-4.16-6.72 0.336-4.064 0.72-8.112 0.976-12.176 0.176-2.736 0.928-5.056 3.12-6.944 2.832-2.416 5.52-5.040 8.224-7.616 1.424-1.36 2.704-1.376 4.256-0.144 7.008 5.584 11.008 12.704 11.264 21.76 0.048 1.28 0 2.544 0 3.824-0.016 0.016 0 0.016 0.016 0.016zM266.816 355.456c-0.448-0.592-0.8-1.296-1.36-1.632-0.192-0.128-1.088 0.528-1.376 1.024-0.624 0.992-1.168 2.064-1.504 3.168-0.176 0.56 0.064 1.696 0.4 1.808 0.56 0.192 1.68 0.016 1.952-0.384 0.752-1.152 1.216-2.528 1.888-3.968z"></path>
</svg>
