<!-- Generated by IcoMoon.io -->
<svg version="1.1" xmlns="http://www.w3.org/2000/svg" width="32" height="32" viewBox="0 0 32 32">
<title>fighters-ally</title>
<path fill="#fff" d="M16.385 4.613c-0.402 0.565-0.712 1.1-1.12 1.55-0.548 0.608-1.297 0.754-2.094 0.729-0.213-0.006-0.433 0.109-0.633 0.194-0.061 0.024-0.097 0.146-0.122 0.231-0.097 0.353-0.176 0.711-0.274 1.064-0.085 0.31-0.043 0.401 0.274 0.492 0.055 0.018 0.115 0.043 0.164 0.079 0.743 0.553 1.4 1.191 2.033 1.872 0.322 0.353 0.475 0.675 0.433 1.143-0.018 0.213 0.091 0.432 0.14 0.65 0.219-0.079 0.445-0.152 0.663-0.243 0.049-0.018 0.085-0.109 0.097-0.17 0.152-0.614 0.225-1.203-0.311-1.696-0.158-0.146-0.249-0.365-0.395-0.529-0.158-0.176-0.329-0.353-0.524-0.492-0.419-0.292-0.846-0.571-1.12-1.027-0.067-0.115-0.207-0.182-0.346-0.304 0.097-0.152 0.182-0.322 0.304-0.456 0.134-0.152 0.305-0.188 0.524-0.128 0.243 0.067 0.512 0.067 0.761 0.103 0.128 0.018 0.274 0.030 0.372 0.097 0.469 0.346 0.987 0.583 1.546 0.748 0.225 0.067 0.413 0.237 0.621 0.359 0.433 0.249 0.846 0.529 1.303 0.735 0.639 0.292 1.132 0.76 1.662 1.185 0.122 0.097 0.255 0.225 0.395 0.255 0.146 0.030 0.36 0.018 0.457-0.067 0.469-0.413 0.919-0.845 1.345-1.295 0.122-0.128 0.194-0.359 0.182-0.529-0.012-0.152-0.176-0.292-0.267-0.438-0.128 0.097-0.261 0.182-0.378 0.298-0.353 0.34-0.688 0.699-1.047 1.039-0.128 0.115-0.28 0.128-0.426-0.024-0.176-0.182-0.366-0.346-0.566-0.504s-0.25-0.274-0.049-0.504c0.797-0.942 1.564-1.908 2.344-2.869 0.36-0.438 0.773-0.669 1.345-0.419 0.073 0.030 0.158 0.043 0.237 0.036 0.292-0.024 0.451 0.146 0.469 0.401 0.018 0.28 0.195 0.249 0.201 0.48s0.231 0.936-0.018 1.665c-0.232 0.474-0.451 0.906-0.651 1.349-0.122 0.261-0.195 0.547-0.329 0.796-0.182 0.334-0.408 0.644-0.615 0.966-0.115 0.176-0.219 0.359-0.328 0.541-0.261 0.438-0.524 0.875-0.791 1.307-0.322 0.529-0.67 1.039-0.962 1.58-0.14 0.261-0.225 0.577-0.261 0.875-0.109 0.936 0.164 1.829 0.36 2.729 0.134 0.644 0.347 1.246 0.639 1.836 0.134 0.267 0.073 0.486-0.158 0.693-0.554 0.498-1.108 0.997-1.638 1.519-0.706 0.699-1.394 1.422-2.076 2.146-0.518 0.547-1.017 1.106-1.515 1.671-0.097 0.109-0.158 0.249-0.261 0.413-0.049-0.018-0.146-0.024-0.194-0.079-0.232-0.249-0.463-0.504-0.67-0.778-0.718-0.936-1.406-1.896-2.155-2.814-0.237-0.292-0.603-0.486-0.925-0.711-0.469-0.334-0.95-0.656-1.424-0.979-0.158-0.109-0.316-0.207-0.487-0.298-0.182-0.097-0.219-0.231-0.109-0.389 0.34-0.48 0.481-1.003 0.524-1.598 0.043-0.602 0.237-1.191 0.366-1.787 0.018-0.097 0.036-0.201 0.036-0.298 0.018-0.541 0.030-1.088 0.061-1.629 0.006-0.091 0.061-0.182 0.109-0.261 0.237-0.353 0.255-0.571-0.012-0.869-0.316-0.353-0.67-0.675-1.011-1.003-0.231-0.225-0.413-0.517-0.803-0.511-0.055 0-0.14-0.115-0.17-0.194-0.281-0.705-0.718-1.307-1.187-1.896-0.182-0.231-0.299-0.504-0.627-0.614-0.164-0.055-0.182-0.274-0.073-0.444 0.036-0.061 0.091-0.103 0.134-0.164 0.329-0.432 0.323-0.456-0.17-0.742-0.281-0.164-0.287-0.395-0.043-0.626 0.085-0.079 0.176-0.201 0.182-0.304 0.036-0.517 0.414-0.845 0.657-1.246 0.353-0.583 0.7-1.173 1.053-1.756 0.091-0.146 0.207-0.274 0.292-0.419 0.085-0.152 0.128-0.322 0.213-0.48 0.049-0.091 0.128-0.231 0.207-0.237 0.487-0.049 0.961-0.103 1.455 0.079 0.475 0.176 0.993 0.322 1.491 0.31 0.548-0.012 1.040 0.164 1.558 0.231 0.554 0.073 1.108 0.182 1.656 0.28 0.134-0.006 0.243 0.030 0.475 0.091zM16.616 23.479c0.030-0.34-0.231-0.596-0.724-0.644-0.31-0.030-0.663 0.34-0.676 0.675-0.012 0.322 0.39 0.827 0.657 0.833 0.292 0.006 0.743-0.517 0.743-0.863z"></path>
<path fill="#fff" d="M8.039 23.886c0.463-0.492 0.901-0.948 1.315-1.416 0.109-0.122 0.164-0.292 0.237-0.45 0.091-0.195 0.201-0.219 0.378-0.091 0.115 0.085 0.281 0.097 0.396 0.176 0.329 0.219 0.688 0.425 0.967 0.699 1.126 1.082 2.173 2.224 3.038 3.531 0.384 0.583 0.749 1.179 1.12 1.769 0.122 0.195 0.219 0.219 0.426 0.067 0.876-0.663 1.418-1.598 2.1-2.431 0.384-0.468 0.791-0.912 1.193-1.355 0.469-0.523 0.943-1.039 1.412-1.562 0.334-0.371 0.657-0.76 0.999-1.124 0.213-0.231 0.286-0.207 0.433 0.067 0.286 0.535 0.572 1.070 0.87 1.605 0.067 0.122 0.158 0.237 0.261 0.328 0.207 0.182 0.14 0.304-0.036 0.462-0.676 0.62-1.376 1.216-1.997 1.896-0.584 0.644-1.060 1.392-1.619 2.066-0.621 0.748-1.266 1.477-1.942 2.182-0.542 0.571-1.139 1.088-1.711 1.629-0.115 0.109-0.578 0.085-0.688-0.067-0.249-0.346-0.475-0.717-0.712-1.076-0.499-0.735-0.987-1.477-1.656-2.085-0.267-0.243-0.451-0.583-0.657-0.893-0.578-0.869-1.406-1.489-2.162-2.176-0.584-0.535-1.212-1.021-1.82-1.538-0.061-0.049-0.097-0.14-0.146-0.213zM15.733 30.778c0.481 0.030 0.706-0.474 0.73-0.893 0.024-0.359-0.311-0.656-0.67-0.65-0.445 0.006-0.949 0.401-0.943 0.729 0.006 0.346 0.518 0.893 0.882 0.814zM19.599 26.481c0.006-0.365-0.267-0.614-0.688-0.626-0.36-0.012-0.761 0.395-0.767 0.778-0.006 0.359 0.39 0.802 0.712 0.802 0.366 0 0.736-0.48 0.743-0.954zM20.878 23.795c0 0.061-0.006 0.122 0 0.182 0.024 0.28 0.237 0.523 0.53 0.59 0.261 0.061 0.512 0.012 0.633-0.231 0.158-0.316 0.249-0.663 0.103-1.015-0.036-0.085-0.115-0.164-0.194-0.213-0.603-0.322-1.072-0.018-1.072 0.687zM10.949 23.959c0-0.456-0.274-0.802-0.609-0.833-0.36-0.036-0.73 0.28-0.742 0.705-0.012 0.34 0.396 0.699 0.767 0.699 0.292-0.006 0.584-0.286 0.584-0.571zM12.732 27.138c0.402 0.006 0.603-0.182 0.603-0.577 0.006-0.413-0.328-0.754-0.736-0.76-0.353-0.006-0.518 0.164-0.524 0.541-0.006 0.511 0.219 0.79 0.657 0.796z"></path>
<path fill="#fff" d="M22.314 4.972c-0.134 0.17-0.261 0.377-0.445 0.535-0.445 0.401-0.736 0.9-1.072 1.386-0.378 0.547-0.882 1.003-1.357 1.477-0.067 0.067-0.28 0.073-0.384 0.024-0.493-0.237-0.981-0.498-1.467-0.754-0.25-0.134-0.225-0.194-0.043-0.419 0.493-0.614 0.956-1.258 1.436-1.884 0.396-0.517 0.803-1.021 1.224-1.519 0.055-0.067 0.176-0.103 0.267-0.103 0.413 0.006 0.828 0.043 1.236 0.049 0.213 0.006 0.334 0.085 0.384 0.298 0.061 0.286 0.134 0.565 0.219 0.912z"></path>
<path fill="#fff" d="M17.743 1.106c0.39 0.061 0.773 0.097 1.139 0.201 0.115 0.030 0.201 0.243 0.249 0.389 0.115 0.328 0.219 0.663 0.28 1.003 0.030 0.158 0.006 0.365-0.079 0.498-0.384 0.608-0.791 1.203-1.199 1.793-0.28 0.401-0.572 0.796-0.87 1.185-0.201 0.267-0.402 0.541-0.627 0.784-0.182 0.201-0.645 0.067-0.736-0.194-0.018-0.049 0.036-0.158 0.085-0.194 0.56-0.395 0.876-0.991 1.23-1.544 0.134-0.219 0.219-0.468 0.299-0.711s-0.085-0.486-0.378-0.547c-0.433-0.091-0.87-0.152-1.303-0.237-0.109-0.018-0.219-0.049-0.316-0.097-0.146-0.073-0.243-0.146-0.097-0.34 0.372-0.492 0.712-1.015 1.072-1.513 0.201-0.28 0.53-0.328 0.84-0.389 0.152-0.030 0.292-0.061 0.414-0.085z"></path>
<path fill="#fff" d="M10.918 2.65c0.055-0.122 0.073-0.201 0.122-0.261 0.366-0.486 0.743-0.972 1.114-1.453 0.097-0.128 0.194-0.261 0.298-0.377 0.164-0.182 0.347-0.304 0.609-0.395 0.524-0.176 1.041-0.128 1.564-0.158 0.237-0.012 0.34 0.097 0.426 0.28 0.115 0.267 0.249 0.523 0.36 0.796 0.036 0.085 0.030 0.219-0.012 0.304-0.28 0.498-0.578 0.985-0.858 1.483-0.097 0.176-0.219 0.273-0.433 0.243-0.657-0.091-1.315-0.176-1.966-0.267-0.396-0.061-0.785-0.128-1.224-0.195z"></path>
</svg>
