<!-- Generated by IcoMoon.io -->
<svg version="1.1" xmlns="http://www.w3.org/2000/svg" width="512" height="512" viewBox="0 0 512 512">
<title>fighters-sentience</title>
<path fill="#fff" d="M23.936 238.656c2.96-1.472 5.552-0.592 8.336 0.848 2.48 1.28 5.328 2.464 8.048 2.592 7.040 0.336 14.112 0.192 21.152-0.064 3.568-0.128 6.704-1.808 8.992-4.56 7.744-9.216 17.824-10.144 28.704-8.192 3.456 0.624 6.8 1.952 10.272 2.48 2.080 0.336 4.56 0.336 6.368-0.528 5.376-2.528 10.544-5.52 15.76-8.4 1.712-0.944 3.392-0.944 4.256 0.8s1.44 3.808 1.52 5.744c0.24 5.456 0.208 10.976 0.224 16.448 0 1.872 0.304 3.92-0.352 5.568-1.504 3.808-0.944 7.536-0.64 11.376 0.352 4.32 1.152 8.672-0.448 12.928-1.328 3.568-3.424 4.288-5.696 1.328-3.616-4.768-8.512-6.976-13.872-8.768-2.24-0.752-4.464-1.68-6.56-2.8-3.376-1.792-6.432-1.536-9.776 0.288-3.424 1.872-7.136 3.28-10.768 4.72-4.704 1.856-9.36 0.384-14.064-0.352-5.264-0.816-10.544-1.424-15.792-2.24-1.68-0.272-3.536-0.528-4.912-1.424-5.296-3.392-10.912-6.512-15.536-10.704-5.552-5.008-10.208-11.008-15.264-16.576 0-0.208 0-0.368 0-0.528zM123.84 257.488c0.848 1.104 1.376 1.76 1.888 2.448 0.8-0.928 1.936-1.744 2.304-2.816 0.16-0.496-1.168-1.472-1.856-2.24-0.704 0.784-1.424 1.584-2.336 2.608zM125.984 247.664c0 0.416-0.016 0.848-0.016 1.248 1.072 0.192 2.16 0.368 3.232 0.56-0.048-0.72-0.096-1.456-0.144-2.176-1.024 0.096-2.032 0.224-3.056 0.368z"></path>
<path fill="#fff" d="M241.44 118.608c-1.104 0.992-2.224 1.968-3.328 2.96 0.144 0.288 0.304 0.56 0.448 0.848 0.896-0.096 1.888-0.016 2.704-0.352 2.992-1.168 6.432-1.504 8.48-4.512 0.352-0.512 1.296-0.816 1.968-0.864 4.768-0.272 9.536-0.352 13.84 2.288 0.624 0.368 1.28 0.8 1.968 0.928 5.136 0.88 10.288 1.664 15.424 2.592 1.328 0.24 2.688 0.784 3.904 1.424 3.968 2.096 7.76 4.512 11.824 6.416s7.536 4.272 9.792 8.24c0.72 1.28 1.68 2.448 2.672 3.536 6.736 7.44 11.312 16.048 13.92 25.712 1.168 4.288 2.416 8.464 6.848 10.912 1.152 0.64 1.872 2.752 2.048 4.272 0.656 5.52 1.072 11.088 1.44 16.656 0.88 13.76 1.52 27.552 2.592 41.296 0.288 3.776 1.856 7.456 2.672 11.216 0.352 1.584 0.576 3.264 0.416 4.864-1.296 12.464 1.088 24.336 5.44 35.92 0.080 0.224 0.272 0.448 0.272 0.672 0.336 4.896 2.768 7.184 7.808 7.648 3.92 0.352 4.48 2.704 2.080 5.872-4.208 5.552-8.304 11.168-12.448 16.784-0.288 0.384-0.512 0.896-0.896 1.152-3.344 2.256-6.576 4.768-10.144 6.576-1.296 0.656-3.632 0.096-5.12-0.656-4.128-2.096-7.68-2.464-11.552 0.864-2.304 2-5.424 3.024-8.192 4.416-2.384 1.216-3.824 3.088-4.928 5.52-4.512 9.984-7.888 20.272-9.712 31.136-0.784 4.64-2.464 9.184-4.256 13.552-2.56 6.272-4.352 12.672-5.696 19.296-0.592 2.912-2.416 5.664-4.064 8.272-1.136 1.792-3.6 1.952-5.152 0.192-2.032-2.272-3.776-4.896-5.264-7.584-1.648-2.992-2.848-6.24-4.272-9.392-0.752-1.712-2.144-2.4-3.968-2.368-9.28 0.208-18.544 0.432-27.84 0.64-2.336 0.064-3.808 1.232-4.48 3.488-1.312 4.48-2.704 8.96-4.032 13.44-0.736 2.464-1.824 3.2-4.352 2.848-2.816-0.368-4.896-1.792-6.224-4.288-4.112-7.808-7.472-15.92-8.768-24.688-0.56-3.776-0.752-7.76-0.192-11.52 0.656-4.416 0.24-8.608-1.36-12.544-2.992-7.36-5.92-14.816-9.824-21.696-3.68-6.464-10.336-9.36-17.488-10.784-7.616-1.504-15.216-0.352-22.848 0.16-1.792 0.128-3.616 0.080-5.408-0.096-3.344-0.336-5.424-2.24-6.656-5.408-2.688-6.976-3.424-14.336-4.176-21.696-0.064-0.576 0.096-1.232-0.144-1.712-1.936-3.76-0.064-6.416 2.192-9.312 3.984-5.12 6.464-11.072 7.696-17.392 1.616-8.368 3.376-16.736 4.224-25.2 1.136-10.992 1.76-22.016 0.656-33.152-1.008-10.112 0.496-20.128 4.336-29.696 1.104-2.768 1.6-5.808 2.384-8.704 0.192-0.72 0.272-1.472 0.592-2.112 5.264-9.568 11.136-18.608 17.824-27.344 6.32-8.256 15.072-12.176 23.248-17.28 7.968-4.944 16.768-8.224 26.064-10.064 3.616-0.72 7.152-1.856 10.736-2.624 1.36-0.304 2.816-0.16 4.224-0.224-0.064 0.272-0.064 0.48-0.064 0.704zM241.472 335.84c0.288 2.944 0.576 5.872 0.816 8.816 0.16 1.824 1.152 2.528 2.912 2.592 2.768 0.080 5.568 0.192 8.32 0.448 3.312 0.304 4.768-0.56 4.64-3.92-0.336-8.928-0.88-17.872-1.536-26.784-0.192-2.656-3.632-4.064-5.36-2.256-5.52 5.936-11.712 11.648-9.792 21.12zM293.456 305.2c0.8-0.048 0.96-0.064 1.136-0.064 8.832-0.752 22.16-12.288 24.096-20.816 0.416-1.824-0.432-2.544-2.112-2.192-2.56 0.528-5.12 1.168-7.648 1.824-2.304 0.592-4.064 1.824-5.408 3.952-0.592 0.96-2 1.536-3.168 2-6.704 2.624-13.424 5.152-20.112 7.744-0.224 0.080-0.432 0.224-0.64 0.384-1.424 1.152-1.44 2.656 0.272 3.232 4.688 1.52 9.424 2.768 13.584 3.952zM212.448 303.808c-0.416-3.040-2.56-4.512-4.576-6-8.256-6-17.728-9.472-27.28-12.736-0.8-0.272-1.824 0.144-2.752 0.24 0.096 0.864 0.096 1.744 0.352 2.56 1.648 5.296 5.616 8.704 9.76 12 2.896 2.304 6 3.888 9.792 4.096 2.192 0.128 4.416 0.448 6.56 0.992 2.848 0.704 5.456 0.304 8.128-1.152zM223.008 404.96c-3.28 0.432-3.68 1.168-2.752 5.264 0.88-0.064 1.808-0.096 2.848-0.16 0-1.312 0.016-2.368 0-3.408 0-0.56-0.064-1.136-0.096-1.68zM223.264 123.664c-1.248 0.48-2.16 0.784-3.024 1.136-0.592 0.224-1.216 0.448-1.76 0.768-0.304 0.16-0.592 0.48-0.704 0.8-0.064 0.16 0.24 0.592 0.496 0.704 0.896 0.368 4.464-1.792 4.992-3.392zM278.256 405.264c0.352 0 0.672 0 1.024-0.016 0.064-1.072 0.144-2.144 0.208-3.2-1.040 0.304-2.096 0.592-3.568 1.024 1.168 1.088 1.744 1.648 2.336 2.192zM218.864 323.040c0.992 0.736 1.68 1.28 2.4 1.808 2.368-1.536 0.656-2.464-0.384-3.664-0.64 0.576-1.216 1.104-2.016 1.856zM155.632 264.208c-0.336 0.128-0.64 0.24-0.96 0.368 0 1.184 0 2.384 0 4.336 0.88-0.784 1.76-1.216 1.744-1.584-0.064-1.040-0.496-2.080-0.784-3.12z"></path>
<path fill="#fff" d="M360.416 251.776c-0.208-1.952-0.272-3.92-0.656-5.856-1.536-7.728 0.672-15.184 1.568-22.72 0.288-2.4 3.568-4.688 6.128-4.368 1.68 0.208 3.472 0.576 4.912 1.424 12.784 7.376 25.632 5.952 37.856-0.624 10.192-5.488 20.464-4.992 31.12-3.184 2.096 0.352 4.128 1.040 6.208 1.584 3.536 0.928 6.72 2.464 9.504 4.928 2.592 2.288 5.456 4.208 8.24 6.24 3.808 2.8 6.496 6.288 8.304 10.72 2.096 5.2 6.64 7.904 11.808 9.616 1.152 0.368 2.416 0.704 3.328 1.44 0.576 0.48 1.008 1.968 0.704 2.464-0.432 0.656-1.824 1.248-2.528 1.024-3.968-1.296-7.904-2.688-11.744-4.32-8.176-3.488-16.512-6.464-25.344-7.584-7.552-0.96-13.808 1.648-18.624 7.76-1.808 2.288-4.336 3.984-6.464 6.032-4.224 4.064-8.736 7.696-14.64 9.072-0.56 0.128-1.088 0.48-1.648 0.512-7.408 0.48-14.832 1.136-22.256 1.232-2.464 0.016-4.992-1.376-7.408-2.256-2-0.736-3.856-1.904-5.888-2.448-1.584-0.416-3.456-0.528-4.976-0.048-1.712 0.56-2.8 0.208-3.984-0.864-2.592-2.336-3.712-5.36-3.424-9.824zM410.256 253.936c-0.080-0.208-0.144-0.384-0.224-0.592-1.216 0-2.464-0.208-3.6 0.080-0.672 0.16-1.296 1.040-1.664 1.744-0.192 0.352 0.144 1.424 0.384 1.456 0.72 0.144 1.664 0.192 2.24-0.192 1.040-0.64 1.904-1.648 2.848-2.512z"></path>
<path fill="#fff" d="M433.408 77.344c-0.096 0.272-0.24 0.896-0.528 1.472-1.6 3.232-3.056 6.56-4.928 9.632-1.808 2.992-3.84 5.888-6.128 8.528-3.136 3.664-6.496 7.168-10 10.496-2.768 2.624-6.144 4.368-9.968 5.056-0.336 0.064-0.608 0.224-0.944 0.304-5.488 1.376-9.408 3.888-9.968 10.352-0.368 4.352-1.824 8.656-3.104 12.896-1.872 6.272-5.92 10.080-12.72 10.496-1.152 0.064-2.272 0.288-3.424 0.384-4.256 0.432-8.224 1.536-11.232 4.896-0.704 0.784-1.568 1.472-2.464 2.032-3.456 2.16-5.632 5.008-6.304 9.184-0.208 1.296-1.808 3.056-2.992 3.28s-2.944-0.992-4-2.016c-2.688-2.608-5.216-5.408-7.648-8.256-1.136-1.328-2.096-2.96-2.688-4.608-2.704-7.552-6.608-14.256-12.8-19.552-3.168-2.736-6.144-5.696-9.2-8.56-0.928-0.864-1.68-1.904 0-2.688 6.128-2.816 12.256-5.552 19.264-5.136 4.64 0.272 9.328 0.336 13.984 0.304 2.032 0 4.064-0.48 6.128-0.656 3.696-0.352 6.064-2.432 7.232-5.808 1.376-4.032 2.736-8.080 3.712-12.224 1.152-4.848 4.032-7.68 8.752-8.96 6.8-1.856 13.552-2.368 20.368 0.016 2.24 0.784 4.56 1.328 6.864 1.968 8.448 2.336 15.648-0.448 22.208-5.504 2.88-2.192 4.576-5.344 5.344-8.912 0.384-1.872 0.784-3.664 3.312-3.328 1.968 0.272 3.888 2.464 3.888 4.896zM356.864 145.76c-0.224-0.24-0.448-0.496-0.704-0.736-1.392-0.064-3.12-0.736-3.488 1.424-0.096 0.56 0.864 1.296 1.328 1.952 0.944-0.864 1.904-1.744 2.848-2.624zM376.592 138.288c0.144 0.144 0.288 0.288 0.416 0.432 0.864-0.384 1.856-0.656 2.544-1.248 0.48-0.384 0.704-1.232 0.784-1.888 0.048-0.288-0.672-0.944-0.896-0.896-0.64 0.16-1.392 0.496-1.744 1.008-0.528 0.752-0.736 1.744-1.088 2.608z"></path>
<path fill="#fff" d="M227.824 1.504c2.368-1.824 4.192-1.904 6.064-0.672 1.904 1.28 4.064 2.304 5.664 3.888 4.928 4.912 9.744 9.936 14.4 15.104 4.112 4.56 6.816 9.824 6.896 16.16 0 0.736 0.096 1.504 0.352 2.176 1.872 4.912 0.336 8.928-2.976 12.656-3.52 3.968-5.36 8.528-2.48 13.504 1.504 2.592 3.888 4.784 6.208 6.752 1.648 1.392 3.856 2.112 5.84 3.12 7.968 4.048 12.016 10.624 12.544 19.456 0.144 2.384 0.24 4.768 0.336 7.136 0.192 5.584-3.408 8.384-8.592 6.352-7.824-3.088-15.984-4.272-24.288-4.688-3.024-0.144-6.080 0.368-9.104 0.208-3.312-0.192-6.576-0.8-9.888-1.216-0.72-0.080-1.456-0.24-2.16-0.144-5.36 0.704-10.736 1.376-16.080 2.176-2.144 0.336-2.96-0.192-3.392-2.528-0.592-3.264 0.048-5.728 2.464-7.936 1.712-1.536 3.104-3.392 4.8-4.944 3.184-2.912 4.704-6.432 4.496-10.72-0.064-1.568-0.144-3.12-0.128-4.688 0.016-1.856-0.656-3.056-2.448-3.824-0.784-0.336-1.6-1.28-1.808-2.080-1.856-7.328-0.8-14.176 3.984-20.208 0.848-1.072 2-1.936 3.104-2.768 1.76-1.312 3.536-2.688 5.456-3.76 6.368-3.552 9.776-9.248 11.808-15.968 1.504-4.976 0.352-9.456-2.912-13.328-1.68-2-3.808-3.616-5.584-5.552-1.008-1.072-1.728-2.384-2.608-3.664zM216.928 98.768c1.44-1.104 2.528-1.968 3.616-2.816-0.656-0.576-1.536-1.76-1.904-1.616-1.296 0.496-2.432 1.456-3.616 2.24 0.528 0.592 1.024 1.168 1.904 2.192z"></path>
<path fill="#fff" d="M168.784 123.376c-0.88 0.768-1.44 1.216-1.952 1.68-3.184 2.816-6.8 5.28-9.472 8.496-4.576 5.552-8.592 11.568-12.832 17.376-0.24 0.336-0.48 0.672-0.784 0.944-5.584 5.456-7.472 12.368-7.808 19.888-0.064 1.44-0.272 2.88-0.416 4.272-2.336 0.336-3.792-0.512-4.864-2.16-1.888-2.88-3.792-5.728-5.632-8.64-1.36-2.16-2.56-4.4-3.84-6.592-2.112-3.664-5.424-5.52-9.472-4.896-12.24 1.952-23.472-8.032-26.352-21.52-0.608-2.88 0.656-6.128 0.944-9.184 0.432-4.32 0.864-8.608 1.040-12.944 0.048-0.96-0.752-2.192-1.536-2.944-5.328-5.136-10.624-10.336-18.24-12.112-1.072-0.24-1.936-1.328-3.104-2.176 0.816-0.88 1.312-1.904 2.032-2.112 4.544-1.184 9.104-2.432 13.728-3.184 2.464-0.416 5.072 0.24 7.6 0.144 4.784-0.192 9.28 0.848 13.632 2.736 2.48 1.072 4.912 2.304 7.472 3.184 3.696 1.296 5.744 3.888 6.752 7.52 1.040 3.776 2 7.616 3.28 11.312 1.152 3.312 1.712 3.344 5.136 2.976 8.080-0.896 16.128-1.872 24.224-2.464 1.856-0.144 3.904 0.864 5.648 1.792 1.728 0.896 3.088 2.48 4.768 3.488 2.48 1.472 5.136 2.704 7.728 4.048 0.56 0.304 1.152 0.56 2.256 1.072z"></path>
<path fill="#fff" d="M406.944 387.904c-1.648 0.592-4.8 1.792-8.016 2.96-4.992 1.808-9.888 4.064-15.024 5.216-2.528 0.56-5.728-0.528-8.272-1.664-6.272-2.736-10.496-7.392-11.808-14.384-1.184-6.352-6.224-10.32-12.8-10.032-3.776 0.16-7.536 0.512-11.296 0.88-5.984 0.592-10.864-2.112-14.304-6.352-2.912-3.6-4.496-8.368-2.944-13.344 0.816-2.592 2.672-4.192 5.12-5.328 2.416-1.136 4.704-2.56 7.072-3.888 0.576-0.336 1.104-0.784 1.712-0.944 6.464-1.824 10.72-6.96 15.84-10.736 2.080-1.52 4.048-2.544 6.56-2.96 1.184-0.208 2.624-1.072 3.232-2.080 1.184-2 2.8-2.512 4.544-1.568 2.48 1.36 5.12 2.816 6.928 4.896 2.464 2.8 4.48 6.096 6.176 9.424 0.784 1.52 0.704 3.696 0.48 5.504-0.992 7.648 2.384 13.728 7.824 18.16 2.752 2.24 7.408 2.096 11.152 3.184 4.544 1.312 9.072 2.672 13.52 4.272 1.648 0.592 3.2 1.792 4.4 3.088 6.896 7.408 12.016 15.728 12.688 26.192 0.016 0.416 0.144 0.896-0.048 1.216-0.656 1.072-1.424 2.048-2.144 3.056-0.816-0.896-2.192-1.712-2.384-2.704-0.512-2.96-0.864-5.872-3.616-7.744-3.76-2.624-8.048-4.112-14.56-4.336z"></path>
<path fill="#fff" d="M76.048 389.632c2.896 0.496 5.776 1.024 8.656 1.472 1.216 0.192 2.48 0.496 3.664 0.288 5.984-0.992 12.016-1.76 17.856-3.312 7.216-1.904 11.728-6.656 12.32-14.48 0.064-0.816 0.288-1.648 0.208-2.448-0.608-6.736 2.944-12 6.384-17.136 1.328-1.968 3.744-3.344 5.888-4.576 1.664-0.944 3.68-1.36 5.584-1.824 3.328-0.816 6.432-1.6 9.504-3.68 3.12-2.112 7.552-2.4 11.456-3.2 2.144-0.432 4.48-0.656 6.592-0.288 5.712 0.992 8.88 4.992 10.56 10.208 0.88 2.704 1.248 5.584 1.824 8.4 0.064 0.304 0.128 0.672 0.048 0.96-1.216 3.744-2.176 7.552-3.744 11.152-1.872 4.256-5.648 6.656-9.968 7.792-6.848 1.792-11.856 5.712-15.408 11.728-1.424 2.384-2.8 4.832-6.128 5.152-0.8 0.080-1.536 1.328-2.24 2.112-4.048 4.64-8.704 8.384-15.040 9.2-5.792 0.752-11.552 0.816-17.248-1.184-4.624-1.616-9.6-2.192-14.192-3.856-4.656-1.712-9.072-4.128-13.584-6.304-2.384-1.136-3.28-2.944-3.024-6.176z"></path>
<path fill="#fff" d="M246.896 408.016c3.12 0.192 6.24 0.192 9.328 0.656 1.472 0.224 3.104 1.040 4.192 2.080 3.696 3.552 5.552 8.304 7.12 13.024 0.496 1.456-0.144 3.552-0.864 5.072-1.072 2.272-2.672 4.32-4.048 6.448-2.848 4.432-2.384 8.416 1.36 12.176 1.504 1.52 3.104 2.976 4.336 4.688 4.544 6.272 3.568 13.008-2.512 17.744-4.512 3.536-9.072 7.024-13.696 10.432-8.096 5.984-6.72 15.072-2.288 20.864 1.824 2.384 3.376 5.008 4.832 7.616 0.448 0.8 0.24 2 0.336 2.992-1.088-0.016-2.336 0.336-3.2-0.096-2.016-1.008-3.968-2.256-5.744-3.664-3.552-2.752-6.928-5.712-10.448-8.464-4.352-3.376-6.896-7.888-8.272-13.072-0.784-2.896 0.672-5.376 2.192-7.824 3.776-6.096 5.616-12.736 4.608-19.952-0.624-4.416-3.2-7.808-6.288-10.88-3.568-3.6-7.088-7.264-10.56-10.992-1.968-2.096-1.36-7.744 1.072-9.28 1.504-0.944 3.232-1.6 4.896-2.256 4.576-1.744 7.872-4.784 9.216-9.536 2.512-8.816 4.8-8.544 12.016-7.936 0.816 0.064 1.648 0.096 2.464 0.144-0.016 0.064-0.016 0.016-0.016-0.016z"></path>
</svg>
