<!-- Generated by IcoMoon.io -->
<svg version="1.1" xmlns="http://www.w3.org/2000/svg" width="20" height="32" viewBox="0 0 20 32">
<title>fighters-priest</title>
<path fill="#fff" d="M5.962 30.936c0.254-1.069 0.54-2.112 0.742-3.176 0.088-0.483 0.010-0.996-0.010-1.494-0.005-0.197-0.010-0.41-0.088-0.581-0.15-0.317-0.353-0.612-0.55-0.903-0.104-0.156-0.244-0.291-0.379-0.42-0.405-0.394-0.877-0.394-1.38-0.223-0.503 0.176-1.064-0.041-1.24-0.503-0.062-0.161-0.047-0.353-0.047-0.534 0.010-0.706-0.135-1.375-0.415-2.018-0.052-0.125-0.114-0.254-0.202-0.358-0.519-0.602-0.763-1.302-0.794-2.096-0.010-0.348-0.078-0.695-0.099-1.048-0.005-0.114 0.021-0.244 0.067-0.348 0.13-0.27 0.275-0.534 0.425-0.794 0.041-0.073 0.13-0.125 0.239-0.223 0-0.259-0.010-0.576 0-0.898 0.016-0.368 0.062-0.737 0.062-1.105 0-0.244-0.052-0.493-0.083-0.747 0.114 0.088 0.233 0.182 0.363 0.27 0.176 0.125 0.358 0.202 0.597 0.166 0.176-0.031 0.368 0.031 0.55 0.078 0.908 0.218 1.837 0.15 2.755 0.166 0.317 0.005 0.633 0.067 0.95 0.078 0.15 0.005 0.306-0.052 0.462-0.062 0.13-0.010 0.265 0.005 0.394 0.010 0 0.026 0 0.057 0 0.083-0.057 0.021-0.114 0.041-0.213 0.073 0.047 0.026 0.073 0.057 0.104 0.062 0.275 0.052 0.55 0.119 0.83 0.145 0.213 0.021 0.431-0.010 0.643-0.036 0.379-0.047 0.763-0.104 1.142-0.15 0.135-0.016 0.275-0.026 0.41-0.036 0.555-0.041 1.11-0.093 1.666-0.125 0.311-0.021 0.633-0.041 0.944-0.005 0.654 0.078 1.292 0.041 1.935-0.109 1.079-0.249 2.19-0.389 3.212-0.841 0.182 0.171 0.249 0.685 0.145 0.965-0.041 0.109-0.057 0.228-0.083 0.342-0.057 0.244-0.145 0.488-0.156 0.737-0.021 0.612 0.026 1.266 0.425 1.733 0.581 0.69 0.405 1.334 0.088 2.018-0.41 0.898-0.846 1.79-1.23 2.703-0.171 0.41-0.239 0.867-0.363 1.297-0.067 0.228-0.15 0.451-0.239 0.675-0.067 0.171-0.202 0.166-0.363 0.125-0.291-0.073-0.586-0.161-0.877-0.156-0.514 0.010-0.944 0.27-1.235 0.68-0.13 0.176-0.109 0.457-0.192 0.675-0.192 0.524-0.104 1.059-0.073 1.588 0.067 1.219 0.431 2.377 0.815 3.523 0.041 0.13 0.052 0.218-0.067 0.311-0.457 0.353-0.898 0.716-1.354 1.059-0.119 0.088-0.291 0.104-0.425 0.176-0.623 0.348-1.297 0.28-1.967 0.28-0.675 0-1.349 0.036-2.018-0.010-0.519-0.036-1.043-0.13-1.541-0.27-0.752-0.213-1.484-0.488-2.226-0.742-0.036 0.016-0.062-0.010-0.057-0.005zM16.117 18.96c-0.016 0-0.036-0.005-0.052-0.005 0-0.182 0.005-0.363 0-0.545-0.016-0.586-0.436-0.944-1.012-0.846-0.322 0.057-0.638 0.135-0.95 0.228-0.555 0.171-1.084 0.405-1.463 0.877-0.27 0.332-0.228 0.721-0.171 1.11 0.010 0.057 0.073 0.119 0.125 0.156 0.145 0.104 0.301 0.202 0.457 0.291 0.571 0.327 1.214 0.311 1.837 0.342 0.28 0.016 0.581-0.13 0.846-0.254 0.202-0.093 0.28-0.291 0.27-0.545-0.010-0.27 0.073-0.54 0.114-0.809zM6.32 20.621c0 0 0 0 0 0 0.042-0.005 0.088-0.010 0.13-0.005 0.649 0.093 1.193-0.202 1.754-0.441 0.073-0.031 0.161-0.093 0.192-0.161 0.192-0.394 0.244-1.24-0.348-1.541-0.374-0.192-0.747-0.394-1.136-0.55-0.254-0.104-0.54-0.161-0.815-0.182-0.208-0.016-0.425 0.067-0.638 0.073-0.182 0.005-0.27 0.099-0.368 0.239-0.348 0.503-0.368 1.064-0.239 1.614 0.15 0.628 0.472 1.048 1.157 0.96 0.104-0.016 0.208-0.005 0.311-0.005zM10.559 24.253c0.073 0.093 0.104 0.176 0.166 0.218 0.576 0.374 0.97 0.353 1.173-0.197 0.078-0.218 0.047-0.503-0.010-0.737-0.114-0.493-0.285-0.97-0.415-1.458-0.125-0.483-0.508-0.643-0.918-0.763-0.192-0.057-0.887 0.322-1.001 0.503-0.472 0.784-0.649 1.64-0.602 2.548 0.010 0.265 0.125 0.368 0.394 0.368 0.441 0.005 0.861-0.052 1.214-0.483z"></path>
<path fill="#fff" d="M0.996 9.179c0.296 0 0.586-0.005 0.882 0.005 0.062 0 0.125 0.041 0.187 0.062 0.182 0.062 0.358 0.125 0.54 0.192 0.062 0.021 0.119 0.052 0.182 0.078 0.145 0.062 0.296 0.114 0.441 0.182 0.067 0.036 0.125 0.099 0.239 0.13-0.14-0.228-0.244-0.493-0.42-0.685-0.441-0.477-0.872-0.944-1.084-1.567-0.057-0.176-0.088-0.363-0.099-0.55-0.047-0.872-0.249-1.686-0.872-2.335-0.296-0.311-0.628-0.586-0.929-0.924 0.342 0.166 0.706 0.306 1.027 0.498 0.529 0.322 1.079 0.633 1.422 1.178 0.249 0.4 0.493 0.809 0.7 1.23 0.233 0.477 0.56 0.867 1.012 1.147 0.104 0.062 0.239 0.088 0.363 0.099 0.036 0.005 0.125-0.099 0.119-0.145-0.031-0.441-0.057-0.887-0.125-1.328-0.042-0.259-0.161-0.503-0.239-0.732 0.348 0.073 0.571 0.379 0.758 0.726 0.010 0.021 0.021 0.047 0.026 0.073 0.062 0.187 0.145 0.363 0.368 0.358 0.14-0.005 0.317-0.415 0.275-0.586-0.093-0.415-0.301-0.69-0.721-0.877-0.815-0.368-1.593-0.815-2.382-1.235-0.97-0.508-1.759-1.219-2.345-2.138-0.415-0.643-0.394-1.328-0.13-2.034 0.021 0.078 0.052 0.15 0.057 0.228 0.114 0.882 0.586 1.484 1.385 1.852 1.24 0.566 2.47 1.147 3.705 1.718 0.441 0.208 0.887 0.42 1.406 0.384 0.099-0.457-0.202-0.726-0.477-0.96-0.187-0.161-0.472-0.208-0.711-0.311-0.332-0.14-0.617-0.322-0.799-0.654-0.109-0.202-0.389-0.291-0.415-0.566-0.026-0.249-0.052-0.498-0.073-0.742 0.021-0.005 0.047-0.010 0.067-0.010 0.067 0.119 0.119 0.254 0.208 0.358s0.223 0.166 0.317 0.259c0.234 0.239 0.524 0.306 0.841 0.332 0.208 0.016 0.436 0.026 0.623 0.114 0.498 0.228 1.069 0.311 1.427 0.815 0.13 0.187 0.41 0.259 0.581 0.42 0.394 0.384 0.773 0.789 1.147 1.193 0.166 0.176 0.348 0.27 0.592 0.244 0.301-0.026 0.405-0.161 0.27-0.451-0.114-0.249-0.249-0.493-0.415-0.711-0.27-0.358-0.592-0.675-1.017-0.867 0.441 0.052 0.898 0.062 1.323 0.171 0.41 0.109 0.752 0.389 1.007 0.737 0.508 0.706 0.981 1.437 1.494 2.133 0.145 0.197 0.374 0.368 0.602 0.451 0.4 0.15 0.763-0.202 0.638-0.623-0.119-0.394-0.317-0.768-0.467-1.126 0.695 0.296 1.084 0.903 1.365 1.619 0.301 0.763-0.099 1.448-0.239 2.159 0.28 0.062 0.706-0.125 0.877-0.296 0.4-0.394 0.425-0.893 0.436-1.401 0-0.104 0.041-0.208 0.062-0.306 0.026 0 0.057-0.005 0.083-0.005 0.047 0.125 0.093 0.249 0.145 0.368 0.322 0.685 0.291 1.417 0.239 2.133-0.021 0.265-0.239 0.519-0.368 0.778-0.047 0.088-0.093 0.182-0.161 0.311 0.322 0 0.571-0.114 0.778-0.265 0.322-0.233 0.503-0.571 0.54-0.981 0.010-0.114 0.109-0.218 0.182-0.358 0.379 0.56 0.337 1.1 0.28 1.655-0.057 0.597-0.519 0.918-0.773 1.334 0.109 0.187 0.202 0.379 0.327 0.545 0.062 0.083 0.176 0.119 0.285 0.192-0.109 0.031-0.192 0.073-0.28 0.073-0.171 0.005-0.353 0.016-0.514-0.026-0.197-0.047-0.379-0.145-0.566-0.228-0.067-0.031-0.15-0.073-0.182-0.135-0.114-0.208-0.296-0.254-0.503-0.306-0.249-0.062-0.488-0.187-0.763-0.296 0.171-0.119 0.28-0.192 0.353-0.244-0.218-0.114-0.436-0.202-0.628-0.337-0.275-0.192-0.021-0.436-0.005-0.685-0.446 0.109-0.633-0.265-0.913-0.451-0.431-0.285-0.872-0.503-1.396-0.529-0.104-0.005-0.213-0.062-0.311-0.109-0.503-0.228-0.638-0.254-1.266-0.208 0.145 0.057 0.239 0.093 0.332 0.13-0.005 0.016-0.005 0.031-0.010 0.047-0.161-0.026-0.322-0.052-0.483-0.073-0.223-0.031-0.457-0.099-0.675-0.078-0.768 0.057-1.494 0.296-2.101 0.758-0.27 0.202-0.514 0.197-0.794 0.233-0.14 0.016-0.296 0.047-0.41 0.119-0.415 0.254-0.82 0.529-1.219 0.809-0.161 0.114-0.223 0.265-0.228 0.493-0.005 0.213-0.176 0.431-0.296 0.638-0.104 0.182-0.239 0.353-0.358 0.524-0.218 0.306-0.405 0.643-0.809 0.747-0.047 0.010-0.078 0.073-0.125 0.088-0.171 0.057-0.363 0.176-0.519 0.14-0.233-0.052-0.332-0.285-0.322-0.529 0.016-0.358-0.156-0.649-0.348-0.924-0.166-0.239-0.379-0.451-0.592-0.695 0.259-0.114 0.498-0.099 0.695 0.005 0.202 0.104 0.368 0.28 0.581 0.4-0.192-0.363-0.368-0.737-0.571-1.095-0.202-0.348-0.457-0.643-0.867-0.758-0.161-0.047-0.317-0.104-0.472-0.161-0.010 0-0.005-0.016-0.005-0.031z"></path>
<path fill="#fff" d="M5.22 11.976c0.374-0.083 0.747-0.166 1.126-0.249 0.467-0.099 0.913-0.119 1.349 0.176 0.176 0.119 0.436 0.114 0.659 0.166 0.010-0.026 0.016-0.052 0.026-0.083-0.099-0.078-0.218-0.14-0.28-0.239-0.047-0.073-0.067-0.249-0.031-0.275 0.145-0.104 0.322-0.166 0.488-0.239 0.208-0.093 0.483-0.016 0.628-0.259 0.010-0.021 0.036-0.041 0.057-0.047 0.56-0.109 1.136-0.27 1.697-0.119 0.291 0.078 0.524 0.363 0.799 0.56-0.156 0.239-0.28 0.436-0.41 0.633 0.010 0.016 0.016 0.031 0.026 0.047 0.093-0.052 0.187-0.099 0.275-0.156 0.192-0.125 0.368-0.275 0.576-0.379 0.68-0.342 1.401-0.285 2.127-0.208 0.249 0.026 0.508 0.016 0.747 0.078 0.233 0.062 0.446 0.192 0.664 0.296 0.036 0.016 0.073 0.067 0.109 0.067 0.4-0.010 0.685 0.265 1.017 0.405 0.337 0.145 0.592 0.4 0.773 0.768-0.187 0.073-0.348 0.15-0.519 0.197-0.457 0.119-0.913 0.223-1.375 0.327-0.109 0.026-0.223 0.005-0.332 0.021-0.275 0.047-0.555 0.104-0.83 0.156-0.327 0.057-0.638 0.208-0.981-0.010-0.156-0.099-0.4-0.057-0.597-0.104-0.119-0.031-0.239-0.093-0.348-0.156-0.166-0.093-0.317-0.228-0.493-0.296-0.291-0.109-0.602-0.182-0.903-0.27-0.031-0.010-0.067-0.036-0.073-0.062-0.062-0.223-0.239-0.187-0.4-0.192-0.223-0.010-0.457-0.052-0.519 0.265-0.005 0.021-0.062 0.036-0.125 0.026 0.062-0.078 0.119-0.156 0.244-0.311-0.477-0.036-0.882-0.067-1.287-0.099 0 0.016 0 0.031-0.005 0.047 0.306 0.156 0.617 0.311 0.96 0.488-0.119 0.14-0.213 0.244-0.322 0.368 0.918-0.285 1.718 0.078 2.537 0.353-0.778 0.109-1.443 0.638-2.273 0.545-0.254-0.026-0.519 0.083-0.784 0.13-0.073 0.016-0.15 0.021-0.291 0.041 0.296-0.233 0.114-0.42 0.005-0.576-0.052-0.073-0.233-0.073-0.358-0.067-0.643 0.021-1.292 0.083-1.935 0.062-0.566-0.016-1.136-0.078-1.686-0.187-0.353-0.073-0.685-0.265-1.012-0.431-0.057-0.031-0.099-0.218-0.062-0.28 0.161-0.296 0.389-0.54 0.711-0.669 0.218-0.088 0.436-0.171 0.654-0.259h-0.026z"></path>
<path fill="#fff" d="M14.29 10.975c-0.498 0.041-1.059 0.047-1.598 0.145-0.472 0.088-0.835-0.104-1.225-0.28-0.078-0.036-0.161-0.114-0.192-0.197-0.099-0.254-0.202-0.514-0.254-0.778-0.057-0.275 0.088-0.425 0.374-0.477 0.15-0.026 0.311-0.052 0.446-0.114 0.368-0.166 0.742-0.119 1.11-0.041 0.125 0.026 0.249 0.099 0.353 0.182 0.223 0.187 0.436 0.389 0.649 0.592 0.145 0.14 0.337 0.259 0.166 0.534-0.041 0.073 0.104 0.265 0.171 0.436z"></path>
<path fill="#fff" d="M11.364 9.018c-0.119 0.109-0.223 0.192-0.311 0.291-0.182 0.197-0.4 0.374-0.457 0.664-0.016 0.078-0.078 0.171-0.145 0.202-0.327 0.145-0.654 0.291-0.996 0.394-0.109 0.031-0.27-0.052-0.384-0.119-0.244-0.14-0.477-0.296-0.706-0.457-0.239-0.171-0.213-0.441-0.062-0.669 0.285-0.42 0.742-0.389 1.136-0.519 0.114-0.036 0.249-0.016 0.353-0.057 0.576-0.228 1.053 0.057 1.572 0.27z"></path>
<path fill="#fff" d="M5.417 10.985c0.073-0.436 0.415-0.576 0.711-0.763 0.187-0.119 0.379-0.233 0.571-0.353 0.27-0.166 1.007-0.125 1.287 0.078 0.026 0.021 0.052 0.041 0.083 0.062 0.394 0.291 0.394 0.405-0.005 0.711-0.363 0.28-0.789 0.348-1.225 0.415-0.176 0.026-0.358 0.047-0.534 0.083-0.342 0.073-0.638 0-0.887-0.233z"></path>
<path fill="#fff" d="M5.225 11.971c-0.099-0.036-0.197-0.078-0.296-0.114 0.057-0.093 0.109-0.197 0.171-0.285 0.228-0.317 0.493-0.327 0.809-0.109 0.078 0.052 0.223 0.010 0.337 0.010 0.010 0.026 0.026 0.047 0.036 0.073-0.13 0.073-0.254 0.156-0.389 0.208-0.223 0.083-0.451 0.15-0.675 0.223 0 0 0.005-0.005 0.005-0.005z"></path>
<path fill="#fff" d="M7.462 9.496c0.109-0.057 0.223-0.114 0.389-0.197 0 0.109 0.016 0.223-0.005 0.228-0.109 0.041-0.228 0.052-0.348 0.078-0.010-0.036-0.026-0.073-0.036-0.109z"></path>
</svg>
