<!-- Generated by IcoMoon.io -->
<svg version="1.1" xmlns="http://www.w3.org/2000/svg" width="32" height="32" viewBox="0 0 32 32">
<title>fighters-brute</title>
<path fill="#fff" d="M0 15.655c0.079-0.060 0.15-0.159 0.236-0.176 0.273-0.053 0.508-0.17 0.747-0.312 0.436-0.26 0.898-0.475 1.344-0.718 0.179-0.097 0.364-0.196 0.515-0.329 0.376-0.333 0.808-0.582 1.223-0.857 0.296-0.197 0.588-0.405 0.864-0.629 0.186-0.151 0.346-0.335 0.512-0.509 0.155-0.163 0.242-0.169 0.386-0.001 0.075 0.086 0.137 0.185 0.214 0.272 0.13 0.15 0.275 0.15 0.369-0.023 0.193-0.357 0.296-0.74 0.242-1.15-0.023-0.177-0.14-0.272-0.318-0.259-0.146 0.010-0.292 0.036-0.433 0.072-0.243 0.060-0.409-0.007-0.512-0.239-0.256-0.575-0.465-1.163-0.531-1.794-0.039-0.381-0.051-0.764-0.084-1.144-0.047-0.536-0.277-1.018-0.469-1.51-0.043-0.107-0.079-0.219-0.136-0.318-0.1-0.176-0.081-0.346-0.020-0.527 0.030-0.087 0.073-0.125 0.157-0.116 0.067 0.008 0.142 0.013 0.196 0.049 0.289 0.192 0.614 0.253 0.95 0.298 0.197 0.026 0.393 0.072 0.581 0.137 0.408 0.146 0.827 0.22 1.259 0.257 0.418 0.037 0.83 0.123 1.244 0.185 0.062 0.009 0.126 0.013 0.187 0.004 0.595-0.089 1.17 0.009 1.738 0.172 0.344 0.098 0.432 0.353 0.236 0.651-0.069 0.105-0.159 0.196-0.233 0.296-0.167 0.229-0.094 0.439 0.173 0.526 0.387 0.126 0.405 0.159 0.173 0.496-0.259 0.375-0.525 0.747-0.802 1.109-0.206 0.27-0.383 0.549-0.478 0.877-0.117 0.411-0.238 0.821-0.356 1.232-0.007 0.025-0.009 0.052-0.009 0.077 0.022 0.942-0.019 1.89 0.214 2.817 0.042 0.166 0.042 0.343 0.046 0.514 0.005 0.246 0.001 0.493-0.012 0.74-0.007 0.112-0.033 0.23-0.081 0.329-0.026 0.053-0.117 0.096-0.182 0.103-0.092 0.009-0.123 0.044-0.149 0.127-0.049 0.159-0.105 0.316-0.17 0.468-0.226 0.518-0.458 1.034-0.684 1.551-0.017 0.039-0.019 0.093-0.009 0.136 0.055 0.266 0.119 0.531 0.174 0.798 0.037 0.172 0.123 0.311 0.265 0.413 0.156 0.112 0.242 0.266 0.3 0.449 0.1 0.319 0.185 0.649 0.335 0.946 0.112 0.223 0.309 0.405 0.479 0.593 0.034 0.038 0.125 0.024 0.19 0.034 0.109 0.019 0.22 0.038 0.329 0.059 0.081 0.016 0.162 0.050 0.242 0.050 0.15 0.001 0.248 0.066 0.303 0.203 0.025 0.063 0.056 0.125 0.089 0.183 0.092 0.159 0.071 0.214-0.109 0.27-0.262 0.083-0.282 0.104-0.268 0.378 0.007 0.146 0.019 0.293 0.053 0.433s0.104 0.272 0.162 0.418c-0.067 0.023-0.134 0.029-0.182 0.064-0.043 0.031-0.083 0.093-0.086 0.143-0.001 0.030 0.068 0.083 0.112 0.092 0.173 0.038 0.28 0.126 0.305 0.273 0.023 0.133-0.051 0.289-0.214 0.348-0.469 0.168-0.94 0.324-1.416 0.469-0.3 0.093-0.606 0.166-0.914 0.235-0.167 0.038-0.34 0.050-0.511 0.071-0.125 0.016-0.25 0.023-0.375 0.046-0.309 0.053-0.614 0.135-0.924 0.166-0.495 0.050-0.992 0.076-1.489 0.097-0.259 0.010-0.386-0.162-0.342-0.419 0.004-0.021 0.007-0.042 0.014-0.062 0.175-0.476 0.349-0.953 0.525-1.428 0.327-0.881 0.605-1.774 0.705-2.716 0.023-0.21 0.104-0.415 0.149-0.623 0.029-0.133 0.073-0.273 0.054-0.4-0.036-0.229 0.073-0.339 0.33-0.379 0.093-0.014 0.189-0.012 0.28-0.027 0.183-0.033 0.293-0.147 0.339-0.327 0.107-0.398 0.105-0.775-0.17-1.116-0.088-0.109-0.148-0.242-0.227-0.358-0.088-0.13-0.157-0.137-0.24-0.013-0.139 0.209-0.273 0.422-0.389 0.644-0.062 0.116-0.125 0.149-0.234 0.084-0.375-0.219-0.773-0.386-1.133-0.641-0.619-0.438-1.272-0.834-1.927-1.216-0.688-0.402-1.427-0.68-2.225-0.78-0.214-0.026-0.382-0.136-0.502-0.315 0-0.010 0-0.020 0-0.030zM8.638 8.842c0.037-0.307-0.056-0.584-0.199-0.845-0.101-0.186-0.31-0.248-0.511-0.196-0.073 0.020-0.17 0.004-0.239-0.029-0.198-0.093-0.248-0.083-0.363 0.11-0.029 0.049-0.060 0.102-0.105 0.136-0.176 0.134-0.257 0.329-0.33 0.524-0.2 0.532-0.116 0.86 0.316 1.229 0.257 0.219 0.552 0.329 0.887 0.252 0.14-0.033 0.27-0.114 0.405-0.172 0.24-0.104 0.294-0.216 0.238-0.472-0.040-0.177-0.067-0.357-0.1-0.536zM7.354 14.627c-0.005 0-0.010-0.001-0.014-0.001 0-0.031 0-0.063 0-0.094-0.003-0.214-0.293-0.607-0.498-0.671-0.033-0.010-0.073-0.009-0.107-0.001-0.43 0.092-0.836 0.242-1.173 0.536-0.059 0.053-0.121 0.129-0.134 0.203-0.036 0.227-0.066 0.456-0.070 0.686-0.003 0.281 0.167 0.484 0.443 0.526 0.248 0.037 0.5 0.060 0.751 0.059 0.376-0.003 0.659-0.249 0.725-0.618 0.037-0.209 0.051-0.419 0.076-0.626zM7.906 23.47c0.313 0.001 0.525-0.087 0.559-0.299 0.051-0.323 0.071-0.654 0.062-0.98-0.007-0.218-0.123-0.259-0.341-0.197-0.101 0.029-0.212 0.031-0.316 0.046-0.13 0.019-0.277 0.003-0.387 0.062-0.294 0.152-0.416 0.468-0.33 0.771 0.113 0.405 0.356 0.596 0.755 0.597zM5.804 25.211c-0.097-0.063-0.157-0.132-0.205-0.125-0.050 0.007-0.121 0.089-0.123 0.139 0 0.043 0.084 0.116 0.137 0.12 0.047 0.004 0.1-0.067 0.19-0.134zM4.071 15.149c-0.043-0.105-0.077-0.186-0.112-0.268-0.037 0.038-0.096 0.071-0.106 0.116-0.027 0.114 0.044 0.156 0.218 0.152z"></path>
<path fill="#fff" d="M16.698 0.95c0.325 0.216 0.559 0.514 0.786 0.825 0.744 1.016 1.497 2.024 2.244 3.037 0.148 0.202 0.289 0.409 0.441 0.628-0.081 0.017-0.14 0.031-0.201 0.042-0.199 0.037-0.373 0.107-0.524 0.259-0.11 0.109-0.263 0.194-0.413 0.24-0.287 0.088-0.468 0.265-0.569 0.539-0.024 0.069-0.042 0.15-0.090 0.197-0.164 0.163-0.164 0.355-0.154 0.567 0.037 0.686 0.051 1.373 0.089 2.058 0.019 0.345 0.070 0.688 0.103 1.031 0.020 0.209 0.049 0.419 0.046 0.627-0.011 0.764 0.125 1.514 0.21 2.269 0.012 0.107 0.059 0.213 0.063 0.319 0.003 0.070-0.025 0.155-0.070 0.207-0.068 0.077-0.159 0.137-0.247 0.194-0.55 0.35-1.012 0.795-1.42 1.302-0.183 0.229-0.382 0.446-0.582 0.661-0.037 0.041-0.129 0.083-0.163 0.064-0.074-0.041-0.17-0.114-0.18-0.185-0.014-0.107-0.069-0.144-0.139-0.204-0.119-0.098-0.222-0.216-0.323-0.333-0.086-0.101-0.147-0.23-0.246-0.316-0.295-0.259-0.606-0.5-0.904-0.755-0.114-0.099-0.226-0.206-0.315-0.326-0.157-0.212-0.366-0.337-0.602-0.436-0.066-0.027-0.113-0.097-0.168-0.147 0.046-0.044 0.086-0.106 0.14-0.131 0.194-0.087 0.25-0.259 0.281-0.443 0.12-0.708 0.233-1.414 0.249-2.137 0.023-1.027 0.089-2.053 0.125-3.080 0.012-0.355-0.013-0.712-0.021-1.070-0.004-0.196-0.050-0.256-0.24-0.282-0.192-0.027-0.386-0.043-0.579-0.062-0.027-0.003-0.062-0.011-0.077 0.003-0.166 0.139-0.279 0.017-0.415-0.066-0.093-0.057-0.216-0.069-0.327-0.093-0.070-0.016-0.142-0.020-0.229-0.069 0.046-0.042 0.090-0.086 0.139-0.125 0.172-0.136 0.363-0.253 0.515-0.409 0.566-0.586 1.218-1.093 1.648-1.808 0.19-0.319 0.426-0.61 0.638-0.916 0.296-0.428 0.622-0.83 1.001-1.189 0.16-0.15 0.298-0.323 0.446-0.485 0.013-0.003 0.024-0.003 0.034-0.003zM16.984 12.521c-0.064-0.197-0.114-0.388-0.192-0.568-0.034-0.080-0.113-0.153-0.19-0.2-0.139-0.081-0.29-0.146-0.44-0.206-0.242-0.097-0.548 0.013-0.691 0.229-0.289 0.436-0.325 0.878-0.020 1.315 0.075 0.107 0.199 0.226 0.318 0.25 0.276 0.057 0.562 0.053 0.831-0.062 0.059-0.025 0.137-0.064 0.157-0.116 0.084-0.206 0.15-0.42 0.226-0.643zM16.511 6.081c0.209-0.011 0.378-0.105 0.492-0.272 0.164-0.236 0.309-0.486 0.461-0.731 0.049-0.077 0.046-0.149-0.034-0.205-0.2-0.14-0.399-0.283-0.602-0.42-0.1-0.067-0.218-0.11-0.306-0.187-0.102-0.091-0.212-0.134-0.329-0.073-0.12 0.063-0.049 0.174-0.030 0.266 0.049 0.235 0.014 0.295-0.213 0.374-0.181 0.063-0.247 0.15-0.226 0.341 0.027 0.244 0.107 0.471 0.279 0.655 0.136 0.147 0.3 0.242 0.508 0.25zM19.329 5.061c0.025-0.017 0.050-0.033 0.073-0.050-0.059-0.086-0.117-0.169-0.176-0.255-0.022 0.014-0.044 0.030-0.066 0.044 0.055 0.086 0.112 0.173 0.168 0.26z"></path>
<path fill="#fff" d="M18.234 25.667c0.202-0.318 0.302-0.649 0.255-1.013-0.012-0.091-0.073-0.176-0.11-0.262-0.087 0.056-0.205 0.096-0.256 0.176-0.063 0.1-0.086 0.232-0.099 0.355-0.012 0.116-0.047 0.199-0.151 0.256s-0.162-0.011-0.237-0.060c-0.188-0.125-0.382-0.239-0.575-0.357-0.172-0.105-0.345-0.097-0.524-0.009-0.293 0.142-0.356 0.106-0.379-0.215-0.009-0.13 0.004-0.262-0.012-0.393-0.006-0.059-0.057-0.114-0.087-0.17-0.051 0.038-0.105 0.070-0.15 0.113-0.081 0.073-0.162 0.149-0.235 0.23-0.031 0.036-0.056 0.086-0.062 0.132-0.008 0.057 0.009 0.114 0.009 0.172 0.001 0.261-0.096 0.399-0.346 0.48-0.109 0.036-0.223 0.057-0.335 0.087-0.227 0.063-0.456 0.122-0.68 0.193-0.3 0.096-0.489-0.004-0.57-0.309-0.025-0.096-0.041-0.197-0.080-0.286-0.021-0.050-0.083-0.083-0.125-0.123-0.034 0.047-0.088 0.089-0.099 0.14-0.049 0.246-0.045 0.484 0.053 0.724 0.064 0.157 0.088 0.335 0.106 0.505 0.017 0.165-0.105 0.293-0.257 0.326-0.256 0.053-0.509 0.117-0.762 0.177-0.062 0.014-0.12 0.039-0.182 0.047-0.214 0.027-0.332-0.070-0.313-0.281 0.044-0.519-0.093-1.020-0.136-1.529-0.030-0.368 0.004-0.741 0.012-1.111 0.007-0.325 0.017-0.648 0.021-0.973 0.001-0.094-0.012-0.189-0.014-0.283-0.027-0.891-0.981-1.297-1.596-1.177-0.049 0.009-0.107 0.030-0.137 0.066-0.086 0.097-0.174 0.133-0.29 0.062-0.12-0.073-0.164-0.18-0.151-0.322 0.009-0.090 0.007-0.186-0.013-0.273-0.010-0.049-0.070-0.084-0.106-0.127-0.076-0.094-0.177-0.178-0.222-0.286-0.101-0.241-0.163-0.498-0.264-0.74-0.066-0.156-0.16-0.303-0.26-0.442-0.067-0.094-0.087-0.175-0.025-0.273 0.005-0.009 0.009-0.019 0.016-0.027 0.669-0.923 0.86-2.027 1.124-3.094 0.136-0.545 0.102-1.117-0.024-1.684-0.12-0.534-0.248-1.072-0.197-1.631 0.125-1.352 0.662-2.532 1.497-3.586 0.097-0.122 0.216-0.23 0.335-0.332 0.407-0.355 0.819-0.705 1.229-1.056 0.055-0.047 0.107-0.106 0.173-0.136s0.16-0.057 0.216-0.030c0.053 0.026 0.102 0.12 0.105 0.186 0.012 0.225 0.013 0.452 0.001 0.677-0.053 1.010-0.113 2.021-0.164 3.032-0.023 0.481-0.036 0.964-0.046 1.447-0.003 0.133-0.037 0.237-0.122 0.343-0.188 0.229-0.25 0.496-0.151 0.782 0.023 0.063 0.093 0.113 0.151 0.157 0.077 0.060 0.174 0.097 0.244 0.162 0.68 0.641 1.356 1.286 2.032 1.93 0.123 0.116 0.239 0.236 0.36 0.353 0.060 0.059 0.114 0.13 0.186 0.169 0.19 0.106 0.37 0.215 0.365 0.43 0.137 0.013 0.248 0.031 0.359 0.030 0.043 0 0.096-0.034 0.126-0.068 0.147-0.163 0.287-0.331 0.432-0.498 0.175 0.156 0.181 0.155 0.329-0.023 0.342-0.412 0.685-0.823 1.021-1.239 0.055-0.069 0.073-0.167 0.11-0.249s0.062-0.184 0.123-0.243c0.243-0.232 0.496-0.452 0.749-0.673 0.187-0.162 0.199-0.248 0.060-0.455-0.049-0.073-0.083-0.157-0.109-0.24-0.239-0.762-0.336-1.545-0.343-2.34-0.006-0.446-0.041-0.891-0.053-1.337-0.007-0.205-0.006-0.409 0.012-0.613 0.043-0.543-0.016-1.079-0.089-1.615-0.036-0.257-0.036-0.257 0.194-0.369 0.043-0.021 0.086-0.041 0.137-0.066 0.073 0.14 0.153 0.15 0.279 0.043 0.15-0.13 0.264-0.084 0.407 0.053 0.172 0.166 0.362 0.319 0.566 0.441 0.315 0.187 0.556 0.438 0.767 0.732 0.446 0.623 0.775 1.309 1.034 2.024 0.172 0.475 0.197 0.984 0.129 1.491-0.011 0.076 0.003 0.156 0.003 0.235-0.001 0.13-0.001 0.261-0.007 0.391-0.007 0.134-0.031 0.268-0.033 0.402-0.003 0.661-0.004 1.322 0.003 1.983 0.001 0.094 0.049 0.187 0.067 0.282 0.020 0.101 0.059 0.207 0.042 0.303-0.049 0.27-0.033 0.536 0.047 0.794 0.159 0.511 0.305 1.023 0.585 1.488 0.15 0.247 0.199 0.529 0.197 0.816-0.001 0.283 0.007 0.562 0.12 0.834 0.037 0.087-0.014 0.237-0.068 0.336-0.137 0.252-0.316 0.484-0.449 0.738-0.137 0.263-0.262 0.538-0.356 0.818-0.050 0.15-0.039 0.328-0.030 0.492 0.009 0.155 0.12 0.194 0.22 0.073 0.181-0.215 0.368-0.436 0.498-0.681 0.15-0.281 0.279-0.561 0.566-0.734 0.053-0.031 0.080-0.13 0.092-0.2 0.107-0.667 0.023-1.328-0.073-1.988-0.017-0.119-0.023-0.241-0.053-0.358-0.031-0.125-0.079-0.247-0.13-0.365-0.091-0.205-0.201-0.403-0.284-0.612-0.122-0.311-0.23-0.628-0.339-0.946-0.029-0.087-0.046-0.184-0.038-0.275 0.043-0.506 0.116-1.011 0.143-1.518 0.074-1.398 0.156-2.798-0.196-4.177-0.125-0.489-0.376-0.918-0.648-1.336-0.155-0.236-0.307-0.478-0.485-0.697-0.147-0.181-0.328-0.335-0.499-0.498-0.053-0.050-0.137-0.077-0.17-0.136-0.039-0.075-0.066-0.177-0.046-0.256 0.009-0.037 0.143-0.071 0.212-0.059 0.344 0.059 0.589-0.133 0.588-0.489 0-0.081-0.050-0.184-0.11-0.239-0.131-0.12-0.287-0.21-0.429-0.319-0.125-0.096-0.116-0.144 0.023-0.222 0.073-0.041 0.142-0.089 0.216-0.13 0.041-0.022 0.086-0.047 0.13-0.051 0.507-0.053 1.014-0.096 1.519-0.153 0.207-0.023 0.416-0.059 0.616-0.12 0.949-0.285 1.895-0.58 2.842-0.867 0.3-0.090 0.429 0.037 0.336 0.339-0.053 0.172-0.139 0.333-0.21 0.499-0.026 0.063-0.056 0.123-0.080 0.188-0.265 0.694-0.53 1.388-0.794 2.082-0.266 0.695-0.535 1.391-0.586 2.144-0.007 0.104 0.012 0.209 0.017 0.312 0.006 0.112-0.040 0.156-0.153 0.12-0.164-0.053-0.234-0.173-0.276-0.332-0.033-0.122-0.079-0.252-0.155-0.35-0.101-0.13-0.292-0.152-0.415-0.079-0.146 0.086-0.163 0.223-0.12 0.371 0.073 0.25 0.173 0.496 0.224 0.751 0.067 0.333 0.104 0.673 0.139 1.011 0.011 0.094-0.051 0.196-0.046 0.292 0.014 0.239 0.043 0.478 0.079 0.715 0.027 0.182 0.080 0.358 0.12 0.536 0.029 0.13 0.080 0.153 0.18 0.066 0.123-0.106 0.238-0.223 0.349-0.339 0.029-0.031 0.040-0.083 0.051-0.127 0.019-0.071 0.019-0.15 0.050-0.214 0.087-0.177 0.104-0.359 0.087-0.551-0.007-0.070 0.012-0.142 0.024-0.27 0.199 0.164 0.365 0.293 0.523 0.436 0.237 0.213 0.47 0.434 0.704 0.652 0.004 0.004 0.007 0.008 0.013 0.009 0.286 0.051 0.452 0.34 0.745 0.381 0.051 0.007 0.116 0.044 0.142 0.086 0.1 0.159 0.256 0.225 0.419 0.287 0.449 0.174 0.904 0.339 1.34 0.536 0.38 0.172 0.743 0.389 1.114 0.581 0.289 0.149 0.582 0.289 0.873 0.436 0.099 0.050 0.193 0.106 0.286 0.166 0.129 0.081 0.219 0.187 0.17 0.352-0.051 0.166-0.23 0.273-0.393 0.286-0.151 0.012-0.316 0.030-0.448 0.1-0.765 0.404-1.524 0.82-2.279 1.241-0.22 0.122-0.42 0.276-0.63 0.413-0.092 0.060-0.186 0.119-0.282 0.17-0.366 0.202-0.732 0.405-1.103 0.598-0.104 0.055-0.223 0.079-0.333 0.123-0.114 0.047-0.224 0.105-0.34 0.15-0.081 0.033-0.2 0.099-0.246 0.067-0.083-0.057-0.142-0.169-0.177-0.27-0.033-0.096-0.009-0.21-0.036-0.309-0.060-0.24-0.283-0.413-0.529-0.42-0.050-0.001-0.13 0.020-0.149 0.055-0.127 0.246-0.24 0.488-0.166 0.788 0.059 0.236 0.063 0.48 0.005 0.731-0.043 0.193-0.013 0.405-0.001 0.609 0.020 0.329 0.053 0.657 0.073 0.987 0.003 0.062-0.033 0.13-0.062 0.189-0.116 0.227-0.047 0.378 0.2 0.425 0.067 0.013 0.136 0.020 0.202 0.031 0.156 0.027 0.276-0.009 0.349-0.165 0.033-0.069 0.094-0.125 0.148-0.183 0.091-0.097 0.199-0.134 0.327-0.082 0.133 0.052 0.216 0.14 0.229 0.291 0.039 0.47 0.081 0.941 0.125 1.41 0.009 0.098 0.013 0.202 0.046 0.293 0.137 0.378 0.143 0.771 0.15 1.165 0.012 0.611 0.039 1.216 0.275 1.791 0.012 0.029 0.029 0.064 0.023 0.090-0.020 0.066-0.036 0.155-0.083 0.181-0.044 0.024-0.157 0.005-0.189-0.036-0.123-0.153-0.247-0.177-0.439-0.129-0.136 0.036-0.296-0.031-0.446-0.050-0.218-0.027-0.436-0.054-0.654-0.079-0.026-0.003-0.056 0.006-0.077-0.005-0.382-0.196-0.78-0.086-1.174-0.064-0.077 0.004-0.155-0.007-0.232-0.017-0.184-0.023-0.368-0.057-0.552-0.074-0.155-0.016-0.313-0.023-0.469-0.020-0.154 0.004-0.307 0.029-0.462 0.038-0.080 0.004-0.175 0.017-0.24-0.017-0.126-0.063-0.234-0.055-0.36-0.007-0.105 0.041-0.222 0.063-0.335 0.067-0.056 0.003-0.134-0.043-0.16-0.090-0.021-0.038 0.005-0.127 0.041-0.166 0.127-0.137 0.18-0.302 0.21-0.482 0.025-0.155 0.057-0.309 0.099-0.461 0.089-0.331-0.049-0.61-0.37-0.732-0.29-0.112-0.296-0.123-0.206-0.422 0.077-0.255 0.144-0.511 0.224-0.764 0.057-0.183 0.193-0.248 0.382-0.295 0.255-0.063 0.493-0.195 0.732-0.309 0.026-0.012 0.029-0.113 0.013-0.163-0.047-0.149-0.104-0.294-0.168-0.435-0.023-0.050-0.079-0.086-0.123-0.122-0.013-0.010-0.040-0.007-0.062-0.007-0.861-0.039-0.837 0.024-1.124 0.647-0.253 0.55-0.462 1.111-0.493 1.727-0.023 0.426-0.067 0.853-0.101 1.278-0.003 0.031 0.003 0.069-0.012 0.093-0.193 0.329-0.054 0.663-0.016 0.993 0.029 0.253 0.039 0.255-0.188 0.383-0.055 0.030-0.107 0.066-0.16 0.1-0.113 0.076-0.231 0.081-0.336-0.003-0.335-0.268-0.666-0.542-0.998-0.814-0.021-0.014-0.038-0.042-0.067-0.076zM21.898 18.089c0.033-0.235-0.137-0.395-0.307-0.568-0.132-0.136-0.275-0.069-0.411-0.063-0.172 0.007-0.348 0.021-0.513 0.066-0.205 0.054-0.426 0.105-0.595 0.222-0.224 0.157-0.462 0.26-0.718 0.337-0.154 0.046-0.322 0.087-0.448 0.179-0.186 0.137-0.373 0.169-0.591 0.127-0.101-0.020-0.21-0.027-0.31-0.007-0.072 0.013-0.135 0.074-0.203 0.114 0.051 0.055 0.094 0.12 0.156 0.162 0.172 0.117 0.366 0.205 0.525 0.336 0.482 0.4 1.028 0.445 1.607 0.322 0.353-0.074 0.701-0.173 1.053-0.255 0.499-0.113 0.749-0.422 0.755-0.97zM14.749 18.618c-0.007-0.027-0.014-0.053-0.023-0.081-0.101-0.034-0.2-0.070-0.302-0.1-0.495-0.136-0.992-0.263-1.413-0.586-0.062-0.047-0.162-0.049-0.244-0.064-0.046-0.009-0.097 0.004-0.139-0.010-0.289-0.106-0.582-0.205-0.862-0.329-0.336-0.15-0.624-0.023-0.704 0.333-0.030 0.133-0.062 0.266-0.076 0.402-0.007 0.062 0.007 0.139 0.039 0.189 0.087 0.13 0.186 0.253 0.287 0.374 0.289 0.343 0.675 0.465 1.107 0.456 0.329-0.007 0.659-0.033 0.987-0.047 0.037-0.001 0.079-0.003 0.107 0.013 0.18 0.105 0.333 0.029 0.485-0.063 0.193-0.117 0.383-0.235 0.574-0.355 0.061-0.041 0.117-0.087 0.176-0.13zM26.852 15.516c0.009-0.433-0.332-0.913-0.692-1.030-0.036-0.012-0.094-0.014-0.116 0.007-0.11 0.107-0.236 0.116-0.378 0.093-0.053-0.007-0.117 0.011-0.166 0.036-0.207 0.106-0.37 0.259-0.446 0.484-0.094 0.283-0.121 0.574-0.064 0.867 0.027 0.143 0.093 0.262 0.23 0.337 0.22 0.12 0.436 0.25 0.652 0.378 0.107 0.063 0.181 0.037 0.247-0.070 0.044-0.073 0.106-0.14 0.175-0.19 0.336-0.239 0.521-0.563 0.558-0.911zM15.122 21.805c-0.001 0.031-0.004 0.063-0.005 0.094-0.010 0.187 0.012 0.205 0.193 0.15 0.151-0.044 0.302-0.089 0.452-0.137 0.316-0.104 0.629-0.146 0.954-0.029 0.173 0.063 0.292-0.060 0.259-0.253-0.011-0.067-0.043-0.13-0.059-0.196-0.034-0.142-0.062-0.283-0.094-0.425-0.073-0.322-0.136-0.645-0.224-0.961-0.023-0.081-0.113-0.164-0.192-0.203-0.1-0.047-0.222-0.047-0.333-0.073-0.153-0.033-0.273 0.021-0.347 0.154-0.32 0.586-0.632 1.177-0.602 1.877zM23.279 23.589c0.003 0.169-0.029 0.348 0.119 0.474 0.226 0.193 0.662 0.216 0.938 0.062 0.289-0.163 0.469-0.502 0.427-0.814-0.019-0.14-0.043-0.279-0.070-0.419-0.037-0.189-0.116-0.236-0.313-0.261-0.116-0.014-0.246-0.059-0.337-0.133-0.173-0.14-0.425-0.194-0.641-0.097-0.177 0.080-0.356 0.361-0.339 0.548 0.003 0.049 0.022 0.109 0.056 0.14 0.149 0.14 0.181 0.313 0.159 0.5zM24.306 6.047c-0.152 0.014-0.257 0.027-0.361 0.031-0.2 0.009-0.355 0.1-0.498 0.237-0.38 0.368-0.279 1.107 0.189 1.37 0.076 0.043 0.18 0.062 0.266 0.050 0.427-0.057 0.724-0.373 0.795-0.795 0.054-0.318 0.003-0.595-0.248-0.812-0.050-0.043-0.12-0.067-0.144-0.081zM30.809 15.609c0.051-0.076 0.117-0.132 0.127-0.198 0.011-0.063-0.026-0.142-0.063-0.199-0.016-0.024-0.127-0.020-0.13-0.009-0.024 0.088-0.042 0.18-0.046 0.27-0.001 0.029 0.046 0.059 0.112 0.136zM12.977 26.022c0.1-0.086 0.147-0.325 0.087-0.416-0.047-0.070-0.099-0.070-0.143 0.005-0.062 0.106-0.037 0.298 0.057 0.411zM22.23 16.37c0.074-0.2 0.044-0.278-0.125-0.341 0.043 0.116 0.079 0.218 0.125 0.341z"></path>
<path fill="#fff" d="M12.835 27.671c0.296-0.13 0.586-0.275 0.891-0.384 0.194-0.070 0.327-0.175 0.356-0.375 0.033-0.227 0.046-0.458 0.062-0.688 0.013-0.194 0.047-0.237 0.245-0.243 0.171-0.003 0.29-0.097 0.413-0.2 0.081-0.068 0.177-0.13 0.277-0.162 0.249-0.080 0.502-0.164 0.759-0.202 0.309-0.046 0.634-0.097 0.937-0.051 0.269 0.041 0.525 0.2 0.774 0.331 0.173 0.092 0.249 0.276 0.253 0.466 0.007 0.413 0.198 0.74 0.443 1.050 0.154 0.193 0.322 0.353 0.574 0.416 0.070 0.019 0.143 0.104 0.178 0.176 0.027 0.054 0.019 0.16-0.020 0.199-0.036 0.037-0.142 0.043-0.197 0.017-0.198-0.087-0.389-0.073-0.555 0.046-0.216 0.153-0.433 0.316-0.612 0.511-0.266 0.289-0.495 0.612-0.748 0.914-0.272 0.326-0.38 0.721-0.47 1.12-0.063 0.279-0.287 0.352-0.492 0.43-0.129 0.050-0.242-0.076-0.307-0.197-0.112-0.207-0.234-0.412-0.322-0.629-0.342-0.844-0.964-1.436-1.697-1.931-0.156-0.105-0.329-0.186-0.484-0.293-0.103-0.070-0.188-0.168-0.28-0.253 0.005-0.023 0.013-0.044 0.020-0.066zM16.857 27.198c0.003-0.35-0.233-0.708-0.556-0.845-0.316-0.133-0.674 0.023-0.774 0.349-0.055 0.179-0.089 0.368-0.106 0.554-0.027 0.279 0.382 0.724 0.667 0.742 0.037 0.003 0.073 0.001 0.11-0.005 0.316-0.060 0.655-0.47 0.659-0.795zM16.090 30.089c-0.132 0.073-0.249 0.105-0.229 0.255 0.004 0.027 0.026 0.051 0.040 0.076 0.027-0.019 0.064-0.033 0.077-0.057 0.038-0.076 0.066-0.157 0.112-0.273z"></path>
</svg>
