<!-- Generated by IcoMoon.io -->
<svg version="1.1" xmlns="http://www.w3.org/2000/svg" width="512" height="512" viewBox="0 0 512 512">
<title>fighters-hero</title>
<path fill="#fff" d="M0 259.36c2.624-0.656 5.184-1.312 7.984-0.304 1.168 0.4 2.816-0.864 4.144-0.64 6.448 1.024 12.304-1.408 18.4-2.672 9.424-1.984 18.816-4.464 28.352-5.248 8.912-0.736 17.648-2.176 26.432-3.648 2.592-0.448 5.136-1.2 7.696-1.952 4.144-1.2 8.288-1.552 12.608-0.896 4.192 0.64 7.552-0.784 10.016-4.592 1.024-1.568 3.072-2.752 4.896-3.408 0.976-0.368 2.672 0.528 3.712 1.312 1.2 0.88 2.128 2.192 3.008 3.44 2.272 3.2 5.584 4.112 9.2 4.48 1.952 0.208 3.376-0.72 4-2.432 0.88-2.464 1.728-5.024 2.112-7.616 0.816-5.6 2.416-10.944 4.784-16.080 3.232-6.992 6.912-13.808 9.552-21.008 3.616-9.824 9.024-18.592 14.384-27.424 5.76-9.52 13.056-17.568 22.848-23.312 6.352-3.712 12.144-8.352 18.32-12.416 7.056-4.64 14.384-8.72 22.816-10.496 4.224-0.88 5.76-4.256 4.32-8.32-0.24-0.688-0.48-1.36-0.736-2.032-1.008-2.672-2.832-3.648-5.728-3.776-4.224-0.16-5.216-1.344-4.112-4.976 1.664-5.504 2.656-11.2 4.064-16.784 0.816-3.248 1.84-6.464 2.864-9.664 0.784-2.432 0.992-4.656-1.008-6.704-0.608-0.624-0.72-1.712-1.168-2.832 1.12-0.336 2.064-0.928 2.896-0.8 4.144 0.56 8.080-4.592 8.688-8.272 0.544-3.12-0.176-4.4-3.232-5.904-3.6-1.76-3.568-1.744-1.712-5.2 0.56-1.040 1.12-2.176 1.36-3.328 1.92-9.024 3.872-18.032 5.6-27.072 0.56-2.896 0.496-5.904 0.8-8.848 0.384-3.68 2.304-6.24 5.728-7.696 1.328-0.56 2.688-1.040 3.968-1.664 1.984-0.96 3.248-0.528 3.712 1.664 0.896 4.24 1.648 8.496 2.432 12.752 0.208 1.104 0.32 2.224 0.544 3.312 3.024 15.056 6.512 30.048 8.96 45.184 1.76 10.88 4.944 21.328 7.744 31.904 0.336 1.312 0.48 2.688 0.656 4.032 0.528 4.224 0.88 8.448 1.52 12.656 0.368 2.432-0.16 4.032-2.624 4.88-2.256 0.768-3.68 2.448-4.56 4.96 1.872 0.736 3.632 1.44 5.408 2.144 14.464 5.68 27.488 13.472 38.032 25.104 6.464 7.136 12.944 14.24 19.472 21.328 1.152 1.248 2.336 2.464 3.68 3.456 5.36 3.92 8.752 9.184 11.424 15.184 5.52 12.416 10.176 25.104 13.216 38.368 0.288 1.2 0.128 2.752-0.416 3.856-1.504 3.088-1.184 4.096 2.464 5.344 0.624-0.896 1.28-1.872 2.032-2.944 1.968 1.008 3.76 1.888 4.784 4.112 0.496 1.088 1.968 2.144 3.168 2.368 2.416 0.464 4.96 0.56 7.424 0.416 1.248-0.064 2.592-0.768 3.648-1.52 1.984-1.424 4.112-1.792 6.384-1.2 9.072 2.304 18.192 4.512 27.216 7.072 12.464 3.52 25.2 4.752 38.096 4.64 11.104-0.096 21.408 3.728 32.016 6.16 3.712 0.848 7.552 1.088 11.344 1.632 1.888 0.256 3.792 0.48 5.616 0.944 1.264 0.32 1.632 1.344 0.24 1.92-2.704 1.12-5.456 2.576-8.288 2.864-9.504 0.976-19.056 1.328-28.56 2.272-15.408 1.552-30.784 3.28-46.144 5.168-3.28 0.4-6.448 1.76-9.632 2.768-2.368 0.736-4.672 1.632-7.024 2.416-2.896 0.96-5.744 2.032-8.672 2.832-3.456 0.96-6.992 1.632-10.464 2.544-1.52 0.4-3.072 0.88-4.432 1.664-3.888 2.208-7.632 4.672-11.552 6.848-1.344 0.736-3.008 1.184-4.56 1.328-3.168 0.256-4.96 1.36-5.12 4.432-0.208 3.856-1.664 7.136-3.392 10.416-0.368 0.704-0.784 1.424-0.96 2.192-1.504 6.048-5.2 10.72-9.312 15.2-1.824 1.984-3.248 4.336-4.864 6.528-0.48 0.64-0.848 1.408-1.424 1.92-5.696 5.12-10.16 11.552-16.848 15.68-3.456 2.128-6.304 5.216-9.632 7.616-2.112 1.504-4.656 2.416-6.928 3.76-2.784 1.664-5.344 1.968-8.352 0.176-1.888-1.12-5.856 1.008-7.136 3.792-1.92 4.224-3.648 8.576-4.928 13.008-0.4 1.44 0.688 3.52 1.52 5.040 1.040 1.904 2.736 3.616 0.96 5.824-1.28 1.584-3.632 1.312-6.304-0.464-1.808-1.184-3.632-2.352-5.52-3.408-1.584-0.896-2.688-0.496-2.656 1.504 0.016 1.84-0.704 2.304-2.528 1.984-2.928-0.528-4.032 0.736-3.568 3.68 0.4 2.576 1.92 4.176 4.336 4.976 1.664 0.56 3.44 0.848 5.088 1.472 3.888 1.472 4.88 5.36 2.208 8.528-1.184 1.408-2.368 2.912-3.84 4-4.72 3.52-5.2 8.656-5.84 13.872-0.384 3.152-0.88 6.432-2.128 9.28-2.368 5.424-3.776 11.008-4.88 16.784-2.544 13.536-5.36 27.024-8.368 40.48-1.344 6-0.816 11.968-0.896 17.968-0.048 3.28-0.608 4.32-2.848 4.72-2.544 0.448-4.432-0.608-5.056-3.552-0.848-4.064-1.36-8.208-1.76-12.336-1.024-10.944-1.392-21.984-3.056-32.832-1.12-7.376-3.92-14.512-6.080-21.712-1.072-3.552-2.208-6.976-1.504-10.8 0.736-4-0.896-7.696-2.704-11.024-0.88-1.632-3.28-2.448-4.976-3.616-0.784-0.544-1.6-1.024-2.624-1.664 1.968-1.76 3.92-3.216 5.456-5.024 1.408-1.648 2.736-3.552 3.44-5.584 0.848-2.352 0.080-3.008-2.416-3.056-0.48 0-0.96 0.080-1.44 0.016-1.76-0.176-2.432-1.488-1.568-3.008 2.016-3.6 1.664-6.976-0.8-10.304-2.048-2.768-4-5.616-5.776-8.576-0.464-0.768-0.448-2.176-0.064-3.008 1.472-3.36 0.864-4.56-2.624-5.6-3.888-1.168-7.712-2.592-11.504-4.080-14-5.424-25.6-14.672-37.504-23.44-2.464-1.824-4.752-4.176-6.464-6.72-8.72-13.008-16.768-26.4-21.76-41.408-0.64-1.952-0.336-3.696 0.032-5.744 0.496-2.704-0.48-5.744-1.088-8.576-0.032-0.224-2.272-0.336-3.28 0.064-1.968 0.768-3.808 1.888-5.664 2.912-1.872 1.040-3.856 1.968-5.504 3.312-1.92 1.584-3.856 2.144-6.224 1.36-2.432-0.8-4.832-1.84-7.344-2.256-3.6-0.56-7.296-0.624-10.944-0.944-2.288-0.208-4.656-0.096-6.8-0.736-7.776-2.304-15.408-5.024-23.616-5.376-1.28-0.064-2.688-0.624-3.792-1.344-2.064-1.344-4.192-1.68-6.624-1.6-6.112 0.224-12.096-0.384-18.032-2.272-4.752-1.52-9.856-2-14.816-2.896-6.624-1.168-13.28-2.272-19.92-3.392-0.784-0.144-1.584-0.256-2.336-0.544-2.736-1.040-5.52-1.984-8.128-3.296-1.184-0.608-2.016-1.92-3.008-2.928-0.048-0.384-0.048-0.704-0.048-1.024zM268.192 364.784c4.192 1.392 5.248 2.608 6.368 7.536 0.4 1.76 1.2 2.464 2.992 2.208 1.728-0.24 3.376-0.016 3.536-2.752 0.384-6.32 1.2-12.608 1.824-18.928 0.8-8.096 3.472-15.216 9.68-20.88 2.352-2.144 4.112-4.928 6.192-7.376 5.104-6.048 10.544-11.664 18.24-14.544 1.76-0.656 3.312-1.952 5.024-2.816 2.768-1.424 5.536-2.848 8.368-4.080 1.984-0.848 3.6-1.952 3.808-4.192 0.288-2.928 0.928-5.984 0.48-8.832-1.184-7.456-2.944-14.8-7.824-20.928-0.304-0.368-0.48-0.816-0.64-1.28-2.896-8.288-5.248-16.784-5.136-25.584 0.144-13.088-1.424-25.92-4.416-38.64-1.92-8.192-2.944-16.624-5.424-24.64-3.728-12.048-9.552-22.592-22.896-26.928-9.744-3.168-19.152-7.312-28.816-10.768-1.664-0.576-3.84 0-5.728 0.336-1.744 0.32-3.408 1.504-5.12 1.488-6.768-0.016-13.28 0.848-19.376 3.936-1.568 0.8-3.136 1.632-4.752 2.288-12.288 4.864-21.824 11.872-26.368 25.456-5.84 17.504-9.072 34.864-5.008 53.136 0.448 2.016 0.736 4.224 0.368 6.192-0.736 3.84-1.68 7.712-3.12 11.328-2.288 5.808-5.12 11.392-7.632 17.104-2.048 4.704-3.888 9.504-5.984 14.176-1.504 3.376-1.968 6.768-0.896 10.304 1.664 5.6 3.136 11.312 5.168 16.768 0.944 2.512 2.752 4.896 4.72 6.752 2.064 1.952 4.656 3.456 7.248 4.64 5.328 2.432 10.784 4.512 16.208 6.704 5.056 2.048 10.128 3.968 13.776 8.416 5.168 6.272 8.592 13.28 10.304 21.2 0.784 3.68 1.488 7.424 2.896 10.864 1.12 2.736 1.232 5.008-0.144 7.536-1.568 2.896-1.344 3.552 1.488 5.168 0.624 0.368 1.664 0.704 2.144 0.416 0.464-0.256 0.736-1.392 0.624-2.064-0.368-2.224 0.624-3.312 2.208-3.696 2.144 2.256 3.936 4.464 6.064 6.272 2.624 2.256 3.92 1.68 4.592-1.744 0.144-0.736-0.016-1.568-0.096-2.352-0.368-3.6-0.128-7.008 3.312-10.096 1.184 1.904 2.448 3.456 3.152 5.2 0.8 1.984 1.040 4.192 1.712 6.24 0.224 0.688 1.008 1.68 1.568 1.712 2.656 0.096 4.224-0.128 4.32-3.328 0.128-2.208 0.656-4.432 1.024-6.912zM241.168 391.056c-0.576 0.72-1.552 1.392-1.648 2.176-0.176 1.568 0.72 3.024 2.368 2.864 0.88-0.080 2.192-1.424 2.352-2.352 0.288-1.552-0.896-2.416-3.072-2.688zM274.416 381.68c-0.8-0.224-1.488-0.496-2.176-0.528-0.16 0-0.544 0.88-0.464 1.312 0.080 0.464 0.576 0.848 0.944 1.344 0.624-0.48 1.12-0.864 1.76-1.36 1.552 2.304 2.688 0.736 3.952-0.368-2-1.792-2-1.792-4.032-0.4z"></path>
<path fill="#fff" d="M59.856 429.408c1.408-1.712 2.704-3.296 4.032-4.88 5.824-6.944 11.936-13.552 18.496-19.856 9.12-8.752 17.024-18.752 25.456-28.208 2.512-2.816 4.72-6 7.616-8.352 4.496-3.648 6.048-8.512 6.944-13.808 0.336-1.968 0.56-3.968 0.928-5.952 0.56-3.024 2.272-4.336 5.376-4.272 3.632 0.064 5.504-2.688 3.76-5.968-2.256-4.24-4.624-8.48-7.312-12.432-3.536-5.216-4.944-10.88-4.704-17.088 0.16-4.16 0.88-4.928 4.896-4.944 4 0 7.856-0.464 11.424-3.136 0.784 2.224 1.44 4.16 2.176 6.080 1.84 4.96 3.552 9.984 5.648 14.832 1.552 3.6 3.392 7.072 5.44 10.4 2.096 3.408 4.416 6.72 6.944 9.824 2.464 3.024 5.216 5.824 8.016 8.56 5.408 5.264 10.8 10.528 16.4 15.568 6.768 6.112 14.112 11.392 22.928 14.256 2.448 0.8 4.384 2.368 5.28 4.928 0.88 2.432 0.032 4.256-2.352 5.216-0.368 0.144-0.768 0.224-1.152 0.368-3.6 1.264-4.672 3.216-4.16 7.056 0.208 1.52 0.032 3.088 0.032 5.456-2.208-0.976-3.952-1.392-5.248-2.384-3.68-2.848-7.152-5.952-10.704-8.96-0.544-0.464-1.040-1.024-1.664-1.392-6.624-3.92-13.296-7.728-19.856-11.728-1.168-0.704-2.048-1.968-2.864-3.088-1.424-1.968-2.656-1.984-4.080-0.016-0.544 0.768-1.168 1.568-1.952 2.064-3.232 2.064-6.448 4.192-9.856 5.968-4.336 2.272-8.816 4.32-13.328 6.224-3.040 1.28-5.92 2.544-8.512 4.752-6.592 5.584-14.496 9.104-22.016 13.216-2.592 1.408-4.96 3.2-7.472 4.752-2.048 1.264-4.256 2.272-6.192 3.68-6.144 4.496-12.224 9.072-18.24 13.76-4.256 3.248-5.616 3.328-10.176-0.48z"></path>
<path fill="#fff" d="M317.056 114.656c2.592-0.704 4.704-1.040 6.192 1.504 0.32 0.544 1.328 0.784 2.064 0.96 1.408 0.32 2.848 0.496 4.272 0.704 1.792 0.224 3.12 0.848 3.84 2.736 0.368 0.96 1.344 1.792 2.208 2.464 5.28 4.176 10.8 8.096 15.888 12.512 4.080 3.536 8.4 3.936 13.2 2.464 0.624-0.176 1.328-0.96 1.472-1.6 0.384-1.552 0.544-3.152 0.64-4.736 0.096-1.424 0.496-2.352 2.176-2.048 2.976 0.544 5.264-0.288 7.072-2.896 0.768-1.088 2.304-1.648 3.552-2.352 7.072-3.936 14.464-7.392 21.12-11.92 4.192-2.848 8.16-5.776 12.944-7.616 1.488-0.56 2.432-2.448 3.76-3.568 1.408-1.2 2.832-2.592 4.512-3.216 2.784-1.040 4.976-2.432 6.992-4.752 3.808-4.4 7.712-8.848 13.68-10.608 1.504-0.448 2.832-0.816 3.856 0.64 1.024 1.488-0.064 2.512-1.008 3.536-5.84 6.304-12.096 12.272-17.376 18.992-6.928 8.832-13.152 18.208-19.504 27.472-1.504 2.208-2.288 4.912-3.488 7.344-0.896 1.872-1.888 3.696-2.944 5.488-2.096 3.52-4.384 6.912-6.368 10.464-2.064 3.696-5.248 6.032-8.912 7.744-0.96 0.464-2.336-0.016-3.472 0.144-1.264 0.176-3.008 0.24-3.6 1.040-0.48 0.656 0.368 2.368 0.784 3.552 0.64 1.744 1.472 3.44 2.144 5.168 0.8 1.984 1.344 4.112 2.304 6.032 3.648 7.232 7.472 14.352 11.12 21.584 0.704 1.408 1.024 3.008 1.488 4.544 1.040 3.44 1.984 6.912 3.152 10.304 1.472 4.32 0.576 6.16-3.856 7.104-3.056 0.64-6.144 1.152-9.232 1.6-2.384 0.368-4.032-0.704-5.040-3.488-2.352-6.48-4.832-12.928-6.784-19.536-4.272-14.512-12.736-26.72-21.184-38.912-1.984-2.864-5.328-4.816-8.048-7.168-1.648-1.408-3.312-2.784-5.040-4.112-1.424-1.104-2.688-2.208-2.752-4.24-0.016-0.624-0.48-1.424-0.976-1.84-2.656-2.208-5.328-4.384-8.080-6.464-4.080-3.12-8.256-6.112-12.336-9.216-1.44-1.104-2.832-1.92-4.8-1.68-0.816 0.096-2.304-0.56-2.528-1.184-0.288-0.864 0.048-2.288 0.656-3.008 1.392-1.648 3.056-3.072 4.72-4.464 1.76-1.408 2.672-2.992 1.52-5.44z"></path>
<path fill="#fff" d="M401.952 309.344c-3.408 8.352-6.752 16.48-10.080 24.624-1.52 3.712-3.056 7.408-4.576 11.104-0.176 0.448-0.4 0.88-0.576 1.328-1.024 2.432-2.064 5.456-0.224 7.248 1.232 1.184 4.352 0.768 6.544 0.48 3.056-0.4 3.616-0.064 4.256 2.848 0.544 2.464 1.152 5.104 2.448 7.216 4.352 7.008 8.896 13.904 13.632 20.64 4.144 5.888 8.768 11.44 12.976 17.296 1.504 2.112 2.592 4.624 3.52 7.072 2.224 6 4.864 11.664 9.76 16.064 1.488 1.344 2.544 3.312 3.408 5.184 1.168 2.464-0.016 4-2.688 3.856-3.52-0.208-6.448-1.328-8.688-4.336-3.776-5.040-8.72-8.736-14.56-11.12-3.856-1.584-7.072-3.76-8.576-7.872-0.096-0.304-0.256-0.624-0.48-0.816-4.384-3.808-8.4-8.176-13.248-11.232-4.512-2.848-9.072-5.36-12.304-9.744-0.944-1.28-1.92-2.672-3.2-3.568-1.152-0.8-2.768-1.552-4.080-1.392-3.68 0.448-6.768-1.184-9.824-2.592-0.896-0.416-1.104-2.512-1.424-3.888-0.096-0.416 0.416-1.008 0.64-1.52 0.656-1.6 1.248-3.28-0.24-4.704-1.52-1.44-3.232-0.88-4.944-0.224-1.072 0.416-2.272 0.496-3.376 0.848-1.344 0.416-2.768 0.768-3.968 1.44-3.408 1.92-6.704 4.032-10.080 6.032-3.648 2.144-7.456 4.096-11.008 6.4-4.272 2.784-8.992 2.784-13.712 2.384-2.736-0.224-4.8-2.176-6.128-4.624-1.168-2.112-0.736-3.568 1.344-4.864 10.384-6.384 20.656-12.944 31.2-19.104 13.856-8.080 25.264-18.512 33.856-32.144 3.76-5.968 6.672-12.224 8.992-18.816 0.48-1.36 0.944-2.752 1.648-4 1.2-2.192 3.792-2.688 5.456-0.88 1.584 1.728 3.328 2.832 5.6 3.456 1.040 0.384 1.984 1.44 2.688 1.92zM320.512 384.224c3.392 2.384 7.776 1.808 10.144-1.408 0.4-0.544 0.48-1.552 0.256-2.176-0.128-0.336-1.264-0.48-1.888-0.4-1.664 0.224-3.312 0.928-4.944 0.848-2.464-0.128-3.28 1.104-3.568 3.136zM378.992 353.248c0.896-1.472 1.6-2.336 1.952-3.328 0.128-0.32-0.656-0.96-1.040-1.472-0.784 0.864-1.664 1.664-2.288 2.656-0.144 0.208 0.608 1.008 1.392 2.144zM372.816 375.616c-0.24-0.016-0.48-0.048-0.736-0.048-0.176 0.944-0.704 2.048-0.4 2.784 0.256 0.64 1.488 0.896 2.288 1.328 0.144-0.176 0.256-0.336 0.4-0.528-0.528-1.184-1.024-2.368-1.552-3.552z"></path>
<path fill="#fff" d="M205.008 118.304c-2.768-0.464-4.56 0.368-5.296 3.248-0.208 0.784-1.328 1.488-2.192 1.888-1.728 0.816-3.712 1.152-5.344 2.128-7.92 4.736-15.84 9.424-22.352 16.192-3.776 3.92-8.080 7.328-12.096 11.024-0.736 0.688-1.28 1.584-1.888 2.416-0.48 0.64-0.8 1.52-1.424 1.888-5.744 3.312-7.792 9.376-10.88 14.624-6.752 11.424-11.664 23.696-16.208 36.112-0.8 2.208-1.12 4.64-1.44 7.008-0.24 1.808-0.896 2.496-2.672 1.84-0.448-0.16-0.944-0.256-1.344-0.496-3.28-1.952-6.592-1.36-9.984-0.368-1.072 0.32-2.656 0.4-3.44-0.16-1.472-1.040-2.192-2.784-1.44-4.72 0.88-2.336 1.68-4.672 2.736-6.928 2.352-5.088 4.832-10.128 7.248-15.184 1.152-2.384 2.464-4.704 3.328-7.184 1.504-4.384 3.648-8.32 6.608-11.904 0.96-1.168 1.408-3.072 1.392-4.64-0.032-2.224 0.624-3.52 2.784-4.080 1.424-0.368 2.752-0.864 2.992-2.672 0.368-2.624-0.288-3.392-2.896-3.872-1.072-0.208-2.192-0.848-2.992-1.584-1.344-1.248-2.448-2.752-3.696-4.112-4.016-4.352-7.408-8.992-8.56-15.040-0.464-2.464-1.68-4.832-2.768-7.152-1.232-2.576-2.864-4.8-5.6-6.048-0.928-0.416-1.76-1.152-2.464-1.888-4-4.384-8.016-8.768-11.872-13.296-0.88-1.040-1.168-2.576-1.808-3.84-0.48-0.96-0.896-2.064-1.648-2.784-2.784-2.768-5.68-5.44-8.528-8.16-0.304-0.288-0.576-0.544-0.88-0.816-1.232-1.104-2.288-2.736-0.976-3.888 1.344-1.2 2.672-0.080 3.888 1.36 5.376 6.384 11.76 11.088 20.64 11.28 1.312 0.016 2.624 1.088 3.856 1.792 0.96 0.544 1.792 1.328 2.752 1.92 3.92 2.448 7.824 4.928 11.808 7.296 2.128 1.264 4.304 2.512 6.608 3.376 6.144 2.304 11.76 5.408 16.912 9.504 1.648 1.328 3.808 1.968 5.696 3.024 1.952 1.104 3.856 2.304 5.76 3.472 3.136 1.904 4.752 1.344 6.56-1.68 0.688-1.168 2.128-2.112 3.44-2.672 5.056-2.192 10.176-4.256 15.328-6.224 3.36-1.28 6.848-2.224 10.208-3.568 2.896-1.168 5.696-2.544 8.432-4.032 1.744-0.944 3.216-1.264 4.784 0.208 0.768 0.704 1.744 1.168 2.464 1.904 0.768 0.8 2.032 2.448 1.888 2.592-1.088 1.152-2.432 2.096-3.776 2.928-0.464 0.224-1.152 0-1.648 0zM118.080 206.304c-0.496 0.576-1.12 1.12-1.472 1.808-0.304 0.576-0.256 1.328-0.384 2.016 0.784 0.128 1.712 0.56 2.352 0.32 1.728-0.688 1.568-2.416-0.496-4.144zM132.208 147.728c-0.336 0.416-0.688 0.816-1.024 1.248 0.8 0.72 1.584 1.472 2.464 2.112 0.064 0.032 0.8-0.864 1.232-1.344-0.88-0.688-1.76-1.344-2.672-2.016z"></path>
<path fill="#fff" d="M201.936 274.88c0.944-2.896 3.52-4.304 6.928-3.248 7.104 2.208 14.192 4.496 21.2 7.056 4.512 1.632 8.848 3.76 13.28 5.664 5.808 2.512 6.72 6.352 3.392 11.712-3.008 4.832-6.4 9.312-10.208 13.552-2.032 2.256-4.512 2.704-7.232 2.048-5.456-1.328-10.864-2.816-16.304-4.176-1.008-0.256-2.048-0.464-3.072-0.416-3.968 0.176-7.104-1.472-9.904-4.16-2.496-2.384-5.040-4.72-7.712-6.88-4.272-3.472-5.28-9.504-1.808-13.68 2.944-3.536 6.624-6.192 11.424-7.456z"></path>
<path fill="#fff" d="M272.976 285.936c2.064-0.576 4.224-0.944 6.16-1.792 4.416-1.904 8.64-4.24 13.088-6.064 6.512-2.672 13.12-5.168 19.744-7.472 3.712-1.28 7.008 0.416 8.736 3.968 0.32 0.64 0.576 1.328 0.88 1.984 4.224 9.744 1.072 18.528-8.48 23.296-3.792 1.904-7.648 3.728-11.632 5.2-2.656 0.976-5.584 1.232-8.368 1.92-1.68 0.416-3.456 0.8-4.928 1.664-4.752 2.816-9.536 2.224-13.248-1.808-0.928-1.008-1.904-2-3.024-2.688-4.336-2.624-5.68-6.848-5.968-11.472-0.24-4.016 3.168-7.264 7.024-6.768z"></path>
<path fill="#fff" d="M258.944 331.136c-1.792 2.416-3.536 4.704-5.168 7.056-1.28 1.84-2.592 2.112-4.336 0.56-1.312-1.168-2.848-2.064-4.256-3.136-1.424-1.104-1.792-2.528-1.232-4.272 1.904-5.84 3.792-11.68 5.648-17.552 0.816-2.592 1.488-5.248 2.432-7.792 1.104-3.008 3.168-3.856 6.128-2.608 3.232 1.36 5.776 3.728 7.056 6.912 2.784 6.976 5.344 14.064 7.728 21.168 0.88 2.608-1.808 6.64-5.136 8.528-2.272 1.28-4.832 0.848-7.312-1.232-0.976-0.816-1.12-1.552-0.176-2.608 1.84-2 1.52-3.248-1.36-5.024z"></path>
</svg>
