<!-- Generated by IcoMoon.io -->
<svg version="1.1" xmlns="http://www.w3.org/2000/svg" width="512" height="512" viewBox="0 0 512 512">
<title>fighters-champion</title>
<path fill="#fff" d="M235.792 0c2.592 5.584 5.28 11.136 7.776 16.784 4.64 10.56 9.056 21.216 13.808 31.712 3.328 7.36 7.088 14.528 10.672 21.776 0.688 1.36 1.44 2.672 2.144 4.032 4.128 8.128 8.272 16.272 12.416 24.432 2.048 4.032 1.28 6.4-2.928 8.256-5.184 2.288-7.184 7.088-9.584 11.6-0.176 0.32 0.608 1.6 1.152 1.808 4.368 1.568 8.784 3.088 13.248 4.4 5.424 1.568 9.728 4.816 13.872 8.448 1.744 1.52 3.6 2.928 5.504 4.256 1.44 0.976 2.528 0.704 2.912-1.248 0.544-2.688 1.168-5.312-0.464-7.904-0.96-1.552 0.16-2.464 1.472-2.896 4.32-1.408 8.704-2.688 13.168-4.080 0.784 1.424 1.424 2.608 2.064 3.792 1.968 3.52 5.968 5.472 9.952 4.912 1.68-0.24 2.704-1.056 3.152-2.816 0.8-3.168 0.416-6.016-1.744-8.592-0.608-0.72-1.12-1.52-1.808-2.464 1.872-0.8 3.536-1.648 5.264-2.192 0.496-0.16 1.36 0.384 1.872 0.816 1.6 1.408 2.944 3.232 4.72 4.336 2.544 1.584 4.72 0.768 6.912-1.312 2.368-2.224 4.88-4.368 7.648-6.064 4.080-2.464 4.672-3.312 3.696-8.144-0.080-0.384-0.080-0.784-0.144-1.504 1.104 0.096 2.112 0.144 3.088 0.304 2.704 0.448 5.056-0.24 6.48-2.624 2.208-3.648 5.552-5.712 9.392-7.12 2.192-0.8 4.352-1.6 6.56-2.336 2-0.656 4.032-1.264 4.528-3.728 0.064-0.288 0.368-0.528 0.576-0.736 2.064-2 8.832-1.952 10.896 0.048 1.344 1.312 1.088 2.752 0.448 4.208-7.344 16.384-14.56 32.816-22.128 49.088-2.368 5.12-5.92 9.696-8.528 14.704-2.912 5.6-5.392 11.44-5.024 18 0.16 2.752-0.72 3.856-3.552 3.872-4.576 0.016-9.152-0.064-13.744-0.080-0.304 0-0.576 0.144-1.232 0.304 0.544 0.88 0.976 1.584 1.424 2.288 2.912 4.704 6.288 9.2 8.544 14.176 1.68 3.696 2.080 8.016 2.784 12.096s1.712 4.912 5.296 2.896c2.464-1.392 4.56-3.472 6.8-5.28 1.792-1.424 3.536-2.912 5.296-4.352 0.24-0.208 0.608-0.4 0.656-0.656 0.784-3.088 3.008-2.288 4.944-1.728 4.656 1.344 9.168 2.896 11.856 7.52 0.544 0.944 2.24 1.504 3.52 1.728 11.216 1.984 22.448 3.728 33.664 5.824 5.744 1.056 11.344 2.944 17.12 3.872 6.080 0.976 11.696 3.216 17.344 5.456 4.896 1.968 9.728 4.208 14.64 6.16 2.144 0.848 4.416 1.44 6.688 1.84 2.496 0.448 4.16 1.648 5.552 3.76 1.312 1.968 0.688 3.136-1.008 4.096-3.888 2.224-7.76 4.496-11.776 6.528-13.504 6.864-27.12 13.504-40.576 20.496-4.96 2.592-9.6 5.808-14.272 8.928-1.568 1.040-2.576 1.008-3.936-0.176-1.568-1.36-3.264-2.592-5.024-3.728-3.632-2.368-6.144-2.384-9.104-0.224-3.376 2.464-4.96 6.224-3.968 9.856 0.528 1.904 1.344 3.728 2.064 5.696-4.128 2.064-8.272 4.16-12.416 6.224-4.24 2.112-8.144 4.336-8.88 9.792-0.4 2.944-1.408 3.248-3.92 1.712-1.328-0.816-2.496-1.968-3.632-3.056-1.744-1.648-2.976-1.424-3.632 0.88-0.96 3.472-1.68 7.024-2.704 10.48-0.976 3.296-2.224 6.48-3.344 9.728-0.208 0.56-0.32 1.12-0.656 2.32 3.552-1.888 6.704-1.328 9.776-0.368 1.248 0.4 2.656 1.2 3.376 2.24 1.488 2.16 2.512 4.64 3.808 6.944 4 7.12 7.84 14.336 12.096 21.312 4.736 7.808 9.696 15.52 14.864 23.056 3.104 4.56 6.976 8.608 10.192 13.104 4.352 6.048 8.608 12.176 12.544 18.528 1.184 1.904 1.408 4.544 1.568 6.88 0.144 2.080-0.976 2.608-2.672 1.392-2.272-1.648-4.592-1.232-7.12-0.88-1.76 0.24-3.808 0-5.456-0.688-7.904-3.248-15.488-7.808-23.68-9.872-11.84-2.976-22.448-8.464-33.392-13.312-4.944-2.192-9.872-4.24-15.264-4.896-0.784-0.096-1.52-0.448-2.304-0.656-4.448-1.28-8.88-2.736-13.376-3.808-2.16-0.528-3.216-1.504-3.296-3.696-0.080-2.080-0.32-4.16-0.464-6.24-0.128-1.904-1.184-2.432-2.752-1.648-0.976 0.48-1.904 1.232-2.608 2.048-6.576 7.872-15.168 12.768-24.544 16.416-1.152 0.448-2.528 0.384-3.792 0.368-3.312-0.048-6.352 0.736-9.008 2.832-0.736 0.576-1.632 1.104-2.528 1.328-4.72 1.152-9.472 2.304-14.224 3.232-2.032 0.384-2.416 1.824-1.584 2.848 3.152 3.952 5.664 8.624 10.416 11.040 1.744 0.88 2.048 1.888 1.040 3.408-1.232 1.888-2.448 3.776-3.792 5.584-5.504 7.44-10.416 15.216-12.928 24.288-0.88 3.216-3.792 4.112-6.72 4.64-1.504 0.256-3.024 0.288-4.56 0.464-1.968 0.24-2.944 1.728-2.144 3.568 1.040 2.432 2.624 4.256 5.392 5.072 1.488 0.448 2.864 1.632 3.968 2.768 0.368 0.384 0 1.92-0.496 2.608-2.544 3.488-5.296 6.864-7.872 10.336-0.736 1.008-1.2 2.224-1.744 3.376-1.328 2.704-2.656 5.424-3.888 8.176-0.608 1.36-1.040 2.816-1.504 4.24-0.768 2.32-1.104 4.896-2.336 6.944-1.92 3.216-3.008 6.48-3.024 10.224-0.016 1.824-0.144 3.728-0.64 5.472-0.768 2.624-2.912 3.072-4.32 0.8-1.664-2.672-3.136-5.6-4.016-8.608-2.272-7.68-4.128-15.472-6.256-23.2-0.4-1.44-0.944-2.928-1.744-4.192-8.032-12.64-13.424-26.448-17.584-40.72-2.816-9.648-7.632-17.856-14.4-25.184-4.048-4.368-3.376-3.968 0.704-7.152 4.56-3.536 8.752-7.568 12.96-11.52 0.896-0.848 1.28-2.224 2.112-3.776-2.384-0.256-4.192-0.464-6-0.64-13.168-1.264-25.408-5.28-36.544-12.416-2.128-1.36-4.24-2.624-6.976-2.928-1.824-0.208-3.536-1.712-5.216-2.768-1.6-1.008-3.104-2.192-4.912-3.472-0.816 5.296-2.336 10.128 1.040 14.768 1.232 1.68-0.080 2.896-1.664 3.472-4.88 1.84-9.744 3.648-14.64 5.376-3.248 1.152-6.64 1.888-9.856 3.136-22.432 8.704-45.36 16.080-67.184 26.32-2.544 1.2-5.52 1.744-8.352 2.080-1.12 0.144-2.912-0.784-3.472-1.76s-0.528-3.008 0.144-3.92c4.4-5.776 9.168-11.312 13.632-17.056 6.976-8.992 14.192-17.84 20.512-27.296 1.968-2.944 3.328-4.416 6.848-4.704 4.352-0.368 6.656-4.448 5.376-8.704-0.528-1.744-0.24-3.072 0.736-4.496 3.536-5.072 7.024-10.176 10.48-15.296 1.12-1.664 2.496-2.576 4.576-2.624 4.32-0.128 4.656-0.64 3.776-4.912-0.064-0.304 0-0.624 0-1.12 1.904-0.368 3.776-0.768 5.648-1.056 1.904-0.304 2.512-1.184 1.632-2.992-3.408-7.040-3.072-14.656-3.312-22.176-0.096-2.896 0-5.776-0.096-8.672-0.016-0.624-0.544-1.2-0.816-1.824-0.656 0.336-1.664 0.544-1.952 1.088-0.576 1.168-0.768 2.528-1.184 3.792-0.48 1.44-1.040 2.864-1.568 4.288-1.28-0.48-2.688-0.768-3.808-1.472-4.48-2.784-8.672-6.16-13.376-8.432-4.208-2-9.024-2.672-13.488-4.176-9.792-3.296-19.568-6.72-29.296-10.176-1.648-0.576-3.184-1.52-4.704-2.416-2.032-1.168-3.92-2.16-6.544-1.744-1.328 0.224-3.072-0.8-4.32-1.68-3.088-2.224-6.32-3.296-10.256-3.488-3.776-0.176-7.52-1.472-11.168-2.688-1.040-0.336-1.984-2.064-2.208-3.296-0.128-0.72 1.104-2.048 2-2.512 11.824-6.144 23.728-12.080 35.504-18.288 11.072-5.824 22.032-11.888 33.008-17.888 2.032-1.12 3.856-2.656 5.872-3.792 3.728-2.128 7.424-4.432 11.376-6.096 5.28-2.208 8.848-5.456 9.952-11.312 1.392-7.36 3.632-14.448 7.824-20.8 0.496-0.768 0.288-2.608-0.32-3.328-1.184-1.392-2.304-3.616-4.88-2.416-1.44 0.688-2.912 1.392-4.288 2.16-1.76 1.008-3.184 0.64-4.016-1.104-1.52-3.248-3.248-6.48-4.208-9.92-3.808-13.824-7.504-27.68-10.944-41.6-2.656-10.72-4.88-21.552-7.28-32.352-0.256-1.168-0.544-2.448-0.304-3.568 0.224-1.008 0.944-2.192 1.792-2.688 0.848-0.48 2.528-0.688 3.152-0.16 4.176 3.52 9.36 4.816 14.192 6.992 7.008 3.136 13.808 6.768 20.784 9.968 5.664 2.608 11.424 5.072 17.232 7.328 5.2 2 10.144 4.288 14.688 7.6 2.544 1.872 5.68 2.944 8.512 4.448 1.632 0.864 3.296 1.712 4.752 2.816 3.52 2.688 3.616 5.264 0.624 8.496-0.864 0.928-1.648 1.968-2.208 3.072-0.24 0.48-0.080 1.632 0.288 1.872 0.448 0.288 1.328 0 1.968-0.176 0.336-0.096 0.576-0.528 0.848-0.848 4.72-5.712 10.8-9.472 17.616-12.224 4.16-1.68 8.288-3.456 12.416-5.216 2.208-0.96 2.816-2.112 1.36-3.856-2-2.448-4.48-4.56-6.88-6.656-0.48-0.416-1.584-0.016-2.288-0.304-1.264-0.496-2.784-0.96-3.552-1.952-0.48-0.608-0.16-2.304 0.368-3.216 3.328-5.68 6.736-11.28 10.256-16.864 9.424-15.008 18.192-30.32 25.376-46.624 5.696-12.992 11.392-25.952 16.496-39.184 0.288-0.048 0.608-0.048 0.928-0.048zM303.792 233.2c0.064 0 0.128 0 0.16 0 0-5.616 0.064-11.232-0.016-16.832-0.128-9.232 0.336-18.672-3.136-27.344-3.216-7.984-7.584-15.52-11.584-23.184-0.64-1.248-1.808-2.24-2.816-3.264-2.608-2.608-5.328-5.12-7.92-7.728-2.896-2.928-5.696-6.016-9.744-7.264-9.808-3.024-19.648-5.904-29.52-8.672-1.12-0.32-2.544 0.384-3.808 0.688-1.968 0.464-4 1.584-5.888 1.392-8.544-0.928-16.688-0.304-23.952 4.752-5.872 4.080-11.616 8.304-17.472 12.4s-8.784 10.336-10.656 16.656c-1.968 6.624-2.768 13.68-3.248 20.64-1.392 20.096-2.336 40.208-3.568 60.32-0.096 1.648-0.72 3.616-1.808 4.8-2.608 2.832-1.424 6.096-1.712 9.216-0.128 1.392 0.144 2.864-0.336 4.112-1.488 3.936-3.248 7.76-4.88 11.648-0.128 0.304-0.176 0.624-0.288 0.896-0.88 2.288-1.584 4.672-2.688 6.864-1.552 3.072-1.664 3.696 0.816 6.064 3.088 2.944 5.28 6.4 6.72 10.4 0.784 2.192 1.664 4.352 2.736 6.4 1.952 3.792 5.968 6.256 9.328 5.504 6.944-1.568 12.176 2.032 16.608 6.176 2.896 2.704 5.36 6 8.464 8.624 1.264 1.056 1.888 2.912 2.752 4.432 0.384 0.688 0.496 1.568 0.976 2.192 5.584 7.12 5.904 15.328 4.96 23.824-0.304 2.704-0.576 5.424-0.768 8.144-0.096 1.488 0.144 2.928 1.952 3.408 1.712 0.464 2.992-0.208 3.888-1.632 1.184-1.904 2.336-3.84 3.472-5.76 1.12-1.888 2.592-2.192 4.32-0.784 0.976 0.8 1.792 1.872 2.784 2.656 0.96 0.736 2.112 1.264 3.152 1.888 0.4-1.152 0.976-2.24 1.2-3.44 0.544-2.912 0.928-5.856 1.36-8.768 0.288-1.888 0.928-2.064 2.464-0.816 3.184 2.528 4.128 5.984 4.432 9.76 0.16 2.112 0.928 3.712 3.296 4.080 2.336 0.368 4.096-0.448 5.36-2.368 0.304-0.464 0.448-1.024 0.736-1.504 0.224-0.368 0.544-0.784 0.896-0.896 1.104-0.4 7.856 2.080 8.448 3.072 0.16 0.256 0.208 0.608 0.24 0.928 0.224 2.064 1.552 3.408 3.392 3.488 2.064 0.080 1.904-2.112 2.192-3.472 2.128-10.432 4.032-20.928 6.32-31.328 0.8-3.616 1.648-7.84 4-10.336 4.704-4.976 10.368-9.072 15.824-13.264 4.432-3.44 9.216-6.416 13.744-9.76 1.264-0.928 2.144-2.368 3.264-3.472 0.784-0.768 1.6-1.824 2.544-1.984 2.208-0.4 2.24-1.6 2.192-3.456-0.096-3.008-0.56-6.336 0.496-8.992 1.68-4.256 1.232-7.648-1.248-11.28-4.176-6.128-7.104-12.832-7.52-20.272-0.576-9.216-0.72-18.368-1.040-27.52zM352.608 262.24c3.808 0.064 5.072-0.4 7.872-2.656 0.416-0.336 0.96-0.8 1.424-0.8 1.792 0.048 2.464-1.056 2.688-2.496 0.816-5.52 1.744-11.056 2.224-16.624 0.224-2.464-0.816-4.896-2.928-6.56-2.832-2.224-5.632-4.496-8.624-6.544-0.8-0.544-2.24-0.608-3.216-0.32-1.664 0.48-3.152 1.504-4.784 2.16-4.912 1.984-8.304 5.344-9.584 10.592-0.48 2.032-0.976 4.032-1.44 6.064-0.864 3.776-0.784 7.44 2.128 10.336 4 4.032 8.784 6.656 14.224 6.816zM238.112 416.784c4.704 0.224 8.944-0.768 12.16-4.544 0.256-0.304 0.608-0.624 0.944-0.704 3.76-0.928 4.192-3.712 3.84-6.864-0.208-1.728-0.624-3.44-0.944-5.152-0.096-0.528-0.464-1.12-0.32-1.568 0.72-2.368-0.464-4.080-2.128-5.344-2.080-1.6-4.352-3.008-6.656-4.288-0.608-0.336-2.144-0.144-2.416 0.304-1.2 2-3.024 2.448-5.072 2.672-1.984 0.224-3.968 0.544-5.968 0.816-5.216 0.736-8.528 4.096-9.248 9.28-0.16 1.184-0.384 2.368-0.64 3.536-0.88 3.968 0.096 6.48 3.568 8.544 3.968 2.32 8.272 3.536 12.896 3.312zM110.736 263.392c0.048 0.176 0.064 0.368 0.096 0.544 2.048-0.608 4.128-1.152 6.16-1.84 1.808-0.64 3.488-1.792 5.344-2.128 3.792-0.704 4.976-3.536 5.232-6.56 0.4-4.608-0.48-9.136-3.264-13.040-2.16-3.024-4.96-4.24-8.88-4.544-4.128-0.32-8-0.128-11.792 1.248-5.184 1.888-8.864 8.736-7.2 13.968 1.12 3.552 2.896 6.928 4.656 10.24 0.528 0.96 1.904 1.872 3.008 2.032 2.144 0.32 4.4 0.096 6.608 0.096zM252.56 101.456c-0.48-3.088-4.864-9.52-7.744-10.64-0.624-0.24-1.424-0.16-2.080-0.048-1.632 0.336-3.232 0.848-4.88 1.184-9.424 2.032-14.512 7.888-14.16 16.352 0.224 5.536 4.128 10.096 9.568 11.184 4.56 0.896 9.072 0.976 13.424-0.976 0.848-0.384 1.888-1.184 2.112-1.984 1.392-4.992 2.544-10.032 3.792-15.072zM103.104 233.152c1.088 0.176 2.128 0.496 3.184 0.496 2.768-0.032 5.52-0.16 8.272-0.384 0.32-0.016 0.928-1.248 0.8-1.36-0.624-0.656-1.392-1.584-2.192-1.648-2.352-0.208-4.736-0.032-7.12-0.032-1.728 0-2.624 0.896-2.928 2.928zM274.576 389.232c1.056 0.72 1.504 1.28 1.808 1.232 3.456-0.848 6.928-1.728 10.304-2.816 0.448-0.144 0.528-1.472 0.784-2.224-0.8-0.208-1.68-0.72-2.368-0.528-2.144 0.624-4.208 1.488-6.304 2.32-1.264 0.528-2.496 1.168-4.24 2zM271.36 388.944c-2.608 0-4.992-0.016-7.392 0.016-1.28 0.016-2.368 0.64-2.048 2.032 0.304 1.248 1.152 2.368 1.76 3.552 0.768-0.608 1.488-1.312 2.304-1.808 0.928-0.544 1.984-1.344 2.912-1.264 2.144 0.208 2.848-0.496 2.448-2.528zM284.384 365.104c-1.568 1.472-2.368 4.032-2.288 7.392 0.016 0.64 0.288 1.648 0.72 1.824 0.576 0.256 1.568 0.096 2.16-0.24 2.896-1.632 2.608-6.496-0.608-8.976zM326.784 360.752c-3.072 0.288-8.8 5.68-8.608 7.984 4.256-0.080 8.8-4.208 8.608-7.984zM422.912 243.552c3.616 0.304 6-2.912 4.64-6.208-0.16-0.384-1.664-0.72-1.76-0.56-1.392 2.064-3.344 3.92-2.864 6.768zM278.752 102.416c-0.576-1.424-1.008-2.624-1.584-3.728-0.256-0.48-0.864-1.168-1.248-1.12-0.48 0.064-1.056 0.688-1.264 1.2-0.864 2.256 0.416 3.776 1.968 5.344 0.72-0.576 1.392-1.12 2.128-1.68zM216.224 440.304c0.128-0.32 0.24-0.624 0.368-0.944-0.88-1.504-1.744-3.008-2.624-4.512-0.72-1.2-2.144-0.864-2.112-0.048 0.064 1.52 0.736 3.152 1.6 4.448 0.448 0.656 1.824 0.72 2.768 1.040zM240.336 87.024c-0.88-0.656-1.472-1.36-1.728-1.264-1.52 0.56-3.008 1.248-4.416 2.064-0.224 0.128 0.016 1.088 0.064 1.664 1.264-0.16 2.592-0.144 3.808-0.528 0.72-0.256 1.28-1.088 2.288-1.952zM426.272 233.328c0.896 0.96 1.344 1.808 2 2.048 0.944 0.336 2.464-2.080 2.144-3.728-0.16-0.784-1.008-1.424-1.552-2.128-0.8 1.2-1.632 2.416-2.608 3.808zM172.576 172.64c-1.232 1.792-2.208 2.896-2.736 4.192-0.144 0.368 1.024 1.264 1.584 1.92 0.896-1.12 1.952-2.16 2.608-3.408 0.176-0.368-0.688-1.312-1.472-2.704zM236.512 487.6c0.032-0.32 0.208-0.656 0.128-0.944-0.176-0.544-0.528-1.040-0.784-1.568-0.496 0.384-1.152 0.688-1.44 1.168-0.368 0.576-0.768 1.488-0.544 1.984 0.4 0.976 1.248 1.792 1.888 2.672 0.256-0.864 0.528-1.744 0.768-2.608 0.032-0.224 0-0.464 0-0.704zM360.176 325.12c1.312-1.728 2.384-3.136 3.52-4.64-0.72-0.624-1.248-1.056-2-1.712-0.544 2.144-3.936 3.136-1.504 6.336zM121.088 167.184c-3.872 0.704-4.864 2.272-3.184 5.312 1.104-1.824 2-3.328 3.184-5.312zM224.256 463.968c1.36-1.2 1.184-1.952-1.408-4.24-0.48 0.464-0.976 0.944-1.68 1.632 1.184 0.976 2.128 1.792 3.088 2.608zM217.504 445.232c-1.152 1.52-1.68 2.832-0.208 3.792 0.48 0.304 1.6-0.4 2.784-0.768-1.088-1.264-1.744-2.048-2.592-3.024zM120.048 230.064c1.952 0.544 2.752 3.36 5.504 0.848-1.984-0.288-2.848-2.864-5.504-0.848zM409.952 239.040c0.4-1.632 0.64-2.608 0.88-3.568-1.104 0.032-2.208 0.080-3.312 0.128-0.064 0.288-0.128 0.544-0.16 0.816 0.656 0.656 1.312 1.328 2.592 2.624zM155.824 288.32c-0.304-0.096-0.624-0.208-0.928-0.32-0.768 0.64-1.504 1.312-2.304 1.968 0.928 1.12 1.744 2.112 2.816 0.736 0.448-0.56 0.304-1.584 0.416-2.384zM345.504 221.28c-0.528 1.328-0.896 2.352-1.312 3.36 1.184-0.416 2.352-0.816 4-1.408-1.12-0.8-1.632-1.168-2.688-1.952zM443.056 215.824c-0.528 0.56-0.96 1.040-1.504 1.648 0.688 0.64 1.232 1.168 1.84 1.76 0.656-0.624 1.184-1.12 1.792-1.712-0.8-0.64-1.408-1.104-2.128-1.712zM192.688 372.576c2.064-2.576 1.872-3.248-1.008-4.032 0.32 1.28 0.624 2.464 1.008 4.032zM190.816 103.568c0.288-0.016 0.544-0.064 0.816-0.080 0.064-0.784 0.128-1.584 0.208-2.368-0.88 0.144-1.76 0.288-3.184 0.528 1.040 0.928 1.6 1.424 2.16 1.92z"></path>
<path fill="#fff" d="M215.152 312.496c-10.656-0.4-21.072-2-31.040-5.888-1.168-0.448-2.336-1.168-3.184-2.048-2.384-2.384-4.592-4.912-6.848-7.44-1.632-1.84-2.208-3.872-1.52-6.416 1.152-4.272 3.136-7.872 6.992-10.256 1.44-0.896 2.24-1.904 1.2-3.776-0.288-0.496 0.32-2.032 0.944-2.416 3.28-2.048 6.8-2.816 10.528-1.12 4.8 2.192 9.648 4.288 14.448 6.544 6.528 3.072 13.008 6.224 19.488 9.328 0.224 0.096 0.416 0.224 0.64 0.32 4.912 2.368 4.976 2.752 2.304 7.392-1.312 2.288-2.112 4.864-3.472 7.104-1.52 2.496-3.184 4.992-5.232 7.040-1.248 1.232-3.36 1.584-5.056 2.352-0.080-0.224-0.128-0.48-0.16-0.72zM180.128 287.968c2.128-1.952 2.128-1.968 0.48-3.408-0.56 0.624-1.152 1.248-1.792 1.92 0.496 0.576 0.896 1.040 1.312 1.488z"></path>
<path fill="#fff" d="M268.672 306.112c-4.592-0.624-8.528-1.792-11.696-5.12-1.92-2.032-4.048-3.872-6.128-5.776-1.040-0.96-1.344-1.792-0.128-2.992 0.72-0.704 1.040-1.92 1.28-2.976 0.496-2.208 1.744-2.992 4-2.816 1.12 0.096 2.416-0.304 3.472-0.784 9.008-4.096 16.768-10.544 26.352-13.568 2.352-0.736 4.32-0.8 6.352 0.64 4.576 3.216 7.904 9.968 6.8 14.192-0.976 3.808-3.264 6.496-7.056 7.888-1.104 0.4-2.128 1.056-3.152 1.68-3.472 2.144-6.784 4.64-10.432 6.416-2.992 1.488-6.416 2.16-9.68 3.184z"></path>
<path fill="#fff" d="M227.12 343.712c-0.48-1.952-1.184-3.568-1.248-5.232-0.16-4-0.064-8 0-12.016 0.064-4.896 2.048-9.12 4.592-13.184 0.8-1.28 0.72-3.088 1.232-4.608 0.304-0.944 0.72-2.288 1.472-2.592 1.968-0.816 4.096-1.44 6.224-1.648 3.072-0.32 5.136 1.2 6.464 3.968 0.864 1.792 2 3.408 2.864 5.2 1.040 2.224 2.496 4.448 2.768 6.832 0.8 6.656 1.104 13.392 1.584 20.096 0.144 2.032-0.24 3.728-2.816 3.792-0.080 0-0.176 0.016-0.224 0.064-3.008 3.104-5.104 0.896-7.344-1.184-3.76-3.44-7.92-3.84-12.384-1.264-0.864 0.496-1.712 0.96-3.184 1.808zM237.776 325.104c1.552-0.784 3.008-3.968 2.448-5.232-0.176-0.384-0.64-0.816-1.024-0.864s-0.96 0.32-1.12 0.688c-0.896 1.728-1.36 3.536-0.304 5.424zM231.872 332.496c-0.32 0-0.64 0-0.96-0.016-0.064 1.6-0.144 3.216-0.208 4.816 0.56-0.128 1.424-0.064 1.664-0.416 1.040-1.52 1.008-3.072-0.496-4.368z"></path>
</svg>
