<!-- Generated by IcoMoon.io -->
<svg version="1.1" xmlns="http://www.w3.org/2000/svg" width="33" height="32" viewBox="0 0 33 32">
<title>fighters-scout</title>
<path fill="#fff" d="M32.797 0.532c-0.44 0.725-0.899 1.438-1.314 2.178-0.561 0.997-1.171 1.967-1.589 3.039-0.176 0.449-0.344 0.914-0.603 1.314-0.201 0.31-0.36 0.632-0.507 0.964-0.558 1.267-1.106 2.54-1.661 3.809-0.189 0.431-0.397 0.854-0.579 1.288-0.090 0.214-0.148 0.445-0.199 0.672-0.041 0.182-0.118 0.239-0.297 0.174-0.347-0.127-0.521-0.499-0.411-0.845 0.105-0.328 0.173-0.656 0.083-1.007-0.040-0.154-0.007-0.326-0.010-0.49-0.012-0.56-0.022-1.121-0.040-1.681-0.018-0.555-0.043-1.109-0.066-1.664-0.009-0.207-0.021-0.413-0.038-0.619-0.018-0.192-0.1-0.236-0.273-0.148-0.061 0.031-0.117 0.080-0.162 0.133-0.425 0.483-0.837 0.978-1.276 1.449-0.267 0.287-0.585 0.527-0.862 0.805-0.437 0.439-0.898 0.854-1.244 1.378-0.095 0.143-0.257 0.242-0.378 0.369-0.226 0.238-0.461 0.471-0.665 0.728-0.419 0.529-0.831 1.065-1.229 1.61-0.826 1.133-1.787 2.161-2.555 3.341-0.634 0.973-1.277 1.938-1.812 2.97-0.096 0.185-0.227 0.35-0.344 0.524-0.019-0.004-0.038-0.009-0.058-0.015-0.019-0.069-0.050-0.137-0.058-0.207-0.013-0.128 0.003-0.261-0.019-0.388-0.043-0.247-0.093-0.495-0.161-0.735-0.049-0.174-0.145-0.335-0.192-0.511-0.056-0.202-0.202-0.233-0.374-0.263-0.168-0.030-0.267 0.021-0.365 0.168-0.632 0.969-1.272 1.932-1.917 2.892-0.108 0.161-0.247 0.301-0.383 0.442-0.276 0.287-0.49 0.613-0.7 0.951-0.201 0.322-0.481 0.592-0.73 0.883-0.066 0.078-0.158 0.077-0.211-0.006-0.061-0.096-0.14-0.213-0.13-0.313 0.027-0.272 0.038-0.555 0.226-0.787 0.033-0.040 0.041-0.111 0.038-0.165-0.004-0.069-0.025-0.139-0.050-0.205-0.139-0.365-0.164-0.36-0.552-0.384-0.303-0.018-0.604-0.095-0.905-0.143-0.162-0.027-0.325-0.068-0.487-0.077-0.648-0.034-1.297-0.065-1.946-0.086-0.737-0.024-1.084 0.040-2.237 0.381-0.055-0.205-0.016-0.396 0.071-0.579 0.062-0.133 0.121-0.275 0.213-0.385 0.086-0.105 0.202-0.196 0.323-0.26 0.219-0.114 0.452-0.201 0.676-0.301 0.786-0.352 1.574-0.699 2.357-1.056 0.932-0.427 1.784-0.966 2.559-1.654 0.433-0.384 0.851-0.799 1.32-1.139 0.535-0.388 0.987-0.857 1.477-1.291 0.421-0.374 0.799-0.783 1.195-1.178 0.112-0.112 0.244-0.205 0.378-0.291 0.325-0.207 0.554-0.486 0.699-0.843 0.047-0.115 0.142-0.213 0.191-0.328 0.052-0.121 0.075-0.254 0.114-0.394 0.019 0.003 0.052 0.007 0.083 0.016 0.158 0.046 0.266-0.001 0.356-0.145 0.214-0.338 0.442-0.668 0.67-1.010 0.186 0.1 0.291 0.244 0.328 0.43 0.022 0.109 0.031 0.223 0.025 0.334-0.019 0.385 0.080 0.474 0.465 0.403 0.024-0.004 0.050-0.012 0.069-0.004 0.26 0.092 0.371-0.081 0.459-0.269 0.227-0.484 0.563-0.874 0.972-1.221 0.326-0.278 0.598-0.62 0.902-0.925 0.851-0.854 1.715-1.694 2.555-2.556 0.473-0.486 0.914-1.001 1.359-1.514 0.068-0.078 0.127-0.238 0.092-0.309-0.040-0.077-0.196-0.131-0.301-0.13-0.678 0.012-1.357 0.028-2.035 0.071-0.535 0.034-1.059 0.059-1.573-0.137-0.128-0.049-0.278-0.056-0.418-0.059-0.319-0.007-0.638 0-0.957-0.001-0.061 0-0.121-0.009-0.216-0.016 0.047-0.044 0.061-0.065 0.080-0.072 0.087-0.041 0.207-0.052 0.186-0.195s-0.105-0.238-0.239-0.279c-0.059-0.018-0.133-0.027-0.191-0.009-0.185 0.055-0.23-0.041-0.233-0.195 0-0.041 0-0.083 0-0.149 0.086 0 0.176-0.019 0.256 0.003 0.347 0.096 0.684 0.044 1.007-0.081 0.932-0.363 1.913-0.557 2.872-0.823 0.14-0.038 0.295-0.031 0.436-0.071 0.266-0.074 0.536-0.142 0.786-0.256 0.631-0.286 1.273-0.527 1.954-0.668 0.247-0.050 0.489-0.136 0.724-0.23 1.434-0.586 2.933-0.969 4.408-1.425 0.678-0.21 1.34-0.455 1.975-0.772 0.182-0.092 0.359-0.193 0.538-0.291 0.012 0 0.024 0 0.035 0 0.083 0.106 0.165 0.213 0.248 0.319-0.006 0.072-0.006 0.143-0.006 0.214z"></path>
<path fill="#fff" d="M8.112 17.515c-0.341 0.143-0.702 0.289-1.056 0.446-0.436 0.193-0.867 0.397-1.303 0.594-0.128 0.058-0.258 0.117-0.393 0.154-0.142 0.038-0.227 0.103-0.248 0.257-0.024 0.177-0.131 0.297-0.294 0.371-0.39 0.173-0.8 0.294-1.156 0.545-0.183 0.13-0.388 0.204-0.623 0.052-0.149-0.096-0.284-0.016-0.338 0.162-0.117 0.378-0.165 0.759-0.043 1.149 0.071 0.224 0.121 0.456 0.195 0.679 0.037 0.115 0.117 0.217 0.154 0.332 0.050 0.155 0.111 0.316 0.111 0.474 0 0.284 0.097 0.49 0.316 0.673 0.128 0.108 0.207 0.281 0.288 0.434 0.065 0.124 0.095 0.267 0.152 0.396 0.106 0.232 0.258 0.315 0.512 0.284 0.322-0.040 0.647-0.066 0.964-0.134 0.171-0.037 0.343-0.123 0.486-0.226 0.193-0.139 0.371-0.287 0.619-0.322 0.068-0.009 0.136-0.069 0.189-0.12 0.193-0.18 0.393-0.329 0.679-0.34 0.090-0.003 0.189-0.108 0.263-0.185 0.134-0.14 0.452-0.248 0.628-0.185 0.035 0.013 0.080 0.065 0.080 0.097-0.001 0.109 0.006 0.232-0.041 0.325-0.134 0.269-0.285 0.53-0.443 0.786-0.195 0.315-0.332 0.648-0.406 1.012-0.027 0.13-0.086 0.254-0.137 0.378-0.173 0.412-0.362 0.818-0.521 1.236-0.111 0.292 0.037 0.545 0.332 0.662 0.13 0.050 0.25 0.127 0.372 0.195 0.097 0.055 0.189 0.12 0.289 0.171 0.337 0.171 0.666 0.359 1.015 0.499 0.276 0.111 0.575 0.165 0.865 0.235 0.227 0.055 0.462 0.081 0.687 0.143 0.232 0.064 0.266 0.058 0.331-0.167 0.006-0.022 0.010-0.046 0.018-0.068 0.077-0.254 0.086-0.258 0.349-0.191 0.235 0.061 0.25 0.046 0.294-0.199 0.015-0.084 0.052-0.168 0.092-0.245 0.179-0.337 0.377-0.665 0.542-1.007 0.176-0.366 0.331-0.743 0.477-1.122 0.062-0.162 0.087-0.341 0.114-0.514 0.043-0.285 0.062-0.573 0.108-0.857 0.087-0.554 0.177-1.106 0.282-1.657 0.041-0.219 0.136-0.425 0.188-0.642 0.038-0.162 0.047-0.331 0.068-0.496 0.037-0.309 0.035-0.628 0.216-0.899 0.033-0.050 0.093-0.081 0.142-0.12 0.035 0.050 0.095 0.097 0.103 0.152 0.049 0.313 0.155 0.638 0.115 0.942-0.112 0.855 0.037 1.695 0.063 2.543 0.028 0.93 0.316 1.809 0.498 2.709 0.027 0.13 0.012 0.269 0.038 0.4 0.043 0.211 0.102 0.418 0.155 0.626 0.024 0.095 0.044 0.192 0.078 0.284 0.044 0.124 0.066 0.287 0.157 0.359 0.205 0.164 0.442 0.289 0.675 0.413 0.056 0.030 0.165 0.021 0.219-0.016 0.318-0.217 0.691-0.22 1.046-0.3 0.477-0.108 0.958-0.202 1.421-0.354 0.871-0.288 1.221-1.325 0.854-2.076-0.199-0.406-0.402-0.834-0.468-1.273-0.099-0.66-0.349-1.241-0.678-1.794 0.164-0.207 0.291-0.222 0.467-0.061 0.323 0.294 0.642 0.592 0.836 0.997 0.050 0.103 0.133 0.195 0.213 0.281 0.461 0.502 1.019 0.886 1.57 1.277 0.245 0.174 0.507 0.096 0.654-0.162 0.185-0.322 0.38-0.639 0.576-0.954 0.229-0.365 0.495-0.707 0.69-1.088 0.233-0.459 0.449-0.936 0.597-1.427 0.102-0.337 0.077-0.713 0.102-1.072 0.007-0.118-0.046-0.213-0.174-0.23-0.891-0.123-1.703-0.501-2.55-0.761-0.639-0.196-1.308-0.295-1.963-0.439-0.294-0.064-0.586-0.136-0.882-0.191-0.114-0.022-0.242-0.037-0.352-0.009-0.258 0.069-0.47-0.027-0.706-0.148 0.117-0.066 0.211-0.14 0.319-0.18 0.536-0.196 1.057-0.422 1.656-0.416 0.359 0.003 0.722-0.099 1.078-0.177 1.204-0.264 2.404-0.541 3.606-0.812 0.115-0.027 0.23-0.053 0.346-0.077 0.109-0.022 0.167-0.081 0.157-0.196-0.034-0.359-0.065-0.718-0.106-1.075-0.007-0.058-0.046-0.134-0.093-0.161-0.145-0.080-0.16-0.202-0.158-0.346 0-0.338-0.108-0.635-0.356-0.877-0.084-0.081-0.149-0.183-0.222-0.276-0.108-0.14-0.244-0.177-0.408-0.117-0.53 0.195-1.057 0.394-1.591 0.58-0.238 0.084-0.481 0.149-0.727 0.208-0.046 0.012-0.13-0.034-0.16-0.078-0.028-0.043-0.032-0.131-0.004-0.174 0.087-0.14 0.18-0.279 0.294-0.397 0.452-0.473 0.919-0.933 1.369-1.407 0.189-0.199 0.356-0.421 0.532-0.634 0.034-0.041 0.061-0.090 0.1-0.123 0.223-0.174 0.349-0.412 0.455-0.665 0.034-0.081 0.069-0.164 0.12-0.236 0.123-0.174 0.337-0.204 0.465-0.037 0.161 0.208 0.294 0.44 0.416 0.673 0.077 0.149 0.165 0.253 0.322 0.328 0.143 0.068 0.282 0.179 0.378 0.304 0.828 1.071 1.207 2.313 1.322 3.64 0.047 0.538 0.072 1.085 0.024 1.62-0.044 0.504 0.038 0.985 0.075 1.478 0.052 0.687 0.047 1.369-0.126 2.053-0.294 1.167-0.614 2.325-1.077 3.437-0.081 0.195-0.177 0.388-0.301 0.558-0.443 0.604-0.899 1.199-1.354 1.796-0.227 0.298-0.499 0.545-0.814 0.755-0.145 0.096-0.242 0.261-0.359 0.397-0.031 0.035-0.047 0.084-0.081 0.114-0.536 0.442-1.052 0.902-1.731 1.143-0.4 0.142-0.753 0.409-1.133 0.613-0.349 0.186-0.703 0.36-1.053 0.542-0.068 0.035-0.155 0.061-0.195 0.118-0.13 0.192-0.334 0.242-0.53 0.322-0.185 0.074-0.359 0.179-0.53 0.281-0.385 0.227-0.784 0.382-1.244 0.291-0.034-0.007-0.072-0.009-0.106-0.003-0.561 0.092-1.117-0.068-1.676-0.035-0.081 0.004-0.164-0.015-0.245-0.031-0.134-0.025-0.214-0.109-0.255-0.241-0.021-0.064-0.055-0.136-0.105-0.171-0.044-0.031-0.126-0.030-0.18-0.012-0.027 0.009-0.047 0.092-0.040 0.136 0.021 0.137-0.038 0.182-0.167 0.179-0.196-0.004-0.39 0.001-0.549-0.146-0.035-0.034-0.111-0.037-0.167-0.035-0.984 0.041-1.918-0.202-2.846-0.489-0.077-0.024-0.167-0.050-0.241-0.031-0.196 0.052-0.354-0.019-0.52-0.106-0.378-0.201-0.762-0.391-1.145-0.585-0.068-0.035-0.143-0.062-0.204-0.106-0.608-0.446-1.292-0.786-1.83-1.331-0.134-0.137-0.303-0.245-0.465-0.35-0.35-0.227-0.614-0.532-0.833-0.88-0.030-0.047-0.065-0.105-0.112-0.127-0.229-0.106-0.329-0.295-0.365-0.529-0.025-0.165-0.090-0.236-0.273-0.298-0.158-0.053-0.282-0.281-0.365-0.458-0.080-0.17-0.090-0.374-0.126-0.564-0.009-0.049 0.004-0.1 0.046-0.167 0.041 0.050 0.087 0.097 0.123 0.152 0.097 0.149 0.224 0.148 0.309-0.013 0.111-0.214 0.124-0.437-0.013-0.641-0.224-0.332-0.378-0.693-0.49-1.074-0.037-0.126-0.124-0.192-0.248-0.251-0.137-0.065-0.263-0.177-0.363-0.294-0.111-0.127-0.227-0.189-0.396-0.188-0.146 0.001-0.292-0.030-0.439-0.044-0.047-0.004-0.102-0.024-0.139-0.006-0.182 0.089-0.282-0.010-0.353-0.152-0.089-0.179-0.185-0.359-0.239-0.548-0.227-0.795-0.411-1.599-0.456-2.429-0.006-0.097-0.058-0.192-0.068-0.291-0.016-0.149-0.024-0.301-0.018-0.45 0.006-0.14 0.040-0.279 0.052-0.419 0.075-0.888 0.142-1.775 0.226-2.663 0.027-0.287 0.062-0.58 0.152-0.852 0.133-0.4 0.322-0.783 0.481-1.176 0.034-0.084 0.032-0.183 0.061-0.27 0.049-0.155 0.097-0.312 0.165-0.459 0.105-0.23 0.242-0.446 0.335-0.681 0.328-0.821 0.79-1.571 1.393-2.203 1.111-1.165 2.246-2.314 3.654-3.141 0.167-0.099 0.328-0.211 0.483-0.329 0.554-0.425 1.196-0.697 1.853-0.849 0.477-0.111 0.939-0.295 1.437-0.341 0.319-0.030 0.638-0.114 0.948-0.205 0.418-0.123 0.845-0.146 1.276-0.17 0.335-0.019 0.67-0.064 1.004-0.095 0.418-0.038 0.824-0.009 1.207 0.192 0.092 0.047 0.202 0.064 0.306 0.081 1.075 0.182 2.031 0.638 2.914 1.261 0.047 0.034 0.087 0.080 0.127 0.123 0.142 0.151 0.312 0.216 0.521 0.22 0.17 0.003 0.34 0.032 0.505 0.071 0.176 0.040 0.205 0.148 0.058 0.253-0.102 0.072-0.244 0.123-0.368 0.123-0.224-0.001-0.421 0.021-0.564 0.222-0.034 0.049-0.105 0.074-0.162 0.102-0.287 0.133-0.511 0.332-0.684 0.598-0.047 0.074-0.139 0.117-0.202 0.183-0.108 0.111-0.232 0.216-0.312 0.347-0.148 0.242-0.27 0.267-0.518 0.131-0.354-0.193-0.6-0.49-0.845-0.793-0.164-0.202-0.329-0.196-0.489 0.012-0.028 0.037-0.056 0.078-0.069 0.123-0.205 0.662-0.461 1.306-0.634 1.982-0.239 0.941-0.561 1.867-1.241 2.61-0.033 0.035-0.062 0.071-0.095 0.106-0.012 0.013-0.027 0.022-0.058 0.047-0.027-0.090-0.050-0.171-0.074-0.253-0.084-0.288-0.179-0.575-0.251-0.865-0.161-0.644-0.346-1.286-0.254-1.966 0.012-0.092 0-0.189-0.007-0.282-0.031-0.406-0.068-0.811-0.096-1.217-0.013-0.204-0.040-0.226-0.241-0.233-0.871-0.033-1.69 0.241-2.518 0.446-0.422 0.105-0.836 0.247-1.254 0.371-0.18 0.053-0.25 0.176-0.202 0.351 0.14 0.517 0.266 1.040 0.437 1.546 0.204 0.603 0.452 1.19 0.679 1.786 0.019 0.049 0.053 0.103 0.047 0.151-0.015 0.106-0.022 0.235-0.087 0.303-0.043 0.046-0.183 0.019-0.273-0.003-0.084-0.019-0.161-0.072-0.238-0.117-0.606-0.344-1.21-0.687-1.812-1.035-0.090-0.052-0.168-0.126-0.253-0.189-0.112-0.084-0.229-0.161-0.335-0.253-0.102-0.087-0.204-0.179-0.282-0.285-0.183-0.25-0.39-0.289-0.608-0.072-0.226 0.224-0.428 0.473-0.641 0.71-0.075 0.084-0.136 0.195-0.229 0.244-0.282 0.151-0.413 0.403-0.524 0.681-0.041 0.103-0.099 0.202-0.158 0.297-0.298 0.471-0.536 0.96-0.586 1.53-0.031 0.351-0.105 0.7-0.174 1.046-0.047 0.236-0.137 0.459-0.084 0.712 0.028 0.131 0.084 0.185 0.21 0.185 0.148 0 0.297 0.018 0.442-0.001 0.115-0.016 0.233-0.062 0.334-0.121 0.093-0.056 0.161-0.077 0.273-0.032 0.121 0.047 0.264 0.052 0.399 0.055 0.691 0.013 1.382 0.010 2.072 0.032 0.222 0.007 0.442 0.072 0.662 0.112 0.024 0.004 0.046 0.013 0.066 0.024 0.25 0.108 0.493 0.226 0.758 0.354zM10.931 29.501c0.037-0.003 0.108 0.012 0.126-0.012 0.052-0.069 0.118-0.158 0.112-0.235-0.012-0.14-0.112-0.092-0.195-0.047-0.056 0.030-0.121 0.049-0.174 0.083-0.044 0.030-0.078 0.075-0.118 0.114 0.050 0.030 0.099 0.064 0.152 0.087 0.025 0.012 0.058 0.007 0.097 0.010zM3.849 26.805c-0.010-0.105-0.009-0.198-0.031-0.284-0.010-0.040-0.068-0.066-0.103-0.1-0.030 0.040-0.078 0.078-0.084 0.121-0.021 0.145 0.056 0.226 0.219 0.263zM24.019 20.903c0.145-0.158 0.157-0.253 0.046-0.428-0.074 0.143-0.151 0.272-0.046 0.428z"></path>
</svg>
