<!-- Generated by IcoMoon.io -->
<svg version="1.1" xmlns="http://www.w3.org/2000/svg" width="512" height="512" viewBox="0 0 512 512">
<title>fighters-elite</title>
<path fill="#fff" d="M265.936 0c2.368 1.36 2.784 3.632 3.12 6.096 0.736 5.6 1.552 11.216 2.512 16.8 0.304 1.712 1.36 3.312 1.84 5.024 0.704 2.448 1.184 4.976 1.84 7.424 0.48 1.696 0.752 3.648 1.776 4.96 1.888 2.384 2.688 4.96 2.656 7.856-0.016 2.624 1.184 4.64 2.384 6.88 1.552 2.864 2.192 6.208 3.344 9.296 0.736 1.952 1.616 3.888 2.576 5.76 2.272 4.432 5.376 8.592 6.848 13.28 5.136 16.208 12.992 30.912 22.976 44.56 0.336 0.496 0.688 0.992 1.008 1.488 0.080 0.128 0.048 0.32 0.144 1.152-6.656 0.544-13.296 1.312-19.952 1.584-6.704 0.272-13.424 0.064-20.208 0.064 0 3.456 1.888 4.4 4.224 4.88 5.104 1.056 10.368 1.648 15.312 3.248 7.168 2.304 14.512 4.56 21.024 8.208 7.712 4.336 14.848 9.808 21.776 15.376 5.264 4.224 9.792 9.344 14.64 14.064 0.368 0.368 0.752 0.736 1.008 1.152 4.208 7.456 10.656 13.216 15.36 20.384 5.584 8.544 10.016 17.312 12.4 27.184 1.216 5.104 1.328 5.088 6.384 3.52 5.456-1.68 5.856-2.112 6-7.92 0.192-8.336 0.192-16.672 0.48-24.992 0.048-1.488 0.992-2.944 1.52-4.4 1.52 0.8 3.216 1.376 4.56 2.432 3.44 2.64 6.384 6.16 10.144 8.144 12.432 6.528 25.088 12.624 37.776 18.656 3.648 1.744 7.664 2.832 11.584 3.936 3.44 0.96 6.672 2.064 9.168 4.832 0.768 0.864 1.872 1.568 2.944 2.016 4.96 2.048 10.016 3.936 14.992 5.952 6.832 2.768 13.664 5.568 20.448 8.416 1.952 0.816 1.632 2.32 0.176 3.072-4.768 2.448-9.648 4.688-14.544 6.88-2.32 1.024-5.136 1.312-7.104 2.768-6.384 4.688-13.568 7.648-20.768 10.672-4.896 2.064-9.728 4.128-13.616 8.096-1.76 1.808-4.704 2.384-6.944 3.808-6.384 4.016-12.656 8.16-18.992 12.256-0.576 0.368-1.136 0.832-1.76 1.056-8.704 2.896-15.68 8.768-23.328 13.488-0.896 0.56-1.968 0.832-2.96 1.216-0.256-1.024-0.752-2.080-0.752-3.12 0.080-8.992 0.208-18 0.416-26.992 0.080-3.808-0.24-4.272-4.064-4.56-2.064-0.144-4.128-0.208-6.192-0.32-2-0.112-3.216 0.736-3.072 2.832 0.88 11.984-3.136 23.072-6.656 34.128-2.048 6.448-4.832 12.736-9.872 17.936-5.6 5.776-10.368 12.352-15.488 18.592-0.704 0.864-1.456 1.744-1.936 2.72-3.584 7.424-9.552 12.656-15.888 17.616-3.216 2.528-6.16 5.456-9.232 8.176-0.96 0.864-1.872 1.808-2.96 2.464-8.048 4.848-16.128 9.68-24.224 14.432-1.008 0.576-2.208 1.008-3.344 1.136-1.68 0.176-2.208 1.024-2.208 2.528-0.016 1.552 0.416 2.816 2.192 2.896 7.424 0.272 14.864 1.216 22.272-0.752 5.072-1.36 10.096-0.24 15.872 1.44-1.456 1.264-2.336 1.952-3.152 2.72-1.648 1.552-3.264 3.12-4.912 4.656-0.608 0.56-1.168 1.376-1.872 1.552-2.688 0.64-4.208 2.496-5.536 4.688-3.392 5.584-6.544 11.312-10.24 16.672-7.2 10.432-14.704 20.656-22.016 31.008-2.128 3.008-3.616 6.528-6.080 9.152-5.568 5.904-8.16 13.408-11.776 20.368-2.32 4.464-4.656 8.928-6.96 13.424-0.88 1.712-1.616 3.52-2.752 5.968-0.896-1.76-1.776-2.992-2.208-4.368-1.936-6.192-4.16-12.128-8.528-17.136-1.088-1.264-1.52-3.248-1.936-4.96-0.448-1.824-1.36-2.768-3.264-3.024-3.472-0.48-4.384-2.256-2.752-5.392 1.968-3.808 3.632-7.632 2.208-12.032-0.192-0.576-0.4-1.136-0.64-1.68-0.112-0.208-0.272-0.416-0.56-0.8-1.008 1.936-1.888 3.632-3.056 5.856-1.072-1.168-2.112-1.936-2.688-2.944-3.936-6.848-7.712-13.76-11.68-20.592-1.152-2-2.64-3.808-4.080-5.6-4.464-5.568-9.168-10.928-13.424-16.624-3.712-4.976-7.648-9.616-12.8-13.184-0.672-0.48-1.136-1.248-2.176-2.464 1.824-0.512 3.184-1.2 4.576-1.248 10.224-0.336 20.432-0.544 30.656-0.8 1.024-0.016 2.064-0.112 3.088-0.176 1.616-0.080 2.992-0.56 2.864-2.512-0.128-1.776-1.184-2.576-3.008-2.88-5.568-0.896-11.104-1.904-16.624-3.12-1.808-0.384-3.568-1.296-5.152-2.24-6.064-3.584-12.256-6.976-18-11.024-14.864-10.464-28.592-22.256-40.272-36.24-6.128-7.328-10.72-15.696-12.736-25.024-1.776-8.24-2.576-16.752-3.44-25.168-0.688-6.656-0.832-13.36-1.12-20.032-0.080-2.016-0.816-2.768-2.88-2.464-1.36 0.208-2.752 0.048-4.128 0.064-3.024 0.016-3.872 0.768-3.84 3.776 0 4.128 0.064 8.24 0.144 12.352 0.112 5.024 0.192 10.032 0.384 15.056 0.080 2.016-1.12 2.944-3.136 1.968-1.84-0.88-3.616-1.968-5.392-3.008-5.664-3.344-11.344-6.704-17.008-10.080-0.144-0.080-0.272-0.208-0.432-0.256-7.52-2-13.248-7.424-20.16-10.544-1.808-0.816-3.888-1.184-5.888-1.424-10.112-1.2-19.152-4.976-27.28-11.104-1.328-1.008-2.88-1.776-4.432-2.4-4.624-1.84-9.216-3.76-13.968-5.264-3.888-1.216-7.984-1.712-11.904-2.864-4.080-1.184-8.048-2.688-12.064-4.128-0.48-0.176-0.752-0.832-1.552-1.776 3.648-1.024 6.88-2.432 10.176-2.768 4.528-0.48 8.768-1.52 12.784-3.616 6.144-3.184 12.224-6.272 18.832-8.656 10.176-3.648 19.712-9.024 29.568-13.568 12.048-5.568 24.16-11.024 36.24-16.608 4.576-2.128 9.088-4.4 13.6-6.704 2.448-1.248 3.584-0.624 3.472 2.128-0.128 3.008-0.304 6.016-0.688 8.992-0.816 6.384-0.384 12.672 0.896 18.944 0.368 1.76 0.944 3.152 2.992 3.264 2.192 0.112 4.432 0.064 5.472-2.368 0.544-1.248 0.896-2.592 1.2-3.936 2.528-12.032 8.416-22.352 15.568-32.176 3.008-4.128 6.208-7.904 10.24-11.088 2.112-1.648 3.648-4.080 5.216-6.32 8.208-11.728 19.408-20.016 31.424-27.36 4.752-2.896 9.68-5.536 14.512-8.336 5.952-3.44 12.416-5.376 19.072-6.72 2.56-0.512 4.752-1.552 5.312-5.136-1.696-0.256-3.408-0.864-5.072-0.704-9.744 0.832-19.472 1.872-29.232 2.816-1.152 0.112-2.336 0.016-4.208 0.016 0.88-1.648 1.392-2.864 2.080-3.952 5.248-8.16 10.624-16.208 15.696-24.464 2.112-3.408 3.616-7.2 5.248-10.864 1.216-2.704 2.32-3.056 5.216-2.624 2.256 0.336 4.832 0.304 6.912-0.496 4.896-1.872 5.408-6.384 1.44-9.872-6.32-5.536-6.416-6.512-1.648-13.344 3.712-5.312 6.848-10.896 7.92-17.424 0.080-0.576 0.272-1.312 0.672-1.632 4.192-3.472 4.576-8.896 6.896-13.312 2.384-4.528 4.784-9.056 7.472-13.424 1.904-3.072 2.384-6.288 2.656-9.776 0.384-4.976 1.52-9.776 5.328-13.472 0.896-0.064 1.76-0.064 2.624-0.064zM269.312 153.824c-17.632 1.488-35.44 5.152-50.336 17.424-1.84 1.52-3.888 2.864-5.952 4.080-5.152 3.072-8.656 7.344-10.624 13.056-1.648 4.768-3.936 9.216-6.736 13.504-4.704 7.152-6.608 15.2-5.568 23.824 0.576 4.688 1.68 9.392 1.456 14.032-0.48 9.52-1.584 18.992-2.592 28.464-0.256 2.448-1.008 4.88-1.808 7.216-2.56 7.568-5.312 15.040-7.84 22.592-0.432 1.312-0.688 3.008-0.208 4.208 2.4 6.336 5.040 12.56 7.632 18.832 0.608 1.44 1.488 2.176 3.216 1.488 0.864-0.336 2.128-0.368 2.944 0.048 8.112 4 16.96 6.256 24.24 12.224 9.136 7.488 14.944 16.304 15.44 28.368 0.208 5.568 1.008 11.104 1.568 16.672 0.144 1.392 0.64 2.864 2.384 1.952 3.76-1.904 7.216-1.584 10.72 0.608 0.768 0.48 1.808 0.512 2.704 0.816 2.112 0.752 3.392 0 4.816-1.696 2.144-2.576 4.272-5.664 8.576-4.448 0.544 0.144 1.248-0.416 1.904-0.608 0.512-0.144 1.296-0.48 1.552-0.256 1.84 1.584 3.712 3.152 5.28 4.976 0.864 0.992 1.088 2.496 1.744 3.712 0.816 1.52 2.064 1.84 3.392 0.688 3.536-3.152 6.192-6.88 6.88-11.728 0.496-3.456 1.088-6.912 1.568-10.4 1.36-9.904 4.944-18.736 12.304-25.68 1.76-1.648 3.808-3.408 6.032-4.128 8.016-2.512 16.112-4.752 24.272-6.784 4.896-1.216 8.544-3.872 10.288-8.48 2.4-6.384 3.28-12.944 0.752-19.616-2.048-5.376-3.584-10.96-5.92-16.176-5.696-12.656-5.776-25.792-4.096-39.168 0.816-6.512 1.216-12.976-0.128-19.456-2.72-13.072-7.424-25.488-12.8-37.648-0.992-2.24-2.496-4.384-4.192-6.128-5.92-6.096-11.92-12.128-18.128-17.936-6.672-6.192-14.864-8.416-24.704-8.448zM331.232 349.84c-4.080-2-7.568-1.584-10.144 0.832-1.424 1.328-2.944 2.576-4.432 3.872-2.96 2.576-5.696 5.216-4.832 9.776 0.144 0.832-0.672 1.824-0.928 2.768-0.256 0.96-0.368 2-0.512 2.992 0.832-0.208 1.776-0.24 2.512-0.672 6.944-3.936 11.744-10.112 16.816-16.016 0.752-0.928 0.96-2.304 1.504-3.536zM346.64 349.52c-3.76 3.088-4.512 7.36-6.72 11.12 4.528-0.832 8.208-6.672 6.72-11.12zM432 287.472c-0.256-0.336-0.544-0.704-0.8-1.056-3.088 1.072-5.712 3.024-8.336 4.96-0.256 0.192-0.208 1.296 0.064 1.568 0.32 0.304 1.2 0.384 1.632 0.176 1.296-0.64 2.528-1.424 3.68-2.304 1.328-1.024 2.512-2.24 3.76-3.344zM259.872 444c0.272 1.84 0.272 3.056 0.688 4.080 0.272 0.736 1.024 1.424 1.744 1.808 0.272 0.144 1.424-0.56 1.488-0.992 0.128-0.816 0.016-1.936-0.48-2.512-0.688-0.832-1.84-1.328-3.44-2.384zM331.696 368.848c-0.256-0.272-0.496-0.544-0.752-0.816-2.016 1.84-4.032 3.696-6.064 5.536 0.304 0.304 0.576 0.624 0.88 0.928 1.968-1.872 3.952-3.76 5.92-5.648zM284.512 385.248c0.128 0.24 0.256 0.48 0.416 0.704 0.928-0.432 2.368-0.64 2.624-1.328 0.384-1.008-0.080-2.32-0.192-3.52-0.192-0.016-0.416-0.016-0.608-0.048-0.752 1.424-1.504 2.784-2.24 4.192zM267.264 481.136c-0.32-0.208-0.64-0.416-0.96-0.624-1.52 0.080-2.528 0.816-2.32 2.512 0.048 0.448 0.992 0.8 1.52 1.2 0.576-1.056 1.184-2.080 1.76-3.088zM313.568 412.736c0.272 0.080 0.544 0.144 0.816 0.24 0.608-1.616 1.248-3.216 1.76-4.848 0.112-0.32-0.304-0.816-0.48-1.216-0.384 0.256-1.056 0.448-1.136 0.8-0.416 1.68-0.64 3.376-0.96 5.040z"></path>
<path fill="#fff" d="M183.184 131.552c-1.52 0.96-3.008 2.048-4.624 2.88-2.928 1.52-6.096 2.576-7.92 5.76-0.672 1.152-2.24 1.824-3.44 2.624-13.168 8.768-26.112 17.712-34.576 31.632-2.752 4.512-5.376 4.576-9.056 0.704-2.4-2.512-3.312-5.648-3.328-8.96-0.048-15.312-2.64-30.304-5.584-45.248-0.704-3.616-1.184-7.28-1.68-10.928-0.416-2.992 1.68-4.624 4.464-3.504 1.824 0.736 3.504 1.872 5.376 2.464 2.992 0.944 6.080 1.616 9.136 2.368 1.072 0.256 2.304 0.144 3.264 0.608 7.472 3.568 16.208 3.472 23.152 9.040 3.632 2.896 8.96 3.68 13.504 5.392 3.744 1.424 7.472 2.816 11.184 4.208 0.048 0.32 0.080 0.64 0.128 0.96z"></path>
<path fill="#fff" d="M342.608 132.144c1.456-3.216 4-4.704 7.088-5.264 10.624-1.904 21.264-3.776 31.92-5.536 7.424-1.232 14.912-2.24 22.352-3.312 3.264-0.48 6.544-0.832 9.84-1.312 1.52-0.24 3.008-0.672 4.512-0.944 1.696-0.304 2.336 0.496 1.712 2.048-1.2 2.992-2.144 5.92-1.12 9.216 0.176 0.544-0.96 1.616-1.632 2.272-1.264 1.248-2.896 2.208-3.904 3.632-3.76 5.264-6.752 10.912-8.72 17.12-1.504 4.72-3.744 9.232-5.136 13.984-1.248 4.224-1.776 8.672-2.624 13.040-0.112 0.576-0.080 1.2-0.176 1.808-0.496 3.456-1.376 3.84-4.272 1.872-0.144-0.080-0.272-0.208-0.432-0.304-6.944-3.904-12.032-9.456-15.424-16.704-2.992-6.352-7.344-11.52-13.312-15.6-7.152-4.832-13.728-10.544-20.688-16z"></path>
<path fill="#fff" d="M155.472 389.088c-5.024 0.208-9.84 1.264-14.352 3.632-1.136 0.608-2.304 1.264-3.52 1.552-8.48 1.872-17.008 3.52-25.472 5.504-4.4 1.024-8.704 2.496-12.992 3.888-1.776 0.576-3.44 1.584-5.248 2.128-1.184 0.336-2.944 0.688-3.696 0.080-1.68-1.312-3.072-3.264-1.904-5.632 1.712-3.52 3.392-7.152 5.584-10.4 3.44-5.072 6.224-10.304 8.464-16.064 5.104-13.168 10.832-26.096 16.288-39.104 0.752-1.776 2.048-2.016 3.12-0.672 1.376 1.696 2.864 3.584 3.376 5.632 1.584 6.4 4.384 12 8.864 16.864 2.080 2.256 3.744 4.912 5.52 7.424 2.176 3.056 4.72 5.568 8.112 7.328 1.456 0.752 2.704 2.384 3.52 3.888 2.080 3.84 4.64 7.168 8.176 9.776 0.8 0.576 1.152 1.712 1.712 2.592-1.008 0.544-1.952 1.216-3.024 1.568-0.752 0.24-1.68 0.016-2.528 0.016z"></path>
<path fill="#fff" d="M425.728 391.984c-3.888 0.448-6.72 1.184-9.296-1.088-1.504-1.328-2.448 0.272-3.184 1.376-0.896 1.36-1.744 1.328-3.2 0.688-8.4-3.696-16.944-6.704-26.224-3.056-4 1.584-7.984 1.712-12.304 0.96-3.28-0.576-6.816 0.336-10.224 0.336-1.184 0-3.008-0.48-3.408-1.312-0.512-1.056-0.368-2.96 0.304-3.952 1.248-1.888 3.056-3.44 4.688-5.040 3.344-3.312 7.136-6.256 10.032-9.904 10.464-13.168 20.624-26.544 30.928-39.824 0.768-1.008 1.872-1.776 2.944-2.784 4.976 21.84 10.288 43.040 18.96 63.6z"></path>
<path fill="#fff" d="M226.8 325.728c-3.504 0.832-6.464-0.208-9.52-2.304-2.56-1.744-5.76-2.576-8.672-3.76-0.944-0.384-1.968-0.608-2.944-0.896-9.68-3.008-11.12-4.448-14.24-14.128-0.832-2.576-0.512-4.944 1.568-6.832 5.664-5.168 12-9.088 19.84-9.904 0.768-0.080 1.696 0.24 2.384 0.64 7.328 4.192 15.632 6.592 22.128 12.304 1.008 0.896 2.624 1.2 4.016 1.552 6.896 1.76 9.552 8.992 5.312 14.704-3.952 5.328-9.136 8.464-15.92 8.608-1.296 0.016-2.576 0-3.952 0zM206.512 313.952c-0.112-4.064-2.144-7.168-4.624-7.664-0.88-0.176-1.904 0.32-2.864 0.512 0.24 0.864 0.208 2.064 0.8 2.512 1.936 1.568 4.080 2.88 6.672 4.64z"></path>
<path fill="#fff" d="M326.256 301.808c-0.016 6-5.088 13.68-9.952 15.728-5.696 2.4-11.296 5.008-17.072 7.088-5.504 1.968-10.72 0.64-15.44-2.688-0.336-0.24-0.624-0.688-0.992-0.8-4.816-1.296-5.696-5.584-7.040-9.408-0.336-1.008 0.016-2.64 0.672-3.568 1.968-2.816 4.624-4.752 8.176-5.312 1.568-0.256 3.12-0.88 4.592-1.52 8.288-3.648 16.576-7.36 24.832-11.088 2.176-0.992 4.016-0.416 5.696 1.008 3.536 2.992 6.064 6.528 6.528 10.544z"></path>
<path fill="#fff" d="M273.872 342.4c1.168 5.216-3.008 7.792-5.536 11.056-0.336 0.448-1.76 0.368-2.576 0.144-2.496-0.64-4.88-1.632-7.392-2.176-1.872-0.416-3.872-0.512-5.792-0.384-3.616 0.24-5.040-0.992-4.656-4.56 0.624-5.696 1.12-11.424 2.128-17.072 0.736-4.064 3.264-7.296 7.232-8.672 4.016-1.392 8.096-0.512 10.832 2.704 1.952 2.32 3.376 5.344 4.208 8.288 1.008 3.44 1.088 7.104 1.568 10.656z"></path>
<path fill="#fff" d="M314.864 362.768c1.296-1.568 2.304-2.784 3.344-4.064 1.056 2.336 0.176 3.536-3.344 4.064z"></path>
</svg>
