<!-- Generated by IcoMoon.io -->
<svg version="1.1" xmlns="http://www.w3.org/2000/svg" width="32" height="32" viewBox="0 0 32 32">
<title>fighters-scout</title>
<path fill="#fff" d="M31.803 1.015c-0.427 0.702-0.872 1.393-1.274 2.11-0.544 0.966-1.136 1.905-1.541 2.944-0.171 0.435-0.334 0.885-0.585 1.273-0.195 0.3-0.349 0.612-0.492 0.934-0.541 1.227-1.072 2.461-1.611 3.69-0.183 0.418-0.385 0.827-0.562 1.248-0.087 0.207-0.143 0.431-0.193 0.651-0.039 0.176-0.114 0.232-0.288 0.169-0.336-0.123-0.505-0.484-0.398-0.819 0.102-0.318 0.168-0.636 0.080-0.975-0.039-0.149-0.007-0.316-0.010-0.475-0.012-0.542-0.021-1.086-0.039-1.628-0.018-0.538-0.042-1.075-0.064-1.612-0.009-0.201-0.020-0.4-0.037-0.6-0.018-0.186-0.097-0.229-0.265-0.143-0.059 0.030-0.113 0.077-0.157 0.129-0.412 0.468-0.812 0.947-1.238 1.404-0.259 0.278-0.567 0.511-0.836 0.78-0.423 0.425-0.871 0.827-1.206 1.335-0.092 0.139-0.249 0.234-0.366 0.357-0.219 0.23-0.447 0.456-0.645 0.705-0.406 0.512-0.806 1.032-1.192 1.56-0.801 1.098-1.733 2.094-2.477 3.237-0.615 0.943-1.238 1.877-1.757 2.877-0.093 0.179-0.22 0.339-0.334 0.507-0.018-0.004-0.037-0.009-0.056-0.014-0.018-0.067-0.048-0.133-0.056-0.201-0.013-0.124 0.003-0.253-0.019-0.376-0.041-0.239-0.090-0.479-0.156-0.712-0.048-0.168-0.141-0.324-0.186-0.495-0.054-0.196-0.196-0.226-0.363-0.255-0.163-0.029-0.259 0.020-0.354 0.163-0.613 0.939-1.234 1.871-1.859 2.802-0.105 0.156-0.239 0.291-0.371 0.428-0.268 0.278-0.475 0.594-0.679 0.921-0.195 0.312-0.466 0.574-0.708 0.855-0.064 0.076-0.153 0.075-0.205-0.006-0.059-0.093-0.136-0.206-0.126-0.303 0.026-0.263 0.037-0.538 0.219-0.762 0.032-0.039 0.039-0.107 0.037-0.16-0.004-0.067-0.024-0.135-0.048-0.198-0.135-0.354-0.159-0.349-0.535-0.372-0.294-0.017-0.586-0.092-0.878-0.138-0.157-0.026-0.315-0.066-0.472-0.075-0.628-0.033-1.258-0.063-1.887-0.083-0.714-0.023-1.051 0.039-2.169 0.369-0.054-0.198-0.016-0.384 0.069-0.561 0.060-0.128 0.118-0.266 0.207-0.373 0.084-0.102 0.196-0.19 0.313-0.252 0.213-0.111 0.438-0.195 0.655-0.292 0.762-0.341 1.526-0.677 2.286-1.023 0.904-0.414 1.73-0.936 2.482-1.602 0.42-0.372 0.825-0.774 1.28-1.104 0.519-0.376 0.957-0.83 1.432-1.251 0.408-0.362 0.775-0.759 1.159-1.141 0.109-0.109 0.237-0.199 0.367-0.282 0.315-0.2 0.537-0.471 0.678-0.817 0.046-0.111 0.137-0.206 0.185-0.318 0.050-0.117 0.073-0.246 0.111-0.382 0.018 0.003 0.050 0.007 0.080 0.016 0.153 0.045 0.258-0.001 0.345-0.141 0.207-0.327 0.428-0.647 0.65-0.979 0.18 0.097 0.282 0.236 0.318 0.417 0.021 0.105 0.030 0.216 0.024 0.323-0.018 0.373 0.078 0.459 0.451 0.39 0.023-0.004 0.048-0.011 0.067-0.004 0.252 0.089 0.36-0.078 0.445-0.261 0.22-0.469 0.546-0.847 0.943-1.183 0.316-0.269 0.58-0.6 0.875-0.896 0.825-0.827 1.663-1.641 2.477-2.476 0.459-0.471 0.886-0.97 1.318-1.466 0.066-0.076 0.123-0.231 0.089-0.3-0.039-0.075-0.19-0.127-0.292-0.126-0.657 0.012-1.316 0.027-1.973 0.069-0.519 0.033-1.027 0.057-1.525-0.133-0.124-0.047-0.27-0.054-0.405-0.057-0.309-0.007-0.619 0-0.928-0.001-0.059 0-0.117-0.009-0.209-0.015 0.045-0.043 0.059-0.063 0.077-0.070 0.084-0.040 0.201-0.050 0.18-0.189s-0.102-0.231-0.232-0.27c-0.057-0.018-0.129-0.026-0.185-0.009-0.18 0.054-0.223-0.039-0.226-0.189 0-0.040 0-0.080 0-0.145 0.084 0 0.171-0.018 0.248 0.003 0.336 0.093 0.663 0.043 0.977-0.079 0.904-0.352 1.855-0.54 2.785-0.797 0.136-0.037 0.286-0.030 0.423-0.069 0.258-0.072 0.52-0.138 0.762-0.248 0.612-0.277 1.234-0.511 1.895-0.647 0.239-0.048 0.474-0.132 0.702-0.223 1.39-0.568 2.844-0.939 4.274-1.38 0.657-0.204 1.3-0.441 1.915-0.748 0.177-0.089 0.348-0.187 0.521-0.282 0.012 0 0.023 0 0.034 0 0.080 0.103 0.16 0.207 0.241 0.309-0.006 0.070-0.006 0.138-0.006 0.207z"></path>
<path fill="#fff" d="M7.866 17.468c-0.33 0.139-0.68 0.28-1.024 0.432-0.423 0.187-0.841 0.385-1.264 0.575-0.124 0.056-0.25 0.114-0.381 0.149-0.138 0.037-0.22 0.1-0.241 0.249-0.023 0.172-0.127 0.288-0.285 0.359-0.378 0.168-0.776 0.285-1.121 0.528-0.178 0.126-0.377 0.198-0.604 0.050-0.145-0.093-0.275-0.015-0.328 0.157-0.113 0.366-0.16 0.735-0.042 1.113 0.069 0.217 0.118 0.441 0.189 0.658 0.036 0.111 0.114 0.21 0.15 0.322 0.048 0.15 0.107 0.306 0.107 0.459 0 0.275 0.094 0.475 0.307 0.652 0.124 0.105 0.201 0.272 0.279 0.421 0.063 0.12 0.092 0.259 0.147 0.384 0.103 0.225 0.25 0.305 0.496 0.275 0.312-0.039 0.627-0.064 0.935-0.13 0.166-0.036 0.332-0.119 0.471-0.219 0.188-0.134 0.36-0.278 0.6-0.312 0.066-0.009 0.132-0.067 0.183-0.116 0.187-0.174 0.381-0.319 0.659-0.329 0.087-0.003 0.183-0.105 0.255-0.179 0.13-0.136 0.438-0.24 0.609-0.179 0.034 0.013 0.077 0.063 0.077 0.094-0.001 0.105 0.006 0.225-0.040 0.315-0.13 0.261-0.276 0.513-0.429 0.761-0.189 0.305-0.322 0.628-0.394 0.98-0.026 0.126-0.084 0.246-0.133 0.366-0.168 0.399-0.351 0.793-0.505 1.198-0.107 0.283 0.036 0.528 0.322 0.641 0.126 0.048 0.242 0.123 0.361 0.189 0.094 0.053 0.183 0.116 0.28 0.166 0.327 0.166 0.646 0.348 0.984 0.484 0.268 0.107 0.558 0.16 0.839 0.227 0.22 0.054 0.448 0.079 0.666 0.139 0.225 0.062 0.258 0.056 0.321-0.162 0.005-0.021 0.009-0.045 0.017-0.066 0.075-0.246 0.084-0.25 0.339-0.185 0.228 0.059 0.242 0.045 0.285-0.193 0.015-0.081 0.051-0.163 0.089-0.237 0.173-0.327 0.366-0.645 0.525-0.976 0.171-0.355 0.321-0.72 0.463-1.087 0.060-0.157 0.084-0.33 0.111-0.498 0.042-0.276 0.060-0.555 0.105-0.83 0.084-0.537 0.171-1.072 0.273-1.605 0.039-0.212 0.132-0.412 0.182-0.622 0.037-0.157 0.046-0.321 0.066-0.48 0.036-0.299 0.034-0.609 0.209-0.871 0.032-0.048 0.090-0.078 0.138-0.116 0.034 0.048 0.092 0.094 0.1 0.147 0.048 0.303 0.15 0.618 0.112 0.913-0.109 0.828 0.036 1.642 0.061 2.464 0.027 0.901 0.307 1.752 0.483 2.624 0.026 0.126 0.011 0.261 0.037 0.387 0.042 0.204 0.099 0.405 0.15 0.606 0.023 0.092 0.043 0.186 0.075 0.275 0.043 0.12 0.064 0.278 0.152 0.348 0.199 0.159 0.428 0.28 0.655 0.4 0.054 0.029 0.16 0.020 0.212-0.015 0.309-0.211 0.67-0.213 1.014-0.291 0.462-0.105 0.929-0.196 1.378-0.343 0.845-0.279 1.184-1.284 0.828-2.011-0.193-0.393-0.389-0.808-0.454-1.233-0.096-0.639-0.339-1.202-0.657-1.738 0.159-0.2 0.282-0.215 0.453-0.059 0.313 0.285 0.623 0.573 0.811 0.966 0.048 0.1 0.129 0.189 0.207 0.272 0.447 0.486 0.988 0.858 1.522 1.237 0.238 0.169 0.492 0.093 0.634-0.157 0.179-0.312 0.368-0.619 0.559-0.924 0.222-0.354 0.48-0.685 0.669-1.054 0.226-0.445 0.435-0.907 0.579-1.382 0.099-0.327 0.075-0.691 0.099-1.038 0.007-0.114-0.045-0.207-0.169-0.223-0.864-0.119-1.652-0.485-2.473-0.737-0.62-0.19-1.268-0.286-1.904-0.425-0.285-0.062-0.568-0.132-0.855-0.185-0.111-0.021-0.235-0.036-0.341-0.009-0.25 0.067-0.455-0.026-0.684-0.143 0.113-0.064 0.205-0.136 0.309-0.174 0.52-0.19 1.025-0.409 1.606-0.403 0.348 0.003 0.7-0.096 1.045-0.172 1.167-0.256 2.331-0.524 3.497-0.787 0.112-0.026 0.223-0.051 0.336-0.075 0.106-0.021 0.162-0.078 0.152-0.19-0.033-0.348-0.063-0.695-0.103-1.041-0.007-0.056-0.045-0.13-0.090-0.156-0.141-0.077-0.155-0.196-0.153-0.335 0-0.327-0.105-0.615-0.345-0.85-0.082-0.079-0.145-0.177-0.215-0.267-0.105-0.136-0.237-0.171-0.396-0.114-0.514 0.189-1.025 0.382-1.543 0.562-0.23 0.081-0.466 0.144-0.705 0.202-0.045 0.011-0.126-0.033-0.155-0.076-0.027-0.041-0.031-0.127-0.004-0.168 0.084-0.136 0.174-0.27 0.285-0.385 0.439-0.458 0.891-0.904 1.328-1.363 0.183-0.193 0.345-0.408 0.516-0.614 0.033-0.039 0.059-0.087 0.097-0.119 0.216-0.168 0.338-0.399 0.441-0.644 0.033-0.079 0.067-0.159 0.116-0.229 0.12-0.169 0.327-0.198 0.451-0.036 0.156 0.202 0.285 0.426 0.403 0.652 0.075 0.145 0.16 0.245 0.313 0.318 0.139 0.066 0.273 0.173 0.366 0.295 0.803 1.037 1.17 2.241 1.282 3.526 0.045 0.521 0.070 1.051 0.023 1.569-0.043 0.488 0.037 0.954 0.073 1.432 0.051 0.666 0.046 1.326-0.122 1.989-0.285 1.13-0.596 2.252-1.045 3.33-0.078 0.189-0.172 0.376-0.292 0.541-0.43 0.585-0.872 1.161-1.313 1.74-0.22 0.289-0.484 0.528-0.789 0.731-0.141 0.093-0.235 0.253-0.348 0.385-0.030 0.034-0.046 0.081-0.078 0.111-0.52 0.428-1.020 0.874-1.678 1.107-0.388 0.137-0.73 0.396-1.099 0.594-0.338 0.18-0.682 0.348-1.021 0.525-0.066 0.034-0.15 0.059-0.189 0.114-0.126 0.186-0.324 0.234-0.514 0.312-0.179 0.072-0.348 0.173-0.514 0.272-0.373 0.22-0.761 0.37-1.207 0.282-0.033-0.007-0.070-0.009-0.103-0.003-0.544 0.089-1.083-0.066-1.625-0.034-0.079 0.004-0.159-0.014-0.238-0.030-0.13-0.024-0.208-0.105-0.247-0.233-0.021-0.062-0.053-0.132-0.102-0.166-0.043-0.030-0.122-0.029-0.175-0.012-0.026 0.009-0.046 0.089-0.039 0.132 0.020 0.133-0.037 0.176-0.162 0.173-0.19-0.004-0.378 0.001-0.532-0.141-0.034-0.033-0.107-0.036-0.162-0.034-0.954 0.040-1.86-0.196-2.76-0.474-0.075-0.023-0.162-0.048-0.234-0.030-0.19 0.050-0.343-0.019-0.504-0.103-0.367-0.195-0.739-0.379-1.111-0.567-0.066-0.034-0.139-0.060-0.198-0.103-0.589-0.432-1.253-0.761-1.775-1.289-0.13-0.133-0.294-0.238-0.451-0.339-0.339-0.22-0.595-0.515-0.808-0.852-0.029-0.046-0.063-0.102-0.109-0.123-0.222-0.103-0.319-0.286-0.354-0.512-0.024-0.16-0.087-0.229-0.265-0.289-0.153-0.052-0.273-0.272-0.354-0.444-0.078-0.165-0.087-0.363-0.122-0.547-0.009-0.047 0.004-0.097 0.045-0.162 0.040 0.048 0.084 0.094 0.12 0.147 0.094 0.145 0.217 0.143 0.3-0.012 0.107-0.207 0.12-0.423-0.013-0.621-0.218-0.322-0.367-0.671-0.475-1.040-0.036-0.122-0.12-0.186-0.24-0.243-0.133-0.063-0.255-0.172-0.352-0.285-0.107-0.123-0.22-0.183-0.384-0.182-0.141 0.001-0.283-0.029-0.425-0.043-0.046-0.004-0.099-0.023-0.135-0.006-0.177 0.086-0.274-0.010-0.343-0.147-0.086-0.173-0.179-0.348-0.232-0.531-0.22-0.77-0.398-1.549-0.442-2.353-0.006-0.094-0.056-0.186-0.066-0.282-0.016-0.144-0.023-0.291-0.018-0.436 0.006-0.136 0.039-0.27 0.051-0.406 0.073-0.86 0.138-1.72 0.219-2.58 0.026-0.278 0.060-0.562 0.147-0.825 0.129-0.387 0.312-0.759 0.466-1.139 0.033-0.081 0.031-0.177 0.059-0.261 0.048-0.15 0.094-0.302 0.16-0.445 0.102-0.223 0.235-0.432 0.325-0.659 0.318-0.796 0.766-1.522 1.351-2.134 1.077-1.129 2.178-2.242 3.543-3.043 0.162-0.096 0.318-0.204 0.468-0.319 0.537-0.412 1.16-0.675 1.797-0.822 0.463-0.107 0.911-0.286 1.394-0.33 0.309-0.029 0.618-0.11 0.919-0.198 0.405-0.119 0.82-0.141 1.237-0.165 0.325-0.018 0.65-0.062 0.974-0.092 0.405-0.037 0.799-0.009 1.17 0.186 0.089 0.045 0.196 0.062 0.297 0.079 1.042 0.176 1.97 0.618 2.826 1.221 0.045 0.033 0.084 0.077 0.123 0.119 0.137 0.146 0.302 0.209 0.505 0.213 0.165 0.003 0.33 0.031 0.49 0.069 0.171 0.039 0.199 0.143 0.056 0.245-0.099 0.070-0.237 0.119-0.357 0.119-0.217-0.001-0.408 0.020-0.547 0.215-0.033 0.047-0.102 0.072-0.157 0.099-0.278 0.129-0.496 0.322-0.663 0.579-0.046 0.072-0.135 0.113-0.196 0.177-0.105 0.107-0.225 0.209-0.303 0.336-0.143 0.234-0.262 0.259-0.502 0.127-0.343-0.187-0.582-0.475-0.82-0.768-0.159-0.196-0.319-0.19-0.474 0.012-0.027 0.036-0.054 0.076-0.067 0.119-0.199 0.641-0.447 1.265-0.615 1.92-0.232 0.911-0.544 1.809-1.203 2.528-0.032 0.034-0.060 0.069-0.092 0.103-0.012 0.012-0.026 0.021-0.056 0.046-0.026-0.087-0.048-0.166-0.072-0.245-0.081-0.279-0.173-0.557-0.243-0.838-0.156-0.624-0.336-1.246-0.246-1.905 0.011-0.089 0-0.183-0.007-0.273-0.030-0.393-0.066-0.786-0.093-1.179-0.012-0.198-0.039-0.219-0.234-0.226-0.845-0.032-1.639 0.234-2.442 0.432-0.409 0.102-0.811 0.239-1.216 0.359-0.175 0.052-0.243 0.171-0.196 0.34 0.136 0.501 0.258 1.007 0.424 1.498 0.198 0.584 0.438 1.153 0.659 1.73 0.018 0.048 0.051 0.1 0.046 0.146-0.015 0.102-0.021 0.227-0.084 0.293-0.042 0.045-0.178 0.018-0.265-0.003-0.082-0.019-0.156-0.070-0.231-0.114-0.588-0.333-1.173-0.665-1.757-1.002-0.088-0.050-0.163-0.122-0.245-0.183-0.109-0.081-0.222-0.156-0.325-0.245-0.099-0.084-0.198-0.173-0.273-0.276-0.177-0.242-0.378-0.28-0.589-0.070-0.219 0.217-0.415 0.458-0.622 0.688-0.073 0.081-0.132 0.189-0.222 0.236-0.273 0.146-0.4 0.39-0.508 0.66-0.039 0.1-0.096 0.196-0.153 0.287-0.289 0.457-0.52 0.93-0.568 1.482-0.030 0.34-0.102 0.678-0.168 1.013-0.046 0.229-0.133 0.445-0.082 0.69 0.027 0.127 0.082 0.179 0.204 0.179 0.144 0 0.288 0.017 0.429-0.001 0.111-0.016 0.226-0.060 0.324-0.117 0.090-0.054 0.156-0.075 0.264-0.031 0.118 0.045 0.256 0.050 0.387 0.053 0.67 0.012 1.34 0.010 2.009 0.031 0.216 0.007 0.429 0.070 0.642 0.109 0.023 0.004 0.045 0.012 0.064 0.023 0.242 0.104 0.478 0.219 0.735 0.343zM10.6 29.079c0.036-0.003 0.105 0.012 0.122-0.011 0.050-0.067 0.114-0.153 0.109-0.228-0.012-0.136-0.109-0.089-0.189-0.046-0.054 0.029-0.117 0.048-0.169 0.080-0.043 0.029-0.075 0.073-0.114 0.111 0.048 0.029 0.096 0.062 0.148 0.084 0.024 0.011 0.056 0.007 0.094 0.009zM3.732 26.467c-0.010-0.102-0.009-0.192-0.030-0.275-0.010-0.039-0.066-0.064-0.1-0.097-0.029 0.039-0.075 0.076-0.081 0.117-0.020 0.141 0.054 0.219 0.212 0.255zM23.291 20.75c0.141-0.153 0.152-0.245 0.045-0.414-0.072 0.139-0.146 0.264-0.045 0.414z"></path>
</svg>
