<!-- Generated by IcoMoon.io -->
<svg version="1.1" xmlns="http://www.w3.org/2000/svg" width="512" height="512" viewBox="0 0 512 512">
<title>fighters-thrall</title>
<path fill="#fff" d="M257.648 0c0.672 1.296 1.792 2.544 1.952 3.888 2.176 18.96 4.272 37.936 6.304 56.912 0.208 1.952 1.2 2.576 2.992 2.816 16.864 2.32 32.512 8.112 47.28 16.432 9.2 5.184 17.568 11.488 25.312 18.672 2.72 2.544 3.472 2.848 6.528 0.816 8.256-5.44 16.528-10.88 24.528-16.72 13.2-9.616 27.824-16.896 41.6-25.52 0.704-0.448 1.68-0.496 3.248-0.944-1.008 1.376-1.52 2.144-2.112 2.864-7.952 9.728-16.016 19.392-23.872 29.2-6.304 7.856-12.336 15.92-18.512 23.856-2.576 3.328-5.168 6.672-7.824 9.936-1.44 1.792-1.424 3.424-0.432 5.44 4.176 8.384 8.304 16.8 12.192 25.296 3.568 7.728 4.8 16.096 6.064 24.448 0.144 1.008 0.352 2.048 0.368 3.072 0.064 2.048 1.104 3.184 3.056 3.552 5.168 0.944 10.32 1.872 15.504 2.816 12.016 2.24 24.016 4.512 36.032 6.688 3.056 0.544 6.192 0.496 9.2 1.12 3.12 0.64 6.176 1.808 9.232 2.736 0 0.24 0 0.496 0 0.736-3.808 0.88-7.568 1.92-11.392 2.64-7.872 1.488-15.824 2.544-23.648 4.224-10.576 2.288-21.088 5.040-31.632 7.504-3.728 0.88-5.648 2.736-6.448 6.848-2.512 12.976-5.456 25.904-11.584 37.84-4.24 8.24-9.232 15.92-15.488 22.768-3.264 3.568-3.28 3.92-0.832 8.048 9.952 16.976 19.952 33.968 29.904 50.976 0.48 0.816 0.928 1.632 1.632 2.944-1.168 0-2.112 0.272-2.8-0.048-2.48-1.168-5.072-2.24-7.232-3.856-13.584-10.176-27.040-20.512-40.544-30.768-4.72-3.568-5.072-3.504-10.32-0.56-8.112 4.544-15.968 9.664-24.48 13.248-12.928 5.488-26.72 7.904-40.768 8.432-5.36 0.208-10.672 0.496-16.016 0.64-2.304 0.064-3.12 1.008-3.136 3.312s0.768 3.312 3.104 3.376c4.464 0.128 8.32 1.92 11.824 4.576 5.616 4.24 10.608 9.008 14.16 15.184 2.736 4.8 4.704 9.664 4.192 15.392-0.352 3.984 0.432 4.48 4.368 4.496 4.576 0.016 9.136 0.192 13.712-0.048 1.424-0.064 3.232-0.896 4.080-2 5.616-7.216 12.832-10.976 21.952-12.112 16.672-2.112 32.096 1.744 47.008 8.672 5.008 2.32 8.384 6.192 9.12 12 0.112 0.864 1.12 1.952 1.952 2.304 6.256 2.448 12.512 4.88 18.896 6.976 1.792 0.576 4.192 0.496 5.952-0.208 6.208-2.496 12.304-2.304 17.952 0.88 8.080 4.576 16.208 9.232 23.616 14.752 7.072 5.264 11.328 12.656 10.896 22.016-0.080 1.984-0.128 3.952 0.016 5.936 0.88 10.736-5.216 17.968-12.496 24.512-3.248 2.928-7.424 3.504-11.68 3.248-3.024-0.192-6-0.768-9.008-0.8-1.36 0-3.136 0.544-3.984 1.504-4.24 4.864-8.144 10-12.336 14.928-1.856 2.192-2.512 4.512-2.512 7.312 0 3.328-0.112 6.736-0.768 9.984-1.808 8.736-8.272 14.608-17.152 15.392-14.688 1.264-29.408 2.288-44.112-0.048-2.816-0.448-5.648-0.56-8.48-0.896-4.944-0.576-9.072-2.864-12.224-6.56-1.376-1.616-2.288-3.824-2.88-5.92-0.944-3.264-2.576-4.992-5.904-5.056-4.384-0.112-8.8-0.064-13.2-0.112-2.752-0.016-4.192 1.872-5.776 3.792-3.248 3.952-6.672 7.824-10.128 11.616-1.552 1.696-3.616 2.288-6.016 2.384-5.12 0.208-9.824-0.448-14.336-3.232-8.112-5.008-16.752-9.232-24.56-14.688-6.016-4.192-11.216-9.6-16.464-14.752-3.152-3.104-3.504-7.12-1.92-11.296 1.44-3.872 1.312-4-2.64-5.568-1.824-0.736-3.648-1.52-5.424-2.448-2.064-1.072-3.296-0.752-4.032 1.632-0.512 1.696-1.392 3.328-2.304 4.864-3.296 5.472-7.84 8.48-14.56 8.56-13.968 0.144-27.92 0.736-41.904 1.040-4.496 0.080-8.384-1.632-11.744-4.624-2.672-2.384-3.248-2.32-6.32-0.48-3.744 2.256-7.52 4.544-11.424 6.544-7.888 4.048-15.84 7.936-23.808 11.84-8.992 4.384-18.576 0.864-23.12-8.096-3.392-6.656 0.32-17.328 8.608-18.096 1.392-0.128 2.816-1.232 4-2.176 6.528-5.184 13.696-9.248 21.696-11.712 1.44-0.448 3.056-0.768 4.512-0.608 1.104 0.128 2.816 1.040 2.976 1.824 0.24 1.248-0.272 2.992-1.12 3.984-1.248 1.456-3.056 2.512-4.688 3.632-3.952 2.688-7.952 5.344-11.824 8.656 0.624 0 1.328 0.192 1.872-0.016 2.768-1.136 5.616-2.224 8.256-3.616 5.392-2.864 10.688-5.952 16.032-8.864 1.664-0.896 2.416-2.080 2.192-3.936-0.24-1.952-0.384-3.936-0.688-5.888-1.568-10 3.616-17.344 13.584-19.264 8.368-1.584 16.672-3.456 25.072-4.816 9.584-1.552 19.264-2.8 28.912-3.872 6.048-0.672 16.8 6.048 18.88 11.712 0.704 1.936 0.64 4.24 0.544 6.352-0.128 2.672 0.96 3.888 3.44 4.928 6.080 2.544 11.952 5.568 18 8.24 0.832 0.368 2.32 0.144 3.12-0.384 3.376-2.24 6.512-4.8 9.856-7.056 3.264-2.224 6.56-1.792 9.584 0.496 2.88 2.176 5.632 4.56 8.576 6.656 4.416 3.12 9.104 5.856 13.408 9.12 6.576 4.976 13.088 10.064 19.344 15.456 2.416 2.080 4.576 3.696 7.888 3.44 2.48-0.192 5.008-0.064 7.504-0.048 1.488 0 2.256-0.672 2.288-2.144 0.144-5.488 3.104-9.232 7.424-12.304 5.888-4.176 12.288-6.384 19.568-6.352 10 0.064 20.016 0.112 30.016-0.144 7.312-0.176 13.024 2.576 17.632 8.048 2.64 3.136 3.136 3.12 5.968 0.048 3.856-4.176 7.68-8.384 11.6-12.496 1.584-1.68 1.696-2.944 0.24-4.864-5.392-7.040-10.576-14.208-15.824-21.344-2.080-2.864-2.384-6.032-1.36-9.312 0.576-1.856 0.112-3.488-1.52-4.192-4.8-2.064-9.68-3.92-14.624-5.632-0.688-0.24-2 0.512-2.704 1.168-4.624 4.304-10.144 6-16.368 5.808-9.024-0.272-18.128-0.176-27.088-1.104-5.936-0.608-11.84-2.32-17.504-4.256-2.864-0.976-5.424-3.296-7.712-5.424s-4.608-3.536-7.84-3.888c-6.928-0.768-13.824-1.888-20.688-3.056-2.416-0.416-4.112 0.32-5.776 1.952-4.816 4.784-10.192 8.72-16.576 11.184-5.552 2.144-11.152 2.736-16.992 1.504-9.296-1.984-18.064-5.104-25.392-11.424-4.848-4.176-8.208-9.232-9.296-15.648-0.112-0.672-0.176-1.44-0.544-1.984-2.688-4.112-1.248-7.936 0.304-12 3.68-9.632 10-16.96 18.816-22.24 0.448-0.256 0.864-0.624 1.328-0.768 6.192-2.144 6.944-7.424 7.504-12.848 0.192-1.824-0.96-2.32-2.416-2.736-5.776-1.68-11.568-3.424-17.328-5.104-12.192-3.504-22.896-9.84-32.96-17.344-2.736-2.048-5.152-2.352-8.048-0.672-12.688 7.312-25.344 14.592-38.048 21.84-6.432 3.68-12.88 7.296-19.328 10.88-0.88 0.496-1.952 0.672-2.944 0.992-0.128-0.192-0.256-0.384-0.368-0.576 0.544-0.736 1.056-1.488 1.616-2.192 12.96-16.528 25.936-33.056 38.88-49.616 2.768-3.552 2.768-4.56-0.016-8.16-12.432-15.904-20.208-33.904-24.256-53.552-1.184-5.792-1.68-11.744-2.304-17.648-0.272-2.576-1.44-4.016-3.936-4.736-17.312-4.912-34.592-9.984-52.416-12.656-4.752-0.704-9.648-0.624-14.080-2.864 0-0.352 0-0.688 0-1.040 2.304-0.64 4.576-1.696 6.928-1.888 8.208-0.736 16.464-1.248 24.72-1.744 6.8-0.416 13.616-0.496 20.384-1.072 4.8-0.416 9.52-1.568 14.32-2.064 4.416-0.448 5.328-0.944 6.048-5.36 2.816-17.12 9.12-32.912 18.512-47.44 2.128-3.312 2.048-5.92-0.144-9.152-9.584-14.064-18.976-28.288-28.4-42.48-0.64-0.992-1.040-2.128-1.552-3.2 0.256-0.208 0.512-0.448 0.752-0.672 3.488 2.144 7.008 4.192 10.384 6.496 11.28 7.696 21.392 17.104 33.888 23.024 1.984 0.944 3.552 1.616 5.264-0.272 10.416-11.36 23.616-18.528 37.456-24.704 12.624-5.632 25.824-9.040 39.504-10.608 3.072-0.368 4.72-1.888 5.488-4.864 2.496-9.728 5.12-19.424 7.776-29.104 2.704-9.776 5.504-19.488 8.256-29.248 0.176 0 0.352 0 0.512 0zM237.056 293.264c0.368 0.016 0.736 0.048 1.104 0.064 0.896 1.488 2.064 2.88 2.64 4.48 1.568 4.256 3.008 8.608 4.288 12.96 0.48 1.632 1.264 2.256 2.896 2.144 6.368-0.368 12.768-0.32 19.072-1.12 20.912-2.624 39.632-10.608 56.224-23.6 1.824-1.44 2.56-3.184 2.064-5.408-0.272-1.328-0.704-2.64-1.008-4-0.736-3.2 0.832-5.136 4.096-4.736 1.456 0.176 2.944 0.88 4.256 1.664 2.080 1.264 3.696 0.976 5.12-0.976 3.168-4.304 6.4-8.544 9.552-12.848 11.76-16.032 17.984-34.080 19.936-53.744 0.192-1.984-0.368-3.248-2.112-4.224-1.952-1.104-3.872-2.304-5.632-3.664-1.952-1.488-1.92-2.752 0.192-4 1.68-0.992 3.616-1.616 5.456-2.288 1.76-0.64 2.736-1.68 2.448-3.664-0.976-6.544-1.568-13.168-2.944-19.616-3.008-14.208-9.056-27.168-17.152-39.2-1.2-1.808-2.432-2.512-4.448-1.168-1.2 0.8-2.56 1.424-3.952 1.92-1.056 0.384-2.24 0.432-3.376 0.64-0.176-1.136-0.608-2.304-0.448-3.392 0.384-2.624 0.928-5.248 1.616-7.808 0.56-2.112-0.048-3.664-1.584-5.056-2.496-2.256-4.88-4.624-7.392-6.848-18.88-16.544-40.832-25.856-65.808-28.208-2.544-0.24-4.32 0.416-5.52 2.736-1.136 2.208-2.432 4.368-3.808 6.432-1.488 2.288-3.264 2.256-4.448-0.128-1.072-2.208-1.936-4.576-2.544-6.944-0.432-1.632-1.12-2.416-2.832-2.24-1.952 0.192-3.936 0.352-5.904 0.608-26.72 3.328-49.376 14.864-68.432 33.712-1.728 1.728-2.048 3.376-0.992 5.536 1.312 2.704 2.704 5.424 3.552 8.256 0.352 1.184-0.368 2.976-1.168 4.064-0.368 0.496-2.24 0.304-3.2-0.112-1.728-0.736-3.296-1.856-4.944-2.8-3.264-1.856-4.944-1.44-6.768 1.824-3.056 5.376-6.080 10.784-8.96 16.272-5.312 10.096-8.080 20.96-9.68 32.192-0.368 2.624 0.48 4.128 3.184 4.512 1.52 0.208 3.072 0.496 4.512 0.992 1.072 0.352 2.016 1.072 3.056 1.632-0.576 1.056-0.928 2.48-1.824 3.072-2.016 1.376-4.24 2.688-6.56 3.36-2.56 0.736-3.536 1.936-3.472 4.512 0.624 26.944 9.6 50.752 26.512 71.712 1.568 1.952 3.12 2.368 5.344 1.296 4.176-2.048 8.368-4.048 12.608-5.92 2.144-0.944 4.72-2.88 6.608-0.544 1.68 2.112-0.704 4.112-1.888 5.888-2.928 4.352-5.904 8.624-9.008 13.12 15.744 13.344 33.408 22.16 53.968 26.16 1.664-4.224 3.232-8.288 4.928-12.304 0.768-1.808 1.76-3.504 2.64-5.248zM192.272 433.040c-1.936-3.664-4.624-3.696-7.44-3.248-11.968 1.92-23.936 3.824-35.904 5.792-2.016 0.32-4.192 0.56-5.968 1.488-1.232 0.64-1.872 2.384-2.8 3.664 1.072 0.496 2.080 1.2 3.2 1.44 3.568 0.736 5.552 3.296 4.896 6.88-0.352 1.936-0.896 3.824-1.52 5.696-0.88 2.704-0.208 3.792 2.64 3.632 8.48-0.448 16.944-0.976 25.392-1.52 3.072-0.192 6.192-0.496 9.248-0.944 1.824-0.256 3.776-1.040 3.776-3.2 0-2.448-2.176-1.856-3.744-1.984-2.56-0.192-3.424-1.056-3.184-3.6 0.272-2.912 0.832-5.792 1.104-8.688 0.256-2.704 1.744-3.536 4.272-3.744 2-0.176 3.936-1.056 6.016-1.664zM332.624 492.736c1.824 0.448 2.864 0.832 3.92 0.944 2.928 0.32 5.888 0.272 8.736 0.832 12.080 2.368 24.24 0.896 36.352 0.64 1.424-0.016 3.488-0.048 3.184-2.368-0.304-2.128-2.064-1.92-3.664-1.664-4.864 0.752-10.72-3.008-12.096-7.76-1.264-4.384 0.192-8.032 4.128-10.256 1.744-0.992 1.888-2.112 0.208-3.248-0.864-0.576-2.016-0.816-3.104-0.976-10.352-1.488-20.768-0.416-31.152-0.496-1.040 0-2.064 0.384-3.76 0.736 1.328 1.44 2.16 2.512 3.152 3.376 3.008 2.64 4.368 5.952 2.912 9.712-0.88 2.304-2.64 4.32-4.256 6.288-1.104 1.328-2.576 2.416-4.56 4.24zM352.080 394.4c-0.448-1.12-0.704-1.936-1.072-2.688-2.304-4.736-1.68-7.472 2.352-10.816 0.576-0.496 1.36-1.488 1.2-1.936-0.208-0.624-1.2-1.232-1.952-1.392-3.36-0.736-6.752-1.328-10.128-1.936-8.48-1.52-16.896-3.056-25.6-1.264-3.616 0.752-3.92 0.88-2.56 4.416 1.376 3.6 2.72 7.232 4.032 10.848 0.8 2.192 2.128 3.616 4.56 4.016 8.816 1.488 17.68 2.112 26.624 1.424 0.752-0.064 1.488-0.368 2.576-0.64zM249.36 454.752c-0.208 2.928-0.368 4.976-0.544 7.008-0.368 4.64-2.352 6.816-6.944 7.568-0.608 0.112-1.312-0.048-1.76 0.24-0.992 0.608-2.624 1.424-2.624 2.144 0 1.2 0.752 2.912 1.744 3.552 5.328 3.44 10.88 6.592 16.272 9.92 4.4 2.688 8.752 5.488 13.12 8.24 1.264 0.816 2.544 1.264 3.616-0.208 1.040-1.392 0.448-2.576-0.672-3.632-0.192-0.176-0.384-0.352-0.56-0.544-2-2.080-2.496-8.608-0.704-10.848 0.432-0.544 1.248-0.832 1.952-1.040 2.864-0.704 3.504-2.576 1.312-4.64-1.808-1.696-3.952-2.992-5.984-4.48-3.728-2.752-7.456-5.504-11.184-8.256-2.128-1.52-4.288-3.056-7.072-5.040zM431.968 441.456c2.144-0.672 4.016-1.168 5.872-1.824 2.672-0.976 3.632-2.624 2.432-5.232-1.792-3.872-3.824-7.664-6.144-11.248-2.016-3.168-4.384-6.192-6.96-8.912-2.688-2.816-5.712-5.424-8.864-7.696-2.176-1.568-3.584-0.768-5.152 1.376-2.112 2.88-4.4 5.68-6.816 8.32-1.136 1.264-1.104 2.144-0.080 3.296 3.28 3.632 6.528 7.312 9.872 10.88 0.576 0.624 1.76 1.312 2.416 1.12 4.128-1.232 7.264 1.584 10.832 2.496 0.976 0.256 1.696 2.144 2.176 3.424 0.416 1.184 0.272 2.512 0.416 4zM234.816 389.184c0.080-0.208 0.144-0.448 0.24-0.672 0.432 0 0.864 0.016 1.296 0 2.944-0.112 5.76-1.76 6.208-4.496 0.192-1.136-1.376-2.768-2.448-3.888-1.792-1.872-2.176-3.792-0.496-5.728 1.552-1.792 3.536-3.2 5.152-4.928 0.736-0.768 1.76-2.288 1.456-2.832-0.88-1.664-2.24-3.104-3.664-4.368-0.24-0.208-1.872 0.816-2.576 1.552-1.392 1.504-2.512 3.296-3.936 4.784-2.304 2.48-5.376 2.8-8.384 1.952-2.64-0.736-3.136-3.184-3.248-5.616 0-0.176-0.016-0.352-0.064-0.512-0.416-2.112-1.792-2.736-3.152-1.12-2.016 2.416-4.128 4.976-5.36 7.808-2.064 4.672 0.496 10.544 6.176 13.552 3.936 2.080 8.496 3.056 12.768 4.512z"></path>
</svg>
