<!-- Generated by IcoMoon.io -->
<svg version="1.1" xmlns="http://www.w3.org/2000/svg" width="512" height="512" viewBox="0 0 512 512">
<title>fighters-monster</title>
<path fill="#fff" d="M0 328.288c0-9.44 0-18.88 0-28.304 0.192-1.12 0.368-2.192 0.544-3.296 1.488-9.856 2.592-19.808 4.56-29.584 2.672-13.296 6.096-26.432 7.056-40.032 0.832-11.472 3.44-22.512 7.92-33.136 2.16-5.104 5.712-8.224 10.608-10.288 3.744-1.584 4.56-0.96 4.672 3.136 0.096 3.264 0.224 6.56 0.768 9.744 1.712 9.568 8.432 16.704 12.72 25.008 0.688 1.312 2.176 2.4 3.536 3.12 9.584 5.008 19.488 9.088 30.4 10.048 1.488 0.144 2.992-0.192 4.48-0.24 1.776-0.080 3.584-0.32 5.296-0.032 2.896 0.544 5.568 0.4 8.176-1.136 1.264-0.752 2.736-1.488 4.176-1.68 7.408-0.896 12.944-4.688 17.824-10.16 2.576-2.896 6.336-4.72 9.456-7.152 8.512-6.592 14.688-14.624 14.928-25.968 0.080-3.12 0.048-6.288-0.464-9.312-0.32-1.984-1.232-4.288-2.672-5.6-1.808-1.632-4.384-2.48-6.736-3.44-0.544-0.24-1.584 0.272-2.192 0.72-2.448 1.68-4.816 3.536-7.296 5.2-3.52 2.352-7.232 4.464-10.672 6.912-3.632 2.592-6.016 6.144-7.152 10.544-1.536 5.952-4.736 8.256-10.8 7.232-8.512-1.408-16.24-5.024-24.208-9.264 2.848-1.936 5.312-3.664 7.792-5.296 3.44-2.32 3.632-3.296 1.408-6.88-0.912-1.456-1.728-2.976-2.848-4.912 2.368 0 4.064 0.208 5.696-0.048 3.2-0.496 6.56-0.8 9.504-2 4.304-1.744 5.424-6.736 2.976-10.624-0.448-0.72-0.832-1.488-1.072-2.288-0.784-2.592 0.72-4.224 3.232-3.216 4.608 1.888 8.944 0.288 13.296-0.688 3.424-0.768 5.52-3.888 5.696-7.28 0.192-3.92-1.264-6.336-5.008-7.92-2.080-0.864-4.208-1.664-6.384-2.336-2.928-0.896-3.68-0.32-3.968 2.736-0.592 5.888-4.752 8.752-10.544 7.312-2-0.496-4.080-0.768-6.144-0.944-1.536-0.128-2.8 0.688-2.288 2.352 0.912 3.12 1.936 6.224 3.376 9.136 0.912 1.84 1.040 3.28 0.176 5.024-0.896 1.76-2.224 2.528-4.128 2.176-4.976-0.864-10-1.712-14.976-2.736-3.296-0.688-4.080-0.128-3.712 3.296 0.4 3.84 1.808 7.232 4.16 10.352 2.080 2.752 1.616 5.424-1.584 6.64-2.304 0.864-5.248 1.264-7.584 0.672-7.696-2-13.568-6.96-18.272-13.152-5.424-7.088-7.024-14.112-0.992-22.272 3.68-4.976 5.872-10.624 8.016-16.416 2.32-6.224 4.832-12.656 8.624-18 10.912-15.376 22.352-30.416 33.888-45.344 8.4-10.848 17.952-20.512 30.48-26.944 11.136-5.68 21.888-12.112 32.896-18.080 3.472-1.856 7.104-3.616 10.864-4.704 3.616-1.040 7.488-1.168 11.952-1.76-0.672 1.264-0.832 1.68-1.088 2-2.848 3.632-5.696 7.28-8.592 10.896-1.888 2.352-2.624 4.976-2.304 7.92 0.32 2.576 0.832 5.28 3.568 6.288 2.944 1.12 5.888 0.496 8.032-1.952 1.984-2.256 3.744-4.704 5.504-7.152 0.944-1.344 1.856-2.080 3.712-1.952 1.408 0.128 3.040-0.256 4.304-0.944 7.952-4.288 15.744-8.896 23.744-13.104 7.744-4.080 15.488-8.32 24.368-9.504 4.976-0.672 9.92-1.28 14.896-1.744 1.184-0.128 2.432 0.352 3.664 0.544-1.264 1.504-2.64 2.288-3.936 3.136-1.28 0.8-2.624 1.536-3.712 2.544-2.032 1.888-2.48 5.456-0.96 7.536 1.744 2.432 3.824 1.088 5.824 0.32 8.144-3.040 16.72-4.976 25.248-3.888 11.024 1.408 21.984 3.872 32.784 6.688 5.968 1.552 11.504 4.688 17.2 7.2 1.616 0.72 3.088 1.696 4.704 2.576-0.464 1.504-0.8 2.8-1.28 4.016-1.776 4.528-0.656 8.080 3.040 11.296 7.632 6.608 15.12 13.408 22.496 20.288 1.856 1.712 3.072 4.080 5.12 6.88-3.616 0.768-6.24 1.392-8.864 1.904-6.368 1.264-8.432 5.744-5.424 11.536 1.264 2.4 2.544 4.928 2.976 7.552 0.688 3.968 2.192 7.408 4.656 10.448 3.936 4.928 8.144 9.68 12.064 14.624 3.824 4.832 8.384 7.104 14.528 4.832 0.416-0.176 0.912-0.176 1.392-0.192 8.24-0.464 12.944-5.68 16.032-12.544 3.088-6.832 5.712-13.888 8.416-20.896 1.744-4.528 5.12-6.288 9.728-6.192 8.48 0.224 15.728 3.44 21.248 9.776 9.728 11.152 19.408 22.384 28.624 33.968 13.52 16.992 23.040 36.304 29.808 56.752 4.56 13.776 9.088 27.712 11.008 42.256 0.080 0.576 0.224 1.136 0.416 1.664 3.424 8.192 4.128 16.768 3.984 25.504-0.048 2.624 0.288 5.232 0.448 7.856 0 3.968 0 7.92 0 11.888-0.176 1.008-0.4 2-0.512 3.024-0.912 9.008-1.456 18.080-2.848 26.992-1.584 10.112-4.192 20.064-5.872 30.176-2.368 14.224-7.392 27.424-14.176 40.032-0.688 1.248-1.952 2.176-2.944 3.248-0.624-1.84-0.752-3.232-0.592-4.608 0.256-2.24 0.896-4.432 1.008-6.688 0.416-7.808 0.672-15.616 1.040-23.424 0.096-2.176 0.512-4.32 0.496-6.464-0.048-2.64-1.136-4.864-3.936-5.52-2.88-0.672-4.72 1.008-5.92 3.344-0.896 1.744-1.536 3.664-2.080 5.552-3.44 11.92-8.144 23.28-14.096 34.128-0.4 0.752-0.912 1.44-1.856 2.848-0.256-1.616-0.4-2.32-0.464-3.024-0.352-3.84-0.496-7.712-1.088-11.536-0.544-3.52-2.432-4.608-5.92-3.792-2.528 0.592-4.192 2.208-4.56 4.816-1.712 12.752-11.76 20.304-18.496 30.672-0.912-3.184-1.44-5.744-2.384-8.176-0.912-2.32-2.384-4.464-5.264-4.528-2.752-0.080-4.064 1.888-5.296 4.048-3.952 6.992-7.792 14-12.032 20.784-1.92 3.072-4.272 6.144-7.104 8.32-6.384 5.008-12.864 9.952-19.856 14.048-10.192 6-17.168 14.624-22.448 24.816-3.792 7.264-0.032 15.328 7.936 17.264 2.896 0.72 5.968 0.768 8.976 1.168 0.8 0.128 1.616 0.4 2.8 0.688-2.768 1.632-5.072 2.88-7.28 4.288-10 6.368-20.896 10.4-32.384 12.976-5.888 1.312-11.76 2.576-17.616 3.872-9.184 2.048-18.32 4.368-27.552 6.144-5.072 0.96-10.304 0.736-15.392-0.912 0.352-0.96 0.624-1.712 1.184-3.232-7.68 0.688-14.784 1.296-21.856 1.952-6.288 0.592-12.576 1.584-18.848 1.808-7.344 0.256-14.688-0.368-22.032-0.224-11.952 0.256-23.744 1.072-35.696-1.68-10.848-2.48-22.224-2.688-33.392-3.584-10.576-0.848-20.224-3.984-29.024-9.952-2.72-1.84-5.744-3.232-8.592-4.912-0.8-0.464-1.488-1.136-2.336-1.808 2.352-1.040 4.528-1.584 6.208-2.8 4.128-2.976 8.096-6.16 12-9.456 5.008-4.256 4.256-10.256-1.584-13.344-3.92-2.080-7.792-4.24-11.856-6.016-15.024-6.56-26.608-16.624-33.248-31.92-0.128-0.256-0.256-0.496-0.4-0.768-3.744-6.368-6.256-6.688-11.296-1.408-4.576-5.968-7.776-12.656-10.448-19.6-1.44-3.792-2.688-7.648-4.016-11.472-1.088-3.136-3.536-4.752-6.432-4.288-2.624 0.416-3.792 2.16-3.888 5.696-0.032 1.6-0.032 3.2-0.032 4.816 0 1.040 0 2.080 0 3.12-0.32 0.080-0.688 0.128-1.008 0.192-0.416-0.848-0.896-1.68-1.28-2.544-4.832-11.472-9.584-22.96-14.512-34.336-0.736-1.712-2.048-3.472-3.584-4.48-3.52-2.32-6.464-0.896-7.232 3.232-0.288 1.552-0.368 3.216-0.176 4.768 0.64 5.056 1.504 10.080 2.128 15.12 0.24 1.904 0.048 3.872 0.048 5.808-0.352 0.080-0.736 0.144-1.088 0.176-1.552-1.984-3.664-3.712-4.576-5.968-2.128-5.216-4.016-10.576-5.36-16.048-2.592-10.144-4.672-20.576-6.928-30.928zM247.552 158c-0.944-0.048-1.68-0.112-2.432-0.144-4.032-0.144-4.16-0.144-4.8 3.92-0.544 3.44-0.8 6.928-1.088 10.4-0.224 2.72-2.24 2.944-4.224 3.2-2.032 0.256-2.624-1.072-2.8-2.736-0.256-2.8-0.848-5.648-0.624-8.416 0.512-6.816 0.576-6.864-6.112-5.84-2.208 0.336-3.344 1.232-3.584 3.52-0.4 3.472-1.040 6.88-1.712 10.32-0.72 3.568-2.704 4.784-7.136 4.912-3.376 0.096-2.992-2.432-3.392-4.464-0.048-0.288-0.080-0.624-0.24-0.8-0.656-0.736-1.36-1.904-2.096-1.952-0.72-0.048-1.744 0.96-2.192 1.776-0.736 1.296-1.168 2.784-1.664 4.192-4.128 12.112-8.128 24.272-12.448 36.304-2.704 7.536-3.968 6.688 4.48 9.392 5.6 1.776 6.832 3.968 6.288 9.856-0.688 7.6-1.392 15.232-1.312 22.816 0.176 11.344-0.208 22.624-1.488 33.888-0.4 3.472-1.84 4.464-5.312 4.080-2.128-0.224-4.32-0.176-6.432 0.144-9.984 1.536-19.904 3.392-30.112 1.984-2.944-0.4-6-0.176-9.008-0.032-2.48 0.096-3.312 1.488-2.992 4.016 0.768 6.368 1.536 12.736 1.936 19.136 0.288 4.688 0.224 9.408-0.112 14.112-0.176 2.448 0.272 4.080 2.4 5.456 3.088 1.984 6.352 3.888 8.928 6.448 6.384 6.288 10.48 13.696 9.536 23.168-0.256 2.592 0.144 5.248 0.272 7.872 0.464 10.352 1.136 20.704 1.344 31.056 0.112 5.12-2.64 7.504-7.824 7.664-2.176 0.080-4.336-0.144-6.496-0.224-7.312-0.256-14.656-0.512-21.984-0.768-1.808-0.080-2.8 0.688-2.944 2.592-0.32 3.376-0.688 6.768-1.264 10.096-0.416 2.448 0.4 3.328 2.832 3.696 3.12 0.496 6.4 1.072 9.184 2.448 9.68 4.784 15.28 22.864 11.344 30.64-1.68 3.328-1.088 6.64 1.216 9.552 1.552 1.984 2.048 4.112 1.488 6.624-0.768 3.376-1.36 6.768-2.048 10.144 0.512 0.192 0.768 0.32 1.072 0.352 15.6 2.48 31.312 3.52 47.104 3.664 7.040 0.080 7.552-0.304 6.496-7.36-1.264-8.256 0.144-16.128 2.672-23.92 0.304-0.944 0.96-1.808 1.616-2.624 3.376-4.256 7.632-3.184 11.904-1.856 3.040 0.912 5.168 3.488 5.2 6.656 0.048 5.28-0.128 10.576-0.144 15.856-0.032 3.664 0.224 7.312-0.048 10.944-0.176 2.544 0.416 3.824 3.088 3.808 6.704-0.032 13.44 0.112 20.096-0.448 7.040-0.592 13.968-2.336 21.040-2.8 18.544-1.2 36.544-5.472 54.608-9.312 6.688-1.408 11.28-5.664 13.808-12.512-3.376-0.912-3.632-3.488-3.072-6.112 1.584-7.184 0.304-14.24-0.624-21.344-0.256-2-1.232-3.024-3.136-3.392-2.88-0.544-5.712-1.248-8.56-1.808-4.432-0.864-6.928-4.032-7.248-8.016s-2.192-8.848 2.848-11.76c0.368-0.224 0.288-1.088 0.624-1.504 1.392-1.808 2.64-3.808 4.4-5.168 1.488-1.168 3.568-1.712 5.456-2.256 3.136-0.864 4.128-2.896 3.808-5.968-0.224-2.144-0.496-4.368-0.288-6.496 0.72-7.232 1.552-14.416 2.528-21.6 0.256-1.936-0.096-2.848-2.096-3.024-2.336-0.192-4.672-0.624-7.040-0.768-6.256-0.4-7.184-1.232-8.784-7.408-3.568-13.664-7.2-27.312-10.896-40.944-0.352-1.312-1.040-2.496-1.888-4.416-1.12 1.552-1.936 2.432-2.448 3.472-1.44 2.976-2.704 6.016-4.080 9.008-6.208 13.2-12.48 26.4-18.608 39.648-1.184 2.544-3.264 3.392-5.424 3.024-1.12-0.224-2.176-2.256-2.768-3.68-2.72-6.688-1.488-13.536-0.688-20.352 0.352-2.88 0.72-5.808 0.624-8.688-0.144-5.2-0.688-10.352-0.912-15.52-0.416-9.232-0.64-18.48-1.12-27.712-0.496-9.888-1.264-19.76-1.808-29.648-0.624-11.664-0.080-23.376-3.472-34.8-1.312-4.416 2.368-8.464 7.088-8.224 2.48 0.112 3.040-0.832 2.528-2.976-1.232-5.008-2.288-10.032-3.712-14.96-4.224-14.96-8.592-29.872-12.848-44.8-0.416-1.536-0.832-2.592-2.752-2.4-1.984 0.176-2.16 1.456-2.16 2.992 0.032 4.528 0.128 9.056-0.048 13.6-0.032 0.912-0.864 2.256-1.68 2.64-3.36 1.552-5.248 0.224-5.648-4.032-0.416-4.512-2.256-9.056 0.048-13.568 0.176-0.32-0.032-0.768-0.080-1.456zM112.992 90.896c-0.144-0.688-0.176-2.144-0.72-3.424-0.448-1.008-1.376-2.384-2.256-2.496-0.768-0.128-2.080 1.072-2.624 1.984-1.744 2.992-3.328 6.112-4.8 9.264-0.656 1.408-0.848 3.040-1.264 4.56 1.792 0.368 3.568 0.944 5.392 1.040 0.864 0.048 1.952-0.624 2.672-1.296 2.48-2.4 3.616-5.424 3.584-9.632z"></path>
<path fill="#fff" d="M226.64 389.392c0 1.952 0.096 3.936-0.032 5.904-0.176 2.688-1.712 3.632-4.176 2.72-3.584-1.344-5.296-4.528-4.432-8.288 0.576-2.448 1.216-4.912 1.808-7.36 0.448-1.856 1.712-3.376 3.488-2.8 1.296 0.4 2.72 2.048 3.040 3.424 0.512 2.032 0.144 4.256 0.144 6.448 0.048-0.032 0.096-0.032 0.144-0.032z"></path>
<path fill="#fff" d="M225.136 244.8c0.848-2.544 1.808-5.568 2.944-8.512 0.576-1.488 1.68-1.68 3.2-0.896 3.456 1.712 3.616 4.88 3.584 7.968-0.032 2.128-0.8 4.208-1.264 6.336-0.496 2.336-2.272 3.52-4.304 3.2-1.168-0.176-2.384-1.808-3.072-3.072-0.688-1.296-0.688-2.896-1.12-5.056z"></path>
<path fill="#fff" d="M231.936 331.632c-0.32 0.768-0.464 2.336-1.344 3.2-2.432 2.432-4.208 1.856-6.064-1.040-2.544-4.064-1.264-8.176-0.368-12.176 0.224-1.040 2.256-2.352 3.424-2.304 1.088 0.048 2.704 1.584 2.992 2.752 0.768 2.88 0.912 5.92 1.376 9.552z"></path>
</svg>
