<!-- Generated by IcoMoon.io -->
<svg version="1.1" xmlns="http://www.w3.org/2000/svg" width="31" height="32" viewBox="0 0 31 32">
<title>grand-alliance-order</title>
<path fill="#fff" d="M13.293 31.804c-0.048-0.021-0.084-0.182-0.039-0.182 0.015 0 0.021-0.015 0.021-0.044 0-0.031 0.012-0.052 0.037-0.069 0.020-0.013 0.053-0.049 0.072-0.080s0.045-0.059 0.061-0.065c0.018-0.006 0.036-0.031 0.045-0.071 0.009-0.034 0.039-0.096 0.066-0.139 0.040-0.064 0.061-0.081 0.109-0.095 0.070-0.021 0.111-0.061 0.111-0.111 0-0.021 0.009-0.052 0.020-0.069s0.020-0.053 0.020-0.078c-0.001-0.071 0.012-0.084 0.080-0.074 0.059 0.009 0.061 0.007 0.099-0.052 0.021-0.032 0.039-0.069 0.039-0.080 0-0.028 0.039-0.056 0.064-0.047 0.030 0.013 0.063-0.028 0.054-0.064-0.006-0.021 0.004-0.044 0.029-0.071 0.037-0.043 0.060-0.099 0.056-0.137-0.003-0.012 0.014-0.047 0.037-0.077s0.050-0.075 0.061-0.102c0.010-0.027 0.029-0.056 0.040-0.065 0.015-0.013 0.021-0.041 0.018-0.108-0.003-0.084-0.001-0.090 0.033-0.099 0.043-0.010 0.079-0.059 0.079-0.105 0-0.024 0.009-0.034 0.027-0.034s0.046-0.032 0.082-0.092c0.045-0.077 0.054-0.105 0.051-0.161-0.001-0.046 0.004-0.075 0.018-0.087 0.027-0.024 0.122-0.226 0.122-0.261 0-0.015 0.010-0.043 0.020-0.064s0.036-0.068 0.053-0.106c0.018-0.040 0.036-0.071 0.043-0.071s0.024-0.013 0.039-0.030c0.021-0.025 0.026-0.052 0.024-0.179-0.003-0.13-0.007-0.152-0.034-0.18-0.016-0.018-0.043-0.049-0.057-0.069-0.024-0.032-0.040-0.037-0.165-0.046-0.154-0.010-0.182-0.028-0.21-0.14-0.014-0.058-0.046-0.093-0.159-0.183-0.045-0.035-0.051-0.075-0.018-0.103 0.012-0.010 0.021-0.027 0.021-0.037 0-0.012 0.016-0.038 0.034-0.062 0.020-0.024 0.040-0.061 0.045-0.083 0.006-0.022 0.018-0.041 0.027-0.043 0.009 0 0.023-0.003 0.031-0.003s0.034-0.024 0.056-0.050c0.033-0.041 0.043-0.069 0.051-0.162 0.006-0.062 0.016-0.139 0.021-0.168 0.006-0.038 0.004-0.056-0.007-0.056-0.027 0-0.018-0.028 0.023-0.064 0.146-0.124 0.166-0.152 0.165-0.216-0.003-0.071 0.057-0.208 0.117-0.266 0.030-0.030 0.037-0.050 0.037-0.109 0-0.052 0.012-0.093 0.040-0.145 0.041-0.078 0.053-0.084 0.090-0.049 0.021 0.021 0.027 0.019 0.064-0.021 0.039-0.040 0.040-0.046 0.037-0.182-0.006-0.17-0.009-0.182-0.069-0.26-0.048-0.061-0.051-0.062-0.132-0.061-0.045 0.001-0.113-0.009-0.153-0.022s-0.135-0.028-0.212-0.031c-0.13-0.006-0.146-0.010-0.193-0.049-0.078-0.064-0.081-0.065-0.144-0.050-0.045 0.010-0.061 0.007-0.075-0.007-0.009-0.012-0.034-0.021-0.057-0.021-0.021 0-0.045-0.007-0.048-0.016-0.010-0.016-0.066-0.009-0.145 0.019-0.034 0.012-0.053 0.010-0.090-0.009-0.033-0.019-0.063-0.024-0.103-0.016-0.048 0.009-0.075 0.001-0.16-0.041-0.057-0.030-0.13-0.062-0.164-0.074-0.059-0.021-0.060-0.021-0.054 0.006 0.007 0.024 0.001 0.028-0.033 0.028-0.031 0-0.045-0.009-0.050-0.031-0.007-0.025-0.017-0.030-0.045-0.025s-0.039-0.001-0.050-0.028c-0.018-0.038-0.059-0.044-0.105-0.013-0.036 0.024-0.106 0.027-0.143 0.006-0.014-0.007-0.052-0.037-0.082-0.066-0.041-0.037-0.066-0.050-0.096-0.046-0.024 0.003-0.081-0.016-0.147-0.049-0.145-0.072-0.204-0.090-0.262-0.080-0.041 0.009-0.056 0.003-0.083-0.028-0.034-0.037-0.036-0.037-0.168-0.024-0.118 0.012-0.139 0.009-0.168-0.012-0.036-0.028-0.054-0.080-0.042-0.121s-0.031-0.058-0.145-0.056c-0.087 0.001-0.113-0.004-0.225-0.059-0.070-0.034-0.136-0.062-0.146-0.062s-0.039-0.019-0.063-0.044c-0.024-0.024-0.056-0.044-0.070-0.044s-0.056-0.016-0.093-0.037-0.083-0.037-0.102-0.037c-0.026 0-0.034-0.009-0.039-0.040-0.004-0.035-0.013-0.043-0.069-0.056-0.037-0.009-0.099-0.041-0.144-0.077-0.043-0.032-0.102-0.068-0.132-0.075-0.030-0.009-0.072-0.030-0.092-0.046-0.021-0.018-0.053-0.031-0.072-0.031-0.020 0-0.054-0.024-0.087-0.059-0.070-0.080-0.133-0.118-0.192-0.118-0.039 0-0.061-0.013-0.111-0.066-0.034-0.037-0.075-0.066-0.090-0.066-0.029 0-0.24-0.201-0.24-0.227 0-0.024-0.073-0.078-0.12-0.092-0.020-0.004-0.043-0.018-0.053-0.030-0.009-0.012-0.030-0.021-0.048-0.021s-0.043-0.013-0.059-0.031c-0.014-0.018-0.052-0.052-0.082-0.077l-0.056-0.044-0.033 0.043c-0.033 0.044-0.033 0.044-0.174 0.040-0.125-0.003-0.147 0.001-0.207 0.032-0.083 0.044-0.138 0.047-0.187 0.007l-0.036-0.030-0.061 0.061c-0.050 0.050-0.069 0.059-0.105 0.053-0.050-0.007-0.175 0.028-0.213 0.061-0.023 0.021-0.139 0.027-0.196 0.010-0.012-0.003-0.042 0.021-0.069 0.056-0.046 0.058-0.047 0.065-0.039 0.143 0.006 0.044 0.018 0.098 0.029 0.118s0.021 0.055 0.027 0.077c0.009 0.046 0.064 0.133 0.111 0.182 0.018 0.018 0.050 0.056 0.072 0.084 0.021 0.030 0.063 0.065 0.093 0.081 0.054 0.030 0.054 0.030 0.064 0.143 0.006 0.062 0.004 0.13-0.003 0.148s-0.010 0.038-0.006 0.043 0.010 0.035 0.012 0.069c0.007 0.072-0.018 0.118-0.086 0.161-0.030 0.018-0.053 0.047-0.064 0.081-0.018 0.056-0.056 0.078-0.097 0.055-0.056-0.031-0.548 0.003-0.611 0.041-0.007 0.004-0.050 0.009-0.095 0.009-0.063 0-0.092 0.009-0.139 0.041-0.073 0.049-0.138 0.065-0.168 0.040-0.016-0.013-0.042-0.012-0.123 0.007-0.057 0.013-0.121 0.019-0.146 0.013-0.023-0.004-0.078-0.004-0.12 0.001-0.064 0.007-0.080 0.016-0.090 0.044l-0.013 0.035-0.060-0.027c-0.051-0.025-0.084-0.027-0.225-0.021-0.092 0.004-0.173 0.015-0.182 0.022-0.020 0.016-0.213 0.007-0.372-0.018-0.102-0.015-0.123-0.015-0.16 0.006-0.056 0.030-0.073 0.030-0.105-0.001-0.023-0.021-0.039-0.022-0.116-0.009-0.048 0.009-0.133 0.015-0.189 0.010-0.24-0.013-0.3-0.012-0.348 0.015-0.043 0.022-0.054 0.024-0.15 0.001-0.155-0.034-0.484-0.056-0.588-0.040-0.108 0.016-0.388 0.010-0.445-0.010-0.111-0.038-0.212-0.064-0.234-0.056-0.014 0.003-0.078-0.003-0.139-0.013-0.063-0.012-0.124-0.018-0.14-0.015-0.015 0.004-0.052-0.003-0.082-0.016s-0.066-0.019-0.077-0.013c-0.014 0.006-0.036-0.012-0.061-0.050-0.022-0.032-0.054-0.061-0.076-0.066-0.023-0.006-0.045-0.027-0.059-0.056-0.016-0.035-0.030-0.046-0.063-0.047-0.037 0-0.042-0.004-0.042-0.052 0-0.046 0.004-0.052 0.036-0.052 0.041 0 0.047-0.009 0.034-0.061-0.007-0.031 0.001-0.049 0.045-0.096 0.054-0.058 0.153-0.117 0.193-0.117 0.011 0 0.045-0.013 0.077-0.030 0.046-0.024 0.072-0.028 0.152-0.021 0.087 0.009 0.097 0.007 0.114-0.022 0.014-0.022 0.034-0.031 0.070-0.031 0.027 0 0.086-0.010 0.128-0.022 0.096-0.027 0.165-0.028 0.25-0.004 0.056 0.015 0.072 0.015 0.112-0.006 0.036-0.019 0.092-0.024 0.257-0.025 0.187 0 0.217-0.004 0.259-0.031 0.027-0.016 0.063-0.030 0.084-0.030 0.018 0 0.041-0.007 0.051-0.018 0.013-0.013 0.026-0.012 0.054 0.003 0.033 0.019 0.039 0.019 0.056-0.006 0.015-0.021 0.031-0.025 0.070-0.018 0.029 0.006 0.053 0.003 0.059-0.006 0.004-0.007 0.041-0.015 0.081-0.015 0.060 0 0.080-0.007 0.123-0.046 0.045-0.041 0.056-0.044 0.123-0.037 0.22 0.028 0.234 0.028 0.266-0.006 0.018-0.018 0.066-0.040 0.111-0.049 0.056-0.012 0.083-0.025 0.087-0.043 0.006-0.024 0.024-0.027 0.14-0.027h0.133l0.034-0.052c0.033-0.049 0.036-0.050 0.043-0.022 0.010 0.040 0.056 0.030 0.111-0.024 0.020-0.019 0.043-0.035 0.053-0.035 0.009 0 0.024-0.018 0.036-0.038 0.010-0.021 0.034-0.046 0.054-0.055 0.031-0.016 0.034-0.030 0.039-0.123 0.003-0.090 0-0.111-0.031-0.158-0.020-0.031-0.041-0.074-0.045-0.096-0.006-0.022-0.029-0.062-0.052-0.089-0.041-0.050-0.045-0.075-0.030-0.207 0.007-0.071 0.013-0.081 0.063-0.111 0.046-0.027 0.060-0.046 0.078-0.108 0.027-0.099 0.060-0.128 0.126-0.117 0.029 0.006 0.060 0.004 0.070-0.001 0.010-0.007 0.059-0.015 0.107-0.015 0.075-0.003 0.102-0.012 0.157-0.049 0.037-0.027 0.083-0.050 0.1-0.055 0.018-0.006 0.033-0.018 0.033-0.028 0-0.031 0.047-0.064 0.11-0.074 0.033-0.004 0.067-0.019 0.078-0.031 0.018-0.024 0.093-0.028 0.105-0.006 0.004 0.009 0.034 0.015 0.064 0.015 0.045 0 0.062-0.009 0.089-0.046 0.050-0.069 0.13-0.1 0.229-0.089 0.046 0.006 0.089 0.004 0.096-0.003s0.037-0.013 0.067-0.013c0.033 0 0.069-0.012 0.090-0.028 0.021-0.018 0.057-0.028 0.096-0.028 0.033 0 0.066-0.006 0.070-0.015 0.004-0.007 0.034-0.015 0.066-0.015 0.096 0 0.162-0.098 0.129-0.193-0.009-0.025-0.012-0.072-0.007-0.103 0.009-0.052 0.004-0.064-0.043-0.117-0.029-0.032-0.052-0.068-0.052-0.080s-0.012-0.027-0.029-0.031c-0.056-0.018-0.089-0.069-0.079-0.121 0.006-0.037 0.003-0.049-0.012-0.049-0.012 0-0.029-0.010-0.040-0.024-0.009-0.012-0.030-0.019-0.043-0.016-0.039 0.010-0.060-0.025-0.072-0.118-0.007-0.055-0.023-0.095-0.045-0.121-0.045-0.050-0.090-0.124-0.086-0.139 0.001-0.006-0.020-0.031-0.048-0.056-0.039-0.037-0.050-0.056-0.050-0.102 0-0.049-0.004-0.056-0.039-0.064-0.060-0.012-0.156-0.123-0.183-0.21-0.013-0.040-0.037-0.089-0.053-0.108-0.020-0.022-0.029-0.050-0.027-0.084 0.003-0.041-0.006-0.059-0.053-0.103-0.046-0.044-0.056-0.065-0.062-0.123-0.004-0.044-0.024-0.099-0.054-0.149-0.026-0.043-0.048-0.095-0.051-0.112-0.001-0.019-0.013-0.049-0.024-0.066s-0.018-0.043-0.014-0.058c0.004-0.019-0.012-0.035-0.057-0.061-0.062-0.034-0.063-0.037-0.057-0.092 0.009-0.065-0.013-0.13-0.072-0.208-0.037-0.049-0.039-0.061-0.026-0.102 0.009-0.025 0.016-0.047 0.016-0.049 0-0.003-0.018-0.012-0.043-0.022-0.030-0.013-0.043-0.028-0.043-0.053 0-0.019-0.009-0.040-0.020-0.046-0.024-0.015-0.078-0.167-0.069-0.201 0.003-0.015-0.004-0.043-0.018-0.062s-0.023-0.043-0.023-0.053c0-0.009-0.013-0.032-0.027-0.052-0.021-0.027-0.026-0.050-0.020-0.089 0.013-0.078-0.036-0.287-0.077-0.332-0.024-0.028-0.039-0.068-0.048-0.133-0.018-0.143-0.034-0.207-0.066-0.279-0.020-0.043-0.034-0.117-0.042-0.207-0.005-0.086-0.023-0.177-0.043-0.236-0.024-0.068-0.034-0.127-0.034-0.202 0-0.058-0.005-0.109-0.013-0.114-0.007-0.006-0.041-0.066-0.075-0.137-0.054-0.111-0.179-0.281-0.219-0.298-0.007-0.003-0.040-0.031-0.073-0.062s-0.070-0.058-0.083-0.058c-0.012 0-0.057-0.034-0.1-0.074-0.045-0.041-0.121-0.095-0.173-0.118-0.050-0.024-0.109-0.061-0.129-0.081s-0.047-0.037-0.063-0.037c-0.030 0-0.135-0.049-0.19-0.090-0.024-0.018-0.059-0.025-0.105-0.024-0.057 0.003-0.073-0.003-0.099-0.034s-0.045-0.037-0.11-0.037c-0.050 0-0.092 0.009-0.114 0.025-0.020 0.013-0.053 0.028-0.073 0.034-0.036 0.009-0.037 0.013-0.037 0.127-0.001 0.083-0.009 0.128-0.026 0.155-0.029 0.046-0.031 0.089-0.016 0.264l0.010 0.133-0.086 0.103c-0.047 0.058-0.086 0.111-0.087 0.121 0 0.025-0.15 0.137-0.183 0.137-0.014 0-0.041-0.016-0.060-0.037s-0.039-0.037-0.048-0.037c-0.009 0-0.067-0.027-0.13-0.059s-0.124-0.059-0.139-0.059c-0.013 0-0.033-0.009-0.043-0.021-0.011-0.010-0.041-0.032-0.067-0.047-0.027-0.016-0.060-0.035-0.075-0.044s-0.039-0.040-0.052-0.066c-0.018-0.040-0.037-0.053-0.081-0.064-0.111-0.025-0.174-0.056-0.192-0.092-0.009-0.019-0.023-0.035-0.031-0.035-0.010 0-0.031-0.015-0.048-0.032-0.018-0.019-0.070-0.064-0.119-0.099-0.063-0.046-0.089-0.074-0.089-0.098 0-0.025-0.014-0.038-0.064-0.058-0.036-0.015-0.069-0.034-0.075-0.046-0.022-0.035-0.228-0.195-0.268-0.205-0.029-0.007-0.045-0.025-0.061-0.068-0.018-0.049-0.034-0.062-0.089-0.083-0.069-0.027-0.122-0.069-0.105-0.086 0.013-0.015-0.027-0.038-0.063-0.038-0.046 0-0.299-0.233-0.312-0.289-0.006-0.019-0.017-0.035-0.026-0.035-0.021 0-0.291-0.287-0.333-0.354-0.018-0.028-0.056-0.074-0.084-0.102s-0.059-0.074-0.067-0.102c-0.012-0.041-0.021-0.049-0.048-0.041-0.026 0.007-0.041-0.001-0.063-0.031-0.075-0.103-0.23-0.27-0.386-0.418-0.053-0.050-0.086-0.093-0.086-0.114-0.001-0.019-0.012-0.035-0.030-0.041-0.016-0.004-0.029-0.015-0.029-0.022s-0.020-0.016-0.045-0.022c-0.031-0.007-0.048-0.022-0.059-0.052-0.007-0.024-0.048-0.069-0.092-0.103-0.043-0.032-0.078-0.071-0.078-0.083s-0.020-0.044-0.045-0.069c-0.026-0.025-0.051-0.068-0.059-0.095-0.007-0.028-0.030-0.061-0.052-0.074-0.063-0.040-0.132-0.112-0.132-0.137 0-0.030-0.059-0.115-0.132-0.193-0.033-0.034-0.054-0.071-0.054-0.092s-0.014-0.046-0.036-0.061c-0.045-0.031-0.093-0.109-0.093-0.154 0-0.034 0.003-0.034 0.109-0.027 0.081 0.006 0.107 0.003 0.102-0.010-0.011-0.031 0.016-0.084 0.043-0.084 0.015 0 0.037 0.010 0.053 0.022s0.047 0.018 0.093 0.012c0.054-0.006 0.072-0.001 0.1 0.024 0.020 0.018 0.045 0.028 0.056 0.024 0.026-0.010 0.18 0.089 0.226 0.145 0.024 0.030 0.062 0.052 0.107 0.063 0.079 0.021 0.165 0.083 0.179 0.127 0.007 0.025 0.018 0.030 0.064 0.022 0.030-0.004 0.056-0.003 0.056 0.003 0 0.024 0.154 0.174 0.204 0.201 0.030 0.015 0.064 0.046 0.075 0.068 0.010 0.022 0.034 0.046 0.050 0.050 0.018 0.006 0.054 0.034 0.079 0.063 0.039 0.044 0.054 0.052 0.103 0.050 0.052-0.003 0.066 0.006 0.145 0.083 0.048 0.047 0.087 0.098 0.087 0.111 0 0.028 0.041 0.055 0.084 0.055 0.017 0 0.045 0.016 0.061 0.037s0.056 0.044 0.084 0.052c0.030 0.009 0.073 0.032 0.096 0.052 0.024 0.021 0.054 0.037 0.069 0.037 0.056 0 0.136 0.032 0.173 0.069 0.069 0.065 0.096 0.078 0.192 0.089 0.084 0.009 0.097 0.015 0.165 0.081 0.063 0.061 0.081 0.071 0.132 0.071 0.061 0 0.219 0.077 0.286 0.137 0.026 0.025 0.048 0.030 0.136 0.028 0.113-0.003 0.153-0.012 0.153-0.034 0-0.007 0.017-0.040 0.037-0.072 0.030-0.046 0.040-0.084 0.045-0.165 0.010-0.142 0.060-0.239 0.147-0.288 0.034-0.019 0.080-0.034 0.102-0.034s0.043-0.006 0.047-0.015c0.004-0.007 0.023-0.015 0.040-0.015s0.057-0.013 0.089-0.028c0.072-0.032 0.116-0.021 0.209 0.061 0.037 0.031 0.081 0.056 0.099 0.056 0.060 0 0.15 0.034 0.186 0.069 0.020 0.021 0.062 0.052 0.093 0.069 0.036 0.019 0.059 0.044 0.062 0.065 0.003 0.018 0.015 0.034 0.029 0.034 0.013 0.001 0.031 0.003 0.039 0.006 0.009 0.001 0.024 0.004 0.036 0.004s0.043 0.022 0.067 0.046c0.045 0.041 0.12 0.071 0.145 0.055 0.006-0.004 0.030 0.006 0.054 0.022 0.023 0.015 0.057 0.028 0.075 0.028 0.021 0 0.057 0.025 0.097 0.066 0.063 0.068 0.111 0.096 0.164 0.096 0.016 0 0.056 0.028 0.089 0.062 0.076 0.080 0.171 0.129 0.249 0.13 0.033 0 0.063 0.006 0.067 0.013s0.029 0.016 0.054 0.021c0.026 0.004 0.075 0.015 0.11 0.022 0.060 0.013 0.063 0.013 0.119-0.043l0.057-0.056-0.003-0.174c-0.003-0.303 0.034-0.769 0.069-0.861 0.007-0.021 0.009-0.055 0.003-0.075-0.010-0.035-0.003-0.047 0.050-0.098l0.063-0.058v-0.136c0-0.075 0.004-0.161 0.009-0.192 0.020-0.133 0.042-0.226 0.052-0.233 0.007-0.004 0.013-0.022 0.013-0.041s0.010-0.046 0.021-0.062c0.011-0.015 0.021-0.043 0.021-0.061s0.016-0.049 0.034-0.069c0.026-0.030 0.034-0.061 0.042-0.14 0.004-0.056 0.018-0.123 0.030-0.148 0.013-0.024 0.023-0.068 0.023-0.098 0-0.074 0.036-0.146 0.111-0.226 0.066-0.069 0.072-0.102 0.039-0.205-0.009-0.027-0.001-0.038 0.036-0.062 0.059-0.037 0.141-0.205 0.143-0.289 0-0.052 0.043-0.186 0.076-0.239 0.007-0.010 0.023-0.019 0.037-0.019 0.018 0 0.030-0.015 0.034-0.040 0.006-0.025 0.026-0.052 0.053-0.066 0.043-0.025 0.043-0.028 0.034-0.098-0.006-0.053-0.003-0.084 0.014-0.118 0.013-0.025 0.023-0.081 0.023-0.126 0-0.083 0.017-0.105 0.093-0.117 0.023-0.004 0.030-0.021 0.037-0.086 0.016-0.148 0.037-0.199 0.111-0.269s0.090-0.095 0.124-0.171c0.023-0.053 0.075-0.105 0.105-0.106 0.013 0 0.016-0.015 0.010-0.049-0.007-0.035-0.003-0.055 0.013-0.068 0.027-0.024 0.030-0.084 0.006-0.096-0.010-0.004 0.001-0.006 0.024-0.001 0.066 0.010 0.149-0.071 0.155-0.154 0.003-0.050 0.015-0.072 0.072-0.131 0.037-0.038 0.067-0.077 0.067-0.083 0-0.040 0.064-0.137 0.105-0.157 0.036-0.018 0.052-0.040 0.075-0.105 0.016-0.046 0.050-0.108 0.077-0.139 0.046-0.055 0.048-0.061 0.039-0.143-0.004-0.049-0.015-0.099-0.021-0.114-0.009-0.016-0.009-0.063 0.001-0.129l0.014-0.102-0.067-0.114-0.069-0.114-0.001-0.148c-0.001-0.124-0.006-0.151-0.030-0.179-0.023-0.027-0.029-0.056-0.031-0.158-0.003-0.114-0.007-0.127-0.040-0.155-0.020-0.015-0.036-0.038-0.036-0.052 0-0.012-0.018-0.046-0.043-0.074-0.023-0.027-0.043-0.058-0.043-0.068s-0.014-0.055-0.033-0.099l-0.031-0.081-0.061 0.004c-0.053 0.004-0.063 0.010-0.080 0.055-0.021 0.052-0.060 0.081-0.104 0.081-0.016 0-0.043 0.015-0.060 0.031-0.018 0.018-0.048 0.032-0.064 0.034-0.021 0.001-0.031 0.012-0.034 0.044-0.006 0.055-0.072 0.129-0.168 0.188-0.043 0.027-0.080 0.061-0.083 0.075-0.009 0.034-0.031 0.034-0.064 0-0.020-0.019-0.054-0.027-0.162-0.030-0.084-0.003-0.141 0.001-0.147 0.012-0.004 0.007-0.020 0.015-0.033 0.015-0.029 0-0.102-0.072-0.102-0.1 0-0.010-0.010-0.031-0.023-0.043-0.014-0.015-0.018-0.035-0.013-0.055 0.017-0.061 0.014-0.072-0.029-0.098-0.024-0.013-0.043-0.037-0.043-0.053s-0.006-0.043-0.013-0.062c-0.007-0.025-0.004-0.043 0.012-0.061 0.024-0.027 0.021-0.055-0.018-0.216-0.012-0.046-0.010-0.068 0.009-0.108 0.018-0.038 0.018-0.056 0.006-0.086-0.020-0.046-0.020-0.128-0.001-0.198 0.009-0.031 0.009-0.083 0.001-0.13s-0.006-0.106 0.003-0.148c0.012-0.058 0.009-0.084-0.026-0.191-0.037-0.112-0.039-0.133-0.027-0.219s0.012-0.1-0.018-0.158c-0.034-0.065-0.043-0.13-0.018-0.13 0.021 0 0.017-0.041-0.009-0.083-0.020-0.030-0.021-0.061-0.014-0.196 0.010-0.146 0.009-0.162-0.016-0.18-0.029-0.022-0.064-0.167-0.045-0.186 0.013-0.015 0.036-0.498 0.043-0.905 0.003-0.151 0.042-0.514 0.062-0.576 0.041-0.133 0.066-0.276 0.066-0.385 0-0.061 0.010-0.145 0.021-0.185 0.014-0.052 0.020-0.143 0.018-0.323-0.001-0.405 0.003-0.498 0.026-0.53 0.012-0.018 0.020-0.065 0.020-0.114 0-0.083 0.026-0.131 0.069-0.131 0.010 0 0.018-0.012 0.018-0.027 0-0.034 0.027-0.062 0.059-0.062 0.013 0 0.033-0.010 0.043-0.024 0.026-0.032 0.141-0.019 0.163 0.016 0.007 0.015 0.029 0.046 0.045 0.072 0.019 0.025 0.063 0.109 0.099 0.186 0.037 0.077 0.070 0.146 0.075 0.154 0.003 0.006-0.007 0.007-0.024 0.001-0.024-0.007-0.029-0.004-0.020 0.018 0.006 0.015 0.021 0.043 0.036 0.063 0.023 0.032 0.024 0.049 0.013 0.112-0.014 0.074-0.009 0.131 0.014 0.162 0.013 0.016 0.006 0.208-0.009 0.257-0.004 0.015-0.003 0.031 0.004 0.035 0.009 0.004 0.007 0.035-0.001 0.075-0.013 0.059-0.012 0.071 0.015 0.1 0.018 0.019 0.029 0.050 0.029 0.080-0.001 0.027 0.007 0.058 0.015 0.069 0.018 0.021 0.031 0.217 0.031 0.384-0.001 0.034 0.010 0.071 0.027 0.093 0.021 0.028 0.029 0.061 0.029 0.125 0 0.096 0.017 0.145 0.051 0.145 0.018 0 0.021 0.015 0.018 0.071-0.004 0.049 0.003 0.081 0.021 0.111 0.021 0.032 0.026 0.058 0.018 0.124-0.010 0.093 0.014 0.155 0.095 0.254 0.033 0.040 0.040 0.059 0.033 0.096-0.004 0.025-0.012 0.087-0.014 0.136-0.007 0.084-0.004 0.092 0.029 0.106 0.018 0.010 0.034 0.025 0.036 0.035s0.003 0.049 0.006 0.086c0.004 0.093 0.039 0.199 0.075 0.241 0.021 0.022 0.031 0.053 0.031 0.089 0 0.040 0.007 0.059 0.026 0.065 0.039 0.016 0.047 0.037 0.037 0.121-0.012 0.093-0.001 0.105 0.099 0.105 0.054 0 0.083-0.010 0.136-0.047 0.037-0.025 0.080-0.062 0.097-0.080 0.021-0.022 0.042-0.030 0.066-0.025 0.021 0.004 0.053-0.003 0.075-0.018 0.029-0.021 0.051-0.024 0.099-0.015 0.033 0.006 0.096 0.015 0.138 0.019 0.076 0.010 0.079 0.012 0.084 0.058 0.004 0.052 0.034 0.077 0.108 0.092 0.033 0.007 0.046 0.022 0.061 0.066 0.009 0.031 0.027 0.065 0.039 0.074s0.023 0.038 0.026 0.066c0.003 0.031 0.014 0.056 0.033 0.066 0.016 0.009 0.031 0.018 0.036 0.021s-0.004 0.013-0.018 0.024c-0.029 0.022-0.051 0.127-0.027 0.127 0.009 0 0.023 0.016 0.030 0.037 0.014 0.037 0.048 0.049 0.064 0.022 0.018-0.030 0.036 0.003 0.036 0.065 0 0.040 0.009 0.071 0.021 0.083 0.012 0.010 0.021 0.043 0.021 0.075s0.012 0.083 0.029 0.112c0.015 0.031 0.029 0.081 0.029 0.112 0 0.035 0.007 0.059 0.021 0.064 0.024 0.010 0.027 0.065 0.007 0.137-0.012 0.043-0.010 0.056 0.012 0.078 0.036 0.032 0.052 0.157 0.039 0.307-0.009 0.117-0.001 0.168 0.021 0.154 0.027-0.018 0.069 0.059 0.070 0.129 0 0.059 0.009 0.078 0.060 0.139l0.060 0.069 0.090-0.006c0.063-0.004 0.102-0.015 0.132-0.038 0.024-0.018 0.056-0.032 0.070-0.032 0.021 0 0.17-0.137 0.2-0.186 0.012-0.022 0.173-0.109 0.198-0.109 0.012 0 0.039-0.010 0.061-0.022 0.030-0.016 0.043-0.034 0.045-0.069 0.003-0.040 0.012-0.050 0.040-0.053 0.144-0.015 0.159-0.019 0.141-0.041-0.026-0.032 0.007-0.062 0.081-0.074 0.045-0.006 0.072-0.021 0.086-0.044 0.031-0.049 0.168-0.154 0.2-0.154 0.016 0 0.043-0.012 0.061-0.025 0.021-0.013 0.067-0.030 0.106-0.035 0.045-0.007 0.079-0.022 0.092-0.043 0.012-0.016 0.029-0.030 0.040-0.030s0.029-0.009 0.039-0.021c0.012-0.012 0.057-0.041 0.1-0.066 0.045-0.027 0.089-0.058 0.097-0.068 0.010-0.012 0.041-0.022 0.072-0.022 0.034 0 0.061-0.010 0.079-0.030 0.014-0.016 0.045-0.030 0.069-0.030 0.027 0 0.054-0.015 0.080-0.043 0.029-0.032 0.056-0.044 0.116-0.053 0.057-0.007 0.086-0.019 0.107-0.046 0.018-0.019 0.050-0.037 0.075-0.041 0.026-0.003 0.066-0.022 0.090-0.044s0.059-0.038 0.075-0.038 0.056-0.016 0.084-0.037c0.029-0.021 0.069-0.037 0.089-0.037 0.053 0 0.109-0.027 0.109-0.050 0-0.013 0.024-0.030 0.059-0.041 0.051-0.015 0.066-0.015 0.102 0.007 0.052 0.030 0.069 0.031 0.069 0.006 0-0.010 0.013-0.034 0.030-0.053 0.027-0.031 0.037-0.032 0.141-0.022 0.090 0.007 0.127 0.004 0.185-0.018 0.040-0.015 0.073-0.032 0.073-0.038s0.018-0.012 0.037-0.012c0.020 0 0.048-0.007 0.064-0.016 0.021-0.012 0.036-0.009 0.064 0.015 0.036 0.030 0.036 0.030 0.064 0 0.016-0.016 0.024-0.035 0.020-0.041s0.004-0.010 0.019-0.006c0.015 0.003 0.054-0.013 0.092-0.038 0.036-0.025 0.076-0.046 0.087-0.046s0.026-0.006 0.030-0.013c0.004-0.006 0.029-0.016 0.054-0.022 0.024-0.004 0.056-0.019 0.069-0.031 0.014-0.013 0.057-0.022 0.114-0.024 0.059-0.001 0.141-0.019 0.222-0.046 0.12-0.041 0.134-0.043 0.204-0.027 0.039 0.010 0.089 0.015 0.107 0.009s0.12-0.013 0.226-0.018c0.239-0.009 0.239-0.009 0.308-0.072 0.031-0.028 0.078-0.059 0.1-0.066 0.030-0.010 0.054-0.038 0.081-0.087 0.027-0.053 0.059-0.084 0.109-0.114 0.080-0.046 0.103-0.092 0.103-0.208 0-0.087 0.080-0.281 0.127-0.31 0.036-0.024 0.087-0.124 0.087-0.171 0-0.019 0.021-0.055 0.050-0.084 0.041-0.041 0.048-0.059 0.047-0.111 0-0.032 0.004-0.081 0.010-0.108 0.012-0.064-0.001-0.103-0.040-0.109-0.024-0.003-0.033-0.016-0.036-0.052-0.004-0.050-0.031-0.069-0.031-0.022 0 0.015-0.004 0.031-0.009 0.035-0.014 0.016-0.063-0.007-0.063-0.031-0.001-0.049-0.069-0.105-0.126-0.105-0.015 0-0.043 0.012-0.061 0.028-0.045 0.034-0.236 0.055-0.289 0.030-0.031-0.015-0.045-0.013-0.077 0.010-0.063 0.043-0.135 0.009-0.123-0.059 0.006-0.025-0.012-0.064-0.052-0.125-0.033-0.049-0.059-0.095-0.059-0.102s-0.012-0.025-0.029-0.040c-0.021-0.021-0.029-0.046-0.029-0.103 0-0.084 0.027-0.125 0.083-0.125 0.019 0 0.033-0.012 0.039-0.032s0.021-0.047 0.036-0.064c0.013-0.016 0.029-0.047 0.034-0.069s0.040-0.068 0.080-0.102c0.041-0.034 0.072-0.071 0.072-0.083 0-0.049 0.087-0.195 0.134-0.224 0.026-0.018 0.053-0.049 0.057-0.068 0.005-0.025 0.018-0.037 0.039-0.037 0.030 0 0.125-0.053 0.143-0.080 0.006-0.009 0.007-0.040 0.003-0.071-0.007-0.044-0.003-0.058 0.024-0.081 0.036-0.030 0.125-0.12 0.152-0.157 0.012-0.016 0.033-0.021 0.076-0.015 0.080 0.012 0.129-0.016 0.129-0.072 0-0.080 0.039-0.128 0.133-0.173 0.092-0.043 0.103-0.059 0.135-0.191 0.010-0.041-0.020-0.118-0.054-0.137-0.027-0.015-0.037-0.080-0.016-0.111 0.024-0.038 0.070-0.050 0.113-0.028 0.054 0.030 0.062 0.028 0.062-0.015 0-0.021 0.012-0.049 0.026-0.063 0.018-0.019 0.024-0.043 0.020-0.089-0.006-0.061-0.004-0.063 0.048-0.086 0.095-0.038 0.12-0.055 0.12-0.075 0-0.043 0.045-0.108 0.071-0.108 0.018 0 0.090-0.062 0.179-0.152 0.215-0.217 0.234-0.233 0.276-0.245 0.024-0.007 0.040-0.024 0.045-0.047 0.004-0.021 0.030-0.047 0.060-0.065 0.034-0.019 0.054-0.041 0.060-0.068 0.004-0.024 0.020-0.044 0.037-0.050s0.029-0.022 0.029-0.044c0-0.062 0.045-0.1 0.119-0.1 0.056 0.001 0.073-0.006 0.116-0.049 0.029-0.028 0.052-0.061 0.052-0.071 0-0.012 0.020-0.028 0.043-0.038 0.024-0.010 0.043-0.030 0.043-0.044 0-0.013 0.031-0.053 0.072-0.087 0.039-0.034 0.078-0.078 0.089-0.1s0.036-0.044 0.056-0.050c0.056-0.015 0.168-0.105 0.173-0.139 0.003-0.024 0.018-0.031 0.069-0.037 0.057-0.006 0.064-0.012 0.069-0.049 0.005-0.046 0.059-0.090 0.093-0.077 0.011 0.006 0.029 0.027 0.037 0.049 0.021 0.052 0.129 0.177 0.172 0.199 0.057 0.030 0.045 0.173-0.012 0.173-0.007 0-0.023 0.018-0.034 0.040-0.012 0.024-0.043 0.055-0.072 0.069-0.059 0.032-0.056 0.025-0.057 0.164l-0.001 0.103-0.080 0.043c-0.072 0.038-0.084 0.050-0.093 0.102-0.007 0.032-0.023 0.064-0.034 0.069s-0.059 0.030-0.103 0.052c-0.073 0.035-0.084 0.047-0.099 0.099-0.009 0.032-0.010 0.086-0.006 0.117 0.009 0.047 0.003 0.065-0.027 0.106-0.023 0.031-0.056 0.055-0.082 0.061-0.023 0.004-0.045 0.016-0.047 0.027s-0.013 0.052-0.021 0.092c-0.009 0.040-0.033 0.092-0.051 0.115-0.020 0.024-0.036 0.052-0.036 0.063s-0.009 0.027-0.020 0.035c-0.012 0.010-0.024 0.041-0.030 0.069-0.004 0.028-0.018 0.056-0.030 0.061-0.010 0.004-0.020 0.016-0.020 0.027s-0.012 0.031-0.024 0.046c-0.014 0.015-0.031 0.038-0.040 0.055-0.007 0.016-0.033 0.037-0.057 0.044-0.056 0.019-0.064 0.034-0.048 0.089 0.012 0.049 0.014 0.047-0.050 0.146-0.047 0.074-0.063 0.083-0.109 0.053-0.048-0.032-0.060 0.003-0.026 0.075s0.033 0.077-0.051 0.186c-0.023 0.030-0.046 0.078-0.050 0.108-0.009 0.052-0.012 0.055-0.056 0.050-0.056-0.006-0.073 0.025-0.048 0.090 0.014 0.040 0.012 0.053-0.018 0.108-0.042 0.072-0.046 0.143-0.012 0.21 0.012 0.027 0.018 0.059 0.012 0.075-0.004 0.016 0.001 0.037 0.014 0.052 0.012 0.012 0.033 0.047 0.045 0.077l0.021 0.053 0.113-0.010c0.090-0.009 0.127-0.006 0.182 0.016 0.097 0.035 0.162 0.102 0.162 0.164 0 0.031 0.007 0.049 0.019 0.049s0.034 0.016 0.053 0.037c0.026 0.028 0.036 0.056 0.037 0.115 0.001 0.043 0.007 0.105 0.012 0.139 0.010 0.058 0.009 0.064-0.017 0.064-0.018 0-0.043 0.022-0.066 0.058-0.027 0.043-0.045 0.056-0.064 0.050-0.015-0.004-0.043 0.007-0.067 0.028-0.037 0.034-0.039 0.037-0.017 0.080 0.017 0.034 0.018 0.050 0.004 0.080-0.036 0.083-0.075 0.134-0.105 0.142-0.045 0.012-0.045 0.065 0 0.065 0.066 0 0.090 0.066 0.037 0.1-0.026 0.018-0.034 0.016-0.062-0.010-0.017-0.018-0.036-0.031-0.039-0.031-0.006 0-0.013 0.044-0.019 0.1-0.021 0.245-0.021 0.251-0.051 0.258-0.018 0.004-0.027 0.021-0.027 0.046 0 0.030-0.007 0.038-0.031 0.038-0.018 0-0.039 0.006-0.048 0.012-0.021 0.015-0.063 0.106-0.063 0.14 0 0.016-0.012 0.050-0.026 0.075s-0.036 0.075-0.045 0.112c-0.010 0.037-0.031 0.080-0.046 0.098-0.014 0.016-0.026 0.053-0.026 0.083 0 0.040-0.012 0.065-0.051 0.106-0.056 0.061-0.057 0.084-0.007 0.186 0.034 0.071 0.141 0.139 0.189 0.121 0.018-0.007 0.086-0.012 0.149-0.009 0.063 0.004 0.141 0.006 0.176 0.006 0.050-0.001 0.063 0.004 0.073 0.034 0.018 0.049 0.048 0.069 0.103 0.069 0.217 0.001 0.247 0.006 0.264 0.041 0.027 0.058 0.040 0.065 0.084 0.047 0.031-0.012 0.045-0.010 0.064 0.007 0.013 0.012 0.036 0.022 0.052 0.022s0.042 0.010 0.057 0.022c0.014 0.012 0.054 0.022 0.086 0.022 0.031 0 0.070 0.010 0.086 0.022 0.014 0.012 0.051 0.022 0.080 0.022s0.070 0.007 0.093 0.016c0.021 0.009 0.064 0.016 0.095 0.016 0.031-0.001 0.071 0.006 0.093 0.013s0.103 0.015 0.183 0.015c0.123 0.001 0.155 0.006 0.183 0.030 0.027 0.022 0.048 0.027 0.102 0.018 0.064-0.009 0.070-0.006 0.113 0.043 0.059 0.068 0.177 0.12 0.246 0.106 0.045-0.009 0.056-0.004 0.084 0.032 0.027 0.035 0.043 0.041 0.106 0.043 0.067 0.001 0.080 0.007 0.124 0.056 0.056 0.061 0.056 0.061 0.119 0.038 0.037-0.013 0.057-0.012 0.121 0.016 0.048 0.021 0.081 0.044 0.093 0.068 0.009 0.019 0.026 0.040 0.037 0.044 0.012 0.006 0.021 0.018 0.021 0.027s0.020 0.019 0.048 0.021c0.067 0.003 0.152 0.043 0.21 0.098 0.064 0.062 0.13 0.089 0.192 0.078 0.039-0.006 0.057 0 0.087 0.028 0.020 0.019 0.048 0.035 0.062 0.035 0.034 0 0.117 0.055 0.117 0.077 0 0.010 0.014 0.021 0.033 0.022 0.072 0.006 0.168 0.030 0.187 0.049 0.012 0.010 0.023 0.030 0.023 0.044 0 0.019 0.009 0.025 0.027 0.019 0.017-0.004 0.051 0.016 0.1 0.061 0.040 0.037 0.084 0.068 0.096 0.068s0.043 0.009 0.067 0.021c0.026 0.012 0.062 0.024 0.081 0.027 0.026 0.003 0.043 0.021 0.062 0.061 0.012 0.030 0.030 0.055 0.037 0.055s0.033 0.018 0.057 0.038c0.024 0.021 0.075 0.046 0.112 0.055 0.057 0.015 0.070 0.024 0.073 0.055 0.003 0.021 0.012 0.046 0.021 0.058 0.024 0.030 0.124 0.075 0.168 0.075 0.037 0 0.127 0.075 0.156 0.13 0.009 0.018 0.026 0.032 0.037 0.032s0.057 0.038 0.102 0.087c0.097 0.108 0.213 0.159 0.302 0.136 0.030-0.007 0.092-0.018 0.136-0.024 0.046-0.004 0.086-0.016 0.092-0.024 0.004-0.007 0.041-0.013 0.081-0.013 0.19 0 0.266-0.009 0.291-0.034 0.015-0.013 0.063-0.044 0.108-0.068 0.073-0.040 0.092-0.044 0.164-0.037 0.093 0.010 0.189-0.024 0.239-0.081 0.016-0.016 0.039-0.031 0.054-0.031 0.020 0 0.026-0.012 0.026-0.058 0-0.031-0.010-0.077-0.021-0.099-0.012-0.024-0.021-0.053-0.021-0.066s-0.062-0.086-0.136-0.162c-0.075-0.077-0.136-0.149-0.136-0.162s-0.010-0.032-0.023-0.044c-0.057-0.049-0.127-0.248-0.141-0.408l-0.010-0.106 0.056 0.003c0.059 0.001 0.13-0.041 0.168-0.103 0.012-0.019 0.036-0.034 0.052-0.034s0.053-0.013 0.081-0.028c0.129-0.071 0.155-0.077 0.198-0.053 0.053 0.028 0.126 0.028 0.149 0 0.010-0.012 0.034-0.022 0.056-0.022s0.053-0.010 0.070-0.024c0.036-0.025 0.264-0.032 0.402-0.013 0.086 0.012 0.228-0.013 0.33-0.059 0.070-0.031 0.293-0.068 0.414-0.068 0.021 0 0.063-0.010 0.097-0.022 0.036-0.012 0.121-0.021 0.215-0.021 0.084-0.001 0.166-0.001 0.182-0.001s0.16 0.003 0.322 0.007c0.368 0.009 0.529 0.027 0.552 0.059 0.014 0.022 0.018 0.021 0.024-0.006s0.014-0.031 0.078-0.021c0.037 0.006 0.083 0.016 0.102 0.022s0.127 0.013 0.242 0.013c0.196 0 0.283 0.012 0.357 0.047 0.018 0.010 0.072 0.012 0.135 0.006 0.099-0.010 0.105-0.009 0.143 0.030s0.043 0.040 0.166 0.030c0.111-0.009 0.132-0.006 0.166 0.019 0.023 0.015 0.053 0.024 0.067 0.021 0.014-0.004 0.060 0.003 0.103 0.015 0.056 0.018 0.129 0.022 0.279 0.019 0.183-0.004 0.207-0.003 0.234 0.024 0.016 0.015 0.029 0.037 0.029 0.049 0 0.015 0.016 0.022 0.048 0.022 0.060 0 0.156 0.058 0.179 0.108 0.017 0.035 0.015 0.044-0.009 0.077-0.033 0.043-0.027 0.105 0.010 0.115 0.014 0.003 0.030 0.027 0.034 0.050s0.021 0.050 0.039 0.058c0.027 0.013 0.029 0.015 0.006 0.049s-0.030 0.034-0.137 0.025c-0.092-0.007-0.123-0.004-0.173 0.018-0.051 0.024-0.089 0.027-0.253 0.022-0.106-0.003-0.25-0.012-0.322-0.018-0.070-0.007-0.138-0.007-0.152 0s-0.036 0.009-0.051 0.004c-0.030-0.009-0.076 0.027-0.076 0.058 0 0.025-0.050 0.055-0.070 0.041-0.010-0.007-0.042 0-0.070 0.015-0.064 0.034-0.107 0.035-0.155 0.004-0.034-0.024-0.039-0.024-0.077 0.007-0.030 0.022-0.063 0.031-0.113 0.031-0.039 0-0.080 0.009-0.090 0.019-0.048 0.050-0.149 0.084-0.247 0.083-0.346-0.003-0.403 0.004-0.418 0.059-0.009 0.037-0.096 0.075-0.177 0.077-0.095 0.001-0.289 0.028-0.318 0.044-0.014 0.007-0.057 0.013-0.096 0.013-0.075 0-0.185 0.043-0.217 0.083-0.034 0.043-0.111 0.068-0.175 0.058-0.134-0.021-0.255 0.096-0.225 0.217 0.037 0.142 0.067 0.23 0.096 0.272 0.021 0.031 0.027 0.052 0.017 0.066-0.007 0.010-0.012 0.061-0.012 0.108 0 0.071-0.006 0.095-0.031 0.123-0.030 0.034-0.031 0.035-0.007 0.105 0.013 0.038 0.024 0.077 0.024 0.087 0 0.037-0.045 0.063-0.105 0.062-0.041-0.001-0.080 0.010-0.124 0.037-0.047 0.028-0.075 0.035-0.111 0.030s-0.057 0-0.099 0.030c-0.043 0.030-0.066 0.035-0.107 0.030-0.030-0.006-0.069-0.001-0.093 0.012-0.043 0.019-0.195 0.024-0.236 0.006-0.016-0.007-0.027 0.003-0.043 0.037-0.029 0.066-0.086 0.108-0.145 0.102-0.168-0.013-0.349 0.019-0.405 0.074-0.018 0.018-0.056 0.037-0.084 0.046-0.029 0.007-0.052 0.021-0.052 0.028 0 0.009-0.018 0.015-0.039 0.015-0.062 0-0.18 0.093-0.185 0.145-0.003 0.022-0.007 0.065-0.012 0.096-0.009 0.050-0.003 0.065 0.056 0.142 0.036 0.047 0.069 0.108 0.075 0.134s0.020 0.058 0.031 0.072c0.045 0.052 0.089 0.136 0.099 0.186 0.004 0.028 0.018 0.052 0.029 0.052 0.023 0 0.048 0.046 0.048 0.086 0 0.016 0.026 0.065 0.057 0.108s0.057 0.087 0.057 0.098 0.029 0.052 0.064 0.093c0.036 0.041 0.064 0.084 0.064 0.096s0.021 0.047 0.048 0.077c0.069 0.081 0.084 0.118 0.075 0.183-0.009 0.055-0.007 0.058 0.042 0.078 0.048 0.022 0.050 0.025 0.042 0.081s-0.006 0.062 0.036 0.086c0.024 0.015 0.045 0.037 0.045 0.050s0.023 0.077 0.052 0.14c0.045 0.102 0.048 0.12 0.033 0.151-0.016 0.028-0.016 0.037 0.001 0.049 0.011 0.007 0.034 0.010 0.048 0.007 0.066-0.016 0.111 0.069 0.077 0.146-0.012 0.030-0.010 0.043 0.012 0.075 0.041 0.061 0.090 0.158 0.090 0.185 0.001 0.013 0.015 0.035 0.030 0.050 0.057 0.053 0.106 0.161 0.117 0.258 0.006 0.053 0.016 0.13 0.020 0.171 0.007 0.062 0.016 0.080 0.045 0.093 0.018 0.009 0.033 0.025 0.031 0.034-0.006 0.046 0.004 0.072 0.051 0.136 0.037 0.052 0.050 0.083 0.050 0.126 0 0.032-0.006 0.063-0.014 0.068-0.023 0.015-0.018 0.034 0.012 0.044 0.016 0.004 0.033 0.028 0.039 0.055 0.004 0.027 0.020 0.068 0.034 0.095 0.018 0.031 0.029 0.095 0.036 0.199 0.006 0.084 0.018 0.186 0.030 0.226s0.020 0.124 0.020 0.186c0 0.102 0.004 0.121 0.043 0.179 0.045 0.068 0.052 0.121 0.029 0.205-0.016 0.055-0.001 0.089 0.067 0.164 0.018 0.022 0.034 0.049 0.033 0.059-0.007 0.050 0.001 0.089 0.026 0.112 0.014 0.015 0.040 0.050 0.057 0.080 0.037 0.063 0.106 0.121 0.192 0.159 0.034 0.015 0.076 0.049 0.095 0.074 0.027 0.038 0.042 0.046 0.089 0.046 0.039 0 0.057 0.006 0.057 0.019 0 0.027 0.166 0.188 0.192 0.188 0.010 0 0.027 0.010 0.037 0.022s0.042 0.022 0.070 0.022c0.045 0 0.056 0.006 0.067 0.040 0.012 0.032 0.026 0.041 0.099 0.058 0.048 0.009 0.13 0.037 0.182 0.062 0.081 0.038 0.095 0.049 0.087 0.075-0.007 0.030-0.003 0.031 0.099 0.031 0.105 0 0.106 0 0.162-0.059l0.057-0.061 0.004-0.351c0.004-0.292 0.001-0.362-0.018-0.408-0.027-0.068-0.012-0.102 0.056-0.133 0.027-0.010 0.050-0.027 0.050-0.034s0.027-0.032 0.059-0.055c0.054-0.037 0.064-0.038 0.111-0.024 0.045 0.015 0.103 0.021 0.285 0.030 0.020 0.001 0.031 0.010 0.031 0.028 0 0.038 0.054 0.121 0.078 0.121 0.011 0 0.021 0.009 0.021 0.021 0 0.025 0.080 0.098 0.107 0.098 0.012 0 0.027 0.013 0.036 0.030 0.009 0.018 0.030 0.030 0.052 0.030 0.024 0 0.039 0.010 0.045 0.028 0.004 0.016 0.024 0.032 0.045 0.038s0.083 0.031 0.136 0.056c0.077 0.038 0.096 0.053 0.090 0.075-0.004 0.019 0.004 0.031 0.034 0.043 0.040 0.016 0.086 0.078 0.086 0.117 0 0.034 0.079 0.102 0.123 0.108 0.029 0.003 0.063 0.030 0.113 0.087 0.040 0.046 0.078 0.083 0.087 0.083s0.030 0.016 0.048 0.037c0.024 0.027 0.048 0.037 0.089 0.037 0.057 0 0.059 0.003 0.054 0.084-0.001 0.040 0.004 0.052 0.033 0.062 0.020 0.009 0.040 0.022 0.045 0.030 0.004 0.009 0.034 0.016 0.066 0.016 0.043 0 0.063 0.009 0.089 0.040 0.018 0.021 0.043 0.050 0.056 0.065s0.034 0.043 0.048 0.064c0.012 0.019 0.043 0.041 0.064 0.046 0.024 0.006 0.060 0.034 0.086 0.065 0.026 0.034 0.059 0.061 0.084 0.065 0.026 0.006 0.045 0.021 0.051 0.040 0.010 0.034 0.141 0.148 0.172 0.148 0.010 0 0.046 0.041 0.080 0.092 0.034 0.049 0.087 0.115 0.117 0.146s0.053 0.066 0.053 0.078c0 0.030 0.1 0.136 0.141 0.149 0.029 0.009 0.033 0.018 0.029 0.053-0.005 0.035 0.007 0.059 0.070 0.134 0.043 0.050 0.080 0.106 0.084 0.125 0.010 0.038 0.059 0.059 0.081 0.035 0.026-0.027 0.048-0.019 0.064 0.021 0.010 0.022 0.029 0.037 0.045 0.037 0.048 0 0.086 0.052 0.086 0.117s0.016 0.083 0.075 0.078c0.021-0.001 0.040 0.004 0.040 0.013s0.029 0.046 0.064 0.083c0.036 0.035 0.064 0.074 0.064 0.083 0.001 0.024 0.096 0.128 0.117 0.128 0.010 0 0.057 0.043 0.107 0.096 0.076 0.081 0.090 0.105 0.090 0.148 0 0.040 0.012 0.065 0.057 0.111 0.031 0.032 0.063 0.059 0.069 0.059 0.015 0 0.056 0.092 0.064 0.14 0.003 0.016-0.004 0.049-0.014 0.071-0.012 0.024-0.018 0.052-0.012 0.064s-0.010 0.050-0.031 0.084c-0.021 0.034-0.041 0.092-0.045 0.128-0.009 0.078-0.039 0.093-0.084 0.043-0.048-0.052-0.105-0.087-0.146-0.087-0.029 0-0.043-0.010-0.056-0.043-0.009-0.024-0.031-0.058-0.052-0.077-0.018-0.018-0.034-0.041-0.034-0.052s-0.012-0.022-0.027-0.028c-0.016-0.004-0.040-0.030-0.056-0.056-0.018-0.034-0.043-0.052-0.083-0.062-0.036-0.010-0.062-0.028-0.073-0.050-0.009-0.021-0.053-0.062-0.099-0.093s-0.107-0.084-0.137-0.117c-0.039-0.041-0.064-0.056-0.082-0.050s-0.047-0.010-0.087-0.044c-0.033-0.028-0.066-0.052-0.075-0.052-0.030 0-0.126-0.092-0.126-0.12 0-0.016-0.036-0.065-0.079-0.109s-0.078-0.087-0.078-0.093c0-0.006-0.023-0.021-0.048-0.030-0.027-0.010-0.053-0.031-0.057-0.044-0.012-0.041-0.166-0.195-0.195-0.195-0.014 0-0.029-0.013-0.033-0.030s-0.024-0.031-0.048-0.037c-0.023-0.004-0.062-0.015-0.086-0.022-0.062-0.021-0.102-0.018-0.141 0.007-0.026 0.018-0.063 0.022-0.146 0.019-0.102-0.004-0.113-0.007-0.113-0.034 0-0.022 0.009-0.028 0.033-0.025 0.045 0.007 0.041-0.041-0.012-0.093-0.039-0.038-0.051-0.043-0.156-0.043-0.119-0.001-0.139-0.012-0.21-0.096-0.023-0.028-0.042-0.034-0.099-0.034-0.062 0.001-0.075-0.003-0.121-0.055l-0.054-0.058-0.129 0.003c-0.152 0.004-0.183 0.021-0.24 0.12-0.031 0.058-0.037 0.078-0.029 0.139 0.007 0.055 0.004 0.075-0.013 0.090-0.014 0.012-0.021 0.044-0.021 0.092 0 0.080-0.026 0.106-0.069 0.066-0.026-0.024-0.075-0.010-0.075 0.021 0 0.034-0.067 0.105-0.123 0.131-0.119 0.053-0.136 0.052-0.231-0.022-0.048-0.037-0.1-0.066-0.117-0.066s-0.054-0.010-0.081-0.022c-0.027-0.012-0.054-0.021-0.060-0.019-0.018 0.006-0.075-0.019-0.075-0.034 0-0.007-0.021-0.022-0.047-0.032-0.054-0.024-0.124-0.112-0.124-0.157 0-0.018-0.009-0.031-0.020-0.031-0.039 0-0.066 0.018-0.066 0.044 0 0.024-0.004 0.025-0.036 0.010-0.020-0.010-0.036-0.024-0.036-0.030s-0.026-0.038-0.057-0.071c-0.048-0.049-0.066-0.058-0.116-0.058-0.045 0-0.070-0.010-0.109-0.044-0.026-0.024-0.062-0.044-0.077-0.044-0.033 0-0.103-0.035-0.155-0.075-0.018-0.016-0.075-0.041-0.126-0.058-0.052-0.016-0.111-0.043-0.135-0.061s-0.069-0.034-0.099-0.038c-0.031-0.004-0.053-0.015-0.048-0.022 0.014-0.024-0.039-0.071-0.080-0.071-0.030 0-0.043 0.010-0.057 0.043-0.010 0.027-0.034 0.050-0.059 0.059-0.064 0.022-0.141 0.093-0.141 0.128 0 0.022 0.009 0.031 0.026 0.030 0.033-0.003 0.041 0.087 0.011 0.123-0.041 0.047-0.066 0.165-0.066 0.325 0 0.14-0.004 0.161-0.045 0.251-0.033 0.071-0.043 0.109-0.037 0.146 0.004 0.027-0.003 0.098-0.018 0.158-0.021 0.086-0.024 0.12-0.012 0.155 0.020 0.058 0.007 0.093-0.029 0.081-0.015-0.004-0.033 0-0.040 0.010-0.029 0.037-0.050 0.173-0.040 0.25 0.009 0.064 0.006 0.080-0.020 0.108-0.021 0.024-0.031 0.058-0.036 0.124-0.005 0.078-0.012 0.098-0.047 0.127l-0.040 0.037 0.027 0.050c0.030 0.059 0.021 0.084-0.029 0.084-0.026 0-0.034 0.007-0.034 0.034 0 0.040-0.024 0.069-0.059 0.069-0.033 0-0.047 0.050-0.027 0.089 0.012 0.021 0.012 0.069 0.007 0.139-0.010 0.105-0.012 0.109-0.059 0.131-0.039 0.021-0.052 0.038-0.070 0.106-0.012 0.044-0.034 0.089-0.048 0.099s-0.030 0.046-0.036 0.078c-0.021 0.114-0.034 0.177-0.054 0.251-0.018 0.071-0.021 0.074-0.067 0.071l-0.048-0.001 0.010 0.084c0.007 0.059 0.003 0.103-0.014 0.154-0.013 0.038-0.018 0.084-0.015 0.099 0.007 0.022 0 0.032-0.024 0.043-0.047 0.019-0.107 0.090-0.12 0.142-0.006 0.025-0.031 0.071-0.059 0.105-0.026 0.032-0.052 0.081-0.056 0.105-0.006 0.027-0.023 0.053-0.043 0.065-0.026 0.013-0.034 0.031-0.034 0.066 0 0.028-0.012 0.065-0.033 0.090-0.019 0.022-0.054 0.084-0.080 0.137s-0.062 0.127-0.082 0.164c-0.018 0.038-0.037 0.095-0.041 0.125-0.004 0.044-0.020 0.069-0.064 0.109-0.031 0.028-0.073 0.086-0.093 0.125-0.042 0.087-0.127 0.185-0.163 0.185s-0.059 0.030-0.059 0.077c0 0.022-0.018 0.065-0.037 0.096s-0.040 0.075-0.045 0.098c-0.006 0.027-0.023 0.049-0.046 0.059-0.053 0.025-0.054 0.030-0.047 0.151 0.006 0.108 0.006 0.109-0.040 0.152l-0.046 0.044 0.009 0.13c0.014 0.195 0.014 0.195-0.012 0.222-0.052 0.053 0.018 0.272 0.073 0.226 0.009-0.009 0.030-0.013 0.045-0.010 0.023 0.004 0.023 0.007-0.004 0.034-0.048 0.047-0.050 0.092-0.012 0.205 0.029 0.084 0.031 0.112 0.020 0.149-0.012 0.035-0.009 0.056 0.012 0.1s0.024 0.066 0.012 0.117c-0.011 0.056-0.009 0.066 0.033 0.127 0.043 0.062 0.045 0.069 0.039 0.176l-0.007 0.112 0.059 0.064c0.054 0.058 0.066 0.064 0.123 0.062 0.036-0.001 0.080 0.001 0.1 0.007 0.030 0.010 0.046 0.001 0.097-0.049 0.034-0.032 0.075-0.059 0.090-0.059s0.048-0.032 0.081-0.077c0.080-0.111 0.171-0.204 0.199-0.204 0.014 0 0.053-0.013 0.087-0.030 0.050-0.024 0.060-0.035 0.060-0.071 0-0.087 0.093-0.125 0.183-0.078 0.050 0.027 0.057 0.035 0.056 0.078-0.003 0.050 0.027 0.075 0.109 0.093 0.029 0.006 0.046 0.024 0.060 0.058 0.014 0.032 0.036 0.055 0.064 0.065 0.069 0.025 0.111 0.173 0.066 0.242-0.021 0.032-0.020 0.040 0.006 0.090 0.016 0.030 0.029 0.064 0.029 0.075s0.013 0.027 0.029 0.031c0.026 0.009 0.029 0.022 0.029 0.137 0 0.139-0.018 0.244-0.042 0.251-0.009 0.003-0.015 0.025-0.015 0.049 0 0.032 0.007 0.043 0.027 0.043 0.018 0 0.033 0.016 0.043 0.046 0.020 0.061 0.020 0.238 0 0.31-0.012 0.041-0.012 0.084 0 0.167 0.016 0.109 0.012 0.154-0.026 0.289-0.009 0.037 0.039 0.164 0.070 0.185 0.020 0.012 0.018 0.164-0.003 0.198-0.013 0.021-0.012 0.034 0.007 0.062 0.016 0.024 0.024 0.065 0.024 0.125 0 0.049 0.004 0.095 0.012 0.1 0.017 0.018 0.024 0.248 0.018 0.611-0.001 0.124-0.004 0.139-0.029 0.146-0.015 0.004-0.041 0.037-0.057 0.071-0.027 0.059-0.027 0.069-0.009 0.115 0.014 0.035 0.020 0.114 0.020 0.278 0 0.125 0.004 0.269 0.010 0.319 0.005 0.058 0.004 0.099-0.004 0.111-0.010 0.013-0.012 0.053-0.001 0.118 0.010 0.080 0.009 0.108-0.009 0.142-0.014 0.030-0.023 0.112-0.029 0.272-0.003 0.127-0.014 0.248-0.023 0.269-0.007 0.022-0.014 0.061-0.014 0.086s-0.018 0.080-0.040 0.121c-0.023 0.041-0.045 0.103-0.051 0.139-0.024 0.168-0.166 0.322-0.166 0.182 0-0.022-0.012-0.052-0.026-0.065-0.024-0.024-0.029-0.024-0.056 0.003-0.016 0.016-0.033 0.052-0.039 0.080-0.012 0.062-0.039 0.089-0.084 0.081-0.024-0.003-0.034-0.016-0.037-0.044-0.004-0.032 0-0.040 0.018-0.032 0.014 0.006 0.027-0.004 0.039-0.028 0.021-0.047 0.009-0.084-0.029-0.084-0.033 0-0.043-0.027-0.041-0.114 0-0.035-0.010-0.080-0.024-0.102-0.020-0.031-0.021-0.046-0.009-0.075 0.051-0.118-0.029-0.468-0.121-0.532-0.045-0.030-0.052-0.058-0.029-0.105 0.012-0.028 0.018-0.078 0.012-0.165-0.018-0.353-0.015-0.473 0.009-0.487 0.021-0.013 0.021-0.013 0-0.015-0.026 0-0.042-0.030-0.042-0.075 0-0.015-0.012-0.041-0.029-0.058s-0.029-0.049-0.029-0.075c0-0.027-0.012-0.068-0.027-0.093-0.030-0.052-0.073-0.211-0.073-0.275 0-0.024-0.007-0.047-0.016-0.053-0.012-0.007-0.014-0.049-0.009-0.133 0.007-0.096 0.004-0.125-0.012-0.139-0.010-0.010-0.021-0.040-0.021-0.068 0-0.032-0.009-0.056-0.030-0.071-0.048-0.034-0.072-0.093-0.062-0.158 0.009-0.049 0.004-0.062-0.034-0.102-0.042-0.041-0.045-0.052-0.040-0.139 0.003-0.050 0.009-0.1 0.015-0.109 0.004-0.007-0.007-0.035-0.027-0.059s-0.036-0.052-0.036-0.059c0-0.009-0.018-0.027-0.041-0.041-0.021-0.013-0.052-0.044-0.064-0.066-0.014-0.024-0.031-0.043-0.042-0.043-0.009 0-0.036-0.021-0.062-0.046l-0.046-0.046-0.073 0.035c-0.062 0.028-0.075 0.043-0.087 0.089-0.012 0.047-0.021 0.055-0.083 0.069-0.046 0.012-0.084 0.012-0.116 0.001-0.027-0.007-0.063-0.010-0.081-0.006s-0.036 0.001-0.040-0.007c-0.006-0.010-0.023-0.009-0.053 0.001-0.033 0.012-0.048 0.010-0.067-0.007-0.013-0.012-0.031-0.019-0.040-0.015-0.020 0.007-0.039-0.016-0.090-0.115-0.039-0.078-0.039-0.081-0.021-0.158 0.017-0.068 0.017-0.084-0.001-0.121-0.012-0.024-0.023-0.068-0.026-0.099s-0.021-0.083-0.041-0.115-0.040-0.074-0.046-0.092c-0.006-0.019-0.016-0.034-0.023-0.034-0.029 0-0.045-0.059-0.030-0.108 0.021-0.065-0.012-0.168-0.070-0.229-0.029-0.031-0.042-0.056-0.037-0.072s0.003-0.081-0.004-0.149c-0.009-0.092-0.020-0.131-0.042-0.155-0.015-0.018-0.041-0.068-0.057-0.111l-0.030-0.078 0.030-0.012c0.027-0.010 0.027-0.012-0.010-0.037-0.021-0.015-0.045-0.022-0.056-0.019-0.014 0.006-0.015-0.021-0.011-0.112 0.009-0.142-0.016-0.202-0.096-0.241-0.029-0.013-0.066-0.037-0.083-0.053-0.021-0.022-0.056-0.031-0.114-0.034-0.045-0.003-0.089-0.006-0.097-0.009-0.007-0.003-0.047 0.012-0.087 0.031-0.053 0.025-0.077 0.047-0.090 0.080-0.027 0.075-0.093 0.142-0.168 0.168-0.048 0.018-0.080 0.043-0.103 0.077-0.018 0.028-0.048 0.061-0.069 0.071s-0.031 0.025-0.027 0.034c0.014 0.024-0.007 0.071-0.036 0.080-0.016 0.006-0.050 0.001-0.077-0.009-0.064-0.024-0.105 0.003-0.153 0.099-0.048 0.093-0.095 0.123-0.159 0.098-0.047-0.018-0.048-0.018-0.119 0.061-0.040 0.044-0.086 0.084-0.103 0.090-0.015 0.006-0.037 0.030-0.047 0.052-0.018 0.047-0.054 0.064-0.114 0.050-0.051-0.010-0.123 0.030-0.15 0.084-0.013 0.027-0.037 0.047-0.062 0.053-0.021 0.004-0.057 0.015-0.080 0.022s-0.056 0.013-0.073 0.013c-0.018 0-0.047 0.012-0.066 0.028s-0.054 0.032-0.080 0.037c-0.026 0.006-0.062 0.027-0.079 0.047-0.024 0.027-0.048 0.035-0.093 0.035-0.048 0-0.059 0.004-0.053 0.022 0.012 0.031-0.020 0.066-0.060 0.066-0.021 0-0.047 0.019-0.072 0.052-0.030 0.041-0.048 0.052-0.086 0.052-0.026 0-0.051 0.007-0.056 0.015-0.004 0.009-0.030 0.015-0.057 0.015-0.039 0-0.056 0.010-0.086 0.050-0.050 0.068-0.072 0.074-0.143 0.038-0.077-0.038-0.113-0.037-0.141 0.007-0.031 0.049-0.1 0.065-0.237 0.056l-0.114-0.007 0.009 0.044c0.009 0.043 0.007 0.043-0.075 0.056-0.046 0.006-0.159 0.012-0.25 0.013-0.165 0-0.168 0.001-0.204 0.041-0.020 0.022-0.046 0.040-0.056 0.040s-0.030 0.013-0.045 0.030c-0.014 0.016-0.045 0.030-0.067 0.030-0.030 0-0.045 0.009-0.050 0.028-0.009 0.035-0.084 0.065-0.117 0.047-0.031-0.018-0.25 0.007-0.302 0.035-0.023 0.012-0.077 0.022-0.12 0.022-0.14 0-0.295 0.038-0.343 0.087-0.024 0.022-0.066 0.049-0.092 0.058s-0.063 0.030-0.083 0.046c-0.020 0.016-0.066 0.034-0.102 0.040-0.056 0.009-0.067 0.016-0.084 0.061-0.011 0.028-0.030 0.053-0.041 0.059-0.012 0.004-0.021 0.015-0.021 0.025s-0.018 0.034-0.043 0.056c-0.036 0.032-0.042 0.046-0.034 0.084s0.001 0.055-0.041 0.103c-0.034 0.040-0.056 0.083-0.069 0.14-0.015 0.066-0.027 0.090-0.072 0.127-0.037 0.031-0.056 0.058-0.056 0.083 0 0.041-0.053 0.095-0.119 0.117-0.031 0.010-0.050 0.028-0.060 0.059-0.007 0.025-0.026 0.061-0.039 0.081-0.027 0.037-0.037 0.207-0.014 0.207 0.024 0 0.147 0.108 0.196 0.174 0.036 0.047 0.048 0.078 0.045 0.1-0.014 0.058 0.018 0.065 0.124 0.028 0.102-0.035 0.193-0.035 0.243 0 0.027 0.019 0.077 0.012 0.157-0.021 0.073-0.030 0.119-0.021 0.138 0.027 0.016 0.040 0.033 0.058 0.15 0.155 0.037 0.031 0.041 0.043 0.037 0.103-0.003 0.044 0.004 0.083 0.018 0.105 0.016 0.024 0.018 0.046 0.010 0.077-0.023 0.080-0.060 0.139-0.099 0.155-0.037 0.016-0.037 0.018-0.006 0.022 0.048 0.010 0.043 0.072-0.012 0.1-0.023 0.013-0.043 0.031-0.043 0.040 0 0.028-0.045 0.069-0.066 0.061-0.013-0.004-0.018 0-0.013 0.013s-0.015 0.049-0.050 0.087c-0.031 0.035-0.057 0.072-0.057 0.083 0 0.019-0.056 0.139-0.072 0.152-0.021 0.018-0.057 0.090-0.057 0.109 0 0.028-0.080 0.090-0.133 0.103-0.026 0.006-0.045 0.024-0.054 0.050-0.009 0.022-0.048 0.077-0.090 0.121s-0.090 0.103-0.107 0.128c-0.018 0.027-0.048 0.053-0.070 0.058-0.096 0.022-0.092 0.016-0.168 0.182-0.020 0.043-0.072 0.114-0.114 0.157-0.075 0.074-0.078 0.081-0.078 0.154 0 0.043-0.006 0.089-0.015 0.103-0.007 0.015-0.051 0.041-0.097 0.059-0.059 0.022-0.090 0.044-0.102 0.069-0.009 0.019-0.027 0.035-0.043 0.035s-0.039 0.019-0.053 0.043c-0.014 0.024-0.039 0.052-0.059 0.062s-0.047 0.040-0.063 0.066c-0.029 0.050-0.087 0.105-0.177 0.168-0.027 0.021-0.064 0.062-0.080 0.093-0.020 0.038-0.059 0.077-0.122 0.117-0.050 0.032-0.092 0.068-0.092 0.078 0 0.012-0.012 0.024-0.027 0.030-0.042 0.013-0.217 0.201-0.24 0.255-0.010 0.027-0.039 0.081-0.063 0.121-0.037 0.062-0.052 0.074-0.088 0.074-0.061 0-0.132 0.075-0.12 0.128 0.009 0.030 0.006 0.035-0.010 0.030-0.024-0.009-0.081 0.064-0.081 0.103 0 0.056-0.033 0.075-0.177 0.103-0.023 0.004-0.081 0.037-0.132 0.072s-0.096 0.065-0.1 0.065c-0.006 0-0.024 0.016-0.043 0.037-0.027 0.030-0.048 0.037-0.103 0.037s-0.075 0.006-0.092 0.031c-0.016 0.025-0.039 0.032-0.122 0.038-0.084 0.007-0.109 0.015-0.135 0.043-0.033 0.037-0.037 0.038-0.067 0.025zM13.591 31.65c0.009-0.016 0.014-0.044 0.012-0.062-0.004-0.031-0.007-0.031-0.052 0.015-0.026 0.027-0.045 0.055-0.039 0.064 0.016 0.025 0.063 0.016 0.079-0.016zM16.216 23.927c0.072-0.007 0.153-0.021 0.182-0.031 0.043-0.013 0.080-0.012 0.179 0.007 0.239 0.044 0.282 0.044 0.387-0.007 0.121-0.059 0.177-0.072 0.36-0.080 0.126-0.004 0.163-0.012 0.226-0.046 0.043-0.022 0.081-0.053 0.089-0.071 0.015-0.040 0.096-0.081 0.162-0.081 0.027 0 0.064-0.013 0.086-0.030 0.048-0.038 0.070-0.037 0.121 0.007 0.024 0.021 0.048 0.037 0.057 0.037 0.007 0 0.043-0.027 0.078-0.059s0.070-0.059 0.078-0.059c0.007 0 0.030-0.021 0.050-0.046 0.036-0.041 0.045-0.044 0.103-0.035 0.057 0.009 0.067 0.006 0.097-0.030 0.047-0.058 0.138-0.102 0.2-0.098 0.030 0.001 0.075-0.010 0.107-0.028 0.030-0.016 0.062-0.030 0.070-0.030s0.027-0.013 0.041-0.030c0.015-0.016 0.034-0.030 0.043-0.030 0.015 0 0.213-0.095 0.293-0.14 0.020-0.012 0.066-0.025 0.103-0.030 0.057-0.007 0.069-0.015 0.081-0.053 0.007-0.024 0.026-0.047 0.040-0.053s0.037-0.025 0.050-0.043c0.024-0.031 0.072-0.055 0.143-0.071 0.027-0.006 0.037-0.016 0.031-0.031s-0.003-0.019 0.012-0.015c0.010 0.004 0.053-0.024 0.096-0.065s0.095-0.078 0.116-0.083c0.050-0.012 0.139-0.087 0.168-0.145 0.027-0.058 0.043-0.069 0.093-0.069 0.043 0 0.064-0.022 0.039-0.038-0.012-0.007-0.011-0.015 0.004-0.027 0.012-0.009 0.029-0.031 0.039-0.049s0.039-0.040 0.075-0.049c0.031-0.009 0.067-0.028 0.078-0.041 0.059-0.068 0.106-0.143 0.106-0.168s0.007-0.028 0.045-0.019c0.036 0.009 0.051 0.003 0.084-0.030 0.023-0.022 0.048-0.037 0.060-0.032 0.026 0.009 0.069-0.016 0.069-0.040 0-0.012 0.010-0.024 0.021-0.030 0.012-0.004 0.029-0.025 0.036-0.046s0.036-0.052 0.064-0.068c0.031-0.019 0.060-0.055 0.078-0.095 0.014-0.035 0.040-0.068 0.054-0.072 0.015-0.006 0.050-0.040 0.075-0.077 0.026-0.037 0.080-0.093 0.12-0.125 0.147-0.121 0.215-0.191 0.219-0.229 0.001-0.022 0.024-0.059 0.051-0.086 0.026-0.025 0.078-0.083 0.113-0.127s0.097-0.098 0.136-0.118c0.059-0.032 0.070-0.046 0.072-0.081 0-0.025 0.009-0.059 0.018-0.078s0.017-0.041 0.015-0.052c-0.006-0.047 0.004-0.068 0.042-0.081 0.023-0.007 0.050-0.009 0.062-0.003s0.031 0.003 0.048-0.009c0.024-0.019 0.030-0.044 0.036-0.164l0.007-0.142 0.050-0.018c0.069-0.024 0.114-0.096 0.114-0.183 0-0.058 0.007-0.075 0.053-0.123 0.029-0.031 0.062-0.056 0.072-0.056 0.033 0 0.067-0.071 0.052-0.106-0.020-0.047 0.066-0.224 0.124-0.255 0.023-0.012 0.060-0.050 0.082-0.083 0.036-0.056 0.039-0.072 0.034-0.176-0.003-0.106-0.001-0.117 0.026-0.125 0.021-0.007 0.030-0.022 0.030-0.056 0-0.050 0.052-0.173 0.073-0.173 0.007 0 0.026-0.021 0.040-0.047 0.021-0.035 0.026-0.062 0.020-0.117-0.007-0.066-0.004-0.075 0.045-0.133l0.053-0.061-0.010-0.1c-0.009-0.083-0.006-0.109 0.018-0.157 0.016-0.032 0.042-0.071 0.059-0.086 0.019-0.018 0.030-0.046 0.030-0.077 0-0.027 0.007-0.066 0.016-0.090 0.009-0.022 0.014-0.095 0.014-0.158-0.001-0.090 0.003-0.123 0.021-0.143s0.021-0.043 0.014-0.1c-0.006-0.041-0.003-0.090 0.007-0.114s0.018-0.077 0.020-0.117c0.003-0.041 0.019-0.114 0.036-0.16 0.027-0.072 0.029-0.096 0.018-0.148-0.009-0.034-0.020-0.106-0.026-0.161l-0.010-0.098 0.048-0.025c0.039-0.021 0.045-0.030 0.036-0.064-0.012-0.055-0.009-0.22 0.009-0.264 0.009-0.028 0.015-0.193 0.014-0.411 0-0.078-0.023-0.182-0.048-0.216-0.021-0.030-0.026-0.050-0.018-0.093 0.007-0.038 0.018-0.053 0.030-0.047 0.026 0.010 0.026-0.021-0.001-0.123-0.012-0.047-0.018-0.106-0.012-0.145 0.007-0.056 0.004-0.068-0.023-0.087-0.036-0.027-0.039-0.090-0.009-0.217l0.020-0.086-0.050-0.061c-0.045-0.056-0.046-0.062-0.026-0.086 0.027-0.032 0.017-0.117-0.021-0.185-0.030-0.052-0.039-0.105-0.023-0.152 0.007-0.021 0.001-0.065-0.012-0.111-0.012-0.043-0.029-0.123-0.039-0.18s-0.021-0.109-0.027-0.118c-0.007-0.007-0.018-0.043-0.029-0.078-0.009-0.035-0.026-0.068-0.037-0.072s-0.020-0.027-0.020-0.055c0-0.025-0.016-0.099-0.036-0.164s-0.040-0.151-0.045-0.192c-0.004-0.040-0.026-0.103-0.046-0.14-0.073-0.134-0.089-0.177-0.081-0.211 0.007-0.025-0.006-0.049-0.048-0.096-0.057-0.062-0.073-0.109-0.045-0.129 0.026-0.016 0.015-0.061-0.029-0.123-0.027-0.040-0.054-0.062-0.075-0.063-0.027 0-0.029-0.003-0.009-0.016 0.018-0.013 0.015-0.030-0.033-0.129-0.030-0.061-0.054-0.126-0.054-0.143 0-0.032-0.113-0.154-0.143-0.154-0.017 0-0.1-0.173-0.1-0.21 0-0.013-0.018-0.040-0.039-0.059-0.052-0.046-0.090-0.121-0.090-0.173 0-0.044-0.054-0.126-0.124-0.186-0.029-0.024-0.050-0.058-0.056-0.089-0.006-0.034-0.026-0.063-0.057-0.089-0.027-0.022-0.045-0.044-0.041-0.052 0.012-0.022-0.082-0.152-0.124-0.168-0.021-0.009-0.039-0.024-0.039-0.035 0-0.028-0.050-0.123-0.084-0.161-0.018-0.018-0.030-0.038-0.030-0.044s-0.040-0.055-0.090-0.108c-0.048-0.053-0.119-0.131-0.156-0.174-0.037-0.041-0.077-0.077-0.090-0.077-0.011 0-0.021-0.006-0.021-0.015 0-0.007-0.043-0.056-0.095-0.106-0.052-0.052-0.103-0.112-0.114-0.134-0.015-0.031-0.030-0.041-0.050-0.035-0.023 0.006-0.030-0.001-0.037-0.037-0.006-0.030-0.021-0.049-0.046-0.059-0.080-0.032-0.102-0.047-0.102-0.066 0-0.030-0.282-0.335-0.323-0.348-0.031-0.012-0.072-0.044-0.16-0.133-0.019-0.018-0.052-0.043-0.075-0.055-0.043-0.024-0.141-0.133-0.169-0.188-0.012-0.022-0.040-0.037-0.092-0.049-0.087-0.019-0.197-0.081-0.197-0.111 0-0.025-0.033-0.044-0.1-0.058-0.077-0.015-0.282-0.157-0.3-0.21-0.015-0.041-0.072-0.049-0.1-0.013-0.026 0.031-0.048 0.028-0.083-0.015-0.018-0.021-0.046-0.037-0.064-0.037-0.021 0-0.042-0.013-0.053-0.035-0.018-0.035-0.090-0.071-0.182-0.090-0.024-0.004-0.053-0.019-0.063-0.031-0.024-0.031-0.092-0.065-0.124-0.065-0.016 0-0.045-0.022-0.064-0.049-0.029-0.038-0.053-0.053-0.114-0.068-0.043-0.009-0.092-0.031-0.107-0.047-0.023-0.021-0.047-0.028-0.092-0.025-0.051 0.004-0.063-0.001-0.075-0.028-0.018-0.043-0.067-0.063-0.127-0.053-0.033 0.004-0.064-0.001-0.097-0.019-0.029-0.016-0.078-0.028-0.121-0.028-0.057 0-0.082-0.009-0.119-0.040-0.048-0.043-0.086-0.050-0.13-0.027-0.018 0.010-0.030 0.009-0.043-0.007-0.010-0.012-0.024-0.022-0.033-0.022-0.007 0-0.046-0.019-0.084-0.044-0.081-0.052-0.111-0.055-0.147-0.015-0.053 0.061-0.166 0.018-0.198-0.078-0.012-0.037-0.048-0.047-0.090-0.025-0.030 0.018-0.039 0.016-0.067-0.012-0.030-0.030-0.045-0.031-0.182-0.025-0.083 0.003-0.168 0.010-0.189 0.016-0.027 0.006-0.054 0-0.092-0.025-0.050-0.031-0.066-0.032-0.363-0.034-0.206 0-0.329 0.006-0.37 0.018-0.043 0.013-0.081 0.015-0.136 0.004-0.048-0.009-0.129-0.009-0.225 0.001-0.25 0.024-0.342 0.028-0.552 0.028-0.225-0.001-0.35 0.016-0.416 0.059-0.033 0.021-0.066 0.027-0.129 0.024-0.072-0.003-0.092 0.003-0.132 0.034-0.048 0.037-0.136 0.046-0.226 0.024-0.031-0.009-0.036-0.006-0.029 0.018 0.006 0.018-0.006 0.041-0.034 0.069-0.042 0.041-0.046 0.043-0.107 0.025-0.089-0.025-0.095-0.024-0.166 0.027-0.050 0.035-0.078 0.044-0.138 0.044-0.054 0-0.087 0.009-0.113 0.030-0.023 0.019-0.048 0.025-0.073 0.021-0.021-0.004-0.057 0.001-0.082 0.015-0.023 0.013-0.048 0.024-0.057 0.024-0.007 0-0.046 0.016-0.084 0.037s-0.095 0.037-0.123 0.037c-0.048 0-0.105 0.018-0.257 0.084-0.053 0.022-0.117 0.093-0.135 0.146-0.010 0.032-0.102 0.098-0.206 0.146-0.052 0.022-0.070 0.025-0.105 0.012-0.039-0.015-0.043-0.013-0.063 0.024-0.010 0.022-0.060 0.065-0.112 0.096-0.050 0.031-0.14 0.105-0.198 0.164-0.1 0.1-0.113 0.109-0.185 0.118-0.075 0.010-0.080 0.013-0.192 0.142-0.092 0.105-0.125 0.133-0.164 0.139-0.103 0.018-0.114 0.024-0.139 0.063-0.037 0.058-0.144 0.168-0.219 0.222-0.114 0.083-0.183 0.157-0.213 0.224-0.031 0.075-0.132 0.177-0.174 0.177-0.018 0-0.036 0.015-0.045 0.041-0.029 0.066-0.133 0.165-0.177 0.165-0.037 0-0.039 0.003-0.030 0.053 0.009 0.047 0.004 0.058-0.047 0.111-0.046 0.049-0.063 0.058-0.093 0.049-0.042-0.010-0.043-0.007-0.024 0.041 0.011 0.031 0.006 0.040-0.036 0.069-0.033 0.024-0.052 0.050-0.057 0.084-0.006 0.032-0.024 0.063-0.052 0.084-0.023 0.018-0.081 0.069-0.127 0.112-0.069 0.065-0.084 0.089-0.081 0.118 0.004 0.040-0.010 0.044-0.067 0.024-0.020-0.007-0.023-0.006-0.009 0.004 0.024 0.018-0.006 0.083-0.034 0.071-0.024-0.009-0.036 0.022-0.036 0.096 0 0.052-0.006 0.059-0.057 0.087-0.031 0.016-0.057 0.035-0.057 0.041s-0.017 0.032-0.039 0.058c-0.060 0.071-0.105 0.151-0.089 0.159 0.026 0.018 0.010 0.061-0.045 0.124-0.048 0.053-0.060 0.061-0.079 0.046-0.014-0.013-0.021-0.013-0.021-0.001 0 0.009-0.007 0.016-0.014 0.016-0.027 0-0.086 0.077-0.086 0.112 0 0.040-0.029 0.109-0.045 0.109-0.005 0-0.015 0.022-0.020 0.049-0.006 0.025-0.014 0.050-0.020 0.055-0.020 0.016-0.045 0.075-0.045 0.106 0 0.019-0.006 0.041-0.012 0.049-0.014 0.022-0.070 0.052-0.096 0.052-0.030 0-0.027 0.025 0.007 0.044 0.037 0.021 0.037 0.077 0 0.111-0.015 0.015-0.029 0.037-0.029 0.049 0 0.010-0.012 0.038-0.027 0.059-0.014 0.022-0.031 0.062-0.037 0.089s-0.027 0.062-0.050 0.080c-0.060 0.046-0.080 0.105-0.051 0.148 0.012 0.018 0.023 0.053 0.023 0.078 0 0.047-0.047 0.14-0.072 0.14-0.009 0-0.026 0.024-0.039 0.052-0.015 0.031-0.033 0.050-0.046 0.049-0.018-0.003-0.024 0.013-0.030 0.074-0.004 0.044-0.003 0.083 0.004 0.087s0.006 0.015-0.001 0.024c-0.007 0.010-0.019 0.044-0.023 0.077-0.006 0.032-0.020 0.074-0.031 0.093-0.016 0.024-0.018 0.053-0.012 0.099 0.007 0.053 0.004 0.068-0.012 0.075-0.018 0.006-0.021 0.021-0.014 0.050 0.005 0.035 0.001 0.046-0.037 0.065-0.024 0.013-0.047 0.038-0.050 0.058-0.003 0.018-0.014 0.075-0.024 0.129s-0.015 0.13-0.015 0.171c0.003 0.058-0.004 0.086-0.027 0.115-0.030 0.040-0.030 0.043-0.007 0.092 0.030 0.066 0.029 0.090-0.006 0.102-0.056 0.018-0.072 0.050-0.072 0.145 0 0.050 0.007 0.115 0.016 0.143s0.018 0.155 0.020 0.281c0.003 0.126 0.012 0.253 0.020 0.281 0.016 0.053-0.001 0.195-0.031 0.263-0.012 0.028-0.012 0.044 0.009 0.080 0.018 0.030 0.021 0.061 0.016 0.098-0.004 0.030 0 0.105 0.009 0.165 0.043 0.276 0.039 0.369-0.017 0.369-0.015 0-0.026 0.007-0.026 0.015s0.009 0.015 0.018 0.015c0.012 0 0.031 0.013 0.045 0.030 0.024 0.028 0.024 0.032-0.020 0.118-0.047 0.090-0.048 0.137-0.009 0.154 0.012 0.004 0.027-0.004 0.036-0.021 0.017-0.032 0.057-0.040 0.057-0.010 0 0.010-0.010 0.032-0.021 0.049-0.029 0.040-0.026 0.084 0.007 0.128 0.031 0.040 0.037 0.077 0.014 0.092-0.018 0.010-0.018 0.081-0.003 0.106 0.005 0.009 0.029 0.022 0.050 0.027 0.026 0.007 0.039 0.021 0.039 0.040 0 0.025-0.007 0.030-0.043 0.024-0.043-0.007-0.048 0-0.043 0.055 0.004 0.038 0.082 0.188 0.111 0.21 0.016 0.012 0.018 0.030 0.012 0.056s-0.001 0.052 0.018 0.078c0.029 0.041 0.050 0.193 0.052 0.375 0.001 0.078 0.007 0.105 0.031 0.133 0.018 0.018 0.040 0.055 0.053 0.078 0.012 0.025 0.039 0.064 0.060 0.087 0.034 0.038 0.037 0.052 0.034 0.143-0.004 0.090-0.001 0.105 0.030 0.139 0.020 0.022 0.034 0.052 0.031 0.068s0.004 0.041 0.016 0.059c0.015 0.022 0.017 0.040 0.006 0.071-0.013 0.034-0.009 0.049 0.023 0.099 0.021 0.031 0.039 0.065 0.039 0.075s0.009 0.019 0.018 0.019c0.021 0 0.075 0.089 0.125 0.201 0.020 0.044 0.054 0.087 0.082 0.106 0.045 0.032 0.047 0.035 0.047 0.136 0 0.098 0.003 0.105 0.037 0.121 0.021 0.010 0.039 0.034 0.045 0.059 0.004 0.025 0.029 0.059 0.059 0.083s0.064 0.074 0.090 0.131c0.021 0.050 0.054 0.1 0.069 0.111 0.017 0.010 0.030 0.031 0.030 0.044 0 0.015 0.009 0.027 0.019 0.027 0.030 0 0.1 0.12 0.081 0.139-0.020 0.021-0.018 0.072 0.003 0.095 0.010 0.010 0.037 0.018 0.061 0.018 0.063 0 0.081 0.018 0.075 0.075-0.003 0.040 0.001 0.053 0.026 0.064 0.016 0.007 0.046 0.052 0.066 0.098 0.027 0.066 0.054 0.098 0.116 0.146 0.045 0.034 0.089 0.075 0.097 0.095 0.018 0.031 0.119 0.161 0.177 0.226 0.016 0.018 0.048 0.061 0.072 0.095s0.090 0.102 0.147 0.151c0.061 0.052 0.111 0.108 0.125 0.137 0.021 0.052 0.1 0.137 0.237 0.258 0.041 0.037 0.099 0.087 0.126 0.114s0.053 0.049 0.059 0.052c0.004 0.003 0.018 0.025 0.030 0.049 0.018 0.034 0.034 0.046 0.073 0.052 0.042 0.006 0.067 0.027 0.141 0.115 0.050 0.061 0.111 0.121 0.136 0.136s0.064 0.049 0.090 0.075c0.037 0.040 0.048 0.046 0.067 0.030s0.026-0.013 0.050 0.012c0.017 0.018 0.030 0.040 0.030 0.050 0 0.021 0.026 0.037 0.111 0.071 0.029 0.010 0.063 0.041 0.083 0.075 0.037 0.061 0.15 0.145 0.196 0.145 0.045 0 0.075 0.025 0.132 0.103 0.059 0.081 0.122 0.118 0.202 0.115 0.040-0.001 0.059 0.007 0.092 0.044 0.027 0.032 0.054 0.047 0.081 0.047 0.029 0 0.045 0.010 0.054 0.032 0.009 0.019 0.031 0.037 0.057 0.041 0.024 0.006 0.057 0.018 0.075 0.027s0.048 0.018 0.066 0.018c0.020 0 0.043 0.009 0.051 0.019 0.009 0.012 0.033 0.018 0.059 0.013 0.039-0.006 0.043-0.003 0.036 0.028s0.001 0.040 0.075 0.077c0.056 0.027 0.105 0.040 0.147 0.038 0.086-0.001 0.133 0.019 0.219 0.099 0.050 0.046 0.080 0.065 0.099 0.059 0.014-0.004 0.039-0.013 0.054-0.018 0.020-0.007 0.043 0.007 0.084 0.050 0.031 0.032 0.070 0.064 0.087 0.069 0.016 0.004 0.029 0.015 0.029 0.021s0.053 0.012 0.119 0.010c0.064-0.001 0.141 0.006 0.173 0.016 0.030 0.010 0.070 0.019 0.087 0.019s0.040 0.010 0.050 0.022c0.012 0.013 0.042 0.022 0.080 0.022 0.053 0 0.066 0.007 0.099 0.052l0.039 0.050h0.17c0.095 0 0.177 0.004 0.183 0.009 0.007 0.003 0.029-0.006 0.048-0.022 0.046-0.037 0.052-0.037 0.067 0.006 0.012 0.032 0.021 0.037 0.117 0.041 0.057 0.003 0.159 0 0.226-0.007 0.255-0.025 0.305-0.025 0.363 0.006 0.050 0.027 0.064 0.028 0.193 0.012 0.206-0.025 0.352-0.022 0.382 0.009 0.018 0.016 0.036 0.022 0.062 0.015 0.020-0.004 0.096-0.016 0.166-0.024zM6.779 19.541c-0.003-0.009-0.012-0.015-0.019-0.015s-0.015 0.006-0.018 0.015c-0.003 0.009 0.006 0.016 0.018 0.016s0.021-0.007 0.019-0.016zM25.093 16.935c0-0.012-0.006-0.021-0.014-0.021-0.007 0-0.014 0.013-0.014 0.031 0 0.016 0.007 0.025 0.014 0.021s0.014-0.019 0.014-0.031zM7.168 11.93c0-0.019-0.006-0.021-0.029-0.007-0.016 0.009-0.029 0.019-0.029 0.022s0.013 0.007 0.029 0.007 0.029-0.010 0.029-0.022z"></path>
<path fill="#fff" d="M16.123 22.075c-0.033-0.035-0.040-0.037-0.138-0.028-0.102 0.009-0.104 0.009-0.096-0.022 0.010-0.040-0.014-0.040-0.111-0.001-0.096 0.037-0.268 0.028-0.385-0.021-0.061-0.027-0.089-0.031-0.127-0.019-0.031 0.007-0.061 0.007-0.083-0.003-0.048-0.024-0.561-0.018-0.639 0.006-0.034 0.010-0.066 0.016-0.070 0.012-0.006-0.006-0.031-0.009-0.141-0.018-0.004-0.001-0.016-0.018-0.024-0.038s-0.026-0.037-0.037-0.037c-0.012 0-0.057-0.019-0.102-0.044s-0.099-0.044-0.119-0.044c-0.023 0-0.048-0.015-0.067-0.037s-0.056-0.043-0.1-0.053c-0.075-0.018-0.087-0.022-0.195-0.071-0.075-0.034-0.080-0.040-0.134-0.143l-0.039-0.077 0.031-0.044c0.043-0.059 0.036-0.127-0.014-0.133-0.099-0.012-0.093 0.003-0.096-0.211-0.003-0.146-0.009-0.202-0.026-0.229-0.012-0.019-0.021-0.053-0.021-0.077s-0.015-0.059-0.036-0.083c-0.020-0.022-0.036-0.050-0.036-0.062s-0.016-0.046-0.034-0.077c-0.020-0.030-0.039-0.072-0.045-0.096-0.006-0.022-0.016-0.044-0.023-0.049s-0.013-0.019-0.013-0.034c0-0.015-0.009-0.035-0.021-0.046s-0.021-0.030-0.021-0.044c0-0.015-0.017-0.037-0.037-0.052-0.021-0.013-0.057-0.047-0.080-0.075s-0.050-0.050-0.060-0.050c-0.020 0-0.066-0.053-0.066-0.078-0.001-0.035-0.039-0.068-0.116-0.098-0.043-0.018-0.095-0.031-0.114-0.031-0.021 0-0.046-0.010-0.056-0.022s-0.042-0.022-0.070-0.022c-0.030 0-0.080-0.013-0.111-0.030s-0.086-0.034-0.12-0.038c-0.066-0.010-0.141-0.046-0.227-0.105-0.027-0.019-0.064-0.034-0.082-0.034s-0.048-0.021-0.072-0.049c-0.021-0.027-0.063-0.064-0.090-0.083s-0.067-0.062-0.087-0.098c-0.031-0.050-0.048-0.065-0.103-0.080-0.048-0.012-0.071-0.028-0.087-0.058-0.012-0.022-0.034-0.053-0.052-0.069-0.018-0.018-0.029-0.043-0.026-0.066 0.003-0.035-0.030-0.133-0.045-0.133-0.004 0-0.026-0.015-0.048-0.034-0.041-0.032-0.059-0.084-0.075-0.222-0.004-0.031-0.012-0.068-0.021-0.084-0.007-0.015-0.014-0.052-0.014-0.083 0-0.069-0.039-0.279-0.064-0.346-0.010-0.028-0.027-0.089-0.036-0.133-0.023-0.105-0.045-0.143-0.109-0.17-0.045-0.019-0.050-0.027-0.045-0.074 0.003-0.044-0.006-0.065-0.053-0.12-0.030-0.037-0.079-0.080-0.109-0.095-0.054-0.030-0.060-0.043-0.079-0.17-0.010-0.071-0.067-0.185-0.093-0.185-0.020 0-0.016-0.071 0.004-0.077 0.012-0.004 0.012-0.016-0.004-0.043-0.031-0.049-0.060-0.183-0.052-0.233 0.006-0.025 0-0.053-0.011-0.069s-0.021-0.041-0.021-0.058c0-0.018-0.007-0.038-0.018-0.049-0.023-0.024-0.045-0.238-0.047-0.483-0.003-0.114-0.009-0.226-0.014-0.25-0.007-0.028-0.003-0.071 0.012-0.123 0.014-0.044 0.021-0.084 0.018-0.089s0.001-0.027 0.012-0.050c0.012-0.022 0.021-0.063 0.021-0.089 0-0.035 0.016-0.068 0.057-0.118 0.031-0.038 0.057-0.086 0.057-0.105s0.012-0.053 0.029-0.078c0.048-0.074 0.053-0.086 0.099-0.18l0.045-0.093v-0.261c-0.001-0.272 0.003-0.315 0.037-0.315 0.030 0 0.024-0.027-0.007-0.037-0.039-0.012-0.043-0.032-0.027-0.148 0.007-0.058 0.016-0.143 0.018-0.192s0.009-0.105 0.017-0.126c0.009-0.024 0.012-0.115 0.004-0.251-0.010-0.229-0.009-0.23 0.067-0.338 0.031-0.047 0.034-0.059 0.026-0.164-0.007-0.089-0.004-0.123 0.014-0.159 0.018-0.038 0.023-0.078 0.018-0.21-0.007-0.161-0.006-0.164 0.027-0.177 0.031-0.012 0.031-0.018 0.021-0.075-0.010-0.041-0.009-0.077 0-0.1 0.018-0.049 0.026-0.145 0.011-0.158-0.023-0.025-0.007-0.093 0.042-0.168 0.069-0.106 0.109-0.189 0.12-0.244 0.006-0.032 0.024-0.053 0.064-0.075 0.039-0.019 0.061-0.044 0.070-0.074 0.018-0.068 0.14-0.316 0.153-0.316 0.007 0 0.012-0.010 0.012-0.022s0.012-0.022 0.029-0.022c0.030 0 0.057-0.040 0.057-0.087 0-0.021 0.009-0.031 0.029-0.031 0.014 0 0.039-0.018 0.053-0.040 0.034-0.052 0.145-0.162 0.195-0.193 0.021-0.013 0.041-0.035 0.045-0.049 0.004-0.012 0.024-0.032 0.043-0.043 0.021-0.010 0.036-0.025 0.036-0.032 0-0.024 0.054-0.074 0.070-0.063 0.018 0.012 0.097-0.072 0.122-0.13 0.016-0.037 0.020-0.038 0.037-0.019 0.024 0.032 0.067 0.030 0.079-0.004 0.004-0.015 0.018-0.038 0.033-0.050 0.023-0.022 0.030-0.022 0.067-0.001 0.037 0.019 0.043 0.019 0.075-0.012 0.018-0.019 0.063-0.075 0.099-0.126l0.064-0.093h0.097c0.097 0 0.099 0 0.144-0.058 0.050-0.065 0.102-0.084 0.163-0.061 0.033 0.013 0.046 0.010 0.070-0.012 0.017-0.015 0.045-0.035 0.066-0.044s0.046-0.024 0.057-0.032c0.011-0.008 0.045-0.025 0.075-0.038s0.066-0.041 0.079-0.065c0.029-0.052 0.051-0.059 0.185-0.059h0.102l0.045-0.066c0.047-0.071 0.048-0.072 0.136-0.068 0.041 0.003 0.070-0.006 0.097-0.030 0.034-0.027 0.051-0.030 0.114-0.022 0.18 0.025 0.199 0.027 0.242 0.007 0.026-0.010 0.069-0.018 0.097-0.015 0.027 0.001 0.096-0.013 0.15-0.032 0.15-0.055 0.249-0.075 0.336-0.071 0.048 0.001 0.089-0.004 0.106-0.018 0.018-0.013 0.045-0.016 0.092-0.010 0.079 0.013 0.222-0.003 0.249-0.027 0.014-0.012 0.061-0.013 0.15-0.009 0.087 0.006 0.141 0.003 0.162-0.009 0.040-0.022 0.302-0.022 0.315 0 0.006 0.009 0.045 0.016 0.087 0.016 0.163-0.001 0.439 0.025 0.525 0.050 0.074 0.021 0.097 0.022 0.132 0.007 0.031-0.013 0.053-0.015 0.083-0.003 0.021 0.009 0.077 0.024 0.123 0.032 0.048 0.007 0.096 0.025 0.109 0.037 0.031 0.030 0.17 0.066 0.247 0.066 0.034 0 0.073 0.009 0.089 0.021 0.016 0.010 0.064 0.024 0.108 0.028 0.162 0.019 0.233 0.035 0.249 0.058 0.018 0.027 0.177 0.095 0.256 0.109 0.034 0.006 0.059 0.021 0.069 0.041 0.029 0.058 0.15 0.164 0.183 0.159 0.017-0.003 0.045 0.007 0.066 0.024s0.059 0.034 0.086 0.038c0.029 0.006 0.054 0.019 0.059 0.031 0.004 0.010 0.033 0.037 0.064 0.059s0.064 0.055 0.073 0.074c0.009 0.019 0.030 0.038 0.048 0.043 0.018 0.006 0.034 0.016 0.034 0.027 0 0.009 0.012 0.004 0.029-0.010 0.026-0.025 0.030-0.025 0.064-0.001 0.020 0.013 0.036 0.032 0.036 0.043 0 0.009 0.033 0.041 0.073 0.069s0.087 0.065 0.103 0.083c0.048 0.049 0.213 0.23 0.266 0.294 0.043 0.053 0.048 0.056 0.066 0.032 0.020-0.030 0.036-0.032 0.036-0.006 0 0.009 0.017 0.028 0.039 0.041 0.043 0.025 0.070 0.093 0.087 0.213 0.018 0.136 0.092 0.229 0.179 0.229 0.039 0 0.050 0.009 0.072 0.053 0.012 0.031 0.040 0.068 0.060 0.083 0.027 0.024 0.034 0.041 0.034 0.1 0 0.062 0.007 0.080 0.051 0.129 0.062 0.066 0.111 0.171 0.099 0.21-0.004 0.018 0.004 0.043 0.026 0.069 0.045 0.055 0.081 0.13 0.081 0.164 0 0.016 0.026 0.055 0.059 0.086 0.056 0.058 0.116 0.168 0.114 0.214 0 0.012-0.004 0.061-0.009 0.106-0.007 0.078-0.004 0.086 0.034 0.118l0.041 0.034-0.012 0.325c-0.007 0.179-0.009 0.335-0.004 0.347 0.006 0.012 0.012 0.124 0.014 0.25 0.003 0.211 0.006 0.23 0.037 0.273 0.026 0.037 0.034 0.069 0.037 0.161 0.004 0.074 0 0.114-0.010 0.114-0.020 0-0.009 0.117 0.018 0.183 0.012 0.028 0.018 0.055 0.012 0.058-0.003 0.004-0.009 0.083-0.012 0.174-0.006 0.149-0.003 0.173 0.026 0.233 0.018 0.038 0.034 0.106 0.037 0.157 0.003 0.049 0.012 0.096 0.018 0.105s0.009 0.028 0.004 0.043c-0.007 0.018 0.006 0.040 0.045 0.077 0.080 0.075 0.121 0.146 0.132 0.222 0.009 0.063 0.020 0.081 0.081 0.134 0.016 0.013 0.023 0.044 0.023 0.099 0 0.043 0.007 0.097 0.015 0.121 0.020 0.055 0.026 0.298 0.009 0.341-0.009 0.018-0.026 0.032-0.042 0.032s-0.026 0.004-0.027 0.012c0 0.006-0.003 0.058-0.004 0.114-0.001 0.058-0.019 0.168-0.036 0.248-0.027 0.117-0.039 0.143-0.060 0.143-0.014 0-0.030-0.007-0.036-0.016s-0.023 0.004-0.043 0.038c-0.026 0.046-0.029 0.062-0.018 0.090 0.033 0.074-0.031 0.245-0.093 0.251-0.009 0-0.027 0.003-0.039 0.003-0.012 0.001-0.033 0.021-0.045 0.041-0.020 0.034-0.021 0.047-0.004 0.106 0.031 0.106 0.016 0.152-0.080 0.233-0.050 0.043-0.086 0.086-0.090 0.109-0.004 0.021-0.014 0.062-0.023 0.093-0.037 0.131-0.043 0.165-0.030 0.179 0.021 0.022 0.018 0.030-0.033 0.058-0.027 0.015-0.067 0.056-0.089 0.093-0.021 0.035-0.048 0.072-0.059 0.081-0.012 0.009-0.021 0.038-0.021 0.065s-0.009 0.072-0.021 0.102c-0.016 0.038-0.020 0.077-0.012 0.128 0.007 0.055 0.004 0.078-0.009 0.087-0.011 0.007-0.020 0.043-0.021 0.084-0.001 0.056-0.012 0.089-0.054 0.152-0.030 0.044-0.057 0.098-0.063 0.115-0.006 0.024-0.029 0.044-0.070 0.064-0.059 0.025-0.063 0.031-0.063 0.086 0 0.032-0.007 0.075-0.016 0.096-0.015 0.034-0.023 0.037-0.075 0.030-0.050-0.007-0.063-0.003-0.093 0.030-0.020 0.021-0.043 0.038-0.052 0.038s-0.031 0.013-0.050 0.030c-0.020 0.018-0.053 0.030-0.087 0.030-0.060 0-0.16 0.047-0.189 0.089-0.034 0.049-0.078 0.062-0.123 0.037-0.053-0.027-0.186-0.030-0.193-0.003-0.004 0.009-0.010 0.035-0.014 0.059-0.009 0.037-0.014 0.040-0.081 0.040-0.043 0-0.093 0.012-0.127 0.030-0.031 0.016-0.064 0.030-0.076 0.030-0.021 0-0.138 0.109-0.138 0.131 0 0.007-0.018 0.016-0.039 0.019-0.034 0.004-0.045 0.018-0.077 0.115-0.021 0.061-0.040 0.123-0.040 0.139s-0.039 0.072-0.087 0.13c-0.047 0.056-0.086 0.115-0.086 0.13s-0.012 0.056-0.030 0.089c-0.027 0.052-0.029 0.069-0.016 0.143 0.009 0.055 0.009 0.096 0 0.112-0.007 0.015-0.012 0.081-0.010 0.149s-0.001 0.131-0.007 0.14c-0.006 0.009-0.003 0.016 0.004 0.016 0.021 0 0.020 0.142-0.001 0.182-0.016 0.031-0.036 0.151-0.045 0.281-0.003 0.037-0.016 0.068-0.045 0.096-0.021 0.022-0.053 0.064-0.070 0.092s-0.056 0.064-0.084 0.078c-0.029 0.015-0.078 0.053-0.111 0.084-0.046 0.046-0.070 0.059-0.109 0.059-0.034 0-0.050 0.007-0.050 0.021 0 0.061-0.086 0.086-0.168 0.050-0.047-0.021-0.045-0.021-0.327-0.035-0.212-0.010-0.216-0.010-0.246 0.024-0.021 0.024-0.040 0.031-0.067 0.027-0.020-0.004-0.080-0.001-0.133 0.006s-0.126 0.012-0.162 0.012c-0.043-0.001-0.075 0.009-0.1 0.027-0.060 0.049-0.090 0.052-0.127 0.010zM15.46 19.915c0.037-0.025 0.078-0.059 0.088-0.077 0.027-0.046 0.095-0.040 0.132 0.013 0.027 0.040 0.036 0.044 0.109 0.041 0.060-0.003 0.084 0.003 0.097 0.022 0.014 0.021 0.043 0.024 0.186 0.021 0.152-0.001 0.17-0.004 0.183-0.031 0.009-0.016 0.029-0.044 0.046-0.064 0.026-0.030 0.031-0.061 0.040-0.222 0.004-0.103 0.012-0.267 0.018-0.365l0.010-0.177-0.043-0.043c-0.024-0.022-0.039-0.052-0.036-0.062 0.010-0.030-0.031-0.090-0.080-0.117-0.040-0.021-0.057-0.066-0.067-0.17 0-0.012-0.003-0.030-0.004-0.040s-0.016-0.019-0.033-0.022c-0.029-0.004-0.034-0.015-0.040-0.093-0.006-0.055-0.021-0.109-0.042-0.143-0.017-0.031-0.030-0.064-0.026-0.074s-0.003-0.041-0.012-0.069c-0.012-0.027-0.020-0.065-0.020-0.083 0-0.027-0.012-0.038-0.052-0.052-0.029-0.010-0.057-0.032-0.066-0.052-0.020-0.047-0.052-0.058-0.092-0.030-0.024 0.016-0.073 0.024-0.171 0.024-0.116 0-0.146 0.006-0.202 0.037-0.036 0.019-0.081 0.035-0.102 0.035-0.018 0-0.066 0.024-0.102 0.052-0.080 0.059-0.112 0.136-0.095 0.224 0.015 0.086 0.012 0.127-0.015 0.146-0.015 0.012-0.023 0.035-0.021 0.068 0.001 0.027 0.003 0.080 0.001 0.12-0.001 0.058-0.006 0.069-0.029 0.069-0.037 0-0.046 0.034-0.042 0.171 0.004 0.103 0 0.123-0.030 0.164-0.031 0.043-0.033 0.056-0.027 0.177 0.004 0.078 0 0.185-0.012 0.266-0.012 0.074-0.018 0.167-0.016 0.205 0.004 0.066 0.007 0.071 0.054 0.084 0.027 0.007 0.057 0.019 0.066 0.027 0.036 0.031 0.186 0.065 0.279 0.064 0.083-0.001 0.107-0.009 0.166-0.047zM13.814 18.001c0.067-0.010 0.129-0.027 0.137-0.035 0.021-0.022 0.105-0.024 0.141-0.003 0.023 0.012 0.039 0.001 0.102-0.059 0.042-0.040 0.080-0.074 0.087-0.074 0.024 0 0.069-0.061 0.069-0.096 0-0.027 0.012-0.043 0.054-0.065 0.029-0.015 0.070-0.047 0.092-0.071 0.050-0.055 0.102-0.191 0.093-0.248-0.003-0.024-0.001-0.059 0.006-0.078s0.011-0.087 0.011-0.155c0-0.066 0.001-0.158 0.001-0.204 0.001-0.083 0-0.084-0.059-0.125-0.033-0.024-0.086-0.068-0.117-0.098-0.033-0.031-0.063-0.056-0.067-0.056-0.005 0-0.020-0.024-0.033-0.052-0.016-0.034-0.037-0.055-0.063-0.061-0.021-0.006-0.046-0.015-0.054-0.021-0.007-0.006-0.037-0.015-0.064-0.019-0.075-0.012-0.153-0.046-0.198-0.087-0.021-0.021-0.060-0.044-0.086-0.053s-0.067-0.034-0.092-0.055c-0.036-0.031-0.057-0.037-0.133-0.037-0.053 0-0.099-0.007-0.11-0.018-0.093-0.092-0.169-0.114-0.439-0.123l-0.15-0.006-0.064 0.061c-0.036 0.034-0.077 0.080-0.092 0.103s-0.040 0.041-0.057 0.041c-0.045 0-0.125 0.069-0.123 0.108 0 0.018-0.006 0.075-0.015 0.127-0.015 0.089-0.030 0.335-0.027 0.437 0.001 0.084 0.001 0.118-0.007 0.306l-0.007 0.188 0.042 0.047c0.024 0.025 0.043 0.061 0.043 0.078 0 0.041 0.057 0.099 0.105 0.103 0.020 0.003 0.057 0.022 0.081 0.044s0.050 0.038 0.057 0.038c0.007 0 0.018 0.019 0.026 0.043 0.023 0.068 0.193 0.143 0.285 0.125 0.026-0.004 0.073 0 0.107 0.013 0.093 0.034 0.23 0.056 0.279 0.046 0.026-0.006 0.048-0.001 0.054 0.007 0.006 0.010 0.023 0.013 0.039 0.007 0.016-0.004 0.084-0.016 0.149-0.027zM17.797 17.967c0.132 0.006 0.359 0 0.436-0.013 0.048-0.007 0.114-0.010 0.149-0.004 0.102 0.013 0.196-0.044 0.366-0.226l0.143-0.152 0.001-0.222c0.001-0.124 0.009-0.239 0.018-0.263 0.009-0.022 0.021-0.103 0.026-0.18 0.009-0.146-0.015-0.279-0.059-0.317-0.011-0.009-0.024-0.049-0.030-0.086s-0.017-0.084-0.026-0.1c-0.021-0.043-0.104-0.139-0.12-0.139-0.007 0-0.027-0.018-0.048-0.038-0.018-0.021-0.075-0.059-0.127-0.084-0.093-0.047-0.093-0.047-0.258-0.037-0.090 0.004-0.175 0.003-0.187-0.003-0.012-0.007-0.063-0.013-0.111-0.012-0.069 0.001-0.092 0.007-0.099 0.025-0.012 0.034-0.033 0.046-0.083 0.046-0.024 0-0.069 0.010-0.099 0.022s-0.063 0.019-0.076 0.016c-0.014-0.004-0.053-0.003-0.089 0.003-0.062 0.010-0.064 0.013-0.064 0.062 0 0.041-0.007 0.055-0.040 0.071-0.021 0.010-0.050 0.037-0.063 0.058-0.021 0.034-0.029 0.035-0.099 0.027-0.080-0.010-0.092-0.003-0.153 0.087-0.014 0.021-0.043 0.043-0.064 0.047-0.021 0.006-0.070 0.043-0.107 0.081-0.059 0.062-0.069 0.081-0.076 0.146-0.003 0.041-0.012 0.090-0.018 0.109-0.007 0.018-0.011 0.112-0.009 0.208 0.004 0.136 0.001 0.182-0.016 0.207-0.027 0.043-0.015 0.096 0.039 0.186 0.023 0.037 0.041 0.083 0.041 0.1 0 0.038 0.129 0.176 0.201 0.216 0.074 0.040 0.078 0.041 0.12 0.072 0.021 0.015 0.089 0.043 0.149 0.062 0.090 0.028 0.135 0.032 0.246 0.028 0.075-0.003 0.159-0.004 0.186-0.003z"></path>
<path fill="#fff" d="M16.212 18.993c-0.020-0.021-0.023-0.071-0.004-0.071 0.009 0 0.024 0.015 0.036 0.032 0.031 0.046 0.006 0.077-0.031 0.038z"></path>
<path fill="#fff" d="M8.341 17.627c0-0.007 0.007-0.022 0.014-0.034 0.012-0.018 0.014-0.016 0.014 0.012 0 0.018-0.006 0.032-0.014 0.032-0.007 0-0.014-0.004-0.014-0.010z"></path>
<path fill="#fff" d="M14.435 27.62c0-0.032 0.001-0.034 0.034-0.021 0.018 0.007 0.020 0.013 0.007 0.030-0.023 0.030-0.042 0.025-0.042-0.009z"></path>
<path fill="#fff" d="M30.968 18.795c-0.006-0.006-0.010-0.030-0.010-0.053 0-0.052 0.033-0.050 0.040 0.001 0.006 0.037-0.014 0.068-0.030 0.052z"></path>
<path fill="#fff" d="M29.125 17.413c0.012-0.013 0.021-0.013 0.034 0s0.009 0.018-0.018 0.018c-0.027 0-0.030-0.004-0.018-0.018z"></path>
<path fill="#fff" d="M27.411 14.87c0-0.012 0.007-0.027 0.014-0.031s0.014 0.004 0.014 0.021c0 0.017-0.006 0.031-0.014 0.031-0.007 0-0.014-0.009-0.014-0.021z"></path>
<path fill="#fff" d="M8.992 6.784c-0.004-0.007 0.004-0.015 0.020-0.015s0.030 0.007 0.030 0.015c0 0.009-0.009 0.015-0.020 0.015s-0.026-0.006-0.030-0.015z"></path>
<path fill="#fff" d="M18.216 0.603c-0.012-0.028-0.034-0.055-0.048-0.059-0.037-0.012-0.083-0.114-0.070-0.152s0.033-0.041 0.059-0.009c0.064 0.081 0.069 0.084 0.097 0.058 0.018-0.016 0.029-0.019 0.036-0.009 0.004 0.009 0.021 0.024 0.037 0.031 0.024 0.015 0.030 0.010 0.043-0.028 0.016-0.046 0.050-0.059 0.078-0.032 0.007 0.007 0.037 0.021 0.067 0.031 0.043 0.013 0.053 0.024 0.053 0.053 0 0.037-0.003 0.037-0.096 0.034l-0.096-0.003-0.010 0.046c-0.012 0.065-0.037 0.092-0.086 0.092-0.034 0-0.047-0.010-0.066-0.052z"></path>
<path fill="#fff" d="M18.213 0.296c-0.014-0.019-0.014-0.028 0.009-0.050 0.064-0.068 0.075-0.071 0.111-0.034 0.042 0.040 0.046 0.086 0.012 0.099-0.016 0.006-0.030-0.001-0.045-0.022l-0.020-0.032-0.024 0.031c-0.021 0.028-0.026 0.028-0.043 0.009z"></path>
</svg>
