<!-- Generated by IcoMoon.io -->
<svg version="1.1" xmlns="http://www.w3.org/2000/svg" width="496" height="512" viewBox="0 0 496 512">
<title>grand-alliance-order</title>
<path fill="#fff" d="M212.688 508.864c-0.768-0.336-1.344-2.912-0.624-2.912 0.24 0 0.336-0.24 0.336-0.704 0-0.496 0.192-0.832 0.592-1.104 0.32-0.208 0.848-0.784 1.152-1.28s0.72-0.944 0.976-1.040c0.288-0.096 0.576-0.496 0.72-1.136 0.144-0.544 0.624-1.536 1.056-2.224 0.64-1.024 0.976-1.296 1.744-1.52 1.12-0.336 1.776-0.976 1.776-1.776 0-0.336 0.144-0.832 0.32-1.104s0.32-0.848 0.32-1.248c-0.016-1.136 0.192-1.344 1.28-1.184 0.944 0.144 0.976 0.112 1.584-0.832 0.336-0.512 0.624-1.104 0.624-1.28 0-0.448 0.624-0.896 1.024-0.752 0.48 0.208 1.008-0.448 0.864-1.024-0.096-0.336 0.064-0.704 0.464-1.136 0.592-0.688 0.96-1.584 0.896-2.192-0.048-0.192 0.224-0.752 0.592-1.232s0.8-1.2 0.976-1.632c0.16-0.432 0.464-0.896 0.64-1.040 0.24-0.208 0.336-0.656 0.288-1.728-0.048-1.344-0.016-1.44 0.528-1.584 0.688-0.16 1.264-0.944 1.264-1.68 0-0.384 0.144-0.544 0.432-0.544s0.736-0.512 1.312-1.472c0.72-1.232 0.864-1.68 0.816-2.576-0.016-0.736 0.064-1.2 0.288-1.392 0.432-0.384 1.952-3.616 1.952-4.176 0-0.24 0.16-0.688 0.32-1.024s0.576-1.088 0.848-1.696c0.288-0.64 0.576-1.136 0.688-1.136s0.384-0.208 0.624-0.48c0.336-0.4 0.416-0.832 0.384-2.864-0.048-2.080-0.112-2.432-0.544-2.88-0.256-0.288-0.688-0.784-0.912-1.104-0.384-0.512-0.64-0.592-2.64-0.736-2.464-0.16-2.912-0.448-3.36-2.24-0.224-0.928-0.736-1.488-2.544-2.928-0.72-0.56-0.816-1.2-0.288-1.648 0.192-0.16 0.336-0.432 0.336-0.592 0-0.192 0.256-0.608 0.544-0.992 0.32-0.384 0.64-0.976 0.72-1.328 0.096-0.352 0.288-0.656 0.432-0.688 0.144 0 0.368-0.048 0.496-0.048s0.544-0.384 0.896-0.8c0.528-0.656 0.688-1.104 0.816-2.592 0.096-0.992 0.256-2.224 0.336-2.688 0.096-0.608 0.064-0.896-0.112-0.896-0.432 0-0.288-0.448 0.368-1.024 2.336-1.984 2.656-2.432 2.64-3.456-0.048-1.136 0.912-3.328 1.872-4.256 0.48-0.48 0.592-0.8 0.592-1.744 0-0.832 0.192-1.488 0.64-2.32 0.656-1.248 0.848-1.344 1.44-0.784 0.336 0.336 0.432 0.304 1.024-0.336 0.624-0.64 0.64-0.736 0.592-2.912-0.096-2.72-0.144-2.912-1.104-4.16-0.768-0.976-0.816-0.992-2.112-0.976-0.72 0.016-1.808-0.144-2.448-0.352s-2.16-0.448-3.392-0.496c-2.080-0.096-2.336-0.16-3.088-0.784-1.248-1.024-1.296-1.040-2.304-0.8-0.72 0.16-0.976 0.112-1.2-0.112-0.144-0.192-0.544-0.336-0.912-0.336-0.336 0-0.72-0.112-0.768-0.256-0.16-0.256-1.056-0.144-2.32 0.304-0.544 0.192-0.848 0.16-1.44-0.144-0.528-0.304-1.008-0.384-1.648-0.256-0.768 0.144-1.2 0.016-2.56-0.656-0.912-0.48-2.080-0.992-2.624-1.184-0.944-0.336-0.96-0.336-0.864 0.096 0.112 0.384 0.016 0.448-0.528 0.448-0.496 0-0.72-0.144-0.8-0.496-0.112-0.4-0.272-0.48-0.72-0.4s-0.624-0.016-0.8-0.448c-0.288-0.608-0.944-0.704-1.68-0.208-0.576 0.384-1.696 0.432-2.288 0.096-0.224-0.112-0.832-0.592-1.312-1.056-0.656-0.592-1.056-0.8-1.536-0.736-0.384 0.048-1.296-0.256-2.352-0.784-2.32-1.152-3.264-1.44-4.192-1.28-0.656 0.144-0.896 0.048-1.328-0.448-0.544-0.592-0.576-0.592-2.688-0.384-1.888 0.192-2.224 0.144-2.688-0.192-0.576-0.448-0.864-1.28-0.672-1.936s-0.496-0.928-2.32-0.896c-1.392 0.016-1.808-0.064-3.6-0.944-1.12-0.544-2.176-0.992-2.336-0.992s-0.624-0.304-1.008-0.704c-0.384-0.384-0.896-0.704-1.12-0.704s-0.896-0.256-1.488-0.592-1.328-0.592-1.632-0.592c-0.416 0-0.544-0.144-0.624-0.64-0.064-0.56-0.208-0.688-1.104-0.896-0.592-0.144-1.584-0.656-2.304-1.232-0.688-0.512-1.632-1.088-2.112-1.2-0.48-0.144-1.152-0.48-1.472-0.736-0.336-0.288-0.848-0.496-1.152-0.496-0.32 0-0.864-0.384-1.392-0.944-1.12-1.28-2.128-1.888-3.072-1.888-0.624 0-0.976-0.208-1.776-1.056-0.544-0.592-1.2-1.056-1.44-1.056-0.464 0-3.84-3.216-3.84-3.632 0-0.384-1.168-1.248-1.92-1.472-0.32-0.064-0.688-0.288-0.848-0.48-0.144-0.192-0.48-0.336-0.768-0.336s-0.688-0.208-0.944-0.496c-0.224-0.288-0.832-0.832-1.312-1.232l-0.896-0.704-0.528 0.688c-0.528 0.704-0.528 0.704-2.784 0.64-2-0.048-2.352 0.016-3.312 0.512-1.328 0.704-2.208 0.752-2.992 0.112l-0.576-0.48-0.976 0.976c-0.8 0.8-1.104 0.944-1.68 0.848-0.8-0.112-2.8 0.448-3.408 0.976-0.368 0.336-2.224 0.432-3.136 0.16-0.192-0.048-0.672 0.336-1.104 0.896-0.736 0.928-0.752 1.040-0.624 2.288 0.096 0.704 0.288 1.568 0.464 1.888s0.336 0.88 0.432 1.232c0.144 0.736 1.024 2.128 1.776 2.912 0.288 0.288 0.8 0.896 1.152 1.344 0.336 0.48 1.008 1.040 1.488 1.296 0.864 0.48 0.864 0.48 1.024 2.288 0.096 0.992 0.064 2.080-0.048 2.368s-0.16 0.608-0.096 0.688 0.16 0.56 0.192 1.104c0.112 1.152-0.288 1.888-1.376 2.576-0.48 0.288-0.848 0.752-1.024 1.296-0.288 0.896-0.896 1.248-1.552 0.88-0.896-0.496-8.768 0.048-9.776 0.656-0.112 0.064-0.8 0.144-1.52 0.144-1.008 0-1.472 0.144-2.224 0.656-1.168 0.784-2.208 1.040-2.688 0.64-0.256-0.208-0.672-0.192-1.968 0.112-0.912 0.208-1.936 0.304-2.336 0.208-0.368-0.064-1.248-0.064-1.92 0.016-1.024 0.112-1.28 0.256-1.44 0.704l-0.208 0.56-0.96-0.432c-0.816-0.4-1.344-0.432-3.6-0.336-1.472 0.064-2.768 0.24-2.912 0.352-0.32 0.256-3.408 0.112-5.952-0.288-1.632-0.24-1.968-0.24-2.56 0.096-0.896 0.48-1.168 0.48-1.68-0.016-0.368-0.336-0.624-0.352-1.856-0.144-0.768 0.144-2.128 0.24-3.024 0.16-3.84-0.208-4.8-0.192-5.568 0.24-0.688 0.352-0.864 0.384-2.4 0.016-2.48-0.544-7.744-0.896-9.408-0.64-1.728 0.256-6.208 0.16-7.12-0.16-1.776-0.608-3.392-1.024-3.744-0.896-0.224 0.048-1.248-0.048-2.224-0.208-1.008-0.192-1.984-0.288-2.24-0.24-0.24 0.064-0.832-0.048-1.312-0.256s-1.056-0.304-1.232-0.208c-0.224 0.096-0.576-0.192-0.976-0.8-0.352-0.512-0.864-0.976-1.216-1.056-0.368-0.096-0.72-0.432-0.944-0.896-0.256-0.56-0.48-0.736-1.008-0.752-0.592 0-0.672-0.064-0.672-0.832 0-0.736 0.064-0.832 0.576-0.832 0.656 0 0.752-0.144 0.544-0.976-0.112-0.496 0.016-0.784 0.72-1.536 0.864-0.928 2.448-1.872 3.088-1.872 0.176 0 0.72-0.208 1.232-0.48 0.736-0.384 1.152-0.448 2.432-0.336 1.392 0.144 1.552 0.112 1.824-0.352 0.224-0.352 0.544-0.496 1.12-0.496 0.432 0 1.376-0.16 2.048-0.352 1.536-0.432 2.64-0.448 4-0.064 0.896 0.24 1.152 0.24 1.792-0.096 0.576-0.304 1.472-0.384 4.112-0.4 2.992 0 3.472-0.064 4.144-0.496 0.432-0.256 1.008-0.48 1.344-0.48 0.288 0 0.656-0.112 0.816-0.288 0.208-0.208 0.416-0.192 0.864 0.048 0.528 0.304 0.624 0.304 0.896-0.096 0.24-0.336 0.496-0.4 1.12-0.288 0.464 0.096 0.848 0.048 0.944-0.096 0.064-0.112 0.656-0.24 1.296-0.24 0.96 0 1.28-0.112 1.968-0.736 0.72-0.656 0.896-0.704 1.968-0.592 3.52 0.448 3.744 0.448 4.256-0.096 0.288-0.288 1.056-0.64 1.776-0.784 0.896-0.192 1.328-0.4 1.392-0.688 0.096-0.384 0.384-0.432 2.24-0.432h2.128l0.544-0.832c0.528-0.784 0.576-0.8 0.688-0.352 0.16 0.64 0.896 0.48 1.776-0.384 0.32-0.304 0.688-0.56 0.848-0.56 0.144 0 0.384-0.288 0.576-0.608 0.16-0.336 0.544-0.736 0.864-0.88 0.496-0.256 0.544-0.48 0.624-1.968 0.048-1.44 0-1.776-0.496-2.528-0.32-0.496-0.656-1.184-0.72-1.536-0.096-0.352-0.464-0.992-0.832-1.424-0.656-0.8-0.72-1.2-0.48-3.312 0.112-1.136 0.208-1.296 1.008-1.776 0.736-0.432 0.96-0.736 1.248-1.728 0.432-1.584 0.96-2.048 2.016-1.872 0.464 0.096 0.96 0.064 1.12-0.016 0.16-0.112 0.944-0.24 1.712-0.24 1.2-0.048 1.632-0.192 2.512-0.784 0.592-0.432 1.328-0.8 1.6-0.88 0.288-0.096 0.528-0.288 0.528-0.448 0-0.496 0.752-1.024 1.76-1.184 0.528-0.064 1.072-0.304 1.248-0.496 0.288-0.384 1.488-0.448 1.68-0.096 0.064 0.144 0.544 0.24 1.024 0.24 0.72 0 0.992-0.144 1.424-0.736 0.8-1.104 2.080-1.6 3.664-1.424 0.736 0.096 1.424 0.064 1.536-0.048s0.592-0.208 1.072-0.208c0.528 0 1.104-0.192 1.44-0.448 0.336-0.288 0.912-0.448 1.536-0.448 0.528 0 1.056-0.096 1.12-0.24 0.064-0.112 0.544-0.24 1.056-0.24 1.536 0 2.592-1.568 2.064-3.088-0.144-0.4-0.192-1.152-0.112-1.648 0.144-0.832 0.064-1.024-0.688-1.872-0.464-0.512-0.832-1.088-0.832-1.28s-0.192-0.432-0.464-0.496c-0.896-0.288-1.424-1.104-1.264-1.936 0.096-0.592 0.048-0.784-0.192-0.784-0.192 0-0.464-0.16-0.64-0.384-0.144-0.192-0.48-0.304-0.688-0.256-0.624 0.16-0.96-0.4-1.152-1.888-0.112-0.88-0.368-1.52-0.72-1.936-0.72-0.8-1.44-1.984-1.376-2.224 0.016-0.096-0.32-0.496-0.768-0.896-0.624-0.592-0.8-0.896-0.8-1.632 0-0.784-0.064-0.896-0.624-1.024-0.96-0.192-2.496-1.968-2.928-3.36-0.208-0.64-0.592-1.424-0.848-1.728-0.32-0.352-0.464-0.8-0.432-1.344 0.048-0.656-0.096-0.944-0.848-1.648-0.736-0.704-0.896-1.040-0.992-1.968-0.064-0.704-0.384-1.584-0.864-2.384-0.416-0.688-0.768-1.52-0.816-1.792-0.016-0.304-0.208-0.784-0.384-1.056s-0.288-0.688-0.224-0.928c0.064-0.304-0.192-0.56-0.912-0.976-0.992-0.544-1.008-0.592-0.912-1.472 0.144-1.040-0.208-2.080-1.152-3.328-0.592-0.784-0.624-0.976-0.416-1.632 0.144-0.4 0.256-0.752 0.256-0.784 0-0.048-0.288-0.192-0.688-0.352-0.48-0.208-0.688-0.448-0.688-0.848 0-0.304-0.144-0.64-0.32-0.736-0.384-0.24-1.248-2.672-1.104-3.216 0.048-0.24-0.064-0.688-0.288-0.992s-0.368-0.688-0.368-0.848c0-0.144-0.208-0.512-0.432-0.832-0.336-0.432-0.416-0.8-0.32-1.424 0.208-1.248-0.576-4.592-1.232-5.312-0.384-0.448-0.624-1.088-0.768-2.128-0.288-2.288-0.544-3.312-1.056-4.464-0.32-0.688-0.544-1.872-0.672-3.312-0.080-1.376-0.368-2.832-0.688-3.776-0.384-1.088-0.544-2.032-0.544-3.232 0-0.928-0.080-1.744-0.208-1.824-0.112-0.096-0.656-1.056-1.2-2.192-0.864-1.776-2.864-4.496-3.504-4.768-0.112-0.048-0.64-0.496-1.168-0.992s-1.12-0.928-1.328-0.928c-0.192 0-0.912-0.544-1.6-1.184-0.72-0.656-1.936-1.52-2.768-1.888-0.8-0.384-1.744-0.976-2.064-1.296s-0.752-0.592-1.008-0.592c-0.48 0-2.16-0.784-3.040-1.44-0.384-0.288-0.944-0.4-1.68-0.384-0.912 0.048-1.168-0.048-1.584-0.544s-0.72-0.592-1.76-0.592c-0.8 0-1.472 0.144-1.824 0.4-0.32 0.208-0.848 0.448-1.168 0.544-0.576 0.144-0.592 0.208-0.592 2.032-0.016 1.328-0.144 2.048-0.416 2.48-0.464 0.736-0.496 1.424-0.256 4.224l0.16 2.128-1.376 1.648c-0.752 0.928-1.376 1.776-1.392 1.936 0 0.4-2.4 2.192-2.928 2.192-0.224 0-0.656-0.256-0.96-0.592s-0.624-0.592-0.768-0.592c-0.144 0-1.072-0.432-2.080-0.944s-1.984-0.944-2.224-0.944c-0.208 0-0.528-0.144-0.688-0.336-0.176-0.16-0.656-0.512-1.072-0.752-0.432-0.256-0.96-0.56-1.2-0.704s-0.624-0.64-0.832-1.056c-0.288-0.64-0.592-0.848-1.296-1.024-1.776-0.4-2.784-0.896-3.072-1.472-0.144-0.304-0.368-0.56-0.496-0.56-0.16 0-0.496-0.24-0.768-0.512-0.288-0.304-1.12-1.024-1.904-1.584-1.008-0.736-1.424-1.184-1.424-1.568 0-0.4-0.224-0.608-1.024-0.928-0.576-0.24-1.104-0.544-1.2-0.736-0.352-0.56-3.648-3.12-4.288-3.28-0.464-0.112-0.72-0.4-0.976-1.088-0.288-0.784-0.544-0.992-1.424-1.328-1.104-0.432-1.952-1.104-1.68-1.376 0.208-0.24-0.432-0.608-1.008-0.608-0.736 0-4.784-3.728-4.992-4.624-0.096-0.304-0.272-0.56-0.416-0.56-0.336 0-4.656-4.592-5.328-5.664-0.288-0.448-0.896-1.184-1.344-1.632s-0.944-1.184-1.072-1.632c-0.192-0.656-0.336-0.784-0.768-0.656-0.416 0.112-0.656-0.016-1.008-0.496-1.2-1.648-3.68-4.32-6.176-6.688-0.848-0.8-1.376-1.488-1.376-1.824-0.016-0.304-0.192-0.56-0.48-0.656-0.256-0.064-0.464-0.24-0.464-0.352s-0.32-0.256-0.72-0.352c-0.496-0.112-0.768-0.352-0.944-0.832-0.112-0.384-0.768-1.104-1.472-1.648-0.688-0.512-1.248-1.136-1.248-1.328s-0.32-0.704-0.72-1.104c-0.416-0.4-0.816-1.088-0.944-1.52-0.112-0.448-0.48-0.976-0.832-1.184-1.008-0.64-2.112-1.792-2.112-2.192 0-0.48-0.944-1.84-2.112-3.088-0.528-0.544-0.864-1.136-0.864-1.472s-0.224-0.736-0.576-0.976c-0.72-0.496-1.488-1.744-1.488-2.464 0-0.544 0.048-0.544 1.744-0.432 1.296 0.096 1.712 0.048 1.632-0.16-0.176-0.496 0.256-1.344 0.688-1.344 0.24 0 0.592 0.16 0.848 0.352s0.752 0.288 1.488 0.192c0.864-0.096 1.152-0.016 1.6 0.384 0.32 0.288 0.72 0.448 0.896 0.384 0.416-0.16 2.88 1.424 3.616 2.32 0.384 0.48 0.992 0.832 1.712 1.008 1.264 0.336 2.64 1.328 2.864 2.032 0.112 0.4 0.288 0.48 1.024 0.352 0.48-0.064 0.896-0.048 0.896 0.048 0 0.384 2.464 2.784 3.264 3.216 0.48 0.24 1.024 0.736 1.2 1.088 0.16 0.352 0.544 0.736 0.8 0.8 0.288 0.096 0.864 0.544 1.264 1.008 0.624 0.704 0.864 0.832 1.648 0.8 0.832-0.048 1.056 0.096 2.32 1.328 0.768 0.752 1.392 1.568 1.392 1.776 0 0.448 0.656 0.88 1.344 0.88 0.272 0 0.72 0.256 0.976 0.592s0.896 0.704 1.344 0.832c0.48 0.144 1.168 0.512 1.536 0.832 0.384 0.336 0.864 0.592 1.104 0.592 0.896 0 2.176 0.512 2.768 1.104 1.104 1.040 1.536 1.248 3.072 1.424 1.344 0.144 1.552 0.24 2.64 1.296 1.008 0.976 1.296 1.136 2.112 1.136 0.976 0 3.504 1.232 4.576 2.192 0.416 0.4 0.768 0.48 2.176 0.448 1.808-0.048 2.448-0.192 2.448-0.544 0-0.112 0.272-0.64 0.592-1.152 0.48-0.736 0.64-1.344 0.72-2.64 0.16-2.272 0.96-3.824 2.352-4.608 0.544-0.304 1.28-0.544 1.632-0.544s0.688-0.096 0.752-0.24c0.064-0.112 0.368-0.24 0.64-0.24s0.912-0.208 1.424-0.448c1.152-0.512 1.856-0.336 3.344 0.976 0.592 0.496 1.296 0.896 1.584 0.896 0.96 0 2.4 0.544 2.976 1.104 0.32 0.336 0.992 0.832 1.488 1.104 0.576 0.304 0.944 0.704 0.992 1.040 0.048 0.288 0.24 0.544 0.464 0.544 0.208 0.016 0.496 0.048 0.624 0.096 0.144 0.016 0.384 0.064 0.576 0.064s0.688 0.352 1.072 0.736c0.72 0.656 1.92 1.136 2.32 0.88 0.096-0.064 0.48 0.096 0.864 0.352 0.368 0.24 0.912 0.448 1.2 0.448 0.336 0 0.912 0.4 1.552 1.056 1.008 1.088 1.776 1.536 2.624 1.536 0.256 0 0.896 0.448 1.424 0.992 1.216 1.28 2.736 2.064 3.984 2.080 0.528 0 1.008 0.096 1.072 0.208s0.464 0.256 0.864 0.336c0.416 0.064 1.2 0.24 1.76 0.352 0.96 0.208 1.008 0.208 1.904-0.688l0.912-0.896-0.048-2.784c-0.048-4.848 0.544-12.304 1.104-13.776 0.112-0.336 0.144-0.88 0.048-1.2-0.16-0.56-0.048-0.752 0.8-1.568l1.008-0.928v-2.176c0-1.2 0.064-2.576 0.144-3.072 0.32-2.128 0.672-3.616 0.832-3.728 0.112-0.064 0.208-0.352 0.208-0.656s0.16-0.736 0.336-0.992c0.176-0.24 0.336-0.688 0.336-0.976s0.256-0.784 0.544-1.104c0.416-0.48 0.544-0.976 0.672-2.24 0.064-0.896 0.288-1.968 0.48-2.368 0.208-0.384 0.368-1.088 0.368-1.568 0-1.184 0.576-2.336 1.776-3.616 1.056-1.104 1.152-1.632 0.624-3.28-0.144-0.432-0.016-0.608 0.576-0.992 0.944-0.592 2.256-3.28 2.288-4.624 0-0.832 0.688-2.976 1.216-3.824 0.112-0.16 0.368-0.304 0.592-0.304 0.288 0 0.48-0.24 0.544-0.64 0.096-0.4 0.416-0.832 0.848-1.056 0.688-0.4 0.688-0.448 0.544-1.568-0.096-0.848-0.048-1.344 0.224-1.888 0.208-0.4 0.368-1.296 0.368-2.016 0-1.328 0.272-1.68 1.488-1.872 0.368-0.064 0.48-0.336 0.592-1.376 0.256-2.368 0.592-3.184 1.776-4.304s1.44-1.52 1.984-2.736c0.368-0.848 1.2-1.68 1.68-1.696 0.208 0 0.256-0.24 0.16-0.784-0.112-0.56-0.048-0.88 0.208-1.088 0.432-0.384 0.48-1.344 0.096-1.536-0.16-0.064 0.016-0.096 0.384-0.016 1.056 0.16 2.384-1.136 2.48-2.464 0.048-0.8 0.24-1.152 1.152-2.096 0.592-0.608 1.072-1.232 1.072-1.328 0-0.64 1.024-2.192 1.68-2.512 0.576-0.288 0.832-0.64 1.2-1.68 0.256-0.736 0.8-1.728 1.232-2.224 0.736-0.88 0.768-0.976 0.624-2.288-0.064-0.784-0.24-1.584-0.336-1.824-0.144-0.256-0.144-1.008 0.016-2.064l0.224-1.632-1.072-1.824-1.104-1.824-0.016-2.368c-0.016-1.984-0.096-2.416-0.48-2.864-0.368-0.432-0.464-0.896-0.496-2.528-0.048-1.824-0.112-2.032-0.64-2.48-0.32-0.24-0.576-0.608-0.576-0.832 0-0.192-0.288-0.736-0.688-1.184-0.368-0.432-0.688-0.928-0.688-1.088s-0.224-0.88-0.528-1.584l-0.496-1.296-0.976 0.064c-0.848 0.064-1.008 0.16-1.28 0.88-0.336 0.832-0.96 1.296-1.664 1.296-0.256 0-0.688 0.24-0.96 0.496-0.288 0.288-0.768 0.512-1.024 0.544-0.336 0.016-0.496 0.192-0.544 0.704-0.096 0.88-1.152 2.064-2.688 3.008-0.688 0.432-1.28 0.976-1.328 1.2-0.144 0.544-0.496 0.544-1.024 0-0.32-0.304-0.864-0.432-2.592-0.48-1.344-0.048-2.256 0.016-2.352 0.192-0.064 0.112-0.32 0.24-0.528 0.24-0.464 0-1.632-1.152-1.632-1.6 0-0.16-0.16-0.496-0.368-0.688-0.224-0.24-0.288-0.56-0.208-0.88 0.272-0.976 0.224-1.152-0.464-1.568-0.384-0.208-0.688-0.592-0.688-0.848s-0.096-0.688-0.208-0.992c-0.112-0.4-0.064-0.688 0.192-0.976 0.384-0.432 0.336-0.88-0.288-3.456-0.192-0.736-0.16-1.088 0.144-1.728 0.288-0.608 0.288-0.896 0.096-1.376-0.32-0.736-0.32-2.048-0.016-3.168 0.144-0.496 0.144-1.328 0.016-2.080s-0.096-1.696 0.048-2.368c0.192-0.928 0.144-1.344-0.416-3.056-0.592-1.792-0.624-2.128-0.432-3.504s0.192-1.6-0.288-2.528c-0.544-1.040-0.688-2.080-0.288-2.080 0.336 0 0.272-0.656-0.144-1.328-0.32-0.48-0.336-0.976-0.224-3.136 0.16-2.336 0.144-2.592-0.256-2.88-0.464-0.352-1.024-2.672-0.72-2.976 0.208-0.24 0.576-7.968 0.688-14.48 0.048-2.416 0.672-8.224 0.992-9.216 0.656-2.128 1.056-4.416 1.056-6.16 0-0.976 0.16-2.32 0.336-2.96 0.224-0.832 0.32-2.288 0.288-5.168-0.016-6.48 0.048-7.968 0.416-8.48 0.192-0.288 0.32-1.040 0.32-1.824 0-1.328 0.416-2.096 1.104-2.096 0.16 0 0.288-0.192 0.288-0.432 0-0.544 0.432-0.992 0.944-0.992 0.208 0 0.528-0.16 0.688-0.384 0.416-0.512 2.256-0.304 2.608 0.256 0.112 0.24 0.464 0.736 0.72 1.152 0.304 0.4 1.008 1.744 1.584 2.976 0.592 1.232 1.12 2.336 1.2 2.464 0.048 0.096-0.112 0.112-0.384 0.016-0.384-0.112-0.464-0.064-0.32 0.288 0.096 0.24 0.336 0.688 0.576 1.008 0.368 0.512 0.384 0.784 0.208 1.792-0.224 1.184-0.144 2.096 0.224 2.592 0.208 0.256 0.096 3.328-0.144 4.112-0.064 0.24-0.048 0.496 0.064 0.56 0.144 0.064 0.112 0.56-0.016 1.2-0.208 0.944-0.192 1.136 0.24 1.6 0.288 0.304 0.464 0.8 0.464 1.28-0.016 0.432 0.112 0.928 0.24 1.104 0.288 0.336 0.496 3.472 0.496 6.144-0.016 0.544 0.16 1.136 0.432 1.488 0.336 0.448 0.464 0.976 0.464 2 0 1.536 0.272 2.32 0.816 2.32 0.288 0 0.336 0.24 0.288 1.136-0.064 0.784 0.048 1.296 0.336 1.776 0.336 0.512 0.416 0.928 0.288 1.984-0.16 1.488 0.224 2.48 1.52 4.064 0.528 0.64 0.64 0.944 0.528 1.536-0.064 0.4-0.192 1.392-0.224 2.176-0.112 1.344-0.064 1.472 0.464 1.696 0.288 0.16 0.544 0.4 0.576 0.56s0.048 0.784 0.096 1.376c0.064 1.488 0.624 3.184 1.2 3.856 0.336 0.352 0.496 0.848 0.496 1.424 0 0.64 0.112 0.944 0.416 1.040 0.624 0.256 0.752 0.592 0.592 1.936-0.192 1.488-0.016 1.68 1.584 1.68 0.864 0 1.328-0.16 2.176-0.752 0.592-0.4 1.28-0.992 1.552-1.28 0.336-0.352 0.672-0.48 1.056-0.4 0.336 0.064 0.848-0.048 1.2-0.288 0.464-0.336 0.816-0.384 1.584-0.24 0.528 0.096 1.536 0.24 2.208 0.304 1.216 0.16 1.264 0.192 1.344 0.928 0.064 0.832 0.544 1.232 1.728 1.472 0.528 0.112 0.736 0.352 0.976 1.056 0.144 0.496 0.432 1.040 0.624 1.184s0.368 0.608 0.416 1.056c0.048 0.496 0.224 0.896 0.528 1.056 0.256 0.144 0.496 0.288 0.576 0.336s-0.064 0.208-0.288 0.384c-0.464 0.352-0.816 2.032-0.432 2.032 0.144 0 0.368 0.256 0.48 0.592 0.224 0.592 0.768 0.784 1.024 0.352 0.288-0.48 0.576 0.048 0.576 1.040 0 0.64 0.144 1.136 0.336 1.328 0.192 0.16 0.336 0.688 0.336 1.2s0.192 1.328 0.464 1.792c0.24 0.496 0.464 1.296 0.464 1.792 0 0.56 0.112 0.944 0.336 1.024 0.384 0.16 0.432 1.040 0.112 2.192-0.192 0.688-0.16 0.896 0.192 1.248 0.576 0.512 0.832 2.512 0.624 4.912-0.144 1.872-0.016 2.688 0.336 2.464 0.432-0.288 1.104 0.944 1.12 2.064 0 0.944 0.144 1.248 0.96 2.224l0.96 1.104 1.44-0.096c1.008-0.064 1.632-0.24 2.112-0.608 0.384-0.288 0.896-0.512 1.12-0.512 0.336 0 2.72-2.192 3.2-2.976 0.192-0.352 2.768-1.744 3.168-1.744 0.192 0 0.624-0.16 0.976-0.352 0.48-0.256 0.688-0.544 0.72-1.104 0.048-0.64 0.192-0.8 0.64-0.848 2.304-0.24 2.544-0.304 2.256-0.656-0.416-0.512 0.112-0.992 1.296-1.184 0.72-0.096 1.152-0.336 1.376-0.704 0.496-0.784 2.688-2.464 3.2-2.464 0.256 0 0.688-0.192 0.976-0.4 0.336-0.208 1.072-0.48 1.696-0.56 0.72-0.112 1.264-0.352 1.472-0.688 0.192-0.256 0.464-0.48 0.64-0.48s0.464-0.144 0.624-0.336c0.192-0.192 0.912-0.656 1.6-1.056 0.72-0.432 1.424-0.928 1.552-1.088 0.16-0.192 0.656-0.352 1.152-0.352 0.544 0 0.976-0.16 1.264-0.48 0.224-0.256 0.72-0.48 1.104-0.48 0.432 0 0.864-0.24 1.28-0.688 0.464-0.512 0.896-0.704 1.856-0.848 0.912-0.112 1.376-0.304 1.712-0.736 0.288-0.304 0.8-0.592 1.2-0.656 0.416-0.048 1.056-0.352 1.44-0.704s0.944-0.608 1.2-0.608 0.896-0.256 1.344-0.592c0.464-0.336 1.104-0.592 1.424-0.592 0.848 0 1.744-0.432 1.744-0.8 0-0.208 0.384-0.48 0.944-0.656 0.816-0.24 1.056-0.24 1.632 0.112 0.832 0.48 1.104 0.496 1.104 0.096 0-0.16 0.208-0.544 0.48-0.848 0.432-0.496 0.592-0.512 2.256-0.352 1.44 0.112 2.032 0.064 2.96-0.288 0.64-0.24 1.168-0.512 1.168-0.608s0.288-0.192 0.592-0.192c0.32 0 0.768-0.112 1.024-0.256 0.336-0.192 0.576-0.144 1.024 0.24 0.576 0.48 0.576 0.48 1.024 0 0.256-0.256 0.384-0.56 0.32-0.656s0.064-0.16 0.304-0.096c0.24 0.048 0.864-0.208 1.472-0.608 0.576-0.4 1.216-0.736 1.392-0.736s0.416-0.096 0.48-0.208c0.064-0.096 0.464-0.256 0.864-0.352 0.384-0.064 0.896-0.304 1.104-0.496 0.224-0.208 0.912-0.352 1.824-0.384 0.944-0.016 2.256-0.304 3.552-0.736 1.92-0.656 2.144-0.688 3.264-0.432 0.624 0.16 1.424 0.24 1.712 0.144s1.92-0.208 3.616-0.288c3.824-0.144 3.824-0.144 4.928-1.152 0.496-0.448 1.248-0.944 1.6-1.056 0.48-0.16 0.864-0.608 1.296-1.392 0.432-0.848 0.944-1.344 1.744-1.824 1.28-0.736 1.648-1.472 1.648-3.328 0-1.392 1.28-4.496 2.032-4.96 0.576-0.384 1.392-1.984 1.392-2.736 0-0.304 0.336-0.88 0.8-1.344 0.656-0.656 0.768-0.944 0.752-1.776 0-0.512 0.064-1.296 0.16-1.728 0.192-1.024-0.016-1.648-0.64-1.744-0.384-0.048-0.528-0.256-0.576-0.832-0.064-0.8-0.496-1.104-0.496-0.352 0 0.24-0.064 0.496-0.144 0.56-0.224 0.256-1.008-0.112-1.008-0.496-0.016-0.784-1.104-1.68-2.016-1.68-0.24 0-0.688 0.192-0.976 0.448-0.72 0.544-3.776 0.88-4.624 0.48-0.496-0.24-0.72-0.208-1.232 0.16-1.008 0.688-2.16 0.144-1.968-0.944 0.096-0.4-0.192-1.024-0.832-2-0.528-0.784-0.944-1.52-0.944-1.632s-0.192-0.4-0.464-0.64c-0.336-0.336-0.464-0.736-0.464-1.648 0-1.344 0.432-2 1.328-2 0.304 0 0.528-0.192 0.624-0.512s0.336-0.752 0.576-1.024c0.208-0.256 0.464-0.752 0.544-1.104s0.64-1.088 1.28-1.632c0.656-0.544 1.152-1.136 1.152-1.328 0-0.784 1.392-3.12 2.144-3.584 0.416-0.288 0.848-0.784 0.912-1.088 0.080-0.4 0.288-0.592 0.624-0.592 0.48 0 2-0.848 2.288-1.28 0.096-0.144 0.112-0.64 0.048-1.136-0.112-0.704-0.048-0.928 0.384-1.296 0.576-0.48 2-1.92 2.432-2.512 0.192-0.256 0.528-0.336 1.216-0.24 1.28 0.192 2.064-0.256 2.064-1.152 0-1.28 0.624-2.048 2.128-2.768 1.472-0.688 1.648-0.944 2.16-3.056 0.16-0.656-0.32-1.888-0.864-2.192-0.432-0.24-0.592-1.28-0.256-1.776 0.384-0.608 1.12-0.8 1.808-0.448 0.864 0.48 0.992 0.448 0.992-0.24 0-0.336 0.192-0.784 0.416-1.008 0.288-0.304 0.384-0.688 0.32-1.424-0.096-0.976-0.064-1.008 0.768-1.376 1.52-0.608 1.92-0.88 1.92-1.2 0-0.688 0.72-1.728 1.136-1.728 0.288 0 1.44-0.992 2.864-2.432 3.44-3.472 3.744-3.728 4.416-3.92 0.384-0.112 0.64-0.384 0.72-0.752 0.064-0.336 0.48-0.752 0.96-1.040 0.544-0.304 0.864-0.656 0.96-1.088 0.064-0.384 0.32-0.704 0.592-0.8s0.464-0.352 0.464-0.704c0-0.992 0.72-1.6 1.904-1.6 0.896 0.016 1.168-0.096 1.856-0.784 0.464-0.448 0.832-0.976 0.832-1.136 0-0.192 0.32-0.448 0.688-0.608 0.384-0.16 0.688-0.48 0.688-0.704 0-0.208 0.496-0.848 1.152-1.392 0.624-0.544 1.248-1.248 1.424-1.6s0.576-0.704 0.896-0.8c0.896-0.24 2.688-1.68 2.768-2.224 0.048-0.384 0.288-0.496 1.104-0.592 0.912-0.096 1.024-0.192 1.104-0.784 0.080-0.736 0.944-1.44 1.488-1.232 0.176 0.096 0.464 0.432 0.592 0.784 0.336 0.832 2.064 2.832 2.752 3.184 0.912 0.48 0.72 2.768-0.192 2.768-0.112 0-0.368 0.288-0.544 0.64-0.192 0.384-0.688 0.88-1.152 1.104-0.944 0.512-0.896 0.4-0.912 2.624l-0.016 1.648-1.28 0.688c-1.152 0.608-1.344 0.8-1.488 1.632-0.112 0.512-0.368 1.024-0.544 1.104s-0.944 0.48-1.648 0.832c-1.168 0.56-1.344 0.752-1.584 1.584-0.144 0.512-0.16 1.376-0.096 1.872 0.144 0.752 0.048 1.040-0.432 1.696-0.368 0.496-0.896 0.88-1.312 0.976-0.368 0.064-0.72 0.256-0.752 0.432s-0.208 0.832-0.336 1.472c-0.144 0.64-0.528 1.472-0.816 1.84-0.32 0.384-0.576 0.832-0.576 1.008s-0.144 0.432-0.32 0.56c-0.192 0.16-0.384 0.656-0.48 1.104-0.064 0.448-0.288 0.896-0.48 0.976-0.16 0.064-0.32 0.256-0.32 0.432s-0.192 0.496-0.384 0.736c-0.224 0.24-0.496 0.608-0.64 0.88-0.112 0.256-0.528 0.592-0.912 0.704-0.896 0.304-1.024 0.544-0.768 1.424 0.192 0.784 0.224 0.752-0.8 2.336-0.752 1.184-1.008 1.328-1.744 0.848-0.768-0.512-0.96 0.048-0.416 1.2s0.528 1.232-0.816 2.976c-0.368 0.48-0.736 1.248-0.8 1.728-0.144 0.832-0.192 0.88-0.896 0.8-0.896-0.096-1.168 0.4-0.768 1.44 0.224 0.64 0.192 0.848-0.288 1.728-0.672 1.152-0.736 2.288-0.192 3.36 0.192 0.432 0.288 0.944 0.192 1.2-0.064 0.256 0.016 0.592 0.224 0.832 0.192 0.192 0.528 0.752 0.72 1.232l0.336 0.848 1.808-0.16c1.44-0.144 2.032-0.096 2.912 0.256 1.552 0.56 2.592 1.632 2.592 2.624 0 0.496 0.112 0.784 0.304 0.784s0.544 0.256 0.848 0.592c0.416 0.448 0.576 0.896 0.592 1.84 0.016 0.688 0.112 1.68 0.192 2.224 0.16 0.928 0.144 1.024-0.272 1.024-0.288 0-0.688 0.352-1.056 0.928-0.432 0.688-0.72 0.896-1.024 0.8-0.24-0.064-0.688 0.112-1.072 0.448-0.592 0.544-0.624 0.592-0.272 1.28 0.272 0.544 0.288 0.8 0.064 1.28-0.576 1.328-1.2 2.144-1.68 2.272-0.72 0.192-0.72 1.040 0 1.040 1.056 0 1.44 1.056 0.592 1.6-0.416 0.288-0.544 0.256-0.992-0.16-0.272-0.288-0.576-0.496-0.624-0.496-0.096 0-0.208 0.704-0.304 1.6-0.336 3.92-0.336 4.016-0.816 4.128-0.288 0.064-0.432 0.336-0.432 0.736 0 0.48-0.112 0.608-0.496 0.608-0.288 0-0.624 0.096-0.768 0.192-0.336 0.24-1.008 1.696-1.008 2.24 0 0.256-0.192 0.8-0.416 1.2s-0.576 1.2-0.72 1.792c-0.16 0.592-0.496 1.28-0.736 1.568-0.224 0.256-0.416 0.848-0.416 1.328 0 0.64-0.192 1.040-0.816 1.696-0.896 0.976-0.912 1.344-0.112 2.976 0.544 1.136 2.256 2.224 3.024 1.936 0.288-0.112 1.376-0.192 2.384-0.144 1.008 0.064 2.256 0.096 2.816 0.096 0.8-0.016 1.008 0.064 1.168 0.544 0.288 0.784 0.768 1.104 1.648 1.104 3.472 0.016 3.952 0.096 4.224 0.656 0.432 0.928 0.64 1.040 1.344 0.752 0.496-0.192 0.72-0.16 1.024 0.112 0.208 0.192 0.576 0.352 0.832 0.352s0.672 0.16 0.912 0.352c0.224 0.192 0.864 0.352 1.376 0.352 0.496 0 1.12 0.16 1.376 0.352 0.224 0.192 0.816 0.352 1.28 0.352s1.12 0.112 1.488 0.256c0.336 0.144 1.024 0.256 1.52 0.256 0.496-0.016 1.136 0.096 1.488 0.208s1.648 0.24 2.928 0.24c1.968 0.016 2.48 0.096 2.928 0.48 0.432 0.352 0.768 0.432 1.632 0.288 1.024-0.144 1.12-0.096 1.808 0.688 0.944 1.088 2.832 1.92 3.936 1.696 0.72-0.144 0.896-0.064 1.344 0.512 0.432 0.56 0.688 0.656 1.696 0.688 1.072 0.016 1.28 0.112 1.984 0.896 0.896 0.976 0.896 0.976 1.904 0.608 0.592-0.208 0.912-0.192 1.936 0.256 0.768 0.336 1.296 0.704 1.488 1.088 0.144 0.304 0.416 0.64 0.592 0.704 0.192 0.096 0.336 0.288 0.336 0.432s0.32 0.304 0.768 0.336c1.072 0.048 2.432 0.688 3.36 1.568 1.024 0.992 2.080 1.424 3.072 1.248 0.624-0.096 0.912 0 1.392 0.448 0.32 0.304 0.768 0.56 0.992 0.56 0.544 0 1.872 0.88 1.872 1.232 0 0.16 0.224 0.336 0.528 0.352 1.152 0.096 2.688 0.48 2.992 0.784 0.192 0.16 0.368 0.48 0.368 0.704 0 0.304 0.144 0.4 0.432 0.304 0.272-0.064 0.816 0.256 1.6 0.976 0.64 0.592 1.344 1.088 1.536 1.088s0.688 0.144 1.072 0.336c0.416 0.192 0.992 0.384 1.296 0.432 0.416 0.048 0.688 0.336 0.992 0.976 0.192 0.48 0.48 0.88 0.592 0.88s0.528 0.288 0.912 0.608c0.384 0.336 1.2 0.736 1.792 0.88 0.912 0.24 1.12 0.384 1.168 0.88 0.048 0.336 0.192 0.736 0.336 0.928 0.384 0.48 1.984 1.2 2.688 1.2 0.592 0 2.032 1.2 2.496 2.080 0.144 0.288 0.416 0.512 0.592 0.512s0.912 0.608 1.632 1.392c1.552 1.728 3.408 2.544 4.832 2.176 0.48-0.112 1.472-0.288 2.176-0.384 0.736-0.064 1.376-0.256 1.472-0.384 0.064-0.112 0.656-0.208 1.296-0.208 3.040 0 4.256-0.144 4.656-0.544 0.24-0.208 1.008-0.704 1.728-1.088 1.168-0.64 1.472-0.704 2.624-0.592 1.488 0.16 3.024-0.384 3.824-1.296 0.256-0.256 0.624-0.496 0.864-0.496 0.32 0 0.416-0.192 0.416-0.928 0-0.496-0.16-1.232-0.336-1.584-0.192-0.384-0.336-0.848-0.336-1.056s-0.992-1.376-2.176-2.592c-1.2-1.232-2.176-2.384-2.176-2.592s-0.16-0.512-0.368-0.704c-0.912-0.784-2.032-3.968-2.256-6.528l-0.16-1.696 0.896 0.048c0.944 0.016 2.080-0.656 2.688-1.648 0.192-0.304 0.576-0.544 0.832-0.544s0.848-0.208 1.296-0.448c2.064-1.136 2.48-1.232 3.168-0.848 0.848 0.448 2.016 0.448 2.384 0 0.16-0.192 0.544-0.352 0.896-0.352s0.848-0.16 1.12-0.384c0.576-0.4 4.224-0.512 6.432-0.208 1.376 0.192 3.648-0.208 5.28-0.944 1.12-0.496 4.688-1.088 6.624-1.088 0.336 0 1.008-0.16 1.552-0.352 0.576-0.192 1.936-0.336 3.44-0.336 1.344-0.016 2.656-0.016 2.912-0.016s2.56 0.048 5.152 0.112c5.888 0.144 8.464 0.432 8.832 0.944 0.224 0.352 0.288 0.336 0.384-0.096s0.224-0.496 1.248-0.336c0.592 0.096 1.328 0.256 1.632 0.352s2.032 0.208 3.872 0.208c3.136 0 4.528 0.192 5.712 0.752 0.288 0.16 1.152 0.192 2.16 0.096 1.584-0.16 1.68-0.144 2.288 0.48s0.688 0.64 2.656 0.48c1.776-0.144 2.112-0.096 2.656 0.304 0.368 0.24 0.848 0.384 1.072 0.336 0.224-0.064 0.96 0.048 1.648 0.24 0.896 0.288 2.064 0.352 4.464 0.304 2.928-0.064 3.312-0.048 3.744 0.384 0.256 0.24 0.464 0.592 0.464 0.784 0 0.24 0.256 0.352 0.768 0.352 0.96 0 2.496 0.928 2.864 1.728 0.272 0.56 0.24 0.704-0.144 1.232-0.528 0.688-0.432 1.68 0.16 1.84 0.224 0.048 0.48 0.432 0.544 0.8s0.336 0.8 0.624 0.928c0.432 0.208 0.464 0.24 0.096 0.784s-0.48 0.544-2.192 0.4c-1.472-0.112-1.968-0.064-2.768 0.288-0.816 0.384-1.424 0.432-4.048 0.352-1.696-0.048-4-0.192-5.152-0.288-1.12-0.112-2.208-0.112-2.432 0s-0.576 0.144-0.816 0.064c-0.48-0.144-1.216 0.432-1.216 0.928 0 0.4-0.8 0.88-1.12 0.656-0.16-0.112-0.672 0-1.12 0.24-1.024 0.544-1.712 0.56-2.48 0.064-0.544-0.384-0.624-0.384-1.232 0.112-0.48 0.352-1.008 0.496-1.808 0.496-0.624 0-1.28 0.144-1.44 0.304-0.768 0.8-2.384 1.344-3.952 1.328-5.536-0.048-6.448 0.064-6.688 0.944-0.144 0.592-1.536 1.2-2.832 1.232-1.52 0.016-4.624 0.448-5.088 0.704-0.224 0.112-0.912 0.208-1.536 0.208-1.2 0-2.96 0.688-3.472 1.328-0.544 0.688-1.776 1.088-2.8 0.928-2.144-0.336-4.080 1.536-3.6 3.472 0.592 2.272 1.072 3.68 1.536 4.352 0.336 0.496 0.432 0.832 0.272 1.056-0.112 0.16-0.192 0.976-0.192 1.728 0 1.136-0.096 1.52-0.496 1.968-0.48 0.544-0.496 0.56-0.112 1.68 0.208 0.608 0.384 1.232 0.384 1.392 0 0.592-0.72 1.008-1.68 0.992-0.656-0.016-1.28 0.16-1.984 0.592-0.752 0.448-1.2 0.56-1.776 0.48s-0.912 0-1.584 0.48c-0.688 0.48-1.056 0.56-1.712 0.48-0.48-0.096-1.104-0.016-1.488 0.192-0.688 0.304-3.12 0.384-3.776 0.096-0.256-0.112-0.432 0.048-0.688 0.592-0.464 1.056-1.376 1.728-2.32 1.632-2.688-0.208-5.584 0.304-6.48 1.184-0.288 0.288-0.896 0.592-1.344 0.736-0.464 0.112-0.832 0.336-0.832 0.448 0 0.144-0.288 0.24-0.624 0.24-0.992 0-2.88 1.488-2.96 2.32-0.048 0.352-0.112 1.040-0.192 1.536-0.144 0.8-0.048 1.040 0.896 2.272 0.576 0.752 1.104 1.728 1.2 2.144s0.32 0.928 0.496 1.152c0.72 0.832 1.424 2.176 1.584 2.976 0.064 0.448 0.288 0.832 0.464 0.832 0.368 0 0.768 0.736 0.768 1.376 0 0.256 0.416 1.040 0.912 1.728s0.912 1.392 0.912 1.568 0.464 0.832 1.024 1.488c0.576 0.656 1.024 1.344 1.024 1.536s0.336 0.752 0.768 1.232c1.104 1.296 1.344 1.888 1.2 2.928-0.144 0.88-0.112 0.928 0.672 1.248 0.768 0.352 0.8 0.4 0.672 1.296s-0.096 0.992 0.576 1.376c0.384 0.24 0.72 0.592 0.72 0.8s0.368 1.232 0.832 2.24c0.72 1.632 0.768 1.92 0.528 2.416-0.256 0.448-0.256 0.592 0.016 0.784 0.176 0.112 0.544 0.16 0.768 0.112 1.056-0.256 1.776 1.104 1.232 2.336-0.192 0.48-0.16 0.688 0.192 1.2 0.656 0.976 1.44 2.528 1.44 2.96 0.016 0.208 0.24 0.56 0.48 0.8 0.912 0.848 1.696 2.576 1.872 4.128 0.096 0.848 0.256 2.080 0.32 2.736 0.112 0.992 0.256 1.28 0.72 1.488 0.288 0.144 0.528 0.4 0.496 0.544-0.096 0.736 0.064 1.152 0.816 2.176 0.592 0.832 0.8 1.328 0.8 2.016 0 0.512-0.096 1.008-0.224 1.088-0.368 0.24-0.288 0.544 0.192 0.704 0.256 0.064 0.528 0.448 0.624 0.88 0.064 0.432 0.32 1.088 0.544 1.52 0.288 0.496 0.464 1.52 0.576 3.184 0.096 1.344 0.288 2.976 0.48 3.616s0.32 1.984 0.32 2.976c0 1.632 0.064 1.936 0.688 2.864 0.72 1.088 0.832 1.936 0.464 3.28-0.256 0.88-0.016 1.424 1.072 2.624 0.288 0.352 0.544 0.784 0.528 0.944-0.112 0.8 0.016 1.424 0.416 1.792 0.224 0.24 0.64 0.8 0.912 1.28 0.592 1.008 1.696 1.936 3.072 2.544 0.544 0.24 1.216 0.784 1.52 1.184 0.432 0.608 0.672 0.736 1.424 0.736 0.624 0 0.912 0.096 0.912 0.304 0 0.432 2.656 3.008 3.072 3.008 0.16 0 0.432 0.16 0.592 0.352s0.672 0.352 1.12 0.352c0.72 0 0.896 0.096 1.072 0.64 0.192 0.512 0.416 0.656 1.584 0.928 0.768 0.144 2.080 0.592 2.912 0.992 1.296 0.608 1.52 0.784 1.392 1.2-0.112 0.48-0.048 0.496 1.584 0.496 1.68 0 1.696 0 2.592-0.944l0.912-0.976 0.064-5.616c0.064-4.672 0.016-5.792-0.288-6.528-0.432-1.088-0.192-1.632 0.896-2.128 0.432-0.16 0.8-0.432 0.8-0.544s0.432-0.512 0.944-0.88c0.864-0.592 1.024-0.608 1.776-0.384 0.72 0.24 1.648 0.336 4.56 0.48 0.32 0.016 0.496 0.16 0.496 0.448 0 0.608 0.864 1.936 1.248 1.936 0.176 0 0.336 0.144 0.336 0.336 0 0.4 1.28 1.568 1.712 1.568 0.192 0 0.432 0.208 0.576 0.48 0.144 0.288 0.48 0.48 0.832 0.48 0.384 0 0.624 0.16 0.72 0.448 0.064 0.256 0.384 0.512 0.72 0.608s1.328 0.496 2.176 0.896c1.232 0.608 1.536 0.848 1.44 1.2-0.064 0.304 0.064 0.496 0.544 0.688 0.64 0.256 1.376 1.248 1.376 1.872 0 0.544 1.264 1.632 1.968 1.728 0.464 0.048 1.008 0.48 1.808 1.392 0.64 0.736 1.248 1.328 1.392 1.328s0.48 0.256 0.768 0.592c0.384 0.432 0.768 0.592 1.424 0.592 0.912 0 0.944 0.048 0.864 1.344-0.016 0.64 0.064 0.832 0.528 0.992 0.32 0.144 0.64 0.352 0.72 0.48 0.064 0.144 0.544 0.256 1.056 0.256 0.688 0 1.008 0.144 1.424 0.64 0.288 0.336 0.688 0.8 0.896 1.040s0.544 0.688 0.768 1.024c0.192 0.304 0.688 0.656 1.024 0.736 0.384 0.096 0.96 0.544 1.376 1.040 0.416 0.544 0.944 0.976 1.344 1.040 0.416 0.096 0.72 0.336 0.816 0.64 0.16 0.544 2.256 2.368 2.752 2.368 0.16 0 0.736 0.656 1.28 1.472 0.544 0.784 1.392 1.84 1.872 2.336s0.848 1.056 0.848 1.248c0 0.48 1.6 2.176 2.256 2.384 0.464 0.144 0.528 0.288 0.464 0.848-0.080 0.56 0.112 0.944 1.12 2.144 0.688 0.8 1.28 1.696 1.344 2 0.16 0.608 0.944 0.944 1.296 0.56 0.416-0.432 0.768-0.304 1.024 0.336 0.16 0.352 0.464 0.592 0.72 0.592 0.768 0 1.376 0.832 1.376 1.872s0.256 1.328 1.2 1.248c0.336-0.016 0.64 0.064 0.64 0.208s0.464 0.736 1.024 1.328c0.576 0.56 1.024 1.184 1.024 1.328 0.016 0.384 1.536 2.048 1.872 2.048 0.16 0 0.912 0.688 1.712 1.536 1.216 1.296 1.44 1.68 1.44 2.368 0 0.64 0.192 1.040 0.912 1.776 0.496 0.512 1.008 0.944 1.104 0.944 0.24 0 0.896 1.472 1.024 2.24 0.048 0.256-0.064 0.784-0.224 1.136-0.192 0.384-0.288 0.832-0.192 1.024s-0.16 0.8-0.496 1.344c-0.336 0.544-0.656 1.472-0.72 2.048-0.144 1.248-0.624 1.488-1.344 0.688-0.768-0.832-1.68-1.392-2.336-1.392-0.464 0-0.688-0.16-0.896-0.688-0.144-0.384-0.496-0.928-0.832-1.232-0.288-0.288-0.544-0.656-0.544-0.832s-0.192-0.352-0.432-0.448c-0.256-0.064-0.64-0.48-0.896-0.896-0.288-0.544-0.688-0.832-1.328-0.992-0.576-0.16-0.992-0.448-1.168-0.8-0.144-0.336-0.848-0.992-1.584-1.488s-1.712-1.344-2.192-1.872c-0.624-0.656-1.024-0.896-1.312-0.8s-0.752-0.16-1.392-0.704c-0.528-0.448-1.056-0.832-1.2-0.832-0.48 0-2.016-1.472-2.016-1.92 0-0.256-0.576-1.040-1.264-1.744s-1.248-1.392-1.248-1.488c0-0.096-0.368-0.336-0.768-0.48-0.432-0.16-0.848-0.496-0.912-0.704-0.192-0.656-2.656-3.12-3.12-3.12-0.224 0-0.464-0.208-0.528-0.48s-0.384-0.496-0.768-0.592c-0.368-0.064-0.992-0.24-1.376-0.352-0.992-0.336-1.632-0.288-2.256 0.112-0.416 0.288-1.008 0.352-2.336 0.304-1.632-0.064-1.808-0.112-1.808-0.544 0-0.352 0.144-0.448 0.528-0.4 0.72 0.112 0.656-0.656-0.192-1.488-0.624-0.608-0.816-0.688-2.496-0.688-1.904-0.016-2.224-0.192-3.36-1.536-0.368-0.448-0.672-0.544-1.584-0.544-0.992 0.016-1.2-0.048-1.936-0.88l-0.864-0.928-2.064 0.048c-2.432 0.064-2.928 0.336-3.84 1.92-0.496 0.928-0.592 1.248-0.464 2.224 0.112 0.88 0.064 1.2-0.208 1.44-0.224 0.192-0.336 0.704-0.336 1.472 0 1.28-0.416 1.696-1.104 1.056-0.416-0.384-1.2-0.16-1.2 0.336 0 0.544-1.072 1.68-1.968 2.096-1.904 0.848-2.176 0.832-3.696-0.352-0.768-0.592-1.6-1.056-1.872-1.056s-0.864-0.16-1.296-0.352c-0.432-0.192-0.864-0.336-0.96-0.304-0.288 0.096-1.2-0.304-1.2-0.544 0-0.112-0.336-0.352-0.752-0.512-0.864-0.384-1.984-1.792-1.984-2.512 0-0.288-0.144-0.496-0.32-0.496-0.624 0-1.056 0.288-1.056 0.704 0 0.384-0.064 0.4-0.576 0.16-0.32-0.16-0.576-0.384-0.576-0.48s-0.416-0.608-0.912-1.136c-0.768-0.784-1.056-0.928-1.856-0.928-0.72 0-1.12-0.16-1.744-0.704-0.416-0.384-0.992-0.704-1.232-0.704-0.528 0-1.648-0.56-2.48-1.2-0.288-0.256-1.2-0.656-2.016-0.928-0.832-0.256-1.776-0.688-2.16-0.976s-1.104-0.544-1.584-0.608c-0.496-0.064-0.848-0.24-0.768-0.352 0.224-0.384-0.624-1.136-1.28-1.136-0.48 0-0.688 0.16-0.912 0.688-0.16 0.432-0.544 0.8-0.944 0.944-1.024 0.352-2.256 1.488-2.256 2.048 0 0.352 0.144 0.496 0.416 0.48 0.528-0.048 0.656 1.392 0.176 1.968-0.656 0.752-1.056 2.64-1.056 5.2 0 2.24-0.064 2.576-0.72 4.016-0.528 1.136-0.688 1.744-0.592 2.336 0.064 0.432-0.048 1.568-0.288 2.528-0.336 1.376-0.384 1.92-0.192 2.48 0.32 0.928 0.112 1.488-0.464 1.296-0.24-0.064-0.528 0-0.64 0.16-0.464 0.592-0.8 2.768-0.64 4 0.144 1.024 0.096 1.28-0.32 1.728-0.336 0.384-0.496 0.928-0.576 1.984-0.080 1.248-0.192 1.568-0.752 2.032l-0.64 0.592 0.432 0.8c0.48 0.944 0.336 1.344-0.464 1.344-0.416 0-0.544 0.112-0.544 0.544 0 0.64-0.384 1.104-0.944 1.104-0.528 0-0.752 0.8-0.432 1.424 0.192 0.336 0.192 1.104 0.112 2.224-0.16 1.68-0.192 1.744-0.944 2.096-0.624 0.336-0.832 0.608-1.12 1.696-0.192 0.704-0.544 1.424-0.768 1.584s-0.48 0.736-0.576 1.248c-0.336 1.824-0.544 2.832-0.864 4.016-0.288 1.136-0.336 1.184-1.072 1.136l-0.768-0.016 0.16 1.344c0.112 0.944 0.048 1.648-0.224 2.464-0.208 0.608-0.288 1.344-0.24 1.584 0.112 0.352 0 0.512-0.384 0.688-0.752 0.304-1.712 1.44-1.92 2.272-0.096 0.4-0.496 1.136-0.944 1.68-0.416 0.512-0.832 1.296-0.896 1.68-0.096 0.432-0.368 0.848-0.688 1.040-0.416 0.208-0.544 0.496-0.544 1.056 0 0.448-0.192 1.040-0.528 1.44-0.304 0.352-0.864 1.344-1.28 2.192s-0.992 2.032-1.312 2.624c-0.288 0.608-0.592 1.52-0.656 2-0.064 0.704-0.32 1.104-1.024 1.744-0.496 0.448-1.168 1.376-1.488 2-0.672 1.392-2.032 2.96-2.608 2.96s-0.944 0.48-0.944 1.232c0 0.352-0.288 1.040-0.592 1.536s-0.64 1.2-0.72 1.568c-0.096 0.432-0.368 0.784-0.736 0.944-0.848 0.4-0.864 0.48-0.752 2.416 0.096 1.728 0.096 1.744-0.64 2.432l-0.736 0.704 0.144 2.080c0.224 3.12 0.224 3.12-0.192 3.552-0.832 0.848 0.288 4.352 1.168 3.616 0.144-0.144 0.48-0.208 0.72-0.16 0.368 0.064 0.368 0.112-0.064 0.544-0.768 0.752-0.8 1.472-0.192 3.28 0.464 1.344 0.496 1.792 0.32 2.384-0.192 0.56-0.144 0.896 0.192 1.6s0.384 1.056 0.192 1.872c-0.176 0.896-0.144 1.056 0.528 2.032 0.688 0.992 0.72 1.104 0.624 2.816l-0.112 1.792 0.944 1.024c0.864 0.928 1.056 1.024 1.968 0.992 0.576-0.016 1.28 0.016 1.6 0.112 0.48 0.16 0.736 0.016 1.552-0.784 0.544-0.512 1.2-0.944 1.44-0.944s0.768-0.512 1.296-1.232c1.28-1.776 2.736-3.264 3.184-3.264 0.224 0 0.848-0.208 1.392-0.48 0.8-0.384 0.96-0.56 0.96-1.136 0-1.392 1.488-2 2.928-1.248 0.8 0.432 0.912 0.56 0.896 1.248-0.048 0.8 0.432 1.2 1.744 1.488 0.464 0.096 0.736 0.384 0.96 0.928 0.224 0.512 0.576 0.88 1.024 1.040 1.104 0.4 1.776 2.768 1.056 3.872-0.336 0.512-0.32 0.64 0.096 1.44 0.256 0.48 0.464 1.024 0.464 1.2s0.208 0.432 0.464 0.496c0.416 0.144 0.464 0.352 0.464 2.192 0 2.224-0.288 3.904-0.672 4.016-0.144 0.048-0.24 0.4-0.24 0.784 0 0.512 0.112 0.688 0.432 0.688 0.288 0 0.528 0.256 0.688 0.736 0.32 0.976 0.32 3.808 0 4.96-0.192 0.656-0.192 1.344 0 2.672 0.256 1.744 0.192 2.464-0.416 4.624-0.144 0.592 0.624 2.624 1.12 2.96 0.32 0.192 0.288 2.624-0.048 3.168-0.208 0.336-0.192 0.544 0.112 0.992 0.256 0.384 0.384 1.040 0.384 2 0 0.784 0.064 1.52 0.192 1.6 0.272 0.288 0.384 3.968 0.288 9.776-0.016 1.984-0.064 2.224-0.464 2.336-0.24 0.064-0.656 0.592-0.912 1.136-0.432 0.944-0.432 1.104-0.144 1.84 0.224 0.56 0.32 1.824 0.32 4.448 0 2 0.064 4.304 0.16 5.104 0.080 0.928 0.064 1.584-0.064 1.776-0.16 0.208-0.192 0.848-0.016 1.888 0.16 1.28 0.144 1.728-0.144 2.272-0.224 0.48-0.368 1.792-0.464 4.352-0.048 2.032-0.224 3.968-0.368 4.304-0.112 0.352-0.224 0.976-0.224 1.376s-0.288 1.28-0.64 1.936c-0.368 0.656-0.72 1.648-0.816 2.224-0.384 2.688-2.656 5.152-2.656 2.912 0-0.352-0.192-0.832-0.416-1.040-0.384-0.384-0.464-0.384-0.896 0.048-0.256 0.256-0.528 0.832-0.624 1.28-0.192 0.992-0.624 1.424-1.344 1.296-0.384-0.048-0.544-0.256-0.592-0.704-0.064-0.512 0-0.64 0.288-0.512 0.224 0.096 0.432-0.064 0.624-0.448 0.336-0.752 0.144-1.344-0.464-1.344-0.528 0-0.688-0.432-0.656-1.824 0-0.56-0.16-1.28-0.384-1.632-0.32-0.496-0.336-0.736-0.144-1.2 0.816-1.888-0.464-7.488-1.936-8.512-0.72-0.48-0.832-0.928-0.464-1.68 0.192-0.448 0.288-1.248 0.192-2.64-0.288-5.648-0.24-7.568 0.144-7.792 0.336-0.208 0.336-0.208 0-0.24-0.416 0-0.672-0.48-0.672-1.2 0-0.24-0.192-0.656-0.464-0.928s-0.464-0.784-0.464-1.2c0-0.432-0.192-1.088-0.432-1.488-0.48-0.832-1.168-3.376-1.168-4.4 0-0.384-0.112-0.752-0.256-0.848-0.192-0.112-0.224-0.784-0.144-2.128 0.112-1.536 0.064-2-0.192-2.224-0.16-0.16-0.336-0.64-0.336-1.088 0-0.512-0.144-0.896-0.48-1.136-0.768-0.544-1.152-1.488-0.992-2.528 0.144-0.784 0.064-0.992-0.544-1.632-0.672-0.656-0.72-0.832-0.64-2.224 0.048-0.8 0.144-1.6 0.24-1.744 0.064-0.112-0.112-0.56-0.432-0.944s-0.576-0.832-0.576-0.944c0-0.144-0.288-0.432-0.656-0.656-0.336-0.208-0.832-0.704-1.024-1.056-0.224-0.384-0.496-0.688-0.672-0.688-0.144 0-0.576-0.336-0.992-0.736l-0.736-0.736-1.168 0.56c-0.992 0.448-1.2 0.688-1.392 1.424-0.192 0.752-0.336 0.88-1.328 1.104-0.736 0.192-1.344 0.192-1.856 0.016-0.432-0.112-1.008-0.16-1.296-0.096s-0.576 0.016-0.64-0.112c-0.096-0.16-0.368-0.144-0.848 0.016-0.528 0.192-0.768 0.16-1.072-0.112-0.208-0.192-0.496-0.304-0.64-0.24-0.32 0.112-0.624-0.256-1.44-1.84-0.624-1.248-0.624-1.296-0.336-2.528 0.272-1.088 0.272-1.344-0.016-1.936-0.192-0.384-0.368-1.088-0.416-1.584s-0.336-1.328-0.656-1.84-0.64-1.184-0.736-1.472c-0.096-0.304-0.256-0.544-0.368-0.544-0.464 0-0.72-0.944-0.48-1.728 0.336-1.040-0.192-2.688-1.12-3.664-0.464-0.496-0.672-0.896-0.592-1.152s0.048-1.296-0.064-2.384c-0.144-1.472-0.32-2.096-0.672-2.48-0.24-0.288-0.656-1.088-0.912-1.776l-0.48-1.248 0.48-0.192c0.432-0.16 0.432-0.192-0.16-0.592-0.336-0.24-0.72-0.352-0.896-0.304-0.224 0.096-0.24-0.336-0.176-1.792 0.144-2.272-0.256-3.232-1.536-3.856-0.464-0.208-1.056-0.592-1.328-0.848-0.336-0.352-0.896-0.496-1.824-0.544-0.72-0.048-1.424-0.096-1.552-0.144-0.112-0.048-0.752 0.192-1.392 0.496-0.848 0.4-1.232 0.752-1.44 1.28-0.432 1.2-1.488 2.272-2.688 2.688-0.768 0.288-1.28 0.688-1.648 1.232-0.288 0.448-0.768 0.976-1.104 1.136s-0.496 0.4-0.432 0.544c0.224 0.384-0.112 1.136-0.576 1.28-0.256 0.096-0.8 0.016-1.232-0.144-1.024-0.384-1.68 0.048-2.448 1.584-0.768 1.488-1.52 1.968-2.544 1.568-0.752-0.288-0.768-0.288-1.904 0.976-0.64 0.704-1.376 1.344-1.648 1.44-0.24 0.096-0.592 0.48-0.752 0.832-0.288 0.752-0.864 1.024-1.824 0.8-0.816-0.16-1.968 0.48-2.4 1.344-0.208 0.432-0.592 0.752-0.992 0.848-0.336 0.064-0.912 0.24-1.28 0.352s-0.896 0.208-1.168 0.208c-0.288 0-0.752 0.192-1.056 0.448s-0.864 0.512-1.28 0.592c-0.416 0.096-0.992 0.432-1.264 0.752-0.384 0.432-0.768 0.56-1.488 0.56-0.768 0-0.944 0.064-0.848 0.352 0.192 0.496-0.32 1.056-0.96 1.056-0.336 0-0.752 0.304-1.152 0.832-0.48 0.656-0.768 0.832-1.376 0.832-0.416 0-0.816 0.112-0.896 0.24-0.064 0.144-0.48 0.24-0.912 0.24-0.624 0-0.896 0.16-1.376 0.8-0.8 1.088-1.152 1.184-2.288 0.608-1.232-0.608-1.808-0.592-2.256 0.112-0.496 0.784-1.6 1.040-3.792 0.896l-1.824-0.112 0.144 0.704c0.144 0.688 0.112 0.688-1.2 0.896-0.736 0.096-2.544 0.192-4 0.208-2.64 0-2.688 0.016-3.264 0.656-0.32 0.352-0.736 0.64-0.896 0.64s-0.48 0.208-0.72 0.48c-0.224 0.256-0.72 0.48-1.072 0.48-0.48 0-0.72 0.144-0.8 0.448-0.144 0.56-1.344 1.040-1.872 0.752-0.496-0.288-4 0.112-4.832 0.56-0.368 0.192-1.232 0.352-1.92 0.352-2.24 0-4.72 0.608-5.488 1.392-0.384 0.352-1.056 0.784-1.472 0.928s-1.008 0.48-1.328 0.736c-0.32 0.256-1.056 0.544-1.632 0.64-0.896 0.144-1.072 0.256-1.344 0.976-0.176 0.448-0.48 0.848-0.656 0.944-0.192 0.064-0.336 0.24-0.336 0.4s-0.288 0.544-0.688 0.896c-0.576 0.512-0.672 0.736-0.544 1.344s0.016 0.88-0.656 1.648c-0.544 0.64-0.896 1.328-1.104 2.24-0.24 1.056-0.432 1.44-1.152 2.032-0.592 0.496-0.896 0.928-0.896 1.328 0 0.656-0.848 1.52-1.904 1.872-0.496 0.16-0.8 0.448-0.96 0.944-0.112 0.4-0.416 0.976-0.624 1.296-0.432 0.592-0.592 3.312-0.224 3.312 0.384 0 2.352 1.728 3.136 2.784 0.576 0.752 0.768 1.248 0.72 1.6-0.224 0.928 0.288 1.040 1.984 0.448 1.632-0.56 3.088-0.56 3.888 0 0.432 0.304 1.232 0.192 2.512-0.336 1.168-0.48 1.904-0.336 2.208 0.432 0.256 0.64 0.528 0.928 2.4 2.48 0.592 0.496 0.656 0.688 0.592 1.648-0.048 0.704 0.064 1.328 0.288 1.68 0.256 0.384 0.288 0.736 0.16 1.232-0.368 1.28-0.96 2.224-1.584 2.48-0.592 0.256-0.592 0.288-0.096 0.352 0.768 0.16 0.688 1.152-0.192 1.6-0.368 0.208-0.688 0.496-0.688 0.64 0 0.448-0.72 1.104-1.056 0.976-0.208-0.064-0.288 0-0.208 0.208s-0.24 0.784-0.8 1.392c-0.496 0.56-0.912 1.152-0.912 1.328 0 0.304-0.896 2.224-1.152 2.432-0.336 0.288-0.912 1.44-0.912 1.744 0 0.448-1.28 1.44-2.128 1.648-0.416 0.096-0.72 0.384-0.864 0.8-0.144 0.352-0.768 1.232-1.44 1.936s-1.44 1.648-1.712 2.048c-0.288 0.432-0.768 0.848-1.12 0.928-1.536 0.352-1.472 0.256-2.688 2.912-0.32 0.688-1.152 1.824-1.824 2.512-1.2 1.184-1.248 1.296-1.248 2.464 0 0.688-0.096 1.424-0.24 1.648-0.112 0.24-0.816 0.656-1.552 0.944-0.944 0.352-1.44 0.704-1.632 1.104-0.144 0.304-0.432 0.56-0.688 0.56s-0.624 0.304-0.848 0.688c-0.224 0.384-0.624 0.832-0.944 0.992s-0.752 0.64-1.008 1.056c-0.464 0.8-1.392 1.68-2.832 2.688-0.432 0.336-1.024 0.992-1.28 1.488-0.32 0.608-0.944 1.232-1.952 1.872-0.8 0.512-1.472 1.088-1.472 1.248 0 0.192-0.192 0.384-0.432 0.48-0.672 0.208-3.472 3.216-3.84 4.080-0.16 0.432-0.624 1.296-1.008 1.936-0.592 0.992-0.832 1.184-1.408 1.184-0.976 0-2.112 1.2-1.92 2.048 0.144 0.48 0.096 0.56-0.16 0.48-0.384-0.144-1.296 1.024-1.296 1.648 0 0.896-0.528 1.2-2.832 1.648-0.368 0.064-1.296 0.592-2.112 1.152s-1.536 1.040-1.6 1.040c-0.096 0-0.384 0.256-0.688 0.592-0.432 0.48-0.768 0.592-1.648 0.592s-1.2 0.096-1.472 0.496c-0.256 0.4-0.624 0.512-1.952 0.608-1.344 0.112-1.744 0.24-2.16 0.688-0.528 0.592-0.592 0.608-1.072 0.4zM217.456 506.4c0.144-0.256 0.224-0.704 0.192-0.992-0.064-0.496-0.112-0.496-0.832 0.24-0.416 0.432-0.72 0.88-0.624 1.024 0.256 0.4 1.008 0.256 1.264-0.256zM259.456 382.832c1.152-0.112 2.448-0.336 2.912-0.496 0.688-0.208 1.28-0.192 2.864 0.112 3.824 0.704 4.512 0.704 6.192-0.112 1.936-0.944 2.832-1.152 5.76-1.28 2.016-0.064 2.608-0.192 3.616-0.736 0.688-0.352 1.296-0.848 1.424-1.136 0.24-0.64 1.536-1.296 2.592-1.296 0.432 0 1.024-0.208 1.376-0.48 0.768-0.608 1.12-0.592 1.936 0.112 0.384 0.336 0.768 0.592 0.912 0.592 0.112 0 0.688-0.432 1.248-0.944s1.12-0.944 1.248-0.944c0.112 0 0.48-0.336 0.8-0.736 0.576-0.656 0.72-0.704 1.648-0.56 0.912 0.144 1.072 0.096 1.552-0.48 0.752-0.928 2.208-1.632 3.2-1.568 0.48 0.016 1.2-0.16 1.712-0.448 0.48-0.256 0.992-0.48 1.12-0.48s0.432-0.208 0.656-0.48c0.24-0.256 0.544-0.48 0.688-0.48 0.24 0 3.408-1.52 4.688-2.24 0.32-0.192 1.056-0.4 1.648-0.48 0.912-0.112 1.104-0.24 1.296-0.848 0.112-0.384 0.416-0.752 0.64-0.848s0.592-0.4 0.8-0.688c0.384-0.496 1.152-0.88 2.288-1.136 0.432-0.096 0.592-0.256 0.496-0.496s-0.048-0.304 0.192-0.24c0.16 0.064 0.848-0.384 1.536-1.040s1.52-1.248 1.856-1.328c0.8-0.192 2.224-1.392 2.688-2.32 0.432-0.928 0.688-1.104 1.488-1.104 0.688 0 1.024-0.352 0.624-0.608-0.192-0.112-0.176-0.24 0.064-0.432 0.192-0.144 0.464-0.496 0.624-0.784s0.624-0.64 1.2-0.784c0.496-0.144 1.072-0.448 1.248-0.656 0.944-1.088 1.696-2.288 1.696-2.688s0.112-0.448 0.72-0.304c0.576 0.144 0.816 0.048 1.344-0.48 0.368-0.352 0.768-0.592 0.96-0.512 0.416 0.144 1.104-0.256 1.104-0.64 0-0.192 0.16-0.384 0.336-0.48 0.192-0.064 0.464-0.4 0.576-0.736s0.576-0.832 1.024-1.088c0.496-0.304 0.96-0.88 1.248-1.52 0.224-0.56 0.64-1.088 0.864-1.152 0.24-0.096 0.8-0.64 1.2-1.232 0.416-0.592 1.28-1.488 1.92-2 2.352-1.936 3.44-3.056 3.504-3.664 0.016-0.352 0.384-0.944 0.816-1.376 0.416-0.4 1.248-1.328 1.808-2.032s1.552-1.568 2.176-1.888c0.944-0.512 1.12-0.736 1.152-1.296 0-0.4 0.144-0.944 0.288-1.248s0.272-0.656 0.24-0.832c-0.096-0.752 0.064-1.088 0.672-1.296 0.368-0.112 0.8-0.144 0.992-0.048s0.496 0.048 0.768-0.144c0.384-0.304 0.48-0.704 0.576-2.624l0.112-2.272 0.8-0.288c1.104-0.384 1.824-1.536 1.824-2.928 0-0.928 0.112-1.2 0.848-1.968 0.464-0.496 0.992-0.896 1.152-0.896 0.528 0 1.072-1.136 0.832-1.696-0.32-0.752 1.056-3.584 1.984-4.080 0.368-0.192 0.96-0.8 1.312-1.328 0.576-0.896 0.624-1.152 0.544-2.816-0.048-1.696-0.016-1.872 0.416-2 0.336-0.112 0.48-0.352 0.48-0.896 0-0.8 0.832-2.768 1.168-2.768 0.112 0 0.416-0.336 0.64-0.752 0.336-0.56 0.416-0.992 0.32-1.872-0.112-1.056-0.064-1.2 0.72-2.128l0.848-0.976-0.16-1.6c-0.144-1.328-0.096-1.744 0.288-2.512 0.256-0.512 0.672-1.136 0.944-1.376 0.304-0.288 0.48-0.736 0.48-1.232 0-0.432 0.112-1.056 0.256-1.44 0.144-0.352 0.224-1.52 0.224-2.528-0.016-1.44 0.048-1.968 0.336-2.288s0.336-0.688 0.224-1.6c-0.096-0.656-0.048-1.44 0.112-1.824s0.288-1.232 0.32-1.872c0.048-0.656 0.304-1.824 0.576-2.56 0.432-1.152 0.464-1.536 0.288-2.368-0.144-0.544-0.32-1.696-0.416-2.576l-0.16-1.568 0.768-0.4c0.624-0.336 0.72-0.48 0.576-1.024-0.192-0.88-0.144-3.52 0.144-4.224 0.144-0.448 0.24-3.088 0.224-6.576 0-1.248-0.368-2.912-0.768-3.456-0.336-0.48-0.416-0.8-0.288-1.488 0.112-0.608 0.288-0.848 0.48-0.752 0.416 0.16 0.416-0.336-0.016-1.968-0.192-0.752-0.288-1.696-0.192-2.32 0.112-0.896 0.064-1.088-0.368-1.392-0.576-0.432-0.624-1.44-0.144-3.472l0.32-1.376-0.8-0.976c-0.72-0.896-0.736-0.992-0.416-1.376 0.432-0.512 0.272-1.872-0.336-2.96-0.48-0.832-0.624-1.68-0.368-2.432 0.112-0.336 0.016-1.040-0.192-1.776-0.192-0.688-0.464-1.968-0.624-2.88s-0.336-1.744-0.432-1.888c-0.112-0.112-0.288-0.688-0.464-1.248-0.144-0.56-0.416-1.088-0.592-1.152s-0.32-0.432-0.32-0.88c0-0.4-0.256-1.584-0.576-2.624s-0.64-2.416-0.72-3.072c-0.064-0.64-0.416-1.648-0.736-2.24-1.168-2.144-1.424-2.832-1.296-3.376 0.112-0.4-0.096-0.784-0.768-1.536-0.912-0.992-1.168-1.744-0.72-2.064 0.416-0.256 0.24-0.976-0.464-1.968-0.432-0.64-0.864-0.992-1.2-1.008-0.432 0-0.464-0.048-0.144-0.256 0.288-0.208 0.24-0.48-0.528-2.064-0.48-0.976-0.864-2.016-0.864-2.288 0-0.512-1.808-2.464-2.288-2.464-0.272 0-1.6-2.768-1.6-3.36 0-0.208-0.288-0.64-0.624-0.944-0.832-0.736-1.44-1.936-1.44-2.768 0-0.704-0.864-2.016-1.984-2.976-0.464-0.384-0.8-0.928-0.896-1.424-0.096-0.544-0.416-1.008-0.912-1.424-0.432-0.352-0.72-0.704-0.656-0.832 0.192-0.352-1.312-2.432-1.984-2.688-0.336-0.144-0.624-0.384-0.624-0.56 0-0.448-0.8-1.968-1.344-2.576-0.288-0.288-0.48-0.608-0.48-0.704s-0.64-0.88-1.44-1.728c-0.768-0.848-1.904-2.096-2.496-2.784-0.592-0.656-1.232-1.232-1.44-1.232-0.176 0-0.336-0.096-0.336-0.24 0-0.112-0.688-0.896-1.52-1.696-0.832-0.832-1.648-1.792-1.824-2.144-0.24-0.496-0.48-0.656-0.8-0.56-0.368 0.096-0.48-0.016-0.592-0.592-0.096-0.48-0.336-0.784-0.736-0.944-1.28-0.512-1.632-0.752-1.632-1.056 0-0.48-4.512-5.36-5.168-5.568-0.496-0.192-1.152-0.704-2.56-2.128-0.304-0.288-0.832-0.688-1.2-0.88-0.688-0.384-2.256-2.128-2.704-3.008-0.192-0.352-0.64-0.592-1.472-0.784-1.392-0.304-3.152-1.296-3.152-1.776 0-0.4-0.528-0.704-1.6-0.928-1.232-0.24-4.512-2.512-4.8-3.36-0.24-0.656-1.152-0.784-1.6-0.208-0.416 0.496-0.768 0.448-1.328-0.24-0.288-0.336-0.736-0.592-1.024-0.592-0.336 0-0.672-0.208-0.848-0.56-0.288-0.56-1.44-1.136-2.912-1.44-0.384-0.064-0.848-0.304-1.008-0.496-0.384-0.496-1.472-1.040-1.984-1.040-0.256 0-0.72-0.352-1.024-0.784-0.464-0.608-0.848-0.848-1.824-1.088-0.688-0.144-1.472-0.496-1.712-0.752-0.368-0.336-0.752-0.448-1.472-0.4-0.816 0.064-1.008-0.016-1.2-0.448-0.288-0.688-1.072-1.008-2.032-0.848-0.528 0.064-1.024-0.016-1.552-0.304-0.464-0.256-1.248-0.448-1.936-0.448-0.912 0-1.312-0.144-1.904-0.64-0.768-0.688-1.376-0.8-2.080-0.432-0.288 0.16-0.48 0.144-0.688-0.112-0.16-0.192-0.384-0.352-0.528-0.352-0.112 0-0.736-0.304-1.344-0.704-1.296-0.832-1.776-0.88-2.352-0.24-0.848 0.976-2.656 0.288-3.168-1.248-0.192-0.592-0.768-0.752-1.44-0.4-0.48 0.288-0.624 0.256-1.072-0.192-0.48-0.48-0.72-0.496-2.912-0.4-1.328 0.048-2.688 0.16-3.024 0.256-0.432 0.096-0.864 0-1.472-0.4-0.8-0.496-1.056-0.512-5.808-0.544-3.296 0-5.264 0.096-5.92 0.288-0.688 0.208-1.296 0.24-2.176 0.064-0.768-0.144-2.064-0.144-3.6 0.016-4 0.384-5.472 0.448-8.832 0.448-3.6-0.016-5.6 0.256-6.656 0.944-0.528 0.336-1.056 0.432-2.064 0.384-1.152-0.048-1.472 0.048-2.112 0.544-0.768 0.592-2.176 0.736-3.616 0.384-0.496-0.144-0.576-0.096-0.464 0.288 0.096 0.288-0.096 0.656-0.544 1.104-0.672 0.656-0.736 0.688-1.712 0.4-1.424-0.4-1.52-0.384-2.656 0.432-0.8 0.56-1.248 0.704-2.208 0.704-0.864 0-1.392 0.144-1.808 0.48-0.368 0.304-0.768 0.4-1.168 0.336-0.336-0.064-0.912 0.016-1.312 0.24-0.368 0.208-0.768 0.384-0.912 0.384-0.112 0-0.736 0.256-1.344 0.592s-1.52 0.592-1.968 0.592c-0.768 0-1.68 0.288-4.112 1.344-0.848 0.352-1.872 1.488-2.16 2.336-0.16 0.512-1.632 1.568-3.296 2.336-0.832 0.352-1.12 0.4-1.68 0.192-0.624-0.24-0.688-0.208-1.008 0.384-0.16 0.352-0.96 1.040-1.792 1.536-0.8 0.496-2.24 1.68-3.168 2.624-1.6 1.6-1.808 1.744-2.96 1.888-1.2 0.16-1.28 0.208-3.072 2.272-1.472 1.68-2 2.128-2.624 2.224-1.648 0.288-1.824 0.384-2.224 1.008-0.592 0.928-2.304 2.688-3.504 3.552-1.824 1.328-2.928 2.512-3.408 3.584-0.496 1.2-2.112 2.832-2.784 2.832-0.288 0-0.576 0.24-0.72 0.656-0.464 1.056-2.128 2.64-2.832 2.64-0.592 0-0.624 0.048-0.48 0.848 0.144 0.752 0.064 0.928-0.752 1.776-0.736 0.784-1.008 0.928-1.488 0.784-0.672-0.16-0.688-0.112-0.384 0.656 0.176 0.496 0.096 0.64-0.576 1.104-0.528 0.384-0.832 0.8-0.912 1.344-0.096 0.512-0.384 1.008-0.832 1.344-0.368 0.288-1.296 1.104-2.032 1.792-1.104 1.040-1.344 1.424-1.296 1.888 0.064 0.64-0.16 0.704-1.072 0.384-0.32-0.112-0.368-0.096-0.144 0.064 0.384 0.288-0.096 1.328-0.544 1.136-0.384-0.144-0.576 0.352-0.576 1.536 0 0.832-0.096 0.944-0.912 1.392-0.496 0.256-0.912 0.56-0.912 0.656s-0.272 0.512-0.624 0.928c-0.96 1.136-1.68 2.416-1.424 2.544 0.416 0.288 0.16 0.976-0.72 1.984-0.768 0.848-0.96 0.976-1.264 0.736-0.224-0.208-0.336-0.208-0.336-0.016 0 0.144-0.112 0.256-0.224 0.256-0.432 0-1.376 1.232-1.376 1.792 0 0.64-0.464 1.744-0.72 1.744-0.080 0-0.24 0.352-0.32 0.784-0.096 0.4-0.224 0.8-0.32 0.88-0.32 0.256-0.72 1.2-0.72 1.696 0 0.304-0.096 0.656-0.192 0.784-0.224 0.352-1.12 0.832-1.536 0.832-0.48 0-0.432 0.4 0.112 0.704 0.592 0.336 0.592 1.232 0 1.776-0.24 0.24-0.464 0.592-0.464 0.784 0 0.16-0.192 0.608-0.432 0.944-0.224 0.352-0.496 0.992-0.592 1.424s-0.432 0.992-0.8 1.28c-0.96 0.736-1.28 1.68-0.816 2.368 0.192 0.288 0.368 0.848 0.368 1.248 0 0.752-0.752 2.24-1.152 2.24-0.144 0-0.416 0.384-0.624 0.832-0.24 0.496-0.528 0.8-0.736 0.784-0.288-0.048-0.384 0.208-0.48 1.184-0.064 0.704-0.048 1.328 0.064 1.392s0.096 0.24-0.016 0.384c-0.112 0.16-0.304 0.704-0.368 1.232-0.096 0.512-0.32 1.184-0.496 1.488-0.256 0.384-0.288 0.848-0.192 1.584 0.112 0.848 0.064 1.088-0.192 1.2-0.288 0.096-0.336 0.336-0.224 0.8 0.080 0.56 0.016 0.736-0.592 1.040-0.384 0.208-0.752 0.608-0.8 0.928-0.048 0.288-0.224 1.2-0.384 2.064s-0.24 2.080-0.24 2.736c0.048 0.928-0.064 1.376-0.432 1.84-0.48 0.64-0.48 0.688-0.112 1.472 0.48 1.056 0.464 1.44-0.096 1.632-0.896 0.288-1.152 0.8-1.152 2.32 0 0.8 0.112 1.84 0.256 2.288s0.288 2.48 0.32 4.496c0.048 2.016 0.192 4.048 0.32 4.496 0.256 0.848-0.016 3.12-0.496 4.208-0.192 0.448-0.192 0.704 0.144 1.28 0.288 0.48 0.336 0.976 0.256 1.568-0.064 0.48 0 1.68 0.144 2.64 0.688 4.416 0.624 5.904-0.272 5.904-0.24 0-0.416 0.112-0.416 0.24s0.144 0.24 0.288 0.24c0.192 0 0.496 0.208 0.72 0.48 0.384 0.448 0.384 0.512-0.32 1.888-0.752 1.44-0.768 2.192-0.144 2.464 0.192 0.064 0.432-0.064 0.576-0.336 0.272-0.512 0.912-0.64 0.912-0.16 0 0.16-0.16 0.512-0.336 0.784-0.464 0.64-0.416 1.344 0.112 2.048 0.496 0.64 0.592 1.232 0.224 1.472-0.288 0.16-0.288 1.296-0.048 1.696 0.080 0.144 0.464 0.352 0.8 0.432 0.416 0.112 0.624 0.336 0.624 0.64 0 0.4-0.112 0.48-0.688 0.384-0.688-0.112-0.768 0-0.688 0.88 0.064 0.608 1.312 3.008 1.776 3.36 0.256 0.192 0.288 0.48 0.192 0.896s-0.016 0.832 0.288 1.248c0.464 0.656 0.8 3.088 0.832 6 0.016 1.248 0.112 1.68 0.496 2.128 0.288 0.288 0.64 0.88 0.848 1.248 0.192 0.4 0.624 1.024 0.96 1.392 0.544 0.608 0.592 0.832 0.544 2.288-0.064 1.44-0.016 1.68 0.48 2.224 0.32 0.352 0.544 0.832 0.496 1.088s0.064 0.656 0.256 0.944c0.24 0.352 0.272 0.64 0.096 1.136-0.208 0.544-0.144 0.784 0.368 1.584 0.336 0.496 0.624 1.040 0.624 1.2s0.144 0.304 0.288 0.304c0.336 0 1.2 1.424 2 3.216 0.32 0.704 0.864 1.392 1.312 1.696 0.72 0.512 0.752 0.56 0.752 2.176 0 1.568 0.048 1.68 0.592 1.936 0.336 0.16 0.624 0.544 0.72 0.944 0.064 0.4 0.464 0.944 0.944 1.328s1.024 1.184 1.44 2.096c0.336 0.8 0.864 1.6 1.104 1.776 0.272 0.16 0.48 0.496 0.48 0.704 0 0.24 0.144 0.432 0.304 0.432 0.48 0 1.6 1.92 1.296 2.224-0.32 0.336-0.288 1.152 0.048 1.52 0.16 0.16 0.592 0.288 0.976 0.288 1.008 0 1.296 0.288 1.2 1.2-0.048 0.64 0.016 0.848 0.416 1.024 0.256 0.112 0.736 0.832 1.056 1.568 0.432 1.056 0.864 1.568 1.856 2.336 0.72 0.544 1.424 1.2 1.552 1.52 0.288 0.496 1.904 2.576 2.832 3.616 0.256 0.288 0.768 0.976 1.152 1.52s1.44 1.632 2.352 2.416c0.976 0.832 1.776 1.728 2 2.192 0.336 0.832 1.6 2.192 3.792 4.128 0.656 0.592 1.584 1.392 2.016 1.824s0.848 0.784 0.944 0.832c0.064 0.048 0.288 0.4 0.48 0.784 0.288 0.544 0.544 0.736 1.168 0.832 0.672 0.096 1.072 0.432 2.256 1.84 0.8 0.976 1.776 1.936 2.176 2.176s1.024 0.784 1.44 1.2c0.592 0.64 0.768 0.736 1.072 0.48s0.416-0.208 0.8 0.192c0.272 0.288 0.48 0.64 0.48 0.8 0 0.336 0.416 0.592 1.776 1.136 0.464 0.16 1.008 0.656 1.328 1.2 0.592 0.976 2.4 2.32 3.136 2.32 0.72 0 1.2 0.4 2.112 1.648 0.944 1.296 1.952 1.888 3.232 1.84 0.64-0.016 0.944 0.112 1.472 0.704 0.432 0.512 0.864 0.752 1.296 0.752 0.464 0 0.72 0.16 0.864 0.512 0.144 0.304 0.496 0.592 0.912 0.656 0.384 0.096 0.912 0.288 1.2 0.432s0.768 0.288 1.056 0.288c0.32 0 0.688 0.144 0.816 0.304 0.144 0.192 0.528 0.288 0.944 0.208 0.624-0.096 0.688-0.048 0.576 0.448s0.016 0.64 1.2 1.232c0.896 0.432 1.68 0.64 2.352 0.608 1.376-0.016 2.128 0.304 3.504 1.584 0.8 0.736 1.28 1.040 1.584 0.944 0.224-0.064 0.624-0.208 0.864-0.288 0.32-0.112 0.688 0.112 1.344 0.8 0.496 0.512 1.12 1.024 1.392 1.104 0.256 0.064 0.464 0.24 0.464 0.336s0.848 0.192 1.904 0.16c1.024-0.016 2.256 0.096 2.768 0.256 0.48 0.16 1.12 0.304 1.392 0.304s0.64 0.16 0.8 0.352c0.192 0.208 0.672 0.352 1.28 0.352 0.848 0 1.056 0.112 1.584 0.832l0.624 0.8h2.72c1.52 0 2.832 0.064 2.928 0.144 0.112 0.048 0.464-0.096 0.768-0.352 0.736-0.592 0.832-0.592 1.072 0.096 0.192 0.512 0.336 0.592 1.872 0.656 0.912 0.048 2.544 0 3.616-0.112 4.080-0.4 4.88-0.4 5.808 0.096 0.8 0.432 1.024 0.448 3.088 0.192 3.296-0.4 5.632-0.352 6.112 0.144 0.288 0.256 0.576 0.352 0.992 0.24 0.32-0.064 1.536-0.256 2.656-0.384zM108.464 312.656c-0.048-0.144-0.192-0.24-0.304-0.24s-0.24 0.096-0.288 0.24c-0.048 0.144 0.096 0.256 0.288 0.256s0.336-0.112 0.304-0.256zM401.488 270.96c0-0.192-0.096-0.336-0.224-0.336-0.112 0-0.224 0.208-0.224 0.496 0 0.256 0.112 0.4 0.224 0.336s0.224-0.304 0.224-0.496zM114.688 190.88c0-0.304-0.096-0.336-0.464-0.112-0.256 0.144-0.464 0.304-0.464 0.352s0.208 0.112 0.464 0.112 0.464-0.16 0.464-0.352z"></path>
<path fill="#fff" d="M257.968 353.2c-0.528-0.56-0.64-0.592-2.208-0.448-1.632 0.144-1.664 0.144-1.536-0.352 0.16-0.64-0.224-0.64-1.776-0.016-1.536 0.592-4.288 0.448-6.16-0.336-0.976-0.432-1.424-0.496-2.032-0.304-0.496 0.112-0.976 0.112-1.328-0.048-0.768-0.384-8.976-0.288-10.224 0.096-0.544 0.16-1.056 0.256-1.12 0.192-0.096-0.096-0.496-0.144-2.256-0.288-0.064-0.016-0.256-0.288-0.384-0.608s-0.416-0.592-0.592-0.592c-0.192 0-0.912-0.304-1.632-0.704s-1.584-0.704-1.904-0.704c-0.368 0-0.768-0.24-1.072-0.592s-0.896-0.688-1.6-0.848c-1.2-0.288-1.392-0.352-3.12-1.136-1.2-0.544-1.28-0.64-2.144-2.288l-0.624-1.232 0.496-0.704c0.688-0.944 0.576-2.032-0.224-2.128-1.584-0.192-1.488 0.048-1.536-3.376-0.048-2.336-0.144-3.232-0.416-3.664-0.192-0.304-0.336-0.848-0.336-1.232s-0.24-0.944-0.576-1.328c-0.32-0.352-0.576-0.8-0.576-0.992s-0.256-0.736-0.544-1.232c-0.32-0.48-0.624-1.152-0.72-1.536-0.096-0.352-0.256-0.704-0.368-0.784s-0.208-0.304-0.208-0.544c0-0.24-0.144-0.56-0.336-0.736s-0.336-0.48-0.336-0.704c0-0.24-0.272-0.592-0.592-0.832-0.336-0.208-0.912-0.752-1.28-1.2s-0.8-0.8-0.96-0.8c-0.32 0-1.056-0.848-1.056-1.248-0.016-0.56-0.624-1.088-1.856-1.568-0.688-0.288-1.52-0.496-1.824-0.496-0.336 0-0.736-0.16-0.896-0.352s-0.672-0.352-1.12-0.352c-0.48 0-1.28-0.208-1.776-0.48s-1.376-0.544-1.92-0.608c-1.056-0.16-2.256-0.736-3.632-1.68-0.432-0.304-1.024-0.544-1.312-0.544s-0.768-0.336-1.152-0.784c-0.336-0.432-1.008-1.024-1.44-1.328s-1.072-0.992-1.392-1.568c-0.496-0.8-0.768-1.040-1.648-1.28-0.768-0.192-1.136-0.448-1.392-0.928-0.192-0.352-0.544-0.848-0.832-1.104-0.288-0.288-0.464-0.688-0.416-1.056 0.048-0.56-0.48-2.128-0.72-2.128-0.064 0-0.416-0.24-0.768-0.544-0.656-0.512-0.944-1.344-1.2-3.552-0.064-0.496-0.192-1.088-0.336-1.344-0.112-0.24-0.224-0.832-0.224-1.328 0-1.104-0.624-4.464-1.024-5.536-0.16-0.448-0.432-1.424-0.576-2.128-0.368-1.68-0.72-2.288-1.744-2.72-0.72-0.304-0.8-0.432-0.72-1.184 0.048-0.704-0.096-1.040-0.848-1.92-0.48-0.592-1.264-1.28-1.744-1.52-0.864-0.48-0.96-0.688-1.264-2.72-0.16-1.136-1.072-2.96-1.488-2.96-0.32 0-0.256-1.136 0.064-1.232 0.192-0.064 0.192-0.256-0.064-0.688-0.496-0.784-0.96-2.928-0.832-3.728 0.096-0.4 0-0.848-0.176-1.104s-0.336-0.656-0.336-0.928c0-0.288-0.112-0.608-0.288-0.784-0.368-0.384-0.72-3.808-0.752-7.728-0.048-1.824-0.144-3.616-0.224-4-0.112-0.448-0.048-1.136 0.192-1.968 0.224-0.704 0.336-1.344 0.288-1.424s0.016-0.432 0.192-0.8c0.192-0.352 0.336-1.008 0.336-1.424 0-0.56 0.256-1.088 0.912-1.888 0.496-0.608 0.912-1.376 0.912-1.68s0.192-0.848 0.464-1.248c0.768-1.184 0.848-1.376 1.584-2.88l0.72-1.488v-4.176c-0.016-4.352 0.048-5.040 0.592-5.040 0.48 0 0.384-0.432-0.112-0.592-0.624-0.192-0.688-0.512-0.432-2.368 0.112-0.928 0.256-2.288 0.288-3.072s0.144-1.68 0.272-2.016c0.144-0.384 0.192-1.84 0.064-4.016-0.16-3.664-0.144-3.68 1.072-5.408 0.496-0.752 0.544-0.944 0.416-2.624-0.112-1.424-0.064-1.968 0.224-2.544 0.288-0.608 0.368-1.248 0.288-3.36-0.112-2.576-0.096-2.624 0.432-2.832 0.496-0.192 0.496-0.288 0.336-1.2-0.16-0.656-0.144-1.232 0-1.6 0.288-0.784 0.416-2.32 0.176-2.528-0.368-0.4-0.112-1.488 0.672-2.688 1.104-1.696 1.744-3.024 1.92-3.904 0.096-0.512 0.384-0.848 1.024-1.2 0.624-0.304 0.976-0.704 1.12-1.184 0.288-1.088 2.24-5.056 2.448-5.056 0.112 0 0.192-0.16 0.192-0.352s0.192-0.352 0.464-0.352c0.48 0 0.912-0.64 0.912-1.392 0-0.336 0.144-0.496 0.464-0.496 0.224 0 0.624-0.288 0.848-0.64 0.544-0.832 2.32-2.592 3.12-3.088 0.336-0.208 0.656-0.56 0.72-0.784 0.064-0.192 0.384-0.512 0.688-0.688 0.336-0.16 0.576-0.4 0.576-0.512 0-0.384 0.864-1.184 1.12-1.008 0.288 0.192 1.552-1.152 1.952-2.080 0.256-0.592 0.32-0.608 0.592-0.304 0.384 0.512 1.072 0.48 1.264-0.064 0.064-0.24 0.288-0.608 0.528-0.8 0.368-0.352 0.48-0.352 1.072-0.016 0.592 0.304 0.688 0.304 1.2-0.192 0.288-0.304 1.008-1.2 1.584-2.016l1.024-1.488h1.552c1.552 0 1.584 0 2.304-0.928 0.8-1.040 1.632-1.344 2.608-0.976 0.528 0.208 0.736 0.16 1.12-0.192 0.272-0.24 0.72-0.56 1.056-0.704s0.736-0.384 0.912-0.512c0.176-0.128 0.72-0.4 1.2-0.608s1.056-0.656 1.264-1.040c0.464-0.832 0.816-0.944 2.96-0.944h1.632l0.72-1.056c0.752-1.136 0.768-1.152 2.176-1.088 0.656 0.048 1.12-0.096 1.552-0.48 0.544-0.432 0.816-0.48 1.824-0.352 2.88 0.4 3.184 0.432 3.872 0.112 0.416-0.16 1.104-0.288 1.552-0.24 0.432 0.016 1.536-0.208 2.4-0.512 2.4-0.88 3.984-1.2 5.376-1.136 0.768 0.016 1.424-0.064 1.696-0.288 0.288-0.208 0.72-0.256 1.472-0.16 1.264 0.208 3.552-0.048 3.984-0.432 0.224-0.192 0.976-0.208 2.4-0.144 1.392 0.096 2.256 0.048 2.592-0.144 0.64-0.352 4.832-0.352 5.040 0 0.096 0.144 0.72 0.256 1.392 0.256 2.608-0.016 7.024 0.4 8.4 0.8 1.184 0.336 1.552 0.352 2.112 0.112 0.496-0.208 0.848-0.24 1.328-0.048 0.336 0.144 1.232 0.384 1.968 0.512 0.768 0.112 1.536 0.4 1.744 0.592 0.496 0.48 2.72 1.056 3.952 1.056 0.544 0 1.168 0.144 1.424 0.336 0.256 0.16 1.024 0.384 1.728 0.448 2.592 0.304 3.728 0.56 3.984 0.928 0.288 0.432 2.832 1.52 4.096 1.744 0.544 0.096 0.944 0.336 1.104 0.656 0.464 0.928 2.4 2.624 2.928 2.544 0.272-0.048 0.72 0.112 1.056 0.384s0.944 0.544 1.376 0.608c0.464 0.096 0.864 0.304 0.944 0.496 0.064 0.16 0.528 0.592 1.024 0.944s1.024 0.88 1.168 1.184c0.144 0.304 0.48 0.608 0.768 0.688 0.288 0.096 0.544 0.256 0.544 0.432 0 0.144 0.192 0.064 0.464-0.16 0.416-0.4 0.48-0.4 1.024-0.016 0.32 0.208 0.576 0.512 0.576 0.688 0 0.144 0.528 0.656 1.168 1.104s1.392 1.040 1.648 1.328c0.768 0.784 3.408 3.68 4.256 4.704 0.688 0.848 0.768 0.896 1.056 0.512 0.32-0.48 0.576-0.512 0.576-0.096 0 0.144 0.272 0.448 0.624 0.656 0.688 0.4 1.12 1.488 1.392 3.408 0.288 2.176 1.472 3.664 2.864 3.664 0.624 0 0.8 0.144 1.152 0.848 0.192 0.496 0.64 1.088 0.96 1.328 0.432 0.384 0.544 0.656 0.544 1.6 0 0.992 0.112 1.28 0.816 2.064 0.992 1.056 1.776 2.736 1.584 3.36-0.064 0.288 0.064 0.688 0.416 1.104 0.72 0.88 1.296 2.080 1.296 2.624 0 0.256 0.416 0.88 0.944 1.376 0.896 0.928 1.856 2.688 1.824 3.424 0 0.192-0.064 0.976-0.144 1.696-0.112 1.248-0.064 1.376 0.544 1.888l0.656 0.544-0.192 5.2c-0.112 2.864-0.144 5.36-0.064 5.552 0.096 0.192 0.192 1.984 0.224 4 0.048 3.376 0.096 3.68 0.592 4.368 0.416 0.592 0.544 1.104 0.592 2.576 0.064 1.184 0 1.824-0.16 1.824-0.32 0-0.144 1.872 0.288 2.928 0.192 0.448 0.288 0.88 0.192 0.928-0.048 0.064-0.144 1.328-0.192 2.784-0.096 2.384-0.048 2.768 0.416 3.728 0.288 0.608 0.544 1.696 0.592 2.512 0.048 0.784 0.192 1.536 0.288 1.68s0.144 0.448 0.064 0.688c-0.112 0.288 0.096 0.64 0.72 1.232 1.28 1.2 1.936 2.336 2.112 3.552 0.144 1.008 0.32 1.296 1.296 2.144 0.256 0.208 0.368 0.704 0.368 1.584 0 0.688 0.112 1.552 0.24 1.936 0.32 0.88 0.416 4.768 0.144 5.456-0.144 0.288-0.416 0.512-0.672 0.512s-0.416 0.064-0.432 0.192c0 0.096-0.048 0.928-0.064 1.824-0.016 0.928-0.304 2.688-0.576 3.968-0.432 1.872-0.624 2.288-0.96 2.288-0.224 0-0.48-0.112-0.576-0.256s-0.368 0.064-0.688 0.608c-0.416 0.736-0.464 0.992-0.288 1.44 0.528 1.184-0.496 3.92-1.488 4.016-0.144 0-0.432 0.048-0.624 0.048-0.192 0.016-0.528 0.336-0.72 0.656-0.32 0.544-0.336 0.752-0.064 1.696 0.496 1.696 0.256 2.432-1.28 3.728-0.8 0.688-1.376 1.376-1.44 1.744-0.064 0.336-0.224 0.992-0.368 1.488-0.592 2.096-0.688 2.64-0.48 2.864 0.336 0.352 0.288 0.48-0.528 0.928-0.432 0.24-1.072 0.896-1.424 1.488-0.336 0.56-0.768 1.152-0.944 1.296-0.192 0.144-0.336 0.608-0.336 1.040s-0.144 1.152-0.336 1.632c-0.256 0.608-0.32 1.232-0.192 2.048 0.112 0.88 0.064 1.248-0.144 1.392-0.176 0.112-0.32 0.688-0.336 1.344-0.016 0.896-0.192 1.424-0.864 2.432-0.48 0.704-0.912 1.568-1.008 1.84-0.096 0.384-0.464 0.704-1.12 1.024-0.944 0.4-1.008 0.496-1.008 1.376 0 0.512-0.112 1.2-0.256 1.536-0.24 0.544-0.368 0.592-1.2 0.48-0.8-0.112-1.008-0.048-1.488 0.48-0.32 0.336-0.688 0.608-0.832 0.608s-0.496 0.208-0.8 0.48c-0.32 0.288-0.848 0.48-1.392 0.48-0.96 0-2.56 0.752-3.024 1.424-0.544 0.784-1.248 0.992-1.968 0.592-0.848-0.432-2.976-0.48-3.088-0.048-0.064 0.144-0.16 0.56-0.224 0.944-0.144 0.592-0.224 0.64-1.296 0.64-0.688 0-1.488 0.192-2.032 0.48-0.496 0.256-1.024 0.48-1.216 0.48-0.336 0-2.208 1.744-2.208 2.096 0 0.112-0.288 0.256-0.624 0.304-0.544 0.064-0.72 0.288-1.232 1.84-0.336 0.976-0.64 1.968-0.64 2.224s-0.624 1.152-1.392 2.080c-0.752 0.896-1.376 1.84-1.376 2.080s-0.192 0.896-0.48 1.424c-0.432 0.832-0.464 1.104-0.256 2.288 0.144 0.88 0.144 1.536 0 1.792-0.112 0.24-0.192 1.296-0.16 2.384s-0.016 2.096-0.112 2.24c-0.096 0.144-0.048 0.256 0.064 0.256 0.336 0 0.32 2.272-0.016 2.912-0.256 0.496-0.576 2.416-0.72 4.496-0.048 0.592-0.256 1.088-0.72 1.536-0.336 0.352-0.848 1.024-1.12 1.472s-0.896 1.024-1.344 1.248c-0.464 0.24-1.248 0.848-1.776 1.344-0.736 0.736-1.12 0.944-1.744 0.944-0.544 0-0.8 0.112-0.8 0.336 0 0.976-1.376 1.376-2.688 0.8-0.752-0.336-0.72-0.336-5.232-0.56-3.392-0.16-3.456-0.16-3.936 0.384-0.336 0.384-0.64 0.496-1.072 0.432-0.32-0.064-1.28-0.016-2.128 0.096s-2.016 0.192-2.592 0.192c-0.688-0.016-1.2 0.144-1.6 0.432-0.96 0.784-1.44 0.832-2.032 0.16zM247.36 318.64c0.592-0.4 1.248-0.944 1.408-1.232 0.432-0.736 1.52-0.64 2.112 0.208 0.432 0.64 0.576 0.704 1.744 0.656 0.96-0.048 1.344 0.048 1.552 0.352 0.224 0.336 0.688 0.384 2.976 0.336 2.432-0.016 2.72-0.064 2.928-0.496 0.144-0.256 0.464-0.704 0.736-1.024 0.416-0.48 0.496-0.976 0.64-3.552 0.064-1.648 0.192-4.272 0.288-5.84l0.16-2.832-0.688-0.688c-0.384-0.352-0.624-0.832-0.576-0.992 0.16-0.48-0.496-1.44-1.28-1.872-0.64-0.336-0.912-1.056-1.072-2.72 0-0.192-0.048-0.48-0.064-0.64s-0.256-0.304-0.528-0.352c-0.464-0.064-0.544-0.24-0.64-1.488-0.096-0.88-0.336-1.744-0.672-2.288-0.272-0.496-0.48-1.024-0.416-1.184s-0.048-0.656-0.192-1.104c-0.192-0.432-0.32-1.040-0.32-1.328 0-0.432-0.192-0.608-0.832-0.832-0.464-0.16-0.912-0.512-1.056-0.832-0.32-0.752-0.832-0.928-1.472-0.48-0.384 0.256-1.168 0.384-2.736 0.384-1.856 0-2.336 0.096-3.232 0.592-0.576 0.304-1.296 0.56-1.632 0.56-0.288 0-1.056 0.384-1.632 0.832-1.28 0.944-1.792 2.176-1.52 3.584 0.24 1.376 0.192 2.032-0.24 2.336-0.24 0.192-0.368 0.56-0.336 1.088 0.016 0.432 0.048 1.28 0.016 1.92-0.016 0.928-0.096 1.104-0.464 1.104-0.592 0-0.736 0.544-0.672 2.736 0.064 1.648 0 1.968-0.48 2.624-0.496 0.688-0.528 0.896-0.432 2.832 0.064 1.248 0 2.96-0.192 4.256-0.192 1.184-0.288 2.672-0.256 3.28 0.064 1.056 0.112 1.136 0.864 1.344 0.432 0.112 0.912 0.304 1.056 0.432 0.576 0.496 2.976 1.040 4.464 1.024 1.328-0.016 1.712-0.144 2.656-0.752zM221.024 288.016c1.072-0.16 2.064-0.432 2.192-0.56 0.336-0.352 1.68-0.384 2.256-0.048 0.368 0.192 0.624 0.016 1.632-0.944 0.672-0.64 1.28-1.184 1.392-1.184 0.384 0 1.104-0.976 1.104-1.536 0-0.432 0.192-0.688 0.864-1.040 0.464-0.24 1.12-0.752 1.472-1.136 0.8-0.88 1.632-3.056 1.488-3.968-0.048-0.384-0.016-0.944 0.096-1.248s0.176-1.392 0.176-2.48c0-1.056 0.016-2.528 0.016-3.264 0.016-1.328 0-1.344-0.944-2-0.528-0.384-1.376-1.088-1.872-1.568-0.528-0.496-1.008-0.896-1.072-0.896-0.080 0-0.32-0.384-0.528-0.832-0.256-0.544-0.592-0.88-1.008-0.976-0.336-0.096-0.736-0.24-0.864-0.336-0.112-0.096-0.592-0.24-1.024-0.304-1.2-0.192-2.448-0.736-3.168-1.392-0.336-0.336-0.96-0.704-1.376-0.848s-1.072-0.544-1.472-0.88c-0.576-0.496-0.912-0.592-2.128-0.592-0.848 0-1.584-0.112-1.76-0.288-1.488-1.472-2.704-1.824-7.024-1.968l-2.4-0.096-1.024 0.976c-0.576 0.544-1.232 1.28-1.472 1.648s-0.64 0.656-0.912 0.656c-0.72 0-2 1.104-1.968 1.728 0 0.288-0.096 1.2-0.24 2.032-0.24 1.424-0.48 5.36-0.432 6.992 0.016 1.344 0.016 1.888-0.112 4.896l-0.112 3.008 0.672 0.752c0.384 0.4 0.688 0.976 0.688 1.248 0 0.656 0.912 1.584 1.68 1.648 0.32 0.048 0.912 0.352 1.296 0.704s0.8 0.608 0.912 0.608c0.112 0 0.288 0.304 0.416 0.688 0.368 1.088 3.088 2.288 4.56 2 0.416-0.064 1.168 0 1.712 0.208 1.488 0.544 3.68 0.896 4.464 0.736 0.416-0.096 0.768-0.016 0.864 0.112 0.096 0.16 0.368 0.208 0.624 0.112 0.256-0.064 1.344-0.256 2.384-0.432zM284.752 287.472c2.112 0.096 5.744 0 6.976-0.208 0.768-0.112 1.824-0.16 2.384-0.064 1.632 0.208 3.136-0.704 5.856-3.616l2.288-2.432 0.016-3.552c0.016-1.984 0.144-3.824 0.288-4.208 0.144-0.352 0.336-1.648 0.416-2.88 0.144-2.336-0.24-4.464-0.944-5.072-0.176-0.144-0.384-0.784-0.48-1.376s-0.272-1.344-0.416-1.6c-0.336-0.688-1.664-2.224-1.92-2.224-0.112 0-0.432-0.288-0.768-0.608-0.288-0.336-1.2-0.944-2.032-1.344-1.488-0.752-1.488-0.752-4.128-0.592-1.44 0.064-2.8 0.048-2.992-0.048-0.192-0.112-1.008-0.208-1.776-0.192-1.104 0.016-1.472 0.112-1.584 0.4-0.192 0.544-0.528 0.736-1.328 0.736-0.384 0-1.104 0.16-1.584 0.352s-1.008 0.304-1.216 0.256c-0.224-0.064-0.848-0.048-1.424 0.048-0.992 0.16-1.024 0.208-1.024 0.992 0 0.656-0.112 0.88-0.64 1.136-0.336 0.16-0.8 0.592-1.008 0.928-0.336 0.544-0.464 0.56-1.584 0.432-1.28-0.16-1.472-0.048-2.448 1.392-0.224 0.336-0.688 0.688-1.024 0.752-0.336 0.096-1.12 0.688-1.712 1.296-0.944 0.992-1.104 1.296-1.216 2.336-0.048 0.656-0.192 1.44-0.288 1.744-0.112 0.288-0.176 1.792-0.144 3.328 0.064 2.176 0.016 2.912-0.256 3.312-0.432 0.688-0.24 1.536 0.624 2.976 0.368 0.592 0.656 1.328 0.656 1.6 0 0.608 2.064 2.816 3.216 3.456 1.184 0.64 1.248 0.656 1.92 1.152 0.336 0.24 1.424 0.688 2.384 0.992 1.44 0.448 2.16 0.512 3.936 0.448 1.2-0.048 2.544-0.064 2.976-0.048z"></path>
<path fill="#fff" d="M259.392 303.888c-0.32-0.336-0.368-1.136-0.064-1.136 0.144 0 0.384 0.24 0.576 0.512 0.496 0.736 0.096 1.232-0.496 0.608z"></path>
<path fill="#fff" d="M133.456 282.032c0-0.112 0.112-0.352 0.224-0.544 0.192-0.288 0.224-0.256 0.224 0.192 0 0.288-0.096 0.512-0.224 0.512-0.112 0-0.224-0.064-0.224-0.16z"></path>
<path fill="#fff" d="M230.96 441.92c0-0.512 0.016-0.544 0.544-0.336 0.288 0.112 0.32 0.208 0.112 0.48-0.368 0.48-0.672 0.4-0.672-0.144z"></path>
<path fill="#fff" d="M495.488 300.72c-0.096-0.096-0.16-0.48-0.16-0.848 0-0.832 0.528-0.8 0.64 0.016 0.096 0.592-0.224 1.088-0.48 0.832z"></path>
<path fill="#fff" d="M466 278.608c0.192-0.208 0.336-0.208 0.544 0s0.144 0.288-0.288 0.288c-0.432 0-0.48-0.064-0.288-0.288z"></path>
<path fill="#fff" d="M438.576 237.92c0-0.192 0.112-0.432 0.224-0.496s0.224 0.064 0.224 0.336c0 0.272-0.096 0.496-0.224 0.496-0.112 0-0.224-0.144-0.224-0.336z"></path>
<path fill="#fff" d="M143.872 108.544c-0.064-0.112 0.064-0.24 0.32-0.24s0.48 0.112 0.48 0.24c0 0.144-0.144 0.24-0.32 0.24s-0.416-0.096-0.48-0.24z"></path>
<path fill="#fff" d="M291.456 9.648c-0.192-0.448-0.544-0.88-0.768-0.944-0.592-0.192-1.328-1.824-1.12-2.432s0.528-0.656 0.944-0.144c1.024 1.296 1.104 1.344 1.552 0.928 0.288-0.256 0.464-0.304 0.576-0.144 0.064 0.144 0.336 0.384 0.592 0.496 0.384 0.24 0.48 0.16 0.688-0.448 0.256-0.736 0.8-0.944 1.248-0.512 0.112 0.112 0.592 0.336 1.072 0.496 0.688 0.208 0.848 0.384 0.848 0.848 0 0.592-0.048 0.592-1.536 0.544l-1.536-0.048-0.16 0.736c-0.192 1.040-0.592 1.472-1.376 1.472-0.544 0-0.752-0.16-1.056-0.832z"></path>
<path fill="#fff" d="M291.408 4.736c-0.224-0.304-0.224-0.448 0.144-0.8 1.024-1.088 1.2-1.136 1.776-0.544 0.672 0.64 0.736 1.376 0.192 1.584-0.256 0.096-0.48-0.016-0.72-0.352l-0.32-0.512-0.384 0.496c-0.336 0.448-0.416 0.448-0.688 0.144z"></path>
</svg>
