<!-- Generated by IcoMoon.io -->
<svg version="1.1" xmlns="http://www.w3.org/2000/svg" width="496" height="512" viewBox="0 0 496 512">
<title>grand-alliance-chaos</title>
<path fill="#fff" d="M234.24 511.456c-0.256-0.272-0.64-0.64-0.832-0.8-0.256-0.208-0.352-0.672-0.352-1.76 0-1.632-0.192-2.144-1.056-2.928-0.48-0.432-0.576-0.672-0.528-1.584 0.016-0.592-0.064-1.536-0.192-2.112-0.128-0.592-0.32-1.92-0.432-2.96s-0.352-2.176-0.528-2.496c-0.528-1.024-0.8-2.688-0.64-4.192 0.096-0.976 0.064-1.488-0.112-1.584-0.128-0.096-0.256-0.368-0.256-0.64 0-0.256-0.352-0.816-0.768-1.248s-0.768-0.992-0.768-1.216c0-0.256-0.256-0.544-0.544-0.704-0.304-0.144-0.544-0.384-0.544-0.544s-0.208-0.496-0.464-0.72c-0.432-0.432-0.432-0.544-0.192-3.232 0.128-1.536 0.352-3.104 0.48-3.44 0.304-0.832-0.048-2.080-0.912-3.216-0.512-0.656-0.656-1.088-0.656-1.856 0-0.864-0.112-1.136-0.832-1.84-1.072-1.072-1.232-1.52-0.784-2.192 0.304-0.496 0.32-0.768 0.096-2.080-0.128-0.864-0.32-2.032-0.368-2.672-0.064-0.608-0.256-1.344-0.432-1.632-0.192-0.32-0.256-0.752-0.176-1.152 0.112-0.592 0.064-0.672-0.432-0.816-0.32-0.096-0.656-0.096-0.768-0.016-0.288 0.176-0.512-0.864-0.368-1.76 0.048-0.384-0.048-1.184-0.208-1.744s-0.304-1.344-0.304-1.728c0-0.4-0.176-0.864-0.464-1.104-0.352-0.368-0.416-0.592-0.304-1.312s0.064-0.976-0.368-1.472c-0.304-0.336-0.72-1.088-0.912-1.68-0.32-0.928-0.352-1.376-0.16-3.376 0.224-2.448 0.176-2.816-0.464-3.44-0.256-0.256-0.368-0.592-0.288-0.832 0.16-0.528-0.464-1.808-0.848-1.808-0.48 0-0.576-0.592-0.256-1.296 0.256-0.528 0.256-0.944 0.064-2.224-0.192-1.312-0.368-1.728-0.96-2.384-0.576-0.64-0.736-0.992-0.736-1.68s-0.16-1.024-0.768-1.648c-0.736-0.768-0.768-0.832-0.768-2.576 0-1.184-0.112-2.032-0.32-2.464-0.32-0.608-0.32-0.912 0.016-2.88 0.384-2.448 0.544-2.784 1.312-2.784 0.528 0 0.528 0.016 0.208 0.672-0.176 0.368-0.336 0.72-0.336 0.8s0.64 0.064 1.424 0c1.2-0.096 1.584-0.048 2.576 0.448 0.896 0.448 1.472 0.56 2.832 0.56 2.832 0 3.904-0.8 3.904-2.848 0-0.608 0.16-1.488 0.32-1.952 0.432-1.072 0.432-2.176 0.016-2.672-0.528-0.608-0.528-6.48 0-9.056 0.176-0.816 0.416-1.968 0.528-2.608 0.128-0.608 0.224-1.76 0.192-2.56-0.048-1.152 0-1.488 0.32-1.728 0.32-0.272 0.32-0.336 0.048-0.592-0.176-0.16-0.32-0.48-0.32-0.704 0-0.816-1.056-2.816-1.792-3.392-0.416-0.32-1.072-0.656-1.472-0.72-0.656-0.144-1.936-0.912-2.32-1.408-0.128-0.208-0.096-1.904 0.112-3.664 0.048-0.288 0.208-0.528 0.384-0.544s0.624-0.048 0.992-0.048c0.576-0.048 0.656-0.144 0.656-0.656-0.016-0.544 0.064-0.64 0.544-0.64 0.32 0 0.688 0.112 0.832 0.272 0.176 0.176 0.256 0.176 0.256 0.016s0.32-0.368 0.656-0.496c0.384-0.144 0.736-0.48 0.88-0.816 0.256-0.704 0.256-2.736 0.016-3.392-0.112-0.256-0.112-0.704 0-1.024s0.208-1.152 0.272-1.872c0.080-1.296 0.080-1.312-0.992-2.416-0.576-0.608-1.056-1.248-1.056-1.456s-0.16-0.272-0.416-0.208c-0.208 0.064-0.48 0-0.544-0.144-0.080-0.144-0.384-0.256-0.688-0.256-0.384 0-0.576-0.16-0.688-0.56-0.096-0.368-0.368-0.64-0.88-0.8-0.592-0.208-0.736-0.384-0.736-0.832 0-0.368-0.288-0.816-0.768-1.264-0.416-0.384-0.768-0.832-0.768-0.992s-0.096-0.288-0.224-0.288c-0.112 0-0.256-0.368-0.352-0.8-0.288-1.616 0.912-3.216 2.224-2.944 0.592 0.112 0.832 0 1.568-0.672 0.464-0.432 0.896-0.8 0.96-0.8 0.272 0 0.592-1.216 0.624-2.272 0.016-0.912-0.064-1.136-0.848-2-0.48-0.528-0.88-1.040-0.88-1.152s-0.256-0.368-0.528-0.56c-0.48-0.32-0.592-0.32-1.232 0-0.432 0.256-0.96 0.32-1.488 0.224-1.648-0.272-4.224-0.4-5.136-0.272-0.704 0.112-1.008 0.288-1.168 0.656-0.176 0.384-0.432 0.528-1.152 0.56-0.848 0.064-0.992 0.16-1.488 1.072-0.32 0.544-0.896 1.184-1.296 1.424-0.704 0.432-1.232 0.88-2.496 2.112-0.32 0.32-0.768 0.64-0.96 0.72-0.224 0.064-0.48 0.56-0.64 1.184-0.224 0.912-0.32 1.024-0.88 1.024-0.384 0-0.64 0.112-0.64 0.288 0 0.4-2.496 2.88-2.896 2.88-0.16 0-0.992 0.72-1.808 1.616-0.848 0.88-1.904 1.856-2.368 2.144-0.464 0.32-0.912 0.8-1.040 1.088s-0.304 0.608-0.416 0.704c-0.128 0.064-0.256 0.384-0.256 0.672s-0.176 0.672-0.368 0.832c-0.736 0.56-1.376 1.744-1.376 2.512 0 0.672-0.096 0.8-0.64 0.912-0.416 0.096-0.704 0.32-0.8 0.656-0.24 0.768-0.784 1.344-1.2 1.2-0.256-0.096-0.48 0.176-0.832 0.912-0.32 0.656-0.704 1.104-1.072 1.264-0.704 0.272-2.432 2.128-3.488 3.712-0.576 0.864-0.944 1.184-1.68 1.408-0.992 0.288-1.424 0.112-2.544-1.136l-0.528-0.56 0.368-1.792c0.208-1.024 0.384-3.088 0.432-4.896 0.048-2.144 0.192-3.472 0.432-4.256 0.224-0.64 0.336-1.472 0.272-1.872-0.128-0.832-0.016-1.088 0.688-1.472 0.272-0.16 0.48-0.48 0.48-0.816 0-0.288 0.24-0.832 0.544-1.2 0.512-0.64 0.544-0.864 0.544-2.96 0-2.192 0.32-4.624 0.992-7.312 0.176-0.72 0.32-1.76 0.32-2.336 0-0.704 0.112-1.072 0.32-1.152 0.176-0.064 0.368-0.368 0.464-0.608 0.080-0.272 0.464-0.944 0.832-1.52 0.576-0.88 0.688-1.296 0.8-2.944 0.096-1.072 0.256-2.176 0.368-2.496 0.512-1.216 0.736-3.232 0.432-4.080-0.416-1.2-0.544-1.36-1.36-1.36-0.576 0-0.736-0.112-0.832-0.528-0.112-0.384-0.464-0.608-1.744-1.024-0.88-0.272-1.936-0.496-2.32-0.496-0.544 0-0.768-0.144-0.96-0.56-0.304-0.672-0.416-0.704-0.784-0.112-0.224 0.368-0.512 0.448-1.536 0.448-1.232 0-1.264 0.016-2.016 1.072-1.28 1.76-3.104 3.472-3.712 3.472-0.368 0-0.96 0.448-2 1.536-0.784 0.832-1.632 1.808-1.856 2.176-0.8 1.216-1.6 1.92-2.464 2.144-0.576 0.16-1.328 0.752-2.416 1.84-0.88 0.88-1.6 1.68-1.6 1.792 0 0.32-0.736 0.88-1.36 1.040-0.32 0.096-1.184 0.816-1.904 1.616-0.96 1.088-1.44 1.456-1.888 1.456-0.688 0-2.256 1.2-2.528 1.904-0.176 0.528 0.64 1.92 1.68 2.832 0.528 0.48 0.528 0.496 0.176 1.344-0.192 0.448-0.416 1.2-0.48 1.632-0.16 1.216-0.384 1.408-1.632 1.248-1.056-0.16-1.312-0.064-4.016 1.632-0.768 0.48-1.44 0.752-1.856 0.752-0.224 0-1.424 0.224-2.688 0.48s-2.528 0.528-2.848 0.544c-0.352 0.016-0.784 0.208-1.008 0.4-0.224 0.224-0.576 0.384-0.784 0.384s-0.416 0.16-0.48 0.336c-0.16 0.368-1.376 0.8-2.336 0.8-0.848 0-2.736 0.88-2.832 1.296-0.064 0.384-0.384 0.432-3.856 0.608-2.736 0.16-4.544 0.544-5.376 1.184-0.384 0.288-1.040 0.704-1.424 0.88-0.384 0.208-0.8 0.592-0.944 0.88-0.208 0.432-0.464 0.56-1.488 0.672-0.688 0.064-1.776 0.208-2.432 0.272-1.376 0.16-1.792 0.448-2.32 1.584-0.224 0.48-0.512 0.768-0.768 0.768s-0.592 0.208-0.832 0.448c-0.224 0.224-0.736 0.592-1.168 0.768s-0.896 0.496-1.072 0.672c-0.32 0.432-0.896 0.48-1.264 0.112-0.432-0.448-4.032-0.64-6.208-0.32-1.168 0.16-1.264 0.208-1.824 1.264-0.32 0.64-0.8 1.216-1.104 1.312-0.256 0.112-0.784 0.544-1.168 0.944-0.368 0.432-0.944 0.992-1.264 1.264s-0.576 0.72-0.576 1.040c0 0.72-0.432 1.088-1.52 1.216-0.624 0.096-0.912 0.272-1.104 0.656-0.208 0.48-0.368 0.544-1.408 0.544-0.88 0-1.264 0.112-1.568 0.432-0.224 0.256-0.944 0.672-1.632 0.944-1.44 0.608-3.056 1.52-3.232 1.808-0.096 0.112-0.624 0.208-1.184 0.208-0.688 0-1.264 0.16-1.584 0.4-0.272 0.224-1.008 0.64-1.632 0.928-0.592 0.32-1.168 0.656-1.232 0.768-0.096 0.112-0.656 0.256-1.28 0.272-0.912 0.048-1.264 0.176-1.68 0.656-0.304 0.32-0.784 0.592-1.072 0.592s-0.624 0.176-0.72 0.384c-0.272 0.48-1.952 0.992-3.584 1.104-1.184 0.064-1.28 0.048-2.384-0.88l-1.152-0.944 0.128-1.344c0.064-0.72 0.128-1.632 0.128-1.968 0-0.544 0.096-0.656 0.544-0.656 0.384 0 0.624-0.16 0.768-0.56 0.112-0.32 0.368-0.64 0.544-0.704 0.24-0.112 0.32-0.432 0.272-1.184-0.016-0.912 0.064-1.104 0.64-1.616 0.384-0.336 0.72-0.88 0.784-1.264 0.096-0.64 0.112-0.656 0.272-0.16 0.080 0.272 0.32 0.496 0.544 0.496 0.544 0 1.376-1.104 1.184-1.568-0.256-0.64-0.16-1.424 0.32-2.080 0.256-0.336 0.464-0.8 0.464-0.976s0.208-0.4 0.432-0.48c0.784-0.256 2.624-2.336 2.624-2.96 0-0.56 0.288-0.928 1.824-2.288 0.688-0.608 0.784-0.8 0.688-1.408s-0.016-0.832 0.656-1.616c0.432-0.496 0.784-1.104 0.784-1.344 0-0.336 0.176-0.48 0.704-0.528 0.688-0.064 0.72-0.144 0.848-1.088 0.224-1.408 0.576-2.272 0.944-2.272 0.208 0 0.48-0.288 0.688-0.672s0.592-0.72 1.008-0.832c0.592-0.176 0.768-0.4 1.408-2.064 0.528-1.376 1.040-2.224 1.888-3.2 0.656-0.72 1.536-1.84 1.952-2.464s0.88-1.184 1.008-1.184c0.512 0 1.008-0.88 0.912-1.568-0.096-0.56 0-0.72 0.528-0.944 0.64-0.272 0.768-0.528 0.384-0.768-0.32-0.208-0.256-1.152 0.112-1.472 0.272-0.256 0.384-0.224 0.688 0.176 0.352 0.528 0.848 0.448 1.056-0.112 0.080-0.208 0.016-0.496-0.112-0.656-0.544-0.704 0.128-1.952 1.584-2.88 0.352-0.224 0.704-0.752 0.88-1.344 0.256-0.8 0.384-0.976 0.832-0.976 0.464 0 0.592-0.16 0.768-0.944 0.16-0.608 0.656-1.456 1.376-2.272 0.624-0.72 1.328-1.904 1.632-2.608 0.352-0.912 0.64-1.312 0.896-1.312 0.224 0 0.576-0.272 0.784-0.592s0.592-0.832 0.848-1.184c0.256-0.336 0.528-1.072 0.592-1.584 0.064-0.592 0.32-1.216 0.624-1.536 0.464-0.496 0.528-0.528 0.88-0.176 0.512 0.48 1.008 0.272 1.28-0.48 0.336-0.88 1.104-1.136 2.32-0.768 0.768 0.224 0.992 0.4 0.912 0.704-0.064 0.208 0.128 0.56 0.416 0.832s0.528 0.56 0.528 0.704c0 0.112 0.256 0.224 0.576 0.224s0.944 0.224 1.376 0.496c1.168 0.72 2.784 0.88 3.888 0.384 0.48-0.224 1.104-0.432 1.376-0.432 0.304 0 0.592-0.208 0.736-0.56 0.128-0.32 0.304-0.56 0.384-0.56 0.24 0 0.656-1.104 0.656-1.728 0-0.32 0.176-0.88 0.368-1.248 0.368-0.64 0.368-0.72 0-1.76s-0.384-3.76-0.048-4.32c0.176-0.32 1.056-0.288 1.376 0.048 0.208 0.208 0.352 0.176 0.656-0.112 0.48-0.448 1.936-0.496 3.552-0.112 1.072 0.256 1.168 0.224 2.304-0.384 0.736-0.4 1.232-0.864 1.312-1.152 0.096-0.336 0.432-0.608 1.056-0.816 0.736-0.272 0.992-0.48 1.152-1.040 0.112-0.432 0.384-0.8 0.768-0.944 0.912-0.384 1.936-1.248 1.808-1.536-0.048-0.16 0.064-0.48 0.256-0.672s0.432-0.672 0.576-1.024c0.224-0.56 0.336-0.608 0.944-0.496 0.96 0.176 1.472-0.224 1.728-1.456 0.256-1.104 0.752-1.648 1.376-1.472 0.624 0.208 1.2-0.112 1.68-0.976 0.384-0.704 0.416-0.912 0.192-1.472-0.192-0.528-0.192-0.72 0.064-1.040 0.432-0.496 0.768-1.616 0.656-2.24-0.096-0.656-1.264-1.648-1.936-1.648-0.272 0-0.912-0.16-1.408-0.368-0.656-0.272-1.232-0.336-2.128-0.224-0.688 0.096-2.528 0.064-4.080 0-2.496-0.144-2.848-0.208-2.96-0.592-0.112-0.496-0.432-0.528-1.6-0.048-0.768 0.32-0.944 0.336-1.184 0.064-0.368-0.384-0.416-0.672-0.368-3.088l0.048-1.872h1.056c1.040 0 1.104-0.016 1.776-1.136 0.528-0.832 0.848-1.136 1.232-1.136 0.912 0 1.952-0.672 2.576-1.728 0.416-0.704 0.8-1.040 1.216-1.136 0.656-0.144 1.168-0.928 1.168-1.808 0-0.288 0.112-0.592 0.224-0.656 0.112-0.096 0.384-0.56 0.592-1.040 0.256-0.64 0.592-1.040 1.168-1.36 0.544-0.272 0.848-0.592 0.848-0.88 0-0.224 0.096-0.496 0.208-0.56 0.128-0.096 0.224-1.248 0.224-2.72 0-2.512-0.016-2.608-0.544-2.96-0.624-0.432-0.768-1.744-0.208-2.064 0.272-0.16 0.272-0.32 0.048-0.976-0.368-1.104-0.96-1.696-1.376-1.344s-0.384-0.176 0.016-2.944c0.192-1.152 0.272-2.448 0.192-2.848-0.128-0.768-1.808-2.608-2.368-2.608-0.16 0-0.352-0.208-0.416-0.448-0.096-0.336-0.32-0.448-0.848-0.48-0.384-0.016-1.2-0.096-1.808-0.16-1.296-0.144-1.808-0.144-7.152 0.016-4.032 0.112-4.080 0.112-5.232 0.8-1.472 0.864-2.416 2.384-2.416 3.904 0 0.768 0.112 1.088 0.432 1.312 0.464 0.288 0.576 0.944 0.256 1.584-0.128 0.208-0.288 0.672-0.352 1.040-0.128 0.608-0.176 0.64-1.104 0.496-0.736-0.112-1.12-0.064-1.536 0.224-0.832 0.56-2.96 0.4-2.96-0.208 0-0.16-0.432-0.704-0.96-1.216-0.704-0.72-1.168-0.976-1.648-0.976-0.688 0-1.776-0.944-1.776-1.52 0-0.384-1.792-1.424-2.432-1.424-0.272 0-0.8-0.208-1.168-0.448s-0.8-0.448-0.992-0.448c-0.64 0-2.128-1.68-2.272-2.56-0.128-0.752-0.224-0.832-0.8-0.832-0.368 0-0.848 0.096-1.072 0.224-0.688 0.368-1.744-0.16-1.904-0.944-0.064-0.368-0.304-0.752-0.528-0.864-0.224-0.144-0.432-0.4-0.528-0.656-0.064-0.256-0.384-0.48-0.88-0.544-0.384-0.064-1.040-0.336-1.376-0.608-0.592-0.448-0.736-0.48-1.904-0.256-0.704 0.144-1.84 0.256-2.528 0.256s-1.568 0.112-1.936 0.256c-0.624 0.224-0.768 0.176-1.328-0.288-0.352-0.32-1.264-0.88-2.048-1.264s-1.584-0.912-1.792-1.152c-0.256-0.288-0.688-0.48-1.104-0.48-0.368 0-1.232-0.272-1.888-0.592-0.896-0.432-1.376-0.544-2-0.432-0.592 0.112-1.040 0.016-1.648-0.32-0.512-0.288-1.040-0.4-1.344-0.336-0.416 0.112-0.72-0.064-1.488-0.864-1.328-1.408-2.176-1.632-6.208-1.584-2.464 0.016-3.632-0.064-4.288-0.288-0.512-0.176-1.424-0.336-2.048-0.336s-1.376-0.096-1.648-0.208c-0.944-0.384-2.704-2.384-3.424-3.904-0.64-1.36-0.8-1.536-1.488-1.68-0.832-0.16-2.416-0.928-2.624-1.264-0.064-0.112-0.736-0.208-1.536-0.208-1.328 0-1.472-0.048-2.336-0.864-0.512-0.48-1.12-0.944-1.328-1.040-0.256-0.064-1.184-0.016-2.16 0.112-1.536 0.256-1.792 0.256-2.528-0.112-0.64-0.32-1.632-0.432-4.224-0.528-3.168-0.144-3.44-0.176-4.016-0.656-0.368-0.336-0.912-0.544-1.36-0.544-0.992 0-1.28-0.448-1.136-1.696 0.080-0.656 0.064-1.024-0.096-1.024s-0.208-0.128-0.144-0.272c0.048-0.16 0.32-0.288 0.624-0.288 0.432 0 0.544-0.128 0.592-0.72l0.064-0.704 1.632 0.112c1.104 0.096 1.744 0.048 1.952-0.128 0.176-0.16 0.544-0.208 0.832-0.128 0.384 0.096 0.736-0.096 1.536-0.928l1.056-1.040 0.208 0.56c0.224 0.56 0.256 0.56 0.896 0.256 0.352-0.208 0.656-0.448 0.656-0.56s0.176-0.384 0.416-0.64c0.464-0.48 1.52-0.4 1.712 0.128 0.064 0.176 0.208 0.224 0.368 0.112 0.144-0.112 0.8-0.336 1.44-0.528 0.656-0.16 1.376-0.432 1.584-0.608s0.88-0.336 1.488-0.336c0.912-0.016 1.2 0.096 1.744 0.608 0.592 0.56 0.768 0.64 1.584 0.496 1.12-0.176 1.728-0.608 2.208-1.536 0.352-0.704 0.368-0.704 0.624-0.224 0.384 0.752 0.736 0.608 2.064-0.752 0.944-0.976 1.328-1.248 1.856-1.248 0.464 0 0.768 0.16 0.912 0.448 0.32 0.64 1.424 0.592 2.048-0.064 0.656-0.704 1.744-1.136 2.64-1.024 0.688 0.064 0.768 0.016 1.2-0.944 0.32-0.656 0.88-1.36 1.68-2 0.656-0.544 1.216-1.136 1.216-1.296 0-0.432 0.688-1.92 0.896-1.92 0.544 0 1.152-3.424 0.624-3.744-0.112-0.064-0.208-0.336-0.208-0.608 0-0.432 0.096-0.448 1.376-0.288 0.736 0.096 1.712 0.368 2.16 0.592 0.704 0.368 0.832 0.592 1.408 2.4 0.352 1.088 0.768 2.144 0.912 2.352 0.176 0.208 0.384 0.672 0.48 1.024 0.128 0.528 0.384 0.752 1.2 1.072 1.184 0.432 2.288 0.272 3.232-0.496 0.288-0.224 1.008-0.672 1.584-0.992 0.896-0.48 1.184-0.544 1.712-0.336 0.352 0.112 0.64 0.32 0.64 0.448 0 0.272 2.624 0.128 5.488-0.272 1.040-0.16 2.208-0.288 2.624-0.32 1.008-0.064 1.888-0.528 2.32-1.184s2.048-1.216 2.304-0.8c0.128 0.256 0.224 0.224 0.368-0.096s0.304-0.336 0.688-0.128c0.256 0.128 0.736 0.208 1.072 0.112 1.12-0.272 3.808-1.92 4.064-2.496 0.16-0.32 0.368-0.528 0.528-0.448 0.32 0.128 3.648-1.040 4.432-1.584 0.32-0.224 0.8-0.656 1.008-0.944 0.384-0.528 0.512-0.544 1.888-0.4 1.184 0.128 1.52 0.096 1.744-0.208 0.16-0.176 0.432-0.336 0.656-0.336s0.512-0.16 0.656-0.336c0.128-0.176 0.48-0.384 0.72-0.48 0.256-0.096 0.736-0.336 1.008-0.56 0.288-0.256 0.8-0.432 1.12-0.432s0.784-0.224 1.104-0.56c0.256-0.288 0.88-0.816 1.36-1.152 0.736-0.528 0.88-0.56 1.12-0.288 0.128 0.176 0.688 0.64 1.2 0.992 1.056 0.72 1.312 1.36 0.944 2.4-0.352 1.072-0.288 1.872 0.208 2.544 0.256 0.32 0.432 0.656 0.432 0.752s0.416 0.8 0.912 1.568c0.96 1.456 1.968 2.064 2.992 1.792 0.528-0.16 1.968 0.272 2.496 0.752 0.192 0.176 0.544 0.288 0.768 0.272s0.8 0.016 1.312 0.112c1.008 0.176 1.808-0.128 2.592-0.992 0.256-0.272 0.656-0.592 0.912-0.704s0.528-0.448 0.624-0.88c0.112-0.496 0.368-0.816 0.96-1.136 0.464-0.224 1.008-0.704 1.2-1.024s0.592-0.704 0.88-0.816c0.528-0.256 1.536-2.272 1.776-3.536 0.112-0.544 0.016-0.976-0.32-1.616-0.464-0.832-0.464-0.928-0.128-1.568 0.176-0.384 0.576-0.752 0.88-0.832 0.368-0.096 0.624-0.336 0.704-0.768 0.064-0.336 0.352-1.312 0.656-2.192 0.688-2.064 0.688-2.72-0.064-3.376-0.464-0.4-0.592-0.768-0.688-1.84-0.064-0.864-0.256-1.456-0.512-1.728-0.224-0.224-0.72-0.976-1.104-1.68-0.368-0.672-0.768-1.248-0.88-1.248s-0.208-0.112-0.208-0.256c0-0.128-0.32-0.672-0.736-1.2s-0.848-1.2-0.992-1.52c-0.128-0.4-0.432-0.656-0.944-0.768-0.384-0.112-0.96-0.256-1.264-0.32-0.432-0.112-0.528-0.288-0.544-0.992-0.016-0.608 0.096-0.944 0.352-1.088 0.192-0.112 0.576-0.56 0.832-0.992 0.272-0.48 0.656-0.8 0.896-0.8s0.736-0.16 1.072-0.336c0.592-0.32 0.72-0.32 1.36 0.016 0.784 0.432 2.432 0.32 4.144-0.256 0.8-0.272 1.12-0.544 1.536-1.312 0.784-1.408 1.008-2.224 0.896-3.152-0.064-0.64-0.192-0.864-0.624-0.944-0.544-0.16-0.576-0.272-0.624-1.84-0.016-0.752-0.112-0.944-0.624-1.2-0.368-0.176-0.624-0.496-0.624-0.8 0-0.272-0.32-0.992-0.64-1.632-0.352-0.608-0.88-1.584-1.184-2.144s-0.992-1.472-1.536-2.032c-0.544-0.544-1.008-1.136-1.008-1.296 0-0.128-0.544-0.864-1.184-1.568-1.168-1.264-1.2-1.264-2.192-1.136-0.832 0.128-1.152 0.064-2.176-0.528-1.36-0.816-2.080-0.88-2.832-0.256-0.528 0.4-0.576 0.4-0.896 0.048-0.48-0.544-0.8-1.488-0.688-2 0.064-0.256-0.016-0.64-0.192-0.864-0.32-0.432-0.384-0.432-1.376-0.128-0.592 0.16-1.68 0.288-2.368 0.32-1.28 0.016-1.312 0.048-1.632 0.816-0.16 0.432-0.48 0.912-0.72 1.088s-0.416 0.56-0.416 0.944c0 0.528-0.176 0.752-1.040 1.248-0.592 0.336-1.232 0.8-1.44 0.976-0.352 0.336-0.384 0.32-0.528-0.128-0.064-0.272-0.32-0.544-0.528-0.608-0.24-0.096-0.576-0.432-0.736-0.8-0.176-0.336-0.688-0.864-1.12-1.136-0.64-0.432-0.768-0.608-0.688-1.088 0.048-0.288-0.096-1.088-0.32-1.76-0.256-0.656-0.416-1.36-0.416-1.568 0-0.176-0.256-0.496-0.544-0.704-0.368-0.256-0.544-0.56-0.544-1.024s-0.24-0.928-0.768-1.472c-0.416-0.432-0.768-0.976-0.768-1.2s-0.144-0.544-0.32-0.704c-0.176-0.16-0.384-0.768-0.464-1.376-0.128-1.024-0.224-1.152-0.88-1.456-0.512-0.208-0.704-0.432-0.624-0.64 0.16-0.432-0.688-2.496-1.232-2.992-0.32-0.288-0.352-0.528-0.208-1.088 0.352-1.312-0.432-2.768-1.808-3.312-0.368-0.16-0.656-0.448-0.736-0.864-0.096-0.336-0.288-0.832-0.432-1.088-0.176-0.256-0.32-0.768-0.32-1.184 0-0.528-0.176-0.912-0.544-1.248-0.32-0.288-0.544-0.72-0.544-1.072s-0.176-0.704-0.416-0.864c-0.208-0.16-0.592-0.816-0.8-1.472-0.464-1.472-1.488-3.44-2.32-4.464-0.592-0.672-0.624-0.832-0.48-1.968 0.080-0.912 0.048-1.216-0.128-1.216-0.16 0-0.544-0.256-0.912-0.56-0.352-0.32-0.88-0.56-1.168-0.56s-0.656-0.224-0.848-0.528c-0.432-0.704-1.824-1.296-2.864-1.248-0.48 0-1.104-0.096-1.376-0.256s-0.688-0.224-0.88-0.16c-0.544 0.176-1.152-0.32-1.152-0.992 0-0.32 0.080-1.376 0.208-2.384s0.32-2.512 0.384-3.392c0.128-1.424 0.208-1.584 0.656-1.648 0.48-0.064 0.512-0.128 0.432-2.384l-0.064-2.288-0.768-0.544c-0.416-0.288-0.736-0.672-0.704-0.88 0.112-0.48-1.056-1.632-1.632-1.648-1.12 0-1.968-1.424-2.384-3.904-0.096-0.608-0.256-0.864-0.512-0.864-0.208 0-0.656-0.256-1.040-0.544-0.544-0.448-0.592-0.592-0.352-0.88 0.704-0.912-0.464-2.688-1.936-2.992-0.432-0.096-0.656-0.224-0.512-0.272s0.256-0.288 0.256-0.528c0-0.24 0.112-0.496 0.224-0.56 0.128-0.064 0.224-0.384 0.224-0.656 0-0.384-0.224-0.64-0.736-0.912-0.416-0.208-0.848-0.368-0.992-0.368s-0.288-0.256-0.368-0.56c-0.112-0.432-0.288-0.56-0.768-0.56-0.432 0-0.64-0.112-0.64-0.368 0-0.656-1.072-2.768-1.472-2.896-0.208-0.064-0.832-0.608-1.376-1.184s-1.312-1.2-1.696-1.376c-0.624-0.256-0.72-0.4-0.72-1.104s-0.176-0.992-1.184-2c-1.488-1.488-2.224-2.944-2.128-4.16 0-0.16 0.368-0.448 0.8-0.656 0.736-0.368 0.784-0.368 1.408 0.112 0.576 0.432 0.832 0.48 1.936 0.368 1.152-0.128 1.36-0.096 1.936 0.4 1.152 0.944 2.304 1.536 3.104 1.536 0.464 0 0.736 0.112 0.736 0.288 0 0.752 2.784 1.488 3.168 0.832s2.080 0.064 2.080 0.832c0 0.288 0.8 0.832 1.536 1.088 0.304 0.096 1.104 0.56 1.776 1.024 1.072 0.752 1.44 0.864 2.864 0.944 1.168 0.064 1.888 0.256 2.464 0.608 0.464 0.288 0.944 0.448 1.216 0.368 0.528-0.16 1.568 0.256 1.568 0.64 0 0.336 2.016 1.728 3.744 2.56 0.544 0.272 1.424 1.024 1.968 1.68s1.36 1.424 1.808 1.744c0.832 0.544 0.992 0.816 1.472 2.464 0.16 0.496 0.656 1.36 1.168 1.872l0.896 0.992 1.472-0.16c0.912-0.096 1.904-0.368 2.608-0.72 0.784-0.4 1.312-0.544 1.696-0.448 0.32 0.096 0.944 0.224 1.376 0.336s1.12 0.384 1.536 0.656c0.416 0.272 1.072 0.496 1.424 0.496 0.832 0 1.648 0.224 1.648 0.448 0 0.112 0.944 1.152 2.112 2.352 2.080 2.144 2.112 2.176 3.168 2.176 1.344 0 1.76 0.16 1.76 0.672 0 0.448 0.576 0.768 0.768 0.448 0.432-0.752 1.888 0.208 2.176 1.424 0.096 0.4 0.272 0.608 0.592 0.608 0.256 0 0.96 0.256 1.6 0.56s1.488 0.64 1.92 0.704c0.544 0.112 1.152 0.56 2.208 1.76 1.808 1.968 2.064 2.24 2.336 2.816 0.112 0.224 0.688 0.608 1.264 0.832 0.992 0.384 1.056 0.384 1.312 0.016 0.384-0.56 1.104-0.128 1.264 0.768 0.128 0.56 0.256 0.672 0.8 0.672 0.48 0 0.688 0.128 0.8 0.528 0.256 0.912 1.6 2.512 2.576 3.12 0.512 0.32 1.056 0.864 1.232 1.2 0.224 0.528 0.384 0.608 0.896 0.544 0.384-0.064 0.688 0.016 0.832 0.288 0.192 0.32 0.384 0.368 1.040 0.208 0.416-0.096 0.944-0.32 1.12-0.48 0.208-0.176 0.384-0.208 0.48-0.048 0.080 0.112 0.368 0.336 0.656 0.496 0.256 0.128 0.48 0.432 0.48 0.608 0 0.448 0.848 0.336 2.72-0.336 1.632-0.592 1.968-0.592 2.768 0.016 0.736 0.544 0.8 1.024 0.32 2-0.32 0.608-0.32 0.704 0.112 1.088 0.384 0.384 0.416 0.448 0.112 0.592-0.24 0.096-0.352 0.4-0.32 1.088 0.016 0.544-0.128 1.536-0.32 2.224-0.24 0.88-0.304 1.68-0.224 2.72 0.096 0.816 0.016 1.968-0.112 2.576-0.224 1.024-0.192 1.216 0.32 2.288 0.32 0.656 0.544 1.296 0.544 1.424 0 0.496 0.736 0.992 1.232 0.864 0.288-0.096 0.88 0 1.312 0.208 0.432 0.176 1.040 0.336 1.312 0.336 0.256 0 0.576 0.112 0.624 0.256 0.096 0.112 0.32 0.176 0.512 0.128s0.848 0.16 1.424 0.448c0.592 0.288 1.584 0.608 2.192 0.672 1.232 0.128 2.128 0.592 2.128 1.072 0 0.16 0.192 0.48 0.432 0.704s0.432 0.672 0.432 0.992 0.16 0.8 0.32 1.024c0.176 0.256 0.32 0.672 0.32 0.976 0 0.336 0.128 0.528 0.368 0.528 0.592 0 1.952 1.088 2.576 2.032 0.528 0.816 0.624 0.864 1.936 0.976 0.768 0.048 2.16 0.384 3.072 0.72 1.696 0.64 1.696 0.64 2.704 0.224 0.72-0.272 1.232-0.704 1.744-1.456l0.736-1.040 0.016-3.28c0-1.808 0-3.584 0-3.936s-0.208-0.912-0.432-1.216c-0.24-0.288-0.432-0.72-0.432-0.928s-0.256-0.832-0.544-1.424c-0.32-0.592-0.544-1.216-0.544-1.408s-0.192-0.48-0.416-0.64c-0.32-0.208-0.368-0.384-0.208-0.8 0.304-0.832 0.24-1.68-0.16-2.128-0.224-0.256-0.432-1.072-0.528-2.064-0.112-0.912-0.272-1.952-0.416-2.336-0.112-0.368-0.304-1.296-0.416-2.032l-0.144-1.36-0.912-0.064c-0.848-0.064-0.896-0.112-0.736-0.56 0.32-0.912 0.464-3.856 0.288-6.32-0.16-1.952-0.32-2.656-0.768-3.6-0.576-1.104-0.592-1.216-0.32-2.464 0.256-1.216 0.224-1.344-0.256-2.016-0.368-0.528-0.576-1.264-0.72-2.576-0.128-1.136-0.352-2.016-0.576-2.272-0.32-0.336-0.352-0.928-0.32-3.392l0.048-2.992 0.912-0.832c1.072-0.976 1.232-1.024 1.424-0.448 0.176 0.48 0.592 0.816 1.68 1.408 0.432 0.256 0.8 0.608 0.8 0.768s0.16 0.432 0.32 0.592 0.368 0.64 0.464 1.088c0.096 0.448 0.384 1.024 0.688 1.264 0.304 0.288 0.656 1.024 0.88 1.84s0.624 1.632 1.040 2.112c0.592 0.656 0.768 0.72 1.424 0.608l0.736-0.128-0.128 0.8c-0.128 0.704-0.064 0.832 0.64 1.376 0.736 0.592 0.768 0.672 0.72 1.904-0.064 1.104 0.016 1.408 0.528 2.016 0.32 0.4 0.624 0.928 0.72 1.184 0.096 0.32 0.32 0.448 0.768 0.448 0.352 0 1.008 0.256 1.44 0.56 0.736 0.528 0.992 0.56 3.2 0.544 2.656-0.016 3.024 0.128 3.024 1.248 0.016 0.592 0.176 0.816 1.008 1.344 0.528 0.368 1.152 0.912 1.36 1.216s0.704 0.944 1.104 1.424c0.368 0.448 0.704 0.992 0.704 1.184s0.192 0.528 0.432 0.752c0.256 0.224 0.432 0.544 0.432 0.72s0.16 0.368 0.32 0.432c0.176 0.096 0.32 0.272 0.32 0.432s0.352 0.432 0.768 0.592c0.416 0.16 0.768 0.432 0.768 0.608 0 0.496 1.312 1.632 1.888 1.632 0.592 0 0.992 0.64 0.832 1.264-0.096 0.336 0.16 0.704 0.832 1.36 0.512 0.48 1.536 1.52 2.256 2.272 1.312 1.344 1.376 1.376 1.904 1.088 0.832-0.448 2.8-0.704 3.696-0.48 1.744 0.432 1.968 0.448 1.968 0.064 0-0.176 0.192-0.448 0.416-0.592 0.576-0.288 2.496-0.288 2.8 0.016 0.16 0.16 0.528-0.112 1.264-0.976 1.696-1.952 1.936-2.608 1.76-4.672-0.112-1.536-0.112-1.696 0.176-1.344 0.176 0.256 0.512 0.4 0.8 0.336 0.384-0.048 0.624-0.432 1.2-1.92 0.688-1.76 0.704-1.92 0.544-3.856-0.096-1.088-0.256-2.688-0.384-3.584-0.128-0.864-0.224-1.744-0.256-1.952 0-0.208-0.272-0.672-0.624-1.072-0.688-0.72-0.992-1.76-0.864-2.896 0.048-0.496 0.256-0.752 0.832-1.040 0.848-0.448 1.312-1.264 1.312-2.4 0-0.432 0.224-1.072 0.464-1.456 0.384-0.56 0.432-0.832 0.32-1.84-0.096-0.656-0.16-1.472-0.16-1.856 0.128-4.48-0.128-8.992-0.528-9.664-0.096-0.128-0.16-0.592-0.128-0.992s-0.16-0.976-0.368-1.264c-0.224-0.272-0.464-0.816-0.544-1.2-0.096-0.368-0.352-0.88-0.576-1.136s-0.64-0.944-0.912-1.584c-0.624-1.376-1.52-1.952-2.128-1.376-0.736 0.672-1.328 0.336-1.328-0.752 0-0.64-1.6-1.84-2.464-1.84-0.384 0-1.008-0.208-1.36-0.432-0.432-0.288-0.848-0.4-1.264-0.32-0.352 0.064-0.88 0-1.168-0.16-0.464-0.256-0.512-0.336-0.224-0.72 0.192-0.32 0.256-0.656 0.112-1.136-0.352-1.248 0.592-2.784 1.904-3.040 0.64-0.112 0.736-0.224 0.736-0.864 0-0.384-0.192-1.136-0.416-1.648-0.48-1.088-0.432-1.184 1.040-1.76 1.008-0.432 1.408-1.216 0.944-1.952-0.112-0.224-0.24-0.8-0.24-1.216 0-0.64 0.096-0.8 0.432-0.8 0.528 0 0.992-0.88 1.28-2.464 0.144-0.912 0.112-1.488-0.128-2.512-0.208-0.752-0.32-1.408-0.256-1.472 0.096-0.064 0.416 0.016 0.768 0.224 0.576 0.288 0.656 0.288 1.12-0.16 0.32-0.32 0.512-0.752 0.512-1.2 0-0.432 0.176-0.88 0.416-1.104 0.432-0.4 0.896-1.952 0.896-3.040 0-0.48-0.16-0.72-0.576-0.928-0.544-0.256-0.576-0.336-0.432-1.312 0.064-0.56 0.256-1.184 0.368-1.328 0.368-0.448 0.848-0.384 1.040 0.16 0.176 0.448 0.192 0.448 0.656 0.048 0.32-0.272 0.528-0.768 0.64-1.536 0.080-0.704 0.352-1.424 0.72-1.92 1.376-1.84 1.936-3.376 2.128-5.936 0.192-2.352 0.256-2.448 1.168-3.856 0.88-1.296 0.96-1.584 1.056-3.008 0.064-1.104 0.224-1.728 0.48-2.032 0.224-0.256 0.624-0.912 0.88-1.472s0.592-1.088 0.72-1.184c0.16-0.096 0.128-0.368-0.048-0.8-0.512-1.264-0.016-5.6 0.656-5.984 0.512-0.272 1.52-2.416 1.52-3.216 0-1.52 0.736-5.52 1.104-6.048 0.224-0.336 0.48-0.88 0.576-1.264 0.128-0.608 0.832-2.224 1.536-3.488 0.16-0.32 0.32-1.136 0.32-1.84 0-0.928 0.112-1.424 0.432-1.856 0.352-0.448 0.432-0.928 0.464-2.464 0-2.848 0.256-4.032 0.912-4.528 0.352-0.272 0.64-0.752 0.736-1.216s0.352-0.928 0.624-1.136c0.544-0.368 0.704-1.136 0.848-4.048 0.064-0.864 0.192-2.288 0.32-3.12 0.16-0.864 0.256-2.192 0.192-2.96-0.048-1.104 0.048-1.536 0.416-2.080 0.64-0.928 1.376-2.496 1.376-2.928 0-0.176-0.144-0.336-0.288-0.336-0.432 0-0.88-0.992-0.688-1.568 0.208-0.752 1.072-1.248 1.632-0.928 0.256 0.144 0.464 0.336 0.464 0.448s0.288 0.256 0.64 0.336c0.688 0.16 1.712 1.568 1.936 2.656 0.064 0.336 0.416 0.928 0.768 1.296 0.624 0.608 0.656 0.8 0.768 2.944 0.112 1.92 0.224 2.4 0.64 3.008 0.272 0.4 0.528 0.944 0.528 1.216 0 0.656 1.056 3.968 1.408 4.4 0.176 0.208 0.352 1.408 0.464 3.056 0.096 1.488 0.192 3.008 0.224 3.376s0.192 0.72 0.384 0.832c0.176 0.112 0.688 0.976 1.152 1.872 0.64 1.36 0.768 1.84 0.656 2.4-0.096 0.4-0.096 1.296 0 2.016 0.144 1.152 0.24 1.36 1.328 2.448 0.656 0.64 1.168 1.312 1.168 1.488s0.512 0.64 1.104 1.024c1.424 0.912 1.44 1.472 0.176 3.44-0.8 1.216-0.944 1.616-0.96 2.688-0.016 0.672-0.144 1.296-0.256 1.312-0.576 0.208-0.992 0.72-1.328 1.792-0.432 1.2-0.32 2.032 0.256 2.272s1.056 2.496 1.008 4.624c-0.064 2.768-0.096 2.688 0.8 3.088 0.72 0.32 0.784 0.4 0.656 1.024-0.064 0.4 0.048 1.088 0.32 1.808 0.24 0.608 0.432 1.488 0.432 1.952s0.112 1.472 0.256 2.272c0.224 1.248 0.352 1.52 0.88 1.792s0.624 0.48 0.624 1.248c0 0.496 0.144 1.264 0.352 1.744 0.192 0.448 0.384 1.264 0.416 1.76 0.016 0.672 0.24 1.2 0.72 1.808 0.592 0.72 0.704 1.072 0.704 2.032 0 0.88 0.224 1.632 0.88 3.088 0.48 1.072 1.008 2.032 1.168 2.192 0.176 0.128 0.48 0.912 0.688 1.696 0.224 0.816 0.528 1.52 0.704 1.584s0.32 0.32 0.32 0.544c0 0.256 0.256 0.832 0.592 1.312 0.416 0.656 0.624 1.296 0.688 2.416l0.16 1.52-0.72 0.272c-0.384 0.16-0.768 0.448-0.848 0.672-0.144 0.448-0.992 0.752-1.536 0.544-0.208-0.064-0.8 0.064-1.344 0.32s-1.312 0.448-1.696 0.448c-0.544 0-1.184 0.336-2.464 1.312-0.944 0.704-1.968 1.472-2.304 1.68-0.704 0.48-1.168 1.76-0.944 2.736 0.096 0.4 0.176 2.848 0.256 5.456 0.064 3.904 0.144 4.832 0.432 5.296 0.256 0.432 0.304 0.768 0.176 1.488-0.464 2.496-0.016 8 0.752 9.584 0.432 0.88 0.464 1.072 0.256 2.944-0.224 1.76-0.272 2.496-0.208 5.008 0 0.336-0.048 2.064-0.112 3.824-0.112 2.384-0.064 3.36 0.16 3.744 0.176 0.336 0.272 1.744 0.304 4.16 0.048 3.168 0.112 3.76 0.512 4.528 0.256 0.48 0.592 1.2 0.8 1.616 0.176 0.4 0.528 0.832 0.768 0.976 0.352 0.208 0.432 0.48 0.432 1.376 0 0.608 0.16 1.488 0.32 1.952 0.224 0.496 0.288 1.104 0.192 1.568-0.112 0.592-0.048 0.8 0.208 0.912 0.192 0.064 0.528 0.56 0.72 1.136 0.48 1.296 1.104 1.488 3.6 1.248 1.6-0.176 1.888-0.16 2.112 0.176 0.16 0.208 0.512 0.384 0.784 0.4s0.8 0.112 1.168 0.176c0.944 0.208 3.168-0.672 3.392-1.36 0.112-0.288 0.384-0.592 0.624-0.672s0.464-0.256 0.464-0.368 0.144-0.208 0.304-0.208c0.16 0 0.416-0.16 0.576-0.336s0.576-0.336 0.912-0.336c0.848 0 1.648-0.448 2.608-1.52 0.912-0.992 1.296-1.648 1.296-2.288 0-0.544 0.384-0.72 1.68-0.72 1.056 0 1.84-0.56 1.84-1.36 0-0.64 1.232-2.544 1.84-2.88 0.384-0.224 0.576-0.544 0.688-1.376 0.144-0.976 0.272-1.184 1.488-2.192 1.696-1.456 2.256-2 2.384-2.4 0.096-0.256 0.176-0.272 0.416-0.016 0.432 0.432 1.056 0.32 1.312-0.224 0.592-1.408 2.256-3.328 3.552-4.096 0.944-0.592 1.040-0.704 1.040-1.52 0-0.704 0.144-0.976 0.64-1.328 0.352-0.272 0.832-0.48 1.104-0.48s0.656-0.32 0.944-0.704c0.624-0.864 1.52-1.376 1.936-1.104 0.208 0.112 0.416 0.112 0.592-0.048 0.192-0.16 0.368-0.16 0.624 0.048 0.256 0.224 0.304 0.544 0.192 1.328-0.096 0.56-0.256 1.152-0.352 1.312s-0.16 0.56-0.064 0.928c0.096 0.432-0.016 1.152-0.32 2-0.256 0.72-0.464 1.856-0.464 2.496 0 1.024-0.144 1.408-0.992 2.72-0.624 1.024-0.896 1.632-0.768 1.76s0.224 1.088 0.224 2.128c0 1.648-0.096 2.112-0.656 3.36-0.384 0.816-1.008 1.728-1.472 2.112l-0.784 0.672 0.144 1.744c0.144 1.52 0.096 1.84-0.304 2.512-0.432 0.752-0.464 1.248-0.096 2.448 0.096 0.336-0.096 0.752-0.64 1.472-0.432 0.56-0.8 1.184-0.8 1.36s-0.24 0.816-0.544 1.408c-0.288 0.56-0.592 1.472-0.688 2-0.096 0.592-0.32 1.040-0.592 1.2-0.688 0.432-1.696 3.008-1.728 4.32 0 0.912 0.080 1.2 0.528 1.536 0.304 0.256 0.72 0.384 1.072 0.32 0.48-0.096 0.624 0.016 0.96 0.832 0.208 0.528 0.912 1.472 1.536 2.080 0.64 0.64 1.216 1.344 1.312 1.584 0.208 0.704 1.568 1.472 2.624 1.52 0.752 0.048 1.152-0.096 1.744-0.56 0.464-0.368 1.056-0.608 1.44-0.608 0.528 0 0.736-0.16 1.008-0.672 0.192-0.384 0.48-0.672 0.656-0.672s0.528-0.224 0.768-0.496c0.384-0.448 0.688-0.528 1.888-0.496 1.408 0.016 1.44 0 2.544-1.072s1.12-1.072 0.944-2.144c-0.096-0.672-0.32-1.216-0.576-1.408-0.256-0.176-0.416-0.56-0.416-0.944s-0.192-1.072-0.432-1.536c-0.24-0.496-0.384-1.040-0.32-1.216 0.16-0.4 2.112-0.864 3.744-0.864 0.832 0 1.312 0.128 1.744 0.48 0.48 0.384 0.944 0.48 3.28 0.544 2.864 0.064 3.28-0.048 3.312-0.992 0-0.208 0.224-0.384 0.48-0.432 0.288-0.048 0.544-0.32 0.688-0.672 0.352-1.072 1.328-2.080 2.016-2.080 0.32 0 0.72-0.128 0.848-0.32 0.16-0.176 0.432-0.272 0.656-0.208 0.256 0.064 0.704-0.256 1.296-0.88 0.512-0.528 0.912-1.040 0.912-1.136s0.32-0.176 0.736-0.176c1.008 0 1.712-0.288 2.416-1.024 0.528-0.544 0.72-0.592 1.952-0.528l1.36 0.064-0.048-0.832c-0.016-0.48-0.32-1.744-0.592-2.832-0.432-1.584-0.704-2.128-1.28-2.608-0.624-0.592-0.688-0.672-0.464-1.408 0.16-0.496 0.16-0.864 0.016-0.992-0.112-0.112-0.176-0.656-0.144-1.184 0.112-1.472 0.736-1.856 3.168-1.92 1.072-0.016 2.32-0.128 2.736-0.256 0.464-0.128 1.152-0.128 1.792 0 0.896 0.208 1.216 0.16 2.288-0.288l1.232-0.544 0.624 0.496c0.912 0.704 1.952 0.608 2.8-0.208 0.384-0.384 0.848-0.672 1.040-0.672 0.16 0 0.576-0.256 0.912-0.544s0.992-0.656 1.424-0.8c0.432-0.144 1.072-0.64 1.408-1.072s0.752-0.768 0.912-0.768c0.176 0 0.64 0.368 1.040 0.816 0.688 0.768 0.768 0.8 2.416 0.832l1.696 0.048 0.24-0.768c0.224-0.64 0.432-0.816 1.216-1.072 0.512-0.128 1.072-0.4 1.248-0.544 0.32-0.272 4.56-0.336 4.976-0.096 0.112 0.064 0.48 0 0.848-0.128 0.512-0.224 0.64-0.4 0.64-0.992 0-0.928 0.784-1.728 1.776-1.808 0.8-0.096 1.856-0.496 2.416-0.992 0.224-0.16 1.040-0.336 1.904-0.384 0.848-0.048 1.68-0.128 1.808-0.224 0.16-0.096 0.208-0.496 0.176-0.88-0.064-0.656 0-0.768 0.64-0.976 0.384-0.112 0.832-0.128 0.992-0.048 0.528 0.368 0.944 0.176 1.44-0.608 0.256-0.448 0.48-0.928 0.48-1.088 0-0.56 0.576-0.816 1.904-0.816 1.296 0 1.376-0.048 1.712-0.672 0.176-0.368 0.32-0.88 0.32-1.136 0-0.448 0.112-0.496 1.056-0.4 0.944 0.064 1.152 0 1.776-0.656 0.368-0.4 1.040-0.816 1.424-0.944 0.96-0.256 2.416 0.016 3.232 0.64s1.072 0.608 1.072-0.096c0-0.384 0.464-1.072 1.536-2.176 0.848-0.912 1.536-1.744 1.536-1.856s0.352-0.544 0.784-0.944c0.704-0.672 0.832-0.72 1.44-0.48 0.592 0.224 0.704 0.208 1.12-0.336 0.432-0.56 0.624-0.608 2.016-0.608 0.848 0 1.856 0.112 2.256 0.256 0.624 0.224 0.768 0.176 1.2-0.256 1.056-1.088 2.608-2.304 2.912-2.304 0.432 0 1.152-0.8 1.312-1.472 0.144-0.592 0.24-0.64 1.168-0.592 0.32 0.016 0.896-0.176 1.312-0.48s1.232-0.816 1.808-1.152c0.576-0.336 1.040-0.72 1.040-0.832 0-0.128 0.096-0.224 0.224-0.224 0.352 0 0.912 1.376 0.8 2-0.064 0.32 0 0.752 0.144 0.976 0.368 0.608-0.192 2.736-1.008 3.824-0.64 0.816-0.768 0.88-1.44 0.768s-0.72-0.096-0.48 0.224c0.256 0.288 0.224 0.4-0.016 0.672-0.176 0.176-0.464 0.64-0.624 1.024s-0.384 0.704-0.544 0.704c-0.32 0-1.152 1.312-1.328 2.176-0.096 0.32-0.416 0.8-0.768 1.040-0.512 0.4-0.64 0.656-0.64 1.36 0 0.912-0.224 1.216-1.648 2.448-0.368 0.32-1.008 1.024-1.424 1.568s-1.040 1.104-1.36 1.296c-0.848 0.448-1.232 0.928-1.488 1.856-0.16 0.56-0.544 1.088-1.216 1.632-0.96 0.768-1.36 1.472-1.376 2.416-0.016 0.672-1.008 2.4-1.968 3.424-1.040 1.088-1.968 2.736-2.528 4.4-0.096 0.224-0.272 0.4-0.464 0.4-0.16 0-0.368 0.272-0.464 0.608-0.064 0.32-0.32 0.864-0.576 1.152-0.224 0.32-0.416 0.704-0.416 0.864s-0.096 0.32-0.224 0.32c-0.112 0-0.224 0.112-0.224 0.256 0 0.592-0.944 2.272-1.648 2.944-0.432 0.432-1.152 1.536-1.6 2.464-0.432 0.928-1.104 2.080-1.44 2.56-0.432 0.56-0.688 1.216-0.8 2.080-0.096 0.672-0.352 1.488-0.592 1.808-0.256 0.32-0.512 0.88-0.592 1.216-0.144 0.656-0.64 1.024-1.68 1.248-0.432 0.112-0.656 0.368-0.912 1.088-0.176 0.544-0.368 1.264-0.384 1.648-0.048 0.48-0.272 0.816-0.832 1.152-0.416 0.288-1.040 0.752-1.36 1.040-0.768 0.656-2.528 3.328-2.848 4.304-0.144 0.4-0.48 0.992-0.768 1.296s-0.48 0.72-0.464 0.912c0.016 0.192-0.112 0.608-0.32 0.928-0.192 0.288-0.368 0.672-0.368 0.816s-0.256 0.56-0.528 0.928c-0.272 0.336-0.544 0.832-0.592 1.088s-0.32 0.496-0.624 0.56c-0.368 0.064-0.704 0.432-0.944 0.976l-0.416 0.864 0.576 0.752c0.48 0.656 0.512 0.8 0.224 0.912-0.624 0.256-0.752 0.128-0.752-0.544 0-0.8-0.384-0.88-0.992-0.224-0.224 0.256-0.544 0.496-0.752 0.56-0.384 0.112-1.264 1.632-1.072 1.84 0.064 0.064-0.464 0.704-1.168 1.424s-1.296 1.424-1.296 1.536c0 0.128-0.176 0.4-0.416 0.608-0.224 0.208-0.464 0.816-0.528 1.344-0.176 1.344-0.944 1.856-1.792 1.2-0.416-0.32-0.416-0.368-0.064-1.424 0.912-2.88 0.96-4.624 0.112-4.96-0.256-0.096-0.256-0.256-0.048-0.88 0.144-0.432 0.304-0.864 0.384-0.928 0.080-0.096 0.144-0.496 0.144-0.928 0-0.608-0.144-0.832-0.688-1.2-0.624-0.384-0.944-0.432-2.048-0.32-0.72 0.096-1.6 0.336-1.968 0.56-0.832 0.528-0.944 0.592-1.744 0.768-0.352 0.096-1.040 0.592-1.536 1.136-0.64 0.72-1.152 1.072-1.808 1.216-0.528 0.112-1.12 0.368-1.344 0.56s-0.88 0.528-1.488 0.704c-0.688 0.224-1.424 0.656-1.952 1.216-0.48 0.48-1.072 0.976-1.344 1.136-0.272 0.128-0.576 0.528-0.624 0.816-0.064 0.32-0.32 0.592-0.512 0.608-1.424 0.16-2.384 0.432-2.688 0.768-0.144 0.176-0.352 0.32-0.464 0.32s-0.896 0.704-1.728 1.584c-0.832 0.864-1.808 1.744-2.176 1.968-0.368 0.208-0.656 0.48-0.656 0.56 0 0.4-0.912 1.088-1.44 1.088-0.416 0-1.040 0.448-2.256 1.696-0.912 0.928-1.824 1.696-2 1.696s-0.512 0.16-0.736 0.32c-0.224 0.176-0.576 0.272-0.768 0.208-0.256-0.064-0.576 0.224-1.040 0.992-0.736 1.2-3.36 3.888-3.808 3.92-0.144 0-0.384 0.256-0.528 0.56s-0.48 0.64-0.752 0.704c-0.592 0.16-0.736 0.592-0.512 1.632s-0.352 2.72-1.136 3.488c-0.592 0.56-0.64 0.72-0.64 2.288 0 1.84 0.48 2.944 1.488 3.472 0.288 0.128 0.8 0.528 1.12 0.864 0.32 0.32 0.8 0.592 1.104 0.592s0.896 0.224 1.376 0.496c0.864 0.496 0.88 0.496 1.184 0.096 0.352-0.528 1.68-1.040 2.608-1.040 0.48 0 0.944-0.272 1.632-0.912 1.040-0.992 1.408-1.088 2.336-0.56 0.352 0.176 1.056 0.336 1.568 0.336 0.768 0 1.104-0.16 1.744-0.768 0.464-0.4 1.056-0.816 1.296-0.912 0.272-0.096 0.64-0.336 0.864-0.592s0.592-0.448 0.8-0.448c0.24 0 0.896-0.208 1.44-0.448l1.056-0.48 1.36 0.448c0.752 0.256 1.52 0.4 1.68 0.336 0.32-0.128 1.232 0.272 1.472 0.656 0.096 0.112 0.016 0.72-0.16 1.344-0.16 0.608-0.224 1.264-0.16 1.456s-0.144 0.8-0.432 1.376c-0.288 0.608-0.624 1.344-0.704 1.648-0.176 0.592-1.008 1.744-2.016 2.784-0.32 0.336-0.656 0.88-0.736 1.216-0.064 0.4-0.432 0.832-1.056 1.264-0.512 0.336-0.912 0.752-0.912 0.864s-0.272 0.88-0.656 1.68c-0.512 1.136-0.896 1.616-1.68 2.176-1.248 0.88-1.376 1.040-1.376 1.808 0 0.4-0.32 0.88-0.96 1.488-1.136 1.088-1.376 1.968-0.944 3.472 0.192 0.704 0.256 1.216 0.096 1.648-0.368 1.184 0.832 3.696 1.648 3.488 0.576-0.16 0.624 0.096 0.304 1.216-0.368 1.312-0.24 1.744 0.592 1.968 0.416 0.112 0.8 0.432 1.040 0.832 0.624 1.184 1.232 1.264 7.568 1.184 2.576-0.048 2.912-0.096 3.536-0.544 0.368-0.272 0.944-0.608 1.28-0.752 0.304-0.112 0.656-0.448 0.768-0.72 0.112-0.288 0.464-0.912 0.768-1.376 0.624-0.944 0.688-1.584 0.24-2.416-0.416-0.752-0.416-2.112 0-4.16 0.272-1.312 0.288-2.080 0.144-3.76l-0.224-2.112 0.896-1.088c0.512-0.608 1.008-1.104 1.152-1.104 0.16 0 0.64 0.208 1.12 0.448s1.168 0.544 1.568 0.672c0.464 0.16 0.752 0.432 0.832 0.8 0.112 0.432 0.288 0.56 0.768 0.56 0.656 0 1.152 0.544 1.712 1.872 0.192 0.448 0.384 0.608 0.656 0.528 0.224-0.064 0.688 0.016 1.040 0.208 0.336 0.176 0.832 0.336 1.104 0.336 0.544 0 1.584 1.024 1.696 1.68 0.064 0.48 3.008 2.224 4.416 2.624 0.432 0.128 1.12 0.544 1.472 0.912 0.512 0.496 0.896 0.672 1.488 0.704 2.272 0.016 2.96 0.128 3.232 0.496 0.304 0.432 1.648 1.072 2.256 1.072 0.208 0 0.688 0.336 1.104 0.752 0.72 0.768 1.68 0.928 2.608 0.432 0.272-0.16 0.832-0.272 1.28-0.272s1.888-0.368 3.2-0.816c1.328-0.448 2.48-0.768 2.544-0.704 0.048 0.064 0.464-0.048 0.896-0.224l0.784-0.336 1.712 1.904-0.176 1.488c-0.224 1.856-0.176 3.12 0.144 4.352 0.192 0.8 0.32 0.912 0.88 0.912 0.384 0 0.752 0.176 0.96 0.496 0.256 0.384 0.528 0.496 1.12 0.448 0.432-0.048 1.008 0.096 1.264 0.288 0.256 0.176 0.8 0.336 1.216 0.336s0.768 0.128 0.848 0.336c0.064 0.208 0.528 0.56 1.008 0.816 0.752 0.4 1.12 0.448 2.32 0.32 0.8-0.064 1.632-0.176 1.808-0.256 0.224-0.064 0.656 0.208 1.152 0.704 0.848 0.88 1.168 0.944 1.808 0.448 0.752-0.592 1.168-0.432 1.168 0.432 0 0.432-0.144 0.832-0.256 0.912-0.16 0.064 0.096 0.096 0.528 0.016s0.848-0.016 0.944 0.112c0.064 0.128 1.008 0.224 2.16 0.224 1.376 0.016 2.16 0.112 2.416 0.336 0.256 0.16 0.8 0.368 1.248 0.448 0.576 0.096 0.896 0.288 1.056 0.704 0.144 0.288 0.384 0.544 0.544 0.544s0.592 0.224 0.912 0.496c0.576 0.448 0.688 0.48 1.904 0.208 1.248-0.272 1.312-0.256 1.952 0.32 0.528 0.432 0.912 0.56 1.744 0.56 1.168 0 1.744 0.4 1.744 1.216 0 0.72 0.192 0.832 0.8 0.432 0.416-0.288 0.8-0.32 2.112-0.176 0.88 0.112 2.064 0.176 2.64 0.16 0.912-0.048 1.2 0.064 2.224 0.864 0.848 0.672 1.36 0.912 1.904 0.88 1.264-0.048 3.808 0.272 4.032 0.496 0.112 0.112 0.96 0.208 1.888 0.208 1.472 0 1.776 0.064 2.32 0.544 0.352 0.288 1.040 0.56 1.6 0.656 0.832 0.112 1.152 0.288 1.968 1.264 0.544 0.608 1.264 1.216 1.584 1.36 0.8 0.32 3.232 0.368 3.92 0.064 0.512-0.208 0.656-0.16 1.056 0.272 1.168 1.264 0.080 2.656-2.16 2.72-0.896 0.048-1.584 0.256-2.368 0.672-0.624 0.368-1.232 0.56-1.36 0.48-0.16-0.096-0.736 0.16-1.312 0.56-0.992 0.64-1.168 0.672-2.256 0.544-0.624-0.096-1.376-0.256-1.68-0.336-0.384-0.16-0.592-0.096-0.992 0.384-0.288 0.336-0.912 0.672-1.584 0.832-0.944 0.256-1.12 0.384-1.312 1.040-0.16 0.544-0.32 0.704-0.592 0.64-0.224-0.064-0.384-0.016-0.384 0.096s-0.544 0.208-1.216 0.208c-0.88 0-1.248 0.096-1.328 0.336-0.112 0.256-0.224 0.272-0.576 0.096-0.304-0.176-1.232-0.208-2.752-0.096-2.464 0.176-4.064 0.816-4.336 1.728-0.112 0.368-0.352 0.432-1.44 0.432-1.152 0-1.36 0.064-1.856 0.656-0.48 0.56-0.8 0.672-2.080 0.816-1.584 0.16-2.176 0.496-2.176 1.248 0 0.976-1.568 1.488-2.656 0.912-0.32-0.176-0.592-0.144-1.12 0.16-0.384 0.208-1.2 0.448-1.808 0.544-1.808 0.272-2.8 0.608-3.168 1.072-0.544 0.72-1.184 0.944-2.368 0.8-1.296-0.16-4.112 0.256-5.76 0.832-0.656 0.224-1.056 0.432-0.896 0.432 0.144 0.016 0.256 0.224 0.256 0.448 0 0.288-0.272 0.544-0.88 0.8-0.64 0.256-0.896 0.528-1.008 0.976-0.224 0.912-1.408 3.264-1.968 3.92-0.256 0.32-0.528 0.864-0.576 1.248-0.096 0.928-0.64 0.944-1.52 0.064-0.416-0.4-1.008-0.928-1.296-1.136-0.32-0.224-0.992-0.72-1.536-1.104-1.744-1.264-2.784-1.52-6.208-1.408-1.76 0.064-3.28 0.016-3.664-0.112-0.528-0.208-0.72-0.16-1.152 0.176-0.368 0.288-1.040 0.432-2.368 0.528-2.336 0.16-3.808 0.448-4.272 0.832-0.192 0.176-0.704 0.288-1.12 0.272-0.624-0.048-0.784 0.048-1.056 0.608-0.432 0.832-0.576 0.88-3.968 1.152-3.68 0.288-4.256 0.4-5.008 1.040-0.656 0.56-0.8 0.608-2.224 0.64-0.8 0.016-0.88 0.096-0.8 0.544 0.064 0.528-0.176 0.592-1.888 0.496-0.384-0.016-1.12 0.16-1.648 0.4-1.808 0.912-2.624 1.184-3.44 1.184-0.432 0-0.88-0.064-0.96-0.16s-0.464-0.176-0.8-0.208c-0.352-0.016-0.768-0.16-0.944-0.288-0.416-0.368-0.176-1.376 0.416-1.616 0.352-0.144 0.528-0.448 0.624-1.184 0.064-0.544 0.208-1.344 0.256-1.792 0.112-0.752 0.048-0.864-0.96-1.744-0.912-0.816-1.248-0.944-2.080-0.944-0.736 0-1.168-0.144-1.648-0.56l-0.624-0.56-3.6 0.16c-1.968 0.064-3.696 0.224-3.856 0.336s-0.832 0.256-1.536 0.32c-1.728 0.16-2.624 0.64-2.832 1.536-0.096 0.384-0.336 0.944-0.544 1.248-0.256 0.32-0.416 0.912-0.416 1.472 0 0.528-0.112 1.072-0.256 1.2-0.176 0.176-0.144 0.528 0.176 1.216 0.384 0.912 0.544 1.040 1.744 1.424 0.704 0.256 1.44 0.56 1.632 0.704 0.176 0.16 0.624 0.336 0.944 0.432 0.352 0.096 0.784 0.448 1.056 0.88 0.224 0.4 0.768 0.976 1.184 1.296s0.8 0.752 0.88 0.944c0.096 0.224 0.352 0.56 0.624 0.8s0.656 0.672 0.88 1.040c0.224 0.336 0.576 0.608 0.8 0.608 0.256 0 0.64 0.336 0.96 0.864 0.272 0.448 0.656 0.976 0.848 1.136 0.256 0.224 0.288 0.48 0.144 1.136-0.576 2.336-0.656 2.544-1.296 2.88-0.384 0.224-0.656 0.528-0.656 0.816 0 0.72-0.96 1.568-1.808 1.568-0.384 0-1.056 0.208-1.44 0.448s-0.864 0.448-1.040 0.448c-0.176 0-0.432 0.208-0.592 0.448-0.224 0.336-0.528 0.448-1.2 0.448-0.512 0-0.992 0.112-1.056 0.224-0.064 0.144-0.48 0.224-0.912 0.224-1.008 0-2.592 1.088-4.288 2.944-0.96 1.024-1.408 1.344-1.712 1.248-0.688-0.224-1.2 0.256-1.84 1.744-0.512 1.136-0.64 1.792-0.656 3.12 0 0.944-0.112 1.84-0.208 2s-0.112 0.544-0.048 0.832c0.112 0.432 0.368 0.608 1.12 0.816 0.592 0.16 1.104 0.448 1.312 0.8 0.288 0.48 0.512 0.544 1.632 0.544 1.168 0 1.36 0.064 1.84 0.672 0.304 0.368 0.832 0.72 1.168 0.816 0.352 0.064 1.008 0.384 1.44 0.704 0.784 0.56 0.8 0.56 2.016 0.208 0.656-0.208 1.264-0.48 1.328-0.592 0.064-0.144 0.48-0.224 0.896-0.224 0.96 0 1.168 0.496 0.912 2.352-0.112 0.752-0.144 1.568-0.096 1.76 0.048 0.224 0 0.48-0.144 0.544-0.368 0.256-0.624 1.216-0.384 1.632 0.112 0.208 0.256 0.656 0.32 0.976s0.368 0.864 0.688 1.2c0.304 0.336 0.544 0.704 0.544 0.832s0.304 0.208 0.688 0.208c0.8 0 1.68 0.832 2.048 2.016 0.256 0.768 0.464 0.912 1.952 1.248 0.544 0.144 0.592 0.224 0.592 1.152 0 0.816 0.064 1.024 0.384 1.024 0.224 0 0.96 0.608 1.68 1.36 1.408 1.472 1.968 1.648 3.136 1.040 0.32-0.16 1.12-0.384 1.744-0.48 0.64-0.096 1.424-0.368 1.744-0.64 0.544-0.432 0.576-0.544 0.48-2.144-0.112-1.76 0.016-2.464 0.784-4.048 0.32-0.704 0.592-0.976 0.944-0.976 0.48 0 1.168 0.752 1.168 1.296 0 0.56 1.152 2.112 1.568 2.112 0.304 0 0.48 0.272 0.656 1.024 0.144 0.544 0.368 1.136 0.544 1.264s0.304 0.432 0.304 0.64c0 0.432 0.688 2.464 0.992 2.96 0.432 0.72 0.992 1.92 0.992 2.192 0 0.16 0.304 0.432 0.656 0.64 0.368 0.208 0.656 0.528 0.656 0.752 0 0.672 0.384 0.912 1.248 0.72 0.432-0.112 1.040-0.096 1.408 0.048 0.528 0.176 0.624 0.368 0.624 0.976 0 0.48 0.144 0.8 0.352 0.88 0.416 0.16 0.752 0 0.752-0.384s1.888-1.568 2.592-1.584c1.952-0.064 2.896 0.096 3.44 0.592 0.576 0.496 0.592 0.528 0.32 1.952-0.144 0.768-0.464 1.84-0.688 2.336-0.416 0.816-0.48 1.376-0.544 5.248-0.144 6.912-0.048 8.112 0.688 9.648 0.384 0.8 0.848 2.544 0.8 2.992-0.096 0.72 1.056 2.576 1.84 2.96 0.544 0.272 0.896 0.704 1.312 1.616 0.432 0.944 0.784 1.376 1.488 1.76 0.752 0.432 0.992 0.72 1.296 1.648 0.384 1.248 1.488 2.384 2.288 2.384 0.256 0 0.896 0.16 1.408 0.336s1.696 0.336 2.64 0.336h1.712l0.624 0.832c0.752 1.024 0.992 2.464 0.624 3.616-0.688 2.080-0.8 3.12-0.464 4.288 0.416 1.376 0.64 3.344 0.592 5.456-0.016 1.408 0.048 1.76 0.64 2.832 0.368 0.672 0.688 1.456 0.688 1.728 0 0.32 0.32 0.672 0.88 1.072 0.688 0.448 0.88 0.704 0.88 1.216 0 1.312 0.256 2.112 0.8 2.352 0.464 0.208 0.528 0.368 0.432 0.992-0.096 0.528 0 0.88 0.32 1.296 0.208 0.288 0.416 0.704 0.416 0.912s0.24 0.88 0.544 1.52c0.432 0.88 0.704 1.152 1.232 1.264 0.368 0.064 0.736 0.272 0.8 0.432s-0.048 1.024-0.256 1.856c-0.208 0.864-0.32 2.064-0.288 2.672l0.064 1.104-1.104 0.432c-0.592 0.224-1.52 0.48-2 0.528-1.632 0.176-3.44-1.152-4.288-3.152-0.256-0.544-0.384-0.608-1.472-0.672-1.168-0.064-1.264-0.112-1.664-0.928-0.576-1.152-1.824-1.68-2.8-1.152-0.544 0.288-0.64 0.288-0.752-0.016-0.096-0.208-0.096-0.64-0.016-0.992 0.176-0.912-0.384-1.376-1.648-1.376-0.832 0-1.072-0.096-1.376-0.56-0.192-0.32-0.528-0.56-0.752-0.56s-0.576-0.368-0.8-0.832c-0.32-0.592-0.752-0.944-1.568-1.36-0.64-0.272-1.168-0.608-1.168-0.72s-0.272-0.32-0.592-0.448c-0.352-0.144-0.88-0.48-1.232-0.752-0.368-0.32-0.88-0.496-1.36-0.48-0.576 0.016-0.88-0.112-1.168-0.528-0.224-0.288-0.512-0.544-0.64-0.544s-0.368-0.256-0.544-0.544c-0.256-0.4-0.64-0.592-1.44-0.704-1.008-0.144-1.12-0.224-1.344-0.928-0.16-0.448-0.384-0.768-0.624-0.768-0.192 0-0.896-0.608-1.6-1.344-1.376-1.488-2.288-2.064-3.232-2.064-0.352 0-0.768-0.16-0.912-0.368-0.576-0.704-1.040-0.768-3.136-0.544l-2.080 0.224-0.656-0.64c-0.832-0.816-2.048-0.768-2.432 0.096-0.32 0.768-1.056 0.672-1.904-0.272-0.8-0.864-0.96-1.696-0.384-2.176 1.072-0.912 2.32-2.496 2.544-3.2 0.064-0.272 0.144-0.944 0.16-1.52 0.016-0.912-0.064-1.088-0.752-1.648-0.416-0.336-0.912-0.928-1.104-1.264-0.192-0.432-0.656-0.8-1.312-1.040-0.544-0.224-0.992-0.48-0.992-0.592s-0.304-0.224-0.656-0.32c-0.368-0.096-0.8-0.384-0.992-0.656-0.464-0.704-1.248-1.040-2.496-1.040-0.688 0-1.168-0.112-1.328-0.336-0.16-0.176-0.416-0.336-0.592-0.336s-0.656-0.272-1.072-0.592c-0.624-0.496-0.8-0.544-1.072-0.32-0.288 0.256-0.432 0.208-0.848-0.208-0.464-0.448-0.656-0.496-1.808-0.368-0.8 0.112-1.664 0.048-2.272-0.144-1.296-0.368-5.136-0.368-5.584 0-0.256 0.224-0.464 0.208-0.992-0.064-0.352-0.208-1.008-0.368-1.44-0.368-0.736 0-0.768-0.048-0.768-0.768 0-0.56-0.16-0.88-0.48-1.136-0.384-0.288-0.48-0.56-0.464-1.488 0.048-1.376 0.16-1.584 0.848-1.584 0.784 0 2.592-1.904 2.416-2.56-0.064-0.272-0.144-0.88-0.144-1.36 0-0.768-0.112-0.912-1.040-1.52-0.576-0.384-1.2-0.672-1.424-0.672-0.256 0-0.656-0.4-1.008-1.024-0.32-0.544-0.752-1.024-0.96-1.024-0.192 0-1.072 0.144-1.968 0.32-0.88 0.176-2.224 0.288-3.008 0.256-1.312-0.096-1.424-0.144-1.936-0.912-1.008-1.536-1.2-2.24-0.832-3.152 0.464-1.104 0.432-1.152-0.656-2.384-0.544-0.592-0.992-1.2-0.992-1.312 0-0.336-0.736-0.976-1.168-0.976-0.176 0-0.624-0.272-1.008-0.592-0.464-0.4-0.832-0.544-1.168-0.48-0.416 0.112-0.544-0.016-0.912-0.912-0.24-0.56-0.624-1.104-0.88-1.248-0.256-0.112-0.688-0.336-0.96-0.528-0.368-0.208-0.656-0.256-0.944-0.096s-0.64 0.096-1.248-0.256c-0.48-0.256-0.912-0.544-1.008-0.672-0.064-0.112-0.288-0.224-0.48-0.224s-0.96-0.288-1.68-0.656c-1.216-0.592-1.568-0.656-3.76-0.656-2.048 0-2.592 0.064-3.632 0.528-0.656 0.288-1.424 0.608-1.712 0.672-0.32 0.096-0.544 0.384-0.624 0.816-0.112 0.56-0.224 0.656-0.88 0.656-0.752 0-0.784 0.064-1.040 1.184-0.096 0.368-0.32 0.672-0.64 0.768-0.256 0.096-0.784 0.432-1.168 0.768s-0.8 0.672-0.992 0.72c-0.192 0.064-0.272 0.544-0.304 1.456-0.016 1.296-0.224 3.28-0.432 4.32-0.048 0.272-0.32 0.768-0.624 1.136-0.464 0.592-0.528 0.912-0.656 4.032-0.096 1.872-0.16 4.016-0.144 4.752 0.016 0.768-0.064 1.648-0.208 1.968-0.144 0.384-0.144 0.864 0 1.376 0.176 0.64 0.112 1.040-0.24 2-0.272 0.656-0.656 1.344-0.912 1.52-0.352 0.256-0.384 0.48-0.304 1.072 0.304 1.648-1.408 1.92-2.8 0.448-0.416-0.4-0.912-1.264-1.12-1.904-0.256-0.864-0.48-1.152-0.784-1.152-0.224 0-0.416-0.096-0.416-0.224s-0.32-0.288-0.704-0.4c-0.464-0.112-0.832-0.4-1.008-0.768-0.16-0.336-0.464-0.672-0.704-0.752s-0.512-0.384-0.576-0.656c-0.064-0.288-0.352-0.64-0.656-0.8-0.272-0.144-0.528-0.432-0.528-0.656 0-0.48-2.384-2.88-3.072-3.104-0.256-0.064-0.848-0.64-1.36-1.216-0.528-0.608-1.36-1.312-1.808-1.568-0.48-0.272-1.376-1.072-1.968-1.76-1.936-2.288-1.808-2.192-2.832-2.016-0.48 0.096-1.328 0.176-1.888 0.208-1.168 0.016-1.536 0.224-1.536 0.88 0 0.288-0.064 0.384-0.176 0.256-0.416-0.656-2.864-0.496-3.376 0.224-0.080 0.112-0.432 0.144-0.784 0.064-0.464-0.096-0.912 0.048-1.648 0.48-0.832 0.496-1.168 0.928-1.888 2.352-0.768 1.536-0.88 1.968-0.944 3.6l-0.096 1.84 0.768 0.272c0.736 0.256 0.768 0.288 0.8 1.376 0.016 0.64 0.112 1.568 0.192 2.080 0.224 1.216-0.224 1.968-1.36 2.336-0.464 0.16-0.992 0.432-1.184 0.608s-0.688 0.4-1.104 0.544c-0.416 0.112-1.104 0.544-1.536 0.944-0.752 0.656-0.832 0.912-1.184 2.88-0.72 4.128-0.784 4.912-0.896 10.992-0.144 7.344-0.144 8.672 0.16 9.2 0.352 0.704 0.224 1.584-0.352 2.288-0.528 0.64-0.576 0.864-0.544 2.656 0.016 1.072-0.016 3.008-0.096 4.32-0.080 2.272-0.112 2.384-0.72 2.88-0.624 0.528-0.624 0.528-0.544 2.832 0.048 1.264 0.176 2.464 0.32 2.624 0.192 0.224 0.8 0.272 2.592 0.208 2.080-0.096 2.432-0.16 3.2-0.704 1.232-0.864 2.576-0.752 3.6 0.32 0.352 0.368 0.432 0.752 0.432 1.792 0 1.728-0.544 4.416-1.072 5.328-0.224 0.384-0.464 0.976-0.544 1.312s-0.256 0.752-0.432 0.912c-0.736 0.752-1.040 1.792-0.992 3.328 0.016 0.864-0.048 1.68-0.144 1.84-0.112 0.16-0.16 0.752-0.144 1.264 0.016 0.768-0.096 1.104-0.464 1.488-1.152 1.152-1.744 2.080-1.632 2.56 0.048 0.256-0.064 0.768-0.288 1.152-0.224 0.368-0.464 1.072-0.544 1.568-0.144 0.64-0.432 1.136-1.168 1.856-0.576 0.528-1.168 0.976-1.312 0.976s-0.384 0.32-0.512 0.672c-0.288 0.8-1.072 0.976-1.072 0.224 0-0.256-0.096-0.448-0.192-0.448-0.272 0-0.464 1.744-0.256 2.448 0.096 0.336 0.256 2.032 0.32 3.744 0.144 2.784 0.112 3.168-0.224 3.552-0.208 0.256-0.32 0.592-0.256 0.768 0.096 0.208-0.112 0.656-0.464 1.072-0.384 0.528-0.544 0.928-0.528 1.456 0.064 0.592-0.048 0.752-0.528 0.992-0.576 0.256-0.592 0.32-0.48 1.728 0.112 1.36 0.096 1.472-0.416 1.808s-0.528 0.48-0.512 2.448c0.016 1.152 0.016 2.224 0.016 2.352-0.016 0.16-0.32 0.432-0.688 0.64-0.464 0.256-0.704 0.608-0.88 1.248-0.112 0.496-0.32 1.312-0.432 1.808-0.176 0.656-0.352 0.912-0.656 0.912-0.432 0-0.528 0.224-0.736 1.92-0.096 0.608-0.32 1.088-0.704 1.424-0.528 0.48-0.592 0.704-0.592 1.968-0.016 1.312-0.064 1.456-0.528 1.584-0.352 0.096-0.512 0.288-0.512 0.656 0 0.288-0.256 1.088-0.544 1.76s-0.544 1.424-0.544 1.696c0 0.288-0.192 0.64-0.464 0.8-0.8 0.528-1.424 2.784-1.312 4.832 0 0.384 0.048 0.976 0.048 1.312 0.016 0.368-0.176 0.912-0.432 1.248-1.2 1.568-1.808 2.656-1.68 3.2 0.096 0.336 0 0.672-0.256 0.976s-0.384 0.816-0.384 1.536c0 0.928-0.096 1.184-0.592 1.584-0.576 0.448-0.624 0.608-0.624 2.128 0 0.912-0.064 2.576-0.16 3.744-0.128 2.064-0.128 2.080-0.8 2.384-0.368 0.16-0.8 0.48-0.992 0.672-0.384 0.496-1.424 1.040-1.936 1.040-0.224 0-0.624-0.224-0.848-0.528zM264.656 343.456c0-0.112 0.416-0.496 0.912-0.816 0.512-0.336 1.12-0.8 1.376-1.024 0.24-0.256 0.576-0.432 0.752-0.432s0.624-0.256 0.992-0.544c0.832-0.64 1.28-0.752 2.432-0.496 0.688 0.144 0.912 0.096 1.36-0.336s1.776-1.040 3.264-1.488c0.256-0.064 0.752-0.4 1.104-0.752 0.96-0.88 1.776-1.36 2.992-1.728 0.88-0.272 1.136-0.48 1.376-1.072 0.144-0.4 0.624-1.040 0.992-1.424s1.104-1.040 1.568-1.488c0.48-0.48 1.072-0.864 1.328-0.864s0.896-0.384 1.408-0.832c0.512-0.48 1.072-0.944 1.264-1.088 0.512-0.288 0.848-2.192 0.912-4.976 0.048-1.92 0-2.336-0.32-2.72-0.208-0.256-0.432-0.816-0.48-1.248-0.064-0.704-0.16-0.816-0.88-0.992-0.688-0.176-0.832-0.32-0.912-0.912-0.512-3.616-0.656-4.624-0.832-5.12-0.112-0.32-0.192-0.976-0.224-1.472s-0.144-1.2-0.272-1.584c-0.16-0.368-0.352-1.072-0.416-1.568s-0.288-1.072-0.48-1.296c-0.208-0.224-0.32-0.608-0.256-0.864 0.048-0.256 0.016-0.88-0.096-1.424-0.16-0.72-0.368-1.072-0.848-1.36-0.736-0.432-0.992-1.216-1.184-3.744-0.112-1.472-0.096-1.68 0.368-2.224 0.48-0.592 0.512-0.592 1.968-0.336 1.008 0.176 1.536 0.4 1.68 0.672 0.112 0.224 0.48 0.48 0.8 0.56 0.688 0.16 2.704 1.424 2.704 1.68 0 0.176 2.304 1.264 3.136 1.472 0.32 0.096 0.72 0.384 0.848 0.704 0.32 0.752 0.752 0.864 1.936 0.544 0.912-0.256 1.104-0.224 2.080 0.336 0.624 0.32 1.408 0.592 1.808 0.592 0.528 0 0.8 0.16 1.072 0.56 0.384 0.64 0.944 0.704 2.064 0.288 0.544-0.176 0.96-0.176 1.744 0.016 0.832 0.224 1.296 0.208 2.384-0.048 2-0.48 2.992-1.296 3.552-2.896 0.544-1.52 1.584-2.848 2.992-3.856 1.856-1.344 3.264-2.992 3.68-4.368 0.256-0.752 0.32-1.536 0.256-1.952-0.064-0.448 0-0.944 0.192-1.376 0.272-0.528 0.48-0.656 1.104-0.656 0.688 0 0.768-0.064 1.008-0.944 0.16-0.544 0.384-1.136 0.576-1.344 0.16-0.176 0.272-0.768 0.272-1.264 0-0.56 0.256-1.424 0.656-2.24 0.784-1.616 0.8-2.464 0.144-3.664l-0.512-0.912 0.304-3.376c0.256-2.496 0.256-3.536 0.064-4.016-0.176-0.496-0.176-0.752 0.016-0.976 0.304-0.384-0.624-1.808-2.016-3.104-0.544-0.528-1.424-1.36-1.968-1.904-1.6-1.584-1.68-1.632-2.208-1.632-0.288 0-0.864-0.224-1.28-0.528-0.416-0.272-1.008-0.672-1.312-0.88s-0.96-0.496-1.44-0.64c-1.264-0.368-2.256-0.928-2.368-1.36-0.096-0.32-1.696-0.944-3.392-1.264-0.416-0.096-0.96-0.448-1.36-0.928-0.848-0.992-2.256-1.648-3.2-1.488-0.384 0.064-1.28 0.048-1.936-0.016-1.072-0.16-1.216-0.224-1.424-0.864-0.144-0.384-0.432-0.832-0.688-1.024-0.432-0.32-0.432-0.336 0.208-0.992 0.352-0.368 0.688-0.864 0.784-1.088 0.064-0.224 0.416-0.56 0.8-0.704s0.8-0.528 0.992-0.8c0.416-0.656 0.912-0.8 1.744-0.432 0.752 0.32 2.048 0.176 2.544-0.288 0.304-0.272 0.384-0.256 0.624 0.048 0.368 0.48 0.544 0.432 0.832-0.224 0.144-0.32 0.384-0.56 0.576-0.56s1.040-0.656 1.888-1.456c0.88-0.816 1.84-1.488 2.208-1.584 0.416-0.096 0.736-0.336 0.912-0.752 0.144-0.368 0.784-1.152 1.408-1.792 0.704-0.704 1.232-1.456 1.312-1.856 0.144-0.768 1.072-1.376 1.488-0.944 0.384 0.4 1.376 0.256 2.688-0.48 0.688-0.384 1.376-0.768 1.52-0.88 0.112-0.096 0.512-0.176 0.848-0.176 1.056 0.016 1.744-0.928 1.84-2.544 0.096-1.184 0.016-1.488-0.368-2.032-0.288-0.4-0.464-0.992-0.464-1.536 0-0.528-0.176-1.104-0.416-1.424-0.208-0.288-0.464-0.912-0.544-1.36s-0.432-1.248-0.8-1.76c-0.368-0.496-0.656-0.976-0.656-1.040 0-0.096-0.192-0.608-0.464-1.184-0.256-0.56-0.512-1.376-0.576-1.792-0.112-0.72-0.176-0.768-0.8-0.64-0.832 0.16-1.216-0.224-1.568-1.456-0.208-0.768-0.768-1.264-2-1.84-0.256-0.112-0.528-0.384-0.592-0.56-0.096-0.208-0.384-0.368-0.736-0.368s-0.832-0.16-1.104-0.336c-0.416-0.32-0.704-0.32-2.528 0-1.12 0.208-2.528 0.48-3.104 0.656-0.624 0.16-1.488 0.224-2.112 0.128-0.64-0.096-1.312-0.016-1.696 0.16-0.352 0.128-0.848 0.272-1.12 0.288-0.256 0-1.184 0.4-2.048 0.928-1.68 0.976-3.12 1.312-5.6 1.344-1.104 0-1.632 0.16-2.912 0.816s-1.776 0.8-2.496 0.72c-0.512-0.064-1.232 0.048-1.632 0.208-0.688 0.272-0.736 0.272-1.008-0.288l-0.272-0.592-0.624 0.832c-0.32 0.448-0.832 0.912-1.104 1.024s-0.768 0.72-1.12 1.456l-0.624 1.264 0.576 0.864c0.352 0.48 0.592 1.184 0.592 1.584 0 0.48 0.208 0.976 0.656 1.472 0.752 0.88 0.784 1.296 0.464 3.216-0.304 1.792-0.352 1.68 0.512 2.032 1.056 0.448 1.648 1.808 1.584 3.744-0.016 0.816-0.112 1.584-0.192 1.728-0.144 0.256-0.192 2.96-0.16 7.2 0 0.864 0.144 1.728 0.256 1.872 0.144 0.176 0.256 0.752 0.32 1.264s0.144 1.744 0.224 2.72c0.144 1.616 0.112 1.808-0.336 2.224-0.32 0.32-0.464 0.72-0.464 1.376s-0.176 1.216-0.576 1.808c-0.512 0.752-0.544 0.928-0.32 1.568 0.144 0.4 0.256 0.928 0.256 1.2s0.192 0.72 0.432 1.040c0.272 0.368 0.432 0.928 0.432 1.52 0 0.8 0.112 1.040 0.688 1.52 0.64 0.496 0.688 0.64 0.48 1.2-0.16 0.448-0.144 0.976 0.064 1.872 0.384 1.68 0.736 2.272 1.216 2.272 0.24 0 0.368 0.096 0.304 0.208s-0.24 1.040-0.368 2.080c-0.144 1.040-0.32 2.416-0.416 3.040s-0.256 1.616-0.352 2.224c-0.144 1.024-0.176 1.072-0.832 1.072-0.576 0-0.88 0.208-1.536 1.024-0.48 0.56-0.96 1.024-1.12 1.024s-0.384 0.144-0.528 0.32c-0.144 0.176-0.528 0.384-0.832 0.48-1.312 0.336-2.912 1.344-3.36 2.080-0.208 0.4-0.576 0.752-0.768 0.752-0.176 0-0.32 0.096-0.32 0.224s-0.304 0.56-0.688 1.024c-0.528 0.608-0.768 0.752-1.056 0.56-0.384-0.208-1.36-0.048-2.496 0.432-0.352 0.144-1.36 0.256-2.256 0.256-2.336 0-3.232 0.336-4.48 1.744-1.232 1.376-1.632 2.656-1.168 3.6 0.416 0.816 0.384 0.992-0.176 0.992-0.832 0-1.104 0.32-1.040 1.184 0.048 0.48-0.080 1.040-0.304 1.408-0.288 0.432-0.352 0.816-0.256 1.424 0.112 0.656 0.064 0.88-0.256 1.136-0.352 0.256-0.416 0.656-0.464 2.512-0.016 1.2 0.048 2.672 0.192 3.232 0.224 0.944 0.192 1.104-0.368 2.112-0.32 0.592-0.72 1.104-0.848 1.152s-0.512 0.144-0.832 0.208c-0.32 0.096-0.656 0.336-0.736 0.608-0.144 0.4-0.272 0.48-0.992 0.368-0.592-0.064-0.88-0.016-0.96 0.208-0.064 0.16-0.368 0.368-0.688 0.448-0.416 0.112-0.544 0.288-0.544 0.768 0 0.656-0.32 1.040-0.96 1.152-0.464 0.112-1.072 1.216-1.472 2.688-0.16 0.56-0.624 1.376-1.056 1.872l-0.784 0.864-1.968-0.048c-1.072-0.016-2.176 0.016-2.432 0.112-0.352 0.112-0.512 0.016-0.688-0.4-0.16-0.336-0.512-0.608-0.912-0.704s-0.896-0.368-1.136-0.608c-0.32-0.336-0.512-0.384-0.688-0.208-0.528 0.544-1.152 0.272-1.712-0.832-0.544-1.024-0.576-1.104-0.32-2.192 0.32-1.264 0.112-1.872-0.784-2.4-0.384-0.208-0.528-0.176-0.688 0.112-0.112 0.208-0.352 0.368-0.528 0.368s-0.48 0.384-0.688 0.832c-0.176 0.48-0.72 1.296-1.168 1.856-0.688 0.8-0.848 1.184-0.848 1.904s-0.144 1.040-0.848 1.76c-0.624 0.64-1.040 0.88-1.52 0.88-0.368 0-0.736 0.112-0.8 0.224-0.416 0.704-1.856-0.48-1.856-1.52 0-0.864-0.352-1.2-1.232-1.2-0.992 0-1.408-0.208-1.408-0.672 0-0.224-0.176-0.48-0.368-0.544-0.208-0.096-0.688-0.56-1.056-1.072s-0.992-1.184-1.376-1.472c-0.384-0.32-0.848-0.912-1.008-1.344-0.384-0.944-0.96-1.264-1.808-1.040-0.576 0.16-0.736 0.048-1.744-1.072-0.944-1.072-1.152-1.472-1.376-2.72-0.16-0.816-0.48-1.872-0.736-2.384-0.384-0.8-0.432-1.152-0.32-3.504 0.064-1.456 0.176-2.848 0.256-3.104 0.16-0.656-0.32-2.624-0.704-2.928-0.352-0.272-0.544-3.152-0.24-3.776 0.128-0.288-0.016-0.496-0.768-0.928-0.8-0.448-0.96-0.656-1.056-1.424-0.112-0.88-0.16-0.912-0.992-0.976-0.48-0.048-0.96-0.208-1.104-0.368-0.48-0.656-1.2-0.832-2.592-0.672-0.736 0.096-1.472 0.256-1.632 0.368-0.128 0.112-0.432 0.176-0.656 0.144s-0.8 0.144-1.28 0.368c-1.168 0.592-2.176 0.496-3.664-0.256-1.056-0.544-1.296-0.8-1.6-1.616-0.208-0.544-0.656-1.2-1.008-1.456s-0.624-0.672-0.624-0.88c0-0.224-0.32-0.832-0.736-1.376s-0.8-1.264-0.88-1.616c-0.096-0.32-0.48-0.912-0.848-1.264-0.688-0.656-0.688-0.704-0.656-2.56 0.016-1.040-0.048-2.688-0.128-3.712-0.096-0.992-0.096-2.176 0-2.608 0.112-0.592 0.064-0.912-0.256-1.376-0.368-0.528-0.432-0.992-0.432-2.848 0-2.304-0.32-3.824-1.008-4.592-0.416-0.48-0.256-0.832 0.48-1.104 0.288-0.112 0.576-0.48 0.656-0.816 0.176-0.672 1.328-2.576 1.584-2.576s1.152-1.472 1.152-1.904c0-0.224 0.256-0.704 0.544-1.088 0.688-0.864 0.688-1.152-0.112-2.784-0.368-0.752-0.656-1.632-0.656-1.968 0-0.48-0.112-0.64-0.416-0.64-0.24 0-0.512-0.128-0.592-0.272-0.384-0.656-0.368-11.28 0.016-12.528s0.48-2.272 0.176-2.624c-0.128-0.176-0.32-0.544-0.368-0.816-0.112-0.432-0.016-0.56 0.624-0.832s0.8-0.496 1.008-1.312c0.512-2.016 0.912-3.12 1.264-3.392 0.192-0.16 0.512-0.56 0.688-0.912s0.48-0.672 0.688-0.752c0.544-0.176 1.104-1.568 1.232-3.12 0.176-2.144 0.256-2.416 0.736-2.416 0.256 0 0.896-0.432 1.424-0.928 0.912-0.88 0.992-1.024 0.992-2.112 0-1.616 0.176-1.808 1.36-1.632 0.896 0.128 0.96 0.112 1.232-0.48 0.16-0.368 0.576-1.2 0.912-1.872 0.368-0.672 0.656-1.36 0.656-1.488 0-0.16 0.8-1.104 1.808-2.128 1.6-1.616 1.856-1.808 2.416-1.68 0.368 0.064 0.736 0.016 0.96-0.176 0.192-0.16 1.008-0.336 1.792-0.4 1.232-0.096 1.44-0.176 1.536-0.56 0.096-0.544 0.416-0.8 1.056-0.8 0.256 0 0.656-0.272 0.896-0.608 0.416-0.592 0.544-0.64 2.016-0.608 1.296 0.048 1.68-0.048 2-0.384 0.208-0.224 0.592-0.432 0.784-0.432 0.512 0 1.168-0.656 1.168-1.152s1.232-2.016 1.632-2.016c0.112 0 0.624 0.256 1.056 0.56 0.96 0.672 1.408 0.704 1.696 0.128 0.112-0.224 0.512-0.544 0.832-0.672 0.96-0.4 1.68-0.864 1.856-1.216 0.112-0.208 0.72-0.384 1.488-0.48 0.72-0.096 1.376-0.256 1.44-0.368 0.208-0.32 1.584-0.272 2.080 0.048 0.352 0.224 0.528 0.224 0.88 0 0.688-0.432 1.040-0.32 1.296 0.4 0.112 0.384 0.352 0.672 0.528 0.672s0.576 0.256 0.896 0.56c0.736 0.672 1.568 0.928 1.968 0.56 0.176-0.128 0.848-0.32 1.488-0.384 0.912-0.096 1.264-0.048 1.472 0.256 0.16 0.208 0.464 0.368 0.656 0.368s0.704 0.256 1.12 0.544c1.152 0.8 1.52 0.832 3.648 0.592 1.888-0.224 1.968-0.208 2.32 0.272 0.752 0.992 1.152 1.344 1.44 1.2 0.176-0.064 0.464 0.064 0.624 0.32 0.368 0.528 1.52 1.152 2.112 1.152 0.624 0 1.264 0.432 1.264 0.832 0 0.288 0.192 0.32 1.216 0.176 1.168-0.128 1.248-0.112 2.080 0.656 0.48 0.448 1.040 0.816 1.232 0.816 0.176 0 0.48 0.368 0.656 0.8 0.224 0.544 0.512 0.832 0.912 0.928 0.32 0.096 1.152 0.432 1.808 0.8s1.36 0.672 1.568 0.752c0.224 0.064 0.416 0.448 0.512 1.024 0.064 0.528 0.224 0.928 0.32 0.928s0.64 0.448 1.2 0.976c0.704 0.672 1.008 1.104 0.912 1.36-0.112 0.256 0 0.368 0.368 0.432 0.352 0.048 0.528 0.256 0.576 0.64 0.048 0.336 0.304 0.72 0.656 0.928 0.368 0.224 0.736 0.704 0.912 1.312s0.576 1.152 0.96 1.456c0.88 0.64 1.216 1.072 1.232 1.632 0 0.336 0.288 0.56 1.072 0.864 1.808 0.656 1.776 0.672 4.448-2.064 0.576-0.592 1.056-1.184 1.056-1.312s0.416-0.544 0.944-0.912c1.408-0.976 1.52-1.152 1.328-2.576-0.096-0.672-0.288-1.456-0.432-1.696-0.656-0.944-0.224-2.832 0.656-2.832 0.544 0 0.592-0.096 0.88-1.408 0.192-0.88 2.064-2.672 2.8-2.672 0.512 0 0.624-0.112 0.72-0.8 0.112-0.608 0.368-0.928 1.040-1.376 1.072-0.672 2.32-1.952 3.136-3.216 0.512-0.752 0.592-1.088 0.48-1.728-0.16-0.832-0.384-1.136-1.232-1.376-0.656-0.208-0.88-0.496-0.88-1.184 0-0.272-0.32-0.752-0.704-1.088s-0.896-0.752-1.152-0.944c-0.32-0.272-0.368-0.528-0.256-1.216s0.016-1.184-0.416-2.112c-0.32-0.656-0.544-1.344-0.544-1.52s-0.32-0.928-0.656-1.68c-0.352-0.752-0.656-1.616-0.656-1.904 0-0.704-2.128-2.832-2.768-2.768-0.32 0.016-0.64-0.176-0.912-0.608-0.32-0.48-0.8-0.752-1.808-1.024-0.736-0.224-1.424-0.336-1.536-0.272s-0.352-0.16-0.528-0.528c-0.368-0.752-0.752-0.944-1.68-0.944-0.416 0-0.88-0.256-1.328-0.704-0.512-0.496-0.832-0.656-1.184-0.56s-0.592 0-0.8-0.32c-0.192-0.288-0.832-0.56-1.808-0.816-2.32-0.56-3.008-0.8-3.44-1.184-0.304-0.288-0.944-0.368-3.024-0.384-1.424 0-2.608-0.064-2.608-0.128 0-0.448-1.632-0.656-3.472-0.448-0.144 0-0.48 0.272-0.752 0.592s-0.576 0.56-0.704 0.56c-0.624 0-2.224 1.104-2.32 1.616-0.192 0.832-1.52 1.216-3.2 0.912-1.648-0.288-2.944-0.32-2.944-0.048 0 0.112-0.48 0.448-1.072 0.768-1.264 0.656-5.504 5.008-5.504 5.664 0 0.112-0.432 0.656-0.992 1.216s-0.992 1.2-0.992 1.424c0 0.72-0.592 1.024-1.408 0.72-0.384-0.16-0.88-0.272-1.072-0.272-0.48 0-1.696-1.92-1.696-2.736 0-0.72-0.592-1.472-1.44-1.792-0.512-0.208-0.544-0.32-0.384-0.976 0.224-0.976 0.16-1.76-0.224-2.688-0.384-0.944-2.944-2.576-3.888-2.496-0.352 0.048-0.88-0.112-1.232-0.384-0.688-0.528-1.152-0.592-3.504-0.528-1.328 0.048-1.68 0.128-2.080 0.544-0.416 0.432-0.736 0.496-1.936 0.496-0.8-0.016-1.952-0.112-2.576-0.208-1.104-0.16-1.168-0.128-1.168 0.32 0 0.528-0.576 0.64-1.264 0.272-0.64-0.336-2.528-0.672-3.584-0.656-0.944 0.016-1.040 0.096-1.264 0.8-0.288 0.768-0.48 0.832-1.824 0.752-0.528-0.016-1.008 0.16-2.992 1.248-0.384 0.208-0.832 0.64-0.96 0.928-0.176 0.4-0.416 0.544-0.944 0.544-0.368 0-0.768 0.096-0.88 0.208s-1.2 0.64-2.416 1.152c-1.216 0.544-2.336 1.104-2.544 1.264-0.176 0.176-0.576 0.32-0.88 0.32-0.272 0-0.96 0.224-1.52 0.496s-1.328 0.56-1.744 0.64c-0.528 0.064-0.784 0.256-0.848 0.56-0.048 0.256-0.368 0.816-0.768 1.264-1.424 1.744-1.744 2.496-1.776 4.672-0.016 1.264-0.176 2.304-0.416 2.88-0.272 0.656-0.32 1.248-0.224 2.272 0.064 0.768 0.016 1.648-0.096 1.968-0.192 0.48-0.128 0.864 0.256 1.904 0.288 0.704 0.64 1.408 0.768 1.536s0.256 0.432 0.256 0.64c0 0.224 0.112 0.48 0.224 0.544s0.208 0.48 0.208 0.912 0.176 0.928 0.384 1.152c0.432 0.448 0.912 1.952 0.912 2.896 0 0.448 0.24 0.88 0.848 1.472 0.464 0.448 0.96 1.040 1.104 1.312 0.32 0.64 0.32 4.080 0 4.256-0.112 0.096-0.32 0.4-0.416 0.704-0.256 0.64-0.352 0.64-2 0.256-0.656-0.176-1.408-0.224-1.648-0.128-1.104 0.448-2.192 0.176-4.736-1.184-0.432-0.224-1.248-0.432-1.792-0.432s-1.040-0.096-1.104-0.208c-0.064-0.112-0.768-0.272-1.536-0.368-0.784-0.064-1.888-0.272-2.48-0.432-0.688-0.176-1.264-0.224-1.696-0.096-0.352 0.112-1.184 0.128-1.824 0.064-0.8-0.096-1.328-0.016-1.808 0.224-0.352 0.208-1.040 0.336-1.472 0.32-0.624-0.048-0.96 0.064-1.312 0.432-0.544 0.56-0.624 0.592-1.536 0.256-0.88-0.32-1.68 0.064-1.52 0.72 0.096 0.288-0.048 0.544-0.32 0.72-0.384 0.256-1.264 1.792-1.264 2.272 0 0.112-0.384 0.656-0.88 1.2s-0.88 1.184-0.88 1.408c0 0.256-0.192 0.656-0.432 0.944s-0.432 0.704-0.432 0.928-0.096 0.48-0.208 0.544c-0.128 0.064-0.224 0.384-0.224 0.656s-0.192 0.8-0.432 1.104c-0.224 0.304-0.432 0.72-0.432 0.912 0 0.176-0.16 0.448-0.32 0.608s-0.32 0.48-0.32 0.72c0 0.432-0.576 1.376-1.408 2.4-0.368 0.4-0.464 0.88-0.48 2.496-0.048 1.088-0.112 3.232-0.16 4.8-0.112 3.216 0.224 5.024 1.056 5.712 0.288 0.224 0.544 0.64 0.64 0.944 0.16 0.672 0.88 0.832 3.552 0.832 1.68-0.016 2.112 0.064 2.576 0.432 0.32 0.272 0.88 0.448 1.408 0.448 0.592 0 1.008 0.16 1.44 0.56 0.32 0.32 0.592 0.672 0.592 0.8s0.912 0.224 2.16 0.224c1.408 0 2.528 0.128 3.2 0.368 0.592 0.208 1.36 0.32 1.744 0.256 0.656-0.112 0.8-0.016 1.472 0.88 0.384 0.544 0.832 0.992 1.008 0.992 0.528 0 0.768 0.832 0.416 1.536-0.464 0.912-0.896 1.248-1.44 1.072-0.592-0.176-1.104 0.256-1.104 0.928 0 0.592-0.576 0.992-1.376 0.992-0.32 0-0.592 0.144-0.656 0.32-0.096 0.208-0.624 0.384-1.488 0.48-1.584 0.176-2.176 0.496-2.176 1.088 0 0.256-0.192 0.48-0.464 0.544-0.256 0.096-0.944 0.384-1.488 0.704-0.544 0.288-1.264 0.672-1.568 0.832s-1.12 0.528-1.808 0.8c-0.688 0.272-1.264 0.592-1.264 0.672 0 0.224-1.888 0.912-2.528 0.912-0.256 0-0.864 0.32-1.312 0.672-0.464 0.384-0.992 0.672-1.168 0.672-0.704 0-0.896 0.496-0.896 2.176 0 0.944-0.112 1.728-0.256 1.808-0.256 0.16-0.096 1.856 0.288 2.72 0.256 0.608 0.048 1.632-0.8 3.584-0.368 0.928-0.464 1.488-0.384 3.168 0.048 1.84 0.128 2.144 0.688 2.96 0.32 0.496 0.8 1.216 0.992 1.632 0.32 0.656 0.384 0.704 1.056 0.528 0.72-0.224 1.264 0.016 1.264 0.592 0 0.4 0.704 0.768 1.536 0.768 0.624 0 0.656 0.016 0.384 0.528-0.16 0.288-0.256 1.264-0.224 2.544 0.016 1.136-0.048 2.384-0.16 2.784-0.192 0.656-0.16 0.8 0.576 1.52 0.432 0.448 1.008 0.8 1.296 0.8 0.368 0 0.688 0.272 1.072 0.912 0.704 1.152 1.168 1.376 2.384 1.216 0.912-0.144 1.056-0.096 1.68 0.608 0.576 0.64 0.736 0.704 1.072 0.48 0.272-0.176 0.768-0.176 1.696-0.048 0.704 0.144 1.936 0.256 2.736 0.272 1.2 0.064 1.536-0.016 2.224-0.496 0.432-0.32 0.88-0.768 0.992-0.992 0.16-0.368 0.432-0.448 1.488-0.496 0.704-0.016 1.744-0.112 2.288-0.224 1.52-0.32 2.176-0.16 2.608 0.608 0.352 0.592 0.432 0.64 0.688 0.32 0.144-0.176 0.352-0.272 0.464-0.208 0.432 0.272 0.016 3.264-0.464 3.264-0.096 0-0.464 0.544-0.832 1.2-0.464 0.832-0.624 1.376-0.544 1.872 0.096 0.608-0.048 0.864-0.896 1.728-0.544 0.56-1.008 1.2-1.008 1.424s-0.256 0.752-0.544 1.152c-0.32 0.4-0.544 0.992-0.544 1.344 0 0.32-0.16 1.104-0.352 1.728-0.416 1.296-0.352 3.584 0.128 4.16 0.368 0.48 0.528 3.984 0.256 5.344-0.256 1.152 0.096 1.92 0.896 2.064 0.368 0.048 0.528 0.256 0.624 0.752 0.096 0.544 0.24 0.704 0.688 0.752 0.512 0.064 0.656 0.224 0.832 0.944 0.32 1.152 0.912 1.584 2.32 1.584s1.6 0.16 1.808 1.248c0.16 0.864 0.224 0.912 1.040 0.976 0.48 0.048 0.992 0.176 1.152 0.32 0.656 0.56 3.728 2 4.272 2s0.624 0.096 0.624 0.672c0 0.496 0.128 0.752 0.464 0.88 0.256 0.096 0.736 0.56 1.056 1.072 0.384 0.56 0.8 0.928 1.216 0.992 0.432 0.096 0.72 0.336 0.992 0.912 0.352 0.768 0.416 0.8 1.888 0.944 0.848 0.096 1.744 0.272 2.048 0.4s0.832 0.224 1.264 0.224 1.344 0.208 2.016 0.432c2.048 0.704 3.696 1.152 4.272 1.152 0.32 0 0.736 0.208 0.912 0.432 0.304 0.336 0.576 0.4 1.264 0.288 0.8-0.112 0.944-0.048 1.52 0.656l0.592 0.752 1.488-0.256c1.376-0.256 1.568-0.224 2.176 0.16 1.264 0.8 5.088 0.336 5.696-0.656 0.096-0.144 0.384-0.256 0.688-0.256 0.32 0 0.624-0.208 0.784-0.496 0.128-0.272 0.432-0.704 0.656-0.944 0.256-0.256 0.416-0.592 0.416-0.768 0-0.288 3.856-4.352 4.176-4.352 0.096 0 0.272-0.224 0.368-0.528 0.224-0.496 0.32-0.528 1.648-0.384 1.648 0.176 2 0.368 3.072 1.52 0.768 0.816 2.784 4.56 3.072 5.632 0.064 0.272 0.656 0.912 1.328 1.408 1.12 0.864 2 1.808 2.176 2.336 0.048 0.112 0.592 0.272 1.216 0.368 0.64 0.064 1.264 0.272 1.408 0.432s0.384 0.32 0.576 0.32c0.192 0 0.592 0.208 0.896 0.48 0.528 0.4 0.8 0.448 3.232 0.336 1.44-0.064 2.96-0.048 3.376 0.048 1.264 0.272 2.864 0.288 2.864 0.048zM246.768 299.52c0.32 0 0.88-0.32 1.312-0.704 0.688-0.608 0.768-0.832 0.768-1.744 0-1.2-0.528-2.88-1.152-3.584-0.208-0.256-0.384-0.752-0.384-1.104s-0.208-0.88-0.48-1.2c-0.416-0.432-0.528-0.912-0.624-2.496-0.256-3.584-0.528-4.576-1.472-5.552-0.848-0.864-0.88-0.88-2.656-0.88-0.96-0.016-1.84 0.016-1.904 0.112-0.064 0.064-0.176 0.544-0.224 1.072-0.096 1.104-0.736 2.688-1.264 3.152-0.208 0.16-0.368 0.48-0.368 0.672 0 0.448-0.736 1.76-1.472 2.544-0.368 0.432-0.544 0.912-0.624 1.648-0.048 0.672-0.224 1.248-0.512 1.568-0.624 0.704-0.784 1.472-0.464 1.872 0.224 0.272 0.224 0.448 0.016 0.768-0.208 0.384-0.144 0.496 0.704 1.024 0.512 0.32 1.2 0.56 1.52 0.56s0.768 0.224 1.008 0.496c0.48 0.528 1.68 0.816 3.952 0.976 1.856 0.144 2.576 0.288 2.896 0.704 0.16 0.176 0.416 0.272 0.576 0.208s0.544-0.112 0.832-0.112zM263.232 280.448c0.48 0 1.168 0.064 1.536 0.144 0.384 0.096 0.848 0.016 1.152-0.144 0.256-0.16 1.44-0.88 2.656-1.584 1.36-0.832 2.416-1.312 2.832-1.312 0.72 0 1.264-0.4 1.488-1.104 0.064-0.256 0.256-0.496 0.464-0.56 0.176-0.064 0.512-0.56 0.736-1.104 0.304-0.704 0.592-1.040 0.992-1.152 0.304-0.064 0.688-0.432 0.896-0.832 0.208-0.368 0.544-0.88 0.768-1.104 0.256-0.256 0.48-0.72 0.544-1.072 0.064-0.368 0.224-1.104 0.352-1.696 0.288-1.264-0.144-2.944-1.040-4.144l-0.576-0.8h-2.112c-2.048 0-2.128 0.016-2.592 0.64-0.464 0.56-0.64 0.608-2.864 0.8-1.296 0.096-2.72 0.176-3.136 0.176-0.896 0-2.128 0.88-2.32 1.648-0.064 0.288-0.32 0.656-0.592 0.816s-0.912 0.816-1.472 1.52c-1.424 1.76-2.848 3.232-3.168 3.232-0.16 0-0.32 0.144-0.384 0.288-0.192 0.528-1.584 1.072-2.32 0.928-0.464-0.096-0.864-0.016-1.232 0.224-0.32 0.208-0.656 0.32-0.768 0.256s-0.464 0.144-0.768 0.432c-0.464 0.448-0.592 0.8-0.592 1.616-0.016 0.928 0.064 1.152 0.848 1.968 0.832 0.832 0.992 0.928 2.224 0.976 0.992 0.048 1.584 0.224 2.256 0.656 0.896 0.592 1.040 0.592 3.136 0.448 1.216-0.064 2.592-0.144 3.072-0.144zM227.968 280c0.128-0.144 0.688-0.224 1.264-0.224 1.12 0.048 1.104 0.064 3.12-2.080 0.624-0.672 1.408-1.296 1.696-1.36 0.32-0.096 0.48-0.256 0.416-0.368-0.080-0.144-0.176-0.656-0.24-1.2-0.096-0.912-0.512-1.52-1.072-1.52-0.16 0-0.368-0.256-0.512-0.544-0.32-0.72-2.576-1.792-3.392-1.632-0.432 0.096-0.8 0-1.184-0.32-0.416-0.336-0.656-0.384-0.944-0.224-0.832 0.448-1.232 0.272-1.52-0.672-0.176-0.592-0.464-1.024-0.864-1.216-0.32-0.176-0.784-0.544-1.008-0.8-0.32-0.368-0.592-0.448-1.040-0.368-0.72 0.176-2.064-0.384-2.368-0.976-0.352-0.704-1.76-1.424-2.64-1.408-1.36 0.064-1.52 0.016-1.904-0.672-0.224-0.368-0.768-0.816-1.2-0.992-0.464-0.176-0.88-0.448-0.96-0.592-0.064-0.112-0.8-0.224-1.632-0.224-1.296 0-1.536 0.064-2 0.592-0.432 0.448-0.688 0.544-1.312 0.448-0.656-0.112-0.896-0.016-1.584 0.608-0.896 0.816-0.848 0.608-0.736 4.688 0.048 1.632 0.16 2.128 0.736 3.28 0.848 1.744 2.144 3.12 3.264 3.472 0.896 0.272 2.256 1.584 2.256 2.176 0 0.384 1.408 0.928 1.856 0.72 0.192-0.064 0.464 0.096 0.688 0.4 0.432 0.72 1.072 0.864 3.808 0.832 1.264 0 2.656 0.064 3.072 0.176 1.168 0.32 5.584 0.288 5.872-0.016z"></path>
<path fill="#fff" d="M344.976 40.656c0-0.272 0.144-0.48 0.352-0.48s0.32 0.16 0.256 0.384c-0.112 0.56-0.624 0.64-0.624 0.096z"></path>
</svg>
