<!-- Generated by IcoMoon.io -->
<svg version="1.1" xmlns="http://www.w3.org/2000/svg" width="512" height="512" viewBox="0 0 512 512">
<title>misc-wait</title>
<path fill="#fff" d="M108.544 235.424c0-0.016 0.016 0.064 0 0z"></path>
<path fill="#fff" d="M288.32 109.312c0.016-0.016 0.016-0.032 0.032-0.048-0.208-0.112-0.176-0.064-0.032 0.048z"></path>
<path fill="#fff" d="M388.448 236.832c0.032-0.016 0.048-0.048 0.064-0.048-0.016 0.016-0.032 0.032-0.064 0.048z"></path>
<path fill="#fff" d="M408.4 245.424c0.736 0.48 1.136-0.272 1.216-2.256-0.4 0.752-0.816 1.504-1.216 2.256z"></path>
<path fill="#fff" d="M388.496 236.784c0.048-0.032 0.048-0.032 0 0z"></path>
<path fill="#fff" d="M108.496 235.28c0-0.016-0.016-0.032-0.016-0.048 0 0.016 0.016 0.016 0.016 0.048z"></path>
<path fill="#fff" d="M368.080 270.176c-0.016 0.016 0 0.016 0 0z"></path>
<path fill="#fff" d="M335.728 408.976v0.048c0.080-0.032 0.064-0.048 0-0.048z"></path>
<path fill="#fff" d="M108.528 235.408c0-0.016-0.016-0.048-0.016-0.064 0 0.016 0.016 0.048 0.016 0.064z"></path>
<path fill="#fff" d="M108.512 235.344c0-0.016-0.016-0.032-0.016-0.048 0 0.016 0.016 0.032 0.016 0.048z"></path>
<path fill="#fff" d="M180.384 271.712c-2.464-2.848 1.072 1.232 0 0z"></path>
<path fill="#fff" d="M184.368 162.016c-0.064 0.016-0.176 0.064-0.32 0.112 0.176-0.064 0.272-0.096 0.32-0.112z"></path>
<path fill="#fff" d="M203.808 364.368c-0.032-0.064-0.032-0.064 0 0z"></path>
<path fill="#fff" d="M184.032 162.128c-0.032 0.016-0.064 0.032-0.112 0.032 0.032-0.016 0.080-0.016 0.112-0.032z"></path>
<path fill="#fff" d="M203.808 364.368c0.048 0.112 0.016 0.032 0 0z"></path>
<path fill="#fff" d="M420.288 253.168c-3.712-2.448-7.856-5.632-11.872-7.712-2.976-1.536-19.056-4.144-10.4-6.16-3.52-0.512-7.040-1.040-10.56-1.552 1.648-1.504-12.080-8.16-14.304-9.44 1.696 0.4 2.432 0.032 2.208-1.12-3.072-0.864-6.48-1.136-9.632-1.6 0.448 4.576 3.712 18.528-0.56 17.104 0.864 1.456 3.296 3.376 2.848 4.976-1.408-0.592-8.064-1.808-4.144 0.944-4.768 0.384-19.856 4.576-23.808 1.504-4.128-3.2-1.344-23.616-1.6-29.088-0.464-10.080 0.816-16.944 0.672-30.048-0.192-15.904 8.928-89.6-12.832-89.008 8.464 11.872-30.016 7.664-34.4 7.824-12.704 0.48-28.912 1.488-43.568 1.456-13.104-0.032-25.76 1.104-38.448 0.752-8.128-0.224-28.544 2.32-34.848-1.712-6.96-4.464-0.592-10.176-11.648-8.96-0.128 1.216 0.48 1.44 1.824 0.656-3.12 9.936-2.272 17.84-1.68 28.192 0.704 12.432-0.672 24.032-1.296 36.368-0.672 13.44 0.016 27.152 0.496 40.592 0.432 12.128-1.856 29.776 3.072 40.688-6.432 0.144-12.816-0.672-19.248-0.768 1.168 0.016-18.48 1.376-18.176 1.584-10.928-7.040 8.624-25.44-14.432-17.040-12.976 4.72-33.92 17.12-48.624 25.728 5.632 6.528 12.72 7.984 21.712 11.056 9.936 3.392 33.504 7.456 37.088 14.496 0.544 0.080 1.072 0 1.568-0.208 0.656-7.712-1.824-15.632 6.32-17.36 3.392-0.704 10.032 1.76 12.368 2.224 13.392 2.688 17.376 0.24 17.52 15.12 0.112 11.472-0.832 22.832-1.632 34.272-1.36 19.312-3.728 39.024-3.232 58.4 0.144 5.504 1.584 48.784 2.128 48.56 2.928-1.184 3.216-4.176 6.192-4.72 2.864-0.512 4.368 1.008 7.536 0.272 5.52-1.28 11.232-2.528 18.256-2.576 22.016-0.144 44.080 0.112 66.032 0.192 8.816 0.032 19.984 0.8 28.304 0.864 6.656 0.064 16.608-1.52 24.544-1.312 4.304 0.112 13.536 3.408 12.512 0.048-0.256 4.16 1.376 7.056 4.912 8.672-3.040-1.984 6.72-10.688 6.928-11.2 1.072-2.624 1.296-7.312 1.344-12.16 0.192-16.704 1.424-28.944 1.328-44.448-0.064-9.968 1.264-21.12 1.664-32.448 0.4-11.296 0.896-23.232 0.192-34.368-0.432-6.704-4.704-20.080 1.968-19.6-8-6.464 17.472-4.224 20.224-3.648 12.128 2.544 2.96 10.928 12.144 15.216 7.936 3.696 36.848-29.424 41.184-19.536-0.576-2.336-0.128-4.32 1.36-5.952 1.76 3.184 2.944 3.056 3.584-0.384 1.376-1.152 1.68-2.368 0.944-3.616zM172.176 334.688c4.576-13.552 2.752-29.696 3.376-43.968 0.24-5.328 0.592-14.624 3.28-19.344 2.64-4.608 11.568-6.688 13.728-11.152 4.848-10-4.416-4.464-11.424-10.624-5.184-4.544-2.048-16.592-1.792-23.68 0.32-9.12-6.992-42.544 6.752-33.936-1.36 0.32-2.736 0.624-4.096 0.944 7.248 7.312 13.616 16.848 21.808 25.808 4.224 4.608 8.448 9.232 12.672 13.84 3.264 3.568 17.088 12.48 5.216 10.304 4.544 3.584 7.984 6.224 7.888 12.8 0.912-0.8 1.824-1.616 2.736-2.416-0.688 3.712-1.008 12.080-2.544 15.84-1.968 4.816 0.736 3.776-5.712 8.448-8.592 6.208-15.248 7.248-22.896 15.072-14.432 14.768-18.208 30.096-24.624 47.552-1.136-3.040-6.032-0.576-4.368-5.488zM244.816 322.48c-3.712 19.92-32.72 36.656-49.008 47.28 3.12 1.344-11.584 8.992-13.344 8.784-7.008-0.864-3.968-7.776-3.408-13.616 1.936-20.016 6.368-38.416 17.584-55.232 8.048-12.080 20-23.184 34.56-28.512 19.776-7.216 16.096 27.984 13.616 41.28zM236.368 219.696c-20.048-6.4-34.288-6.576-43.616-27.040-5.472-12.016-10.608-27.376-7.68-40.464 3.648-16.336 7.552-22.32 24.992-22.608 18.048-0.304 36.24 1.52 54.192 1.568 10.4 0.032 20.768-0.544 31.168-0.032 5.296 0.256 12.496-0.016 17.44 1.712 8.384 2.928 5.632 0.64 7.152 9.296 2.32 13.12 2.736 36.512-2.096 48.624-4.64 11.6-13.76 21.84-26.624 24.704-16.384 3.632-37.168 4.208-54.912 4.208zM316.224 368.368c-1.472 4.976 0.512 13.2-5.264 15.264-2.176 0.784-19.136-15.2-21.488-17.36-9.456-8.672-20.304-17.328-29.552-26.528-10.64-10.592-8.224-26.096-7.808-40.48 0.32-10.672 3.152-31.344 17.232-15.696 0.032-0.064 0.064-0.144 0.080-0.208-0.080 0.192 27.968 19.008 30.64 21.696 13.68 13.744 21.568 45.056 16.16 63.312zM322.272 229.504c-0.864 7.424-1.408 14.032-3.84 21.104 1.136-3.68 2.656-4.624 4.528-2.816-4.176 5.712-8.688 5.248-15.504 7.28 3.488 5.696 9.664 9.648 12.464 15.088 2.64 5.12 0.752 12.352 0.992 17.728 0.496 11.216-0.144 22.896-0.144 36.016-8.304-13.488-16.928-27.344-29.056-37.792-13.776-11.888-18.544-11.936-22.416-30.576 4.8 2.848 43.616-40.304 48.736-45.408-2.688 2.288-4.752 2.208-6.208-0.256 2.032-1.744 8.304-9.008 11.408-7.936-0.768 3.072-1.424 27.52-0.976 27.568z"></path>
<path fill="#fff" d="M184.384 162c0.032-0.016 0.032-0.016 0 0z"></path>
<path fill="#fff" d="M269.104 506.848c-3.296-0.704-6.56-1.616-9.888-2.016-1.424-0.176-3.456 0.272-4.4 1.248-6.112 6.24-10.16 4.416-17.040 0.848-2.384-1.248-5.6-0.88-8.432-1.312-0.352-0.048-0.896-0.4-0.912-0.64-0.128-1.328 0.096-2.736-0.224-4.016-0.256-1.008-0.96-2.096-1.792-2.704-0.352-0.256-1.856 0.416-2.272 1.040-1.2 1.76-4.88 0.336-4.688 3.728-0.816-0.288-1.616-0.624-2.448-0.848-0.864-0.24-1.776-0.384-2.656-0.576-0.784-0.16-1.904-0.048-2.272-0.512-1.232-1.568-2.128-3.408-3.312-5.040-0.4-0.56-1.232-0.784-1.872-1.168 0.032 0.48 0.112 0.96 0.064 1.44-0.048 0.432-0.128 1.024-0.416 1.248-1.328 1.024-2.912 1.76-4.064 2.928-2.272 2.32-4.624 3.168-7.536 1.28-0.256-0.16-0.752-0.352-0.736-0.48 0.64-4.448-1.936-1.664-3.376-1.536-2.96 0.272-6.272-3.104-5.904-5.856 0.064-0.496-0.304-1.44-0.688-1.568-2.864-0.976-5.344-3.056-8.928-0.944-1.808 1.056-5.104 0.464-7.376-0.368-3.232-1.184-6.016-3.488-9.184-4.912-3.392-1.536-6.976-2.608-10.496-3.872-0.288-0.096-0.704 0.016-0.912-0.144-2.624-1.936-4.48-2.128-6.4 1.264-0.544 0.976-4.384 1.232-5.84 0.368-5.232-3.104-11.376-5.888-14.768-10.544-4.016-5.504-9.168-7.952-14.672-10.912-8.080-4.352-15.376-9.936-20.224-18.096-0.384-0.656-0.96-1.472-1.616-1.68-5.936-1.904-9.088-6.88-12.976-11.2-4.496-5.008-10.016-9.12-14.352-14.272-4.112-4.896-7.312-10.576-10.832-15.968-4.176-6.4-8.4-12.768-12.336-19.312-3.248-5.376-7.776-10.704-8.768-16.56-1.84-10.784-9.424-18.576-12.384-28.512-1.232-4.112-1.36-8.576-1.936-12.88-0.784-5.952-1.36-11.952-2.32-17.888-0.864-5.344 0.048-10.112 3.248-14.512 0.496-0.688 0.432-2.144 0.080-3.024-0.928-2.304-2.016-4.576-3.328-6.688-3.856-6.208-5.088-12.8-4.496-20.144 0.416-5.216-1.040-10.56-1.024-15.856 0.032-9.76-2.080-19.504 0.32-29.344 2-8.16 2.624-16.672 4.528-24.864 1.072-4.64 3.84-8.848 5.184-13.456 1.776-6.080 2.528-12.48 4.416-18.512 2.464-7.856 5.568-15.536 8.512-23.248 3.872-10.144 10.512-18.576 17.344-26.8 4-4.816 8.336-9.36 12.576-13.968 5.44-5.92 12.384-9.392 19.44-13.040 4.976-2.576 8.832-7.28 13.2-11.024 0.592-0.512 1.376-1.312 1.952-1.216 3.264 0.56 4.88-0.8 5.216-3.968 0.016-0.080 0-0.224 0.016-0.224 3.872-0.96 1.888-4.144 2.48-6.368 0.16-0.624 0.848-1.2 1.424-1.616 3.488-2.48 7.184-4.496 11.616-4.672 0.352-0.016 0.704-0.304 1.056-0.496 0.448-0.256 0.688-2.544 1.472-0.128 0.064 0.176 1.456 0.272 1.84-0.064 1.584-1.328 3.008-2.848 4.48-4.288 0.048-0.048 0.080-0.144 0.112-0.208 4.528 2.784 6.032-3.264 9.664-3.36 0.896-0.032 1.712-1.296 2.64-1.888 1.28-0.8 2.608-1.504 3.936-2.208 0.464-0.24 1.232-0.192 1.472-0.544 5.088-7.328 13.76-8.912 20.928-12.816 4.224-2.288 9.28-3.024 13.888-4.672 0.912-0.336 1.344-1.808 2.208-2.512 1.52-1.248 3.088-2.464 4.8-3.408 6.128-3.424 12.032-1.312 18.016 0.784 4.832 1.696 9.792-1.136 10.768-6.256 0.208-1.088-1.584-2.576-2.528-3.84-0.656-0.896-1.424-1.712-2.144-2.56 1.136 0.448 2.384 0.736 3.376 1.392 1.76 1.168 3.376 2.576 5.056 3.856 0.432 0.32 0.96 0.528 1.456 0.784 0.048-0.72 0.080-1.44 0.128-2.176 0.080-1.504 0.016-3.056 0.32-4.512 0.080-0.368 1.712-0.88 2.080-0.608 3.792 2.864 7.808 1.664 11.568 0.432 12.912-4.256 25.808-5.568 39.104-1.728 2.64 0.768 5.824-0.592 8.752-0.512 2.8 0.080 6.32-2.016 7.936 2.88 0.448 1.36 4.24 1.872 6.576 2.272 3.2 0.56 6.496 0.624 9.744 0.992 2.624 0.304 5.232 0.672 7.824 1.152 0.704 0.128 1.264 1.040 1.968 1.2 0.912 0.208 1.92 0 2.88-0.016 3.84-0.032 7.36 0.608 10.080 3.76 0.592 0.688 1.936 0.72 2.928 1.088 5.104 1.888 10.304 3.552 15.216 5.84 1.312 0.608 2.048 1.984 3.696 0.928 0.192-0.128 0.848 0.048 0.864 0.128 0.48 4.368 4.512 2.768 6.816 4.016 3.456 1.856 7.44 2.944 10.464 5.312 3.2 2.512 5.424 6.224 8.288 9.216 0.736 0.768 2.256 0.976 3.456 1.088 1.312 0.128 2.976-0.736 3.904-0.176 3.36 2 6.512 4.352 9.616 6.72 0.56 0.416 0.72 1.504 0.848 2.32 0.336 2.144 0.96 3.152 3.44 2 0.912-0.432 2.464 0.464 3.68 0.88 0.080 0.032-0.528 1.328-0.336 1.872 0.72 2.224 1.232 4.704 2.624 6.448 0.944 1.2 3.216 1.792 4.928 1.84 6.784 0.208 9.856 4.864 12.544 10.016 1.808 3.44 3.328 7.024 5.28 10.368 0.64 1.088 2.112 1.904 3.376 2.336 0.864 0.288 2.032-0.336 3.072-0.544-0.32-1.040-0.8-2.048-0.928-3.104-0.192-1.584-0.816-3.648-0.080-4.688 1.728-2.432-0.176-2.768-1.456-3.648-0.304-0.208-0.576-0.48-0.88-0.72 0.224-0.176 0.448-0.48 0.672-0.48 0.352-0.016 0.848 0.048 1.056 0.288 1.536 1.712 3.024 3.472 4.528 5.2 0.080 0.096 0.224 0.16 0.336 0.224 0.080-0.192 0.256-0.432 0.208-0.592-0.352-1.136-0.784-2.24-1.104-3.36-0.208-0.704-0.256-1.44-0.368-2.16 0.8 0 1.84-0.304 2.352 0.080 3.552 2.656 7.488 5.056 10.336 8.352 2.784 3.216 6.032 7.36 6.112 11.168 0.064 3.68 1.84 6.064 2.784 9.008 1.6 4.992 5.024 8.288 9.312 11.488 3.392 2.544 4.944 7.552 7.312 11.456 1.792 2.944 3.568 5.888 5.344 8.848 1.248 2.080 2.48 4.176 3.728 6.256 1.616 2.704 3.264 5.376 4.816 8.096 0.368 0.656 0.416 1.488 0.656 2.224 0.4 1.2 0.464 2.848 1.312 3.504 3.744 2.928 5.056 7.152 6.656 11.264 1.888 4.88 3.952 9.696 5.872 14.56 0.752 1.904 1.104 3.984 2.080 5.744 1.008 1.792 3.056 3.104 3.728 4.96 0.736 2.064 0.208 4.528 0.64 6.752 0.48 2.496 1.264 4.976 2.192 7.344 1.056 2.656 0.96 4.864-1.216 6.96-0.416 0.4-0.144 1.824 0.16 2.64 0.912 2.416 2.8 4.752 2.88 7.152 0.208 5.712 0.672 11.296 1.584 16.96 1.424 8.864 2.416 17.856 2.768 26.832 0.368 9.12 0.288 18.336-0.608 27.392-0.64 6.384-2.864 12.624-4.608 18.88-2.24 8-4.192 15.92-5.36 24.272-1.328 9.456-5.856 18.496-9.168 27.648-1.408 3.904-2.992 7.808-4.992 11.44-1.888 3.424-1.504 7.376-3.136 10.8-0.080 0.176 0.128 0.496 0.208 0.752 0.48-0.224 0.944-0.48 1.456-0.672 0.448-0.176 0.944-0.256 1.408-0.384-0.192 0.4-0.384 0.8-0.592 1.184-1.248 2.208-1.984 5.136-3.856 6.464-6.544 4.64-9.2 11.952-13.536 18.112-2.096 2.992-4.64 5.696-7.2 8.304-0.416 0.416-2.032-0.496-3.104-0.544-0.496-0.016-1.024 0.56-1.536 0.864 0.512 0.464 0.992 0.992 1.552 1.36 0.528 0.352 1.168 0.544 1.76 0.8-0.592 0.256-1.184 0.512-1.792 0.752-2.064 0.8-4.128 1.584-6.192 2.384-0.8 0.304-1.696 0.496-2.336 1.024-1.088 0.896-2.24 1.872-2.928 3.072-1.728 3.072-2.88 6.528-4.896 9.376-1.792 2.544-4.4 4.512-6.704 6.688-4.080 3.84-8.176 7.648-12.32 11.424-0.384 0.352-1.072 0.384-1.632 0.56 0.352-0.416 0.608-1.008 1.040-1.2 4.064-1.808 6.048-5.52 8.128-9.072 0.4-0.672-0.128-1.888-0.224-2.848-0.592 0.288-1.312 0.432-1.744 0.864-3.152 3.152-6.256 6.368-9.36 9.568-0.272 0.288-0.784 0.688-0.72 0.88 1.296 3.872-2.768 3.76-4.112 5.632-0.736 1.024-1.248 2.24-1.744 3.424-0.784 1.904-0.944 4.448-2.32 5.648-3.168 2.8-6.352 6.112-11.328 5.44-0.752-0.096-1.792 0.288-2.384 0.8-2.72 2.336-5.296 4.832-7.968 7.216-1.6 1.424-3.248 2.8-4.96 4.064-0.128 0.096-1.040-0.8-1.52-1.312-0.288-0.304-0.464-0.752-0.688-1.12-0.272 0.256-0.704 0.464-0.8 0.768-1.36 4.672-5.872 3.2-8.928 4.528-1.952 0.848-4.080 1.296-6.16 1.824-2.72 0.704-5.504 1.184-8.192 2.016-1.28 0.4-2.304 1.616-3.568 2.016-1.52 0.48-3.888 3.44-4.432-0.976-0.032-0.208-0.304-0.384-0.464-0.576-0.336 0.592-0.576 1.296-1.040 1.744-0.8 0.768-1.712 1.424-2.64 2.032-0.112 0.064-0.752-0.432-0.928-0.784-0.288-0.576-0.224-1.648-0.592-1.792-0.672-0.256-1.92-0.304-2.256 0.112-1.136 1.44-1.792 3.28-2.992 4.64-1.296 1.456-2.96 2.608-4.528 3.808-1.632 1.264-3.264 2.576-5.040 3.616-2.4 1.392-4.848 3.248-7.44 3.6-4.624 0.624-9.408 0.464-14.096 0.16-1.248-0.080-2.752-1.632-3.536-2.88-2.672-4.336-4.048-4.656-8.736-2.752-3.072 1.248-6.544 1.472-9.68 2.576-2.16 0.768-4 2.384-6.096 3.36-1.072 0.496-2.4 0.608-3.6 0.624-2.448 0.016-4.896-0.16-7.344-0.224-0.496-0.016-0.976 0.096-1.472 0.144 0.016-0.304-0.064-0.72 0.096-0.864 0.352-0.32 0.816-0.608 1.264-0.704 0.848-0.16 1.888 0.112 2.544-0.288 1.296-0.8 2.384-1.936 3.552-2.928-1.296-0.32-2.592-0.656-3.888-0.976-0.016 0.224-0.064 0.464-0.112 0.688zM132.16 76.928c-5.888-0.016-13.184 5.216-14.592 9.504-0.144 0.464-0.352 1.328-0.384 1.328-3.664-0.784-4.656 2.784-6.816 4.304-1.408 0.992-2.24 2.88-3.168 4.448-0.544 0.912-0.512 2.432-1.248 2.928-4.304 2.864-8.768 5.504-13.136 8.256-0.496 0.32-0.896 0.912-1.152 1.456-1.344 2.848-19.424 6.080-20.080 9.072-0.528 2.384-6.16 5.76 0.672 7.648 0.128 0.032 0.16 0.528 0.192 0.816 0.352 2.896-0.288 5.104-3.776 5.36-0.24 0.016-0.624 0.72-0.592 1.056 0.080 0.688 0.4 1.36 0.608 2.032-0.672-0.4-1.344-0.8-2.016-1.184-0.544-0.304-1.088-0.592-1.632-0.88 0.032 0.544-0.032 1.104 0.096 1.632 0.224 0.992 1.072 2.208 0.736 2.912-1.232 2.688-2.864 5.216-4.304 7.824-0.336 0.592-0.48 1.28-0.768 1.904-0.736 1.584-1.568 3.104-2.192 4.72-0.272 0.704-0.4 1.744-0.064 2.336 0.72 1.216 2.688 2.368 2.544 3.28-0.528 3.072-1.648 6.064-2.752 9.008-1.328 3.584-2.768 7.12-4.336 10.608-0.8 1.76-1.68 3.68-3.072 4.944-1.264 1.152-5.088-0.528-3.792 3.52 0.032 0.080-0.336 0.416-0.528 0.432-4.544 0.032-7.104 3.728-8.704 6.608-2.8 5.040 2.72 7.072 1.968 13.744-0.672 5.936 1.744 11.712 0.208 17.552-0.032 0.144-0.064 0.368 0.016 0.48 2.080 3.248-1.568 5.024-2.064 7.632-0.592 3.104-2.816 6.112-2.704 9.104 0.16 4.192 0.512 8.096-1.024 12.208-2.192 5.84-3.264 12.112-5.632 17.856-1.84 4.448-2.080 8.416-0.288 12.8 1.408 3.44 2.832 6.96 3.504 10.576 1.056 5.68 1.024 11.568 2.288 17.184 1.44 6.448 1.408 13.024 5.504 19.2 5.328 8.016 11.072 16.416 10.784 26.928-0.016 0.8 0.864 1.616 0.944 2.448 0.176 1.712 1.824 3.344-0.896 5.136-2.432 1.6-2.88 4.4 0.352 6.56 1.376 0.928 2.272 2.528 3.488 3.712 10.528 10.208 21.136 20.368 31.616 30.624 3.648 3.568 6.816 7.648 10.592 11.056 3.664 3.296 7.776 6.096 11.792 8.976 4 2.864 9.040 4.832 11.952 8.496 3.728 4.688 8.672 7.088 13.36 10.096 5.232 3.36 10.88 6.096 16.064 9.52 6.672 4.4 13.104 9.2 19.6 13.872 1.312 0.944 2.432 2.144 3.744 3.088 1.168 0.832 2.448 2.032 3.728 2.112 10.064 0.656 19.568 3.44 28.88 7.072 2.928 1.136 5.904 2.768 8.928 2.944 6.208 0.368 12.48-0.336 18.72-0.176 9.168 0.24 18.336 0.88 27.488 1.28 0.56 0.032 1.632-0.544 1.664-0.896 0.4-6.064 7.28-6.928 9.424-11.584 0.144-0.32 1.76-0.384 2.384-0.032 2.56 1.424 5.376 2.688 7.44 4.688 4.672 4.496 9.344 4.832 15.472 2.736 9.392-3.216 19.264-5.040 28.832-7.808 6.8-1.984 13.312-5.056 20.176-6.752 7.712-1.888 14.736-4.944 21.28-9.232 3.76-2.464 7.328-5.232 11.216-7.44 2.912-1.648 6.496-2.176 9.264-3.984 7.184-4.704 14.128-9.808 21.088-14.864 0.896-0.656 1.424-1.872 1.984-2.896 1.968-3.664 3.184-8.032 5.952-10.944 11.52-12.208 23.584-23.904 35.264-35.968 5.152-5.312 10.784-10.352 12.416-18.208 0.768-3.696 2.432-7.216 3.744-10.8 0.768-2.112 2.64-4.336 2.32-6.224-1.248-7.296 2.544-13.040 4.864-19.328 1.2-3.264 1.808-6.912 1.888-10.4 0.096-4.56-1.184-9.184-0.8-13.68 0.448-5.040 2.064-9.968 3.232-14.944 0.928-3.952 1.488-7.76-1.024-11.488-1.504-2.224-2.576-4.896-0.544-7.392 2-2.464 2.416-4.816 0.608-7.52-0.288-0.416-0.208-1.088-0.272-1.648-0.304-2.832-0.608-5.648-0.912-8.48-0.416-3.84-1.024-7.68-1.168-11.536-0.080-2.16 1.68-4.992 0.8-6.4-3.296-5.216-0.704-10.752-1.664-16.016-0.624-3.392 0.224-7.792-1.648-10-2.144-2.528-4.576-4.752-5.632-7.936-1.184-3.52-2.848-7.184-2.752-10.752 0.128-5.264-0.608-9.872-3.648-14.256-1.504-2.176-2.528-4.752-3.504-7.248-2.704-6.96-5.168-14.016-7.92-20.96-0.768-1.952-2.352-3.568-3.184-5.504-0.8-1.84-0.736-4.080-1.696-5.792-2.4-4.32-5.056-8.512-7.824-12.592-0.72-1.056-2.176-2-3.44-2.224-2.384-0.416-4.928 0.048-7.264-0.48-1.072-0.24-1.888-1.936-2.64-3.088-0.144-0.208 0.56-0.96 0.88-1.472-0.8-0.384-1.6-1.056-2.416-1.088-5.6-0.272-6.528 0.304-7.056-3.936-0.144-1.184 0.272-2.608 0.88-3.664 1.504-2.56-10.544-14.976-13.6-10.912-0.656 0.864-1.328 1.792-2.192 2.432-2.256 1.664-1.632 5.136-1.744 7.232-0.016 0.464 0.208 0.944 0.32 1.424-0.416-0.336-0.912-0.624-1.216-1.024-2.368-3.184-4.688-6.416-7.056-9.6-2.528-3.408-5.344 4.064-7.6 0.496-2.496-3.936-5.824-0.784-5.216-6.128 0.208-1.808-0.848-3.744-1.376-5.616-0.080-0.288-0.4-0.752-0.544-0.736-3.344 0.56 0.128-1.376-0.736-2.112-0.928-0.8-0.784-3.056-1.728-3.6-3.168-1.824-6.736-2.992-9.952-4.784-2.144-1.184-3.904-3.056-5.92-4.464-0.656-0.448-1.792-0.816-2.416-0.56-0.592 0.256-6.24-0.768-6.608-3.888-0.064-0.608-0.144-1.52-0.544-1.76-4.688-2.784-9.36-5.648-14.208-8.112-3.952-2.016-8.288-3.296-12.24-5.328-9.792-5.024-19.632-9.264-31.056-5.952-1.088 0.32-2.464-0.272-3.696-0.496-6.016-1.088-12-2.528-18.080-3.184-6.432-0.688-12.96-0.512-19.44-0.928-5.792-0.384-11.568-1.168-17.36-1.616-7.024-0.544-13.584 1.6-20.208 3.568-5.168 1.536-10.608 2.208-15.76 3.808-7.472 2.32-14.784 5.168-22.176 7.744-3.648 1.28-7.584 1.984-10.928 3.792-4.88 2.624-9.184 6.304-14.032 8.992-5.6 3.104-12.288 4.368-16.352 9.952-0.384 0.528-0.992 1.52-0.8 1.776-0.16 0.624 0.32 1.104-0.256 1.68z"></path>
</svg>
