<!-- Generated by IcoMoon.io -->
<svg version="1.1" xmlns="http://www.w3.org/2000/svg" width="512" height="512" viewBox="0 0 512 512">
<title>misc-active</title>
<path fill="#fff" d="M378.592 155.952c15.328-5.12 15.344-22.096 0.48-25.392-12.848-2.848-35.616 2.72-47.376 8.832-13.744 7.152-21.872 20.528-33.008 30.752-3.904 3.6-14.176 21.104-18.352 20.48 0.496 1.168 1.088 2.288 1.808 3.328 0.448 0.848-8.864-0.656-4.416 8.16-5.264-2.672-6.672-2.704-3.936 2.208-18.896 0-7.616 36.256-27.296 7.232-10.672-15.744-15.392-30.368-23.184-47.312-3.824-8.304-8.944-19.552-12.112-26.128-1.504-3.12 2.784-1.696 0.544-5.424-0.448-0.752-7.68-5.488-8.912-5.872-8.864-2.72-22.96 1.632-32.272 3.744-6.944 1.584-34.56 8.64-30.912 11.344-4.496-1.040-16.272 3.776-15.424 11.712 2.656-1.872 1.648-3.456 5.264-0.512 0-6.672 7.264 3.2-3.568 2.176 3.152 4.512 7.248 3.264 12.048 6.24 10.544 6.528-0.176 3.2 12.048 9.712 3.552 1.888 12.784 7.552 13.264 7.536 0.96-0.016-6.288-1.52-4.112-0.048 2.448 1.664 11.6 6.768 3.728 3.12 3.328 1.904 4.096 0.448 6.624 1.68 6.816 3.328 15.472 21.248 20.112 26.928 3.792 4.64 14.88 11.088 18.416 19.504 0.336 0-4.88-2.4-4.288-0.432 1.552 5.088 15.648 10.688 18.528 17.328 4.496 10.336-5.344 17.024-15.632 27.28-7.76 7.744-12.528 11.936-23.296 23.424-1.808 1.936-7.184 14.448-12.432 13.072 2.032 4.784-6.288 14.736-10.192 13.264 0.784 7.84-7.056 10.368-9.68 14.16-5.648 8.192-13.376 24.944-19.264 35.76 6.272 0 4.752 12.112 10.784 13.808 4.192 1.168 1.232-2.128 4.128-2.72 9.024-1.856 13.6-16.704 24.032-16.64-6.432-10.112 16.72-19.232 17.968-23.696-0.256-1.232-1.056-2-2.416-2.304 10.88-3.024 22.8-22.992 30.304-31.84 7.664-9.024 35.328-27.328 31.616-34.976 7.088-3.904 29.408 34.384 34.72 40.56 7.6 8.832 9.168 14.512 14.128 23.344 1.264 2.272 12.496 16.56 12.496 15.616 3.424 7.040 7.824 14.464 12.048 20.448 1.536 2.176 12.064 13.184 11.68 15.424 1.408-1.344 4.384-8.272 5.872-8.752 3.504-1.136 4.208 0.688 7.072-2.176 0.128 2.912 24.432 28.48 27.28 21.952 0.416-0.96-5.696-17.584-5.36-12.112-0.192-3.248 4.672-7.552 4.192-9.52-2.048-8.352-7.968-12.72-12.928-19.44-5.392-7.296-25.888-28.576-24.032-36.224-3.936 1.392-14.144-13.888-17.296-18.416-3.152-4.512-11.536-16.208-7.872-16.752-8.32-6.464-29.328-30.64-26.896-40.8-2.608 1.84-4.752 1.52-6.448-0.976 5.792 4.656 4.016-7.168 6.4-1.168 2.88-3.888 2.608-7.184 7.152-11.76 3.104-3.136 5.136-4.064 8.208-6.896 5.904-5.44 14.592-13.568 24.192-20.656 11.008-8.144 21.856-19.104 32.656-28.928 4.912-4.464 23.584-21.424 23.12-22.256zM307.76 281.136c1.488 2.384-4.352-5.056-3.424-3.152 0.256 2.432 1.392 3.488 3.424 3.152zM342.224 331.888c-0.976-1.232-1.872-1.168-2.688 0.192 0.768 1.28 1.664 1.232 2.688-0.192zM373.536 404.928c-1.12-1.056-2.064-1.024-2.848 0.112 0.944 1.040 1.888 1.008 2.848-0.112zM320.048 375.184c-2.96-2.256-2.896 1.776 0 0z"></path>
<path fill="#fff" d="M26.576 348.624c-0.4-3.312-0.608-6.672-1.312-9.92-0.304-1.392-1.376-3.152-2.576-3.728-7.824-3.728-7.424-8.096-6.288-15.696 0.384-2.64-0.976-5.536-1.488-8.336-0.064-0.336 0.080-0.976 0.304-1.072 1.216-0.544 2.592-0.8 3.696-1.504 0.864-0.56 1.664-1.584 1.952-2.544 0.128-0.416-0.992-1.6-1.712-1.792-2.048-0.56-1.888-4.48-5.008-3.2 0.016-0.864 0.064-1.712 0.016-2.56-0.048-0.896-0.208-1.776-0.32-2.672-0.096-0.784-0.576-1.792-0.256-2.304 1.072-1.664 2.512-3.104 3.648-4.72 0.384-0.544 0.336-1.424 0.48-2.144-0.448 0.176-0.88 0.416-1.328 0.512-0.416 0.096-1.008 0.224-1.296 0.016-1.376-0.912-2.576-2.16-4.048-2.864-2.912-1.392-4.464-3.312-3.632-6.656 0.080-0.288 0.096-0.816 0.208-0.848 4.384-0.832 0.944-2.352 0.352-3.664-1.2-2.688 0.896-6.88 3.584-7.424 0.496-0.096 1.248-0.752 1.248-1.152-0.016-2.992 1.136-5.984-2-8.688-1.584-1.344-2.080-4.64-2.032-7.024 0.064-3.408 1.328-6.768 1.648-10.192 0.336-3.68 0.192-7.392 0.24-11.088 0-0.304-0.24-0.656-0.16-0.912 0.976-3.088 0.544-4.896-3.248-5.584-1.088-0.208-2.56-3.712-2.224-5.36 1.216-5.904 1.856-12.56 5.12-17.248 3.872-5.552 4.496-11.152 5.504-17.264 1.472-8.976 4.352-17.616 10.448-24.784 0.496-0.576 1.056-1.376 1.056-2.064-0.128-6.192 3.52-10.736 6.32-15.776 3.248-5.84 5.328-12.336 8.752-18.048 3.264-5.44 7.552-10.272 11.472-15.312 4.656-5.968 9.264-12 14.128-17.792 4-4.768 7.536-10.736 12.704-13.568 9.504-5.2 14.368-14.832 22.736-20.816 3.472-2.48 7.6-4.048 11.44-5.968 5.328-2.656 10.768-5.136 16.016-7.952 4.736-2.528 9.488-3.216 14.656-1.648 0.8 0.24 2.144-0.288 2.864-0.912 1.856-1.616 3.648-3.36 5.2-5.264 4.576-5.632 10.368-8.896 17.44-10.704 5.040-1.296 9.568-4.384 14.528-6.080 9.168-3.12 17.6-8.24 27.6-9.152 8.304-0.752 16.464-2.912 24.768-3.792 4.688-0.496 9.536 0.752 14.288 0.528 6.272-0.288 12.512-1.664 18.784-1.824 8.176-0.224 16.368 0.208 24.544 0.48 10.768 0.352 20.8 3.856 30.72 7.616 5.808 2.192 11.456 4.784 17.152 7.28 7.296 3.184 12.8 8.592 18.496 14.016 4.016 3.824 9.68 5.92 14.592 8.816 0.656 0.4 1.68 0.864 1.776 1.424 0.528 3.248 2.32 4.32 5.408 3.616 0.080-0.016 0.208-0.080 0.224-0.048 2.16 3.312 4.496 0.432 6.768 0.272 0.64-0.048 1.408 0.4 1.968 0.816 3.44 2.48 6.528 5.28 8.128 9.392 0.128 0.336 0.512 0.56 0.8 0.832 0.384 0.352 2.608-0.176 0.608 1.344-0.144 0.112 0.224 1.44 0.64 1.712 1.76 1.056 3.632 1.904 5.472 2.816 0.064 0.032 0.16 0.016 0.24 0.032-1.152 5.152 5.008 4.608 6.272 7.984 0.32 0.832 1.776 1.184 2.624 1.872 1.152 0.944 2.256 1.952 3.344 2.976 0.384 0.352 0.576 1.088 0.992 1.2 8.512 2.4 12.8 10.032 18.768 15.488 3.52 3.216 5.84 7.728 8.864 11.504 0.608 0.752 2.128 0.688 3.072 1.264 1.664 1.024 3.296 2.112 4.752 3.392 5.184 4.64 5.104 10.864 5.072 17.136-0.032 5.088 4.224 8.816 9.344 8.080 1.088-0.16 1.904-2.32 2.784-3.6 0.624-0.912 1.136-1.888 1.712-2.848-0.064 1.216 0.080 2.464-0.208 3.616-0.528 2.032-1.328 3.984-1.984 5.984-0.176 0.512-0.192 1.072-0.272 1.616 0.688-0.192 1.376-0.384 2.080-0.592 1.44-0.416 2.864-0.976 4.336-1.152 0.368-0.048 1.392 1.328 1.248 1.76-1.456 4.48 0.96 7.872 3.328 10.992 8.144 10.736 13.552 22.4 14.24 36.112 0.144 2.72 2.432 5.28 3.296 8.048 0.816 2.64 3.936 5.264-0.144 8.368-1.12 0.864-0.384 4.576-0.016 6.896 0.496 3.184 1.52 6.288 2.208 9.44 0.56 2.544 1.056 5.12 1.44 7.712 0.096 0.704-0.56 1.52-0.48 2.24 0.112 0.928 0.624 1.792 0.944 2.688 1.264 3.584 1.808 7.104-0.288 10.672-0.448 0.784-0.048 2.048-0.080 3.104-0.128 5.392-0.016 10.8-0.56 16.16-0.144 1.424-1.2 2.56 0.32 3.76 0.176 0.144 0.224 0.816 0.16 0.848-3.936 1.872-1.136 5.12-1.552 7.696-0.624 3.84-0.352 7.936-1.616 11.52-1.328 3.808-4.080 7.104-5.952 10.752-0.48 0.944-0.176 2.432 0.096 3.584 0.304 1.264 1.648 2.56 1.424 3.616-0.784 3.792-1.984 7.504-3.184 11.184-0.224 0.656-1.184 1.168-1.904 1.552-1.888 1.008-2.64 1.92-0.768 3.856 0.688 0.72 0.368 2.464 0.352 3.744 0 0.080-1.408-0.064-1.872 0.288-1.84 1.392-4.016 2.672-5.216 4.544-0.816 1.28-0.64 3.6-0.144 5.216 2 6.432-1.376 10.8-5.328 15.008-2.64 2.8-5.504 5.392-8.016 8.304-0.816 0.944-1.104 2.592-1.088 3.92 0.016 0.912 0.976 1.792 1.504 2.704 0.864-0.64 1.664-1.408 2.608-1.872 1.408-0.688 3.168-1.936 4.368-1.584 2.848 0.848 2.544-1.056 2.944-2.528 0.096-0.352 0.272-0.704 0.4-1.056 0.24 0.16 0.592 0.272 0.672 0.48 0.128 0.32 0.224 0.816 0.080 1.072-1.104 2-2.272 3.952-3.424 5.92-0.064 0.112-0.080 0.256-0.112 0.384 0.208 0 0.48 0.112 0.624 0 0.944-0.688 1.84-1.456 2.8-2.128 0.592-0.416 1.264-0.704 1.904-1.040 0.256 0.752 0.88 1.632 0.688 2.24-1.344 4.192-2.32 8.64-4.496 12.384-2.112 3.648-4.96 8.032-8.496 9.328-3.424 1.248-5.088 3.68-7.552 5.52-4.16 3.12-6.144 7.376-7.776 12.432-1.296 4-5.472 7.072-8.384 10.56-2.192 2.624-4.368 5.248-6.576 7.872-1.552 1.84-3.12 3.664-4.656 5.504-2.016 2.384-3.984 4.784-6.048 7.136-0.496 0.56-1.264 0.88-1.872 1.344-0.992 0.752-2.512 1.36-2.864 2.352-1.536 4.448-5.072 7.040-8.416 9.872-3.952 3.344-7.808 6.832-11.744 10.208-1.536 1.312-3.392 2.32-4.72 3.808-1.36 1.52-1.92 3.872-3.456 5.104-1.696 1.36-4.192 1.664-6.128 2.784-2.192 1.264-4.256 2.784-6.176 4.432-2.16 1.856-4.24 2.48-6.912 1.104-0.512-0.272-1.76 0.448-2.416 1.008-1.968 1.648-3.552 4.16-5.776 5.024-5.28 2.032-10.368 4.288-15.392 6.96-7.856 4.192-15.968 8.016-24.256 11.248-8.432 3.28-17.088 6.192-25.872 8.272-6.192 1.456-12.768 1.392-19.168 1.776-8.224 0.48-16.288 1.216-24.48 2.8-9.296 1.808-19.216 0.48-28.88 0.32-4.128-0.064-8.288-0.288-12.336-0.992-3.824-0.656-7.408 0.976-11.152 0.544-0.192-0.016-0.416 0.288-0.64 0.432 0.368 0.384 0.768 0.736 1.088 1.136 0.304 0.368 0.544 0.8 0.816 1.2-0.432-0.064-0.88-0.096-1.296-0.176-2.464-0.464-5.456-0.208-7.296-1.536-6.464-4.624-14.176-4.768-21.344-6.848-3.472-1.008-6.832-2.512-10.112-4.080-0.528-0.256-0.192-2.064-0.496-3.088-0.144-0.48-0.848-0.784-1.312-1.152-0.272 0.624-0.608 1.248-0.768 1.904-0.16 0.608-0.128 1.264-0.176 1.904-0.432-0.48-0.864-0.944-1.28-1.424-1.408-1.68-2.816-3.36-4.224-5.040-0.544-0.64-1.008-1.44-1.712-1.856-1.2-0.72-2.48-1.504-3.824-1.744-3.44-0.64-7.056-0.608-10.368-1.568-2.96-0.864-5.648-2.672-8.432-4.128-4.912-2.576-9.808-5.2-14.688-7.856-0.464-0.256-0.704-0.896-1.056-1.344 0.496 0.192 1.136 0.24 1.472 0.592 3.008 3.232 7.136 3.888 11.12 4.688 0.768 0.16 1.728-0.736 2.608-1.136-0.448-0.464-0.832-1.088-1.376-1.36-3.968-1.936-7.984-3.808-11.984-5.696-0.352-0.16-0.896-0.512-1.056-0.4-3.216 2.464-4.416-1.376-6.608-2.032-1.2-0.352-2.512-0.448-3.776-0.528-2.032-0.128-4.48 0.544-6.048-0.352-3.648-2.064-7.776-3.968-8.752-8.864-0.144-0.752-0.848-1.584-1.52-1.984-3.072-1.792-6.24-3.408-9.328-5.152-1.856-1.040-3.664-2.128-5.408-3.328-0.128-0.080 0.416-1.232 0.736-1.84 0.192-0.368 0.544-0.672 0.832-1.008-0.32-0.176-0.656-0.512-0.976-0.496-4.816 0.224-4.896-4.48-7.136-6.896-1.424-1.552-2.528-3.408-3.696-5.184-1.536-2.336-2.896-4.784-4.544-7.024-0.784-1.072-2.256-1.632-3.040-2.704-0.944-1.28-4.48-2.528-0.512-4.48 0.192-0.096 0.256-0.416 0.384-0.624-0.656-0.128-1.392-0.128-1.968-0.416-0.976-0.496-1.888-1.152-2.752-1.824-0.096-0.080 0.16-0.848 0.432-1.12 0.448-0.448 1.472-0.736 1.488-1.12 0.032-0.704-0.336-1.904-0.832-2.080-1.712-0.608-3.648-0.624-5.312-1.312-1.792-0.736-3.392-1.936-5.024-3.008-1.712-1.12-3.472-2.224-5.008-3.568-2.080-1.792-4.608-3.488-5.776-5.824-2.080-4.144-3.472-8.672-4.688-13.152-0.336-1.2 0.64-3.12 1.568-4.24 3.2-3.888 3.056-5.296-0.24-9.072-2.16-2.48-3.488-5.664-5.536-8.256-1.408-1.776-3.52-2.992-5.12-4.64-0.816-0.848-1.344-2.048-1.744-3.184-0.816-2.288-1.44-4.64-2.16-6.96-0.144-0.464-0.4-0.896-0.608-1.328 0.288-0.080 0.656-0.304 0.848-0.192 0.416 0.224 0.832 0.56 1.056 0.96 0.416 0.736 0.512 1.808 1.088 2.288 1.168 0.96 2.576 1.616 3.888 2.384-0.112-1.312-0.224-2.64-0.336-3.952-0.288 0.016-0.512 0.032-0.752 0.064zM385.52 81.392c-1.888-5.536-9.152-10.688-13.616-10.608-0.48 0.016-1.36 0.096-1.376 0.064-0.448-3.696-4.112-3.456-6.24-5.008-1.392-1.008-3.424-1.168-5.2-1.536-1.024-0.224-2.448 0.304-3.152-0.224-4.080-3.104-8-6.448-12-9.664-0.448-0.368-1.136-0.544-1.744-0.608-3.104-0.352-11.968-16.256-15.008-15.904-2.4 0.288-7.392-3.92-6.96 3.104 0.016 0.128-0.448 0.32-0.704 0.432-2.608 1.264-4.88 1.376-6.24-1.824-0.096-0.224-0.88-0.352-1.184-0.224-0.624 0.288-1.152 0.816-1.712 1.232 0.16-0.752 0.32-1.504 0.448-2.272 0.112-0.608 0.192-1.216 0.288-1.824-0.496 0.208-1.056 0.336-1.504 0.608-0.864 0.528-1.728 1.712-2.496 1.648-2.928-0.288-5.824-1.008-8.72-1.52-0.656-0.112-1.36-0.032-2.032-0.112-1.712-0.176-3.424-0.464-5.152-0.528-0.752-0.032-1.776 0.192-2.208 0.688-0.912 1.056-1.36 3.296-2.256 3.44-3.056 0.496-6.224 0.4-9.344 0.336-3.792-0.096-7.584-0.288-11.36-0.64-1.92-0.176-4-0.4-5.632-1.296-1.488-0.816-1.152-4.944-4.528-2.416-0.064 0.048-0.512-0.192-0.576-0.352-1.504-4.256-5.792-5.456-9.008-6.032-5.632-1.008-5.76 4.832-12.256 6.288-5.792 1.296-10.416 5.424-16.4 5.872-0.16 0.016-0.352 0.064-0.448 0.16-2.384 3.008-5.216 0.144-7.84 0.528-3.104 0.448-6.656-0.672-9.424 0.416-3.872 1.504-7.424 3.088-11.776 2.976-6.176-0.176-12.416 0.848-18.56 0.48-4.768-0.288-8.576 0.768-12.112 3.856-2.784 2.416-5.616 4.912-8.8 6.704-4.992 2.816-10.512 4.688-15.376 7.68-5.584 3.44-11.76 5.52-16.24 11.376-5.792 7.584-11.824 15.696-21.776 18.8-0.768 0.24-1.232 1.328-2 1.68-1.552 0.72-2.544 2.8-5.104 0.816-2.288-1.76-5.056-1.28-6.048 2.448-0.416 1.584-1.632 2.944-2.352 4.48-6.176 13.184-12.272 26.4-18.528 39.552-2.176 4.576-4.976 8.864-6.944 13.52-1.904 4.496-3.2 9.264-4.608 13.968-1.392 4.672-1.616 10.032-4.112 13.952-3.2 5.008-3.856 10.432-5.168 15.792-1.456 6-2.208 12.176-3.744 18.16-1.984 7.696-4.416 15.264-6.688 22.864-0.464 1.536-1.216 2.976-1.68 4.512-0.416 1.36-1.12 2.944-0.784 4.192 2.624 9.664 3.104 19.472 2.688 29.376-0.128 3.12-0.688 6.432 0.128 9.328 1.664 5.952 4.352 11.6 6.208 17.504 2.736 8.688 5.088 17.488 7.664 26.208 0.16 0.528 1.040 1.36 1.376 1.264 5.824-1.584 8.848 4.592 13.904 5.104 0.352 0.032 0.928 1.52 0.8 2.224-0.512 2.864-0.784 5.904-1.984 8.496-2.72 5.84-1.504 10.32 2.432 15.408 6.048 7.776 10.944 16.448 16.64 24.528 4.048 5.744 9.056 10.848 12.848 16.752 4.272 6.624 9.392 12.224 15.536 16.992 3.52 2.736 7.28 5.184 10.608 8.112 2.48 2.192 4.144 5.392 6.736 7.408 6.736 5.232 13.76 10.080 20.752 14.976 0.896 0.624 2.224 0.736 3.36 0.928 4.080 0.672 8.56 0.4 12.192 2.048 15.168 6.864 30.048 14.4 45.136 21.472 6.656 3.12 13.2 6.768 21.088 5.776 3.728-0.464 7.552-0.048 11.344 0.032 2.224 0.048 4.928 1.088 6.592 0.176 6.448-3.536 13.056-1.824 19.696-1.68 3.456 0.080 7.072-0.528 10.368-1.584 4.304-1.376 8.224-4.080 12.576-5.168 4.864-1.216 10.032-1.28 15.056-1.792 4-0.4 7.776-1.104 10.448-4.672 1.6-2.128 3.76-4 6.752-2.896 2.96 1.088 5.312 0.72 7.248-1.856 0.304-0.4 0.96-0.544 1.456-0.784 2.544-1.2 5.12-2.384 7.664-3.6 3.472-1.632 6.88-3.44 10.448-4.816 2-0.768 5.232-0.032 6.272-1.312 3.84-4.768 9.856-4.128 14.48-6.736 2.976-1.68 7.376-2.304 8.848-4.784 1.68-2.832 2.992-5.824 5.632-7.856 2.928-2.24 5.824-4.992 9.2-6.064 4.976-1.568 9.072-3.76 12.192-8.016 1.568-2.128 3.632-3.904 5.664-5.616 5.664-4.784 11.488-9.376 17.104-14.192 1.584-1.344 2.592-3.36 4.144-4.768 1.472-1.344 3.584-2.016 4.896-3.456 3.28-3.648 6.352-7.488 9.296-11.408 0.768-1.024 1.184-2.688 0.976-3.936-0.384-2.368-1.632-4.608-1.888-6.976-0.112-1.088 1.216-2.384 2.048-3.472 0.16-0.192 1.088 0.224 1.664 0.352 0.096-0.88 0.464-1.824 0.24-2.608-1.552-5.344-2.4-6.032 1.408-7.888 1.056-0.512 2.528-0.592 3.712-0.352 2.896 0.576 10.656-14.736 5.856-16.288-1.024-0.336-2.112-0.672-2.992-1.28-2.288-1.584-5.344 0.128-7.344 0.704-0.448 0.128-0.816 0.496-1.232 0.752 0.192-0.496 0.288-1.056 0.576-1.488 2.224-3.248 4.496-6.48 6.72-9.728 2.384-3.472-5.536-3.696-2.928-6.976 2.896-3.616-1.136-5.712 4.064-6.88 1.744-0.384 3.232-2 4.816-3.104 0.24-0.16 0.576-0.624 0.512-0.752-1.6-2.96 1.328-0.32 1.744-1.376 0.448-1.136 2.608-1.728 2.816-2.784 0.688-3.568 0.64-7.296 1.264-10.88 0.416-2.384 1.6-4.64 2.272-7.008 0.224-0.752 0.192-1.936-0.256-2.432s-1.296-6.112 1.504-7.456c0.544-0.272 1.376-0.64 1.472-1.088 1.088-5.296 2.272-10.592 3.024-15.952 0.608-4.368 0.416-8.848 1.040-13.2 1.552-10.8 2.352-21.408-4.448-31.056-0.656-0.928-0.528-2.4-0.72-3.632-0.928-6-1.504-12.080-2.848-17.984-1.424-6.256-3.712-12.32-5.392-18.528-1.52-5.568-2.64-11.232-4.080-16.816-1.744-6.768-5.888-12.224-9.872-17.808-3.12-4.352-5.488-9.248-8.656-13.552-4.592-6.256-9.616-12.208-14.432-18.304-2.368-3.008-4.32-6.48-7.088-9.040-4.048-3.728-8.88-6.576-12.96-10.256-4.72-4.24-8.064-10.112-14.608-12.128-0.624-0.192-1.744-0.432-1.92-0.176-0.64 0.096-0.928 0.704-1.664 0.352z"></path>
</svg>
