<!-- Generated by IcoMoon.io -->
<svg version="1.1" xmlns="http://www.w3.org/2000/svg" width="512" height="512" viewBox="0 0 512 512">
<title>monsters-chaotic-beasts</title>
<path fill="#fff" d="M34.688 338.576c0.896-4 3.488-6.896 6.224-9.792 3.136-3.312 5.936-6.96 8.864-10.464 0.304-0.368 0.528-0.848 0.896-1.168 8.752-8.144 14.672-18.576 22.336-27.584 5.344-6.32 11.12-12.272 16.816-18.272 2.416-2.544 5.6-3.392 9.136-3.616 3.68-0.24 7.328-0.848 10.928 0.432 1.296 0.448 2.848 0.8 3.76 1.728 5.632 5.776 11.952 11.072 13.44 19.728 0.592 3.456 0.48 6.336-2.176 9.024-3.616 3.68-6.896 7.696-10.4 11.488-3.488 3.792-7.712 6.528-12.64 8.128-0.224 0.080-0.496 0.128-0.704 0.24-11.296 6.944-24.576 8.976-36.352 14.72-2.272 1.104-4.576 2.192-6.976 2.992-1.6 0.528-3.504 0.208-5.056 0.816-4.736 1.888-9.936 2.912-13.584 7.056-1.024 1.168-2.624 0.672-3.504-0.752-0.416-0.672-0.656-1.472-0.96-2.224-0.016-0.864-0.016-1.68-0.016-2.512z"></path>
<path fill="#fff" d="M284.928 98.688c-0.944-2.528-1.728-4.624-2.512-6.72 2.32-1.328 5.344-1.072 7.6 1.072 1.136 1.040 2.096 2.32 2.912 3.632 5.728 9.056 12.48 17.264 19.632 25.232 3.312 3.696 5.856 8.096 8.864 12.048 1.616 2.112 3.536 4 5.36 5.968 0.944 1.008 2.096 1.872 2.96 2.928 1.728 2.096 3.36 4.256 4.944 6.448 2.384 3.328 4.544 6.528 9.36 6.976 4.144 0.384 8.032 0.896 12.032-0.88 2.736-1.232 5.744-1.952 8.704-2.544 4.128-0.864 6.72-3.168 7.92-7.168 1.568-5.072 2.336-10.224 1.584-15.536-0.272-1.952-0.16-3.936-0.48-5.872-0.384-2.48-0.592-5.152-1.664-7.376-3.248-6.816-7.808-12.56-13.952-17.168-6.688-5.008-12.896-10.672-19.344-15.984-5.568-4.592-11.024-9.216-15.584-14.96-2.528-3.2-6.256-5.456-9.504-8.064-2.032-1.616-4.16-3.104-6.48-4.816 2.416-1.664 2.704-3.536 1.152-5.664 2.048-1.6 3.984-1.104 5.808-0.080 4.016 2.224 8.048 4.432 11.984 6.8 14.096 8.416 28.816 15.184 45.024 18.64 3.248 0.704 6.576 2.32 9.2 4.4 8.432 6.624 16.592 13.648 24.832 20.528 0.816 0.672 1.584 1.44 2.416 2.096 7.712 6.112 15.472 12.16 23.12 18.352 1.808 1.472 3.312 3.392 4.768 5.28 1.712 2.192 3.28 4.512 4.704 6.912 0.816 1.376 1.392 2.96 1.76 4.544 0.8 3.248 1.504 6.528 2.096 9.808 1.168 6.544 1.888 13.136 0.56 19.776-0.288 1.424-0.16 2.912-0.432 4.352-0.576 3.12-0.816 6.4-2.016 9.28-1.664 3.984-4.064 7.664-6.192 11.44-1.248 2.224-2.656 4.336-3.92 6.528-4.656 7.92-10.544 14.8-17.68 20.608-3.36 2.752-6.944 5.232-10.304 8-11.344 9.312-24.736 15.024-37.744 21.424-1.664 0.816-3.568 1.232-5.424 1.6-4.368 0.896-7.776 3.488-10.944 6.32-0.992 0.88-1.472 2.784-1.456 4.208 0.080 3.488 1.312 6.544 3.68 9.376 6.512 7.808 12.688 15.888 19.072 23.808 2.736 3.36 5.792 6.464 8.464 9.888 3.184 4.064 6.096 8.32 9.12 12.48 5.424 7.488 5.648 16.448 6.752 25.040 0.8 6.336 0.608 12.784 1.040 19.168 0.656 9.568-2.192 18.304-6.16 26.784-2.128 4.592-4.688 9.024-6.8 13.648-0.992 2.112-1.84 4.496-1.952 6.8-0.272 5.648-2.672 10.496-5.36 15.168-2.32 4.048-5.2 7.776-7.92 11.584-1.648 2.272-3.792 2.24-4.928-0.304-0.672-1.504-0.8-3.536-0.416-5.152 0.672-2.848 1.808-5.6 2.928-8.336 3.472-8.432 4.928-17.104 3.68-26.192-0.24-1.76-0.208-3.616-0.064-5.392 0.272-3.6-0.656-6.912-1.6-10.352-2.528-9.216-7.776-16.848-12.96-24.672-3.024-4.576-5.424-9.568-9.792-13.104-0.944-0.752-1.872-1.744-2.976-2.112-4.784-1.536-9.632-2.624-14.72-1.28-7.312 1.952-14.096 4.992-19.712 10.096-5.712 5.216-9.168 11.952-11.088 19.392-0.672 2.672-0.848 5.488-1.136 8.256-0.416 3.728-0.752 7.472-1.040 11.216-0.096 1.536-0.416 3.328 0.208 4.576 1.888 3.824 0.64 7.52 0.224 11.312-0.224 1.984 0.080 4.016 0.16 6.032 0.016 0.416 0.288 0.864 0.192 1.184-1.296 3.776-0.016 7.456 0.272 11.184 0.208 2.752-0.016 5.568-0.352 8.32-0.752 6.336-1.568 12.672-2.592 18.976-0.64 3.872-1.648 7.696-2.544 11.536-0.784 3.344-1.936 6.448-3.872 9.44-2.096 3.216-3.184 7.12-4.64 10.736-1.536 3.776-2.992 7.568-4.48 11.392-0.944 2.416-1.872 4.832-2.752 7.264-0.528 1.472-0.336 3.712-2.656 3.456-2.112-0.24-2.848-2.032-2.656-4.064 0.56-5.456 0.944-10.96 1.792-16.384 1.392-9.056 2.32-18.048 0.272-27.136-0.352-1.504-0.448-3.36-2.192-3.28-1.152 0.064-2.528 1.328-3.264 2.416-1.184 1.728-2.080 3.536-4.544 3.632-1.952 0.064-3.344-0.592-3.968-2.56-0.16-0.56-0.336-1.104-0.576-1.616-1.024-2.32-2.528-2.528-4-0.512-0.816 1.104-1.52 2.336-2.176 3.568-1.616 3.104-4.4 3.936-7.28 1.904-1.168-0.816-1.936-2.192-3.056-3.104-0.88-0.72-2.016-1.248-3.12-1.536-0.208-0.064-1.184 1.36-1.184 2.080 0.064 10-2.128 19.952-0.704 29.968 0.016 0.080 0 0.192 0.016 0.24 3.312 6.544 2.656 14.048 5.024 20.832 0.496 1.424 0.080 3.12 0.080 4.704 0 0.128-0.192 0.24-0.448 0.56-0.672-0.656-1.376-1.184-1.936-1.84-1.792-2.176-3.984-3.536-6.752-4.208-1.136-0.288-2.464-1.216-2.96-2.224-1.888-3.792-3.424-7.76-5.2-11.632-0.672-1.456-1.664-2.768-2.384-4.224-1.424-2.912-2.912-5.824-4.080-8.848-1.184-3.12-2.080-6.368-3.024-9.584-0.416-1.424-0.848-2.848-0.928-4.304-0.848-13.216-3.28-26.192-6.544-39.008-1.616-6.336-0.528-12.384 0.784-18.48 1.136-5.28 0.72-10.16-2.128-14.928-0.784-1.296-0.72-3.632-0.128-5.088 2.528-6.144 0.304-11.808-1.392-17.488-0.336-1.072-1.744-1.888-2.768-2.656-2.016-1.456-3.2-3.248-3.072-5.808 0.192-3.872-1.744-6.576-4.944-8.432-2.48-1.44-4.928-2.992-7.568-4.080-7.2-2.992-14.384-1.888-20.816 1.824-4.768 2.752-9.216 6.384-12.992 10.4-7.040 7.488-11.52 16.416-14.16 26.544-2.080 7.856 0.048 14.896 1.52 22.224 0.48 2.4 1.184 4.768 1.712 7.168 0.192 0.88 0.128 1.824 0.192 3.2-4.256-1.312-5.024-5.536-8.576-7.856-0.064 1.952-0.448 3.568-0.080 5.008 0.864 3.248 2.192 6.336 3.136 9.568 0.288 0.96-0.096 2.128-0.192 3.2-0.96-0.208-2.096-0.144-2.88-0.656-9.232-6.016-15.6-14.304-19.296-24.672-0.896-2.544-2.032-5.008-2.768-7.616-0.56-1.952-0.784-4-0.896-6.032-0.48-8.752-0.96-17.504-1.184-26.272-0.096-3.824 0.336-7.664 0.64-11.472 0.208-2.608 0.496-5.232 0.96-7.824 0.352-1.824 0.848-3.696 1.664-5.376 5.68-11.664 12.752-22.288 22.784-30.784 5.072-4.288 9.728-9.056 14.592-13.584 2.976-2.768 3.568-6.176 3.312-10.096-0.272-3.552 0-7.136 0.224-10.72 0.16-2.448 0.672-4.864 1.024-7.312 0.224-1.52-0.352-2.464-1.872-2.976-2.464-0.848-4.832-2.096-7.344-2.688-2.112-0.496-4.4-0.224-6.592-0.384-10.864-0.752-20.912-4.56-31.040-8.208-3.456-1.248-7.168-1.792-10.544-3.168-6.816-2.736-13.648-5.536-20.224-8.832-7.456-3.712-13.472-9.232-18.208-16.192-2.16-3.168-4.864-5.952-7.168-9.056-3.536-4.784-5.248-10.368-6.176-16.16-1.008-6.336-1.168-12.672-0.272-19.104 0.88-6.304 1.040-12.72 1.248-19.088 0.288-9.136 4.080-16.592 9.632-23.664 9.184-11.76 17.744-24 26.72-35.904 5.008-6.608 11.040-12.096 18.992-15.104 1.824-0.704 3.504-1.744 5.216-2.736 12.848-7.392 26.96-10.944 41.344-13.728 2.752-0.528 5.456-1.6 8.048-2.736 12.432-5.424 23.632-13.12 35.408-19.744 1.648-0.928 3.392-1.68 5.136-2.336 0.848-0.336 1.808-0.272 2.736-0.368 0.144 0.224 0.304 0.432 0.448 0.656-3.408 4.784-6.688 9.648-10.272 14.288-3.12 4.016-6.4 7.92-9.936 11.584-5.968 6.192-12.912 11.2-21.088 14.080-7.264 2.544-13.2 6.656-18.208 12.48-4.64 5.392-9.792 10.384-14.72 15.536-2.256 2.384-4.56 4.72-6.816 7.12-0.496 0.528-1.024 1.136-1.28 1.792-4.144 11.040-7.008 22.144-0.992 33.504 0.384 0.72 0.704 1.536 1.28 2.080 9.008 8.224 19.28 13.504 31.776 13.648 4 0.048 6.768-1.168 8.32-5.312 1.728-4.64 4.16-8.912 7.312-12.928 4.624-5.92 8.656-12.336 11.184-19.568 1.040-2.992 2.688-5.792 3.904-8.752 1.296-3.184 2.096-6.576 3.6-9.632 3.872-7.984 9.296-14.816 16.048-20.576 1.808-1.536 3.84-1.6 5.776 0.192 2.4 2.224 3.248 4.784 2.16 7.184-4.224 9.344-2.224 20.448 5.008 27.632 1.28 1.28 2.56 2.544 3.76 3.904 4.304 4.88 9.888 7.52 16.224 7.76 10.736 0.448 21.312-0.64 30.96-6.096 0.432-0.24 0.896-0.48 1.376-0.528 5.136-0.8 8.096-4.080 9.744-8.704 2.112-5.936 4.832-11.744 4.704-18.224-0.064-2.608-0.496-5.216-0.816-7.824-0.384-3.136 0.384-3.84 3.28-2.912 0.608 0.208 1.28 0.304 1.936 0.416 0.56 0.048 1.136 0.016 2.464 0.096zM265.632 357.152c-3.616 1.328-4.592 2.608-5.248 6.576-0.88 5.456-2.592 10.496-6.72 14.432-0.576 0.56-1.088 1.248-1.456 1.968-1.088 2.176-2.304 1.808-3.776 0.416-2.8-2.608-3.792-5.936-4.448-9.584-0.48-2.592-1.648-5.072-2.672-7.536-0.208-0.512-1.152-0.992-1.744-0.992-0.384 0-1.072 0.848-1.136 1.376-0.288 2.4-0.672 4.848-0.528 7.232 0.24 3.984 0.848 7.952 1.328 11.904 0.128 1.040 0.448 2.048 0.704 3.072 0.656 2.672 1.536 5.296 1.952 8 1.28 8.336 2.336 16.688 3.6 25.040 0.368 2.448 2.048 3.024 3.776 1.424 5.296-4.96 9.584-10.608 11.008-17.92 2.080-10.752 4.432-21.472 4.496-32.544 0.016-2.768 0.608-5.52 0.864-8.288 0.096-1.392 0.016-2.816 0.016-4.576zM279.872 325.088c1.6-0.528 2.704-0.784 3.712-1.248 4.496-2.128 9.024-4.192 13.408-6.544 1.648-0.88 3.184-2.304 4.224-3.84 4.208-6.176 6.48-13.184 7.888-20.464 0.24-1.312-0.16-2.752-0.288-4.128-1.36 0.352-2.88 0.384-4.016 1.088-11.984 7.184-19.088 18.352-24.592 30.736-0.496 1.136-0.224 2.608-0.336 4.416zM188.448 293.888c-1.824 0.352-2.464 1.232-1.744 2.704 0.864 1.76 1.84 3.488 2.976 5.072 2.768 3.856 5.808 7.536 8.48 11.456 5.664 8.336 12.56 10.8 21.92 7.568 2.528-0.864 3.072-2.192 1.312-4.144-2.624-2.896-5.232-5.936-8.336-8.224-5.52-4.112-11.312-7.84-17.168-11.456-2.24-1.376-4.944-2.016-7.456-2.976zM272.32 317.552c-2.688-0.192-3.856 0.56-3.632 2.592 0.080 0.752 1.008 1.936 1.664 2.016 1.888 0.24 2.448-1.104 1.968-4.592z"></path>
<path fill="#fff" d="M477.248 304.080c0 0.608 0.048 0.8 0 0.944-0.512 1.296-1.024 2.592-1.536 3.856-1.136-0.816-2.272-1.584-3.36-2.464-0.608-0.512-1.024-1.312-1.664-1.76-1.456-0.992-2.768-1.008-3.504 0.928-0.432 1.152-0.784 2.336-1.328 3.424-0.8 1.568-2.128 2.24-3.616 1.024-2.368-1.936-5.104-2.384-7.984-2.832-4.736-0.752-9.44-1.84-14.208-2.56-4.912-0.752-9.888-1.872-14.8-1.728-11.296 0.336-21.808-3.472-32.64-5.36-0.64-0.096-1.328-0.352-1.792-0.752-5.088-4.48-10.32-8.832-15.152-13.584-2.368-2.32-2.592-5.712-2.32-9.024 0.208-2.512 0.224-5.072 0-7.568-0.416-4.288 0.736-6.96 4.656-8.832 4.144-1.968 8.368-3.712 12.624-5.44 0.848-0.352 1.952-0.384 2.832-0.192 10.16 2.32 19.712 6.016 28.080 12.464 14.864 11.408 31.024 20.8 47.664 29.376 1.6 0.816 3.12 1.808 4.56 2.896 2.448 1.888 3.856 4.368 3.488 7.2z"></path>
<path fill="#fff" d="M254.368 107.6c-0.128 0.88 0 1.888-0.432 2.592-2.992 5.072-6.576 9.296-13.040 10.128-6 0.752-13.504-2.672-16.416-7.968-3.408-6.176-3.792-12.784-2.752-19.6 1.68-11.104 3.344-22.208 5.072-33.296 1.104-7.12 1.888-14.304 3.504-21.312 2.704-11.76 3.36-24.080 8.976-35.12 0.944-1.872 2.080-3.424 4.224-2.896 2.16 0.56 2.848 2.592 2.976 4.64 0.272 4.56 0.24 9.136 0.624 13.696 0.496 5.872 1.040 11.744 1.936 17.568 1.136 7.616 2.448 15.184 3.968 22.72 0.928 4.56 3.024 8.976 3.408 13.552 0.48 5.6 1.568 10.96 3.328 16.256 0.144 0.448 0.064 0.96 0.080 1.456 0.080 3.344 0.16 6.672 0.272 10.016 0.016 0.896 0.224 1.792 0.272 2.688 0.144 4.080-0.384 4.64-4.576 4.784-0.496 0.016-0.96 0.128-1.456 0.192 0.064-0.64 0.384-1.424 0.144-1.888-0.368-0.704-1.088-1.296-1.76-1.728-0.16-0.096-1.216 0.608-1.168 0.784 0.208 0.816 0.512 1.68 1.040 2.304 0.352 0.368 1.184 0.304 1.808 0.448z"></path>
</svg>
