<!-- Generated by IcoMoon.io -->
<svg version="1.1" xmlns="http://www.w3.org/2000/svg" width="512" height="512" viewBox="0 0 512 512">
<title>monsters-of-order</title>
<path fill="#fff" d="M161.44 68.88c-2.032 2.496-3.504 4.576-5.248 6.384-2.448 2.528-3.616 5.52-4.080 8.928-0.16 1.184-0.032 2.208 1.056 2.768 1.216 0.624 2.352 0.224 3.12-0.864 0.752-1.040 1.216-2.32 2.064-3.264 3.552-3.856 3.584-8.48 3.072-13.968zM345.84 465.84c-0.368-0.864-0.928-1.808-1.184-2.816-0.88-3.552-2.912-6.544-5.056-9.312-4.016-5.168-9.376-8.16-16.192-7.664-3.408 0.256-5.056 2.144-5.6 5.568-0.24 1.552-0.816 3.104-1.536 4.496-1.76 3.44-4 6.64-5.52 10.176-3.056 7.136-7.76 12.72-13.792 17.552-6.448 5.184-13.872 8.656-20.784 13.024-2.016 1.28-4.272 1.856-6.736 1.936-2.24 0.080-4.448 0.736-6.672 1.12-0.912 0.176-1.824 0.352-2.88 0.576 0.048-0.624-0.016-0.96 0.128-1.2 2.56-4.816 3.248-9.984 2.944-15.344-0.208-3.552-0.192-7.136-0.72-10.64-0.288-1.92-1.184-3.904-2.336-5.504-2.192-3.056-5.216-3.712-8.864-2.544-3.888 1.248-7.312 3.104-10.256 5.888-2.496 2.352-4.784 4.96-7.408 7.168-3.712 3.104-7.584 6-11.456 8.912-3.44 2.576-7.104 4.848-10.384 7.6-2.912 2.432-5.936 4.592-9.36 6.256-7.312 3.536-15.072 5.776-22.752 8.224-0.624 0.208-1.264 0.32-1.856 0.592-5.536 2.464-11.296 2.416-17.136 1.504-4.88-0.768-9.776-1.488-14.672-2.24-0.736-0.128-1.488-0.32-2.224-0.384-1.536-0.144-1.872-0.992-1.824-2.432 0.176-4.416 0.24-8.832 0.32-13.248 0.080-4.688-2.080-8.336-5.664-11.040-3.408-2.576-4.72-5.52-3.664-9.776 0.816-3.312 0.976-6.784 1.552-10.144 0.544-3.168 1.216-6.304 1.84-9.44 0.464-2.304 0.912-4.608 1.392-6.912 1.184-5.664 2.384-11.344 3.6-16.992 0.128-0.64 0.256-1.264 0.432-1.888 2.128-7.12 4.272-14.208 6.384-21.328 0.576-1.952 0.88-4 1.536-5.92 1.968-5.808 4.080-11.552 6.096-17.344 0.624-1.824 0.992-3.744 1.6-5.584 1.84-5.504 3.776-10.976 5.584-16.48 0.624-1.92 0.944-3.936 1.44-5.904 0.24-0.928 0.4-1.936 0.848-2.768 2.544-4.48 5.024-8.96 8.112-13.136 4.608-6.224 8.656-12.848 12.896-19.344 1.232-1.904 2.16-4 3.504-5.808 1.488-1.952 3.216-3.744 4.976-5.472 1.152-1.104 2.624-1.888 3.824-2.992 6.224-5.776 12.464-11.552 18.608-17.408 6.352-6.064 11.2-13.376 16.16-20.528 2.8-4.032 6.016-7.664 9.056-11.456 1.328-1.68 2.672-3.328 4.128-4.896 3.648-3.936 7.456-7.728 11.008-11.76 1.392-1.568 2.32-3.584 3.328-5.44 1.648-2.976 3.264-5.968 4.784-9.024 0.704-1.408 1.2-2.912 1.632-4.448 0.4-1.424 0.4-2.992 0.864-4.384 2.288-6.912 1.824-14-0.016-20.704-1.376-5.024-3.936-9.968-8.56-13.264-2.544-1.808-5.232-3.536-7.36-5.776-3.648-3.84-8.064-4.128-12.8-3.696-2.784 0.272-5.568 0.544-8.336 0.928-6.832 0.912-13.072 3.232-18.88 7.024-4.336 2.832-5.152 7.008-5.104 11.456 0.048 3.28 0.928 6.544 1.488 10.224-1.088 0-2.224 0-3.36 0.016-1.408 0-2.912-0.32-4.192 0.096-4.528 1.488-8.64-0.096-12.8-1.408-3.136-0.992-5.040-0.512-6.72 2.272-3.2 5.28-3.104 10.592 0.064 15.856 0.608 1.008 1.312 1.968 1.968 2.96 0.048 0.064-0.016 0.208-0.032 0.656-1.088-0.096-2.208-0.128-3.296-0.304-2.016-0.304-4.048-0.528-5.984-1.088-1.152-0.32-2.224-1.12-3.168-1.904-0.816-0.672-1.312-1.712-2.096-2.432-1.28-1.184-2.688-1.824-4.624-1.52-3.712 0.592-7.472 0.848-10.608 1.184-8.112-3.136-12.304-9.28-15.6-16.24 0.16-0.208 0.32-0.432 0.48-0.656 1.6 0.704 3.184 1.456 4.8 2.096 1.088 0.416 2.24 0.88 3.376 0.96 2.656 0.176 3.712-1.632 2.384-3.984-0.576-1.040-1.232-2.016-1.792-3.040-0.208-0.352-0.24-0.816-0.4-1.36 3.184-1.84 6.8 1.328 10.080-1.024-0.16-3.136-2.624-4.688-4.752-6.272-2.064-1.52-4.464-2.592-6.624-3.984-0.624-0.4-1.44-1.392-1.296-1.84 0.24-0.768 1.072-1.536 1.84-1.888 0.944-0.432 2.080-0.512 3.152-0.56 1.6-0.096 3.264-0.224 4.832-0.016 3.968 0.512 6.304-1.36 7.808-4.8 0.544-1.232 1.328-2.368 1.92-3.408-1.792-3.44-6.256-2.32-8.064-5.488 0.704-2.112 2.544-3.28 4.384-3.088 2.96 0.32 5.92-0.176 8.912 0.912 3.856 1.392 8.144-2.080 8.272-6.192 0.16-5.36-3.424-9.072-8.832-9.152-0.976-0.016-1.936 0-2.912-0.064-4.688-0.256-7.648 2.080-9.68 6.128-0.992 1.984-2.272 3.872-3.664 5.6-2.16 2.688-4.24 5.36-5.552 8.64-0.896 2.24-2.48 4.224-3.68 6.352-1.792 3.184-3.264 6.576-5.312 9.568s-4.736 5.568-7.072 8.368c-1.376 1.664-3.712 2.688-3.696 5.328 0 0.176-0.208 0.384-0.384 0.512-4.464 3.632-8.544 7.728-13.568 10.72-5.504 3.264-11.344 3.744-17.456 2.832-0.816-0.128-1.616-0.624-2.32-1.104-5.408-3.856-9.040-8.8-9.2-15.744-0.016-0.384 0.112-0.768 0.24-1.6 0.752 0.816 1.52 1.28 1.648 1.872 0.448 2.112 2 3.488 3.088 5.168 1.632 2.528 3.824 3.648 6.688 3.824 3.728 0.24 7.248-0.128 10.576-2.128 4.256-2.56 8.336-5.248 11.536-9.184 1.888-2.32 4.352-4.128 6.32-6.384 1.456-1.648 2.672-3.568 3.744-5.504 2.656-4.8 5.264-9.616 7.728-14.528 2.080-4.176 4.048-8.416 5.808-12.736 0.688-1.712 0.512-3.776 1.088-5.552 0.704-2.096 1.52-4.272 2.8-6.048 1.36-1.872 1.712-3.888 1.824-5.984 0.112-1.952-1.264-3.68-3.232-3.792-1.648-0.096-3.392 0.224-5.008 0.656-2.048 0.544-4 1.52-6.032 2.112-3.664 1.056-4.976 2.624-5.008 6.432-0.016 2.032-0.016 4.064-0.016 6.496-1.264 0-2.8-0.016-4.352 0.016-1.376 0.016-2.512-0.432-3.424-1.488-1.264-1.472-2.992-1.616-4.752-1.456-1.904 0.176-2.992 1.28-2.912 3.184 0.080 1.792 0.496 3.584 0.816 5.36 0.352 1.872 0.768 3.744 1.328 6.352-2.368-1.76-4.528-2.88-6.048-4.608-1.552-1.776-2.432-4.112-3.664-6.304-2.88 1.696-3.184 5.232-6.080 6.688-2.512 1.264-4.624 3.296-7.312 5.28-0.16-1.408-0.432-2.544-0.384-3.648 0.24-5.040 0.56-10.080 0.928-15.104 0.24-3.216 0.544-6.416 0.928-9.616 0.128-1.056 0.384-2.176 0.896-3.072 2.336-3.968 3.136-8.448 4.16-12.8 0.48-2.016 1.376-3.584 2.304-5.28 0.976-1.792 1.84-3.632 2.8-5.44 0.192-0.352 0.656-0.544 0.816-0.672 1.424 0.528 2.688 0.992 4.192 1.552 2.496-2.912 5.008-5.968 7.648-8.896 3.152-3.52 6.48-6.896 9.616-10.416 1.2-1.328 2.144-2.912 3.184-4.416 1.376-2.016 2.624-4.032 4.912-5.36 2.944-1.728 4.72-4.528 5.92-7.808 2.656-7.264 7.696-13.072 11.728-18.992 2.128 1.936 4.080 3.744 5.968 5.472 4.912-2.848 7.424-7.136 9.6-11.712 0.688-1.456 1.6-2.816 2.32-4.256 2.224-4.416 4.4-8.848 6.608-13.264 0.432-0.864 0.96-1.68 1.456-2.528 0.848-1.472 1.712-2.912 2.528-4.416 0.976-1.792 1.712-3.744 2.896-5.376 0.928-1.264 2.304-2.24 3.632-3.104 0.592-0.384 1.84-0.4 2.336-0.016 0.416 0.32 0.4 1.568 0.176 2.272-0.464 1.536-1.264 2.976-1.808 4.496-0.816 2.288-2.064 4.528-0.752 7.088 0.24 0.464-0.128 1.248-0.208 1.872-0.176 1.472-0.336 2.944-0.544 4.88 1.088-0.512 1.712-0.8 2.336-1.088 0.768-0.368 1.568-1.104 2.304-1.056 3.888 0.32 6.336-2.336 9.088-4.256 2.048-1.408 3.904-2.928 6.576-3.12 1.216-0.080 2.608-0.64 3.552-1.424 2.592-2.16 5.92-3.328 8.080-6.048 0.272-0.32 0.624-0.592 0.96-0.848 2.736-2.080 5.328-4.208 7.424-7.072 1.856-2.544 4.544-4.448 7.152-6.88-0.080 0.992-0.128 1.856-0.208 2.72-0.384 3.632-0.624 7.28-1.216 10.88-0.384 2.288-1.104 4.576-2.064 6.704-2.016 4.496-4.288 8.896-6.576 13.584 0.848 0.24 1.408 0.464 1.984 0.528 6.016 0.512 11.712-0.832 17.248-3.072 2.192-0.896 4.384-1.84 6.672-2.4 7.984-1.984 13.936-7.088 19.504-12.672 2.992-3.008 5.488-6.528 8.256-9.872 2.32 3.936 1.296 7.872 0.768 11.728-0.304 2.224-0.992 4.384-1.376 6.576-1.040 5.856-3.968 10.592-8.32 14.512-2.256 2.048-2.992 4.32-1.456 7.152 0.928 1.712 1.632 3.52 2.56 5.232 1.344 2.496 3.184 3.168 5.92 2.224 2.448-0.832 4.88-1.696 7.312-2.56 5.44-1.92 11.12-2.464 16.8-2.944 0.928-0.080 2.096-0.176 2.8 0.288 3.632 2.24 7.632 1.936 11.616 1.968 0.432 0 0.848-0.048 1.28-0.048 0.096 0 0.192 0.096 0.432 0.224-0.288 0.448-0.432 1.040-0.832 1.296-2.72 1.728-5.456 3.408-8.224 5.056-0.736 0.432-1.76 0.544-2.304 1.136-3.008 3.328-5.92 6.752-8.848 10.176-0.112 0.128-0.048 0.416-0.064 0.88 0.704-0.048 1.392-0.016 2.048-0.144 5.968-1.184 12.176-1.424 17.76-4.304 0.464-0.24 1.072-0.4 1.552-0.288 3.040 0.704 5.952-0.464 8.928-0.544 1.792-0.048 4.144 1.088 4.96 2.72 0.848 1.68 0.48 3.376-1.072 4.992-0.288 0.304-0.592 0.656-0.96 0.864-5.648 3.248-7.92 9.168-11.2 14.272-1.76 2.72-2.16 5.632 0.464 8.704 1.792-0.912 3.744-1.888 5.696-2.88 0.576-0.288 1.072-0.88 1.664-0.96 5.632-0.816 11.088-2.768 16.864-2.496 3.216 0.144 6.496-0.064 9.632 0.512 5.28 0.96 10.48 2.304 15.664 3.744 3.44 0.96 3.376 1.168 3.84 5.136-0.48 0.112-0.96 0.32-1.456 0.352-5.056 0.208-9.344 2.368-13.2 5.424-1.392 1.104-2.784 1.68-4.608 1.952-3.744 0.592-6.832 2.72-8.64 6.112-1.712 3.216-3.040 6.608-4.4 9.648 1.312 0.896 2.736 1.76 4.016 2.768 1.968 1.552 4 2.848 6.512 3.36 2.32 0.448 4.592 1.152 6.912 1.648 1.552 0.32 3.136 0.656 4.72 0.656 2.928 0.016 5.392 1.28 7.936 2.448 1.072 0.496 2.16 1.216 3.264 1.264 5.52 0.272 9.024 3.584 12.128 7.616 1.232 1.6 2.48 3.184 3.68 4.8 0.32 0.432 0.464 0.96 0.656 1.376-0.928 1.648-2.016 1.376-3.328 0.736-1.824-0.88-3.856-1.392-5.584-2.4-2.736-1.6-5.424-0.896-8.080-0.144-3.024 0.848-5.808 2.208-8.24 4.288-1.648 1.44-2.496 3.152-2.704 5.296-0.64 6.832 3.024 11.824 9.424 13.936 2.128 0.688 4.4 0.848 6.576 1.392 0.88 0.208 1.856 0.624 2.432 1.264 5.6 6.24 10.448 13.072 15.040 20.096 0.144 0.24 0.176 0.56 0.4 1.408-3.552-2.48-7.152-2.432-10.784-1.968-2.128 0.272-4.272 0.4-6 2.048-0.448 0.432-1.376 0.496-2.096 0.544-5.76 0.368-10.256 5.392-10.464 11.312-0.144 4.4 1.824 8.096 3.408 11.952 1.104 2.672 2.816 4.72 5.248 6.336 3.104 2.080 6.048 4.464 9.040 6.72 0.352 0.256 0.704 0.512 0.976 0.848 4.352 5.168 9.008 10.144 12.944 15.632 2.432 3.408 4.64 6.944 7.728 9.84 0.72 0.656 1.024 1.776 1.168 3.12-1.408-0.64-2.832-1.232-4.224-1.904-3.344-1.616-6.816-2.528-10.592-2.432-1.664 0.048-3.328-0.528-4.992-0.784-3.424-0.512-6.816-0.976-9.952 1.232-2.192 1.536-4.656 2.688-6.768 4.32-1.92 1.488-3.792 3.184-5.184 5.136-1.456 2.048-1.904 4.688-0.976 7.088 2.096 5.472 4.656 10.704 9.872 14 0.96 0.608 2.096 1.056 3.2 1.328 2.656 0.656 4.976 3.2 5.168 5.888 0.112 1.616-0.4 3.072-1.776 3.936-1.344 0.864-2.768 1.696-4.288 2.16-4.512 1.376-8.432 3.76-11.872 6.88-5.888 5.36-9.424 12.144-11.616 19.744-1.072 3.776-1.456 7.584-1.312 11.472 0.096 2.368 0.288 4.784-0.048 7.088-0.992 6.864 1.952 12.32 5.728 17.6 0.544 0.752 1.136 1.648 1.2 2.512 0.4 4.832 3.344 7.488 7.472 9.232 0.4 0.16 0.832 0.24 1.232 0.368 0.304 0.096 0.592 0.24 0.896 0.368 1.344 4.080 4.208 6.896 7.584 9.28 0.704 0.512 1.6 0.816 2.128 1.44 3.392 4.080 8.224 5.792 12.864 7.664 4.512 1.808 9.344 2.912 14.208 2.256 2.8-0.368 5.536-1.568 8.176-2.704 1.728-0.736 3.264-1.984 4.784-3.136 0.544-0.416 0.896-1.184 1.136-1.872 0.992-2.816 2.912-5.024 4.816-7.2 0.56-0.64 1.52-0.928 2.24-1.36 1.44 3.632 2.8 6.864 3.968 10.16 0.304 0.848 0.128 1.904 0.032 2.848-0.128 1.168-0.592 2.32-0.56 3.488 0.208 7.888-3.2 14.32-7.968 20.192-2.784 3.408-5.584 6.8-8.528 10.096-6.272 7.056-13.824 12.56-21.616 17.824-7.264 4.912-15.104 8.704-23.088 12.176-2.56 1.104-5.312 1.824-7.84 2.992-4.176 1.936-8.256 4.112-12.528 6.272z"></path>
</svg>
