<!-- Generated by IcoMoon.io -->
<svg version="1.1" xmlns="http://www.w3.org/2000/svg" width="512" height="512" viewBox="0 0 512 512">
<title>monsters-of-destruction</title>
<path fill="#fff" d="M85.52 155.888c-3.216 3.424-3.392 7.728-4.928 11.408-0.24 0.56 0.64 1.6 0.992 2.384 3.664-1.2 4.784-4.128 5.296-6.816 0.384-2.048 1.184-4.816-1.36-6.992zM413.312 222.704c-2.16 1.104-3.6 2-5.152 2.592-2.88 1.104-4.672 3.424-6.464 5.68-0.592 0.736-0.752 2.128-0.592 3.136 0.896 5.328 2.288 10.496 5.664 14.928 4.080 5.328 8.304 10.576 12.016 16.16 2.816 4.24 4.928 8.976 7.6 13.904-2.496-0.224-4.416-0.416-6.352-0.56-2.384-0.176-4.032 0.752-4.992 3.072-1.216 2.88-2.752 5.616-3.952 8.512-1.056 2.576-0.976 5.232 0.144 7.84 0.352 0.816 0.48 1.712 0.656 2.592 1.040 5.44 2.048 10.88 3.12 16.56 0.8 0.192 1.856 0.448 2.656 0.64 1.168 3.168 2.272 6.064 3.296 9.008 0.272 0.816 0.416 1.712 0.432 2.592 0.064 1.904-0.016 3.808 0.016 5.712 0.032 4.384 2.624 7.024 7.008 7.28 2.416 0.144 4.832 0.384 7.248 0.672 0.592 0.080 1.408 0.32 1.712 0.768 2.32 3.408 5.936 5.76 7.408 9.888 1.040 2.88 2.912 3.568 5.904 3.008s4.448 0.144 5.984 2.864c2.256 3.984 3.168 4.4 7.488 3.072 1.264-0.384 2.24-0.304 2.864 0.88 1.632 3.184 4.832 4.24 7.728 5.6 1.312 0.608 3.024 0.32 4.704 0.464 2.192 4.592 2.032 9.616 1.712 14.608-0.384 6.528-3.072 12.528-4.656 18.768-1.888 7.392-7.056 12.272-11.504 17.76-9.472 11.728-20.352 22.096-32.224 31.328-15.056 11.712-31.024 22.064-48.112 30.656-16.96 8.528-34.56 15.36-52.864 20.336-12.752 3.456-25.68 6.176-38.832 7.616-13.488 1.472-27.040 1.6-40.576 1.088-6.368-0.24-12.672-1.488-19.024-2.080-3.44-0.304-6.896-0.256-10.352-0.256-2.624 0-5.104-0.336-7.36-1.872-0.688-0.464-1.664-0.544-2.512-0.736-3.712-0.768-5.168-3.792-3.184-7.056 1.456-2.384 3.2-4.592 4.912-6.992-2.048-2.352-1.952-4.88-0.96-7.568 1.888-5.136 3.664-10.288 5.584-15.696-4.080-4.064-6.112-9.392-5.776-15.648 0.080-1.456 0.064-2.928 0.016-4.368-0.080-2.304 0.704-4.064 2.672-5.424 2-1.392 1.952-2.736 0.704-5.040-0.48-0.864-0.544-2.128-0.368-3.136 0.32-1.744 0.096-3.088-2.048-4.016 1.328-3.44 2.624-6.768 3.904-10.064 0.592-1.456 1.072-2.976 1.872-4.304 2.32-3.904 1.632-7.904 0.704-11.968-0.48-2.080-1.664-3.632-3.472-4.736-0.752-0.464-1.552-0.848-2.624-1.408 2.512-8.384 4.992-16.72 9.040-24.672-0.784-0.448-1.488-0.736-2.048-1.184-1.936-1.488-3.264-3.296-3.216-5.936 0.080-4.464-0.208-8.976 0.144-13.44 0.368-4.768 1.088-9.568 4.208-13.824-1.328 0.368-2.672 0.704-4.384 1.168 0.192-1.008 0.256-1.84 0.512-2.64 2.368-7.68 6.528-14.48 10.928-21.12 2.144-3.232 3.568-6.448 3.136-10.336-0.528-5.088 1.328-9.136 5.056-12.512 2.72-2.448 5.248-5.088 8.128-7.904-0.928-2.224-1.584-5.12 0.16-7.52 1.552-2.112 3.792-3.68 6.016-5.776-0.208-1.328-1.904-1.536-3.664-2.272 0.784-1.504 1.424-3.008 2.304-4.368 2.304-3.552 4.624-7.12 7.136-10.544 4.24-5.76 8.784-11.328 12.928-17.168 2.448-3.44 3.392-7.68 3.648-11.776 0.368-5.472-0.080-10.96-2.816-16.016-1.936-3.568-4.512-6.304-8.288-8-1.568-0.704-3.12-1.776-4.288-3.056-3.952-4.368-8.944-5.072-14.128-3.632-2.368 0.656-4.592 0.512-6.896 0.656-2.336 0.16-4.704-0.032-7.024 0.208-4.752 0.496-7.472 3.504-7.568 8.24-0.048 2.784-0.048 5.6 0.080 8.4 0.064 1.44-0.368 2.56-1.136 3.744-1.2 1.872-2.192 3.872-3.248 5.84-2.224 4.128-4.464 8.256-6.656 12.4-3.296 6.256-6.672 12.448-9.728 18.816-2 4.128-3.6 8.448-5.104 12.768-0.432 1.264-0.048 2.848 0.096 4.288 0.208 1.984 0.752 3.936 0.816 5.92 0.192 5.488 2.48 8.576 7.84 10.272 0.304 0.080 0.592 0.256 1.216 0.528-1.136 2.128-2.112 4.24-3.328 6.208-2.576 4.128-6.208 7.28-10.096 10.144-2.512 1.84-4.976 3.792-7.472 5.648-1.44 1.056-2.896 2.128-4.432 2.992-2.704 1.504-5.328 3.024-7.872 4.896-3.728 2.736-8.208 3.744-13.136 3.92-5.232 0.192-9.424-2.512-14.208-3.28-2.736-0.432-5.344-1.424-8.224-0.448-1.168 0.4-2.64-0.112-3.984-0.16-1.44-0.064-2.896-0.16-4.336-0.080-1.6 0.080-2.896-0.352-4.368-1.104-2.096-1.072-4.64-1.328-7.008-1.84-5.856-1.264-12.016-1.6-16.944-5.648-0.336-0.288-0.816-0.416-1.12-0.736-2.48-2.528-4.752-5.312-7.456-7.552-3.472-2.88-5.312-6.88-7.872-10.384-2.688-3.68-5.072-7.6-7.568-11.44-0.192-0.32-0.144-0.816-0.208-1.376 0.576-0.080 1.056-0.32 1.408-0.192 3.632 1.36 7.152 2.72 10.128 5.552 2.864 2.736 6.288 5.008 9.776 6.96 2.128 1.2 4.64 1.968 7.408 1.232 1.792-0.48 3.792-0.24 5.696-0.144 4.64 0.24 9.024-0.88 13.472-2.112 4.288-1.216 8.736-1.872 13.12-2.736 2.384-0.48 4.8-1.024 7.216-1.264 1.616-0.16 3.296 0.192 5.088 0.32 1.616-2.4 1.6-2.944-0.656-4.608-2.944-2.16-5.152-4.88-7.024-8.016-1.712-2.848-3.952-5.392-5.904-8.128-1.040-1.44-2.128-2.896-2.848-4.48-0.944-2.064-0.448-3.936 1.632-5.28 3.008 1.776 6.128 3.184 9.728 3.232 2.176 0.032 4.112-0.416 5.12-2.464 1.104-2.256 1.632-4.64-0.16-6.88-2.528-3.136-2.848-6.832-2.976-10.848 2.432 0.288 4.672 0.288 6.752 0.864 2.384 0.64 4.368 0.512 6.208-1.248 0.448-0.416 1.152-0.592 1.824-0.928 0.912-4.064 1.44-8.288 2.864-12.192 1.152-3.184 3.056-6.24 5.2-8.88 2.896-3.568 3.68-7.28 2.528-11.568-0.144-0.544-0.32-1.072-0.528-1.6-1.52-4-3.12-7.968-1.616-12.336-4.528-1.072-9.344 1.856-10.368 6.272-0.416 1.728-0.464 3.552-0.64 5.328s-0.224 3.584-0.56 5.328c-0.592 3.088-2.064 5.76-4.928 7.248-3.984 2.112-7.632 4.592-10.768 7.856-1.104-0.56-1.264-1.328-0.816-2.24 0.464-1.024 0.832-2.112 1.488-3.008 3.248-4.32 2.592-9.344 2.528-14.208-0.032-2.912-2.128-4.816-4.624-4.864-2.592-0.048-4.288 1.936-4.832 5.040-0.48 2.736-1.408 5.376-2.128 8.032-0.48 1.824-1.184 3.632-1.36 5.472-0.192 2.032-2.048 2.064-3.12 3.376-0.448-1.408-1.024-2.608-1.2-3.856-0.384-2.944-2.448-4.752-4.384-6.544-3.376-3.12-9.952-0.816-11.088 3.76-0.368 1.52-0.864 3.024-1.040 4.576-0.192 1.52-0.048 3.088-0.048 5.040-3.792-0.336-6.128-3.68-10.032-4.592-1.488 0.976-3.408 2.16-5.248 3.472-0.624 0.432-1.376 1.056-1.536 1.728-1.136 4.608-5.040 7.456-7.136 11.392-1.712 3.184-1.808 6.896 0.144 10 3.856 6.144 7.984 12.128 12.16 18.064 1.472 2.096 3.856 3.008 6.304 3.568 1.28 0.304 2.848 0.304 2.848 2.192 0 1.424-1.328 2.4-3.472 2.432-4.928 0.064-9.92 0.48-14.784-0.144-3.792-0.48-7.552-1.984-11.072-3.568-4.144-1.872-7.984-4.432-12.048-6.48-1.952-0.976-3.6-2.16-5.008-3.824-4.256-5.056-8.4-10.192-11.104-16.272-1.040-2.336-3.456-2.176-5.136-3.312-0.704-0.48-1.664-0.592-2.384-1.040-3.968-2.464-7.792-2.336-11.504 0.496-0.416 0.32-0.8 0.704-1.264 1.12-1.664-1.328-1.936-3.040-2.112-4.848-0.256-2.672-0.688-5.312-1.024-7.984-0.080-0.544-0.288-1.152-0.128-1.632 0.944-2.96 2-5.888 3.008-8.832 0.224-0.64 0.528-1.232 0.752-1.872 2.528-7.392 5.216-14.768 7.504-22.24 1.552-5.024 2.736-10.16 3.632-15.328 0.416-2.384 0.976-4.56 2.256-6.56 0.736-1.152 1.184-2.208 0.624-3.744-0.592-1.648-0.224-3.52 1.488-4.416 6.96-3.616 10.832-10.24 15.664-15.92 2.448-2.88 4.992-5.68 7.488-8.528 1.776-2 3.728-3.904 5.264-6.096 2.416-3.456 5.248-6.32 9.008-8.352 7.92-4.256 14.976-9.776 22.048-15.296 2.368-1.824 5.216-3.008 7.792-4.576 0.784-0.48 1.744-1.136 2.032-1.936 2.432-6.56 6.128-12.432 9.344-18.592 2.944-5.632 5.184-11.632 7.632-17.504 1.248-3.008 2.112-6.16 3.456-9.104 0.752-1.68 1.904-3.392 3.328-4.512 1.152-0.928 1.776-1.888 2.24-3.152 3.168-8.688 8.176-16.368 13.248-24.016 0.752-1.104 1.344-2.352 2.192-3.36 1.216-1.44 2.544-2.784 3.904-4.032 2.144-1.968 4.368-3.856 6.576-5.76 0.752-0.656 1.44-1.504 2.336-1.888 5.232-2.208 10.208-5.296 15.968-5.808 2.8-0.256 5.712 0.496 8.56 0.8 0.080 0.224 0.16 0.464 0.24 0.704-0.848 0.768-1.584 1.712-2.56 2.272-2.112 1.232-4.368 2.272-6.544 3.392-0.304 0.144-0.752 0.192-0.88 0.416-1.552 2.496-4.368 3.328-6.512 5.008-0.432 0.352-0.896 0.704-1.216 1.152-4.816 6.528-9.84 12.96-13.040 20.48-1.44 3.36-2.272 7.008-3.12 10.576-0.64 2.8-0.464 5.856-1.392 8.528-1.584 4.512-0.784 9.072-1.168 13.584-0.176 1.856-0.72 3.68-1.104 5.536 1.712 1.152 2.608 0.768 3.104-0.976 0.624-2.16 1.424-4.256 1.936-6.432 1.376-5.648 2.656-11.328 3.968-17.008 0.096-0.4 0.256-0.784 0.64-1.184 1.824 7.024 2.432 14.208 3.040 21.008 2.336 1.328 4.416 2.512 6.944 3.952 2.848-1.312 6.224-2.752 9.52-4.368 2.704-1.328 5.216-3.040 7.952-4.288 2.672-1.232 4.48-3.296 6.208-5.488 2.272-2.912 4.384-5.952 6.72-8.8 7.040-8.64 13.184-17.84 18.032-27.872 1.504-3.136 3.168-5.92 5.552-8.576 2.544-2.816 3.744-6.832 5.568-10.288 0.528-0.992 1.2-1.92 1.792-2.88 0.256 0.112 0.496 0.224 0.752 0.32-0.24 1.28-0.4 2.576-0.704 3.824-1.712 6.736-3.68 13.424-5.088 20.208-0.704 3.456-0.432 7.12-0.528 10.672-0.032 1.456 0.288 2.928 0.16 4.352-0.224 2.384 0.672 4.112 2.944 5.616 1.552-1.2 3.296-2.384 4.848-3.792 2.624-2.416 5.088-4.992 7.696-7.44 3.76-3.52 7.488-7.104 11.392-10.432 2.72-2.32 5.712-4.304 8.608-6.4 2.352-1.712 4.752-3.344 7.12-5.056 3.616-2.608 7.168-5.28 10.8-7.872 0.624-0.432 1.424-0.624 2.128-0.928 2.080-0.848 4.288-1.456 6.192-2.56 4.816-2.784 9.92-3.072 15.584-2.448-0.976 2.048-2.128 3.648-3.824 4.992-4.704 3.712-8.272 8.416-11.552 13.376-0.192 0.272-0.432 0.608-0.416 0.912 0.256 3.152-1.488 5.696-2.336 8.528-0.72 2.432-0.416 5.376 0.112 7.92 0.64 3.072 4.32 5.376 7.792 5.28 2.208-0.080 4.048 0.048 5.696 1.888 1.312 1.472 3.296 1.664 5.312 1.312 1.744-0.304 3.568-0.528 5.312-0.384 4.368 0.336 8.448-0.816 12.4-2.352 7.792-3.040 15.84-3.84 24.064-3.008 2.848 0.288 5.68 1.024 8.144 2.768 1.344 0.96 2.88 1.664 4.736 2.72-1.424 1.104-2.752 2.176-4.144 3.168-0.816 0.576-1.904 0.816-2.624 1.456-2.8 2.528-5.664 4.432-9.792 3.568-0.848-0.176-2.192 0.96-2.976 1.808-1.040 1.136-1.776 2.56-2.656 3.92-0.352 0-0.672 0.048-0.976 0-3.92-0.704-6.336 0.176-8.032 3.232-1.616 2.912-1.296 5.824 0.64 8.528 0.448 0.64 1.104 1.12 1.6 1.712 1.2 1.344 1.584 2.88 1.12 4.656-0.912 3.584 0.192 6.288 3.456 7.632 1.152 0.48 1.776 1.152 2.416 2.112 0.816 1.2 1.792 2.288 2.672 3.44 1.488 1.936 3.568 2.784 5.648 1.792 3.984-1.872 7.472-0.032 10.992 1.072 4.784 1.52 9.424 3.52 14.112 5.28 0.736 0.272 1.616 0.304 2.224 0.768 7.104 5.2 15.712 8.080 21.904 14.768 2.624 2.848 4.976 5.536 6.224 9.2 0.688 1.968 1.92 3.744 3.088 5.936-3.008 0.176-5.712 0.592-8.384-0.544-0.816-0.352-1.776-0.656-2.592-0.512-2.864 0.496-5.472-0.528-8.128-1.168-0.64-0.144-1.264-0.416-1.824-0.768-6.048-3.568-12.080-0.928-13.824 6.096-0.080 0.32-0.048 0.672-0.144 0.992-1.408 5.568 0.16 4.784 3.536 6.496 0.704 3.632 0.304 7.28-1.584 10.56-1.136 2-1.184 3.728-0.368 5.728 1.040 2.544 2.56 4.688 4.816 6.336 1.44 1.056 2.736 2.336 4.224 3.296 5.872 3.728 9.424 9.44 13.168 15.024 0.928 1.376 1.888 2.736 2.896 4.208-1.376 0.688-2.656 1.36-3.968 1.968-4.24 1.968-6.384 5.36-6.96 9.92-0.304 2.384 0.48 4.368 1.648 6.336 0.528 0.912 0.976 2.016 0.976 3.024-0.016 2.4 0.752 4.416 2.448 6.048 1.6 1.552 3.296 3.024 4.992 4.48 2.64 2.208 5.328 4.352 8.464 6.896z"></path>
</svg>
