<!-- Generated by IcoMoon.io -->
<svg version="1.1" xmlns="http://www.w3.org/2000/svg" width="512" height="512" viewBox="0 0 512 512">
<title>treasure-creature</title>
<path fill="#fff" d="M85.072 508.272c-7.488-4.576-6.448-6.656 5.2-10.192 8.944-2.496 22.448-13.104 22.448-17.472 0-1.040 1.040-1.872 2.288-1.872 2.912 0 6.864-4.16 11.856-12.272 3.536-6.032 3.952-9.776 3.12-40.544-0.624-22.656-0.208-34.512 1.248-35.552 1.248-0.624 2.288-3.328 2.288-5.616 0-4.368 11.856-24.944 14.976-26.192 1.040-0.416 1.664-1.664 1.664-2.496 0-1.040 4.16-6.032 9.152-11.024 7.28-7.488 9.776-8.944 11.856-7.072 1.664 1.456 2.288 1.664 1.456 0.832-1.664-2.288 4.576-9.776 8.112-9.776 1.456 0 2.704-0.832 2.704-2.080 0-1.040 1.040-2.080 2.288-2.080 3.12 0 8.112 5.408 6.656 7.072-0.832 0.624-0.208 1.248 1.248 1.248s2.288 1.456 1.664 2.912c-0.832 2.080-0.208 2.704 1.664 1.872 4.784-1.664-0.832 12.064-6.864 16.848-3.328 2.704-4.16 4.368-2.496 5.408s0.416 2.080-2.912 2.912c-2.912 0.624-5.408 2.288-5.408 3.328 0 1.248-1.872 2.080-4.16 2.080-5.824 0-11.024 5.824-15.184 16.848-3.744 9.984-4.784 28.896-1.664 32.224 3.536 3.536 4.16 17.68 1.040 18.912-1.872 0.624-2.912 4.368-2.912 11.024 0 5.616-0.832 10.608-1.872 11.44-1.040 0.624-2.496 3.952-3.328 7.28-0.832 3.536-2.288 6.24-3.328 6.24s-1.872 1.456-1.872 3.12-1.456 3.12-3.12 3.12c-1.664 0-3.12 0.832-3.12 1.872s-2.704 4.784-6.24 8.112c-7.904 8.112-24.112 20.992-22.24 17.68 1.248-1.872 0.624-2.288-1.456-1.456-1.872 0.624-3.328 2.496-3.328 4.16 0 4.16-14.144 3.744-21.408-0.832z"></path>
<path fill="#fff" d="M71.776 500.176c-4.784-1.872-2.912-4.16 3.536-4.16 3.744 0 6.032 1.040 5.616 2.288-0.832 2.704-5.408 3.536-9.152 1.872z"></path>
<path fill="#fff" d="M295.072 489.776c-0.832-0.624-1.456-4.992-1.456-9.36 0-4.992-0.832-7.696-2.080-6.864-1.040 0.624-2.080-0.624-2.080-2.912 0-2.496-1.248-4.368-2.496-4.368-1.872 0-1.664-0.832 0.416-2.080 2.496-1.664 2.080-2.080-1.664-2.080-2.704 0-4.16-0.832-3.536-2.080 0.624-1.040 0.416-2.080-0.832-2.080-1.040 0-2.288 1.248-2.912 2.704-0.416 1.248-1.040-13.52-1.248-33.056-0.208-29.936 0.208-35.968 2.912-37.008 4.784-1.664 3.744-7.488-2.080-12.064-4.368-3.536-5.2-5.824-5.2-16.016 0-13.728-1.040-15.6-6.448-12.064-3.12 2.080-3.952 4.992-3.952 15.392 0 7.28 0.832 13.104 2.080 13.104s2.080 3.12 2.080 7.072c0 3.952-0.832 7.904-2.080 8.528-1.040 0.624-2.080 7.28-2.080 14.56 0 12.064-2.288 18.288-4.992 13.936-0.624-1.040-1.248-13.312-1.456-27.648-0.208-16.64-1.040-26.4-2.704-27.232-1.456-1.040-1.248-1.664 0.832-1.664 2.704 0 2.704-0.208 0-2.080-2.704-1.664-2.704-2.080 0-2.080 1.872 0 1.248-1.248-1.872-3.536-4.576-3.12-5.2-3.12-7.696 0.416-1.664 2.080-3.536 7.28-4.16 11.232-0.832 4.16-2.288 8.112-3.536 8.736-1.040 0.832-2.496 10.608-3.12 21.824-0.832 16.848-1.872 22.032-5.824 28.272-3.744 6.032-4.992 10.816-4.992 20.368 0 9.776-0.624 12.48-3.12 12.48-2.288 0-3.12-2.704-3.12-11.232 0-7.072-1.040-11.648-2.496-12.272-2.080-0.832-1.872-1.664 0.416-3.328 2.496-1.872 2.080-2.288-2.288-2.288-5.824 0-12.272 7.28-12.272 13.52 0 1.872-1.456 4.784-3.328 6.656-1.664 1.872-2.704 4.576-2.080 6.032 0.832 2.080-0.624 2.912-4.992 2.912-6.032 0-6.24-0.208-6.24-10.4s-0.208-10.608-6.656-11.856c-3.744-0.832-7.488-1.248-8.32-1.040-2.496 0.624-0.416-12.064 2.288-14.768 1.664-1.664 2.912-1.664 4.992 0.416s1.664 2.288-1.456 1.040c-2.912-1.040-3.536-0.832-2.496 1.040 1.040 1.456 3.536 2.288 5.616 1.664 2.496-0.624 3.952 0.416 4.576 3.536 0.416 2.288 1.040 0.416 1.248-4.368 0-4.992-0.624-8.944-1.872-8.944-1.040 0-2.080-1.456-2.080-3.12s-1.248-3.12-2.704-3.12c-1.664 0-4.576-1.872-6.864-4.368-4.368-4.784-2.080-10.608 4.576-12.064 2.080-0.416 4.368-1.456 4.992-2.288s3.952-2.080 7.28-2.496c3.536-0.624 4.992-0.624 3.744-0.208-2.080 0.624-2.080 1.664 0.208 3.952 3.744 3.536 6.24 3.952 4.16 0.416-1.040-1.664-0.416-1.872 1.872-1.040 2.080 0.624 3.536 0.416 3.536-0.624 0-1.248-0.832-2.080-1.872-2.080-1.248 0-1.664-1.872-1.248-4.16s-0.208-4.16-1.248-4.16c-1.248 0-1.664-0.832-1.040-1.872s-1.248-1.664-4.16-1.664c-8.112 0-8.32-2.080-1.040-9.36 4.992-4.992 6.448-5.824 5.408-2.704-1.456 4.16-1.248 4.16 1.872 0.208 1.872-2.288 3.328-6.24 3.328-8.736s1.248-5.616 2.912-6.864c1.664-1.456 3.328-7.072 3.744-12.48 0.416-7.904 0-9.984-2.496-9.776-1.664 0.208-2.912-1.040-2.496-2.496 0.208-1.664-1.456-3.328-3.744-3.952s-3.536-1.872-2.912-2.912c0.624-1.040-1.248-1.872-4.368-1.872-2.912 0-5.824-1.456-6.448-3.12-0.832-1.664-2.496-3.12-3.744-3.12-1.456 0-3.952-2.288-5.408-5.2-4.16-7.488-13.312-7.072-16.848 0.832-1.872 4.368-3.744 5.616-6.656 4.784-3.12-0.832-3.744-0.416-2.704 1.872 0.832 1.664 0.208 1.248-1.456-0.624-1.664-2.080-4.16-3.744-5.824-3.744-2.288 0-2.288-0.416 0.208-2.080s2.288-2.080-1.664-2.080c-4.784 0-17.056-5.408-17.056-7.488 0-0.624 1.040-0.416 2.496 0.416s1.664 0.624 0.832-1.040c-0.832-1.248-3.952-2.080-7.072-1.872-5.408 0.416-5.616 0.832-6.24 14.56-0.416 8.112 0.208 14.144 1.248 14.144 1.248 0 2.496 1.248 3.12 2.912 1.040 2.496-0.416 2.704-6.448 1.872-4.16-0.624-7.904-2.080-8.32-3.12-0.416-0.832-2.080-1.664-3.744-1.664s-3.536-1.456-4.16-3.12c-0.832-1.872-3.952-3.12-8.112-3.12-5.616 0-7.072 0.832-7.696 4.784-0.416 2.496 0.624 6.864 2.288 9.568 2.496 3.952 2.704 5.2 0.624 6.032-1.248 0.416-2.496 2.080-2.496 3.744 0 9.568-23.072-4.784-30.352-18.912-3.952-7.696-3.744-20.784 0.624-30.56 3.12-6.864 7.28-11.024 6.656-6.24-0.832 4.368 0.624 4.992 3.12 1.248 2.288-2.912 2.288-4.368 0.624-5.408s-1.248-1.664 1.040-1.664c4.784 0 7.072-4.16 3.536-6.448-2.080-1.248-2.288-1.872-0.208-1.872 3.744 0 2.912-3.744-1.248-4.576-3.328-0.832-19.136 5.616-19.136 7.904 0 0.624 1.248 0.416 2.704-0.416 1.248-0.624-0.208 1.248-3.328 4.368-3.328 3.12-6.448 4.992-7.28 4.16-2.080-2.080-1.456-23.904 0.832-25.568 1.040-0.832 3.744-4.992 5.824-9.152 2.288-4.368 4.784-7.904 5.824-7.904 0.832 0 1.664-1.456 1.664-3.12s1.040-3.12 2.080-3.12c1.248 0 5.824-3.744 10.192-8.32s9.36-8.32 11.024-8.32c1.872 0 3.744-1.456 4.576-3.12 0.832-2.288 4.16-3.12 11.648-3.12 5.616 0 10.4-0.832 10.4-2.080 0-1.040 1.248-2.080 2.704-2.080 2.912 0 9.776-7.28 9.776-10.4 0-2.704 5.616-2.704 7.072-0.208 0.832 1.040 0 2.496-1.248 2.912-1.872 0.832-1.664 1.248 0.624 1.248 2.496 0.208 3.328-2.080 3.744-10.192 0.208-8.32 1.456-11.856 6.032-16.848 3.12-3.328 7.072-8.736 8.736-11.856 9.36-16.848 27.648-37.84 33.056-37.84 1.040 0 2.288-1.456 3.12-3.12 2.496-6.656 4.576-2.704 4.992 9.36 0.208 9.36 1.248 13.312 4.576 16.64 3.952 3.952 4.576 3.952 7.488 1.040 1.872-1.664 4.16-3.12 5.2-3.12 1.248 0 4.16-2.288 6.864-5.2s5.824-5.2 7.28-5.2c1.248 0 2.288-0.832 2.288-1.872s2.080-2.704 4.784-3.536c2.496-0.832 8.112-3.744 12.688-6.448 4.368-2.912 9.776-4.784 11.856-4.16 2.496 0.624 3.536 0.208 2.496-1.248-0.832-1.248-0.208-1.664 1.664-1.040 2.288 0.832 3.328-0.416 3.536-4.368 0.416-4.16-1.040-6.448-4.784-8.528-5.2-2.704-7.28-8.32-2.912-8.32 1.040 0 1.664-0.832 0.832-1.872-0.624-1.248 0.832-1.664 3.12-1.248 2.912 0.624 4.16-0.208 4.16-2.704 0-2.080 2.912-4.784 6.864-6.24 3.536-1.456 9.568-4.16 13.312-6.032 3.536-1.664 7.28-2.912 7.904-2.496 0.832 0.416 2.288-0.832 3.328-2.912 1.248-1.872 3.328-3.536 4.992-3.536s7.28-2.288 12.688-5.2c5.408-2.912 11.024-5.2 12.688-5.2s4.368-1.456 6.032-3.12c1.872-1.664 6.032-3.12 9.36-3.12s6.032-0.624 6.032-1.664c0-2.496 21.408-6.864 40.96-7.904 15.392-1.040 17.68-0.624 15.6 1.872-2.080 2.288-0.624 2.704 8.736 1.872 6.656-0.416 12.688 0.208 14.976 1.664 3.744 2.288 3.744 2.288-0.208 1.248-3.952-1.248-3.952-1.040-0.416 1.664 2.912 2.080 3.12 3.12 1.040 3.952s-2.080 1.248 0 1.248c2.080 0.208 2.080 0.832 0 3.12-1.872 2.080-3.536 2.288-5.408 0.832-1.456-1.248-3.328-1.664-3.952-0.832-0.832 0.832-0.416 2.080 0.832 2.912s-2.912 1.664-9.36 1.872c-6.24 0.208-12.064 1.248-12.688 2.080-1.872 2.496-14.768 8.944-17.68 8.944-4.992 0-15.808 11.648-15.808 17.056 0 3.328-1.872 6.032-5.2 7.904-2.912 1.456-5.2 3.536-5.2 4.368 0 2.288 9.776 3.744 24.528 3.744 7.072-0.208 14.144 0.832 15.6 2.080 1.456 1.040 6.656 2.704 11.44 3.536s8.736 2.080 8.736 3.12c0 1.040 1.872 1.872 4.16 1.872 3.536 0 45.744 39.088 45.744 42.624 0 0.624 1.040 2.288 2.080 3.744 1.248 1.456 3.744 4.368 5.408 6.656 1.872 2.288 2.496 2.912 1.664 1.248-0.832-1.872-0.624-2.496 0.832-1.456 1.248 0.832 1.872 2.704 1.248 4.16s0.416 3.952 2.288 5.408c1.664 1.456 3.12 4.16 3.12 6.24s1.456 6.448 3.12 9.568c1.664 3.328 3.12 9.36 3.12 13.312 0 4.16 1.040 8.528 2.496 9.984 3.12 3.12 2.704 66.736-0.416 69.856-1.248 1.248-2.080 3.744-2.080 5.824s-1.456 4.368-3.12 4.992c-1.664 0.832-3.12 3.12-3.12 5.408s-1.456 5.408-3.12 7.072c-1.664 1.872-3.12 4.992-3.12 7.28 0 2.080-0.832 3.952-2.080 3.952-1.040 0-2.080 2.496-2.080 5.824 0 4.368-0.416 4.992-2.080 2.496-1.456-2.288-2.080-2.288-2.080-0.416 0 1.664-1.040 2.080-2.496 1.248-1.664-1.040-1.872-0.416-1.040 2.080 0.832 2.288-0.208 5.2-2.912 8.112-3.12 3.536-3.952 3.744-2.912 1.040 0.832-2.080 0.624-3.744-0.624-3.744-1.040 0-2.704 2.288-3.328 4.992s-2.704 5.408-4.368 6.24c-1.872 0.624-2.704 0.416-2.080-0.624 0.624-1.248-1.664-1.872-5.2-1.872-3.744 0.208-6.24 1.248-6.24 2.912s-2.496 3.328-5.616 3.952c-3.328 0.624-8.944 2.080-12.896 3.12s-8.528 1.040-10.4 0.208c-1.872-1.040-7.28-2.288-12.272-2.912s-10.608-2.496-12.48-3.952c-1.872-1.664-7.696-4.368-12.896-5.824-5.2-1.664-10.608-4.16-12.064-5.616s-4.16-2.704-5.824-2.704-2.912-1.872-2.912-4.16c0-2.288-1.248-4.16-2.704-4.16-3.744 0-11.856-7.072-11.856-10.192 0-2.912 13.936-3.12 14.976 0 0.832 2.496 23.28 4.576 29.312 2.704 2.912-0.832 3.536-3.536 3.536-16.016 0-14.56-0.208-15.392-7.072-21.824-7.696-7.28-13.728-8.32-18.704-3.536-1.664 1.664-3.952 3.12-5.2 3.12s-2.288 1.456-2.288 3.12c0 1.664-0.832 3.12-1.872 3.12s-2.496 1.872-3.328 3.952c-0.832 2.912-2.912 3.744-7.696 3.536-5.616-0.208-7.28 0.832-10.4 7.072-5.2 10.816-4.784 20.368 1.456 26.192 3.328 3.12 4.16 4.992 2.496 5.616-1.456 0.624 0.416 1.248 3.744 1.456 3.536 0.208 5.2 0.832 3.952 1.248-1.248 0.624 2.080 5.616 7.696 11.44 9.36 9.776 10.192 11.44 10.192 20.576 0 5.616 1.040 10.816 2.080 11.44 2.704 1.664 2.704 9.984 0 12.688-3.12 3.12-3.536 74.224-0.416 75.264 3.952 1.248 2.912 6.032-1.664 7.28-2.704 0.624-4.992-0.624-7.488-4.368-2.912-4.576-3.744-10.816-3.744-35.344-0.208-21.616 0.416-30.56 2.496-32.016 3.952-3.536 2.912-10.192-2.704-15.392-4.16-3.744-5.2-6.864-5.2-14.352 0-7.072 0.624-9.152 2.704-8.112 1.872 1.248 1.872 1.040 0-1.456-1.248-1.664-2.704-5.616-3.12-9.152-0.416-4.992-1.664-6.24-5.616-6.24s-5.2 1.248-5.824 6.24c-0.624 4.16 0.208 6.864 2.704 8.736 3.536 2.496 3.536 2.912-0.208 5.616-2.704 1.872-3.744 5.616-3.952 12.896-0.208 9.36-0.624 10.192-4.784 9.568-4.368-0.624-4.784 0.208-4.784 7.488s0.624 8.528 5.824 9.776c3.12 0.832 4.576 1.872 3.328 2.496-1.456 0.416-2.080 6.24-1.664 15.808 0.416 11.232 0.208 12.688-0.832 5.616-1.248-7.696-1.872-8.736-3.328-5.2-2.288 5.408-3.328 32.64-1.248 35.344 6.032 7.696-0.624 28.896-6.864 22.448zM297.984 431.344c3.12-5.824 0.208-8.736-8.944-8.736-5.408 0-5.408 0.208-5.408 14.352 0 11.44 0.832 15.6 3.952 19.12 2.080 2.496 4.16 5.616 4.16 6.864 0.208 1.248 1.040-4.16 2.080-12.064 0.832-8.112 2.704-16.848 4.16-19.536zM185.504 415.552c0-0.624-1.040-1.664-2.496-2.496s-1.664-0.624-0.832 0.832c1.456 2.496 3.328 3.328 3.328 1.664zM307.536 391.024c-0.624-1.664-1.248-1.040-1.248 1.248-0.208 2.288 0.416 3.536 1.040 2.704 0.624-0.624 0.832-2.496 0.208-3.952zM426.256 345.696c4.784-0.208 5.2-0.416 1.872-2.288-5.616-3.328-10.4-1.456-11.024 4.368-0.624 4.368-0.416 4.576 1.456 1.664 1.040-2.080 4.576-3.744 7.696-3.744zM361.6 335.296c-0.416-5.408-1.248-6.24-6.032-6.24s-5.824 0.832-5.824 4.992c0 3.952 1.248 5.408 5.824 6.032 3.12 0.416 5.824 1.040 6.032 1.248 0.208 0 0.208-2.496 0-6.032zM432.912 337.168c0-1.040-0.832-1.872-2.080-1.872-1.040 0-2.080 1.456-2.080 3.328 0 1.664 1.040 2.496 2.080 1.872 1.248-0.624 2.080-2.080 2.080-3.328zM212.528 336.544c0-0.624-1.040-1.664-2.496-2.496s-1.664-0.624-0.832 0.832c1.456 2.496 3.328 3.328 3.328 1.664zM442.688 329.888c-1.872-1.872-5.824 1.248-4.368 3.744 0.832 1.248 2.080 1.248 3.536-0.208 1.248-1.248 1.664-2.704 0.832-3.536zM62.832 319.904c0-0.416-1.872-1.248-4.16-1.872s-3.744-0.208-2.912 0.832c1.040 1.872 7.072 2.704 7.072 1.040zM381.968 316.592c-0.624-1.040 0-1.664 1.456-1.040 3.328 1.040 8.736-2.912 10.608-7.904 0.832-2.288 2.496-3.12 3.952-2.288s2.080 0.832 1.248-0.208c-0.832-0.832-0.208-4.784 1.456-8.736 3.536-8.528 4.368-41.168 1.040-43.248-1.040-0.624-2.080-3.536-2.080-6.24 0-2.496-1.456-5.2-3.12-6.032-1.664-0.624-3.12-2.288-3.12-3.744s-2.288-5.2-5.2-8.32c-2.912-3.12-5.2-6.864-5.2-8.112 0-1.456-0.624-1.872-1.456-1.248-0.624 0.832-2.288 0-3.744-1.872-2.912-4.16-21.824-6.656-21.824-3.12 0 3.12 3.952 7.28 8.944 9.152 2.080 0.832 3.328 2.288 2.704 3.328s0.208 2.288 1.872 2.912c5.616 2.288 13.52 17.664 13.52 26.192 0 4.576 0.832 8.944 2.080 9.568 1.040 0.624 1.872 4.16 1.664 7.904s0.416 11.856 1.040 18.096c0.832 7.696 0.832 9.36-0.416 5.2-1.664-6.032-1.872-5.824-2.080 2.704-0.208 6.24-1.040 8.528-2.704 7.488s-1.872-0.416-1.040 1.872c0.624 2.080 0.416 3.536-0.624 3.536-1.248 0-2.080 1.456-2.080 3.12s1.040 3.12 2.288 3.12c1.040 0 1.456-0.832 0.832-2.080zM49.728 308.896c-0.832-0.624-1.456 0-1.456 1.456s0.624 2.080 1.456 1.456c0.624-0.832 0.624-2.080 0-2.912zM56.176 300.992c-0.624-7.488-3.744-6.448-3.744 1.248 0 3.536 0.832 5.824 2.080 4.992 1.040-0.624 1.872-3.536 1.664-6.24zM216.688 223.024c0-1.040-0.416-2.080-0.832-2.080-0.624 0-1.664 1.040-2.288 2.080-0.624 1.248-0.208 2.080 0.832 2.080 1.248 0 2.288-0.832 2.288-2.080zM228.336 215.12c-1.456-2.496-15.808-2.496-15.808 0.208 0 0.832 1.040 1.040 2.080 0.416 1.248-0.624 2.080-0.208 2.080 1.248 0 2.080 0.624 2.080 2.496 0.208 3.952-3.952 8.528-3.12 6.864 1.248-1.040 2.704-0.624 2.912 1.248 1.040 1.248-1.248 1.872-3.328 1.040-4.368zM186.544 208.048c5.824-2.496 13.728-4.784 17.664-4.992 7.072-0.208 8.944-4.16 3.744-7.28-1.456-0.832-0.624-1.872 1.664-2.496 2.080-0.416-2.080-1.040-9.36-1.248-11.232-0.208-14.352 0.624-20.368 5.2-3.744 2.912-6.864 6.448-6.864 8.112s-1.664 3.952-3.536 5.2c-2.704 1.664-2.912 2.704-1.040 3.328 1.248 0.624 1.872 2.288 1.040 3.536-0.624 1.456 0.416 0.832 2.704-1.040 2.288-2.080 8.736-5.616 14.352-8.32zM208.992 213.872c-0.832-4.368-0.416-4.992 3.744-4.16l4.992 1.040-4.992-2.912c-2.704-1.664-6.864-2.496-9.36-1.872-3.744 1.040-3.744 1.456-0.624 2.080 2.080 0.416 3.536 2.704 3.536 5.824 0 2.704 0.832 4.992 1.872 4.992 0.832 0 1.248-2.288 0.832-4.992zM256.192 98.272c0-2.288-0.832-4.16-2.080-4.16-1.040 0-2.080 1.872-2.080 4.16s1.040 4.16 2.080 4.16c1.248 0 2.080-1.872 2.080-4.16z"></path>
<path fill="#fff" d="M385.712 263.152c0.832-0.624 2.080-0.624 2.912 0 0.624 0.832 0 1.456-1.456 1.456s-2.080-0.624-1.456-1.456z"></path>
<path fill="#fff" d="M306.496 454.848c0-3.328 0.416-4.576 1.040-2.496 0.416 1.872 0.416 4.784 0 6.24-0.624 1.248-1.040-0.208-1.040-3.744z"></path>
<path fill="#fff" d="M309.2 420.544c0.624-1.040 1.664-2.080 2.288-2.080 0.416 0 0.832 1.040 0.832 2.080 0 1.248-1.040 2.080-2.288 2.080-1.040 0-1.456-0.832-0.832-2.080z"></path>
<path fill="#fff" d="M313.984 365.024c1.248-0.416 3.744-0.416 5.2 0 1.248 0.624 0.208 1.040-2.704 1.040s-3.952-0.416-2.496-1.040z"></path>
<path fill="#fff" d="M426.88 354.832c0-2.288 0.624-2.912 1.248-1.248 0.624 1.456 0.416 3.328-0.208 3.952-0.624 0.832-1.248-0.416-1.040-2.704z"></path>
<path fill="#fff" d="M422.512 354c0-1.456 0.624-2.080 1.456-1.456 0.624 0.832 0.624 2.080 0 2.912-0.832 0.624-1.456 0-1.456-1.456z"></path>
<path fill="#fff" d="M113.36 333.84c0.832-0.624 2.080-0.624 2.912 0 0.624 0.832 0 1.456-1.456 1.456s-2.080-0.624-1.456-1.456z"></path>
<path fill="#fff" d="M201.712 123.856c1.456-0.624 3.328-0.416 3.952 0.208 0.832 0.624-0.416 1.248-2.704 1.040-2.288 0-2.912-0.624-1.248-1.248z"></path>
<path fill="#fff" d="M206.080 120.112c-0.624-0.416-3.952-1.040-7.488-1.456-3.744-0.208-6.24-1.040-5.616-1.872 0.416-0.832-1.040-2.080-3.12-2.912-2.288-0.624-4.576-2.912-5.2-4.784s-1.456-26.608-1.664-54.88c-0.624-59.872 0.416-64.032 10.816-41.792 3.744 7.696 7.488 15.6 8.528 17.264 3.952 6.656 10.192 20.576 10.192 22.656 0 1.248 0.832 2.288 1.872 2.288s2.496 3.328 3.12 7.28c0.832 3.952 2.288 7.28 3.328 7.28 1.248 0 2.080 1.456 2.080 3.12s0.832 3.12 1.872 3.12c0.832 0 2.288 5.824 3.12 12.688l1.248 12.896-10.608 9.984c-11.024 10.816-11.024 10.816-12.48 9.152zM209.824 117.616c-0.832-0.624-2.080-0.624-2.912 0-0.624 0.832 0 1.456 1.456 1.456s2.080-0.624 1.456-1.456z"></path>
</svg>
