<!-- Generated by IcoMoon.io -->
<svg version="1.1" xmlns="http://www.w3.org/2000/svg" width="512" height="512" viewBox="0 0 512 512">
<title>treasure-orrery</title>
<path fill="#fff" d="M256.208 507.584c-0.624-1.056-3.36-2.096-6.080-2.096-2.512 0-6.496-1.472-8.8-3.152-2.096-1.68-5.664-3.152-7.76-3.152s-5.024-1.264-6.704-2.512c-1.472-1.472-5.664-5.024-9.232-7.968s-6.496-6.912-6.496-9.008c0-2.096-1.056-3.152-2.304-2.512-1.264 0.832-2.72-0.416-3.36-2.928s-1.888-4.4-2.928-4.4c-1.056 0-1.888-2.096-1.888-4.816 0-6.496-10.272-16.144-17.2-16.144-3.152 0-6.288-1.056-6.912-2.096-0.832-1.264-2.096-1.68-2.928-1.264-3.152 2.096-6.912-2.512-5.456-6.912 0.624-2.304 1.888-4.192 2.72-3.984 3.152 0.624 12.992-3.152 12.992-4.816 0-1.056 2.512-1.888 5.872-1.888 4.192 0 6.288-1.472 8.384-5.664 1.264-3.152 2.512-6.704 2.512-8.176s1.888-6.912 4.192-12.368c3.984-9.44 22.432-30.4 26.832-30.4 1.056 0 3.152-1.472 4.608-3.152 1.472-1.888 6.080-3.152 10.896-3.152 4.4 0 7.76-0.832 7.136-1.888-0.832-1.056-0.208-2.304 1.056-2.72 1.68-0.624 1.888-4.192 0.832-11.744-1.472-10.48-1.68-10.896-7.968-10.896-3.776-0.208-9.008-1.472-11.952-3.152s-8.8-2.928-12.992-3.152c-4.192 0-8.176-0.832-9.008-1.888-0.624-1.056-3.984-2.512-7.344-3.36-3.568-0.832-6.288-2.304-6.288-3.36s-1.472-1.888-3.152-1.888c-1.68 0-3.152-1.472-3.152-3.152s-1.264-3.152-2.72-3.152c-1.68 0-4.192-2.304-5.664-5.248-1.472-2.72-3.568-4.608-4.608-3.984-0.832 0.624-2.304-0.624-3.152-2.72s-3.568-5.872-6.288-8.384c-2.72-2.512-4.816-6.496-4.816-9.008 0-2.304-1.472-4.192-3.152-4.192-2.512 0-3.152-2.72-3.152-11.536v-11.536h-19.712c-15.312 0-20.544 0.832-23.264 3.36-1.68 1.888-4.608 2.72-6.288 2.096s-3.152-0.416-3.152 0.416c0 1.056-3.36 1.264-7.344 0.832s-7.344-1.68-7.344-2.928c0-1.056-0.832-1.264-2.096-0.624-3.152 1.888-2.72-20.544 0.416-23.696 1.888-1.888 1.888-2.512 0-2.512-3.152 0-3.568-26.416-0.416-28.304 1.264-0.624 2.096-3.984 2.096-7.136s1.472-7.552 3.152-9.856c1.68-2.096 3.152-5.456 3.152-7.344s1.472-6.288 3.152-9.44c1.68-3.36 3.152-7.76 3.152-9.648 0-2.096 1.056-3.776 2.096-3.776 1.264 0 2.096-1.888 2.096-3.984 0-2.304 1.472-5.456 3.152-7.344 1.68-1.68 3.152-4.4 3.152-6.080s2.304-5.456 5.024-8.384c2.72-2.928 5.456-6.288 5.664-7.344 1.68-4.608 21.168-23.488 23.056-22.432 1.056 0.832 1.888 0.208 1.888-1.056s1.056-1.68 2.096-1.056c1.264 0.624 2.096 0.208 2.096-1.056 0-2.928 5.248-8.384 8.176-8.384 1.264 0 2.304-1.472 2.304-3.152s1.68-3.152 3.984-3.152c2.096 0 5.024-1.472 6.496-3.152s3.984-3.152 5.456-3.152c1.68 0 2.928-0.832 2.928-2.096 0-1.056 2.096-2.096 4.816-2.096s6.704-1.472 9.008-3.152c2.096-1.68 5.664-3.152 7.76-3.152 1.888 0 3.568-0.624 3.568-1.68 0-0.832 2.096-2.512 4.608-3.568 2.512-1.264 5.456-3.984 6.704-6.288 1.264-2.096 3.568-5.248 5.024-6.912 3.776-4.192 3.152-5.024-1.68-2.512-2.304 1.264-4.192 1.68-4.192 1.264 0-2.096 12.368-7.552 17.616-7.968 2.928-0.208 5.872-1.68 6.288-3.152 0.832-1.68 5.456-2.72 13.216-2.928 8.8 0 10.896-0.624 7.968-1.888-3.984-1.68-3.984-1.888 0.624-1.888 2.512-0.208 4.608 0.832 4.608 1.888 0 1.264 3.36 2.096 7.552 2.096 11.536 0 15.312 6.080 15.52 24.528 0 14.048-0.416 15.088-4.608 15.728-2.72 0.416-5.024 2.304-5.456 4.608-0.624 2.304-2.096 5.456-3.776 7.136-1.68 1.472-2.928 3.984-2.928 5.664 0 5.664-22.432 7.136-32.288 2.096-3.152-1.68-7.136-3.152-8.592-3.152s-3.776-1.472-5.248-3.152c-1.472-1.68-4.192-3.152-6.080-3.152-5.024 0-18.656 7.344-23.264 12.576-2.72 2.928-3.984 3.568-4.608 1.68-0.832-2.096-1.888-1.888-4.608 0.832-1.888 2.096-4.816 3.152-6.496 2.512-1.68-0.832-3.152-0.208-3.152 0.832 0 1.264-1.68 2.72-3.984 3.568-5.664 1.68-24.32 20.128-28.304 27.888-1.888 3.776-4.192 6.704-5.024 6.704s-2.72 2.928-4.192 6.288c-1.68 3.568-3.984 7.552-5.248 9.008-3.776 4.192-9.856 16.144-9.856 19.504 0 1.68-0.832 2.928-2.096 2.928-1.056 0-2.096 1.68-2.096 3.776s-1.264 5.456-2.72 7.76c-1.68 2.72-2.72 10.688-2.72 22.016l0.208 17.824 48.224 1.264 2.512-5.872c1.472-3.36 3.152-8.384 3.984-11.744 0.624-3.152 2.096-6.288 3.152-6.912s1.888-2.928 1.888-5.248c0-2.304 1.264-4.608 2.928-5.248s3.36-2.928 3.984-5.248c0.624-2.304 3.152-4.816 5.456-5.456 2.512-0.624 4.4-2.512 4.4-3.984 0-1.68 1.264-2.928 2.928-2.928s3.36-0.624 3.776-1.472c1.472-3.568 32.496-15.312 40.048-15.312 4.816 0 5.248-15.728 0.416-17.616-2.512-0.832-3.152-3.568-2.512-11.744 0.416-5.872 1.472-11.328 2.304-12.16 1.472-1.264 12.16-2.096 30.192-2.512 4.192 0 6.496-0.832 5.664-2.096-0.624-1.056 0.416-2.304 2.512-2.512 2.096 0 4.816-0.416 6.080-0.416 2.72-0.416 15.52-13.424 15.52-15.936 0-1.264 0.832-2.096 2.096-2.096 1.056 0 2.512-3.36 3.36-7.344 0.624-3.984 2.096-7.968 3.152-8.592 2.304-1.264 2.512-44.864 0.208-44.864-0.832 0-3.36-3.152-5.456-7.136s-6.080-7.76-8.8-8.384c-2.72-0.832-5.024-2.096-5.024-3.152s-2.72-2.512-6.288-3.36c-3.36-0.832-6.288-2.304-6.288-3.36 0-3.36-25.792-2.304-31.024 1.472-4.816 3.36-19.296 3.36-19.504 0 0-1.264 3.984-3.776 9.008-5.664 11.952-4.816 48.848-5.456 54.928-0.832 2.512 1.888 8.8 3.152 15.312 3.152 8.176 0 10.688 0.624 9.856 2.72-0.416 1.472 1.888 5.872 5.456 9.856 3.36 3.776 6.288 7.76 6.288 8.8 0 0.832 2.304 1.68 5.024 1.68 2.928 0 5.872 0.832 6.496 2.096 0.624 1.056 6.288 2.096 12.16 2.096 7.76 0 10.064 0.624 7.76 2.096-2.096 1.264-2.304 2.096-0.416 2.096 1.264 0 2.512 2.096 2.512 4.4 0 3.984-0.832 4.192-7.136 3.152-5.024-1.056-7.76-0.416-9.648 1.888-1.472 1.68-3.568 3.152-4.608 3.152-4.816 0-12.16 9.648-12.16 16.352 0 3.568-0.832 6.704-2.096 6.704-1.056 0-2.096 2.096-2.096 4.608 0 9.856-19.92 39.408-26.624 39.408-1.056 0-4.608 2.72-7.968 6.288-3.152 3.36-6.704 5.664-7.76 5.024s-3.152 0-4.816 1.264c-3.568 2.928-4.4 25.152-1.056 25.152 1.264 0 2.096 1.264 2.096 2.928 0 3.36 6.288 5.456 16.352 5.456 3.568 0 6.704 1.056 6.704 2.096 0 1.264 2.304 2.096 5.248 2.096s9.008 2.304 13.632 5.248c4.608 2.928 9.232 5.248 10.48 5.248s2.72 1.472 3.36 3.152c0.832 1.68 2.72 3.152 4.4 3.152s2.304 0.832 1.68 2.096c-0.624 1.264 0.416 2.096 2.512 2.304 2.096 0 2.72 0.624 1.264 1.264-1.472 0.416-2.72 1.888-2.72 3.152s1.264 1.68 2.72 1.056c3.984-1.472 2.304 64.576-1.68 70.656-1.68 2.304-3.152 6.496-3.152 9.008 0 2.72-0.832 4.816-2.096 4.816-1.056 0-2.096 1.472-2.096 3.152 0 5.872-19.712 30.4-24.528 30.4-0.832 0-3.568 2.096-5.872 4.816s-7.76 7.552-11.952 10.688c-7.344 5.456-7.968 6.704-7.968 16.768 0 6.080 1.056 11.952 2.512 13.424 3.36 3.36 1.888 4.192-7.344 5.456-13.632 1.68-39.2 10.896-39.2 14.256 0 0.832-1.264 1.68-2.72 1.68-2.512 0-9.856 7.136-9.856 9.648 0 0.832-2.304 3.568-5.248 6.288s-5.248 5.664-5.248 6.704c0 1.264-1.264 4.4-2.72 7.344-1.68 3.36-2.928 14.048-3.36 26.416-0.416 17.824 0 21.168 2.72 21.168 2.096 0 2.72 1.264 1.888 3.568s-0.624 2.928 1.056 1.888c1.68-1.056 2.096-0.416 1.264 1.68-0.832 2.304 0 3.36 2.096 3.36 1.888 0 3.36 1.056 3.36 2.096 0 3.152 7.968 10.48 11.328 10.48 1.68 0 3.568 1.472 4.192 3.36 0.624 1.68 2.096 2.512 3.36 1.888s2.72 0 3.36 1.68c0.624 1.68 4.816 3.568 9.44 4.4 4.4 0.624 8.176 2.096 8.176 3.152 0 6.080 48.224-10.272 53.040-18.032 2.928-4.608 7.76-3.152 7.76 2.304 0 3.984-2.304 6.496-8.8 10.48-5.024 2.928-7.76 5.456-6.288 5.456s0.624 1.888-1.888 4.4c-3.152 3.152-6.080 4.192-10.272 3.152-3.776-0.624-6.912 0-8.384 1.888-2.928 3.568-30.4 4.4-32.496 1.056zM198.752 440.912c-1.264-0.416-2.304-2.928-2.304-5.872 0-3.776-0.832-4.608-3.568-3.568-4.4 1.68-8.8 6.912-9.008 10.48 0 3.152 10.688 4.608 14.464 1.888 1.888-1.472 1.888-2.512 0.416-2.928zM188.48 288.272c-0.416-2.096-1.472-4.4-2.304-5.024-1.056-0.624-2.304-3.568-3.152-6.704-1.888-7.76-9.648-8.176-9.648-0.624 0 2.928 1.056 5.248 2.096 5.248 1.264 0 2.096 1.056 2.096 2.096 0 3.152 6.912 10.272 9.44 9.648 1.264-0.416 1.68-2.512 1.472-4.608zM341.744 225.168c-1.68-0.624-2.72-5.024-2.72-11.328 0-5.664-0.832-10.272-2.096-10.272-1.056 0-2.096-2.304-2.096-5.248 0-4.192-1.056-5.248-5.248-5.248-2.928 0-5.248 1.056-5.248 2.096 0 1.264 1.056 2.096 2.096 2.096 1.264 0 2.096 1.888 2.096 4.4s1.264 7.344 2.928 10.896c1.68 3.776 3.36 8.384 4.192 10.48 0.624 1.888 2.72 3.568 4.816 3.36 2.304 0 2.72-0.624 1.264-1.264zM99.376 189.52c-0.832-0.624-1.472 0-1.472 1.472s0.624 2.096 1.472 1.472c0.624-0.832 0.624-2.096 0-2.928zM239.44 53.664c0-2.928-1.056-5.248-2.512-5.248-2.72 0-3.776 8.592-1.264 11.104 2.096 2.096 3.36 0 3.776-5.872zM359.984 44.24c0-1.056-1.056-2.096-2.304-2.096-1.056 0-1.472 1.056-0.832 2.096 0.624 1.264 1.68 2.096 2.304 2.096 0.416 0 0.832-0.832 0.832-2.096z"></path>
<path fill="#fff" d="M257.888 458.096c-3.776-1.888-6.912-4.816-6.912-6.288 0-1.68-1.472-2.928-3.152-2.928s-3.152-1.888-3.152-3.984c0-2.304-1.056-4.4-2.096-4.816-1.264-0.416-2.928-6.080-3.568-12.784-1.056-10.48-0.624-12.784 4.4-20.336 8.592-13.216 13.424-15.312 32.496-14.464 15.088 0.832 17.2 1.472 22.016 6.704 2.928 3.152 5.456 6.704 5.456 7.968 0 2.512 15.52 2.512 20.544 0 1.888-1.056 7.344-3.568 11.952-5.664 4.608-2.304 8.8-4.608 9.44-5.248 0.624-0.832 3.152-1.888 5.872-2.72 2.512-0.832 4.608-2.304 4.608-3.36 0-0.832 1.68-2.096 3.776-2.928 4.608-1.472 10.272-5.248 16.976-11.104 2.928-2.72 6.080-4.816 6.912-4.816 1.888 0 16.352-13.84 16.352-15.728 0-0.832 2.928-5.024 6.288-9.44 3.568-4.4 6.288-10.064 6.288-12.784s1.472-6.912 3.152-9.008c1.68-2.304 3.152-6.080 3.152-8.592s1.056-5.456 2.096-6.496c2.928-2.928 5.024-30.4 2.512-33.968-2.72-3.776-54.512-4.192-60.592-0.416-10.064 6.288-13.632-3.568-9.44-26.208l1.472-8.384 1.264 10.48 1.472 10.48-0.416-12.16c-0.208-8.384 0.624-11.952 2.512-11.952 1.264 0 2.512 2.304 2.512 4.816 0 4.816 0.832 5.024 24.736 7.552 13.424 1.472 32.288 2.928 41.936 3.568l17.2 1.056v19.712c0 13.216-1.056 21.392-3.152 25.376-1.68 3.36-3.152 9.648-3.152 14.048 0 4.192-0.832 7.76-1.888 7.76s-2.304 3.776-3.152 8.384c-0.624 4.608-2.304 8.384-3.36 8.384-1.264 0-2.096 2.304-2.096 5.024s-0.624 5.456-1.472 5.872c-1.056 0.416-3.568 4.192-5.664 8.592-2.304 4.192-4.816 7.76-5.664 7.76-1.056 0-9.44 7.552-18.656 16.768s-18.24 16.768-19.92 16.768-3.568 1.056-4.192 2.096c-0.832 1.264-6.080 4.192-11.744 6.704s-10.272 5.248-10.272 6.288c0 0.832-2.304 1.68-5.024 1.68-2.928 0-5.664 0.832-6.288 1.888-0.624 0.832-6.704 3.776-13.632 6.496-12.576 4.608-14.88 7.344-14.88 18.24 0 2.512-3.152 7.552-6.704 11.328-6.496 6.496-7.968 6.912-23.696 7.552-12.368 0.416-18.656-0.208-23.488-2.72zM288.080 445.312c-0.832-0.624-1.472 0-1.472 1.472s0.624 2.096 1.472 1.472c0.624-0.832 0.624-2.096 0-2.928z"></path>
<path fill="#fff" d="M0.208 431.056c-0.624-1.68 0.208-4.608 2.096-6.496 1.888-1.68 6.080-6.704 9.232-10.896s9.44-11.536 14.048-16.352c12.368-12.992 15.52-17.2 14.256-18.448-0.832-0.624-0.416-1.264 0.832-1.264 1.888 0 11.328-9.232 33.76-32.496 1.264-1.68 2.512-3.776 2.512-4.816 0-6.288 22.016-1.68 24.528 5.248 0.832 2.096 2.512 1.472 6.080-2.512 2.72-2.928 6.288-5.248 7.968-5.248 5.456 0 7.76-6.912 4.192-13.632-3.776-7.344-3.36-30.608 0.832-32.080 1.264-0.416 2.512 0.624 2.512 2.304 0 2.096 1.68 2.72 5.872 1.888 3.984-0.832 4.608-1.472 2.096-2.096-4.608-0.832-5.024-6.704-0.624-6.704 1.68 0 3.152-1.472 3.152-3.36 0-2.096 1.472-2.928 4.608-2.512s5.024 2.72 6.496 7.968c1.056 3.984 2.72 8.176 3.776 9.44 1.056 1.056 1.888 4.608 1.888 7.76 0 7.968 14.88 31.024 20.128 31.024 2.304 0 6.496 5.248 5.664 7.552-0.416 1.056 1.264 3.984 3.36 6.496 4.192 4.4 4.192 4.4 0.208 12.16-2.304 4.4-3.568 8.8-2.72 10.064 0.624 1.264 0.208 1.472-1.056 0.624-1.472-0.832-2.512-0.624-2.512 0.208 0 1.056-3.984 1.472-8.8 0.832-7.968-0.624-10.688-2.512-22.016-14.464-10.48-11.104-13.216-13.216-14.464-10.272-0.624 1.888-2.928 3.568-4.816 3.568-6.912 0-13.84 12.576-8.592 15.728 3.984 2.512 2.096 9.008-4.608 16.56-3.568 4.192-7.76 7.552-9.008 7.552s-6.288 1.888-11.104 4.192c-10.272 5.024-14.256 5.248-18.448 1.056-2.304-2.304-2.512-3.152-0.624-3.152 1.472 0 2.096-0.624 1.472-1.264-2.512-2.304-12.16 6.080-12.16 10.48 0 2.928-2.304 5.872-6.288 8.384-3.568 1.888-5.872 4.608-5.248 5.664 1.264 1.68-6.496 2.928-13.216 2.096-1.68-0.208-4.4 0.832-6.288 2.512-5.248 4.4-18.24 9.856-23.264 9.856-2.512 0-5.024-1.472-5.664-3.152zM27.264 411.136c0.624-2.304 0.208-4.192-0.832-4.192s-1.888 1.888-1.888 4.192c0 2.304 0.416 4.192 0.832 4.192s1.264-1.888 1.888-4.192zM32.288 408.624c-0.624-1.472-1.056-0.416-1.056 2.512s0.416 3.984 1.056 2.72c0.416-1.472 0.416-3.984 0-5.248zM135.232 301.072c-0.624-0.624-1.888 0.416-2.512 2.512-1.264 2.928-1.056 3.152 1.056 1.264 1.472-1.472 2.096-3.152 1.472-3.776z"></path>
<path fill="#fff" d="M382.208 204.624c-1.888-2.72-3.36-8.384-3.36-12.368 0-6.080-4.608-18.448-8.384-22.224-2.096-2.096-6.496-9.44-7.552-12.992-0.832-2.096-2.096-3.776-2.928-3.776-1.056 0-2.512-2.096-3.36-4.608-0.832-2.72-3.568-6.912-6.288-9.44s-5.024-5.456-5.024-6.288c0-1.056-2.096-2.72-4.608-3.776-5.024-2.304-7.968-9.44-3.776-9.44 2.928 0 8.384-5.248 8.384-8.176 0-1.264 3.36-2.304 7.552-2.304 6.704 0 9.44 1.68 20.96 13.632 12.368 12.576 17.616 16.144 17.616 11.744 0-0.832 4.816-3.984 10.48-6.704 5.872-2.72 10.48-5.664 10.48-6.496 0-1.056 1.472-1.68 3.36-1.68 5.024 0 2.72-10.48-3.984-17.408-3.152-3.152-5.248-6.704-4.608-7.968 0.832-1.056 6.704-1.888 13.216-1.888 6.496-0.208 14.256-1.472 17.2-3.152s7.76-2.928 10.688-3.152c3.152 0 6.704-1.472 8.176-3.152s3.984-3.152 5.456-3.152c1.68 0 4.608-0.832 6.704-1.888 3.776-1.888 13.424-6.288 25.584-11.328 3.984-1.888 9.648-3.568 12.576-3.984 4.608-0.624 5.248 0.208 5.248 5.664 0 5.024-1.056 6.496-4.816 6.912-2.72 0.416-8.176 4.192-12.16 8.384-13.84 14.88-32.288 36.896-32.288 38.784 0 1.056-3.776 5.664-8.384 10.064-6.080 5.872-8.384 9.856-8.384 14.464 0 4.4-1.056 6.288-3.36 6.288-1.68 0-2.72-0.832-1.888-1.888 0.624-1.264-0.624-2.928-2.512-4.192-2.928-1.68-3.36-2.512-1.056-4.608 1.264-1.472 2.512-4.816 2.512-7.552 0-3.776-1.264-4.816-5.024-4.816-11.328 0-23.056 8.384-29.136 20.752-4.192 8.592-4.4 12.16-0.832 13.216 1.68 0.624 2.72 7.136 3.152 19.712l0.624 18.656-7.552 3.776c-10.272 4.816-14.672 4.608-18.656-1.68z"></path>
<path fill="#fff" d="M348.032 204.208c0.832-0.624 2.096-0.624 2.928 0 0.624 0.832 0 1.472-1.472 1.472s-2.096-0.624-1.472-1.472z"></path>
<path fill="#fff" d="M318.048 172.128c-2.72-1.68-2.512-2.096 0.624-2.096 1.888 0 3.568 1.056 3.568 2.096 0 2.512-0.208 2.512-4.192 0z"></path>
</svg>
