<!-- Generated by IcoMoon.io -->
<svg version="1.1" xmlns="http://www.w3.org/2000/svg" width="512" height="512" viewBox="0 0 512 512">
<title>treasure-totem</title>
<path fill="#fff" d="M271.808 508.224c-4.768-7.68-5.392-18.656-1.664-34.208 4.352-18.24 3.52-21.984-4.976-21.984-7.472 0-8.496-1.456-9.536-12.848-0.416-4.976-1.872-9.12-3.104-9.536-1.040-0.416-2.080-4.352-2.080-8.912 0-4.352-0.832-8.080-1.664-8.080-1.040 0-3.52-3.728-5.6-8.288-2.896-6.224-4.976-8.288-8.704-8.288-2.48 0-4.768-0.832-4.768-2.080 0-1.040-2.688-2.080-5.808-2.080-3.312 0-7.664-1.456-9.952-3.104-2.080-1.664-5.392-3.104-7.056-3.104s-5.392-1.872-7.872-3.936c-4.352-3.104-4.56-3.936-1.872-6.64 1.664-1.664 3.728-5.184 4.352-7.68 0.832-2.48 2.48-4.56 3.52-4.56s1.872-1.664 1.872-3.728c0-2.080 1.040-4.768 2.288-6.016 1.664-1.664 2.48-13.264 2.688-34 0.208-23.216 0.832-31.728 2.896-32.56 1.248-0.416 2.48-2.896 2.48-5.6 0-2.48 1.456-5.808 3.104-7.264s3.104-3.52 3.104-4.768c0-3.104 31.104-32.56 34.416-32.56 1.664 0 2.896-1.456 2.896-3.104 0-1.872 1.248-3.104 2.688-2.896 8.080 1.040 9.952-0.208 7.472-4.56-1.456-2.896-1.872-8.496-1.040-14.928 1.664-11.824 0-13.888-10.784-13.888-4.144 0-7.264 1.248-7.872 3.104-0.832 2.080-4.144 3.104-9.328 3.104-4.352 0-8.080 0.832-8.080 1.664 0 1.040-3.728 3.312-8.288 5.392s-9.536 4.768-10.992 6.016c-1.456 1.456-5.808 4.352-9.744 6.432-7.264 3.936-20.736 17.424-20.736 20.528 0 0.832-2.288 3.728-5.184 6.432s-5.184 6.64-5.184 9.12c0 2.288-1.456 4.56-3.104 5.392-1.664 0.624-3.104 3.728-3.104 6.848 0 4.144-0.624 4.976-1.872 2.896s-2.288-0.832-3.104 4.144c-1.456 6.848-2.288 9.536-7.056 20.528-1.248 2.896-2.896 10.784-3.52 17.632-0.832 6.848-2.288 13.472-3.104 14.512-1.040 1.248-2.080 7.872-2.48 14.512-0.624 11.824-0.832 12.448-5.6 11.824-6.432-0.624-6.224-0.208-6.848-9.328-0.208-5.808-1.248-7.68-4.144-7.68-2.080 0-4.352 1.456-4.976 3.104-0.832 1.664-2.48 3.104-4.144 3.104-3.728 0-3.728-1.040 0.208-7.056 2.48-3.52 3.104-8.912 2.688-19.072-0.624-13.888-0.832-14.304-6.848-15.968-3.312-1.040-10.368-3.104-15.552-4.768s-11.824-3.104-14.928-3.312c-3.104-0.208-5.392-1.248-5.184-2.288s-4.768-2.288-10.992-2.688c-6.224-0.208-11.616-1.664-12.032-2.688-0.416-1.248-2.080-2.288-3.936-2.288-1.664 0-2.688-1.248-2.080-2.48 1.040-3.104 19.696-3.52 21.776-0.416 1.872 2.48 10.784 3.312 10.784 0.832 0-0.832 11.2-2.288 24.672-3.104 23.84-1.456 24.88-1.664 25.92-6.432 0.832-2.688 2.288-4.976 3.312-4.976 1.248 0 2.080-1.248 2.080-2.896 0-3.936 10.16-22.4 14.512-26.544 2.080-2.080 4.56-5.808 5.392-8.288 0.624-2.688 4.144-7.264 7.264-10.576 3.312-3.104 6.016-6.64 6.016-7.664 0-2.896-7.664-10.368-9.12-8.704-0.624 0.624-1.248-0.832-1.248-3.104 0-4.144-24.88-30.688-44.16-47.28-5.392-4.56-9.744-9.328-9.744-10.368 0-1.248 3.936-1.872 9.328-1.456 5.184 0.416 9.328 1.664 9.328 2.688s1.456 1.872 3.104 1.872c1.664 0 3.104 1.040 3.104 2.080 0 1.248 1.664 2.896 3.52 3.728 7.056 2.896 19.28 11.824 19.28 14.096 0 1.456 2.288 3.104 5.184 3.728 2.896 0.832 5.184 2.288 5.184 3.312 0 1.248 1.456 2.080 3.104 2.080s3.104 0.832 3.104 1.664c0 1.040 3.728 3.312 8.288 5.392 5.392 2.288 8.288 4.976 8.288 7.472 0 4.144 3.312 7.472 4.56 4.768 0.208-1.040 4.976-3.728 10.576-6.432 5.392-2.688 9.744-5.808 9.744-6.848s2.896-1.872 6.224-1.872c3.52 0 6.224-0.832 6.224-2.080 0-1.040 1.872-2.080 3.936-2.080 2.288 0 5.392-1.456 7.264-3.104 1.664-1.664 5.392-3.104 8.080-3.104 6.224 0 18.24-6.016 21.152-10.368 1.040-1.664 1.664-8.080 1.248-14.096-0.416-6.848 0.208-10.784 1.664-10.784 1.248 0 2.288-1.040 2.288-2.288s-1.664-1.664-3.52-1.040c-3.104 1.040-3.104 0.832 0.208-1.872 3.936-2.896 3.936-3.104-1.248-3.104-3.104 0-6.224 0.832-6.848 2.080-0.624 1.040-3.312 2.080-6.016 2.080-3.936 0-4.56-1.248-4.976-7.872-0.416-4.352 0.832-10.784 2.688-14.096 1.664-3.312 3.104-8.080 3.104-10.576s1.040-5.184 2.080-5.808c1.248-0.624 2.080-4.352 2.080-7.872 0-3.728 1.456-8.496 3.104-10.576 1.664-2.288 3.104-6.848 3.104-9.952 0-3.312 0.832-7.472 1.872-9.536 3.312-6.224 10.576-31.312 10.576-36.704 0-2.688 1.040-5.6 2.080-6.224 1.248-0.624 2.080-3.52 2.080-6.432 0-2.688 1.248-4.976 2.688-4.976 2.48 0 6.432 15.968 8.912 38.352 0.832 5.808 2.080 12.032 3.104 13.888s1.872 6.224 1.872 9.536c0 3.312 1.456 10.16 3.104 14.928s3.104 11.408 3.104 14.72 0.832 6.016 1.872 6.016c1.040 0 2.48 2.48 3.104 5.392 1.664 6.224 6.016 11.2 9.952 11.2 2.080 0 1.872 0.624-0.416 2.080-2.080 1.248-2.288 2.080-0.416 2.080 1.248 0 2.48 2.080 2.288 4.768 0 4.352-0.208 4.352-1.872 0.416-1.456-3.52-1.872-3.52-1.872-0.416-0.208 2.48-1.872 3.52-6.016 3.52-9.744 0-13.056 5.808-12.448 20.944l0.624 13.264 19.696 0.416c10.784 0.208 26.96 1.040 35.872 1.664 8.704 0.832 15.968 0.624 15.968-0.416 0-0.832 2.288-4.352 5.184-7.664s5.184-7.664 5.184-9.536c0-2.080 1.456-4.768 3.104-6.224s3.104-3.936 3.104-5.392c0-1.664 1.040-2.896 2.080-2.896 1.248 0 2.080-2.288 2.080-5.184 0-3.312 1.248-5.184 3.104-5.184 1.664 0 3.104-1.872 3.104-3.936 0-9.12 13.68-24.672 19.696-22.192 2.288 0.832 2.48 2.48 0.832 7.872-1.248 4.56-1.248 7.056 0.208 7.472 1.040 0.416 2.080 3.104 2.080 5.808 0 3.104-0.832 4.768-2.288 3.936-1.248-0.832-1.664-2.896-1.040-4.56s0.416-2.48-0.624-1.872c-1.040 0.624-2.288 3.728-2.896 6.848-2.080 9.952-6.016 24.256-7.872 27.984-1.040 2.080-1.872 5.392-1.872 7.472 0 1.872-1.456 5.6-3.104 7.872-3.104 4.768-2.288 7.056 2.48 7.056 1.664 0 4.352 1.456 6.016 3.104 1.872 1.664 6.432 3.104 10.16 3.104 3.936 0 7.68 1.040 8.288 2.080 0.624 1.248 3.104 2.080 5.184 2.080s5.184 1.456 7.056 3.104c1.664 1.664 3.52 3.104 4.352 3.104s4.144 2.688 7.472 6.016c5.6 5.6 8.496 16.8 4.352 16.8-1.040 0-2.896 2.288-4.144 5.184-1.872 3.728-3.936 5.184-8.496 5.184-3.728 0-8.496-2.080-11.824-5.184-3.104-2.896-7.264-5.184-9.328-5.184s-4.976-1.456-6.848-3.104c-1.664-1.664-5.392-3.104-8.288-3.104s-5.6-0.832-6.432-1.872c-0.624-1.248-5.6-2.688-10.992-3.312s-11.408-2.080-13.264-3.312c-2.080-1.040-6.432-1.872-9.744-1.872s-7.056-1.456-8.496-3.104c-2.288-2.688-7.68-3.104-30.896-2.688-26.752 0.624-28.192 0.832-27.584 4.768 0.208 2.288 0.624 11.616 0.624 20.736 0.208 20.528 3.52 26.128 11.616 19.904 3.936-3.312 6.224-3.728 11.408-2.080 7.056 1.872 24.464 19.28 24.464 24.048 0 1.664 1.248 3.312 2.688 3.936 1.456 0.416 2.896 3.936 3.104 7.472 0.416 3.728 1.248 7.264 2.288 7.872 2.48 1.456 7.056 20.32 6.64 28 0 3.52-0.624 14.512-1.456 24.672-1.456 20.112 0 25.296 9.952 34.416 4.976 4.56 5.392 6.016 3.728 11.408-3.936 12.24-4.768 13.472-7.472 13.472-1.664 0-2.896 0.832-2.896 1.872s-2.48 2.48-5.6 3.312c-4.352 1.040-4.976 1.664-2.48 3.312 2.080 1.248 0.624 1.872-4.976 1.872-4.976 0-8.288 1.040-8.912 3.104-0.832 1.664-2.080 3.104-3.312 3.104-2.288 0-7.872 5.184-7.872 7.264 0 0.832-1.456 2.688-3.104 4.352s-2.896 6.224-2.688 9.952c0.208 5.184-1.248 8.496-5.392 12.24-3.104 2.896-7.056 4.768-8.704 4.144s-5.184 0.416-8.080 2.288c-6.432 4.144-14.72 4.352-16.384 0.208-2.080-5.6-9.536 0-9.536 7.264 0 6.016 0.208 6.016 12.848 6.64l13.056 0.624 0.416 8.288c0.208 5.808 0 7.056-1.248 4.144-1.456-3.52-1.872-3.104-2.688 2.688-0.624 4.976-0.208 6.64 2.288 6.848 2.288 0 2.48 0.416 0.832 1.248-1.456 0.416-2.688 3.728-2.688 6.848 0 6.64 3.936 17.008 6.016 15.552 0.832-0.416 1.664 1.664 1.872 4.768 0.208 4.352 0 4.976-1.664 2.48-1.040-1.664-2.080-2.080-2.080-0.832 0 1.664-5.6 2.48-16.176 2.688-13.472 0.208-16.384-0.416-18.448-3.728zM292.752 405.168c1.872-1.664 3.312-4.144 3.312-5.184s0.624-1.664 1.664-1.248c0.832 0.208 1.664-0.416 1.872-1.664 0.208-1.040-0.832-1.872-2.48-1.456-1.456 0.208-2.48-1.040-2.288-3.104 0-2.080-1.040-3.52-2.288-3.104-1.664 0.208-2.688-1.664-2.688-4.976 0-4.352-0.832-5.184-4.56-4.56-3.728 0.416-5.184 2.48-6.64 9.328-1.664 7.872-1.248 9.328 3.104 14.096 5.808 6.016 6.848 6.224 10.992 1.872zM263.936 390.032c0.624-1.040 0.208-2.48-1.040-3.312-1.040-0.624-2.080-0.208-2.080 1.040s-1.040 1.664-2.48 0.832c-1.456-0.832-1.664-0.624-0.832 0.832 1.872 2.896 4.768 3.104 6.432 0.624zM268.496 383.184c-0.624-1.456-1.040-0.416-1.040 2.48s0.416 3.936 1.040 2.688c0.416-1.456 0.416-3.936 0-5.184zM334.016 373.024c2.48-2.080 6.016-3.936 7.68-3.936 3.728-0.208 12.448-7.056 12.448-9.744 0-4.144-5.392-13.056-7.68-13.056-1.456 0-2.688-0.832-2.688-2.080 0-1.040-3.104-2.080-7.056-2.080s-7.872 1.040-8.496 2.080c-0.624 1.248-3.104 2.080-5.392 2.080s-4.56 1.456-5.184 3.104c-0.832 1.664-2.896 3.104-4.976 3.104-3.936 0-6.224 3.936-6.224 10.576 0 4.144 12.656 18.448 16.384 18.448 1.248 0 2.288 1.248 2.48 2.688 0 1.248 0.832 0.208 2.080-2.288 1.040-2.688 3.936-6.64 6.64-8.912zM245.264 381.536c1.664-2.688 9.952-2.688 12.64-0.208 2.48 2.688 8.912-2.080 9.744-7.264 0.208-2.080 1.456-5.184 2.288-6.848 1.248-1.872 1.040-2.48 0-1.664-1.248 0.624-2.288-0.624-2.288-3.104-0.416-3.936-0.208-3.936 3.52 0.416 2.288 2.688 3.52 5.6 2.688 6.848-0.624 1.040-0.208 1.456 1.040 0.624 1.040-0.624 2.688 0 3.104 1.248 0.832 1.664 1.248 1.456 1.248-0.832 0.208-1.872-1.040-3.936-2.288-4.352-1.456-0.624-0.416-1.248 2.48-1.456 4.768-0.416 4.768-0.624-1.040-1.872-3.312-0.832-6.016-2.48-5.808-3.936 0.416-1.456-1.456-2.48-4.144-2.48s-5.6-0.832-6.848-2.080c-1.040-1.040-4.976-2.080-8.496-2.48-3.52-0.208-6.016-1.248-5.6-2.080 1.872-2.896-9.536-6.016-13.472-3.728-3.728 1.872-10.576 15.968-10.576 21.36 0 1.456 2.896 5.808 6.432 9.328 6.432 6.64 12.848 8.496 15.344 4.56zM272.64 378c-0.832-0.624-2.080-0.624-2.896 0-0.624 0.832 0 1.456 1.456 1.456s2.080-0.624 1.456-1.456zM276.784 375.936c-0.832-0.624-1.456 0-1.456 1.456s0.624 2.080 1.456 1.456c0.624-0.832 0.624-2.080 0-2.896zM306.432 376.96c0-0.832-0.832-1.664-1.872-1.664-1.248 0-2.48 0.832-3.104 1.664-0.624 1.040 0.208 1.872 1.872 1.872s3.104-0.832 3.104-1.872zM193.424 221.872c-0.624-1.040-2.288-2.080-3.312-2.080-1.248 0-1.456 1.040-0.832 2.080 0.624 1.248 2.288 2.080 3.312 2.080 1.248 0 1.456-0.832 0.832-2.080zM182.656 220.416c-3.312-1.248-3.52-10.992-0.416-10.992 1.664 0 1.664-0.832 0-2.896-1.872-2.288-1.664-3.104 0.832-4.144 1.872-0.624 2.688-0.416 2.080 0.832s0.208 1.456 2.080 0.832c3.104-1.248 3.104-1.664 0.416-4.56-4.56-4.352-10.576-1.664-9.12 4.144 0.832 2.48 0.416 5.6-0.416 6.64-2.288 2.896 1.040 11.616 4.352 11.408 2.080 0 2.080-0.416 0.208-1.248zM183.472 185.168c-0.832-0.624-2.080-0.624-2.896 0-0.624 0.832 0 1.456 1.456 1.456s2.080-0.624 1.456-1.456z"></path>
</svg>
