<!-- Generated by IcoMoon.io -->
<svg version="1.1" xmlns="http://www.w3.org/2000/svg" width="512" height="512" viewBox="0 0 512 512">
<title>treasure-supplies</title>
<path fill="#fff" d="M281.584 509.968c-2.88-1.44-10.512-5.968-16.896-10.096s-13.184-7.616-15.040-7.616-3.712-1.44-4.32-3.088c-0.832-2.064-4.128-3.088-9.264-3.088-7.424 0-8.032-0.416-8.032-5.568 0-7.008 2.672-11.328 6.176-10.512 1.44 0.416 2.88-1.232 3.296-3.504 0.208-2.272 1.856-4.944 3.504-6.176 1.648-1.024 3.504-6.384 4.32-11.744s2.272-10.304 3.504-10.912c1.024-0.832 1.856-5.568 1.856-10.72 0-7.424 1.024-10.512 5.36-14.224 2.88-2.672 6.176-4.944 7.616-4.944s1.232 0.832-0.624 2.064c-2.272 1.44-2.48 2.064-0.416 2.064 1.648 0 3.296-1.856 3.92-4.128 0.624-2.672 2.88-4.128 5.968-4.128 2.672 0 4.944-0.832 4.944-2.064 0-1.024 2.272-2.064 5.152-2.064s5.152-1.024 5.152-2.064c0-1.232 1.648-2.88 3.712-3.504 1.856-0.832 4.528-2.48 5.968-3.504 6.592-5.776 8.448-7.008 12.56-8.24 2.272-0.832 7.616-4.944 11.536-9.072 23.696-24.72 32.144-34.816 32.144-37.904 0-1.856 1.44-4.736 3.088-6.592 1.648-1.648 3.088-3.92 3.088-4.944 0-1.232 1.232-4.736 2.88-8.032 3.92-7.824 6.8-15.040 8.448-20.608 0.832-2.672 2.272-4.736 3.296-4.736s1.856-4.528 1.856-10.096c0-10.512 1.856-12.56 10.512-12.56 2.272 0 4.528-1.232 5.152-2.88 1.024-2.88 8.24-2.88 10.912 0 0.624 0.832-0.416 0.832-2.48 0.208-2.064-0.832-3.296-0.624-2.672 0.416 0.832 1.024 5.152 1.44 10.096 1.024 4.736-0.416 7.008-0.208 4.944 0.416-2.88 1.024-3.296 1.856-1.232 4.128 1.232 1.648 3.712 2.88 5.152 2.88 1.648 0 2.88 1.024 2.88 2.064 0 1.232 0.832 2.064 1.856 2.064 1.232 0 5.152 2.88 8.864 6.176 3.712 3.504 7.824 6.176 9.264 6.176s2.672 1.024 2.672 2.064c0 1.232 2.272 2.064 4.944 2.064 2.88 0 5.776 0.832 6.384 2.064 0.832 1.232-0.208 1.44-2.272 0.624-2.48-0.832-3.088-0.624-2.064 1.024 0.832 1.44 3.296 2.48 5.568 2.48 2.064 0 3.92 0.832 3.92 2.064 0 1.024 2.272 2.48 5.152 3.296 2.88 0.624 5.152 2.064 5.152 3.088s4.944 1.856 10.912 1.856c9.68 0 11.744 0.832 16.48 6.176 7.008 7.616 7.008 12.976 0.416 17.312-2.88 1.856-5.152 4.32-5.152 5.776 0 1.232-1.44 3.296-3.088 4.528s-3.296 5.152-3.504 8.864c-0.208 3.504-1.232 5.968-2.064 5.568-0.832-0.624-1.648 0.832-1.648 3.088 0 3.296-1.232 4.32-5.152 4.32-2.672 0-5.776-1.44-6.592-3.088-1.024-1.856-5.36-3.296-10.304-3.712-4.736-0.208-8.032-1.232-7.424-2.064 0.624-1.024 2.672-1.44 4.736-0.832 2.48 0.624 3.504-0.208 3.296-3.504-0.208-3.712-1.232-4.32-8.448-3.712-10.096 1.024-11.328 2.064-6.592 5.36 4.128 3.088 4.528 5.36 1.024 5.36-2.48 0-20.4 10.912-26.784 16.48-2.064 1.648-3.712 4.528-3.712 6.592 0 1.856-1.024 4.128-2.48 4.944-1.44 1.024-1.648 0.624-0.624-1.232s0.832-2.272-0.624-1.232c-1.44 0.832-2.48 2.88-2.48 4.528s-0.832 2.88-2.064 2.88c-1.024 0-2.672 2.48-3.296 5.776-0.832 3.088-2.272 6.592-3.296 8.032s-1.856 9.888-1.856 18.96c0 9.264-0.832 16.688-1.856 16.688s-1.648-3.504-1.44-7.616c0.416-6.592-0.208-7.824-3.504-7.824-2.272 0-4.32 1.232-4.736 2.672-0.624 1.232 0.416 2.48 2.272 2.48 2.064 0 3.296 1.856 3.296 5.152 0 4.32-1.024 5.152-6.176 5.152-3.296 0-6.176-0.832-6.176-1.648 0-3.296-18.544-6.176-27.408-4.32-10.304 2.272-30.704 11.952-32.96 15.664-0.832 1.44-2.88 2.672-4.528 2.672-1.44 0-3.296 1.856-4.128 3.92-0.624 2.272-2.48 4.528-4.128 5.152s-3.088 2.48-3.088 4.32c0 1.648-0.832 3.088-1.648 3.088-3.088 0-8.656 12.16-8.656 19.168 0 4.128-0.832 7.616-1.856 8.032-1.232 0.416-2.48 3.296-3.088 6.592-1.44 7.616-1.648 7.824-7.424 4.528zM289.008 495.136c-0.624-1.856-1.232-4.32-1.232-5.776 0-1.648-1.856-2.48-4.944-1.856-3.504 0.832-4.736 2.272-4.32 5.36 0.624 5.968 0.208 5.568 6.384 5.568 4.128 0 5.152-0.832 4.128-3.296zM233.584 474.32c-0.832-0.624-2.064-0.624-2.88 0-0.624 0.832 0 1.44 1.44 1.44s2.064-0.624 1.44-1.44zM405.216 336.896c0-1.648 1.024-3.296 2.48-3.712 1.44-0.624 2.48-4.528 2.272-9.072 0-12.56-1.232-17.52-3.504-15.248-1.232 1.232-2.88 1.232-4.736-0.208-2.064-1.856-2.672-0.208-2.88 8.656-0.208 9.472-0.624 10.096-1.856 4.944-1.024-4.128-1.648-4.736-1.856-2.064-0.416 7.424 3.92 19.568 7.008 19.568 1.648 0 3.088-1.232 3.088-2.88zM409.328 298.368c0-1.232 1.44-3.504 3.088-5.152 1.648-1.856 3.088-5.968 3.088-9.264 0-5.568-0.624-5.968-7.616-5.968-10.096 0-15.040 4.736-15.040 14.832 0 7.824 0 7.824 8.24 7.824 4.528 0 8.24-1.024 8.24-2.272z"></path>
<path fill="#fff" d="M133.248 415.808c-9.68-0.624-19.984-2.272-23.072-3.504-2.88-1.232-10.512-2.48-16.896-2.672-6.176-0.208-11.12-1.44-10.912-2.48 0.208-1.232-2.672-2.48-6.592-2.88-8.032-0.624-22.864-6.8-22.864-9.264 0-0.832-1.44-1.648-3.088-1.648s-3.088-0.832-3.088-2.064c0-1.024-2.272-2.48-5.152-3.296-2.88-0.624-5.152-2.064-5.152-3.088s-1.44-1.856-3.088-1.856c-1.648 0-3.088-0.832-3.088-2.064 0-1.024-2.272-2.48-5.152-3.296-2.88-0.624-5.152-2.48-5.152-4.128s-2.064-2.88-4.736-2.88c-3.296 0-4.736-1.232-4.944-4.128-0.416-4.32 2.272-5.568 4.528-2.064 0.624 1.232 6.8 2.064 13.392 2.064s12.768 1.024 13.392 2.064c0.624 1.232 7.216 2.064 14.624 2.064s13.184-0.832 13.184-2.064 10.304-2.064 26.784-2.064c23.072 0 26.784-0.416 28.64-3.504 1.232-2.064 2.272-2.48 2.272-1.232 0 1.856 1.44 2.064 5.36 0.624 2.88-1.232 8.032-2.064 11.328-2.064s6.592-1.232 7.216-2.88c0.624-1.648 2.672-2.48 5.152-1.856 2.064 0.624 6.176-0.416 9.072-2.272 2.672-1.856 6.8-3.296 9.264-3.296 2.272 0 4.128-0.832 4.128-2.064 0-1.024 2.48-2.672 5.776-3.296 6.384-1.648 24.928-10.912 28.848-14.624 1.44-1.44 4.128-2.672 5.568-2.672 1.648 0 3.712-1.44 4.736-3.296 1.648-2.88 2.064-2.88 3.088-0.208 0.624 1.856-0.208 3.712-1.856 4.32s-2.88 2.064-2.88 3.296 1.856 0.416 4.32-1.856c2.464-2.272 3.712-4.944 3.088-6.176-1.024-1.44-0.208-1.648 2.064-0.832 2.672 1.024 3.296 0.624 2.272-1.856-1.232-3.504 4.32-9.888 8.448-9.888 1.44 0 2.48-1.232 2.48-2.88s1.44-3.296 3.088-4.128c1.648-0.624 3.088-2.48 3.088-4.128 0-1.856 2.272-3.712 5.152-4.528 3.712-0.832 5.152-2.672 5.152-6.176 0-2.672 1.024-4.944 2.064-4.944 2.064 0 14.416-24.304 14.416-28.64 0-5.568 8.24-11.536 15.040-10.72 11.12 1.024 15.248 11.12 7.824 18.96-3.088 3.296-5.968 4.128-12.976 3.712l-8.864-0.624 0.624 12.16c0.208 6.8 1.648 14.416 2.88 16.896 1.648 3.504 1.44 6.384-1.232 12.976-4.128 10.304-4.32 21.424-0.416 24.72 1.648 1.232 3.296 4.944 3.712 7.824 0.832 7.824 6.384 6.384 17.312-4.32 4.736-4.736 9.888-9.68 11.536-10.912 4.736-3.92 14.016-15.040 14.016-16.896 0-1.024 3.504-3.504 7.824-5.776 4.128-2.064 8.448-5.152 9.264-6.384 0.832-1.44 3.504-2.672 5.568-2.672 2.48 0 4.32-1.44 4.528-3.504 0.416-7.008-0.832-16.064-2.672-17.92-2.88-3.088-2.272-7.008 1.856-11.12 3.088-3.296 4.128-3.296 10.304-0.624 3.504 1.856 6.8 4.528 6.8 6.384 0.416 5.776-0.624 11.328-2.48 13.184-1.024 1.232-1.856 4.944-1.856 8.656 0 3.504-1.44 7.616-3.088 9.072s-3.088 4.128-3.088 5.968c0 1.856-1.44 5.152-3.088 7.216-1.648 2.272-3.088 5.776-3.088 7.824s-0.832 3.712-2.064 3.712c-1.024 0-2.064 1.856-2.064 4.128 0 2.064-2.672 6.8-6.176 10.304-3.296 3.504-6.176 7.216-6.176 8.24 0 3.296-28.432 30.912-31.936 30.912-1.856 0-3.712 1.44-4.32 3.088-0.832 1.648-3.504 3.088-6.176 3.088s-4.944 1.024-4.944 2.064c0 1.232-1.44 2.064-3.088 2.064-1.856 0-3.712 1.44-4.32 3.088-0.832 1.648-2.88 3.088-4.944 3.088s-4.736 1.44-6.176 3.088c-1.44 1.648-5.776 3.088-9.472 3.088-3.92 0-7.008 0.832-7.008 1.856s-2.272 2.48-5.152 3.088c-2.88 0.832-5.152 2.064-5.152 3.088 0 0.832-5.36 1.856-11.744 2.064-6.8 0.208-13.184 1.648-15.040 3.296-2.672 2.48-20.192 4.32-32.96 3.296-1.648-0.208-10.096 0-18.544 0.208-8.448 0.416-23.28 0-32.96-0.624zM222.048 339.168c-2.064-1.856-2.272-1.648-1.024 1.232 0.624 2.064 1.856 3.088 2.48 2.48s0-2.272-1.44-3.712z"></path>
<path fill="#fff" d="M289.008 334.224c-1.648-4.32 0.624-20.816 3.088-22.464 1.024-0.624 1.856-8.032 1.856-16.48 0-14.416 0.416-15.872 6.176-21.424 3.504-3.504 6.8-6.176 7.216-6.176 2.88 0 9.264-7.616 9.264-10.912 0-10.72-14.624-22.048-28.432-22.048-2.48 0-4.528-0.832-4.528-2.064 0-1.024-2.272-2.48-5.152-3.296-3.712-0.832-5.152-2.672-5.152-6.384 0-4.944 0.624-5.152 8.864-4.128 9.888 1.232 25.344 5.152 30.704 7.824 2.064 1.024 6.8 1.856 10.512 1.856s8.448 1.232 10.72 2.88c2.272 1.44 7.008 3.296 10.304 3.92 13.184 2.672 25.76 6.592 25.76 8.032 0 1.024 3.712 1.648 8.032 1.648 11.12 0 19.36 8.032 11.328 11.12-8.864 3.504-29.664-1.856-29.664-7.424 0-0.832-2.272-1.648-5.152-1.648s-5.152 1.232-5.152 2.672c0 1.232-2.88 5.568-6.176 9.472-7.008 7.824-7.616 10.912-3.088 14.624 1.648 1.44 3.088 5.776 3.088 9.472 0 4.944-1.024 7.008-3.088 7.008-1.648 0-3.088 1.024-3.088 2.064 0 1.232-1.856 2.064-4.128 2.064s-4.736 1.44-5.36 3.088c-0.832 1.648-2.064 3.088-3.296 3.088-2.672 0-7.824 5.36-7.824 8.032 0 1.232-1.44 2.272-3.088 2.272s-3.088 1.024-3.088 2.272c0 1.232-3.712 5.968-8.24 10.304-4.528 4.528-8.24 9.472-8.24 11.12 0 4.128-3.296 3.92-4.944-0.416zM327.744 285.184c6.384-9.68-4.944-21.84-13.392-14.224-2.064 1.856-3.92 4.736-3.92 6.384 0 1.44-1.024 2.672-2.064 2.672-3.296 0 3.92 9.888 7.824 10.912 5.152 1.024 8.032-0.416 11.536-5.776z"></path>
<path fill="#fff" d="M316.624 281.072c0-1.856 1.024-3.088 2.272-2.672s2.272 1.648 2.272 2.672c0 1.024-1.024 2.272-2.272 2.672s-2.272-0.832-2.272-2.672z"></path>
<path fill="#fff" d="M201.248 312.176c0-0.416 1.44-1.44 3.296-2.064 1.648-0.624 2.48-0.416 1.856 0.832-1.232 2.064-5.152 2.88-5.152 1.232z"></path>
<path fill="#fff" d="M215.664 306.416c-4.736-6.384-8.24-7.424-8.24-2.672 0 3.712-6.176 4.128-6.384 0.624 0-1.44-0.208-6.8-0.416-11.952s-1.44-9.072-2.48-8.864c-1.232 0.208-2.48-5.36-2.672-12.976-0.416-7.216-2.064-15.872-3.712-18.96-1.44-3.088-2.88-6.8-2.88-8.032 0-1.44-0.832-2.672-2.064-2.672-1.024 0-2.064-1.232-2.064-2.88s-1.44-3.296-3.088-4.128c-1.648-0.624-3.088-3.504-3.088-6.384s-0.832-5.152-1.856-5.152c-1.024 0-2.672-1.856-3.296-4.128s-3.712-4.736-6.592-5.36c-4.528-1.232-4.736-1.648-1.648-3.296 2.48-1.44 3.088-3.504 2.064-7.216-0.832-3.712-0.416-4.736 1.232-3.504 1.648 0.832 1.856 0.624 1.024-0.832-0.832-1.232-3.92-1.856-7.216-1.232-3.712 0.832-6.8 0-9.072-2.064-1.648-1.856-6.384-3.296-10.096-3.296-6.176 0-7.008-0.832-9.472-8.24-1.856-5.968-1.856-9.472-0.416-12.368 1.024-2.064 2.064-8.448 2.064-14.224s1.024-10.512 2.064-10.512c1.232 0 2.064-3.712 2.064-8.24 0-8.032 1.232-9.264 7.824-8.448 4.32 0.624 8.656-5.36 8.656-12.368 0-6.592 7.008-20.4 10.512-20.4 1.024 0 1.856-1.856 1.856-4.128 0-5.36 5.568-16.48 8.24-16.48 1.232 0 2.064-1.232 2.064-2.88 0-1.44 1.44-3.92 3.088-5.36 1.856-1.44 2.88-3.92 2.272-5.568-0.624-1.44 0.208-2.672 1.856-2.672s3.088-0.832 3.088-2.064c0-1.024-1.232-2.064-2.48-2.064-1.44 0-0.416-1.44 2.272-3.296s5.968-6.592 7.616-10.304c2.672-6.176 2.48-7.616-1.232-14.416-5.152-8.864-3.712-11.744 2.272-5.152 5.36 5.776 8.864 4.736 9.68-2.672 0.416-3.92-0.832-7.216-3.504-9.68-4.32-4.128-5.776-7.216-2.48-5.152 1.024 0.624 2.88-0.208 4.32-1.856 3.088-3.712 14.224-3.92 18.752-0.416 1.856 1.44 3.92 4.528 4.736 7.216 1.024 3.088 3.088 4.528 6.384 4.528 2.672 0 5.568 0.832 6.176 2.064 0.832 1.232-0.208 1.44-2.48 0.624-2.48-0.832-1.648 0.624 2.064 4.128 5.36 5.152 7.216 5.568 24.72 5.968 17.52 0.208 17.92 0.416 6.592 1.44l-12.368 1.232 10.096 1.648c5.568 0.832 14.832 1.44 20.608 1.648 7.824 0 9.472 0.624 6.384 1.856-3.712 1.648-3.504 1.856 1.648 1.856 3.088 0.208 7.424-0.832 9.68-2.272 3.92-2.48 5.36-2.272 21.216 5.776 3.296 1.648 7.616 2.88 9.888 2.88s5.568 0.832 7.616 1.856c1.856 1.232 7.216 2.672 11.744 3.296 6.592 1.232 7.424 1.856 4.528 3.296-2.064 1.232-3.504 4.528-3.504 8.032 0 3.92-1.024 5.968-2.48 5.568-1.648-0.208-2.88 2.48-3.296 6.8-0.416 3.92-1.648 8.032-2.672 9.264-1.024 1.024-1.856 5.152-1.856 9.264 0 11.328-2.064 12.768-16.896 12.56-11.744-0.208-14.016 0.416-19.776 5.568-3.504 3.088-6.8 8.032-7.616 10.912-1.44 6.176-9.472 11.328-14.416 9.264-1.856-0.624-2.88-0.416-2.064 0.624 0.624 1.024 0 3.088-1.44 4.736-7.424 7.616-11.744 28.224-6.384 29.872 1.024 0.416 1.648 6.384 1.44 13.6-0.416 12.56-0.416 12.56 1.024 2.48 1.024-7.424 1.856-9.264 3.088-6.8 1.648 3.712 0.832 13.392-2.064 25.344-1.648 7.824-6.592 13.392-11.328 13.392-8.032 0-10.512 13.392-3.712 19.36 3.712 3.088 4.32 5.36 3.296 14.224-0.416 5.776-2.064 10.912-3.296 11.328s-2.272 2.88-2.272 5.568c0 2.48-1.44 5.776-3.088 7.216s-3.088 3.92-3.088 5.568c0 3.088-1.44 5.152-10.72 15.248-3.296 3.296-5.776 6.592-5.776 7.216 0 3.504-12.368 12.768-17.92 13.6-5.36 0.832-7.424-0.208-10.912-4.944zM173.84 202.368c-0.832-0.624-2.064-0.624-2.88 0-0.624 0.832 0 1.44 1.44 1.44s2.064-0.624 1.44-1.44zM195.056 124.080c5.36-4.528 6.176-6.8 6.176-15.456 0-8.448 1.024-11.12 5.968-16.272 3.296-3.296 7.424-5.968 9.072-5.968 6.592 0 22.048-10.096 22.048-14.224 0-3.92 15.664-2.672 18.752 1.44 2.672 3.088 2.48 3.296-0.832 0.624-1.856-1.648-4.128-2.272-4.736-1.648-0.832 0.624 2.064 2.88 5.968 4.736 7.216 3.504 7.616 3.504 19.776-2.48 7.008-3.296 12.56-7.216 12.56-8.656s0.832-2.272 1.648-1.648c3.088 1.856 8.656-7.008 8.656-14.016 0-6.176-0.832-7.216-6.176-8.448-3.296-0.832-6.176-2.064-6.176-3.088s-6.176-1.648-13.808-1.232c-10.912 0.208-15.040-0.416-18.96-3.296-2.672-2.064-7.008-3.712-9.68-3.712s-4.944-0.832-4.944-2.064c0-1.024-2.672-2.064-6.176-2.064-5.776 0-7.424 2.272-6.384 8.864 0.208 1.024-0.624 1.232-1.648 0.416-2.672-1.44-14.832 3.504-19.36 8.032-1.856 2.064-3.504 6.176-3.504 9.472s-0.832 6.384-1.856 7.008c-1.024 0.832-1.44-0.832-0.832-3.088 0.832-3.296 0.416-4.128-1.648-3.504-1.648 0.416-3.296 3.088-3.504 5.568-0.416 2.672-3.296 7.216-6.176 10.304-3.088 2.88-9.264 12.768-13.808 21.84s-9.472 17.712-10.72 19.168c-3.712 3.712-3.296 8.656 0.416 8.656 1.648 0 3.088 1.024 3.088 2.272 0 4.128 6.8 7.824 14.016 8.032 4.32 0 8.656-1.856 12.768-5.568zM250.064 91.104c-0.832-0.624-2.064-0.624-2.88 0-0.624 0.832 0 1.44 1.44 1.44s2.064-0.624 1.44-1.44zM249.856 84.512c0-2.272-0.832-3.504-1.648-3.088-0.832 0.624-1.648 2.48-1.648 4.128s0.832 2.88 1.648 2.88c0.832 0 1.648-1.856 1.648-3.92zM223.904 23.536c0-4.128-5.152-3.92-9.072 0.208-3.712 3.504-4.32 5.776-1.232 3.92 1.232-0.624 2.064-0.208 2.064 1.024 0 1.648 1.232 1.648 4.128 0 2.272-1.232 4.128-3.504 4.128-5.152z"></path>
<path fill="#fff" d="M386.256 264.176c1.44-0.624 3.296-0.416 3.92 0.208 0.832 0.624-0.416 1.232-2.672 1.024-2.272 0-2.88-0.624-1.232-1.232z"></path>
<path fill="#fff" d="M403.152 254.288c0-1.648-0.832-3.088-2.064-3.088-1.024 0-2.064-2.064-2.064-4.528 0-2.672-1.44-6.592-3.088-8.656-4.944-6.592-3.92-16.688 2.672-23.696 3.088-3.296 6.592-7.424 8.032-8.864 4.32-4.736 9.68-8.864 11.952-9.072 1.024-0.208 3.296-0.416 4.944-0.624 1.44 0 2.272-1.44 1.648-3.088-0.624-1.44-0.208-3.712 0.624-4.528 1.232-1.232 0.624-4.128-1.024-7.008s-3.712-6.8-4.32-8.656c-0.832-2.272-3.504-3.712-6.176-3.712s-4.944-1.024-4.944-2.272c0-1.44-1.856-1.856-4.528-1.232-3.088 0.832-6.176-0.208-9.264-3.088-3.712-3.504-5.36-3.92-7.216-2.064-2.88 2.88-12.56 3.296-17.712 0.624-7.616-3.92-19.568-6.592-33.376-7.824-8.032-0.624-15.040-2.064-15.872-3.296-0.624-1.024 2.48-1.648 8.24-1.232 5.152 0.416 8.864 0 8.24-0.832s-6.592-1.44-13.6-1.232c-8.032 0.416-12.768-0.416-13.392-1.856-0.416-1.44-4.944-2.48-10.912-2.48-7.216 0-10.096-0.832-10.096-2.88 0-1.856 2.064-2.672 6.384-2.48 3.504 0.208 7.824-0.832 9.472-2.48 2.672-2.672 3.296-2.672 5.152-0.208 1.44 2.064 1.648 0.208 0.832-5.968-0.832-5.968-0.624-8.448 0.832-7.616 1.024 0.624 2.064-0.208 2.064-1.856 0-2.272 1.856-3.296 5.776-3.296 3.088 0 6.8-1.024 7.824-2.064 3.296-3.296 8.448-0.416 9.888 5.36 1.856 6.8 7.824 6.384 15.040-1.44 3.088-3.712 7.424-8.24 9.472-10.304 4.32-4.736 12.368-5.152 16.688-0.624 1.856 1.856 3.296 6.592 3.296 11.328 0 7.216 0.624 8.032 5.152 8.032 3.296 0 5.152-1.232 5.152-3.088 0-2.48 2.672-3.088 11.536-3.088 6.384 0 10.912 0.832 10.096 1.856-0.624 1.024 0.624 2.272 2.48 2.672 2.88 0.624 3.712 2.672 3.712 10.912 0 9.68 0.416 10.304 5.776 10.912 3.088 0.416 5.568-0.208 5.568-1.44s2.064-2.272 4.736-2.272c5.568 0.208 11.744 12.16 11.744 22.864 0 7.424-7.824 18.752-14.224 20.816-1.648 0.416-3.088 2.88-3.296 5.36-0.208 3.712 0.832 4.528 5.568 4.528 5.776 0 5.776 0.208 5.776 11.952-0.208 8.448-1.232 12.976-3.92 16.48-4.128 4.528-12.56 6.384-12.56 2.272 0-1.232-3.296-1.856-7.616-1.44-6.384 0.416-8.032 1.44-8.448 5.36-0.416 2.48 0 4.528 1.024 4.32 6.8-1.232 8.864 0.624 8.864 7.424 0 3.92-1.648 9.072-3.504 11.328-4.32 4.944-12.976 5.568-12.976 1.024z"></path>
<path fill="#fff" d="M377.392 236.768c-0.624-1.024-3.92-2.064-7.008-2.064-3.296 0-8.656-1.44-11.744-3.088-3.296-1.648-8.032-3.088-10.512-3.088s-5.152-0.832-5.776-2.064c-0.624-1.024-4.32-2.064-8.032-2.064s-8.448-1.44-10.72-3.088c-2.064-1.648-6.592-3.088-10.096-3.088-3.296 0-8.032-1.44-10.096-3.088-2.272-1.648-6.592-3.088-9.888-3.088-4.736 0-5.776-0.832-5.776-4.944 0-2.672 1.44-5.36 3.088-5.968 2.064-0.832 3.088-5.152 3.504-14.224 0.416-10.304 1.232-12.768 3.712-12.16 1.648 0.416 6.176 0.832 9.888 0.624 3.504 0 7.216 0.832 7.824 1.856s5.568 1.856 10.912 1.856c6.384 0 10.912 1.024 12.56 3.088 1.648 1.856 6.176 3.088 11.536 3.088 4.944 0 9.072 0.832 9.072 1.856s3.712 2.48 8.24 3.296c4.528 0.832 8.656 2.272 9.472 3.296 0.624 1.024 4.128 1.856 7.824 1.856 8.864 0 15.664 6.8 11.952 11.952-1.44 1.856-3.088 5.152-3.712 7.216-0.832 1.856-2.064 3.504-2.88 3.504s-2.064 4.736-2.88 10.304c-1.024 8.24-2.064 10.304-5.36 10.304-2.064 0-4.528-0.832-5.152-2.064zM300.128 187.536c0-2.272-0.832-4.528-1.856-5.152s-1.648 1.024-1.44 3.92c0.208 5.968 3.296 7.008 3.296 1.232z"></path>
<path fill="#fff" d="M396.976 193.712c-5.568-3.088-17.312-6.8-24.304-7.824-3.712-0.624-7.216-1.856-7.824-2.88s-3.088-1.856-5.568-1.856c-2.672 0-6.384-1.232-8.656-2.88-2.272-1.44-6.384-3.296-9.264-3.92s-10.512-2.48-16.896-4.128c-6.592-1.648-12.56-2.272-13.184-1.648-0.832 0.624-0.832 0.208-0.208-1.024 1.024-1.648-2.272-2.88-9.68-3.712-11.12-1.44-14.624-4.32-11.744-9.264 1.856-3.088 24.512-2.672 26.368 0.416 0.624 1.232 0.208 1.44-1.024 0.624-1.44-0.832-2.48-0.624-2.48 0.208 0 1.024 5.36 2.064 11.744 2.272 6.592 0.208 12.768 1.44 13.808 2.48 1.232 1.232 4.944 2.064 8.448 2.064s8.24 1.44 10.512 3.088c2.064 1.648 7.616 3.088 12.16 3.088s10.512 1.44 13.392 3.088c2.88 1.648 10.72 2.88 18.128 3.088 7.008 0 12.768 0.832 12.768 2.064s1.232 2.064 2.88 2.064c1.648 0 3.712 1.024 4.32 2.272 1.648 2.48-4.736 10.096-8.656 10.096-1.44 0-2.672 1.024-2.672 2.064 0 2.48-8.032 2.48-12.368 0.208z"></path>
<path fill="#fff" d="M419.632 193.504c0-1.44 0.624-2.064 1.44-1.44 0.624 0.832 0.624 2.064 0 2.88-0.832 0.624-1.44 0-1.44-1.44z"></path>
<path fill="#fff" d="M85.856 177.232c-4.736-1.232-5.152-2.48-5.776-15.664-0.208-8.032 0.208-18.128 1.232-22.656 1.44-7.424 2.272-8.24 7.616-7.824 3.504 0.416 6.384 1.44 6.8 2.672 1.024 2.88 19.568 2.672 22.656-0.416 1.232-1.232 3.088-1.856 3.92-1.024 2.272 2.48 2.88 24.112 0.624 27.808-1.44 2.672-1.856 1.44-1.024-4.736 0.624-5.568 0.208-7.216-1.024-4.944-1.024 1.648-2.064 8.864-2.272 15.872-0.416 8.864-1.232 12.16-2.672 10.72-2.672-2.672-19.776-2.672-19.776 0 0 2.272-2.672 2.272-10.304 0.208z"></path>
<path fill="#fff" d="M364.208 56.288c0-2.272 0.624-2.88 1.232-1.232 0.624 1.44 0.416 3.296-0.208 3.92-0.624 0.832-1.232-0.416-1.024-2.672z"></path>
<path fill="#fff" d="M195.056 12.192c0-1.44 0.624-2.064 1.44-1.44 0.624 0.832 0.624 2.064 0 2.88-0.832 0.624-1.44 0-1.44-1.44z"></path>
</svg>
