<!-- Generated by IcoMoon.io -->
<svg version="1.1" xmlns="http://www.w3.org/2000/svg" width="512" height="512" viewBox="0 0 512 512">
<title>treasure-weapons</title>
<path fill="#fff" d="M133.424 502.384c0.848-1.472 0.208-2.528-2.112-2.528-2.528 0-3.168-1.264-2.528-5.072 0.848-4.016 0.208-4.848-2.32-4.016-1.904 0.416-0.848-0.848 2.528-2.736 3.168-2.112 5.696-4.64 5.696-5.696s1.472-3.168 3.168-4.848c1.696-1.904 3.168-6.128 3.168-9.504s1.056-6.128 2.112-6.128c1.264 0 2.112-1.264 2.112-2.96s1.264-4.432 2.96-5.904c1.472-1.696 3.584-5.072 4.224-7.6 0.848-2.528 2.528-4.64 3.584-4.64s1.904-1.472 1.904-3.168c0-1.696 1.056-3.168 2.112-3.168 1.264 0 2.112-1.264 2.112-2.96s1.472-3.376 3.168-4.224c1.696-0.64 3.168-3.168 3.168-5.488s1.056-4.224 2.32-4.224c1.056 0 3.584-3.376 5.28-7.392 1.696-4.224 4.432-8.016 6.128-8.864 1.696-0.64 3.168-3.376 3.168-6.128 0-2.528 1.264-5.696 2.736-6.544 2.96-1.904 7.392-8.656 9.072-13.712 0.848-2.112 2.112-3.792 3.168-3.792s1.904-1.264 1.904-2.736c0-5.072 7.808-12.032 13.504-12.032 2.96 0 5.488 1.056 5.488 2.112 0 1.264 1.904 2.112 4.224 2.112s4.224 1.472 4.224 3.168 1.472 3.168 3.168 3.168c1.696 0 3.168 1.472 3.168 3.168 0 1.904 1.904 3.168 4.848 3.168 5.072 0.208 12.032 4.64 12.032 7.6 0 1.056-3.376 4.64-7.392 8.224-4.016 3.376-7.392 7.6-7.392 9.072s-1.056 2.112-2.112 1.472c-1.904-1.264-16.88 12.032-16.88 14.768 0 1.696-13.088 13.712-14.992 13.712-1.056 0-1.904 1.264-1.904 2.736 0 1.696-2.32 4.224-5.28 5.696s-5.28 4.016-5.28 5.696c0 1.472-1.472 2.736-3.168 2.736s-3.168 1.056-3.168 2.32c0 2.32-11.392 14.56-13.712 14.56-1.264 0-4.016 2.32-18.368 16.256-2.112 1.904-3.168 4.224-2.32 5.488 0.64 1.264 0.416 1.472-0.848 0.848-2.112-1.264-9.072 5.488-9.072 9.072 0 1.264-1.264 1.904-2.528 1.696-1.472-0.416-2.528 1.056-2.112 2.96 0.208 1.904-0.64 4.224-1.904 5.072-1.696 0.848-1.904 0.64-1.056-0.848z"></path>
<path fill="#fff" d="M398.512 458.912c0-1.696-0.848-3.376-1.696-3.792-0.848-0.208-4.848-4.848-8.864-10.128s-7.808-9.92-8.448-10.56c-0.64-0.64-4.432-5.28-8.224-10.128-9.28-12.032-13.712-17.088-27.008-31.44-6.128-6.544-11.184-12.656-11.184-13.504s-1.472-2.96-3.168-4.848c-2.96-2.736-2.96-4.016-0.208-10.768 2.96-6.96 2.96-7.392-1.056-7.392-2.112 0-4.016 1.056-4.016 2.112 0 1.264-1.696 2.112-3.584 2.112-2.112 0-6.128 2.528-8.864 5.28-2.736 2.96-5.696 5.28-6.752 5.28s-1.904 1.472-1.904 3.168c0 1.696-0.848 3.376-2.112 3.376-1.056 0.208-2.96 0.416-4.224 0.64-1.056 0-3.168 1.472-4.432 2.96-4.016 3.792-20.688 3.376-22.16-0.64-0.848-1.696-2.736-3.168-4.432-3.168-1.904 0-2.736-1.264-1.904-3.168 0.848-2.32-0.416-3.168-5.072-3.168-3.584 0-6.336-0.848-6.336-2.112 0-1.056-1.056-2.112-2.32-2.112s-3.584-1.264-5.28-2.96c-1.472-1.696-4.016-3.584-5.488-4.016-2.112-0.848-1.904-1.696 0.416-3.584 2.528-2.112 2.32-2.32-1.472-1.472-2.528 0.64-5.696-0.208-7.168-1.904-1.264-1.696-3.584-2.96-5.072-2.96s-3.792-1.472-5.28-3.168c-1.472-1.696-5.696-3.168-9.504-3.168-4.016 0-7.392-1.056-7.808-2.112-0.416-1.264-12.24-2.528-29.12-2.96l-28.288-0.848-0.848-6.96c-0.416-4.224 0.416-7.808 2.112-9.28 1.472-1.264 3.792-4.016 5.072-6.336s4.848-4.432 8.016-4.848c2.96-0.416 5.072-1.472 4.64-2.32-0.64-0.848 1.056-2.96 3.792-4.432 4.848-2.528 4.848-2.736 1.056-6.544-2.112-2.112-4.848-4.016-5.904-4.016-2.736 0-4.016-7.6-5.696-33.136-0.848-14.56-2.32-22.368-4.224-24.064-3.792-3.168-3.792-10.336-0.208-10.336 1.472 0 5.072-4.016 7.808-8.864s7.6-11.392 10.56-14.352c3.168-3.168 6.336-8.224 7.168-11.392s2.32-5.072 3.376-4.432c1.264 0.848 2.112-3.376 2.112-10.336 0-6.544 1.056-12.24 2.528-13.088 1.472-1.056 1.696-0.416 0.64 1.472-1.472 2.528-1.056 2.528 1.264 0.208 1.904-1.904 2.112-3.168 0.64-4.224-4.016-2.736-4.848-8.656-5.28-37.568-0.208-26.384 0.208-28.912 4.224-32.72 2.736-2.736 7.392-4.016 13.712-4.016 5.488 0 9.712-1.056 10.336-2.736 0.416-1.472 3.376-2.736 6.544-3.168 5.072-0.416 5.488 0.208 5.488 8.224 0 5.488-0.848 8.016-2.32 7.184-1.472-1.056-1.696-0.208-0.208 2.32 1.056 2.32 3.792 7.808 5.904 12.24 5.904 12.656 18.144 26.592 23.216 26.592 1.264 0 5.072 1.264 8.448 2.96s7.6 3.168 9.28 3.584c4.848 0.64 21.104-2.736 22.368-4.64 0.64-1.056 3.584-1.904 6.752-2.112 3.168 0 4.432-0.64 2.96-1.264-1.904-0.848-1.056-3.168 3.168-8.656 3.168-4.432 6.544-8.016 7.392-8.448s1.696-2.528 1.696-4.848c0-2.32 1.472-4.64 3.168-5.28 2.32-1.056 3.168-4.64 3.168-14.352 0-7.392 1.056-14.144 2.528-15.616 3.168-3.168 13.504-3.376 15.408-0.416 0.64 1.264 6.336 2.32 12.24 2.32 6.128 0.208 9.28 0.64 7.392 1.264-3.584 0.848-3.584 1.264-0.416 4.432 3.376 3.168 3.376 7.392-0.208 27.856-0.64 2.96-1.472 10.336-2.32 16.464s-2.32 11.616-3.168 12.24c-2.528 1.472-2.32 15.616 0.208 15.616 1.056 0 1.904 0.64 1.904 1.696-0.208 0.848-0.208 7.392 0 14.768 0.208 10.128 0.848 13.088 3.376 13.088 1.696 0 2.96 1.056 2.528 2.528-0.208 1.472 1.056 2.528 2.736 2.736 1.696 0 2.96 1.696 2.96 3.584-0.208 1.904 0.848 2.96 2.32 2.528 1.472-0.64 3.168 0.416 3.792 2.112 0.848 2.112 4.016 3.376 8.224 3.376 11.184 0.208 14.992 4.432 13.712 15.2-0.848 5.072-2.528 19.84-4.016 32.928-1.472 14.352-3.376 23.632-4.848 23.632-2.96 0-13.712 10.976-13.712 13.936 0 1.056 1.056 0.416 2.112-1.264 1.696-2.736 2.112-2.528 2.112 0.64 0 2.528 1.696 3.584 6.336 3.584 3.584 0 6.336 0.848 6.336 2.112 0 1.056 3.792 2.96 8.448 4.224s8.448 2.736 8.448 3.376c0 0.848-1.472 0.848-3.168 0-1.696-0.64-3.168-0.208-3.168 0.848 0 1.264 1.696 2.112 3.792 2.112 2.736 0 2.96 0.416 0.64 1.904s-2.32 2.112 0 3.168c1.696 0.64 0.416 0.848-2.528 0.208-2.96-0.416-7.168 0.416-9.504 2.112-2.112 1.696-5.696 3.168-7.6 3.168-4.016 0-17.088 6.544-18.144 9.072-0.416 0.848-2.32 1.472-4.016 1.472-4.224 0-18.144 14.144-16.672 16.672 0.848 1.056 3.376 1.472 6.128 1.056 3.168-0.64 2.736-0.208-1.264 1.472-4.432 1.696-6.752 1.696-8.448 0-3.376-3.376-4.224-2.96-11.184 3.168-5.696 5.072-5.696 5.488-1.264 4.432 2.528-0.64 4.64-0.208 4.64 0.64 0 2.528 5.904 1.264 8.864-1.696 1.472-1.472 4.224-2.528 6.544-2.528 4.224 0 16.256 10.768 16.256 14.56 0 1.264 1.056 2.32 2.32 2.32 2.96 0 14.56 11.616 14.56 14.56 0 1.264 1.056 2.32 2.112 2.32 1.264 0 3.376 2.32 4.64 5.28s4.224 5.28 6.336 5.28c2.32 0 3.376 1.056 2.736 2.112-0.64 1.264-0.208 2.112 0.848 2.112 1.264 0 2.32 1.264 2.32 2.736s4.848 7.168 10.56 12.448c5.904 5.488 10.56 10.768 10.56 12.032s2.528 2.32 5.904 2.32c4.432 0 5.072 0.416 2.528 2.112-2.112 1.264-2.32 2.112-0.416 2.112 1.472 0 2.528 2.736 2.528 6.336s-0.848 6.336-1.696 6.336c-1.056 0-3.168 2.528-4.64 5.488-1.696 2.96-5.488 5.904-8.864 6.544-3.168 0.64-5.904 1.904-5.904 2.96s-2.736 1.904-6.336 1.904c-4.016 0-6.336-1.056-6.336-2.96zM163.392 322.576c0-5.072-4.224-4.432-5.072 0.64-0.416 1.904 0.64 3.584 2.112 3.584 1.696 0 2.96-1.904 2.96-4.224zM247.6 303.584c0.64-1.056 0.208-2.112-0.848-2.112-1.264 0-2.32 1.056-2.32 2.112 0 1.264 0.416 2.112 0.848 2.112 0.64 0 1.696-0.848 2.32-2.112zM253.936 293.024c0.64-1.056 0.848-2.112 0.208-2.112s-1.696 1.056-2.32 2.112c-0.64 1.264-0.848 2.112-0.208 2.112s1.696-0.848 2.32-2.112zM268.496 284.8c3.792-4.224 2.96-8.656-1.472-8.656-1.472 0-1.264 0.848 0.64 2.112 2.528 1.472 2.112 2.528-1.904 6.128-2.736 2.528-4.224 4.432-2.96 4.432 1.056 0 3.792-1.904 5.696-4.016zM286.656 284.576c0-1.056-2.112-2.112-4.64-1.904-4.64 0-4.64 0.208-0.64 1.904 2.32 1.056 4.432 1.904 4.848 1.904 0.208 0.208 0.416-0.64 0.416-1.904zM275.888 249.328c0-13.936 0.848-23.008 2.112-23.424 3.168-1.056 2.96-27.232 0-28.288-1.696-0.64-0.416-4.224 3.376-9.712 5.696-8.656 5.696-8.864 1.904-14.56-2.112-3.376-3.584-6.544-3.376-7.392 0.208-1.056-3.168-1.696-7.808-1.696-7.392 0-8.656 0.848-11.824 7.6s-3.168 7.808-0.208 12.448c2.736 4.224 3.376 12.032 3.376 43.264 0 36.096 0.208 37.984 4.016 37.984 2.96 0 4.432-1.696 5.072-5.696 0.64-4.224 0.848-3.792 0.848 1.904-0.208 4.224-0.64 7.392-1.472 7.168-0.64-0.416-2.96 0-5.28 1.056-3.584 1.264-2.96 1.696 2.528 1.696l6.752 0.208v-22.576zM223.76 161.328c2.96-4.224 1.696-8.656-3.792-14.768-3.168-3.168-5.696-8.016-5.904-10.56-0.208-2.96-1.904-4.64-5.072-5.072-5.696-0.848-8.448 4.848-4.848 10.336 1.696 3.168 1.696 5.072-0.208 8.016-6.544 10.768 12.88 22.368 19.84 12.032zM307.76 148.656c0-4.016-0.848-4.848-4.224-4.016-5.28 1.472-5.488 6.336-0.416 7.6 1.904 0.64 3.792 1.056 4.224 1.264 0.208 0 0.416-2.112 0.416-4.848zM336.88 141.696c0.416-7.6-0.208-11.184-1.904-11.184-1.264 0-3.792-1.696-5.28-3.584-2.736-3.584-2.736-3.584-2.96 0 0 4.432-6.336 4.848-6.336 0.416 0-1.696-1.056-3.168-2.528-3.168-1.264 0-1.696 0.64-1.056 1.472 0.848 0.64-0.416 2.736-2.736 4.224-4.224 2.96-4.224 3.168 0.848 7.6 4.64 4.016 4.848 4.64 1.472 7.168-3.168 2.32-3.168 2.528 0 2.736 1.904 0 4.224 1.472 4.848 3.376 0.848 2.112 3.376 2.96 8.016 2.528 6.752-0.64 6.96-0.848 7.6-11.616zM343.216 86.608c-5.28-1.056-6.336 0.208-4.64 4.64 1.264 3.376 1.696 3.376 5.072-0.208s3.376-3.792-0.416-4.432z"></path>
<path fill="#fff" d="M335.2 350.432c0-1.056 1.472-1.904 3.168-1.904s3.168 0.848 3.168 1.904c0 0.848-1.472 1.696-3.168 1.696s-3.168-0.848-3.168-1.696z"></path>
<path fill="#fff" d="M87.408 262.416c-2.32-1.696-6.336-3.168-8.864-3.168s-5.072-0.64-5.488-1.472c-0.848-2.32-14.144-9.072-17.52-9.072-1.696 0-10.768-7.6-20.48-16.88-9.504-9.28-18.576-16.88-20.048-16.88-1.696 0-2.736-2.528-2.736-6.128 0-3.376-1.472-7.6-3.168-9.504-1.696-1.696-3.168-5.072-3.168-7.168 0-2.32-1.056-4.64-2.32-5.072s-2.736-5.28-3.376-10.768c-1.264-9.92 2.528-19.2 9.28-23.216 1.472-0.848 2.736-3.376 2.736-5.696 0-2.112 1.904-4.64 4.432-5.28 2.32-0.848 7.808-5.072 12.032-9.712 4.848-5.072 9.92-8.224 13.088-8.448 2.96 0 4.224-0.64 2.96-1.056-1.472-0.64 0.64-4.016 5.072-8.224 8.016-8.016 10.976-9.072 10.976-4.224 0 1.696-0.848 3.168-2.112 3.168-1.056 0-2.112 3.792-2.112 8.448v8.448h9.072c6.544 0 8.016 0.64 5.696 2.112-2.112 1.264-2.32 2.112-0.416 2.112 1.264 0 2.528 1.472 2.528 3.168s1.056 3.168 2.112 3.168c2.112 0 2.96-2.96 2.32-7.808-0.208-1.472 0.64-2.736 1.696-2.736 4.848 0 21.104-18.368 21.744-24.688 0.416-4.016 3.584-9.072 8.656-13.712 4.224-4.224 7.808-8.448 7.808-9.92 0-1.264 1.472-2.32 3.168-2.32s3.168-0.848 3.168-2.112c0-1.056 1.472-2.112 3.168-2.112 1.904 0 3.168 1.904 3.168 5.28 0 3.792 1.056 5.28 4.224 5.28 2.32 0 4.848-1.472 5.488-3.168 0.848-1.696 2.32-3.168 3.792-3.168 2.528 0 7.6-9.504 7.6-14.144 0-1.472 0.848-2.736 2.112-2.736 2.112 0 8.224-4.432 16.256-12.24 2.96-2.528 6.128-4.224 7.168-3.584 1.056 0.848 2.528-0.208 3.168-1.904 0.64-1.904 2.736-3.376 4.432-3.376s2.528 0.848 1.696 1.904c-0.64 1.056 0.848 2.32 3.376 2.736l4.432 0.64-4.432 5.072c-2.528 2.736-4.432 6.752-4.432 9.072 0 2.112-0.64 3.792-1.696 3.792-0.848 0-3.376 3.584-5.696 8.016-2.32 4.224-4.64 8.224-5.28 8.864s-4.224 5.696-7.808 11.184c-11.824 17.088-8.864 33.344 9.072 48.96 4.848 4.016 8.864 22.16 5.28 22.16-1.056 0-1.264 2.32-0.64 5.28 0.848 4.432 0 5.28-4.016 5.488-2.736 0-3.792 0.64-2.32 1.264 3.376 1.264 3.168 4.224-0.416 4.224-1.904 0-2.736-1.696-2.112-4.848 0.416-2.736-0.208-5.488-1.472-6.336-1.696-1.056-1.904-0.64-0.848 1.472 1.696 2.528 1.264 2.528-1.696 0-1.904-1.472-2.96-3.584-2.32-4.64s-0.416-1.904-2.112-1.904c-1.904 0-3.376-1.056-3.376-2.32 0-2.528-12.656-14.56-15.2-14.56-3.168 0-1.696-4.016 2.112-4.848 1.904-0.64-1.696-0.64-8.016 0s-11.824 2.112-12.24 2.96c-0.416 1.056-1.904 1.904-3.376 1.904-2.96 0-13.936 11.392-13.936 14.56 0 1.056-1.472 2.32-3.168 3.168-1.696 0.64-3.168 2.528-3.168 4.224s-1.056 3.376-2.32 3.792c-1.264 0.416-2.736 6.544-3.376 13.504-0.848 10.128-0.208 14.56 3.168 22.368 4.64 9.92 12.24 16.464 18.992 16.464 4.432 0 13.088 8.224 13.088 12.448 0 1.472 1.056 1.904 2.112 1.264 1.264-0.848 2.112 1.056 2.112 4.016 0 3.792 1.056 5.488 3.792 5.488s2.96 0.416 0.848 1.904c-2.32 1.472-2.32 1.904 0.208 2.96 2.112 0.64 2.736 2.96 2.112 6.544-1.264 5.696-6.96 7.808-6.96 2.32 0-4.016-7.184-4.224-10.56-0.208-1.904 2.528-3.584 2.736-7.6 0.848-3.792-1.904-5.904-1.696-7.6 0-3.584 3.584-16.672 2.96-21.52-0.64z"></path>
<path fill="#fff" d="M380.784 192.352c-3.168-0.848-3.376-1.472-1.056-2.96 2.112-1.264 1.264-1.904-2.736-1.904-5.28 0-6.96-1.904-6.128-7.168 0.208-1.056-1.264-1.264-3.168-0.416-2.736 1.056-3.168 0.416-2.32-2.96 0.64-2.32-0.208-5.696-1.904-7.168-3.376-3.584-4.016-8.448-0.848-6.544 1.264 0.848 2.112-1.696 2.112-6.128 0-4.016 1.264-8.224 2.736-9.072 2.96-1.904 7.392-8.656 9.072-13.712 0.848-2.528 3.584-3.792 8.224-3.792 5.696 0 7.168-0.848 7.808-5.28 0.64-2.96 0.416-5.28-0.64-5.28s-4.64-2.736-8.224-6.336c-3.584-3.376-7.808-6.336-9.504-6.336-5.28 0-3.584-7.808 3.376-14.56 6.336-6.544 10.336-8.224 10.336-4.64 0 1.056 2.32 2.528 5.28 3.168 2.96 0.848 5.28 2.32 5.28 3.376 0 1.264 1.472 2.112 3.168 2.112s3.168 1.264 3.168 2.736c0 1.264 2.32 3.584 5.072 4.848 4.64 2.112 5.28 1.904 6.336-2.528 0.848-2.736 2.32-5.072 3.376-5.072 1.264 0 2.112-1.472 2.112-3.168s0.848-3.168 1.904-3.168c1.056 0 2.736-2.112 3.584-4.64s4.64-8.016 8.448-12.24c4.016-4.016 7.168-8.016 7.168-8.864s5.28-6.544 11.616-13.088c10.976-10.976 14.352-18.368 9.504-21.312-1.056-0.64-2.112-3.584-2.112-6.544 0-2.736 1.056-5.072 2.112-5.072 1.264 0 2.112-1.472 2.112-3.376 0-2.112 1.264-2.96 3.168-2.112 1.696 0.64 4.432-0.208 6.128-1.904 3.792-3.792 11.184-4.016 14.56-0.416 1.472 1.264 4.848 6.128 7.808 10.336 2.96 4.432 7.168 8.224 9.28 8.448 6.336 1.056 6.752 5.904 0.64 5.904-3.168 0-6.544 2.112-8.656 5.28-1.904 2.96-5.488 5.28-8.016 5.28-4.848 0-15.408 10.56-17.728 17.52-1.056 3.584-4.64 7.808-18.144 22.8-3.376 3.584-5.904 7.392-5.904 8.448s-0.848 1.904-1.904 1.904c-1.056 0-2.32 1.696-3.168 3.792-0.64 1.904-2.96 6.544-5.28 9.92-4.432 6.96-5.696 13.712-2.32 13.712 1.264 0 2.112 1.264 2.112 2.736 0.208 1.264 4.016 5.488 8.448 8.864 4.432 3.584 8.224 7.6 8.448 9.072 0 1.264 1.056 2.528 2.32 2.528 4.016 0 8.864 6.544 9.072 12.448 0.208 4.016-0.848 5.696-3.584 5.696-2.112 0-3.376-1.056-2.736-2.528 1.056-2.528-5.696-9.28-9.92-9.504-1.264 0-0.64-0.848 1.696-1.904 4.016-1.696 4.016-1.904-0.416-1.904-2.736-0.208-4.848 0.848-4.848 2.112 0 1.056-0.848 1.472-2.112 0.848s-1.472 0.208-0.848 1.904c0.64 1.904 2.112 3.376 3.168 3.376s1.904 1.904 1.904 4.224c0 2.96 1.056 3.792 3.584 2.736 2.32-0.848 2.96-0.64 1.904 1.056-1.904 3.168-9.712 3.376-9.712 0.416 0-1.056-1.056-2.112-2.32-2.112s-6.128-3.792-10.56-8.224c-7.808-8.224-9.92-9.28-17.088-8.864-2.96 0.208-3.792 2.112-3.792 8.224 0 7.808-4.432 16.672-9.92 20.048-1.472 0.848-2.736 2.736-2.736 4.224s-2.528 4.432-5.488 6.752c-5.072 3.584-5.072 4.224-1.472 5.488 3.168 1.264 2.736 1.696-1.472 1.472-2.96 0-7.168-0.64-9.28-1.056zM421.728 141.904c0-0.416-2.32-0.64-5.072-0.416-2.96 0.208-4.848 1.056-4.224 1.904 0.848 1.472 9.28 0 9.28-1.472zM410.112 138.96c0.64-1.264-0.208-1.472-1.904-0.848-3.792 1.472-4.432 2.96-1.472 2.96 1.264 0 2.736-0.848 3.376-2.112z"></path>
<path fill="#fff" d="M195.904 42.080c0-1.056-2.528-2.32-5.696-2.736l-5.904-0.64 6.752-3.792c3.792-1.904 9.712-6.544 13.296-9.92 3.584-3.584 7.392-6.336 8.448-6.336 5.488 0 3.376 5.28-6.336 14.992-5.696 5.904-10.56 9.712-10.56 8.448z"></path>
</svg>
