<!-- Generated by IcoMoon.io -->
<svg version="1.1" xmlns="http://www.w3.org/2000/svg" width="512" height="512" viewBox="0 0 512 512">
<title>twists-environment</title>
<path fill="#fff" d="M244.64 431.184c-3.808-3.808-9.264-8.352-12.352-9.984s-5.088-3.632-4.544-4.544c0.72-1.088-0.368-1.808-2.176-2-1.824 0-5.632-1.632-8.72-3.632-2.912-1.808-7.088-4.176-9.088-5.088s-7.808-5.456-12.528-9.984c-4.896-4.544-9.44-8.352-9.984-8.352-0.72 0-3.808-2.368-7.088-5.456-3.264-2.912-6.72-5.456-7.808-5.456-0.912 0-1.632-0.72-1.632-1.632s-2-2.176-4.544-2.72c-2.544-0.72-4.544-2-4.544-2.912 0-1.088-2-1.808-4.544-1.808s-4.544-0.72-4.544-1.808c0-0.912-2-1.808-4.352-1.808-4.352 0-7.808-2.912-6-4.896 0.544-0.544 7.44-1.088 15.264-1.264 13.264-0.176 14.16-0.368 14.704-4.352 0.544-3.264-0.368-4.176-4.896-5.088-3.088-0.72-5.632-1.808-5.632-2.72s-1.456-1.632-3.456-1.632c-1.824 0-4.352-1.264-5.632-2.72s-5.088-2.72-8.352-2.72c-3.456 0-6.176-0.72-6.176-1.808 0-0.912-0.912-1.808-2-1.808-3.264 0-17.984-7.808-17.984-9.44 0-0.72-1.264-1.456-2.912-1.456s-4.896-1.632-7.44-3.632-4-3.632-3.088-3.632c0.72 0-0.368-1.632-2.544-3.632-2.176-2.176-4-4.544-4-5.456 0-1.088-2-1.808-4.544-1.808-3.632 0-4.544 0.912-4.544 4.544 0 2.368 1.088 5.264 2.176 6.176 7.088 5.632 12.896 11.264 11.072 10.176-1.632-0.72-2.368 0.176-2.368 2.544 0 2.176-1.264 3.808-2.72 3.808s-2.72-0.912-2.72-2c0-2.912-5.632-6.896-9.44-7.088-3.456 0-14.72-5.632-15.616-7.632-0.368-0.912-2.176-1.456-4.176-1.456s-4-1.264-4.544-2.72c-0.72-1.632-3.456-2.72-6.352-2.72s-8.544-2-12.528-4.544c-4-2.544-8.352-4.544-9.808-4.544s-3.264-0.912-3.808-1.808c-1.632-2.544-16.352-9.088-20.704-9.088-2.544 0-4.176-1.632-4.896-4.544-1.456-6.176 0.176-9.984 4.544-9.984 2 0 4.176-0.72 4.72-1.808 0.544-0.912 2.912-1.808 5.264-1.808 2.176 0 5.632-1.264 7.632-2.72 1.808-1.456 5.264-2.72 7.264-2.72 2.176 0 4.352-1.264 5.088-2.72 0.544-1.456 3.088-2.72 5.632-2.72s4.544-0.72 4.544-1.808c0-0.912 2.544-1.808 5.632-1.808 5.456 0 13.264-2.72 23.792-8.352 6.352-3.456 8.72-3.264 8.896 0.72 0 2.544 0.368 2.544 1.632-0.544 1.264-2.912 1.632-2.368 1.632 3.088 0.176 5.264 0.72 6.544 2.912 5.808 1.456-0.72 2.72-1.824 2.72-2.912 0-0.912-1.088-1.088-2.176-0.368-1.824 1.088-1.824 0.912-0.176-1.456 1.264-1.456 1.632-3.456 0.912-4.352-0.72-0.72 0.176-0.368 2 1.088 2.72 2 3.264 2 2.72 0-0.368-1.456 0.72-2.72 2.176-2.72s2.544-1.088 2.368-2.368c-0.368-1.264 0.368-2.176 1.264-2.176 1.088 0 1.824-1.088 1.824-2.368 0-3.632 9.808-8.544 16.704-8.176 5.808 0.176 6.176 0.544 5.632 5.808-1.456 11.984-4.352 18.352-10.176 21.072-13.072 6.352-15.808 22.88-5.264 34.144 1.088 1.264 2.176 3.264 2.176 4.176s2 2 4.544 2.72c2.544 0.544 4.544 1.808 4.544 2.72s0.912 1.632 2 1.632c1.088 0 4.912 1.264 8.544 2.912 3.808 1.632 9.44 4 12.72 5.456s7.088 2.544 8.544 2.544c1.456 0 2.72 0.544 2.72 1.456 0 3.632 15.808 6.176 44.32 7.088 24.336 0.72 30.88 0.368 32.144-1.632 1.088-1.632 6.896-2.544 19.248-3.088 9.808-0.176 18.16-1.088 18.704-1.808 1.632-2.176 30.88-6 52.304-6.896 13.44-0.72 20.336-1.632 20.336-3.088 0-1.088 3.088-2.176 6.896-2.544 3.632-0.176 7.088-1.264 7.264-2.176 0.368-1.088 2.176-1.808 3.808-1.808 1.808 0 6.896-2 11.264-4.544s9.44-5.088 11.264-5.632c1.632-0.72 3.088-2.176 3.088-3.456s1.088-3.264 2.544-4.352c3.088-2.544 5.088-20.88 2.912-26.704-1.088-2.544-3.264-4.352-5.456-4.352-2 0-6.176-2.176-9.088-4.896-4.72-4.176-5.456-6-5.456-14.528v-9.632h7.264c4 0 7.264 0.72 7.264 1.632 0 2.368 10.528 7.44 16.16 7.632 3.088 0.176 3.632 0.544 1.632 1.088-1.808 0.368-3.264 1.632-3.264 2.72s1.456 1.456 3.456 0.912c2.176-0.544 3.264 0.176 3.088 2-0.368 4.352 6.352 4.896 9.264 1.088 2-2.72 3.088-2.912 5.632-1.088 1.632 1.264 4.352 2.72 5.808 3.264s4.352 1.824 6.352 2.544c2 0.912 6.352 2.176 9.632 2.72 3.088 0.72 5.808 2 5.808 2.912s2.912 1.632 6.544 1.632c6.896 0 24.88 5.264 25.792 7.808 0.368 0.72 2.544 1.264 4.896 1.264s4.896 0.912 5.456 1.808c0.544 1.088 3.088 1.808 5.632 1.808 2.368 0 4.352 0.912 4.352 1.808 0 1.088 2 2.72 4.544 3.632 5.456 2 6.176 7.264 1.088 7.264-5.632 0-6.176 3.264-0.72 4.176 3.264 0.544 1.808 0.912-4 1.264-4.896 0.176-9.632 0.368-10.352 0.176-0.72 0-1.808 1.808-2.544 4.352-0.544 2.544-1.808 4.176-2.544 3.632-0.912-0.544-2.72 0.368-4.176 1.808-1.808 1.632-6.176 2.72-11.072 2.72-4.544 0-8.352 0.72-8.352 1.632s-1.808 2.368-4 2.912c-2 0.72-5.632 3.264-7.808 5.632s-4.896 4.352-6.176 4.352c-1.088 0-5.456 3.456-9.632 7.632-4.352 4.176-8.544 7.44-9.264 7.264s-2.72 0.72-4.176 2.368c-1.632 1.456-4 2.72-5.456 2.72s-2.544 0.72-2.544 1.632c0 0.912-1.808 2-4 2.544-4.72 1.264-10.352-1.264-7.088-3.088 3.808-2.368 2.368-10.896-2.368-13.072-3.632-1.632-5.808-1.264-12.896 2.176-4.544 2.368-9.984 4.352-11.808 4.352s-3.808 0.72-4.352 1.632c-0.72 0.912-4.352 2.176-8.352 2.912s-7.264 1.808-7.264 2.544c0 0.72-2.912 1.456-6.352 1.632-3.632 0.368-10.896 2.912-16.528 5.808-5.456 3.088-10.896 5.456-12.176 5.456s-2.544 2.176-2.72 4.72l-0.368 4.544 16.528-0.368c9.984-0.176 17.248 0.544 18.352 1.632 1.456 1.456 1.088 2.368-1.456 3.264-8.352 2.72-8.544 3.264-1.632 4.352 7.264 1.264 7.264 1.264-2.176 1.632-5.264 0-9.632 0.912-9.632 2 0 0.912-1.264 1.264-2.72 0.72-1.808-0.72-2.72 0-2.72 2.72 0 2.544-0.912 3.456-2.72 2.72-1.632-0.72-2.72 0-2.72 1.808 0 1.632-1.264 2.912-2.544 2.912-4 0-17.616 9.808-28.16 19.984-5.088 5.088-9.632 9.088-10.176 9.088-0.368 0-3.632 2.912-7.088 6.352-3.632 3.456-6 6.352-5.632 6.352 0.544 0-0.544 1.456-2.176 3.456-1.808 1.808-3.808 3.264-4.352 3.088s-3.808 2.912-7.44 6.72c-3.456 3.632-7.088 6.72-7.984 6.72s-4.72-3.264-8.352-7.264zM173.616 355.44c-0.72-0.544-1.264 0-1.264 1.264s0.544 1.808 1.264 1.264c0.544-0.72 0.544-1.808 0-2.544zM409.744 322.752c-0.544-1.808-0.912-0.72-0.912 2.176 0 3.088 0.368 4.352 0.912 3.264 0.368-1.264 0.368-3.808 0-5.456zM81.536 302.224c0-0.912-0.72-1.808-1.824-1.808-0.912 0-1.824 0.912-1.824 1.808 0 1.088 0.912 1.808 1.824 1.808 1.088 0 1.824-0.72 1.824-1.808zM79.168 268.256c-0.72-0.544-1.264 0-1.264 1.264s0.544 1.808 1.264 1.264c0.544-0.72 0.544-1.808 0-2.544zM82.8 267.344c-0.544-1.456-1.088-0.912-1.088 1.088-0.176 2 0.368 3.088 0.912 2.368 0.544-0.544 0.72-2.176 0.176-3.456zM85.712 260.992c-1.264-0.368-3.456-0.368-4.544 0-1.264 0.544-0.368 0.912 2.176 0.912s3.456-0.368 2.368-0.912zM85.168 255.008c0-0.912-0.912-1.824-2-1.824-0.912 0-1.264 0.912-0.72 1.824 0.544 1.088 1.456 1.824 2 1.824 0.368 0 0.72-0.72 0.72-1.824z"></path>
<path fill="#fff" d="M233.744 304.944c-0.368-0.544-9.632-1.088-20.16-1.264l-19.44-0.176v-6c0-5.088-0.72-6-5.456-7.088-2.912-0.72-5.456-2-5.456-2.912s-5.808-1.632-12.72-1.632c-12.352 0-16.528-1.264-28.16-8.896-3.264-2-3.632-3.808-3.088-15.44 0.544-9.264 1.456-13.616 3.632-15.264 2.912-2.176 2.912-2.544 0-4.176-4-2.176-4.176-6.896-0.544-8.176 1.456-0.72 2.72-1.824 2.72-2.912 0-0.912 2.176-4.544 4.72-7.808 5.264-6.896 8.544-24.528 6-31.6-2-4.72-0.176-27.056 2.176-28.512 0.912-0.544 1.632-3.264 1.632-6 0-5.456 7.808-21.616 11.984-24.88 1.456-1.088 2.544-4 2.544-6.544 0-2.368 2-6.352 4.544-8.72s4.544-5.264 4.544-6.544c0-1.264 1.088-3.088 2.368-3.808s4.544-4.352 7.44-7.632c5.632-6.896 10.72-10.176 19.072-11.984 3.088-0.72 5.632-2 5.632-2.912s3.264-1.632 7.264-1.632c7.808 0 8.176-0.368 5.456-5.456-1.824-3.264-0.544-3.456 28.704-3.456 29.056 0 30.512 0.176 30.704 3.456 0.176 2-0.368 3.632-1.456 3.632-0.912 0-1.632-1.264-1.632-2.72s-1.264-2.72-2.912-2.72c-4.176 0-2.368 6.176 2 6.896 2 0.368 8.72 6 14.896 12.352 6.544 6.72 12.896 11.632 15.072 11.632 2 0 3.632 0.912 3.632 2 0 0.912-0.72 1.264-1.808 0.72-0.912-0.544-1.808-0.368-1.808 0.72 0 0.912 0.72 2 1.632 2.368 2.544 0.912 11.072 15.808 11.072 19.44 0 1.824 1.264 4.352 2.72 5.632 1.632 1.264 2.72 5.264 2.72 9.264 0 3.808 0.72 7.264 1.456 7.808 0.912 0.544 2.176 11.44 2.72 24.16 0.72 12.896 2 23.424 3.088 23.792 0.912 0.368 1.808 1.632 1.808 3.088 0 1.264 1.264 3.264 2.72 4.544 2 1.632 2.72 5.808 2.72 14.704s0.72 12.528 2.368 12.528c1.264 0 2.368 2.912 2.544 7.632 0.176 4.176 1.088 7.984 2.176 8.352 2.544 0.912 2.72 7.632 0.176 7.632-0.912 0-1.808 1.264-1.808 2.72s-1.088 2.72-2.368 2.72c-1.456 0-3.632 2-4.896 4.544-1.808 3.456-2.912 4-4 2.368-1.088-2-1.808-2-2.912 0-1.088 1.456-7.632 2.72-17.808 3.456-9.632 0.544-18.16 2.176-21.072 3.808-5.088 2.912-6.72 8.176-3.264 10.352 1.088 0.544 1.808 1.808 1.808 2.544 0 1.808-20.16 6-33.6 6.896-6 0.368-12.896 1.088-15.44 1.808-4.544 1.088-4.544 1.088 0.912 2.368 4.176 1.088 3.088 1.456-5.632 1.632-6 0-11.44-0.176-11.984-0.72zM248.64 297.68c0-1.456 0.544-2.544 1.456-2.544 5.632 0.912 11.264-0.544 11.264-2.912 0-1.456-0.72-2.72-1.808-2.72-0.912 0-2.176-2.176-2.912-4.896-1.632-7.632-6.72-16.896-9.264-16.896-3.808 0-9.632 6.896-9.632 11.44 0 2.176-1.264 5.632-2.72 7.44-3.632 4.896-3.456 11.44 0.544 12.528 7.088 2 13.072 1.264 13.072-1.456zM288.592 268.624c1.264-1.632 5.264-2.72 9.264-2.72s7.088-0.72 7.088-1.632c0-0.912 1.808-2.368 4-3.088 8.544-2.72 14.16-15.808 7.808-18.16-1.456-0.72-2.72-2.176-2.72-3.632 0-3.264-5.456-3.088-9.808 0.176-2 1.456-5.456 2.72-7.632 2.72s-6.352 1.264-9.264 2.544c-2.72 1.456-6.544 3.088-8.176 3.632-4.176 1.264-4.544 11.072-0.544 12.72 1.456 0.544 2.72 3.088 2.72 5.632 0 5.088 3.808 6 7.264 1.808zM214.496 265.36c1.632-2.368 3.264-7.264 3.456-11.088 0.72-6.896 0.544-6.896-6.544-7.44-3.808-0.176-7.44-1.264-7.808-2.544-0.368-1.088-2.544-2-4.896-2-2.176 0-4.544-1.264-5.264-2.72-0.544-1.456-2.544-2.72-4.352-2.72-2 0-4.544 1.264-5.808 2.72s-3.088 2.72-4 2.72c-1.824 0-10.528 8.896-10.528 10.72 0 2 7.264 7.44 9.808 7.44 1.264 0 3.456 1.264 4.72 2.72s4.352 2.72 7.088 2.72c2.544 0 6 0.912 7.44 1.808 4.896 3.264 13.44 2 16.704-2.368zM222.848 255.904c-0.544-6.352-2.72-5.632-2.912 0.912 0 3.088 0.544 5.088 1.632 4.544 0.912-0.544 1.456-3.088 1.264-5.456zM149.648 238.656c0.544-0.912 0.176-1.824-0.72-1.824-1.088 0-2 0.912-2 1.824 0 1.088 0.368 1.824 0.72 1.824 0.544 0 1.456-0.72 2-1.824z"></path>
<path fill="#fff" d="M485.312 293.696c0.72-0.544 1.808-0.544 2.544 0 0.544 0.72 0 1.264-1.264 1.264s-1.808-0.544-1.264-1.264z"></path>
<path fill="#fff" d="M81.168 242.832c1.088-0.368 3.264-0.368 4.544 0 1.088 0.544 0.176 0.912-2.368 0.912s-3.456-0.368-2.176-0.912z"></path>
</svg>
