<!-- Generated by IcoMoon.io -->
<svg version="1.1" xmlns="http://www.w3.org/2000/svg" width="512" height="512" viewBox="0 0 512 512">
<title>twists-fate</title>
<path fill="#fff" d="M215.952 510.176c-2.16-1.088-3.248-3.968-3.248-8.112 0-3.6-1.264-7.568-2.704-9.024-1.44-1.616-2.704-4.336-2.704-6.32 0-1.808-0.72-3.424-1.808-3.424-0.896 0-1.808-1.808-1.808-4.144s-1.264-5.776-2.704-7.76c-1.44-1.808-2.704-5.056-2.704-7.216 0-1.984-1.264-5.232-2.704-7.216-1.44-1.808-2.704-5.584-2.704-8.48 0-4.688-0.544-6.32-5.056-14.976-1.088-2.16-2.528-6.848-3.072-10.464-0.72-3.6-1.984-6.496-2.704-6.496-0.896 0-1.984-2.352-2.704-5.408-0.72-2.88-1.984-5.776-2.88-6.32-0.896-0.72-1.616-2.704-1.616-4.512 0-1.984-2.352-5.952-5.408-9.024-2.88-3.072-5.408-7.040-5.408-9.024 0-1.808-0.896-3.6-1.808-3.968-1.088-0.368-2.16-2.352-2.352-4.688 0-2.16-1.264-3.968-2.528-3.968s-2.352-1.088-2.352-2.528c0-1.44-0.72-2.88-1.616-3.248-0.72-0.176-2.16-2.352-2.704-4.512-1.984-6.128 5.056-5.408 12.8 1.264 3.248 3.072 5.232 5.408 4.144 5.408-3.792 0 5.232 6.848 10.64 8.112 3.072 0.72 5.584 1.984 5.584 2.88s1.984 1.616 4.336 1.616c3.072 0 4.688-1.264 5.408-4.512 1.264-5.232-0.544-18.576-2.704-20.016-2.352-1.264-1.984-27.776 0.176-27.776 1.088 0 1.808-2.352 1.808-5.232s1.264-6.128 2.704-7.392c1.44-1.264 2.704-3.424 2.704-4.688 0-1.44 0.72-2.528 1.808-2.528 0.896 0 2.16-1.984 2.88-4.512 0.544-2.528 1.808-4.512 2.528-4.512s1.808-1.44 2.528-3.072c1.616-5.056 5.056-9.92 10.64-14.976 2.88-2.528 8.304-7.392 11.904-11.008 8.48-8.112 20.208-16.048 31.376-21.28 4.688-2.352 8.48-4.688 8.48-5.584 0-0.72 1.984-1.984 4.512-2.528 2.528-0.72 4.512-1.984 4.512-2.88 0-1.088 0.72-1.808 1.616-1.808 1.44 0 5.056-2.88 24.704-20.56 4.336-3.792 7.936-8.48 7.936-10.288 0-1.984 0.72-3.424 1.808-3.424 0.896 0 2.16-1.984 2.88-4.512 0.544-2.528 1.808-4.512 2.704-4.512s1.616-1.44 1.616-3.424c0-1.808 1.264-4.336 2.704-5.584 1.808-1.44 2.704-5.408 2.704-11.008 0-4.688 0.896-9.2 1.808-9.744 1.088-0.544 1.808-6.496 1.616-13.168 0-8.48-0.544-11.008-1.616-8.48-1.264 2.88-1.616 3.072-1.616 0.544-0.176-3.6 3.792-6.672 4.864-3.6 0.72 2.528 3.968 2.88 3.968 0.368 0-0.896-1.984-2.16-4.512-2.88-3.6-0.896-4.512-2.16-4.512-7.040 0-3.248-1.264-6.848-2.704-8.112s-2.704-4.144-2.704-6.672c0-2.352-0.72-3.968-1.44-3.424-0.896 0.544-1.616-0.176-1.616-1.616 0-3.072-5.952-15.152-9.024-18.576-1.264-1.264-2.352-3.424-2.352-4.864 0-1.264-0.72-2.704-1.44-3.072-0.72-0.176-3.248-3.6-5.584-7.216-2.16-3.792-4.864-6.848-5.776-6.848s-1.616-1.264-1.616-2.704c0-1.44-0.896-2.704-1.808-2.704-1.088 0-4.144-1.984-6.848-4.512s-7.040-4.512-9.744-4.512c-2.88 0-5.056-0.72-5.056-1.808 0-0.896-3.248-2.352-7.216-2.88-3.968-0.72-7.76-1.984-8.304-2.704-1.264-2.16-50.688-1.984-51.584 0.176-0.176 0.896-2.528 1.984-4.864 2.352-2.528 0.368-4.864 1.616-5.232 2.704-0.368 1.264-1.808 2.16-3.072 2.16-8.112 0-29.76 19.296-41.84 37.52-5.408 8.112-7.040 12.272-6.496 16.048 0.544 3.424 0.368 4.336-0.896 2.704-1.264-1.984-1.808-1.808-2.88 0.544-1.808 4.864-1.264 29.392 0.72 30.656 1.088 0.544 1.808 5.952 1.808 11.904 0 9.024 0.896 11.904 5.408 18.224 2.88 3.968 5.408 8.304 5.408 9.552 0 1.088 1.984 3.248 4.512 4.512s4.512 3.424 4.512 4.864c0 2.352 3.248 3.248 9.552 2.704 1.808-0.176 4.688 0.544 6.32 1.44 2.352 1.44 1.984 1.616-1.808 0.72-3.248-0.72-5.056-0.368-5.056 0.896 0 1.088 3.072 1.984 7.040 1.984s7.76 0.896 8.304 1.808c1.44 2.16 27.952 2.352 27.952 0.176 0-0.896 2.704-1.984 5.952-2.528 7.216-1.088 17.68-5.056 20.736-8.112 1.264-1.088 3.248-2.16 4.144-2.16s1.984-1.984 2.704-4.512c0.544-2.528 1.808-4.512 2.704-4.512 3.072 0 1.808-21.28-1.44-25.248-3.792-4.336-5.952-4.688-5.952-0.896 0 1.44-0.72 2.704-1.808 2.704-0.896 0-1.808 3.072-1.808 7.040 0 4.512-1.088 7.76-3.072 9.376-2.704 1.984-2.88 1.984-0.896-0.176 2.704-3.072 2.88-7.216 0.176-7.216-0.896 0-1.44 0.544-0.896 1.44 2.16 3.792-10.64 12.992-18.4 12.992-2.704 0-5.952 0.896-7.040 1.984-1.44 1.44-3.072 1.44-5.408 0-1.984-0.896-6.848-1.984-11.008-2.16-3.968-0.368-7.216-0.896-7.040-1.616 0.176-0.544-1.616-3.072-3.792-5.408-8.304-8.656-11.184-16.96-11.184-31.024 0.176-8.656 1.088-14.432 2.704-16.592 1.44-1.984 2.704-4.864 2.704-6.496 0-4.336 9.2-13.712 14.976-15.152 2.704-0.544 4.864-1.984 4.864-2.88 0-1.088 2.704-1.808 5.952-1.808s6.848-0.896 7.936-1.984c1.44-1.44 2.352-1.44 3.072 0 1.808 2.88 10.096 2.528 11.184-0.544 0.72-1.808 5.232-2.528 17.136-2.704 13.344-0.368 16.048 0.176 16.048 2.352 0 1.616 0.896 2.88 1.984 2.88 2.16 0 12.448 9.744 12.448 11.904 0 0.72 1.808 3.072 4.144 5.232 7.392 7.216 10.288 14.976 10.288 27.952 0 6.848 0.72 12.8 1.616 13.344s1.264 4.336 0.72 8.48c-0.72 4.864-0.368 7.936 1.088 8.832 1.808 0.896 1.616 1.984-0.544 4.144-1.616 1.44-2.88 5.584-2.88 9.2 0 3.424-0.896 6.848-2.16 7.568-1.264 0.896-1.44 0.544-0.544-1.088 1.088-1.616 0.72-1.984-0.72-1.088-1.264 0.896-1.808 2.352-1.44 3.6 0.544 1.088-0.176 4.512-1.616 7.392-1.808 3.968-2.16 4.144-1.44 1.088s0.368-3.968-1.264-3.424c-1.44 0.544-2.352 1.984-2.16 3.424 0.368 3.792-16.96 17.856-21.824 17.856-2.352 0-4.688 1.264-5.408 2.704-0.544 1.44-2.16 2.704-3.6 2.704s-6.496 1.984-11.36 4.336c-4.688 2.528-14.784 5.408-22.192 6.496s-16.592 2.528-20.384 3.072c-3.6 0.544-7.76 0.176-9.024-0.896-1.088-0.896-7.76-2.352-14.784-3.072-9.92-1.088-13.344-2.16-16.592-5.584-2.16-2.352-4.336-4.336-4.864-4.336-1.616 0-17.312-16.24-17.312-17.856 0-0.896-1.264-1.984-2.704-2.704-1.44-0.544-2.704-2.352-2.704-3.968s-1.984-4.864-4.512-7.216c-2.528-2.352-4.512-5.776-4.512-7.936 0-1.984-0.72-3.6-1.808-3.6-0.896 0-1.808-1.088-1.808-2.528s-1.088-3.792-2.352-5.056c-1.44-1.264-3.072-5.584-3.792-9.552s-2.16-10.816-2.88-15.328c-2.352-12.272-2.16-53.2 0.368-58.624 1.088-2.528 2.704-4.512 3.6-4.512 0.72 0 1.44-1.616 1.44-3.6 0-4.336 3.792-12.624 5.776-12.624 0.72 0 1.44-1.616 1.44-3.6 0-1.808 1.088-4.144 2.352-4.864 1.44-0.72 3.968-3.792 5.952-6.848 5.056-7.936 20.208-22.544 23.264-22.544 1.44 0 2.704-0.72 2.704-1.616s1.984-2.16 4.512-2.704c2.528-0.72 4.512-1.984 4.512-2.88 0-1.088 1.984-1.808 4.512-1.808s4.512-0.72 4.512-1.808c0-0.896 3.248-2.352 7.216-2.88 3.968-0.72 7.216-1.808 7.216-2.704s1.984-1.616 4.336-1.616c2.352 0 5.232-1.264 6.496-2.704s3.6-2.704 5.408-2.704c1.808 0 5.584-1.264 8.304-2.704 3.424-1.808 10.464-2.704 20.928-2.704 8.656 0 16.24-0.72 16.768-1.808 1.44-2.16 16.592-2.352 17.856-0.176 0.544 0.72 6.32 1.984 12.8 2.528s13.344 1.984 15.152 3.072c1.984 0.896 7.040 1.984 11.36 2.16 4.144 0.176 6.672 0.544 5.408 1.088-6.32 1.984 3.248 7.568 13.168 7.568 3.424 0 6.32 0.72 6.32 1.808 0 0.896-1.264 1.264-2.704 0.72-1.44-0.72-2.704-0.176-2.704 0.896s1.264 1.984 2.88 1.984c3.248 0 11.728 6.128 11.536 8.48 0 0.72 1.264 2.88 2.704 4.688 1.44 1.616 2.704 3.968 2.704 4.864 0 1.088 0.72 1.808 1.616 1.808s2.352 1.808 2.88 3.968c0.72 1.984 3.248 5.584 5.584 7.76s4.336 4.688 4.336 5.584 1.984 3.792 4.512 6.496c2.352 2.528 4.864 6.848 5.584 9.376 0.544 2.528 1.808 4.688 2.704 4.688s1.616 0.896 1.616 1.984 1.264 3.072 2.704 4.512c1.44 1.616 2.704 4.512 2.704 6.848 0 2.16 1.088 5.056 2.352 6.32 3.072 3.072 3.072 69.44 0 75.568-1.264 2.352-2.352 8.112-2.352 12.8 0 5.408-0.544 7.392-1.616 5.776-1.264-1.984-1.808-1.44-2.88 1.808-0.72 2.352-2.528 5.232-3.792 6.672-1.44 1.264-2.528 3.6-2.528 5.056s-0.72 2.528-1.808 2.528c-0.896 0-1.808 1.984-1.808 4.336s-1.264 4.688-2.704 5.408c-1.44 0.544-2.704 2.16-2.704 3.792s-1.984 4.688-4.512 7.040c-2.528 2.352-4.512 4.688-4.512 5.232 0 1.616-11.008 12.080-12.8 12.080-0.896 0-1.616 1.264-1.616 2.704s-0.896 2.704-1.808 2.704c-1.088 0-4.864 2.88-8.48 6.32s-7.216 6.32-7.936 6.32-3.792 2.528-6.672 5.408c-3.072 3.072-5.952 5.408-6.672 5.408-1.984 0-12.624 11.36-12.080 13.168 0.176 0.72-0.368 0.896-1.44 0.368-1.264-0.72-2.528 0.368-3.072 2.528s-1.808 3.792-2.704 3.792c-2.352 0-6.848 4.688-6.848 7.040 0 1.088-1.088 1.984-2.16 1.984-1.264 0-4.144 2.352-6.32 5.056-2.16 2.88-6.128 7.392-8.656 10.096s-3.968 5.952-3.424 7.040c0.72 1.264 0.72 1.616-0.176 0.896-1.44-1.44-4.144 2.352-7.936 10.64-0.896 1.984-2.704 4.336-3.6 5.056-1.088 0.544-1.984 3.072-1.984 5.408s-0.72 4.512-1.616 4.864c-0.896 0.368-2.16 4.336-2.88 8.832-1.264 8.304-1.264 8.304 4.512 9.552 6.128 1.088 14.432-0.176 14.432-2.528 0-0.72 1.984-1.984 4.512-2.528 2.528-0.72 4.512-1.984 4.512-2.88 0-1.088 1.088-1.808 2.528-1.808s2.88-0.896 3.248-1.984c1.088-3.248 14.432-5.232 20.016-2.88 4.864 2.16 7.040 6.128 2.352 4.336-1.808-0.72-2.16 0.176-1.616 2.88s0.368 3.248-0.72 1.616c-1.264-1.616-2.528-1.264-5.408 1.808-2.16 2.352-6.32 6.496-9.376 9.376-3.968 3.792-5.584 6.848-5.584 11.184 0 3.248-0.72 6.496-1.808 7.040-0.896 0.544-1.808 4.336-1.808 8.304 0 3.792-0.72 7.040-1.808 7.040-3.424 0-9.024 6.32-9.024 10.288 0 2.16-0.72 4.512-1.808 5.056-0.896 0.544-1.808 4.864-1.808 9.552 0 5.408-0.544 7.568-1.616 6.128-1.984-3.248-3.792 1.264-3.792 10.096 0 4.512-0.544 5.952-1.616 4.144-1.088-1.616-1.984 0.544-2.88 6.848-0.72 5.056-1.808 9.2-2.704 9.2-0.72 0-1.808 3.424-2.352 7.76-0.544 4.144-3.072 11.728-5.584 16.592-2.528 5.056-4.688 10.096-4.688 11.36 0 2.528-1.616 2.704-5.776 0.176zM259.072 404.48c-0.544-1.808-0.896-0.72-0.896 2.16 0 3.072 0.368 4.336 0.896 3.248 0.368-1.264 0.368-3.792 0-5.408zM278.912 195.264c-0.72-0.544-1.808-0.544-2.528 0-0.544 0.72 0 1.264 1.264 1.264s1.808-0.544 1.264-1.264zM275.12 189.312c0-1.984-1.264-2.88-2.88-2.704-1.44 0.368-3.248 0.72-3.968 0.72-0.896 0.176-1.44 1.088-1.44 2.16 0 0.896 0.896 1.264 1.808 0.72 1.088-0.544 1.808-0.368 1.808 0.544s1.088 1.616 2.352 1.616c1.264 0 2.352-1.44 2.352-3.072zM279.44 180.288c0-0.896-0.896-1.808-1.984-1.808-0.896 0-1.264 0.896-0.72 1.808 0.544 1.088 1.44 1.808 1.984 1.808 0.368 0 0.72-0.72 0.72-1.808zM231.472 157.568c1.808-6.496-0.176-7.568-4.864-2.704-2.16 2.16-3.072 3.792-2.16 3.6 3.968-0.544 5.232 0.368 2.704 1.984-2.352 1.44-2.352 1.808 0.176 1.808 1.808 0 3.6-1.984 4.144-4.688zM302.896 25.168c0-0.896-0.368-1.808-0.72-1.808-0.544 0-1.44 0.896-1.984 1.808-0.544 1.088-0.176 1.808 0.72 1.808 1.088 0 1.984-0.72 1.984-1.808z"></path>
<path fill="#fff" d="M491.008 380.32c-5.232-3.968-9.552-7.936-9.552-8.656 0-0.896-1.808-1.984-3.968-2.704-2.352-0.544-6.496-3.072-9.376-5.584s-5.952-4.512-7.040-4.512c-0.896 0-3.248-1.984-5.232-4.512s-4.688-4.512-6.128-4.512-2.528-1.088-2.528-2.352c0-1.44-1.984-3.6-4.512-4.864s-4.512-3.424-4.512-4.864c0-1.264-1.264-2.352-2.704-2.352s-2.704-0.72-2.704-1.808c0-0.896-1.984-2.16-4.512-2.88-2.528-0.544-4.512-1.808-4.512-2.704s-1.984-1.616-4.336-1.616c-2.352 0-5.232-1.264-6.496-2.704-1.44-1.616-5.408-2.704-10.096-2.704-4.336 0-7.936-0.72-7.936-1.616s-1.808-2.352-3.968-3.072c-2.352-0.72-4.512-1.616-5.056-2.352-2.352-2.88-12.8-7.392-17.312-7.392-7.040 0-16.96-3.968-16.96-6.672 0-2.16 5.952-3.248 12.272-2.528 1.088 0.176 2.16-0.544 2.16-1.616s1.264-3.248 2.704-4.688c1.44-1.616 2.704-3.968 2.704-5.232 0-3.248-5.056-8.112-8.304-8.112-1.44 0-2.528-0.72-2.528-1.616 0-1.088-3.072-1.984-6.672-2.352-5.584-0.368-7.040-1.264-7.392-4.688-0.368-2.352 0.544-4.512 2.16-5.056s2.88-2.88 2.88-5.232 1.264-4.512 2.704-5.232 2.704-2.352 2.704-3.968c0-1.616 1.984-4.864 4.512-7.216s4.512-5.056 4.512-6.128c0-0.896 1.264-1.808 2.704-1.808s2.704-1.088 2.704-2.352c0-1.264 1.616-3.248 3.6-4.512 3.248-1.984 4.336-1.616 8.832 2.88 2.88 2.704 5.584 6.848 6.32 9.024s2.16 3.968 3.072 3.968c0.896 0 1.616 0.72 1.616 1.616 0 2.704 9.552 12.8 12.080 12.8 1.264 0 2.352-1.984 2.352-4.512 0-5.232 6.32-11.728 10.464-10.464 3.248 0.896 9.376 12.272 9.376 17.312 0 1.616 0.896 3.072 1.808 3.072 1.088 0 1.808 1.088 1.808 2.352s2.528 4.864 5.408 8.112c3.072 3.248 5.408 6.672 5.408 7.76 0 0.896 0.896 1.616 1.808 1.616 1.088 0 1.808 1.984 1.808 4.336s1.264 5.232 2.704 6.496c1.44 1.264 2.704 3.792 2.704 5.584 0 1.616 1.264 4.336 2.704 5.952 1.44 1.44 2.704 3.424 2.704 4.512s0.896 1.984 1.808 1.984c1.088 0 1.808 1.984 1.808 4.336 0 2.528 1.264 5.584 2.704 7.216 1.44 1.44 2.704 3.072 2.704 3.792 0 0.544 1.984 2.88 4.336 5.056s4.864 6.672 5.408 9.744c0.72 3.248 3.248 7.392 5.776 9.376 2.352 1.808 4.336 4.336 4.336 5.408s0.896 1.984 1.808 1.984c1.088 0 1.808 1.616 1.808 3.6 0 3.792 5.952 10.816 9.024 10.816 1.088 0 1.808 1.264 1.808 2.704 0 1.616 1.616 2.704 4.512 2.704 3.6 0 4.512 0.896 4.512 4.512 0 7.040-7.936 5.776-19.296-2.88z"></path>
<path fill="#fff" d="M1.68 377.968c0-2.88 0.896-4.688 2.704-4.688 1.616 0 2.704-1.616 2.704-4.512s1.088-4.512 2.704-4.512c1.44 0 2.704-1.44 2.704-3.072 0-4.336 22.912-49.6 25.616-50.688 0.896-0.368 1.44-2.704 1.44-5.056s0.72-4.336 1.44-4.336c1.984 0 7.568-12.8 7.568-17.312 0-1.808 1.264-5.056 2.704-6.848 1.44-1.984 2.704-7.040 2.704-11.36 0-9.376 2.352-9.92 10.464-2.352 3.248 3.072 7.392 5.408 9.024 5.408 3.248 0 9.376-5.952 9.376-8.832 0-0.896 1.088-2.88 2.528-4.336 2.704-2.528 8.304-17.488 8.304-21.824 0-5.776 5.952-4.512 13.168 2.528 4.144 3.968 8.112 7.216 8.832 7.216 0.896 0 1.44 1.264 1.44 2.704 0 1.616 1.616 2.704 4.512 2.704s4.512 1.088 4.512 2.704c0 1.44 1.264 2.704 2.88 2.704 1.44 0 2.352 0.72 1.616 1.616-0.544 0.896 0.368 2.88 1.808 4.336 1.44 1.616 2.704 4.144 2.704 5.584 0 1.616 1.088 2.352 2.528 1.808s3.072 0 3.968 1.264c0.72 1.44 0.544 1.808-0.72 0.896-1.984-1.264-9.744 5.056-8.304 6.672 0.544 0.544-2.528 0.896-6.496 0.896-5.584 0.176-8.48 1.264-11.728 4.688-2.352 2.528-5.584 4.688-7.040 4.688-9.92 0-10.816 5.952-1.984 14.976 6.496 6.672 7.936 12.624 4.144 16.24-2.88 2.704-20.928 12.080-23.44 12.080-4.144 0-26.688 10.816-26.688 12.992 0 0.72-1.088 1.44-2.528 1.44s-3.792 1.088-5.056 2.352c-1.264 1.088-4.688 3.424-7.568 4.864s-6.672 4.864-8.112 7.568c-1.616 2.88-3.424 5.056-4.144 5.056-0.896 0-1.44 1.264-1.44 2.704 0 1.616-1.616 2.704-4.512 2.704-2.528 0-4.512 0.72-4.512 1.616s-1.616 1.984-3.792 2.528c-2.16 0.544-3.424 1.808-2.88 2.528 0.544 0.896-1.264 2.528-4.336 3.6-3.968 1.616-4.864 1.44-3.968 0 0.72-1.264-0.176-1.088-1.808 0.368-2.704 2.16-3.072 1.984-3.072-2.352z"></path>
<path fill="#fff" d="M135.696 276.432c0.72-0.544 1.808-0.544 2.528 0 0.544 0.72 0 1.264-1.264 1.264s-1.808-0.544-1.264-1.264z"></path>
<path fill="#fff" d="M140.752 274.8c0-1.984 0.544-2.528 1.088-1.088 0.544 1.264 0.368 2.88-0.176 3.424-0.544 0.72-1.088-0.368-0.896-2.352z"></path>
</svg>
