<!-- Generated by IcoMoon.io -->
<svg version="1.1" xmlns="http://www.w3.org/2000/svg" width="512" height="512" viewBox="0 0 512 512">
<title>twists-orientation</title>
<path fill="#fff" d="M251.36 510c0-1.088-1.28-3.104-2.736-4.56-1.456-1.632-2.736-5.104-2.736-7.84s-2-9.296-4.56-14.4c-2.544-5.28-4.56-10.56-4.56-11.664 0-1.28-1.28-4-2.736-5.824-1.456-2-2.736-5.104-2.736-6.736 0-1.824-0.736-3.456-1.824-3.824-0.912-0.176-2-2.192-2.368-4.192-1.28-5.824-5.648-15.488-6.928-15.488-0.736 0-1.824-2.368-2.544-5.28-0.544-2.912-2.368-6.384-3.824-7.472-1.28-1.28-2-3.104-1.456-4 0.736-1.088 0.176-2.544-1.088-3.28-1.824-1.088-1.456-2.368 1.632-5.648 2-2.192 3.824-5.28 3.824-6.736 0-1.824 1.456-2.368 4.736-1.632 5.472 0.912 8.016-3.648 6.736-12.576-0.544-3.28 0-6.384 1.088-6.928 2.544-1.632 2.736-10.208 0.176-10.208-0.912 0-1.824-0.912-1.824-2 0-1.28-1.456-3.28-3.104-4.56-1.824-1.28-2.368-2.544-1.28-2.544 2.192 0 2.192-6.384 0-8.56-0.736-0.912-1.28-0.544-1.088 0.368 1.456 7.104 0.176 8.192-11.12 8.192-7.296 0-12.928 1.088-16.4 3.104-4.736 2.736-5.28 4.192-5.28 11.84 0 8.384-0.176 8.752-5.28 8.752-3.104 0-6.016-0.736-6.56-1.824-0.544-0.912-3.104-1.824-5.648-1.824s-8.928-2.368-14.4-5.472c-5.472-2.912-11.12-5.472-12.752-5.472-1.456 0-6.016-2-10.016-4.56s-9.664-4.56-12.576-4.56c-2.912 0-5.648-1.088-6.384-2.736-0.544-1.456-2.192-2.736-3.648-2.736s-2.912-0.736-3.28-1.632c-0.176-0.912-5.104-1.824-10.56-2.192s-11.472-1.632-13.488-2.736c-1.824-1.28-4.56-1.824-6.016-1.28-2 0.736-2.544 0-2-2.368 0.368-2 2.368-3.648 5.104-4.192 2.544-0.176 4.912-1.088 5.472-1.824 2-3.104 13.84-7.472 19.856-7.472 3.648 0 8.192-1.28 10.016-2.736 2-1.456 5.824-2.736 8.56-2.736s5.648-0.736 6.192-1.824c0.544-0.912 3.104-1.824 5.28-1.824 2.368 0 5.28-1.28 6.56-2.736s4.016-2.736 6.192-2.736c2.192 0 5.648-1.28 7.648-2.736 1.824-1.456 5.28-2.736 7.648-2.736 2.192 0 4.016-0.736 4.016-1.824 0-0.912 3.648-1.824 8.016-1.824 5.472 0 8.384-0.912 9.104-2.736 0.544-1.456 2.192-2.736 3.824-2.736 2.192 0 2.736 2.368 2.736 11.12 0 13.84 2.192 18.032 9.104 18.032 3.104 0 5.472-0.736 5.472-1.824 0-0.912 2-1.824 4.56-1.824s4.56 0.912 4.56 1.824c0 1.088 1.632 1.824 3.648 1.824 1.824 0 4.368 1.456 5.28 3.28 1.632 2.736 1.824 2.736 2-0.736 0-2.192-1.28-4.912-2.736-6.192-2.192-1.824-2.736-6.736-2.736-22.416 0-11.12 0.544-19.488 1.28-18.768 0.736 0.544 1.088 9.664 0.736 20.048-0.368 16.4 0 18.944 2.736 20.048 2.192 0.912 2.544 0.544 1.28-1.088-0.912-1.28-1.456-11.664-1.28-22.768 0.176-11.296-0.368-20.048-1.28-19.488s-1.632 0.176-1.632-0.912c0-0.912 1.088-2.192 2.368-2.544 1.28-0.544 0.912-1.088-0.912-1.088-2.736-0.176-3.28-2-3.28-12.384 0.176-6.928 0.912-20.592 2-30.608s2.192-33.712 2.544-52.464c0.736-28.96 0.368-34.432-1.824-35.168-1.456-0.736-2.736-2.192-2.736-3.648s-1.28-2.544-2.736-2.544c-1.456 0-2.736-0.736-2.736-1.632s-2.912-0.176-6.384 1.28c-3.456 1.632-6.384 3.456-6.384 4.192 0 2.368-9.104 10.752-11.664 10.752-1.456 0-3.28 0.912-3.824 2-0.736 0.912-3.28 2.544-5.648 3.456-2.544 1.088-4.368 3.28-4.368 5.472 0 2-0.736 3.648-1.824 3.648-0.912 0-4.368 2.736-7.648 6.192-3.648 3.648-7.104 5.824-8.192 5.104-1.456-0.912 0-2.368 3.648-4.016 3.104-1.28 4.736-2.736 3.456-3.28-3.648-1.088-2.368-6.56 2.368-10.208 2.912-2.192 4.56-5.28 4.56-8.56 0-2.912 0.912-5.28 1.824-5.28 1.088 0 1.824-1.456 1.824-3.456 0-1.824 2-4.912 4.56-6.736 2.368-1.824 4.912-5.648 5.472-8.384 0.736-2.736 1.824-5.104 2.544-5.104 2 0 7.472-10.384 7.472-14.4 0-2.192 0.912-3.824 1.824-3.824 1.088 0 1.824-1.632 1.824-3.456 0-2 1.28-4.736 2.736-6.384 1.456-1.456 2.736-3.456 2.736-4.368s1.28-2.736 2.736-4c1.456-1.28 2.736-4 2.736-6.016s2-5.472 4.56-7.84c2.544-2.368 4.56-5.28 4.56-6.56s1.28-4 2.736-5.824c1.456-2 2.736-5.104 2.736-6.736 0-1.824 0.736-3.456 1.632-3.824 2.192-0.736 12.928-21.504 12.928-24.96 0-1.824 0.736-3.824 1.632-4.912 0.912-0.912 2-4.56 2.368-8.016 0.368-3.824 1.456-6.192 2.912-5.824 1.456 0.176 2.192-1.824 2.192-6.016 0-11.12 7.104-6.928 10.016 6.016 0.544 3.28 2 5.824 2.912 5.824s1.632 1.824 1.632 4.192c0 2.192 3.28 10.56 7.296 18.576s7.296 15.488 7.296 16.576c0 1.088 1.28 3.104 2.736 4.368s2.736 4.192 2.736 6.56 0.736 4.368 1.632 4.368c0.896 0 2.192 2.912 2.736 6.384 0.736 3.456 2 6.384 2.736 6.384 0.912 0 2 3.104 2.736 6.928 0.544 3.824 2.544 8.56 4.368 10.56s4 6.192 4.56 9.472c0.736 3.28 2.544 7.28 4 8.752 1.456 1.632 2.192 3.648 1.632 4.56-0.544 1.088 0.544 2.368 2.368 2.736 2.544 0.736 3.456 2.368 3.104 6.384-0.176 2.912 0.368 5.28 1.28 5.28s1.632 2 1.632 4.368c0 2.544 1.28 5.648 2.736 7.296 1.456 1.456 2.736 3.104 2.736 3.824s1.28 2.368 2.736 3.824c1.456 1.632 2.736 4.368 2.736 6.384 0 1.824 0.736 3.456 1.632 3.456s2.192 2 2.736 4.56c0.736 2.544 2 4.56 2.912 4.56 1.088 0 1.824 2 1.824 4.56 0 2.912 1.088 4.56 2.736 4.56 1.456 0 2.736 1.088 2.736 2.368 0 1.632-1.824 2.192-5.472 1.632-2.912-0.368-5.472-1.456-5.472-2.368s-1.088-1.632-2.368-1.632c-1.28 0-3.824-2.192-5.824-4.912s-5.104-6.384-6.736-8.192c-1.824-1.824-3.28-3.824-3.28-4.368 0-2-11.664-11.664-14.032-11.664-1.28 0-2.368-0.736-2.368-1.824 0-0.912-1.088-1.824-2.368-1.824-1.456 0-4.56-1.632-6.928-3.824-2.368-2-6.384-5.472-8.928-7.472-3.104-2.368-3.456-3.28-1.28-2.544 2 0.736 2.912 0.368 2.192-0.912-1.088-1.632-11.12-1.088-12.928 0.736-0.544 0.368 0 2.912 1.088 5.648 0.912 2.736 2 10.384 2.192 17.12 0 6.736 0.736 13.12 1.456 14.032 1.632 2.368 4.192 29.872 3.824 42.448-0.176 5.472 0.544 10.752 1.456 12.032 1.28 1.456 2 18.224 2 43.536l0.176 41.36 4.736 3.648c2.544 2 5.824 3.648 7.104 3.648 1.456 0 2.544 0.912 2.544 1.824 0 1.088 4.912 1.824 10.928 1.824 13.84 0 17.856-3.28 18.576-15.856 0.544-8.192 0.912-8.752 5.104-8.192 2.544 0.368 5.824 1.824 7.472 3.28 1.456 1.456 3.824 2.544 4.912 2.544 1.28 0 2.192 0.736 2.192 1.456 0 0.912 5.472 2.736 12.032 4 8.016 1.632 10.928 2.912 8.752 3.648-3.104 1.088-3.104 1.456 0.544 3.28 2.192 1.28 5.824 2.192 8.192 2.192s5.104 0.736 6.192 1.632c2 1.824 19.488 7.472 23.136 7.472 1.456 0 5.104 1.28 7.84 2.736 2.912 1.456 9.84 2.736 15.296 2.912 5.472 0 8.928 0.544 7.84 1.088-1.28 0.368-2.368 2-2.368 3.456 0 1.632 0.912 2.192 1.824 1.632 1.088-0.544 1.824-0.176 1.824 0.736 0 1.088-2.736 2-6.192 2s-6.928 0.912-7.472 1.824c-0.544 1.088-3.456 1.824-6.56 1.824-6.016 0-27.696 7.104-28.608 9.296-0.368 0.912-2.368 1.632-4.368 1.632-2.192 0-6.384 2-9.472 4.368s-7.472 4.736-9.664 5.472c-2.368 0.736-4.192 2.192-4.192 3.104s-1.28 1.632-2.736 1.632c-1.456 0-2.736 0.736-2.736 1.824 0 0.912-2 2.192-4.56 2.912-2.544 0.544-4.56 1.824-4.56 2.544s-1.632 1.824-3.824 2.368c-2.192 0.544-3.456 1.632-2.912 2.544 0.544 0.736-1.088 1.632-3.648 1.632-3.648 0.368-4.368-0.368-3.648-3.28 1.088-3.824-1.824-14.208-4-14.208-0.736 0-4.192-2.368-7.472-5.472-5.648-5.104-7.104-5.472-20.4-5.472s-14.752 0.368-18.768 4.736c-8.016 8.56-5.472 22.96 4 24.96 2.736 0.544 6.928 2.736 9.104 4.736 2.192 2.192 4.736 3.824 5.472 3.824 0.912 0 1.824 2.544 2 5.472 0.176 3.104-0.368 5.472-1.456 5.472-0.912 0-1.28-1.456-0.736-3.104 0.368-1.824-0.176-1.28-1.456 1.28-1.28 2.368-4.192 6.384-6.384 8.752s-4.56 6.016-5.104 7.84c-0.736 2-2 3.456-2.912 3.456s-1.632 1.824-1.632 4c0 5.104-5.648 20.224-8.016 21.856-1.28 0.912-1.824 7.472-1.456 16.944 0.368 11.296 0 15.488-1.456 14.576-1.28-0.736-1.824-2.736-1.28-4.56 0.368-1.824 0.176-4.368-0.736-5.648-1.088-1.632-1.632 0-1.632 5.104 0 6.928-4.56 18.944-7.648 20.224-0.912 0.368-1.456 2.736-1.456 5.104 0 2.736-1.088 4.368-2.736 4.368-1.456 0-2.736-0.912-2.736-2zM241.712 364.976c-0.544-1.824-0.912-0.736-0.912 2.192 0 3.104 0.368 4.368 0.912 3.28 0.368-1.28 0.368-3.824 0-5.472zM265.568 346.384c0.368-6.928-0.368-12.384-1.632-14.032-2.192-2.736-11.84-3.648-12.928-1.088-0.176 0.736-2.912 2.544-5.824 4-8.928 4.56-9.84 7.84-4.016 15.488 6.016 7.84 10.56 9.84 18.224 8.384 5.472-1.28 5.648-1.456 6.192-12.752zM232.592 350.4c-0.544-1.824-0.912-0.736-0.912 2.192 0 3.104 0.368 4.368 0.912 3.28 0.368-1.28 0.368-3.824 0-5.472zM284.704 353.488c-0.544-2-1.632-3.104-2.544-2.544-2.544 1.456-1.824 6.192 0.912 6.192 1.632 0 2.192-1.28 1.632-3.648zM220.384 352.768c0-0.544-0.736-1.456-1.824-2-0.912-0.544-1.824-0.176-1.824 0.736 0 1.088 0.912 2 1.824 2 1.088 0 1.824-0.368 1.824-0.736zM280.512 346.208c0-0.912-0.736-1.824-1.824-1.824-0.912 0-1.824 0.912-1.824 1.824 0 1.088 0.912 1.824 1.824 1.824 1.088 0 1.824-0.736 1.824-1.824zM226.4 343.104c-1.28-0.368-3.824-0.368-5.472 0-1.824 0.544-0.736 0.912 2.192 0.912 3.104 0 4.368-0.368 3.28-0.912zM358.304 317.6c-0.736-0.544-1.824-0.544-2.544 0-0.544 0.736 0 1.28 1.28 1.28s1.824-0.544 1.28-1.28zM308.032 136.144c-2.736-2.736-3.824-0.912-2.544 4.016 0.912 3.824 1.28 3.824 2.912 1.088 1.088-2 0.912-3.824-0.368-5.104zM226.944 137.232c-1.824-2-3.456-1.28-4.016 1.824-0.368 2.736 0 2.912 2.192 1.088 1.456-1.088 2.192-2.544 1.824-2.912z"></path>
<path fill="#fff" d="M158.448 177.856c0-3.824 3.824-5.648 5.472-2.736 0.912 1.28 1.088 3.104 0.736 3.824-1.632 2.544-6.192 1.632-6.192-1.088z"></path>
<path fill="#fff" d="M171.2 162.192c0-1.28 0.544-1.824 1.28-1.28 0.544 0.736 0.544 1.824 0 2.544-0.736 0.544-1.28 0-1.28-1.28z"></path>
<path fill="#fff" d="M317.68 134.496c-0.736-1.28-0.544-1.456 0.736-0.736s2.192 1.632 2.192 2.192c0 1.456-1.632 0.736-2.912-1.456z"></path>
<path fill="#fff" d="M312.032 126.304c0.736-0.544 1.824-0.544 2.544 0 0.544 0.736 0 1.28-1.28 1.28s-1.824-0.544-1.28-1.28z"></path>
</svg>
