<!-- Generated by IcoMoon.io -->
<svg version="1.1" xmlns="http://www.w3.org/2000/svg" width="512" height="512" viewBox="0 0 512 512">
<title>twists-psychology</title>
<path fill="#fff" d="M211.056 510.192c0.544-0.896 0.368-1.808-0.72-1.808-0.896 0-3.248-2.336-5.056-5.408-3.072-5.408-6.848-7.024-8.112-3.424-1.088 3.072-9.92-1.264-11.36-5.584-0.72-2.16-0.368-4.864 0.72-5.952 2.336-2.336 2.704-22.176 0.368-23.616-0.72-0.544-1.984-6.304-2.704-12.976-0.72-6.496-2.16-12.976-3.424-14.416-4.144-4.688-5.952-7.024-7.216-9.728-3.424-7.568-19.648-25.232-23.072-25.232-0.896 0-3.072-0.72-4.864-1.808-1.616-0.896-7.024-3.424-11.712-5.408s-8.112-4.512-7.568-5.408c0.72-1.088-1.984-1.808-6.128-1.808s-7.392-0.72-7.392-1.808c0-0.896-2.16-1.808-4.688-1.808-2.704 0-8.832-2.336-13.696-5.408-4.688-2.88-9.552-5.408-10.464-5.408-1.088 0-1.808-0.72-1.808-1.808 0-0.896-1.616-1.808-3.424-1.808s-3.792-1.264-4.512-2.704c-1.088-3.072-15.504-3.968-15.504-0.896 0 1.088-1.984 1.808-4.512 1.808-3.248 0-4.512-0.896-4.512-3.424 0-3.072 3.424-11.904 7.024-18.208 2.352-4.144 5.776-18.032 6.848-27.040 0.368-4.512 1.44-9.728 2.336-11.712s1.984-22.176 2.336-44.896c0.544-25.232 1.616-41.648 2.704-42.368 1.088-0.544 2.528-12.976 3.248-28.128 0.544-14.96 1.808-27.76 2.528-28.848 0.72-0.896 1.808-5.056 2.336-9.008 1.808-14.784 5.056-30.64 6.848-32.272 0.896-1.088 1.616-3.792 1.616-6.128s1.088-6.496 2.528-9.008c3.792-7.392 6.128-13.344 7.216-18.752 0.72-2.88 1.984-5.056 2.88-5.056 1.088 0 1.808-1.088 1.808-2.336 0-4.512 42.368-48.128 46.88-48.128 1.088 0 1.808-0.896 1.808-1.984 0-2.88 5.584-6.848 9.552-7.024 1.808 0 3.6-1.264 4.144-2.704 0.72-1.808 2.336-2.352 4.512-1.808 2.16 0.72 3.792 0.176 4.512-1.616 0.544-1.616 3.072-2.88 5.408-2.88 2.704 0 4.32-1.088 4.32-2.704s1.616-2.704 3.792-2.704c1.984 0 4.864-1.264 6.304-2.704 1.616-1.44 4.32-2.704 6.304-2.704 1.808 0 3.424-0.72 3.424-1.808 0-2.16 115.744-2.528 120.432-0.176 1.616 0.72 6.304 3.072 10.272 4.864 9.728 4.512 25.056 13.696 25.776 15.504 0.368 0.72 1.44 1.44 2.336 1.44s3.248 1.44 5.056 3.248c10.464 9.552 12.624 11.184 15.328 11.184 1.616 0 2.88 0.72 2.88 1.616s3.072 3.6 6.848 5.776c8.48 5.408 12.976 9.2 12.976 11.184 0 0.896 1.984 4.144 4.512 7.392 2.528 3.424 4.512 8.288 4.512 11.536s0.72 5.776 1.616 5.776 2.16 2.704 2.88 5.776c1.44 7.568 6.848 20.736 13.344 32.096 6.304 11.184 9.552 27.584 10.464 54.8 0.544 14.24 0.176 21.808-1.264 22.72-1.088 0.72-2.16 11.36-2.528 28.128-0.72 26.144-0.176 35.696 2.336 34.256 0.544-0.368 1.44 4.144 1.616 10.272 0.368 5.952 1.808 12.624 3.248 14.608s2.528 5.056 2.528 6.848c0 1.616 1.984 6.848 4.512 11.536s4.512 9.552 4.512 10.816c0 1.44 1.088 2.528 2.336 2.528s2.528 2.336 2.704 5.408c0.368 3.792-0.368 5.408-2.336 5.408-1.808 0-2.704 1.808-2.704 5.408 0 6.128-5.056 15.328-10.64 19.104-1.984 1.44-3.792 4.144-3.968 5.776 0 1.808-0.544 2.16-1.088 0.896-0.544-1.616-2.704-1.088-7.392 1.984-3.6 2.16-8.112 4.512-9.92 5.232s-2.88 1.808-2.528 2.528c0.544 0.896-3.968 1.616-10.096 1.616-6.304 0.176-11.36 1.088-11.712 2.336-0.368 1.088-1.808 1.984-3.424 1.984-10.992 0-33.712 25.232-27.76 31.184 3.072 3.072 2.528 8.656-0.72 7.392-1.616-0.72-2.704 0-2.704 1.616 0 1.44-0.544 3.072-1.264 3.424-2.704 1.088-7.76 14.24-7.76 19.472 0 3.072-0.72 5.408-1.44 5.408-3.072 0-9.92 34.976-9.376 48.32 0.176 8.832-2.704 12.976-9.552 12.976-3.248 0-6.848-0.896-8.112-2.16-1.616-1.616-3.248-1.44-6.672 0.368-3.792 1.984-5.408 1.984-8.112 0.368-1.984-1.088-6.672-2.704-10.816-3.248-3.968-0.72-7.76-1.984-8.288-2.704-0.544-0.896-7.76-1.616-16.224-1.616s-14.96 0.72-14.416 1.44c0.544 0.896 0 1.616-1.264 1.616-1.264 0.176-9.92 0.72-19.296 1.088-9.376 0.544-17.664 1.088-18.384 1.088-0.544 0.176-2.16 3.072-3.248 6.496-1.616 4.864-3.072 6.304-6.496 6.304-2.528 0-3.968-0.72-3.424-1.808zM228.192 486.4c0-3.792-3.072-7.392-5.056-6.128-2.528 1.44-0.544 8.288 2.528 8.288 1.44 0 2.528-1.088 2.528-2.16zM305.712 486.752c2.16-1.44 1.984-1.808-1.264-1.808-2.336 0-4.144 0.896-4.144 1.808 0 2.336 1.984 2.336 5.408 0zM291.472 479.008c-1.808-1.616-1.984-1.44-0.896 1.088 0.544 1.808 1.616 2.704 2.16 2.16s0-1.984-1.264-3.248zM310.4 480.624c3.6-3.6 3.248-4.688-1.808-4.688-3.424 0-4.144 0.72-3.424 3.6 1.088 4.32 1.808 4.512 5.232 1.088zM299.76 470.352c0.176-3.424 0.176-3.6-0.72-0.72-0.544 1.984-1.808 4.32-3.072 5.056-1.264 1.088-1.088 1.264 0.72 0.72 1.44-0.368 2.88-2.528 3.072-5.056zM317.072 467.472c-1.264-0.368-3.424-0.368-4.512 0-1.264 0.544-0.368 0.896 2.16 0.896s3.424-0.368 2.336-0.896zM305.712 466.208c0-0.544-0.896-1.44-2.16-2.16s-1.44-0.544-0.72 0.72c1.264 2.16 2.88 2.88 2.88 1.44zM303.36 444.032c-0.72-0.544-1.808-0.544-2.528 0-0.544 0.72 0 1.264 1.264 1.264s1.808-0.544 1.264-1.264zM307.52 438.080c1.44-2.704 1.44-3.6-0.544-3.6-1.264 0-2.336 1.616-2.336 3.6s0.176 3.6 0.544 3.6c0.176 0 1.264-1.616 2.336-3.6zM303.36 435.008c0-1.808-0.896-4.32-1.984-5.776-1.616-2.16-1.44-2.336 1.264-1.44 1.984 0.72 2.88 0.544 2.16-0.544-0.544-1.088-1.984-1.808-3.072-1.808s-3.424-1.808-5.232-3.968c-2.704-3.072-3.424-6.672-3.424-18.928 0-8.112-0.72-14.96-1.616-14.96s-1.984-2.16-2.528-4.864c-0.544-2.88-1.984-8.48-3.248-12.624-2.16-7.216-2.16-7.76 2.528-12.432 5.232-5.232 5.952-7.024 3.072-8.832-0.896-0.544-1.808-4.512-1.808-8.48 0-13.696-5.408-26.32-14.416-33.712-4.512-3.6-10.096-8.288-12.624-10.464-2.528-2.336-5.056-4.144-5.776-4.144-0.896 0-1.44-1.264-1.44-2.704s-1.264-2.704-2.704-2.704c-3.072 0-9.376-3.248-13.168-6.672-1.264-1.264-3.248-2.336-4.144-2.336s-3.968-1.984-6.672-4.512c-2.704-2.528-5.952-4.512-7.216-4.512s-2.704-1.264-3.248-2.704c-0.72-1.44-2.16-2.704-3.6-2.704s-2.528-0.72-2.528-1.808c0-0.896-1.088-1.808-2.528-1.808s-3.792-1.088-5.056-2.336c-1.264-1.264-3.6-2.88-5.056-3.6-5.408-2.528-10.096-5.952-16.592-12.432-3.792-3.792-7.568-6.848-8.656-6.848-0.896 0-1.808-0.72-1.808-1.616s-1.808-2.336-3.968-3.072c-4.688-1.44-23.072-19.104-23.072-22.176 0-1.088-0.72-1.984-1.616-1.984s-2.336-1.808-3.072-3.968c-0.72-2.336-1.808-4.512-2.336-5.056-2.336-1.616-4.864-26.864-2.88-27.76 0.896-0.368 0.368-0.896-1.264-0.896-4.144-0.176-4.32-8.48-0.544-15.68 1.44-2.88 2.704-8.288 2.704-11.904 0-3.792 0.72-6.848 1.616-6.848s1.984-3.248 2.704-7.216c0.544-3.968 1.984-7.216 2.88-7.216 1.088 0 1.808-1.44 1.808-3.248 0-1.616 1.984-5.232 4.512-7.936s4.512-6.128 4.512-7.76c0-1.616 1.264-3.248 2.704-3.792 1.44-0.72 2.704-2.16 2.704-3.6s0.896-2.528 1.808-2.528c2.336 0 12.624-10.272 12.624-12.624 0-0.896 1.088-1.264 2.528-0.72 1.264 0.544 3.6-0.176 5.056-1.616s4.32-3.248 6.496-3.792c2.336-0.72 3.424-2.16 2.88-3.248-0.72-1.264-0.368-1.44 0.72-0.72s3.424-0.368 5.232-2.528c1.808-1.984 5.056-3.6 7.216-3.6 2.336 0 4.144-0.72 4.144-1.808s4.864-1.808 10.816-1.808c8.288 0 10.992-0.72 12.432-3.248 0.896-1.616 2.16-2.88 2.704-2.528 0.544 0.176 7.216 0.368 14.608 0.368 10.096 0 13.168-0.544 12.432-2.352-0.544-1.616 1.088-2.16 6.496-1.616 3.968 0.368 7.76 1.44 8.288 2.352s8.112 1.616 17.12 1.616c9.2 0 16.048 0.72 16.048 1.808 0 0.896-1.44 1.264-3.072 0.72-3.072-0.72 0.368 0.896 10.272 5.232 7.936 3.6 25.232 17.12 22.896 18.032-1.616 0.72-1.616 1.44-0.176 2.528 1.088 0.72 2.528 3.248 3.248 5.584 0.72 2.16 2.16 3.968 3.072 3.968s1.616 1.088 1.616 2.528c0 1.44 1.44 5.232 3.072 8.656 1.616 3.248 3.6 7.392 4.512 9.008 1.984 4.32 1.808 29.744-0.176 31.184-0.896 0.544-2.336 3.6-3.072 6.672-0.544 3.248-2.16 7.392-3.248 9.376-3.072 5.408-23.44 25.6-22 21.808 1.088-3.072 0.896-3.248-1.984-0.72-4.144 3.6-15.68 8.832-19.104 8.832-1.616 0-3.424 0.72-3.968 1.808-1.44 2.16-22 2.336-23.264 0.176-0.544-0.72-3.248-1.984-5.952-2.704-2.88-0.544-6.496-2.16-8.288-3.6-3.248-2.528-3.248-2.88-0.368-9.008 1.984-4.144 4.32-6.496 6.672-6.496 1.808 0 5.776-2.16 8.832-5.056 6.304-5.952 10.272-23.616 7.024-32.096-2.336-6.128-18.928-22.352-23.072-22.528-2.528 0-2.528-0.368 0.544-1.808 2.528-1.088 0-1.44-8.112-0.72-6.496 0.544-11.904 1.808-12.256 2.704-0.368 1.088-2.16 1.808-3.968 1.808-1.616 0-4.144 1.264-5.408 2.704s-3.424 2.704-4.688 2.704c-1.44 0-2.528 0.896-2.528 1.808 0 1.088-1.088 1.808-2.16 1.808-2.88 0-13.344 9.552-20.736 19.104-4.144 5.232-5.952 9.552-5.952 13.888 0 3.424-1.088 6.672-2.16 7.216-1.616 0.368-2.336 5.232-2.336 15.68s0.72 15.328 2.336 15.872c1.088 0.368 2.16 2.336 2.16 4.32 0 3.6 8.288 15.872 10.816 15.872 0.72 0 4.32 2.88 8.112 6.304 3.6 3.6 7.216 5.952 7.76 5.584 0.544-0.544 1.984 0.544 3.424 2.528 1.264 1.808 5.232 3.968 8.656 4.688 3.6 0.544 6.848 1.808 7.392 2.704s3.072 1.616 5.776 1.616c2.704 0 6.496 1.264 8.288 2.704 1.984 1.44 6.128 2.704 9.376 2.704s6.304 0.72 7.024 1.616c1.264 2.336 22.176 2.16 23.44 0 0.72-0.896 3.072-1.616 5.584-1.616s4.864-1.264 5.408-2.704c0.72-1.808 3.6-2.704 8.832-2.704 4.688 0 8.48-1.088 9.92-2.704 1.264-1.44 3.792-2.704 5.584-2.704 1.984 0 3.424-0.72 3.424-1.808 0-0.896 1.264-1.808 2.704-1.808s2.704-1.264 2.704-2.704c0-1.44 1.264-2.704 2.704-2.704s2.704-0.544 2.704-1.44c0-0.72 2.88-2.88 6.304-4.688 3.424-1.984 6.304-4.32 6.304-5.408s2.528-3.072 5.408-4.32c3.248-1.44 5.408-3.792 5.408-5.776 0-1.808 0.72-3.968 1.808-4.512 0.896-0.544 3.072-4.144 4.512-7.76 1.616-3.6 4.144-9.008 5.408-12.080 2.88-6.496 7.024-35.696 7.024-50.48 0-14.96-3.968-37.136-7.024-40.56-1.44-1.616-2.704-3.968-2.704-5.056 0-1.264-0.72-2.16-1.808-2.16-0.896 0-1.808-1.264-1.808-2.704 0-3.424-24.16-27.952-33.36-33.712-16.4-10.272-28.672-15.872-34.976-15.872-3.792 0-7.76-1.088-9.008-2.352-3.072-3.072-78.608-2.88-81.664 0.176-1.264 1.264-5.232 2.16-8.832 2.16s-9.728 1.44-13.52 3.072c-3.968 1.616-8.112 2.88-9.2 2.528-1.264-0.176-2.336 0.368-2.336 1.264 0 1.088-1.984 2.352-4.512 2.88-2.528 0.72-4.512 1.984-4.512 2.88 0 1.088-1.616 1.808-3.792 1.808-4.688 0-10.64 3.248-10.64 5.776 0 1.088-1.984 3.792-4.512 6.128s-4.512 4.688-4.512 5.408-1.808 2.88-4.144 5.056c-4.864 4.512-15.68 21.28-15.68 24.16 0 1.264-0.72 2.16-1.808 2.16-0.896 0-2.16 1.984-2.88 4.512-0.544 2.528-1.808 4.512-2.704 4.512s-1.616 1.984-1.616 4.32c0 2.336-1.264 4.688-2.704 5.408-1.616 0.544-2.704 3.424-2.704 7.392 0 3.424-0.72 6.304-1.44 6.304s-2.704 5.408-4.512 12.256c-3.424 13.344-4.32 46.336-1.264 48.128 1.088 0.72 1.44 1.808 1.088 2.528-3.072 4.864 12.256 38.032 17.664 38.032 0.544 0 6.672 5.584 13.52 12.624 7.024 6.848 13.344 12.624 14.24 12.624s7.76 5.952 15.152 13.168c14.96 14.416 39.296 28.304 49.76 28.304 3.072 0 5.776 0.72 5.776 1.616s-1.808 1.264-3.968 0.544c-2.528-0.544-3.424-0.368-2.528 1.088 0.72 1.264 2.704 2.16 4.512 2.16s4.32 1.264 5.584 2.704 3.248 2.704 4.512 2.704c1.44 0 2.704 0.544 3.072 1.44 0.368 0.72 3.968 3.6 8.288 6.304s8.112 6.128 8.832 7.568c0.544 1.44 1.808 2.704 3.072 2.704 1.088 0 3.424 5.056 5.232 11.36 1.984 6.128 3.792 12.432 4.32 13.888s1.264 7.216 1.44 12.624c0.368 9.728 0.368 9.92-4.512 10.096-3.6 0.176-4.864-0.544-4.144-2.16 0.544-1.44-0.368-2.528-1.984-2.528s-2.88 1.264-2.88 2.704c0 1.44-0.72 2.704-1.808 2.704-0.896 0-1.808 1.808-1.808 4.144s-0.896 5.056-1.984 6.128c-1.616 1.616-1.616 4.32-0.176 9.92 2.16 9.2 1.44 24.704-1.264 29.92-2.528 4.864-2.528 11.712 0.176 14.416 2.88 2.88 23.44 2.704 30.832-0.176 7.76-3.072 11.36-2.704 10.64 1.088-0.368 2.16 1.088 3.424 5.056 4.144 2.88 0.72 5.408 1.808 5.408 2.704s0.72 1.616 1.44 1.616c0.896 0 1.616-1.44 1.616-3.072zM298.496 385.792c0-0.896-0.72-1.808-1.808-1.808-0.896 0-1.808 0.896-1.808 1.808 0 1.088 0.896 1.808 1.808 1.808 1.088 0 1.808-0.72 1.808-1.808zM303.552 371.2c0.544-2.16 0.368-2.16-1.088 0-1.088 1.44-2.704 1.808-3.968 1.088-1.616-0.896-1.984-0.72-1.088 0.72 1.808 2.704 5.056 1.808 6.128-1.808zM303.36 364.88c-0.544-0.544-2.16-0.72-3.424-0.176-1.44 0.544-0.896 1.088 1.088 1.088 1.984 0.176 3.072-0.368 2.336-0.896zM193.040 355.152c0.544-1.984 3.072-4.144 5.584-4.688 2.336-0.544 4.32-2.16 4.32-3.6s1.264-2.528 2.704-2.528c1.44 0 2.704-0.72 2.704-1.44 0-0.896 1.984-2.528 4.512-3.6 2.704-1.264 4.512-3.6 4.512-5.776 0-1.984 1.088-3.424 2.336-3.072 3.424 0.544 3.968-13.888 0.544-17.312-1.616-1.616-2.88-3.6-2.88-4.688 0-0.896-3.792-2.336-8.48-2.88-10.096-1.264-18.928-4.32-20.736-7.024-0.896-1.264-1.984-1.264-3.6 0.368-2.88 2.88-10.464 2.704-13.888-0.368-9.008-7.936-23.616-12.624-26.32-8.288-0.544 1.088-3.072 1.808-5.232 1.808-2.704 0-5.952 2.16-8.832 6.128-4.144 5.232-4.688 7.76-4.688 19.648 0 11.36 0.72 14.24 3.968 18.208 2.336 2.528 5.408 4.688 7.216 4.688 1.616 0 3.072 0.896 3.072 1.808 0 1.088 1.808 1.808 4.144 1.808 2.16 0 5.584 1.264 7.392 2.704 1.984 1.44 4.864 2.704 6.672 2.704 1.616 0 5.408 1.264 8.112 2.704 2.88 1.44 7.024 2.704 9.376 2.704 2.16 0 3.968 0.896 3.968 1.808 0 1.088 2.704 1.808 6.128 1.808 4.688 0 6.496-0.896 7.392-3.6zM363.408 345.952c3.424-1.44 6.672-2.88 7.216-3.424 0.896-0.896 10.464-5.584 20.368-9.728 12.976-5.584 16.592-7.568 19.648-10.464 1.808-1.808 3.248-3.968 3.248-4.688s2.336-2.704 5.056-4.32c4.688-2.88 5.056-3.792 4.512-11.712-0.544-5.232-2.704-11.712-5.584-16.224-3.968-6.304-5.776-7.76-10.272-7.76-2.88 0.176-7.024 1.264-8.832 2.704-1.984 1.44-5.776 2.704-8.656 2.704-2.704 0-5.056 0.896-5.056 1.808 0 1.088-2.88 1.808-6.496 1.808-6.496 0-21.28 5.776-23.264 9.008-0.544 0.896-3.424 1.808-6.304 1.808s-5.584 0.72-6.128 1.616c-0.544 0.72-4.32 1.984-8.288 2.704-3.968 0.544-7.216 1.984-7.216 2.88 0 1.088-1.44 1.808-3.072 1.808-4.864 0-11.36 8.832-11.36 15.68 0 7.392 5.408 17.856 12.080 23.44 4.512 3.6 6.672 4.144 18.576 3.6 7.392-0.368 16.4-1.808 19.824-3.248zM103.792 270.064c0-0.72-1.616-1.44-3.6-1.44-3.792 0-4.32 1.44-2.336 6.496 1.088 2.88 1.264 2.88 3.6-0.368 1.264-1.808 2.336-3.792 2.336-4.688z"></path>
</svg>
