<!-- Generated by IcoMoon.io -->
<svg version="1.1" xmlns="http://www.w3.org/2000/svg" width="512" height="512" viewBox="0 0 512 512">
<title>weapons-mace</title>
<path fill="#fff" d="M205.872 180.64c2.048-2.048 5.296-3.76 9.744-5.136l4.112-1.536c3.088-0.688 4.976-2.32 5.648-4.88s-0.688-4.88-4.112-6.928l-6.672-4.624c-17.104-11.968-30.352-20.352-39.76-25.136s-17.024-9.744-22.832-14.88c1.024-2.384 3.072-3.248 6.16-2.56 14.032 1.36 34.72 1.712 62.080 1.024h23.6c4.8 0 7.696-2.56 8.72-7.696 2.384-7.184 4.272-15.552 5.648-25.136 0.688-5.472 1.712-13.856 3.072-25.136l0.512-6.16c1.36-7.52 3.072-19.152 5.136-34.88 0.688-2.048 2.048-5.12 4.096-9.232l2.048-3.072 1.536 2.56c4.112 7.856 6.496 13.84 7.184 17.952 2.048 9.584 6.832 21.712 14.368 36.416 2.048 4.112 4.784 9.92 8.208 17.44 1.36 2.4 2.736 3.856 4.096 4.368s3.248 0.096 5.648-1.28l0.512-0.512c0.688-0.336 1.024-0.688 1.024-1.024 3.76-3.776 10.080-8.896 18.976-15.392 6.496-5.136 11.456-9.056 14.88-11.792 5.136-4.784 9.568-9.568 13.344-14.368 2.048-3.088 5.808-7.008 11.28-11.792l2.048-2.048c11.28-10.592 19.84-18.464 25.648-23.6 1.712-1.712 3.072-2.048 4.096-1.024 0.688 0.336 1.024 1.536 1.024 3.584-1.712 3.088-3.584 7.872-5.648 14.368-2.736 8.224-5.296 14.032-7.696 17.44-8.896 15.056-16.080 31.632-21.552 49.76l-7.696 24.112c-3.088 9.584 0.336 14.368 10.256 14.368h46.688c2.736 0 6.656-0.688 11.792-2.048l6.672-1.536c4.448-0.336 7.952 0 10.512 1.024s5.2 3.072 7.952 6.16c-3.424 2.048-8.384 5.12-14.88 9.232-7.184 4.8-12.816 8.208-16.928 10.256-17.44 7.856-33.68 16.576-48.736 26.16-4.784 2.736-5.808 7.024-3.072 12.832l13.344 22.576c5.472 10.608 11.12 20.176 16.928 28.736 1.36 2.384 2.048 4.96 2.048 7.696 0 1.712-0.336 4.112-1.024 7.184s-1.024 5.216-1.024 6.416c0 1.2-0.608 1.888-1.792 2.048s-2.48-0.080-3.84-0.768l-7.184-3.584c-7.168-3.088-12.144-6-14.88-8.72-5.472-5.136-14.528-11.456-27.184-18.976-7.52-4.448-13.168-8.032-16.928-10.768-1.376-1.36-2.912-2.048-4.624-2.048-3.088-1.024-5.392-0.944-6.928 0.256s-1.792 3.328-0.768 6.416c0.688 2.048 1.376 5.12 2.048 9.232l1.536 7.184c1.024 2.736 0.848 4.624-0.512 5.648l-1.536 1.536c-3.088 3.424-5.568 5.488-7.44 6.16s-3.344 0-4.368-2.048l-0.512-0.512c-2.048-3.76-6.672-8.208-13.856-13.344l-1.536-1.024c-3.088-1.712-5.568-2.384-7.44-2.048s-4.016 1.888-6.416 4.624c-5.808 7.856-13.856 20-24.112 36.416l-7.184 11.792c-1.376 1.712-1.888 3.936-1.536 6.672 0 1.712 0.512 4.272 1.536 7.696 1.36 5.136 1.616 8.368 0.768 9.744s-3.68 3.072-8.464 5.136l-6.672 3.072c-6.832 3.088-11.632 5.648-14.368 7.696-4.784 3.776-8.032 8.384-9.744 13.856-0.688 2.736-2.912 6.32-6.672 10.768l-1.536 1.536c-8.208 10.608-18.144 25.824-29.76 45.664-1.36 2.4-3.76 5.808-7.184 10.256-4.8 6.16-8.032 10.944-9.744 14.368-2.736 5.808-7.872 14.192-15.392 25.136-5.136 7.168-8.896 12.656-11.28 16.416-5.808 9.584-15.568 23.6-29.248 42.064l-1.024 2.048c-1.024 1.376-1.888 2.4-2.56 3.072s-1.616 0.592-2.816-0.256c-1.2-0.848-1.616-1.712-1.28-2.56s1.2-1.968 2.56-3.328l1.536-2.048c2.736-4.112 6.656-10.080 11.792-17.952l7.184-10.256c0.688-0.688 1.024-1.2 1.024-1.536l0.512-1.536c0.688-1.36 1.104-2.56 1.28-3.584s-0.432-2.048-1.792-3.072c-1.36-1.024-2.48-1.28-3.328-0.768s-1.968 1.616-3.328 3.328l-0.512 0.512c-2.384 2.384-4.784 4.096-7.184 5.136-4.8 1.024-9.072 3.584-12.832 7.696-1.024 2.384-2.912 3.072-5.648 2.048-1.376-0.688-2.048-2.224-2.048-4.624v-1.024l7.184-24.624c1.36-3.088 1.2-5.136-0.512-6.16-2.736-1.024-4.96 0-6.672 3.072 0 0.688-0.512 1.536-1.536 2.56-1.36 2.048-3.072 2.816-5.136 2.304s-4.112-0.256-6.16 0.768c-1.36 0.336-3.072 1.2-5.136 2.56l-3.072 2.048c-2.384 1.712-4.272 1.872-5.648 0.512-1.024-0.688-1.456-1.536-1.28-2.56s0.768-2.048 1.792-3.072c2.736-3.088 6.144-8.208 10.256-15.392 3.088-5.824 5.472-9.92 7.184-12.32 3.424-4.448 7.024-8.032 10.768-10.768 3.088-2.048 6.848-6.672 11.28-13.856l2.56-4.096c4.448-7.52 11.968-18.624 22.576-33.344 7.856-11.28 13.68-19.824 17.44-25.648 9.584-15.056 16.944-25.824 22.064-32.32 6.496-9.232 7.008-18.64 1.536-28.208-1.024-2.048-1.28-3.68-0.768-4.88s1.632-2.656 3.328-4.368c2.384-2.048 6.496-3.072 12.32-3.072 8.56 0 16.080-3.76 22.576-11.28 10.256-13.68 18.304-26.336 24.112-37.968 1.376-2.736 3.088-7.36 5.136-13.856l0.512-1.536c0.336-2.384-0.336-4.432-2.048-6.16-5.136-6.16-10.768-10.432-16.928-12.832-0.336 0-1.024-0.336-2.048-1.024zM221.776 252.976c-4.448-0.688-7.36 0.688-8.72 4.112-0.336 1.024-1.2 1.872-2.56 2.56l-1.536 1.536c-2.736 2.736-4.288 4.784-4.624 6.16s0.512 3.776 2.56 7.184c0.336 1.024 1.376 2.576 3.072 4.624l2.048 2.048c1.712 2.048 3.92 3.408 6.672 4.096 1.712 0.336 4.096 0.688 7.184 1.024h3.584c1.712 0 2.896-0.848 3.584-2.56 0.688-1.024 1.376-3.088 2.048-6.16l1.024-3.072c1.712-3.088 1.712-6.672 0-10.768-1.376-6.832-6.16-10.432-14.368-10.768zM233.568 240.672c0-2.4-1.376-3.584-4.112-3.584-1.712 0-2.992 0.176-3.84 0.512s-1.12 1.36-0.768 3.072c0.336 2.736 2.048 3.936 5.136 3.584 1.024 0 1.888-0.336 2.56-1.024s1.024-1.536 1.024-2.56zM270.512 101.136c-0.336-1.376-0.688-2.224-1.024-2.56s-1.024-0.336-2.048 0c-3.088 0.688-4.624 2.576-4.624 5.648 0 2.048 1.2 3.072 3.584 3.072 2.736-1.024 4.096-3.072 4.096-6.16z"></path>
</svg>
