<!-- Generated by IcoMoon.io -->
<svg version="1.1" xmlns="http://www.w3.org/2000/svg" width="512" height="512" viewBox="0 0 512 512">
<title>weapons-unarmed</title>
<path fill="#fff" d="M45.28 309.184c-0.304-1.168-1.488-1.616-3.536-1.328l-0.448 0.448 0.448 0.88h0.448c1.168 0.304 2.208 0.304 3.088 0zM380.256 225.76c0-2.368-1.472-4.128-4.416-5.296-1.472 0-2.496 0.288-3.088 0.88 0 1.168 0.512 2.576 1.552 4.192s2.144 2.72 3.312 3.312c1.776 0 2.656-1.024 2.656-3.088zM333.472 297.712c0-0.88-0.592-1.92-1.76-3.088-1.472 0-2.496 0.88-3.088 2.656 0.88 1.472 2.208 2.208 3.968 2.208 0.592-0.304 0.88-0.88 0.88-1.76zM210.336 277.408c1.472 1.472 2.8 2.208 3.968 2.208l0.88-0.88c-0.88-3.536-3.232-6.176-7.056-7.952-0.288 0.304-0.512 0.96-0.656 1.984s0.368 2.128 1.552 3.312zM66.016 169.712c7.648 3.824 16.624 7.216 26.928 10.144 5.888 2.064 14.864 4.56 26.928 7.504 10.288 2.64 17.936 4.704 22.944 6.176 1.76 0.592 3.376 0.288 4.848-0.88h4.848c-0.592-2.352-1.92-4.128-3.968-5.296-1.168-0.88-3.088-1.776-5.744-2.64-3.824-1.168-6.48-2.496-7.936-3.968-6.768-2.352-13.824-5.744-21.184-10.144-4.416-2.352-10.736-6.48-18.976-12.352l-4.416-3.088c-3.824-2.352-9.856-5.6-18.096-9.712-2.944-1.168-5.664-1.248-8.16-0.224s-4.48 3.008-5.952 5.952c-2.064 4.416-2.352 7.952-0.88 10.592 1.168 3.536 4.112 6.176 8.832 7.936zM311.408 54.976c0.592 1.776 1.472 4.72 2.656 8.832l0.448 3.088c0 1.472 0.448 3.088 1.328 4.848l0.88 6.624c0.88 5.888 1.472 10.304 1.76 13.232v1.76c0.592 9.12 0 17.792-1.76 26.032l-0.448 0.88c-0.304 1.472-0.752 2.496-1.328 3.088 0.304 0.576 0.304 1.456 0 2.64l-0.88 3.968c-0.88 2.064-1.328 4.416-1.328 7.056v2.64l0.448 2.64c0.592 1.168 1.328 1.76 2.208 1.76h0.448l0.88 1.76v-2.208l1.328-1.328c0.288-1.168 0.448-2.944 0.448-5.296v-6.624l1.76-8.832c0.304-0.592 1.040-1.472 2.208-2.64 0.304-0.288 0.304-0.736 0-1.328v-0.448c0-4.704 1.184-11.472 3.536-20.304 1.168-4.704 1.904-8.24 2.208-10.592l1.328-5.296c1.168-5.008 1.616-8.688 1.328-11.040l-0.448-3.536c0.576-1.472 1.024-3.232 1.328-5.296v-3.088l0.88-1.76c0.88-2.048 1.168-4.256 0.88-6.624-0.304-1.472-1.040-3.52-2.208-6.176 0-0.304-0.432-0.88-1.328-1.76s-1.328-1.616-1.328-2.208v-1.328c-0.288-1.168-0.592-1.984-0.88-2.432s-1.024-0.672-2.208-0.656c-2.352 0-4.048 0.368-5.072 1.104s-2.128 1.84-3.312 3.312l-0.88 0.88-1.76 3.536-1.76 2.656c-2.064 1.472-2.352 3.68-0.88 6.624-0.592 0.592-0.736 1.168-0.448 1.76zM258 312.704c1.472 4.416 4.56 8.32 9.264 11.696s9.264 4.928 13.68 4.64c0.592 0 1.328-0.288 2.208-0.88l0.88-0.448c1.472-0.592 2.576-1.472 3.312-2.656s0.96-2.208 0.656-3.088c-0.304-0.88-0.88-1.904-1.76-3.088l-0.88-0.88c-4.112-5.296-11.184-9.568-21.184-12.8-1.168-0.592-2.64-0.288-4.416 0.88l-1.328 0.88c-0.592 0.288-0.88 1.104-0.88 2.432s0.144 2.432 0.448 3.312zM361.712 284.464c1.472-0.88 2.944-2.352 4.416-4.416l3.536-7.056c0.592-0.592 1.328-1.776 2.208-3.536l1.328-2.208c1.472-2.352 3.68-6.176 6.624-11.472 3.536-5.008 6.032-9.712 7.504-14.128s2.064-7.952 1.76-10.592c0.304-4.416-0.592-8.016-2.656-10.816s-5.744-4.928-11.040-6.4l-1.328-0.448c-2.048-0.304-3.536-0.736-4.416-1.328-1.776-0.592-3.024-1.68-3.744-3.312s-2.72-3.168-5.952-4.64l-2.656-1.328c-3.824-2.352-7.648-5.232-11.472-8.608s-7.792-9.2-11.92-17.44c-2.064-5.296-5.296-9.12-9.712-11.472-4.112-2.064-8.832-2.944-14.128-2.64-9.424 0-18.544 2.944-27.36 8.832-0.592 0.304-1.168 0.736-1.76 1.328l-5.296 1.76-3.088 0.448c-3.536 0.88-6.176 1.76-7.952 2.64h-1.328c-3.536-0.592-7.216-0.432-11.040 0.448-2.64 0.592-6.32 1.616-11.040 3.088l-4.416 1.328c-10.88 2.944-21.92 7.504-33.104 13.68-1.472 0.88-3.68 1.696-6.624 2.432s-5.152 1.552-6.624 2.432l-9.264 5.744c-12.944 8.544-22.96 14.416-30.016 17.648l-4.416 1.76c-2.64 1.168-4.416 2.048-5.296 2.64l-33.104 19.424c-13.824 7.936-23.968 14.272-30.448 18.976-1.76 1.168-4.256 2.784-7.504 4.848-5.296 2.944-9.12 5.44-11.472 7.504-5.008 4.112-11.616 8.832-19.856 14.128-2.352 1.776-5.44 4.56-9.264 8.384-2.656 2.656-4.704 4.56-6.176 5.744-0.592 0.592-0.96 1.392-1.104 2.432s0.064 1.84 0.656 2.432l0.448 0.448c0.576 0.592 1.024 1.104 1.328 1.552s1.328 1.104 3.088 1.984l1.328 0.448c2.64 1.472 4.992 1.92 7.056 1.328s4.256-1.904 6.624-3.968c2.064-0.592 3.68-1.472 4.848-2.656 0-0.288 0.288-0.736 0.88-1.328h6.624c1.776 0 3.248 0.224 4.416 0.656s2.128 1.392 2.864 2.864c0.736 1.472 0.944 2.8 0.656 3.968l-3.536 4.416c-4.112 5.296-7.504 8.976-10.144 11.040-1.168 1.472-3.088 3.392-5.744 5.744l-3.088 3.088c-1.776 1.472-3.68 3.392-5.744 5.744l-1.328 1.328c-3.232 2.64-4.848 5.44-4.848 8.384v1.76l-5.744 18.544c-2.352 5.296-3.68 9.568-3.968 12.8 0 0.592-0.144 0.88-0.448 0.88l-2.64 5.296c-2.064 3.824-2.944 6.624-2.64 8.384-2.944 8.832-5.44 15.312-7.504 19.424l-4.416 11.472c-0.88 2.352-1.408 4.784-1.552 7.28s0.224 3.888 1.104 4.192v0.448h0.88c4.112-1.168 6.768-4.416 7.936-9.712 0.592-3.232 1.392-5.808 2.432-7.728s2.72-4.496 5.072-7.728l4.416-7.056c0.88-1.168 2.288-2.784 4.192-4.848s3.312-3.68 4.192-4.848c2.944-2.656 7.952-6.032 15.008-10.144 2.352-0.88 4.416-2.064 6.176-3.536l0.88-0.88c9.424-6.176 22.8-12.048 40.16-17.648 7.056-2.352 11.696 0.288 13.904 7.952s3.312 16.048 3.312 25.152v2.208c-0.304 1.776-0.368 3.168-0.224 4.192s0.816 1.84 1.984 2.432h0.448l2.208 0.88c1.472 0 2.496-0.144 3.088-0.448 1.168-0.304 2.208-1.328 3.088-3.088l0.448-0.88c1.168-2.352 1.92-4.112 2.208-5.296l0.448-2.208c1.76-5.008 3.088-8.688 3.968-11.040l5.744-9.712 7.936-13.248c1.168-1.776 2.864-4.432 5.072-7.952s3.904-6.032 5.072-7.504l1.328-3.536c5.6-8.24 10.736-14.848 15.44-19.856 2.352-2.352 5.6-6.176 9.712-11.472l4.416-3.968c2.64-2.368 4.56-4.272 5.744-5.744l0.88-0.448c2.064-1.168 3.536-2.944 4.416-5.296l1.76-4.848c0.592-0.88 0.88-1.776 0.88-2.656s-0.288-2.064-0.88-3.536c-1.472-3.232-3.232-7.936-5.296-14.128l-3.968-10.592c-0.304-1.168-0.448-2.048-0.448-2.656l1.328-2.208c1.472-0.88 2.864-1.040 4.192-0.448s2.288 1.472 2.864 2.656c1.168 2.352 3.376 5.6 6.624 9.712 4.416 5.296 7.056 9.712 7.936 13.248 1.168 4.704 3.152 7.936 5.952 9.712s6.688 2.352 11.696 1.76c5.584-0.592 10.592-1.904 15.008-3.968l3.536-2.208c2.64-1.776 4.704-2.944 6.176-3.536 2.064-0.88 3.968-0.736 5.744 0.448 2.944 2.048 7.728 4.416 14.336 7.056s11.392 4.848 14.336 6.624c4.704 2.944 8.528 6.48 11.472 10.592 3.824 5.312 7.664 8.032 11.472 8.16s8.672-1.84 14.56-5.952l0.88-0.88c2.352-1.776 4.128-3.248 5.296-4.416l1.76-1.328c3.232-3.232 5.584-5.888 7.056-7.952 1.472-1.472 2.352-2.8 2.656-3.968 1.168-2.368 1.616-3.968 1.328-4.848s-1.456-2.496-3.536-4.848c-0.304-0.304-0.752-0.88-1.328-1.76l-0.88-1.328c-4.704-6.176-9.856-12.208-15.44-18.096-1.776-2.064-5.296-4.72-10.592-7.952-2.944-1.776-5.008-3.088-6.176-3.968-2.64-1.76-4.112-3.376-4.416-4.848s0.576-3.536 2.656-6.176c0.88-0.88 1.776-2.352 2.656-4.416s1.616-3.536 2.208-4.416c1.776-3.232 1.92-5.744 0.448-7.504-1.776-2.352-2.8-5.008-3.088-7.936-0.288-2.064-0.448-5.008-0.448-8.832v-2.64c0-4.112 0.448-6.768 1.328-7.936 2.064-2.064 5.584-3.68 10.592-4.848l0.448 5.296c0.576 6.176 0.576 10.88 0 14.128l-0.448 1.328c-1.472 2.352-1.776 4.848-0.88 7.504 0 6.176 1.776 10.592 5.296 13.248 2.064 2.64 4.56 3.968 7.504 3.968 2.352 0.592 4.272 0.88 5.744 0.88h11.472c2.944 0 4.704 0.592 5.296 1.76s0.288 2.8-0.88 4.848l-4.848 4.848c-1.168 1.168-2.064 3.312-2.656 6.4s-0.304 5.232 0.88 6.4c0.304 2.064 1.12 4.032 2.432 5.952s3.312 4.192 5.952 6.848c2.64 2.064 4.624 3.312 5.952 3.744s2.288 0.656 2.864 0.656c0.592 0 1.328-0.288 2.208-0.88zM372.752 221.36c0.304-0.592 1.328-0.88 3.088-0.88 2.944 0.88 4.416 2.496 4.416 4.848s-0.88 3.536-2.656 3.536c-1.168-0.592-2.272-1.68-3.312-3.312s-1.552-3.024-1.552-4.192zM214.752 278.288c0 0.592-0.448 0.88-1.328 0.88s-2.064-0.736-3.536-2.208l-0.88-0.88c-1.76-1.472-2.496-2.8-2.208-3.968l0.448-1.76c4.704 1.776 7.2 4.432 7.504 7.952zM41.296 308.304l0.448-0.448c1.472-0.304 2.656 0.144 3.536 1.328-0.304 0.304-0.88 0.304-1.76 0h-1.76zM329.056 296.816c0-1.472 1.024-2.368 3.088-2.656l0.448 0.88c0.592 0.88 0.88 1.696 0.88 2.432s-0.288 1.248-0.88 1.552-1.248 0.224-1.984-0.224c-0.736-0.448-1.248-1.104-1.552-1.984zM279.184 354.64c-2.944-1.776-6.624-5.008-11.040-9.712-5.296-5.584-9.712-9.12-13.248-10.592-2.64-0.88-3.68-2.352-3.088-4.416 0-0.304 0.144-0.592 0.448-0.88 0.592-0.88 1.168-2.064 1.76-3.536l0.448-0.88c0.88-0.88 1.328-2.064 1.328-3.536l-11.040-13.248c-1.472-2.064-3.392-2.64-5.744-1.76-0.88 0.592-1.328 1.76-1.328 3.536v0.88c-0.592 1.168-0.144 3.232 1.328 6.176l1.328 3.088c0.88 3.232 0.88 5.44 0 6.624-0.304 0.88-0.88 1.328-1.76 1.328s-2.192-0.592-3.968-1.76c-6.176-2.64-14.112-2.944-23.84-0.88-3.232 0.576-8.080 2.352-14.56 5.296-4.704 2.048-8.384 3.536-11.040 4.416-0.304 0-0.592 0.448-0.88 1.328l-1.76 2.208 2.64-0.448 0.448 0.448c0.88 0.592 1.616 0.88 2.208 0.88h1.76c2.064 0 3.536-0.144 4.416-0.448 6.768-2.944 13.968-3.68 21.632-2.208 5.888 1.168 12.8 3.824 20.736 7.952l2.208 1.328c8.24 4.416 14.112 8.096 17.648 11.040 1.168 1.168 3.088 2.8 5.744 4.848l2.656 2.208c5.008 5.008 8.24 9.12 9.712 12.352 4.704 8.224 6.624 17.344 5.744 27.36l-2.656 12.352c-1.472 4.704-3.536 9.856-6.176 15.44l-1.328 2.208c-7.056 10.288-13.088 17.648-18.096 22.064-0.304 0-0.592 0.224-0.88 0.656s-0.288 0.96 0 1.552l0.88 0.448c1.472 0 2.656-0.288 3.536-0.88s1.92-1.168 3.088-1.76c7.648-4.112 14.112-9.408 19.424-15.888l2.656-2.656 2.656-3.088c2.064-2.064 3.536-4.272 4.416-6.624l0.448-1.76c1.168-2.352 2.192-4.848 3.088-7.504l1.76-3.536c0.88-1.776 1.328-3.248 1.328-4.416v-6.624c0.304-6.176 0.304-10.88 0-14.128-0.592-5.008-1.92-9.344-3.968-13.024s-4.848-9.2-8.384-16.544zM150.752 145.888c1.168 10 7.2 16.768 18.096 20.304 2.064 0.88 5.152 1.76 9.264 2.64l1.76 0.448 8.832 1.328c10.88 1.76 21.632 1.76 32.224 0 1.76 0 4.704-0.592 8.832-1.76 11.168-3.824 21.184-9.568 30.016-17.216 0.88-0.592 1.92-1.616 3.088-3.088l3.968-3.968c2.352-2.064 4.048-3.68 5.072-4.848s1.536-2.496 1.552-3.968v-2.208l0.88-1.76c0.592-1.168 1.168-2.944 1.76-5.296v-0.448h0.448c1.776-3.824 2.944-8.544 3.536-14.128 0.304-3.536 0-7.36-0.88-11.472-0.304-2.656-1.184-6.32-2.656-11.040l-1.76-7.056-0.448-2.64c0-2.048-0.288-3.536-0.88-4.416-3.232-5.888-8.080-11.632-14.56-17.216-1.168-0.592-2.048-0.432-2.656 0.448-0.288 0.304-0.448 0.736-0.448 1.328s0.448 1.328 1.328 2.208c0 0.592 0.144 1.328 0.448 2.208l0.448 0.448c4.704 5.584 7.488 13.392 8.384 23.392-0.304 1.76-0.304 3.088 0 3.968 0 0.304 0.144 0.592 0.448 0.88 0.592 12.944-2.064 24.864-7.952 35.744-4.416 5.584-8.096 9.856-11.040 12.8-4.704 4.416-9.712 7.792-15.008 10.144-14.432 6.176-27.232 9.12-38.4 8.832h-10.144c-3.536 0.304-8.24-0.576-14.128-2.64l-3.088-0.88c-2.944-1.168-5.232-2.656-6.848-4.416s-2.576-4.128-2.864-7.056c-0.304-1.168-1.248-2.416-2.864-3.744s-2.576-1.408-2.864-0.224l-0.88 0.448c-0.88 0.88-1.040 1.616-0.448 2.208 0 0.592 0.144 1.168 0.448 1.76zM378.048 192.672c0.592 0.288 1.616 1.024 3.088 2.208 2.352 1.472 4.112 2.496 5.296 3.088 2.064 0.88 4.112 1.168 6.176 0.88 4.112 1.76 8.544 3.088 13.248 3.968 7.952 1.472 15.664 1.248 23.168-0.656s14.192-5.664 20.080-11.248l0.88-0.88c1.472-1.472 2.368-2.656 2.656-3.536s0.448-2.352 0.448-4.416v-2.64c-1.776 0.88-4.128 2.144-7.056 3.744s-5.136 2.72-6.624 3.312l-1.76 0.88c-1.472 0.88-2.656 1.184-3.536 0.88-2.64-0.304-6.832-0.304-12.576 0s-10.080 0.304-13.024 0c-4.704-0.592-8.976-1.76-12.8-3.536l-3.088-1.76c-4.416-2.368-7.664-4.272-9.712-5.744-2.944-2.656-5.008-5.744-6.176-9.264l-0.88-2.64c-2.352-6.176-3.968-10.736-4.848-13.68-3.232-13.536-3.68-24.864-1.328-33.984 0.592-1.76 1.76-4.704 3.536-8.832 1.472-1.472 2.576-3.312 3.312-5.52s1.392-3.744 1.984-4.64l8.832-14.56 1.328-1.328c2.352-1.472 2.8-3.68 1.328-6.624-1.168 0.592-2.784 1.472-4.848 2.64-3.232 1.472-5.44 2.8-6.624 3.968l-6.624 8.384c-3.824 4.704-6.624 8.384-8.384 11.040l-0.88 1.328c-2.064 2.944-3.376 5.152-3.968 6.624-1.168 2.656-1.76 5.008-1.76 7.056v1.76c-0.592 2.352-0.88 4.128-0.88 5.296-1.472 11.184-1.024 21.632 1.328 31.328s6.336 18.24 11.92 25.6c1.776 3.536 4.72 7.36 8.832 11.472zM441.6 281.824c-1.472 0-3.824-0.144-7.056-0.448-6.48-0.592-11.184-0.432-14.128 0.448l-7.952 2.656c-7.648 2.64-13.232 4.848-16.768 6.624-5.296 2.944-8.832 6.032-10.592 9.264l-1.76 3.088c-3.232 3.232-6.912 8.384-11.040 15.44l-1.328 1.76c-2.64 5.008-4.56 8.976-5.744 11.92-1.776 4.416-2.656 8.688-2.656 12.8-1.472 8.24-2.048 15.888-1.76 22.944 0 5.296 0.736 10.608 2.208 15.888 0.304 1.472 1.104 3.904 2.432 7.28s2.864 6.4 4.64 9.040c4.112 5.888 9.856 11.92 17.216 18.096l1.76 1.328c2.048 1.776 3.664 2.208 4.848 1.328 1.472 0 2.432-0.448 2.864-1.328s0.224-1.92-0.656-3.088c-0.288-0.304-0.592-0.88-0.88-1.76s-0.576-1.456-0.88-1.76c-2.64-0.88-4.864-2.496-6.624-4.848-1.168-1.472-2.64-3.824-4.416-7.056l-3.088-5.296c-2.64-4.112-4.256-7.648-4.848-10.592-1.168-4.112-0.736-8.224 1.328-12.352 0.304-0.88 0.304-2.208 0-3.968v-8.832c0-2.352 0.288-5.888 0.88-10.592 0.592-2.352 1.616-5.744 3.088-10.144 2.352-6.768 3.824-11.904 4.416-15.44 0.288-1.472 1.328-3.68 3.088-6.624 0.88-0.88 1.92-2.208 3.088-3.968l1.76-2.208c0.88-1.472 2.512-3.088 4.848-4.848l0.448-0.448c2.944-2.64 7.36-6.032 13.248-10.144h0.448v-0.448c1.168-0.592 2.64-1.472 4.416-2.656l3.536-2.208c4.416-2.064 9.12-3.968 14.128-5.744 2.352 0 4.272 0.144 5.744 0.448 0.88 0 1.616-0.224 2.208-0.656s1.024-1.024 1.328-1.76c0.304-0.736-0.288-1.104-1.76-1.104zM511.776 230.624c-0.304-2.064-1.184-3.824-2.656-5.296s-3.088-2.208-4.848-2.208h-1.76c-4.704 0-8.384 0.656-11.040 1.984s-6.768 2.128-12.352 2.432c-4.704 0.304-8.224 0.88-10.592 1.76h-2.656c-0.88 0-1.472-0.144-1.76-0.448-2.64-1.76-5.728-2.352-9.264-1.76-2.064 0-5.152 0.736-9.264 2.208l-3.536 0.88c-2.064 0.88-3.68 1.184-4.848 0.88-2.64-0.304-5.296-0.144-7.952 0.448-1.776 0.288-4.72 1.168-8.832 2.64 0.288 0.592 0.88 1.168 1.76 1.76l0.88 0.88v0.448l7.504 1.76c17.056 3.232 29.856 5.872 38.4 7.936h1.328c0.592 0.304 1.472 0.448 2.656 0.448l18.096 3.536c5.888 0.88 11.488-2.208 16.768-9.264 2.064-1.168 3.376-2.8 3.968-4.848 0.304-1.168 0.304-3.232 0-6.176zM338.768 447.328c-0.592-0.576-0.592-2.192 0-4.848 0.592-8.544-1.024-15.6-4.848-21.184-0.88-1.472-1.328-3.232-1.328-5.296 0-2.944-0.592-5.152-1.76-6.624s-1.904-3.392-2.208-5.744c-0.304-1.168-0.448-3.088-0.448-5.744v-3.536c0.304-2.944 0.304-5.152 0-6.624-0.88-7.056-3.088-13.68-6.624-19.856l-0.88 0.88v0.88l-0.448 3.968c-0.592 1.472-0.736 2.496-0.448 3.088 0.592 9.424 0.88 16.336 0.88 20.736l-0.448 18.976c-0.304 1.168-0.448 2.784-0.448 4.848v1.76l-0.88 9.712v2.208c-0.592 10.896 0.736 19.872 3.968 26.928 0.288 0.88 0.736 2.576 1.328 5.072s1.024 4.336 1.328 5.52c0.88 1.776 1.92 2.8 3.088 3.088l0.448 0.448c0.88 0.592 1.696 0.88 2.432 0.88s1.248-0.592 1.552-1.76v-0.88c1.472-1.168 3.088-4.256 4.848-9.264 1.472-2.944 2.352-5.824 2.656-8.608s-0.288-5.808-1.76-9.040zM394.368 74.832c0-0.304-0.080-0.368-0.224-0.224l-0.656 0.656h0.448v0.448z"></path>
</svg>
