<!-- Generated by IcoMoon.io -->
<svg version="1.1" xmlns="http://www.w3.org/2000/svg" width="512" height="512" viewBox="0 0 512 512">
<title>weapons-bident</title>
<path fill="#fff" d="M215.216 511.152c-3.056-7.488-0.272-44.688 11.376-155.728 1.392-15.264 1.936-28.592 1.104-30.256-2.224-3.616-14.992-0.272-21.936 5.824-10.832 9.712-22.208 11.648-35.808 5.824-10.272-4.72-12.48-7.216-15.536-17.76-1.936-6.944-2.784-15.536-1.664-19.424 0.832-3.616-0.272-11.936-2.784-18.592-5.28-15.264-4.16-23.872 7.776-49.68 18.88-40.528 22.208-53.568 35.808-133.232 3.056-19.152 6.672-48.304 7.488-64.944 1.936-32.208 6.672-41.632 10-20.544 1.104 6.672 2.496 41.632 3.328 78.272 1.392 72.72-1.392 97.696-14.16 134.336-8.32 23.584-8.608 28.864-1.936 34.688 6.384 5.552 11.936 6.656 18.592 2.784 8.608-4.72 74.384-5.824 79.936-1.392 6.384 5.264 13.6 3.056 18.32-5.552 3.888-6.672 3.616-8.608-5.824-27.76-18.048-36.912-18.32-38.576-19.152-120.464-0.832-100.48-0.832-104.096 3.616-106.864 2.784-1.664 3.888 0 4.432 6.672 1.936 24.144 27.472 170.704 31.648 180.976 1.664 4.72 5.824 12.208 8.88 16.656 3.328 4.72 10.832 18.592 16.656 31.36 12.208 26.096 12.768 41.36 1.936 54.96-3.056 4.16-5.824 11.104-5.824 15.536 0 11.648-4.72 18.88-15.264 23.312-14.72 6.112-29.984 4.992-38.304-2.784-8.048-7.488-17.488-6.944-19.984 1.104-0.832 3.056 1.664 39.136 5.552 80.784 6.944 73.568 7.216 95.76 0.272 100.208-2.784 1.936-67.728 3.328-68.56 1.664zM191.632 321.296c0.832-2.496 1.664-5.264 1.664-6.656 0-3.888-13.6-11.104-17.776-9.44-5.28 1.936-5.824 16.656-0.832 18.592 6.944 3.056 15.264 1.664 16.928-2.496zM336.24 313.52c0-10.272-4.992-11.936-12.48-4.432-4.72 4.72-5.264 6.656-2.496 10 1.936 2.224 6.112 3.888 9.152 3.328 4.432-0.56 5.824-2.784 5.824-8.88z"></path>
</svg>
