<!-- Generated by IcoMoon.io -->
<svg version="1.1" xmlns="http://www.w3.org/2000/svg" width="32" height="32" viewBox="0 0 32 32">
<title>weapons-fangs</title>
<path fill="#fff" d="M30.79 6.523c-0.021-0.064-0.053-0.149-0.096-0.256-0.255-0.703-0.5-1.214-0.735-1.534-1.278-1.513-2.79-2.609-4.537-3.291l-0.735-0.224c-0.447-0.149-0.778-0.266-0.991-0.351-0.362-0.15-0.671-0.32-0.927-0.511-0.107-0.085-0.266-0.16-0.479-0.224l-0.256-0.064c-0.277-0.085-0.468-0.091-0.575-0.016s-0.123 0.261-0.048 0.559c0.075 0.298 0.070 0.538-0.016 0.719s-0.266 0.304-0.543 0.367c-0.895 0.171-1.566 0.267-2.013 0.288-0.767 0.021-1.906 0.011-3.419-0.032l-1.342-0.032c-0.511 0-0.895-0.011-1.15-0.032-0.405-0.043-0.777-0.118-1.118-0.224-0.234-0.064-0.41-0.16-0.527-0.288s-0.176-0.309-0.176-0.543-0.075-0.394-0.224-0.479c-0.149-0.086-0.352-0.086-0.607 0-0.15 0.021-0.363 0.085-0.639 0.192l-0.16 0.064c-0.319 0.107-0.777 0.32-1.374 0.639-0.533 0.298-0.938 0.5-1.214 0.607-0.809 0.277-1.406 0.586-1.789 0.927-0.575 0.469-1.129 1.065-1.662 1.789-0.298 0.426-0.724 1.108-1.278 2.045-0.384 0.618-0.671 1.076-0.863 1.374-0.128 0.17-0.16 0.336-0.096 0.495s0.234 0.207 0.511 0.144c0.192-0.043 0.32-0.032 0.383 0.032s0.095 0.181 0.096 0.351c0 2.705 0.373 5.176 1.118 7.413 0.341 1.108 0.66 2.013 0.959 2.716 0.405 0.959 0.863 1.8 1.374 2.524 0.213 0.341 0.426 0.575 0.639 0.703 0.086 0.064 0.176 0.102 0.272 0.112s0.192-0.011 0.288-0.064c0.096-0.053 0.144-0.117 0.144-0.192s-0.021-0.166-0.064-0.272l-0.032-0.064c-0.086-0.362-0.128-0.777-0.128-1.246v-0.479c0.043-1.299 0.118-2.29 0.224-2.972l0.128-0.703c0.362-1.896 0.682-3.313 0.959-4.25 0.086-0.277 0.234-0.692 0.447-1.246 0.234-0.639 0.404-1.119 0.511-1.438 0.171-0.554 0.266-1.065 0.288-1.534 0.021-0.255 0.032-0.628 0.032-1.118 0-0.319 0.138-0.489 0.415-0.511 0.128-0.021 0.214 0 0.256 0.064s0.075 0.16 0.096 0.288l0.032 0.096c0.171 0.575 0.235 1.182 0.192 1.821-0.021 0.554 0.075 1.139 0.288 1.757 0.128 0.383 0.373 0.937 0.735 1.662 0.171 0.362 0.426 0.511 0.767 0.447 0.15-0.021 0.256-0.086 0.32-0.192 0.043-0.064 0.085-0.181 0.128-0.351l0.16-0.767c0.128-0.533 0.224-0.927 0.288-1.182 0.128-0.426 0.288-0.798 0.479-1.118 0.043-0.085 0.086-0.239 0.128-0.463s0.085-0.378 0.128-0.463c0.064-0.15 0.176-0.224 0.336-0.224s0.282 0.064 0.367 0.192c0.064 0.064 0.128 0.197 0.192 0.399s0.117 0.346 0.16 0.431l0.064 0.096c0.064 0.149 0.128 0.256 0.192 0.32 0.107 0.107 0.234 0.155 0.383 0.144s0.293-0.064 0.431-0.16c0.139-0.096 0.245-0.213 0.32-0.351s0.155-0.356 0.24-0.655v-0.032c0.064-0.192 0.128-0.33 0.192-0.415 0.085-0.128 0.203-0.181 0.352-0.16s0.245 0.096 0.288 0.224c0.043 0.064 0.075 0.191 0.096 0.383v0.096c0.021 0.107 0.021 0.277 0 0.511v0.767c0 0.724 0.011 1.273 0.032 1.646s0.123 0.629 0.304 0.767c0.181 0.138 0.474 0.207 0.879 0.208 0.255 0 0.479-0.085 0.671-0.256 0.107-0.107 0.234-0.288 0.383-0.543 0.192-0.32 0.49-0.767 0.895-1.342 0.703-1.044 1.182-1.853 1.438-2.428 0.107-0.214 0.229-0.352 0.367-0.415s0.271 0.022 0.399 0.256c0.235 0.405 0.405 0.756 0.511 1.054 0.128 0.405 0.203 0.804 0.224 1.198s0.043 1.006 0.064 1.837c0.021 0.831 0.043 1.459 0.064 1.885 0.021 0.661 0.011 1.396-0.032 2.205l-0.192 2.205c-0.128 1.086-0.203 1.896-0.224 2.428l-0.032 0.256c-0.043 0.213-0.054 0.362-0.032 0.447 0 0.128 0.064 0.235 0.192 0.32 0.171 0.107 0.341 0.128 0.511 0.064 0.107-0.021 0.256-0.107 0.447-0.256l0.096-0.096c0.128-0.086 0.277-0.256 0.447-0.511 0.319-0.426 0.697-1.118 1.134-2.077s0.814-1.667 1.134-2.125c0.319-0.458 0.628-1.018 0.927-1.678 0.213-0.447 0.458-1.054 0.735-1.821l0.032-0.128c0.064-0.17 0.16-0.522 0.288-1.054l0.224-0.991c0.171-0.661 0.256-1.534 0.256-2.62 0-0.319 0.064-0.559 0.192-0.719s0.352-0.229 0.671-0.208c0.171 0 0.298-0.043 0.383-0.128s0.095-0.223 0.032-0.415zM26.924 15.79c-0.021 0.021-0.064 0.037-0.128 0.048l-0.096 0.016c-0.043-0.128-0.064-0.224-0.064-0.288 0.021-0.192 0.086-0.395 0.192-0.607 0.064-0.128 0.165-0.303 0.304-0.527s0.24-0.388 0.304-0.495c0.021-0.043 0.053-0.075 0.096-0.096s0.080-0.016 0.112 0.016c0.032 0.032 0.059 0.069 0.080 0.112l0.064 0.128c-0.298 0.618-0.586 1.183-0.863 1.694zM28.809 11.284l-0.256 0.799c-0.021 0.064-0.053 0.171-0.096 0.32-0.064 0.234-0.149 0.404-0.256 0.511l-0.064 0.096c-0.043 0.064-0.086 0.107-0.128 0.128s-0.096 0.021-0.16 0c-0.128-0.064-0.149-0.191-0.064-0.383l0.415-1.246c0.064-0.277 0.224-0.404 0.479-0.383h0.064c0.043 0.043 0.064 0.085 0.064 0.128v0.032zM28.905 25.696c0-0.021-0.011-0.064-0.032-0.128l-0.032-0.096-0.096-0.192c-0.383-0.788-0.66-1.384-0.831-1.789-0.255-0.682-0.415-1.321-0.479-1.917 0-0.064-0.021-0.139-0.064-0.224-0.064-0.149-0.181-0.224-0.352-0.224-0.128 0.021-0.192 0.117-0.192 0.288-0.043 0.639-0.17 1.31-0.383 2.013-0.171 0.511-0.416 1.15-0.735 1.917-0.213 0.468-0.421 0.793-0.623 0.975s-0.479 0.272-0.831 0.272-0.634-0.091-0.847-0.272c-0.212-0.182-0.393-0.507-0.543-0.975-0.234-0.745-0.543-1.853-0.927-3.323l-0.352-1.406c-0.213-0.98-0.405-1.704-0.575-2.173-0.255-0.809-0.575-1.502-0.959-2.077-0.043-0.043-0.085-0.123-0.128-0.24s-0.085-0.203-0.128-0.256c-0.043-0.053-0.118-0.070-0.224-0.048s-0.176 0.075-0.208 0.16c-0.032 0.086-0.038 0.213-0.016 0.383v0.16c0 0.298 0.016 0.751 0.048 1.358s0.048 1.071 0.048 1.39c-0.021 0.469-0.053 1.161-0.096 2.077-0.064 1.002-0.107 1.747-0.128 2.237-0.021 0.831 0 1.577 0.064 2.237 0.085 0.362-0.021 0.575-0.32 0.639-0.128 0.021-0.219 0-0.272-0.064s-0.091-0.171-0.112-0.32l-0.032-0.16c-0.064-0.277-0.128-0.681-0.192-1.214l-0.096-0.671c-0.021-0.17-0.053-0.298-0.096-0.383s-0.139-0.138-0.288-0.16c-0.15-0.022-0.267 0.032-0.352 0.16-0.043 0.064-0.085 0.192-0.128 0.383-0.064 0.277-0.181 0.479-0.352 0.607s-0.405 0.214-0.703 0.256c-0.255 0.043-0.468 0-0.639-0.128-0.107-0.107-0.223-0.277-0.351-0.511l-0.032-0.064c-0.086-0.171-0.16-0.288-0.224-0.352-0.107-0.107-0.239-0.16-0.399-0.16s-0.293 0.053-0.399 0.16c-0.064 0.085-0.139 0.224-0.224 0.415l-0.032 0.032c-0.085 0.171-0.197 0.443-0.336 0.815s-0.251 0.644-0.336 0.815c-0.15 0.341-0.373 0.5-0.671 0.479-0.149-0.021-0.266-0.080-0.351-0.176s-0.159-0.229-0.224-0.399c-0.234-0.852-0.33-1.917-0.288-3.195v-0.479c0.021-0.788 0.032-1.384 0.032-1.789 0-0.661-0.043-1.257-0.128-1.789-0.107-0.596-0.086-1.161 0.064-1.694l0.032-0.064c0.064-0.235 0.096-0.405 0.096-0.511 0-0.214-0.075-0.341-0.224-0.383s-0.277-0.021-0.383 0.064c-0.064 0.043-0.144 0.139-0.24 0.288s-0.165 0.245-0.208 0.288c-0.043 0.043-0.064 0.086-0.064 0.128-0.234 0.575-0.618 1.438-1.15 2.588-0.533 1.171-0.916 2.066-1.15 2.684-0.405 1.002-0.682 1.939-0.831 2.812-0.064 0.426-0.239 0.852-0.527 1.278s-0.575 0.639-0.863 0.639-0.56-0.213-0.815-0.639c-0.214-0.341-0.416-0.895-0.607-1.662l-0.16-0.575c-0.043-0.149-0.085-0.373-0.128-0.671-0.085-0.426-0.16-0.746-0.224-0.959-0.128-0.319-0.309-0.58-0.543-0.783s-0.41-0.293-0.527-0.272c-0.118 0.021-0.25 0.17-0.399 0.447-0.192 0.362-0.416 0.937-0.671 1.726-0.171 0.597-0.32 1.034-0.447 1.31-0.192 0.533-0.213 1.055-0.064 1.566 0.086 0.319 0.309 0.756 0.671 1.31 0.171 0.298 0.395 0.586 0.671 0.863 0.171 0.171 0.448 0.405 0.831 0.703 0.469 0.383 0.81 0.682 1.023 0.895 0.639 0.703 1.289 1.257 1.949 1.662 0.255 0.171 0.484 0.251 0.687 0.24s0.432-0.112 0.687-0.304c0.447-0.426 0.852-0.757 1.214-0.991 0.469-0.32 0.927-0.543 1.374-0.671 1.002-0.298 1.896-0.511 2.684-0.639 0.959-0.149 1.886-0.192 2.78-0.128s1.64 0.234 2.237 0.511c0.703 0.319 1.288 0.82 1.757 1.502 0.235 0.383 0.432 0.634 0.591 0.751s0.324 0.15 0.495 0.096 0.448-0.197 0.831-0.431c0.255-0.171 0.66-0.363 1.214-0.575 0.447-0.171 0.778-0.309 0.991-0.415 1.342-0.788 2.684-1.725 4.026-2.812 0.405-0.32 0.714-0.735 0.927-1.246 0.064-0.128 0.080-0.224 0.048-0.288s-0.118-0.144-0.256-0.24-0.219-0.187-0.24-0.272zM6.441 27.389c-0.064 0.021-0.117 0.016-0.16-0.016s-0.059-0.064-0.048-0.096c0.011-0.032 0.037-0.064 0.080-0.096s0.075-0.048 0.096-0.048 0.064 0.011 0.128 0.032l0.16 0.096z"></path>
</svg>
