<!-- Generated by IcoMoon.io -->
<svg version="1.1" xmlns="http://www.w3.org/2000/svg" width="512" height="512" viewBox="0 0 512 512">
<title>weapons-reach-weapon</title>
<path fill="#fff" d="M463.184 313.744c-0.688 0.336-1.872 1.024-3.584 2.048-3.056 1.712-5.28 2.736-6.64 3.072-2.72 0.688-5.456 0.336-8.176-1.024-2.048-0.688-5.456-1.36-10.224-2.048l-4.592-1.024c-5.792-1.376-10.736 1.024-14.816 7.152-1.36 2.384-2.8 4.352-4.336 5.872s-3.664 2.624-6.384 3.328c-1.36 0.336-3.152 1.536-5.36 3.584s-4 3.232-5.36 3.584l-2.56 1.536c-3.056 1.712-5.44 2.736-7.152 3.072-3.056 1.024-5.792 0.688-8.176-1.024-1.712-0.688-3.408-0.336-5.104 1.024l-1.024 0.512c-2.384 1.376-4.608 2.048-6.64 2.048s-4.080-0.848-6.128-2.56c-4.432-3.392-9.2-2.88-14.304 1.536l-3.584 4.080c-5.104 6.128-8.864 10.896-11.248 14.304-1.376 1.36-2.72 2.384-4.080 3.072-2.048 1.712-3.584 1.376-4.592-1.024-0.336-1.36-0.512-3.568-0.512-6.64v-24.528c0-2.048-0.256-3.744-0.768-5.104s-1.616-2.544-3.328-3.584l-7.664-7.664c-6.144-5.104-9.712-10.896-10.736-17.376 0-1.024-0.176-1.712-0.512-2.048-3.392-3.392-5.792-7.488-7.152-12.256-1.024-3.056-1.888-7.824-2.56-14.304l-0.512-6.64c-1.024-5.456-4.432-9.024-10.224-10.736-6.816-2.384-11.744-5.792-14.816-10.224-1.024-1.376-2.224-2.144-3.584-2.304s-2.896-0.256-4.592-0.256h-2.048c-3.744 0-7.072 1.024-9.968 3.072s-4.848 4.944-5.872 8.688c-1.024 3.744-3.056 7.312-6.128 10.736-2.048 2.4-5.28 5.12-9.712 8.176l-3.072 2.048c-2.72 1.376-4.592 2.72-5.616 4.080-2.384 3.056-5.28 4.768-8.688 5.104-2.048 0.336-5.376 0.176-9.968-0.512s-8.176-0.336-10.736 1.024c-2.56 1.36-4.848 4.080-6.896 8.176-0.336 0.688-0.688 1.872-1.024 3.584l-1.024 3.072c-2.384 6.128-7.152 14.304-14.304 24.528-4.768 6.816-8.176 12.096-10.224 15.84-1.024 1.712-3.072 2.56-6.128 2.56-3.744-0.688-6.64 0.512-8.688 3.584-5.104 4.432-8 8.592-8.688 12.512s0.688 6.544 4.080 7.92c2.048 1.36 3.744 2.224 5.104 2.56 3.056 1.024 4.592 3.408 4.592 7.152v27.584c0 3.056-1.536 6.976-4.592 11.76l-1.536 2.048c-2.384 3.744-3.504 6.816-3.328 9.2s1.456 5.632 3.824 9.712c1.712 2.72 3.92 3.92 6.64 3.584 11.92-0.688 21.632 3.232 29.12 11.76 2.384 2.048 6.304 4.768 11.76 8.176 2.048 1.376 3.408 2.4 4.080 3.072 1.376 1.712 2.048 3.408 2.048 5.104 0.336 2.72 2.048 4.416 5.104 5.104 2.384 0 4.336 0.944 5.872 2.816s3.312 1.968 5.36 0.256c4.768-5.456 10.384-8.864 16.864-10.224 1.712-0.336 3.072-0.080 4.080 0.768s1.088 1.968 0.256 3.328c-0.848 1.376-1.44 3.488-1.792 6.384s-1.296 4.928-2.816 6.128-2.288 2.896-2.304 5.104c-0.016 2.208 0.848 3.824 2.56 4.848l2.048 1.536c2.048 1.712 3.584 2.736 4.592 3.072 2.048 1.024 3.92 1.024 5.616 0 4.768-2.048 10.4-5.28 16.864-9.712 1.36-0.688 2.224-2.048 2.56-4.080v-1.536c0.336-4.432 0.256-7.232-0.256-8.432s-2.64-3.152-6.384-5.872c3.408-1.376 6.304-1.2 8.688 0.512l2.048 2.048c1.712 1.376 2.912 2.56 3.584 3.584s1.024 2.384 1.024 4.080c0 3.744-0.688 7.664-2.048 11.76-1.024 2.72-2.896 6.304-5.616 10.736-2.048 2.048-3.248 3.744-3.584 5.104-0.688 3.744-1.456 5.952-2.304 6.64s-2.976 1.024-6.384 1.024h-15.328c-2.72 0-4.944-1.536-6.64-4.592-3.408-6.816-7.152-12.272-11.248-16.352-4.768-4.768-10.48-7.92-17.12-9.456s-11.664-0.256-15.072 3.824c-4.080 4.432-7.152 6.72-9.2 6.896s-5.12-1.952-9.2-6.384c-1.376-1.376-3.744-3.152-7.152-5.36s-5.776-4-7.152-5.36c-3.744-3.056-6.464-5.792-8.176-8.176-2.384-3.056-3.744-6.464-4.080-10.224 0-0.688-0.336-1.712-1.024-3.072-5.104-5.792-8.336-14.48-9.712-26.064-0.336-2.048-1.536-5.12-3.584-9.2-1.024-2.048-3.584-2.736-7.664-2.048-1.376 0.688-2.048 2.208-2.048 4.592v1.024c0 2.4 0.336 4.256 1.024 5.616 1.36 2.048 2.048 3.92 2.048 5.616 1.36 10.896 4.432 19.248 9.2 25.040 0.688 1.024 0.944 1.872 0.768 2.56s-0.688 1.616-1.536 2.816c-0.848 1.2-1.968 1.28-3.328 0.256l-1.024-1.024c-7.824-3.744-11.568-9.712-11.248-17.888 0.336-4.768-0.848-9.536-3.584-14.304-1.36-2.72-4.080-6.64-8.176-11.76l-1.024-1.024c-1.712-1.712-4.256-2.896-7.664-3.584-5.12-1.024-9.2-3.92-12.256-8.688-6.816-8.512-11.072-16.352-12.768-23.504-4.432-11.248-3.392-20.096 3.072-26.576 1.024-1.024 1.792-2.976 2.304-5.872s0.608-5.36 0.256-7.408c-0.336-2.048-0.336-3.92 0-5.616 0.688-8.176-1.872-14.128-7.664-17.888-2.72-1.712-4.080-4.608-4.080-8.688v-32.192c0-3.056 1.2-5.792 3.584-8.176 3.392-3.056 5.44-5.44 6.128-7.152 1.376-3.056 1.2-6.464-0.512-10.224-0.688-1.024-0.512-2.56 0.512-4.592l0.512-0.512c2.384-6.144 4.768-13.12 7.152-20.944l0.512-0.512c0.336-1.376 0.512-2.48 0.512-3.328s-0.336-1.968-1.024-3.328c-1.36-2.048-2.224-4.608-2.56-7.664 0-1.712 0.176-4.256 0.512-7.664l0.512-4.080c0.336-2.048 1.696-4.432 4.080-7.152 1.712-1.712 2.976-3.232 3.824-4.592s2.464-3.488 4.848-6.384 4.080-5.024 5.104-6.384c3.744-5.104 8.336-7.664 13.792-7.664 4.432 0 8.512-2.56 12.256-7.664 1.376-3.056 3.744-5.616 7.152-7.664 4.080-1.712 5.104-5.12 3.072-10.224-3.056-6.816-1.36-12.608 5.104-17.376l4.080-3.072c6.128-4.768 10.976-8.256 14.56-10.48s6.64-3.152 9.2-2.816c2.56 0.336 5.552 0 8.944-1.024 1.712-0.688 4.432-1.872 8.176-3.584l4.592-2.048 3.072-1.024c3.744-1.024 6.032-2.384 6.896-4.080s2.128-4.080 3.824-7.152c2.384-4.080 3.92-7.328 4.592-9.712 2.4-6.48 5.968-10.224 10.736-11.248 1.712-0.336 4.096-1.36 7.152-3.072 4.768-2.384 8.768-3.584 12-3.584s5.696-1.872 7.408-5.616c3.056-5.12 7.664-9.888 13.792-14.304 3.408-2.72 9.024-6.304 16.864-10.736 2.048-1.024 5.792-1.872 11.248-2.56 8.176-1.024 13.12-4.768 14.816-11.248 1.024-2.384 3.328-5.2 6.896-8.432s5.712-6.208 6.384-8.944c2.384 1.024 4.608 3.408 6.64 7.152l1.024 2.56c0.336 0 0.512 0.336 0.512 1.024v1.536c2.384 6.128 4.096 10.048 5.104 11.744 1.36 2.384 3.056 4.256 5.104 5.616 1.712 1.024 5.456 2.72 11.248 5.104l1.024 0.512c3.392 1.024 5.616 2.224 6.64 3.584 2.048 2.72 5.28 4.928 9.712 6.64 11.248 6.816 17.552 16.352 18.912 28.608 0.336 2.72 1.456 5.28 3.328 7.664s4.176 3.664 6.896 3.824c2.72 0.16 6.8 1.424 12.256 3.824 3.392 1.712 6.128 2.816 8.176 3.328s2.992 2.304 2.816 5.36c-0.176 3.056-1.792 4.592-4.848 4.592-4.432 0-10.048 1.52-16.864 4.592-4.080 1.712-7.328 3.92-9.712 6.64s-4.432 6.288-6.128 10.736c-3.392 8.176-7.152 14.48-11.248 18.912-5.12 5.792-11.584 9.552-19.408 11.248l-2.048 0.512c-2.72 0.336-4.256 0.848-4.592 1.536-2.72 1.712-5.792 2.896-9.2 3.584-2.384 0.336-5.456 0.512-9.2 0.512s-6.464 0.592-8.176 1.792c-1.712 1.2-2.896 3.312-3.584 6.384l-0.512 2.56c-1.712 6.816-3.744 11.584-6.128 14.304-0.336 0.336-0.512 1.2-0.512 2.56l-0.512 1.536v2.56c0 2.048-0.608 3.072-1.792 3.072s-1.872-0.256-2.048-0.768c-0.176-0.512-0.256-1.36-0.256-2.56s-0.176-1.968-0.512-2.304c-2.048-3.056-3.92-8-5.616-14.816-1.36-5.104-2.64-9.024-3.824-11.76s-2.464-4.768-3.824-6.128c-1.712-2.048-3.92-3.152-6.64-3.328s-6.304-2.304-10.736-6.384l-5.616-4.080c-2.72-2.72-5.104-4.416-7.152-5.104-3.408-1.024-6.288-2.896-8.688-5.616-1.712-1.712-3.664-4.512-5.872-8.432s-4.672-6.976-7.408-9.2c-2.736-2.224-6.32-3.328-10.736-3.328-0.688 0-1.712-0.512-3.072-1.536l-2.048-1.024c-3.056-1.712-6.304-2.48-9.712-2.304s-6.48 1.28-9.2 3.328l-2.048 2.048c-2.72 2.384-4.16 4.176-4.336 5.36s0.512 2.88 2.048 5.104 2.224 4 2.048 5.36c-0.176 1.36-1.12 3.232-2.816 5.616-2.384 3.744-6.816 8.176-13.28 13.28l-6.128 5.616c-3.056 3.056-8.688 6.128-16.864 9.2l-6.128 2.56c-1.712 0.336-4.944 0.512-9.712 0.512-2.72 0.336-4.928 1.36-6.64 3.072s-2.56 3.92-2.56 6.64v3.072c-0.336 2.72-0.336 4.768 0 6.128 0.688 4.432 0.336 8.848-1.024 13.28-1.36 3.056-3.408 6.976-6.128 11.76l-3.072 4.592c-1.36 7.504-6.816 13.456-16.352 17.888-7.152 2.72-11.76 7.488-13.792 14.304-1.024 3.056-1.28 6.208-0.768 9.456s2.048 5.456 4.592 6.64 4.176 2.624 4.848 4.336c0.688 1.712 1.024 3.92 1.024 6.64v39.856c0 5.792-2.048 10.048-6.128 12.768-2.72 2.048-4.512 5.28-5.36 9.712s-0.592 8.176 0.768 11.248c1.376 3.072 2.4 4.608 3.072 4.592 2.384 0.688 4.432 1.888 6.128 3.584 1.024 1.024 2.304 2.896 3.824 5.616s2.8 4.592 3.824 5.616l0.512 1.536c0.688 1.712 1.712 2.56 3.072 2.56h1.024c2.72 0 4.592-0.688 5.616-2.048 3.056-3.408 7.312-6.976 12.768-10.736 1.36-0.688 2.56-2.72 3.584-6.128l0.512-2.56c0.336-0.688 0.512-1.536 0.512-2.56v-1.536c2.72-2.72 4-5.536 3.824-8.432s-1.36-6.048-3.584-9.456c-2.224-3.392-2.304-7.312-0.256-11.76l0.512-2.048c1.376-3.744 2.4-6.64 3.072-8.688 1.36-3.056 3.232-5.44 5.616-7.152 1.712-1.376 3.92-3.584 6.64-6.64l3.584-3.584c3.056-3.744 5.968-6.464 8.688-8.176 3.744-2.048 8-2.736 12.768-2.048 2.048 0.336 4.096 0 6.128-1.024 1.36-0.688 3.152-2.048 5.36-4.080s4-3.392 5.36-4.080c2.384-2.048 3.584-5.28 3.584-9.712 0-3.408 1.024-6.48 3.072-9.2 1.36-2.048 3.744-4.432 7.152-7.152 10.912-7.152 21.296-11.584 31.168-13.28 2.72-0.688 4.944-0.512 6.64 0.512 2.384 1.376 4.688 1.888 6.896 1.536s4.848-1.2 7.92-2.56l1.024-0.512c1.024-0.688 1.872-1.024 2.56-1.024 7.488 1.024 12.768-2.208 15.84-9.712 0.688-2.384 3.92-3.584 9.712-3.584h3.584c4.432-0.336 7.664 0 9.712 1.024 3.408 1.712 6.976 1.536 10.736-0.512l1.024-0.512c2.72-1.712 4.928-1.872 6.64-0.512 1.024 0.336 2.56-0.512 4.592-2.56 7.84-8.176 19.088-13.12 33.728-14.816 2.048-0.336 4.768-1.2 8.176-2.56l2.048-0.512c2.4-0.688 4.096-1.024 5.104-1.024 2.048-0.336 3.84 0 5.36 1.024s3.312 1.36 5.36 1.024c1.376-0.336 3.408-1.024 6.128-2.048 9.2-3.056 17.536-8.688 25.040-16.864 1.712-2.4 3.584-4.096 5.616-5.104 1.024-1.024 2.224-1.2 3.584-0.512s2.048 1.712 2.048 3.072v8.176c0 7.152-0.512 12.432-1.536 15.84-1.712 6.144 0.336 11.072 6.128 14.816 3.744 2.384 7.664 6.48 11.76 12.256s6.656 10.88 7.664 15.328l1.024 3.584c3.744 4.432 5.792 9.536 6.128 15.328 0 3.744-0.688 9.376-2.048 16.864s0.336 13.632 5.104 18.4c3.056 2.048 6.64 5.968 10.736 11.76 3.408 4.768 6.304 8.176 8.688 10.224zM156.624 128.256c-1.376-2.048-2.48-3.92-3.328-5.616s-2.128-2.88-3.824-3.584c-1.696-0.688-3.232-0.352-4.592 1.024l-2.048 1.536c-6.48 3.744-10.816 7.232-13.024 10.48s-1.776 5.712 1.28 7.408c4.768 1.712 6.816 5.456 6.128 11.248v1.024c-0.336 1.376-0.176 2.384 0.512 3.072 1.712 0.688 3.408 0.336 5.104-1.024l1.024-1.024c3.744-2.384 9.024-6.144 15.84-11.248l2.56-1.536 4.080-3.584c1.36-1.36 1.872-2.976 1.536-4.848s-1.712-2.8-4.080-2.816c-1.712-0.336-4.096-0.512-7.152-0.512zM170.928 470.096c0.336-1.712-0.512-4.256-2.56-7.664l-1.024-2.048c-0.688-2.048-1.872-3.744-3.584-5.104-1.024-1.024-2.72-2.048-5.104-3.072-3.408-1.36-5.792-2.896-7.152-4.592 0-0.688-0.848-0.512-2.56 0.512-2.384 1.024-4.336 3.744-5.872 8.176s-1.616 7.824-0.256 10.224l0.512 1.024c1.376 1.024 2.4 1.712 3.072 2.048 3.056 1.36 7.824 4.432 14.304 9.2l0.512 0.512c2.048 1.36 3.92 1.2 5.616-0.512 2.72-2.384 4.080-5.28 4.080-8.688zM101.952 201.84c0-4.080-0.432-7.056-1.28-8.944s-2.64-3.824-5.36-5.872c-0.688-0.688-1.616-1.12-2.816-1.28s-2.128 0.080-2.816 0.768c-6.816 5.104-10.736 11.744-11.744 19.92-0.336 2.048 0.592 4.688 2.816 7.92s4.352 5.024 6.384 5.36c4.432 0.336 7.824-1.872 10.224-6.64 0.336-0.688 1.104-1.792 2.304-3.328s2.048-2.816 2.56-3.824c0.512-1.008 0.432-2.368-0.256-4.080zM192.896 253.952c-0.336 1.024-0.080 2.224 0.768 3.584s1.28 2.384 1.28 3.072c2.048 7.504 6.304 9.536 12.768 6.128 2.72-1.376 6.64-3.584 11.76-6.64l4.080-2.56c1.024-0.688 1.632-1.456 1.792-2.304s0.256-2.128 0.256-3.824c0-1.696-0.592-3.136-1.792-4.336s-2.976-2.48-5.36-3.824c-3.056-2.048-6.128-2.048-9.2 0-4.768 3.744-10.224 7.312-16.352 10.736zM75.376 289.728v-6.128c0-4.080-1.2-6.128-3.584-6.128-1.712 0-3.92-0.512-6.64-1.536-2.048-1.024-3.664-1.632-4.848-1.792s-2.464 0.256-3.84 1.28c-0.688 0.336-1.36 1.536-2.048 3.584v0.512c-1.376 2.384-1.376 6.384 0 12s3.232 9.28 5.616 10.992l0.512 0.512c1.024 0.336 1.712 0.512 2.048 0.512 4.768 1.024 8.080 0.848 9.968-0.512s2.816-4.432 2.816-9.2zM125.456 377.088c-1.36 0.688-2.384 2.208-3.072 4.592l-0.512 2.048c-2.048 5.456-4.944 5.792-8.688 1.024-0.688-0.688-1.36-2.048-2.048-4.080v-1.536c-0.336-1.712-1.2-2.4-2.56-2.048s-2.48 0.944-3.328 1.792c-0.848 0.848-1.28 1.792-1.28 2.816 0 5.792 0.176 10.048 0.512 12.768s1.872 5.792 4.592 9.2c2.048 1.712 4.432 2.736 7.152 3.072 1.712 0 3.92-0.512 6.64-1.536 1.712-0.688 3.152-1.792 4.336-3.328s1.616-3.328 1.28-5.36-0.336-4.768 0-8.176v-4.080c0-2.048-0.176-3.584-0.512-4.592s-1.2-1.856-2.56-2.56zM76.4 398.56c3.744-2.72 6.304-6.304 7.664-10.736 0.688-3.056 0.864-7.312 0.512-12.768 0-1.36-0.512-2.48-1.536-3.328s-2.224-1.28-3.584-1.28l-2.56-0.512c-2.72-0.336-4.768-0.688-6.128-1.024-4.080-1.376-6.64-1.712-7.664-1.024s-1.536 3.072-1.536 7.152c0 2.72 0.688 5.28 2.048 7.664l3.072 4.592c3.744 5.456 6.976 9.2 9.712 11.248zM155.088 307.6c0-2.384-0.944-5.024-2.816-7.92s-3.84-4.512-5.872-4.848c-3.056-0.688-5.28-0.336-6.64 1.024l-3.072 2.56c-4.432 4.432-7.152 8-8.176 10.736-0.336 1.376-0.512 3.584-0.512 6.64 1.712 3.744 3.744 4.592 6.128 2.56 2.048-1.024 4.768-1.2 8.176-0.512 3.744 0 6.8-0.944 9.2-2.816s3.584-4.352 3.584-7.408zM286.912 219.216h-4.592c-1.36 0-2.64 0.336-3.824 1.024s-1.776 1.712-1.792 3.072c0 5.792-1.36 10.56-4.080 14.304-0.688 1.36-0.768 2.8-0.256 4.336s1.616 2.64 3.328 3.328c4.080 1.024 7.84 0.336 11.248-2.048 2.384-1.712 4.608-5.12 6.64-10.224 1.024-2.72 1.888-4.592 2.56-5.616 1.36-2.048 1.36-3.92 0-5.616s-3.408-2.72-6.128-3.072c-0.336 0.336-1.376 0.512-3.072 0.512zM218.448 71.552c-5.456-2.048-10.4-0.336-14.816 5.104-1.36 1.712-2.128 3.584-2.304 5.616s0.592 3.392 2.304 4.080c2.72 1.024 4.176 2.384 4.336 4.080s-0.432 3.744-1.792 6.128c-0.336 0.688-0.336 1.536 0 2.56v1.536c0 1.36 0.592 2.304 1.792 2.816s2.56 0.432 4.080-0.256c1.52-0.688 2.288-1.712 2.304-3.072 0-2.384 0.768-5.632 2.304-9.712s2.304-7.152 2.304-9.2c0.688-3.408 0.512-6.64-0.512-9.712zM99.392 403.664c-2.72-1.024-5.456-1.024-8.176 0 1.712 2.4 3.152 3.584 4.336 3.584s2.464-1.2 3.824-3.584z"></path>
</svg>
