<!-- Generated by IcoMoon.io -->
<svg version="1.1" xmlns="http://www.w3.org/2000/svg" width="512" height="512" viewBox="0 0 512 512">
<title>weapons-club</title>
<path fill="#fff" d="M43.76 468.304c1.36-1.024 3.232-1.888 5.632-2.56l2.56-0.512c7.52-2.384 12.64-5.968 15.376-10.752 4.432-8.192 10.256-14.688 17.424-19.472 9.568-6.832 17.936-15.712 25.104-26.64 10.928-17.072 20.672-33.136 29.2-48.16l0.512-1.024c15.376-26.976 27.488-46.608 36.368-58.912 4.432-5.456 10.24-14.176 17.424-26.128l6.144-10.24c1.712-3.072 4.608-7.52 8.704-13.312 7.52-11.616 12.464-20.672 14.864-27.152 3.072-7.504 9.056-17.92 17.936-31.248 8.192-12.304 13.824-21.856 16.912-28.688 0-1.376 0.688-2.4 2.048-3.072 6.48-6.144 9.392-13.136 8.704-21.008-0.688-5.456-3.424-12.464-8.192-21.008l-3.584-7.168c-1.36-3.072-1.456-5.808-0.256-8.192s3.328-3.92 6.4-4.608l33.296-8.704c5.12-1.712 8.96-5.2 11.52-10.496s3.328-10.848 2.304-16.656c-3.072-14-6.48-26.464-10.24-37.392-1.024-3.408-0.848-5.888 0.512-7.424s3.92-1.968 7.68-1.28l30.224 6.656c6.48 1.712 11.36 0.608 14.608-3.328s7.6-6.736 13.056-8.448c3.072-1.36 8.032-2.384 14.864-3.072l2.048-0.512c20.48-4.784 36.368-7.344 47.648-7.68 4.096-0.336 9.568 1.024 16.4 4.096l4.608 2.048c1.36 0.688 2.384 2.384 3.072 5.12l1.536 6.144c2.384 9.232 3.408 16.4 3.072 21.52-0.336 3.424-0.080 6.224 0.768 8.448s2.64 3.84 5.376 4.864c4.096 2.4 3.744 4.784-1.024 7.168-7.168 4.096-11.6 8.448-13.312 13.056s-1.2 10.848 1.536 18.704c1.36 3.76 2.224 8.192 2.56 13.312 0.336 3.072 0.512 7.68 0.512 13.84v3.584c0.336 2.384-0.336 4.096-2.048 5.12-1.024 0.688-3.072 1.36-6.144 2.048l-3.072 0.512c-3.072 0.688-7.68 0.848-13.824 0.512-8.192-0.336-14.336 0.336-18.448 2.048-6.144 2.048-11.088 6.4-14.864 13.056s-4.704 12.88-2.816 18.704c1.888 5.808 2.48 13.664 1.792 23.568 0 5.12-2.736 7.68-8.192 7.68h-12.288c-11.616-0.336-21.696 4.272-30.224 13.824-4.784 5.456-11.776 13.488-21.008 24.080-14 16.4-24.768 28.512-32.272 36.368l-9.216 9.728c-20.48 21.52-35.52 37.92-45.088 49.184-6.144 7.504-15.536 18.608-28.176 33.296l-15.376 17.936c-5.456 6.144-9.216 10.928-11.264 14.352-3.408 6.144-9.744 14.432-18.96 24.848s-15.552 18.528-18.96 24.336c-10.256 16.736-19.984 31.088-29.2 43.040-1.376 1.712-2.992 4.688-4.864 8.96s-3.488 7.424-4.864 9.472c-2.384 3.408-4.096 5.552-5.12 6.4s-2.128 1.12-3.328 0.768c-1.2-0.336-3.488-1.536-6.912-3.584-2.048-1.024-3.744-1.712-5.12-2.048s-3.072-0.176-5.12 0.512c-4.432 2.048-8.96 2.048-13.568 0s-7.936-5.456-9.984-10.24c-4.784-12.976-9.216-22.368-13.312-28.176zM327.584 161.952c2.048-0.688 5.296-1.024 9.728-1.024l4.608-0.512c5.808-0.688 9.808-2.656 12.032-5.888s2.48-7.6 0.768-13.056l-1.024-4.096c-1.36-4.432-1.872-7.68-1.536-9.728 0.336-5.456-2.4-7.856-8.192-7.168-9.216 2.048-17.92 5.632-26.128 10.752-2.736 1.376-3.664 3.248-2.816 5.632s1.616 5.632 2.304 9.728c0.336 3.744 0.688 6.48 1.024 8.192 1.712 5.12 4.784 7.52 9.216 7.168zM410.576 70.24c0-1.712-0.176-4.096-0.512-7.168l-0.512-6.656c-1.712-8.88-6.144-12.464-13.312-10.752-6.48 1.024-13.824 4.096-22.032 9.216-1.36 0.336-2.304 1.536-2.816 3.584s0.512 6.32 3.072 12.8c2.56 6.48 4.688 10.416 6.4 11.776 1.024 1.024 2.56 1.376 4.608 1.024h2.048c2.384-0.336 6.144-1.36 11.264-3.072 3.072-1.376 5.296-2.224 6.656-2.56 4.096-1.36 5.808-4.096 5.12-8.192z"></path>
</svg>
