<!-- Generated by IcoMoon.io -->
<svg version="1.1" xmlns="http://www.w3.org/2000/svg" width="32" height="32" viewBox="0 0 32 32">
<title>weapons-blast</title>
<path fill="#fff" d="M19.308 30.058c-0.127-0.063-0.202-0.191-0.223-0.382v-0.095c-0.021-0.212-0.149-0.307-0.382-0.286-0.085 0-0.18 0.032-0.286 0.095-0.382 0.212-0.658 0.403-0.827 0.573l-0.032 0.064c-0.212 0.233-0.403 0.371-0.573 0.413-0.212 0-0.35 0.148-0.413 0.445-0.043 0.148-0.127 0.318-0.254 0.509l-0.064 0.095c-0.148 0.255-0.329 0.392-0.541 0.413s-0.434-0.075-0.668-0.286c-0.594-0.594-1.421-1.251-2.481-1.972-0.212-0.106-0.424-0.122-0.636-0.048s-0.234 0.249-0.064 0.525c0.106 0.148 0.153 0.244 0.143 0.286s-0.080 0.148-0.207 0.318c-0.382-0.382-1.018-0.88-1.909-1.495l-0.413-0.318c-0.275-0.191-0.509-0.392-0.7-0.604-0.361-0.361-0.902-0.678-1.622-0.954-0.084-0.021-0.212-0.074-0.382-0.159-0.318-0.169-0.572-0.254-0.763-0.254-0.063 0-0.127-0.064-0.191-0.191-0.043-0.085-0.048-0.154-0.016-0.207s0.090-0.085 0.175-0.095c0.085-0.010 0.202 0.011 0.35 0.064s0.255 0.069 0.318 0.048l0.604-0.223c0.127-0.043 0.318-0.075 0.573-0.095 0.191 0 0.329-0.011 0.413-0.032l0.127-0.032c0.233-0.063 0.403-0.122 0.509-0.175s0.244-0.175 0.414-0.366c0.063-0.085 0.159-0.148 0.286-0.191 0.085 0 0.159 0.085 0.223 0.254 0.043 0.085 0.148 0.132 0.318 0.143s0.264-0.026 0.286-0.111c0.106-0.233 0.254-0.456 0.445-0.668 0.106-0.127 0.286-0.308 0.541-0.541l0.636-0.668c0.424-0.424 0.711-0.774 0.859-1.050 0.021-0.043 0.075-0.101 0.159-0.175s0.138-0.138 0.159-0.191c0.021-0.053 0.085-0.101 0.191-0.143s0.159-0.116 0.159-0.223c0.149-0.063 0.308-0.201 0.477-0.413l0.191-0.286c0.084-0.127 0.148-0.212 0.191-0.254l0.159-0.191c0.127-0.191 0.233-0.318 0.318-0.382s0.121-0.122 0.111-0.175c-0.011-0.053-0.037-0.122-0.080-0.207l-0.032-0.064c-0.021-0.064-0.085-0.138-0.191-0.223l-0.095-0.095c-0.043-0.063-0.133-0.148-0.27-0.254s-0.238-0.212-0.302-0.318c-0.064-0.106-0.191-0.244-0.382-0.413l-0.795-0.732c-0.021-0.043-0.074-0.096-0.159-0.159l-0.064-0.064c-0.043-0.063-0.080-0.164-0.111-0.302s-0.063-0.239-0.095-0.302-0.106-0.116-0.223-0.159c-0.116-0.043-0.228-0.149-0.334-0.318s-0.201-0.286-0.286-0.35c-0.127-0.085-0.297-0.244-0.509-0.477l-0.159-0.159c-0.021-0.127 0.042-0.244 0.191-0.35 0.191-0.127 0.472-0.355 0.843-0.684s0.674-0.557 0.907-0.684c0.085-0.063 0.201-0.169 0.35-0.318 0.191-0.233 0.36-0.371 0.509-0.414 0.233-0.255 0.631-0.6 1.193-1.034s0.96-0.79 1.193-1.066c0.085-0.106 0.122-0.196 0.111-0.27s-0.058-0.164-0.143-0.27l-0.191-0.159c-0.148-0.106-0.233-0.201-0.254-0.286s-0.095-0.17-0.223-0.254c-0.085-0.021-0.137-0.053-0.159-0.095-0.085-0.17-0.26-0.387-0.525-0.652s-0.44-0.493-0.525-0.684l-0.064-0.223c-0.084-0.212-0.169-0.371-0.254-0.477l-0.35-0.477c-0.275-0.361-0.487-0.615-0.636-0.763-0.255-0.275-0.52-0.498-0.795-0.668-0.021-0.021-0.032-0.053-0.032-0.095s0.021-0.084 0.064-0.127c0.509-0.234 0.89-0.562 1.145-0.986 0.063-0.106 0.18-0.233 0.35-0.382l0.223-0.223c0.148-0.17 0.276-0.281 0.382-0.334s0.212-0.154 0.318-0.302l0.159-0.191c0.382-0.466 0.689-0.795 0.922-0.986 0.318-0.255 0.594-0.456 0.827-0.604 0.424-0.255 0.806-0.636 1.145-1.145l0.191-0.191c0.106-0.106 0.18-0.201 0.223-0.286 0.063 0.148 0.085 0.297 0.064 0.445-0.021 0.085-0.074 0.207-0.159 0.366s-0.137 0.281-0.159 0.366c-0.149 0.106-0.318 0.318-0.509 0.636l-0.223 0.35c-0.233 0.403-0.509 0.806-0.827 1.209-0.275 0.445-0.477 0.954-0.604 1.527-0.043 0.318-0.027 0.588 0.048 0.811s0.218 0.429 0.429 0.62c0.043 0.043 0.096 0.106 0.159 0.191 0.085 0.148 0.164 0.239 0.239 0.27s0.17 0.1 0.286 0.207c0.116 0.107 0.206 0.175 0.27 0.207s0.144 0.105 0.239 0.223c0.095 0.118 0.185 0.186 0.27 0.207s0.18 0.084 0.286 0.191c0.106 0.107 0.202 0.176 0.286 0.207s0.191 0.116 0.318 0.254c0.127 0.138 0.233 0.218 0.318 0.239 0.127 0.043 0.297 0.17 0.509 0.382l0.064 0.064c0.085 0.085 0.223 0.17 0.413 0.254s0.318 0.18 0.382 0.286c0.043 0.064 0.117 0.085 0.223 0.064h0.604c0.043 0 0.074 0.032 0.095 0.095s0.021 0.127 0 0.191-0.106 0.244-0.254 0.35l-0.223 0.223c-0.636 0.679-1.081 1.209-1.336 1.59-0.021 0.043-0.075 0.106-0.159 0.191-0.191 0.169-0.445 0.445-0.763 0.827-0.275 0.339-0.487 0.583-0.636 0.732-0.043 0.043-0.106 0.127-0.191 0.254-0.127 0.191-0.228 0.307-0.302 0.35s-0.159 0.127-0.254 0.254c-0.095 0.127-0.186 0.211-0.27 0.254-0.149 0.106-0.218 0.292-0.207 0.557s0.090 0.451 0.239 0.557c0.084 0.043 0.169 0.133 0.254 0.27s0.159 0.227 0.223 0.27c0.106 0.063 0.244 0.191 0.413 0.382l1.145 1.145c0.191 0.191 0.318 0.35 0.382 0.477 0.191 0.297 0.403 0.519 0.636 0.668s0.355 0.366 0.366 0.652c0.011 0.286-0.090 0.535-0.302 0.747-0.043 0.064-0.117 0.138-0.223 0.223l-0.095 0.095c-0.106 0.148-0.196 0.239-0.27 0.27s-0.164-0.016-0.27-0.143l-0.064-0.064c-0.043-0.043-0.085-0.043-0.127 0l-0.032 0.095c-0.063 0.043-0.063 0.085 0 0.127l0.032 0.032c0.084 0.063 0.127 0.132 0.127 0.207s-0.027 0.133-0.080 0.175c-0.053 0.042-0.090 0.084-0.111 0.127-0.297 0.361-0.731 0.902-1.304 1.622l-0.541 0.7c-0.063 0.085-0.127 0.233-0.191 0.445l-0.095 0.223-0.032 0.032c-0.106 0.085-0.127 0.159-0.064 0.223 0.021 0.021 0.043 0.075 0.064 0.159s0.053 0.138 0.095 0.159c0.106 0.043 0.249 0.138 0.429 0.286s0.334 0.243 0.461 0.286l0.064 0.032c0.212 0.084 0.36 0.106 0.445 0.064 0.318-0.106 0.774-0.137 1.368-0.095h0.668c0.085 0 0.212-0.021 0.382-0.064 0.275-0.063 0.493-0.084 0.652-0.064s0.409 0.021 0.747 0h0.35c0.255 0.021 0.636 0.085 1.145 0.191l0.382 0.064c0.212 0.064 0.244 0.17 0.095 0.318-0.085 0.106-0.222 0.202-0.413 0.286s-0.318 0.169-0.382 0.254c-0.255 0.296-0.499 0.53-0.732 0.7-0.085 0.085-0.228 0.196-0.429 0.334s-0.355 0.249-0.461 0.334l-0.732 0.732c-0.212 0.169-0.413 0.296-0.604 0.382-0.148 0.043-0.339 0.191-0.573 0.445zM11.197 28.913c0.085-0.084 0.127-0.148 0.127-0.191s-0.021-0.085-0.064-0.127c-0.043-0.042-0.080-0.063-0.111-0.064s-0.068 0.021-0.111 0.064c-0.043 0.043-0.064 0.075-0.064 0.095 0.043 0.064 0.117 0.138 0.223 0.223zM3.276 15.744h0.7v-0.35c0-0.212 0.095-0.361 0.286-0.445 0.466-0.212 0.784-0.424 0.954-0.636 0.063 0.021 0.105 0.021 0.127 0s0.043-0.064 0.064-0.127l0.032-0.095c0.106-0.106 0.223-0.286 0.35-0.541 0.106-0.233 0.201-0.392 0.286-0.477 0.191-0.297 0.275-0.604 0.254-0.922-0.043-0.234-0.148-0.53-0.318-0.891-0.169-0.275-0.434-0.668-0.795-1.177l-0.286-0.445c-0.212-0.169-0.466-0.477-0.763-0.922-0.234-0.339-0.419-0.578-0.557-0.716s-0.313-0.355-0.525-0.652l-0.254-0.318c-0.084-0.063-0.127-0.148-0.127-0.254v-0.127c0-0.106 0.027-0.17 0.080-0.191s0.143 0.032 0.27 0.159l0.159 0.159c0.127 0.148 0.25 0.233 0.366 0.254s0.212 0.121 0.286 0.302c0.074 0.18 0.207 0.334 0.398 0.461s0.467 0.371 0.827 0.732l0.35 0.35c0.403 0.403 0.827 0.721 1.272 0.954 0.106 0.043 0.233 0.149 0.382 0.318l0.191 0.191c0.106-0.043 0.201-0.011 0.286 0.095s0.159 0.159 0.223 0.159c0.296 0.318 0.625 0.583 0.986 0.795s0.668 0.519 0.922 0.922c0.063 0.106 0.18 0.201 0.35 0.286l0.095 0.064c0.149 0.085 0.234 0.17 0.254 0.254s0.010 0.207-0.032 0.366c-0.042 0.159-0.17 0.302-0.382 0.429-0.127 0.064-0.212 0.127-0.254 0.191-0.169 0.021-0.381 0.149-0.636 0.382-0.191 0.191-0.339 0.307-0.445 0.35s-0.164 0.143-0.175 0.302c-0.011 0.159 0.016 0.281 0.080 0.366l0.286 0.382 0.223 0.318c0.106 0.149 0.286 0.329 0.541 0.541l0.223 0.191c0.445 0.382 0.732 0.711 0.859 0.986 0 0.063 0.064 0.127 0.191 0.191s0.255 0.159 0.382 0.286c0.084 0.084 0.191 0.212 0.318 0.382 0.169 0.233 0.312 0.403 0.429 0.509s0.228 0.275 0.334 0.509c0.043 0.148 0.085 0.255 0.127 0.318 0.085 0.084 0.132 0.159 0.143 0.223s0.059 0.127 0.143 0.191c0.085 0.063 0.116 0.127 0.095 0.191-0.085 0.212-0.202 0.329-0.35 0.35-0.085 0.043-0.191 0.127-0.318 0.254l-0.318 0.286c-0.127 0.106-0.223 0.201-0.286 0.286-0.106 0.17-0.339 0.381-0.7 0.636-0.233 0.191-0.403 0.339-0.509 0.445-0.127 0-0.244 0.085-0.35 0.254-0.063 0.106-0.127 0.18-0.191 0.223-0.127 0.063-0.275 0.254-0.445 0.573l-0.032 0.064c-0.021 0.043-0.053 0.075-0.095 0.095s-0.074 0.021-0.095 0c-0.043-0.063-0.122-0.095-0.239-0.095s-0.186-0.021-0.207-0.064c-0.043-0.084-0.159-0.159-0.35-0.223s-0.313-0.144-0.366-0.239-0.128-0.18-0.223-0.254c-0.095-0.074-0.191-0.105-0.286-0.095s-0.159-0.048-0.191-0.175-0.090-0.18-0.175-0.159c-0.403-0.339-1.029-0.785-1.877-1.336l-0.095-0.095c-0.063-0.063-0.116-0.106-0.159-0.127-0.17-0.106-0.223-0.254-0.159-0.445 0.043-0.064 0.106-0.095 0.191-0.095s0.159 0.021 0.223 0.064c0.149 0.085 0.382 0.116 0.7 0.095 0.191-0.021 0.323-0.021 0.398 0s0.165 0.032 0.27 0.032c0.212-0.021 0.36 0.011 0.445 0.095 0.063 0.021 0.143 0.021 0.239 0s0.186-0.064 0.27-0.127c0.169-0.106 0.27-0.239 0.302-0.398s-0.027-0.282-0.175-0.366c-0.106-0.064-0.254-0.17-0.445-0.318-0.339-0.254-0.615-0.414-0.827-0.477-0.021 0-0.032-0.011-0.032-0.032l-0.032-0.032c-0.043-0.17-0.191-0.35-0.445-0.541-0.149-0.127-0.255-0.223-0.318-0.286l-0.095-0.127c-0.063-0.106-0.121-0.186-0.175-0.239s-0.133-0.069-0.239-0.048c0-0.085-0.021-0.148-0.064-0.191s-0.112-0.085-0.207-0.127c-0.095-0.042-0.164-0.084-0.207-0.127l-0.095-0.127c-0.106-0.212-0.223-0.339-0.35-0.382l-0.032-0.064c0 0-0.032-0.032-0.095-0.095-0.148-0.084-0.329-0.297-0.541-0.636zM7.475 18.893c0-0.063-0.005-0.105-0.016-0.127s-0.048-0.043-0.111-0.064c-0.17-0.043-0.302-0.112-0.398-0.207s-0.17-0.085-0.223 0.032c-0.053 0.117-0.063 0.202-0.032 0.254s0.1 0.1 0.207 0.143c0.107 0.043 0.16 0.096 0.159 0.159s0.010 0.1 0.032 0.111c0.022 0.011 0.053 0.005 0.095-0.016l0.095-0.064c0.085-0.043 0.143-0.074 0.175-0.095s0.037-0.063 0.016-0.127zM7.221 11.832c-0.063 0.043-0.116 0.085-0.159 0.127-0.085 0.063-0.095 0.191-0.032 0.382h0.095c0.085-0.021 0.116-0.096 0.095-0.223v-0.286zM22.234 24.491c-0.063 0-0.159-0.021-0.286-0.064-0.382-0.063-0.668-0.085-0.859-0.064-0.255 0.021-0.615 0.096-1.081 0.223-0.233 0.043-0.562 0.064-0.986 0.064h-0.604c-0.106 0-0.17-0.053-0.191-0.159s0.011-0.201 0.095-0.286c0.212-0.234 0.393-0.477 0.541-0.732 0.043-0.085 0.133-0.191 0.27-0.318s0.227-0.255 0.27-0.382c0-0.063 0.053-0.138 0.159-0.223l0.127-0.095 2.545-2.545c0.17-0.17 0.254-0.323 0.254-0.461s-0.116-0.281-0.35-0.429c-0.233-0.148-0.583-0.402-1.050-0.763-0.551-0.382-0.975-0.668-1.272-0.859-0.085-0.043-0.148-0.112-0.191-0.207s-0.048-0.175-0.016-0.239c0.032-0.064 0.064-0.154 0.095-0.27s0.074-0.217 0.127-0.302c0.053-0.086 0.133-0.149 0.239-0.191s0.218-0.116 0.334-0.223c0.117-0.107 0.197-0.223 0.239-0.35 0.021-0.063 0.064-0.127 0.127-0.191 0.234-0.191 0.541-0.519 0.922-0.986 0.339-0.403 0.609-0.689 0.811-0.859s0.307-0.292 0.318-0.366c0.011-0.074 0.069-0.132 0.175-0.175 0.063-0.021 0.1-0.043 0.111-0.064s0.005-0.064-0.016-0.127l0.191-0.127c0.233-0.149 0.387-0.281 0.461-0.398s0.196-0.281 0.366-0.493l0.127-0.127c0.127-0.106 0.233-0.18 0.318-0.223 0.043 0 0.085-0.032 0.127-0.095 0.085-0.106 0.17-0.148 0.254-0.127 0.021 0 0.043-0.032 0.064-0.095l0.032-0.064c0.085-0.043 0.191-0.143 0.318-0.302s0.244-0.27 0.35-0.334c0.17-0.084 0.361-0.286 0.573-0.604l0.064-0.095c0.043-0.063 0.17-0.148 0.382-0.254 0.127-0.085 0.297-0.254 0.509-0.509l0.286-0.286c0.085-0.063 0.143-0.074 0.175-0.032s0.043 0.122 0.032 0.239c-0.011 0.118-0.090 0.25-0.239 0.398l-0.064 0.064c-0.149 0.191-0.34 0.488-0.573 0.891-0.17 0.296-0.302 0.509-0.398 0.636s-0.207 0.318-0.334 0.573c-0.17 0.318-0.318 0.541-0.445 0.668-0.043 0.043-0.075 0.127-0.095 0.254-0.021 0.17-0.074 0.297-0.159 0.382l-0.064 0.064c-0.212 0.149-0.328 0.308-0.35 0.477-0.148 0.085-0.276 0.265-0.382 0.541-0.064 0.191-0.127 0.318-0.191 0.382s-0.139 0.181-0.223 0.35l-0.127 0.191-0.064 0.191c-0.085 0.191-0.17 0.329-0.254 0.414-0.127 0.191-0.175 0.376-0.143 0.557s0.133 0.334 0.302 0.461c0.233 0.169 0.573 0.434 1.018 0.795l0.795 0.604c0.212 0.149 0.477 0.393 0.795 0.732 0.212 0.212 0.382 0.371 0.509 0.477 0.043 0.043 0.064 0.085 0.064 0.127s-0.021 0.095-0.064 0.159c-0.021 0-0.053 0.021-0.095 0.064-0.212 0.17-0.498 0.456-0.859 0.859-0.318 0.339-0.562 0.584-0.732 0.732-0.149 0.106-0.223 0.234-0.223 0.382 0.021 0.085-0.021 0.159-0.127 0.223-0.043 0.063-0.074 0.106-0.095 0.127-0.255 0.212-0.584 0.583-0.986 1.113-0.318 0.402-0.562 0.689-0.732 0.859-0.064 0.063-0.116 0.175-0.159 0.334s-0.085 0.271-0.127 0.334c-0.063 0.191-0.191 0.265-0.382 0.223-0.021-0.021-0.053-0.043-0.095-0.064h-0.191zM22.393 23.823c0.021 0 0.043-0.011 0.064-0.032l-0.095-0.064-0.032 0.064c0.021 0.021 0.043 0.032 0.064 0.032zM0.127 21.915c0.106 0.106 0.302 0.154 0.588 0.143s0.482 0.027 0.588 0.111c0.063-0.021 0.153-0.005 0.27 0.048s0.207 0.075 0.27 0.064c0.063-0.011 0.18-0.005 0.35 0.016h0.159c0.17-0.021 0.413 0.011 0.732 0.095l0.159 0.032c0.043 0 0.090 0.027 0.143 0.080s0.1 0.080 0.143 0.080c0.149-0.021 0.372 0 0.668 0.064l0.254 0.064h0.127c0.043 0 0.117-0.021 0.223-0.064 0.212-0.085 0.371-0.095 0.477-0.032l0.159 0.159 0.382 0.286 0.35 0.286c0.212 0.191 0.382 0.334 0.509 0.429s0.35 0.217 0.668 0.366l0.318 0.127 0.286 0.223c0.043 0.021 0.069 0.058 0.080 0.111s0.005 0.1-0.016 0.143c0 0.085-0.064 0.185-0.191 0.302s-0.202 0.228-0.223 0.334c0 0.043-0.064 0.053-0.191 0.032h-0.064l-0.159 0.032c-0.169 0-0.307 0.032-0.413 0.095s-0.233 0.063-0.382 0c-0.085-0.043-0.201-0.117-0.35-0.223l-0.032-0.032c-0.233-0.191-0.456-0.328-0.668-0.413-0.085-0.021-0.191-0.090-0.318-0.207s-0.244-0.175-0.35-0.175c-0.106-0.106-0.302-0.196-0.588-0.27s-0.482-0.175-0.588-0.302c-0.043-0.043-0.106-0.064-0.191-0.064h-0.064c-0.149 0.021-0.276-0.032-0.382-0.159-0.149-0.234-0.382-0.371-0.7-0.413-0.106-0.043-0.27-0.117-0.493-0.223s-0.403-0.18-0.541-0.223c-0.138-0.043-0.334-0.127-0.588-0.254-0.169-0.106-0.302-0.191-0.398-0.254s-0.143-0.148-0.143-0.254v-0.032c0-0.085 0.043-0.127 0.127-0.127zM24.429 24.778c-0.085-0.212-0.085-0.435 0-0.668 0.043-0.127 0.149-0.308 0.318-0.541l0.127-0.223c0.043-0.085 0.127-0.202 0.254-0.35 0.169-0.212 0.286-0.382 0.35-0.509 0.043-0.085 0.138-0.202 0.286-0.35s0.243-0.276 0.286-0.382c0.127-0.17 0.276-0.17 0.445 0l0.032 0.032c0.085 0.084 0.154 0.132 0.207 0.143s0.122-0.027 0.207-0.111c0.021-0.021 0.053-0.021 0.095 0h0.032c0.445 0.043 0.827-0.042 1.145-0.254h0.223c0.149 0.021 0.361-0.005 0.636-0.080s0.477-0.102 0.604-0.080c0.043 0 0.095-0.027 0.159-0.080s0.111-0.075 0.143-0.064 0.069-0.005 0.111-0.048c0.042-0.043 0.084-0.053 0.127-0.032 0.212 0.043 0.509-0.021 0.891-0.191l0.159-0.064c0.149-0.064 0.281-0.095 0.398-0.095s0.228 0.053 0.334 0.159c-0.063 0.043-0.164 0.101-0.302 0.175s-0.239 0.143-0.302 0.207l-0.127 0.064c-0.085-0.043-0.164-0.048-0.239-0.016s-0.165 0.090-0.27 0.175c-0.105 0.085-0.2 0.127-0.286 0.127-0.127 0-0.307 0.085-0.541 0.254l-0.127 0.095c-0.296 0.233-0.753 0.488-1.368 0.763l-0.445 0.191c-0.085 0.043-0.207 0.117-0.366 0.223s-0.281 0.175-0.366 0.207c-0.085 0.032-0.207 0.090-0.366 0.175s-0.281 0.148-0.366 0.191c-0.148 0.063-0.35 0.159-0.604 0.286l-0.286 0.159-0.095 0.064-0.064 0.064c-0.085 0.106-0.191 0.18-0.318 0.223-0.064 0.021-0.18 0.048-0.35 0.080s-0.298 0.059-0.382 0.080z"></path>
</svg>
