<!-- Generated by IcoMoon.io -->
<svg version="1.1" xmlns="http://www.w3.org/2000/svg" width="512" height="512" viewBox="0 0 512 512">
<title>weapons-blast</title>
<path fill="#fff" d="M308.928 480.928c-2.032-1.008-3.232-3.056-3.568-6.112v-1.52c-0.336-3.392-2.384-4.912-6.112-4.576-1.36 0-2.88 0.512-4.576 1.52-6.112 3.392-10.528 6.448-13.232 9.168l-0.512 1.024c-3.392 3.728-6.448 5.936-9.168 6.608-3.392 0-5.6 2.368-6.608 7.12-0.688 2.368-2.032 5.088-4.064 8.144l-1.024 1.52c-2.368 4.080-5.264 6.272-8.656 6.608s-6.944-1.2-10.688-4.576c-9.504-9.504-22.736-20.016-39.696-31.552-3.392-1.696-6.784-1.952-10.176-0.768s-3.744 3.984-1.024 8.4c1.696 2.368 2.448 3.904 2.288 4.576s-1.28 2.368-3.312 5.088c-6.112-6.112-16.288-14.080-30.544-23.92l-6.608-5.088c-4.4-3.056-8.144-6.272-11.2-9.664-5.776-5.776-14.432-10.848-25.952-15.264-1.344-0.336-3.392-1.184-6.112-2.544-5.088-2.704-9.152-4.064-12.208-4.064-1.008 0-2.032-1.024-3.056-3.056-0.688-1.36-0.768-2.464-0.256-3.312s1.44-1.36 2.8-1.52c1.36-0.16 3.232 0.176 5.6 1.024s4.080 1.104 5.088 0.768l9.664-3.568c2.032-0.688 5.088-1.2 9.168-1.52 3.056 0 5.264-0.176 6.608-0.512l2.032-0.512c3.728-1.008 6.448-1.952 8.144-2.8s3.904-2.8 6.624-5.856c1.008-1.36 2.544-2.368 4.576-3.056 1.36 0 2.544 1.36 3.568 4.064 0.688 1.36 2.368 2.112 5.088 2.288s4.224-0.416 4.576-1.776c1.696-3.728 4.064-7.296 7.12-10.688 1.696-2.032 4.576-4.928 8.656-8.656l10.176-10.688c6.784-6.784 11.376-12.384 13.744-16.8 0.336-0.688 1.2-1.616 2.544-2.8s2.208-2.208 2.544-3.056c0.336-0.848 1.36-1.616 3.056-2.288s2.544-1.856 2.544-3.568c2.384-1.008 4.928-3.216 7.632-6.608l3.056-4.576c1.344-2.032 2.368-3.392 3.056-4.064l2.544-3.056c2.032-3.056 3.728-5.088 5.088-6.112s1.936-1.952 1.776-2.8c-0.176-0.848-0.592-1.952-1.28-3.312l-0.512-1.024c-0.336-1.024-1.36-2.208-3.056-3.568l-1.52-1.52c-0.688-1.008-2.128-2.368-4.32-4.064s-3.808-3.392-4.832-5.088c-1.024-1.696-3.056-3.904-6.112-6.608l-12.72-11.712c-0.336-0.688-1.184-1.536-2.544-2.544l-1.024-1.024c-0.688-1.008-1.28-2.624-1.776-4.832s-1.008-3.824-1.52-4.832-1.696-1.856-3.568-2.544c-1.856-0.688-3.648-2.384-5.344-5.088s-3.216-4.576-4.576-5.6c-2.032-1.36-4.752-3.904-8.144-7.632l-2.544-2.544c-0.336-2.032 0.672-3.904 3.056-5.6 3.056-2.032 7.552-5.68 13.488-10.944s10.784-8.912 14.512-10.944c1.36-1.008 3.216-2.704 5.6-5.088 3.056-3.728 5.76-5.936 8.144-6.624 3.728-4.080 10.096-9.6 19.088-16.544s15.36-12.64 19.088-17.056c1.36-1.696 1.952-3.136 1.776-4.32s-0.928-2.624-2.288-4.32l-3.056-2.544c-2.368-1.696-3.728-3.216-4.064-4.576s-1.52-2.72-3.568-4.064c-1.36-0.336-2.192-0.848-2.544-1.52-1.36-2.72-4.16-6.192-8.4-10.432s-7.040-7.888-8.4-10.944l-1.024-3.568c-1.344-3.392-2.704-5.936-4.064-7.632l-5.6-7.632c-4.4-5.776-7.792-9.84-10.176-12.208-4.080-4.4-8.32-7.968-12.72-10.688-0.336-0.336-0.512-0.848-0.512-1.52s0.336-1.344 1.024-2.032c8.144-3.744 14.24-8.992 18.32-15.776 1.008-1.696 2.88-3.728 5.6-6.112l3.568-3.568c2.368-2.72 4.416-4.496 6.112-5.344s3.392-2.464 5.088-4.832l2.544-3.056c6.112-7.456 11.024-12.72 14.752-15.776 5.088-4.080 9.504-7.296 13.232-9.664 6.784-4.080 12.896-10.176 18.32-18.32l3.056-3.056c1.696-1.696 2.88-3.216 3.568-4.576 1.008 2.368 1.36 4.752 1.024 7.12-0.336 1.36-1.184 3.312-2.544 5.856s-2.192 4.496-2.544 5.856c-2.384 1.696-5.088 5.088-8.144 10.176l-3.568 5.6c-3.728 6.448-8.144 12.896-13.232 19.344-4.4 7.12-7.632 15.264-9.664 24.432-0.688 5.088-0.432 9.408 0.768 12.976s3.488 6.864 6.864 9.92c0.688 0.688 1.536 1.696 2.544 3.056 1.36 2.368 2.624 3.824 3.824 4.32s2.72 1.6 4.576 3.312c1.856 1.712 3.296 2.8 4.32 3.312s2.304 1.68 3.824 3.568c1.52 1.888 2.96 2.976 4.32 3.312s2.88 1.344 4.576 3.056c1.696 1.712 3.232 2.816 4.576 3.312s3.056 1.856 5.088 4.064c2.032 2.208 3.728 3.488 5.088 3.824 2.032 0.688 4.752 2.72 8.144 6.112l1.024 1.024c1.36 1.36 3.568 2.72 6.608 4.064s5.088 2.88 6.112 4.576c0.688 1.024 1.872 1.36 3.568 1.024h9.664c0.688 0 1.184 0.512 1.52 1.52s0.336 2.032 0 3.056-1.696 3.904-4.064 5.6l-3.568 3.568c-10.176 10.864-17.296 19.344-21.376 25.44-0.336 0.688-1.2 1.696-2.544 3.056-3.056 2.704-7.12 7.12-12.208 13.232-4.4 5.424-7.792 9.328-10.176 11.712-0.688 0.688-1.696 2.032-3.056 4.064-2.032 3.056-3.648 4.912-4.832 5.6s-2.544 2.032-4.064 4.064c-1.52 2.032-2.976 3.376-4.32 4.064-2.384 1.696-3.488 4.672-3.312 8.912s1.44 7.216 3.824 8.912c1.344 0.688 2.704 2.128 4.064 4.32s2.544 3.632 3.568 4.32c1.696 1.008 3.904 3.056 6.608 6.112l18.32 18.32c3.056 3.056 5.088 5.6 6.112 7.632 3.056 4.752 6.448 8.304 10.176 10.688s5.68 5.856 5.856 10.432c0.176 4.576-1.44 8.56-4.832 11.952-0.688 1.024-1.872 2.208-3.568 3.568l-1.52 1.52c-1.696 2.368-3.136 3.824-4.32 4.32s-2.624-0.256-4.32-2.288l-1.024-1.024c-0.688-0.688-1.36-0.688-2.032 0l-0.512 1.52c-1.008 0.688-1.008 1.36 0 2.032l0.512 0.512c1.344 1.008 2.032 2.112 2.032 3.312s-0.432 2.128-1.28 2.8c-0.848 0.672-1.44 1.344-1.776 2.032-4.752 5.776-11.696 14.432-20.864 25.952l-8.656 11.2c-1.008 1.36-2.032 3.728-3.056 7.12l-1.52 3.568-0.512 0.512c-1.696 1.36-2.032 2.544-1.024 3.568 0.336 0.336 0.688 1.2 1.024 2.544s0.848 2.208 1.52 2.544c1.696 0.688 3.984 2.208 6.864 4.576s5.344 3.888 7.376 4.576l1.024 0.512c3.392 1.344 5.76 1.696 7.12 1.024 5.088-1.696 12.384-2.192 21.888-1.52h10.688c1.36 0 3.392-0.336 6.112-1.024 4.4-1.008 7.888-1.344 10.432-1.024s6.544 0.336 11.952 0h5.6c4.080 0.336 10.176 1.36 18.32 3.056l6.112 1.024c3.392 1.024 3.904 2.72 1.52 5.088-1.36 1.696-3.552 3.232-6.608 4.576s-5.088 2.704-6.112 4.064c-4.080 4.736-7.984 8.48-11.712 11.2-1.36 1.36-3.648 3.136-6.864 5.344s-5.68 3.984-7.376 5.344l-11.712 11.712c-3.392 2.704-6.608 4.736-9.664 6.112-2.368 0.688-5.424 3.056-9.168 7.12zM179.152 462.608c1.36-1.344 2.032-2.368 2.032-3.056s-0.336-1.36-1.024-2.032c-0.688-0.672-1.28-1.008-1.776-1.024s-1.088 0.336-1.776 1.024c-0.688 0.688-1.024 1.2-1.024 1.52 0.688 1.024 1.872 2.208 3.568 3.568zM52.416 251.904h11.2v-5.6c0-3.392 1.52-5.776 4.576-7.12 7.456-3.392 12.544-6.784 15.264-10.176 1.008 0.336 1.68 0.336 2.032 0s0.688-1.024 1.024-2.032l0.512-1.52c1.696-1.696 3.568-4.576 5.6-8.656 1.696-3.728 3.216-6.272 4.576-7.632 3.056-4.752 4.4-9.664 4.064-14.752-0.688-3.744-2.368-8.48-5.088-14.256-2.704-4.4-6.944-10.688-12.72-18.832l-4.576-7.12c-3.392-2.704-7.456-7.632-12.208-14.752-3.744-5.424-6.704-9.248-8.912-11.456s-5.008-5.68-8.4-10.432l-4.064-5.088c-1.344-1.008-2.032-2.368-2.032-4.064v-2.032c0-1.696 0.432-2.72 1.28-3.056s2.288 0.512 4.32 2.544l2.544 2.544c2.032 2.368 4 3.728 5.856 4.064s3.392 1.936 4.576 4.832c1.184 2.88 3.312 5.344 6.368 7.376s7.472 5.936 13.232 11.712l5.6 5.6c6.448 6.448 13.232 11.536 20.352 15.264 1.696 0.688 3.728 2.384 6.112 5.088l3.056 3.056c1.696-0.688 3.216-0.176 4.576 1.52s2.544 2.544 3.568 2.544c4.736 5.088 10 9.328 15.776 12.72s10.688 8.304 14.752 14.752c1.008 1.696 2.88 3.216 5.6 4.576l1.52 1.024c2.384 1.36 3.744 2.72 4.064 4.064s0.16 3.312-0.512 5.856c-0.672 2.544-2.72 4.832-6.112 6.864-2.032 1.024-3.392 2.032-4.064 3.056-2.704 0.336-6.096 2.384-10.176 6.112-3.056 3.056-5.424 4.912-7.12 5.6s-2.624 2.288-2.8 4.832c-0.176 2.544 0.256 4.496 1.28 5.856l4.576 6.112 3.568 5.088c1.696 2.384 4.576 5.264 8.656 8.656l3.568 3.056c7.12 6.112 11.712 11.376 13.744 15.776 0 1.008 1.024 2.032 3.056 3.056s4.080 2.544 6.112 4.576c1.344 1.344 3.056 3.392 5.088 6.112 2.704 3.728 4.992 6.448 6.864 8.144s3.648 4.4 5.344 8.144c0.688 2.368 1.36 4.080 2.032 5.088 1.36 1.344 2.112 2.544 2.288 3.568s0.944 2.032 2.288 3.056c1.36 1.008 1.856 2.032 1.52 3.056-1.36 3.392-3.232 5.264-5.6 5.6-1.36 0.688-3.056 2.032-5.088 4.064l-5.088 4.576c-2.032 1.696-3.568 3.216-4.576 4.576-1.696 2.72-5.424 6.096-11.2 10.176-3.728 3.056-6.448 5.424-8.144 7.12-2.032 0-3.904 1.36-5.6 4.064-1.008 1.696-2.032 2.88-3.056 3.568-2.032 1.008-4.4 4.064-7.12 9.168l-0.512 1.024c-0.336 0.688-0.848 1.2-1.52 1.52s-1.184 0.336-1.52 0c-0.688-1.008-1.952-1.52-3.824-1.52s-2.976-0.336-3.312-1.024c-0.688-1.344-2.544-2.544-5.6-3.568s-5.008-2.304-5.856-3.824-2.048-2.88-3.568-4.064c-1.52-1.184-3.056-1.68-4.576-1.52s-2.544-0.768-3.056-2.8-1.44-2.88-2.8-2.544c-6.448-5.424-16.464-12.56-30.032-21.376l-1.52-1.52c-1.008-1.008-1.856-1.696-2.544-2.032-2.72-1.696-3.568-4.064-2.544-7.12 0.688-1.024 1.696-1.52 3.056-1.52s2.544 0.336 3.568 1.024c2.384 1.36 6.112 1.856 11.2 1.52 3.056-0.336 5.168-0.336 6.368 0s2.64 0.512 4.32 0.512c3.392-0.336 5.76 0.176 7.12 1.52 1.008 0.336 2.288 0.336 3.824 0s2.976-1.024 4.32-2.032c2.704-1.696 4.32-3.824 4.832-6.368s-0.432-4.512-2.8-5.856c-1.696-1.024-4.064-2.72-7.12-5.088-5.424-4.064-9.84-6.624-13.232-7.632-0.336 0-0.512-0.176-0.512-0.512l-0.512-0.512c-0.688-2.72-3.056-5.6-7.12-8.656-2.384-2.032-4.080-3.568-5.088-4.576l-1.52-2.032c-1.008-1.696-1.936-2.976-2.8-3.824s-2.128-1.104-3.824-0.768c0-1.36-0.336-2.368-1.024-3.056s-1.792-1.36-3.312-2.032c-1.52-0.672-2.624-1.344-3.312-2.032l-1.52-2.032c-1.696-3.392-3.568-5.424-5.6-6.112l-0.512-1.024c0 0-0.512-0.512-1.52-1.52-2.368-1.344-5.264-4.752-8.656-10.176zM119.6 302.288c0-1.008-0.080-1.68-0.256-2.032s-0.768-0.688-1.776-1.024c-2.72-0.688-4.832-1.792-6.368-3.312s-2.72-1.36-3.568 0.512c-0.848 1.872-1.008 3.232-0.512 4.064s1.6 1.6 3.312 2.288c1.712 0.688 2.56 1.536 2.544 2.544s0.16 1.6 0.512 1.776c0.352 0.176 0.848 0.080 1.52-0.256l1.52-1.024c1.36-0.688 2.288-1.184 2.8-1.52s0.592-1.008 0.256-2.032zM115.536 189.312c-1.008 0.688-1.856 1.36-2.544 2.032-1.36 1.008-1.52 3.056-0.512 6.112h1.52c1.36-0.336 1.856-1.536 1.52-3.568v-4.576zM355.744 391.856c-1.008 0-2.544-0.336-4.576-1.024-6.112-1.008-10.688-1.36-13.744-1.024-4.080 0.336-9.84 1.536-17.296 3.568-3.728 0.688-8.992 1.024-15.776 1.024h-9.664c-1.696 0-2.72-0.848-3.056-2.544s0.176-3.216 1.52-4.576c3.392-3.744 6.288-7.632 8.656-11.712 0.688-1.36 2.128-3.056 4.32-5.088s3.632-4.080 4.32-6.112c0-1.008 0.848-2.208 2.544-3.568l2.032-1.52 40.72-40.72c2.72-2.72 4.064-5.168 4.064-7.376s-1.856-4.496-5.6-6.864c-3.728-2.368-9.328-6.432-16.8-12.208-8.816-6.112-15.6-10.688-20.352-13.744-1.36-0.688-2.368-1.792-3.056-3.312s-0.768-2.8-0.256-3.824c0.512-1.024 1.024-2.464 1.52-4.32s1.184-3.472 2.032-4.832c0.848-1.376 2.128-2.384 3.824-3.056s3.488-1.856 5.344-3.568c1.872-1.712 3.152-3.568 3.824-5.6 0.336-1.008 1.024-2.032 2.032-3.056 3.744-3.056 8.656-8.304 14.752-15.776 5.424-6.448 9.744-11.024 12.976-13.744s4.912-4.672 5.088-5.856c0.176-1.184 1.104-2.112 2.8-2.8 1.008-0.336 1.6-0.688 1.776-1.024s0.080-1.024-0.256-2.032l3.056-2.032c3.728-2.384 6.192-4.496 7.376-6.368s3.136-4.496 5.856-7.888l2.032-2.032c2.032-1.696 3.728-2.88 5.088-3.568 0.688 0 1.36-0.512 2.032-1.52 1.36-1.696 2.72-2.368 4.064-2.032 0.336 0 0.688-0.512 1.024-1.52l0.512-1.024c1.36-0.688 3.056-2.288 5.088-4.832s3.904-4.32 5.6-5.344c2.72-1.344 5.776-4.576 9.168-9.664l1.024-1.52c0.688-1.008 2.72-2.368 6.112-4.064 2.032-1.36 4.752-4.064 8.144-8.144l4.576-4.576c1.36-1.008 2.288-1.184 2.8-0.512s0.688 1.952 0.512 3.824c-0.176 1.888-1.44 4-3.824 6.368l-1.024 1.024c-2.384 3.056-5.44 7.808-9.168 14.256-2.72 4.736-4.832 8.144-6.368 10.176s-3.312 5.088-5.344 9.168c-2.72 5.088-5.088 8.656-7.12 10.688-0.688 0.688-1.2 2.032-1.52 4.064-0.336 2.72-1.184 4.752-2.544 6.112l-1.024 1.024c-3.392 2.384-5.248 4.928-5.6 7.632-2.368 1.36-4.416 4.24-6.112 8.656-1.024 3.056-2.032 5.088-3.056 6.112s-2.224 2.896-3.568 5.6l-2.032 3.056-1.024 3.056c-1.36 3.056-2.72 5.264-4.064 6.624-2.032 3.056-2.8 6.016-2.288 8.912s2.128 5.344 4.832 7.376c3.728 2.704 9.168 6.944 16.288 12.72l12.72 9.664c3.392 2.384 7.632 6.288 12.72 11.712 3.392 3.392 6.112 5.936 8.144 7.632 0.688 0.688 1.024 1.36 1.024 2.032s-0.336 1.52-1.024 2.544c-0.336 0-0.848 0.336-1.52 1.024-3.392 2.72-7.968 7.296-13.744 13.744-5.088 5.424-8.992 9.344-11.712 11.712-2.384 1.696-3.568 3.744-3.568 6.112 0.336 1.36-0.336 2.544-2.032 3.568-0.688 1.008-1.184 1.696-1.52 2.032-4.080 3.392-9.344 9.328-15.776 17.808-5.088 6.432-8.992 11.024-11.712 13.744-1.024 1.008-1.856 2.8-2.544 5.344s-1.36 4.336-2.032 5.344c-1.008 3.056-3.056 4.24-6.112 3.568-0.336-0.336-0.848-0.688-1.52-1.024h-3.056zM358.288 381.168c0.336 0 0.688-0.176 1.024-0.512l-1.52-1.024-0.512 1.024c0.336 0.336 0.688 0.512 1.024 0.512zM2.032 350.64c1.696 1.696 4.832 2.464 9.408 2.288s7.712 0.432 9.408 1.776c1.008-0.336 2.448-0.080 4.32 0.768s3.312 1.2 4.32 1.024c1.008-0.176 2.88-0.080 5.6 0.256h2.544c2.72-0.336 6.608 0.176 11.712 1.52l2.544 0.512c0.688 0 1.44 0.432 2.288 1.28s1.6 1.28 2.288 1.28c2.384-0.336 5.952 0 10.688 1.024l4.064 1.024h2.032c0.688 0 1.872-0.336 3.568-1.024 3.392-1.36 5.936-1.52 7.632-0.512l2.544 2.544 6.112 4.576 5.6 4.576c3.392 3.056 6.112 5.344 8.144 6.864s5.6 3.472 10.688 5.856l5.088 2.032 4.576 3.568c0.688 0.336 1.104 0.928 1.28 1.776s0.080 1.6-0.256 2.288c0 1.36-1.024 2.96-3.056 4.832s-3.232 3.648-3.568 5.344c0 0.688-1.024 0.848-3.056 0.512h-1.024l-2.544 0.512c-2.704 0-4.912 0.512-6.608 1.52s-3.728 1.008-6.112 0c-1.36-0.688-3.216-1.872-5.6-3.568l-0.512-0.512c-3.728-3.056-7.296-5.248-10.688-6.608-1.36-0.336-3.056-1.44-5.088-3.312s-3.904-2.8-5.6-2.8c-1.696-1.696-4.832-3.136-9.408-4.32s-7.712-2.8-9.408-4.832c-0.688-0.688-1.696-1.024-3.056-1.024h-1.024c-2.384 0.336-4.416-0.512-6.112-2.544-2.384-3.744-6.112-5.936-11.2-6.608-1.696-0.688-4.32-1.872-7.888-3.568s-6.448-2.88-8.656-3.568c-2.208-0.688-5.344-2.032-9.408-4.064-2.704-1.696-4.832-3.056-6.368-4.064s-2.288-2.368-2.288-4.064v-0.512c0-1.36 0.688-2.032 2.032-2.032zM390.864 396.448c-1.36-3.392-1.36-6.96 0-10.688 0.688-2.032 2.384-4.928 5.088-8.656l2.032-3.568c0.688-1.36 2.032-3.232 4.064-5.6 2.704-3.392 4.576-6.112 5.6-8.144 0.688-1.36 2.208-3.232 4.576-5.6s3.888-4.416 4.576-6.112c2.032-2.72 4.416-2.72 7.12 0l0.512 0.512c1.36 1.344 2.464 2.112 3.312 2.288s1.952-0.432 3.312-1.776c0.336-0.336 0.848-0.336 1.52 0h0.512c7.12 0.688 13.232-0.672 18.32-4.064h3.568c2.384 0.336 5.776-0.080 10.176-1.28s7.632-1.632 9.664-1.28c0.688 0 1.52-0.432 2.544-1.28s1.776-1.2 2.288-1.024 1.104-0.080 1.776-0.768c0.672-0.688 1.344-0.848 2.032-0.512 3.392 0.688 8.144-0.336 14.256-3.056l2.544-1.024c2.384-1.024 4.496-1.52 6.368-1.52s3.648 0.848 5.344 2.544c-1.008 0.688-2.624 1.616-4.832 2.8s-3.824 2.288-4.832 3.312l-2.032 1.024c-1.36-0.688-2.624-0.768-3.824-0.256s-2.64 1.44-4.32 2.8c-1.68 1.36-3.2 2.032-4.576 2.032-2.032 0-4.912 1.36-8.656 4.064l-2.032 1.52c-4.736 3.728-12.048 7.808-21.888 12.208l-7.12 3.056c-1.36 0.688-3.312 1.872-5.856 3.568s-4.496 2.8-5.856 3.312c-1.36 0.512-3.312 1.44-5.856 2.8s-4.496 2.368-5.856 3.056c-2.368 1.008-5.6 2.544-9.664 4.576l-4.576 2.544-1.52 1.024-1.024 1.024c-1.36 1.696-3.056 2.88-5.088 3.568-1.024 0.336-2.88 0.768-5.6 1.28s-4.768 0.944-6.112 1.28z"></path>
</svg>
