<!-- Generated by IcoMoon.io -->
<svg version="1.1" xmlns="http://www.w3.org/2000/svg" width="512" height="512" viewBox="0 0 512 512">
<title>weapons-hook</title>
<path fill="#fff" d="M316.048 508.848c-16.592-4.736-38.816-20.448-47.712-33.2-16.304-24-18.672-31.408-18.976-56.896-0.288-20.736 0.896-26.672 8-41.2 10.080-20.736 19.552-32 36.144-43.568 14.224-9.776 15.712-15.12 7.408-26.368-6.512-8.304-3.856-17.776 5.040-17.776s12.448-6.512 12.448-22.816c0-11.568-1.184-16.304-5.040-18.368-14.816-8.304-14.816-8.592-4.448-17.776 8.304-7.712 9.488-10.672 9.488-23.408 0-25.184-5.328-25.184-28.752-1.184-34.672 35.856-37.344 40-30.528 46.816 3.552 3.552-8.896 23.712-19.856 32.016-7.12 5.328-7.408 5.328-13.936-0.896l-6.816-6.512-37.632 39.12c-22.528 23.712-37.344 41.2-36.752 44.16 0.592 2.656-3.552 10.080-8.896 16-5.328 6.224-13.328 18.976-17.776 28.752-4.448 9.488-9.184 17.488-10.368 17.488-3.264 0-37.344-32.592-40.896-39.12-2.96-5.632 3.264-22.816 10.672-29.040 2.96-2.368 10.96-11.856 18.080-21.344 7.696-9.776 14.816-16.304 17.184-15.408 4.736 1.776 11.264-5.632 10.080-11.568-1.184-5.040 17.488-26.672 21.040-24.304 3.552 2.080 9.184-5.328 10.672-13.632 0.896-3.552 5.632-10.96 10.672-16.304 12.736-13.040 10.672-18.976-16.592-47.424-12.144-13.040-22.224-24-22.224-24.592s5.92 0 13.040 0.896c16.304 2.656 46.224 13.936 57.792 22.224 8 5.92 18.080 5.92 18.080 0.288 0-5.040 33.2-38.224 56.304-56.608 15.712-12.144 23.408-20.16 22.528-23.104-1.472-5.632 13.040-18.368 21.632-18.976 3.264 0 5.040-1.776 3.856-3.552-0.896-1.472-16.304-24.896-34.080-51.264-17.776-26.672-31.408-49.184-30.528-50.080 2.080-2.080 33.776 16.896 55.12 33.488 8.896 6.816 23.408 20.16 31.712 29.632l15.712 17.184 8.592-8.304c4.448-4.448 9.488-7.696 10.96-7.408 6.224 1.184 10.080-0.592 10.080-4.448 0-2.368 5.92-8.304 13.328-13.328 20.736-13.936 24.592-15.712 26.976-11.568 1.184 1.776 0.896 2.368-0.896 1.472-1.472-0.896-5.92 0.288-9.488 2.96-8.896 5.92-4.144 10.96 6.512 7.12 11.264-4.448 18.976 3.552 22.224 22.528 1.472 8.592 1.776 16.592 0.288 17.776-1.184 1.184-2.656 5.632-3.264 9.776-0.592 5.92-5.632 9.776-24 19.264-20.448 10.368-22.816 12.752-21.344 18.672 1.184 5.040-1.472 9.776-11.264 20.448l-13.040 13.632-8-5.328c-7.712-5.040-8-5.040-14.816 1.184-6.224 5.92-6.816 8.592-5.632 26.368 1.776 23.12 5.632 30.816 18.368 36.144 12.448 5.040 11.568 11.264-1.472 13.632l-10.672 2.080 1.184 23.408c0.896 21.344 1.776 24.304 9.184 30.528 4.448 3.856 8 7.712 8 8.592s-3.856 3.552-8.896 6.224c-8 4.144-8.592 5.92-9.488 23.12l-0.896 18.368-15.408 7.408c-26.672 12.752-48.304 38.816-48.304 58.384 0 22.816 14.816 48 33.776 57.2 15.408 7.408 46.528 8.304 53.344 1.472 2.368-2.368 6.224-4.448 8.304-4.448 4.736-0.288 39.12-32.592 44.16-42.080 2.080-3.856 3.552-15.712 3.552-26.672-0.288-11.264 0-20.16 0.592-20.16 0.288 0 3.856 6.224 7.408 14.224 5.328 10.672 6.816 19.552 7.12 39.12 0.288 22.528-0.592 26.368-6.816 34.080-5.92 7.408-6.512 7.712-5.040 2.368 2.96-9.488 0.896-8.592-15.12 7.12-21.040 20.448-44.752 30.528-70.528 30.224-11.264 0-25.184-1.472-30.528-2.96z"></path>
</svg>
