<!-- Generated by IcoMoon.io -->
<svg version="1.1" xmlns="http://www.w3.org/2000/svg" width="32" height="32" viewBox="0 0 32 32">
<title>weapons-ranged-weapon</title>
<path fill="#fff" d="M31.151 0.009c-0.171 0.362-0.405 0.918-0.704 1.665-0.384 0.982-0.704 1.698-0.961 2.146-0.726 1.195-1.292 2.412-1.697 3.651l-0.064 0.16c-0.043 0.15-0.085 0.261-0.128 0.336s-0.133 0.112-0.272 0.112-0.229-0.032-0.272-0.096c-0.043-0.064-0.064-0.17-0.064-0.32l-0.032-0.192c-0.064-0.513-0.342-0.609-0.833-0.288-0.256 0.171-0.523 0.395-0.801 0.672-0.171 0.171-0.416 0.437-0.736 0.801l-1.761 1.985c-1.025 1.11-1.804 1.943-2.338 2.498-0.341 0.363-0.811 0.928-1.409 1.697-0.705 0.875-1.26 1.516-1.665 1.921-1.559 1.559-3.277 3.661-5.156 6.308-0.298 0.405-0.448 0.854-0.448 1.345 0.021 0.256 0.021 0.651 0 1.185l-0.032 0.801c0 0.363-0.118 0.619-0.352 0.769-0.405 0.277-0.79 0.63-1.153 1.057-0.235 0.277-0.555 0.694-0.961 1.249-0.299 0.427-0.534 0.736-0.704 0.929l-0.416 0.448c-0.384 0.405-0.651 0.726-0.801 0.961-0.043 0.064-0.101 0.117-0.176 0.16s-0.144 0.043-0.208 0c-0.149-0.043-0.203-0.203-0.16-0.48 0.064-0.555 0.16-1.1 0.288-1.633 0.043-0.234 0.064-0.598 0.064-1.089 0-0.363-0.149-0.587-0.448-0.672l-0.064-0.032c-0.064-0.021-0.107-0.043-0.128-0.064-0.47-0.469-1.025-0.704-1.665-0.704-0.384 0.021-0.961 0.149-1.729 0.384l-0.384 0.096c-0.149 0.021-0.266 0.021-0.352 0-0.107 0-0.187-0.048-0.24-0.144s-0.064-0.181-0.032-0.256 0.091-0.165 0.176-0.272l0.032-0.032c0.555-0.598 1.196-1.185 1.921-1.761 0.256-0.192 0.555-0.224 0.897-0.096 0.192 0.064 0.357 0.096 0.496 0.096s0.277-0.043 0.416-0.128c0.139-0.086 0.251-0.171 0.336-0.256s0.128-0.203 0.128-0.352c0-0.234-0.149-0.373-0.448-0.416-0.171-0.043-0.261-0.117-0.272-0.224s0.037-0.224 0.144-0.352l1.057-1.185c0.277-0.298 0.657-0.378 1.137-0.24s0.924 0.101 1.329-0.112c0.235-0.149 0.555-0.438 0.961-0.865l0.064-0.096c2.284-2.647 4.312-4.836 6.084-6.565 0.62-0.598 1.505-1.527 2.658-2.786l0.993-1.089c0.555-0.641 1.003-1.089 1.345-1.345s0.544-0.507 0.608-0.753c0.064-0.246 0.192-0.486 0.384-0.721 0.128-0.128 0.33-0.299 0.608-0.512 0.534-0.427 0.94-0.864 1.217-1.313 0.149-0.235 0.197-0.416 0.144-0.544s-0.208-0.234-0.464-0.32l-0.096-0.032c-0.107-0.021-0.192-0.043-0.256-0.064-0.192-0.085-0.293-0.197-0.304-0.336s0.070-0.261 0.24-0.368c0.32-0.192 0.811-0.47 1.473-0.833l0.736-0.416c0.705-0.363 1.484-0.822 2.338-1.377 0.512-0.341 1.271-0.864 2.274-1.569 0.064 0 0.16-0.027 0.288-0.080s0.245-0.069 0.352-0.048zM23.145 8.303v-0.128l-0.128 0.032v0.032c0 0.043 0.011 0.069 0.032 0.080s0.043 0.005 0.064-0.016zM30.062 1.258h-0.032l-0.032 0.032 0.064 0.064 0.032-0.032c0-0.043-0.011-0.064-0.032-0.064zM20.711 14.548c0.192-0.213 0.459-0.539 0.801-0.977s0.609-0.753 0.801-0.945c0.299-0.341 0.593-0.625 0.881-0.849s0.539-0.283 0.753-0.176c0.641 0.277 1.26 0.352 1.857 0.224 0.534-0.128 1.068-0.438 1.601-0.929 0.171-0.15 0.298-0.224 0.384-0.224s0.139 0.128 0.16 0.384c0 0.15 0.064 0.256 0.192 0.32 1.067 0.726 1.878 1.798 2.434 3.218s0.662 2.94 0.32 4.563c-0.405 1.751-0.896 3.234-1.473 4.451-0.384 0.854-0.597 1.634-0.64 2.338-0.064 0.854 0.091 1.66 0.464 2.418s0.998 1.233 1.873 1.425c0.32 0 0.501 0.107 0.544 0.32 0.021 0.107 0 0.192-0.064 0.256s-0.149 0.128-0.256 0.192l-0.096 0.032c-0.405 0.256-0.768 0.405-1.089 0.448-0.405 0.043-0.811-0.043-1.217-0.256l-0.576-0.288c-0.534-0.213-0.918-0.437-1.153-0.672-0.448-0.491-0.768-1.067-0.961-1.729-0.15-0.491-0.256-1.152-0.32-1.985-0.043-0.747 0.053-1.548 0.288-2.402 0.149-0.491 0.427-1.238 0.833-2.242l0.096-0.224c0.469-1.046 0.651-2.018 0.544-2.914-0.021-0.128-0.043-0.331-0.064-0.608-0.021-0.577-0.096-1.004-0.224-1.281-0.128-0.235-0.266-0.395-0.416-0.48s-0.346-0.139-0.592-0.16c-0.245-0.021-0.614-0.021-1.105 0l-0.736 0.032c-0.555 0-1.121-0.096-1.697-0.288-0.469-0.171-0.992-0.416-1.569-0.736-0.043-0.021-0.139-0.064-0.288-0.128zM26.732 15.188c0.021-0.021 0.043-0.032 0.064-0.032l0.032-0.032c-0.043-0.043-0.075-0.064-0.096-0.064h-0.064c0 0.085 0.021 0.128 0.064 0.128zM0.345 7.022v-0.608c0-0.107 0.032-0.203 0.096-0.288s0.149-0.128 0.256-0.128l0.128-0.032c0.107-0.021 0.197-0.027 0.272-0.016s0.144 0.059 0.208 0.144l0.096 0.096c0.085 0.107 0.139 0.192 0.16 0.256 0.513 0.769 1.132 1.089 1.857 0.961 0.149-0.021 0.32-0.021 0.512 0 0.726 0.171 1.43 0.096 2.113-0.224 0.427-0.192 1.003-0.587 1.729-1.185 1.473-1.323 3.224-2.209 5.252-2.658 1.11-0.234 2.231-0.266 3.362-0.096 1.025 0.149 2.081 0.47 3.17 0.961 0.15 0.064 0.336 0.219 0.56 0.464s0.422 0.4 0.592 0.464c0.064 0.021 0.086 0.070 0.064 0.144s-0.064 0.144-0.128 0.208c-0.107 0.171-0.213 0.448-0.32 0.833-0.043 0.213-0.091 0.378-0.144 0.496s-0.070 0.272-0.048 0.464c0.021 0.107 0.064 0.277 0.128 0.512l0.032 0.128c0.107 0.277 0.144 0.518 0.112 0.721s-0.176 0.39-0.432 0.56c-0.256 0.17-0.555 0.512-0.897 1.025l-0.32 0.448c-0.47 0.555-0.832 0.961-1.089 1.217-0.32 0.341-0.576 0.298-0.769-0.128-0.277-0.598-0.416-1.1-0.416-1.505-0.043-0.875-0.032-1.516 0.032-1.921 0.107-0.534-0.085-0.865-0.576-0.993h-0.064c-0.384-0.128-0.672-0.214-0.865-0.256-0.32-0.043-0.619-0.032-0.897 0.032-0.213 0.064-0.437 0.096-0.672 0.096-0.662-0.021-1.324 0.117-1.985 0.416-0.448 0.192-1.024 0.544-1.729 1.057-0.469 0.341-1.014 0.63-1.633 0.865-0.47 0.171-1.068 0.341-1.793 0.512s-1.473 0.16-2.242-0.032c-0.598-0.128-1.292-0.406-2.081-0.833-0.277-0.17-0.555-0.438-0.833-0.801l-0.064-0.096c-0.171-0.277-0.341-0.459-0.512-0.544-0.128-0.043-0.203-0.128-0.224-0.256-0.022-0.064-0.022-0.171 0-0.32v-0.16zM14.243 6.542c-0.021-0.021-0.048-0.037-0.080-0.048s-0.059-0.011-0.080 0c-0.021 0.011-0.032 0.027-0.032 0.048l-0.032 0.064c0.043 0.086 0.096 0.107 0.16 0.064z"></path>
</svg>
