<!-- Generated by IcoMoon.io -->
<svg version="1.1" xmlns="http://www.w3.org/2000/svg" width="37" height="32" viewBox="0 0 37 32">
<title>weapons-unarmed</title>
<path fill="#fff" d="M3.296 19.84q-0.032-0.128-0.256-0.096l-0.032 0.032 0.032 0.064h0.032q0.128 0.032 0.224 0zM27.584 13.792q0-0.256-0.32-0.384-0.16 0-0.224 0.064 0 0.128 0.112 0.304t0.24 0.24q0.192 0 0.192-0.224zM24.192 19.008q0-0.096-0.128-0.224-0.16 0-0.224 0.192 0.096 0.16 0.288 0.16 0.064-0.032 0.064-0.128zM15.264 17.536q0.16 0.16 0.288 0.16l0.064-0.064q-0.096-0.384-0.512-0.576-0.032 0.032-0.048 0.144t0.112 0.24zM4.8 9.728q0.832 0.416 1.952 0.736 0.64 0.224 1.952 0.544 1.12 0.288 1.664 0.448 0.192 0.064 0.352-0.064h0.352q-0.064-0.256-0.288-0.384-0.128-0.096-0.416-0.192-0.416-0.128-0.576-0.288-0.736-0.256-1.536-0.736-0.48-0.256-1.376-0.896l-0.32-0.224q-0.416-0.256-1.312-0.704-0.32-0.128-0.592-0.016t-0.432 0.432q-0.224 0.48-0.064 0.768 0.128 0.384 0.64 0.576zM22.592 1.408q0.064 0.192 0.192 0.64l0.032 0.224q0 0.16 0.096 0.352l0.064 0.48q0.096 0.64 0.128 0.96v0.128q0.064 0.992-0.128 1.888l-0.032 0.064q-0.032 0.16-0.096 0.224 0.032 0.064 0 0.192l-0.064 0.288q-0.096 0.224-0.096 0.512v0.192l0.032 0.192q0.064 0.128 0.16 0.128h0.032l0.064 0.128v-0.16l0.096-0.096q0.032-0.128 0.032-0.384v-0.48l0.128-0.64q0.032-0.064 0.16-0.192 0.032-0.032 0-0.096v-0.032q0-0.512 0.256-1.472 0.128-0.512 0.16-0.768l0.096-0.384q0.128-0.544 0.096-0.8l-0.032-0.256q0.064-0.16 0.096-0.384v-0.224l0.064-0.128q0.096-0.224 0.064-0.48-0.032-0.16-0.16-0.448 0-0.032-0.096-0.128t-0.096-0.16v-0.096q-0.032-0.128-0.064-0.176t-0.16-0.048q-0.256 0-0.368 0.080t-0.24 0.24l-0.064 0.064-0.128 0.256-0.128 0.192q-0.224 0.16-0.064 0.48-0.064 0.064-0.032 0.128zM18.72 20.096q0.16 0.48 0.672 0.848t0.992 0.336q0.064 0 0.16-0.064l0.064-0.032q0.16-0.064 0.24-0.192t0.048-0.224-0.128-0.224l-0.064-0.064q-0.448-0.576-1.536-0.928-0.128-0.064-0.32 0.064l-0.096 0.064q-0.064 0.032-0.064 0.176t0.032 0.24zM26.24 18.048q0.16-0.096 0.32-0.32l0.256-0.512q0.064-0.064 0.16-0.256l0.096-0.16q0.16-0.256 0.48-0.832 0.384-0.544 0.544-1.024t0.128-0.768q0.032-0.48-0.192-0.784t-0.8-0.464l-0.096-0.032q-0.224-0.032-0.32-0.096-0.192-0.064-0.272-0.24t-0.432-0.336l-0.192-0.096q-0.416-0.256-0.832-0.624t-0.864-1.264q-0.224-0.576-0.704-0.832-0.448-0.224-1.024-0.192-1.024 0-1.984 0.64-0.064 0.032-0.128 0.096l-0.384 0.128-0.224 0.032q-0.384 0.096-0.576 0.192h-0.096q-0.384-0.064-0.8 0.032-0.288 0.064-0.8 0.224l-0.32 0.096q-1.184 0.32-2.4 0.992-0.16 0.096-0.48 0.176t-0.48 0.176l-0.672 0.416q-1.408 0.928-2.176 1.28l-0.32 0.128q-0.288 0.128-0.384 0.192l-2.4 1.408q-1.504 0.864-2.208 1.376-0.192 0.128-0.544 0.352-0.576 0.32-0.832 0.544-0.544 0.448-1.44 1.024-0.256 0.192-0.672 0.608-0.288 0.288-0.448 0.416-0.064 0.064-0.080 0.176t0.048 0.176l0.032 0.032q0.064 0.064 0.096 0.112t0.224 0.144l0.096 0.032q0.288 0.16 0.512 0.096t0.48-0.288q0.224-0.064 0.352-0.192 0-0.032 0.064-0.096h0.48q0.192 0 0.32 0.048t0.208 0.208 0.048 0.288l-0.256 0.32q-0.448 0.576-0.736 0.8-0.128 0.16-0.416 0.416l-0.224 0.224q-0.192 0.16-0.416 0.416l-0.096 0.096q-0.352 0.288-0.352 0.608v0.128l-0.416 1.344q-0.256 0.576-0.288 0.928 0 0.064-0.032 0.064l-0.192 0.384q-0.224 0.416-0.192 0.608-0.32 0.96-0.544 1.408l-0.32 0.832q-0.096 0.256-0.112 0.528t0.080 0.304v0.032h0.064q0.448-0.128 0.576-0.704 0.064-0.352 0.176-0.56t0.368-0.56l0.32-0.512q0.096-0.128 0.304-0.352t0.304-0.352q0.32-0.288 1.088-0.736 0.256-0.096 0.448-0.256l0.064-0.064q1.024-0.672 2.912-1.28 0.768-0.256 1.008 0.576t0.24 1.824v0.16q-0.032 0.192-0.016 0.304t0.144 0.176h0.032l0.16 0.064q0.16 0 0.224-0.032 0.128-0.032 0.224-0.224l0.032-0.064q0.128-0.256 0.16-0.384l0.032-0.16q0.192-0.544 0.288-0.8l0.416-0.704 0.576-0.96q0.128-0.192 0.368-0.576t0.368-0.544l0.096-0.256q0.608-0.896 1.12-1.44 0.256-0.256 0.704-0.832l0.32-0.288q0.288-0.256 0.416-0.416l0.064-0.032q0.224-0.128 0.32-0.384l0.128-0.352q0.064-0.096 0.064-0.192t-0.064-0.256q-0.16-0.352-0.384-1.024l-0.288-0.768q-0.032-0.128-0.032-0.192l0.096-0.16q0.16-0.096 0.304-0.032t0.208 0.192q0.128 0.256 0.48 0.704 0.48 0.576 0.576 0.96 0.128 0.512 0.432 0.704t0.848 0.128q0.608-0.064 1.088-0.288l0.256-0.16q0.288-0.192 0.448-0.256 0.224-0.096 0.416 0.032 0.32 0.224 1.040 0.512t1.040 0.48q0.512 0.32 0.832 0.768 0.416 0.576 0.832 0.592t1.056-0.432l0.064-0.064q0.256-0.192 0.384-0.32l0.128-0.096q0.352-0.352 0.512-0.576 0.16-0.16 0.192-0.288 0.128-0.256 0.096-0.352t-0.256-0.352q-0.032-0.032-0.096-0.128l-0.064-0.096q-0.512-0.672-1.12-1.312-0.192-0.224-0.768-0.576-0.32-0.192-0.448-0.288-0.288-0.192-0.32-0.352t0.192-0.448q0.096-0.096 0.192-0.32t0.16-0.32q0.192-0.352 0.032-0.544-0.192-0.256-0.224-0.576-0.032-0.224-0.032-0.64v-0.192q0-0.448 0.096-0.576 0.224-0.224 0.768-0.352l0.032 0.384q0.064 0.672 0 1.024l-0.032 0.096q-0.16 0.256-0.064 0.544 0 0.672 0.384 0.96 0.224 0.288 0.544 0.288 0.256 0.064 0.416 0.064h0.832q0.32 0 0.384 0.128t-0.064 0.352l-0.352 0.352q-0.128 0.128-0.192 0.464t0.064 0.464v0q0.032 0.224 0.176 0.432t0.432 0.496q0.288 0.224 0.432 0.272t0.208 0.048 0.16-0.064zM27.040 13.472q0.032-0.064 0.224-0.064 0.32 0.096 0.32 0.352t-0.192 0.256q-0.128-0.064-0.24-0.24t-0.112-0.304zM15.584 17.6q0 0.064-0.096 0.064t-0.256-0.16l-0.064-0.064q-0.192-0.16-0.16-0.288l0.032-0.128q0.512 0.192 0.544 0.576zM3.008 19.776l0.032-0.032q0.16-0.032 0.256 0.096-0.032 0.032-0.128 0h-0.128zM23.872 18.944q0-0.16 0.224-0.192l0.032 0.064q0.064 0.096 0.064 0.176t-0.064 0.112-0.144-0.016-0.112-0.144zM20.256 23.136q-0.32-0.192-0.8-0.704-0.576-0.608-0.96-0.768-0.288-0.096-0.224-0.32 0-0.032 0.032-0.064 0.064-0.096 0.128-0.256l0.032-0.064q0.096-0.096 0.096-0.256l-0.8-0.96q-0.16-0.224-0.416-0.128-0.096 0.064-0.096 0.256v0.064q-0.064 0.128 0.096 0.448l0.096 0.224q0.096 0.352 0 0.48-0.032 0.096-0.128 0.096t-0.288-0.128q-0.672-0.288-1.728-0.064-0.352 0.064-1.056 0.384-0.512 0.224-0.8 0.32-0.032 0-0.064 0.096l-0.128 0.16 0.192-0.032 0.032 0.032q0.096 0.064 0.16 0.064h0.128q0.224 0 0.32-0.032 0.736-0.32 1.568-0.16 0.64 0.128 1.504 0.576l0.16 0.096q0.896 0.48 1.28 0.8 0.128 0.128 0.416 0.352l0.192 0.16q0.544 0.544 0.704 0.896 0.512 0.896 0.416 1.984l-0.192 0.896q-0.16 0.512-0.448 1.12l-0.096 0.16q-0.768 1.12-1.312 1.6-0.032 0-0.064 0.048t0 0.112l0.064 0.032q0.16 0 0.256-0.064t0.224-0.128q0.832-0.448 1.408-1.152l0.192-0.192 0.192-0.224q0.224-0.224 0.32-0.48l0.032-0.128q0.128-0.256 0.224-0.544l0.128-0.256q0.096-0.192 0.096-0.32v-0.48q0.032-0.672 0-1.024-0.064-0.544-0.288-0.944t-0.608-1.2zM10.944 8q0.128 1.088 1.312 1.472 0.224 0.096 0.672 0.192l0.128 0.032 0.64 0.096q1.184 0.192 2.336 0 0.192 0 0.64-0.128 1.216-0.416 2.176-1.248 0.096-0.064 0.224-0.224l0.288-0.288q0.256-0.224 0.368-0.352t0.112-0.288v-0.16l0.064-0.128q0.064-0.128 0.128-0.384v-0.032h0.032q0.192-0.416 0.256-1.024 0.032-0.384-0.064-0.832-0.032-0.288-0.192-0.8l-0.128-0.512-0.032-0.192q0-0.224-0.064-0.32-0.352-0.64-1.056-1.248-0.128-0.064-0.192 0.032-0.032 0.032-0.032 0.096t0.096 0.16q0 0.064 0.032 0.16l0.032 0.032q0.512 0.608 0.608 1.696-0.032 0.192 0 0.288 0 0.032 0.032 0.064 0.064 1.408-0.576 2.592-0.48 0.608-0.8 0.928-0.512 0.48-1.088 0.736-1.568 0.672-2.784 0.64h-0.736q-0.384 0.032-1.024-0.192l-0.224-0.064q-0.32-0.128-0.496-0.32t-0.208-0.512q-0.032-0.128-0.208-0.272t-0.208-0.016l-0.064 0.032q-0.096 0.096-0.032 0.16 0 0.064 0.032 0.128zM27.424 11.392q0.064 0.032 0.224 0.16 0.256 0.16 0.384 0.224 0.224 0.096 0.448 0.064 0.448 0.192 0.96 0.288 0.864 0.16 1.68-0.048t1.456-0.816l0.064-0.064q0.16-0.16 0.192-0.256t0.032-0.32v-0.192q-0.192 0.096-0.512 0.272t-0.48 0.24l-0.128 0.064q-0.16 0.096-0.256 0.064-0.288-0.032-0.912 0t-0.944 0q-0.512-0.064-0.928-0.256l-0.224-0.128q-0.48-0.256-0.704-0.416-0.32-0.288-0.448-0.672l-0.064-0.192q-0.256-0.672-0.352-0.992-0.352-1.472-0.096-2.464 0.064-0.192 0.256-0.64 0.16-0.16 0.24-0.4t0.144-0.336l0.64-1.056 0.096-0.096q0.256-0.16 0.096-0.48-0.128 0.064-0.352 0.192-0.352 0.16-0.48 0.288l-0.48 0.608q-0.416 0.512-0.608 0.8l-0.064 0.096q-0.224 0.32-0.288 0.48-0.128 0.288-0.128 0.512v0.128q-0.064 0.256-0.064 0.384-0.16 1.216 0.096 2.272t0.864 1.856q0.192 0.384 0.64 0.832zM32.032 17.856q-0.16 0-0.512-0.032-0.704-0.064-1.024 0.032l-0.576 0.192q-0.832 0.288-1.216 0.48-0.576 0.32-0.768 0.672l-0.128 0.224q-0.352 0.352-0.8 1.12l-0.096 0.128q-0.288 0.544-0.416 0.864-0.192 0.48-0.192 0.928-0.16 0.896-0.128 1.664 0 0.576 0.16 1.152 0.032 0.16 0.176 0.528t0.336 0.656q0.448 0.64 1.248 1.312l0.128 0.096q0.224 0.192 0.352 0.096 0.16 0 0.208-0.096t-0.048-0.224q-0.032-0.032-0.064-0.128t-0.064-0.128q-0.288-0.096-0.48-0.352-0.128-0.16-0.32-0.512l-0.224-0.384q-0.288-0.448-0.352-0.768-0.128-0.448 0.096-0.896 0.032-0.096 0-0.288v-0.64q0-0.256 0.064-0.768 0.064-0.256 0.224-0.736 0.256-0.736 0.32-1.12 0.032-0.16 0.224-0.48 0.096-0.096 0.224-0.288l0.128-0.16q0.096-0.16 0.352-0.352l0.032-0.032q0.32-0.288 0.96-0.736h0.032v-0.032q0.128-0.064 0.32-0.192l0.256-0.16q0.48-0.224 1.024-0.416 0.256 0 0.416 0.032 0.096 0 0.16-0.048t0.096-0.128-0.128-0.080zM37.12 14.144q-0.032-0.224-0.192-0.384t-0.352-0.16h-0.128q-0.512 0-0.8 0.144t-0.896 0.176q-0.512 0.032-0.768 0.128h-0.192q-0.096 0-0.128-0.032-0.288-0.192-0.672-0.128-0.224 0-0.672 0.16l-0.256 0.064q-0.224 0.096-0.352 0.064-0.288-0.032-0.576 0.032-0.192 0.032-0.64 0.192v0q0.032 0.064 0.128 0.128l0.064 0.064v0.032l0.544 0.128q1.856 0.352 2.784 0.576h0.096q0.064 0.032 0.192 0.032l1.312 0.256q0.64 0.096 1.216-0.672 0.224-0.128 0.288-0.352 0.032-0.128 0-0.448v0zM24.576 29.856q-0.064-0.064 0-0.352 0.064-0.928-0.352-1.536-0.096-0.16-0.096-0.384 0-0.32-0.128-0.48t-0.16-0.416q-0.032-0.128-0.032-0.416v-0.256q0.032-0.32 0-0.48-0.096-0.768-0.48-1.44l-0.064 0.064v0.064l-0.032 0.288q-0.064 0.16-0.032 0.224 0.064 1.024 0.064 1.504l-0.032 1.376q-0.032 0.128-0.032 0.352v0.128l-0.064 0.704v0.16q-0.064 1.184 0.288 1.952 0.032 0.096 0.096 0.368t0.096 0.4q0.096 0.192 0.224 0.224l0.032 0.032q0.096 0.064 0.176 0.064t0.112-0.128v-0.064q0.16-0.128 0.352-0.672 0.16-0.32 0.192-0.624t-0.128-0.656zM28.608 2.848q0-0.032-0.016-0.016l-0.048 0.048h0.032v0.032z"></path>
</svg>
