<!-- Generated by IcoMoon.io -->
<svg version="1.1" xmlns="http://www.w3.org/2000/svg" width="32" height="32" viewBox="0 0 32 32">
<title>weapons-spear</title>
<path fill="#fff" d="M5.010 31.788c-0.086-0.128-0.107-0.245-0.064-0.352 0-0.064 0.043-0.16 0.128-0.288l0.032-0.032c0.15-0.256 0.406-0.63 0.769-1.121 0.235-0.298 0.406-0.523 0.513-0.673l0.128-0.16c0.47-0.62 0.812-1.089 1.025-1.409 0.363-0.534 0.636-1.031 0.817-1.49s0.518-1.052 1.009-1.778l0.352-0.513c0.234-0.298 0.47-0.811 0.705-1.538l0.32-0.961c0.128-0.342 0.139-0.673 0.032-0.993s-0.31-0.577-0.609-0.769c-0.107-0.064-0.214-0.117-0.32-0.16-0.213-0.128-0.33-0.245-0.352-0.352s0.021-0.256 0.128-0.448c0.192-0.406 0.33-0.652 0.416-0.737 0.128-0.128 0.267-0.181 0.416-0.16 0.128 0.043 0.395 0.16 0.801 0.352 0.513 0.235 0.897 0.47 1.153 0.705l-0.096 0.16c-0.085 0.085-0.128 0.171-0.128 0.256s0.043 0.155 0.128 0.208c0.086 0.053 0.155 0.075 0.208 0.064s0.112-0.059 0.176-0.144l0.064-0.064c0.299-0.363 0.64-0.951 1.025-1.762 0.192-0.385 0.347-0.678 0.464-0.881s0.283-0.529 0.497-0.977l0.256-0.577c0.149-0.277 0.181-0.512 0.096-0.705-0.043-0.064-0.075-0.176-0.096-0.336s-0.053-0.272-0.096-0.336c-0.043-0.107-0.128-0.182-0.256-0.224-0.385-0.149-0.844-0.171-1.377-0.064-0.384 0.128-0.737 0.213-1.057 0.256-0.15 0.021-0.267 0.021-0.352 0s-0.155-0.075-0.208-0.16c-0.053-0.085-0.064-0.181-0.032-0.288s0.091-0.192 0.176-0.256l0.769-0.769c0.598-0.62 1.057-1.057 1.377-1.313 0.235-0.17 0.566-0.448 0.993-0.833l0.448-0.416c0.299-0.256 0.736-0.63 1.313-1.121 0.705-0.598 1.223-1.057 1.554-1.377s0.828-0.758 1.49-1.313c0.662-0.555 1.143-0.982 1.442-1.281 0.811-0.811 2.039-1.793 3.684-2.947 0.277-0.192 0.683-0.523 1.217-0.993l0.288-0.256c0.107-0.15 0.224-0.256 0.352-0.32 0.021-0.064 0.059-0.107 0.112-0.128s0.112-0.011 0.176 0.032 0.075 0.117 0.032 0.224c-0.021 0.449-0.139 1.111-0.352 1.986l-1.025 4.196c-0.342 1.452-0.63 2.53-0.865 3.235-0.064 0.171-0.144 0.443-0.24 0.817s-0.187 0.657-0.272 0.849c-0.15 0.427-0.342 1.079-0.577 1.954s-0.439 1.527-0.609 1.954c-0.363 0.897-0.63 1.9-0.801 3.011-0.021 0.171-0.086 0.438-0.192 0.801-0.085 0.298-0.139 0.518-0.16 0.657s-0.064 0.219-0.128 0.24-0.149-0.022-0.256-0.128c-0.513-0.47-0.833-0.918-0.961-1.345-0.086-0.277-0.278-0.651-0.577-1.121l-0.064-0.128c-0.15-0.342-0.395-0.417-0.737-0.224l-0.416 0.256c-0.598 0.363-1.063 0.652-1.393 0.865s-0.55 0.47-0.657 0.769c-0.064 0.256-0.224 0.619-0.48 1.089-0.107 0.171-0.144 0.32-0.112 0.448s0.134 0.256 0.304 0.384c1.111 0.726 1.943 1.281 2.499 1.666 0.171 0.128 0.256 0.229 0.256 0.304s-0.075 0.165-0.224 0.272c-0.213 0.128-0.459 0.374-0.737 0.737-0.149 0.192-0.266 0.33-0.352 0.416-0.149 0.021-0.224-0.011-0.224-0.096-0.277-0.833-0.854-1.174-1.73-1.025-0.491 0.085-1.057 0.278-1.698 0.577-0.512 0.256-0.897 0.608-1.153 1.057-0.171 0.256-0.427 0.619-0.769 1.089-0.32 0.385-0.545 0.684-0.673 0.897l-0.192 0.32c-0.555 0.875-0.961 1.527-1.217 1.954-0.427 0.747-0.769 1.441-1.025 2.082-0.064 0.171-0.149 0.309-0.256 0.416-0.192 0.213-0.368 0.304-0.529 0.272s-0.326-0.176-0.497-0.432l-0.128-0.16c0-0.021-0.011-0.032-0.032-0.032l-0.064-0.032c-0.128 0.064-0.288 0.202-0.481 0.416-0.107 0.128-0.192 0.214-0.256 0.256l-0.096 0.096c-0.064 0.064-0.117 0.101-0.16 0.112s-0.091-0.005-0.144-0.048c-0.054-0.043-0.075-0.096-0.064-0.16s0.037-0.149 0.080-0.256v-0.032c0.107-0.235 0.144-0.416 0.112-0.545s-0.133-0.257-0.304-0.384c-0.213-0.192-0.395-0.176-0.545 0.048s-0.251 0.4-0.304 0.529c-0.053 0.129-0.122 0.246-0.208 0.352-0.064 0.064-0.171 0.149-0.32 0.256zM17.599 13.882v0.705c0 0.085 0.027 0.144 0.080 0.176s0.123 0.037 0.208 0.016c0.085-0.021 0.229-0.080 0.432-0.176s0.357-0.166 0.464-0.208c0.406-0.128 0.663-0.405 0.769-0.833 0.064-0.277 0.224-0.683 0.48-1.217l0.128-0.256 0.128-0.32c0.171-0.406 0.277-0.716 0.32-0.929 0.128-0.448 0.299-0.833 0.513-1.153l0.48-0.801c0.427-0.747 0.78-1.281 1.057-1.602 0.107-0.064 0.182-0.203 0.224-0.416 0.085-0.171 0.064-0.299-0.064-0.384-0.064-0.021-0.123-0.016-0.176 0.016s-0.091 0.069-0.112 0.112l-0.352 0.384c-0.577 0.577-0.982 1.036-1.217 1.377-0.747 1.025-1.783 2.307-3.107 3.844-0.149 0.192-0.235 0.33-0.256 0.416-0.064 0.171-0.064 0.342 0 0.513 0.021 0.128 0.021 0.299 0 0.513v0.224zM12.859 21.313c0 0.213 0.070 0.4 0.208 0.561s0.282 0.22 0.432 0.176c0.385-0.107 0.62-0.31 0.705-0.609 0.128-0.342 0.064-0.641-0.192-0.897-0.064-0.064-0.128-0.112-0.192-0.144s-0.149-0.038-0.256-0.016c-0.171 0.064-0.331 0.192-0.48 0.384s-0.224 0.374-0.224 0.545zM18.56 22.787c0-0.128-0.038-0.192-0.112-0.192s-0.112 0.053-0.112 0.16c0 0.043 0.011 0.085 0.032 0.128s0.053 0.053 0.096 0.032zM13.755 19.263v-0.032h-0.064c-0.021 0.021-0.032 0.038-0.032 0.048s0.021 0.016 0.064 0.016c-0.021-0.021-0.011-0.032 0.032-0.032z"></path>
</svg>
