<!-- Generated by IcoMoon.io -->
<svg version="1.1" xmlns="http://www.w3.org/2000/svg" width="32" height="32" viewBox="0 0 32 32">
<title>weapons-mace</title>
<path fill="#fff" d="M12.867 11.29c0.128-0.128 0.331-0.235 0.609-0.321l0.257-0.096c0.193-0.043 0.311-0.145 0.353-0.305s-0.043-0.305-0.257-0.433l-0.417-0.289c-1.069-0.748-1.897-1.272-2.485-1.571s-1.064-0.609-1.427-0.93c0.064-0.149 0.192-0.203 0.385-0.16 0.877 0.085 2.17 0.107 3.88 0.064h1.475c0.3 0 0.481-0.16 0.545-0.481 0.149-0.449 0.267-0.972 0.353-1.571 0.043-0.342 0.107-0.866 0.192-1.571l0.032-0.385c0.085-0.47 0.192-1.197 0.321-2.18 0.043-0.128 0.128-0.32 0.256-0.577l0.128-0.192 0.096 0.16c0.257 0.491 0.406 0.865 0.449 1.122 0.128 0.599 0.427 1.357 0.898 2.276 0.128 0.257 0.299 0.62 0.513 1.090 0.085 0.15 0.171 0.241 0.256 0.273s0.203 0.006 0.353-0.080l0.032-0.032c0.043-0.021 0.064-0.043 0.064-0.064 0.235-0.236 0.63-0.556 1.186-0.962 0.406-0.321 0.716-0.566 0.93-0.737 0.321-0.299 0.598-0.598 0.834-0.898 0.128-0.193 0.363-0.438 0.705-0.737l0.128-0.128c0.705-0.662 1.24-1.154 1.603-1.475 0.107-0.107 0.192-0.128 0.256-0.064 0.043 0.021 0.064 0.096 0.064 0.224-0.107 0.193-0.224 0.492-0.353 0.898-0.171 0.514-0.331 0.877-0.481 1.090-0.556 0.941-1.005 1.977-1.347 3.11l-0.481 1.507c-0.193 0.599 0.021 0.898 0.641 0.898h2.918c0.171 0 0.416-0.043 0.737-0.128l0.417-0.096c0.278-0.021 0.497 0 0.657 0.064s0.325 0.192 0.497 0.385c-0.214 0.128-0.524 0.32-0.93 0.577-0.449 0.3-0.801 0.513-1.058 0.641-1.090 0.491-2.105 1.036-3.046 1.635-0.299 0.171-0.363 0.439-0.192 0.802l0.834 1.411c0.342 0.663 0.695 1.261 1.058 1.796 0.085 0.149 0.128 0.31 0.128 0.481 0 0.107-0.021 0.257-0.064 0.449s-0.064 0.326-0.064 0.401c0 0.075-0.038 0.118-0.112 0.128s-0.155-0.005-0.24-0.048l-0.449-0.224c-0.448-0.193-0.759-0.375-0.93-0.545-0.342-0.321-0.908-0.716-1.699-1.186-0.47-0.278-0.823-0.502-1.058-0.673-0.086-0.085-0.182-0.128-0.289-0.128-0.193-0.064-0.337-0.059-0.433 0.016s-0.112 0.208-0.048 0.401c0.043 0.128 0.086 0.32 0.128 0.577l0.096 0.449c0.064 0.171 0.053 0.289-0.032 0.353l-0.096 0.096c-0.193 0.214-0.348 0.343-0.465 0.385s-0.209 0-0.273-0.128l-0.032-0.032c-0.128-0.235-0.417-0.513-0.866-0.834l-0.096-0.064c-0.193-0.107-0.348-0.149-0.465-0.128s-0.251 0.118-0.401 0.289c-0.363 0.491-0.866 1.25-1.507 2.276l-0.449 0.737c-0.086 0.107-0.118 0.246-0.096 0.417 0 0.107 0.032 0.267 0.096 0.481 0.085 0.321 0.101 0.523 0.048 0.609s-0.23 0.192-0.529 0.321l-0.417 0.192c-0.427 0.193-0.727 0.353-0.898 0.481-0.299 0.236-0.502 0.524-0.609 0.866-0.043 0.171-0.182 0.395-0.417 0.673l-0.096 0.096c-0.513 0.663-1.134 1.614-1.86 2.854-0.085 0.15-0.235 0.363-0.449 0.641-0.3 0.385-0.502 0.684-0.609 0.898-0.171 0.363-0.492 0.887-0.962 1.571-0.321 0.448-0.556 0.791-0.705 1.026-0.363 0.599-0.973 1.475-1.828 2.629l-0.064 0.128c-0.064 0.086-0.118 0.15-0.16 0.192s-0.101 0.037-0.176-0.016c-0.075-0.053-0.101-0.107-0.080-0.16s0.075-0.123 0.16-0.208l0.096-0.128c0.171-0.257 0.416-0.63 0.737-1.122l0.449-0.641c0.043-0.043 0.064-0.075 0.064-0.096l0.032-0.096c0.043-0.085 0.069-0.16 0.080-0.224s-0.027-0.128-0.112-0.192c-0.085-0.064-0.155-0.080-0.208-0.048s-0.123 0.101-0.208 0.208l-0.032 0.032c-0.149 0.149-0.299 0.256-0.449 0.321-0.3 0.064-0.567 0.224-0.802 0.481-0.064 0.149-0.182 0.192-0.353 0.128-0.086-0.043-0.128-0.139-0.128-0.289v-0.064l0.449-1.539c0.085-0.193 0.075-0.321-0.032-0.385-0.171-0.064-0.31 0-0.417 0.192 0 0.043-0.032 0.096-0.096 0.16-0.085 0.128-0.192 0.176-0.321 0.144s-0.257-0.016-0.385 0.048c-0.085 0.021-0.192 0.075-0.321 0.16l-0.192 0.128c-0.149 0.107-0.267 0.117-0.353 0.032-0.064-0.043-0.091-0.096-0.080-0.16s0.048-0.128 0.112-0.192c0.171-0.193 0.384-0.513 0.641-0.962 0.193-0.364 0.342-0.62 0.449-0.77 0.214-0.278 0.439-0.502 0.673-0.673 0.193-0.128 0.428-0.417 0.705-0.866l0.16-0.256c0.278-0.47 0.748-1.164 1.411-2.084 0.491-0.705 0.855-1.239 1.090-1.603 0.599-0.941 1.059-1.614 1.379-2.020 0.406-0.577 0.438-1.165 0.096-1.763-0.064-0.128-0.080-0.23-0.048-0.305s0.102-0.166 0.208-0.273c0.149-0.128 0.406-0.192 0.77-0.192 0.535 0 1.005-0.235 1.411-0.705 0.641-0.855 1.144-1.646 1.507-2.373 0.086-0.171 0.193-0.46 0.321-0.866l0.032-0.096c0.021-0.149-0.021-0.277-0.128-0.385-0.321-0.385-0.673-0.652-1.058-0.802-0.021 0-0.064-0.021-0.128-0.064zM13.861 15.811c-0.278-0.043-0.46 0.043-0.545 0.257-0.021 0.064-0.075 0.117-0.16 0.16l-0.096 0.096c-0.171 0.171-0.268 0.299-0.289 0.385s0.032 0.236 0.16 0.449c0.021 0.064 0.086 0.161 0.192 0.289l0.128 0.128c0.107 0.128 0.245 0.213 0.417 0.256 0.107 0.021 0.256 0.043 0.449 0.064h0.224c0.107 0 0.181-0.053 0.224-0.16 0.043-0.064 0.086-0.193 0.128-0.385l0.064-0.192c0.107-0.193 0.107-0.417 0-0.673-0.086-0.427-0.385-0.652-0.898-0.673zM14.598 15.042c0-0.15-0.086-0.224-0.257-0.224-0.107 0-0.187 0.011-0.24 0.032s-0.070 0.085-0.048 0.192c0.021 0.171 0.128 0.246 0.321 0.224 0.064 0 0.118-0.021 0.16-0.064s0.064-0.096 0.064-0.16zM16.907 6.321c-0.021-0.086-0.043-0.139-0.064-0.16s-0.064-0.021-0.128 0c-0.193 0.043-0.289 0.161-0.289 0.353 0 0.128 0.075 0.192 0.224 0.192 0.171-0.064 0.256-0.192 0.256-0.385z"></path>
</svg>
