<!-- Generated by IcoMoon.io -->
<svg version="1.1" xmlns="http://www.w3.org/2000/svg" width="32" height="32" viewBox="0 0 32 32">
<title>weapons-dagger</title>
<path fill="#fff" d="M23.18 7.589c0.372-0.083 0.713-0.269 1.023-0.558 0.227-0.207 0.475-0.496 0.744-0.868l0.155-0.186c0.331-0.455 0.599-0.764 0.806-0.93 0.289-0.248 0.703-0.63 1.24-1.147 0.661-0.641 1.173-1.106 1.535-1.395s0.636-0.651 0.822-1.085c0.082-0.289 0.279-0.434 0.589-0.434h0.062c0.166 0 0.289-0.010 0.372-0.031 0.124-0.062 0.207-0.165 0.248-0.31 0.041-0.082 0.103-0.129 0.186-0.139s0.134 0.027 0.155 0.109c0.041 0.145 0.165 0.331 0.372 0.558 0.124 0.165 0.217 0.3 0.279 0.403 0.124 0.248 0.196 0.527 0.217 0.837 0.021 0.207 0.021 0.496 0 0.868 0 0.227-0.145 0.413-0.434 0.558-0.331 0.124-0.661 0.32-0.992 0.589-0.186 0.165-0.455 0.423-0.806 0.775-0.289 0.31-0.517 0.537-0.682 0.682-0.041 0.041-0.083 0.134-0.124 0.279l-0.093 0.186c-0.145 0.248-0.269 0.424-0.372 0.527-0.165 0.165-0.356 0.258-0.573 0.279s-0.449 0.207-0.698 0.558c-0.186 0.31-0.548 0.734-1.085 1.271l-0.341 0.372c-0.289 0.31-0.439 0.558-0.45 0.744s0.139 0.444 0.45 0.775l0.279 0.31c0.33 0.331 0.594 0.574 0.791 0.729s0.289 0.295 0.279 0.418c-0.011 0.123-0.14 0.248-0.387 0.372l-0.558 0.31c-0.352 0.227-0.734 0.176-1.147-0.155l-1.178-1.116c-0.165-0.166-0.31-0.243-0.434-0.232s-0.269 0.098-0.434 0.264c-0.062 0.103-0.186 0.248-0.372 0.434l-0.279 0.341c-0.289 0.351-0.413 0.702-0.372 1.054s0.248 0.661 0.62 0.93c0.289 0.207 0.439 0.382 0.45 0.527s-0.098 0.362-0.326 0.651c-0.393 0.455-1.054 1.075-1.984 1.86l-0.961 0.837-0.31 0.279c-0.951 0.889-1.684 1.519-2.201 1.891-0.207 0.165-0.33 0.3-0.372 0.403-0.124 0.207-0.289 0.414-0.496 0.62-0.124 0.124-0.32 0.3-0.589 0.527l-0.186 0.186c-1.695 1.529-2.955 2.79-3.782 3.782-0.269 0.33-0.692 0.682-1.271 1.054l-0.496 0.31c-0.517 0.33-0.92 0.548-1.209 0.651s-0.682 0.279-1.178 0.527c-0.413 0.207-0.723 0.352-0.93 0.434l-0.62 0.248c-1.571 0.661-2.77 1.095-3.596 1.302-0.269 0.062-0.641 0.207-1.116 0.434l-0.558 0.217c-0.041 0.041-0.072 0.062-0.093 0.062-0.166 0.082-0.289 0.134-0.372 0.155-0.145 0.020-0.253-0.016-0.326-0.108s-0.088-0.175-0.046-0.248c0.042-0.073 0.114-0.161 0.217-0.264l0.961-0.93c1.157-1.178 2.005-2.077 2.542-2.697 1.137-1.261 2.594-2.78 4.371-4.557 0.558-0.558 1.385-1.436 2.48-2.635l0.558-0.62c0.372-0.393 0.951-0.95 1.736-1.674 0.992-0.93 1.716-1.653 2.17-2.17 0.496-0.558 1.261-1.354 2.294-2.387 0.661-0.661 1.147-1.157 1.457-1.488 0.641-0.682 1.199-1.188 1.674-1.519 0.082-0.062 0.207-0.176 0.372-0.341 0.248-0.31 0.258-0.62 0.031-0.93-0.124-0.207-0.269-0.413-0.434-0.62-0.103-0.124-0.165-0.232-0.186-0.325s0.031-0.196 0.155-0.31c0.124-0.114 0.155-0.223 0.093-0.325s-0.197-0.165-0.403-0.186c-0.207-0.021-0.33-0.073-0.372-0.155s0-0.206 0.124-0.372c0.021-0.041 0.073-0.114 0.155-0.217l0.124-0.124c0.103-0.145 0.212-0.222 0.326-0.232s0.248 0.063 0.403 0.217 0.418 0.377 0.791 0.667c0.289 0.227 0.496 0.393 0.62 0.496 0.227 0.207 0.403 0.413 0.527 0.62 0.041 0.062 0.104 0.134 0.186 0.217 0.166 0.083 0.295 0.098 0.387 0.046s0.098-0.161 0.015-0.325c-0.082-0.062-0.145-0.124-0.186-0.186s-0.052-0.134-0.031-0.217zM27.675 6.566c0-0.104-0.062-0.227-0.186-0.372l-0.062-0.031c-0.207-0.186-0.419-0.403-0.636-0.651s-0.439-0.289-0.666-0.124c-0.227 0.227-0.227 0.455 0 0.682l0.93 0.837c0.145 0.124 0.284 0.145 0.419 0.062s0.202-0.217 0.201-0.403zM22.963 11.247c0-0.021-0.010-0.052-0.031-0.093l-0.031-0.062c-0.269-0.537-0.672-0.941-1.209-1.209-0.186-0.145-0.341-0.129-0.465 0.046s-0.057 0.341 0.201 0.496c0.258 0.155 0.459 0.295 0.605 0.418 0.186 0.186 0.331 0.393 0.434 0.62 0.082 0.124 0.175 0.155 0.279 0.093 0.165-0.041 0.238-0.145 0.217-0.31zM10.253 26.282c-0.062 0.062-0.155 0.134-0.279 0.217-0.062 0.041-0.134 0.109-0.217 0.201s-0.155 0.15-0.217 0.171c-0.124 0.041-0.217 0.114-0.279 0.217s-0.067 0.191-0.015 0.264 0.098 0.109 0.139 0.108c0.041-0.001 0.102-0.032 0.186-0.093s0.145-0.093 0.186-0.093c0.289-0.020 0.537-0.217 0.744-0.589 0.082-0.248 0-0.382-0.248-0.403zM26.249 11.96c-0.124 0.062-0.175 0.165-0.155 0.31 0.021 0.062 0.057 0.109 0.108 0.139s0.108 0.036 0.171 0.015c0.124-0.041 0.165-0.124 0.124-0.248-0.041-0.145-0.124-0.217-0.248-0.217z"></path>
</svg>
