<!-- Generated by IcoMoon.io -->
<svg version="1.1" xmlns="http://www.w3.org/2000/svg" width="512" height="512" viewBox="0 0 512 512">
<title>weapons-dagger</title>
<path fill="#fff" d="M370.88 121.424c5.952-1.328 11.408-4.304 16.368-8.928 3.632-3.312 7.6-7.936 11.904-13.888l2.48-2.976c5.296-7.28 9.584-12.224 12.896-14.88 4.624-3.968 11.248-10.080 19.84-18.352 10.576-10.256 18.768-17.696 24.56-22.32s10.176-10.416 13.152-17.36c1.312-4.624 4.464-6.944 9.424-6.944h0.992c2.656 0 4.624-0.16 5.952-0.496 1.984-0.992 3.312-2.64 3.968-4.96 0.656-1.312 1.648-2.064 2.976-2.224s2.144 0.432 2.48 1.744c0.656 2.32 2.64 5.296 5.952 8.928 1.984 2.64 3.472 4.8 4.464 6.448 1.984 3.968 3.136 8.432 3.472 13.392 0.336 3.312 0.336 7.936 0 13.888 0 3.632-2.32 6.608-6.944 8.928-5.296 1.984-10.576 5.12-15.872 9.424-2.976 2.64-7.28 6.768-12.896 12.4-4.624 4.96-8.272 8.592-10.912 10.912-0.656 0.656-1.328 2.144-1.984 4.464l-1.488 2.976c-2.32 3.968-4.304 6.784-5.952 8.432-2.64 2.64-5.696 4.128-9.168 4.464s-7.184 3.312-11.168 8.928c-2.976 4.96-8.768 11.744-17.36 20.336l-5.456 5.952c-4.624 4.96-7.024 8.928-7.2 11.904s2.224 7.104 7.2 12.4l4.464 4.96c5.28 5.296 9.504 9.184 12.656 11.664s4.624 4.72 4.464 6.688c-0.176 1.968-2.24 3.968-6.192 5.952l-8.928 4.96c-5.632 3.632-11.744 2.816-18.352-2.48l-18.848-17.856c-2.64-2.656-4.96-3.888-6.944-3.712s-4.304 1.568-6.944 4.224c-0.992 1.648-2.976 3.968-5.952 6.944l-4.464 5.456c-4.624 5.616-6.608 11.232-5.952 16.864s3.968 10.576 9.92 14.88c4.624 3.312 7.024 6.112 7.2 8.432s-1.568 5.792-5.216 10.416c-6.288 7.28-16.864 17.2-31.744 29.76l-15.376 13.392-4.96 4.464c-15.216 14.224-26.944 24.304-35.216 30.256-3.312 2.64-5.28 4.8-5.952 6.448-1.984 3.312-4.624 6.624-7.936 9.92-1.984 1.984-5.12 4.8-9.424 8.432l-2.976 2.976c-27.12 24.464-47.28 44.64-60.512 60.512-4.304 5.28-11.072 10.912-20.336 16.864l-7.936 4.96c-8.272 5.28-14.72 8.768-19.344 10.416s-10.912 4.464-18.848 8.432c-6.608 3.312-11.568 5.632-14.88 6.944l-9.92 3.968c-25.136 10.576-44.32 17.52-57.536 20.832-4.304 0.992-10.256 3.312-17.856 6.944l-8.928 3.472c-0.656 0.656-1.152 0.992-1.488 0.992-2.656 1.312-4.624 2.144-5.952 2.48-2.32 0.32-4.048-0.256-5.216-1.728s-1.408-2.8-0.736-3.968c0.672-1.168 1.824-2.576 3.472-4.224l15.376-14.88c18.512-18.848 32.080-33.232 40.672-43.152 18.192-20.176 41.504-44.48 69.936-72.912 8.928-8.928 22.16-22.976 39.68-42.16l8.928-9.92c5.952-6.288 15.216-15.2 27.776-26.784 15.872-14.88 27.456-26.448 34.72-34.72 7.936-8.928 20.176-21.664 36.704-38.192 10.576-10.576 18.352-18.512 23.312-23.808 10.256-10.912 19.184-19.008 26.784-24.304 1.312-0.992 3.312-2.816 5.952-5.456 3.968-4.96 4.128-9.92 0.496-14.88-1.984-3.312-4.304-6.608-6.944-9.92-1.648-1.984-2.64-3.712-2.976-5.2s0.496-3.136 2.48-4.96c1.984-1.824 2.48-3.568 1.488-5.2s-3.152-2.64-6.448-2.976c-3.312-0.336-5.28-1.168-5.952-2.48s0-3.296 1.984-5.952c0.336-0.656 1.168-1.824 2.48-3.472l1.984-1.984c1.648-2.32 3.392-3.552 5.216-3.712s3.968 1.008 6.448 3.472 6.688 6.032 12.656 10.672c4.624 3.632 7.936 6.288 9.92 7.936 3.632 3.312 6.448 6.608 8.432 9.92 0.656 0.992 1.664 2.144 2.976 3.472 2.656 1.328 4.72 1.568 6.192 0.736s1.568-2.576 0.24-5.2c-1.312-0.992-2.32-1.984-2.976-2.976s-0.832-2.144-0.496-3.472zM442.8 105.056c0-1.664-0.992-3.632-2.976-5.952l-0.992-0.496c-3.312-2.976-6.704-6.448-10.176-10.416s-7.024-4.624-10.656-1.984c-3.632 3.632-3.632 7.28 0 10.912l14.88 13.392c2.32 1.984 4.544 2.32 6.704 0.992s3.232-3.472 3.216-6.448zM367.408 179.952c0-0.336-0.16-0.832-0.496-1.488l-0.496-0.992c-4.304-8.592-10.752-15.056-19.344-19.344-2.976-2.32-5.456-2.064-7.44 0.736s-0.912 5.456 3.216 7.936c4.128 2.48 7.344 4.72 9.68 6.688 2.976 2.976 5.296 6.288 6.944 9.92 1.312 1.984 2.8 2.48 4.464 1.488 2.64-0.656 3.808-2.32 3.472-4.96zM164.048 420.512c-0.992 0.992-2.48 2.144-4.464 3.472-0.992 0.656-2.144 1.744-3.472 3.216s-2.48 2.4-3.472 2.736c-1.984 0.656-3.472 1.824-4.464 3.472s-1.072 3.056-0.24 4.224 1.568 1.744 2.224 1.728c0.656-0.016 1.632-0.512 2.976-1.488s2.32-1.488 2.976-1.488c4.624-0.32 8.592-3.472 11.904-9.424 1.312-3.968 0-6.112-3.968-6.448zM419.984 191.36c-1.984 0.992-2.8 2.64-2.48 4.96 0.336 0.992 0.912 1.744 1.728 2.224s1.728 0.576 2.736 0.24c1.984-0.656 2.64-1.984 1.984-3.968-0.656-2.32-1.984-3.472-3.968-3.472z"></path>
</svg>
