<?xml version="1.0" encoding="UTF-8" standalone="no"?>
<!-- Created with Inkscape (http://www.inkscape.org/) -->

<svg
   xmlns:dc="http://purl.org/dc/elements/1.1/"
   xmlns:cc="http://creativecommons.org/ns#"
   xmlns:rdf="http://www.w3.org/1999/02/22-rdf-syntax-ns#"
   xmlns:svg="http://www.w3.org/2000/svg"
   xmlns="http://www.w3.org/2000/svg"
   xmlns:sodipodi="http://sodipodi.sourceforge.net/DTD/sodipodi-0.dtd"
   xmlns:inkscape="http://www.inkscape.org/namespaces/inkscape"
   width="11.616266mm"
   height="12.874624mm"
   viewBox="0 0 11.616266 12.874624"
   version="1.1"
   id="svg8038"
   inkscape:version="0.92.5 (2060ec1f9f, 2020-04-08)"
   sodipodi:docname="allies-slaves-to-darkness.svg">
  <defs
     id="defs8032">
    <clipPath
       clipPathUnits="userSpaceOnUse"
       id="clipPath5669">
      <path
         d="m 214.503,323.977 h 32.929 v 36.495 h -32.929 z"
         id="path5667"
         inkscape:connector-curvature="0" />
    </clipPath>
  </defs>
  <sodipodi:namedview
     id="base"
     pagecolor="#ffffff"
     bordercolor="#666666"
     borderopacity="1.0"
     inkscape:pageopacity="0.0"
     inkscape:pageshadow="2"
     inkscape:zoom="0.35"
     inkscape:cx="127.66629"
     inkscape:cy="1.4728557"
     inkscape:document-units="mm"
     inkscape:current-layer="layer1"
     showgrid="false"
     fit-margin-top="0"
     fit-margin-left="0"
     fit-margin-right="0"
     fit-margin-bottom="0"
     inkscape:window-width="1920"
     inkscape:window-height="1017"
     inkscape:window-x="-8"
     inkscape:window-y="-8"
     inkscape:window-maximized="1" />
  <metadata
     id="metadata8035">
    <rdf:RDF>
      <cc:Work
         rdf:about="">
        <dc:format>image/svg+xml</dc:format>
        <dc:type
           rdf:resource="http://purl.org/dc/dcmitype/StillImage" />
        <dc:title></dc:title>
      </cc:Work>
    </rdf:RDF>
  </metadata>
  <g
     inkscape:label="Layer 1"
     inkscape:groupmode="layer"
     id="layer1"
     transform="translate(-72.054962,-136.3484)">
    <g
       transform="matrix(0.35277777,0,0,-0.35277777,-3.6172102,263.51491)"
       id="g5663">
      <g
         id="g5665"
         clip-path="url(#clipPath5669)">
        <g
           id="g5671"
           transform="translate(220.3208,347.0328)">
          <path
             d="m 0,0 c -0.019,-0.1 -0.025,-0.186 -0.053,-0.264 -0.084,-0.237 -0.186,-0.469 -0.265,-0.708 -0.1,-0.303 -0.213,-0.605 -0.211,-0.932 0.001,-0.044 -0.02,-0.087 -0.032,-0.13 -0.049,-0.178 -0.099,-0.355 -0.146,-0.533 -0.009,-0.031 -0.004,-0.067 -0.004,-0.1 0.003,-0.59 0.008,-1.181 0.009,-1.771 0.001,-0.686 -0.001,-1.372 0,-2.058 0,-0.135 0.032,-0.263 0.068,-0.395 0.05,-0.186 0.074,-0.38 0.137,-0.565 0.003,-0.01 0,-0.023 0.002,-0.034 0.018,-0.081 0.018,-0.174 0.06,-0.24 0.152,-0.24 0.115,-0.534 0.24,-0.78 0.014,-0.028 0.011,-0.066 0.012,-0.1 0.007,-0.149 0.05,-0.289 0.123,-0.417 0.05,-0.086 0.079,-0.175 0.07,-0.272 -0.007,-0.089 0.024,-0.162 0.058,-0.24 0.035,-0.08 0.055,-0.173 0.055,-0.26 0,-0.077 0.014,-0.14 0.047,-0.208 0.099,-0.207 0.203,-0.412 0.218,-0.649 0.004,-0.054 0.025,-0.111 0.052,-0.159 0.132,-0.234 0.229,-0.488 0.412,-0.693 0.198,-0.221 0.382,-0.454 0.574,-0.681 0.184,-0.218 0.444,-0.364 0.59,-0.62 0.018,-0.032 0.058,-0.051 0.089,-0.075 0.319,-0.246 0.652,-0.475 0.926,-0.776 0.086,-0.094 0.194,-0.168 0.292,-0.251 0.193,-0.163 0.376,-0.339 0.622,-0.425 0.073,-0.025 0.14,-0.072 0.203,-0.118 0.113,-0.083 0.214,-0.184 0.332,-0.259 0.117,-0.075 0.246,-0.132 0.373,-0.189 0.205,-0.091 0.413,-0.165 0.587,-0.321 0.138,-0.125 0.261,-0.27 0.46,-0.325 0.305,-0.084 0.581,-0.268 0.913,-0.268 0.048,0 0.098,-0.024 0.145,-0.041 0.262,-0.095 0.529,-0.147 0.809,-0.129 0.129,0.008 0.259,0.005 0.388,0.001 0.048,-0.002 0.104,-0.008 0.144,-0.033 0.2,-0.122 0.419,-0.182 0.651,-0.189 0.281,-0.008 0.563,-0.004 0.844,-0.009 0.073,-10e-4 0.145,-0.015 0.216,-0.027 0.127,-0.021 0.253,-0.064 0.38,-0.066 0.54,-0.007 1.081,-0.005 1.621,-10e-4 0.088,10e-4 0.179,0.02 0.264,0.046 0.188,0.057 0.378,0.112 0.558,0.189 0.205,0.087 0.411,0.088 0.626,0.067 0.105,-0.011 0.214,-0.005 0.318,0.013 0.265,0.046 0.529,0.098 0.792,0.157 0.125,0.028 0.26,0.054 0.365,0.122 0.225,0.146 0.426,0.33 0.697,0.394 0.016,0.004 0.033,0.013 0.044,0.025 0.125,0.148 0.294,0.22 0.472,0.28 0.042,0.014 0.081,0.038 0.12,0.061 0.277,0.168 0.535,0.368 0.837,0.496 0.085,0.036 0.164,0.069 0.259,0.056 0.035,-0.005 0.082,0 0.109,0.02 0.113,0.083 0.223,0.17 0.329,0.261 0.098,0.084 0.185,0.181 0.285,0.261 0.192,0.155 0.401,0.291 0.583,0.456 0.25,0.225 0.484,0.467 0.72,0.708 0.153,0.155 0.304,0.314 0.441,0.484 0.101,0.125 0.178,0.27 0.264,0.407 0.039,0.062 0.07,0.128 0.109,0.189 0.114,0.181 0.233,0.356 0.285,0.57 0.023,0.088 0.078,0.174 0.136,0.248 0.194,0.252 0.334,0.531 0.455,0.822 0.133,0.321 0.263,0.643 0.397,0.964 0.017,0.041 0.05,0.075 0.073,0.114 0.09,0.156 0.17,0.313 0.179,0.501 0.004,0.093 0.036,0.189 0.078,0.273 0.103,0.208 0.178,0.422 0.207,0.654 0.02,0.161 0.045,0.324 0.095,0.477 0.043,0.13 0.083,0.253 0.069,0.393 -0.007,0.07 0.015,0.145 0.032,0.216 0.062,0.256 0.145,0.508 0.133,0.778 -0.003,0.049 0.011,0.1 0.024,0.149 0.065,0.252 0.092,0.506 0.075,0.767 -0.005,0.077 -0.002,0.162 0.027,0.232 0.066,0.159 0.101,0.319 0.071,0.491 -0.004,0.021 0.004,0.045 0.003,0.067 -0.006,0.157 0.004,0.316 -0.024,0.469 -0.052,0.281 -0.125,0.558 -0.192,0.836 -0.029,0.12 -0.06,0.239 -0.095,0.357 -0.073,0.253 -0.152,0.504 -0.224,0.758 -0.078,0.275 -0.154,0.55 -0.223,0.827 -0.026,0.107 -0.031,0.22 -0.044,0.331 -0.008,0.072 -0.003,0.147 -0.023,0.215 -0.062,0.216 -0.132,0.429 -0.201,0.642 -0.043,0.133 -0.089,0.266 -0.137,0.398 -0.086,0.231 -0.163,0.467 -0.263,0.692 -0.091,0.205 -0.201,0.402 -0.315,0.595 -0.097,0.165 -0.211,0.319 -0.317,0.477 -0.057,0.084 -0.102,0.179 -0.173,0.249 -0.206,0.205 -0.422,0.4 -0.514,0.69 C 19.784,3.675 19.752,3.713 19.722,3.745 19.57,3.91 19.416,4.073 19.262,4.236 19.254,4.244 19.244,4.251 19.234,4.254 19.041,4.295 18.911,4.424 18.789,4.568 18.76,4.601 18.72,4.625 18.685,4.653 18.511,4.796 18.331,4.932 18.166,5.084 17.822,5.4 17.485,5.724 17.149,6.048 17.007,6.185 16.84,6.27 16.657,6.334 16.596,6.355 16.533,6.386 16.484,6.428 16.358,6.535 16.222,6.602 16.053,6.579 15.964,6.566 15.888,6.591 15.813,6.638 15.738,6.686 15.662,6.741 15.578,6.767 15.413,6.817 15.271,6.894 15.15,7.018 15.051,7.119 14.936,7.198 14.779,7.188 14.728,7.185 14.673,7.217 14.623,7.24 14.444,7.325 14.266,7.385 14.06,7.389 13.682,7.395 13.296,7.339 12.927,7.484 12.751,7.553 12.557,7.572 12.394,7.678 12.273,7.757 12.141,7.793 11.994,7.786 11.836,7.778 11.678,7.785 11.521,7.779 11.461,7.777 11.391,7.772 11.343,7.742 11.245,7.681 11.143,7.675 11.035,7.675 10.692,7.675 10.348,7.672 10.005,7.673 9.738,7.674 9.498,7.546 9.238,7.517 9.212,7.514 9.187,7.494 9.162,7.481 8.956,7.379 8.752,7.271 8.542,7.176 8.43,7.125 8.313,7.089 8.218,7.003 8.171,6.961 8.097,6.947 8.034,6.924 7.825,6.845 7.602,6.791 7.408,6.684 7.126,6.529 6.831,6.41 6.534,6.294 6.162,6.151 5.802,5.985 5.468,5.763 5.395,5.714 5.308,5.683 5.224,5.654 5.091,5.61 4.954,5.577 4.821,5.533 4.786,5.522 4.751,5.497 4.725,5.469 4.48,5.217 4.215,4.997 3.872,4.888 3.831,4.875 3.791,4.848 3.757,4.819 3.675,4.751 3.599,4.676 3.516,4.609 3.387,4.503 3.253,4.402 3.122,4.298 2.902,4.125 2.657,3.984 2.478,3.759 2.385,3.642 2.266,3.544 2.153,3.444 2.052,3.355 1.942,3.277 1.839,3.191 1.735,3.106 1.647,2.992 1.53,2.934 1.397,2.868 1.334,2.77 1.274,2.646 1.079,2.247 0.873,1.854 0.674,1.457 0.486,1.084 0.384,0.679 0.256,0.284 0.211,0.148 0.161,0.031 0,0 m -2.844,8.596 c 0.167,0.02 0.289,0.008 0.416,-0.089 0.182,-0.139 0.392,-0.239 0.586,-0.363 0.08,-0.051 0.154,-0.113 0.221,-0.18 C -1.43,7.772 -1.247,7.573 -1.009,7.437 -0.97,7.415 -0.937,7.382 -0.906,7.349 -0.803,7.241 -0.683,7.163 -0.541,7.115 -0.489,7.098 -0.43,7.073 -0.397,7.033 -0.238,6.844 -0.02,6.732 0.171,6.584 0.335,6.458 0.51,6.343 0.663,6.204 0.944,5.952 1.263,5.776 1.619,5.659 1.692,5.635 1.761,5.59 1.825,5.546 2.058,5.384 2.235,5.459 2.274,5.738 2.276,5.754 2.28,5.771 2.283,5.786 c 0.1,0.084 0.194,0.14 0.342,0.136 0.122,-0.004 0.256,0.077 0.369,0.146 0.353,0.219 0.698,0.453 1.049,0.676 0.116,0.074 0.239,0.125 0.376,0.165 0.305,0.089 0.604,0.203 0.885,0.362 0.282,0.16 0.575,0.298 0.888,0.4 0.2,0.065 0.382,0.183 0.576,0.271 0.204,0.092 0.409,0.183 0.618,0.263 0.272,0.104 0.549,0.19 0.808,0.328 0.186,0.099 0.398,0.149 0.599,0.216 0.107,0.036 0.216,0.062 0.324,0.094 0.214,0.065 0.428,0.133 0.643,0.195 0.1,0.028 0.155,0.079 0.15,0.19 -0.002,0.049 0.008,0.104 0.03,0.148 0.071,0.148 0.081,0.304 0.067,0.462 -0.023,0.273 0.085,0.52 0.14,0.777 0.072,0.335 0.157,0.668 0.226,1.004 0.029,0.137 0.034,0.279 0.042,0.419 0.006,0.119 0.012,0.234 0.075,0.341 0.021,0.036 0.022,0.086 0.024,0.129 0.004,0.107 0.001,0.214 0.004,0.321 0.002,0.05 -0.001,0.107 0.021,0.149 0.052,0.101 0.083,0.203 0.082,0.319 0,0.035 0.04,0.071 0.083,0.143 0.041,-0.135 0.072,-0.229 0.098,-0.325 0.061,-0.228 0.124,-0.455 0.176,-0.684 0.034,-0.148 0.052,-0.299 0.074,-0.448 0.024,-0.161 0.04,-0.323 0.071,-0.482 0.013,-0.069 0.043,-0.143 0.085,-0.198 0.136,-0.178 0.165,-0.377 0.137,-0.588 -0.01,-0.076 -0.001,-0.135 0.032,-0.206 0.038,-0.083 0.043,-0.184 0.049,-0.278 0.006,-0.101 0.012,-0.196 0.063,-0.291 0.038,-0.069 0.038,-0.162 0.042,-0.245 0.008,-0.178 -0.025,-0.364 0.155,-0.535 0.065,-0.004 0.176,-0.007 0.287,-0.016 0.099,-0.009 0.198,-0.021 0.296,-0.039 0.137,-0.024 0.273,-0.057 0.41,-0.082 0.176,-0.032 0.362,-0.036 0.527,-0.098 0.248,-0.093 0.499,-0.072 0.75,-0.08 0.304,-0.009 0.599,-0.039 0.881,-0.179 0.156,-0.077 0.304,-0.163 0.453,-0.251 0.177,-0.105 0.379,-0.166 0.566,-0.255 0.105,-0.05 0.206,-0.114 0.3,-0.181 0.173,-0.124 0.33,-0.262 0.552,-0.31 0.167,-0.036 0.324,-0.123 0.481,-0.197 0.192,-0.09 0.381,-0.189 0.571,-0.286 0.054,-0.028 0.109,-0.061 0.155,-0.101 0.122,-0.107 0.238,-0.222 0.361,-0.328 0.146,-0.125 0.306,-0.224 0.491,-0.287 0.094,-0.032 0.189,-0.079 0.265,-0.141 0.226,-0.184 0.443,-0.379 0.665,-0.569 0.034,-0.028 0.075,-0.049 0.112,-0.074 0.213,0.034 0.352,0.194 0.522,0.298 0.143,0.087 0.268,0.2 0.444,0.233 0.082,0.015 0.151,0.092 0.23,0.134 0.048,0.025 0.103,0.051 0.156,0.054 0.145,0.006 0.224,-0.124 0.16,-0.249 C 21.238,5.997 21.16,5.834 21.072,5.677 20.982,5.516 20.899,5.347 20.782,5.207 20.595,4.984 20.607,4.758 20.715,4.516 20.852,4.21 21.04,3.938 21.249,3.679 c 0.117,-0.144 0.243,-0.28 0.356,-0.427 0.078,-0.102 0.151,-0.21 0.208,-0.324 0.107,-0.216 0.284,-0.376 0.429,-0.561 0.162,-0.208 0.269,-0.435 0.323,-0.694 0.029,-0.135 0.09,-0.264 0.134,-0.397 0.054,-0.159 0.102,-0.32 0.159,-0.479 0.117,-0.327 0.242,-0.652 0.355,-0.981 0.048,-0.137 0.067,-0.284 0.111,-0.422 0.048,-0.149 0.114,-0.292 0.166,-0.439 0.057,-0.159 0.111,-0.318 0.159,-0.478 0.058,-0.193 0.103,-0.391 0.165,-0.582 0.064,-0.198 0.143,-0.389 0.166,-0.599 0.023,-0.206 0.087,-0.298 0.357,-0.31 0.161,-0.007 0.282,-0.103 0.423,-0.152 0.042,-0.014 0.086,-0.035 0.117,-0.065 0.1,-0.098 0.222,-0.09 0.346,-0.086 0.135,0.003 0.27,-10e-4 0.405,0.002 0.097,0.003 0.186,-0.003 0.269,-0.07 0.037,-0.03 0.107,-0.033 0.16,-0.027 0.217,0.024 0.422,-0.045 0.633,-0.071 0.022,-0.003 0.043,-0.014 0.063,-0.023 0.11,-0.051 0.219,-0.102 0.358,-0.167 -0.14,-0.053 -0.262,-0.093 -0.38,-0.144 -0.159,-0.07 -0.319,-0.139 -0.47,-0.224 -0.268,-0.153 -0.527,-0.324 -0.797,-0.475 -0.096,-0.053 -0.212,-0.07 -0.318,-0.105 C 25.029,-4.659 24.909,-4.69 24.798,-4.74 24.634,-4.815 24.477,-4.903 24.318,-4.988 24.228,-5.037 24.158,-5.1 24.122,-5.206 24.096,-5.283 24.044,-5.353 23.996,-5.422 23.891,-5.573 23.83,-5.732 23.815,-5.92 23.797,-6.136 23.76,-6.352 23.72,-6.563 23.666,-6.848 23.552,-7.121 23.471,-7.401 23.428,-7.552 23.409,-7.709 23.364,-7.859 23.292,-8.101 23.205,-8.338 23.13,-8.579 23.093,-8.697 23.077,-8.821 23.039,-8.938 22.995,-9.076 22.937,-9.21 22.885,-9.346 22.869,-9.388 22.846,-9.43 22.84,-9.473 c -0.05,-0.385 -0.256,-0.714 -0.383,-1.071 -0.108,-0.302 -0.284,-0.573 -0.417,-0.862 -0.113,-0.247 -0.258,-0.47 -0.396,-0.7 -0.02,-0.033 -0.036,-0.075 -0.065,-0.097 -0.144,-0.109 -0.21,-0.275 -0.31,-0.416 -0.069,-0.097 -0.081,-0.193 -0.023,-0.299 0.04,-0.074 0.074,-0.152 0.11,-0.228 0.113,-0.238 0.225,-0.477 0.34,-0.714 0.021,-0.045 0.055,-0.084 0.082,-0.125 0.045,-0.07 0.09,-0.139 0.145,-0.224 -0.092,-0.056 -0.164,-0.107 -0.243,-0.145 -0.036,-0.017 -0.088,-0.017 -0.128,-0.007 -0.087,0.022 -0.173,0.051 -0.256,0.086 -0.192,0.079 -0.381,0.165 -0.573,0.243 -0.056,0.023 -0.119,0.033 -0.179,0.038 -0.084,0.006 -0.169,-0.003 -0.253,0.003 -0.098,0.007 -0.195,0.024 -0.292,0.059 -0.015,-0.007 -0.037,-0.01 -0.043,-0.022 -0.078,-0.157 -0.209,-0.258 -0.352,-0.351 -0.054,-0.035 -0.105,-0.089 -0.137,-0.146 -0.137,-0.241 -0.366,-0.34 -0.612,-0.413 -0.148,-0.043 -0.29,-0.092 -0.388,-0.221 -0.013,-0.018 -0.031,-0.034 -0.051,-0.044 -0.143,-0.069 -0.263,-0.167 -0.379,-0.276 -0.105,-0.099 -0.229,-0.177 -0.343,-0.267 -0.066,-0.053 -0.124,-0.116 -0.193,-0.163 -0.157,-0.108 -0.316,-0.211 -0.477,-0.312 -0.128,-0.08 -0.258,-0.157 -0.39,-0.23 -0.048,-0.027 -0.103,-0.055 -0.156,-0.058 -0.188,-0.012 -0.337,-0.12 -0.504,-0.181 -0.321,-0.117 -0.611,-0.311 -0.951,-0.385 -0.141,-0.03 -0.274,-0.096 -0.413,-0.138 -0.258,-0.077 -0.517,-0.148 -0.776,-0.221 -0.027,-0.007 -0.056,-0.013 -0.083,-0.01 -0.172,0.022 -0.32,-0.043 -0.462,-0.128 -0.155,-0.092 -0.328,-0.058 -0.494,-0.075 -0.073,-0.007 -0.146,-0.007 -0.219,-0.008 -0.14,-0.002 -0.243,-0.08 -0.34,-0.166 -0.026,-0.024 -0.035,-0.068 -0.045,-0.105 -0.022,-0.08 -0.038,-0.161 -0.061,-0.24 -0.023,-0.081 -0.047,-0.162 -0.077,-0.24 -0.058,-0.155 -0.058,-0.33 -0.181,-0.465 -0.041,-0.045 -0.042,-0.138 -0.042,-0.209 0,-0.147 -0.014,-0.291 -0.064,-0.431 -0.017,-0.047 -0.027,-0.099 -0.029,-0.149 -0.019,-0.492 -0.156,-0.963 -0.259,-1.44 -0.065,-0.303 -0.135,-0.602 -0.215,-0.9 -0.076,-0.286 -0.094,-0.586 -0.144,-0.878 -0.015,-0.086 -0.052,-0.167 -0.099,-0.252 -0.071,0.159 -0.162,0.305 -0.158,0.483 0.002,0.09 0.009,0.181 10e-4,0.27 -0.007,0.07 -0.033,0.138 -0.053,0.206 -0.009,0.032 -0.033,0.063 -0.033,0.094 0.001,0.126 -0.057,0.237 -0.081,0.354 -0.05,0.243 -0.14,0.47 -0.207,0.706 -0.066,0.235 -0.094,0.48 -0.143,0.72 -0.017,0.082 -0.045,0.162 -0.068,0.243 -0.058,0.21 -0.124,0.418 -0.173,0.63 -0.052,0.23 -0.084,0.463 -0.131,0.694 -0.065,0.318 -0.13,0.636 -0.26,0.952 -0.222,0 -0.441,-0.003 -0.659,0.001 -0.213,0.004 -0.427,0.015 -0.64,0.025 -0.033,0.002 -0.071,0.005 -0.098,0.022 -0.158,0.1 -0.336,0.072 -0.508,0.09 -0.093,0.011 -0.191,0.027 -0.274,0.068 -0.181,0.09 -0.369,0.137 -0.569,0.128 -0.301,-0.013 -0.573,0.056 -0.833,0.215 -0.253,0.155 -0.526,0.278 -0.788,0.419 -0.082,0.045 -0.155,0.108 -0.237,0.155 -0.16,0.09 -0.319,0.183 -0.484,0.262 -0.253,0.12 -0.519,0.217 -0.686,0.465 -0.009,0.013 -0.019,0.032 -0.033,0.037 -0.175,0.061 -0.268,0.217 -0.395,0.335 -0.016,0.015 -0.032,0.033 -0.052,0.042 -0.388,0.184 -0.666,0.51 -0.995,0.771 -0.144,0.114 -0.272,0.25 -0.414,0.368 -0.103,0.086 -0.217,0.158 -0.324,0.234 -0.158,-0.086 -0.311,-0.149 -0.428,-0.281 -0.072,-0.081 -0.182,-0.128 -0.275,-0.191 -0.218,-0.148 -0.434,-0.3 -0.656,-0.442 -0.058,-0.037 -0.134,-0.046 -0.203,-0.063 -0.032,-0.009 -0.075,0.005 -0.098,-0.011 -0.12,-0.088 -0.237,-0.182 -0.353,-0.276 -0.201,-0.162 -0.398,-0.327 -0.602,-0.485 -0.036,-0.028 -0.095,-0.036 -0.144,-0.038 -0.158,-0.006 -0.25,0.138 -0.173,0.274 0.039,0.07 0.084,0.128 0.052,0.218 -0.009,0.026 0.029,0.088 0.061,0.107 0.17,0.103 0.249,0.277 0.33,0.44 0.125,0.248 0.285,0.469 0.458,0.683 0.127,0.157 0.267,0.303 0.4,0.455 0.021,0.025 0.049,0.056 0.05,0.084 0.003,0.149 0.101,0.26 0.15,0.39 0.049,0.131 0.116,0.254 0.185,0.402 -0.085,0.11 -0.183,0.224 -0.268,0.347 -0.188,0.272 -0.385,0.538 -0.542,0.832 -0.095,0.179 -0.193,0.363 -0.356,0.502 -0.079,0.068 -0.133,0.167 -0.185,0.26 -0.083,0.146 -0.157,0.298 -0.23,0.45 -0.019,0.04 -0.036,0.088 -0.031,0.13 0.012,0.114 -0.029,0.213 -0.085,0.303 -0.113,0.182 -0.104,0.386 -0.122,0.586 -0.006,0.077 -0.023,0.153 -0.035,0.229 -0.014,0.083 -0.022,0.168 -0.045,0.248 -0.069,0.237 -0.145,0.471 -0.218,0.706 -0.005,0.016 -0.015,0.031 -0.018,0.047 -0.044,0.235 -0.088,0.47 -0.131,0.706 -0.007,0.038 0.005,0.087 -0.015,0.114 -0.089,0.124 -0.083,0.265 -0.083,0.406 -10e-4,0.09 0,0.177 -0.047,0.261 -0.021,0.036 -0.023,0.087 -0.022,0.131 0.007,0.209 -0.022,0.414 -0.073,0.615 -0.029,0.117 -0.036,0.237 -0.094,0.352 -0.042,0.083 -0.032,0.198 -0.026,0.298 0.01,0.162 -0.021,0.312 -0.097,0.465 -0.147,-0.003 -0.277,0.05 -0.384,0.161 -0.018,0.019 -0.047,0.033 -0.074,0.039 -0.184,0.04 -0.371,0.07 -0.554,0.117 -0.123,0.031 -0.238,0.092 -0.361,0.127 -0.209,0.061 -0.421,0.112 -0.632,0.166 -0.054,0.015 -0.109,0.026 -0.162,0.042 -0.062,0.02 -0.841,0.162 -0.906,0.16 -0.129,-0.003 -0.258,-0.01 -0.387,-0.012 -0.037,-0.001 -0.075,0.008 -0.113,0.013 0.043,0.168 0.144,0.256 0.32,0.276 0.073,0.009 0.147,0.004 0.22,0.009 0.061,0.005 0.128,0.002 0.181,0.027 0.154,0.07 0.315,0.076 0.479,0.074 0.173,-0.002 0.34,-0.004 0.509,0.076 0.148,0.07 0.328,0.068 0.485,0.123 0.193,0.068 0.391,0.123 0.571,0.231 0.126,0.076 0.279,0.13 0.424,0.142 0.164,0.014 0.305,0.079 0.444,0.142 0.108,0.05 0.202,0.088 0.315,0.038 0.083,0.151 0.148,0.288 0.132,0.456 -0.011,0.117 0.012,0.236 0.009,0.353 -0.004,0.128 0.015,0.246 0.086,0.354 0.018,0.026 0.019,0.063 0.027,0.096 0.021,0.086 0.042,0.172 0.063,0.258 0.004,0.017 0.016,0.031 0.018,0.048 0.048,0.361 0.252,0.668 0.354,1.012 0.072,0.24 0.134,0.483 0.199,0.725 0.01,0.038 0.019,0.076 0.035,0.112 0.143,0.328 0.289,0.655 0.432,0.982 0.052,0.119 0.093,0.242 0.15,0.358 0.12,0.247 0.244,0.492 0.372,0.736 0.059,0.112 0.118,0.224 0.226,0.307 0.043,0.033 0.061,0.12 0.063,0.183 0.004,0.163 -0.007,0.326 -0.013,0.489 0,0.022 -0.012,0.049 -0.003,0.067 0.062,0.138 -0.024,0.24 -0.093,0.336 -0.263,0.361 -0.484,0.745 -0.683,1.142 -0.15,0.298 -0.318,0.582 -0.552,0.824 -0.058,0.06 -0.107,0.131 -0.154,0.201 -0.237,0.362 -0.486,0.716 -0.773,1.042 -0.074,0.083 -0.125,0.186 -0.186,0.28 -0.203,0.31 -0.407,0.62 -0.609,0.931 -0.029,0.046 -0.046,0.1 -0.075,0.166"
             style="fill:#fff;fill-opacity:1;fill-rule:nonzero;stroke:none"
             id="path5673"
             inkscape:connector-curvature="0" />
        </g>
        <g
           id="g5675"
           transform="translate(231.2588,337.1083)">
          <path
             d="m 0,0 c 1.373,0.031 2.627,0.568 3.65,1.633 0.453,0.472 0.807,1.008 1.007,1.638 0.047,0.15 0.096,0.3 0.16,0.443 0.147,0.33 0.222,0.671 0.196,1.033 -0.006,0.079 0,0.158 -0.001,0.236 C 5.01,5.056 5.01,5.13 5.003,5.202 4.982,5.413 4.951,5.624 4.937,5.835 4.918,6.115 4.923,6.396 4.895,6.674 4.878,6.851 4.837,7.029 4.779,7.197 4.607,7.689 4.35,8.138 4.036,8.553 2.235,10.936 -1.101,11.338 -3.394,9.449 -3.805,9.11 -4.171,8.725 -4.452,8.275 -4.668,7.928 -4.831,7.548 -5.013,7.18 -5.085,7.033 -5.143,6.88 -5.123,6.71 -5.121,6.689 -5.129,6.666 -5.131,6.644 -5.153,6.432 -5.18,6.221 -5.194,6.009 -5.213,5.729 -5.221,5.449 -5.234,5.169 -5.235,5.152 -5.238,5.135 -5.241,5.119 -5.291,4.862 -5.292,4.606 -5.236,4.349 -5.208,4.218 -5.167,4.088 -5.154,3.956 -5.126,3.688 -5.03,3.442 -4.929,3.2 -4.721,2.702 -4.422,2.261 -4.063,1.86 -3.979,1.766 -3.868,1.694 -3.769,1.613 -3.691,1.549 -3.608,1.492 -3.536,1.423 -3.362,1.256 -3.214,1.053 -3.02,0.917 -2.146,0.306 -1.167,0.011 0,0 m -1.069,-2.718 c 0,0.247 -0.006,0.495 0.002,0.742 0.007,0.223 0.031,0.447 0.045,0.67 0.004,0.055 0.001,0.11 0.001,0.172 -0.062,0.015 -0.11,0.029 -0.159,0.037 -1.005,0.165 -1.922,0.547 -2.749,1.141 C -4.007,0.1 -4.08,0.11 -4.165,0.088 -4.246,0.067 -4.326,0.041 -4.407,0.018 c -0.105,-0.031 -0.181,-0.087 -0.254,-0.177 -0.14,-0.174 -0.31,-0.323 -0.468,-0.483 -0.046,-0.047 -0.09,-0.096 -0.13,-0.138 0.043,-0.135 0.124,-0.203 0.248,-0.218 0.127,-0.015 0.255,-0.029 0.382,-0.044 0.043,-0.005 0.085,-0.013 0.125,-0.019 0.022,-0.102 -0.034,-0.156 -0.092,-0.196 -0.206,-0.14 -0.417,-0.271 -0.685,-0.231 -0.038,0.005 -0.078,0.002 -0.117,-0.003 -0.266,-0.038 -0.532,-0.076 -0.798,-0.116 -0.033,-0.005 -0.072,-0.006 -0.097,-0.024 -0.11,-0.081 -0.238,-0.101 -0.366,-0.118 -0.133,-0.018 -0.248,-0.068 -0.353,-0.148 -0.096,-0.072 -0.205,-0.089 -0.32,-0.076 -0.102,0.013 -0.14,0.086 -0.072,0.162 0.046,0.052 0.05,0.107 0.064,0.166 0.124,0.542 0.256,1.081 0.374,1.624 0.069,0.316 0.117,0.638 0.172,0.957 0.009,0.053 0.016,0.107 0.078,0.114 0.076,0.01 0.108,-0.049 0.131,-0.108 0.06,-0.157 0.115,-0.317 0.179,-0.472 0.036,-0.086 0.086,-0.167 0.135,-0.261 0.045,0.031 0.077,0.043 0.095,0.067 0.162,0.212 0.339,0.406 0.574,0.537 0.104,0.058 0.153,0.133 0.146,0.258 -0.005,0.111 0.021,0.223 0.033,0.334 0.01,0.088 -0.015,0.163 -0.066,0.237 -0.32,0.46 -0.581,0.952 -0.755,1.485 C -6.36,3.478 -6.443,3.841 -6.532,4.201 -6.555,4.293 -6.58,4.372 -6.669,4.419 -6.693,4.432 -6.72,4.449 -6.734,4.472 -6.828,4.632 -6.975,4.645 -7.141,4.639 -7.399,4.63 -7.659,4.637 -7.918,4.637 -7.972,4.637 -8.027,4.632 -8.109,4.628 -8.027,4.453 -7.993,4.281 -7.889,4.135 -7.847,4.077 -7.82,4.005 -7.803,3.936 -7.778,3.839 -7.761,3.738 -7.755,3.638 -7.753,3.596 -7.78,3.529 -7.812,3.515 -7.846,3.5 -7.909,3.524 -7.946,3.55 c -0.105,0.073 -0.199,0.163 -0.307,0.232 -0.098,0.064 -0.209,0.109 -0.314,0.161 -0.106,0.052 -0.212,0.104 -0.319,0.153 -0.142,0.067 -0.288,0.125 -0.426,0.198 -0.149,0.079 -0.29,0.171 -0.434,0.256 -0.082,0.049 -0.162,0.103 -0.248,0.142 -0.295,0.135 -0.592,0.265 -0.89,0.394 -0.045,0.019 -0.097,0.038 -0.145,0.034 -0.113,-0.01 -0.195,0.034 -0.264,0.133 0.039,0.07 0.11,0.112 0.187,0.144 0.131,0.054 0.24,0.14 0.356,0.219 0.282,0.194 0.573,0.377 0.875,0.536 0.303,0.159 0.626,0.279 0.936,0.424 0.153,0.071 0.297,0.16 0.444,0.243 0.093,0.053 0.184,0.095 0.299,0.099 0.07,0.002 0.139,0.061 0.206,0.1 0.029,0.016 0.047,0.053 0.077,0.064 0.032,0.013 0.088,0.023 0.104,0.006 C -7.784,7.063 -7.765,7.004 -7.778,6.974 -7.814,6.893 -7.87,6.82 -7.914,6.742 -7.999,6.593 -8.081,6.442 -8.178,6.265 c 0.159,0 0.286,0 0.413,0 0.231,0.001 0.462,0.002 0.692,0.005 0.24,0.002 0.339,0.088 0.406,0.319 0.148,0.514 0.35,1.008 0.587,1.488 0.05,0.101 0.093,0.204 0.143,0.305 0.122,0.246 0.248,0.491 0.368,0.738 0.051,0.105 0.098,0.213 0.138,0.323 0.029,0.081 -0.001,0.158 -0.061,0.217 -0.047,0.047 -0.098,0.099 -0.158,0.124 -0.219,0.091 -0.365,0.278 -0.558,0.403 -0.153,-0.115 -0.251,-0.271 -0.268,-0.493 -0.133,0.113 -0.184,0.225 -0.208,0.374 -0.063,0.399 -0.119,0.801 -0.269,1.181 -0.098,0.251 -0.176,0.51 -0.272,0.761 -0.041,0.104 -0.095,0.206 -0.164,0.293 -0.072,0.09 -0.062,0.19 -0.067,0.287 -0.005,0.081 0.085,0.116 0.162,0.077 0.104,-0.052 0.21,-0.101 0.316,-0.151 0.015,-0.008 0.032,-0.013 0.045,-0.023 0.182,-0.145 0.414,-0.195 0.609,-0.317 0.16,-0.101 0.348,-0.119 0.526,-0.167 0.26,-0.071 0.521,-0.138 0.783,-0.203 0.118,-0.029 0.238,-0.051 0.389,-0.083 -0.185,-0.183 -0.435,-0.235 -0.59,-0.442 0.102,-0.102 0.206,-0.208 0.312,-0.311 0.072,-0.071 0.144,-0.143 0.223,-0.206 0.055,-0.045 0.118,-0.082 0.184,-0.11 0.151,-0.065 0.299,-0.067 0.448,0.026 0.084,0.052 0.187,0.076 0.283,0.108 0.309,0.104 0.572,0.289 0.83,0.478 0.29,0.212 0.606,0.362 0.948,0.468 0.144,0.045 0.285,0.104 0.425,0.161 0.121,0.049 0.24,0.086 0.374,0.087 0.232,0.003 0.29,0.051 0.312,0.277 0.026,0.262 0.035,0.526 0.044,0.79 0.002,0.058 -0.025,0.117 -0.037,0.168 -0.139,0.051 -0.256,-0.006 -0.376,-0.027 -0.06,-0.011 -0.121,-0.031 -0.181,-0.027 -0.09,0.005 -0.164,-0.023 -0.237,-0.069 -0.142,-0.089 -0.267,-0.038 -0.3,0.125 -0.006,0.032 0.01,0.078 0.031,0.107 0.126,0.179 0.25,0.358 0.335,0.563 0.037,0.09 0.117,0.161 0.178,0.241 0.006,0.009 0.016,0.015 0.022,0.025 0.139,0.23 0.298,0.452 0.411,0.695 0.165,0.352 0.345,0.694 0.554,1.021 0.027,0.042 0.071,0.073 0.098,0.115 0.031,0.05 0.07,0.104 0.075,0.16 0.011,0.118 0.08,0.189 0.166,0.267 C -0.003,16.33 0.067,16.254 0.112,16.135 0.272,15.71 0.451,15.292 0.635,14.877 0.723,14.678 0.84,14.491 0.941,14.298 1.159,13.879 1.375,13.46 1.592,13.041 1.535,12.951 1.466,12.94 1.373,12.977 1.175,13.055 0.971,13.118 0.808,13.267 0.747,13.323 0.667,13.356 0.576,13.411 0.546,13.284 0.55,13.175 0.582,13.069 0.674,12.765 0.71,12.454 0.706,12.136 c 0,-0.033 0.005,-0.067 0.011,-0.1 0.003,-0.016 0.014,-0.03 0.025,-0.053 0.374,10e-4 0.718,-0.155 1.079,-0.234 0.193,-0.041 0.37,-0.122 0.52,-0.263 0.08,-0.076 0.183,-0.13 0.281,-0.184 0.25,-0.139 0.496,-0.284 0.774,-0.368 0.102,-0.031 0.192,-0.114 0.278,-0.184 0.135,-0.109 0.263,-0.228 0.402,-0.35 0.143,0.132 0.279,0.256 0.414,0.382 0.107,0.099 0.218,0.194 0.316,0.302 0.059,0.064 0.097,0.147 0.158,0.243 -0.101,0.05 -0.184,0.091 -0.266,0.133 -0.061,0.03 -0.126,0.057 -0.125,0.142 10e-4,0.077 0.049,0.123 0.11,0.158 0.029,0.017 0.06,0.032 0.091,0.043 0.213,0.071 0.426,0.144 0.64,0.211 0.187,0.059 0.376,0.112 0.564,0.168 0.037,0.012 0.08,0.016 0.11,0.039 0.23,0.174 0.518,0.214 0.768,0.34 0.029,0.015 0.064,0.024 0.096,0.025 0.137,0.003 0.187,-0.057 0.151,-0.189 C 7.047,12.191 6.99,11.985 6.926,11.781 6.809,11.413 6.694,11.045 6.526,10.694 6.448,10.529 6.419,10.34 6.365,10.163 6.346,10.1 6.321,10.038 6.298,9.974 6.058,9.996 6.066,10.213 5.973,10.356 5.848,10.311 5.76,10.221 5.682,10.119 5.521,9.91 5.362,9.699 5.201,9.491 5.15,9.425 5.136,9.361 5.187,9.291 5.256,9.195 5.329,9.102 5.391,9.002 5.544,8.753 5.707,8.509 5.84,8.25 6.024,7.891 6.189,7.52 6.256,7.117 6.3,6.847 6.341,6.577 6.38,6.306 6.39,6.233 6.419,6.183 6.484,6.145 6.746,5.992 6.745,5.994 7.123,6.029 7.324,6.048 7.526,6.054 7.727,6.066 7.772,6.068 7.816,6.071 7.869,6.073 7.839,6.287 7.792,6.485 7.647,6.647 7.544,6.76 7.515,6.891 7.557,7.045 7.71,7.14 7.853,7.119 8.002,7.015 8.46,6.698 8.957,6.448 9.434,6.164 9.5,6.125 9.583,6.115 9.653,6.081 9.794,6.012 9.933,5.939 10.07,5.863 10.355,5.705 10.638,5.544 10.921,5.383 10.929,5.378 10.933,5.365 10.939,5.355 10.936,5.345 10.936,5.329 10.93,5.326 10.742,5.255 10.622,5.094 10.466,4.98 10.397,4.93 10.307,4.904 10.223,4.876 9.739,4.714 9.242,4.582 8.808,4.296 8.523,4.109 8.195,4.017 7.891,3.873 7.819,3.839 7.75,3.799 7.651,3.746 7.586,3.761 7.638,3.83 7.652,3.881 7.721,4.123 7.792,4.364 7.864,4.611 7.862,4.613 7.854,4.627 7.845,4.627 7.576,4.629 7.306,4.63 7.036,4.63 7.009,4.63 6.98,4.623 6.955,4.612 6.838,4.559 6.723,4.5 6.605,4.45 6.542,4.423 6.511,4.383 6.493,4.316 6.415,4.03 6.328,3.745 6.25,3.459 6.218,3.34 6.194,3.217 6.179,3.095 6.148,2.849 6.048,2.631 5.918,2.425 5.777,2.201 5.639,1.976 5.49,1.758 5.351,1.555 5.199,1.361 5.04,1.144 5.207,0.918 5.383,0.679 5.56,0.441 5.601,0.385 5.656,0.38 5.706,0.424 5.862,0.56 6.027,0.69 6.113,0.886 6.136,0.938 6.163,0.976 6.224,0.965 6.286,0.954 6.3,0.905 6.302,0.851 6.317,0.431 6.427,0.031 6.558,-0.365 6.595,-0.476 6.617,-0.593 6.654,-0.705 6.749,-0.987 6.849,-1.266 6.945,-1.548 6.975,-1.633 7.003,-1.719 7.023,-1.806 7.05,-1.924 7.003,-1.988 6.889,-1.974 6.791,-1.963 6.696,-1.927 6.6,-1.897 6.5,-1.866 6.403,-1.825 6.301,-1.797 6.091,-1.74 5.88,-1.685 5.693,-1.564 5.674,-1.552 5.655,-1.54 5.634,-1.534 5.285,-1.428 4.943,-1.3 4.582,-1.241 c -0.017,0.003 -0.04,0 -0.049,0.01 -0.045,0.046 -0.101,0.09 -0.126,0.147 -0.027,0.06 0.033,0.097 0.078,0.134 0.115,0.096 0.229,0.195 0.348,0.297 C 4.683,-0.314 4.389,-0.124 4.138,0.123 4.031,0.042 3.926,-0.052 3.808,-0.123 3.449,-0.341 3.118,-0.607 2.717,-0.757 2.401,-0.875 2.093,-1.013 1.781,-1.139 1.538,-1.236 1.286,-1.284 1.023,-1.281 0.825,-1.278 0.666,-1.444 0.665,-1.64 0.664,-1.961 0.664,-2.282 0.666,-2.603 c 0,-0.048 0.009,-0.096 0.015,-0.151 0.306,0.149 0.596,0.29 0.887,0.43 0.005,0.002 0.018,-0.011 0.046,-0.028 C 1.589,-2.419 1.564,-2.491 1.537,-2.562 1.469,-2.741 1.404,-2.921 1.332,-3.098 1.289,-3.201 1.239,-3.301 1.186,-3.4 1.144,-3.479 1.095,-3.555 1.045,-3.63 0.978,-3.733 0.906,-3.833 0.838,-3.935 0.804,-3.987 0.768,-4.038 0.741,-4.094 0.625,-4.331 0.511,-4.569 0.396,-4.807 0.389,-4.823 0.381,-4.838 0.378,-4.854 0.298,-5.239 0.099,-5.573 -0.077,-5.916 -0.095,-5.95 -0.145,-5.995 -0.173,-5.99 c -0.04,0.006 -0.089,0.046 -0.107,0.085 -0.068,0.147 -0.123,0.301 -0.187,0.45 -0.136,0.314 -0.267,0.63 -0.415,0.939 -0.145,0.304 -0.308,0.599 -0.465,0.898 -0.026,0.05 -0.06,0.095 -0.083,0.146 -0.13,0.293 -0.258,0.586 -0.384,0.88 -0.028,0.067 -0.049,0.138 -0.064,0.209 -0.019,0.094 0.045,0.153 0.137,0.132 0.016,-0.004 0.031,-0.014 0.046,-0.022 0.188,-0.097 0.383,-0.185 0.504,-0.373 0.022,-0.035 0.056,-0.061 0.085,-0.092 l 0.037,0.02"
             style="fill:#fff;fill-opacity:1;fill-rule:nonzero;stroke:none"
             id="path5677"
             inkscape:connector-curvature="0" />
        </g>
        <g
           id="g5679"
           transform="translate(231.2807,339.6964)">
          <path
             d="M 0,0 C 0.053,-0.033 0.098,-0.067 0.149,-0.089 0.376,-0.191 0.541,-0.083 0.538,0.168 0.537,0.35 0.489,0.523 0.408,0.685 0.356,0.79 0.304,0.896 0.237,0.991 0.207,1.035 0.144,1.073 0.09,1.082 -0.137,1.12 -0.276,0.975 -0.399,0.818 -0.581,0.585 -0.624,0.31 -0.616,0.023 -0.612,-0.117 -0.559,-0.162 -0.414,-0.155 -0.259,-0.149 -0.117,-0.105 0,0 m -1.428,1.234 c 0.032,0.002 0.061,0 0.088,0.006 0.11,0.022 0.22,0.045 0.329,0.072 0.205,0.05 0.285,0.266 0.144,0.425 -0.114,0.129 -0.25,0.239 -0.385,0.347 -0.069,0.055 -0.153,0.094 -0.236,0.127 -0.066,0.027 -0.14,0.048 -0.211,0.047 C -1.804,2.258 -1.91,2.24 -2.015,2.223 -2.102,2.209 -2.185,2.17 -2.204,2.077 -2.245,1.885 -2.343,1.685 -2.16,1.508 -2.148,1.498 -2.144,1.479 -2.139,1.463 -2.103,1.352 -2.014,1.304 -1.91,1.288 -1.749,1.264 -1.586,1.251 -1.428,1.234 m 2.801,0.114 c 0.044,0 0.1,0 0.156,0 0.145,0.002 0.278,0.046 0.395,0.126 0.047,0.032 0.102,0.089 0.108,0.139 0.02,0.186 0.021,0.373 0.029,0.56 C 2.065,2.247 2.041,2.319 1.97,2.337 1.858,2.366 1.733,2.409 1.627,2.384 1.338,2.316 1.056,2.212 0.824,2.019 0.746,1.955 0.683,1.857 0.646,1.762 0.586,1.609 0.653,1.491 0.803,1.425 0.982,1.347 1.166,1.313 1.373,1.348 M 0.849,-1.739 C 0.812,-1.683 0.785,-1.641 0.768,-1.616 0.632,-1.624 0.669,-1.733 0.604,-1.795 0.533,-1.8 0.445,-1.805 0.365,-1.81 0.322,-1.751 0.297,-1.687 0.25,-1.665 0.226,-1.654 0.167,-1.717 0.107,-1.757 c -0.238,0.058 -0.494,0.121 -0.749,0.183 -0.006,0.001 -0.011,0.006 -0.016,0.005 -0.195,-0.038 -0.303,0.104 -0.433,0.204 -0.08,0.061 -0.168,0.111 -0.229,0.151 -0.061,0.159 -0.115,0.299 -0.169,0.438 -0.064,0.163 -0.141,0.321 -0.191,0.487 -0.089,0.297 -0.361,0.574 -0.772,0.49 C -2.558,0.179 -2.686,0.219 -2.793,0.26 -2.898,0.301 -2.938,0.401 -2.943,0.521 -2.95,0.683 -2.971,0.846 -3,1.006 -3.04,1.226 -3.144,1.42 -3.282,1.594 -3.43,1.782 -3.508,1.992 -3.521,2.231 c -0.008,0.14 -0.028,0.28 -0.051,0.419 -0.014,0.085 0.004,0.156 0.059,0.219 0.168,0.195 0.22,0.423 0.203,0.674 -0.006,0.084 0.002,0.169 -0.007,0.253 -0.022,0.205 0.055,0.385 0.136,0.565 0.046,0.102 0.094,0.206 0.119,0.314 0.079,0.351 0.253,0.661 0.414,0.976 0.032,0.063 0.09,0.114 0.142,0.165 0.253,0.249 0.515,0.486 0.847,0.628 C -1.223,6.63 -0.773,6.769 -0.3,6.822 -0.201,6.833 -0.099,6.823 0.001,6.81 0.285,6.773 0.569,6.738 0.85,6.684 1.13,6.63 1.378,6.482 1.614,6.335 1.782,6.23 1.908,6.059 2.056,5.921 2.141,5.841 2.239,5.773 2.322,5.691 2.376,5.637 2.42,5.569 2.458,5.502 2.565,5.311 2.664,5.116 2.771,4.925 2.887,4.721 2.963,4.511 2.972,4.272 2.984,3.94 3.013,3.61 3.046,3.28 3.066,3.086 3.127,2.904 3.285,2.773 3.362,2.708 3.393,2.624 3.369,2.532 3.331,2.38 3.289,2.228 3.23,2.084 3.128,1.84 3.002,1.606 2.906,1.36 2.83,1.168 2.783,0.964 2.725,0.764 2.709,0.711 2.702,0.654 2.683,0.601 2.61,0.388 2.598,0.391 2.413,0.428 2.244,0.461 2.085,0.407 1.927,0.33 1.685,0.212 1.562,0.008 1.46,-0.22 1.436,-0.276 1.416,-0.338 1.41,-0.398 1.386,-0.643 1.369,-0.889 1.347,-1.135 1.344,-1.173 1.343,-1.221 1.32,-1.246 1.177,-1.41 1.048,-1.589 0.849,-1.739"
             style="fill:#fff;fill-opacity:1;fill-rule:nonzero;stroke:none"
             id="path5681"
             inkscape:connector-curvature="0" />
        </g>
      </g>
    </g>
  </g>
</svg>
