<?xml version="1.0" encoding="UTF-8" standalone="no"?>
<!-- Created with Inkscape (http://www.inkscape.org/) -->

<svg
   xmlns:dc="http://purl.org/dc/elements/1.1/"
   xmlns:cc="http://creativecommons.org/ns#"
   xmlns:rdf="http://www.w3.org/1999/02/22-rdf-syntax-ns#"
   xmlns:svg="http://www.w3.org/2000/svg"
   xmlns="http://www.w3.org/2000/svg"
   xmlns:sodipodi="http://sodipodi.sourceforge.net/DTD/sodipodi-0.dtd"
   xmlns:inkscape="http://www.inkscape.org/namespaces/inkscape"
   width="11.448485mm"
   height="12.673188mm"
   viewBox="0 0 11.448485 12.673188"
   version="1.1"
   id="svg7992"
   inkscape:version="0.92.5 (2060ec1f9f, 2020-04-08)"
   sodipodi:docname="allies-khorne.svg">
  <defs
     id="defs7986">
    <clipPath
       clipPathUnits="userSpaceOnUse"
       id="clipPath5713">
      <path
         d="m 173.263,323.47 h 32.453 v 35.925 h -32.453 z"
         id="path5711"
         inkscape:connector-curvature="0" />
    </clipPath>
  </defs>
  <sodipodi:namedview
     id="base"
     pagecolor="#ffffff"
     bordercolor="#666666"
     borderopacity="1.0"
     inkscape:pageopacity="0.0"
     inkscape:pageshadow="2"
     inkscape:zoom="0.35"
     inkscape:cx="-306.9365"
     inkscape:cy="-44.622106"
     inkscape:document-units="mm"
     inkscape:current-layer="layer1"
     showgrid="false"
     fit-margin-top="0"
     fit-margin-left="0"
     fit-margin-right="0"
     fit-margin-bottom="0"
     inkscape:window-width="1920"
     inkscape:window-height="1017"
     inkscape:window-x="-8"
     inkscape:window-y="-8"
     inkscape:window-maximized="1" />
  <metadata
     id="metadata7989">
    <rdf:RDF>
      <cc:Work
         rdf:about="">
        <dc:format>image/svg+xml</dc:format>
        <dc:type
           rdf:resource="http://purl.org/dc/dcmitype/StillImage" />
        <dc:title></dc:title>
      </cc:Work>
    </rdf:RDF>
  </metadata>
  <g
     inkscape:label="Layer 1"
     inkscape:groupmode="layer"
     id="layer1"
     transform="translate(-187.04361,-124.35388)">
    <g
       transform="matrix(0.35277777,0,0,-0.35277777,125.92028,251.14034)"
       id="g5707">
      <g
         id="g5709"
         clip-path="url(#clipPath5713)">
        <g
           id="g5715"
           transform="translate(179.0044,346.1907)">
          <path
             d="m 0,0 c -0.023,-0.106 -0.025,-0.201 -0.065,-0.277 -0.171,-0.326 -0.247,-0.686 -0.364,-1.031 -0.049,-0.145 -0.061,-0.302 -0.092,-0.454 -0.02,-0.102 -0.042,-0.203 -0.065,-0.304 -0.042,-0.177 -0.115,-0.352 -0.121,-0.53 -0.014,-0.492 -0.002,-0.985 0.001,-1.478 0.004,-0.414 0.013,-0.828 0.015,-1.242 0.003,-0.409 -0.001,-0.818 0.002,-1.226 0.001,-0.06 0.013,-0.122 0.036,-0.177 0.085,-0.205 0.092,-0.427 0.15,-0.639 0.041,-0.149 0.079,-0.294 0.141,-0.436 0.036,-0.084 0.049,-0.18 0.069,-0.27 0.007,-0.032 -0.009,-0.074 0.007,-0.098 0.098,-0.151 0.089,-0.328 0.129,-0.493 0.019,-0.08 0.045,-0.162 0.087,-0.232 0.074,-0.121 0.062,-0.253 0.082,-0.383 0.021,-0.132 0.121,-0.246 0.108,-0.395 -0.006,-0.061 0.013,-0.131 0.04,-0.188 0.1,-0.216 0.202,-0.43 0.221,-0.673 0.001,-0.021 0.007,-0.044 0.017,-0.063 0.126,-0.233 0.212,-0.488 0.391,-0.692 0.087,-0.099 0.156,-0.215 0.244,-0.313 0.18,-0.202 0.366,-0.398 0.55,-0.596 0.12,-0.129 0.278,-0.222 0.359,-0.388 0.014,-0.029 0.04,-0.054 0.066,-0.074 0.164,-0.123 0.329,-0.243 0.493,-0.366 0.052,-0.04 0.103,-0.082 0.151,-0.128 0.128,-0.121 0.251,-0.247 0.38,-0.367 0.077,-0.071 0.161,-0.134 0.241,-0.201 0.158,-0.13 0.299,-0.29 0.493,-0.36 0.221,-0.081 0.392,-0.228 0.568,-0.368 0.137,-0.109 0.289,-0.179 0.447,-0.247 0.166,-0.072 0.334,-0.147 0.487,-0.245 0.114,-0.073 0.205,-0.184 0.307,-0.276 0.024,-0.021 0.053,-0.041 0.083,-0.051 0.35,-0.111 0.672,-0.313 1.054,-0.324 0.048,-0.002 0.096,-0.025 0.143,-0.042 0.253,-0.089 0.51,-0.143 0.78,-0.126 0.133,0.008 0.266,0.005 0.399,0 0.048,-10e-4 0.101,-0.01 0.14,-0.034 0.183,-0.113 0.384,-0.167 0.595,-0.176 0.277,-0.012 0.554,-0.007 0.831,-0.013 0.083,-0.002 0.165,-0.013 0.247,-0.025 0.136,-0.02 0.271,-0.063 0.407,-0.065 0.521,-0.007 1.042,-0.004 1.563,-0.001 0.088,0.001 0.178,0.016 0.261,0.041 0.143,0.042 0.283,0.096 0.423,0.147 0.219,0.08 0.44,0.141 0.678,0.119 0.131,-0.012 0.266,-0.016 0.396,0.004 0.261,0.041 0.521,0.096 0.779,0.155 0.123,0.028 0.256,0.055 0.358,0.122 0.216,0.143 0.413,0.315 0.672,0.382 0.044,0.011 0.078,0.06 0.119,0.087 0.077,0.053 0.15,0.119 0.236,0.15 0.263,0.096 0.481,0.267 0.718,0.406 0.205,0.122 0.402,0.28 0.666,0.257 0.025,-0.002 0.058,0.005 0.078,0.02 0.106,0.079 0.212,0.158 0.313,0.245 0.105,0.089 0.198,0.193 0.305,0.28 0.188,0.153 0.393,0.287 0.573,0.449 0.242,0.219 0.468,0.454 0.696,0.687 0.155,0.157 0.308,0.317 0.446,0.489 0.099,0.123 0.172,0.268 0.256,0.403 0.038,0.061 0.073,0.124 0.111,0.185 0.11,0.173 0.222,0.343 0.274,0.546 0.021,0.078 0.057,0.16 0.11,0.22 0.169,0.189 0.264,0.42 0.383,0.638 0.066,0.12 0.113,0.251 0.166,0.378 0.088,0.209 0.173,0.419 0.262,0.628 0.037,0.085 0.076,0.171 0.121,0.252 0.088,0.155 0.168,0.308 0.178,0.494 0.005,0.096 0.049,0.192 0.082,0.285 0.05,0.14 0.118,0.274 0.158,0.417 0.08,0.286 0.077,0.592 0.198,0.871 0.017,0.038 0.005,0.088 0.011,0.131 0.014,0.115 0.027,0.229 0.048,0.343 0.026,0.141 0.065,0.28 0.087,0.421 0.021,0.142 0.012,0.29 0.046,0.428 0.062,0.255 0.088,0.51 0.078,0.772 -0.003,0.102 0.016,0.212 0.054,0.307 0.04,0.102 0.06,0.199 0.046,0.306 -0.008,0.055 0.002,0.111 0,0.166 -0.005,0.138 0.004,0.279 -0.021,0.413 -0.053,0.282 -0.118,0.562 -0.19,0.84 -0.08,0.309 -0.173,0.616 -0.259,0.924 -0.034,0.122 -0.067,0.245 -0.094,0.369 -0.076,0.36 -0.271,0.694 -0.23,1.079 0.002,0.021 -0.004,0.044 -0.011,0.065 -0.073,0.232 -0.142,0.465 -0.221,0.694 -0.09,0.261 -0.195,0.517 -0.281,0.779 -0.094,0.28 -0.228,0.541 -0.373,0.795 -0.142,0.249 -0.314,0.482 -0.474,0.721 -0.018,0.027 -0.044,0.049 -0.067,0.073 -0.134,0.146 -0.269,0.291 -0.4,0.44 -0.025,0.027 -0.031,0.07 -0.047,0.105 -0.03,0.065 -0.049,0.139 -0.094,0.191 -0.151,0.175 -0.311,0.343 -0.469,0.513 -0.01,0.012 -0.026,0.024 -0.041,0.026 -0.18,0.036 -0.302,0.152 -0.412,0.289 -0.031,0.038 -0.076,0.064 -0.114,0.096 -0.179,0.148 -0.365,0.289 -0.536,0.446 -0.335,0.308 -0.662,0.623 -0.99,0.939 -0.135,0.13 -0.296,0.21 -0.47,0.273 -0.065,0.024 -0.132,0.056 -0.184,0.1 -0.121,0.102 -0.251,0.162 -0.411,0.141 -0.087,-0.011 -0.162,0.011 -0.236,0.057 -0.079,0.049 -0.16,0.104 -0.247,0.132 -0.15,0.048 -0.284,0.114 -0.396,0.228 C 14.83,7 14.713,7.09 14.543,7.075 14.499,7.071 14.45,7.103 14.407,7.124 c -0.18,0.089 -0.361,0.158 -0.57,0.148 -0.244,-0.012 -0.488,0 -0.732,0.006 -0.06,0.002 -0.12,0.015 -0.178,0.029 -0.08,0.02 -0.163,0.035 -0.237,0.069 -0.155,0.071 -0.333,0.078 -0.478,0.178 -0.121,0.083 -0.257,0.121 -0.408,0.113 -0.15,-0.009 -0.3,0 -0.449,-0.006 C 11.29,7.659 11.215,7.654 11.164,7.621 11.077,7.566 10.988,7.561 10.893,7.561 10.566,7.561 10.239,7.554 9.912,7.562 9.63,7.568 9.378,7.435 9.105,7.406 9.085,7.404 9.065,7.388 9.045,7.378 8.775,7.252 8.504,7.125 8.235,6.997 8.2,6.981 8.172,6.952 8.137,6.935 8.055,6.892 7.974,6.847 7.888,6.813 7.688,6.734 7.474,6.682 7.287,6.58 7.01,6.427 6.719,6.31 6.426,6.197 6.06,6.055 5.705,5.892 5.378,5.671 5.31,5.626 5.23,5.596 5.152,5.57 5.021,5.527 4.887,5.494 4.755,5.451 4.715,5.438 4.675,5.413 4.645,5.382 4.405,5.133 4.141,4.92 3.806,4.81 3.765,4.797 3.726,4.77 3.693,4.742 3.612,4.675 3.536,4.602 3.455,4.535 3.332,4.434 3.206,4.336 3.08,4.238 2.863,4.068 2.621,3.931 2.444,3.71 2.352,3.595 2.238,3.496 2.126,3.397 2.023,3.306 1.913,3.222 1.802,3.14 1.661,3.036 1.558,2.882 1.384,2.818 1.354,2.807 1.327,2.769 1.311,2.737 1.182,2.48 1.055,2.221 0.93,1.962 0.785,1.664 0.628,1.37 0.503,1.064 0.394,0.798 0.321,0.518 0.236,0.244 0.197,0.12 0.137,0.022 0,0 m 1.692,-13.86 c -0.151,-0.085 -0.298,-0.143 -0.41,-0.268 -0.076,-0.084 -0.188,-0.134 -0.284,-0.199 -0.215,-0.146 -0.428,-0.295 -0.646,-0.435 -0.057,-0.036 -0.132,-0.056 -0.2,-0.06 -0.065,-0.004 -0.114,-0.018 -0.162,-0.063 -0.052,-0.048 -0.117,-0.081 -0.175,-0.121 -0.027,-0.019 -0.051,-0.041 -0.076,-0.062 -0.198,-0.167 -0.393,-0.337 -0.595,-0.5 -0.04,-0.032 -0.101,-0.043 -0.154,-0.053 -0.078,-0.015 -0.143,0.017 -0.185,0.084 -0.039,0.061 -0.041,0.13 0,0.189 0.045,0.066 0.077,0.127 0.053,0.214 -0.008,0.028 0.028,0.086 0.06,0.105 0.167,0.102 0.245,0.274 0.324,0.433 0.12,0.241 0.276,0.453 0.44,0.66 0.127,0.16 0.27,0.308 0.405,0.462 0.018,0.021 0.044,0.042 0.048,0.066 0.043,0.29 0.246,0.516 0.317,0.804 -0.009,0.015 -0.022,0.039 -0.038,0.061 -0.186,0.255 -0.372,0.509 -0.557,0.764 -0.03,0.04 -0.059,0.081 -0.084,0.124 -0.107,0.186 -0.212,0.373 -0.319,0.559 -0.014,0.024 -0.032,0.047 -0.054,0.063 -0.159,0.115 -0.24,0.286 -0.326,0.453 -0.043,0.083 -0.091,0.165 -0.13,0.25 -0.027,0.06 -0.06,0.124 -0.061,0.187 -0.001,0.104 -0.025,0.195 -0.076,0.283 -0.088,0.152 -0.14,0.316 -0.123,0.492 0.02,0.198 -0.051,0.382 -0.091,0.568 -0.053,0.242 -0.141,0.476 -0.214,0.713 -0.004,0.016 -0.016,0.03 -0.019,0.046 -0.038,0.187 -0.076,0.375 -0.112,0.563 -0.024,0.123 -0.014,0.252 -0.086,0.367 -0.026,0.042 -0.015,0.107 -0.021,0.162 -0.014,0.13 0.016,0.266 -0.058,0.388 -0.008,0.013 -0.008,0.032 -0.008,0.048 -0.007,0.265 -0.04,0.527 -0.1,0.786 -0.013,0.057 -0.036,0.112 -0.05,0.169 -0.017,0.068 -0.038,0.138 -0.04,0.208 -0.006,0.204 0.013,0.411 -0.104,0.605 -0.147,-0.011 -0.27,0.052 -0.375,0.159 -0.019,0.019 -0.048,0.037 -0.073,0.037 -0.13,0.002 -0.245,0.075 -0.366,0.088 -0.214,0.023 -0.398,0.118 -0.596,0.178 -0.195,0.059 -0.396,0.094 -0.594,0.141 -0.038,0.008 -0.075,0.02 -0.111,0.033 -0.075,0.026 -0.843,0.165 -0.923,0.164 -0.122,-0.002 -0.244,-0.007 -0.366,-0.008 -0.037,0 -0.073,0.008 -0.119,0.013 0.033,0.173 0.156,0.228 0.293,0.263 0.058,0.014 0.121,0.006 0.181,0.016 0.114,0.017 0.227,0.04 0.34,0.059 0.087,0.015 0.174,0.032 0.262,0.038 0.11,0.006 0.221,0 0.332,10e-4 0.039,0.001 0.079,-10e-4 0.115,0.01 0.174,0.051 0.344,0.123 0.521,0.156 0.203,0.039 0.386,0.127 0.577,0.195 0.101,0.037 0.171,0.132 0.291,0.144 0.125,0.012 0.25,0.043 0.371,0.079 0.11,0.032 0.221,0.07 0.319,0.127 0.093,0.055 0.178,0.086 0.284,0.027 0.081,0.135 0.15,0.262 0.141,0.421 -0.007,0.116 0.006,0.233 0.002,0.349 -0.004,0.136 0.01,0.265 0.092,0.38 0.003,0.004 0.006,0.009 0.007,0.014 0.043,0.176 0.084,0.352 0.126,0.529 0.014,0.058 0.023,0.119 0.045,0.175 0.085,0.216 0.175,0.429 0.261,0.644 0.097,0.246 0.155,0.502 0.21,0.76 0.005,0.027 0.012,0.055 0.026,0.078 0.181,0.288 0.226,0.634 0.401,0.925 0.068,0.113 0.104,0.245 0.162,0.364 0.128,0.263 0.261,0.524 0.394,0.785 0.051,0.102 0.101,0.203 0.201,0.276 0.044,0.032 0.067,0.115 0.07,0.177 0.007,0.16 -10e-4,0.321 -0.004,0.482 0,0.028 -0.016,0.059 -0.006,0.082 C 0.33,3.76 0.24,3.862 0.168,3.961 -0.066,4.279 -0.264,4.619 -0.442,4.969 -0.614,5.306 -0.794,5.635 -1.06,5.91 -1.121,5.973 -1.164,6.053 -1.217,6.123 -1.459,6.447 -1.703,6.769 -1.942,7.095 -2.044,7.233 -2.135,7.378 -2.229,7.521 -2.396,7.775 -2.563,8.03 -2.727,8.286 c -0.032,0.05 -0.052,0.108 -0.084,0.177 0.15,0.011 0.27,0.021 0.397,-0.077 0.178,-0.137 0.385,-0.237 0.577,-0.357 0.07,-0.044 0.138,-0.094 0.197,-0.151 0.204,-0.203 0.397,-0.418 0.651,-0.565 0.052,-0.03 0.088,-0.085 0.136,-0.121 0.076,-0.055 0.15,-0.12 0.236,-0.151 0.135,-0.049 0.236,-0.134 0.34,-0.228 0.14,-0.124 0.3,-0.226 0.449,-0.339 C 0.336,6.35 0.506,6.235 0.657,6.099 0.93,5.854 1.242,5.688 1.585,5.571 1.667,5.543 1.747,5.494 1.812,5.438 1.965,5.304 2.197,5.39 2.231,5.595 2.258,5.755 2.373,5.834 2.529,5.824 2.681,5.814 2.808,5.883 2.929,5.962 3.184,6.129 3.438,6.297 3.693,6.464 3.763,6.509 3.832,6.556 3.904,6.597 4.05,6.68 4.189,6.764 4.36,6.809 4.668,6.891 4.963,7.017 5.245,7.175 5.519,7.329 5.804,7.461 6.107,7.557 6.299,7.619 6.474,7.734 6.659,7.819 6.855,7.909 7.051,7.998 7.252,8.073 7.53,8.178 7.813,8.266 8.078,8.41 8.255,8.506 8.459,8.552 8.653,8.617 8.794,8.664 8.937,8.706 9.08,8.749 9.239,8.796 9.396,8.847 9.557,8.886 9.701,8.921 9.766,8.957 9.761,9.118 9.76,9.15 9.764,9.187 9.778,9.215 9.866,9.391 9.865,9.58 9.855,9.769 c -0.012,0.228 0.08,0.434 0.126,0.65 0.075,0.346 0.163,0.69 0.234,1.037 0.03,0.145 0.033,0.297 0.043,0.446 0.007,0.1 0.011,0.197 0.068,0.287 0.022,0.034 0.026,0.083 0.027,0.126 0.005,0.116 -0.002,0.233 0.008,0.349 0.006,0.069 0.036,0.136 0.053,0.204 0.014,0.052 0.029,0.104 0.034,0.157 0.007,0.066 0.008,0.131 0.096,0.179 0.026,-0.077 0.052,-0.142 0.069,-0.209 0.043,-0.172 0.083,-0.344 0.122,-0.517 0.065,-0.291 0.129,-0.582 0.19,-0.873 0.013,-0.064 0.02,-0.132 0.018,-0.198 -0.004,-0.106 0.03,-0.199 0.092,-0.279 0.128,-0.168 0.163,-0.356 0.136,-0.559 -0.011,-0.078 -0.008,-0.145 0.029,-0.222 0.041,-0.086 0.045,-0.192 0.053,-0.29 0.007,-0.094 0.015,-0.181 0.058,-0.271 0.04,-0.085 0.043,-0.193 0.044,-0.291 0.002,-0.161 -0.004,-0.321 0.14,-0.475 0.077,-0.005 0.187,-0.007 0.296,-0.017 0.097,-0.008 0.195,-0.021 0.291,-0.038 0.13,-0.023 0.258,-0.052 0.388,-0.077 0.195,-0.037 0.393,-0.065 0.585,-0.114 0.135,-0.036 0.265,-0.063 0.406,-0.059 0.288,0.007 0.578,0.006 0.856,-0.07 0.233,-0.064 0.459,-0.158 0.657,-0.305 0.062,-0.046 0.127,-0.091 0.197,-0.121 0.157,-0.07 0.319,-0.126 0.475,-0.196 0.08,-0.035 0.156,-0.083 0.227,-0.134 0.104,-0.073 0.2,-0.156 0.303,-0.231 0.035,-0.026 0.077,-0.045 0.118,-0.061 0.159,-0.06 0.322,-0.113 0.479,-0.179 0.172,-0.074 0.339,-0.159 0.508,-0.24 0.055,-0.026 0.111,-0.051 0.162,-0.083 0.084,-0.052 0.17,-0.104 0.246,-0.166 0.146,-0.119 0.277,-0.255 0.429,-0.364 0.115,-0.082 0.253,-0.132 0.38,-0.197 0.083,-0.044 0.173,-0.079 0.244,-0.138 0.223,-0.181 0.437,-0.373 0.655,-0.559 0.033,-0.029 0.074,-0.049 0.108,-0.071 0.203,0.027 0.332,0.177 0.491,0.273 0.149,0.091 0.278,0.215 0.464,0.247 0.08,0.015 0.147,0.094 0.226,0.134 0.052,0.026 0.114,0.05 0.171,0.049 C 20.994,6.301 21.058,6.18 20.995,6.059 20.91,5.897 20.831,5.732 20.743,5.572 20.66,5.423 20.585,5.264 20.475,5.137 20.278,4.91 20.289,4.682 20.406,4.43 20.542,4.135 20.724,3.872 20.925,3.621 21.039,3.478 21.164,3.344 21.275,3.2 21.352,3.1 21.424,2.993 21.48,2.88 c 0.104,-0.207 0.272,-0.362 0.412,-0.54 0.165,-0.208 0.282,-0.432 0.324,-0.695 0.005,-0.033 0.018,-0.064 0.028,-0.096 0.098,-0.287 0.194,-0.575 0.295,-0.861 0.096,-0.27 0.199,-0.539 0.294,-0.81 0.048,-0.135 0.11,-0.271 0.125,-0.411 0.019,-0.184 0.114,-0.333 0.174,-0.499 0.058,-0.16 0.11,-0.323 0.159,-0.487 0.056,-0.185 0.1,-0.374 0.159,-0.557 0.064,-0.195 0.141,-0.382 0.164,-0.589 0.025,-0.222 0.131,-0.316 0.349,-0.31 0.156,0.004 0.287,-0.069 0.4,-0.142 0.201,-0.131 0.407,-0.178 0.639,-0.157 0.093,0.009 0.189,0.01 0.282,10e-4 0.068,-0.007 0.134,-0.037 0.201,-0.056 0.052,-0.014 0.105,-0.041 0.155,-0.036 0.214,0.018 0.418,-0.037 0.625,-0.064 0.011,-0.001 0.022,-0.003 0.032,-0.008 0.129,-0.058 0.257,-0.117 0.414,-0.189 C 26.545,-3.682 26.399,-3.72 26.263,-3.781 26.106,-3.85 25.956,-3.934 25.808,-4.02 25.559,-4.164 25.315,-4.318 25.064,-4.459 24.989,-4.502 24.899,-4.527 24.813,-4.541 24.657,-4.565 24.514,-4.618 24.376,-4.693 24.235,-4.769 24.09,-4.839 23.95,-4.917 23.864,-4.965 23.786,-5.02 23.756,-5.129 23.737,-5.201 23.687,-5.266 23.642,-5.328 23.529,-5.485 23.468,-5.652 23.45,-5.849 23.431,-6.061 23.394,-6.273 23.357,-6.483 23.313,-6.737 23.209,-6.98 23.139,-7.23 c -0.06,-0.213 -0.108,-0.428 -0.163,-0.642 -0.01,-0.043 -0.019,-0.087 -0.037,-0.127 -0.12,-0.269 -0.194,-0.551 -0.258,-0.838 -0.029,-0.128 -0.098,-0.246 -0.141,-0.371 -0.031,-0.088 -0.049,-0.18 -0.072,-0.271 -0.015,-0.059 -0.02,-0.122 -0.042,-0.177 -0.101,-0.245 -0.213,-0.486 -0.309,-0.733 -0.115,-0.294 -0.279,-0.564 -0.412,-0.848 -0.111,-0.237 -0.242,-0.457 -0.384,-0.673 -0.045,-0.069 -0.105,-0.128 -0.151,-0.196 -0.095,-0.141 -0.192,-0.282 -0.275,-0.431 -0.021,-0.038 -0.003,-0.108 0.015,-0.157 0.032,-0.088 0.079,-0.171 0.119,-0.256 0.112,-0.234 0.223,-0.469 0.337,-0.703 0.021,-0.044 0.052,-0.083 0.078,-0.124 0.046,-0.073 0.092,-0.145 0.142,-0.223 -0.06,-0.039 -0.103,-0.065 -0.142,-0.094 -0.093,-0.067 -0.183,-0.082 -0.294,-0.033 -0.233,0.102 -0.47,0.193 -0.708,0.283 -0.076,0.028 -0.158,0.043 -0.239,0.052 -0.082,0.009 -0.167,-0.003 -0.249,0.004 -0.085,0.008 -0.169,0.027 -0.287,0.047 -0.006,-0.007 -0.048,-0.031 -0.062,-0.067 -0.043,-0.104 -0.124,-0.163 -0.213,-0.224 -0.081,-0.056 -0.166,-0.121 -0.216,-0.202 -0.141,-0.232 -0.358,-0.338 -0.602,-0.409 -0.151,-0.043 -0.293,-0.097 -0.397,-0.226 -0.033,-0.04 -0.091,-0.06 -0.136,-0.092 -0.068,-0.047 -0.134,-0.096 -0.199,-0.146 -0.026,-0.021 -0.045,-0.053 -0.073,-0.068 -0.224,-0.118 -0.377,-0.324 -0.583,-0.463 -0.142,-0.095 -0.285,-0.186 -0.43,-0.276 -0.117,-0.072 -0.233,-0.147 -0.356,-0.208 -0.078,-0.039 -0.166,-0.057 -0.25,-0.082 -0.052,-0.016 -0.109,-0.023 -0.159,-0.045 -0.308,-0.136 -0.614,-0.277 -0.922,-0.415 -0.04,-0.018 -0.081,-0.034 -0.123,-0.048 -0.215,-0.071 -0.427,-0.151 -0.645,-0.209 -0.297,-0.079 -0.586,-0.202 -0.903,-0.199 -0.067,0.001 -0.143,-0.029 -0.201,-0.066 -0.199,-0.125 -0.42,-0.127 -0.641,-0.129 -0.168,-0.002 -0.331,-0.009 -0.467,-0.13 -0.052,-0.047 -0.088,-0.093 -0.095,-0.166 -0.007,-0.07 -0.029,-0.138 -0.048,-0.206 -0.026,-0.09 -0.052,-0.181 -0.087,-0.268 -0.056,-0.141 -0.052,-0.301 -0.165,-0.427 -0.047,-0.052 -0.04,-0.156 -0.053,-0.237 -0.022,-0.136 -0.04,-0.272 -0.06,-0.408 -0.008,-0.055 -0.022,-0.109 -0.025,-0.164 -0.027,-0.456 -0.132,-0.897 -0.245,-1.337 -0.024,-0.096 -0.031,-0.197 -0.054,-0.294 -0.042,-0.177 -0.093,-0.353 -0.136,-0.53 -0.026,-0.107 -0.045,-0.215 -0.066,-0.324 -0.014,-0.076 -0.025,-0.152 -0.038,-0.229 -0.022,-0.13 -0.04,-0.261 -0.067,-0.391 -0.021,-0.1 -0.054,-0.198 -0.099,-0.294 -0.07,0.167 -0.17,0.316 -0.157,0.502 0.006,0.077 0.002,0.155 0.002,0.233 0,0.028 0.01,0.061 -0.002,0.082 -0.089,0.155 -0.075,0.338 -0.141,0.498 -0.015,0.036 -0.032,0.072 -0.037,0.11 -0.028,0.226 -0.13,0.431 -0.182,0.648 -0.041,0.171 -0.107,0.338 -0.125,0.51 -0.024,0.229 -0.09,0.442 -0.16,0.658 -0.061,0.188 -0.088,0.387 -0.13,0.581 -0.097,0.442 -0.158,0.893 -0.303,1.324 -0.014,0.041 -0.036,0.08 -0.059,0.129 -0.218,0 -0.433,-0.003 -0.648,0.001 -0.21,0.004 -0.42,0.016 -0.63,0.026 -0.027,10e-4 -0.058,0.005 -0.08,0.018 -0.161,0.098 -0.342,0.073 -0.516,0.093 -0.097,0.011 -0.196,0.035 -0.284,0.076 -0.154,0.071 -0.313,0.109 -0.48,0.116 -0.127,0.006 -0.255,0.01 -0.382,0.013 -0.163,0.004 -0.295,0.092 -0.432,0.16 -0.301,0.152 -0.597,0.313 -0.895,0.471 -0.039,0.02 -0.077,0.044 -0.114,0.068 -0.147,0.097 -0.288,0.202 -0.44,0.289 -0.104,0.06 -0.227,0.087 -0.334,0.143 -0.171,0.088 -0.35,0.171 -0.45,0.352 -0.008,0.014 -0.02,0.03 -0.034,0.035 -0.167,0.058 -0.256,0.206 -0.376,0.319 -0.02,0.019 -0.039,0.041 -0.064,0.053 -0.381,0.182 -0.656,0.502 -0.979,0.759 -0.143,0.113 -0.268,0.247 -0.408,0.363 -0.101,0.084 -0.214,0.155 -0.319,0.23"
             style="fill:#fff;fill-opacity:1;fill-rule:nonzero;stroke:none"
             id="path5717"
             inkscape:connector-curvature="0" />
        </g>
        <g
           id="g5719"
           transform="translate(186.4998,338.2559)">
          <path
             d="m 0,0 c -0.05,-0.066 -0.096,-0.121 -0.136,-0.18 -0.1,-0.15 -0.028,-0.323 0.152,-0.349 0.092,-0.014 0.194,-0.03 0.281,-0.006 0.165,0.045 0.328,0.028 0.494,0.025 0.459,-0.009 0.919,-0.017 1.379,-0.013 0.226,0.002 0.452,0.025 0.678,0.049 0.165,0.017 0.325,0.036 0.493,0.006 0.223,-0.04 0.45,-0.065 0.675,-0.072 0.314,-0.01 0.628,-0.012 0.943,0.03 0.278,0.037 0.565,0.007 0.847,0.01 0.205,0.002 0.41,0.01 0.615,0.019 0.12,0.005 0.214,0.062 0.259,0.176 0.045,0.112 0.024,0.216 -0.056,0.309 C 6.597,0.036 6.569,0.077 6.565,0.115 6.552,0.26 6.477,0.359 6.361,0.44 6.267,0.506 6.171,0.575 6.096,0.66 6.017,0.75 5.973,0.87 5.894,0.96 5.649,1.235 5.507,1.587 5.205,1.826 4.89,2.077 4.611,2.372 4.319,2.651 4.249,2.719 4.183,2.795 4.13,2.877 3.996,3.081 3.86,3.28 3.702,3.468 3.438,3.783 3.093,3.622 2.976,3.371 2.932,3.277 2.869,3.188 2.797,3.114 2.565,2.878 2.307,2.665 2.092,2.415 1.794,2.067 1.428,1.781 1.17,1.396 1.158,1.378 1.14,1.364 1.124,1.348 0.89,1.115 0.65,0.886 0.423,0.645 0.247,0.458 0.088,0.254 -0.086,0.049 -0.064,0.037 -0.043,0.024 0,0 m -4.256,5.877 c 0.092,0.012 0.167,0.031 0.242,0.03 0.232,-0.003 0.463,-0.019 0.695,-0.019 0.373,0.001 0.747,0.013 1.121,0.014 0.232,10e-4 0.464,-0.009 0.696,-0.013 0.153,-0.003 0.305,-0.001 0.46,0.013 C -0.841,5.921 -0.635,5.89 -0.43,5.883 -0.19,5.874 0.051,5.861 0.291,5.864 0.432,5.866 0.573,5.897 0.741,5.919 0.698,5.981 0.669,6.031 0.631,6.074 0.112,6.673 -0.409,7.271 -0.93,7.868 -0.966,7.909 -0.989,7.984 -1.075,7.941 -1.089,7.934 -1.13,7.969 -1.152,7.99 -1.249,8.086 -1.363,8.125 -1.499,8.12 -1.653,8.115 -1.808,8.126 -1.959,8.072 -2.009,8.054 -2.068,8.054 -2.123,8.054 -2.494,8.051 -2.866,8.047 -3.237,8.05 c -0.075,0 -0.15,0.024 -0.226,0.037 -0.054,0.009 -0.108,0.021 -0.163,0.022 -0.127,0.004 -0.255,-10e-4 -0.382,0.002 -0.189,0.004 -0.21,0.028 -0.21,0.212 0,0.46 0.005,0.921 -0.001,1.381 -0.003,0.198 -0.03,0.397 -0.046,0.595 -0.006,0.071 -0.011,0.142 -0.016,0.21 0.114,0.066 0.225,0.08 0.342,0.091 0.186,0.019 0.369,0.06 0.553,0.09 0.054,0.009 0.108,0.022 0.162,0.023 0.205,0.002 0.411,-0.005 0.615,0.003 0.115,0.004 0.228,0.031 0.343,0.046 0.054,0.007 0.109,0.012 0.164,0.012 0.654,0.001 1.309,-0.007 1.963,0.006 0.177,0.004 0.28,-0.072 0.363,-0.199 C 0.347,10.394 0.488,10.228 0.668,10.093 0.782,10.007 0.88,9.899 0.988,9.805 1.02,9.777 1.065,9.765 1.1,9.74 1.148,9.705 1.217,9.673 1.232,9.625 1.287,9.454 1.439,9.372 1.55,9.254 1.558,9.247 1.575,9.246 1.579,9.238 1.68,9.02 1.939,8.959 2.055,8.752 2.102,8.669 2.197,8.614 2.263,8.54 2.366,8.425 2.46,8.301 2.566,8.188 2.621,8.129 2.694,8.086 2.758,8.034 2.796,8.003 2.835,7.973 2.867,7.936 2.942,7.849 3.024,7.793 3.148,7.864 c 0.026,-0.1 0.08,-0.1 0.166,-0.081 0.1,0.024 0.207,0.003 0.3,0.073 0.076,0.058 0.143,0.115 0.188,0.204 0.065,0.13 0.153,0.234 0.309,0.279 0.083,0.023 0.155,0.103 0.223,0.166 0.232,0.213 0.461,0.431 0.691,0.647 0.004,0.003 0.01,0.006 0.013,0.01 0.263,0.344 0.634,0.582 0.902,0.924 0.157,0.201 0.315,0.398 0.441,0.621 0.089,0.156 0.134,0.18 0.295,0.107 0.176,-0.081 0.354,-0.078 0.536,-0.078 0.271,0 0.539,-0.012 0.809,-0.047 0.29,-0.039 0.593,-0.058 0.878,-0.011 0.394,0.064 0.785,0.023 1.176,0.042 0.093,0.005 0.187,10e-4 0.309,10e-4 0.092,-0.164 0.196,-0.346 0.297,-0.529 0.013,-0.023 0.02,-0.052 0.022,-0.079 0.009,-0.186 0.016,-0.372 0.024,-0.558 0,-0.022 0.004,-0.048 -0.005,-0.066 C 10.604,9.246 10.702,8.989 10.673,8.741 10.745,8.606 10.719,8.462 10.719,8.319 10.72,8.186 10.628,8.097 10.58,7.988 10.57,7.963 10.515,7.948 10.48,7.945 10.392,7.938 10.303,7.942 10.214,7.938 10.115,7.935 10.015,7.929 9.916,7.924 9.878,7.922 9.835,7.908 9.801,7.919 9.645,7.971 9.489,7.949 9.333,7.929 9.188,7.911 9.037,7.94 8.896,7.88 8.873,7.87 8.835,7.87 8.815,7.883 8.633,8 8.431,7.935 8.239,7.95 8.157,7.957 8.073,7.971 7.992,7.965 7.838,7.955 7.685,7.938 7.533,7.912 7.497,7.906 7.465,7.859 7.436,7.827 6.972,7.314 6.508,6.802 6.045,6.288 5.975,6.21 5.914,6.124 5.85,6.042 5.956,5.93 6.141,5.896 6.286,5.96 6.412,6.016 6.408,6.01 6.511,5.919 6.562,5.874 6.631,5.832 6.697,5.824 6.988,5.787 7.28,5.76 7.572,5.735 7.699,5.724 7.827,5.726 7.955,5.722 7.988,5.721 8.024,5.714 8.054,5.724 8.309,5.813 8.571,5.769 8.829,5.755 9.087,5.742 9.331,5.812 9.582,5.843 c 0.076,0.009 0.153,0.016 0.23,0.023 0.159,0.015 0.32,0.023 0.478,0.045 0.116,0.016 0.202,-0.046 0.293,-0.095 0.025,-0.014 0.046,-0.05 0.052,-0.079 C 10.654,5.64 10.677,5.542 10.677,5.445 10.673,5.085 10.66,4.725 10.654,4.366 10.653,4.33 10.669,4.29 10.689,4.26 10.747,4.175 10.737,4.093 10.685,4.013 10.504,3.735 10.319,3.459 10.14,3.179 10.092,3.104 10.025,3.106 9.952,3.104 9.614,3.094 9.276,3.082 8.938,3.073 8.628,3.065 8.318,3.062 8.008,3.056 7.97,3.055 7.932,3.051 7.885,3.048 7.888,3.021 7.883,2.996 7.892,2.98 7.943,2.89 7.997,2.801 8.051,2.712 8.068,2.684 8.088,2.657 8.111,2.634 8.207,2.536 8.303,2.436 8.404,2.342 8.446,2.303 8.5,2.277 8.548,2.243 8.573,2.225 8.607,2.207 8.616,2.181 8.671,2.026 8.775,1.923 8.922,1.855 8.956,1.84 8.983,1.808 9.011,1.781 9.199,1.596 9.336,1.361 9.567,1.218 9.831,0.87 10.173,0.595 10.461,0.269 c 0.072,-0.081 0.102,-0.16 0.102,-0.267 -0.001,-0.637 0,-1.274 0.006,-1.911 10e-4,-0.132 0.028,-0.263 0.041,-0.395 0.013,-0.137 0.029,-0.275 0.033,-0.413 0.008,-0.299 0.007,-0.597 0.014,-0.895 C 10.659,-3.698 10.635,-3.76 10.562,-3.809 10.41,-3.909 10.259,-4.012 10.111,-4.12 10.042,-4.17 9.975,-4.177 9.893,-4.162 9.486,-4.091 9.075,-4.125 8.666,-4.138 8.447,-4.145 8.23,-4.208 8.012,-4.245 7.843,-4.273 7.674,-4.299 7.505,-4.327 7.473,-4.332 7.433,-4.333 7.411,-4.353 7.308,-4.443 7.186,-4.428 7.065,-4.428 6.666,-4.428 6.266,-4.427 5.867,-4.429 5.784,-4.429 5.7,-4.433 5.619,-4.447 5.129,-4.53 4.638,-4.504 4.146,-4.466 3.738,-4.433 3.332,-4.376 2.92,-4.385 2.233,-4.399 1.546,-4.393 0.858,-4.397 0.72,-4.398 0.581,-4.408 0.443,-4.414 c -0.307,-0.012 -0.604,0.066 -0.907,0.091 -0.11,0.008 -0.22,0.022 -0.33,0.022 -0.316,0.001 -0.634,0.018 -0.947,-0.008 -0.653,-0.055 -1.307,-0.032 -1.959,-0.052 -0.096,-0.003 -0.191,-0.041 -0.316,-0.07 -0.047,0.06 -0.114,0.139 -0.175,0.221 -0.014,0.019 -0.011,0.052 -0.011,0.078 -0.004,0.31 0.029,0.626 -0.021,0.928 -0.055,0.329 -0.004,0.663 -0.095,0.987 -0.029,0.104 -0.009,0.221 -0.01,0.332 -0.002,0.132 -0.021,0.261 -0.042,0.392 -0.032,0.194 -0.029,0.401 0.004,0.595 0.024,0.143 0.035,0.284 0.036,0.427 0.001,0.116 0,0.232 0,0.354 0.213,0.093 0.378,0.256 0.556,0.404 0.182,0.15 0.302,0.349 0.453,0.524 0.065,0.075 0.131,0.15 0.2,0.221 0.301,0.305 0.527,0.668 0.793,1.001 0.116,0.146 0.256,0.274 0.387,0.408 0.158,0.161 0.318,0.32 0.502,0.503 -0.138,0.011 -0.207,0.075 -0.272,0.159 -0.064,0.083 -0.17,0.092 -0.273,0.092 -0.666,-10e-4 -1.331,0 -1.996,0.001 -0.06,0 -0.119,0.005 -0.193,0.009 -0.017,0.153 -0.043,0.294 -0.045,0.436 -0.01,0.647 -0.012,1.295 -0.018,1.942 -0.001,0.088 -0.012,0.176 -0.02,0.294"
             style="fill:#fff;fill-opacity:1;fill-rule:nonzero;stroke:none"
             id="path5721"
             inkscape:connector-curvature="0" />
        </g>
      </g>
    </g>
  </g>
</svg>
