<?xml version="1.0" encoding="UTF-8" standalone="no"?>
<!-- Created with Inkscape (http://www.inkscape.org/) -->

<svg
   xmlns:dc="http://purl.org/dc/elements/1.1/"
   xmlns:cc="http://creativecommons.org/ns#"
   xmlns:rdf="http://www.w3.org/1999/02/22-rdf-syntax-ns#"
   xmlns:svg="http://www.w3.org/2000/svg"
   xmlns="http://www.w3.org/2000/svg"
   xmlns:sodipodi="http://sodipodi.sourceforge.net/DTD/sodipodi-0.dtd"
   xmlns:inkscape="http://www.inkscape.org/namespaces/inkscape"
   width="11.094656mm"
   height="14.302444mm"
   viewBox="0 0 11.094656 14.302444"
   version="1.1"
   id="svg8366"
   inkscape:version="0.92.5 (2060ec1f9f, 2020-04-08)"
   sodipodi:docname="allies-warrior-chamber.svg">
  <defs
     id="defs8360">
    <clipPath
       clipPathUnits="userSpaceOnUse"
       id="clipPath5821">
      <path
         d="m 281.038,282.749 h 31.466 v 40.549 h -31.466 z"
         id="path5819"
         inkscape:connector-curvature="0" />
    </clipPath>
  </defs>
  <sodipodi:namedview
     id="base"
     pagecolor="#ffffff"
     bordercolor="#666666"
     borderopacity="1.0"
     inkscape:pageopacity="0.0"
     inkscape:pageshadow="2"
     inkscape:zoom="0.35"
     inkscape:cx="-239.03372"
     inkscape:cy="147.02825"
     inkscape:document-units="mm"
     inkscape:current-layer="layer1"
     showgrid="false"
     fit-margin-top="0"
     fit-margin-left="0"
     fit-margin-right="0"
     fit-margin-bottom="0"
     inkscape:window-width="1920"
     inkscape:window-height="1017"
     inkscape:window-x="-8"
     inkscape:window-y="-8"
     inkscape:window-maximized="1" />
  <metadata
     id="metadata8363">
    <rdf:RDF>
      <cc:Work
         rdf:about="">
        <dc:format>image/svg+xml</dc:format>
        <dc:type
           rdf:resource="http://purl.org/dc/dcmitype/StillImage" />
        <dc:title></dc:title>
      </cc:Work>
    </rdf:RDF>
  </metadata>
  <g
     inkscape:label="Layer 1"
     inkscape:groupmode="layer"
     id="layer1"
     transform="translate(-169.07767,-173.43211)">
    <g
       transform="matrix(0.35277777,0,0,-0.35277777,69.928111,287.48446)"
       id="g5815">
      <g
         id="g5817"
         clip-path="url(#clipPath5821)">
        <g
           id="g5823"
           transform="translate(311.9293,307.2056)">
          <path
             d="m 0,0 c -0.137,-0.002 -0.275,0.025 -0.413,0.04 -0.058,0.006 -0.132,-0.004 -0.172,0.027 -0.1,0.079 -0.21,0.073 -0.323,0.072 -0.133,-0.002 -0.266,-0.01 -0.399,-0.001 -0.075,0.005 -0.152,0.03 -0.221,0.06 -0.204,0.09 -0.385,0.229 -0.627,0.23 -0.157,0 -0.224,0.089 -0.259,0.254 C -2.44,0.798 -2.462,0.916 -2.496,1.03 -2.569,1.271 -2.663,1.507 -2.722,1.751 -2.773,1.965 -2.827,2.174 -2.918,2.375 -2.98,2.512 -3.012,2.663 -3.057,2.807 -3.092,2.921 -3.123,3.037 -3.162,3.149 -3.323,3.613 -3.487,4.076 -3.649,4.539 -3.691,4.657 -3.747,4.773 -3.771,4.895 -3.82,5.149 -3.929,5.369 -4.089,5.571 -4.258,5.784 -4.417,6.005 -4.577,6.224 -4.619,6.283 -4.646,6.353 -4.69,6.41 -4.879,6.651 -5.082,6.88 -5.258,7.129 -5.38,7.301 -5.479,7.493 -5.566,7.686 c -0.075,0.168 -0.087,0.351 0.035,0.511 0.235,0.309 0.392,0.661 0.574,0.999 0.05,0.094 0.005,0.192 -0.098,0.214 C -5.104,9.421 -5.167,9.42 -5.209,9.398 -5.438,9.281 -5.665,9.159 -5.888,9.031 -6.026,8.952 -6.155,8.858 -6.289,8.772 -6.368,8.72 -6.438,8.742 -6.505,8.8 -6.624,8.905 -6.739,9.017 -6.867,9.11 -7.038,9.234 -7.165,9.419 -7.38,9.481 c -0.209,0.06 -0.381,0.18 -0.54,0.326 -0.137,0.125 -0.275,0.253 -0.431,0.351 -0.178,0.113 -0.374,0.199 -0.566,0.289 -0.157,0.072 -0.319,0.131 -0.478,0.198 -0.102,0.044 -0.21,0.08 -0.302,0.139 -0.2,0.129 -0.371,0.299 -0.608,0.371 -0.145,0.043 -0.291,0.102 -0.416,0.186 -0.144,0.097 -0.295,0.174 -0.45,0.25 -0.26,0.125 -0.532,0.152 -0.811,0.166 -0.211,0.011 -0.423,0.019 -0.631,0.048 -0.177,0.024 -0.348,0.102 -0.524,0.112 -0.35,0.021 -0.681,0.173 -1.037,0.143 -0.011,-0.001 -0.023,0.012 -0.045,0.025 -0.028,0.077 -0.079,0.162 -0.086,0.25 -0.017,0.196 0.019,0.399 -0.095,0.58 -0.009,0.016 -0.006,0.04 -0.007,0.059 -0.005,0.153 0.008,0.307 -0.088,0.443 -0.015,0.022 -0.005,0.065 0,0.096 0.037,0.22 -0.006,0.417 -0.133,0.604 -0.049,0.072 -0.059,0.172 -0.079,0.261 -0.012,0.051 -0.002,0.107 -0.013,0.158 -0.099,0.447 -0.2,0.893 -0.302,1.339 -0.017,0.074 -0.047,0.145 -0.07,0.218 -0.017,0 -0.034,0 -0.051,0.001 -0.015,-0.051 -0.032,-0.101 -0.045,-0.153 -0.013,-0.05 -0.021,-0.101 -0.033,-0.152 -0.017,-0.076 -0.049,-0.151 -0.053,-0.228 -0.01,-0.19 0.014,-0.384 -0.082,-0.563 -0.015,-0.028 -0.02,-0.065 -0.019,-0.097 0.014,-0.399 -0.113,-0.775 -0.192,-1.158 -0.056,-0.273 -0.156,-0.54 -0.183,-0.815 -0.027,-0.277 -0.037,-0.553 -0.11,-0.825 -0.024,-0.091 -0.059,-0.141 -0.143,-0.166 -0.229,-0.067 -0.458,-0.135 -0.686,-0.202 -0.09,-0.026 -0.181,-0.046 -0.268,-0.077 -0.199,-0.072 -0.397,-0.148 -0.593,-0.227 -0.128,-0.052 -0.252,-0.117 -0.381,-0.169 -0.337,-0.137 -0.677,-0.268 -1.014,-0.407 -0.103,-0.042 -0.195,-0.113 -0.299,-0.153 -0.353,-0.135 -0.707,-0.268 -1.035,-0.46 -0.26,-0.151 -0.541,-0.255 -0.826,-0.337 -0.118,-0.034 -0.226,-0.073 -0.326,-0.137 -0.347,-0.222 -0.692,-0.447 -1.037,-0.672 -0.119,-0.077 -0.241,-0.142 -0.387,-0.143 -0.184,-10e-4 -0.259,-0.055 -0.308,-0.228 -0.059,-0.206 -0.214,-0.261 -0.397,-0.146 -0.089,0.056 -0.185,0.102 -0.281,0.146 -0.246,0.113 -0.499,0.208 -0.711,0.39 -0.286,0.246 -0.594,0.467 -0.902,0.688 -0.198,0.142 -0.4,0.275 -0.6,0.413 -0.283,0.194 -0.529,0.441 -0.791,0.665 -0.081,0.069 -0.156,0.146 -0.244,0.204 -0.183,0.119 -0.383,0.215 -0.559,0.345 -0.123,0.091 -0.24,0.114 -0.395,0.082 0.02,-0.046 0.03,-0.085 0.051,-0.117 0.264,-0.406 0.522,-0.817 0.797,-1.215 0.215,-0.312 0.452,-0.608 0.678,-0.911 0.064,-0.086 0.118,-0.18 0.19,-0.256 0.223,-0.235 0.376,-0.513 0.532,-0.792 0.203,-0.366 0.428,-0.718 0.641,-1.078 0.044,-0.074 0.104,-0.152 0.109,-0.231 0.013,-0.218 0.006,-0.437 -0.005,-0.656 -0.003,-0.06 -0.033,-0.138 -0.078,-0.174 -0.141,-0.113 -0.21,-0.274 -0.284,-0.425 -0.25,-0.512 -0.51,-1.021 -0.682,-1.568 -0.012,-0.037 -0.039,-0.07 -0.054,-0.106 -0.044,-0.11 -0.094,-0.219 -0.127,-0.332 -0.046,-0.157 -0.066,-0.324 -0.122,-0.478 -0.1,-0.273 -0.221,-0.539 -0.33,-0.81 C -26.749,2.309 -26.752,2.247 -26.768,2.19 -26.82,2 -26.875,1.81 -26.928,1.62 -26.947,1.55 -26.97,1.48 -26.976,1.409 c -0.01,-0.132 -0.018,-0.266 -0.009,-0.398 0.011,-0.162 -0.044,-0.297 -0.109,-0.405 -0.107,-0.018 -0.195,-0.019 -0.271,-0.05 -0.164,-0.067 -0.32,-0.149 -0.505,-0.161 -0.11,-0.008 -0.232,-0.037 -0.322,-0.097 -0.225,-0.149 -0.474,-0.226 -0.732,-0.287 -0.109,-0.026 -0.227,-0.035 -0.323,-0.085 -0.158,-0.084 -0.321,-0.068 -0.486,-0.076 -0.125,-0.006 -0.25,-0.024 -0.374,-0.041 -0.111,-0.015 -0.221,-0.035 -0.331,-0.056 -0.103,-0.019 -0.21,-0.031 -0.306,-0.07 -0.077,-0.03 -0.148,-0.091 -0.128,-0.207 0.069,0 0.135,0.002 0.2,0 0.18,-0.005 0.362,0.008 0.537,-0.021 0.241,-0.039 0.476,-0.108 0.713,-0.167 0.256,-0.064 0.512,-0.131 0.766,-0.2 0.082,-0.023 0.159,-0.064 0.242,-0.084 0.166,-0.04 0.335,-0.07 0.501,-0.108 0.031,-0.007 0.058,-0.031 0.088,-0.046 0.113,-0.06 0.227,-0.119 0.341,-0.178 0.051,-0.062 0.096,-0.148 0.103,-0.238 0.016,-0.222 0.015,-0.44 0.087,-0.661 0.077,-0.237 0.082,-0.494 0.108,-0.744 0.019,-0.182 0.067,-0.363 0.063,-0.549 -10e-4,-0.019 0.004,-0.041 0.014,-0.058 0.078,-0.137 0.068,-0.293 0.095,-0.442 0.032,-0.174 0.066,-0.351 0.125,-0.516 0.145,-0.401 0.265,-0.805 0.285,-1.233 0.008,-0.183 0.046,-0.354 0.137,-0.514 0.022,-0.04 0.053,-0.085 0.052,-0.127 -0.007,-0.272 0.158,-0.476 0.28,-0.692 0.105,-0.188 0.259,-0.348 0.38,-0.528 0.096,-0.142 0.165,-0.303 0.263,-0.444 0.174,-0.25 0.361,-0.492 0.541,-0.739 0.027,-0.037 0.048,-0.078 0.065,-0.107 -0.068,-0.284 -0.262,-0.504 -0.309,-0.784 -0.003,-0.017 -0.02,-0.033 -0.033,-0.048 -0.109,-0.126 -0.218,-0.251 -0.327,-0.376 -0.198,-0.224 -0.371,-0.465 -0.506,-0.735 -0.076,-0.152 -0.156,-0.309 -0.308,-0.41 -0.032,-0.021 -0.044,-0.075 -0.058,-0.116 -0.02,-0.059 -0.027,-0.124 -0.051,-0.181 -0.032,-0.073 -0.048,-0.153 0.012,-0.203 0.05,-0.041 0.129,-0.059 0.195,-0.062 0.048,-0.002 0.103,0.03 0.144,0.06 0.159,0.12 0.322,0.236 0.468,0.37 0.174,0.16 0.33,0.337 0.592,0.346 0.041,10e-4 0.081,0.042 0.12,0.068 0.181,0.122 0.364,0.242 0.542,0.369 0.145,0.104 0.287,0.213 0.425,0.325 0.188,0.153 0.312,0.162 0.512,0.018 0.063,-0.047 0.116,-0.108 0.173,-0.163 0.043,-0.042 0.084,-0.086 0.129,-0.125 0.203,-0.171 0.405,-0.343 0.611,-0.51 0.129,-0.105 0.263,-0.202 0.396,-0.302 0.094,-0.071 0.196,-0.134 0.284,-0.212 0.153,-0.133 0.299,-0.276 0.448,-0.414 0.02,-0.018 0.044,-0.031 0.067,-0.043 0.251,-0.133 0.504,-0.262 0.752,-0.4 0.115,-0.063 0.216,-0.152 0.331,-0.215 0.251,-0.137 0.513,-0.252 0.758,-0.399 0.277,-0.166 0.566,-0.237 0.889,-0.237 0.16,10e-4 0.32,-0.069 0.48,-0.109 0.089,-0.022 0.177,-0.053 0.267,-0.067 0.154,-0.024 0.316,-0.004 0.463,-0.071 l 0.161,1.474 c -0.003,0.002 -0.006,0.003 -0.009,0.004 -0.235,0.121 -0.46,0.088 -0.692,0.09 -0.236,0.002 -0.461,0.05 -0.686,0.115 -0.113,0.032 -0.233,0.043 -0.347,0.074 -0.14,0.037 -0.279,0.081 -0.416,0.129 -0.137,0.048 -0.28,0.092 -0.406,0.161 -0.108,0.06 -0.207,0.144 -0.292,0.234 -0.143,0.151 -0.324,0.24 -0.511,0.3 -0.275,0.087 -0.489,0.26 -0.712,0.427 -0.058,0.043 -0.115,0.095 -0.181,0.121 -0.274,0.105 -0.482,0.296 -0.698,0.485 -0.359,0.313 -0.698,0.65 -1.095,0.918 -0.049,0.032 -0.092,0.075 -0.133,0.119 -0.112,0.12 -0.216,0.25 -0.334,0.364 -0.452,0.436 -0.855,0.908 -1.126,1.48 -0.026,0.054 -0.052,0.111 -0.061,0.169 -0.029,0.191 -0.073,0.375 -0.172,0.546 -0.06,0.103 -0.1,0.215 -0.082,0.341 0.006,0.038 -0.002,0.084 -0.021,0.116 -0.074,0.125 -0.054,0.276 -0.101,0.397 -0.101,0.255 -0.151,0.519 -0.225,0.779 -0.01,0.038 -0.048,0.075 -0.044,0.109 0.023,0.199 -0.084,0.358 -0.152,0.529 -0.024,0.061 -0.032,0.128 -0.046,0.192 -0.016,0.071 -0.03,0.142 -0.046,0.212 -0.015,0.07 -0.033,0.14 -0.047,0.21 -0.007,0.039 10e-4,0.084 -0.017,0.117 -0.111,0.212 -0.087,0.441 -0.088,0.665 -0.005,1.117 -0.005,2.233 -0.009,3.35 0,0.222 0.067,0.429 0.126,0.638 0.02,0.07 0.053,0.14 0.054,0.211 0.004,0.305 0.111,0.585 0.207,0.868 0.074,0.219 0.165,0.433 0.243,0.651 0.026,0.074 0.036,0.155 0.056,0.248 0.152,0.038 0.207,0.165 0.248,0.314 0.167,0.612 0.419,1.188 0.724,1.743 0.106,0.192 0.195,0.393 0.293,0.589 0.014,0.029 0.027,0.07 0.051,0.08 0.234,0.101 0.375,0.316 0.577,0.454 0.21,0.144 0.378,0.329 0.554,0.51 0.138,0.142 0.31,0.249 0.466,0.373 0.211,0.17 0.42,0.343 0.632,0.512 0.046,0.038 0.093,0.083 0.148,0.099 0.268,0.082 0.489,0.241 0.683,0.432 0.128,0.126 0.264,0.22 0.438,0.251 0.242,0.043 0.435,0.187 0.643,0.301 0.338,0.185 0.687,0.344 1.053,0.466 0.163,0.055 0.321,0.131 0.469,0.218 0.214,0.126 0.444,0.207 0.679,0.28 0.08,0.025 0.154,0.072 0.23,0.11 0.017,0.008 0.03,0.028 0.047,0.036 0.313,0.147 0.614,0.328 0.941,0.428 0.285,0.086 0.58,0.176 0.894,0.148 0.231,-0.02 0.465,-0.003 0.698,-0.002 0.132,0.001 0.264,-0.01 0.385,0.072 0.039,0.026 0.103,0.021 0.155,0.023 0.113,0.003 0.227,-0.005 0.339,0.004 0.207,0.015 0.391,-0.031 0.569,-0.142 0.098,-0.061 0.219,-0.092 0.334,-0.119 0.218,-0.05 0.428,-0.134 0.662,-0.112 0.171,0.016 0.345,-0.012 0.518,-0.006 0.158,0.004 0.302,-0.027 0.442,-0.098 0.106,-0.053 0.215,-0.089 0.337,-0.106 0.095,-0.013 0.191,-0.09 0.267,-0.16 0.115,-0.106 0.24,-0.183 0.39,-0.225 0.044,-0.012 0.086,-0.037 0.124,-0.062 0.124,-0.082 0.25,-0.144 0.408,-0.122 0.119,0.016 0.216,-0.048 0.31,-0.115 0.074,-0.053 0.156,-0.098 0.241,-0.131 0.164,-0.063 0.31,-0.147 0.438,-0.27 0.321,-0.309 0.644,-0.617 0.971,-0.919 0.147,-0.135 0.306,-0.256 0.46,-0.383 0.056,-0.046 0.122,-0.085 0.166,-0.141 0.095,-0.119 0.205,-0.208 0.353,-0.247 0.018,-0.005 0.041,-0.013 0.052,-0.027 0.188,-0.243 0.468,-0.405 0.579,-0.724 0.057,-0.165 0.222,-0.292 0.338,-0.436 0.083,-0.102 0.172,-0.2 0.249,-0.307 0.108,-0.15 0.216,-0.303 0.309,-0.464 0.11,-0.188 0.227,-0.378 0.303,-0.582 0.201,-0.54 0.382,-1.088 0.57,-1.633 0.011,-0.031 0.023,-0.066 0.02,-0.097 -0.038,-0.366 0.138,-0.686 0.219,-1.025 0.116,-0.49 0.254,-0.974 0.382,-1.461 0.048,-0.179 0.116,-0.356 0.139,-0.539 0.032,-0.255 0.031,-0.515 0.042,-0.773 10e-4,-0.026 -0.003,-0.055 -0.015,-0.078 C -3.897,-0.95 -3.885,-1.148 -3.89,-1.349 -3.895,-1.533 -3.936,-1.716 -3.961,-1.899 -3.969,-1.959 -3.976,-2.018 -3.985,-2.077 -4.006,-2.228 -4.027,-2.378 -4.049,-2.528 -4.078,-2.724 -4.168,-2.91 -4.139,-3.116 -4.133,-3.16 -4.152,-3.208 -4.163,-3.253 -4.209,-3.459 -4.249,-3.667 -4.305,-3.871 -4.357,-4.062 -4.426,-4.249 -4.488,-4.437 -4.516,-4.525 -4.546,-4.612 -4.573,-4.7 -4.615,-4.839 -4.631,-4.991 -4.699,-5.114 -4.905,-5.488 -5.025,-5.897 -5.211,-6.278 -5.336,-6.532 -5.492,-6.772 -5.634,-7.019 -5.673,-7.088 -5.73,-7.152 -5.749,-7.226 -5.804,-7.451 -5.922,-7.641 -6.052,-7.827 -6.071,-7.854 -6.095,-7.881 -6.104,-7.911 -6.189,-8.191 -6.4,-8.381 -6.59,-8.583 -6.857,-8.869 -7.13,-9.149 -7.412,-9.42 c -0.161,-0.157 -0.345,-0.29 -0.517,-0.436 -0.146,-0.124 -0.286,-0.255 -0.434,-0.378 -0.14,-0.116 -0.274,-0.219 -0.481,-0.241 -0.179,-0.019 -0.353,-0.14 -0.518,-0.236 -0.234,-0.137 -0.445,-0.314 -0.709,-0.396 -0.013,-0.004 -0.028,-0.007 -0.037,-0.015 -0.271,-0.238 -0.64,-0.317 -0.909,-0.558 -0.024,-0.021 -0.051,-0.047 -0.081,-0.055 -0.225,-0.062 -0.449,-0.128 -0.675,-0.178 l 0.16,-1.465 c 0.357,0.099 0.706,0.45 1.051,0.587 0.129,0.051 0.255,0.111 0.382,0.168 0.217,0.098 0.445,0.17 0.665,0.255 0.292,0.114 0.558,0.302 0.821,0.478 0.18,0.121 0.334,0.282 0.507,0.417 0.156,0.121 0.333,0.218 0.478,0.351 0.122,0.113 0.256,0.179 0.409,0.233 0.161,0.056 0.339,0.088 0.451,0.238 0.119,0.161 0.245,0.314 0.424,0.415 0.043,0.024 0.067,0.08 0.1,0.121 0.027,0.036 0.053,0.071 0.06,0.08 0.186,-0.012 0.342,-0.018 0.498,-0.035 0.097,-0.011 0.196,-0.027 0.287,-0.06 0.206,-0.074 0.413,-0.149 0.609,-0.245 0.191,-0.094 0.326,-0.025 0.477,0.116 -0.071,0.106 -0.151,0.202 -0.205,0.312 -0.149,0.297 -0.283,0.601 -0.43,0.898 -0.059,0.117 -0.045,0.214 0.031,0.314 0.111,0.147 0.231,0.289 0.327,0.446 0.135,0.219 0.312,0.415 0.379,0.673 0.009,0.038 0.04,0.069 0.059,0.104 0.065,0.123 0.14,0.242 0.193,0.37 0.194,0.463 0.412,0.915 0.54,1.405 0.074,0.28 0.189,0.551 0.264,0.833 0.052,0.199 0.138,0.388 0.194,0.585 0.111,0.388 0.212,0.78 0.316,1.171 0.029,0.108 0.058,0.217 0.076,0.327 0.039,0.227 0.069,0.456 0.105,0.683 0.004,0.026 0.016,0.051 0.029,0.074 0.089,0.162 0.178,0.325 0.272,0.484 0.019,0.033 0.054,0.062 0.088,0.079 0.289,0.146 0.554,0.345 0.885,0.401 0.09,0.016 0.183,0.043 0.262,0.088 0.255,0.144 0.5,0.305 0.756,0.446 0.167,0.092 0.348,0.159 0.523,0.238 0.088,0.039 0.177,0.078 0.304,0.135 C 0.351,-0.132 0.205,0.004 0,0"
             style="fill:#fff;fill-opacity:1;fill-rule:nonzero;stroke:none"
             id="path5825"
             inkscape:connector-curvature="0" />
        </g>
        <g
           id="g5827"
           transform="translate(298.0205,308.1437)">
          <path
             d="M 0,0 C -0.192,-0.124 -0.397,-0.152 -0.609,-0.061 -0.829,0.032 -1.03,0.02 -1.23,-0.122 -1.314,-0.18 -1.423,-0.206 -1.524,-0.235 c -0.083,-0.023 -0.17,-0.032 -0.256,-0.041 -0.292,-0.03 -0.559,-0.109 -0.829,-0.246 -0.654,-0.332 -1.302,-0.239 -1.875,0.203 -0.57,0.441 -0.775,1.046 -0.654,1.756 0.084,0.486 0.352,0.86 0.753,1.131 0.162,0.11 0.357,0.173 0.544,0.242 0.128,0.047 0.219,0.124 0.272,0.245 0.09,0.206 0.232,0.371 0.395,0.518 0.069,0.061 0.145,0.131 0.229,0.154 0.27,0.073 0.438,0.265 0.601,0.47 0.008,0.01 0.015,0.022 0.023,0.032 0.246,0.338 0.355,0.403 0.816,0.481 C -1.608,4.519 -1.673,4.322 -1.883,4.213 -2.031,4.136 -2.091,3.971 -2.13,3.816 -2.191,3.57 -2.345,3.41 -2.555,3.289 -2.566,3.282 -2.579,3.278 -2.59,3.271 -2.68,3.218 -2.759,3.154 -2.747,3.038 c 0.008,-0.08 0.13,-0.132 0.266,-0.128 0.13,0.003 0.232,0.07 0.31,0.161 0.104,0.12 0.19,0.255 0.285,0.382 0.083,0.112 0.163,0.226 0.253,0.332 0.083,0.098 0.188,0.168 0.319,0.192 0.279,0.052 0.489,0.202 0.626,0.449 0.094,0.17 0.239,0.261 0.42,0.311 0.128,0.035 0.253,0.08 0.38,0.119 C 0.33,4.923 0.503,5.051 0.642,5.229 0.706,5.311 0.778,5.386 0.846,5.464 0.859,5.457 0.872,5.45 0.885,5.443 0.853,5.338 0.823,5.232 0.789,5.127 0.775,5.083 0.741,5.043 0.734,4.999 0.697,4.769 0.537,4.646 0.347,4.551 0.062,4.409 -0.147,4.2 -0.266,3.899 -0.363,3.65 -0.542,3.508 -0.819,3.476 -0.945,3.461 -1.075,3.4 -1.182,3.328 -1.335,3.225 -1.311,3.048 -1.146,2.96 -1.026,2.896 -0.899,2.897 -0.78,2.952 -0.653,3.01 -0.525,3.071 -0.412,3.15 -0.198,3.3 0.031,3.394 0.293,3.393 0.572,3.392 0.794,3.489 0.958,3.725 1.029,3.827 1.128,3.912 1.22,3.998 1.36,4.129 1.53,4.172 1.718,4.139 1.79,4.126 1.861,4.107 1.933,4.096 2.309,4.037 2.647,4.11 2.921,4.392 2.981,4.454 3.038,4.52 3.094,4.586 3.283,4.809 3.536,4.92 3.81,4.995 c 0.023,0.006 0.05,0 0.099,0 C 3.728,4.769 3.619,4.522 3.399,4.343 3.194,4.177 3.03,3.961 2.851,3.765 2.64,3.532 2.378,3.43 2.067,3.447 2.007,3.451 1.948,3.455 1.888,3.456 1.739,3.46 1.614,3.409 1.522,3.288 1.45,3.193 1.372,3.101 1.309,3 1.135,2.716 0.878,2.577 0.554,2.543 0.362,2.524 0.17,2.507 -0.021,2.479 -0.317,2.434 -0.532,2.261 -0.685,2.014 c -0.125,-0.2 0,-0.41 0.238,-0.407 0.058,0.001 0.117,0.021 0.173,0.041 0.043,0.016 0.083,0.042 0.121,0.069 C 0.15,1.938 0.472,1.995 0.825,1.845 0.971,1.782 1.124,1.799 1.276,1.832 1.432,1.866 1.588,1.905 1.745,1.924 1.84,1.936 1.939,1.915 2.078,1.907 1.899,1.669 1.728,1.503 1.537,1.358 1.403,1.256 1.247,1.231 1.083,1.263 0.933,1.292 0.783,1.322 0.633,1.352 0.46,1.386 0.303,1.362 0.169,1.236 0.106,1.177 0.032,1.131 -0.032,1.072 -0.179,0.937 -0.358,0.891 -0.548,0.907 -0.713,0.922 -0.876,0.955 -1.037,0.991 -1.19,1.026 -1.343,1.046 -1.484,0.967 -1.555,0.927 -1.618,0.86 -1.663,0.79 -1.717,0.706 -1.698,0.609 -1.641,0.527 c 0.059,-0.087 0.146,-0.111 0.246,-0.09 0.117,0.025 0.235,0.046 0.35,0.079 0.116,0.033 0.226,0.032 0.324,-0.04 C -0.475,0.295 -0.241,0.319 0.016,0.47 0.215,0.587 0.439,0.677 0.695,0.544 0.598,0.454 0.511,0.359 0.411,0.282 0.28,0.18 0.139,0.09 0,0 m 1.262,-23.025 c -0.045,0.028 -0.091,0.054 -0.136,0.082 -0.175,0.113 -0.222,0.24 -0.162,0.43 0.024,0.076 0.066,0.12 0.148,0.142 0.23,0.061 0.235,0.073 0.239,0.314 0.001,0.04 0.001,0.08 0.001,0.12 0,0.191 0.032,0.386 -0.104,0.554 -0.025,0.032 -0.02,0.09 -0.025,0.136 -0.012,0.098 -0.021,0.197 -0.033,0.309 -0.18,0.008 -0.355,0.016 -0.523,0.024 0,0.243 -0.001,0.462 0,0.68 0.003,0.339 0.01,0.677 0.012,1.016 0.001,0.245 0,0.491 -0.006,0.737 -0.005,0.179 -0.028,0.358 -0.031,0.537 -0.006,0.512 -0.007,1.024 -0.006,1.536 0.001,0.108 -0.015,0.19 -0.125,0.244 -0.093,0.046 -0.153,0.13 -0.124,0.247 0.056,0.227 0.115,0.452 0.284,0.627 0.12,0.126 0.184,0.269 0.167,0.45 -0.013,0.13 -0.003,0.262 -0.003,0.405 0.006,0.001 0.011,0.001 0.016,0.001 v 1.496 c -0.001,0.002 -0.002,0.003 -0.002,0.004 -0.005,0.04 -0.012,0.079 -0.012,0.118 -0.001,1.551 -0.001,3.101 -0.001,4.662 h 0.11 c 0.085,0.113 0.172,0.218 0.247,0.331 0.027,0.04 0.038,0.098 0.038,0.149 0.002,0.452 0,0.904 -0.001,1.356 0,0.039 -0.004,0.079 -0.007,0.119 -0.014,0.171 -0.062,0.317 -0.289,0.35 0.015,0.141 0.029,0.277 0.043,0.413 0.003,0.025 0.02,0.054 0.013,0.075 -0.09,0.282 -0.036,0.558 -0.001,0.843 0.038,0.308 0.028,0.623 0.028,0.935 0,0.359 -0.012,0.718 -0.018,1.077 -0.003,0.217 0.131,0.357 0.28,0.483 0.035,0.03 0.099,0.034 0.151,0.036 0.146,0.004 0.293,-0.005 0.439,0.003 0.171,0.009 0.343,0.03 0.514,0.044 0.086,0.007 0.172,0.016 0.259,0.016 0.306,-0.001 0.612,-0.012 0.918,-0.007 0.351,0.007 0.703,0.025 1.054,0.042 0.091,0.005 0.186,0.045 0.269,0.026 0.106,-0.025 0.207,-0.085 0.297,-0.148 0.083,-0.058 0.16,-0.089 0.259,-0.061 0.05,0.014 0.103,0.019 0.155,0.025 0.155,0.017 0.226,0.084 0.231,0.244 0.009,0.273 0.013,0.546 0.012,0.819 C 5.834,0.333 5.829,1.65 5.825,2.967 5.824,3.346 5.825,3.725 5.824,4.104 5.823,4.137 5.827,4.173 5.817,4.204 5.636,4.778 5.689,5.374 5.66,5.962 5.653,6.093 5.651,6.221 5.596,6.35 5.483,6.611 5.367,6.678 5.094,6.601 5.05,6.589 5.001,6.597 4.957,6.586 4.893,6.571 4.806,6.566 4.773,6.523 4.664,6.385 4.52,6.4 4.375,6.395 3.976,6.382 3.578,6.366 3.179,6.351 3.14,6.35 3.098,6.352 3.06,6.342 2.794,6.274 2.525,6.269 2.25,6.279 1.745,6.297 1.239,6.28 0.734,6.286 0.569,6.288 0.405,6.316 0.241,6.332 0.201,6.336 0.161,6.345 0.122,6.345 -0.783,6.337 -1.687,6.327 -2.592,6.321 -3.436,6.315 -4.28,6.316 -5.125,6.308 -5.242,6.307 -5.361,6.285 -5.474,6.253 -5.681,6.195 -5.884,6.221 -6.086,6.261 -6.152,6.274 -6.23,6.32 -6.266,6.375 -6.319,6.455 -6.393,6.486 -6.469,6.524 -6.58,6.579 -6.691,6.636 -6.805,6.686 -7.001,6.77 -7.24,6.658 -7.298,6.445 -7.328,6.338 -7.337,6.223 -7.342,6.111 -7.354,5.858 -7.354,5.605 -7.365,5.352 -7.373,5.166 -7.389,4.981 -7.32,4.8 -7.304,4.758 -7.307,4.708 -7.307,4.662 -7.319,3.278 -7.332,1.895 -7.343,0.511 -7.345,0.326 -7.355,0.138 -7.268,-0.037 c 0.022,-0.045 0.016,-0.104 0.017,-0.157 0.001,-0.446 -0.005,-0.891 0.003,-1.337 0.003,-0.13 0.029,-0.264 0.069,-0.388 0.057,-0.181 0.231,-0.22 0.381,-0.098 0.026,0.02 0.046,0.048 0.071,0.07 0.103,0.091 0.221,0.138 0.363,0.136 0.399,-0.006 0.799,-0.007 1.198,-0.007 0.1,0 0.193,-0.008 0.287,-0.059 0.073,-0.039 0.165,-0.051 0.249,-0.056 0.139,-0.009 0.28,0.003 0.419,-0.005 0.192,-0.01 0.382,-0.033 0.574,-0.047 0.099,-0.008 0.199,-0.011 0.298,-0.012 0.187,-0.002 0.373,0.001 0.559,-10e-4 0.324,-0.005 0.48,-0.167 0.481,-0.491 0.003,-0.552 -0.003,-1.104 0.015,-1.656 0.012,-0.35 0.054,-0.7 0.095,-1.048 0.018,-0.154 -0.024,-0.321 0.09,-0.46 0.014,-0.017 -0.016,-0.087 -0.044,-0.116 -0.03,-0.032 -0.08,-0.045 -0.121,-0.065 -0.077,-0.038 -0.109,-0.098 -0.132,-0.183 -0.113,-0.413 -0.068,-0.833 -0.08,-1.25 -0.003,-0.127 -0.003,-0.253 -0.004,-0.38 -0.002,-0.242 0.003,-0.249 0.222,-0.338 0.024,-0.01 0.046,-0.024 0.088,-0.046 -10e-4,-1.611 0,-3.226 -10e-4,-4.853 v -1.938 c -0.001,-0.049 -0.001,-0.097 -0.003,-0.144 -0.005,-0.132 0.01,-0.248 0.123,-0.34 0.054,-0.045 0.095,-0.115 0.121,-0.181 0.128,-0.318 0.151,-0.447 -0.091,-0.637 -0.035,-0.027 -0.06,-0.088 -0.062,-0.134 -0.011,-0.345 -0.021,-0.689 -0.02,-1.034 0,-0.492 0.013,-0.983 0.015,-1.475 0.002,-0.332 -0.005,-0.665 -0.005,-0.997 0,-0.112 -0.023,-0.237 0.016,-0.336 0.108,-0.268 0.03,-0.533 0.049,-0.804 -0.083,-0.015 -0.146,-0.028 -0.225,-0.043 -0.007,-0.256 -0.007,-0.256 -0.213,-0.384 -0.017,-0.011 -0.034,-0.024 -0.052,-0.03 -0.225,-0.072 -0.292,-0.225 -0.287,-0.457 0.005,-0.206 0.08,-0.333 0.249,-0.437 0.109,-0.065 0.161,-0.202 0.291,-0.253 0.019,-0.008 0.021,-0.072 0.024,-0.11 0.011,-0.148 -0.107,-0.229 -0.168,-0.34 -0.084,-0.154 -0.2,-0.244 -0.346,-0.309 -0.104,-0.046 -0.153,-0.123 -0.163,-0.231 -0.016,-0.183 0,-0.357 0.124,-0.509 0.066,-0.082 0.138,-0.167 0.177,-0.263 0.085,-0.211 0.215,-0.384 0.392,-0.52 0.206,-0.157 0.416,-0.31 0.632,-0.452 0.074,-0.048 0.173,-0.076 0.262,-0.083 0.331,-0.028 0.663,-0.051 0.995,-0.062 0.248,-0.007 0.501,0.017 0.702,0.18 0.15,0.123 0.306,0.229 0.479,0.317 0.076,0.039 0.146,0.093 0.213,0.147 0.231,0.186 0.339,0.445 0.369,0.727 0.025,0.23 0.004,0.465 0.008,0.698 0.002,0.136 -0.065,0.226 -0.173,0.293"
             style="fill:#fff;fill-opacity:1;fill-rule:nonzero;stroke:none"
             id="path5829"
             inkscape:connector-curvature="0" />
        </g>
      </g>
    </g>
  </g>
</svg>
