<?xml version="1.0" encoding="UTF-8" standalone="no"?>
<!-- Created with Inkscape (http://www.inkscape.org/) -->

<svg
   xmlns:dc="http://purl.org/dc/elements/1.1/"
   xmlns:cc="http://creativecommons.org/ns#"
   xmlns:rdf="http://www.w3.org/1999/02/22-rdf-syntax-ns#"
   xmlns:svg="http://www.w3.org/2000/svg"
   xmlns="http://www.w3.org/2000/svg"
   xmlns:sodipodi="http://sodipodi.sourceforge.net/DTD/sodipodi-0.dtd"
   xmlns:inkscape="http://www.inkscape.org/namespaces/inkscape"
   width="11.560104mm"
   height="12.803046mm"
   viewBox="0 0 11.560104 12.803046"
   version="1.1"
   id="svg8774"
   inkscape:version="0.92.5 (2060ec1f9f, 2020-04-08)"
   sodipodi:docname="allies-bonesplitterz.svg">
  <defs
     id="defs8768">
    <clipPath
       clipPathUnits="userSpaceOnUse"
       id="clipPath5913">
      <path
         d="m 435.492,244.976 h 32.769 v 36.293 h -32.769 z"
         id="path5911"
         inkscape:connector-curvature="0" />
    </clipPath>
  </defs>
  <sodipodi:namedview
     id="base"
     pagecolor="#ffffff"
     bordercolor="#666666"
     borderopacity="1.0"
     inkscape:pageopacity="0.0"
     inkscape:pageshadow="2"
     inkscape:zoom="0.35"
     inkscape:cx="-1052.4399"
     inkscape:cy="287.05188"
     inkscape:document-units="mm"
     inkscape:current-layer="layer1"
     showgrid="false"
     fit-margin-top="0"
     fit-margin-left="0"
     fit-margin-right="0"
     fit-margin-bottom="0"
     inkscape:window-width="1920"
     inkscape:window-height="1017"
     inkscape:window-x="-8"
     inkscape:window-y="-8"
     inkscape:window-maximized="1" />
  <metadata
     id="metadata8771">
    <rdf:RDF>
      <cc:Work
         rdf:about="">
        <dc:format>image/svg+xml</dc:format>
        <dc:type
           rdf:resource="http://purl.org/dc/dcmitype/StillImage" />
        <dc:title></dc:title>
      </cc:Work>
    </rdf:RDF>
  </metadata>
  <g
     inkscape:label="Layer 1"
     inkscape:groupmode="layer"
     id="layer1"
     transform="translate(-384.29138,-211.97943)">
    <g
       transform="matrix(0.35277777,0,0,-0.35277777,230.65941,311.20488)"
       id="g5907">
      <g
         id="g5909"
         clip-path="url(#clipPath5913)">
        <g
           id="g5915"
           transform="translate(441.2852,267.9179)">
          <path
             d="m 0,0 c -0.02,-0.096 -0.02,-0.193 -0.06,-0.268 -0.167,-0.308 -0.236,-0.651 -0.349,-0.977 -0.06,-0.172 -0.077,-0.359 -0.113,-0.539 -0.021,-0.098 -0.042,-0.195 -0.065,-0.291 -0.042,-0.179 -0.103,-0.354 -0.125,-0.535 -0.021,-0.17 -0.004,-0.346 -0.002,-0.519 0.004,-0.425 0.01,-0.85 0.014,-1.274 0.003,-0.385 0.004,-0.77 0.005,-1.155 0,-0.273 0.016,-0.548 -0.007,-0.819 -0.025,-0.282 0.128,-0.53 0.122,-0.804 0,-0.005 0.006,-0.01 0.008,-0.015 0.027,-0.107 0.053,-0.214 0.08,-0.321 0.012,-0.048 0.019,-0.099 0.038,-0.144 0.037,-0.088 0.1,-0.169 0.117,-0.259 0.041,-0.218 0.102,-0.43 0.154,-0.644 0.033,-0.135 0.054,-0.277 0.115,-0.399 0.068,-0.133 0.059,-0.269 0.086,-0.403 0.026,-0.133 0.12,-0.25 0.105,-0.399 -0.006,-0.057 0.013,-0.122 0.038,-0.175 0.103,-0.217 0.202,-0.434 0.226,-0.678 0.004,-0.038 0.016,-0.078 0.035,-0.111 0.13,-0.227 0.21,-0.482 0.396,-0.678 0.076,-0.081 0.134,-0.179 0.207,-0.263 0.188,-0.212 0.38,-0.422 0.572,-0.631 0.12,-0.131 0.282,-0.222 0.363,-0.39 0.014,-0.029 0.04,-0.056 0.066,-0.075 0.16,-0.122 0.321,-0.242 0.482,-0.363 0.045,-0.033 0.094,-0.061 0.134,-0.099 0.129,-0.123 0.252,-0.252 0.382,-0.373 0.089,-0.084 0.186,-0.159 0.279,-0.238 0.192,-0.162 0.374,-0.337 0.62,-0.421 0.062,-0.021 0.122,-0.057 0.175,-0.097 0.112,-0.083 0.214,-0.18 0.329,-0.259 0.105,-0.073 0.214,-0.153 0.334,-0.188 0.342,-0.102 0.628,-0.283 0.868,-0.544 0.022,-0.024 0.05,-0.049 0.08,-0.058 0.357,-0.101 0.677,-0.323 1.065,-0.324 0.053,0 0.106,-0.032 0.159,-0.049 0.256,-0.084 0.515,-0.143 0.789,-0.12 0.133,0.011 0.268,0.006 0.401,0 0.048,-0.002 0.098,-0.02 0.141,-0.043 0.189,-0.099 0.386,-0.171 0.6,-0.178 0.252,-0.008 0.504,-0.005 0.756,-0.005 0.14,-0.001 0.276,-0.002 0.412,-0.057 0.09,-0.036 0.197,-0.039 0.297,-0.04 0.537,-0.004 1.075,-0.004 1.613,0 0.088,0.001 0.178,0.017 0.262,0.043 0.14,0.041 0.275,0.095 0.411,0.146 0.253,0.097 0.512,0.144 0.786,0.112 0.114,-0.014 0.235,0.003 0.349,0.022 0.247,0.043 0.494,0.089 0.738,0.147 0.134,0.032 0.276,0.067 0.39,0.139 0.211,0.135 0.399,0.305 0.651,0.368 0.045,0.011 0.086,0.051 0.121,0.086 0.085,0.085 0.184,0.142 0.299,0.179 0.084,0.028 0.164,0.07 0.241,0.114 0.266,0.151 0.504,0.348 0.791,0.466 0.099,0.042 0.189,0.095 0.302,0.066 0.024,-0.006 0.059,10e-4 0.079,0.015 0.112,0.083 0.223,0.167 0.329,0.257 0.107,0.09 0.201,0.195 0.309,0.282 0.19,0.155 0.398,0.29 0.579,0.454 0.244,0.22 0.471,0.459 0.703,0.693 0.074,0.075 0.14,0.159 0.209,0.238 0.195,0.221 0.429,0.413 0.52,0.71 0.012,0.036 0.038,0.069 0.06,0.1 0.136,0.193 0.26,0.391 0.315,0.625 0.014,0.058 0.044,0.118 0.083,0.163 0.195,0.221 0.31,0.489 0.445,0.745 0.049,0.093 0.081,0.195 0.122,0.293 0.09,0.216 0.18,0.433 0.272,0.648 0.037,0.087 0.077,0.173 0.123,0.255 0.089,0.157 0.167,0.312 0.179,0.5 0.006,0.102 0.048,0.206 0.093,0.3 0.085,0.178 0.167,0.36 0.182,0.555 0.029,0.367 0.208,0.708 0.187,1.083 -0.002,0.026 0.016,0.053 0.022,0.081 0.036,0.157 0.078,0.314 0.104,0.473 0.024,0.143 0.014,0.292 0.048,0.432 0.062,0.257 0.089,0.515 0.078,0.78 -0.004,0.103 0.019,0.213 0.055,0.31 0.037,0.097 0.061,0.189 0.047,0.292 -0.008,0.061 0.002,0.123 -10e-4,0.184 -0.005,0.14 0.004,0.282 -0.021,0.417 -0.054,0.285 -0.125,0.566 -0.192,0.848 -0.029,0.125 -0.064,0.249 -0.099,0.372 -0.073,0.251 -0.151,0.502 -0.221,0.754 -0.071,0.252 -0.125,0.51 -0.205,0.759 -0.043,0.136 -0.073,0.268 -0.063,0.41 0.004,0.061 -0.002,0.125 -0.019,0.182 C 21.54,0.096 21.469,0.313 21.4,0.53 21.363,0.647 21.328,0.765 21.285,0.88 21.194,1.126 21.108,1.374 21.002,1.614 20.915,1.813 20.811,2.006 20.701,2.194 20.596,2.371 20.474,2.539 20.358,2.71 20.309,2.784 20.266,2.866 20.204,2.929 20.001,3.134 19.779,3.323 19.694,3.616 19.691,3.626 19.681,3.634 19.676,3.644 19.547,3.873 19.313,4.007 19.16,4.214 19.151,4.226 19.133,4.236 19.117,4.24 18.945,4.279 18.819,4.382 18.714,4.52 18.681,4.564 18.629,4.593 18.586,4.628 18.409,4.775 18.226,4.913 18.058,5.068 17.716,5.383 17.381,5.705 17.045,6.027 16.909,6.158 16.748,6.242 16.57,6.3 16.508,6.32 16.446,6.352 16.397,6.394 16.268,6.505 16.127,6.565 15.952,6.551 15.885,6.546 15.811,6.571 15.746,6.598 15.655,6.637 15.573,6.701 15.48,6.736 15.332,6.79 15.193,6.851 15.081,6.969 14.98,7.077 14.863,7.159 14.7,7.152 14.649,7.15 14.594,7.18 14.545,7.203 14.372,7.285 14.202,7.355 14.001,7.346 13.75,7.335 13.497,7.35 13.246,7.357 13.18,7.359 13.114,7.374 13.049,7.389 12.979,7.405 12.907,7.42 12.841,7.448 12.673,7.518 12.483,7.53 12.327,7.639 12.214,7.718 12.087,7.75 11.946,7.743 11.795,7.735 11.644,7.738 11.493,7.74 11.396,7.741 11.308,7.728 11.22,7.677 11.166,7.646 11.092,7.639 11.027,7.639 10.669,7.635 10.31,7.634 9.952,7.636 9.681,7.637 9.438,7.509 9.175,7.475 9.159,7.473 9.145,7.461 9.129,7.454 8.862,7.327 8.594,7.202 8.327,7.074 8.287,7.055 8.253,7.023 8.214,7.003 8.136,6.963 8.058,6.922 7.976,6.89 7.769,6.808 7.549,6.751 7.355,6.645 7.075,6.492 6.778,6.383 6.486,6.257 6.225,6.145 5.958,6.042 5.714,5.9 5.442,5.741 5.168,5.598 4.862,5.525 4.781,5.506 4.724,5.468 4.665,5.412 4.545,5.296 4.422,5.179 4.284,5.087 4.146,4.996 4.01,4.894 3.839,4.86 3.798,4.852 3.76,4.818 3.726,4.79 3.645,4.722 3.569,4.647 3.487,4.58 3.362,4.478 3.235,4.379 3.107,4.281 2.887,4.11 2.65,3.964 2.465,3.748 2.347,3.61 2.231,3.462 2.059,3.377 1.986,3.34 1.929,3.271 1.864,3.219 1.707,3.096 1.59,2.922 1.392,2.85 1.365,2.84 1.343,2.806 1.329,2.777 1.194,2.507 1.072,2.231 0.927,1.967 0.63,1.431 0.413,0.864 0.248,0.276 0.21,0.138 0.145,0.029 0,0 m 10.977,-22.941 c -0.084,0.164 -0.183,0.31 -0.174,0.491 0.004,0.084 0.002,0.168 0.002,0.252 0,0.028 0.01,0.062 -0.002,0.083 -0.09,0.156 -0.076,0.341 -0.143,0.503 -0.01,0.026 -0.024,0.052 -0.028,0.079 -0.039,0.242 -0.151,0.467 -0.195,0.703 -0.043,0.234 -0.157,0.452 -0.148,0.7 0.004,0.095 -0.049,0.193 -0.076,0.29 -0.058,0.203 -0.124,0.405 -0.171,0.611 -0.05,0.222 -0.072,0.452 -0.123,0.674 -0.065,0.289 -0.148,0.573 -0.223,0.859 -0.019,0.073 -0.07,0.09 -0.139,0.09 -0.364,0.003 -0.727,0.008 -1.091,0.015 -0.066,0.002 -0.142,0.001 -0.196,0.031 -0.167,0.093 -0.348,0.068 -0.523,0.091 -0.087,0.011 -0.179,0.027 -0.256,0.064 -0.192,0.093 -0.39,0.137 -0.601,0.128 -0.282,-0.012 -0.536,0.059 -0.78,0.205 -0.268,0.161 -0.553,0.293 -0.83,0.438 -0.044,0.023 -0.089,0.046 -0.131,0.074 -0.148,0.098 -0.29,0.205 -0.444,0.293 -0.105,0.06 -0.229,0.088 -0.337,0.144 -0.173,0.089 -0.353,0.173 -0.455,0.355 -0.008,0.014 -0.019,0.032 -0.033,0.036 -0.17,0.057 -0.26,0.208 -0.381,0.321 -0.02,0.019 -0.04,0.043 -0.064,0.054 -0.386,0.183 -0.663,0.508 -0.99,0.767 -0.144,0.114 -0.271,0.248 -0.412,0.366 -0.085,0.072 -0.18,0.132 -0.273,0.194 -0.021,0.014 -0.058,0.028 -0.077,0.019 -0.1,-0.049 -0.219,-0.085 -0.289,-0.163 -0.135,-0.15 -0.316,-0.228 -0.472,-0.344 -0.165,-0.124 -0.339,-0.235 -0.51,-0.351 -0.083,-0.056 -0.162,-0.122 -0.275,-0.098 -0.026,0.006 -0.061,0.003 -0.08,-0.011 -0.119,-0.089 -0.235,-0.182 -0.351,-0.275 -0.199,-0.161 -0.396,-0.325 -0.599,-0.481 -0.036,-0.029 -0.095,-0.037 -0.144,-0.039 -0.144,-0.005 -0.24,0.138 -0.174,0.266 0.039,0.075 0.089,0.137 0.061,0.232 -0.008,0.028 0.031,0.086 0.063,0.106 0.168,0.104 0.246,0.277 0.327,0.438 0.123,0.248 0.284,0.467 0.456,0.679 0.126,0.156 0.265,0.302 0.398,0.453 0.018,0.021 0.043,0.044 0.046,0.068 0.04,0.29 0.249,0.509 0.318,0.813 -0.023,0.033 -0.06,0.088 -0.099,0.141 -0.187,0.258 -0.376,0.514 -0.563,0.772 -0.023,0.031 -0.034,0.07 -0.052,0.105 -0.118,0.233 -0.249,0.456 -0.437,0.645 -0.092,0.093 -0.154,0.218 -0.222,0.333 -0.057,0.096 -0.105,0.198 -0.151,0.3 -0.027,0.06 -0.059,0.126 -0.059,0.189 0,0.105 -0.026,0.198 -0.08,0.285 -0.118,0.19 -0.126,0.401 -0.127,0.615 -10e-4,0.065 -0.018,0.13 -0.03,0.195 -0.01,0.055 -0.022,0.109 -0.037,0.163 -0.068,0.253 -0.137,0.505 -0.208,0.757 -0.011,0.037 -0.044,0.071 -0.046,0.107 -0.017,0.245 -0.14,0.47 -0.133,0.719 0.001,0.033 0.003,0.073 -0.014,0.097 -0.075,0.109 -0.073,0.231 -0.078,0.355 -0.003,0.109 0.008,0.224 -0.056,0.324 -0.008,0.013 -0.007,0.033 -0.008,0.05 -0.002,0.268 -0.048,0.531 -0.099,0.793 -0.006,0.033 0.005,0.077 -0.012,0.098 -0.103,0.119 -0.079,0.263 -0.085,0.401 -0.004,0.078 0.007,0.158 -0.007,0.234 -0.014,0.081 -0.05,0.159 -0.08,0.248 -0.154,0.004 -0.291,0.057 -0.4,0.171 -0.018,0.019 -0.049,0.029 -0.075,0.035 -0.19,0.04 -0.381,0.071 -0.569,0.119 -0.112,0.028 -0.216,0.087 -0.327,0.12 -0.203,0.059 -0.408,0.109 -0.613,0.162 -0.054,0.014 -0.108,0.027 -0.163,0.038 -0.413,0.088 -0.822,0.208 -1.252,0.162 -0.053,-0.005 -0.108,-0.001 -0.169,-0.001 0.001,0.119 0.069,0.175 0.146,0.222 0.098,0.061 0.209,0.078 0.322,0.072 0.125,-0.007 0.242,0.016 0.361,0.06 0.086,0.033 0.185,0.034 0.28,0.04 0.106,0.006 0.212,0 0.319,10e-4 0.039,0.001 0.08,-0.002 0.116,0.009 0.175,0.052 0.346,0.121 0.524,0.159 0.204,0.043 0.391,0.126 0.583,0.199 0.101,0.039 0.174,0.133 0.295,0.144 0.115,0.01 0.23,0.038 0.341,0.07 0.117,0.035 0.237,0.069 0.339,0.131 0.101,0.062 0.193,0.081 0.303,0.036 0.084,0.148 0.15,0.29 0.135,0.462 -0.009,0.111 0.007,0.224 0.003,0.335 -0.005,0.127 0.013,0.246 0.088,0.351 0.006,0.009 0.012,0.02 0.014,0.03 0.043,0.184 0.084,0.368 0.126,0.551 0.012,0.049 0.021,0.099 0.039,0.145 0.084,0.206 0.174,0.411 0.256,0.618 0.102,0.258 0.161,0.529 0.222,0.799 0.007,0.032 0.014,0.067 0.031,0.095 0.185,0.302 0.236,0.661 0.421,0.964 0.066,0.109 0.097,0.238 0.153,0.354 0.125,0.255 0.253,0.509 0.385,0.762 C 0.065,2.73 0.117,2.838 0.223,2.915 0.266,2.947 0.286,3.033 0.288,3.096 0.294,3.263 0.263,3.435 0.286,3.599 0.318,3.82 0.193,3.958 0.087,4.122 c -0.191,0.295 -0.37,0.6 -0.534,0.911 -0.175,0.333 -0.351,0.662 -0.616,0.936 -0.054,0.055 -0.098,0.122 -0.141,0.187 -0.234,0.356 -0.483,0.699 -0.759,1.023 -0.109,0.127 -0.19,0.276 -0.282,0.417 -0.171,0.261 -0.343,0.523 -0.511,0.787 -0.032,0.05 -0.051,0.109 -0.082,0.178 0.154,0.005 0.276,0.015 0.403,-0.086 C -2.261,8.338 -2.056,8.239 -1.867,8.12 -1.792,8.073 -1.716,8.022 -1.654,7.961 -1.446,7.757 -1.251,7.539 -0.996,7.39 -0.944,7.36 -0.907,7.305 -0.858,7.268 -0.787,7.215 -0.717,7.15 -0.635,7.123 -0.48,7.071 -0.37,6.968 -0.252,6.862 -0.124,6.747 0.026,6.657 0.164,6.553 0.33,6.429 0.501,6.312 0.654,6.175 0.934,5.925 1.251,5.75 1.605,5.631 1.688,5.603 1.762,5.548 1.835,5.497 2.02,5.367 2.202,5.435 2.254,5.657 2.291,5.816 2.394,5.894 2.558,5.886 2.712,5.879 2.84,5.948 2.963,6.028 3.221,6.195 3.477,6.365 3.735,6.533 3.824,6.592 3.913,6.65 4.005,6.704 4.128,6.776 4.253,6.836 4.396,6.877 4.7,6.964 4.996,7.081 5.275,7.238 5.557,7.396 5.85,7.531 6.158,7.635 c 0.204,0.07 0.39,0.189 0.588,0.279 0.198,0.089 0.397,0.176 0.6,0.252 0.266,0.1 0.536,0.185 0.79,0.318 0.19,0.1 0.405,0.154 0.61,0.224 0.1,0.034 0.203,0.059 0.305,0.089 0.219,0.065 0.437,0.131 0.657,0.195 0.098,0.028 0.153,0.084 0.15,0.192 -0.001,0.044 0.002,0.094 0.021,0.132 0.087,0.173 0.086,0.358 0.076,0.542 -0.013,0.242 0.087,0.46 0.133,0.689 0.087,0.428 0.177,0.854 0.262,1.282 0.013,0.065 0.008,0.134 0.013,0.2 0.005,0.062 -0.006,0.135 0.024,0.181 0.103,0.166 0.067,0.346 0.076,0.522 0.005,0.1 -0.002,0.199 0.067,0.288 0.027,0.033 0.016,0.096 0.026,0.144 0.013,0.056 0.031,0.111 0.053,0.188 0.095,-0.083 0.098,-0.177 0.121,-0.257 0.069,-0.247 0.134,-0.496 0.192,-0.746 0.034,-0.146 0.052,-0.296 0.074,-0.445 0.022,-0.149 0.034,-0.3 0.063,-0.447 0.015,-0.075 0.045,-0.153 0.089,-0.214 0.125,-0.172 0.168,-0.36 0.135,-0.567 -0.012,-0.079 -0.003,-0.146 0.032,-0.223 0.039,-0.088 0.043,-0.194 0.052,-0.293 0.008,-0.095 0.013,-0.182 0.06,-0.273 0.041,-0.079 0.042,-0.184 0.044,-0.278 0.004,-0.167 -0.01,-0.336 0.144,-0.501 0.085,0 0.206,0.005 0.326,-0.002 0.083,-0.004 0.17,-0.011 0.245,-0.042 0.143,-0.058 0.289,-0.072 0.44,-0.089 0.198,-0.024 0.393,-0.076 0.589,-0.116 0.087,-0.018 0.174,-0.047 0.262,-0.052 0.161,-0.007 0.325,0.015 0.486,-0.002 0.264,-0.029 0.53,-0.041 0.778,-0.173 0.156,-0.084 0.313,-0.164 0.465,-0.258 0.174,-0.107 0.377,-0.166 0.562,-0.255 0.105,-0.05 0.205,-0.112 0.299,-0.18 0.172,-0.123 0.328,-0.261 0.549,-0.307 0.156,-0.032 0.303,-0.111 0.449,-0.18 0.212,-0.1 0.42,-0.208 0.627,-0.317 0.063,-0.034 0.119,-0.083 0.174,-0.13 0.144,-0.123 0.279,-0.258 0.433,-0.368 0.115,-0.084 0.254,-0.135 0.382,-0.202 0.084,-0.044 0.176,-0.078 0.248,-0.136 0.224,-0.184 0.44,-0.378 0.66,-0.566 0.034,-0.029 0.074,-0.05 0.133,-0.089 0.091,0.052 0.194,0.103 0.291,0.166 0.14,0.091 0.268,0.206 0.415,0.282 0.178,0.091 0.364,0.165 0.537,0.264 0.067,0.038 0.143,0.025 0.206,-0.024 C 21.238,6.281 21.256,6.215 21.215,6.141 21.074,5.887 20.932,5.633 20.788,5.382 20.727,5.276 20.657,5.176 20.592,5.073 20.516,4.952 20.501,4.819 20.539,4.686 20.611,4.431 20.735,4.198 20.893,3.987 21.087,3.728 21.3,3.483 21.499,3.227 21.574,3.13 21.641,3.025 21.694,2.916 21.797,2.706 21.969,2.55 22.11,2.37 22.275,2.159 22.397,1.935 22.438,1.668 22.444,1.63 22.46,1.593 22.473,1.557 22.57,1.266 22.667,0.975 22.767,0.686 c 0.088,-0.253 0.181,-0.505 0.27,-0.757 0.053,-0.153 0.128,-0.303 0.149,-0.46 0.025,-0.185 0.116,-0.337 0.176,-0.504 0.059,-0.162 0.112,-0.327 0.161,-0.492 0.057,-0.187 0.101,-0.378 0.161,-0.563 0.064,-0.196 0.143,-0.385 0.166,-0.594 0.024,-0.219 0.135,-0.318 0.352,-0.314 0.157,0.003 0.291,-0.069 0.404,-0.144 0.199,-0.133 0.402,-0.173 0.631,-0.154 0.105,0.01 0.213,0.007 0.319,0.002 0.048,-0.002 0.111,-0.005 0.142,-0.035 0.075,-0.074 0.164,-0.072 0.251,-0.061 0.211,0.027 0.41,-0.042 0.611,-0.08 0.134,-0.025 0.256,-0.112 0.416,-0.186 C 26.818,-3.709 26.685,-3.746 26.559,-3.8 26.415,-3.86 26.273,-3.928 26.138,-4.006 25.867,-4.163 25.603,-4.332 25.332,-4.489 25.256,-4.533 25.167,-4.565 25.08,-4.576 24.845,-4.604 24.647,-4.72 24.444,-4.826 24.385,-4.857 24.328,-4.893 24.267,-4.92 24.13,-4.981 24.02,-5.063 23.973,-5.216 23.954,-5.278 23.906,-5.33 23.872,-5.387 23.822,-5.474 23.742,-5.558 23.73,-5.65 23.699,-5.893 23.627,-6.127 23.61,-6.372 23.6,-6.52 23.548,-6.665 23.509,-6.81 23.426,-7.116 23.31,-7.413 23.263,-7.731 c -0.021,-0.147 -0.09,-0.286 -0.135,-0.43 -0.064,-0.202 -0.143,-0.401 -0.184,-0.608 -0.037,-0.184 -0.111,-0.35 -0.179,-0.521 -0.016,-0.042 -0.041,-0.082 -0.047,-0.126 -0.054,-0.393 -0.263,-0.731 -0.394,-1.097 -0.103,-0.29 -0.245,-0.562 -0.409,-0.823 -0.003,-0.005 -0.006,-0.009 -0.007,-0.015 -0.068,-0.273 -0.26,-0.478 -0.394,-0.715 -0.016,-0.029 -0.033,-0.062 -0.059,-0.08 -0.152,-0.109 -0.211,-0.286 -0.315,-0.429 -0.057,-0.079 -0.066,-0.163 -0.018,-0.253 0.042,-0.079 0.078,-0.161 0.116,-0.242 0.113,-0.237 0.225,-0.474 0.34,-0.71 0.024,-0.049 0.061,-0.092 0.09,-0.138 0.043,-0.069 0.085,-0.139 0.132,-0.214 -0.058,-0.039 -0.1,-0.066 -0.14,-0.095 -0.098,-0.07 -0.192,-0.084 -0.31,-0.03 -0.239,0.108 -0.485,0.202 -0.73,0.295 -0.071,0.026 -0.15,0.035 -0.227,0.044 -0.158,0.018 -0.323,-0.036 -0.477,0.047 -0.021,0.011 -0.092,-0.024 -0.105,-0.053 -0.053,-0.129 -0.157,-0.196 -0.267,-0.267 -0.069,-0.045 -0.135,-0.107 -0.176,-0.177 -0.139,-0.235 -0.36,-0.342 -0.607,-0.413 -0.153,-0.044 -0.296,-0.098 -0.401,-0.228 -0.034,-0.041 -0.092,-0.062 -0.137,-0.094 -0.068,-0.048 -0.136,-0.097 -0.202,-0.147 -0.026,-0.021 -0.045,-0.053 -0.073,-0.069 -0.225,-0.12 -0.381,-0.326 -0.589,-0.467 -0.142,-0.097 -0.288,-0.188 -0.435,-0.279 -0.118,-0.073 -0.234,-0.149 -0.359,-0.211 -0.083,-0.04 -0.179,-0.053 -0.268,-0.085 -0.125,-0.046 -0.247,-0.1 -0.373,-0.146 -0.334,-0.124 -0.638,-0.317 -0.989,-0.406 -0.301,-0.076 -0.592,-0.196 -0.89,-0.287 -0.127,-0.039 -0.261,-0.069 -0.393,-0.074 -0.115,-0.004 -0.227,-0.012 -0.321,-0.074 -0.2,-0.131 -0.423,-0.126 -0.647,-0.13 -0.168,-0.003 -0.334,-0.012 -0.471,-0.134 -0.058,-0.051 -0.1,-0.101 -0.097,-0.183 0.001,-0.043 -0.011,-0.088 -0.023,-0.129 -0.059,-0.198 -0.12,-0.395 -0.181,-0.592 -0.009,-0.031 -0.018,-0.07 -0.04,-0.089 -0.102,-0.087 -0.101,-0.205 -0.114,-0.322 -0.015,-0.138 -0.039,-0.275 -0.06,-0.413 -0.006,-0.044 -0.019,-0.088 -0.022,-0.132 -0.029,-0.477 -0.134,-0.94 -0.255,-1.4 -0.024,-0.092 -0.028,-0.188 -0.05,-0.28 -0.043,-0.179 -0.094,-0.357 -0.137,-0.536 -0.026,-0.108 -0.046,-0.217 -0.066,-0.327 -0.013,-0.071 -0.022,-0.143 -0.034,-0.215 -0.024,-0.143 -0.043,-0.286 -0.073,-0.428 -0.021,-0.096 -0.056,-0.189 -0.084,-0.283"
             style="fill:#fff;fill-opacity:1;fill-rule:nonzero;stroke:none"
             id="path5917"
             inkscape:connector-curvature="0" />
        </g>
        <g
           id="g5919"
           transform="translate(456.8095,264.256)">
          <path
             d="M 0,0 C 0.003,0.047 0.009,0.085 0.005,0.121 -0.018,0.35 -0.045,0.579 -0.069,0.808 -0.09,1.018 -0.108,1.229 -0.128,1.44 -0.155,1.726 -0.182,2.012 -0.21,2.298 -0.233,2.537 -0.253,2.777 -0.282,3.015 -0.298,3.138 -0.333,3.259 -0.355,3.382 -0.376,3.503 -0.387,3.626 -0.409,3.747 -0.435,3.892 -0.465,4.036 -0.498,4.179 -0.545,4.387 -0.581,4.599 -0.649,4.8 -0.78,5.186 -0.751,5.587 -0.793,5.982 c -0.014,0.124 -0.056,0.235 -0.146,0.321 -0.143,0.136 -0.234,0.303 -0.33,0.471 -0.076,0.134 -0.19,0.245 -0.278,0.373 -0.149,0.217 -0.289,0.441 -0.438,0.659 -0.069,0.101 -0.156,0.189 -0.224,0.291 -0.187,0.278 -0.372,0.555 -0.621,0.786 -0.082,0.076 -0.128,0.192 -0.19,0.29 -0.057,0.091 0.023,0.136 0.064,0.196 0.039,0.057 0.089,0.051 0.132,0.022 C -2.707,9.311 -2.591,9.23 -2.483,9.139 -2.382,9.054 -2.292,8.958 -2.198,8.865 -2.117,8.785 -2.02,8.742 -1.912,8.707 -1.655,8.625 -1.468,8.441 -1.273,8.265 -1.159,8.163 -1.02,8.089 -0.902,7.991 -0.704,7.829 -0.508,7.664 -0.322,7.49 -0.106,7.288 0.103,7.078 0.308,6.864 0.549,6.613 0.763,6.334 1.024,6.107 1.281,5.882 1.467,5.608 1.667,5.343 1.726,5.265 1.744,5.152 1.769,5.053 1.795,4.954 1.806,4.851 1.825,4.75 1.868,4.521 1.911,4.292 1.956,4.063 1.972,3.986 1.999,3.911 2.014,3.834 2.033,3.745 2.037,3.652 2.06,3.564 2.116,3.343 2.128,3.112 2.245,2.906 2.296,2.816 2.303,2.702 2.344,2.605 2.4,2.471 2.403,2.324 2.49,2.194 2.602,2.027 2.675,1.833 2.753,1.646 2.811,1.507 2.861,1.362 2.894,1.216 2.967,0.891 3.089,0.579 3.092,0.237 3.095,0.002 3.144,-0.233 3.16,-0.47 3.178,-0.741 3.194,-1.014 3.191,-1.286 3.185,-1.926 3.238,-2.562 3.286,-3.199 3.3,-3.378 3.277,-3.559 3.265,-3.739 3.259,-3.819 3.214,-3.85 3.124,-3.852 2.987,-3.856 2.834,-3.818 2.725,-3.949 2.717,-3.959 2.697,-3.966 2.683,-3.967 c -0.166,-0.004 -0.33,-0.022 -0.489,0.07 -0.102,0.059 -0.229,0.075 -0.345,0.11 -0.221,0.067 -0.448,0.117 -0.66,0.205 -0.302,0.124 -0.629,0.206 -0.872,0.45 -0.163,0.165 -0.388,0.227 -0.581,0.343 -0.096,0.059 -0.201,0.105 -0.294,0.168 -0.035,0.024 -0.071,0.083 -0.066,0.121 0.026,0.189 0.065,0.376 0.102,0.563 0.034,0.177 0.064,0.356 0.111,0.531 0.088,0.319 0.069,0.648 0.092,0.973 0.005,0.068 -0.008,0.138 -0.015,0.208 -0.02,0.196 0.038,0.256 0.234,0.24 C -0.073,0.013 -0.045,0.007 0,0"
             style="fill:#fff;fill-opacity:1;fill-rule:nonzero;stroke:none"
             id="path5921"
             inkscape:connector-curvature="0" />
        </g>
        <g
           id="g5923"
           transform="translate(444.4865,258.9615)">
          <path
             d="m 0,0 c 0,0.088 0,0.164 0,0.241 0,0.025 0.005,0.05 0.005,0.075 0,0.18 -0.011,0.36 0.001,0.539 0.014,0.221 0.048,0.44 0.071,0.66 0.011,0.102 0.014,0.205 0.027,0.306 0.022,0.164 0.053,0.326 0.075,0.489 0.013,0.103 0.013,0.208 0.023,0.311 0.012,0.116 0.026,0.232 0.042,0.347 0.022,0.163 0.048,0.326 0.073,0.489 0.024,0.16 0.052,0.32 0.074,0.481 0.013,0.099 0.016,0.199 0.03,0.298 C 0.433,4.322 0.456,4.406 0.47,4.492 0.505,4.7 0.536,4.91 0.573,5.118 0.589,5.205 0.621,5.289 0.64,5.376 0.664,5.484 0.677,5.594 0.701,5.702 0.729,5.832 0.763,5.961 0.795,6.09 0.833,6.244 0.869,6.399 0.908,6.553 0.935,6.658 0.966,6.762 0.995,6.866 1.009,6.914 1.02,6.962 1.033,7.01 1.092,7.224 1.154,7.437 1.21,7.652 c 0.051,0.196 0.092,0.395 0.144,0.59 0.037,0.142 0.088,0.28 0.129,0.421 0.026,0.09 0.043,0.181 0.068,0.271 0.04,0.145 0.081,0.288 0.124,0.431 0.069,0.228 0.135,0.456 0.212,0.681 0.067,0.196 0.148,0.386 0.219,0.58 0.069,0.191 0.125,0.387 0.202,0.574 0.083,0.205 0.181,0.405 0.276,0.606 0.108,0.229 0.215,0.459 0.329,0.685 0.112,0.224 0.23,0.444 0.349,0.663 0.034,0.062 0.079,0.115 0.168,0.076 0.135,-0.059 0.198,-0.12 0.154,-0.198 -0.088,-0.158 10e-4,-0.29 0.031,-0.433 0.016,-0.079 0.027,-0.16 0.032,-0.24 C 3.651,12.293 3.644,12.227 3.641,12.161 3.63,11.952 3.622,11.743 3.606,11.535 3.587,11.295 3.552,11.055 3.54,10.815 3.527,10.542 3.526,10.269 3.529,9.997 3.534,9.57 3.531,9.142 3.561,8.716 3.575,8.516 3.512,8.368 3.403,8.217 3.338,8.128 3.331,8.022 3.355,7.911 3.394,7.727 3.422,7.541 3.454,7.356 3.458,7.337 3.448,7.315 3.456,7.299 3.576,7.031 3.481,6.751 3.503,6.477 3.527,6.172 3.561,5.867 3.582,5.561 3.592,5.414 3.578,5.264 3.586,5.116 3.595,4.946 3.62,4.777 3.631,4.607 3.651,4.266 3.665,3.925 3.686,3.584 3.694,3.446 3.713,3.308 3.727,3.17 3.73,3.141 3.733,3.113 3.733,3.084 3.734,2.933 3.735,2.782 3.735,2.63 3.735,2.487 3.732,2.343 3.734,2.199 3.737,1.996 3.596,1.9 3.445,1.815 3.276,1.719 3.105,1.625 2.93,1.541 2.745,1.452 2.554,1.38 2.369,1.293 2.245,1.234 2.128,1.164 2.008,1.098 1.81,0.991 1.613,0.884 1.416,0.777 1.26,0.692 1.104,0.608 0.948,0.522 0.659,0.362 0.371,0.201 0.083,0.04 0.061,0.028 0.039,0.019 0,0"
             style="fill:#fff;fill-opacity:1;fill-rule:nonzero;stroke:none"
             id="path5925"
             inkscape:connector-curvature="0" />
        </g>
        <g
           id="g5927"
           transform="translate(446.3878,255.9473)">
          <path
             d="M 0,0 C 0.08,0.08 0.158,0.152 0.229,0.23 0.352,0.369 0.465,0.516 0.592,0.651 0.729,0.797 0.876,0.935 1.02,1.074 1.238,1.286 1.455,1.498 1.677,1.705 1.808,1.828 1.948,1.94 2.082,2.059 2.248,2.206 2.413,2.356 2.577,2.505 2.793,2.704 3.002,2.912 3.229,3.098 3.307,3.163 3.427,3.179 3.53,3.212 3.736,3.277 3.949,3.326 4.151,3.404 4.401,3.501 4.641,3.622 4.887,3.728 5.019,3.785 5.15,3.85 5.288,3.883 5.444,3.922 5.602,3.918 5.754,3.833 5.817,3.797 5.904,3.8 5.98,3.788 6.167,3.759 6.355,3.739 6.541,3.704 6.748,3.665 6.953,3.619 7.156,3.565 7.206,3.552 7.25,3.503 7.289,3.463 7.549,3.197 7.806,2.927 8.067,2.662 8.331,2.395 8.601,2.134 8.867,1.869 9.117,1.618 9.368,1.367 9.614,1.112 9.865,0.853 10.111,0.589 10.357,0.327 10.381,0.302 10.397,0.27 10.416,0.241 10.475,0.152 10.444,0.076 10.336,0.083 10.193,0.091 10.037,0.101 9.915,0.164 9.715,0.269 9.494,0.301 9.29,0.386 9.117,0.458 8.943,0.527 8.767,0.59 8.665,0.627 8.559,0.652 8.454,0.68 8.273,0.728 8.091,0.775 7.908,0.821 7.848,0.836 7.785,0.842 7.724,0.854 7.47,0.903 7.216,0.954 6.962,1.002 6.846,1.024 6.728,1.037 6.613,1.063 6.452,1.099 6.292,1.139 6.134,1.186 5.935,1.245 5.728,1.224 5.527,1.253 5.281,1.287 5.077,1.151 4.849,1.116 4.689,1.092 4.532,1.044 4.375,1.004 4.199,0.96 4.024,0.911 3.848,0.865 3.805,0.855 3.761,0.85 3.717,0.844 3.44,0.804 3.164,0.761 2.886,0.724 2.667,0.695 2.446,0.674 2.227,0.647 2.193,0.643 2.157,0.632 2.129,0.613 1.883,0.449 1.64,0.279 1.392,0.118 1.285,0.048 1.166,-0.003 1.055,-0.068 0.938,-0.137 0.826,-0.215 0.708,-0.283 0.62,-0.334 0.528,-0.381 0.433,-0.416 0.409,-0.425 0.357,-0.387 0.333,-0.359 0.26,-0.276 0.197,-0.185 0.126,-0.102 0.096,-0.067 0.054,-0.043 0,0"
             style="fill:#fff;fill-opacity:1;fill-rule:nonzero;stroke:none"
             id="path5929"
             inkscape:connector-curvature="0" />
        </g>
        <g
           id="g5931"
           transform="translate(452.3318,261.2978)">
          <path
             d="m 0,0 c -0.028,-0.02 -0.049,-0.035 -0.069,-0.049 0.017,-0.015 0.032,-0.035 0.051,-0.045 0.019,-0.01 0.043,-0.011 0.065,-0.014 0.246,-0.043 0.494,-0.079 0.716,-0.205 0.016,-0.009 0.04,-0.001 0.06,-0.001 -0.006,0.022 -0.006,0.051 -0.02,0.063 C 0.772,-0.225 0.736,-0.2 0.698,-0.189 0.467,-0.124 0.235,-0.063 0,0 M 1.069,0.475 C 1.072,0.465 1.074,0.455 1.077,0.446 1.171,0.474 1.267,0.499 1.36,0.532 1.38,0.539 1.391,0.572 1.407,0.594 1.384,0.607 1.362,0.631 1.339,0.632 1.266,0.634 1.193,0.632 1.122,0.624 0.959,0.607 0.796,0.587 0.635,0.563 0.609,0.56 0.566,0.521 0.57,0.507 0.577,0.476 0.602,0.437 0.63,0.425 c 0.031,-0.012 0.074,0 0.111,0.004 0.11,0.014 0.219,0.03 0.328,0.046 M 1.141,0.176 C 0.78,0.321 0.432,0.462 0.084,0.602 L 0.074,0.584 C 0.536,0.132 0.997,-0.32 1.475,-0.788 1.379,-0.762 1.3,-0.746 1.226,-0.719 c -0.211,0.077 -0.427,0.111 -0.65,0.118 -0.066,0.002 -0.136,0.048 -0.193,0.09 -0.181,0.133 -0.355,0.275 -0.535,0.408 -0.024,0.018 -0.073,0.021 -0.101,0.009 -0.06,-0.024 -0.096,-0.006 -0.131,0.039 -0.09,0.113 -0.083,0.16 0.019,0.257 0.045,0.043 0.079,0.098 0.11,0.152 0.008,0.015 -0.013,0.048 -0.021,0.072 C -0.297,0.416 -0.329,0.41 -0.336,0.394 -0.392,0.263 -0.484,0.201 -0.629,0.228 -0.649,0.232 -0.677,0.225 -0.693,0.213 -0.801,0.129 -0.918,0.159 -1.033,0.187 -1.106,0.204 -1.177,0.233 -1.251,0.249 -1.359,0.273 -1.415,0.343 -1.447,0.444 -1.479,0.547 -1.514,0.551 -1.604,0.499 -1.739,0.422 -1.879,0.354 -2.019,0.286 -2.169,0.212 -2.319,0.139 -2.472,0.073 -2.559,0.036 -2.655,0.02 -2.744,-0.013 -2.869,-0.06 -2.997,-0.105 -3.114,-0.168 -3.28,-0.257 -3.45,-0.266 -3.626,-0.229 c -0.075,0.016 -0.119,0.071 -0.104,0.146 0.046,0.228 0.091,0.456 0.152,0.68 0.074,0.275 0.155,0.55 0.247,0.82 0.078,0.227 0.173,0.449 0.268,0.67 0.078,0.181 0.167,0.359 0.253,0.537 0.053,0.109 0.117,0.213 0.163,0.325 0.08,0.194 0.146,0.394 0.224,0.589 0.052,0.129 0.122,0.251 0.169,0.382 0.055,0.148 0.088,0.304 0.141,0.453 0.061,0.17 0.133,0.335 0.202,0.502 0.059,0.145 0.119,0.289 0.178,0.433 0.027,0.066 0.056,0.126 0.136,0.144 0.024,0.006 0.044,0.035 0.062,0.056 0.036,0.044 0.072,0.088 0.103,0.135 0.049,0.075 0.112,0.082 0.189,0.05 0.08,-0.032 0.075,-0.124 0.06,-0.16 C -1.232,5.412 -1.194,5.296 -1.195,5.178 -1.196,4.989 -1.214,4.8 -1.216,4.611 -1.218,4.389 -1.211,4.165 -1.206,3.942 -1.201,3.713 -1.195,3.483 -1.188,3.253 -1.186,3.178 -1.179,3.102 -1.176,3.026 -1.165,2.815 -1.156,2.604 -1.146,2.392 -1.143,2.342 -1.137,2.292 -1.13,2.241 -1.115,2.127 -1.124,2.024 -1.191,1.917 -1.284,1.771 -1.358,1.611 -1.427,1.451 -1.509,1.259 -1.503,1.256 -1.313,1.15 -1.291,1.138 -1.268,1.125 -1.252,1.106 -1.215,1.062 -1.224,1.033 -1.284,1.023 -1.435,0.999 -1.536,0.915 -1.576,0.769 c -0.01,-0.035 0.013,-0.078 0.021,-0.117 0.028,0.023 0.073,0.041 0.082,0.07 0.059,0.176 0.255,0.238 0.463,0.179 0.037,-0.011 0.098,0.013 0.128,0.042 0.072,0.069 0.132,0.151 0.201,0.232 -0.003,0.007 -0.004,0.021 -0.012,0.028 -0.097,0.084 -0.09,0.151 0.014,0.228 0.134,0.101 0.292,0.137 0.449,0.168 C -0.113,1.622 0.165,1.427 0.187,1.311 0.203,1.22 0.129,1.257 0.091,1.26 -0.065,1.273 -0.221,1.296 -0.378,1.305 -0.466,1.31 -0.535,1.262 -0.597,1.172 -0.457,1.158 -0.337,1.151 -0.217,1.134 -0.131,1.121 -0.045,1.099 0.039,1.074 0.111,1.052 0.13,0.999 0.118,0.924 0.113,0.889 0.141,0.85 0.152,0.812 0.16,0.782 0.165,0.752 0.173,0.723 0.181,0.695 0.192,0.668 0.201,0.641 0.226,0.656 0.265,0.665 0.274,0.686 0.293,0.734 0.31,0.789 0.306,0.84 0.298,0.964 0.34,1.037 0.462,1.079 0.613,1.131 0.77,1.099 0.849,0.989 0.882,0.943 0.891,0.881 0.919,0.803 1.161,0.73 1.427,0.655 1.689,0.567 1.947,0.48 2.201,0.379 2.457,0.262 2.422,0.255 2.388,0.244 2.353,0.242 2.06,0.227 1.777,0.16 1.497,0.08 1.475,0.074 1.443,0.083 1.422,0.096 1.384,0.118 1.349,0.147 1.316,0.176 1.254,0.233 1.194,0.24 1.141,0.176"
             style="fill:#fff;fill-opacity:1;fill-rule:nonzero;stroke:none"
             id="path5933"
             inkscape:connector-curvature="0" />
        </g>
        <g
           id="g5935"
           transform="translate(452.8586,263.2227)">
          <path
             d="M 0,0 C 0.014,0.26 0.027,0.449 0.035,0.638 0.045,0.893 0.054,1.148 0.059,1.403 0.06,1.471 0.045,1.541 0.042,1.61 0.025,1.936 0.009,2.263 -0.004,2.59 -0.013,2.794 -0.041,3.002 -0.015,3.202 0.017,3.447 -0.053,3.68 -0.045,3.921 -0.042,4.023 -0.09,4.127 -0.114,4.23 -0.123,4.27 -0.137,4.31 -0.138,4.35 -0.142,4.553 -0.239,4.719 -0.347,4.881 -0.37,4.915 -0.395,4.948 -0.417,4.983 -0.48,5.085 -0.468,5.142 -0.372,5.212 -0.23,5.316 -0.211,5.315 -0.095,5.168 -0.001,5.049 0.119,4.938 0.174,4.802 0.241,4.64 0.402,4.584 0.486,4.451 0.723,4.076 1.021,3.742 1.218,3.341 1.283,3.209 1.383,3.094 1.441,2.96 1.545,2.723 1.634,2.479 1.722,2.234 1.788,2.048 1.835,1.854 1.905,1.669 1.966,1.508 2.054,1.358 2.117,1.198 2.217,0.944 2.304,0.685 2.4,0.43 2.45,0.299 2.515,0.174 2.562,0.042 2.602,-0.069 2.627,-0.185 2.659,-0.299 2.679,-0.37 2.697,-0.441 2.722,-0.51 2.76,-0.613 2.815,-0.711 2.842,-0.816 2.884,-0.979 2.912,-1.146 2.936,-1.312 2.941,-1.345 2.909,-1.398 2.879,-1.417 2.802,-1.465 2.717,-1.499 2.635,-1.538 2.621,-1.545 2.6,-1.543 2.59,-1.552 2.463,-1.672 2.342,-1.612 2.209,-1.555 1.922,-1.43 1.627,-1.324 1.339,-1.2 1.085,-1.09 0.835,-0.969 0.587,-0.846 0.541,-0.824 0.517,-0.761 0.473,-0.729 0.444,-0.707 0.396,-0.69 0.362,-0.698 0.178,-0.735 0.085,-0.696 0.051,-0.514 0.014,-0.323 0.011,-0.126 0,0"
             style="fill:#fff;fill-opacity:1;fill-rule:nonzero;stroke:none"
             id="path5937"
             inkscape:connector-curvature="0" />
        </g>
        <g
           id="g5939"
           transform="translate(454.0023,261.0806)">
          <path
             d="m 0,0 c 0.099,-0.044 0.188,-0.082 0.275,-0.125 0.233,-0.113 0.467,-0.224 0.697,-0.344 0.128,-0.067 0.247,-0.149 0.37,-0.224 0.055,-0.034 0.119,-0.06 0.162,-0.106 0.054,-0.056 0.089,-0.13 0.137,-0.193 0.024,-0.03 0.059,-0.073 0.09,-0.074 0.167,-0.004 0.292,-0.101 0.424,-0.18 0.136,-0.082 0.268,-0.173 0.407,-0.25 0.212,-0.118 0.428,-0.229 0.644,-0.339 0.122,-0.062 0.245,-0.122 0.372,-0.174 0.282,-0.114 0.543,-0.255 0.777,-0.457 0.15,-0.129 0.341,-0.211 0.508,-0.323 0.151,-0.102 0.295,-0.214 0.439,-0.325 0.02,-0.015 0.039,-0.06 0.031,-0.075 C 5.261,-3.307 5.257,-3.452 5.144,-3.559 5.024,-3.672 5.041,-3.731 5.149,-3.859 5.181,-3.897 5.196,-3.93 5.16,-3.976 5.145,-3.996 5.141,-4.033 5.148,-4.057 5.18,-4.168 5.164,-4.271 5.109,-4.371 5.106,-4.376 5.102,-4.383 5.104,-4.389 5.142,-4.532 5.035,-4.63 4.987,-4.744 4.929,-4.88 4.824,-4.918 4.699,-4.789 4.563,-4.648 4.427,-4.508 4.292,-4.368 4.018,-4.084 3.743,-3.801 3.471,-3.516 3.29,-3.326 3.114,-3.132 2.936,-2.939 2.76,-2.747 2.587,-2.551 2.408,-2.362 c -0.203,0.215 -0.42,0.418 -0.616,0.639 -0.293,0.332 -0.67,0.561 -1,0.848 -0.27,0.235 -0.55,0.46 -0.822,0.693 -0.032,0.027 -0.058,0.077 -0.059,0.117 C -0.09,-0.045 -0.031,-0.022 0,0"
             style="fill:#fff;fill-opacity:1;fill-rule:nonzero;stroke:none"
             id="path5941"
             inkscape:connector-curvature="0" />
        </g>
        <g
           id="g5943"
           transform="translate(447.9848,258.0253)">
          <path
             d="M 0,0 C 0.072,0.086 0.125,0.567 0.073,0.617 0.014,0.541 -0.046,0.068 0,0 M 1.17,1.284 C 1.185,1.254 1.198,1.225 1.212,1.197 1.23,1.225 1.258,1.252 1.263,1.282 1.295,1.488 1.325,1.694 1.351,1.901 1.354,1.928 1.334,1.958 1.325,1.987 1.309,1.963 1.284,1.941 1.279,1.915 1.241,1.707 1.207,1.499 1.17,1.284 M 0.526,0.621 C 0.549,0.596 0.563,0.58 0.578,0.564 0.593,0.584 0.617,0.603 0.622,0.626 0.673,0.861 0.722,1.096 0.77,1.332 0.774,1.349 0.76,1.369 0.755,1.388 0.734,1.374 0.698,1.364 0.693,1.345 0.636,1.106 0.582,0.865 0.526,0.621 m 1.47,2.168 C 1.973,2.746 1.954,2.721 1.947,2.694 1.901,2.515 1.988,2.363 2.052,2.207 2.063,2.181 2.096,2.157 2.124,2.149 2.149,2.142 2.188,2.149 2.208,2.165 2.222,2.176 2.219,2.215 2.213,2.239 2.204,2.276 2.184,2.309 2.173,2.344 2.136,2.461 2.104,2.58 2.065,2.696 2.055,2.725 2.027,2.748 1.996,2.789 m -3.807,-4.556 c 0.018,0.147 0.035,0.294 0.054,0.44 0.004,0.032 0.015,0.064 0.012,0.094 -0.002,0.031 -0.018,0.061 -0.027,0.091 -0.021,-0.023 -0.049,-0.044 -0.061,-0.071 -0.074,-0.167 -0.098,-0.343 -0.099,-0.525 0,-0.155 -0.177,-0.488 -0.363,-0.534 -0.072,-0.018 -0.176,0.015 -0.226,0.084 -0.098,0.134 -0.101,0.279 0.005,0.407 0.072,0.086 0.16,0.157 0.239,0.236 0.168,0.164 0.336,0.329 0.502,0.495 0.083,0.083 0.164,0.169 0.244,0.255 0.03,0.032 0.062,0.065 0.082,0.103 0.064,0.127 0.195,0.184 0.287,0.281 0.142,0.151 0.279,0.308 0.424,0.458 0.081,0.084 0.176,0.156 0.262,0.237 0.091,0.086 0.18,0.176 0.267,0.266 0.272,0.281 0.546,0.559 0.813,0.844 0.237,0.253 0.464,0.516 0.701,0.77 0.093,0.099 0.2,0.184 0.296,0.28 C 1.623,2.466 1.624,2.507 1.635,2.54 1.599,2.536 1.563,2.536 1.528,2.528 1.505,2.522 1.486,2.5 1.463,2.494 1.342,2.463 1.218,2.44 1.099,2.402 1.036,2.382 0.98,2.336 0.922,2.301 0.868,2.268 0.815,2.233 0.761,2.2 L 0.733,2.223 c 0.013,0.039 0.022,0.081 0.04,0.118 0.055,0.117 0.1,0.243 0.178,0.344 0.05,0.065 0.15,0.09 0.228,0.134 0.026,0.015 0.05,0.033 0.076,0.048 C 1.277,2.88 1.299,2.895 1.323,2.9 1.383,2.911 1.443,2.917 1.502,2.928 1.543,2.935 1.583,2.945 1.639,2.957 1.601,2.865 1.502,2.797 1.621,2.707 1.682,2.789 1.736,2.863 1.792,2.935 1.871,3.038 1.971,3.103 2.1,3.134 2.18,3.154 2.253,3.204 2.333,3.229 2.533,3.294 2.681,3.435 2.841,3.571 3.003,3.394 3.204,3.31 3.473,3.323 3.309,3.129 3.12,3.003 2.941,2.834 2.892,3.002 2.851,3.153 2.802,3.302 2.788,3.345 2.749,3.379 2.721,3.417 2.718,3.372 2.703,3.325 2.712,3.283 2.748,3.126 2.795,2.971 2.83,2.814 2.837,2.781 2.822,2.731 2.799,2.705 2.7,2.594 2.593,2.491 2.492,2.382 2.345,2.224 2.204,2.058 2.052,1.905 1.891,1.743 1.718,1.594 1.552,1.437 1.399,1.291 1.25,1.142 1.097,0.996 0.832,0.742 0.566,0.49 0.3,0.238 0.078,0.026 -0.146,-0.184 -0.366,-0.397 -0.429,-0.458 -0.482,-0.53 -0.54,-0.596 c -0.014,0.007 -0.028,0.015 -0.042,0.022 0.037,0.162 0.074,0.323 0.112,0.485 0.014,0.061 0.036,0.122 0.045,0.184 0.004,0.024 -0.018,0.053 -0.029,0.08 -0.019,-0.018 -0.05,-0.031 -0.056,-0.052 -0.081,-0.256 -0.187,-0.505 -0.21,-0.777 -0.005,-0.062 -0.043,-0.132 -0.086,-0.179 -0.131,-0.137 -0.272,-0.265 -0.409,-0.395 -0.022,-0.021 -0.047,-0.038 -0.092,-0.045 0.014,0.108 0.025,0.216 0.043,0.324 0.018,0.109 0.044,0.217 0.061,0.326 0.005,0.025 -0.014,0.053 -0.022,0.08 -0.02,-0.02 -0.053,-0.038 -0.057,-0.062 -0.042,-0.243 -0.078,-0.487 -0.12,-0.73 -0.008,-0.044 -0.022,-0.094 -0.051,-0.125 -0.106,-0.111 -0.218,-0.216 -0.329,-0.323 -0.01,0.005 -0.02,0.011 -0.029,0.016"
             style="fill:#fff;fill-opacity:1;fill-rule:nonzero;stroke:none"
             id="path5945"
             inkscape:connector-curvature="0" />
        </g>
        <g
           id="g5947"
           transform="translate(448.4464,259.6475)">
          <path
             d="m 0,0 c -0.116,-0.106 -0.225,-0.213 -0.341,-0.312 -0.187,-0.161 -0.383,-0.311 -0.565,-0.476 -0.168,-0.153 -0.328,-0.316 -0.484,-0.483 -0.202,-0.216 -0.392,-0.445 -0.597,-0.659 -0.125,-0.132 -0.271,-0.243 -0.404,-0.368 -0.174,-0.163 -0.347,-0.328 -0.518,-0.494 -0.175,-0.171 -0.348,-0.345 -0.52,-0.519 -0.02,-0.02 -0.047,-0.054 -0.043,-0.077 0.014,-0.086 -0.038,-0.133 -0.09,-0.185 -0.093,-0.092 -0.184,-0.187 -0.29,-0.295 0.01,0.099 0.021,0.184 0.024,0.269 0.006,0.128 0,0.257 0.009,0.384 0.011,0.151 0.025,0.302 0.051,0.451 0.019,0.109 0.065,0.213 0.09,0.321 0.036,0.155 0.02,0.303 -0.087,0.432 -0.016,0.019 -0.024,0.068 -0.012,0.082 0.041,0.048 0.092,0.119 0.142,0.121 0.122,0.004 0.195,0.079 0.281,0.14 0.15,0.107 0.302,0.211 0.453,0.316 0.076,0.053 0.149,0.111 0.228,0.159 0.226,0.139 0.452,0.276 0.68,0.409 0.224,0.131 0.45,0.257 0.675,0.384 0.123,0.069 0.243,0.145 0.37,0.205 0.205,0.097 0.415,0.182 0.622,0.276 C -0.205,0.136 -0.107,0.107 0,0"
             style="fill:#fff;fill-opacity:1;fill-rule:nonzero;stroke:none"
             id="path5949"
             inkscape:connector-curvature="0" />
        </g>
        <g
           id="g5951"
           transform="translate(457.1343,259.9714)">
          <path
             d="M 0,0 C 0.152,0.038 0.293,0.079 0.436,0.11 0.696,0.164 0.955,0.224 1.218,0.258 1.323,0.271 1.439,0.229 1.545,0.195 1.69,0.149 1.829,0.086 1.971,0.032 2.123,-0.026 2.278,-0.077 2.428,-0.139 2.597,-0.209 2.765,-0.284 2.929,-0.367 2.976,-0.39 3.024,-0.44 3.04,-0.488 3.079,-0.606 3.142,-0.732 3.051,-0.852 3.005,-0.912 2.945,-0.964 2.884,-1.01 2.783,-1.087 2.673,-1.105 2.55,-1.052 c -0.143,0.062 -0.292,0.11 -0.441,0.185 0.027,0.009 0.054,0.021 0.082,0.026 0.165,0.028 0.331,0.054 0.496,0.082 0.027,0.005 0.061,0.008 0.079,0.025 0.024,0.023 0.035,0.06 0.052,0.091 -0.03,0.007 -0.063,0.026 -0.091,0.021 -0.231,-0.037 -0.463,-0.07 -0.69,-0.122 -0.18,-0.042 -0.342,-0.005 -0.504,0.062 -0.173,0.071 -0.346,0.14 -0.519,0.211 -0.029,0.012 -0.054,0.03 -0.105,0.059 0.053,0.016 0.083,0.03 0.114,0.034 0.342,0.039 0.685,0.076 1.028,0.114 0.044,0.005 0.091,0.007 0.129,0.026 0.032,0.016 0.053,0.054 0.078,0.083 -0.029,0.012 -0.06,0.037 -0.087,0.034 C 1.903,-0.146 1.635,-0.171 1.368,-0.205 1.171,-0.23 0.975,-0.27 0.778,-0.297 0.73,-0.304 0.675,-0.299 0.63,-0.282 0.431,-0.205 0.234,-0.122 0.036,-0.04 0.024,-0.035 0.017,-0.019 0,0"
             style="fill:#fff;fill-opacity:1;fill-rule:nonzero;stroke:none"
             id="path5953"
             inkscape:connector-curvature="0" />
        </g>
        <g
           id="g5955"
           transform="translate(446.9822,259.8387)">
          <path
             d="m 0,0 c -0.052,-0.085 -0.105,-0.169 -0.155,-0.255 -0.023,-0.04 -0.042,-0.084 -0.06,-0.128 -0.032,-0.071 -0.027,-0.08 0.069,-0.131 -0.159,-0.088 -0.307,-0.171 -0.456,-0.254 -0.063,-0.034 -0.126,-0.067 -0.189,-0.101 -0.283,-0.156 -0.566,-0.313 -0.85,-0.466 -0.233,-0.126 -0.467,-0.252 -0.704,-0.372 -0.123,-0.062 -0.254,-0.108 -0.379,-0.167 -0.074,-0.034 -0.127,0.003 -0.182,0.037 -0.027,0.016 -0.054,0.035 -0.074,0.058 -0.039,0.043 -0.111,0.058 -0.094,0.147 0.022,0.12 0.067,0.202 0.193,0.243 0.102,0.032 0.195,0.093 0.29,0.146 0.173,0.099 0.343,0.203 0.517,0.3 0.119,0.067 0.243,0.125 0.392,0.202 -0.068,-0.163 -0.126,-0.304 -0.186,-0.445 -0.022,-0.052 -0.053,-0.101 -0.07,-0.155 -0.007,-0.024 0.011,-0.055 0.018,-0.083 0.025,0.013 0.063,0.02 0.073,0.04 0.097,0.202 0.198,0.403 0.28,0.612 0.034,0.084 0.08,0.139 0.155,0.177 0.198,0.101 0.394,0.207 0.597,0.297 0.212,0.094 0.431,0.171 0.646,0.258 0.05,0.02 0.096,0.047 0.144,0.071 C -0.017,0.02 -0.008,0.01 0,0"
             style="fill:#fff;fill-opacity:1;fill-rule:nonzero;stroke:none"
             id="path5957"
             inkscape:connector-curvature="0" />
        </g>
        <g
           id="g5959"
           transform="translate(458.2216,260.3331)">
          <path
             d="m 0,0 c -0.134,-0.017 -0.242,-0.021 -0.345,-0.047 -0.297,-0.072 -0.604,-0.103 -0.891,-0.218 -0.054,-0.022 -0.138,0.016 -0.203,0.041 -0.216,0.081 -0.432,0.163 -0.643,0.254 -0.14,0.06 -0.269,0.143 -0.408,0.205 -0.22,0.097 -0.443,0.186 -0.684,0.286 0.066,0.025 0.119,0.051 0.174,0.064 0.141,0.033 0.282,0.059 0.423,0.087 0.05,0.009 0.101,0.009 0.15,0.02 0.07,0.014 0.138,0.037 0.208,0.049 0.053,0.01 0.114,0.024 0.162,0.008 0.189,-0.062 0.372,-0.14 0.56,-0.205 0.148,-0.051 0.3,-0.088 0.447,-0.139 C -0.835,0.332 -0.623,0.253 -0.411,0.173 -0.281,0.123 -0.154,0.065 0,0"
             style="fill:#fff;fill-opacity:1;fill-rule:nonzero;stroke:none"
             id="path5961"
             inkscape:connector-curvature="0" />
        </g>
        <g
           id="g5963"
           transform="translate(457.9548,256.4421)">
          <path
             d="M 0,0 C -0.197,0.045 -0.367,0.084 -0.537,0.123 -0.541,0.112 -0.546,0.101 -0.55,0.09 c 0.045,-0.085 0.122,-0.124 0.213,-0.154 0.194,-0.064 0.398,-0.113 0.575,-0.208 0.153,-0.082 0.284,-0.216 0.292,-0.414 0.005,-0.111 -0.183,-0.225 -0.284,-0.179 -0.219,0.1 -0.403,0.245 -0.573,0.417 -0.187,0.189 -0.4,0.354 -0.586,0.544 -0.174,0.178 -0.328,0.376 -0.491,0.565 l 0.012,0.026 C -1.329,0.672 -1.265,0.66 -1.203,0.642 -1.029,0.589 -0.854,0.543 -0.685,0.478 -0.524,0.417 -0.341,0.398 -0.22,0.252 -0.155,0.174 -0.086,0.099 0,0"
             style="fill:#fff;fill-opacity:1;fill-rule:nonzero;stroke:none"
             id="path5965"
             inkscape:connector-curvature="0" />
        </g>
        <g
           id="g5967"
           transform="translate(454.8038,258.8537)">
          <path
             d="M 0,0 C 0.218,-0.069 0.427,-0.133 0.634,-0.2 0.801,-0.253 0.968,-0.308 1.133,-0.366 1.171,-0.379 1.209,-0.401 1.238,-0.428 1.39,-0.577 1.539,-0.729 1.69,-0.88 1.783,-0.972 1.877,-1.063 1.97,-1.155 1.965,-1.165 1.961,-1.174 1.956,-1.184 c -0.123,0.041 -0.245,0.082 -0.367,0.122 -0.216,0.071 -0.436,0.133 -0.648,0.214 -0.105,0.04 -0.21,0.1 -0.292,0.177 -0.221,0.206 -0.43,0.425 -0.643,0.639 C 0.002,-0.029 0.003,-0.02 0,0"
             style="fill:#fff;fill-opacity:1;fill-rule:nonzero;stroke:none"
             id="path5969"
             inkscape:connector-curvature="0" />
        </g>
        <g
           id="g5971"
           transform="translate(447.975,260.3035)">
          <path
             d="m 0,0 c -0.015,0.003 -0.03,0.006 -0.046,0.009 -0.048,-0.1 -0.097,-0.201 -0.142,-0.302 -0.005,-0.012 0.009,-0.046 0.016,-0.046 0.019,-0.001 0.048,0.004 0.056,0.017 0.048,0.075 0.094,0.151 0.131,0.231 C 0.026,-0.068 0.006,-0.031 0,0 m -1.095,-0.939 c 0.099,0.206 0.186,0.399 0.285,0.585 0.021,0.04 0.083,0.061 0.13,0.085 0.158,0.079 0.316,0.16 0.478,0.231 C -0.039,0.034 0.13,0.091 0.294,0.16 0.409,0.207 0.519,0.264 0.632,0.315 0.692,0.342 0.754,0.367 0.824,0.396 0.768,0.282 0.714,0.181 0.667,0.076 0.641,0.02 0.634,-0.044 0.606,-0.098 0.586,-0.136 0.549,-0.176 0.51,-0.191 0.367,-0.248 0.215,-0.284 0.075,-0.348 -0.157,-0.452 -0.383,-0.571 -0.61,-0.686 -0.767,-0.766 -0.922,-0.849 -1.095,-0.939"
             style="fill:#fff;fill-opacity:1;fill-rule:nonzero;stroke:none"
             id="path5973"
             inkscape:connector-curvature="0" />
        </g>
        <g
           id="g5975"
           transform="translate(455.7778,258.7128)">
          <path
             d="M 0,0 C -0.187,0.058 -0.349,0.113 -0.514,0.157 -0.706,0.209 -0.89,0.305 -1.1,0.275 -1.123,0.271 -1.156,0.291 -1.173,0.31 -1.338,0.49 -1.537,0.641 -1.645,0.87 -1.665,0.914 -1.709,0.947 -1.762,1.008 -1.707,0.989 -1.678,0.98 -1.65,0.97 -1.403,0.884 -1.154,0.803 -0.91,0.709 -0.771,0.656 -0.63,0.609 -0.519,0.496 -0.358,0.33 -0.186,0.176 0,0"
             style="fill:#fff;fill-opacity:1;fill-rule:nonzero;stroke:none"
             id="path5977"
             inkscape:connector-curvature="0" />
        </g>
        <g
           id="g5979"
           transform="translate(454.0441,261.3167)">
          <path
             d="m 0,0 c 0.143,0.021 0.285,0.044 0.428,0.063 0.2,0.026 0.4,0.051 0.601,0.072 C 1.063,0.139 1.101,0.12 1.136,0.108 1.3,0.051 1.464,-0.007 1.628,-0.065 1.674,-0.081 1.718,-0.101 1.778,-0.125 1.657,-0.141 1.546,-0.148 1.439,-0.172 1.244,-0.214 1.042,-0.245 0.862,-0.324 0.753,-0.371 0.682,-0.336 0.602,-0.305 0.416,-0.233 0.234,-0.15 0.051,-0.07 0.03,-0.06 0.013,-0.04 -0.006,-0.025 -0.004,-0.017 -0.002,-0.008 0,0"
             style="fill:#fff;fill-opacity:1;fill-rule:nonzero;stroke:none"
             id="path5981"
             inkscape:connector-curvature="0" />
        </g>
        <g
           id="g5983"
           transform="translate(453.0395,260.5648)">
          <path
             d="M 0,0 C 0.686,-0.112 1.265,-0.402 1.712,-0.914 1.518,-0.849 1.313,-0.777 1.105,-0.711 1.025,-0.686 0.942,-0.666 0.858,-0.66 0.732,-0.651 0.641,-0.58 0.554,-0.503 0.371,-0.341 0.191,-0.174 0,0"
             style="fill:#fff;fill-opacity:1;fill-rule:nonzero;stroke:none"
             id="path5985"
             inkscape:connector-curvature="0" />
        </g>
        <g
           id="g5987"
           transform="translate(457.3325,257.0788)">
          <path
             d="m 0,0 c -0.136,0.041 -0.27,0.091 -0.408,0.121 -0.153,0.034 -0.298,0.118 -0.467,0.076 -0.039,-0.01 -0.102,0.04 -0.139,0.076 -0.13,0.125 -0.253,0.257 -0.38,0.384 -0.042,0.042 -0.091,0.077 -0.13,0.133 0.063,-0.018 0.126,-0.034 0.189,-0.054 0.24,-0.077 0.476,-0.171 0.72,-0.229 0.184,-0.044 0.293,-0.167 0.409,-0.292 0.03,-0.032 0.064,-0.06 0.097,-0.089 C -0.069,0.089 -0.028,0.053 0.012,0.017 0.008,0.011 0.004,0.005 0,0"
             style="fill:#fff;fill-opacity:1;fill-rule:nonzero;stroke:none"
             id="path5989"
             inkscape:connector-curvature="0" />
        </g>
      </g>
    </g>
  </g>
</svg>
