<?xml version="1.0" encoding="UTF-8" standalone="no"?>
<!-- Created with Inkscape (http://www.inkscape.org/) -->

<svg
   xmlns:dc="http://purl.org/dc/elements/1.1/"
   xmlns:cc="http://creativecommons.org/ns#"
   xmlns:rdf="http://www.w3.org/1999/02/22-rdf-syntax-ns#"
   xmlns:svg="http://www.w3.org/2000/svg"
   xmlns="http://www.w3.org/2000/svg"
   xmlns:sodipodi="http://sodipodi.sourceforge.net/DTD/sodipodi-0.dtd"
   xmlns:inkscape="http://www.inkscape.org/namespaces/inkscape"
   width="11.630978mm"
   height="12.881328mm"
   viewBox="0 0 11.630978 12.881328"
   version="1.1"
   id="svg8886"
   inkscape:version="0.92.5 (2060ec1f9f, 2020-04-08)"
   sodipodi:docname="allies-gloomspite-gitz.svg">
  <defs
     id="defs8880">
    <clipPath
       clipPathUnits="userSpaceOnUse"
       id="clipPath6025">
      <path
         d="m 475.712,244.791 h 32.97 v 36.515 h -32.97 z"
         id="path6023"
         inkscape:connector-curvature="0" />
    </clipPath>
  </defs>
  <sodipodi:namedview
     id="base"
     pagecolor="#ffffff"
     bordercolor="#666666"
     borderopacity="1.0"
     inkscape:pageopacity="0.0"
     inkscape:pageshadow="2"
     inkscape:zoom="0.35"
     inkscape:cx="-1032.3059"
     inkscape:cy="390.05697"
     inkscape:document-units="mm"
     inkscape:current-layer="layer1"
     showgrid="false"
     fit-margin-top="0"
     fit-margin-left="0"
     fit-margin-right="0"
     fit-margin-bottom="0"
     inkscape:window-width="1920"
     inkscape:window-height="1017"
     inkscape:window-x="-8"
     inkscape:window-y="-8"
     inkscape:window-maximized="1" />
  <metadata
     id="metadata8883">
    <rdf:RDF>
      <cc:Work
         rdf:about="">
        <dc:format>image/svg+xml</dc:format>
        <dc:type
           rdf:resource="http://purl.org/dc/dcmitype/StillImage" />
        <dc:title></dc:title>
      </cc:Work>
    </rdf:RDF>
  </metadata>
  <g
     inkscape:label="Layer 1"
     inkscape:groupmode="layer"
     id="layer1"
     transform="translate(-378.96427,-239.15458)">
    <g
       transform="matrix(0.35277777,0,0,-0.35277777,211.14365,338.39287)"
       id="g6019">
      <g
         id="g6021"
         clip-path="url(#clipPath6025)">
        <g
           id="g6027"
           transform="translate(481.5407,267.8724)">
          <path
             d="m 0,0 c -0.02,-0.097 -0.02,-0.194 -0.06,-0.27 -0.169,-0.31 -0.238,-0.654 -0.352,-0.983 -0.06,-0.173 -0.076,-0.361 -0.114,-0.542 -0.02,-0.098 -0.041,-0.196 -0.064,-0.293 -0.043,-0.179 -0.104,-0.356 -0.126,-0.538 -0.022,-0.171 -0.004,-0.348 -0.003,-0.522 0.005,-0.428 0.011,-0.855 0.014,-1.282 0.003,-0.387 0.005,-0.775 0.005,-1.162 0.001,-0.275 0.017,-0.551 -0.006,-0.824 -0.025,-0.284 0.129,-0.533 0.123,-0.809 -0.001,-0.005 0.006,-0.01 0.007,-0.015 0.027,-0.107 0.054,-0.215 0.081,-0.323 0.012,-0.048 0.019,-0.099 0.039,-0.145 0.036,-0.088 0.1,-0.17 0.117,-0.261 0.041,-0.218 0.103,-0.432 0.155,-0.648 0.033,-0.135 0.054,-0.279 0.116,-0.401 0.068,-0.133 0.059,-0.27 0.086,-0.406 0.027,-0.133 0.121,-0.25 0.106,-0.401 -0.006,-0.057 0.013,-0.123 0.038,-0.176 0.104,-0.218 0.204,-0.437 0.227,-0.682 0.004,-0.038 0.016,-0.079 0.035,-0.112 0.131,-0.228 0.212,-0.485 0.399,-0.682 0.077,-0.081 0.134,-0.18 0.209,-0.264 0.189,-0.214 0.382,-0.425 0.575,-0.635 0.12,-0.132 0.284,-0.224 0.365,-0.393 0.014,-0.029 0.04,-0.056 0.066,-0.076 0.161,-0.122 0.323,-0.243 0.486,-0.364 0.044,-0.034 0.094,-0.062 0.135,-0.1 0.129,-0.123 0.253,-0.253 0.383,-0.375 0.09,-0.084 0.188,-0.16 0.282,-0.24 0.192,-0.163 0.376,-0.339 0.623,-0.423 0.063,-0.021 0.123,-0.058 0.176,-0.098 0.113,-0.084 0.216,-0.181 0.331,-0.26 0.106,-0.073 0.215,-0.154 0.336,-0.19 0.345,-0.102 0.632,-0.284 0.873,-0.547 0.022,-0.024 0.051,-0.049 0.081,-0.058 0.359,-0.102 0.681,-0.325 1.071,-0.326 0.054,0 0.107,-0.033 0.161,-0.05 0.257,-0.084 0.518,-0.144 0.793,-0.12 0.134,0.011 0.27,0.006 0.404,0 0.048,-0.002 0.098,-0.021 0.142,-0.043 0.189,-0.1 0.388,-0.173 0.603,-0.179 0.254,-0.009 0.507,-0.005 0.761,-0.006 0.14,0 0.277,-0.002 0.414,-0.057 0.091,-0.036 0.199,-0.04 0.299,-0.04 0.541,-0.004 1.082,-0.004 1.623,0 0.088,0.001 0.179,0.017 0.264,0.043 0.14,0.042 0.276,0.095 0.413,0.147 0.255,0.098 0.515,0.145 0.791,0.112 0.115,-0.013 0.236,0.003 0.352,0.023 0.248,0.043 0.496,0.09 0.742,0.148 0.135,0.032 0.278,0.067 0.392,0.14 0.212,0.135 0.402,0.306 0.655,0.369 0.046,0.012 0.087,0.052 0.122,0.087 0.086,0.086 0.185,0.143 0.3,0.181 0.085,0.027 0.166,0.07 0.243,0.114 0.268,0.152 0.507,0.35 0.795,0.469 0.1,0.042 0.191,0.096 0.305,0.067 0.024,-0.006 0.059,0 0.079,0.015 0.113,0.083 0.225,0.167 0.332,0.258 0.106,0.091 0.201,0.196 0.31,0.284 0.192,0.156 0.4,0.292 0.583,0.457 0.245,0.221 0.474,0.462 0.707,0.697 0.075,0.075 0.14,0.16 0.211,0.24 0.196,0.222 0.431,0.415 0.523,0.713 0.011,0.037 0.038,0.069 0.06,0.102 0.137,0.193 0.261,0.392 0.317,0.628 0.013,0.058 0.044,0.119 0.083,0.164 0.196,0.222 0.312,0.492 0.448,0.75 0.049,0.094 0.082,0.196 0.122,0.295 0.091,0.217 0.181,0.435 0.274,0.652 0.038,0.087 0.077,0.173 0.124,0.256 0.089,0.157 0.168,0.314 0.18,0.503 0.007,0.102 0.049,0.207 0.094,0.302 0.085,0.179 0.168,0.362 0.183,0.558 0.029,0.37 0.209,0.712 0.188,1.09 -0.002,0.026 0.016,0.053 0.022,0.081 0.037,0.158 0.079,0.316 0.105,0.476 0.024,0.144 0.014,0.294 0.048,0.434 0.063,0.26 0.09,0.519 0.079,0.785 -0.004,0.104 0.018,0.215 0.055,0.312 0.037,0.098 0.061,0.19 0.048,0.295 -0.008,0.06 0.001,0.123 -0.001,0.185 -0.005,0.14 0.003,0.283 -0.022,0.419 -0.054,0.287 -0.126,0.57 -0.193,0.853 -0.03,0.126 -0.064,0.25 -0.1,0.374 -0.073,0.253 -0.152,0.505 -0.222,0.759 -0.071,0.254 -0.126,0.513 -0.206,0.764 -0.044,0.137 -0.073,0.269 -0.064,0.413 0.004,0.06 -0.001,0.125 -0.018,0.183 -0.066,0.22 -0.137,0.439 -0.207,0.658 -0.038,0.117 -0.073,0.236 -0.115,0.351 -0.092,0.248 -0.179,0.498 -0.285,0.739 -0.088,0.2 -0.192,0.395 -0.303,0.583 -0.106,0.179 -0.229,0.347 -0.345,0.52 -0.05,0.074 -0.093,0.157 -0.155,0.22 C 20.123,3.153 19.9,3.343 19.814,3.638 19.811,3.648 19.802,3.656 19.796,3.666 19.667,3.897 19.431,4.031 19.277,4.24 19.268,4.252 19.25,4.262 19.234,4.266 19.061,4.305 18.934,4.409 18.828,4.548 18.795,4.592 18.743,4.621 18.7,4.657 18.522,4.804 18.338,4.943 18.168,5.099 17.824,5.416 17.487,5.74 17.15,6.064 17.012,6.196 16.851,6.28 16.671,6.338 16.609,6.359 16.547,6.391 16.498,6.433 16.367,6.545 16.226,6.605 16.05,6.591 15.982,6.586 15.908,6.611 15.843,6.639 15.75,6.678 15.668,6.742 15.575,6.777 15.426,6.832 15.286,6.893 15.174,7.012 15.072,7.12 14.954,7.203 14.79,7.196 14.739,7.194 14.684,7.224 14.634,7.247 14.46,7.329 14.289,7.4 14.087,7.391 13.834,7.38 13.58,7.395 13.327,7.402 13.26,7.404 13.194,7.419 13.129,7.434 13.058,7.45 12.986,7.466 12.92,7.493 12.75,7.564 12.559,7.576 12.403,7.685 12.289,7.765 12.161,7.797 12.019,7.79 11.868,7.782 11.715,7.785 11.563,7.787 11.466,7.788 11.377,7.775 11.289,7.724 11.234,7.693 11.16,7.686 11.094,7.685 10.734,7.681 10.373,7.681 10.013,7.682 9.74,7.683 9.496,7.555 9.231,7.521 9.215,7.519 9.201,7.507 9.185,7.499 8.916,7.372 8.647,7.246 8.378,7.117 8.338,7.098 8.304,7.066 8.264,7.046 8.186,7.006 8.107,6.965 8.025,6.932 7.817,6.85 7.595,6.793 7.4,6.686 7.118,6.532 6.819,6.422 6.526,6.296 6.263,6.183 5.994,6.079 5.749,5.936 5.476,5.776 5.2,5.632 4.892,5.559 4.811,5.539 4.753,5.502 4.694,5.445 4.573,5.328 4.449,5.21 4.31,5.118 4.172,5.026 4.034,4.924 3.862,4.89 3.821,4.882 3.783,4.848 3.749,4.819 3.667,4.751 3.591,4.675 3.508,4.608 3.383,4.505 3.254,4.406 3.126,4.307 2.905,4.135 2.666,3.989 2.48,3.771 2.361,3.632 2.245,3.483 2.072,3.397 1.998,3.361 1.941,3.291 1.875,3.239 1.718,3.115 1.6,2.94 1.401,2.867 1.374,2.858 1.352,2.823 1.337,2.794 1.202,2.523 1.079,2.244 0.932,1.979 0.634,1.439 0.416,0.869 0.25,0.277 0.211,0.139 0.146,0.029 0,0 m 11.044,-23.081 c -0.085,0.165 -0.184,0.312 -0.175,0.494 0.005,0.084 0.002,0.169 0.002,0.253 0,0.028 0.01,0.062 -0.002,0.084 -0.09,0.157 -0.076,0.343 -0.144,0.506 -0.01,0.026 -0.024,0.052 -0.028,0.079 -0.039,0.244 -0.152,0.47 -0.196,0.708 -0.044,0.235 -0.158,0.455 -0.149,0.704 0.004,0.096 -0.049,0.194 -0.077,0.292 -0.058,0.204 -0.125,0.407 -0.171,0.614 -0.051,0.224 -0.073,0.455 -0.124,0.679 -0.066,0.29 -0.149,0.576 -0.225,0.864 -0.019,0.074 -0.07,0.09 -0.14,0.091 -0.366,0.002 -0.731,0.007 -1.097,0.015 -0.067,0.001 -0.143,0 -0.198,0.031 -0.167,0.093 -0.349,0.068 -0.526,0.091 -0.087,0.011 -0.179,0.027 -0.257,0.065 -0.193,0.093 -0.393,0.138 -0.605,0.128 -0.283,-0.012 -0.539,0.059 -0.785,0.207 -0.269,0.161 -0.556,0.294 -0.834,0.44 -0.045,0.023 -0.09,0.047 -0.132,0.075 -0.149,0.098 -0.293,0.206 -0.447,0.294 -0.106,0.061 -0.23,0.089 -0.339,0.145 -0.174,0.09 -0.356,0.174 -0.458,0.357 -0.008,0.015 -0.02,0.032 -0.034,0.037 -0.17,0.057 -0.261,0.209 -0.383,0.323 -0.02,0.019 -0.039,0.043 -0.064,0.054 -0.388,0.184 -0.667,0.511 -0.996,0.772 -0.145,0.114 -0.273,0.249 -0.414,0.368 -0.086,0.072 -0.182,0.133 -0.275,0.195 -0.021,0.014 -0.059,0.029 -0.077,0.019 -0.101,-0.049 -0.221,-0.085 -0.291,-0.163 -0.137,-0.152 -0.319,-0.23 -0.475,-0.347 -0.167,-0.124 -0.342,-0.236 -0.513,-0.353 -0.084,-0.056 -0.164,-0.122 -0.277,-0.098 -0.026,0.005 -0.062,0.003 -0.081,-0.011 -0.119,-0.09 -0.236,-0.184 -0.352,-0.277 -0.201,-0.162 -0.399,-0.327 -0.603,-0.485 -0.037,-0.028 -0.096,-0.037 -0.145,-0.038 -0.145,-0.006 -0.242,0.139 -0.175,0.268 0.039,0.075 0.09,0.137 0.061,0.233 -0.008,0.028 0.031,0.086 0.063,0.106 0.169,0.104 0.248,0.279 0.329,0.441 0.124,0.249 0.286,0.47 0.459,0.683 0.127,0.157 0.267,0.304 0.401,0.456 0.018,0.021 0.043,0.044 0.046,0.068 0.04,0.292 0.25,0.512 0.319,0.818 -0.022,0.033 -0.059,0.089 -0.098,0.143 -0.189,0.258 -0.379,0.516 -0.568,0.776 -0.022,0.031 -0.034,0.07 -0.051,0.105 -0.12,0.235 -0.251,0.459 -0.44,0.65 -0.093,0.093 -0.156,0.219 -0.224,0.335 -0.057,0.096 -0.105,0.198 -0.151,0.301 -0.028,0.061 -0.06,0.127 -0.06,0.19 0,0.106 -0.026,0.2 -0.08,0.287 -0.119,0.191 -0.127,0.403 -0.129,0.619 0,0.065 -0.017,0.131 -0.03,0.196 -0.01,0.055 -0.022,0.11 -0.036,0.164 -0.069,0.254 -0.139,0.508 -0.21,0.762 -0.011,0.037 -0.044,0.071 -0.046,0.108 -0.017,0.246 -0.141,0.472 -0.134,0.723 10e-4,0.033 0.003,0.073 -0.014,0.098 -0.075,0.109 -0.073,0.232 -0.078,0.356 -0.004,0.111 0.008,0.225 -0.056,0.327 -0.009,0.013 -0.008,0.033 -0.008,0.049 -0.003,0.27 -0.049,0.535 -0.1,0.799 -0.007,0.033 0.005,0.077 -0.013,0.098 -0.103,0.12 -0.079,0.265 -0.085,0.403 -0.004,0.079 0.007,0.16 -0.007,0.236 -0.014,0.082 -0.05,0.16 -0.08,0.249 -0.156,0.005 -0.293,0.058 -0.403,0.173 -0.018,0.019 -0.049,0.029 -0.076,0.035 -0.19,0.04 -0.383,0.072 -0.572,0.119 -0.113,0.029 -0.217,0.089 -0.329,0.121 -0.204,0.06 -0.411,0.11 -0.617,0.164 -0.054,0.014 -0.108,0.026 -0.163,0.038 -0.416,0.088 -0.827,0.208 -1.26,0.163 -0.054,-0.006 -0.108,-10e-4 -0.171,-10e-4 0.002,0.119 0.07,0.176 0.147,0.223 0.099,0.062 0.21,0.079 0.325,0.072 0.126,-0.006 0.243,0.016 0.362,0.061 0.087,0.033 0.187,0.034 0.282,0.039 0.107,0.007 0.214,0.001 0.321,0.002 0.039,10e-4 0.08,-0.002 0.117,0.009 0.176,0.052 0.348,0.122 0.527,0.16 0.205,0.043 0.394,0.127 0.586,0.201 0.103,0.039 0.176,0.133 0.298,0.144 0.115,0.01 0.231,0.038 0.343,0.071 0.117,0.035 0.239,0.069 0.341,0.132 0.101,0.061 0.194,0.081 0.305,0.035 0.084,0.149 0.151,0.292 0.136,0.465 -0.01,0.112 0.007,0.225 0.002,0.338 -0.005,0.128 0.014,0.247 0.089,0.353 0.006,0.009 0.012,0.02 0.014,0.03 0.043,0.185 0.085,0.37 0.127,0.554 0.012,0.049 0.021,0.1 0.04,0.146 0.084,0.208 0.174,0.413 0.257,0.622 0.103,0.259 0.162,0.532 0.223,0.804 0.007,0.032 0.014,0.068 0.032,0.096 0.186,0.303 0.237,0.665 0.423,0.969 0.067,0.11 0.097,0.24 0.154,0.356 0.125,0.257 0.255,0.513 0.387,0.767 C 0.065,2.747 0.118,2.855 0.224,2.933 0.268,2.965 0.287,3.052 0.29,3.115 0.296,3.283 0.264,3.456 0.288,3.621 0.32,3.843 0.194,3.982 0.088,4.147 -0.104,4.444 -0.285,4.75 -0.45,5.064 -0.626,5.399 -0.803,5.73 -1.069,6.005 -1.124,6.061 -1.168,6.128 -1.211,6.194 -1.446,6.552 -1.697,6.897 -1.975,7.223 -2.084,7.351 -2.166,7.501 -2.258,7.642 -2.431,7.905 -2.603,8.169 -2.773,8.434 -2.805,8.484 -2.824,8.544 -2.855,8.613 -2.701,8.618 -2.578,8.628 -2.45,8.527 -2.274,8.389 -2.069,8.29 -1.878,8.17 -1.803,8.122 -1.727,8.072 -1.664,8.009 -1.455,7.804 -1.259,7.586 -1.002,7.436 -0.949,7.405 -0.912,7.35 -0.863,7.313 -0.791,7.259 -0.721,7.194 -0.639,7.167 -0.483,7.114 -0.372,7.01 -0.254,6.904 -0.125,6.788 0.026,6.697 0.165,6.593 0.332,6.468 0.504,6.351 0.659,6.213 0.939,5.961 1.259,5.785 1.615,5.665 1.698,5.637 1.773,5.582 1.846,5.53 2.032,5.4 2.216,5.468 2.268,5.691 2.305,5.851 2.409,5.93 2.574,5.922 2.729,5.915 2.858,5.984 2.981,6.065 c 0.26,0.168 0.518,0.339 0.777,0.508 0.089,0.059 0.179,0.117 0.271,0.172 0.124,0.073 0.25,0.133 0.394,0.174 0.305,0.087 0.603,0.205 0.884,0.363 0.284,0.159 0.579,0.295 0.889,0.4 0.205,0.07 0.393,0.19 0.591,0.28 0.199,0.09 0.4,0.177 0.605,0.254 C 7.659,8.317 7.93,8.402 8.186,8.536 8.377,8.637 8.593,8.691 8.799,8.761 8.9,8.796 9.004,8.82 9.106,8.851 9.327,8.916 9.547,8.983 9.767,9.047 9.866,9.075 9.921,9.132 9.918,9.24 9.917,9.285 9.92,9.334 9.939,9.373 c 0.088,0.174 0.087,0.36 0.077,0.546 -0.013,0.243 0.087,0.462 0.134,0.693 0.088,0.43 0.178,0.859 0.264,1.289 0.013,0.066 0.007,0.135 0.013,0.202 0.005,0.062 -0.006,0.135 0.023,0.182 0.104,0.167 0.068,0.348 0.077,0.525 0.005,0.101 -0.002,0.2 0.068,0.289 0.027,0.034 0.015,0.097 0.026,0.145 0.013,0.057 0.031,0.112 0.053,0.189 0.096,-0.083 0.099,-0.177 0.121,-0.258 0.07,-0.249 0.136,-0.499 0.194,-0.75 0.034,-0.148 0.052,-0.299 0.074,-0.449 0.022,-0.149 0.035,-0.301 0.064,-0.449 0.015,-0.075 0.045,-0.154 0.089,-0.215 0.126,-0.174 0.169,-0.362 0.136,-0.57 -0.012,-0.08 -0.003,-0.147 0.032,-0.225 0.04,-0.089 0.044,-0.195 0.052,-0.295 0.008,-0.095 0.013,-0.183 0.061,-0.275 0.041,-0.079 0.042,-0.184 0.044,-0.279 0.004,-0.168 -0.01,-0.339 0.146,-0.504 0.085,0 0.206,0.005 0.327,-0.002 0.083,-0.005 0.171,-0.012 0.247,-0.042 0.143,-0.059 0.291,-0.073 0.442,-0.091 0.2,-0.023 0.396,-0.076 0.593,-0.116 0.088,-0.018 0.175,-0.047 0.263,-0.052 0.163,-0.007 0.328,0.015 0.489,-0.002 C 14.314,8.83 14.582,8.818 14.831,8.685 14.988,8.6 15.146,8.52 15.3,8.425 c 0.174,-0.107 0.378,-0.167 0.565,-0.257 0.105,-0.05 0.206,-0.112 0.301,-0.18 0.173,-0.124 0.329,-0.263 0.552,-0.309 0.156,-0.033 0.305,-0.112 0.451,-0.182 0.213,-0.1 0.423,-0.208 0.631,-0.319 0.064,-0.033 0.12,-0.083 0.175,-0.13 0.146,-0.123 0.281,-0.26 0.436,-0.371 0.116,-0.084 0.256,-0.136 0.384,-0.203 0.084,-0.044 0.177,-0.078 0.249,-0.137 0.226,-0.184 0.443,-0.379 0.665,-0.569 0.034,-0.029 0.075,-0.05 0.134,-0.089 0.092,0.052 0.195,0.103 0.292,0.166 0.141,0.092 0.27,0.208 0.418,0.285 0.179,0.091 0.366,0.165 0.541,0.265 0.067,0.039 0.143,0.025 0.207,-0.024 C 21.368,6.319 21.386,6.253 21.344,6.178 21.203,5.923 21.061,5.668 20.915,5.415 20.854,5.309 20.783,5.208 20.718,5.104 20.641,4.983 20.627,4.849 20.665,4.715 20.737,4.458 20.862,4.223 21.021,4.011 21.216,3.751 21.431,3.504 21.631,3.246 21.706,3.15 21.773,3.044 21.827,2.934 21.931,2.723 22.103,2.565 22.245,2.385 22.412,2.173 22.534,1.947 22.576,1.679 22.581,1.64 22.598,1.603 22.61,1.566 22.709,1.274 22.806,0.981 22.907,0.69 c 0.088,-0.255 0.181,-0.508 0.271,-0.762 0.054,-0.153 0.129,-0.304 0.15,-0.463 0.025,-0.185 0.116,-0.338 0.177,-0.506 0.059,-0.163 0.112,-0.329 0.162,-0.495 0.057,-0.188 0.101,-0.38 0.162,-0.567 0.064,-0.197 0.144,-0.388 0.167,-0.598 0.024,-0.22 0.135,-0.319 0.354,-0.315 0.158,0.002 0.293,-0.069 0.407,-0.145 0.2,-0.134 0.404,-0.174 0.634,-0.155 0.107,0.01 0.214,0.007 0.321,0.002 0.049,-0.002 0.112,-0.006 0.143,-0.035 0.076,-0.074 0.165,-0.072 0.253,-0.062 0.212,0.027 0.413,-0.042 0.615,-0.08 0.134,-0.025 0.257,-0.112 0.418,-0.187 -0.159,-0.054 -0.293,-0.091 -0.42,-0.145 C 26.577,-3.884 26.434,-3.952 26.298,-4.031 26.025,-4.189 25.76,-4.359 25.487,-4.516 25.411,-4.56 25.321,-4.593 25.233,-4.603 24.997,-4.632 24.798,-4.748 24.594,-4.855 24.534,-4.886 24.477,-4.923 24.415,-4.95 24.277,-5.011 24.167,-5.093 24.12,-5.248 24.101,-5.31 24.052,-5.363 24.018,-5.42 c -0.05,-0.088 -0.131,-0.172 -0.143,-0.265 -0.031,-0.244 -0.103,-0.48 -0.12,-0.726 -0.011,-0.149 -0.063,-0.295 -0.102,-0.44 -0.084,-0.309 -0.2,-0.608 -0.247,-0.928 -0.022,-0.147 -0.091,-0.287 -0.137,-0.432 -0.064,-0.203 -0.144,-0.404 -0.185,-0.612 -0.037,-0.185 -0.111,-0.352 -0.179,-0.524 -0.017,-0.042 -0.042,-0.083 -0.048,-0.126 -0.055,-0.396 -0.265,-0.736 -0.396,-1.104 -0.104,-0.293 -0.247,-0.566 -0.412,-0.828 -0.003,-0.005 -0.006,-0.01 -0.007,-0.015 -0.068,-0.275 -0.262,-0.481 -0.396,-0.719 -0.017,-0.03 -0.033,-0.063 -0.059,-0.082 -0.154,-0.109 -0.213,-0.287 -0.318,-0.431 -0.057,-0.079 -0.066,-0.164 -0.018,-0.254 0.043,-0.08 0.078,-0.163 0.117,-0.244 0.114,-0.238 0.227,-0.477 0.342,-0.714 0.024,-0.049 0.061,-0.092 0.091,-0.139 0.043,-0.07 0.086,-0.14 0.132,-0.216 -0.058,-0.039 -0.1,-0.066 -0.14,-0.095 -0.099,-0.07 -0.194,-0.085 -0.313,-0.03 -0.24,0.109 -0.487,0.203 -0.734,0.296 -0.071,0.027 -0.151,0.036 -0.228,0.045 -0.159,0.018 -0.325,-0.036 -0.48,0.047 -0.021,0.012 -0.093,-0.024 -0.105,-0.053 -0.054,-0.13 -0.159,-0.197 -0.269,-0.269 -0.069,-0.045 -0.136,-0.108 -0.178,-0.178 -0.14,-0.237 -0.361,-0.344 -0.61,-0.415 -0.154,-0.044 -0.298,-0.099 -0.404,-0.23 -0.034,-0.041 -0.092,-0.063 -0.138,-0.095 -0.068,-0.048 -0.136,-0.097 -0.203,-0.148 -0.026,-0.02 -0.045,-0.053 -0.073,-0.068 -0.227,-0.121 -0.384,-0.329 -0.593,-0.471 -0.143,-0.097 -0.29,-0.189 -0.437,-0.28 -0.119,-0.074 -0.236,-0.151 -0.361,-0.212 -0.084,-0.041 -0.181,-0.054 -0.27,-0.086 -0.126,-0.046 -0.249,-0.1 -0.375,-0.147 -0.336,-0.124 -0.642,-0.318 -0.995,-0.408 -0.304,-0.077 -0.596,-0.198 -0.896,-0.289 -0.128,-0.039 -0.262,-0.069 -0.395,-0.075 -0.116,-0.004 -0.228,-0.011 -0.323,-0.074 -0.202,-0.132 -0.426,-0.127 -0.651,-0.131 -0.169,-0.003 -0.336,-0.011 -0.475,-0.134 -0.058,-0.052 -0.099,-0.103 -0.097,-0.185 0.001,-0.043 -0.011,-0.088 -0.023,-0.13 -0.059,-0.199 -0.12,-0.397 -0.182,-0.595 -0.01,-0.032 -0.018,-0.071 -0.041,-0.09 -0.102,-0.087 -0.101,-0.206 -0.114,-0.324 -0.015,-0.139 -0.039,-0.277 -0.06,-0.415 -0.007,-0.045 -0.02,-0.088 -0.022,-0.133 -0.029,-0.48 -0.135,-0.946 -0.257,-1.409 -0.024,-0.092 -0.028,-0.189 -0.05,-0.282 -0.043,-0.18 -0.095,-0.358 -0.138,-0.538 -0.027,-0.109 -0.046,-0.219 -0.067,-0.329 -0.013,-0.072 -0.022,-0.145 -0.034,-0.217 -0.024,-0.144 -0.043,-0.288 -0.073,-0.43 -0.021,-0.097 -0.056,-0.19 -0.085,-0.285"
             style="fill:#fff;fill-opacity:1;fill-rule:nonzero;stroke:none"
             id="path6029"
             inkscape:connector-curvature="0" />
        </g>
        <g
           id="g6031"
           transform="translate(489.9343,269.4469)">
          <path
             d="M 0,0 C 0.064,-0.039 0.096,-0.064 0.133,-0.075 0.141,-0.078 0.182,-0.027 0.177,-0.007 0.17,0.025 0.142,0.068 0.115,0.075 0.092,0.08 0.058,0.04 0,0 m -0.751,-11.502 c 0.011,0.12 -0.066,0.116 -0.121,0.121 -0.019,0.002 -0.059,-0.034 -0.061,-0.055 -0.005,-0.067 0.025,-0.116 0.103,-0.105 0.028,0.005 0.053,0.025 0.079,0.039 m 2.03,2.902 c 0.031,0.021 0.075,0.04 0.105,0.072 0.209,0.22 0.415,0.442 0.691,0.584 0.074,0.039 0.143,0.092 0.205,0.149 0.045,0.041 0.05,0.106 -0.01,0.14 -0.054,0.03 -0.118,0.05 -0.18,0.057 C 1.87,-7.574 1.658,-7.595 1.467,-7.725 1.338,-7.812 1.197,-7.883 1.074,-7.977 0.994,-8.038 0.877,-8.094 0.891,-8.219 0.9,-8.291 0.944,-8.366 0.99,-8.424 1.058,-8.51 1.15,-8.57 1.279,-8.6 m -1.776,4.12 c -0.007,-0.014 -0.014,-0.027 -0.021,-0.04 0.108,-0.096 0.124,-0.219 0.116,-0.35 -0.002,-0.02 0,-0.042 0.007,-0.061 0.067,-0.166 0.121,-0.34 0.209,-0.495 0.059,-0.104 0.106,-0.241 0.266,-0.257 0.081,-0.009 0.161,-0.04 0.24,-0.064 0.09,-0.026 0.177,-0.067 0.268,-0.08 0.05,-0.007 0.106,0.034 0.161,0.046 0.101,0.021 0.129,0.071 0.077,0.159 -0.118,0.204 -0.231,0.412 -0.361,0.608 -0.151,0.226 -0.373,0.373 -0.621,0.478 -0.04,0.016 -0.087,0.014 -0.131,0.021 -0.07,0.011 -0.14,0.023 -0.21,0.035 m -0.098,-6.076 c -0.098,0 -0.167,0 -0.236,0 -0.073,0 -0.09,-0.047 -0.075,-0.105 0.009,-0.034 0.033,-0.068 0.057,-0.096 0.152,-0.172 0.306,-0.342 0.458,-0.514 0.096,-0.11 0.095,-0.16 0.008,-0.273 -0.011,-0.016 -0.011,-0.041 -0.023,-0.056 -0.026,-0.033 -0.055,-0.088 -0.087,-0.091 -0.088,-0.008 -0.178,0.004 -0.267,0.01 -0.06,0.005 -0.121,0.021 -0.181,0.018 -0.113,-0.005 -0.225,-0.027 -0.338,-0.031 -0.083,-0.004 -0.142,-0.031 -0.16,-0.114 -0.023,-0.106 0.011,-0.166 0.107,-0.202 0.197,-0.074 0.341,-0.212 0.456,-0.383 0.01,-0.014 0.009,-0.041 0.003,-0.058 -0.015,-0.05 -0.029,-0.102 -0.054,-0.148 -0.083,-0.158 -0.059,-0.312 0.012,-0.465 0.035,-0.076 0.246,-0.137 0.28,-0.073 0.033,0.061 0.046,0.169 0.013,0.223 -0.076,0.125 -0.037,0.221 0.029,0.322 0.044,0.067 0.104,0.126 0.137,0.197 0.066,0.143 0.118,0.292 0.247,0.396 0.021,0.016 0.031,0.045 0.047,0.067 0.078,0.107 0.156,0.213 0.235,0.318 0.014,0.02 0.031,0.036 0.044,0.056 0.088,0.135 0.166,0.277 0.265,0.403 0.086,0.11 0.201,0.198 0.294,0.303 0.142,0.162 0.31,0.291 0.518,0.341 0.167,0.04 0.335,0.072 0.483,0.164 0.072,0.045 0.174,0.085 0.198,0.152 0.036,0.097 0.022,0.213 -0.057,0.311 -0.074,0.092 -0.14,0.192 -0.19,0.298 -0.086,0.185 -0.215,0.333 -0.372,0.454 -0.041,0.031 -0.117,0.023 -0.175,0.019 -0.009,0 -0.024,-0.079 -0.017,-0.118 0.044,-0.252 0.094,-0.502 0.138,-0.753 0.006,-0.036 -0.006,-0.075 -0.01,-0.112 -0.032,0.024 -0.078,0.041 -0.094,0.073 -0.097,0.192 -0.176,0.394 -0.282,0.581 -0.078,0.138 -0.157,0.286 -0.321,0.351 -0.068,0.027 -0.138,0.057 -0.196,0.1 -0.182,0.137 -0.343,0.298 -0.56,0.386 -0.214,0.087 -0.42,0.191 -0.629,0.288 -0.177,0.082 -0.363,0.109 -0.556,0.098 -0.1,-0.006 -0.176,-0.059 -0.213,-0.152 -0.01,-0.026 0.007,-0.081 0.031,-0.101 0.033,-0.03 0.082,-0.046 0.128,-0.058 0.247,-0.064 0.467,-0.183 0.648,-0.36 0.171,-0.168 0.332,-0.347 0.484,-0.532 0.09,-0.109 0.153,-0.24 0.227,-0.362 0.062,-0.101 0.127,-0.201 0.181,-0.306 0.082,-0.158 0.165,-0.316 0.229,-0.481 0.019,-0.048 -0.003,-0.156 -0.039,-0.174 -0.053,-0.027 -0.142,-0.018 -0.202,0.008 -0.21,0.089 -0.407,0.219 -0.623,0.181 m 10.777,3.168 c 0.033,-0.073 0.075,-0.145 0.096,-0.222 0.029,-0.103 0.042,-0.21 0.062,-0.315 0.021,-0.115 0.037,-0.232 0.065,-0.345 0.067,-0.277 0.056,-0.553 0.005,-0.83 -0.02,-0.112 -0.033,-0.226 -0.063,-0.335 -0.046,-0.168 -0.1,-0.332 -0.117,-0.509 -0.016,-0.166 -0.059,-0.332 -0.102,-0.494 -0.036,-0.131 -0.093,-0.256 -0.136,-0.386 -0.028,-0.086 -0.046,-0.176 -0.07,-0.263 -0.024,-0.087 -0.05,-0.172 -0.074,-0.259 -0.01,-0.032 -0.025,-0.065 -0.025,-0.098 0.003,-0.209 -0.089,-0.387 -0.18,-0.565 -0.116,-0.224 -0.228,-0.451 -0.349,-0.672 -0.07,-0.127 -0.153,-0.246 -0.232,-0.368 -0.108,-0.167 -0.214,-0.335 -0.328,-0.498 -0.062,-0.09 -0.143,-0.166 -0.208,-0.254 -0.234,-0.318 -0.544,-0.558 -0.841,-0.81 -0.392,-0.332 -0.843,-0.561 -1.33,-0.723 -0.15,-0.05 -0.291,-0.126 -0.441,-0.175 C 5.745,-15.563 5.57,-15.599 5.398,-15.645 5.229,-15.691 5.06,-15.741 4.89,-15.787 4.802,-15.811 4.712,-15.83 4.624,-15.851 4.492,-15.881 4.361,-15.911 4.229,-15.941 4.219,-15.943 4.21,-15.949 4.2,-15.95 4.037,-15.969 3.874,-15.985 3.712,-16.006 3.607,-16.02 3.504,-16.048 3.4,-16.058 3.196,-16.079 2.991,-16.1 2.786,-16.106 c -0.261,-0.007 -0.524,-0.009 -0.785,0.004 -0.115,0.006 -0.227,0.053 -0.341,0.081 -0.009,0.003 -0.018,0.01 -0.028,0.011 -0.135,0.02 -0.271,0.034 -0.404,0.06 -0.112,0.023 -0.221,0.059 -0.331,0.092 -0.135,0.041 -0.269,0.083 -0.402,0.128 -0.276,0.092 -0.567,0.131 -0.824,0.29 -0.181,0.113 -0.396,0.169 -0.592,0.257 -0.074,0.034 -0.138,0.087 -0.206,0.132 -0.035,0.022 -0.067,0.057 -0.104,0.063 -0.184,0.032 -0.323,0.147 -0.48,0.232 -0.274,0.147 -0.51,0.343 -0.727,0.557 -0.273,0.268 -0.54,0.545 -0.781,0.841 -0.161,0.197 -0.283,0.429 -0.407,0.654 -0.119,0.218 -0.228,0.443 -0.326,0.671 -0.123,0.282 -0.234,0.569 -0.342,0.857 -0.048,0.126 -0.076,0.259 -0.114,0.388 -0.007,0.022 -0.017,0.047 -0.034,0.061 -0.187,0.152 -0.235,0.371 -0.269,0.588 -0.049,0.306 -0.063,0.617 -0.112,0.923 -0.04,0.246 -0.136,0.468 -0.377,0.595 -0.032,0.017 -0.049,0.064 -0.071,0.098 -0.017,0.025 -0.025,0.062 -0.048,0.077 -0.095,0.063 -0.065,0.137 -0.029,0.215 0.088,0.192 0.182,0.382 0.261,0.578 0.039,0.097 0.046,0.205 0.071,0.307 0.013,0.056 0.029,0.112 0.051,0.164 0.128,0.305 0.109,0.625 0.098,0.943 -0.005,0.14 -0.044,0.282 -0.085,0.418 -0.042,0.137 -0.124,0.263 -0.155,0.402 -0.019,0.085 0,0.196 0.043,0.273 0.047,0.084 0.075,0.163 0.062,0.252 -0.016,0.106 0.045,0.142 0.126,0.147 0.287,0.017 0.519,0.148 0.73,0.331 0.061,0.053 0.146,0.087 0.19,0.15 0.119,0.172 0.266,0.333 0.287,0.557 0.006,0.059 -0.01,0.087 -0.069,0.116 -0.116,0.058 -0.22,0.137 -0.328,0.208 -0.026,0.017 -0.048,0.039 -0.074,0.054 -0.063,0.039 -0.106,0.085 -0.095,0.167 0.022,0.157 -0.075,0.272 -0.147,0.393 -0.108,0.184 -0.211,0.367 -0.223,0.588 -0.007,0.136 -0.09,0.226 -0.225,0.244 -0.14,0.018 -0.271,-0.013 -0.397,-0.073 -0.018,-0.009 -0.045,-0.024 -0.055,-0.018 -0.082,0.06 -0.168,0.118 -0.239,0.19 -0.039,0.039 -0.057,0.104 -0.07,0.161 -0.008,0.03 0.005,0.074 0.024,0.1 0.123,0.16 0.255,0.315 0.376,0.477 0.155,0.208 0.281,0.435 0.376,0.677 0.062,0.157 0.113,0.318 0.16,0.48 0.041,0.139 0.068,0.283 0.106,0.422 0.024,0.087 0.06,0.17 0.086,0.256 0.012,0.039 0.006,0.082 0.017,0.121 0.04,0.155 0.05,0.323 0.19,0.437 0.101,0.083 0.265,0.051 0.325,-0.066 0.113,-0.224 0.177,-0.453 0.159,-0.71 -0.017,-0.241 -0.012,-0.484 10e-4,-0.726 0.006,-0.114 0.054,-0.226 0.086,-0.338 0.019,-0.068 0.036,-0.137 0.065,-0.2 0.03,-0.063 0.064,-0.13 0.113,-0.179 0.113,-0.113 0.24,-0.212 0.354,-0.323 0.18,-0.177 0.109,-0.425 -0.104,-0.53 -0.124,-0.061 -0.238,-0.067 -0.364,-0.008 -0.04,0.019 -0.103,-0.009 -0.155,-0.018 -0.039,-0.007 -0.078,-0.022 -0.118,-0.025 -0.081,-0.006 -0.118,-0.056 -0.081,-0.129 0.059,-0.119 0.126,-0.234 0.188,-0.352 0.036,-0.067 0.06,-0.142 0.105,-0.203 0.072,-0.097 0.176,-0.145 0.299,-0.144 0.011,0 0.023,0.001 0.031,-0.004 0.112,-0.079 0.203,-0.051 0.285,0.05 0.067,0.082 0.143,0.145 0.185,0.26 0.067,0.185 0.03,0.389 0.137,0.568 0.057,0.095 0.041,0.232 0.069,0.347 0.016,0.067 0.044,0.137 0.088,0.188 0.091,0.107 0.193,0.205 0.295,0.302 0.055,0.051 0.08,0.104 0.079,0.18 -0.002,0.37 0,0.74 0.005,1.11 10e-4,0.085 0.018,0.17 0.028,0.255 0.01,0.079 -0.036,0.131 -0.098,0.155 -0.122,0.047 -0.249,0.079 -0.373,0.121 -0.142,0.047 -0.283,0.097 -0.424,0.147 -0.051,0.017 -0.101,0.036 -0.151,0.054 -0.078,0.028 -0.081,0.092 -0.064,0.154 0.022,0.075 0.05,0.15 0.089,0.218 0.015,0.025 0.068,0.035 0.105,0.039 0.113,0.014 0.235,-0.022 0.338,0.056 0.105,0.079 0.225,0.146 0.311,0.244 0.114,0.13 0.212,0.279 0.299,0.43 0.077,0.136 0.161,0.269 0.196,0.43 0.032,0.15 0.1,0.292 0.15,0.438 0.055,0.163 0.092,0.335 0.168,0.488 0.042,0.083 0.149,0.135 0.229,0.196 0.009,0.007 0.051,-0.009 0.058,-0.024 0.123,-0.271 0.14,-0.551 0.092,-0.844 C -1.285,2.716 -1.325,2.531 -1.24,2.344 -1.197,2.25 -1.211,2.131 -1.178,2.031 -1.134,1.9 -1.121,1.748 -0.954,1.685 -0.889,1.661 -0.816,1.596 -0.794,1.533 -0.743,1.39 -0.628,1.342 -0.512,1.285 -0.397,1.229 -0.327,1.091 -0.351,0.968 -0.364,0.905 -0.517,0.785 -0.592,0.767 -0.696,0.742 -0.797,0.704 -0.901,0.676 -0.943,0.665 -0.989,0.663 -1.033,0.662 -1.168,0.66 -1.302,0.663 -1.437,0.66 -1.531,0.659 -1.544,0.629 -1.524,0.535 c 0.032,-0.146 0.068,-0.293 0.079,-0.441 0.024,-0.296 0.149,-0.367 0.401,-0.204 0.088,0.057 0.171,0.124 0.246,0.197 0.155,0.15 0.34,0.21 0.55,0.206 C -0.219,0.292 -0.191,0.258 -0.16,0.25 -0.107,0.236 -0.043,0.21 0,0.228 c 0.036,0.015 0.061,0.083 0.071,0.131 0.037,0.183 0.063,0.369 0.1,0.552 0.028,0.139 0.07,0.276 0.1,0.416 0.014,0.064 0.002,0.114 -0.086,0.114 -0.253,10e-4 -0.455,0.135 -0.651,0.272 -0.033,0.023 -0.037,0.106 -0.032,0.159 0.003,0.031 0.048,0.067 0.082,0.084 0.083,0.044 0.171,0.08 0.257,0.115 0.043,0.018 0.089,0.026 0.132,0.042 C 0.01,2.126 0.052,2.137 0.08,2.162 0.159,2.233 0.234,2.31 0.31,2.386 0.424,2.501 0.495,2.635 0.54,2.794 0.576,2.922 0.661,3.037 0.722,3.159 0.799,3.314 0.873,3.471 0.952,3.625 0.978,3.677 1.006,3.751 1.049,3.765 1.099,3.781 1.171,3.751 1.225,3.724 1.247,3.714 1.259,3.658 1.256,3.625 1.242,3.462 1.219,3.299 1.205,3.136 1.198,3.043 1.21,2.948 1.2,2.856 1.176,2.632 1.29,2.443 1.339,2.238 1.373,2.09 1.448,1.994 1.551,1.905 1.609,1.854 1.669,1.797 1.739,1.772 1.886,1.719 1.828,1.603 1.822,1.514 1.818,1.444 1.773,1.375 1.739,1.309 1.666,1.164 1.597,1.136 1.444,1.175 1.361,1.196 1.276,1.215 1.191,1.223 1.12,1.23 1.068,1.205 1.054,1.118 1.027,0.95 0.976,0.785 0.959,0.616 0.946,0.489 0.912,0.356 0.987,0.226 1.021,0.166 1.009,0.083 1.08,0.033 1.143,-0.012 1.295,-0.045 1.348,0.008 1.522,0.182 1.696,0.358 1.853,0.547 1.907,0.613 1.91,0.721 1.938,0.81 2.046,1.142 2.161,1.472 2.536,1.598 2.663,1.641 2.798,1.666 2.931,1.691 3.058,1.714 3.187,1.733 3.316,1.744 3.376,1.749 3.437,1.731 3.498,1.723 3.549,1.716 3.599,1.701 3.65,1.699 3.806,1.696 3.962,1.7 4.117,1.695 4.17,1.693 4.221,1.666 4.274,1.661 4.335,1.654 4.404,1.641 4.455,1.663 4.559,1.708 4.653,1.709 4.75,1.658 4.756,1.655 4.763,1.651 4.769,1.651 4.921,1.631 5.072,1.609 5.224,1.592 5.394,1.572 5.566,1.568 5.733,1.535 5.899,1.502 6.059,1.438 6.222,1.392 6.309,1.368 6.399,1.356 6.486,1.334 6.525,1.324 6.559,1.3 6.596,1.285 6.798,1.199 7.001,1.116 7.202,1.029 7.408,0.94 7.615,0.852 7.816,0.754 7.9,0.713 7.971,0.646 8.048,0.591 8.051,0.589 8.054,0.586 8.054,0.584 8.05,0.392 8.236,0.424 8.331,0.348 8.341,0.339 8.355,0.336 8.365,0.327 8.556,0.155 8.749,-0.015 8.936,-0.193 8.996,-0.25 9.043,-0.323 9.088,-0.395 9.195,-0.566 9.311,-0.735 9.395,-0.918 9.446,-1.027 9.504,-1.154 9.416,-1.29 9.39,-1.33 9.424,-1.412 9.438,-1.473 9.459,-1.566 9.485,-1.659 9.512,-1.751 9.536,-1.83 9.559,-1.91 9.591,-1.986 9.629,-2.081 9.613,-2.13 9.528,-2.184 9.435,-2.244 9.375,-2.239 9.283,-2.156 9.173,-2.057 9.024,-2.001 8.89,-1.928 8.784,-1.869 8.678,-1.806 8.568,-1.756 8.388,-1.674 8.207,-1.59 8.02,-1.528 7.897,-1.488 7.755,-1.502 7.632,-1.463 7.333,-1.368 7.03,-1.428 6.729,-1.421 6.518,-1.415 6.3,-1.429 6.095,-1.478 5.979,-1.505 5.866,-1.501 5.754,-1.521 5.63,-1.544 5.508,-1.583 5.385,-1.614 5.306,-1.633 5.229,-1.659 5.149,-1.67 4.851,-1.711 4.599,-1.869 4.343,-2.005 4.158,-2.103 4,-2.258 3.837,-2.397 3.657,-2.549 3.468,-2.697 3.316,-2.874 3.178,-3.037 3.079,-3.234 2.971,-3.421 2.893,-3.557 2.833,-3.703 2.757,-3.84 2.594,-4.131 2.422,-4.417 2.262,-4.71 2.229,-4.769 2.217,-4.848 2.285,-4.909 2.405,-5.018 2.406,-5.162 2.405,-5.31 2.404,-5.447 2.365,-5.568 2.284,-5.677 2.268,-5.699 2.257,-5.725 2.248,-5.751 2.217,-5.847 2.239,-5.88 2.337,-5.884 c 0.059,-0.002 0.119,0.007 0.177,0 C 2.64,-5.898 2.76,-5.927 2.87,-6.006 2.98,-6.084 3.111,-6.134 3.231,-6.197 3.255,-6.209 3.279,-6.224 3.297,-6.243 3.493,-6.454 3.7,-6.657 3.88,-6.881 4.024,-7.061 4.144,-7.263 4.26,-7.463 4.329,-7.583 4.371,-7.718 4.423,-7.847 4.476,-7.981 4.539,-8.114 4.572,-8.254 4.589,-8.329 4.579,-8.436 4.536,-8.494 4.462,-8.592 4.35,-8.662 4.213,-8.63 4.177,-8.621 4.146,-8.585 4.118,-8.557 3.99,-8.427 3.84,-8.348 3.657,-8.316 3.467,-8.281 3.284,-8.195 3.094,-8.177 2.897,-8.158 2.695,-8.132 2.496,-8.227 2.206,-8.365 1.966,-8.559 1.752,-8.792 1.674,-8.877 1.595,-8.964 1.533,-9.06 1.512,-9.093 1.524,-9.172 1.551,-9.207 1.704,-9.41 1.859,-9.612 1.981,-9.836 2.035,-9.934 2.212,-9.967 2.34,-9.925 c 0.054,0.018 0.121,-0.004 0.182,-0.007 0.063,-0.004 0.134,0.009 0.153,-0.082 0.004,-0.017 0.025,-0.036 0.043,-0.043 0.088,-0.036 0.112,-0.103 0.098,-0.188 -0.012,-0.076 -0.027,-0.151 -0.045,-0.225 -0.007,-0.029 -0.029,-0.055 -0.04,-0.084 -0.045,-0.12 -0.02,-0.155 0.109,-0.151 0.155,0.006 0.308,-0.007 0.451,-0.07 0.046,-0.02 0.08,-0.063 0.123,-0.092 0.08,-0.054 0.164,-0.103 0.243,-0.158 0.05,-0.036 0.092,-0.081 0.14,-0.12 0.116,-0.094 0.234,-0.186 0.351,-0.28 0.053,-0.042 0.112,-0.08 0.157,-0.13 0.111,-0.124 0.214,-0.12 0.34,0.002 0.13,0.126 0.265,0.25 0.413,0.353 0.149,0.104 0.316,0.181 0.476,0.268 0.018,0.01 0.047,0.008 0.069,0.004 0.072,-0.013 0.143,-0.041 0.215,-0.041 0.108,0 0.195,-0.043 0.285,-0.093 0.055,-0.031 0.119,-0.051 0.181,-0.063 0.052,-0.011 0.093,0.003 0.12,0.067 0.018,0.039 0.08,0.068 0.128,0.083 0.117,0.039 0.237,0.067 0.356,0.099 0.004,10e-4 0.007,0.002 0.01,0.003 0.113,0.019 0.225,0.055 0.338,0.053 0.162,-0.002 0.303,0.059 0.443,0.12 0.117,0.05 0.223,0.123 0.336,0.18 0.296,0.151 0.535,0.37 0.767,0.604 0.261,0.264 0.466,0.564 0.635,0.894 0.124,0.242 0.272,0.472 0.394,0.715 0.072,0.145 0.114,0.305 0.17,0.458 0.055,0.151 0.111,0.301 0.167,0.451 0.011,0.004 0.022,0.007 0.034,0.01"
             style="fill:#fff;fill-opacity:1;fill-rule:nonzero;stroke:none"
             id="path6033"
             inkscape:connector-curvature="0" />
        </g>
      </g>
    </g>
  </g>
</svg>
