<?xml version="1.0" encoding="UTF-8" standalone="no"?>
<!-- Created with Inkscape (http://www.inkscape.org/) -->

<svg
   xmlns:dc="http://purl.org/dc/elements/1.1/"
   xmlns:cc="http://creativecommons.org/ns#"
   xmlns:rdf="http://www.w3.org/1999/02/22-rdf-syntax-ns#"
   xmlns:svg="http://www.w3.org/2000/svg"
   xmlns="http://www.w3.org/2000/svg"
   xmlns:sodipodi="http://sodipodi.sourceforge.net/DTD/sodipodi-0.dtd"
   xmlns:inkscape="http://www.inkscape.org/namespaces/inkscape"
   width="10.571893mm"
   height="12.115976mm"
   viewBox="0 0 10.571893 12.115976"
   version="1.1"
   id="svg8190"
   inkscape:version="0.92.5 (2060ec1f9f, 2020-04-08)"
   sodipodi:docname="allies-beasts-of-chaos.svg">
  <defs
     id="defs8184">
    <clipPath
       clipPathUnits="userSpaceOnUse"
       id="clipPath5729">
      <path
         d="m 174.577,247.383 h 29.987 v 34.345 h -29.987 z"
         id="path5727"
         inkscape:connector-curvature="0" />
    </clipPath>
  </defs>
  <sodipodi:namedview
     id="base"
     pagecolor="#ffffff"
     bordercolor="#666666"
     borderopacity="1.0"
     inkscape:pageopacity="0.0"
     inkscape:pageshadow="2"
     inkscape:zoom="0.35"
     inkscape:cx="-448.59305"
     inkscape:cy="42.896326"
     inkscape:document-units="mm"
     inkscape:current-layer="layer1"
     showgrid="false"
     fit-margin-top="0"
     fit-margin-left="0"
     fit-margin-right="0"
     fit-margin-bottom="0"
     inkscape:window-width="1920"
     inkscape:window-height="1017"
     inkscape:window-x="-8"
     inkscape:window-y="-8"
     inkscape:window-maximized="1" />
  <metadata
     id="metadata8187">
    <rdf:RDF>
      <cc:Work
         rdf:about="">
        <dc:format>image/svg+xml</dc:format>
        <dc:type
           rdf:resource="http://purl.org/dc/dcmitype/StillImage" />
        <dc:title></dc:title>
      </cc:Work>
    </rdf:RDF>
  </metadata>
  <g
     inkscape:label="Layer 1"
     inkscape:groupmode="layer"
     id="layer1"
     transform="translate(-224.52358,-148.06701)">
    <g
       transform="matrix(0.35277777,0,0,-0.35277777,162.93484,247.45428)"
       id="g5723">
      <g
         id="g5725"
         clip-path="url(#clipPath5729)">
        <g
           id="g5731"
           transform="translate(198.9467,260.1741)">
          <path
             d="m 0,0 c 0.189,0.244 0.296,0.533 0.443,0.8 0.077,0.14 0.149,0.284 0.206,0.433 0.132,0.346 0.31,0.674 0.38,1.044 0.024,0.126 0.106,0.24 0.143,0.366 0.132,0.454 0.248,0.912 0.384,1.365 0.13,0.432 0.24,0.866 0.292,1.315 0.028,0.246 0.219,0.419 0.326,0.631 0.006,0.012 0.02,0.021 0.033,0.028 0.207,0.107 0.405,0.255 0.625,0.31 C 3.094,6.357 3.323,6.47 3.548,6.603 3.674,6.678 3.795,6.76 3.923,6.829 4.044,6.895 4.171,6.953 4.297,7.008 4.392,7.049 4.49,7.081 4.607,7.124 4.323,7.295 4.045,7.357 3.749,7.354 3.686,7.353 3.624,7.381 3.561,7.394 3.498,7.408 3.435,7.429 3.372,7.432 3.255,7.438 3.138,7.437 3.021,7.43 2.908,7.422 2.81,7.449 2.712,7.509 2.563,7.599 2.411,7.679 2.226,7.686 2.079,7.691 2.015,7.655 1.978,7.797 1.973,7.817 1.968,7.836 1.962,7.856 1.582,7.771 1.076,7.489 0.721,7.201 0.75,7.049 0.767,7.139 0.76,6.981 0.752,6.801 0.782,6.616 0.687,6.447 0.677,6.429 0.675,6.405 0.673,6.383 0.644,6.05 0.616,5.717 0.585,5.385 0.576,5.291 0.555,5.199 0.54,5.105 0.509,4.912 0.501,4.711 0.443,4.527 0.322,4.139 0.339,3.715 0.128,3.352 0.113,3.327 0.099,3.3 0.094,3.272 -0.009,2.698 -0.334,2.212 -0.537,1.677 -0.618,1.463 -0.769,1.275 -0.888,1.076 -0.907,1.045 -0.939,1.017 -0.946,0.984 c -0.065,-0.3 -0.27,-0.53 -0.398,-0.798 -0.049,-0.103 -0.12,-0.202 -0.199,-0.285 -0.29,-0.307 -0.585,-0.609 -0.883,-0.908 -0.097,-0.097 -0.115,-0.116 -0.22,-0.206 -0.002,-0.002 -0.004,-0.004 -0.007,-0.006 0.279,-0.348 0.547,-0.665 0.786,-0.811 0.157,0.156 0.307,0.315 0.452,0.466 0.098,-0.014 0.185,-0.043 0.269,-0.035 0.259,0.022 0.485,-0.077 0.713,-0.173 0.074,-0.031 0.15,-0.059 0.221,-0.096 0.169,-0.089 0.305,-0.045 0.423,0.092 -0.011,0.032 -0.015,0.064 -0.032,0.086 -0.229,0.29 -0.322,0.652 -0.504,0.966 -0.062,0.106 -0.06,0.203 0.017,0.303 C -0.202,-0.283 -0.106,-0.138 0,0"
             style="fill: #fff;fill-opacity:1;fill-rule:nonzero;stroke:none"
             id="path5733"
             inkscape:connector-curvature="0" />
        </g>
        <g
           id="g5735"
           transform="translate(181.7356,272.7207)">
          <path
             d="M 0,0 C 0.022,0.043 0.051,0.088 0.089,0.117 0.426,0.371 0.757,0.63 1.048,0.939 1.176,1.075 1.34,1.179 1.488,1.296 1.597,1.381 1.71,1.46 1.815,1.55 c 0.154,0.134 0.306,0.258 0.503,0.338 0.163,0.067 0.311,0.19 0.442,0.314 0.122,0.113 0.25,0.196 0.409,0.232 0.174,0.039 0.319,0.131 0.474,0.213 0.315,0.166 0.647,0.3 0.972,0.447 0.159,0.072 0.319,0.141 0.477,0.214 0.092,0.043 0.178,0.106 0.274,0.135 0.406,0.124 0.771,0.334 1.15,0.517 0.29,0.14 0.6,0.218 0.924,0.225 0.226,0.004 0.452,0.001 0.679,0.002 0.138,0 0.27,0.036 0.404,0.057 C 8.82,4.292 9.12,4.321 9.419,4.171 9.681,4.039 9.967,3.939 10.273,3.943 c 0.139,0.002 0.278,-0.011 0.417,-0.005 0.209,0.01 0.394,-0.06 0.59,-0.123 0.219,-0.07 0.405,-0.168 0.585,-0.307 0.135,-0.104 0.31,-0.158 0.466,-0.233 0.007,-0.004 0.015,-0.009 0.021,-0.008 0.279,0.048 0.474,-0.149 0.7,-0.249 0.137,-0.061 0.269,-0.147 0.381,-0.247 0.371,-0.33 0.73,-0.673 1.096,-1.009 0.129,-0.118 0.262,-0.23 0.394,-0.344 0.022,-0.019 0.044,-0.046 0.069,-0.053 0.229,-0.06 0.34,-0.267 0.505,-0.404 0.06,-0.05 0.114,-0.121 0.141,-0.193 0.087,-0.234 0.255,-0.403 0.425,-0.572 0.031,-0.03 0.06,-0.064 0.083,-0.101 0.095,-0.154 0.16,-0.273 0.255,-0.428 0.414,0.142 0.731,0.316 0.967,0.475 -0.043,0.058 -0.054,0.081 -0.097,0.139 -0.069,0.093 -0.138,0.186 -0.208,0.278 -0.231,0.301 -0.479,0.589 -0.637,0.94 -0.093,0.208 -0.094,0.389 0.047,0.592 0.178,0.256 0.316,0.541 0.463,0.817 0.052,0.099 -0.012,0.193 -0.125,0.194 -0.048,0 -0.1,-0.019 -0.144,-0.041 C 16.395,2.923 16.117,2.796 15.878,2.6 15.818,2.552 15.738,2.528 15.66,2.49 15.604,2.537 15.555,2.58 15.503,2.619 15.22,2.831 14.988,3.114 14.633,3.228 14.527,3.262 14.424,3.34 14.345,3.422 14.054,3.723 13.684,3.889 13.316,4.065 13.094,4.171 12.833,4.194 12.646,4.372 12.517,4.495 12.366,4.576 12.2,4.64 12.052,4.698 11.9,4.76 11.77,4.849 11.479,5.05 11.157,5.165 10.811,5.169 10.51,5.172 10.217,5.194 9.924,5.263 9.741,5.306 9.547,5.31 9.366,5.362 9.224,5.403 9.088,5.432 8.939,5.426 8.751,5.419 8.683,5.478 8.657,5.655 8.619,5.905 8.602,6.158 8.554,6.406 8.518,6.591 8.496,6.774 8.482,6.961 8.475,7.063 8.407,7.161 8.366,7.261 8.344,7.315 8.312,7.367 8.302,7.422 8.265,7.623 8.245,7.827 8.202,8.026 8.136,8.331 8.058,8.635 7.983,8.939 7.977,8.963 7.956,8.984 7.943,9.007 7.921,8.995 7.9,8.99 7.899,8.981 7.858,8.77 7.761,8.569 7.789,8.345 7.796,8.289 7.781,8.229 7.771,8.173 7.752,8.059 7.725,7.948 7.706,7.834 7.688,7.719 7.685,7.601 7.66,7.487 7.576,7.11 7.484,6.734 7.396,6.358 7.382,6.294 7.359,6.228 7.362,6.165 7.37,5.937 7.337,5.717 7.278,5.497 7.253,5.406 7.222,5.354 7.133,5.332 7.034,5.308 6.936,5.28 6.839,5.25 6.582,5.17 6.323,5.096 6.07,5.004 5.818,4.912 5.573,4.8 5.324,4.698 5.061,4.591 4.797,4.488 4.536,4.377 4.389,4.314 4.249,4.236 4.104,4.17 3.919,4.085 3.73,4.009 3.545,3.924 3.36,3.84 3.184,3.725 2.992,3.666 2.569,3.536 2.18,3.354 1.832,3.077 1.685,2.96 1.514,2.87 1.348,2.779 1.273,2.738 1.184,2.7 1.102,2.7 0.928,2.702 0.839,2.633 0.792,2.465 0.747,2.304 0.614,2.272 0.462,2.354 0.322,2.43 0.175,2.493 0.035,2.569 -0.118,2.652 -0.272,2.734 -0.414,2.833 -0.593,2.958 -0.752,3.113 -0.935,3.232 -1.22,3.417 -1.45,3.683 -1.774,3.813 -1.8,3.823 -1.82,3.848 -1.842,3.868 -2.083,4.079 -2.323,4.291 -2.564,4.502 -2.602,4.535 -2.646,4.561 -2.69,4.588 -2.857,4.692 -3.031,4.786 -3.191,4.899 -3.29,4.97 -3.385,4.987 -3.525,4.949 c 0.067,-0.12 0.118,-0.24 0.191,-0.344 0.28,-0.4 0.567,-0.796 0.851,-1.193 0.157,-0.219 0.302,-0.45 0.476,-0.654 0.191,-0.225 0.342,-0.47 0.484,-0.727 0.176,-0.318 0.374,-0.625 0.559,-0.938 0.041,-0.068 0.092,-0.142 0.098,-0.216 0.014,-0.173 0.009,-0.349 -0.002,-0.523 -0.004,-0.068 -0.03,-0.141 -0.065,-0.2 -0.09,-0.148 -0.206,-0.281 -0.283,-0.435 -0.075,-0.15 -0.123,-0.251 -0.193,-0.404 0.331,-0.191 0.744,-0.16 0.97,-0.183 C -0.281,-0.552 -0.161,-0.315 0,0"
             style="fill: #fff;fill-opacity:1;fill-rule:nonzero;stroke:none"
             id="path5737"
             inkscape:connector-curvature="0" />
        </g>
        <g
           id="g5739"
           transform="translate(194.0967,262.7662)">
          <path
             d="m 0,0 c 0.066,0.025 0.128,0.07 0.179,0.119 0.194,0.186 0.392,0.369 0.573,0.567 0.173,0.19 0.383,0.307 0.619,0.389 0.067,0.024 0.132,0.05 0.22,0.083 C 1.578,1.093 1.579,1.04 1.557,1 1.462,0.825 1.469,0.638 1.466,0.447 1.464,0.334 1.437,0.218 1.4,0.11 1.382,0.055 1.322,-0.015 1.271,-0.025 1.038,-0.069 0.938,-0.267 0.797,-0.414 0.722,-0.493 0.669,-0.603 0.55,-0.612 c -0.172,-0.013 -0.347,-0.023 -0.517,0 -0.125,0.017 -0.271,0.235 -0.26,0.348 C -0.213,-0.129 -0.128,-0.048 0,0 m -7.432,-0.408 c -0.02,-0.051 -0.014,-0.113 -0.022,-0.17 -0.018,-0.136 -0.091,-0.23 -0.223,-0.269 -0.127,-0.039 -0.228,0.008 -0.306,0.111 -0.039,0.052 -0.081,0.102 -0.118,0.149 -0.311,-0.044 -0.578,0.127 -0.675,0.422 -0.031,0.097 -0.066,0.193 -0.104,0.288 -0.087,0.217 -0.068,0.445 -0.056,0.668 0.006,0.126 0.099,0.208 0.225,0.238 0.111,0.026 0.249,-0.022 0.296,-0.136 0.067,-0.162 0.2,-0.224 0.342,-0.272 0.098,-0.033 0.164,-0.088 0.217,-0.17 0.107,-0.163 0.193,-0.339 0.339,-0.477 0.106,-0.1 0.143,-0.232 0.085,-0.382 m 17.859,-1.118 c -0.103,0.432 -0.235,0.857 -0.358,1.284 -0.052,0.18 -0.11,0.359 -0.177,0.579 C 9.758,0.163 9.654,0.022 9.661,-0.171 9.679,-0.611 9.476,-1.022 9.489,-1.462 9.49,-1.49 9.47,-1.517 9.464,-1.546 9.436,-1.672 9.392,-1.798 9.385,-1.926 9.373,-2.152 9.239,-2.334 9.183,-2.543 9.172,-2.583 9.111,-2.611 9.072,-2.643 9.027,-2.678 8.98,-2.71 8.938,-2.741 8.938,-2.776 8.934,-2.799 8.939,-2.819 9.02,-3.116 8.919,-3.36 8.733,-3.588 8.544,-3.819 8.335,-4.033 8.143,-4.258 7.913,-4.528 7.65,-4.751 7.377,-4.963 7.048,-5.216 6.698,-5.442 6.348,-5.665 6.074,-5.838 5.775,-5.95 5.439,-5.933 5.348,-5.928 5.256,-5.968 5.163,-5.98 5.092,-5.988 5.008,-6.009 4.952,-5.981 4.793,-5.901 4.628,-5.904 4.46,-5.903 4.197,-5.902 3.933,-5.884 3.672,-5.907 3.345,-5.936 3.053,-5.806 2.761,-5.715 2.501,-5.634 2.245,-5.502 2.045,-5.303 1.591,-5.161 1.365,-4.749 1.307,-4.528 1.301,-4.532 1.296,-4.536 1.289,-4.54 1.184,-4.319 1.094,-4.12 0.994,-3.926 0.941,-3.823 0.885,-3.717 0.808,-3.633 0.684,-3.499 0.616,-3.344 0.564,-3.174 0.531,-3.066 0.487,-2.961 0.436,-2.826 0.371,-2.91 0.337,-2.965 0.293,-3.01 0.203,-3.101 0.097,-3.123 -0.028,-3.081 c -0.126,0.042 -0.182,0.143 -0.17,0.252 0.028,0.252 0.079,0.503 0.13,0.752 0.011,0.051 0.057,0.103 0.101,0.138 0.29,0.234 0.521,0.53 0.796,0.775 0.166,0.148 0.349,0.326 0.601,0.345 0.094,0.158 0.19,0.309 0.275,0.466 0.032,0.06 0.064,0.137 0.056,0.2 C 1.736,0.041 1.837,0.191 1.907,0.353 1.935,0.417 1.963,0.487 1.964,0.555 1.97,1.02 1.967,1.486 1.968,1.952 1.969,2.105 1.972,2.258 1.975,2.411 1.976,2.439 1.975,2.473 1.99,2.495 2.154,2.742 2.009,2.933 1.881,3.129 1.831,3.206 1.786,3.286 1.74,3.365 1.61,3.589 1.537,3.821 1.561,4.088 1.582,4.311 1.659,4.488 1.838,4.621 1.919,4.681 1.992,4.782 2.078,4.793 2.149,4.801 2.231,4.701 2.311,4.654 2.347,4.634 2.4,4.607 2.43,4.619 2.596,4.686 2.757,4.766 2.922,4.838 2.986,4.866 3.059,4.916 3.118,4.904 3.269,4.873 3.387,4.943 3.516,4.99 3.623,5.03 3.735,5.058 3.846,5.086 3.909,5.103 3.99,5.09 4.037,5.124 4.281,5.306 4.584,5.298 4.854,5.394 4.97,5.434 5.079,5.494 5.193,5.541 5.244,5.562 5.3,5.573 5.373,5.594 5.374,5.59 5.375,5.586 5.376,5.581 5.511,5.713 5.983,6.143 6.554,6.285 6.55,6.296 6.548,6.305 6.545,6.316 6.809,6.503 7.06,6.677 7.306,6.857 7.438,6.953 7.59,7.034 7.594,7.236 7.596,7.297 7.638,7.361 7.673,7.415 7.8,7.611 7.932,7.802 8.06,7.997 c 0.153,0.23 0.306,0.461 0.452,0.695 0.184,0.293 0.3,0.616 0.404,0.942 0.077,0.242 0.183,0.478 0.177,0.741 -10e-4,0.043 0.003,0.091 0.022,0.129 0.108,0.22 0.077,0.456 0.08,0.688 0.004,0.212 -0.007,0.424 0.004,0.636 0.013,0.261 0.042,0.522 0.061,0.783 0.004,0.049 0.008,0.104 -0.011,0.146 C 9.137,13.007 9.018,13.254 8.897,13.51 8.866,13.489 8.841,13.475 8.82,13.456 8.636,13.296 8.553,13.077 8.474,12.857 8.369,12.562 8.285,12.258 8.158,11.973 7.889,11.365 7.574,10.783 7.104,10.296 6.774,9.953 6.433,9.625 6.013,9.393 5.883,9.322 5.738,9.279 5.624,9.232 5.622,9.234 5.621,9.237 5.619,9.239 5.137,8.752 4.732,8.714 4.56,8.76 4.562,8.752 4.445,8.857 4.445,8.857 4.333,8.848 4.246,8.847 4.162,8.832 4.084,8.819 4.008,8.79 3.931,8.77 3.84,8.747 3.75,8.71 3.659,8.708 3.191,8.699 2.724,8.697 2.257,8.695 2.147,8.695 2.041,8.698 1.945,8.624 1.908,8.596 1.85,8.587 1.801,8.583 1.669,8.575 1.557,8.539 1.502,8.404 1.494,8.384 1.48,8.354 1.465,8.352 1.278,8.326 1.228,8.156 1.131,8.036 1.073,7.963 1.006,7.915 0.91,7.916 0.778,7.919 0.685,8.003 0.665,8.149 0.654,8.227 0.653,8.307 0.647,8.398 0.599,8.4 0.553,8.418 0.533,8.402 0.342,8.251 0.145,8.284 -0.033,8.405 -0.266,8.566 -0.544,8.596 -0.796,8.698 -1.176,8.853 -1.574,8.899 -1.98,8.906 -2.242,8.911 -2.501,8.936 -2.748,9.048 -2.85,9.094 -2.976,9.098 -3.091,9.1 -3.346,9.102 -3.603,9.101 -3.857,9.081 -3.992,9.071 -4.124,9.02 -4.257,8.987 -4.334,8.968 -4.411,8.929 -4.486,8.932 -4.711,8.941 -4.934,8.976 -5.158,8.985 -5.302,8.99 -5.447,8.97 -5.59,8.956 -5.764,8.939 -5.937,8.918 -6.11,8.897 -6.153,8.892 -6.208,8.898 -6.237,8.874 -6.486,8.666 -6.801,8.589 -7.089,8.469 -7.31,8.376 -7.479,8.236 -7.665,8.102 -7.824,7.988 -8.018,7.904 -8.228,7.913 -8.385,7.92 -8.509,7.891 -8.648,7.789 -8.784,7.691 -8.907,7.596 -9.019,7.468 c -0.208,-0.241 -0.511,-0.2 -0.695,0.07 -0.069,0.101 -0.141,0.204 -0.229,0.287 -0.052,0.05 -0.137,0.074 -0.212,0.09 -0.067,0.014 -0.14,0.003 -0.227,0.003 -0.011,0.125 -0.009,0.213 -0.027,0.297 -0.025,0.124 -0.095,0.163 -0.207,0.111 -0.261,-0.121 -0.533,-0.144 -0.813,-0.114 -0.246,0.025 -0.491,0.056 -0.737,0.081 -0.049,0.005 -0.108,0.009 -0.15,-0.012 -0.124,-0.063 -0.236,-0.043 -0.356,0.011 -0.065,0.03 -0.14,0.04 -0.212,0.052 -0.089,0.015 -0.141,0.027 -0.166,0.052 -0.703,-0.065 -0.994,0.051 -1.109,0.138 -0.033,-0.009 -0.072,-0.003 -0.124,0.018 -0.202,0.082 -0.408,0.158 -0.602,0.256 -0.253,0.126 -0.48,0.299 -0.749,0.4 -0.113,0.043 -0.2,0.146 -0.309,0.204 -0.451,0.24 -0.905,0.473 -1.358,0.71 -0.447,0.233 -0.838,0.53 -1.103,0.972 -0.052,0.087 -0.127,0.159 -0.192,0.238 -0.101,0.124 -0.202,0.249 -0.305,0.372 -0.03,0.036 -0.064,0.07 -0.096,0.104 -0.251,-0.325 -0.17,-0.673 -0.069,-0.995 0.167,-0.533 0.37,-1.055 0.578,-1.573 0.295,-0.736 0.713,-1.398 1.261,-1.974 0.307,-0.322 0.624,-0.635 0.939,-0.949 0.056,-0.056 0.125,-0.099 0.189,-0.146 0.188,-0.136 0.378,-0.268 0.564,-0.407 0.099,-0.074 0.189,-0.15 0.32,-0.176 0.092,-0.019 0.173,-0.09 0.266,-0.141 -0.003,-0.005 -0.005,-0.01 -0.007,-0.015 0.181,0.002 0.498,-0.053 0.88,-0.359 0,0.004 0,0.008 0,0.012 0.087,-0.012 0.156,-0.005 0.206,-0.031 0.164,-0.085 0.332,-0.139 0.515,-0.163 0.12,-0.015 0.242,-0.055 0.349,-0.11 0.117,-0.061 0.222,-0.057 0.335,-0.013 0.107,0.042 0.199,0.03 0.275,-0.063 0.065,-0.081 0.158,-0.106 0.256,-0.099 0.127,0.009 0.24,-0.008 0.35,-0.087 0.073,-0.053 0.175,-0.067 0.264,-0.097 0.089,-0.03 0.182,-0.052 0.269,-0.088 0.226,-0.093 0.29,-0.081 0.426,0.117 0.059,0.085 0.139,0.076 0.216,0.061 0.191,-0.036 0.381,-0.08 0.586,-0.124 0.004,-0.047 0.013,-0.095 0.012,-0.144 -0.002,-0.226 -0.013,-0.452 -0.008,-0.679 0.004,-0.205 0.089,-0.408 0.011,-0.616 -0.007,-0.018 0.002,-0.043 0.006,-0.065 0.093,-0.549 0.044,-1.103 0.057,-1.655 0.002,-0.072 -0.037,-0.153 -0.078,-0.217 -0.174,-0.268 -0.163,-0.54 0.062,-0.772 0.09,-0.093 0.121,-0.186 0.121,-0.31 10e-4,-0.14 -0.047,-0.295 0.086,-0.409 -0.027,-0.255 0.188,-0.357 0.322,-0.51 0.047,-0.054 0.107,-0.099 0.153,-0.155 0.063,-0.076 0.117,-0.158 0.181,-0.246 0.062,-0.043 0.147,-0.085 0.211,-0.148 0.169,-0.169 0.376,-0.279 0.577,-0.399 0.061,-0.036 0.106,-0.099 0.163,-0.144 0.082,-0.064 0.168,-0.125 0.289,-0.214 -0.01,-0.063 -0.026,-0.166 -0.039,-0.247 0.031,-0.147 0.081,-0.279 0.083,-0.411 0.004,-0.169 -0.074,-0.233 -0.239,-0.256 -0.226,-0.031 -0.303,-0.013 -0.575,0.14 -0.41,-0.325 -0.805,-0.656 -1.092,-1.111 -0.095,-0.151 -0.167,-0.243 -0.235,-0.289 0,-10e-4 0,-10e-4 -10e-4,-0.002 -0.352,-0.582 -0.706,-0.73 -0.951,-0.752 -0.07,-0.038 -0.126,-0.068 -0.18,-0.101 -0.111,-0.068 -0.232,-0.126 -0.329,-0.211 -0.165,-0.147 -0.348,-0.256 -0.543,-0.356 -0.186,-0.095 -0.371,-0.198 -0.542,-0.318 -0.102,-0.071 -0.198,-0.115 -0.322,-0.106 -0.102,0.007 -0.196,-0.004 -0.286,-0.077 -0.055,-0.045 -0.148,-0.059 -0.224,-0.06 -0.482,-0.005 -0.964,-0.003 -1.446,-0.002 -0.051,0 -0.109,-0.003 -0.15,0.02 -0.216,0.12 -0.447,0.207 -0.645,0.366 -0.219,0.177 -0.47,0.315 -0.698,0.482 -0.097,0.071 -0.199,0.159 -0.25,0.263 -0.083,0.169 -0.195,0.305 -0.338,0.421 -0.372,0.302 -0.583,0.718 -0.781,1.138 -0.114,0.24 -0.177,0.504 -0.261,0.757 -0.012,0.035 -0.021,0.071 -0.022,0.107 -0.003,0.176 -0.08,0.339 -0.107,0.504 -0.048,0.286 -0.15,0.563 -0.167,0.848 -0.015,0.269 -0.124,0.508 -0.181,0.762 -0.036,0.159 -0.117,0.31 -0.111,0.481 0.003,0.083 -0.022,0.15 -0.109,0.164 -0.136,0.024 -0.158,0.124 -0.149,0.229 0.009,0.106 0.028,0.218 0.071,0.315 0.049,0.112 0.069,0.22 0.05,0.34 -0.02,0.122 -0.032,0.246 -0.053,0.368 -0.019,0.11 -0.06,0.209 -0.169,0.252 -0.107,-0.079 -0.208,-0.148 -0.303,-0.226 -0.031,-0.025 -0.059,-0.068 -0.067,-0.107 -0.067,-0.336 -0.152,-0.671 -0.187,-1.011 -0.053,-0.522 -0.076,-1.047 -0.101,-1.571 -0.006,-0.129 0.006,-0.267 0.049,-0.387 0.077,-0.212 0.089,-0.426 0.079,-0.646 -0.012,-0.24 -0.032,-0.481 -0.026,-0.722 0.004,-0.202 0.034,-0.405 0.064,-0.606 0.023,-0.158 0.067,-0.313 0.097,-0.47 0.048,-0.249 0.074,-0.499 0.174,-0.742 0.11,-0.267 0.192,-0.552 0.24,-0.837 0.053,-0.316 0.156,-0.608 0.299,-0.888 0.052,-0.103 0.115,-0.213 0.203,-0.281 0.14,-0.108 0.22,-0.247 0.29,-0.4 0.052,-0.113 0.112,-0.222 0.164,-0.335 0.18,-0.394 0.421,-0.746 0.733,-1.049 0.079,-0.076 0.168,-0.143 0.236,-0.227 0.09,-0.111 0.209,-0.153 0.337,-0.188 0.055,-0.014 0.119,-0.021 0.159,-0.055 0.121,-0.104 0.236,-0.217 0.348,-0.331 0.261,-0.266 0.548,-0.474 0.947,-0.461 0.067,0.002 0.145,-0.023 0.202,-0.06 0.329,-0.216 0.697,-0.232 1.07,-0.225 0.175,0.004 0.349,0.023 0.522,0.042 0.092,0.01 0.185,0.025 0.272,0.053 0.117,0.037 0.235,0.057 0.34,-0.007 0.249,-0.151 0.471,-0.069 0.701,0.047 0.523,0.263 1.056,0.498 1.662,0.465 0.138,-0.007 0.256,0.037 0.368,0.115 0.151,0.103 0.3,0.209 0.458,0.3 0.086,0.05 0.186,0.088 0.284,0.1 0.101,0.012 0.176,0.048 0.246,0.119 0.128,0.13 0.257,0.261 0.396,0.378 0.313,0.26 0.637,0.509 0.949,0.77 0.201,0.168 0.397,0.329 0.683,0.212 0.041,0.066 0.075,0.119 0.107,0.17 0.086,-0.093 0.165,-0.181 0.249,-0.265 0.146,-0.147 0.259,-0.344 0.533,-0.324 v -0.251 c 0.001,-0.723 0,-1.446 0.003,-2.169 0.001,-0.134 -0.037,-0.278 0.084,-0.39 0.017,-0.014 0.016,-0.056 0.013,-0.084 -0.028,-0.197 0.061,-0.409 -0.075,-0.593 -0.011,-0.014 -0.009,-0.043 -0.004,-0.062 0.039,-0.147 0.069,-0.298 0.123,-0.44 0.14,-0.367 0.286,-0.732 0.438,-1.095 0.148,-0.355 0.276,-0.723 0.569,-0.999 0.05,-0.046 0.07,-0.125 0.104,-0.189 0.122,-0.231 0.244,-0.462 0.367,-0.693 0.023,-0.044 0.046,-0.087 0.07,-0.131 0.022,0.009 0.045,0.018 0.067,0.027 0.049,0.093 0.129,0.183 0.141,0.281 0.026,0.204 0.091,0.423 -0.074,0.608 -0.013,0.014 -0.015,0.04 -0.021,0.061 -0.062,0.222 -0.101,0.454 -0.193,0.663 -0.089,0.204 -0.095,0.408 -0.096,0.619 -0.003,0.282 0.034,0.57 -0.128,0.826 0.132,0.127 0.147,0.28 0.148,0.435 10e-4,0.307 0,0.614 0.002,0.92 0,0.061 0.011,0.122 0.017,0.188 0.149,-0.06 0.143,-0.062 0.166,-0.133 0.062,-0.195 0.082,-0.393 0.086,-0.598 0.001,-0.121 0.063,-0.241 0.098,-0.362 0.067,0.073 0.102,0.139 0.11,0.208 0.067,0.618 0.266,1.209 0.378,1.817 0.049,0.264 0.091,0.53 0.133,0.796 0.021,0.129 0.018,0.264 0.117,0.395 0.006,-0.049 0.011,-0.07 0.012,-0.092 0.023,-0.635 -0.056,-1.275 0.075,-1.907 0.02,-0.099 -0.003,-0.219 0.1,-0.275 0.173,-0.094 0.18,-0.245 0.179,-0.412 -0.004,-0.511 -0.005,-1.022 0,-1.533 10e-4,-0.108 -0.006,-0.246 0.053,-0.317 0.147,-0.175 0.101,-0.332 0.023,-0.506 -0.038,-0.086 -0.059,-0.18 -0.099,-0.266 -0.043,-0.094 -0.051,-0.19 0.005,-0.271 0.066,-0.095 0.043,-0.175 0.006,-0.267 -0.049,-0.121 -0.093,-0.245 -0.129,-0.371 -0.024,-0.083 -0.003,-0.174 0.083,-0.202 0.059,-0.019 0.14,0.002 0.201,0.028 0.042,0.017 0.076,0.069 0.098,0.113 0.08,0.153 0.152,0.31 0.228,0.467 0.13,0.025 0.266,0.014 0.331,0.17 0.133,0.315 0.28,0.624 0.422,0.935 0.024,0.053 0.047,0.11 0.086,0.15 0.109,0.112 0.141,0.247 0.168,0.395 0.037,0.199 0.09,0.396 0.15,0.59 0.018,0.056 0.082,0.098 0.122,0.148 0.044,0.055 0.101,0.106 0.121,0.169 0.059,0.18 0.123,0.363 0.144,0.55 0.032,0.266 0.028,0.537 0.039,0.806 -0.153,0.225 -0.072,0.479 -0.087,0.72 -0.012,0.182 -10e-4,0.366 -0.011,0.548 -0.004,0.076 -0.043,0.149 -0.053,0.225 -0.014,0.106 -0.057,0.237 -0.012,0.315 0.074,0.131 0.067,0.242 0.041,0.374 -0.032,0.168 0.013,0.271 0.173,0.336 0.116,0.048 0.252,0.056 0.381,0.066 0.237,0.02 0.455,-0.059 0.631,-0.205 0.195,-0.161 0.364,-0.354 0.543,-0.534 0.041,-0.041 0.073,-0.094 0.121,-0.124 0.204,-0.128 0.411,-0.248 0.618,-0.371 0.1,-0.06 0.203,-0.115 0.3,-0.179 0.176,-0.117 0.346,-0.242 0.523,-0.357 0.047,-0.03 0.108,-0.043 0.164,-0.053 0.234,-0.042 0.443,-0.186 0.694,-0.16 0.017,0.002 0.037,-0.02 0.056,-0.031 0.336,-0.187 0.679,-0.337 1.079,-0.248 0.063,0.014 0.131,-10e-4 0.197,0.002 0.05,0.003 0.111,-0.002 0.149,0.023 0.201,0.134 0.425,0.104 0.638,0.074 0.404,-0.057 0.767,0.079 1.121,0.226 0.417,0.174 0.818,0.388 1.224,0.588 0.077,0.039 0.153,0.085 0.221,0.139 0.224,0.175 0.447,0.351 0.664,0.535 0.251,0.214 0.503,0.438 0.593,0.768 0.068,0.248 0.182,0.448 0.374,0.617 0.072,0.063 0.098,0.18 0.17,0.246 0.228,0.209 0.293,0.502 0.39,0.77 0.115,0.318 0.191,0.653 0.249,0.987 0.054,0.308 0.144,0.61 0.181,0.917 0.055,0.461 0.055,0.93 0.08,1.395 0.015,0.284 0.039,0.568 0.049,0.852 0.006,0.181 0.024,0.37 -0.017,0.543"
             style="fill: #fff;fill-opacity:1;fill-rule:nonzero;stroke:none"
             id="path5741"
             inkscape:connector-curvature="0" />
        </g>
        <g
           id="g5743"
           transform="translate(180.6203,258.7574)">
          <path
             d="M 0,0 C -0.246,-0.287 -0.5,-0.569 -0.666,-0.917 -0.721,-1.033 -0.811,-1.135 -0.9,-1.23 c -0.106,-0.113 -0.094,-0.262 -0.135,-0.394 -0.022,-0.071 0.076,-0.146 0.163,-0.133 0.062,0.009 0.129,0.035 0.179,0.072 0.146,0.109 0.287,0.224 0.426,0.342 0.141,0.119 0.262,0.269 0.472,0.273 0.04,0.001 0.081,0.032 0.117,0.056 0.199,0.134 0.389,0.284 0.597,0.403 0.188,0.107 0.313,0.313 0.579,0.346 0.177,-0.148 0.285,-0.238 0.473,-0.397 0.274,0.153 0.602,0.333 0.803,0.573 C 2.621,0.046 2.474,0.19 2.319,0.324 2.182,0.443 2.032,0.547 1.897,0.668 1.763,0.789 1.648,0.931 1.511,1.049 1.17,1.341 0.887,1.684 0.628,2.045 0.472,2.261 0.339,2.5 0.298,2.776 0.287,2.854 0.26,2.931 0.228,3.003 0.164,3.142 0.115,3.278 0.095,3.435 0.068,3.646 -0.013,3.851 -0.073,4.058 -0.093,4.128 -0.126,4.195 -0.14,4.266 -0.2,4.571 -0.263,4.873 -0.388,5.162 -0.455,5.318 -0.472,5.497 -0.505,5.666 -0.69,6.605 -0.718,7.4 -0.762,8.344 -0.763,8.353 -0.763,8.362 -0.763,8.371 -1.133,8.582 -1.371,8.806 -1.813,8.846 -1.865,8.831 -1.886,8.876 -1.938,8.859 -2.061,8.818 -2.33,8.819 -2.445,8.76 -2.785,8.586 -3.318,8.655 -3.686,8.617 -3.995,8.585 -4.301,8.512 -4.614,8.507 -4.754,8.504 -4.876,8.442 -4.937,8.263 -4.61,8.258 -4.306,8.283 -4.011,8.184 -3.812,8.118 -3.599,8.1 -3.395,8.049 -3.128,7.981 -2.864,7.902 -2.598,7.827 -2.473,7.792 -2.345,7.763 -2.225,7.715 -2.114,7.671 -2.012,7.604 -1.865,7.526 -1.854,7.447 -1.834,7.327 -1.82,7.207 -1.811,7.12 -1.832,7.023 -1.8,6.947 c 0.15,-0.356 0.123,-0.741 0.198,-1.109 0.05,-0.248 0.078,-0.5 0.121,-0.749 0.02,-0.114 0.049,-0.226 0.08,-0.338 0.085,-0.3 0.198,-0.596 0.25,-0.903 0.046,-0.271 0.097,-0.534 0.175,-0.8 0.08,-0.273 0.204,-0.51 0.346,-0.745 C -0.574,2.212 -0.486,2.14 -0.427,2.05 -0.247,1.777 -0.079,1.496 0.102,1.223 0.194,1.085 0.302,0.957 0.404,0.823 0.314,0.629 0.215,0.449 0.15,0.258 0.116,0.156 0.067,0.079 0,0"
             style="fill: #fff;fill-opacity:1;fill-rule:nonzero;stroke:none"
             id="path5745"
             inkscape:connector-curvature="0" />
        </g>
      </g>
    </g>
  </g>
</svg>
