<?xml version="1.0" encoding="UTF-8" standalone="no"?>
<!-- Created with Inkscape (http://www.inkscape.org/) -->

<svg
   xmlns:dc="http://purl.org/dc/elements/1.1/"
   xmlns:cc="http://creativecommons.org/ns#"
   xmlns:rdf="http://www.w3.org/1999/02/22-rdf-syntax-ns#"
   xmlns:svg="http://www.w3.org/2000/svg"
   xmlns="http://www.w3.org/2000/svg"
   xmlns:sodipodi="http://sodipodi.sourceforge.net/DTD/sodipodi-0.dtd"
   xmlns:inkscape="http://www.inkscape.org/namespaces/inkscape"
   width="10.679783mm"
   height="12.489987mm"
   viewBox="0 0 10.679783 12.489987"
   version="1.1"
   id="svg8630"
   inkscape:version="0.92.5 (2060ec1f9f, 2020-04-08)"
   sodipodi:docname="allies-nighthaunt.svg">
  <defs
     id="defs8624">
    <clipPath
       clipPathUnits="userSpaceOnUse"
       id="clipPath5893">
      <path
         d="m 393.017,247.985 h 30.274 v 35.41 h -30.274 z"
         id="path5891"
         inkscape:connector-curvature="0" />
    </clipPath>
  </defs>
  <sodipodi:namedview
     id="base"
     pagecolor="#ffffff"
     bordercolor="#666666"
     borderopacity="1.0"
     inkscape:pageopacity="0.0"
     inkscape:pageshadow="2"
     inkscape:zoom="0.35"
     inkscape:cx="-945.532"
     inkscape:cy="-90.682582"
     inkscape:document-units="mm"
     inkscape:current-layer="layer1"
     showgrid="false"
     fit-margin-top="0"
     fit-margin-left="0"
     fit-margin-right="0"
     fit-margin-bottom="0"
     inkscape:window-width="1920"
     inkscape:window-height="1017"
     inkscape:window-x="-8"
     inkscape:window-y="-8"
     inkscape:window-maximized="1" />
  <metadata
     id="metadata8627">
    <rdf:RDF>
      <cc:Work
         rdf:about="">
        <dc:format>image/svg+xml</dc:format>
        <dc:type
           rdf:resource="http://purl.org/dc/dcmitype/StillImage" />
        <dc:title></dc:title>
      </cc:Work>
    </rdf:RDF>
  </metadata>
  <g
     inkscape:label="Layer 1"
     inkscape:groupmode="layer"
     id="layer1"
     transform="translate(-356.00534,-112.35025)">
    <g
       transform="matrix(0.35277777,0,0,-0.35277777,217.35747,212.32397)"
       id="g5887">
      <g
         id="g5889"
         clip-path="url(#clipPath5893)">
        <g
           id="g5895"
           transform="translate(415.5306,275.0554)">
          <path
             d="m 0,0 c 0.107,-0.077 0.235,0.003 0.353,-0.059 0.077,-0.04 0.035,0.056 0.102,0.002 0.207,-0.17 0.279,-0.349 0.482,-0.523 0.031,-0.026 0.069,-0.046 0.123,-0.081 0.084,0.047 0.179,0.094 0.268,0.152 0.13,0.085 0.248,0.191 0.384,0.261 0.164,0.084 0.336,0.152 0.497,0.244 C 2.27,0.031 2.34,0.019 2.398,-0.026 2.46,-0.074 2.477,-0.134 2.439,-0.203 2.309,-0.438 2.178,-0.672 2.044,-0.904 1.988,-1.001 1.923,-1.094 1.864,-1.189 1.793,-1.301 1.78,-1.424 1.815,-1.547 c 0.066,-0.236 0.181,-0.451 0.326,-0.646 0.18,-0.239 0.377,-0.466 0.561,-0.702 0.069,-0.089 0.13,-0.186 0.18,-0.287 0.095,-0.194 0.253,-0.339 0.384,-0.504 0.153,-0.195 0.265,-0.403 0.303,-0.649 0.006,-0.035 0.02,-0.069 0.032,-0.103 0.09,-0.268 0.179,-0.537 0.272,-0.804 0.081,-0.234 0.167,-0.467 0.249,-0.7 0.05,-0.141 0.119,-0.28 0.138,-0.425 0.023,-0.17 0.107,-0.311 0.163,-0.465 0.054,-0.15 0.103,-0.302 0.149,-0.455 0.052,-0.172 0.092,-0.349 0.148,-0.52 0.059,-0.181 0.132,-0.356 0.153,-0.549 0.022,-0.202 0.125,-0.294 0.326,-0.29 0.145,0.003 0.268,-0.063 0.373,-0.133 0.184,-0.122 0.371,-0.16 0.583,-0.142 0.097,0.009 0.196,0.006 0.294,0.002 C 6.494,-8.921 6.552,-8.924 6.581,-8.952 6.65,-9.02 6.732,-9.018 6.813,-9.008 7.008,-8.983 7.192,-9.047 7.377,-9.082 7.501,-9.105 7.614,-9.185 7.761,-9.253 7.616,-9.303 7.493,-9.337 7.376,-9.387 7.243,-9.443 7.112,-9.505 6.987,-9.577 6.737,-9.722 6.493,-9.879 6.242,-10.023 6.172,-10.064 6.09,-10.093 6.01,-10.103 5.792,-10.129 5.61,-10.236 5.422,-10.334 5.368,-10.363 5.315,-10.397 5.258,-10.422 5.132,-10.478 5.03,-10.553 4.987,-10.695 4.97,-10.752 4.925,-10.8 4.894,-10.853 4.848,-10.934 4.774,-11.011 4.763,-11.096 4.734,-11.32 4.667,-11.537 4.652,-11.763 4.642,-11.9 4.595,-12.034 4.558,-12.167 c -0.077,-0.284 -0.183,-0.558 -0.227,-0.852 -0.019,-0.135 -0.083,-0.264 -0.125,-0.396 -0.059,-0.187 -0.132,-0.371 -0.17,-0.562 -0.034,-0.171 -0.102,-0.324 -0.165,-0.482 -0.015,-0.038 -0.037,-0.076 -0.043,-0.116 -0.051,-0.363 -0.244,-0.675 -0.364,-1.013 -0.096,-0.269 -0.227,-0.52 -0.378,-0.761 -0.003,-0.004 -0.006,-0.009 -0.007,-0.013 -0.062,-0.253 -0.24,-0.442 -0.363,-0.661 -0.015,-0.027 -0.031,-0.058 -0.055,-0.075 -0.141,-0.1 -0.195,-0.263 -0.292,-0.396 -0.052,-0.073 -0.06,-0.15 -0.016,-0.233 0.039,-0.073 0.072,-0.149 0.108,-0.224 0.104,-0.219 0.207,-0.438 0.314,-0.656 0.022,-0.045 0.056,-0.084 0.083,-0.127 0.04,-0.064 0.078,-0.129 0.121,-0.199 -0.053,-0.035 -0.091,-0.06 -0.129,-0.086 -0.09,-0.065 -0.177,-0.078 -0.287,-0.029 -0.22,0.1 -0.447,0.187 -0.673,0.273 -0.066,0.024 -0.139,0.033 -0.21,0.041 -0.146,0.016 -0.298,-0.034 -0.441,0.043 -0.019,0.011 -0.085,-0.022 -0.097,-0.049 -0.049,-0.119 -0.145,-0.181 -0.247,-0.247 -0.063,-0.041 -0.124,-0.099 -0.162,-0.164 -0.129,-0.216 -0.333,-0.315 -0.561,-0.381 -0.141,-0.04 -0.274,-0.09 -0.371,-0.21 -0.031,-0.038 -0.084,-0.058 -0.126,-0.088 -0.063,-0.044 -0.125,-0.089 -0.187,-0.135 -0.024,-0.019 -0.041,-0.049 -0.067,-0.063 -0.208,-0.111 -0.352,-0.302 -0.544,-0.432 -0.132,-0.089 -0.267,-0.174 -0.402,-0.258 -0.109,-0.067 -0.217,-0.138 -0.332,-0.194 -0.076,-0.038 -0.166,-0.05 -0.247,-0.079 -0.116,-0.043 -0.229,-0.092 -0.345,-0.135 -0.308,-0.114 -0.589,-0.293 -0.914,-0.375 -0.278,-0.07 -0.546,-0.181 -0.822,-0.265 -0.117,-0.036 -0.241,-0.064 -0.363,-0.069 -0.106,-0.004 -0.209,-0.011 -0.297,-0.068 -0.184,-0.122 -0.39,-0.116 -0.597,-0.12 -0.155,-0.003 -0.309,-0.011 -0.436,-0.124 -0.053,-0.047 -0.091,-0.094 -0.089,-0.169 10e-4,-0.04 -0.01,-0.081 -0.022,-0.12 -0.054,-0.182 -0.11,-0.364 -0.166,-0.546 -0.009,-0.029 -0.017,-0.065 -0.038,-0.083 -0.094,-0.08 -0.093,-0.189 -0.105,-0.297 -0.014,-0.128 -0.036,-0.255 -0.055,-0.381 -0.006,-0.041 -0.018,-0.082 -0.02,-0.122 -0.027,-0.441 -0.124,-0.869 -0.236,-1.294 -0.022,-0.084 -0.026,-0.174 -0.046,-0.259 -0.04,-0.165 -0.087,-0.329 -0.127,-0.494 -0.024,-0.1 -0.042,-0.201 -0.061,-0.303 -0.012,-0.066 -0.02,-0.132 -0.031,-0.198 -0.022,-0.132 -0.04,-0.265 -0.068,-0.396 -0.019,-0.088 -0.051,-0.174 -0.077,-0.261 -0.078,0.151 -0.169,0.286 -0.161,0.453 0.004,0.078 10e-4,0.155 0.002,0.233 0,0.026 0.009,0.057 -0.002,0.077 -0.083,0.144 -0.07,0.315 -0.132,0.465 -0.01,0.024 -0.023,0.047 -0.027,0.072 -0.035,0.224 -0.138,0.432 -0.179,0.65 -0.04,0.216 -0.146,0.418 -0.137,0.646 0.004,0.089 -0.045,0.179 -0.07,0.268 -0.054,0.188 -0.115,0.375 -0.158,0.565 -0.046,0.206 -0.066,0.417 -0.113,0.623 -0.061,0.266 -0.138,0.529 -0.207,0.794 -0.018,0.067 -0.064,0.082 -0.129,0.083 -0.335,0.002 -0.671,0.007 -1.007,0.014 -0.061,10e-4 -0.131,0 -0.182,0.028 -0.153,0.086 -0.321,0.063 -0.483,0.084 -0.08,0.01 -0.164,0.025 -0.236,0.059 -0.177,0.086 -0.36,0.127 -0.555,0.119 -0.26,-0.012 -0.495,0.053 -0.721,0.189 -0.247,0.148 -0.51,0.27 -0.766,0.404 -0.041,0.022 -0.083,0.044 -0.121,0.069 -0.137,0.09 -0.269,0.189 -0.411,0.27 -0.097,0.056 -0.211,0.082 -0.311,0.133 -0.16,0.083 -0.326,0.16 -0.42,0.328 -0.008,0.013 -0.019,0.03 -0.031,0.034 -0.157,0.053 -0.24,0.192 -0.352,0.297 -0.019,0.017 -0.036,0.039 -0.059,0.049 -0.357,0.169 -0.612,0.469 -0.915,0.709 -0.132,0.105 -0.25,0.229 -0.38,0.338 -0.079,0.066 -0.167,0.122 -0.252,0.179 -0.02,0.013 -0.054,0.026 -0.072,0.018 -0.092,-0.045 -0.202,-0.078 -0.267,-0.151 -0.125,-0.139 -0.292,-0.21 -0.436,-0.318 -0.152,-0.114 -0.313,-0.217 -0.471,-0.324 -0.077,-0.052 -0.15,-0.112 -0.254,-0.09 -0.024,0.005 -0.057,0.003 -0.074,-0.011 -0.11,-0.082 -0.217,-0.168 -0.324,-0.254 -0.184,-0.148 -0.366,-0.3 -0.553,-0.444 -0.034,-0.027 -0.088,-0.034 -0.133,-0.036 -0.134,-0.005 -0.223,0.128 -0.161,0.246 0.036,0.069 0.082,0.126 0.056,0.214 -0.007,0.026 0.029,0.079 0.058,0.098 0.155,0.095 0.228,0.256 0.302,0.405 0.114,0.229 0.263,0.431 0.421,0.627 0.117,0.144 0.246,0.279 0.368,0.419 0.017,0.019 0.04,0.04 0.043,0.062 0.036,0.268 0.229,0.47 0.293,0.751 -0.021,0.031 -0.055,0.082 -0.091,0.131 -0.173,0.238 -0.348,0.474 -0.52,0.712 -0.021,0.029 -0.032,0.066 -0.048,0.098 -0.109,0.215 -0.23,0.421 -0.404,0.596 -0.085,0.086 -0.142,0.201 -0.205,0.308 -0.053,0.088 -0.097,0.182 -0.139,0.276 -0.025,0.056 -0.055,0.117 -0.055,0.175 0,0.097 -0.024,0.183 -0.074,0.263 -0.109,0.176 -0.116,0.371 -0.117,0.568 -0.001,0.061 -0.017,0.121 -0.028,0.181 -0.009,0.05 -0.02,0.101 -0.034,0.15 -0.063,0.234 -0.127,0.467 -0.192,0.7 -0.01,0.034 -0.04,0.065 -0.043,0.099 -0.015,0.226 -0.129,0.434 -0.122,0.664 0,0.03 0.002,0.067 -0.014,0.089 -0.069,0.101 -0.067,0.214 -0.071,0.328 -0.004,0.101 0.007,0.207 -0.052,0.3 -0.008,0.012 -0.007,0.03 -0.007,0.045 -0.003,0.248 -0.045,0.491 -0.092,0.733 -0.006,0.031 0.005,0.072 -0.012,0.091 -0.095,0.11 -0.072,0.243 -0.078,0.37 -0.003,0.072 0.007,0.146 -0.006,0.217 -0.013,0.075 -0.046,0.146 -0.074,0.229 -0.143,0.004 -0.269,0.052 -0.37,0.158 -0.016,0.017 -0.045,0.027 -0.069,0.032 -0.175,0.037 -0.352,0.066 -0.526,0.11 -0.103,0.026 -0.199,0.081 -0.302,0.111 -0.187,0.054 -0.377,0.101 -0.566,0.15 -0.05,0.013 -0.1,0.024 -0.15,0.035 -0.382,0.081 -0.76,0.191 -1.157,0.15 -0.049,-0.006 -0.1,-10e-4 -0.157,-10e-4 0.002,0.109 0.064,0.161 0.135,0.205 0.091,0.056 0.193,0.072 0.298,0.066 0.116,-0.006 0.224,0.014 0.333,0.056 0.08,0.03 0.172,0.031 0.259,0.036 0.098,0.006 0.196,10e-4 0.295,10e-4 0.036,0.001 0.073,-10e-4 0.107,0.009 0.162,0.048 0.32,0.112 0.484,0.146 0.188,0.04 0.361,0.117 0.538,0.185 0.094,0.036 0.161,0.122 0.273,0.132 0.107,0.01 0.213,0.035 0.316,0.065 0.107,0.032 0.219,0.064 0.313,0.122 0.093,0.056 0.177,0.074 0.28,0.032 0.077,0.137 0.138,0.268 0.124,0.427 -0.009,0.102 0.007,0.207 0.003,0.31 -0.005,0.117 0.012,0.227 0.081,0.324 0.006,0.009 0.011,0.018 0.014,0.028 0.038,0.17 0.077,0.339 0.116,0.509 0.01,0.045 0.019,0.091 0.036,0.134 0.077,0.19 0.16,0.379 0.236,0.57 0.094,0.239 0.149,0.489 0.205,0.739 0.007,0.03 0.013,0.062 0.029,0.088 0.171,0.278 0.218,0.611 0.389,0.89 0.061,0.1 0.089,0.22 0.141,0.327 0.115,0.236 0.234,0.471 0.356,0.704 0.051,0.099 0.099,0.199 0.197,0.27 0.04,0.03 0.058,0.109 0.06,0.167 0.006,0.155 -0.023,0.313 -0.001,0.465 0.029,0.204 -0.086,0.331 -0.184,0.483 -0.177,0.273 -0.342,0.554 -0.493,0.842 -0.162,0.308 -0.325,0.611 -0.57,0.864 -0.049,0.051 -0.09,0.113 -0.13,0.173 -0.216,0.329 -0.446,0.646 -0.701,0.946 -0.1,0.117 -0.175,0.255 -0.26,0.384 -0.159,0.242 -0.317,0.484 -0.473,0.727 -0.03,0.046 -0.047,0.101 -0.075,0.165 0.141,0.005 0.255,0.014 0.372,-0.079 0.161,-0.127 0.35,-0.218 0.525,-0.328 0.069,-0.044 0.139,-0.091 0.197,-0.148 0.191,-0.188 0.371,-0.389 0.608,-0.526 0.048,-0.028 0.082,-0.079 0.127,-0.113 0.066,-0.049 0.13,-0.109 0.206,-0.134 0.143,-0.049 0.245,-0.144 0.353,-0.242 0.119,-0.106 0.257,-0.189 0.385,-0.285 0.153,-0.114 0.312,-0.222 0.453,-0.349 0.258,-0.232 0.552,-0.393 0.878,-0.503 0.077,-0.026 0.146,-0.077 0.213,-0.124 l 0.659,-0.403 0.133,-0.848 c -0.203,-0.157 -0.039,-0.165 -0.211,-0.365 -0.108,-0.127 -0.215,-0.264 -0.375,-0.343 -0.067,-0.033 -0.119,-0.097 -0.18,-0.145 -0.144,-0.114 -0.252,-0.274 -0.435,-0.341 -0.025,-0.009 -0.046,-0.041 -0.059,-0.067 -0.124,-0.25 -0.237,-0.505 -0.371,-0.749 -0.274,-0.496 -0.475,-1.019 -0.627,-1.562 -0.036,-0.128 -0.096,-0.229 -0.23,-0.255 -0.018,-0.089 -0.018,-0.179 -0.055,-0.248 -0.155,-0.284 -0.218,-0.601 -0.323,-0.902 -0.055,-0.159 -0.07,-0.332 -0.104,-0.498 -0.019,-0.09 -0.038,-0.18 -0.06,-0.27 -0.039,-0.164 -0.095,-0.326 -0.115,-0.493 -0.02,-0.158 -0.004,-0.32 -0.002,-0.48 0.004,-0.392 0.009,-0.785 0.012,-1.177 0.003,-0.356 0.004,-0.711 0.005,-1.067 0,-0.252 0.015,-0.506 -0.006,-0.757 -0.023,-0.26 0.118,-0.489 0.113,-0.742 -10e-4,-0.005 0.005,-0.009 0.007,-0.014 0.025,-0.099 0.049,-0.198 0.074,-0.297 0.011,-0.044 0.018,-0.091 0.035,-0.133 0.034,-0.081 0.092,-0.156 0.108,-0.239 0.038,-0.201 0.095,-0.397 0.143,-0.595 0.03,-0.125 0.049,-0.256 0.106,-0.368 0.062,-0.123 0.054,-0.249 0.079,-0.373 0.024,-0.123 0.111,-0.231 0.097,-0.369 -0.005,-0.052 0.012,-0.112 0.036,-0.161 0.095,-0.201 0.186,-0.402 0.208,-0.627 0.003,-0.035 0.015,-0.072 0.032,-0.102 0.12,-0.21 0.194,-0.446 0.366,-0.627 0.07,-0.074 0.124,-0.165 0.192,-0.242 0.174,-0.197 0.351,-0.39 0.528,-0.583 0.11,-0.121 0.26,-0.205 0.335,-0.361 0.013,-0.027 0.037,-0.051 0.061,-0.07 0.148,-0.112 0.297,-0.223 0.445,-0.334 0.042,-0.031 0.088,-0.057 0.125,-0.092 0.119,-0.113 0.232,-0.232 0.352,-0.345 0.082,-0.077 0.172,-0.146 0.258,-0.219 0.177,-0.15 0.345,-0.312 0.573,-0.389 0.057,-0.02 0.112,-0.053 0.162,-0.09 0.103,-0.077 0.197,-0.166 0.303,-0.239 0.097,-0.067 0.198,-0.142 0.309,-0.174 0.316,-0.094 0.58,-0.261 0.802,-0.503 0.02,-0.022 0.046,-0.045 0.074,-0.053 0.329,-0.093 0.625,-0.299 0.984,-0.299 0.049,0 0.098,-0.03 0.147,-0.046 0.237,-0.077 0.476,-0.132 0.728,-0.111 0.123,0.011 0.248,0.006 0.371,0.001 0.044,-0.002 0.091,-0.019 0.13,-0.04 0.174,-0.092 0.357,-0.158 0.555,-0.164 0.232,-0.008 0.465,-0.005 0.698,-0.006 0.129,0 0.255,-10e-4 0.38,-0.052 0.084,-0.033 0.183,-0.036 0.275,-0.037 0.496,-0.003 0.993,-0.003 1.49,0 0.081,0.001 0.165,0.016 0.243,0.04 0.128,0.038 0.253,0.087 0.379,0.135 0.234,0.09 0.473,0.133 0.726,0.103 0.105,-0.013 0.217,0.003 0.323,0.021 0.228,0.039 0.456,0.082 0.681,0.135 0.124,0.03 0.255,0.062 0.361,0.129 0.195,0.124 0.368,0.281 0.601,0.339 0.042,0.011 0.08,0.048 0.112,0.08 0.079,0.079 0.17,0.131 0.276,0.166 0.077,0.025 0.152,0.064 0.223,0.105 0.246,0.139 0.466,0.321 0.73,0.431 0.092,0.038 0.175,0.087 0.28,0.061 0.022,-0.006 0.054,0 0.072,0.014 0.103,0.076 0.207,0.153 0.305,0.237 0.098,0.083 0.185,0.179 0.285,0.26 0.176,0.143 0.368,0.268 0.535,0.42 0.225,0.203 0.435,0.424 0.649,0.64 0.069,0.069 0.129,0.147 0.194,0.22 0.18,0.204 0.395,0.381 0.48,0.656 0.01,0.033 0.035,0.063 0.056,0.092 0.125,0.178 0.239,0.361 0.29,0.577 0.013,0.054 0.041,0.109 0.077,0.151 0.18,0.204 0.287,0.452 0.411,0.688 0.045,0.087 0.075,0.181 0.112,0.271 0.084,0.2 0.167,0.4 0.252,0.599 0.035,0.08 0.071,0.16 0.114,0.235 0.082,0.145 0.154,0.289 0.165,0.462 0.006,0.094 0.044,0.19 0.086,0.278 0.078,0.164 0.154,0.332 0.168,0.512 0.027,0.339 0.192,0.654 0.172,1.001 -10e-4,0.024 0.016,0.049 0.021,0.074 0.034,0.146 0.072,0.29 0.097,0.437 0.022,0.132 0.012,0.27 0.044,0.399 0.057,0.238 0.082,0.476 0.072,0.721 -0.004,0.095 0.017,0.197 0.051,0.286 0.034,0.09 0.056,0.175 0.043,0.271 -0.007,0.055 0.001,0.113 -10e-4,0.17 -0.004,0.128 0.004,0.26 -0.02,0.385 -0.05,0.263 -0.115,0.523 -0.177,0.783 -0.027,0.115 -0.059,0.23 -0.092,0.343 -0.067,0.233 -0.139,0.464 -0.204,0.697 -0.065,0.233 -0.115,0.471 -0.189,0.701 -0.04,0.126 -0.067,0.248 -0.058,0.38 C 2.821,-6.103 2.816,-6.044 2.8,-5.99 2.74,-5.788 2.674,-5.587 2.61,-5.386 2.576,-5.278 2.543,-5.169 2.504,-5.063 2.42,-4.836 2.34,-4.606 2.243,-4.385 2.162,-4.201 2.066,-4.023 1.964,-3.849 1.868,-3.685 1.754,-3.531 1.648,-3.372 1.602,-3.304 1.563,-3.228 1.505,-3.17 1.317,-2.981 1.112,-2.806 1.034,-2.536 1.031,-2.526 1.022,-2.519 1.017,-2.51 0.898,-2.298 0.682,-2.174 0.54,-1.983 c -0.008,0.011 -0.025,0.021 -0.039,0.024 -0.159,0.036 -0.148,0.004 -0.245,0.131 -0.03,0.04 -0.078,0.067 -0.118,0.1 -0.163,0.135 -0.333,0.136 -0.488,0.279"
             style="fill:#fff;fill-opacity:1;fill-rule:nonzero;stroke:none"
             id="path5897"
             inkscape:connector-curvature="0" />
        </g>
        <g
           id="g5899"
           transform="translate(406.3692,263.0604)">
          <path
             d="M 0,0 C -0.003,-0.019 -0.005,-0.037 -0.008,-0.056 0.041,-0.086 0.09,-0.115 0.139,-0.145 0.15,-0.139 0.161,-0.132 0.173,-0.126 0.164,-0.088 0.167,-0.029 0.144,-0.017 0.104,0.004 0.049,-0.004 0,0 M 2.597,0.504 C 2.645,0.403 2.684,0.321 2.729,0.224 2.83,0.386 2.796,0.462 2.597,0.504 m 0.5,-2.341 C 3.304,-1.723 3.403,-1.461 3.31,-1.333 3.242,-1.493 3.178,-1.646 3.097,-1.837 M 0.548,3.185 C 0.557,3.196 0.565,3.207 0.574,3.218 0.57,3.236 0.568,3.254 0.562,3.271 0.44,3.59 0.24,3.859 0.014,4.111 -0.192,4.341 -0.387,4.579 -0.511,4.868 -0.551,4.962 -0.614,5.047 -0.666,5.136 -0.681,5.133 -0.695,5.129 -0.71,5.126 -0.734,5.041 -0.749,4.953 -0.785,4.874 -0.833,4.769 -0.826,4.687 -0.764,4.584 -0.714,4.502 -0.715,4.39 -0.695,4.29 -0.683,4.232 -0.69,4.131 -0.661,4.12 -0.478,4.051 -0.374,3.897 -0.242,3.771 -0.137,3.67 -0.018,3.582 0.101,3.496 0.247,3.389 0.399,3.289 0.548,3.185 M 0.456,-2.199 C 0.44,-2.198 0.425,-2.196 0.41,-2.195 0.374,-2.353 0.324,-2.509 0.308,-2.669 0.285,-2.895 0.3,-3.125 0.277,-3.351 0.265,-3.474 0.285,-3.567 0.359,-3.667 0.486,-3.841 0.607,-4.022 0.709,-4.211 0.793,-4.364 0.844,-4.534 0.912,-4.696 0.926,-4.729 0.95,-4.759 0.969,-4.79 c 0.019,0.005 0.038,0.011 0.056,0.016 -0.013,0.108 -0.027,0.216 -0.04,0.324 -0.028,0.22 -0.061,0.439 -0.082,0.66 -0.012,0.132 0.004,0.267 -0.009,0.399 -0.024,0.238 0.026,0.485 -0.149,0.7 -0.119,0.146 -0.195,0.327 -0.289,0.492 m 1.833,-3.339 c 0.012,-0.011 0.024,-0.023 0.037,-0.034 0.047,0.045 0.097,0.088 0.142,0.135 0.116,0.125 0.194,0.275 0.381,0.344 0.12,0.044 0.261,0.194 0.28,0.314 0.058,0.36 0.06,0.728 0.087,1.093 0.007,0.094 0.022,0.187 0.036,0.28 0.034,0.217 0.069,0.435 0.104,0.652 -0.02,0.01 -0.04,0.02 -0.06,0.029 C 3.204,-2.833 3.101,-2.933 3.023,-3.05 2.916,-3.211 2.872,-3.234 2.709,-3.161 2.686,-3.151 2.642,-3.146 2.632,-3.158 2.615,-3.179 2.6,-3.226 2.612,-3.243 2.75,-3.452 2.706,-3.696 2.75,-3.922 2.792,-4.135 2.733,-4.342 2.611,-4.515 2.393,-4.825 2.325,-5.175 2.289,-5.538 M 1.536,-6.342 c 0.015,10e-4 0.029,0.003 0.044,0.004 0.01,0.02 0.028,0.04 0.031,0.061 0.049,0.362 0.098,0.724 0.144,1.086 0.005,0.041 0.001,0.088 -0.014,0.127 -0.123,0.311 -0.003,0.585 0.144,0.845 0.066,0.116 0.08,0.218 0.067,0.346 -0.027,0.25 -0.034,0.502 -0.038,0.753 -0.002,0.146 0.026,0.292 0.024,0.438 0,0.034 -0.064,0.092 -0.102,0.096 C 1.694,-2.574 1.551,-2.769 1.568,-2.908 1.584,-3.046 1.584,-3.189 1.566,-3.326 1.558,-3.386 1.472,-3.433 1.451,-3.496 1.403,-3.642 1.348,-3.793 1.341,-3.944 1.333,-4.116 1.381,-4.289 1.394,-4.462 1.42,-4.803 1.44,-5.144 1.457,-5.486 1.464,-5.625 1.506,-5.79 1.448,-5.898 1.336,-6.104 1.514,-6.195 1.536,-6.342 m 0.887,5.541 c 0.018,0.004 0.035,0.009 0.053,0.014 C 2.453,-0.678 2.44,-0.565 2.406,-0.46 2.371,-0.354 2.313,-0.254 2.267,-0.151 2.227,-0.059 2.212,0.082 2.144,0.116 2.026,0.174 1.964,0.027 1.89,-0.046 1.826,-0.11 1.751,-0.183 1.73,-0.265 1.673,-0.492 1.64,-0.726 1.6,-0.957 1.59,-1.018 1.599,-1.084 1.579,-1.14 1.501,-1.36 1.473,-1.558 1.611,-1.783 1.688,-1.909 1.77,-1.999 1.892,-2.06 c 0.166,-0.085 0.225,-0.06 0.276,0.122 0.03,0.105 0.07,0.17 0.198,0.18 0.144,0.011 0.26,0.263 0.215,0.402 -0.059,0.183 -0.106,0.37 -0.158,0.555 M -0.02,0.503 c 0.001,0.005 0.002,0.01 0.003,0.016 0.085,0 0.175,-0.016 0.256,0.002 C 0.482,0.578 0.722,0.646 0.962,0.715 1.046,0.74 1.047,0.815 0.978,0.88 0.912,0.944 0.855,1.019 0.791,1.085 0.734,1.144 0.674,1.201 0.612,1.255 0.48,1.369 0.316,1.46 0.218,1.598 0.06,1.82 -0.181,1.854 -0.402,1.921 -0.552,1.966 -0.679,2.015 -0.794,2.124 -0.928,2.249 -1.074,2.364 -1.229,2.46 -1.369,2.546 -1.441,2.487 -1.441,2.326 -1.441,2.234 -1.464,2.142 -1.48,2.05 -1.495,1.963 -1.529,1.877 -1.528,1.792 -1.526,1.69 -1.509,1.583 -1.474,1.488 -1.418,1.336 -1.374,1.161 -1.267,1.053 -1.108,0.892 -0.898,0.78 -0.709,0.649 -0.686,0.633 -0.66,0.617 -0.634,0.613 -0.429,0.575 -0.225,0.539 -0.02,0.503 M 2.871,0.7 C 2.921,0.654 2.953,0.601 2.997,0.588 3.226,0.516 3.466,0.473 3.689,0.384 3.953,0.278 4.159,0.362 4.338,0.538 4.591,0.789 4.853,1.016 5.168,1.196 5.353,1.301 5.478,1.52 5.612,1.702 5.715,1.84 5.793,1.997 5.876,2.15 5.928,2.245 5.897,2.318 5.791,2.345 5.627,2.387 5.463,2.425 5.298,2.458 5.248,2.468 5.192,2.463 5.142,2.454 4.938,2.415 4.733,2.377 4.532,2.328 4.439,2.305 4.345,2.269 4.263,2.22 4.055,2.096 3.852,1.962 3.649,1.831 3.615,1.809 3.571,1.78 3.561,1.747 3.467,1.392 3.247,1.125 2.982,0.885 2.938,0.846 2.917,0.78 2.871,0.7 m -5.716,4.004 h 0.058 c 0.01,0.219 0.064,0.449 0.019,0.656 -0.079,0.363 -0.085,0.725 -0.11,1.09 -0.01,0.143 -0.071,0.292 -0.143,0.417 -0.103,0.178 -0.246,0.341 -0.211,0.561 0.021,0.136 0.081,0.269 0.137,0.398 0.046,0.107 0.079,0.201 0.028,0.322 -0.08,0.187 -0.033,0.358 0.102,0.514 0.116,0.134 0.263,0.195 0.423,0.25 0.093,0.032 0.177,0.091 0.274,0.143 -0.003,0.006 0.019,-0.017 0.02,-0.041 C -2.24,8.793 -2.297,8.596 -2.495,8.472 -2.582,8.417 -2.615,8.353 -2.553,8.276 -2.478,8.182 -2.472,8.087 -2.501,7.982 -2.54,7.841 -2.586,7.702 -2.619,7.559 -2.643,7.461 -2.618,7.365 -2.498,7.365 c 0.101,0 0.134,0.083 0.14,0.18 0.005,0.078 0.017,0.159 0.043,0.233 0.058,0.174 0.135,0.341 0.189,0.516 0.104,0.333 0.208,0.659 0.482,0.904 0.052,0.046 0.078,0.156 0.069,0.23 -0.032,0.253 -0.077,0.505 -0.132,0.754 -0.059,0.263 -0.136,0.522 -0.208,0.782 -0.011,0.043 -0.036,0.082 -0.055,0.123 -0.039,-0.03 -0.083,-0.055 -0.115,-0.091 C -2.317,10.735 -2.536,10.46 -2.78,10.211 -3.049,9.937 -3.376,9.72 -3.487,9.314 -3.557,9.055 -3.699,8.816 -3.66,8.532 -3.614,8.203 -3.577,7.872 -3.532,7.543 -3.471,7.102 -3.346,6.676 -3.203,6.255 -3.152,6.104 -3.1,5.952 -3.067,5.797 -3.006,5.505 -2.96,5.21 -2.904,4.917 -2.89,4.845 -2.865,4.775 -2.845,4.704 m 1.802,-7.231 c 0,0.104 0.012,0.211 -0.003,0.314 -0.024,0.162 -0.071,0.32 -0.1,0.482 -0.019,0.111 0.017,0.206 0.156,0.291 0.1,-0.18 0.206,-0.351 0.291,-0.531 0.065,-0.137 0.101,-0.287 0.158,-0.428 0.015,-0.037 0.059,-0.063 0.09,-0.095 0.024,0.037 0.058,0.071 0.069,0.111 0.056,0.209 0.098,0.422 0.161,0.629 0.033,0.105 0.114,0.195 0.149,0.3 0.07,0.21 0.01,0.388 -0.161,0.534 -0.245,0.208 -0.498,0.409 -0.723,0.637 -0.187,0.189 -0.446,0.192 -0.659,0.308 -0.233,0.126 -0.483,0.221 -0.725,0.33 -0.021,0.009 -0.048,0.016 -0.062,0.033 -0.214,0.257 -0.528,0.337 -0.812,0.47 -0.199,0.092 -0.251,0.347 -0.131,0.534 0.317,0.497 0.676,0.971 0.882,1.532 0.042,0.114 0.059,0.239 0.069,0.361 C -2.39,3.332 -2.427,3.394 -2.463,3.43 -2.521,3.487 -2.572,3.494 -2.599,3.386 -2.667,3.109 -2.89,2.775 -3.1,2.625 c -0.043,0.128 -0.095,0.24 -0.064,0.382 0.077,0.352 0.127,0.711 0.069,1.069 -0.025,0.153 -0.11,0.3 -0.186,0.441 -0.17,0.313 -0.32,0.631 -0.395,0.985 -0.081,0.384 -0.225,0.744 -0.517,1.027 -0.376,0.364 -0.532,0.836 -0.631,1.332 -0.082,0.405 -0.087,0.816 -0.021,1.222 0.032,0.193 0.114,0.378 0.18,0.565 0.068,0.191 0.131,0.385 0.219,0.567 0.072,0.146 0.163,0.289 0.272,0.409 0.28,0.311 0.566,0.617 0.866,0.909 0.199,0.192 0.116,0.475 0.011,0.653 -0.125,0.212 -0.289,0.404 -0.385,0.628 -0.146,0.34 -0.08,0.673 0.198,0.926 0.188,0.17 0.338,0.343 0.411,0.596 0.051,0.177 0.156,0.348 0.272,0.494 0.176,0.221 0.131,0.442 0.029,0.653 -0.142,0.294 -0.135,0.591 -0.074,0.892 0.017,0.08 0.037,0.195 0.177,0.184 0.133,-0.009 0.171,-0.092 0.174,-0.201 0.008,-0.303 0.114,-0.58 0.203,-0.865 0.072,-0.233 0.09,-0.492 -0.037,-0.71 -0.148,-0.255 -0.202,-0.53 -0.246,-0.808 -0.041,-0.258 -0.129,-0.488 -0.316,-0.67 -0.133,-0.13 -0.139,-0.247 -0.046,-0.416 0.127,-0.229 0.244,-0.456 0.519,-0.552 0.08,-0.028 0.137,-0.124 0.205,-0.19 0.075,-0.072 0.144,-0.15 0.227,-0.21 0.02,-0.015 0.113,0.022 0.124,0.052 0.138,0.404 0.397,0.707 0.747,0.945 0.253,0.172 0.297,0.443 0.153,0.716 -0.157,0.298 -0.347,0.587 -0.444,0.904 -0.093,0.301 -0.123,0.637 0.102,0.922 0.094,0.118 0.196,0.232 0.278,0.357 0.047,0.071 0.08,0.16 0.088,0.245 0.034,0.342 0.113,0.668 0.229,0.994 0.091,0.255 0.114,0.536 0.159,0.807 0.05,0.299 0.087,0.601 0.135,0.901 0.047,0.295 0.098,0.59 0.155,0.883 0.009,0.043 0.063,0.111 0.095,0.11 0.067,-0.003 0.172,-0.026 0.191,-0.07 0.062,-0.147 0.128,-0.307 0.13,-0.462 C 0.161,18.718 0.16,18.193 0.121,17.671 0.099,17.36 -0.008,17.056 -0.058,16.745 -0.081,16.602 -0.07,16.45 -0.053,16.304 -0.024,16.041 0.043,15.78 0.05,15.517 0.054,15.387 -0.03,15.249 -0.094,15.126 -0.136,15.045 -0.171,14.994 -0.109,14.898 0.099,14.58 0.278,14.246 0.377,13.876 0.394,13.812 0.407,13.746 0.409,13.68 0.416,13.453 0.418,13.227 0.419,13 c 0,-0.032 -0.024,-0.064 -0.022,-0.095 0.004,-0.064 0.018,-0.127 0.028,-0.191 0.06,0.015 0.157,0.013 0.173,0.048 0.064,0.141 0.229,0.12 0.318,0.218 0.019,0.02 0.131,-0.016 0.175,-0.054 0.093,-0.08 0.164,-0.185 0.254,-0.268 0.047,-0.045 0.117,-0.097 0.174,-0.094 0.418,0.023 0.672,-0.228 0.892,-0.527 0.098,-0.133 0.186,-0.28 0.243,-0.434 0.054,-0.149 0.08,-0.314 0.081,-0.472 0.002,-0.153 0.062,-0.221 0.202,-0.221 0.257,0 0.384,-0.195 0.54,-0.347 0.034,-0.034 0.063,-0.074 0.124,-0.146 0.01,0.089 0.023,0.134 0.018,0.177 -0.026,0.22 -0.054,0.433 -0.114,0.652 -0.098,0.36 -0.217,0.737 -0.134,1.122 0.043,0.203 0.121,0.399 0.194,0.595 0.035,0.095 0.092,0.16 0.226,0.135 0.055,-0.01 0.169,0.073 0.188,0.136 0.05,0.154 0.068,0.32 0.085,0.483 0.016,0.16 -0.001,0.325 0.029,0.481 0.016,0.082 0.089,0.165 0.158,0.219 0.104,0.08 0.234,0.045 0.264,-0.08 0.093,-0.397 0.282,-0.78 0.158,-1.211 -0.029,-0.104 0.046,-0.235 0.052,-0.354 0.008,-0.136 -0.013,-0.273 -0.012,-0.409 0,-0.223 0,-0.447 0.014,-0.669 0.014,-0.218 0.054,-0.433 0.066,-0.651 0.014,-0.256 0.012,-0.513 0.017,-0.77 0,-0.014 0.005,-0.031 -10e-4,-0.042 C 4.664,9.954 4.775,9.649 4.712,9.365 4.66,9.131 4.588,8.902 4.527,8.67 4.508,8.599 4.485,8.527 4.481,8.454 4.475,8.355 4.491,8.254 4.487,8.154 4.483,8.035 4.503,7.935 4.598,7.848 4.662,7.788 4.694,7.696 4.751,7.627 4.778,7.595 4.834,7.565 4.87,7.571 4.901,7.577 4.924,7.635 4.946,7.673 5.048,7.848 5.136,8.032 5.254,8.195 5.318,8.284 5.349,8.359 5.336,8.467 5.307,8.718 5.292,8.97 5.263,9.22 5.251,9.323 5.218,9.423 5.191,9.524 5.095,9.887 5.133,10.237 5.284,10.58 c 0.042,0.098 0.051,0.21 0.075,0.316 0.007,0.033 0.001,0.073 0.018,0.097 0.117,0.165 0.103,0.351 0.098,0.537 -0.011,0.371 0.093,0.719 0.19,1.071 0.046,0.163 0.025,0.35 0.008,0.523 -0.035,0.34 -0.063,0.685 -0.146,1.015 -0.035,0.141 -0.177,0.298 -0.311,0.362 -0.28,0.134 -0.402,0.369 -0.472,0.628 -0.066,0.245 -0.089,0.507 -0.093,0.762 -0.006,0.408 0.099,0.785 0.395,1.093 0.19,0.198 0.176,0.441 0.144,0.696 -0.058,0.459 -0.269,0.893 -0.233,1.368 0.009,0.123 0.013,0.248 0.043,0.367 0.011,0.045 0.088,0.1 0.136,0.101 0.056,0.001 0.149,-0.041 0.163,-0.084 C 5.362,19.23 5.4,19.021 5.455,18.816 5.502,18.639 5.558,18.465 5.613,18.29 5.743,17.87 5.892,17.454 6.001,17.028 6.051,16.832 6.061,16.624 5.961,16.414 5.901,16.288 5.927,16.119 5.927,15.969 5.926,15.697 5.934,15.425 5.939,15.154 5.939,15.139 5.942,15.124 5.938,15.111 5.759,14.653 6.031,14.292 6.187,13.902 6.242,13.765 6.28,13.608 6.276,13.462 6.265,13.13 6.233,12.798 6.192,12.468 6.169,12.288 6.111,12.113 6.07,11.935 5.999,11.629 6.008,11.338 6.124,11.033 6.24,10.727 6.403,10.434 6.419,10.088 6.43,9.865 6.547,9.648 6.566,9.423 6.589,9.151 6.568,8.874 6.547,8.6 6.54,8.508 6.54,8.448 6.621,8.395 6.756,8.307 6.886,8.21 7.02,8.12 7.085,8.077 7.131,8.096 7.135,8.178 7.154,8.532 7.15,8.883 7.007,9.216 6.8,9.703 6.849,10.176 7.064,10.647 c 0.096,0.21 0.178,0.426 0.254,0.643 0.023,0.067 0.023,0.152 0.007,0.223 -0.045,0.193 -0.009,0.368 0.083,0.537 0.005,0.008 0.008,0.019 0.016,0.024 0.185,0.129 0.357,-10e-4 0.534,-0.029 0.105,-0.016 0.075,-0.101 0.078,-0.17 0.012,-0.25 0.036,-0.501 0.035,-0.751 C 8.07,10.946 8.056,10.763 8.01,10.592 7.935,10.314 7.879,10.039 7.935,9.753 7.95,9.671 7.992,9.595 8.018,9.515 8.054,9.405 8.114,9.293 8.115,9.181 8.117,8.863 8.157,8.527 8.068,8.231 7.957,7.859 8.015,7.487 7.954,7.119 7.937,7.021 7.988,6.912 7.985,6.809 7.977,6.563 7.955,6.318 7.939,6.073 7.926,5.883 7.917,5.693 7.899,5.504 7.889,5.401 7.859,5.299 7.846,5.195 7.781,4.682 7.723,4.168 7.651,3.656 7.633,3.522 7.569,3.395 7.537,3.262 7.427,2.816 7.319,2.37 7.216,1.922 7.174,1.742 7.073,1.61 6.929,1.499 6.883,1.463 6.832,1.411 6.818,1.356 6.778,1.196 6.735,1.032 6.728,0.868 6.711,0.459 6.622,0.084 6.345,-0.236 6.267,-0.327 6.23,-0.454 6.174,-0.564 6.07,-0.765 5.917,-0.812 5.717,-0.705 5.56,-0.622 5.271,-0.682 5.096,-0.825 4.971,-0.926 4.837,-1.016 4.709,-1.113 4.677,-1.138 4.638,-1.166 4.623,-1.202 4.559,-1.348 4.499,-1.391 4.336,-1.353 4.233,-1.328 4.215,-1.368 4.224,-1.451 4.229,-1.507 4.236,-1.565 4.252,-1.619 4.3,-1.789 4.273,-1.949 4.2,-2.105 4.182,-2.143 4.165,-2.188 4.169,-2.228 4.204,-2.557 4.044,-2.85 4.001,-3.164 3.98,-3.319 3.939,-3.472 3.919,-3.627 3.914,-3.663 3.953,-3.705 3.972,-3.744 c 0.036,0.019 0.083,0.031 0.103,0.06 0.027,0.042 0.037,0.096 0.049,0.146 0.054,0.241 0.11,0.481 0.16,0.722 0.035,0.172 0.059,0.346 0.092,0.519 0.019,0.097 0.035,0.198 0.075,0.286 0.026,0.056 0.095,0.093 0.145,0.138 0.082,0.076 0.162,0.155 0.248,0.227 0.048,0.04 0.106,0.069 0.16,0.104 C 5.042,-1.609 5.105,-1.674 5.113,-1.744 5.122,-1.821 5.102,-1.922 5.056,-1.982 4.897,-2.185 4.818,-2.411 4.785,-2.664 4.738,-3.027 4.649,-3.387 4.632,-3.75 4.616,-4.083 4.516,-4.378 4.397,-4.68 4.283,-4.97 4.077,-5.18 3.873,-5.397 3.776,-5.5 3.677,-5.603 3.589,-5.713 3.481,-5.846 3.367,-5.947 3.177,-5.901 3.138,-5.892 3.084,-5.912 3.047,-5.935 2.891,-6.033 2.735,-6.132 2.586,-6.239 2.538,-6.274 2.496,-6.33 2.473,-6.386 2.363,-6.651 2.286,-6.933 2.148,-7.182 2.022,-7.411 1.745,-7.488 1.497,-7.339 c -0.213,0.128 -0.416,0.272 -0.619,0.416 -0.062,0.043 -0.118,0.1 -0.162,0.16 -0.149,0.207 -0.291,0.419 -0.438,0.627 -0.095,0.135 -0.204,0.261 -0.291,0.402 -0.086,0.138 -0.15,0.291 -0.229,0.434 -0.045,0.081 -0.095,0.162 -0.158,0.228 -0.166,0.174 -0.293,0.369 -0.304,0.61 -0.012,0.257 -0.136,0.47 -0.224,0.698 -0.017,0.044 -0.038,0.095 -0.029,0.137 0.035,0.161 -0.045,0.259 -0.16,0.349 -0.15,0.118 -0.299,0.237 -0.439,0.367 -0.263,0.244 -0.437,0.547 -0.452,0.908 -0.015,0.341 -0.127,0.636 -0.334,0.897 -0.085,0.107 -0.102,0.214 -0.048,0.33 0.021,0.046 0.071,0.097 0.115,0.105 0.033,0.006 0.081,-0.05 0.117,-0.084 0.107,-0.102 0.204,-0.216 0.32,-0.305 0.063,-0.048 0.16,-0.047 0.234,-0.084 0.042,-0.021 0.085,-0.071 0.097,-0.116 0.088,-0.315 0.18,-0.629 0.19,-0.962 0.004,-0.135 0.081,-0.25 0.274,-0.305"
             style="fill:#fff;fill-opacity:1;fill-rule:nonzero;stroke:none"
             id="path5901"
             inkscape:connector-curvature="0" />
        </g>
        <g
           id="g5903"
           transform="translate(408.7647,282.3948)">
          <path
             d="M 0,0 C 0.015,-0.223 0.021,-0.447 0.047,-0.668 0.082,-0.956 0.011,-1.23 -0.072,-1.495 -0.161,-1.78 -0.069,-2.04 -0.03,-2.309 -0.003,-2.5 0.036,-2.691 0.081,-2.879 0.114,-3.019 0.159,-3.157 0.213,-3.29 0.295,-3.491 0.38,-3.693 0.481,-3.885 0.531,-3.978 0.614,-4.057 0.695,-4.128 0.988,-4.383 1.02,-4.725 0.991,-5.07 0.956,-5.485 0.751,-5.811 0.395,-6.039 c -0.296,-0.19 -0.798,-0.153 -1.064,0.081 -0.063,0.055 -0.169,0.077 -0.204,0.142 -0.058,0.11 -0.076,0.24 -0.109,0.362 -0.067,0.25 0.011,0.462 0.156,0.666 0.117,0.165 0.072,0.335 -0.063,0.483 -0.271,0.298 -0.455,0.651 -0.68,0.977 -0.316,0.458 -0.218,0.917 -0.042,1.383 0.093,0.246 0.264,0.431 0.449,0.613 0.175,0.171 0.338,0.36 0.477,0.561 0.062,0.089 0.061,0.225 0.078,0.342 0.035,0.248 0.056,0.499 0.097,0.746 0.031,0.186 0.076,0.37 0.13,0.551 0.016,0.053 0.081,0.121 0.13,0.127 C -0.206,1 -0.13,0.939 -0.109,0.89 -0.056,0.76 -0.009,0.624 0.008,0.486 0.028,0.326 0.013,0.163 0.013,0.001 0.008,0.001 0.004,0 0,0"
             style="fill:#fff;fill-opacity:1;fill-rule:nonzero;stroke:none"
             id="path5905"
             inkscape:connector-curvature="0" />
        </g>
      </g>
    </g>
  </g>
</svg>
