<?xml version="1.0" encoding="UTF-8" standalone="no"?>
<!-- Created with Inkscape (http://www.inkscape.org/) -->

<svg
   xmlns:dc="http://purl.org/dc/elements/1.1/"
   xmlns:cc="http://creativecommons.org/ns#"
   xmlns:rdf="http://www.w3.org/1999/02/22-rdf-syntax-ns#"
   xmlns:svg="http://www.w3.org/2000/svg"
   xmlns="http://www.w3.org/2000/svg"
   xmlns:sodipodi="http://sodipodi.sourceforge.net/DTD/sodipodi-0.dtd"
   xmlns:inkscape="http://www.inkscape.org/namespaces/inkscape"
   width="11.167498mm"
   height="12.377314mm"
   viewBox="0 0 11.167498 12.377314"
   version="1.1"
   id="svg8090"
   inkscape:version="0.92.5 (2060ec1f9f, 2020-04-08)"
   sodipodi:docname="allies-skaven.svg">
  <defs
     id="defs8084">
    <clipPath
       clipPathUnits="userSpaceOnUse"
       id="clipPath5645">
      <path
         d="m 173.753,286.909 h 31.656 v 35.086 h -31.656 z"
         id="path5643"
         inkscape:connector-curvature="0" />
    </clipPath>
  </defs>
  <sodipodi:namedview
     id="base"
     pagecolor="#ffffff"
     bordercolor="#666666"
     borderopacity="1.0"
     inkscape:pageopacity="0.0"
     inkscape:pageshadow="2"
     inkscape:zoom="0.35"
     inkscape:cx="-407.46751"
     inkscape:cy="60.533063"
     inkscape:document-units="mm"
     inkscape:current-layer="layer1"
     showgrid="false"
     fit-margin-top="0"
     fit-margin-left="0"
     fit-margin-right="0"
     fit-margin-bottom="0"
     inkscape:window-width="1920"
     inkscape:window-height="1017"
     inkscape:window-x="-8"
     inkscape:window-y="-8"
     inkscape:window-maximized="1" />
  <metadata
     id="metadata8087">
    <rdf:RDF>
      <cc:Work
         rdf:about="">
        <dc:format>image/svg+xml</dc:format>
        <dc:type
           rdf:resource="http://purl.org/dc/dcmitype/StillImage" />
        <dc:title></dc:title>
      </cc:Work>
    </rdf:RDF>
  </metadata>
  <g
     inkscape:label="Layer 1"
     inkscape:groupmode="layer"
     id="layer1"
     transform="translate(-213.64245,-152.47206)">
    <g
       transform="matrix(0.35277777,0,0,-0.35277777,152.34625,266.06449)"
       id="g5639">
      <g
         id="g5641"
         clip-path="url(#clipPath5645)">
        <g
           id="g5647"
           transform="translate(184.0752,314.4413)">
          <path
             d="M 0,0 C 0.11,0.097 0.122,0.037 0.265,0.096 0.38,0.144 0.497,0.189 0.603,0.252 0.983,0.478 1.384,0.655 1.796,0.812 1.978,0.882 2.154,0.969 2.333,1.05 2.476,1.114 2.613,1.194 2.762,1.241 3.152,1.366 3.504,1.572 3.87,1.749 4.061,1.842 4.262,1.897 4.463,1.961 4.922,2.106 5.384,2.016 5.842,2.047 5.968,2.055 6.086,2.059 6.208,2.112 6.31,2.156 6.439,2.141 6.556,2.146 6.824,2.157 7.069,2.114 7.327,1.996 7.625,1.861 7.952,1.743 8.301,1.772 8.442,1.783 8.585,1.76 8.726,1.768 8.953,1.78 9.151,1.69 9.362,1.633 9.622,1.563 9.825,1.434 10.034,1.281 10.189,1.167 10.381,1.103 10.557,1.017 10.571,1.01 10.587,1 10.601,1.002 10.976,1.067 11.207,0.74 11.53,0.662 11.581,0.65 11.512,0.656 11.552,0.619 c 0.069,-0.064 0.137,-0.128 0.206,-0.192 0.185,0.246 0.195,0.759 0.412,1.244 -0.107,0.081 0,0 -0.127,0.055 C 11.783,1.838 11.654,1.943 11.388,2.03 11.211,2.088 11.047,2.155 10.91,2.272 10.763,2.396 10.603,2.484 10.428,2.56 10.207,2.657 10.003,2.792 9.785,2.897 9.608,2.981 9.427,3.069 9.239,3.113 9.043,3.159 8.835,3.158 8.632,3.172 8.406,3.189 8.178,3.163 7.957,3.257 7.837,3.308 7.697,3.314 7.566,3.334 7.212,3.39 6.857,3.443 6.492,3.499 6.388,3.613 6.367,3.763 6.375,3.925 6.379,4.011 6.388,4.11 6.352,4.181 6.288,4.307 6.302,4.441 6.271,4.567 6.216,4.787 6.211,5.009 6.182,5.231 6.169,5.335 6.102,5.431 6.065,5.533 6.033,5.62 6.004,5.708 5.982,5.798 5.964,5.874 5.964,5.954 5.948,6.031 5.857,6.446 5.765,6.86 5.671,7.273 5.651,7.361 5.62,7.446 5.588,7.553 5.546,7.513 5.522,7.502 5.516,7.484 5.383,7.089 5.405,6.668 5.308,6.267 5.257,6.054 5.252,5.83 5.207,5.616 5.126,5.23 5.03,4.848 4.942,4.465 4.928,4.404 4.912,4.341 4.913,4.279 4.915,4.05 4.888,3.83 4.835,3.604 4.795,3.435 4.728,3.37 4.576,3.327 4.162,3.207 3.749,3.082 3.341,2.943 3.119,2.867 2.909,2.755 2.692,2.666 2.366,2.531 2.036,2.405 1.711,2.268 1.553,2.201 1.403,2.114 1.246,2.043 1.025,1.943 0.8,1.849 0.577,1.752 0.239,1.606 0.064,1.54 -0.274,1.393 -0.356,1.358 -0.439,1.327 -0.52,1.292 -0.508,0.906 -0.288,0.407 -0.041,-0.036 -0.027,-0.024 -0.014,-0.012 0,0"
             style="fill:#fff;fill-opacity:1;fill-rule:nonzero;stroke:none"
             id="path5649"
             inkscape:connector-curvature="0" />
        </g>
        <g
           id="g5651"
           transform="translate(185.3446,294.0523)">
          <path
             d="m 0,0 c -0.102,0.039 -0.205,0.078 -0.309,0.11 -0.17,0.052 -0.283,0.168 -0.401,0.277 -0.149,0.137 -0.316,0.24 -0.503,0.3 -0.285,0.09 -0.515,0.264 -0.744,0.443 -0.031,0.024 -0.058,0.058 -0.093,0.071 -0.344,0.135 -0.618,0.369 -0.885,0.615 -0.12,0.112 -0.245,0.22 -0.37,0.326 -0.137,0.117 -0.268,0.243 -0.418,0.342 -0.253,0.168 -0.416,0.425 -0.642,0.617 -0.357,0.305 -0.642,0.672 -0.911,1.048 -0.181,0.253 -0.33,0.533 -0.374,0.858 -0.019,0.143 -0.109,0.275 -0.16,0.414 -0.026,0.072 -0.036,0.15 -0.053,0.225 -0.019,0.084 -0.034,0.168 -0.056,0.251 -0.077,0.3 -0.154,0.601 -0.237,0.9 -0.067,0.248 -0.143,0.493 -0.213,0.739 -0.064,0.226 -0.126,0.451 -0.185,0.677 -0.025,0.098 -0.045,0.197 -0.062,0.297 -0.018,0.1 -0.04,0.202 -0.041,0.303 -0.006,1.18 -0.012,2.361 -0.008,3.542 0,0.185 0.021,0.249 0.082,0.423 0.039,0.11 0.06,0.091 0.078,0.203 -0.327,-0.051 -0.743,-0.027 -1.156,-0.249 -0.002,-0.061 -0.002,-0.253 0.002,-0.314 0.007,-0.117 -0.056,0.025 -0.074,-0.048 C -7.892,12.321 -8,12.286 -8.108,12.254 -8.25,12.213 -8.394,12.175 -8.536,12.134 -8.649,12.101 -8.777,12.09 -8.871,12.027 c -0.268,-0.179 -0.577,-0.238 -0.874,-0.332 -0.142,-0.044 -0.292,-0.113 -0.431,-0.101 -0.37,0.032 -0.713,-0.112 -1.075,-0.121 -0.154,-0.004 -0.277,-0.08 -0.341,-0.27 0.365,0.013 0.697,0.018 1.027,-0.082 0.382,-0.115 0.775,-0.191 1.163,-0.287 0.152,-0.037 0.302,-0.079 0.452,-0.121 0.15,-0.042 0.303,-0.078 0.447,-0.136 0.126,-0.05 0.243,-0.127 0.393,-0.209 0.012,-0.037 0.057,-0.111 0.057,-0.186 0,-0.251 0.041,-0.493 0.099,-0.738 0.059,-0.25 0.066,-0.512 0.105,-0.768 C -7.798,8.354 -7.74,8.032 -7.681,7.71 -7.649,7.541 -7.615,7.373 -7.57,7.207 -7.475,6.859 -7.34,6.519 -7.284,6.166 -7.237,5.864 -7.172,5.574 -7.091,5.28 -7.005,4.967 -6.862,4.699 -6.699,4.433 -6.634,4.328 -6.534,4.245 -6.466,4.141 -6.28,3.86 -6.106,3.571 -5.92,3.29 -5.795,3.101 -5.656,2.923 -5.523,2.74 -5.624,2.528 -5.741,2.336 -5.805,2.129 -5.847,1.993 -5.916,1.896 -6.002,1.793 -6.269,1.474 -6.557,1.169 -6.73,0.781 -6.771,0.689 -6.818,0.58 -6.895,0.527 -7.069,0.408 -7.082,0.216 -7.15,0.051 c -0.053,-0.127 0.038,-0.241 0.177,-0.23 0.067,0.005 0.14,0.031 0.194,0.071 0.165,0.12 0.326,0.246 0.479,0.381 0.168,0.149 0.315,0.325 0.569,0.327 0.034,0 0.071,0.031 0.103,0.053 0.228,0.154 0.448,0.322 0.684,0.462 0.213,0.127 0.363,0.352 0.635,0.399 0.083,-0.052 0.176,-0.099 0.253,-0.165 0.215,-0.183 0.421,-0.377 0.636,-0.56 0.197,-0.168 0.401,-0.33 0.603,-0.491 0.207,-0.165 0.437,-0.307 0.619,-0.495 0.136,-0.14 0.283,-0.246 0.449,-0.335 0.137,-0.074 0.284,-0.13 0.421,-0.205 0.176,-0.097 0.352,-0.196 0.527,-0.295 C -0.346,-0.7 -0.116,-0.31 0,0"
             style="fill:#fff;fill-opacity:1;fill-rule:nonzero;stroke:none"
             id="path5653"
             inkscape:connector-curvature="0" />
        </g>
        <g
           id="g5655"
           transform="translate(191.0661,302.3636)">
          <path
             d="m 0,0 c -0.088,-0.184 -0.221,-0.353 -0.277,-0.546 -0.12,-0.408 -0.409,-0.722 -0.565,-1.107 -0.008,-0.018 -0.031,-0.029 -0.06,-0.056 -0.174,0.343 -0.373,0.653 -0.504,1.013 -0.165,0.455 -0.407,0.885 -0.644,1.311 -0.331,0.598 -0.688,1.182 -1.035,1.772 -0.016,0.027 -0.027,0.057 -0.047,0.081 -0.391,0.451 -0.627,0.998 -0.93,1.503 -0.121,0.202 -0.207,0.423 -0.307,0.637 -0.03,0.064 -0.044,0.136 -0.08,0.196 C -4.65,5.14 -4.738,5.517 -4.851,5.885 -4.915,6.093 -4.947,6.312 -5,6.553 c 0.087,0.016 0.176,0.046 0.265,0.046 0.456,0.002 0.912,-0.006 1.367,-0.006 0.52,0 1.04,0 1.56,0.01 0.306,0.005 0.612,0.034 0.919,0.042 C -0.606,6.652 -0.322,6.653 -0.04,6.64 0.479,6.617 0.997,6.575 1.516,6.556 1.933,6.541 2.351,6.55 2.768,6.545 2.858,6.544 2.949,6.527 3.055,6.516 2.999,6.129 2.878,5.792 2.71,5.473 2.568,5.202 2.405,4.942 2.258,4.673 2.198,4.563 2.158,4.443 2.107,4.328 2.021,4.135 1.927,3.944 1.848,3.748 1.766,3.545 1.69,3.339 1.624,3.131 1.548,2.893 1.417,2.692 1.262,2.5 1.169,2.385 1.078,2.262 1.014,2.13 0.672,1.422 0.339,0.709 0,0 m 2.796,-9.595 -0.805,1.038 c -0.16,0.282 -0.328,0.556 -0.472,0.842 -0.116,0.231 -0.205,0.476 -0.3,0.718 -0.057,0.146 -0.042,0.283 0.034,0.429 0.267,0.516 0.521,1.039 0.78,1.56 0.211,0.421 0.42,0.843 0.634,1.263 0.065,0.125 0.137,0.249 0.222,0.361 0.298,0.393 0.51,0.826 0.647,1.301 0.082,0.286 0.172,0.574 0.293,0.847 0.174,0.395 0.373,0.779 0.572,1.162 C 4.624,0.358 4.852,0.788 5.09,1.213 5.342,1.664 5.611,2.107 5.867,2.557 5.987,2.768 6.094,2.986 6.204,3.203 6.388,3.567 6.573,3.93 6.751,4.297 6.812,4.423 6.853,4.56 6.903,4.692 6.917,4.729 6.922,4.77 6.939,4.805 7.177,5.299 7.417,5.793 7.664,6.302 8.176,6.345 8.661,6.386 9.156,6.427 l 1.567,-0.168 c 0.138,-0.031 0.245,-0.05 0.348,-0.079 0.237,-0.067 0.47,-0.103 0.72,-0.056 0.162,0.031 0.278,0.095 0.36,0.234 0.293,0.494 0.583,0.989 0.782,1.532 0.059,0.161 0.136,0.323 0.242,0.455 0.121,0.15 0.215,0.308 0.291,0.482 0.034,0.078 0.082,0.151 0.132,0.22 0.162,0.23 0.303,0.475 0.256,0.763 -0.031,0.193 0.022,0.335 0.132,0.478 0.049,0.064 0.133,0.125 0.053,0.252 -0.11,-0.011 -0.234,-0.015 -0.354,-0.036 -0.295,-0.051 -0.587,-0.118 -0.882,-0.164 -0.544,-0.084 -1.089,-0.162 -1.635,-0.233 -0.499,-0.066 -1,-0.12 -1.501,-0.176 -0.063,-0.006 -0.129,0.007 -0.175,0.01 0.261,0.708 0.531,1.387 0.763,2.08 0.132,0.394 0.313,0.753 0.557,1.086 0.093,0.127 0.187,0.253 0.28,0.38 0.085,0.116 0.062,0.191 -0.08,0.213 -0.193,0.029 -0.39,0.066 -0.584,0.058 C 9.926,13.738 9.424,13.696 8.922,13.664 8.876,13.662 8.827,13.665 8.783,13.679 8.539,13.756 8.288,13.763 8.035,13.756 7.429,13.739 6.823,13.721 6.217,13.702 6.187,13.701 6.157,13.689 6.124,13.682 6.102,13.507 6.081,13.338 6.056,13.141 6.053,12.846 6.075,12.441 5.63,11.728 5.525,11.46 5.419,11.2 5.323,10.937 5.273,10.798 5.245,10.651 5.203,10.509 5.163,10.374 5.133,10.233 4.998,10.15 4.973,10.134 4.945,10.106 4.94,10.079 4.898,9.88 4.756,9.874 4.595,9.883 4.462,9.891 4.327,9.873 4.194,9.882 4.047,9.891 3.9,9.917 3.754,9.936 3.715,9.942 3.677,9.956 3.638,9.958 3.151,9.978 2.663,10.015 2.176,10.012 0.594,10 -0.989,9.976 -2.571,9.948 -2.941,9.941 -3.31,9.904 -3.679,9.867 -4.041,9.832 -4.398,9.84 -4.761,9.882 -5.11,9.923 -5.467,9.897 -5.82,9.9 -6.174,9.902 -6.529,9.896 -6.883,9.908 -7.124,9.916 -7.364,9.95 -7.589,9.971 c -0.068,0.159 -0.136,0.301 -0.191,0.447 -0.103,0.271 -0.197,0.546 -0.3,0.818 -0.017,0.044 -0.018,0.08 -0.009,0.111 -0.348,0.64 -0.386,1.2 -0.382,1.453 -0.009,-0.006 -0.016,-0.01 -0.026,-0.016 -0.026,0.107 -0.047,0.182 -0.064,0.258 -0.041,0.184 -0.082,0.368 -0.119,0.554 -0.024,0.122 -0.092,0.176 -0.216,0.164 -0.047,-0.005 -0.094,-0.007 -0.142,-0.009 -1.086,-0.041 -2.172,-0.119 -3.257,0.017 -0.153,0.019 -0.292,0.042 -0.41,0.149 -0.175,0.158 -0.355,0.31 -0.534,0.463 -0.083,0.071 -0.165,0.147 -0.256,0.207 -0.184,0.12 -0.384,0.218 -0.56,0.348 -0.121,0.089 -0.231,0.097 -0.389,0.064 0.079,-0.144 0.137,-0.273 0.216,-0.388 0.366,-0.54 0.749,-1.068 1.103,-1.616 0.151,-0.235 0.246,-0.506 0.364,-0.762 0.043,-0.092 0.069,-0.194 0.121,-0.281 0.191,-0.316 0.382,-0.634 0.589,-0.939 0.201,-0.296 0.324,-0.624 0.481,-0.971 -0.346,0 -0.664,-0.003 -0.983,0 -0.526,0.007 -1.053,-0.03 -1.577,0.051 -0.249,0.038 -0.506,0.026 -0.751,0.078 -0.368,0.078 -0.731,0.187 -1.093,0.291 -0.268,0.077 -0.532,0.169 -0.848,0.271 0.038,-0.116 0.045,-0.196 0.085,-0.251 0.311,-0.434 0.649,-0.849 0.899,-1.322 0.146,-0.278 0.279,-0.564 0.406,-0.851 0.093,-0.208 0.164,-0.425 0.251,-0.635 0.057,-0.138 0.14,-0.267 0.188,-0.408 0.117,-0.345 0.233,-0.686 0.594,-0.862 0.23,-0.299 0.588,-0.479 0.772,-0.821 0.044,-0.082 0.11,-0.104 0.198,-0.084 0.079,0.018 0.159,0.03 0.259,0.049 -0.003,-0.011 -0.006,-0.021 -0.009,-0.031 0.325,0.182 0.746,0.365 1.272,0.505 0.061,0.057 0.142,0.088 0.241,0.105 0.131,0.023 0.258,0.065 0.388,0.089 0.162,0.03 0.325,0.066 0.488,0.073 0.331,0.015 0.662,0.012 0.993,0.018 0.179,0.002 0.309,-0.057 0.396,-0.233 0.42,-0.845 0.851,-1.685 1.278,-2.527 0.198,-0.392 0.378,-0.795 0.602,-1.171 0.398,-0.671 0.623,-1.425 1.023,-2.093 0.205,-0.343 0.425,-0.677 0.63,-1.019 0.097,-0.162 0.194,-0.327 0.26,-0.503 0.317,-0.842 0.725,-1.641 1.144,-2.435 0.33,-0.627 0.627,-1.269 0.858,-1.94 0.069,-0.2 0.151,-0.394 0.215,-0.595 0.049,-0.151 0.061,-0.306 -0.025,-0.454 -0.373,-0.641 -0.773,-1.264 -1.238,-1.842 -0.02,-0.025 -0.034,-0.053 -0.055,-0.085 -0.004,10e-4 -0.007,0.003 -0.012,0.004 -0.117,-0.386 -0.709,-1.195 -1.03,-1.201 0.011,-0.007 0.022,-0.013 0.034,-0.02 -0.276,-0.285 -0.526,-0.544 -0.778,-0.802 -0.021,-0.021 -0.054,-0.031 -0.082,-0.044 -0.266,-0.122 -0.301,-0.399 -0.069,-0.573 0.157,-0.118 0.322,-0.224 0.479,-0.341 0.294,-0.217 0.565,-0.451 0.669,-0.827 0.025,-0.093 0.1,-0.177 0.167,-0.253 0.296,-0.336 0.596,-0.668 0.895,-1.002 0.089,-0.099 0.179,-0.198 0.269,-0.296 0.319,-0.343 0.638,-0.686 0.943,-1.014 0.198,0.049 0.299,0.147 0.358,0.312 0.077,0.214 0.176,0.42 0.272,0.627 0.083,0.178 0.183,0.348 0.26,0.527 0.154,0.359 0.297,0.721 0.463,1.125 0.037,-0.089 0.061,-0.129 0.072,-0.172 0.055,-0.228 0.103,-0.457 0.16,-0.684 0.076,-0.304 0.161,-0.605 0.238,-0.907 0.065,-0.255 0.172,-0.501 0.146,-0.775 -0.018,-0.182 0.052,-0.342 0.166,-0.549 0.036,0.148 0.066,0.244 0.083,0.341 0.046,0.263 0.074,0.529 0.132,0.789 0.104,0.46 0.226,0.915 0.337,1.373 0.028,0.115 0.045,0.231 0.066,0.347 0.226,-0.553 0.426,-1.099 0.603,-1.652 0.06,-0.189 0.173,-0.325 0.312,-0.488 0.105,0.088 0.205,0.161 0.293,0.247 0.17,0.164 0.334,0.334 0.499,0.503 0.219,0.225 0.436,0.451 0.651,0.679 0.032,0.033 0.051,0.078 0.075,0.118 0.044,0.07 0.082,0.145 0.133,0.21 0.058,0.074 0.129,0.137 0.191,0.208 0.185,0.212 0.379,0.414 0.534,0.656 0.125,0.194 0.325,0.339 0.491,0.507 0.039,0.039 0.104,0.078 0.106,0.12 0.01,0.166 0.145,0.236 0.237,0.335 0.133,0.142 0.279,0.27 0.441,0.425 -0.244,0.173 -0.485,0.326 -0.704,0.505 -0.221,0.181 -0.39,0.415 -0.595,0.637"
             style="fill:#fff;fill-opacity:1;fill-rule:nonzero;stroke:none"
             id="path5657"
             inkscape:connector-curvature="0" />
        </g>
        <g
           id="g5659"
           transform="translate(205.0369,305.754)">
          <path
             d="m 0,0 c -0.312,0.106 -0.651,0.047 -0.966,0.164 -0.132,0.049 -0.298,0.015 -0.446,0.003 -0.141,-0.012 -0.259,0.029 -0.379,0.096 -0.17,0.096 -0.338,0.194 -0.547,0.2 -0.142,0.004 -0.238,0.091 -0.274,0.245 -0.057,0.246 -0.125,0.489 -0.201,0.73 -0.365,0.081 -1.214,0.128 -1.622,0.129 0.042,-0.155 0.085,-0.178 0.126,-0.333 0.092,-0.35 0.203,-0.696 0.265,-1.05 0.049,-0.285 0.038,-0.58 0.049,-0.87 10e-4,-0.044 -0.029,-0.089 -0.037,-0.135 -0.023,-0.122 -0.045,-0.245 -0.06,-0.368 -0.026,-0.226 -0.042,-0.453 -0.071,-0.678 -0.034,-0.256 -0.073,-0.512 -0.118,-0.767 -0.075,-0.431 -0.156,-0.861 -0.238,-1.291 -0.018,-0.092 -0.043,-0.184 -0.077,-0.272 -0.087,-0.226 -0.208,-0.439 -0.217,-0.693 -0.002,-0.08 -0.062,-0.159 -0.098,-0.238 -0.166,-0.373 -0.324,-0.749 -0.502,-1.115 -0.129,-0.267 -0.286,-0.521 -0.43,-0.781 -0.045,-0.082 -0.094,-0.163 -0.134,-0.247 -0.061,-0.127 -0.111,-0.259 -0.175,-0.384 -0.079,-0.154 -0.163,-0.305 -0.253,-0.452 -0.061,-0.1 -0.126,-0.201 -0.207,-0.286 -0.346,-0.364 -0.693,-0.728 -1.05,-1.081 -0.157,-0.153 -0.34,-0.279 -0.508,-0.42 -0.139,-0.116 -0.273,-0.236 -0.41,-0.354 -0.147,-0.128 -0.287,-0.237 -0.506,-0.262 -0.182,-0.02 -0.355,-0.152 -0.527,-0.244 -0.235,-0.125 -0.465,-0.259 -0.697,-0.389 -0.02,-0.011 -0.045,-0.015 -0.065,-0.028 -0.151,-0.093 -0.302,-0.186 -0.453,-0.279 0.232,-0.442 0.592,-0.816 0.83,-1.044 0.091,0.035 0.183,0.068 0.276,0.097 0.284,0.087 0.539,0.285 0.787,0.462 0.256,0.181 0.478,0.407 0.731,0.593 0.256,0.19 0.504,0.398 0.829,0.476 0.095,0.023 0.193,0.078 0.263,0.146 0.224,0.217 0.434,0.446 0.635,0.655 0.161,-0.012 0.307,-0.018 0.453,-0.036 0.115,-0.014 0.233,-0.03 0.342,-0.067 0.207,-0.072 0.414,-0.151 0.613,-0.243 0.193,-0.09 0.327,-0.019 0.461,0.126 -0.075,0.117 -0.155,0.224 -0.214,0.341 -0.142,0.282 -0.27,0.569 -0.41,0.851 -0.065,0.128 -0.056,0.237 0.032,0.35 0.115,0.148 0.232,0.295 0.331,0.454 0.132,0.212 0.257,0.428 0.374,0.65 0.327,0.621 0.616,1.252 0.794,1.932 0.012,0.046 0.038,0.087 0.053,0.132 0.052,0.155 0.104,0.311 0.154,0.467 0.096,0.299 0.194,0.598 0.284,0.899 0.049,0.165 0.071,0.339 0.124,0.503 0.14,0.433 0.274,0.873 0.303,1.323 0.023,0.346 0.254,0.567 0.371,0.852 0.01,0.025 0.044,0.046 0.072,0.059 0.296,0.142 0.56,0.35 0.9,0.4 0.12,0.018 0.233,0.091 0.345,0.145 0.432,0.206 0.789,0.553 1.274,0.658 0.066,0.014 0.124,0.066 0.193,0.105 C 0.242,-0.106 0.125,-0.042 0,0"
             style="fill:#fff;fill-opacity:1;fill-rule:nonzero;stroke:none"
             id="path5661"
             inkscape:connector-curvature="0" />
        </g>
      </g>
    </g>
  </g>
</svg>
