<?xml version="1.0" encoding="UTF-8" standalone="no"?>
<!-- Created with Inkscape (http://www.inkscape.org/) -->

<svg
   xmlns:dc="http://purl.org/dc/elements/1.1/"
   xmlns:cc="http://creativecommons.org/ns#"
   xmlns:rdf="http://www.w3.org/1999/02/22-rdf-syntax-ns#"
   xmlns:svg="http://www.w3.org/2000/svg"
   xmlns="http://www.w3.org/2000/svg"
   xmlns:sodipodi="http://sodipodi.sourceforge.net/DTD/sodipodi-0.dtd"
   xmlns:inkscape="http://www.inkscape.org/namespaces/inkscape"
   width="12.194011mm"
   height="13.505003mm"
   viewBox="0 0 12.194011 13.505003"
   version="1.1"
   id="svg8684"
   inkscape:version="0.92.5 (2060ec1f9f, 2020-04-08)"
   sodipodi:docname="allies-ironjawz.svg">
  <defs
     id="defs8678">
    <clipPath
       clipPathUnits="userSpaceOnUse"
       id="clipPath5997">
      <path
         d="m 454.625,283.146 h 34.566 v 38.282 h -34.566 z"
         id="path5995"
         inkscape:connector-curvature="0" />
    </clipPath>
  </defs>
  <sodipodi:namedview
     id="base"
     pagecolor="#ffffff"
     bordercolor="#666666"
     borderopacity="1.0"
     inkscape:pageopacity="0.0"
     inkscape:pageshadow="2"
     inkscape:zoom="0.35"
     inkscape:cx="-1202.6705"
     inkscape:cy="159.80699"
     inkscape:document-units="mm"
     inkscape:current-layer="layer1"
     showgrid="false"
     fit-margin-top="0"
     fit-margin-left="0"
     fit-margin-right="0"
     fit-margin-bottom="0"
     inkscape:window-width="1920"
     inkscape:window-height="1017"
     inkscape:window-x="-8"
     inkscape:window-y="-8"
     inkscape:window-maximized="1" />
  <metadata
     id="metadata8681">
    <rdf:RDF>
      <cc:Work
         rdf:about="">
        <dc:format>image/svg+xml</dc:format>
        <dc:type
           rdf:resource="http://purl.org/dc/dcmitype/StillImage" />
        <dc:title></dc:title>
      </cc:Work>
    </rdf:RDF>
  </metadata>
  <g
     inkscape:label="Layer 1"
     inkscape:groupmode="layer"
     id="layer1"
     transform="translate(-424.0399,-177.6106)">
    <g
       transform="matrix(0.35277777,0,0,-0.35277777,263.6582,291.00325)"
       id="g5991">
      <g
         id="g5993"
         clip-path="url(#clipPath5997)">
        <g
           id="g5999"
           transform="translate(460.7363,307.3451)">
          <path
             d="m 0,0 c -0.021,-0.101 -0.02,-0.204 -0.063,-0.283 -0.177,-0.325 -0.249,-0.686 -0.369,-1.03 -0.063,-0.182 -0.08,-0.379 -0.119,-0.569 -0.021,-0.103 -0.043,-0.205 -0.068,-0.307 -0.044,-0.188 -0.108,-0.373 -0.132,-0.564 -0.022,-0.18 -0.004,-0.365 -0.002,-0.548 0.004,-0.448 0.011,-0.896 0.014,-1.344 0.003,-0.406 0.005,-0.812 0.005,-1.217 0.001,-0.289 0.018,-0.579 -0.007,-0.865 -0.026,-0.298 0.136,-0.558 0.129,-0.848 0,-0.005 0.007,-0.01 0.008,-0.015 0.029,-0.113 0.057,-0.226 0.085,-0.339 0.013,-0.051 0.02,-0.104 0.04,-0.152 0.039,-0.093 0.106,-0.178 0.123,-0.273 0.044,-0.23 0.108,-0.453 0.163,-0.68 0.035,-0.142 0.057,-0.292 0.121,-0.42 0.072,-0.14 0.062,-0.284 0.091,-0.426 0.028,-0.14 0.127,-0.263 0.111,-0.421 -0.006,-0.06 0.014,-0.128 0.04,-0.184 0.109,-0.229 0.213,-0.458 0.238,-0.715 0.004,-0.04 0.017,-0.083 0.037,-0.117 0.137,-0.24 0.222,-0.509 0.417,-0.715 0.081,-0.086 0.142,-0.189 0.22,-0.278 0.198,-0.224 0.4,-0.445 0.602,-0.665 0.127,-0.138 0.298,-0.235 0.384,-0.412 0.015,-0.031 0.041,-0.058 0.069,-0.079 0.169,-0.129 0.339,-0.255 0.509,-0.382 0.047,-0.036 0.099,-0.065 0.141,-0.105 0.136,-0.13 0.266,-0.266 0.403,-0.394 0.094,-0.088 0.196,-0.167 0.295,-0.251 0.202,-0.171 0.394,-0.355 0.653,-0.444 0.066,-0.022 0.129,-0.06 0.185,-0.102 0.118,-0.088 0.226,-0.19 0.347,-0.273 0.111,-0.077 0.226,-0.162 0.352,-0.199 0.361,-0.107 0.663,-0.298 0.915,-0.574 0.024,-0.025 0.054,-0.051 0.085,-0.06 0.376,-0.107 0.714,-0.341 1.123,-0.342 0.056,0 0.112,-0.034 0.168,-0.053 0.271,-0.087 0.544,-0.151 0.832,-0.126 0.141,0.012 0.283,0.007 0.424,0.001 0.05,-0.003 0.103,-0.022 0.148,-0.046 0.199,-0.105 0.407,-0.18 0.633,-0.188 0.266,-0.008 0.532,-0.005 0.797,-0.005 0.148,-0.001 0.291,-0.002 0.435,-0.06 0.095,-0.038 0.208,-0.042 0.313,-0.042 0.567,-0.004 1.134,-0.004 1.701,0 0.093,0 0.189,0.018 0.278,0.045 0.146,0.044 0.289,0.1 0.432,0.154 0.268,0.103 0.54,0.152 0.83,0.118 0.12,-0.014 0.247,0.003 0.368,0.024 0.261,0.044 0.521,0.094 0.778,0.154 0.142,0.034 0.292,0.071 0.412,0.147 0.222,0.142 0.421,0.322 0.687,0.388 0.047,0.012 0.091,0.054 0.127,0.091 0.09,0.09 0.194,0.15 0.315,0.189 0.089,0.029 0.174,0.073 0.255,0.12 0.281,0.159 0.532,0.367 0.833,0.492 0.105,0.044 0.2,0.1 0.32,0.069 0.025,-0.006 0.062,10e-4 0.083,0.017 0.118,0.087 0.236,0.175 0.348,0.27 0.111,0.095 0.211,0.206 0.325,0.298 0.201,0.163 0.42,0.306 0.611,0.478 0.257,0.233 0.497,0.485 0.741,0.731 0.079,0.08 0.147,0.168 0.221,0.252 0.206,0.233 0.452,0.435 0.549,0.748 0.011,0.039 0.039,0.073 0.063,0.106 0.143,0.203 0.274,0.412 0.332,0.659 0.014,0.061 0.046,0.125 0.087,0.172 0.206,0.233 0.328,0.516 0.47,0.786 0.051,0.098 0.085,0.206 0.128,0.309 0.095,0.228 0.19,0.457 0.287,0.684 0.04,0.091 0.081,0.182 0.13,0.269 0.094,0.165 0.176,0.329 0.189,0.526 0.006,0.108 0.051,0.218 0.098,0.318 0.089,0.187 0.176,0.379 0.192,0.584 0.031,0.388 0.219,0.748 0.197,1.143 -0.002,0.028 0.017,0.056 0.024,0.085 0.038,0.166 0.082,0.332 0.11,0.5 0.025,0.15 0.014,0.308 0.05,0.455 0.065,0.272 0.094,0.543 0.082,0.823 -0.004,0.108 0.02,0.225 0.058,0.327 0.039,0.102 0.064,0.199 0.05,0.308 -0.008,0.064 0.001,0.13 -10e-4,0.195 -0.005,0.146 0.004,0.296 -0.023,0.439 -0.057,0.301 -0.132,0.597 -0.202,0.895 -0.031,0.131 -0.067,0.262 -0.105,0.392 -0.076,0.265 -0.159,0.529 -0.233,0.795 -0.074,0.266 -0.132,0.538 -0.216,0.801 -0.046,0.144 -0.076,0.282 -0.066,0.433 0.004,0.063 -0.002,0.131 -0.02,0.192 -0.068,0.231 -0.143,0.46 -0.217,0.69 -0.039,0.123 -0.076,0.247 -0.121,0.368 -0.096,0.26 -0.187,0.522 -0.298,0.775 -0.092,0.21 -0.201,0.413 -0.318,0.611 -0.11,0.188 -0.24,0.364 -0.361,0.545 -0.053,0.078 -0.097,0.165 -0.163,0.23 C 21.098,3.306 20.863,3.505 20.774,3.814 20.771,3.825 20.76,3.833 20.755,3.843 20.619,4.085 20.372,4.227 20.21,4.445 20.2,4.458 20.182,4.468 20.166,4.472 19.984,4.514 19.851,4.622 19.74,4.768 19.705,4.814 19.651,4.845 19.605,4.882 19.419,5.036 19.226,5.183 19.048,5.346 18.687,5.678 18.334,6.018 17.98,6.358 17.836,6.496 17.666,6.584 17.478,6.645 17.413,6.667 17.348,6.7 17.296,6.745 17.16,6.862 17.011,6.925 16.827,6.91 16.756,6.904 16.678,6.931 16.61,6.96 16.513,7.001 16.427,7.069 16.328,7.105 16.172,7.163 16.026,7.227 15.908,7.352 15.802,7.465 15.678,7.552 15.507,7.544 15.453,7.542 15.395,7.574 15.342,7.598 15.16,7.684 14.981,7.758 14.769,7.749 14.504,7.737 14.238,7.753 13.972,7.761 13.902,7.763 13.833,7.779 13.764,7.794 13.69,7.811 13.615,7.827 13.546,7.856 13.367,7.931 13.167,7.943 13.003,8.058 12.884,8.141 12.749,8.175 12.601,8.167 12.442,8.159 12.282,8.162 12.123,8.164 12.021,8.166 11.927,8.152 11.835,8.098 11.778,8.065 11.7,8.058 11.632,8.058 11.254,8.053 10.876,8.053 10.498,8.055 10.212,8.056 9.955,7.921 9.678,7.885 9.661,7.883 9.646,7.87 9.63,7.862 9.348,7.729 9.065,7.596 8.784,7.462 8.742,7.442 8.706,7.409 8.665,7.387 8.582,7.345 8.5,7.302 8.414,7.268 8.195,7.181 7.963,7.122 7.759,7.01 7.463,6.848 7.149,6.733 6.842,6.601 6.567,6.482 6.284,6.373 6.027,6.223 5.741,6.056 5.452,5.905 5.129,5.828 5.043,5.808 4.983,5.768 4.921,5.708 4.794,5.586 4.665,5.463 4.519,5.366 4.373,5.27 4.229,5.162 4.049,5.126 4.006,5.118 3.966,5.083 3.93,5.053 3.844,4.981 3.764,4.902 3.678,4.831 3.547,4.723 3.412,4.619 3.278,4.515 3.046,4.336 2.795,4.182 2.6,3.953 2.476,3.808 2.354,3.652 2.172,3.562 2.095,3.524 2.035,3.451 1.966,3.396 1.801,3.266 1.677,3.082 1.469,3.006 1.44,2.996 1.417,2.96 1.402,2.93 1.26,2.645 1.131,2.353 0.978,2.075 0.665,1.509 0.436,0.911 0.262,0.291 0.221,0.146 0.153,0.03 0,0 m 11.579,-24.199 c -0.089,0.173 -0.193,0.327 -0.183,0.518 0.004,0.088 10e-4,0.177 10e-4,0.266 0,0.029 0.011,0.065 -0.002,0.087 -0.094,0.166 -0.08,0.36 -0.15,0.532 -0.011,0.027 -0.026,0.054 -0.03,0.082 -0.041,0.256 -0.159,0.493 -0.205,0.742 -0.047,0.247 -0.167,0.477 -0.157,0.738 0.004,0.101 -0.051,0.204 -0.08,0.306 -0.061,0.215 -0.131,0.427 -0.18,0.644 -0.053,0.235 -0.076,0.477 -0.13,0.712 -0.069,0.304 -0.156,0.604 -0.235,0.906 -0.02,0.077 -0.074,0.095 -0.147,0.095 -0.384,0.003 -0.767,0.008 -1.15,0.016 -0.07,0.001 -0.15,0 -0.208,0.032 -0.175,0.098 -0.366,0.072 -0.551,0.096 -0.092,0.012 -0.189,0.028 -0.271,0.068 -0.201,0.098 -0.411,0.145 -0.633,0.135 -0.297,-0.013 -0.565,0.062 -0.823,0.216 -0.282,0.17 -0.583,0.309 -0.875,0.462 -0.047,0.024 -0.094,0.049 -0.138,0.078 -0.157,0.103 -0.307,0.216 -0.469,0.309 -0.111,0.064 -0.241,0.093 -0.355,0.152 -0.183,0.094 -0.373,0.182 -0.48,0.374 -0.009,0.015 -0.021,0.034 -0.036,0.039 -0.178,0.06 -0.273,0.218 -0.401,0.338 -0.022,0.021 -0.042,0.045 -0.067,0.057 -0.408,0.193 -0.7,0.536 -1.045,0.809 -0.151,0.12 -0.286,0.262 -0.434,0.386 -0.09,0.076 -0.19,0.139 -0.288,0.205 -0.023,0.015 -0.062,0.03 -0.081,0.02 -0.106,-0.052 -0.231,-0.089 -0.306,-0.172 -0.142,-0.159 -0.333,-0.24 -0.498,-0.363 -0.174,-0.13 -0.357,-0.248 -0.537,-0.37 -0.088,-0.06 -0.172,-0.129 -0.291,-0.103 -0.026,0.005 -0.064,0.003 -0.084,-0.012 -0.125,-0.094 -0.248,-0.192 -0.37,-0.29 -0.21,-0.17 -0.418,-0.343 -0.632,-0.508 -0.038,-0.03 -0.1,-0.039 -0.151,-0.041 -0.153,-0.006 -0.254,0.146 -0.184,0.281 0.041,0.079 0.094,0.145 0.064,0.245 -0.008,0.029 0.033,0.09 0.067,0.111 0.177,0.11 0.259,0.292 0.344,0.463 0.13,0.261 0.3,0.492 0.481,0.716 0.134,0.164 0.28,0.318 0.42,0.478 0.02,0.021 0.046,0.046 0.049,0.071 0.041,0.306 0.262,0.537 0.335,0.858 -0.024,0.035 -0.063,0.093 -0.104,0.149 -0.198,0.271 -0.397,0.542 -0.594,0.814 -0.024,0.032 -0.036,0.074 -0.055,0.111 -0.125,0.246 -0.263,0.481 -0.461,0.68 -0.097,0.098 -0.163,0.23 -0.235,0.352 -0.059,0.101 -0.11,0.208 -0.158,0.315 -0.029,0.064 -0.063,0.133 -0.063,0.2 0.001,0.111 -0.027,0.209 -0.084,0.301 -0.124,0.2 -0.133,0.422 -0.134,0.648 -10e-4,0.069 -0.019,0.138 -0.032,0.206 -0.011,0.058 -0.023,0.115 -0.038,0.172 -0.073,0.266 -0.146,0.533 -0.22,0.799 -0.011,0.039 -0.046,0.074 -0.049,0.113 -0.017,0.258 -0.148,0.495 -0.14,0.758 10e-4,0.034 0.003,0.077 -0.015,0.102 -0.079,0.115 -0.077,0.244 -0.081,0.374 -0.004,0.116 0.008,0.236 -0.06,0.342 -0.008,0.014 -0.008,0.035 -0.008,0.052 -0.003,0.284 -0.051,0.561 -0.105,0.838 -0.006,0.034 0.006,0.081 -0.013,0.103 -0.108,0.126 -0.083,0.277 -0.089,0.423 -0.004,0.082 0.007,0.167 -0.007,0.247 -0.015,0.086 -0.053,0.167 -0.085,0.261 -0.163,0.005 -0.307,0.06 -0.422,0.181 -0.019,0.02 -0.051,0.031 -0.079,0.037 -0.2,0.042 -0.402,0.075 -0.6,0.125 -0.118,0.03 -0.228,0.092 -0.345,0.127 -0.214,0.062 -0.431,0.115 -0.647,0.171 -0.056,0.015 -0.114,0.028 -0.171,0.04 -0.436,0.092 -0.867,0.219 -1.321,0.171 -0.056,-0.006 -0.114,-10e-4 -0.179,-10e-4 0.002,0.125 0.073,0.184 0.154,0.234 0.104,0.064 0.22,0.082 0.341,0.076 0.131,-0.007 0.254,0.016 0.38,0.063 0.09,0.034 0.195,0.036 0.295,0.042 0.112,0.006 0.224,0 0.336,0.001 0.042,10e-4 0.085,-0.002 0.123,0.01 0.185,0.055 0.365,0.128 0.553,0.167 0.215,0.045 0.412,0.133 0.614,0.21 0.108,0.042 0.184,0.141 0.312,0.152 0.121,0.011 0.243,0.04 0.36,0.074 0.123,0.037 0.25,0.073 0.358,0.139 0.106,0.064 0.202,0.085 0.319,0.037 0.088,0.156 0.159,0.306 0.143,0.487 -0.011,0.117 0.007,0.236 0.002,0.354 -0.005,0.134 0.014,0.259 0.093,0.371 0.007,0.009 0.013,0.02 0.015,0.031 0.045,0.194 0.089,0.388 0.133,0.581 0.012,0.051 0.022,0.104 0.042,0.153 0.088,0.218 0.183,0.433 0.269,0.652 0.108,0.272 0.17,0.558 0.234,0.842 0.008,0.035 0.015,0.072 0.033,0.101 0.196,0.318 0.249,0.697 0.444,1.017 0.07,0.114 0.102,0.251 0.162,0.373 0.131,0.27 0.267,0.537 0.405,0.804 C 0.068,2.88 0.123,2.994 0.235,3.075 0.281,3.109 0.301,3.2 0.304,3.266 0.31,3.442 0.277,3.623 0.302,3.796 0.335,4.03 0.203,4.175 0.092,4.348 -0.109,4.659 -0.299,4.98 -0.471,5.309 -0.656,5.661 -0.842,6.008 -1.121,6.296 -1.178,6.355 -1.225,6.425 -1.27,6.494 -1.516,6.869 -1.779,7.231 -2.071,7.573 -2.185,7.707 -2.271,7.864 -2.368,8.012 -2.549,8.288 -2.73,8.564 -2.907,8.842 -2.941,8.895 -2.961,8.957 -2.993,9.03 -2.832,9.036 -2.702,9.046 -2.568,8.94 -2.385,8.795 -2.169,8.691 -1.969,8.566 -1.89,8.516 -1.81,8.462 -1.744,8.397 -1.525,8.182 -1.32,7.953 -1.05,7.796 -0.995,7.764 -0.956,7.706 -0.905,7.667 -0.83,7.611 -0.756,7.543 -0.67,7.514 -0.506,7.458 -0.39,7.35 -0.266,7.238 -0.131,7.117 0.027,7.022 0.173,6.912 0.348,6.782 0.529,6.659 0.69,6.514 0.985,6.249 1.32,6.065 1.693,5.94 1.78,5.911 1.859,5.852 1.936,5.798 2.131,5.661 2.323,5.733 2.378,5.967 c 0.039,0.168 0.148,0.25 0.32,0.242 0.163,-0.008 0.298,0.065 0.427,0.149 0.273,0.177 0.543,0.356 0.814,0.534 0.094,0.061 0.189,0.122 0.285,0.179 0.131,0.077 0.262,0.14 0.413,0.183 0.32,0.092 0.632,0.215 0.927,0.381 0.297,0.166 0.607,0.309 0.932,0.419 0.215,0.073 0.412,0.199 0.62,0.294 0.209,0.094 0.419,0.185 0.633,0.266 0.28,0.105 0.565,0.195 0.833,0.336 0.201,0.105 0.427,0.161 0.643,0.235 0.106,0.037 0.215,0.062 0.322,0.094 0.231,0.068 0.462,0.139 0.693,0.206 0.104,0.03 0.161,0.089 0.159,0.203 -10e-4,0.046 0.002,0.098 0.022,0.138 0.091,0.183 0.091,0.378 0.08,0.573 -0.013,0.255 0.091,0.485 0.141,0.727 0.091,0.45 0.186,0.9 0.276,1.352 0.014,0.068 0.008,0.141 0.014,0.211 0.005,0.065 -0.007,0.141 0.024,0.191 0.109,0.175 0.071,0.365 0.08,0.55 0.006,0.106 -0.002,0.21 0.072,0.303 0.028,0.036 0.016,0.102 0.027,0.153 0.014,0.059 0.033,0.117 0.056,0.198 0.1,-0.087 0.103,-0.186 0.127,-0.271 0.073,-0.261 0.142,-0.523 0.203,-0.787 0.036,-0.154 0.055,-0.313 0.078,-0.47 0.023,-0.157 0.036,-0.315 0.066,-0.471 0.016,-0.079 0.048,-0.161 0.094,-0.226 0.132,-0.181 0.178,-0.379 0.143,-0.597 -0.013,-0.084 -0.004,-0.154 0.033,-0.236 0.042,-0.093 0.046,-0.205 0.055,-0.309 0.009,-0.1 0.014,-0.192 0.064,-0.288 0.043,-0.083 0.044,-0.194 0.046,-0.293 0.004,-0.176 -0.011,-0.355 0.152,-0.529 0.09,0 0.217,0.006 0.344,-10e-4 0.087,-0.005 0.179,-0.012 0.258,-0.045 0.151,-0.061 0.305,-0.076 0.464,-0.094 0.209,-0.025 0.415,-0.08 0.622,-0.123 0.092,-0.018 0.183,-0.049 0.276,-0.054 0.17,-0.008 0.343,0.016 0.512,-0.002 0.279,-0.03 0.56,-0.043 0.821,-0.183 0.165,-0.089 0.33,-0.173 0.491,-0.272 0.184,-0.113 0.397,-0.175 0.593,-0.269 0.11,-0.053 0.216,-0.118 0.315,-0.189 0.182,-0.13 0.346,-0.276 0.579,-0.324 0.164,-0.035 0.32,-0.118 0.474,-0.191 0.223,-0.105 0.443,-0.218 0.661,-0.334 0.066,-0.036 0.125,-0.087 0.183,-0.137 0.153,-0.129 0.295,-0.272 0.457,-0.388 0.122,-0.088 0.268,-0.143 0.403,-0.213 0.089,-0.047 0.186,-0.082 0.262,-0.144 0.236,-0.193 0.464,-0.398 0.696,-0.597 0.036,-0.03 0.079,-0.052 0.141,-0.093 0.096,0.054 0.205,0.108 0.306,0.174 0.148,0.097 0.283,0.218 0.439,0.298 0.186,0.096 0.383,0.174 0.566,0.279 0.07,0.04 0.15,0.026 0.217,-0.025 0.07,-0.055 0.089,-0.124 0.046,-0.203 C 22.23,6.21 22.08,5.942 21.928,5.677 21.863,5.566 21.79,5.46 21.721,5.351 21.641,5.224 21.625,5.084 21.665,4.943 21.741,4.674 21.872,4.428 22.038,4.206 22.244,3.932 22.468,3.674 22.678,3.404 22.757,3.302 22.827,3.191 22.884,3.076 22.993,2.854 23.173,2.69 23.322,2.5 23.497,2.278 23.625,2.041 23.669,1.76 23.675,1.72 23.692,1.681 23.705,1.642 23.808,1.336 23.91,1.029 24.016,0.724 c 0.092,-0.267 0.19,-0.533 0.284,-0.799 0.056,-0.161 0.135,-0.32 0.158,-0.486 0.026,-0.194 0.121,-0.354 0.185,-0.53 0.062,-0.171 0.118,-0.345 0.17,-0.52 0.06,-0.197 0.106,-0.398 0.17,-0.593 0.067,-0.207 0.151,-0.407 0.175,-0.628 0.025,-0.23 0.142,-0.334 0.371,-0.33 0.165,0.003 0.307,-0.073 0.426,-0.153 0.21,-0.139 0.424,-0.182 0.666,-0.161 0.111,0.01 0.224,0.006 0.336,0.002 0.051,-0.002 0.118,-0.006 0.15,-0.038 0.08,-0.077 0.173,-0.075 0.265,-0.064 0.223,0.028 0.433,-0.044 0.645,-0.084 0.141,-0.027 0.27,-0.118 0.438,-0.196 -0.167,-0.057 -0.307,-0.096 -0.44,-0.152 -0.152,-0.064 -0.301,-0.136 -0.444,-0.218 -0.286,-0.165 -0.564,-0.344 -0.85,-0.509 -0.08,-0.046 -0.175,-0.08 -0.266,-0.091 -0.248,-0.03 -0.457,-0.152 -0.67,-0.264 -0.063,-0.033 -0.123,-0.071 -0.188,-0.1 -0.144,-0.064 -0.26,-0.15 -0.309,-0.312 -0.02,-0.065 -0.072,-0.12 -0.107,-0.181 -0.053,-0.091 -0.137,-0.18 -0.15,-0.277 -0.032,-0.256 -0.108,-0.503 -0.126,-0.762 -0.011,-0.155 -0.066,-0.309 -0.107,-0.461 -0.088,-0.323 -0.21,-0.637 -0.259,-0.972 -0.023,-0.155 -0.096,-0.302 -0.143,-0.453 -0.068,-0.213 -0.151,-0.424 -0.194,-0.642 -0.039,-0.194 -0.117,-0.369 -0.189,-0.549 -0.017,-0.044 -0.043,-0.087 -0.049,-0.133 -0.058,-0.415 -0.278,-0.771 -0.416,-1.157 -0.109,-0.307 -0.258,-0.593 -0.431,-0.868 -0.003,-0.005 -0.007,-0.01 -0.008,-0.016 -0.071,-0.288 -0.274,-0.504 -0.415,-0.754 -0.017,-0.031 -0.035,-0.066 -0.062,-0.085 -0.161,-0.115 -0.223,-0.301 -0.333,-0.453 -0.06,-0.083 -0.07,-0.172 -0.019,-0.266 0.044,-0.083 0.082,-0.17 0.123,-0.255 0.119,-0.25 0.237,-0.501 0.358,-0.749 0.026,-0.052 0.065,-0.097 0.095,-0.146 0.046,-0.073 0.09,-0.147 0.139,-0.226 -0.061,-0.041 -0.105,-0.069 -0.147,-0.1 -0.103,-0.074 -0.203,-0.089 -0.328,-0.032 -0.251,0.115 -0.51,0.213 -0.769,0.311 -0.075,0.028 -0.159,0.038 -0.24,0.047 -0.167,0.019 -0.34,-0.038 -0.503,0.05 -0.022,0.012 -0.098,-0.026 -0.11,-0.057 -0.057,-0.135 -0.167,-0.206 -0.282,-0.281 -0.073,-0.047 -0.142,-0.113 -0.186,-0.187 -0.147,-0.248 -0.379,-0.361 -0.64,-0.435 -0.161,-0.046 -0.313,-0.104 -0.424,-0.241 -0.035,-0.043 -0.096,-0.066 -0.144,-0.1 -0.072,-0.05 -0.143,-0.101 -0.213,-0.155 -0.028,-0.021 -0.047,-0.055 -0.077,-0.071 -0.237,-0.127 -0.402,-0.345 -0.621,-0.494 -0.15,-0.101 -0.304,-0.198 -0.459,-0.293 -0.124,-0.078 -0.247,-0.158 -0.378,-0.223 -0.088,-0.043 -0.19,-0.056 -0.283,-0.09 -0.132,-0.048 -0.261,-0.105 -0.393,-0.154 -0.353,-0.13 -0.674,-0.334 -1.044,-0.428 -0.318,-0.08 -0.624,-0.207 -0.939,-0.303 -0.134,-0.041 -0.275,-0.073 -0.414,-0.078 -0.122,-0.004 -0.239,-0.012 -0.339,-0.078 -0.211,-0.139 -0.446,-0.133 -0.682,-0.137 -0.178,-0.003 -0.353,-0.012 -0.498,-0.141 -0.061,-0.055 -0.104,-0.107 -0.102,-0.194 0.001,-0.045 -0.011,-0.092 -0.024,-0.136 -0.062,-0.209 -0.126,-0.417 -0.19,-0.624 -0.011,-0.033 -0.019,-0.074 -0.043,-0.094 -0.108,-0.092 -0.107,-0.216 -0.121,-0.34 -0.016,-0.146 -0.041,-0.29 -0.062,-0.435 -0.007,-0.047 -0.021,-0.093 -0.023,-0.139 -0.031,-0.504 -0.142,-0.992 -0.27,-1.477 -0.025,-0.097 -0.029,-0.199 -0.052,-0.296 -0.045,-0.189 -0.099,-0.376 -0.145,-0.565 -0.028,-0.114 -0.048,-0.229 -0.07,-0.345 -0.014,-0.075 -0.023,-0.151 -0.035,-0.227 -0.025,-0.15 -0.046,-0.302 -0.078,-0.451 -0.021,-0.101 -0.058,-0.199 -0.088,-0.299"
             style="fill:#fff;fill-opacity:1;fill-rule:nonzero;stroke:none"
             id="path6001"
             inkscape:connector-curvature="0" />
        </g>
        <g
           id="g6003"
           transform="translate(473.7016,291.8058)">
          <path
             d="M 0,0 C -0.012,0.015 -0.022,0.042 -0.035,0.044 -0.279,0.076 -0.453,0.24 -0.651,0.359 -0.722,0.401 -0.806,0.422 -0.881,0.458 -0.995,0.514 -1.125,0.555 -1.215,0.637 -1.413,0.817 -1.646,0.922 -1.885,1.023 -2.25,1.177 -2.616,1.326 -2.98,1.484 -3.081,1.528 -3.189,1.577 -3.265,1.653 -3.383,1.768 -3.54,1.771 -3.674,1.835 -3.805,1.898 -3.95,1.935 -4.078,2.003 -4.279,2.111 -4.498,1.987 -4.51,1.756 -4.517,1.613 -4.533,1.469 -4.566,1.33 -4.574,1.294 -4.672,1.241 -4.707,1.254 -4.898,1.327 -5.084,1.414 -5.269,1.502 -5.536,1.63 -5.803,1.758 -6.065,1.894 -6.199,1.963 -6.324,2.05 -6.454,2.127 -6.48,2.143 -6.508,2.156 -6.546,2.176 -6.438,2.327 -6.523,2.446 -6.592,2.581 -6.68,2.752 -6.73,2.943 -6.806,3.121 -6.88,3.293 -6.93,3.48 -7.072,3.616 c -0.005,0.006 -0.015,0.01 -0.017,0.016 -0.052,0.213 -0.212,0.21 -0.383,0.201 -0.125,-0.007 -0.252,10e-4 -0.377,0.003 -0.124,0.003 -0.222,0.078 -0.255,0.178 -0.038,0.117 -0.03,0.252 -0.032,0.379 -0.002,0.224 -0.012,0.45 0.008,0.673 0.111,1.201 0.02,2.404 0.045,3.605 0.005,0.236 -0.025,0.474 -0.051,0.709 -0.009,0.078 -0.037,0.16 -0.139,0.186 -0.02,0.005 -0.047,0.075 -0.036,0.097 0.127,0.249 0.26,0.495 0.394,0.741 0.079,0.146 0.16,0.29 0.246,0.431 0.1,0.164 0.208,0.323 0.309,0.486 0.088,0.14 0.171,0.283 0.257,0.425 0.12,0.2 0.237,0.401 0.361,0.598 0.095,0.151 0.194,0.301 0.302,0.444 0.077,0.101 0.165,0.197 0.261,0.279 0.101,0.087 0.238,0.026 0.237,-0.107 -0.002,-0.157 -0.023,-0.315 -0.041,-0.472 -0.014,-0.127 -0.023,-0.256 -0.058,-0.377 -0.086,-0.293 -0.07,-0.602 -0.181,-0.893 -0.121,-0.317 -0.264,-0.641 -0.223,-0.994 0.021,-0.179 0.078,-0.353 0.12,-0.529 0.043,-0.178 0.083,-0.358 0.134,-0.534 0.032,-0.109 0.085,-0.212 0.123,-0.321 0.031,-0.091 0.056,-0.186 0.08,-0.28 0.034,-0.136 0.067,-0.273 0.096,-0.411 0.022,-0.1 0.034,-0.203 0.058,-0.303 0.024,-0.103 0.057,-0.205 0.087,-0.308 0.003,-0.011 0.009,-0.022 0.01,-0.033 0.019,-0.177 0.033,-0.355 0.057,-0.531 0.025,-0.179 0.079,-0.356 0.086,-0.534 0.005,-0.127 0.079,-0.176 0.159,-0.23 0.034,-0.024 0.093,-0.046 0.123,-0.032 0.039,0.018 0.075,0.069 0.088,0.113 0.081,0.274 0.155,0.55 0.23,0.826 0.044,0.16 0.084,0.321 0.131,0.48 0.028,0.094 0.058,0.189 0.103,0.276 0.036,0.071 0.11,0.084 0.185,0.055 0.074,-0.028 0.116,-0.077 0.113,-0.16 -0.002,-0.087 0.003,-0.174 10e-4,-0.26 -0.007,-0.193 0.047,-0.37 0.14,-0.535 0.134,-0.238 0.219,-0.492 0.273,-0.758 0.009,-0.044 0.037,-0.084 0.059,-0.132 0.04,0.013 0.072,0.03 0.104,0.032 0.119,0.01 0.145,0.082 0.146,0.187 0.002,0.172 0.11,0.602 0.244,0.758 0.116,-0.136 0.274,-0.125 0.435,-0.134 0.054,-0.004 0.112,-0.108 0.149,-0.176 0.128,-0.236 0.249,-0.477 0.371,-0.716 0.036,-0.07 0.054,-0.153 0.104,-0.21 0.091,-0.104 0.223,-0.071 0.278,0.054 0.077,0.178 0.157,0.354 0.234,0.532 0.03,0.07 0.066,0.11 0.152,0.076 0.046,-0.019 0.101,-0.018 0.152,-0.02 0.109,-0.002 0.178,-0.055 0.235,-0.147 0.121,-0.196 0.296,-0.34 0.473,-0.485 0.146,-0.121 0.26,-0.278 0.392,-0.415 0.028,-0.029 0.073,-0.057 0.11,-0.058 0.028,0 0.07,0.037 0.085,0.068 0.085,0.167 0.17,0.335 0.241,0.508 0.037,0.088 0.053,0.186 0.066,0.28 0.023,0.174 0.034,0.348 0.053,0.522 0.013,0.12 0.105,0.216 0.224,0.24 C 0.392,7.006 0.46,6.97 0.535,6.838 0.595,6.731 0.633,6.612 0.775,6.565 0.816,6.552 0.816,6.438 0.852,6.381 0.88,6.337 0.941,6.278 0.977,6.284 1.025,6.293 1.082,6.35 1.103,6.4 1.187,6.596 1.258,6.798 1.335,6.997 1.411,7.193 1.49,7.388 1.564,7.585 1.623,7.741 1.672,7.9 1.731,8.055 1.809,8.261 1.896,8.464 1.973,8.67 2.028,8.818 2.078,8.967 2.121,9.118 2.148,9.213 2.154,9.315 2.179,9.41 c 0.072,0.274 0.047,0.57 0.192,0.826 0.008,0.013 0.01,0.03 0.011,0.045 0.017,0.147 0.041,0.293 0.049,0.44 0.021,0.43 0.034,0.86 0.054,1.289 0.015,0.329 0.03,0.657 0.061,0.985 0.005,0.057 0.075,0.133 0.133,0.155 0.073,0.03 0.165,0.013 0.217,-0.07 0.032,-0.05 0.055,-0.106 0.092,-0.151 0.027,-0.032 0.071,-0.07 0.107,-0.07 0.112,0 0.19,-0.032 0.216,-0.15 0.047,-0.208 0.092,-0.417 0.144,-0.624 0.043,-0.171 0.093,-0.34 0.142,-0.508 0.053,-0.181 0.109,-0.36 0.163,-0.54 0.049,-0.161 0.102,-0.32 0.144,-0.482 C 3.932,10.443 3.939,10.326 3.963,10.213 4.036,9.868 4.005,9.518 4.019,9.17 4.024,9.066 4.075,8.964 4.102,8.86 4.126,8.767 4.147,8.673 4.168,8.579 4.204,8.415 4.231,8.249 4.278,8.089 4.348,7.852 4.381,7.612 4.376,7.366 4.373,7.275 4.369,7.185 4.374,7.094 4.383,6.91 4.336,6.755 4.193,6.627 4.107,6.551 4.042,6.451 3.968,6.362 3.787,6.147 3.608,5.931 3.426,5.717 3.18,5.43 2.912,5.164 2.727,4.825 2.608,4.606 2.43,4.42 2.283,4.215 2.123,3.993 1.942,3.786 1.864,3.51 1.804,3.298 1.698,3.099 1.627,2.889 1.577,2.741 1.555,2.582 1.512,2.431 1.465,2.268 1.415,2.105 1.352,1.948 1.224,1.627 1.102,1.302 0.949,0.993 0.811,0.714 0.638,0.452 0.473,0.186 0.408,0.082 0.281,0.105 0.18,0.075 0.125,0.059 0.076,0.026 0.024,0 Z"
             style="fill:#fff;fill-opacity:1;fill-rule:nonzero;stroke:none"
             id="path6005"
             inkscape:connector-curvature="0" />
        </g>
        <g
           id="g6007"
           transform="translate(462.4062,307.0946)">
          <path
             d="M 0,0 C 0.034,0.077 0.069,0.154 0.101,0.232 0.144,0.334 0.175,0.443 0.228,0.54 0.289,0.653 0.368,0.758 0.441,0.866 0.507,0.964 0.568,1.068 0.643,1.159 0.847,1.404 1.055,1.644 1.265,1.884 1.302,1.927 1.361,1.951 1.4,1.992 1.493,2.091 1.578,2.197 1.669,2.296 1.814,2.452 1.959,2.608 2.108,2.76 2.177,2.829 2.247,2.909 2.333,2.947 2.573,3.052 2.783,3.003 2.912,2.797 2.94,2.753 3.01,2.692 3.036,2.702 c 0.049,0.019 0.101,0.078 0.116,0.13 0.076,0.264 0.244,0.442 0.484,0.563 0.052,0.025 0.094,0.07 0.147,0.09 0.085,0.033 0.174,0.07 0.263,0.073 0.258,0.01 0.518,0.001 0.776,0.006 0.069,0.002 0.137,0.026 0.216,0.042 0,-0.027 0.006,-0.047 0,-0.062 C 4.902,3.221 4.761,2.9 4.63,2.575 4.584,2.461 4.564,2.336 4.525,2.218 4.475,2.064 4.415,1.913 4.365,1.759 4.284,1.51 4.206,1.261 4.133,1.01 4.075,0.811 4.027,0.61 3.973,0.41 3.922,0.224 3.777,0.12 3.585,0.134 3.377,0.15 3.163,0.148 2.962,0.195 2.58,0.286 2.196,0.235 1.815,0.23 1.654,0.228 1.492,0.124 1.332,0.062 1.004,-0.065 0.85,-0.348 0.712,-0.642 0.642,-0.793 0.577,-0.948 0.522,-1.106 0.5,-1.166 0.511,-1.238 0.511,-1.304 0.509,-1.442 0.511,-1.58 0.51,-1.717 0.509,-1.869 0.482,-1.886 0.331,-1.893 0.199,-1.9 0.083,-1.887 0,-1.772 v 0.189 c 0.017,0.03 0.048,0.061 0.049,0.092 C 0.053,-1.3 0.053,-1.109 0.047,-0.918 0.046,-0.872 0.017,-0.826 0,-0.78 Z"
             style="fill:#fff;fill-opacity:1;fill-rule:nonzero;stroke:none"
             id="path6009"
             inkscape:connector-curvature="0" />
        </g>
        <g
           id="g6011"
           transform="translate(471.6944,304.9084)">
          <path
             d="m 0,0 c 0,-0.063 -0.003,-0.126 0.001,-0.189 0.003,-0.031 0.016,-0.085 0.032,-0.088 0.037,-0.006 0.086,0.001 0.117,0.022 0.075,0.049 0.143,0.108 0.212,0.166 0.019,0.016 0.04,0.04 0.045,0.063 C 0.428,0.079 0.438,0.186 0.463,0.29 0.488,0.396 0.525,0.499 0.556,0.603 0.589,0.71 0.664,0.81 0.564,0.928 0.413,1.105 0.278,1.295 0.125,1.47 0.093,1.507 0.011,1.506 -0.049,1.511 -0.065,1.512 -0.095,1.472 -0.1,1.448 -0.123,1.342 -0.137,1.235 -0.157,1.129 -0.174,1.042 -0.183,0.949 -0.22,0.871 -0.293,0.719 -0.271,0.584 -0.16,0.471 -0.029,0.336 0.025,0.184 0,0 m -2.731,3.759 c -0.01,-0.011 -0.02,-0.022 -0.03,-0.033 0.014,-0.045 0.02,-0.095 0.044,-0.135 0.076,-0.131 0.147,-0.267 0.242,-0.384 0.083,-0.104 0.18,-0.234 0.296,-0.269 0.274,-0.082 0.563,-0.116 0.846,-0.165 0.072,-0.012 0.147,-0.002 0.221,-0.008 0.139,-0.012 0.279,-0.032 0.419,-0.042 0.087,-0.006 0.122,0.05 0.133,0.132 0.008,0.065 0.03,0.127 0.041,0.191 0.019,0.107 0.034,0.214 0.051,0.323 -0.109,0.029 -0.204,0.071 -0.302,0.076 -0.374,0.022 -0.753,-0.032 -1.119,0.102 -0.163,0.06 -0.333,0.101 -0.502,0.144 -0.112,0.028 -0.227,0.046 -0.34,0.068 M 3.262,2.773 C 3.23,2.928 3.195,3.097 3.16,3.266 3.113,3.485 3.058,3.703 3.023,3.924 3.006,4.034 2.943,4.024 2.884,3.998 2.814,3.968 2.754,3.915 2.693,3.867 2.509,3.723 2.329,3.573 2.143,3.431 1.977,3.303 1.804,3.184 1.634,3.061 1.509,2.971 1.381,2.884 1.257,2.791 1.165,2.721 1.074,2.648 0.99,2.569 0.968,2.548 0.966,2.495 0.973,2.461 0.977,2.445 1.023,2.427 1.05,2.427 1.195,2.428 1.341,2.43 1.486,2.44 1.817,2.463 2.148,2.491 2.479,2.517 2.584,2.525 2.69,2.535 2.796,2.541 2.857,2.544 2.92,2.55 2.98,2.542 3.122,2.524 3.255,2.623 3.262,2.773 M 1.048,6.907 C 1.328,6.941 1.609,6.975 1.89,7.009 1.901,7.011 1.913,7.012 1.925,7.013 2.194,7.032 2.465,7.046 2.734,7.072 2.893,7.087 2.981,7 3.06,6.886 3.12,6.8 3.169,6.704 3.243,6.633 3.283,6.595 3.365,6.593 3.429,6.588 3.6,6.573 3.772,6.571 3.942,6.552 3.989,6.546 4.038,6.504 4.075,6.467 4.149,6.393 4.209,6.303 4.287,6.233 4.49,6.05 4.596,5.809 4.692,5.563 4.796,5.298 4.896,5.031 4.992,4.763 5.035,4.643 5.058,4.515 5.103,4.396 5.18,4.191 5.274,3.992 5.346,3.785 5.448,3.493 5.533,3.194 5.506,2.879 5.503,2.845 5.464,2.799 5.431,2.786 5.297,2.732 5.245,2.668 5.255,2.514 5.265,2.348 5.271,2.186 5.162,2.046 5.157,2.04 5.153,2.03 5.155,2.024 5.202,1.815 5.028,1.788 4.905,1.722 4.793,1.662 4.678,1.609 4.563,1.554 4.349,1.452 4.135,1.351 3.921,1.249 3.904,1.241 3.887,1.23 3.873,1.218 3.7,1.068 3.619,0.693 3.711,0.48 3.72,0.459 3.721,0.435 3.726,0.412 3.771,0.192 3.817,-0.027 3.858,-0.247 3.869,-0.307 3.883,-0.376 3.866,-0.43 3.802,-0.628 3.722,-0.82 3.655,-1.016 3.617,-1.127 3.605,-1.248 3.559,-1.354 3.409,-1.695 3.242,-2.029 3.097,-2.371 3.033,-2.522 3.003,-2.688 2.962,-2.849 2.938,-2.942 2.921,-3.036 2.904,-3.131 2.887,-3.226 2.867,-3.321 2.86,-3.417 2.839,-3.687 2.841,-3.959 2.802,-4.226 2.759,-4.514 2.687,-4.8 2.542,-5.058 2.518,-5.1 2.443,-5.132 2.39,-5.134 2.33,-5.138 2.245,-5.147 2.242,-5.032 2.24,-4.976 2.188,-4.923 2.163,-4.867 2.137,-4.809 2.119,-4.747 2.092,-4.69 2.077,-4.659 2.052,-4.616 2.027,-4.612 2.002,-4.608 1.954,-4.641 1.944,-4.668 1.872,-4.869 1.814,-5.076 1.736,-5.275 1.676,-5.43 1.604,-5.584 1.516,-5.725 1.473,-5.794 1.389,-5.775 1.32,-5.718 1.263,-5.672 1.187,-5.6 1.132,-5.61 1.033,-5.629 1.076,-5.74 1.069,-5.813 1.052,-5.996 0.973,-6.096 0.862,-6.043 c -0.065,0.032 -0.121,0.12 -0.145,0.195 -0.056,0.172 -0.067,0.343 -0.015,0.53 0.043,0.154 0.018,0.327 0.019,0.492 0,0.205 -0.006,0.411 -0.004,0.617 C 0.72,-4.013 0.649,-3.912 0.461,-3.861 0.238,-3.801 0.182,-3.845 0.15,-4.079 0.136,-4.176 0.095,-4.269 0.071,-4.366 0.045,-4.47 0.019,-4.576 0.003,-4.682 -0.02,-4.835 -0.022,-4.991 -0.055,-5.141 c -0.053,-0.234 -0.12,-0.465 -0.192,-0.694 -0.014,-0.044 -0.098,-0.108 -0.12,-0.098 -0.052,0.024 -0.112,0.081 -0.125,0.135 -0.033,0.147 -0.034,0.301 -0.064,0.449 -0.049,0.243 -0.079,0.49 -0.181,0.722 -0.066,0.152 -0.096,0.322 -0.128,0.486 -0.03,0.156 -0.053,0.314 -0.057,0.472 -0.004,0.142 0.023,0.283 0.034,0.426 0.008,0.105 0.021,0.21 0.015,0.315 -0.004,0.065 -0.12,0.071 -0.169,0 -0.07,-0.101 -0.139,-0.206 -0.182,-0.319 -0.111,-0.292 -0.205,-0.591 -0.311,-0.884 -0.071,-0.196 -0.147,-0.388 -0.151,-0.601 -0.001,-0.027 -0.027,-0.055 -0.044,-0.08 -0.037,-0.055 -0.075,-0.108 -0.113,-0.162 -0.054,0.047 -0.13,0.085 -0.159,0.145 -0.06,0.125 -0.095,0.261 -0.14,0.392 -0.018,0.054 -0.038,0.108 -0.051,0.164 -0.067,0.286 -0.129,0.573 -0.198,0.858 -0.044,0.178 -0.12,0.35 -0.141,0.53 -0.026,0.224 -0.167,0.402 -0.206,0.616 -0.021,0.11 -0.033,0.227 -0.02,0.338 0.024,0.204 -0.01,0.384 -0.141,0.547 -0.088,0.109 -0.09,0.46 0.002,0.569 0.097,0.116 0.185,0.248 0.35,0.283 0.016,0.003 0.036,0.021 0.039,0.036 0.023,0.102 0.053,0.204 0.061,0.307 0.021,0.293 0.023,0.587 0.053,0.878 0.014,0.136 0.062,0.272 0.119,0.398 0.082,0.182 0.064,0.224 -0.128,0.27 C -2.551,1.393 -2.691,1.461 -2.839,1.498 -3.023,1.545 -3.211,1.573 -3.397,1.61 -3.503,1.63 -3.607,1.655 -3.713,1.672 -3.798,1.685 -3.889,1.71 -3.97,1.693 -4.164,1.652 -4.455,1.772 -4.541,1.951 -4.552,1.973 -4.55,2.005 -4.544,2.03 c 0.057,0.208 0.124,0.414 0.172,0.624 0.062,0.27 0.166,0.526 0.197,0.808 0.033,0.298 0.095,0.597 0.233,0.877 0.109,0.221 0.182,0.462 0.262,0.697 0.027,0.076 0.016,0.165 0.04,0.242 0.051,0.165 0.109,0.329 0.174,0.489 0.014,0.034 0.063,0.066 0.102,0.078 0.176,0.053 0.353,0.107 0.533,0.144 0.137,0.028 0.28,0.032 0.42,0.042 0.157,0.011 0.316,0.008 0.472,0.027 0.171,0.02 0.341,0.059 0.512,0.089 0.015,0.003 0.031,0.004 0.046,0.005 0.287,0.018 0.573,0.032 0.859,0.053 0.115,0.009 0.233,0.023 0.342,0.056 0.083,0.025 0.142,0.087 0.14,0.194 -0.004,0.179 0.077,0.269 0.248,0.31 C 0.394,6.81 0.577,6.867 0.764,6.907 0.855,6.926 0.952,6.919 1.046,6.924 1.047,6.918 1.047,6.912 1.048,6.907"
             style="fill:#fff;fill-opacity:1;fill-rule:nonzero;stroke:none"
             id="path6013"
             inkscape:connector-curvature="0" />
        </g>
        <g
           id="g6015"
           transform="translate(478.0494,308.1028)">
          <path
             d="m 0,0 c -0.04,0.201 -0.083,0.401 -0.117,0.603 -0.01,0.063 0.011,0.131 0.011,0.197 0,0.091 -0.007,0.183 -0.009,0.274 -0.003,0.125 -0.005,0.25 -0.007,0.376 -0.002,0.086 -0.001,0.173 -0.007,0.259 -0.002,0.028 -0.015,0.061 -0.033,0.082 -0.096,0.106 -0.177,0.225 -0.319,0.284 -0.251,0.106 -0.372,0.341 -0.505,0.554 -0.076,0.122 -0.121,0.263 -0.224,0.37 -0.021,0.021 -0.023,0.06 -0.033,0.091 0.04,0.004 0.086,0.023 0.12,0.01 C -0.934,3.026 -0.749,2.943 -0.56,2.867 -0.529,2.855 -0.49,2.866 -0.456,2.858 -0.365,2.837 -0.274,2.818 -0.187,2.786 -0.061,2.738 0.057,2.667 0.186,2.628 0.397,2.564 0.597,2.486 0.768,2.339 0.821,2.294 0.908,2.292 0.974,2.259 1.172,2.161 1.374,2.068 1.564,1.955 1.84,1.79 2.109,1.613 2.376,1.433 2.55,1.315 2.706,1.167 2.887,1.064 3.034,0.981 3.165,0.891 3.279,0.768 3.344,0.698 3.421,0.638 3.498,0.579 3.618,0.487 3.695,0.37 3.759,0.232 3.801,0.141 3.894,0.072 3.967,-0.005 4.004,-0.044 4.056,-0.071 4.086,-0.114 4.145,-0.198 4.097,-0.303 3.996,-0.303 3.844,-0.303 3.692,-0.288 3.541,-0.28 3.493,-0.277 3.446,-0.27 3.399,-0.274 3.251,-0.284 3.103,-0.294 2.956,-0.311 2.907,-0.317 2.861,-0.344 2.814,-0.358 2.611,-0.419 2.406,-0.473 2.205,-0.541 2.015,-0.604 1.834,-0.721 1.64,-0.742 1.408,-0.768 1.245,-0.931 1.03,-0.976 1.005,-0.982 0.973,-0.993 0.959,-1.012 0.869,-1.137 0.739,-1.181 0.599,-1.235 0.404,-1.31 0.282,-1.233 0.148,-1.121 0.05,-1.039 0.05,-0.916 0.034,-0.816 c -0.041,0.267 -0.046,0.54 -0.066,0.81 z"
             style="fill:#fff;fill-opacity:1;fill-rule:nonzero;stroke:none"
             id="path6017"
             inkscape:connector-curvature="0" />
        </g>
      </g>
    </g>
  </g>
</svg>
