<?xml version="1.0" encoding="UTF-8" standalone="no"?>
<!-- Created with Inkscape (http://www.inkscape.org/) -->

<svg
   xmlns:dc="http://purl.org/dc/elements/1.1/"
   xmlns:cc="http://creativecommons.org/ns#"
   xmlns:rdf="http://www.w3.org/1999/02/22-rdf-syntax-ns#"
   xmlns:svg="http://www.w3.org/2000/svg"
   xmlns="http://www.w3.org/2000/svg"
   xmlns:sodipodi="http://sodipodi.sourceforge.net/DTD/sodipodi-0.dtd"
   xmlns:inkscape="http://www.inkscape.org/namespaces/inkscape"
   width="11.6205mm"
   height="12.86951mm"
   viewBox="0 0 11.6205 12.86951"
   version="1.1"
   id="svg8246"
   inkscape:version="0.92.5 (2060ec1f9f, 2020-04-08)"
   sodipodi:docname="allies-tzeentch.svg">
  <defs
     id="defs8240">
    <clipPath
       clipPathUnits="userSpaceOnUse"
       id="clipPath5689">
      <path
         d="m 215.266,246.018 h 32.94 v 36.481 h -32.94 z"
         id="path5687"
         inkscape:connector-curvature="0" />
    </clipPath>
  </defs>
  <sodipodi:namedview
     id="base"
     pagecolor="#ffffff"
     bordercolor="#666666"
     borderopacity="1.0"
     inkscape:pageopacity="0.0"
     inkscape:pageshadow="2"
     inkscape:zoom="0.35"
     inkscape:cx="10.531426"
     inkscape:cy="158.60604"
     inkscape:document-units="mm"
     inkscape:current-layer="layer1"
     showgrid="false"
     fit-margin-top="0"
     fit-margin-left="0"
     fit-margin-right="0"
     fit-margin-bottom="0"
     inkscape:window-width="1920"
     inkscape:window-height="1017"
     inkscape:window-x="-8"
     inkscape:window-y="-8"
     inkscape:window-maximized="1" />
  <metadata
     id="metadata8243">
    <rdf:RDF>
      <cc:Work
         rdf:about="">
        <dc:format>image/svg+xml</dc:format>
        <dc:type
           rdf:resource="http://purl.org/dc/dcmitype/StillImage" />
        <dc:title></dc:title>
      </cc:Work>
    </rdf:RDF>
  </metadata>
  <g
     inkscape:label="Layer 1"
     inkscape:groupmode="layer"
     id="layer1"
     transform="translate(-103.04689,-177.92834)">
    <g
       transform="matrix(0.35277777,0,0,-0.35277777,27.105834,277.58753)"
       id="g5683">
      <g
         id="g5685"
         clip-path="url(#clipPath5689)">
        <g
           id="g5691"
           transform="translate(221.084,269.0785)">
          <path
             d="m 0,0 c -0.013,-0.085 -0.016,-0.153 -0.036,-0.217 -0.022,-0.069 -0.066,-0.13 -0.089,-0.199 -0.112,-0.335 -0.225,-0.67 -0.328,-1.008 -0.036,-0.117 -0.044,-0.242 -0.067,-0.363 -0.021,-0.104 -0.044,-0.207 -0.068,-0.309 -0.042,-0.179 -0.116,-0.357 -0.121,-0.538 -0.015,-0.499 -0.003,-1 0.001,-1.5 0.003,-0.421 0.013,-0.841 0.014,-1.262 0.002,-0.364 -0.008,-0.728 -0.006,-1.093 0.001,-0.11 0.011,-0.227 0.048,-0.33 0.075,-0.211 0.063,-0.442 0.16,-0.647 0.005,-0.009 0,-0.022 0.003,-0.033 0.02,-0.086 0.036,-0.174 0.065,-0.258 0.025,-0.074 0.083,-0.139 0.095,-0.214 0.034,-0.215 0.097,-0.422 0.149,-0.632 0.03,-0.119 0.039,-0.248 0.091,-0.356 0.068,-0.141 0.078,-0.288 0.114,-0.432 0.045,-0.183 0.113,-0.36 0.113,-0.552 0.139,-0.247 0.236,-0.508 0.268,-0.79 10e-4,-0.006 0.004,-0.011 0.007,-0.016 0.127,-0.236 0.217,-0.494 0.399,-0.7 0.088,-0.101 0.158,-0.219 0.247,-0.319 0.182,-0.205 0.372,-0.403 0.559,-0.604 0.121,-0.132 0.282,-0.225 0.363,-0.394 0.017,-0.034 0.05,-0.062 0.08,-0.086 0.133,-0.104 0.267,-0.206 0.402,-0.307 0.071,-0.054 0.151,-0.099 0.216,-0.159 0.136,-0.125 0.262,-0.26 0.397,-0.386 0.081,-0.076 0.169,-0.145 0.257,-0.215 0.161,-0.13 0.302,-0.293 0.501,-0.365 0.229,-0.083 0.398,-0.248 0.591,-0.381 0.132,-0.091 0.278,-0.165 0.424,-0.232 0.208,-0.097 0.423,-0.171 0.6,-0.333 0.133,-0.12 0.252,-0.261 0.446,-0.315 0.305,-0.084 0.58,-0.268 0.912,-0.267 0.054,0 0.107,-0.035 0.161,-0.047 0.186,-0.043 0.37,-0.098 0.558,-0.119 0.177,-0.02 0.358,0 0.537,-0.005 0.082,-0.003 0.174,-0.004 0.243,-0.041 0.195,-0.106 0.399,-0.174 0.619,-0.181 0.287,-0.01 0.574,-0.002 0.861,-0.008 0.078,-10e-4 0.155,-0.019 0.232,-0.032 0.127,-0.021 0.253,-0.06 0.38,-0.062 0.534,-0.007 1.069,-0.005 1.604,-0.001 0.088,0.001 0.18,0.015 0.265,0.04 0.193,0.059 0.388,0.117 0.573,0.196 0.19,0.081 0.381,0.076 0.578,0.07 0.134,-0.005 0.27,-0.004 0.402,0.017 0.249,0.04 0.499,0.083 0.741,0.15 0.174,0.048 0.351,0.085 0.506,0.211 0.152,0.124 0.317,0.252 0.526,0.291 0.05,0.009 0.1,0.05 0.139,0.088 0.09,0.09 0.192,0.151 0.315,0.188 0.079,0.024 0.155,0.065 0.227,0.107 0.275,0.162 0.528,0.36 0.824,0.486 0.09,0.038 0.172,0.077 0.273,0.056 0.03,-0.007 0.071,10e-4 0.094,0.019 0.113,0.083 0.224,0.169 0.331,0.259 0.106,0.091 0.203,0.194 0.311,0.282 0.192,0.155 0.399,0.292 0.582,0.457 0.237,0.214 0.459,0.445 0.681,0.674 0.164,0.168 0.329,0.338 0.476,0.521 0.101,0.125 0.172,0.273 0.257,0.412 0.032,0.052 0.06,0.107 0.095,0.158 0.122,0.182 0.238,0.366 0.294,0.583 0.019,0.074 0.055,0.152 0.105,0.208 0.175,0.197 0.276,0.436 0.398,0.663 0.063,0.117 0.109,0.245 0.161,0.369 0.091,0.217 0.18,0.435 0.272,0.652 0.035,0.082 0.071,0.164 0.116,0.241 0.091,0.157 0.171,0.313 0.183,0.501 0.007,0.103 0.054,0.204 0.09,0.304 0.047,0.132 0.11,0.258 0.149,0.392 0.085,0.296 0.078,0.613 0.206,0.9 0.011,0.025 0.014,0.056 0.011,0.083 -0.031,0.231 0.067,0.442 0.104,0.662 0.022,0.138 0.04,0.276 0.058,0.415 0.009,0.067 0.006,0.136 0.023,0.2 0.067,0.247 0.086,0.496 0.08,0.751 -0.003,0.115 0.02,0.235 0.058,0.344 0.032,0.093 0.057,0.18 0.043,0.278 -0.007,0.05 -0.007,0.102 -0.004,0.152 0.013,0.259 -0.001,0.515 -0.079,0.766 -0.045,0.144 -0.076,0.293 -0.113,0.44 -0.039,0.158 -0.073,0.317 -0.117,0.473 -0.072,0.259 -0.153,0.515 -0.226,0.774 -0.073,0.259 -0.144,0.519 -0.209,0.78 -0.028,0.113 -0.054,0.23 -0.056,0.345 -0.002,0.115 -0.017,0.22 -0.06,0.328 C 21.627,0.123 21.587,0.276 21.54,0.426 21.487,0.591 21.44,0.758 21.382,0.922 21.3,1.154 21.22,1.389 21.12,1.614 21.026,1.824 20.914,2.026 20.798,2.224 20.707,2.379 20.595,2.521 20.499,2.672 20.418,2.801 20.338,2.924 20.221,3.029 20.093,3.144 19.99,3.288 19.879,3.421 19.861,3.442 19.852,3.471 19.845,3.497 19.804,3.676 19.692,3.806 19.564,3.928 19.487,4.001 19.409,4.074 19.34,4.155 19.287,4.217 19.23,4.264 19.15,4.287 19.04,4.318 18.951,4.381 18.878,4.473 18.822,4.543 18.749,4.599 18.681,4.656 18.517,4.793 18.344,4.92 18.187,5.065 17.832,5.393 17.482,5.729 17.133,6.064 17,6.191 16.842,6.271 16.669,6.33 16.602,6.352 16.535,6.387 16.481,6.432 16.354,6.539 16.218,6.595 16.048,6.585 15.975,6.58 15.896,6.608 15.826,6.636 15.733,6.674 15.65,6.738 15.557,6.772 15.413,6.825 15.279,6.886 15.171,7 15.064,7.111 14.943,7.197 14.773,7.189 14.722,7.187 14.668,7.221 14.618,7.244 14.449,7.322 14.282,7.38 14.087,7.385 13.703,7.394 13.312,7.341 12.937,7.481 12.76,7.547 12.567,7.568 12.404,7.674 12.283,7.753 12.152,7.79 12.005,7.782 11.842,7.774 11.678,7.783 11.515,7.776 11.45,7.774 11.386,7.749 11.321,7.734 11.241,7.715 11.161,7.68 11.08,7.678 10.715,7.672 10.349,7.673 9.983,7.674 9.851,7.675 9.734,7.645 9.612,7.588 9.494,7.534 9.342,7.555 9.221,7.505 8.926,7.382 8.64,7.237 8.352,7.099 8.317,7.082 8.29,7.05 8.255,7.032 8.182,6.994 8.108,6.956 8.031,6.926 7.822,6.844 7.599,6.79 7.406,6.683 7.124,6.526 6.829,6.409 6.531,6.293 6.159,6.149 5.799,5.984 5.467,5.761 5.393,5.712 5.306,5.681 5.221,5.653 5.089,5.609 4.952,5.577 4.819,5.535 4.783,5.524 4.751,5.495 4.724,5.468 4.477,5.219 4.216,4.993 3.871,4.889 3.829,4.876 3.791,4.847 3.756,4.818 3.674,4.75 3.598,4.675 3.516,4.608 3.386,4.502 3.252,4.401 3.121,4.297 2.901,4.125 2.656,3.983 2.478,3.757 2.389,3.644 2.276,3.548 2.166,3.452 2.062,3.359 1.947,3.279 1.839,3.19 1.73,3.101 1.636,2.987 1.515,2.924 1.399,2.865 1.344,2.783 1.29,2.674 1.093,2.271 0.882,1.873 0.681,1.471 0.494,1.098 0.389,0.694 0.262,0.299 0.217,0.159 0.169,0.031 0,0 m 0.467,-12.777 c -0.053,0.065 -0.122,0.139 -0.18,0.22 -0.21,0.299 -0.43,0.588 -0.603,0.913 -0.1,0.19 -0.21,0.378 -0.374,0.531 -0.096,0.089 -0.156,0.218 -0.225,0.334 -0.057,0.096 -0.104,0.199 -0.151,0.3 -0.024,0.051 -0.058,0.105 -0.056,0.157 0.005,0.166 -0.068,0.304 -0.141,0.442 -0.083,0.158 -0.055,0.33 -0.07,0.496 -0.006,0.066 -0.019,0.132 -0.031,0.197 -0.01,0.055 -0.022,0.109 -0.037,0.163 -0.069,0.254 -0.138,0.508 -0.209,0.761 -0.011,0.038 -0.044,0.071 -0.046,0.108 -0.017,0.246 -0.142,0.472 -0.134,0.723 0.001,0.032 0.003,0.073 -0.014,0.097 -0.075,0.11 -0.074,0.232 -0.078,0.357 -0.004,0.11 0.008,0.225 -0.056,0.326 -0.009,0.013 -0.008,0.033 -0.008,0.049 -0.003,0.27 -0.049,0.534 -0.1,0.798 -0.006,0.033 0.005,0.078 -0.013,0.098 -0.103,0.121 -0.089,0.266 -0.082,0.403 0.007,0.168 -0.02,0.324 -0.096,0.485 -0.149,0.005 -0.286,0.057 -0.396,0.172 -0.018,0.019 -0.049,0.03 -0.076,0.036 -0.19,0.04 -0.383,0.071 -0.571,0.119 -0.113,0.028 -0.217,0.088 -0.329,0.121 -0.204,0.059 -0.411,0.109 -0.616,0.163 -0.054,0.014 -0.109,0.027 -0.164,0.038 -0.415,0.088 -0.826,0.208 -1.259,0.163 -0.053,-0.005 -0.108,-0.001 -0.17,-0.001 10e-4,0.119 0.07,0.175 0.146,0.223 0.104,0.066 0.222,0.078 0.342,0.072 0.114,-0.005 0.22,0.016 0.329,0.054 0.093,0.033 0.197,0.039 0.297,0.046 0.107,0.007 0.214,10e-4 0.321,0.002 0.039,0 0.08,-0.002 0.117,0.009 0.176,0.052 0.348,0.122 0.527,0.159 0.204,0.044 0.393,0.127 0.585,0.201 0.102,0.039 0.175,0.134 0.297,0.144 0.116,0.01 0.231,0.038 0.343,0.071 0.117,0.035 0.239,0.069 0.341,0.132 0.101,0.061 0.193,0.081 0.305,0.035 0.084,0.149 0.151,0.292 0.136,0.465 -0.01,0.111 0.006,0.225 0.002,0.337 -0.005,0.128 0.014,0.246 0.088,0.353 0.007,0.009 0.013,0.019 0.015,0.03 0.043,0.184 0.084,0.369 0.127,0.554 0.011,0.049 0.015,0.103 0.04,0.144 0.131,0.214 0.184,0.458 0.275,0.687 0.095,0.239 0.143,0.49 0.204,0.738 0.008,0.033 0.014,0.068 0.032,0.096 0.185,0.304 0.236,0.666 0.423,0.969 0.059,0.095 0.097,0.203 0.135,0.309 0.105,0.293 0.254,0.562 0.412,0.828 0.061,0.1 0.11,0.203 0.208,0.279 0.044,0.033 0.063,0.119 0.066,0.181 0.006,0.169 -0.025,0.341 -0.002,0.506 0.032,0.222 -0.094,0.361 -0.2,0.526 -0.194,0.302 -0.375,0.614 -0.544,0.931 -0.174,0.33 -0.35,0.654 -0.612,0.925 -0.058,0.06 -0.105,0.132 -0.151,0.203 -0.232,0.352 -0.48,0.693 -0.754,1.014 -0.109,0.128 -0.19,0.278 -0.283,0.419 -0.172,0.263 -0.345,0.526 -0.514,0.791 -0.032,0.05 -0.051,0.109 -0.083,0.179 0.155,0.005 0.278,0.016 0.406,-0.086 0.174,-0.138 0.38,-0.237 0.57,-0.356 C -1.796,8.114 -1.72,8.063 -1.657,8.001 -1.449,7.796 -1.253,7.578 -0.996,7.428 -0.944,7.397 -0.906,7.342 -0.857,7.305 -0.786,7.252 -0.715,7.187 -0.634,7.159 -0.478,7.106 -0.366,7.003 -0.248,6.897 -0.12,6.781 0.031,6.69 0.17,6.586 0.336,6.462 0.509,6.344 0.663,6.206 0.944,5.954 1.263,5.779 1.619,5.659 1.701,5.631 1.777,5.576 1.85,5.524 2.036,5.394 2.219,5.462 2.271,5.685 2.308,5.845 2.412,5.923 2.576,5.915 2.731,5.908 2.86,5.977 2.984,6.058 3.243,6.226 3.5,6.397 3.759,6.566 3.849,6.624 3.938,6.683 4.031,6.737 4.155,6.81 4.28,6.87 4.424,6.911 c 0.305,0.087 0.603,0.205 0.883,0.363 0.284,0.159 0.578,0.294 0.888,0.4 0.205,0.07 0.393,0.189 0.591,0.279 0.199,0.09 0.4,0.178 0.604,0.254 0.267,0.101 0.538,0.186 0.793,0.32 0.191,0.1 0.407,0.154 0.613,0.225 0.101,0.034 0.205,0.059 0.307,0.089 0.22,0.065 0.44,0.132 0.661,0.196 0.098,0.029 0.154,0.085 0.151,0.193 -10e-4,0.045 0.002,0.094 0.021,0.133 0.087,0.174 0.087,0.36 0.077,0.545 -0.013,0.243 0.086,0.462 0.133,0.693 0.088,0.429 0.178,0.858 0.264,1.288 0.013,0.065 0.007,0.134 0.013,0.202 0.005,0.061 -0.006,0.134 0.023,0.182 0.104,0.166 0.068,0.347 0.077,0.524 0.005,0.101 -0.002,0.2 0.068,0.289 0.026,0.034 0.015,0.096 0.026,0.145 0.013,0.056 0.031,0.112 0.052,0.189 0.097,-0.082 0.099,-0.177 0.122,-0.257 0.07,-0.249 0.135,-0.499 0.193,-0.75 0.034,-0.147 0.052,-0.298 0.075,-0.448 0.022,-0.15 0.034,-0.301 0.063,-0.449 0.015,-0.075 0.045,-0.154 0.089,-0.215 0.126,-0.173 0.17,-0.362 0.137,-0.57 -0.013,-0.079 -0.005,-0.146 0.031,-0.224 0.04,-0.089 0.044,-0.195 0.052,-0.295 0.009,-0.095 0.013,-0.183 0.061,-0.275 0.041,-0.079 0.04,-0.184 0.045,-0.278 0.007,-0.168 -0.019,-0.341 0.151,-0.505 0.079,0 0.2,0.005 0.32,-0.002 0.083,-0.004 0.171,-0.011 0.247,-0.041 0.143,-0.059 0.29,-0.073 0.442,-0.091 0.199,-0.023 0.394,-0.078 0.592,-0.116 0.11,-0.021 0.22,-0.045 0.331,-0.05 0.162,-0.009 0.329,0.02 0.488,-0.006 0.246,-0.04 0.497,-0.051 0.73,-0.179 0.152,-0.083 0.303,-0.164 0.452,-0.253 0.177,-0.105 0.379,-0.167 0.566,-0.256 0.105,-0.05 0.206,-0.112 0.3,-0.18 0.173,-0.124 0.33,-0.263 0.552,-0.309 0.156,-0.033 0.304,-0.112 0.451,-0.181 0.213,-0.101 0.422,-0.209 0.63,-0.319 0.064,-0.034 0.12,-0.083 0.175,-0.13 0.146,-0.123 0.281,-0.26 0.435,-0.371 0.117,-0.084 0.256,-0.136 0.385,-0.203 0.079,-0.041 0.168,-0.07 0.236,-0.126 0.225,-0.184 0.442,-0.379 0.664,-0.568 0.042,-0.036 0.092,-0.063 0.13,-0.088 0.213,0.043 0.35,0.195 0.516,0.298 0.142,0.088 0.269,0.199 0.443,0.235 0.083,0.017 0.152,0.091 0.232,0.132 0.048,0.026 0.103,0.052 0.156,0.055 0.145,0.008 0.226,-0.123 0.161,-0.247 C 21.237,5.993 21.157,5.825 21.066,5.663 20.979,5.507 20.898,5.343 20.785,5.208 20.597,4.986 20.605,4.763 20.715,4.518 20.853,4.213 21.041,3.941 21.249,3.682 21.365,3.538 21.492,3.401 21.605,3.254 21.683,3.153 21.756,3.044 21.812,2.93 21.917,2.72 22.089,2.562 22.23,2.382 22.396,2.17 22.52,1.944 22.561,1.676 22.567,1.638 22.583,1.601 22.595,1.564 22.694,1.272 22.791,0.98 22.892,0.689 c 0.088,-0.255 0.181,-0.508 0.27,-0.762 0.054,-0.153 0.13,-0.304 0.151,-0.462 0.025,-0.185 0.116,-0.338 0.176,-0.506 0.06,-0.163 0.113,-0.329 0.163,-0.495 0.056,-0.188 0.1,-0.379 0.161,-0.566 0.064,-0.197 0.144,-0.387 0.167,-0.597 0.024,-0.221 0.135,-0.32 0.353,-0.316 0.158,0.003 0.293,-0.069 0.407,-0.145 0.2,-0.132 0.404,-0.174 0.634,-0.154 0.106,0.009 0.214,0.006 0.32,0.002 0.049,-0.002 0.113,-0.006 0.143,-0.036 0.076,-0.074 0.165,-0.072 0.253,-0.061 0.212,0.027 0.412,-0.042 0.614,-0.08 0.135,-0.025 0.258,-0.113 0.419,-0.187 C 26.964,-3.73 26.83,-3.767 26.704,-3.821 26.559,-3.882 26.416,-3.95 26.28,-4.028 26.008,-4.186 25.743,-4.356 25.47,-4.513 25.394,-4.557 25.304,-4.59 25.217,-4.601 24.981,-4.629 24.782,-4.745 24.578,-4.852 24.518,-4.883 24.461,-4.92 24.399,-4.947 24.262,-5.008 24.15,-5.089 24.104,-5.245 24.085,-5.306 24.036,-5.359 24.003,-5.417 23.952,-5.504 23.872,-5.588 23.86,-5.681 23.828,-5.924 23.756,-6.16 23.739,-6.407 23.728,-6.555 23.677,-6.701 23.637,-6.846 23.554,-7.154 23.438,-7.453 23.391,-7.773 23.369,-7.92 23.3,-8.06 23.254,-8.204 23.19,-8.407 23.111,-8.608 23.069,-8.816 23.032,-9.001 22.958,-9.168 22.89,-9.34 c -0.017,-0.041 -0.041,-0.082 -0.047,-0.126 -0.056,-0.395 -0.265,-0.735 -0.397,-1.103 -0.104,-0.292 -0.246,-0.565 -0.41,-0.827 -0.003,-0.005 -0.007,-0.01 -0.008,-0.015 -0.068,-0.274 -0.261,-0.48 -0.395,-0.719 -0.017,-0.029 -0.034,-0.062 -0.06,-0.081 -0.153,-0.109 -0.212,-0.287 -0.317,-0.431 -0.058,-0.079 -0.067,-0.164 -0.019,-0.254 0.043,-0.079 0.079,-0.162 0.117,-0.243 0.114,-0.238 0.227,-0.477 0.342,-0.714 0.024,-0.049 0.061,-0.092 0.09,-0.139 0.044,-0.069 0.086,-0.139 0.133,-0.215 -0.058,-0.04 -0.1,-0.066 -0.14,-0.095 -0.098,-0.071 -0.193,-0.085 -0.312,-0.031 -0.24,0.109 -0.487,0.203 -0.733,0.296 -0.072,0.027 -0.151,0.036 -0.228,0.045 -0.159,0.018 -0.325,-0.036 -0.48,0.047 -0.021,0.012 -0.093,-0.024 -0.105,-0.053 -0.054,-0.129 -0.159,-0.197 -0.269,-0.268 -0.069,-0.045 -0.135,-0.108 -0.177,-0.178 -0.144,-0.242 -0.372,-0.348 -0.627,-0.42 -0.147,-0.042 -0.286,-0.098 -0.386,-0.225 -0.03,-0.037 -0.082,-0.057 -0.123,-0.087 -0.077,-0.055 -0.154,-0.111 -0.229,-0.167 -0.023,-0.017 -0.039,-0.044 -0.062,-0.057 -0.222,-0.117 -0.376,-0.32 -0.579,-0.459 -0.148,-0.101 -0.299,-0.196 -0.45,-0.291 -0.119,-0.073 -0.236,-0.15 -0.361,-0.212 -0.084,-0.041 -0.179,-0.058 -0.27,-0.085 -0.048,-0.014 -0.099,-0.021 -0.145,-0.042 -0.312,-0.139 -0.623,-0.282 -0.935,-0.423 -0.041,-0.018 -0.084,-0.032 -0.126,-0.046 -0.218,-0.073 -0.432,-0.156 -0.653,-0.215 -0.297,-0.079 -0.584,-0.202 -0.901,-0.198 -0.068,10e-4 -0.146,-0.026 -0.205,-0.063 -0.207,-0.132 -0.435,-0.136 -0.666,-0.137 -0.17,-10e-4 -0.337,-0.011 -0.475,-0.134 -0.058,-0.051 -0.097,-0.102 -0.098,-0.184 -10e-4,-0.054 -0.021,-0.108 -0.036,-0.161 -0.054,-0.183 -0.109,-0.365 -0.165,-0.547 -0.012,-0.037 -0.018,-0.084 -0.044,-0.106 -0.101,-0.088 -0.102,-0.206 -0.114,-0.324 -0.016,-0.139 -0.039,-0.277 -0.06,-0.415 -0.007,-0.044 -0.02,-0.088 -0.022,-0.132 -0.03,-0.48 -0.135,-0.945 -0.257,-1.408 -0.024,-0.092 -0.028,-0.189 -0.05,-0.282 -0.043,-0.18 -0.094,-0.358 -0.138,-0.538 -0.026,-0.109 -0.046,-0.219 -0.066,-0.329 -0.014,-0.072 -0.022,-0.144 -0.034,-0.216 -0.024,-0.144 -0.044,-0.288 -0.074,-0.43 -0.02,-0.097 -0.056,-0.19 -0.101,-0.284 -0.064,0.159 -0.163,0.3 -0.158,0.475 0.003,0.084 10e-4,0.169 0.002,0.253 0,0.034 0.012,0.075 -0.003,0.1 -0.088,0.158 -0.076,0.343 -0.142,0.507 -0.011,0.026 -0.025,0.051 -0.029,0.078 -0.039,0.244 -0.151,0.47 -0.196,0.707 -0.044,0.236 -0.157,0.455 -0.149,0.704 0.003,0.101 -0.052,0.205 -0.081,0.308 -0.056,0.199 -0.122,0.396 -0.167,0.597 -0.05,0.224 -0.072,0.455 -0.123,0.678 -0.067,0.29 -0.149,0.576 -0.225,0.864 -0.019,0.073 -0.069,0.09 -0.14,0.091 -0.365,0.003 -0.731,0.008 -1.096,0.015 -0.067,0.001 -0.143,0 -0.198,0.031 -0.167,0.093 -0.349,0.068 -0.525,0.091 -0.087,0.011 -0.179,0.027 -0.258,0.065 -0.192,0.093 -0.391,0.138 -0.603,0.129 -0.283,-0.013 -0.539,0.058 -0.784,0.205 -0.27,0.162 -0.556,0.295 -0.835,0.44 -0.044,0.024 -0.089,0.047 -0.131,0.075 -0.149,0.098 -0.292,0.206 -0.447,0.294 -0.105,0.061 -0.229,0.089 -0.339,0.145 -0.173,0.089 -0.354,0.174 -0.457,0.357 -0.008,0.014 -0.02,0.032 -0.033,0.036 -0.171,0.058 -0.261,0.209 -0.383,0.323 -0.021,0.019 -0.04,0.043 -0.064,0.054 -0.389,0.184 -0.667,0.511 -0.996,0.771 -0.144,0.114 -0.272,0.25 -0.413,0.368 -0.086,0.072 -0.182,0.133 -0.275,0.195 -0.021,0.014 -0.059,0.029 -0.077,0.02 -0.101,-0.049 -0.22,-0.085 -0.291,-0.164 -0.136,-0.151 -0.318,-0.229 -0.475,-0.346 -0.166,-0.124 -0.341,-0.236 -0.512,-0.353 -0.084,-0.056 -0.163,-0.122 -0.277,-0.098 -0.025,0.005 -0.061,0.003 -0.08,-0.011 -0.12,-0.09 -0.236,-0.183 -0.353,-0.277 -0.2,-0.161 -0.398,-0.326 -0.602,-0.484 -0.036,-0.028 -0.095,-0.037 -0.144,-0.039 -0.146,-0.006 -0.243,0.139 -0.176,0.268 0.039,0.075 0.09,0.137 0.062,0.233 -0.008,0.028 0.03,0.086 0.063,0.106 0.168,0.104 0.247,0.278 0.328,0.441 0.124,0.249 0.286,0.469 0.458,0.682 0.128,0.157 0.267,0.304 0.401,0.455 0.018,0.021 0.043,0.044 0.046,0.069 0.04,0.291 0.25,0.511 0.321,0.826"
             style="fill:#fff;fill-opacity:1;fill-rule:nonzero;stroke:none"
             id="path5693"
             inkscape:connector-curvature="0" />
        </g>
        <g
           id="g5695"
           transform="translate(233.6593,274.6503)">
          <path
             d="m 0,0 c 0.103,-0.041 0.112,-0.12 0.122,-0.209 0.046,-0.407 -0.144,-0.726 -0.379,-1.029 -0.058,-0.075 -0.118,-0.149 -0.169,-0.229 -0.152,-0.238 -0.366,-0.408 -0.597,-0.562 -0.026,-0.017 -0.064,-0.015 -0.096,-0.024 -0.037,-0.011 -0.08,-0.015 -0.11,-0.037 -0.302,-0.219 -0.646,-0.391 -0.842,-0.733 -0.014,-0.024 -0.036,-0.045 -0.044,-0.071 -0.046,-0.16 -0.116,-0.319 -0.128,-0.482 -0.028,-0.398 -0.029,-0.797 -0.039,-1.196 -0.005,-0.203 0.082,-0.384 0.144,-0.57 0.026,-0.08 0.056,-0.159 0.086,-0.238 0.177,-0.465 0.088,-0.912 -0.121,-1.337 -0.131,-0.267 -0.302,-0.513 -0.451,-0.772 -0.094,-0.163 -0.225,-0.284 -0.371,-0.404 -0.234,-0.192 -0.448,-0.41 -0.653,-0.632 -0.197,-0.213 -0.289,-0.48 -0.306,-0.77 -0.008,-0.123 -0.007,-0.247 -0.006,-0.371 0,-0.275 0.083,-0.523 0.266,-0.728 0.157,-0.175 0.329,-0.337 0.496,-0.506 -0.117,-0.175 -0.303,-0.259 -0.517,-0.312 -0.117,-0.029 -0.222,-0.104 -0.333,-0.155 -0.102,-0.046 -0.202,-0.107 -0.309,-0.126 -0.166,-0.031 -0.266,-0.128 -0.353,-0.26 -0.06,-0.093 -0.134,-0.177 -0.2,-0.267 -0.046,-0.062 -0.084,-0.131 -0.134,-0.19 -0.091,-0.105 -0.187,-0.206 -0.282,-0.308 -0.03,-0.032 -0.072,-0.055 -0.098,-0.09 -0.141,-0.196 -0.268,-0.404 -0.422,-0.589 -0.249,-0.3 -0.347,-0.664 -0.464,-1.019 -0.17,-0.517 -0.265,-1.049 -0.216,-1.594 0.03,-0.346 0.097,-0.689 0.15,-1.033 0.019,-0.122 0.035,-0.246 0.072,-0.363 0.04,-0.127 0.102,-0.248 0.157,-0.369 0.129,-0.279 0.294,-0.542 0.37,-0.844 0.041,-0.166 0.119,-0.329 0.057,-0.521 -0.138,-0.02 -0.276,-0.029 -0.415,0.041 -0.24,0.121 -0.486,0.229 -0.728,0.347 -0.044,0.021 -0.08,0.059 -0.12,0.089 -0.039,0.03 -0.075,0.077 -0.12,0.088 -0.122,0.032 -0.193,0.114 -0.239,0.22 -0.047,0.104 -0.112,0.18 -0.226,0.21 -0.026,0.006 -0.056,0.019 -0.073,0.038 -0.111,0.125 -0.261,0.19 -0.399,0.276 -0.127,0.078 -0.254,0.174 -0.344,0.29 -0.116,0.15 -0.256,0.265 -0.399,0.38 -0.097,0.078 -0.195,0.152 -0.239,0.276 -0.009,0.025 -0.03,0.048 -0.051,0.067 -0.174,0.158 -0.289,0.354 -0.385,0.567 -0.041,0.09 -0.11,0.168 -0.166,0.253 -0.106,0.165 -0.218,0.327 -0.317,0.496 -0.113,0.193 -0.213,0.394 -0.322,0.59 -0.091,0.164 -0.19,0.325 -0.278,0.491 -0.028,0.053 -0.042,0.117 -0.046,0.177 -0.006,0.097 -0.022,0.187 -0.074,0.272 -0.025,0.04 -0.024,0.096 -0.029,0.146 -0.006,0.056 0.017,0.127 -0.011,0.166 -0.133,0.188 -0.057,0.432 -0.174,0.624 -0.026,0.043 -0.019,0.109 -0.02,0.165 -0.002,0.107 -0.002,0.211 -0.076,0.303 -0.024,0.03 -0.025,0.085 -0.025,0.128 -0.002,0.501 -0.002,1.002 -0.003,1.503 0,0.011 -0.003,0.023 0,0.034 0.052,0.185 0.103,0.371 0.158,0.556 0.04,0.133 0.085,0.264 0.129,0.396 0.028,0.084 0.054,0.169 0.086,0.251 0.066,0.171 0.147,0.337 0.201,0.512 0.065,0.212 0.201,0.375 0.333,0.541 0.383,0.477 0.872,0.824 1.394,1.132 0.409,0.242 0.85,0.41 1.286,0.591 0.345,0.144 0.674,0.315 0.918,0.612 0.265,0.322 0.434,0.681 0.428,1.109 -0.003,0.18 0.006,0.36 0.003,0.54 -0.007,0.468 0.099,0.908 0.299,1.332 0.073,0.154 0.114,0.326 0.204,0.474 0.02,0.034 0.039,0.07 0.067,0.095 0.25,0.221 0.439,0.492 0.647,0.748 0.116,0.143 0.254,0.285 0.473,0.316 0.235,0.034 0.464,0.114 0.696,0.173 0.038,0.01 0.077,0.017 0.116,0.024 0.212,0.038 0.407,0.116 0.596,0.22 0.08,0.043 0.179,0.067 0.271,0.072 0.196,0.01 0.394,0.002 0.591,10e-4 0.061,0 0.13,-0.017 0.184,0.004 0.211,0.083 0.448,0.073 0.651,0.183 0.059,0.032 0.12,0.062 0.182,0.086 0.257,0.098 0.427,0.325 0.664,0.452 0.068,0.037 0.14,0.07 0.204,0.113 0.073,0.05 0.14,0.109 0.218,0.17"
             style="fill:#fff;fill-opacity:1;fill-rule:nonzero;stroke:none"
             id="path5697"
             inkscape:connector-curvature="0" />
        </g>
        <g
           id="g5699"
           transform="translate(235.456,258.9758)">
          <path
             d="m 0,0 c 0,-0.214 -0.016,-0.429 0.004,-0.641 0.023,-0.238 -0.043,-0.459 -0.118,-0.67 -0.046,-0.132 -0.1,-0.258 -0.118,-0.398 -0.005,-0.043 -0.029,-0.085 -0.052,-0.123 -0.453,-0.723 -1.054,-1.296 -1.821,-1.663 -0.608,-0.291 -1.26,-0.455 -1.948,-0.387 -0.358,0.036 -0.714,0.091 -1.054,0.22 -0.031,0.012 -0.072,0.018 -0.091,0.041 -0.123,0.155 -0.281,0.27 -0.427,0.4 -0.131,0.116 -0.253,0.222 -0.44,0.259 -0.142,0.028 -0.284,0.114 -0.398,0.208 -0.187,0.154 -0.343,0.34 -0.451,0.562 -0.05,0.1 -0.106,0.198 -0.164,0.294 -0.122,0.202 -0.225,0.411 -0.293,0.639 -0.02,0.069 -0.044,0.144 -0.089,0.199 -0.221,0.268 -0.263,0.584 -0.265,0.915 -0.001,0.185 -0.027,0.37 -0.032,0.555 -0.002,0.082 0.023,0.164 0.031,0.246 0.013,0.129 0.034,0.253 0.088,0.375 0.049,0.11 0.053,0.24 0.093,0.355 0.256,0.742 0.73,1.32 1.347,1.794 0.596,0.457 1.275,0.714 2,0.854 0.319,0.062 0.649,0.05 0.972,-0.027 0.257,-0.062 0.515,-0.117 0.752,-0.24 0.475,-0.06 0.822,-0.375 1.207,-0.61 C -1.164,3.094 -1.093,2.982 -1.001,2.9 -0.738,2.666 -0.519,2.395 -0.343,2.091 -0.259,1.946 -0.189,1.792 -0.124,1.636 -0.1,1.577 -0.112,1.503 -0.101,1.437 -0.08,1.305 -0.054,1.173 -0.03,1.042 -0.021,0.987 -0.004,0.932 -0.003,0.878 -0.001,0.585 -0.002,0.293 -0.002,0 Z"
             style="fill:#fff;fill-opacity:1;fill-rule:nonzero;stroke:none"
             id="path5701"
             inkscape:connector-curvature="0" />
        </g>
        <g
           id="g5703"
           transform="translate(235.5654,255.8259)">
          <path
             d="M 0,0 C 0.047,0.112 0.094,0.202 0.124,0.297 0.187,0.499 0.236,0.705 0.3,0.907 0.36,1.093 0.436,1.274 0.499,1.46 0.528,1.543 0.553,1.63 0.563,1.717 0.588,1.934 0.577,2.153 0.642,2.366 0.666,2.445 0.666,2.533 0.666,2.617 0.668,3.185 0.673,3.754 0.664,4.322 0.661,4.507 0.718,4.661 0.813,4.81 0.845,4.861 0.879,4.912 0.908,4.955 1.178,4.931 1.435,4.907 1.692,4.885 1.97,4.86 2.241,4.919 2.514,4.956 2.569,4.964 2.626,4.977 2.675,5.002 2.843,5.087 3.001,5.185 3.197,5.206 3.284,5.215 3.353,5.287 3.395,5.375 3.488,5.573 3.587,5.768 3.678,5.967 3.7,6.017 3.701,6.076 3.712,6.132 3.717,6.159 3.716,6.189 3.725,6.214 3.767,6.321 3.811,6.426 3.862,6.549 4.087,6.604 4.342,6.417 4.363,6.158 4.369,6.088 4.398,6.02 4.418,5.951 4.422,5.935 4.436,5.921 4.438,5.905 4.48,5.616 4.503,5.327 4.426,5.039 4.406,4.964 4.372,4.887 4.377,4.813 4.401,4.512 4.306,4.239 4.195,3.969 4.06,3.641 3.936,3.309 3.789,2.987 3.621,2.617 3.37,2.297 3.133,1.968 2.802,1.508 2.364,1.167 1.926,0.823 1.789,0.715 1.666,0.589 1.525,0.488 1.388,0.391 1.24,0.308 1.089,0.233 0.848,0.114 0.602,0.004 0.355,-0.105 0.195,-0.175 0.194,-0.17 0.069,-0.046 0.05,-0.027 0.023,-0.015 0,0"
             style="fill:#fff;fill-opacity:1;fill-rule:nonzero;stroke:none"
             id="path5705"
             inkscape:connector-curvature="0" />
        </g>
      </g>
    </g>
  </g>
</svg>
