<?xml version="1.0" encoding="UTF-8" standalone="no"?>
<!-- Created with Inkscape (http://www.inkscape.org/) -->

<svg
   xmlns:dc="http://purl.org/dc/elements/1.1/"
   xmlns:cc="http://creativecommons.org/ns#"
   xmlns:rdf="http://www.w3.org/1999/02/22-rdf-syntax-ns#"
   xmlns:svg="http://www.w3.org/2000/svg"
   xmlns="http://www.w3.org/2000/svg"
   xmlns:sodipodi="http://sodipodi.sourceforge.net/DTD/sodipodi-0.dtd"
   xmlns:inkscape="http://www.inkscape.org/namespaces/inkscape"
   width="11.579507mm"
   height="12.824495mm"
   viewBox="0 0 11.579507 12.824495"
   version="1.1"
   id="svg8568"
   inkscape:version="0.92.5 (2060ec1f9f, 2020-04-08)"
   sodipodi:docname="allies-flesh-eater-courts.svg">
  <defs
     id="defs8562">
    <clipPath
       clipPathUnits="userSpaceOnUse"
       id="clipPath5837">
      <path
         d="m 350.722,244.635 h 32.824 v 36.353 h -32.824 z"
         id="path5835"
         inkscape:connector-curvature="0" />
    </clipPath>
  </defs>
  <sodipodi:namedview
     id="base"
     pagecolor="#ffffff"
     bordercolor="#666666"
     borderopacity="1.0"
     inkscape:pageopacity="0.0"
     inkscape:pageshadow="2"
     inkscape:zoom="0.35"
     inkscape:cx="-938.11745"
     inkscape:cy="312.80669"
     inkscape:document-units="mm"
     inkscape:current-layer="layer1"
     showgrid="false"
     fit-margin-top="0"
     fit-margin-left="0"
     fit-margin-right="0"
     fit-margin-bottom="0"
     inkscape:window-width="1920"
     inkscape:window-height="1017"
     inkscape:window-x="-8"
     inkscape:window-y="-8"
     inkscape:window-maximized="1" />
  <metadata
     id="metadata8565">
    <rdf:RDF>
      <cc:Work
         rdf:about="">
        <dc:format>image/svg+xml</dc:format>
        <dc:type
           rdf:resource="http://purl.org/dc/dcmitype/StillImage" />
        <dc:title></dc:title>
      </cc:Work>
    </rdf:RDF>
  </metadata>
  <g
     inkscape:label="Layer 1"
     inkscape:groupmode="layer"
     id="layer1"
     transform="translate(-354.04358,-218.77228)">
    <g
       transform="matrix(0.35277777,0,0,-0.35277777,230.31658,317.89856)"
       id="g5831">
      <g
         id="g5833"
         clip-path="url(#clipPath5837)">
        <g
           id="g5839"
           transform="translate(356.5252,267.6139)">
          <path
             d="m 0,0 c -0.02,-0.096 -0.019,-0.193 -0.06,-0.268 -0.168,-0.309 -0.236,-0.652 -0.35,-0.979 -0.06,-0.172 -0.076,-0.36 -0.113,-0.54 -0.02,-0.098 -0.041,-0.195 -0.065,-0.292 -0.042,-0.178 -0.103,-0.354 -0.125,-0.535 -0.021,-0.171 -0.004,-0.347 -0.002,-0.52 0.004,-0.426 0.01,-0.851 0.013,-1.277 0.004,-0.385 0.005,-0.77 0.005,-1.156 0.001,-0.274 0.017,-0.549 -0.006,-0.821 -0.025,-0.282 0.128,-0.53 0.122,-0.805 0,-0.005 0.006,-0.009 0.008,-0.015 0.027,-0.107 0.054,-0.214 0.08,-0.321 0.013,-0.049 0.02,-0.099 0.039,-0.145 0.036,-0.088 0.099,-0.169 0.116,-0.259 0.042,-0.218 0.103,-0.43 0.155,-0.645 0.033,-0.135 0.054,-0.278 0.115,-0.4 0.068,-0.133 0.059,-0.269 0.086,-0.404 0.026,-0.133 0.12,-0.249 0.105,-0.4 -0.005,-0.056 0.014,-0.121 0.039,-0.174 0.103,-0.218 0.202,-0.436 0.226,-0.679 0.003,-0.038 0.015,-0.079 0.034,-0.112 0.131,-0.227 0.211,-0.483 0.397,-0.679 0.077,-0.081 0.134,-0.179 0.208,-0.263 0.188,-0.213 0.381,-0.423 0.573,-0.632 0.12,-0.131 0.282,-0.223 0.363,-0.391 0.015,-0.029 0.04,-0.056 0.066,-0.076 0.16,-0.122 0.322,-0.242 0.483,-0.362 0.045,-0.034 0.095,-0.062 0.135,-0.1 0.129,-0.123 0.252,-0.252 0.382,-0.374 0.089,-0.083 0.186,-0.159 0.28,-0.238 0.192,-0.162 0.374,-0.337 0.62,-0.421 0.063,-0.022 0.123,-0.058 0.176,-0.098 0.112,-0.083 0.214,-0.18 0.329,-0.259 0.106,-0.073 0.215,-0.154 0.335,-0.189 0.343,-0.101 0.629,-0.283 0.869,-0.545 0.022,-0.024 0.051,-0.049 0.081,-0.057 0.357,-0.102 0.677,-0.324 1.066,-0.324 0.053,-10e-4 0.106,-0.033 0.16,-0.051 0.256,-0.083 0.516,-0.143 0.79,-0.119 0.133,0.011 0.268,0.006 0.402,0 0.048,-0.002 0.098,-0.021 0.141,-0.043 0.189,-0.1 0.387,-0.172 0.601,-0.178 0.252,-0.009 0.504,-0.005 0.757,-0.006 0.14,0 0.276,-0.002 0.412,-0.057 0.091,-0.036 0.198,-0.039 0.298,-0.04 0.539,-0.003 1.077,-0.003 1.615,0 0.089,10e-4 0.179,0.018 0.264,0.043 0.139,0.042 0.275,0.095 0.411,0.147 0.254,0.097 0.513,0.144 0.787,0.111 0.114,-0.013 0.235,0.003 0.35,0.023 0.248,0.042 0.495,0.089 0.739,0.147 0.134,0.032 0.277,0.067 0.391,0.14 0.211,0.134 0.399,0.304 0.652,0.367 0.045,0.012 0.086,0.052 0.121,0.087 0.086,0.085 0.184,0.142 0.299,0.18 0.084,0.027 0.165,0.069 0.242,0.113 0.267,0.151 0.505,0.349 0.792,0.468 0.099,0.041 0.189,0.094 0.303,0.066 0.024,-0.006 0.059,0 0.078,0.015 0.113,0.083 0.225,0.167 0.331,0.257 0.106,0.09 0.201,0.195 0.309,0.283 0.191,0.154 0.398,0.29 0.58,0.454 0.244,0.221 0.472,0.46 0.704,0.694 0.075,0.075 0.14,0.159 0.21,0.239 0.195,0.221 0.429,0.413 0.521,0.711 0.011,0.036 0.037,0.068 0.06,0.1 0.135,0.193 0.26,0.391 0.315,0.626 0.013,0.058 0.044,0.118 0.083,0.163 0.195,0.221 0.311,0.49 0.446,0.747 0.049,0.093 0.081,0.195 0.122,0.293 0.09,0.217 0.18,0.434 0.272,0.649 0.038,0.087 0.077,0.173 0.124,0.255 0.088,0.157 0.167,0.313 0.179,0.501 0.006,0.102 0.048,0.207 0.093,0.301 0.085,0.178 0.167,0.361 0.183,0.555 0.029,0.369 0.208,0.71 0.186,1.086 -0.001,0.026 0.017,0.053 0.023,0.08 0.036,0.158 0.078,0.315 0.104,0.474 0.024,0.143 0.014,0.293 0.048,0.433 0.062,0.258 0.089,0.516 0.078,0.781 -0.004,0.103 0.019,0.214 0.055,0.31 0.038,0.098 0.061,0.19 0.048,0.294 -0.008,0.06 0.001,0.123 -10e-4,0.184 -0.005,0.14 0.003,0.282 -0.022,0.418 -0.054,0.285 -0.125,0.567 -0.192,0.849 -0.03,0.125 -0.064,0.249 -0.1,0.372 -0.072,0.252 -0.15,0.503 -0.221,0.755 -0.07,0.253 -0.125,0.511 -0.205,0.761 -0.043,0.136 -0.073,0.268 -0.063,0.411 0.004,0.06 -0.002,0.125 -0.019,0.182 -0.065,0.22 -0.136,0.437 -0.205,0.655 -0.038,0.117 -0.073,0.235 -0.115,0.35 C 21.229,1.128 21.143,1.377 21.037,1.617 20.95,1.816 20.846,2.01 20.736,2.197 20.631,2.375 20.508,2.543 20.392,2.715 20.342,2.789 20.3,2.871 20.238,2.934 20.034,3.139 19.811,3.328 19.727,3.622 19.724,3.632 19.714,3.64 19.708,3.65 19.58,3.879 19.345,4.014 19.191,4.221 19.182,4.233 19.165,4.243 19.149,4.247 18.976,4.286 18.85,4.389 18.745,4.528 18.712,4.571 18.66,4.6 18.617,4.636 18.44,4.782 18.256,4.921 18.088,5.077 17.745,5.392 17.41,5.715 17.074,6.037 16.937,6.169 16.776,6.252 16.597,6.31 16.536,6.33 16.473,6.363 16.424,6.405 16.295,6.516 16.154,6.576 15.978,6.562 15.911,6.556 15.837,6.582 15.773,6.609 15.681,6.648 15.599,6.712 15.505,6.747 15.357,6.802 15.218,6.863 15.106,6.981 15.005,7.088 14.888,7.171 14.725,7.164 14.674,7.162 14.619,7.192 14.569,7.215 14.396,7.297 14.226,7.367 14.024,7.358 13.773,7.347 13.52,7.362 13.268,7.37 13.202,7.372 13.136,7.387 13.071,7.401 13,7.417 12.929,7.433 12.863,7.46 12.694,7.531 12.504,7.543 12.348,7.651 12.234,7.73 12.107,7.763 11.966,7.756 11.815,7.748 11.663,7.751 11.512,7.753 11.415,7.754 11.326,7.741 11.239,7.69 11.185,7.659 11.111,7.652 11.045,7.651 10.686,7.647 10.327,7.647 9.968,7.648 9.697,7.65 9.454,7.522 9.19,7.487 9.174,7.485 9.16,7.473 9.145,7.466 8.877,7.34 8.608,7.214 8.341,7.086 8.301,7.067 8.267,7.035 8.228,7.015 8.15,6.975 8.071,6.934 7.99,6.902 7.782,6.819 7.562,6.763 7.368,6.657 7.086,6.503 6.789,6.393 6.497,6.268 6.236,6.155 5.968,6.052 5.723,5.909 5.451,5.751 5.177,5.607 4.871,5.534 4.789,5.515 4.732,5.477 4.673,5.421 4.553,5.305 4.43,5.187 4.291,5.095 4.153,5.004 4.016,4.902 3.845,4.868 3.804,4.86 3.766,4.827 3.732,4.798 3.651,4.73 3.575,4.655 3.493,4.588 3.368,4.485 3.24,4.387 3.112,4.288 2.892,4.117 2.654,3.971 2.469,3.754 2.351,3.616 2.235,3.468 2.062,3.382 1.989,3.346 1.933,3.277 1.867,3.225 1.71,3.101 1.593,2.927 1.395,2.855 1.368,2.845 1.345,2.81 1.331,2.782 1.196,2.512 1.074,2.234 0.928,1.97 0.631,1.433 0.414,0.865 0.249,0.276 0.21,0.138 0.145,0.029 0,0 m 10.995,-22.979 c -0.084,0.164 -0.183,0.31 -0.174,0.492 0.004,0.084 0.002,0.168 0.002,0.252 0,0.028 0.01,0.062 -0.002,0.083 -0.09,0.157 -0.076,0.342 -0.143,0.505 -0.011,0.025 -0.025,0.051 -0.029,0.078 -0.038,0.243 -0.15,0.468 -0.194,0.705 -0.044,0.234 -0.158,0.453 -0.149,0.7 0.004,0.096 -0.049,0.194 -0.076,0.291 -0.058,0.204 -0.125,0.406 -0.171,0.612 -0.05,0.223 -0.072,0.452 -0.123,0.675 -0.066,0.289 -0.149,0.574 -0.224,0.861 -0.019,0.073 -0.07,0.09 -0.14,0.09 -0.364,0.003 -0.728,0.008 -1.092,0.015 -0.066,0.002 -0.142,0.001 -0.197,0.031 -0.166,0.093 -0.347,0.068 -0.523,0.091 -0.087,0.011 -0.179,0.027 -0.257,0.065 -0.191,0.092 -0.39,0.137 -0.601,0.128 -0.283,-0.013 -0.537,0.058 -0.782,0.205 -0.268,0.161 -0.553,0.293 -0.831,0.438 -0.044,0.024 -0.089,0.047 -0.131,0.075 -0.148,0.097 -0.291,0.205 -0.445,0.293 -0.105,0.06 -0.229,0.088 -0.338,0.144 -0.173,0.089 -0.354,0.173 -0.455,0.356 -0.008,0.014 -0.02,0.031 -0.034,0.036 -0.17,0.057 -0.26,0.208 -0.381,0.322 -0.021,0.019 -0.04,0.042 -0.064,0.054 -0.387,0.183 -0.664,0.508 -0.992,0.768 -0.144,0.114 -0.271,0.248 -0.412,0.367 -0.086,0.072 -0.181,0.132 -0.274,0.194 -0.021,0.014 -0.058,0.028 -0.077,0.019 -0.1,-0.049 -0.219,-0.085 -0.29,-0.163 -0.135,-0.151 -0.317,-0.229 -0.473,-0.345 -0.165,-0.124 -0.339,-0.235 -0.51,-0.351 -0.083,-0.057 -0.163,-0.122 -0.276,-0.098 -0.025,0.005 -0.061,0.003 -0.08,-0.012 -0.119,-0.089 -0.235,-0.182 -0.351,-0.275 -0.2,-0.161 -0.397,-0.325 -0.6,-0.482 -0.037,-0.029 -0.095,-0.037 -0.144,-0.039 -0.145,-0.006 -0.242,0.138 -0.175,0.267 0.04,0.075 0.09,0.137 0.062,0.232 -0.009,0.028 0.03,0.086 0.062,0.106 0.168,0.104 0.247,0.277 0.327,0.439 0.124,0.248 0.285,0.467 0.457,0.68 0.127,0.156 0.266,0.302 0.399,0.454 0.019,0.02 0.043,0.043 0.047,0.068 0.039,0.29 0.248,0.509 0.317,0.814 -0.022,0.033 -0.059,0.088 -0.098,0.142 -0.188,0.257 -0.377,0.514 -0.565,0.772 -0.022,0.031 -0.033,0.071 -0.051,0.106 -0.119,0.233 -0.25,0.456 -0.438,0.646 -0.092,0.093 -0.155,0.218 -0.223,0.334 -0.057,0.096 -0.105,0.198 -0.151,0.3 -0.027,0.06 -0.059,0.126 -0.059,0.189 0,0.106 -0.026,0.199 -0.08,0.285 -0.118,0.191 -0.126,0.402 -0.128,0.616 0,0.066 -0.017,0.131 -0.03,0.196 -0.01,0.055 -0.021,0.109 -0.036,0.163 -0.069,0.253 -0.138,0.506 -0.209,0.758 -0.01,0.038 -0.043,0.071 -0.046,0.108 -0.017,0.245 -0.14,0.47 -0.133,0.72 10e-4,0.032 0.003,0.073 -0.014,0.097 -0.075,0.109 -0.073,0.231 -0.078,0.355 -0.003,0.11 0.008,0.225 -0.056,0.325 -0.008,0.013 -0.008,0.033 -0.008,0.05 -0.002,0.268 -0.048,0.532 -0.099,0.795 -0.006,0.032 0.005,0.077 -0.013,0.097 -0.103,0.12 -0.078,0.264 -0.085,0.402 -0.003,0.078 0.008,0.159 -0.006,0.235 -0.015,0.081 -0.051,0.159 -0.08,0.248 -0.155,0.004 -0.292,0.057 -0.402,0.172 -0.017,0.018 -0.048,0.029 -0.075,0.035 -0.19,0.04 -0.382,0.071 -0.569,0.118 -0.113,0.029 -0.217,0.088 -0.328,0.121 -0.203,0.059 -0.409,0.109 -0.614,0.162 -0.054,0.014 -0.108,0.027 -0.163,0.039 -0.414,0.087 -0.823,0.207 -1.254,0.162 -0.054,-0.006 -0.108,-10e-4 -0.17,-10e-4 0.002,0.118 0.07,0.175 0.146,0.222 0.099,0.061 0.209,0.078 0.324,0.072 0.125,-0.007 0.242,0.016 0.36,0.06 0.087,0.033 0.187,0.034 0.281,0.04 0.106,0.006 0.213,0 0.32,10e-4 0.039,10e-4 0.08,-10e-4 0.116,0.009 0.176,0.052 0.347,0.122 0.525,0.159 0.204,0.043 0.391,0.127 0.583,0.2 0.102,0.039 0.175,0.133 0.296,0.144 0.116,0.01 0.231,0.038 0.342,0.07 0.117,0.035 0.238,0.069 0.34,0.132 0.1,0.061 0.192,0.08 0.303,0.035 0.084,0.148 0.151,0.291 0.135,0.463 -0.009,0.111 0.007,0.224 0.003,0.336 -0.005,0.127 0.014,0.246 0.088,0.352 0.006,0.009 0.012,0.019 0.015,0.03 0.042,0.184 0.083,0.368 0.126,0.551 0.011,0.049 0.02,0.099 0.039,0.145 0.084,0.207 0.174,0.412 0.256,0.619 0.102,0.259 0.161,0.53 0.222,0.801 0.008,0.032 0.015,0.067 0.032,0.095 0.185,0.302 0.236,0.662 0.421,0.966 0.067,0.108 0.097,0.238 0.154,0.354 0.125,0.256 0.253,0.51 0.385,0.763 C 0.065,2.735 0.117,2.843 0.223,2.92 0.267,2.952 0.286,3.039 0.288,3.101 0.294,3.269 0.263,3.44 0.287,3.605 0.318,3.826 0.193,3.965 0.087,4.128 -0.104,4.425 -0.284,4.729 -0.448,5.042 -0.623,5.375 -0.799,5.705 -1.065,5.978 -1.119,6.034 -1.163,6.101 -1.206,6.167 -1.44,6.523 -1.689,6.867 -1.967,7.191 -2.075,7.318 -2.156,7.468 -2.248,7.608 -2.42,7.87 -2.592,8.133 -2.761,8.397 -2.793,8.447 -2.811,8.506 -2.842,8.575 -2.689,8.58 -2.566,8.59 -2.439,8.489 -2.264,8.352 -2.059,8.253 -1.87,8.134 -1.795,8.086 -1.719,8.036 -1.656,7.974 -1.449,7.77 -1.253,7.552 -0.997,7.403 -0.945,7.372 -0.908,7.317 -0.859,7.281 -0.788,7.227 -0.718,7.162 -0.636,7.135 -0.481,7.082 -0.37,6.979 -0.253,6.873 -0.125,6.758 0.026,6.668 0.165,6.564 0.33,6.44 0.502,6.323 0.656,6.185 0.935,5.934 1.254,5.759 1.608,5.64 1.691,5.613 1.765,5.557 1.838,5.506 2.023,5.376 2.206,5.444 2.258,5.666 2.295,5.825 2.398,5.904 2.562,5.896 2.717,5.889 2.845,5.958 2.968,6.038 3.226,6.205 3.483,6.376 3.741,6.544 3.83,6.603 3.919,6.661 4.011,6.715 4.135,6.787 4.26,6.847 4.403,6.888 4.707,6.975 5.004,7.093 5.284,7.25 5.566,7.408 5.86,7.543 6.169,7.648 c 0.204,0.069 0.39,0.189 0.588,0.279 0.198,0.09 0.398,0.176 0.602,0.253 0.266,0.1 0.536,0.185 0.79,0.318 0.191,0.1 0.406,0.154 0.611,0.224 0.101,0.035 0.204,0.059 0.306,0.089 0.219,0.065 0.438,0.132 0.658,0.196 0.098,0.028 0.153,0.084 0.15,0.192 -0.001,0.044 0.002,0.094 0.021,0.132 0.087,0.174 0.087,0.359 0.077,0.544 -0.013,0.242 0.086,0.46 0.133,0.69 0.087,0.428 0.177,0.855 0.262,1.284 0.014,0.065 0.008,0.134 0.014,0.2 0.005,0.062 -0.007,0.135 0.023,0.182 0.104,0.166 0.067,0.346 0.076,0.522 0.005,0.101 -0.002,0.199 0.068,0.288 0.027,0.034 0.015,0.096 0.026,0.145 0.013,0.056 0.031,0.111 0.053,0.188 0.095,-0.083 0.098,-0.177 0.12,-0.257 0.07,-0.248 0.135,-0.497 0.193,-0.747 0.034,-0.147 0.052,-0.297 0.074,-0.447 0.022,-0.149 0.034,-0.299 0.063,-0.447 0.015,-0.075 0.045,-0.153 0.09,-0.214 0.124,-0.173 0.168,-0.361 0.135,-0.568 -0.012,-0.079 -0.004,-0.146 0.031,-0.224 0.04,-0.088 0.044,-0.194 0.053,-0.293 0.008,-0.095 0.013,-0.183 0.06,-0.274 0.041,-0.079 0.042,-0.184 0.044,-0.278 0.004,-0.167 -0.01,-0.337 0.145,-0.502 0.085,0 0.206,0.005 0.326,-0.002 0.082,-0.004 0.17,-0.011 0.245,-0.042 0.143,-0.058 0.29,-0.072 0.441,-0.089 0.198,-0.024 0.393,-0.076 0.59,-0.117 0.087,-0.017 0.174,-0.047 0.262,-0.051 0.162,-0.007 0.326,0.015 0.487,-0.003 0.264,-0.028 0.531,-0.04 0.779,-0.173 0.157,-0.084 0.314,-0.164 0.467,-0.258 0.174,-0.107 0.377,-0.167 0.563,-0.256 0.104,-0.05 0.205,-0.112 0.299,-0.179 0.172,-0.123 0.328,-0.262 0.55,-0.308 0.155,-0.033 0.303,-0.112 0.449,-0.181 0.212,-0.1 0.421,-0.208 0.628,-0.317 0.063,-0.034 0.119,-0.083 0.175,-0.13 0.144,-0.123 0.279,-0.259 0.433,-0.369 0.116,-0.084 0.255,-0.136 0.383,-0.203 0.084,-0.043 0.176,-0.077 0.248,-0.136 0.225,-0.184 0.441,-0.378 0.662,-0.566 0.034,-0.029 0.074,-0.05 0.133,-0.089 0.091,0.051 0.195,0.103 0.291,0.165 0.141,0.092 0.268,0.207 0.416,0.283 C 20.64,6.194 20.826,6.267 21,6.367 21.067,6.405 21.143,6.392 21.206,6.343 21.273,6.291 21.291,6.226 21.25,6.151 21.109,5.897 20.967,5.643 20.822,5.391 20.761,5.285 20.691,5.185 20.626,5.082 20.55,4.961 20.535,4.827 20.573,4.694 20.645,4.438 20.769,4.205 20.928,3.994 21.122,3.734 21.336,3.489 21.535,3.232 21.61,3.136 21.676,3.03 21.73,2.921 21.834,2.71 22.005,2.554 22.146,2.374 22.312,2.163 22.434,1.938 22.475,1.671 22.481,1.633 22.497,1.596 22.51,1.559 c 0.098,-0.291 0.195,-0.582 0.295,-0.872 0.088,-0.253 0.181,-0.505 0.27,-0.759 0.054,-0.152 0.129,-0.303 0.15,-0.46 0.025,-0.185 0.116,-0.337 0.176,-0.504 0.059,-0.163 0.112,-0.328 0.161,-0.493 0.057,-0.187 0.101,-0.379 0.161,-0.564 0.064,-0.197 0.144,-0.386 0.167,-0.596 0.023,-0.219 0.135,-0.318 0.352,-0.314 0.157,0.003 0.292,-0.069 0.405,-0.144 0.199,-0.133 0.403,-0.174 0.632,-0.154 0.106,0.009 0.213,0.006 0.319,0.002 0.049,-0.002 0.112,-0.006 0.142,-0.036 0.076,-0.073 0.165,-0.071 0.252,-0.06 0.212,0.026 0.411,-0.043 0.612,-0.08 0.134,-0.026 0.257,-0.112 0.417,-0.187 C 26.863,-3.715 26.729,-3.753 26.603,-3.806 26.459,-3.867 26.317,-3.935 26.182,-4.013 25.91,-4.17 25.646,-4.34 25.374,-4.496 25.298,-4.54 25.208,-4.572 25.122,-4.583 24.886,-4.611 24.688,-4.727 24.485,-4.834 24.425,-4.865 24.368,-4.901 24.307,-4.928 24.17,-4.989 24.06,-5.071 24.013,-5.225 c -0.019,-0.062 -0.068,-0.114 -0.101,-0.171 -0.05,-0.087 -0.13,-0.171 -0.142,-0.264 -0.032,-0.242 -0.104,-0.477 -0.121,-0.723 -0.01,-0.148 -0.062,-0.293 -0.101,-0.438 -0.083,-0.307 -0.199,-0.605 -0.246,-0.923 -0.022,-0.147 -0.091,-0.287 -0.136,-0.43 -0.064,-0.203 -0.143,-0.402 -0.184,-0.609 -0.037,-0.185 -0.111,-0.351 -0.179,-0.523 -0.017,-0.041 -0.041,-0.082 -0.047,-0.125 -0.055,-0.394 -0.264,-0.733 -0.395,-1.099 -0.103,-0.291 -0.245,-0.563 -0.409,-0.825 -0.003,-0.004 -0.007,-0.009 -0.008,-0.014 -0.068,-0.274 -0.26,-0.479 -0.394,-0.717 -0.016,-0.029 -0.033,-0.062 -0.059,-0.081 -0.153,-0.109 -0.212,-0.285 -0.316,-0.429 -0.057,-0.079 -0.066,-0.163 -0.018,-0.253 0.042,-0.079 0.078,-0.162 0.116,-0.242 0.114,-0.238 0.226,-0.476 0.341,-0.712 0.024,-0.049 0.061,-0.091 0.09,-0.138 0.044,-0.069 0.085,-0.139 0.132,-0.215 -0.058,-0.039 -0.1,-0.065 -0.14,-0.094 -0.098,-0.07 -0.192,-0.085 -0.311,-0.031 -0.239,0.109 -0.485,0.202 -0.73,0.295 -0.072,0.027 -0.151,0.036 -0.228,0.045 -0.158,0.018 -0.323,-0.036 -0.478,0.047 -0.021,0.012 -0.093,-0.024 -0.105,-0.053 -0.053,-0.129 -0.158,-0.196 -0.268,-0.268 -0.068,-0.044 -0.134,-0.107 -0.176,-0.177 -0.14,-0.235 -0.36,-0.343 -0.608,-0.414 -0.153,-0.043 -0.296,-0.098 -0.402,-0.228 -0.033,-0.041 -0.091,-0.062 -0.137,-0.095 -0.068,-0.047 -0.136,-0.096 -0.202,-0.147 -0.026,-0.02 -0.045,-0.053 -0.073,-0.068 -0.226,-0.12 -0.382,-0.327 -0.59,-0.468 -0.143,-0.097 -0.289,-0.188 -0.435,-0.279 -0.119,-0.074 -0.236,-0.15 -0.36,-0.211 -0.084,-0.041 -0.18,-0.054 -0.268,-0.086 -0.126,-0.046 -0.249,-0.1 -0.374,-0.146 -0.335,-0.124 -0.639,-0.317 -0.991,-0.406 -0.302,-0.077 -0.593,-0.197 -0.891,-0.289 -0.128,-0.038 -0.262,-0.068 -0.394,-0.073 -0.115,-0.005 -0.227,-0.012 -0.322,-0.075 -0.2,-0.131 -0.424,-0.125 -0.647,-0.13 -0.169,-0.003 -0.336,-0.011 -0.473,-0.134 -0.058,-0.051 -0.099,-0.102 -0.097,-0.184 0.001,-0.043 -0.011,-0.087 -0.023,-0.129 -0.059,-0.198 -0.12,-0.396 -0.181,-0.593 -0.01,-0.031 -0.018,-0.07 -0.041,-0.089 -0.101,-0.087 -0.101,-0.205 -0.114,-0.323 -0.015,-0.138 -0.039,-0.275 -0.059,-0.413 -0.007,-0.044 -0.02,-0.088 -0.022,-0.132 -0.029,-0.478 -0.135,-0.942 -0.256,-1.403 -0.024,-0.091 -0.028,-0.188 -0.05,-0.28 -0.043,-0.18 -0.094,-0.357 -0.137,-0.536 -0.026,-0.109 -0.046,-0.219 -0.067,-0.328 -0.013,-0.072 -0.022,-0.144 -0.033,-0.216 -0.024,-0.143 -0.044,-0.286 -0.074,-0.428 -0.02,-0.096 -0.055,-0.19 -0.084,-0.284"
             style="fill:#fff;fill-opacity:1;fill-rule:nonzero;stroke:none"
             id="path5841"
             inkscape:connector-curvature="0" />
        </g>
        <g
           id="g5843"
           transform="translate(374.0948,263.0111)">
          <path
             d="m 0,0 c 0.017,0.023 0.028,0.035 0.036,0.05 0.12,0.2 0.102,0.428 0.117,0.646 0.017,0.26 0.001,0.522 0,0.784 0,0.121 0.001,0.242 0.001,0.363 0,0.015 0,0.03 -0.002,0.044 C 0.127,2.132 0.099,2.377 0.075,2.623 0.064,2.745 0.06,2.868 0.049,2.99 0.023,3.313 -0.003,3.636 -0.035,3.958 -0.041,4.025 -0.059,4.097 -0.094,4.152 -0.183,4.291 -0.284,4.422 -0.381,4.555 -0.385,4.561 -0.4,4.558 -0.434,4.563 -0.423,4.5 -0.419,4.445 -0.404,4.392 -0.339,4.163 -0.254,3.937 -0.207,3.704 -0.151,3.421 -0.117,3.132 -0.088,2.845 -0.056,2.531 -0.033,2.216 -0.019,1.9 -0.006,1.624 -0.004,1.346 -0.008,1.069 -0.01,0.858 -0.033,0.648 -0.038,0.437 -0.042,0.295 -0.079,0.148 0,0 M 1.644,3.429 1.618,3.417 C 1.622,3.387 1.621,3.355 1.632,3.327 1.676,3.216 1.73,3.108 1.77,2.995 1.905,2.615 1.988,2.223 2.046,1.823 2.082,1.574 2.131,1.324 2.202,1.083 2.244,0.941 2.223,0.776 2.337,0.655 2.351,0.64 2.346,0.606 2.346,0.581 c 0,-0.318 -10e-4,-0.635 0,-0.952 10e-4,-0.27 0.007,-0.54 0.007,-0.809 10e-4,-0.207 0,-0.413 -0.004,-0.619 -0.003,-0.109 -0.014,-0.218 -0.021,-0.327 0.011,-10e-4 0.022,-0.002 0.033,-0.003 0.005,0.016 0.013,0.032 0.016,0.049 0.043,0.225 0.091,0.449 0.127,0.676 0.025,0.156 -0.009,0.321 0.078,0.468 0.011,0.019 0.004,0.05 0.003,0.075 C 2.574,-0.56 2.573,-0.259 2.548,0.041 2.519,0.386 2.487,0.734 2.425,1.074 2.355,1.453 2.267,1.83 2.155,2.199 2.046,2.562 1.9,2.915 1.764,3.27 1.741,3.33 1.685,3.377 1.644,3.429 M 3.158,-0.627 C 3.124,-0.603 3.108,-0.585 3.089,-0.58 3.045,-0.567 2.998,-0.55 2.956,-0.556 2.941,-0.558 2.927,-0.623 2.928,-0.659 2.934,-0.94 2.948,-1.22 2.95,-1.5 2.951,-1.623 2.934,-1.746 2.919,-1.869 2.9,-2.031 2.885,-2.195 2.851,-2.354 2.806,-2.563 2.746,-2.768 2.688,-2.973 2.63,-3.182 2.57,-3.389 2.507,-3.596 2.416,-3.892 2.333,-4.192 2.225,-4.482 2.116,-4.775 1.978,-5.056 1.856,-5.345 1.733,-5.638 1.487,-5.824 1.271,-6.037 1.132,-6.175 0.985,-6.307 0.842,-6.441 0.824,-6.458 0.806,-6.473 0.767,-6.478 c 0.015,0.045 0.034,0.089 0.042,0.135 0.058,0.329 0.142,0.648 0.278,0.956 0.051,0.115 0.061,0.252 0.073,0.381 0.034,0.368 0.006,0.735 -0.082,1.093 C 0.995,-3.576 0.9,-3.243 0.719,-2.943 0.68,-2.878 0.631,-2.815 0.574,-2.767 0.537,-2.737 0.473,-2.718 0.426,-2.726 0.296,-2.747 0.165,-2.753 0.039,-2.819 -0.062,-2.871 -0.189,-2.883 -0.306,-2.892 -0.472,-2.904 -0.557,-3.023 -0.662,-3.123 -0.748,-3.205 -0.843,-3.277 -0.933,-3.355 -0.965,-3.383 -1,-3.411 -1.023,-3.446 c -0.135,-0.214 -0.266,-0.43 -0.399,-0.646 -0.043,-0.07 -0.08,-0.145 -0.132,-0.208 -0.026,-0.032 -0.079,-0.042 -0.12,-0.061 -0.019,0.043 -0.06,0.091 -0.052,0.128 0.028,0.118 0.06,0.239 0.116,0.346 0.152,0.292 0.319,0.575 0.476,0.864 0.073,0.137 0.14,0.278 0.202,0.42 0.015,0.036 0.013,0.09 -0.003,0.126 -0.066,0.147 -0.152,0.286 -0.21,0.436 -0.092,0.24 -0.211,0.449 -0.416,0.621 -0.244,0.205 -0.515,0.346 -0.805,0.459 -0.166,0.064 -0.337,0.037 -0.499,-0.028 -0.105,-0.043 -0.2,-0.121 -0.308,-0.141 -0.075,-0.014 -0.169,0.034 -0.245,0.072 -0.024,0.013 -0.038,0.099 -0.02,0.129 0.076,0.128 0.008,0.255 0.009,0.382 10e-4,0.388 -0.05,0.772 -0.168,1.141 -0.042,0.131 -0.159,0.237 -0.237,0.358 -0.036,0.058 -0.08,0.121 -0.088,0.185 -0.028,0.248 -0.044,0.497 -0.061,0.746 -0.004,0.064 0.015,0.13 0.011,0.195 -0.008,0.155 -0.017,0.311 -0.04,0.465 -0.006,0.044 -0.054,0.091 -0.095,0.118 -0.136,0.087 -0.194,0.205 -0.173,0.373 0.081,-0.032 0.155,-0.068 0.223,0.023 0.013,0.017 0.111,-0.013 0.156,-0.043 0.11,-0.072 0.215,-0.05 0.338,-0.038 0.224,0.022 0.453,-0.009 0.679,-0.016 0.153,-0.004 0.306,-0.007 0.459,-0.004 0.021,10e-4 0.048,0.032 0.061,0.056 0.175,0.302 0.289,0.619 0.288,0.977 -0.002,0.397 0.04,0.794 0.027,1.19 -0.014,0.434 -0.047,0.87 -0.266,1.265 -0.147,0.265 -0.287,0.535 -0.426,0.804 -0.079,0.155 -0.057,0.309 0.028,0.456 0.108,0.189 0.263,0.327 0.464,0.41 0.11,0.045 0.214,-0.081 0.211,-0.235 -0.005,-0.241 0.117,-0.467 0.304,-0.492 0.219,-0.028 0.318,-0.21 0.48,-0.308 0.215,-0.131 0.422,-0.275 0.63,-0.415 C -0.276,6.431 0.105,6.245 0.398,5.935 0.437,5.894 0.495,5.872 0.536,5.832 0.742,5.629 0.953,5.428 1.148,5.215 1.235,5.12 1.286,4.994 1.36,4.887 1.516,4.664 1.7,4.458 1.83,4.221 2.093,3.743 2.401,3.287 2.559,2.754 2.647,2.457 2.772,2.171 2.867,1.876 2.914,1.729 2.927,1.571 2.963,1.419 2.999,1.261 3.047,1.106 3.086,0.948 3.113,0.84 3.14,0.73 3.153,0.619 3.186,0.346 3.213,0.072 3.238,-0.202 3.246,-0.292 3.248,-0.386 3.236,-0.476 3.229,-0.527 3.187,-0.573 3.158,-0.627"
             style="fill:#fff;fill-opacity:1;fill-rule:nonzero;stroke:none"
             id="path5845"
             inkscape:connector-curvature="0" />
        </g>
        <g
           id="g5847"
           transform="translate(363.626,265.4676)">
          <path
             d="M 0,0 C 0.012,0.011 0.023,0.023 0.035,0.034 0.008,0.063 -0.018,0.092 -0.045,0.121 -0.064,0.101 -0.097,0.082 -0.099,0.061 -0.105,-0.022 -0.045,0 0,0 M -2.827,1.786 C -2.841,1.792 -2.856,1.798 -2.87,1.804 -2.941,1.72 -3.006,1.631 -3.084,1.554 -3.197,1.44 -3.237,1.314 -3.221,1.153 -3.207,1.014 -3.212,0.866 -3.245,0.731 -3.298,0.521 -3.317,0.313 -3.308,0.099 -3.307,0.066 -3.307,0.033 -3.311,0 c -0.023,-0.188 -0.07,-0.377 -0.065,-0.564 0.006,-0.256 -0.077,-0.509 -0.013,-0.764 10e-4,-0.003 10e-4,-0.007 0,-0.011 -0.01,-0.219 -0.031,-0.439 -0.026,-0.658 0.005,-0.157 0.043,-0.313 0.073,-0.469 0.007,-0.034 0.042,-0.062 0.065,-0.092 0.017,0.033 0.049,0.067 0.048,0.099 -0.006,0.189 -0.031,0.377 -0.03,0.565 10e-4,0.232 0.025,0.463 0.031,0.694 0.006,0.201 0.002,0.401 0.002,0.602 10e-4,0.077 -0.003,0.154 0.006,0.23 0.02,0.167 0.047,0.334 0.07,0.502 0.013,0.091 0.027,0.183 0.038,0.275 0.022,0.178 0.031,0.359 0.067,0.534 0.044,0.217 0.11,0.431 0.167,0.646 0.017,0.066 0.034,0.132 0.051,0.197 m -2.758,-6.492 c 0.022,0.002 0.043,0.005 0.065,0.007 0,0.079 0.007,0.158 -0.001,0.236 -0.012,0.108 -0.046,0.215 -0.049,0.323 -0.004,0.237 0.003,0.475 0.009,0.713 0.004,0.21 0.012,0.42 0.02,0.631 0.001,0.032 0.013,0.063 0.014,0.095 0.003,0.066 0.002,0.132 0.003,0.199 0.002,0.102 0.005,0.204 0.007,0.306 0.001,0.053 0.017,0.113 -0.003,0.158 -0.031,0.073 -0.032,0.142 0.02,0.192 0.07,0.069 0.067,0.152 0.084,0.237 0.029,0.15 0.081,0.296 0.116,0.445 0.019,0.08 0.023,0.163 0.037,0.244 0.022,0.133 0.047,0.265 0.072,0.398 0.007,0.034 0.017,0.068 0.024,0.103 0.029,0.121 0.053,0.244 0.086,0.365 0.046,0.171 0.099,0.342 0.152,0.511 0.005,0.019 0.033,0.029 0.043,0.048 0.055,0.095 0.124,0.186 0.095,0.318 C -4.846,0.798 -4.899,0.769 -4.923,0.724 -4.962,0.653 -4.968,0.562 -5.013,0.497 -5.156,0.291 -5.195,0.048 -5.269,-0.181 -5.345,-0.422 -5.4,-0.67 -5.466,-0.914 c -0.05,-0.185 -0.109,-0.368 -0.15,-0.555 -0.027,-0.125 -0.002,-0.268 -0.049,-0.383 -0.099,-0.235 -0.075,-0.484 -0.098,-0.723 -0.03,-0.318 0.005,-0.644 0.029,-0.966 0.026,-0.333 0.073,-0.664 0.113,-0.996 0.006,-0.057 0.024,-0.113 0.036,-0.169 M 0.653,0.411 C 0.69,0.316 0.677,0.247 0.608,0.193 0.563,0.157 0.512,0.127 0.469,0.088 0.395,0.022 0.411,-0.033 0.489,-0.085 0.534,-0.115 0.587,-0.178 0.586,-0.226 0.582,-0.506 0.564,-0.785 0.548,-1.064 0.54,-1.204 0.53,-1.343 0.512,-1.482 0.505,-1.531 0.487,-1.592 0.451,-1.622 0.266,-1.783 0.187,-1.993 0.122,-2.223 0.074,-2.389 0.052,-2.551 0.048,-2.721 0.044,-2.864 0.04,-3.01 0.008,-3.148 -0.021,-3.271 -0.026,-3.382 0.021,-3.5 0.03,-3.524 -0.007,-3.587 -0.036,-3.599 c -0.058,-0.025 -0.146,-0.059 -0.185,-0.033 -0.263,0.17 -0.554,0.193 -0.846,0.152 -0.121,-0.016 -0.226,-0.124 -0.347,-0.166 -0.201,-0.07 -0.338,-0.228 -0.494,-0.353 -0.144,-0.116 -0.221,-0.295 -0.284,-0.476 -0.05,-0.144 -0.138,-0.274 -0.198,-0.415 -0.022,-0.051 -0.034,-0.127 -0.012,-0.172 0.16,-0.32 0.335,-0.632 0.496,-0.952 0.101,-0.2 0.211,-0.401 0.214,-0.633 10e-4,-0.038 -0.039,-0.075 -0.06,-0.113 -0.034,0.021 -0.083,0.034 -0.101,0.065 -0.089,0.154 -0.17,0.312 -0.256,0.468 -0.076,0.138 -0.154,0.275 -0.234,0.411 -0.014,0.024 -0.036,0.055 -0.059,0.059 -0.158,0.033 -0.236,0.166 -0.325,0.274 -0.103,0.125 -0.231,0.173 -0.379,0.199 -0.102,0.018 -0.201,0.048 -0.3,0.074 -0.097,0.025 -0.193,0.058 -0.291,0.076 -0.105,0.02 -0.284,-0.102 -0.334,-0.216 -0.057,-0.13 -0.121,-0.257 -0.172,-0.389 -0.054,-0.142 -0.098,-0.288 -0.142,-0.434 -0.119,-0.399 -0.148,-0.808 -0.113,-1.221 0.018,-0.219 0.094,-0.422 0.193,-0.617 0.079,-0.156 0.131,-0.329 0.287,-0.435 0.009,-0.006 0.017,-0.028 0.014,-0.039 -0.035,-0.134 0.064,-0.198 0.139,-0.274 0.026,-0.026 0.054,-0.05 0.079,-0.076 0.137,-0.137 0.136,-0.152 -0.053,-0.278 -0.205,0.198 -0.412,0.402 -0.624,0.603 -0.12,0.114 -0.258,0.213 -0.367,0.337 -0.097,0.111 -0.18,0.241 -0.246,0.374 -0.134,0.271 -0.26,0.546 -0.376,0.825 -0.101,0.244 -0.196,0.492 -0.274,0.744 -0.058,0.188 -0.083,0.385 -0.126,0.577 -0.02,0.087 -0.05,0.171 -0.074,0.257 -0.024,0.082 -0.06,0.163 -0.069,0.247 -0.023,0.226 -0.113,0.434 -0.136,0.665 -0.035,0.35 -0.016,0.697 -0.022,1.046 -10e-4,0.111 0.024,0.222 0.03,0.333 0.002,0.032 -0.012,0.089 -0.028,0.093 -0.038,0.009 -0.083,-0.005 -0.123,-0.015 -0.039,-0.009 -0.102,-0.045 -0.108,-0.036 -0.038,0.053 -0.086,0.115 -0.087,0.174 -10e-4,0.128 0.022,0.257 0.04,0.385 0.019,0.135 0.045,0.268 0.067,0.402 0.029,0.17 0.052,0.341 0.086,0.51 0.019,0.1 0.056,0.197 0.081,0.296 0.027,0.104 0.047,0.209 0.076,0.311 0.046,0.167 0.092,0.334 0.146,0.498 0.062,0.187 0.127,0.372 0.199,0.555 0.098,0.246 0.199,0.491 0.31,0.732 0.054,0.119 0.132,0.227 0.198,0.341 0.099,0.17 0.191,0.344 0.298,0.509 0.091,0.139 0.196,0.268 0.298,0.399 0.125,0.16 0.25,0.319 0.382,0.473 0.111,0.13 0.23,0.254 0.349,0.376 0.134,0.139 0.262,0.287 0.412,0.407 0.361,0.286 0.733,0.558 1.101,0.836 0.15,0.113 0.299,0.229 0.453,0.338 0.157,0.111 0.318,0.217 0.48,0.321 0.06,0.039 0.133,0.058 0.19,0.099 0.03,0.022 0.045,0.071 0.054,0.11 0.009,0.037 -0.009,0.081 0.001,0.118 0.043,0.159 0.065,0.152 0.222,0.104 C -0.7,5.143 -0.604,4.9 -0.5,4.667 -0.474,4.608 -0.528,4.511 -0.553,4.435 -0.621,4.22 -0.752,4.042 -0.869,3.853 -1.027,3.595 -1.16,3.32 -1.186,3.008 -1.194,2.902 -1.215,2.796 -1.222,2.69 -1.239,2.426 -1.262,2.162 -1.261,1.898 -1.26,1.578 -1.265,1.253 -1.211,0.94 -1.173,0.719 -1.043,0.513 -0.948,0.303 -0.939,0.282 -0.887,0.27 -0.855,0.271 -0.729,0.273 -0.601,0.299 -0.477,0.284 -0.353,0.269 -0.245,0.308 -0.13,0.323 -0.002,0.339 0.136,0.318 0.261,0.284 0.362,0.257 0.437,0.273 0.515,0.328 0.557,0.357 0.603,0.381 0.653,0.411"
             style="fill:#fff;fill-opacity:1;fill-rule:nonzero;stroke:none"
             id="path5849"
             inkscape:connector-curvature="0" />
        </g>
        <g
           id="g5851"
           transform="translate(367.3025,260.7561)">
          <path
             d="M 0,0 C 0.127,0.035 0.281,0.077 0.434,0.123 0.452,0.128 0.475,0.16 0.472,0.176 0.469,0.198 0.444,0.217 0.429,0.237 0.376,0.307 0.305,0.37 0.276,0.449 0.244,0.536 0.24,0.63 0.162,0.699 0.131,0.726 0.099,0.766 0.091,0.806 0.056,0.963 0.031,1.123 0,1.281 -0.007,1.317 -0.025,1.377 -0.039,1.378 -0.086,1.379 -0.148,1.372 -0.177,1.342 -0.21,1.307 -0.223,1.246 -0.229,1.194 -0.241,1.097 -0.226,0.995 -0.252,0.902 -0.276,0.817 -0.348,0.746 -0.383,0.663 -0.434,0.539 -0.475,0.411 -0.512,0.282 -0.526,0.232 -0.534,0.167 -0.512,0.125 -0.497,0.097 -0.427,0.094 -0.38,0.087 -0.324,0.078 -0.231,0.097 -0.216,0.07 -0.167,-0.017 -0.097,0.006 0,0 M 2.106,2.558 C 2.056,2.547 2.009,2.538 1.962,2.527 1.889,2.51 1.816,2.49 1.743,2.475 1.596,2.444 1.446,2.426 1.303,2.383 1.104,2.322 0.888,2.302 0.713,2.171 0.703,2.163 0.684,2.163 0.671,2.166 0.504,2.2 0.419,2.066 0.31,1.987 0.251,1.945 0.241,1.89 0.324,1.843 0.356,1.825 0.377,1.778 0.394,1.739 0.413,1.694 0.412,1.638 0.437,1.597 0.519,1.467 0.661,1.416 0.791,1.352 0.918,1.29 1.042,1.311 1.169,1.355 1.262,1.388 1.362,1.403 1.456,1.434 1.582,1.474 1.72,1.499 1.825,1.572 1.924,1.64 1.999,1.754 2.063,1.861 2.134,1.982 2.242,2.098 2.199,2.259 2.175,2.352 2.142,2.443 2.106,2.558 M -1.653,1.146 c 0.143,0.018 0.287,0.029 0.428,0.057 0.077,0.016 0.154,0.051 0.22,0.094 0.096,0.063 0.182,0.14 0.271,0.213 0.017,0.014 0.037,0.035 0.038,0.055 0.013,0.154 -0.095,0.301 -0.246,0.348 -0.087,0.028 -0.17,0.069 -0.257,0.098 -0.165,0.054 -0.33,0.113 -0.499,0.151 -0.131,0.029 -0.27,0.025 -0.404,0.045 -0.073,0.01 -0.149,0.03 -0.214,0.065 C -2.429,2.333 -2.477,2.327 -2.543,2.217 -2.562,2.187 -2.589,2.159 -2.6,2.126 -2.625,2.047 -2.746,1.992 -2.692,1.899 -2.591,1.725 -2.493,1.541 -2.354,1.4 -2.17,1.215 -1.935,1.104 -1.653,1.146 m -1.34,1.876 c 0.038,0.106 0.07,0.214 0.116,0.317 0.054,0.119 0.118,0.234 0.183,0.349 0.048,0.087 0.053,0.159 -0.015,0.245 -0.04,0.052 -0.052,0.13 -0.066,0.198 -0.028,0.136 -0.058,0.273 -0.071,0.411 -0.011,0.111 -0.017,0.23 0.008,0.337 0.046,0.199 0.1,0.4 0.182,0.587 0.066,0.149 0.077,0.296 0.074,0.451 0,0.029 0.022,0.058 0.034,0.087 0.064,0.155 0.128,0.31 0.195,0.463 0.021,0.048 0.058,0.089 0.078,0.137 0.072,0.174 0.17,0.33 0.303,0.462 0.039,0.04 0.085,0.077 0.134,0.105 0.199,0.113 0.395,0.235 0.603,0.331 0.211,0.098 0.435,0.169 0.654,0.251 0.013,0.005 0.028,0.005 0.043,0.006 0.264,0.013 0.529,0.02 0.792,0.041 C 0.379,7.81 0.495,7.818 0.612,7.761 0.848,7.645 1.093,7.548 1.324,7.422 1.536,7.308 1.666,7.111 1.778,6.901 1.866,6.737 1.891,6.558 1.938,6.383 1.993,6.173 2.095,5.975 2.165,5.767 2.202,5.658 2.214,5.54 2.236,5.426 2.246,5.376 2.255,5.326 2.262,5.276 2.293,5.063 2.351,4.848 2.343,4.637 2.337,4.49 2.36,4.347 2.352,4.203 2.349,4.147 2.328,4.092 2.322,4.037 2.319,3.998 2.328,3.959 2.332,3.92 2.339,3.826 2.353,3.732 2.349,3.639 2.347,3.609 2.287,3.586 2.266,3.552 2.24,3.511 2.2,3.451 2.213,3.419 2.276,3.266 2.326,3.106 2.477,3.002 2.531,2.965 2.555,2.876 2.578,2.806 2.602,2.736 2.608,2.659 2.623,2.585 2.628,2.561 2.629,2.531 2.644,2.515 2.733,2.42 2.748,2.308 2.743,2.183 2.739,2.077 2.747,1.965 2.778,1.866 2.795,1.813 2.88,1.785 2.924,1.737 2.95,1.709 2.979,1.656 2.97,1.626 2.942,1.538 2.902,1.451 2.853,1.373 2.825,1.328 2.774,1.291 2.725,1.268 2.608,1.215 2.525,1.135 2.461,1.023 2.43,0.969 2.363,0.935 2.313,0.891 2.261,0.846 2.207,0.803 2.159,0.754 2.052,0.646 1.953,0.64 1.835,0.73 1.803,0.754 1.749,0.774 1.715,0.763 1.669,0.748 1.626,0.725 1.615,0.648 1.594,0.51 1.534,0.379 1.494,0.244 1.468,0.16 1.45,0.074 1.428,-0.012 1.427,-0.018 1.431,-0.03 1.428,-0.033 1.265,-0.171 1.405,-0.27 1.469,-0.381 1.495,-0.427 1.553,-0.473 1.472,-0.526 1.365,-0.596 1.283,-0.602 1.221,-0.536 1.11,-0.418 1.072,-0.437 0.914,-0.478 0.649,-0.546 0.589,-0.767 0.507,-0.968 0.441,-1.132 0.404,-1.307 0.357,-1.478 0.348,-1.508 0.343,-1.544 0.35,-1.575 0.373,-1.69 0.293,-1.728 0.211,-1.761 0.148,-1.787 0.08,-1.73 0.081,-1.642 c 0,0.07 0.034,0.141 0.033,0.211 -0.002,0.104 -0.022,0.208 -0.036,0.311 -0.011,0.089 -0.017,0.18 -0.041,0.265 -0.01,0.037 -0.055,0.084 -0.09,0.09 -0.076,0.012 -0.162,-0.001 -0.173,-0.1 -0.02,-0.179 -0.037,-0.359 -0.04,-0.539 -0.001,-0.121 0.022,-0.244 0.035,-0.366 0.009,-0.081 -0.044,-0.123 -0.106,-0.145 -0.029,-0.01 -0.091,0.008 -0.101,0.03 -0.041,0.094 -0.071,0.193 -0.1,0.292 -0.018,0.057 -0.021,0.119 -0.04,0.175 -0.062,0.177 -0.115,0.358 -0.197,0.525 -0.047,0.094 -0.142,0.166 -0.222,0.241 -0.012,0.011 -0.066,-0.002 -0.085,-0.021 -0.136,-0.135 -0.498,-0.027 -0.516,0.196 -0.009,0.103 0.008,0.208 0.018,0.312 0.011,0.114 -0.023,0.213 -0.092,0.301 -0.044,0.056 -0.019,0.093 0.025,0.129 0.099,0.082 0.102,0.169 0.003,0.246 -0.054,0.041 -0.11,0.084 -0.173,0.107 C -1.962,0.672 -2.121,0.602 -2.2,0.461 -2.287,0.303 -2.555,0.295 -2.655,0.442 -2.7,0.508 -2.757,0.573 -2.823,0.616 c -0.244,0.159 -0.363,0.379 -0.38,0.668 -0.01,0.174 -0.047,0.347 -0.072,0.52 -0.002,0.014 -0.007,0.03 -0.016,0.04 -0.138,0.144 -0.147,0.244 -0.015,0.39 0.07,0.076 0.164,0.131 0.233,0.207 0.046,0.051 0.072,0.122 0.099,0.187 0.029,0.068 0.067,0.139 0.069,0.209 10e-4,0.065 -0.039,0.13 -0.061,0.195 -0.009,-0.003 -0.018,-0.006 -0.027,-0.01"
             style="fill:#fff;fill-opacity:1;fill-rule:nonzero;stroke:none"
             id="path5853"
             inkscape:connector-curvature="0" />
        </g>
        <g
           id="g5855"
           transform="translate(368.1062,257.3221)">
          <path
             d="m 0,0 c -0.071,0.033 -0.124,0.059 -0.178,0.084 0.011,0.004 0.022,0.007 0.033,0.01 0,0.086 -0.005,0.172 0.001,0.257 0.005,0.073 0.036,0.146 0.034,0.219 -0.006,0.194 -0.024,0.388 -0.037,0.582 0,0.004 0.002,0.009 0,0.011 -0.086,0.094 -0.044,0.203 -0.041,0.309 0.002,0.082 -0.027,0.164 -0.028,0.246 -0.004,0.301 0.026,0.597 0.2,0.855 0.057,0.084 0.128,0.15 0.243,0.095 C 0.239,2.662 0.256,2.664 0.27,2.664 0.486,2.659 0.617,2.451 0.533,2.249 0.521,2.22 0.511,2.188 0.509,2.157 0.493,1.837 0.456,1.521 0.322,1.224 0.319,1.217 0.318,1.21 0.317,1.203 0.29,1.041 0.273,0.877 0.236,0.718 0.203,0.581 0.148,0.449 0.103,0.315 0.07,0.214 0.037,0.113 0,0"
             style="fill:#fff;fill-opacity:1;fill-rule:nonzero;stroke:none"
             id="path5857"
             inkscape:connector-curvature="0" />
        </g>
        <g
           id="g5859"
           transform="translate(365.8808,258.2372)">
          <path
             d="M 0,0 C -0.024,0.127 -0.06,0.254 -0.069,0.382 -0.092,0.697 -0.107,1.012 -0.116,1.328 -0.121,1.506 0.17,1.675 0.321,1.591 0.416,1.538 0.531,1.31 0.518,1.199 0.497,1.028 0.473,0.858 0.454,0.688 0.448,0.638 0.458,0.587 0.454,0.536 0.447,0.444 0.434,0.353 0.425,0.261 0.422,0.225 0.416,0.188 0.42,0.152 0.453,-0.151 0.406,-0.454 0.418,-0.758 0.422,-0.857 0.328,-0.913 0.236,-0.875 0.22,-0.868 0.197,-0.858 0.194,-0.846 c -0.04,0.204 -0.169,0.383 -0.163,0.601 0.002,0.08 -0.028,0.162 -0.044,0.243 z"
             style="fill:#fff;fill-opacity:1;fill-rule:nonzero;stroke:none"
             id="path5861"
             inkscape:connector-curvature="0" />
        </g>
      </g>
    </g>
  </g>
</svg>
