<?xml version="1.0" encoding="UTF-8" standalone="no"?>
<!-- Created with Inkscape (http://www.inkscape.org/) -->

<svg
   xmlns:dc="http://purl.org/dc/elements/1.1/"
   xmlns:cc="http://creativecommons.org/ns#"
   xmlns:rdf="http://www.w3.org/1999/02/22-rdf-syntax-ns#"
   xmlns:svg="http://www.w3.org/2000/svg"
   xmlns="http://www.w3.org/2000/svg"
   xmlns:sodipodi="http://sodipodi.sourceforge.net/DTD/sodipodi-0.dtd"
   xmlns:inkscape="http://www.inkscape.org/namespaces/inkscape"
   width="10.881536mm"
   height="13.712685mm"
   viewBox="0 0 10.881536 13.712685"
   version="1.1"
   id="svg8456"
   inkscape:version="0.92.5 (2060ec1f9f, 2020-04-08)"
   sodipodi:docname="allies-idoneth-deepkin.svg">
  <defs
     id="defs8450">
    <clipPath
       clipPathUnits="userSpaceOnUse"
       id="clipPath5801">
      <path
         d="m 302.869,241.305 h 30.846 v 38.898 h -30.846 z"
         id="path5799"
         inkscape:connector-curvature="0" />
    </clipPath>
  </defs>
  <sodipodi:namedview
     id="base"
     pagecolor="#ffffff"
     bordercolor="#666666"
     borderopacity="1.0"
     inkscape:pageopacity="0.0"
     inkscape:pageshadow="2"
     inkscape:zoom="0.35"
     inkscape:cx="-1039.4365"
     inkscape:cy="14.485158"
     inkscape:document-units="mm"
     inkscape:current-layer="layer1"
     showgrid="false"
     fit-margin-top="0"
     fit-margin-left="0"
     fit-margin-right="0"
     fit-margin-bottom="0"
     inkscape:window-width="1920"
     inkscape:window-height="1017"
     inkscape:window-x="-8"
     inkscape:window-y="-8"
     inkscape:window-maximized="1" />
  <metadata
     id="metadata8453">
    <rdf:RDF>
      <cc:Work
         rdf:about="">
        <dc:format>image/svg+xml</dc:format>
        <dc:type
           rdf:resource="http://purl.org/dc/dcmitype/StillImage" />
        <dc:title></dc:title>
      </cc:Work>
    </rdf:RDF>
  </metadata>
  <g
     inkscape:label="Layer 1"
     inkscape:groupmode="layer"
     id="layer1"
     transform="translate(-380.8509,-138.95318)">
    <g
       transform="matrix(0.35277777,0,0,-0.35277777,274.00545,237.80257)"
       id="g5795">
      <g
         id="g5797"
         clip-path="url(#clipPath5801)">
        <g
           id="g5803"
           transform="translate(328.057,268.2792)">
          <path
             d="m 0,0 c -0.084,-0.097 -0.131,-0.166 -0.192,-0.217 -0.279,-0.235 -0.567,-0.46 -0.844,-0.697 -0.406,-0.349 -0.805,-0.706 -1.209,-1.057 -0.145,-0.127 -0.178,-0.253 -0.105,-0.45 0.389,-1.049 0.341,-2.083 -0.155,-3.092 -0.078,-0.16 -0.136,-0.33 -0.214,-0.49 -0.071,-0.146 -0.146,-0.292 -0.237,-0.425 -0.313,-0.463 -0.637,-0.918 -0.952,-1.38 -0.476,-0.698 -1.076,-1.26 -1.809,-1.683 -0.138,-0.08 -0.292,-0.091 -0.434,-0.139 -0.132,-0.043 -0.217,-0.214 -0.347,-0.281 -0.513,-0.264 -1.049,-0.462 -1.632,-0.515 -0.262,-0.024 -0.52,-0.091 -0.782,-0.121 -0.493,-0.056 -0.975,0.007 -1.449,0.149 -0.424,0.127 -0.855,0.232 -1.272,0.378 -0.69,0.241 -1.363,0.536 -1.969,0.942 -0.627,0.418 -0.997,1.034 -1.091,1.795 -0.037,0.308 0.056,0.585 0.239,0.83 0.389,0.518 0.908,0.817 1.552,0.88 0.34,0.033 0.682,0.048 1.023,0.052 0.201,0.003 0.402,-0.031 0.602,-0.052 0.072,-0.008 0.156,-0.035 0.142,-0.119 -0.009,-0.056 -0.068,-0.131 -0.12,-0.149 -0.213,-0.072 -0.43,-0.132 -0.649,-0.184 -0.393,-0.094 -0.784,-0.194 -1.147,-0.377 -0.273,-0.137 -0.524,-0.304 -0.72,-0.542 -0.208,-0.252 -0.194,-0.486 0.078,-0.675 0.234,-0.164 0.484,-0.31 0.743,-0.432 0.691,-0.323 1.431,-0.505 2.16,-0.724 1.394,-0.418 2.736,-0.184 4.057,0.301 0.859,0.316 1.659,0.75 2.305,1.413 0.394,0.405 0.751,0.847 1.112,1.283 0.18,0.216 0.299,0.472 0.365,0.748 0.053,0.223 0.054,0.448 -10e-4,0.67 -0.225,0.914 -0.666,1.679 -1.493,2.187 -0.536,0.33 -1.059,0.68 -1.664,0.877 -0.519,0.168 -1.052,0.272 -1.591,0.342 -0.77,0.099 -1.54,0.202 -2.313,0.262 -0.414,0.031 -0.836,-0.009 -1.253,-0.045 -0.828,-0.071 -1.643,-0.236 -2.453,-0.419 -0.203,-0.046 -0.407,-0.108 -0.596,-0.195 -0.551,-0.25 -1.099,-0.508 -1.64,-0.779 -0.718,-0.359 -1.32,-0.869 -1.829,-1.488 -0.158,-0.192 -0.313,-0.386 -0.47,-0.579 -0.059,-0.073 -0.119,-0.144 -0.262,-0.132 0,0.061 -0.015,0.129 0.003,0.185 0.09,0.273 0.178,0.547 0.288,0.811 0.056,0.133 0.148,0.256 0.241,0.368 0.422,0.503 0.931,0.911 1.446,1.312 0.171,0.134 0.346,0.264 0.517,0.398 0.059,0.047 0.112,0.101 0.184,0.166 -0.067,0.086 -0.113,0.168 -0.18,0.227 -0.32,0.281 -0.645,0.558 -0.971,0.832 -0.19,0.16 -0.387,0.311 -0.578,0.47 -0.056,0.047 -0.101,0.108 -0.179,0.193 0.11,0.046 0.183,0.101 0.258,0.103 0.192,0.005 0.388,0.006 0.577,-0.026 0.259,-0.045 0.514,-0.119 0.768,-0.188 0.323,-0.087 0.587,-0.281 0.837,-0.491 0.05,-0.041 0.072,-0.132 0.081,-0.203 0.03,-0.238 0.068,-0.285 0.307,-0.272 0.129,0.007 0.265,0.026 0.385,0.075 0.496,0.201 0.987,0.415 1.479,0.626 0.04,0.017 0.075,0.048 0.131,0.084 -0.039,0.058 -0.065,0.112 -0.105,0.155 -0.32,0.35 -0.637,0.702 -0.966,1.042 -0.15,0.155 -0.33,0.281 -0.49,0.428 -0.096,0.088 -0.195,0.181 -0.265,0.289 -0.088,0.136 -0.01,0.271 0.144,0.24 0.538,-0.104 1.096,-0.152 1.547,-0.523 0.263,-0.217 0.541,-0.416 0.811,-0.626 0.166,-0.13 0.165,-0.132 0.104,-0.341 -0.035,-0.118 -0.01,-0.185 0.11,-0.247 0.213,-0.111 0.439,-0.144 0.678,-0.101 0.312,0.058 0.626,0.112 0.94,0.161 0.753,0.115 1.501,0.041 2.25,-0.06 0.509,-0.069 1.006,-0.183 1.497,-0.334 0.184,-0.057 0.376,-0.101 0.567,-0.114 0.278,-0.019 0.337,0.075 0.287,0.351 -0.014,0.075 -0.008,0.182 0.036,0.237 0.392,0.491 0.749,1.013 1.258,1.398 0.037,0.028 0.074,0.059 0.115,0.077 C -4.315,2.412 -4.242,2.365 -4.251,2.27 -4.258,2.202 -4.284,2.135 -4.308,2.07 -4.523,1.471 -4.74,0.873 -4.957,0.274 -4.973,0.231 -4.99,0.187 -5.003,0.143 c -0.053,-0.175 -0.04,-0.214 0.118,-0.302 0.169,-0.095 0.352,-0.17 0.509,-0.28 0.342,-0.242 0.676,-0.495 1.005,-0.754 0.142,-0.112 0.285,-0.173 0.47,-0.144 0.174,0.027 0.3,0.111 0.328,0.282 0.047,0.282 0.223,0.425 0.474,0.519 0.451,0.167 0.894,0.356 1.348,0.514 0.171,0.06 0.363,0.066 0.547,0.086 C -0.157,0.069 -0.105,0.034 0,0"
             style="fill:#fff;fill-opacity:1;fill-rule:nonzero;stroke:none"
             id="path5805"
             inkscape:connector-curvature="0" />
        </g>
        <g
           id="g5807"
           transform="translate(321.5445,251.4144)">
          <path
             d="M 0,0 C 0.002,0.001 0.004,0.001 0.006,0.002 -0.165,0.351 -0.432,0.955 -0.549,1.221 -0.6,1.222 -0.652,1.224 -0.704,1.229 -0.844,1.242 -0.994,1.202 -1.133,1.164 -1.327,1.111 -1.512,1.019 -1.707,0.978 -1.901,0.937 -2.103,0.94 -2.314,0.922 -2.328,0.993 -2.336,1.016 -2.337,1.038 -2.352,1.744 -2.367,2.45 -2.38,3.157 c -0.003,0.207 -10e-4,0.209 0.218,0.246 0.505,0.085 1.011,0.164 1.515,0.254 0.548,0.097 1.048,0.333 1.55,0.558 C 0.951,4.237 0.988,4.28 1.032,4.311 1.086,4.349 1.144,4.381 1.195,4.423 1.258,4.474 1.338,4.522 1.369,4.591 1.419,4.698 1.478,4.746 1.598,4.74 1.801,4.729 1.979,4.814 2.137,4.93 2.343,5.082 2.546,5.239 2.738,5.408 3.292,5.895 3.839,6.39 4.388,6.882 4.446,6.933 4.508,6.983 4.553,7.045 4.978,7.627 5.455,8.174 5.794,8.814 5.924,9.06 6.017,9.325 6.12,9.584 6.139,9.63 6.128,9.688 6.132,9.746 5.984,9.769 5.905,9.689 5.833,9.596 5.646,9.358 5.454,9.123 5.273,8.881 4.731,8.158 4.06,7.579 3.309,7.08 1.893,6.139 0.339,5.538 -1.314,5.179 -1.608,5.116 -1.914,5.089 -2.215,5.081 -2.943,5.06 -3.673,4.98 -4.399,5.114 -4.894,5.206 -5.389,5.307 -5.883,5.407 -6.058,5.442 -6.23,5.491 -6.404,5.529 -7.054,5.67 -7.651,5.938 -8.247,6.228 -9.042,6.613 -9.72,7.146 -10.36,7.737 c -0.569,0.525 -0.725,1.173 -0.519,1.911 0.046,0.163 0.11,0.324 0.186,0.476 0.214,0.422 0.427,0.845 0.663,1.255 0.337,0.586 0.814,1.037 1.416,1.346 0.455,0.234 0.916,0.458 1.383,0.668 0.665,0.298 1.371,0.444 2.092,0.522 0.702,0.076 1.403,0.159 2.106,0.221 1.029,0.09 2.011,-0.082 2.931,-0.564 0.13,-0.068 0.254,-0.151 0.37,-0.241 0.346,-0.273 0.392,-0.637 0.109,-0.975 -0.453,-0.541 -1.002,-0.955 -1.687,-1.153 -0.483,-0.14 -0.978,-0.243 -1.467,-0.364 -0.086,-0.022 -0.211,-0.009 -0.219,-0.13 -0.008,-0.126 0.113,-0.155 0.208,-0.184 0.342,-0.102 0.683,-0.209 1.029,-0.297 0.417,-0.107 0.832,-0.055 1.242,0.055 0.05,0.014 0.106,0.041 0.137,0.08 0.058,0.071 0.117,0.117 0.214,0.116 0.04,-10e-4 0.081,0.032 0.12,0.052 0.074,0.039 0.147,0.079 0.221,0.118 0.114,0.062 0.241,0.107 0.34,0.187 0.406,0.321 0.639,0.751 0.756,1.25 0.08,0.342 0.058,0.661 -0.158,0.953 -0.231,0.312 -0.444,0.639 -0.69,0.938 -0.135,0.164 -0.312,0.302 -0.491,0.42 -0.167,0.109 -0.355,0.195 -0.545,0.259 -0.5,0.169 -1,0.341 -1.51,0.47 -0.328,0.083 -0.676,0.09 -1.014,0.135 -0.69,0.094 -1.379,0.003 -2.068,-0.016 -0.847,-0.024 -1.633,-0.269 -2.405,-0.588 -1.169,-0.482 -2.095,-1.257 -2.792,-2.309 -0.15,-0.226 -0.293,-0.457 -0.443,-0.684 -0.343,-0.515 -0.58,-1.077 -0.764,-1.665 -0.091,-0.292 -0.139,-0.589 -0.138,-0.894 10e-4,-0.218 0.01,-0.435 -10e-4,-0.652 -0.017,-0.355 0.084,-0.671 0.265,-0.972 0.597,-0.997 1.389,-1.805 2.363,-2.435 1.491,-0.964 3.114,-1.563 4.884,-1.752 0.155,-0.016 0.308,-0.038 0.462,-0.059 0.015,-0.002 0.029,-0.01 0.044,-0.016 0.046,-0.161 0.06,-1.922 0.018,-2.211 -0.362,0.009 -0.724,0.005 -1.084,0.031 -0.189,0.013 -0.385,0.057 -0.559,0.131 -0.104,0.044 -0.198,0.074 -0.307,0.07 -0.122,-0.006 -0.243,-0.006 -0.363,0 -0.171,-0.659 -0.345,-1.065 -0.5,-1.313 0.007,0 0.016,-0.001 0.022,-0.002 -0.086,-0.232 -0.211,-0.44 -0.238,-0.661 -0.066,-0.525 -0.063,-1.053 0.099,-1.568 0.24,-0.762 0.469,-1.527 0.714,-2.288 0.066,-0.204 0.156,-0.406 0.266,-0.591 0.174,-0.293 0.374,-0.571 0.565,-0.854 0.041,-0.06 0.093,-0.113 0.14,-0.17 l 0.074,0.029 c -0.008,0.087 -0.005,0.176 -0.024,0.26 -0.08,0.34 -0.17,0.678 -0.25,1.017 -0.171,0.725 -0.346,1.449 -0.506,2.176 -0.102,0.461 -0.03,0.894 0.259,1.282 0.151,0.203 0.349,0.297 0.597,0.307 0.318,0.012 0.588,-0.113 0.851,-0.273 0.116,-0.071 0.178,-0.161 0.194,-0.297 0.012,-0.107 0.048,-0.21 0.069,-0.316 0.034,-0.167 0.083,-0.333 0.092,-0.502 0.028,-0.527 0.053,-1.054 0.056,-1.582 0.004,-0.838 -0.01,-1.677 -0.02,-2.515 -0.012,-1.074 0.128,-2.138 0.22,-3.204 0.005,-0.061 0.023,-0.124 0.051,-0.177 0.056,-0.106 0.16,-0.107 0.214,-10e-4 0.034,0.068 0.054,0.147 0.063,0.223 0.04,0.354 0.082,0.709 0.108,1.065 0.057,0.758 0.103,1.517 0.155,2.275 0.013,0.194 0.024,0.388 0.051,0.579 0.072,0.499 0.16,0.996 0.228,1.495 0.07,0.507 0.12,1.017 0.185,1.524 0.057,0.445 0.124,0.889 0.182,1.334 0.013,0.103 0.067,0.172 0.146,0.225 0.19,0.129 0.398,0.207 0.632,0.205 0.25,-0.003 0.421,-0.114 0.483,-0.355 0.05,-0.194 0.091,-0.398 0.084,-0.596 -0.035,-0.947 -0.113,-1.89 -0.292,-2.822 -0.077,-0.396 -0.151,-0.793 -0.22,-1.19 -0.015,-0.086 -0.053,-0.185 0.073,-0.273 0.047,0.066 0.104,0.125 0.138,0.196 0.133,0.28 0.27,0.559 0.384,0.847 0.375,0.949 0.669,1.918 0.74,2.945 0.016,0.223 0.052,0.449 0.114,0.664 0.089,0.308 0.097,0.613 0.026,0.92 C 0.145,-0.503 0.073,-0.267 0,0"
             style="fill:#fff;fill-opacity:1;fill-rule:nonzero;stroke:none"
             id="path5809"
             inkscape:connector-curvature="0" />
        </g>
        <g
           id="g5811"
           transform="translate(332.7273,264.4452)">
          <path
             d="m 0,0 c -0.036,-0.001 -0.073,0.019 -0.11,0.028 -0.096,0.021 -0.191,0.052 -0.288,0.06 -0.123,0.01 -0.248,0.004 -0.372,0.001 -0.103,-0.004 -0.189,0.02 -0.283,0.073 -0.179,0.101 -0.356,0.212 -0.58,0.214 -0.161,0.001 -0.233,0.109 -0.273,0.295 -0.036,0.166 -0.077,0.331 -0.125,0.494 -0.048,0.163 -0.125,0.32 -0.157,0.486 -0.051,0.261 -0.137,0.507 -0.248,0.747 -0.035,0.076 -0.057,0.159 -0.082,0.24 -0.05,0.162 -0.093,0.327 -0.147,0.487 -0.185,0.542 -0.387,1.079 -0.555,1.626 -0.078,0.257 -0.168,0.493 -0.341,0.702 -0.157,0.19 -0.297,0.395 -0.442,0.596 -0.05,0.068 -0.086,0.147 -0.137,0.214 -0.186,0.238 -0.389,0.465 -0.561,0.713 -0.122,0.176 -0.214,0.376 -0.301,0.574 -0.064,0.147 -0.051,0.299 0.037,0.445 0.187,0.311 0.364,0.629 0.547,0.942 0.042,0.072 0.077,0.14 0.009,0.21 -0.077,0.08 -0.165,0.075 -0.256,0.025 C -4.961,9.006 -5.282,8.884 -5.543,8.658 -5.583,8.623 -5.634,8.6 -5.681,8.574 -5.764,8.528 -5.838,8.532 -5.914,8.599 c -0.192,0.169 -0.384,0.337 -0.584,0.496 -0.089,0.07 -0.197,0.117 -0.296,0.175 -0.153,0.09 -0.32,0.162 -0.455,0.273 -0.221,0.181 -0.422,0.385 -0.691,0.502 -0.255,0.11 -0.499,0.254 -0.762,0.339 -0.206,0.067 -0.377,0.172 -0.54,0.304 -0.048,0.039 -0.094,0.085 -0.15,0.109 -0.318,0.14 -0.633,0.281 -0.933,0.462 -0.323,0.195 -0.691,0.253 -1.072,0.241 -0.207,-0.007 -0.416,-0.008 -0.619,0.074 -0.126,0.051 -0.271,0.061 -0.408,0.082 -0.341,0.054 -0.683,0.104 -1.037,0.158 -0.088,0.098 -0.113,0.23 -0.109,0.375 0.002,0.1 -0.013,0.2 -0.029,0.299 -0.019,0.121 -0.038,0.242 -0.072,0.358 -0.063,0.216 -0.079,0.436 -0.088,0.659 -0.002,0.06 -0.013,0.133 -0.048,0.178 -0.133,0.167 -0.143,0.365 -0.179,0.563 -0.08,0.433 -0.184,0.862 -0.284,1.291 -0.017,0.074 -0.014,0.17 -0.141,0.221 -0.041,-0.223 -0.08,-0.431 -0.116,-0.64 -0.024,-0.135 -0.045,-0.271 -0.066,-0.407 -0.011,-0.068 -0.019,-0.137 -0.028,-0.206 -0.028,-0.199 -0.045,-0.401 -0.087,-0.597 -0.082,-0.387 -0.178,-0.771 -0.267,-1.156 -0.012,-0.052 -0.025,-0.106 -0.026,-0.16 -0.002,-0.232 -0.013,-0.458 -0.08,-0.688 -0.04,-0.14 -0.083,-0.22 -0.222,-0.248 -0.083,-0.016 -0.165,-0.041 -0.246,-0.066 -0.274,-0.082 -0.552,-0.153 -0.82,-0.252 -0.312,-0.115 -0.613,-0.256 -0.92,-0.383 -0.114,-0.048 -0.235,-0.08 -0.347,-0.131 -0.31,-0.139 -0.616,-0.288 -0.925,-0.427 -0.275,-0.123 -0.553,-0.24 -0.83,-0.359 -0.247,-0.107 -0.488,-0.239 -0.745,-0.314 -0.275,-0.081 -0.508,-0.224 -0.741,-0.375 -0.241,-0.155 -0.476,-0.32 -0.722,-0.468 -0.103,-0.062 -0.225,-0.117 -0.343,-0.125 -0.176,-0.014 -0.286,-0.062 -0.331,-0.25 -0.043,-0.183 -0.196,-0.23 -0.363,-0.139 -0.114,0.062 -0.232,0.117 -0.349,0.176 -0.159,0.078 -0.335,0.135 -0.475,0.239 -0.435,0.323 -0.856,0.665 -1.283,0.998 -0.042,0.033 -0.09,0.059 -0.135,0.088 -0.123,0.078 -0.256,0.144 -0.368,0.235 -0.257,0.212 -0.502,0.437 -0.754,0.654 -0.041,0.035 -0.088,0.063 -0.134,0.092 -0.178,0.109 -0.365,0.206 -0.533,0.329 -0.118,0.087 -0.231,0.11 -0.394,0.07 0.077,-0.137 0.137,-0.271 0.22,-0.39 0.306,-0.438 0.619,-0.871 0.93,-1.305 0.176,-0.246 0.337,-0.505 0.533,-0.734 0.215,-0.25 0.381,-0.525 0.54,-0.81 0.196,-0.352 0.413,-0.692 0.618,-1.038 0.043,-0.073 0.105,-0.149 0.11,-0.227 0.014,-0.207 0.007,-0.416 -0.002,-0.623 -0.002,-0.058 -0.021,-0.132 -0.06,-0.17 -0.233,-0.228 -0.365,-0.522 -0.485,-0.81 -0.241,-0.576 -0.546,-1.128 -0.701,-1.739 -0.031,-0.119 -0.056,-0.24 -0.093,-0.357 -0.116,-0.368 -0.296,-0.711 -0.393,-1.088 -0.084,-0.329 -0.198,-0.648 -0.171,-0.994 0.012,-0.161 -0.035,-0.303 -0.122,-0.427 -0.073,0 -0.147,0.023 -0.191,-0.004 -0.222,-0.138 -0.484,-0.148 -0.721,-0.235 -0.309,-0.113 -0.596,-0.284 -0.925,-0.35 -0.165,-0.033 -0.329,-0.137 -0.488,-0.125 -0.355,0.026 -0.687,-0.104 -1.034,-0.11 -0.16,-0.003 -0.294,-0.071 -0.363,-0.269 0.101,0 0.175,0.003 0.25,0 0.178,-0.007 0.358,0.001 0.533,-0.028 0.234,-0.038 0.465,-0.101 0.696,-0.16 0.261,-0.067 0.521,-0.142 0.781,-0.213 0.08,-0.022 0.161,-0.043 0.241,-0.067 0.176,-0.051 0.354,-0.096 0.527,-0.158 0.112,-0.04 0.215,-0.106 0.373,-0.186 0.013,-0.084 0.037,-0.219 0.053,-0.354 0.012,-0.1 -0.007,-0.208 0.024,-0.299 0.099,-0.288 0.152,-0.581 0.157,-0.884 0.001,-0.046 0.01,-0.092 0.018,-0.138 0.05,-0.279 0.099,-0.558 0.151,-0.836 0.037,-0.196 0.069,-0.394 0.12,-0.587 0.088,-0.336 0.224,-0.663 0.276,-1.004 0.046,-0.298 0.11,-0.582 0.19,-0.873 0.086,-0.308 0.229,-0.57 0.39,-0.832 0.059,-0.097 0.152,-0.172 0.215,-0.267 0.183,-0.278 0.355,-0.563 0.538,-0.84 0.12,-0.179 0.253,-0.35 0.374,-0.517 -0.105,-0.263 -0.205,-0.513 -0.307,-0.761 -0.015,-0.035 -0.044,-0.064 -0.07,-0.092 -0.34,-0.363 -0.643,-0.754 -0.87,-1.199 -0.028,-0.055 -0.056,-0.126 -0.104,-0.151 -0.189,-0.097 -0.154,-0.301 -0.229,-0.452 -0.049,-0.099 0.036,-0.21 0.15,-0.207 0.072,0.002 0.155,0.028 0.214,0.069 0.158,0.111 0.312,0.23 0.456,0.359 0.171,0.153 0.324,0.324 0.578,0.338 0.047,0.003 0.094,0.051 0.138,0.081 0.071,0.047 0.14,0.097 0.21,0.146 0.228,0.16 0.467,0.306 0.681,0.482 0.233,0.191 0.377,0.208 0.605,0.008 0.21,-0.184 0.414,-0.374 0.625,-0.555 0.182,-0.156 0.37,-0.306 0.558,-0.455 0.205,-0.162 0.436,-0.297 0.612,-0.484 0.155,-0.165 0.333,-0.274 0.523,-0.376 0.143,-0.076 0.294,-0.136 0.435,-0.214 0.107,-0.059 0.2,-0.145 0.307,-0.204 0.17,-0.093 0.212,-0.053 0.383,-0.142 0.193,0.302 0.402,0.87 0.516,1.204 -0.038,0.01 -0.075,0.019 -0.112,0.032 -0.261,0.089 -0.404,0.035 -0.597,0.258 -0.131,0.152 -0.307,0.241 -0.491,0.299 -0.274,0.087 -0.494,0.253 -0.715,0.423 -0.037,0.028 -0.069,0.069 -0.11,0.085 -0.325,0.127 -0.585,0.344 -0.833,0.58 -0.118,0.112 -0.243,0.215 -0.367,0.319 -0.154,0.129 -0.317,0.247 -0.465,0.382 -0.422,0.385 -0.835,0.78 -1.194,1.228 -0.2,0.248 -0.392,0.5 -0.519,0.795 -0.016,0.035 -0.044,0.067 -0.05,0.104 -0.052,0.276 -0.157,0.53 -0.262,0.789 -0.078,0.194 -0.083,0.418 -0.121,0.629 -0.004,0.022 -0.001,0.047 -0.007,0.069 -0.079,0.257 -0.16,0.514 -0.238,0.771 -0.018,0.058 -0.025,0.12 -0.038,0.179 -0.017,0.075 -0.031,0.151 -0.054,0.225 -0.075,0.242 -0.166,0.479 -0.228,0.725 -0.086,0.345 -0.109,0.697 -0.107,1.055 0.005,1.007 -0.011,2.014 -0.008,3.022 10e-4,0.19 0.038,0.384 0.082,0.57 0.105,0.443 0.222,0.882 0.34,1.322 0.032,0.119 0.083,0.233 0.126,0.35 0.044,0.122 0.089,0.244 0.144,0.392 0.101,0.027 0.177,0.119 0.209,0.248 0.174,0.69 0.487,1.322 0.818,1.946 0.129,0.241 0.244,0.473 0.484,0.652 0.402,0.299 0.751,0.666 1.132,0.994 0.246,0.211 0.506,0.406 0.765,0.601 0.098,0.072 0.215,0.118 0.317,0.185 0.187,0.123 0.385,0.234 0.549,0.384 0.137,0.124 0.282,0.213 0.456,0.254 0.184,0.044 0.339,0.138 0.504,0.226 0.347,0.185 0.714,0.334 1.073,0.496 0.134,0.06 0.276,0.105 0.405,0.175 0.28,0.152 0.574,0.261 0.875,0.366 0.267,0.093 0.511,0.252 0.764,0.384 0.179,0.093 0.372,0.14 0.563,0.201 0.453,0.143 0.908,0.05 1.36,0.089 0.113,0.01 0.223,0.049 0.337,0.062 0.344,0.038 0.683,0.096 1.021,-0.072 0.296,-0.148 0.615,-0.25 0.955,-0.254 0.233,-0.003 0.466,-0.005 0.698,-0.019 0.09,-0.005 0.179,-0.04 0.268,-0.066 0.132,-0.038 0.266,-0.072 0.393,-0.125 0.09,-0.038 0.169,-0.104 0.253,-0.158 0.11,-0.07 0.218,-0.143 0.331,-0.208 0.065,-0.039 0.141,-0.06 0.207,-0.098 0.11,-0.062 0.218,-0.106 0.351,-0.098 0.08,0.005 0.181,-0.015 0.239,-0.064 C -8.909,9.191 -8.752,9.148 -8.61,9.073 -8.476,9.001 -8.35,8.905 -8.236,8.802 -7.851,8.452 -7.475,8.093 -7.092,7.741 -6.939,7.6 -6.778,7.466 -6.621,7.329 -6.597,7.309 -6.574,7.283 -6.546,7.275 -6.287,7.207 -6.163,6.971 -5.975,6.815 -5.912,6.763 -5.857,6.686 -5.828,6.609 -5.73,6.355 -5.552,6.166 -5.363,5.982 -5.336,5.955 -5.306,5.928 -5.287,5.896 -5.06,5.526 -4.804,5.17 -4.618,4.781 -4.439,4.406 -4.332,3.997 -4.193,3.603 -4.165,3.523 -4.129,3.444 -4.109,3.362 -4.06,3.169 -3.98,2.985 -3.999,2.773 -4.008,2.665 -3.945,2.55 -3.915,2.438 -3.844,2.177 -3.774,1.915 -3.704,1.653 -3.575,1.175 -3.435,0.7 -3.322,0.218 c 0.051,-0.215 0.057,-0.443 0.073,-0.666 0.013,-0.192 -0.004,-0.38 -0.074,-0.568 -0.04,-0.109 -0.002,-0.245 -0.019,-0.367 -0.061,-0.444 -0.131,-0.887 -0.196,-1.331 -0.019,-0.129 -0.028,-0.26 -0.053,-0.388 -0.035,-0.182 -0.087,-0.36 -0.119,-0.542 -0.052,-0.291 -0.11,-0.579 -0.26,-0.839 -0.004,-0.006 -0.007,-0.014 -0.008,-0.021 -0.098,-0.622 -0.464,-1.141 -0.675,-1.719 -0.093,-0.257 -0.273,-0.483 -0.413,-0.723 -0.038,-0.067 -0.075,-0.135 -0.108,-0.205 -0.069,-0.146 -0.13,-0.297 -0.202,-0.441 -0.066,-0.131 -0.139,-0.259 -0.216,-0.383 -0.061,-0.099 -0.125,-0.198 -0.204,-0.282 -0.302,-0.321 -0.605,-0.642 -0.92,-0.951 -0.176,-0.173 -0.376,-0.322 -0.563,-0.484 -0.153,-0.13 -0.302,-0.265 -0.455,-0.395 -0.134,-0.115 -0.266,-0.206 -0.462,-0.231 -0.181,-0.024 -0.352,-0.149 -0.522,-0.239 -0.231,-0.124 -0.457,-0.257 -0.686,-0.385 -0.02,-0.012 -0.044,-0.015 -0.064,-0.027 -0.294,-0.182 -0.457,-0.235 -0.751,-0.416 0.131,-0.399 0.359,-0.768 0.528,-1.048 0.326,0.14 0.521,0.157 0.86,0.266 0.272,0.087 0.519,0.273 0.757,0.443 0.251,0.178 0.469,0.404 0.72,0.583 0.236,0.168 0.452,0.376 0.751,0.447 0.109,0.025 0.226,0.079 0.306,0.154 0.223,0.21 0.428,0.438 0.639,0.657 0.109,-0.013 0.215,-0.039 0.32,-0.037 0.189,0.002 0.368,-0.018 0.541,-0.101 0.161,-0.076 0.334,-0.124 0.493,-0.204 0.187,-0.093 0.321,-0.032 0.449,0.111 -0.016,0.041 -0.022,0.083 -0.045,0.112 -0.253,0.312 -0.347,0.707 -0.545,1.047 -0.077,0.132 -0.061,0.245 0.031,0.363 0.113,0.146 0.219,0.297 0.325,0.449 0.15,0.215 0.264,0.452 0.388,0.683 0.303,0.569 0.562,1.151 0.728,1.774 0.01,0.038 0.028,0.073 0.04,0.11 0.143,0.441 0.293,0.879 0.428,1.323 0.097,0.318 0.149,0.651 0.265,0.962 0.106,0.288 0.147,0.589 0.17,0.881 0.027,0.338 0.248,0.56 0.366,0.84 0.01,0.026 0.043,0.046 0.07,0.06 0.227,0.117 0.444,0.282 0.686,0.336 0.33,0.074 0.6,0.245 0.885,0.398 0.088,0.048 0.168,0.113 0.258,0.157 0.179,0.089 0.361,0.172 0.545,0.251 0.089,0.038 0.181,0.066 0.247,0.136 C 0.675,-0.041 0.345,0.013 0,0"
             style="fill:#fff;fill-opacity:1;fill-rule:nonzero;stroke:none"
             id="path5813"
             inkscape:connector-curvature="0" />
        </g>
      </g>
    </g>
  </g>
</svg>
