<?xml version="1.0" encoding="UTF-8" standalone="no"?>
<!-- Created with Inkscape (http://www.inkscape.org/) -->

<svg
   xmlns:dc="http://purl.org/dc/elements/1.1/"
   xmlns:cc="http://creativecommons.org/ns#"
   xmlns:rdf="http://www.w3.org/1999/02/22-rdf-syntax-ns#"
   xmlns:svg="http://www.w3.org/2000/svg"
   xmlns="http://www.w3.org/2000/svg"
   xmlns:sodipodi="http://sodipodi.sourceforge.net/DTD/sodipodi-0.dtd"
   xmlns:inkscape="http://www.inkscape.org/namespaces/inkscape"
   width="10.886651mm"
   height="12.056886mm"
   viewBox="0 0 10.886651 12.056886"
   version="1.1"
   id="svg8410"
   inkscape:version="0.92.5 (2060ec1f9f, 2020-04-08)"
   sodipodi:docname="allies-daughters-of-khaine.svg">
  <defs
     id="defs8404">
    <clipPath
       clipPathUnits="userSpaceOnUse"
       id="clipPath5785">
      <path
         d="m 263.267,246.658 h 30.86 v 34.177 h -30.86 z"
         id="path5783"
         inkscape:connector-curvature="0" />
    </clipPath>
  </defs>
  <sodipodi:namedview
     id="base"
     pagecolor="#ffffff"
     bordercolor="#666666"
     borderopacity="1.0"
     inkscape:pageopacity="0.0"
     inkscape:pageshadow="2"
     inkscape:zoom="0.35"
     inkscape:cx="-973.71251"
     inkscape:cy="85.641817"
     inkscape:document-units="mm"
     inkscape:current-layer="layer1"
     showgrid="false"
     fit-margin-top="0"
     fit-margin-left="0"
     fit-margin-right="0"
     fit-margin-bottom="0"
     inkscape:window-width="1920"
     inkscape:window-height="1017"
     inkscape:window-x="-8"
     inkscape:window-y="-8"
     inkscape:window-maximized="1" />
  <metadata
     id="metadata8407">
    <rdf:RDF>
      <cc:Work
         rdf:about="">
        <dc:format>image/svg+xml</dc:format>
        <dc:type
           rdf:resource="http://purl.org/dc/dcmitype/StillImage" />
        <dc:title></dc:title>
      </cc:Work>
    </rdf:RDF>
  </metadata>
  <g
     inkscape:label="Layer 1"
     inkscape:groupmode="layer"
     id="layer1"
     transform="translate(-363.46144,-159.43584)">
    <g
       transform="matrix(0.35277777,0,0,-0.35277777,270.58662,258.50819)"
       id="g5779">
      <g
         id="g5781"
         clip-path="url(#clipPath5785)">
        <g
           id="g5787"
           transform="translate(268.7232,268.2614)">
          <path
             d="m 0,0 c -0.019,-0.09 -0.018,-0.182 -0.057,-0.252 -0.157,-0.291 -0.222,-0.613 -0.329,-0.92 -0.056,-0.163 -0.071,-0.339 -0.106,-0.508 -0.019,-0.092 -0.039,-0.184 -0.06,-0.274 -0.04,-0.168 -0.097,-0.334 -0.119,-0.504 -0.019,-0.16 -0.003,-0.326 -0.002,-0.489 0.005,-0.4 0.01,-0.8 0.013,-1.2 0.003,-0.362 0.004,-0.724 0.005,-1.087 0.001,-0.257 0.016,-0.516 -0.006,-0.771 -0.023,-0.266 0.121,-0.499 0.115,-0.758 0,-0.004 0.006,-0.009 0.007,-0.013 0.025,-0.101 0.051,-0.202 0.076,-0.303 0.011,-0.045 0.018,-0.093 0.036,-0.136 0.034,-0.082 0.094,-0.159 0.11,-0.243 0.038,-0.205 0.096,-0.405 0.145,-0.607 0.031,-0.127 0.05,-0.261 0.108,-0.375 C 0,-8.565 -0.009,-8.694 0.017,-8.821 0.042,-8.946 0.13,-9.055 0.116,-9.196 0.111,-9.25 0.128,-9.311 0.152,-9.361 c 0.097,-0.204 0.19,-0.409 0.212,-0.638 0.004,-0.036 0.015,-0.074 0.033,-0.105 0.123,-0.214 0.198,-0.454 0.373,-0.638 0.072,-0.076 0.126,-0.169 0.196,-0.248 0.177,-0.2 0.357,-0.397 0.538,-0.594 0.113,-0.123 0.266,-0.209 0.342,-0.367 0.013,-0.028 0.037,-0.053 0.062,-0.071 0.15,-0.115 0.302,-0.228 0.454,-0.342 0.042,-0.031 0.089,-0.057 0.127,-0.093 0.121,-0.116 0.236,-0.237 0.359,-0.352 0.084,-0.078 0.175,-0.149 0.263,-0.223 0.18,-0.153 0.352,-0.318 0.583,-0.397 0.059,-0.02 0.115,-0.054 0.165,-0.091 0.106,-0.079 0.202,-0.17 0.31,-0.244 0.099,-0.068 0.202,-0.144 0.314,-0.178 0.323,-0.095 0.592,-0.266 0.818,-0.512 0.021,-0.022 0.047,-0.046 0.076,-0.054 0.335,-0.095 0.637,-0.304 1.002,-0.305 0.05,0 0.1,-0.031 0.15,-0.047 0.241,-0.078 0.485,-0.135 0.743,-0.113 0.125,0.011 0.252,0.006 0.378,0.001 0.045,-0.002 0.092,-0.02 0.132,-0.041 0.178,-0.093 0.364,-0.161 0.565,-0.167 0.238,-0.008 0.475,-0.005 0.712,-0.006 0.132,0 0.26,-10e-4 0.388,-0.053 0.085,-0.034 0.186,-0.037 0.28,-0.038 0.506,-0.003 1.013,-0.003 1.519,10e-4 0.083,0 0.168,0.016 0.247,0.04 0.131,0.039 0.259,0.089 0.387,0.138 0.239,0.091 0.482,0.135 0.74,0.105 0.107,-0.013 0.221,0.002 0.329,0.021 0.233,0.04 0.465,0.084 0.695,0.138 0.126,0.03 0.26,0.063 0.367,0.131 0.199,0.127 0.376,0.287 0.613,0.346 0.043,0.011 0.081,0.049 0.114,0.082 0.08,0.08 0.173,0.133 0.281,0.168 0.08,0.026 0.155,0.066 0.228,0.107 0.25,0.142 0.474,0.328 0.744,0.44 0.094,0.039 0.178,0.089 0.285,0.062 0.022,-0.006 0.055,0 0.074,0.014 0.105,0.078 0.211,0.157 0.31,0.242 0.1,0.085 0.189,0.183 0.291,0.265 0.179,0.146 0.375,0.273 0.546,0.428 0.229,0.207 0.443,0.432 0.661,0.652 0.07,0.071 0.132,0.15 0.198,0.225 0.183,0.208 0.403,0.388 0.489,0.668 0.011,0.034 0.036,0.064 0.057,0.095 0.127,0.181 0.244,0.367 0.296,0.587 0.013,0.055 0.041,0.112 0.078,0.154 0.183,0.208 0.292,0.46 0.419,0.702 0.046,0.088 0.077,0.184 0.115,0.276 0.085,0.204 0.169,0.407 0.256,0.61 0.035,0.082 0.072,0.163 0.116,0.24 0.084,0.148 0.157,0.294 0.168,0.471 0.007,0.096 0.046,0.194 0.088,0.283 0.08,0.167 0.158,0.339 0.172,0.522 0.027,0.346 0.195,0.667 0.175,1.02 -0.001,0.025 0.016,0.05 0.022,0.076 0.033,0.148 0.073,0.296 0.098,0.446 0.022,0.134 0.013,0.275 0.045,0.406 0.058,0.243 0.083,0.485 0.073,0.735 -0.004,0.097 0.017,0.201 0.052,0.292 0.035,0.091 0.057,0.178 0.044,0.275 -0.007,0.057 0.002,0.116 -0.001,0.174 -0.004,0.131 0.004,0.265 -0.02,0.392 -0.051,0.268 -0.117,0.533 -0.18,0.799 -0.028,0.117 -0.06,0.234 -0.094,0.35 -0.068,0.237 -0.142,0.472 -0.208,0.71 -0.066,0.238 -0.118,0.48 -0.193,0.715 -0.041,0.128 -0.068,0.252 -0.059,0.386 0.004,0.057 -0.002,0.117 -0.018,0.172 C 20.285,0.09 20.218,0.295 20.153,0.5 20.118,0.61 20.085,0.72 20.045,0.829 19.959,1.06 19.878,1.294 19.778,1.52 c -0.082,0.188 -0.179,0.369 -0.283,0.546 -0.099,0.167 -0.214,0.325 -0.323,0.486 -0.047,0.07 -0.087,0.147 -0.145,0.206 -0.192,0.193 -0.401,0.371 -0.481,0.647 -0.003,0.009 -0.012,0.017 -0.017,0.026 -0.121,0.216 -0.341,0.342 -0.486,0.537 -0.009,0.012 -0.025,0.021 -0.04,0.025 -0.162,0.037 -0.281,0.133 -0.38,0.264 -0.031,0.041 -0.079,0.068 -0.12,0.102 -0.166,0.137 -0.339,0.268 -0.498,0.414 -0.322,0.296 -0.637,0.6 -0.953,0.903 -0.129,0.123 -0.28,0.202 -0.448,0.257 -0.058,0.019 -0.117,0.049 -0.162,0.088 -0.122,0.105 -0.255,0.161 -0.42,0.148 -0.063,-0.005 -0.133,0.019 -0.193,0.045 -0.087,0.037 -0.164,0.097 -0.251,0.129 -0.14,0.052 -0.27,0.109 -0.375,0.22 -0.096,0.101 -0.206,0.179 -0.359,0.172 -0.048,-0.002 -0.1,0.027 -0.147,0.049 C 13.535,6.86 13.374,6.926 13.185,6.918 12.949,6.908 12.711,6.921 12.474,6.929 12.412,6.931 12.349,6.945 12.289,6.958 12.223,6.973 12.155,6.988 12.093,7.014 11.934,7.08 11.756,7.091 11.609,7.194 11.502,7.268 11.382,7.298 11.25,7.292 11.108,7.284 10.965,7.287 10.823,7.289 10.732,7.29 10.649,7.278 10.566,7.23 10.515,7.2 10.446,7.194 10.384,7.194 10.047,7.19 9.709,7.189 9.372,7.191 9.117,7.192 8.888,7.072 8.64,7.039 8.625,7.037 8.612,7.026 8.597,7.019 8.345,6.9 8.093,6.782 7.842,6.662 7.804,6.644 7.773,6.614 7.735,6.595 7.662,6.557 7.588,6.519 7.512,6.489 7.317,6.411 7.109,6.358 6.927,6.258 6.662,6.114 6.383,6.011 6.108,5.893 5.863,5.787 5.611,5.69 5.381,5.556 5.125,5.406 4.867,5.272 4.579,5.203 4.503,5.185 4.449,5.15 4.394,5.096 4.28,4.987 4.165,4.877 4.034,4.79 3.905,4.705 3.776,4.608 3.615,4.577 3.577,4.569 3.541,4.538 3.509,4.511 3.432,4.447 3.361,4.376 3.284,4.313 3.166,4.217 3.046,4.124 2.926,4.031 2.719,3.871 2.496,3.733 2.321,3.529 2.21,3.4 2.101,3.26 1.939,3.18 1.87,3.146 1.817,3.081 1.755,3.032 1.608,2.915 1.498,2.752 1.311,2.684 1.286,2.675 1.265,2.642 1.252,2.616 1.125,2.361 1.01,2.101 0.873,1.852 0.594,1.347 0.389,0.814 0.234,0.26 0.197,0.13 0.137,0.027 0,0 m 10.337,-21.604 c -0.079,0.154 -0.172,0.292 -0.163,0.462 0.004,0.079 0.001,0.158 0.001,0.238 0,0.026 0.01,0.058 -0.002,0.078 -0.084,0.147 -0.071,0.321 -0.134,0.474 -0.01,0.024 -0.023,0.048 -0.027,0.074 -0.036,0.228 -0.141,0.44 -0.183,0.662 -0.041,0.22 -0.148,0.426 -0.139,0.659 0.003,0.09 -0.047,0.182 -0.072,0.273 -0.054,0.192 -0.117,0.381 -0.161,0.575 -0.047,0.21 -0.068,0.426 -0.116,0.635 -0.062,0.272 -0.139,0.54 -0.21,0.81 -0.018,0.068 -0.066,0.084 -0.131,0.084 -0.343,0.003 -0.685,0.008 -1.027,0.014 -0.063,0.002 -0.134,10e-4 -0.185,0.03 -0.157,0.087 -0.327,0.063 -0.493,0.085 -0.081,0.01 -0.168,0.025 -0.241,0.061 -0.18,0.087 -0.367,0.129 -0.565,0.12 -0.266,-0.012 -0.505,0.055 -0.735,0.193 -0.252,0.151 -0.52,0.276 -0.781,0.412 -0.042,0.022 -0.084,0.044 -0.124,0.07 -0.139,0.092 -0.273,0.193 -0.418,0.276 -0.099,0.057 -0.215,0.083 -0.317,0.135 -0.163,0.084 -0.333,0.163 -0.429,0.335 -0.007,0.013 -0.018,0.03 -0.031,0.034 -0.16,0.054 -0.245,0.195 -0.359,0.302 -0.019,0.018 -0.037,0.04 -0.06,0.051 -0.364,0.172 -0.624,0.478 -0.932,0.722 -0.136,0.107 -0.256,0.234 -0.388,0.345 -0.08,0.068 -0.17,0.124 -0.257,0.183 -0.02,0.013 -0.055,0.026 -0.073,0.018 -0.094,-0.046 -0.206,-0.08 -0.272,-0.154 -0.128,-0.142 -0.298,-0.215 -0.445,-0.324 -0.155,-0.116 -0.319,-0.221 -0.48,-0.33 -0.078,-0.053 -0.153,-0.115 -0.259,-0.092 -0.024,0.005 -0.058,0.003 -0.076,-0.011 -0.111,-0.084 -0.221,-0.171 -0.329,-0.259 -0.188,-0.151 -0.374,-0.306 -0.565,-0.453 -0.034,-0.027 -0.089,-0.035 -0.135,-0.037 -0.136,-0.005 -0.227,0.13 -0.164,0.251 0.037,0.071 0.084,0.129 0.057,0.219 -0.007,0.026 0.029,0.08 0.059,0.099 0.159,0.097 0.232,0.261 0.308,0.413 0.116,0.233 0.268,0.439 0.43,0.639 0.119,0.147 0.25,0.284 0.375,0.427 0.017,0.019 0.04,0.041 0.043,0.064 0.037,0.272 0.234,0.479 0.299,0.765 -0.021,0.031 -0.056,0.083 -0.092,0.133 -0.177,0.243 -0.355,0.484 -0.531,0.727 -0.022,0.029 -0.032,0.066 -0.049,0.099 -0.111,0.22 -0.234,0.429 -0.411,0.607 -0.087,0.088 -0.146,0.206 -0.21,0.314 -0.053,0.091 -0.099,0.186 -0.142,0.282 -0.025,0.057 -0.056,0.119 -0.055,0.178 0,0.1 -0.025,0.187 -0.075,0.269 -0.111,0.178 -0.119,0.377 -0.121,0.579 0,0.061 -0.016,0.123 -0.028,0.184 -0.009,0.051 -0.02,0.102 -0.034,0.153 -0.065,0.238 -0.13,0.476 -0.196,0.713 -0.01,0.035 -0.041,0.067 -0.044,0.101 -0.016,0.23 -0.132,0.442 -0.125,0.677 10e-4,0.031 0.003,0.068 -0.013,0.091 -0.071,0.103 -0.069,0.218 -0.073,0.334 -0.004,0.104 0.007,0.211 -0.053,0.306 -0.008,0.012 -0.007,0.031 -0.007,0.046 -0.003,0.253 -0.046,0.5 -0.094,0.748 -0.006,0.03 0.005,0.072 -0.012,0.091 -0.097,0.113 -0.074,0.248 -0.079,0.378 -0.004,0.074 0.006,0.149 -0.006,0.221 -0.014,0.076 -0.048,0.149 -0.076,0.233 -0.146,0.004 -0.274,0.054 -0.377,0.161 -0.017,0.018 -0.046,0.028 -0.071,0.033 -0.178,0.038 -0.359,0.068 -0.535,0.112 -0.106,0.027 -0.204,0.083 -0.309,0.113 -0.19,0.056 -0.384,0.103 -0.577,0.153 -0.05,0.013 -0.101,0.025 -0.153,0.036 -0.389,0.082 -0.774,0.195 -1.179,0.153 -0.05,-0.006 -0.101,-0.001 -0.16,-0.001 0.002,0.111 0.066,0.164 0.138,0.209 0.093,0.057 0.196,0.073 0.304,0.067 0.117,-0.006 0.227,0.015 0.339,0.057 0.081,0.03 0.175,0.032 0.264,0.037 0.1,0.006 0.2,0 0.3,10e-4 0.037,0.001 0.075,-10e-4 0.11,0.009 0.165,0.049 0.326,0.114 0.493,0.149 0.192,0.041 0.368,0.119 0.549,0.188 0.096,0.037 0.164,0.125 0.278,0.135 0.108,0.01 0.217,0.036 0.321,0.067 0.11,0.032 0.224,0.065 0.32,0.123 0.094,0.058 0.181,0.076 0.285,0.033 0.078,0.14 0.141,0.273 0.127,0.436 -0.009,0.104 0.007,0.21 0.002,0.316 -0.004,0.119 0.013,0.23 0.083,0.33 0.006,0.009 0.012,0.019 0.014,0.028 0.04,0.173 0.079,0.346 0.119,0.519 0.01,0.046 0.019,0.093 0.037,0.136 0.078,0.195 0.163,0.387 0.24,0.582 0.096,0.243 0.152,0.498 0.209,0.753 0.007,0.03 0.014,0.063 0.03,0.09 0.174,0.284 0.222,0.622 0.396,0.907 0.063,0.102 0.091,0.225 0.144,0.333 0.118,0.241 0.239,0.48 0.362,0.718 C 0.061,2.571 0.11,2.673 0.21,2.745 0.251,2.775 0.269,2.857 0.271,2.916 0.277,3.073 0.247,3.234 0.27,3.389 0.299,3.597 0.182,3.727 0.082,3.881 -0.098,4.16 -0.267,4.446 -0.421,4.74 c -0.165,0.314 -0.331,0.623 -0.58,0.881 -0.051,0.052 -0.092,0.115 -0.133,0.176 -0.22,0.335 -0.454,0.659 -0.715,0.964 -0.102,0.119 -0.178,0.26 -0.265,0.392 -0.161,0.246 -0.323,0.493 -0.482,0.741 -0.03,0.047 -0.047,0.103 -0.076,0.168 0.144,0.005 0.259,0.014 0.379,-0.081 0.164,-0.129 0.357,-0.222 0.535,-0.334 0.071,-0.044 0.142,-0.092 0.201,-0.15 0.195,-0.192 0.379,-0.397 0.619,-0.537 0.049,-0.029 0.084,-0.081 0.13,-0.115 0.067,-0.05 0.133,-0.111 0.21,-0.137 0.146,-0.05 0.25,-0.146 0.36,-0.246 C -0.117,6.354 0.024,6.269 0.155,6.171 0.31,6.054 0.472,5.945 0.616,5.815 0.879,5.579 1.179,5.415 1.512,5.303 1.589,5.277 1.66,5.224 1.728,5.176 1.902,5.054 2.074,5.118 2.123,5.327 2.157,5.477 2.255,5.55 2.409,5.543 2.554,5.536 2.675,5.601 2.79,5.676 3.033,5.834 3.275,5.994 3.517,6.153 3.601,6.207 3.685,6.262 3.771,6.313 3.888,6.381 4.005,6.437 4.14,6.476 4.426,6.558 4.704,6.668 4.968,6.816 5.233,6.965 5.509,7.092 5.799,7.19 5.991,7.256 6.167,7.368 6.353,7.452 6.539,7.537 6.727,7.618 6.918,7.69 7.169,7.785 7.422,7.864 7.662,7.99 7.841,8.084 8.043,8.134 8.236,8.2 8.33,8.233 8.428,8.256 8.524,8.284 8.73,8.345 8.936,8.408 9.142,8.468 9.235,8.495 9.286,8.547 9.284,8.649 9.283,8.69 9.285,8.737 9.303,8.773 9.385,8.936 9.385,9.11 9.375,9.284 9.363,9.512 9.456,9.717 9.5,9.933 c 0.082,0.402 0.167,0.804 0.247,1.207 0.012,0.061 0.007,0.126 0.012,0.188 0.005,0.058 -0.005,0.127 0.022,0.171 0.098,0.156 0.064,0.326 0.072,0.491 0.005,0.095 -0.002,0.187 0.064,0.271 0.025,0.032 0.014,0.09 0.024,0.136 0.012,0.053 0.029,0.104 0.05,0.177 0.089,-0.078 0.092,-0.166 0.113,-0.242 0.065,-0.233 0.127,-0.467 0.182,-0.702 0.031,-0.138 0.048,-0.28 0.069,-0.42 0.021,-0.14 0.032,-0.282 0.06,-0.421 0.013,-0.07 0.042,-0.144 0.083,-0.201 0.118,-0.162 0.159,-0.339 0.128,-0.534 C 10.614,9.98 10.622,9.917 10.655,9.844 10.693,9.761 10.696,9.661 10.704,9.568 10.712,9.479 10.717,9.396 10.761,9.31 10.8,9.236 10.8,9.138 10.802,9.049 10.806,8.892 10.793,8.732 10.939,8.577 c 0.08,0 0.193,0.005 0.306,-10e-4 0.078,-0.005 0.16,-0.011 0.231,-0.04 0.134,-0.055 0.272,-0.068 0.414,-0.084 0.187,-0.022 0.37,-0.072 0.555,-0.11 0.082,-0.016 0.164,-0.044 0.246,-0.048 0.153,-0.007 0.307,0.014 0.458,-0.002 0.249,-0.027 0.5,-0.039 0.733,-0.163 0.147,-0.079 0.295,-0.155 0.438,-0.243 0.164,-0.101 0.355,-0.157 0.53,-0.24 0.098,-0.047 0.192,-0.106 0.281,-0.169 0.162,-0.116 0.309,-0.247 0.517,-0.29 0.146,-0.03 0.285,-0.105 0.422,-0.17 0.2,-0.094 0.396,-0.195 0.591,-0.298 0.059,-0.032 0.112,-0.078 0.164,-0.122 0.136,-0.116 0.263,-0.243 0.407,-0.347 0.109,-0.079 0.24,-0.127 0.36,-0.19 0.079,-0.041 0.166,-0.073 0.234,-0.128 0.211,-0.173 0.414,-0.356 0.622,-0.533 0.032,-0.027 0.07,-0.047 0.125,-0.083 0.086,0.048 0.183,0.096 0.273,0.155 0.133,0.086 0.253,0.195 0.392,0.266 0.167,0.086 0.342,0.155 0.506,0.249 0.062,0.036 0.134,0.023 0.193,-0.023 C 20,5.915 20.017,5.853 19.978,5.783 19.846,5.544 19.713,5.305 19.576,5.068 19.519,4.969 19.453,4.875 19.392,4.777 19.32,4.664 19.307,4.538 19.342,4.413 c 0.068,-0.24 0.184,-0.46 0.333,-0.658 0.183,-0.244 0.384,-0.475 0.571,-0.716 0.071,-0.091 0.133,-0.19 0.184,-0.293 0.097,-0.198 0.258,-0.345 0.391,-0.514 0.156,-0.198 0.271,-0.41 0.31,-0.661 0.005,-0.036 0.02,-0.07 0.032,-0.105 0.092,-0.274 0.183,-0.547 0.277,-0.82 0.083,-0.238 0.171,-0.475 0.254,-0.713 0.051,-0.144 0.121,-0.285 0.141,-0.433 0.023,-0.174 0.109,-0.317 0.166,-0.474 0.055,-0.153 0.105,-0.308 0.152,-0.464 0.053,-0.176 0.094,-0.355 0.151,-0.53 0.06,-0.185 0.135,-0.363 0.156,-0.56 0.023,-0.206 0.127,-0.299 0.331,-0.295 0.148,0.002 0.275,-0.065 0.381,-0.136 0.187,-0.125 0.379,-0.163 0.594,-0.144 0.1,0.008 0.201,0.005 0.301,0.001 0.045,-0.002 0.105,-0.005 0.133,-0.033 0.071,-0.069 0.155,-0.067 0.237,-0.057 0.199,0.025 0.386,-0.04 0.575,-0.076 0.126,-0.023 0.242,-0.105 0.392,-0.175 C 25.255,-3.493 25.13,-3.528 25.011,-3.578 24.876,-3.635 24.742,-3.699 24.615,-3.773 24.36,-3.921 24.111,-4.08 23.856,-4.227 23.784,-4.268 23.7,-4.299 23.618,-4.309 23.397,-4.336 23.211,-4.444 23.02,-4.544 22.964,-4.574 22.91,-4.608 22.852,-4.634 22.723,-4.691 22.62,-4.767 22.576,-4.912 22.559,-4.97 22.512,-5.019 22.481,-5.073 22.434,-5.155 22.358,-5.234 22.347,-5.321 22.318,-5.549 22.25,-5.77 22.234,-6.001 22.225,-6.14 22.176,-6.277 22.139,-6.413 22.061,-6.702 21.952,-6.981 21.908,-7.281 21.887,-7.419 21.823,-7.55 21.78,-7.685 21.72,-7.875 21.645,-8.063 21.607,-8.258 21.572,-8.432 21.502,-8.588 21.439,-8.749 21.423,-8.788 21.4,-8.826 21.395,-8.867 21.343,-9.237 21.146,-9.555 21.023,-9.9 c -0.097,-0.274 -0.231,-0.53 -0.385,-0.775 -0.003,-0.005 -0.006,-0.009 -0.007,-0.014 -0.064,-0.257 -0.245,-0.45 -0.37,-0.673 -0.016,-0.028 -0.032,-0.059 -0.056,-0.077 -0.144,-0.102 -0.199,-0.268 -0.297,-0.404 -0.054,-0.074 -0.062,-0.153 -0.017,-0.237 0.04,-0.075 0.073,-0.152 0.11,-0.228 0.106,-0.223 0.211,-0.447 0.32,-0.669 0.022,-0.046 0.057,-0.086 0.085,-0.13 0.04,-0.065 0.08,-0.131 0.123,-0.202 -0.054,-0.036 -0.093,-0.061 -0.131,-0.088 -0.092,-0.066 -0.181,-0.08 -0.293,-0.029 -0.224,0.102 -0.455,0.19 -0.686,0.277 -0.067,0.026 -0.142,0.034 -0.214,0.042 -0.149,0.017 -0.304,-0.034 -0.45,0.045 -0.019,0.01 -0.087,-0.023 -0.098,-0.051 -0.051,-0.121 -0.149,-0.184 -0.252,-0.251 -0.065,-0.042 -0.127,-0.101 -0.166,-0.167 -0.131,-0.221 -0.338,-0.322 -0.572,-0.389 -0.143,-0.041 -0.278,-0.092 -0.377,-0.214 -0.032,-0.039 -0.086,-0.059 -0.129,-0.089 -0.064,-0.045 -0.128,-0.091 -0.19,-0.139 -0.025,-0.019 -0.042,-0.049 -0.069,-0.064 -0.212,-0.113 -0.359,-0.308 -0.555,-0.44 -0.134,-0.091 -0.271,-0.177 -0.409,-0.262 -0.111,-0.069 -0.221,-0.141 -0.338,-0.199 -0.078,-0.038 -0.169,-0.05 -0.252,-0.081 -0.118,-0.042 -0.234,-0.093 -0.351,-0.137 -0.315,-0.116 -0.602,-0.298 -0.932,-0.382 -0.284,-0.072 -0.557,-0.185 -0.838,-0.271 -0.12,-0.036 -0.246,-0.064 -0.37,-0.069 -0.109,-0.004 -0.214,-0.011 -0.303,-0.07 -0.188,-0.124 -0.398,-0.118 -0.609,-0.122 -0.158,-0.003 -0.315,-0.011 -0.444,-0.126 -0.054,-0.049 -0.093,-0.096 -0.091,-0.173 10e-4,-0.041 -0.01,-0.083 -0.022,-0.122 -0.055,-0.186 -0.112,-0.372 -0.17,-0.557 -0.009,-0.03 -0.017,-0.066 -0.038,-0.084 -0.096,-0.082 -0.095,-0.193 -0.107,-0.303 -0.015,-0.13 -0.037,-0.259 -0.056,-0.389 -0.007,-0.041 -0.019,-0.082 -0.021,-0.124 -0.027,-0.449 -0.126,-0.885 -0.24,-1.319 -0.023,-0.086 -0.027,-0.177 -0.048,-0.264 -0.04,-0.168 -0.088,-0.335 -0.129,-0.504 -0.024,-0.101 -0.043,-0.205 -0.062,-0.308 -0.012,-0.067 -0.021,-0.135 -0.032,-0.202 -0.022,-0.135 -0.041,-0.27 -0.069,-0.403 -0.019,-0.091 -0.052,-0.178 -0.079,-0.267"
             style="fill:#fff;fill-opacity:1;fill-rule:nonzero;stroke:none"
             id="path5789"
             inkscape:connector-curvature="0" />
        </g>
        <g
           id="g5791"
           transform="translate(278.0326,270.3331)">
          <path
             d="m 0,0 c -0.002,0.009 -0.003,0.017 -0.005,0.026 -0.088,-0.025 -0.176,-0.049 -0.263,-0.075 -0.117,-0.035 -0.233,-0.07 -0.349,-0.107 -0.118,-0.037 -0.238,-0.072 -0.352,-0.118 -0.09,-0.037 -0.172,-0.093 -0.261,-0.133 -0.067,-0.03 -0.102,-0.08 -0.085,-0.145 0.018,-0.067 0.057,-0.128 0.09,-0.19 0.087,-0.165 0.201,-0.311 0.365,-0.4 0.169,-0.091 0.35,-0.16 0.529,-0.232 0.064,-0.025 0.136,-0.032 0.205,-0.044 0.15,-0.027 0.299,-0.064 0.45,-0.075 0.273,-0.02 0.54,0.035 0.811,0.071 0.223,0.03 0.413,0.125 0.61,0.208 0.22,0.092 0.401,0.247 0.582,0.401 0.147,0.126 0.137,0.357 -0.064,0.452 C 2.16,-0.312 2.051,-0.276 1.949,-0.225 1.745,-0.121 1.527,-0.05 1.302,-0.037 0.869,-0.012 0.434,-0.011 0,0 m -1.25,-11.89 c 0.012,0.164 0.162,0.184 0.253,0.256 0.203,0.16 0.42,0.303 0.636,0.445 0.08,0.053 0.174,0.085 0.262,0.126 0.096,0.047 0.191,0.096 0.289,0.14 0.144,0.063 0.289,0.128 0.438,0.183 0.072,0.026 0.152,0.032 0.229,0.048 0.196,0.041 0.39,0.103 0.587,0.118 0.398,0.03 0.797,0.046 1.195,0.044 0.148,-0.001 0.295,-0.075 0.444,-0.108 0.106,-0.023 0.215,-0.043 0.323,-0.048 0.204,-0.008 0.389,-0.063 0.571,-0.158 0.11,-0.057 0.247,-0.061 0.37,-0.097 0.149,-0.043 0.298,-0.087 0.442,-0.145 0.162,-0.066 0.315,-0.152 0.477,-0.218 0.044,-0.018 0.116,-0.012 0.155,0.014 0.1,0.064 0.148,-0.023 0.2,-0.065 0.026,-0.021 0.03,-0.104 0.01,-0.141 -0.098,-0.188 -0.205,-0.371 -0.315,-0.552 -0.047,-0.078 -0.101,-0.154 -0.164,-0.219 -0.205,-0.208 -0.409,-0.418 -0.626,-0.612 -0.134,-0.119 -0.294,-0.211 -0.442,-0.315 -0.083,-0.058 -0.163,-0.123 -0.251,-0.175 -0.236,-0.139 -0.467,-0.294 -0.717,-0.404 -0.304,-0.135 -0.623,-0.24 -0.942,-0.337 -0.204,-0.062 -0.42,-0.088 -0.631,-0.13 -0.213,-0.043 -0.424,-0.112 -0.639,-0.124 -0.395,-0.023 -0.792,-0.014 -1.188,-0.015 -0.093,-0.001 -0.186,0.006 -0.278,0.015 -0.112,0.012 -0.224,0.027 -0.335,0.046 -0.208,0.037 -0.414,0.095 -0.624,0.113 -0.299,0.025 -0.557,0.168 -0.83,0.265 -0.196,0.07 -0.385,0.162 -0.551,0.302 -0.147,0.124 -0.326,0.209 -0.491,0.311 -0.236,0.147 -0.478,0.286 -0.707,0.444 -0.142,0.099 -0.276,0.215 -0.391,0.344 -0.073,0.081 -0.109,0.197 -0.152,0.302 -0.009,0.022 0.016,0.066 0.037,0.09 0.216,0.24 0.42,0.492 0.654,0.712 0.203,0.191 0.414,0.377 0.665,0.511 0.123,0.065 0.221,0.174 0.336,0.254 0.188,0.13 0.385,0.246 0.57,0.379 0.208,0.149 0.438,0.254 0.663,0.369 0.211,0.108 0.414,0.232 0.626,0.336 0.127,0.063 0.265,0.106 0.4,0.154 0.14,0.048 0.279,0.111 0.424,0.132 0.225,0.034 0.306,0.162 0.312,0.37 0.002,0.078 0.024,0.156 0.025,0.234 0.004,0.276 -0.024,0.555 0.009,0.828 0.069,0.574 0.023,1.148 0.03,1.722 0.006,0.44 -0.022,0.88 -0.038,1.32 -0.001,0.024 -0.031,0.066 -0.053,0.07 -0.179,0.033 -0.361,0.051 -0.539,0.09 -0.181,0.039 -0.371,0.046 -0.54,0.144 -0.061,0.036 -0.142,0.036 -0.213,0.059 -0.143,0.046 -0.287,0.092 -0.428,0.147 -0.232,0.091 -0.462,0.187 -0.691,0.285 -0.046,0.02 -0.084,0.059 -0.124,0.091 -0.105,0.082 -0.206,0.169 -0.314,0.247 -0.077,0.055 -0.148,0.033 -0.224,-0.025 -0.237,-0.18 -0.459,-0.377 -0.671,-0.587 C -3.852,-4.429 -3.989,-4.541 -4.119,-4.661 -4.225,-4.76 -4.25,-4.895 -4.277,-5.03 -4.299,-5.143 -4.338,-5.253 -4.369,-5.365 -4.395,-5.458 -4.428,-5.55 -4.443,-5.645 -4.464,-5.786 -4.464,-5.931 -4.488,-6.071 -4.517,-6.238 -4.562,-6.403 -4.6,-6.569 -4.605,-6.592 -4.607,-6.617 -4.609,-6.64 -4.624,-6.823 -4.637,-7.006 -4.653,-7.189 -4.665,-7.334 -4.672,-7.48 -4.697,-7.623 c -0.021,-0.12 -0.072,-0.235 -0.098,-0.354 -0.029,-0.131 -0.08,-0.27 -0.059,-0.396 0.036,-0.22 0.065,-0.446 0.175,-0.651 0.091,-0.171 0.158,-0.356 0.237,-0.534 0.01,-0.021 0.023,-0.042 0.038,-0.059 0.108,-0.13 0.09,-0.225 -0.058,-0.318 -0.025,-0.016 -0.064,-0.034 -0.069,-0.058 -0.032,-0.141 -0.133,-0.094 -0.186,-0.049 -0.114,0.098 -0.209,0.219 -0.312,0.331 -0.021,0.023 -0.04,0.048 -0.062,0.069 -0.237,0.219 -0.427,0.476 -0.571,0.761 -0.099,0.197 -0.165,0.41 -0.244,0.617 -0.038,0.098 -0.073,0.197 -0.109,0.295 -0.004,0.01 -0.011,0.019 -0.012,0.029 -0.045,0.351 -0.061,0.704 -0.034,1.057 0.01,0.141 0.009,0.284 0.035,0.421 0.035,0.186 0.094,0.368 0.139,0.552 0.026,0.104 0.05,0.209 0.066,0.315 0.036,0.235 0.058,0.473 0.14,0.7 0.035,0.096 0.046,0.201 0.07,0.302 0.031,0.136 0.064,0.271 0.097,0.407 0.024,0.095 0.044,0.19 0.073,0.284 0.017,0.056 0.036,0.118 0.073,0.161 0.076,0.089 0.167,0.165 0.246,0.25 0.053,0.057 0.088,0.132 0.145,0.183 0.145,0.131 0.299,0.251 0.446,0.38 0.09,0.079 0.172,0.167 0.261,0.247 0.043,0.038 0.095,0.064 0.139,0.1 0.068,0.054 0.068,0.113 0.023,0.19 -0.135,0.23 -0.265,0.464 -0.393,0.699 -0.021,0.038 -0.022,0.086 -0.037,0.128 -0.029,0.083 -0.077,0.099 -0.148,0.05 -0.177,-0.12 -0.357,-0.235 -0.527,-0.364 -0.076,-0.058 -0.129,-0.144 -0.193,-0.217 -0.212,-0.243 -0.426,-0.485 -0.636,-0.73 -0.124,-0.145 -0.251,-0.289 -0.357,-0.447 -0.064,-0.095 -0.093,-0.215 -0.133,-0.326 -0.049,-0.137 -0.094,-0.277 -0.139,-0.416 -0.04,-0.124 -0.075,-0.251 -0.117,-0.375 -0.048,-0.139 -0.103,-0.276 -0.15,-0.416 -0.063,-0.187 -0.13,-0.374 -0.181,-0.565 -0.072,-0.269 -0.135,-0.541 -0.196,-0.812 -0.025,-0.11 -0.036,-0.222 -0.056,-0.332 -0.018,-0.101 -0.042,-0.2 -0.058,-0.301 -0.026,-0.159 -0.043,-0.319 -0.069,-0.478 -0.021,-0.126 -0.05,-0.251 -0.075,-0.377 -0.002,-0.014 -0.005,-0.028 -0.005,-0.041 0,-0.283 -0.028,-0.57 0.009,-0.848 0.037,-0.286 0.077,-0.576 0.192,-0.851 0.13,-0.309 0.222,-0.633 0.344,-0.946 0.054,-0.141 0.14,-0.27 0.211,-0.405 0.011,-0.02 0.02,-0.043 0.026,-0.065 0.026,-0.091 0.05,-0.183 0.074,-0.274 0.001,-0.003 0.005,-0.005 0.006,-0.008 0.023,-0.136 -0.111,-0.157 -0.173,-0.23 -0.039,-0.046 -0.093,-0.063 -0.149,-0.002 -0.156,0.172 -0.385,0.289 -0.466,0.516 -0.078,0.216 -0.236,0.354 -0.381,0.513 -0.101,0.11 -0.187,0.235 -0.269,0.36 -0.095,0.144 -0.186,0.292 -0.263,0.446 -0.053,0.109 -0.091,0.228 -0.114,0.347 -0.044,0.227 -0.067,0.458 -0.108,0.686 -0.028,0.154 -0.067,0.304 -0.064,0.464 0.004,0.178 -0.037,0.358 -0.029,0.535 0.009,0.221 0.045,0.442 0.073,0.662 0.024,0.19 0.051,0.38 0.083,0.57 0.017,0.102 0.048,0.201 0.072,0.302 0.005,0.02 0.014,0.041 0.012,0.061 -0.026,0.222 0.067,0.423 0.114,0.632 0.024,0.109 0.023,0.224 0.054,0.33 0.055,0.183 0.041,0.383 0.15,0.554 0.039,0.062 0.038,0.15 0.055,0.225 0.031,0.132 0.048,0.268 0.095,0.393 0.075,0.202 0.164,0.399 0.257,0.593 0.101,0.21 0.205,0.419 0.323,0.619 0.15,0.253 0.322,0.492 0.472,0.745 0.119,0.201 0.283,0.359 0.442,0.524 0.261,0.273 0.527,0.542 0.773,0.828 0.225,0.263 0.499,0.469 0.76,0.689 0.232,0.197 0.474,0.382 0.719,0.563 0.124,0.091 0.271,0.152 0.394,0.244 0.109,0.082 0.192,0.197 0.3,0.282 0.167,0.134 0.344,0.256 0.52,0.379 0.086,0.06 0.174,0.12 0.268,0.166 0.094,0.046 0.17,0.013 0.22,-0.077 C -2.573,1.805 -2.574,1.796 -2.57,1.792 -2.351,1.599 -2.535,1.443 -2.616,1.277 -2.735,1.033 -2.88,0.797 -2.961,0.541 c -0.09,-0.287 -0.193,-0.577 -0.191,-0.888 0,-0.094 -0.03,-0.188 -0.038,-0.282 -0.024,-0.29 0.087,-0.543 0.232,-0.78 0.234,-0.385 0.464,-0.776 0.731,-1.138 0.176,-0.239 0.397,-0.455 0.681,-0.582 0.189,-0.084 0.374,-0.179 0.567,-0.253 0.138,-0.053 0.288,-0.077 0.43,-0.121 0.137,-0.041 0.27,-0.091 0.405,-0.137 0.078,-0.027 0.155,-0.054 0.256,-0.088 0,0.119 -0.004,0.211 0,0.302 0.014,0.292 0.026,0.584 0.048,0.875 0.004,0.062 0.041,0.123 0.071,0.18 0.041,0.079 0.027,0.113 -0.061,0.123 -0.118,0.014 -0.239,0.019 -0.353,0.046 -0.131,0.031 -0.264,0.068 -0.383,0.128 -0.175,0.089 -0.36,0.177 -0.503,0.308 -0.194,0.179 -0.415,0.335 -0.547,0.584 -0.077,0.146 -0.232,0.246 -0.407,0.288 -0.03,0.007 -0.073,0.051 -0.072,0.076 0.006,0.114 0.012,0.231 0.042,0.34 0.041,0.153 0.084,0.31 0.16,0.446 0.14,0.25 0.294,0.493 0.461,0.724 0.17,0.236 0.358,0.46 0.549,0.68 0.131,0.15 0.266,0.304 0.426,0.42 0.174,0.127 0.377,0.213 0.57,0.313 C 0.128,2.113 0.168,2.104 0.173,2.093 0.184,2.068 0.191,2.028 0.178,2.011 0.111,1.92 0.042,1.83 -0.035,1.747 -0.188,1.582 -0.364,1.435 -0.497,1.255 -0.625,1.084 -0.711,0.882 -0.811,0.691 -0.83,0.654 -0.826,0.605 -0.836,0.539 c 0.102,0.023 0.187,0.043 0.272,0.06 0.137,0.027 0.274,0.06 0.412,0.075 0.217,0.024 0.436,0.037 0.654,0.049 0.257,0.014 0.517,0.054 0.77,0.025 C 1.509,0.72 1.763,0.767 1.987,0.638 2.054,0.599 2.127,0.571 2.2,0.543 2.229,0.532 2.263,0.534 2.295,0.531 c 10e-4,0.033 0.012,0.07 0,0.098 C 2.257,0.716 2.206,0.797 2.167,0.884 2.088,1.062 2.038,1.26 1.93,1.417 1.804,1.601 1.632,1.754 1.471,1.913 1.397,1.986 1.376,2.029 1.441,2.09 1.463,2.111 1.519,2.128 1.538,2.115 1.701,2.008 1.884,1.931 2.014,1.776 2.084,1.693 2.187,1.637 2.257,1.554 2.398,1.387 2.527,1.211 2.66,1.038 2.71,0.974 2.758,0.908 2.808,0.843 3.004,0.589 3.132,0.299 3.235,-0.001 3.297,-0.18 3.336,-0.368 3.376,-0.553 3.399,-0.665 3.38,-0.755 3.262,-0.832 3.138,-0.914 3.024,-1.017 2.947,-1.162 2.782,-1.471 2.518,-1.689 2.227,-1.875 2.092,-1.962 1.945,-2.011 1.787,-2.039 1.705,-2.054 1.628,-2.097 1.549,-2.129 1.533,-2.135 1.519,-2.155 1.505,-2.155 1.354,-2.145 1.353,-2.237 1.36,-2.35 1.38,-2.667 1.397,-2.983 1.408,-3.3 c 0.007,-0.203 0.001,-0.21 0.198,-0.198 0.165,0.01 0.324,0.047 0.47,0.138 0.075,0.047 0.171,0.062 0.253,0.1 0.294,0.135 0.591,0.265 0.877,0.414 0.176,0.092 0.343,0.202 0.484,0.35 0.12,0.126 0.272,0.223 0.384,0.355 0.144,0.171 0.264,0.364 0.392,0.548 0.061,0.088 0.129,0.174 0.176,0.27 0.084,0.17 0.161,0.344 0.226,0.522 0.033,0.091 0.042,0.192 0.049,0.289 0.017,0.227 0.038,0.455 0.034,0.682 C 4.948,0.346 4.91,0.522 4.885,0.697 4.872,0.784 4.862,0.872 4.837,0.956 4.794,1.098 4.728,1.235 4.692,1.379 4.653,1.528 4.6,1.68 4.667,1.84 4.745,2.025 4.906,2.104 5.097,2.041 5.161,2.019 5.224,1.99 5.29,1.974 5.401,1.948 5.487,1.887 5.567,1.809 5.602,1.775 5.663,1.751 5.712,1.751 5.902,1.755 6.062,1.704 6.173,1.538 6.19,1.514 6.22,1.499 6.244,1.48 6.35,1.395 6.458,1.313 6.561,1.226 6.655,1.146 6.747,1.063 6.835,0.977 6.886,0.927 6.931,0.87 6.974,0.812 7.153,0.568 7.387,0.386 7.617,0.194 c 0.256,-0.216 0.47,-0.481 0.707,-0.72 0.148,-0.148 0.256,-0.32 0.363,-0.497 0.095,-0.157 0.218,-0.297 0.321,-0.45 0.153,-0.229 0.33,-0.448 0.38,-0.733 0.005,-0.029 0.027,-0.054 0.038,-0.083 0.056,-0.15 0.111,-0.301 0.168,-0.451 0.092,-0.246 0.19,-0.49 0.275,-0.739 0.046,-0.133 0.068,-0.274 0.102,-0.41 0.036,-0.144 0.073,-0.288 0.11,-0.432 0.002,-0.006 0.005,-0.013 0.005,-0.02 0.017,-0.193 0.035,-0.387 0.051,-0.581 0.016,-0.202 0.039,-0.404 0.041,-0.607 0.006,-0.445 -0.003,-0.891 0.002,-1.336 0.002,-0.192 0.035,-0.383 0.033,-0.574 -0.002,-0.278 -0.006,-0.558 -0.04,-0.833 -0.026,-0.213 -0.099,-0.42 -0.152,-0.629 C 10.007,-8.96 9.988,-9.017 9.976,-9.076 9.957,-9.168 9.95,-9.263 9.922,-9.352 9.889,-9.459 9.845,-9.564 9.793,-9.664 9.716,-9.815 9.631,-9.962 9.544,-10.108 9.513,-10.161 9.47,-10.207 9.432,-10.256 c -0.089,-0.114 -0.176,-0.23 -0.268,-0.341 -0.059,-0.071 -0.121,-0.142 -0.19,-0.202 -0.23,-0.199 -0.454,-0.408 -0.699,-0.586 -0.169,-0.122 -0.38,-0.126 -0.583,-0.073 -0.087,0.023 -0.096,0.078 -0.037,0.157 0.116,0.158 0.242,0.31 0.343,0.477 0.158,0.262 0.301,0.534 0.446,0.803 0.086,0.16 0.128,0.333 0.153,0.513 0.014,0.107 0.062,0.209 0.09,0.314 0.028,0.103 0.047,0.208 0.075,0.31 0.047,0.179 0.098,0.358 0.147,0.536 0.006,0.019 0.018,0.038 0.019,0.057 0.019,0.384 0.062,0.767 0.011,1.152 -0.042,0.327 -0.052,0.657 -0.097,0.983 -0.035,0.254 -0.083,0.505 -0.084,0.763 0,0.114 -0.018,0.23 -0.042,0.342 C 8.686,-4.91 8.638,-4.773 8.604,-4.633 8.581,-4.538 8.573,-4.44 8.551,-4.346 8.502,-4.143 8.446,-3.942 8.396,-3.74 8.375,-3.655 8.363,-3.568 8.341,-3.484 8.319,-3.397 8.293,-3.31 8.264,-3.225 8.225,-3.107 8.185,-2.989 8.139,-2.874 8.078,-2.718 7.995,-2.569 7.948,-2.409 7.875,-2.159 7.631,-2.066 7.493,-1.879 7.175,-1.792 6.989,-1.514 6.726,-1.347 6.604,-1.27 6.493,-1.174 6.369,-1.099 6.274,-1.04 6.226,-1.082 6.205,-1.194 6.158,-1.442 6.097,-1.687 6.047,-1.934 6.029,-2.022 6.022,-2.105 6.113,-2.175 6.24,-2.271 6.353,-2.388 6.476,-2.49 6.574,-2.571 6.691,-2.631 6.777,-2.721 6.931,-2.882 7.079,-3.05 7.206,-3.232 7.265,-3.318 7.28,-3.441 7.295,-3.55 7.331,-3.795 7.349,-4.044 7.385,-4.289 7.413,-4.482 7.44,-4.671 7.425,-4.869 7.412,-5.034 7.456,-5.203 7.46,-5.37 7.467,-5.674 7.488,-5.981 7.457,-6.281 7.424,-6.604 7.445,-6.928 7.409,-7.248 7.388,-7.442 7.296,-7.621 7.177,-7.791 7.042,-7.984 6.893,-8.16 6.72,-8.314 6.538,-8.474 6.346,-8.623 6.152,-8.768 5.967,-8.906 5.78,-9.043 5.582,-9.162 5.408,-9.267 5.217,-9.346 5.034,-9.437 4.983,-9.463 4.932,-9.491 4.885,-9.523 4.816,-9.571 4.756,-9.576 4.692,-9.513 c -0.038,0.037 -0.085,0.065 -0.13,0.095 -0.067,0.044 -0.07,0.125 0.007,0.209 0.166,0.181 0.336,0.36 0.507,0.538 0.106,0.11 0.225,0.209 0.322,0.327 0.108,0.131 0.199,0.277 0.294,0.418 0.015,0.021 0.014,0.051 0.02,0.077 0.043,0.205 0.021,0.408 0.011,0.615 C 5.7,-6.745 5.717,-6.254 5.71,-5.764 5.707,-5.569 5.68,-5.375 5.669,-5.18 5.653,-4.89 5.581,-4.626 5.358,-4.421 5.259,-4.33 5.17,-4.228 5.072,-4.137 4.985,-4.056 4.89,-3.983 4.801,-3.906 4.78,-3.888 4.764,-3.865 4.748,-3.842 4.533,-3.532 4.413,-3.584 4.206,-3.743 3.939,-3.948 3.644,-4.102 3.345,-4.243 3.127,-4.346 2.898,-4.434 2.665,-4.493 2.411,-4.558 2.17,-4.681 1.896,-4.674 1.782,-4.671 1.667,-4.7 1.551,-4.71 1.466,-4.718 1.444,-4.765 1.444,-4.843 1.444,-5.216 1.443,-5.589 1.437,-5.961 1.429,-6.417 1.419,-6.872 1.407,-7.327 1.397,-7.702 1.406,-8.08 1.365,-8.452 1.324,-8.813 1.33,-9.172 1.318,-9.533 1.311,-9.728 1.16,-9.868 0.968,-9.897 0.856,-9.913 0.749,-9.96 0.64,-9.992 c -0.126,-0.037 -0.254,-0.07 -0.379,-0.111 -0.08,-0.026 -0.155,-0.067 -0.233,-0.098 -0.094,-0.037 -0.189,-0.07 -0.284,-0.105 -0.165,-0.063 -0.334,-0.117 -0.494,-0.19 -0.262,-0.12 -0.519,-0.25 -0.776,-0.378 -0.188,-0.094 -0.378,-0.184 -0.557,-0.291 -0.212,-0.127 -0.422,-0.259 -0.616,-0.412 -0.213,-0.167 -0.409,-0.357 -0.607,-0.543 -0.05,-0.046 -0.05,-0.106 0.009,-0.161 0.202,-0.191 0.43,-0.346 0.672,-0.477 0.197,-0.108 0.413,-0.179 0.615,-0.277 0.2,-0.098 0.412,-0.138 0.629,-0.171 0.101,-0.016 0.196,-0.069 0.293,-0.104 0.016,-0.006 0.033,-0.01 0.05,-0.011 0.163,-0.016 0.33,-0.017 0.49,-0.05 0.349,-0.074 0.7,-0.027 1.049,-0.031 0.284,-0.004 0.568,0.022 0.852,0.04 0.115,0.007 0.231,0.019 0.344,0.042 0.155,0.033 0.309,0.072 0.459,0.122 0.283,0.093 0.572,0.176 0.843,0.298 0.369,0.166 0.718,0.374 1.015,0.657 0.064,0.061 0.139,0.11 0.207,0.167 0.095,0.079 0.132,0.154 -0.043,0.212 -0.207,0.069 -0.421,0.116 -0.631,0.176 -0.054,0.015 -0.104,0.046 -0.159,0.062 -0.126,0.037 -0.253,0.07 -0.381,0.102 -0.1,0.025 -0.202,0.048 -0.303,0.071 -0.026,0.006 -0.053,0.013 -0.08,0.013 -0.165,10e-4 -0.332,0.013 -0.497,-0.002 -0.164,-0.014 -0.326,-0.052 -0.488,-0.085 -0.077,-0.015 -0.07,-0.075 -0.031,-0.117 0.125,-0.132 0.099,-0.292 0.065,-0.439 -0.021,-0.092 -0.139,-0.102 -0.224,-0.1 -0.194,0.002 -0.389,0.023 -0.583,0.032 -0.124,0.005 -0.249,-0.003 -0.373,10e-4 -0.444,0.012 -0.888,0.027 -1.333,0.041 -0.024,0 -0.051,0.008 -0.072,-10e-4 -0.163,-0.072 -0.22,0.051 -0.289,0.154 -0.015,0.023 -0.033,0.044 -0.049,0.066"
             style="fill:#fff;fill-opacity:1;fill-rule:nonzero;stroke:none"
             id="path5793"
             inkscape:connector-curvature="0" />
        </g>
      </g>
    </g>
  </g>
</svg>
