<?xml version="1.0" encoding="UTF-8" standalone="no"?>
<!-- Created with Inkscape (http://www.inkscape.org/) -->

<svg
   xmlns:dc="http://purl.org/dc/elements/1.1/"
   xmlns:cc="http://creativecommons.org/ns#"
   xmlns:rdf="http://www.w3.org/1999/02/22-rdf-syntax-ns#"
   xmlns:svg="http://www.w3.org/2000/svg"
   xmlns="http://www.w3.org/2000/svg"
   xmlns:sodipodi="http://sodipodi.sourceforge.net/DTD/sodipodi-0.dtd"
   xmlns:inkscape="http://www.inkscape.org/namespaces/inkscape"
   width="11.538514mm"
   height="12.787101mm"
   viewBox="0 0 11.538514 12.787101"
   version="1.1"
   id="svg8508"
   inkscape:version="0.92.5 (2060ec1f9f, 2020-04-08)"
   sodipodi:docname="allies-legions-of-nagash.svg">
  <defs
     id="defs8502">
    <clipPath
       clipPathUnits="userSpaceOnUse"
       id="clipPath5869">
      <path
         d="m 370.671,283.077 h 32.708 v 36.247 h -32.708 z"
         id="path5867"
         inkscape:connector-curvature="0" />
    </clipPath>
  </defs>
  <sodipodi:namedview
     id="base"
     pagecolor="#ffffff"
     bordercolor="#666666"
     borderopacity="1.0"
     inkscape:pageopacity="0.0"
     inkscape:pageshadow="2"
     inkscape:zoom="0.35"
     inkscape:cx="-869.62351"
     inkscape:cy="95.593166"
     inkscape:document-units="mm"
     inkscape:current-layer="layer1"
     showgrid="false"
     fit-margin-top="0"
     fit-margin-left="0"
     fit-margin-right="0"
     fit-margin-bottom="0"
     inkscape:window-width="1920"
     inkscape:window-height="1017"
     inkscape:window-x="-8"
     inkscape:window-y="-8"
     inkscape:window-maximized="1" />
  <metadata
     id="metadata8505">
    <rdf:RDF>
      <cc:Work
         rdf:about="">
        <dc:format>image/svg+xml</dc:format>
        <dc:type
           rdf:resource="http://purl.org/dc/dcmitype/StillImage" />
        <dc:title></dc:title>
      </cc:Work>
    </rdf:RDF>
  </metadata>
  <g
     inkscape:label="Layer 1"
     inkscape:groupmode="layer"
     id="layer1"
     transform="translate(-335.92122,-161.33859)">
    <g
       transform="matrix(0.35277777,0,0,-0.35277777,205.15659,273.989)"
       id="g5863">
      <g
         id="g5865"
         clip-path="url(#clipPath5869)">
        <g
           id="g5871"
           transform="translate(386.8864,313.6231)">
          <path
             d="M 0,0 V -0.002 C -0.078,-0.002 -0.158,-0.011 -0.234,0 -0.573,0.048 -0.882,-0.098 -1.208,-0.139 -1.231,-0.142 -1.255,-0.154 -1.276,-0.166 -1.621,-0.343 -1.965,-0.523 -2.311,-0.699 -2.358,-0.723 -2.413,-0.73 -2.463,-0.749 -2.669,-0.826 -2.879,-0.897 -3.081,-0.983 -3.378,-1.11 -3.67,-1.247 -3.963,-1.381 -4.22,-1.498 -4.487,-1.596 -4.728,-1.739 -5.013,-1.906 -5.301,-2.049 -5.624,-2.123 -5.675,-2.135 -5.723,-2.178 -5.761,-2.217 -5.952,-2.418 -6.165,-2.602 -6.418,-2.703 -6.632,-2.79 -6.801,-2.916 -6.964,-3.067 -7.06,-3.156 -7.158,-3.242 -7.262,-3.322 -7.441,-3.457 -7.634,-3.576 -7.805,-3.72 -8.019,-3.901 -8.179,-4.138 -8.421,-4.297 -8.597,-4.413 -8.732,-4.591 -8.909,-4.706 -9.028,-4.783 -9.106,-4.864 -9.167,-4.991 -9.36,-5.393 -9.587,-5.78 -9.765,-6.189 c -0.162,-0.37 -0.274,-0.761 -0.415,-1.141 -0.033,-0.089 -0.072,-0.212 -0.143,-0.244 -0.114,-0.051 -0.14,-0.115 -0.133,-0.22 10e-4,-0.02 -0.008,-0.04 -0.015,-0.059 -0.089,-0.237 -0.185,-0.472 -0.267,-0.711 -0.1,-0.294 -0.215,-0.584 -0.215,-0.903 0,-0.071 -0.034,-0.143 -0.053,-0.214 -0.046,-0.177 -0.126,-0.353 -0.132,-0.531 -0.017,-0.496 -0.004,-0.993 -10e-4,-1.489 0.003,-0.43 0.013,-0.861 0.015,-1.291 0.001,-0.36 -0.01,-0.72 -0.007,-1.079 0,-0.109 0.02,-0.22 0.045,-0.327 0.049,-0.216 0.107,-0.431 0.163,-0.646 0.033,-0.129 0.068,-0.258 0.104,-0.387 0.067,-0.245 0.138,-0.489 0.203,-0.734 0.025,-0.095 0.031,-0.195 0.063,-0.286 0.061,-0.168 0.119,-0.329 0.143,-0.513 0.021,-0.169 0.12,-0.332 0.103,-0.517 -0.002,-0.017 0.02,-0.035 0.027,-0.054 0.068,-0.187 0.198,-0.349 0.209,-0.56 0.006,-0.095 0.038,-0.194 0.077,-0.282 0.215,-0.49 0.553,-0.898 0.909,-1.287 0.278,-0.303 0.581,-0.584 0.882,-0.864 0.179,-0.166 0.379,-0.31 0.566,-0.468 0.159,-0.133 0.315,-0.271 0.47,-0.41 0.195,-0.173 0.379,-0.36 0.634,-0.454 0.097,-0.036 0.181,-0.108 0.268,-0.169 0.228,-0.157 0.431,-0.345 0.711,-0.427 0.196,-0.057 0.391,-0.144 0.537,-0.309 0.083,-0.094 0.178,-0.201 0.289,-0.24 0.353,-0.121 0.682,-0.325 1.071,-0.332 0.051,-0.001 0.1,-0.034 0.152,-0.046 0.183,-0.042 0.365,-0.097 0.551,-0.117 0.181,-0.02 0.367,0.002 0.551,-0.001 0.072,-0.002 0.158,0.001 0.213,-0.035 0.181,-0.117 0.381,-0.171 0.588,-0.182 0.307,-0.017 0.616,-0.009 0.924,-0.014 0.057,-0.001 0.114,-0.01 0.171,-0.019 0.149,-0.025 0.296,-0.069 0.446,-0.073 0.402,-0.01 0.806,0.012 1.208,-0.007 0.35,-0.017 0.674,0.057 0.994,0.183 0.237,0.094 0.478,0.16 0.74,0.133 0.137,-0.015 0.279,-0.008 0.415,0.012 0.214,0.033 0.423,0.098 0.637,0.127 0.316,0.042 0.563,0.218 0.824,0.378 0.217,0.133 0.456,0.23 0.66,0.387 0.009,0.007 0.024,0.007 0.035,0.013 0.231,0.128 0.463,0.256 0.694,0.386 0.221,0.124 0.422,0.299 0.703,0.272 0.025,-0.003 0.056,0.013 0.077,0.029 0.118,0.094 0.234,0.191 0.351,0.287 0.106,0.089 0.211,0.18 0.318,0.269 0.204,0.17 0.414,0.334 0.611,0.512 0.148,0.134 0.28,0.287 0.42,0.431 0.222,0.228 0.461,0.442 0.661,0.689 0.165,0.204 0.272,0.455 0.424,0.671 0.181,0.256 0.227,0.571 0.424,0.826 0.29,0.377 0.434,0.84 0.617,1.278 0.064,0.154 0.125,0.312 0.205,0.458 0.09,0.167 0.184,0.326 0.189,0.525 0.003,0.083 0.026,0.176 0.069,0.247 0.167,0.279 0.212,0.593 0.262,0.902 0.042,0.265 0.165,0.516 0.134,0.793 -0.002,0.011 0.006,0.023 0.009,0.035 0.045,0.2 0.096,0.399 0.133,0.6 0.021,0.112 0.004,0.232 0.031,0.342 0.061,0.248 0.086,0.498 0.074,0.753 -0.004,0.097 0.006,0.201 0.042,0.289 0.051,0.126 0.085,0.246 0.056,0.381 -0.009,0.043 0.005,0.091 0.002,0.136 -0.014,0.207 -0.007,0.42 -0.05,0.621 -0.082,0.38 -0.191,0.753 -0.293,1.129 -0.03,0.11 -0.078,0.215 -0.107,0.325 -0.04,0.151 -0.068,0.304 -0.103,0.455 -0.087,0.376 -0.281,0.729 -0.246,1.132 0.003,0.031 -0.011,0.065 -0.021,0.096 -0.125,0.385 -0.247,0.771 -0.378,1.154 -0.075,0.217 -0.148,0.437 -0.252,0.641 -0.128,0.25 -0.285,0.487 -0.434,0.727 -0.105,0.171 -0.199,0.354 -0.331,0.502 -0.191,0.215 -0.383,0.414 -0.519,0.681 -0.121,0.235 -0.352,0.414 -0.536,0.618 -0.007,0.009 -0.02,0.015 -0.032,0.017 -0.173,0.028 -0.295,0.13 -0.397,0.267 -0.033,0.045 -0.086,0.075 -0.13,0.112 -0.168,0.138 -0.344,0.268 -0.503,0.415 -0.356,0.33 -0.697,0.676 -1.059,0.998 -0.128,0.113 -0.301,0.176 -0.454,0.261 -0.056,0.031 -0.122,0.05 -0.169,0.092 -0.127,0.111 -0.265,0.17 -0.438,0.157 C 5.438,-1.093 5.363,-1.068 5.298,-1.04 5.204,-1 5.117,-0.946 5.028,-0.896 4.898,-0.824 4.761,-0.761 4.643,-0.674 4.52,-0.584 4.417,-0.471 4.244,-0.489 4.2,-0.493 4.151,-0.463 4.107,-0.443 3.937,-0.363 3.77,-0.296 3.571,-0.289 3.202,-0.275 2.828,-0.344 2.463,-0.204 2.264,-0.127 2.049,-0.096 1.856,0.01 1.757,0.065 1.634,0.091 1.519,0.101 1.343,0.115 1.166,0.105 0.989,0.101 0.941,0.1 0.882,0.1 0.847,0.074 0.738,-0.006 0.617,-0.002 0.493,0 0.329,0.002 0.164,0 0,0 m -12.664,-12.402 c -0.15,-0.023 -0.273,0.048 -0.382,0.158 -0.019,0.019 -0.049,0.033 -0.076,0.038 -0.19,0.039 -0.383,0.069 -0.571,0.115 -0.106,0.025 -0.204,0.077 -0.307,0.111 -0.178,0.059 -0.356,0.123 -0.538,0.165 -0.218,0.05 -0.452,0.048 -0.659,0.123 -0.322,0.116 -0.645,0.089 -0.972,0.082 -0.015,0 -0.031,0.006 -0.046,0.008 0.018,0.144 0.134,0.253 0.301,0.276 0.081,0.011 0.164,0.009 0.245,0.014 0.049,0.003 0.106,-0.007 0.146,0.013 0.233,0.117 0.482,0.079 0.727,0.089 0.067,0.003 0.133,0.026 0.199,0.044 0.169,0.045 0.337,0.093 0.506,0.139 0.227,0.061 0.445,0.135 0.65,0.26 0.128,0.078 0.295,0.089 0.443,0.134 0.138,0.041 0.285,0.068 0.41,0.134 0.104,0.056 0.192,0.082 0.294,0.03 0.127,0.18 0.149,0.38 0.14,0.588 -0.005,0.111 0,0.222 0.003,0.332 0,0.025 0.005,0.05 0.013,0.073 0.059,0.185 0.144,0.365 0.174,0.554 0.058,0.362 0.267,0.667 0.355,1.016 0.061,0.247 0.134,0.492 0.202,0.739 0.009,0.031 0.018,0.063 0.032,0.093 0.135,0.31 0.273,0.62 0.408,0.93 0.06,0.135 0.11,0.275 0.175,0.407 0.12,0.246 0.248,0.49 0.373,0.733 0.056,0.108 0.112,0.212 0.215,0.291 0.045,0.034 0.063,0.124 0.064,0.189 0.003,0.176 -0.035,0.357 -0.009,0.528 0.023,0.148 -0.028,0.249 -0.099,0.358 -0.104,0.162 -0.215,0.32 -0.312,0.486 -0.216,0.368 -0.407,0.752 -0.64,1.109 -0.237,0.363 -0.512,0.701 -0.769,1.052 -0.259,0.354 -0.522,0.705 -0.772,1.064 -0.173,0.249 -0.328,0.51 -0.49,0.766 -0.014,0.023 -0.02,0.051 -0.028,0.073 0.253,0.081 0.409,-0.095 0.588,-0.205 0.06,-0.037 0.11,-0.093 0.173,-0.118 0.261,-0.102 0.444,-0.301 0.643,-0.486 0.221,-0.207 0.442,-0.437 0.708,-0.566 0.332,-0.162 0.573,-0.432 0.876,-0.625 0.264,-0.168 0.495,-0.39 0.751,-0.573 0.135,-0.097 0.293,-0.161 0.441,-0.238 0.165,-0.085 0.339,-0.156 0.495,-0.255 0.173,-0.109 0.377,-0.026 0.406,0.183 0.019,0.139 0.159,0.216 0.297,0.227 0.133,0.011 0.274,0.058 0.388,0.127 0.372,0.226 0.737,0.464 1.097,0.709 0.152,0.105 0.329,0.126 0.491,0.192 0.249,0.102 0.495,0.212 0.741,0.32 0.296,0.129 0.593,0.256 0.886,0.388 0.198,0.09 0.39,0.191 0.587,0.279 0.205,0.093 0.412,0.178 0.62,0.264 0.248,0.103 0.496,0.207 0.747,0.305 0.205,0.08 0.412,0.155 0.621,0.226 0.112,0.038 0.229,0.062 0.343,0.096 0.211,0.063 0.422,0.128 0.634,0.192 0.087,0.026 0.143,0.075 0.137,0.176 -0.002,0.036 -0.002,0.078 0.013,0.109 0.116,0.224 0.067,0.467 0.092,0.702 0.02,0.182 0.082,0.359 0.12,0.54 0.092,0.437 0.184,0.875 0.27,1.314 0.022,0.112 -0.012,0.243 0.033,0.34 C 0.035,4.744 0.003,4.958 0.016,5.171 0.019,5.223 0.039,5.275 0.053,5.325 0.071,5.389 0.09,5.453 0.109,5.516 0.128,5.578 0.146,5.639 0.165,5.701 0.18,5.699 0.195,5.697 0.211,5.696 0.241,5.586 0.273,5.477 0.302,5.368 0.357,5.162 0.415,4.957 0.462,4.75 0.498,4.591 0.523,4.429 0.548,4.267 0.572,4.11 0.584,3.951 0.613,3.794 0.625,3.728 0.653,3.656 0.696,3.604 0.841,3.43 0.859,3.232 0.837,3.018 0.83,2.955 0.855,2.889 0.869,2.824 0.876,2.793 0.898,2.764 0.902,2.732 0.944,2.432 0.981,2.131 1.026,1.831 1.044,1.713 1.082,1.599 1.112,1.472 1.257,1.472 1.387,1.478 1.515,1.47 1.596,1.465 1.675,1.437 1.755,1.42 1.89,1.393 2.025,1.365 2.161,1.339 2.342,1.305 2.532,1.297 2.702,1.235 2.951,1.143 3.204,1.176 3.455,1.162 3.741,1.146 4.02,1.12 4.289,0.991 4.656,0.814 4.996,0.588 5.384,0.449 5.555,0.387 5.692,0.236 5.847,0.13 5.911,0.087 5.981,0.051 6.052,0.023 c 0.197,-0.079 0.4,-0.145 0.594,-0.23 0.187,-0.082 0.375,-0.167 0.546,-0.277 0.174,-0.112 0.332,-0.251 0.487,-0.39 0.158,-0.142 0.328,-0.255 0.53,-0.324 0.088,-0.03 0.178,-0.071 0.249,-0.129 0.225,-0.184 0.441,-0.378 0.661,-0.568 0.074,-0.065 0.151,-0.11 0.248,-0.046 0.191,0.127 0.38,0.257 0.574,0.38 0.068,0.043 0.149,0.064 0.222,0.1 0.086,0.043 0.168,0.095 0.255,0.137 0.058,0.027 0.121,0.059 0.183,0.059 0.145,0.002 0.207,-0.13 0.138,-0.256 -0.084,-0.151 -0.155,-0.309 -0.239,-0.459 -0.092,-0.163 -0.177,-0.335 -0.295,-0.477 -0.174,-0.21 -0.178,-0.426 -0.075,-0.655 0.208,-0.465 0.526,-0.858 0.856,-1.241 0.069,-0.08 0.115,-0.177 0.178,-0.262 0.181,-0.243 0.371,-0.479 0.546,-0.725 0.135,-0.191 0.238,-0.397 0.272,-0.637 0.018,-0.13 0.084,-0.254 0.129,-0.381 0.17,-0.479 0.343,-0.956 0.508,-1.436 0.05,-0.146 0.072,-0.302 0.119,-0.45 0.046,-0.143 0.112,-0.281 0.162,-0.423 0.057,-0.157 0.109,-0.317 0.159,-0.477 0.062,-0.203 0.121,-0.406 0.178,-0.611 0.06,-0.217 0.114,-0.435 0.171,-0.652 0.032,-0.119 0.151,-0.228 0.272,-0.214 0.184,0.022 0.333,-0.067 0.472,-0.149 0.174,-0.103 0.34,-0.176 0.546,-0.15 0.114,0.014 0.231,0.013 0.345,10e-4 0.081,-0.008 0.158,-0.047 0.238,-0.068 0.05,-0.013 0.102,-0.029 0.152,-0.026 0.254,0.016 0.498,-0.03 0.735,-0.108 0.112,-0.036 0.215,-0.097 0.325,-0.161 -0.584,-0.133 -1.043,-0.505 -1.554,-0.777 -0.114,-0.061 -0.239,-0.102 -0.361,-0.147 -0.141,-0.053 -0.288,-0.091 -0.426,-0.151 -0.15,-0.066 -0.294,-0.147 -0.437,-0.227 -0.08,-0.045 -0.145,-0.1 -0.184,-0.198 -0.052,-0.135 -0.146,-0.253 -0.22,-0.38 -0.023,-0.039 -0.049,-0.08 -0.055,-0.123 -0.037,-0.24 -0.063,-0.483 -0.104,-0.722 -0.025,-0.145 -0.069,-0.286 -0.11,-0.427 -0.066,-0.233 -0.137,-0.463 -0.205,-0.695 -0.12,-0.412 -0.235,-0.825 -0.359,-1.236 -0.059,-0.199 -0.134,-0.393 -0.202,-0.59 -10e-4,-0.004 -0.004,-0.007 -0.004,-0.011 -0.024,-0.288 -0.16,-0.539 -0.262,-0.8 -0.118,-0.3 -0.257,-0.593 -0.391,-0.887 -0.081,-0.178 -0.167,-0.354 -0.257,-0.527 -0.051,-0.098 -0.113,-0.19 -0.177,-0.28 -0.1,-0.138 -0.212,-0.269 -0.308,-0.41 -0.088,-0.128 -0.17,-0.261 -0.237,-0.401 -0.021,-0.044 0.003,-0.12 0.027,-0.172 0.083,-0.183 0.178,-0.361 0.264,-0.542 0.067,-0.14 0.121,-0.287 0.193,-0.424 0.048,-0.093 0.117,-0.175 0.175,-0.263 0.013,-0.02 0.018,-0.045 0.031,-0.08 -0.083,-0.047 -0.161,-0.098 -0.245,-0.138 -0.028,-0.014 -0.073,-0.015 -0.103,-0.004 -0.278,0.109 -0.551,0.234 -0.835,0.328 -0.131,0.044 -0.282,0.027 -0.423,0.044 -0.086,0.01 -0.17,0.041 -0.256,0.045 -0.041,0.002 -0.109,-0.028 -0.123,-0.061 C 9.294,-21.656 9.2,-21.72 9.099,-21.788 9.022,-21.839 8.947,-21.907 8.9,-21.985 8.762,-22.216 8.545,-22.317 8.303,-22.386 8.152,-22.43 8.023,-22.498 7.902,-22.609 7.741,-22.757 7.546,-22.867 7.369,-22.997 7.284,-23.06 7.201,-23.129 7.127,-23.204 6.935,-23.399 6.698,-23.529 6.468,-23.669 6.356,-23.736 6.247,-23.81 6.13,-23.866 6.036,-23.91 5.93,-23.928 5.831,-23.964 5.727,-24.001 5.624,-24.041 5.523,-24.085 5.272,-24.197 5.026,-24.319 4.772,-24.421 4.568,-24.503 4.355,-24.564 4.145,-24.63 c -0.149,-0.047 -0.297,-0.096 -0.448,-0.13 -0.206,-0.046 -0.416,-0.075 -0.623,-0.12 -0.083,-0.018 -0.171,-0.042 -0.24,-0.089 -0.184,-0.128 -0.393,-0.103 -0.595,-0.109 -0.175,-0.006 -0.346,-0.01 -0.48,-0.141 -0.034,-0.033 -0.084,-0.078 -0.082,-0.115 0.009,-0.223 -0.141,-0.397 -0.171,-0.608 -0.019,-0.127 -0.056,-0.257 -0.153,-0.366 -0.047,-0.053 -0.028,-0.164 -0.04,-0.249 -0.016,-0.113 -0.031,-0.226 -0.049,-0.339 -0.012,-0.073 -0.038,-0.144 -0.042,-0.217 -0.021,-0.463 -0.136,-0.908 -0.248,-1.354 -0.083,-0.334 -0.17,-0.667 -0.238,-1.004 -0.054,-0.268 -0.079,-0.542 -0.124,-0.812 -0.015,-0.087 -0.055,-0.17 -0.084,-0.255 -0.012,-0.003 -0.025,-0.006 -0.038,-0.008 -0.045,0.154 -0.096,0.307 -0.131,0.463 -0.017,0.078 -0.002,0.164 -0.001,0.246 0.001,0.102 0.017,0.206 -0.069,0.288 -0.011,0.01 -0.02,0.031 -0.018,0.045 0.018,0.157 -0.063,0.291 -0.101,0.434 -0.041,0.157 -0.071,0.316 -0.114,0.472 -0.053,0.191 -0.115,0.379 -0.171,0.569 -0.012,0.039 -0.014,0.081 -0.024,0.12 -0.051,0.21 -0.103,0.42 -0.154,0.629 -0.035,0.143 -0.074,0.284 -0.103,0.428 -0.047,0.233 -0.079,0.468 -0.132,0.699 -0.069,0.296 -0.15,0.588 -0.233,0.879 -0.008,0.029 -0.066,0.061 -0.101,0.062 -0.373,0.011 -0.746,0.014 -1.119,0.022 -0.057,0.001 -0.122,-0.003 -0.169,0.022 -0.186,0.1 -0.389,0.08 -0.587,0.098 -0.072,0.006 -0.147,0.027 -0.21,0.061 -0.187,0.099 -0.386,0.145 -0.594,0.129 -0.342,-0.027 -0.628,0.112 -0.913,0.274 -0.238,0.136 -0.487,0.254 -0.731,0.38 -0.025,0.013 -0.054,0.024 -0.074,0.043 -0.238,0.223 -0.546,0.319 -0.827,0.464 -0.166,0.086 -0.34,0.169 -0.436,0.347 -0.008,0.014 -0.019,0.027 -0.031,0.037 -0.133,0.113 -0.266,0.226 -0.399,0.338 -0.029,0.023 -0.058,0.049 -0.091,0.063 -0.296,0.13 -0.503,0.378 -0.751,0.57 -0.071,0.055 -0.137,0.117 -0.205,0.176 -0.239,0.204 -0.478,0.407 -0.726,0.619 -0.222,-0.158 -0.425,-0.306 -0.631,-0.45 -0.238,-0.166 -0.476,-0.333 -0.72,-0.491 -0.061,-0.039 -0.144,-0.043 -0.218,-0.06 -0.023,-0.006 -0.055,0.006 -0.071,-0.006 -0.112,-0.079 -0.224,-0.159 -0.33,-0.246 -0.205,-0.168 -0.405,-0.343 -0.612,-0.509 -0.041,-0.032 -0.113,-0.051 -0.163,-0.041 -0.061,0.013 -0.136,0.05 -0.166,0.1 -0.026,0.045 -0.015,0.13 0.011,0.182 0.032,0.067 0.077,0.118 0.045,0.202 -0.01,0.027 0.024,0.091 0.055,0.109 0.173,0.099 0.234,0.281 0.335,0.432 0.156,0.229 0.297,0.469 0.461,0.691 0.121,0.164 0.269,0.309 0.405,0.462 0.013,0.015 0.028,0.032 0.035,0.05 0.105,0.268 0.208,0.536 0.314,0.81 -0.192,0.269 -0.395,0.552 -0.597,0.836 -0.035,0.05 -0.069,0.101 -0.099,0.154 -0.107,0.184 -0.203,0.373 -0.319,0.551 -0.078,0.118 -0.194,0.21 -0.27,0.329 -0.103,0.162 -0.184,0.337 -0.273,0.508 -0.013,0.025 -0.025,0.056 -0.022,0.083 0.017,0.175 -0.09,0.308 -0.143,0.461 -0.042,0.117 -0.044,0.248 -0.062,0.373 -0.028,0.184 -0.04,0.372 -0.086,0.552 -0.063,0.249 -0.15,0.492 -0.228,0.737 -0.006,0.02 -0.016,0.038 -0.019,0.058 -0.039,0.24 -0.076,0.48 -0.114,0.72 -0.004,0.02 -0.01,0.039 -0.014,0.059 -0.027,0.113 -0.06,0.225 -0.079,0.34 -0.032,0.191 -0.053,0.384 -0.08,0.575 -0.029,0.214 -0.015,0.447 -0.101,0.636 -0.141,0.309 -0.002,0.656 -0.183,0.96"
             style="fill:#fff;fill-opacity:1;fill-rule:nonzero;stroke:none"
             id="path5873"
             inkscape:connector-curvature="0" />
        </g>
        <g
           id="g5875"
           transform="translate(387.4816,312.7778)">
          <path
             d="M 0,0 C 0.511,-0.547 1.152,-0.979 1.622,-1.589 1.717,-1.712 1.83,-1.824 1.948,-1.927 2.774,-2.653 3.51,-3.469 4.279,-4.252 4.45,-4.426 4.619,-4.602 4.788,-4.778 4.98,-4.979 4.988,-5.097 4.821,-5.314 4.563,-5.648 4.426,-6.021 4.406,-6.446 4.341,-7.86 4.27,-9.274 4.192,-10.687 4.171,-11.061 4.119,-11.433 4.075,-11.805 4.066,-11.88 4.024,-11.952 4.001,-12.026 3.979,-12.094 3.972,-12.17 3.937,-12.231 c -0.033,-0.059 -0.084,-0.122 -0.144,-0.15 -0.458,-0.222 -0.921,-0.434 -1.381,-0.653 -0.145,-0.07 -0.284,-0.15 -0.426,-0.228 -0.175,-0.096 -0.24,-0.061 -0.246,0.134 -0.027,0.903 -0.003,1.804 0.1,2.702 0.053,0.458 0.13,0.914 0.184,1.372 0.01,0.088 -0.007,0.199 -0.054,0.271 -0.292,0.444 -0.597,0.879 -0.895,1.318 -0.135,0.198 -0.261,0.402 -0.397,0.599 -0.128,0.186 -0.261,0.369 -0.396,0.55 -0.027,0.037 -0.071,0.065 -0.113,0.087 -0.132,0.069 -0.179,0.058 -0.251,-0.072 -0.588,-1.053 -1.175,-2.107 -1.76,-3.161 -0.024,-0.044 -0.038,-0.099 -0.04,-0.149 -0.02,-0.505 -0.036,-1.01 -0.055,-1.515 -0.005,-0.118 -0.028,-0.235 -0.026,-0.352 0.006,-0.286 0.024,-0.572 0.032,-0.858 0.004,-0.147 0.005,-0.297 -0.011,-0.443 -0.013,-0.116 -0.043,-0.232 -0.083,-0.341 -0.074,-0.199 -0.198,-0.24 -0.392,-0.144 -0.133,0.066 -0.261,0.143 -0.397,0.2 -0.316,0.133 -0.635,0.261 -0.957,0.38 -0.095,0.035 -0.204,0.038 -0.308,0.04 -0.173,0.005 -0.277,0.091 -0.296,0.264 -0.002,0.026 -0.002,0.052 -0.002,0.078 -0.017,1.098 -0.015,2.196 -0.056,3.293 -0.027,0.747 -0.07,1.496 -0.255,2.228 -0.063,0.247 -0.085,0.507 -0.108,0.762 -0.04,0.457 -0.236,0.852 -0.468,1.234 -0.125,0.205 -0.12,0.276 0.061,0.424 0.673,0.553 1.347,1.105 2.024,1.652 0.76,0.614 1.493,1.258 2.188,1.944 C -0.696,-0.474 -0.404,-0.181 0,0"
             style="fill:#fff;fill-opacity:1;fill-rule:nonzero;stroke:none"
             id="path5877"
             inkscape:connector-curvature="0" />
        </g>
        <g
           id="g5879"
           transform="translate(385.8895,298.8488)">
          <path
             d="M 0,0 C 0.015,0.163 0.04,0.321 0.042,0.479 0.054,1.302 0.055,2.126 0.069,2.95 0.073,3.215 0.103,3.479 0.121,3.744 0.122,3.757 0.127,3.77 0.125,3.783 0.078,4.081 0.225,4.318 0.363,4.561 0.796,5.322 1.225,6.084 1.655,6.846 1.677,6.884 1.702,6.919 1.729,6.959 1.918,6.875 2.063,6.751 2.159,6.572 2.376,6.164 2.594,5.758 2.81,5.349 2.984,5.02 3.115,4.674 3.158,4.302 3.173,4.175 3.165,4.038 3.136,3.914 3.051,3.555 3.014,3.195 3.019,2.826 3.027,2.251 3.027,1.675 3.015,1.1 3.009,0.818 2.966,0.538 2.944,0.256 2.932,0.104 2.928,-0.048 2.921,-0.2 2.916,-0.289 2.965,-0.303 3.038,-0.285 3.05,-0.282 3.063,-0.279 3.075,-0.274 4.059,0.115 5.046,0.495 6.025,0.895 6.504,1.091 6.427,0.992 6.443,1.504 6.489,2.968 6.518,4.432 6.561,5.896 6.577,6.462 6.61,7.027 6.64,7.593 6.649,7.782 6.742,7.87 6.91,7.847 6.964,7.839 7.03,7.795 7.059,7.749 7.421,7.167 7.814,6.609 8.27,6.098 8.347,6.013 8.376,5.923 8.366,5.813 8.337,5.462 8.326,5.108 8.278,4.76 8.171,3.974 8.242,3.185 8.22,2.398 8.201,1.714 8.205,1.029 8.157,0.347 8.145,0.169 8.11,-0.059 7.932,-0.19 7.775,-0.307 7.621,-0.437 7.446,-0.517 6.549,-0.922 5.65,-1.322 4.744,-1.704 4.348,-1.871 3.929,-1.984 3.527,-2.137 3.304,-2.221 3.097,-2.346 2.875,-2.434 2.532,-2.57 2.185,-2.699 1.833,-2.81 1.738,-2.84 1.612,-2.82 1.515,-2.784 c -0.596,0.221 -1.196,0.433 -1.778,0.686 -1.308,0.567 -2.67,0.949 -4.063,1.228 -0.072,0.014 -0.148,0.007 -0.221,0.014 -0.051,0.006 -0.114,0.004 -0.15,0.032 -0.094,0.076 -0.194,0.106 -0.312,0.11 -0.026,0.001 -0.068,0.078 -0.072,0.122 -0.036,0.438 -0.063,0.878 -0.099,1.316 -0.048,0.599 -0.131,1.197 -0.145,1.797 -0.022,0.992 -0.14,1.973 -0.253,2.955 -0.028,0.244 0.017,0.459 0.176,0.646 0.401,0.471 0.802,0.943 1.208,1.409 0.04,0.047 0.133,0.098 0.172,0.081 C -3.969,7.588 -3.92,7.504 -3.911,7.44 -3.876,7.191 -3.851,6.939 -3.833,6.687 -3.811,6.361 -3.795,6.035 -3.783,5.709 -3.751,4.877 -3.726,4.045 -3.69,3.214 -3.68,2.997 -3.626,2.782 -3.618,2.565 -3.605,2.178 -3.61,1.79 -3.608,1.402 -3.606,1.23 -3.6,1.165 -3.385,1.1 -2.819,0.93 -2.262,0.728 -1.701,0.542 -1.164,0.364 -0.626,0.19 -0.088,0.015 -0.068,0.008 -0.046,0.008 0,0"
             style="fill:#fff;fill-opacity:1;fill-rule:nonzero;stroke:none"
             id="path5881"
             inkscape:connector-curvature="0" />
        </g>
        <g
           id="g5883"
           transform="translate(387.832,293.7552)">
          <path
             d="M 0,0 C 0,0.175 0.004,0.311 -0.001,0.448 -0.01,0.682 -0.031,0.916 -0.034,1.151 -0.037,1.332 -0.166,1.489 -0.365,1.525 -0.551,1.559 -0.711,1.46 -0.762,1.272 -0.796,1.146 -0.815,1.017 -0.851,0.891 -0.899,0.721 -0.95,0.55 -1.013,0.384 -1.04,0.312 -1.14,0.247 -1.133,0.187 -1.126,0.126 -1.026,0.077 -0.97,0.021 -0.837,-0.111 -0.781,-0.114 -0.647,0.016 -0.541,0.12 -0.425,0.135 -0.289,0.082 -0.21,0.051 -0.125,0.035 0,0 m -1.539,-1.698 c 0.007,-0.347 0.014,-0.69 0.021,-1.032 0.002,-0.048 0.001,-0.096 0,-0.144 -0.002,-0.08 -0.023,-0.15 -0.115,-0.165 -0.101,-0.016 -0.113,0.067 -0.127,0.132 -0.066,0.31 -0.123,0.623 -0.195,0.932 -0.021,0.092 -0.077,0.179 -0.128,0.261 -0.015,0.024 -0.074,0.043 -0.099,0.032 -0.026,-0.011 -0.051,-0.064 -0.047,-0.095 0.016,-0.129 0.038,-0.258 0.066,-0.385 0.071,-0.31 0.146,-0.618 0.219,-0.927 0.005,-0.02 0.003,-0.042 0.007,-0.096 -0.18,0.144 -0.301,0.3 -0.362,0.49 -0.104,0.331 -0.191,0.668 -0.288,1.001 -0.029,0.096 -0.013,0.177 0.053,0.254 0.105,0.124 0.117,0.26 0.061,0.415 -0.1,0.283 -0.18,0.574 -0.286,0.854 -0.047,0.128 -0.135,0.24 -0.204,0.359 -0.052,0.089 -0.101,0.178 -0.154,0.265 -0.025,0.04 -0.049,0.09 -0.086,0.111 -0.18,0.1 -0.494,0.196 -0.701,-0.022 -0.105,-0.111 -0.29,-0.116 -0.402,-0.01 -0.272,0.258 -0.539,0.521 -0.798,0.79 -0.047,0.049 -0.07,0.139 -0.069,0.21 0.003,0.266 0.007,0.532 0.036,0.796 0.04,0.376 0.099,0.75 0.157,1.124 0.018,0.12 0.136,0.213 0.234,0.173 0.221,-0.088 0.433,-0.198 0.647,-0.301 0.018,-0.008 0.029,-0.03 0.046,-0.048 -0.013,-0.018 -0.021,-0.034 -0.032,-0.046 -0.3,-0.31 -0.297,-0.781 0.014,-1.083 0.06,-0.058 0.14,-0.11 0.22,-0.132 0.336,-0.089 0.673,-0.181 1.014,-0.241 0.295,-0.052 0.597,-0.07 0.897,-0.087 0.251,-0.014 0.438,0.151 0.637,0.272 0.025,0.015 0.03,0.069 0.034,0.106 0.006,0.05 0.002,0.101 0.002,0.146 0.264,0.017 0.488,-0.05 0.711,-0.147 C -0.46,2.023 -0.334,2.019 -0.228,2.038 -0.062,2.068 0.098,2.132 0.261,2.18 0.43,2.23 0.499,2.198 0.572,2.038 0.674,1.815 0.841,1.748 1.073,1.823 1.153,1.848 1.245,1.858 1.329,1.849 1.729,1.809 2.106,1.934 2.49,2 2.722,2.041 2.951,2.094 3.183,2.135 3.272,2.15 3.313,2.194 3.344,2.279 3.435,2.529 3.465,2.787 3.456,3.05 3.454,3.103 3.415,3.153 3.407,3.207 3.4,3.25 3.397,3.326 3.419,3.337 3.648,3.46 3.882,3.575 4.117,3.686 4.193,3.721 4.253,3.697 4.27,3.594 4.148,3.542 4.131,3.432 4.132,3.309 4.135,2.753 4.05,2.208 3.936,1.665 3.903,1.513 3.818,1.407 3.68,1.36 3.509,1.301 3.394,1.183 3.286,1.05 3.195,0.939 3.11,0.823 3.021,0.71 2.87,0.519 2.684,0.488 2.484,0.628 2.388,0.695 2.299,0.774 2.21,0.85 2.099,0.945 1.998,0.933 1.865,0.872 1.287,0.606 1.113,0.086 0.984,-0.469 0.953,-0.6 0.929,-0.733 0.891,-0.862 0.857,-0.973 0.873,-1.042 0.995,-1.081 1.141,-1.126 1.168,-1.201 1.107,-1.341 1.081,-1.401 1.047,-1.457 1.013,-1.513 0.925,-1.662 0.861,-1.816 0.872,-1.994 0.875,-2.037 0.865,-2.081 0.858,-2.124 0.829,-2.307 0.802,-2.49 0.768,-2.672 0.721,-2.924 0.518,-3.045 0.31,-3.22 c 0.007,0.078 0.009,0.117 0.014,0.155 0.042,0.31 0.084,0.62 0.127,0.929 0.022,0.155 0.047,0.31 0.07,0.464 0.006,0.039 0.022,0.081 0.011,0.115 C 0.521,-1.522 0.487,-1.476 0.457,-1.472 0.429,-1.467 0.373,-1.504 0.365,-1.533 0.326,-1.671 0.292,-1.811 0.27,-1.952 0.225,-2.239 0.188,-2.528 0.148,-2.82 h -0.26 c 0.019,0.284 0.039,0.561 0.056,0.838 0.006,0.104 0.011,0.209 0.006,0.313 -10e-4,0.031 -0.035,0.079 -0.06,0.084 -0.028,0.005 -0.08,-0.022 -0.093,-0.05 -0.026,-0.052 -0.041,-0.114 -0.045,-0.174 -0.018,-0.269 -0.032,-0.539 -0.046,-0.809 -0.006,-0.124 -0.063,-0.208 -0.187,-0.234 -0.106,-0.023 -0.166,0.025 -0.168,0.138 -0.004,0.292 0,0.584 -0.005,0.876 0,0.055 0.042,0.148 -0.065,0.152 -0.099,0.004 -0.132,-0.072 -0.133,-0.159 -0.002,-0.257 -0.002,-0.514 -0.003,-0.771 0,-0.031 0.001,-0.062 0,-0.092 -0.004,-0.185 -0.038,-0.228 -0.187,-0.234 -0.181,-0.006 -0.269,0.065 -0.273,0.239 -0.007,0.279 -0.001,0.558 -0.004,0.837 -0.001,0.184 -0.056,0.22 -0.22,0.168"
             style="fill:#fff;fill-opacity:1;fill-rule:nonzero;stroke:none"
             id="path5885"
             inkscape:connector-curvature="0" />
        </g>
      </g>
    </g>
  </g>
</svg>
