<?xml version="1.0" encoding="UTF-8" standalone="no"?>
<!-- Created with Inkscape (http://www.inkscape.org/) -->

<svg
   xmlns:dc="http://purl.org/dc/elements/1.1/"
   xmlns:cc="http://creativecommons.org/ns#"
   xmlns:rdf="http://www.w3.org/1999/02/22-rdf-syntax-ns#"
   xmlns:svg="http://www.w3.org/2000/svg"
   xmlns="http://www.w3.org/2000/svg"
   xmlns:sodipodi="http://sodipodi.sourceforge.net/DTD/sodipodi-0.dtd"
   xmlns:inkscape="http://www.inkscape.org/namespaces/inkscape"
   width="11.61827mm"
   height="12.870039mm"
   viewBox="0 0 11.61827 12.870039"
   version="1.1"
   id="svg8142"
   inkscape:version="0.92.5 (2060ec1f9f, 2020-04-08)"
   sodipodi:docname="allies-nurgle.svg">
  <defs
     id="defs8136">
    <clipPath
       clipPathUnits="userSpaceOnUse"
       id="clipPath5629">
      <path
         d="m 214.804,285.35 h 32.95 v 36.483 h -32.95 z"
         id="path5627"
         inkscape:connector-curvature="0" />
    </clipPath>
  </defs>
  <sodipodi:namedview
     id="base"
     pagecolor="#ffffff"
     bordercolor="#666666"
     borderopacity="1.0"
     inkscape:pageopacity="0.0"
     inkscape:pageshadow="2"
     inkscape:zoom="0.35"
     inkscape:cx="167.67007"
     inkscape:cy="190.03562"
     inkscape:document-units="mm"
     inkscape:current-layer="layer1"
     showgrid="false"
     fit-margin-top="0"
     fit-margin-left="0"
     fit-margin-right="0"
     fit-margin-bottom="0"
     inkscape:window-width="1920"
     inkscape:window-height="1017"
     inkscape:window-x="-8"
     inkscape:window-y="-8"
     inkscape:window-maximized="1" />
  <metadata
     id="metadata8139">
    <rdf:RDF>
      <cc:Work
         rdf:about="">
        <dc:format>image/svg+xml</dc:format>
        <dc:type
           rdf:resource="http://purl.org/dc/dcmitype/StillImage" />
        <dc:title></dc:title>
      </cc:Work>
    </rdf:RDF>
  </metadata>
  <g
     inkscape:label="Layer 1"
     inkscape:groupmode="layer"
     id="layer1"
     transform="translate(-61.470626,-186.24355)">
    <g
       transform="matrix(0.35277777,0,0,-0.35277777,-14.313207,299.77908)"
       id="g5623">
      <g
         id="g5625"
         clip-path="url(#clipPath5629)">
        <g
           id="g5631"
           transform="translate(220.6384,308.434)">
          <path
             d="m 0,0 c -0.021,-0.103 -0.019,-0.195 -0.058,-0.265 -0.166,-0.305 -0.234,-0.644 -0.347,-0.966 -0.071,-0.199 -0.127,-0.407 -0.123,-0.626 0.002,-0.074 -0.039,-0.15 -0.058,-0.225 -0.046,-0.184 -0.122,-0.368 -0.128,-0.553 -0.016,-0.5 -0.003,-1.001 0.001,-1.501 0.003,-0.42 0.013,-0.841 0.014,-1.261 0.001,-0.365 -0.009,-0.729 -0.006,-1.093 0.001,-0.111 0.012,-0.227 0.048,-0.33 0.074,-0.212 0.064,-0.443 0.16,-0.647 0.004,-0.01 0,-0.023 0.002,-0.034 0.019,-0.081 0.032,-0.164 0.058,-0.242 0.026,-0.074 0.081,-0.14 0.096,-0.214 0.044,-0.218 0.1,-0.433 0.156,-0.648 0.029,-0.113 0.037,-0.236 0.084,-0.34 0.066,-0.146 0.087,-0.296 0.121,-0.448 0.042,-0.183 0.112,-0.36 0.113,-0.552 0.139,-0.246 0.235,-0.507 0.268,-0.79 0.001,-0.005 0.004,-0.01 0.007,-0.015 0.128,-0.237 0.217,-0.494 0.399,-0.701 0.089,-0.1 0.158,-0.218 0.247,-0.319 0.183,-0.205 0.373,-0.403 0.559,-0.604 0.121,-0.131 0.283,-0.224 0.363,-0.394 0.014,-0.029 0.042,-0.053 0.068,-0.075 0.248,-0.208 0.533,-0.37 0.761,-0.607 0.155,-0.16 0.333,-0.298 0.5,-0.446 0.193,-0.171 0.381,-0.348 0.632,-0.438 0.078,-0.028 0.149,-0.078 0.217,-0.128 0.113,-0.083 0.214,-0.182 0.331,-0.259 0.101,-0.068 0.211,-0.133 0.327,-0.169 0.324,-0.102 0.599,-0.277 0.831,-0.523 0.026,-0.028 0.056,-0.063 0.09,-0.073 0.359,-0.101 0.679,-0.326 1.07,-0.327 0.053,0 0.106,-0.035 0.161,-0.047 0.185,-0.043 0.369,-0.098 0.558,-0.119 0.176,-0.02 0.357,10e-4 0.536,-0.005 0.082,-0.002 0.174,-0.004 0.243,-0.041 0.195,-0.105 0.4,-0.174 0.62,-0.181 0.286,-0.009 0.574,-0.002 0.861,-0.007 0.077,-0.002 0.154,-0.02 0.231,-0.033 0.127,-0.021 0.253,-0.06 0.38,-0.062 0.535,-0.007 1.07,-0.005 1.604,-0.001 0.089,0.001 0.18,0.015 0.265,0.041 0.194,0.058 0.389,0.116 0.574,0.196 0.189,0.081 0.381,0.075 0.577,0.069 0.134,-0.004 0.271,-0.003 0.403,0.018 0.248,0.04 0.495,0.093 0.742,0.146 0.109,0.024 0.23,0.038 0.32,0.097 0.262,0.171 0.514,0.357 0.814,0.462 0.019,0.006 0.03,0.034 0.048,0.046 0.095,0.058 0.189,0.117 0.287,0.17 0.079,0.042 0.166,0.069 0.243,0.114 0.275,0.161 0.527,0.36 0.823,0.486 0.09,0.038 0.173,0.076 0.274,0.055 0.029,-0.006 0.07,0.002 0.094,0.02 0.112,0.083 0.223,0.169 0.33,0.259 0.107,0.091 0.203,0.193 0.312,0.281 0.191,0.156 0.399,0.293 0.581,0.458 0.241,0.218 0.467,0.453 0.694,0.685 0.156,0.161 0.308,0.326 0.454,0.496 0.11,0.127 0.214,0.26 0.268,0.425 0.019,0.057 0.059,0.108 0.093,0.159 0.122,0.182 0.238,0.366 0.294,0.583 0.019,0.074 0.055,0.152 0.105,0.208 0.176,0.196 0.275,0.436 0.398,0.663 0.063,0.117 0.109,0.245 0.161,0.369 0.091,0.217 0.18,0.435 0.272,0.652 0.035,0.082 0.072,0.164 0.116,0.241 0.091,0.157 0.171,0.313 0.183,0.501 0.007,0.103 0.054,0.204 0.09,0.304 0.047,0.132 0.11,0.258 0.149,0.392 0.085,0.296 0.078,0.614 0.207,0.9 0.007,0.015 0.009,0.034 0.007,0.05 -0.025,0.194 0.034,0.378 0.074,0.564 0.029,0.131 0.064,0.262 0.084,0.395 0.017,0.105 -0.003,0.217 0.023,0.318 0.073,0.275 0.096,0.551 0.085,0.834 -0.004,0.098 0.023,0.202 0.059,0.294 0.037,0.093 0.057,0.18 0.044,0.278 -0.007,0.05 -0.007,0.102 -0.004,0.152 0.013,0.26 -0.003,0.515 -0.079,0.766 -0.05,0.166 -0.079,0.338 -0.121,0.507 -0.037,0.147 -0.079,0.292 -0.121,0.438 -0.071,0.247 -0.145,0.494 -0.214,0.742 -0.071,0.254 -0.128,0.512 -0.208,0.763 -0.042,0.131 -0.069,0.259 -0.06,0.396 0.004,0.061 0.001,0.125 -0.016,0.183 -0.067,0.226 -0.14,0.45 -0.213,0.674 -0.041,0.128 -0.083,0.255 -0.131,0.381 -0.075,0.2 -0.154,0.397 -0.231,0.596 C 21.12,1.586 21.1,1.657 21.069,1.723 20.895,2.103 20.63,2.427 20.42,2.786 20.371,2.871 20.287,2.935 20.226,3.014 20.077,3.207 19.864,3.354 19.806,3.611 19.8,3.637 19.78,3.661 19.762,3.682 19.597,3.865 19.433,4.049 19.264,4.228 19.235,4.258 19.186,4.27 19.144,4.285 19.035,4.322 18.945,4.38 18.872,4.473 18.821,4.539 18.753,4.592 18.688,4.646 18.508,4.798 18.319,4.94 18.145,5.1 17.801,5.416 17.464,5.74 17.127,6.063 16.994,6.191 16.836,6.27 16.663,6.329 16.596,6.352 16.529,6.387 16.475,6.432 16.348,6.538 16.212,6.594 16.042,6.584 15.969,6.579 15.89,6.607 15.82,6.636 15.727,6.674 15.645,6.737 15.551,6.771 15.407,6.824 15.274,6.885 15.165,6.999 15.059,7.111 14.937,7.196 14.767,7.188 14.716,7.186 14.662,7.221 14.612,7.244 14.443,7.321 14.276,7.379 14.081,7.384 13.697,7.393 13.306,7.34 12.931,7.481 12.754,7.547 12.561,7.567 12.398,7.674 12.282,7.749 12.157,7.788 12.015,7.781 11.847,7.774 11.678,7.782 11.509,7.776 11.444,7.773 11.38,7.748 11.315,7.733 11.235,7.714 11.155,7.679 11.075,7.678 10.709,7.671 10.343,7.673 9.977,7.674 9.845,7.674 9.728,7.643 9.606,7.587 9.488,7.533 9.336,7.554 9.215,7.504 8.921,7.381 8.635,7.236 8.346,7.098 8.311,7.081 8.284,7.049 8.25,7.031 8.176,6.993 8.102,6.955 8.025,6.925 7.816,6.843 7.593,6.789 7.4,6.681 7.118,6.525 6.823,6.408 6.525,6.292 6.154,6.148 5.793,5.983 5.461,5.76 5.388,5.711 5.3,5.68 5.216,5.652 5.083,5.608 4.946,5.576 4.813,5.534 4.777,5.523 4.745,5.494 4.718,5.467 4.471,5.218 4.21,4.992 3.865,4.887 3.823,4.875 3.785,4.846 3.751,4.817 3.669,4.749 3.593,4.674 3.51,4.606 3.38,4.501 3.247,4.399 3.115,4.296 2.895,4.123 2.65,3.982 2.472,3.756 2.383,3.643 2.27,3.547 2.16,3.451 2.056,3.358 1.941,3.277 1.833,3.189 1.724,3.1 1.63,2.985 1.509,2.923 1.392,2.864 1.338,2.781 1.285,2.673 1.087,2.269 0.876,1.872 0.675,1.47 0.488,1.096 0.382,0.693 0.256,0.298 0.211,0.157 0.163,0.03 0,0 m 10.717,13.394 c 0.028,-0.102 0.056,-0.204 0.083,-0.306 0.056,-0.211 0.116,-0.422 0.166,-0.635 0.036,-0.153 0.06,-0.308 0.085,-0.463 0.024,-0.155 0.035,-0.312 0.065,-0.465 0.016,-0.081 0.047,-0.165 0.095,-0.231 0.123,-0.169 0.16,-0.354 0.133,-0.554 -0.012,-0.086 -0.004,-0.158 0.033,-0.241 0.04,-0.088 0.041,-0.196 0.049,-0.295 0.007,-0.09 0.018,-0.172 0.056,-0.259 0.041,-0.094 0.048,-0.207 0.048,-0.311 0,-0.166 0.008,-0.325 0.14,-0.479 0.097,0 0.219,0.005 0.341,-0.002 0.082,-0.005 0.164,-0.028 0.246,-0.044 0.142,-0.028 0.284,-0.057 0.426,-0.085 0.197,-0.04 0.395,-0.08 0.593,-0.117 0.114,-0.021 0.231,-0.054 0.346,-0.053 0.31,0.003 0.617,-0.013 0.921,-0.071 C 14.56,8.78 14.578,8.779 14.592,8.771 14.8,8.664 15.037,8.615 15.221,8.456 15.279,8.405 15.352,8.368 15.424,8.337 15.583,8.268 15.747,8.21 15.906,8.141 15.977,8.11 16.044,8.066 16.107,8.02 16.216,7.941 16.32,7.855 16.427,7.774 16.459,7.751 16.495,7.733 16.532,7.72 16.71,7.654 16.891,7.596 17.067,7.524 17.213,7.465 17.352,7.392 17.493,7.323 17.584,7.279 17.675,7.235 17.761,7.183 17.833,7.139 17.9,7.088 17.964,7.034 18.11,6.912 18.246,6.776 18.4,6.665 c 0.112,-0.081 0.246,-0.13 0.369,-0.196 0.099,-0.053 0.201,-0.1 0.29,-0.167 0.156,-0.117 0.305,-0.246 0.454,-0.373 0.098,-0.082 0.193,-0.169 0.281,-0.246 0.216,0.036 0.349,0.184 0.509,0.284 0.152,0.095 0.286,0.214 0.472,0.252 0.083,0.017 0.154,0.089 0.23,0.136 0.07,0.043 0.143,0.068 0.224,0.037 C 21.335,6.353 21.375,6.261 21.322,6.165 21.181,5.909 21.038,5.655 20.893,5.402 20.835,5.3 20.769,5.203 20.705,5.106 20.622,4.979 20.609,4.842 20.648,4.702 20.717,4.456 20.837,4.231 20.986,4.027 21.182,3.76 21.402,3.51 21.605,3.248 21.683,3.147 21.754,3.037 21.812,2.923 21.92,2.708 22.097,2.548 22.241,2.363 22.399,2.159 22.512,1.94 22.554,1.685 c 0.007,-0.039 0.02,-0.076 0.032,-0.113 0.098,-0.287 0.194,-0.573 0.295,-0.858 0.099,-0.281 0.205,-0.558 0.304,-0.839 0.047,-0.132 0.107,-0.265 0.121,-0.402 0.02,-0.186 0.113,-0.339 0.174,-0.507 0.059,-0.163 0.114,-0.327 0.165,-0.493 0.056,-0.188 0.098,-0.381 0.16,-0.567 0.067,-0.202 0.146,-0.398 0.171,-0.614 0.025,-0.219 0.134,-0.31 0.36,-0.308 0.157,10e-4 0.287,-0.075 0.406,-0.148 0.19,-0.116 0.379,-0.177 0.6,-0.151 0.095,0.011 0.192,10e-4 0.287,0.004 0.092,0.002 0.175,-0.006 0.255,-0.066 0.038,-0.03 0.106,-0.038 0.157,-0.032 0.223,0.024 0.433,-0.05 0.65,-0.073 0.016,-0.002 0.031,-0.012 0.047,-0.019 0.115,-0.053 0.23,-0.105 0.378,-0.173 -0.152,-0.053 -0.284,-0.091 -0.409,-0.146 -0.159,-0.07 -0.316,-0.146 -0.466,-0.232 -0.264,-0.151 -0.519,-0.315 -0.783,-0.466 -0.076,-0.043 -0.167,-0.075 -0.254,-0.085 -0.225,-0.027 -0.414,-0.136 -0.609,-0.236 -0.075,-0.039 -0.147,-0.084 -0.223,-0.119 -0.127,-0.059 -0.225,-0.137 -0.269,-0.279 -0.021,-0.067 -0.069,-0.127 -0.111,-0.186 -0.107,-0.15 -0.184,-0.309 -0.178,-0.498 0.001,-0.017 0.004,-0.036 -0.001,-0.051 -0.1,-0.292 -0.072,-0.607 -0.182,-0.901 -0.107,-0.287 -0.2,-0.583 -0.244,-0.891 -0.02,-0.142 -0.084,-0.278 -0.128,-0.417 -0.066,-0.209 -0.148,-0.414 -0.193,-0.627 -0.039,-0.19 -0.113,-0.363 -0.185,-0.539 -0.017,-0.042 -0.041,-0.083 -0.046,-0.127 -0.046,-0.386 -0.258,-0.713 -0.384,-1.071 -0.106,-0.303 -0.283,-0.574 -0.415,-0.863 -0.114,-0.247 -0.258,-0.47 -0.397,-0.699 -0.02,-0.034 -0.036,-0.075 -0.065,-0.097 -0.145,-0.109 -0.209,-0.276 -0.31,-0.416 -0.069,-0.097 -0.083,-0.192 -0.021,-0.299 0.042,-0.073 0.073,-0.152 0.11,-0.228 0.111,-0.233 0.221,-0.466 0.334,-0.698 0.024,-0.05 0.058,-0.094 0.088,-0.141 0.045,-0.069 0.09,-0.138 0.146,-0.224 -0.092,-0.054 -0.164,-0.105 -0.244,-0.143 -0.036,-0.017 -0.086,-0.019 -0.126,-0.009 -0.092,0.024 -0.183,0.055 -0.271,0.091 -0.192,0.08 -0.379,0.171 -0.574,0.243 -0.081,0.03 -0.175,0.028 -0.264,0.035 -0.148,0.012 -0.304,-0.033 -0.445,0.066 -0.025,-0.018 -0.058,-0.029 -0.067,-0.05 -0.062,-0.134 -0.165,-0.221 -0.289,-0.295 -0.07,-0.042 -0.134,-0.109 -0.176,-0.179 -0.138,-0.23 -0.353,-0.338 -0.597,-0.407 -0.159,-0.045 -0.307,-0.103 -0.418,-0.236 -0.034,-0.041 -0.091,-0.063 -0.139,-0.093 -0.042,-0.027 -0.09,-0.048 -0.128,-0.079 -0.247,-0.202 -0.488,-0.412 -0.74,-0.608 -0.131,-0.102 -0.279,-0.184 -0.421,-0.272 -0.119,-0.073 -0.237,-0.151 -0.362,-0.211 -0.089,-0.044 -0.191,-0.057 -0.284,-0.092 -0.131,-0.049 -0.257,-0.111 -0.389,-0.159 -0.326,-0.118 -0.62,-0.316 -0.965,-0.391 -0.141,-0.03 -0.274,-0.096 -0.413,-0.138 -0.257,-0.077 -0.516,-0.149 -0.775,-0.22 -0.038,-0.011 -0.079,-0.018 -0.117,-0.013 -0.118,0.017 -0.229,-0.012 -0.322,-0.074 -0.197,-0.129 -0.416,-0.122 -0.634,-0.127 -0.175,-0.004 -0.354,-0.003 -0.487,-0.142 -0.041,-0.041 -0.071,-0.097 -0.091,-0.151 -0.028,-0.078 -0.04,-0.161 -0.062,-0.241 -0.023,-0.081 -0.046,-0.162 -0.077,-0.24 -0.059,-0.148 -0.052,-0.318 -0.173,-0.449 -0.045,-0.048 -0.037,-0.148 -0.05,-0.225 -0.022,-0.143 -0.042,-0.287 -0.064,-0.431 -0.006,-0.039 -0.017,-0.077 -0.019,-0.116 -0.03,-0.485 -0.134,-0.956 -0.259,-1.424 -0.023,-0.087 -0.027,-0.178 -0.047,-0.265 -0.043,-0.181 -0.093,-0.359 -0.136,-0.539 -0.027,-0.114 -0.047,-0.23 -0.07,-0.345 -0.018,-0.088 -0.035,-0.176 -0.051,-0.264 -0.019,-0.105 -0.048,-0.21 -0.052,-0.315 -0.003,-0.123 -0.039,-0.231 -0.116,-0.365 -0.055,0.178 -0.148,0.316 -0.147,0.487 0.001,0.096 -10e-4,0.191 0.002,0.287 0.002,0.08 -10e-4,0.157 -0.06,0.221 -0.014,0.016 -0.029,0.041 -0.027,0.06 0.026,0.203 -0.109,0.371 -0.121,0.57 -0.008,0.134 -0.08,0.265 -0.124,0.397 -0.007,0.021 -0.021,0.04 -0.026,0.062 -0.051,0.211 -0.117,0.42 -0.144,0.634 -0.023,0.181 -0.076,0.35 -0.13,0.521 -0.01,0.032 -0.029,0.062 -0.036,0.095 -0.043,0.202 -0.08,0.406 -0.126,0.608 -0.098,0.432 -0.198,0.863 -0.3,1.294 -0.012,0.048 -0.04,0.092 -0.064,0.146 -0.218,0 -0.431,-0.002 -0.644,0.001 -0.203,0.002 -0.405,0.008 -0.607,0.016 -0.045,0.001 -0.095,0.005 -0.132,0.026 -0.17,0.096 -0.358,0.077 -0.541,0.095 -0.082,0.009 -0.169,0.024 -0.242,0.061 -0.191,0.096 -0.391,0.142 -0.602,0.133 -0.29,-0.013 -0.55,0.059 -0.8,0.21 -0.269,0.161 -0.556,0.293 -0.835,0.439 -0.044,0.023 -0.088,0.048 -0.13,0.076 -0.149,0.098 -0.293,0.206 -0.448,0.293 -0.111,0.063 -0.242,0.088 -0.354,0.15 -0.161,0.089 -0.334,0.167 -0.43,0.34 -0.011,0.019 -0.027,0.042 -0.045,0.048 -0.154,0.051 -0.238,0.185 -0.347,0.288 -0.036,0.035 -0.071,0.077 -0.114,0.098 -0.321,0.152 -0.56,0.41 -0.824,0.635 -0.072,0.062 -0.15,0.118 -0.222,0.181 -0.105,0.092 -0.204,0.192 -0.311,0.281 -0.112,0.093 -0.232,0.175 -0.349,0.263 -0.156,-0.083 -0.304,-0.14 -0.419,-0.267 -0.072,-0.082 -0.18,-0.131 -0.274,-0.193 -0.155,-0.102 -0.311,-0.201 -0.466,-0.303 -0.046,-0.031 -0.088,-0.068 -0.133,-0.101 -0.091,-0.068 -0.177,-0.143 -0.305,-0.115 -0.02,0.005 -0.049,0.004 -0.064,-0.008 -0.12,-0.089 -0.239,-0.18 -0.355,-0.273 -0.201,-0.162 -0.397,-0.329 -0.6,-0.487 -0.041,-0.031 -0.106,-0.042 -0.16,-0.043 -0.137,-0.003 -0.232,0.136 -0.171,0.258 0.04,0.081 0.093,0.149 0.063,0.25 -0.007,0.024 0.028,0.076 0.056,0.093 0.172,0.101 0.252,0.275 0.333,0.437 0.141,0.279 0.32,0.526 0.524,0.759 0.115,0.131 0.23,0.262 0.344,0.393 0.014,0.017 0.035,0.035 0.038,0.054 0.043,0.295 0.249,0.523 0.325,0.822 -0.026,0.039 -0.059,0.09 -0.095,0.14 -0.189,0.258 -0.38,0.515 -0.568,0.774 -0.02,0.027 -0.033,0.059 -0.048,0.089 -0.119,0.248 -0.258,0.479 -0.453,0.678 -0.093,0.095 -0.153,0.221 -0.221,0.337 -0.049,0.082 -0.081,0.174 -0.13,0.256 -0.057,0.094 -0.085,0.192 -0.087,0.303 -10e-4,0.053 -0.024,0.108 -0.047,0.157 -0.084,0.173 -0.172,0.346 -0.147,0.545 0.025,0.197 -0.049,0.377 -0.087,0.561 -0.052,0.251 -0.145,0.494 -0.22,0.74 -0.005,0.016 -0.017,0.03 -0.02,0.046 -0.046,0.241 -0.09,0.482 -0.134,0.723 -0.006,0.032 0.005,0.074 -0.012,0.098 -0.104,0.151 -0.073,0.324 -0.086,0.49 -0.002,0.028 0.007,0.061 -0.004,0.083 -0.087,0.162 -0.06,0.339 -0.075,0.511 -0.009,0.105 -0.033,0.209 -0.057,0.312 -0.03,0.123 -0.032,0.25 -0.097,0.37 -0.044,0.08 -0.029,0.198 -0.022,0.298 0.011,0.162 -0.026,0.311 -0.097,0.464 -0.149,0.002 -0.281,0.052 -0.387,0.163 -0.018,0.019 -0.048,0.032 -0.074,0.038 -0.185,0.041 -0.372,0.073 -0.555,0.121 -0.123,0.032 -0.239,0.09 -0.361,0.126 -0.199,0.058 -0.4,0.106 -0.6,0.158 -0.06,0.016 -0.12,0.028 -0.18,0.043 -0.032,0.009 -0.063,0.028 -0.096,0.032 -0.382,0.045 -0.753,0.182 -1.147,0.129 -0.054,-0.008 -0.111,-10e-4 -0.171,-10e-4 -0.019,0.113 0.053,0.177 0.131,0.214 0.089,0.042 0.191,0.071 0.288,0.076 0.147,0.007 0.287,0.023 0.429,0.07 0.114,0.037 0.244,0.03 0.367,0.034 0.167,0.005 0.331,-0.006 0.492,0.077 0.116,0.06 0.255,0.077 0.387,0.1 0.2,0.036 0.382,0.124 0.569,0.196 0.097,0.037 0.165,0.127 0.281,0.138 0.121,0.013 0.242,0.041 0.359,0.075 0.112,0.032 0.23,0.064 0.326,0.126 0.105,0.067 0.202,0.087 0.313,0.042 0.088,0.152 0.151,0.298 0.135,0.47 -0.009,0.101 0.006,0.203 0.003,0.304 -0.005,0.138 0.007,0.27 0.092,0.386 0.003,0.004 0.006,0.009 0.007,0.015 0.043,0.178 0.086,0.357 0.129,0.536 0.014,0.059 0.022,0.122 0.044,0.178 0.086,0.219 0.178,0.436 0.265,0.654 0.099,0.249 0.156,0.51 0.214,0.771 0.006,0.027 0.012,0.057 0.026,0.08 0.182,0.293 0.231,0.643 0.407,0.939 0.071,0.12 0.109,0.259 0.17,0.385 0.128,0.262 0.262,0.521 0.393,0.782 0.055,0.11 0.117,0.211 0.216,0.292 0.043,0.036 0.06,0.121 0.062,0.184 0.005,0.169 -0.027,0.341 -0.003,0.505 0.032,0.217 -0.09,0.352 -0.193,0.511 -0.192,0.298 -0.375,0.602 -0.539,0.916 -0.178,0.34 -0.359,0.674 -0.628,0.954 -0.062,0.065 -0.106,0.145 -0.16,0.217 -0.245,0.329 -0.492,0.656 -0.736,0.986 -0.067,0.09 -0.123,0.187 -0.186,0.28 -0.165,0.241 -0.335,0.479 -0.495,0.724 -0.076,0.116 -0.134,0.245 -0.212,0.389 0.158,0.01 0.278,0.024 0.406,-0.077 0.176,-0.137 0.381,-0.236 0.571,-0.357 0.084,-0.054 0.168,-0.112 0.24,-0.182 0.201,-0.197 0.389,-0.407 0.636,-0.55 0.053,-0.031 0.09,-0.086 0.14,-0.122 0.086,-0.061 0.171,-0.133 0.268,-0.17 0.12,-0.045 0.21,-0.122 0.304,-0.203 C -0.149,6.81 0.015,6.7 0.171,6.581 0.345,6.448 0.519,6.316 0.69,6.179 0.905,6.007 1.116,5.833 1.39,5.752 1.506,5.718 1.614,5.654 1.724,5.6 1.769,5.578 1.81,5.549 1.851,5.52 2.027,5.394 2.225,5.461 2.258,5.676 2.277,5.797 2.351,5.846 2.435,5.9 2.457,5.914 2.489,5.929 2.512,5.924 2.709,5.883 2.861,5.982 3.012,6.08 3.338,6.291 3.661,6.506 3.989,6.713 4.124,6.799 4.263,6.869 4.425,6.914 4.737,7 5.038,7.124 5.323,7.285 5.601,7.442 5.892,7.573 6.197,7.675 6.398,7.741 6.58,7.859 6.773,7.948 6.972,8.038 7.171,8.129 7.376,8.204 7.649,8.305 7.924,8.394 8.185,8.53 8.376,8.63 8.592,8.683 8.799,8.752 8.91,8.789 9.025,8.817 9.138,8.851 9.336,8.91 9.534,8.971 9.733,9.03 9.874,9.072 9.892,9.091 9.909,9.237 9.914,9.276 9.911,9.32 9.928,9.353 c 0.096,0.19 0.085,0.394 0.08,0.596 -0.005,0.231 0.091,0.439 0.135,0.658 0.087,0.43 0.177,0.859 0.263,1.289 0.012,0.06 0.007,0.123 0.011,0.185 0.005,0.061 -0.007,0.134 0.021,0.182 0.101,0.166 0.074,0.347 0.08,0.524 0.003,0.106 -0.004,0.211 0.072,0.305 0.027,0.032 0.011,0.097 0.022,0.146 0.013,0.055 0.034,0.108 0.051,0.162 0.018,-0.002 0.036,-0.004 0.054,-0.006"
             style="fill:#fff;fill-opacity:1;fill-rule:nonzero;stroke:none"
             id="path5633"
             inkscape:connector-curvature="0" />
        </g>
        <g
           id="g5635"
           transform="translate(229.2332,306.2033)">
          <path
             d="m 0,0 h -0.003 c 0,0.113 -0.001,0.225 0,0.337 C -0.001,0.573 -0.045,0.794 -0.19,0.988 -0.226,1.036 -0.246,1.097 -0.268,1.155 -0.407,1.531 -0.644,1.832 -0.971,2.06 -1.12,2.164 -1.281,2.242 -1.463,2.274 -1.964,2.363 -2.425,2.262 -2.849,1.987 -3.139,1.798 -3.346,1.539 -3.516,1.239 -3.664,0.979 -3.776,0.718 -3.755,0.412 -3.749,0.328 -3.766,0.243 -3.76,0.159 c 0.011,-0.144 -0.017,-0.289 0.042,-0.432 0.085,-0.206 0.2,-0.388 0.351,-0.55 0.111,-0.118 0.22,-0.238 0.325,-0.361 0.209,-0.243 0.452,-0.417 0.788,-0.418 0.168,0 0.343,-0.027 0.503,0.011 0.243,0.058 0.484,0.09 0.733,0.087 0.111,-0.002 0.207,0.04 0.289,0.118 0.13,0.125 0.275,0.236 0.391,0.371 0.191,0.222 0.373,0.455 0.339,0.779 C -0.007,-0.158 0,-0.079 0,0 m -0.428,-5.666 c -0.001,-0.267 0.007,-0.486 0.089,-0.704 0.082,-0.219 0.123,-0.453 0.19,-0.678 0.053,-0.177 0.16,-0.32 0.301,-0.438 C 0.2,-7.526 0.249,-7.563 0.295,-7.605 0.76,-8.03 1.3,-8.201 1.927,-8.109 c 0.799,0.118 1.567,0.857 1.578,1.745 0.003,0.223 -0.002,0.458 -0.07,0.666 C 3.341,-5.406 3.206,-5.122 3.048,-4.859 2.861,-4.547 2.594,-4.318 2.203,-4.294 2.135,-4.289 2.067,-4.298 2.001,-4.29 1.925,-4.281 1.851,-4.259 1.776,-4.242 1.504,-4.183 1.229,-4.179 0.962,-4.25 0.859,-4.277 0.763,-4.316 0.655,-4.312 0.61,-4.31 0.56,-4.31 0.522,-4.329 0.213,-4.486 -0.096,-4.628 -0.252,-4.988 -0.355,-5.225 -0.465,-5.444 -0.428,-5.666 m 6.171,3.263 c 0.101,0.005 0.203,0.003 0.302,0.019 0.071,0.011 0.159,0.026 0.201,0.073 0.126,0.141 0.297,0.171 0.461,0.227 0.38,0.13 0.704,0.341 0.954,0.664 0.531,0.687 0.556,1.651 0.055,2.347 C 7.028,1.884 5.552,2.188 4.472,0.95 4.234,0.677 4.054,0.35 4.085,-0.045 4.094,-0.157 4.087,-0.27 4.079,-0.382 4.073,-0.453 4.047,-0.523 4.04,-0.594 4.028,-0.721 4,-0.852 4.02,-0.975 4.062,-1.224 4.2,-1.435 4.355,-1.629 4.445,-1.741 4.551,-1.869 4.678,-1.917 4.829,-1.975 4.928,-2.078 5.044,-2.171 5.096,-2.214 5.152,-2.251 5.207,-2.29 5.37,-2.406 5.556,-2.4 5.743,-2.403 M 1.339,3.82 C 1.247,3.806 1.186,3.8 1.126,3.788 1.084,3.779 1.037,3.772 1.004,3.747 0.896,3.664 0.779,3.683 0.665,3.715 0.545,3.749 0.514,3.866 0.581,3.97 0.726,4.194 0.884,4.412 1.007,4.647 1.215,5.049 1.397,5.465 1.596,5.872 1.735,6.154 1.884,6.431 2.027,6.711 2.063,6.781 2.101,6.85 2.129,6.924 2.158,6.998 2.183,7.067 2.263,7.109 2.293,7.124 2.321,7.182 2.318,7.218 2.301,7.403 2.369,7.544 2.507,7.663 2.565,7.714 2.607,7.783 2.661,7.851 2.823,7.773 2.952,7.694 2.998,7.501 3.039,7.326 3.107,7.159 3.095,6.975 3.094,6.953 3.098,6.928 3.109,6.91 3.231,6.716 3.27,6.498 3.321,6.279 3.382,6.018 3.47,5.763 3.555,5.509 3.632,5.276 3.716,5.046 3.805,4.817 3.852,4.694 3.915,4.576 3.97,4.455 3.983,4.425 3.991,4.392 4,4.36 4.024,4.28 4.049,4.201 4.07,4.121 4.086,4.062 4.104,4.002 4.108,3.942 4.115,3.847 4.112,3.751 4.111,3.655 4.108,3.467 4.038,3.39 3.85,3.373 3.778,3.366 3.704,3.371 3.631,3.369 3.582,3.367 3.533,3.363 3.461,3.359 3.461,3.177 3.458,3.005 3.461,2.832 3.465,2.642 3.47,2.451 3.483,2.261 3.487,2.212 3.513,2.148 3.551,2.12 3.607,2.079 3.654,2.137 3.692,2.177 3.755,2.244 3.827,2.286 3.917,2.314 3.985,2.336 4.041,2.405 4.096,2.458 4.128,2.488 4.14,2.543 4.175,2.565 4.391,2.705 4.594,2.865 4.844,2.953 5.171,3.069 5.508,3.122 5.85,3.155 6.002,3.169 6.152,3.195 6.304,3.201 6.432,3.206 6.565,3.206 6.688,3.178 6.968,3.116 7.244,3.034 7.522,2.962 7.623,2.935 7.692,2.868 7.773,2.806 7.983,2.647 8.201,2.494 8.433,2.37 8.58,2.292 8.689,2.194 8.778,2.061 8.868,1.925 8.959,1.789 9.058,1.66 9.116,1.585 9.161,1.505 9.149,1.414 9.128,1.261 9.205,1.163 9.32,1.094 9.444,1.02 9.489,0.919 9.509,0.78 9.552,0.485 9.616,0.194 9.665,-0.101 9.678,-0.182 9.678,-0.268 9.671,-0.351 9.657,-0.531 9.626,-0.709 9.618,-0.889 9.604,-1.232 9.486,-1.534 9.296,-1.816 9.12,-2.077 8.955,-2.346 8.778,-2.607 8.728,-2.679 8.664,-2.75 8.591,-2.797 8.214,-3.043 7.832,-3.282 7.414,-3.455 7.31,-3.498 7.204,-3.537 7.099,-3.576 7.046,-3.596 6.986,-3.603 6.94,-3.632 6.77,-3.74 6.593,-3.805 6.386,-3.789 6.342,-3.785 6.279,-3.827 6.251,-3.867 6.209,-3.927 6.255,-3.984 6.3,-4.03 6.483,-4.222 6.689,-4.381 6.923,-4.513 7.069,-4.595 7.198,-4.729 7.298,-4.866 7.433,-5.051 7.595,-5.183 7.808,-5.26 7.823,-5.265 7.844,-5.262 7.857,-5.271 8.019,-5.393 8.139,-5.3 8.256,-5.194 c 0.054,0.049 0.108,0.097 0.166,0.151 0.006,0.06 0.007,0.128 0.019,0.194 0.021,0.125 0.078,0.184 0.176,0.196 0.112,0.012 0.241,-0.053 0.283,-0.144 0.092,-0.198 0.186,-0.395 0.277,-0.593 0.018,-0.04 0.03,-0.084 0.043,-0.127 0.027,-0.092 0.049,-0.184 0.08,-0.275 0.069,-0.206 0.171,-0.386 0.354,-0.519 0.063,-0.046 0.106,-0.131 0.142,-0.205 0.113,-0.238 0.212,-0.482 0.329,-0.718 0.061,-0.123 0.148,-0.234 0.222,-0.352 0.023,-0.037 0.049,-0.077 0.055,-0.119 0.049,-0.309 0.15,-0.598 0.306,-0.869 0.028,-0.049 0.091,-0.106 0.029,-0.166 -0.063,-0.062 -0.143,-0.038 -0.201,0.007 -0.067,0.054 -0.138,0.068 -0.218,0.067 -0.083,0 -0.154,0.028 -0.209,0.093 -0.07,0.084 -0.159,0.11 -0.269,0.111 -0.105,0 -0.21,0.029 -0.314,0.047 -0.16,0.029 -0.318,0.074 -0.478,0.085 -0.32,0.022 -0.642,0.018 -0.962,0.038 -0.443,0.027 -0.886,0.06 -1.327,0.104 -0.099,0.01 -0.193,0.075 -0.278,0.109 -0.003,0.038 -0.006,0.049 -0.004,0.06 0.039,0.241 0.186,0.407 0.372,0.552 0.108,0.085 0.106,0.138 0.018,0.239 -0.047,0.054 -0.102,0.103 -0.16,0.144 -0.184,0.131 -0.369,0.258 -0.556,0.383 -0.139,0.092 -0.284,0.177 -0.424,0.269 -0.029,0.02 -0.045,0.058 -0.072,0.083 C 5.625,-6.321 5.59,-6.28 5.556,-6.277 5.497,-6.274 5.474,-6.326 5.468,-6.381 5.449,-6.532 5.44,-6.684 5.411,-6.833 5.339,-7.198 5.22,-7.549 5.069,-7.889 5.04,-7.953 5.001,-7.988 4.932,-7.995 4.898,-7.998 4.864,-8.004 4.833,-8.015 4.637,-8.085 4.523,-8.13 4.495,-8.431 4.469,-8.709 4.345,-8.97 4.055,-9.095 3.932,-9.148 3.804,-9.191 3.684,-9.249 3.615,-9.282 3.543,-9.326 3.497,-9.384 3.442,-9.456 3.375,-9.496 3.296,-9.529 2.819,-9.725 2.325,-9.851 1.812,-9.908 1.745,-9.915 1.678,-9.923 1.612,-9.939 1.188,-10.04 0.774,-9.937 0.359,-9.872 c -0.064,0.01 -0.127,0.043 -0.185,0.076 -0.255,0.144 -0.518,0.266 -0.803,0.345 -0.129,0.036 -0.265,0.103 -0.295,0.268 -0.014,0.073 -0.07,0.106 -0.131,0.143 -0.129,0.078 -0.259,0.158 -0.372,0.257 -0.068,0.06 -0.106,0.155 -0.153,0.237 -0.08,0.142 -0.156,0.285 -0.233,0.427 -0.145,0.267 -0.297,0.53 -0.429,0.802 -0.042,0.086 -0.031,0.197 -0.044,0.297 -0.011,0.077 -0.008,0.159 -0.033,0.231 -0.03,0.088 -0.112,0.091 -0.168,0.017 -0.033,-0.044 -0.062,-0.091 -0.101,-0.128 -0.11,-0.102 -0.223,-0.199 -0.321,-0.316 -0.01,-0.004 -0.021,-0.01 -0.031,-0.01 -0.362,0.007 -0.373,-0.229 -0.316,-0.496 0.012,-0.059 0.028,-0.112 0.028,-0.175 0,-0.093 0.026,-0.188 0.107,-0.256 0.088,-0.073 0.114,-0.169 0.073,-0.274 -0.042,-0.108 -0.135,-0.137 -0.246,-0.143 -0.07,-0.004 -0.139,-0.031 -0.209,-0.048 -0.065,-0.016 -0.13,-0.031 -0.195,-0.047 -0.059,-0.014 -0.119,-0.026 -0.178,-0.042 -0.048,-0.014 -0.095,-0.046 -0.144,-0.046 -0.247,-0.002 -0.448,-0.139 -0.662,-0.229 -0.12,-0.05 -0.232,-0.075 -0.357,-0.074 -0.36,0.002 -0.72,-0.001 -1.081,0.011 -0.163,0.005 -0.311,-0.024 -0.448,-0.112 -0.094,-0.061 -0.182,-0.086 -0.299,-0.035 -0.088,0.038 -0.198,0.027 -0.299,0.037 -0.037,0.004 -0.075,0.006 -0.139,0.011 0.024,0.07 0.027,0.137 0.063,0.177 0.14,0.158 0.225,0.343 0.315,0.532 0.192,0.407 0.402,0.805 0.603,1.208 0.028,0.055 0.053,0.112 0.078,0.168 0.122,0.278 0.247,0.554 0.364,0.834 0.087,0.208 0.175,0.413 0.323,0.587 0.031,0.036 0.042,0.091 0.056,0.139 0.043,0.156 0.083,0.314 0.129,0.491 0.162,-0.135 0.29,-0.294 0.509,-0.297 0.06,-0.131 0.119,-0.26 0.19,-0.416 0.132,0.091 0.249,0.155 0.344,0.244 0.121,0.113 0.233,0.233 0.32,0.384 0.081,0.142 0.221,0.254 0.348,0.364 0.351,0.301 0.676,0.624 0.941,1.005 0.059,0.086 0.147,0.153 0.226,0.224 0.065,0.058 0.101,0.119 0.06,0.224 -0.153,0.023 -0.312,0.049 -0.473,0.07 -0.136,0.018 -0.259,0.059 -0.378,0.131 -0.232,0.138 -0.48,0.241 -0.743,0.315 -0.136,0.038 -0.27,0.107 -0.307,0.279 -0.011,0.049 -0.073,0.093 -0.121,0.127 -0.096,0.068 -0.2,0.124 -0.297,0.19 -0.12,0.082 -0.189,0.2 -0.245,0.335 -0.055,0.134 -0.136,0.256 -0.206,0.384 -0.15,0.276 -0.306,0.55 -0.448,0.83 -0.036,0.071 -0.031,0.164 -0.043,0.246 -0.002,0.011 0.003,0.023 0.002,0.034 -0.039,0.241 0.035,0.477 0.027,0.718 -0.007,0.241 0.003,0.483 -0.002,0.725 -0.002,0.099 -0.025,0.197 -0.045,0.343 0.067,0.111 0.151,0.27 0.254,0.416 0.129,0.184 0.247,0.372 0.334,0.581 0.033,0.08 0.095,0.151 0.154,0.216 0.125,0.136 0.264,0.26 0.385,0.401 0.176,0.205 0.39,0.347 0.634,0.46 0.235,0.107 0.455,0.246 0.712,0.301 0.021,0.005 0.043,0.016 0.06,0.029 0.167,0.123 0.353,0.161 0.557,0.141 0.1,-0.01 0.203,0.004 0.303,-0.004 0.071,-0.006 0.14,-0.03 0.209,-0.048 0.054,-0.014 0.108,-0.045 0.161,-0.043 0.205,0.01 0.4,-0.039 0.597,-0.082 0.081,-0.017 0.166,-0.021 0.25,-0.025 0.106,-0.005 0.214,0.007 0.309,-0.058 0.022,-0.015 0.055,-0.022 0.081,-0.02 C -0.579,3.727 -0.466,3.68 -0.341,3.627 -0.161,3.552 -0.028,3.433 0.106,3.309 0.255,3.171 0.396,3.026 0.541,2.886 0.618,2.812 0.702,2.744 0.772,2.665 0.822,2.608 0.861,2.538 0.893,2.469 0.942,2.363 1.027,2.299 1.126,2.308 1.223,2.318 1.308,2.397 1.321,2.51 1.337,2.638 1.34,2.768 1.346,2.897 1.357,3.133 1.369,3.369 1.373,3.606 1.374,3.676 1.351,3.746 1.339,3.82"
             style="fill:#fff;fill-opacity:1;fill-rule:nonzero;stroke:none"
             id="path5637"
             inkscape:connector-curvature="0" />
        </g>
      </g>
    </g>
  </g>
</svg>
