<!-- Generated by IcoMoon.io -->
<svg version="1.1" xmlns="http://www.w3.org/2000/svg" width="32" height="32" viewBox="0 0 32 32">
<title>allies-flesh-eater-courts</title>
<path d="M6.661 11.773c-0.018 0.085-0.017 0.17-0.053 0.236-0.148 0.272-0.208 0.574-0.308 0.862-0.053 0.151-0.067 0.317-0.099 0.475-0.018 0.086-0.036 0.172-0.057 0.257-0.037 0.157-0.091 0.312-0.11 0.471-0.019 0.151-0.004 0.305-0.002 0.458 0.004 0.375 0.009 0.749 0.011 1.124 0.004 0.339 0.004 0.678 0.004 1.018 0.001 0.241 0.015 0.483-0.005 0.723-0.022 0.248 0.113 0.467 0.107 0.709 0 0.004 0.005 0.008 0.007 0.013 0.024 0.094 0.048 0.188 0.070 0.283 0.011 0.043 0.018 0.087 0.034 0.128 0.032 0.077 0.087 0.149 0.102 0.228 0.037 0.192 0.091 0.378 0.136 0.568 0.029 0.119 0.048 0.245 0.101 0.352 0.060 0.117 0.052 0.237 0.076 0.356 0.023 0.117 0.106 0.219 0.092 0.352-0.004 0.049 0.012 0.107 0.034 0.153 0.091 0.192 0.178 0.384 0.199 0.598 0.003 0.033 0.013 0.070 0.030 0.099 0.115 0.2 0.186 0.425 0.349 0.598 0.068 0.071 0.118 0.158 0.183 0.232 0.165 0.188 0.335 0.372 0.504 0.556 0.106 0.115 0.248 0.196 0.32 0.344 0.013 0.026 0.035 0.049 0.058 0.067 0.141 0.107 0.283 0.213 0.425 0.319 0.040 0.030 0.084 0.055 0.119 0.088 0.114 0.108 0.222 0.222 0.336 0.329 0.078 0.073 0.164 0.14 0.246 0.209 0.169 0.143 0.329 0.297 0.546 0.371 0.055 0.019 0.108 0.051 0.155 0.086 0.099 0.073 0.188 0.158 0.29 0.228 0.093 0.064 0.189 0.136 0.295 0.166 0.302 0.089 0.554 0.249 0.765 0.48 0.019 0.021 0.045 0.043 0.071 0.050 0.314 0.090 0.596 0.285 0.938 0.285 0.047 0.001 0.093 0.029 0.141 0.045 0.225 0.073 0.454 0.126 0.695 0.105 0.117-0.010 0.236-0.005 0.354 0 0.042 0.002 0.086 0.018 0.124 0.038 0.166 0.088 0.341 0.151 0.529 0.157 0.222 0.008 0.444 0.004 0.666 0.005 0.123 0 0.243 0.002 0.363 0.050 0.080 0.032 0.174 0.034 0.262 0.035 0.474 0.003 0.948 0.003 1.422 0 0.078-0.001 0.158-0.016 0.232-0.038 0.122-0.037 0.242-0.084 0.362-0.129 0.224-0.085 0.452-0.127 0.693-0.098 0.1 0.011 0.207-0.003 0.308-0.020 0.218-0.037 0.436-0.078 0.65-0.129 0.118-0.028 0.244-0.059 0.344-0.123 0.186-0.118 0.351-0.268 0.574-0.323 0.040-0.011 0.076-0.046 0.107-0.077 0.076-0.075 0.162-0.125 0.263-0.158 0.074-0.024 0.145-0.061 0.213-0.099 0.235-0.133 0.445-0.307 0.697-0.412 0.087-0.036 0.166-0.083 0.267-0.058 0.021 0.005 0.052 0 0.069-0.013 0.099-0.073 0.198-0.147 0.291-0.226s0.177-0.172 0.272-0.249c0.168-0.136 0.35-0.255 0.511-0.4 0.215-0.195 0.415-0.405 0.62-0.611 0.066-0.066 0.123-0.14 0.185-0.21 0.172-0.195 0.378-0.364 0.459-0.626 0.010-0.032 0.033-0.060 0.053-0.088 0.119-0.17 0.229-0.344 0.277-0.551 0.011-0.051 0.039-0.104 0.073-0.143 0.172-0.195 0.274-0.431 0.393-0.658 0.043-0.082 0.071-0.172 0.107-0.258 0.079-0.191 0.158-0.382 0.239-0.571 0.033-0.077 0.068-0.152 0.109-0.224 0.077-0.138 0.147-0.276 0.158-0.441 0.005-0.090 0.042-0.182 0.082-0.265 0.075-0.157 0.147-0.318 0.161-0.488 0.026-0.325 0.183-0.625 0.164-0.956-0.001-0.023 0.015-0.047 0.020-0.070 0.032-0.139 0.069-0.277 0.092-0.417 0.021-0.126 0.012-0.258 0.042-0.381 0.055-0.227 0.078-0.454 0.069-0.687-0.004-0.091 0.017-0.188 0.048-0.273 0.033-0.086 0.054-0.167 0.042-0.259-0.007-0.053 0.001-0.108-0.001-0.162-0.004-0.123 0.003-0.248-0.019-0.368-0.048-0.251-0.11-0.499-0.169-0.747-0.026-0.11-0.056-0.219-0.088-0.327-0.063-0.222-0.132-0.443-0.195-0.665s-0.11-0.45-0.18-0.67c-0.038-0.12-0.064-0.236-0.055-0.362 0.004-0.053-0.002-0.11-0.017-0.16-0.057-0.194-0.12-0.385-0.18-0.577-0.033-0.103-0.064-0.207-0.101-0.308-0.081-0.217-0.157-0.437-0.25-0.648-0.077-0.175-0.168-0.346-0.265-0.511-0.092-0.157-0.201-0.305-0.303-0.456-0.044-0.065-0.081-0.137-0.136-0.193-0.18-0.18-0.376-0.347-0.45-0.606-0.003-0.009-0.011-0.016-0.017-0.025-0.113-0.202-0.32-0.32-0.455-0.503-0.008-0.011-0.023-0.019-0.037-0.023-0.152-0.034-0.263-0.125-0.356-0.247-0.029-0.038-0.075-0.063-0.113-0.095-0.156-0.129-0.318-0.251-0.466-0.388-0.302-0.277-0.597-0.562-0.893-0.845-0.121-0.116-0.262-0.189-0.42-0.24-0.054-0.018-0.109-0.047-0.152-0.084-0.114-0.098-0.238-0.151-0.393-0.138-0.059 0.005-0.124-0.018-0.18-0.041-0.081-0.034-0.153-0.091-0.236-0.121-0.13-0.048-0.253-0.102-0.351-0.206-0.089-0.094-0.192-0.167-0.335-0.161-0.045 0.002-0.093-0.025-0.137-0.045-0.152-0.072-0.302-0.134-0.48-0.126-0.221 0.010-0.444-0.004-0.665-0.011-0.058-0.002-0.116-0.015-0.173-0.027-0.063-0.014-0.125-0.028-0.183-0.052-0.149-0.063-0.316-0.073-0.453-0.168-0.1-0.070-0.212-0.099-0.336-0.092-0.133 0.007-0.267 0.004-0.4 0.003-0.085-0.001-0.164 0.011-0.24 0.055-0.048 0.027-0.113 0.033-0.171 0.034-0.316 0.004-0.632 0.004-0.948 0.003-0.239-0.002-0.452 0.111-0.685 0.142-0.014 0.002-0.026 0.012-0.040 0.019-0.236 0.111-0.473 0.222-0.708 0.335-0.035 0.017-0.065 0.045-0.099 0.063-0.069 0.035-0.138 0.071-0.21 0.099-0.183 0.073-0.377 0.122-0.547 0.216-0.248 0.136-0.51 0.232-0.767 0.342-0.23 0.099-0.466 0.19-0.681 0.316-0.239 0.139-0.481 0.266-0.75 0.33-0.072 0.017-0.122 0.050-0.174 0.099-0.106 0.102-0.214 0.206-0.336 0.287s-0.242 0.17-0.393 0.2c-0.036 0.007-0.070 0.036-0.099 0.062-0.071 0.060-0.138 0.126-0.21 0.185-0.11 0.091-0.223 0.177-0.335 0.264-0.194 0.151-0.403 0.279-0.566 0.47-0.104 0.121-0.206 0.252-0.358 0.327-0.064 0.032-0.114 0.092-0.172 0.138-0.138 0.109-0.241 0.262-0.415 0.326-0.024 0.009-0.044 0.040-0.056 0.064-0.119 0.238-0.226 0.482-0.355 0.715-0.261 0.473-0.452 0.973-0.598 1.491-0.034 0.121-0.092 0.217-0.219 0.243zM16.34 32c-0.074-0.144-0.161-0.273-0.153-0.433 0.004-0.074 0.002-0.148 0.002-0.222 0-0.025 0.009-0.055-0.002-0.073-0.079-0.138-0.067-0.301-0.126-0.445-0.010-0.022-0.022-0.045-0.026-0.069-0.033-0.214-0.132-0.412-0.171-0.621-0.039-0.206-0.139-0.399-0.131-0.616 0.004-0.084-0.043-0.171-0.067-0.256-0.051-0.18-0.11-0.357-0.151-0.539-0.044-0.196-0.063-0.398-0.108-0.594-0.058-0.254-0.131-0.505-0.197-0.758-0.017-0.064-0.062-0.079-0.123-0.079-0.32-0.003-0.641-0.007-0.961-0.013-0.058-0.002-0.125-0.001-0.173-0.027-0.146-0.082-0.305-0.060-0.46-0.080-0.077-0.010-0.158-0.024-0.226-0.057-0.168-0.081-0.343-0.121-0.529-0.113-0.249 0.011-0.473-0.051-0.688-0.18-0.236-0.142-0.487-0.258-0.731-0.386-0.039-0.021-0.078-0.041-0.115-0.066-0.13-0.085-0.256-0.18-0.392-0.258-0.092-0.053-0.202-0.077-0.298-0.127-0.152-0.078-0.312-0.152-0.401-0.313-0.007-0.012-0.018-0.027-0.030-0.032-0.15-0.050-0.229-0.183-0.335-0.283-0.018-0.017-0.035-0.037-0.056-0.048-0.341-0.161-0.584-0.447-0.873-0.676-0.127-0.1-0.239-0.218-0.363-0.323-0.076-0.063-0.159-0.116-0.241-0.171-0.018-0.012-0.051-0.025-0.068-0.017-0.088 0.043-0.193 0.075-0.255 0.143-0.119 0.133-0.279 0.202-0.416 0.304-0.145 0.109-0.298 0.207-0.449 0.309-0.073 0.050-0.143 0.107-0.243 0.086-0.022-0.004-0.054-0.003-0.070 0.011-0.105 0.078-0.207 0.16-0.309 0.242-0.176 0.142-0.349 0.286-0.528 0.424-0.033 0.026-0.084 0.033-0.127 0.034-0.128 0.005-0.213-0.121-0.154-0.235 0.035-0.066 0.079-0.121 0.055-0.204-0.008-0.025 0.026-0.076 0.055-0.093 0.148-0.092 0.217-0.244 0.288-0.386 0.109-0.218 0.251-0.411 0.402-0.599 0.112-0.137 0.234-0.266 0.351-0.4 0.017-0.018 0.038-0.038 0.041-0.060 0.034-0.255 0.218-0.448 0.279-0.716-0.019-0.029-0.052-0.077-0.086-0.125-0.165-0.226-0.332-0.452-0.497-0.68-0.019-0.027-0.029-0.063-0.045-0.093-0.105-0.205-0.22-0.401-0.386-0.569-0.081-0.082-0.136-0.192-0.196-0.294-0.050-0.084-0.092-0.174-0.133-0.264-0.024-0.053-0.052-0.111-0.052-0.166 0-0.093-0.023-0.175-0.070-0.251-0.104-0.168-0.111-0.354-0.113-0.542 0-0.058-0.015-0.115-0.026-0.173-0.009-0.048-0.019-0.096-0.032-0.143-0.061-0.223-0.121-0.445-0.184-0.667-0.009-0.033-0.038-0.063-0.040-0.095-0.015-0.216-0.123-0.414-0.117-0.634 0.001-0.028 0.003-0.064-0.012-0.085-0.066-0.096-0.064-0.203-0.069-0.313-0.003-0.097 0.007-0.198-0.049-0.286-0.007-0.011-0.007-0.029-0.007-0.044-0.002-0.236-0.042-0.468-0.087-0.7-0.005-0.028 0.004-0.068-0.011-0.085-0.091-0.106-0.069-0.232-0.075-0.354-0.003-0.069 0.007-0.14-0.005-0.207-0.013-0.071-0.045-0.14-0.070-0.218-0.136-0.004-0.257-0.050-0.354-0.151-0.015-0.016-0.042-0.026-0.066-0.031-0.167-0.035-0.336-0.063-0.501-0.104-0.099-0.026-0.191-0.077-0.289-0.107-0.179-0.052-0.36-0.096-0.54-0.143-0.048-0.012-0.095-0.024-0.143-0.034-0.364-0.077-0.724-0.182-1.104-0.143-0.048 0.005-0.095 0.001-0.15 0.001 0.002-0.104 0.062-0.154 0.129-0.195 0.087-0.054 0.184-0.069 0.285-0.063 0.11 0.006 0.213-0.014 0.317-0.053 0.077-0.029 0.165-0.030 0.247-0.035 0.093-0.005 0.188 0 0.282-0.001 0.034-0.001 0.070 0.001 0.102-0.008 0.155-0.046 0.305-0.107 0.462-0.14 0.18-0.038 0.344-0.112 0.513-0.176 0.090-0.034 0.154-0.117 0.261-0.127 0.102-0.009 0.203-0.033 0.301-0.062 0.103-0.031 0.21-0.061 0.299-0.116 0.088-0.054 0.169-0.070 0.267-0.031 0.074-0.13 0.133-0.256 0.119-0.408-0.008-0.098 0.006-0.197 0.003-0.296-0.004-0.112 0.012-0.217 0.077-0.31 0.005-0.008 0.011-0.017 0.013-0.026 0.037-0.162 0.073-0.324 0.111-0.485 0.010-0.043 0.018-0.087 0.034-0.128 0.074-0.182 0.153-0.363 0.225-0.545 0.090-0.228 0.142-0.467 0.195-0.705 0.007-0.028 0.013-0.059 0.028-0.084 0.163-0.266 0.208-0.583 0.371-0.85 0.059-0.095 0.085-0.21 0.136-0.312 0.11-0.225 0.223-0.449 0.339-0.672 0.049-0.095 0.095-0.19 0.188-0.258 0.039-0.028 0.055-0.105 0.057-0.159 0.005-0.148-0.022-0.298-0.001-0.444 0.027-0.195-0.083-0.317-0.176-0.46-0.168-0.261-0.327-0.529-0.471-0.805-0.154-0.293-0.309-0.584-0.543-0.824-0.048-0.049-0.086-0.108-0.124-0.166-0.206-0.313-0.425-0.616-0.67-0.901-0.095-0.112-0.166-0.244-0.247-0.367-0.151-0.231-0.303-0.462-0.452-0.694-0.028-0.044-0.044-0.096-0.071-0.157 0.135-0.004 0.243-0.013 0.355 0.076 0.154 0.121 0.335 0.208 0.501 0.313 0.066 0.042 0.133 0.086 0.188 0.141 0.182 0.18 0.355 0.371 0.58 0.503 0.046 0.027 0.078 0.076 0.121 0.107 0.063 0.048 0.124 0.105 0.196 0.129 0.136 0.047 0.234 0.137 0.337 0.231 0.113 0.101 0.246 0.18 0.368 0.272 0.145 0.109 0.297 0.212 0.432 0.334 0.246 0.221 0.526 0.375 0.838 0.48 0.073 0.024 0.138 0.073 0.202 0.118 0.163 0.114 0.324 0.055 0.37-0.141 0.033-0.14 0.123-0.21 0.268-0.202 0.136 0.006 0.249-0.055 0.357-0.125 0.227-0.147 0.453-0.298 0.68-0.445 0.078-0.052 0.157-0.103 0.238-0.151 0.109-0.063 0.219-0.116 0.345-0.152 0.268-0.077 0.529-0.18 0.775-0.319 0.248-0.139 0.507-0.258 0.779-0.35 0.18-0.061 0.343-0.166 0.518-0.246s0.35-0.155 0.53-0.223c0.234-0.088 0.472-0.163 0.695-0.28 0.168-0.088 0.357-0.136 0.538-0.197 0.089-0.031 0.18-0.052 0.269-0.078 0.193-0.057 0.386-0.116 0.579-0.173 0.086-0.025 0.135-0.074 0.132-0.169-0.001-0.039 0.002-0.083 0.018-0.116 0.077-0.153 0.077-0.316 0.068-0.479-0.011-0.213 0.076-0.405 0.117-0.607 0.077-0.377 0.156-0.753 0.231-1.13 0.012-0.057 0.007-0.118 0.012-0.176 0.004-0.055-0.006-0.119 0.020-0.16 0.092-0.146 0.059-0.305 0.067-0.46 0.004-0.089-0.002-0.175 0.060-0.254 0.024-0.030 0.013-0.085 0.023-0.128 0.011-0.049 0.027-0.098 0.047-0.166 0.084 0.073 0.086 0.156 0.106 0.226 0.062 0.218 0.119 0.438 0.17 0.658 0.030 0.129 0.046 0.261 0.065 0.393s0.030 0.263 0.055 0.393c0.013 0.066 0.040 0.135 0.079 0.188 0.109 0.152 0.148 0.318 0.119 0.5-0.011 0.070-0.004 0.129 0.027 0.197 0.035 0.077 0.039 0.171 0.047 0.258 0.007 0.084 0.011 0.161 0.053 0.241 0.036 0.070 0.037 0.162 0.039 0.245 0.004 0.147-0.009 0.297 0.128 0.442 0.075 0 0.181-0.004 0.287 0.002 0.072 0.004 0.15 0.010 0.216 0.037 0.126 0.051 0.255 0.063 0.388 0.078 0.174 0.021 0.346 0.067 0.519 0.103 0.077 0.015 0.153 0.041 0.231 0.045 0.143 0.006 0.287-0.013 0.429 0.003 0.232 0.025 0.467 0.035 0.686 0.152 0.138 0.074 0.276 0.144 0.411 0.227 0.153 0.094 0.332 0.147 0.496 0.225 0.092 0.044 0.18 0.099 0.263 0.158 0.151 0.108 0.289 0.231 0.484 0.271 0.136 0.029 0.267 0.099 0.395 0.159 0.187 0.088 0.371 0.183 0.553 0.279 0.055 0.030 0.105 0.073 0.154 0.114 0.127 0.108 0.246 0.228 0.381 0.325 0.102 0.074 0.224 0.12 0.337 0.179 0.074 0.038 0.155 0.068 0.218 0.12 0.198 0.162 0.388 0.333 0.583 0.498 0.030 0.026 0.065 0.044 0.117 0.078 0.080-0.045 0.172-0.091 0.256-0.145 0.124-0.081 0.236-0.182 0.366-0.249 0.157-0.081 0.32-0.145 0.474-0.233 0.059-0.033 0.126-0.022 0.181 0.021 0.059 0.046 0.075 0.103 0.039 0.169-0.124 0.224-0.249 0.447-0.377 0.669-0.054 0.093-0.115 0.181-0.173 0.272-0.067 0.106-0.080 0.224-0.047 0.342 0.063 0.225 0.173 0.43 0.313 0.616 0.171 0.229 0.359 0.445 0.534 0.671 0.066 0.085 0.124 0.178 0.172 0.274 0.092 0.186 0.242 0.323 0.366 0.481 0.146 0.186 0.253 0.384 0.29 0.619 0.005 0.033 0.019 0.066 0.031 0.099 0.086 0.256 0.172 0.512 0.26 0.768 0.077 0.223 0.159 0.445 0.238 0.668 0.048 0.134 0.114 0.267 0.132 0.405 0.022 0.163 0.102 0.297 0.155 0.444 0.052 0.143 0.099 0.289 0.142 0.434 0.050 0.165 0.089 0.334 0.142 0.496 0.056 0.173 0.127 0.34 0.147 0.525 0.020 0.193 0.119 0.28 0.31 0.276 0.138-0.003 0.257 0.061 0.357 0.127 0.175 0.117 0.355 0.153 0.556 0.136 0.093-0.008 0.188-0.005 0.281-0.002 0.043 0.002 0.099 0.005 0.125 0.032 0.067 0.064 0.145 0.063 0.222 0.053 0.187-0.023 0.362 0.038 0.539 0.070 0.118 0.023 0.226 0.099 0.367 0.165-0.139 0.047-0.257 0.080-0.368 0.127-0.127 0.054-0.252 0.114-0.371 0.182-0.239 0.138-0.472 0.288-0.711 0.425-0.067 0.039-0.146 0.067-0.222 0.077-0.208 0.025-0.382 0.127-0.561 0.221-0.053 0.027-0.103 0.059-0.157 0.083-0.121 0.054-0.217 0.126-0.259 0.261-0.017 0.055-0.060 0.1-0.089 0.151-0.044 0.077-0.114 0.151-0.125 0.232-0.028 0.213-0.092 0.42-0.107 0.636-0.009 0.13-0.055 0.258-0.089 0.386-0.073 0.27-0.175 0.533-0.217 0.812-0.019 0.129-0.080 0.253-0.12 0.378-0.056 0.179-0.126 0.354-0.162 0.536-0.033 0.163-0.098 0.309-0.158 0.46-0.015 0.036-0.036 0.072-0.041 0.11-0.048 0.347-0.232 0.645-0.348 0.967-0.091 0.256-0.216 0.496-0.36 0.726-0.003 0.004-0.006 0.008-0.007 0.012-0.060 0.241-0.229 0.422-0.347 0.631-0.014 0.026-0.029 0.055-0.052 0.071-0.135 0.096-0.187 0.251-0.278 0.378-0.050 0.070-0.058 0.143-0.016 0.223 0.037 0.070 0.069 0.143 0.102 0.213 0.1 0.209 0.199 0.419 0.3 0.627 0.021 0.043 0.054 0.080 0.079 0.121 0.039 0.061 0.075 0.122 0.116 0.189-0.051 0.034-0.088 0.057-0.123 0.083-0.086 0.062-0.169 0.075-0.274 0.027-0.21-0.096-0.427-0.178-0.643-0.26-0.063-0.024-0.133-0.032-0.201-0.040-0.139-0.016-0.284 0.032-0.421-0.041-0.018-0.011-0.082 0.021-0.092 0.047-0.047 0.114-0.139 0.173-0.236 0.236-0.060 0.039-0.118 0.094-0.155 0.156-0.123 0.207-0.317 0.302-0.535 0.364-0.135 0.038-0.261 0.086-0.354 0.201-0.029 0.036-0.080 0.055-0.121 0.084-0.060 0.041-0.12 0.084-0.178 0.129-0.023 0.018-0.040 0.047-0.064 0.060-0.199 0.106-0.336 0.288-0.519 0.412-0.126 0.085-0.254 0.166-0.383 0.246-0.105 0.065-0.208 0.132-0.317 0.186-0.074 0.036-0.158 0.048-0.236 0.076-0.111 0.041-0.219 0.088-0.329 0.129-0.295 0.109-0.562 0.279-0.872 0.357-0.266 0.068-0.522 0.173-0.784 0.254-0.113 0.033-0.231 0.060-0.347 0.064-0.101 0.004-0.2 0.011-0.283 0.066-0.176 0.115-0.373 0.11-0.57 0.114-0.149 0.003-0.296 0.010-0.416 0.118-0.051 0.045-0.087 0.090-0.085 0.162 0.001 0.038-0.010 0.077-0.020 0.114-0.052 0.174-0.106 0.349-0.159 0.522-0.009 0.027-0.016 0.062-0.036 0.078-0.089 0.077-0.089 0.18-0.1 0.284-0.013 0.121-0.034 0.242-0.052 0.364-0.006 0.039-0.018 0.077-0.019 0.116-0.026 0.421-0.119 0.829-0.225 1.235-0.021 0.080-0.025 0.166-0.044 0.246-0.038 0.158-0.083 0.314-0.121 0.472-0.023 0.096-0.041 0.193-0.059 0.289-0.011 0.063-0.019 0.127-0.029 0.19-0.021 0.126-0.039 0.252-0.065 0.377-0.018 0.084-0.048 0.167-0.074 0.25z"></path>
<path d="M22.127 15.824c0.015-0.020 0.025-0.031 0.032-0.044 0.106-0.176 0.090-0.377 0.103-0.569 0.015-0.229 0.001-0.46 0-0.69 0-0.107 0.001-0.213 0.001-0.32 0-0.013 0-0.026-0.002-0.039-0.022-0.216-0.047-0.431-0.068-0.648-0.010-0.107-0.013-0.216-0.023-0.323-0.023-0.284-0.046-0.569-0.074-0.852-0.005-0.059-0.021-0.122-0.052-0.171-0.078-0.122-0.167-0.238-0.253-0.355-0.004-0.005-0.017-0.003-0.047-0.007 0.010 0.055 0.013 0.104 0.026 0.151 0.057 0.202 0.132 0.401 0.173 0.606 0.049 0.249 0.079 0.503 0.105 0.756 0.028 0.276 0.048 0.554 0.061 0.832 0.011 0.243 0.013 0.488 0.010 0.731-0.002 0.186-0.022 0.371-0.026 0.556-0.004 0.125-0.036 0.254 0.033 0.385zM23.574 12.806l-0.023 0.011c0.004 0.026 0.003 0.055 0.012 0.079 0.039 0.098 0.086 0.193 0.121 0.292 0.119 0.335 0.192 0.68 0.243 1.032 0.032 0.219 0.075 0.439 0.137 0.651 0.037 0.125 0.018 0.27 0.119 0.377 0.012 0.013 0.008 0.043 0.008 0.065 0 0.28-0.001 0.559 0 0.838 0.001 0.238 0.006 0.475 0.006 0.712 0.001 0.182 0 0.364-0.004 0.545-0.003 0.096-0.012 0.192-0.018 0.288 0.010 0.001 0.019 0.002 0.029 0.003 0.004-0.014 0.011-0.028 0.014-0.043 0.038-0.198 0.080-0.395 0.112-0.595 0.022-0.137-0.008-0.283 0.069-0.412 0.010-0.017 0.004-0.044 0.003-0.066-0.010-0.265-0.011-0.53-0.033-0.794-0.026-0.304-0.054-0.61-0.108-0.909-0.062-0.334-0.139-0.665-0.238-0.99-0.096-0.32-0.224-0.63-0.344-0.943-0.020-0.053-0.070-0.094-0.106-0.14zM24.906 16.376c-0.030-0.021-0.044-0.037-0.061-0.041-0.039-0.011-0.080-0.026-0.117-0.021-0.013 0.002-0.026 0.059-0.025 0.091 0.005 0.247 0.018 0.494 0.019 0.74 0.001 0.108-0.014 0.217-0.027 0.325-0.017 0.143-0.030 0.287-0.060 0.427-0.040 0.184-0.092 0.364-0.143 0.545-0.051 0.184-0.104 0.366-0.159 0.548-0.080 0.261-0.153 0.525-0.248 0.78-0.096 0.258-0.217 0.505-0.325 0.76-0.108 0.258-0.325 0.422-0.515 0.609-0.122 0.121-0.252 0.238-0.378 0.356-0.016 0.015-0.032 0.028-0.066 0.033 0.013-0.040 0.030-0.078 0.037-0.119 0.051-0.29 0.125-0.57 0.245-0.841 0.045-0.101 0.054-0.222 0.064-0.335 0.030-0.324 0.005-0.647-0.072-0.962-0.073-0.297-0.157-0.59-0.316-0.854-0.034-0.057-0.077-0.113-0.128-0.155-0.033-0.026-0.089-0.043-0.13-0.036-0.114 0.018-0.23 0.024-0.341 0.082-0.089 0.046-0.201 0.056-0.304 0.064-0.146 0.011-0.221 0.115-0.313 0.203-0.076 0.072-0.159 0.136-0.239 0.204-0.028 0.025-0.059 0.049-0.079 0.080-0.119 0.188-0.234 0.378-0.351 0.569-0.038 0.062-0.070 0.128-0.116 0.183-0.023 0.028-0.070 0.037-0.106 0.054-0.017-0.038-0.053-0.080-0.046-0.113 0.025-0.104 0.053-0.21 0.102-0.305 0.134-0.257 0.281-0.506 0.419-0.761 0.064-0.121 0.123-0.245 0.178-0.37 0.013-0.032 0.011-0.079-0.003-0.111-0.058-0.129-0.134-0.252-0.185-0.384-0.081-0.211-0.186-0.395-0.366-0.547-0.215-0.18-0.453-0.305-0.709-0.404-0.146-0.056-0.297-0.033-0.439 0.025-0.092 0.038-0.176 0.107-0.271 0.124-0.066 0.012-0.149-0.030-0.216-0.063-0.021-0.011-0.033-0.087-0.018-0.114 0.067-0.113 0.007-0.224 0.008-0.336 0.001-0.342-0.044-0.68-0.148-1.004-0.037-0.115-0.14-0.209-0.209-0.315-0.032-0.051-0.070-0.107-0.077-0.163-0.025-0.218-0.039-0.438-0.054-0.657-0.004-0.056 0.013-0.114 0.010-0.172-0.007-0.136-0.015-0.274-0.035-0.409-0.005-0.039-0.048-0.080-0.084-0.104-0.12-0.077-0.171-0.18-0.152-0.328 0.071 0.028 0.136 0.060 0.196-0.020 0.011-0.015 0.098 0.011 0.137 0.038 0.097 0.063 0.189 0.044 0.298 0.033 0.197-0.019 0.399 0.008 0.598 0.014 0.135 0.004 0.269 0.006 0.404 0.004 0.018-0.001 0.042-0.028 0.054-0.049 0.154-0.266 0.254-0.545 0.253-0.86-0.002-0.349 0.035-0.699 0.024-1.047-0.012-0.382-0.041-0.766-0.234-1.114-0.129-0.233-0.253-0.471-0.375-0.708-0.070-0.136-0.050-0.272 0.025-0.401 0.095-0.166 0.232-0.288 0.408-0.361 0.097-0.040 0.188 0.071 0.186 0.207-0.004 0.212 0.103 0.411 0.268 0.433 0.193 0.025 0.28 0.185 0.423 0.271 0.189 0.115 0.371 0.242 0.555 0.365 0.306 0.205 0.642 0.369 0.9 0.642 0.034 0.036 0.085 0.055 0.121 0.091 0.181 0.179 0.367 0.356 0.539 0.543 0.077 0.084 0.121 0.195 0.187 0.289 0.137 0.196 0.299 0.378 0.414 0.586 0.232 0.421 0.503 0.822 0.642 1.291 0.077 0.261 0.188 0.513 0.271 0.773 0.041 0.129 0.053 0.268 0.084 0.402 0.032 0.139 0.074 0.276 0.108 0.415 0.024 0.095 0.048 0.192 0.059 0.29 0.029 0.24 0.053 0.481 0.075 0.723 0.007 0.079 0.009 0.162-0.002 0.241-0.006 0.045-0.043 0.085-0.069 0.133z"></path>
<path d="M12.912 13.662c0.011-0.010 0.020-0.020 0.031-0.030-0.024-0.026-0.047-0.051-0.070-0.077-0.017 0.018-0.046 0.034-0.048 0.053-0.005 0.073 0.048 0.054 0.087 0.054zM10.423 12.090c-0.012-0.005-0.026-0.011-0.038-0.016-0.063 0.074-0.12 0.152-0.188 0.22-0.099 0.1-0.135 0.211-0.121 0.353 0.012 0.122 0.008 0.253-0.021 0.371-0.047 0.185-0.063 0.368-0.055 0.556 0.001 0.029 0.001 0.058-0.003 0.087-0.020 0.165-0.062 0.332-0.057 0.496 0.005 0.225-0.068 0.448-0.011 0.672 0.001 0.003 0.001 0.006 0 0.010-0.009 0.193-0.027 0.386-0.023 0.579 0.004 0.138 0.038 0.276 0.064 0.413 0.006 0.030 0.037 0.055 0.057 0.081 0.015-0.029 0.043-0.059 0.042-0.087-0.005-0.166-0.027-0.332-0.026-0.497 0.001-0.204 0.022-0.408 0.027-0.611 0.005-0.177 0.002-0.353 0.002-0.53 0.001-0.068-0.003-0.136 0.005-0.202 0.018-0.147 0.041-0.294 0.062-0.442 0.011-0.080 0.024-0.161 0.033-0.242 0.019-0.157 0.027-0.316 0.059-0.47 0.039-0.191 0.097-0.379 0.147-0.569 0.015-0.058 0.030-0.116 0.045-0.173zM7.996 17.804c0.019-0.002 0.038-0.004 0.057-0.006 0-0.070 0.006-0.139-0.001-0.208-0.011-0.095-0.040-0.189-0.043-0.284-0.004-0.209 0.003-0.418 0.008-0.628 0.004-0.185 0.011-0.37 0.018-0.555 0.001-0.028 0.011-0.055 0.012-0.084 0.003-0.058 0.002-0.116 0.003-0.175 0.002-0.090 0.004-0.18 0.006-0.269 0.001-0.047 0.015-0.099-0.003-0.139-0.027-0.064-0.028-0.125 0.018-0.169 0.062-0.061 0.059-0.134 0.074-0.209 0.026-0.132 0.071-0.261 0.102-0.392 0.017-0.070 0.020-0.143 0.033-0.215 0.019-0.117 0.041-0.233 0.063-0.35 0.006-0.030 0.015-0.060 0.021-0.091 0.026-0.107 0.047-0.215 0.076-0.321 0.040-0.151 0.087-0.301 0.134-0.45 0.004-0.017 0.029-0.026 0.038-0.042 0.048-0.084 0.109-0.164 0.084-0.28-0.048 0.022-0.095 0.048-0.116 0.087-0.034 0.063-0.040 0.143-0.079 0.2-0.126 0.181-0.16 0.395-0.225 0.597-0.067 0.212-0.115 0.43-0.173 0.645-0.044 0.163-0.096 0.324-0.132 0.489-0.024 0.11-0.002 0.236-0.043 0.337-0.087 0.207-0.066 0.426-0.086 0.636-0.026 0.28 0.004 0.567 0.026 0.85 0.023 0.293 0.064 0.584 0.099 0.877 0.005 0.050 0.021 0.099 0.032 0.149zM13.487 13.3c0.033 0.084 0.021 0.144-0.040 0.192-0.040 0.032-0.085 0.058-0.122 0.092-0.065 0.058-0.051 0.107 0.018 0.152 0.040 0.026 0.086 0.082 0.085 0.124-0.004 0.246-0.019 0.492-0.033 0.738-0.007 0.123-0.016 0.246-0.032 0.368-0.006 0.043-0.022 0.097-0.054 0.123-0.163 0.142-0.232 0.327-0.29 0.529-0.042 0.146-0.062 0.289-0.065 0.438-0.004 0.126-0.007 0.254-0.035 0.376-0.026 0.108-0.030 0.206 0.011 0.31 0.008 0.021-0.025 0.077-0.050 0.087-0.051 0.022-0.129 0.052-0.163 0.029-0.232-0.15-0.488-0.17-0.745-0.134-0.107 0.014-0.199 0.109-0.305 0.146-0.177 0.062-0.298 0.201-0.435 0.311-0.127 0.102-0.195 0.26-0.25 0.419-0.044 0.127-0.121 0.241-0.174 0.365-0.019 0.045-0.030 0.112-0.011 0.151 0.141 0.282 0.295 0.556 0.437 0.838 0.089 0.176 0.186 0.353 0.188 0.557 0.001 0.033-0.034 0.066-0.053 0.099-0.030-0.018-0.073-0.030-0.089-0.057-0.078-0.136-0.15-0.275-0.225-0.412-0.067-0.121-0.136-0.242-0.206-0.362-0.012-0.021-0.032-0.048-0.052-0.052-0.139-0.029-0.208-0.146-0.286-0.241-0.091-0.11-0.203-0.152-0.334-0.175-0.090-0.016-0.177-0.042-0.264-0.065-0.085-0.022-0.17-0.051-0.256-0.067-0.092-0.018-0.25 0.090-0.294 0.19-0.050 0.114-0.107 0.226-0.151 0.342-0.048 0.125-0.086 0.253-0.125 0.382-0.105 0.351-0.13 0.711-0.099 1.075 0.016 0.193 0.083 0.371 0.17 0.543 0.070 0.137 0.115 0.29 0.253 0.383 0.008 0.005 0.015 0.025 0.012 0.034-0.031 0.118 0.056 0.174 0.122 0.241 0.023 0.023 0.048 0.044 0.070 0.067 0.121 0.121 0.12 0.134-0.047 0.245-0.18-0.174-0.363-0.354-0.549-0.531-0.106-0.1-0.227-0.188-0.323-0.297-0.085-0.098-0.158-0.212-0.217-0.329-0.118-0.239-0.229-0.481-0.331-0.726-0.089-0.215-0.173-0.433-0.241-0.655-0.051-0.166-0.073-0.339-0.111-0.508-0.018-0.077-0.044-0.151-0.065-0.226-0.021-0.072-0.053-0.143-0.061-0.217-0.020-0.199-0.099-0.382-0.12-0.585-0.031-0.308-0.014-0.613-0.019-0.921-0.001-0.098 0.021-0.195 0.026-0.293 0.002-0.028-0.011-0.078-0.025-0.082-0.033-0.008-0.073 0.004-0.108 0.013s-0.090 0.040-0.095 0.032c-0.033-0.047-0.076-0.101-0.077-0.153-0.001-0.113 0.019-0.226 0.035-0.339 0.017-0.119 0.040-0.236 0.059-0.354 0.026-0.15 0.046-0.3 0.076-0.449 0.017-0.088 0.049-0.173 0.071-0.261 0.024-0.092 0.041-0.184 0.067-0.274 0.040-0.147 0.081-0.294 0.129-0.438 0.055-0.165 0.112-0.327 0.175-0.489 0.086-0.217 0.175-0.432 0.273-0.644 0.048-0.105 0.116-0.2 0.174-0.3 0.087-0.15 0.168-0.303 0.262-0.448 0.080-0.122 0.173-0.236 0.262-0.351 0.11-0.141 0.22-0.281 0.336-0.416 0.098-0.114 0.202-0.224 0.307-0.331 0.118-0.122 0.231-0.253 0.363-0.358 0.318-0.252 0.645-0.491 0.969-0.736 0.132-0.099 0.263-0.202 0.399-0.298 0.138-0.098 0.28-0.191 0.423-0.283 0.053-0.034 0.117-0.051 0.167-0.087 0.026-0.019 0.040-0.063 0.048-0.097 0.008-0.033-0.008-0.071 0.001-0.104 0.038-0.14 0.057-0.134 0.195-0.092 0.252 0.077 0.336 0.291 0.428 0.496 0.023 0.052-0.025 0.137-0.047 0.204-0.060 0.189-0.175 0.346-0.278 0.512-0.139 0.227-0.256 0.469-0.279 0.744-0.007 0.093-0.026 0.187-0.032 0.28-0.015 0.232-0.035 0.465-0.034 0.697 0.001 0.282-0.004 0.568 0.044 0.843 0.033 0.195 0.148 0.376 0.232 0.561 0.008 0.018 0.054 0.029 0.082 0.028 0.111-0.002 0.224-0.025 0.333-0.011s0.204-0.021 0.305-0.034c0.113-0.014 0.234 0.004 0.344 0.034 0.089 0.024 0.155 0.010 0.224-0.039 0.037-0.026 0.077-0.047 0.121-0.073z"></path>
<path d="M16.148 17.809c0.112-0.031 0.247-0.068 0.382-0.108 0.016-0.004 0.036-0.033 0.033-0.047-0.003-0.019-0.025-0.036-0.038-0.054-0.047-0.062-0.109-0.117-0.135-0.187-0.028-0.077-0.032-0.159-0.1-0.22-0.027-0.024-0.055-0.059-0.063-0.094-0.031-0.138-0.053-0.279-0.080-0.418-0.006-0.032-0.022-0.084-0.034-0.085-0.041-0.001-0.096 0.005-0.121 0.032-0.029 0.031-0.040 0.084-0.046 0.13-0.011 0.085 0.003 0.175-0.020 0.257-0.021 0.075-0.085 0.137-0.115 0.21-0.045 0.109-0.081 0.222-0.114 0.335-0.012 0.044-0.019 0.101 0 0.138 0.013 0.025 0.075 0.027 0.116 0.033 0.049 0.008 0.131-0.009 0.144 0.015 0.043 0.077 0.105 0.056 0.19 0.062zM18.002 15.558c-0.044 0.010-0.085 0.018-0.127 0.027-0.064 0.015-0.129 0.033-0.193 0.046-0.129 0.027-0.261 0.043-0.387 0.081-0.175 0.054-0.365 0.071-0.519 0.187-0.009 0.007-0.026 0.007-0.037 0.004-0.147-0.030-0.222 0.088-0.318 0.158-0.052 0.037-0.061 0.085 0.012 0.127 0.028 0.016 0.047 0.057 0.062 0.092 0.017 0.040 0.016 0.089 0.038 0.125 0.072 0.114 0.197 0.159 0.312 0.216 0.112 0.055 0.221 0.036 0.333-0.003 0.082-0.029 0.17-0.042 0.253-0.070 0.111-0.035 0.232-0.057 0.325-0.121 0.087-0.060 0.153-0.16 0.209-0.254 0.063-0.107 0.158-0.209 0.12-0.35-0.021-0.082-0.050-0.162-0.082-0.263zM14.693 16.8c0.126-0.016 0.253-0.026 0.377-0.050 0.068-0.014 0.136-0.045 0.194-0.083 0.085-0.055 0.16-0.123 0.239-0.188 0.015-0.012 0.033-0.031 0.033-0.048 0.011-0.136-0.084-0.265-0.217-0.306-0.077-0.025-0.15-0.061-0.226-0.086-0.145-0.048-0.29-0.099-0.439-0.133-0.115-0.026-0.238-0.022-0.356-0.040-0.064-0.009-0.131-0.026-0.188-0.057-0.099-0.054-0.142-0.048-0.2 0.048-0.017 0.026-0.040 0.051-0.050 0.080-0.022 0.070-0.129 0.118-0.081 0.2 0.089 0.153 0.175 0.315 0.298 0.439 0.162 0.163 0.369 0.261 0.617 0.224zM13.513 15.149c0.033-0.093 0.062-0.188 0.102-0.279 0.048-0.105 0.104-0.206 0.161-0.307 0.042-0.077 0.047-0.14-0.013-0.216-0.035-0.046-0.046-0.114-0.058-0.174-0.025-0.12-0.051-0.24-0.063-0.362-0.010-0.098-0.015-0.202 0.007-0.297 0.040-0.175 0.088-0.352 0.16-0.517 0.058-0.131 0.068-0.261 0.065-0.397 0-0.026 0.019-0.051 0.030-0.077 0.056-0.136 0.113-0.273 0.172-0.408 0.018-0.042 0.051-0.078 0.069-0.121 0.063-0.153 0.15-0.29 0.267-0.407 0.034-0.035 0.075-0.068 0.118-0.092 0.175-0.099 0.348-0.207 0.531-0.291 0.186-0.086 0.383-0.149 0.576-0.221 0.011-0.004 0.025-0.004 0.038-0.005 0.232-0.011 0.466-0.018 0.697-0.036 0.11-0.009 0.212-0.016 0.315 0.034 0.208 0.102 0.423 0.188 0.627 0.298 0.187 0.1 0.301 0.274 0.4 0.459 0.077 0.144 0.099 0.302 0.141 0.456 0.048 0.185 0.138 0.359 0.2 0.542 0.033 0.096 0.043 0.2 0.063 0.3 0.009 0.044 0.017 0.088 0.023 0.132 0.027 0.188 0.078 0.377 0.071 0.562-0.005 0.129 0.015 0.255 0.008 0.382-0.003 0.049-0.021 0.098-0.026 0.146-0.003 0.034 0.005 0.069 0.009 0.103 0.006 0.083 0.018 0.165 0.015 0.247-0.002 0.026-0.055 0.047-0.073 0.077-0.023 0.036-0.058 0.089-0.047 0.117 0.055 0.135 0.099 0.276 0.232 0.367 0.048 0.033 0.069 0.111 0.089 0.173s0.026 0.129 0.040 0.195c0.004 0.021 0.005 0.048 0.018 0.062 0.078 0.084 0.092 0.182 0.087 0.292-0.004 0.093 0.004 0.192 0.031 0.279 0.015 0.047 0.090 0.071 0.129 0.114 0.023 0.025 0.048 0.071 0.041 0.098-0.025 0.077-0.060 0.154-0.103 0.223-0.025 0.040-0.070 0.072-0.113 0.092-0.103 0.047-0.176 0.117-0.232 0.216-0.027 0.048-0.086 0.077-0.13 0.116-0.046 0.040-0.093 0.077-0.136 0.121-0.094 0.095-0.181 0.1-0.285 0.021-0.028-0.021-0.076-0.039-0.106-0.029-0.041 0.013-0.078 0.033-0.088 0.101-0.018 0.121-0.071 0.237-0.107 0.356-0.023 0.074-0.039 0.15-0.058 0.225-0.001 0.005 0.003 0.016 0 0.018-0.143 0.121-0.020 0.209 0.036 0.306 0.023 0.041 0.074 0.081 0.003 0.128-0.094 0.062-0.166 0.067-0.221 0.009-0.098-0.104-0.131-0.087-0.27-0.051-0.233 0.060-0.286 0.254-0.358 0.431-0.058 0.144-0.091 0.298-0.132 0.449-0.008 0.026-0.012 0.058-0.006 0.085 0.020 0.101-0.050 0.135-0.122 0.164-0.055 0.023-0.115-0.027-0.114-0.105 0-0.062 0.030-0.124 0.029-0.186-0.002-0.092-0.019-0.183-0.032-0.274-0.010-0.078-0.015-0.158-0.036-0.233-0.009-0.033-0.048-0.074-0.079-0.079-0.067-0.011-0.143 0.001-0.152 0.088-0.018 0.158-0.033 0.316-0.035 0.474-0.001 0.107 0.019 0.215 0.031 0.322 0.008 0.071-0.039 0.108-0.093 0.128-0.026 0.009-0.080-0.007-0.089-0.026-0.036-0.083-0.063-0.17-0.088-0.257-0.016-0.050-0.018-0.105-0.035-0.154-0.055-0.156-0.101-0.315-0.173-0.462-0.041-0.083-0.125-0.146-0.195-0.212-0.011-0.010-0.058 0.002-0.075 0.018-0.12 0.119-0.438 0.024-0.454-0.173-0.008-0.091 0.007-0.183 0.016-0.275 0.010-0.1-0.020-0.188-0.081-0.265-0.039-0.049-0.017-0.082 0.022-0.114 0.087-0.072 0.090-0.149 0.003-0.217-0.048-0.036-0.097-0.074-0.152-0.094-0.128-0.048-0.268 0.014-0.337 0.138-0.077 0.139-0.313 0.146-0.401 0.017-0.040-0.058-0.090-0.115-0.148-0.153-0.215-0.14-0.32-0.334-0.335-0.588-0.009-0.153-0.041-0.305-0.063-0.458-0.002-0.012-0.006-0.026-0.014-0.035-0.121-0.127-0.129-0.215-0.013-0.343 0.062-0.067 0.144-0.115 0.205-0.182 0.040-0.045 0.063-0.107 0.087-0.165 0.026-0.060 0.059-0.122 0.061-0.184 0.001-0.057-0.034-0.114-0.054-0.172-0.008 0.003-0.016 0.005-0.024 0.009z"></path>
<path d="M16.855 20.832c-0.063-0.029-0.109-0.052-0.157-0.074 0.010-0.004 0.019-0.006 0.029-0.009 0-0.076-0.004-0.151 0.001-0.226 0.004-0.064 0.032-0.129 0.030-0.193-0.005-0.171-0.021-0.342-0.033-0.512 0-0.004 0.002-0.008 0-0.010-0.076-0.083-0.039-0.179-0.036-0.272 0.002-0.072-0.024-0.144-0.025-0.217-0.004-0.265 0.023-0.525 0.176-0.753 0.050-0.074 0.113-0.132 0.214-0.084 0.011 0.005 0.026 0.004 0.038 0.004 0.19 0.004 0.305 0.188 0.232 0.365-0.011 0.026-0.019 0.054-0.021 0.081-0.014 0.282-0.047 0.56-0.165 0.821-0.003 0.006-0.004 0.012-0.004 0.018-0.024 0.143-0.039 0.287-0.071 0.427-0.029 0.121-0.077 0.237-0.117 0.355-0.029 0.089-0.058 0.178-0.091 0.277z"></path>
<path d="M14.896 20.026c-0.021-0.112-0.053-0.224-0.061-0.336-0.020-0.277-0.033-0.555-0.041-0.833-0.004-0.157 0.252-0.305 0.385-0.232 0.084 0.047 0.185 0.247 0.173 0.345-0.018 0.151-0.040 0.3-0.056 0.45-0.005 0.044 0.004 0.089 0 0.134-0.006 0.081-0.018 0.161-0.026 0.242-0.003 0.032-0.008 0.064-0.004 0.096 0.029 0.267-0.012 0.533-0.002 0.801 0.004 0.087-0.079 0.136-0.16 0.103-0.014-0.006-0.034-0.015-0.037-0.026-0.035-0.18-0.149-0.337-0.143-0.529 0.002-0.070-0.025-0.143-0.039-0.214z"></path>
</svg>
