<!-- Generated by IcoMoon.io -->
<svg version="1.1" xmlns="http://www.w3.org/2000/svg" width="32" height="32" viewBox="0 0 32 32">
<title>allies-gloomspite-gitz</title>
<path d="M6.661 11.772c-0.018 0.085-0.018 0.17-0.053 0.237-0.148 0.272-0.209 0.573-0.309 0.861-0.053 0.152-0.067 0.316-0.1 0.475-0.018 0.086-0.036 0.172-0.056 0.257-0.038 0.157-0.091 0.312-0.11 0.472-0.019 0.15-0.003 0.305-0.003 0.457 0.004 0.375 0.010 0.749 0.012 1.123 0.003 0.339 0.004 0.679 0.004 1.018 0.001 0.241 0.015 0.483-0.005 0.722-0.022 0.249 0.113 0.467 0.108 0.709-0.001 0.004 0.005 0.009 0.006 0.013 0.024 0.094 0.047 0.188 0.071 0.283 0.011 0.042 0.017 0.087 0.034 0.127 0.032 0.077 0.088 0.149 0.103 0.229 0.036 0.191 0.090 0.379 0.136 0.568 0.029 0.118 0.047 0.244 0.102 0.351 0.060 0.117 0.052 0.237 0.075 0.356 0.024 0.117 0.106 0.219 0.093 0.351-0.005 0.050 0.011 0.108 0.033 0.154 0.091 0.191 0.179 0.383 0.199 0.598 0.003 0.033 0.014 0.069 0.031 0.098 0.115 0.2 0.186 0.425 0.35 0.598 0.067 0.071 0.117 0.158 0.183 0.231 0.166 0.188 0.335 0.372 0.504 0.556 0.105 0.116 0.249 0.196 0.32 0.344 0.012 0.025 0.035 0.049 0.058 0.067 0.141 0.107 0.283 0.213 0.426 0.319 0.039 0.030 0.082 0.054 0.118 0.088 0.113 0.108 0.222 0.222 0.336 0.329 0.079 0.074 0.165 0.14 0.247 0.21 0.168 0.143 0.33 0.297 0.546 0.371 0.055 0.018 0.108 0.051 0.154 0.086 0.099 0.074 0.189 0.159 0.29 0.228 0.093 0.064 0.188 0.135 0.294 0.166 0.302 0.089 0.554 0.249 0.765 0.479 0.019 0.021 0.045 0.043 0.071 0.051 0.315 0.089 0.597 0.285 0.939 0.286 0.047 0 0.094 0.029 0.141 0.044 0.225 0.074 0.454 0.126 0.695 0.105 0.117-0.010 0.237-0.005 0.354 0 0.042 0.002 0.086 0.018 0.124 0.038 0.166 0.088 0.34 0.152 0.528 0.157 0.223 0.008 0.444 0.004 0.667 0.005 0.123 0 0.243 0.002 0.363 0.050 0.080 0.032 0.174 0.035 0.262 0.035 0.474 0.003 0.948 0.003 1.422 0 0.077-0.001 0.157-0.015 0.231-0.038 0.123-0.037 0.242-0.083 0.362-0.129 0.223-0.086 0.451-0.127 0.693-0.098 0.101 0.011 0.207-0.003 0.308-0.020 0.217-0.038 0.435-0.079 0.65-0.13 0.118-0.028 0.244-0.059 0.344-0.123 0.186-0.118 0.352-0.268 0.574-0.323 0.040-0.011 0.076-0.046 0.107-0.076 0.075-0.075 0.162-0.125 0.263-0.159 0.075-0.024 0.145-0.061 0.213-0.1 0.235-0.133 0.444-0.307 0.697-0.411 0.088-0.037 0.167-0.084 0.267-0.059 0.021 0.005 0.052 0 0.069-0.013 0.099-0.073 0.197-0.146 0.291-0.226s0.176-0.172 0.272-0.249c0.168-0.137 0.351-0.256 0.511-0.401 0.215-0.194 0.415-0.405 0.62-0.611 0.066-0.066 0.123-0.14 0.185-0.21 0.172-0.195 0.378-0.364 0.458-0.625 0.010-0.032 0.033-0.060 0.053-0.089 0.12-0.169 0.229-0.344 0.278-0.55 0.011-0.051 0.039-0.104 0.073-0.144 0.172-0.195 0.273-0.431 0.393-0.657 0.043-0.082 0.072-0.172 0.107-0.259 0.080-0.19 0.159-0.381 0.24-0.571 0.033-0.076 0.067-0.152 0.109-0.224 0.078-0.138 0.147-0.275 0.158-0.441 0.006-0.089 0.043-0.181 0.082-0.265 0.075-0.157 0.147-0.317 0.16-0.489 0.025-0.324 0.183-0.624 0.165-0.955-0.002-0.023 0.014-0.046 0.019-0.071 0.032-0.138 0.069-0.277 0.092-0.417 0.021-0.126 0.012-0.258 0.042-0.38 0.055-0.228 0.079-0.455 0.069-0.688-0.003-0.091 0.016-0.188 0.048-0.273s0.053-0.166 0.042-0.259c-0.007-0.053 0.001-0.108-0.001-0.162-0.004-0.123 0.003-0.248-0.019-0.367-0.047-0.252-0.11-0.5-0.169-0.748-0.026-0.11-0.056-0.219-0.088-0.328-0.064-0.222-0.133-0.443-0.195-0.665s-0.11-0.45-0.181-0.67c-0.039-0.12-0.064-0.236-0.056-0.362 0.003-0.053-0.001-0.11-0.016-0.16-0.058-0.193-0.12-0.385-0.181-0.577-0.033-0.103-0.064-0.207-0.101-0.308-0.081-0.217-0.157-0.436-0.25-0.648-0.077-0.175-0.168-0.346-0.266-0.511-0.093-0.157-0.201-0.304-0.302-0.456-0.044-0.065-0.081-0.138-0.136-0.193-0.18-0.181-0.375-0.347-0.45-0.606-0.003-0.009-0.011-0.016-0.016-0.025-0.113-0.202-0.32-0.32-0.455-0.503-0.008-0.011-0.024-0.019-0.038-0.023-0.152-0.034-0.263-0.125-0.356-0.247-0.029-0.039-0.075-0.064-0.112-0.096-0.156-0.129-0.317-0.251-0.466-0.387-0.301-0.278-0.597-0.562-0.892-0.846-0.121-0.116-0.262-0.189-0.42-0.24-0.054-0.018-0.109-0.046-0.152-0.083-0.115-0.098-0.238-0.151-0.393-0.138-0.060 0.004-0.124-0.018-0.181-0.042-0.081-0.034-0.153-0.090-0.235-0.121-0.131-0.048-0.253-0.102-0.351-0.206-0.089-0.095-0.193-0.167-0.337-0.161-0.045 0.002-0.093-0.025-0.137-0.045-0.152-0.072-0.302-0.134-0.479-0.126-0.222 0.010-0.444-0.003-0.666-0.010-0.059-0.002-0.117-0.015-0.174-0.028-0.062-0.014-0.125-0.028-0.183-0.052-0.149-0.062-0.316-0.073-0.453-0.168-0.1-0.070-0.212-0.098-0.337-0.092-0.132 0.007-0.266 0.004-0.4 0.003-0.085-0.001-0.163 0.011-0.24 0.055-0.048 0.027-0.113 0.033-0.171 0.034-0.316 0.003-0.632 0.003-0.947 0.003-0.239-0.001-0.453 0.111-0.685 0.141-0.014 0.002-0.026 0.012-0.040 0.019-0.236 0.111-0.472 0.222-0.707 0.335-0.035 0.017-0.065 0.045-0.1 0.062-0.068 0.035-0.138 0.071-0.209 0.1-0.182 0.072-0.377 0.122-0.548 0.216-0.247 0.135-0.509 0.231-0.766 0.342-0.23 0.099-0.466 0.19-0.681 0.316-0.239 0.14-0.481 0.266-0.751 0.33-0.071 0.018-0.122 0.050-0.174 0.1-0.106 0.103-0.215 0.206-0.337 0.287s-0.242 0.17-0.393 0.2c-0.036 0.007-0.069 0.037-0.099 0.062-0.072 0.060-0.138 0.126-0.211 0.185-0.11 0.090-0.223 0.177-0.335 0.264-0.194 0.151-0.403 0.279-0.566 0.47-0.104 0.122-0.206 0.252-0.358 0.328-0.065 0.032-0.115 0.093-0.173 0.138-0.138 0.109-0.241 0.262-0.415 0.326-0.024 0.008-0.043 0.039-0.056 0.064-0.118 0.238-0.226 0.482-0.355 0.714-0.261 0.473-0.452 0.973-0.598 1.492-0.034 0.121-0.091 0.217-0.219 0.243zM16.34 32c-0.075-0.145-0.161-0.273-0.153-0.433 0.004-0.074 0.002-0.148 0.002-0.222 0-0.025 0.009-0.054-0.002-0.074-0.079-0.138-0.067-0.301-0.126-0.443-0.009-0.023-0.021-0.046-0.025-0.069-0.034-0.214-0.133-0.412-0.172-0.62-0.039-0.206-0.138-0.399-0.131-0.617 0.004-0.084-0.043-0.17-0.067-0.256-0.051-0.179-0.11-0.357-0.15-0.538-0.045-0.196-0.064-0.399-0.109-0.595-0.058-0.254-0.131-0.505-0.197-0.757-0.017-0.065-0.061-0.079-0.123-0.080-0.321-0.002-0.641-0.006-0.961-0.013-0.059-0.001-0.125 0-0.174-0.027-0.146-0.081-0.306-0.060-0.461-0.080-0.076-0.010-0.157-0.024-0.225-0.057-0.169-0.081-0.344-0.121-0.53-0.112-0.248 0.011-0.472-0.052-0.688-0.181-0.236-0.141-0.487-0.258-0.731-0.386-0.039-0.020-0.079-0.041-0.116-0.066-0.131-0.086-0.257-0.181-0.392-0.258-0.093-0.053-0.202-0.078-0.297-0.127-0.152-0.079-0.312-0.152-0.401-0.313-0.007-0.013-0.018-0.028-0.030-0.032-0.149-0.050-0.229-0.183-0.336-0.283-0.018-0.017-0.034-0.038-0.056-0.047-0.34-0.161-0.585-0.448-0.873-0.677-0.127-0.1-0.239-0.218-0.363-0.323-0.075-0.063-0.159-0.117-0.241-0.171-0.018-0.012-0.052-0.025-0.067-0.017-0.088 0.043-0.194 0.075-0.255 0.143-0.12 0.133-0.28 0.202-0.416 0.304-0.146 0.109-0.3 0.207-0.45 0.309-0.074 0.049-0.144 0.107-0.243 0.086-0.023-0.004-0.054-0.003-0.071 0.010-0.104 0.079-0.207 0.161-0.309 0.243-0.176 0.142-0.35 0.287-0.528 0.425-0.032 0.025-0.084 0.032-0.127 0.033-0.127 0.005-0.212-0.122-0.153-0.235 0.034-0.066 0.079-0.12 0.053-0.204-0.007-0.025 0.027-0.075 0.055-0.093 0.148-0.091 0.217-0.244 0.288-0.386 0.109-0.218 0.251-0.412 0.402-0.599 0.111-0.138 0.234-0.266 0.351-0.4 0.016-0.018 0.038-0.039 0.040-0.060 0.035-0.256 0.219-0.449 0.28-0.717-0.019-0.029-0.052-0.078-0.086-0.125-0.166-0.226-0.332-0.452-0.498-0.68-0.019-0.027-0.030-0.061-0.045-0.092-0.105-0.206-0.22-0.402-0.386-0.57-0.082-0.081-0.137-0.192-0.196-0.294-0.050-0.084-0.092-0.174-0.132-0.264-0.025-0.053-0.053-0.111-0.053-0.166 0-0.093-0.023-0.175-0.070-0.252-0.104-0.167-0.111-0.353-0.113-0.542 0-0.057-0.015-0.115-0.026-0.172-0.009-0.048-0.019-0.096-0.032-0.144-0.060-0.223-0.122-0.445-0.184-0.668-0.010-0.032-0.039-0.062-0.040-0.095-0.015-0.216-0.124-0.414-0.117-0.634 0.001-0.029 0.003-0.064-0.012-0.086-0.066-0.096-0.064-0.203-0.068-0.312-0.003-0.097 0.007-0.197-0.049-0.287-0.008-0.011-0.007-0.029-0.007-0.043-0.003-0.237-0.043-0.469-0.088-0.7-0.006-0.029 0.004-0.067-0.011-0.086-0.090-0.105-0.069-0.232-0.074-0.353-0.003-0.069 0.006-0.14-0.006-0.207-0.012-0.072-0.044-0.14-0.070-0.218-0.137-0.004-0.257-0.051-0.353-0.152-0.016-0.017-0.043-0.025-0.067-0.031-0.167-0.035-0.336-0.063-0.501-0.104-0.099-0.025-0.19-0.078-0.288-0.106-0.179-0.053-0.36-0.096-0.541-0.144-0.047-0.012-0.095-0.023-0.143-0.033-0.365-0.077-0.725-0.182-1.104-0.143-0.047 0.005-0.095 0.001-0.15 0.001 0.002-0.104 0.061-0.154 0.129-0.195 0.087-0.054 0.184-0.069 0.285-0.063 0.11 0.005 0.213-0.014 0.317-0.053 0.076-0.029 0.164-0.030 0.247-0.034 0.094-0.006 0.188-0.001 0.281-0.002 0.034-0.001 0.070 0.002 0.103-0.008 0.154-0.046 0.305-0.107 0.462-0.14 0.18-0.038 0.345-0.111 0.514-0.176 0.090-0.034 0.154-0.117 0.261-0.126 0.101-0.009 0.202-0.033 0.301-0.062 0.103-0.031 0.209-0.060 0.299-0.116 0.088-0.053 0.17-0.071 0.267-0.031 0.074-0.131 0.132-0.256 0.119-0.408-0.009-0.098 0.006-0.197 0.002-0.296-0.004-0.112 0.012-0.216 0.078-0.309 0.005-0.008 0.011-0.018 0.012-0.026 0.038-0.162 0.074-0.324 0.111-0.486 0.011-0.043 0.018-0.088 0.035-0.128 0.074-0.182 0.152-0.362 0.225-0.545 0.090-0.227 0.142-0.466 0.195-0.705 0.006-0.028 0.012-0.060 0.028-0.084 0.163-0.266 0.208-0.583 0.371-0.849 0.059-0.096 0.085-0.21 0.135-0.312 0.11-0.225 0.223-0.45 0.339-0.672 0.049-0.095 0.096-0.189 0.188-0.258 0.039-0.028 0.055-0.104 0.058-0.159 0.005-0.147-0.023-0.299-0.002-0.443 0.028-0.195-0.082-0.316-0.175-0.461-0.168-0.26-0.327-0.528-0.471-0.804-0.154-0.294-0.309-0.584-0.542-0.825-0.048-0.049-0.087-0.108-0.124-0.166-0.206-0.314-0.426-0.616-0.67-0.902-0.096-0.112-0.167-0.244-0.248-0.367-0.152-0.231-0.302-0.462-0.451-0.694-0.028-0.044-0.045-0.096-0.072-0.157 0.135-0.004 0.243-0.013 0.355 0.075 0.154 0.121 0.334 0.208 0.501 0.313 0.066 0.042 0.132 0.086 0.188 0.141 0.183 0.18 0.355 0.371 0.58 0.502 0.046 0.027 0.079 0.075 0.122 0.108 0.063 0.047 0.124 0.104 0.196 0.128 0.137 0.046 0.234 0.138 0.337 0.231 0.113 0.102 0.245 0.181 0.367 0.273 0.146 0.11 0.297 0.212 0.433 0.333 0.245 0.221 0.526 0.375 0.838 0.48 0.073 0.025 0.138 0.073 0.202 0.118 0.163 0.114 0.324 0.054 0.37-0.141 0.032-0.14 0.124-0.209 0.268-0.202 0.136 0.006 0.249-0.054 0.357-0.125 0.228-0.147 0.454-0.297 0.681-0.445 0.078-0.052 0.157-0.103 0.238-0.151 0.109-0.064 0.219-0.117 0.345-0.152 0.267-0.076 0.528-0.18 0.775-0.318 0.249-0.139 0.507-0.259 0.779-0.351 0.18-0.061 0.344-0.167 0.518-0.245s0.351-0.155 0.53-0.223c0.234-0.088 0.472-0.163 0.696-0.28 0.167-0.088 0.357-0.136 0.537-0.197 0.088-0.031 0.18-0.052 0.269-0.079 0.194-0.057 0.386-0.116 0.579-0.172 0.087-0.025 0.135-0.075 0.132-0.169-0.001-0.039 0.002-0.082 0.018-0.117 0.077-0.152 0.076-0.316 0.067-0.478-0.011-0.213 0.076-0.405 0.117-0.607 0.077-0.377 0.156-0.753 0.231-1.13 0.011-0.058 0.006-0.118 0.011-0.177 0.004-0.054-0.005-0.118 0.020-0.159 0.091-0.146 0.060-0.305 0.067-0.46 0.004-0.089-0.002-0.175 0.060-0.253 0.024-0.030 0.013-0.085 0.023-0.127 0.011-0.050 0.027-0.098 0.046-0.166 0.084 0.073 0.087 0.155 0.106 0.226 0.061 0.218 0.119 0.437 0.17 0.657 0.030 0.13 0.046 0.262 0.065 0.394s0.031 0.264 0.056 0.393c0.013 0.066 0.039 0.135 0.078 0.188 0.11 0.152 0.148 0.317 0.119 0.5-0.011 0.070-0.003 0.129 0.028 0.197 0.035 0.078 0.039 0.171 0.046 0.259 0.007 0.083 0.011 0.16 0.053 0.241 0.036 0.069 0.037 0.161 0.039 0.244 0.003 0.147-0.009 0.297 0.128 0.442 0.075 0 0.181-0.004 0.287 0.002 0.073 0.004 0.15 0.011 0.216 0.037 0.125 0.052 0.255 0.064 0.387 0.080 0.175 0.020 0.347 0.067 0.52 0.102 0.077 0.016 0.153 0.041 0.23 0.046 0.143 0.006 0.287-0.013 0.429 0.002 0.233 0.025 0.468 0.036 0.686 0.152 0.138 0.074 0.276 0.145 0.411 0.228 0.152 0.094 0.331 0.146 0.495 0.225 0.092 0.044 0.181 0.098 0.264 0.158 0.152 0.109 0.288 0.231 0.484 0.271 0.137 0.029 0.267 0.098 0.395 0.16 0.187 0.088 0.371 0.182 0.553 0.28 0.056 0.029 0.105 0.073 0.153 0.114 0.128 0.108 0.246 0.228 0.382 0.325 0.102 0.074 0.224 0.119 0.337 0.178 0.074 0.039 0.155 0.068 0.218 0.12 0.198 0.161 0.388 0.332 0.583 0.499 0.030 0.025 0.066 0.044 0.117 0.078 0.081-0.046 0.171-0.090 0.256-0.145 0.124-0.081 0.237-0.182 0.366-0.25 0.157-0.080 0.321-0.145 0.474-0.232 0.059-0.034 0.125-0.022 0.181 0.021 0.059 0.046 0.075 0.103 0.038 0.169-0.124 0.223-0.248 0.447-0.376 0.669-0.053 0.093-0.116 0.181-0.173 0.273-0.067 0.106-0.080 0.223-0.046 0.341 0.063 0.225 0.173 0.431 0.312 0.617 0.171 0.228 0.359 0.444 0.535 0.67 0.066 0.084 0.124 0.177 0.172 0.273 0.091 0.185 0.242 0.323 0.366 0.481 0.146 0.186 0.253 0.384 0.29 0.619 0.004 0.034 0.019 0.067 0.030 0.099 0.087 0.256 0.172 0.513 0.26 0.768 0.077 0.223 0.159 0.445 0.238 0.668 0.047 0.134 0.113 0.266 0.131 0.406 0.022 0.162 0.102 0.296 0.155 0.443 0.052 0.143 0.098 0.288 0.142 0.434 0.050 0.165 0.088 0.333 0.142 0.497 0.056 0.173 0.126 0.34 0.146 0.524 0.021 0.193 0.118 0.28 0.31 0.276 0.138-0.002 0.257 0.060 0.357 0.127 0.175 0.117 0.354 0.152 0.556 0.136 0.094-0.009 0.188-0.006 0.281-0.002 0.043 0.002 0.098 0.005 0.125 0.031 0.067 0.065 0.145 0.063 0.222 0.054 0.186-0.024 0.362 0.037 0.539 0.070 0.117 0.022 0.225 0.098 0.366 0.164-0.139 0.047-0.257 0.080-0.368 0.127-0.126 0.053-0.252 0.113-0.371 0.182-0.239 0.138-0.471 0.287-0.711 0.425-0.067 0.039-0.145 0.067-0.223 0.076-0.207 0.025-0.381 0.127-0.56 0.221-0.053 0.027-0.103 0.060-0.157 0.083-0.121 0.053-0.217 0.125-0.259 0.261-0.017 0.054-0.060 0.101-0.089 0.151-0.044 0.077-0.115 0.151-0.125 0.232-0.027 0.214-0.090 0.421-0.105 0.636-0.010 0.131-0.055 0.259-0.089 0.386-0.074 0.271-0.175 0.533-0.216 0.813-0.019 0.129-0.080 0.252-0.12 0.379-0.056 0.178-0.126 0.354-0.162 0.536-0.032 0.162-0.097 0.308-0.157 0.459-0.015 0.037-0.037 0.073-0.042 0.11-0.048 0.347-0.232 0.645-0.347 0.968-0.091 0.257-0.216 0.496-0.361 0.726-0.003 0.004-0.005 0.009-0.006 0.013-0.060 0.241-0.23 0.422-0.347 0.63-0.015 0.026-0.029 0.055-0.052 0.072-0.135 0.096-0.187 0.252-0.279 0.378-0.050 0.069-0.058 0.144-0.016 0.223 0.038 0.070 0.068 0.143 0.103 0.214 0.1 0.209 0.199 0.418 0.3 0.626 0.021 0.043 0.053 0.081 0.080 0.122 0.038 0.061 0.075 0.123 0.116 0.189-0.051 0.034-0.088 0.058-0.123 0.083-0.087 0.061-0.17 0.075-0.274 0.026-0.21-0.096-0.427-0.178-0.643-0.259-0.062-0.024-0.132-0.032-0.2-0.039-0.139-0.016-0.285 0.032-0.421-0.041-0.018-0.011-0.081 0.021-0.092 0.046-0.047 0.114-0.139 0.173-0.236 0.236-0.060 0.039-0.119 0.095-0.156 0.156-0.123 0.208-0.316 0.301-0.535 0.364-0.135 0.039-0.261 0.087-0.354 0.202-0.030 0.036-0.081 0.055-0.121 0.083-0.060 0.042-0.119 0.085-0.178 0.13-0.023 0.018-0.039 0.046-0.064 0.060-0.199 0.106-0.337 0.288-0.52 0.413-0.125 0.085-0.254 0.166-0.383 0.245-0.104 0.065-0.207 0.132-0.316 0.186-0.074 0.036-0.159 0.047-0.237 0.075-0.11 0.040-0.218 0.088-0.329 0.129-0.294 0.109-0.563 0.279-0.872 0.358-0.266 0.067-0.522 0.174-0.785 0.253-0.112 0.034-0.23 0.060-0.346 0.066-0.102 0.003-0.2 0.010-0.283 0.065-0.177 0.116-0.373 0.111-0.571 0.115-0.148 0.003-0.294 0.010-0.416 0.117-0.051 0.046-0.087 0.090-0.085 0.162 0.001 0.038-0.010 0.077-0.020 0.114-0.052 0.174-0.105 0.348-0.16 0.521-0.009 0.028-0.016 0.062-0.036 0.079-0.089 0.076-0.088 0.181-0.1 0.284-0.013 0.122-0.034 0.243-0.053 0.364-0.006 0.039-0.018 0.077-0.019 0.117-0.025 0.421-0.118 0.829-0.225 1.235-0.021 0.081-0.025 0.166-0.044 0.247-0.038 0.158-0.083 0.314-0.121 0.471-0.024 0.096-0.040 0.192-0.059 0.288-0.011 0.063-0.019 0.127-0.030 0.19-0.021 0.126-0.038 0.252-0.064 0.377-0.018 0.085-0.049 0.166-0.075 0.25z"></path>
<path d="M14.017 10.393c0.056 0.034 0.084 0.056 0.117 0.066 0.007 0.003 0.043-0.042 0.039-0.060-0.006-0.028-0.031-0.066-0.054-0.072-0.020-0.004-0.050 0.031-0.101 0.066zM13.359 20.473c0.010-0.105-0.058-0.102-0.106-0.106-0.017-0.002-0.052 0.030-0.053 0.048-0.004 0.059 0.022 0.102 0.090 0.092 0.025-0.004 0.046-0.022 0.069-0.034zM15.138 17.929c0.027-0.018 0.066-0.035 0.092-0.063 0.183-0.193 0.364-0.387 0.606-0.512 0.065-0.034 0.125-0.081 0.18-0.131 0.039-0.036 0.044-0.093-0.009-0.123-0.047-0.026-0.103-0.044-0.158-0.050-0.193-0.021-0.379-0.003-0.546 0.111-0.113 0.076-0.237 0.138-0.344 0.221-0.070 0.053-0.173 0.103-0.16 0.212 0.008 0.063 0.046 0.129 0.087 0.18 0.060 0.075 0.14 0.128 0.253 0.154zM13.582 14.319c-0.006 0.012-0.012 0.024-0.018 0.035 0.095 0.084 0.109 0.192 0.102 0.307-0.002 0.018 0 0.037 0.006 0.053 0.059 0.145 0.106 0.298 0.183 0.434 0.052 0.091 0.093 0.211 0.233 0.225 0.071 0.008 0.141 0.035 0.21 0.056 0.079 0.023 0.155 0.059 0.235 0.070 0.044 0.006 0.093-0.030 0.141-0.040 0.088-0.018 0.113-0.062 0.067-0.139-0.103-0.179-0.202-0.361-0.316-0.533-0.132-0.198-0.327-0.327-0.544-0.419-0.035-0.014-0.076-0.012-0.115-0.018-0.061-0.010-0.123-0.020-0.184-0.031zM13.496 19.643c-0.086 0-0.146 0-0.207 0-0.064 0-0.079 0.041-0.066 0.092 0.008 0.030 0.029 0.060 0.050 0.084 0.133 0.151 0.268 0.3 0.401 0.45 0.084 0.096 0.083 0.14 0.007 0.239-0.010 0.014-0.010 0.036-0.020 0.049-0.023 0.029-0.048 0.077-0.076 0.080-0.077 0.007-0.156-0.003-0.234-0.009-0.053-0.004-0.106-0.018-0.159-0.016-0.099 0.004-0.197 0.024-0.296 0.027-0.073 0.003-0.124 0.027-0.14 0.1-0.020 0.093 0.010 0.145 0.094 0.177 0.173 0.065 0.299 0.186 0.4 0.336 0.009 0.012 0.008 0.036 0.003 0.051-0.013 0.044-0.025 0.089-0.047 0.13-0.073 0.138-0.052 0.273 0.011 0.407 0.031 0.067 0.216 0.12 0.245 0.064 0.029-0.053 0.040-0.148 0.011-0.195-0.067-0.11-0.032-0.194 0.025-0.282 0.039-0.059 0.091-0.11 0.12-0.173 0.058-0.125 0.103-0.256 0.216-0.347 0.018-0.014 0.027-0.039 0.041-0.059 0.068-0.094 0.137-0.187 0.206-0.279 0.012-0.018 0.027-0.032 0.039-0.049 0.077-0.118 0.145-0.243 0.232-0.353 0.075-0.096 0.176-0.174 0.258-0.266 0.124-0.142 0.272-0.255 0.454-0.299 0.146-0.035 0.294-0.063 0.423-0.144 0.063-0.039 0.152-0.075 0.174-0.133 0.032-0.085 0.019-0.187-0.050-0.273-0.065-0.081-0.123-0.168-0.166-0.261-0.075-0.162-0.188-0.292-0.326-0.398-0.036-0.027-0.103-0.020-0.153-0.017-0.008 0-0.021 0.069-0.015 0.103 0.039 0.221 0.082 0.44 0.121 0.66 0.005 0.032-0.005 0.066-0.009 0.098-0.028-0.021-0.068-0.036-0.082-0.064-0.085-0.168-0.154-0.345-0.247-0.509-0.068-0.121-0.138-0.251-0.281-0.308-0.060-0.024-0.121-0.050-0.172-0.088-0.159-0.12-0.301-0.261-0.491-0.338-0.188-0.076-0.368-0.167-0.551-0.252-0.155-0.072-0.318-0.096-0.487-0.086-0.088 0.005-0.154 0.052-0.187 0.133-0.009 0.023 0.006 0.071 0.027 0.088 0.029 0.026 0.072 0.040 0.112 0.051 0.216 0.056 0.409 0.16 0.568 0.316 0.15 0.147 0.291 0.304 0.424 0.466 0.079 0.096 0.134 0.21 0.199 0.317 0.054 0.088 0.111 0.176 0.159 0.268 0.072 0.138 0.145 0.277 0.201 0.422 0.017 0.042-0.003 0.137-0.034 0.152-0.046 0.024-0.124 0.016-0.177-0.007-0.184-0.078-0.357-0.192-0.546-0.159zM22.94 16.867c0.029 0.064 0.066 0.127 0.084 0.195 0.025 0.090 0.037 0.184 0.054 0.276 0.018 0.101 0.032 0.203 0.057 0.302 0.059 0.243 0.049 0.485 0.004 0.727-0.018 0.098-0.029 0.198-0.055 0.294-0.040 0.147-0.088 0.291-0.103 0.446-0.014 0.145-0.052 0.291-0.089 0.433-0.032 0.115-0.081 0.224-0.119 0.338-0.025 0.075-0.040 0.154-0.061 0.23s-0.044 0.151-0.065 0.227c-0.009 0.028-0.022 0.057-0.022 0.086 0.003 0.183-0.078 0.339-0.158 0.495-0.102 0.196-0.2 0.395-0.306 0.589-0.061 0.111-0.134 0.216-0.203 0.323-0.095 0.146-0.188 0.294-0.287 0.436-0.054 0.079-0.125 0.145-0.182 0.223-0.205 0.279-0.477 0.489-0.737 0.71-0.344 0.291-0.739 0.492-1.166 0.634-0.131 0.044-0.255 0.11-0.386 0.153-0.148 0.047-0.301 0.079-0.452 0.119-0.148 0.040-0.296 0.084-0.445 0.124-0.077 0.021-0.156 0.038-0.233 0.056-0.116 0.026-0.23 0.053-0.346 0.079-0.009 0.002-0.017 0.007-0.025 0.008-0.143 0.017-0.286 0.031-0.428 0.049-0.092 0.012-0.182 0.037-0.273 0.046-0.179 0.018-0.358 0.037-0.538 0.042-0.229 0.006-0.459 0.008-0.688-0.003-0.101-0.005-0.199-0.046-0.299-0.071-0.008-0.003-0.016-0.009-0.025-0.010-0.118-0.018-0.238-0.030-0.354-0.053-0.098-0.020-0.194-0.052-0.29-0.081-0.118-0.036-0.236-0.073-0.352-0.112-0.242-0.081-0.497-0.115-0.722-0.254-0.159-0.099-0.347-0.148-0.519-0.225-0.065-0.030-0.121-0.076-0.181-0.116-0.031-0.019-0.059-0.050-0.091-0.055-0.161-0.028-0.283-0.129-0.421-0.203-0.24-0.129-0.447-0.301-0.637-0.488-0.239-0.235-0.473-0.478-0.684-0.737-0.141-0.173-0.248-0.376-0.357-0.573-0.104-0.191-0.2-0.388-0.286-0.588-0.108-0.247-0.205-0.499-0.3-0.751-0.042-0.11-0.067-0.227-0.1-0.34-0.006-0.019-0.015-0.041-0.030-0.053-0.164-0.133-0.206-0.325-0.236-0.515-0.043-0.268-0.055-0.541-0.098-0.809-0.035-0.216-0.119-0.41-0.33-0.521-0.028-0.015-0.043-0.056-0.062-0.086-0.015-0.022-0.022-0.054-0.042-0.067-0.083-0.055-0.057-0.12-0.025-0.188 0.077-0.168 0.159-0.335 0.229-0.507 0.034-0.085 0.040-0.18 0.062-0.269 0.011-0.049 0.025-0.098 0.045-0.144 0.112-0.267 0.096-0.548 0.086-0.826-0.004-0.123-0.039-0.247-0.075-0.366s-0.109-0.23-0.136-0.352c-0.017-0.075 0-0.172 0.038-0.239 0.041-0.074 0.066-0.143 0.054-0.221-0.014-0.093 0.039-0.124 0.11-0.129 0.252-0.015 0.455-0.13 0.64-0.29 0.053-0.046 0.128-0.076 0.166-0.131 0.104-0.151 0.233-0.292 0.252-0.488 0.005-0.052-0.009-0.076-0.060-0.102-0.102-0.051-0.193-0.12-0.287-0.182-0.023-0.015-0.042-0.034-0.065-0.047-0.055-0.034-0.093-0.075-0.083-0.146 0.019-0.138-0.066-0.238-0.129-0.344-0.095-0.161-0.185-0.322-0.195-0.515-0.006-0.119-0.079-0.198-0.197-0.214-0.123-0.016-0.238 0.011-0.348 0.064-0.016 0.008-0.039 0.021-0.048 0.016-0.072-0.053-0.147-0.103-0.209-0.166-0.034-0.034-0.050-0.091-0.061-0.141-0.007-0.026 0.004-0.065 0.021-0.088 0.108-0.14 0.223-0.276 0.33-0.418 0.136-0.182 0.246-0.381 0.33-0.593 0.054-0.138 0.099-0.279 0.14-0.421 0.036-0.122 0.060-0.248 0.093-0.37 0.021-0.076 0.053-0.149 0.075-0.224 0.011-0.034 0.005-0.072 0.015-0.106 0.035-0.136 0.044-0.283 0.166-0.383 0.088-0.073 0.232-0.045 0.285 0.058 0.099 0.196 0.155 0.397 0.139 0.622-0.015 0.211-0.011 0.424 0.001 0.636 0.005 0.1 0.047 0.198 0.075 0.296 0.017 0.060 0.032 0.12 0.057 0.175s0.056 0.114 0.099 0.157c0.099 0.099 0.21 0.186 0.31 0.283 0.158 0.155 0.096 0.372-0.091 0.464-0.109 0.053-0.209 0.059-0.319 0.007-0.035-0.017-0.090 0.008-0.136 0.016-0.034 0.006-0.068 0.019-0.103 0.022-0.071 0.005-0.103 0.049-0.071 0.113 0.052 0.104 0.11 0.205 0.165 0.309 0.032 0.059 0.053 0.124 0.092 0.178 0.063 0.085 0.154 0.127 0.262 0.126 0.010 0 0.020-0.001 0.027 0.004 0.098 0.069 0.178 0.045 0.25-0.044 0.059-0.072 0.125-0.127 0.162-0.228 0.059-0.162 0.026-0.341 0.12-0.498 0.050-0.083 0.036-0.203 0.060-0.304 0.014-0.059 0.039-0.12 0.077-0.165 0.080-0.094 0.169-0.18 0.259-0.265 0.048-0.045 0.070-0.091 0.069-0.158-0.002-0.324 0-0.649 0.004-0.973 0.001-0.075 0.016-0.149 0.025-0.223 0.009-0.069-0.032-0.115-0.086-0.136-0.107-0.041-0.218-0.069-0.327-0.106-0.124-0.041-0.248-0.085-0.372-0.129-0.045-0.015-0.088-0.032-0.132-0.047-0.068-0.025-0.071-0.081-0.056-0.135 0.019-0.066 0.044-0.131 0.078-0.191 0.013-0.022 0.060-0.031 0.092-0.034 0.099-0.012 0.206 0.019 0.296-0.049 0.092-0.069 0.197-0.128 0.273-0.214 0.1-0.114 0.186-0.245 0.262-0.377 0.067-0.119 0.141-0.236 0.172-0.377 0.028-0.131 0.088-0.256 0.131-0.384 0.048-0.143 0.081-0.294 0.147-0.428 0.037-0.073 0.131-0.118 0.201-0.172 0.008-0.006 0.045 0.008 0.051 0.021 0.108 0.237 0.123 0.483 0.081 0.74-0.025 0.16-0.060 0.322 0.014 0.485 0.038 0.082 0.025 0.187 0.054 0.274 0.039 0.115 0.050 0.248 0.196 0.303 0.057 0.021 0.121 0.078 0.14 0.133 0.045 0.125 0.145 0.167 0.247 0.217s0.162 0.17 0.141 0.278c-0.011 0.055-0.145 0.16-0.211 0.176-0.091 0.022-0.18 0.055-0.271 0.080-0.037 0.010-0.077 0.011-0.116 0.012-0.118 0.002-0.236-0.001-0.354 0.002-0.082 0.001-0.094 0.027-0.076 0.11 0.028 0.128 0.060 0.257 0.069 0.386 0.021 0.259 0.131 0.322 0.351 0.179 0.077-0.050 0.15-0.109 0.216-0.173 0.136-0.131 0.298-0.184 0.482-0.181 0.025 0.001 0.050 0.031 0.077 0.038 0.046 0.012 0.103 0.035 0.14 0.019 0.032-0.013 0.053-0.073 0.062-0.115 0.032-0.16 0.055-0.323 0.088-0.484 0.025-0.122 0.061-0.242 0.088-0.365 0.012-0.056 0.002-0.1-0.075-0.1-0.222-0.001-0.399-0.118-0.571-0.238-0.029-0.020-0.032-0.093-0.028-0.139 0.003-0.027 0.042-0.059 0.072-0.074 0.073-0.039 0.15-0.070 0.225-0.101 0.038-0.016 0.078-0.023 0.116-0.037 0.032-0.011 0.069-0.021 0.094-0.043 0.069-0.062 0.135-0.13 0.202-0.196 0.1-0.101 0.162-0.218 0.202-0.358 0.032-0.112 0.106-0.213 0.159-0.32 0.067-0.136 0.132-0.273 0.202-0.408 0.023-0.046 0.047-0.11 0.085-0.123 0.044-0.014 0.107 0.012 0.154 0.036 0.019 0.009 0.030 0.058 0.027 0.087-0.012 0.143-0.032 0.286-0.045 0.429-0.006 0.082 0.004 0.165-0.004 0.245-0.021 0.196 0.079 0.362 0.122 0.542 0.030 0.13 0.096 0.214 0.186 0.292 0.051 0.045 0.103 0.095 0.165 0.117 0.129 0.046 0.078 0.148 0.073 0.226-0.004 0.061-0.043 0.122-0.073 0.18-0.064 0.127-0.124 0.152-0.259 0.117-0.073-0.018-0.147-0.035-0.222-0.042-0.062-0.006-0.108 0.016-0.12 0.092-0.024 0.147-0.068 0.292-0.083 0.44-0.011 0.111-0.041 0.228 0.025 0.342 0.030 0.053 0.019 0.125 0.082 0.169 0.055 0.039 0.188 0.068 0.235 0.022 0.152-0.152 0.305-0.307 0.443-0.472 0.047-0.058 0.050-0.152 0.075-0.23 0.095-0.291 0.195-0.58 0.524-0.691 0.111-0.038 0.23-0.060 0.346-0.082 0.111-0.020 0.224-0.037 0.337-0.046 0.053-0.004 0.106 0.011 0.16 0.018 0.045 0.006 0.088 0.019 0.133 0.021 0.137 0.003 0.273-0.001 0.409 0.004 0.046 0.002 0.091 0.025 0.138 0.030 0.053 0.006 0.114 0.018 0.159-0.002 0.091-0.039 0.174-0.040 0.259 0.004 0.005 0.003 0.011 0.006 0.017 0.006 0.133 0.018 0.266 0.037 0.399 0.052 0.149 0.018 0.3 0.021 0.446 0.050s0.286 0.085 0.429 0.125c0.076 0.021 0.155 0.032 0.231 0.051 0.034 0.009 0.064 0.030 0.096 0.043 0.177 0.075 0.355 0.148 0.531 0.224 0.181 0.078 0.362 0.155 0.538 0.241 0.074 0.036 0.136 0.095 0.203 0.143 0.003 0.002 0.005 0.004 0.005 0.006-0.003 0.168 0.16 0.14 0.243 0.207 0.009 0.008 0.021 0.011 0.030 0.018 0.167 0.151 0.337 0.3 0.5 0.456 0.053 0.050 0.094 0.114 0.133 0.177 0.094 0.15 0.195 0.298 0.269 0.458 0.045 0.096 0.096 0.207 0.018 0.326-0.023 0.035 0.007 0.107 0.019 0.16 0.018 0.082 0.041 0.163 0.065 0.244 0.021 0.069 0.041 0.139 0.069 0.206 0.033 0.083 0.019 0.126-0.055 0.174-0.081 0.053-0.134 0.048-0.215-0.025-0.096-0.087-0.227-0.136-0.344-0.2-0.093-0.052-0.186-0.107-0.282-0.151-0.158-0.072-0.316-0.145-0.48-0.2-0.108-0.035-0.232-0.023-0.34-0.057-0.262-0.083-0.528-0.031-0.791-0.037-0.185-0.005-0.376 0.007-0.556 0.050-0.102 0.024-0.201 0.020-0.299 0.038-0.109 0.020-0.216 0.054-0.323 0.082-0.069 0.017-0.137 0.039-0.207 0.049-0.261 0.036-0.482 0.174-0.706 0.294-0.162 0.086-0.301 0.222-0.443 0.344-0.158 0.133-0.323 0.263-0.457 0.418-0.121 0.143-0.208 0.316-0.302 0.479-0.068 0.119-0.121 0.247-0.188 0.367-0.143 0.255-0.294 0.506-0.434 0.762-0.029 0.052-0.039 0.121 0.020 0.174 0.105 0.096 0.106 0.222 0.105 0.351-0.001 0.12-0.035 0.226-0.106 0.322-0.014 0.019-0.024 0.042-0.032 0.065-0.027 0.084-0.008 0.113 0.078 0.117 0.052 0.002 0.104-0.006 0.155 0 0.11 0.012 0.216 0.038 0.312 0.107s0.211 0.112 0.316 0.167c0.021 0.011 0.042 0.024 0.058 0.040 0.172 0.185 0.353 0.363 0.511 0.559 0.126 0.158 0.231 0.335 0.333 0.51 0.060 0.105 0.097 0.223 0.143 0.337 0.046 0.117 0.102 0.234 0.131 0.357 0.015 0.066 0.006 0.16-0.032 0.21-0.065 0.086-0.163 0.147-0.283 0.119-0.032-0.008-0.059-0.039-0.083-0.064-0.112-0.114-0.244-0.183-0.404-0.211-0.166-0.031-0.327-0.106-0.493-0.122-0.173-0.017-0.35-0.039-0.524 0.044-0.254 0.121-0.464 0.291-0.652 0.495-0.068 0.075-0.138 0.151-0.192 0.235-0.018 0.029-0.008 0.098 0.016 0.129 0.134 0.178 0.27 0.355 0.377 0.551 0.047 0.086 0.202 0.115 0.315 0.078 0.047-0.016 0.106 0.003 0.16 0.006 0.055 0.003 0.117-0.008 0.134 0.072 0.003 0.015 0.022 0.032 0.038 0.038 0.077 0.032 0.098 0.090 0.086 0.165-0.011 0.067-0.024 0.132-0.039 0.197-0.006 0.025-0.025 0.048-0.035 0.074-0.039 0.105-0.018 0.136 0.096 0.132 0.136-0.005 0.27 0.006 0.395 0.061 0.040 0.018 0.070 0.055 0.108 0.081 0.070 0.047 0.144 0.090 0.213 0.138 0.044 0.032 0.081 0.071 0.123 0.105 0.102 0.082 0.205 0.163 0.308 0.245 0.046 0.037 0.098 0.070 0.138 0.114 0.097 0.109 0.188 0.105 0.298-0.002 0.114-0.11 0.232-0.219 0.362-0.309s0.277-0.159 0.417-0.235c0.016-0.009 0.041-0.007 0.060-0.003 0.063 0.011 0.125 0.036 0.188 0.036 0.095 0 0.171 0.038 0.25 0.081 0.048 0.027 0.104 0.045 0.159 0.055 0.046 0.010 0.081-0.003 0.105-0.059 0.016-0.034 0.070-0.060 0.112-0.073 0.103-0.034 0.208-0.059 0.312-0.087 0.003-0.001 0.006-0.002 0.009-0.003 0.099-0.017 0.197-0.048 0.296-0.046 0.142 0.002 0.266-0.052 0.388-0.105 0.103-0.044 0.195-0.108 0.294-0.158 0.259-0.132 0.469-0.324 0.672-0.529 0.229-0.231 0.408-0.494 0.556-0.783 0.109-0.212 0.238-0.414 0.345-0.627 0.063-0.127 0.1-0.267 0.149-0.401 0.048-0.132 0.097-0.264 0.146-0.395 0.010-0.003 0.019-0.006 0.030-0.009z"></path>
</svg>
