<!-- Generated by IcoMoon.io -->
<svg version="1.1" xmlns="http://www.w3.org/2000/svg" width="32" height="32" viewBox="0 0 32 32">
<title>allies-warrior-chamber</title>
<path d="M27.958 12.702c-0.108 0.002-0.217-0.020-0.326-0.032-0.046-0.005-0.104 0.003-0.136-0.021-0.079-0.062-0.166-0.058-0.255-0.057-0.105 0.002-0.21 0.008-0.315 0.001-0.059-0.004-0.12-0.024-0.174-0.047-0.161-0.071-0.304-0.181-0.495-0.182-0.124 0-0.177-0.070-0.204-0.2-0.021-0.092-0.038-0.185-0.065-0.275-0.058-0.19-0.132-0.376-0.178-0.569-0.040-0.169-0.083-0.334-0.155-0.492-0.049-0.108-0.074-0.227-0.11-0.341-0.028-0.090-0.052-0.182-0.083-0.27-0.127-0.366-0.257-0.732-0.384-1.097-0.033-0.093-0.077-0.185-0.096-0.281-0.039-0.2-0.125-0.374-0.251-0.534-0.133-0.168-0.259-0.343-0.385-0.515-0.033-0.047-0.054-0.102-0.089-0.147-0.149-0.19-0.309-0.371-0.448-0.567-0.096-0.136-0.174-0.287-0.243-0.44-0.059-0.133-0.069-0.277 0.028-0.403 0.186-0.244 0.309-0.522 0.453-0.788 0.039-0.074 0.004-0.152-0.077-0.169-0.039-0.009-0.088-0.008-0.122 0.009-0.181 0.092-0.36 0.189-0.536 0.29-0.109 0.062-0.211 0.137-0.316 0.204-0.062 0.041-0.118 0.024-0.171-0.022-0.094-0.083-0.185-0.171-0.286-0.245-0.135-0.098-0.235-0.244-0.405-0.293-0.165-0.047-0.301-0.142-0.426-0.257-0.108-0.099-0.217-0.2-0.34-0.277-0.14-0.089-0.295-0.157-0.447-0.228-0.124-0.057-0.252-0.103-0.377-0.156-0.081-0.035-0.166-0.063-0.238-0.11-0.158-0.102-0.293-0.236-0.48-0.293-0.114-0.034-0.23-0.080-0.328-0.147-0.114-0.077-0.233-0.137-0.355-0.197-0.205-0.099-0.42-0.12-0.64-0.131-0.167-0.009-0.334-0.015-0.498-0.038-0.14-0.019-0.275-0.080-0.414-0.088-0.276-0.017-0.537-0.137-0.818-0.113-0.009 0.001-0.018-0.009-0.036-0.020-0.022-0.061-0.062-0.128-0.068-0.197-0.013-0.155 0.015-0.315-0.075-0.458-0.007-0.013-0.005-0.032-0.006-0.047-0.004-0.121 0.006-0.242-0.069-0.35-0.012-0.017-0.004-0.051 0-0.076 0.029-0.174-0.005-0.329-0.105-0.477-0.039-0.057-0.047-0.136-0.062-0.206-0.009-0.040-0.002-0.084-0.010-0.125-0.078-0.353-0.158-0.705-0.238-1.057-0.013-0.058-0.037-0.114-0.055-0.172-0.013 0-0.027 0-0.040-0.001-0.012 0.040-0.025 0.080-0.036 0.121-0.010 0.039-0.017 0.080-0.026 0.12-0.013 0.060-0.039 0.119-0.042 0.18-0.008 0.15 0.011 0.303-0.065 0.444-0.012 0.022-0.016 0.051-0.015 0.077 0.011 0.315-0.089 0.612-0.152 0.914-0.044 0.215-0.123 0.426-0.144 0.643-0.021 0.219-0.029 0.436-0.087 0.651-0.019 0.072-0.047 0.111-0.113 0.131-0.181 0.053-0.361 0.107-0.541 0.159-0.071 0.021-0.143 0.036-0.212 0.061-0.157 0.057-0.313 0.117-0.468 0.179-0.101 0.041-0.199 0.092-0.301 0.133-0.266 0.108-0.534 0.212-0.8 0.321-0.081 0.033-0.154 0.089-0.236 0.121-0.279 0.107-0.558 0.212-0.817 0.363-0.205 0.119-0.427 0.201-0.652 0.266-0.093 0.027-0.178 0.058-0.257 0.108-0.274 0.175-0.546 0.353-0.818 0.53-0.094 0.061-0.19 0.112-0.305 0.113-0.145 0.001-0.204 0.043-0.243 0.18-0.047 0.163-0.169 0.206-0.313 0.115-0.070-0.044-0.146-0.080-0.222-0.115-0.194-0.089-0.394-0.164-0.561-0.308-0.226-0.194-0.469-0.369-0.712-0.543-0.156-0.112-0.316-0.217-0.474-0.326-0.223-0.153-0.418-0.348-0.624-0.525-0.064-0.054-0.123-0.115-0.193-0.161-0.144-0.094-0.302-0.17-0.441-0.272-0.097-0.072-0.189-0.090-0.312-0.065 0.016 0.036 0.024 0.067 0.040 0.092 0.208 0.32 0.412 0.645 0.629 0.959 0.17 0.246 0.357 0.48 0.535 0.719 0.051 0.068 0.093 0.142 0.15 0.202 0.176 0.186 0.297 0.405 0.42 0.625 0.16 0.289 0.338 0.567 0.506 0.851 0.035 0.058 0.082 0.12 0.086 0.182 0.010 0.172 0.005 0.345-0.004 0.518-0.002 0.047-0.026 0.109-0.062 0.137-0.111 0.089-0.166 0.216-0.224 0.335-0.197 0.404-0.402 0.806-0.538 1.238-0.009 0.029-0.031 0.055-0.043 0.084-0.035 0.087-0.074 0.173-0.1 0.262-0.036 0.124-0.052 0.256-0.096 0.377-0.079 0.215-0.174 0.425-0.26 0.639-0.017 0.043-0.020 0.092-0.032 0.137-0.041 0.15-0.084 0.3-0.126 0.45-0.015 0.055-0.033 0.111-0.038 0.167-0.008 0.104-0.014 0.21-0.007 0.314 0.009 0.128-0.035 0.234-0.086 0.32-0.084 0.014-0.154 0.015-0.214 0.039-0.129 0.053-0.253 0.118-0.399 0.127-0.087 0.006-0.183 0.029-0.254 0.077-0.178 0.118-0.374 0.178-0.578 0.227-0.086 0.021-0.179 0.028-0.255 0.067-0.125 0.066-0.253 0.054-0.384 0.060-0.099 0.005-0.197 0.019-0.295 0.032-0.088 0.012-0.174 0.028-0.261 0.044-0.081 0.015-0.166 0.024-0.242 0.055-0.061 0.024-0.117 0.072-0.101 0.163 0.054 0 0.107-0.002 0.158 0 0.142 0.004 0.286-0.006 0.424 0.017 0.19 0.031 0.376 0.085 0.563 0.132 0.202 0.050 0.404 0.103 0.605 0.158 0.065 0.018 0.125 0.050 0.191 0.066 0.131 0.032 0.264 0.055 0.395 0.085 0.024 0.006 0.046 0.024 0.069 0.036 0.089 0.047 0.179 0.094 0.269 0.14 0.040 0.049 0.076 0.117 0.081 0.188 0.013 0.175 0.012 0.347 0.069 0.522 0.061 0.187 0.065 0.39 0.085 0.587 0.015 0.144 0.053 0.287 0.050 0.433-0.001 0.015 0.003 0.032 0.011 0.046 0.062 0.108 0.054 0.231 0.075 0.349 0.025 0.137 0.052 0.277 0.099 0.407 0.114 0.316 0.209 0.635 0.225 0.973 0.006 0.144 0.036 0.279 0.108 0.406 0.017 0.032 0.042 0.067 0.041 0.1-0.006 0.215 0.125 0.376 0.221 0.546 0.083 0.148 0.204 0.275 0.3 0.417 0.076 0.112 0.13 0.239 0.208 0.35 0.137 0.197 0.285 0.388 0.427 0.583 0.021 0.029 0.038 0.062 0.051 0.084-0.054 0.224-0.207 0.398-0.244 0.619-0.002 0.013-0.016 0.026-0.026 0.038-0.086 0.099-0.172 0.198-0.258 0.297-0.156 0.177-0.293 0.367-0.399 0.58-0.060 0.12-0.123 0.244-0.243 0.324-0.025 0.017-0.035 0.059-0.046 0.092-0.016 0.047-0.021 0.098-0.040 0.143-0.025 0.058-0.038 0.121 0.009 0.16 0.039 0.032 0.102 0.047 0.154 0.049 0.038 0.002 0.081-0.024 0.114-0.047 0.125-0.095 0.254-0.186 0.369-0.292 0.137-0.126 0.26-0.266 0.467-0.273 0.032-0.001 0.064-0.033 0.095-0.054 0.143-0.096 0.287-0.191 0.428-0.291 0.114-0.082 0.227-0.168 0.335-0.257 0.148-0.121 0.246-0.128 0.404-0.014 0.050 0.037 0.092 0.085 0.137 0.129 0.034 0.033 0.066 0.068 0.102 0.099 0.16 0.135 0.32 0.271 0.482 0.402 0.102 0.083 0.208 0.159 0.313 0.238 0.074 0.056 0.155 0.106 0.224 0.167 0.121 0.105 0.236 0.218 0.354 0.327 0.016 0.014 0.035 0.024 0.053 0.034 0.198 0.105 0.398 0.207 0.594 0.316 0.091 0.050 0.171 0.12 0.261 0.17 0.198 0.108 0.405 0.199 0.598 0.315 0.219 0.131 0.447 0.187 0.702 0.187 0.126-0.001 0.253 0.054 0.379 0.086 0.070 0.017 0.14 0.042 0.211 0.053 0.122 0.019 0.249 0.003 0.365 0.056l0.127-1.163c-0.002-0.002-0.005-0.002-0.007-0.003-0.185-0.096-0.363-0.069-0.546-0.071-0.186-0.002-0.364-0.039-0.541-0.091-0.089-0.025-0.184-0.034-0.274-0.058-0.111-0.029-0.22-0.064-0.328-0.102s-0.221-0.073-0.32-0.127c-0.085-0.047-0.163-0.114-0.23-0.185-0.113-0.119-0.256-0.189-0.403-0.237-0.217-0.069-0.386-0.205-0.562-0.337-0.046-0.034-0.091-0.075-0.143-0.096-0.216-0.083-0.38-0.234-0.551-0.383-0.283-0.247-0.551-0.513-0.864-0.725-0.039-0.025-0.073-0.059-0.105-0.094-0.088-0.095-0.171-0.197-0.264-0.287-0.357-0.344-0.675-0.717-0.889-1.168-0.021-0.043-0.041-0.088-0.048-0.133-0.023-0.151-0.058-0.296-0.136-0.431-0.047-0.081-0.079-0.17-0.065-0.269 0.005-0.030-0.002-0.066-0.017-0.092-0.058-0.099-0.043-0.218-0.080-0.313-0.080-0.201-0.119-0.41-0.178-0.615-0.008-0.030-0.038-0.059-0.035-0.086 0.018-0.157-0.066-0.283-0.12-0.418-0.019-0.048-0.025-0.101-0.036-0.152-0.013-0.056-0.024-0.112-0.036-0.167s-0.026-0.111-0.037-0.166c-0.006-0.031 0.001-0.066-0.013-0.092-0.088-0.167-0.069-0.348-0.069-0.525-0.004-0.882-0.004-1.762-0.007-2.644 0-0.175 0.053-0.339 0.099-0.504 0.016-0.055 0.042-0.111 0.043-0.167 0.003-0.241 0.088-0.462 0.163-0.685 0.058-0.173 0.13-0.342 0.192-0.514 0.021-0.058 0.028-0.122 0.044-0.196 0.12-0.030 0.163-0.13 0.196-0.248 0.132-0.483 0.331-0.938 0.571-1.376 0.084-0.152 0.154-0.31 0.231-0.465 0.011-0.023 0.021-0.055 0.040-0.063 0.185-0.080 0.296-0.249 0.455-0.358 0.166-0.114 0.298-0.26 0.437-0.402 0.109-0.112 0.245-0.197 0.368-0.294 0.167-0.134 0.331-0.271 0.499-0.404 0.036-0.030 0.073-0.066 0.117-0.078 0.212-0.065 0.386-0.19 0.539-0.341 0.101-0.099 0.208-0.174 0.346-0.198 0.191-0.034 0.343-0.148 0.508-0.238 0.267-0.146 0.542-0.272 0.831-0.368 0.129-0.043 0.253-0.103 0.37-0.172 0.169-0.099 0.35-0.163 0.536-0.221 0.063-0.020 0.122-0.057 0.182-0.087 0.013-0.006 0.024-0.022 0.037-0.028 0.247-0.116 0.485-0.259 0.743-0.338 0.225-0.068 0.458-0.139 0.706-0.117 0.182 0.016 0.367 0.002 0.551 0.002 0.104-0.001 0.208 0.008 0.304-0.057 0.031-0.021 0.081-0.017 0.122-0.018 0.089-0.002 0.179 0.004 0.268-0.003 0.163-0.012 0.309 0.024 0.449 0.112 0.077 0.048 0.173 0.073 0.264 0.094 0.172 0.039 0.338 0.106 0.522 0.088 0.135-0.013 0.272 0.009 0.409 0.005 0.125-0.003 0.238 0.021 0.349 0.077 0.084 0.042 0.17 0.070 0.266 0.084 0.075 0.010 0.151 0.071 0.211 0.126 0.091 0.084 0.189 0.144 0.308 0.178 0.035 0.009 0.068 0.029 0.098 0.049 0.098 0.065 0.197 0.114 0.322 0.096 0.094-0.013 0.171 0.038 0.245 0.091 0.058 0.042 0.123 0.077 0.19 0.103 0.129 0.050 0.245 0.116 0.346 0.213 0.253 0.244 0.508 0.487 0.766 0.725 0.116 0.107 0.242 0.202 0.363 0.302 0.044 0.036 0.096 0.067 0.131 0.111 0.075 0.094 0.162 0.164 0.279 0.195 0.014 0.004 0.032 0.010 0.041 0.021 0.148 0.192 0.369 0.32 0.457 0.571 0.045 0.13 0.175 0.23 0.267 0.344 0.066 0.080 0.136 0.158 0.197 0.242 0.085 0.118 0.171 0.239 0.244 0.366 0.087 0.148 0.179 0.298 0.239 0.459 0.159 0.426 0.302 0.859 0.45 1.289 0.009 0.024 0.018 0.052 0.016 0.077-0.030 0.289 0.109 0.541 0.173 0.809 0.092 0.387 0.2 0.769 0.302 1.153 0.038 0.141 0.092 0.281 0.11 0.425 0.025 0.201 0.024 0.406 0.033 0.61 0.001 0.021-0.002 0.043-0.012 0.062-0.078 0.145-0.069 0.302-0.073 0.46-0.004 0.145-0.036 0.29-0.056 0.434-0.006 0.047-0.012 0.094-0.019 0.14-0.017 0.119-0.033 0.238-0.050 0.356-0.023 0.155-0.094 0.302-0.071 0.464 0.005 0.035-0.010 0.073-0.019 0.108-0.036 0.163-0.068 0.327-0.112 0.488-0.041 0.151-0.096 0.298-0.144 0.447-0.022 0.069-0.046 0.138-0.067 0.208-0.033 0.11-0.046 0.23-0.099 0.327-0.163 0.295-0.257 0.618-0.404 0.919-0.099 0.2-0.222 0.39-0.334 0.585-0.031 0.054-0.076 0.105-0.091 0.163-0.043 0.178-0.137 0.328-0.239 0.474-0.015 0.021-0.034 0.043-0.041 0.066-0.067 0.221-0.234 0.371-0.384 0.53-0.211 0.226-0.426 0.447-0.649 0.661-0.127 0.124-0.272 0.229-0.408 0.344-0.115 0.098-0.226 0.201-0.343 0.298-0.11 0.092-0.216 0.173-0.38 0.19-0.141 0.015-0.279 0.11-0.409 0.186-0.185 0.108-0.351 0.248-0.56 0.313-0.010 0.003-0.022 0.006-0.029 0.012-0.214 0.188-0.505 0.25-0.717 0.44-0.019 0.017-0.040 0.037-0.064 0.043-0.178 0.049-0.354 0.101-0.533 0.14l0.126 1.156c0.282-0.078 0.557-0.355 0.83-0.463 0.102-0.040 0.201-0.088 0.302-0.133 0.171-0.077 0.351-0.134 0.525-0.201 0.23-0.090 0.44-0.238 0.648-0.377 0.142-0.096 0.264-0.223 0.4-0.329 0.123-0.096 0.263-0.172 0.377-0.277 0.096-0.089 0.202-0.141 0.323-0.184 0.127-0.044 0.268-0.069 0.356-0.188 0.094-0.127 0.193-0.248 0.335-0.328 0.034-0.019 0.053-0.063 0.079-0.096 0.021-0.028 0.042-0.056 0.047-0.063 0.147 0.009 0.27 0.014 0.393 0.028 0.077 0.009 0.155 0.021 0.227 0.047 0.163 0.058 0.326 0.118 0.481 0.193 0.151 0.074 0.257 0.020 0.376-0.092-0.056-0.084-0.119-0.159-0.162-0.246-0.118-0.234-0.223-0.474-0.339-0.709-0.047-0.092-0.036-0.169 0.024-0.248 0.088-0.116 0.182-0.228 0.258-0.352 0.107-0.173 0.246-0.328 0.299-0.531 0.007-0.030 0.032-0.054 0.047-0.082 0.051-0.097 0.11-0.191 0.152-0.292 0.153-0.365 0.325-0.722 0.426-1.109 0.058-0.221 0.149-0.435 0.208-0.657 0.041-0.157 0.109-0.306 0.153-0.462 0.088-0.306 0.167-0.616 0.249-0.924 0.023-0.085 0.046-0.171 0.060-0.258 0.031-0.179 0.054-0.36 0.083-0.539 0.003-0.021 0.013-0.040 0.023-0.058 0.070-0.128 0.14-0.257 0.215-0.382 0.015-0.026 0.043-0.049 0.069-0.062 0.228-0.115 0.437-0.272 0.698-0.316 0.071-0.013 0.144-0.034 0.207-0.069 0.201-0.114 0.395-0.241 0.597-0.352 0.132-0.073 0.275-0.126 0.413-0.188 0.069-0.031 0.14-0.062 0.24-0.107-0.176-0.048-0.291-0.155-0.453-0.152z"></path>
<path d="M16.98 11.962c-0.152 0.098-0.313 0.12-0.481 0.048-0.174-0.073-0.332-0.064-0.49 0.048-0.066 0.046-0.152 0.066-0.232 0.089-0.066 0.018-0.134 0.025-0.202 0.032-0.23 0.024-0.441 0.086-0.654 0.194-0.516 0.262-1.028 0.189-1.48-0.16-0.45-0.348-0.612-0.826-0.516-1.386 0.066-0.384 0.278-0.679 0.594-0.893 0.128-0.087 0.282-0.137 0.429-0.191 0.101-0.037 0.173-0.098 0.215-0.193 0.071-0.163 0.183-0.293 0.312-0.409 0.054-0.048 0.114-0.103 0.181-0.122 0.213-0.058 0.346-0.209 0.474-0.371 0.006-0.008 0.012-0.017 0.018-0.025 0.194-0.267 0.28-0.318 0.644-0.38-0.081 0.151-0.133 0.306-0.298 0.392-0.117 0.061-0.164 0.191-0.195 0.313-0.048 0.194-0.17 0.32-0.335 0.416-0.009 0.006-0.019 0.009-0.028 0.014-0.071 0.042-0.133 0.092-0.124 0.184 0.006 0.063 0.103 0.104 0.21 0.101 0.103-0.002 0.183-0.055 0.245-0.127 0.082-0.095 0.15-0.201 0.225-0.302 0.066-0.088 0.129-0.178 0.2-0.262 0.066-0.077 0.148-0.133 0.252-0.152 0.22-0.041 0.386-0.159 0.494-0.354 0.074-0.134 0.189-0.206 0.331-0.245 0.101-0.028 0.2-0.063 0.3-0.094 0.172-0.053 0.309-0.154 0.418-0.294 0.050-0.065 0.107-0.124 0.161-0.186 0.010 0.006 0.021 0.011 0.031 0.017-0.025 0.083-0.049 0.167-0.076 0.249-0.011 0.035-0.038 0.066-0.043 0.101-0.029 0.182-0.155 0.279-0.305 0.354-0.225 0.112-0.39 0.277-0.484 0.515-0.077 0.197-0.218 0.309-0.436 0.334-0.099 0.012-0.202 0.060-0.287 0.117-0.121 0.081-0.102 0.221 0.028 0.29 0.095 0.050 0.195 0.050 0.289 0.006 0.1-0.046 0.201-0.094 0.29-0.156 0.169-0.118 0.35-0.193 0.556-0.192 0.22 0.001 0.395-0.076 0.525-0.262 0.056-0.081 0.134-0.148 0.207-0.215 0.11-0.103 0.245-0.137 0.393-0.111 0.057 0.010 0.113 0.025 0.17 0.034 0.297 0.047 0.564-0.011 0.78-0.234 0.047-0.049 0.092-0.101 0.137-0.153 0.149-0.176 0.349-0.264 0.565-0.323 0.018-0.005 0.039 0 0.078 0-0.143 0.178-0.229 0.373-0.402 0.515-0.162 0.131-0.291 0.302-0.433 0.456-0.167 0.184-0.373 0.264-0.619 0.251-0.047-0.003-0.094-0.006-0.141-0.007-0.118-0.003-0.216 0.037-0.289 0.133-0.057 0.075-0.118 0.148-0.168 0.227-0.137 0.224-0.34 0.334-0.596 0.361-0.152 0.015-0.303 0.028-0.454 0.050-0.234 0.036-0.403 0.172-0.524 0.367-0.099 0.158 0 0.324 0.188 0.321 0.046-0.001 0.092-0.017 0.137-0.032 0.034-0.013 0.066-0.033 0.096-0.054 0.239-0.174 0.493-0.219 0.772-0.101 0.115 0.050 0.236 0.036 0.356 0.010 0.123-0.027 0.246-0.058 0.37-0.073 0.075-0.009 0.153 0.007 0.263 0.013-0.141 0.188-0.276 0.319-0.427 0.433-0.106 0.081-0.229 0.1-0.358 0.075-0.118-0.023-0.237-0.047-0.355-0.070-0.137-0.027-0.26-0.008-0.366 0.092-0.050 0.047-0.108 0.083-0.159 0.129-0.116 0.107-0.257 0.143-0.407 0.13-0.13-0.012-0.259-0.038-0.386-0.066-0.121-0.028-0.242-0.043-0.353 0.019-0.056 0.032-0.106 0.084-0.141 0.14-0.043 0.066-0.028 0.143 0.017 0.208 0.047 0.069 0.115 0.088 0.194 0.071 0.092-0.020 0.185-0.036 0.276-0.062s0.178-0.025 0.256 0.032c0.194 0.143 0.379 0.124 0.582 0.005 0.157-0.092 0.334-0.163 0.536-0.058-0.077 0.071-0.145 0.146-0.224 0.207-0.103 0.081-0.215 0.152-0.324 0.223zM17.977 30.135c-0.036-0.022-0.072-0.043-0.107-0.065-0.138-0.089-0.175-0.189-0.128-0.339 0.019-0.060 0.052-0.095 0.117-0.112 0.182-0.048 0.186-0.058 0.189-0.248 0.001-0.032 0.001-0.063 0.001-0.095 0-0.151 0.025-0.305-0.082-0.437-0.020-0.025-0.016-0.071-0.020-0.107-0.009-0.077-0.017-0.155-0.026-0.244-0.142-0.006-0.28-0.013-0.413-0.019 0-0.192-0.001-0.365 0-0.537 0.002-0.268 0.008-0.534 0.009-0.802 0.001-0.193 0-0.387-0.005-0.582-0.004-0.141-0.022-0.283-0.024-0.424-0.005-0.404-0.006-0.808-0.005-1.212 0.001-0.085-0.012-0.15-0.099-0.193-0.073-0.036-0.121-0.103-0.098-0.195 0.044-0.179 0.091-0.357 0.224-0.495 0.095-0.099 0.145-0.212 0.132-0.355-0.010-0.103-0.002-0.207-0.002-0.32 0.005-0.001 0.009-0.001 0.013-0.001v-1.181c-0.001-0.002-0.002-0.002-0.002-0.003-0.004-0.032-0.009-0.062-0.009-0.093-0.001-1.224-0.001-2.447-0.001-3.68h0.087c0.067-0.089 0.136-0.172 0.195-0.261 0.021-0.032 0.030-0.077 0.030-0.118 0.002-0.357 0-0.713-0.001-1.070 0-0.031-0.003-0.062-0.006-0.094-0.011-0.135-0.049-0.25-0.228-0.276 0.012-0.111 0.023-0.219 0.034-0.326 0.002-0.020 0.016-0.043 0.010-0.059-0.071-0.223-0.028-0.44-0.001-0.665 0.030-0.243 0.022-0.492 0.022-0.738 0-0.283-0.009-0.567-0.014-0.85-0.002-0.171 0.103-0.282 0.221-0.381 0.028-0.024 0.078-0.027 0.119-0.028 0.115-0.003 0.231 0.004 0.346-0.002 0.135-0.007 0.271-0.024 0.406-0.035 0.068-0.006 0.136-0.013 0.204-0.013 0.242 0.001 0.483 0.009 0.725 0.006 0.277-0.006 0.555-0.020 0.832-0.033 0.072-0.004 0.147-0.036 0.212-0.021 0.084 0.020 0.163 0.067 0.234 0.117 0.066 0.046 0.126 0.070 0.204 0.048 0.039-0.011 0.081-0.015 0.122-0.020 0.122-0.013 0.178-0.066 0.182-0.193 0.007-0.215 0.010-0.431 0.009-0.646-0.002-1.039-0.006-2.079-0.009-3.118-0.001-0.299 0-0.598-0.001-0.897-0.001-0.026 0.002-0.054-0.006-0.079-0.143-0.453-0.101-0.923-0.124-1.388-0.006-0.103-0.007-0.204-0.050-0.306-0.089-0.206-0.181-0.259-0.396-0.198-0.035 0.009-0.073 0.003-0.108 0.012-0.050 0.012-0.119 0.016-0.145 0.050-0.086 0.109-0.2 0.097-0.314 0.101-0.315 0.010-0.629 0.023-0.944 0.035-0.031 0.001-0.064-0.001-0.094 0.007-0.21 0.054-0.422 0.058-0.639 0.050-0.399-0.014-0.798-0.001-1.197-0.006-0.13-0.002-0.26-0.024-0.389-0.036-0.032-0.003-0.063-0.010-0.094-0.010-0.714 0.006-1.428 0.014-2.142 0.019-0.666 0.005-1.332 0.004-1.999 0.010-0.092 0.001-0.186 0.018-0.275 0.043-0.163 0.046-0.324 0.025-0.483-0.006-0.052-0.010-0.114-0.047-0.142-0.090-0.042-0.063-0.1-0.088-0.16-0.118-0.088-0.043-0.175-0.088-0.265-0.128-0.155-0.066-0.343 0.022-0.389 0.19-0.024 0.084-0.031 0.175-0.035 0.264-0.009 0.2-0.009 0.399-0.018 0.599-0.006 0.147-0.019 0.293 0.036 0.436 0.013 0.033 0.010 0.073 0.010 0.109-0.009 1.092-0.020 2.184-0.028 3.276-0.002 0.146-0.009 0.294 0.059 0.432 0.017 0.036 0.013 0.082 0.013 0.124 0.001 0.352-0.004 0.703 0.002 1.055 0.002 0.103 0.023 0.208 0.054 0.306 0.045 0.143 0.182 0.174 0.301 0.077 0.021-0.016 0.036-0.038 0.056-0.055 0.081-0.072 0.174-0.109 0.287-0.107 0.315 0.005 0.631 0.006 0.946 0.006 0.079 0 0.152 0.006 0.227 0.047 0.058 0.031 0.13 0.040 0.197 0.044 0.11 0.007 0.221-0.002 0.331 0.004 0.152 0.008 0.302 0.026 0.453 0.037 0.078 0.006 0.157 0.009 0.235 0.009 0.148 0.002 0.294-0.001 0.441 0.001 0.256 0.004 0.379 0.132 0.38 0.387 0.002 0.436-0.002 0.871 0.012 1.307 0.009 0.276 0.043 0.552 0.075 0.827 0.014 0.122-0.019 0.253 0.071 0.363 0.011 0.013-0.013 0.069-0.035 0.092-0.024 0.025-0.063 0.036-0.095 0.051-0.061 0.030-0.086 0.077-0.104 0.144-0.089 0.326-0.054 0.657-0.063 0.987-0.002 0.1-0.002 0.2-0.003 0.3-0.002 0.191 0.002 0.197 0.175 0.267 0.019 0.008 0.036 0.019 0.069 0.036-0.001 1.271 0 2.546-0.001 3.83v1.53c-0.001 0.039-0.001 0.077-0.002 0.114-0.004 0.104 0.008 0.196 0.097 0.268 0.043 0.036 0.075 0.091 0.095 0.143 0.101 0.251 0.119 0.353-0.072 0.503-0.028 0.021-0.047 0.069-0.049 0.106-0.009 0.272-0.017 0.544-0.016 0.816 0 0.388 0.010 0.776 0.012 1.164 0.002 0.262-0.004 0.525-0.004 0.787 0 0.088-0.018 0.187 0.013 0.265 0.085 0.212 0.024 0.421 0.039 0.635-0.066 0.012-0.115 0.022-0.178 0.034-0.006 0.202-0.006 0.202-0.168 0.303-0.013 0.009-0.027 0.019-0.041 0.024-0.178 0.057-0.23 0.178-0.227 0.361 0.004 0.163 0.063 0.263 0.197 0.345 0.086 0.051 0.127 0.159 0.23 0.2 0.015 0.006 0.017 0.057 0.019 0.087 0.009 0.117-0.084 0.181-0.133 0.268-0.066 0.122-0.158 0.193-0.273 0.244-0.082 0.036-0.121 0.097-0.129 0.182-0.013 0.144 0 0.282 0.098 0.402 0.052 0.065 0.109 0.132 0.14 0.208 0.067 0.167 0.17 0.303 0.309 0.41 0.163 0.124 0.328 0.245 0.499 0.357 0.058 0.038 0.137 0.060 0.207 0.066 0.261 0.022 0.523 0.040 0.785 0.049 0.196 0.006 0.395-0.013 0.554-0.142 0.118-0.097 0.242-0.181 0.378-0.25 0.060-0.031 0.115-0.073 0.168-0.116 0.182-0.147 0.268-0.351 0.291-0.574 0.020-0.182 0.003-0.367 0.006-0.551 0.002-0.107-0.051-0.178-0.137-0.231z"></path>
</svg>
