<!-- Generated by IcoMoon.io -->
<svg version="1.1" xmlns="http://www.w3.org/2000/svg" width="32" height="32" viewBox="0 0 32 32">
<title>allies-slaves-to-darkness</title>
<path d="M6.665 11.784c-0.017 0.088-0.022 0.163-0.046 0.231-0.074 0.208-0.163 0.411-0.232 0.621-0.088 0.266-0.187 0.53-0.185 0.817 0.001 0.039-0.018 0.076-0.028 0.114-0.043 0.156-0.087 0.311-0.128 0.467-0.008 0.027-0.003 0.059-0.003 0.088 0.003 0.517 0.007 1.035 0.008 1.553 0.001 0.601-0.001 1.203 0 1.804 0 0.118 0.028 0.231 0.060 0.346 0.044 0.163 0.065 0.333 0.12 0.495 0.003 0.009 0 0.020 0.002 0.030 0.016 0.071 0.016 0.153 0.053 0.21 0.133 0.21 0.101 0.468 0.21 0.684 0.012 0.025 0.010 0.058 0.011 0.088 0.006 0.131 0.044 0.253 0.108 0.366 0.044 0.075 0.069 0.153 0.061 0.238-0.006 0.078 0.021 0.142 0.051 0.21 0.031 0.070 0.048 0.152 0.048 0.228 0 0.068 0.012 0.123 0.041 0.182 0.087 0.181 0.178 0.361 0.191 0.569 0.003 0.047 0.022 0.097 0.046 0.139 0.116 0.205 0.201 0.428 0.361 0.608 0.174 0.194 0.335 0.398 0.503 0.597 0.161 0.191 0.389 0.319 0.517 0.544 0.016 0.028 0.051 0.045 0.078 0.066 0.28 0.216 0.572 0.416 0.812 0.68 0.075 0.082 0.17 0.147 0.256 0.22 0.169 0.143 0.33 0.297 0.545 0.373 0.064 0.022 0.123 0.063 0.178 0.103 0.099 0.073 0.188 0.161 0.291 0.227s0.216 0.116 0.327 0.166c0.18 0.080 0.362 0.145 0.515 0.281 0.121 0.11 0.229 0.237 0.403 0.285 0.267 0.074 0.509 0.235 0.801 0.235 0.042 0 0.086 0.021 0.127 0.036 0.23 0.083 0.464 0.129 0.709 0.113 0.113-0.007 0.227-0.004 0.34-0.001 0.042 0.002 0.091 0.007 0.126 0.029 0.175 0.107 0.367 0.16 0.571 0.166 0.246 0.007 0.494 0.003 0.74 0.008 0.064 0.001 0.127 0.013 0.189 0.024 0.111 0.018 0.222 0.056 0.333 0.058 0.473 0.006 0.948 0.004 1.421 0.001 0.077-0.001 0.157-0.018 0.231-0.040 0.165-0.050 0.331-0.098 0.489-0.166 0.18-0.076 0.36-0.077 0.549-0.059 0.092 0.010 0.188 0.004 0.279-0.011 0.232-0.040 0.464-0.086 0.694-0.138 0.11-0.025 0.228-0.047 0.32-0.107 0.197-0.128 0.373-0.289 0.611-0.345 0.014-0.003 0.029-0.011 0.039-0.022 0.11-0.13 0.258-0.193 0.414-0.245 0.037-0.012 0.071-0.033 0.105-0.053 0.243-0.147 0.469-0.323 0.734-0.435 0.075-0.032 0.144-0.061 0.227-0.049 0.031 0.004 0.072 0 0.096-0.018 0.099-0.073 0.196-0.149 0.288-0.229 0.086-0.074 0.162-0.159 0.25-0.229 0.168-0.136 0.352-0.255 0.511-0.4 0.219-0.197 0.424-0.409 0.631-0.621 0.134-0.136 0.267-0.275 0.387-0.424 0.089-0.11 0.156-0.237 0.231-0.357 0.034-0.054 0.061-0.112 0.096-0.166 0.1-0.159 0.204-0.312 0.25-0.5 0.020-0.077 0.068-0.153 0.119-0.217 0.17-0.221 0.293-0.466 0.399-0.721 0.117-0.281 0.231-0.564 0.348-0.845 0.015-0.036 0.044-0.066 0.064-0.1 0.079-0.137 0.149-0.274 0.157-0.439 0.003-0.082 0.032-0.166 0.068-0.239 0.090-0.182 0.156-0.37 0.181-0.573 0.018-0.141 0.039-0.284 0.083-0.418 0.038-0.114 0.073-0.222 0.061-0.345-0.006-0.061 0.013-0.127 0.028-0.189 0.054-0.224 0.127-0.445 0.117-0.682-0.003-0.043 0.010-0.088 0.021-0.131 0.057-0.221 0.081-0.444 0.066-0.672-0.004-0.068-0.002-0.142 0.024-0.203 0.058-0.139 0.089-0.28 0.062-0.431-0.003-0.018 0.003-0.039 0.003-0.059-0.005-0.138 0.003-0.277-0.021-0.411-0.046-0.246-0.11-0.489-0.168-0.733-0.025-0.105-0.053-0.21-0.083-0.313-0.064-0.222-0.133-0.442-0.196-0.665-0.068-0.241-0.135-0.482-0.196-0.725-0.023-0.094-0.027-0.193-0.039-0.29-0.007-0.063-0.003-0.129-0.020-0.189-0.054-0.189-0.116-0.376-0.176-0.563-0.038-0.117-0.078-0.233-0.12-0.349-0.075-0.203-0.143-0.409-0.231-0.607-0.080-0.18-0.176-0.352-0.276-0.522-0.085-0.145-0.185-0.28-0.278-0.418-0.050-0.074-0.089-0.157-0.152-0.218-0.181-0.18-0.37-0.351-0.451-0.605-0.011-0.036-0.039-0.069-0.066-0.097-0.133-0.145-0.268-0.288-0.403-0.431-0.007-0.007-0.016-0.013-0.025-0.016-0.169-0.036-0.283-0.149-0.39-0.275-0.025-0.029-0.061-0.050-0.091-0.075-0.153-0.125-0.31-0.245-0.455-0.378-0.302-0.277-0.597-0.561-0.892-0.845-0.125-0.12-0.271-0.195-0.431-0.251-0.053-0.018-0.109-0.046-0.152-0.082-0.11-0.094-0.23-0.153-0.378-0.132-0.078 0.011-0.145-0.011-0.21-0.052s-0.132-0.090-0.206-0.113c-0.145-0.044-0.269-0.111-0.375-0.22-0.087-0.089-0.188-0.158-0.325-0.149-0.045 0.003-0.093-0.025-0.137-0.046-0.157-0.075-0.313-0.127-0.494-0.131-0.331-0.005-0.67 0.044-0.993-0.083-0.154-0.061-0.324-0.077-0.467-0.17-0.106-0.069-0.222-0.101-0.351-0.095-0.139 0.007-0.277 0.001-0.415 0.006-0.053 0.002-0.114 0.006-0.156 0.032-0.086 0.053-0.175 0.059-0.27 0.059-0.301 0-0.602 0.003-0.903 0.002-0.234-0.001-0.445 0.111-0.672 0.137-0.023 0.003-0.045 0.020-0.067 0.032-0.181 0.089-0.359 0.184-0.544 0.267-0.098 0.045-0.201 0.076-0.284 0.152-0.041 0.037-0.106 0.049-0.161 0.069-0.183 0.069-0.379 0.117-0.549 0.21-0.247 0.136-0.506 0.24-0.766 0.342-0.326 0.125-0.642 0.271-0.935 0.466-0.064 0.043-0.14 0.070-0.214 0.096-0.117 0.039-0.237 0.068-0.353 0.106-0.031 0.010-0.061 0.032-0.084 0.056-0.215 0.221-0.447 0.414-0.748 0.509-0.036 0.011-0.071 0.035-0.101 0.061-0.072 0.060-0.139 0.125-0.211 0.184-0.113 0.093-0.231 0.181-0.345 0.273-0.193 0.152-0.408 0.275-0.565 0.473-0.082 0.103-0.186 0.189-0.285 0.276-0.089 0.078-0.185 0.146-0.275 0.222s-0.168 0.175-0.271 0.225c-0.117 0.058-0.172 0.144-0.224 0.253-0.171 0.35-0.352 0.694-0.526 1.043-0.165 0.327-0.254 0.682-0.367 1.028-0.039 0.119-0.083 0.222-0.224 0.249zM4.171 4.247c0.146-0.018 0.253-0.007 0.365 0.078 0.16 0.122 0.344 0.21 0.514 0.318 0.070 0.045 0.135 0.099 0.194 0.158 0.167 0.168 0.328 0.343 0.537 0.462 0.034 0.019 0.063 0.048 0.090 0.077 0.090 0.095 0.196 0.163 0.32 0.205 0.046 0.015 0.097 0.037 0.126 0.072 0.139 0.166 0.331 0.264 0.498 0.394 0.144 0.11 0.297 0.211 0.431 0.333 0.246 0.221 0.526 0.375 0.838 0.478 0.064 0.021 0.124 0.061 0.181 0.099 0.204 0.142 0.359 0.076 0.394-0.168 0.002-0.014 0.005-0.029 0.008-0.042 0.088-0.074 0.17-0.123 0.3-0.119 0.107 0.003 0.224-0.068 0.324-0.128 0.31-0.192 0.612-0.397 0.92-0.593 0.102-0.065 0.21-0.11 0.33-0.145 0.267-0.078 0.53-0.178 0.776-0.317s0.504-0.261 0.779-0.351c0.175-0.057 0.335-0.16 0.505-0.238 0.179-0.081 0.359-0.16 0.542-0.231 0.239-0.091 0.481-0.167 0.708-0.288 0.163-0.087 0.349-0.131 0.525-0.189 0.094-0.032 0.189-0.054 0.284-0.082 0.188-0.057 0.375-0.117 0.564-0.171 0.088-0.025 0.136-0.069 0.132-0.167-0.002-0.043 0.007-0.091 0.026-0.13 0.062-0.13 0.071-0.267 0.059-0.405-0.020-0.239 0.075-0.456 0.123-0.681 0.063-0.294 0.138-0.586 0.198-0.88 0.025-0.12 0.030-0.245 0.037-0.367 0.005-0.104 0.011-0.205 0.066-0.299 0.018-0.032 0.019-0.075 0.021-0.113 0.004-0.094 0.001-0.188 0.004-0.281 0.002-0.044-0.001-0.094 0.018-0.131 0.046-0.089 0.073-0.178 0.072-0.28 0-0.031 0.035-0.062 0.073-0.125 0.036 0.118 0.063 0.201 0.086 0.285 0.053 0.2 0.109 0.399 0.154 0.6 0.030 0.13 0.046 0.262 0.065 0.393 0.021 0.141 0.035 0.283 0.062 0.423 0.011 0.060 0.038 0.125 0.075 0.174 0.119 0.156 0.145 0.331 0.12 0.516-0.009 0.067-0.001 0.118 0.028 0.181 0.033 0.073 0.038 0.161 0.043 0.244 0.005 0.089 0.011 0.172 0.055 0.255 0.033 0.061 0.033 0.142 0.037 0.215 0.007 0.156-0.022 0.319 0.136 0.469 0.057 0.003 0.154 0.006 0.252 0.014 0.087 0.008 0.174 0.018 0.26 0.034 0.12 0.021 0.239 0.050 0.359 0.072 0.154 0.028 0.317 0.032 0.462 0.086 0.217 0.082 0.438 0.063 0.658 0.070 0.267 0.008 0.525 0.034 0.772 0.157 0.137 0.068 0.267 0.143 0.397 0.22 0.155 0.092 0.332 0.146 0.496 0.224 0.092 0.044 0.181 0.1 0.263 0.159 0.152 0.109 0.289 0.23 0.484 0.272 0.146 0.032 0.284 0.108 0.422 0.173 0.168 0.079 0.334 0.166 0.501 0.251 0.047 0.025 0.096 0.053 0.136 0.089 0.107 0.094 0.209 0.195 0.317 0.288 0.128 0.11 0.268 0.196 0.43 0.252 0.082 0.028 0.166 0.069 0.232 0.124 0.198 0.161 0.388 0.332 0.583 0.499 0.030 0.025 0.066 0.043 0.098 0.065 0.187-0.030 0.309-0.17 0.458-0.261 0.125-0.076 0.235-0.175 0.389-0.204 0.072-0.013 0.132-0.081 0.202-0.117 0.042-0.022 0.090-0.045 0.137-0.047 0.127-0.005 0.196 0.109 0.14 0.218-0.073 0.139-0.141 0.282-0.218 0.42-0.079 0.141-0.152 0.289-0.254 0.412-0.164 0.196-0.153 0.394-0.059 0.606 0.12 0.268 0.285 0.507 0.468 0.734 0.103 0.126 0.213 0.245 0.312 0.374 0.068 0.089 0.132 0.184 0.182 0.284 0.094 0.189 0.249 0.33 0.376 0.492 0.142 0.182 0.236 0.381 0.283 0.608 0.025 0.118 0.079 0.231 0.117 0.348 0.047 0.139 0.089 0.281 0.139 0.42 0.103 0.287 0.212 0.572 0.311 0.86 0.042 0.12 0.059 0.249 0.097 0.37 0.042 0.131 0.1 0.256 0.146 0.385 0.050 0.139 0.097 0.279 0.139 0.419 0.051 0.169 0.090 0.343 0.145 0.51 0.056 0.174 0.125 0.341 0.146 0.525 0.020 0.181 0.076 0.261 0.313 0.272 0.141 0.006 0.247 0.090 0.371 0.133 0.037 0.012 0.075 0.031 0.103 0.057 0.088 0.086 0.195 0.079 0.303 0.075 0.118-0.003 0.237 0.001 0.355-0.002 0.085-0.003 0.163 0.003 0.236 0.061 0.032 0.026 0.094 0.029 0.14 0.024 0.19-0.021 0.37 0.039 0.555 0.062 0.019 0.003 0.038 0.012 0.055 0.020 0.096 0.045 0.192 0.089 0.314 0.146-0.123 0.046-0.23 0.082-0.333 0.126-0.139 0.061-0.28 0.122-0.412 0.196-0.235 0.134-0.462 0.284-0.699 0.416-0.084 0.046-0.186 0.061-0.279 0.092-0.103 0.033-0.208 0.060-0.305 0.104-0.144 0.066-0.281 0.143-0.421 0.217-0.079 0.043-0.14 0.098-0.172 0.191-0.023 0.068-0.068 0.129-0.11 0.189-0.092 0.132-0.146 0.272-0.159 0.437-0.016 0.189-0.048 0.379-0.083 0.564-0.047 0.25-0.147 0.489-0.218 0.735-0.038 0.132-0.054 0.27-0.094 0.402-0.063 0.212-0.139 0.42-0.205 0.631-0.032 0.103-0.046 0.212-0.080 0.315-0.039 0.121-0.089 0.238-0.135 0.358-0.014 0.037-0.034 0.074-0.039 0.111-0.044 0.338-0.224 0.626-0.336 0.939-0.095 0.265-0.249 0.502-0.366 0.756-0.099 0.217-0.226 0.412-0.347 0.614-0.018 0.029-0.032 0.066-0.057 0.085-0.126 0.096-0.184 0.241-0.272 0.365-0.061 0.085-0.071 0.169-0.020 0.262 0.035 0.065 0.065 0.133 0.096 0.2 0.099 0.209 0.197 0.418 0.298 0.626 0.018 0.039 0.048 0.074 0.072 0.11 0.039 0.061 0.079 0.122 0.127 0.196-0.081 0.049-0.144 0.094-0.213 0.127-0.032 0.015-0.077 0.015-0.112 0.006-0.076-0.019-0.152-0.045-0.224-0.075-0.168-0.069-0.334-0.145-0.502-0.213-0.049-0.020-0.104-0.029-0.157-0.033-0.074-0.005-0.148 0.003-0.222-0.003-0.086-0.006-0.171-0.021-0.256-0.052-0.013 0.006-0.032 0.009-0.038 0.019-0.068 0.138-0.183 0.226-0.309 0.308-0.047 0.031-0.092 0.078-0.12 0.128-0.12 0.211-0.321 0.298-0.537 0.362-0.13 0.038-0.254 0.081-0.34 0.194-0.011 0.016-0.027 0.030-0.045 0.039-0.125 0.061-0.231 0.146-0.332 0.242-0.092 0.087-0.201 0.155-0.301 0.234-0.058 0.046-0.109 0.102-0.169 0.143-0.138 0.095-0.277 0.185-0.418 0.274-0.112 0.070-0.226 0.138-0.342 0.202-0.042 0.024-0.090 0.048-0.137 0.051-0.165 0.011-0.296 0.105-0.442 0.159-0.281 0.103-0.536 0.273-0.834 0.338-0.124 0.026-0.24 0.084-0.362 0.121-0.226 0.068-0.453 0.13-0.68 0.194-0.024 0.006-0.049 0.011-0.073 0.009-0.151-0.019-0.281 0.038-0.405 0.112-0.136 0.081-0.288 0.051-0.433 0.066-0.064 0.006-0.128 0.006-0.192 0.007-0.123 0.002-0.213 0.070-0.298 0.146-0.023 0.021-0.031 0.060-0.039 0.092-0.019 0.070-0.033 0.141-0.053 0.21-0.020 0.071-0.041 0.142-0.068 0.21-0.051 0.136-0.051 0.289-0.159 0.408-0.036 0.039-0.037 0.121-0.037 0.183 0 0.129-0.012 0.255-0.056 0.378-0.015 0.041-0.024 0.087-0.025 0.131-0.017 0.431-0.137 0.844-0.227 1.263-0.057 0.266-0.118 0.528-0.189 0.789-0.067 0.251-0.082 0.514-0.126 0.77-0.013 0.075-0.046 0.146-0.087 0.221-0.062-0.139-0.142-0.267-0.139-0.423 0.002-0.079 0.008-0.159 0.001-0.237-0.006-0.061-0.029-0.121-0.046-0.181-0.008-0.028-0.029-0.055-0.029-0.082 0.001-0.11-0.050-0.208-0.071-0.31-0.044-0.213-0.123-0.412-0.181-0.619s-0.082-0.421-0.125-0.631c-0.015-0.072-0.039-0.142-0.060-0.213-0.051-0.184-0.109-0.366-0.152-0.552-0.046-0.202-0.074-0.406-0.115-0.608-0.057-0.279-0.114-0.558-0.228-0.835-0.195 0-0.387 0.003-0.578-0.001-0.187-0.003-0.374-0.013-0.561-0.022-0.029-0.002-0.062-0.004-0.086-0.019-0.139-0.088-0.295-0.063-0.445-0.079-0.082-0.010-0.167-0.024-0.24-0.060-0.159-0.079-0.324-0.12-0.499-0.112-0.264 0.011-0.502-0.049-0.73-0.189-0.222-0.136-0.461-0.244-0.691-0.367-0.072-0.039-0.136-0.095-0.208-0.136-0.14-0.079-0.28-0.16-0.424-0.23-0.222-0.105-0.455-0.19-0.601-0.408-0.008-0.011-0.017-0.028-0.029-0.032-0.153-0.053-0.235-0.19-0.346-0.294-0.014-0.013-0.028-0.029-0.046-0.037-0.34-0.161-0.584-0.447-0.872-0.676-0.126-0.1-0.239-0.219-0.363-0.323-0.090-0.075-0.19-0.139-0.284-0.205-0.139 0.075-0.273 0.131-0.375 0.246-0.063 0.071-0.16 0.112-0.241 0.167-0.191 0.13-0.38 0.263-0.575 0.388-0.051 0.032-0.117 0.040-0.178 0.055-0.028 0.008-0.066-0.004-0.086 0.010-0.105 0.077-0.208 0.16-0.31 0.242-0.176 0.142-0.349 0.287-0.528 0.425-0.032 0.025-0.083 0.032-0.126 0.033-0.139 0.005-0.219-0.121-0.152-0.24 0.034-0.061 0.074-0.112 0.046-0.191-0.008-0.023 0.025-0.077 0.053-0.094 0.149-0.090 0.218-0.243 0.289-0.386 0.11-0.217 0.25-0.411 0.402-0.599 0.111-0.138 0.234-0.266 0.351-0.399 0.018-0.022 0.043-0.049 0.044-0.074 0.003-0.131 0.089-0.228 0.132-0.342s0.102-0.223 0.162-0.352c-0.075-0.096-0.16-0.196-0.235-0.304-0.165-0.238-0.338-0.472-0.475-0.73-0.083-0.157-0.169-0.318-0.312-0.44-0.069-0.060-0.117-0.146-0.162-0.228-0.073-0.128-0.138-0.261-0.202-0.395-0.017-0.035-0.032-0.077-0.027-0.114 0.011-0.1-0.025-0.187-0.075-0.266-0.099-0.16-0.091-0.338-0.107-0.514-0.005-0.068-0.020-0.134-0.031-0.201-0.012-0.073-0.019-0.147-0.039-0.217-0.061-0.208-0.127-0.413-0.191-0.619-0.004-0.014-0.013-0.027-0.016-0.041-0.039-0.206-0.077-0.412-0.115-0.619-0.006-0.033 0.004-0.076-0.013-0.1-0.078-0.109-0.073-0.232-0.073-0.356-0.001-0.079 0-0.155-0.041-0.229-0.018-0.032-0.020-0.076-0.019-0.115 0.006-0.183-0.019-0.363-0.064-0.539-0.025-0.103-0.032-0.208-0.082-0.309-0.037-0.073-0.028-0.174-0.023-0.261 0.009-0.142-0.018-0.274-0.085-0.408-0.129 0.003-0.243-0.044-0.337-0.141-0.016-0.017-0.041-0.029-0.065-0.034-0.161-0.035-0.325-0.061-0.486-0.103-0.108-0.027-0.209-0.081-0.317-0.111-0.183-0.053-0.369-0.098-0.554-0.146-0.047-0.013-0.096-0.023-0.142-0.037-0.054-0.018-0.737-0.142-0.794-0.14-0.113 0.003-0.226 0.009-0.339 0.011-0.032 0.001-0.066-0.007-0.099-0.011 0.038-0.147 0.126-0.224 0.281-0.242 0.064-0.008 0.129-0.004 0.193-0.008 0.054-0.004 0.112-0.002 0.159-0.024 0.135-0.061 0.276-0.067 0.42-0.065 0.152 0.002 0.298 0.004 0.446-0.067 0.13-0.061 0.288-0.060 0.425-0.108 0.169-0.060 0.343-0.108 0.501-0.203 0.11-0.067 0.245-0.114 0.372-0.124 0.144-0.012 0.267-0.069 0.389-0.124 0.095-0.044 0.177-0.077 0.276-0.033 0.073-0.132 0.13-0.253 0.116-0.4-0.010-0.103 0.011-0.207 0.008-0.31-0.003-0.112 0.013-0.216 0.075-0.31 0.016-0.023 0.017-0.055 0.024-0.084 0.018-0.075 0.037-0.151 0.055-0.226 0.003-0.015 0.014-0.027 0.016-0.042 0.042-0.316 0.221-0.586 0.31-0.887 0.063-0.21 0.117-0.423 0.175-0.636 0.009-0.033 0.017-0.067 0.031-0.098 0.125-0.288 0.253-0.574 0.379-0.861 0.046-0.104 0.082-0.212 0.132-0.314 0.105-0.217 0.214-0.431 0.326-0.645 0.052-0.098 0.103-0.196 0.198-0.269 0.038-0.029 0.053-0.105 0.055-0.16 0.003-0.143-0.006-0.286-0.011-0.429 0-0.019-0.011-0.043-0.003-0.059 0.054-0.121-0.021-0.21-0.082-0.295-0.231-0.316-0.424-0.653-0.599-1.001-0.132-0.261-0.279-0.51-0.484-0.722-0.051-0.053-0.094-0.115-0.135-0.176-0.208-0.317-0.426-0.628-0.678-0.914-0.065-0.073-0.11-0.163-0.163-0.245-0.178-0.272-0.357-0.544-0.534-0.816-0.025-0.040-0.040-0.088-0.066-0.146z"></path>
<path d="M16.255 20.486c1.204-0.027 2.303-0.498 3.2-1.432 0.397-0.414 0.708-0.884 0.883-1.436 0.041-0.132 0.084-0.263 0.14-0.388 0.129-0.289 0.195-0.588 0.172-0.906-0.005-0.069 0-0.139-0.001-0.207-0.002-0.064-0.002-0.129-0.008-0.192-0.018-0.185-0.046-0.37-0.058-0.555-0.017-0.245-0.012-0.492-0.037-0.736-0.015-0.155-0.051-0.311-0.102-0.459-0.151-0.431-0.376-0.825-0.651-1.189-1.579-2.089-4.504-2.442-6.515-0.786-0.36 0.297-0.681 0.635-0.928 1.029-0.189 0.304-0.332 0.637-0.492 0.96-0.063 0.129-0.114 0.263-0.096 0.412 0.002 0.018-0.005 0.039-0.007 0.058-0.019 0.186-0.043 0.371-0.055 0.557-0.017 0.245-0.024 0.491-0.035 0.736-0.001 0.015-0.004 0.030-0.006 0.044-0.044 0.225-0.045 0.45 0.004 0.675 0.025 0.115 0.060 0.229 0.072 0.345 0.025 0.235 0.109 0.451 0.197 0.663 0.182 0.437 0.445 0.823 0.759 1.175 0.074 0.082 0.171 0.146 0.258 0.217 0.068 0.056 0.141 0.106 0.204 0.167 0.153 0.146 0.282 0.324 0.452 0.444 0.766 0.536 1.625 0.794 2.648 0.804zM15.318 22.869c0-0.217-0.005-0.434 0.002-0.651 0.006-0.196 0.027-0.392 0.039-0.587 0.004-0.048 0.001-0.096 0.001-0.151-0.054-0.013-0.096-0.025-0.139-0.032-0.881-0.145-1.685-0.48-2.41-1-0.068-0.049-0.132-0.058-0.207-0.039-0.071 0.018-0.141 0.041-0.212 0.061-0.092 0.027-0.159 0.076-0.223 0.155-0.123 0.153-0.272 0.283-0.41 0.423-0.040 0.041-0.079 0.084-0.114 0.121 0.038 0.118 0.109 0.178 0.217 0.191 0.111 0.013 0.224 0.025 0.335 0.039 0.038 0.004 0.075 0.011 0.11 0.017 0.019 0.089-0.030 0.137-0.081 0.172-0.181 0.123-0.366 0.238-0.601 0.203-0.033-0.004-0.068-0.002-0.103 0.003-0.233 0.033-0.466 0.067-0.7 0.102-0.029 0.004-0.063 0.005-0.085 0.021-0.096 0.071-0.209 0.089-0.321 0.103-0.117 0.016-0.217 0.060-0.31 0.13-0.084 0.063-0.18 0.078-0.281 0.067-0.089-0.011-0.123-0.075-0.063-0.142 0.040-0.046 0.044-0.094 0.056-0.146 0.109-0.475 0.224-0.948 0.328-1.424 0.060-0.277 0.103-0.559 0.151-0.839 0.008-0.046 0.014-0.094 0.068-0.1 0.067-0.009 0.095 0.043 0.115 0.095 0.053 0.138 0.101 0.278 0.157 0.414 0.032 0.075 0.075 0.146 0.118 0.229 0.039-0.027 0.068-0.038 0.083-0.059 0.142-0.186 0.297-0.356 0.503-0.471 0.091-0.051 0.134-0.117 0.128-0.226-0.004-0.097 0.018-0.196 0.029-0.293 0.009-0.077-0.013-0.143-0.058-0.208-0.281-0.403-0.509-0.835-0.662-1.302-0.102-0.308-0.175-0.626-0.253-0.942-0.020-0.081-0.042-0.15-0.12-0.191-0.021-0.011-0.045-0.026-0.057-0.046-0.082-0.14-0.211-0.152-0.357-0.146-0.226 0.008-0.454 0.002-0.681 0.002-0.047 0-0.096 0.004-0.167 0.008 0.072 0.153 0.102 0.304 0.193 0.432 0.037 0.051 0.060 0.114 0.075 0.174 0.022 0.085 0.037 0.174 0.042 0.261 0.002 0.037-0.022 0.096-0.050 0.108-0.030 0.013-0.085-0.008-0.117-0.031-0.092-0.064-0.175-0.143-0.269-0.203-0.086-0.056-0.183-0.096-0.275-0.141s-0.186-0.091-0.28-0.134c-0.124-0.059-0.253-0.11-0.373-0.174-0.131-0.069-0.254-0.15-0.38-0.224-0.072-0.043-0.142-0.090-0.217-0.125-0.259-0.118-0.519-0.232-0.78-0.345-0.039-0.017-0.085-0.033-0.127-0.030-0.099 0.009-0.171-0.030-0.231-0.117 0.034-0.061 0.096-0.098 0.164-0.126 0.115-0.047 0.21-0.123 0.312-0.192 0.247-0.17 0.502-0.331 0.767-0.47s0.549-0.245 0.821-0.372c0.134-0.062 0.26-0.14 0.389-0.213 0.082-0.046 0.161-0.083 0.262-0.087 0.061-0.002 0.122-0.053 0.181-0.088 0.025-0.014 0.041-0.046 0.068-0.056 0.028-0.011 0.077-0.020 0.091-0.005 0.022 0.022 0.039 0.074 0.027 0.1-0.032 0.071-0.081 0.135-0.119 0.203-0.075 0.131-0.146 0.263-0.231 0.418 0.139 0 0.251 0 0.362 0 0.203-0.001 0.405-0.002 0.607-0.004 0.21-0.002 0.297-0.077 0.356-0.28 0.13-0.451 0.307-0.884 0.515-1.305 0.044-0.089 0.082-0.179 0.125-0.267 0.107-0.216 0.217-0.431 0.323-0.647 0.045-0.092 0.086-0.187 0.121-0.283 0.025-0.071-0.001-0.139-0.053-0.19-0.041-0.041-0.086-0.087-0.139-0.109-0.192-0.080-0.32-0.244-0.489-0.353-0.134 0.101-0.22 0.238-0.235 0.432-0.117-0.099-0.161-0.197-0.182-0.328-0.055-0.35-0.104-0.702-0.236-1.035-0.086-0.22-0.154-0.447-0.239-0.667-0.036-0.091-0.083-0.181-0.144-0.257-0.063-0.079-0.054-0.167-0.059-0.252-0.004-0.071 0.075-0.102 0.142-0.068 0.091 0.046 0.184 0.089 0.277 0.132 0.013 0.007 0.028 0.011 0.039 0.020 0.16 0.127 0.363 0.171 0.534 0.278 0.14 0.089 0.305 0.104 0.461 0.146 0.228 0.062 0.457 0.121 0.687 0.178 0.103 0.025 0.209 0.045 0.341 0.073-0.162 0.16-0.381 0.206-0.517 0.388 0.089 0.089 0.181 0.182 0.274 0.273 0.063 0.062 0.126 0.125 0.196 0.181 0.048 0.039 0.103 0.072 0.161 0.096 0.132 0.057 0.262 0.059 0.393-0.023 0.074-0.046 0.164-0.067 0.248-0.095 0.271-0.091 0.502-0.253 0.728-0.419 0.254-0.186 0.531-0.317 0.831-0.41 0.126-0.039 0.25-0.091 0.373-0.141 0.106-0.043 0.21-0.075 0.328-0.076 0.203-0.003 0.254-0.045 0.274-0.243 0.023-0.23 0.031-0.461 0.039-0.693 0.002-0.051-0.022-0.103-0.032-0.147-0.122-0.045-0.224 0.005-0.33 0.024-0.053 0.010-0.106 0.027-0.159 0.024-0.079-0.004-0.144 0.020-0.208 0.060-0.124 0.078-0.234 0.033-0.263-0.11-0.005-0.028 0.009-0.068 0.027-0.094 0.11-0.157 0.219-0.314 0.294-0.494 0.032-0.079 0.103-0.141 0.156-0.211 0.005-0.008 0.014-0.013 0.019-0.022 0.122-0.202 0.261-0.396 0.36-0.609 0.145-0.309 0.303-0.609 0.486-0.895 0.024-0.037 0.062-0.064 0.086-0.101 0.027-0.044 0.061-0.091 0.066-0.14 0.010-0.103 0.070-0.166 0.146-0.234 0.080 0.073 0.141 0.139 0.181 0.244 0.14 0.373 0.297 0.739 0.459 1.103 0.077 0.175 0.18 0.338 0.268 0.508 0.191 0.367 0.381 0.735 0.571 1.102-0.050 0.079-0.11 0.089-0.192 0.056-0.174-0.068-0.352-0.124-0.495-0.254-0.053-0.049-0.124-0.078-0.203-0.126-0.026 0.111-0.023 0.207 0.005 0.3 0.081 0.267 0.112 0.539 0.109 0.818 0 0.029 0.004 0.059 0.010 0.088 0.003 0.014 0.012 0.026 0.022 0.046 0.328-0.001 0.63 0.136 0.946 0.205 0.169 0.036 0.324 0.107 0.456 0.231 0.070 0.067 0.16 0.114 0.246 0.161 0.219 0.122 0.435 0.249 0.679 0.323 0.089 0.027 0.168 0.1 0.244 0.161 0.118 0.096 0.231 0.2 0.352 0.307 0.125-0.116 0.245-0.224 0.363-0.335 0.094-0.087 0.191-0.17 0.277-0.265 0.052-0.056 0.085-0.129 0.139-0.213-0.089-0.044-0.161-0.080-0.233-0.117-0.053-0.026-0.11-0.050-0.11-0.124 0.001-0.068 0.043-0.108 0.096-0.139 0.025-0.015 0.053-0.028 0.080-0.038 0.187-0.062 0.373-0.126 0.561-0.185 0.164-0.052 0.33-0.098 0.494-0.147 0.032-0.011 0.070-0.014 0.096-0.034 0.202-0.153 0.454-0.188 0.673-0.298 0.025-0.013 0.056-0.021 0.084-0.022 0.12-0.003 0.164 0.050 0.132 0.166-0.049 0.181-0.099 0.361-0.155 0.54-0.103 0.323-0.203 0.645-0.351 0.953-0.068 0.145-0.094 0.31-0.141 0.466-0.017 0.055-0.039 0.11-0.059 0.166-0.21-0.019-0.203-0.21-0.285-0.335-0.11 0.039-0.187 0.118-0.255 0.208-0.141 0.183-0.281 0.368-0.422 0.551-0.045 0.058-0.057 0.114-0.012 0.175 0.061 0.084 0.125 0.166 0.179 0.253 0.134 0.218 0.277 0.432 0.394 0.659 0.161 0.315 0.306 0.64 0.365 0.993 0.039 0.237 0.075 0.473 0.109 0.711 0.009 0.064 0.034 0.108 0.091 0.141 0.23 0.134 0.229 0.132 0.56 0.102 0.176-0.017 0.353-0.022 0.53-0.032 0.039-0.002 0.078-0.004 0.125-0.006-0.026-0.188-0.068-0.361-0.195-0.503-0.090-0.099-0.116-0.214-0.079-0.349 0.134-0.083 0.26-0.065 0.39 0.026 0.402 0.278 0.837 0.497 1.256 0.746 0.058 0.034 0.131 0.043 0.192 0.073 0.124 0.060 0.245 0.124 0.366 0.191 0.25 0.139 0.498 0.28 0.746 0.421 0.007 0.004 0.011 0.016 0.016 0.025-0.003 0.009-0.003 0.023-0.008 0.025-0.165 0.062-0.27 0.203-0.407 0.303-0.061 0.044-0.139 0.067-0.213 0.091-0.424 0.142-0.86 0.258-1.241 0.509-0.25 0.164-0.537 0.245-0.804 0.371-0.063 0.030-0.124 0.065-0.21 0.111-0.057-0.013-0.011-0.074 0.001-0.118 0.061-0.212 0.123-0.423 0.186-0.64-0.002-0.002-0.009-0.014-0.017-0.014-0.236-0.002-0.473-0.003-0.709-0.003-0.024 0-0.049 0.006-0.071 0.016-0.103 0.046-0.203 0.098-0.307 0.142-0.055 0.024-0.082 0.059-0.098 0.117-0.068 0.251-0.145 0.501-0.213 0.751-0.028 0.104-0.049 0.212-0.062 0.319-0.027 0.216-0.115 0.407-0.229 0.587-0.124 0.196-0.245 0.394-0.375 0.585-0.122 0.178-0.255 0.348-0.395 0.538 0.146 0.198 0.301 0.408 0.456 0.616 0.036 0.049 0.084 0.053 0.128 0.015 0.137-0.119 0.281-0.233 0.357-0.405 0.020-0.046 0.044-0.079 0.097-0.069s0.067 0.053 0.068 0.1c0.013 0.368 0.11 0.719 0.224 1.066 0.032 0.097 0.052 0.2 0.084 0.298 0.083 0.247 0.171 0.492 0.255 0.739 0.026 0.075 0.051 0.15 0.068 0.226 0.024 0.103-0.018 0.16-0.117 0.147-0.086-0.010-0.169-0.041-0.253-0.068-0.088-0.027-0.173-0.063-0.262-0.088-0.184-0.050-0.369-0.098-0.533-0.204-0.017-0.011-0.033-0.021-0.052-0.026-0.306-0.093-0.606-0.205-0.922-0.257-0.015-0.003-0.035 0-0.043-0.009-0.039-0.040-0.089-0.079-0.11-0.129-0.024-0.053 0.029-0.085 0.068-0.117 0.101-0.084 0.201-0.171 0.305-0.26-0.132-0.297-0.389-0.464-0.609-0.68-0.094 0.071-0.186 0.153-0.289 0.216-0.315 0.191-0.605 0.424-0.957 0.556-0.277 0.103-0.547 0.224-0.821 0.335-0.213 0.085-0.434 0.127-0.665 0.125-0.174-0.003-0.313 0.143-0.314 0.315-0.001 0.281-0.001 0.563 0.001 0.844 0 0.042 0.008 0.084 0.013 0.132 0.268-0.131 0.523-0.254 0.778-0.377 0.004-0.002 0.016 0.010 0.040 0.025-0.022 0.059-0.044 0.122-0.068 0.184-0.060 0.157-0.117 0.315-0.18 0.47-0.038 0.090-0.082 0.178-0.128 0.265-0.037 0.069-0.080 0.136-0.124 0.202-0.059 0.090-0.122 0.178-0.181 0.267-0.030 0.046-0.061 0.090-0.085 0.139-0.102 0.208-0.202 0.416-0.302 0.625-0.006 0.014-0.013 0.027-0.016 0.041-0.070 0.338-0.245 0.63-0.399 0.931-0.016 0.030-0.060 0.069-0.084 0.065-0.035-0.005-0.078-0.040-0.094-0.075-0.060-0.129-0.108-0.264-0.164-0.395-0.119-0.275-0.234-0.552-0.364-0.823-0.127-0.267-0.27-0.525-0.408-0.787-0.023-0.044-0.053-0.083-0.073-0.128-0.114-0.257-0.226-0.514-0.337-0.772-0.025-0.059-0.043-0.121-0.056-0.183-0.017-0.082 0.039-0.134 0.12-0.116 0.014 0.003 0.027 0.012 0.040 0.019 0.165 0.085 0.336 0.162 0.442 0.327 0.019 0.031 0.049 0.053 0.075 0.081l0.032-0.018z"></path>
<path d="M16.275 18.217c0.046 0.029 0.086 0.059 0.131 0.078 0.199 0.089 0.344-0.005 0.341-0.225-0.001-0.16-0.043-0.311-0.114-0.453-0.046-0.092-0.091-0.185-0.15-0.268-0.026-0.039-0.082-0.072-0.129-0.080-0.199-0.033-0.321 0.094-0.429 0.231-0.16 0.204-0.197 0.445-0.19 0.697 0.004 0.123 0.050 0.162 0.177 0.156 0.136-0.005 0.26-0.044 0.363-0.136zM15.023 17.135c0.028-0.002 0.053 0 0.077-0.005 0.096-0.019 0.193-0.039 0.288-0.063 0.18-0.044 0.25-0.233 0.126-0.373-0.1-0.113-0.219-0.21-0.338-0.304-0.060-0.048-0.134-0.082-0.207-0.111-0.058-0.024-0.123-0.042-0.185-0.041-0.092 0-0.185 0.016-0.277 0.031-0.076 0.012-0.149 0.046-0.166 0.128-0.036 0.168-0.122 0.344 0.039 0.499 0.011 0.009 0.014 0.025 0.018 0.039 0.032 0.097 0.11 0.139 0.201 0.153 0.141 0.021 0.284 0.032 0.423 0.047zM17.478 17.035c0.039 0 0.088 0 0.137 0 0.127-0.002 0.244-0.040 0.346-0.11 0.041-0.028 0.089-0.078 0.095-0.122 0.018-0.163 0.018-0.327 0.025-0.491 0.003-0.065-0.018-0.128-0.080-0.144-0.098-0.025-0.208-0.063-0.301-0.041-0.253 0.060-0.501 0.151-0.704 0.32-0.068 0.056-0.124 0.142-0.156 0.225-0.053 0.134 0.006 0.238 0.138 0.296 0.157 0.068 0.318 0.098 0.5 0.068zM17.019 19.741c-0.032-0.049-0.056-0.086-0.071-0.108-0.119 0.007-0.087 0.103-0.144 0.157-0.062 0.004-0.139 0.009-0.21 0.013-0.038-0.052-0.060-0.108-0.101-0.127-0.021-0.010-0.073 0.046-0.125 0.081-0.209-0.051-0.433-0.106-0.657-0.16-0.005-0.001-0.010-0.005-0.014-0.004-0.171 0.033-0.266-0.091-0.38-0.179-0.070-0.053-0.147-0.097-0.201-0.132-0.053-0.139-0.101-0.262-0.148-0.384-0.056-0.143-0.124-0.281-0.167-0.427-0.078-0.26-0.316-0.503-0.677-0.43-0.093 0.019-0.205-0.016-0.299-0.052-0.092-0.036-0.127-0.124-0.132-0.229-0.006-0.142-0.025-0.285-0.050-0.425-0.035-0.193-0.126-0.363-0.247-0.516-0.13-0.165-0.198-0.349-0.21-0.558-0.007-0.123-0.025-0.245-0.045-0.367-0.012-0.075 0.004-0.137 0.052-0.192 0.147-0.171 0.193-0.371 0.178-0.591-0.005-0.074 0.002-0.148-0.006-0.222-0.019-0.18 0.048-0.338 0.119-0.495 0.040-0.089 0.082-0.181 0.104-0.275 0.069-0.308 0.222-0.58 0.363-0.856 0.028-0.055 0.079-0.1 0.124-0.145 0.222-0.218 0.452-0.426 0.743-0.551 0.382-0.163 0.777-0.285 1.192-0.331 0.087-0.010 0.176-0.001 0.264 0.011 0.249 0.032 0.498 0.063 0.744 0.11s0.463 0.177 0.67 0.306c0.147 0.092 0.258 0.242 0.388 0.363 0.075 0.070 0.16 0.13 0.233 0.202 0.047 0.047 0.086 0.107 0.119 0.166 0.094 0.167 0.181 0.338 0.274 0.506 0.102 0.179 0.168 0.363 0.176 0.573 0.011 0.291 0.036 0.58 0.065 0.87 0.018 0.17 0.071 0.33 0.21 0.445 0.068 0.057 0.095 0.131 0.074 0.211-0.033 0.133-0.070 0.267-0.122 0.393-0.089 0.214-0.2 0.419-0.284 0.635-0.067 0.168-0.108 0.347-0.159 0.523-0.014 0.046-0.020 0.096-0.037 0.143-0.064 0.187-0.075 0.184-0.237 0.152-0.148-0.029-0.288 0.018-0.426 0.086-0.212 0.103-0.32 0.282-0.409 0.482-0.021 0.049-0.039 0.103-0.044 0.156-0.021 0.215-0.036 0.43-0.055 0.646-0.003 0.033-0.003 0.075-0.024 0.097-0.125 0.144-0.238 0.301-0.413 0.432z"></path>
</svg>
