<?xml version="1.0" standalone="no"?>
<!DOCTYPE svg PUBLIC "-//W3C//DTD SVG 20010904//EN"
 "http://www.w3.org/TR/2001/REC-SVG-20010904/DTD/svg10.dtd">
<svg version="1.0" xmlns="http://www.w3.org/2000/svg"
 width="700.000000pt" height="700.000000pt" viewBox="0 0 700.000000 700.000000"
 preserveAspectRatio="xMidYMid meet">
<metadata>
Created by potrace 1.14, written by Peter Selinger 2001-2017
</metadata>
<g transform="translate(0.000000,700.000000) scale(0.100000,-0.100000)"
fill="#000000" stroke="none">
<path d="M0 3500 l0 -3500 1810 0 c996 0 1810 3 1810 8 0 4 -16 36 -35 72
-103 190 -109 224 -58 330 42 86 55 165 56 340 2 139 1 147 -25 196 -41 77
-130 153 -255 217 -147 75 -193 87 -333 85 -127 -1 -174 8 -265 54 -80 40
-131 82 -245 200 -135 141 -163 144 -327 37 -99 -65 -471 -265 -478 -257 -2 2
-7 41 -11 86 l-7 82 41 58 c74 106 86 148 87 302 0 119 -4 150 -33 265 -46
185 -55 211 -145 400 -98 207 -124 283 -137 394 -14 115 -14 114 -71 165 -60
54 -174 113 -464 241 -281 124 -295 132 -433 223 l-115 77 199 6 c109 3 257 2
328 -2 210 -13 244 2 423 183 99 101 113 119 128 171 19 66 11 126 -26 199
-42 82 -21 139 185 500 145 254 224 419 238 495 10 53 9 68 -6 108 -25 64 -85
118 -191 170 -145 71 -186 128 -193 265 -5 102 9 163 48 202 l28 28 149 0 c98
0 157 -5 173 -13 40 -20 57 -71 74 -225 9 -79 21 -156 28 -170 26 -55 62 -62
293 -62 242 0 312 11 422 65 57 28 87 52 145 116 83 92 101 103 264 159 177
61 275 112 332 175 77 84 86 120 88 381 1 122 5 244 9 270 17 115 103 327 154
382 l22 22 -1841 0 -1840 0 0 -3500z"/>
<path d="M3700 6992 c0 -5 18 -53 40 -108 52 -128 87 -241 100 -332 10 -59 8
-97 -6 -205 -9 -72 -17 -172 -18 -222 -2 -149 29 -183 261 -299 167 -83 214
-103 410 -170 226 -78 294 -106 443 -183 l131 -68 122 0 c122 0 124 0 198 37
94 47 132 84 263 258 108 144 134 186 156 253 14 46 52 93 91 112 18 10 58 15
117 15 79 0 91 -2 109 -22 33 -37 34 -44 14 -89 -11 -24 -27 -80 -36 -124 -30
-141 -73 -196 -172 -225 -62 -19 -109 -63 -178 -169 -34 -53 -77 -109 -95
-126 -38 -36 -70 -95 -70 -130 0 -36 15 -62 70 -120 66 -71 74 -103 66 -255
-8 -174 7 -348 60 -660 47 -281 54 -309 90 -380 63 -124 159 -177 374 -205
121 -15 367 -54 387 -60 17 -5 -3 -82 -33 -127 -33 -52 -85 -83 -209 -128
-168 -61 -383 -191 -440 -265 -37 -49 -61 -116 -70 -190 -13 -122 -54 -185
-171 -262 -126 -83 -184 -182 -184 -316 0 -80 18 -134 74 -217 24 -36 70 -112
102 -170 67 -121 131 -190 201 -216 106 -38 110 -41 151 -105 46 -70 47 -98 5
-136 -44 -41 -112 -26 -153 33 -37 55 -126 129 -202 169 -38 20 -135 58 -216
85 -81 27 -178 60 -217 74 -38 14 -92 26 -118 26 -86 0 -127 -35 -181 -152
-34 -74 -37 -77 -98 -107 -35 -17 -164 -58 -288 -91 -639 -173 -671 -184 -744
-259 -38 -39 -40 -43 -52 -148 -26 -208 -28 -313 -10 -377 21 -70 35 -94 97
-163 95 -106 98 -176 11 -273 -27 -30 -61 -77 -74 -105 -26 -50 -50 -78 -78
-88 -8 -3 724 -6 1628 -6 l1642 -1 0 3500 0 3500 -1650 0 c-907 0 -1650 -4
-1650 -8z"/>
<path d="M3813 4950 c-11 -5 -35 -28 -51 -52 -17 -24 -38 -50 -47 -58 -9 -8
-28 -36 -41 -62 -14 -27 -31 -51 -39 -55 -8 -3 -15 -14 -15 -24 0 -11 -10 -23
-25 -29 -13 -5 -31 -22 -39 -38 -17 -33 -63 -75 -107 -98 -26 -13 -33 -13 -66
1 -43 18 -85 54 -77 66 3 5 -11 15 -31 23 -19 8 -35 19 -35 24 0 5 -25 37 -55
71 -30 34 -55 66 -55 72 0 5 -16 19 -35 30 -28 17 -33 24 -24 35 9 12 5 14
-24 14 -59 0 -99 -12 -104 -31 -3 -10 -13 -21 -23 -24 -25 -8 -110 -101 -110
-120 0 -21 91 -117 155 -162 55 -40 225 -202 256 -245 19 -26 19 -29 4 -58 -9
-17 -41 -60 -71 -95 -30 -36 -62 -80 -71 -100 -9 -19 -20 -35 -25 -35 -5 0
-13 -11 -18 -25 -5 -14 -21 -30 -35 -35 -15 -6 -25 -17 -25 -29 0 -11 -7 -24
-16 -29 -8 -5 -44 -58 -80 -118 -80 -137 -82 -156 -16 -214 77 -69 162 -101
162 -61 0 11 28 56 63 101 34 45 71 97 83 116 12 19 37 52 56 72 20 20 41 47
48 60 7 14 17 21 26 18 9 -3 14 1 14 13 0 30 109 159 139 166 43 9 67 -5 208
-124 73 -61 143 -113 156 -116 13 -4 41 -29 62 -56 21 -28 56 -63 79 -79 23
-15 57 -44 75 -64 19 -20 41 -36 49 -36 8 0 27 -8 43 -17 26 -16 30 -16 45 -2
8 9 21 46 29 83 8 36 22 80 32 98 15 25 16 32 4 36 -8 2 -53 41 -100 85 -47
44 -96 84 -109 90 -12 6 -25 21 -28 34 -4 13 -12 23 -20 23 -7 0 -21 8 -31 18
-10 9 -44 35 -76 56 -59 40 -156 138 -187 189 -19 31 -16 62 6 71 8 3 14 14
14 25 0 11 6 24 14 28 7 4 34 38 60 74 25 36 52 72 61 79 8 7 15 22 15 35 0
24 58 112 132 197 26 31 53 71 60 89 9 28 8 34 -7 46 -11 7 -28 13 -39 13 -12
0 -43 12 -71 25 -52 26 -85 30 -122 15z"/>
<path d="M4110 3525 c-7 -9 -10 -18 -7 -21 3 -3 10 4 17 15 13 25 8 27 -10 6z"/>
<path d="M4240 3196 c-166 -60 -328 -133 -417 -189 -49 -31 -78 -66 -94 -114
-10 -30 -9 -39 8 -62 11 -14 24 -38 28 -51 9 -32 34 -60 52 -60 8 0 26 -9 41
-19 34 -24 117 -32 202 -21 86 11 370 128 405 166 5 7 21 14 35 18 18 4 34 23
58 68 30 59 33 70 32 160 0 95 0 97 -30 122 -31 25 -88 46 -125 45 -11 0 -99
-29 -195 -63z"/>
<path d="M2710 3235 c0 -8 -12 -17 -27 -20 -55 -12 -99 -41 -185 -125 -57 -54
-88 -93 -88 -106 0 -12 30 -56 69 -101 37 -44 70 -85 72 -92 5 -13 133 -71
158 -71 7 0 28 -9 45 -19 57 -35 153 -54 282 -55 103 -1 125 2 141 17 11 9 34
17 51 17 25 0 35 6 47 30 9 17 22 30 30 30 8 0 15 6 15 14 0 7 14 30 30 51 17
21 30 44 30 51 0 7 10 18 21 25 18 9 20 17 16 46 -8 47 -30 69 -89 89 -27 9
-52 22 -55 30 -3 8 -18 14 -33 14 -15 0 -39 9 -53 20 -15 12 -54 30 -88 41
-34 11 -115 45 -179 75 -89 41 -128 54 -163 54 -35 0 -47 -4 -47 -15z"/>
<path d="M3518 2699 c-28 -16 -67 -91 -78 -148 -5 -29 -30 -100 -56 -158 -49
-114 -50 -133 -10 -180 l24 -27 151 11 c107 8 163 17 189 30 l37 18 3 79 c4
100 -12 177 -44 211 -13 14 -24 38 -24 52 0 15 -6 33 -14 42 -70 79 -74 81
-118 81 -24 0 -51 -5 -60 -11z"/>
<path d="M3208 2633 c7 -3 16 -2 19 1 4 3 -2 6 -13 5 -11 0 -14 -3 -6 -6z"/>
</g>
</svg>
