<?xml version="1.0" standalone="no"?>
<!DOCTYPE svg PUBLIC "-//W3C//DTD SVG 20010904//EN"
 "http://www.w3.org/TR/2001/REC-SVG-20010904/DTD/svg10.dtd">
<svg version="1.0" xmlns="http://www.w3.org/2000/svg"
 width="618.000000pt" height="618.000000pt" viewBox="0 0 618.000000 618.000000"
 preserveAspectRatio="xMidYMid meet">
<metadata>
Created by potrace 1.11, written by Peter Selinger 2001-2013
</metadata>
<g transform="translate(0.000000,618.000000) scale(0.100000,-0.100000)"
fill="#000000" stroke="none">
<path d="M3119 6150 c-32 -17 -38 -26 -57 -98 -59 -215 -126 -423 -153 -475
-21 -41 -29 -70 -27 -95 3 -35 1 -37 -46 -54 -26 -10 -94 -23 -150 -29 -244
-24 -511 -129 -791 -309 -111 -71 -198 -111 -245 -112 -29 -1 -159 80 -300
187 -52 40 -129 94 -170 120 -41 26 -118 83 -170 125 -141 114 -141 114 -183
96 -19 -8 -38 -24 -42 -36 -8 -24 18 -65 198 -311 234 -321 255 -353 297 -462
38 -97 34 -116 -50 -220 -118 -147 -294 -531 -376 -819 -33 -117 -62 -185 -81
-192 -8 -3 -60 -15 -116 -27 -222 -45 -367 -98 -367 -135 0 -27 20 -54 40 -54
23 0 408 -76 433 -86 26 -10 37 -37 37 -91 0 -62 42 -320 75 -457 40 -169 149
-432 239 -575 60 -95 96 -171 96 -204 0 -52 -58 -144 -160 -252 -102 -109
-130 -152 -130 -199 0 -23 5 -25 64 -31 77 -8 117 7 261 100 118 77 169 99
211 92 34 -6 92 -46 234 -163 190 -156 403 -270 615 -329 72 -20 164 -47 205
-60 41 -14 113 -29 159 -34 138 -15 131 -5 215 -346 46 -187 65 -316 66 -444
0 -88 33 -160 73 -161 68 -1 69 1 167 375 85 321 144 506 168 527 20 18 98 44
386 128 354 103 409 129 630 296 190 143 195 146 240 140 24 -3 62 -20 95 -44
86 -60 265 -170 295 -182 15 -5 34 -10 42 -10 19 0 64 44 64 62 0 8 -38 63
-85 123 -88 112 -175 268 -175 311 0 40 27 92 94 183 129 174 189 288 240 456
47 155 122 459 136 555 20 131 27 150 65 166 19 8 51 14 72 14 21 0 100 11
175 24 212 38 296 91 241 154 -18 20 -333 113 -433 128 -57 8 -96 28 -111 56
-7 13 -16 59 -20 104 -5 59 -24 132 -67 260 -104 312 -175 450 -365 707 -125
169 -125 226 -4 324 39 33 82 75 95 94 l23 34 -46 13 c-41 12 -52 11 -113 -9
-37 -12 -100 -37 -141 -55 -41 -19 -85 -34 -98 -34 -33 0 -79 25 -223 122
-144 97 -288 177 -383 213 -98 37 -452 134 -532 146 -38 6 -80 17 -92 25 -50
32 -94 176 -112 366 -9 88 -46 292 -67 366 -8 27 -18 27 -65 2z m73 -880 c116
-19 446 -93 593 -132 108 -28 157 -51 316 -146 254 -151 414 -287 597 -507
104 -124 148 -195 267 -429 85 -166 106 -218 123 -296 95 -430 93 -407 68
-730 -17 -222 -33 -302 -95 -480 -91 -264 -133 -359 -204 -465 -80 -120 -305
-392 -379 -458 -112 -100 -338 -245 -548 -351 -194 -98 -295 -138 -395 -155
-183 -31 -658 -50 -832 -32 -283 29 -527 129 -777 318 -204 155 -505 441 -604
573 -22 30 -91 151 -152 269 -107 207 -112 218 -140 350 -15 75 -40 216 -55
315 -25 165 -26 187 -15 285 17 159 60 457 75 532 37 176 126 383 254 589 61
98 88 130 111 130 9 0 49 37 89 83 224 251 455 454 544 478 23 5 79 33 124 60
146 89 441 172 738 208 114 14 177 12 297 -9z"/>
<path d="M2240 4483 l0 -83 -175 0 -175 0 0 -90 0 -90 -84 0 -84 0 -1 -1110
-1 -1110 85 0 85 0 0 -90 0 -90 1200 0 1199 0 3 87 3 88 88 3 87 3 -1 1109 -1
1110 -89 0 -89 0 0 90 0 90 -170 0 -170 0 0 83 0 83 -855 0 -855 0 0 -83z
m1710 -339 l0 -84 88 0 87 0 0 -515 0 -515 -105 -4 c-58 -2 -133 -4 -167 -5
l-62 -1 -3 -82 -3 -83 -87 -3 -88 -3 0 -169 0 -170 -520 0 -520 0 0 170 0 169
-82 3 -83 3 -3 83 -3 82 -62 1 c-34 1 -109 3 -167 5 l-105 4 0 515 0 515 83 0
82 0 0 84 0 84 860 0 860 0 0 -84z"/>
<path d="M2231 3715 l0 -175 89 0 90 0 0 -85 0 -85 255 0 255 0 0 254 0 254
-164 7 c-91 4 -169 4 -175 0 -6 -3 -11 -40 -11 -86 l0 -79 -80 0 -80 0 0 85 0
85 -90 0 -90 0 1 -175z"/>
<path d="M3358 3883 l-88 -4 0 -254 0 -255 255 0 255 0 0 85 0 85 84 0 84 0 7
164 c4 91 4 169 0 175 -3 7 -41 11 -91 11 l-84 0 0 -85 0 -85 -85 0 -85 0 0
85 0 85 -82 -2 c-46 -1 -122 -4 -170 -5z"/>
<path d="M2750 2940 l0 -90 85 0 85 0 0 -85 0 -85 175 0 175 0 0 85 0 85 85 0
85 0 0 90 0 91 -87 -3 -88 -3 -3 -87 -3 -88 -169 0 -170 0 0 90 0 90 -85 0
-85 0 0 -90z"/>
</g>
</svg>
