<!-- Generated by IcoMoon.io -->
<svg version="1.1" xmlns="http://www.w3.org/2000/svg" width="33" height="32" viewBox="0 0 33 32">
<title>w_axe</title>
<path d="M16.8 23.488q-0.896-0.064-1.568-0.352-0.256-0.128-0.864-0.192h-0.064q-0.032-0.032-0.112-0.032h-0.112l-0.192-0.064q-0.32-0.128-0.352-0.224-0.128-0.192-0.256-0.64l-0.064-0.192q0-0.064 0.096-0.16l0.032-0.032q0.576-0.928 1.408-1.92l1.952-2.4q0.32-0.384 0.736-1.056 0.256-0.512 0.544-0.992 0.16-0.224 0.144-0.448t0.208-0.224h0.064q0.096 0 0.16 0.032t0.064 0.144 0.064 0.144 0.224 0.032q0.448 0.032 0.88-0.256t0.624-0.832q0.256-0.704 0.256-1.344 0.064-1.088-0.864-1.536-0.192-0.096-0.448-0.384l-0.224-0.224q-0.16-0.096-0.48-0.256l-0.352-0.192q-0.32-0.16-0.864-0.608l-0.32-0.256q-0.224-0.192-0.672-0.608-0.32-0.32-0.496-0.512t-0.368-0.224q-0.288-0.032-0.448 0.064t-0.224 0.384q-0.128 0.448-0.512 0.576l-0.192-0.192q-0.48-0.448-0.608-0.768-0.064-0.192-0.416-0.544-0.192-0.192-0.256-0.288l-0.192-0.256q-0.96-1.376-1.536-1.984-0.352-0.384-0.992-1.216t-1.024-1.216l-0.384-0.48q-0.384-0.448-0.576-0.64-0.096-0.096-0.032-0.288 0.064-0.096 0.192 0l0.608 0.192q0.704 0.192 1.024 0.352v0q0 0.032 0.032 0.032 0.352-0.064 0.96 0.128 0.48 0.128 0.704 0.128 0.096 0 0.288 0.032l0.064 0.032q0.384 0.16 1.248 0.32 0.736 0.128 1.088 0.256 0.16 0.064 0.48 0.096 0.448 0.096 0.624 0.208t0.56 0.128 0.544 0.080q0.448 0.192 1.248 0.128h0.064q0.224 0 0.32 0.064l0.032 0.064q0.096 0.064 0 0.128-0.192 0.128-0.192 0.256t0.096 0.352 0.080 0.352 0.128 0.256 0.336 0.192 0.448 0.32l0.192 0.192q0.928 0.864 1.6 1.216 0.256 0.128 0.768 0.448 0.704 0.448 1.056 0.608 0.256 0.096 0.704 0.384l0.384 0.224q0.288 0.16 0.496 0.112t0.432-0.272q0.48-0.448 0.544-1.216v-0.608q0-0.16 0.112-0.224t0.24 0.048 0.416 0.304 0.416 0.32q0.256 0.192 0.768 0.512 0.416 0.256 0.608 0.384 0.32 0.224 0.976 0.576t0.944 0.56 0.832 0.592l0.608 0.416 0.192 0.224q0.16 0.256 0.288 0.32l0.768 0.64q0.128 0.128 0.192 0.16-0.096 0.288-0.24 0.416t-0.432 0.096-0.544 0.16q-0.192 0.128-0.416 0.416-0.288 0.384-0.992 1.024-0.512 0.512-1.44 1.6l-0.576 0.672q-0.32 0.32-0.768 1.12l-0.352 0.64q-0.416 0.64-0.704 0.896-0.16 0.128-0.352 0.448-0.16 0.256-0.288 0.384-1.536 1.632-3.168 3.264-0.224 0.192-0.704 0.448-0.384 0.192-0.56 0.304t-0.496 0.24q-0.448 0.192-0.64 0.352-0.128 0.064-0.384 0.096-0.192 0-0.288 0.032-0.864 0.224-2.432 0.16-0.128-0.032-0.128-0.128 0.064-0.032 0.16-0.032h0.16q0.16-0.096 0.176-0.176t-0.112-0.176-0.272 0.032-0.112 0.352zM19.872 7.648q0.064-0.224 0-0.416-0.064-0.128-0.224-0.384l-0.128-0.192q-0.128-0.16-0.224-0.176t-0.352 0.048q-0.32 0.128-0.496 0.16t-0.256 0.128-0.144 0.288l-0.064 0.16q-0.096 0.288-0.032 0.416l0.128 0.256q0.192 0.416 0.416 0.56t0.432 0.176 0.368-0.096l0.064-0.032q0.32-0.224 0.416-0.352 0.16-0.256 0.096-0.544zM26.208 7.392q0-0.128-0.096-0.16-0.224-0.064-0.256 0.096-0.032 0.064 0 0.112t0.096 0.048q0.224 0 0.256-0.096zM32.128 10.848q0-0.128-0.096-0.144t-0.224 0.112l-0.032 0.032q-0.032 0.096 0.128 0.096h0.064q0.16 0 0.16-0.096zM16.672 6.304q0.096 0 0.096-0.032-0.064-0.096-0.16-0.16l-0.032 0.032q-0.064 0.16 0.096 0.16zM19.712 15.392q-0.064 0-0.064 0.064l0.032 0.128q0.096 0 0.096-0.128zM1.184 27.232q0-0.224 0.16-0.384 0.096-0.096 0.32-0.224 0.8-0.576 1.28-1.056 0.288-0.288 0.736-0.928l0.128-0.16q0.32-0.352 0.48-0.512l0.192-0.192q0.352-0.384 0.448-0.608 0.128-0.32 0.64-0.768 0.224-0.192 0.544-0.672 0.288-0.416 0.48-0.608 0.256-0.288 0.704-0.896 0.544-0.736 0.832-1.056l0.224-0.256q1.344-1.504 1.856-2.336v-0.064q0.352-0.352 0.88-1.152t0.848-1.12q0.192-0.224 0.48-0.768l0.192-0.352q0.352-0.608 1.216-1.696l0.352-0.448q0.576-0.8 1.184-1.312 0.128-0.128 0.32-0.448l0.096 0.032q0.192 0.032 0.256 0.096 0.256 0.256 0.896 0.672 0.448 0.256 0.64 0.4t0.464 0.464 0.416 0.432 0.128 0.176-0.176 0.16l-0.16 0.064q-0.128 0.32-0.576 0.832t-0.608 0.832q-0.256 0.512-0.928 1.376l-0.288 0.352q-0.096 0.128-0.32 0.352l-0.192 0.224-0.384 0.48q-0.896 1.056-1.28 1.6l-0.064 0.064q-0.512 0.736-0.864 0.96l-0.32 0.32-0.512 0.704q-0.768 1.12-1.248 1.568-0.32 0.576-1.088 1.664-0.608 0.832-0.864 1.28-0.16 0.288-0.512 0.848t-0.512 0.848l-0.352 0.608q-0.64 1.088-0.864 1.664-0.096 0.288-0.352 0.768-0.448 0.928-0.512 1.44-0.16 0.16-0.288 0.576-0.064 0.32-0.16 0.448-0.128 0.256-0.224 0.384-0.352 0.288-0.608 0.032-0.352-0.352-1.248-0.864-0.48-0.288-0.704-0.448l-0.16-0.096q-0.256-0.16-0.384-0.288-0.224-0.224-0.736-0.672-0.576-0.448-0.816-0.72t-0.224-0.56 0.272-0.512q0.224-0.288 0.352-0.384 0.224-0.192 0.512-0.16 0.064 0.128 0.096 0.128 0.128 0 0.128-0.032 0.032-0.096-0.096-0.096-0.032-0.032-0.096 0h-0.032zM4.832 30.080q-0.416 0.48-0.416 0.64t0.032 0.192 0.096 0.048 0.096-0.016q0.128-0.032 0.224-0.128t0.128-0.224q0.192-0.32-0.16-0.512zM23.232 5.632h-0.192q-0.256 0-0.336 0.064t-0.048 0.32l0.032 0.064q0.032 0.096-0.048 0.176t-0.24-0.016-0.448-0.224q-0.576-0.288-0.768-0.576-0.256-0.064-0.48-0.288-0.128-0.128-0.352-0.416-0.384-0.48-0.64-0.64-0.16-0.096-0.032-0.224l0.576-0.704q0.256-0.256 0.528-0.224t0.656-0.224l0.064-0.064q0.992-0.64 2.912-1.984l0.032-0.032q0.192-0.128 0.256-0.192 0.128-0.128 0.128-0.32t0.112-0.16 0.192 0.112 0.048 0.16-0.064 0.24-0.096 0.256q-0.256 0.352-0.544 1.152-0.192 0.48-0.288 0.704-0.224 0.416-0.384 0.864l-0.064 0.128q-0.16 0.512-0.192 0.768-0.064 0.448 0.128 0.8v0.064q0 0.32-0.064 0.384t-0.384 0.032z"></path>
</svg>
