<!-- Generated by IcoMoon.io -->
<svg version="1.1" xmlns="http://www.w3.org/2000/svg" width="32" height="32" viewBox="0 0 32 32">
<title>w_blast</title>
<path d="M19.424 30.144q-0.192-0.096-0.224-0.384v-0.096q-0.032-0.32-0.384-0.288-0.128 0-0.288 0.096-0.576 0.32-0.832 0.576l-0.032 0.064q-0.32 0.352-0.576 0.416-0.32 0-0.416 0.448-0.064 0.224-0.256 0.512l-0.064 0.096q-0.224 0.384-0.544 0.416t-0.672-0.288q-0.896-0.896-2.496-1.984-0.32-0.16-0.64-0.048t-0.064 0.528q0.16 0.224 0.144 0.288t-0.208 0.32q-0.576-0.576-1.92-1.504l-0.416-0.32q-0.416-0.288-0.704-0.608-0.544-0.544-1.632-0.96-0.128-0.032-0.384-0.16-0.48-0.256-0.768-0.256-0.096 0-0.192-0.192-0.064-0.128-0.016-0.208t0.176-0.096 0.352 0.064 0.32 0.048l0.608-0.224q0.192-0.064 0.576-0.096 0.288 0 0.416-0.032l0.128-0.032q0.352-0.096 0.512-0.176t0.416-0.368q0.096-0.128 0.288-0.192 0.128 0 0.224 0.256 0.064 0.128 0.32 0.144t0.288-0.112q0.16-0.352 0.448-0.672 0.16-0.192 0.544-0.544l0.64-0.672q0.64-0.64 0.864-1.056 0.032-0.064 0.16-0.176t0.16-0.192 0.192-0.144 0.16-0.224q0.224-0.096 0.48-0.416l0.192-0.288q0.128-0.192 0.192-0.256l0.16-0.192q0.192-0.288 0.32-0.384t0.112-0.176-0.080-0.208l-0.032-0.064q-0.032-0.096-0.192-0.224l-0.096-0.096q-0.064-0.096-0.272-0.256t-0.304-0.32-0.384-0.416l-0.8-0.736q-0.032-0.064-0.16-0.16l-0.064-0.064q-0.064-0.096-0.112-0.304t-0.096-0.304-0.224-0.16-0.336-0.32-0.288-0.352q-0.192-0.128-0.512-0.48l-0.16-0.16q-0.032-0.192 0.192-0.352 0.288-0.192 0.848-0.688t0.912-0.688q0.128-0.096 0.352-0.32 0.288-0.352 0.512-0.416 0.352-0.384 1.2-1.040t1.2-1.072q0.128-0.16 0.112-0.272t-0.144-0.272l-0.192-0.16q-0.224-0.16-0.256-0.288t-0.224-0.256q-0.128-0.032-0.16-0.096-0.128-0.256-0.528-0.656t-0.528-0.688l-0.064-0.224q-0.128-0.32-0.256-0.48l-0.352-0.48q-0.416-0.544-0.64-0.768-0.384-0.416-0.8-0.672-0.032-0.032-0.032-0.096t0.064-0.128q0.768-0.352 1.152-0.992 0.096-0.16 0.352-0.384l0.224-0.224q0.224-0.256 0.384-0.336t0.32-0.304l0.16-0.192q0.576-0.704 0.928-0.992 0.48-0.384 0.832-0.608 0.64-0.384 1.152-1.152l0.192-0.192q0.16-0.16 0.224-0.288 0.096 0.224 0.064 0.448-0.032 0.128-0.16 0.368t-0.16 0.368q-0.224 0.16-0.512 0.64l-0.224 0.352q-0.352 0.608-0.832 1.216-0.416 0.672-0.608 1.536-0.064 0.48 0.048 0.816t0.432 0.624q0.064 0.064 0.16 0.192 0.128 0.224 0.24 0.272t0.288 0.208 0.272 0.208 0.24 0.224 0.272 0.208 0.288 0.192 0.288 0.208 0.32 0.256 0.32 0.24q0.192 0.064 0.512 0.384l0.064 0.064q0.128 0.128 0.416 0.256t0.384 0.288q0.064 0.096 0.224 0.064h0.608q0.064 0 0.096 0.096t0 0.192q-0.032 0.192-0.256 0.352l-0.224 0.224q-0.96 1.024-1.344 1.6-0.032 0.064-0.16 0.192-0.288 0.256-0.768 0.832-0.416 0.512-0.64 0.736-0.064 0.064-0.192 0.256-0.192 0.288-0.304 0.352t-0.256 0.256-0.272 0.256q-0.224 0.16-0.208 0.56t0.24 0.56q0.128 0.064 0.256 0.272t0.224 0.272q0.16 0.096 0.416 0.384l1.152 1.152q0.288 0.288 0.384 0.48 0.288 0.448 0.64 0.672t0.368 0.656-0.304 0.752q-0.064 0.096-0.224 0.224l-0.096 0.096q-0.16 0.224-0.272 0.272t-0.272-0.144l-0.064-0.064q-0.064-0.064-0.128 0l-0.032 0.096q-0.096 0.064 0 0.128l0.032 0.032q0.128 0.096 0.128 0.208t-0.080 0.176-0.112 0.128q-0.448 0.544-1.312 1.632l-0.544 0.704q-0.096 0.128-0.192 0.448l-0.096 0.224-0.032 0.032q-0.16 0.128-0.064 0.224 0.032 0.032 0.064 0.16t0.096 0.16q0.16 0.064 0.432 0.288t0.464 0.288l0.064 0.032q0.32 0.128 0.448 0.064 0.48-0.16 1.376-0.096h0.672q0.128 0 0.384-0.064 0.416-0.096 0.656-0.064t0.752 0h0.352q0.384 0.032 1.152 0.192l0.384 0.064q0.32 0.096 0.096 0.32-0.128 0.16-0.416 0.288t-0.384 0.256q-0.384 0.448-0.736 0.704-0.128 0.128-0.432 0.336t-0.464 0.336l-0.736 0.736q-0.32 0.256-0.608 0.384-0.224 0.064-0.576 0.448zM11.264 28.992q0.128-0.128 0.128-0.192t-0.064-0.128-0.112-0.064-0.112 0.064-0.064 0.096q0.064 0.096 0.224 0.224zM3.296 15.744h0.704v-0.352q0-0.32 0.288-0.448 0.704-0.32 0.96-0.64 0.096 0.032 0.128 0t0.064-0.128l0.032-0.096q0.16-0.16 0.352-0.544 0.16-0.352 0.288-0.48 0.288-0.448 0.256-0.928-0.064-0.352-0.32-0.896-0.256-0.416-0.8-1.184l-0.288-0.448q-0.32-0.256-0.768-0.928-0.352-0.512-0.56-0.72t-0.528-0.656l-0.256-0.32q-0.128-0.096-0.128-0.256v-0.128q0-0.16 0.080-0.192t0.272 0.16l0.16 0.16q0.192 0.224 0.368 0.256t0.288 0.304 0.4 0.464 0.832 0.736l0.352 0.352q0.608 0.608 1.28 0.96 0.16 0.064 0.384 0.32l0.192 0.192q0.16-0.064 0.288 0.096t0.224 0.16q0.448 0.48 0.992 0.8t0.928 0.928q0.096 0.16 0.352 0.288l0.096 0.064q0.224 0.128 0.256 0.256t-0.032 0.368-0.384 0.432q-0.192 0.096-0.256 0.192-0.256 0.032-0.64 0.384-0.288 0.288-0.448 0.352t-0.176 0.304 0.080 0.368l0.288 0.384 0.224 0.32q0.16 0.224 0.544 0.544l0.224 0.192q0.672 0.576 0.864 0.992 0 0.096 0.192 0.192t0.384 0.288q0.128 0.128 0.32 0.384 0.256 0.352 0.432 0.512t0.336 0.512q0.064 0.224 0.128 0.32 0.128 0.128 0.144 0.224t0.144 0.192 0.096 0.192q-0.128 0.32-0.352 0.352-0.128 0.064-0.32 0.256l-0.32 0.288q-0.192 0.16-0.288 0.288-0.16 0.256-0.704 0.64-0.352 0.288-0.512 0.448-0.192 0-0.352 0.256-0.096 0.16-0.192 0.224-0.192 0.096-0.448 0.576l-0.032 0.064q-0.032 0.064-0.096 0.096t-0.096 0q-0.064-0.096-0.24-0.096t-0.208-0.064q-0.064-0.128-0.352-0.224t-0.368-0.24-0.224-0.256-0.288-0.096-0.192-0.176-0.176-0.16q-0.608-0.512-1.888-1.344l-0.096-0.096q-0.096-0.096-0.16-0.128-0.256-0.16-0.16-0.448 0.064-0.096 0.192-0.096t0.224 0.064q0.224 0.128 0.704 0.096 0.288-0.032 0.4 0t0.272 0.032q0.32-0.032 0.448 0.096 0.096 0.032 0.24 0t0.272-0.128q0.256-0.16 0.304-0.4t-0.176-0.368q-0.16-0.096-0.448-0.32-0.512-0.384-0.832-0.48-0.032 0-0.032-0.032l-0.032-0.032q-0.064-0.256-0.448-0.544-0.224-0.192-0.32-0.288l-0.096-0.128q-0.096-0.16-0.176-0.24t-0.24-0.048q0-0.128-0.064-0.192t-0.208-0.128-0.208-0.128l-0.096-0.128q-0.16-0.32-0.352-0.384l-0.032-0.064t-0.096-0.096q-0.224-0.128-0.544-0.64zM7.52 18.912q0-0.096-0.016-0.128t-0.112-0.064q-0.256-0.064-0.4-0.208t-0.224 0.032-0.032 0.256 0.208 0.144 0.16 0.16 0.032 0.112 0.096-0.016l0.096-0.064q0.128-0.064 0.176-0.096t0.016-0.128zM7.264 11.808q-0.096 0.064-0.16 0.128-0.128 0.096-0.032 0.384h0.096q0.128-0.032 0.096-0.224v-0.288zM22.368 24.544q-0.096 0-0.288-0.064-0.576-0.096-0.864-0.064-0.384 0.032-1.088 0.224-0.352 0.064-0.992 0.064h-0.608q-0.16 0-0.192-0.16t0.096-0.288q0.32-0.352 0.544-0.736 0.064-0.128 0.272-0.32t0.272-0.384q0-0.096 0.16-0.224l0.128-0.096 2.56-2.56q0.256-0.256 0.256-0.464t-0.352-0.432-1.056-0.768q-0.832-0.576-1.28-0.864-0.128-0.064-0.192-0.208t-0.016-0.24 0.096-0.272 0.128-0.304 0.24-0.192 0.336-0.224 0.24-0.352q0.032-0.096 0.128-0.192 0.352-0.288 0.928-0.992 0.512-0.608 0.816-0.864t0.32-0.368 0.176-0.176q0.096-0.032 0.112-0.064t-0.016-0.128l0.192-0.128q0.352-0.224 0.464-0.4t0.368-0.496l0.128-0.128q0.192-0.16 0.32-0.224 0.064 0 0.128-0.096 0.128-0.16 0.256-0.128 0.032 0 0.064-0.096l0.032-0.064q0.128-0.064 0.32-0.304t0.352-0.336q0.256-0.128 0.576-0.608l0.064-0.096q0.064-0.096 0.384-0.256 0.192-0.128 0.512-0.512l0.288-0.288q0.128-0.096 0.176-0.032t0.032 0.24-0.24 0.4l-0.064 0.064q-0.224 0.288-0.576 0.896-0.256 0.448-0.4 0.64t-0.336 0.576q-0.256 0.48-0.448 0.672-0.064 0.064-0.096 0.256-0.032 0.256-0.16 0.384l-0.064 0.064q-0.32 0.224-0.352 0.48-0.224 0.128-0.384 0.544-0.096 0.288-0.192 0.384t-0.224 0.352l-0.128 0.192-0.064 0.192q-0.128 0.288-0.256 0.416-0.192 0.288-0.144 0.56t0.304 0.464q0.352 0.256 1.024 0.8l0.8 0.608q0.32 0.224 0.8 0.736 0.32 0.32 0.512 0.48 0.064 0.064 0.064 0.128t-0.064 0.16q-0.032 0-0.096 0.064-0.32 0.256-0.864 0.864-0.48 0.512-0.736 0.736-0.224 0.16-0.224 0.384 0.032 0.128-0.128 0.224-0.064 0.096-0.096 0.128-0.384 0.32-0.992 1.12-0.48 0.608-0.736 0.864-0.096 0.096-0.16 0.336t-0.128 0.336q-0.096 0.288-0.384 0.224-0.032-0.032-0.096-0.064h-0.192zM22.528 23.872q0.032 0 0.064-0.032l-0.096-0.064-0.032 0.064q0.032 0.032 0.064 0.032zM0.128 21.952q0.16 0.16 0.592 0.144t0.592 0.112q0.096-0.032 0.272 0.048t0.272 0.064 0.352 0.016h0.16q0.256-0.032 0.736 0.096l0.16 0.032q0.064 0 0.144 0.080t0.144 0.080q0.224-0.032 0.672 0.064l0.256 0.064h0.128q0.064 0 0.224-0.064 0.32-0.128 0.48-0.032l0.16 0.16 0.384 0.288 0.352 0.288q0.32 0.288 0.512 0.432t0.672 0.368l0.32 0.128 0.288 0.224q0.064 0.032 0.080 0.112t-0.016 0.144q0 0.128-0.192 0.304t-0.224 0.336q0 0.064-0.192 0.032h-0.064l-0.16 0.032q-0.256 0-0.416 0.096t-0.384 0q-0.128-0.064-0.352-0.224l-0.032-0.032q-0.352-0.288-0.672-0.416-0.128-0.032-0.32-0.208t-0.352-0.176q-0.16-0.16-0.592-0.272t-0.592-0.304q-0.064-0.064-0.192-0.064h-0.064q-0.224 0.032-0.384-0.16-0.224-0.352-0.704-0.416-0.16-0.064-0.496-0.224t-0.544-0.224-0.592-0.256q-0.256-0.16-0.4-0.256t-0.144-0.256v-0.032q0-0.128 0.128-0.128zM24.576 24.832q-0.128-0.32 0-0.672 0.064-0.192 0.32-0.544l0.128-0.224q0.064-0.128 0.256-0.352 0.256-0.32 0.352-0.512 0.064-0.128 0.288-0.352t0.288-0.384q0.192-0.256 0.448 0l0.032 0.032q0.128 0.128 0.208 0.144t0.208-0.112q0.032-0.032 0.096 0h0.032q0.672 0.064 1.152-0.256h0.224q0.224 0.032 0.64-0.080t0.608-0.080q0.064 0 0.16-0.080t0.144-0.064 0.112-0.048 0.128-0.032q0.32 0.064 0.896-0.192l0.16-0.064q0.224-0.096 0.4-0.096t0.336 0.16q-0.096 0.064-0.304 0.176t-0.304 0.208l-0.128 0.064q-0.128-0.064-0.24-0.016t-0.272 0.176-0.288 0.128q-0.192 0-0.544 0.256l-0.128 0.096q-0.448 0.352-1.376 0.768l-0.448 0.192q-0.128 0.064-0.368 0.224t-0.368 0.208-0.368 0.176-0.368 0.192q-0.224 0.096-0.608 0.288l-0.288 0.16-0.096 0.064-0.064 0.064q-0.128 0.16-0.32 0.224-0.096 0.032-0.352 0.080t-0.384 0.080z"></path>
</svg>
