<!-- Generated by IcoMoon.io -->
<svg version="1.1" xmlns="http://www.w3.org/2000/svg" width="33" height="32" viewBox="0 0 33 32">
<title>w_claws</title>
<path d="M22.144 25.696h-0.544q-0.736-0.032-1.104 0t-0.72-0.128q-0.256-0.128-0.672-0.384l-0.192-0.128-0.48-0.352q-0.832-0.672-1.344-0.896-0.256-0.096-0.704-0.48l-0.32-0.256q-0.32-0.224-0.56-0.192t-0.368 0.288q-0.096 0.192-0.208 0.24t-0.304 0.048h-0.16q-0.512 0-0.736 0.096v0q-0.608 0.32-0.784 0.496t-0.432 0.816l-0.032 0.096q-0.064 0.096-0.064 0.16 0.064 0.32-0.064 0.64-0.064 0.224-0.256 0.576l-0.192 0.384q-0.032 0.096-0.16 0.256l-0.096 0.096q-0.128 0.16-0.288 0.176t-0.352-0.048l-0.864-0.384q-0.288-0.128-0.736-0.016t-0.576 0.368q-0.256 0.544-0.928 1.568l-0.416 0.672q-0.352 0.576-0.32 1.184 0.032 0.384-0.256 0.672-0.192 0.192-0.32 0.16-0.352-0.064-0.672 0.336t-0.608 0.080l-0.224-0.288q-0.32-0.352-0.448-0.576-0.064-0.096-0.256-0.224-0.928-0.48-2.336-0.32-0.224 0-0.64 0.352l-0.064 0.064q-0.16 0.16-0.576 0.416l-0.256 0.128q-0.128 0.064-0.24 0.048t-0.176-0.112-0.032-0.224q0.352-1.12 0.48-2.208 0.032-0.256 0.192-0.736l0.128-0.512q0.128-0.704 0.16-1.056 0-0.576-0.256-1.184l-0.064-0.192q-0.128-0.288-0.16-0.416-0.032-0.256 0.064-0.48t-0.064-0.48q-0.032-0.128 0.016-0.224t0.208-0.128 0.288 0q0.32 0.032 0.64-0.16 0.256-0.128 0.48-0.096t0.448-0.096q0.16-0.096 0.384-0.352l0.128-0.128q0.384-0.32 0.464-0.608t0.032-0.416l-0.144-0.384q-0.16-0.416-0.368-0.608t-0.128-0.4 0.464-0.208h0.096q0.224-0.032 0.288 0.032 0.128 0.128 0.256 0.112t0.32-0.112l0.064-0.032q0.928-0.32 1.28-1.056l0.064-0.096q0.192-0.384 0.256-0.576 0.096-0.352 0.064-0.64-0.032-0.416 0.064-1.248 0.064-0.608 0.064-0.928 0-1.184-0.448-2.624-0.416-1.28-1.6-2.592-0.32-0.352-0.448-1.088-0.032-0.288 0.224-0.544 0.096-0.096 0.288-0.032h0.032q1.248 0.352 2.336 0.064 0.16-0.032 0.512-0.032h0.384q0.768 0 1.312-0.544 0.256-0.288 0.064-0.56t-0.48-0.176l-0.16 0.064q-0.192 0.032-0.256 0.096-0.288 0.16-0.896 0.256-0.384 0.032-0.608 0.096t-0.352-0.032q-0.192-0.16-0.416-0.096t-0.448 0q-0.128-0.032-0.4-0.144t-0.4-0.144q-0.256-0.096-0.256-0.576-0.032-0.256 0.16-0.768 0.16-0.384 0.176-0.624t0.304-0.752q0.16-0.32 0.224-0.48 0.128-0.352 0.544-0.928 0.288-0.384 0.416-0.576 0.16-0.288 0.512-0.544 0.192-0.16 0.64-0.448l0.32-0.192q0.96-0.608 2.304-0.8 0.16-0.032 0.448-0.128l0.16-0.064q0.256-0.16 0.832-0.304t0.832-0.272q0.064-0.032 0.256 0h2.464q0.096 0 0.288 0.064l0.224 0.032q0.608 0.16 1.12 0.192 0.96 0.096 1.856 0.64 0.128 0.064 0.096 0.256v0.064q0 0.192-0.192 0.192-0.096 0-0.272 0.080t-0.272 0.048q-0.256-0.032-0.768 0.096l-0.384 0.096q-0.864 0.128-1.28 0.32l-0.288 0.128q-0.512 0.192-0.736 0.288-1.12 0.384-2.336 1.184-0.224 0.16-0.544 0.496t-0.512 0.464q-0.256 0.16-0.416 0.48-0.288 0.512-0.288 1.088v0.224q0.032 0.416-0.064 0.624t0.128 0.496 0.496 0.32 0.464 0.192q0.128 0.128 0.32 0.384 0.384 0.576 0.512 1.152 0.096 0.32 0.080 0.56t-0.176 0.496l-0.288 0.48q-0.288 0.576-0.48 0.832-0.352 0.448-0.128 1.152l0.224 0.736q0.032 0.448 0.608 0.352 0.256-0.064 0.608-0.352l0.256-0.192q0.544-0.416 0.928-1.12 0.288-0.48 0.576-1.344 0.096-0.416 0-0.768-0.096-0.224-0.016-0.368t0.272-0.304q0.448-0.32 0.736 0 0.064 0.064 0.192 0.096t0.16 0.064q0.224 0.128 0.304-0.096t0.272-0.32q0.448-0.192 0.448-0.8v-0.32q0-0.448-0.096-0.656t-0.064-0.656l0.032-0.288q0-0.16 0.16-0.256 0.704-0.704 0.928-1.152 0.096-0.16 0.256-0.256 0.096-0.096 0.192-0.032l0.032 0.032q0.096 0.096 0.192 0.32l0.096 0.192q0.192 0.416 0.48 1.248l0.128 0.32q0.064 0.224 0.16 0.288 0.256 0.096 0.576 0.448 0.192 0.192 0.288 0.256 0.544 0.416 0.896 0.576 0.544 0.256 1.056 0.224h0.096q0.384-0.064 0.544 0.064 0.032 0.032 0.192 0.048t0.224 0.112-0.016 0.224-0.048 0.192 0.048 0.224 0.080 0.256q0.736 0.864 0.16 1.952-0.288 0.544-0.704 0.992l-0.16 0.16q-0.32 0.384-0.512 0.544-0.288 0.256-0.608 0.384l-0.288 0.128q-0.288 0.16-0.48 0.192-0.32 0.064-0.464 0.272t-0.24 0.528q-0.128 0.768-0.416 1.312-0.352 0.608-0.96 0.96-0.256 0.16-0.224 0.448t0.32 0.448q0.16 0.096 0.224 0.096 0.224 0 0.672 0.032 0.704 0.032 1.024-0.064t0.432-0.016 0.144 0.336v0.32q0 0.256 0.256 0.32 0.672 0.16 1.056 0.128 0.544 0 0.96-0.352l0.16-0.096q0.448-0.256 0.64-0.448 0.128-0.128 0.304-0.112t0.24 0.144l0.032 0.064q0.16 0.256 0.16 0.416v0.16q0.032 0.192 0 0.288-0.064 0.384 0.096 0.768 0.096 0.224 0.384 0.608l0.288 0.384q0.288 0.352 0.448 0.576 0.416 0.64 0.96 0.768 0.16 0 0.24 0.096t0.16 0.256 0.128 0.208 0.048 0.096-0.032 0.048q-0.096 0.096-0.224 0.352-0.288 0.512-0.528 0.624t-0.592 0.432q-0.416 0.352-0.704 0.448l-0.352 0.128q-0.736 0.32-1.184 0.32-0.352-0.032-1.024-0.032zM11.136 26.208q0.032 0 0.064 0.016t0.064-0.016q0.352-0.192 0.512-0.768l-0.032-0.096q-0.064-0.064-0.16-0.032-0.288 0.256-0.544 0.544-0.128 0.128-0.080 0.24t0.176 0.112zM4.576 20.736q0-0.128-0.128-0.128t-0.192 0.080-0.080 0.192 0.176 0.112h0.032q0.192 0 0.192-0.256zM16.32 10.432q-0.096-0.128-0.288-0.064-0.096 0.064-0.032 0.096l0.064 0.064q0.064 0.096 0.128 0 0.096 0 0.128-0.096zM17.12 17.696q-0.064-0.128-0.16-0.128t-0.096 0.096 0.048 0.128 0.112 0q0.16 0 0.096-0.096zM32.128 14.048q-0.352-0.384-0.416-1.248l-0.032-0.16q-0.064-0.608-0.16-0.896-0.128-0.512-0.416-0.864-0.064-0.064-0.112-0.224t-0.080-0.224q-0.48-0.8-1.632-1.28-1.024-0.512-1.568-0.672l-0.416-0.128q-0.48-0.16-0.736-0.192-0.384-0.032-1.152 0h-0.608q-0.128 0-0.32 0.096l-0.096 0.032q-0.608 0.256-1.152 0.096-0.16-0.064-0.48-0.064-0.448-0.032-0.64-0.16-0.096-0.064-0.192 0-0.576 0.032-1.056-0.352-1.088-0.736-1.504-1.952-0.064-0.128-0.128-0.448-0.128-0.544-0.32-0.768-0.032-0.096 0-0.16 0.16-0.416 0.592-0.608t1.296-0.48l0.416-0.16q0.32-0.128 0.992-0.256l0.288-0.064q0.32-0.032 0.976-0.048t0.976-0.080 0.704-0.032q0.256 0.032 0.704 0.16l0.448 0.096q0.608 0.128 1.664 0.672 0.576 0.32 0.864 0.448l0.16 0.096q1.344 1.248 2.176 2.4l0.096 0.128q0.48 0.8 0.64 1.184 0.064 0.096 0.080 0.352t0.048 0.352q0.224 0.64 0.224 1.632l-0.032 0.48q-0.032 0.8 0.048 1.152t0.080 1.024q0 0.512 0.032 0.736-0.032 0.224-0.256 0.384zM27.648 17.568h0.928q0.224 0.096 0.72 0.256t0.72 0.256q0.416 0.192 0.672 0.48l0.192 0.192q1.056 1.12 1.472 1.792 0.512 0.8 0.544 1.664 0.032 0.448-0.16 1.376-0.096 0.64-0.128 0.96 0 0.16-0.224 0.384l-0.032 0.064q-0.16 0.384-0.128 0.608 0.032 0.448-0.288 0.896-0.416 0.64-0.672 1.216-0.096 0.192-0.384 0.512l-0.352 0.416q-0.32 0.384-0.512 0.512t-0.576 0.416l-0.16 0.096q-0.544 0.352-0.992 0.704-0.16 0.096-0.288-0.032l-0.032-0.032q-0.096-0.128 0-0.256 0.256-0.32 0.672-1.024l0.416-0.672q0.256-0.416 0.608-1.408 0.224-0.608 0.352-0.928v-0.384q0-0.736-0.032-1.12-0.032-0.64-0.224-1.12l-0.032-0.064q-0.032-0.096-0.096-0.16l-0.288-0.192q-0.32-0.224-0.48-0.288-0.32-0.16-0.608-0.096-0.8 0.032-1.376-0.64-0.736-0.896-1.312-1.984-0.352-0.64-0.288-1.504 0-0.448 0.512-0.608 1.056-0.416 1.856-0.288z"></path>
</svg>
