<!-- Generated by IcoMoon.io -->
<svg version="1.1" xmlns="http://www.w3.org/2000/svg" width="27" height="32" viewBox="0 0 27 32">
<title>w_club</title>
<path d="M0 29.248q0.128-0.096 0.352-0.16l0.16-0.032q0.704-0.224 0.96-0.672 0.416-0.768 1.088-1.216 0.896-0.64 1.568-1.664 1.024-1.6 1.824-3.008l0.032-0.064q1.44-2.528 2.272-3.68 0.416-0.512 1.088-1.632l0.384-0.64q0.16-0.288 0.544-0.832 0.704-1.088 0.928-1.696 0.288-0.704 1.12-1.952 0.768-1.152 1.056-1.792 0-0.128 0.128-0.192 0.608-0.576 0.544-1.312-0.064-0.512-0.512-1.312l-0.224-0.448q-0.128-0.288-0.016-0.512t0.4-0.288l2.080-0.544q0.48-0.16 0.72-0.656t0.144-1.040q-0.288-1.312-0.64-2.336-0.096-0.32 0.032-0.464t0.48-0.080l1.888 0.416q0.608 0.16 0.912-0.208t0.816-0.528q0.288-0.128 0.928-0.192l0.128-0.032q1.92-0.448 2.976-0.48 0.384-0.032 1.024 0.256l0.288 0.128q0.128 0.064 0.192 0.32l0.096 0.384q0.224 0.864 0.192 1.344-0.032 0.32 0.048 0.528t0.336 0.304q0.384 0.224-0.064 0.448-0.672 0.384-0.832 0.816t0.096 1.168q0.128 0.352 0.16 0.832 0.032 0.288 0.032 0.864v0.224q0.032 0.224-0.128 0.32-0.096 0.064-0.384 0.128l-0.192 0.032q-0.288 0.064-0.864 0.032-0.768-0.032-1.152 0.128-0.576 0.192-0.928 0.816t-0.176 1.168 0.112 1.472q0 0.48-0.512 0.48h-0.768q-1.088-0.032-1.888 0.864-0.448 0.512-1.312 1.504-1.312 1.536-2.016 2.272l-0.576 0.608q-1.92 2.016-2.816 3.072-0.576 0.704-1.76 2.080l-0.96 1.12q-0.512 0.576-0.704 0.896-0.32 0.576-1.184 1.552t-1.184 1.52q-0.96 1.568-1.824 2.688-0.128 0.16-0.304 0.56t-0.304 0.592q-0.224 0.32-0.32 0.4t-0.208 0.048-0.432-0.224q-0.192-0.096-0.32-0.128t-0.32 0.032q-0.416 0.192-0.848 0t-0.624-0.64q-0.448-1.216-0.832-1.76zM17.728 10.112q0.192-0.064 0.608-0.064l0.288-0.032q0.544-0.064 0.752-0.368t0.048-0.816l-0.064-0.256q-0.128-0.416-0.096-0.608 0.032-0.512-0.512-0.448-0.864 0.192-1.632 0.672-0.256 0.128-0.176 0.352t0.144 0.608q0.032 0.352 0.064 0.512 0.16 0.48 0.576 0.448zM22.912 4.384q0-0.16-0.032-0.448l-0.032-0.416q-0.16-0.832-0.832-0.672-0.608 0.096-1.376 0.576-0.128 0.032-0.176 0.224t0.192 0.8 0.4 0.736q0.096 0.096 0.288 0.064h0.128q0.224-0.032 0.704-0.192 0.288-0.128 0.416-0.16 0.384-0.128 0.32-0.512z"></path>
</svg>
