<!-- Generated by IcoMoon.io -->
<svg version="1.1" xmlns="http://www.w3.org/2000/svg" width="33" height="32" viewBox="0 0 33 32">
<title>w_dagger</title>
<path d="M24 7.296q0.576-0.128 1.056-0.576 0.352-0.32 0.768-0.896l0.16-0.192q0.512-0.704 0.832-0.96 0.448-0.384 1.28-1.184 1.024-0.992 1.584-1.44t0.848-1.12q0.128-0.448 0.608-0.448h0.064q0.256 0 0.384-0.032 0.192-0.096 0.256-0.32 0.064-0.128 0.192-0.144t0.16 0.112q0.064 0.224 0.384 0.576 0.192 0.256 0.288 0.416 0.192 0.384 0.224 0.864 0.032 0.32 0 0.896 0 0.352-0.448 0.576-0.512 0.192-1.024 0.608-0.288 0.256-0.832 0.8-0.448 0.48-0.704 0.704-0.064 0.064-0.128 0.288l-0.096 0.192q-0.224 0.384-0.384 0.544-0.256 0.256-0.592 0.288t-0.72 0.576v0q-0.288 0.48-1.12 1.312l-0.352 0.384q-0.448 0.48-0.464 0.768t0.464 0.8l0.288 0.32q0.512 0.512 0.816 0.752t0.288 0.432-0.4 0.384l-0.576 0.32q-0.544 0.352-1.184-0.16l-1.216-1.152q-0.256-0.256-0.448-0.24t-0.448 0.272q-0.096 0.16-0.384 0.448l-0.288 0.352q-0.448 0.544-0.384 1.088t0.64 0.96q0.448 0.32 0.464 0.544t-0.336 0.672q-0.608 0.704-2.048 1.92l-0.992 0.864-0.32 0.288q-1.472 1.376-2.272 1.952-0.32 0.256-0.384 0.416-0.192 0.32-0.512 0.64-0.192 0.192-0.608 0.544l-0.192 0.192q-2.624 2.368-3.904 3.904-0.416 0.512-1.312 1.088l-0.512 0.32q-0.8 0.512-1.248 0.672t-1.216 0.544q-0.64 0.32-0.96 0.448l-0.64 0.256q-2.432 1.024-3.712 1.344-0.416 0.096-1.152 0.448l-0.576 0.224q-0.064 0.064-0.096 0.064-0.256 0.128-0.384 0.16-0.224 0.032-0.336-0.112t-0.048-0.256 0.224-0.272l0.992-0.96q1.792-1.824 2.624-2.784 1.76-1.952 4.512-4.704 0.864-0.864 2.56-2.72l0.576-0.64q0.576-0.608 1.792-1.728 1.536-1.44 2.24-2.24 0.768-0.864 2.368-2.464 1.024-1.024 1.504-1.536 0.992-1.056 1.728-1.568 0.128-0.096 0.384-0.352 0.384-0.48 0.032-0.96-0.192-0.32-0.448-0.64-0.16-0.192-0.192-0.336t0.16-0.32 0.096-0.336-0.416-0.192-0.384-0.16 0.128-0.384q0.032-0.064 0.16-0.224l0.128-0.128q0.16-0.224 0.336-0.24t0.416 0.224 0.816 0.688q0.448 0.352 0.64 0.512 0.352 0.32 0.544 0.64 0.064 0.096 0.192 0.224 0.256 0.128 0.4 0.048t0.016-0.336q-0.128-0.096-0.192-0.192t-0.032-0.224zM28.64 6.24q0-0.16-0.192-0.384l-0.064-0.032q-0.32-0.288-0.656-0.672t-0.688-0.128q-0.352 0.352 0 0.704l0.96 0.864q0.224 0.192 0.432 0.064t0.208-0.416zM23.776 11.072q0-0.032-0.032-0.096l-0.032-0.064q-0.416-0.832-1.248-1.248-0.288-0.224-0.48 0.048t0.208 0.512 0.624 0.432q0.288 0.288 0.448 0.64 0.128 0.192 0.288 0.096 0.256-0.064 0.224-0.32zM10.656 26.592q-0.096 0.096-0.288 0.224-0.096 0.064-0.224 0.208t-0.224 0.176q-0.192 0.064-0.288 0.224t-0.016 0.272 0.144 0.112 0.192-0.096 0.192-0.096q0.448-0.032 0.768-0.608 0.128-0.384-0.256-0.416zM27.168 11.808q-0.192 0.096-0.16 0.32 0.032 0.096 0.112 0.144t0.176 0.016q0.192-0.064 0.128-0.256v0q-0.064-0.224-0.256-0.224z"></path>
</svg>
