<!-- Generated by IcoMoon.io -->
<svg version="1.1" xmlns="http://www.w3.org/2000/svg" width="30" height="32" viewBox="0 0 30 32">
<title>w_fangs</title>
<path d="M29.664 6.528q-0.032-0.096-0.096-0.256-0.384-1.056-0.736-1.536-1.92-2.272-4.544-3.296l-0.736-0.224q-0.672-0.224-0.992-0.352-0.544-0.224-0.928-0.512-0.16-0.128-0.48-0.224l-0.256-0.064q-0.416-0.128-0.576-0.016t-0.048 0.56-0.016 0.72-0.544 0.368q-1.344 0.256-2.016 0.288-1.152 0.032-3.424-0.032l-1.344-0.032q-0.768 0-1.152-0.032-0.608-0.064-1.12-0.224-0.352-0.096-0.528-0.288t-0.176-0.544-0.224-0.48-0.608 0q-0.224 0.032-0.64 0.192l-0.16 0.064q-0.48 0.16-1.376 0.64-0.8 0.448-1.216 0.608-1.216 0.416-1.792 0.928-0.864 0.704-1.664 1.792-0.448 0.64-1.28 2.048-0.576 0.928-0.864 1.376-0.192 0.256-0.096 0.496t0.512 0.144q0.288-0.064 0.384 0.032t0.096 0.352q0 4.064 1.12 7.424 0.512 1.664 0.96 2.72 0.608 1.44 1.376 2.528 0.32 0.512 0.64 0.704 0.128 0.096 0.272 0.112t0.288-0.064 0.144-0.192-0.064-0.272l-0.032-0.064q-0.128-0.544-0.128-1.248v-0.48q0.064-1.952 0.224-2.976l0.128-0.704q0.544-2.848 0.96-4.256 0.128-0.416 0.448-1.248 0.352-0.96 0.512-1.44 0.256-0.832 0.288-1.536 0.032-0.384 0.032-1.12 0-0.48 0.416-0.512 0.192-0.032 0.256 0.064t0.096 0.288l0.032 0.096q0.256 0.864 0.192 1.824-0.032 0.832 0.288 1.76 0.192 0.576 0.736 1.664 0.256 0.544 0.768 0.448 0.224-0.032 0.32-0.192 0.064-0.096 0.128-0.352l0.16-0.768q0.192-0.8 0.288-1.184 0.192-0.64 0.48-1.12 0.064-0.128 0.128-0.464t0.128-0.464q0.096-0.224 0.336-0.224t0.368 0.192q0.096 0.096 0.192 0.4t0.16 0.432l0.064 0.096q0.096 0.224 0.192 0.32 0.16 0.16 0.384 0.144t0.432-0.16 0.32-0.352 0.24-0.656v-0.032q0.096-0.288 0.192-0.416 0.128-0.192 0.352-0.16t0.288 0.224q0.064 0.096 0.096 0.384v0.096q0.032 0.16 0 0.512v0.768q0 1.088 0.032 1.648t0.304 0.768 0.88 0.208q0.384 0 0.672-0.256 0.16-0.16 0.384-0.544 0.288-0.48 0.896-1.344 1.056-1.568 1.44-2.432 0.16-0.32 0.368-0.416t0.4 0.256q0.352 0.608 0.512 1.056 0.192 0.608 0.224 1.2t0.064 1.84 0.064 1.888q0.032 0.992-0.032 2.208l-0.192 2.208q-0.192 1.632-0.224 2.432l-0.032 0.256q-0.064 0.32-0.032 0.448 0 0.192 0.192 0.32 0.256 0.16 0.512 0.064 0.16-0.032 0.448-0.256l0.096-0.096q0.192-0.128 0.448-0.512 0.48-0.64 1.136-2.080t1.136-2.128 0.928-1.68q0.32-0.672 0.736-1.824l0.032-0.128q0.096-0.256 0.288-1.056l0.224-0.992q0.256-0.992 0.256-2.624 0-0.48 0.192-0.72t0.672-0.208q0.256 0 0.384-0.128t0.032-0.416zM25.792 15.808q-0.032 0.032-0.128 0.048l-0.096 0.016q-0.064-0.192-0.064-0.288 0.032-0.288 0.192-0.608 0.096-0.192 0.304-0.528t0.304-0.496q0.032-0.064 0.096-0.096t0.112 0.016 0.080 0.112l0.064 0.128q-0.448 0.928-0.864 1.696zM27.68 11.296l-0.256 0.8q-0.032 0.096-0.096 0.32-0.096 0.352-0.256 0.512l-0.064 0.096q-0.064 0.096-0.128 0.128t-0.16 0q-0.192-0.096-0.064-0.384l0.416-1.248q0.096-0.416 0.48-0.384h0.064q0.064 0.064 0.064 0.128v0.032zM27.776 25.728q0-0.032-0.032-0.128l-0.032-0.096-0.096-0.192q-0.576-1.184-0.832-1.792-0.384-1.024-0.48-1.92 0-0.096-0.064-0.224-0.096-0.224-0.352-0.224-0.192 0.032-0.192 0.288-0.064 0.96-0.384 2.016-0.256 0.768-0.736 1.92-0.32 0.704-0.624 0.976t-0.832 0.272-0.848-0.272-0.544-0.976q-0.352-1.12-0.928-3.328l-0.352-1.408q-0.32-1.472-0.576-2.176-0.384-1.216-0.96-2.080-0.064-0.064-0.128-0.24t-0.128-0.256-0.224-0.048-0.208 0.16-0.016 0.384v0.16q0 0.448 0.048 1.36t0.048 1.392q-0.032 0.704-0.096 2.080-0.096 1.504-0.128 2.24-0.032 1.248 0.064 2.24 0.128 0.544-0.32 0.64-0.192 0.032-0.272-0.064t-0.112-0.32l-0.032-0.16q-0.096-0.416-0.192-1.216l-0.096-0.672q-0.032-0.256-0.096-0.384t-0.288-0.16-0.352 0.16q-0.064 0.096-0.128 0.384-0.096 0.416-0.352 0.608t-0.704 0.256q-0.384 0.064-0.64-0.128-0.16-0.16-0.352-0.512l-0.032-0.064q-0.128-0.256-0.224-0.352-0.16-0.16-0.4-0.16t-0.4 0.16q-0.096 0.128-0.224 0.416l-0.032 0.032q-0.128 0.256-0.336 0.816t-0.336 0.816q-0.224 0.512-0.672 0.48-0.224-0.032-0.352-0.176t-0.224-0.4q-0.352-1.28-0.288-3.2v-0.48q0.032-1.184 0.032-1.792 0-0.992-0.128-1.792-0.16-0.896 0.064-1.696l0.032-0.064q0.096-0.352 0.096-0.512 0-0.32-0.224-0.384t-0.384 0.064q-0.096 0.064-0.24 0.288t-0.208 0.288-0.064 0.128q-0.352 0.864-1.152 2.592-0.8 1.76-1.152 2.688-0.608 1.504-0.832 2.816-0.096 0.64-0.528 1.28t-0.864 0.64-0.816-0.64q-0.32-0.512-0.608-1.664l-0.16-0.576q-0.064-0.224-0.128-0.672-0.128-0.64-0.224-0.96-0.192-0.48-0.544-0.784t-0.528-0.272-0.4 0.448q-0.288 0.544-0.672 1.728-0.256 0.896-0.448 1.312-0.288 0.8-0.064 1.568 0.128 0.48 0.672 1.312 0.256 0.448 0.672 0.864 0.256 0.256 0.832 0.704 0.704 0.576 1.024 0.896 0.96 1.056 1.952 1.664 0.384 0.256 0.688 0.24t0.688-0.304q0.672-0.64 1.216-0.992 0.704-0.48 1.376-0.672 1.504-0.448 2.688-0.64 1.44-0.224 2.784-0.128t2.24 0.512q1.056 0.48 1.76 1.504 0.352 0.576 0.592 0.752t0.496 0.096 0.832-0.432q0.384-0.256 1.216-0.576 0.672-0.256 0.992-0.416 2.016-1.184 4.032-2.816 0.608-0.48 0.928-1.248 0.096-0.192 0.048-0.288t-0.256-0.24-0.24-0.272zM5.28 27.424q-0.096 0.032-0.16-0.016t-0.048-0.096 0.080-0.096 0.096-0.048 0.128 0.032l0.16 0.096z"></path>
</svg>
