<!-- Generated by IcoMoon.io -->
<svg version="1.1" xmlns="http://www.w3.org/2000/svg" width="25" height="32" viewBox="0 0 25 32">
<title>w_mace</title>
<path d="M9.44 11.296q0.192-0.192 0.608-0.32l0.256-0.096q0.288-0.064 0.352-0.304t-0.256-0.432l-0.416-0.288q-1.6-1.12-2.48-1.568t-1.424-0.928q0.096-0.224 0.384-0.16 1.312 0.128 3.872 0.064h1.472q0.448 0 0.544-0.48 0.224-0.672 0.352-1.568 0.064-0.512 0.192-1.568l0.032-0.384q0.128-0.704 0.32-2.176 0.064-0.192 0.256-0.576l0.128-0.192 0.096 0.16q0.384 0.736 0.448 1.12 0.192 0.896 0.896 2.272 0.192 0.384 0.512 1.088 0.128 0.224 0.256 0.272t0.352-0.080l0.032-0.032q0.064-0.032 0.064-0.064 0.352-0.352 1.184-0.96 0.608-0.48 0.928-0.736 0.48-0.448 0.832-0.896 0.192-0.288 0.704-0.736l0.128-0.128q1.056-0.992 1.6-1.472 0.16-0.16 0.256-0.064 0.064 0.032 0.064 0.224-0.16 0.288-0.352 0.896-0.256 0.768-0.48 1.088-0.832 1.408-1.344 3.104l-0.48 1.504q-0.288 0.896 0.64 0.896h2.912q0.256 0 0.736-0.128l0.416-0.096q0.416-0.032 0.656 0.064t0.496 0.384q-0.32 0.192-0.928 0.576-0.672 0.448-1.056 0.64-1.632 0.736-3.040 1.632-0.448 0.256-0.192 0.8l0.832 1.408q0.512 0.992 1.056 1.792 0.128 0.224 0.128 0.48 0 0.16-0.064 0.448t-0.064 0.4-0.112 0.128-0.24-0.048l-0.448-0.224q-0.672-0.288-0.928-0.544-0.512-0.48-1.696-1.184-0.704-0.416-1.056-0.672-0.128-0.128-0.288-0.128-0.288-0.096-0.432 0.016t-0.048 0.4q0.064 0.192 0.128 0.576l0.096 0.448q0.096 0.256-0.032 0.352l-0.096 0.096q-0.288 0.32-0.464 0.384t-0.272-0.128l-0.032-0.032q-0.192-0.352-0.864-0.832l-0.096-0.064q-0.288-0.16-0.464-0.128t-0.4 0.288q-0.544 0.736-1.504 2.272l-0.448 0.736q-0.128 0.16-0.096 0.416 0 0.16 0.096 0.48 0.128 0.48 0.048 0.608t-0.528 0.32l-0.416 0.192q-0.64 0.288-0.896 0.48-0.448 0.352-0.608 0.864-0.064 0.256-0.416 0.672l-0.096 0.096q-0.768 0.992-1.856 2.848-0.128 0.224-0.448 0.64-0.448 0.576-0.608 0.896-0.256 0.544-0.96 1.568-0.48 0.672-0.704 1.024-0.544 0.896-1.824 2.624l-0.064 0.128q-0.096 0.128-0.16 0.192t-0.176-0.016-0.080-0.16 0.16-0.208l0.096-0.128q0.256-0.384 0.736-1.12l0.448-0.64q0.064-0.064 0.064-0.096l0.032-0.096q0.064-0.128 0.080-0.224t-0.112-0.192-0.208-0.048-0.208 0.208l-0.032 0.032q-0.224 0.224-0.448 0.32-0.448 0.096-0.8 0.48-0.096 0.224-0.352 0.128-0.128-0.064-0.128-0.288v-0.064l0.448-1.536q0.128-0.288-0.032-0.384-0.256-0.096-0.416 0.192 0 0.064-0.096 0.16-0.128 0.192-0.32 0.144t-0.384 0.048q-0.128 0.032-0.32 0.16l-0.192 0.128q-0.224 0.16-0.352 0.032-0.096-0.064-0.080-0.16t0.112-0.192q0.256-0.288 0.64-0.96 0.288-0.544 0.448-0.768 0.32-0.416 0.672-0.672 0.288-0.192 0.704-0.864l0.16-0.256q0.416-0.704 1.408-2.080 0.736-1.056 1.088-1.6 0.896-1.408 1.376-2.016 0.608-0.864 0.096-1.76-0.096-0.192-0.048-0.304t0.208-0.272q0.224-0.192 0.768-0.192 0.8 0 1.408-0.704 0.96-1.28 1.504-2.368 0.128-0.256 0.32-0.864l0.032-0.096q0.032-0.224-0.128-0.384-0.48-0.576-1.056-0.8-0.032 0-0.128-0.064zM10.432 15.808q-0.416-0.064-0.544 0.256-0.032 0.096-0.16 0.16l-0.096 0.096q-0.256 0.256-0.288 0.384t0.16 0.448q0.032 0.096 0.192 0.288l0.128 0.128q0.16 0.192 0.416 0.256 0.16 0.032 0.448 0.064h0.224q0.16 0 0.224-0.16 0.064-0.096 0.128-0.384l0.064-0.192q0.16-0.288 0-0.672-0.128-0.64-0.896-0.672zM11.168 15.040q0-0.224-0.256-0.224-0.16 0-0.24 0.032t-0.048 0.192q0.032 0.256 0.32 0.224 0.096 0 0.16-0.064t0.064-0.16zM13.472 6.336q-0.032-0.128-0.064-0.16t-0.128 0q-0.288 0.064-0.288 0.352 0 0.192 0.224 0.192 0.256-0.096 0.256-0.384z"></path>
</svg>
