<!-- Generated by IcoMoon.io -->
<svg version="1.1" xmlns="http://www.w3.org/2000/svg" width="31" height="32" viewBox="0 0 31 32">
<title>w_ranged_weapon</title>
<path d="M30.816 0q-0.256 0.544-0.704 1.664-0.576 1.472-0.96 2.144-1.088 1.792-1.696 3.648l-0.064 0.16q-0.064 0.224-0.128 0.336t-0.272 0.112-0.272-0.096-0.064-0.32l-0.032-0.192q-0.096-0.768-0.832-0.288-0.384 0.256-0.8 0.672-0.256 0.256-0.736 0.8l-1.76 1.984q-1.536 1.664-2.336 2.496-0.512 0.544-1.408 1.696-1.056 1.312-1.664 1.92-2.336 2.336-5.152 6.304-0.448 0.608-0.448 1.344 0.032 0.384 0 1.184l-0.032 0.8q0 0.544-0.352 0.768-0.608 0.416-1.152 1.056-0.352 0.416-0.96 1.248-0.448 0.64-0.704 0.928l-0.416 0.448q-0.576 0.608-0.8 0.96-0.064 0.096-0.176 0.16t-0.208 0q-0.224-0.064-0.16-0.48 0.096-0.832 0.288-1.632 0.064-0.352 0.064-1.088 0-0.544-0.448-0.672l-0.064-0.032q-0.096-0.032-0.128-0.064-0.704-0.704-1.664-0.704-0.576 0.032-1.728 0.384l-0.384 0.096q-0.224 0.032-0.352 0-0.16 0-0.24-0.144t-0.032-0.256 0.176-0.272l0.032-0.032q0.832-0.896 1.92-1.76 0.384-0.288 0.896-0.096 0.288 0.096 0.496 0.096t0.416-0.128 0.336-0.256 0.128-0.352q0-0.352-0.448-0.416-0.256-0.064-0.272-0.224t0.144-0.352l1.056-1.184q0.416-0.448 1.136-0.24t1.328-0.112q0.352-0.224 0.96-0.864l0.064-0.096q3.424-3.968 6.080-6.56 0.928-0.896 2.656-2.784l0.992-1.088q0.832-0.96 1.344-1.344t0.608-0.752 0.384-0.72q0.192-0.192 0.608-0.512 0.8-0.64 1.216-1.312 0.224-0.352 0.144-0.544t-0.464-0.32l-0.096-0.032q-0.16-0.032-0.256-0.064-0.288-0.128-0.304-0.336t0.24-0.368q0.48-0.288 1.472-0.832l0.736-0.416q1.056-0.544 2.336-1.376 0.768-0.512 2.272-1.568 0.096 0 0.288-0.080t0.352-0.048zM22.816 8.288v-0.128l-0.128 0.032v0.032q0 0.064 0.032 0.080t0.064-0.016h0.032zM29.728 1.248h-0.032l-0.032 0.032 0.064 0.064 0.032-0.032q0-0.064-0.032-0.064zM20.384 14.528q0.288-0.32 0.8-0.976t0.8-0.944q0.448-0.512 0.88-0.848t0.752-0.176q0.96 0.416 1.856 0.224 0.8-0.192 1.6-0.928 0.256-0.224 0.384-0.224t0.16 0.384q0 0.224 0.192 0.32 1.6 1.088 2.432 3.216t0.32 4.56q-0.608 2.624-1.472 4.448-0.576 1.28-0.64 2.336-0.096 1.28 0.464 2.416t1.872 1.424q0.48 0 0.544 0.32 0.032 0.16-0.064 0.256t-0.256 0.192l-0.096 0.032q-0.608 0.384-1.088 0.448-0.608 0.064-1.216-0.256l-0.576-0.288q-0.8-0.32-1.152-0.672-0.672-0.736-0.96-1.728-0.224-0.736-0.32-1.984-0.064-1.12 0.288-2.4 0.224-0.736 0.832-2.24l0.096-0.224q0.704-1.568 0.544-2.912-0.032-0.192-0.064-0.608-0.032-0.864-0.224-1.28-0.192-0.352-0.416-0.48t-0.592-0.16-1.104 0l-0.736 0.032q-0.832 0-1.696-0.288-0.704-0.256-1.568-0.736-0.064-0.032-0.288-0.128zM26.4 15.168q0.032-0.032 0.064-0.032l0.032-0.032q-0.064-0.064-0.096-0.064h-0.064q0 0.128 0.064 0.128zM0.032 7.008v-0.608q0-0.16 0.096-0.288t0.256-0.128l0.128-0.032q0.16-0.032 0.272-0.016t0.208 0.144l0.096 0.096q0.128 0.16 0.16 0.256 0.768 1.152 1.856 0.96 0.224-0.032 0.512 0 1.088 0.256 2.112-0.224 0.64-0.288 1.728-1.184 2.208-1.984 5.248-2.656 1.664-0.352 3.36-0.096 1.536 0.224 3.168 0.96 0.224 0.096 0.56 0.464t0.592 0.464q0.096 0.032 0.064 0.144t-0.128 0.208q-0.16 0.256-0.32 0.832-0.064 0.32-0.144 0.496t-0.048 0.464q0.032 0.16 0.128 0.512l0.032 0.128q0.16 0.416 0.112 0.72t-0.432 0.56-0.896 1.024l-0.32 0.448q-0.704 0.832-1.088 1.216-0.48 0.512-0.768-0.128-0.416-0.896-0.416-1.504-0.064-1.312 0.032-1.92 0.16-0.8-0.576-0.992h-0.064q-0.576-0.192-0.864-0.256-0.48-0.064-0.896 0.032-0.32 0.096-0.672 0.096-0.992-0.032-1.984 0.416-0.672 0.288-1.728 1.056-0.704 0.512-1.632 0.864-0.704 0.256-1.792 0.512t-2.24-0.032q-0.896-0.192-2.080-0.832-0.416-0.256-0.832-0.8l-0.064-0.096q-0.256-0.416-0.512-0.544-0.192-0.064-0.224-0.256-0.032-0.096 0-0.32v-0.16zM13.92 6.528q-0.032-0.032-0.080-0.048t-0.080 0-0.032 0.048l-0.032 0.064q0.064 0.128 0.16 0.064z"></path>
</svg>
