<!-- Generated by IcoMoon.io -->
<svg version="1.1" xmlns="http://www.w3.org/2000/svg" width="26" height="32" viewBox="0 0 26 32">
<title>w_reach_weapon</title>
<path d="M25.952 19.616q-0.064 0.032-0.224 0.128-0.288 0.16-0.416 0.192-0.256 0.064-0.512-0.064-0.192-0.064-0.64-0.128l-0.288-0.064q-0.544-0.128-0.928 0.448-0.128 0.224-0.272 0.368t-0.4 0.208q-0.128 0.032-0.336 0.224t-0.336 0.224l-0.16 0.096q-0.288 0.16-0.448 0.192-0.288 0.096-0.512-0.064-0.16-0.064-0.32 0.064l-0.064 0.032q-0.224 0.128-0.416 0.128t-0.384-0.16q-0.416-0.32-0.896 0.096l-0.224 0.256q-0.48 0.576-0.704 0.896-0.128 0.128-0.256 0.192-0.192 0.16-0.288-0.064-0.032-0.128-0.032-0.416v-1.536q0-0.192-0.048-0.32t-0.208-0.224l-0.48-0.48q-0.576-0.48-0.672-1.088 0-0.096-0.032-0.128-0.32-0.32-0.448-0.768-0.096-0.288-0.16-0.896l-0.032-0.416q-0.096-0.512-0.64-0.672-0.64-0.224-0.928-0.64-0.096-0.128-0.224-0.144t-0.288-0.016h-0.128q-0.352 0-0.624 0.192t-0.368 0.544-0.384 0.672q-0.192 0.224-0.608 0.512l-0.192 0.128q-0.256 0.128-0.352 0.256-0.224 0.288-0.544 0.32-0.192 0.032-0.624-0.032t-0.672 0.064-0.432 0.512q-0.032 0.064-0.064 0.224l-0.064 0.192q-0.224 0.576-0.896 1.536-0.448 0.64-0.64 0.992-0.096 0.16-0.384 0.16-0.352-0.064-0.544 0.224-0.48 0.416-0.544 0.784t0.256 0.496q0.192 0.128 0.32 0.16 0.288 0.096 0.288 0.448v1.728q0 0.288-0.288 0.736l-0.096 0.128q-0.224 0.352-0.208 0.576t0.24 0.608q0.16 0.256 0.416 0.224 1.12-0.064 1.824 0.736 0.224 0.192 0.736 0.512 0.192 0.128 0.256 0.192 0.128 0.16 0.128 0.32 0.032 0.256 0.32 0.32 0.224 0 0.368 0.176t0.336 0.016q0.448-0.512 1.056-0.64 0.16-0.032 0.256 0.048t0.016 0.208-0.112 0.4-0.176 0.384-0.144 0.32 0.16 0.304l0.128 0.096q0.192 0.16 0.288 0.192 0.192 0.096 0.352 0 0.448-0.192 1.056-0.608 0.128-0.064 0.16-0.256v-0.096q0.032-0.416-0.016-0.528t-0.4-0.368q0.32-0.128 0.544 0.032l0.128 0.128q0.16 0.128 0.224 0.224t0.064 0.256q0 0.352-0.128 0.736-0.096 0.256-0.352 0.672-0.192 0.192-0.224 0.32-0.064 0.352-0.144 0.416t-0.4 0.064h-0.96q-0.256 0-0.416-0.288-0.32-0.64-0.704-1.024-0.448-0.448-1.072-0.592t-0.944 0.24q-0.384 0.416-0.576 0.432t-0.576-0.4q-0.128-0.128-0.448-0.336t-0.448-0.336q-0.352-0.288-0.512-0.512-0.224-0.288-0.256-0.64 0-0.064-0.064-0.192-0.48-0.544-0.608-1.632-0.032-0.192-0.224-0.576-0.096-0.192-0.48-0.128-0.128 0.064-0.128 0.288v0.064q0 0.224 0.064 0.352 0.128 0.192 0.128 0.352 0.128 1.024 0.576 1.568 0.064 0.096 0.048 0.16t-0.096 0.176-0.208 0.016l-0.064-0.064q-0.736-0.352-0.704-1.12 0.032-0.448-0.224-0.896-0.128-0.256-0.512-0.736l-0.064-0.064q-0.16-0.16-0.48-0.224-0.48-0.096-0.768-0.544-0.64-0.8-0.8-1.472-0.416-1.056 0.192-1.664 0.096-0.096 0.144-0.368t0.016-0.464 0-0.352q0.064-0.768-0.48-1.12-0.256-0.16-0.256-0.544v-2.016q0-0.288 0.224-0.512 0.32-0.288 0.384-0.448 0.128-0.288-0.032-0.64-0.064-0.096 0.032-0.288l0.032-0.032q0.224-0.576 0.448-1.312l0.032-0.032q0.032-0.128 0.032-0.208t-0.064-0.208q-0.128-0.192-0.16-0.48 0-0.16 0.032-0.48l0.032-0.256q0.032-0.192 0.256-0.448 0.16-0.16 0.24-0.288t0.304-0.4 0.32-0.4q0.352-0.48 0.864-0.48 0.416 0 0.768-0.48 0.128-0.288 0.448-0.48 0.384-0.16 0.192-0.64-0.288-0.64 0.32-1.088l0.256-0.192q0.576-0.448 0.912-0.656t0.576-0.176 0.56-0.064q0.16-0.064 0.512-0.224l0.288-0.128 0.192-0.064q0.352-0.096 0.432-0.256t0.24-0.448q0.224-0.384 0.288-0.608 0.224-0.608 0.672-0.704 0.16-0.032 0.448-0.192 0.448-0.224 0.752-0.224t0.464-0.352q0.288-0.48 0.864-0.896 0.32-0.256 1.056-0.672 0.192-0.096 0.704-0.16 0.768-0.096 0.928-0.704 0.096-0.224 0.432-0.528t0.4-0.56q0.224 0.096 0.416 0.448l0.064 0.16q0.032 0 0.032 0.064v0.096q0.224 0.576 0.32 0.736 0.128 0.224 0.32 0.352 0.16 0.096 0.704 0.32l0.064 0.032q0.32 0.096 0.416 0.224 0.192 0.256 0.608 0.416 1.056 0.64 1.184 1.792 0.032 0.256 0.208 0.48t0.432 0.24 0.768 0.24q0.32 0.16 0.512 0.208t0.176 0.336-0.304 0.288q-0.416 0-1.056 0.288-0.384 0.16-0.608 0.416t-0.384 0.672q-0.32 0.768-0.704 1.184-0.48 0.544-1.216 0.704l-0.128 0.032q-0.256 0.032-0.288 0.096-0.256 0.16-0.576 0.224-0.224 0.032-0.576 0.032t-0.512 0.112-0.224 0.4l-0.032 0.16q-0.16 0.64-0.384 0.896-0.032 0.032-0.032 0.16l-0.032 0.096v0.16q0 0.192-0.112 0.192t-0.128-0.048-0.016-0.16-0.032-0.144q-0.192-0.288-0.352-0.928-0.128-0.48-0.24-0.736t-0.24-0.384q-0.16-0.192-0.416-0.208t-0.672-0.4l-0.352-0.256q-0.256-0.256-0.448-0.32-0.32-0.096-0.544-0.352-0.16-0.16-0.368-0.528t-0.464-0.576-0.672-0.208q-0.064 0-0.192-0.096l-0.128-0.064q-0.288-0.16-0.608-0.144t-0.576 0.208l-0.128 0.128q-0.256 0.224-0.272 0.336t0.128 0.32 0.128 0.336-0.176 0.352q-0.224 0.352-0.832 0.832l-0.384 0.352q-0.288 0.288-1.056 0.576l-0.384 0.16q-0.16 0.032-0.608 0.032-0.256 0.032-0.416 0.192t-0.16 0.416v0.192q-0.032 0.256 0 0.384 0.064 0.416-0.064 0.832-0.128 0.288-0.384 0.736l-0.192 0.288q-0.128 0.704-1.024 1.12-0.672 0.256-0.864 0.896-0.096 0.288-0.048 0.592t0.288 0.416 0.304 0.272 0.064 0.416v2.496q0 0.544-0.384 0.8-0.256 0.192-0.336 0.608t0.048 0.704 0.192 0.288q0.224 0.064 0.384 0.224 0.096 0.096 0.24 0.352t0.24 0.352l0.032 0.096q0.064 0.16 0.192 0.16h0.064q0.256 0 0.352-0.128 0.288-0.32 0.8-0.672 0.128-0.064 0.224-0.384l0.032-0.16q0.032-0.064 0.032-0.16v-0.096q0.256-0.256 0.24-0.528t-0.224-0.592-0.016-0.736l0.032-0.128q0.128-0.352 0.192-0.544 0.128-0.288 0.352-0.448 0.16-0.128 0.416-0.416l0.224-0.224q0.288-0.352 0.544-0.512 0.352-0.192 0.8-0.128 0.192 0.032 0.384-0.064 0.128-0.064 0.336-0.256t0.336-0.256q0.224-0.192 0.224-0.608 0-0.32 0.192-0.576 0.128-0.192 0.448-0.448 1.024-0.672 1.952-0.832 0.256-0.064 0.416 0.032 0.224 0.128 0.432 0.096t0.496-0.16l0.064-0.032q0.096-0.064 0.16-0.064 0.704 0.096 0.992-0.608 0.064-0.224 0.608-0.224h0.224q0.416-0.032 0.608 0.064 0.32 0.16 0.672-0.032l0.064-0.032q0.256-0.16 0.416-0.032 0.096 0.032 0.288-0.16 0.736-0.768 2.112-0.928 0.192-0.032 0.512-0.16l0.128-0.032q0.224-0.064 0.32-0.064 0.192-0.032 0.336 0.064t0.336 0.064q0.128-0.032 0.384-0.128 0.864-0.288 1.568-1.056 0.16-0.224 0.352-0.32 0.096-0.096 0.224-0.032t0.128 0.192v0.512q0 0.672-0.096 0.992-0.16 0.576 0.384 0.928 0.352 0.224 0.736 0.768t0.48 0.96l0.064 0.224q0.352 0.416 0.384 0.96 0 0.352-0.128 1.056t0.32 1.152q0.288 0.192 0.672 0.736 0.32 0.448 0.544 0.64zM6.752 8q-0.128-0.192-0.208-0.352t-0.24-0.224-0.288 0.064l-0.128 0.096q-0.608 0.352-0.816 0.656t0.080 0.464q0.448 0.16 0.384 0.704v0.064q-0.032 0.128 0.032 0.192 0.16 0.064 0.32-0.064l0.064-0.064q0.352-0.224 0.992-0.704l0.16-0.096 0.256-0.224q0.128-0.128 0.096-0.304t-0.256-0.176q-0.16-0.032-0.448-0.032zM7.648 29.408q0.032-0.16-0.16-0.48l-0.064-0.128q-0.064-0.192-0.224-0.32-0.096-0.096-0.32-0.192-0.32-0.128-0.448-0.288 0-0.064-0.16 0.032-0.224 0.096-0.368 0.512t-0.016 0.64l0.032 0.064q0.128 0.096 0.192 0.128 0.288 0.128 0.896 0.576l0.032 0.032q0.192 0.128 0.352-0.032 0.256-0.224 0.256-0.544zM3.328 12.608q0-0.384-0.080-0.56t-0.336-0.368q-0.064-0.064-0.176-0.080t-0.176 0.048q-0.64 0.48-0.736 1.248-0.032 0.192 0.176 0.496t0.4 0.336q0.416 0.032 0.64-0.416 0.032-0.064 0.144-0.208t0.16-0.24-0.016-0.256zM9.024 15.872q-0.032 0.096 0.048 0.224t0.080 0.192q0.192 0.704 0.8 0.384 0.256-0.128 0.736-0.416l0.256-0.16q0.096-0.064 0.112-0.144t0.016-0.24-0.112-0.272-0.336-0.24q-0.288-0.192-0.576 0-0.448 0.352-1.024 0.672zM1.664 18.112v0-0.384q0-0.384-0.224-0.384-0.16 0-0.416-0.096-0.192-0.096-0.304-0.112t-0.24 0.080q-0.064 0.032-0.128 0.224v0.032q-0.128 0.224 0 0.752t0.352 0.688l0.032 0.032q0.096 0.032 0.128 0.032 0.448 0.096 0.624-0.032t0.176-0.576v-0.256zM4.8 23.584q-0.128 0.064-0.192 0.288l-0.032 0.128q-0.192 0.512-0.544 0.064-0.064-0.064-0.128-0.256v-0.096q-0.032-0.16-0.16-0.128t-0.208 0.112-0.080 0.176q0 0.544 0.032 0.8t0.288 0.576q0.192 0.16 0.448 0.192 0.16 0 0.416-0.096 0.16-0.064 0.272-0.208t0.080-0.336 0-0.512v-0.256q0-0.192-0.032-0.288t-0.16-0.16zM1.728 24.928q0.352-0.256 0.48-0.672 0.064-0.288 0.032-0.8 0-0.128-0.096-0.208t-0.224-0.080l-0.16-0.032q-0.256-0.032-0.384-0.064-0.384-0.128-0.48-0.064t-0.096 0.448q0 0.256 0.128 0.48l0.192 0.288q0.352 0.512 0.608 0.704zM6.656 19.232q0-0.224-0.176-0.496t-0.368-0.304q-0.288-0.064-0.416 0.064l-0.192 0.16q-0.416 0.416-0.512 0.672-0.032 0.128-0.032 0.416 0.16 0.352 0.384 0.16 0.192-0.096 0.512-0.032 0.352 0 0.576-0.176t0.224-0.464zM14.912 13.696v0h-0.288q-0.128 0-0.24 0.064t-0.112 0.192q0 0.544-0.256 0.896-0.064 0.128-0.016 0.272t0.208 0.208q0.384 0.096 0.704-0.128 0.224-0.16 0.416-0.64 0.096-0.256 0.16-0.352 0.128-0.192 0-0.352t-0.384-0.192q-0.032 0.032-0.192 0.032zM10.624 4.448q-0.512-0.192-0.928 0.32-0.128 0.16-0.144 0.352t0.144 0.256q0.256 0.096 0.272 0.256t-0.112 0.384q-0.032 0.064 0 0.16v0.096q0 0.128 0.112 0.176t0.256-0.016 0.144-0.192q0-0.224 0.144-0.608t0.144-0.576q0.064-0.32-0.032-0.608zM3.168 25.248q-0.256-0.096-0.512 0 0.16 0.224 0.272 0.224t0.24-0.224z"></path>
</svg>
