<!-- Generated by IcoMoon.io -->
<svg version="1.1" xmlns="http://www.w3.org/2000/svg" width="28" height="32" viewBox="0 0 28 32">
<title>w_scythe</title>
<path d="M14.784 0h0.544q0.48-0.032 0.736 0 0.384 0.064 0.704 0.224 0.096 0.064 0.416-0.032 0.192-0.096 0.288-0.096 1.536-0.128 3.712 0.512 0.8 0.256 2.368 0.704l1.184 0.352h0.128q0.32 0.032 0.384 0.192 0.128 0.416 0.48 0.736 0.224 0.192 0.704 0.512 0.32 0.224 0.48 0.352 0.544 0.416 0.736 0.656t0.192 0.528-0.192 0.928q-0.32 1.088-0.512 1.632-0.352 0.896-0.8 1.504-0.288 0.416-0.544 0.416t-0.352-0.112-0.16-0.368q-0.608-1.696-1.504-2.848-1.152-1.6-3.2-2.464-0.48-0.224-1.152 0.096t-1.12 0.96q-0.096 0.096-0.192 0.352t-0.176 0.368-0.224 0.144-0.496-0.288q-0.224-0.192-0.352-0.256l-0.192-0.096q-0.448-0.256-0.672-0.256-0.384-0.032-0.768 0.352-0.128 0.096-0.512 0.064-0.224 0-0.704-0.128l-0.16-0.032q-3.040-0.608-6.4 0-0.384 0.064-1.2 0.16t-1.2 0.16q-0.672 0.128-1.2 0.352t-1.52 0.832q-0.864 0.512-1.312 0.736l-0.16 0.096q-0.192 0.16-0.32 0.176t-0.224-0.176l-0.096-0.16q-0.16-0.288-0.16-0.448 0-0.256 0.32-0.512 1.984-1.44 3.584-2.4 1.984-1.216 3.856-2.016t4.816-1.184l0.512-0.064q1.088-0.192 1.632-0.16zM17.216 2.016l-0.032-0.032h-0.064v0.032q0 0.064 0.032 0.128 0-0.064 0.064-0.128zM24.64 9.024q0 0.096-0.032 0.224 0 0.256-0.064 0.352-0.736 1.28-2.016 3.904-0.864 1.792-1.312 2.672t-1.12 0.88q-1.28 0-2.272 0.736-0.8 0.608-1.536 1.792-2.208 3.552-1.696 7.424 0 0.256 0.096 0.448 0.16 0.512 0 0.912t-0.672 0.592q-0.64 0.224-1.376 0.672-0.416 0.256-1.28 0.832-1.152 0.8-1.792 1.12-0.096 0.032-0.272 0.192t-0.304 0.192q-0.16 0.064-0.288-0.032-0.224-0.224 0.256-0.928 0.672-0.8 1.024-1.984 0.224-0.704 0.48-2.176 0.224-1.216 0.384-1.792 0.512-1.696 0.96-2.88 0.576-1.504 1.248-2.688 1.984-3.36 4.832-4.416 1.024-0.384 1.728-1.216 0.576-0.64 1.056-1.792 1.28-2.976 1.92-5.216 0.128-0.448 0.336-0.496t0.464 0.24q0.416 0.416 0.736 1.088 0.192 0.384 0.448 1.184z"></path>
</svg>
