<!-- Generated by IcoMoon.io -->
<svg version="1.1" xmlns="http://www.w3.org/2000/svg" width="22" height="32" viewBox="0 0 22 32">
<title>w_spear</title>
<path d="M0.096 31.744q-0.128-0.192-0.064-0.352 0-0.096 0.128-0.288l0.032-0.032q0.224-0.384 0.768-1.12 0.352-0.448 0.512-0.672l0.128-0.16q0.704-0.928 1.024-1.408 0.544-0.8 0.816-1.488t1.008-1.776l0.352-0.512q0.352-0.448 0.704-1.536l0.32-0.96q0.192-0.512 0.032-0.992t-0.608-0.768q-0.16-0.096-0.32-0.16-0.32-0.192-0.352-0.352t0.128-0.448q0.288-0.608 0.416-0.736 0.192-0.192 0.416-0.16 0.192 0.064 0.8 0.352 0.768 0.352 1.152 0.704l-0.096 0.16q-0.128 0.128-0.128 0.256t0.128 0.208 0.208 0.064 0.176-0.144l0.064-0.064q0.448-0.544 1.024-1.76 0.288-0.576 0.464-0.88t0.496-0.976l0.256-0.576q0.224-0.416 0.096-0.704-0.064-0.096-0.096-0.336t-0.096-0.336q-0.064-0.16-0.256-0.224-0.576-0.224-1.376-0.064-0.576 0.192-1.056 0.256-0.224 0.032-0.352 0t-0.208-0.16-0.032-0.288 0.176-0.256l0.768-0.768q0.896-0.928 1.376-1.312 0.352-0.256 0.992-0.832l0.448-0.416q0.448-0.384 1.312-1.12 1.056-0.896 1.552-1.376t1.488-1.312 1.44-1.28q1.216-1.216 3.68-2.944 0.416-0.288 1.216-0.992l0.288-0.256q0.16-0.224 0.352-0.32 0.032-0.096 0.112-0.128t0.176 0.032 0.032 0.224q-0.032 0.672-0.352 1.984l-1.024 4.192q-0.512 2.176-0.864 3.232-0.096 0.256-0.24 0.816t-0.272 0.848q-0.224 0.64-0.576 1.952t-0.608 1.952q-0.544 1.344-0.8 3.008-0.032 0.256-0.192 0.8-0.128 0.448-0.16 0.656t-0.128 0.24-0.256-0.128q-0.768-0.704-0.96-1.344-0.128-0.416-0.576-1.12l-0.064-0.128q-0.224-0.512-0.736-0.224l-0.416 0.256q-0.896 0.544-1.392 0.864t-0.656 0.768q-0.096 0.384-0.48 1.088-0.16 0.256-0.112 0.448t0.304 0.384q1.664 1.088 2.496 1.664 0.256 0.192 0.256 0.304t-0.224 0.272q-0.32 0.192-0.736 0.736-0.224 0.288-0.352 0.416-0.224 0.032-0.224-0.096-0.416-1.248-1.728-1.024-0.736 0.128-1.696 0.576-0.768 0.384-1.152 1.056-0.256 0.384-0.768 1.088-0.48 0.576-0.672 0.896l-0.192 0.32q-0.832 1.312-1.216 1.952-0.64 1.12-1.024 2.080-0.096 0.256-0.256 0.416-0.288 0.32-0.528 0.272t-0.496-0.432l-0.128-0.16q0-0.032-0.032-0.032l-0.064-0.032q-0.192 0.096-0.48 0.416-0.16 0.192-0.256 0.256l-0.096 0.096q-0.096 0.096-0.16 0.112t-0.144-0.048-0.064-0.16 0.080-0.256v-0.032q0.16-0.352 0.112-0.544t-0.304-0.384q-0.32-0.288-0.544 0.048t-0.304 0.528-0.208 0.352q-0.096 0.096-0.32 0.256zM12.672 13.856v0 0.704q0 0.128 0.080 0.176t0.208 0.016 0.432-0.176 0.464-0.208q0.608-0.192 0.768-0.832 0.096-0.416 0.48-1.216l0.128-0.256 0.128-0.32q0.256-0.608 0.32-0.928 0.192-0.672 0.512-1.152l0.48-0.8q0.64-1.12 1.056-1.6 0.16-0.096 0.224-0.416 0.128-0.256-0.064-0.384-0.096-0.032-0.176 0.016t-0.112 0.112l-0.352 0.384q-0.864 0.864-1.216 1.376-1.12 1.536-3.104 3.84-0.224 0.288-0.256 0.416-0.096 0.256 0 0.512 0.032 0.192 0 0.512v0.224zM7.936 21.28q0 0.32 0.208 0.56t0.432 0.176q0.576-0.16 0.704-0.608 0.192-0.512-0.192-0.896-0.096-0.096-0.192-0.144t-0.256-0.016q-0.256 0.096-0.48 0.384t-0.224 0.544zM13.632 22.752q0-0.192-0.112-0.192t-0.112 0.16q0 0.064 0.032 0.128t0.096 0.032zM8.832 19.232v-0.032h-0.064q-0.032 0.032-0.032 0.048t0.064 0.016q-0.032-0.032 0.032-0.032z"></path>
</svg>
