<!-- Generated by IcoMoon.io -->
<svg version="1.1" xmlns="http://www.w3.org/2000/svg" width="32" height="32" viewBox="0 0 32 32">
<title>w_sword</title>
<path d="M31.872 0.256q0-0.064-0.048-0.128t-0.080-0.064q-0.32-0.096-0.992-0.032l-0.192 0.032q-0.032 0-0.096 0.064-0.064 0.256-0.544 0.576l-0.96 0.704q-0.704 0.512-1.056 0.8-0.16 0.128-0.544 0.352-0.576 0.352-0.8 0.576-0.384 0.448-0.928 0.64-0.096 0.032-0.256 0.128t-0.24 0.112-0.128 0.064-0.016 0.112q0.032 0.288-0.096 0.48-0.096 0.16-0.352 0.352l-0.544-0.352q-0.8-0.48-1.152-0.8-0.224-0.224-0.832-0.512l-0.096-0.032q-0.352-0.224-0.672-0.032-0.096 0.064-0.336 0.112t-0.336 0.112q-0.16 0.064-0.256 0.224-0.032 0.032-0.224 0.032-0.096 0-0.128 0.096v0.032q0 0.128 0.16 0.128 0.512 0.032 1.12 0.448 0.288 0.16 0.752 0.56t0.72 0.56q0.096 0.032 0.224 0.16l0.096 0.064q0.224 0.16 0.256 0.368t-0.16 0.4l-0.096 0.096q-0.224 0.256-0.32 0.256t-0.416-0.192l-0.128-0.064q-0.064-0.064-0.064-0.096-0.16-0.096-0.32-0.096t-0.256 0.128l-4.768 4.8-2.4 2.464q-0.256 0.16-0.48 0.448-0.64 0.608-1.888 1.856-1.696 1.696-2.56 2.48t-2.368 2.512l-0.32 0.352-0.48 0.48q-0.928 0.992-1.344 1.504l-0.032 0.032q-0.128 0.192-0.256 0.288l-1.184 1.248q-0.224 0.192-0.608 0.64l-1.312 1.536q-0.192 0.192-0.48 0.672-0.416 0.576-0.704 0.864-0.352 0.352-0.32 0.928 0.032 0.32 0.032 0.944v1.040q-0.032 0.224 0.096 0.32h0.544q0.768-0.032 1.12 0 1.12 0.032 2.080-0.8l0.416-0.352q1.152-0.96 1.632-1.52t0.896-0.816l0.096-0.064q0.416-0.288 0.544-0.48 0.224-0.256 0.736-0.704 0.672-0.608 0.928-0.992 0.448-0.288 1.184-1.088l0.48-0.512 0.48-0.448 2.656-2.656q1.44-1.504 2.528-2.752 0.576-0.736 1.952-2.112 0.992-0.992 1.472-1.536 0.544-0.64 1.792-1.824l0.32-0.32q0.864-0.8 1.504-1.184 0.48-0.32 0.736-0.672 0.128-0.192 0.512-0.64l0.064-0.064q0.352-0.352 0.48-0.64 0.16-0.384 0.064-0.8l-0.096-0.288q-0.128-0.224 0.128-0.448 0.224-0.16 0.448 0.16l0.064 0.096q0.224 0.352 0.352 0.448 0.832 0.832 1.12 1.856l0.064 0.192q0.224 0.544 0.416 0.768 0.32-0.256 0.544-0.64 0.16-0.256 0.352-0.736 0.16-0.352 0.032-0.736-0.064-0.288-0.32-0.608l-0.192-0.256q-0.64-0.768-0.992-1.12-0.16-0.128-0.384-0.416l-0.288-0.32q-0.064-0.096-0.080-0.16t0.048-0.16q0.32-0.672 1.088-1.312l0.128-0.096q0.224-0.224 0.288-0.352 0.192-0.32 0.704-0.896l0.352-0.448 0.256-0.352q0.576-0.8 0.96-1.152l0.064-0.064q0.32-0.32 0.48-0.416 0.32-0.16 0.672-0.096 0.128 0.032 0.208-0.048t0.080-0.208v-0.992zM17.024 11.872q0.064 0.096 0.016 0.16t-0.144 0.16l-0.128 0.096q-0.064 0.096-0.224 0.224l-0.096 0.096q-0.064 0.064-0.128 0.016t-0.080-0.096 0.016-0.096 0.16-0.176l0.448-0.512 0.032 0.032q0.096 0.032 0.128 0.096zM23.392 8.48q-0.128 0.448-0.496 0.832t-1.008 1.184l-0.352 0.416q-0.224 0.256-0.736 0.736l-0.832 0.8q-0.992 0.896-1.408 1.44-0.64 0.8-1.216 1.152-0.128 0.064-0.224 0.224l-0.128 0.16q-0.48 0.512-1.536 1.488t-1.568 1.536-1.632 1.552l-0.704 0.608q-0.736 0.608-1.088 1.216-0.064 0.096-0.224 0.224l-0.096 0.096q-0.16 0.192-0.48 0.464t-0.448 0.432q-0.224 0.256-0.672 0.704l-1.184 1.184q-0.416 0.416-1.216 1.344l-0.704 0.8-0.384 0.48q-0.448 0.576-0.736 0.768-0.448 0.288-0.736 0.64-0.128 0.192-0.48 0.416l-0.128 0.096-0.192 0.096q-0.128 0-0.24-0.192t-0.048-0.32q0.096-0.224 0.352-0.576l0.064-0.096q0.352-0.384 0.608-0.864 0.224-0.288 0.352-0.352 0.256-0.096 0.4-0.448t0.496-0.736q0.192-0.224 0.64-0.64 0.576-0.544 1.6-1.664 1.216-1.344 1.888-1.952 0.768-0.704 2.24-2.144 1.216-1.216 1.856-1.792l0.352-0.384q0.48-0.512 0.784-0.736t0.848-0.768l0.224-0.256q0.704-0.736 0.992-1.088 0.48-0.544 0.96-0.96 0.288-0.192 0.672-0.704 0.544-0.768 1.184-1.152l0.096-0.064q0.064-0.096 0.128-0.128l0.352-0.352q0.832-0.864 1.28-1.184 0.128-0.096 0.288-0.352l0.16-0.224 0.224-0.224q0.256-0.256 0.416-0.352 0.224-0.16 0.608-0.608 0.128-0.192 0.304-0.192t0.368 0.16q0.096 0.032 0.128 0.080t0.032 0.176z"></path>
</svg>
