<!-- Generated by IcoMoon.io -->
<svg version="1.1" xmlns="http://www.w3.org/2000/svg" width="32" height="32" viewBox="0 0 32 32">
<title></title>
<path fill="#fff" d="M246.392 446.005c-6.246-37.479-11.798-68.711-11.798-69.058-0.347 0-6.246-1.388-12.84-2.776-11.798-2.082-12.493-1.388-39.561 30.885-14.922 18.392-27.415 33.315-28.109 33.315-0.347 0 5.899-18.739 14.575-41.296l15.269-41.643-9.37-10.411c-5.206-5.899-12.84-10.758-16.657-10.758-4.164 0-23.597 6.247-43.378 13.881-20.127 7.635-36.784 13.187-37.132 12.84-1.041-0.694 57.952-49.971 65.24-54.83 2.082-1.388 1.388-6.94-1.736-14.228-5.899-13.881 2.082-11.452-93.697-27.067-26.027-4.512-47.196-8.676-46.154-9.37 0.694-0.694 31.233-6.246 68.017-12.493l66.976-11.105 4.164-12.493 4.512-12.493-34.356-27.067c-18.739-14.922-33.661-27.762-32.967-28.456 0.347-0.694 17.698 5.206 38.52 12.84 20.475 7.635 39.214 13.881 41.296 13.881 2.429 0 9.37-5.206 15.616-11.798l11.105-11.452-15.269-40.602c-8.328-22.21-14.575-40.255-13.187-39.907 1.042 0 9.716 9.716 18.739 21.516 34.702 44.766 35.049 44.766 47.889 41.295 11.452-2.776 11.798-3.817 17.351-30.538 3.124-14.922 8.328-45.807 11.798-68.364 3.817-22.209 7.635-39.561 8.676-38.173 1.388 1.736 6.594 30.538 12.146 64.546 5.205 33.662 11.452 63.853 13.534 66.629 2.082 2.429 7.982 5.899 12.84 6.94 8.329 2.082 11.798-0.694 36.438-30.885 15.269-18.392 27.762-31.927 28.455-30.191 0.694 2.082-0.694 6.594-2.43 10.41-8.676 15.963-24.986 66.976-23.25 72.528 1.736 4.858-2.43 7.635-19.433 13.534l-21.515 7.287-13.881-6.941c-22.209-11.452-33.661-13.534-47.196-9.37-38.867 12.493-55.177 66.976-28.803 97.167 4.512 5.205 6.594 5.205 20.821 1.041 39.561-11.798 82.245 15.616 66.629 43.031-9.022 16.657-38.519 13.187-57.952-6.594l-10.758-10.758-17.351 11.104c-9.716 6.594-16.657 13.187-15.269 15.269 10.064 18.392 41.989 33.315 69.752 33.315 9.022 0 24.986-3.817 35.397-7.982 25.333-10.064 33.315-24.639 27.762-49.624-6.594-28.455-26.027-43.031-57.952-43.031-26.374 0-31.927-2.776-36.090-17.351-4.512-15.269 0.347-27.762 11.105-27.762 12.84 0 32.62 10.411 43.031 23.25l10.758 12.146 10.064-13.187c5.899-7.635 16.657-23.25 24.639-35.397 12.84-20.127 14.575-21.516 19.781-16.657 7.635 7.635 9.37 7.287 52.053-8.676 38.173-14.575 48.584-15.963 31.233-4.858-5.205 3.47-20.821 15.616-34.702 27.067-22.209 18.393-24.986 21.863-23.25 29.844 3.817 16.31 1.041 15.616 89.879 29.844 61.423 10.064 61.77 9.716-13.881 22.21-38.173 6.247-70.446 12.493-71.487 13.881-1.388 1.041-3.47 6.94-4.512 12.493-2.082 9.716-0.348 11.798 30.538 36.438 18.045 14.228 32.967 27.067 32.967 28.455 0.348 2.082-40.601-11.798-67.322-22.904l-13.534-5.899-24.291 24.291 14.922 40.255c7.982 22.556 14.228 41.296 13.534 41.99-0.694 0.348-12.84-13.534-27.067-31.579s-28.456-32.967-31.233-32.62c-10.411 0.694-22.556 5.205-22.556 8.329-0.694 10.758-20.821 128.746-22.557 130.828-1.041 1.388-7.287-28.109-13.534-65.935z"></path>
</svg>
