<svg id="SvgjsSvg1001" width="288" height="288" xmlns="http://www.w3.org/2000/svg" version="1.1" xmlns:xlink="http://www.w3.org/1999/xlink" xmlns:svgjs="http://svgjs.com/svgjs"><defs id="SvgjsDefs1002"></defs><g id="SvgjsG1008" transform="matrix(0.916700005531311,0,0,0.916700005531311,11.995284080505371,11.995112419128418)"><svg xmlns="http://www.w3.org/2000/svg" width="288" height="288" viewBox="0 0 1024 1024"><path d="M792.027 839.642c-47.173-47.173-84.699-91.131-83.627-95.419s-4.289-13.938-12.865-20.37c-21.443-17.154-20.37-31.091 4.289-57.895 10.721-12.865 27.876-50.389 38.597-84.699 26.803-86.843 18.227-169.397-25.732-240.158-35.381-56.823-37.525-110.43-5.36-110.43 8.578 0 15.01-4.289 15.01-8.578 0-10.721 97.564-108.286 122.224-122.224 31.091-17.154 19.298 9.649-31.091 70.761-48.246 60.04-57.895 81.482-37.525 81.482 7.505 0 7.505 6.432 0 21.443-8.578 16.081-5.36 38.597 11.794 93.275 12.865 40.74 24.659 78.265 26.803 84.699 1.073 6.432 43.957 15.01 101.854 19.298 94.348 7.505 115.791 11.794 105.069 21.443-2.144 2.144-42.886 7.505-90.059 11.794-50.389 4.289-93.275 13.938-102.924 22.515-19.298 18.227-68.616 211.21-58.967 234.797 3.217 8.578 11.794 16.081 19.298 16.081 10.721 0 85.771 102.924 102.924 142.594 11.794 25.732-24.659-3.217-99.708-80.41zM797.388 498.706c0-5.36-2.144-10.721-4.289-10.721-3.217 0-8.578 5.36-11.794 10.721-3.217 6.432-1.073 10.721 4.289 10.721 6.432 0 11.794-4.289 11.794-10.721zM196.994 834.282c12.865-22.515 30.019-45.029 38.597-49.318s15.01-16.081 15.01-23.587c0-8.578 9.649-25.732 21.443-37.525 20.37-20.37 20.37-21.443-11.794-87.916-18.227-37.525-38.597-79.337-46.102-94.348-10.721-23.587-20.37-26.803-70.761-27.876-32.164-1.073-80.41-5.36-106.141-9.649-43.957-8.578-46.102-9.649-21.443-18.227 13.938-5.36 64.327-11.794 111.502-13.938l85.771-4.289 12.865-48.246c6.432-26.803 19.298-64.327 28.948-82.554 21.443-42.886 21.443-78.265 1.073-95.419-8.578-7.505-16.081-19.298-16.081-26.803s-9.649-25.732-22.515-41.814c-11.794-15.01-20.37-33.236-18.227-40.74 5.36-15.01 92.203 61.111 106.141 93.275 5.36 11.794 15.01 28.948 22.515 38.597 9.649 15.01 6.432 31.091-19.298 85.771-24.659 53.608-31.091 83.627-31.091 138.305 0 64.327 4.289 75.048 46.102 138.305l46.102 67.545-88.986 90.059c-48.246 49.318-92.203 90.059-97.564 90.059s1.073-18.227 13.938-39.67zM250.601 498.706c0-5.36-4.289-10.721-10.721-10.721-5.36 0-10.721 5.36-10.721 10.721 0 6.432 5.36 10.721 10.721 10.721 6.432 0 10.721-4.289 10.721-10.721zM534.717 745.294c-7.505-12.865 17.154-139.377 27.876-139.377 9.649 0 32.164 128.656 24.659 140.449-7.505 12.865-43.957 11.794-52.535-1.073z" fill="#ffffff" class="color000 svgShape"></path><path d="M618.341 640.227c-12.865-16.081-35.381-43.957-50.389-62.184-30.019-37.525-32.164-45.029-18.227-67.545 7.505-11.794 18.227-6.432 52.535 28.948l41.814 43.957 12.865-26.803c21.443-47.173 6.432-154.387-20.37-154.387-11.794 0-162.964 160.821-198.345 211.21-18.227 25.732-37.525 46.102-45.029 46.102-28.948 0-78.265-102.924-78.265-166.181 0-45.029 40.74-162.964 58.967-170.47 19.298-6.432 106.141 107.213 97.564 128.656-7.505 20.37-42.886 3.217-60.040-27.876-16.081-30.019-25.732-26.803-40.74 13.938-17.154 48.246-16.081 83.627 4.289 124.367 15.010 28.948 20.37 33.236 31.091 20.37 40.74-42.886 183.334-212.282 205.85-245.518 39.67-54.678 99.708 52.535 99.708 175.829 0 55.751-5.36 82.554-23.587 114.718-13.938 23.587-28.948 42.886-35.381 41.814-5.36 0-21.443-12.865-34.308-28.948z" fill="#ffffff" class="color000 svgShape"></path></svg></g></svg>