<!-- Generated by IcoMoon.io -->
<svg version="1.1" xmlns="http://www.w3.org/2000/svg" width="32" height="32" viewBox="0 0 32 32">
<title>lumineth-realm-lords</title>
<path fill="#fff" d="M13.219 31.621c-3.66-0.677-5.866-1.93-6.669-3.811-0.476-1.103-0.476-1.128 0.025-2.081 0.627-1.253 2.056-2.382 3.71-3.008 2.758-1.028 4.061-1.955 4.412-3.159 0.125-0.426-0.050-0.727-0.777-1.354l-0.928-0.827-1.078 2.281-1.053 2.306h-1.88c-1.028 0-1.93-0.1-2.031-0.226-0.075-0.125 0.201-0.476 0.602-0.777 1.053-0.727 3.485-5.24 3.008-5.54-0.577-0.351-1.078-0.251-1.429 0.276-0.752 1.228-1.429-0.125-1.178-2.432 0.201-1.905 0.376-1.955 2.281-0.552 0.777 0.577 1.504 0.928 1.604 0.827 0.376-0.401 3.259-6.769 3.259-7.195 0-0.351-0.15-0.401-0.677-0.276-1.404 0.326-3.334 1.329-4.412 2.332-0.602 0.577-1.228 1.028-1.404 1.028-0.577 0-0.552-0.777 0.050-1.83 0.978-1.655 2.908-2.958 5.19-3.56 1.003-0.251 1.128-0.351 1.128-1.028 0-0.627-0.075-0.727-0.627-0.652-1.529 0.201-3.56 1.404-4.889 2.883-0.852 0.928-1.504 1.429-1.705 1.354-0.476-0.175-0.752-2.131-0.552-3.836 0.201-1.579 0.476-1.855 1.178-1.153l0.501 0.501 1.73-0.702c0.928-0.401 2.557-0.902 3.635-1.153 2.357-0.526 4.162-0.276 7.371 1.028l2.131 0.852 0.451-0.552c0.426-0.552 0.426-0.552 0.802-0.050 0.602 0.752 0.426 4.613-0.226 4.989-0.351 0.226-0.501 0.175-0.752-0.201-1.103-1.88-2.683-3.033-5.089-3.735-1.203-0.376-1.279-0.351-1.404 0.075-0.175 0.727 0.326 1.178 1.579 1.354 3.184 0.476 5.265 2.332 5.265 4.663 0 1.655-1.078 3.184-2.933 4.111-0.451 0.226-0.827 0.501-0.827 0.627 0 0.351 0.301 0.501 0.602 0.251 1.529-1.279 2.958-2.256 3.084-2.131 0.276 0.276 0.577 2.783 0.426 3.61-0.201 1.078-0.526 1.228-1.228 0.552-0.602-0.552-1.63-0.526-1.63 0.075 0 0.577 2.808 4.889 3.41 5.19 1.028 0.552 0.552 0.877-1.454 0.953-2.156 0.075-2.106 0.125-3.334-2.708-0.401-0.902-0.752-1.68-0.777-1.73-0.050-0.025-0.476 0.226-0.953 0.602-0.602 0.451-0.902 0.902-0.902 1.304 0 0.852-0.577 2.106-1.279 2.758-0.602 0.552-1.78 1.103-4.036 1.93-2.683 0.978-3.46 2.708-1.83 4.137 1.254 1.078 3.259 1.63 6.268 1.63 2.081 0.025 2.683-0.075 3.51-0.501 1.228-0.652 1.68-1.655 1.053-2.306-0.552-0.552-4.813-0.777-5.716-0.301l-0.552 0.301 0.577 0.451c0.652 0.501 0.552 1.253-0.175 1.253-1.63 0-3.334-1.153-3.334-2.256 0-1.579 2.231-2.507 6.017-2.507 4.212 0 6.644 1.203 6.944 3.435 0.451 3.485-5.265 5.465-12.084 4.212zM17.556 16.178c0.577-0.426 1.053-0.852 1.053-0.928 0.025-0.326-2.131-5.064-2.281-5.064-0.125 0-2.056 4.162-2.281 4.939-0.075 0.276 1.73 1.78 2.206 1.805 0.125 0.025 0.727-0.326 1.304-0.752zM20.665 10.011c1.203-1.153 0.727-2.507-1.153-3.359-1.253-0.577-1.905-0.602-1.905-0.075 0 0.652 1.705 4.112 2.031 4.112 0.175 0 0.652-0.301 1.028-0.677z"></path>
</svg>
