<!-- Generated by IcoMoon.io -->
<svg version="1.1" xmlns="http://www.w3.org/2000/svg" width="32" height="32" viewBox="0 0 32 32">
<title></title>
<path fill="#fff" d="M211.507 505.94c-58.565-10.83-93.864-30.887-106.7-60.971-7.621-17.649-7.621-18.050 0.401-33.293 10.028-20.056 32.892-38.106 59.366-48.135 44.124-16.447 64.983-31.288 70.598-50.541 2.006-6.819-0.802-11.632-12.435-21.661l-14.841-13.237-17.249 36.502-16.847 36.904h-30.084c-16.447 0-30.886-1.604-32.491-3.611-1.203-2.005 3.21-7.621 9.627-12.435 16.848-11.632 55.756-83.835 48.135-88.649-9.226-5.616-17.249-4.012-22.864 4.412-12.034 19.655-22.864-2.006-18.853-38.91 3.209-30.486 6.017-31.287 36.502-8.825 12.435 9.226 24.067 14.841 25.672 13.237 6.017-6.418 52.147-108.303 52.147-115.123 0-5.616-2.406-6.418-10.831-4.412-22.463 5.215-53.35 21.26-70.598 37.304-9.627 9.226-19.655 16.446-22.463 16.446-9.226 0-8.825-12.435 0.802-29.282 15.644-26.474 46.531-47.333 83.033-56.96 16.045-4.011 18.050-5.616 18.050-16.447 0-10.029-1.203-11.633-10.029-10.43-24.469 3.209-56.96 22.463-78.219 46.13-13.638 14.841-24.067 22.864-27.277 21.661-7.621-2.808-12.034-34.096-8.825-61.372 3.21-25.27 7.621-29.683 18.853-18.451l8.023 8.022 27.678-11.232c14.841-6.418 40.915-14.44 58.163-18.451 37.705-8.424 66.587-4.412 117.931 16.447l34.096 13.638 7.22-8.825c6.819-8.825 6.819-8.825 12.836-0.802 9.627 12.033 6.819 73.806-3.611 79.823-5.616 3.611-8.022 2.808-12.034-3.21-17.649-30.085-42.92-48.536-81.428-59.767-19.254-6.017-20.457-5.616-22.463 1.203-2.808 11.633 5.214 18.853 25.271 21.661 50.943 7.621 84.236 37.304 84.236 74.609 0 26.474-17.248 50.943-46.932 65.784-7.22 3.611-13.237 8.023-13.237 10.029 0 5.616 4.813 8.023 9.627 4.012 24.469-20.457 47.333-36.101 49.338-34.096 4.413 4.412 9.226 44.524 6.819 57.762-3.209 17.248-8.423 19.655-19.655 8.825-9.627-8.825-26.073-8.423-26.073 1.203 0 9.226 44.926 78.22 54.553 83.033 16.447 8.825 8.825 14.039-23.265 15.243-34.497 1.203-33.695 2.005-53.349-43.322-6.418-14.44-12.034-26.875-12.435-27.678-0.802-0.401-7.621 3.611-15.243 9.627-9.627 7.22-14.44 14.44-14.44 20.858 0 13.638-9.226 33.695-20.457 44.123-9.627 8.825-28.48 17.649-64.581 30.887-42.92 15.644-55.355 43.322-29.282 66.185 20.056 17.248 52.147 26.073 100.282 26.073 33.293 0.401 42.92-1.203 56.157-8.022 19.655-10.43 26.875-26.474 16.848-36.904-8.825-8.825-77.016-12.435-91.456-4.813l-8.825 4.813 9.226 7.22c10.43 8.022 8.825 20.056-2.808 20.056-26.073 0-53.35-18.452-53.35-36.101 0-25.271 35.7-40.113 96.27-40.113 67.389 0 106.298 19.254 111.112 54.954 7.22 55.756-84.236 87.445-193.342 67.389zM280.902 258.848c9.226-6.819 16.848-13.638 16.848-14.841 0.401-5.214-34.096-81.028-36.502-81.028-2.005 0-32.892 66.587-36.502 79.022-1.203 4.412 27.678 28.48 35.299 28.881 2.005 0.401 11.632-5.214 20.858-12.034zM330.642 160.171c19.254-18.452 11.632-40.112-18.452-53.751-20.056-9.226-30.486-9.627-30.486-1.203 0 10.43 27.277 65.784 32.491 65.784 2.808 0 10.43-4.814 16.447-10.831z"></path>
</svg>
