<!-- Generated by IcoMoon.io -->
<svg version="1.1" xmlns="http://www.w3.org/2000/svg" width="32" height="32" viewBox="0 0 32 32">
<title>nurgle-rotbringers</title>
<path fill="#fff" d="M16.606 24.82c0.068 0.113 0.112 0.248 0.205 0.329 0.201 0.176 0.317 0.406 0.448 0.628 0.026 0.044 0.052 0.095 0.091 0.122 0.049 0.035 0.112 0.069 0.17 0.069 0.198 0.001 0.397-0.002 0.593-0.025 0.102-0.012 0.211-0.048 0.295-0.106 0.162-0.113 0.232-0.586 0.129-0.757-0.030-0.052-0.066-0.103-0.082-0.159-0.039-0.136-0.058-0.278-0.102-0.411-0.172-0.507-0.353-1.012-0.526-1.519-0.107-0.314-0.207-0.631-0.306-0.948-0.049-0.158-0.079-0.323-0.136-0.478-0.025-0.069-0.093-0.123-0.141-0.183-0.126-0.157-0.256-0.311-0.375-0.473-0.024-0.032-0.010-0.094-0.008-0.141 0.006-0.085-0.005-0.151-0.113-0.146-0.031 0.001-0.063-0.011-0.094-0.019-0.287-0.062-0.503 0.114-0.544 0.378-0.011 0.077-0.076 0.147-0.12 0.219-0.062 0.1-0.133 0.194-0.188 0.297-0.047 0.090-0.076 0.189-0.115 0.281-0.062 0.144-0.14 0.284-0.188 0.432-0.124 0.393-0.234 0.79-0.353 1.185-0.052 0.172-0.125 0.339-0.092 0.527 0.005 0.030-0.022 0.067-0.036 0.099-0.031 0.065-0.070 0.127-0.093 0.195-0.064 0.188-0.090 0.397-0.188 0.563-0.13 0.221-0.126 0.446-0.126 0.679 0 0.035 0.032 0.078 0.061 0.101 0.090 0.070 0.198 0.121 0.277 0.201 0.211 0.211 0.503 0.25 0.756 0.088 0.069-0.043 0.145-0.075 0.219-0.11 0.152-0.073 0.297-0.153 0.376-0.314 0.097-0.198 0.2-0.393 0.306-0.601zM23.781 16.42c-0.001 0.006-0.001 0.011-0.002 0.018-0.148 0.006-0.298 0.001-0.444 0.023-0.351 0.054-0.702 0.102-1.047 0.183-0.545 0.129-1.098 0.244-1.585 0.553-0.082 0.054-0.198 0.065-0.3 0.078-0.146 0.019-0.299 0.003-0.442 0.035-0.318 0.071-0.629 0.179-0.948 0.241-0.335 0.065-0.413 0.348-0.558 0.581-0.008 0.013-0.001 0.036-0.002 0.055-0.008 0.166-0.019 0.332-0.022 0.498 0 0.032 0.026 0.066 0.041 0.097 0.077 0.164 0.169 0.323 0.231 0.492 0.048 0.135 0.044 0.289 0.093 0.424 0.1 0.285 0.322 0.479 0.557 0.649 0.174 0.126 0.374 0.214 0.561 0.324 0.195 0.115 0.371 0.27 0.619 0.267 0.077-0.001 0.155 0.017 0.231 0.032 0.379 0.075 0.734-0.057 1.096-0.13 0.012-0.003 0.022-0.018 0.035-0.022 0.064-0.020 0.128-0.043 0.194-0.055 0.229-0.041 0.46-0.076 0.689-0.115 0.023-0.003 0.042-0.020 0.064-0.026 0.074-0.020 0.148-0.039 0.224-0.056 0.054-0.011 0.11-0.009 0.163-0.025 0.18-0.055 0.356-0.14 0.539-0.164 0.252-0.032 0.474-0.139 0.647-0.29 0.277-0.24 0.519-0.525 0.756-0.808 0.188-0.226 0.347-0.476 0.517-0.719 0.030-0.043 0.055-0.101 0.058-0.154 0.018-0.361 0.028-0.722 0.041-1.082 0.008-0.207-0.052-0.377-0.214-0.525-0.303-0.275-0.636-0.406-1.045-0.306-0.043 0.010-0.092 0-0.138-0.005-0.202-0.023-0.403-0.045-0.605-0.069zM8.166 16.383c-0.209 0-0.42-0.019-0.626 0.005-0.198 0.022-0.396 0.097-0.535 0.24-0.321 0.331-0.511 0.742-0.663 1.171-0.011 0.031-0.006 0.075 0.008 0.106 0.105 0.218 0.207 0.436 0.323 0.648 0.271 0.499 0.544 1 0.936 1.42 0.229 0.243 0.467 0.478 0.768 0.637 0.1 0.053 0.195 0.116 0.299 0.159 0.227 0.094 0.453 0.2 0.69 0.257 0.195 0.047 0.405 0.043 0.608 0.039 0.262-0.006 0.523-0.051 0.784-0.051 0.52 0.001 1.031-0.040 1.538-0.165 0.241-0.059 0.463-0.154 0.661-0.285 0.378-0.248 0.737-0.529 1.098-0.804 0.054-0.040 0.1-0.126 0.102-0.193 0.005-0.18 0.006-0.356-0.064-0.541-0.072-0.192-0.17-0.353-0.3-0.501-0.119-0.137-0.263-0.231-0.439-0.294-0.168-0.060-0.318-0.168-0.48-0.244-0.152-0.070-0.312-0.124-0.465-0.192-0.173-0.077-0.34-0.17-0.515-0.241-0.186-0.074-0.379-0.129-0.569-0.194-0.017-0.005-0.031-0.020-0.047-0.026-0.194-0.066-0.382-0.166-0.581-0.19-0.269-0.033-0.531-0.085-0.735-0.252-0.233-0.191-0.504-0.281-0.768-0.399-0.33-0.147-0.681-0.103-1.026-0.112zM11.722 14.557c0.003 0.004-0.007-0.022-0.027-0.038-0.17-0.141-0.189-0.345-0.207-0.541-0.005-0.056 0.048-0.145 0.1-0.171 0.179-0.094 0.369-0.171 0.558-0.246 0.165-0.066 0.335-0.121 0.504-0.181 0.019 0.148 0.060 0.281 0.047 0.409-0.031 0.293 0.118 0.518 0.246 0.751 0.115 0.206 0.267 0.395 0.354 0.612 0.109 0.274 0.282 0.459 0.546 0.575 0.048 0.022 0.102 0.079 0.113 0.13 0.035 0.153 0.16 0.196 0.275 0.246 0.235 0.105 0.474 0.203 0.713 0.301 0.085 0.035 0.169 0.075 0.258 0.093 0.415 0.084 0.828 0.108 1.254 0.033 0.476-0.084 0.946-0.176 1.394-0.365 0.055-0.023 0.119-0.051 0.148-0.096 0.072-0.111 0.175-0.158 0.297-0.186 0.378-0.086 0.645-0.402 0.66-0.785 0.005-0.142 0.068-0.238 0.2-0.288 0.069-0.026 0.143-0.037 0.211-0.065 0.038-0.015 0.088-0.042 0.1-0.076 0.102-0.272 0.213-0.543 0.289-0.824 0.064-0.236 0.078-0.483 0.123-0.725 0.035-0.194 0.173-0.271 0.36-0.211 0.053 0.017 0.105 0.039 0.152 0.068 0.313 0.195 0.628 0.389 0.937 0.588 0.207 0.133 0.22 0.339 0.040 0.507-0.024 0.023-0.061 0.041-0.068 0.068-0.022 0.079-0.063 0.174-0.038 0.241 0.023 0.061 0.121 0.129 0.188 0.132 0.415 0.021 0.83-0.004 1.244 0.082 0.264 0.056 0.545 0.031 0.82 0.038 0.156 0.004 0.313-0.011 0.468-0.001 0.149 0.010 0.297 0.042 0.464 0.068-0.031-0.115-0.029-0.229-0.084-0.298-0.195-0.242-0.301-0.524-0.421-0.803-0.078-0.182-0.162-0.361-0.325-0.494-0.074-0.060-0.132-0.154-0.17-0.243-0.151-0.351-0.289-0.707-0.434-1.060-0.015-0.036-0.055-0.062-0.089-0.1-0.014 0.032-0.023 0.044-0.026 0.057-0.069 0.322-0.204 0.444-0.525 0.476-0.022 0.002-0.046 0.008-0.064 0.022-0.089 0.067-0.154 0.027-0.215-0.042-0.226-0.252-0.453-0.502-0.679-0.753-0.061-0.068-0.116-0.143-0.183-0.205-0.137-0.124-0.28-0.241-0.415-0.358 0.105-0.043 0.189-0.076 0.271-0.112 0.059-0.026 0.113-0.064 0.175-0.082 0.543-0.165 1.022-0.46 1.493-0.765 0.057-0.037 0.102-0.096 0.14-0.152 0.118-0.173 0.232-0.348 0.343-0.525 0.168-0.266 0.371-0.518 0.409-0.843 0.034-0.295 0.052-0.591 0.074-0.887 0.003-0.032-0.002-0.065-0.008-0.097-0.047-0.265-0.098-0.529-0.143-0.794-0.020-0.114-0.064-0.202-0.163-0.273-0.069-0.050-0.152-0.136-0.155-0.21-0.007-0.154-0.055-0.275-0.151-0.39-0.071-0.086-0.129-0.182-0.191-0.274-0.089-0.133-0.194-0.235-0.342-0.313-0.212-0.111-0.403-0.262-0.604-0.395-0.075-0.050-0.147-0.11-0.231-0.139-0.178-0.062-0.36-0.121-0.545-0.153-0.213-0.037-0.436-0.079-0.647-0.055-0.247 0.029-0.519-0.032-0.744 0.134-0.014 0.011-0.049-0.006-0.075-0.006-0.066 0-0.135-0.008-0.198 0.007-0.116 0.028-0.238 0.056-0.341 0.112-0.193 0.107-0.407 0.205-0.553 0.363-0.194 0.209-0.445 0.309-0.67 0.459-0.015 0.010-0.044 0.002-0.076 0.002v-1.499c0.053-0.002 0.095-0.003 0.136-0.006 0.247-0.023 0.336-0.183 0.228-0.407-0.017-0.033-0.034-0.069-0.035-0.104-0.008-0.314-0.137-0.593-0.253-0.874-0.087-0.209-0.207-0.408-0.267-0.624-0.045-0.17-0.219-0.302-0.154-0.504 0.003-0.008-0.014-0.022-0.021-0.034-0.023-0.054-0.054-0.105-0.066-0.161-0.030-0.135-0.052-0.271-0.076-0.406-0.627 0.918-0.939 1.968-1.496 2.924 0.143 0 0.263-0.006 0.382 0.002 0.241 0.017 0.348 0.15 0.322 0.388-0.027 0.233-0.051 0.466-0.080 0.699-0.036 0.279-0.224 0.393-0.504 0.313-0.030-0.008-0.068 0.008-0.102 0.015-0.119 0.025-0.206-0.005-0.263-0.123-0.039-0.081-0.086-0.166-0.147-0.229-0.167-0.167-0.348-0.32-0.514-0.487-0.231-0.232-0.46-0.457-0.822-0.444-0.030 0.001-0.061-0.020-0.093-0.027-0.074-0.018-0.148-0.040-0.225-0.050-0.292-0.037-0.585-0.069-0.876-0.105-0.027-0.003-0.055-0.012-0.079-0.024-0.254-0.115-0.531-0.094-0.774-0.037-0.291 0.067-0.558 0.238-0.834 0.364-0.263 0.12-0.519 0.245-0.702 0.482-0.067 0.088-0.156 0.158-0.227 0.243-0.099 0.119-0.196 0.24-0.281 0.369-0.089 0.133-0.164 0.275-0.241 0.417-0.12 0.218-0.372 0.393-0.232 0.698 0.007 0.015-0.001 0.037-0.001 0.056-0.018 0.368-0.044 0.737-0.048 1.105-0.003 0.318 0.067 0.62 0.245 0.895 0.145 0.225 0.295 0.453 0.4 0.697 0.087 0.202 0.216 0.344 0.394 0.45 0.115 0.069 0.248 0.105 0.264 0.27 0.002 0.025 0.040 0.054 0.068 0.066 0.129 0.058 0.262 0.109 0.392 0.166 0.408 0.178 0.792 0.432 1.263 0.395 0.009 0.106-0.006 0.195 0.027 0.258 0.069 0.135 0.065 0.262-0.006 0.383-0.054 0.091-0.123 0.175-0.196 0.251-0.256 0.264-0.509 0.528-0.776 0.779-0.231 0.218-0.475 0.422-0.721 0.624-0.065 0.054-0.146 0.075-0.216-0.021-0.080-0.111-0.171-0.218-0.264-0.32-0.143-0.158-0.372-0.111-0.445 0.089-0.072 0.198-0.143 0.397-0.212 0.597-0.136 0.397-0.269 0.796-0.407 1.193-0.051 0.144-0.109 0.286-0.172 0.425-0.107 0.236-0.223 0.468-0.331 0.702-0.017 0.034-0.018 0.075-0.030 0.128 0.174-0.035 0.329-0.063 0.481-0.099 0.491-0.117 0.982-0.229 1.47-0.358 0.199-0.053 0.392-0.134 0.578-0.221 0.132-0.061 0.249-0.153 0.38-0.235zM21.702 30.438c-0.012-0.024-0.026-0.039-0.029-0.056-0.039-0.216-0.079-0.433-0.114-0.651-0.025-0.159-0.113-0.253-0.247-0.247-0.13 0.004-0.227 0.106-0.234 0.264-0.008 0.195-0.019 0.391-0.005 0.585 0.013 0.19-0.063 0.307-0.212 0.416-0.221 0.16-0.43 0.337-0.626 0.526-0.133 0.128-0.282 0.185-0.476 0.215 0-0.073 0.001-0.14 0-0.207-0.002-0.354 0.005-0.706-0.010-1.059-0.011-0.265-0.243-0.38-0.462-0.229-0.072 0.049-0.145 0.167-0.139 0.247 0.023 0.321-0.067 0.607-0.189 0.895-0.104 0.247-0.182 0.506-0.279 0.757-0.017 0.042-0.071 0.1-0.108 0.1-0.389 0.006-0.78 0.036-1.144-0.153-0.084-0.043-0.114-0.095-0.112-0.185 0.002-0.139 0.010-0.28-0.010-0.418-0.033-0.222-0.080-0.443-0.137-0.661-0.032-0.119-0.165-0.164-0.286-0.126-0.039 0.012-0.089 0.023-0.125 0.009-0.188-0.069-0.318 0.010-0.332 0.218-0.014 0.199-0.022 0.399-0.032 0.598-0.011 0.208-0.022 0.416-0.033 0.649-0.145-0.007-0.302 0.022-0.426-0.029-0.201-0.081-0.402-0.058-0.602-0.057-0.356 0-0.37 0.012-0.448-0.331-0.079-0.345-0.126-0.698-0.187-1.044 0.227-0.056 0.246-0.095 0.137-0.26-0.057-0.087-0.129-0.172-0.214-0.228-0.145-0.096-0.312-0.026-0.366 0.141-0.022 0.070-0.030 0.145-0.033 0.219-0.005 0.121 0.007 0.242-0.003 0.363-0.027 0.312 0.057 0.605 0.155 0.896 0.007 0.021 0.008 0.044 0.013 0.074-0.309 0.013-0.596-0.052-0.866-0.176-0.112-0.052-0.184-0.152-0.188-0.288-0.001-0.028-0.041-0.070-0.071-0.078-0.191-0.057-0.298-0.21-0.287-0.413 0.010-0.19 0.022-0.38 0.018-0.57-0.005-0.201-0.064-0.306-0.221-0.332-0.152-0.026-0.261 0.044-0.334 0.228-0.097 0.245-0.19 0.493-0.281 0.739-0.035 0.094-0.078 0.165-0.198 0.158-0.037-0.003-0.079 0.033-0.117 0.057-0.054 0.034-0.101 0.084-0.159 0.107-0.168 0.070-0.27 0.010-0.327-0.161-0.080-0.24-0.173-0.477-0.259-0.716-0.129-0.358-0.248-0.72-0.246-1.105 0.003-0.508 0.046-1.019 0.026-1.527-0.015-0.405-0.181-0.78-0.381-1.134-0.002-0.004-0.004-0.009-0.008-0.011-0.235-0.155-0.202-0.426-0.288-0.646-0.078-0.201-0.185-0.392-0.268-0.592-0.033-0.077-0.040-0.166-0.059-0.25-0.009-0.038-0.006-0.087-0.028-0.114-0.215-0.269-0.457-0.506-0.772-0.665-0.171-0.086-0.321-0.215-0.488-0.312-0.069-0.041-0.158-0.069-0.237-0.069-0.397-0.004-0.796-0.060-1.186 0.079-0.097 0.034-0.212 0.015-0.318 0.032-0.149 0.023-0.299 0.049-0.445 0.088-0.076 0.020-0.111 0.010-0.132-0.068-0.114-0.444-0.346-0.826-0.636-1.176-0.36-0.436-0.718-0.874-1.077-1.309-0.093-0.111-0.154-0.228-0.14-0.379 0.010-0.12-0.005-0.242 0.003-0.362 0.029-0.408-0.087-0.788-0.219-1.166-0.032-0.093-0.033-0.201-0.031-0.301 0.005-0.19-0.068-0.344-0.154-0.509-0.077-0.151-0.118-0.338-0.112-0.507 0.007-0.199-0.066-0.347-0.172-0.498-0.064-0.090-0.12-0.187-0.176-0.281-0.123-0.204-0.115-0.438-0.132-0.662-0.021-0.278 0.122-0.496 0.318-0.682 0.152-0.144 0.304-0.287 0.448-0.437 0.177-0.184 0.245-0.415 0.281-0.664 0.032-0.223 0.069-0.446 0.126-0.664 0.045-0.175 0.024-0.339-0.057-0.486-0.115-0.21-0.252-0.41-0.389-0.607-0.047-0.068-0.066-0.115-0.038-0.2 0.041-0.121 0.062-0.251 0.074-0.378 0.005-0.050-0.040-0.101-0.054-0.154-0.032-0.124-0.101-0.256-0.080-0.371 0.106-0.578 0.101-1.163 0.141-1.745 0.052-0.738 0.197-1.47 0.288-2.206 0.064-0.52 0.181-1.026 0.369-1.51 0.107-0.276 0.292-0.525 0.45-0.78 0.232-0.378 0.468-0.755 0.71-1.128 0.195-0.301 0.395-0.599 0.606-0.89 0.208-0.287 0.418-0.573 0.652-0.837 0.426-0.481 0.892-0.924 1.489-1.188 0.387-0.172 0.792-0.302 1.184-0.465 0.329-0.138 0.646-0.303 0.973-0.444 0.153-0.066 0.313-0.115 0.474-0.155 0.455-0.112 0.913-0.21 1.367-0.325 0.398-0.101 0.802-0.134 1.208-0.169 0.191-0.017 0.377-0.082 0.566-0.122 0.232-0.048 0.462-0.12 0.696-0.132 0.546-0.029 1.096-0.053 1.641-0.032 0.404 0.014 0.805 0.104 1.208 0.158 0.11 0.014 0.221 0.025 0.332 0.027 0.362 0.004 0.725-0.003 1.087 0.007 0.227 0.006 0.456 0.017 0.676 0.062 0.27 0.056 0.532 0.137 0.775 0.281 0.229 0.135 0.48 0.23 0.721 0.345 0.14 0.067 0.277 0.14 0.416 0.21 0.152 0.075 0.304 0.149 0.456 0.225 0.157 0.078 0.313 0.157 0.47 0.234 0.114 0.058 0.23 0.113 0.345 0.171 0.231 0.114 0.467 0.218 0.69 0.345 0.453 0.261 0.86 0.58 1.193 0.987 0.165 0.2 0.321 0.407 0.48 0.611 0.017 0.022 0.031 0.052 0.054 0.063 0.421 0.196 0.553 0.629 0.795 0.97 0.091 0.128 0.164 0.27 0.232 0.411 0.033 0.068 0.071 0.166 0.046 0.224-0.102 0.233 0.028 0.428 0.095 0.623 0.127 0.363 0.306 0.707 0.433 1.070 0.172 0.493 0.33 0.993 0.467 1.496 0.067 0.247 0.066 0.511 0.109 0.766 0.031 0.181 0.070 0.364 0.132 0.537 0.126 0.353 0.197 0.712 0.212 1.086 0.011 0.253 0.022 0.504 0.063 0.758 0.053 0.331 0.031 0.675 0.038 1.013 0.003 0.158 0.008 0.315-0.003 0.472-0.033 0.483-0.073 0.967-0.11 1.45-0.014 0.185-0.068 0.375-0.035 0.55 0.043 0.226-0.003 0.416-0.091 0.612-0.014 0.032-0.018 0.073-0.015 0.109 0.021 0.259-0.030 0.505-0.101 0.754-0.041 0.145-0.066 0.299-0.069 0.451-0.011 0.525-0.019 1.050-0.010 1.574 0.002 0.167 0.051 0.335 0.092 0.499 0.056 0.214 0.11 0.431 0.193 0.636 0.061 0.152 0.158 0.29 0.253 0.425 0.121 0.172 0.124 0.198 0.001 0.362-0.189 0.253-0.396 0.496-0.552 0.768-0.118 0.205-0.246 0.369-0.433 0.522-0.226 0.185-0.37 0.465-0.581 0.671-0.351 0.342-0.715 0.672-1.095 0.982-0.303 0.247-0.631 0.467-0.959 0.682-0.090 0.060-0.214 0.077-0.327 0.090-0.272 0.028-0.514-0.055-0.712-0.246-0.080-0.079-0.161-0.124-0.271-0.062-0.020 0.011-0.045 0.012-0.068 0.013-0.203 0.009-0.294 0.123-0.345 0.315-0.059 0.222-0.164 0.431-0.239 0.649-0.135 0.391-0.331 0.76-0.31 1.199 0.015 0.321-0.057 0.645-0.060 0.969-0.003 0.422 0.030 0.843 0.035 1.265 0.001 0.128-0.025 0.259-0.060 0.382-0.086 0.308-0.18 0.613-0.278 0.918-0.048 0.149-0.109 0.297-0.169 0.442-0.052 0.125-0.179 0.226-0.365 0.296z"></path>
<path fill="#fff" d="M20.133 9.53c-0.094 0-0.16-0.008-0.224 0.001-0.245 0.036-0.415-0.089-0.568-0.256-0.027-0.030-0.058-0.064-0.094-0.077-0.405-0.153-0.804-0.703-0.737-1.12 0.051-0.318 0.001-0.644 0.089-0.945 0.069-0.241 0.199-0.489 0.366-0.674 0.264-0.292 0.582-0.528 0.979-0.637 0.757-0.208 1.561 0.083 2.003 0.738 0.438 0.648 0.4 1.513-0.082 2.134-0.275 0.355-0.644 0.548-1.064 0.668-0.044 0.012-0.103 0.022-0.125 0.053-0.105 0.151-0.262 0.114-0.405 0.123-0.056 0.004-0.111-0.005-0.138-0.007z"></path>
<path fill="#fff" d="M14.803 7.368c0 0.051-0.005 0.103 0.001 0.153 0.041 0.354-0.13 0.612-0.366 0.844-0.013 0.012-0.027 0.026-0.039 0.040-0.221 0.261-0.48 0.403-0.844 0.376-0.243-0.019-0.492 0.055-0.739 0.075-0.343 0.029-0.601-0.134-0.813-0.388-0.16-0.191-0.323-0.378-0.479-0.571-0.141-0.172-0.197-0.372-0.184-0.595 0.009-0.148-0.010-0.299 0.009-0.444 0.067-0.53 0.345-0.941 0.758-1.262 0.346-0.27 0.751-0.389 1.188-0.342 0.631 0.068 1.003 0.47 1.251 1.018 0.038 0.083 0.071 0.172 0.122 0.247 0.107 0.157 0.129 0.333 0.135 0.514 0.004 0.111 0.001 0.223 0.001 0.334z"></path>
<path fill="#fff" d="M18.038 13.147c0.043 0.729-0.496 1.374-1.053 1.594-0.698 0.275-1.32 0.142-1.905-0.331-0.376-0.304-0.461-0.718-0.592-1.136-0.096-0.306 0.020-0.537 0.132-0.789 0.067-0.147 0.133-0.297 0.184-0.45 0.061-0.185 0.2-0.271 0.368-0.323 0.454-0.141 0.905-0.266 1.393-0.233 0.259 0.018 0.522 0.017 0.764 0.102 0.115 0.041 0.22 0.168 0.287 0.28 0.116 0.198 0.215 0.409 0.293 0.626 0.075 0.209 0.113 0.433 0.167 0.649-0.012 0.003-0.025 0.006-0.037 0.009z"></path>
</svg>
