<!-- Generated by IcoMoon.io -->
<svg version="1.1" xmlns="http://www.w3.org/2000/svg" width="32" height="32" viewBox="0 0 32 32">
<title>bladeborn-ylthari</title>
<path d="M14.554 1.352c-0.084 0.279-0.143 0.602-0.163 0.938l-0.001 0.011c0.020 0.711 0.076 1.388 0.167 2.054l-0.011-0.097c0.077 0.623-0.116 0.91-0.725 1.037-2.888 0.558-5.312 2.213-6.866 4.505l-0.024 0.038c-1.024 1.457-1.684 3.238-1.811 5.164l-0.002 0.031c-0.025 0.272-0.040 0.589-0.040 0.909 0 1.7 0.404 3.306 1.122 4.728l-0.027-0.060c1.288 2.719 3.636 4.761 6.498 5.612l0.074 0.020c0.374 0.109 0.842 0.211 1.32 0.285l0.066 0.009c0.251 0.016 0.448 0.223 0.448 0.477 0 0.034-0.004 0.067-0.010 0.098l0.001-0.003c-0.048 0.685-0.131 1.366-0.138 2.051 0 0.5 0.113 1 0.131 1.503-0.014 0.305-0.054 0.594-0.118 0.873l0.007-0.032c-0.123-0.246-0.261-0.489-0.363-0.725-0.25-0.602-0.446-1.232-0.747-1.812-0.163-0.267-0.416-0.466-0.716-0.556l-0.009-0.002c-1.853-0.454-3.445-1.41-5.002-2.461-0.123-0.091-0.277-0.146-0.445-0.146-0.015 0-0.029 0-0.043 0.001h0.002c-0.406 0.073-0.794 0.217-1.197 0.308-0.275 0.062-0.559 0.077-0.838 0.113 0.035-0.298 0.080-0.558 0.137-0.812l-0.010 0.050c0.069-0.258 0.188-0.5 0.265-0.754 0.048-0.14 0.077-0.302 0.077-0.471 0-0.329-0.107-0.634-0.29-0.88l0.003 0.004c-0.833-1.227-1.504-2.647-1.94-4.167l-0.025-0.105c-0.128-0.356-0.214-0.768-0.243-1.196l-0.001-0.013c0-0.547-0.341-0.696-0.725-0.87-0.621-0.271-1.237-0.554-1.853-0.841-0.156-0.073-0.305-0.174-0.454-0.261 0.146-0.133 0.309-0.253 0.483-0.355l0.014-0.008c0.656-0.279 1.323-0.525 1.984-0.797 0.306-0.11 0.525-0.389 0.544-0.723v-0.002c0.362-2 0.946-3.938 2.299-5.511 0.649-0.75 0.29-1.475 0.167-2.199-0.177-1.043-0.225-1.037 0.725-0.793 0.146 0.036 0.275 0.109 0.417 0.152 0.178 0.070 0.385 0.109 0.601 0.109 0.428 0 0.82-0.158 1.12-0.419l-0.002 0.002c1.2-0.915 2.632-1.595 4.189-1.939l0.072-0.014c0.393-0.046 0.706-0.34 0.778-0.719l0.001-0.006c0.26-0.73 0.54-1.348 0.864-1.937l-0.034 0.067c0.068-0.132 0.134-0.242 0.206-0.348l-0.007 0.011c0.042 0.104 0.082 0.234 0.115 0.366l0.005 0.022c0.001 0.029 0.001 0.062 0.001 0.096 0 0.138-0.009 0.272-0.025 0.405l0.002-0.016z"></path>
<path d="M17.147 28.87c0-0.486 0-0.968 0-1.449 0-0.844 0-0.92 0.834-1.022 1.915-0.231 3.453-1.191 4.885-2.38 1.944-1.609 3.029-3.707 3.536-6.159 0.122-0.602 0.19-1.293 0.19-2.002 0-1.642-0.372-3.196-1.038-4.584l0.027 0.064c-0.817-1.723-2.022-3.148-3.506-4.202l-0.033-0.023c-1.225-0.916-2.707-1.557-4.32-1.805l-0.054-0.007c-0.315-0.048-0.515-0.16-0.519-0.493 0-1.297 0-2.594 0-3.892 0.016-0.075 0.045-0.142 0.084-0.201l-0.001 0.002c0.073 0.054 0.174 0.094 0.206 0.162 0.257 0.478 0.502 1.043 0.702 1.63l0.023 0.080c0.104 0.48 0.492 0.848 0.977 0.92l0.007 0.001c1.774 0.344 3.264 1.254 4.675 2.297 0.188 0.16 0.434 0.257 0.702 0.257 0.166 0 0.324-0.037 0.465-0.104l-0.007 0.003c0.269-0.107 0.607-0.214 0.954-0.302l0.061-0.014c0.519-0.138 0.631-0.021 0.486 0.504-0.082 0.267-0.167 0.488-0.265 0.702l0.015-0.036c-0.13 0.223-0.207 0.49-0.207 0.776 0 0.459 0.198 0.872 0.514 1.157l0.001 0.001c0.471 0.598 0.844 1.3 1.076 2.063l0.012 0.046c0.363 0.964 0.602 1.974 0.903 2.96 0.138 0.453 0.294 0.833 0.871 0.979 0.722 0.238 1.338 0.507 1.923 0.827l-0.059-0.030c0.2 0.109 0.37 0.218 0.53 0.338l-0.012-0.007c-0.16 0.076-0.319 0.156-0.482 0.225-0.591 0.264-1.179 0.539-1.78 0.779-0.535 0.176-0.93 0.634-1.011 1.195l-0.001 0.008c-0.341 1.757-0.867 3.475-2.002 4.877-0.725 0.899-0.661 1.743-0.363 2.696 0.022 0.102 0.047 0.188 0.078 0.272l-0.005-0.014c0.175 0.362 0.225 0.572-0.337 0.398-0.616-0.196-1.298-0.454-1.893-0.362s-1.124 0.598-1.654 0.968c-0.907 0.579-1.958 1.043-3.079 1.335l-0.077 0.016c-0.514 0.085-0.923 0.459-1.057 0.947l-0.002 0.009c-0.2 0.627-0.438 1.166-0.723 1.675l0.023-0.045c-0.043 0.090-0.167 0.145-0.254 0.217-0.016-0.076-0.026-0.167-0.032-0.259v-0.006c0.007-0.663 0.011-1.316 0.011-1.989z"></path>
<path d="M21.064 12.036c-0.148-0.471-0.319-0.939-0.442-1.42-0.003-0.039-0.005-0.083-0.005-0.128 0-0.141 0.018-0.278 0.051-0.409l-0.003 0.012c0.137 0.094 0.337 0.156 0.398 0.283 0.217 0.442 0.384 0.91 0.577 1.366 0.037 0.085 0.075 0.157 0.116 0.225l-0.005-0.008c0.083-0.079 0.243-0.16 0.239-0.239 0.001-0.025 0.001-0.055 0.001-0.086 0-0.277-0.038-0.546-0.107-0.801l0.005 0.021c-0.163-0.537-0.384-1.054-0.555-1.591-0.002-0.025-0.003-0.054-0.003-0.084 0-0.127 0.021-0.249 0.060-0.363l-0.002 0.008c0.139 0.046 0.259 0.109 0.366 0.191l-0.003-0.002c0.164 0.164 0.299 0.357 0.398 0.571l0.005 0.012c0.588 1.405 1.23 2.844 0.196 4.297-0.423 0.591-0.92 1.094-1.487 1.509l-0.018 0.012c-0.834 0.591-1.77 1.033-2.64 1.572-1.128 0.704-1.911 2.536-1.64 3.827 0.073 0.201 0.181 0.372 0.32 0.516 0.508 0.677 0.508 0.725-0.152 1.181-0.025 0-0.058 0.018-0.083 0.033-0.301 0.167-0.661 0.525-0.892 0.46-0.454-0.185-0.839-0.454-1.151-0.791l-0.002-0.002c-0.056-0.091-0.090-0.202-0.090-0.32 0-0.102 0.025-0.199 0.070-0.285l-0.002 0.003c0.646-0.569 0.384-1.304 0.363-1.953-0.071-0.522-0.259-0.99-0.536-1.391l0.007 0.011c-0.652-1.087-1.777-1.616-2.861-2.174-0.566-0.278-1.054-0.591-1.502-0.95l0.016 0.012c-1.367-1.174-1.632-2.692-1.168-4.348 0.216-0.623 0.461-1.156 0.751-1.66l-0.025 0.048c0.050-0.102 0.239-0.134 0.363-0.196 0 0.131 0.084 0.275 0.048 0.384-0.164 0.614-0.359 1.14-0.595 1.643l0.025-0.060c-0.075 0.161-0.118 0.349-0.118 0.548 0 0.238 0.063 0.461 0.173 0.655l-0.004-0.007c0.033 0.087 0.145 0.145 0.225 0.214 0.059-0.080 0.113-0.173 0.159-0.27l0.004-0.010c0.185-0.522 0.363-1.054 0.552-1.572 0.044-0.108 0.229-0.162 0.363-0.243 0.005 0.067 0.007 0.144 0.007 0.223s-0.003 0.156-0.008 0.234l0.001-0.011c-0.109 0.725-0.457 1.37-0.221 2.174 0.261 0.884 1.005 1.21 1.64 1.674 0.083 0.062 0.363-0.033 0.471-0.137 0.484-0.509 0.955-1.038 1.415-1.587 0.119-0.113 0.194-0.272 0.194-0.448 0-0.238-0.135-0.444-0.332-0.546l-0.004-0.002c-0.561-0.448-0.929-1.115-0.976-1.87v-0.008c-0.006-0.048-0.009-0.105-0.009-0.162 0-0.12 0.014-0.237 0.040-0.349l-0.002 0.011c0.043-0.1 0.101-0.184 0.171-0.258 0.041 0.056 0.084 0.121 0.124 0.188l0.006 0.011c0.246 0.471 0.457 0.968 0.747 1.409 0.671 1.029 1.719 1.206 2.756 0.609 0.725-0.425 1.28-0.914 1.32-1.812 0-0.137 0.196-0.264 0.301-0.395 0.054 0.127 0.098 0.258 0.163 0.381 0.286 0.554 0 1.018-0.25 1.474-0.136 0.195-0.289 0.364-0.461 0.512l-0.004 0.003c-0.29 0.315-0.794 0.627-0.805 0.954s0.515 0.608 0.809 0.913c0.082 0.092 0.166 0.177 0.254 0.255l0.003 0.003c0.41 0.337 0.667 0.971 1.418 0.605s1.451-0.837 1.422-1.847c0-0.119 0-0.243 0-0.363zM17.731 14.837c-0.034-0.105-0.079-0.196-0.137-0.279l0.003 0.004c-0.468-0.424-0.928-0.862-1.43-1.247-0.127-0.097-0.288-0.155-0.463-0.155-0.224 0-0.426 0.096-0.566 0.249l-0.001 0.001c-0.417 0.363-0.809 0.779-1.226 1.152-0.305 0.271-0.254 0.496 0.033 0.725 0.388 0.323 0.761 0.66 1.161 0.968s0.802 0.464 1.236-0.036c0.341-0.334 0.705-0.651 1.085-0.947l0.028-0.021c0.105-0.12 0.198-0.255 0.27-0.402l0.005-0.011z"></path>
</svg>
