<!-- Generated by IcoMoon.io -->
<svg version="1.1" xmlns="http://www.w3.org/2000/svg" width="32" height="32" viewBox="0 0 32 32">
<title>bladeborn-spiteclaw</title>
<path d="M17.188 29.123c0-0.608 0-1.213 0-1.82 0-0.787-0.069-0.648 0.667-0.83 0.759-0.172 1.415-0.385 2.044-0.649l-0.080 0.030c1.829-0.778 3.365-1.934 4.566-3.378l0.015-0.019c1.072-1.315 1.542-2.833 2.034-4.369 0.030-0.141 0.047-0.303 0.047-0.47 0-0.091-0.005-0.181-0.016-0.269l0.001 0.011c0-0.729-0.025-1.456 0-2.184 0.073-1.555-0.441-2.942-1.094-4.304-0.817-1.619-1.995-2.95-3.434-3.925l-0.036-0.023c-0.854-0.629-1.862-1.106-2.954-1.369l-0.056-0.012c-0.495-0.102-0.98-0.255-1.457-0.393-0.28-0.077-0.23-0.325-0.23-0.524 0-1.060 0-2.122 0-3.182 0-0.24 0-0.484 0-0.729 0.021-0.086 0.055-0.161 0.1-0.229l-0.002 0.003c0.068 0.054 0.125 0.116 0.173 0.186l0.002 0.003c0.279 0.513 0.561 1.131 0.8 1.769l0.035 0.105c0.091 0.321 0.33 0.571 0.638 0.675l0.007 0.002c0.257 0.132 0.562 0.255 0.878 0.353l0.041 0.011c1.499 0.409 2.804 1.093 3.919 2l-0.020-0.016c0.233 0.182 0.53 0.293 0.854 0.293 0.139 0 0.273-0.020 0.399-0.058l-0.009 0.003c0.292-0.054 0.582-0.124 0.878-0.175 0.86-0.16 0.853-0.164 0.601 0.729-0.122 0.37-0.225 0.813-0.29 1.267l-0.005 0.044c-0.001 0.017-0.002 0.037-0.002 0.057 0 0.225 0.073 0.432 0.197 0.601l-0.002-0.003c0.95 1.197 1.648 2.637 1.985 4.21l0.012 0.068c0.091 0.466 0.241 0.925 0.364 1.387 0.084 0.359 0.345 0.643 0.686 0.756l0.008 0.002 2.257 0.911c0.080 0.033 0.153 0.080 0.234 0.12-0.077 0.088-0.131 0.222-0.226 0.262-0.729 0.328-1.48 0.634-2.224 0.946-0.418 0.142-0.725 0.504-0.782 0.945l-0.001 0.006c-0.3 1.674-0.854 3.171-1.625 4.526l0.037-0.070c-0.295 0.488-0.645 0.94-0.926 1.431-0.082 0.154-0.129 0.336-0.129 0.529 0 0.050 0.003 0.099 0.009 0.146l-0.001-0.006c0.069 0.47 0.211 0.932 0.306 1.398 0.113 0.568 0.073 0.637-0.499 0.553-0.412-0.082-0.779-0.209-1.12-0.376l0.026 0.012c-0.122-0.062-0.266-0.099-0.419-0.099-0.243 0-0.465 0.093-0.632 0.245l0.001-0.001c-1.094 0.779-2.223 1.547-3.539 1.945-0.427 0.13-0.86 0.236-1.283 0.364-0.286 0.096-0.502 0.329-0.571 0.62l-0.001 0.006c-0.234 0.706-0.572 1.377-0.871 2.061-0.043 0.078-0.092 0.147-0.146 0.208l0.001-0.001c-0.043-0.069-0.077-0.149-0.097-0.234l-0.001-0.006c0-0.696 0-1.394 0-2.090z"></path>
<path d="M14.527 2.769c0 0.638 0 1.274 0 1.911 0 0.325-0.113 0.455-0.456 0.528-0.7 0.149-1.381 0.364-2.066 0.59-0.87 0.308-1.622 0.723-2.293 1.238l0.020-0.015c-1.17 0.817-2.147 1.822-2.908 2.981l-0.025 0.042c-1.107 1.638-1.767 3.657-1.767 5.83 0 0.455 0.029 0.904 0.085 1.345l-0.006-0.052c0.167 1.425 0.619 2.716 1.296 3.857l-0.024-0.045c0.552 0.982 1.19 1.828 1.923 2.58l-0.003-0.003c1.208 1.232 2.718 2.165 4.409 2.682l0.074 0.020c0.358 0.109 0.8 0.21 1.252 0.28l0.057 0.008c0.364 0.048 0.438 0.248 0.434 0.557 0 0.729-0.022 1.456 0 2.185 0.018 0.505 0.105 1.008 0.153 1.515 0.010 0.082 0.014 0.175 0.014 0.271s-0.006 0.19-0.016 0.283l0.001-0.012c0 0.062-0.113 0.124-0.186 0.153s-0.131-0.025-0.153-0.062c-0.146-0.295-0.295-0.59-0.423-0.896-0.16-0.386-0.306-0.779-0.452-1.172-0.185-0.512-0.618-0.891-1.149-1l-0.010-0.002c-1.514-0.388-2.838-1.036-3.991-1.9l0.029 0.021c-0.069-0.054-0.193-0.062-0.234-0.128-0.491-0.75-1.144-0.594-1.822-0.335l-0.842 0.321c-0.342 0.131-0.525 0-0.445-0.364 0.077-0.354 0.19-0.664 0.336-0.956l-0.011 0.024c0.127-0.225 0.203-0.494 0.203-0.781 0-0.409-0.153-0.783-0.404-1.067l0.002 0.002c-0.732-1.011-1.329-2.182-1.729-3.441l-0.024-0.087c-0.179-0.532-0.309-1.151-0.363-1.791l-0.002-0.030c-0.003-0.341-0.228-0.629-0.537-0.727l-0.006-0.002c-0.474-0.193-0.937-0.408-1.411-0.605-0.080-0.037-0.193 0-0.262-0.058-0.27-0.182-0.528-0.364-0.791-0.579 0.266-0.149 0.521-0.313 0.794-0.445 0.598-0.284 1.205-0.557 1.822-0.82 0.228-0.079 0.389-0.293 0.389-0.545 0-0.001 0-0.001 0-0.002 0.134-1.407 0.525-2.697 1.125-3.861l-0.028 0.059c0.375-0.725 0.772-1.346 1.218-1.928l-0.022 0.030c0.288-0.412 0.529-0.768 0.299-1.318-0.133-0.377-0.259-0.842-0.353-1.32l-0.012-0.068c-0.087-0.317 0.091-0.397 0.325-0.364 0.33 0.057 0.622 0.138 0.9 0.244l-0.033-0.011c0.222 0.087 0.479 0.139 0.748 0.139 0.506 0 0.971-0.18 1.332-0.48l-0.004 0.003c0.941-0.673 1.925-1.333 3.113-1.565 0.516-0.143 0.961-0.316 1.384-0.529l-0.043 0.019c0.521-0.211 0.448-0.808 0.729-1.168 0.062-0.080 0-0.251 0.062-0.364 0.211-0.364 0.448-0.729 0.674-1.093 0.025 0.389 0.062 0.776 0.077 1.165s0 0.729 0 1.093z"></path>
<path d="M11.24 9.257c1.17 0.039 1.17 0.039 1.546 1.125 0.251 0.729 0.251 0.729 0.999 0.729 1.458 0 2.915 0 4.373 0 0.729 0 0.729 0 0.941-0.685 0.365-1.136 0.365-1.136 1.586-1.133 0.215 0 0.427 0 0.638 0s0.266 0.077 0.16 0.284c-0.158 0.288-0.32 0.636-0.46 0.997l-0.021 0.063c-0.135 0.364 0 0.51 0.364 0.459 0.323-0.068 0.718-0.123 1.118-0.154l0.033-0.002c0.364 0 0.445 0.139 0.266 0.433-0.234 0.386-0.51 0.747-0.729 1.143-0.164 0.317-0.404 0.321-0.682 0.273-0.224-0.062-0.491-0.113-0.766-0.141l-0.021-0.002c-0.016-0.001-0.035-0.002-0.054-0.002-0.349 0-0.646 0.224-0.756 0.535l-0.002 0.006c-0.75 1.562-1.531 3.116-2.394 4.617-0.529 0.913-0.048 1.526 0.394 2.207 0 0.018 0.058 0.018 0.080 0.040 0.638 0.677 0.63 0.67 0 1.34-0.324 0.364-0.609 0.729-0.937 1.093-0.182 0.193-0.364 0.186-0.448-0.135s-0.12-0.644-0.197-0.965c-0.048-0.186-0.111-0.348-0.192-0.501l0.005 0.012c-0.037-0.073-0.135-0.116-0.207-0.171-0.049 0.061-0.093 0.13-0.128 0.204l-0.003 0.007c-0.109 0.342-0.193 0.688-0.309 1.027-0.179 0.52-0.292 0.553-0.649 0.164s-0.692-0.83-1.057-1.23c-0.215-0.233-0.168-0.404 0.029-0.619 0.277-0.313 0.532-0.648 0.791-0.976 0.445-0.564 0.273-1.157 0-1.704-0.638-1.348-1.334-2.669-1.979-4.005-0.277-0.579-0.529-0.969-1.334-0.791-1.359 0.298-1.778-0.648-2.125-1.57-0.073-0.197 0-0.284 0.189-0.287 0.423 0 0.85 0 1.272-0.022 0.128 0 0.328-0.073 0.365-0.16s-0.073-0.266-0.124-0.397c0-0.025-0.044-0.044-0.058-0.066l-0.58-0.899zM15.814 12.391v0.073c-0.423 0-0.845 0-1.268 0-0.499 0.025-0.59 0.174-0.386 0.608 0.504 1.093 1.010 2.163 1.531 3.241 0.044 0.095 0.201 0.222 0.259 0.2 0.136-0.050 0.244-0.145 0.312-0.266l0.002-0.003c0.532-1.034 1.043-2.079 1.567-3.116 0.143-0.284 0.116-0.459-0.23-0.503z"></path>
</svg>
