<!-- Generated by IcoMoon.io -->
<svg version="1.1" xmlns="http://www.w3.org/2000/svg" width="512" height="512" viewBox="0 0 512 512">
<title>monsters-of-order</title>
<g id="icomoon-ignore">
</g>
<path d="M273.904 464.112c0-9.616 0-19.264 0-28.944 0-5.264 0-8.336 7.248-9.376 21.44-3.664 40.624-10.672 57.984-20.608l-0.848 0.448c6.768-3.296 12.592-7.152 17.84-11.664l-0.112 0.096c17.376-16.144 35.344-32 46.64-53.888 7.824-15.216 16.048-30.608 17.376-47.52 1.248-11.408 1.968-24.656 1.968-38.032 0-11.936-0.576-23.744-1.68-35.392l0.112 1.488c-2.976-20.208-10.384-38.272-21.184-53.776l0.256 0.4c-12.8-19.152-26.832-37.792-47.744-50.352-14.544-8.736-27.808-19.392-44.832-23.504-9.088-2.144-17.968-5.776-27.056-7.52-4-0.864-5.776-1.904-5.776-6.144 0-22.624 0-45.312 0-67.952 0.272-1.456 0.784-2.752 1.472-3.936l-0.032 0.064c0.704 0.96 1.376 2.064 1.968 3.232l0.064 0.144c4.912 12.144 9.616 24.368 14.704 36.464 1.808 4.464 5.712 7.744 10.464 8.608l0.096 0.016c10.032 2.48 18.496 5.296 26.688 8.688l-1.248-0.464c18.88 6.896 35.2 16.176 49.648 27.696l-0.352-0.256c7.888 6.592 15.008 5.776 23.184 3.536 6.432-1.504 12.736-3.36 19.168-4.576 3.248-0.576 5.792 0.8 4.464 4.912-2.432 8.576-5.104 17.36-7.184 25.808-0.528 1.504-0.832 3.232-0.832 5.024 0 3.664 1.264 7.056 3.408 9.696l-0.032-0.032c12.768 16.416 22.8 35.712 28.944 56.656l0.32 1.232c3.376 10.88 4.976 22 7.76 32.88 0.928 5.248 4.64 9.456 9.52 11.088l0.096 0.032c12.288 4.736 24.496 9.712 36.784 14.576 2.72 1.104 2.256 2.672 0.576 4.048-7.968 5.568-17.12 10.24-26.912 13.6l-0.768 0.224c-3.936 1.632-7.712 3.712-11.584 5.040-5.344 1.744-6.72 5.104-7.584 10.592-4.464 27.92-13.6 52.96-26.64 75.488l0.56-1.056c-4.672 8.016-9.456 14.912-14.672 21.392l0.24-0.32c-1.712 2-2.736 4.624-2.736 7.472 0 1.184 0.176 2.32 0.496 3.376l-0.016-0.080c1.44 6.368 3.648 12.608 5.040 18.992 0.528 3.424 0.848 7.424 0.928 11.504v0.080c-1.408 0.096-3.072 0.144-4.736 0.144-3.344 0-6.608-0.192-9.84-0.576l0.384 0.032c-5.52-1.216-10.416-2.944-14.976-5.216l0.368 0.176c-1.44-0.704-3.152-1.104-4.944-1.104-3.040 0-5.808 1.168-7.856 3.088-10.816 8.016-23.088 15.68-35.936 22.416l-1.552 0.752c-9.92 4.912-21.488 9.168-33.568 12.144l-1.2 0.256c-7.76 2.192-13.392 4.8-15.696 13.888-2.944 11.216-10.784 20.768-13.328 32.464 0 0.768-1.104 1.44-1.68 2.144-0.688-1.072-1.2-2.32-1.488-3.632l-0.016-0.080c0-12.080 0-24.128 0-36.176z"></path>
<path d="M231.264 46.656c0 10.592 0 21.184 0 31.776 0 4.288-1.392 5.776-5.792 7.712-11.584 5.104-24.624 5.376-36.608 10.176-14.064 6.336-26.128 13.36-37.36 21.44l0.64-0.432c-23.088 16.032-41.312 37.536-53.024 62.704l-0.4 0.96c-10.384 20.208-16.976 43.92-18.224 69.040l-0.016 0.4c-0.032 1.168-0.048 2.512-0.048 3.872 0 23.632 4.72 46.176 13.264 66.736l-0.416-1.152c7.856 20.864 19.344 38.72 33.872 53.632l-0.032-0.032c16.544 17.088 36.032 31.168 57.712 41.44l1.216 0.512c7.824 3.776 16.896 6.592 26.416 7.984l0.512 0.064c18.368 2.672 18.416 2.544 18.416 20.368s0 35.648 0 53.408c-0.224 1.488-0.688 2.832-1.312 4.064l0.032-0.080c-0.88-0.912-1.664-1.936-2.32-3.056l-0.048-0.080c-4.848-8.384-9.376-18.176-12.992-28.368l-0.384-1.248c-1.472-6.048-6.128-10.704-12.064-12.176l-0.112-0.032c-8.4-3.072-17.024-5.104-25.488-8.336-20.576-7.68-38.272-18.432-53.536-31.872l0.192 0.16c-1.696-1.968-4.192-3.2-6.976-3.2-1.696 0-3.296 0.464-4.656 1.264l0.048-0.032c-8.16 3.536-16.912 5.776-25.424 8.576-4.816 1.504-7.296-0.752-5.792-5.776 1.904-6.304 4.176-12.512 6.416-18.752 1.152-2.56 1.792-5.536 1.792-8.656 0-4.752-1.52-9.136-4.112-12.72l0.048 0.064c-13.648-19.344-24.368-41.888-30.88-66.176l-0.352-1.488c-1.84-8.208-3.712-16.496-4.976-24.832-0.352-3.856-2.976-7.008-6.528-8.080l-0.064-0.016c-13.264-5.776-26.24-12.272-39.28-18.576-1.104-0.576-1.68-2.256-2.496-3.408l3.248-1.568c13.088-5.376 26.224-10.592 39.216-16.208 2.208-0.928 5.104-3.6 5.216-5.792 1.168-22.624 9.216-43.28 17.904-63.664 5.072-11.040 11.008-20.544 17.936-29.216l-0.224 0.288c5.792-7.648 9.728-13.952 5.792-24.432-2.32-6.304-3.008-13.712-5.28-20.432-1.408-4.176 0.576-6.368 4.8-5.776 9.856 1.408 18.64 3.536 27.072 6.384l-1.056-0.32c1.6 0.64 3.456 1.008 5.392 1.008 3.856 0 7.344-1.456 9.968-3.856l-0.016 0.016c12.512-7.648 24.688-15.92 37.712-22.512 8.768-4.464 18.96-8.176 29.616-10.656l0.912-0.176c13.664-3.168 16.8-13.648 20.448-24.608 2.432-7.12 5.792-13.952 8.864-20.832 0-0.688 1.28-1.168 1.904-1.744 0.464 0.864 1.216 1.68 1.216 2.544 0 11.056 0 22.112 0 33.216z"></path>
<path d="M237.008 171.488c0 5.776 0.928 8.848 0 10.544-6.208 9.024 0.688 15.168 4.736 21.536 2.144 3.408 6.848 8.224 9.392 7.712 5.28-1.040 2.608-7.184 2.544-10.944-0.048-0.608-0.096-1.312-0.096-2.032 0-6.816 2.816-12.992 7.328-17.408 5.44-5.264 8.752-10.816 4.8-18.816-0.8-1.632 0.928-5.44 2.672-7.008 0.592-0.192 1.264-0.288 1.952-0.288 1.664 0 3.168 0.624 4.32 1.648 3.136 4.8 10.608 4.976 11.6 11.584s-4.176 9.152-7.296 13.248c-4.688 5.28-7.552 12.272-7.552 19.936 0 4.8 1.12 9.328 3.12 13.344l-0.080-0.176c0.4 0.864 0.752 1.808 1.104 2.672 1.104-0.768 2.544-1.328 3.136-2.32 1.408-2.48 2.832-5.456 4.048-8.528l0.192-0.512c1.84-5.472 6.464-9.552 12.112-10.624l0.096-0.016c8.832-1.312 15.952-7.44 18.656-15.584l0.048-0.176c2.208-5.776 4.4-3.168 6.608-0.528s2.944 4.8 4.576 7.12c1.184 1.376 1.888 3.168 1.888 5.136 0 3.168-1.856 5.904-4.56 7.168l-0.048 0.016c-5.792 3.36-9.792 8.8-17.376 9.136-5.52 0.336-9.872 4.768-10.080 10.272v0.016c0 0.928 0 1.904 0 2.896-0.576 3.536-2.832 9.552-1.68 10.256 5.152 3.232 6.368-3.472 9.792-5.344 5.456-2.896 10.544-6.368 17.376-3.472 2.288 1.2 5.024 1.904 7.92 1.904 6.544 0 12.24-3.616 15.2-8.944l0.048-0.096c2.496-3.808 4.512-0.336 5.040 1.040 4.048 11.856 0 25.168-15.056 23.152-1.392 0-3.136 0.464-4.288 0-14.544-7.344-20.112 4.976-27.808 12.56-0.464 0.464 0 1.744 0 2.608 0.32 0.032 0.72 0.048 1.104 0.048s0.768-0.016 1.152-0.048h-0.048c1.008-0.224 1.888-0.576 2.72-1.008l-0.064 0.032c10.96-5.776 20.336 0 28.56 5.776 4 2.544 5.792 3.472 9.392 1.104 1.616-1.504 3.536-2.704 5.68-3.44l0.112-0.032c0.096 0 0.192 0 0.288 0 2.304 0 4.368 0.96 5.856 2.496 0.72 1.072 1.152 2.4 1.152 3.824 0 0.816-0.144 1.632-0.4 2.352l0.016-0.048c-1.856 3.6-3.888 6.72-6.224 9.6l0.080-0.096c-1.952 3.376-5.52 5.616-9.632 5.616-2.672 0-5.104-0.944-7.008-2.512l0.016 0.016c-1.968-1.392-3.36-3.536-5.28-4.912-3.488-2.592-7.888-4.144-12.64-4.144-6.256 0-11.888 2.688-15.776 6.96l-0.016 0.016c-0.592 0.688-1.152 1.44-1.648 2.256l-0.048 0.080c0.96 0.56 2.096 0.992 3.264 1.248l0.080 0.016c8.624 0.288 13.44 5.776 17.728 12.272 5.392 7.936 10.432 16.16 21.376 17.36 0.8 0 2.368 3.648 1.968 4.176-2.848 3.872-6.256 7.168-10.112 9.808l-0.144 0.096c-1.504 0.56-3.232 0.896-5.040 0.896-5.744 0-10.704-3.296-13.12-8.112l-0.032-0.080c-1.184-3.824-2.32-6.896-3.6-9.888l0.256 0.64c-1.92-3.136-4.4-7.168-7.488-8.112-5.92-1.568-13.024-2.832-20.272-3.552l-0.576-0.048c-0.064 0.32-0.096 0.72-0.096 1.104s0.032 0.768 0.096 1.152v-0.048c0 0 0.976 0 1.264 0.464 7.488 8.448 12.976 17.36 10.496 29.52-1.44 7.008 4.4 10.016 7.888 14.416 1.504 1.904 3.136 5.44 2.304 7.072-1.632 2.16-4.064 3.616-6.832 3.936h-0.048c-13.024 1.84-18.304-3.072-18.544-16.56 0-1.968 0-3.872 0-5.776 0-0.224 0.016-0.512 0.016-0.8 0-11.168-7.2-20.656-17.2-24.080l-0.192-0.048c-0.864-0.336-4.112 2.608-3.936 3.072 4.688 11.584 0.704 21.472-4.752 31.2-1.504 1.824-2.4 4.192-2.4 6.768 0 2.96 1.2 5.664 3.168 7.6 4.176 4.176 0 6.144-2.608 7.12-7.248 2.432-11.584-2.496-15.808-7.28-1.808-2.416-2.896-5.472-2.896-8.768 0-2.672 0.72-5.168 1.952-7.328l-0.032 0.080c0.704-1.2 2.144-2.032 2.832-3.296 2.32-4 6.72-8.448 5.792-12.080-1.92-7.376-4.688-13.856-8.24-19.792l0.192 0.336c0 0-3.6 0.768-3.648 1.328-0.928 11.92-8.848 18.064-18.080 23.84-5.68 2.72-9.536 8.416-9.536 15.024 0 1.056 0.096 2.080 0.272 3.088l-0.016-0.112c0.4 2.304-1.104 2.896-3.536 2.144-6.592-2.032-11.344-7.952-11.584-15.024v-0.032c-0.928-5.776 0-11.568 7.344-13.536 1.68-0.464 2.784-3.248 4.4-3.536 13.152-2.432 13.44-12.672 14.080-22.624-0.224-2.432-0.768-4.656-1.568-6.768l0.064 0.176c-1.632 1.344-3.088 2.784-4.432 4.352l-0.048 0.048c-2.88 4.16-7.616 6.832-12.992 6.832-0.656 0-1.328-0.048-1.968-0.128h0.080c-9.264-0.64-18.176 0-23.168 10.176-1.408 1.616-3.456 2.624-5.76 2.624-0.48 0-0.96-0.048-1.408-0.128h0.048c-1.904-0.864-3.072-4.464-3.648-7.072-0.192-1.312-0.32-2.8-0.32-4.32s0.112-3.024 0.32-4.48l-0.016 0.176c0-0.048 0-0.096 0-0.144 0-6.72 5.44-12.16 12.16-12.16 0.256 0 0.48 0 0.736 0.016h-0.032c0.656-0.096 1.408-0.16 2.176-0.16s1.52 0.064 2.256 0.16l-0.080-0.016c13.44 3.312 20.112-6.416 27.456-14.464 3.36-3.6 1.568-7.936-3.072-7.872-10.128 0-19.872 0-28.16-7.648-2.208-2.032-7.36-0.928-11.184-1.168s-6.72 0-10.080 0c-3.36 0-4.448-2.368-2.896-4.864 3.376-5.136 6.752-9.568 10.4-13.76l-0.144 0.16c1.216-1.472 3.040-2.416 5.072-2.416 1.52 0 2.912 0.512 4.032 1.376l-0.016-0.016c3.616 2.128 6.704 4.224 9.632 6.512l-0.192-0.144c6.544 5.28 12.928 9.712 21.856 4.4 3.104-1.28 6.736-2.288 10.496-2.864l0.256-0.032c1.856-0.576 5.792-0.8 0.464-3.008-2.944-1.216-5.28-4-8.224-5.44-6.816-3.28-11.936-9.152-14.192-16.304l-0.048-0.176c-1.856-7.072-8.032-12.256-15.488-12.624h-0.048c-5.040-0.336-5.776-2.896-2.432-6.608 3.072-3.6 7.632-5.872 12.704-5.872 5.44 0 10.288 2.592 13.328 6.624l0.032 0.048c2 2.928 3.696 6.32 4.912 9.888l0.096 0.288c3.936 11.568 14.656 12.208 23.92 15.056 0.64 0 2.72-2.832 3.376-4.64 0.336-0.928-0.8-2.72-1.744-3.632-7.712-7.52-12.16-15.232-7.072-26.688 2.832-6.368-1.168-13.024-5.792-18.16-3.248-3.536-0.288-5.776 2.080-6.304 1.84-0.848 4-1.376 6.272-1.376 3.808 0 7.312 1.408 9.968 3.744l-0.016-0.016c1.792 1.904 3.136 4.256 3.92 6.816l0.032 0.128z"></path>
</svg>
