<!-- Generated by IcoMoon.io -->
<svg version="1.1" xmlns="http://www.w3.org/2000/svg" width="512" height="512" viewBox="0 0 512 512">
<title>monsters-of-order</title>
<g id="icomoon-ignore">
</g>
<path d="M230.208 45.008c0 10.176 0 20.352 0 30.528 0 5.808-1.328 10.224-8.496 10.72-19.264 1.328-36.048 10.528-53.152 18.080-9.264 4.528-17.184 10.256-23.984 17.104-15.024 14.192-30.464 28.096-41.056 46.528-14.176 22.64-23.264 49.792-25.072 78.912l-0.032 0.496c-0.128 2.528-0.208 5.488-0.208 8.464 0 26.752 5.92 52.128 16.496 74.88l-0.464-1.104c11.12 25.552 28.176 46.752 49.536 62.464l0.416 0.288c15.088 10.816 29.856 22 47.856 27.52 7.888 2.704 17.664 5.264 27.696 7.168l1.408 0.224c6.64 1.056 9.2 3.712 9.136 10.224 0 20.816 0 41.648 0 62.464 0 1.52-1.456 2.96-2.256 4.416-0.8-1.232-1.616-2.688-2.368-4.208l-0.128-0.272c-4.88-14.144-10.24-26.112-16.48-37.52l0.624 1.28c-3.424-5.408-12.448-8.736-19.568-10.288-24.592-6.592-46.016-17.632-64.384-32.32l0.336 0.256c-7.168-5.168-12.4-7.44-20.672-3.84-5.52 2.448-12.512 1.568-18 4.080-9.024 4.192-7.504-1.68-6.976-6.336 0.304-4.528 1.44-8.72 3.296-12.528l-0.096 0.192c7.44-12.8 2.16-23.264-4.944-33.792-16.112-22.512-27.024-49.808-30.448-79.36l-0.080-0.784c-1.232-11.168-9.776-12.736-17.472-16.352-8.912-4.256-17.808-8.368-26.608-12.848-3.488-1.76-6.8-4.080 0-6.8 8.8-3.616 17.472-7.968 26.256-11.28 10.432-3.856 16.832-8.496 18.336-21.76 3.92-26.464 13.136-50.16 26.56-70.912l-0.416 0.688c4.352-7.392 10.064-13.968 14.32-21.408 0.704-1.728 1.104-3.744 1.104-5.856 0-1.6-0.224-3.152-0.656-4.608l0.032 0.112c-1.856-8.32-4.32-16.464-6.736-24.608-1.792-5.808 1.456-6.64 5.824-5.808 4.032 0.464 7.712 1.488 11.12 3.008l-0.224-0.096c15.248 8.144 27.536 2.496 40.352-6.4 18.048-12.512 37.088-23.264 59.632-26.352 6.72-0.768 12.096-5.648 13.6-12.048l0.016-0.112c3.376-11.344 8.096-22.336 12.464-33.392 0.592-1.456 2.16-2.496 3.312-3.776 0.688 1.408 1.2 3.072 1.44 4.784l0.016 0.096c-0.176 10.288-0.224 20.944-0.224 31.76z"></path>
<path d="M274.24 472.368c0-12.736 0.768-25.488-0.352-38.096-0.528-5.808 0.992-6.512 5.36-7.088 23.984-3.072 45.568-11.328 64.256-23.632l-0.576 0.352c21.264-13.488 38.928-30.704 52.48-50.896l0.4-0.64c9.776-14.832 17.744-31.968 22.96-50.288l0.32-1.312c2.144-10.8 3.632-23.52 4.128-36.464l0.016-0.464c0.48-4.512 0.768-9.744 0.768-15.056 0-24.512-5.904-47.632-16.352-68.048l0.384 0.864c-12.352-25.328-29.76-46.464-51.056-62.752l-0.416-0.304c-21.104-16.272-46.768-27.68-74.752-32.096l-0.944-0.128c-5.12-0.816-6.176-2.848-6.464-7.328-0.704-11.984-2.16-23.856-2.736-35.776-0.464-9.712 0-19.376 0-29.072 0.352-1.808 1.008-3.408 1.888-4.832l-0.032 0.064c1.232 1.232 2.912 2.208 3.552 3.664 5.008 8.544 9.52 18.448 13.008 28.816l0.336 1.136c2.384 10 8.8 12.112 16.544 14.896 17.888 6.048 32.352 11.952 46.384 18.576l-2.672-1.136c10.288 5.232 19.168 11.424 27.040 18.624l-0.096-0.080c3.68 3.2 8.512 5.152 13.824 5.152 2.736 0 5.36-0.528 7.76-1.472l-0.144 0.048c8.096-2.096 16.144-4.352 24.16-6.576-0.544 8.336-2.112 16.144-4.608 23.504l0.192-0.64c-6.416 13.44 0.864 23.264 7.216 32.928 14.928 21.2 25.056 46.8 28.288 74.512l0.080 0.768c0.192 7.904 5.392 14.544 12.576 16.832l0.112 0.032c10.368 3.488 20.432 7.904 30.464 12.272 3.488 1.808 6.48 3.744 9.28 5.92l-0.144-0.112c-3.024 1.328-5.824 2.688-9.024 3.888-10 4.080-20.432 7.44-30 12.448-5.648 2.32-9.856 7.12-11.264 13.024l-0.032 0.128c-4.832 20.704-7.744 42.288-19.392 60.96-6.976 11.232-13.216 22.976-20.672 33.856-2.368 2.8-3.808 6.48-3.808 10.464 0 1.84 0.304 3.632 0.88 5.28l-0.032-0.112c1.632 4.944 2.624 10.112 4.080 15.12 3.792 13.136 2.624 15.872-8.912 10.816-19.968-8.784-34.352-1.92-49.264 10-17.12 13.664-38.896 17.456-58.64 25.648-5.024 1.232-8.896 5.136-10.048 10.096l-0.016 0.096c-3.84 10.912-8.224 20.24-13.392 29.040l0.416-0.768c-0.592 1.232-1.344 2.384-1.984 3.552-0.496-1.392-0.88-3.024-1.104-4.72l-0.016-0.112c0-7.744 0-15.472 0-23.264z"></path>
<path d="M314.816 316.464c1.36 1.696 2.736 3.584 4.032 5.552l0.16 0.256c2.448 3.888 7.392 10.288 6.464 11.648-4.464 5.776-10.192 10.352-16.784 13.376l-0.272 0.112c-5.536 2.080-9.968-3.728-12.752-9.136s-5.824-11.648-9.6-17.456c-0.864-1.392-3.488-1.744-5.344-2.624 0.256 1.872 0.72 3.568 1.344 5.168l-0.048-0.16c4.192 8.096 8.096 16.288 12.928 23.904s-1.104 9.824-5.408 12.048c-1.456 0.8-3.184 1.28-5.024 1.28-4.352 0-8.096-2.656-9.68-6.448l-0.032-0.064c-0.448-2.16-0.96-3.984-1.616-5.776l0.096 0.288c-1.168-2.384-2.736-4.592-4.128-6.864-0.304 2.384-0.768 4.768-0.992 7.088s0 2.912 0 4.352c0 19.488 0 19.2-20.096 18.56-7.968 0-11.648-3.024-11.232-11.168s0-17.456 0-26.112l2.096-1.328-1.28-1.28-1.344 2.096c-0.832 5.568-1.968 10.464-3.456 15.184l0.192-0.72c-1.52 4.080-4.432 10.752-6.704 10.752-6.304-0.784-12-2.688-17.12-5.536l0.24 0.128c-0.592 0 0-4.256 0.768-5.808 2.032-4.32 4.944-8.192 6.752-12.512s3.616-10.592 5.344-15.872l-0.528 0.592 3.312-6.4-0.4 0.592 3.312-6.4-0.464 0.592 3.424-3.424-0.464 0.528c14.688-9.296 35.584-8.032 46.576 2.912l1.392 4.768c0.592-0.464 1.696-1.232 1.632-1.392-0.848-1.52-1.696-2.784-2.576-4.016l0.080 0.112c0.768-3.136 1.456-6.336 2.256-9.488 1.92-7.44-1.232-10.816-8.608-10.88l0.592 0.464c-7.808-9.264-6.4-9.488 4.080-14.656 15.424-7.68 25.616 0.4 36.576 8.144 5.472 3.84 10.768 7.968 15.888 12.336 3.888 3.248 10.192 6.8 10.432 10.592-0.64 7.312-2.48 14.032-5.344 20.208l0.16-0.368c0 0.592-4.080 0.816-5.824 0-4.416-2.448-8.496-5.408-12.752-8.192l-14.56-14.544-1.328-2.096-1.232 1.28 2.032 1.328 11.648 11.648zM291.536 293.2l1.328 2.032 1.232-1.28-2.032-1.28-1.328-2.096-1.232 1.28zM267.072 328.384c-0.464 0.752-1.28 1.52-1.28 2.256s0.768 1.568 1.232 2.384c0.464-0.768 1.28-1.52 1.28-2.256s-0.768-1.568-1.232-2.384z"></path>
<path d="M239.136 211.76c1.056 2.448 1.392 5.808 3.2 7.2 6.944 5.248 10.192 9.264-0.928 13.088-1.392 0.464-1.696 3.888-2.496 5.808l0.464-0.528c-5.36 6.576-10.432 13.504-16.304 19.6-1.312 0.864-2.944 1.392-4.704 1.392-1.232 0-2.4-0.256-3.44-0.72l0.064 0.016c-3.808-2.704-7.168-5.584-10.224-8.752l-0.016-0.032-1.328-2.096-1.232 1.28 2.032 1.328c2.96 15.008-5.824 22.736-17.472 28.576-3.808 2.224-7.040 4.48-10.128 6.944l0.176-0.144c-2.848-3.488-5.312-7.44-7.264-11.696l-0.144-0.336c-7.872-26.944-10.256-59.904 18.576-83.36 3.424-2.848 6.336-6.224 10.72-1.568-3.872 2.096-3.872 4.192 0 6.272l1.408 4.816c0.592-0.464 1.68-1.232 1.632-1.392-0.848-1.52-1.696-2.784-2.576-4.016l0.080 0.112v-5.28h14.544l-0.592-0.528 6.88 5.808 2.384-8.832-0.464 0.592 3.424-3.424-0.592 0.528c14.848-0.528 15.024-0.64 15.248-14.192 0-2.912 0-5.808 0-8.72 0-14.016 2.384-15.76 16.016-14.832 6.816 0.4 9.6 3.376 9.376 9.952 0 3.376 0 6.736 0 10.112 0 8.832-0.928 16.688 11.664 19.488 7.568 1.744 7.216 6.8 1.056 12.976-5.072 5.552-10.336 10.672-15.888 15.456l-0.224 0.192c-2.752 1.872-6.144 3.008-9.808 3.008-0.656 0-1.28-0.032-1.92-0.112h0.080c-3.92-1.056-7.328-2.688-10.352-4.832l0.096 0.064-8.736-8.72-5.824-2.912-1.328-2.096-1.232 1.28 2.032 1.328 5.824 2.912 5.824 5.808zM195.984 228.688v-8.256l2.32-9.424-1.92-0.352c-0.368 2.688-0.704 5.28-0.992 7.968-0.016 0.192-0.016 0.448-0.016 0.704s0.016 0.496 0.032 0.72v-0.032c-4.592 3.024-4.544 5.808 0 9.136-0.064 0.832-0.112 1.776-0.112 2.736s0.048 1.92 0.128 2.848l-0.016-0.128c0.512 1.712 1.152 3.2 1.92 4.592l-0.064-0.128c0.528-1.68 1.76-3.424 1.456-4.944-0.656-2.096-1.584-3.904-2.768-5.52l0.032 0.048zM237.552 228.064c-4.416-3.648-9.344-7.232-14.48-10.512l-0.608-0.368c-2.592-0.912-5.568-1.44-8.672-1.456 0.928 3.312 0.992 7.44 3.088 9.712 2.928 2.864 6.544 5.040 10.592 6.224l0.192 0.048c1.696 0.592 4.368-1.456 9.904-3.664z"></path>
<path d="M222.24 318.784c-4.944 7.344-10.064 14.544-14.784 22.048s-7.968 8.832-15.84 4.080l-4.784-3.024c-10.256-6.976-10.464-9.424-1.92-18.784 1.856-2.096 3.488-4.416 5.248-6.688l2.912-2.848 8.736-8.72c0.448 0.096 0.96 0.16 1.488 0.16 4.080 0 7.408-3.296 7.408-7.392 0-0.528-0.064-1.040-0.16-1.536l0.016 0.048 2.096-1.344-1.28-1.28-1.328 2.080-20.368 20.352c-3.312 1.296-6.128 2.72-8.784 4.368l0.224-0.128c-7.408 5.408-8.096 5.28-12-3.376s-2.848-15.296 5.824-21.584c10.768-7.856 21.552-15.696 32.544-23.264 2.976-2.032 7.344-4.592 10.128-3.84 8.080 2.848 14.864 5.872 21.376 9.36l-0.832-0.4-4.768 10.192 0.592-0.464c-11.056 3.952-11.648 4.944-5.248 13.040 0.816 1.424 1.456 3.088 1.84 4.832l0.016 0.112 0.464-0.528-3.424 3.424 0.464-0.592-3.312 6.4 0.4-0.592-3.312 6.4z"></path>
<path d="M303.472 246.544c11.664-11.344 7.168-25.056 5.824-38.4-0.256-1.984-0.384-4.272-0.384-6.592s0.144-4.624 0.416-6.864l-0.032 0.256c1.344-8.432 3.088-9.12 9.024-4.080 13.536 11.008 22.256 27.52 22.704 46.048v0.080c-0.272 14.608-2.592 28.576-6.688 41.776l0.272-1.056c-1.392 5.808-5.536 7.68-10.88 4.192-2.032-1.28-3.264-4.080-5.36-4.816-15.712-5.408-19.664-16.112-14.608-31.12z"></path>
<path d="M303.952 246.016c-3.072 3.424-6.368 6.512-9.92 9.296l-0.176 0.128c-2.56 1.68-7.808 3.424-9.312 2.144-5.68-5.12-10.816-10.608-15.456-16.512l-0.224-0.288c-2.032-2.496-2.384-7.568-4.656-8.496-10.432-4.128-6.464-8.56-1.104-13.44 10.48-9.536 21.024-18.96 31.392-28.576 6.112-5.808 8.336-3.2 8.512 3.776 0.4 17.456 5.536 34.912 0.464 52.336zM294.080 221.056c-2.736-3.136-4.016-5.808-5.824-6.688-4.48-1.76-18.336 8.032-18.576 12.848 0 1.104 1.28 3.248 1.92 3.248 0.368 0.016 0.8 0.016 1.248 0.016 4.768 0 9.392-0.608 13.808-1.712l-0.384 0.080c2.688-0.992 4.656-4.656 7.808-7.792z"></path>
<path d="M238.896 238.048c3.072-1.296 6.72-2.448 10.48-3.232l0.4-0.080c3.424-0.4 9.6-0.528 10.24 1.056 4.976 10.096 11.152 18.736 18.48 26.256l-0.016-0.016c0.4 0.4-1.568 3.552-3.024 4.592-5.184 3.952-10.72 7.392-15.952 11.28-1.952 1.664-4.464 2.672-7.248 2.672s-5.312-1.008-7.264-2.688l0.016 0.016c-4-3.168-8.48-6.272-13.168-9.104l-0.576-0.32c-5.808-2.912-7.168-5.28-1.792-10.048s12.976-10.816 9.888-20.704z"></path>
<path d="M213.456 188.56c-2.96-3.664-5.248-8.56-9.072-10.72-8.272-4.656-5.824-9.264-0.464-12.912 5.776-3.712 12.688-7.584 19.808-11.072l1.264-0.56c6.112-3.264 8.912 0.864 10.656 5.344 2.72 6.928-0.768 14.128-8.032 19.072-1.456 0.928-2.096 3.024-3.088 4.656l0.592-0.528-3.424 3.424 0.464-0.592-9.264 3.024z"></path>
<path d="M268.88 167.152c0-13.552 5.056-16.992 15.424-12.976 2.864 1.056 5.344 2.432 7.584 4.128l-0.080-0.048c4.784 3.84 13.456 9.024 12.816 11.648-1.344 5.808-7.808 10.176-12.224 15.12-0.592 0.704-1.92 1.568-2.272 1.392-7.232-4.352-13.36-8.592-19.216-13.168l0.416 0.32c-2.096-1.456-2.224-5.568-2.464-6.4z"></path>
<path d="M233.264 287.328h38.496l-0.592-0.464c-0.624 1.856-1.28 5.28-2.032 5.28-11.056 0.352-22.192 0.352-33.248 0-0.752 0-1.392-3.424-2.032-5.28z"></path>
</svg>
