<!-- Generated by IcoMoon.io -->
<svg version="1.1" xmlns="http://www.w3.org/2000/svg" width="32" height="32" viewBox="0 0 32 32">
<title>headmans-curse</title>
<path d="M2.507 30.041c-0.605-0.148-1.021-0.376-1.156-0.618-0.121-0.215-0.081-0.336 0.188-0.632 0.188-0.188 0.484-0.712 0.645-1.156 0.188-0.524 0.484-0.981 0.806-1.29 0.659-0.605 0.941-1.68 0.685-2.634-0.148-0.538-0.134-0.699 0.242-1.828 0.229-0.672 0.564-1.425 0.753-1.68 0.578-0.739 0.766-1.519 0.699-2.836-0.054-1.048-0.121-1.317-0.605-2.312-0.82-1.707-1.411-2.379-2.89-3.226-1.774-1.035-1.828-1.169-1.868-4.422 0-1.371-0.013-2.554 0-2.648 0.013-0.188 1.505-1.331 2.003-1.559 0.202-0.081 0.632-0.349 0.954-0.591 0.954-0.712 1.29-0.753 5.39-0.659 2.030 0.040 7.5 0.081 12.15 0.081 5.148 0.013 8.696 0.067 9.086 0.148 0.444 0.094 0.766 0.282 1.102 0.632l0.484 0.497 0.148 2.379c0.202 3.32 0.188 4.825-0.040 5.161-0.108 0.148-0.457 0.444-0.78 0.659-1.21 0.82-2.406 1.855-2.728 2.325-0.376 0.578-0.605 1.573-0.632 2.849-0.027 1.344 0.564 2.742 2.016 4.771 0.605 0.833 0.712 1.788 0.309 2.594-0.43 0.847-0.376 1.156 0.376 1.949 0.363 0.39 0.833 1.062 1.062 1.505s0.564 1.008 0.753 1.263c0.43 0.578 0.457 1.021 0.054 1.169-0.323 0.108-28.736 0.215-29.206 0.108zM17.022 27.824c0.659-0.175 1.707-0.995 2.016-1.613 0.108-0.202 0.202-0.578 0.202-0.833 0-0.242 0.094-0.766 0.215-1.156 0.134-0.457 0.175-0.86 0.108-1.129-0.108-0.47-0.081-3.777 0.027-4.167 0.040-0.121 0.417-0.47 0.833-0.753 1.384-0.941 1.64-1.331 1.909-2.863 0.081-0.457 0.282-1.21 0.43-1.667 0.309-0.874 0.269-1.263-0.134-1.263-0.148 0-0.417-0.121-0.618-0.282-0.349-0.269-0.349-0.309-0.282-1.304 0.108-1.478 0.336-2.581 0.618-3.091 0.457-0.793 0.296-1.062-0.497-0.847-0.255 0.067-0.739 0.376-1.075 0.672-0.618 0.578-1.075 0.699-1.223 0.336-0.094-0.255 1.398-1.761 2.016-2.029 0.672-0.309 0.39-0.712-0.484-0.712-0.847 0-1.492 0.282-2.177 0.941-0.363 0.363-0.941 0.78-1.277 0.927-0.349 0.161-0.726 0.484-0.914 0.753-0.309 0.497-0.685 0.605-0.954 0.282-0.255-0.296 0.027-0.766 0.941-1.626 0.914-0.833 1.102-1.116 0.901-1.357-0.081-0.121-0.403-0.081-1.223 0.148-2.043 0.564-2.392 0.78-3.333 2.043-0.282 0.376-0.659 0.726-0.82 0.78-1.008 0.269-1.344 0.417-1.465 0.632-0.067 0.121-0.202 0.995-0.296 1.909-0.188 1.788-0.403 2.312-0.927 2.164-0.134-0.040-0.363-0.094-0.511-0.148-0.202-0.054-0.323 0.054-0.551 0.497-0.376 0.753-0.296 1.519 0.323 2.836 0.551 1.183 1.465 2.137 2.54 2.634 0.874 0.417 1.129 0.82 1.008 1.586-0.067 0.363 0 0.659 0.229 1.116 0.551 1.102 0.78 2.339 0.672 3.642-0.094 1.263 0.027 1.667 0.645 2.245 0.82 0.766 1.895 1.008 3.132 0.699z"></path>
<path d="M15.060 25.888c-0.282-0.148-0.376-0.336-0.457-0.82-0.040-0.349-0.188-0.82-0.296-1.062-0.457-0.954 0.067-2.406 0.995-2.769 0.766-0.282 2.46 0 2.97 0.511 0.296 0.296 0.323 0.403 0.242 0.995-0.067 0.484-0.027 0.847 0.148 1.344l0.242 0.685-0.376 0.323c-0.202 0.175-0.538 0.323-0.739 0.323s-0.685 0.148-1.075 0.336c-0.82 0.376-1.156 0.403-1.653 0.134z"></path>
<path d="M15.423 18.886c-0.161-0.417-0.067-0.753 0.349-1.344 0.444-0.632 0.78-0.766 0.78-0.323 0 0.148 0.121 0.457 0.269 0.699 0.336 0.564 0.336 0.86 0.013 1.048-0.417 0.215-1.317 0.175-1.411-0.081z"></path>
<path d="M12.211 16.56c-0.874-0.094-1.223-0.403-1.384-1.196-0.067-0.349-0.027-0.511 0.161-0.699 0.484-0.47 0.739-0.43 1.841 0.269 1.008 0.659 1.492 1.223 1.223 1.465-0.188 0.188-0.981 0.255-1.841 0.161z"></path>
<path d="M17.762 16.077c-0.215-0.255-0.081-0.538 0.605-1.331 0.417-0.497 0.497-0.538 1.129-0.538 1.089 0 1.519 0.578 0.954 1.304-0.497 0.632-2.312 1.008-2.688 0.564z"></path>
</svg>
