<!-- Generated by IcoMoon.io -->
<svg version="1.1" xmlns="http://www.w3.org/2000/svg" width="512" height="512" viewBox="0 0 512 512">
<title></title>
<g id="icomoon-ignore">
</g>
<path d="M326.644 148.617c-1.519 0.559-2.894 0.827-8.911 1.742-3.436 0.521-6.978 1.139-9.171 1.594-2.543 0.529-12.267 3.799-14.973 5.031-1.2 0.547-4.097 1.752-6.435 2.679-16.747 6.616-29.805 16.585-44.314 33.838-10.87 12.925-10.861 12.923-19.155 5.791-6.379-5.482-6.726-5.724-10.847-7.539-2.005-0.883-5.103-2.287-6.886-3.116-9.62-4.492-19.214-4.691-34.608-0.722-15.185 3.916-24.99 11.363-22.727 17.262l0.441 1.154 3.742-0.239c13.868-0.891 14.709-0.828 19.738 1.499 11.781 5.447 21.536 18.462 21.433 28.598-0.048 4.874-1.157 6.963-5.285 9.957-6.218 4.512-5.866 8.822 0.86 10.456 4.124 1.003 19.849 14.971 24.431 21.709 2.626 3.854 2.95 7.277 0.939 9.916-2.029 2.659-4.56 1.534-8.475-3.76-7.8-10.553-14.87-12.872-19.239-6.3-2.909 4.379-5.137 5.942-9.453 6.635-11.576 1.864-27.358-5.788-33.541-16.261-3.986-6.75-6.097-6.541-6.096 0.611 0.001 8.034 3.192 16.77 9.726 26.611 1.257 1.895 2.873 4.555 3.593 5.91 1.451 2.74 4.61 4.692 10.821 6.68 3.565 1.14 6.306 2.476 11.036 5.366 5.161 3.152 5.595 3.358 9.114 4.3 5.793 1.553 12.154 0.68 19.69-2.704 18.961-8.512 22.929-10.454 26.035-12.75 3.564-2.639 5.114-2.882 8.237-1.303 3.728 1.885 6.244 5.947 6.244 10.086 0 3.196 1.716 6.622 7.931 15.827 10.973 16.253 20.068 23.877 33.986 28.5 4.935 1.641 8.563 3.244 10.911 4.827 7.121 4.806 21.479 4.652 37.409-0.399 13.534-4.293 24.671-12.644 20.959-15.721-1.012-0.842-7.247-0.317-11.357 0.952-7.839 2.423-12.375 1.202-19.080-5.139-13.31-12.597-14.971-19.256-8.291-33.243 3.976-8.327 3.791-12.223-0.625-13.048-6.269-1.176-15.512 6.348-25.853 21.039-5.663 8.048-9.76 8.827-12.765 2.432-1.705-3.625-0.739-6.462 3.631-10.68 2.695-2.599 2.734-2.668 3.233-5.67 0.513-3.082 1.104-4.258 3.517-6.986 2.443-2.764 1.946-4.108-4.542-12.252-8.836-11.094-9.663-13.162-5.258-13.162 4.773 0 12.697 5.096 18.839 12.116 5.569 6.365 8.363 6.9 10.484 2.010 1.985-4.57 1.575-6.19-2.059-8.125-3.962-2.113-5.19-3.481-5.19-5.785 0-5.957 8.643-6.959 10.097-1.168 0.951 3.776 2.795 4.34 6.527 1.991 7.543-4.747 10.713-4.627 16.369 0.623 3.944 3.659 4.45 3.755 6.812 1.273 2.748-2.891 0.965-8.89-5.502-18.486-2.488-3.692-4.856-5.702-9.16-7.77-2.135-1.028-5.002-2.405-6.37-3.059-2.794-1.339-3.165-1.938-3.572-5.814-0.261-2.46-0.371-3.167-1.67-10.655-4.185-24.117 32.321-58.267 53.904-50.429 4.428 1.608 5.454 1.776 6.737 1.113 3.137-1.623 0.077-7.845-7.538-15.332-6.065-5.965-15.212-9.902-27.752-11.95-1.67-0.274-3.8-0.665-4.735-0.87-2.262-0.496-4.036-0.403-5.998 0.317l0.006-0.011zM290.027 226.596c5.176 2.721 10.026 9.624 8.882 12.634-0.358 0.936-2.626 3.058-3.272 3.058-1.991 0-7.586-3.542-10.213-6.464-5.612-6.244-2.31-12.865 4.603-9.227zM212.839 232.040c1.536 0.9 1.087 4.259-0.841 6.244-3.988 4.111-8.272 3.462-8.272-1.256 0-4.84 4.844-7.492 9.113-4.988l0 0.001z"></path>
<path d="M426.768 94.88c-1.68 8.288-3.872 15.488-6.624 22.4l0.304-0.864c-1.232 2.080-1.968 4.592-1.968 7.264 0 4.24 1.84 8.064 4.768 10.688l0.016 0.016c10.064 12.368 18.208 26.768 23.712 42.448l0.32 1.008c5.568 13.12 9.792 28.368 11.92 44.272l0.096 0.912c0.128 5.584 3.616 10.304 8.512 12.256l0.096 0.032c14.768 5.2 27.712 14.864 43.536 17.568 0.896 0.384 1.68 0.896 2.336 1.52-0.624 0.624-1.376 1.168-2.176 1.616l-0.048 0.032c-10.656 3.92-21.968 6.432-30.88 14.224-16.64 0-21.92 10.080-22.624 25.232-1.056 8.688-3.104 16.608-6.080 24.064l0.224-0.64c-2.4 8.688-5.312 16.16-8.88 23.28l0.336-0.736c-5.568 12.048-12.032 22.448-19.632 31.92l0.224-0.288c-10.32 11.696-8.912 22.656-4.848 35.12 1.28 4.080 2.944 8.016 3.984 12.176s-1.344 5.856-4.752 4.752c-7.264-2.048-14.544-4.16-21.68-6.624-2.016-0.944-4.4-1.488-6.88-1.488-4.080 0-7.824 1.472-10.72 3.904l0.032-0.016c-10.48 8.56-22.448 15.952-35.328 21.664l-1.008 0.4c-6.96 2.864-13.824 5.856-20.864 8.544s-13.712 4.048-20.096 7.024c-3.472 1.344-6.272 3.808-8 6.944l-0.048 0.080c-5.856 10.768-9.136 22.544-14.416 33.488-0.672 1.104-1.792 1.856-3.088 2.048h-0.016c-0.992 0-1.936-1.52-2.752-2.512-0.096-0.208-0.16-0.448-0.16-0.704s0.064-0.496 0.16-0.72v0.016c4.384-19.968-2.048-39.856-0.464-59.936-0.032-0.256-0.032-0.544-0.032-0.848 0-4.944 3.824-9.008 8.672-9.392h0.032c12.832-3.28 25.488-7.088 38.192-10.656 1.52-0.512 2.832-1.088 4.064-1.776l-0.144 0.064c25.552-12.704 47.040-29.952 64.192-50.88l0.256-0.336c5.856-7.44 10.784-15.168 15.936-22.944 5.456-8.608 9.824-18.576 12.512-29.2l0.16-0.72c0.176-1.52 0.544-2.896 1.088-4.192l-0.032 0.096c8.368-12.88 8.256-27.28 7.792-41.808v-7.312c0-35.952 0.656-36.176-12.064-68.496-5.936-14.592-13.232-27.2-21.968-38.624l0.304 0.4c-10.336-14.144-22.464-26.192-36.256-36.080l-0.48-0.336c-8.736-5.856-17.568-11.696-26.768-17.552-1.344-0.64-2.912-1.008-4.592-1.008-0.448 0-0.88 0.032-1.312 0.080h0.048c-3.952-0.32-7.568-1.552-10.72-3.456l0.112 0.064c-7.648-3.28-16.672-6.128-26.032-8.048l-0.928-0.16c-8.544-1.936-11.312-3.984-11.712-12.656v-59.968c0-1.12 1.056-2.176 1.712-3.264 0.928 0.368 1.712 0.88 2.4 1.52 1.824 2.416 3.52 5.168 4.976 8.064l0.144 0.304c3.392 7.776 6.848 15.632 9.664 23.712 1.888 6.064 6.944 10.608 13.2 11.68l0.112 0.016c13.952 2.832 26.32 7.232 37.808 13.088l-0.832-0.384c14.944 6.864 27.792 14.688 39.632 23.776l-0.48-0.352c3.68 3.040 8.448 4.864 13.632 4.864 2.768 0 5.424-0.528 7.84-1.472l-0.144 0.048c7.712-1.664 14.128-3.472 20.384-5.648l-1.232 0.368c4.624-1.712 4.336 0.704 4.4 7.024l-0.080 0.016z"></path>
<path d="M234.384 29.552c-0.928 4.912-2.4 11.408-3.344 18.032-0.064 0.736-0.096 1.616-0.096 2.496 0 2.112 0.208 4.176 0.608 6.176l-0.032-0.208c0.8 3.44 1.488 7.744 1.952 12.144l0.048 0.512c0.304 13.12 0 12.352-12.832 15.28-28.656 6.496-55.776 16.384-77.008 38.16-4.368 4.048-9.12 7.888-14.096 11.408l-0.432 0.288c-12.48 9.824-18.992 24.112-26.944 37.104-7.088 11.712-14.768 23.424-15.008 37.888-10.32 22.176-5.872 45.84-5.216 68.672 1.584 17.952 6.512 34.432 14.176 49.28l-0.336-0.752c10.624 23.52 25.552 43.376 43.92 59.36l0.192 0.176c10.928 9.952 23.28 18.624 36.656 25.6l0.96 0.448c3.456 1.52 7.888 3.136 12.4 4.512l0.896 0.24c10.656 4.496 23.344 8.528 36.464 11.424l1.504 0.288c3.808 0.704 5.040 2.512 4.736 5.856-1.28 14.336 2.176 28.8-2.176 43.2-1.584 5.376 1.456 12.064 2.112 18.144 0.144 1.088 0.224 2.352 0.224 3.632s-0.080 2.544-0.224 3.776l0.016-0.16c-0.352 0.864-1.104 1.52-2.032 1.68h-0.016c-1.232 0-3.456-0.88-3.52-1.52-1.168-14.688-10.544-26.224-15.408-39.456-0.752-1.984-3.104-4.752-4.848-4.8-14.176-0.88-25.072-11.696-39.312-12.224-14.112-9.664-31.056-14.864-43.072-27.68-2.176-2.656-5.456-4.352-9.12-4.352-1.408 0-2.736 0.256-3.968 0.688l0.080-0.032c-8.672 2.4-17.28 4.8-25.888 7.376-4.096 1.232-5.344-0.88-5.152-4.272 0.256-2.592 0.72-4.944 1.408-7.232l-0.064 0.256c2.176-8.192 4.624-16.336 6.512-24.592-0.128-2.24-0.976-4.272-2.368-5.856l0.016 0.016c-13.824-19.296-24.944-41.696-32.16-65.776l-0.416-1.6c-2.064-6.56-3.856-14.464-5.008-22.592l-0.096-0.832c-1.28-10.544-4.736-16.384-14.88-18.032-12.432-1.936-21.92-9.024-32.16-14.992-2.704-1.52-1.888-1.808 0-3.52 9.424-8.016 21.328-10.352 32.464-14.224 8.4-2.144 14.576-9.584 14.704-18.48v-0.016c1.504-14.224 4.816-27.28 9.728-39.52l-0.352 0.992c7.44-20.32 18.032-37.824 31.328-52.848l-0.16 0.176c1.952-1.776 3.184-4.32 3.184-7.168 0-1.664-0.416-3.232-1.168-4.592l0.032 0.048c-2.752-5.584-4.64-12.064-5.312-18.912l-0.016-0.24c-2.336-15.152-2.992-15.088 12.368-10.304 7.216 2.288 14.704 7.376 21.44 6.432s13.056-7.44 19.104-12.064c13.824-10.592 30.24-16.112 45.472-23.888 5.168-1.84 11.232-3.264 17.504-4.064l0.432-0.048c5.152-0.784 9.264-4.448 10.704-9.264l0.032-0.096c4.096-11.696 11.712-21.904 14-34.304 0-0.768 0.992-1.456 1.456-2.224 1.168 0.88 3.168 1.584 3.328 2.576 0.768 5.040 1.232 10.768 2.112 18.32l-0.032 0.080z"></path>
</svg>
