<!-- Generated by IcoMoon.io -->
<svg version="1.1" xmlns="http://www.w3.org/2000/svg" width="32" height="32" viewBox="0 0 32 32">
<title>bladeborn-magore</title>
<path d="M17.214 29.159c0-0.635 0.033-1.276 0-1.911-0.033-0.467 0.197-0.627 0.591-0.729 0.631-0.172 1.26-0.364 1.883-0.573 1.109-0.412 2.066-0.961 2.916-1.639l-0.020 0.016c0.875-0.655 1.622-1.423 2.234-2.291l0.021-0.032c0.424-0.622 0.799-1.333 1.092-2.086l0.025-0.073c0.202-0.514 0.396-1.145 0.544-1.792l0.018-0.093c0.151-0.625 0.239-1.344 0.239-2.082 0-0.787-0.099-1.552-0.285-2.281l0.013 0.064c-0.678-3.126-2.616-5.706-5.244-7.229l-0.053-0.028c-0.986-0.592-2.146-1.009-3.384-1.176l-0.047-0.005c-0.365-0.052-0.544-0.146-0.54-0.54 0-1.306 0-2.611 0-3.913 0-0.087 0.102-0.175 0.153-0.259 0.073 0.052 0.175 0.088 0.209 0.157 0.27 0.602 0.569 1.199 0.778 1.823 0.107 0.442 0.471 0.775 0.921 0.834l0.006 0.001c1.694 0.418 3.174 1.161 4.436 2.166l-0.023-0.017c0.274 0.24 0.634 0.386 1.029 0.386 0.207 0 0.404-0.039 0.584-0.112l-0.011 0.004c0.336-0.128 0.683-0.23 1.030-0.332s0.43-0.022 0.424 0.335c-0.008 0.19-0.040 0.369-0.095 0.539l0.004-0.013c-0.126 0.453-0.251 0.816-0.393 1.172l0.027-0.077c-0.041 0.101-0.066 0.218-0.066 0.341 0 0.259 0.107 0.492 0.281 0.658 0.767 0.953 1.364 2.080 1.72 3.309l0.017 0.068c0.236 0.642 0.427 1.398 0.537 2.18l0.007 0.060c0.040 0.409 0.365 0.649 0.782 0.795 0.818 0.295 1.624 0.616 2.435 0.93 0.044 0.018 0.077 0.070 0.116 0.105-0.047 0.037-0.087 0.091-0.139 0.102-0.858 0.19-1.504 0.868-2.402 0.984-0.436 0.072-0.769 0.435-0.792 0.881v0.002c-0.177 1.017-0.43 1.918-0.763 2.778l0.034-0.098c-0.381 1.119-0.922 2.087-1.606 2.935l0.015-0.018c-0.307 0.412-0.515 0.759-0.3 1.302 0.122 0.385 0.211 0.834 0.25 1.297l0.002 0.023c0.070 0.423-0.048 0.525-0.474 0.405-0.404-0.102-0.746-0.216-1.075-0.354l0.050 0.018c-0.148-0.079-0.324-0.127-0.511-0.127-0.297 0-0.566 0.118-0.763 0.309-1.139 1.094-2.599 1.586-4.048 2.034-0.774 0.244-1.238 0.605-1.461 1.378-0.232 0.658-0.464 1.198-0.728 1.721l0.038-0.084c-0.044 0.077-0.093 0.143-0.15 0.201-0.043-0.072-0.074-0.155-0.090-0.243l-0.001-0.005c0-0.697 0-1.393 0-2.093z"></path>
<path d="M14.48 2.009c0.084 0.595 0.175 1.185 0.241 1.78 0.009 0.123 0.013 0.265 0.013 0.41s-0.005 0.287-0.014 0.429l0.001-0.019c0.001 0.014 0.002 0.031 0.002 0.047 0 0.298-0.241 0.54-0.54 0.54-0.003 0-0.007 0-0.010 0h0.001c-2.636 0.339-4.727 1.684-6.439 3.625-0.988 1.102-1.743 2.435-2.172 3.907l-0.018 0.072c-0.245 0.854-0.263 1.714-0.464 2.553-0.099 0.416 0.062 0.889 0.095 1.338 0.201 2.604 1.311 4.915 3.010 6.649l-0.002-0.002c0.796 0.823 1.711 1.525 2.719 2.078l0.059 0.030c0.771 0.381 1.672 0.71 2.611 0.944l0.094 0.019c0.778 0.208 0.774 0.168 0.88 0.967 0.044 0.266 0.069 0.571 0.069 0.882s-0.025 0.617-0.073 0.916l0.004-0.033c-0.073 0.423 0.128 0.886 0.139 1.331 0 0.296 0.171 0.664-0.201 0.886-0.122-0.18-0.25-0.395-0.368-0.616l-0.020-0.040c-0.242-0.452-0.479-0.992-0.675-1.55l-0.025-0.083c-0.069-0.264-0.272-0.469-0.531-0.539l-0.005-0.001c-0.763-0.266-1.548-0.478-2.299-0.773-0.484-0.209-0.897-0.44-1.285-0.706l0.026 0.016c-0.559-0.364-1.095-0.729-1.643-1.094-0.109-0.095-0.254-0.153-0.412-0.153-0.090 0-0.175 0.018-0.252 0.052l0.004-0.002c-0.369 0.119-0.838 0.238-1.318 0.33l-0.080 0.012c-0.151 0.022-0.328 0.035-0.506 0.037h-0.001c0-0.007 0-0.015 0-0.023 0-0.163 0.014-0.323 0.043-0.478l-0.003 0.016c0.080-0.32 0.201-0.63 0.288-0.948 0.059-0.164 0.093-0.354 0.093-0.55 0-0.368-0.118-0.709-0.319-0.986l0.003 0.005c-0.835-1.268-1.523-2.732-1.985-4.292l-0.030-0.117c-0.031-0.133-0.049-0.285-0.049-0.442 0-0.067 0.003-0.133 0.009-0.198l-0.001 0.009c0.001-0.022 0.002-0.048 0.002-0.075 0-0.603-0.404-1.111-0.956-1.269l-0.010-0.002c-0.672-0.262-1.318-0.591-1.971-0.897-0.094-0.060-0.175-0.13-0.243-0.21l-0.001-0.001c0.064-0.054 0.136-0.103 0.211-0.145l0.008-0.004c0.412-0.182 0.825-0.364 1.241-0.536 0.118-0.055 0.259-0.106 0.404-0.145l0.018-0.004c0.846-0.201 1.23-0.762 1.296-1.598 0.145-1.020 0.437-1.941 0.856-2.789l-0.024 0.053c0.347-0.929 0.812-1.732 1.389-2.44l-0.013 0.016c0.209-0.204 0.338-0.49 0.338-0.805 0-0.16-0.033-0.312-0.093-0.45l0.003 0.008c-0.119-0.354-0.21-0.77-0.257-1.198l-0.002-0.026c-0.009-0.039-0.015-0.084-0.015-0.13 0-0.11 0.030-0.214 0.082-0.303l-0.002 0.003c0.052-0.062 0.259-0.022 0.395 0 0.292 0.041 0.556 0.111 0.805 0.209l-0.024-0.008c0.209 0.12 0.459 0.191 0.727 0.191 0.384 0 0.733-0.145 0.996-0.385l-0.001 0.001c1.146-0.889 2.515-1.55 4.009-1.887l0.069-0.014c0.817-0.194 1.073-0.769 1.355-1.385 0.197-0.43 0.364-0.879 0.536-1.313 0.029-0.077 0.114-0.128 0.172-0.19 0.045 0.064 0.079 0.141 0.098 0.222l0.001 0.004c0 0.423 0 0.85 0 1.273z"></path>
<path d="M17.58 18.468c0-0.609 0.029-1.218-0.018-1.823 0-0.23-0.226-0.445-0.347-0.668-0.157 0.209-0.427 0.401-0.449 0.62-0.106 1.075-0.139 2.162-0.209 3.241-0.002 0.024-0.003 0.053-0.003 0.082 0 0.287 0.113 0.546 0.296 0.739 0.364 0.42 0.328 0.612 0.039 1.036s-0.463 0.769-0.73 1.145c-0.046 0.029-0.101 0.048-0.161 0.048-0.037 0-0.072-0.007-0.104-0.018l0.002 0.001c-0.332-0.565-0.657-1.134-0.96-1.718-0.033-0.062 0.054-0.215 0.12-0.299 0.207-0.286 0.332-0.643 0.332-1.030 0-0.058-0.003-0.116-0.009-0.173l0.001 0.007c0-0.696 0.022-1.397 0-2.093-0.030-0.484-0.109-0.936-0.23-1.37l0.011 0.046c-0.079-0.148-0.23-0.25-0.403-0.263h-0.002c-0.169 0.047-0.302 0.168-0.364 0.325l-0.001 0.004c-0.026 0.123-0.042 0.264-0.042 0.41 0 0.080 0.005 0.158 0.014 0.234l-0.001-0.009c0 1.061 0 2.122 0 3.183-0.015 0.095-0.042 0.181-0.080 0.261l0.002-0.006c-0.102-0.043-0.241-0.062-0.3-0.139-0.336-0.445-0.635-0.813-0.478-1.517 0.197-0.897 0.054-1.871 0.052-2.811 0.001-0.011 0.001-0.024 0.001-0.037 0-0.113-0.038-0.216-0.101-0.3l0.001 0.001c-0.145-0.111-0.307-0.213-0.479-0.298l-0.017-0.008c-0.081 0.153-0.219 0.302-0.223 0.459-0.025 0.696 0 1.397 0 2.093 0 0.244 0 0.485 0 0.729s-0.116 0.259-0.292 0.132c-0.047-0.037-0.087-0.084-0.135-0.124-0.325-0.266-0.778-0.474-0.935-0.82s0.029-0.795 0.018-1.203c-0.022-0.659-0.091-1.32-0.109-1.98 0.016-0.132 0.095-0.244 0.205-0.305l0.002-0.001c0.214-0.079 0.476-0.152 0.746-0.205l0.036-0.006c0.446-0.123 0.814-0.405 1.043-0.78l0.005-0.008c0.11-0.171 0.070-0.395-0.182-0.391-0.53 0-1.095-0.178-1.566 0.244-0.179 0.161-0.336 0.025-0.365-0.2 0-0.153 0-0.306 0-0.456 0-0.292-0.161-0.696-0.022-0.85 0.277-0.318 0.5 0.142 0.766 0.23 0.927 0.295 2.191-0.044 2.646-0.73 0.234-0.332 0.215-0.554-0.124-0.729-0.246-0.131-0.534-0.221-0.84-0.255l-0.011-0.001c-0.19-0.012-0.413-0.018-0.637-0.018s-0.447 0.007-0.667 0.020l0.030-0.001c-0.048-0.009-0.103-0.014-0.159-0.014-0.256 0-0.488 0.105-0.655 0.272-0.197 0.219-0.46 0.073-0.496-0.23-0.008-0.096-0.012-0.206-0.012-0.319s0.005-0.224 0.013-0.333l-0.001 0.014c0-0.42 0-0.405 0.463-0.27 0.176 0.046 0.377 0.074 0.586 0.074 0.014 0 0.027 0 0.041 0h-0.002c0.577 0 1.154 0 1.73 0 0.182 0 0.43 0.047 0.529-0.048 0.474-0.452 0.766-0.175 1.121 0.168 0.486 0.471 0.54 0.467 1.004-0.025 0.329-0.364 0.621-0.529 1.095-0.234 0.159 0.086 0.347 0.137 0.548 0.137 0.021 0 0.041-0.001 0.061-0.002h-0.003c0.818 0 1.635 0 2.453-0.052 0.197 0 0.281 0 0.296 0.197 0.004 0.054 0.006 0.118 0.006 0.182s-0.002 0.128-0.006 0.191v-0.009c0 0.238-0.048 0.474-0.073 0.711-0.177-0.096-0.383-0.185-0.598-0.255l-0.026-0.008c-0.916-0.229-1.825-0.32-2.73 0.102-0.365 0.168-0.387 0.42-0.154 0.729 0.298 0.466 0.813 0.77 1.398 0.77 0.021 0 0.044 0 0.065-0.001h-0.003c0.598-0.029 1.212 0.080 1.759-0.291 0.132-0.087 0.292-0.084 0.256 0.171-0.033 0.209-0.058 0.461-0.069 0.716v0.013c-0.025 0.635 0 0.602-0.66 0.456-0.223-0.045-0.48-0.071-0.744-0.071-0.152 0-0.3 0.009-0.446 0.025l0.018-0.002c-0.333 0.025-0.365 0.299-0.157 0.58 0.343 0.438 0.846 0.565 1.328 0.73 0.616 0.208 0.555 0.19 0.521 0.784-0.011 0.197-0.017 0.427-0.017 0.659 0 0.56 0.037 1.111 0.109 1.652l-0.007-0.064c0.058 0.43 0.018 0.693-0.391 0.868-0.164 0.098-0.307 0.2-0.438 0.313l0.004-0.004c-0.182 0.124-0.365 0.241-0.559 0.364-0.047-0.208-0.077-0.45-0.084-0.698v-0.005c0.037-0.564 0.132-1.13 0.161-1.699 0 0 0-0.001 0-0.001 0-0.249-0.053-0.485-0.15-0.698l0.003 0.011c-0.091-0.157-0.2-0.291-0.324-0.408l-0.001-0.001c-0.186 0.142-0.35 0.296-0.497 0.466l-0.004 0.004c-0.077 0.105-0.037 0.291-0.037 0.445 0 0.729-0.022 1.459 0 2.188 0.009 0.277 0.084 0.535 0.212 0.759l-0.004-0.007c0.060 0.070 0.096 0.161 0.096 0.261 0 0.12-0.052 0.228-0.136 0.3-0.285 0.299-0.559 0.605-0.84 0.911-0.048-0.43-0.106-0.857-0.139-1.288-0.018-0.27 0-0.543 0-0.816z"></path>
</svg>
