<!-- Generated by IcoMoon.io -->
<svg version="1.1" xmlns="http://www.w3.org/2000/svg" width="512" height="512" viewBox="0 0 512 512">
<title>monsters-of-order</title>
<g id="icomoon-ignore">
</g>
<path d="M273.664 467.856v-29.232c0-9.744 0.528-10.272 10-12.608 9.456-2.32 17.536-3.968 26.576-6.544 17.376-5.744 32.432-14.096 45.536-24.72l-0.256 0.192c22.56-17.52 42.176-37.76 53.52-64.496 9.344-22.112 18.112-44.528 16.416-69.456-0.928-13.888 0.768-27.84-2.848-41.792-8.992-37.008-28.272-68.624-54.592-92.672l-0.144-0.128c-10.368-9.136-22.112-17.056-34.816-23.392l-0.944-0.416c-14.512-7.92-31.392-13.712-49.28-16.416l-0.832-0.112c-4.672-0.144-8.4-3.952-8.4-8.624 0-0.448 0.032-0.896 0.112-1.328v0.048-64.208c0.256-1.504 0.736-2.864 1.376-4.112l-0.032 0.080c0.992 0.864 2.384 1.584 2.912 2.688 4.464 8.112 8.848 17.728 12.48 27.696l0.464 1.488c2.176 8.592 9.248 15.056 18 16.32l0.128 0.016c16.72 3.872 31.456 9.904 44.88 17.904l-0.72-0.384c11.168 6.496 20.592 12.784 29.616 19.584l-0.752-0.544c2.928 2.512 6.8 4.048 11.008 4.048 2.352 0 4.608-0.48 6.64-1.344l-0.112 0.048c6.368-2.16 12.912-3.792 19.456-5.36s8.88 1.056 7.12 7.296c-1.84 7.424-4 13.76-6.624 19.856l0.32-0.832c-1.12 2.288-1.776 4.944-1.776 7.776 0 5.184 2.192 9.888 5.728 13.168l0.016 0.016c9.536 11.84 17.232 25.632 22.432 40.592l0.288 0.96c5.328 15.344 12.048 30.416 12.208 47.168 0 6.176 4.608 9.152 9.76 11.328l39.904 16.816c1.28 0.528 2.576 1.168 3.808 1.76-1.232 0.928-2.592 1.776-4.048 2.496l-0.144 0.064c-12.848 5.488-25.712 10.848-38.624 16.224-6.432 2.048-10.992 7.952-10.992 14.928v0.304c-1.328 11.68-4.256 22.336-8.576 32.24l0.288-0.736c-4.752 14.992-10.688 27.968-17.984 40.048l0.464-0.816c-2.752 4.256-3.856 10.080-7.472 13.184-12.448 10.512-9.232 22.768-5.856 35.44 0.224 0.384 0.416 0.816 0.576 1.296l0.016 0.048c3.504 13.824 0.352 16.688-13.904 12.72-2.592-0.512-4.864-1.264-7.040-2.24l0.192 0.080c-3.104-1.744-6.832-2.768-10.768-2.768-6.272 0-11.936 2.576-15.984 6.736-12.784 10.496-27.648 19.056-43.824 24.944l-1.056 0.336c-5.76 2.208-12.688 4.224-19.824 5.68l-0.864 0.144c-6.8 1.344-12.224 6.096-14.512 12.352l-0.048 0.144c-4.032 9.216-8.352 18.272-12.672 27.312-1.632 3.152-3.168 5.712-4.832 8.208l0.192-0.32c-0.56-2.72-1.024-6.096-1.312-9.52l-0.032-0.336c-0.064-8.864 0.064-17.568 0.064-26.32z"></path>
<path d="M231.072 46.464v29.184c0 6.352-2.448 10.048-9.168 10.576-19.456 1.68-36.8 9.984-53.872 18.512-9.312 4.928-17.328 10.736-24.4 17.536l0.032-0.032c-16.48 15.536-33.12 31.168-43.52 51.888-8.72 16.592-15.024 35.92-17.776 56.352l-0.096 0.896c-1.12 5.456-2.080 12.256-2.704 19.168l-0.048 0.736c-0.016 0.944-0.032 2.064-0.032 3.152 0 57.168 27.68 107.888 70.368 139.504l0.464 0.336c8.8 6.736 18.704 13.184 29.12 18.832l1.2 0.592c8.72 4 18.864 7.152 29.488 8.944l0.736 0.112c20.144 3.808 20.208 3.376 20.208 24.048v52.528c0 1.52-1.28 3.040-1.984 4.608-0.624-1.168-1.456-2.272-2.048-3.568-4.432-10.096-9.584-20.032-13.088-30.48-2.208-6.896-7.824-12.112-14.816-13.68l-0.144-0.032c-5.088-1.52-10.224-2.624-15.264-4.256-18.928-6.176-35.36-14.976-49.856-26.128l0.384 0.288c-1.856-1.456-4.432-2.16-6.192-3.744-3.68-3.952-8.944-6.4-14.768-6.4-3.312 0-6.432 0.784-9.184 2.192l0.112-0.048c-5.44 2.32-11.904 4.32-18.592 5.712l-0.704 0.128c-2.736 0.704-5.856 0.832-4.608-4.192s2.288-11.376 4.272-16.688c1.376-3.504 2.192-7.568 2.192-11.808 0-7.808-2.72-14.992-7.264-20.656l0.048 0.064c-7.408-12.24-14.672-26.608-20.88-41.536l-0.8-2.176c-1.648-3.84-3.168-8.416-4.256-13.152l-0.112-0.56c-1.632-5.84-2.976-11.68-4.368-17.984-0.752-3.2-1.744-6.416-2.224-9.744-0.752-5.84-3.904-8.336-9.824-10.576-12.992-5.312-23.904-10.832-34.336-17.136l1.104 0.624c-5.2-2.912-4.912-5.248 0.4-7.6 7.568-3.664 17.232-7.6 27.12-11.040l2.080-0.624c11.056-3.504 13.792-12.032 15.312-21.712 4.944-30.064 16.56-56.768 33.312-79.472l-0.352 0.496c5.856-7.936 11.28-15.648 5.856-26.32-1.28-3.712-2.144-8-2.448-12.448l-0.016-0.16c-2.8-12.656-1.344-14.24 11.216-11.664 1.456 0.288 2.912 0.352 4.32 0.704 22.208 5.84 22.32 5.84 40.432-7.008 15.872-11.584 34.592-20.368 54.864-25.168l1.056-0.224c8.368-0.624 15.2-6.528 17.2-14.336l0.032-0.144c3.792-10.448 7.728-19.168 12.224-27.536l-0.544 1.12c1.040-1.6 2.224-2.976 3.552-4.192l0.016-0.016c0.784 1.408 1.376 3.072 1.68 4.8l0.016 0.096c-0.064 10.16-0.128 20.368-0.128 30.512z"></path>
<path d="M250.012 153.944c-19.57 3.059-35.124 15.249-51.406 40.284-4.478 6.883-9.547 12.901-10.868 12.901-1.703 0-11.903-2.828-20.894-5.791-3.173-1.045-5.819-1.851-5.88-1.79-0.774 0.774 4.988 7.281 20.437 23.078 6.501 6.649 11.822 12.238 11.822 12.424s-0.856 2.952-1.901 6.151c-3.767 11.519-3.725 11.94 1.397 13.793 13.023 4.713 22.189 12.12 28.604 23.118 1.101 1.887 3.070 5.261 4.375 7.497 4.919 8.428 6.651 9.111 8.911 3.507 1.62-4.019 3.769-7.298 9.683-14.772 0.615-0.777 0.304-1.12 4.254 4.702 7.341 10.825 8.884 10.99 13.964 1.488 4.911-9.181 6.574-8.543 15.366 5.884 5.37 8.81 5.493 8.738 14.397-8.261 7.917-15.116 8.526-15.712 20.816-20.419 12.025-4.605 12.358-5.107 10.474-15.851-1.627-9.268-1.115-10.377 10.651-23.125 16.12-17.465 18.875-20.934 17.627-22.181-0.99-0.99-3.588-0.049-15.822 5.732-9.799 4.632-10.758 5.016-11.258 4.498-0.607-0.627-3.421-5.347-6.101-10.224-12.899-23.488-29.353-36.966-51.082-41.846-3.255-0.731-14.671-1.248-17.562-0.797l-0.001 0zM217.094 226.538c11.879 4.059 18.317 9.277 20.157 16.337 1.731 6.639-2.038 8.933-9.119 5.547-10.332-4.939-20.707-12.496-21.687-15.798-2.126-7.155 1.484-9.218 10.65-6.087l-0.001 0.001zM306.428 226.001c3.965 2.934 1.682 7.97-6.407 14.138-2.509 1.911-15.591 11.29-16.569 11.877-0.38 0.228-3.475-4.27-4.978-7.238-3.094-6.103-0.206-10.713 9.348-14.917 8.983-3.955 16.401-5.493 18.606-3.861v0.001zM152.004 234.487c0.004 0.367 0.202 2.136 0.443 3.929 0.74 5.51 1.835 14.727 3.702 31.138 3.238 28.464 5.144 40.145 7.737 47.363 1.944 5.413 2.626 8.685 2.946 14.139 0.967 16.397 5.403 17.334 10.68 2.257 7.908-22.592 18.834-17.282 27.455 13.346 3.757 13.347 8.636 15.615 9.315 4.329 1.272-21.164 17.113-24.032 22.99-4.164 3.073 10.395 6.483 11.372 7.074 2.029 0.31-4.875 1.766-8.401 5.077-12.299 4.112-4.837 4.218-6.349 1.617-23.166-2.809-18.176-5.433-23.522-7.72-15.731-1.126 3.836-3.005 6.906-6.485 10.599-2.321 2.462-4.096 5.053-5.68 8.284-3.558 7.264-6.204 5.146-9.619-7.69-3.802-14.293-11.625-32.918-13.829-32.918-0.824 0-2.788 6.374-4.387 14.234-3.623 17.81-7.095 23.45-11.455 18.61-6.428-7.137-20.516-33.315-31.877-59.237-2.252-5.138-4.58-10.398-5.169-11.689-1.638-3.571-2.833-4.999-2.819-3.361l0.004-0.001zM358.332 239.083c-0.619 0.697-5.971 13.647-6.896 16.682-0.432 1.418-3.988 9.166-6.623 14.426-2.604 5.202-3.435 6.761-8.358 15.673-1.351 2.447-4.123 7.717-6.161 11.714-4.202 8.241-4.784 9.175-6.894 11.072-3.245 2.918-5.908 1.904-5.928-2.255-0.007-1.655-1.195-4.962-2.47-6.881-2.49-3.75-3.559-7.014-3.885-11.877-0.46-6.845-1.462-8.947-3.879-8.147-4.62 1.525-12.074 18.27-16.168 36.324-2.562 11.292-5.609 9.635-13.781-7.495-7.75-16.243-9.282-17.699-11.295-10.745-0.649 2.241-1.103 4.789-3.086 17.35-0.516 3.263-1.336 7.865-1.827 10.231-1.615 7.8-1.515 8.312 2.087 10.825 3.455 2.409 4.777 4.753 6.132 10.868 2.176 9.819 6.507 8.449 7.247-2.293 0.286-4.139 0.926-5.798 2.945-7.622 2.14-1.936 6.52-3.771 8.99-3.771 5.448 0 11.8 11.012 11.8 20.457 0 8.995 4.928 1.708 11.009-16.272 4.563-13.496 6.43-15.878 13.654-17.432 6.555-1.409 8.615 1.867 12.843 20.423 2.429 10.659 6.479 5.781 8.912-10.736 0.913-6.206 2.486-13.461 3.89-17.938 5.002-15.976 9.377-46.289 9.413-65.245 0.014-7.299-0.336-8.84-1.663-7.341l-0.003 0.007zM249.329 252.812c2.268 1.036 3.725 6.792 2.305 9.121-1.923 3.154-10.152 2.524-11.341-0.87-0.569-1.623 4.784-7.703 7.345-8.346 0.94-0.237 0.976-0.234 1.692 0.095h-0.002zM267.221 252.971c5.067 2.404 6.464 8.765 2.18 9.921-3.702 0.997-5.601-0.748-5.601-5.153 0-4.62 0.947-5.941 3.418-4.768l0.002-0z"></path>
</svg>
