<!-- Generated by IcoMoon.io -->
<svg version="1.1" xmlns="http://www.w3.org/2000/svg" width="32" height="32" viewBox="0 0 32 32">
<title>bladeborn-dreadpageant</title>
<path d="M17.132 29.187c0-0.664 0-1.327 0-1.991-0.005-0.027-0.008-0.059-0.008-0.091 0-0.281 0.225-0.509 0.504-0.514h0.001c0.058 0 0.109-0.073 0.163-0.069 0.979 0.065 1.76-0.547 2.63-0.83 0.738-0.268 1.372-0.657 1.909-1.149l-0.004 0.004c0.843-0.758 1.61-1.558 2.314-2.413l0.030-0.038c0.386-0.493 0.709-1.062 0.94-1.674l0.014-0.045c0.417-1.055 0.82-2.121 0.758-3.292-0.018-0.257-0.028-0.557-0.028-0.859s0.011-0.602 0.031-0.899l-0.002 0.040c0.134-1.715-0.41-3.263-1.256-4.691-0.985-1.712-2.361-3.098-4.012-4.069l-0.052-0.028c-1.089-0.609-2.264-0.892-3.437-1.211-0.302-0.083-0.497-0.123-0.493-0.482 0-1.385 0-2.773 0-4.162 0-0.073 0.069-0.148 0.106-0.225 0.048 0.062 0.094 0.132 0.134 0.205l0.004 0.008c0.278 0.544 0.57 1.22 0.822 1.916l0.041 0.133c0.088 0.35 0.369 0.615 0.721 0.681l0.006 0.001c1.864 0.484 3.49 1.322 4.875 2.444l-0.024-0.018c0.148 0.123 0.339 0.198 0.547 0.198 0.099 0 0.194-0.016 0.283-0.047l-0.006 0.002c0.512-0.152 1.038-0.246 1.564-0.362 0.269-0.054 0.388 0.083 0.313 0.362-0.127 0.46-0.279 0.914-0.4 1.374-0.037 0.115-0.058 0.249-0.058 0.387 0 0.327 0.119 0.628 0.317 0.859l-0.002-0.002c0.993 1.295 1.709 2.855 2.032 4.554l0.011 0.068c0.033 0.174 0.16 0.362 0.138 0.511-0.123 0.816 0.493 1.001 1.035 1.251s1.089 0.497 1.643 0.725c0.199 0.064 0.432 0.114 0.674 0.14l0.015 0.001c-0.229 0.116-0.454 0.235-0.682 0.362-0.544 0.322-1.173 0.594-1.837 0.784l-0.057 0.014c-0.454 0.098-0.689 0.428-0.781 0.964-0.297 1.698-0.857 3.216-1.644 4.589l0.036-0.069c-0.294 0.515-0.585 0.954-0.903 1.371l0.021-0.029c-0.113 0.139-0.181 0.319-0.181 0.513 0 0.115 0.024 0.226 0.067 0.326l-0.002-0.005c0.099 0.347 0.196 0.789 0.267 1.24l0.009 0.069c0.098 0.514 0 0.653-0.519 0.522-0.466-0.14-0.854-0.291-1.229-0.466l0.056 0.023c-0.090-0.038-0.195-0.060-0.305-0.060-0.201 0-0.383 0.074-0.523 0.196l0.001-0.001c-1.009 0.682-2.006 1.385-3.178 1.769-0.124 0.027-0.234 0.075-0.33 0.139l0.003-0.002c-0.573 0.497-1.597 0.134-1.956 1.041-0.287 0.725-0.598 1.425-0.904 2.135-0.043 0.079-0.090 0.149-0.143 0.212l0.002-0.002c-0.033-0.079-0.098-0.156-0.098-0.236 0-0.693 0-1.388 0-2.081z"></path>
<path d="M14.482 2.897c0 0.663 0 1.327 0 1.989 0 0.279-0.091 0.417-0.402 0.472-2.56 0.418-4.761 1.712-6.331 3.559l-0.013 0.015c-0.999 1.094-1.744 2.437-2.13 3.923l-0.014 0.065c-0.004 0.032-0.012 0.062-0.022 0.089l0.001-0.002c-0.668 1.294-0.504 2.69-0.497 4.064 0.028 0.355 0.091 0.683 0.186 0.998l-0.009-0.033c0.5 2.175 1.423 4.141 3.095 5.648 1.056 0.949 2.137 1.9 3.593 2.291 0.625 0.167 1.183 0.514 1.869 0.57s0.675 0.167 0.678 0.816c0 1.207 0 2.414 0 3.625-0.014 0.126-0.043 0.242-0.083 0.35l0.003-0.009c-0.077-0.077-0.185-0.138-0.225-0.232-0.177-0.406-0.327-0.827-0.497-1.24-0.113-0.339-0.256-0.632-0.43-0.904l0.010 0.015c-0.167-0.192-0.385-0.336-0.632-0.411l-0.010-0.003c-1.319-0.387-2.469-0.907-3.528-1.559l0.062 0.036c-0.591-0.322-1.099-0.665-1.572-1.048l0.020 0.015c-0.105-0.059-0.231-0.094-0.365-0.094-0.069 0-0.136 0.010-0.2 0.027l0.005-0.001c-0.468 0.083-0.925 0.225-1.393 0.319-0.086 0.009-0.187 0.014-0.289 0.014s-0.202-0.005-0.3-0.015l0.013 0.001c0.018-0.223 0.046-0.424 0.086-0.621l-0.006 0.034c0.051-0.225 0.121-0.422 0.21-0.608l-0.008 0.017c0.125-0.213 0.199-0.469 0.199-0.743 0-0.371-0.136-0.71-0.36-0.971l0.002 0.002c-0.579-0.738-1.059-1.592-1.398-2.513l-0.022-0.065c-0.285-0.786-0.544-1.737-0.729-2.716l-0.018-0.119c-0.109-0.634-0.493-0.822-0.987-1.015-0.639-0.241-1.268-0.512-1.887-0.812-0.185-0.091-0.239-0.261 0.033-0.362 0.725-0.294 1.433-0.595 2.152-0.895 0.386-0.145 0.659-0.502 0.679-0.926v-0.002c0.298-2.115 1.138-3.993 2.377-5.54l-0.017 0.022c0.191-0.192 0.309-0.456 0.309-0.749 0-0.15-0.031-0.293-0.087-0.421l0.003 0.007c-0.177-0.435-0.214-0.928-0.362-1.382-0.087-0.287 0-0.431 0.269-0.402 0.384 0.031 0.739 0.109 1.075 0.227l-0.030-0.009c0.214 0.101 0.464 0.16 0.729 0.16 0.475 0 0.905-0.19 1.219-0.497 0.829-0.657 1.802-1.178 2.858-1.509l0.063-0.018c0.262-0.118 0.572-0.227 0.894-0.307l0.039-0.009c0.784-0.116 1.089-0.682 1.302-1.32 0.148-0.42 0.304-0.837 0.475-1.247 0.062-0.102 0.136-0.189 0.22-0.263l0.001-0.001c0.046 0.089 0.082 0.192 0.104 0.3l0.001 0.008c0.029 0.645 0.021 1.28 0.021 1.914z"></path>
<path d="M12.411 18.127c0.073-1.134 0.174-2.262 0.904-3.223 0.084-0.113 0.054-0.312 0.080-0.471-0.12-0.029-0.256-0.045-0.397-0.045-0.032 0-0.063 0.001-0.094 0.003h0.005c-0.221 0.042-0.418 0.116-0.597 0.219l0.010-0.005c-0.138 0.088-0.305 0.139-0.484 0.139-0.2 0-0.385-0.064-0.535-0.173l0.003 0.002c-0.25-0.16-0.504-0.308-0.754-0.46 0.219-0.051 0.497-0.098 0.78-0.131l0.037-0.004c0.005 0 0.012 0 0.018 0 0.658 0 1.213-0.446 1.377-1.052l0.002-0.010c0.052-0.151 0.083-0.325 0.083-0.505 0-0.542-0.272-1.019-0.688-1.304l-0.006-0.004-0.062-0.069c-0.867-0.57-0.991-0.566-1.814 0.043-0.086 0.048-0.184 0.089-0.288 0.117l-0.009 0.002c0-0.141-0.058-0.312 0-0.416 0.529-0.914 1.952-1.2 2.903-0.725 0.62 0.253 1.095 0.75 1.312 1.369l0.005 0.016c0.086 0.248 0.136 0.533 0.136 0.83 0 0.335-0.063 0.655-0.178 0.949l0.006-0.018c-0.036 0.091 0.029 0.225 0.047 0.337 0.118-0.033 0.22-0.079 0.313-0.136l-0.005 0.003c0.716-0.634 1.599-1.098 2.573-1.32l0.040-0.008c1.452-0.25 2.928-0.283 4.311 0.402 0.105 0.054 0.156 0.21 0.232 0.319-0.137 0.036-0.312 0.145-0.402 0.094-0.991-0.529-1.941-0.289-2.957-0.021-0.86 0.236-1.613 0.574-2.298 1.010l0.034-0.020c-0.134 0.074-0.245 0.173-0.332 0.291l-0.002 0.003c-0.077 0.116-0.152 0.316-0.102 0.402s0.275 0.289 0.407 0.275c0.281-0.040 0.534-0.128 0.762-0.256l-0.011 0.006c0.536-0.317 1.183-0.504 1.873-0.504s1.336 0.187 1.89 0.513l-0.017-0.010c0.973 0.482 1.699 1.341 1.99 2.38l0.007 0.026c0.639 2.505-0.679 4.633-2.987 5.108-2.457 0.507-4.17-0.754-4.874-3.038-0.096-0.285-0.151-0.614-0.151-0.955 0-0.488 0.114-0.95 0.316-1.361l-0.007 0.018c0.119-0.191 0.204-0.417 0.241-0.657l0.001-0.009c-0.012-0.199-0.105-0.374-0.249-0.492l-0.001-0.001c-0.073-0.058-0.323 0.048-0.446 0.141-0.099 0.107-0.175 0.234-0.219 0.377l-0.002 0.007c-0.668 1.515-0.987 3.059-0.479 4.713 0.086 0.331 0.162 0.738 0.211 1.153l0.004 0.043c-0.312-0.313-0.589-0.663-0.82-1.041l-0.014-0.024c-0.396-0.777-0.626-1.695-0.626-2.667 0-0.062 0.001-0.123 0.003-0.184v0.009zM21.483 18.127c0.047-1.538-1.499-2.82-2.904-2.832-1.306 0-2.827 1.555-2.834 2.863s1.575 2.951 2.903 2.879c1.426-0.073 2.914-1.349 2.83-2.905z"></path>
<path d="M21.011 18.195c0 0.008 0 0.017 0 0.027 0 1.289-1.046 2.335-2.337 2.335-0.029 0-0.059-0.001-0.088-0.002h0.004c-1.129 0.018-2.319-1.044-2.337-2.472 0-1.113 1.183-2.382 2.435-2.331s2.45 1.157 2.323 2.443z"></path>
</svg>
