<!-- Generated by IcoMoon.io -->
<svg version="1.1" xmlns="http://www.w3.org/2000/svg" width="32" height="32" viewBox="0 0 32 32">
<title>ephilims-pandaemonium</title>
<path d="M16.444 31.959c-0.283-0.081-0.891-0.142-1.336-0.162-0.466-0.020-0.951-0.142-1.073-0.304-0.202-0.243-0.121-0.324 0.425-0.506 0.364-0.101 1.012-0.263 1.437-0.344 0.87-0.142 1.154-0.546 1.154-1.599 0-0.891-0.546-2.125-0.931-2.125-0.142 0-0.688-0.364-1.194-0.81s-1.012-0.81-1.113-0.81c-0.121 0-0.425-0.445-0.708-1.012-0.405-0.81-0.466-1.093-0.304-1.538 0.304-0.789-0.061-1.133-0.992-0.971-0.992 0.202-1.235 0.445-1.235 1.295 0 0.263-0.142 0.405-0.385 0.405-0.385 0-0.546-0.283-0.729-1.255-0.061-0.243-0.182-0.486-0.304-0.526s-0.364-0.223-0.546-0.405c-0.182-0.202-0.708-0.526-1.154-0.749-0.951-0.466-1.214-1.073-0.526-1.255 0.324-0.081 0.405-0.223 0.324-0.546-0.061-0.223-0.121-0.526-0.121-0.648s-0.405-0.648-0.911-1.154c-1.174-1.214-1.214-1.457-0.283-1.376 1.316 0.081 1.741-1.255 0.85-2.753-0.587-1.012-0.506-1.579 0.202-1.397 0.567 0.142 1.356-0.506 1.356-1.093 0-0.202 0.101-0.445 0.202-0.506 0.121-0.061 0.202-0.283 0.202-0.486 0-0.364 1.437-1.862 2.166-2.226 0.546-0.283 0.769 0 0.486 0.567-0.121 0.223-0.324 0.85-0.445 1.417s-0.324 1.032-0.445 1.032c-0.162 0-0.142 0.081 0.040 0.182 0.142 0.101 0.223 0.304 0.182 0.445-0.283 0.789 1.558 2.692 2.793 2.894 1.073 0.162 2.328-0.283 2.672-0.972 0.142-0.283 0.425-0.607 0.648-0.729 0.506-0.263 0.688-1.781 0.405-3.542-0.263-1.68-0.81-2.368-2.753-3.461-1.275-0.708-2.085-0.83-3.259-0.506-0.587 0.182-1.073 0-1.073-0.405 0-0.304 2.206-1.619 3.36-2.024 0.648-0.223 1.376-0.385 1.639-0.324 0.506 0.101 1.133-0.466 1.376-1.214 0.061-0.263 0.202-0.466 0.304-0.466 0.162 0 0.81 1.235 0.81 1.579 0 0.263 1.983 2.064 2.307 2.085 0.121 0.020 0.405 0.040 0.627 0.061 0.364 0.020 0.405 0.142 0.344 1.032-0.081 1.518 0.486 2.489 1.862 3.178 0.445 0.243 0.769 0.263 1.295 0.121 0.364-0.101 0.729-0.142 0.789-0.081s-0.040 0.587-0.223 1.194c-0.364 1.154-0.344 2.975 0.061 3.461 0.121 0.142 0.587 0.324 1.032 0.405 0.911 0.142 1.214 0.486 0.729 0.83-0.182 0.142-0.283 0.385-0.223 0.546 0.081 0.202-0.182 0.567-0.708 1.032-1.295 1.093-1.498 2.611-0.466 3.279l0.486 0.324-0.749 0.688c-0.587 0.546-0.83 0.648-1.113 0.506-0.202-0.121-0.688-0.202-1.073-0.202-0.688 0-0.749 0.061-1.437 1.417-0.405 0.789-0.81 1.376-0.911 1.316s-0.283-0.425-0.405-0.81c-0.263-0.789-0.688-0.992-1.7-0.789-1.133 0.202-1.275 0.506-0.87 2.044 0.182 0.729 0.304 1.397 0.243 1.477s0.283 0.607 0.769 1.154c1.255 1.457 1.741 2.489 1.133 2.489-0.121 0-0.182 0.182-0.121 0.385 0.061 0.243-0.061 0.546-0.324 0.769-0.223 0.202-0.769 0.87-1.235 1.498-0.729 0.992-0.891 1.093-1.336 0.971z"></path>
</svg>
