<!-- Generated by IcoMoon.io -->
<svg version="1.1" xmlns="http://www.w3.org/2000/svg" width="512" height="512" viewBox="0 0 512 512">
<title>monsters-of-order</title>
<g id="icomoon-ignore">
</g>
<path d="M233.84 45.376c0 9.264 0 18.512 0 27.76 0 7.792-1.472 7.568-8.8 10.592-11.024 4.512-23.456 4.688-33.84 10.72s-22.272 9.088-31.664 16c-13.184 9.664-24.448 22.032-36.944 32.624-11.264 9.552-15.248 24.144-25.28 34.448-6.272 22.72-18.416 44.176-15.776 69.008 0.112 1.52 0.208 3.296 0.208 5.104s-0.080 3.568-0.224 5.328l0.016-0.224c-0.032 1.056-0.048 2.288-0.048 3.536 0 23.904 5.424 46.544 15.104 66.752l-0.4-0.928c11.68 25.728 28.496 47.312 49.296 64.176l0.32 0.256c17.088 14.384 37.344 25.6 59.536 32.48l1.232 0.32c5.92 1.984 12.912 3.568 20.128 4.512l0.576 0.064c4.912 0.656 6.736 2.112 6.688 7.152 0 20.912 0 41.888 0 62.848 0.064 0.4 0.096 0.848 0.096 1.312 0 1.056-0.144 2.080-0.448 3.024l0.016-0.080c-0.768 1.024-1.888 1.776-3.12 2.096l-0.048 0.016c-0.944-0.016-1.776-0.528-2.224-1.264v-0.016c-2.272-6.736-4.048-13.6-6.624-20.208-2.4-7.664-5.728-14.368-9.936-20.384l0.16 0.224c-4.144-3.632-9.344-6.144-15.088-7.008l-0.176-0.016c-26.336-6.88-49.28-18.752-68.816-34.64l0.32 0.256c-5.856-4.8-11.136-7.6-19.056-4.272s-15.664 3.984-23.456 6.848c-4.576 1.808-5.28 0-4.64-3.28 1.312-9.248 3.488-17.6 6.544-25.52l-0.256 0.8c1.088-2.112 1.712-4.608 1.712-7.264 0-4.256-1.632-8.112-4.32-10.992l0.016 0.016c-12.704-18.4-23.072-39.68-29.968-62.464l-0.416-1.616c-1.968-7.296-3.92-16.72-5.376-26.288l-0.192-1.536c-0.032-2.832-1.648-5.296-4-6.544l-0.048-0.016c-7.616-4.464-16.848-9.12-26.368-13.216l-1.712-0.672c-1.712-0.752-3.984-0.528-5.456-1.52-3.856-2.64-7.504-5.856-11.264-8.656l12.128-5.856c9.984-4.624 19.776-9.6 29.904-13.76 4.016-1.28 6.88-4.976 6.88-9.328 0-0.112 0-0.224 0-0.336v0.016c1.888-18.688 6.736-35.808 14.064-51.536l-0.4 0.976c8.272-18.336 17.6-34.080 28.448-48.672l-0.496 0.688c1.040-1.968 1.648-4.304 1.648-6.784 0-1.392-0.208-2.752-0.56-4.048l0.032 0.112c-1.52-6.384-4.64-12.416-6.272-18.864-0.208-1.632-0.32-3.504-0.32-5.424s0.112-3.792 0.32-5.648l-0.016 0.224c3.92 0.048 7.744 0.336 11.488 0.864l-0.464-0.048c6.48 0.48 12.464 2.144 17.888 4.768l-0.288-0.128c5.856 3.984 9.264 0 13.008-1.712 5.312-3.264 9.888-6.592 14.176-10.208l-0.176 0.144c14.544-10.896 31.856-19.024 50.64-23.264l0.896-0.176c17.6-3.632 24.576-14 28.96-29.296 1.936-6.432 3.936-11.712 6.224-16.832l-0.352 0.896c0.72-1.072 1.904-1.76 3.264-1.76 0.032 0 0.048 0 0.080 0 1.2 0.448 2.112 1.472 2.4 2.736v0.032c0 10.72 0 21.44 0 32.16z"></path>
<path d="M277.184 466.688c0-10.736 0-21.44 0-32.16 0-3.76 0.528-6.624 5.392-6.736 1.712 0 3.456-2.112 5.216-2.112 15.264 0 27.856-8.432 41.632-13.072 11.728-3.92 20.224-12.352 30.144-18.736 20.032-13.568 36.064-31.568 46.88-52.688l0.368-0.784c7.216-14.192 13.792-30.896 18.784-48.272l0.512-2.064c0.656-3.712 1.008-7.968 1.008-12.32 0-3.36-0.224-6.656-0.656-9.904l0.048 0.384c-0.144-2.832-0.24-6.16-0.24-9.488s0.096-6.656 0.256-9.952l-0.016 0.464c2.176-21.264-5.040-40.432-12.48-59.68-7.68-19.456-18.144-36.16-31.152-50.592l0.144 0.16c-12.784-14.528-28.608-24.432-43.984-35.152-9.792-6.112-21.184-10.864-33.312-13.664l-0.752-0.16c-8.032-2.4-15.296-8.72-24.688-6.848-0.704 0-2.992-3.456-3.056-5.328-0.352-8.784 0-17.584 0-26.304 0-13.168 0-26.304 0-39.472 0.288-1.488 0.752-2.8 1.328-4.032l-0.048 0.112c0.768 1.408 1.584 2.8 2.224 4.224 5.216 11.712 10.144 23.424 15.712 35.152 1.584 2.992 4.256 5.248 7.488 6.256l0.096 0.032c16.24 3.856 30.496 9.136 43.856 15.92l-1.12-0.512c11.792 4.448 21.92 10.688 30.64 18.48l-0.080-0.080c3.856 3.216 8.288 5.936 13.072 7.952l0.336 0.128c0.72 0.24 1.536 0.4 2.4 0.4s1.68-0.144 2.448-0.416l-0.048 0.016c8.736-2.048 17.6-4.448 26.208-6.448 5.040-1.232 6.624 0.528 5.456 5.856-1.888 8.8-3.696 17.584-6.224 26.24-0.928 3.28-1.984 6.32 0.352 8.848 5.216 5.568 5.872 14.064 13.152 18.208 0.992 0.592 1.344 2.464 1.936 3.744 10.080 22.032 21.28 43.52 23.104 68.416 0.096 8.448 5.888 15.52 13.712 17.552l0.128 0.032c9.952 3.104 19.28 8.256 28.912 12.256 2.24 0.768 5.024 1.504 7.888 2.048l0.384 0.064c1.456 0.56 2.656 1.12 3.808 1.712l-0.176-0.096c-0.768 0.592-1.344 1.408-2.176 1.712-11.728 4.736-22.208 12.768-35.184 15.28-9.824 1.936-17.168 10.288-17.6 20.4v0.048c-2.224 17.712-7.056 33.776-14.128 48.576l0.4-0.944c-7.28 16.208-15.92 30.176-26.096 42.848l0.288-0.384c-5.856 7.2-1.12 14.352-0.592 21.44 0 2.624 3.28 5.040 3.632 7.728 0.144 2.064 0.24 4.464 0.24 6.88s-0.096 4.816-0.256 7.2l0.016-0.32c-1.104 0.096-2.368 0.144-3.664 0.144-3.6 0-7.12-0.384-10.512-1.136l0.32 0.064c-20.112-7.68-20.048-7.904-37.472 3.392-1.168 0.752-2.048 2.112-3.232 2.928-12.336 8.368-26.432 15.92-41.328 21.952l-1.536 0.544c-5.568 2.4-12.032 4.176-18.768 5.008l-0.336 0.032c-4.912 0.72-8.912 4.016-10.576 8.464l-0.032 0.096c-5.168 11.712-9.968 23.44-14.96 35.152-0.464 0.896-0.976 1.664-1.552 2.368l0.016-0.032c-0.592-1.184-1.712-2.288-1.712-3.392 0-11.264 0-22.448 0-33.616z"></path>
<path d="M301.52 209.456c0 0.464 0 3.856-0.752 7.2-0.704 4.912 0.592 6.624 5.44 6.448 0.768 0 2.24-1.632 2.112-1.936-2.992-6.256-0.704-11.712 0.88-18.032 0.544-3.568 0.832-7.68 0.832-11.872 0-2.992-0.16-5.952-0.464-8.88l0.032 0.368c0-2-0.352-3.984-0.528-5.856 2.48 0.032 4.832 0.528 7.008 1.392l-0.144-0.048c9.712 5.568 17.904 12.592 24.56 20.928l0.128 0.176c5.856 8.656 12.72 16.752 15.072 27.296 0.784 2.72 1.232 5.84 1.232 9.072 0 0.288 0 0.592-0.016 0.88v-0.048c0 1.744-2.112 3.68-3.76 4.864-1.808 0.96-3.952 1.888-6.192 2.656l-0.32 0.096c-4.752 2.4-5.44 4.8-2.528 8.784 1.264 1.536 2.592 2.896 4.064 4.128l0.048 0.032c3.92 3.392 3.808 6.912-0.4 9.376s-8.8 4.112-8.736 10.304c0 0.928-2.704 2.528-4.224 2.704-3.856 0.352-7.808 0-11.728 0-8.144 0.352-12.368 3.808-12.608 12.24 0 6.32-2.048 8.656-8.368 8.368-3.856 0-5.872 2.704-6.496 6.496-0.688 4.544-1.968 8.656-3.808 12.432l0.112-0.24c-3.024 4.624-6.176 8.624-9.616 12.368l0.064-0.064c-4.4-4.384-0.88-9.904-1.952-14.752 0-1.408 0-3.056 0-4.336s-1.52-2.864-2.4-2.928c-0.88-0.064-4.464 0-5.104 1.344-1.648 2.8-2.176 6.256-3.584 9.248-1.264 2.080-2.656 3.872-4.192 5.536l0.016-0.016c-0.832-1.68-1.536-3.632-2.016-5.68l-0.032-0.192c-0.352-2.864 0-5.856 0-8.72-0.464-5.856-2.576-7.504-8.272-7.792-3.168 0-5.872 0.288-5.872 4.512 0.048 0.432 0.064 0.928 0.064 1.44s-0.032 1.008-0.080 1.504v-0.064c-0.592 4.208-1.232 8.368-1.872 12.544-6.272-0.464-5.872-6.448-8.208-10.144-0.736-1.264-1.808-2.288-3.072-2.96l-0.048-0.016c-1.056-0.416-2.288-0.672-3.568-0.672-0.688 0-1.36 0.080-2.016 0.192l0.064-0.016c-0.832 0-1.824 2.464-1.648 3.584 1.056 5.856 2.464 12.080 3.68 18.096 0.032 0.528 0.048 1.168 0.048 1.792s-0.016 1.248-0.048 1.872v-0.096c-1.52-0.768-3.68-1.056-4.384-2.224-5.088-7.568-9.888-16.224-13.936-25.328l-0.432-1.104c-1.744-4.752-3.104-6.384-7.616-5.856-5.504 0.656-8.096-1.408-7.68-7.312 0-3.216 0-8.496-1.52-9.376-5.104-2.704-10.32-6.56-16.832-4.448-3.408 1.056-6.496 1.648-8.032-3.104-1.76-4.496-4.976-8.112-9.040-10.32l-0.112-0.048c-2.992-1.808-2.992-4.736-0.352-7.312 1.488-1.312 2.832-2.688 4.048-4.16l0.048-0.064c4.688-5.856 3.168-11.36-4.688-11.712s-7.92-3.92-7.28-9.248c0.272-3.568 0.976-6.864 2.080-10l-0.080 0.288c6.112-15.568 15.68-28.624 27.824-38.72l0.16-0.128c1.072-0.8 2.304-1.472 3.648-1.952l0.096-0.032c3.856-1.712 8.976-5.856 11.424-4.512 5.456 2.688-0.352 7.376-0.352 11.248 0 6.448-2.864 13.6 2.992 19.328 0.88 0.88 0.592 3.168 0.528 4.736-0.416 1.952-0.656 4.208-0.656 6.512 0 0.192 0 0.4 0 0.608v-0.032c0.592 1.584 1.904 2.768 3.536 3.168h0.032c1.344 0 3.984-1.712 3.984-2.64-0.144-5.168-0.56-10.080-1.264-14.928l0.080 0.688c-0.528-2.032-0.912-4.384-1.056-6.816v-0.096c0.288-2.096 2.048-3.68 4.192-3.68 1.216 0 2.32 0.512 3.088 1.328 6.912 5.856 14.192 11.712 20.704 17.92 5.168 4.976 14.24 3.168 17.6 10.832 0 0 1.936 0.352 2.64 0 7.808-4.64 15.776-9.024 23.456-14.112 5.52-3.76 10.448-8.432 15.712-12.608 1.76-1.344 3.76-2.464 5.856-3.68 0.352 2.336 0.768 4.688 1.056 7.040-0.352 1.184-0.352 2.64-0.352 6.976zM225.632 285.024c4.576-3.92 9.264-7.728 13.488-11.712 0.704-0.688 0-3.984-1.12-5.2-4.144-4.816-8.512-9.168-13.2-13.168l-0.176-0.144c-4.64-3.744-9.504-1.344-12.496 4.048-4.048 7.216 0.656 13.136 2.768 18.928 0.88 2.928 6.336 4.512 10.384 7.28zM286.912 284.208c0 0 1.344 0 1.872-0.656 3.712-4.032 7.184-8.432 10.304-13.088l0.24-0.4c0.528-1.392 0.832-3.024 0.832-4.72 0-4.736-2.368-8.912-6-11.424l-0.048-0.032c-5.168-2.8-7.968 1.232-11.024 4.288-3.376 2.784-6.336 5.888-8.944 9.296l-0.096 0.144c-1.52 2.528-2.464 8.032-1.12 9.2 3.952 2.8 8.448 5.28 13.216 7.216l0.448 0.16zM268.512 264.528c-0.16-4.304-3.696-7.744-8.032-7.744-0.688 0-1.344 0.096-2 0.256l0.064-0.016c-1.264 0.656-2.768 1.040-4.368 1.040-1.232 0-2.4-0.224-3.488-0.656l0.064 0.016c-0.688-0.352-1.52-0.56-2.384-0.56-2.944 0-5.344 2.384-5.344 5.328 0 0.528 0.080 1.056 0.224 1.536l-0.016-0.032c2.368 6.176 5.184 11.52 8.512 16.464l-0.176-0.288c0.88 1.344 5.856 2.224 6.256 1.472 3.584-5.2 6.752-10.96 10.384-16.816z"></path>
</svg>
