<!-- Generated by IcoMoon.io -->
<svg version="1.1" xmlns="http://www.w3.org/2000/svg" width="512" height="512" viewBox="0 0 512 512">
<title></title>
<g id="icomoon-ignore">
</g>
<path d="M273.784 149.095c-2.721 2.896-2.257 40.702 0.682 55.662 2.478 12.619 0.469 19.311-5.805 19.315-5.92 0.006-9.411-4.059-18.983-22.107-8.172-15.407-15.315-28.409-16.976-30.9-6.588-9.878-13.357-9.662-13.245 0.422 0.061 5.546 1.673 10.021 8.709 24.194 11.588 23.339 14.132 30.782 12.019 35.148-2.411 4.98-6.704 4.288-10.75-1.732-6.044-8.993-27.23-30.125-34.572-34.487-3.258-1.935-6.57-0.26-6.57 3.323 0 2.775 0.37 3.491 5.522 10.685 10.070 14.060 31.083 46.113 34.945 53.305 4.68 8.713 4.737 10.322 0.59 16.728-1.738 2.682-3.876 6.188-4.75 7.788-3.338 6.106-10.235 7.44-26.218 5.069-10.779-1.599-12.286-1.337-16.059 2.791-7.23 7.911-6.041 11.842 3.526 11.66l5.663-0.108 5.151 2.44c5.611 2.659 8.969 3.781 11.347 3.79 2.804 0.012 7.066 1.298 11.405 3.44 5.216 2.575 9.998 3.642 19.566 4.359l6.688 0.502 0.517 6.582c0.841 10.716 0.306 10.49 9.5 4.063 11.794-8.245 12.121-7.771 12.712 18.502 0.329 14.538 0.204 13.973 3.163 14.37 7.887 1.058 10.3-6.337 10.329-31.648 0.007-6.853 0.169-11.536 0.385-11.161 2.202 3.82 5.105 16.25 6.266 26.83 1.809 16.49 3.623 18.139 14.271 12.995 6.426-3.105 6.864-3.996 5.262-10.702-1.546-6.473-2.346-14.562-1.781-17.989 0.715-4.327 1.031-4.694 4.039-4.694 2.471 0 2.51-0.021 4.726-2.392 2.56-2.738 4.294-3.619 7.129-3.619 4.457 0 4.592-1.257 0.731-6.769-9.094-12.978-7.702-36.37 5.255-88.317 5.382-21.577 6.551-31.536 6.075-51.728-0.254-10.734-0.509-11.722-3.084-11.937-4.457-0.371-6.988 5.22-8.709 19.234-1.474 12.004-1.962 13.29-10.097 26.63-3.334 5.467-6.221 10.357-6.417 10.865-0.51 1.334-1.721 2.279-3.565 2.78-5.623 1.528-8.938-4.083-10.606-17.953-0.757-6.293-2.077-12.619-3.668-17.585-1.6-4.994-2.159-7.863-2.597-13.322-0.382-4.76-1.38-7.875-3.749-11.696-2.365-3.814-3.312-6.519-3.312-9.473 0-3.872-2.435-5.522-4.658-3.155l-0.001 0.001z"></path>
<path d="M426.768 94.88c-1.68 8.288-3.872 15.488-6.624 22.4l0.304-0.864c-1.232 2.080-1.968 4.592-1.968 7.264 0 4.24 1.84 8.064 4.768 10.688l0.016 0.016c10.064 12.368 18.208 26.768 23.712 42.448l0.32 1.008c5.568 13.12 9.792 28.368 11.92 44.272l0.096 0.912c0.128 5.584 3.616 10.304 8.512 12.256l0.096 0.032c14.768 5.2 27.712 14.864 43.536 17.568 0.896 0.384 1.68 0.896 2.336 1.52-0.624 0.624-1.376 1.168-2.176 1.616l-0.048 0.032c-10.656 3.92-21.968 6.432-30.88 14.224-16.64 0-21.92 10.080-22.624 25.232-1.056 8.688-3.104 16.608-6.080 24.064l0.224-0.64c-2.4 8.688-5.312 16.16-8.88 23.28l0.336-0.736c-5.568 12.048-12.032 22.448-19.632 31.92l0.224-0.288c-10.32 11.696-8.912 22.656-4.848 35.12 1.28 4.080 2.944 8.016 3.984 12.176s-1.344 5.856-4.752 4.752c-7.264-2.048-14.544-4.16-21.68-6.624-2.016-0.944-4.4-1.488-6.88-1.488-4.080 0-7.824 1.472-10.72 3.904l0.032-0.016c-10.48 8.56-22.448 15.952-35.328 21.664l-1.008 0.4c-6.96 2.864-13.824 5.856-20.864 8.544s-13.712 4.048-20.096 7.024c-3.472 1.344-6.272 3.808-8 6.944l-0.048 0.080c-5.856 10.768-9.136 22.544-14.416 33.488-0.672 1.104-1.792 1.856-3.088 2.048h-0.016c-0.992 0-1.936-1.52-2.752-2.512-0.096-0.208-0.16-0.448-0.16-0.704s0.064-0.496 0.16-0.72v0.016c4.384-19.968-2.048-39.856-0.464-59.936-0.032-0.256-0.032-0.544-0.032-0.848 0-4.944 3.824-9.008 8.672-9.392h0.032c12.832-3.28 25.488-7.088 38.192-10.656 1.52-0.512 2.832-1.088 4.064-1.776l-0.144 0.064c25.552-12.704 47.040-29.952 64.192-50.88l0.256-0.336c5.856-7.44 10.784-15.168 15.936-22.944 5.456-8.608 9.824-18.576 12.512-29.2l0.16-0.72c0.176-1.52 0.544-2.896 1.088-4.192l-0.032 0.096c8.368-12.88 8.256-27.28 7.792-41.808v-7.312c0-35.952 0.656-36.176-12.064-68.496-5.936-14.592-13.232-27.2-21.968-38.624l0.304 0.4c-10.336-14.144-22.464-26.192-36.256-36.080l-0.48-0.336c-8.736-5.856-17.568-11.696-26.768-17.552-1.344-0.64-2.912-1.008-4.592-1.008-0.448 0-0.88 0.032-1.312 0.080h0.048c-3.952-0.32-7.568-1.552-10.72-3.456l0.112 0.064c-7.648-3.28-16.672-6.128-26.032-8.048l-0.928-0.16c-8.544-1.936-11.312-3.984-11.712-12.656v-59.968c0-1.12 1.056-2.176 1.712-3.264 0.928 0.368 1.712 0.88 2.4 1.52 1.824 2.416 3.52 5.168 4.976 8.064l0.144 0.304c3.392 7.776 6.848 15.632 9.664 23.712 1.888 6.064 6.944 10.608 13.2 11.68l0.112 0.016c13.952 2.832 26.32 7.232 37.808 13.088l-0.832-0.384c14.944 6.864 27.792 14.688 39.632 23.776l-0.48-0.352c3.68 3.040 8.448 4.864 13.632 4.864 2.768 0 5.424-0.528 7.84-1.472l-0.144 0.048c7.712-1.664 14.128-3.472 20.384-5.648l-1.232 0.368c4.624-1.712 4.336 0.704 4.4 7.024l-0.080 0.016z"></path>
<path d="M234.384 29.552c-0.928 4.912-2.4 11.408-3.344 18.032-0.064 0.736-0.096 1.616-0.096 2.496 0 2.112 0.208 4.176 0.608 6.176l-0.032-0.208c0.8 3.44 1.488 7.744 1.952 12.144l0.048 0.512c0.304 13.12 0 12.352-12.832 15.28-28.656 6.496-55.776 16.384-77.008 38.16-4.368 4.048-9.12 7.888-14.096 11.408l-0.432 0.288c-12.48 9.824-18.992 24.112-26.944 37.104-7.088 11.712-14.768 23.424-15.008 37.888-10.32 22.176-5.872 45.84-5.216 68.672 1.584 17.952 6.512 34.432 14.176 49.28l-0.336-0.752c10.624 23.52 25.552 43.376 43.92 59.36l0.192 0.176c10.928 9.952 23.28 18.624 36.656 25.6l0.96 0.448c3.456 1.52 7.888 3.136 12.4 4.512l0.896 0.24c10.656 4.496 23.344 8.528 36.464 11.424l1.504 0.288c3.808 0.704 5.040 2.512 4.736 5.856-1.28 14.336 2.176 28.8-2.176 43.2-1.584 5.376 1.456 12.064 2.112 18.144 0.144 1.088 0.224 2.352 0.224 3.632s-0.080 2.544-0.224 3.776l0.016-0.16c-0.352 0.864-1.104 1.52-2.032 1.68h-0.016c-1.232 0-3.456-0.88-3.52-1.52-1.168-14.688-10.544-26.224-15.408-39.456-0.752-1.984-3.104-4.752-4.848-4.8-14.176-0.88-25.072-11.696-39.312-12.224-14.112-9.664-31.056-14.864-43.072-27.68-2.176-2.656-5.456-4.352-9.12-4.352-1.408 0-2.736 0.256-3.968 0.688l0.080-0.032c-8.672 2.4-17.28 4.8-25.888 7.376-4.096 1.232-5.344-0.88-5.152-4.272 0.256-2.592 0.72-4.944 1.408-7.232l-0.064 0.256c2.176-8.192 4.624-16.336 6.512-24.592-0.128-2.24-0.976-4.272-2.368-5.856l0.016 0.016c-13.824-19.296-24.944-41.696-32.16-65.776l-0.416-1.6c-2.064-6.56-3.856-14.464-5.008-22.592l-0.096-0.832c-1.28-10.544-4.736-16.384-14.88-18.032-12.432-1.936-21.92-9.024-32.16-14.992-2.704-1.52-1.888-1.808 0-3.52 9.424-8.016 21.328-10.352 32.464-14.224 8.4-2.144 14.576-9.584 14.704-18.48v-0.016c1.504-14.224 4.816-27.28 9.728-39.52l-0.352 0.992c7.44-20.32 18.032-37.824 31.328-52.848l-0.16 0.176c1.952-1.776 3.184-4.32 3.184-7.168 0-1.664-0.416-3.232-1.168-4.592l0.032 0.048c-2.752-5.584-4.64-12.064-5.312-18.912l-0.016-0.24c-2.336-15.152-2.992-15.088 12.368-10.304 7.216 2.288 14.704 7.376 21.44 6.432s13.056-7.44 19.104-12.064c13.824-10.592 30.24-16.112 45.472-23.888 5.168-1.84 11.232-3.264 17.504-4.064l0.432-0.048c5.152-0.784 9.264-4.448 10.704-9.264l0.032-0.096c4.096-11.696 11.712-21.904 14-34.304 0-0.768 0.992-1.456 1.456-2.224 1.168 0.88 3.168 1.584 3.328 2.576 0.768 5.040 1.232 10.768 2.112 18.32l-0.032 0.080z"></path>
</svg>
