<!-- Generated by IcoMoon.io -->
<svg version="1.1" xmlns="http://www.w3.org/2000/svg" width="32" height="32" viewBox="0 0 32 32">
<title>bladeborn-morgok</title>
<path d="M14.575 2.852c0 0.638 0 1.274 0 1.911 0 0.427-0.124 0.58-0.506 0.601-1.706 0.098-3.134 0.884-4.49 1.82-1.31 0.944-2.378 2.137-3.153 3.518l-0.028 0.054c-0.632 1.026-1.070 2.238-1.232 3.535l-0.005 0.044c-0.193 1.901-0.197 3.845 0.707 5.64 0.359 0.806 0.717 1.479 1.115 2.122l-0.044-0.076c0.583 0.859 1.181 1.737 2.118 2.284 0.688 0.4 1.279 0.939 1.994 1.329 0.561 0.264 1.249 0.525 1.958 0.741l0.116 0.031c0.278 0.094 0.602 0.164 0.937 0.196l0.017 0.001c0.365 0.052 0.504 0.266 0.5 0.619 0 1.336 0 2.669 0 4.005 0 0.087-0.091 0.172-0.139 0.259-0.069-0.058-0.168-0.102-0.197-0.174-0.153-0.386-0.295-0.776-0.43-1.168-0.28-0.834-0.642-1.584-1.637-1.773-0.929-0.211-1.748-0.561-2.484-1.031l0.031 0.018c-0.791-0.391-1.473-0.825-2.102-1.322l0.024 0.018c-0.118-0.075-0.262-0.119-0.415-0.119-0.063 0-0.125 0.008-0.184 0.021l0.005-0.001c-0.664 0.151-1.206 0.308-1.736 0.49l0.117-0.035c-0.251 0.080-0.364 0-0.364-0.234 0.039-0.229 0.092-0.429 0.161-0.622l-0.008 0.025c0.016-0.136 0.043-0.259 0.080-0.378l-0.004 0.014c0.146-0.257 0.234-0.564 0.234-0.891 0-0.47-0.178-0.899-0.471-1.223l0.001 0.002c-0.907-1.093-1.337-2.428-1.731-3.768-0.145-0.441-0.237-0.949-0.255-1.476v-0.009c0-0.393-0.234-0.524-0.489-0.648-0.777-0.364-1.567-0.729-2.35-1.093-0.093-0.062-0.173-0.134-0.243-0.213l-0.001-0.002c0.080-0.069 0.146-0.168 0.237-0.204 0.798-0.324 1.6-0.637 2.398-0.961 0.263-0.101 0.445-0.351 0.445-0.643 0-0.010 0-0.019-0.001-0.027v0.001c0.111-1.138 0.394-2.183 0.823-3.148l-0.025 0.064c0.429-1.077 1.007-2.003 1.721-2.805l-0.009 0.010c0.138-0.152 0.222-0.354 0.222-0.575 0-0.096-0.015-0.189-0.045-0.275l0.002 0.005c-0.083-0.4-0.251-0.786-0.364-1.18-0.060-0.146-0.109-0.318-0.137-0.496l-0.002-0.014c0-0.204 0.058-0.364 0.317-0.28 0.514 0.145 1.035 0.263 1.542 0.422 0.090 0.035 0.194 0.055 0.302 0.055 0.2 0 0.384-0.069 0.529-0.184l-0.002 0.001c0.659-0.455 1.378-0.826 2.055-1.256 0.871-0.557 1.892-0.692 2.836-1.048 0.205-0.073 0.37-0.219 0.464-0.407l0.002-0.005c0.3-0.492 0.55-1.061 0.718-1.664l0.012-0.047c0.071-0.179 0.158-0.334 0.262-0.476l-0.004 0.006c0.029-0.047 0.124-0.105 0.143-0.091 0.064 0.038 0.111 0.098 0.131 0.17l0.001 0.002c0 0.364 0 0.729 0 1.093z"></path>
<path d="M17.261 29.086c0-0.7 0-1.394 0-2.093 0-0.255 0.106-0.342 0.365-0.397 0.938-0.137 1.778-0.355 2.58-0.651l-0.087 0.028c0.902-0.375 1.678-0.858 2.362-1.447l-0.011 0.010c1.312-1.172 2.678-2.33 3.208-4.147 0.153-0.52 0.459-0.994 0.612-1.547 0.165-0.563 0.259-1.209 0.259-1.877 0-0.022 0-0.045 0-0.067v0.003c0-0.699-0.033-1.398 0-2.093-0.002-0.816-0.158-1.595-0.441-2.311l0.015 0.043c-0.226-0.621-0.454-1.134-0.713-1.629l0.035 0.074c-0.457-0.976-1.056-1.807-1.78-2.51l-0.002-0.002c-0.721-0.72-1.535-1.348-2.422-1.863l-0.056-0.030c-1.008-0.602-2.19-1.031-3.452-1.21l-0.050-0.006c-0.239-0.017-0.426-0.213-0.426-0.454 0-0.018 0.001-0.034 0.003-0.050v0.002c0-1.393 0-2.787 0-4.18 0-0.062 0.077-0.12 0.116-0.178 0.030 0.042 0.059 0.089 0.084 0.139l0.003 0.007c0.309 0.772 0.638 1.536 0.918 2.315 0.109 0.285 0.372 0.488 0.682 0.514h0.003c1.094 0.109 2.038 0.662 2.985 1.147 0.653 0.336 1.216 0.709 1.733 1.134l-0.016-0.014c0.211 0.2 0.497 0.323 0.812 0.323 0.218 0 0.422-0.059 0.597-0.162l-0.006 0.003c0.164-0.073 0.342-0.219 0.491-0.193 0.365 0.062 0.657-0.389 1.028-0.116-0.084 0.309-0.182 0.619-0.251 0.936-0.084 0.309-0.161 0.693-0.213 1.084l-0.005 0.048c-0.003 0.030-0.004 0.064-0.004 0.099 0 0.183 0.044 0.355 0.12 0.509l-0.003-0.007c0.255 0.47 0.565 0.911 0.831 1.373 0.595 0.918 1.027 2 1.225 3.161l0.007 0.050c0.045 0.395 0.114 0.752 0.212 1.097l-0.011-0.047c0.066 0.418 0.345 0.757 0.721 0.908l0.007 0.003c0.838 0.298 1.64 0.696 2.456 1.056 0.071 0.042 0.132 0.090 0.186 0.145-0.043 0.027-0.093 0.053-0.146 0.077l-0.008 0.003c-0.827 0.331-1.651 0.67-2.482 0.983-0.399 0.145-0.691 0.495-0.75 0.918l-0.001 0.006c-0.073 0.247-0.133 0.541-0.168 0.845l-0.003 0.026c-0.087 1.515-0.853 2.752-1.611 4.005-0.266 0.43-0.583 0.826-0.86 1.248-0.018 0.048-0.029 0.103-0.029 0.16s0.011 0.112 0.030 0.164l-0.001-0.003c0.153 0.572 0.298 1.147 0.485 1.708 0.073 0.211 0.124 0.364-0.164 0.324s-0.587-0.084-0.879-0.128c-0.096-0.004-0.185-0.025-0.268-0.060l0.005 0.002c-0.682-0.386-1.275-0.139-1.822 0.284-1.021 0.813-2.246 1.418-3.583 1.729l-0.061 0.011c-0.188 0.039-0.355 0.1-0.509 0.183l0.010-0.005c-0.365 0.2-0.693 0.364-0.835 0.826-0.282 0.793-0.564 1.443-0.882 2.072l0.047-0.102c-0.033 0.077-0.077 0.149-0.116 0.226-0.045-0.067-0.080-0.144-0.098-0.229l-0.001-0.004c0-0.729 0-1.456 0-2.184z"></path>
<path d="M23.016 12.927c0.006 0.056 0.009 0.121 0.009 0.187 0 0.765-0.432 1.43-1.066 1.763l-0.011 0.005c-0.266 0.157-0.404 0.557-0.554 0.87s-0.226 0.364-0.39 0c-0.167-0.331-0.331-0.607-0.51-0.873l0.018 0.028c-0.058-0.112-0.173-0.185-0.305-0.185-0.113 0-0.211 0.054-0.274 0.137l-0.001 0.001c-0.313 0.32-0.309 0.619 0 1.012s0.317 0.393-0.037 0.793c-0.175 0.201-0.313 0.433-0.481 0.641s-0.386 0.474-0.729 0.422c-0.477-0.069-0.583 0.226-0.696 0.623-0.255 0.903 0.095 1.456 1.028 1.511 0.27 0 0.543 0 0.816 0h0.364c-0.039 0.118-0.089 0.221-0.149 0.315l0.004-0.006c-0.139 0.16-0.309 0.291-0.445 0.455-0.184 0.25-0.475 0.411-0.806 0.411-0.050 0-0.099-0.004-0.148-0.011l0.006 0.001c-0.035-0.003-0.075-0.004-0.117-0.004-0.392 0-0.75 0.139-1.030 0.371l0.003-0.002c-0.98 0.673-2.045 0.791-3.072 0-0.158-0.145-0.341-0.267-0.541-0.358l-0.013-0.005c-0.095-0.016-0.204-0.025-0.315-0.025s-0.22 0.009-0.327 0.026l0.012-0.002c-0.597-0.004-1.107-0.364-1.33-0.879l-0.004-0.010c-0.069-0.13-0.069-0.229 0.105-0.236 0.109-0.007 0.237-0.012 0.365-0.012s0.255 0.005 0.381 0.014l-0.016-0.001c0.067 0.014 0.144 0.021 0.222 0.021 0.432 0 0.81-0.234 1.010-0.583l0.003-0.006c0.091-0.171 0.259-0.323 0.073-0.568-0.095-0.124-0.048-0.364-0.077-0.524-0.062-0.404-0.171-0.488-0.597-0.455-0.080 0-0.208 0.098-0.23 0.073-0.372-0.393-0.73-0.813-1.066-1.252l-0.027-0.038c-0.222-0.309 0.029-0.63 0.145-0.932 0.053-0.093 0.096-0.202 0.122-0.316l0.002-0.007c0-0.066-0.088-0.16-0.164-0.197-0.010-0.002-0.021-0.003-0.033-0.003-0.065 0-0.124 0.029-0.163 0.075-0.139 0.23-0.245 0.477-0.365 0.71-0.043 0.069-0.139 0.109-0.211 0.164-0.043-0.077-0.087-0.149-0.128-0.226-0.050-0.085-0.102-0.189-0.148-0.296l-0.008-0.020c-0.211-0.536-0.211-0.536-0.729-0.309-0.47 0.204-0.864 0.044-0.879-0.462-0.046-0.472-0.195-0.901-0.423-1.277l0.008 0.013c-0.096-0.198-0.152-0.429-0.152-0.674 0-0.224 0.046-0.436 0.131-0.628l-0.004 0.010c0.325-0.928 1.094-1.456 1.778-2.064 0.073-0.062 0.226-0.033 0.364-0.044 0.001 0.019 0.002 0.041 0.002 0.063 0 0.106-0.012 0.211-0.036 0.31l0.002-0.009c-0.109 0.281-0.232 0.52-0.375 0.746l0.011-0.018c-0.317 0.488-0.168 0.914 0.149 1.318 0.142 0.203 0.374 0.334 0.638 0.334 0.213 0 0.406-0.086 0.547-0.225 0.339-0.317 0.642-0.637 1.166-0.55 0.091 0 0.211-0.102 0.299-0.175 0.452-0.382 0.9-0.764 1.341-1.153 0.696-0.619 1.25-0.644 1.979-0.080l1.561 1.198c0.084 0.072 0.178 0.141 0.276 0.207l0.012 0.008c0.211 0.124 0.423-0.265 0.649 0 0.149 0.175 0.336 0.317 0.485 0.488 0.135 0.178 0.346 0.293 0.585 0.293 0.145 0 0.281-0.043 0.396-0.116l-0.003 0.002c0.229-0.213 0.383-0.503 0.422-0.827l0.001-0.007c0.102-0.553-0.197-1.037-0.39-1.536-0.019-0.066-0.031-0.143-0.036-0.223v-0.003c0.083 0 0.182-0.022 0.248 0 0.721 0.396 1.302 0.969 1.694 1.661l0.012 0.021c0.103 0.332 0.165 0.715 0.172 1.111v0.003zM13.992 14.468c-0.364 0-0.765 0.542-0.616 0.805 0.232 0.36 0.493 0.673 0.785 0.952l0.002 0.002c0.277 0.288 0.601 0.073 0.904 0 0.412-0.083 0.437-0.138 0.28-0.513-0.058-0.139-0.182-0.262-0.193-0.4-0.069-0.793-0.736-0.702-1.162-0.845zM17.229 16.24c0.061 0.014 0.131 0.023 0.203 0.023 0.295 0 0.555-0.143 0.718-0.363l0.002-0.003c0.204-0.364 0.448-0.699 0.299-1.223-0.098-0.364-0.295-0.292-0.434-0.28-0.729 0.058-1.126 0.572-1.378 1.205-0.189 0.477-0.069 0.63 0.591 0.641zM15.176 18.155c0 0.054-0.062 0.12-0.048 0.168 0.134 0.523 0.283 0.964 0.462 1.391l-0.024-0.065c0.058 0.131 0.342 0.193 0.532 0.215s0.364-0.139 0.43-0.364 0.135-0.389 0.182-0.586c0.054-0.251 0.083-0.503 0.128-0.754-0.178 0.16-0.364 0.309-0.532 0.484-0.067 0.095-0.175 0.156-0.298 0.156s-0.232-0.061-0.298-0.155l-0.001-0.001c-0.117-0.128-0.236-0.247-0.36-0.36l-0.004-0.004c-0.049-0.044-0.105-0.084-0.162-0.12l-0.006-0.003z"></path>
</svg>
