<!-- Generated by IcoMoon.io -->
<svg version="1.1" xmlns="http://www.w3.org/2000/svg" width="32" height="32" viewBox="0 0 32 32">
<title>bladeborn-farstrider</title>
<path d="M14.582 29.265c0 0.643 0 1.286 0 1.93-0.014 0.088-0.040 0.166-0.076 0.24l0.002-0.005c-0.078-0.070-0.187-0.128-0.224-0.217-0.221-0.526-0.453-1.051-0.626-1.592-0.156-0.598-0.678-1.038-1.306-1.070h-0.004c-0.868-0.041-1.516-0.566-2.244-0.889-0.785-0.371-1.462-0.803-2.077-1.307l0.018 0.014c-0.22-0.212-0.52-0.343-0.85-0.343-0.135 0-0.266 0.022-0.387 0.062l0.009-0.003c-0.367 0.117-0.736 0.246-1.104 0.367-0.584 0.18-0.758 0.037-0.599-0.551 0.114-0.434 0.331-0.842 0.434-1.275 0.026-0.087 0.042-0.187 0.042-0.291 0-0.17-0.042-0.331-0.114-0.473l0.003 0.006c-0.916-1.286-1.659-2.775-2.149-4.374l-0.029-0.109c-0.138-0.385-0.217-0.827-0.217-1.289 0-0.016 0-0.032 0-0.048v0.002c0.018-0.541-0.279-0.761-0.688-0.941-0.71-0.32-1.42-0.632-2.127-0.959-0.099-0.045-0.169-0.158-0.254-0.242 0.090-0.064 0.192-0.125 0.3-0.178l0.014-0.006c0.719-0.299 1.437-0.592 2.155-0.879 0.342-0.12 0.585-0.434 0.596-0.807v-0.001c0.298-2.051 0.927-3.999 2.328-5.575 0.644-0.736 0.236-1.418 0.17-2.135-0.050-0.347-0.118-0.651-0.206-0.947l0.011 0.045c0.375 0.006 0.736 0.058 1.079 0.15l-0.031-0.007c0.249 0.13 0.545 0.205 0.858 0.205 0.467 0 0.896-0.17 1.227-0.45l-0.003 0.002c1.15-0.863 2.5-1.538 3.962-1.943l0.084-0.020c0.528-0.132 0.947-0.512 1.13-1.006l0.004-0.012c0.187-0.478 0.39-0.948 0.603-1.411 0.079-0.122 0.169-0.227 0.27-0.319l0.001-0.001c0.068 0.117 0.128 0.253 0.175 0.395l0.005 0.016c0.024 0.112 0.039 0.241 0.039 0.374 0 0.027-0.001 0.055-0.002 0.082v-0.004c0 0.981 0 1.963 0 2.94 0.005 0.030 0.008 0.065 0.008 0.101 0 0.336-0.261 0.611-0.591 0.634h-0.002c-0.932 0.196-1.738 0.439-2.512 0.742l0.107-0.037c-1.792 0.71-3.275 1.876-4.351 3.357l-0.020 0.028c-0.64 0.834-1.188 1.787-1.601 2.811l-0.029 0.081c-0.78 2.205-1.085 4.41-0.368 6.737 0.468 1.612 1.227 3.011 2.223 4.204l-0.016-0.018c1.457 1.666 3.361 2.91 5.523 3.548l0.084 0.021c0.401 0.121 1.030 0.045 1.181 0.291 0.228 0.367 0.129 0.93 0.154 1.411 0 0.305 0 0.614 0 0.918z"></path>
<path d="M17.393 29.277c0-0.584 0.033-1.168 0-1.746-0.011-0.045-0.016-0.098-0.016-0.151 0-0.382 0.309-0.691 0.691-0.691 0.009 0 0.016 0 0.025 0h-0.001c1.807-0.209 3.311-1.080 4.687-2.182 1.457-1.148 2.599-2.632 3.317-4.339l0.026-0.072c0.402-0.814 0.646-1.771 0.666-2.782v-0.007c-0.029-0.736 0-1.471 0-2.205 0.023-2.33-0.982-4.241-2.402-6.002-1.039-1.317-2.369-2.36-3.897-3.039l-0.065-0.026c-0.712-0.304-1.592-0.605-2.496-0.848l-0.148-0.034c-0.305-0.088-0.386-0.209-0.386-0.492 0-1.316 0-2.635 0-3.95 0.012-0.084 0.033-0.16 0.061-0.231l-0.002 0.007c0.045 0.073 0.092 0.147 0.129 0.224 0.277 0.596 0.585 1.176 0.817 1.79 0.141 0.394 0.467 0.691 0.871 0.788l0.009 0.002c1.843 0.561 3.448 1.386 4.868 2.444l-0.041-0.029c0.309 0.221 0.861 0.158 1.298 0.133 0.528-0.056 1-0.141 1.46-0.254l-0.073 0.016c-0.047 0.499-0.141 0.957-0.281 1.395l0.012-0.046c-0.279 0.684-0.077 1.198 0.328 1.746 1.066 1.47 1.802 3.244 2.064 5.169l0.007 0.060c0.041 0.492 0.393 0.892 0.857 1.005l0.008 0.002c0.703 0.242 1.372 0.584 2.057 0.886 0.066 0.029 0.125 0.070 0.187 0.103-0.066 0.063-0.121 0.151-0.198 0.184-0.544 0.286-1.227 0.592-1.927 0.862l-0.143 0.048c-0.47 0.111-0.82 0.51-0.854 0.996v0.004c-0.285 1.993-1.025 3.773-2.11 5.287l0.024-0.036c-0.35 0.409-0.563 0.945-0.563 1.529 0 0.255 0.041 0.5 0.115 0.729l-0.005-0.016c0.029 0.114 0.111 0.217 0.133 0.334 0.048 0.242 0.074 0.492 0.107 0.735-0.003 0-0.006 0-0.009 0-0.339 0-0.671-0.028-0.994-0.082l0.035 0.005c-0.343-0.084-0.659-0.279-0.997-0.367-0.042-0.010-0.090-0.014-0.141-0.014-0.135 0-0.261 0.039-0.366 0.108l0.003-0.002c-1.015 0.791-2.178 1.463-3.428 1.965l-0.097 0.034c-0.533 0.195-1.104 0.316-1.608 0.547-0.247 0.145-0.44 0.359-0.555 0.616l-0.004 0.009c-0.312 0.611-0.574 1.246-0.853 1.871-0.037 0.080-0.084 0.154-0.125 0.232-0.032-0.085-0.058-0.186-0.073-0.289l-0.001-0.008c0-0.636 0-1.275 0-1.922z"></path>
<path d="M12.931 14.771c-0.012 0.090-0.018 0.195-0.018 0.3 0 0.757 0.334 1.438 0.861 1.902l0.003 0.003c0.29 0.244 0.473 0.607 0.473 1.014 0 0.269-0.080 0.52-0.219 0.729l0.003-0.005c-0.287 0.467-0.242 1.367-1.232 1.051-0.074-0.022-0.224 0.184-0.331 0.291s-0.25 0.254-0.367 0.367c0.041-0.166 0.080-0.334 0.129-0.5 0.064-0.271 0.137-0.5 0.222-0.721l-0.012 0.037c0.066-0.154 0.191-0.416 0.276-0.412 0.714 0.048 0.655-0.445 0.622-0.871-0.041-0.533-0.504-0.809-0.938-0.496-0.706 0.514-1.508 0.389-2.274 0.514-0.018 0-0.107-0.177-0.084-0.199 0.294-0.312 0.597-0.614 0.909-0.907 0.052-0.052 0.209-0.088 0.236-0.059 0.673 0.758 0.806-0.158 1.001-0.4 0.269-0.33 0-0.791-0.618-1.004-0.45-0.136-1.012-0.264-1.586-0.357l-0.081-0.011c-0.367-0.078-0.736-0.17-1.104-0.254 0.279-0.143 0.609-0.278 0.952-0.384l0.045-0.013c0.53-0.11 1.075-0.154 1.615-0.217s0.875-0.397 0.816-0.875c-0.066-0.562-0.368-0.735-0.96-0.735-0.352-0.070-0.662-0.215-0.924-0.418l0.005 0.004c-0.129-0.080-0.187-0.279-0.277-0.423 0.126 0.050 0.277 0.092 0.431 0.119l0.014 0.002c0.139 0 0.368 0 0.408-0.063 0.17-0.401 0.423-0.239 0.648-0.121s0.445 0.316 0.681 0.445c0.541 0.287 0.784 0.217 1.126-0.279 0.068-0.156 0.107-0.338 0.107-0.53 0-0.277-0.082-0.535-0.224-0.751l0.003 0.005c-0.043-0.039-0.097-0.066-0.157-0.073h-0.002c-0.213-0.037-0.559 0-0.621-0.103-0.159-0.332-0.301-0.724-0.405-1.13l-0.010-0.046c0-0.045 0.029-0.107 0.045-0.158 0.045 0.045 0.080 0.092 0.125 0.132 0.294 0.264 0.515 0.555 1.026 0.548 0.236 0 0.529 0.537 0.706 0.879s0.438 0.584 0.78 0.426c0.28-0.147 0.491-0.394 0.587-0.693l0.002-0.009c0.187-0.735 0.265-1.47 0.394-2.205 0.040-0.24 0.085-0.444 0.143-0.643l-0.010 0.040c0.045-0.1 0.094-0.186 0.15-0.266l-0.003 0.005c0.062 0.070 0.162 0.128 0.18 0.205 0.084 0.367 0.166 0.764 0.221 1.15 0.045 0.607 0.12 1.157 0.228 1.697l-0.014-0.087c0.096 0.343 0.309 0.627 0.591 0.813l0.006 0.003c0.324 0.176 0.611-0.070 0.769-0.434 0.080-0.187 0.368-0.309 0.398-0.486 0.074-0.507 0.39-0.543 0.78-0.514 0.014 0.002 0.030 0.003 0.046 0.003s0.032-0.001 0.047-0.003h-0.002l0.615-0.213c0.059 0.291-0.398 1.176-0.654 1.158-0.736-0.055-0.486 0.614-0.699 0.926-0.055 0.080 0.099 0.397 0.236 0.489 0.302 0.205 0.603 0.434 1.030 0.129s0.931-0.812 1.505-0.151c0.033 0.041 0.177 0.026 0.25 0 0.172-0.078 0.316-0.155 0.454-0.241l-0.016 0.010c-0.121 0.158-0.209 0.367-0.368 0.463-0.328 0.198-0.581 0.555-1.104 0.389-0.154-0.048-0.633 0.463-0.736 0.782-0.114 0.419 0.328 0.761 0.839 0.867 0.703 0.143 1.398 0.323 2.094 0.492 0.097 0.030 0.179 0.065 0.258 0.107l-0.008-0.004c-0.075 0.033-0.167 0.064-0.262 0.089l-0.014 0.003c-0.589 0.125-1.177 0.228-1.758 0.367-0.312 0.044-0.592 0.154-0.835 0.317l0.007-0.005c-0.25 0.224-0.493 0.514-0.224 0.948 0.228 0.367 0.368 0.676 0.886 0.426 0.030-0.006 0.065-0.010 0.101-0.010 0.127 0 0.243 0.046 0.334 0.121l-0.001-0.001c0.237 0.201 0.451 0.412 0.649 0.636l0.006 0.007c0.111 0.124 0.222 0.258 0.325 0.397l0.010 0.014c-0.116-0.064-0.263-0.134-0.413-0.198l-0.032-0.011c-0.111-0.041-0.265-0.107-0.346-0.062-0.736 0.397-1.239-0.162-1.803-0.455-0.136-0.070-0.367-0.191-0.427-0.143-0.232 0.246-0.589 0.541-0.578 0.809s-0.114 0.988 0.691 0.871c0.143-0.022 0.416 0.533 0.559 0.852 0.086 0.249 0.152 0.539 0.186 0.841l0.002 0.019c-0.184-0.205-0.368-0.412-0.552-0.614-0.079-0.088-0.168-0.167-0.264-0.236l-0.005-0.003c-0.64 0.555-0.64-0.048-0.798-0.419-0.124-0.229-0.254-0.427-0.4-0.611l0.007 0.009c-0.159-0.194-0.255-0.445-0.255-0.718 0-0.34 0.149-0.645 0.386-0.854l0.001-0.001c1.313-1.381 1.427-3.039 0.339-4.505-0.776-1.047-2.546-1.471-3.679-0.86-0.37 0.177-0.689 0.382-0.979 0.624l0.008-0.006c-0.868 0.816-0.898 0.941-0.898 2.326z"></path>
<path d="M16.116 13.271c0.121 0 0.246 0 0.368 0l1.707 0.117c0 0.787 0.041 1.576 0.041 2.363 0 0.041-0.205 0.129-0.305 0.117-1.409-0.187-1.471-0.114-1.505 1.342-0.029 1.959-0.088 3.918-0.114 5.88 0.016 0.559 0.061 1.090 0.134 1.612l-0.009-0.076c0.026 0.239 0.151 0.5-0.247 0.533s-0.607-0.070-0.625-0.473c-0.009-0.055-0.014-0.119-0.014-0.184s0.005-0.128 0.015-0.191l-0.001 0.007c0.111-0.531 0.173-1.141 0.173-1.766 0-0.584-0.055-1.155-0.161-1.708l0.009 0.056c-0.044-0.466-0.068-1.009-0.068-1.557 0-0.45 0.016-0.897 0.049-1.339l-0.004 0.059c0-0.434 0.114-0.864 0.136-1.293 0.037-0.735-0.464-1.157-1.273-0.937-0.541 0.151-0.552-0.022-0.537-0.426 0.026-0.666 0.041-1.334 0.059-2.004l2.155-0.191z"></path>
<path d="M20.086 8.831l-0.029 0.070-0.070-0.096 0.059-0.041z"></path>
</svg>
