<!-- Generated by IcoMoon.io -->
<svg version="1.1" xmlns="http://www.w3.org/2000/svg" width="512" height="512" viewBox="0 0 512 512">
<title>monsters-of-order</title>
<g id="icomoon-ignore">
</g>
<path d="M275.568 465.12v-33.392c0-3.248 0.928-5.344 4.72-5.808 2.8-0.352 5.344-2.256 8.096-2.624 33.152-4.736 62.032-20.192 83.616-42.736l0.048-0.048c7.52-7.392 14.144-15.664 21.312-23.28 11.2-12.656 19.616-28.032 24.064-45.024l0.176-0.768c2.784-6.912 5.216-15.12 6.912-23.6l0.16-0.896c2.096-19.040 4.368-54.992-1.28-69.84-4.608-12-5.824-25.024-12-36.256-6.272-12.32-13.168-22.928-21.024-32.736l0.288 0.368c-14.72-17.728-32.048-32.624-51.536-44.32l-0.896-0.496c-11.424-6.72-24.72-11.76-38.864-14.384l-0.768-0.112c-23.296-4.144-23.296-5.408-23.296-29.088 0-14.032 0-28.112 0-42.144 0.048-3.056 0.336-6.016 0.864-8.88l-0.048 0.32c0-0.528 1.392-1.168 2.224-1.232s2.16 0.352 2.4 0.928c2.384 5.824 4.48 11.648 6.864 17.12s5.824 13.040 8.8 19.504c4.832 9.952 15.376 11.632 24 13.632 19.936 5.376 37.328 14.224 52.352 25.968l-0.32-0.256c4.8 4.288 10.4 7.808 16.512 10.336l0.384 0.144c1.184 0.144 2.56 0.208 3.952 0.208 4.416 0 8.64-0.768 12.56-2.208l-0.24 0.080c5.008-1.104 9.888-3.152 14.912-4.48s7.744 1.76 6.528 6.336c-2.16 7.728-4.416 15.488-7.168 23.28-0.688 1.52-1.12 3.296-1.12 5.152 0 3.104 1.136 5.936 2.992 8.128l-0.016-0.016c6.368 7.92 12.416 16.784 17.776 26.112l0.528 1.008c3.504 7.152 7.024 15.888 10 24.88l0.432 1.536c4.912 11.312 8.16 24.432 9.024 38.192l0.016 0.32c0 0.112 0 0.24 0 0.368 0 5.424 3.568 10.032 8.48 11.6l0.096 0.032c14.384 4.768 27.024 14.096 42.528 15.952 0.976 0.256 1.824 0.624 2.624 1.072l-0.048-0.032c-0.688 0.832-1.328 2.032-2.256 2.496-10.72 4.832-21.216 10.48-32.336 14.192-10.912 2.464-19.024 11.872-19.456 23.232v0.048c-2.832 20.56-9.216 39.104-18.528 55.824l0.416-0.8c-6.256 11.728-12.784 21.76-20.032 31.2l0.384-0.528c-2.512 3.168-4.032 7.216-4.032 11.632 0 1.824 0.272 3.6 0.752 5.264l-0.032-0.144c0.784 7.568 2.688 14.512 5.536 20.928l-0.176-0.432c2.848 5.296 0.528 8.192-5.808 7.968-3.52-0.32-6.768-1.088-9.808-2.224l0.24 0.080c-4.544-1.52-9.024-3.088-13.344-5.008-1.568-0.768-3.424-1.232-5.376-1.232-3.52 0-6.704 1.488-8.944 3.856-12.352 9.776-26.4 18.32-41.456 25.008l-1.232 0.496c-8.4 3.664-18.992 7.456-29.856 10.656l-2.064 0.528c-5.12 1.008-9.136 4.784-10.464 9.68l-0.016 0.096c-4.72 12.848-9.632 23.568-15.232 33.872l0.672-1.344c-0.64 1.344-2.864 2.032-4.32 3.024-0.544-1.168-0.944-2.512-1.152-3.936l-0.016-0.080c0.464-10.944 0.464-21.6 0.464-32.24z"></path>
<path d="M83.312 414.88c1.28-6.912 2.72-12.688 4.432-18.336l-0.32 1.168c1.184-2.896 1.856-6.288 1.856-9.808 0-6.464-2.288-12.384-6.096-17.024l0.032 0.048c-17.488-22.224-24.64-48.592-31.744-75.136-0.224-0.864-0.352-1.872-0.352-2.912s0.128-2.032 0.368-2.992l-0.016 0.080c2.336-9.024-3.904-12.864-9.904-16.752-2.192-1.248-4.768-2.416-7.44-3.376l-0.368-0.112c-10.432-4.32-20.912-8.624-31.232-13.104-1.168-0.528-1.744-2.208-2.56-3.376 1.168-0.592 2.384-1.232 3.616-1.76l39.504-16.112c4.88-1.984 8.288-6.656 8.336-12.144 4.064-36.304 18.56-68.64 40.368-94.624l-0.224 0.288c1.888-1.712 3.088-4.176 3.088-6.912 0-1.232-0.224-2.384-0.656-3.44l0.016 0.064c-2.96-8.384-5.12-17.168-7.408-25.84-1.408-5.408 1.632-7.792 7.504-6.288 8.928 1.6 16.736 3.744 24.272 6.544l-0.96-0.32c1.232 0.592 2.672 0.944 4.208 0.944 2.368 0 4.544-0.832 6.256-2.24l-0.016 0.016c11.648-7.104 23.296-15.312 34.96-21.824 8.048-4.048 18.048-8.24 28.32-11.856l1.92-0.592c3.072-1.248 6.752-2.352 10.528-3.136l0.416-0.080c5.68-0.944 10.176-5.104 11.632-10.496l0.032-0.096c4.256-11.056 11.056-21.056 13.52-32.944 0-0.752 1.104-1.456 1.68-2.144 0.464 0.816 1.344 1.568 1.408 2.384 0 2.848 0 5.824 0 8.656 0 14.56 0 29.088 0 43.6-0.016 0.4-0.016 0.896-0.016 1.376 0 3.056 0.272 6.048 0.768 8.944l-0.048-0.32c1.52 8.384 1.28 8.624-5.84 10.768-13.568 3.952-27.312 7.568-40.768 12.576-15.76 6.448-29.28 15.2-40.864 25.984l0.080-0.080c-10.032 8.256-18.912 17.248-26.816 27.056l-0.272 0.352c-8.096 11.008-17.072 21.664-20.976 35.792-2.16 7.792-9.328 14.32-8.208 23.68-7.792 13.264-5.184 27.936-5.824 42.256 0 5.296 0 10.64 0 15.952 0 0.016 0 0.048 0 0.064 0 18.544 4.304 36.080 11.968 51.68l-0.304-0.704c4.8 13.104 10.704 24.416 17.824 34.816l-0.336-0.544c12.288 15.44 25.664 29.056 40.32 41.184l0.464 0.368c13.344 11.056 29.12 17.12 44.384 24.736 5.248 2.080 11.344 3.536 17.68 4.112l0.256 0.016c2.8 0.528 5.824 0 8.56 0.704 10.48 2.496 10.48 2.624 10.592 13.264 0 7.216 0 14.48 0 21.76 0 13.168-3.792 26.192 0 39.408 0.4 1.632-1.28 3.904-1.984 5.808-1.328-1.28-3.616-2.384-3.904-3.904-2.8-12.688-10.656-23.28-14.384-35.328-1.056-3.6-3.6-6.448-6.896-7.888l-0.080-0.032c-0.736-0.48-1.632-0.816-2.592-0.928h-0.032c-17.488-1.808-32.512-10.48-47.776-17.936-12.304-6.56-22.832-13.424-32.72-21.088l0.512 0.368c-4.080-2.976-6.336-5.808-12.24-2.752-6.592 2.592-14.416 4.832-22.48 6.336l-0.816 0.128c-5.776 1.792-6.176 1.792-6.176-6.064z"></path>
<path d="M213.52 275.968c-1.856 0-4.368-0.816-5.824 0-10.96 8.848-22.832-0.528-34.080 1.856-0.704 0-3.088-2.752-2.912-3.952 1.456-8.32-7.696-10.64-9.664-17.104 0-0.768-5.312-0.992-7.52 0-4.768 2.032-6.704 0-6.176-4.144 0.704-5.824-2.912-9.664-5.536-14.256-3.264-5.824-6.944-3.68-10.784-2.032-1.92 0.816-4.368 3.84-5.008 3.44-3.616-2.256-0.528-4.704 0-7.264s0.528-4.656-0.464-5.408c-6.8-5.296-2.32-8.624 1.568-12.4 4.88-4.656 9.488-9.712 14.512-14.256 1.984-1.792 4.944-4.144 7.232-3.904 8.848 0.928 14.576-4.72 20.096-9.488 5.792-5.568 11.104-11.488 15.984-17.776l0.272-0.368c1.568-1.792 3.216-3.6 4.88-5.296 0.832-1.2 2.192-1.984 3.728-1.984s2.912 0.768 3.728 1.968l0.016 0.016c3.312 4.016 5.84 8.56 9.664 12.336 10.448 11.744 21.168 22.512 32.448 32.672l0.352 0.32c3.84 3.264 9.376 6.576 4.016 13.040-0.4 0.528 0.592 2.736 1.392 3.712 8.272 9.376 16.368 18.864 24.992 27.888 5.072 5.232 6.576 5.008 12.176 0.4s12.576-10.304 18.656-15.712c4.32-4.176 7.856-9.152 10.32-14.72l0.112-0.288c2.272-4.72 9.968-6.688 14.864-10.416 2.048-1.904 3.632-4.288 4.56-6.976l0.032-0.128c6.112-15.952 13.92-31.376 13.68-49.056-0.112-0.256-0.176-0.576-0.176-0.88 0-1.28 1.040-2.32 2.32-2.32 1.104 0 2.032 0.768 2.256 1.808v0.016c9.568 9.312 20.288 17.872 23.312 31.904 1.056 4.592 1.328 9.424 2.8 13.856 0.896 5.264 3.952 9.664 8.192 12.352l0.080 0.048c3.488 1.808 2.688 6.112-0.864 8.144-1.392 0.528-3.216 1.088-5.056 1.552l-0.368 0.080c-12 4.72-14.864 13.664-8.208 24.8 2.192 3.344 3.952 7.216 5.056 11.36l0.064 0.272c1.456 7.456 0 8.56-8.56 7.232-1.312-0.288-2.8-0.464-4.336-0.464-6.096 0-11.568 2.624-15.344 6.832l-0.016 0.016c-4.432 5.12-7.104 3.84-11.248 0-3.152-2.608-6.8-4.8-10.736-6.368l-0.288-0.080c-7.344-3.552-8.496-2.912-10.432 5.12-1.52 6.288-1.456 6.224-5.824 2.784-2.224-1.68-3.616-6.4-7.696-1.792s-5.12 5.536 0 11.168c7.632 8.56 15.664 16.88 23.312 25.536 5.056 4.848 9.344 10.48 12.64 16.688l0.176 0.352c1.344 4.56 4.368 8.24 8.368 10.432l0.096 0.048c5.184 2.688 4.416 7.744 3.248 12.736-1.376 5.008-5.888 8.624-11.248 8.624-0.144 0-0.272 0-0.416 0h0.016c-4.656 0.464-10.784-2.032-10.832-6.992 0-6.528-4.016-8.72-7.808-12.336-3.792-4.048-7.136-8.56-9.952-13.44l-0.176-0.352c-7.584-11.44-16.064-21.36-25.584-30.16l-0.112-0.096c-2.912-2.784-4.944-2.224-6.112 1.68 0 0.928-1.104 1.632-1.456 2.496-1.568 2.656-4.4 4.416-7.664 4.416-1.184 0-2.32-0.224-3.344-0.656l0.064 0.016c-0.336-0.064-0.704-0.096-1.072-0.096-1.296 0-2.512 0.432-3.488 1.168l0.016-0.016c-3.824 3.024-7.264 6.064-10.48 9.296-7.568 7.68-15.328 15.264-22.144 23.28-4.256 5.184-11.664 7.456-12.704 16.128-0.464 4.608-12.176 5.808-16.544 2.256s-6.24-11.648-2.16-14.848c6.464-5.008 9.264-12.928 17.488-16.944s13.52-12.224 20.096-18.624c4.48-4.416 9.024-8.784 13.28-13.44 1.392-1.568 3.312-4.88 2.688-5.808-1.024-1.552-1.648-3.44-1.648-5.488 0-4.080 2.432-7.6 5.936-9.136l0.064-0.032c5.472-3.488 3.024-4.656 0.464-7.744-5.824-6.992-11.12-14.256-16.656-21.424-12.944-2.16-19.68-12.928-29.12-20.304-4.32-3.488-9.024 0-11.664 2.848-2.256 2.384-3.664 5.632-3.664 9.2 0 0.752 0.064 1.504 0.192 2.224l-0.016-0.080c3.712 7.312 7.808 13.616 12.464 19.424l-0.176-0.224c5.024 6.208 12.32 10.4 20.592 11.328l0.144 0.016c2.384 0.528 3.68 1.52 1.92 3.616-2.32 3.872-6.48 6.448-11.264 6.448-0.72 0-1.408-0.064-2.096-0.176l0.080 0.016zM339.664 342.656c-2.288 0.928-4.208 1.872-6.032 2.96l0.192-0.112c-0.928 0.64-2.032 2.56-1.696 3.2 0.736 1.76 2.064 3.12 3.744 3.872l0.048 0.016c0.192 0.032 0.4 0.032 0.624 0.032 1.632 0 3.072-0.736 4.032-1.888v-0.016c0.912-1.888 1.488-4.096 1.568-6.432v-0.032c-0.112-0.4-1.456-0.992-2.496-1.632zM204.896 355.648c1.232-1.776 2.368-3.776 3.28-5.888l0.080-0.224c0.352-1.92-5.12-6.864-6.304-5.808-0.896 0.944-1.456 2.208-1.456 3.616 0 0.256 0.016 0.528 0.064 0.768v-0.032c1.344 2.896 2.816 5.376 4.512 7.68l-0.080-0.128z"></path>
</svg>
