<!-- Generated by IcoMoon.io -->
<svg version="1.1" xmlns="http://www.w3.org/2000/svg" width="512" height="512" viewBox="0 0 512 512">
<title>monsters-of-order</title>
<g id="icomoon-ignore">
</g>
<path d="M275.616 465.408c0-11.12 0-22.24 0-33.424 0-4.016 1.104-5.824 5.536-6.4 35.6-4.688 66.768-20.864 90.256-44.64l0.016-0.016c9.232-8.88 17.712-18.384 25.424-28.512l0.448-0.608c12.544-18.128 21.824-39.52 26.464-62.608l0.192-1.088c0.144-1.296 0.224-2.832 0.224-4.368s-0.080-3.056-0.24-4.56l0.016 0.176c0-13.568-0.528-27.12 0-40.752 0.992-19.152-5.376-36.272-12.64-53.44-8.256-19.2-19.408-35.6-33.12-49.504l0.016 0.016c-12.88-13.088-27.76-24.144-44.144-32.72l-0.976-0.464c-11.328-5.952-24.48-11.008-38.256-14.464l-1.248-0.256c-3.216-0.816-6.464-1.28-9.728-1.792-6.464-1.056-8.336-2.624-8.4-9.312 0-21.776 0-43.552 0-65.376 0-1.168 1.104-2.384 1.632-3.552 0.592 1.232 1.232 2.448 1.76 3.728 5.824 12.4 11.184 24.8 16.608 37.264 1.056 2.48 3.184 4.32 5.776 4.992l0.064 0.016c15.632 5.376 32.112 8.32 46.624 17.072 11.472 6.432 21.2 12.832 30.464 19.808l-0.656-0.48c8.96 7.216 17.488 9.088 27.504 3.44 1.28-0.704 2.848-2.384 3.68-2.032 6.304 2.512 11.664-6.752 17.488-1.68-1.232 5.408-2.256 10.88-3.68 16.24s-3.152 8.96-3.856 13.504c-0.448 1.392-0.72 3.008-0.72 4.656 0 3.856 1.392 7.408 3.696 10.16l-0.016-0.032c9.12 11.184 16.752 24.064 22.32 38.016l0.352 0.992c3.104 7.008 6.032 15.456 8.304 24.176l0.256 1.2c2.448 7.024 4.48 15.344 5.744 23.936l0.096 0.768c0.288 6.464 4.608 11.84 10.512 13.712l0.112 0.032c8.272 3.44 16.432 7.28 24.72 10.832 2.096 0.928 4.48 1.344 6.64 2.32 3.376 1.632 6.704 3.488 10.032 5.232-2.768 1.584-6.048 3.168-9.456 4.528l-0.56 0.192c-12.48 4.144-23.312 12.336-36.432 14.96-2.512 1.168-4.352 3.392-4.944 6.112l-0.016 0.064c-2.112 16.72-6.208 31.936-12.080 46.208l0.432-1.2c-5.312 12.112-10.848 24.224-16.896 35.968-3.44 6.752-8.4 12.688-12.112 19.264-1.584 2.144-2.528 4.848-2.528 7.776 0 1.984 0.432 3.872 1.232 5.584l-0.032-0.080c2.352 6.96 4.4 15.296 5.728 23.888l0.112 0.864c0.88 3.904-1.168 5.824-4.016 5.136-8-1.728-14.816-3.744-21.408-6.176l1.072 0.336c-2.512-1.152-5.456-1.808-8.544-1.808-5.312 0-10.16 1.968-13.856 5.232l0.032-0.016c-17.056 14.656-38.080 25.136-61.28 29.616l-0.832 0.144c-2.528 0.752-4.72 1.632-6.8 2.72l0.192-0.096c-7.008 2.688-13.28 4.768-14.688 14.448-0.992 7.040-6.24 13.504-9.488 20.256-1.632 3.376-2.976 6.928-4.48 10.416-0.528 1.232-1.168 2.448-1.808 3.68-0.528-1.232-1.568-2.448-1.568-3.712 0-11.648 0-23.296 0-34.944z"></path>
<path d="M232.48 468.128c0 11.12 0 22.24 0 33.424 0 0.832-0.864 1.568-1.344 2.384-0.592-0.64-1.52-1.168-1.808-1.92-3.024-7.456-5.824-14.912-8.912-22.352-1.856-5.072-3.808-9.328-6.064-13.392l0.256 0.48c-3.488-6.080-9.456-10.4-16.464-11.632l-0.144-0.016c-23.424-5.248-43.952-15.392-61.264-29.344l0.288 0.224c-4.56-3.504-9.696-6.752-15.136-9.472l-0.56-0.256c-1.696-0.848-3.68-1.36-5.776-1.36-0.896 0-1.792 0.096-2.64 0.256l0.080-0.016c-9.088 2.208-18.064 5.072-27.104 7.632-3.552 0.992-5.824-0.864-5.008-4.368 2.112-8.176 4.304-14.896 6.864-21.424l-0.432 1.28c3.216-8.16 4.48-15.6-2.912-22.24-1.424-1.232-2.592-2.752-3.392-4.464l-0.032-0.080c-7.344-15.84-16.72-30.624-22.496-47.328-4.432-11.872-7.888-25.76-9.744-40.144l-0.112-0.96c-0.496-2.128-1.824-3.888-3.632-4.928l-0.032-0.016c-10.256-4.944-20.688-9.488-31.008-14.32-3.792-1.744-7.296-4.304-11.184-5.824s-2.448-3.312-0.528-4.768c2.176-1.568 4.64-2.96 7.28-4.048l0.224-0.096c12.080-5.168 24.256-10.128 36.304-15.424 1.424-0.944 2.432-2.464 2.624-4.224v-0.032c0.464-21.84 8.864-41.52 17.488-60.8 6.8-13.824 14.24-25.696 22.688-36.736l-0.384 0.512c2.4-2.8 3.856-6.448 3.856-10.432 0-0.976-0.096-1.936-0.256-2.88l0.016 0.096c-1.856-9.2-4.72-18.16-7.056-27.312-0.080-0.768-0.144-1.664-0.144-2.56s0.048-1.792 0.144-2.656l-0.016 0.112c1.92 0.112 3.696 0.336 5.424 0.688l-0.256-0.048c8.16 2.080 16.256 4.72 24.528 6.336 0.64 0.064 1.392 0.096 2.144 0.096 3.152 0 6.16-0.624 8.912-1.712l-0.16 0.048c2.768-1.168 5.152-2.656 7.264-4.464l-0.048 0.032c14.368-10.208 30.8-19.088 48.256-25.904l1.552-0.528c6.64-2.656 14.768-5.184 23.12-7.104l1.2-0.224c3.856-0.4 6.96-3.216 7.808-6.864l0.016-0.064c2.512-8.144 5.824-16.016 8.688-23.936 0-0.928 0-2.032 0.704-2.736 2.16-3.152 4.416-6.176 6.64-9.2 0.832 2.96 1.488 6.48 1.84 10.080l0.016 0.272c0 17.92 0 35.856 0 53.792 0 8.688-0.864 8.080-9.488 11.232s-19.808 1.232-29.136 6.928c-7.808 4.944-17.488 7.104-25.424 11.648-8.512 4.976-15.888 10.432-22.592 16.608l0.096-0.080c-10.8 8.784-20.336 18.336-28.864 28.752l-0.288 0.352c-11.648 15.952-23.312 32.48-26.688 52.4-1.28 8.16-5.312 14.96-6.816 23.296-1.536 8.624-2.416 18.576-2.416 28.736 0 19.888 3.376 38.992 9.6 56.768l-0.368-1.216c5.776 16.512 12.832 30.784 21.408 44l-0.48-0.8c5.424 8 11.552 14.912 18.464 20.976l0.128 0.112c8.16 7.936 16.912 15.408 26.128 22.272l0.688 0.496c15.936 12.768 35.568 21.6 57.056 24.672l0.64 0.080c2.176 0.192 4.16 0.576 6.064 1.104l-0.24-0.064c12.528 3.552 12.528 3.616 12.576 16.64 0 9.2 0 18.464 0 27.664z"></path>
<path d="M335.168 234.784c-2.032 13.264-4.144 25.92-5.84 38.544-0.256 1.488-0.416 3.2-0.416 4.96 0 2.72 0.368 5.328 1.056 7.824l-0.048-0.208c0.768 2.016 1.2 4.32 1.2 6.768 0 4.944-1.84 9.456-4.896 12.88l0.016-0.016c-4.608 8.16-13.232 13.568-23.12 13.568-1.072 0-2.144-0.064-3.184-0.192l0.128 0.016c-5.424-0.528-8.688 3.312-9.264 9.952-0.464 5.296 0.4 10.72 0 15.952-0.4 2.912-2.752 7.744-4.544 7.92-10.88 0.992-20.112 9.616-31.824 6.752-9.616-2.32-19.472-3.776-29.136-6.576-2.272-0.64-4.368-5.008-4.784-7.856-0.752-5.824 0-11.648 0-17.472 0-6.864-1.856-8.384-8.496-8.848-1.92 0-3.92 0-5.84 0-4.656 0-9.216 0.816-13.568-3.152-6.336-6.208-11.488-13.6-15.088-21.856l-0.176-0.448c-0.064-0.256-0.096-0.576-0.096-0.88 0-1.168 0.448-2.224 1.2-3.024 7.168-6.864 4.368-14.96 3.024-22.88-2.016-8.080-3.536-17.632-4.224-27.408l-0.032-0.544c0-17.104 1.856-34.112 13.008-48.432 0.32-0.336 0.592-0.736 0.736-1.184l0.016-0.032c4.896-22.768 24.88-26.784 42.368-33.12 6.336-1.984 13.632-3.136 21.184-3.136 0.976 0 1.936 0.016 2.912 0.064h-0.144c7.168 0.432 13.872 1.488 20.32 3.136l-0.752-0.16c0.464 0 1.168 2.736 0.816 3.024-3.312 2.688-6.336 5.168-5.136 10.304 0 0.688-3.792 2.256-5.84 3.616-1.232 0.864-2.32 1.728-3.344 2.656l0.032-0.032c1.52 0.080 2.96 0.336 4.32 0.784l-0.112-0.032c0.672 0.656 1.12 1.52 1.232 2.48v0.016c-1.104 0.768-2.56 1.232-3.728 1.92-2.384 1.52-4.72 3.136-7.040 4.768 1.056 1.28 2.096 2.624 3.088 3.952 0 0-0.592 0.704-0.928 1.056l-6.816 6.464c3.856 1.632 6.24-1.568 9.264-2.736 3.952-1.568 8.096-2.624 11.664-4.368 1.28-0.592 1.92-2.56 2.912-3.904-10.016-4.832 0-5.824 1.456-8.784s1.328-5.472 2.624-7.984c1.28-2.512 5.136-5.072 4.656-6.336-1.632-3.904 0.528-4.944 2.752-3.712 6.16 2.56 11.456 5.504 16.352 8.976l-0.256-0.176c10.080 8.176 17.456 19.376 20.768 32.176l0.096 0.416c1.632 6.288 6.576 11.232 6.768 18.272 0.576 6.112 1.536 11.664 2.896 17.056l-0.176-0.752zM269.776 272.672c0.144 4.512 0.72 8.832 1.664 12.976l-0.096-0.448c0.864 2.704 2.512 4.928 4.688 6.496l0.032 0.032c3.84 1.472 8.288 2.336 12.928 2.336 5.6 0 10.912-1.248 15.664-3.472l-0.224 0.096c3.712-2 6.176-5.84 6.176-10.272 0-0.096 0-0.192 0-0.288v0.016c0-0.192 0-0.416 0-0.64 0-6.224-0.976-12.24-2.8-17.872l0.112 0.416c-1.392-3.616-3.088-3.616-5.824-4.416-9.392-2.736-15.968 4.544-24.016 6.4-5.312 1.168-9.968 4.608-8.336 8.688zM223.856 294.912c10.608 0 13.168-2.448 16.96-14.784 0.928-2.080 1.456-4.528 1.456-7.088 0-0.192 0-0.368-0.016-0.56v0.032c-0.88-3.776-3.744-6.752-7.392-7.776l-0.080-0.016c-5.376-1.92-10.384-4.768-15.808-6.224-1.664-0.576-3.568-0.912-5.568-0.912s-3.904 0.336-5.696 0.944l0.128-0.032c-7.92 3.952-9.792 19.728-4.144 26.656 5.136 5.408 12.144 9.024 19.984 9.776l0.112 0.016zM266.8 316.336c-1.632-5.072-3.792-11.232-5.84-17.472-1.104-4.016-4.192-3.088-6.928-3.216s-3.68 1.568-4.368 4.32c-1.456 5.408-4.144 10.544-5.424 15.952 0.032 2.848 0.656 5.552 1.744 7.984l-0.048-0.128c2.496-0.352 4.736-0.944 6.864-1.776l-0.224 0.080c2.224-1.056 3.152-4.48 6.944-1.52s7.296 1.104 7.296-4.256z"></path>
</svg>
