<!-- Generated by IcoMoon.io -->
<svg version="1.1" xmlns="http://www.w3.org/2000/svg" width="512" height="512" viewBox="0 0 512 512">
<title>monsters-of-order</title>
<g id="icomoon-ignore">
</g>
<path d="M233.312 468.24c0 10.288 0 20.576 0 30.88-0.224 1.408-0.64 2.656-1.216 3.84l0.032-0.080c-1.248-1.12-2.992-2.048-3.584-3.472-3.536-8.416-7.248-16.816-10.016-25.472-2.496-9.568-10.848-16.608-20.896-17.12h-0.064c-13.888-0.656-24.256-9.056-35.904-14.224-12.56-5.936-23.392-12.848-33.232-20.912l0.288 0.224c-3.52-3.392-8.32-5.488-13.6-5.488-2.16 0-4.256 0.352-6.192 0.992l0.144-0.048c-5.872 1.872-11.776 3.936-17.664 5.872-9.344 2.88-12.128 0.592-9.584-8.816 1.824-6.944 5.296-13.472 6.944-20.4 0.416-1.392 0.672-2.992 0.672-4.656 0-2.72-0.672-5.296-1.824-7.568l0.048 0.096c-14.656-20.576-26.544-44.4-34.384-69.984l-0.464-1.744c-2.208-6.16-3.472-13.232-3.472-20.624 0-0.256 0-0.512 0-0.768v0.032c0.288-8.656-4.464-12.176-11.008-15.056-11.36-5.12-22.72-10.112-34.032-15.344-1.584-0.72-2.704-2.528-4.064-3.872 1.44-1.024 3.072-2 4.8-2.848l0.224-0.096c11.504-4.784 22.992-9.472 34.48-14.064 5.472-1.92 9.36-6.944 9.536-12.912v-0.016c4.768-32.816 14.832-63.984 37.248-89.2 10.304-11.776 3.776-22.688 2.72-34.16-0.8-5.552-1.888-10.416-3.296-15.152l0.176 0.72c6 0.096 11.776 0.928 17.264 2.4l-0.496-0.112c3.984 2.080 8.72 3.28 13.728 3.28 7.472 0 14.336-2.72 19.632-7.2l-0.048 0.032c18.4-13.808 40-24.608 63.392-31.088l1.344-0.32c8.448-2.112 15.152-8.192 18.080-16.096l0.064-0.192c2.992-7.648 6.24-15.168 9.648-22.576 1.264-1.952 2.704-3.632 4.32-5.104l0.016-0.016c1.088 1.872 2.048 4.048 2.8 6.32l0.080 0.256c0.384 1.792 0.624 3.856 0.624 5.984 0 0.432-0.016 0.88-0.032 1.312v-0.064c0 15.696 0 31.408 0 47.040 0.080 0.48 0.128 1.040 0.128 1.616 0 5.376-4.176 9.776-9.456 10.144h-0.032c-14.912 3.136-27.808 7.024-40.192 11.872l1.712-0.592c-28.672 11.36-52.4 30.016-69.616 53.712l-0.32 0.448c-10.24 13.344-19.008 28.592-25.616 44.976l-0.464 1.296c-12.48 35.28-17.36 70.56-5.888 107.792 7.488 25.792 19.632 48.176 35.568 67.264l-0.256-0.288c23.312 26.656 53.776 46.56 88.368 56.768l1.344 0.336c6.416 1.936 16.48 0.72 18.896 4.656 3.648 5.872 2.064 14.88 2.464 22.576 0 4.88 0 9.824 0 14.688z"></path>
<path d="M278.288 468.432c0-9.344 0.528-18.688 0-27.936-0.176-0.72-0.256-1.568-0.256-2.416 0-6.112 4.944-11.056 11.056-11.056 0.144 0 0.256 0 0.4 0h-0.016c28.912-3.344 52.976-17.28 74.992-34.912 23.312-18.368 41.584-42.112 53.072-69.424l0.416-1.152c6.432-13.024 10.336-28.336 10.656-44.512v-0.112c-0.464-11.776 0-23.536 0-35.28 0.368-37.28-15.712-67.856-38.432-96.032-16.624-21.072-37.904-37.76-62.352-48.624l-1.040-0.416c-11.392-4.864-25.472-9.68-39.936-13.568l-2.368-0.544c-4.88-1.408-6.176-3.344-6.176-7.872 0-21.056 0-42.16 0-63.2 0.192-1.344 0.528-2.56 0.976-3.696l-0.032 0.112c0.72 1.168 1.472 2.352 2.064 3.584 4.432 9.536 9.36 18.816 13.072 28.64 2.256 6.304 7.472 11.056 13.936 12.608l0.144 0.032c29.488 8.976 55.168 22.176 77.888 39.104l-0.656-0.464c4.944 3.536 13.776 2.528 20.768 2.128 8.448-0.896 16-2.256 23.36-4.064l-1.168 0.256c-0.752 7.984-2.256 15.312-4.496 22.32l0.192-0.736c-4.464 10.944-1.232 19.168 5.248 27.936 17.056 23.52 28.832 51.904 33.024 82.704l0.112 0.96c0.656 7.872 6.288 14.272 13.712 16.080l0.128 0.032c11.248 3.872 21.952 9.344 32.912 14.176 1.056 0.464 2 1.12 2.992 1.648-1.056 1.008-1.936 2.416-3.168 2.944-8.704 4.576-19.632 9.472-30.832 13.792l-2.288 0.768c-7.52 1.776-13.12 8.16-13.664 15.936v0.064c-4.56 31.888-16.4 60.368-33.76 84.592l0.384-0.576c-5.6 6.544-9.008 15.12-9.008 24.464 0 4.080 0.656 8 1.84 11.664l-0.080-0.256c0.464 1.824 1.776 3.472 2.128 5.344 0.768 3.872 1.184 7.872 1.712 11.76-0.048 0-0.096 0-0.144 0-5.424 0-10.736-0.448-15.904-1.312l0.56 0.080c-5.488-1.344-10.544-4.464-15.952-5.872-0.672-0.16-1.44-0.224-2.256-0.224-2.16 0-4.176 0.624-5.856 1.728l0.048-0.032c-16.24 12.656-34.848 23.408-54.848 31.44l-1.552 0.544c-8.528 3.12-17.664 5.056-25.728 8.752-3.952 2.32-7.040 5.744-8.88 9.856l-0.064 0.144c-4.992 9.776-9.184 19.936-13.648 29.936-0.592 1.28-1.344 2.464-2 3.712-0.512-1.36-0.928-2.976-1.168-4.624l-0.016-0.128c0-10.176 0-20.4 0-30.752z"></path>
<path d="M206.896 236.336c-0.192 1.44-0.288 3.12-0.288 4.8 0 12.112 5.344 23.008 13.776 30.432l0.048 0.048c4.64 3.904 7.568 9.712 7.568 16.224 0 4.304-1.28 8.32-3.504 11.664l0.048-0.080c-4.592 7.472-3.872 21.872-19.712 16.816-1.184-0.352-3.584 2.944-5.296 4.656s-4 4.064-5.872 5.872c0.656-2.656 1.28-5.344 2.064-8 1.024-4.336 2.192-8 3.552-11.536l-0.192 0.592c1.056-2.464 3.056-6.656 4.416-6.592 11.424 0.768 10.48-7.12 9.952-13.936-0.656-8.528-8.064-12.944-15.008-7.936-11.296 8.224-24.128 6.224-36.384 8.224-0.288 0-1.712-2.832-1.344-3.184 4.704-4.992 9.552-9.824 14.544-14.512 0.832-0.832 3.344-1.408 3.776-0.944 10.768 12.128 12.896-2.528 16.016-6.4 4.304-5.28 0-12.656-9.888-16.064-7.2-2.176-16.192-4.224-25.376-5.712l-1.296-0.176c-5.872-1.248-11.776-2.72-17.664-4.064 4.464-2.288 9.744-4.448 15.232-6.144l0.72-0.208c8.48-1.76 17.2-2.464 25.84-3.472s14-6.352 13.056-14c-1.056-8.992-5.888-11.76-15.36-11.76-5.632-1.12-10.592-3.44-14.784-6.688l0.080 0.064c-2.064-1.28-2.992-4.464-4.432-6.768 2.016 0.8 4.432 1.472 6.896 1.904l0.224 0.032c2.224 0 5.888 0 6.528-1.008 2.72-6.416 6.768-3.824 10.368-1.936s7.12 5.056 10.896 7.12c8.656 4.592 12.544 3.472 18.016-4.464 1.088-2.496 1.712-5.408 1.712-8.48 0-4.432-1.312-8.56-3.584-12.016l0.048 0.080c-0.688-0.624-1.552-1.056-2.512-1.168h-0.032c-3.408-0.592-8.944 0-9.936-1.648-2.544-5.312-4.816-11.584-6.48-18.080l-0.16-0.736c0-0.72 0.464-1.712 0.72-2.528 0.72 0.72 1.28 1.472 2 2.112 4.704 4.224 8.24 8.88 16.416 8.768 3.776 0 8.464 8.592 11.296 14.064s7.008 9.344 12.48 6.816c4.48-2.352 7.856-6.304 9.392-11.088l0.032-0.144c2.992-11.76 4.24-23.52 6.304-35.28 0.64-3.84 1.36-7.104 2.288-10.288l-0.16 0.64c0.72-1.6 1.504-2.976 2.4-4.256l-0.048 0.080c0.992 1.12 2.592 2.048 2.88 3.28 1.344 5.872 2.656 12.224 3.536 18.4 0.72 9.712 1.92 18.512 3.648 27.152l-0.224-1.392c1.536 5.488 4.944 10.032 9.456 13.008l0.096 0.048c5.184 2.816 9.776-1.12 12.304-6.944 1.28-2.992 5.888-4.944 6.368-7.776 1.184-8.112 6.24-8.688 12.48-8.224 0.224 0.032 0.48 0.048 0.736 0.048s0.512-0.016 0.752-0.048h-0.032l9.84-3.408c0.944 4.656-6.368 18.816-10.464 18.528-11.776-0.88-7.776 9.824-11.184 14.816-0.88 1.28 1.584 6.352 3.776 7.824 4.832 3.28 9.648 6.944 16.48 2.064s14.896-12.992 24.080-2.416c0.528 0.656 2.832 0.416 4 0 2.752-1.248 5.056-2.48 7.264-3.856l-0.256 0.16c-1.936 2.528-3.344 5.872-5.888 7.408-5.248 3.168-9.296 8.88-17.664 6.224-2.464-0.768-10.128 7.408-11.776 12.512-1.824 6.704 5.248 12.176 13.424 13.872 11.248 2.288 22.368 5.168 33.504 7.872 1.552 0.48 2.864 1.040 4.128 1.712l-0.128-0.064c-1.2 0.528-2.672 1.024-4.192 1.424l-0.224 0.048c-9.424 2-18.832 3.648-28.128 5.872-4.992 0.704-9.472 2.464-13.36 5.072l0.112-0.080c-4 3.584-7.888 8.224-3.584 15.168 3.648 5.872 5.888 10.816 14.176 6.816 0.48-0.096 1.040-0.16 1.616-0.16 2.032 0 3.888 0.736 5.344 1.936l-0.016-0.016c3.792 3.216 7.216 6.592 10.384 10.176l0.096 0.112c1.776 1.984 3.552 4.128 5.2 6.352l0.16 0.224c-1.856-1.024-4.208-2.144-6.608-3.168l-0.512-0.176c-1.776-0.656-4.24-1.712-5.536-0.992-11.776 6.352-19.824-2.592-28.848-7.28-2.176-1.12-5.872-3.056-6.832-2.288-3.712 3.936-9.424 8.656-9.248 12.944s-1.824 15.808 11.056 13.936c2.288-0.352 6.656 8.528 8.944 13.632 1.376 3.984 2.432 8.624 2.976 13.456l0.032 0.304c-2.944-3.28-5.888-6.592-8.832-9.824-1.264-1.408-2.688-2.672-4.224-3.776l-0.080-0.048c-10.24 8.88-10.24-0.768-12.768-6.704-1.984-3.664-4.064-6.832-6.4-9.776l0.112 0.144c-2.544-3.104-4.080-7.12-4.080-11.488 0-5.44 2.384-10.32 6.176-13.664l0.016-0.016c21.008-22.096 22.832-48.624 5.424-72.080-12.416-16.752-40.736-23.536-58.864-13.76-5.92 2.832-11.024 6.112-15.664 9.984l0.128-0.096c-13.888 13.056-14.368 15.056-14.368 37.216z"></path>
<path d="M257.856 212.336c1.936 0 3.936 0 5.888 0l27.312 1.872c0 12.592 0.656 25.216 0.656 37.808 0 0.656-3.28 2.064-4.88 1.872-22.544-2.992-23.536-1.824-24.080 21.472-0.464 31.344-1.408 62.688-1.824 94.080 0.256 8.944 0.976 17.44 2.144 25.792l-0.144-1.216c0.416 3.824 2.416 8-3.952 8.528s-9.712-1.12-10-7.568c-0.144-0.88-0.224-1.904-0.224-2.944s0.080-2.048 0.24-3.056l-0.016 0.112c1.776-8.496 2.768-18.256 2.768-28.256 0-9.344-0.88-18.48-2.576-27.328l0.144 0.896c-0.704-7.456-1.088-16.144-1.088-24.912 0-7.2 0.256-14.352 0.784-21.424l-0.064 0.944c0-6.944 1.824-13.824 2.176-20.688 0.592-11.76-7.424-18.512-20.368-14.992-8.656 2.416-8.832-0.352-8.592-6.816 0.416-10.656 0.656-21.344 0.944-32.064l34.48-3.056z"></path>
<path d="M321.376 141.296l-0.464 1.12-1.12-1.536 0.944-0.656z"></path>
</svg>
