<!-- Generated by IcoMoon.io -->
<svg version="1.1" xmlns="http://www.w3.org/2000/svg" width="512" height="512" viewBox="0 0 512 512">
<title>monsters-of-order</title>
<g id="icomoon-ignore">
</g>
<path d="M274.8 465.728c0-9.712 0.656-19.536 0-29.264-0.592-7.68 3.264-10.32 9.424-11.712s13.184-2.336 19.68-3.856c33.28-7.968 58.592-27.856 81.088-52.672 17.104-19.488 30.048-43.024 37.2-68.992l0.288-1.232c2.512-9.168 4.224-19.84 4.736-30.8l0.016-0.336c0.416-4.288 0.656-9.28 0.656-14.336 0-24.432-5.536-47.552-15.424-68.208l0.4 0.96c-17.568-37.216-41.536-67.296-80.128-84.928-14.448-7.632-31.216-13.488-48.912-16.688l-1.072-0.144c-0.016 0-0.032 0-0.048 0-4.256 0-7.728-3.456-7.728-7.712 0-0.32 0.016-0.624 0.048-0.912v0.032c0-20.992 0-41.952 0-62.912 0.192-1.456 0.528-2.768 1.040-4.032l-0.032 0.112c1.344 0.992 3.28 1.76 3.92 3.168 4.976 10.768 10.368 21.488 14.288 32.656 1.936 5.504 5.088 6.784 9.904 8.832 14 5.856 29.824 6.624 42.752 16.32 11.712 8.768 25.84 14.4 38.032 22.64 2.416 2.176 5.632 3.504 9.152 3.504 2.416 0 4.704-0.624 6.672-1.712l-0.080 0.032c4.032-1.552 8.736-2.752 13.6-3.408l0.32-0.032c15.872-3.792 17.568-2.864 10.848 12.112-8.256 17.856-3.168 30.784 6.912 45.408 14.24 20.144 23.664 44.656 26.080 71.184l0.048 0.576c0 0.096 0 0.208 0 0.32 0 7.952 5.12 14.72 12.24 17.2l0.128 0.032c12.832 5.136 25.536 10.768 38.304 16.144l4.224 1.808-3.68 1.584c-13.184 5.44-26.192 11.36-39.6 16.16-8.608 3.104-9.952 10.576-11.008 17.136-2.88 18.896-8.224 35.904-15.76 51.664l0.48-1.104c-6.16 14.368-13.168 26.72-21.376 38.176l0.4-0.608c-3.6 4.4-5.776 10.080-5.776 16.272 0 2.656 0.4 5.2 1.152 7.6l-0.048-0.176c0.752 3.744 1.808 7.376 2.752 11.12 3.040 11.696 3.040 11.696-8.672 10.416-2.528-0.304-4.832-1.056-6.896-2.144l0.112 0.048c-12.944-6.912-24.544-2.928-34.576 5.376-14.464 11.952-31.872 20.864-50.96 25.52l-0.864 0.176c-18.224 4.384-27.008 15.856-32.864 31.776-2.576 6.96-5.872 13.648-8.912 20.432-0.832-7.44-1.76-14.736-2.224-22.176-0.464-5.616-0.224-11.008-0.224-16.384z"></path>
<path d="M232.928 467.888c0 10.768 0 21.488 0 32.192-0.256 1.408-0.752 2.656-1.424 3.792l0.032-0.048c-1.12-1.12-2.736-2.048-3.344-3.392-4.592-8.688-9.184-19.168-13.040-29.968l-0.544-1.744c-1.824-7.040-7.552-12.384-14.656-13.68l-0.112-0.016c-6.912-1.936-13.76-4.048-20.512-6.432-21.040-7.52-39.232-17.84-55.248-30.768l0.368 0.272c-2.88-1.888-6.448-3.024-10.24-3.024-0.992 0-1.968 0.080-2.928 0.224l0.112-0.016c-8.736 1.136-16.64 3.184-24.128 6.096l0.704-0.224c-5.152 1.984-6.432 0.464-5.856-3.808 0.288-5.088 1.376-9.824 3.152-14.224l-0.112 0.304c1.856-4.048 2.928-8.768 2.928-13.76 0-7.76-2.624-14.912-7.040-20.608l0.064 0.080c-16.656-23.488-27.92-51.92-31.392-82.688l-0.080-0.816c-0.992-9.6-8.672-11.712-15.76-14.8-9.968-4.384-19.568-9.424-29.296-13.872-6.56-2.992-4.288-4.848 0.464-6.784 11.024-4.56 22.080-9.264 33.152-13.712 6.672-2.624 11.376-8.848 11.712-16.224v-0.048c5.216-35.424 19.376-66.832 40.080-92.8l-0.304 0.384c2.032-2.032 3.312-4.816 3.312-7.92 0-1.872-0.464-3.648-1.264-5.2l0.032 0.064c-2.704-6.656-4.976-14.512-6.512-22.624l-0.112-0.768c-0.656-3.216-1.52-8.368 5.856-5.376 6.144 2.512 13.824 1.648 19.504 4.624 9.264 4.912 16 0.752 22.432-4.16 17.28-13.872 37.952-24.336 60.528-29.968l1.104-0.224c17.584-3.792 22.080-15.984 27.888-28.8 2.336-5.152 3.92-10.768 5.856-16.032 0.4-0.992 1.936-1.584 2.992-2.336 0.656 1.184 1.76 2.288 1.76 3.392 0 20.992 0 41.968 0 62.912 0 5.376-3.040 7.712-8.32 8.016-20.24 2.144-38.592 8.688-54.608 18.624l0.544-0.32c-32.24 17.408-57.68 43.872-73.376 75.952l-0.448 1.008c-10.752 21.92-17.056 47.712-17.056 74.96 0 8.384 0.592 16.624 1.744 24.704l-0.112-0.928c4.8 33.968 18.656 64.080 39.072 88.544l-0.24-0.288c19.84 23.472 45.088 41.776 73.856 53.056l1.264 0.432c8.064 3.12 17.472 5.52 27.248 6.72l0.592 0.064c0.016 0 0.032 0 0.048 0 5.728 0 10.368 4.624 10.368 10.352 0 0.864-0.112 1.68-0.288 2.464l0.016-0.080c-0.464 9.776 0 19.552 0 29.264z"></path>
<path d="M265.664 365.184c-6.624 4.8-13.664 7.712-21.28 2.752-2.928-1.936-7.024-5.088-7.088-7.68 0.208-4.352 2.224-8.208 5.312-10.864l0.016-0.016c11.376-8.432 39.712-5.376 50.672 3.92 5.856 4.912 6.336 14.864-3.28 22.48-7.92 7.344-18.496 11.92-30.128 12.112h-0.048c-13.952-0.592-28.064 1.648-41.008-7.152-9.728-6.656-18.576-19.84-13.888-27.088 5.632-6.976 12.32-12.816 19.872-17.376l0.336-0.192c3.776-2.432 8.128-4.432 12.768-5.76l0.336-0.096c5.568-1.872 8.448-5.856 6.56-11.072-1.824-4.336-4.992-7.824-8.976-10.016l-0.112-0.048c-4.496-1.824-9.696-3.040-15.136-3.376h-0.144c-15.92-2.624-27.92-16.256-27.92-32.704 0-0.848 0.032-1.68 0.096-2.512v0.112c0-4.448 0.88-6.672 5.456-2.048 3.040 2.768 6.944 4.656 11.264 5.2l0.112 0.016c13.936 0.576 25.376 10.512 28.208 23.68l0.032 0.192c0.592 2.288 5.872 5.856 6.736 5.104 2.64-2.256 4.832-4.96 6.48-7.984l0.080-0.16c0.176-0.416 0.272-0.896 0.272-1.408s-0.112-0.992-0.288-1.424l0.016 0.032c-3.712-9.36-7.776-17.328-12.496-24.864l0.368 0.64c-3.552-3.456-8.368-5.664-13.664-5.856h-0.032c-19.68-0.768-35.328-16.896-35.328-36.672 0-1.232 0.064-2.48 0.192-3.68l-0.016 0.144c0.528-2.432 1.296-4.592 2.288-6.592l-0.080 0.176c1.648 1.28 3.456 2.464 5.040 3.856 3.744 3.456 7.024 9.424 11.184 10.112 14.064 2.4 21.28 11.232 27.184 22.832 1.456 2.864 5.152 4.624 7.856 6.912 1.92-2.928 3.536-6.304 4.672-9.888l0.080-0.288c0.016-0.256 0.016-0.528 0.016-0.8 0-9.888-5.728-18.448-14.048-22.544l-0.144-0.064c-9.264-4.512-20.16-5.856-25.952-16.608-5.28-9.6-9.136-18.848-4.096-29.728 2.288-4.912 2.992-4.688 6.208 0 4.368 4.816 8.912 9.264 13.68 13.408l0.192 0.176c4.080 4.288 7.92 8.912 11.456 13.776l0.256 0.384c0.928 1.344-0.288 4.288 0.656 5.856 2.384 3.12 4.848 5.888 7.488 8.48l0.016 0.016c2.464-2.864 6.976-5.856 7.088-8.48 0-7.024 0.88-16.8-3.168-20.656-17.12-16.512-6.144-32.24-1.056-48.336 1.456-3.856 3.168-7.168 5.168-10.272l-0.128 0.224c1.312-1.952 2.624-3.664 4.080-5.248l-0.032 0.032c1.2 1.376 2.288 2.912 3.216 4.544l0.080 0.144c2.944 6.56 5.872 13.12 8.384 19.776 4.976 13.056 8.144 25.632-4.096 37.216-7.68 7.312-3.856 17.568-2.864 26.336 0.736 2.448 2.976 4.208 5.616 4.208 1.776 0 3.376-0.784 4.448-2.048v-0.016c2.064-2.4 3.552-5.344 4.208-8.608l0.016-0.128c1.472-8.32 6.864-15.152 14.128-18.592l0.16-0.064c4.896-2.848 8.88-6.8 11.632-11.552l0.080-0.16c3.232-5.568 3.984-1.344 5.040 0.528 1.92 2.976 3.072 6.608 3.072 10.512 0 3.152-0.752 6.112-2.080 8.736l0.048-0.112c-4.32 10.304-12.512 18.256-22.688 22.208l-0.288 0.096c-16.112 6.72-22.848 13.696-21.504 28.56 0.288 3.232 3.328 6.192 5.104 9.36 2.64-2.464 6.496-4.384 7.616-7.376 4.464-12.352 11.712-20.304 25.536-22.064 4.4-0.528 8.080-6.496 12.128-9.824 1.52-1.28 3.232-2.4 4.848-3.568 1.216 1.824 2.208 3.952 2.88 6.224l0.048 0.176c2.4 17.568-13.184 36.688-31.936 39.024-15.056 1.744-26.944 13.264-29.264 27.952l-0.032 0.192c-0.144 0.832-0.224 1.776-0.224 2.768 0 2.576 0.528 5.024 1.488 7.248l-0.048-0.128c0.88 2.192 2.992 3.712 5.44 3.712s4.56-1.52 5.424-3.664l0.016-0.048c2.384-3.36 4.368-7.232 5.776-11.392l0.096-0.32c2.112-9.296 9.376-11.296 16.816-13.808 6.208-2.112 12.24-4.8 18.4-7.184l4.688-1.872c0.256 1.2 0.464 2.688 0.576 4.192v0.112c-0.288 22.112-12.656 35.824-33.984 35.888-0.512-0.064-1.12-0.096-1.712-0.096-7.552 0-13.968 4.88-16.224 11.664l-0.032 0.128c-3.92 15.568-15.632 21.424-28.24 26.16-9.312 3.456-18.272 8.368-18.336 17.968s10.256 13.744 19.104 16.272c15.808 4.512 30.288-1.12 44.464-7.024 4.848-1.984 4.816-9.248 0.704-13.28-5.856-5.856-23.424-6.672-30.176-1.808-4.752 3.264-2.112 6.432 0.704 7.776 3.36 1.136 7.232 1.824 11.264 1.936h0.048z"></path>
<path d="M265.488 365.472l0.928-0.464h-0.752z"></path>
</svg>
