<!-- Generated by IcoMoon.io -->
<svg version="1.1" xmlns="http://www.w3.org/2000/svg" width="512" height="512" viewBox="0 0 512 512">
<title>monsters-of-order</title>
<g id="icomoon-ignore">
</g>
<path d="M275.536 466.368c0-10.688 0-21.344 0-31.984-0.048-0.24-0.064-0.528-0.064-0.816 0-2.688 2.128-4.88 4.784-5.008h0.016c12.464-2.72 22.928-5.744 33.104-9.376l-1.84 0.576c35.728-13.664 65.296-36.672 86.624-66.048l0.368-0.544c8.688-12.112 13.52-27.024 19.472-40.784 2.416-5.776 4.432-12.592 5.744-19.632l0.096-0.64c2.176-10.32 3.424-22.176 3.424-34.336 0-11.52-1.12-22.752-3.248-33.648l0.176 1.104c-6.896-35.232-23.424-65.84-46.704-89.888l0.048 0.048c-10.624-10.544-22.416-19.968-35.12-28.032l-0.848-0.496c-6.496-3.728-14.048-7.152-21.952-9.808l-0.896-0.272c-6.848-3.088-15.184-6.080-23.776-8.48l-1.296-0.32c-2.288-0.624-5.104-1.2-8-1.6l-0.352-0.048c-7.984-1.104-9.552-2.272-9.616-9.504 0-21.792 0-43.632 0-65.424 0-1.104 1.104-2.224 1.76-3.312 0.608 0.64 1.136 1.376 1.552 2.16l0.032 0.048c4.944 11.648 9.744 23.296 14.864 34.944 1.28 4.544 4.912 7.984 9.488 8.96l0.080 0.016c17.712 4.656 33.088 10.624 47.6 18.080l-1.296-0.608c10.848 5.44 20.176 11.712 28.64 18.976l-0.176-0.16c4.416 4.16 10.4 6.72 16.976 6.72 3.472 0 6.784-0.72 9.776-2l-0.16 0.064c5.84-2.288 11.664-3.776 17.504-5.824 4.016-1.456 5.824 0.464 5.312 3.904-0.368 3.056-1.056 5.84-2 8.48l0.080-0.256c-2.096 7.216-4.608 14.336-6.368 21.6-0.256 0.912-0.4 1.952-0.4 3.024 0 2.96 1.104 5.664 2.912 7.712l-0.016-0.016c19.024 26.096 32.432 57.472 37.856 91.52l0.16 1.232c0.752 6.016 4.976 10.864 10.56 12.56l0.112 0.032c13.68 4.4 25.376 9.44 36.48 15.424l-1.136-0.56c2.4 0.816 5.216 1.408 8.112 1.632h0.112c-2.336 1.344-5.088 2.608-7.936 3.664l-0.384 0.112c-11.664 3.312-21.744 10.96-33.696 14.16-7.344 1.584-12.752 8-12.752 15.68 0 0.384 0.016 0.768 0.048 1.152v-0.048c0 0.208 0 0.464 0 0.72 0 9.728-2.288 18.928-6.336 27.072l0.16-0.352c-0.848 1.504-1.568 3.248-2.064 5.088l-0.032 0.144c-6.224 21.584-16.416 40.304-29.824 56.224l0.192-0.224c-2.944 2.576-4.8 6.32-4.8 10.512 0 2.304 0.56 4.496 1.568 6.4l-0.032-0.080c2.384 6.832 4.064 14.752 4.704 22.976l0.016 0.32c0.928 5.296-1.456 7.456-6.704 5.824-6.992-1.856-12.816-3.84-18.464-6.176l0.96 0.352c-2.336-1.008-5.072-1.6-7.936-1.6-5.168 0-9.888 1.904-13.488 5.056l0.032-0.016c-9.984 7.344-21.392 14.752-33.264 21.472l-1.712 0.896c-9.040 3.952-19.776 7.488-30.912 10.064l-1.28 0.24c-8 2.32-15.28 4.72-17.040 14.736-1.408 5.968-3.568 11.232-6.4 16.048l0.16-0.288c-3.024 5.824-6.768 11.664-10.208 17.488-0.464-6.64-0.992-13.28-1.232-19.92s0.176-11.296 0.176-17.12z"></path>
<path d="M232.432 47.264c0 11.12 0 22.304 0 33.424 0 3.376-1.168 5.2-4.944 5.824-21.856 2.624-41.616 9.792-58.928 20.512l0.624-0.352c-4.88 2.912-9.072 5.84-13.008 9.056l0.192-0.144c-18.832 13.472-34.704 29.616-47.44 48.112l-0.416 0.656c-10.432 16.752-18.736 36.192-23.856 56.864l-0.288 1.392c-2.128 7.984-3.344 17.152-3.344 26.608 0 2.608 0.096 5.2 0.272 7.744l-0.016-0.336c0.496 22.48 4.736 43.856 12.096 63.68l-0.432-1.344c7.248 19.68 17.424 36.64 30.192 51.296l-0.176-0.208c12.8 13.36 27.056 25.152 42.576 35.152l0.928 0.56c14.816 9.376 31.664 12.352 46.656 19.744 1.344 0.32 2.912 0.512 4.512 0.512 0.464 0 0.912-0.016 1.376-0.048h-0.064c13.168 1.744 17.504 8.272 14.224 21.504-0.72 3.2-1.12 6.896-1.12 10.688 0 0.224 0 0.432 0 0.64v-0.032c0 14.112 0 28.128 0 42.176 0 1.056-1.168 2.096-1.824 3.152-0.528-0.688-0.992-1.44-1.36-2.256l-0.032-0.080c-4.944-12.224-9.616-24.576-14.992-36.704-1.6-2.72-4.064-4.752-7.024-5.792l-0.096-0.032c-11.664-4.368-23.312-7.344-34.576-12.416-14.848-6.576-27.504-13.632-39.424-21.696l0.864 0.56c-15.056-10.496-16.976-11.664-34.64-6.832-2.288 0.64-4.544 1.456-6.768 2.16-3.504 1.056-7.408 5.36-10.272 1.568-1.568-2.048 0-7.12 1.344-10.496 2.624-8.096 6.704-15.84 5.536-24.72-0.112-2.944-0.912-5.664-2.272-8.080l0.048 0.096c-13.904-17.92-24.4-39.216-30.128-62.4l-0.256-1.168c-2.224-6.768-4.224-15.104-5.68-23.632l-0.16-1.088c-0.464-6.528-2.512-13.984-11.312-15.84-4.112-1.040-7.648-2.336-11.024-3.936l0.352 0.16c-3.904-1.744-7.696-3.744-11.664-5.824l-17.504-9.152c6.416-3.616 12.592-7.632 19.248-10.656 5.968-2.832 13.424-5.744 21.056-8.224l1.392-0.384c5.008-1.632 5.824-4.832 6.88-9.552 4.32-23.712 11.36-44.88 20.88-64.592l-0.656 1.488c5.216-11.12 11.28-20.672 18.384-29.376l-0.208 0.256c3.248-3.488 5.248-8.192 5.248-13.344 0-2.384-0.416-4.656-1.2-6.768l0.048 0.144c-1.632-5.024-3.264-11.456-4.544-18.032l-0.176-1.136c-0.16-1.088-0.256-2.336-0.256-3.616s0.096-2.528 0.256-3.744l-0.016 0.144c0-3.216 2.224-3.776 5.008-2.912 7.168 2.272 14.464 4.24 21.584 6.624 1.888 0.768 4.096 1.2 6.416 1.2 4.224 0 8.080-1.488 11.104-3.984l-0.032 0.032c18.176-12.912 39.104-23.696 61.504-31.312l1.712-0.512c3.68-0.56 6.912-1.312 10.064-2.352l-0.448 0.128c4.768-2.448 10.016-3.44 11.664-10.896 3.344-9.648 7.28-17.968 12-25.76l-0.32 0.592c1.52-2.976 3.152-5.824 4.72-8.848 0.352 3.744 0.992 7.52 1.104 11.232 0.928 8.32 0.832 16.608 0.768 24.816z"></path>
<path d="M305.808 168.496c-1.344 7.68-2.752 13.744-3.264 19.808 0 2.448 0.768 6.624 2.336 7.232 1.072 0.576 2.336 0.912 3.68 0.912 2.768 0 5.2-1.408 6.624-3.552l0.016-0.032c1.52-2.752 3.040-5.104 4.72-7.312l-0.112 0.16c1.712-2.848 4.8-4.72 8.32-4.72 5.36 0 9.68 4.32 9.68 9.664 0 3.024-1.392 5.744-3.584 7.504l-0.016 0.016c-0.864 1.104-2.448 1.856-2.976 3.152s-2.096 5.008-1.344 5.824c2.336 2.56 3.968 7.344 8.928 5.472 5.008-1.488 9.296-4.144 12.704-7.632 1.568-1.456 3.68-2.352 6-2.352 0.56 0 1.104 0.048 1.632 0.16l-0.064-0.016c3.44 0.928 4.432 4.432 4.48 8.144 0 8.8-1.28 10.432-10.32 11.952-6.528 1.056-12.832 2.976-19.296 4.368-2.336 0.544-5.216 0.992-8.128 1.248l-0.256 0.016c-5.072 0.464-8.752 0.4-9.856-6.816s-7.696-10.544-13.696-13.232c-6-2.688-10.080 2.224-9.328 9.040 1.168 10.304 9.328 17.488 11.312 27.728 0.832 4.192 10.272 6.592 14.928 4.768 5.84-2.224 11.088-5.008 16.624-7.456 1.472-0.736 3.216-1.424 5.008-1.984l0.224-0.064c6.944-2.048 12-0.464 13.696 4.144 0.080 0.48 0.128 1.040 0.128 1.6 0 4.448-2.656 8.288-6.464 10.032l-0.064 0.032c-5.824 2.848-12.304 4.432-17.968 7.568-2.768 1.552-6.064 2.48-9.6 2.48s-6.832-0.912-9.696-2.528l0.096 0.048c-2.336-1.056-7.168-2.448-8.336 2.56-0.352 0.88-0.576 1.904-0.576 2.992 0 3.024 1.648 5.664 4.080 7.072l0.048 0.016c2.448 1.28 5.84 1.104 7.872 2.848 9.328 8.688 18.144 8.512 28.048 0.528 6.24-5.072 11.664-3.312 15.52 3.088 2.336 3.728 1.92 5.824-1.28 9.664-5.648 6.896-14.16 11.264-23.712 11.264-6.96 0-13.392-2.32-18.528-6.24l0.080 0.048c-5.696-4.688-12.928-7.696-20.832-8.256h-0.128c-0.064 0-0.144 0-0.224 0-3.888 0-7.056 3.168-7.056 7.056 3.504 13.12 5.824 27.136 20.592 33.856 2.736 1.232 4.672 3.024 7.76 0.64 1.392-0.752 3.072-1.184 4.848-1.184 0.224 0 0.448 0 0.688 0.016h-0.032c7.76-0.528 10.848 1.52 11.664 7.344 1.104 7.52-2.624 15.376-8.816 16.080-1.44 0.288-3.104 0.464-4.816 0.464-3.808 0-7.392-0.832-10.624-2.32l0.144 0.064c-9.44-5.824-18.768-12.64-23.312-23.936-1.664-4.8-3.632-8.944-5.984-12.816l0.176 0.288c-1.536-3.12-4.688-5.2-8.336-5.2-2.4 0-4.608 0.912-6.256 2.416-1.168 0.864-2.048 2.096-3.152 3.024-5.824 4.832-5.824 4.832-11.664-1.456s-12.832-5.424-16.448 3.44c-5.232 11.728-12.352 21.712-21.072 30.016l-0.032 0.032c-4.32 4.176-10.208 6.752-16.688 6.752-1.632 0-3.216-0.16-4.752-0.464l0.16 0.032c-6.16-1.456-10.672-6.896-10.672-13.392 0-2.512 0.672-4.848 1.84-6.88l-0.032 0.064c1.888-1.952 4.48-3.216 7.376-3.376h0.032c0.32-0.016 0.672-0.032 1.024-0.032 3.12 0 6.064 0.688 8.736 1.888l-0.144-0.048c1.264 0.608 2.72 0.96 4.288 0.96 3.504 0 6.608-1.808 8.4-4.544l0.032-0.032c5.088-8.432 10.16-18.4 14.56-28.736l0.608-1.6c0.144-0.528 0.24-1.136 0.24-1.76 0-3.376-2.72-6.112-6.080-6.176-4.464 0.080-8.704 0.992-12.592 2.592l0.24-0.080c-7.456 2.944-13.696 6.016-19.696 9.52l0.672-0.352c-13.648 7.808-29.568-2.8-36.208-11.664-0.544-0.624-0.864-1.44-0.864-2.336 0-0.016 0-0.032 0-0.064 1.056-7.344 11.664-13.456 16.144-8.56 12.896 13.648 23.92 5.824 35.456-1.328 2.256-1.168 4.176-2.592 5.824-4.304 1.232-1.632 2.56-4.544 1.856-5.824s-3.616-2.512-5.84-3.68c-0.192-0.080-0.448-0.144-0.704-0.144s-0.496 0.048-0.72 0.144h0.016c-14 7.168-25.888 0.992-37.68-5.824-2.224-1.264-4.128-2.576-5.904-4.032l0.080 0.064c-2.192-1.328-3.632-3.68-3.632-6.4 0-1.376 0.368-2.672 1.024-3.776l-0.016 0.032c1.424-2.576 4.128-4.288 7.232-4.288 1.024 0 2.016 0.192 2.912 0.528l-0.064-0.016c5.056 1.808 9.36 3.744 13.44 6.048l-0.432-0.224c2.832 1.744 6.176 3.488 9.632 5.024l0.576 0.224c1.424 0.656 3.104 1.072 4.864 1.072 5.248 0 9.664-3.456 11.136-8.192l0.016-0.080c3.968-8.096 6.768-16.768 11.248-24.48 2.976-5.2-0.4-6.768-2.976-9.152-1.072-1.312-2.704-2.144-4.512-2.144s-3.44 0.832-4.512 2.144l-0.016 0.016c-2.88 2.592-5.488 5.36-7.824 8.368l-0.112 0.144c-7.696 10.608-11.664 12.224-23.84 8.384-6.112-2.688-13.216-4.336-20.72-4.48h-0.064c-3.792 0-8.912-5.824-8.288-9.504 0.448-3.488 1.584-6.656 3.28-9.424l-0.064 0.112c0.976-1.408 2.56-2.288 4.368-2.288s3.408 0.896 4.368 2.272l0.016 0.016c3.648 4.272 8.656 7.264 14.368 8.304l0.16 0.016c0.464 0.096 1.008 0.16 1.552 0.16 1.584 0 3.072-0.464 4.32-1.28l-0.032 0.016c1.168-1.328 1.888-3.088 1.888-5.008 0-0.496-0.048-0.976-0.144-1.44l0.016 0.048c-1.344-3.776-3.312-7.008-5.856-9.744l0.016 0.016c-3.904-4.144-1.92-6.752 1.232-9.6 6.592-5.824 13.12-5.136 17.504 2.736 3.264 5.824 8.464 9.264 12.368 7.68s5.312-5.824 2.912-13.808c-0.832-2.688-1.696-5.36-2.512-8.096-1.28-4.24 0.528-11.664 3.44-12.176 1.648-0.288 3.52-0.448 5.44-0.448 1.152 0 2.272 0.064 3.376 0.176l-0.144-0.016c4.208 0 3.312 3.552 4.368 5.824 1.76 4.080 2.56 8.8 9.552 8.736 5.888 0.016 10.64 4.784 10.64 10.656 0 0.256-0.016 0.496-0.032 0.736v-0.032c0 0.176-0.016 0.352-0.016 0.544 0 4.72 2.528 8.832 6.32 11.072l0.064 0.032c2.224 1.456 4.912 2.32 7.856 2.32 7.2 0 13.168-5.296 14.192-12.208l0.016-0.080c0.464-1.808 0-4.144 0.592-5.824 2.096-4.016 3.376-9.2 10.032-7.984 4.432 0.832 6.704-0.464 7.232-5.824 0.24-5.184 4.496-9.28 9.728-9.28 1.824 0 3.552 0.512 5.008 1.376l-0.048-0.032c1.52 1.168 2.32 5.424 3.088 7.056zM243.76 263.392c1.568 5.424-3.312 7.28-5.824 10.544-0.64 0.864-1.344 2.864-1.104 3.024 3.056 2.016 6.592 3.952 10.288 5.632l0.496 0.192c0.928 0.4 4.144-1.392 4.144-2.272 0.192-2.768 0.272-5.968 0.272-9.2s-0.112-6.448-0.304-9.648l0.016 0.432c0-0.864-3.152-1.456-4.768-2.16-0.528-1.856-1.312-3.488-2.32-4.944l0.032 0.064c-0.768-0.768-2.752 0-4.144-0.528s-3.152-1.232-4.72-1.808l3.552-2.096c6.768-3.904 6.768-3.904 0.992-9.664l-5.136-5.072c-0.72-0.944-1.84-1.536-3.104-1.536-1.808 0-3.312 1.216-3.776 2.848v0.032c-1.056 3.776-9.152 8.32 0 12.224 0.528 0 0.592 3.44 0 3.552-9.216 3.776-3.264 9.504-1.392 13.92s4.896 5.136 9.856 0.992c2.336-1.168 4.672-2.976 6.944-4.544zM273.44 234.736l-0.992-1.056c0.768-1.168 2.512-2.8 2.16-3.504-2.32-5.824-7.856-7.68-13.056-9.776-0.528 0-2.56 1.568-2.624 2.448 0 6.224 0 12.528 0 18.816 0 5.008 2.16 2.224 3.968 0.928 0.96-0.624 2.080-1.28 3.248-1.84l0.192-0.080c0 1.28 1.104 3.088 0.592 3.84-2.288 3.024 0 3.216 1.92 4.544 4.256 2.512 6.368 5.424-1.28 5.824-0.832 0-2.384 3.376-2.048 3.792 3.568 4.176 7.168 8 10.96 11.6l0.064 0.064c0.72 0.512 1.616 0.816 2.576 0.816 0.448 0 0.88-0.064 1.296-0.192l-0.032 0.016c3.504-1.104 7.696-13.056 5.184-15.664-1.632-1.68-4.848-2.288-1.568-4.608 5.248-3.776 1.168-7.344 0.704-11.232-1.232-8.32-7.296-3.84-11.248-4.72zM252.256 231.648v-4.32c0-8.208-0.704-8.448-7.52-4.656-10.384 5.824-10.448 6.128-2.16 14.208 0.912 1.104 1.904 2.080 2.992 2.944l0.048 0.032c1.312 0.768 2.88 1.552 4.512 2.224l0.256 0.096c0.72-1.408 1.312-3.040 1.712-4.736l0.032-0.144c0.128-1.008 0.192-2.192 0.192-3.376 0-0.736-0.032-1.472-0.080-2.192v0.096zM259.616 261.36c-0.4 0.768-0.72 1.68-0.864 2.624v0.048c0 4.304 0 8.624 0 12.928 0 2.096 0.928 5.296 2.288 5.824 0.448 0.096 0.96 0.16 1.488 0.16 1.84 0 3.52-0.688 4.8-1.792h-0.016c2.224-1.984 6.992-3.968 4.432-7.744-3.36-4.192-6.944-7.904-10.864-11.264l-0.112-0.096c-0.336-0.288-0.72-0.528-1.136-0.688l-0.032-0.016z"></path>
<path d="M273.44 234.736l-2.624 1.632 1.632-2.688z"></path>
<path d="M246.608 260.48l-2.688 2.688z"></path>
</svg>
