<!-- Generated by IcoMoon.io -->
<svg version="1.1" xmlns="http://www.w3.org/2000/svg" width="512" height="512" viewBox="0 0 512 512">
<title>monsters-of-order</title>
<g id="icomoon-ignore">
</g>
<path d="M275.008 465.968c0-9.728 0-19.408 0-29.12 0-12.592-1.104-10.368 10.672-13.28 12.144-2.752 22.64-6.16 32.704-10.384l-1.28 0.48c29.264-12.448 53.84-30.944 73.056-54.048l0.24-0.304c17.152-21.040 24.672-45.328 32.544-69.904 0.48-2.256 0.752-4.848 0.752-7.52 0-1.456-0.080-2.896-0.256-4.304l0.016 0.176c0-11.664-0.4-23.296 0-34.944 1.168-24.88-7.056-47.072-17.504-68.864-13.072-25.904-31.92-47.2-54.944-62.8l-0.576-0.368c-13.664-10.064-29.792-17.696-47.264-21.904l-0.896-0.192c-7.92-1.632-15.68-4.080-23.312-6.288-4.48-1.232-3.68-5.2-3.68-8.384 0-16.96 0-33.952 0-50.912 0-3.84 0-7.744 0-11.664 0.336-1.376 0.88-2.576 1.6-3.664l-0.032 0.048c1.088 0.864 2 1.856 2.768 2.976l0.032 0.048c4.464 8.208 8.976 18.096 12.8 28.304l0.56 1.68c1.456 5.136 5.28 9.136 10.208 10.8l0.112 0.032c4.112 2.112 8.992 4.080 14.048 5.648l0.656 0.176c23.984 6.544 44.864 17.488 62.704 32l-0.32-0.256c3.728 2.912 8.48 4.688 13.664 4.688 2.224 0 4.368-0.32 6.384-0.928l-0.144 0.048c4.672-0.864 9.312-1.984 14.048-2.8 13.76-2.56 13.648-2.624 9.616 11.664-1.952 5.92-3.6 13.008-4.64 20.272l-0.080 0.704c-0.016 0.272-0.032 0.592-0.032 0.912 0 3.6 1.168 6.912 3.152 9.616l-0.032-0.048c15.2 19.152 26.368 42.192 31.76 67.36l0.192 1.088c1.456 7.456 3.856 14.8 5.824 22.192 1.344 5.744 5.52 10.288 10.976 12.096l0.128 0.032 36.112 14.576c1.28 0.528 2.448 1.28 3.744 1.92-1.232 1.408-2.096 3.552-3.616 4.192-11.664 5.248-23.68 10.144-35.584 15.136-6.688 2.272-11.6 8.064-12.512 15.12l-0.016 0.096c-4.8 26.784-13.664 50.736-26 72.416l0.592-1.12c-4.72 7.808-10.32 15.040-14.816 22.896-1.312 2.464-2.064 5.376-2.064 8.464 0 0.8 0.048 1.584 0.144 2.336l-0.016-0.096c1.104 7.52 3.376 14.912 4.896 22.368 1.808 9.088 1.168 10.192-7.984 8.848-6.592-1.312-12.464-3.344-17.92-6.016l0.416 0.192c-1.952-0.992-4.256-1.584-6.704-1.584-3.888 0-7.44 1.488-10.112 3.92l0.016-0.016c-17.504 12.464-35.568 24.752-56.624 31.12-6.832 2.080-13.76 3.776-20.528 5.824-4.576 1.536-8.032 5.264-9.136 9.92l-0.016 0.096c-3.744 11.296-9.152 22.032-13.936 32.976-0.688 1.248-1.472 2.352-2.336 3.328l0.016-0.016c-0.688-1.104-1.232-2.384-1.552-3.744l-0.016-0.096c0-11.136 0-22.304 0-33.44z"></path>
<path d="M232.432 44.304c0 10.208 0 20.384 0 30.576 0 5.2-1.808 7.28-7.296 8.448-11.2 2.384-22.096 5.824-33.056 9.44-13.92 4.928-25.952 11.568-36.688 19.808l0.32-0.24c-18.72 13.072-34.352 29.152-46.528 47.696l-0.4 0.672c-17.712 26.208-28.272 58.512-28.272 93.28 0 7.28 0.464 14.464 1.36 21.52l-0.096-0.832c2.672 22.8 9.904 43.456 20.736 61.712l-0.384-0.72c8.832 15.712 19.040 29.248 30.768 41.28l-0.048-0.048c19.328 19.712 43.488 34.64 70.544 42.912l1.184 0.32c5.728 1.744 12.8 3.36 20.032 4.48l0.912 0.128c5.824 0.768 7.008 3.968 6.944 8.912 0 11.664-0.352 23.296 0 34.96 0.288 8.080 1.68 16.128 2.448 24.24 0.16 1.312 0.224 2.8 0.224 4.336s-0.096 3.040-0.256 4.528l0.016-0.192c0 0.992-1.808 1.984-2.976 2.448s-2.096-0.4-2.448-0.992c-2.336-4.72-4.72-9.44-6.768-14.336-2.56-6.176-4.896-12.464-7.232-18.752-2.96-8.192-9.888-14.256-18.384-16l-0.16-0.032c-24.224-6.208-45.408-16.576-63.856-30.4l0.464 0.336c-1.104-0.864-3.088-0.992-3.744-2.048-7.856-12-18.304-9.504-29.152-5.36l-13.472 5.136c-5.472 2.096-8.4 0-7.12-5.824 1.232-5.664 3.040-10.624 5.376-15.296l-0.176 0.384c2.032-3.6 3.248-7.904 3.248-12.496 0-6.544-2.448-12.528-6.464-17.072l0.032 0.032c-11.712-16.176-21.264-34.912-27.664-55.056l-0.384-1.392c-2.864-8.512-4.944-18.416-5.808-28.656l-0.032-0.48c-0.048-5.456-3.648-10.064-8.592-11.632l-0.096-0.032c-7.584-3.088-14.992-6.528-22.576-9.68-1.28-0.592-3.088 0-4.192-0.928-4.32-2.912-8.448-5.824-12.656-9.264 4.256-2.384 8.336-5.008 12.704-7.12 9.568-4.544 19.28-8.912 29.152-13.12 3.648-1.264 6.224-4.688 6.224-8.72 0-0.016 0-0.016 0-0.032 2.144-22.512 8.4-43.152 18-61.776l-0.448 0.944c6-11.6 12.352-21.536 19.488-30.848l-0.352 0.48c4.608-6.592 8.464-12.288 4.784-21.088-2.128-6.032-4.144-13.472-5.648-21.12l-0.192-1.088c-1.392-5.072 1.456-6.352 5.2-5.824 5.28 0.912 9.952 2.208 14.4 3.904l-0.528-0.176c3.552 1.392 7.664 2.224 11.968 2.224 8.096 0 15.536-2.88 21.312-7.68l-0.064 0.048c15.056-10.768 30.8-21.328 49.808-25.040 8.256-2.288 15.376-5.056 22.144-8.464l-0.688 0.304c8.336-3.376 7.168-12.928 11.664-18.688 0.992-1.28 0-4.016 0.992-5.824 3.376-5.824 7.168-11.664 10.784-17.488 0.4 6.224 0.992 12.416 1.232 18.64s0 11.664 0 17.488z"></path>
<path d="M179.84 148.112c18.72 0.624 18.72 0.624 24.736 18 4.016 11.664 4.016 11.664 15.984 11.664 23.328 0 46.64 0 69.968 0 11.664 0 11.664 0 15.056-10.96 5.84-18.176 5.84-18.176 25.376-18.128 3.44 0 6.832 0 10.208 0s4.256 1.232 2.56 4.544c-2.528 4.608-5.12 10.176-7.36 15.952l-0.336 1.008c-2.16 5.824 0 8.16 5.824 7.344 5.168-1.088 11.488-1.968 17.888-2.464l0.528-0.032c5.824 0 7.12 2.224 4.256 6.928-3.744 6.176-8.16 11.952-11.664 18.288-2.624 5.072-6.464 5.136-10.912 4.368-3.584-0.992-7.856-1.808-12.256-2.256l-0.336-0.032c-0.256-0.016-0.56-0.032-0.864-0.032-5.584 0-10.336 3.584-12.096 8.56l-0.032 0.096c-12 24.992-24.496 49.856-38.304 73.872-8.464 14.608-0.768 24.416 6.304 35.312 0 0.288 0.928 0.288 1.28 0.64 10.208 10.832 10.080 10.72 0 21.44-5.184 5.824-9.744 11.664-14.992 17.488-2.912 3.088-5.824 2.976-7.168-2.16s-1.92-10.304-3.152-15.44c-0.768-2.976-1.776-5.568-3.072-8.016l0.080 0.192c-0.592-1.168-2.16-1.856-3.312-2.736-0.784 0.976-1.488 2.080-2.048 3.264l-0.048 0.112c-1.744 5.472-3.088 11.008-4.944 16.432-2.864 8.32-4.672 8.848-10.384 2.624s-11.072-13.28-16.912-19.68c-3.44-3.728-2.688-6.464 0.464-9.904 4.432-5.008 8.512-10.368 12.656-15.616 7.12-9.024 4.368-18.512 0-27.264-10.208-21.568-21.344-42.704-31.664-64.080-4.432-9.264-8.464-15.504-21.344-12.656-21.744 4.768-28.448-10.368-34-25.12-1.168-3.152 0-4.544 3.024-4.592 6.768 0 13.6 0 20.352-0.352 2.048 0 5.248-1.168 5.84-2.56s-1.168-4.256-1.984-6.352c0-0.4-0.704-0.704-0.928-1.056l-9.28-14.384zM253.024 198.256v1.168c-6.768 0-13.52 0-20.288 0-7.984 0.4-9.44 2.784-6.176 9.728 8.064 17.488 16.16 34.608 24.496 51.856 0.704 1.52 3.216 3.552 4.144 3.2 2.176-0.8 3.904-2.32 4.992-4.256l0.032-0.048c8.512-16.544 16.688-33.264 25.072-49.856 2.288-4.544 1.856-7.344-3.68-8.048z"></path>
</svg>
