<!-- Generated by IcoMoon.io -->
<svg version="1.1" xmlns="http://www.w3.org/2000/svg" width="512" height="512" viewBox="0 0 512 512">
<title>monsters-of-order</title>
<g id="icomoon-ignore">
</g>
<path d="M236.080 448.832c-1.232 7.104-2.88 14.128-3.584 21.296-0.016 0.608-0.032 1.312-0.032 2.032 0 4.368 0.32 8.688 0.96 12.88l-0.064-0.464c0.464 4.752 1.28 9.504 1.52 14.32-0.224 1.872-0.768 3.584-1.568 5.136l0.048-0.096c-1.264-1.040-2.352-2.224-3.264-3.584l-0.032-0.064c-4.64-8.72-9.216-19.216-13.056-30.048l-0.528-1.696c-1.728-7.136-7.552-12.528-14.768-13.6l-0.080-0.016c-18.592-4.048-35.040-10.848-49.84-20.032l0.672 0.384c-6.080-3.504-11.184-6.848-16.080-10.464l0.448 0.304c-11.744-9.632-23.488-13.792-38.48-7.632-4.48 1.648-9.952 3.168-15.552 4.288l-0.72 0.112c0.592-6.432 1.776-12.304 3.456-17.968l-0.176 0.656c5.344-13.264 2.992-23.936-4.816-36.336-14.688-23.056-27.136-47.648-29.952-75.824-0.416-10.368-7.184-19.056-16.512-22.304l-0.176-0.048c-10.624-4.048-20.736-9.808-31.008-14.912-1.184-0.592-1.936-1.936-2.928-2.928 1.408-0.688 2.816-1.52 4.288-2.176 12.336-5.232 24.832-10.144 37.008-15.84 3.168-1.664 5.488-4.576 6.272-8.080l0.016-0.080c3.872-36.688 18.224-69.44 39.968-95.92l-0.24 0.304c2.832-3.28 4.576-7.6 4.576-12.304 0-1.888-0.288-3.696-0.8-5.44l0.032 0.144c-1.776-7.92-3.408-15.84-5.056-23.824-1.056-5.152-0.352-7.024 5.888-4.464 20.624 8.576 39.008 5.168 56.624-9.392 11.296-9.632 25.232-16.512 40.56-19.456l0.56-0.096c15.68-2.816 28.672-10.912 31.84-28.944 1.312-3.92 3.088-7.312 5.312-10.384l-0.080 0.112c1.584-2.88 3.28-5.872 4.992-8.448 1.376 3.168 2.448 6.832 3.024 10.656l0.032 0.256c0 5.872-1.232 11.728-1.584 17.184s-0.288 12.56-0.288 18.784c0 0.88 0.944 1.712 1.168 2.64 4.336 18.48 0.352 24.576-18.032 27.392-29.888 4.64-55.968 18.336-75.968 38.16l0.016-0.016c-14.976 14.544-30.48 28.816-39.296 48.176-9.488 18.688-16.096 40.448-18.56 63.44l-0.080 0.816c-0.448 4.896-0.72 10.608-0.72 16.368 0 16.848 2.208 33.184 6.368 48.752l-0.304-1.312c9.968 38.752 32.496 71.2 62.912 93.568l0.464 0.32c14.896 12.192 32.544 21.68 51.824 27.376l1.056 0.256c4.64 1.056 9.344 1.936 14.048 2.592 14.928 2.112 16.912 4.272 17.024 19.312v5.872z"></path>
<path d="M276.96 465.856c0.272-4.16 0.432-9.024 0.432-13.904s-0.16-9.744-0.48-14.576l0.032 0.656c-1.28-10.080 4.704-13.264 12.048-14.144 50.048-5.872 84.528-36.368 112.544-74.576 9.488-13.36 16.72-29.088 20.688-46.048l0.176-0.896c4.592-15.2 7.232-32.688 7.232-50.784 0-0.72 0-1.424-0.016-2.16v0.112c-2-43.6-15.632-82.992-48.048-114.016-10.768-11.632-22.544-22.048-35.264-31.216l-0.688-0.48c-16.368-10.752-35.792-18.288-56.72-21.216l-0.752-0.080c-8.16-0.944-11.152-3.648-11.040-11.744 0.288-19.536 0-39.088 0-58.688 0.080-1.6 0.24-3.088 0.496-4.56l-0.032 0.224c1.408 1.12 3.456 1.936 4.176 3.456 4.144 7.392 7.92 16.016 10.864 25.008l0.288 1.056c1.616 7.712 7.824 13.6 15.568 14.72l0.096 0.016c21.392 4.496 40.288 12.928 56.752 24.56l-0.464-0.32c18.16 13.904 35.6 20.768 57.456 10.208 4.64-2.224 7.52 1.056 5.872 6.224-2.032 7.36-4.32 14.624-6.864 21.824-0.752 1.952-1.184 4.208-1.184 6.56 0 5.184 2.112 9.888 5.536 13.28 7.888 9.104 14.432 19.632 19.168 31.104l0.288 0.768c6.448 17.904 14.688 35.52 16.080 55.040 0.144 6.048 4.016 11.168 9.424 13.12l0.096 0.032c13.872 5.344 27.792 10.56 41.648 15.84 1.28 0.464 2.528 1.056 3.744 1.584-1.056 1.264-2.288 2.32-3.632 3.2l-0.064 0.032c-12.864 5.392-25.856 10.448-38.656 15.84-7.552 3.008-12.88 10.128-13.216 18.512v0.048c-4.528 28.576-13.392 56.224-32.192 78.928-11.216 13.6-11.216 27.12-5.888 42.368 3.888 10.912 1.52 13.376-9.696 11.744-1.024-0.112-1.952-0.368-2.8-0.8l0.048 0.016c-15.456-9.040-28.080-3.168-41.12 6.272-16.848 12.656-36.96 21.984-58.832 26.544l-0.976 0.176c-7.264 1.456-13.056 6.576-15.472 13.296l-0.048 0.144c-3.584 7.808-7.232 15.552-10.992 23.472-1.584 3.168-3.456 6.208-5.232 9.328 0-3.344-0.528-6.688-0.592-10.032 0.064-8.448 0.128-16.784 0.128-25.056z"></path>
<path d="M254.176 351.248c10.512-1.344 21.024-2.528 31.488-4.112 3.568-0.56 6.768-1.68 9.664-3.296l-0.144 0.080c10.688-5.872 11.056-13.616 0-18.496-9.184-3.888-19.856-6.16-31.072-6.16-9.632 0-18.896 1.68-27.488 4.736l0.576-0.176c-2.096 0.976-3.6 2.928-3.92 5.232v0.032c0 1.52 2.88 3.936 4.768 4.224 13.392 2.176 26.976 5.872 40-2.224 1.776-1.056 5.056 0 7.632 0.464-0.624 2.496-1.52 4.688-2.656 6.72l0.080-0.144c-1.232 1.44-2.944 2.448-4.88 2.8l-0.048 0.016c-19.152 3.76-38.416 6.336-56.208-4.576-8.912-5.456-8.64-12.784 1.056-17.616 7.376-4.432 16.016-7.6 25.248-8.928l0.368-0.048c22.208-1.648 44.88-2.832 64.624 10.8 3.808 2.192 7.040 4.928 9.696 8.16l0.048 0.064c3.984 5.872 3.056 10.448-3.52 15.44-14.016 10.448-31.12 17.52-49.728 19.728l-0.496 0.048c-19.568 2.768-38.48-2.224-57.456-6.208-2.112-0.464-3.712-3.12-5.888-4.112-10.288-4.8-22.368-10.384-21.552-22.64 0.944-13.44 12.048-22.544 24.144-28.16 8.096-3.808 17.264-5.344 25.792-8.448 4.64-1.648 10.976-3.28 12.8-6.864 3.232-5.872-2.336-10.56-7.28-14.096-1.936-1.344-4.048-2.592-5.872-3.872-5.104-3.216-12.512-10.272-14.8-8.928-6.032 4.72-11.040 10.4-14.88 16.864l-0.16 0.288c-0.528 0.976-0.832 2.144-0.832 3.376s0.304 2.4 0.848 3.408l-0.016-0.032c8.912 10.032 1.12 9.168-5.888 9.168-7.632 0-15.264 0.464-22.848 0-9.28-0.656-9.76-1.344-3.872-8.928 7.408-9.568 15.792-18.368 23.488-27.632 2.928-3.52 5.232-7.632 7.824-11.44-5.584-3.52-12.4-10.976-16.448-9.744-11.744 3.648-9.52-3.344-9.216-9.152 0.56-5.808 1.408-11.008 2.576-16.096l-0.144 0.832c4.8 2.704 9.76 5.168 14.336 8.16 6.448 4.176 12.688 12.192 18.848 11.728s10.912-9.040 16.144-14.256c5.184-4.832 9.936-9.888 14.352-15.28l0.224-0.272c1.488-1.936 2.368-4.4 2.368-7.088 0-1.056-0.144-2.080-0.4-3.040l0.016 0.080c-1.872-1.632-4.352-2.624-7.056-2.624-0.96 0-1.872 0.128-2.768 0.352l0.080-0.016c-7.28 2.224-14.112 5.872-21.216 8.8-0.528 0.112-1.136 0.176-1.776 0.176s-1.232-0.064-1.808-0.192l0.064 0.016c0.464-0.832 0.816-2 1.584-2.464 7.408-5.152 15.936-10.176 24.832-14.592l1.2-0.544c5.888-2.4 10.464-4.464 8.16-10.912s-8.16-5.872-13.744-4.112c-23.488 6.576-46.992 13.568-63.504 33.744-1.696 1.472-3.616 2.72-5.728 3.648l-0.144 0.064c-0.528-1.872-0.96-4.128-1.2-6.432l-0.016-0.208c-0.176-1.984-0.256-4.272-0.256-6.592s0.096-4.624 0.288-6.896l-0.016 0.304c0.16-2.384 1.344-4.48 3.104-5.856l0.016-0.016c13.28-6.64 27.024-12.256 40.064-19.36 40.48-22.016 78.832-15.44 116.432 7.328 7.28 4.4 15.216 7.68 22.736 11.728 1.744 1.248 3.232 2.768 4.352 4.512l0.048 0.064c0.464 0.656 0 1.872 0 2.88-0.368 6.576-0.704 13.136-1.12 19.712-4.464-4.112-8.752-8.512-13.392-12.384-15.2-12.96-34.352-21.712-55.392-24.304l-0.512-0.048c-3.952-0.464-11.216-3.12-11.216 4.8 0 6.864 6.512 4.576 10.224 4.4 0.384-0.016 0.832-0.016 1.28-0.016 11.824 0 22.4 5.296 29.52 13.632l0.048 0.064c8.4 8.864 7.52 18.96-1.648 27.408-4.048 4.192-7.904 8.656-11.488 13.36l-0.288 0.368c8.464 3.712 11.744-4.928 17.328-7.744s8.4-8.080 12.864-11.728c1.408-1.184 4.048-0.832 6.176-1.184 1.12 5.552 2 12.224 2.432 19.024l0.032 0.464c0 1.472-4.576 3.12-7.104 4.576-5.888 3.28-11.744 6.288-17.104 9.92-0.768 0.528-0.4 4.576 0.704 5.872 5.888 7.168 11.744 14.032 17.632 21.072 4.64 5.52 9.168 11.2 13.808 16.72 3.056 3.632 1.52 4.928-2.464 4.992h-30.848c-3.984 0-6.704-0.464-3.872-5.872 1.456-2.256 2.32-5.008 2.32-7.968 0-1.2-0.144-2.336-0.4-3.456l0.016 0.112c-4.208-6.224-8.736-11.664-13.728-16.608l-0.016-0.016c-0.288-0.352-1.824 0-2.4 0.352-9.008 6.224-16.784 12.32-24.224 18.8l0.304-0.272c-2.528 2.336-2.064 7.984-2.752 12.16-0.304 1.936 0.528 4.224 0 5.872s-2.992 5.056-5.008 5.456c-7.52 1.52-15.216 2.336-22.848 3.232-12.304 2.352-22.8 8.784-30.304 17.808l-0.064 0.096c-5.888 6.208-3.984 12.736 4.768 17.6 11.12 6.752 24.56 10.72 38.928 10.72 1.728 0 3.424-0.064 5.136-0.176l-0.224 0.016zM279.84 244.608l-22.56-26.752c0 0-0.944 0-1.408 0-5.888 0-26.016 27.456-22.56 30.976 6.128 6.32 13.248 11.648 21.104 15.744l0.448 0.224c5.168 2.4 24.080-12.032 24.96-20.176zM274.752 186.928c-3.296 1.344-8.64 2.064-9.344 4.224-0.048 0.448-0.080 0.96-0.080 1.488 0 3.392 1.168 6.512 3.104 8.992l-0.032-0.032c2.672 4.48 6.224 8.176 10.448 10.896l0.128 0.080c1.904 0.864 4.128 1.36 6.464 1.36s4.56-0.496 6.56-1.408l-0.096 0.048c2.608-1.52 4.32-4.288 4.32-7.488 0-1.856-0.592-3.584-1.584-4.992l0.016 0.032c-4.528-7.392-9.568-13.664-19.904-13.2z"></path>
</svg>
