<!-- Generated by IcoMoon.io -->
<svg version="1.1" xmlns="http://www.w3.org/2000/svg" width="32" height="32" viewBox="0 0 32 32">
<title>bladeborn-mollog</title>
<path d="M17.073 29.129c0-0.695 0-1.394 0-2.089 0-0.24 0.048-0.393 0.336-0.422 0.453-0.039 0.869-0.118 1.269-0.238l-0.045 0.012c1.611-0.499 3.116-1.205 4.311-2.443 0.651-0.614 1.247-1.268 1.793-1.964l0.029-0.039c0.59-0.841 1.166-1.725 1.25-2.806 0.62-1.136 0.532-2.373 0.536-3.601-0.027-1.723-0.504-3.329-1.318-4.712l0.024 0.045c-0.589-1.121-1.329-2.076-2.208-2.884l-0.008-0.007c-1.275-1.139-2.668-2.093-4.402-2.417-0.33-0.083-0.61-0.179-0.88-0.294l0.038 0.014c-0.703-0.244-0.711-0.248-0.711-0.914 0-1.183 0-2.363 0-3.546 0.020-0.122 0.053-0.23 0.098-0.332l-0.004 0.009c0.072 0.084 0.137 0.178 0.192 0.279l0.005 0.009c0.284 0.623 0.595 1.234 0.82 1.878 0.086 0.357 0.368 0.629 0.723 0.698l0.006 0.001c0.633 0.16 1.166 0.338 1.681 0.55l-0.081-0.030c1.213 0.469 2.261 1.068 3.202 1.801l-0.028-0.020c0.221 0.197 0.514 0.316 0.834 0.316 0.166 0 0.323-0.032 0.468-0.090l-0.009 0.003c0.398-0.128 0.795-0.244 1.196-0.364 0.036-0.016 0.077-0.025 0.12-0.025 0.169 0 0.307 0.137 0.307 0.306 0 0.045-0.010 0.087-0.026 0.125l0.001-0.002c-0.139 0.484-0.28 0.965-0.452 1.456-0.041 0.111-0.064 0.239-0.064 0.374 0 0.3 0.118 0.573 0.309 0.774v-0.001c0.641 0.797 1.159 1.726 1.504 2.736l0.020 0.064c0.277 0.936 0.692 1.82 0.707 2.832 0 0.364 0.263 0.514 0.562 0.634 0.769 0.302 1.542 0.611 2.314 0.921 0.061 0.029 0.111 0.057 0.16 0.087l-0.007-0.004c-0.044 0.073-0.073 0.182-0.139 0.215-0.554 0.282-1.112 0.555-1.673 0.82-0.179 0.088-0.398 0.176-0.625 0.251l-0.039 0.011c-0.438 0.139-0.529 0.441-0.583 0.884-0.010 0.627-0.158 1.216-0.415 1.743l0.011-0.024c-0.018 0.022-0.034 0.047-0.047 0.075l-0.001 0.002c-0.332 1.518-1.188 2.775-2.052 4.005-0.118 0.146-0.19 0.335-0.19 0.54 0 0.074 0.010 0.147 0.027 0.216l-0.001-0.006c0.124 0.546 0.211 1.092 0.364 1.642 0.091 0.288-0.029 0.317-0.226 0.292-0.352-0.030-0.676-0.095-0.986-0.195l0.031 0.009c-0.595-0.211-1.093-0.342-1.702 0.12-0.934 0.741-2.023 1.338-3.205 1.733l-0.075 0.021c-0.364 0.11-0.729 0.23-1.093 0.317-0.364 0.065-0.653 0.326-0.757 0.667l-0.002 0.007c-0.222 0.772-0.659 1.456-0.937 2.184-0.025 0.055-0.054 0.104-0.088 0.147l0.001-0.002c-0.040-0.062-0.116-0.128-0.116-0.189 0-0.729 0-1.456 0-2.185z"></path>
<path d="M14.387 2.815c0 0.666 0 1.332 0 1.998 0 0.255-0.098 0.336-0.365 0.408-1.171 0.287-2.155 0.607-3.109 0.987l0.157-0.055c-0.71 0.367-1.322 0.771-1.885 1.231l0.020-0.015c-2.171 1.643-3.679 4.061-4.111 6.836l-0.008 0.059c-0.097 0.466-0.153 1.001-0.153 1.549 0 0.145 0.004 0.29 0.011 0.434l-0.001-0.020c0.052 1.354 0.327 2.627 0.789 3.807l-0.027-0.080c0.7 1.687 1.753 3.104 3.074 4.213l0.017 0.014c1.155 0.932 2.383 1.751 3.863 2.104 0.459 0.109 0.914 0.24 1.381 0.313 0.27 0.044 0.364 0.153 0.364 0.404 0 0.7 0 1.394 0 2.090 0 0.637 0 1.274 0 1.911-0.023 0.116-0.058 0.22-0.106 0.317l0.003-0.008c-0.071-0.085-0.135-0.18-0.189-0.282l-0.005-0.009c-0.262-0.623-0.514-1.245-0.769-1.872-0.15-0.391-0.498-0.675-0.92-0.728l-0.006-0.001c-0.939-0.238-1.764-0.564-2.53-0.982l0.056 0.028c-0.907-0.437-1.688-0.953-2.39-1.559l0.014 0.012c-0.098-0.103-0.236-0.167-0.389-0.167-0.094 0-0.182 0.024-0.259 0.067l0.003-0.001c-0.495 0.197-1.024 0.306-1.523 0.499-0.255 0.098-0.342 0.040-0.306-0.197 0.057-0.49 0.149-0.933 0.276-1.359l-0.014 0.056c0.057-0.162 0.090-0.348 0.090-0.541 0-0.37-0.119-0.712-0.323-0.989l0.003 0.005c-0.476-0.67-0.906-1.434-1.252-2.242l-0.031-0.080c-0.313-0.88-0.779-1.725-0.776-2.719 0.003-0.033 0.005-0.072 0.005-0.111 0-0.561-0.389-1.030-0.912-1.155l-0.007-0.002c-0.529-0.173-0.967-0.352-1.389-0.557l0.066 0.029c-0.148-0.054-0.275-0.122-0.391-0.207l0.004 0.003c-0.151-0.128-0.288-0.259-0.416-0.397l-0.003-0.003c0.147-0.118 0.313-0.227 0.489-0.323l0.018-0.009c0.682-0.295 1.37-0.568 2.052-0.859 0.16-0.066 0.317-0.116 0.328-0.364 0.022-0.446 0.087-0.866 0.192-1.271l-0.009 0.044c0.124-0.48 0.309-0.94 0.47-1.409 0.444-1.29 1.052-2.408 1.814-3.403l-0.021 0.029c0.198-0.206 0.32-0.486 0.32-0.795 0-0.173-0.039-0.338-0.108-0.486l0.003 0.007c-0.132-0.373-0.236-0.812-0.292-1.264l-0.003-0.031c-0.052-0.298 0.069-0.364 0.419-0.28 0.547 0.124 1.093 0.255 1.648 0.364 0.021 0.003 0.046 0.003 0.072 0.003 0.12 0 0.232-0.033 0.329-0.089l-0.003 0.002c0.309-0.174 0.601-0.386 0.907-0.564 1.017-0.594 1.975-1.307 3.196-1.482 0.412-0.080 0.778-0.206 1.119-0.376l-0.025 0.012c0.149-0.080 0.264-0.206 0.33-0.359l0.002-0.005c0.324-0.764 0.623-1.541 0.937-2.309 0.029-0.054 0.063-0.099 0.102-0.139 0.037 0.073 0.102 0.145 0.102 0.222 0 0.696 0 1.394 0 2.089z"></path>
<path d="M15.673 13.938h-4.639c-0.082 0.014-0.175 0.020-0.27 0.020s-0.188-0.008-0.279-0.022l0.010 0.001c-0.199-0.054-0.364-0.17-0.479-0.326l-0.002-0.002c-0.008-0.034-0.012-0.073-0.012-0.113 0-0.14 0.054-0.268 0.143-0.363 0.388-0.396 0.811-0.755 1.266-1.073l0.029-0.019c0.481-0.305 1.037-0.584 1.618-0.808l0.065-0.022c0.4-0.128 0.733-0.374 0.966-0.697l0.004-0.006c0.336-0.567 0.939-0.944 1.63-0.961h0.003c0.021-0.001 0.044-0.001 0.068-0.001 0.45 0 0.857 0.184 1.149 0.482 0.201 0.21 0.411 0.405 0.632 0.587l0.013 0.010c0.238 0.203 0.51 0.375 0.807 0.502l0.020 0.008c1.049 0.405 1.954 0.947 2.747 1.617l-0.014-0.012c0.047 0.040 0.083 0.091 0.131 0.128 0.137 0.116 0.222 0.287 0.222 0.479 0 0.090-0.018 0.175-0.052 0.252l0.002-0.004c-0.087 0.262-0.324 0.321-0.591 0.317-0.758 0-1.516 0-2.274 0z"></path>
<path d="M15.445 22.66c-0.55 0-0.973 0-1.396 0-0.151-0.032-0.277-0.117-0.364-0.234l-0.001-0.002c-0.025-0.029 0.069-0.211 0.149-0.273 0.318-0.252 0.521-0.637 0.521-1.071 0-0.068-0.005-0.135-0.014-0.2l0.001 0.008c-0.037-1.18 0-2.359 0-3.535 0-0.517 0-0.524 0.485-0.535 0.543 0 1.093 0 1.633 0s0.591 0.102 0.503 0.696c-0.023 0.225-0.037 0.485-0.037 0.75 0 0.12 0.003 0.24 0.009 0.359l-0.001-0.016c0 0.696 0 1.391 0 2.086-0.004 0.041-0.007 0.091-0.007 0.14 0 0.423 0.171 0.806 0.447 1.083 0.135 0.139 0.365 0.251 0.234 0.52s-0.364 0.054-0.506 0.112c-0.587 0.23-1.192 0.058-1.654 0.113z"></path>
<path d="M15.696 14.44c0.24 0 0.481 0 0.729 0 0.597 0 0.583 0 0.729 0.59 0.077 0.206 0.169 0.384 0.279 0.548l-0.006-0.010c0.178 0.364 0 0.783-0.364 0.706-1.013-0.222-2.052 0.207-3.051-0.16-0.292-0.109-0.364-0.284-0.16-0.495 0.21-0.167 0.343-0.421 0.343-0.707 0-0.028-0.001-0.055-0.004-0.082v0.004c-0.040-0.336 0.16-0.404 0.445-0.397 0.336 0.011 0.696 0.004 1.061 0.004z"></path>
</svg>
