<!-- Generated by IcoMoon.io -->
<svg version="1.1" xmlns="http://www.w3.org/2000/svg" width="32" height="32" viewBox="0 0 32 32">
<title>bladeborn-elathain</title>
<path d="M14.541 1.628c0 0.927-0.025 1.853 0 2.78 0.019 0.416-0.043 0.628-0.507 0.73-0.876 0.206-1.614 0.44-2.33 0.719l0.117-0.041c-2.23 0.882-4.037 2.434-5.214 4.407l-0.026 0.048c-0.902 1.434-1.263 2.981-1.46 4.638-0.194 1.536 0.105 2.977 0.482 4.404 0.443 1.434 1.184 2.665 2.154 3.673l-0.003-0.003c1.43 1.638 3.329 2.834 5.487 3.384l0.075 0.017c0.428 0.109 1.034 0.138 1.216 0.423 0.223 0.365 0.11 0.934 0.116 1.416 0 0.985 0 1.97 0 2.955-0.016 0.123-0.045 0.233-0.083 0.339l0.004-0.011c-0.090-0.084-0.168-0.18-0.23-0.286l-0.003-0.006c-0.31-0.704-0.577-1.434-0.931-2.116-0.158-0.275-0.404-0.484-0.699-0.592l-0.009-0.003c-1.518-0.518-2.808-1.096-4.035-1.776l0.127 0.065c-0.203-0.148-0.382-0.302-0.547-0.47l-0.001-0.001c-0.416-0.318-0.807-0.675-1.421-0.42-0.3 0.092-0.657 0.165-1.024 0.205l-0.027 0.003c-0.73 0.164-0.73 0.168-0.552-0.591 0.068-0.302 0.147-0.56 0.243-0.808l-0.014 0.039c0.065-0.163 0.102-0.352 0.102-0.549 0-0.357-0.122-0.686-0.327-0.947l0.003 0.003c-0.939-1.554-1.826-3.152-2.027-5.020 0-0.009 0-0.018 0-0.028 0-0.705-0.502-1.294-1.167-1.43l-0.010-0.002c-0.712-0.222-1.318-0.47-1.896-0.761l0.070 0.032c-0.209-0.091-0.273-0.211 0-0.329 0.427-0.229 0.939-0.457 1.47-0.651l0.086-0.027c0.939-0.252 1.289-0.865 1.461-1.762 0.278-1.839 1.021-3.466 2.104-4.81l-0.015 0.020c0.647-0.773 0.325-1.514 0.245-2.291 0-0.171-0.128-0.339-0.143-0.511-0.037-0.365 0.033-0.628 0.486-0.339 0.091 0.062 0.234 0.044 0.343 0.091 0.291 0.147 0.634 0.234 0.996 0.234 0.572 0 1.092-0.213 1.489-0.564l-0.002 0.002c1.095-0.837 2.404-1.452 3.829-1.754l0.063-0.012c0.428-0.049 0.767-0.374 0.839-0.789l0.001-0.006c0.213-0.662 0.461-1.229 0.757-1.766l-0.026 0.052c0.033-0.077 0.124-0.128 0.19-0.19 0.027 0.056 0.053 0.122 0.075 0.191l0.002 0.010c0.052 0.256 0.091 0.514 0.139 0.773z"></path>
<path d="M17.24 29.030c0-0.609 0.025-1.219 0-1.824-0.004-0.025-0.006-0.054-0.006-0.084 0-0.319 0.251-0.579 0.567-0.594h0.001c1.47-0.236 2.783-0.768 3.924-1.536l-0.035 0.022c0.647-0.46 1.187-1.072 1.826-1.547 1.096-0.795 1.665-1.962 2.227-3.090 0.478-0.941 0.817-2.033 0.956-3.189l0.005-0.048c0.051-0.386 0.079-0.833 0.079-1.287 0-1.513-0.318-2.952-0.89-4.253l0.026 0.068c-1.012-2.272-2.675-4.103-4.751-5.297l-0.055-0.029c-0.989-0.572-2.141-0.997-3.367-1.21l-0.062-0.009c-0.271-0.051-0.457-0.077-0.453-0.409 0-1.339 0-2.674 0-4.014 0.016-0.077 0.045-0.143 0.085-0.202l-0.001 0.002c0.066 0.058 0.157 0.102 0.194 0.175 0.25 0.461 0.487 1.007 0.679 1.572l0.022 0.077c0.137 0.532 0.572 0.934 1.113 1.020l0.008 0.001c1.334 0.368 2.503 0.895 3.564 1.574l-0.052-0.031c0.223 0.126 0.415 0.261 0.595 0.41l-0.006-0.005c0.336 0.366 0.816 0.596 1.35 0.596 0.287 0 0.559-0.066 0.801-0.184l-0.011 0.005c0.268-0.105 0.604-0.209 0.948-0.295l0.059-0.013c-0.033 0.365-0.054 0.748-0.105 1.12-0.039 0.159-0.092 0.299-0.162 0.429l0.005-0.009c-0.081 0.173-0.129 0.376-0.129 0.589 0 0.37 0.142 0.706 0.374 0.958l-0.001-0.001c1.080 1.449 1.831 3.205 2.107 5.116l0.007 0.061c0.045 0.527 0.385 0.964 0.852 1.15l0.009 0.003c0.709 0.303 1.413 0.62 2.122 0.927 0.077 0.024 0.166 0.043 0.258 0.050h0.005c-0.075 0.048-0.163 0.1-0.254 0.145l-0.016 0.008c-0.709 0.299-1.413 0.609-2.13 0.886-0.44 0.135-0.765 0.512-0.821 0.972l-0.001 0.006c-0.266 2.036-1.005 3.861-2.103 5.415l0.025-0.038c-0.654 0.956-0.511 1.744-0.273 2.663 0.044 0.164 0.066 0.332 0.095 0.5-0.19 0-0.366-0.018-0.566-0.039-0.132-0.005-0.257-0.031-0.373-0.076l0.008 0.003c-0.909-0.442-1.64-0.285-2.432 0.397-0.975 0.835-2.231 1.259-3.455 1.595-0.886 0.209-1.562 0.922-1.714 1.811l-0.002 0.013c0 0.054 0 0.132 0 0.179-0.179 0.303-0.365 0.599-0.555 0.897-0.039-0.303-0.095-0.602-0.109-0.905-0.025-0.413-0.011-0.806-0.008-1.2z"></path>
<path d="M15.82 23.123c-1.578 0.365-3.031-0.289-4.423-0.989-0.539-0.348-0.971-0.818-1.262-1.373l-0.010-0.020c-0.27-0.442 0.062-0.923 0.366-1.27 0.697-0.838 1.591-1.49 2.612-1.889l0.043-0.015c0.99-0.339 2.023-0.456 3.009-0.752 1.136-0.339 2.293-0.646 3.261-1.419 0.34-0.223 0.562-0.602 0.562-1.033 0-0.035-0.001-0.069-0.004-0.103v0.005c-0.019-0.506-0.367-0.925-0.836-1.052l-0.008-0.002c-1.253-0.383-2.556-0.73-3.861-0.599-1.026 0.105-2.070 0.262-2.961 0.88-0.591 0.409-0.617 0.77 0 1.095 0.482 0.268 1.042 0.469 1.637 0.571l0.032 0.005c0.348 0.029 0.754 0.046 1.163 0.046 0.296 0 0.59-0.009 0.882-0.026l-0.040 0.002c0.366 0 0.661-0.095 0.676-0.54 0.003-0.022 0.004-0.048 0.004-0.074 0-0.36-0.277-0.653-0.63-0.68h-0.002c-0.441 0.009-0.865 0.064-1.273 0.158l0.042-0.008c-0.11-0.004-0.213-0.025-0.311-0.061l0.007 0.002c0.040-0.106 0.051-0.252 0.128-0.31 0.371-0.318 0.858-0.511 1.39-0.511 0.707 0 1.334 0.342 1.725 0.87l0.004 0.006c0.398 0.539 0.109 1.583-0.504 1.992-0.609 0.398-1.354 0.634-2.155 0.634-0.274 0-0.541-0.028-0.8-0.080l0.025 0.005c-0.91-0.176-1.714-0.428-2.475-0.759l0.075 0.029c-0.723-0.257-1.31-0.748-1.682-1.379l-0.008-0.014c-0.219-0.401-0.262-0.729 0.088-1.022 0.463-0.439 0.99-0.817 1.565-1.116l0.039-0.018c1.209-0.489 1.063-0.416 0.862-1.704 0-0.054-0.080-0.105-0.080-0.157 0-0.171 0.023-0.343 0.033-0.514 0.091 0.113 0.175 0.233 0.27 0.339 0.262 0.316 0.529 0.6 0.811 0.868l0.004 0.004c0.157 0.158 0.374 0.255 0.614 0.255 0.415 0 0.761-0.291 0.846-0.68l0.001-0.006c0.143-0.423 0.223-0.865 0.336-1.295 0.054-0.231 0.118-0.428 0.196-0.619l-0.010 0.027c0.025-0.066 0.12-0.102 0.186-0.149 0.043 0.062 0.080 0.133 0.111 0.208l0.003 0.008c0.070 0.318 0.139 0.639 0.19 0.963 0.139 0.854 0.566 1.459 1.063 1.507s1.234-0.525 1.549-1.208c0-0.025 0-0.073 0-0.087 0.080-0.080 0.164-0.153 0.248-0.226 0.026 0.093 0.042 0.201 0.042 0.311 0 0.020 0 0.038-0.001 0.057v-0.003c-0.069 0.433-0.16 0.812-0.278 1.178l0.016-0.055c-0.164 0.453 0 0.643 0.42 0.796 0.781 0.241 1.443 0.671 1.958 1.237l0.003 0.004c0.569 0.668 0.544 1.033 0.062 1.762-1.114 1.656-2.83 2.225-4.638 2.572-1.42 0.275-2.676 0.674-3.865 1.198l0.114-0.046c-0.405 0.225-0.738 0.537-0.979 0.913l-0.007 0.011c-0.084 0.154-0.133 0.338-0.133 0.533 0 0.447 0.259 0.833 0.634 1.018l0.007 0.003c1.002 0.488 2.182 0.773 3.428 0.773 1.278 0 2.486-0.3 3.557-0.834l-0.046 0.021c0.617-0.285 0.695-0.839 0.114-1.128-0.562-0.284-1.214-0.498-1.901-0.607l-0.039-0.005c-0.628-0.095-1.3-0.365-1.925 0-0.249 0.186-0.466 0.394-0.655 0.625l-0.005 0.007c0.226 0.219 0.434 0.595 0.682 0.624 0.468-0.006 0.918-0.075 1.343-0.199l-0.036 0.009c0.047-0.004 0.103-0.006 0.159-0.006s0.111 0.002 0.166 0.006h-0.008c-0.038 0.118-0.085 0.221-0.145 0.316l0.003-0.006c-0.176 0.278-0.483 0.461-0.833 0.461-0.033 0-0.067-0.002-0.099-0.005h0.004c-0.136-0.009-0.295-0.015-0.455-0.015s-0.319 0.006-0.476 0.016l0.021-0.001c-0.713-0.013-1.318-0.458-1.566-1.083l-0.004-0.012c-0.116-0.445 0.318-1.302 0.858-1.572 1.227-0.605 2.49-0.839 3.82-0.306 0.366 0.153 0.836 0.164 1.198 0.365 0.625 0.3 1.165 0.65 1.652 1.060l-0.012-0.009c0.687 0.616 0.591 1.375-0.171 1.9-1.574 1.033-3.276 1.7-5.306 1.401z"></path>
</svg>
