<!-- Generated by IcoMoon.io -->
<svg version="1.1" xmlns="http://www.w3.org/2000/svg" width="32" height="32" viewBox="0 0 32 32">
<title>bladeborn-grymwatch</title>
<path d="M14.545 29.265c0 0.666 0 1.332 0 1.998-0.018 0.089-0.048 0.168-0.089 0.24l0.002-0.004c-0.073-0.051-0.186-0.087-0.215-0.157-0.164-0.364-0.306-0.764-0.455-1.15 0-0.025 0-0.062 0-0.091-0.313-0.855-0.751-1.503-1.763-1.746-0.977-0.242-1.836-0.63-2.602-1.143l0.029 0.018c-0.671-0.37-1.247-0.754-1.787-1.179l0.028 0.021c-0.118-0.107-0.275-0.172-0.446-0.172-0.082 0-0.16 0.014-0.233 0.042l0.005-0.002c-0.543 0.134-1.093 0.288-1.611 0.458-0.251 0.083-0.364 0-0.336-0.23 0.053-0.379 0.149-0.722 0.283-1.043l-0.011 0.028c0.125-0.226 0.199-0.495 0.199-0.782 0-0.423-0.16-0.807-0.423-1.098l0.001 0.001c-0.842-1.073-1.312-2.366-1.727-3.639-0.168-0.536-0.282-1.157-0.32-1.799l-0.001-0.021c0-0.007 0-0.014 0-0.021 0-0.232-0.151-0.429-0.361-0.498l-0.004-0.001c-0.73-0.259-1.341-0.533-1.927-0.845l0.077 0.037c-0.277-0.164-0.557-0.313-0.838-0.47 0.251-0.168 0.546-0.34 0.852-0.494l0.048-0.022c0.663-0.226 1.373-0.389 1.924-0.866 0.106-0.079 0.182-0.193 0.214-0.323l0.001-0.004c0.182-2.289 1.147-4.255 2.507-6.053 0.137-0.143 0.22-0.338 0.22-0.553 0-0.095-0.017-0.187-0.048-0.272l0.002 0.006c-0.178-0.528-0.364-1.059-0.481-1.602-0.091-0.364 0.047-0.466 0.415-0.364 0.506 0.153 1.028 0.265 1.523 0.448 0.089 0.037 0.194 0.059 0.303 0.059 0.189 0 0.362-0.065 0.5-0.173l-0.002 0.001c0.392-0.225 0.727-0.454 1.043-0.707l-0.016 0.013c0.729-0.698 1.763-0.808 2.573-1.357 0.249-0.128 0.544-0.202 0.856-0.202 0.031 0 0.061 0.001 0.092 0.002h-0.004c0.4-0.021 0.736-0.282 0.865-0.641l0.002-0.007c0.216-0.451 0.365-0.924 0.568-1.39 0.062-0.197 0.127-0.361 0.204-0.518l-0.009 0.023c0.085-0.122 0.178-0.229 0.28-0.326l0.001-0.001c0.052 0.114 0.089 0.247 0.109 0.386l0.001 0.008c0 1.208 0 2.421 0 3.639 0 0.532-0.044 0.568-0.605 0.684-1.299 0.275-2.45 0.698-3.515 1.261l0.073-0.035c-0.553 0.323-1.030 0.684-1.46 1.095l0.003-0.003c-0.626 0.565-1.204 1.139-1.753 1.742l-0.018 0.020c-0.178 0.214-0.349 0.452-0.502 0.701l-0.015 0.026c-0.247 0.345-0.49 0.739-0.703 1.151l-0.025 0.054c-0.155 0.373-0.3 0.823-0.407 1.286l-0.012 0.060c-0.218 0.793-0.601 1.547-0.514 2.409 0.012 0.149 0.018 0.324 0.018 0.499s-0.007 0.35-0.020 0.521l0.001-0.023c-0.002 0.074-0.004 0.16-0.004 0.247 0 1.35 0.303 2.63 0.846 3.774l-0.023-0.053c0.605 1.459 1.459 2.702 2.522 3.732l0.003 0.003c0.833 0.798 1.794 1.471 2.849 1.984l0.066 0.029c0.653 0.328 1.41 0.582 2.206 0.721l0.050 0.007c0.058 0 0.12 0 0.178 0 0.728 0.145 0.754 0.197 0.757 0.928 0 0.575 0 1.15 0 1.725z"></path>
<path d="M17.236 29.185c0-0.605 0-1.208 0-1.82 0-0.48 0.135-0.728 0.557-0.728 0.682 0 1.242-0.364 1.869-0.528 1.157-0.373 2.153-0.961 2.987-1.723l-0.006 0.006c0.861-0.661 1.587-1.446 2.164-2.337l0.022-0.036c0.364-0.586 0.597-1.226 0.951-1.82s0.365-1.354 0.649-1.995c0.050-0.145 0.079-0.313 0.079-0.487 0-0.046-0.002-0.090-0.006-0.134v0.006c0-0.727-0.037-1.456 0-2.184 0.084-1.284-0.302-2.446-0.761-3.639-0.724-1.67-1.789-3.073-3.114-4.171l-0.018-0.014c-0.627-0.597-1.368-1.082-2.187-1.417l-0.047-0.018c-0.904-0.317-1.796-0.779-2.795-0.789-0.273 0-0.364-0.116-0.364-0.364 0-0.818 0-1.634 0-2.45 0-0.636 0-1.274 0-1.907 0-0.051 0.054-0.102 0.083-0.153 0.037 0.037 0.106 0.069 0.11 0.11 0.127 0.837 0.674 1.51 0.918 2.301 0.054 0.229 0.237 0.406 0.466 0.45l0.004 0.001c1.196 0.342 2.231 0.77 3.206 1.297l-0.084-0.042c0.657 0.327 1.222 0.69 1.742 1.107l-0.019-0.015c0.514 0.477 1.012 0.423 1.574 0.284 0.343-0.087 0.674-0.211 1.016-0.309s0.394-0.054 0.317 0.364c-0.030 0.443-0.116 0.855-0.25 1.246l0.010-0.034c-0.306 0.622-0.083 1.066 0.27 1.558 0.717 0.971 1.276 2.109 1.612 3.338l0.016 0.071c0.12 0.399 0.227 0.891 0.303 1.394l0.008 0.062c0.019 0.641 0.443 1.18 1.024 1.369l0.011 0.003c0.751 0.262 1.491 0.564 2.229 0.852 0.057 0.029 0.106 0.059 0.152 0.093l-0.003-0.002c-0.040 0.037-0.073 0.091-0.124 0.113-0.728 0.309-1.457 0.611-2.186 0.924-0.473 0.203-0.852 0.412-0.937 1.059-0.166 0.869-0.393 1.633-0.686 2.363l0.030-0.084c-0.3 0.99-0.746 1.852-1.32 2.613l0.016-0.021c-0.263 0.331-0.444 0.75-0.729 1.092-0.059 0.087-0.095 0.196-0.095 0.312 0 0.088 0.020 0.171 0.056 0.245l-0.002-0.003c0.156 0.465 0.283 1.016 0.359 1.584l0.005 0.047c0.054 0.364-0.029 0.408-0.39 0.309-0.423-0.113-0.852-0.222-1.268-0.364-0.113-0.043-0.245-0.068-0.382-0.068-0.295 0-0.563 0.114-0.762 0.301l0.001-0.001c-0.835 0.67-1.799 1.226-2.841 1.625l-0.074 0.024c-0.616 0.207-1.236 0.4-1.822 0.634-0.24 0.093-0.415 0.302-0.459 0.556l-0.001 0.004c-0.243 0.684-0.512 1.265-0.827 1.816l0.029-0.055c-0.073 0.157-0.124 0.321-0.189 0.48-0.046-0.168-0.082-0.367-0.101-0.572l-0.001-0.014c-0.004-0.564 0.004-1.128 0.004-1.715z"></path>
<path d="M18.151 20.973c0-0.211 0-0.426 0-0.636 0.025-0.389-0.025-0.455-0.364-0.414-0.029 0-0.069 0-0.087 0-0.404 0.338-0.937 0.298-1.387 0.491-0.126 0.086-0.281 0.137-0.448 0.137-0.191 0-0.366-0.067-0.504-0.178l0.002 0.001c-0.321-0.232-0.86-0.124-1.253-0.383-0.131-0.087-0.346-0.047-0.521-0.062 0 0.153 0.047 0.306 0.051 0.458 0 0.364 0 0.728 0 1.092 0 0.069-0.073 0.131-0.109 0.197-0.052-0.033-0.128-0.054-0.146-0.098-0.157-0.364-0.473-0.804-0.277-1.168s0-0.549-0.204-0.727-0.419-0.327-0.63-0.491c-0.554-0.423-0.94-0.924-0.846-1.678 0-0.024-0.001-0.053-0.001-0.082 0-0.473 0.054-0.933 0.154-1.375l-0.008 0.042c0.175-0.502-0.087-1.044-0.302-1.532-0.136-0.332-0.214-0.717-0.214-1.121 0-0.314 0.048-0.617 0.136-0.903l-0.006 0.021c0.187-0.666 0.465-1.248 0.825-1.771l-0.012 0.020c0.248-0.374 0.572-0.678 0.952-0.895l0.014-0.007c0.892-0.575 1.982-0.916 3.151-0.916 0.116 0 0.23 0.003 0.345 0.010l-0.016-0.001c0.284 0.024 0.546 0.084 0.792 0.177l-0.020-0.007c0.676 0.218 1.26 0.48 1.807 0.798l-0.044-0.023c0.745 0.487 1.264 1.264 1.4 2.166l0.002 0.018c0.023 0.129 0.056 0.242 0.099 0.352l-0.005-0.012c0.106 0.27 0.167 0.583 0.167 0.91 0 0.437-0.109 0.848-0.3 1.208l0.007-0.014c-0.096 0.187-0.182 0.406-0.245 0.635l-0.006 0.024c-0.021 0.065-0.034 0.139-0.034 0.216 0 0.099 0.020 0.194 0.058 0.279l-0.002-0.005c0.365 0.52 0.273 1.092 0.251 1.659-0.009 0.407-0.081 0.793-0.208 1.155l0.007-0.026c-0.143 0.266-0.316 0.493-0.517 0.692 0 0.018-0.062 0-0.083 0.025-0.347 0.199-0.643 0.441-0.893 0.725l-0.003 0.004c-0.157 0.248-0.069 0.645-0.116 0.972-0.046 0.297-0.107 0.556-0.185 0.808l0.011-0.040c0 0.069-0.091 0.12-0.139 0.178-0.036-0.072-0.064-0.155-0.079-0.242l-0.001-0.006c0-0.211 0-0.422 0-0.634zM14.508 17.363c0 0.116-0.040 0.23-0.052 0.342 0 0.288-0.143 0.626-0.029 0.848 0.281 0.486 0.586 0.907 0.929 1.293l-0.007-0.009c0 0 0.365-0.142 0.365-0.244 0.031-0.215 0.048-0.463 0.048-0.715 0-0.126-0.005-0.251-0.014-0.375l0.001 0.016c-0.048-0.95-0.222-1.114-1.155-1.154h-0.091c0.062-0.098 0.098-0.222 0.182-0.284 0.164-0.116 0.365-0.16 0.365-0.444s-0.193-0.364-0.365-0.542c-0.674-0.626-1.479-0.532-2.277-0.514-0.069 0-0.182 0.066-0.197 0.12 0 0.004 0 0.009 0 0.013 0 0.084 0.033 0.16 0.088 0.216 0.364 0.386 0.775 0.75 1.136 1.154 0.184 0.206 0.451 0.335 0.748 0.335 0.121 0 0.238-0.021 0.344-0.061l-0.007 0.002zM18.741 15.569c-0.667-0.128-1.195 0.222-1.68 0.648-0.109 0.090-0.179 0.225-0.179 0.377s0.069 0.287 0.178 0.376l0.001 0.001c0.127 0.113 0.27 0.216 0.421 0.303l0.012 0.007c0.126 0.053 0.272 0.084 0.427 0.084 0.277 0 0.532-0.101 0.727-0.267l-0.002 0.001c0.241-0.339 0.484-0.729 0.7-1.135l0.028-0.058c0.037-0.062-0.077-0.277-0.172-0.321-0.073-0.016-0.158-0.024-0.244-0.024-0.072 0-0.143 0.006-0.211 0.018l0.008-0.001zM17.4 18.229c0.005-0.071 0.009-0.153 0.009-0.236s-0.003-0.166-0.009-0.248l0.001 0.011c-0.048-0.284-0.241-0.364-0.518-0.364s-0.59-0.029-0.682 0.292c-0.12 0.422 0.040 0.874-0.168 1.314-0.091 0.182 0.077 0.502 0.16 0.727 0.019 0.058 0.23 0.12 0.255 0.095 0.233-0.262 0.427-0.572 0.678-0.812 0.184-0.151 0.3-0.379 0.3-0.634 0-0.051-0.005-0.102-0.014-0.15l0.001 0.005z"></path>
<path d="M15.175 20.577c0.088 0.066 0.245 0.12 0.255 0.193 0.077 0.615-0.062 1.252 0.197 1.852 0 0.002 0 0.005 0 0.007 0 0.058-0.030 0.109-0.075 0.138h-0.001c-0.037 0-0.109-0.033-0.149-0.069-0.466-0.4-0.728-1.485-0.477-1.976 0.033-0.051 0.149-0.083 0.251-0.145z"></path>
<path d="M17.47 20.373c0.139 0.080 0.313 0.127 0.317 0.189 0.029 0.328 0.307 0.611 0.058 0.997-0.175 0.277-0.145 0.684-0.525 0.848-0.029-0.291-0.069-0.582-0.080-0.874-0.009-0.134-0.014-0.291-0.014-0.447s0.005-0.314 0.015-0.469l-0.001 0.021c0.018-0.084 0.143-0.16 0.23-0.266z"></path>
<path d="M14.384 20.439c0.029 0.044 0.153 0.175 0.131 0.207-0.364 0.52 0 1.023 0.025 1.532-0.016 0.089-0.047 0.169-0.089 0.24l0.002-0.003c-0.073-0.048-0.179-0.084-0.211-0.153-0.15-0.288-0.3-0.635-0.424-0.992l-0.016-0.056c-0.009-0.039-0.014-0.083-0.014-0.13 0-0.339 0.261-0.618 0.593-0.645z"></path>
<path d="M16.913 21.377c0.006 0.052 0.010 0.113 0.010 0.173 0 0.389-0.142 0.745-0.375 1.019l0.002-0.002-0.139 0.211c-0.029-0.080-0.091-0.164-0.083-0.24 0.025-0.364 0.077-0.702 0.109-1.056 0-0.138 0.062-0.313 0-0.418-0.178-0.309 0.052-0.364 0.245-0.414 0.047 0 0.172 0.182 0.207 0.302 0.020 0.091 0.030 0.197 0.030 0.304 0 0.043-0.002 0.085-0.005 0.127v-0.006z"></path>
</svg>
