<!-- Generated by IcoMoon.io -->
<svg version="1.1" xmlns="http://www.w3.org/2000/svg" width="32" height="32" viewBox="0 0 32 32">
<title>domitans-stormcoven</title>
<path d="M3.453 31.304c-0.236-0.393-0.328-1.703-0.485-6.984-0.17-5.739-0.301-8.189-0.472-8.582-0.079-0.183-0.328-0.563-0.55-0.839-0.223-0.288-0.59-0.839-0.825-1.245-0.223-0.406-0.59-0.93-0.799-1.153-0.223-0.236-0.354-0.472-0.314-0.524 0.236-0.223 1.166-0.131 2.765 0.288 2.529 0.668 2.516 0.668 3.721-0.55 0.55-0.563 1.009-1.127 1.035-1.258 0.039-0.236-0.799-2.778-0.996-3.027-0.157-0.21-0.249-0.825-0.144-0.996 0.157-0.262 0.59-0.026 1.441 0.799 1.467 1.415 2.306 1.638 4.062 1.114 1.232-0.38 1.743-0.773 1.939-1.494 0.747-2.712 1.101-3.931 1.205-4.114 0.066-0.131 0.092-0.314 0.052-0.432-0.039-0.105-0.013-0.197 0.079-0.197 0.079 0 0.105-0.052 0.066-0.131-0.118-0.197 0.328-1.572 0.511-1.572 0.197 0 0.681 1.101 1.245 2.817 0.93 2.83 1.441 4.167 1.677 4.402 0.144 0.144 0.734 0.419 1.323 0.629 0.59 0.197 1.101 0.393 1.14 0.432 0.17 0.17 1.271-0.144 1.703-0.498 0.262-0.21 0.655-0.511 0.891-0.681s0.603-0.472 0.812-0.668c0.223-0.197 0.524-0.406 0.694-0.459 0.262-0.092 0.288-0.052 0.288 0.341 0 0.236-0.183 0.93-0.393 1.546-0.223 0.603-0.393 1.219-0.393 1.363s-0.066 0.446-0.157 0.681c-0.144 0.406-0.131 0.446 0.524 1.166 0.38 0.406 0.681 0.786 0.681 0.852 0 0.157 0.747 0.393 1.232 0.393 0.406 0 2.175-0.419 3.603-0.852 0.747-0.236 1.245-0.183 1.363 0.131 0.052 0.105 0 0.275-0.092 0.367-0.105 0.092-0.563 0.839-1.035 1.664-0.668 1.127-0.878 1.638-0.956 2.201-0.105 0.904 0.183 12.356 0.354 13.561 0.144 1.061 0.039 1.336-0.603 1.612-0.576 0.236-2.136 0.249-2.411 0-0.118-0.092-0.655-0.314-1.192-0.485s-1.022-0.354-1.061-0.419c-0.039-0.052-0.131-0.092-0.197-0.079-0.183 0.039-0.773-0.131-2.411-0.708-1.31-0.459-1.651-0.524-2.621-0.524-0.996 0-1.205 0.039-1.926 0.406-1.035 0.524-1.769 0.55-3.001 0.079-1.061-0.406-2.28-0.459-3.197-0.131-1.494 0.537-5.372 1.782-5.896 1.9-0.328 0.079-0.93 0.144-1.336 0.144-0.642 0-0.786-0.039-0.943-0.288zM7.699 28.959c0.616-0.223 1.323-0.459 1.572-0.524 0.459-0.131 0.825-0.262 2.057-0.76 0.55-0.223 0.983-0.275 2.28-0.288 0.891-0.013 1.69-0.052 1.795-0.079 0.144-0.066 0.157-0.367 0.092-1.599-0.17-3.171-0.301-10.561-0.183-10.6 0.183-0.079 0.144-0.812-0.052-0.812-0.092 0-0.236-0.17-0.314-0.393-0.223-0.603-1.14-0.943-2.529-0.956-0.97 0-1.245 0.052-2.096 0.419-2.896 1.258-3.42 1.441-4.324 1.572-1.546 0.21-1.468-0.026-1.454 4.389 0.013 2.070 0.052 3.826 0.079 3.918s0.079 1.389 0.118 2.883c0.066 3.328 0.118 3.446 1.179 3.315 0.367-0.039 1.166-0.262 1.782-0.485zM28.322 28.88c0.052-0.21 0.052-0.616 0.026-0.917-0.039-0.314 0-0.563 0.066-0.563s0.118-0.17 0.118-0.393c0-0.21-0.052-0.393-0.131-0.393s-0.131-0.537-0.131-1.336c0-2.529-0.301-9.866-0.419-10.010-0.052-0.079-0.393-0.223-0.734-0.314-2.188-0.576-2.581-0.694-4.743-1.533-1.35-0.524-1.625-0.59-2.686-0.603-1.114-0.026-1.245 0-1.756 0.341-0.93 0.616-0.97 0.799-0.878 4.809 0.105 4.9 0.21 7.835 0.288 8.477 0.052 0.459 0.131 0.59 0.485 0.76 0.262 0.131 0.432 0.157 0.459 0.066 0.066-0.17 0.55-0.17 0.55 0 0 0.092 0.092 0.092 0.288-0.013 0.406-0.223 2.136-0.079 2.856 0.236 2.227 0.97 4.625 1.716 5.595 1.73 0.629 0.013 0.681-0.013 0.747-0.341z"></path>
</svg>
