<!-- Generated by IcoMoon.io -->
<svg version="1.1" xmlns="http://www.w3.org/2000/svg" width="512" height="512" viewBox="0 0 512 512">
<title>monsters-of-order</title>
<g id="icomoon-ignore">
</g>
<path d="M274.112 466.992c0-10.624 0-21.232 0-31.856-0.080-0.432-0.128-0.944-0.128-1.456 0-4.496 3.6-8.144 8.064-8.224h0.016c0.928 0 1.744-1.168 2.608-1.104 15.664 1.040 28.16-8.752 42.080-13.28 11.808-4.288 21.952-10.512 30.544-18.384l-0.064 0.064c13.488-12.128 25.76-24.928 37.024-38.608l0.48-0.608c6.176-7.888 11.344-16.992 15.040-26.784l0.224-0.72c6.672-16.88 13.12-33.936 12.128-52.672-0.288-4.112-0.448-8.912-0.448-13.744s0.176-9.632 0.496-14.384l-0.032 0.64c2.144-27.44-6.56-52.208-20.096-75.056-15.76-27.392-37.776-49.568-64.192-65.104l-0.832-0.448c-17.424-9.744-36.224-14.272-54.992-19.376-4.832-1.328-7.952-1.968-7.888-7.712 0-22.16 0-44.368 0-66.592 0-1.168 1.104-2.368 1.696-3.6 0.768 0.992 1.504 2.112 2.144 3.28l0.064 0.128c4.448 8.704 9.12 19.52 13.152 30.656l0.656 2.128c1.408 5.6 5.904 9.84 11.536 10.896l0.096 0.016c29.824 7.744 55.84 21.152 78 39.104l-0.384-0.288c2.368 1.968 5.424 3.168 8.752 3.168 1.584 0 3.104-0.256 4.528-0.752l-0.096 0.032c8.192-2.432 16.608-3.936 25.024-5.792 4.304-0.864 6.208 1.328 5.008 5.792-2.032 7.36-4.464 14.624-6.4 21.984-0.592 1.84-0.928 3.984-0.928 6.192 0 5.232 1.904 10.048 5.072 13.744l-0.032-0.032c15.888 20.72 27.344 45.68 32.512 72.864l0.176 1.088c0.528 2.784 2.56 5.792 2.208 8.176-1.968 13.056 7.888 16.016 16.56 20.016s17.424 7.952 26.288 11.6c3.184 1.024 6.912 1.824 10.784 2.24l0.24 0.016c-3.664 1.856-7.264 3.76-10.912 5.792-8.704 5.152-18.768 9.504-29.392 12.544l-0.912 0.224c-7.264 1.568-11.024 6.848-12.496 15.424-4.752 27.168-13.712 51.456-26.304 73.424l0.576-1.104c-4.704 8.24-9.36 15.264-14.448 21.936l0.336-0.464c-1.808 2.224-2.896 5.104-2.896 8.208 0 1.84 0.384 3.616 1.072 5.216l-0.032-0.080c1.584 5.552 3.136 12.624 4.272 19.84l0.144 1.104c1.568 8.224 0 10.448-8.304 8.352-7.456-2.24-13.664-4.656-19.664-7.456l0.896 0.368c-1.44-0.608-3.12-0.96-4.88-0.96-3.216 0-6.128 1.184-8.368 3.136l0.016-0.016c-16.144 10.912-32.096 22.16-50.848 28.304-1.984 0.432-3.744 1.2-5.28 2.224l0.048-0.032c-9.168 7.952-25.552 2.144-31.296 16.656-4.592 11.6-9.568 22.8-14.464 34.16-0.688 1.264-1.44 2.384-2.288 3.392l0.032-0.032c-0.528-1.264-1.568-2.496-1.568-3.776 0-11.088 0-22.208 0-33.296z"></path>
<path d="M231.712 46.352c0 10.608 0 21.232 0 31.824 0 4.464-1.456 6.672-6.432 7.552-40.96 6.688-76.176 27.392-101.296 56.944l-0.208 0.24c-15.984 17.504-27.904 38.992-34.080 62.768l-0.224 1.040c-0.064 0.512-0.192 0.992-0.352 1.424l0.016-0.032c-10.688 20.704-8.064 43.040-7.952 65.024 0.448 5.68 1.456 10.928 2.976 15.968l-0.144-0.528c8 34.8 22.768 66.256 49.52 90.368 16.896 15.184 34.192 30.4 57.488 36.656 10 2.672 18.928 8.224 29.904 9.12s10.8 2.672 10.848 13.056c0 19.312 0 38.624 0 58-0.224 2.016-0.688 3.872-1.328 5.6l0.048-0.144c-1.232-1.232-2.96-2.208-3.6-3.712-2.832-6.496-5.232-13.232-7.952-19.84-1.808-5.424-4.096-10.112-6.88-14.464l0.16 0.24c-2.672-3.072-6.16-5.376-10.112-6.576l-0.16-0.048c-21.104-6.192-39.504-14.512-56.448-24.944l0.992 0.576c-9.456-5.152-17.584-10.64-25.152-16.768l0.32 0.24c-1.68-0.944-3.696-1.504-5.84-1.504-1.104 0-2.176 0.16-3.2 0.432l0.080-0.016c-7.488 1.328-14.8 3.6-22.288 5.104-1.376 0.144-2.992 0.224-4.624 0.224s-3.232-0.080-4.8-0.24l0.208 0.016c0.288-3.568 0.736-6.784 1.376-9.936l-0.096 0.544c0.816-3.6 1.936-6.752 3.36-9.728l-0.128 0.272c2-3.408 3.184-7.504 3.184-11.888 0-5.936-2.176-11.36-5.76-15.536l0.032 0.032c-9.264-11.808-16.944-25.472-22.368-40.208l-0.352-1.040c-4.56-12.576-8.704-27.792-11.664-43.456l-0.288-1.904c-1.744-10.144-7.888-13.152-15.792-16.24-10.224-3.856-20.288-8.192-30.192-12.992-2.96-1.456-3.824-4.176 0.528-5.792 11.6-4.704 22.928-9.52 34.432-14.32 6.176-2.32 10.544-8.032 10.864-14.816v-0.032c4.768-33.84 18.208-63.888 38.032-88.64l-0.272 0.352c3.056-3.072 4.944-7.296 4.944-11.984 0-2.4-0.496-4.688-1.392-6.736l0.048 0.112c-2.832-6.96-3.424-14.848-5.792-22.112-1.392-4.592 0-6.896 4.304-6.432 6.144 0.496 11.824 1.744 17.2 3.632l-0.48-0.144c3.424 1.616 7.424 2.56 11.664 2.56 7.6 0 14.48-3.040 19.504-7.952 13.264-10.512 28.832-18.848 45.728-24.144l1.008-0.288c4.192-1.888 9.152-3.632 14.304-4.912l0.624-0.144c12.544-1.856 17.424-10.912 20.832-21.12 2.368-6.72 4.864-13.392 7.6-19.952 0.992-1.632 2.176-3.024 3.52-4.208l0.016-0.016c0.736 1.424 1.312 3.072 1.664 4.8l0.016 0.128c0.464 10.32 0.336 20.48 0.336 30.624z"></path>
<path d="M198.576 290.032c1.168-18.144 2.784-36.192 14.464-51.568 1.344-1.808 0.864-4.992 1.28-7.536-1.92-0.464-4.096-0.72-6.352-0.72-0.512 0-1.008 0.016-1.504 0.048h0.080c-3.536 0.672-6.688 1.856-9.552 3.504l0.16-0.080c-2.208 1.408-4.88 2.224-7.744 2.224-3.2 0-6.16-1.024-8.56-2.768l0.048 0.032c-4-2.56-8.064-4.928-12.064-7.36 3.504-0.816 7.952-1.568 12.48-2.096l0.592-0.064c0.080 0 0.192 0 0.288 0 10.528 0 19.408-7.136 22.032-16.832l0.032-0.16c0.832-2.416 1.328-5.2 1.328-8.080 0-8.672-4.352-16.304-11.008-20.864l-0.096-0.064-0.992-1.104c-13.872-9.12-15.856-9.056-29.024 0.688-1.376 0.768-2.944 1.424-4.608 1.872l-0.144 0.032c0-2.256-0.928-4.992 0-6.656 8.464-14.624 31.232-19.2 46.448-11.6 9.92 4.048 17.52 12 20.992 21.904l0.080 0.256c1.376 3.968 2.176 8.528 2.176 13.28 0 5.36-1.008 10.48-2.848 15.184l0.096-0.288c-0.576 1.456 0.464 3.6 0.752 5.392 1.888-0.528 3.52-1.264 5.008-2.176l-0.080 0.048c11.456-10.144 25.584-17.568 41.168-21.12l0.64-0.128c23.232-4 46.848-4.528 68.976 6.432 1.68 0.864 2.496 3.36 3.712 5.104-2.192 0.576-4.992 2.32-6.432 1.504-15.856-8.464-31.056-4.624-47.312-0.336-13.76 3.776-25.808 9.184-36.768 16.16l0.544-0.32c-2.144 1.184-3.92 2.768-5.312 4.656l-0.032 0.048c-1.232 1.856-2.432 5.056-1.632 6.432s4.4 4.624 6.512 4.4c4.496-0.64 8.544-2.048 12.192-4.096l-0.176 0.096c8.576-5.072 18.928-8.064 29.968-8.064s21.376 2.992 30.24 8.208l-0.272-0.16c15.568 7.712 27.184 21.456 31.84 38.080l0.112 0.416c10.224 40.080-10.864 74.128-47.792 81.728-39.312 8.112-66.72-12.064-77.984-48.608-1.536-4.56-2.416-9.824-2.416-15.28 0-7.808 1.824-15.2 5.056-21.776l-0.112 0.288c1.904-3.056 3.264-6.672 3.856-10.512l0.016-0.144c-0.192-3.184-1.68-5.984-3.984-7.872l-0.016-0.016c-1.168-0.928-5.168 0.768-7.136 2.256-1.584 1.712-2.8 3.744-3.504 6.032l-0.032 0.112c-10.688 24.24-15.792 48.944-7.664 75.408 1.376 5.296 2.592 11.808 3.376 18.448l0.064 0.688c-4.992-5.008-9.424-10.608-13.12-16.656l-0.224-0.384c-6.336-12.432-10.016-27.12-10.016-42.672 0-0.992 0.016-1.968 0.048-2.944v0.144zM343.728 290.032c0.752-24.608-23.984-45.12-46.464-45.312-20.896 0-45.232 24.88-45.344 45.808s25.2 47.216 46.448 46.064c22.816-1.168 46.624-21.584 45.28-46.48z"></path>
<path d="M336.176 291.12c0 0.128 0 0.272 0 0.432 0 20.624-16.736 37.36-37.392 37.36-0.464 0-0.944-0.016-1.408-0.032h0.064c-18.064 0.288-37.104-16.704-37.392-39.552 0-17.808 18.928-38.112 38.96-37.296s39.2 18.512 37.168 39.088z"></path>
</svg>
