<!-- Generated by IcoMoon.io -->
<svg version="1.1" xmlns="http://www.w3.org/2000/svg" width="512" height="512" viewBox="0 0 512 512">
<title>monsters-of-order</title>
<g id="icomoon-ignore">
</g>
<path d="M254.112 352.736c-8.32 0-16.576 0-24.896 0-13.296 0-16.864-3.52-17.168-17.264-0.352-15.152 0-30.256 0-45.36s-0.4-16.272-16.464-16.32c-10.256 0-20.496 0-30.752 0-6.336 0-7.2 3.232-4.8 8.544 1.712 3.6 3.2 7.824 4.192 12.224l0.080 0.416c1.472 6.752 2.432 14.592 2.688 22.624v0.192c0 3.68-2.112 9.424-4.816 10.544-1.808 0.688-3.872 1.072-6.048 1.072-2.848 0-5.536-0.688-7.92-1.872l0.096 0.048c-2.336-1.28-2.64-7.488-2.576-11.408 0.128-6.64 0.832-13.024 2.112-19.216l-0.112 0.656c1.408-6.848 6.144-14.16 4.688-20-1.232-4.912-10.016-7.488-14.288-12.176s-1.232-15.456 4.848-18.896c0.544-0.208 1.184-0.32 1.84-0.32s1.312 0.112 1.888 0.336l-0.032-0.016c0.928 0.384 1.68 0.992 2.288 1.728l0.016 0.016c6.432 6.848 9.6-2.336 14.288-2.736s7.264 9.136 13.12 3.744c4.56-4.208 7.856-4.512 12.064 0 0.704 0.832 3.28 0 4.976 0 0-1.712 0-3.984-0.928-5.088-4.4-4.688-8.080-11.408-16.528-5.856-1.648 1.12-4.848 0-7.264-0.464s-5.856-2.176-7.952-1.648c-4.048 0.928-6.208 7.776-12.24 2.224s-11.712-9.712-9.728-18.784c0.224-0.88 0.352-1.888 0.352-2.928s-0.128-2.048-0.368-3.008l0.016 0.080c-4.464-17.088 6.56-26.496 17.568-35.696 0.656-0.592 3.632 0.464 4.56 1.584 9.488 11.12 18.224 9.76 24.656-3.92 1.232-2.256 2.48-4.176 3.84-5.984l-0.080 0.144c1.344 1.808 3.456 3.456 3.92 5.504 2.112 8.592 7.792 10.88 16.096 11.296s9.44-6.56 12.416-11.712c0.704-1.216 1.056-2.624 1.712-3.92 1.408-2.704 2.944-5.376 4.4-8.080 1.2 2.944 2.448 5.424 3.872 7.776l-0.144-0.224c3.76 5.44 7.68 10.64 11.712 15.856 0.896 1.072 1.856 2.032 2.88 2.896l0.032 0.032c14.464 14.112 14.592 16.512 1.712 31.376-9.488 10.88-9.488 10.944 1.52 21.424 0.928 0.928 1.76 2.048 2.64 3.104 8.080 9.296 8.080 9.296 0 18.96-1.744 2.112-4.096 3.76-5.856 5.856-5.856 8.24-5.44 11.696 2.512 18.656 11.184 10.112 11.12 12.816 0 27.264-1.632 2.64-3.12 5.68-4.32 8.88l-0.128 0.368c3.472-2.208 6.496-4.512 9.312-7.072l-0.048 0.048c4.736-5.264 12.176-10.944 12.416-16.672s-7.024-11.712-12.144-16.096c-5.104-4.384-3.232-8.192-1.056-12.512 0.768-1.312 1.664-2.432 2.64-3.456 12.176-15.744 12.48-16.032-0.88-30.192-5.856-5.856-6.272-10.192-0.352-15.856 2.736-2.576 4.048-6.656 6.848-9.184 6.672-5.856 8.544-11.408 0.656-17.904-4.848-3.92-3.52-8.72 1.872-9.424 7.792-1.056 8.48-6.32 10.592-11.712 2.304-4.448 4.816-8.288 7.664-11.84l-0.112 0.144c1.712 3.168 3.344 6.912 4.688 10.784l0.176 0.56c0.864 6.448 6.336 11.376 12.944 11.408 8.256 0.592 14.48-0.88 15.232-10.88 0-1.744 2.576-3.328 3.936-4.976 1.136 1.312 2.24 2.736 3.28 4.224l0.112 0.16c8.784 14.576 11.712 15.104 24.544 4.912 1.12-0.8 2.512-1.296 4.032-1.296 0.656 0 1.264 0.096 1.872 0.256l-0.048-0.016c17.568 10.416 22.896 24.4 18.912 46.176-1.456 7.904-13.472 13.216-20.912 11.696-5.28-0.928-14.416 5.376-16.4 3.328-5.872-5.856-9.728-3.68-14.656-0.656-1.248 0.768-2.288 1.776-3.088 2.944l-0.016 0.032c-0.896 1.68-1.856 3.744-2.672 5.856l-0.144 0.4c2.704 0.288 6.336 1.872 7.856 0.656 4.224-3.264 7.264-6.192 11.184 0.352 0.528 0.928 5.52 0.88 6.496-0.352 4.848-5.856 8.784-4.272 13.296 0 1.056 1.056 4.8 1.408 5.376 0.592 6.272-8.016 10.368-3.568 13.168 2.512 0.8 1.68 1.264 3.648 1.264 5.712 0 5.408-3.2 10.080-7.808 12.224l-0.080 0.032c-7.312 2.992-13.824 4.848-5.376 14.048 2.048 2.208 0.704 7.536 0.88 11.408-0.080 1.52-0.144 3.28-0.144 5.072 0 5.376 0.448 10.656 1.344 15.792l-0.080-0.56c1.232 4.688 2.864 9.056-1.984 11.056-1.84 0.8-3.984 1.28-6.24 1.28s-4.4-0.464-6.336-1.312l0.112 0.048c-3.008-1.696-6.576-7.904-5.568-10.288 4.976-11.712-1.52-25.408 7.152-36.512 2.8-3.632 0-7.312-5.456-7.2h-4.384l-37.776 1.056c-0.704 12.4-1.584 24.88-2.048 37.344-0.368 7.776 0 15.632 0 23.408 0.032 0.336 0.048 0.736 0.048 1.136 0 8.816-7.152 15.984-16 15.984-0.384 0-0.768-0.016-1.152-0.048h0.048c-8.672 1.12-17.984 0.88-27.248 0.88zM204.304 216.448c0.032 0 0.080 0 0.112 0 2.912 0 5.744-0.384 8.432-1.104l-0.224 0.048c4.32-2.176 8.432-4.736 12.64-7.184-4.912-2.512-9.728-5.152-14.72-7.488-0.624-0.128-1.376-0.192-2.144-0.192s-1.488 0.080-2.224 0.192l0.080-0.016c-5.568 0-10.304 2.224-9.2 7.952 0.88 3.328 5.392 5.968 7.2 7.776zM305.232 217.024c2.464-2.112 7.792-4.448 8.48-7.776 1.584-7.024-4.048-8.768-10.064-8.592-2.464 0-5.568-0.832-7.2 0.4-3.168 2.704-6 5.616-8.512 8.768l-0.096 0.128c2.736 1.52 5.376 3.168 8.208 4.448 2.384 0.88 5.472 1.776 8.608 2.512l0.592 0.112z"></path>
<path d="M276.416 467.248c0.288-3.936 0.432-8.512 0.432-13.152s-0.144-9.2-0.48-13.744l0.032 0.624c-1.456-10.416 5.216-12.928 12.24-13.872 47.744-6.384 82.944-34.176 109.936-70.224 19.232-25.52 30.784-57.744 30.816-92.688 0.080-2.176 0.144-4.72 0.144-7.264 0-25.808-5.6-50.32-15.648-72.368l0.448 1.104c-11.808-25.68-28.96-47.104-50.112-63.632l-0.368-0.288c-8.272-7.232-17.504-13.808-27.36-19.408l-0.816-0.432c-13.568-6.192-30.064-12.176-47.056-16.944l-2.56-0.624c-6.208-1.872-9.488-3.52-9.424-10.176 0-20.48 0-40.976 0-61.44 0-1.456 1.408-2.864 2.176-4.32 1.152 1.264 2.192 2.688 3.088 4.192l0.064 0.128c4.592 8.528 9.216 18.864 13.184 29.52l0.592 1.792c1.824 6.096 7.072 10.56 13.472 11.232h0.064c28.048 7.264 52.544 19.536 73.68 35.92l-0.448-0.336c4.272 3.392 9.744 5.456 15.696 5.456 2.032 0 4.016-0.24 5.92-0.704l-0.176 0.032c3.28-0.592 6.496-1.648 9.792-2.288 4.624-0.816 9.248-1.408 13.888-2.112-0.4 5.568-0.4 11.168-1.344 16.624-0.656 3.68-2.736 7.136-3.76 10.768-0.592 1.792-0.928 3.856-0.928 6 0 4.688 1.632 9.024 4.368 12.416l-0.032-0.048c17.584 25.28 31.392 52.672 34.448 84.080 0.88 9.536 3.632 16.624 15.12 19.376 14.656 4.464 26.976 9.312 38.832 14.992l-1.648-0.72c1.056 0.464 1.696 1.808 2.512 2.8-1.168 0.592-2.336 1.344-3.568 1.808-12.528 4.688-24.896 9.824-37.664 13.872-7.568 1.936-13.12 8.608-13.296 16.608v0.016c-1.648 21.536-10.304 40.976-18.384 60.16-4.304 10.768-10.24 20.016-17.632 27.904l0.048-0.048c-10.304 10.416-6.144 20.768-3.856 31.648 0.4 1.808 1.984 3.392 2.336 5.2 0.656 3.232 1.984 8.672 0.88 9.296-2.224 1.232-4.88 1.952-7.696 1.952-1.12 0-2.192-0.112-3.232-0.32l0.112 0.016c-6.128-1.68-11.472-3.824-16.464-6.528l0.4 0.192c-1.856-1.136-4.096-1.808-6.48-1.808-3.696 0-7.008 1.6-9.312 4.144l-0.016 0.016c-10.592 9.808-23.088 17.728-36.864 23.12l-0.8 0.288c-10.944 4.272-21.904 8.896-33.264 12.112-8.064 1.52-14.512 7.232-17.008 14.768l-0.048 0.16c-3.232 9.488-7.792 18.56-11.712 27.744-0.768 1.136-1.68 2.096-2.72 2.896l-0.032 0.016c-0.768-1.408-2.112-2.8-2.112-4.288-0.464-10.816-0.352-21.056-0.352-31.312z"></path>
<path d="M234.544 44.352c0 9.712 0 19.488 0 29.264 0.064 0.4 0.112 0.864 0.112 1.344 0 4.576-3.424 8.336-7.856 8.88h-0.048c-11.712 2.928-22.8 6.912-34.144 10.576-32.512 10.656-56.048 33.824-77.728 58.512-8.48 9.712-12.592 23.408-18.8 35.12-14.704 28.032-16.224 58.512-13.296 88.656 2.464 17.92 7.12 34.128 13.76 49.296l-0.464-1.2c15.936 40.96 46.032 69.632 84.4 89.056 11.664 6.928 25.424 11.664 40.144 13.296l0.464 0.048c12.368 0.592 13.424 2.752 13.424 15.328 0 19.024 0 38.032 0 57.056 0 1.52-1.408 3.040-2.112 4.56-0.976-1.248-1.92-2.64-2.736-4.112l-0.096-0.176c-4.288-9.664-9.136-19.088-12.416-29.264-2.336-7.232-8.496-12.576-16.064-13.68l-0.112-0.016c-28.272-7.6-52.848-20.512-73.792-37.712l0.336 0.256c-2.432-2.656-5.904-4.32-9.776-4.32-2.16 0-4.208 0.528-6 1.44l0.080-0.032c-5.68 2.064-12.304 3.6-19.168 4.352l-0.384 0.032c-2.928 0.592-5.856 1.456-8.544 2.272-0.128-1.504-0.208-3.248-0.208-5.040s0.080-3.52 0.224-5.248l-0.016 0.224c0.8-4.704 1.984-8.864 3.552-12.848l-0.16 0.432c1.2-3.072 1.92-6.624 1.92-10.32 0-6.88-2.432-13.2-6.48-18.176l0.048 0.048c-16.832-23.52-28.24-51.984-31.84-82.848l-0.080-0.832c-1.12-9.488-8.608-13.584-16.048-16.912-10.368-4.736-21.088-8.656-31.632-12.992-1.232-0.528-2.048-1.872-3.104-2.8 0.848-0.672 1.808-1.264 2.816-1.776l0.096-0.048c10.96-4.848 21.744-10.24 32.992-14.272 8.432-2.288 14.608-9.6 15.216-18.432v-0.064c3.28-27.616 13.088-52.432 27.888-73.552l-0.336 0.512c4.272-5.472 8.544-11.648 12.464-18.080l0.496-0.864c1.168-2.144 1.856-4.72 1.856-7.44 0-1.024-0.096-2.032-0.288-3.008l0.016 0.096c-1.952-8.832-4.848-17.568-7.264-26.16-1.456-5.44-2.224-10.416 6.272-6.432 3.040 1.408 6.432 1.984 9.536 3.28 4.128 2.032 8.992 3.216 14.112 3.216 8.048 0 15.408-2.928 21.088-7.76l-0.048 0.032c19.152-14.176 41.92-24.672 66.64-29.936l1.136-0.208c5.76-0.944 10.304-5.168 11.696-10.656l0.016-0.096c3.696-11.296 8.912-22.112 13.6-33.12 0.72-1.184 1.568-2.192 2.512-3.104 0.816 1.344 2.224 2.688 2.224 4.096 0.064 10.704-0.064 21.424-0.064 32.176z"></path>
</svg>
