<!-- Generated by IcoMoon.io -->
<svg version="1.1" xmlns="http://www.w3.org/2000/svg" width="512" height="512" viewBox="0 0 512 512">
<title>monsters-of-order</title>
<g id="icomoon-ignore">
</g>
<path d="M233.232 44.912c0 10.224 0 20.448 0 30.656 0 6.176-2.16 9.984-8.96 10.8-18.704 2.88-35.536 8.768-50.784 17.168l0.8-0.4c-11.536 6.032-21.472 13.136-30.304 21.392l0.080-0.064c-16.576 13.936-30.544 30.32-41.504 48.72l-0.48 0.864c-7.168 13.536-13.168 29.232-17.232 45.696l-0.288 1.44c-2.432 10.144-3.792 21.808-3.792 33.792 0 15.024 2.192 29.536 6.256 43.232l-0.288-1.072c6.368 22.352 15.296 41.888 26.72 59.712l-0.528-0.88c0.544 1.472 1.2 2.736 2.032 3.904l-0.032-0.048c18.944 18.4 35.952 38.608 60.688 50.768 11.856 6.144 25.6 10.816 40.112 13.264l0.816 0.112c3.28 0.528 6.384 2.048 9.648 2.864 3.952 0.56 6.944 3.92 6.944 7.984 0 0.048 0 0.096 0 0.144 0 22.368 0 44.736 0 67.056 0 0.88-0.752 1.744-1.12 2.576-0.88-0.752-2.112-1.392-2.512-2.384-3.872-8.816-7.6-17.52-11.344-26.512-3.344-10.144-11.744-17.744-22.144-19.952l-0.192-0.032c-22.736-5.632-42.592-15.536-59.632-28.88l0.336 0.256c-4.656-3.472-9.936-6.688-15.504-9.376l-0.576-0.256c-1.456-0.576-3.168-0.912-4.928-0.912-1.248 0-2.432 0.176-3.584 0.464l0.096-0.016c-8.432 1.92-16.72 4.32-25.024 6.544-5.152 1.344-7.6-0.752-5.856-5.84 1.872-6.48 4.16-12.848 6.432-19.152 0.944-2.4 1.504-5.2 1.504-8.112 0-5.568-2-10.656-5.312-14.592l0.032 0.032c-7.552-11.632-14.72-25.072-20.736-39.12l-0.672-1.776c-7.616-14.864-12.608-32.272-13.888-50.688l-0.032-0.416c0-5.84-5.392-6.32-9.008-8.064-11.28-5.488-22.8-10.464-34.080-15.824-1.888-1.264-3.52-2.688-4.944-4.288l-0.032-0.032c1.6-1.648 3.376-3.088 5.312-4.304l0.128-0.080c11.696-5.152 23.808-9.984 35.616-15.12 4.208-1.168 7.248-4.912 7.312-9.392 2.256-20.432 7.776-39.088 16.064-56.16l-0.448 1.024c7.296-15.056 15.232-27.984 24.304-40.032l-0.432 0.592c2.32-2.336 3.744-5.568 3.744-9.12 0-1.44-0.224-2.832-0.656-4.128l0.032 0.096c-3.408-8.464-1.408-18.096-6.912-26.336-2.912-4.496 1.056-8.224 6.784-6.944 8.944 1.6 16.8 3.76 24.352 6.56l-0.96-0.32c1.664 0.704 3.584 1.104 5.6 1.104 3.488 0 6.688-1.2 9.216-3.232l-0.032 0.016c3.808-2.112 7.136-4.912 10.816-7.232 16.544-10.688 33.2-20.912 53.088-24.64 13.76-2.4 24.544-12.848 27.376-26.24l0.048-0.208c2.624-8.064 5.328-14.72 8.4-21.136l-0.448 1.040c0.768-1.216 1.632-2.256 2.624-3.152l0.016-0.016c0.704 1.52 1.984 3.040 1.984 4.56 0 10.688 0 21.376 0 32.064z"></path>
<path d="M275.84 466.144c0-9.712 0-19.456 0-29.2s0-8.992 9.056-10.928c11.392-2.080 21.2-4.656 30.72-7.92l-1.488 0.448c23.456-8.72 43.44-21.952 59.776-38.752l0.032-0.032c9.152-8.32 17.312-17.472 24.432-27.408l0.352-0.528c7.152-11.712 13.904-25.296 19.488-39.488l0.624-1.808c7.888-19.456 4.56-40 5.84-60.16 0.16-2.384 0.24-5.2 0.24-8 0-27.728-8.416-53.488-22.832-74.896l0.32 0.48c-8.752-14.88-19.088-27.632-31.056-38.672l-0.112-0.112c-8.032-7.52-16.768-14.544-26.016-20.896l-0.768-0.496c-16.432-10.624-35.792-18.288-56.576-21.728l-0.88-0.128c-10.816-1.68-11.344-2.112-11.696-12.624 0-20.448 0-40.88 0-61.264 0.208-1.52 0.624-2.896 1.248-4.176l-0.032 0.080c1.232 1.168 2.976 2.112 3.632 3.504 4.8 10.8 9.648 21.6 13.792 32.704 1.792 4.96 5.888 8.688 10.944 9.904l0.112 0.016c12.336 3.856 24.496 8.352 36.608 13.152 15.536 6.144 28.176 16.512 42.032 25.056 2.656 2.144 6.048 3.44 9.776 3.44 2.224 0 4.368-0.48 6.304-1.312l-0.096 0.048c6.16-2.4 13.584-4.576 21.232-6.16l0.928-0.144c3.856-0.88 6.672 0.4 5.264 5.536-2.16 7.824-3.504 16-6.144 23.664-0.688 1.904-1.088 4.096-1.088 6.384 0 4.72 1.696 9.024 4.496 12.4l-0.032-0.032c7.472 10.704 14.608 22.944 20.656 35.76l0.672 1.568c4.112 10.016 8.112 22.336 11.28 34.992l0.416 1.968c1.344 4.112 2.336 8.88 2.8 13.824l0.016 0.256c0.256 5.584 3.92 10.256 8.912 12.064l0.096 0.032c8.832 3.904 17.536 7.664 26.544 11.392 3.184 1.040 5.84 2.128 8.384 3.376l-0.368-0.176c1.92 1.392 3.568 2.976 5.008 4.736l0.032 0.048c-1.376 1.168-2.88 2.256-4.464 3.2l-0.144 0.080c-11.28 5.248-22.384 11.104-34.080 15.296-5.536 1.232-9.664 5.92-10 11.648v0.032c-5.92 36.16-20.096 68.224-40.512 95.344l0.4-0.56c-1.936 2.224-3.12 5.168-3.12 8.352 0 1.312 0.192 2.576 0.56 3.776l-0.032-0.096c1.824 6.896 3.504 13.904 4.976 20.912 2.112 10.048 0.688 11.68-9.712 10.112-5.28-0.976-9.92-2.352-14.352-4.144l0.496 0.176c-2.432-1.040-5.28-1.648-8.24-1.648-5.088 0-9.76 1.776-13.44 4.72l0.048-0.032c-20.048 15.536-43.904 27.2-69.888 33.456l-1.264 0.256c-6.512 0.56-11.68 5.712-12.272 12.144v0.048c0 2.144-1.984 4.192-3.040 6.304l-14.208 28.272-1.232-33.232c0.592-1.344 0.64-2.8 0.64-4.256z"></path>
<path d="M258.592 149.056c15.792 2.224 28.992 11.632 36.352 24.752l0.128 0.24c3.328 5.84 7.376 11.392 10.176 17.52 2.096 4.448 3.424 9.632 3.68 15.088v0.096c0.112 8.592 2.4 16.624 6.32 23.6l-0.112-0.256c7.072 12.496 1.168 35.056-11.344 42.176-16.144 9.52-21.568 24.832-23.376 41.76-1.12 9.12 0 18.464-0.352 27.616s-1.888 18.176-3.28 27.216c0 1.584-2.384 4.192-3.44 4.096-2.208-0.384-4.064-1.616-5.312-3.312l-0.016-0.032c-3.136-5.632-9.040-9.392-15.84-9.392-4.048 0-7.792 1.344-10.8 3.584l0.048-0.032c-1.52 1.232-1.344 4.384-2.4 6.432-0.464 0.88-2.224 1.12-3.408 1.632-3.344-9.232-9.056-17.52-7.136-28.512 0.896-4.784 1.408-10.304 1.408-15.936 0-16.24-4.288-31.488-11.76-44.672l0.24 0.448c-2.608-4-6.096-7.216-10.192-9.456l-0.16-0.080c-13.328-8.064-20.928-26.752-14.512-40.304 4.16-8.544 6.752-18.512 7.136-29.072v-0.128c1.168-7.584 3.744-14.368 7.44-20.384l-0.144 0.224c3.344-6 6.736-11.12 10.448-15.968l-0.224 0.32c9.776-11.568 24.192-18.976 40.336-19.328h0.064zM279.92 268.72c6.256 0.768 9.648-3.104 13.152-7.472 5.856-7.472 1.28-14.832 0-22.144s-5.264-8-9.712-3.104c-5.632 6.096-10.816 12.8-15.376 19.92l-0.336 0.576c-3.968 6.176-2.16 9.52 4.976 11.68 1.984 0.336 4.288 0.528 6.624 0.528 0.224 0 0.48 0 0.72 0zM232.8 268.72c10.576 0 13.216-4.16 8.064-13.248-2.88-5.36-6.080-10-9.728-14.24l0.096 0.112c-3.264-3.12-6.848-5.952-10.64-8.464l-0.288-0.176c-1.536 3.456-3.152 7.808-4.512 12.272l-0.224 0.864c-0.512 1.584-0.8 3.376-0.8 5.264 0 9.664 7.856 17.52 17.536 17.52 0.192 0 0.352 0 0.544-0.016h-0.032zM263.856 324.4c-2.464-0.208-5.344-0.32-8.24-0.32s-5.776 0.128-8.608 0.352l0.368-0.032c-2.864 0.528-6.784 11.68-4.912 14.192 2.144 3.584 5.248 6.416 8.944 8.176l0.128 0.048c1.136 0.416 2.464 0.656 3.84 0.656 4.272 0 8-2.288 10.032-5.68l0.032-0.048c0.736-2.016 1.152-4.336 1.152-6.752 0-4.112-1.216-7.936-3.312-11.152l0.048 0.080c-0.592-0.464-1.632-0.592 0.528 0.352z"></path>
</svg>
