<!-- Generated by IcoMoon.io -->
<svg version="1.1" xmlns="http://www.w3.org/2000/svg" width="512" height="512" viewBox="0 0 512 512">
<title></title>
<g id="icomoon-ignore">
</g>
<path d="M426.768 94.88c-1.68 8.288-3.872 15.488-6.624 22.4l0.304-0.864c-1.232 2.080-1.968 4.592-1.968 7.264 0 4.24 1.84 8.064 4.768 10.688l0.016 0.016c10.064 12.368 18.208 26.768 23.712 42.448l0.32 1.008c5.568 13.12 9.792 28.368 11.92 44.272l0.096 0.912c0.128 5.584 3.616 10.304 8.512 12.256l0.096 0.032c14.768 5.2 27.712 14.864 43.536 17.568 0.896 0.384 1.68 0.896 2.336 1.52-0.624 0.624-1.376 1.168-2.176 1.616l-0.048 0.032c-10.656 3.92-21.968 6.432-30.88 14.224-16.64 0-21.92 10.080-22.624 25.232-1.056 8.688-3.104 16.608-6.080 24.064l0.224-0.64c-2.4 8.688-5.312 16.16-8.88 23.28l0.336-0.736c-5.568 12.048-12.032 22.448-19.632 31.92l0.224-0.288c-10.32 11.696-8.912 22.656-4.848 35.12 1.28 4.080 2.944 8.016 3.984 12.176s-1.344 5.856-4.752 4.752c-7.264-2.048-14.544-4.16-21.68-6.624-2.016-0.944-4.4-1.488-6.88-1.488-4.080 0-7.824 1.472-10.72 3.904l0.032-0.016c-10.48 8.56-22.448 15.952-35.328 21.664l-1.008 0.4c-6.96 2.864-13.824 5.856-20.864 8.544s-13.712 4.048-20.096 7.024c-3.472 1.344-6.272 3.808-8 6.944l-0.048 0.080c-5.856 10.768-9.136 22.544-14.416 33.488-0.672 1.104-1.792 1.856-3.088 2.048h-0.016c-0.992 0-1.936-1.52-2.752-2.512-0.096-0.208-0.16-0.448-0.16-0.704s0.064-0.496 0.16-0.72v0.016c4.384-19.968-2.048-39.856-0.464-59.936-0.032-0.256-0.032-0.544-0.032-0.848 0-4.944 3.824-9.008 8.672-9.392h0.032c12.832-3.28 25.488-7.088 38.192-10.656 1.52-0.512 2.832-1.088 4.064-1.776l-0.144 0.064c25.552-12.704 47.040-29.952 64.192-50.88l0.256-0.336c5.856-7.44 10.784-15.168 15.936-22.944 5.456-8.608 9.824-18.576 12.512-29.2l0.16-0.72c0.176-1.52 0.544-2.896 1.088-4.192l-0.032 0.096c8.368-12.88 8.256-27.28 7.792-41.808v-7.312c0-35.952 0.656-36.176-12.064-68.496-5.936-14.592-13.232-27.2-21.968-38.624l0.304 0.4c-10.336-14.144-22.464-26.192-36.256-36.080l-0.48-0.336c-8.736-5.856-17.568-11.696-26.768-17.552-1.344-0.64-2.912-1.008-4.592-1.008-0.448 0-0.88 0.032-1.312 0.080h0.048c-3.952-0.32-7.568-1.552-10.72-3.456l0.112 0.064c-7.648-3.28-16.672-6.128-26.032-8.048l-0.928-0.16c-8.544-1.936-11.312-3.984-11.712-12.656v-59.968c0-1.12 1.056-2.176 1.712-3.264 0.928 0.368 1.712 0.88 2.4 1.52 1.824 2.416 3.52 5.168 4.976 8.064l0.144 0.304c3.392 7.776 6.848 15.632 9.664 23.712 1.888 6.064 6.944 10.608 13.2 11.68l0.112 0.016c13.952 2.832 26.32 7.232 37.808 13.088l-0.832-0.384c14.944 6.864 27.792 14.688 39.632 23.776l-0.48-0.352c3.68 3.040 8.448 4.864 13.632 4.864 2.768 0 5.424-0.528 7.84-1.472l-0.144 0.048c7.712-1.664 14.128-3.472 20.384-5.648l-1.232 0.368c4.624-1.712 4.336 0.704 4.4 7.024l-0.080 0.016z"></path>
<path d="M234.384 29.552c-0.928 4.912-2.4 11.408-3.344 18.032-0.064 0.736-0.096 1.616-0.096 2.496 0 2.112 0.208 4.176 0.608 6.176l-0.032-0.208c0.8 3.44 1.488 7.744 1.952 12.144l0.048 0.512c0.304 13.12 0 12.352-12.832 15.28-28.656 6.496-55.776 16.384-77.008 38.16-4.368 4.048-9.12 7.888-14.096 11.408l-0.432 0.288c-12.48 9.824-18.992 24.112-26.944 37.104-7.088 11.712-14.768 23.424-15.008 37.888-10.32 22.176-5.872 45.84-5.216 68.672 1.584 17.952 6.512 34.432 14.176 49.28l-0.336-0.752c10.624 23.52 25.552 43.376 43.92 59.36l0.192 0.176c10.928 9.952 23.28 18.624 36.656 25.6l0.96 0.448c3.456 1.52 7.888 3.136 12.4 4.512l0.896 0.24c10.656 4.496 23.344 8.528 36.464 11.424l1.504 0.288c3.808 0.704 5.040 2.512 4.736 5.856-1.28 14.336 2.176 28.8-2.176 43.2-1.584 5.376 1.456 12.064 2.112 18.144 0.144 1.088 0.224 2.352 0.224 3.632s-0.080 2.544-0.224 3.776l0.016-0.16c-0.352 0.864-1.104 1.52-2.032 1.68h-0.016c-1.232 0-3.456-0.88-3.52-1.52-1.168-14.688-10.544-26.224-15.408-39.456-0.752-1.984-3.104-4.752-4.848-4.8-14.176-0.88-25.072-11.696-39.312-12.224-14.112-9.664-31.056-14.864-43.072-27.68-2.176-2.656-5.456-4.352-9.12-4.352-1.408 0-2.736 0.256-3.968 0.688l0.080-0.032c-8.672 2.4-17.28 4.8-25.888 7.376-4.096 1.232-5.344-0.88-5.152-4.272 0.256-2.592 0.72-4.944 1.408-7.232l-0.064 0.256c2.176-8.192 4.624-16.336 6.512-24.592-0.128-2.24-0.976-4.272-2.368-5.856l0.016 0.016c-13.824-19.296-24.944-41.696-32.16-65.776l-0.416-1.6c-2.064-6.56-3.856-14.464-5.008-22.592l-0.096-0.832c-1.28-10.544-4.736-16.384-14.88-18.032-12.432-1.936-21.92-9.024-32.16-14.992-2.704-1.52-1.888-1.808 0-3.52 9.424-8.016 21.328-10.352 32.464-14.224 8.4-2.144 14.576-9.584 14.704-18.48v-0.016c1.504-14.224 4.816-27.28 9.728-39.52l-0.352 0.992c7.44-20.32 18.032-37.824 31.328-52.848l-0.16 0.176c1.952-1.776 3.184-4.32 3.184-7.168 0-1.664-0.416-3.232-1.168-4.592l0.032 0.048c-2.752-5.584-4.64-12.064-5.312-18.912l-0.016-0.24c-2.336-15.152-2.992-15.088 12.368-10.304 7.216 2.288 14.704 7.376 21.44 6.432s13.056-7.44 19.104-12.064c13.824-10.592 30.24-16.112 45.472-23.888 5.168-1.84 11.232-3.264 17.504-4.064l0.432-0.048c5.152-0.784 9.264-4.448 10.704-9.264l0.032-0.096c4.096-11.696 11.712-21.904 14-34.304 0-0.768 0.992-1.456 1.456-2.224 1.168 0.88 3.168 1.584 3.328 2.576 0.768 5.040 1.232 10.768 2.112 18.32l-0.032 0.080z"></path>
<path d="M252.827 149.060c-0.823 3.201-1.143 8.607-1.492 25.143-0.644 30.714-2.269 37.835-10.785 47.305-9.134 10.157-7.382 22.835 3.948 28.566 18.134 9.174 36.429-7.218 27.476-24.62-1.12-2.178-2.024-3.331-6.673-8.518-4.048-4.517-5.069-7.345-5.371-14.886-0.673-16.746-4.042-46.041-6.142-53.426-0.275-0.966-0.642-0.8-0.961 0.438l-0-0.001zM177.596 182.978c-9.93 0.515-11.673 0.938-11.671 2.827 0.007 4.037 4.603 18.308 6.609 20.525 0.728 0.804 2.044 0.627 4.757-0.642 8.507-3.982 13.655 3.795 17.912 27.062 2.016 11.011 5.445 11.452 8.321 1.070 1.459-5.266 3.946-10.315 7.643-15.518 1.411-1.985 2.565-3.732 2.565-3.883s-1.505-3.415-3.343-7.256c-7.163-14.957-6.87-15.256 8.338-8.503 10.766 4.779 22.608 4.171 25.319-1.3 0.747-1.506 0.752-3.448 0.022-6.589-0.311-1.335-0.654-3.178-0.762-4.093-0.226-1.923-0.369-2.008-4.214-2.54-9.236-1.275-45.923-1.966-61.499-1.16l0.002-0zM264.277 185.482c0.455 6.633 1.118 9.381 2.823 11.736 3.514 4.851 12.522 5.339 22.872 1.24 1.599-0.633 4.546-1.809 6.551-2.613 8.142-3.268 8.416-2.766 3.783 6.929-4.979 10.422-5.11 12.601-1.12 18.816 2.274 3.543 3.543 6.379 5.351 11.939 2.155 6.637 3.094 8.134 4.736 7.558 1.897-0.668 3.070-4 4.58-13.018 2.973-17.758 6.591-23.667 14.148-23.104 8.049 0.601 8.103 0.555 12.13-10.183 2.839-7.568 2.76-9.27-0.488-10.567-3.233-1.29-4.691-1.344-41.046-1.472l-34.512-0.123 0.196 2.862-0.002 0zM231.617 211.039c-9.277 5.001-17.601 15.984-21.571 28.464l-1.809 5.685-5.343 0.65c-14.006 1.704-32.462 3.434-52.63 4.932-5.966 0.442-10.807 0.845-10.758 0.895 0.048 0.048 5.456 0.483 12.013 0.965 23.294 1.714 55.753 4.777 56.254 5.31 0.038 0.041 0.816 2.63 1.732 5.755 5.609 19.165 10.48 24.268 32.804 34.377l6.568 2.974 0.668 13.613c1.751 35.678 2.948 48.005 4.772 49.143 1.151 0.719 1.267 0.027 1.978-11.771 0.445-7.391 1.82-24.171 3.211-39.19 0.638-6.885 1.159-12.688 1.159-12.899s3.286-2.026 7.301-4.035c19.2-9.606 25.776-15.385 29.57-25.991 4.321-12.079 10.904-14.69 39.215-15.549 10.075-0.305 15.431-0.601 21.426-1.181 3.662-0.355 14.194-1.685 14.317-1.809 0.046-0.046-11.226-0.974-25.046-2.063-47.858-3.773-44.89-3.112-47.868-10.683-4.571-11.62-10.834-20.482-17.707-25.056-6.83-4.545-7.945-3.094-3.127 4.073 3.661 5.447 4.916 8.958 5.154 14.424 0.627 14.398-9.608 28.638-23.197 32.266-25.878 6.909-46.721-27.935-29.528-49.363 4.020-5.012 4.124-5.917 0.444-3.933l-0-0.005zM302.286 277.418c-0.276 0.161-1.873 2.354-3.55 4.873-3.674 5.523-6.832 9.18-10.448 12.103-5.609 4.531-5.599 4.488-3.55 16.183 2.875 16.414 2.297 16.38-15.224-0.916-3.803-3.753-4.736-4.54-4.865-4.098-0.293 1.014-1.331 6.651-1.63 8.856-0.832 6.138-1.907 25.076-1.44 25.378 0.373 0.243 18.255 0.869 24.447 0.856 8.999-0.019 9.969-0.541 8.123-4.37-1.872-3.884-1.154-9.345 4.272-32.527 5.277-22.55 6.017-27.591 3.866-26.34h-0.002zM205.099 279.908c-0.548 2.185 0.846 9.578 6.732 35.68 3.005 13.327 3.346 17.7 1.6 20.509-1.828 2.94-1.35 3.075 11.959 3.401 10.040 0.246 14.131 0.55 16.399 1.221 3.133 0.926 3.278 0.233 3.278-15.656 0-21.332-0.547-21.808-12.076-10.509-11.045 10.823-10.925 10.931-10.501-9.461 0.179-8.577 0.321-8.206-5.239-13.599-2.34-2.269-5.237-5.344-6.439-6.832-4.463-5.528-5.339-6.257-5.717-4.755h0.003z"></path>
</svg>
