<!-- Generated by IcoMoon.io -->
<svg version="1.1" xmlns="http://www.w3.org/2000/svg" width="512" height="512" viewBox="0 0 512 512">
<title>monsters-of-order</title>
<g id="icomoon-ignore">
</g>
<path d="M194.256 168.512c3.248 0.192 7.040 0.288 10.88 0.288s7.616-0.112 11.408-0.32l-0.528 0.016c0.688-0.080 1.456-0.112 2.256-0.112 8.352 0 15.616 4.704 19.264 11.6l0.064 0.128c3.44 4.864 7.136 9.152 11.184 13.040l0.032 0.032c4.416 4.528 7.68 4.288 10.976-1.456 5.008-7.6 11.12-13.984 18.224-19.136l0.208-0.144c3.6-2.864 8.224-4.592 13.248-4.592 1.488 0 2.928 0.16 4.336 0.432l-0.144-0.032c1.744 0.048 3.808 0.080 5.888 0.080 7.008 0 13.952-0.288 20.816-0.88l-0.896 0.064c8.48 0 17.040 0.928 25.456 1.856 1.744 0.528 3.12 1.808 3.776 3.44l0.016 0.048c3.136 10.336 0 20.784 0 31.184 0 3.888-10.992 8.544-17.104 8.016-3.072-0.16-5.952-0.752-8.624-1.744l0.192 0.064c-2.368-1.040-5.152-1.664-8.064-1.664-2.528 0-4.944 0.448-7.184 1.28l0.144-0.048c-2.192 0.72-4.736 1.152-7.376 1.152-2.976 0-5.792-0.528-8.432-1.488l0.176 0.064c-1.312-0.496-2.848-0.768-4.432-0.768-3.888 0-7.392 1.712-9.792 4.432l-0.016 0.016c-5.824 4.352-5.824 7.552-0.704 13.232 7.552 8.88 15.28 15.152 28.656 10.448 5.824-2.144 14.544 2.672 20.928 0.768 7.68-2.256 14.016 1.504 20.992 1.232 1.104 0 3.552 3.088 3.312 3.488-3.2 5.28 0 10.112 0.336 15.152 0.080 0.464 0.128 0.992 0.128 1.552 0 4.56-3.152 8.368-7.392 9.424l-0.064 0.016c-4.144 1.392-8.912 2.192-13.888 2.192-4.128-0.4-9.056-4.592-11.104 0.992-0.928 2.496 2.96 7.488 5.824 10.512 5.824 6.384 11.616 12.192 17.84 18.288s11.28 14.224 6.976 24.272c0 0.4 0 0.928 0 1.392-0.8 6.384-1.568 12.768-2.4 19.168l-21.392 1.456c-4.88 0-6.976-2.192-6.912-6.976 0-7.248 0-14.528 0-21.776 0-3.136-0.576-5.808-4.592-5.808s-5.824 2.096-5.824 6.16c0 6.752 0 13.536 0 20.272s-2.8 8.544-8.72 8.304-11.616 0-17.44 0c-4.88 0-7.024-2.192-6.912-7.024s0-10.64 0-15.92c0.016-0.432 0.016-0.96 0.016-1.472 0-2.528-0.16-5.024-0.448-7.472l0.032 0.288c0-1.040-2.032-2.736-2.736-2.56s-3.888 1.68-3.952 2.72c-0.4 7.712-0.64 15.456-0.4 23.232 0 6.384-2.672 8.368-8.656 8.368-25.984 0-24.752 1.104-24.464-22.816 0-3.36 0-6.736 0-10.112s-2.336-2.624-4.368-3.024c-2.896-0.576-3.2 0.624-3.136 2.848 0 5.344 0 10.688 0 15.968 0 0.192 0 0.416 0 0.656 0 3.312-0.416 6.496-1.232 9.552l0.064-0.256c-1.408 4.192-3.728 8.080-9.36 7.136-0.416-0.048-0.912-0.064-1.424-0.064s-0.992 0.032-1.488 0.080h0.064c-22.496 0-19.472 2.096-19.712-18.992 0-3.36 0-6.784 0-10.176s-1.040-5.52-4.928-5.52c-3.888 0-5.408 1.456-5.408 5.056 0 7.264 0 14.528 0 21.712 0 5.392-2.032 7.84-7.616 7.952-28.192 0.288-25.408 0.704-25.584-23.232-0.064-0.624-0.080-1.344-0.080-2.096 0-5.84 2.080-11.2 5.52-15.376l-0.032 0.048c6.096-7.152 10.112-16.032 18.832-21.088 2.16-1.808 3.888-4.048 5.072-6.624l0.048-0.112c1.28-2.16 2.208-4.464 3.312-6.736-2.336-0.768-5.12-1.36-7.968-1.728l-0.224-0.016c-4.528 0-9.184 0.992-13.664 0.576-5.824-0.464-9.584-2.848-8.832-9.808 0.336-3.088-1.568-6.32-1.568-9.52 0-10.688 1.232-12.192 11.616-12.896 5.824-0.336 12.144 0 18.256 0 1.12 0.112 2.4 0.176 3.712 0.176 4.24 0 8.32-0.64 12.16-1.808l-0.288 0.080c4.016-1.856 5.408-2.256 9.296 0.464 1.376 1.008 3.104 1.632 4.96 1.632 3.184 0 5.968-1.776 7.392-4.368l0.016-0.048c2.56-3.776 7.456-5.808 10.816-9.168 1.68-1.136 2.768-3.024 2.768-5.168 0-2.544-1.52-4.72-3.712-5.68l-0.048-0.016c-6.192-4.256-13.824-6.768-22.080-6.768-3.072 0-6.064 0.352-8.944 1.024l0.256-0.048c-3.776 1.2-8.128 1.872-12.64 1.872s-8.848-0.688-12.96-1.952l0.32 0.080c-1.952-0.448-4.208-0.72-6.496-0.72-0.736 0-1.472 0.032-2.192 0.080h0.096c-11.28-0.704-12.56-1.856-12.912-12.544 0-4.336 0-8.688 0-13.056 0-11.616 4.48-15.168 15.936-14.288 8.592 0.64 17.44 0.992 25.92 1.456zM241.936 273.056v-0.704l32.448 0.4c1.552-0.144 2.976-0.384 4.368-0.752l-0.192 0.048c-0.768-1.376-1.488-2.544-2.288-3.664l0.080 0.112c-5.168-6.208-10.464-12.304-15.632-18.448s-7.264-6.16-12.912 0c-3.488 3.888-7.392 7.44-10.992 11.6s-5.824 7.088-9.12 10.688z"></path>
<path d="M274.256 466.656c0-9.648 0-19.344 0-29.024 0-10.64 1.504-11.968 12.208-13.872 4.192-0.752 8.384-1.856 12.512-2.848 26.736-7.28 49.856-20.24 68.912-37.568l-0.144 0.128c17.712-14.24 31.52-32.64 39.968-53.76l0.32-0.88c2.56-7.152 5.392-14.112 8.544-21.024 7.216-15.968 5.824-32.88 5.824-49.648 0-6.288-0.304-12.608 0-18.88 1.104-19.632-5.36-37.408-12.784-55.168-11.376-24.816-27.712-45.6-47.856-61.824l-0.32-0.256c-12.048-10.736-26.24-19.392-41.824-25.184l-0.912-0.288c-11.408-5.136-24.672-9.168-38.512-11.488l-0.944-0.128c-2.4-1.024-4.16-3.168-4.592-5.776v-0.048c-0.336-22.704 0-45.424 0-68.128 0-1.104 1.168-2.192 1.808-3.264 0.672 0.608 1.248 1.28 1.728 2.048l0.032 0.048c4.464 8.944 9.248 20.24 13.44 31.824l0.752 2.384c1.536 5.664 6.256 9.904 12.064 10.736l0.080 0.016c25.744 6.736 48.32 17.024 68.608 30.48l-0.832-0.528c1.712 0.992 3.184 2.24 4.384 3.696l0.016 0.032c7.088 9.408 16.336 8.48 26.096 5.808 2.272-0.64 4.592-1.232 6.848-1.968 4.768-1.504 10.752-5.808 14.080-1.856 2.208 2.736-0.704 9.584-1.456 14.624-0.336 1.008-0.736 1.872-1.2 2.688l0.032-0.080c-1.44 3.712-2.272 8.032-2.272 12.528 0 8.88 3.248 17.008 8.656 23.232l-0.032-0.048c14.16 19.648 24.192 43.216 28.304 68.736l0.128 0.928c1.392 8.080 1.456 17.824 10.224 22.72 4.688 2.592 10.288 5.152 16.064 7.312l0.896 0.288c8.896 3.424 17.968 6.448 26.912 9.744 0.768 0 1.28 1.104 1.92 1.68-0.64 0.656-1.36 1.216-2.16 1.664l-0.048 0.032-37.264 15.024c-7.968 2.256-13.84 9.056-14.752 17.328l-0.016 0.096c-2.592 16.080-6.64 30.48-12.112 44.112l0.48-1.376c-6.496 14.24-13.056 26.192-20.352 37.6l0.72-1.2c-2.096 3.712-5.12 6.912-7.328 10.624-2.416 3.024-3.872 6.912-3.872 11.136 0 2.256 0.416 4.416 1.168 6.416l-0.048-0.112c2.080 5.872 3.872 12.912 5.072 20.144l0.112 0.752c1.232 5.808-1.040 8.368-6.4 6.976-7.376-1.968-14.64-4.352-21.968-6.512-1.712-0.768-3.728-1.232-5.824-1.232-3.424 0-6.576 1.168-9.072 3.168l0.032-0.016c-18.864 15.568-41.344 27.568-65.92 34.528l-1.28 0.32c-10.688 2.96-17.84 7.776-20.8 18.992-2.512 6.944-5.344 12.88-8.688 18.496l0.256-0.48c-2.096 4.352-4.016 8.832-5.824 13.184-0.464-5.168-1.104-10.4-1.264-15.632-0.64-7.904-0.464-14.928-0.464-22.176z"></path>
<path d="M231.872 46.096c0 9.632 0 19.28 0 29.024 0.064 0.416 0.112 0.896 0.112 1.392 0 5.072-4.096 9.2-9.168 9.232-18.688 3.712-35.248 9.408-50.72 17.024l1.2-0.528c-8.912 4.336-16.576 9.664-23.296 15.968l0.048-0.048c-15.488 12.384-28.88 26.416-40.256 42l-0.432 0.624c-14.112 20.272-19.824 43.152-26.4 65.904-1.28 6.832-2.032 14.704-2.032 22.752 0 0.032 0 0.048 0 0.080-2.624 27.584 5.28 53.312 15.936 77.936 6.256 14.912 14.4 27.728 24.32 38.944l-0.128-0.16c21.040 22.944 45.296 42.336 75.984 51.568 8.144 2.432 15.568 6.976 24.832 6.56 0.32-0.048 0.688-0.064 1.072-0.064 5.008 0 9.056 4.064 9.056 9.056 0 0.24-0.016 0.496-0.032 0.72v-0.032c0 21.248 0 42.512 0 63.872-0.288 1.408-0.8 2.656-1.536 3.744l0.032-0.048c-0.928-0.992-2.32-1.808-2.8-2.96-2.96-7.376-5.824-14.928-8.656-22.352-4.304-10.4-9.824-18.992-22.192-22.176-17.584-5.088-32.88-11.664-47.12-19.872l1.024 0.544c-9.424-4.992-17.44-11.616-26.224-17.024-4.304-2.672-7.328-4.88-12.96-2.624-6.368 2.304-14.176 4.464-22.192 6.048l-1.056 0.176c-6.576 1.632-9.024-0.928-6.992-7.712 1.776-5.52 3.472-9.968 5.424-14.288l-0.352 0.88c1.568-3.216 2.464-6.976 2.464-10.96 0-5.968-2.048-11.456-5.472-15.808l0.048 0.048c-7.568-11.6-14.688-24.944-20.64-38.944l-0.64-1.712c-6.768-13.52-11.488-29.232-13.312-45.824l-0.064-0.624c0.016-0.192 0.016-0.384 0.016-0.608 0-6.24-4.592-11.424-10.576-12.336l-0.080-0.016c-11.616-2.56-20.528-9.872-31.040-14.288-2.512-1.44-4.688-3.040-6.656-4.848l0.032 0.032c2.080-1.52 4.464-3.008 6.944-4.32l0.32-0.16c9.184-4.064 18.48-7.904 27.792-11.6 7.312-2.032 12.704-8.32 13.36-15.968v-0.064c4.608-28.576 14.56-54.128 28.8-76.688l-0.496 0.832c3.312-5.776 6.848-10.736 10.8-15.344l-0.112 0.128c2.464-2.736 3.968-6.4 3.968-10.4 0-2.048-0.384-4-1.104-5.776l0.032 0.112c-2.096-7.776-3.824-15.68-5.824-23.568-1.168-4.592 0.576-6.384 5.056-5.232 6.976 1.856 13.888 3.6 20.704 5.808 2.192 1.056 4.736 1.68 7.456 1.68 4.144 0 7.936-1.44 10.944-3.84l-0.032 0.032c15.952-12.080 34.304-22.176 54.048-29.392l1.456-0.464c2.736-1.44 5.92-2.56 9.28-3.168l0.208-0.032c14.416-0.576 20.336-10.048 24.416-22 2.448-7.104 4.848-12.848 7.536-18.448l-0.432 1.024c1.504-2.592 3.104-4.832 4.864-6.912l-0.048 0.064c0.8 2.608 1.44 5.712 1.824 8.896l0.032 0.272c0 8.656 0 17.424 0 26.080z"></path>
</svg>
