<!-- Generated by IcoMoon.io -->
<svg version="1.1" xmlns="http://www.w3.org/2000/svg" width="512" height="512" viewBox="0 0 512 512">
<title>monsters-of-order</title>
<g id="icomoon-ignore">
</g>
<path d="M273.168 466.064c0-11.12 0-22.304 0-33.424 0-3.84 0.768-6.288 5.376-6.752 7.248-0.624 13.904-1.888 20.304-3.808l-0.72 0.192c25.776-7.984 49.856-19.28 68.976-39.088 10.416-9.824 19.952-20.288 28.688-31.424l0.464-0.624c9.44-13.456 18.656-27.6 20-44.896 9.92-18.176 8.512-37.968 8.576-57.616-0.432-27.568-8.064-53.264-21.088-75.392l0.384 0.72c-9.424-17.936-21.264-33.216-35.328-46.144l-0.128-0.112c-20.4-18.224-42.688-33.488-70.432-38.672-5.28-1.328-9.76-2.864-14.080-4.704l0.608 0.224c-11.248-3.904-11.376-3.968-11.376-14.624 0-18.928 0-37.808 0-56.736 0.32-1.952 0.848-3.68 1.568-5.312l-0.064 0.144c1.152 1.344 2.192 2.848 3.072 4.464l0.080 0.144c4.544 9.968 9.52 19.744 13.12 30.048 1.376 5.712 5.888 10.064 11.568 11.168l0.096 0.016c10.128 2.56 18.656 5.408 26.896 8.8l-1.296-0.48c19.408 7.504 36.176 17.088 51.232 28.816l-0.448-0.32c3.536 3.152 8.224 5.056 13.344 5.056 2.656 0 5.168-0.512 7.488-1.44l-0.144 0.048c6.368-2.048 12.72-3.904 19.136-5.824 0.576-0.256 1.232-0.4 1.92-0.4 2.704 0 4.912 2.192 4.912 4.896 0 0.72-0.16 1.392-0.416 2l0.016-0.032c-2.224 7.744-4.48 15.44-7.232 23.296-0.656 1.776-1.024 3.824-1.024 5.984 0 4.8 1.888 9.168 4.944 12.384v-0.016c10.256 12.752 18.544 27.616 24.064 43.776l0.32 1.024c4.432 14.976 11.072 29.12 11.312 45.312 0 5.824 4.208 8.224 8.992 10.144 12.304 4.832 24.672 9.776 37.024 14.736 0.976 0.464 1.776 0.912 2.56 1.392l-0.112-0.064c-0.704 1.168-1.168 2.912-2.224 3.44-8.864 4.512-17.792 8.88-26.768 13.12-2.864 1.408-6.368 2.816-10 4.016l-0.624 0.176c-7.008 2.224-8.464 7.056-9.328 14.144-0.16 10.032-2.528 19.456-6.64 27.888l0.176-0.384c-0.288 0.352-0.544 0.752-0.752 1.2l-0.016 0.032c-5.312 24.288-19.008 44.4-32.832 64.080-1.888 2.336-3.040 5.36-3.040 8.64 0 1.184 0.16 2.352 0.432 3.456l-0.016-0.096c1.984 8.736 3.376 17.472 5.824 26.272 1.456 4.608-0.464 5.072-3.616 4.672-5.632-0.48-10.816-1.52-15.776-3.12l0.496 0.144c-9.52-3.376-17.488-5.472-27.232 1.92-14.944 11.856-32.368 21.408-51.28 27.728l-1.2 0.336c-5.824 1.76-11.664 3.68-17.488 5.072-5.824 1.040-10.448 5.216-12.112 10.672l-0.032 0.112c-3.552 12.352-10.544 23.296-14.992 34.944-0.4 0.88-0.864 1.664-1.408 2.352l0.016-0.032c-0.64-0.992-1.856-2.048-1.856-3.024 0-11.664 0-23.296 0-34.96z"></path>
<path d="M230.192 45.040c0 10.656 0 21.312 0 31.968 0 4.080-1.568 5.376-5.84 6.528-18.736 4.592-34.48 9.712-49.744 15.792l2.512-0.88c-11.36 5.872-21.152 12.336-30.16 19.696l0.32-0.24c-34.736 26.288-58.864 64.976-65.776 109.376l-0.128 0.944c-1.552 7.456-2.448 16.016-2.448 24.784 0 2.32 0.064 4.64 0.176 6.944l-0.016-0.32c0.832 21.664 5.232 42.032 12.624 60.912l-0.432-1.28c11.2 26.992 28.048 49.664 49.184 67.408l0.272 0.224c18.48 14.912 38.128 28.016 61.808 33.664 7.344 1.744 14.624 3.84 22.096 5.008 4.32 0.704 5.824 2.448 5.824 6.464 0 11.2 0 22.304 0 33.44 0 10.192 0 20.384 0 30.576-0.368 1.856-0.928 3.52-1.696 5.072l0.048-0.128c-1.136-1.36-2.16-2.88-3.024-4.512l-0.080-0.144c-4.192-9.968-8.224-19.92-12.304-29.952-2.4-6.256-7.968-10.8-14.72-11.648l-0.096-0.016c-15.024-3.808-28.224-9.024-40.48-15.712l0.896 0.448c-14.512-6.992-27.008-15.248-38.24-24.944l0.224 0.192c-1.568-1.648-3.776-2.672-6.224-2.672-1.504 0-2.912 0.384-4.144 1.072l0.048-0.016c-7.92 3.152-16.384 4.896-24.368 7.984-4.080 1.568-5.472 0.64-4.896-3.152 0.912-7.84 2.384-14.928 4.416-21.744l-0.224 0.896c0.912-2.592 1.44-5.568 1.44-8.656 0-5.92-1.904-11.392-5.168-15.824l0.048 0.080c-7.616-10.72-14.496-22.944-20.032-35.872l-0.496-1.28c-5.008-14.080-12.464-27.6-12.416-43.504 0.048-0.528 0.080-1.152 0.080-1.776 0-8.976-6.224-16.48-14.592-18.48l-0.112-0.032c-8.464-2.768-15.472-5.632-22.224-8.912l1.056 0.464c-2.368-0.864-4.4-1.952-6.256-3.312l0.064 0.048c-2.416-2.048-4.608-4.144-6.656-6.352l-0.048-0.048c2.352-1.888 5.008-3.632 7.824-5.168l0.288-0.144c10.912-4.72 21.92-9.088 32.832-13.744 2.56-1.056 5.072-1.856 5.248-5.824 0.352-7.136 1.392-13.856 3.072-20.336l-0.144 0.704c1.984-7.68 4.944-15.040 7.52-22.544 7.104-20.64 16.832-38.528 29.024-54.448l-0.336 0.464c3.168-3.296 5.12-7.776 5.12-12.72 0-2.768-0.624-5.408-1.728-7.776l0.048 0.112c-2.112-5.968-3.776-12.992-4.672-20.224l-0.048-0.496c-0.832-4.768 1.104-5.824 6.704-4.48 8.752 1.984 17.488 4.080 26.368 5.824 0.336 0.048 0.736 0.048 1.152 0.048 1.92 0 3.712-0.528 5.264-1.424l-0.048 0.032c4.944-2.784 9.616-6.176 14.512-9.024 16.272-9.504 31.6-20.912 51.136-23.712 6.592-1.28 12.448-3.296 17.904-6.016l-0.4 0.192c2.384-1.28 4.224-3.296 5.28-5.744l0.032-0.080c5.184-12.224 9.968-24.656 14.992-36.944 0.464-0.864 1.008-1.584 1.632-2.224 0.592 1.168 1.632 2.32 1.632 3.552 0 11.136 0 22.304 0 33.424z"></path>
<path d="M250.768 223.008h-74.224c-1.312 0.224-2.8 0.32-4.32 0.32s-3.008-0.128-4.464-0.352l0.16 0.016c-3.184-0.864-5.824-2.72-7.664-5.216l-0.032-0.032c-0.128-0.544-0.192-1.168-0.192-1.808 0-2.24 0.864-4.288 2.288-5.808 6.208-6.336 12.976-12.080 20.256-17.168l0.464-0.304c7.696-4.88 16.592-9.344 25.888-12.928l1.040-0.352c6.4-2.048 11.728-5.984 15.456-11.152l0.064-0.096c5.376-9.072 15.024-15.104 26.080-15.376h0.048c0.336-0.016 0.704-0.016 1.088-0.016 7.2 0 13.712 2.944 18.384 7.712 3.216 3.36 6.576 6.48 10.112 9.392l0.208 0.16c3.808 3.248 8.16 6 12.912 8.032l0.32 0.128c16.784 6.48 31.264 15.152 43.952 25.872l-0.224-0.192c0.752 0.64 1.328 1.456 2.096 2.048 2.192 1.856 3.552 4.592 3.552 7.664 0 1.44-0.288 2.8-0.832 4.032l0.032-0.064c-1.392 4.192-5.184 5.136-9.456 5.072-12.128 0-24.256 0-36.384 0z"></path>
<path d="M247.12 362.56c-8.8 0-15.568 0-22.336 0-2.416-0.512-4.432-1.872-5.824-3.744l-0.016-0.032c-0.4-0.464 1.104-3.376 2.384-4.368 5.088-4.032 8.336-10.192 8.336-17.136 0-1.088-0.080-2.16-0.224-3.2l0.016 0.128c-0.592-18.88 0-37.744 0-56.56 0-8.272 0-8.384 7.76-8.56 8.688 0 17.488 0 26.128 0s9.456 1.632 8.048 11.136c-0.368 3.6-0.592 7.76-0.592 12 0 1.92 0.048 3.84 0.144 5.744l-0.016-0.256c0 11.136 0 22.256 0 33.376-0.064 0.656-0.112 1.456-0.112 2.24 0 6.768 2.736 12.896 7.152 17.328 2.16 2.224 5.84 4.016 3.744 8.32s-5.824 0.864-8.096 1.792c-9.392 3.68-19.072 0.928-26.464 1.808z"></path>
<path d="M251.136 231.040c3.84 0 7.696 0 11.664 0 9.552 0 9.328 0 11.664 9.44 1.232 3.296 2.704 6.144 4.464 8.768l-0.096-0.16c2.848 5.824 0 12.528-5.824 11.296-16.208-3.552-32.832 3.312-48.816-2.56-4.672-1.744-5.824-4.544-2.56-7.92 3.36-2.672 5.488-6.736 5.488-11.312 0-0.448-0.016-0.88-0.064-1.312v0.064c-0.64-5.376 2.56-6.464 7.12-6.352 5.376 0.176 11.136 0.064 16.976 0.064z"></path>
</svg>
