<!-- Generated by IcoMoon.io -->
<svg version="1.1" xmlns="http://www.w3.org/2000/svg" width="32" height="32" viewBox="0 0 32 32">
<title>bladeborn-starblood</title>
<path d="M15.882 22.046c-0.52 0-1.036 0-1.556 0-0.831 0-1.054-0.22-1.073-1.079-0.022-0.947 0-1.891 0-2.835s-0.025-1.017-1.029-1.020c-0.641 0-1.281 0-1.922 0-0.396 0-0.45 0.202-0.3 0.534 0.107 0.225 0.2 0.489 0.262 0.764l0.005 0.026c0.092 0.422 0.152 0.912 0.168 1.414v0.012c0 0.23-0.132 0.589-0.301 0.659-0.113 0.043-0.242 0.067-0.378 0.067-0.178 0-0.346-0.043-0.495-0.117l0.006 0.003c-0.146-0.080-0.165-0.468-0.161-0.713 0.008-0.415 0.052-0.814 0.132-1.201l-0.007 0.041c0.088-0.428 0.384-0.885 0.293-1.25-0.077-0.307-0.626-0.468-0.893-0.761s-0.077-0.966 0.303-1.181c0.034-0.013 0.074-0.020 0.115-0.020s0.082 0.007 0.118 0.021l-0.002-0.001c0.058 0.024 0.105 0.062 0.143 0.108l0.001 0.001c0.402 0.428 0.6-0.146 0.893-0.171s0.454 0.571 0.82 0.234c0.285-0.263 0.491-0.282 0.754 0 0.044 0.052 0.205 0 0.311 0 0-0.107 0-0.249-0.058-0.318-0.275-0.293-0.505-0.713-1.033-0.366-0.103 0.070-0.303 0-0.454-0.029s-0.366-0.136-0.497-0.103c-0.253 0.058-0.388 0.486-0.765 0.139s-0.732-0.607-0.608-1.174c0.014-0.055 0.022-0.118 0.022-0.183s-0.008-0.128-0.023-0.188l0.001 0.005c-0.279-1.068 0.41-1.656 1.098-2.231 0.041-0.037 0.227 0.029 0.285 0.099 0.593 0.695 1.139 0.61 1.541-0.245 0.077-0.141 0.155-0.261 0.24-0.374l-0.005 0.009c0.084 0.113 0.216 0.216 0.245 0.344 0.132 0.537 0.487 0.68 1.006 0.706s0.59-0.41 0.776-0.732c0.044-0.076 0.066-0.164 0.107-0.245 0.088-0.169 0.184-0.336 0.275-0.505 0.075 0.184 0.153 0.339 0.242 0.486l-0.009-0.014c0.235 0.34 0.48 0.665 0.732 0.991 0.056 0.067 0.116 0.127 0.18 0.181l0.002 0.002c0.904 0.882 0.912 1.032 0.107 1.961-0.593 0.68-0.593 0.684 0.095 1.339 0.058 0.058 0.11 0.128 0.165 0.194 0.505 0.581 0.505 0.581 0 1.185-0.109 0.132-0.256 0.235-0.366 0.366-0.366 0.515-0.34 0.731 0.157 1.166 0.699 0.632 0.695 0.801 0 1.704-0.102 0.165-0.195 0.355-0.27 0.555l-0.008 0.023c0.217-0.138 0.406-0.282 0.582-0.442l-0.003 0.003c0.296-0.329 0.761-0.684 0.776-1.042s-0.439-0.732-0.759-1.006c-0.319-0.274-0.202-0.512-0.066-0.782 0.048-0.082 0.104-0.152 0.165-0.216 0.761-0.984 0.78-1.002-0.055-1.887-0.366-0.366-0.392-0.637-0.022-0.991 0.171-0.161 0.253-0.416 0.428-0.574 0.417-0.366 0.534-0.713 0.041-1.119-0.303-0.245-0.22-0.545 0.117-0.589 0.487-0.066 0.53-0.395 0.662-0.732 0.144-0.278 0.301-0.518 0.479-0.74l-0.007 0.009c0.107 0.198 0.209 0.432 0.293 0.674l0.011 0.035c0.054 0.403 0.396 0.711 0.809 0.713 0.516 0.037 0.905-0.055 0.952-0.68 0-0.109 0.161-0.208 0.246-0.311 0.071 0.082 0.14 0.171 0.205 0.264l0.007 0.010c0.549 0.911 0.732 0.944 1.534 0.307 0.070-0.050 0.157-0.081 0.252-0.081 0.041 0 0.079 0.006 0.117 0.016l-0.003-0.001c1.098 0.651 1.431 1.525 1.182 2.886-0.091 0.494-0.842 0.826-1.307 0.731-0.33-0.058-0.901 0.336-1.025 0.208-0.367-0.366-0.608-0.23-0.916-0.041-0.078 0.048-0.143 0.111-0.193 0.184l-0.001 0.002c-0.056 0.105-0.116 0.234-0.167 0.366l-0.009 0.025c0.169 0.018 0.396 0.117 0.491 0.041 0.264-0.204 0.454-0.387 0.699 0.022 0.033 0.058 0.345 0.055 0.406-0.022 0.303-0.366 0.549-0.267 0.831 0 0.066 0.066 0.3 0.088 0.336 0.037 0.392-0.501 0.648-0.223 0.823 0.157 0.050 0.105 0.079 0.228 0.079 0.357 0 0.338-0.2 0.63-0.488 0.764l-0.005 0.002c-0.457 0.187-0.864 0.303-0.336 0.878 0.128 0.138 0.044 0.471 0.055 0.713-0.005 0.095-0.009 0.205-0.009 0.317 0 0.336 0.028 0.666 0.084 0.987l-0.005-0.035c0.077 0.293 0.179 0.566-0.124 0.691-0.115 0.050-0.249 0.080-0.39 0.080s-0.275-0.029-0.396-0.082l0.007 0.003c-0.188-0.106-0.411-0.494-0.348-0.643 0.311-0.732-0.095-1.588 0.447-2.282 0.175-0.227 0-0.457-0.341-0.45h-0.274l-2.361 0.066c-0.044 0.775-0.099 1.555-0.128 2.334-0.023 0.486 0 0.977 0 1.463 0.002 0.021 0.003 0.046 0.003 0.071 0 0.551-0.447 0.999-1 0.999-0.024 0-0.048-0.001-0.072-0.003h0.003c-0.542 0.070-1.124 0.055-1.703 0.055zM12.769 13.528c0.002 0 0.005 0 0.007 0 0.182 0 0.359-0.024 0.527-0.069l-0.014 0.003c0.27-0.136 0.527-0.296 0.79-0.449-0.307-0.157-0.608-0.322-0.92-0.468-0.039-0.008-0.086-0.012-0.134-0.012s-0.093 0.005-0.139 0.012l0.005-0.001c-0.348 0-0.644 0.139-0.575 0.497 0.055 0.208 0.337 0.373 0.45 0.486zM19.077 13.564c0.154-0.132 0.487-0.278 0.53-0.486 0.099-0.439-0.253-0.548-0.629-0.537-0.154 0-0.348-0.052-0.45 0.025-0.198 0.169-0.375 0.351-0.532 0.548l-0.006 0.008c0.171 0.095 0.336 0.198 0.513 0.278 0.149 0.055 0.342 0.111 0.538 0.157l0.037 0.007z"></path>
<path d="M17.276 29.203c0.018-0.246 0.027-0.532 0.027-0.822s-0.009-0.575-0.030-0.859l0.002 0.039c-0.091-0.651 0.326-0.808 0.765-0.867 2.984-0.399 5.184-2.136 6.871-4.389 1.202-1.595 1.924-3.609 1.926-5.793 0.005-0.136 0.009-0.295 0.009-0.454 0-1.613-0.35-3.145-0.978-4.523l0.028 0.069c-0.738-1.605-1.81-2.944-3.132-3.977l-0.023-0.018c-0.517-0.452-1.094-0.863-1.71-1.213l-0.051-0.027c-0.848-0.387-1.879-0.761-2.941-1.059l-0.16-0.039c-0.388-0.117-0.593-0.22-0.589-0.636 0-1.28 0-2.561 0-3.84 0-0.091 0.088-0.179 0.136-0.27 0.072 0.079 0.137 0.168 0.193 0.262l0.004 0.008c0.287 0.533 0.576 1.179 0.824 1.845l0.037 0.112c0.114 0.381 0.442 0.66 0.842 0.702h0.004c1.753 0.454 3.284 1.221 4.605 2.245l-0.028-0.021c0.267 0.212 0.609 0.341 0.981 0.341 0.127 0 0.251-0.015 0.37-0.044l-0.011 0.002c0.205-0.037 0.406-0.103 0.612-0.143 0.289-0.051 0.578-0.088 0.868-0.132-0.025 0.348-0.025 0.698-0.084 1.039-0.041 0.23-0.171 0.446-0.235 0.673-0.037 0.112-0.058 0.241-0.058 0.375 0 0.293 0.102 0.564 0.273 0.776l-0.002-0.003c1.099 1.58 1.962 3.292 2.153 5.255 0.055 0.596 0.227 1.039 0.945 1.211 0.916 0.279 1.686 0.582 2.427 0.937l-0.103-0.045c0.066 0.029 0.106 0.113 0.157 0.175-0.073 0.037-0.146 0.084-0.223 0.113-0.783 0.293-1.556 0.614-2.354 0.867-0.473 0.121-0.82 0.538-0.831 1.038v0.001c-0.103 1.346-0.644 2.561-1.149 3.76-0.269 0.673-0.64 1.251-1.102 1.744l0.003-0.003c-0.644 0.651-0.384 1.298-0.241 1.978 0.025 0.113 0.124 0.212 0.146 0.325 0.041 0.202 0.124 0.542 0.055 0.581-0.139 0.077-0.305 0.122-0.481 0.122-0.070 0-0.137-0.007-0.202-0.020l0.007 0.001c-0.383-0.105-0.717-0.239-1.029-0.408l0.025 0.012c-0.116-0.071-0.256-0.113-0.405-0.113-0.231 0-0.438 0.1-0.582 0.259l-0.001 0.001c-0.662 0.613-1.443 1.108-2.304 1.445l-0.050 0.018c-0.684 0.267-1.369 0.556-2.079 0.757-0.504 0.095-0.907 0.452-1.063 0.923l-0.003 0.010c-0.202 0.593-0.487 1.16-0.732 1.734-0.048 0.071-0.105 0.131-0.17 0.181l-0.002 0.001c-0.048-0.088-0.132-0.175-0.132-0.268-0.029-0.676-0.022-1.316-0.022-1.957z"></path>
<path d="M14.659 2.772c0 0.607 0 1.218 0 1.829 0.004 0.025 0.007 0.054 0.007 0.084 0 0.286-0.214 0.521-0.491 0.555h-0.003c-0.732 0.183-1.425 0.432-2.134 0.661-2.032 0.666-3.503 2.114-4.858 3.657-0.53 0.607-0.787 1.463-1.175 2.195-0.919 1.752-1.014 3.657-0.831 5.541 0.154 1.12 0.445 2.133 0.86 3.081l-0.029-0.075c0.996 2.56 2.877 4.352 5.275 5.566 0.729 0.433 1.589 0.729 2.509 0.831l0.029 0.003c0.773 0.037 0.839 0.172 0.839 0.958 0 1.189 0 2.377 0 3.566 0 0.095-0.088 0.19-0.132 0.285-0.061-0.078-0.12-0.165-0.171-0.257l-0.006-0.011c-0.268-0.604-0.571-1.193-0.776-1.829-0.146-0.452-0.531-0.786-1.004-0.855l-0.007-0.001c-1.767-0.475-3.303-1.282-4.612-2.357l0.021 0.016c-0.152-0.166-0.369-0.27-0.611-0.27-0.135 0-0.263 0.033-0.375 0.090l0.005-0.002c-0.355 0.129-0.769 0.225-1.198 0.272l-0.024 0.002c-0.183 0.037-0.366 0.091-0.534 0.142-0.008-0.094-0.013-0.203-0.013-0.315s0.005-0.22 0.014-0.328l-0.001 0.014c0.050-0.294 0.124-0.554 0.222-0.803l-0.010 0.027c0.075-0.192 0.12-0.414 0.12-0.645 0-0.43-0.152-0.825-0.405-1.136l0.003 0.003c-1.052-1.47-1.765-3.249-1.99-5.178l-0.005-0.052c-0.070-0.593-0.538-0.849-1.003-1.057-0.648-0.296-1.318-0.541-1.977-0.812-0.077-0.033-0.128-0.117-0.194-0.175 0.053-0.042 0.113-0.079 0.176-0.111l0.006-0.003c0.685-0.303 1.359-0.64 2.062-0.892 0.527-0.143 0.913-0.6 0.951-1.152v-0.004c0.205-1.726 0.818-3.277 1.743-4.597l-0.021 0.032c0.267-0.342 0.534-0.728 0.779-1.13l0.031-0.054c0.073-0.134 0.116-0.295 0.116-0.465 0-0.064-0.006-0.127-0.018-0.188l0.001 0.006c-0.122-0.552-0.303-1.098-0.454-1.635-0.091-0.34-0.139-0.651 0.392-0.402 0.19 0.088 0.402 0.124 0.596 0.205 0.258 0.127 0.562 0.201 0.882 0.201 0.503 0 0.963-0.183 1.318-0.485l-0.003 0.002c1.197-0.886 2.62-1.542 4.165-1.871l0.071-0.013c0.36-0.059 0.644-0.323 0.731-0.666l0.001-0.006c0.231-0.706 0.557-1.382 0.85-2.070 0.045-0.074 0.098-0.137 0.157-0.194 0.051 0.084 0.139 0.168 0.139 0.256 0.004 0.669-0.004 1.339-0.004 2.011z"></path>
</svg>
