<!-- Generated by IcoMoon.io -->
<svg version="1.1" xmlns="http://www.w3.org/2000/svg" width="32" height="32" viewBox="0 0 32 32">
<title>bladeborn-hrothgorn</title>
<path d="M32.128 15.905c-0.050 0.035-0.11 0.071-0.171 0.102l-0.009 0.004c-0.629 0.266-1.317 0.387-1.862 0.852-0.099 0.080-0.297 0.033-0.435 0.080-0.53 0.111-0.932 0.55-0.984 1.092v0.005c-0.29 2.146-1.142 4.052-2.402 5.618l0.018-0.022c-0.157 0.152-0.255 0.364-0.255 0.6 0 0.102 0.018 0.2 0.052 0.291l-0.002-0.006c0.15 0.468 0.091 1.005 0.399 1.462 0.043 0.066 0.022 0.175 0.025 0.266 0 0.282-0.084 0.365-0.366 0.282-0.459-0.084-0.864-0.2-1.251-0.349l0.048 0.016c-0.16-0.084-0.35-0.134-0.552-0.134-0.364 0-0.69 0.162-0.911 0.418l-0.001 0.002c-0.351 0.356-0.777 0.637-1.253 0.818l-0.024 0.008c-0.472 0.179-0.819 0.548-1.372 0.628-0.729 0.167-1.372 0.407-1.97 0.72l0.045-0.021c-0.183 0.086-0.328 0.229-0.415 0.404l-0.002 0.005c-0.326 0.701-0.615 1.422-0.933 2.127-0.033 0.073-0.175 0.095-0.266 0.142-0.029-0.080-0.106-0.179-0.084-0.233 0.256-0.592 0.105-1.151 0-1.755-0.042-0.401-0.065-0.867-0.065-1.339 0-0.33 0.011-0.658 0.034-0.982l-0.003 0.044c0-0.384 0.366-0.387 0.586-0.457 0.564-0.183 1.175-0.237 1.723-0.453 1.186-0.454 2.21-1.037 3.13-1.746l-0.028 0.021c1.087-0.89 2.004-1.939 2.728-3.118l0.031-0.053c0.146-0.228 0.277-0.489 0.378-0.764l0.009-0.028c0.278-0.782 0.549-1.571 0.794-2.365 0.081-0.262 0.131-0.564 0.136-0.879v-0.003c0.022-0.669 0-1.338 0-2.006 0-0.001 0-0.003 0-0.005 0-0.814-0.157-1.593-0.443-2.307l0.014 0.042c-0.186-0.497-0.223-1.037-0.487-1.524-0.68-1.367-1.536-2.535-2.559-3.536l-0.002-0.002c-0.763-0.718-1.64-1.328-2.597-1.8l-0.062-0.028c-0.813-0.418-1.762-0.7-2.766-0.787l-0.029-0.002c-0.27 0-0.366-0.124-0.392-0.365s-0.157-0.398-0.157-0.6c0-1.155 0-2.313 0-3.468 0.029-0.116 0.075-0.219 0.134-0.311l-0.002 0.004c0.103 0.084 0.249 0.146 0.297 0.252 0.274 0.625 0.541 1.257 0.782 1.897 0.155 0.395 0.511 0.68 0.939 0.73l0.006 0.001c1.621 0.378 3.038 1.089 4.234 2.062l-0.020-0.014c0.603 0.479 1.218 0.709 1.979 0.296 0.318-0.127 0.689-0.223 1.075-0.272l0.022-0.002c0.27 0.365-0.033 0.687-0.095 1.023-0.068 0.289-0.156 0.542-0.266 0.782l0.011-0.025c-0.068 0.129-0.108 0.281-0.108 0.443 0 0.252 0.096 0.481 0.254 0.654l-0.001-0.001c0.681 0.843 1.228 1.827 1.591 2.898l0.019 0.067c0.327 0.769 0.583 1.665 0.723 2.598l0.008 0.063c0.037 0.407 0.314 0.741 0.688 0.86l0.007 0.002c0.838 0.311 1.661 0.666 2.487 1.002 0.018 0.008 0.088 0.052 0.194 0.084z"></path>
<path d="M14.436 31.496c-0.12-0.058-0.198-0.077-0.201-0.099-0.066-0.874-0.702-1.513-0.943-2.313 0-0.025 0-0.070 0-0.088-0.114-0.124-0.209-0.311-0.366-0.365-0.754-0.266-1.54-0.449-2.272-0.767-0.776-0.32-1.444-0.695-2.059-1.138l0.029 0.020c-1.295-0.961-1.269-0.99-2.806-0.519-0.216 0.066-0.541 0.194-0.652 0.099-0.216-0.19-0.095-0.486 0.029-0.732 0.070-0.157 0-0.384 0.088-0.526 0.45-0.771 0.146-1.462-0.293-2.050-0.697-1.012-1.261-2.184-1.628-3.44l-0.022-0.086c-0.128-0.403-0.226-0.877-0.275-1.365l-0.003-0.031c-0.084-0.676-0.282-0.994-0.933-1.133s-1.225-0.559-1.829-0.855c-0.106-0.055-0.201-0.124-0.3-0.183 0.093-0.113 0.201-0.209 0.32-0.289l0.006-0.003c0.365-0.179 0.768-0.322 1.149-0.497 0.509-0.219 0.926-0.431 1.33-0.664l-0.059 0.032c0.161-0.115 0.271-0.291 0.3-0.493v-0.004c0.182-1.25 0.5-2.375 0.948-3.435l-0.034 0.091c0.402-1.023 1.069-1.86 1.65-2.756 0.086-0.112 0.139-0.256 0.139-0.411 0-0.117-0.030-0.228-0.081-0.324l0.002 0.004c-0.162-0.433-0.304-0.95-0.401-1.484l-0.009-0.058c-0.070-0.325 0.048-0.398 0.402-0.307 0.26 0.062 0.516 0.136 0.776 0.204 1.098 0.299 1.463 0.227 2.371-0.475 0.879-0.694 1.93-1.209 3.079-1.473l0.053-0.011c0.135-0.042 0.245-0.084 0.352-0.132l-0.019 0.008c0.966-0.307 0.962-0.307 1.325-1.188 0.168-0.413 0.347-0.823 0.52-1.235 0.070-0.161 0.136-0.322 0.201-0.482 0.037 0.164 0.066 0.332 0.113 0.493 0.231 0.796-0.12 1.59 0 2.383 0.055 0.384 0.084 0.771 0.136 1.155 0.005 0.028 0.007 0.060 0.007 0.093 0 0.298-0.216 0.547-0.501 0.598l-0.004 0.001c-0.443 0.066-0.885 0.121-1.329 0.19-0.126 0.013-0.241 0.048-0.346 0.102l0.006-0.003c-0.871 0.453-1.775 0.852-2.598 1.381-1.343 0.886-2.433 2.050-3.209 3.416l-0.026 0.049c-0.281 0.486-0.578 0.965-0.827 1.462-0.109 0.243-0.196 0.528-0.252 0.823l-0.004 0.024c-0.029 0.118 0.025 0.26-0.022 0.365-0.625 1.392-0.366 2.87-0.307 4.298 0.041 0.942 0.289 1.816 0.7 2.591l-0.016-0.033c0.446 0.88 0.776 1.827 1.463 2.559 0.64 0.741 1.298 1.415 1.994 2.048l0.018 0.016c0.568 0.475 1.209 0.895 1.897 1.235l0.056 0.025c0.498 0.219 1.092 0.416 1.705 0.56l0.072 0.015c0.281 0.084 0.578 0.124 0.871 0.194 0.659 0.153 0.848 0.555 0.691 1.049-0.26 0.808-0.12 1.619-0.146 2.431 0 0.285 0.143 0.577 0.157 0.87-0.036 0.212-0.1 0.403-0.188 0.578l0.005-0.011z"></path>
<path d="M15.684 15.177c0.303 0.103 0.559 0.169 0.805 0.27 0.468 0.194 0.933 0.402 1.391 0.618s1.013 0.49 1.507 0.763c0.592 0.329 1.17 0.687 1.748 1.041 0.172 0.109 0.264 0.252 0.052 0.42-0.048 0.040-0.088 0.084-0.132 0.128-0.644 0.676-0.636 0.665-1.426 0.055-0.243-0.184-0.518-0.355-0.807-0.502l-0.030-0.013c-0.925-0.475-1.862-0.932-2.791-1.404-0.084-0.069-0.194-0.111-0.313-0.111-0.094 0-0.182 0.026-0.257 0.072l0.002-0.001c-1.032 0.577-2.074 1.136-3.135 1.664-0.326 0.164-0.252 0.296-0.062 0.449 0.493 0.387 1.003 0.753 1.504 1.13 0.264 0.198 0.52 0.402 0.776 0.606 0.516 0.421 0.761 0.446 1.292 0.117 0.212-0.15 0.461-0.308 0.718-0.452l0.043-0.022c0.279-0.136 0.183-0.285 0.033-0.402-0.212-0.161-0.45-0.319-0.699-0.461l-0.033-0.018c-0.234-0.136-0.487-0.234-0.732-0.365-0.633-0.365-0.571-0.365-0.044-0.87s0.944-0.183 1.306 0.018c0.805 0.45 1.544 1.016 2.312 1.532 0.073 0.051 0.139 0.121 0.216 0.165 0.139 0.084 0.366 0.128 0.41 0.245 0.117 0.274-0.117 0.454-0.304 0.596-0.922 0.698-1.884 1.342-2.766 2.083-0.134 0.143-0.324 0.232-0.534 0.232-0.202 0-0.384-0.081-0.516-0.213-1.193-0.845-2.363-1.721-3.541-2.587-0.232-0.218-0.494-0.409-0.778-0.564l-0.020-0.010c-0.596-0.212-0.493-0.668-0.508-1.118s0.289-0.68 0.662-0.862c1.255-0.621 2.503-1.264 3.757-1.886 0.23-0.105 0.527-0.221 0.831-0.322l0.066-0.018z"></path>
<path d="M10.507 14.359c0.073-0.29 0.148-0.526 0.236-0.757l-0.015 0.048c0.243-0.578 0.495-1.15 0.753-1.718 0.073-0.142 0.168-0.263 0.28-0.364l0.001-0.001c0.241-0.223 0.498-0.435 0.732-0.654 0.046 0.286 0.077 0.621 0.084 0.961v0.008c-0.001 0.036-0.002 0.077-0.002 0.12 0 0.681 0.144 1.328 0.405 1.913l-0.012-0.030c0.056 0.139 0.089 0.301 0.089 0.47 0 0.262-0.079 0.505-0.213 0.708l0.003-0.005c-0.196 0.262-0.377 0.557-0.53 0.87l-0.014 0.033c-0.146 0.412-0.41 0.384-0.842 0.161-0.702-0.35-0.845-0.979-0.955-1.761z"></path>
<path d="M15.885 10.097c-0.275 0.497-0.15 1.097-0.18 1.645-0.011 0.101-0.017 0.217-0.017 0.334 0 0.48 0.104 0.938 0.289 1.35l-0.009-0.020c0.071 0.098 0.114 0.22 0.114 0.352 0 0.242-0.142 0.452-0.347 0.548l-0.004 0.002c-0.114 0.092-0.217 0.184-0.314 0.281-0.201 0.153-0.527 0.46-0.604 0.41-0.424-0.302-0.796-0.626-1.134-0.98l-0.003-0.003c-0.051-0.051 0-0.23 0.037-0.34 0.223-0.796 0.399-1.612 0.695-2.379 0.285-0.623 0.593-1.156 0.944-1.656l-0.021 0.033c0.058-0.095 0.275-0.198 0.337-0.157s0.157 0.23 0.216 0.365c0.007 0.036 0.011 0.077 0.011 0.119 0 0.034-0.003 0.067-0.007 0.1v-0.004z"></path>
<path d="M18.098 14.089c-0.084 0.365-0.146 0.731-0.26 1.096-0.031 0.146-0.159 0.254-0.311 0.254-0.107 0-0.201-0.052-0.258-0.132l-0.001-0.001c-0.468-0.563-0.823-1.155-0.578-1.952 0.096-0.38 0.186-0.856 0.247-1.341l0.007-0.062c0.041-0.293 0.106-0.555 0.195-0.807l-0.009 0.028c0.091-0.23 0.278-0.632 0.366-0.618 0.392 0.058 0.209 0.435 0.201 0.662 0 0.020 0 0.043 0 0.068 0 0.796 0.122 1.564 0.348 2.286l-0.014-0.054c0.036 0.168 0.060 0.365 0.069 0.566z"></path>
<path d="M20.103 15.013c-0.051 0.186-0.121 0.505-0.216 0.815-0.070 0.216-0.19 0.19-0.366 0.022-0.666-0.592-0.757-1.334-0.772-2.193 0.025-0.815 0.266-1.568 0.669-2.212l-0.011 0.018c0.037-0.073 0.136-0.109 0.209-0.164 0.040 0.099 0.088 0.19 0.121 0.289 0.004 0.027 0.006 0.059 0.006 0.091s-0.002 0.064-0.006 0.095v-0.004c-0.012 0.153-0.019 0.332-0.019 0.512 0 0.796 0.134 1.562 0.381 2.273l-0.014-0.048c0.016 0.101 0.024 0.218 0.024 0.337 0 0.059-0.002 0.117-0.007 0.175v-0.008z"></path>
</svg>
