<!-- Generated by IcoMoon.io -->
<svg version="1.1" xmlns="http://www.w3.org/2000/svg" width="512" height="512" viewBox="0 0 512 512">
<title></title>
<g id="icomoon-ignore">
</g>
<path d="M292.557 148.43c-0.803 0.153-3.060 1.069-5.019 2.034-13.494 6.655-47.327 7.345-59.149 1.208-8.505-4.416-21.273-2.896-35.591 4.234-13.51 6.73-19.881 14.25-17.79 20.999 1.417 4.573 1.196 7.912-0.831 12.614-0.58 1.345-1.808 4.178-2.728 6.29s-2.031 5.101-2.47 6.64c-2.314 8.103-12.208 18.347-23.809 24.654-6.395 3.476-7.858 6.288-9.686 18.629-1.451 9.803-2.612 13.377-5.767 17.784-3.585 5.007-1.698 11.976 3.649 13.474 6.541 1.83 30.75-13.548 32.541-20.673 1.006-3.995 2.163-4.512 11.022-4.905 8.832-0.393 8.768-0.231 1.873-4.869-10.48-7.052-10.702-7.579-6.715-15.837 6.962-14.421 8.171-15.095 19.201-10.736 9.173 3.625 9.121 3.814 2.231-7.987l-4.197-7.19 4.573-4.482c9.009-8.828 10.758-8.984 18.987-1.707 9.065 8.019 10.916 7.242 6.441-2.711-4.68-10.409-1.364-18.28 8.208-19.475 5.841-0.73 10.23 2.44 14.666 10.595l2.589 4.762 0.706-9.458c0.387-5.203 0.715-9.713 0.728-10.024 0.027-0.633 10.199-0.807 15.837-0.268 4.574 0.439 5.247 1.572 5.865 9.876 0.605 8.158 2.748 9.644 5.050 3.504 3.788-10.1 10.964-10.91 20.38-2.302 4.445 4.061 4.7 5.729 1.829 11.944-5.014 10.854-4.303 11.762 3.693 4.731 5.359-4.709 7.281-5.58 11.738-5.315 10.394 0.614 14.75 11.441 8.353 20.758-5.763 8.394-5.453 8.995 2.558 4.953 7.131-3.597 9.187-3.841 12.436-1.489 3.745 2.711 8.592 12.927 8.614 18.141 0.021 5.43-2.382 8.019-10.935 11.79-3.154 1.391-2.504 1.752 4.969 2.765 10.016 1.358 11.204 2.071 12.009 7.201 0.865 5.515 4.368 8.648 15.196 13.596 18.921 8.642 24.289 3.954 17.484-15.269-2.404-6.791-3.401-10.968-4.043-16.924-0.83-7.737-2.467-9.686-12.873-15.352-13.116-7.142-25.901-29.776-25.858-45.781 0.010-3.818-0.087-4.653-0.772-6.592-4.882-13.816-29.541-26.816-45.199-23.831l0.005 0.002zM339.197 277.361c-4.971 6.66-6.017 7.113-11.063 4.789-5.485-2.527-5.873-0.69-1.322 6.261 6.395 9.769 0.291 14.891-11.099 9.311-7.108-3.483-7.486-2.984-4.142 5.488 3.313 8.39-0.035 16.176-6.966 16.206-3.933 0.017-6.284-2.817-11.077-13.341l-2.753-6.045-0.195 6.377c-0.367 11.935-3.476 18.2-9.033 18.2-4.861 0-7.112-3.774-9.939-16.652l-0.277-1.269-0.936 2.726c-2.342 6.82-4.448 8.967-9.848 10.028-7.302 1.438-12.938-1.31-14.284-6.959-1.484-6.233-4.302-5.769-4.909 0.813-0.673 7.297-2.589 10.024-6.763 9.622-5.239-0.505-9.138-5.815-11.834-16.124-0.816-3.117-1.573-5.96-1.68-6.315-0.119-0.391-0.697 1.707-1.46 5.293-3.024 14.243-6.667 16.45-14.767 8.954-4.534-4.199-4.887-5.588-2.968-11.697 2.131-6.784 1.389-7.553-4.625-4.797-4.966 2.275-6.423 2.228-9.225-0.303-2.909-2.627-2.956-4.995-0.25-12.23 2.104-5.625 2.048-5.933-0.974-5.279-4.558 0.986-6.552 0.471-9.376-2.423-3.677-3.762-8.044-3.451-17.938 1.278-18.562 8.877-21.292 29.018-4.171 30.781 10.431 1.073 30.8 20.891 41.879 40.748 6.52 11.684 13.701 15.228 20.395 10.064 3.058-2.358 6.295-3.368 12.393-3.868 4.758-0.389 9.22-1.533 13.851-3.553 7.284-3.178 10.125-3.346 19.892-1.188 20.014 4.423 29.781 7.338 32.637 9.743 6.338 5.334 14.567-0.188 21.556-14.466 6.536-13.351 28.721-35.040 38.809-37.947 6.93-1.996 15.113-15.208 12.291-19.839-0.683-1.121-3.151-3.084-6.831-5.433-2.31-1.476-19.745-10.253-20.303-10.221-0.146 0.007-1.357 1.478-2.693 3.271l-0.002-0.002z"></path>
<path d="M426.768 94.88c-1.68 8.288-3.872 15.488-6.624 22.4l0.304-0.864c-1.232 2.080-1.968 4.592-1.968 7.264 0 4.24 1.84 8.064 4.768 10.688l0.016 0.016c10.064 12.368 18.208 26.768 23.712 42.448l0.32 1.008c5.568 13.12 9.792 28.368 11.92 44.272l0.096 0.912c0.128 5.584 3.616 10.304 8.512 12.256l0.096 0.032c14.768 5.2 27.712 14.864 43.536 17.568 0.896 0.384 1.68 0.896 2.336 1.52-0.624 0.624-1.376 1.168-2.176 1.616l-0.048 0.032c-10.656 3.92-21.968 6.432-30.88 14.224-16.64 0-21.92 10.080-22.624 25.232-1.056 8.688-3.104 16.608-6.080 24.064l0.224-0.64c-2.4 8.688-5.312 16.16-8.88 23.28l0.336-0.736c-5.568 12.048-12.032 22.448-19.632 31.92l0.224-0.288c-10.32 11.696-8.912 22.656-4.848 35.12 1.28 4.080 2.944 8.016 3.984 12.176s-1.344 5.856-4.752 4.752c-7.264-2.048-14.544-4.16-21.68-6.624-2.016-0.944-4.4-1.488-6.88-1.488-4.080 0-7.824 1.472-10.72 3.904l0.032-0.016c-10.48 8.56-22.448 15.952-35.328 21.664l-1.008 0.4c-6.96 2.864-13.824 5.856-20.864 8.544s-13.712 4.048-20.096 7.024c-3.472 1.344-6.272 3.808-8 6.944l-0.048 0.080c-5.856 10.768-9.136 22.544-14.416 33.488-0.672 1.104-1.792 1.856-3.088 2.048h-0.016c-0.992 0-1.936-1.52-2.752-2.512-0.096-0.208-0.16-0.448-0.16-0.704s0.064-0.496 0.16-0.72v0.016c4.384-19.968-2.048-39.856-0.464-59.936-0.032-0.256-0.032-0.544-0.032-0.848 0-4.944 3.824-9.008 8.672-9.392h0.032c12.832-3.28 25.488-7.088 38.192-10.656 1.52-0.512 2.832-1.088 4.064-1.776l-0.144 0.064c25.552-12.704 47.040-29.952 64.192-50.88l0.256-0.336c5.856-7.44 10.784-15.168 15.936-22.944 5.456-8.608 9.824-18.576 12.512-29.2l0.16-0.72c0.176-1.52 0.544-2.896 1.088-4.192l-0.032 0.096c8.368-12.88 8.256-27.28 7.792-41.808v-7.312c0-35.952 0.656-36.176-12.064-68.496-5.936-14.592-13.232-27.2-21.968-38.624l0.304 0.4c-10.336-14.144-22.464-26.192-36.256-36.080l-0.48-0.336c-8.736-5.856-17.568-11.696-26.768-17.552-1.344-0.64-2.912-1.008-4.592-1.008-0.448 0-0.88 0.032-1.312 0.080h0.048c-3.952-0.32-7.568-1.552-10.72-3.456l0.112 0.064c-7.648-3.28-16.672-6.128-26.032-8.048l-0.928-0.16c-8.544-1.936-11.312-3.984-11.712-12.656v-59.968c0-1.12 1.056-2.176 1.712-3.264 0.928 0.368 1.712 0.88 2.4 1.52 1.824 2.416 3.52 5.168 4.976 8.064l0.144 0.304c3.392 7.776 6.848 15.632 9.664 23.712 1.888 6.064 6.944 10.608 13.2 11.68l0.112 0.016c13.952 2.832 26.32 7.232 37.808 13.088l-0.832-0.384c14.944 6.864 27.792 14.688 39.632 23.776l-0.48-0.352c3.68 3.040 8.448 4.864 13.632 4.864 2.768 0 5.424-0.528 7.84-1.472l-0.144 0.048c7.712-1.664 14.128-3.472 20.384-5.648l-1.232 0.368c4.624-1.712 4.336 0.704 4.4 7.024l-0.080 0.016z"></path>
<path d="M234.384 29.552c-0.928 4.912-2.4 11.408-3.344 18.032-0.064 0.736-0.096 1.616-0.096 2.496 0 2.112 0.208 4.176 0.608 6.176l-0.032-0.208c0.8 3.44 1.488 7.744 1.952 12.144l0.048 0.512c0.304 13.12 0 12.352-12.832 15.28-28.656 6.496-55.776 16.384-77.008 38.16-4.368 4.048-9.12 7.888-14.096 11.408l-0.432 0.288c-12.48 9.824-18.992 24.112-26.944 37.104-7.088 11.712-14.768 23.424-15.008 37.888-10.32 22.176-5.872 45.84-5.216 68.672 1.584 17.952 6.512 34.432 14.176 49.28l-0.336-0.752c10.624 23.52 25.552 43.376 43.92 59.36l0.192 0.176c10.928 9.952 23.28 18.624 36.656 25.6l0.96 0.448c3.456 1.52 7.888 3.136 12.4 4.512l0.896 0.24c10.656 4.496 23.344 8.528 36.464 11.424l1.504 0.288c3.808 0.704 5.040 2.512 4.736 5.856-1.28 14.336 2.176 28.8-2.176 43.2-1.584 5.376 1.456 12.064 2.112 18.144 0.144 1.088 0.224 2.352 0.224 3.632s-0.080 2.544-0.224 3.776l0.016-0.16c-0.352 0.864-1.104 1.52-2.032 1.68h-0.016c-1.232 0-3.456-0.88-3.52-1.52-1.168-14.688-10.544-26.224-15.408-39.456-0.752-1.984-3.104-4.752-4.848-4.8-14.176-0.88-25.072-11.696-39.312-12.224-14.112-9.664-31.056-14.864-43.072-27.68-2.176-2.656-5.456-4.352-9.12-4.352-1.408 0-2.736 0.256-3.968 0.688l0.080-0.032c-8.672 2.4-17.28 4.8-25.888 7.376-4.096 1.232-5.344-0.88-5.152-4.272 0.256-2.592 0.72-4.944 1.408-7.232l-0.064 0.256c2.176-8.192 4.624-16.336 6.512-24.592-0.128-2.24-0.976-4.272-2.368-5.856l0.016 0.016c-13.824-19.296-24.944-41.696-32.16-65.776l-0.416-1.6c-2.064-6.56-3.856-14.464-5.008-22.592l-0.096-0.832c-1.28-10.544-4.736-16.384-14.88-18.032-12.432-1.936-21.92-9.024-32.16-14.992-2.704-1.52-1.888-1.808 0-3.52 9.424-8.016 21.328-10.352 32.464-14.224 8.4-2.144 14.576-9.584 14.704-18.48v-0.016c1.504-14.224 4.816-27.28 9.728-39.52l-0.352 0.992c7.44-20.32 18.032-37.824 31.328-52.848l-0.16 0.176c1.952-1.776 3.184-4.32 3.184-7.168 0-1.664-0.416-3.232-1.168-4.592l0.032 0.048c-2.752-5.584-4.64-12.064-5.312-18.912l-0.016-0.24c-2.336-15.152-2.992-15.088 12.368-10.304 7.216 2.288 14.704 7.376 21.44 6.432s13.056-7.44 19.104-12.064c13.824-10.592 30.24-16.112 45.472-23.888 5.168-1.84 11.232-3.264 17.504-4.064l0.432-0.048c5.152-0.784 9.264-4.448 10.704-9.264l0.032-0.096c4.096-11.696 11.712-21.904 14-34.304 0-0.768 0.992-1.456 1.456-2.224 1.168 0.88 3.168 1.584 3.328 2.576 0.768 5.040 1.232 10.768 2.112 18.32l-0.032 0.080z"></path>
</svg>
