<!-- Generated by IcoMoon.io -->
<svg version="1.1" xmlns="http://www.w3.org/2000/svg" width="512" height="512" viewBox="0 0 512 512">
<title>monsters-of-order</title>
<g id="icomoon-ignore">
</g>
<path d="M232.864 21.632c-1.344 4.464-2.288 9.632-2.608 15.008l-0.016 0.176c0.32 11.376 1.216 22.208 2.672 32.864l-0.176-1.552c1.232 9.968-1.856 14.56-11.6 16.592-46.208 8.928-84.992 35.408-109.856 72.080l-0.384 0.608c-16.384 23.312-26.944 51.808-28.976 82.624l-0.032 0.496c-0.4 4.352-0.64 9.424-0.64 14.544 0 27.2 6.464 52.896 17.952 75.648l-0.432-0.96c20.608 43.504 58.176 76.176 103.968 89.792l1.184 0.32c5.984 1.744 13.472 3.376 21.12 4.56l1.056 0.144c4.016 0.256 7.168 3.568 7.168 7.632 0 0.544-0.064 1.072-0.16 1.568l0.016-0.048c-0.768 10.96-2.096 21.856-2.208 32.816 0 8 1.808 16 2.096 24.048-0.224 4.88-0.864 9.504-1.888 13.968l0.112-0.512c-1.968-3.936-4.176-7.824-5.808-11.6-4-9.632-7.136-19.712-11.952-28.992-2.608-4.272-6.656-7.456-11.456-8.896l-0.144-0.032c-29.648-7.264-55.12-22.56-80.032-39.376-1.968-1.456-4.432-2.336-7.12-2.336-0.24 0-0.464 0-0.688 0.016h0.032c-6.496 1.168-12.704 3.472-19.152 4.928-4.4 0.992-8.944 1.232-13.408 1.808 0.56-4.768 1.28-8.928 2.192-12.992l-0.16 0.8c1.104-4.128 3.008-8 4.24-12.064 0.768-2.24 1.232-4.832 1.232-7.536 0-5.264-1.712-10.144-4.64-14.080l0.048 0.064c-13.328-19.632-24.064-42.352-31.040-66.672l-0.4-1.68c-2.048-5.696-3.424-12.288-3.888-19.136l-0.016-0.208c0-8.752-5.456-11.136-11.6-13.92-9.936-4.336-19.792-8.864-29.648-13.456-2.496-1.168-4.88-2.784-7.264-4.176 2.336-2.128 4.944-4.048 7.728-5.68l0.224-0.128c10.496-4.464 21.168-8.4 31.744-12.752 4.896-1.76 8.4-6.224 8.704-11.568v-0.032c5.792-32 15.136-63.008 36.784-88.176 10.384-12 4.64-23.6 2.672-35.184-2.832-16.688-3.6-16.592 11.6-12.688 2.336 0.576 4.4 1.744 6.672 2.432 2.848 1.12 6.16 1.744 9.616 1.744 6.848 0 13.12-2.528 17.92-6.704l-0.032 0.032c19.2-14.64 42.112-25.52 67.024-31.024l1.152-0.224c6.288-0.736 11.296-5.44 12.448-11.504l0.016-0.096c4.16-11.68 8.64-21.568 13.824-30.992l-0.544 1.072c1.088-2.112 2.144-3.872 3.296-5.568l-0.112 0.176c0.672 1.664 1.312 3.744 1.84 5.856l0.080 0.352c0.016 0.464 0.016 0.992 0.016 1.536 0 2.208-0.144 4.352-0.4 6.48l0.032-0.256z"></path>
<path d="M274.352 461.92c0-7.776 0-15.488 0-23.184 0-13.504 0-14.72 13.344-16.352 30.64-3.696 55.248-19.056 78.16-38.080 31.104-25.744 48.464-59.312 56.576-98.544 1.952-9.632 3.040-20.688 3.040-32.032 0-26.272-5.952-51.136-16.608-73.344l0.432 1.024c-13.072-27.568-32.352-50.368-56.096-67.232l-0.528-0.368c-19.6-14.656-43.312-24.912-69.12-28.88l-0.864-0.112c-5.040-0.768-8.24-2.56-8.304-7.888 0-20.752 0-41.504 0-62.272 0.256-1.2 0.72-2.272 1.344-3.216l-0.016 0.032c1.168 0.864 2.784 1.504 3.296 2.592 4.112 7.648 8.032 16.688 11.232 26.080l0.368 1.28c1.664 7.68 7.872 13.568 15.632 14.72l0.112 0.016c28.384 5.504 52.224 20.064 74.8 36.752 3.008 2.56 6.944 4.112 11.232 4.112 2.656 0 5.184-0.592 7.44-1.664l-0.112 0.048c4.304-1.712 9.712-3.424 15.264-4.832l0.976-0.224c8.304-2.208 10.096-0.336 7.776 8.064-1.312 4.272-2.672 7.808-4.24 11.232l0.24-0.576c-2.080 3.568-3.312 7.84-3.312 12.416 0 7.344 3.168 13.952 8.224 18.512l0.016 0.016c7.536 9.568 13.504 20.8 17.216 33.008l0.192 0.736c5.808 15.424 9.632 31.584 14.448 47.36 2.208 7.248 4.704 13.328 13.936 15.664 11.552 3.808 21.408 8.112 30.768 13.232l-0.944-0.48c3.2 1.744 5.92 3.488 8.48 5.408l-0.192-0.112c-2.56 1.216-5.104 2.496-7.712 3.6-9.456 4.224-18.864 8.624-28.48 12.464-8.56 2.816-14.88 10.144-16.176 19.12l-0.016 0.128c-5.456 28.112-13.872 55.6-32.032 78.032-11.6 14.384-10.576 27.888-5.808 43.136 0.352 1.632 0.752 3.008 1.248 4.352l-0.080-0.224c2.8 5.792 3.6 9.152-5.392 6.368-9.856-3.136-20.768-7.264-30.288-5.792s-17.984 9.568-26.464 15.488c-14.512 9.264-31.328 16.688-49.264 21.36l-1.232 0.256c-8.224 1.36-14.768 7.344-16.912 15.152l-0.032 0.144c-3.2 10.032-7.008 18.656-11.568 26.8l0.368-0.72c-0.688 1.44-2.672 2.32-4.064 3.472-0.256-1.216-0.416-2.672-0.512-4.144v-0.096c0.112-10.608 0.176-21.056 0.176-31.824z"></path>
<path d="M337.024 192.576c-2.368-7.536-5.104-15.024-7.072-22.72-0.048-0.624-0.080-1.328-0.080-2.048 0-2.256 0.288-4.448 0.816-6.544l-0.048 0.192c2.192 1.504 5.392 2.496 6.368 4.528 3.472 7.072 6.144 14.56 9.232 21.856 0.592 1.36 1.2 2.512 1.856 3.6l-0.080-0.128c1.328-1.264 3.888-2.56 3.824-3.824 0.016-0.4 0.016-0.88 0.016-1.376 0-4.432-0.608-8.736-1.712-12.816l0.080 0.336c-2.608-8.592-6.144-16.864-8.88-25.456-0.032-0.4-0.048-0.864-0.048-1.344 0-2.032 0.336-3.984 0.96-5.808l-0.032 0.128c2.224 0.736 4.144 1.744 5.856 3.056l-0.048-0.032c2.624 2.624 4.784 5.712 6.368 9.136l0.080 0.192c9.408 22.48 19.68 45.504 3.136 68.752-6.768 9.456-14.72 17.504-23.792 24.144l-0.288 0.192c-13.344 9.456-28.32 16.528-42.24 25.152-18.048 11.264-30.576 40.576-26.24 61.232 1.168 3.216 2.896 5.952 5.12 8.256 8.128 10.832 8.128 11.6-2.432 18.896-0.4 0-0.928 0.288-1.328 0.528-4.816 2.672-10.576 8.4-14.272 7.36-7.264-2.96-13.424-7.264-18.416-12.656l-0.032-0.032c-0.896-1.456-1.44-3.232-1.44-5.12 0-1.632 0.4-3.184 1.12-4.56l-0.032 0.048c10.336-9.104 6.144-20.864 5.808-31.248-1.136-8.352-4.144-15.84-8.576-22.256l0.112 0.176c-10.432-17.392-28.432-25.856-45.776-34.784-9.056-4.448-16.864-9.456-24.032-15.2l0.256 0.192c-21.872-18.784-26.112-43.072-18.688-69.568 3.456-9.968 7.376-18.496 12.016-26.56l-0.4 0.768c0.8-1.632 3.824-2.144 5.808-3.136 0 2.096 1.344 4.4 0.768 6.144-2.624 9.824-5.744 18.24-9.52 26.288l0.4-0.96c-1.2 2.576-1.888 5.584-1.888 8.768 0 3.808 1.008 7.376 2.768 10.48l-0.064-0.112c0.528 1.392 2.32 2.32 3.6 3.424 0.944-1.28 1.808-2.768 2.544-4.32l0.064-0.16c2.96-8.352 5.808-16.864 8.832-25.152 0.704-1.728 3.664-2.592 5.808-3.888 0.080 1.072 0.112 2.304 0.112 3.568s-0.048 2.496-0.128 3.744l0.016-0.176c-1.744 11.6-7.312 21.92-3.536 34.784 4.176 14.144 16.080 19.36 26.24 26.784 1.328 0.992 5.808-0.528 7.536-2.192 7.744-8.144 15.28-16.608 22.64-25.392 1.904-1.808 3.104-4.352 3.104-7.168 0-3.808-2.16-7.104-5.312-8.736l-0.064-0.032c-8.976-7.168-14.864-17.84-15.616-29.92v-0.128c-0.096-0.768-0.144-1.68-0.144-2.592 0-1.92 0.224-3.792 0.64-5.584l-0.032 0.176c0.688-1.6 1.616-2.944 2.736-4.128 0.656 0.896 1.344 1.936 1.984 3.008l0.096 0.176c3.936 7.536 7.312 15.488 11.952 22.544 10.736 16.464 27.504 19.296 44.096 9.744 11.6-6.8 20.48-14.624 21.12-28.992 0-2.192 3.136-4.224 4.816-6.32 0.864 2.032 1.568 4.128 2.608 6.096 4.576 8.864 0 16.288-4 23.584-2.176 3.12-4.624 5.824-7.376 8.192l-0.064 0.048c-4.64 5.040-12.704 10.032-12.88 15.264s8.24 9.728 12.944 14.608c1.312 1.472 2.656 2.832 4.064 4.080l0.048 0.048c6.56 5.392 10.672 15.536 22.688 9.68s23.216-13.392 22.752-29.552c0-1.904 0-3.888 0-5.808zM283.696 237.392c-0.544-1.68-1.264-3.136-2.192-4.464l0.048 0.064c-7.488-6.784-14.848-13.792-22.88-19.952-2.032-1.552-4.608-2.48-7.408-2.48-3.584 0-6.816 1.536-9.056 3.984l-0.016 0.016c-6.672 5.808-12.944 12.464-19.616 18.432-4.88 4.336-4.064 7.936 0.528 11.6 6.208 5.168 12.176 10.56 18.576 15.488s12.832 7.424 19.776-0.576c5.456-5.344 11.28-10.416 17.36-15.152l0.448-0.336c1.68-1.92 3.168-4.080 4.32-6.432l0.080-0.176z"></path>
</svg>
