<!-- Generated by IcoMoon.io -->
<svg version="1.1" xmlns="http://www.w3.org/2000/svg" width="512" height="512" viewBox="0 0 512 512">
<title>monsters-of-order</title>
<g id="icomoon-ignore">
</g>
<path d="M349.344 256.256c-0.24 3.28-0.4 7.136-0.4 10.992s0.144 7.712 0.432 11.504l-0.032-0.512c0.144 1.28 0.24 2.784 0.24 4.304 0 10.72-4.112 20.512-10.848 27.84l0.032-0.032c-9.008 10.768-17.408 22.768-24.768 35.456l-0.656 1.248c-3.216 5.408-8.64 9.2-15.024 10.144l-0.112 0.016c-19.664 4-39.44 7.584-58.864 11.168-0.288 0.032-0.656 0.048-0.992 0.048-1.6 0-3.088-0.384-4.4-1.088l0.048 0.032c-5.088-2.432-9.232-4.72-13.248-7.216l0.592 0.336c-10.592-6.4-21.008-13.12-31.6-19.52-11.776-7.056-21.136-15.232-20.48-30.816-0.624-5.136-1.888-9.808-3.712-14.176l0.112 0.352c-0.288-1.12-0.464-3.12 0-3.408 0.736-0.48 1.632-0.752 2.592-0.752 0.528 0 1.024 0.080 1.504 0.224l-0.032-0.016c4.112 1.904 7.664 4.192 10.832 6.928l-0.064-0.048c5.264 4.976 12.384 8.032 20.192 8.032 1.376 0 2.736-0.096 4.080-0.272l-0.16 0.016c1.104-0.192 2.352-0.288 3.648-0.288s2.56 0.112 3.792 0.32l-0.144-0.016c11.776 2.528 18.672-4.832 23.952-13.056s7.888-16.464 14.592-23.168c0.72-0.752 1.168-1.776 1.168-2.88 0-2.32-1.872-4.176-4.176-4.176-0.096 0-0.208 0-0.288 0.016h0.016c-4.416-0.288-8.832 0-13.248 0-1.808-0.368-3.424-0.992-4.912-1.808l0.096 0.048c0.48-2.032 1.264-3.808 2.288-5.424l-0.048 0.080c6.432-6.992 12.896-14 19.728-20.656 2.88-2.752 2.656-4.224 0-6.816-7.936-7.344-15.424-15.28-23.552-22.4-2.368-2.496-5.712-4.064-9.424-4.064-1.792 0-3.52 0.368-5.088 1.040l0.080-0.032c-9.504 3.296-21.568 6.592-33.888 9.168l-2.080 0.368c-0.272 0.064-0.592 0.096-0.912 0.096-1.104 0-2.096-0.416-2.848-1.104-0.288-0.56-0.448-1.216-0.448-1.904s0.176-1.344 0.448-1.936l-0.016 0.032c8-14.288 16.24-28.4 24.192-42.688 1.776-3.056 3.12-5.872 7.408-5.408 12.896 1.408 24.368-4.944 36.72-6.688 15.952-1.904 30.24-4.832 44.080-8.816l-1.936 0.48c11.776-3.712 16.48-0.944 22.080 10 8.16 17.376 18.32 32.32 30.48 45.392l-0.112-0.112c13.12 12.992 13.424 27.056 13.056 42.688-0.128 4.224 0 8.656 0 12.992zM298.608 219.68c-1.52-0.144-3.312-0.208-5.088-0.208s-3.568 0.080-5.328 0.224l0.224-0.016c-8.432 1.472-19.248 2-22.544 9.776-2.656 5.872 5.36 13.168 9.184 19.568 0.624 0.768 1.264 1.472 1.984 2.112l0.016 0.016c1.824 2.352 3.536 2.416 5.888 0 8.592-9.776 17.296-19.344 25.824-29.12 0-0.288-0.72-2.352-1.168-2.416-3.184-0.064-6.128 0.064-9.008 0.064zM301.536 302.016l-1.184-7.936c-2.832 2.592-5.888 4.992-8.432 7.824s-2.704 5.12-4.592 7.12c-1.888 2-1.536 3.648 0.304 5.872 1.664 2.528 4.48 4.176 7.696 4.176 1.36 0 2.672-0.288 3.856-0.832l-0.064 0.032c1.824-0.992 1.776-5.872 2.352-8.816 0.112-1.232 0.176-2.64 0.176-4.080 0-1.152-0.048-2.288-0.128-3.424l0.016 0.16zM260.336 290.944l-1.584-8.416c-2.304 2.944-4.656 5.872-7.008 8.752-1.632 1.744-3.104 3.664-4.384 5.712l-0.096 0.16c-1.344 2.656-1.872 5.872 1.872 7.056s6.24 1.776 9.36 2.656c0.592-2.688 1.28-5.344 1.776-8.064 0.128-1.472 0.192-3.184 0.192-4.896 0-1.024-0.032-2.048-0.080-3.072v0.144zM275.808 284.256c-0.88 0.816-2.416 1.536-2.704 2.528-0.16 0.88-0.256 1.904-0.256 2.944s0.096 2.064 0.272 3.040l-0.016-0.112c0.416 4.592 1.12 9.232 1.648 13.824 7.536-0.352 6.368-8.944 11.184-11.76 0.528 0 0-3.872-0.944-4.752-2.624-1.92-5.6-3.808-8.72-5.456l-0.4-0.192z"></path>
<path d="M275.12 466.304c0-10.752 0-21.536 0-32.288 0-4 1.12-5.872 5.888-6.704 8.112-1.12 15.216-2.608 22.144-4.56l-1.136 0.288c27.568-7.648 51.344-21.312 70.72-39.584l-0.080 0.080c13.52-12.896 25.392-27.312 35.472-42.992l0.56-0.928c1.312-1.84 2.432-3.968 3.28-6.208l0.064-0.208c4.656-14.064 9.248-28.096 13.6-42.288 1.264-3.744 2.064-8.080 2.224-12.56v-0.080c0-13.712 0-27.408 0-41.168-0.048-11.104-2.288-21.664-6.272-31.312l0.208 0.56c-1.824-4.88-3.408-9.824-5.056-14.816-7.44-21.904-19.232-40.64-34.448-55.984l0.016 0.016c-13.088-13.456-28.16-24.88-44.768-33.856l-0.976-0.48c-17.296-9.232-35.904-12.752-53.632-19.76-2.032-0.816-3.664-2.304-4.624-4.176l-0.032-0.048c-1.6-3.68-2.672-7.936-2.992-12.4v-0.128c-0.352-16.576 0-33.216 0-49.856-0.048-0.368-0.064-0.8-0.064-1.232 0-1.104 0.16-2.176 0.432-3.2l-0.016 0.080c0.688-1.104 1.744-1.952 2.96-2.4l0.048-0.016c0.080-0.016 0.176-0.016 0.272-0.016 0.88 0 1.664 0.416 2.16 1.072 1.936 3.232 3.904 7.104 5.632 11.104l0.24 0.656c3.472 8.464 6.304 17.12 9.952 25.408 1.392 2.416 3.568 4.256 6.16 5.2l0.080 0.032c7.248 2.416 14.768 3.936 22.080 6.224 17.616 5.824 32.912 13.808 46.608 23.84l-0.464-0.336c3.92 2.448 7.328 4.992 10.496 7.776l-0.080-0.080c7.056 7.28 14.896 6.944 23.536 3.872 5.264-1.872 11.744-3.648 18.384-4.96l0.928-0.144c0.992 0 3.776 2.752 3.888 4.464 0.032 0.608 0.048 1.312 0.048 2.032 0 7.936-2.192 15.36-6.032 21.68l0.112-0.192c-4.128 7.648-3.888 8.656 0.992 15.344 9.824 12.96 18.352 27.728 24.928 43.536l0.496 1.328c5.696 13.264 9.936 28.672 11.984 44.768l0.096 0.864c0.288 7.952 5.824 14.544 13.232 16.448l0.128 0.032c13.424 3.696 24.72 13.232 39.136 14 0.72 0 1.344 1.008 2.064 1.536-0.624 0.656-1.344 1.232-2.128 1.728l-0.048 0.032c-9.744 5.968-20.96 11.12-32.816 14.864l-1.088 0.288c-10.416 2.384-18.192 11.2-18.944 21.968v0.080c-4.24 32.048-16.864 60.576-35.584 84.032l0.272-0.336c-9.008 11.28-6.24 20.656-3.776 31.52 0.368 1.408 1.248 2.656 1.648 4.064 1.168 4.288 2.224 8.656 3.344 12.992-2.16 0.176-4.672 0.256-7.216 0.256s-5.056-0.096-7.536-0.272l0.32 0.016c-4.256-1.168-7.856-2.464-11.312-4.016l0.48 0.192c-2.192-0.768-4.736-1.232-7.376-1.232-4.88 0-9.408 1.536-13.12 4.16l0.080-0.048c-14.848 10.192-31.824 19.504-49.712 27.088l-1.92 0.736c-5.936 2.608-12.88 4.656-20.080 5.808l-0.496 0.064c-5.952 0.496-10.816 4.624-12.4 10.144l-0.032 0.096c-4.176 10.592-8.944 20.992-13.488 31.456-0.576 1.472-1.232 2.736-1.984 3.904l0.048-0.080c-0.528 0.656-1.312 1.072-2.224 1.072-0.080 0-0.144 0-0.208-0.016h0.016c-1.184-0.464-2.704-1.408-2.944-2.416-0.288-1.664-0.464-3.568-0.464-5.52 0-0.624 0.016-1.248 0.048-1.856v0.096c0-9.28 0-18.592 0-27.872z"></path>
<path d="M80.4 418.848c0.88-3.168 1.872-6.352 2.656-9.568 1.344-5.872 2.24-12.288 4.064-18.176 0.528-1.44 0.832-3.104 0.832-4.832 0-3.6-1.312-6.88-3.504-9.408l0.016 0.016c-11.728-15.232-21.136-32.976-27.28-52.176l-0.336-1.232c-3.712-12.816-5.584-26.096-8.416-39.168-0.256-2.336-1.328-4.384-2.928-5.872-6.592-3.824-13.424-7.168-20.368-10.4-8.128-3.824-16.544-7.232-24.672-11.168-0.416-0.768-0.656-1.664-0.656-2.608 0-0.72 0.144-1.392 0.384-2.016l-0.016 0.032c2.512-1.392 5.52-2.8 8.64-3.952l0.48-0.144c10.896-4.768 21.648-9.872 32.72-14.288 3.888-1.392 6.608-5.040 6.608-9.312 0-0.224 0-0.432-0.016-0.656v0.032c1.424-18.304 6.256-35.168 13.84-50.416l-0.352 0.784c2.352-4.688 3.408-10.064 5.888-14.576 6.96-12.256 13.632-22.544 20.848-32.4l-0.656 0.944c2.128-2.128 3.44-5.072 3.44-8.304 0-2.16-0.576-4.176-1.6-5.904l0.032 0.064c-2.736-6.768-4.944-14.688-6.224-22.912l-0.080-0.608c-1.12-5.408 0.832-6.688 6.304-5.408 9.248 2.224 18.48 4.688 27.824 6.528 0.48 0.080 1.040 0.112 1.6 0.112 2.336 0 4.496-0.688 6.336-1.84l-0.048 0.032c11.424-7.056 22.304-15.12 33.968-21.632 7.2-3.664 16-7.376 25.040-10.528l1.552-0.464c2.4-1.152 5.168-2.016 8.080-2.448l0.16-0.016c14.48-1.28 20.544-11.056 24.672-23.52 2.416-7.28 5.872-14.224 8.768-21.28 0.352-0.768 1.28-1.248 1.936-1.872 0.464 0.88 1.344 1.696 1.28 2.528-0.528 6.944 6.352 13.696 0.416 20.688 0.816 12.992-2.464 26.16 1.936 39.104 2.064 5.872 0.464 8.592-6.176 10.688-7.776 2.416-15.84 3.776-23.552 5.872-7.68 2.080-14.352 4.72-20.64 7.968l0.56-0.272c-17.296 9.536-35.312 18.528-48.496 33.632-2.192 2.672-4.576 5.040-7.152 7.168l-0.096 0.080c-13.488 10.224-21.072 25.168-29.424 38.976-7.056 11.776-9.888 26.464-14.24 39.936-5.12 16.112-2.288 32.816-3.056 49.216-0.032 1.040-0.048 2.272-0.048 3.52 0 19.056 4.512 37.040 12.56 52.96l-0.32-0.688c4.992 10.88 10.416 21.568 16.416 31.936 6.768 11.792 15.472 21.68 25.792 29.568l0.24 0.176c10.4 7.696 19.36 17.632 30.912 23.936 15.488 8.416 31.008 17.168 49.216 18.816 0.176 0 0.352-0.016 0.544-0.016 1.328 0 2.624 0.176 3.84 0.512l-0.112-0.032c13.12 5.872 14.304 1.472 13.776 17.632-0.352 11.056 1.776 22.224-2.416 33.28-1.248 3.28 1.824 8.176 2.416 12.4 1.408 9.632-1.28 17.12-2.992 15.28-2.656-3.344-4.8-7.264-6.224-11.488l-0.080-0.272c-4.128-9.648-7.776-19.472-12.368-28.816-1.248-2.528-5.12-4-8.064-5.28-8.832-3.776-18.656-3.184-27.536-7.872-19.488-10.288-40.096-18.64-56.624-33.808-2.528-2.288-4.368-2-7.648-0.88-8.528 3.056-17.648 4.416-26.128 7.536-4.368 2.224-5.648 1.584-6.064-3.344z"></path>
</svg>
