<!-- Generated by IcoMoon.io -->
<svg version="1.1" xmlns="http://www.w3.org/2000/svg" width="512" height="512" viewBox="0 0 512 512">
<title>monsters-of-order</title>
<g id="icomoon-ignore">
</g>
<path d="M234.512 466.608c0 11.248 0 22.448 0 33.648 0 1.28-2.176 2.528-3.344 3.744-0.928-0.88-2.336-1.648-2.832-2.752-4.88-11.088-10.272-21.92-14.080-33.36-1.312-4.64-4.88-8.224-9.408-9.536l-0.080-0.032c-10.864-3.984-21.648-8.032-32.624-11.712-18-7.040-33.536-16.336-47.2-27.76l0.272 0.224c-2.144-2.208-5.12-3.568-8.448-3.568-1.664 0-3.248 0.336-4.672 0.96l0.080-0.032c-6.432 2.464-14.304 4.752-22.368 6.496l-1.104 0.192c-6.336 1.712-7.632 0.704-6.992-5.856 0.608-3.232 1.376-6.048 2.304-8.736l-0.128 0.416c1.808-7.44 3.696-14.944 5.28-22.448 0.112-0.464 0.176-0.992 0.176-1.536 0-1.344-0.384-2.608-1.072-3.648l0.016 0.032c-14.496-16.224-21.776-36.464-29.936-55.968-4-10.928-7.072-23.696-8.656-36.912l-0.080-0.816c-0.048-4.432-2.544-8.288-6.224-10.224l-0.064-0.032c-3.888-1.936-7.392-4.576-11.328-6.32-9.152-4.208-18.48-7.968-27.696-12.144-1.504-0.96-2.816-2.096-3.92-3.376l-0.016-0.016c1.232-1.28 2.224-3.104 3.744-3.808 10.976-4.928 21.936-10.032 33.2-14.304 6.528-1.824 11.328-7.552 11.728-14.432v-0.048c2.288-23.984 11.728-45.664 22.128-66.944 5.232-10.032 11.088-18.688 17.776-26.592l-0.176 0.224c2.32-2.448 3.76-5.76 3.76-9.424 0-2.336-0.592-4.544-1.632-6.48l0.032 0.080c-2.464-6.208-4.64-13.632-6.144-21.264l-0.144-0.816c-1.056-4.736 1.872-7.2 7.040-5.856 8.4 2 16.896 3.92 25.056 6.736 1.2 0.544 2.592 0.864 4.064 0.864 2.512 0 4.816-0.928 6.56-2.464l-0.016 0.016c6.976-5.152 14.544-9.44 21.6-14.544 16.368-11.712 35.568-17.056 54.272-23.456 6.128-1.648 10.912-6.224 12.816-12.112l0.032-0.128c3.408-9.44 7.632-18.592 11.728-27.776 0.464-1.056 2.048-2.464 2.832-2.336 1.408 0.416 2.528 1.424 3.104 2.736l0.016 0.032c0.72 2.080 1.12 4.464 1.12 6.944 0 0.048 0 0.112 0 0.144v-0.016c0 17.056 0 34.112 0 51.168 0 6.8-2.336 9.904-9.552 11.712-22.176 6.288-44.528 12.144-63.952 25.792-17.952 12.464-33.408 26.8-46.624 43.024l-0.32 0.4c-13.888 17.76-23.984 39.168-28.704 62.512l-0.176 0.96c-2.88 11.664-4.544 25.056-4.544 38.832 0 18.4 2.944 36.096 8.4 52.672l-0.336-1.2c8.16 23.456 18.144 46.304 37.024 64.48 12.656 13.488 26.848 25.296 42.352 35.232l0.88 0.528c13.888 8.784 30.272 14.992 47.856 17.52l0.672 0.080c3.28 0.352 6.448 2.048 9.808 2.336 5.856 0.592 7.28 3.632 7.152 8.784 0 10.256 0 20.528 0 30.72z"></path>
<path d="M277.52 467.12c0-9.728 0.528-19.52 0-29.312-0.112-0.544-0.176-1.168-0.176-1.824 0-5.36 4.256-9.744 9.6-9.904h0.016c0.944 0 1.808-0.944 2.768-0.944 13.44 0 24.64-7.104 36.848-11.376 12.752-5.040 23.712-11.872 33.2-20.32l-0.112 0.096c15.904-12.192 29.472-26.384 40.656-42.336l0.4-0.624c12.544-19.744 23.472-41.024 25.872-64.048 5.28-46.256 0-91.44-28.816-130.32-13.744-18.656-30.24-34.368-49.040-46.848l-0.72-0.448c-19.952-12.96-41.712-19.168-63.824-25.424-3.888-1.12-6.224-2.224-6.224-6.384 0-21.984 0-43.888 0-65.824 0-1.12 1.232-2.176 1.872-3.232 0.656 0.608 1.216 1.312 1.68 2.064l0.032 0.048c5.040 10.896 10.272 21.744 14.784 32.832 1.776 5.056 5.84 8.88 10.928 10.288l0.112 0.032c13.92 4.016 25.6 8.384 36.864 13.52l-1.664-0.688c13.792 6.672 25.552 13.728 36.624 21.712l-0.72-0.496c5.12 4.464 11.872 7.184 19.248 7.184 3.12 0 6.128-0.48 8.96-1.392l-0.208 0.064c6.256-1.648 13.856-3.024 21.632-3.856l0.736-0.064c-1.232 7.376-2.288 14.832-3.632 22.144-0.64 3.632-1.68 6.88-3.088 9.92l0.112-0.256c-0.656 1.216-1.024 2.672-1.024 4.192 0 1.968 0.624 3.776 1.696 5.264l-0.016-0.032c4.4 6.912 9.392 13.488 13.568 20.512 3.168 5.344 5.504 11.2 8.16 16.816 7.856 15.616 13.6 33.728 16.208 52.848l0.096 0.896c0 0.080 0 0.176 0 0.256 0 7.968 5.648 14.624 13.152 16.176l0.112 0.016c8.832 3.28 16.224 6.736 23.312 10.688l-0.848-0.432c5.856 2.336 11.728 3.632 17.6 5.456-4.928 3.312-10.816 6.8-16.896 10.016l-1.12 0.544c-6.512 3.056-13.6 4.976-20.352 7.504-8.448 2.832-14.592 10.272-15.488 19.248v0.096c-5.040 35.648-19.424 67.248-40.576 93.12l0.256-0.336c-5.856 7.264 0 15.472 0.704 23.456 0 1.232 2.464 2.224 2.576 3.392 0.432 1.808 0.688 3.904 0.688 6.064 0 2.656-0.368 5.2-1.088 7.632l0.048-0.192c-1.12 2-7.872 1.232-11.728 0.944-2.288 0-4.288-2.24-6.624-2.928-8.496-2.768-15.536-4.736-24.64 2.464-15.392 11.392-33.088 21.040-52.032 28.064l-1.472 0.48c-5.456 2-12.016 3.76-18.768 4.928l-0.72 0.112c-4.88 1.040-8.768 4.512-10.352 9.056l-0.032 0.096c-4.752 11.024-9.744 21.92-14.72 32.832-0.752 1.248-1.536 2.352-2.416 3.36l0.016-0.032c-0.688-1.12-1.232-2.4-1.52-3.792l-0.016-0.080c0-10.72 0-21.52 0-32.24z"></path>
<path d="M257.040 197.856c0-13.6 0-27.2 0-41.024 0-7.504 2.336-8.784 8.8-4.688 8.912 5.856 17.6 11.712 25.92 18.16 2.704 2 5.168 4.512 3.168 8.688-8.4 17.568-9.376 37.040-15.904 55.104-2.144 7.264-8.752 12.496-16.592 12.496-0.048 0-0.096 0-0.144 0-2.192-0.448-3.952-1.888-4.848-3.824l-0.016-0.048c-0.416-1.808-0.656-3.888-0.656-6.032 0-0.928 0.048-1.84 0.144-2.752l-0.016 0.112c0-12.128 0-24.272 0-36.4z"></path>
<path d="M148.688 315.904c0-3.456 0-6.848 0-10.256 0-0.112-0.016-0.272-0.016-0.432 0-5.536 3.68-10.208 8.72-11.728l0.096-0.016c18.144-6.576 36.384-12.608 54.624-18.752 2.176-0.688 5.168-1.744 6.688-0.88 4.256 2.768 7.936 5.712 11.344 8.992l-0.032-0.016c0.352 0.352-0.4 2.688-1.232 3.52-2.672 2.688-5.52 5.2-8.544 7.488l-0.192 0.144c-12.096 8.8-24.256 17.472-36.496 26.032-9.12 6.336-18.32 12.48-27.632 18.464-0.832 0.528-3.824-0.464-3.984-1.232-1.712-6.976-2.992-14.016-4.464-21.056z"></path>
<path d="M320.992 360.096c-4.336-1.808-8.064-4.048-11.408-6.752l0.096 0.064c-9.968-10.608-19.36-21.68-28.912-32.64-2.864-3.28-5.856-6.624-8.208-10.144-1.344-1.808-3.296-4.272-2.992-6.16 1.296-5.344 2.768-9.872 4.528-14.224l-0.256 0.688c4.528 1.456 8.4 3.152 12.096 5.168l-0.352-0.192c20.768 13.296 41.072 26.912 61.904 40.4 2.256 1.136 4.208 2.544 5.856 4.224 0.832 1.12 0.704 4.576 0 4.928-10.384 4.976-21.168 9.664-32.336 14.64z"></path>
<path d="M194.56 361.68c-11.392-3.456-22.128-6.32-32.512-10.080-5.28-1.872-5.568-6.752-1.056-10.192 5.856-4.64 12.48-8.912 18.832-13.36 15.312-10.784 30.624-21.632 46.064-32.304 2.384-1.344 5.2-2.64 8.112-3.696l0.384-0.112c1.936 4.752 4.16 9.376 5.872 14.24 0.352 1.344-1.28 3.632-2.464 5.104-12.592 15.632-25.264 31.168-38.016 46.592-1.52 1.424-3.248 2.688-5.088 3.728l-0.144 0.064z"></path>
<path d="M361.536 317.024l-2.64 19.872c-7.856 0.656-11.264-6.576-16.784-9.904-16.48-10.032-32.096-21.344-48.048-32.176-2-1.344-4.704-2.112-5.856-3.92-2.176-3.056-8.848-4.336-5.040-10.128 4.64-7.104 9.456-9.024 15.664-6.848 18.608 6.384 37.136 13.072 55.92 18.928 4.944 1.52 5.872 3.76 5.872 8.032v16.048z"></path>
<path d="M252.352 198.624c0 13.2 0 26.384 0 39.52 0 9.312 0 8.608-8.992 6.848-5.472-0.768-9.856-4.736-11.184-9.936l-0.016-0.096c-5.472-18.48-10.656-37.008-15.552-55.568-0.032-0.304-0.064-0.656-0.064-1.040 0-2.592 1.104-4.944 2.864-6.576 9.152-6.976 18.592-13.712 28.336-19.872 4.336-2.752 4.512 1.584 4.576 4.336 0 14.112 0 28.256 0 42.368z"></path>
<path d="M252.288 263.68c0 7.264-8.336 16.112-14.32 15.76-7.584-1.216-13.328-7.712-13.328-15.536 0-0.832 0.064-1.648 0.192-2.448l-0.016 0.096c1.216-6.752 6.912-11.856 13.872-12.144h0.032c7.152 1.264 12.64 7.008 13.536 14.176l0.016 0.080z"></path>
<path d="M284.56 264.784c0.016 0.256 0.032 0.576 0.032 0.88 0 7.184-5.712 13.056-12.864 13.296h-0.016c-7.776-1.328-13.744-7.6-14.608-15.392v-0.080c0.4-5.856 8.912-14.48 14.192-14.24 7.456 0.288 13.36 6.4 13.36 13.888 0 0.592-0.032 1.168-0.112 1.728z"></path>
<path d="M255.744 302.88c-9.856 0-13.552-3.744-13.376-12.96-0.016-0.256-0.032-0.576-0.032-0.88 0-7.248 5.888-13.12 13.152-13.12 0.080 0 0.144 0 0.224 0h-0.016c7.936 0.544 14.144 7.088 14.144 15.088 0 0.096 0 0.192 0 0.288v-0.016c-0.592 6.576-6.064 11.68-12.736 11.68-0.464 0-0.928-0.032-1.392-0.080h0.064z"></path>
</svg>
