<!-- Generated by IcoMoon.io -->
<svg version="1.1" xmlns="http://www.w3.org/2000/svg" width="32" height="32" viewBox="0 0 32 32">
<title>bladeborn-kainan</title>
<path d="M17.221 29.148c0-0.668 0-1.334 0-1.999-0.003-0.015-0.004-0.033-0.004-0.051 0-0.168 0.133-0.305 0.299-0.313h0.001c0.779-0.17 1.433-0.359 2.069-0.586l-0.115 0.036c2.233-0.854 4.081-2.292 5.414-4.128l0.023-0.034c0.543-0.757 0.845-1.689 1.217-2.549 0.151-0.361 0.277-0.787 0.359-1.227l0.006-0.040c0.136-0.645 0.214-1.386 0.214-2.146 0-0.72-0.070-1.422-0.203-2.103l0.011 0.069c-0.431-2.202-1.464-4.115-2.919-5.618l0.003 0.003c-0.664-0.659-1.401-1.248-2.195-1.752l-0.053-0.031c-0.406-0.233-0.878-0.447-1.372-0.613l-0.056-0.017c-0.428-0.193-0.949-0.38-1.486-0.53l-0.081-0.020c-0.143-0.039-0.319-0.075-0.5-0.1l-0.022-0.003c-0.499-0.069-0.597-0.142-0.601-0.594 0-1.362 0-2.727 0-4.089 0-0.069 0.069-0.139 0.11-0.207 0.038 0.040 0.071 0.086 0.097 0.135l0.002 0.003c0.309 0.728 0.609 1.456 0.929 2.184 0.080 0.284 0.307 0.499 0.593 0.56l0.005 0.001c1.107 0.291 2.068 0.664 2.975 1.13l-0.081-0.038c0.678 0.34 1.261 0.732 1.79 1.186l-0.011-0.010c0.276 0.26 0.65 0.42 1.061 0.42 0.217 0 0.424-0.045 0.611-0.125l-0.010 0.004c0.365-0.143 0.729-0.236 1.094-0.364 0.251-0.091 0.364 0.029 0.332 0.244-0.023 0.191-0.066 0.365-0.125 0.53l0.005-0.016c-0.131 0.451-0.288 0.896-0.398 1.35-0.016 0.057-0.025 0.122-0.025 0.189 0 0.185 0.069 0.354 0.182 0.482l-0.001-0.001c1.189 1.631 2.027 3.592 2.366 5.72l0.010 0.077c0.047 0.376 0.311 0.679 0.66 0.785l0.007 0.002c0.855 0.275 1.586 0.59 2.28 0.964l-0.071-0.035c0.15 0.051 0.326 0.088 0.507 0.102h0.007c-0.146 0.084-0.318 0.163-0.496 0.229l-0.024 0.007c-0.729 0.207-1.359 0.685-2.106 0.885-0.459 0.099-0.797 0.5-0.797 0.98 0 0.024 0.001 0.048 0.003 0.072v-0.003c0 0.013 0 0.029 0 0.045 0 0.608-0.143 1.183-0.396 1.692l0.010-0.022c-0.053 0.094-0.098 0.203-0.129 0.318l-0.002 0.009c-0.389 1.349-1.026 2.519-1.864 3.514l0.012-0.014c-0.184 0.161-0.3 0.395-0.3 0.657 0 0.144 0.035 0.281 0.098 0.4l-0.002-0.005c0.149 0.427 0.254 0.922 0.294 1.436l0.001 0.020c0.058 0.331-0.091 0.466-0.419 0.364-0.437-0.116-0.801-0.24-1.154-0.386l0.060 0.022c-0.146-0.063-0.317-0.1-0.496-0.1-0.323 0-0.618 0.119-0.843 0.316l0.002-0.001c-0.624 0.459-1.337 0.922-2.079 1.342l-0.107 0.056c-0.565 0.247-1.236 0.468-1.932 0.629l-0.080 0.015c-0.5 0.145-0.955 0.295-1.065 0.921-0.088 0.373-0.223 0.702-0.4 1.003l0.010-0.018c-0.189 0.364-0.423 0.729-0.638 1.093-0.029-0.415-0.062-0.83-0.077-1.245s0.011-0.706 0.011-1.070z"></path>
<path d="M14.527 2.954c0 0.695 0 1.394 0 2.089 0 0.211-0.073 0.325-0.309 0.364-1.366 0.164-2.601 0.612-3.683 1.282l0.039-0.022c-0.305 0.182-0.567 0.365-0.813 0.566l0.012-0.009c-1.177 0.842-2.169 1.851-2.965 3.007l-0.026 0.041c-0.652 1.047-1.171 2.262-1.491 3.554l-0.018 0.087c-0.133 0.499-0.209 1.072-0.209 1.663 0 0.163 0.006 0.325 0.017 0.484l-0.001-0.021c0.031 1.405 0.296 2.741 0.756 3.98l-0.027-0.084c0.453 1.23 1.089 2.29 1.887 3.206l-0.011-0.013c0.8 0.835 1.691 1.572 2.661 2.197l0.058 0.035c0.926 0.586 1.979 0.772 2.916 1.234 0.084 0.020 0.182 0.032 0.282 0.032 0.029 0 0.057-0.001 0.086-0.003h-0.004c0.823 0.109 1.094 0.517 0.889 1.344-0.045 0.2-0.070 0.431-0.070 0.668 0 0.014 0 0.027 0 0.040v-0.002c0 0.882 0 1.758 0 2.636 0 0.066-0.073 0.131-0.114 0.197-0.033-0.043-0.062-0.090-0.085-0.141l-0.002-0.005c-0.309-0.764-0.601-1.536-0.937-2.294-0.1-0.17-0.254-0.297-0.439-0.362l-0.006-0.002c-0.729-0.273-1.457-0.459-2.161-0.776-0.928-0.411-1.719-0.852-2.464-1.356l0.054 0.035c-0.941-0.656-1.061-0.729-2.165-0.427-0.143 0.040-0.284 0.091-0.423 0.135-0.219 0.066-0.463 0.335-0.642 0.098-0.098-0.128 0-0.445 0.084-0.656 0.164-0.506 0.419-0.99 0.346-1.545-0.007-0.184-0.057-0.354-0.142-0.505l0.003 0.006c-0.869-1.12-1.525-2.451-1.883-3.9l-0.016-0.073c-0.139-0.423-0.264-0.944-0.355-1.477l-0.010-0.068c-0.029-0.408-0.157-0.874-0.707-0.99-0.257-0.065-0.478-0.146-0.689-0.246l0.022 0.010c-0.244-0.109-0.481-0.234-0.729-0.364l-1.094-0.572c0.401-0.226 0.787-0.477 1.203-0.666 0.373-0.177 0.839-0.359 1.316-0.514l0.087-0.024c0.313-0.102 0.364-0.302 0.43-0.597 0.27-1.482 0.71-2.805 1.305-4.037l-0.041 0.093c0.326-0.695 0.705-1.292 1.149-1.836l-0.013 0.016c0.203-0.218 0.328-0.512 0.328-0.834 0-0.149-0.026-0.291-0.075-0.423l0.003 0.009c-0.102-0.314-0.204-0.716-0.284-1.127l-0.011-0.071c-0.010-0.068-0.016-0.146-0.016-0.226s0.006-0.158 0.016-0.234l-0.001 0.009c0-0.201 0.139-0.236 0.313-0.182 0.448 0.142 0.904 0.265 1.349 0.414 0.118 0.048 0.256 0.075 0.401 0.075 0.264 0 0.505-0.093 0.694-0.249l-0.002 0.002c1.136-0.807 2.444-1.481 3.844-1.957l0.107-0.032c0.23-0.035 0.432-0.082 0.629-0.147l-0.028 0.008c0.298-0.153 0.626-0.215 0.729-0.681 0.209-0.603 0.455-1.123 0.75-1.61l-0.020 0.037c0.095-0.186 0.197-0.364 0.295-0.553 0.022 0.234 0.062 0.47 0.069 0.702 0.058 0.52 0.052 1.038 0.048 1.551z"></path>
<path d="M19.113 10.531c-0.084 0.48-0.172 0.859-0.204 1.238 0 0.153 0.048 0.414 0.146 0.452 0.067 0.036 0.146 0.057 0.23 0.057 0.173 0 0.325-0.088 0.414-0.222l0.001-0.002c0.095-0.172 0.19-0.319 0.295-0.457l-0.007 0.010c0.107-0.178 0.3-0.295 0.52-0.295 0.335 0 0.605 0.27 0.605 0.604 0 0.189-0.087 0.359-0.224 0.469l-0.001 0.001c-0.054 0.069-0.153 0.116-0.186 0.197s-0.131 0.313-0.084 0.364c0.146 0.16 0.248 0.459 0.558 0.342 0.313-0.093 0.581-0.259 0.794-0.477 0.098-0.091 0.23-0.147 0.375-0.147 0.035 0 0.069 0.003 0.102 0.010l-0.004-0.001c0.215 0.058 0.277 0.277 0.28 0.509 0 0.55-0.080 0.652-0.645 0.747-0.408 0.066-0.802 0.186-1.206 0.273-0.146 0.034-0.326 0.062-0.508 0.078l-0.016 0.001c-0.317 0.029-0.547 0.025-0.616-0.426s-0.481-0.659-0.856-0.827c-0.375-0.168-0.63 0.139-0.583 0.565 0.073 0.644 0.583 1.093 0.707 1.733 0.052 0.262 0.642 0.412 0.933 0.298 0.365-0.139 0.693-0.313 1.039-0.466 0.092-0.046 0.201-0.089 0.313-0.124l0.014-0.004c0.434-0.128 0.75-0.029 0.856 0.259 0.005 0.030 0.008 0.065 0.008 0.1 0 0.278-0.166 0.518-0.404 0.627l-0.004 0.002c-0.364 0.178-0.769 0.277-1.123 0.473-0.173 0.097-0.379 0.155-0.6 0.155s-0.427-0.057-0.606-0.158l0.006 0.003c-0.146-0.066-0.448-0.153-0.521 0.16-0.022 0.055-0.036 0.119-0.036 0.187 0 0.189 0.103 0.354 0.255 0.442l0.003 0.001c0.153 0.080 0.365 0.069 0.492 0.178 0.583 0.543 1.134 0.532 1.753 0.033 0.39-0.317 0.729-0.207 0.97 0.193 0.146 0.233 0.12 0.364-0.080 0.604-0.353 0.431-0.885 0.704-1.482 0.704-0.435 0-0.837-0.145-1.158-0.39l0.005 0.003c-0.356-0.293-0.808-0.481-1.302-0.516h-0.008c-0.004 0-0.009 0-0.014 0-0.243 0-0.441 0.198-0.441 0.441 0.219 0.82 0.364 1.696 1.287 2.116 0.171 0.077 0.292 0.189 0.485 0.040 0.087-0.047 0.192-0.074 0.303-0.074 0.014 0 0.028 0 0.043 0.001h-0.002c0.485-0.033 0.678 0.095 0.729 0.459 0.069 0.47-0.164 0.961-0.551 1.005-0.090 0.018-0.194 0.029-0.301 0.029-0.238 0-0.462-0.052-0.664-0.145l0.009 0.004c-0.59-0.364-1.173-0.79-1.457-1.496-0.104-0.3-0.227-0.559-0.374-0.801l0.011 0.018c-0.096-0.195-0.293-0.325-0.521-0.325-0.15 0-0.288 0.057-0.391 0.151-0.073 0.054-0.128 0.131-0.197 0.189-0.364 0.302-0.364 0.302-0.729-0.091s-0.802-0.339-1.028 0.215c-0.327 0.733-0.772 1.357-1.317 1.876l-0.002 0.002c-0.27 0.261-0.638 0.422-1.043 0.422-0.102 0-0.201-0.010-0.297-0.029l0.010 0.002c-0.385-0.091-0.667-0.431-0.667-0.837 0-0.157 0.042-0.303 0.115-0.43l-0.002 0.004c0.118-0.122 0.28-0.201 0.461-0.211h0.002c0.020-0.001 0.042-0.002 0.064-0.002 0.195 0 0.379 0.043 0.546 0.118l-0.009-0.003c0.079 0.038 0.17 0.060 0.268 0.060 0.219 0 0.413-0.113 0.525-0.284l0.002-0.002c0.318-0.527 0.635-1.15 0.91-1.796l0.038-0.1c0.009-0.033 0.015-0.071 0.015-0.11 0-0.211-0.17-0.382-0.38-0.386-0.279 0.005-0.544 0.062-0.787 0.162l0.015-0.005c-0.466 0.184-0.856 0.376-1.231 0.595l0.042-0.022c-0.853 0.488-1.848-0.175-2.263-0.729-0.034-0.039-0.054-0.090-0.054-0.146 0-0.001 0-0.002 0-0.004 0.066-0.459 0.729-0.841 1.009-0.535 0.806 0.853 1.495 0.364 2.216-0.083 0.141-0.073 0.261-0.162 0.364-0.269 0.077-0.102 0.16-0.284 0.116-0.364s-0.226-0.157-0.365-0.23c-0.012-0.005-0.028-0.009-0.044-0.009s-0.031 0.003-0.045 0.009h0.001c-0.875 0.448-1.618 0.062-2.355-0.364-0.139-0.079-0.258-0.161-0.369-0.252l0.005 0.004c-0.137-0.083-0.227-0.23-0.227-0.4 0-0.086 0.023-0.167 0.064-0.236l-0.001 0.002c0.089-0.161 0.258-0.268 0.452-0.268 0.064 0 0.126 0.012 0.182 0.033l-0.004-0.001c0.316 0.113 0.585 0.234 0.84 0.378l-0.027-0.014c0.177 0.109 0.386 0.218 0.602 0.314l0.036 0.014c0.089 0.041 0.194 0.067 0.304 0.067 0.328 0 0.604-0.216 0.696-0.512l0.001-0.005c0.248-0.506 0.423-1.048 0.703-1.53 0.186-0.325-0.025-0.423-0.186-0.572-0.067-0.082-0.169-0.134-0.282-0.134s-0.215 0.052-0.282 0.134l-0.001 0.001c-0.18 0.162-0.343 0.335-0.489 0.523l-0.007 0.009c-0.481 0.663-0.729 0.764-1.49 0.524-0.382-0.168-0.826-0.271-1.295-0.28h-0.004c-0.237 0-0.557-0.364-0.518-0.594 0.028-0.218 0.099-0.416 0.205-0.589l-0.004 0.007c0.061-0.088 0.16-0.143 0.273-0.143s0.213 0.056 0.273 0.142l0.001 0.001c0.228 0.267 0.541 0.454 0.898 0.519l0.010 0.001c0.029 0.006 0.063 0.010 0.097 0.010 0.099 0 0.192-0.029 0.27-0.080l-0.002 0.001c0.073-0.083 0.118-0.193 0.118-0.313 0-0.031-0.003-0.061-0.009-0.090l0.001 0.003c-0.084-0.236-0.207-0.438-0.366-0.609l0.001 0.001c-0.244-0.259-0.12-0.422 0.077-0.6 0.412-0.364 0.82-0.321 1.094 0.171 0.204 0.364 0.529 0.579 0.773 0.48s0.332-0.364 0.182-0.863c-0.052-0.168-0.106-0.335-0.157-0.506-0.080-0.265 0.033-0.729 0.215-0.761 0.103-0.018 0.22-0.028 0.34-0.028 0.072 0 0.142 0.004 0.211 0.011l-0.009-0.001c0.263 0 0.207 0.222 0.273 0.364 0.11 0.255 0.16 0.55 0.597 0.546 0.368 0.001 0.665 0.299 0.665 0.666 0 0.016-0.001 0.031-0.002 0.046v-0.002c0 0.011-0.001 0.022-0.001 0.034 0 0.295 0.158 0.552 0.395 0.692l0.004 0.002c0.139 0.091 0.307 0.145 0.491 0.145 0.45 0 0.823-0.331 0.887-0.763l0.001-0.005c0.029-0.113 0-0.259 0.037-0.364 0.131-0.251 0.211-0.575 0.627-0.499 0.277 0.052 0.419-0.029 0.452-0.364 0.015-0.324 0.281-0.58 0.608-0.58 0.114 0 0.222 0.032 0.313 0.086l-0.003-0.002c0.095 0.073 0.145 0.339 0.193 0.441zM15.235 16.462c0.098 0.339-0.207 0.455-0.364 0.659-0.040 0.054-0.084 0.179-0.069 0.189 0.191 0.126 0.412 0.247 0.643 0.352l0.031 0.012c0.058 0.025 0.259-0.087 0.259-0.142 0.012-0.173 0.017-0.373 0.017-0.575s-0.007-0.403-0.019-0.603l0.001 0.027c0-0.054-0.197-0.091-0.298-0.135-0.033-0.116-0.082-0.218-0.145-0.309l0.002 0.004c-0.048-0.048-0.172 0-0.259-0.033s-0.197-0.077-0.295-0.113l0.222-0.131c0.423-0.244 0.423-0.244 0.062-0.604l-0.321-0.317c-0.045-0.059-0.115-0.096-0.194-0.096-0.113 0-0.207 0.076-0.236 0.178v0.002c-0.066 0.236-0.572 0.52 0 0.764 0.033 0 0.037 0.215 0 0.222-0.576 0.236-0.204 0.594-0.087 0.87s0.306 0.321 0.616 0.062c0.146-0.073 0.292-0.186 0.434-0.284zM17.090 14.671l-0.062-0.066c0.048-0.073 0.157-0.175 0.135-0.219-0.145-0.364-0.491-0.48-0.816-0.611-0.033 0-0.16 0.098-0.164 0.153 0 0.389 0 0.783 0 1.176 0 0.313 0.135 0.139 0.248 0.058 0.060-0.039 0.13-0.080 0.203-0.115l0.012-0.005c0 0.080 0.069 0.193 0.037 0.24-0.143 0.189 0 0.201 0.12 0.284 0.266 0.157 0.398 0.339-0.080 0.364-0.052 0-0.149 0.211-0.128 0.237 0.223 0.261 0.448 0.5 0.685 0.725l0.004 0.004c0.045 0.032 0.101 0.051 0.161 0.051 0.028 0 0.055-0.004 0.081-0.012l-0.002 0.001c0.219-0.069 0.481-0.816 0.324-0.979-0.102-0.105-0.303-0.143-0.098-0.288 0.328-0.236 0.073-0.459 0.044-0.702-0.077-0.52-0.456-0.24-0.703-0.295zM15.766 14.478v-0.27c0-0.513-0.044-0.528-0.47-0.291-0.649 0.364-0.653 0.383-0.135 0.888 0.057 0.069 0.119 0.13 0.187 0.184l0.003 0.002c0.082 0.048 0.18 0.097 0.282 0.139l0.016 0.006c0.045-0.088 0.082-0.19 0.107-0.296l0.002-0.009c0.008-0.063 0.012-0.137 0.012-0.211 0-0.046-0.002-0.092-0.005-0.137v0.006zM16.226 16.335c-0.025 0.048-0.045 0.105-0.054 0.164v0.003c0 0.269 0 0.539 0 0.808 0 0.131 0.058 0.331 0.143 0.364 0.028 0.006 0.060 0.010 0.093 0.010 0.115 0 0.22-0.043 0.3-0.112h-0.001c0.139-0.124 0.437-0.248 0.277-0.484-0.21-0.262-0.434-0.494-0.679-0.704l-0.007-0.006c-0.021-0.018-0.045-0.033-0.071-0.043l-0.002-0.001z"></path>
<path d="M17.090 14.671l-0.164 0.102 0.102-0.168z"></path>
<path d="M15.413 16.28l-0.168 0.168z"></path>
</svg>
