<!-- Generated by IcoMoon.io -->
<svg version="1.1" xmlns="http://www.w3.org/2000/svg" width="32" height="32" viewBox="0 0 32 32">
<title>bladeborn-crimsoncourt</title>
<path d="M14.615 2.836c0 0.579 0 1.157 0 1.735 0 0.487-0.092 0.473-0.55 0.662-0.689 0.282-1.466 0.293-2.115 0.67s-1.392 0.568-1.979 1c-0.824 0.604-1.528 1.377-2.309 2.039-0.704 0.597-0.953 1.509-1.58 2.153-0.392 1.42-1.151 2.761-0.986 4.313 0.007 0.095 0.013 0.206 0.013 0.319s-0.005 0.223-0.014 0.333l0.001-0.014c-0.002 0.066-0.003 0.143-0.003 0.221 0 1.494 0.339 2.909 0.944 4.172l-0.025-0.058c0.73 1.608 1.781 2.957 3.081 4.011l0.020 0.016c1.068 0.899 2.334 1.6 3.721 2.030l0.077 0.020c0.37 0.124 0.807 0.223 1.258 0.282l0.036 0.004c0.307 0.041 0.421 0.132 0.418 0.447 0 1.307 0 2.618 0 3.928 0.004 0.025 0.006 0.053 0.006 0.082 0 0.066-0.009 0.13-0.028 0.189l0.001-0.005c-0.048 0.064-0.118 0.111-0.195 0.131l-0.003 0.001c-0.059-0.001-0.111-0.033-0.139-0.079v-0.001c-0.142-0.421-0.253-0.85-0.414-1.263-0.15-0.479-0.358-0.898-0.621-1.274l0.010 0.014c-0.259-0.227-0.584-0.384-0.943-0.438l-0.011-0.001c-1.646-0.43-3.080-1.172-4.301-2.165l0.020 0.016c-0.366-0.3-0.696-0.475-1.191-0.267s-0.979 0.249-1.466 0.428c-0.286 0.113-0.33 0-0.29-0.205 0.082-0.578 0.218-1.1 0.409-1.595l-0.016 0.050c0.068-0.132 0.107-0.288 0.107-0.454 0-0.266-0.102-0.507-0.27-0.687l0.001 0.001c-0.794-1.15-1.442-2.48-1.873-3.904l-0.026-0.101c-0.123-0.456-0.245-1.045-0.336-1.643l-0.012-0.096c-0.002-0.177-0.103-0.331-0.25-0.409l-0.003-0.001c-0.476-0.279-1.053-0.57-1.648-0.826l-0.107-0.042c-0.107-0.047-0.249-0.033-0.341-0.095-0.241-0.165-0.469-0.366-0.704-0.541l0.758-0.366c0.624-0.289 1.236-0.6 1.869-0.86 0.251-0.080 0.43-0.311 0.43-0.583 0-0.007 0-0.014 0-0.021v0.001c0.118-1.168 0.421-2.238 0.879-3.221l-0.025 0.061c0.517-1.146 1.1-2.13 1.778-3.042l-0.031 0.043c0.065-0.123 0.103-0.269 0.103-0.424 0-0.087-0.013-0.172-0.035-0.253l0.002 0.007c-0.095-0.399-0.29-0.776-0.392-1.179-0.013-0.102-0.020-0.219-0.020-0.339s0.007-0.237 0.020-0.353l-0.001 0.014c0.245 0.003 0.484 0.021 0.718 0.054l-0.029-0.003c0.405 0.030 0.779 0.134 1.118 0.298l-0.018-0.008c0.366 0.249 0.579 0 0.813-0.107 0.332-0.204 0.618-0.412 0.886-0.638l-0.011 0.009c0.909-0.681 1.991-1.189 3.165-1.454l0.056-0.011c1.1-0.227 1.536-0.875 1.81-1.831 0.121-0.402 0.246-0.732 0.389-1.052l-0.022 0.056c0.045-0.067 0.119-0.11 0.204-0.11 0.002 0 0.003 0 0.005 0 0.075 0.028 0.132 0.092 0.15 0.171v0.002c0 0.67 0 1.34 0 2.010z"></path>
<path d="M17.324 29.168c0-0.671 0-1.34 0-2.010 0-0.235 0.033-0.414 0.337-0.421 0.107 0 0.216-0.132 0.326-0.132 0.954 0 1.741-0.527 2.602-0.817 0.733-0.245 1.264-0.772 1.884-1.171 1.252-0.848 2.254-1.973 2.93-3.293l0.023-0.049c0.451-0.887 0.862-1.931 1.174-3.017l0.032-0.129c0.041-0.232 0.063-0.498 0.063-0.77 0-0.21-0.014-0.416-0.041-0.619l0.003 0.024c-0.009-0.177-0.015-0.385-0.015-0.593s0.006-0.416 0.016-0.622l-0.001 0.029c0.136-1.329-0.315-2.527-0.78-3.73-0.48-1.216-1.134-2.26-1.947-3.162l0.009 0.010c-0.799-0.908-1.788-1.527-2.749-2.197-0.612-0.382-1.324-0.679-2.082-0.854l-0.047-0.010c-0.502-0.15-0.956-0.545-1.543-0.428-0.044 0-0.187-0.216-0.191-0.333-0.022-0.549 0-1.099 0-1.644 0-0.823 0-1.644 0-2.467 0.018-0.093 0.047-0.175 0.083-0.252l-0.003 0.007c0.048 0.088 0.099 0.175 0.139 0.264 0.326 0.732 0.634 1.464 0.982 2.197 0.099 0.187 0.266 0.328 0.468 0.391l0.006 0.002c1.015 0.241 1.906 0.571 2.741 0.995l-0.070-0.032c0.737 0.278 1.37 0.668 1.915 1.155l-0.005-0.005c0.241 0.201 0.518 0.371 0.817 0.497l0.021 0.008c0.045 0.015 0.096 0.025 0.15 0.025s0.105-0.009 0.153-0.026l-0.003 0.001c0.546-0.128 1.1-0.278 1.638-0.403 0.315-0.077 0.414 0.033 0.341 0.366-0.118 0.55-0.231 1.099-0.389 1.64-0.058 0.205-0.124 0.395 0.022 0.553 0.326 0.348 0.367 0.879 0.822 1.138 0.062 0.037 0.084 0.154 0.121 0.234 0.63 1.377 1.33 2.72 1.444 4.276 0.006 0.528 0.368 0.97 0.857 1.097l0.008 0.002c0.622 0.194 1.205 0.516 1.807 0.766 0.14 0.048 0.314 0.094 0.493 0.128l0.024 0.004c0.091 0.035 0.166 0.070 0.238 0.107l-0.011-0.006c-0.048 0.037-0.084 0.088-0.136 0.107-0.733 0.296-1.388 0.798-2.199 0.955-0.614 0.121-1.073 0.643-1.1 1.275v0.003c-0.139 1.107-0.441 2.111-0.883 3.036l0.025-0.059c-0.455 1.013-0.995 1.886-1.631 2.678l0.018-0.024c-0.366 0.45-0.070 0.897-0.037 1.34 0 0.164 0.205 0.315 0.227 0.483 0.009 0.129 0.015 0.279 0.015 0.43s-0.006 0.301-0.016 0.45l0.001-0.020c-0.069 0.006-0.148 0.009-0.229 0.009-0.225 0-0.445-0.024-0.657-0.071l0.020 0.004c-1.257-0.48-1.253-0.494-2.342 0.212-0.073 0.047-0.128 0.132-0.202 0.183-0.771 0.523-1.652 0.995-2.583 1.372l-0.096 0.034c-0.348 0.15-0.752 0.261-1.173 0.313l-0.021 0.002c-0.307 0.045-0.557 0.251-0.661 0.529l-0.002 0.006c-0.323 0.732-0.623 1.465-0.935 2.197-0.029 0.056-0.061 0.104-0.097 0.148l0.001-0.002c-0.037-0.074-0.107-0.143-0.107-0.212 0-0.704 0-1.403 0-2.101z"></path>
<path d="M18.845 13.091c0 0.029 0 0.241-0.047 0.45-0.044 0.307 0.037 0.414 0.34 0.403 0.048 0 0.14-0.102 0.132-0.121-0.187-0.391-0.044-0.732 0.055-1.127 0.034-0.223 0.052-0.48 0.052-0.742 0-0.187-0.010-0.372-0.029-0.555l0.002 0.023c0-0.125-0.022-0.249-0.033-0.366 0.155 0.002 0.302 0.033 0.438 0.087l-0.009-0.003c0.607 0.348 1.119 0.787 1.535 1.308l0.008 0.011c0.366 0.541 0.795 1.047 0.942 1.706 0.049 0.17 0.077 0.365 0.077 0.567 0 0.018 0 0.037-0.001 0.055v-0.003c0 0.109-0.132 0.23-0.235 0.304-0.113 0.060-0.247 0.118-0.387 0.166l-0.020 0.006c-0.297 0.15-0.34 0.3-0.158 0.549 0.079 0.096 0.162 0.181 0.254 0.258l0.003 0.002c0.245 0.212 0.238 0.432-0.025 0.586s-0.55 0.257-0.546 0.644c0 0.058-0.169 0.158-0.264 0.169-0.241 0.022-0.488 0-0.733 0-0.509 0.022-0.773 0.238-0.788 0.765 0 0.395-0.128 0.541-0.523 0.523-0.241 0-0.367 0.169-0.406 0.406-0.043 0.284-0.123 0.541-0.238 0.777l0.007-0.015c-0.189 0.289-0.386 0.539-0.601 0.773l0.004-0.004c-0.275-0.274-0.055-0.619-0.122-0.922 0-0.088 0-0.191 0-0.271s-0.095-0.179-0.15-0.183c-0.055-0.004-0.279 0-0.319 0.084-0.103 0.175-0.136 0.391-0.224 0.578-0.079 0.13-0.166 0.242-0.262 0.346l0.001-0.001c-0.052-0.105-0.096-0.227-0.126-0.355l-0.002-0.012c-0.022-0.179 0-0.366 0-0.545-0.029-0.366-0.161-0.469-0.517-0.487-0.198 0-0.367 0.018-0.367 0.282 0.003 0.027 0.004 0.058 0.004 0.090s-0.002 0.063-0.005 0.094v-0.004c-0.037 0.263-0.077 0.523-0.117 0.784-0.392-0.029-0.367-0.403-0.513-0.634-0.046-0.079-0.113-0.143-0.192-0.185l-0.003-0.001c-0.066-0.026-0.143-0.042-0.223-0.042-0.043 0-0.085 0.005-0.126 0.012l0.004-0.001c-0.052 0-0.114 0.154-0.103 0.224 0.066 0.366 0.154 0.755 0.23 1.131 0.002 0.033 0.003 0.073 0.003 0.112s-0.001 0.078-0.003 0.117v-0.006c-0.095-0.048-0.23-0.066-0.274-0.139-0.318-0.473-0.618-1.014-0.871-1.583l-0.027-0.069c-0.109-0.297-0.194-0.399-0.476-0.366-0.344 0.041-0.506-0.088-0.48-0.457 0-0.201 0-0.531-0.095-0.586-0.319-0.169-0.645-0.41-1.052-0.278-0.213 0.066-0.406 0.103-0.502-0.194-0.11-0.281-0.311-0.507-0.565-0.645l-0.007-0.003c-0.187-0.113-0.187-0.296-0.022-0.457 0.093-0.082 0.177-0.168 0.253-0.26l0.003-0.004c0.293-0.366 0.198-0.71-0.293-0.732s-0.495-0.245-0.455-0.578c0.017-0.223 0.061-0.429 0.13-0.625l-0.005 0.018c0.382-0.973 0.98-1.789 1.739-2.42l0.010-0.008c0.067-0.050 0.144-0.092 0.228-0.122l0.006-0.002c0.241-0.107 0.561-0.366 0.714-0.282 0.341 0.168-0.022 0.461-0.022 0.703 0 0.403-0.179 0.85 0.187 1.208 0.055 0.055 0.037 0.198 0.033 0.296-0.026 0.122-0.041 0.263-0.041 0.407 0 0.012 0 0.025 0 0.038v-0.002c0.037 0.099 0.119 0.173 0.221 0.198h0.002c0.084 0 0.249-0.107 0.249-0.165-0.009-0.323-0.035-0.63-0.079-0.933l0.005 0.043c-0.033-0.127-0.057-0.274-0.066-0.426v-0.006c0.018-0.131 0.128-0.23 0.262-0.23 0.076 0 0.145 0.032 0.193 0.083 0.432 0.366 0.887 0.732 1.294 1.12 0.323 0.311 0.89 0.198 1.1 0.677 0 0 0.121 0.022 0.165 0 0.488-0.29 0.986-0.564 1.466-0.882 0.345-0.235 0.653-0.527 0.982-0.788 0.11-0.084 0.235-0.154 0.366-0.23 0.022 0.146 0.048 0.293 0.066 0.44-0.022 0.074-0.022 0.165-0.022 0.436zM14.102 17.814c0.286-0.245 0.579-0.483 0.843-0.732 0.044-0.043 0-0.249-0.070-0.325-0.259-0.301-0.532-0.573-0.825-0.823l-0.011-0.009c-0.29-0.234-0.594-0.084-0.781 0.253-0.253 0.451 0.041 0.821 0.173 1.183 0.055 0.183 0.396 0.282 0.649 0.455zM17.932 17.763c0 0 0.084 0 0.117-0.041 0.232-0.252 0.449-0.527 0.644-0.818l0.015-0.025c0.033-0.087 0.052-0.189 0.052-0.295 0-0.296-0.148-0.557-0.375-0.714l-0.003-0.002c-0.323-0.175-0.498 0.077-0.689 0.268-0.211 0.174-0.396 0.368-0.559 0.581l-0.006 0.009c-0.095 0.158-0.154 0.502-0.070 0.575 0.247 0.175 0.528 0.33 0.826 0.451l0.028 0.010zM16.782 16.533c-0.010-0.269-0.231-0.484-0.502-0.484-0.043 0-0.084 0.006-0.125 0.016l0.004-0.001c-0.079 0.041-0.173 0.065-0.273 0.065-0.077 0-0.15-0.014-0.218-0.041l0.004 0.001c-0.043-0.022-0.095-0.035-0.149-0.035-0.184 0-0.334 0.149-0.334 0.333 0 0.033 0.005 0.066 0.014 0.096l-0.001-0.002c0.148 0.386 0.324 0.72 0.532 1.029l-0.011-0.018c0.055 0.084 0.366 0.139 0.391 0.092 0.224-0.325 0.422-0.685 0.649-1.051z"></path>
</svg>
