<!-- Generated by IcoMoon.io -->
<svg version="1.1" xmlns="http://www.w3.org/2000/svg" width="512" height="512" viewBox="0 0 512 512">
<title>monsters-of-order</title>
<g id="icomoon-ignore">
</g>
<path d="M346.672 259.264c-1.872 1.52-3.632 3.104-5.856 4.448s-6.4 5.856-8.32 4.912c-3.024-0.72-5.248-3.376-5.248-6.56 0-1.312 0.384-2.56 1.040-3.6l-0.016 0.032c0.736-1.344 1.152-2.928 1.152-4.624 0-5.456-4.432-9.888-9.904-9.888-0.048 0-0.112 0-0.16 0h0.016c-2.176 0-4.336-0.816-6.56-1.216 0.928 1.568 1.936 3.488 2.816 5.456l0.16 0.384c1.344 2.752 2.256 5.984 2.512 9.392v0.096c0 2.512-2.512 4.912-3.856 7.376-1.168-1.648-1.936-4.224-3.52-4.8-3.312-1.232-7.424-2.416-11.664-3.328l-0.656-0.128c0 4.688-1.648 11.136 0.768 13.568 3.632 3.76 7.92 6.144 4.288 11.712-2.64 3.92-5.856 7.968-11.712 3.568-1.28-0.992-5.040 0-6.672 1.184-14.048 10.704-24.672 23.424-23.712 42.544 0.528 9.952-0.464 19.44 4.976 29.264 6.32 11.696 0 19.376-13.536 19.968h-5.856c-19.104 0-21.040-4.32-18.736-23.424 0.736-5.904 1.168-12.736 1.168-19.664 0-10.304-0.928-20.384-2.736-30.16l0.16 1.024c-2.8-15.632-9.488-17.568-24.48-11.136-1.488 0.72-3.248 1.136-5.104 1.136-0.256 0-0.528-0.016-0.8-0.032h0.032c-21.328-2.048-27.536 16.688-20.848 36.704 0.464 1.344 0.928 2.736 1.52 4.096 1.28 2.992 2.704 5.856 4.096 8.896-3.936-0.192-7.632-0.896-11.152-2.016l0.304 0.096c-17.872-7.904-24.144-20.96-20.080-40.688 0.448-2.16 0.688-4.64 0.688-7.168 0-8.688-2.992-16.672-8.016-23.008l0.064 0.080c-5.568-7.616-1.232-8.608 4.576-8.080 4.432 0.96 8.336 2.48 11.936 4.496l-0.224-0.112c9.664 4.144 14.416 1.168 14.768-9.296 0.656-19.376 0.688-19.248-18.576-16.864-4.512 0.592-9.2 0.88-5.856-6.8 0.688-2.576 1.104-5.536 1.104-8.592 0-1.552-0.112-3.088-0.32-4.576l0.016 0.176c0-9.552 1.936-10.832 11.008-7.312s14.016 1.52 15.056-8.32c1.040-9.824 0.352-11.696-9.664-11.296-7.728 0.352-15.536-0.464-23.44-0.816 0.352-7.376 0.752-14.8 0.992-22.176 0.288-9.072-1.984-18.848 5.104-26.336 3.984-3.968 8.512-7.408 13.456-10.192l0.304-0.176c1.712-1.056 4.624 0 6.976 0-0.080 2.256-0.368 4.4-0.864 6.48l0.048-0.224c-1.68 3.936-3.408 8.864-4.832 13.92l-0.208 0.88c-0.384 1.136-0.624 2.48-0.624 3.856 0 6.816 5.552 12.352 12.368 12.352 0.592 0 1.168-0.048 1.744-0.128l-0.064 0.016c0.72-0.064 1.568-0.080 2.4-0.080 8.144 0 15.568 3.168 21.040 8.352l-0.016-0.016c3.696 3.456 10.432 7.024 15.472 1.344 3.472-4.144 6.24-9.008 8.064-14.32l0.096-0.32c0.592-1.584-2.576-4.976-4.576-6.96-3.888-4.064-6.304-9.6-6.304-15.664 0-1.584 0.16-3.12 0.464-4.608l-0.032 0.144c0.432-1.856 1.056-3.504 1.856-5.024l-0.048 0.112c1.856 0.832 3.44 1.68 4.944 2.656l-0.128-0.080c0.704 0.528 0.816 1.744 1.344 2.576 6.496 10.24 6.56 10.176 12.704-0.768 5.104-9.072 13.184-9.488 18.864-0.816 0.976 1.472 1.84 3.168 2.512 4.976l0.064 0.176c2.224 6.256 5.344 5.856 9.264 1.52 3.040-3.456 6.208-6.8 9.312-10.192 0.048 1.264 0.064 2.736 0.064 4.224 0 4.080-0.176 8.112-0.512 12.112l0.032-0.528c-0.592 3.008-1.776 5.664-3.44 7.968l0.048-0.064c-1.984 3.152-7.024 7.184-6.32 8.768 2.496 4.624 5.936 8.432 10.080 11.28l0.112 0.080c0.72 0.224 1.52 0.336 2.368 0.336 2.176 0 4.16-0.832 5.664-2.16h-0.016c2.576-3.264 1.76-10.72 9.136-5.2 0.192 0.096 0.448 0.144 0.704 0.144s0.496-0.064 0.72-0.144h-0.016c4.848-12.352 10.016-1.984 15.104-0.288 10.496 3.52 21.504-7.68 20.864-20.592 0.096-4.72 0.56-9.264 1.36-13.68l-0.080 0.512c3.696 3.392 9.664 6.192 10.656 10.24 1.376 6.192 2.176 13.312 2.176 20.592 0 2.128-0.064 4.224-0.192 6.304l0.016-0.272c0 5.568-3.76 11.696 6.624 7.024 5.152-2.4 9.024-2.112 5.216 5.2 0 0.4-0.592 1.184-0.4 1.344 10.784 12.288 8.144 29.856 17.152 42.848 1.088 1.36 1.824 3.072 1.984 4.944v0.032c-0.288 11.696-15.168 31.008-26.544 34.064-0.88 0.128-1.888 0.192-2.944 0.192s-2.048-0.080-3.040-0.192l0.112 0.016c0.4-1.696 0.768-3.456 1.232-5.104 0.832-2.688 1.76-5.376 2.64-8.016s3.232-4.8 3.168-7.152c0-1.408-3.392-2.704-5.28-4.048l1.232 7.712c1.456 1.12 1.52 2.048 1.648 3.040zM185.44 237.152c0 10.72-0.288 21.424 0 32.128 0 2.64 2.288 7.152 4.096 7.488 5.872 1.12 5.216-4.208 5.216-7.84 0-14.096 0-28.272 0-42.368 0-0.096 0-0.224 0-0.32 0-3.024 0.912-5.824 2.496-8.16l-0.032 0.048c2.256-1.968 3.648-4.848 3.648-8.048 0-3.68-1.84-6.912-4.672-8.832l-0.032-0.032c-1.808-1.712-4.256-2.752-6.928-2.752-0.208 0-0.384 0-0.592 0.016h0.032c-1.584 0.352-3.328 4.224-3.392 6.56 0 10.72 0.176 21.6 0.176 32.128zM338.112 247.28c-1.168 1.344-2.512 2.208-2.512 3.168s1.232 2.048 1.888 3.040c1.232-0.944 2.32-2.016 3.248-3.184l0.032-0.032c0 0-1.52-1.696-2.64-2.992z"></path>
<path d="M235.184 43.584c0 9.776 0 19.504 0 29.264 0.112 0.512 0.144 1.12 0.144 1.728 0 4.944-3.824 8.992-8.688 9.344h-0.032c-11.12 2.64-21.904 6.72-32.816 10.112-22.432 7.424-41.6 19.488-57.168 35.12-16.448 16.064-29.968 35.008-39.76 56.064l-0.496 1.168c-13.232 29.264-14.944 58.528-13.184 89.2 1.28 23.424 10.656 44.544 21.152 65.152 13.824 26.992 35.744 46.24 60.688 62.512 17.024 11.008 37.008 19.152 58.416 23.248l1.040 0.176c5.856 1.232 10.88 2.864 10.72 10.832-0.352 20.48 0 40.96 0 61.456-0.384 1.856-0.992 3.504-1.808 5.024l0.048-0.096c-1.184-1.136-2.224-2.368-3.12-3.728l-0.048-0.080c-4.336-8.368-8.944-18.816-12.96-29.536l-0.688-2.128c-1.312-5.104-5.296-9.024-10.336-10.224l-0.096-0.016c-30.464-8.608-57.056-21.744-80.576-38.88l0.72 0.496c-2.464-2.496-5.888-4.032-9.696-4.032-2.096 0-4.080 0.464-5.856 1.312l0.080-0.032c-5.152 1.744-11.296 3.216-17.632 4.144l-0.608 0.080c-8.208 1.936-12.064-0.704-8.496-7.84 11.712-23.424-1.12-40.624-12.24-59.344-10.656-17.936-17.872-39.104-20.16-61.744l-0.048-0.656c0-0.016 0-0.048 0-0.080 0-8.464-5.552-15.632-13.216-18.032l-0.144-0.032c-11.712-4.32-23.024-9.424-34.448-14.4-5.104-2.224-5.392-5.376 0-7.488 10.656-4.272 21.376-8.368 32.288-12.064 8.192-1.872 14.368-8.656 15.344-17.008l0.016-0.096c4.080-32.56 16.272-61.68 34.496-86.032l-0.336 0.48c6.912-9.36 13.36-17.568 4.336-29.264-0.992-1.232 0-3.792-0.592-5.856-1.056-5.856-2.176-11.232-3.28-16.864 5.872 0.88 11.312 1.344 16.816 2.688 4.624 1.12 8.976 3.856 13.6 4.512 0.832 0.112 1.776 0.176 2.736 0.176 3.408 0 6.608-0.768 9.488-2.16l-0.128 0.064c17.568-9.536 35.152-20.192 52.736-29.264 7.344-2.976 16.432-5.904 25.744-8.224l1.488-0.304c2.88-1.12 5.184-3.184 6.592-5.776l0.032-0.064c5.344-11.712 10.080-23.408 15.232-35.12 0.4-0.992 1.936-1.456 3.008-2.176 0.528 1.232 1.52 2.4 1.52 3.632 0 10.24 0 20.496 0 30.736z"></path>
<path d="M277.072 466.608c0-9.248 0.528-18.56 0-27.808-0.592-7.44 3.168-10.128 9.312-12.176 21.424-6.064 38.96-12.24 56-19.36l-3.264 1.216c21.744-9.952 37.904-27.152 53.6-45.248 17.68-20.88 30.144-46.72 35.024-75.168l0.144-0.944c4.816-26 6.336-54.032-5.152-80.080-5.856-13.472-11.072-27.344-17.568-40.56-10.496-21.552-28.24-36.576-46.88-51.216-20.24-15.536-44.704-26.672-71.344-31.456l-1.008-0.16c-4.944-0.112-8.928-4.144-8.928-9.12 0-0.56 0.048-1.104 0.144-1.648l-0.016 0.064c0-20.016 0-39.968 0-60 0.256-1.872 0.736-3.584 1.392-5.184l-0.048 0.144c1.28 1.168 3.040 2.112 3.696 3.568 4.928 8.768 9.616 19.088 13.44 29.824l0.448 1.44c1.68 6.624 7.344 11.536 14.24 12.064h0.048c28.096 6.336 52.64 18.736 73.168 35.824l-0.288-0.224c3.712 3.44 8.688 5.552 14.176 5.552 3.536 0 6.88-0.88 9.792-2.432l-0.112 0.064c4.976-2.288 10.848-4.288 16.928-5.712l0.64-0.128c3.856-0.88 8.544-0.592 4.816 5.856-1.344 2.336 0 6.144-1.456 8.496-10.72 18.032-3.568 33.312 7.088 48 13.776 19.792 22.96 43.728 25.552 69.616l0.048 0.624c0.144 8.064 5.136 14.912 12.176 17.808l0.128 0.048c11.712 4.848 23.792 10.016 35.68 15.104 1.456 0.656 2.928 1.456 4.384 2.208-1.12 0.928-2.048 2.336-3.328 2.8-11.136 4.256-22.288 8.448-33.456 12.592-7.92 2.32-13.84 8.976-15.040 17.152l-0.016 0.112c-1.888 18.8-7.232 35.968-15.376 51.456l0.368-0.768c-6.976 12.992-11.712 28.096-21.376 38.464-10.48 11.232-4.16 21.024-3.568 31.6 0 1.344 1.456 2.576 1.648 3.92 0.528 4.048 0.768 8.080 1.056 12.064-3.632-0.656-7.264-1.12-10.848-1.984-4.128-0.688-7.84-1.84-11.28-3.44l0.256 0.112c-2.656-1.584-5.856-2.528-9.28-2.528-5.184 0-9.888 2.144-13.216 5.6-21.152 17.568-46.336 26.752-71.888 35.12-6.032 1.376-10.752 5.84-12.496 11.6l-0.032 0.128c-3.632 10.352-8.784 20.192-13.424 30.208-0.464 1.056-1.984 1.632-3.040 2.464-0.528-1.12-1.584-2.224-1.584-3.328 0-10.72 0-21.424 0-32.128z"></path>
</svg>
