<!-- Generated by IcoMoon.io -->
<svg version="1.1" xmlns="http://www.w3.org/2000/svg" width="32" height="32" viewBox="0 0 32 32">
<title>bladeborn-godsworn</title>
<path d="M14.577 2.807c0 0.639 0 1.278 0 1.916 0 0.386-0.135 0.624-0.56 0.675-1.169 0.18-2.221 0.548-3.174 1.073l0.050-0.025c-0.721 0.377-1.342 0.821-1.894 1.337l0.005-0.004c-1.036 0.871-1.909 1.895-2.594 3.045l-0.030 0.054c-0.448 0.846-0.823 1.827-1.077 2.856l-0.018 0.090c-0.152 0.634-0.237 1.363-0.237 2.112 0 0.939 0.137 1.846 0.391 2.702l-0.018-0.067c0.398 1.397 0.956 2.618 1.67 3.732l-0.033-0.055c0.034 0.092 0.075 0.171 0.127 0.244l-0.002-0.003c1.184 1.15 2.247 2.413 3.793 3.173 0.741 0.384 1.6 0.676 2.507 0.829l0.051 0.007c0.205 0.033 0.399 0.128 0.603 0.179 0.247 0.035 0.434 0.245 0.434 0.499 0 0.003 0 0.006 0 0.009 0 1.398 0 2.796 0 4.191 0 0.055-0.047 0.109-0.070 0.161-0.055-0.047-0.132-0.087-0.157-0.149-0.242-0.551-0.475-1.095-0.709-1.657-0.209-0.634-0.734-1.109-1.384-1.247l-0.012-0.002c-1.421-0.352-2.662-0.971-3.727-1.805l0.021 0.016c-0.291-0.217-0.621-0.418-0.969-0.586l-0.036-0.016c-0.091-0.036-0.198-0.057-0.308-0.057-0.078 0-0.152 0.011-0.224 0.029l0.006-0.001c-0.527 0.12-1.045 0.27-1.564 0.409-0.322 0.084-0.475-0.047-0.366-0.365 0.117-0.405 0.26-0.803 0.402-1.197 0.059-0.15 0.094-0.325 0.094-0.507 0-0.348-0.125-0.666-0.332-0.912l0.002 0.002c-0.472-0.727-0.92-1.567-1.296-2.445l-0.042-0.111c-0.476-0.929-0.788-2.017-0.868-3.168l-0.002-0.026c0-0.365-0.337-0.395-0.563-0.504-0.705-0.343-1.425-0.654-2.13-0.989-0.118-0.079-0.22-0.168-0.309-0.268l-0.002-0.002c0.1-0.103 0.211-0.193 0.332-0.269l0.008-0.005c0.731-0.322 1.488-0.624 2.226-0.945 0.263-0.073 0.453-0.307 0.457-0.587 0.141-1.277 0.486-2.443 1.004-3.51l-0.028 0.064c0.456-0.941 0.952-1.749 1.519-2.502l-0.027 0.037c0.145-0.146 0.234-0.348 0.234-0.57 0-0.090-0.014-0.177-0.041-0.258l0.002 0.006c-0.213-0.529-0.088-1.131-0.432-1.646-0.182-0.281 0.066-0.514 0.424-0.434 0.559 0.1 1.050 0.235 1.522 0.41l-0.060-0.020c0.104 0.044 0.224 0.069 0.35 0.069 0.218 0 0.418-0.075 0.576-0.202l-0.002 0.001c0.238-0.132 0.446-0.307 0.676-0.452 1.034-0.668 2.075-1.307 3.318-1.54 0.86-0.15 1.534-0.803 1.711-1.64l0.003-0.013c0.164-0.504 0.333-0.92 0.525-1.321l-0.028 0.065c0.048-0.076 0.102-0.141 0.164-0.197l0.001-0.001c0.044 0.095 0.124 0.19 0.124 0.285 0 0.668 0 1.336 0 2.004z"></path>
<path d="M17.24 29.134c0-0.607 0-1.216 0-1.825s0-0.562 0.566-0.683c0.712-0.13 1.325-0.291 1.92-0.495l-0.093 0.028c1.466-0.545 2.715-1.372 3.736-2.422l0.002-0.002c0.572-0.52 1.082-1.092 1.527-1.713l0.022-0.033c0.447-0.732 0.869-1.581 1.218-2.468l0.039-0.113c0.493-1.216 0.285-2.5 0.365-3.76 0.010-0.149 0.015-0.325 0.015-0.5 0-1.733-0.526-3.343-1.427-4.681l0.020 0.030c-0.547-0.93-1.193-1.727-1.941-2.417l-0.007-0.007c-0.502-0.47-1.048-0.909-1.626-1.306l-0.048-0.031c-1.027-0.664-2.237-1.143-3.536-1.358l-0.055-0.008c-0.676-0.105-0.709-0.132-0.731-0.789 0-1.278 0-2.555 0-3.829 0.013-0.095 0.039-0.181 0.078-0.261l-0.002 0.005c0.077 0.073 0.186 0.132 0.227 0.219 0.3 0.675 0.603 1.35 0.862 2.044 0.112 0.31 0.368 0.543 0.684 0.619l0.007 0.001c0.771 0.241 1.531 0.522 2.288 0.822 0.971 0.384 1.761 1.032 2.627 1.566 0.166 0.134 0.378 0.215 0.611 0.215 0.139 0 0.273-0.030 0.394-0.082l-0.006 0.003c0.385-0.15 0.849-0.286 1.327-0.385l0.058-0.009c0.241-0.055 0.417 0.025 0.329 0.346-0.135 0.489-0.219 1-0.384 1.479-0.043 0.119-0.068 0.256-0.068 0.399 0 0.295 0.106 0.564 0.281 0.775l-0.002-0.002c0.467 0.669 0.913 1.434 1.291 2.235l0.042 0.098c0.257 0.626 0.507 1.396 0.705 2.187l0.026 0.123c0.084 0.257 0.146 0.555 0.175 0.864l0.001 0.016c0.016 0.349 0.245 0.641 0.557 0.754l0.006 0.002c0.552 0.244 1.096 0.479 1.659 0.712 0.199 0.065 0.365 0.133 0.524 0.211l-0.023-0.011c0.12 0.087 0.223 0.186 0.313 0.296l0.002 0.003c-0.086 0.073-0.18 0.141-0.279 0.2l-0.009 0.005c-0.705 0.328-1.399 0.694-2.13 0.956-0.346 0.077-0.604 0.37-0.625 0.728v0.002c-0.37 2.26-1.256 4.264-2.532 5.959l0.025-0.035c-0.121 0.139-0.195 0.323-0.195 0.522 0 0.082 0.012 0.161 0.035 0.236l-0.002-0.006c0.114 0.431 0.219 0.869 0.311 1.307 0.132 0.628 0.043 0.73-0.607 0.632-0.33-0.061-0.62-0.147-0.897-0.259l0.031 0.011c-0.152-0.065-0.33-0.103-0.515-0.103-0.318 0-0.61 0.111-0.84 0.295l0.003-0.002c-1.253 0.971-2.744 1.7-4.368 2.091l-0.079 0.016c-0.407 0.035-0.73 0.357-0.767 0.759v0.003c0 0.134-0.124 0.262-0.19 0.394l-0.888 1.767-0.077-2.077c0.037-0.084 0.040-0.175 0.040-0.266z"></path>
<path d="M16.162 9.316c0.987 0.139 1.812 0.727 2.272 1.547l0.008 0.015c0.208 0.365 0.461 0.712 0.636 1.095 0.131 0.278 0.214 0.602 0.23 0.943v0.006c0.007 0.537 0.15 1.039 0.395 1.475l-0.007-0.016c0.442 0.781 0.073 2.191-0.709 2.636-1.009 0.595-1.348 1.552-1.461 2.61-0.070 0.57 0 1.154-0.022 1.726s-0.118 1.136-0.205 1.701c0 0.099-0.149 0.262-0.215 0.256-0.138-0.024-0.254-0.101-0.332-0.207l-0.001-0.002c-0.196-0.352-0.565-0.587-0.99-0.587-0.253 0-0.487 0.084-0.675 0.224l0.003-0.002c-0.095 0.077-0.084 0.274-0.15 0.402-0.029 0.055-0.139 0.070-0.213 0.102-0.209-0.577-0.566-1.095-0.446-1.782 0.056-0.299 0.088-0.644 0.088-0.996 0-1.015-0.268-1.968-0.735-2.792l0.015 0.028c-0.163-0.25-0.381-0.451-0.637-0.591l-0.010-0.005c-0.833-0.504-1.308-1.672-0.907-2.519 0.26-0.534 0.422-1.157 0.446-1.817v-0.008c0.073-0.474 0.234-0.898 0.465-1.274l-0.009 0.014c0.209-0.375 0.421-0.695 0.653-0.998l-0.014 0.020c0.611-0.723 1.512-1.186 2.521-1.208h0.004zM17.495 16.795c0.391 0.048 0.603-0.194 0.822-0.467 0.366-0.467 0.080-0.927 0-1.384s-0.329-0.5-0.607-0.194c-0.352 0.381-0.676 0.8-0.961 1.245l-0.021 0.036c-0.248 0.386-0.135 0.595 0.311 0.73 0.124 0.021 0.268 0.033 0.414 0.033 0.014 0 0.030 0 0.045 0zM14.55 16.795c0.661 0 0.826-0.26 0.504-0.828-0.18-0.335-0.38-0.625-0.608-0.89l0.006 0.007c-0.204-0.195-0.428-0.372-0.665-0.529l-0.018-0.011c-0.096 0.216-0.197 0.488-0.282 0.767l-0.014 0.054c-0.032 0.099-0.050 0.211-0.050 0.329 0 0.604 0.491 1.095 1.096 1.095 0.012 0 0.022 0 0.034-0.001h-0.002zM16.491 20.275c-0.154-0.013-0.334-0.020-0.515-0.020s-0.361 0.008-0.538 0.022l0.023-0.002c-0.179 0.033-0.424 0.73-0.307 0.887 0.134 0.224 0.328 0.401 0.559 0.511l0.008 0.003c0.071 0.026 0.154 0.041 0.24 0.041 0.267 0 0.5-0.143 0.627-0.355l0.002-0.003c0.046-0.126 0.072-0.271 0.072-0.422 0-0.257-0.076-0.496-0.207-0.697l0.003 0.005c-0.037-0.029-0.102-0.037 0.033 0.022z"></path>
</svg>
