<!-- Generated by IcoMoon.io -->
<svg version="1.1" xmlns="http://www.w3.org/2000/svg" width="512" height="512" viewBox="0 0 512 512">
<title></title>
<g id="icomoon-ignore">
</g>
<path d="M345.939 151.352c-8.231 6.513-19.464 18.988-22.9 25.427-5.133 9.619-7.3 9.175-16.060-3.288-5.31-7.553-11.082-13.547-16.143-16.756-6.771-4.294-6.829-3.294-0.271 4.731 15.303 18.724 17.894 44.53 5.752 57.297-2.531 2.663-3.648 2.724-8.725 0.479-13.447-5.947-32.825-6.023-46.907-0.18-15.718 6.522-19.679 1.641-19.649-24.201 0.020-16.573 0.894-20.311 7.135-30.53 5.035-8.245 4.922-7.961 2.524-6.392-2.97 1.946-11.641 12.209-17.315 20.496-8.586 12.535-12.819 12.008-20.558-2.564-6.103-11.493-18.055-20.292-27.647-20.356-4.578-0.031-5.227 1.403-0.965 2.13 10.274 1.755 20.649 13.53 18.136 20.581-1.306 3.665-2.707 3.81-9.908 1.033-10.010-3.859-9.459-0.701 0.709 4.084 22.295 10.49 36.657 28.844 26.467 33.827-4.328 2.117-14.992-0.543-18.339-4.576-1.295-1.56-4.066-1.665-4.066-0.153 0 3.262 12.233 10.806 22.825 14.074 6.352 1.961 9.524 3.746 12.886 7.261l2.367 2.474-2.969 3.041c-3.53 3.615-3.645 4.178-0.855 4.178 6.573 0 13.732 11.284 10.725 16.905-0.452 0.844-1.162 5.121-1.58 9.505s-1.368 9.247-2.111 10.806l-1.351 2.832 4.794 7.495c4.39 6.864 5.215 7.707 9.786 10.006 6.589 3.313 7.956 4.661 9.294 9.169 0.617 2.080 1.721 4.94 2.454 6.356s1.506 5.167 1.718 8.338c0.832 12.407 0.733 12.133 6.101 16.62 6.16 5.147 5.866 5.665 7.032-12.462 1.195-18.553 1.659-21.597 3.351-21.923 1.919-0.371 2.289 3.489 2.3 23.894l0.008 18.041 3.247-3.17c6.351-6.202 9.33-11.941 11.106-21.4 2.282-12.146 6.973-19.232 15.824-23.913 4.877-2.578 5.677-4.178 7.574-15.132l1.492-8.62-2.019-2.961c-5.676-8.326-2.736-22.876 6.171-30.548 3.127-2.693 3.751-3.637 3.151-4.759-2.51-4.691 0.79-10.685 6.372-11.571 13.345-2.115 22.409-7.144 26.99-14.969l1.57-2.68-2.372 1.51c-1.304 0.831-3.096 2.143-3.979 2.918-8.067 7.063-21.291 4.863-21.291-3.542 0-8.107 14.181-25.395 20.827-25.395 0.442 0 2.861-0.769 5.374-1.708 5.031-1.883 4.759-2.56-1.377-3.446-5.129-0.739-7.149-2.817-7.149-7.357 0-5.804 2.796-10.39 13.56-22.239 2.813-3.097 2.003-2.761-3.113 1.29l-0.002-0.004zM288.031 279.329c3.401 4.324 0.404 8.157-7.728 9.882-11.94 2.533-12.548-4.593-0.872-10.253 4.618-2.239 6.615-2.153 8.6 0.372v0zM245.292 281.355c6.649 4.086 8.333 10.925 2.458 9.984-7.153-1.143-13.494-4.982-13.494-8.169 0-4.55 5.196-5.406 11.036-1.816l-0 0.001zM288.264 312.959c-5.459 6.201-6.449 14.082-4.223 33.541 0.952 8.31 0.923 8.762-0.789 12.294-2.282 4.713-1.679 5.224 1.863 1.578 7.354-7.572 12.164-21.68 12.192-35.756 0.029-14.876-2.896-18.644-9.043-11.657h0.001zM225.615 316.38c-5.798 12.386-1.927 35.418 7.627 45.393 2.428 2.534 4.774 3.038 3.766 0.807-1.326-2.93-1.344-16.853-0.030-20.861 2.396-7.305 3.207-22.040 1.635-29.759-0.332-1.635-0.833-1.808-5.226-1.808h-4.857l-2.914 6.228z"></path>
<path d="M426.768 94.88c-1.68 8.288-3.872 15.488-6.624 22.4l0.304-0.864c-1.232 2.080-1.968 4.592-1.968 7.264 0 4.24 1.84 8.064 4.768 10.688l0.016 0.016c10.064 12.368 18.208 26.768 23.712 42.448l0.32 1.008c5.568 13.12 9.792 28.368 11.92 44.272l0.096 0.912c0.128 5.584 3.616 10.304 8.512 12.256l0.096 0.032c14.768 5.2 27.712 14.864 43.536 17.568 0.896 0.384 1.68 0.896 2.336 1.52-0.624 0.624-1.376 1.168-2.176 1.616l-0.048 0.032c-10.656 3.92-21.968 6.432-30.88 14.224-16.64 0-21.92 10.080-22.624 25.232-1.056 8.688-3.104 16.608-6.080 24.064l0.224-0.64c-2.4 8.688-5.312 16.16-8.88 23.28l0.336-0.736c-5.568 12.048-12.032 22.448-19.632 31.92l0.224-0.288c-10.32 11.696-8.912 22.656-4.848 35.12 1.28 4.080 2.944 8.016 3.984 12.176s-1.344 5.856-4.752 4.752c-7.264-2.048-14.544-4.16-21.68-6.624-2.016-0.944-4.4-1.488-6.88-1.488-4.080 0-7.824 1.472-10.72 3.904l0.032-0.016c-10.48 8.56-22.448 15.952-35.328 21.664l-1.008 0.4c-6.96 2.864-13.824 5.856-20.864 8.544s-13.712 4.048-20.096 7.024c-3.472 1.344-6.272 3.808-8 6.944l-0.048 0.080c-5.856 10.768-9.136 22.544-14.416 33.488-0.672 1.104-1.792 1.856-3.088 2.048h-0.016c-0.992 0-1.936-1.52-2.752-2.512-0.096-0.208-0.16-0.448-0.16-0.704s0.064-0.496 0.16-0.72v0.016c4.384-19.968-2.048-39.856-0.464-59.936-0.032-0.256-0.032-0.544-0.032-0.848 0-4.944 3.824-9.008 8.672-9.392h0.032c12.832-3.28 25.488-7.088 38.192-10.656 1.52-0.512 2.832-1.088 4.064-1.776l-0.144 0.064c25.552-12.704 47.040-29.952 64.192-50.88l0.256-0.336c5.856-7.44 10.784-15.168 15.936-22.944 5.456-8.608 9.824-18.576 12.512-29.2l0.16-0.72c0.176-1.52 0.544-2.896 1.088-4.192l-0.032 0.096c8.368-12.88 8.256-27.28 7.792-41.808v-7.312c0-35.952 0.656-36.176-12.064-68.496-5.936-14.592-13.232-27.2-21.968-38.624l0.304 0.4c-10.336-14.144-22.464-26.192-36.256-36.080l-0.48-0.336c-8.736-5.856-17.568-11.696-26.768-17.552-1.344-0.64-2.912-1.008-4.592-1.008-0.448 0-0.88 0.032-1.312 0.080h0.048c-3.952-0.32-7.568-1.552-10.72-3.456l0.112 0.064c-7.648-3.28-16.672-6.128-26.032-8.048l-0.928-0.16c-8.544-1.936-11.312-3.984-11.712-12.656v-59.968c0-1.12 1.056-2.176 1.712-3.264 0.928 0.368 1.712 0.88 2.4 1.52 1.824 2.416 3.52 5.168 4.976 8.064l0.144 0.304c3.392 7.776 6.848 15.632 9.664 23.712 1.888 6.064 6.944 10.608 13.2 11.68l0.112 0.016c13.952 2.832 26.32 7.232 37.808 13.088l-0.832-0.384c14.944 6.864 27.792 14.688 39.632 23.776l-0.48-0.352c3.68 3.040 8.448 4.864 13.632 4.864 2.768 0 5.424-0.528 7.84-1.472l-0.144 0.048c7.712-1.664 14.128-3.472 20.384-5.648l-1.232 0.368c4.624-1.712 4.336 0.704 4.4 7.024l-0.080 0.016z"></path>
<path d="M234.384 29.552c-0.928 4.912-2.4 11.408-3.344 18.032-0.064 0.736-0.096 1.616-0.096 2.496 0 2.112 0.208 4.176 0.608 6.176l-0.032-0.208c0.8 3.44 1.488 7.744 1.952 12.144l0.048 0.512c0.304 13.12 0 12.352-12.832 15.28-28.656 6.496-55.776 16.384-77.008 38.16-4.368 4.048-9.12 7.888-14.096 11.408l-0.432 0.288c-12.48 9.824-18.992 24.112-26.944 37.104-7.088 11.712-14.768 23.424-15.008 37.888-10.32 22.176-5.872 45.84-5.216 68.672 1.584 17.952 6.512 34.432 14.176 49.28l-0.336-0.752c10.624 23.52 25.552 43.376 43.92 59.36l0.192 0.176c10.928 9.952 23.28 18.624 36.656 25.6l0.96 0.448c3.456 1.52 7.888 3.136 12.4 4.512l0.896 0.24c10.656 4.496 23.344 8.528 36.464 11.424l1.504 0.288c3.808 0.704 5.040 2.512 4.736 5.856-1.28 14.336 2.176 28.8-2.176 43.2-1.584 5.376 1.456 12.064 2.112 18.144 0.144 1.088 0.224 2.352 0.224 3.632s-0.080 2.544-0.224 3.776l0.016-0.16c-0.352 0.864-1.104 1.52-2.032 1.68h-0.016c-1.232 0-3.456-0.88-3.52-1.52-1.168-14.688-10.544-26.224-15.408-39.456-0.752-1.984-3.104-4.752-4.848-4.8-14.176-0.88-25.072-11.696-39.312-12.224-14.112-9.664-31.056-14.864-43.072-27.68-2.176-2.656-5.456-4.352-9.12-4.352-1.408 0-2.736 0.256-3.968 0.688l0.080-0.032c-8.672 2.4-17.28 4.8-25.888 7.376-4.096 1.232-5.344-0.88-5.152-4.272 0.256-2.592 0.72-4.944 1.408-7.232l-0.064 0.256c2.176-8.192 4.624-16.336 6.512-24.592-0.128-2.24-0.976-4.272-2.368-5.856l0.016 0.016c-13.824-19.296-24.944-41.696-32.16-65.776l-0.416-1.6c-2.064-6.56-3.856-14.464-5.008-22.592l-0.096-0.832c-1.28-10.544-4.736-16.384-14.88-18.032-12.432-1.936-21.92-9.024-32.16-14.992-2.704-1.52-1.888-1.808 0-3.52 9.424-8.016 21.328-10.352 32.464-14.224 8.4-2.144 14.576-9.584 14.704-18.48v-0.016c1.504-14.224 4.816-27.28 9.728-39.52l-0.352 0.992c7.44-20.32 18.032-37.824 31.328-52.848l-0.16 0.176c1.952-1.776 3.184-4.32 3.184-7.168 0-1.664-0.416-3.232-1.168-4.592l0.032 0.048c-2.752-5.584-4.64-12.064-5.312-18.912l-0.016-0.24c-2.336-15.152-2.992-15.088 12.368-10.304 7.216 2.288 14.704 7.376 21.44 6.432s13.056-7.44 19.104-12.064c13.824-10.592 30.24-16.112 45.472-23.888 5.168-1.84 11.232-3.264 17.504-4.064l0.432-0.048c5.152-0.784 9.264-4.448 10.704-9.264l0.032-0.096c4.096-11.696 11.712-21.904 14-34.304 0-0.768 0.992-1.456 1.456-2.224 1.168 0.88 3.168 1.584 3.328 2.576 0.768 5.040 1.232 10.768 2.112 18.32l-0.032 0.080z"></path>
</svg>
