<!-- Generated by IcoMoon.io -->
<svg version="1.1" xmlns="http://www.w3.org/2000/svg" width="32" height="32" viewBox="0 0 32 32">
<title>bladeborn-grashrak</title>
<path d="M14.809 1.582c-0.048 0.213-0.090 0.48-0.118 0.751l-0.003 0.031c-0.022 0.388 0 0.775 0 1.163 0 0.058 0.055 0.109 0.070 0.168 0.245 1.137 0 1.506-1.145 1.741-1.662 0.388-3.116 1.111-4.347 2.1l0.021-0.016c-1.194 0.92-2.161 2.072-2.843 3.395l-0.026 0.056c-0.675 1.156-1.089 2.536-1.127 4.012v0.011c0 0.395 0.025 0.789 0 1.185-0.103 1.525 0.366 2.926 0.963 4.278 0.721 1.579 1.778 2.895 3.087 3.898l0.024 0.017c1.303 1.051 2.885 1.814 4.616 2.164l0.070 0.012c0.648 0.128 0.765 0.219 0.732 0.892s0.139 1.393-0.139 2.073c-0.058 0.142 0.041 0.365 0.055 0.527 0.033 0.365 0.077 0.731 0.080 1.096 0 0.121-0.114 0.245-0.176 0.365-0.092-0.089-0.171-0.19-0.238-0.3l-0.004-0.007c-0.332-0.768-0.652-1.543-0.988-2.308-0.060-0.104-0.154-0.181-0.268-0.218l-0.004-0.001c-0.396-0.143-0.795-0.278-1.197-0.387-1.5-0.436-2.8-1.14-3.912-2.065l0.018 0.013c-0.168-0.179-0.406-0.291-0.671-0.291-0.156 0-0.303 0.039-0.432 0.107l0.005-0.002c-0.351 0.122-0.765 0.22-1.192 0.278l-0.034 0.004c-0.421 0.103-0.557 0-0.472-0.428 0.062-0.322 0.165-0.641 0.252-0.958 0.062-0.178 0.098-0.384 0.098-0.598 0-0.421-0.139-0.809-0.372-1.122l0.004 0.005c-1.089-1.464-1.815-3.257-2.013-5.206l-0.004-0.045c-0.043-0.494-0.388-0.702-0.802-0.882-0.732-0.311-1.427-0.651-2.134-0.987-0.094-0.063-0.177-0.134-0.248-0.214l-0.001-0.001c0.064-0.051 0.136-0.101 0.211-0.145l0.009-0.005c0.495-0.223 0.992-0.443 1.489-0.658 0.275-0.121 0.557-0.227 0.835-0.34 0.391-0.151 0.663-0.524 0.663-0.96 0-0.003 0-0.006 0-0.009v0.001c0.186-1.552 0.697-2.955 1.463-4.182l-0.025 0.043c0.366-0.556 0.772-1.072 1.124-1.63 0.052-0.107 0.082-0.234 0.082-0.368 0-0.072-0.009-0.141-0.025-0.209l0.001 0.006c-0.124-0.589-0.307-1.163-0.431-1.748-0.073-0.365 0.084-0.471 0.454-0.365 0.146 0.041 0.293 0.077 0.435 0.124 1.358 0.414 1.398 0.472 2.508-0.311 1.072-0.759 2.323-1.352 3.671-1.708l0.080-0.019c0.53-0.098 0.95-0.485 1.096-0.988l0.003-0.010c0.241-0.649 0.469-1.169 0.722-1.675l-0.045 0.099c0.056-0.107 0.109-0.196 0.168-0.281l-0.007 0.011c0.079 0.083 0.146 0.179 0.195 0.286l0.003 0.007c0.050 0.193 0.099 0.44 0.135 0.69l0.004 0.038z"></path>
<path d="M26.876 5.86c-0.148 0.668-0.305 1.22-0.491 1.757l0.034-0.112c-0.048 0.091-0.077 0.199-0.077 0.314 0 0.195 0.081 0.37 0.211 0.494 1.019 1.262 1.76 2.792 2.104 4.466l0.011 0.068c0.080 0.365 0.118 0.709 0.194 1.061 0.059 0.404 0.33 0.732 0.695 0.871l0.008 0.003c0.841 0.325 1.673 0.676 2.507 1.016 0.057 0.031 0.107 0.062 0.153 0.097l-0.003-0.002c-0.041 0.041-0.073 0.103-0.121 0.113-0.85 0.209-1.545 0.79-2.409 0.98-0.43 0.090-0.759 0.436-0.823 0.868l-0.001 0.006c-0.084 0.443-0.109 0.896-0.209 1.335-0.080 0.348-0.241 0.676-0.34 1.020-0.392 1.389-1.182 2.559-2.009 3.715-0.101 0.109-0.163 0.254-0.163 0.414 0 0.087 0.018 0.17 0.051 0.244l-0.002-0.004c0.172 0.443 0.282 0.911 0.414 1.371 0.023 0.077 0.037 0.168 0.037 0.26 0 0.003 0 0.005 0 0.007 0 0.241-0.055 0.425-0.365 0.326-0.429-0.132-0.871-0.231-1.296-0.365-0.123-0.057-0.268-0.091-0.421-0.091-0.261 0-0.498 0.099-0.679 0.261l0.001-0.001c-0.315 0.27-0.699 0.464-1.032 0.732-0.937 0.709-2.061 0.987-3.137 1.353-0.648 0.223-1.098 0.505-1.318 1.185-0.228 0.615-0.466 1.13-0.738 1.624l0.031-0.062c-0.041 0.080-0.183 0.109-0.278 0.161-0.022-0.103-0.088-0.219-0.066-0.311 0.062-0.268 0.097-0.577 0.097-0.894s-0.036-0.625-0.103-0.922l0.005 0.028c-0.048-0.425-0.075-0.916-0.075-1.413 0-0.238 0.006-0.474 0.018-0.708l-0.001 0.033c0-0.263 0.146-0.365 0.384-0.414 0.578-0.154 1.134-0.387 1.72-0.509 1.563-0.332 2.775-1.254 3.923-2.285 0.157-0.143 0.293-0.311 0.454-0.45 1.256-1.078 1.918-2.516 2.504-4.022 0.321-0.794 0.506-1.714 0.506-2.679 0-0.19-0.007-0.377-0.021-0.563l0.002 0.025c-0.062-0.933 0.091-1.869-0.175-2.801-0.864-3.027-2.529-5.44-5.303-7.020-0.975-0.557-2.111-0.968-3.319-1.166l-0.059-0.007c-0.274-0.048-0.446-0.099-0.472-0.417-0.037-0.45-0.157-0.892-0.168-1.338-0.025-0.911 0-1.828 0-2.739 0-0.091 0.113-0.183 0.172-0.274 0.088 0.066 0.216 0.113 0.252 0.201 0.252 0.577 0.498 1.159 0.732 1.752 0.176 0.482 0.586 0.841 1.089 0.942l0.010 0.002c1.783 0.489 3.336 1.296 4.67 2.364l-0.025-0.020c0.366 0.285 0.732 0.198 1.124 0.099 0.462-0.102 0.84-0.207 1.209-0.331l-0.082 0.024c0.348-0.124 0.446 0.008 0.457 0.332z"></path>
<path d="M9.791 11.273c0-0.245 0-0.486 0-0.732 0-0.043 0.062-0.084 0.099-0.128 0.037 0.043 0.103 0.088 0.106 0.136 0.048 0.506 0.3 0.945 0.67 1.24l0.004 0.003c0.313 0.331 0.756 0.537 1.248 0.537 0.424 0 0.812-0.153 1.111-0.408l-0.003 0.002c0.486-0.352 1.041-0.695 1.62-0.999l0.076-0.036c0.161-0.084 0.618-0.398 0.608 0.23 0 0.121 0 0.311 0.11 0.018 0.264-0.771 0.918-0.512 1.384-0.398 0.586 0.196 1.093 0.445 1.56 0.748l-0.027-0.016c0.293 0.157 0.256 0.461 0.26 0.731 0 0.132 0.033 0.268 0.186 0.124 0.216-0.202 0.396-0.161 0.652-0.048 0.202 0.082 0.436 0.13 0.682 0.13 0.601 0 1.136-0.286 1.475-0.729l0.003-0.005 0.53-0.709c0.068 0.279 0.11 0.6 0.114 0.93v0.003c-0.045 1.227-1.001 2.216-2.21 2.314l-0.009 0.001c-0.746 0.061-1.328 0.681-1.328 1.436 0 0.072 0.005 0.141 0.016 0.209l-0.001-0.007c0.011 0.041 0.016 0.090 0.016 0.139 0 0.323-0.258 0.585-0.58 0.592h-0.001c-0.622 0.124-0.611 0.124-0.648 0.731-0.033 0.509-0.099 1.016-0.143 1.525 0 0.117-0.033 0.274 0.025 0.348 0.406 0.472 0.058 0.83-0.161 1.199-0.15 0.246-0.299 0.457-0.462 0.658l0.007-0.011c-0.161 0.194-0.365 0.365-0.527 0.548-0.029-0.205-0.074-0.41-0.091-0.614-0.001-0.348-0.19-0.653-0.471-0.816l-0.005-0.003c-0.154-0.097-0.278-0.229-0.364-0.386l-0.003-0.006c-0.117-0.23-0.025-0.888-0.483-0.179 0 0-0.282-0.114-0.285-0.179-0.002-0.069-0.002-0.15-0.002-0.232 0-0.332 0.015-0.661 0.042-0.985l-0.003 0.043c0-0.238 0.103-0.472 0.109-0.709 0-0.476 0-0.476-0.523-0.49-0.608 0-0.835-0.15-0.732-0.732 0.169-0.921-0.523-1.36-0.915-1.97-0.058-0.091-0.271-0.105-0.414-0.128-0.923-0.148-1.683-0.73-2.075-1.527l-0.008-0.016c-0.171-0.399-0.299-0.863-0.363-1.348l-0.003-0.027zM14.472 15.715c0.454-0.117 0.798-0.194 1.134-0.303 0.071-0.052 0.116-0.136 0.116-0.23 0-0.012-0.001-0.024-0.002-0.036v0.001c-0.058-0.161-0.143-0.365-0.279-0.435-0.224-0.077-0.482-0.121-0.75-0.121-0.005 0-0.010 0-0.015 0h0.001c-0.256-0.018-0.655 0.41-0.582 0.676 0.055 0.183 0.264 0.318 0.377 0.446zM17.609 15.503c0.264 0.103 0.52 0.055 0.516-0.252-0.031-0.249-0.109-0.474-0.224-0.674l0.005 0.009c-0.046-0.056-0.115-0.092-0.193-0.092-0.007 0-0.014 0-0.020 0.001h0.001c-0.353 0.155-0.651 0.317-0.935 0.499l0.027-0.016c-0.071 0.076-0.113 0.178-0.113 0.291 0 0.035 0.004 0.068 0.012 0.1l-0.001-0.003c0.058 0.183 0.212 0.238 0.432 0.15 0.084-0.019 0.181-0.029 0.28-0.029 0.078 0 0.154 0.007 0.229 0.018l-0.008-0.001zM16.8 17.020c0-0.676-0.278-0.855-0.798-0.596l-0.077 0.041c-0.153 0.13-0.25 0.323-0.25 0.538 0 0.096 0.020 0.188 0.054 0.271l-0.002-0.005c0.161 0.166 0.339 0.311 0.534 0.435l0.012 0.007z"></path>
</svg>
