<!-- Generated by IcoMoon.io -->
<svg version="1.1" xmlns="http://www.w3.org/2000/svg" width="512" height="512" viewBox="0 0 512 512">
<title>monsters-of-order</title>
<g id="icomoon-ignore">
</g>
<path d="M201.536 509.696c-2.352-1.712-5.984-3.424-7.904-3.424s-6.192-1.488-9.616-3.2c-3.2-1.712-10.048-4.704-14.96-6.832-5.12-1.92-9.184-4.272-9.184-5.344 0-0.848-1.28-1.712-2.992-1.712s-3.424-0.848-3.84-1.92c-0.208-1.072-4.48-3.632-9.184-5.984-13.248-6.192-35.264-20.72-35.264-23.072 0-1.28-1.92-2.352-4.064-2.56-3.632-0.208-40.816-35.264-40.816-38.256 0-1.072-1.92-3.632-8.544-11.328-4.912-5.776-8.544-12.608-8.544-16.24 0-1.712-0.848-3.2-1.712-3.2-1.92 0-11.104-19.664-11.104-23.504 0-1.28-0.848-3.84-1.92-5.984-7.904-15.808-8.976-24.784-8.128-78.64 0.64-50.64 2.144-64.32 8.112-76.064 1.072-2.144 1.92-5.984 1.92-8.544 0-2.784 1.504-7.696 3.2-11.104 1.712-3.2 3.2-9.184 3.2-13.040 0-9.616 2.352-20.512 4.272-19.232 0.848 0.432 2.784-4.48 4.272-10.896 1.712-6.624 4.272-12.4 5.776-13.040s2.784-2.144 2.784-3.424c0-4.272 28.416-46.368 32.688-48.080 0.848-0.432 1.488-1.712 1.488-2.56 0-2.352 11.968-14.96 14.096-14.96 1.92 0 17.952-12.608 23.712-18.592 2.56-2.784 6.624-4.912 9.184-4.912 2.352 0 4.272-0.64 4.272-1.712 0-0.848 6.192-3.84 13.888-6.416 7.696-2.784 14.32-5.984 15.168-7.056 0.64-1.072 2.992-1.92 5.344-1.92 2.144 0 5.776-0.848 7.904-1.92 11.76-6.416 27.136-8.768 55.552-8.768 20.944 0 32.48-0.848 38.896-3.2 11.536-4.064 23.712-4.064 33.552 0 4.064 1.712 9.824 3.2 12.608 3.2 2.56 0 5.552 0.848 6.192 2.144 0.64 1.072 3.2 2.144 5.552 2.144s4.704 1.504 5.344 3.2c0.848 1.712 3.84 3.2 7.264 3.2 3.2 0 7.056 1.488 8.544 3.2s4.704 3.2 7.472 3.2c2.56 0 9.184 2.352 14.736 5.344s12.4 5.344 15.392 5.344c2.784 0 5.776 1.504 6.416 3.2 0.848 1.712 2.352 3.2 3.84 3.2 2.56 0 20.512 18.16 20.512 20.72 0 1.072 2.992 5.136 6.624 9.184 3.84 4.064 9.184 11.328 12.4 16.032 2.992 4.704 5.984 8.976 6.624 9.616 4.064 4.064 8.544 16.88 8.544 24.784 0 6.832 0.848 9.408 3.2 9.408 1.712 0 3.2 1.504 3.2 3.2s1.072 3.2 2.144 3.2c1.28 0 2.144 1.072 2.144 2.352 0 1.072-0.848 1.504-2.144 0.848-1.072-0.64 0.208 3.424 2.992 8.976 5.552 11.76 9.184 21.584 12.608 33.76 2.992 11.328 4.48 123.728 1.712 133.552-1.072 4.064-2.992 14.32-4.272 22.432-2.992 20.944-4.704 29.488-6.624 32.048-0.848 1.28-2.144 4.912-2.992 8.544-0.848 3.424-2.352 6.832-2.992 7.472-2.992 2.144-8.976 15.392-8.976 19.44 0 2.144-0.848 4.064-2.144 4.064-1.072 0-2.56 2.144-3.424 4.912-0.64 2.56-4.912 7.696-9.408 11.104-4.704 3.632-8.336 7.696-8.544 9.184 0 1.28-0.848 2.56-2.144 2.56-1.072 0-2.144 1.28-2.144 2.784s-1.92 2.784-4.064 2.992-6.832 2.992-10.256 6.416c-11.104 10.464-17.088 15.168-21.792 16.672-2.56 0.64-4.48 2.144-4.48 3.2s-1.92 2.56-4.272 3.2c-2.352 0.848-3.84 2.352-3.2 3.424 0.848 1.072 0.208 1.92-1.28 1.92-4.064 0-19.024 7.056-19.024 8.976 0 0.848-2.352 1.712-5.12 1.712s-5.552 1.488-6.416 3.2c-0.64 1.712-2.992 3.2-5.12 3.2s-4.704 0.64-5.552 1.488c-0.848 0.848-5.984 3.2-11.536 5.344-8.544 3.2-17.088 3.84-59.616 3.84-31.84 0-49.792 0.848-50.208 2.144-1.28 4.064-15.168 4.912-19.872 1.28zM273.12 460.336c0-4.912 0.848-5.552 5.776-4.912 4.064 0.432 5.776 2.144 6.416 5.776 1.072 7.264 4.48 10.896 10.464 10.896 4.272 0 5.344-1.28 6.416-8.544 0.848-4.704 2.144-8.544 2.992-8.544 1.072 0 2.144-4.064 2.784-8.976 1.92-19.024 6.416-42.304 7.904-42.304 0.848 0 2.352-2.352 2.992-5.344 0.848-2.992 2.352-5.344 3.424-5.344 1.28 0 2.144-1.488 2.144-3.2s0.848-3.2 2.144-3.2c2.56 0 14.96-11.968 14.96-14.528 0-0.848 2.144-1.712 4.704-1.92 2.352-0.208 5.344-1.712 6.192-3.2 1.072-1.488 2.992-2.784 4.48-2.784 1.488-0.208 2.56-1.28 2.352-2.784-0.432-1.28 0.848-1.92 2.352-1.28 1.712 0.64 5.12-0.848 7.472-3.2 2.56-2.56 5.776-4.48 7.472-4.48 7.904 0 26.928-29.056 26.928-41.248 0-3.2-2.352-9.408-5.12-13.888-2.784-4.272-6.832-13.040-8.976-19.024-2.144-6.192-4.704-11.328-5.552-11.328-1.072 0-1.712-3.2-1.712-7.056s-1.072-8.128-2.352-9.408c-1.488-1.504-2.992-11.968-3.632-23.504-0.432-11.536-1.92-21.376-2.784-22.016-1.92-1.28-4.704-19.232-8.544-55.552-1.28-11.104-2.992-21.152-4.272-22.224-1.072-1.28-1.92-5.136-1.92-8.976 0-3.632-1.488-7.904-3.2-9.408s-3.2-4.48-3.2-6.624c0-2.352-0.848-4.064-2.144-4.064-1.072 0-2.144-1.488-2.144-3.2s-0.848-3.2-1.712-3.2c-1.072 0-2.992-2.352-4.272-5.136-2.352-5.552-20.080-18.384-25.216-18.384-1.488 0-2.992-0.64-2.992-1.712 0-2.56-20.304-8.976-28.64-8.976-4.48 0-10.048-1.072-12.4-2.352-6.416-3.424-33.552-3.84-42.096-0.432-3.84 1.504-11.328 2.784-16.24 2.784-5.12 0-11.968 1.504-15.168 3.2-3.424 1.712-7.904 3.2-9.824 3.2-2.144 0-3.84 1.072-3.84 2.144 0 1.28-1.712 2.144-3.84 2.144s-6.624 2.784-10.048 6.416c-3.2 3.424-6.624 5.776-7.472 5.344-1.92-1.28-7.904 6.192-13.248 16.24-2.352 4.48-5.12 8.976-6.192 9.616s-1.92 2.784-1.92 4.912c0 2.144-1.504 6.832-3.2 10.048-1.712 3.424-3.2 8.336-3.2 11.104 0 2.56-0.848 4.704-2.144 4.704-1.072 0-2.144 2.992-2.144 6.416 0 3.632-1.504 10.048-3.2 14.32-2.352 5.776-3.2 16.672-3.2 46.8 0 22.432-0.848 39.312-1.92 39.312s-2.56 2.784-3.424 6.416c-0.848 3.424-2.352 6.832-3.424 7.472-1.072 0.848-1.92 3.2-1.92 5.776 0 2.352-1.488 7.056-3.2 10.464s-4.704 8.976-6.416 12.4c-1.712 3.424-3.2 8.128-3.2 10.464 0 2.56-0.848 5.12-2.144 5.776-1.072 0.64-2.144 3.632-2.144 6.416s1.072 5.776 2.144 6.416c1.28 0.64 2.144 3.84 2.144 7.056s1.488 8.544 3.2 11.968c1.712 3.2 3.2 8.336 3.2 11.104 0 2.992 1.488 5.776 3.2 6.416 1.712 0.848 3.2 2.56 3.2 3.84 0 1.488 5.136 4.272 11.328 6.416 5.984 2.144 13.040 4.48 15.392 5.552s12.176 4.912 22.016 8.768c9.616 3.84 17.52 7.904 17.52 8.768s1.072 1.712 2.144 1.712c3.632 0 10.688 8.336 10.688 12.608 0 2.352 1.072 4.48 2.352 4.912s2.992 5.776 3.632 11.968c0.432 6.192 1.92 11.76 2.784 12.4 1.072 0.64 1.92 6.832 1.92 13.888 0 16.032 5.552 29.696 11.968 29.696 3.2 0 5.136-1.712 5.984-5.344 1.504-5.776 5.552-7.264 5.552-2.144 0 1.712 1.072 3.2 2.352 3.2 1.072 0 1.712 0.848 1.072 1.712-0.432 0.848 2.144 1.92 6.192 2.144 6.416 0.432 7.264 0 7.904-5.344 0.432-4.48 1.92-6.192 5.984-6.624 4.272-0.432 4.704-0.208 2.144 1.488-2.144 1.488-2.352 2.352-0.432 2.352 1.28 0 2.56 1.92 2.56 4.272 0 2.56 1.92 5.12 4.704 6.192 5.984 2.144 12.4-4.912 12.4-13.68z"></path>
<path d="M232.096 405.424c-2.992-4.48-2.992-6.192-0.64-11.536 1.504-3.424 4.272-9.616 6.192-14.096 1.92-4.272 3.424-9.184 3.424-11.104 0-4.704 4.704-14.752 8.544-17.728 5.12-4.272 15.6-2.56 18.16 3.2 1.072 2.56 2.784 4.704 3.632 4.704 1.072 0 1.712 2.352 1.712 5.344s1.28 5.344 2.992 5.344c2.992 0 5.552 12.816 5.552 26.928 0 9.408-3.2 10.896-26.928 12.608-18.8 1.488-19.44 1.488-22.656-3.632z"></path>
<path d="M173.328 354.56c-6.832-1.712-12.608-3.84-13.040-4.704-0.432-1.072-2.144-1.712-3.84-1.712s-6.192-1.712-10.048-3.632c-3.84-1.92-7.696-3.424-8.544-3.2-1.072 0.208-1.28-0.208-0.64-1.28s-0.64-3.2-2.56-5.12c-4.064-3.632-11.536-12.4-14.096-16.448-2.784-4.272 23.296-28.208 30.976-28.416 3.2-0.208 5.552-1.072 5.12-1.92-2.784-4.272 8.128-3.84 17.52 0.848 16.672 8.336 24.784 11.76 31.2 13.040 3.2 0.848 5.776 2.352 5.776 3.424 0 1.28 2.352 2.144 5.344 2.144s5.344 0.848 5.344 1.92c0 1.072 2.56 2.56 5.552 3.2 3.2 0.848 7.056 2.784 8.544 4.48 3.424 3.424 4.064 11.76 0.848 11.76-1.072 0-2.144 1.28-2.144 2.784 0 1.712-1.92 4.704-4.272 6.832s-3.632 4.704-2.784 5.984c0.848 1.28 0.208 1.488-1.28 0.64-1.712-1.072-2.992 0-3.84 2.784-1.072 4.272-2.992 5.344-8.544 4.704-1.504-0.208-2.784 0.432-2.784 1.712 0 3.424-24.784 3.632-37.824 0.208z"></path>
<path d="M213.936 357.344c0.848-0.64 2.144-0.64 2.992 0 0.64 0.848 0 1.488-1.504 1.488s-2.144-0.64-1.504-1.488z"></path>
<path d="M299.408 352.848c-5.12-0.432-9.184-1.488-9.184-2.56s-2.144-2.144-4.704-2.56c-3.2-0.432-5.12-2.352-5.552-5.344-0.432-2.56-1.92-5.776-3.632-7.056-2.992-2.56-2.56-5.552 1.712-14.528 2.56-5.344 32.688-20.944 52.784-27.344 6.416-1.92 14.96-4.912 18.8-6.624 7.696-3.424 16.032-2.352 22.864 2.784 3.424 2.56 4.272 5.552 4.064 16.032 0 7.264-1.072 13.68-2.352 14.32-1.28 0.848-2.784 3.632-3.632 6.416s-3.2 4.704-5.776 4.704c-2.144 0-4.064 1.072-4.064 2.144 0 1.28-1.072 2.144-2.56 2.144-1.28 0-4.064 1.28-5.776 2.784-1.92 1.488-8.768 4.48-15.168 6.832-6.416 2.144-12.176 4.48-12.816 5.344-1.488 2.144-14.528 3.424-25.008 2.56z"></path>
<path d="M178.672 254.336c-11.328-8.768-12.176-10.688-8.544-18.16 1.92-3.632 3.84-7.056 4.48-7.696s3.2-4.704 5.344-8.976c2.352-4.48 4.912-8.128 5.984-8.128 0.848 0 1.712-1.504 1.712-3.2s1.504-3.2 3.2-3.2c1.712 0 3.2-1.504 3.2-3.2s0.848-3.2 1.92-3.2c1.072 0 2.784-2.144 3.632-4.704 0.848-2.784 3.424-6.832 5.984-9.184 6.192-5.776 11.968-14.32 11.968-17.52s-27.568-30.56-30.768-30.56c-0.64 0-5.552-4.272-11.104-9.616-8.768-8.544-9.616-10.048-7.056-13.248 5.552-7.056 10.464-11.328 12.608-11.328 1.28 0 1.92-1.28 1.712-2.56-0.432-1.92 2.56-2.992 8.976-3.424s8.544 0.208 6.624 1.488c-2.352 1.488-1.92 2.144 1.712 3.424 2.352 0.64 4.48 2.352 4.48 3.424 0 1.28 2.992 5.136 6.416 8.768 3.632 3.424 6.416 7.056 6.416 8.128s2.56 2.784 5.984 3.84c3.2 1.28 4.48 2.352 2.784 2.352-4.704 0.208 7.472 8.768 12.608 8.768 4.704 0 17.088-10.688 17.088-14.736 0-1.28 1.488-2.352 3.2-2.352s3.2-1.488 3.2-3.2c0-1.712 0.848-3.2 1.92-3.2s2.784-2.144 3.632-4.704c0.848-2.784 3.424-6.832 5.984-9.408 2.56-2.352 5.552-6.192 6.832-8.544 2.992-5.344 12.4-6.416 18.384-2.144 2.56 1.92 7.056 3.424 9.616 3.424 6.624 0 6.416 6.624-0.432 14.32-10.688 11.536-18.16 22.656-18.16 26.496 0 2.352-0.848 4.064-1.712 4.064s-4.064 3.84-6.832 8.544c-2.992 4.704-5.984 8.544-6.832 8.544-1.072 0-1.712 1.504-1.712 3.2s-0.848 3.2-2.144 3.2c-1.072 0-2.144 2.144-2.144 4.48 0 4.912 21.152 26.496 28.208 28.848 2.144 0.64 3.84 2.144 3.84 3.2s1.488 1.92 3.2 1.92c1.712 0 3.2 1.504 3.2 3.2s1.072 3.2 2.352 3.2 7.056 4.912 12.816 10.688c5.776 5.984 11.536 10.688 12.816 10.688 1.488 0 1.072 1.92-1.072 5.344-1.92 2.784-3.424 7.904-3.424 11.328 0 6.832-5.12 13.040-7.472 8.976-0.64-1.072-2.992-2.144-4.912-2.144-2.144 0-5.552-2.352-7.696-5.344s-4.704-5.344-5.776-5.344c-2.352 0-14.752-12.816-14.752-15.168 0-1.072-1.28-1.92-2.992-1.92-3.2 0-6.416-2.56-25.856-19.44-8.976-7.904-12.4-9.824-16.88-8.976-2.992 0.64-5.552 1.712-5.552 2.56s-2.992 4.48-6.416 8.544c-3.632 3.84-5.776 7.904-5.12 9.184 0.848 1.504 0.432 1.712-1.072 0.848-1.28-0.848-2.992 0-3.84 2.352-0.848 1.92-3.632 5.776-6.416 8.336s-4.912 5.12-4.912 5.984c0 0.848-1.28 2.992-2.56 4.704-1.504 1.712-3.84 4.272-4.912 5.776-7.904 9.408-11.536 14.96-10.688 16.672 2.352 3.632-7.904 0.64-14.32-4.272z"></path>
<path d="M319.056 254.128c0.64-1.072 1.712-2.144 2.352-2.144s0.432 1.072-0.208 2.144c-0.64 1.28-1.712 2.144-2.352 2.144s-0.432-0.848 0.208-2.144z"></path>
</svg>
