<!-- Generated by IcoMoon.io -->
<svg version="1.1" xmlns="http://www.w3.org/2000/svg" width="512" height="512" viewBox="0 0 512 512">
<title>monsters-of-order</title>
<g id="icomoon-ignore">
</g>
<path d="M445.28 508.976c0.208-1.44-0.624-2.48-1.648-2.688-1.248 0-4.96-2.48-8.272-5.584-3.312-3.312-6.832-5.792-7.856-5.792-0.832 0-3.728-2.272-6.416-5.168s-5.584-5.168-6.416-5.168c-0.832 0-15.504-13.648-32.464-30.4-43.632-43.024-42.608-41.984-43.84-41.984-0.624 0-10.752-9.728-22.752-21.712-15.504-15.504-22.96-21.712-26.464-21.712-2.688 0-6.832-1.44-9.104-3.104-2.064-1.648-5.168-3.104-6.416-3.104-2.896 0-10.96-6.416-10.96-8.48 0-0.624 5.376-2.896 12-5.168 6.416-2.064 12.816-4.752 14.272-6 1.44-1.040 3.936-3.312 5.584-4.544 1.648-1.44 4.144-2.688 5.376-2.688 1.040 0 2.064-1.44 2.064-3.104s1.040-3.104 2.064-3.104c1.248 0 3.728-3.728 5.584-8.272 2.064-4.544 4.752-8.272 6.208-8.272s2.688-2.064 2.688-4.752c0-2.688 1.44-6.624 3.104-8.896 1.648-2.064 3.104-7.44 3.104-11.584 0-4.336 0.832-7.856 1.856-7.856 2.48 0 2.896-32.464 0.208-34.128-1.040-0.624-2.064-5.792-2.064-11.584 0-5.584-0.832-10.128-2.064-10.128-1.040 0-2.48-2.272-3.312-5.168-0.624-2.896-2.064-5.168-2.896-5.168-1.040 0-2.48-1.856-3.104-4.336-1.856-5.792-21.92-25.44-30.192-29.568-3.52-1.856-8.272-3.312-10.544-3.312-7.024 0-4.336-8.48 5.792-17.792 5.168-4.96 11.376-9.52 13.44-10.128 2.064-0.832 3.936-2.272 3.936-3.312s0.832-1.856 2.064-1.856c1.040 0 4.752-2.688 8.272-6.208s7.232-6.208 8.272-6.208c0.832 0 10.128-8.272 20.48-18.608 10.336-10.128 19.232-18.608 20.064-18.608s4.752-3.104 8.896-6.832c10.96-9.52 19.44-15.92 21.296-15.92 0.832 0 8.896-7.44 18-16.544 9.312-9.104 17.792-16.544 19.024-16.544 1.040 0 1.648-0.832 1.040-1.648-1.248-1.856 6-8.688 9.104-8.688 1.248 0 2.064-1.44 2.064-3.104s0.832-3.104 1.856-3.104c0.832 0 6.416-4.544 12.208-10.336 5.792-5.584 10.96-10.336 11.584-10.336s1.248 1.856 1.248 4.144c0 2.272-0.832 4.144-2.064 4.144-1.040 0-2.064 1.44-2.064 3.104 0 1.856-1.44 3.728-3.104 4.336-1.648 0.832-3.104 3.312-3.104 6s-1.44 5.168-3.104 6c-1.648 0.624-3.104 3.104-3.104 5.584 0 2.688-1.648 4.752-4.336 5.376-2.896 0.832-3.52 1.648-1.648 2.688 1.648 1.248 0.416 2.688-4.144 4.96-3.52 1.856-6.416 4.752-6.416 6.416s-0.624 3.104-1.648 3.104c-0.832 0-3.312 3.52-5.584 7.856-2.272 4.128-4.544 8.064-5.168 8.688-2.48 2.064-14.48 22.96-14.48 24.816 0 1.248-0.832 2.064-2.064 2.064-1.040 0-2.48 2.272-3.312 5.168-0.624 2.896-2.064 5.168-3.104 5.168s-1.856 1.648-1.856 3.936c0 2.064-1.44 4.96-3.104 6.416s-3.104 4.128-3.104 6.208c0 3.52-6 10.336-9.104 10.336-0.832 0-2.896-1.44-4.544-3.104-5.168-4.96-7.024-3.728-7.024 4.752 0 4.336-1.44 9.712-3.104 12-1.648 2.064-3.104 7.648-3.312 12.208s-0.624 6.624-1.248 4.544c-0.416-1.856-1.856-3.104-2.896-2.48-1.040 0.832-1.856-3.728-1.856-10.128 0-10.752-0.416-11.584-4.752-11.584-3.104 0-6 1.856-7.648 5.168-1.44 2.896-4.544 5.168-6.624 5.168s-3.728 0.832-3.728 1.648c0 1.040-2.272 2.896-5.168 4.128s-5.168 3.728-5.168 5.584c0 3.104 7.024 11.376 9.728 11.376 2.272 0 23.168 23.376 24.608 27.296 1.648 5.376 8.272 6.416 15.296 2.272 7.856-4.544 8.48-12.416 1.248-14.272-5.376-1.248-8.48-6.208-5.376-8.064 1.248-0.624 11.792-1.648 23.984-1.856 12.608-0.416 22.752-1.648 24.192-3.104 1.248-1.248 5.584-2.272 9.52-2.272 4.144 0 10.128-1.44 13.44-3.104 3.104-1.648 7.856-3.104 10.336-3.104 2.272 0 6.208-1.44 8.272-3.104 2.272-1.648 7.232-3.104 10.96-3.104s6.832-0.832 6.832-2.064c0-1.040 2.896-2.064 6.208-2.064 3.52 0 6.208 1.040 6.208 2.064 0 1.248-1.248 2.064-2.896 2.064s-4.336 1.248-5.792 2.48c-1.44 1.44-6.416 4.544-10.96 6.832s-9.52 5.376-10.96 6.624c-1.44 1.44-3.52 2.688-4.544 2.688s-3.312 2.48-4.96 5.792c-1.856 3.104-3.104 4.128-3.312 2.48 0-2.48-0.416-2.688-1.856-0.208-1.040 1.44-3.104 2.272-4.544 1.856s-5.376 1.648-8.48 4.96c-3.104 3.104-6.416 5.792-7.232 5.792-1.040 0-4.144 2.272-7.232 5.168s-6.416 5.168-7.44 5.168c-1.248 0-2.48 1.44-3.312 3.104-0.624 1.648-3.104 3.104-5.376 3.104s-4.144 0.832-4.144 1.856c0 1.040-2.064 2.688-4.544 3.52-2.48 0.624-5.376 2.064-6.624 3.104s-4.336 3.728-7.024 6c-4.144 3.312-4.752 5.168-3.936 13.648 0.624 5.376 2.272 10.336 3.52 11.168 1.856 1.248 1.856 1.856-0.208 2.688-2.48 1.040-2.48 1.44 0 3.104 2.896 2.064 1.248 11.584-1.856 9.728-0.832-0.624-1.248 0.832-0.624 3.104s2.064 4.144 3.104 4.144c1.040 0 1.248 1.040 0.416 2.48s-0.624 1.648 0.832 0.832c1.248-0.832 3.52 0.416 4.96 2.688 1.856 3.104 3.936 3.936 7.648 2.896 3.312-0.832 4.544-0.416 3.52 1.040-0.624 1.248-0.208 2.896 1.040 3.728 1.648 0.832 1.856 0.624 1.040-0.832s-0.208-2.48 1.648-2.48 3.312 1.040 3.312 2.064c0 1.248 3.312 2.064 7.44 2.064 3.936 0 6.832 0.832 6.208 1.648-0.624 1.040-4.144 1.44-7.856 1.248-6-0.624-6.208-0.624-1.648 1.040 2.896 0.832 9.104 1.248 14.064 0.624 4.752-0.416 8.688 0 8.48 0.832-0.832 4.544 0.416 7.024 3.312 7.024 1.648 0 3.104 1.040 3.104 2.272 0 1.44 2.064 1.856 5.168 1.44 2.688-0.624 4.544-0.208 3.936 0.624-1.44 2.272 6.208 6 12.608 6 3.104 0 4.96 0.832 4.144 2.064-0.624 1.248 0.208 2.064 1.856 2.064s3.936 1.248 4.752 2.896c0.832 1.648 4.96 3.312 8.896 3.936 4.144 0.416 7.024 1.856 6.624 3.312-0.208 1.648 2.272 2.064 8.272 1.248 4.96-0.416 7.232-0.416 5.168 0.208-6 1.856-1.648 4.96 6.832 4.96 6.416 0 7.856 0.624 7.024 3.104-0.832 2.272-4.336 3.104-11.584 3.104-5.584 0-9.728-0.832-9.104-1.856s-6.416-2.272-15.712-2.688c-10.96-0.416-17.168-1.648-17.792-3.312-0.416-1.44-1.44-2.064-2.48-1.44s-4.336 0-7.648-1.248c-3.104-1.248-15.504-2.48-27.504-2.896-24.608-1.040-45.504-3.104-45.504-4.544 0-0.624 1.44-3.52 3.312-6.832 4.544-7.44 2.48-12.416-4.96-12.416-4.144 0-6.832 1.44-8.688 5.168-1.44 2.896-3.52 5.168-4.544 5.168-0.832 0-1.648 1.040-1.648 2.064 0 3.312-9.312 13.856-19.44 22.336-4.144 3.312-4.336 10.544-0.208 12 1.648 0.832 3.104 2.064 3.104 3.104s5.168 6.832 11.376 13.024c6.208 6 11.376 12.208 11.376 13.856s3.104 4.544 7.024 6.208c6.208 2.896 7.024 2.896 8.896 0 1.040-1.856 1.648-6.624 1.44-10.544 0-3.936 0.832-7.856 2.064-8.688 1.648-1.040 1.44-1.648-0.208-1.648-1.44 0-2.688-1.856-2.688-4.144 0-3.104 1.44-4.144 5.168-4.144 4.752 0 5.168 0.832 5.168 8.272 0 4.544 0.832 8.272 1.856 8.272s2.48 2.48 3.312 5.792c2.064 8.48 7.856 21.088 9.728 21.088 0.832 0 1.648 1.648 1.648 3.936 0 2.064 1.44 4.96 3.104 6.416s3.104 4.752 3.104 7.232c0 2.688 0.624 5.168 1.648 5.584 1.248 0.624 3.728 4.96 12.608 24.4 1.856 3.936 3.728 7.648 4.336 8.272 2.272 2.272 8.272 14.896 8.272 17.376 0 1.44 2.896 5.792 6.208 9.52 3.52 3.728 6.208 8.272 6.208 9.728s1.248 2.688 2.688 2.688c1.648 0 1.44 0.832-0.624 2.064-2.896 1.856-1.44 3.104 2.896 2.272 1.040-0.208 0.832 1.040-0.832 2.688-3.104 3.936-6.416 4.336-5.584 0.832z"></path>
<path d="M55.232 505.872c-2.688-2.48-1.44-6.208 3.728-12.208 2.896-3.312 5.792-8.064 6.416-10.544 0.832-2.688 2.064-4.752 3.104-4.752s1.856-2.688 1.856-5.792c0-3.104 1.040-6.832 2.272-8.064 2.896-2.896 7.44-10.752 9.312-15.504 0.624-2.064 2.064-3.728 3.104-3.728s1.856-2.272 1.856-4.96 1.44-6 3.104-7.44c1.664-1.44 3.104-3.728 3.104-5.168 0-3.52 6.832-15.504 8.896-15.504 0.832 0 1.44-1.44 1.44-3.104s1.44-6.416 3.312-10.752c1.856-4.336 4.336-9.728 5.168-12 1.040-2.272 2.064-6.208 2.48-8.896 0.416-2.48 1.856-5.792 3.104-7.024 1.44-1.44 2.48-3.728 2.48-5.168s1.44-2.688 3.104-2.688c2.48 0 3.104 3.312 3.104 16.544 0 15.504 0.208 16.544 4.544 16.544 4.128 0 16.128-10.96 16.128-14.896 0-0.832 1.040-1.648 2.272-1.648 2.272 0 14.272-12.416 14.272-14.896 0-1.040 1.248-1.648 2.688-1.648 1.248 0 3.936-3.104 5.584-6.832l3.104-6.624-10.752-10.752c-6-6-10.96-11.584-10.96-12.816 0-1.040-0.832-2.272-1.648-2.688-0.832-0.208-4.336-4.144-7.44-8.272-6-8.064-11.584-10.336-11.584-4.752 0 1.648-1.44 3.104-3.104 3.104-3.312 0-4.336 5.376-1.040 6.624 1.040 0.416 2.272 2.896 2.48 5.792 0.624 4.96 0 5.168-12.816 6.832-7.44 0.832-20.688 2.064-29.36 2.688-8.896 0.624-16.128 2.064-16.128 3.104 0 1.248-0.832 1.44-2.064 0.832-1.040-0.624-2.064-0.624-2.064 0.416 0 2.064-28.128 3.104-43.008 1.44-10.544-1.040-13.232-4.96-3.312-4.96 2.688 0 4.96-0.832 4.96-1.856s2.064-2.688 4.752-3.312c6.832-2.064 18-8.064 18-9.728 0-1.040 3.312-1.648 7.232-1.648s7.232-0.832 7.232-1.856c0-1.040 3.728-3.728 8.272-6.208 4.544-2.272 8.272-3.728 8.272-2.896 0 0.624 1.648-0.208 3.728-2.064 2.064-2.064 6.416-3.728 9.312-3.936 3.104-0.208 5.584-1.248 5.584-2.064s2.48-1.648 5.584-1.648c2.896 0 4.96-0.624 4.128-1.248-1.856-1.856 3.936-7.024 7.648-7.024 1.856 0 3.312-0.832 3.312-2.064 0-1.040 1.648-2.064 3.52-2.064s5.168-1.648 7.44-3.728c3.936-3.52 4.128-3.312 1.648 1.648l-2.48 5.168 3.936-5.168c3.52-4.144 4.544-10.96 2.48-16.544-0.416-0.624-0.416-1.648-0.208-2.48 0-1.040-0.832-1.648-1.856-1.648-2.896 0-2.688-15.92 0.208-16.96 1.856-0.624 1.648-1.856-0.208-4.752-2.688-4.336-17.376-15.504-20.48-15.504-1.040 0-2.896-1.44-4.336-3.104s-3.936-3.104-5.584-3.104c-1.648 0-4.96-2.272-7.648-5.168s-6-5.168-7.44-5.168c-1.44 0-2.064-1.248-1.44-2.688 0.624-1.648-0.208-2.896-1.856-3.104s-4.336-0.624-6-0.832c-1.648-0.208-2.48-1.040-1.856-1.856 0.416-0.832-1.040-2.064-3.312-2.896-2.272-0.624-4.128-2.064-4.128-3.104 0-0.832-2.272-2.272-5.168-2.896-2.896-0.832-5.168-2.272-5.168-3.312 0-1.248-1.44-2.064-3.104-2.064s-3.104-0.832-3.104-1.856c0-1.040-2.064-2.688-4.544-3.52-2.48-0.624-6.416-3.104-8.688-5.376-2.272-2.064-6.416-4.336-8.896-4.96-2.688-0.832-4.752-2.48-4.752-4.128s-2.064-2.896-5.168-2.896c-2.896 0-5.168-0.832-5.168-2.064 0-1.040 2.272-2.064 5.168-2.064s5.168 1.040 5.168 2.064c0 1.248 2.064 2.064 4.752 2.064 2.48 0 7.232 1.44 10.544 3.104 3.104 1.648 8.272 3.104 11.376 3.104s6.624 1.040 8.064 2.48c2.896 2.896 16.128 5.584 43.424 8.272 11.584 1.248 21.088 3.104 21.088 4.128 0 0.832 2.272 1.648 5.168 1.648 6.208 0 6.624 2.272 1.040 5.792-2.272 1.44-4.128 4.336-4.128 6.624 0 4.544 7.44 10.336 13.44 10.336 4.336 0 11.376-6.416 11.376-10.336 0-1.248 1.44-2.064 3.104-2.064s3.104-1.44 3.104-3.312c0-3.312 13.232-17.376 16.336-17.376 0.832 0 3.104-1.648 4.96-3.728 4.752-5.168 2.272-12.208-4.96-14.688-3.312-1.040-6-3.312-6-4.752s-3.104-4.544-7.024-6.624c-6.416-3.312-7.648-3.52-10.336-0.832-1.648 1.856-3.312 6.624-3.728 10.96-1.040 11.792-5.792 12-5.792 0.208 0-5.168-1.040-9.52-2.064-9.52-1.248 0-1.856-0.624-1.648-1.44 0.624-3.312-3.104-17.168-4.752-17.168-0.832 0-1.856 3.312-2.272 7.232-0.624 8.48-3.728 9.712-6.208 2.688-1.648-4.544-1.44-4.544 1.44-0.832 1.648 2.272 3.104 3.104 3.104 2.064 0-4.336-4.752-7.024-7.856-4.544-2.48 2.064-2.688 1.44-2.272-3.52 0.624-4.128 0-6-1.856-5.584-1.248 0.208-2.48-0.624-2.48-1.856s-5.168-10.544-11.376-20.688c-6.208-10.128-11.376-19.232-11.376-20.48 0-1.040-0.832-2.064-2.064-2.064-1.040 0-2.48-2.272-3.312-5.168-0.624-2.896-1.856-5.168-2.688-5.168s-3.52-3.728-6.208-8.272c-2.48-4.544-5.376-8.272-6.624-8.272-1.040 0-1.856-1.44-1.856-3.104 0-3.104-5.376-10.336-13.232-17.792-2.064-2.064-3.312-4.96-2.688-6.416 0.416-1.648-1.648-5.584-4.96-8.688-5.792-6-7.856-11.584-4.144-11.584 1.040 0 5.376 3.312 9.712 7.232 4.144 3.936 8.48 7.232 9.312 7.232 1.040 0 1.856 1.040 1.856 2.272 0 2.272 11.168 14.272 13.232 14.272 0.832 0 6.208 5.168 12.416 11.376 6 6.208 12.816 11.376 14.896 11.376 3.312 0 3.52 0.416 0.832 2.064-2.48 1.648-1.856 2.064 2.688 2.064 3.312 0 5.376 1.040 5.168 2.688-0.416 1.44 1.856 2.688 5.376 3.104 3.936 0.416 5.168 1.248 3.52 2.272-1.856 1.248 0.416 4.128 7.44 9.712 5.376 4.336 13.024 10.96 16.752 14.688s7.232 6.832 7.648 6.832c0.416 0 5.168 3.936 10.128 8.896 12.208 11.168 15.312 13.856 16.752 13.856 0.832 0 3.936 2.48 7.024 5.792 8.064 7.648 14.688 13.232 21.712 17.792 3.312 2.064 8.064 6 10.336 8.48 2.48 2.48 6.624 5.376 9.312 6.208 3.728 1.040 4.128 1.856 2.064 3.312-2.064 1.248-2.272 1.856-0.208 1.856 1.248 0 2.48 1.44 2.48 3.312s-1.248 2.896-2.48 2.48c-1.44-0.624-6.208 1.648-10.752 4.96-4.336 3.104-8.896 5.792-9.92 5.792-5.792 0-26.464 22.752-26.464 29.152 0 2.064-0.832 3.936-2.064 3.936-1.040 0-2.064 1.248-2.064 2.896s-1.248 4.336-2.896 6c-2.48 2.48-5.168 18.4-5.376 31.44-0.208 14.896 7.024 48.608 10.336 48.608 1.040 0 2.272 2.272 2.896 5.168 0.832 2.896 2.272 5.168 3.312 5.168 1.248 0 2.064 1.44 2.064 3.104 0 2.48 9.312 12.608 19.44 21.088 1.44 1.248 6.208 3.104 10.336 3.728 4.128 0.832 8.064 2.272 8.688 3.312s3.104 1.856 5.792 1.856c2.896 0 4.752 1.248 4.752 3.104s-1.248 2.896-2.896 2.272c-1.44-0.624-2.688 0.208-2.688 1.856s-1.648 3.104-3.936 3.104c-2.064 0-4.96 1.44-6.416 3.104s-5.792 3.104-9.52 3.104c-3.936 0-7.024 1.040-7.024 2.064 0 1.248-1.248 2.064-2.896 2.064-3.936 0-19.856 15.92-19.856 19.648 0 1.648-0.832 3.104-1.856 3.104-2.48 0-18 14.272-56.256 52.32-16.96 16.752-31.856 30.4-32.88 30.4-1.248 0-2.064 1.44-2.064 3.104s-1.040 3.104-2.064 3.104c-2.064 0-4.544 1.648-11.376 7.856-1.44 1.248-3.728 2.48-4.96 2.48-1.040 0-2.48 1.856-3.312 3.936-0.624 2.272-4.128 4.96-7.648 6.208-7.648 2.688-6.832 2.688-8.48 0.832zM120.784 298.016c-0.624-1.040-2.272-1.648-3.52-1.648-1.648 0-1.648 0.624 0.416 1.856 1.856 1.248 2.064 2.272 0.416 3.104-1.248 0.832-2.272 2.48-2.272 3.936 0 1.248 1.248 0.416 2.896-1.648 1.648-2.272 2.48-4.752 2.064-5.584zM135.472 294.304c0.624-1.040 0.832-2.064 0.208-2.064s-1.648 1.040-2.272 2.064c-0.624 1.248-0.832 2.064-0.208 2.064s1.648-0.832 2.272-2.064zM123.472 292.848c-0.832-0.624-2.064-0.624-2.896 0-0.624 0.832 0 1.44 1.44 1.44s2.064-0.624 1.44-1.44zM127.616 288.72c-0.832-0.624-1.44 0-1.44 1.44s0.624 2.064 1.44 1.44c0.624-0.832 0.624-2.064 0-2.896zM129.68 129.888c0-1.648-0.832-2.48-1.856-1.856s-1.248 2.064-0.624 3.104c1.856 2.688 2.48 2.272 2.48-1.248z"></path>
<path d="M5.808 350.752c1.44-0.624 3.312-0.416 3.936 0.208 0.832 0.624-0.416 1.248-2.688 1.040-2.272 0-2.896-0.624-1.248-1.248z"></path>
<path d="M497.184 349.728c-0.832-1.44-0.624-1.648 0.832-0.832s2.48 1.856 2.48 2.48c0 1.648-1.856 0.832-3.312-1.648z"></path>
<path d="M507.936 348.688c-1.248-2.896-1.040-3.104 1.040-1.248 1.44 1.44 2.064 3.104 1.44 3.728s-1.856-0.416-2.48-2.48z"></path>
<path d="M0.016 343.936c0-1.040 3.312-2.064 7.232-2.064s7.232 1.040 7.232 2.064c0 1.248-3.312 2.064-7.232 2.064s-7.232-0.832-7.232-2.064z"></path>
<path d="M16.56 343.936c0-1.040 1.856-2.064 4.336-2.064 2.272 0 3.52 1.040 2.896 2.064-0.624 1.248-2.688 2.064-4.336 2.064s-2.896-0.832-2.896-2.064z"></path>
<path d="M496.976 336.288c0.832-0.624 2.064-0.624 2.896 0 0.624 0.832 0 1.44-1.44 1.44s-2.064-0.624-1.44-1.44z"></path>
<path d="M54.4 303.2c0.832-0.624 2.064-0.624 2.896 0 0.624 0.832 0 1.44-1.44 1.44s-2.064-0.624-1.44-1.44z"></path>
<path d="M427.696 303.2c1.248-0.416 3.728-0.416 5.168 0 1.248 0.624 0.208 1.040-2.688 1.040s-3.936-0.416-2.48-1.040z"></path>
<path d="M60.4 296.576c0.416-4.144 1.648-5.376 5.376-5.168 2.48 0.208 4.544-0.832 4.544-2.48 0-1.856 2.48-2.896 6.832-2.896 4.544 0 5.792-0.624 3.728-1.856-2.272-1.44-2.272-1.856 0-2.896 2.064-0.832 1.856-1.248-0.624-1.248-2.064-0.208-3.728-1.040-3.728-2.064 0-0.832-5.168-2.272-11.792-2.896-6.416-0.624-12.208-2.064-12.816-3.104s-7.44-2.688-15.104-3.312c-7.648-0.832-14.48-2.48-15.104-3.52-0.832-1.040-4.96-1.856-9.52-1.856-4.336 0-8.064-0.832-8.064-1.856 0-0.832 9.92-2.272 22.128-3.104s23.168-2.272 24.4-3.312c1.248-1.040 7.44-2.064 14.064-2.48 10.752-0.624 11.792-1.040 11.792-5.168 0-2.688-1.040-4.752-2.064-4.752-1.248 0-4.96-2.48-8.48-5.584-3.52-3.312-7.232-5.584-8.272-5.376-1.040 0.416-1.856-1.040-1.856-3.104 0-2.896 1.648-3.728 7.648-3.936 4.128-0.208 6.416 0.416 4.96 1.44-2.896 1.648 10.128 10.336 15.92 10.336 1.856 0 5.376 1.44 7.44 3.104 2.272 1.648 6.832 3.104 10.128 3.104 4.336 0 8.48 2.48 15.104 9.104 7.44 7.648 9.104 10.544 9.104 16.96 0 4.144-0.624 7.024-1.248 6.416-0.832-0.624-3.728 0.416-6.624 2.688-2.688 2.272-6 3.52-7.232 2.688-1.040-0.624-1.44-0.416-0.832 0.832 1.44 2.272-11.168 8.896-17.376 8.896-2.272 0-4.544 1.44-5.168 3.104-0.832 2.064-4.128 3.104-10.336 3.104-5.792 0-9.712 1.040-10.336 2.688-1.856 5.168-7.232 3.104-6.624-2.48zM80.048 290.992c-0.624-0.624-2.48-0.832-3.936-0.208-1.648 0.624-1.040 1.248 1.248 1.248 2.272 0.208 3.52-0.416 2.688-1.040z"></path>
<path d="M433.488 293.888c0.624-0.832-4.144-1.648-10.544-1.648-7.024 0-11.168-0.832-10.336-2.064 0.624-1.040-2.48-2.48-7.024-3.312s-9.52-2.688-10.752-4.144c-1.248-1.648-3.312-2.896-4.336-2.896-3.52 0-10.96-7.024-11.584-10.96-1.44-8.272 14.896-25.44 25.856-27.504 3.728-0.624 6.832-1.856 6.832-2.688s3.52-1.648 7.648-1.856c4.336-0.416 8.48-1.856 9.52-3.52 0.832-1.648 3.52-3.104 5.584-3.104 2.272 0 4.144-0.832 4.144-1.856s1.648-2.272 3.728-3.104c1.856-0.624 4.752-1.856 6.208-2.48s2.48 0.416 2.48 2.896c0 2.688-1.856 4.544-5.168 5.376-3.728 1.040-5.168 2.688-5.168 6.416 0 2.896-1.040 5.168-2.272 5.168-1.040 0-1.44-1.248-0.624-2.48 1.040-2.064 0.832-2.064-1.040-0.416-1.44 1.44-2.272 4.544-1.856 7.232 0.624 4.544 1.856 5.168 14.064 6.208 7.44 0.832 19.44 2.48 26.88 3.728s18.192 2.272 24.192 2.272c17.792 0 15.296 4.144-2.896 4.544-8.896 0-13.024 0.624-9.312 1.040 12 1.648 7.024 3.936-8.896 4.336-16.336 0.208-20.688 1.44-18.4 4.96 0.832 1.44-4.144 1.648-15.504 1.040l-16.752-1.040v6c0 5.584 0.416 6 8.896 6.208 6.208 0 7.648 0.624 4.544 1.648-3.728 1.44-3.52 1.856 2.064 4.96l6.208 3.52-8.688-0.416c-4.752-0.208-8.272-1.040-7.648-2.064zM402.256 281.888c-0.624-1.040-2.48-2.064-3.728-2.064-1.44 0-1.248 0.832 0.624 2.064 3.936 2.48 4.752 2.48 3.104 0zM390.256 276.304c-0.832-0.624-2.064-0.624-2.896 0-0.624 0.832 0 1.44 1.44 1.44s2.064-0.624 1.44-1.44z"></path>
<path d="M451.472 290.784c0.832-0.624 2.064-0.624 2.896 0 0.624 0.832 0 1.44-1.44 1.44s-2.064-0.624-1.44-1.44z"></path>
<path d="M381.568 288.096c-0.624-1.040-0.208-2.064 0.832-2.064 1.248 0 2.272 1.040 2.272 2.064 0 1.248-0.416 2.064-0.832 2.064-0.624 0-1.648-0.832-2.272-2.064z"></path>
<path d="M477.744 255.008l-11.376-1.44 10.752-0.208c5.792-0.208 11.376 0.624 12 1.648 0.624 1.248 1.040 1.856 0.624 1.648s-5.792-0.832-12-1.648z"></path>
<path d="M431.216 197.104c0.624-1.040 1.648-2.064 2.272-2.064s0.416 1.040-0.208 2.064c-0.624 1.248-1.648 2.064-2.272 2.064s-0.416-0.832 0.208-2.064z"></path>
<path d="M148.912 171.872c-2.48-4.544-2.48-4.544 1.248-1.248 2.064 2.064 3.104 4.128 2.48 4.96-0.832 0.624-2.48-1.040-3.728-3.728z"></path>
<path d="M370.816 148.080c0.832-0.624 2.064-0.624 2.896 0 0.624 0.832 0 1.44-1.44 1.44s-2.064-0.624-1.44-1.44z"></path>
<path d="M374.336 141.056c0-0.832 1.44-1.856 3.104-2.688 1.856-0.624 3.104 0 3.104 1.648 0 1.44-1.44 2.688-3.104 2.688s-3.104-0.832-3.104-1.648z"></path>
<path d="M39.312 2.704c0-1.040 1.040-2.064 2.064-2.064 1.248 0 2.064 1.040 2.064 2.064 0 1.248-0.832 2.064-2.064 2.064-1.040 0-2.064-0.832-2.064-2.064z"></path>
</svg>
