<!-- Generated by IcoMoon.io -->
<svg version="1.1" xmlns="http://www.w3.org/2000/svg" width="512" height="512" viewBox="0 0 512 512">
<title>monsters-of-order</title>
<g id="icomoon-ignore">
</g>
<path d="M256.144 506.72c-7.696-9.28-34.848-19.456-51.584-19.456-12.448 0-17.648-3.392-17.648-11.984 0-3.168-1.136-6.112-2.496-6.56-1.136-0.448-2.944-5.2-3.616-10.4-1.136-8.816-0.672-10.4 5.888-16.288 7.008-6.56 7.008-6.784 7.008-28.048 0-12.896 0.912-21.712 2.256-21.712s2.256 1.136 2.256 2.256c0 1.36 1.584 2.256 3.392 2.256s3.392 1.584 3.392 3.392c0 1.808 1.136 3.392 2.496 3.392 3.168 0 8.816 5.664 8.816 8.816 0 1.36 1.136 2.496 2.256 2.496 1.36 0 4.976 2.72 8.144 6.112 4.528 4.976 7.472 6.112 15.152 5.888 5.2-0.224 9.728-1.584 10.176-2.944 1.136-2.944 17.872-2.944 19.008 0 0.448 1.36 4.304 2.944 8.592 3.616 6.56 0.912 9.056 0 15.392-5.664 4.080-3.84 8.368-7.008 9.728-7.008 1.136 0 2.032-1.36 2.032-2.944s2.032-4.080 4.528-5.664c2.496-1.584 4.528-4.304 4.528-6.112s2.032-3.392 4.528-3.392 4.528-1.136 4.528-2.256c0-1.36 2.256-3.168 5.2-4.304 5.664-2.032 8.368 0.448 8.144 7.696 0 2.496-0.672 3.392-1.136 1.808-0.672-1.584-2.496-2.256-3.84-1.584-1.808 0.672-2.72 7.232-2.496 19.904 0.224 20.592 2.256 24.656 13.12 27.6 6.336 1.584 8.144 5.424 2.496 5.424-2.256 0-3.392 2.256-3.392 7.232 0 4.080-2.496 10.176-5.664 14.48-3.168 4.080-5.664 8.368-5.664 9.728 0 2.944-7.92 7.472-11.984 6.784-1.36-0.224-5.664 0.672-9.056 2.032-3.616 1.584-8.144 2.72-10.4 2.72s-5.424 1.36-7.008 3.168c-1.36 1.808-3.84 2.944-5.424 2.256s-4.304 0.448-5.888 2.496c-1.584 1.808-4.080 3.392-5.664 3.392s-3.392 1.584-4.304 3.392c-1.808 5.2-10.864 3.84-15.84-2.032z"></path>
<path d="M360.672 420.080c-2.72-0.672-4.080-3.168-4.080-7.696 0-4.080 0.912-6.336 2.256-5.424 1.36 0.672 2.256-0.672 2.256-3.168s-0.912-4.976-2.032-5.664c-1.136-0.912-2.72-5.424-3.616-10.4s-2.496-9.056-3.616-9.056c-1.136 0-2.032-3.616-2.032-8.368 0-6.336-1.584-9.504-7.232-14.704-3.84-3.392-9.056-6.336-11.312-6.336s-4.752-1.584-5.424-3.392c-0.912-1.808-2.944-3.392-4.752-3.392-4.752 0-14.256 9.28-14.256 14.256 0 2.032-0.672 3.84-1.808 3.84-1.584 0-5.664 6.784-8.592 14.256-0.672 2.032-3.84 3.84-6.784 3.84-4.976 0-5.424-0.912-5.424-9.504 0-19.68-4.752-24.88-24.208-26.016-12.448-0.672-18.784 2.72-18.784 10.4 0 2.032-1.136 4.976-2.72 6.56-2.032 2.032-2.032 4.080 0 8.368 1.584 3.168 2.72 8.368 2.72 11.312 0 4.528-1.136 5.664-5.664 5.664-3.392 0-5.664-1.36-5.664-3.168s-0.672-3.616-1.584-4.080c-2.72-1.136-11.984-14.928-11.984-17.648 0-1.36-3.616-6.112-7.92-10.64-7.472-7.696-8.144-7.92-14.704-5.2-10.4 4.304-18.096 11.088-18.096 16.064 0 2.496-1.584 7.696-3.616 11.536-2.256 4.528-3.616 12.896-3.616 24.656 0 17.424 0 17.872-5.424 17.872-3.84 0-5.664-1.584-6.784-5.664-0.672-3.168-2.256-5.664-3.392-5.664s-2.032-4.080-2.032-8.816c0-4.976-1.136-9.28-2.496-9.728-1.584-0.448-2.944-10.64-3.84-26.24-0.912-21.952-0.672-25.344 2.72-26.704 5.664-2.032 4.528-11.536-1.36-13.12-17.424-4.528-30.32 2.944-37.104 21.952-0.672 2.032-2.256 3.84-3.392 3.84s-2.032 1.36-2.032 3.168c0 3.168-6.784 17.424-9.28 19.456-0.672 0.672-2.032 4.976-2.944 9.728-0.912 4.528-2.496 8.368-3.616 8.368-1.36 0-2.256 2.256-2.256 5.2 0 2.72-1.584 6.784-3.392 9.056-2.944 4.080-3.168 4.080-8.816 0-3.168-2.256-5.888-5.424-5.888-6.784 0-1.584-0.912-2.944-2.032-2.944s-2.944-2.256-3.84-4.976c-0.672-2.72-2.944-6.336-4.752-8.144-2.72-2.72-2.72-3.84 0.448-7.008 1.808-2.256 3.392-6.56 3.392-9.728s1.584-7.008 3.392-8.592c1.808-1.584 3.392-4.304 3.392-5.888 0-1.808 0.912-3.168 2.256-3.168 1.136 0 2.72-2.496 3.616-5.664 0.672-3.168 2.256-5.664 3.392-5.664s2.032-0.912 2.032-2.256c0-4.304 7.472-10.864 10.864-9.504 2.72 0.912 3.168-0.224 2.256-4.752-1.136-6.112 3.168-8.816 5.664-3.84 0.672 1.36 0.912 1.136 0.672-0.448-0.224-1.808-4.752-3.168-9.952-3.616-7.472-0.448-9.504 0-9.504 2.72 0 3.168-7.232 4.976-14.256 3.84-1.136-0.224-1.36 0.672-0.448 2.032 0.672 1.136 0.448 2.256-0.672 2.256s-5.664 2.944-9.728 6.784c-6.112 5.424-9.728 6.784-18.32 6.784h-10.864v-9.056c0-7.472-0.672-9.056-4.528-9.056-5.424 0-7.472-6.56-6.336-20.592 0.448-8.144 1.584-10.176 5.424-10.64 2.72-0.448 6.112-3.168 7.696-6.336 2.496-4.528 4.976-5.424 13.344-5.888 5.664 0 12.896 0 15.84 0.224 9.056 0.912 16.064-4.304 16.064-11.536 0-3.392-0.912-6.336-2.256-6.336-1.136 0-2.256-4.976-2.256-11.088 0-16.064-3.168-18.32-25.12-18.32-10.4 0-17.872-0.912-17.872-2.256 0-1.136-2.72-2.256-5.888-2.256-4.976 0-5.664-0.912-4.976-6.112 0.448-4.528 2.032-6.56 5.664-7.008 4.752-0.672 5.2-2.032 5.2-14.256 0-14.704 7.008-32.128 10.64-26.464 2.032 3.392 25.344 15.392 29.632 15.392 1.584 0 2.72-3.392 2.72-9.056 0-4.976 1.136-9.056 2.256-9.056 1.36 0 2.256-2.496 2.256-5.424 0-7.008 6.112-12.448 7.472-6.56 0.672 3.392 0.912 3.168 0.672-0.448-0.224-2.72-1.808-4.304-4.080-4.304-2.256 0.224-3.616-0.672-3.392-2.256s-5.424-2.72-16.976-3.168c-15.392-0.448-17.648-1.136-19.008-5.424-0.912-3.168-0.224-5.664 2.256-7.472 2.032-1.584 3.616-4.528 3.616-6.56s1.584-4.304 3.392-4.976c1.808-0.912 3.392-2.72 3.392-4.080 0-1.584 2.496-4.304 5.664-5.888s5.664-4.304 5.664-6.112c0-1.584 1.136-2.944 2.496-2.944s5.424-2.944 9.056-6.56c3.616-3.616 6.56-7.696 6.56-9.056 0-1.584 5.424-2.496 13.344-2.496 12.224 0 14.256 0.672 21.952 7.92 4.528 4.304 13.12 10.176 18.784 12.896 5.664 2.944 10.864 5.888 11.536 6.784 0.672 0.672 3.84 2.256 7.472 2.944 3.392 0.912 5.424 2.496 4.752 3.616s0.448 2.032 2.256 2.032c2.032 0 3.616 1.584 3.616 3.392s1.584 3.392 3.392 3.392c1.808 0 3.392 0.912 3.392 2.256 0 3.392 7.472 11.312 9.504 9.952 0.912-0.672 1.808 1.584 1.808 5.2 0 4.528 0.672 5.424 2.032 3.168 1.584-2.496 2.72-2.032 4.976 2.256 1.584 2.944 2.72 6.336 2.496 7.232-0.224 1.136 0.224 1.36 1.36 0.672 4.304-2.496 20.816 21.488 20.816 30.096 0 2.72 1.136 4.752 2.256 4.752 1.36 0 2.256 2.496 2.256 5.664 0 3.392 1.584 9.056 3.84 13.12 2.72 5.424 3.616 13.344 3.616 30.768 0.224 26.704-1.584 29.632-16.976 29.632-4.752 0-8.592 1.136-8.592 2.256 0 1.36-1.808 2.256-4.080 2.256-6.784 0-12.672 9.28-12.224 19.232 0 4.976 1.36 9.28 2.72 9.728 1.136 0.448 2.256 2.256 2.256 4.080s1.584 3.168 3.392 3.168c1.808 0 3.392 0.912 3.392 1.808 0 2.72 17.424 6.784 20.592 4.976 1.808-1.36 1.808-2.032-0.448-2.944-2.496-0.912-2.496-1.36 0-1.36 2.496-0.224 2.256-1.136-1.136-3.616-4.304-3.392-4.304-3.392 0.224-2.032 3.616 1.136 3.84 0.912 1.136-1.136-1.808-1.36-5.888-2.496-9.056-2.496-4.528 0-4.976-0.448-2.256-2.256 2.944-1.808 2.72-2.256-0.448-2.256-2.256 0-4.080-1.584-4.080-3.392s1.584-3.392 3.392-3.392c1.808 0 3.392-0.912 3.392-2.256 0-2.944 17.424-2.944 19.232 0 2.72 4.304 9.952-3.168 11.312-11.76 0.912-4.752 2.496-9.056 3.616-9.952 2.72-1.584 2.72-36.432 0-38.24-1.36-0.672-2.944-5.888-3.84-11.312-0.672-5.664-2.256-10.864-3.392-11.536s-2.032-3.84-2.032-7.232-1.584-9.056-3.392-12.672c-1.808-3.392-3.392-7.92-3.392-9.504 0-1.808-1.584-3.84-3.392-4.528-1.808-0.912-3.392-3.84-3.392-6.784s-0.912-5.424-2.256-5.424c-1.136 0-2.256-1.136-2.256-2.496 0-1.136-2.944-4.976-6.336-8.368s-9.28-10.176-12.896-15.152c-3.616-4.976-9.056-11.088-11.76-13.808-2.944-2.72-4.528-5.424-3.616-6.336s-0.672-2.032-3.392-2.944c-2.72-0.672-4.528-2.032-3.84-2.944 0.672-1.136-2.256-3.84-6.112-6.336-4.080-2.72-10.64-8.368-14.704-12.672-3.84-4.528-7.696-8.144-8.592-8.144-0.672 0-2.944-1.36-4.528-2.72-7.008-6.336-9.504-7.92-18.56-12.224-9.728-4.304-12.896-11.088-6.336-13.568 1.808-0.912 3.392-2.944 3.392-4.976 0-2.944 0.448-2.944 4.080 0.224 2.256 2.256 5.888 3.84 8.144 3.84 3.168 0 13.808 5.424 17.2 9.056 2.256 2.256 10.176 7.008 14.256 8.144 2.032 0.912 3.84 2.256 3.84 3.168 0 1.136 3.168 2.72 7.008 3.392 5.2 1.136 6.336 2.032 4.080 3.616-2.496 1.584-2.256 2.032 0.912 2.032 2.256 0 4.528 1.584 5.2 3.392 0.912 1.808 2.256 3.392 3.392 3.392 2.72 0 15.616 12.896 15.616 15.84 0 1.136 1.36 2.256 3.168 2.256s3.616 1.584 4.528 3.392c1.808 4.976 10.864 4.528 9.952-0.448-0.448-2.256-1.584-4.752-2.496-5.424s-2.032-3.616-2.256-6.112c-0.224-2.72-1.584-4.976-2.944-4.976s-3.168-2.256-4.080-4.976c-1.136-4.304-1.808-4.752-3.616-1.808-1.584 2.496-2.256 1.584-2.256-3.84 0-4.080-0.912-7.472-2.032-7.472s-2.72-2.496-3.392-5.664c-0.912-3.168-2.496-5.664-3.616-5.664-1.36 0-2.256-1.584-2.256-3.392s-0.912-3.392-2.032-3.392c-1.136 0-2.944-2.256-3.84-4.976-0.912-2.944-2.496-5.888-3.616-6.56-1.36-0.912-2.496-4.080-2.496-7.008-0.224-3.84-1.584-5.424-3.616-4.528-2.032 0.672-2.72-0.224-2.032-3.168 0.448-2.256 2.256-4.080 3.616-3.616 1.584 0.224 2.72-2.032 2.72-4.976 0-4.976 0.672-5.2 16.064-4.976 13.568 0.224 16.736 0.912 18.784 4.528 1.36 2.496 4.752 6.784 7.696 9.504 2.72 2.496 4.976 5.888 4.976 7.472 0 1.36 0.912 2.496 2.256 2.496 1.136 0 2.72 2.496 3.616 5.664 0.672 3.168 2.256 5.664 3.168 5.664s2.496 2.496 3.168 5.664c0.912 3.168 2.496 5.664 3.616 5.664 1.36 0 2.256 2.496 2.256 5.664s1.136 5.664 2.256 5.664c1.36 0 2.256 1.36 2.256 2.944 0 1.36 1.36 5.424 3.168 8.816s3.84 9.056 4.752 12.896c1.584 7.92 9.504 9.952 11.536 3.168 0.672-2.256 2.256-6.112 3.168-8.592 1.136-2.496 2.496-6.56 2.944-9.056s2.032-4.304 3.392-4.080c1.584 0.448 2.72-1.808 2.72-4.976 0-4.752 6.112-20.816 9.056-23.76 2.72-2.72 9.056-16.512 9.056-19.456 0-1.808 1.584-3.84 3.392-4.528 1.808-0.912 3.392-2.256 3.392-3.616 0-4.752 7.008-8.592 15.84-8.592s9.504-0.448 8.592-5.424c-0.912-4.976-0.224-5.664 7.008-6.336 13.344-1.136 16.736 0.224 15.616 6.112-0.912 3.84 0 5.664 3.168 6.336 5.888 1.584 4.976 7.232-2.72 15.152-3.616 3.84-6.784 7.92-6.784 9.28 0 1.136-2.496 4.976-5.424 8.144s-7.232 9.728-9.728 14.48c-2.256 4.752-4.752 8.816-5.664 8.816-1.136 0-1.808 1.808-1.808 4.080 0 2.032-1.584 5.888-3.392 8.144-1.808 2.496-3.392 6.784-3.392 9.728s-1.36 5.2-2.944 5.2c-1.584 0-3.168 2.496-3.392 5.888-0.224 3.168 0.448 5.2 1.808 4.304 1.36-0.672 2.256 0 2.256 1.584s1.36 0.448 2.944-2.496c1.36-2.944 4.528-6.56 7.008-7.92 2.256-1.36 7.008-4.976 10.4-8.144 9.952-9.056 13.12-11.312 15.84-11.312 1.136 0 2.256-0.912 2.256-1.808 0-2.256 19.68-16.288 22.624-16.288 1.36 0 2.256-0.912 2.256-1.808 0-2.944 18.784-10.4 26.24-10.4 8.592 0 14.48 5.424 14.48 12.896 0 4.080-2.256 6.56-8.368 9.728-4.752 2.256-8.816 4.976-9.28 6.112-0.448 0.912-2.72 1.584-4.976 1.584s-4.976 1.136-5.664 2.256c-0.672 1.36-6.112 4.528-11.984 7.008-5.888 2.72-11.088 5.424-11.76 6.336-0.672 0.672-4.752 3.392-9.056 5.664-8.368 4.752-40.72 36.656-40.72 40.272 0 1.136-2.256 4.304-5.2 7.008-4.976 4.976-12.896 19.904-12.896 24.432 0 1.36-1.584 3.84-3.392 5.664-2.256 2.256-3.392 7.92-3.392 15.84 0 8.144-0.912 12.672-2.944 13.568-2.032 0.672-2.72 3.616-2.032 8.144 0.912 5.2 0.448 6.56-1.808 5.2s-2.72-0.224-1.36 5.664c0.672 4.080 2.032 16.064 2.944 26.464 0.672 10.176 2.032 18.784 2.944 18.784s2.256 4.080 3.168 9.056c1.36 8.592 1.808 9.056 9.28 9.056 4.304 0 7.92-0.912 7.92-2.256 0-3.616 10.64-2.496 12.224 1.36 2.496 6.112 1.584 12.224-2.032 13.568-5.424 2.032-3.84 5.424 2.256 5.424 3.168 0 5.664-0.912 5.664-2.256 0-1.136 1.36-2.256 3.168-2.256 5.664 0 10.4-6.784 10.4-14.256-0.224-9.952-6.784-17.424-16.288-17.648-4.080-0.224-10.4-1.136-14.256-2.032l-6.784-1.808 13.568-0.912-6.784-1.584c-4.752-0.912-6.784-2.72-6.784-5.888 0.224-2.496-0.672-5.2-1.808-5.888-2.256-1.808-4.080-43.216-1.584-41.632 0.912 0.672 2.496-4.976 3.392-12.448s2.496-14.256 3.616-14.928c1.136-0.672 2.032-3.616 2.032-6.56 0-5.664 7.008-11.312 10.176-8.368 1.136 0.912 1.136 0.448 0.448-0.912-1.584-2.72 14.928-19.904 28.96-30.544 3.84-2.944 7.696-6.56 8.592-8.144 1.136-1.808 2.72-2.496 3.84-1.808 0.912 0.672 2.256-0.448 3.168-2.256 0.672-1.808 2.496-3.392 4.080-3.392 1.808 0 6.112-2.72 9.952-6.336 3.84-3.392 9.056-6.336 11.76-6.336 2.496 0 7.696-2.72 11.536-6.112s9.056-6.112 11.536-6.112c2.496 0 4.528-0.672 4.528-1.808 0-2.032 20.368-9.504 26.016-9.504 3.84 0 10.176 4.976 10.176 8.144 0 0.912 4.080 7.92 9.056 15.84s9.056 15.84 9.056 17.872c0 3.84-7.92 12.448-11.312 12.448-1.136 0-6.336 4.080-11.536 9.28-9.504 9.504-10.176 15.616-2.256 21.712 4.304 3.392 11.536 3.84 11.536 0.672 0-1.136 2.944-2.256 6.784-2.256 3.616 0 7.472-1.584 8.592-3.616 3.168-5.424 12.448-2.944 15.84 4.304 1.584 3.392 3.84 6.112 5.2 6.112 1.136 0 2.032 1.136 2.032 2.496 0 1.136-1.36 1.584-2.72 0.672-2.256-1.36-2.256-0.912 0 1.584 1.36 1.584 2.72 8.592 2.72 16.064 0 12.448-0.224 13.12-7.232 16.288-4.080 1.808-13.12 3.616-20.144 4.080-8.144 0.672-15.152 2.72-19.456 5.888-6.112 4.304-7.232 6.56-7.92 17.648-0.912 14.48 0.672 16.288 17.424 22.4 6.336 2.256 12.224 4.976 13.568 6.112 1.136 0.912 5.424 1.808 9.504 1.808s7.472 1.136 7.472 2.496c0 1.136-0.912 1.584-2.256 0.912-1.136-0.672-2.256-0.672-2.256 0.448 0 0.912 3.616 4.080 7.92 7.008 6.336 4.080 7.92 6.56 7.92 12.224 0 8.592-6.336 23.76-10.864 25.568-3.616 1.36-18.56-7.008-18.56-10.4 0-1.136-1.584-2.032-3.392-2.032s-3.392-0.912-3.392-2.256c0-1.136-2.496-2.72-5.664-3.616-3.168-0.672-5.664-2.256-5.664-3.392s-2.496-2.032-5.664-2.032c-3.168 0-5.664-0.912-5.664-2.256 0-3.168-9.504-2.72-14.032 0.912-6.56 4.976-4.752 9.28 10.4 24.432 7.92 7.92 14.928 16.512 15.84 19.456 0.912 2.72 2.72 4.976 3.84 4.976s2.032 1.584 2.032 3.392c0 1.808 1.136 3.392 2.256 3.392 1.36 0 2.256 5.2 2.256 11.312 0 6.336-0.912 11.312-2.256 11.312-1.136 0-2.256 1.36-2.256 2.944s-2.032 4.752-4.752 7.008c-4.528 3.84-4.976 3.84-9.056-0.672-2.256-2.496-4.304-6.112-4.304-7.696 0-1.808-1.584-4.528-3.392-6.112s-3.392-4.752-3.392-7.008c0-2.496-0.912-4.304-1.808-4.304-1.136 0-3.84-4.080-6.336-9.056-2.256-4.976-5.664-9.056-7.008-9.056-1.584 0-2.944-0.912-2.944-2.256 0-1.136-2.032-4.304-4.752-7.008-5.424-5.424-19.68-5.2-22.4 0.224-7.472 15.392-9.056 21.952-9.056 39.136 0 10.4-0.912 19.68-2.032 21.040-1.36 1.136-2.496 7.696-2.944 14.48-0.672 10.4-1.36 12.448-4.752 11.984-2.72 0-3.616 0.912-2.944 2.944 1.36 3.168 0.672 3.392-5.888 1.584zM371.76 406.496c-0.672-2.256-1.136-0.912-1.136 2.72 0 3.84 0.448 5.424 1.136 4.080 0.448-1.584 0.448-4.752 0-6.784zM25.152 308.528c-0.672-1.136-2.72-2.256-4.080-2.256-1.584 0-1.36 0.912 0.672 2.256 4.304 2.72 5.2 2.72 3.392 0zM181.264 224.816c0.912-1.36 3.392-1.808 5.664-1.136s4.752 0.224 5.664-1.136c0.672-1.36 2.496-1.808 3.616-1.136 4.080 2.72 1.808-1.36-3.616-6.56-3.168-2.944-5.664-6.112-5.664-7.008 0-2.496-19.904-21.488-22.4-21.488-1.136 0-2.496-0.672-2.944-1.584-1.36-3.392-17.2-10.176-19.68-8.816-3.84 2.496-2.944 17.872 1.36 26.464 5.424 10.864 14.256 20.144 19.232 20.144 2.496 0 3.616 1.136 2.944 2.256-0.912 1.36 1.808 2.256 6.56 2.256 4.304 0 8.592-1.136 9.28-2.256zM349.824 225.28c0-0.912 3.168-2.032 7.232-2.256 4.080-0.448 9.056-2.72 11.312-4.976 6.112-6.336 15.616-26.24 16.064-33.040s-6.336-12.896-9.28-8.368c-0.912 1.36-4.528 3.392-7.92 4.080-3.392 0.912-6.112 2.496-6.112 3.616s-1.584 2.032-3.392 2.032c-1.808 0-8.368 5.2-14.704 11.312-9.728 9.952-11.312 12.672-11.312 20.368 0 9.056 0 9.056 9.056 9.056 4.976 0 9.056-0.912 9.056-1.808zM50.256 215.552c0.672-1.36 0.224-3.616-1.136-4.976-2.032-2.032-2.256-1.584-1.136 1.584 1.36 3.616 0.912 4.080-2.256 2.944-2.256-0.912-3.392-0.672-2.496 0.672 1.808 2.944 4.976 2.944 7.008-0.224zM55.008 207.392c-0.912-0.672-1.584 0-1.584 1.584s0.672 2.256 1.584 1.584c0.672-0.912 0.672-2.256 0-3.168zM61.808 205.136c-0.912-0.672-1.584 0-1.584 1.584s0.672 2.256 1.584 1.584c0.672-0.912 0.672-2.256 0-3.168zM285.792 200.608c-0.912-0.672-1.584 0-1.584 1.584s0.672 2.256 1.584 1.584c0.672-0.912 0.672-2.256 0-3.168zM66.32 198.352c-0.912-0.672-2.256-0.672-3.168 0-0.672 0.912 0 1.584 1.584 1.584s2.256-0.672 1.584-1.584zM76.048 192.24c0-0.672-0.912-1.808-2.256-2.496-1.136-0.672-2.256-0.224-2.256 0.912 0 1.36 1.136 2.496 2.256 2.496 1.36 0 2.256-0.448 2.256-0.912zM78.32 177.312c0-1.136-0.912-2.256-2.256-2.256-1.136 0-2.256 1.136-2.256 2.256 0 1.36 1.136 2.256 2.256 2.256 1.36 0 2.256-0.912 2.256-2.256zM312.944 171.2c-0.912-0.672-1.584 0-1.584 1.584s0.672 2.256 1.584 1.584c0.672-0.912 0.672-2.256 0-3.168zM82.16 168.944c-0.912-0.672-2.256-0.672-3.168 0-0.672 0.912 0 1.584 1.584 1.584s2.256-0.672 1.584-1.584z"></path>
</svg>
