<!-- Generated by IcoMoon.io -->
<svg version="1.1" xmlns="http://www.w3.org/2000/svg" width="512" height="512" viewBox="0 0 512 512">
<title>monsters-of-order</title>
<g id="icomoon-ignore">
</g>
<path d="M71.312 387.216c2.464-1.056 5.616-0.704 6.672 0.352 1.408 1.056-0.704 2.112-4.56 1.76-3.856 0-4.912-1.056-2.112-2.112z"></path>
<path d="M427.056 197.92c0-3.856 1.056-4.912 2.112-2.112 1.056 2.464 0.704 5.616-0.352 6.672-1.056 1.408-2.112-0.704-1.76-4.56z"></path>
<path d="M265.152 502.048c-4.912-1.408-21.776-1.76-37.232-0.704-23.872 1.408-31.248 0.352-43.904-5.616-8.432-3.856-23.536-10.88-33.712-15.456-20.016-8.784-22.128-11.584-11.584-15.104 3.856-1.056 7.024-3.856 7.024-5.616 0-2.112 1.76-2.464 3.504-1.408 2.112 1.408 3.504-3.168 3.504-10.88 0-11.584 0.704-12.64 8.080-10.528 4.208 1.056 12.288 2.112 17.552 2.112 5.616 0 9.136 1.408 7.728 3.504-1.056 2.112-0.704 3.504 1.408 3.504 1.76 0 4.56-1.408 5.616-3.504 3.168-5.264 15.104-4.208 18.256 1.76 2.464 3.856 11.584 5.264 40.736 5.968 27.392 0.704 37.584 2.112 37.584 5.264 0 5.264 15.456 9.84 21.072 6.32 2.112-1.408 2.816-5.264 1.76-9.136-1.408-4.208-0.704-6.672 2.464-6.672 2.816 0 11.936-3.168 20.016-7.376 14.4-6.672 15.456-7.024 21.776-1.056 3.504 3.168 6.672 9.84 6.672 14.4s2.464 9.136 5.264 10.192c2.816 1.408 5.264 4.56 5.264 7.728 0 2.816-1.056 4.208-2.112 3.168-1.408-1.408-6.672 1.056-12.288 4.912-5.264 3.856-14.752 8.784-20.72 10.528-5.616 2.112-10.528 5.264-10.528 6.672 0 1.76-9.136 3.856-20.016 5.264-11.232 1.056-23.536 2.816-27.392 3.168-3.856 0.704-10.88 0-15.808-1.408z"></path>
<path d="M33.376 367.552c-4.912-9.84-9.84-18.96-10.88-20.016s-6.32-18.256-11.584-38.624c-10.176-41.088-12.288-73.744-4.208-73.744 2.464 0 6.672-2.464 9.488-5.616 3.504-4.56 3.504-7.024-1.76-15.808-5.968-10.176-5.968-11.584 0-35.472 3.168-14.048 8.080-29.152 10.528-34.064 2.816-4.912 4.912-10.88 4.912-13.344 0-10.176 9.136-5.968 12.288 5.616 3.504 11.584 4.912 12.64 18.96 14.4 15.808 1.76 22.832 8.784 12.992 12.64-3.168 1.056-5.616 4.208-5.616 6.672s-3.168 14.4-7.376 26.688c-6.672 20.016-7.024 27.744-5.264 71.296 1.76 34.416 3.856 50.576 7.376 55.84 2.816 4.208 5.264 11.232 5.264 15.808 0 4.208 2.464 8.784 5.264 9.84 8.080 3.168 6.672 20.016-2.112 25.28-4.912 3.168-6.672 3.504-4.912 0.704 2.112-3.168 0.704-3.168-4.56-0.352-4.208 2.112-8.432 5.616-9.488 7.376-4.56 7.376-10.88 2.816-19.312-15.104zM72.016 358.064c0-1.76-1.76-3.504-3.856-3.504-1.76 0-2.464 1.76-1.408 3.504 1.056 2.112 2.816 3.504 3.856 3.504 0.704 0 1.408-1.408 1.408-3.504zM19.328 242.176c0-1.76-1.76-3.504-3.856-3.504-1.76 0-2.464 1.76-1.408 3.504 1.056 2.112 2.816 3.504 3.856 3.504 0.704 0 1.408-1.408 1.408-3.504z"></path>
<path d="M470.592 487.296c-7.728-5.264-23.536-14.752-35.12-20.72-51.264-26.688-54.432-29.152-54.432-38.976 0-3.504 2.464-10.528 5.616-15.104 3.168-4.912 4.56-8.784 3.168-8.784-6.32 0 17.552-17.2 25.984-18.608 9.136-1.76 21.776 2.464 21.072 7.376-1.056 4.56 11.936 32.304 15.104 32.304 1.408 0 2.816 2.816 2.816 6.32 0 3.168 5.616 11.936 12.288 18.96 11.584 11.936 18.256 24.576 21.072 38.624 2.112 9.84-2.464 9.488-17.552-1.408z"></path>
<path d="M62.176 129.088c-2.464-2.464-4.208-7.024-4.208-10.528 0-7.728-7.376-23.872-10.88-23.872-1.76 0-3.856-5.616-5.264-12.288-1.056-6.672-3.504-13.344-5.264-14.4s-2.464-3.504-1.408-5.264c1.408-1.76 0.704-3.168-1.056-3.168-2.112 0-5.264-4.208-7.376-9.488-2.112-5.616-7.728-16.864-12.64-25.28-13.696-24.224-12.992-24.576 19.664-5.264 9.488 5.616 23.184 16.16 37.232 28.448 7.024 5.968 16.864 12.288 21.776 13.344 16.864 4.208 20.368 11.584 16.864 33.36-3.168 18.608-4.208 20.016-16.864 25.632-7.728 3.168-17.2 5.968-21.776 6.32-7.376 0-7.376 0.352-0.704 3.168 4.912 2.112 5.264 3.168 1.76 3.168-3.168 0.352-7.376-1.408-9.84-3.856zM103.616 84.144c0-1.76-1.408-3.504-3.504-3.504-1.76 0-3.504 1.76-3.504 3.504 0 2.112 1.76 3.504 3.504 3.504 2.112 0 3.504-1.408 3.504-3.504z"></path>
<path d="M411.952 118.208c-3.168-2.464-6.672-10.528-8.080-17.552s-4.208-12.992-6.672-12.992c-2.816 0-2.816-0.704 0-2.816 2.464-1.408 4.56-5.616 5.264-9.488 1.056-4.56 9.84-11.232 25.984-19.312 13.696-6.672 25.632-13.696 26.688-15.104 2.464-3.504 14.752-10.88 27.392-16.512 4.56-2.112 12.288-6.672 17.2-10.528s9.488-6.32 10.192-5.616c2.112 2.112-6.672 26.688-9.488 26.688-1.408 0-4.208 5.616-7.024 12.288s-5.616 12.288-7.024 12.288c-3.856 0-28.096 34.768-28.096 40.384 0 7.376-8.784 16.16-14.752 15.104-2.464-0.704-4.208 0.704-3.856 2.816 1.056 5.264-20.72 5.616-27.744 0.352z"></path>
<path d="M450.928 394.24c-0.352-1.76-0.704-4.208-1.056-6.32-0.704-7.024-7.728-14.4-17.2-18.608-7.728-3.168-8.784-5.264-6.32-10.192 15.456-28.8 24.576-109.216 17.904-156.272-8.784-61.104-8.784-57.952 0.352-62.512 4.56-2.464 9.84-6.672 11.232-9.136 5.616-9.488 11.584-4.56 21.424 17.2 14.4 30.208 19.664 52.672 19.664 80.416 0 18.256-1.408 24.576-5.264 25.984-5.968 2.464-7.376 15.456-1.76 15.456 6.32 0 12.288 17.2 7.728 21.776-2.464 2.464-4.208 10.192-4.208 17.552s-1.408 13.344-3.168 13.344-4.912 8.080-7.376 17.904c-2.464 9.824-6.672 18.608-9.136 19.664-2.816 1.056-4.912 3.856-4.912 6.672s-1.76 4.912-3.504 4.912c-3.504 0-12.288 16.864-11.232 22.128 0.352 1.408 0 2.464-1.056 2.464s-2.112-1.056-2.112-2.464zM482.896 191.6c0-0.704-1.056-3.856-2.112-7.024-3.168-8.080-8.432-7.024-8.432 1.408 0 3.856 2.464 7.024 5.264 7.024s5.264-0.704 5.264-1.408z"></path>
<path d="M209.328 429.712c-2.816-3.504-8.432-4.912-15.104-4.208-5.616 1.056-10.88 0.352-11.936-1.408-1.056-1.408-6.32-2.816-12.288-2.816-5.616 0-10.176-1.408-10.176-2.816s-5.616-4.912-12.288-7.376c-6.672-2.464-12.288-5.616-12.288-7.376s-2.816-3.856-6.672-5.264c-6.32-1.76-35.472-40.736-35.472-47.408 0-1.76-2.464-5.264-5.264-8.432-5.616-5.616-9.84-21.776-16.16-63.568-4.208-26.336-2.112-75.152 3.168-78.672 1.76-1.056 4.208-9.488 5.616-18.96 1.408-9.136 3.856-16.512 5.616-16.512 2.112 0 5.616-5.616 8.432-12.288 6.672-15.808 55.84-63.568 74.096-72.336 7.728-3.504 20.016-6.672 27.040-6.672s22.128-2.464 33.36-5.264c29.856-7.728 38.624-7.024 41.088 3.504 2.464 10.176 6.32 10.88 13.696 3.504 8.432-8.080 33.36-4.208 62.512 10.176 56.896 27.744 78.672 63.568 81.12 133.104 0 5.264 1.408 9.488 2.816 9.488 5.264 0 7.376 25.632 3.504 43.552-2.112 10.528-7.024 24.928-10.528 32.304-3.856 7.376-7.024 16.512-7.024 20.016s-1.408 5.616-3.168 4.208c-1.76-1.056-4.208 1.408-5.616 5.264-1.056 3.856-5.264 8.784-9.136 10.528-3.504 2.112-6.672 5.968-6.672 8.784s-2.112 6.32-4.56 7.728c-2.464 1.408-9.136 9.488-15.104 17.904-7.024 10.192-14.4 16.16-23.184 18.96-7.376 2.112-13.344 5.264-13.344 6.672s-4.912 3.504-10.88 4.912c-5.968 1.408-15.808 7.024-22.48 12.64-8.784 8.080-16.16 10.528-33.008 12.288-18.256 2.112-21.424 1.76-21.424-3.504 0-7.376-19.312-7.728-22.48-0.352-2.464 6.672-9.488 6.672-15.808-0.352z"></path>
<path d="M1.776 507.664c0-2.816 2.464-5.968 5.616-7.024 3.168-1.408 4.912-4.56 3.504-7.376-1.056-2.816-0.352-5.264 1.408-5.264 2.112 0 3.504-2.464 3.504-5.264 0-3.168 2.112-6.32 4.912-7.376s6.32-7.024 7.728-12.992c1.056-6.32 5.264-15.104 8.784-19.664 3.856-4.56 6.672-10.192 6.672-12.288 0-2.464 4.912-9.488 10.88-15.456 6.672-6.672 10.528-13.696 9.488-17.2-1.408-5.616 0.704-6.32 17.552-5.264 21.776 0.704 42.848 13.344 42.848 25.632 0 4.208-1.408 5.968-3.856 4.56-2.816-1.408-3.168 0-1.408 5.264 2.464 8.432-2.112 14.048-16.512 20.368-5.616 2.464-9.84 5.616-9.84 7.376s-6.32 4.912-14.048 7.376c-7.728 2.112-14.048 5.616-14.048 7.376 0 1.408-4.56 3.856-10.176 5.264-5.616 1.056-11.232 4.56-12.288 7.376s-3.856 4.912-6.32 4.912-10.88 5.616-18.256 12.288c-15.808 14.048-16.16 14.048-16.16 7.376zM89.568 403.36c0-1.76-2.464-3.168-5.264-3.168s-5.264 2.464-5.264 5.264c0 3.168 2.112 4.208 5.264 3.168 2.816-1.408 5.264-3.504 5.264-5.264z"></path>
<path d="M363.488 80.976c0-1.76-4.912-4.208-10.88-5.616s-11.584-4.56-12.64-7.024c-0.704-2.816-9.136-5.968-17.904-7.376-9.136-1.408-21.776-5.264-28.096-8.784-12.288-7.024-23.536-8.432-26.688-3.504-1.056 1.76-10.528 3.168-20.72 3.504-10.528 0-23.536 1.76-29.152 3.856s-10.528 3.856-11.232 3.504c-3.168-2.112-45.296 5.264-52.672 9.136-11.936 6.32-21.776 6.32-21.776 0.352 0-5.616-14.752-20.016-20.368-20.016-2.464 0-4.208-3.168-4.208-7.024 0-4.912 2.464-7.024 8.432-7.024 4.56 0 10.176-2.464 12.64-5.264 2.112-2.816 7.376-5.968 11.584-7.376s9.488-4.208 11.936-6.672c4.56-4.912 30.208-9.488 57.952-10.528 9.488-0.352 17.904-1.76 19.312-2.816 3.504-3.504 74.096-2.816 76.208 0.704 1.056 1.76 14.752 4.208 30.208 5.616s27.040 3.856 25.984 5.616c-1.056 1.76 1.408 3.168 5.264 3.168s7.728 1.408 9.136 3.504c1.056 1.76 4.208 2.464 7.024 1.056 2.816-1.056 5.264 0 5.264 2.112s3.856 5.616 8.784 7.376c8.432 3.168 12.992 17.552 5.264 17.552-5.616 0-20.016 16.512-22.48 25.984-1.408 5.968-4.56 9.136-9.136 9.136-3.856 0-7.024-1.408-7.024-3.168z"></path>
</svg>
