<!-- Generated by IcoMoon.io -->
<svg version="1.1" xmlns="http://www.w3.org/2000/svg" width="512" height="512" viewBox="0 0 512 512">
<title>monsters-of-order</title>
<g id="icomoon-ignore">
</g>
<path d="M153.184 474.432c-7.024-10.88-8.080-17.2-7.376-43.888 0-17.2 2.112-36.512 4.56-42.832 3.856-10.88 3.504-12.992-7.024-27.392-12.992-17.904-27.744-24.224-61.44-25.984-11.232-0.352-22.128-2.464-24.576-4.912-5.968-5.968-3.152-77.248 3.152-84.272 2.816-3.152 5.968-10.528 7.024-16.144 2.112-10.528-2.464-50.56-7.024-62.848-1.76-5.616-1.76-5.968 1.408-1.76 3.168 4.56 3.856 4.56 3.856 0 0-3.152-1.76-7.376-3.856-9.472-2.816-2.816-2.816-4.56 0-5.968 2.112-1.408 3.856-9.472 3.856-17.904s1.408-19.312 3.504-24.224c1.76-4.912 3.504-14.4 4.208-21.072 0.352-6.672 2.112-11.232 3.504-10.528 1.408 1.056 2.816-1.76 2.816-6.32s2.112-11.232 4.912-15.104c2.464-3.856 5.968-11.936 7.024-17.904 2.816-12.992 9.824-20.016 28.784-29.488 18.608-9.824 21.776-8.784 24.224 6.32 1.056 7.024 5.264 18.96 8.784 25.984 3.856 7.024 7.024 15.456 7.024 18.256s1.76 5.616 3.856 6.32c2.112 0.704 5.968 11.584 8.784 23.872 2.464 12.64 8.080 34.064 11.936 47.392 4.208 13.696 9.136 30.896 10.88 38.624 3.856 17.552 18.256 62.496 20.72 64.96 3.152 3.152 4.56 11.936 5.968 39.68 1.056 22.128 0.352 27.392-3.856 29.136s-4.56 3.856-2.112 8.432c5.616 10.528 4.208 20.368-5.264 35.104-4.912 7.728-8.784 15.456-8.784 17.2 0 5.968 10.528 7.024 23.52 2.464 7.376-2.464 15.808-3.856 18.608-2.816 5.968 2.112 17.2 15.104 17.552 20.016 0 3.856 4.208 9.824 20.368 29.84 4.208 5.264 8.784 14.752 9.824 20.72 1.408 5.968 3.504 10.176 4.912 9.136 2.464-1.408-1.408 22.128-4.208 24.576-0.352 0.704-7.376 1.76-15.104 2.464l-14.048 1.056 1.056-16.496c0.704-9.472-0.352-19.664-2.464-22.816-2.816-5.616-3.856-4.912-7.376 4.208-2.464 5.968-4.56 16.848-5.264 24.576s-2.816 14.048-4.912 13.696c-2.112-0.352-7.728-0.704-12.64-0.704-7.376-0.704-8.784-2.464-8.784-10.88 0-18.256-4.208-31.952-9.824-31.952-4.208 0-4.912 3.504-2.816 20.016 1.408 11.232 3.856 21.776 5.616 23.52 6.32 6.32 3.856 7.728-11.936 8.784-14.752 0.704-15.808 0.352-18.256-10.88l-2.464-11.584-3.152 11.584c-4.208 16.144-17.2 15.456-27.744-1.76zM158.448 401.392c2.464-9.824 2.112-10.176-3.504-4.56-3.504 3.504-4.912 8.080-3.504 11.936 2.816 7.376 3.856 5.968 7.024-7.376zM176 308c4.912-2.464 9.472-6.32 10.528-9.136 3.152-8.432-4.56-18.608-15.808-21.072-5.616-1.056-10.176-3.168-10.176-4.56s-4.208-3.856-9.472-5.264c-4.912-1.056-13.344-5.264-17.904-9.136-11.232-8.784-15.792-8.432-27.392 2.112-21.424 19.664-21.072 33.712 0.352 38.272 62.496 14.4 58.64 13.696 69.872 8.784zM195.664 273.232c0-1.76-1.76-3.504-3.856-3.504-1.76 0-2.464 1.76-1.408 3.504 1.056 2.112 2.816 3.504 3.856 3.504 0.704 0 1.408-1.408 1.408-3.504zM65.744 259.2c0-1.76-1.408-3.504-3.504-3.504-1.76 0-3.504 1.76-3.504 3.504 0 2.112 1.76 3.504 3.504 3.504 2.112 0 3.504-1.408 3.504-3.504zM93.84 63.984c0-4.912-1.056-4.912-5.264-1.408-2.816 2.464-5.264 4.912-5.264 5.616s2.464 1.408 5.264 1.408c2.816 0 5.264-2.464 5.264-5.616z"></path>
<path d="M341.024 500.048c-1.056-6.672-1.408-13.696-0.352-15.456 1.408-1.408-1.056-8.080-4.912-14.048-3.504-6.32-6.672-13.344-6.672-15.808s-3.168-10.176-7.024-17.552c-3.856-7.024-7.024-15.456-7.024-18.256 0-3.168-2.112-6.32-4.912-7.376-2.464-1.056-6.672-8.080-9.136-15.808-2.464-7.376-5.616-13.696-7.024-13.696s-3.856-10.528-5.264-23.52c-1.408-12.992-3.856-27.392-5.968-32.656-2.816-7.024-7.376-38.976-10.88-74.432-0.352-3.504-1.408-6.32-2.816-6.32s-3.504-5.968-4.912-12.992c-1.408-7.376-4.56-17.2-7.024-22.128s-5.616-17.2-7.024-27.040c-1.408-10.176-3.504-18.608-5.264-18.608-3.504 0-10.528-28.432-10.528-43.536 0-7.024-1.408-12.64-3.504-12.64-1.76 0-3.504-4.56-3.504-10.176 0-14.4-7.024-32.304-16.144-40.736-6.32-5.968-7.376-9.472-5.264-19.312 1.76-9.824 4.56-12.64 14.4-15.808 6.672-1.76 14.752-4.912 17.552-7.024 6.672-4.56 77.248-5.968 77.248-1.408 0 1.76 2.464 3.168 5.616 3.168s9.824 2.816 14.752 6.672c5.264 3.504 15.456 8.432 22.816 10.528 7.024 2.464 12.992 5.616 12.992 7.376s3.504 4.208 7.376 5.264c11.232 3.856 23.168 18.96 28.096 36.16 2.112 8.080 5.616 15.792 7.024 16.848 1.76 1.056 3.168 16.144 3.168 33.36 0 19.664 1.76 36.16 4.912 43.536 3.168 7.024 5.264 22.816 4.912 36.512 0 19.664 1.408 26.688 7.376 34.752 3.856 5.968 7.376 11.584 7.376 12.992s2.816 6.672 6.672 11.584c4.208 6.672 7.024 18.96 8.784 39.68 2.112 28.784 1.76 30.544-6.672 39.68-4.56 4.912-10.176 9.136-12.288 9.136s-10.88 4.56-18.96 10.176c-8.432 5.968-19.664 11.584-25.28 12.992-11.232 2.464-33.36 14.752-37.216 20.368-4.208 6.32-3.168 29.136 1.76 34.416 4.56 4.912 7.376 19.312 7.376 37.92 0 30.192-19.664 48.448-24.576 23.168zM383.504 339.6c1.76-1.76 5.616-3.168 8.432-3.168 9.824 0 24.928-18.256 24.928-29.84 0-15.456-12.992-20.016-38.624-13.344-10.528 2.464-20.016 5.968-21.072 7.728-1.056 1.408-7.024 3.856-13.344 4.912-12.64 2.464-32.304 15.808-32.304 21.776 0 5.616 14.4 18.256 22.816 20.016 9.136 1.76 44.592-4.208 49.152-8.080zM415.808 334.336c-1.056-1.056-4.208-1.408-6.672-0.352-2.816 1.056-1.76 2.112 2.112 2.112 3.856 0.352 5.968-0.704 4.56-1.76zM416.864 178.432c0-1.76-1.408-3.504-3.504-3.504-1.76 0-3.504 1.76-3.504 3.504 0 2.112 1.76 3.504 3.504 3.504 2.112 0 3.504-1.408 3.504-3.504zM327.328 34.48c1.056-1.76 0.352-3.504-1.408-3.504-2.112 0-3.856 1.76-3.856 3.504 0 2.112 0.704 3.504 1.408 3.504 1.056 0 2.816-1.408 3.856-3.504zM316.448 25.712c-1.408-2.816-5.264-5.264-8.784-5.264-5.968 0-6.32 0.704-2.464 5.264 5.968 6.672 13.696 6.672 11.232 0z"></path>
</svg>
