<!-- Generated by IcoMoon.io -->
<svg version="1.1" xmlns="http://www.w3.org/2000/svg" width="512" height="512" viewBox="0 0 512 512">
<title>monsters-of-order</title>
<g id="icomoon-ignore">
</g>
<path d="M503.824 235.296c-0.864 6.048-1.712 12.112-2.608 18.16-1.824 12.48-3.84 24.928-5.456 37.44-2.288 17.744-6.208 35.088-11.44 52.192-0.944 3.072-2.096 6.128-3.408 9.072-2.688 6.048-5.568 12.032-8.672 18.72-2.512 0.176-5.2-1.344-7.52-4.080-3.024-3.584-6.288-6.96-9.344-10.544s-7.36-3.808-11.472-4.816c-3.184-0.784-6.208-2.208-9.344-3.216-4.336-1.424-8.64-2.96-13.040-4.032-3.728-0.928-5.968-2.848-5.488-6.352 1.488-11.088 2.96-22.128 4.864-33.152 1.344-7.808 4.032-15.424 4.864-23.248 1.008-9.648 0.784-19.424 0.976-29.136 0.256-12.848 0.64-25.68 0.48-38.528-0.256-18.784-2.992-37.152-9.744-54.816-0.304-0.816 0.272-2.272 0.928-3.056 1.504-1.84 3.664-3.056 3.968-5.904 0.112-0.944 1.936-1.984 3.168-2.544 7.632-3.408 15.44-6.464 22.944-10.128 6.768-3.296 11.76-8.416 13.488-16.144 0.416-1.872 1.456-3.632 2.208-5.424 0.416-0.192 0.816-0.416 1.232-0.608 0.72 1.12 1.344 2.352 2.208 3.328 0.896 0.976 1.952 2.24 3.104 2.4 4.752 0.704 6.496 4.176 8.192 7.952 5.856 12.896 12.176 25.632 14.992 39.68 0.592 2.944 1.312 5.904 1.68 8.864 1.056 8.864 0.896 18.048 3.248 26.528 2.464 8.864 2.88 17.936 4.896 26.784 0.080 1.504 0.080 3.072 0.080 4.64zM482.336 315.616c1.616-1.376 3.392-2.096 3.696-3.248 1.392-5.12 2.608-10.352 3.328-15.616 0.192-1.312-1.344-3.504-2.688-4.224-1.792-0.976-3.392 0.336-3.952 2.384-0.304 1.056-0.48 2.176-0.64 3.28-0.368 2.048-0.032 4.624-1.152 6.080-2.096 2.72-1.68 5.456-1.2 8.256 0.112 0.976 1.392 1.76 2.608 3.104zM465.264 361.584c1.872 0.192 3.84-1.68 3.28-3.504-1.28-4.224-3.44-7.952-7.744-9.904-1.904-0.864-3.056-0.512-3.584 1.792-0.816 3.632 4.304 11.216 8.064 11.616zM444.368 346.112c1.84-0.080 3.968 0.368 3.856-2.688-0.112-3.44-2.496-5.968-5.904-5.968-2.288 0-3.504 1.168-3.552 3.504-0.080 3.296 1.792 5.008 5.6 5.152zM438.576 328.688c-0.144-2.8-1.712-3.952-4.304-3.968-2.432-0.032-2.992 1.456-2.88 3.472 0.144 2.432 1.168 3.952 3.856 3.968 2.432 0.032 3.296-1.28 3.328-3.472zM430.896 173.104c0-2.576 0.176-4.896-0.112-7.168-0.080-0.64-1.344-1.264-2.176-1.6-0.304-0.112-1.168 0.56-1.424 1.040-1.488 2.832-0.080 6.208 3.728 7.728zM431.12 155.952c2.432-2.848 2.432-3.056 0.416-5.2-2.832 2.72-2.848 2.944-0.416 5.2z"></path>
<path d="M246.608 511.984c-10.688-1.488-21.216-3.664-32.24-2.384-5.232 0.608-10.88-0.752-16.112-2.064-9.408-2.384-18.496-6.192-27.984-7.952-9.12-1.712-15.888-7.328-23.68-11.312-11.056-5.648-20.544-13.408-29.968-21.328-1.424-1.2-2.608-2.688-4.304-4.448 2.16-1.088 3.728-2.176 5.456-2.72 12.736-3.92 24.544-9.488 34.944-18 5.824-4.752 12.896-4.48 19.28-0.64 2.496 1.488 5.6 1.904 8.368 2.992 2.208 0.864 4.736 1.568 6.384 3.104 4.592 4.4 9.76 6.768 16.144 7.072 6.352 0.304 12.672 1.488 19.024 1.712 8.56 0.272 17.184 0.192 25.744-0.080 14.528-0.448 29.104-0.48 43.52-1.984 11.392-1.2 22.56-4.368 33.808-6.768 4.032-0.864 7.952-2.32 11.984-3.184 7.856-1.68 15.168-4.624 21.824-9.072 2.4-1.616 4.256-1.392 6.608 0.336 9.376 6.848 17.888 14.544 24.432 24.176 2.72 4 2.464 4.528-1.6 7.44-0.448 0.304-0.976 0.672-1.168 1.12-2.4 5.424-7.52 8.032-11.648 11.776-7.104 6.432-15.44 10.496-24.176 13.968-4.224 1.68-8.64 2.768-12.976 4.176-3.168 1.040-6.272 2.288-9.488 3.168-2.32 0.64-4.752 0.928-7.136 1.168-1.68 0.192-3.44-0.176-5.072 0.176-12 2.544-23.952 5.424-36.048 7.664-4.672 0.864-9.6 0.192-14.384 0.48-3.632 0.224-7.248 0.864-10.864 1.344-2.848 0.048-5.76 0.048-8.672 0.048z"></path>
<path d="M8.208 270.896c2.384-11.2 5.712-22.352 3.84-33.968-1.536-9.488-0.256-18.576 1.648-27.872 1.504-7.472 2.176-15.024 6.736-21.456 0.384-0.528 0.592-1.2 0.752-1.84 4.752-18.048 15.92-32.48 27.536-46.304 5.264-6.272 12.736-10.752 19.536-15.584 3.408-2.432 5.184-1.312 6.048 2.832 0.224 1.088 0.384 2.208 0.512 3.296 0.896 8.528 3.92 15.984 10.912 21.44 1.648 1.28 3.056 2.96 4.512 4.512 3.92 4.176 5.12 4.448 10.544 2.464 0.48-0.176 1.008-0.192 2.24-0.448-1.152 3.072-1.952 5.68-3.056 8.144-4.448 10.096-8.976 20.176-13.52 30.256-3.584 8-5.12 16.432-4.976 25.12 0.256 15.248-1.232 30.336-2.352 45.504-0.896 12.032 1.040 24.288 1.728 36.432 0.288 5.12 0.672 10.24 0.928 15.328 0.032 0.704-0.224 1.76-0.72 2.128-4.736 3.392-8.144 8.56-14.544 9.792-2.064 0.384-4.224 2.944-5.376 5.040-3.472 6.352-5.632 13.12-4.592 20.592 0.192 1.376-0.48 2.848-0.864 4.96-4.288-2.8-8-5.008-11.44-7.616-0.864-0.672-1.12-2.496-1.168-3.84-0.048-1.28 0.48-2.624 0.752-3.952 0.528-2.496-0.256-3.36-2.992-3.808-5.68-0.928-10.864-3.52-14.384-8.224-2.72-3.632-4.672-7.856-6.96-11.84-3.952-6.736-5.6-14.016-5.312-21.824 0.080-2.624-0.416-5.344-1.056-7.888-1.488-5.824-3.248-11.552-4.896-17.328 0.032-1.344 0.032-2.688 0.032-4.032z"></path>
<path d="M342.816 406.944c0.704-2.064 1.456-3.632 1.712-5.296 0.512-3.296 0.752-6.64 1.056-9.968 0.144-1.6 0.832-3.552-1.648-4-2.24-0.416-4.368 0.272-4.672 2.656-0.56 4.592-0.704 9.232-0.864 13.872-0.032 1.28 0.64 2.608 0.752 3.952 0.512 4.848-1.2 7.776-6.080 8.976-8.56 2.064-17.184 4.336-25.888 5.344-17.632 2.064-35.264 4.144-52.768 7.104-7.616 1.28-15.648 0.032-23.456 0.528-16.672 1.056-32.032-4.4-47.296-9.648-6.832-2.352-12.928-6.992-19.104-10.944-1.264-0.816-1.936-3.248-2.016-4.96-0.336-7.616-0.288-15.216-0.56-22.8-0.080-2.176-0.56-4.48-1.456-6.432-3.136-7.056-6.576-13.936-9.744-20.96-1.616-3.584-4.080-6.048-7.776-7.392-1.872-0.672-3.632-1.792-5.568-2.288s-4.064-0.448-6.080-0.784c-4.816-0.832-9.632-1.6-14.32-2.8-0.944-0.256-1.712-2.208-2.064-3.52-1.168-4.112-3.184-7.584-5.6-11.2-2.768-4.192-4.288-9.568-5.072-14.64-1.424-9.264-1.616-18.688-2.912-27.984-0.784-5.712-0.48-11.28-0.224-16.992 0.304-7.248-0.368-14.528-0.56-21.776-0.048-2.32-0.176-4.704 0.144-6.96 1.488-10.272 2.72-20.56 4.816-30.72 1.568-7.52 4.288-14.8 6.512-22.16 1.264-4.176 4.112-7.136 6.832-10.464 9.040-11.104 21.184-18.528 31.616-27.904 4-3.616 6.4-8.032 6.544-13.488 0.064-2.432 0.816-4.224 3.136-5.456 0.928-0.48 1.68-1.76 1.984-2.848 1.040-3.296 2.96-5.968 6.096-7.184 4.64-1.824 9.456-3.168 14.24-4.672 3.584-1.152 7.584-1.6 10.688-3.472 9.344-5.648 19.616-7.024 30.16-7.968 7.632-0.704 15.2-2.208 22.8-3.296 1.312-0.192 2.656-0.288 3.968-0.176 6.24 0.48 12.48 0.864 18.688 1.568 9.984 1.088 19.984 2.208 29.92 3.664 8.48 1.232 16.96 2.72 25.328 4.56 3.056 0.672 5.904 2.544 8.704 4.144 6.096 3.504 7.184 3.392 11.648-2.016 3.104-3.808 6.16-3.328 7.728 1.344 1.264 3.808 2.288 7.728 3.168 11.616 1.232 5.408 3.664 10.016 7.84 13.712 6.192 5.488 12.176 11.168 18.432 16.56 1.312 1.152 3.36 1.76 5.152 1.984 3.056 0.384 4.928 1.76 5.824 4.704 7.744 25.44 13.824 51.152 12.736 78.048-0.384 9.632-0.080 19.28-0.832 28.848-0.816 10.464-3.216 20.816-3.616 31.28-0.48 12.48-4.144 24.176-6.72 36.16-0.48 2.16-0.752 4.48-0.528 6.656 0.368 3.472-1.088 5.344-4.080 6.768-11.504 5.424-21.12 13.008-27.088 24.544-5.12 9.936-8.256 20.544-9.424 31.584-0.368 3.328-1.984 4.736-4.448 5.936-2.4 1.168-3.696-0.512-4.976-2.128-0.336-0.608-0.928-0.944-0.784-0.832zM257.888 405.104c5.488-0.448 9.264-0.816 13.040-1.088 10.528-0.752 21.008-0.384 31.392 1.504 1.2 0.224 2.208 1.376 3.392 1.84 1.728 0.704 3.744 1.936 5.312 1.568 2.288-0.528 2.272-2.992 1.824-5.088-0.896-4.144-1.76-8.304-2.8-12.4-1.312-5.12-2.464-10.272-1.040-15.536 1.504-5.6 3.056-11.216 4.864-16.736 3.136-9.568 9.568-16 19.216-19.056 3.504-1.088 7.104-1.904 10.656-2.848 3.856-1.008 7.664-2.272 9.632-6.080 5.872-11.328 10.528-22.56 5.184-35.904-3.616-9.072-5.376-18.88-7.584-28.464-0.752-3.28-0.608-6.832-0.384-10.24 0.224-3.84 1.152-7.616 1.456-11.44 0.336-4.224-0.032-8.528 0.592-12.736 1.84-12.752 0.304-25.216-3.28-37.408-4.4-14.992-9.008-29.92-13.936-44.736-0.976-2.96-3.28-5.968-5.76-7.92-8.192-6.544-16.736-12.704-27.2-15.392-2.912-0.752-5.712-1.984-8.416-3.296-9.376-4.512-19.424-6.688-29.552-8.4-2.288-0.384-4.96 0.048-7.168 0.864-6.16 2.272-12.096 5.152-18.272 7.36-8.080 2.88-16.32 5.344-24.48 7.92-2.016 0.64-4.080 1.232-6.176 1.376-3.248 0.192-5.632 1.6-7.808 3.952-1.536 1.616-3.584 3.392-5.648 3.776-3.072 0.592-4.896 1.984-6.576 4.512-1.008 1.504-2.992 2.4-4.56 3.52-0.496 0.368-1.344 0.368-1.728 0.816-6.016 7.248-11.056 15.056-11.36 24.848-0.448 14.64-0.816 29.296-0.704 43.968 0.032 5.040 0.784 9.936-2.288 14.432-0.496 0.72-0.336 1.936-0.416 2.944-0.672 8.784-1.312 17.6-2.048 26.384-0.704 8.528-3.44 16.32-8.64 23.232-2.352 3.104-4.672 6.352-6.384 9.856-1.008 2.096-1.728 5.2-0.928 7.184 3.632 8.928 8.416 17.232 14.64 24.704 5.184 6.208 11.536 8.4 19.44 6.848 1.984-0.384 4.48-0.528 6.176 0.336 10.352 5.264 19.024 12.4 24.576 22.976 6.128 11.776 8.864 23.984 6.528 37.248-1.264 7.072 1.040 9.184 8.176 8.56 3.408-0.304 6.912-0.144 10.352 0.176 6.832 0.608 13.6 1.488 18.72 2.064zM172.288 403.232c0.064 2.352 0.384 4.624 3.408 4.672 3.104 0.032 3.44-2.384 3.392-4.672-0.064-2.16 0.064-4.704-3.248-4.752-3.36-0.048-3.632 2.208-3.552 4.752zM326.448 402.784c-0.112-2.272-0.336-4.512-3.504-4.512-3.072 0-2.88 2.272-2.848 4.224 0.032 1.904-0.384 4.288 2.832 4.192 2.544-0.080 3.552-1.456 3.52-3.92zM355.568 161.872c-3.136 3.056-1.76 6.608 2.496 7.392-0.928-2.736-1.712-5.072-2.496-7.392z"></path>
<path d="M350.48 90.544c-1.6-2.848-3.296-5.68-4.784-8.592-2.272-4.48-6.048-4.848-8.976-0.704-0.304 0.448-0.56 0.944-0.864 1.424-1.984 3.36-2.432 3.248-5.568 1.040-2.512-1.76-5.312-3.52-8.256-4.192-9.872-2.288-19.872-4.064-29.824-6.080-16.544-3.328-33.248-1.488-49.84-1.152-25.808 0.528-50.192 7.632-73.392 18.912-0.816 0.384-1.616 0.752-2.432 1.088-5.12 2.176-7.392 1.312-10.272-3.392-3.472-5.6-7.104-11.088-10.8-16.56-0.976-1.488-2.352-2.688-3.552-4-1.824-1.936-4.112-2.608-6.4-1.376-3.296 1.792-6.768 1.168-9.264-0.528-4.4-2.992-9.2-3.104-14.016-3.776-0.56-0.080-1.088-0.16-2.544-0.368 1.456-1.504 2.32-3.216 3.616-3.616 5.072-1.6 7.472-5.344 8.224-10.096 1.008-6.24 4.528-10.080 10.128-12.256 5.936-2.32 11.952-4.4 17.856-6.8 2.096-0.864 3.952-2.4 5.904-3.584 3.136-1.904 6.128-4.176 9.488-5.536 19.76-8.192 40.24-13.968 61.28-18 8.032-1.536 15.92-0.896 23.92-0.944 10.304-0.080 20.56-1.088 30.832-1.456 3.296-0.112 6.8 0.080 9.936 1.040 8.224 2.512 16.592 3.168 25.12 3.28 4.4 0.064 8.784 1.168 13.184 1.792 1.984 0.288 3.968 0.704 5.968 0.752 4 0.112 7.776 0.608 10.912 3.472 0.752 0.672 2.016 1.088 3.056 1.12 4.528 0.080 8.448 1.68 12.112 4.304 5.632 4.032 11.584 7.664 17.008 11.952 7.392 5.824 6.272 14.24-2.272 18.080-5.088 2.288-7.856 6.096-9.904 11.136-2.944 7.184-6.64 14.096-9.856 21.184-1.056 2.288-1.648 4.816-2.496 7.216-0.56 1.616-1.152 3.248-1.712 4.864-0.512 0.144-1.008 0.256-1.504 0.336z"></path>
<path d="M176.064 292.8c-0.864-5.904 1.456-11.056 4.64-15.92 2.24-3.44 4.736-4.368 8.304-2.496 6.8 3.584 14.576 3.696 21.488 6.576 4.816 2.016 10.416 2.176 14.464 6.192 1.040 1.040 3.28 1.28 4.896 1.168 2.768-0.224 4.816 0.528 6.288 2.848 0.416 0.64 0.944 1.232 1.456 1.84 7.36 8.976 6.656 19.248-1.504 27.792-2.72 2.832-5.312 4.624-9.312 3.696-0.528-0.112-1.12 0-1.68 0.112-10.048 2.208-18.72-0.944-26.944-6.432-3.888-2.608-7.952-5.072-12.224-6.912-7.168-3.136-9.792-8.672-9.872-15.984 0-0.816 0-1.6 0-2.496zM186.416 285.696c-3.696 2.544-3.776 4.752-1.952 7.168 0.368 0.48 1.12 1.152 1.456 1.040 0.608-0.224 1.536-0.976 1.488-1.456-0.112-2.064-0.56-4.112-0.976-6.736z"></path>
<path d="M343.296 294.656c-1.040 4.176-1.648 7.84-2.88 11.28-2.048 5.712-5.632 9.376-12.288 10.24-7.36 0.944-14.544 3.136-21.792 4.976-5.744 1.456-15.136-2.96-17.744-8.816-1.728-3.856-3.248-7.856-4.448-11.888-0.448-1.504-0.304-3.696 0.512-5.008 4.336-7.168 9.984-12.848 18.32-15.328 7.056-2.096 14.080-4.336 21.072-6.656 2.544-0.832 3.888-0.048 5.184 2.128 0.832 1.424 2.432 2.352 3.552 3.632 2.464 2.832 4.976 5.632 7.136 8.672 1.456 2.096 2.32 4.64 3.392 6.768z"></path>
<path d="M245.296 354.976c0-4.56-0.288-9.152 0.112-13.68 0.224-2.576 1.312-5.184 2.496-7.52 1.536-3.072 3.504-5.968 5.312-8.896 2.912-4.752 7.52-5.312 11.392-1.376 5.712 5.824 9.68 12.544 10.432 20.816 0.512 5.408 0.976 10.8 1.344 16.224 0.080 1.392-0.080 2.944-0.56 4.256-1.2 3.296-2.944 3.856-5.856 1.872-3.024-2.096-5.872-4.416-8.896-6.576-3.36-2.384-4.864-1.872-6.16 1.936-1.68 4.896-4.512 5.568-7.632 1.312-1.68-2.272-2.288-5.344-3.392-8.064 0.416-0.080 0.928-0.192 1.392-0.304z"></path>
</svg>
