<!-- Generated by IcoMoon.io -->
<svg version="1.1" xmlns="http://www.w3.org/2000/svg" width="512" height="512" viewBox="0 0 512 512">
<title>monsters-of-order</title>
<g id="icomoon-ignore">
</g>
<path d="M0 185.888c0.144-1.888 0.416-3.792 0.4-5.664-0.064-8.24 1.152-16.080 5.152-23.504 2.592-4.8 4.080-10.176 6.24-15.216 0.512-1.216 1.648-2.192 2.592-3.232 1.68-1.872 3.504-3.648 5.104-5.6 2.992-3.68 5.536-7.808 8.832-11.2 14.208-14.64 28.080-29.584 43.472-43.040 11.36-9.936 23.84-17.552 38.864-20.304 12.976-2.352 25.456-1.248 37.824 4.048 19.264 8.272 35.696 20.496 51.12 34.304 5.232 4.704 10.592 9.184 16.976 12.256 1.12 0.544 2.656 0.8 3.808 0.496 10.56-2.768 21.36-3.712 32.144-4.064 5.392-0.176 10.896 0.976 16.288 1.952 3.408 0.624 6.416 0.352 9.44-1.296 16.512-8.976 32.688-18.528 48.128-29.28 13.312-9.264 27.552-16.912 42.128-23.84 4.464-2.128 9.808-2.448 14.752-3.552 13.504-2.976 23.936 3.68 33.776 11.36 14.624 11.376 25.28 26.272 36.4 40.896 12.448 16.368 23.632 33.424 32.336 52.016 7.92 16.912 15.216 34.144 22.592 51.312 1.488 3.472 2.128 7.312 3.008 11.008 0.976 4.176 0.016 8.224-1.392 12.176-0.88 2.416-1.232 4.576 1.072 6.496 0.512 0.432 0.784 1.408 0.832 2.176 0.4 4.56-0.112 8.88-3.184 12.608-1.248 1.536-1.888 3.904-3.44 4.784-3.12 1.792-4.848 4.88-7.456 7.008-11.168 9.104-22.544 17.968-35.472 24.528-9.024 4.576-16.656 11.136-24.704 17.088-4.336 3.232-8.848 6.24-13.248 9.408-5.824 4.208-12.448 4.928-19.296 4.624-2.704-0.112-5.376-0.64-8.080-0.784-4.88-0.256-8.784-2.432-12.256-5.712-8.208-7.776-13.712-17.248-18-27.584-5.92-14.224-8.672-29.056-9.568-44.336-0.512-8.752-1.568-17.472-1.696-26.208-0.096-7.216 0.72-14.448 1.376-21.632 0.16-1.648 1.44-3.168 2.048-4.8 0.8-2.080 1.216-4.304 2.192-6.272 0.992-2.016 2.048-4.496 3.808-5.52 9.728-5.6 19.84-10.48 30.912-12.864 1.776-0.384 3.648-0.256 5.472-0.352 3.488-0.16 6.992-0.176 10.48-0.496 4.624-0.4 8.16 1.2 10.384 5.28 2.992 5.52 6.016 11.040 8.672 16.736 2.736 5.856 1.376 11.456-1.92 16.8-1.408 2.288-2.528 4.768-3.728 7.168-2.304 4.624-4.496 9.28-6.976 13.824-0.56 1.040-2.032 1.552-3.088 2.304-0.256-0.192-0.512-0.4-0.8-0.592 0.48-2.688 1.2-5.376 1.36-8.080 0.576-9.984 4.304-19.648 3.168-29.776-0.16-1.456-0.8-3.152-1.792-4.144-3.84-3.872-7.904-7.424-13.824-7.648-2.192-0.080-3.92 0.176-4.56 2.752-0.16 0.624-1.136 1.248-1.856 1.472-3.568 1.136-7.168 2.144-10.736 3.2-4.064 1.216-4.48 1.632-4.72 6-0.672 13.28 1.488 26.192 5.6 38.784 3.36 10.352 6.768 20.704 10.432 30.96 1.568 4.4 3.744 8.592 5.76 12.832 0.912 1.952 2.528 2.464 4.608 1.648 3.76-1.488 7.664-2.704 11.328-4.416 2.848-1.328 5.44-3.232 8.080-4.976 1.92-1.28 3.6-2.928 5.584-4.096 9.68-5.744 17.616-13.648 25.808-21.168 1.168-1.088 2-2.912 2.336-4.528 0.832-3.872 1.408-7.808 1.872-11.76 0.16-1.44-0.096-3.072-0.64-4.416-5.712-14.144-11.488-28.288-17.344-42.384-5.696-13.744-14.4-25.632-23.52-37.232-0.672-0.864-1.568-1.648-2.544-2.112-6.432-3.024-12.928-5.68-20.32-5.344-5.312 0.256-10.656 0.032-16.352 0.032 0.096-1.696 0.16-3.328 0.272-4.96 0.192-3.072-0.544-3.68-3.36-2.768-3.36 1.088-6.736 2.128-7.648 6.32-0.144 0.656-1.248 1.136-2 1.6-7.248 4.464-14.544 8.848-21.792 13.328-4.32 2.672-7.632 6.352-10.896 10.24-5.12 6.080-10.752 11.712-16.256 17.472-2.864 3.008-2.944 3.36-1.488 7.344 0.592 1.616 1.024 3.392 0.992 5.072-0.112 9.408-0.304 18.8-0.704 28.192-0.224 4.8 1.040 8.96 3.968 12.672 1.712 2.176 2.688 5.136 6 5.696 0.4 0.064 0.8 0.544 1.072 0.912 1.696 2.224 1.552 9.808-0.4 11.776-4.704 4.768-8.080 10.4-11.552 16.032-1.872 3.040-4.496 5.744-7.152 8.192-3.648 3.392-4.208 5.184-1.872 9.536 0.304 0.56 0.624 1.12 0.896 1.696 2.176 4.304 0.72 6.992-4.064 7.328-2.944 0.192-5.296 1.536-7.392 3.488-2.272 2.112-3.008 2.080-5.136-0.064-2.416-2.432-3.76-2.336-5.056 0.912-1.52 3.824-2.752 7.792-3.744 11.792-1.136 4.544-1.84 9.184-2.752 13.792-0.72 3.68-0.512 7.232 1.040 10.736 0.464 1.024 0.304 2.496-0.032 3.6-1.216 4.176-0.864 5.632 2.464 8.304 2.608 2.096 2.832 2.896 1.808 5.936-0.56 1.648-1.28 3.312-1.536 5.008-0.304 2.048-0.576 4.256-0.176 6.256 1.056 5.264-0.272 9.984-2.784 14.448-4.48 7.984-9.168 15.84-13.68 23.808-2.432 4.256-4.656 8.64-7.024 12.928-0.256 0.464-0.864 0.864-1.392 1.024-1.136 0.336-2.336 0.512-3.84 0.832 0.352-2.384 0.704-4.624 1.040-6.848 3.264-20.992 3.712-42.192 3.904-63.392 0.032-3.488-0.576-6.976-1.072-10.432-0.336-2.352-3.088-3.632-5.68-2.576 0.384 1.152 0.576 2.432 1.168 3.488 2.912 5.312 3.072 10.88 1.936 16.688-1.392 7.088-2.576 14.224-3.664 21.376-0.592 3.824-1.456 7.456-4.256 10.736-3.584-12.784-7.088-25.264-10.592-37.744-0.224 0.016-0.432 0.032-0.672 0.064-0.16 0.48-0.4 0.928-0.432 1.408-1.168 12.064-2.336 24.208 0.192 36.176 2.288 10.832 1.984 21.824 2.816 32.768 0.64 8.56 1.232 17.136 1.776 25.696 0.176 2.768-0.080 5.584 0.144 8.368 0.416 5.392 0.864 10.8 1.648 16.128 0.352 2.448 0.096 4.368-1.632 6.080-0.32 0-0.64 0-0.96 0-0.64-0.992-1.408-1.92-1.888-2.992-2.272-5.008-4.56-9.984-6.64-15.056-3.264-8-6.336-16.112-9.568-24.16-0.672-1.68-1.6-3.264-2.384-4.896-1.12-2.272-2.544-4.416-3.28-6.816-1.328-4.24-2.336-8.608-3.328-12.944-0.56-2.464-0.88-4.976-1.088-6.288 1.968-2.384 4-3.84 4.48-5.696 0.576-2.272-0.8-4.416-3.2-5.536-0.704-0.32-1.312-0.928-1.792-1.552-3.488-4.544-6.992-9.088-10.384-13.712-1.248-1.712-0.976-6.432 0.48-7.904 0.48-0.48 1.472-0.48 2.256-0.64 0.736-0.144 1.76 0.080 2.208-0.32 2.672-2.448 4.816-5.072 4.88-9.12 0.144-10.912 0.656-21.808 0.864-32.72 0.064-2.832-0.16-5.776-0.864-8.512-2.688-10.64-5.52-21.248-8.544-31.792-0.656-2.272-2.128-4.416-3.632-6.288-2.016-2.544-4.336-4.864-6.672-7.152-2.208-2.144-4.576-4.128-6.88-6.192-0.432-0.4-0.88-0.864-1.216-1.36-1.088-1.68-2.048-3.424-3.2-5.072-1.216-1.76-2.608-3.392-4.208-5.456 1.712-0.256 2.656-0.4 3.584-0.544 3.472-0.496 5.712-3.712 4.944-7.136-0.432-1.936-0.88-3.872-1.36-5.792-0.4-1.632-1.312-2.336-2.96-1.536-1.088 0.544-2.192 1.072-3.264 1.616-0.24-0.224-0.48-0.432-0.72-0.672 2.256-3.6 4.336-7.312 6.768-10.8 2.304-3.328 4.048-6.64 2.832-10.864-0.304-1.008 0-2.208 0.096-3.312 0.672-7.584 1.76-15.184 1.968-22.784 0.272-9.664-3.008-18.080-10.336-24.752-14.912-13.552-29.824-27.136-44.656-40.752-1.68-1.536-3.408-2.080-5.616-2-5.264 0.192-10.512 0.432-15.76 0.256-4.24-0.16-8.128 0.64-11.536 3.072-13.488 9.616-27.072 19.136-37.6 32.224-1.728 2.176-3.84 4.048-5.616 6.192-1.92 2.304-3.728 4.736-5.36 7.232-1.6 2.416-2.128 5.456-4.704 7.296-0.512 0.384-0.832 1.168-1.056 1.84-1.696 5.2-2.752 10.512-1.856 15.968 2.368 14.464 7.808 27.712 16.56 39.456 5.84 7.872 12.192 15.344 18.144 23.12 4 5.264 9.168 8.768 15.232 11.072 1.856 0.72 3.728 1.408 5.584 2.096 5.056 1.84 7.376 1.216 10.304-3.392 3.344-5.216 6.608-10.512 9.6-15.952 8.288-15.040 12.688-31.312 15.376-48.192 0.56-3.44-0.224-6-2.336-8.544-5.68-6.864-13.12-10.672-21.568-12.848-5.040-1.296-8.704 0.224-11.072 4.912-3.808 7.536-7.472 15.12-11.168 22.688-1.44 2.928-1.648 5.936-0.416 9.024 0.416 1.040 0.896 2.128 0.864 3.2-0.032 1.456-0.544 2.896-0.832 4.32-0.272 0.016-0.576 0.016-0.864 0.032-3.808-5.68-7.888-11.2-11.328-17.088-5.456-9.344-3.104-21.696 5.376-28.48 9.728-7.776 19.856-14.864 31.472-19.68 3.632-1.488 6.688-1.776 10.4-0.592 6.816 2.176 13.408 4.608 18.704 9.616 6.16 5.84 11.552 12.336 15.904 19.616 1.856 3.104 4.128 5.616 7.152 7.504 3.328 2.080 3.632 3.008 2.784 6.928-2.672 12.528-5.936 24.96-7.776 37.616-2.608 18.048-11.136 33.168-21.28 47.68-1.568 2.272-3.568 4.256-5.392 6.352-2.128 2.432-3.984 5.296-6.56 7.136-6.416 4.56-13.072 8.832-19.824 12.848-2.304 1.376-5.2 1.888-7.904 2.416-0.976 0.176-2.752-0.544-3.168-1.36-1.312-2.528-3.36-3.008-5.792-2.832-4.048 0.336-7.616-0.96-11.2-2.736-5.968-2.928-10.736-7.392-15.584-11.76-11.488-10.336-22.944-20.752-30.832-34.368-9.776-16.864-19.712-33.648-29.376-50.576-2.368-3.936-3.888-8.512-5.776-12.848 0-2.224 0-4.464 0-6.688zM265.952 261.12c0.144 0.224 0.304 0.432 0.432 0.656 2.672-1.488 5.52-2.704 7.952-4.528 3.232-2.416 6.368-3.568 10.4-2.080 3.488 1.296 7.088 0.976 10.384-0.912 4.304-2.496 7.728-6 9.872-10.416 1.84-3.76 3.712-7.328 6.8-10.24 1.568-1.472 1.072-2.656-0.912-3.44-6.48-2.624-12.672-0.704-18.88 1.008-0.496 0.144-1.328 0.576-1.328 0.88 0.032 3.232-2.080 4.064-4.656 4.544-0.4 0.080-0.752 0.56-1.088 0.896-3.264 3.12-6.512 6.288-9.808 9.408-4.224 3.984-7.616 8.512-9.136 14.224zM233.776 254.896c-0.016-4.88-1.232-7.536-4.576-9.728-5.184-3.408-10.48-6.656-15.744-9.936-0.464-0.272-1.008-0.496-1.536-0.576-5.024-0.816-10.032-1.632-15.104-2.304-1.36-0.176-2.784 0.144-4.176 0.24 0.976 1.328 1.696 3.040 2.96 3.904 8.88 6.048 16.8 13.104 23.28 21.728 0.88 1.152 2.512 1.792 3.872 2.512s2.96 1.056 4.208 1.92c1.472 1.024 2.592 0.976 3.76-0.256 2.256-2.336 2.992-5.2 3.040-7.488zM274.32 367.392c0 2.032 0 3.6 0 5.2 0.224 0.064 0.416 0.096 0.64 0.16 0.624-1.12 1.248-2.224 1.952-3.472-0.832-0.624-1.536-1.12-2.592-1.888z"></path>
</svg>
