<!-- Generated by IcoMoon.io -->
<svg version="1.1" xmlns="http://www.w3.org/2000/svg" width="512" height="512" viewBox="0 0 512 512">
<title>monsters-of-order</title>
<g id="icomoon-ignore">
</g>
<path d="M246.384 446c-6.24-37.472-11.792-68.704-11.792-69.056-0.352 0-6.24-1.392-12.848-2.784-11.792-2.080-12.496-1.392-39.568 30.88-14.928 18.4-27.408 33.312-28.112 33.312-0.352 0 5.904-18.736 14.576-41.296l15.264-41.648-9.376-10.416c-5.2-5.904-12.848-10.752-16.656-10.752-4.16 0-23.6 6.24-43.376 13.888-20.128 7.632-36.784 13.184-37.136 12.832-1.040-0.688 57.952-49.968 65.248-54.832 2.080-1.392 1.392-6.944-1.728-14.224-5.904-13.888 2.080-11.456-93.696-27.072-26.032-4.512-47.2-8.672-46.16-9.376 0.688-0.688 31.232-6.24 68.016-12.496l66.976-11.104 4.16-12.496 4.512-12.496-34.352-27.072c-18.736-14.928-33.664-27.76-32.96-28.448 0.352-0.688 17.696 5.2 38.512 12.848 20.48 7.632 39.216 13.888 41.296 13.888 2.432 0 9.376-5.2 15.616-11.792l11.104-11.456-15.264-40.608c-8.336-22.208-14.576-40.256-13.184-39.904 1.040 0 9.712 9.712 18.736 21.52 34.704 44.768 35.056 44.768 47.888 41.296 11.456-2.784 11.792-3.824 17.344-30.544 3.12-14.928 8.336-45.808 11.792-68.368 3.824-22.208 7.632-39.568 8.672-38.176 1.392 1.728 6.592 30.544 12.144 64.544 5.2 33.664 11.456 63.856 13.536 66.624 2.080 2.432 7.984 5.904 12.832 6.944 8.336 2.080 11.792-0.688 36.432-30.88 15.264-18.4 27.76-31.92 28.448-30.192 0.688 2.080-0.688 6.592-2.432 10.416-8.672 15.968-24.992 66.976-23.248 72.528 1.728 4.864-2.432 7.632-19.44 13.536l-21.52 7.28-13.888-6.944c-22.208-11.456-33.664-13.536-47.2-9.376-38.864 12.496-55.184 66.976-28.8 97.168 4.512 5.2 6.592 5.2 20.816 1.040 39.568-11.792 82.24 15.616 66.624 43.024-9.024 16.656-38.512 13.184-57.952-6.592l-10.752-10.752-17.344 11.104c-9.712 6.592-16.656 13.184-15.264 15.264 10.064 18.4 41.984 33.312 69.744 33.312 9.024 0 24.992-3.824 35.392-7.984 25.328-10.064 33.312-24.64 27.76-49.632-6.592-28.448-26.032-43.024-57.952-43.024-26.368 0-31.92-2.784-36.096-17.344-4.512-15.264 0.352-27.76 11.104-27.76 12.848 0 32.624 10.416 43.024 23.248l10.752 12.144 10.064-13.184c5.904-7.632 16.656-23.248 24.64-35.392 12.832-20.128 14.576-21.52 19.776-16.656 7.632 7.632 9.376 7.28 52.048-8.672 38.176-14.576 48.576-15.968 31.232-4.864-5.2 3.472-20.816 15.616-34.704 27.072-22.208 18.4-24.992 21.856-23.248 29.84 3.824 16.304 1.040 15.616 89.872 29.84 61.424 10.064 61.776 9.712-13.888 22.208-38.176 6.24-70.448 12.496-71.488 13.888-1.392 1.040-3.472 6.944-4.512 12.496-2.080 9.712-0.352 11.792 30.544 36.432 18.048 14.224 32.96 27.072 32.96 28.448 0.352 2.080-40.608-11.792-67.328-22.896l-13.536-5.904-24.288 24.288 14.928 40.256c7.984 22.56 14.224 41.296 13.536 41.984-0.688 0.352-12.832-13.536-27.072-31.584s-28.448-32.96-31.232-32.624c-10.416 0.688-22.56 5.2-22.56 8.336-0.688 10.752-20.816 128.752-22.56 130.832-1.040 1.392-7.28-28.112-13.536-65.936z"></path>
</svg>
