<!-- Generated by IcoMoon.io -->
<svg version="1.1" xmlns="http://www.w3.org/2000/svg" width="32" height="32" viewBox="0 0 32 32">
<title>factions-order-stormcast-sacrosanct</title>
<path d="M20.772 0c0.323 0.355 0.654 0.705 0.971 1.066 0.29 0.331 0.571 0.672 0.851 1.011 0.081 0.099 0.149 0.207 0.216 0.316 0.051 0.083 0.087 0.173 0.135 0.257 0.12 0.215 0.26 0.421 0.358 0.646 0.126 0.287 0.225 0.589 0.322 0.888 0.017 0.052-0.028 0.128-0.057 0.187s-0.068 0.113-0.11 0.164c-0.318 0.376-0.648 0.744-0.954 1.129-0.22 0.277-0.403 0.582-0.622 0.862-0.187 0.241-0.402 0.461-0.6 0.693-0.299 0.353-0.594 0.706-0.884 1.053 0.38 0.418 0.889 0.437 1.352 0.557 0.342 0.088 0.692 0.149 1.040 0.212 0.136 0.025 0.279 0.017 0.418 0.022 0.090 0.003 0.181 0 0.31 0-0.051 0.109-0.073 0.2-0.128 0.264-0.213 0.248-0.44 0.485-0.658 0.728-0.1 0.112-0.21 0.218-0.287 0.344-0.228 0.376-0.519 0.695-0.828 1.004-0.212 0.212-0.393 0.456-0.577 0.695-0.487 0.635-0.948 1.291-1.328 1.999-0.289 0.538-0.599 1.066-0.89 1.604-0.081 0.149-0.123 0.319-0.197 0.474-0.107 0.228-0.226 0.448-0.345 0.685 1.515 0.379 3.049 0.186 4.546 0.221-0.148 0.313-0.309 0.644-0.458 0.981-0.138 0.309-0.234 0.64-0.4 0.931-0.131 0.229-0.323 0.428-0.517 0.612-0.174 0.167-0.303 0.355-0.432 0.554-0.242 0.371-0.501 0.737-0.781 1.081-0.723 0.888-1.473 1.752-2.188 2.646-0.541 0.675-1.144 1.282-1.776 1.867-0.584 0.54-1.16 1.089-1.741 1.632-0.196 0.183-0.399 0.36-0.6 0.538-0.938 0.838-1.895 1.654-2.923 2.385-0.407 0.29-0.777 0.63-1.179 0.926-0.245 0.18-0.518 0.325-0.783 0.479-0.165 0.096-0.339 0.178-0.554 0.292 0.015-0.122 0.004-0.216 0.039-0.289 0.104-0.225 0.206-0.453 0.342-0.659 0.395-0.595 0.789-1.191 1.214-1.764 0.689-0.927 1.418-1.822 2.1-2.753 0.609-0.833 1.144-1.713 1.625-2.63 0.419-0.798 0.911-1.558 1.352-2.346 0.254-0.454 0.479-0.924 0.7-1.396 0.051-0.107 0.030-0.248 0.045-0.389-0.086-0.004-0.144-0.003-0.2-0.013-0.231-0.039-0.462-0.083-0.693-0.125-0.158-0.029-0.315-0.064-0.471-0.090-0.284-0.046-0.575-0.073-0.855-0.138-0.322-0.075-0.636-0.183-0.974-0.284 0.1-0.104 0.168-0.209 0.264-0.27 0.296-0.187 0.422-0.498 0.568-0.783 0.47-0.917 0.913-1.848 1.386-2.764 0.178-0.347 0.428-0.657 0.619-0.999 0.292-0.524 0.581-1.053 0.835-1.596 0.165-0.352 0.267-0.734 0.39-1.081-0.335-0.091-0.647-0.203-0.967-0.255-0.332-0.054-0.674-0.049-1.011-0.074-0.161-0.012-0.321-0.028-0.48-0.042-0.341-0.032-0.681-0.067-1.056-0.103 0.049-0.088 0.090-0.191 0.155-0.274 0.384-0.482 0.774-0.956 1.082-1.497 0.395-0.693 0.796-1.39 1.257-2.040 0.453-0.637 0.979-1.221 1.485-1.819 0.3-0.353 0.568-0.722 0.799-1.126 0.113-0.197 0.286-0.361 0.411-0.554 0.191-0.297 0.374-0.599 0.542-0.911 0.328-0.611 0.667-1.211 1.096-1.76 0.144-0.183 0.242-0.402 0.351-0.609 0.094-0.18 0.173-0.367 0.26-0.551 0.022-0.004 0.045-0.013 0.068-0.020z"></path>
</svg>
