<!-- Generated by IcoMoon.io -->
<svg version="1.1" xmlns="http://www.w3.org/2000/svg" width="512" height="512" viewBox="0 0 512 512">
<title>monsters-of-order</title>
<g id="icomoon-ignore">
</g>
<path d="M37.84 302.784c0.768 0.736 1.408 1.040 1.536 1.488 4.080 13.984 14.928 23.76 22.352 35.664 0.912 1.456 3.088 2.688 4.848 2.96 8.672 1.392 15.616-0.512 19.952-9.424 3.68-7.568 8.576-14.56 12.976-21.76 1.536-2.496 3.184-4.912 5.232-8.080 1.6 1.92 2.736 3.088 3.664 4.4 7.040 10.24 14.112 20.448 21.040 30.752 4.528 6.752 11.264 9.616 18.816 9.472 3.12-0.080 7.296-2.736 8.992-5.488 4.368-6.928 7.584-14.592 11.344-21.904 2.8-5.44 5.712-10.8 9.296-17.552 2.64 3.856 4.496 6.112 5.856 8.624 5.216 9.744 10.112 19.648 15.552 29.264 1.104 1.984 3.888 3.44 6.208 4.256 2.4 0.848 5.296 0.224 7.792 0.944 5.312 1.504 7.888-1.136 9.216-5.632 0.896-3.040 1.76-6.224 1.776-9.36 0.24-21.6 0.272-43.2 0.32-64.816 0-1.584-0.576-3.184-1.216-6.608-4.352 4.032-8.016 6.8-10.896 10.24-4.576 5.456-8.672 11.344-12.88 17.136-5.84 8.016-12.16 7.984-17.056-0.544-5.216-9.12-9.984-18.496-14.928-27.776-2.848-5.312-6.48-6.448-10.624-2.32-10.512 10.4-20.72 21.088-30.8 31.904-3.536 3.808-5.136 4.032-7.984-0.4-6.672-10.432-13.376-20.864-20.096-31.248-3.888-6-10.752-6.304-14.88-0.512-7.168 10.080-14.304 20.224-21.312 30.448-4.256 6.208-10.16 6.656-13.792 0.128-6.352-11.488-12.288-23.264-17.824-35.152-2.736-5.888-6.864-10.032-12.928-10.512-10.752-0.848-13.392-9.168-14.304-16.592-1.92-15.072-1.952-30.384-2.448-45.584-0.464-14.288-0.768-28.576-0.544-42.864 0.048-2.848 2.048-6.336 4.224-8.352 13.44-12.56 27.392-24.592 40.784-37.232 4.096-3.856 8.016-6.128 13.84-5.936 11.84 0.416 23.728 0.176 35.6 0.176 8.304 0 8.72-0.576 10.992-8.8 4.704-17.024 3.264-33.92-0.624-50.8-1.76-7.664 0.416-10.752 8.448-11.216 6.208-0.368 12.432-0.272 18.64-0.192 8.48 0.128 16.928 0.352 25.408 0.688 6.672 0.272 10.24 6.432 8.256 12.784-2.272 7.312-4.48 14.752-5.52 22.32-2.72 19.584 14.256 33.616 29.536 34.432 3.552 0.192 7.344 0.72 10.672-0.192 3.952-1.056 8.288-2.736 11.168-5.488 8.112-7.68 12.736-17.056 11.264-28.8-0.576-4.64 0.4-9.472-0.224-14.096-0.576-4.304-1.728-8.704-3.616-12.576-2.96-6.064-0.576-12.256 6.224-12.336 14.064-0.144 28.16 0.624 42.224 1.040 2.256 0.080 4.496 0.304 6.752 0.368 8.72 0.272 11.76 5.632 8.288 13.744-2.544 5.936-4.864 12.064-6.384 18.32-2.272 9.392-1.040 18.656 2.992 27.504 2.864 6.304 7.488 10.56 14.368 11.376 6.496 0.768 13.152 1.184 19.68 0.848 6.176-0.32 10.992-3.904 13.872-9.44 7.712-14.864 8.112-29.84 0.496-44.912-1.008-2-1.92-4.096-2.672-6.208-2-5.664 1.12-10.48 7.248-10.72 14.288-0.576 28.592-1.168 42.88-1.184 4.576 0 9.264 1.488 13.696 2.896 3.216 1.040 4.704 3.68 3.232 7.216-0.304 0.688-0.4 1.536-0.848 2.080-11.44 14.416-5.264 31.152-5.904 46.912-0.224 5.312 10.944 13.712 17.328 14.368 2.048 0.192 4.176 0.416 6.208 0.144 10.56-1.408 18.544 2.8 24.896 10.896 0.912 1.184 1.872 2.416 3.088 3.28 6.704 4.72 9.12 11.264 9.568 19.248 0.368 6.768 5.296 10.672 13.2 11.52 14.336 1.504 28.656 1.232 42.464-3.344 4.912-1.632 7.136 0.24 8.656 4.224 0.784 2.080 1.552 4.352 1.488 6.528-0.416 13.92-1.040 27.808-1.712 41.728-0.096 1.856-0.64 3.712-1.184 5.52-1.328 4.368-3.552 5.584-8.48 4.032-9.968-3.184-20.144-6.112-30.448-7.792-9.312-1.536-15.248 6.112-21.968 10.976-0.816 0.592-0.992 2.448-0.944 3.712 0.272 9.968 0.272 19.968 1.136 29.888 0.912 10.48 10.432 12.192 17.84 14.528 5.856 1.856 12.656 0.848 19.040 0.912 6.16 0.096 10.192-4.096 14.752-7.36 1.552-1.104 4.48-1.728 6.048-1.008 1.536 0.688 2.944 3.36 3.008 5.216 0.592 14.848 1.056 29.728 1.168 44.592 0.080 9.696-4.672 12.688-12.784 7.856-7.904-4.72-15.92-6.080-24.864-4.368-4.032 0.768-8.288 0.192-12.416 0.512-6.208 0.448-9.36 3.584-10.944 9.536-3.504 13.392-2.592 26.896-1.008 40.368 0.784 6.704 10.016 14.304 18.832 15.664 9.984 1.536 19.872 1.008 29.568-2.176 7.616-2.528 12.736-0.080 13.232 7.904 0.768 12.336 0.624 24.816-0.24 37.168-0.512 7.344-4.48 9.392-11.712 7.296-16.272-4.72-32.8-7.472-49.584-4.752-6.848 1.12-13.6 4.128-19.776 7.44-2.64 1.408-4.080 5.616-5.456 8.8-8.48 19.472-16.752 39.024-25.12 58.56-2.72 6.352-5.712 12.624-8.224 19.056-2.848 7.216-8.848 10.080-15.6 10.016-22.944-0.224-45.872-1.632-68.816-1.584-10.528 0.032-15.376-4.32-19.152-13.776-4.976-12.336-12.112-23.776-18.176-35.664-2.128-4.16-4.032-8.448-5.632-12.848-2.4-6.528-8.064-10.928-15.52-11.056-46.496-0.816-92.96-1.456-139.456-2.4-9.168-0.192-18.288-1.76-27.456-2.192-9.568-0.464-19.152-0.128-28.72-0.688-2.816-0.176-6.384-1.488-8.128-3.504-9.936-11.568-19.472-23.456-28.976-35.392-1.312-1.632-1.904-4.032-2.272-6.16-0.448-2.576 0.096-5.344-0.464-7.888-4.976-21.488 6.8-37.024 18.288-52.752 2.912-3.904 5.312-8.112 8.208-12.576zM322.224 139.312c-3.392 0-6.8-0.304-10.16 0.048-10.736 1.088-20.72 4.304-28.272 12.384-12.032 12.896-10.608 29.36-11.248 45.216-0.048 1.040 0.624 2.144 1.040 3.184 1.76 4.352 3.408 8.768 5.36 13.024 1.088 2.352 2.176 5.264 4.16 6.544 13.472 8.704 26.144 18.736 43.968 17.776 19.552-1.056 35.984-11.2 42.32-29.68 2.096-6.16 1.952-13.28 1.952-19.952-0.096-29.712-19.632-48.864-49.12-48.544zM62.048 188.624c18.96-11.056 36.288-21.136 53.616-31.216-0.080-0.768-0.128-1.536-0.192-2.304-2.624-0.896-5.184-2.448-7.84-2.576-10.832-0.512-21.68-0.768-32.528-0.816-13.648-0.080-14.8 1.040-14.608 14.464 0.096 7.12 0.96 14.24 1.552 22.448z"></path>
<path d="M360.784 190.48c1.12 25.408-22.176 38.608-45.536 34.032-11.536-2.272-20.224-8.88-27.856-17.088-2.4-2.576-3.904-6.496-4.544-10.032-1.952-10.928-0.816-21.584 4.16-31.76 5.536-11.392 15.472-15.232 27.040-16.32 3.904-0.368 7.888 0 11.84 0.032 16.368 0.080 29.568 10.56 33.072 26.672 1.040 4.72 1.232 9.632 1.824 14.464zM322.080 209.904c15.664 0.896 19.456-11.472 21.040-23.312 1.184-8.944-11.616-19.008-26.8-18.112-11.152 0.672-20.016 8.976-19.904 20.144 0.096 11.472 11.872 21.232 25.664 21.28z"></path>
</svg>
