<!-- Generated by IcoMoon.io -->
<svg version="1.1" xmlns="http://www.w3.org/2000/svg" width="32" height="32" viewBox="0 0 32 32">
<title>factions-chaos-jade-obelisk</title>
<path d="M1.091 20.464c-0.105-0.391-0.236-0.767-0.304-1.155-0.169-0.968-0.317-1.94-0.456-2.912-0.030-0.213-0.046-0.462 0.032-0.652 0.232-0.571 0.982-0.672 1.506-0.264 0.806 0.629 1.631 1.233 2.447 1.849 0.486 0.366 0.976 0.728 1.452 1.106 0.278 0.221 0.55 0.198 0.811 0.007 0.604-0.441 1.216-0.875 1.784-1.359 0.162-0.137 0.239-0.433 0.261-0.663 0.045-0.496 0.023-0.998 0.033-1.497 0.025-1.184 0.261-2.312 0.86-3.35 0.062-0.107 0.081-0.236 0.15-0.446-0.388 0.046-0.705 0.091-1.023 0.121-0.299 0.029-0.604 0.019-0.899 0.074-0.614 0.114-1.22 0.287-1.836 0.388-1.197 0.195-1.81 1.184-2.636 1.882-0.114 0.095-0.235 0.182-0.379 0.293-0.369-0.78-0.702-1.51-0.725-2.349-0.016-0.598-0.101-1.194-0.128-1.793-0.058-1.219 0.359-2.3 1.002-3.308 0.374-0.586 0.707-1.214 1.173-1.716 0.503-0.544 1.126-0.979 1.721-1.432 0.731-0.558 1.461-1.126 2.241-1.61 0.531-0.329 1.131-0.571 1.728-0.763 0.786-0.252 1.595-0.437 2.403-0.61 0.479-0.102 0.973-0.134 1.462-0.185 0.519-0.050 1.038-0.12 1.559-0.12 0.534 0 1.067 0.068 1.599 0.124 0.244 0.026 0.485 0.092 0.841 0.163-0.42 0.31-0.724 0.544-1.035 0.764-0.322 0.228-0.464 0.568-0.337 0.95 0.104 0.313 0.388 0.326 0.668 0.34 0.299 0.017 0.594 0.069 0.891 0.084 0.554 0.026 0.64 0.486 0.782 0.861 0.236 0.627 0.15 1.292-0.014 1.905-0.186 0.692-0.469 1.37-0.8 2.008-0.399 0.767-0.436 0.751 0.404 0.963 1.369 0.345 2.42 1.149 3.294 2.238 0.549 0.685 1.031 1.408 1.333 2.228 0.177 0.486 0.28 1.005 0.368 1.519 0.087 0.498 0.164 1.007 0.153 1.509-0.032 1.421-0.374 2.776-1.17 3.963-0.389 0.581-0.932 1.061-1.475 1.667 0.832 1.52 1.7 3.128 2.59 4.722 0.498 0.89 1.028 1.759 1.555 2.632 0.134 0.221 0.12 0.389-0.063 0.568-0.231 0.225-0.431 0.483-0.676 0.688-0.143 0.12-0.314 0.175-0.454-0.095-0.278-0.539-0.593-1.064-0.924-1.573-0.224-0.343-0.538-0.63-0.754-0.978-0.45-0.727-0.868-1.474-1.285-2.221-0.185-0.33-0.322-0.688-0.496-1.024-0.046-0.089-0.153-0.149-0.316-0.18 0.072 0.412 0.134 0.826 0.219 1.236 0.075 0.362 0.172 0.72 0.265 1.077 0.141 0.538 0.288 1.076 0.434 1.612 0.114 0.415 0.216 0.834 0.349 1.242 0.108 0.33 0.257 0.648 0.385 0.971 0.038 0.094 0.081 0.192 0.091 0.29 0.062 0.59 0.003 0.661-0.594 0.786-0.186 0.039-0.368 0.098-0.549 0.153-0.177 0.055-0.353 0.115-0.56 0.183-0.75-2.719-1.488-5.4-2.228-8.079-0.053 0-0.107-0.003-0.16-0.004-0.055 0.179-0.151 0.358-0.157 0.539-0.017 0.604-0.038 1.211 0.010 1.813 0.050 0.643 0.179 1.281 0.27 1.921 0.063 0.449 0.125 0.897 0.182 1.346 0.062 0.487 0.115 0.976 0.175 1.464 0.052 0.423 0.111 0.845 0.157 1.269 0.012 0.101-0.014 0.206-0.027 0.355h-1.873c-0.010-0.166-0.022-0.306-0.027-0.446-0.048-1.085-0.069-2.171-0.151-3.252-0.065-0.851-0.192-1.699-0.319-2.544-0.072-0.479-0.189-0.952-0.303-1.425-0.023-0.098-0.121-0.179-0.185-0.268-0.037 0.010-0.075 0.022-0.113 0.032-0.166 0.822-0.365 1.64-0.49 2.468-0.141 0.936-0.208 1.882-0.326 2.822-0.084 0.665-0.209 1.325-0.29 1.992-0.030 0.254-0.167 0.313-0.369 0.291-0.476-0.050-0.953-0.098-1.421-0.193-0.118-0.025-0.296-0.236-0.283-0.345 0.061-0.532 0.172-1.060 0.274-1.586 0.059-0.303 0.151-0.599 0.205-0.901 0.12-0.671 0.247-1.34 0.333-2.015 0.123-0.965 0.212-1.933 0.309-2.9 0.013-0.133-0.013-0.27-0.020-0.405-0.046-0.013-0.092-0.025-0.137-0.038-0.477 1.030-0.991 2.044-1.421 3.094-0.277 0.674-0.425 1.399-0.643 2.098-0.15 0.48-0.297 0.963-0.486 1.429-0.126 0.312-0.427 0.247-0.646 0.141-0.414-0.196-0.815-0.427-1.2-0.675-0.525-0.337-0.45-0.487-0.097-0.992 0.74-1.059 1.284-2.211 1.819-3.373 0.395-0.858 0.803-1.712 1.178-2.58 0.050-0.117-0.053-0.303-0.094-0.456-0.009-0.030-0.049-0.056-0.079-0.078-0.648-0.434-0.472-0.529-1.028 0.1-0.539 0.609-0.961 1.279-1.261 2.039-0.175 0.441-0.675 0.575-1.119 0.43-0.792-0.261-1.545-0.661-2.404-0.705-0.17-0.009-0.336-0.094-0.532-0.101 0.715 1.331 1.798 2.27 3.144 3.065-0.561 0.44-1.108 0.88-1.674 1.295-0.065 0.048-0.244-0.033-0.358-0.081-0.91-0.381-1.46-1.173-2.061-1.884-0.513-0.607-0.936-1.291-1.386-1.95-0.332-0.485-0.655-0.975-0.953-1.481-0.065-0.111-0.066-0.336 0.004-0.437 0.225-0.319 0.47-0.633 0.757-0.896 0.408-0.374 0.873-0.089 1.284 0.014 0.822 0.208 1.625 0.49 2.434 0.751 0.568 0.183 1.132 0.379 1.695 0.575 0.196 0.068 0.307 0.032 0.389-0.182 0.286-0.74 0.596-1.47 0.888-2.207 0.046-0.115 0.055-0.247 0.107-0.5-0.462 0.127-0.838 0.219-1.206 0.336-0.537 0.17-1.061 0.385-1.604 0.529-0.524 0.138-0.949-0.095-1.364-0.423-0.671-0.528-1.377-1.012-2.088-1.486-0.183-0.121-0.441-0.13-0.795-0.225 0.076 0.411 0.101 0.689 0.183 0.95 0.117 0.369-0.004 0.617-0.388 0.725-0.306 0.087-0.606 0.192-0.988 0.314zM15.46 21.338c0.415-0.078 0.834-0.14 1.245-0.235 1.173-0.27 2.107-0.959 3.034-1.687 1.198-0.94 1.631-2.253 1.814-3.658 0.068-0.518-0.149-1.082-0.277-1.614-0.275-1.149-0.813-2.162-1.82-2.82-0.607-0.397-1.328-0.617-1.956-0.989-0.661-0.394-1.367-0.375-2.039-0.245-0.881 0.17-1.748 0.459-2.592 0.772-0.659 0.245-1.214 0.655-1.55 1.333-0.288 0.58-0.541 1.157-0.63 1.803-0.082 0.597-0.221 1.188-0.275 1.788-0.026 0.287 0.088 0.586 0.134 0.88 0.062 0.407 0.104 0.819 0.186 1.222 0.039 0.192 0.117 0.397 0.236 0.548 0.394 0.495 0.789 0.991 1.23 1.441 0.886 0.907 1.941 1.457 3.258 1.46zM3.602 10.563c0.032 0.085 0.095 0.254 0.159 0.421 0.118-0.111 0.241-0.218 0.353-0.333 0.485-0.499 1.051-0.909 1.722-1.047 0.848-0.176 1.725-0.208 2.586-0.326 0.583-0.081 1.167-0.175 1.738-0.313 1.044-0.252 2.123-0.434 3.105-0.844 1.050-0.438 2.012-1.090 2.997-1.676 0.678-0.404 1.027-1.087 1.19-1.81 0.146-0.646 0.136-0.965-0.649-0.91-0.248 0.017-0.499 0.013-0.749 0.003-0.555-0.022-0.975-0.264-1.066-0.681-0.063-0.29-0.026-0.601-0.040-0.903-0.013-0.252-0.128-0.516-0.379-0.499-0.538 0.036-1.073 0.14-1.602 0.252-0.571 0.121-1.138 0.271-1.7 0.433-0.567 0.164-1.147 0.307-1.679 0.552-1.268 0.583-2.394 1.397-3.385 2.37-0.653 0.642-1.24 1.361-1.783 2.103-0.669 0.913-0.639 2.041-0.819 3.208z"></path>
<path d="M20.834 6.376c-0.134 0.548 0.294 0.689 0.535 0.792 1.664 0.71 2.56 2.106 3.385 3.597 0.446 0.808 0.725 1.672 0.907 2.557 0.138 0.672 0.124 1.374 0.189 2.062 0.027 0.296 0.113 0.588 0.115 0.883 0.001 0.247-0.059 0.5-0.128 0.741-0.447 1.575-1.119 3.029-2.354 4.157-0.125 0.115-0.303 0.179-0.418 0.301-0.206 0.218-0.33 0.079-0.464-0.071-0.025-0.027-0.033-0.071-0.061-0.095-0.554-0.5-0.372-0.952 0.053-1.431 0.363-0.408 0.705-0.842 0.999-1.302 0.218-0.34 0.433-0.725 0.495-1.115 0.121-0.767 0.156-1.55 0.192-2.329 0.078-1.661-0.46-3.183-1.36-4.514-0.698-1.033-1.643-1.91-2.91-2.3-0.238-0.074-0.464-0.188-0.695-0.286-0.421-0.177-0.549-0.512-0.356-0.909 0.299-0.614 0.492-1.255 0.606-1.937 0.134-0.803 0.391-1.586 0.583-2.381 0.036-0.15 0.045-0.319 0.013-0.469-0.104-0.493 0.188-0.795 0.512-1.060 0.231-0.189 0.498-0.343 0.769-0.467 0.141-0.063 0.346-0.078 0.49-0.027 0.829 0.296 1.67 0.575 2.466 0.946 0.48 0.224 0.875 0.622 1.33 0.909 0.743 0.47 1.477 0.963 2.008 1.666 0.573 0.76 1.115 1.555 1.569 2.39 0.528 0.971 0.992 1.982 1.392 3.011 0.261 0.672 0.355 1.408 0.526 2.113 0.434 1.798 0.526 3.63 0.446 5.468-0.030 0.695-0.18 1.385-0.277 2.077-0.061 0.434-0.062 0.89-0.2 1.297-0.238 0.698-0.535 1.379-0.855 2.044-0.76 1.582-2.048 2.732-3.278 3.927-0.261 0.254-0.511 0.519-0.767 0.78-0.317-0.526-0.596-1.034-0.919-1.51-0.2-0.294-0.125-0.5 0.101-0.697 0.274-0.236 0.567-0.451 0.841-0.686 0.624-0.535 0.949-1.265 1.271-1.995 0.389-0.881 0.815-1.748 1.168-2.644 0.239-0.606 0.443-1.24 0.552-1.881 0.123-0.714 0.183-1.451 0.156-2.172-0.038-0.984-0.176-1.966-0.286-2.946-0.232-2.078-1.186-3.897-2.097-5.724-0.658-1.317-1.696-2.267-3.009-2.939-0.672-0.345-1.304-0.766-1.956-1.147-0.303-0.177-0.44-0.117-0.509 0.211-0.136 0.636-0.004 0.884 0.531 1.278 1.063 0.785 2.139 1.559 3.143 2.414 0.769 0.656 1.314 1.511 1.672 2.472 0.306 0.822 0.675 1.625 0.914 2.466 0.196 0.689 0.251 1.419 0.35 2.133 0.108 0.783 0.234 1.568 0.278 2.355 0.026 0.47-0.052 0.955-0.153 1.419-0.098 0.453-0.25 0.903-0.44 1.325-0.32 0.712-0.613 1.457-1.054 2.093-0.648 0.932-1.409 1.785-2.135 2.662-0.264 0.319-0.398 0.283-0.59-0.094-0.153-0.301-0.284-0.624-0.492-0.883-0.175-0.218-0.078-0.345 0.038-0.492 0.382-0.492 0.803-0.958 1.154-1.471 0.374-0.548 0.724-1.119 1.008-1.716 0.264-0.554 0.459-1.147 0.626-1.738 0.114-0.405 0.162-0.839 0.179-1.262 0.029-0.656 0.074-1.321-0.009-1.967-0.102-0.808-0.245-1.63-0.524-2.39-0.306-0.836-0.763-1.624-1.197-2.409-0.443-0.798-1.128-1.396-1.853-1.918-0.554-0.398-1.188-0.686-1.791-1.017-0.118-0.065-0.255-0.098-0.418-0.159z"></path>
<path d="M9.82 5.795c-0.327 0-0.656 0.010-0.984-0.003-0.414-0.017-0.636-0.314-0.469-0.675 0.459-0.986 1.173-1.663 2.297-1.85 0.665-0.111 1.317-0.307 1.982-0.421 0.126-0.022 0.404 0.151 0.414 0.254 0.058 0.616 0.027 1.229-0.355 1.767-0.314 0.444-0.805 0.613-1.278 0.751-0.515 0.151-1.064 0.185-1.598 0.27-0.004-0.032-0.007-0.062-0.012-0.094zM12.175 4.089c-0.916-0.134-1.725 0.066-2.443 0.616-0.071 0.053-0.156 0.186-0.134 0.239 0.037 0.087 0.162 0.198 0.241 0.192 0.49-0.033 1.002-0.022 1.461-0.17 0.379-0.123 0.837-0.304 0.875-0.877z"></path>
</svg>
