<!-- Generated by IcoMoon.io -->
<svg version="1.1" xmlns="http://www.w3.org/2000/svg" width="512" height="512" viewBox="0 0 512 512">
<title>monsters-of-order</title>
<g id="icomoon-ignore">
</g>
<path d="M138.736 511.968c-3.232-3.696-2.272-7.808-0.688-11.632 2.912-7.056 6.368-13.872 9.296-20.928 5.648-13.568 11.344-27.12 16.464-40.896 1.904-5.12 2.656-10.704 5.376-15.584 0.976-1.776 2.112-3.472 2.992-5.28 0.976-1.968 1.728-4.048 2.704-6.32 0.464 0.224 1.296 0.656 2.128 1.056 1.68 0.816 3.104 2.224 5.376 1.6 0.832-0.224 2.016 0.816 3.328 1.424 1.888-8.096 3.744-16.128 5.76-24.768-1.872 1.056-3.472 1.648-4.656 2.72-2.048 1.872-4.4 2.624-6.96 1.952-3.856-0.992-6.592 0.4-8.336 3.664-3.088 5.776-6.384 11.504-8.88 17.568-3.616 8.8-9.6 15.984-15.168 23.44-0.352 0.464-0.896 0.816-1.6 1.44-0.096-0.736-0.272-1.136-0.16-1.44 3.728-13.792 7.408-27.616 13.504-40.608 1.904-4.080 4.368-7.728 7.648-10.896 1.712-1.648 3.008-3.824 4.176-5.936 4.736-8.784 9.536-17.568 13.968-26.512 2.848-5.728 4.4-12.176 7.712-17.584 8.384-13.712 11.696-29.568 19.296-43.536 3.584-6.576 7.456-12.96 11.184-19.424 3.28-5.696 6.528-11.424 9.808-17.12 0.352-0.608 0.848-1.136 1.44-1.904 1.6 1.68 3.088 3.248 4.72 4.976 2.784-3.392 3.968-7.008 4.064-11.008 0.128-4.528 1.44-6.576 5.728-8.272 1.424-0.576 2.912-1.040 4.336-1.648 2.448-1.056 2.528-1.584 0.608-3.312-0.432-0.384-0.848-0.752-1.264-1.136-1.344-1.328-1.904-2.912-1.056-4.656 1.264-2.576 1.136-5.184 1.12-7.984-0.016-2.688 0.848-5.696 2.256-7.984 3.392-5.488 7.664-10.304 13.744-13.104 0.448-0.208 0.832-0.512 1.248-0.768 0.208-0.128 0.384-0.288-0.144-0.576 0.096-1.568-0.224-3.296 0.352-4.672 7.504-18.16 15.184-36.24 22.72-54.384 1.408-3.36 2.256-6.928 3.6-10.304 1.936-4.8 3.584-9.808 6.224-14.208 6-10.032 8.8-21.264 13.36-31.84 3.008-6.96 3.392-13.2 0.288-20.4-3.968-9.184-0.736-16.816 7.808-22.192 4.48-2.8 8.992-5.552 13.344-8.544 2.416-1.648 4.752-1.728 7.376-0.88 9.232 3.008 14.624 11.904 13.36 22.048-0.16 1.36-0.512 2.848-0.144 4.080 0.288 0.928 1.52 1.664 2.48 2.272 0.144 0.096 1.264-0.96 1.584-1.632 1.184-2.48 2.192-5.024 3.248-7.504 6.688 1.040 12.656 8.928 11.568 15.312-0.384 2.352 0.32 3.904 2.544 4.512 3.2 0.88 6.448 1.936 9.728 2.128 7.344 0.48 12.112 9.776 10.16 15.312-1.36 3.84-1.632 8.272-5.584 10.736-2.080 1.28-4.224 2.4-6.32 3.616-6.656 3.856-12.816 8.272-17.712 14.352-1.552 1.904-3.904 3.152-5.776 4.816-2.688 2.448-5.568 4.736-7.856 7.552-12.88 15.808-23.552 33.104-33.568 50.784-3.072 5.408-5.632 11.136-8.032 16.896-2.784 6.672-7.232 12.144-11.936 17.392-1.408 1.568-4.656 2.4-6.88 2.128-4.576-0.576-8.704-0.080-12.704 2.080-0.208 0.128-0.448 0.176-0.688 0.272-5.84 2-5.808 1.824-2.784 7.504 1.136 2.16 2.128 4.448 3.664 6.304 2.272 2.768 4.944 5.2 7.68 8.016-2.624 3.2-5.616 6.912-8.704 10.576-1.552 1.824-2.624 3.616-1.824 6.176 0.224 0.704-0.4 1.792-0.848 2.576-0.96 1.68-2.192 3.232-3.024 4.976-8.56 17.696-17.312 35.28-27.632 52.016-2.768 4.496-5.28 9.152-7.68 13.856-1.264 2.448-1.952 5.152-3.056 7.664-1.664 3.76-2.976 7.808-5.28 11.12-6.448 9.248-11.488 19.232-16.24 29.392-0.928 2-1.296 4.352-1.6 6.576-0.576 4.272-0.976 8.56-1.36 12.848-0.32 3.616-2.080 6.4-5.040 8.192-4.64 2.8-7.6 6.912-10.384 11.408-1.184 1.904-3.28 3.248-4.752 5.024-1.12 1.328-1.904 2.928-2.848 4.416-0.768 1.216-1.584 2.416-2.272 3.664-1.712 3.024-3.52 6-5.008 9.136-3.808 8.080-7.44 16.224-11.168 24.336-0.464 1.040-1.040 2.032-1.68 2.944-8.24 11.68-16.512 23.328-24.752 34.992-0.656 0.912-0.976 2.048-1.648 2.976-1.184 1.584-2.496 3.072-3.744 4.592-0.544-0.048-1.040-0.048-1.52-0.048z"></path>
<path d="M261.728 0c2.416 4.496 1.488 9.536 2.384 14.272 0.848 4.448 2 8.848 2.912 13.28 1.36 6.512 2.704 13.040 3.952 19.568 2.272 11.984 6.096 23.408 12.256 33.952 1.424 2.448 1.584 4.224-0.24 6.992-1.568 2.384-1.264 6.032-1.52 9.152-0.048 0.432 1.344 1.216 2.192 1.472 4.128 1.184 8.304 2.272 12.464 3.28 3.392 0.816 4.416 3.536 5.376 6.352 0.144 0.4-0.096 1.184-0.448 1.44-3.136 2.464-4.288 6.016-5.632 9.52-0.576 1.504-1.264 2.976-2 4.64-0.848-0.352-1.552-0.608-2.448-0.976-0.096 1.52-0.208 2.848-0.304 4.368-0.624-0.176-1.28-0.16-1.488-0.448-1.808-2.576-4.864-2.752-7.424-3.808-0.992-0.4-2.64-0.528-3.376 0.048-1.856 1.424-3.52 1.744-5.936-0.128-0.704 3.968-1.424 7.408-1.936 10.896-1.504 10.224-3.456 20.336-7.328 30-0.144 0.368-0.32 0.736-0.48 1.104-1.856-0.704-2.016-0.4-3.776 6.032-0.432-0.672-1.184-1.296-1.248-2-0.144-1.776 0.048-3.584 0.080-5.376 0.16-7.776 0.624-15.488-1.968-23.104-1.488-4.352-2.048-9.024-2.8-13.584-0.432-2.672-1.856-3.552-4.352-4-5.168-0.928-10.16-0.4-15.216 0.72-6.736 1.504-13.6 2.464-20.256 4.224-10.224 2.752-19.12 8.4-27.936 14.064-1.552 0.992-1.744 2-1.104 3.808 1.216 3.392 2.544 6.624 5.184 9.232 1.424 1.408 1.728 3.248 1.024 4.976-3.552 0-6.992-0.016-10.432 0-4.032 0.048-6.768-1.808-8.24-5.792-5.984 7.824-11.232 15.696-14.416 24.768-1.024 2.912-2.112 5.792-3.104 8.72-0.848 2.48-2.176 4.496-4.080 6.448-2.912 2.992-3.856 7.216-3.84 11.28 0.048 7.2-0.48 14.48 1.584 21.552 0.368 1.216 0.272 2.576 0.48 3.856 0.304 1.728 1.504 2.24 2.752 1.040 2.992-2.928 6.928-3.312 10.592-3.408 8.752-0.224 17.472-0.16 26.048 2.656 4.288 1.408 9.136 1.28 13.744 1.504 10.64 0.512 21.296 0.752 31.92 1.248 1.52 0.064 3.008 0.88 4.512 1.328 0.048 0.32 0.064 0.624 0.096 0.96-1.248 0.528-2.448 1.44-3.728 1.552-11.104 0.88-22.208 1.52-33.296 2.4-3.856 0.304-7.744 0.896-11.552 1.632-7.728 1.488-15.392 3.28-23.136 4.64-1.584 0.288-3.504-0.448-5.088-1.136-5.232-2.24-5.84-1.904-9.552 2.16-3.072 3.36-4.368 6.896-4.048 11.424 0.384 5.328-0.448 10.832 0.528 16.048 2.032 10.656 6.4 19.984 15.856 26.704 6.448 4.576 11.792 10.656 17.728 15.92 1.904 1.712 4.192 3.008 6.992 4.976-1.44 4.032-2.704 9.216-5.152 13.76-1.936 3.584-3.616 7.008-4.128 11.040-0.048 0.24-0.064 0.48-0.096 0.736-0.816 4.56-2.688 5.792-7.28 4.736-0.128-0.576-0.176-1.2-0.368-1.808-0.432-1.376-0.592-3.632-1.472-3.968-2.608-0.976-5.184 0.512-6.768 2.8-2.992 4.352-6.080 8.64-9.152 12.928-0.768 1.072-1.52 1.904-3.216 1.024-0.688-0.368-2.24 0.272-3.088 0.88-1.328 0.96-2.384 2.256-3.552 3.44-0.224-0.128-0.432-0.272-0.656-0.384 0.176-0.592 0.32-1.216 0.592-1.792 1.776-3.84 3.392-7.744 5.392-11.472 1.808-3.376 2.192-6.832 1.056-10.352-1.584-4.96-0.832-9.44 2.048-13.664 0.448-0.672 0.752-1.44 1.072-2.176 0.832-1.888 0.272-3.296-1.776-3.664-3.072-0.544-4.704-2.496-6.016-5.12-0.768-1.552-1.888-3.104-3.248-4.144-5.84-4.528-9.984-10.288-12.384-17.184-3.008-8.64-5.584-17.44-8.384-26.176-1.2-3.776-2.336-7.584-3.616-11.328-0.368-1.056-0.912-2.192-1.712-2.912-2.128-1.936-3.84-3.984-4.304-6.96-0.096-0.656-1.104-1.408-1.856-1.68-2.112-0.816-4.304-1.376-6.352-2.032-0.768 1.6-1.472 3.056-2.496 5.184-1.264-1.664-1.968-2.8-2.864-3.744-0.624-0.656-1.568-1.024-2.352-1.52-0.448 0.816-1.12 1.584-1.28 2.448-0.32 1.776-0.384 3.584-0.656 6.224-6.512-4.928-13.872-3.008-20.416-5.2-7.072-2.384-14.256-4.512-21.536-6.144-7.184-1.6-14.544-2.464-21.824-3.552-5.76-0.88-11.552-1.648-17.392-2.992 0.352-0.176 0.688-0.48 1.056-0.544 7.184-1.36 14.4-2.464 21.52-4.064 8.544-1.952 16.96-4.336 25.44-6.544 3.376-0.88 6.688-1.936 10.112-2.576 2.768-0.528 5.008-1.744 6.96-3.696 1.776-1.776 3.664-3.44 5.536-5.184 2.24 1.248 2.896 3.312 3.392 5.456 1.44 6.032 1.408 5.904 7.12 4.080 2.608-0.816 5.392-1.184 8.128-1.344 2.032-0.128 3.552-0.736 4.928-2.176 1.568-1.68 3.008-3.744 5.872-2.848 0.304 0.096 0.832-0.16 1.104-0.4 2.752-2.8 6.544-3.024 9.968-4.176 0.672-0.224 1.248-0.8 1.872-1.2-0.608-0.384-1.2-0.848-1.856-1.104-1.024-0.384-2.080-0.592-3.552-1.024 0.224-0.912 0.432-2.24 0.88-3.504 2.832-7.952 5.648-15.904 8.56-23.84 0.688-1.872 0.8-3.232-1.136-4.576-2.176-1.52-2.352-4.704-0.736-7.28 2.416-3.84 4.976-7.632 7.36-11.488 2-3.248 3.696-6.672 5.728-9.904 1.504-2.384 3.296-4.624 5.056-6.832 1.808-2.256 1.632-2.544-0.24-4.608-2.48-2.752-4.784-5.712-6.848-8.784-2.448-3.648-4.256-7.744-6.928-11.168-2.72-3.472-6-6.592-9.376-9.472-3.056-2.624-3.504-3.808-1.040-7.28-2.016-2.384-4.976-4.368-4.96-8.464 6.448 3.152 12.672 6.080 18.784 9.232 6.512 3.328 12.896 6.896 19.36 10.304 3.952 2.096 7.424 4.672 9.392 9.056 0.592-0.224 1.136-0.368 1.584-0.624 16.896-9.744 35.248-16.16 53.456-22.8 5.568-2.032 11.568-2.864 17.328-4.416 3.248-0.88 3.168-0.992 2.192-4.080-0.368-1.152-0.544-2.352-0.736-3.552-0.32-2.032-0.848-4.080 2.544-3.92 0.752 0.048 1.824-1.28 2.32-2.192 7.104-13.536 11.76-27.984 14.992-42.864 0.8-3.664 0.32-7.6 0.48-11.424 0.384-8.112 0.8-16.224 1.216-24.336 0.016-0.464 0.272-0.912 0.4-1.376 0.368-0.080 0.688-0.080 1.024-0.080zM125.696 217.424c-2.912-0.144-5.328-0.592-7.152 1.824-1.056 1.376-2.416 2.576-3.824 3.664-2.896 2.224-3.552 3.824-2.752 7.376 0.32 1.424 0.768 2.832 0.88 4.272 0.592 8.112 10.192 13.312 17.28 9.232 0.928-0.528 1.792-1.488 2.272-2.448 1.2-2.384 2.272-4.864 3.216-7.36 1.856-5.024-0.432-9.136-3.008-13.216-1.808-2.832-4.112-4.064-6.912-3.36zM127.392 212.304c0.8 0.832 1.408 1.936 2.32 2.4 3.68 1.824 6.032 4.784 7.712 8.416 0.592 1.296 1.504 2.464 2.576 4.192 0.24-3.552-2.688-12.112-4.928-15.312-0.368 0.208-0.752 0.384-1.184 0.608-0.432-2.912-2.272-2.976-6.512-0.304z"></path>
<path d="M403.872 142.032c1.68 0.384 2.944 0.672 4.864 1.12-1.504 2.64-3.232 5.312-4.592 8.128-1.888 3.952-3.408 8.048-5.232 12.032-1.648 3.6-1.472 7.072-0.32 10.832 2.304 7.68 4.336 15.472 6.208 23.312 0.48 2.016 0.368 4.4-0.208 6.4-1.136 4.032 0.24 7.728 0.848 11.536 0.064 0.352 1.056 0.896 1.504 0.816 5.472-1.184 9.936 1.552 14.576 3.632 0.896 0.4 1.744 0.88 2.544 1.44 1.184 0.848 2.16 0.848 3.504 0.064 2.352-1.408 4.88-1.056 7.152 0.432 5.424 3.552 11.184 6.256 17.632 7.344 1.904 0.32 3.856 0.528 5.776 0.88 2.256 0.4 4.656 0.16 6.624 1.904 0.656 0.592 2 0.512 3.024 0.592 10.128 0.608 20.272 1.184 30.72 1.792 0 1.216 0 2.24 0 3.248-0.016 2.272-1.296 3.28-3.44 3.088-2.656-0.224-5.328-0.832-8-0.848-4.4-0.048-8.784 0.176-13.152 0.48-1.136 0.080-2.304 0.736-3.296 1.376-5.232 3.44-10.96 5.456-16.944 7.232-5.872 1.744-11.552 4.256-17.216 6.656-2.88 1.216-5.568 2.928-8.336 4.432-1.2 0.656-2.32 1.568-3.6 2.016-1.888 0.672-3.152-0.24-2.976-2.224 0.16-1.936-0.592-2.384-2.224-1.968-3.552 0.848-7.12 1.664-10.64 2.688-0.768 0.224-1.568 1.104-1.952 1.872-0.48 0.992-0.704 2.176-0.848 3.296-0.8 6.672-3.888 12.288-7.584 17.728-5.68 8.32-11.168 16.784-16.688 25.2-1.552 2.352-1.36 3.328 1.072 4.656 2 1.072 2.448 2.752 2.608 4.832 0.16 1.952 0.512 4.048 1.376 5.76 1.376 2.752 3.136 5.328 4.96 7.792 3.888 5.2 7.904 10.304 11.952 15.392 1.856 2.304 3.92 4.432 6.032 6.816-0.656-0.208-1.344-0.32-1.952-0.608-2.832-1.424-5.536-3.152-8.464-4.336-9.056-3.696-18.112-7.424-27.328-10.656-3.28-1.152-7.040-1.36-10.56-1.248-2.272 0.080-4.64 1.344-6.672 2.56-2 1.2-3.744 2.88-5.392 4.56-9.664 9.824-21.488 16.112-34.064 21.264-1.808 0.736-3.664 1.36-5.392 2.256-4.976 2.576-10.304 3.808-15.84 4.416-4.176 0.448-8.32 1.216-12.464 1.856-0.544 0.080-1.104 0.24-1.648 0.448-3.152 1.152-3.536 2.112-1.744 5.024 1.44 2.352 2.976 4.672 4.64 6.848 1.024 1.328 0.976 2.272 0.096 3.664-4.128 6.512-8.528 12.976-10.064 20.704-1.632 8.112-2.992 16.288-4.224 24.48-0.752 5.040-0.912 10.192-1.6 15.248-0.656 4.72-1.776 9.392-2.496 14.112-0.576 3.616-1.104 7.264-1.2 10.896-0.080 3.024-0.88 5.040-4.88 5.328-0.368-1.6-1.12-3.472-1.2-5.376-0.384-9.664-0.432-19.344-0.88-29.024-0.736-16.16-1.664-32.32-2.528-48.48-0.144-2.496-0.848-4.56-3.6-5.488-0.8-0.272-1.552-1.408-1.808-2.304-0.736-2.496-0.368-4.928 0.768-7.328 2.224-4.64 1.072-6.736-3.952-7.792-4.048-0.848-8.096-1.776-12.16-2.496-0.928-0.16-2.032 0.208-3.008 0.528-0.832 0.288-1.52 1.072-2.352 1.216-1.024 0.176-2.112-0.064-3.2-0.128 0.176-0.848 0.208-1.808 0.576-2.576 2.4-4.88 4.832-9.728 7.344-14.512 0.304-0.608 1.296-1.424 1.728-1.296 2.688 0.736 3.408-1.264 4.336-2.912 0.384-0.688 0.576-1.552 0.656-2.336 0.24-2.224 1.28-3.136 3.6-2.752 0.832 0.144 1.952-0.128 2.624-0.624 3.504-2.528 7.008-5.024 10.224-7.872 1.264-1.12 2.4-3.056 2.496-4.704 0.544-8.304 1.488-16.496 4.432-24.368 0.544-1.44 0.208-3.216 0.368-4.816 0.352-3.088 0.768-6.16 1.664-9.216 3.824 17.28 4.672 34.848 6.832 52.192 9.776-1.472 18.704-5.024 27.84-8.096 15.392-5.2 29.136-13.488 42.8-21.984 1.728-1.072 2.176-2.416 1.568-4.336-0.928-3.024-1.856-6.064-2.544-9.152-0.272-1.152 0.096-2.464 0.176-3.68 1.296 0.128 2.704-0.048 3.888 0.4 2.256 0.88 4.432 2.016 6.544 3.216 2.016 1.136 3.376 0.752 4.816-1.040 5.408-6.704 9.312-14.256 12.976-21.984 2.272-4.832 4.608-9.68 7.072-14.416 2.64-5.040 3.616-10.208 1.968-15.76-0.208-0.688-0.304-1.424-0.448-2.128-0.88-4.208-0.88-4.192-5.12-4.96-8.944-1.632-17.856-3.552-26.848-4.864-8.352-1.2-16.816-1.664-25.216-2.544-7.904-0.832-15.824-1.776-23.728-2.656-5.488-0.608-8.176-4.96-11.28-8.64-1.040-1.216-0.288-2.272 1.344-2.464 8.624-1.024 17.216-0.928 25.648 1.424 5.376 1.504 10.8 1.728 16.144 0.528 3.888-0.848 7.568-0.16 11.36 0.144 3.696 0.304 7.424 0.272 11.136 0.48 2.496 0.16 5.008 0.432 7.488 0.816 5.856 0.88 11.248-1.040 16.688-2.688 4.976-1.488 4.928-1.488 4.608-6.656-0.848-14.384-4.352-28.224-8.384-41.952-1.104-3.76-3.136-7.008-6.096-9.536-3.536-2.976-7.232-5.76-10.976-8.464-1.904-1.376-2.832-3.168-2.048-5.232 0.896-2.384 2.32-4.592 3.632-6.8 1.2-1.968 2.72-3.632 2.64-6.352-0.048-1.216 1.552-2.72 2.752-3.632 0.352-0.288 2.048 0.768 2.832 1.52 2.192 2.128 4.752 3.232 7.744 3.776 1.664 0.304 3.36 1.104 4.784 2.048 1.744 1.152 3.232 2.72 4.832 4.080 4.736 4 7.664 4.256 13.008 0.96 3.168-2 6.24-3.968 8.864-5.632zM412.72 226.368c-0.080-0.224-0.16-0.464-0.24-0.688-2.56 0.976-5.84 1.296-7.568 3.088-4.448 4.592-2.8 10.304-1.056 15.584 0.432 1.328 2.416 2.304 3.856 3.072 8.976 4.832 16.144 1.712 18.864-8.128 0.128-0.464 0.176-0.96 0.32-1.424 0.832-3.024-0.128-5.472-2.496-7.344-3.44-2.704-7.232-4.368-11.696-4.144z"></path>
</svg>
