<!-- Generated by IcoMoon.io -->
<svg version="1.1" xmlns="http://www.w3.org/2000/svg" width="512" height="512" viewBox="0 0 512 512">
<title>monsters-of-order</title>
<g id="icomoon-ignore">
</g>
<path d="M220.992 474.16c-16.096-20.512-29.36-40.224-29.36-43.856 0-12.064 15.696-11.264 38.624 1.616l22.528 12.464 23.728-14.48c19.712-12.064 24.944-13.68 31.776-10.064 4.832 2.416 8.048 7.248 7.248 10.464-1.2 6.432-59.936 82.064-63.568 81.664-1.2 0-15.28-16.896-30.976-37.824z"></path>
<path d="M189.616 395.312c-32.992-20.112-62.352-38.624-65.168-41.040-2.416-2.816-6.032-15.28-7.248-27.76-2.816-22.928-2.816-23.328 7.248-23.328 13.28 0 16.496-9.648 13.28-43.44-1.616-15.696-0.8-32.992 1.616-41.040 4.432-14.080 4.016-14.080-21.728-38.224l-26.144-24.144 4.432-30.176c2.416-16.496 4.832-43.856 4.832-60.352l0.4-30.176 18.096-2.416c10.064-1.616 34.192-8.448 53.904-15.28 68.384-24.144 82.464-24.144 159.712 1.2 29.36 9.648 46.272 12.88 57.12 11.664l15.28-2.016-0.4 25.344c-0.4 14.080 1.616 43.856 4.432 65.568l5.232 39.824-13.68 10.464c-7.648 5.632-20.112 16.496-27.76 23.728-11.664 11.264-13.28 14.88-10.464 26.144 1.2 6.832 4.832 28.56 7.648 47.872s6.832 37.408 9.248 40.224c2.016 2.816 3.616 13.28 3.616 23.328l-0.4 18.096-40.224 27.36c-36.208 24.544-86.896 55.12-90.928 55.12-0.8 0-28.56-16.496-61.952-36.608zM272.896 379.632c8.848-6.832 10.864-12.464 13.28-39.024 3.216-36.208 11.664-55.12 37.408-82.464l18.096-18.512-4.832-19.712c-6.032-23.328-10.464-29.36-22.928-29.36-10.464 0-12.88 6.032-14.48 36.208l-1.2 18.096-11.664-16.896c-8.448-12.464-15.696-18.512-26.544-21.328-20.112-5.632-25.344-2.816-43.040 21.328l-15.28 20.912-1.2-29.36c-1.2-27.76-1.616-28.96-11.264-28.96-7.648 0-11.264 3.216-16.096 14.080-10.064 24.144-7.648 37.008 10.064 53.104 8.848 7.648 17.296 19.312 18.512 25.344s5.632 14.080 10.064 18.096c5.232 4.832 8.048 15.28 10.064 38.624 2.416 27.36 4.432 32.992 12.88 39.824 12.88 10.064 25.344 10.064 38.224 0zM272.496 170.032c18.096-14.48 18.912-17.696 6.832-40.224-6.832-13.28-7.648-18.096-4.016-24.144 6.032-9.648 6.032-11.664-0.8-11.664-11.664 0-13.68 22.128-4.016 41.040 6.432 12.064 6.032 12.464-5.632 24.144l-11.664 12.064-10.864-14.080c-8.848-11.664-10.064-15.696-6.832-22.528 8.048-14.88 4.432-40.64-6.032-40.64-6.832 0-6.832 2.016-0.8 12.064 4.832 7.648 4.432 10.464-6.432 36.608-3.216 7.248 20.512 39.424 29.36 39.424 2.816 0.4 12.464-5.232 20.912-12.064zM179.568 168.016c6.032-15.696 4.832-20.112-6.432-25.344-13.28-6.032-15.696-3.616-9.248 7.248 8.048 12.464 1.616 14.48-21.328 5.632-14.080-5.232-20.912-9.648-19.712-13.68 0.8-3.216 2.016-12.88 3.216-21.728 2.816-20.112-3.216-15.28-12.88 11.264-8.848 23.328-6.432 26.96 26.144 39.024 29.36 10.464 35.808 10.064 40.224-2.416zM383.52 159.568c20.112-9.648 20.912-10.464 18.512-22.528-3.216-16.096-12.464-39.024-16.096-39.024-1.2 0-1.2 10.064 0.4 22.128l2.416 22.528-18.512 8.048c-21.728 9.248-25.344 7.648-16.096-6.032 3.616-5.632 6.432-11.264 6.432-12.464 0-1.616-22.928 8.448-27.36 12.064-0.8 0.8 1.616 7.648 4.832 16.096 7.248 16.496 8.448 16.496 45.456-0.8zM209.328 123.76c2.416-6.832-4.016-11.664-26.544-19.312-22.128-7.248-31.376-5.232-31.376 7.648 0 12.464 32.992 27.36 46.672 21.328 5.232-2.416 10.064-6.832 11.264-9.648zM348.928 125.776c21.328-9.248 23.728-14.48 12.464-24.944-6.832-6.032-8.848-5.632-32.176 5.232-13.68 6.432-24.944 12.88-24.944 14.48 0 4.016 13.28 13.28 19.312 13.68 2.816 0 14.48-4.016 25.344-8.448z"></path>
<path d="M239.904 369.568c-2.816-3.616-6.032-20.112-7.248-37.408-1.2-25.344-3.616-32.992-10.864-41.040-8.048-8.448-9.248-12.88-7.248-28.96 1.2-10.864 3.616-19.312 5.232-19.312s6.032 7.248 9.648 16.096c5.232 13.68 8.048 16.096 18.096 16.096 18.096 0 24.144-3.616 31.376-19.712l6.432-14.48 3.616 18.096c2.816 14.88 2.016 20.512-4.432 32.176-4.432 8.448-8.848 26.96-10.464 45.456-2.416 24.144-4.832 32.176-10.464 35.008-10.064 5.632-18.096 4.832-23.728-2.016z"></path>
<path d="M372.672 419.856c-44.656-7.248-57.536-10.864-54.304-16.096 0.8-1.616 17.696-12.064 37.008-23.328 24.944-14.48 40.64-20.512 53.504-21.328 16.896-1.2 18.096-0.8 19.312 8.448 1.616 16.096-4.832 57.536-9.248 58.336-2.016 0.4-22.928-2.016-46.272-6.032z"></path>
<path d="M90.256 421.472c-2.016-1.616-3.216-16.096-3.216-32.592v-29.36h11.664c6.432 0 20.112 5.632 30.976 13.28 47.472 31.776 49.888 35.408 28.96 43.040-16.896 5.632-64.768 10.064-68.384 5.632z"></path>
<path d="M404.848 347.44c-8.448-2.016-10.064-5.232-11.264-18.912-1.2-14.48 0.8-18.912 13.68-33.392 8.048-8.848 20.512-20.112 26.96-24.944l12.064-8.848 9.248 12.064c5.232 6.432 9.648 14.080 9.648 16.496 0 8.048-33.392 52.704-42.24 56.72-4.432 2.016-12.464 2.416-18.096 0.8z"></path>
<path d="M68.128 326.528c-11.664-12.064-21.328-24.144-21.328-27.36 0-6.832 19.712-28.16 25.744-28.16 2.416 0 10.064 5.632 17.296 12.064 9.248 8.448 13.68 17.296 15.28 29.776 6.032 40.224-6.432 44.656-37.008 13.68z"></path>
<path d="M102.72 280.256c-32.176-25.344-37.008-35.808-25.744-57.936 6.032-11.264 6.432-11.264 13.68-4.832 25.344 24.544 40.624 46.672 40.624 59.536 0 18.512-8.048 19.712-28.56 3.216z"></path>
<path d="M384.736 269.392c0-21.328 0.4-22.128 23.328-42.24 22.128-18.912 24.144-19.712 32.176-14.080s8.048 6.432 2.016 23.728c-4.432 13.68-12.064 22.928-28.16 36.208-12.064 10.064-23.728 18.096-25.744 18.096s-3.616-9.648-3.616-21.728z"></path>
<path d="M103.936 217.504c-11.264-11.664-16.896-20.512-16.896-28.16 0-13.28 2.016-13.68 18.912-0.4 18.096 13.68 26.544 27.36 23.328 37.824-3.616 11.264-6.032 10.464-25.344-9.248z"></path>
<path d="M377.488 229.968c-12.064-12.064-3.216-27.76 24.944-45.056 9.248-6.032 12.064-6.432 14.88-2.016 6.432 10.064 3.616 18.096-9.248 30.176-22.128 20.512-25.344 22.128-30.576 16.896z"></path>
</svg>
