<!-- Generated by IcoMoon.io -->
<svg version="1.1" xmlns="http://www.w3.org/2000/svg" width="512" height="512" viewBox="0 0 512 512">
<title>monsters-of-order</title>
<g id="icomoon-ignore">
</g>
<path d="M249.952 18.064c2.288 0.656 4.16 1.744 5.376 3.968 0.56 1.024 1.872 1.712 2.928 2.416 7.6 4.912 15.424 9.536 22.8 14.816 4.192 2.992 7.728 6.928 11.36 10.656 1.024 1.056 1.584 2.832 1.808 4.336 0.496 3.328 0.768 6.688 0.896 10.048 0.464 10.416 1.2 20.848 1.104 31.264-0.080 8.752 1.664 16.928 5.040 24.896 0.624 1.44 0.736 3.104 1.12 4.672 0.176 0.784 0.304 1.584 0.624 2.304 3.056 7.088 6.176 14.112 9.168 21.216 0.64 1.504 1.008 3.232 1.040 4.848 0.080 2.704 1.728 4.176 4.32 3.328 1.2-0.4 2.288-1.168 3.472-1.648 2.832-1.168 4.72-0.144 4.88 2.784 0.048 0.72-0.608 1.952-1.2 2.144-7.92 2.576-13.808 8.128-19.504 13.728-6.336 6.224-12.080 13.056-18.144 19.568-2.208 2.368-2.192 4.816-0.688 7.472 0.528 0.896 1.28 1.808 1.36 2.768 0.080 1.008-0.208 2.608-0.88 3.008-1.872 1.088-2.736 2.624-3.216 4.56-1.184 4.592-3.184 8.688-6.576 12.096-1.584 1.584-2.928 3.344-5.632 1.6 0 1.84 0 3.264 0 4.896 1.984 0.208 3.936 0.464 5.904 0.576 3.408 0.208 5.44 2.48 7.472 4.8 0.288 0.32 0.368 1.2 0.128 1.504-3.968 4.88-4.176 10.992-5.552 16.72-2.112 8.688-3.056 17.536-2.272 26.48 0.080 0.928 1.008 2.208 1.824 2.528 3.008 1.136 3.792 2.608 2.368 5.696-1.968 4.288-4.48 8.384-6 12.848-2.704 7.84-5.104 15.808-7.088 23.872-0.816 3.328-0.128 7.024-0.336 10.56-0.656 10.24-1.392 20.464-2.16 30.704-0.64 8.384-1.104 16.816-2.224 25.168-1.664 12.304-3.952 24.512-5.824 36.784-1.408 9.264-2.512 18.576-3.856 27.872-1.568 10.88-3.152 21.728-4.896 32.56-0.304 1.888-1.52 3.632-2.32 5.456-0.288-0.080-0.576-0.16-0.864-0.224-0.656-5.6-1.44-11.2-1.952-16.816-1.952-21.488-3.616-43.008-5.76-64.464-1.6-16.112-3.872-32.16-5.632-48.256-0.496-4.608-0.16-9.312-0.576-13.92-1.632-18.288-3.968-36.512-4.88-54.832-0.528-10.688-2.832-20.672-6.256-30.64-2.464-7.184-4.4-14.576-6.56-21.856-0.096-0.368-0.096-0.736 0.304-1.648 1.024 0.688 2.128 1.264 3.024 2.080 1.136 1.024 1.84 1.008 2.976-0.16 1.632-1.728 3.568-3.136 5.52-4.768-0.544-0.496-1.168-1.088-1.792-1.664-2.064-1.888-2.816-4.192-1.584-6.736 1.408-2.912 0.768-5.424-0.8-7.92-0.848-1.36-1.632-2.752-2.48-4.112-1.44-2.304-1.92-2.352-4.176-0.88-1.328 0.864-2.768 1.584-4.24 2.24-2.064 0.944-3.168-0.032-3.584-2.064-0.56-2.768 0.064-5.36 1.728-7.504 1.312-1.68 2.928-3.168 4.592-4.512s2.304-2.736 1.424-4.768c-1.392-3.152-2.704-6.336-3.952-9.552-0.656-1.712-1.872-2.512-3.616-2.736-7.008-0.864-11.456-4.88-13.888-11.36-0.176-0.48-0.544-1.184-0.928-1.248-2.304-0.336-2.112-2.048-2.48-3.728-0.416-1.84-1.2-3.84-2.4-5.264-3.184-3.696-6.736-7.088-10.080-10.672-0.848-0.896-1.392-2.112-1.952-3.248-0.208-0.4-0.016-1.008 0-1.52 0.496 0.128 1.088 0.096 1.488 0.368 1.712 1.184 3.376 2.448 5.040 3.712 3.312 2.528 6.576 5.12 9.952 7.568 0.864 0.624 2 0.848 3.328 1.392 0.224-1.648 0.4-2.944 0.64-4.656 0.944 0.384 1.888 0.576 2.544 1.088 3.328 2.512 6.768 4.912 9.84 7.728 5.024 4.608 9.776 9.504 14.592 14.32 1.008 1.024 1.84 2.208 2.656 3.408 2.48 3.728 4.48 4.32 8.544 2.448 1.68-0.784 2.464-2.080 1.984-3.888-1.664-6.208-3.488-12.368-7.28-17.68-0.624-0.88-1.792-1.552-2.832-1.952-2.784-1.024-3.952-2.32-3.92-5.312 0.064-5.104-2.272-8.736-6.56-11.216-1.952-1.12-3.952-2.112-5.952-3.136-2.912-1.488-3.664-1.328-5.76 1.168-1.088 1.28-2.048 2.704-3.312 3.76-1.392 1.136-3.008 2.432-4.992 1.2-2.16-1.344-4.448-3.088-4-5.824 1.136-6.656 0.608-13.632 3.648-19.984 1.056-2.224 2.368-3.968 4.688-4.832 3.408-1.264 4.672-3.792 4.656-7.328-0.064-9.472 0.096-18.944-0.032-28.416-0.064-3.168-0.56-6.384-1.28-9.472-0.784-3.376-0.288-6.384 0.736-9.616 1.104-3.536 1.328-7.344 2-11.040 0.16-0.88 0.48-1.92 1.088-2.528 5.344-5.216 10.736-10.352 16.16-15.504 0.256-0.256 0.64-0.4 1.408-0.864 0.096 2.192 0.176 4.032 0.288 6.112 0.64-0.208 1.248-0.304 1.76-0.56 8.288-4.192 15.488-9.408 18.144-19.024 0.448-1.584 1.424-3.008 2.144-4.496 0.96-0.032 1.92-0.032 2.896-0.032zM267.168 180.64c0.256 3.728 0.464 6.304 0.64 8.864 0.016 0.24 0 0.496 0.064 0.72 0.48 1.52 0.8 3.104 1.488 4.512 0.736 1.52 2.208 1.424 2.656-0.032 0.448-1.552 0.48-3.472-0.048-4.976-0.8-2.288-0.784-6.704 0.768-8.432 0.464-0.496 1.552-1.024 2.032-0.8 2.272 1.024 3.248-0.32 4.192-1.952 2.544-4.416 5.824-8.16 9.76-11.472 4.112-3.424 7.92-7.264 11.776-10.992 3.568-3.456 2.928-10.896-1.12-13.056-2.16-1.168-4.4-2.304-6.72-3.104-1.136-0.4-2.688-0.32-3.856 0.128-1.84 0.704-3.488 1.904-5.264 2.832-2.464 1.264-4.112 3.152-5.232 5.696-1.744 3.952-3.472 7.968-5.744 11.616-4.128 6.688-4.752 14.128-5.376 20.464zM254.4 274.32c0.176 0.016 0.384 0.064 0.56 0.080 0.4-1.328 0.96-2.624 1.2-3.968 1.2-6.704 2.304-13.424 3.488-20.128 0.32-1.808 0.096-4.080 3.008-4.080 0.336 0 0.816-0.528 0.976-0.928 0.72-1.68 1.552-3.376 1.952-5.152 0.48-2.112-0.56-3.808-2.48-4.736-3.808-1.84-8.592 0.976-8.656 5.136-0.16 10.512-0.24 21.008-0.32 31.52 0 0.768 0.16 1.504 0.256 2.24zM242.192 264.768c0.144-0.016 0.304-0.016 0.448-0.048 0.208-1.056 0.528-2.112 0.608-3.168 0.144-1.68 0.368-2.992 2.48-3.392 1.68-0.336 1.952-1.968 1.136-3.296-2.352-3.856-2.832-8.048-2.928-12.448-0.064-3.152-2.288-5.28-5.28-5.536-1.968-0.16-3.344 0.784-4.352 2.4-0.896 1.44-1.168 2.992 0.080 4.192 3.232 3.168 4.016 7.344 5.104 11.424 0.88 3.296 1.808 6.576 2.704 9.856zM257.024 225.68c-0.304 1.424-0.48 2.208-0.64 2.992 0.864 0.16 1.744 0.304 3.296 0.576-1.056-1.408-1.6-2.144-2.656-3.568zM230.176 233.264c-1.312 1.424-2.112 2.304-2.912 3.184 0.224 0.256 0.416 0.544 0.64 0.8 0.896-0.64 1.84-1.248 2.656-1.984 0.16-0.16-0.16-0.864-0.384-2z"></path>
<path d="M511.984 173.728c-0.928-0.368-1.424-0.496-1.888-0.72-7.36-3.616-14.656-7.2-22.56-9.808-9.76-3.216-18.928-8.208-28.352-12.448-1.024-0.464-1.952-1.168-3.008-1.504-18.4-6.032-35.36-15.456-53.136-22.928-8.832-3.712-18.112-6.384-26.976-10.048-8.128-3.376-16.016-7.328-23.904-11.264-3.856-1.92-7.76-3.168-12.016-2.416-3.552 0.64-6.016-0.256-7.664-3.632-0.544-1.12-1.824-2.544-2.864-2.656-1.84-0.16-2.784 1.552-3.328 3.264-0.144 0.416-0.528 0.736-0.928 1.328-1.76-3.168-1.664-6.080-0.4-9.136 0.656-1.584 1.2-3.296 1.488-4.976 1.6-9.952 4.736-19.408 8.992-29.056 0.896 3.792 1.664 7.088 2.512 10.368 0.416 1.648 1.184 3.008 3.392 2.656 0.528-2.352-1.248-5.264 1.6-7.040 3.184-2 4.272 1.968 6.688 2.272 1.472-2.608 1.424-2.544 3.872-0.72 3.856 2.896 7.68 5.792 11.664 8.512 5.952 4.048 10.8 9.008 14.048 15.504 0.704 1.392 2.128 2.608 3.504 3.424 14.16 8.32 28.528 16.32 42.56 24.864 10.336 6.288 20.24 13.28 30.384 19.888 3.424 2.224 6.976 4.192 11.216 4.656 1.472 0.16 2.848 0.976 4.24 1.6 4.096 1.824 8.272 3.488 12.192 5.632 2.304 1.264 4.24 3.248 6.256 4.96 0.784 0.656 1.36 1.584 2.16 2.224 3.648 2.896 7.296 5.76 11.040 8.544 0.864 0.64 1.984 0.944 2.992 1.408 0.56 0.256 1.328 0.4 1.664 0.848 1.472 1.92 2.816 3.936 4.56 6.384z"></path>
<path d="M146.544 430.976c-0.736-0.928-0.88-1.040-0.928-1.184-0.064-0.224-0.080-0.48-0.064-0.704 7.568-52.208 15.728-104.384 16.448-157.312 0.016-1.088 0.544-2.16 0.864-3.408 0.528 0.24 0.96 0.368 1.328 0.608 1.744 1.2 2.992 0.608 3.472-1.216 1.328-5.024 2.928-10.016 3.616-15.104 0.704-5.28 1.104-10.672-0.816-15.952-0.544-1.488-0.24-3.296-0.368-5.456 4.336 1.328 5.2-1.68 6.368-4.368 3.632-8.464 7.2-16.96 10.944-25.376 1.424-3.168 3.248-6.16 4.896-9.232 0.24 0.096 0.464 0.208 0.704 0.304-1.184 6.48-2.352 12.976-3.536 19.456-0.224 1.184-0.64 2.368-0.576 3.552 0.080 1.488 0.544 2.976 0.864 4.64-0.24 0.032-0.96 0.144-1.664 0.224-0.448 3.008 0.144 3.952 2.832 4.608 3.328 0.816 3.424 0.96 2.976 4.416-0.336 2.512 0.928 4.8 3.376 6.096 2.4 1.28 2.352 1.76 0.528 3.792-2.032 2.24-4.048 4.576-5.52 7.184-2.128 3.808-2.288 7.952-0.48 12.064 1.472 3.344 1.792 6.784 0.816 10.336-7.712 28.528-15.408 57.072-23.104 85.6-3.216 11.904-6.32 23.84-9.664 35.712-3.424 12.096-7.056 24.112-10.72 36.16-0.48 1.504-1.584 2.848-2.576 4.592zM186.176 226.528c-1.008 2.752-0.48 3.408 2.528 3.088-0.88-1.088-1.68-2.048-2.528-3.088z"></path>
<path d="M0 182.48c2.224-1.040 4.336-1.84 6.24-2.992 2.080-1.28 4-2.896 5.952-4.368 1.2-0.928 2.288-2.032 3.584-2.784 7.136-4.272 14.352-8.48 21.536-12.704 5.92-3.472 11.76-7.104 17.824-10.32 3.296-1.728 6.976-2.656 10.448-4.080 1.104-0.464 2.080-1.264 3.056-2 1.584-1.2 2.928-2.784 4.656-3.664 19.424-9.888 36.88-22.56 52.896-37.28 0.528-0.48 1.040-0.976 1.568-1.488 2.352-2.272 3.776-3.408 6.448-0.048 0.544 0.688 2.512 0.976 3.344 0.544 9.328-4.816 18.56-9.808 27.792-14.784 0.544-0.304 1.088-0.736 1.424-1.264 0.72-1.056 1.472-1.104 2.624-0.688 1.008 0.368 2.16 0.256 3.504 0.384 1.568 4.336 2.032 9.008-0.576 13.712-2.144 3.872-1.792 8.080-0.784 12.208 0.256 1.104 1.552 1.952 2.544 3.136-0.288 1.872-1.76 3.008-3.552 3.808-2.272 1.008-4.64 1.808-6.864 2.864-3.456 1.648-6.816 3.408-10.24 5.136-0.784 0.4-1.568 0.8-2.352 1.2-2.672 1.408-5.312 2.816-7.984 4.208-0.784 0.4-1.568 0.816-2.4 1.088-5.424 1.68-10.896 3.232-16.288 4.992-13.504 4.416-27.168 8.32-40.48 13.408-6.944 2.656-14.16 4.512-21.248 6.8-2.352 0.768-4.672 1.664-6.944 2.688-9.296 4.16-18.72 8.032-27.744 12.704-7.792 4.032-15.792 7.36-24 10.336-2.144 0.704-2.192 0.784-4-0.736z"></path>
<path d="M336.928 276.304c0.768-0.176 1.44-0.368 1.712-0.416 1.408 1.6 2.688 3.008 3.888 4.48 0.224 0.288 0.256 0.768 0.256 1.168 0.496 11.44 4.656 22.048 7.568 32.944 7.2 26.928 15.728 53.488 21.168 80.864 1.328 6.64 2.512 13.28 3.776 19.952-0.224 0.064-0.416 0.128-0.64 0.176-0.32-0.704-0.688-1.392-0.96-2.112-10.112-25.2-20.384-50.32-30.24-75.632-7.36-18.928-15.952-37.264-24.736-55.504-1.040-2.144-1.744-3.952 0.368-6.064 0.608-0.608 0.096-2.752-0.448-3.936-3.648-7.84-7.584-15.552-11.184-23.424-2.192-4.8-3.952-9.792-5.856-14.736-0.864-2.224-0.544-4 1.984-5.040 2.144-0.88 2.688-2.992 2.656-5.024-0.048-3.84-0.368-7.648-0.608-11.472-0.048-0.624-0.208-1.216-0.304-1.872 0.256-0.064 0.416-0.144 0.544-0.096 5.552 2.24 6.336 1.92 8.592-3.632 1.088-2.672 2.112-5.376 3.184-8.048 0.304-0.768 0.736-1.472 1.392-2.736 1.088 14.816 5.792 28.192 8.512 41.984 2.288 11.696 5.312 23.264 8.048 34.848 0.16 0.704 0.368 1.408 0.624 2.064 0.144 0.416 0.448 0.784 0.72 1.216z"></path>
<path d="M123.376 193.888c0.464 1.504 0.72 2.32 0.96 3.136 4.176 0.816 4.848 0.32 4.816-3.712-0.032-2.592 0.608-4.88 2.352-6.864 4.848-5.536 9.664-11.12 14.464-16.72 2.832-3.296 5.52-6.688 8.432-9.888 1.808-2 4.528-3.456 5.632-5.744 1.040-2.192 0.528-5.12 0.688-7.728 3.168 0.464 5.92 3.472 6.368 6.944 0.24 1.904 0.416 3.84 0.496 5.76 0.144 4.048 1.472 7.632 3.76 10.976 1.488 2.16 2.752 4.512 3.808 6.928 1.024 2.32 0.032 3.552-2.48 3.936-0.848 0.128-1.808 0.56-2.4 1.168-1.28 1.28-2.288 2.864-3.584 4.112-12.896 12.464-27.312 23.072-41.536 33.936-6.24 4.752-12.16 10-17.744 15.504-11.664 11.536-24 22.16-37.712 31.264-5.344 3.552-9.648 8.624-14.672 12.72-3.632 2.976-7.632 5.504-11.472 8.208-0.336 0.24-0.816 0.304-1.968 0.72 1.104-1.6 1.68-2.704 2.48-3.616 7.312-8.304 14.512-16.72 22.032-24.816 6.768-7.28 13.984-14.128 20.848-21.312 5.952-6.256 11.84-12.608 17.424-19.2 1.12-1.328 0.736-3.936 1.040-5.936 0.176-1.136 0.336-2.288 0.528-3.424 1.088 0.4 2.16 0.784 3.232 1.248 0.576 0.256 1.104 0.656 1.648 1.008 2.512 1.6 3.168 1.344 3.424-1.568 0.128-1.424 0.016-2.896-0.16-4.288-0.4-3.152 0.448-5.6 3.184-7.472 2.064-1.52 3.888-3.376 6.128-5.264z"></path>
<path d="M428.608 293.808c-11.872-17.696-27.968-30.704-41.2-46.272-9.536-11.232-17.92-23.424-26.672-35.296-4.512-6.128-8.704-12.496-13.040-18.768-0.4-0.576-0.848-1.424-1.424-1.568-3.008-0.736-3.344-3.168-4.176-5.6-0.848-2.448-2.352-4.736-3.888-6.864-0.56-0.784-2.032-1.104-3.136-1.264-4.96-0.736-6.608-4.768-3.504-8.912 1.040-1.424 2.208-2.752 3.264-4.176 1.2-1.6 2.32-3.248 3.536-4.88 1.136-1.552 1.36-2.816-0.32-4.352-2.064-1.888-1.264-7.824 1.024-9.472 1.344-0.96 5.2-0.080 6.080 1.392 1.024 1.728 1.952 3.504 3.072 5.184 1.472 2.16 3.104 4.208 4.608 6.368 1.040 1.504 2.24 2.992 2.912 4.672 1.632 4.112 4.528 7.312 7.12 10.752 1.248 1.648 2.208 3.712 2.608 5.744 0.784 3.92 1.792 7.632 4.656 10.608 0.976 1.024 1.744 2.288 2.544 3.488 6.624 10.032 13.088 20.208 19.888 30.112 7.056 10.288 12.736 21.312 17.792 32.688 2.928 6.608 6.176 13.008 10.528 18.816 3.696 5.040 5.952 10.832 7.712 17.584z"></path>
<path d="M331.376 139.824c2.416 1.008 2.816 2.672 2.384 4.512-0.608 2.688-1.424 5.312-2.24 8.288-1.904-1.52-2.976-3.136-2.528-5.12 0.56-2.608 1.552-5.104 2.384-7.68z"></path>
</svg>
