<!-- Generated by IcoMoon.io -->
<svg version="1.1" xmlns="http://www.w3.org/2000/svg" width="512" height="512" viewBox="0 0 512 512">
<title>monsters-of-order</title>
<g id="icomoon-ignore">
</g>
<path d="M407.392 352.096c-4.608-2.112-8.4-4.896-12.464-5.488-6.8-1.008-12.736 0.976-11.424 9.824 1.824 12.16 4.64 24.208 6.016 36.4 1.472 9.568 2.32 20.592 2.32 31.824 0 2.544-0.048 5.072-0.128 7.6l0.016-0.368c-1.296 18.768-11.92 31.536-29.888 38.24-19.216 7.168-37.776 4.032-51.76-9.168-7.728-7.312-9.504-21.184-13.456-32.144-1.248-3.472-0.88-7.472-3.024-11.2-4.928 12.336-3.712 24.864 0 37.072 4.048 13.232 12.704 22.080 27.248 23.456 12.928 1.184 25.904 2.144 39.024 3.232-15.072 22.896-49.84 33.952-73.36 22.672-5.456-2.656-11.84-7.936-13.232-13.232-3.92-14.016-7.808-32.192-10.784-50.688l-0.416-3.12c-1.136-6.624-0.192-13.584-0.192-20.384l-3.488-0.576c-1.28 2.032-2.272 4.4-2.88 6.912l-0.032 0.16c-0.608 10.592-2.112 21.184-0.8 31.776 5.296 41.488-37.904 66.192-75.728 54.304-10.192-3.184-17.872-14.304-25.968-23.408 27.424 7.648 52.256 5.504 71.904-15.52 10.384-11.072 11.552-39.168 2.432-54.992 0 7.072 0 14.112 0 21.184-0.208 31.776-39.392 56.192-68.032 42.368-32.4-15.728-45.936-46.544-36-81.344 2.256-7.248 4.4-16.368 6-25.664l0.192-1.376c3.488-21.92-1.056-25.872-22.768-19.888-0.848-2.384-1.344-5.12-1.344-7.984 0-8.72 4.576-16.352 11.472-20.656l0.096-0.064c4.848-2.864 10.672-4.544 16.896-4.544 3.12 0 6.128 0.416 8.992 1.216l-0.24-0.048c12.336 4 19.76 14.72 18.912 28.8-1.056 17.6-2.96 35.136-3.968 52.736-0.192 2.32-0.288 5.008-0.288 7.728 0 5.616 0.448 11.12 1.328 16.496l-0.080-0.592c1.424 7.872 8.224 13.776 16.416 13.776 2.048 0 4.016-0.368 5.824-1.040l-0.112 0.032c9.584-3.040 18.064-17.424 14.16-25.264-1.216-2.432-5.296-3.6-8.48-4.88-5.456-2.272-11.072-4.16-19.344-7.2 20.56-14.928 18.080-34.24 16.624-52.96-1.728-21.872-18.176-31.936-32.4-39.376 2.64-26.48 4.528-50.736 7.44-74.912 5.488-45.296 31.264-75.968 74.576-85.952 44.288-10.16 90.752 3.152 111.392 54.592 8.864 21.68 14.144 46.816 14.448 73.136v0.128c0 4.848-0.688 10.592 1.536 14.32 8.448 14.352-0.72 19.648-10.928 26.48-17.552 11.52-26.992 47.84-17.456 65.616 3.024 5.632 8.4 10.016 14.16 16.656-3.76 2.144-8.368 6.304-13.664 7.472-10.112 2.224-9.616 9.456-8.608 16.256 1.12 7.648 6.56 10.88 14.512 9.856 11.52-1.504 19.008-9.632 18.528-23.36-0.816-19.728-3.728-39.344-4.4-59.072 0.064-7.296 2.32-14.032 6.144-19.632l-0.080 0.128c8.368-12.608 21.36-15.728 34.432-10.016 10.848 4.336 17.152 18.8 14.16 33.632zM266.832 333.056c8.688 13.92 15.888 24.656 22.256 35.952 8.336 15.088 22.608 24.576 33.312 22.48-5.696-10.592-15.12-21.184-16.656-32.592-2.224-16.768-12.064-27.248-19.632-37.552-4.208 2.656-7.632 4.528-11.008 6.592zM194.24 392.24c10.592-0.448 24.24-10.304 30.624-22.048 6.032-11.152 7.936-25.472 22.352-30.896 1.168-1.088 1.888-2.624 1.888-4.336 0-0.4-0.048-0.8-0.112-1.184v0.032c-1.344-1.952-3.12-3.504-5.216-4.512l-0.080-0.032c-4.32-2.656-8.816-5.296-13.744-7.936-5.296 7.024-13.232 15.072-17.92 24.736-7.2 14.848-12.048 30.96-17.76 46.208zM257.024 170.704c-19.936 0-36.16 15.536-35.808 34.416 0.336 17.472 17.68 35.088 35.872 33.712 18.976-1.424 35.712-13.008 36.56-33.104 0.8-19.376-15.68-34.976-36.608-35.024zM277.632 272.72l0.56 6.016c11.968 1.008 23.824 2.272 35.888 2.944 7.6 0.4 15.36-1.424 13.856-11.152-1.328-8.608-7.936-14.992-17.024-12.24-11.488 3.488-22.208 9.504-33.28 14.432zM237.52 277.808l0.768-5.584c-10.912-5.024-21.472-11.040-32.8-14.768-1.488-0.64-3.232-0.992-5.040-0.992-7.088 0-12.88 5.584-13.216 12.592v0.032c-0.416 3.52 6.48 11.2 10.272 11.328 13.296 0.448 26.656-1.536 40.032-2.592zM234.544 368.016h46.512c-7.808-12.208-37.536-12.688-46.512 0z"></path>
<path d="M126.752 60.944c16.784 10.16 33.632 20.224 50.32 30.496s42.88 1.664 49.712-17.296c8.528-23.584 16.704-47.296 26.16-74.144 9.024 22.32 18.336 41.568 24.56 61.776 5.456 17.744 17.584 26.816 33.392 32.384 3.952 1.376 10.064-0.368 14.080-2.64 18.96-10.592 37.568-22 56.288-33.104l2.656 2.88c-7.104 15.888-13.232 32.192-21.552 47.504-6.864 12.864 1.856 20.448 8.288 27.776 3.184 3.6 11.616 4.64 17.216 3.76 29.968-4.768 59.776-10.592 91.056-13.232-3.52 2.8-6.944 5.744-10.592 8.448-17.68 13.232-35.712 25.92-52.976 39.712-4.848 3.808-11.36 10.592-10.592 15.312 1.424 10.592 5.296 20.544 19.44 23.056 26 4.864 48.688 11.216 70.528 19.328l-2.928-0.96-75.296 26.736c1.056 5.296 2.032 10.112 3.28 16.288h-45.856c-0.512-28.912-7.936-55.984-20.688-79.76l0.464 0.944c-35.392-67.6-111.232-83.568-169.136-34.416-28.24 24.048-39.728 57.568-44.32 93.44-2.64 20.656-1.952 20.736-22.688 20.736h-18.224c3.232-12.688-5.296-14.96-13.248-17.92-18.88-6.88-37.648-14.080-60.176-22.528 23.264-7.2 42.24-14.608 61.92-18.528 12.368-2.64 12.896-11.2 14.16-19.008 0.848-5.296-1.328-13.616-5.296-16.816-19.408-15.888-39.856-30.608-59.904-45.76-3.344-2.64-6.592-5.296-12.928-10.16 34.88 6.176 65.728 11.232 96.384 17.296 9.136 1.808 14.688-0.288 20.464-7.36s7.28-12.944 3.024-21.344c-6.224-12.128-11.312-24.864-16.736-37.392-1.648-3.792-2.912-7.76-4.336-11.648z"></path>
<path d="M285.904 205.104c-0.272 15.52-11.92 26.24-28.512 26.24-15.888 0-27.744-11.616-27.552-27.136 0.208-15.888 12.448-26.64 29.856-26.048 0.032 0 0.064 0 0.096 0 14.432 0 26.128 11.696 26.128 26.112 0 0.304 0 0.592-0.016 0.896z"></path>
</svg>
