<!-- Generated by IcoMoon.io -->
<svg version="1.1" xmlns="http://www.w3.org/2000/svg" width="512" height="512" viewBox="0 0 512 512">
<title>monsters-of-order</title>
<g id="icomoon-ignore">
</g>
<path d="M211.6 501.104c-8.544-6.224-21.376-17.488-28.752-25.264-7.376-8.16-14.768-14.384-16.32-14.384-5.056 0-3.504 10.88 2.72 24.48 5.44 10.88 3.504 9.712-12.432-7.776-10.88-11.664-30.304-41.584-45.856-70.736-26.032-48.576-36.912-61.008-36.912-42.352 0 17.872-8.544-0.384-16.32-34.192-6.224-28.752-7.376-43.92-5.824-89.376l1.552-54.4 17.488-36.912c22.144-45.856 43.92-74.608 68-89.776 60.24-38.48 87.44-50.128 135.632-57.52 29.152-4.272 33.040-4.272 49.36 3.104 9.712 4.272 19.424 11.664 21.76 15.936 5.44 10.096 5.44 10.096-16.704 0-20.592-8.944-34.192-6.608-48.576 7.776-4.656 4.656-12.832 8.16-18.272 8.16-11.664 0-29.152 17.104-41.584 40.416-9.712 18.656-11.664 71.12-3.104 81.616 8.544 10.096 14.384 7.376 19.040-8.544 7.776-24.864 30.32-50.128 57.52-63.344 22.544-11.264 26.816-12.048 54.8-10.496 45.856 2.336 66.448 12.832 87.056 44.688 22.928 35.36 27.984 56.736 23.312 100.256-2.336 19.424-3.888 41.2-3.504 48.96s-2.336 18.656-5.824 24.096c-5.44 8.544-8.544 9.712-19.424 7.776-10.496-1.552-15.152 0-20.992 6.224-10.096 10.496-17.488 36.144-14.768 48.192 3.104 12.432-4.272 39.632-15.936 59.072l-9.328 15.552 2.336-26.032c2.72-27.584 1.936-29.152-10.496-22.544-6.608 3.888-7.376 2.72-7.376-7.776 0-13.6-5.44-15.152-12.048-3.104l-4.272 8.16-6.608-8.544c-8.944-11.664-12.048-6.992-12.048 17.872 0 11.264-1.552 20.592-3.504 20.592-6.224 0-12.832-37.696-10.096-57.12 2.336-16.704 1.168-20.592-9.328-35.36-11.664-15.552-24.096-20.992-29.536-12.432-4.272 6.992-9.328 4.272-19.824-11.264-8.544-13.216-9.328-16.704-5.44-24.096 5.824-10.096 5.824-38.080 0.384-43.52-7.376-7.376-24.864-3.888-33.808 6.608-17.488 20.208-15.552 71.504 4.656 126.304 5.056 13.6 8.544 25.648 7.776 26.432s-8.16-10.496-15.936-24.864c-23.712-43.136-33.040-49.36-33.040-21.76 0 21.76 11.264 59.072 26.032 87.824 7.776 14.384 12.832 27.584 11.264 28.752-1.168 1.552-8.544-3.504-16.32-10.88l-13.984-13.216 6.224 15.152c3.504 8.544 12.832 22.928 20.992 32.64 17.872 20.992 25.648 31.872 23.312 31.872-1.168 0-8.944-5.056-17.104-10.88zM355.008 277.648c-2.72-17.872-8.544-17.104-15.152 1.936-4.656 13.6-4.272 14.384 3.504 15.552 12.432 2.336 14.384-1.168 11.664-17.488zM411.344 254.72c5.44-5.44 6.224-20.992 1.552-24.096-1.936-1.168-10.496 0-19.424 2.336-11.664 2.72-16.32 6.224-16.32 11.264 0 12.832 24.48 20.208 34.192 10.496zM318.080 250.832c12.048-12.048-3.504-26.432-28.752-26.432-10.096 0-12.432 10.112-5.44 23.712 4.656 8.544 26.432 10.496 34.192 2.72z"></path>
</svg>
