<!-- Generated by IcoMoon.io -->
<svg version="1.1" xmlns="http://www.w3.org/2000/svg" width="512" height="512" viewBox="0 0 512 512">
<title>monsters-of-order</title>
<g id="icomoon-ignore">
</g>
<path d="M507.856 23.072c0 7.936 0 15.888 0 23.824-0.544 1.088-1.504 2.16-1.52 3.264-0.112 5.968-0.112 11.952 0.064 17.92 0.064 1.712 0.944 3.424 1.456 5.12 0 4.816 0 9.616 0 14.432-1.216 1.92-2.768 3.712-3.568 5.776-1.152 3.008-3.072 4.16-6.16 4.128-5.008-0.048-10-0.048-14.992 0.064-2.272 0.048-5.232 1.36-6.672 0.352-3.664-2.56-7.376-0.352-10.992-0.816-4.128-0.544-8.544 1.744-13.040 0.544-0.544-0.144-1.296 0.016-1.808 0.336-3.344 1.84-6.512 2.464-9.488-0.704-0.4-0.416-1.296-0.512-1.968-0.496-5.168 0.048-10.32 0.192-15.488 0.256-5.328 0.064-10.64 0.064-15.968 0.112-5.232 0.048-8.944 2.464-11.984 6.736-3.168 4.464-6.832 8.576-10.544 12.608-10.032 11.024-20.224 21.888-30.288 32.896-3.312 3.616-6.432 7.408-9.92 11.392 1.152 0.448 1.664 0.592 2.096 0.816 4.672 2.608 9.168 2.656 13.936-0.064 1.168-0.688 4.56 0.016 5.056 1.008 1.84 3.664 4.88 4.864 8.384 5.152 13.392 1.152 26.832 2.144 40.24 3.072 2.048 0.144 4.128-0.16 6.208-0.416 2.96-0.352 5.92-0.992 8.88-1.216 10.288-0.8 20.768 2.592 30.96-1.296 0.368-0.144 0.816 0 1.248-0.016 7.328-0.688 14.688-1.344 22.016-2.016 0.208-0.016 0.4-0.112 0.608-0.144 4.112-0.416 8.288-1.456 12.336-1.088 2.704 0.256 6.224 1.856 7.536 3.968 1.744 2.8 1.952 6.688 2.272 10.176 0.208 2.304-0.736 4.704-0.752 7.072-0.16 10.128-0.24 20.224-0.144 30.352 0.016 1.248 1.296 2.448 2 3.68 0 2.096 0 4.176 0 6.272-6.512 9.792-13.056 19.568-19.472 29.44-1.168 1.808-2.464 2.496-4.576 2.512-7.008 0.064-13.984 0.288-20.96 0.544-13.744 0.496-27.456 1.040-41.2 1.52-2.768 0.096-5.552 0.016-9.424 0.016 1.872 2.272 4 3.712 4.352 5.504 1.168 5.984 5.92 8.864 9.776 12.608 2.24 2.192 4.16 4.672 6.272 6.976 0.448 0.496 1.2 1.168 1.712 1.104 2.704-0.352 3.296 1.36 3.92 3.376 0.368 1.216 1.12 2.448 2 3.408 2.592 2.944 6.016 4.88 8.976 7.312 4.208 3.456 7.424 8.144 11.072 12.304 1.104 1.248 2.112 2.592 3.36 3.68 2.544 2.256 5.376 4.208 7.792 6.576 2.624 2.592 4.832 5.616 7.376 8.32 7.376 7.776 14.864 15.44 22.24 23.216 0.736 0.752 1.36 1.968 1.36 2.976 0.144 15.44 0.16 30.848 0.24 46.288 0.048 8.944-0.064 17.92 0.304 26.848 0.192 4.624 1.552 9.216 1.904 13.856 0.4 5.28 0.24 10.592 0.368 15.904 0.208 7.488 0.592 14.992 0.608 22.48 0 1.504-0.816 3.568-1.968 4.432-6.016 4.48-12.24 8.688-18.448 12.88-0.768 0.512-1.968 0.56-2.96 0.512-7.168-0.464-14.304-1.312-21.472-1.456-8.016-0.16-16.064-0.144-24.048 0.608-7.424 0.704-14.736 2.752-22.16 3.664-7.312 0.896-14.736 1.008-21.072 5.552-0.592 0.416-1.616 0.24-2.448 0.24-23.536-0.064-47.056-0.368-70.528 2.144-8.224 0.864-16.656 0.448-24.928-0.096-9.776-0.608-19.472-2.016-29.232-3.008-3.312-0.336-6.656-0.688-9.968-0.656-11.888 0.016-23.776 0.192-35.664 0.336-17.712 0.208-35.456 0.496-53.168 0.656-4.48 0.048-8.992 0.208-13.44-0.288-7.968-0.896-15.84-2.8-23.792-3.248-9.984-0.56-20.016-0.24-30.016 0.016-8.32 0.208-16.608 1.152-24.896 1.296-13.856 0.256-27.728 0.016-41.552 0.256-5.632 0.096-11.632-1.040-16.768 3.728-2.672-4.352-7.328-6.624-6.96-13.088 0.608-10.272-0.16-20.624-0.56-30.96-0.096-2.32-1.296-4.576-1.488-6.912-0.544-6.72-0.752-13.488-1.2-20.208-0.256-4.048-0.816-8.064-1.008-12.096-0.192-3.856 0.816-8.032-0.384-11.504-2.144-6.176-1.504-12.352-1.6-18.56-0.016-2.352 0.512-4.72 0.864-7.088 0.288-1.92 0.944-3.856 0.96-5.776 0.112-6.432 0.048-12.88 0.048-19.2 7.088-1.904 11.504-7.408 16.816-11.44 3.776-2.896 6.624-7.056 9.824-10.688 5.216-5.936 10.48-11.84 15.504-17.904 6.112-7.376 12.032-14.896 18-22.368 5.056-6.32 9.84-12.848 15.152-18.96 3.376-3.872 7.568-7.072 11.248-10.688 3.072-3.008 5.968-6.208 8.944-9.296-3.904 0.352-5.504-1.872-7.168-4.608-1.872-3.072-5.216-4-8.72-4.080-1.76-0.048-3.552 0.064-5.312 0.064-16.288 0-32.56-0.016-48.848-0.048-5.632 0-11.28 0.016-16.912-0.064-1.456-0.016-3.296 0.288-3.6-2.048-0.368-2.976-1.136-5.968-1.2-8.944-0.336-11.984-0.544-23.984-0.64-35.984-0.096-14.048-0.016-28.096-0.016-42.704 0.64-0.144 2-0.704 3.376-0.752 5.104-0.16 10.192-0.16 15.312-0.192 6.128 0 12.256-0.048 18.4 0.064 5.28 0.096 10.576 0.56 15.888 0.56 5.504 0 10.976-0.4 16.464-0.608 12.608-0.496 25.2 1.216 37.824 0.048 4.416-0.416 8.944 0.112 13.408 0.352 4.608 0.24 9.184 0.704 13.76 0.944 1.312 0.064 2.656-0.336 3.968-0.512 0.8-0.112 1.6-0.4 2.368-0.352 2.672 0.192 5.376 0.752 8.032 0.656 4.928-0.16 9.84-0.656 14.752-1.040 0.56-0.048 1.12-0.24 2.56-0.56-19.872-22.864-39.328-45.264-58.832-67.712-0.896 0.56-1.616 1.040-2.464 1.568-2.56-3.952-5.968-6.72-10.48-6.864-5.68-0.144-11.44-0.896-17.056 1.216-2 0.752-4.304 0.896-6.48 0.912-7.52 0.112-15.008 0.256-22.528 0.016-8.128-0.24-16.448 1.808-24.384-1.712-0.8-0.352-1.856-0.144-2.8-0.144-4.912 0-9.824 0.096-14.704 0-4.352-0.064-5.776-1.52-5.808-5.68-0.016-6.256 0.144-12.528 0.016-18.768-0.4-15.712 0.992-31.488-1.44-47.152-0.464-2.944-0.544-5.936-0.752-8.48 4.96-2.816 9.776-3.152 14.736-2.8 1.008 0.064 2.096-0.144 3.072-0.4 4.608-1.152 9.216-2.4 13.808-3.52 0.688-0.16 1.456-0.048 2.192-0.064 8.24-0.048 16.496 0.144 24.72-0.16 6.384-0.256 12.736-1.568 19.104-1.648 21.92-0.24 43.84-0.144 65.728-0.048 1.104 0 2.512 0.848 3.264 1.744 2.464 2.912 4.432 6.272 7.072 9.024 5.92 6.224 12.080 12.256 18.256 18.224 2 1.92 4.272 4.32 6.736 4.768 2.864 0.544 4.912 2.416 5.36 4.080 1.168 4.48 4.816 6.56 7.52 9.584s6.784 4.8 8.24 9.072c0.4 1.152 1.792 2.672 2.8 2.752 3.616 0.208 4.88 3.216 6.96 5.216 1.616 1.568 2.8 3.568 4.32 5.264 3.664 4.064 7.408 8.080 11.136 12.080 2.624 2.8 5.264 5.616 8.064 8.24 1.44 1.36 3.552 2.096 4.816 3.552 3.968 4.576 4.96 4.928 10.288 2.4 0.304 3.456 1.616 5.232 5.152 2.944 0.208-0.144 0.608-0.016 0.912 0 7.312 0.464 11.792-2.304 15.248-8.784 2.208-4.128 4.8-8.032 10.128-8.896 1.408-0.24 2.8-1.392 3.904-2.448 5.936-5.712 11.728-11.584 17.712-17.248 3.856-3.648 8.192-6.784 11.984-10.528 5.616-5.552 10.048-12.224 16.768-16.72 2.544-1.712 4.608-4.176 6.688-6.48 1.808-2 3.408-4.208 5.008-6.416 4.272-5.872 8.832-11.584 12.64-17.744 4.064-6.608 5.808-7.536 12.96-4.624 0.496 0.192 0.912 0.544 1.44 0.64 2.304 0.512 4.608 1.264 6.928 1.408 11.088 0.64 22.176-0.16 33.328 1.408 12.048 1.712 24.448 2.576 36.576-0.736 0.8-0.208 1.664-0.16 2.496-0.16 13.44 0 26.88 0 40.784 0 2.256 3.856 4.72 8.192 7.28 12.48 1.296 2.224 2.752 4.32 4.16 6.464zM151.392 360.416c-1.872 2.352-3.52 4.48-5.216 6.56-1.872 2.272-2.496 4.816-1.456 7.616 1.104 2.912 3.36 4.4 6.464 4.704 4.464 0.448 8.784 0.464 13.296-0.608 3.504-0.848 7.408 0.064 11.136 0.096 13.248 0.096 26.48 0.256 39.728 0.192 8.432-0.048 17.008 0.336 25.28-0.944 9.088-1.392 18-1.952 26.944 0.048 12.48 2.768 25.12 1.568 37.68 1.6 4.528 0.016 9.072-1.168 13.6-1.264 15.008-0.352 30.016-0.448 45.040-0.704 4.368-0.064 7.664-2.048 9.248-6.224 1.568-4.16 0.448-7.76-2.752-10.8-0.608-0.592-1.248-1.504-1.264-2.272-0.064-5.072-2.464-8.624-6.608-11.376-3.008-2-6.384-3.872-8.544-6.624-4.816-6.080-9.232-12.496-13.312-19.104-5.408-8.736-11.68-16.592-19.52-23.28-7.76-6.624-15.136-13.696-22.608-20.656-3.104-2.896-6.432-5.68-8.816-9.12-5.36-7.68-9.824-15.968-16.496-22.72-5.552-5.584-10.848-7.536-17.168-3.344-3.104 2.064-5.728 4.016-6.656 7.792-0.256 1.056-0.944 2.112-1.696 2.96-2.4 2.672-4.912 5.28-7.408 7.888-9.52 9.888-19.024 19.776-28.56 29.648-6.064 6.288-12.224 12.496-18.176 18.912-2.096 2.24-3.552 5.072-5.584 7.36-1.504 1.696-3.648 2.816-5.2 4.464-4.272 4.56-8.336 9.296-12.592 13.888-1.952 2.112-4.272 3.872-6.208 6.016-2.848 3.152-5.424 6.528-8.192 9.728-2.656 3.056-5.456 6.016-8.496 9.344 1.648 0.112 2.72 0.192 4.112 0.24z"></path>
</svg>
