<!-- Generated by IcoMoon.io -->
<svg version="1.1" xmlns="http://www.w3.org/2000/svg" width="512" height="512" viewBox="0 0 512 512">
<title>monsters-of-order</title>
<g id="icomoon-ignore">
</g>
<path d="M154.832 288.384c-1.856-4.224-4.944-8.208-9.056-9.792-5.488-2.112-15.216 0.512-22.8 0-12.672-0.848-39.28-2.528-53.216-5.072-10.512-1.904-21.408-4.368-30.416-10.128-10.56-6.752-27.456-22.816-32.944-30.416-2.96-4.112-3.808-15.2 0-15.2s15.2 10.976 22.816 15.2c7.264 4.032 14.56 8.992 22.8 10.128 12.24 1.696 35.904 1.696 50.688 0 13.024-1.488 29.136-5.92 38.016-10.128 6.464-3.088 12.672-9.712 15.2-15.2 2.48-5.376 2.352-12.32 0-17.744-2.96-6.816-12.128-15.2-17.744-23.12-7.184-10.144-19.424-26.768-25.344-37.696-4.704-8.688-6.752-20.272-10.144-27.872-2.768-6.224-9.6-10.944-10.128-17.744-0.848-10.56 1.696-45.616 5.072-45.616s8.448 35.056 15.2 45.616c5.552 8.688 17.52 11.024 25.344 17.744 8.864 7.6 16.576 21.184 27.872 27.872 11.408 6.752 29.984 10.56 40.544 12.672 7.456 1.488 20.48 7.232 22.8 0 3.808-11.824 0-70.96 0-70.96s7.104-28.592 15.2-40.544c8.864-13.088 34.208-39.28 38.016-38.016s-13.296 29.696-15.2 45.616c-2.528 21.12-2.528 63.776 0 81.088 1.328 9.040 10.144 17.744 15.2 22.8 4 4 9.536 7.6 15.2 7.6 6.336 0 16.4-2.8 22.816-7.6 8.448-6.336 16.88-22.224 27.936-30.416 11.408-8.448 25.664-17.456 40.496-20.272 17.728-3.376 63.776-4.64 65.888 0s-38.016 15.264-53.216 27.872c-15.2 12.624-29.152 36-38.016 47.824-5.52 7.376-13.872 16.32-15.152 23.12-1.168 6.32 5.024 13.52 7.552 17.744 1.84 3.072 4.096 6.832 7.6 7.6 11.408 2.528 43.92 4.64 60.816 7.6 13.728 2.4 28.32 3.456 40.544 10.128 13.936 7.6 43.088 31.248 43.088 35.472s-28.416-8.512-43.088-10.128c-15.2-1.696-33.36-1.696-48.144 0-13.84 1.584-30.416 6.336-40.544 10.128-7.456 2.8-16.896 7.184-20.272 12.672s-1.264 13.936 0 20.272c1.264 6.304 4.032 12.384 7.6 17.744 7.6 11.408 29.152 33.792 38.016 50.688 8.192 15.616 12.672 38.432 15.2 50.688 1.536 7.44 1.264 17.312 0 22.8-0.944 4.112-5.264 13.648-7.6 10.144-2.528-3.808-2.56-22.864-7.6-32.944-5.488-10.976-15.68-23.024-25.344-32.944-11.872-12.192-34.112-32.624-45.936-40.224-7.168-4.608-18.32-5.392-25.024-5.392-5.376 0-11.408 2-15.2 5.392s-6.576 9.408-7.6 14.88c-1.264 6.704 0.848 17.312 0 25.344-0.816 7.744-3.312 15.216-5.072 22.8-2.528 10.976-4.64 29.984-10.144 43.088-5.44 12.96-16.464 27.872-22.8 35.472-3.904 4.672-13.936 12.672-15.2 10.128s7.008-16.544 7.6-25.344c1.264-18.576 0-86.16 0-86.16s-4.64-18.64-7.6-25.344c-2.416-5.488-6.336-11.504-10.128-14.88-3.424-3.056-8.080-5.392-12.672-5.392-5.072 0-12.48 2.144-17.744 5.392-5.488 3.376-10.352 9.712-15.2 14.88-5.488 5.856-10.56 14.88-17.744 20.272-8.448 6.336-22.384 13.088-32.944 17.744-9.776 4.304-19.728 10.144-30.416 10.144-11.824 0-40.544-6.336-40.544-10.144s28.72-6.336 40.544-12.672c11.632-6.224 21.92-15.232 30.416-25.344 8.864-10.56 17.312-27.872 22.8-38.016 3.968-7.312 8.448-15.632 10.144-22.816 1.168-4.96 1.536-10.848 0.912-15.808 3.712 11.312 10.064 21.968 17.952 30.8 23.712 26.496 45.888 32.192 80.48 32.192 25.952 0 58.352-8.64 74.048-32.192 9.984-14.976 13.312-33.728 16.096-51.504 2.656-16.96 4.72-34.992 0-51.504-7.808-27.296-43.68-56.928-70.832-61.168-18.512-2.896-40.352-6.448-57.952 0-14.88 5.456-32.512 19.408-41.856 32.192-12.608 17.264-16.096 36.816-19.312 57.952-1.472 11.856-3.008 24.224-0.64 35.904zM176.64 250.88c2.56-16.816 5.328-32.352 15.36-46.080 7.44-10.176 21.456-21.264 33.28-25.6 14-5.136 31.36-2.304 46.080 0 21.584 3.376 50.112 26.928 56.32 48.64 3.744 13.12 2.112 27.472 0 40.96-2.208 14.128-4.864 29.056-12.8 40.96-12.48 18.736-38.24 25.6-58.88 25.6-27.504 0-45.136-4.528-64-25.6-7.136-7.968-12.656-17.808-15.36-28.16-2.592-9.904-1.264-20.56 0-30.72z"></path>
</svg>
