<!-- Generated by IcoMoon.io -->
<svg version="1.1" xmlns="http://www.w3.org/2000/svg" width="512" height="512" viewBox="0 0 512 512">
<title>monsters-of-order</title>
<g id="icomoon-ignore">
</g>
<path d="M475.856 1.008c-4.752 4.912-9.792 9.584-14.224 14.768-14.144 16.464-28.032 33.152-42.064 49.712-6.016 7.088-12.208 14.016-18.224 21.104-0.912 1.088-1.696 2.448-2.016 3.824-0.72 3.088 0.416 4.416 3.632 4.432 6.512 0.048 13.040-0.080 19.536 0.016 1.632 0.016 3.232 0.736 4.848 1.136-0.688 1.504-1.024 3.36-2.128 4.448-5.888 5.872-11.712 11.84-18.032 17.248-14.768 12.64-29.824 24.992-44.752 37.456-0.128 0.112-0.288 0.224-0.384 0.352-5.344 5.968-5.936 3.904-10.304 0.368-6.816-5.52-13.664-10.992-21.568-14.944-1.104-0.56-2.080-1.44-3.536-2.448 5.712-4.896 11.12-9.456 16.464-14.080 2.288-2 4.512-4.080 6.608-6.272s1.696-3.712-1.168-4.384c-2.352-0.56-4.784-0.8-7.168-1.072-1.712-0.192-3.504-0.016-5.2-0.352-0.864-0.176-1.984-0.928-2.288-1.696-0.224-0.544 0.496-1.776 1.136-2.32 3.536-3.088 7.168-6.048 10.784-9.040 10.88-9.040 21.68-18.192 32.64-27.136 30.032-24.544 59.36-50.064 93.104-69.696 1.168-0.688 2.224-1.6 3.328-2.416 0.352 0.304 0.688 0.656 1.040 0.992z"></path>
<path d="M324.512 188.288c-1.392 1.28-2.384 2.368-3.536 3.232-10.128 7.632-20.272 15.216-30.432 22.784-1.296 0.976-2.864 2.048-2.112 3.696 0.496 1.088 2.064 2.048 3.328 2.32 10.512 2.256 21.072 4.32 31.616 6.48 1.696 0.352 3.344 0.896 4.992 1.408 3.152 0.992 3.6 2.528 1.232 4.8-7.52 7.232-14.8 14.736-22.752 21.424-14.816 12.464-30.368 24.048-44.992 36.768-9.968 8.64-21.024 15.6-31.68 23.232-0.624 0.464-1.328 0.896-1.824 1.472-1.168 1.392-0.528 2.96 1.232 3.232 0.432 0.064 0.864 0.048 1.296 0.016 10.928-0.656 21.84-1.296 32.768-1.984 2.128-0.128 4.752-0.976 5.824 1.52s-1.584 3.52-3.056 4.784c-30.368 26.112-60.864 52.080-91.072 78.368-8.064 6.992-15.376 14.832-22.88 22.448-0.928 0.96-1.328 2.736-1.328 4.144 0 0.48 1.84 1.264 2.928 1.44 7.104 1.216 14.208 2.304 21.328 3.44 1.328 0.224 2.656 0.432 3.968 0.656 0.080 0.304 0.176 0.624 0.256 0.928-44.544 25.12-89.072 50.208-133.616 75.328-0.128-0.144-0.256-0.288-0.384-0.432 0.176-0.432 0.32-0.896 0.56-1.296 17.712-30.816 33.024-62.816 48-94.992 3.84-8.256 8.32-16.208 12.56-24.272 0.416-0.8 1.104-1.456 2.256-2.016 0.048 0.8 0.112 1.6 0.112 2.416 0.016 6.432-0.016 12.864 0.080 19.296 0.016 1.2 0.608 2.384 0.928 3.584 1.28-0.56 2.832-0.848 3.776-1.76 12.016-11.424 23.856-23.072 35.984-34.368 4.688-4.368 10-8.064 15.040-12.080 0.736-0.592 1.6-1.136 2.112-1.888 0.432-0.656 0.768-1.76 0.48-2.368-0.288-0.56-1.472-1.104-2.144-0.992-10.080 1.712-19.792-1.808-29.744-2.064-4.784-0.128-9.536-0.224-14.32-0.368-1.088-0.048-2.176-0.24-4.048-0.432 2.56-2.432 4.448-4.56 6.656-6.32 23.2-18.64 44.192-39.696 65.792-60.112 9.968-9.424 20.352-18.416 30.544-27.616 0.592-0.528 1.328-0.96 1.696-1.6 0.544-0.992 1.104-2.144 1.088-3.216 0-0.384-1.712-1.088-2.608-1.040-6.656 0.416-13.296 1.104-19.952 1.44-6.416 0.32-12.848 0.368-19.248 0.352-0.896 0-2.304-0.928-2.544-1.712-0.224-0.688 0.72-1.936 1.392-2.688 0.736-0.832 1.808-1.344 2.688-2.048 22.816-17.904 45.584-35.856 68.432-53.712 5.952-4.656 12.128-9.024 18.192-13.52 0.352-0.256 0.656-0.56 0.992-0.848 5.52-4.512 11.040-9.056 16.592-13.536 2.8-2.256 6.368-2.416 9.712-0.288 3.152 2.016 6.064 4.368 9.168 6.432 4.912 3.232 9.936 6.352 14.88 9.52 1.104 0.688 2.224 1.536 3.76 2.656z"></path>
<path d="M256.096 512c-0.48-5.088-0.8-10.176-1.456-15.232-0.928-7.472-2.304-14.928-3.104-22.416-1.648-15.28-2.896-30.608-4.656-45.888-1.376-11.792-3.296-23.536-4.976-35.312-0.080-0.608-0.32-1.28-0.144-1.808 2.32-7.056-0.56-14.144 0.144-21.2 0.176-1.776-0.96-2.864-2.736-3.232-2.256-0.464-4.48-0.992-7.264-1.632 4.624-3.904 8.736-7.6 13.152-10.976 1.072-0.8 2.992-0.672 4.512-0.608 9.904 0.384 19.84 0.352 29.632-1.28 4.752-0.8 9.552-1.84 14.080-3.52 6.080-2.256 12.096-4.896 17.792-7.968 20.96-11.36 37.856-26.592 47.552-49.152 4.368-10.176 6.816-20.272 6-31.28-0.8-10.64-1.232-21.312-1.952-31.984-0.128-1.984-0.528-4.016-1.264-5.84-3.84-9.648-7.088-19.664-11.968-28.768-9.088-16.976-23.712-28.288-40.896-36.464-2.352-1.104-4.544-2.592-6.96-3.456-2.976-1.088-6.112-1.888-9.216-2.496-9.968-1.936-20.032-4.144-30.224-3.328-21.936 1.744-42.96 6.496-60.224 21.472-6.352 5.504-11.952 11.648-16.032 19.040-4.672 8.4-8.752 17.232-14.16 25.136-7.184 10.512-7.76 22.32-8.064 34.112-0.256 9.696 0.432 19.472 1.536 29.088 0.56 4.896 2.848 9.6 4.592 14.32 0.912 2.448 0.672 4.192-1.392 5.952-2.976 2.512-5.712 5.28-9.232 8.576-2.832-8.576-5.52-16.672-8.176-24.768-0.368-1.152-0.592-2.368-0.976-3.504-0.768-2.112-2.496-2.736-4.544-2.864-8.064-0.496-16.16-0.672-24.176-1.52-18.56-2-37.088-4.128-55.584-6.608-9.104-1.216-18.080-3.296-27.12-5.024-0.656-0.128-1.264-0.432-2.496-0.864 1.072-0.352 1.536-0.496 2.048-0.672 4.064-1.392 8.064-3.056 12.192-4.128 15.36-3.952 30.72-8.032 46.208-11.424 10.992-2.416 22.256-3.648 33.328-5.728 5.52-1.024 10.928-2.688 16.352-4.208 0.688-0.192 1.52-1.264 1.632-2.016 2.8-21.008 12.24-38.768 25.872-54.736 13.36-15.648 29.136-27.904 48.192-35.472 7.84-3.136 16.288-4.784 24.544-6.688 3.568-0.832 5.632-2.368 6.624-5.936 4.448-15.856 9.056-31.68 13.616-47.52 6.304-21.84 12.576-43.664 18.896-65.504 0.304-1.040 0.768-2.048 1.152-3.056 0.24 0 0.464 0 0.688 0 0.144 1.088 0.432 2.192 0.464 3.28 0.32 11.728 0.528 23.472 0.912 35.184 0.352 10.672 0.736 21.36 1.44 32 0.24 3.664 1.808 7.28 2.064 10.944 0.848 12.64 1.408 25.328 2.064 38 0.224 4.416 0.304 4.432 4.352 5.888 34.8 12.512 60.656 34.496 73.92 69.824 0.912 2.432 2.080 4.784 2.848 7.28 1.376 4.448 4.512 6.48 8.88 7.328 6.016 1.168 11.968 2.832 18.032 3.76 5.568 0.848 11.28 0.768 16.832 1.536 11.248 1.568 22.48 3.36 33.696 5.232 5.568 0.912 11.088 2.144 16.592 3.28 1.344 0.288 2.656 0.8 4 1.52-4.928 1.504-9.76 3.536-15.040 3.168-3.52-0.256-6.736 0.256-9.76 2.048-0.496 0.304-1.168 0.672-1.68 0.56-5.696-1.136-10.4 1.92-15.424 3.6-2.624 0.896-5.088 2.192-8.032 1.44-0.544-0.144-1.28 0.32-1.904 0.544-2.864 0.928-5.664 2.112-8.576 2.784-8.624 1.984-17.28 3.84-25.936 5.584-4.688 0.928-6.608 3.648-7.36 8.32-1.408 8.624-2.608 17.472-5.472 25.664-7.216 20.56-20.032 37.376-37.008 50.992-15.952 12.768-33.824 21.424-54.144 24.576-2.96 0.464-4.256 1.904-4.448 4.752-0.080 1.216-0.288 2.432-0.624 3.584-0.592 1.936-0.224 3.44 1.168 4.976 0.72 0.8 1.104 2.368 0.928 3.456-3.168 18.816-6.304 37.648-9.76 56.416-2.608 14.080-5.728 28.032-8.496 42.080-1.68 8.608-3.040 17.28-4.56 25.904-0.176 0.928-0.384 1.84-0.592 2.784-0.304 0.048-0.544 0.080-0.784 0.112z"></path>
</svg>
