<!-- Generated by IcoMoon.io -->
<svg version="1.1" xmlns="http://www.w3.org/2000/svg" width="512" height="512" viewBox="0 0 512 512">
<title>monsters-of-order</title>
<g id="icomoon-ignore">
</g>
<path d="M511.984 286.544c-0.688 1.2-1.392 2.432-2.032 3.584-0.352 0-0.544 0.048-0.688 0-1.504-0.432-2.992-0.88-4.512-1.312-0.272 1.424-0.784 2.864-0.784 4.288 0 8.144 0.448 16.288 0.112 24.4-0.624 14.672-5.12 28.576-9.152 42.576-4.736 16.512-10.048 32.768-17.328 48.352-2.288 4.848-4.96 9.28-8.848 12.976-5.696 5.408-11.408 10.848-17.136 16.24-0.624 0.576-1.344 1.056-2.016 1.584-0.24-0.128-0.512-0.272-0.768-0.4 2.144-7.696 3.728-15.616 6.64-23.008 2.88-7.376 3.888-14.848 3.76-22.544-0.24-14.048-3.6-27.424-9.552-40.096-1.232-2.64-2.944-5.12-4.88-7.296-0.976-1.088-2.976-1.872-4.448-1.792-2.816 0.128-5.616 0.912-8.384 1.568-3.28 0.768-6.592 1.472-9.776 2.528-2.368 0.784-4.848 1.76-6.816 3.264-3.328 2.528-6.352 5.472-9.408 8.368-1.28 1.2-2.512 2.576-3.44 4.048-3.664 5.808-7.152 11.76-10.864 17.552-1.056 1.632-2.624 2.912-3.952 4.336-0.432-0.112-0.848-0.224-1.28-0.352-0.176-1.52-0.8-3.2-0.432-4.56 0.848-3.056 1.952-6.144 3.392-8.976 5.024-9.744 10.24-19.44 15.456-29.088 1.312-2.432 1.184-4.624-0.096-7.088-2.032-3.952-3.92-8.032-5.632-12.144-3.872-9.152-11.008-15.008-19.408-19.632-2.192-1.2-4.512-2.144-6.736-3.328-6.816-3.648-13.424-2.944-19.84 0.976-3.040 1.856-6.064 2.368-9.376 0.608-1.872-1.008-2.208-2.288-1.648-4.176 0.4-1.344 0.832-2.8 0.736-4.16-0.4-6.416-0.736-12.864-1.616-19.216-0.688-5.008-1.968-9.968-3.28-14.88-0.496-1.84-1.568-3.696-2.88-5.056-4.56-4.784-6-10.56-6.144-16.912-0.208-7.936-0.72-15.872-1.008-23.824-0.112-3.312-0.976-5.952-4-7.888-2.832-1.84-3.712-4.848-3.36-7.536 2.192-0.56 3.936-1.2 5.728-1.408 1.136-0.128 2.368 0.352 3.552 0.608 2.208 0.464 4.432 1.312 6.672 1.392 7.584 0.224 15.184 0.208 22.768 0.272 0.976 0 1.984-0.112 2.944 0.096 5.136 1.024 7.712-1.504 9.632-6.016 2.88-6.752 4.784-13.6 4.848-20.976 0.096-9.84 0.496-19.664 0.56-29.504 0.096-13.456-2.416-26.256-9.712-37.888-2.88-4.608-5.072-9.632-7.648-14.448-1.92-3.616-1.808-7.2-0.016-10.784 2.48-4.992 6.224-8.704 11.264-11.040 2.832-1.344 4.944-0.56 5.92 2.4 0.512 1.584 0.56 3.328 0.688 5.008 0.432 6 3.152 9.264 8.848 10.848 1.584 0.448 3.136 1.312 4.496 2.256 9.504 6.512 18.672 13.552 28.496 19.52 14.688 8.928 27.376 20.144 38.56 32.96 6.48 7.424 11.68 16.016 17.040 24.336 3.952 6.144 7.216 12.752 10.912 19.072 5.728 9.824 8.752 20.704 12.432 31.312 6.784 19.552 11.376 39.6 12.896 60.288 0.064 0.96 0.336 1.92 0.512 2.864 0 2.208 0 4.544 0 6.864zM471.44 187.376c-0.288 0.128-0.576 0.288-0.896 0.432 0.32 1.12 0.576 2.256 0.912 3.376 2.688 8.592 5.888 17.056 7.92 25.792 3.248 13.84 4 28.24 9.568 41.552 0.128 0.32 0.064 0.72 0.064 1.072-0.048 22.096-0.112 44.176-0.176 66.256 0 0.784 0 1.568 0 2.368 0.768-0.544 1.024-1.072 1.12-1.648 1.168-7.408 2.288-14.8 3.488-22.208 0.432-2.528 1.728-5.024 1.616-7.52-0.688-13.456-1.168-26.992-2.704-40.384-2.576-22.32-9.168-43.632-17.888-64.288-0.72-1.728-2.016-3.2-3.024-4.784zM418.464 158.688c0.352 1.792 0.608 3.424 1.024 4.992 1.456 5.232 3.392 10.4 4.432 15.728 4.064 21.136 5.456 42.528 5.36 64-0.048 8.208-0.736 16.432-0.976 24.64-0.064 1.984 0.448 4 0.688 6 3.216-3.36 4.032-7.216 4-11.136-0.016-14.384 0.176-28.784-0.544-43.12-0.736-14.896-2.528-29.744-3.712-44.608-0.56-6.864-5.392-11.248-9.072-16.304-0.128-0.128-0.512-0.096-1.2-0.176z"></path>
<path d="M66.512 443.808c-6.144-5.968-12.080-12.192-18.512-17.824-5.904-5.168-10.576-11.024-13.888-18.144-6.112-13.12-12.32-26.208-15.968-40.272-3.328-12.944-6.352-26.016-9.12-39.088-0.944-4.496-0.96-9.232-0.96-13.888 0-7.584 0.352-15.184 0.576-22.768 0.096-3.216-0.464-3.696-3.552-2.8-3.376 0.976-5.296-0.4-5.056-4.176 0.272-4.448 0.96-8.88 1.616-13.28 3.872-26.592 11.152-52.224 22.48-76.576 7.072-15.2 16.288-29.12 27.040-42.048 11.136-13.392 23.28-25.68 37.568-35.76 11.6-8.208 22.96-16.752 34.48-25.040 2.016-1.456 4.256-2.624 6.48-3.728 1.984-1.008 2.976-2.464 2.912-4.672-0.016-0.544-0.064-1.072-0.016-1.616 0.4-3.504 1.584-4.224 4.992-3.312 5.472 1.472 8.592 5.36 11.12 10.128 1.904 3.552 2.656 6.864 0.56 10.608-2.544 4.496-4.736 9.184-7.408 13.616-4.224 7.024-8.048 14.224-8.608 22.56-0.784 11.488-1.312 23.008-1.808 34.528-0.16 3.552 0.288 7.136 0.32 10.704 0.064 8.256 3.36 15.456 7.2 22.48 0.448 0.8 1.792 1.632 2.688 1.584 5.696-0.208 11.376-0.72 17.088-0.944 3.024-0.112 6.128-0.24 9.040 0.352 3.824 0.8 7.216 0.848 10.352-1.744 0.336-0.288 0.768-0.464 1.168-0.672 0.16-0.064 0.336-0.064 0.688-0.112 0.88 2.096 0.608 3.888-1.248 5.36-0.56 0.448-1.136 0.848-1.728 1.28-3.584 2.656-3.504 3.152-0.56 6.288 0.992 1.056 1.76 2.8 1.696 4.208-0.4 10-1.008 20-1.68 29.984-0.096 1.424-0.608 3.216-1.568 4.144-6.016 5.68-8.304 13.088-9.52 20.816-1.088 6.96-1.568 14.016-2.208 21.040-0.128 1.408-0.048 2.88 0.272 4.256 0.336 1.536 0.912 3.104-0.72 4.096-1.648 0.976-3.488 1.984-5.504 0.736-6.352-3.872-13.232-4.544-20.448-3.584-0.608 0.096-1.248 0.176-1.808 0.448-8.080 3.712-15.76 8-21.872 14.656-0.96 1.056-1.84 2.24-2.432 3.504-2.752 5.808-5.52 11.6-7.936 17.552-0.608 1.504-0.352 3.808 0.384 5.28 4.384 8.88 9.216 17.584 13.536 26.48 1.68 3.488 2.64 7.36 3.584 11.136 0.32 1.248-0.464 2.8-0.768 4.208-0.336 0.112-0.656 0.224-0.976 0.32-1.008-1.088-2.288-2.064-2.992-3.328-3.728-6.512-7.248-13.152-11.024-19.632-0.736-1.248-2.24-2.080-3.392-3.088-1.856-1.616-4.064-2.976-5.552-4.88-2.848-3.696-6.352-5.808-10.896-6.704-4.288-0.848-8.48-2.128-12.72-3.248-4.448-1.168-8.592 0.336-10.624 4.48-8.528 17.216-13.616 35.248-10.736 54.608 1.344 8.976 4.992 17.28 11.264 24.16 0.336 0.384 0.864 0.912 0.8 1.296-0.688 3.472 1.744 5.216 3.776 7.184 0.768 0.768 1.536 1.472 2.304 2.256 2.656 2.752 2.624 3.376-0.352 5.632-0.432 0.32-0.832 0.672-1.248 0.976-0.16-0.016-0.336-0.016-0.512-0.016zM41.488 190.848c-1.408 1.296-2.736 1.968-3.216 3.040-2.32 5.104-4.896 10.128-6.56 15.456-5.552 17.776-10.384 35.776-13.456 54.16-1.136 6.848-1.568 13.872-1.504 20.816 0.096 8.48 0.896 16.944 1.68 25.408 0.608 6.576 1.616 13.104 2.528 19.664 0.112 0.848 0.784 1.632 1.2 2.432 0.272-0.112 0.544-0.24 0.832-0.352 0.048-0.784 0.176-1.584 0.112-2.368-0.384-4.432-1.232-8.88-1.168-13.312 0.24-16.176 0.8-32.32 1.2-48.48 0.048-1.312-0.32-2.656-0.208-3.984 0.128-1.568 0.544-3.136 0.96-4.672 0.208-0.736 0.944-1.36 1.12-2.096 1.36-5.456 3.024-10.864 3.872-16.4 1.968-12.72 4.592-25.296 8.592-37.52 0.4-1.232 1.12-2.368 1.76-3.504 1.312-2.32 2.912-4.544 2.24-8.272zM79.568 276.752c0.336 0 0.672 0.016 0.976 0.016 0.224-1.168 0.608-2.32 0.608-3.504 0-8.112-0.128-16.24-0.128-24.352 0-17.888 0.848-35.712 3.936-53.36 1.536-8.848 3.888-17.584 5.888-26.336 0.208-0.88 0.288-1.76 0.432-2.64-0.32-0.16-0.624-0.32-0.912-0.464-2.72 3.648-5.52 7.248-8.144 10.976-0.56 0.8-0.688 2.080-0.624 3.104 0.448 6.304-0.544 12.432-1.568 18.608-0.784 4.72-0.56 9.616-0.944 14.4-0.736 9.072-1.744 18.112-2.304 27.2-0.336 5.68-0.272 11.408 0 17.088 0.24 5.408 0.944 10.8 1.568 16.192 0.112 1.072 0.8 2.064 1.232 3.088z"></path>
<path d="M255.552 133.984c11.824-3.648 21.328 2.752 31.328 7.216 9.008 4.032 14.096 11.248 17.152 20.224 2.592 7.584 5.584 15.12 7.36 22.896 2.208 9.792 3.824 19.808 4.832 29.808 0.784 7.664 0.336 15.472 0.272 23.232 0 1.168-0.608 2.544-1.36 3.44-1.68 1.92-2.464 3.664-1.248 6.24 1.536 3.264 3.44 6.080 5.92 8.784 1.792 1.952 2.256 5.104 3.264 7.712 0.736 1.968 1.52 3.92 2.096 5.952 0.608 2.128 1.072 4.288 1.36 6.464 0.272 1.856 0.176 3.728 0.32 5.616 0.128 2.176 0.976 3.824 2.928 5.104 2.8 1.808 2.992 3.024 1.744 6.128-1.344 3.328-3.152 6.128-6.688 7.632-1.344 0.576-2.464 1.76-3.536 2.816-3.376 3.264-6.64 6.688-10.064 9.904-2.368 2.24-4.272 2.352-7.040 0.72-4.064-2.368-5.36-1.744-6.528 2.704-1.392 5.248-2.288 10.848-4.768 15.568-2.064 3.888-1.184 6.192 1.008 9.072 0.784 1.024 2.176 2.176 0.736 3.728-1.52 1.648-4.72 2.464-6.080 1.072-2.416-2.464-4.896-3.104-8.208-2.080-3.76 1.168-6.576 3.28-8.16 6.816-3.216 7.184-6 14.512-6.464 22.48-0.112 1.792-2.576 3.776-4.4 3.504-2.352-0.352-2.768-2.208-2.304-4.064 1.584-6.144-0.432-12.048-1.072-18.048-0.224-2.080-1.504-3.392-3.824-3.28s-2.88 1.52-3.136 3.552c-0.8 7.136-1.424 14.24-0.112 21.376 0.384 2.080-0.432 3.552-2.4 4.208-2.192 0.688-3.056-0.784-3.616-2.544-2.032-6.464-4.048-12.944-6.112-19.408-1.136-3.584-3.2-6.528-6.080-8.976-1.184-1.008-2.128-1.392-3.504-0.4-3.088 2.24-6.256 1.584-9.344-0.048-2.976-1.568-3.984-4.176-3.648-7.424 0.128-1.424 0.112-2.864 0.352-4.272 0.512-3.056-0.016-5.904-1.856-8.384-1.088-1.472-1.088-2.576 0.288-3.936 2.688-2.624 2.48-4.256-0.464-6.528-5.552-4.288-9.488-3.728-13.792 1.984-2.736 3.616-8.16 3.712-11.248 0.352-1.92-2.080-3.984-4.064-6.176-5.856-4.72-3.824-7.184-8.752-7.824-14.736-0.464-4.448-1.056-8.88-1.76-13.28-0.176-1.072-0.848-2.128-1.52-3.040-2.32-3.168-2.352-5.44 0.208-8.432 0.688-0.8 1.424-1.648 2.304-2.24 3.76-2.512 5.792-6.128 7.424-10.224 1.072-2.656 0.784-4.992-0.32-7.472-0.352-0.832-0.608-2.064-0.272-2.816 2.064-4.736 4.16-9.488 6.48-14.096 1.248-2.464 0.992-4.4 0.016-7.024-1.68-4.56-2.528-9.44-3.392-14.24-1.504-8.192 1.568-15.632 4.032-23.216 1.184-3.696 1.648-7.6 2.464-11.424 0.24-1.12 0.336-2.304 0.8-3.328 2.592-5.888 5.216-11.744 7.968-17.552 2.864-6.032 7.072-10.704 12.992-14.16 8.944-5.168 18.256-9.408 28.016-12.64 0.912-0.32 1.904-0.496 2.864-0.56 3.952-0.24 7.888-0.4 11.808-0.608zM212.928 302.848c8.704-0.624 17.312-1.392 23.952-8.224 2.4-2.48 3.104-3.76 1.312-6.704-0.96-1.616-2.432-3.36-4.064-4.032-8.592-3.44-17.168-6.976-26.608-7.76-3.584-0.288-7.104-1.504-10.576-2.544-1.808-0.56-3.136-0.448-4.176 1.136-1.392 2.080-2.864 4.096-4.064 6.256-0.4 0.72-0.512 2.096-0.096 2.736 2.928 4.448 5.696 9.104 9.184 13.088 3.872 4.4 9.152 6.416 15.136 6.064zM310.496 267.312c-0.4-0.128-0.608-0.272-0.736-0.24-11.536 2.928-23.712 3.648-34.48 9.392-0.32 0.16-0.688 0.4-0.976 0.352-4.288-0.832-6.704 2.288-9.52 4.512-1.424 1.136-1.536 2.144-0.064 3.488 1.008 0.912 1.872 2.192 2.32 3.472 2.304 6.848 10.752 11.52 17.776 9.616 4.56-1.232 9.216-2.304 13.616-3.952 2.656-1.008 5.456-2.528 7.328-4.608 2.544-2.8 4.432-6.256 6.256-9.616 0.736-1.392 0.976-3.328 0.72-4.896-0.464-2.624-1.504-5.12-2.24-7.52zM268.848 327.408c-1.392-1.792-3.040-3.472-4.176-5.456s-1.76-4.272-2.624-6.416c-0.064-0.16-0.16-0.336-0.288-0.448-2.768-2.24-3.088-5.504-3.648-8.656-0.432-2.368-0.736-4.784-1.36-7.088-0.24-0.912-1.424-2.464-1.76-2.352-1.232 0.384-2.752 1.088-3.264 2.128-0.72 1.424-0.784 3.28-0.8 4.96-0.048 3.312-1.136 6.128-2.64 9.072-2.016 3.936-3.36 8.256-4.56 12.496-0.8 2.8 0 3.584 2.848 3.824 2.288 0.176 4.368 0.32 6.416 1.872 2.128 1.632 13.76-1.584 15.872-3.952z"></path>
<path d="M277.84 419.472c-2.064-0.96-3.2-1.472-4.112-1.92 0-8.112 0.064-16.128-0.048-24.112-0.016-1.792-0.736-3.6-1.136-5.392-0.096-0.432-0.352-0.848-0.352-1.28 0.128-7.632-0.048-15.296 0.624-22.896 0.272-3.216 2.032-6.448 3.616-9.392 2.256-4.16 4.48-4.56 10.064-2.624 3.392 1.184 5.392 4.32 4.88 7.984-0.832 5.808-1.728 11.6-2.624 17.424-0.016 0.096-0.016 0.176-0.048 0.272-3.584 13.888-7.184 27.728-10.864 41.936z"></path>
<path d="M234.016 364.256c-0.448 3.536-0.784 6.192-1.12 8.832-1.744 13.504-1.12 27.088-1.616 40.64-0.016 0.8 0.272 1.84-0.128 2.352-0.736 0.96-1.84 2.176-2.864 2.256-0.912 0.064-2.528-1.024-2.864-1.952-6.368-17.536-7.216-35.888-7.632-54.272-0.064-3.040 2.864-5.904 6.56-6.88 3.28-0.88 5.248-0.112 7.104 3.168 1.184 2.064 1.92 4.368 2.544 5.856z"></path>
</svg>
