<!-- Generated by IcoMoon.io -->
<svg version="1.1" xmlns="http://www.w3.org/2000/svg" width="512" height="512" viewBox="0 0 512 512">
<title>monsters-of-order</title>
<g id="icomoon-ignore">
</g>
<path d="M0 68.64c6.192 1.936 12.368 3.968 18.592 5.824 9.168 2.736 18.496 4.544 28.064 4.864 10 0.32 20.016 0.464 30.016 0.656 3.232 0.064 6.448 0 10.336 0-2.224-4.576-4.096-9.088-6.528-13.312-3.296-5.728-7.184-11.104-10.432-16.864-1.888-3.344-2.8-7.232-4.544-10.656-3.104-6.176-6.496-12.176-9.744-18.256-0.496-0.912-0.896-1.888-1.52-3.296 4.16 0 7.92-0.192 11.664 0.048 7.952 0.464 15.92 1.68 23.872 1.728 13.44 0.048 26.896-0.496 40.336-1.008 3.024-0.112 4.272 0.624 4.912 3.744 2.8 13.936 5.664 27.888 10.832 41.216 2.192 5.68 4.192 11.456 6.48 17.12 0.256 0.624 1.728 1.056 2.672 1.104 12.352 0.368 24.72 0.448 37.040 1.056 13.136 0.656 26.208 0.656 39.328-0.704 7.536-0.768 15.2-0.4 22.8-0.512 16.272-0.208 32.576-0.544 48.848-0.544 12.064 0 24.128 0.304 36.192 0.624 5.712 0.16 11.392 0.752 17.072 1.168 1.984 0.144 3.088-0.448 3.952-2.48 1.024-2.416 3.152-4.32 4.208-6.704 1.056-2.336 1.12-5.104 2.016-7.536 1.888-5.232 4.272-10.336 6.032-15.616 3.2-9.568 7.056-18.96 7.392-29.28 0.016-0.592 1.104-1.616 1.712-1.632 12.272-0.368 24.544-0.672 36.832-0.896 1.216-0.016 2.448 0.768 3.696 0.752 5.984-0.064 11.952-0.464 17.904-0.448 7.184 0.016 14.352 0.288 21.504 0.624 2.224 0.112 2.288 1.632 0.896 3.76-4.112 6.24-8.576 12.352-11.824 19.040-2.992 6.176-4.416 13.072-6.848 19.52-2.496 6.64-5.376 13.12-8.272 20.176 3.664-0.256 7.2-0.352 10.688-0.752 7.44-0.896 14.864-1.824 22.304-2.928 10-1.472 19.968-3.136 29.952-4.72 3.856-0.608 7.696-1.232 11.552-1.76 0.624-0.096 1.68 0.192 1.936 0.624 0.288 0.496 0.016 1.472-0.304 2.080-0.496 0.928-1.2 1.776-1.84 2.624-1.36 1.776-1.888 3.504-1.424 5.92 1.008 5.152-1.376 9.44-4.256 13.52-0.848 1.168-1.504 2.448-2.24 3.696-1.504 2.48-3.024 4.928-4.464 7.456-1.408 2.432-2.8 4.864-4.096 7.36-4.368 8.576-8.528 17.248-13.040 25.744-2.176 4.096-8.144 5.776-13.68 4.272-9.536-2.576-19.2-4.752-29.056-4.672-9.328 0.064-18.64 1.328-27.936 1.472-3.968 0.048-4.88 2.24-6.176 5.024-2.576 5.536-5.536 10.896-8.096 16.464-1.984 4.32-3.408 8.88-5.328 13.232-1.328 2.992-3.056 5.824-4.608 8.72-1.984 3.76-3.92 7.568-5.936 11.344-3.296 6.144-6.656 12.272-9.984 18.4-3.456 6.384-6.928 12.784-10.352 19.168-3.808 7.104-7.664 14.192-11.392 21.344-4.544 8.72-7.968 17.856-10.848 27.264-2.080 6.784-5.52 12.976-9.568 18.896-3.44 5.024-6.128 10.56-8.96 16-5.264 10.080-10.384 20.208-15.504 30.352-1.456 2.848-3.056 5.728-3.888 8.784-0.56 2.080-0.448 4.752 0.4 6.704 6.448 15.056 13.296 29.904 25.296 41.616 3.136 3.056 5.76 6.688 9.024 9.568 3.184 2.784 6.8 5.072 10.432 7.296 2.432 1.504 2.64 2.368 0.496 4.272-2.88 2.576-6.688 4.816-8.144 8.096-2.48 5.536-7.36 8.512-11.008 12.768-4.512 5.28-9.632 10.176-13.296 16-1.84 2.944-3.808 5.632-6.096 8.16-1.28 1.424-2.448 2.992-3.84 4.352-3.792 3.808-7.712 7.456-11.44 11.312-4.464 4.656-7.248 4.064-9.312-2.272-4.144-12.656-8.208-25.344-12.368-38-0.32-0.976-1.008-1.84-1.472-2.784-0.816-1.664-1.968-3.296-2.272-5.056-0.544-3.296-1.68-5.152-4.208-5.488s-5.376 1.424-6.528 3.92c-3.088 6.688-6.288 13.296-9.312 20.016-1.808 4-3.28 8.144-5.056 12.112-3.312 7.456-6.624 14.912-10.272 22.208-0.704 1.408-2.88 2.064-3.92 2.784-2.976-2.832-5.76-5.328-8.352-7.968-2.528-2.576-4.88-5.28-7.296-7.968-6.832-7.568-13.68-15.152-20.432-22.768-1.072-1.216-2.192-2.672-2.576-4.16-1.168-4.624-4.144-7.904-7.648-10.736-3.456-2.8-7.136-5.376-10.784-7.92-2.144-1.504-2.992-3.584-2.896-6.016 0.096-2.24 1.504-3.408 3.696-3.904 0.768-0.16 1.456-0.912 2.064-1.52 16.304-16.208 30.608-34.048 43.344-53.152 1.728-2.592 2.976-5.488 4.8-8.016 2.976-4.064 3.856-8.096 1.824-12.976-3.808-9.088-6.784-18.592-10.912-27.52-5.424-11.712-11.744-23.024-17.488-34.608-2.080-4.16-3.904-8.48-5.408-12.912-2.528-7.488-7.488-13.568-11.152-20.336-6.736-12.432-12.576-25.376-18.896-38.064-2.496-5.008-5.328-9.84-7.872-14.816-7.744-14.992-15.408-30.016-23.104-45.040-1.408-2.752-2.976-5.456-4.16-8.304-1.28-3.024-3.584-3.856-6.528-3.808-4.864 0.096-9.776-0.048-14.608 0.352-4.144 0.32-8.352 0.816-12.272 2.032-10.352 3.232-20.576 6.96-30.88 10.384-4.32 1.424-3.92 0.896-6.928-2.368-4.544-4.96-9.936-9.088-14.608-13.936-2.224-2.32-3.856-5.312-5.312-8.208-2.080-4.16-3.792-8.528-5.584-12.832-2.448-5.824-4.672-11.744-7.312-17.472-1.808-3.856-4.016-7.536-6.32-11.136-2.976-4.624-6.176-9.136-9.36-13.632-0.848-1.12-2.032-2.016-3.040-3.024 0-1.168 0-2.336 0-3.504zM195.28 137.312c0.848 2.672 1.664 4.368 1.92 6.176 1.936 12.72 7.344 24.224 13.168 35.392 5.024 9.632 10.688 18.96 16.912 27.984 6.544 9.52 12.048 19.776 17.696 29.888 3.744 6.704 7.088 13.648 10.384 20.592 2.8 5.888 5.28 11.952 7.904 17.936 0.352-0.016 0.704-0.048 1.056-0.064 3.2-6.576 6.432-13.12 9.584-19.68 5.216-10.848 10.24-21.792 15.648-32.544 3.6-7.184 6.624-14.704 12.16-20.816 1.712-1.872 2.576-4.544 3.6-6.944 2.080-4.768 4.016-9.616 5.984-14.448 0.848-2.064 1.52-4.192 2.368-6.272 0.768-1.888 1.424-3.856 2.496-5.568 5.488-8.528 10.24-17.376 12.56-27.376 0.72-3.104 0.704-3.392-2.384-3.488-10.4-0.352-20.816-0.8-31.232-0.96-12.464-0.208-24.848-1.216-37.392-0.288-13.392 1.008-26.896 0.512-40.352 0.624-3.968 0.016-7.968-0.112-11.968-0.16-3.152-0.016-6.32 0-10.080 0z"></path>
</svg>
