<!-- Generated by IcoMoon.io -->
<svg version="1.1" xmlns="http://www.w3.org/2000/svg" width="32" height="32" viewBox="0 0 32 32">
<title>factions-death-royal-beastflayers</title>
<path d="M13.225 31.319c-0.534-0.389-1.336-1.093-1.797-1.579-0.461-0.51-0.923-0.899-1.020-0.899-0.316 0-0.219 0.68 0.17 1.53 0.34 0.68 0.219 0.607-0.777-0.486-0.68-0.729-1.894-2.599-2.866-4.421-1.627-3.036-2.307-3.813-2.307-2.647 0 1.117-0.534-0.024-1.020-2.137-0.389-1.797-0.461-2.745-0.364-5.586l0.097-3.4 1.093-2.307c1.384-2.866 2.745-4.663 4.25-5.611 3.765-2.405 5.465-3.133 8.477-3.595 1.822-0.267 2.065-0.267 3.085 0.194 0.607 0.267 1.214 0.729 1.36 0.996 0.34 0.631 0.34 0.631-1.044 0-1.287-0.559-2.137-0.413-3.036 0.486-0.291 0.291-0.802 0.51-1.142 0.51-0.729 0-1.822 1.069-2.599 2.526-0.607 1.166-0.729 4.445-0.194 5.101 0.534 0.631 0.899 0.461 1.19-0.534 0.486-1.554 1.895-3.133 3.595-3.959 1.409-0.704 1.676-0.753 3.425-0.656 2.866 0.146 4.153 0.802 5.441 2.793 1.433 2.21 1.749 3.546 1.457 6.266-0.146 1.214-0.243 2.575-0.219 3.060s-0.146 1.166-0.364 1.506c-0.34 0.534-0.534 0.607-1.214 0.486-0.656-0.097-0.947 0-1.312 0.389-0.631 0.656-1.093 2.259-0.923 3.012 0.194 0.777-0.267 2.477-0.996 3.692l-0.583 0.972 0.146-1.627c0.17-1.724 0.121-1.822-0.656-1.409-0.413 0.243-0.461 0.17-0.461-0.486 0-0.85-0.34-0.947-0.753-0.194l-0.267 0.51-0.413-0.534c-0.559-0.729-0.753-0.437-0.753 1.117 0 0.704-0.097 1.287-0.219 1.287-0.389 0-0.802-2.356-0.631-3.57 0.146-1.044 0.073-1.287-0.583-2.21-0.729-0.972-1.506-1.312-1.846-0.777-0.267 0.437-0.583 0.267-1.239-0.704-0.534-0.826-0.583-1.044-0.34-1.506 0.364-0.631 0.364-2.38 0.024-2.72-0.461-0.461-1.554-0.243-2.113 0.413-1.093 1.263-0.972 4.469 0.291 7.894 0.316 0.85 0.534 1.603 0.486 1.652s-0.51-0.656-0.996-1.554c-1.482-2.696-2.065-3.085-2.065-1.36 0 1.36 0.704 3.692 1.627 5.489 0.486 0.899 0.802 1.724 0.704 1.797-0.073 0.097-0.534-0.219-1.020-0.68l-0.874-0.826 0.389 0.947c0.219 0.534 0.802 1.433 1.312 2.040 1.117 1.312 1.603 1.992 1.457 1.992-0.073 0-0.559-0.316-1.069-0.68zM22.188 17.353c-0.17-1.117-0.534-1.069-0.947 0.121-0.291 0.85-0.267 0.899 0.219 0.972 0.777 0.146 0.899-0.073 0.729-1.093zM25.709 15.92c0.34-0.34 0.389-1.312 0.097-1.506-0.121-0.073-0.656 0-1.214 0.146-0.729 0.17-1.020 0.389-1.020 0.704 0 0.802 1.53 1.263 2.137 0.656zM19.88 15.677c0.753-0.753-0.219-1.652-1.797-1.652-0.631 0-0.777 0.632-0.34 1.482 0.291 0.534 1.652 0.656 2.137 0.17z"></path>
</svg>
