<!-- Generated by IcoMoon.io -->
<svg version="1.1" xmlns="http://www.w3.org/2000/svg" width="512" height="512" viewBox="0 0 512 512">
<title>monsters-of-order</title>
<g id="icomoon-ignore">
</g>
<path d="M259.52 512c-0.432-1.392-1.232-2.752-1.248-4.144-0.144-7.856-0.080-15.712-0.080-23.552 0-1.504 0.096-3.024 0.080-4.528-0.032-4.704-0.064-4.72-4.8-4.176-1.952 0.224-2.592-1.248-2.864-2.544-0.32-1.584-0.272-3.328 0.016-4.944 1.312-6.544 2.064-13.056 1.536-19.824-1.152-14.768-1.504-29.616-2.784-44.384-0.656-7.68-2.576-15.264-3.952-23.040-1.184 0.144-1.92 0.096-2.56 0.304-5.36 1.808-10.704 1.648-16.112 0.176-8.48-2.304-16.992-4.432-25.472-6.752-1.552-0.432-2.88-1.648-4.4-2.24-1.216-0.48-2.816-1.168-3.824-0.752-5.344 2.144-10.544 4.608-15.824 6.928-0.48 0.224-1.184 0.24-1.68 0.064-2.048-0.768-3.872-0.576-5.472 0.992-2.080 2.048-4.176 4.064-6.272 6.080-0.496 0.48-1.040 1.072-1.664 1.264-11.456 3.456-19.552 11.776-28.304 19.2-6.176 5.248-12.48 10.304-18.72 15.456-2.048 1.712-4.032 3.488-6.032 5.248-0.176-0.112-0.352-0.24-0.544-0.352 0.544-0.848 0.928-1.808 1.584-2.528 11.488-12.192 23.088-24.272 34.48-36.544 3.456-3.712 6.368-7.904 9.568-11.856 1.088-1.344 2.4-2.544 3.52-3.888 0.576-0.688 1.184-1.536 1.344-2.384 0.768-3.872 2.16-4.72 6-3.536 0.512 0.16 1.056 0.272 1.584 0.432 0.752-7.488-2.304-11.312-10.128-12.736-3.904-0.72-5.184-2.704-4.848-6.592 0.096-1.232-0.56-2.864-1.424-3.792-14.464-15.504-21.456-34.768-27.424-54.496-0.912-3.024-1.072-6.256-1.808-9.328-0.256-1.088-1.056-2.16-1.872-2.992-0.912-0.96-2.16-1.6-3.2-2.48-2.256-1.92-2.288-4.128 0.080-5.968 1.504-1.184 2.384-2.544 2-4.48-0.432-2.304-1.984-2.816-3.952-1.552-0.816 0.512-1.888 0.8-2.864 0.832-7.68 0.32-15.376 0.768-23.056 0.752-16.592-0.064-33.104-1.104-49.248-5.456-1.744-0.48-3.52-0.816-5.28-1.216-0.016-0.416-0.032-0.832-0.032-1.264 2.992-0.832 5.936-2.048 8.992-2.416 10.944-1.392 21.952-2.128 32.832-3.856 9.296-1.472 18.432-3.904 27.632-5.952 2.32-0.512 4.56-1.344 6.912-1.792 1.328-0.24 2.816-0.24 4.096 0.144 1.744 0.512 2.736 0.352 3.456-1.504 1.648-4.272 3.488-8.448 5.952-12.928 1.584 3.12 3.376 6.16 4.688 9.376 0.544 1.328 0.176 3.104 0.064 4.64-0.24 3.040-0.576 6.080-0.848 8.928 0.672 0.304 0.88 0.432 0.96 0.4 4.96-2.544 10.48-2.224 15.76-3.168 2.944-0.544 5.808-1.536 8.672-2.416 2.96-0.928 4.672-3.136 5.776-5.92 3.44-8.688 7.152-17.264 10.208-26.080 1.888-5.456 1.632-11.040-2.736-15.664-4.208-4.448-8.4-8.896-12.608-13.344-0.432-0.464-0.88-0.912-1.376-1.328-3.952-3.376-5.36-3.296-8.944 0.4-3.456 3.552-3.456 3.552-8 1.376-4.064-1.968-4.112-2.112-1.888-6.192 0.72-1.328 1.488-2.656 1.904-4.096 0.32-1.104 1.152-2.544-0.928-3.328-0.432-0.16-0.432-2.144-0.24-3.2 0.144-0.768 0.848-1.504 1.488-2.080 3.2-2.896 3.392-4.192 0.928-7.808-0.608-0.912-1.312-1.84-2.16-2.528-8.432-6.832-14.544-15.68-21.024-24.192-2.304-3.040-4.464-6.176-6.672-9.264-0.384-0.544-0.672-1.104-0.992-1.664 0.176-0.16 0.336-0.32 0.512-0.48 2.368 1.648 4.864 3.12 7.072 4.944 9.312 7.776 18.544 15.68 27.792 23.552 0.656 0.56 1.232 1.232 1.792 1.904 3.312 3.936 8.448 3.536 11.136-0.896 0.88-1.456 1.296-3.36 3.568-3.28 0.176 0 0.464-0.192 0.56-0.4 2.56-4.768 7.008-7.504 11.12-10.64 2-1.536 3.728-3.44 5.6-5.136 3.040-2.784 5.936-5.744 9.184-8.24 1.888-1.456 4.32-2.224 6.528-3.232 1.232-0.56 2.624-0.8 3.744-1.456 11.456-6.704 23.904-10.896 36.656-14.272 3.408-0.896 6.944-1.408 10.384-2.288 0.752-0.192 1.552-1.088 1.888-1.84 0.56-1.184 0.32-3.136 1.152-3.744 2.112-1.552 4.672-2.288 7.6-1.584 0 1.136-0.256 2.304 0.080 3.28 0.272 0.8 1.216 1.744 1.968 1.872 0.688 0.112 1.952-0.592 2.288-1.264 2.16-4.4 4.144-8.912 6.176-13.392 1.136-2.496 1.024-4.864-0.592-7.184-2.56-3.648-3.456-7.408-2.144-12.048 2.72-9.52 5.216-19.152 6.992-28.88 1.968-10.752 2.992-21.68 4.448-32.512 0.112-0.88 0.384-1.712 0.576-2.576 0.32-0.032 0.64-0.080 0.96-0.112 0.416 1.408 1.008 2.816 1.232 4.272 1.808 11.456 0.848 22.96 0.32 34.432-0.464 9.344-1.264 18.672-1.728 28.048-0.064 1.392 0.848 2.864 1.488 4.224 0.688 1.488 1.76 2.832 2.368 4.368 1.088 2.8 1.952 5.696 2.944 8.528 0.88 2.496 0.672 4.64-0.176 7.408-1.808 5.744-2.288 11.888-3.376 18.224 2.64-0.56 3.28-2 3.648-3.664 0.768-3.472 1.568-6.944 2.416-10.752 3.152 0.72 6.128 1.376 9.088 2.128 0.336 0.080 0.608 0.848 0.672 1.328 0.16 1.008 0.144 2.064 0.192 3.104 0.112 1.76 1.024 2.896 2.8 2.944 14.368 0.352 26.416 7.488 38.688 13.632 5.616 2.816 10.576 6.96 15.712 10.656 4.176 2.992 8.192 6.208 12.208 9.408 0.976 0.768 1.68 1.888 2.4 2.944 1.68 2.48 3.904 3.456 6.592 2.336 4.624-1.888 9.184-3.904 13.696-6.080 1.056-0.496 1.648-1.904 2.656-2.592 7.104-4.928 14.256-9.792 21.376-14.672 0.272-0.192 0.672-0.24 1.232 0.016-1.92 1.568-3.936 3.056-5.776 4.72-1.744 1.584-3.488 3.216-4.96 5.040-3.744 4.72-7.232 9.664-11.040 14.336-2.4 2.944-5.12 5.6-7.84 8.24-1.904 1.84-2.128 2.448-0.432 4.56 3.536 4.48 7.072 8.992 10.736 13.36 5.584 6.608 9.168 14.048 11.52 22.432 1.648 5.888 1.456 11.936 2.72 17.776 0.688 3.2 1.344 6.336 1.504 9.712 0.16 3.104 2.544 6.128 4.192 9.072 0.32 0.576 1.712 0.72 2.64 0.752 15.2 0.752 30.432 1.344 45.632 2.208 5.44 0.32 10.864 1.088 16.24 1.968 1.536 0.256 2.896 1.568 4.4 2.448-0.464 0.496-0.592 0.72-0.64 0.688-6.112-2.208-12.192-0.64-18.32 0.016-7.728 0.816-15.488 1.232-23.248 1.824-0.8 0.064-1.6 0.016-2.368 0.224-6.832 1.76-13.632 3.52-20.448 5.376-2.576 0.72-3.248 3.232-3.328 5.28-0.256 6-2.704 10.8-6.784 15.008-1.408 1.472-2.496 3.248-4.32 4.864 0-9.008 0-18.016 0-27.312-3.568 0.32-7.12 0.48-10.624 0.992-5.552 0.816-11.088 1.872-16.608 2.864-0.848 0.16-1.872 0.32-2.448 0.848-3.312 3.056-7.696 3.568-11.648 5.088-3.744 1.424-6.368 3.792-8.304 7.36-5.056 9.296-9.52 18.816-12.448 28.992-2.048 7.104-2.128 13.968 1.92 20.624 3.376 5.552 6.24 11.408 9.472 17.056 1.136 1.984 2.72 3.696 4.096 5.536 0.752 1.008 1.504 1.888 0.64 3.392-0.352 0.608 0.16 2.208 0.8 2.832 1.328 1.328 2.976 2.368 4.528 3.456 1.312 0.928 2.4 0.544 3.216-0.752 1.056-1.68 2-3.408 3.104-5.056 3.328-5.008 6.576-10.064 10.096-14.928 4.048-5.584 8.352-10.976 12.544-16.432 0.608-0.816 1.264-1.584 1.968-2.496 1.968 1.424 1.488 3.136 0.816 4.704-2.128 4.96-4.304 9.888-6.528 14.784-1.536 3.392-3.040 6.8-4.768 10.096-1.184 2.288-0.816 4.384 0.416 6.288 0.848 1.312 1.152 2.256 0.48 3.808-0.992 2.24 0 3.024 2.496 2.864 1.424-0.096 3.312 0.16 4.304 1.056 2.032 1.824 3.824 4.032 5.296 6.336 5.008 7.92 9.504 16.144 14.784 23.856 3.968 5.792 8.768 11.040 13.296 16.416 2.608 3.104 5.296 6.128 8.176 8.976 2.144 2.128 2.672 4.704 3.28 7.936-2.208-1.328-4.208-2.208-5.792-3.552-8.336-7.104-16.512-14.352-24.832-21.488-2.944-2.528-6.112-4.8-9.088-7.28-2.864-2.368-5.728-4.736-8.416-7.296-2.544-2.416-5.76-2.368-8.832-2.96-0.384-0.080-0.8-0.016-1.376-0.016 0-2.448-1.312-3.136-3.6-3.68-1.312-0.304-2.24-2.544-3.136-4.048-0.4-0.688-0.256-1.68-0.304-1.968-1.344-0.992-2.208-1.904-3.248-2.32-0.832-0.336-1.952-0.256-2.88-0.080-4.672 0.88-8.24 3.792-11.904 6.512-5.696 4.224-12.288 6.496-19.008 8.4-2.896-7.488 0.352-12.16 8.336-16.704 2.384-1.344 5.184-1.984 7.664-3.216 5.008-2.48 5.184-2.608 3.872-7.872-0.608-2.416-1.792-5.024-3.488-6.784-2.832-2.912-6.272-5.248-9.504-7.776-1.552-1.232-3.136-2.416-4.768-3.536-1.024-0.72-2.096-1.456-3.248-1.824-3.2-1.024-3.728-0.768-5.36 1.968-1.232-0.48-2.4-1.216-3.68-1.392-5.584-0.832-7.664 0.544-8.592 6.032-1.008 5.84-1.664 11.744-2.48 17.632-0.032 0.336-0.144 0.672-0.192 1.024-0.256 0.016-0.496 0.064-0.752 0.080-0.512-2.8-1.056-5.584-1.536-8.368-0.544-3.12-0.896-6.256-1.536-9.344-0.352-1.792-1.664-2.624-3.536-2.384-1.968 0.256-3.952 0.416-5.872 0.832-0.72 0.16-1.632 0.8-1.904 1.424-1.664 3.824-3.056 7.76-4.784 11.568-0.496 1.104-1.584 2.464-2.64 2.736-3.376 0.88-5.296 3.248-6.624 6.048-2.912 6.080-3.216 12.704-3.568 19.264-0.112 2.128 1.584 2.080 3.024 2 6.496-0.4 12.976-0.688 19.424-1.328 2.288-0.224 3.376 0.56 4.112 2.448-12.464 5.52-16.896 9.968-28.048 8.64-0.656 8.016-1.264 16.032-1.968 24.032-0.32 3.696-0.544 7.44-1.248 11.072-1.248 6.416-1.904 12.72-0.64 19.296 0.656 3.408-0.224 7.104-0.272 10.672-0.016 1.552 0.304 3.104 0.384 4.672 0.080 1.824 0.256 3.68 0.032 5.456-1.104 9.024-1.76 18.16-4.464 26.928-0.336 1.136-0.464 2.336-0.496 3.536-0.016 0.4 0.464 0.816 1.072 1.824-1.296 7.424-2.72 15.6-4.144 23.792-0.672 0.064-1.312 0.064-1.952 0.064zM345.76 181.888c-0.224-0.080-0.432-0.144-0.672-0.224-0.512-2.416-0.032-4.704 1.328-6.88 2.864-4.56 5.664-9.168 8.64-13.648 0.56-0.832 1.824-1.712 2.736-1.664 2.752 0.096 4.608-1.152 5.808-3.376 0.56-1.008 1.184-2.88 0.736-3.328-0.928-0.96-2.624-1.792-3.904-1.68-1.824 0.16-3.056-0.352-4.208-1.568-3.152-3.296-6.112-6.688-10.288-8.976-3.472-1.92-6.176-5.296-9.712-7.008-2.176-1.056-3.872-2.496-5.792-3.744-1.584-1.040-2.672-3.408-5.2-1.904-0.112 0.064-0.416-0.144-0.608-0.24-2.496-1.168-5.104-2.16-7.488-3.552-8.4-4.944-17.344-7.104-27.088-6.048-2.048 0.224-3.024 0.848-3.28 2.864-0.432 3.456-1.184 6.88-1.456 10.368-0.176 2.4-0.432 5.184 0.56 7.2 5.040 10.224 11.2 19.728 20.032 27.216 0.48 0.4 0.992 0.976 1.552 1.040 2.208 0.272 3.2 1.792 4.128 3.536 2.864 5.312 6.784 9.68 11.648 13.312 3.536 2.64 6.704 5.792 9.984 8.752 0.576 0.512 1.216 1.296 1.248 1.968 0.224 3.104 2.544 4.608 4.512 6.416 2.224 2.048 4.4 4.128 6.688 6.096 6.624 5.76 4.56 5.776 13.008 2.88 0.080-0.016 0.16-0.064 0.224-0.080 5.040-1.504 8.496 0.512 10 5.536 0.416 1.376 1.488 2.8 2.656 3.616 2.864 1.984 6.16 3.376 8.912 5.456 4.512 3.376 9.184 3.936 14.496 2.384 3.872-1.136 4.24-1.232 4.608-5.472-2.384 0-3.872-1.136-4.224-3.568-0.352-2.528-0.768-5.024-1.088-7.52-0.992-7.856-4.304-14.864-7.872-21.776-1.92-3.712-4.288-7.184-6.368-10.832-2.176-3.824-4.72-7.328-8.336-9.968-1.472-1.072-2.72-1.296-4.288-0.192-2.288 1.584-4.672 2.992-7.024 4.464-0.592 0.384-1.248 0.848-1.904 0.88-5.296 0.272-9.232 2.56-11.456 7.504-0.224 0.672-0.768 1.232-1.216 1.84zM235.392 158.192c0.752-0.192 1.536-0.32 2.256-0.592s1.552-0.56 1.984-1.088c4.768-6.032 10.56-10.944 16.624-15.584 2.832-2.16 3.312-4.464 2.128-7.776-2.048-5.664-4.064-11.328-5.936-17.056-0.608-1.888-1.648-2.88-3.552-2.784-3.552 0.176-7.248-0.080-10.624 0.832-14.624 3.952-28.624 9.312-41.776 17.184-8.832 5.296-17.088 11.168-25.024 17.632-0.848 0.688-1.744 1.744-1.904 2.752-0.256 1.504-0.976 1.808-2.256 2.176-1.664 0.496-3.728 1.088-4.672 2.336-2.4 3.216-4.32 6.784-6.368 10.256-1.312 2.208-0.8 3.056 1.824 3.392 1.888 0.24 3.792 0.464 5.632 0.816 9.104 1.792 18.192 3.808 27.552 3.52 8.688-0.272 17.36-1.008 25.408-1.504 1.248-1.152 2.16-2.624 3.056-2.624 1.392 0.016 2.992 0.768 4.064 1.712 1.216 1.056 2.224 2.56 2.832 4.064 1.184 2.976 3.536 3.728 6.88 4.064 0.608-7.232 1.232-14.448 1.84-21.76zM180.784 322.288c3.44 1.808 4.112 1.472 4.816-1.872 0.192-0.928 0.256-1.888 0.464-2.816 0.144-0.592 0.256-1.344 0.672-1.68 1.664-1.344 1.376-2.832 0.608-4.48-2.080-4.544-4.208-9.056-6.16-13.632-1.424-3.312-3.568-5.936-6.512-8-5.888-4.144-11.984-8.064-17.552-12.624-7.040-5.808-15.344-9.488-22.976-14.272-1.408-0.88-3.248-1.264-4.944-1.424-2.16-0.192-3.856 2.448-2.576 3.952 3.696 4.352 4.432 9.888 6.512 14.88 5.040 12.128 10.432 24.112 16.112 35.968 4.24 8.832 10.4 16.48 16.56 24.048 3.056 3.792 5.216 7.92 5.056 13.008-0.016 0.816 0.736 1.664 1.472 3.168 0.768-1.648 1.424-2.496 1.568-3.456 0.752-4.96 2.656-9.408 5.44-13.584 1.584-2.4 1.984-4.96 1.536-7.92-0.464-2.896-0.096-5.936-0.096-9.264zM295.296 225.968c-3.52 3.024-7.072 6.048-10.592 9.104-1.232 1.056-3.136 2.064-2.176 3.984 0.928 1.92 2.976 0.896 4.48 0.688 2.896-0.352 5.712-0.928 8.672 0.080 1.184 0.4 2.832-0.016 4.128-0.496 6.432-2.336 11.824-5.936 14.72-12.528 0.656-1.504 1.744-2.832 2.656-4.208 1.408-2.112 2.896-4.176 4.304-6.272 1.648-2.448 1.424-2.976-1.376-3.568-0.688-0.144-1.408-0.256-2.080-0.432-2.608-0.656-4.864-0.352-7.152 1.328-1.184 0.896-3.104 0.928-4.704 1.136-1.136 0.144-2.32-0.080-3.712-0.144 0.56 1.504 1.008 2.736 1.712 4.592-1.664 0-2.976-0.032-4.288 0.016-1.072 0.064-2.24 0-3.168 0.416-2.064 0.928-2.48 3.152-1.424 6.288zM299.12 274.16c-0.816-2.784-2.464-4.608-5.040-5.68-1.888-0.768-4.112-1.312-5.52-2.656-5.344-5.088-10.48-10.4-13.36-17.408-0.32-0.768-1.488-1.824-2.144-1.744-1.568 0.192-1.488 1.664-1.088 2.832 1.552 4.48 2.944 9.056 4.848 13.392 2.288 5.2 6.080 8.848 12.064 9.584 0.688 0.080 1.504 0.24 2 0.672 2.496 2.176 5.248 1.68 8.24 0.992zM242.608 257.536c-0.016-0.304-0.064-0.608-0.080-0.912-3.616-1.728-7.184-3.52-10.832-5.136-0.896-0.4-2.064-0.592-3.024-0.4-5.952 1.232-11.904 2.544-17.824 3.968-0.608 0.144-0.992 1.264-1.472 1.952 0.752 0.384 1.472 0.88 2.256 1.088 0.48 0.112 1.056-0.24 1.6-0.32 3.376-0.544 6.752-0.64 9.296 2.144 2.112 2.304 4.512 2.576 7.328 1.808s5.712-1.232 8.496-2.048c1.504-0.496 2.832-1.424 4.24-2.144zM202.336 312.48c-0.256-0.816-0.4-1.888-0.896-2.736-2.592-4.432-5.296-8.8-7.92-13.216-1.072-1.792-2.56-1.84-3.616-0.4-0.816 1.136-1.536 3.104-1.088 4.224 2.144 5.6 4.608 11.072 7.168 16.512 0.304 0.64 1.984 1.248 2.624 0.976 2.144-0.928 3.312-2.8 3.728-5.36zM347.184 258.064c-0.256-0.16-0.496-0.32-0.752-0.464-0.432 0.16-0.928 0.24-1.264 0.496-3.056 2.384-6.16 4.72-9.088 7.28-0.64 0.56-0.768 1.824-0.88 2.8-0.16 1.552 0.064 3.136-0.112 4.672-0.464 3.856-1.072 7.696-1.552 11.552-0.080 0.72 0.224 1.488 0.336 2.224 0.176-0.016 0.336-0.032 0.512-0.064 4.272-9.488 8.528-18.992 12.8-28.496zM280.368 296.048c-1.728-4.288-5.024-5.44-8.928-6.384-3.856-0.96-7.104-0.32-10.464 2.048 0.112 1.072 0.112 2.752 0.56 4.352 0.656 2.384 2.464 3.6 4.896 3.888s3.040-1.504 3.696-3.248c0.096-0.272 0.304-0.544 0.352-0.64 3.28 0 6.416 0 9.888 0zM235.056 365.744c0.16-0.192 0.32-0.416 0.48-0.608-1.472-1.808-2.88-3.68-4.4-5.424-1.6-1.824-3.632-2.48-6.016-1.6-4.016 1.472-8.032 2.912-12.016 4.464-0.72 0.272-1.232 1.056-1.824 1.6 0.8 0.512 1.584 1.472 2.4 1.488 7.104 0.144 14.256 0.080 21.376 0.080zM299.648 283.008c-1.152 0-1.952 0.016-2.752 0-0.56-0.016-1.216 0.032-1.6-0.24-1.264-0.832-2.336-0.544-3.104 0.56-1.888 2.72-3.744 5.456-5.424 8.32-0.608 1.056-0.592 2.464-0.896 3.872 3.536-0.768 12.080-8.512 13.776-12.512zM299.312 168.208c-0.608-3.824-7.168-13.424-9.52-13.872 1.232 4.8 2.448 9.488 3.68 14.288 2.048-0.16 3.856-0.272 5.856-0.416zM329.392 290.848c0.24-0.192 0.464-0.4 0.688-0.576 0.112-5.952 2.48-12.112-1.824-18-0.352 0.816-0.752 1.312-0.752 1.808-0.016 4.976-0.032 9.968 0.144 14.928 0.032 0.608 1.152 1.216 1.744 1.84zM278.88 172.624c0-2.864 0-5.552 0-8.48-1.6 0.608-3.040 1.088-4.384 1.664-1.248 0.544-2.96 0.752-2.672 2.736 0.272 2 1.392 3.328 3.456 3.664 1.168 0.224 2.368 0.256 3.616 0.4zM176.592 371.168c0.16 0.192 0.336 0.4 0.496 0.576 1.456-0.544 2.96-0.928 4.288-1.664 0.576-0.32 1.248-1.552 1.040-1.952-0.64-1.248-1.664-2.304-2.624-3.36-0.032-0.032-0.976 0.48-1.152 0.88-0.736 1.808-1.376 3.68-2.048 5.52zM281.856 187.408c-1.824 2.496-4.976 4.048-5.36 7.696 4.56 0 6.544-2.752 5.36-7.696zM265.088 122.192c1.008 3.552 1.824 6.368 2.672 9.344 1.68-1.104 2.832-2.288 2.24-4.224-0.656-2.208-1.872-4.032-4.928-5.12zM275.776 198.144c-6.576 3.12-6.992 3.6-5.44 6.208 3.024-0.848 4.688-2.864 5.44-6.208zM212.272 249.328c0.176 0.144 0.352 0.256 0.544 0.4 2.144-0.72 4.304-1.376 6.384-2.208 0.416-0.176 0.8-1.152 0.688-1.664-0.064-0.336-1.104-0.832-1.536-0.688-1.632 0.544-3.248 1.152-4.72 2.032-0.672 0.384-0.928 1.408-1.376 2.144z"></path>
</svg>
