<!-- Generated by IcoMoon.io -->
<svg version="1.1" xmlns="http://www.w3.org/2000/svg" width="512" height="512" viewBox="0 0 512 512">
<title>monsters-of-order</title>
<g id="icomoon-ignore">
</g>
<path d="M252.784 478.944c-9.328 0-18.672 0-28 0-0.448-0.144-0.88-0.32-1.328-0.4-10.496-1.632-21.232-2.352-31.424-5.088-10.176-2.704-19.824-7.376-29.68-11.296-1.424-0.56-2.608-1.776-3.92-2.656-3.168-2.144-6.304-4.32-9.52-6.368-8.96-5.712-18.080-11.2-26.848-17.168-4.592-3.12-8.64-7.024-10.752-12.576-1.008-2.592-0.496-4.176 1.12-6.256 12.512-16.176 28.528-28.224 45.168-39.712 13.296-9.168 27.392-16.992 41.648-24.544 9.776-5.184 19.952-9.152 30.704-11.712 3.728-0.88 6.16-3.056 6.768-6.912 0.448-2.752 0.864-5.552 0.912-8.336 0.448-20.608 1.008-41.2 1.104-61.808 0.048-14.096-0.608-28.16-0.912-42.256-0.048-2.144-0.848-3.216-3.072-3.456-2.688-0.256-5.344-0.8-8-1.264-7.6-1.36-15.056-3.056-22.416-5.616-15.024-5.232-30.544-9.104-42.928-19.968-3.936-3.456-5.232-3.408-9.216 0.016-8.752 7.552-17.248 15.424-25.968 23.008-2.896 2.512-4.624 5.504-5.44 9.2-2.24 9.984-5.552 19.664-6.272 30.032-0.464 6.736-2.64 13.344-3.376 20.064-1.28 11.472-1.424 23.072-5.312 34.16-0.864 2.48-1.232 5.344-1.024 7.952 0.96 12.816 7.12 23.776 12.816 34.848 1.568 3.040 1.44 4.848-1.184 7.072-1.312 1.104-2.24 2.64-3.6 3.632-0.8 0.576-2.24 0.96-3.12 0.656-1.136-0.4-2.144-1.44-3.040-2.384-3.408-3.568-6.624-7.344-10.144-10.832-13.248-13.024-20.080-29.632-23.472-47.104-3.072-15.888-1.584-32.192 2.608-48.224 4.624-17.632 8.096-35.584 11.92-53.408 1.168-5.488 3.264-10.24 7.808-13.76 1.024-0.8 1.776-1.92 2.736-2.8 8.112-7.536 16.128-15.184 24.432-22.496 3.52-3.104 3.904-3.52 1.728-7.584-3.776-7.136-7.472-14.352-11.136-21.536-0.8-1.536-1.936-2.256-3.36-1.264-5.648 3.936-11.904 7.344-16.608 12.224-8.816 9.104-16.688 19.104-24.992 28.704-4.016 4.64-7.12 9.712-8.816 15.696-1.68 5.904-3.808 11.696-5.664 17.552-4.016 12.512-8.72 24.816-11.776 37.568-3.776 15.744-6 31.84-9.216 47.728-2.224 10.912-1.984 21.84-1.072 32.832 0.912 10.944 4.752 21.024 8.656 31.12 2.816 7.28 5.744 14.528 8.592 21.808 1.824 4.64 3.76 9.28 5.312 14.016 0.352 1.024-0.192 3.056-1.008 3.664-6.144 4.544-4.368 5.856-9.968 0.464-1.616-1.536-3.472-2.848-5.008-4.48-1.584-1.68-3.456-3.376-4.272-5.456-2.288-5.808-6.432-10.144-10.384-14.768-7.856-9.168-15.008-18.928-17.92-30.912-1.376-5.696-2.144-11.552-2.816-17.376-1.136-9.792-3.36-19.744-2.64-29.424 1.312-17.12 4.32-34.128 6.992-51.136 1.28-8.256 3.248-16.432 5.184-24.56 1.488-6.304 3.408-12.512 5.136-18.752 0.576-2.144 1.008-4.384 1.792-6.432 4.944-12.72 10.704-25.040 18.112-36.512 6.656-10.32 12.544-21.168 21.632-29.792 6.272-5.968 12.080-12.464 17.936-18.88 15.12-16.592 32.432-30.496 51.344-42.48 1.568-1.008 3.216-2 4.448-3.328 6.4-6.928 14.272-11.968 21.904-17.312 1.824-1.28 3.712-2.688 5.792-3.312 1.424-0.448 3.76-0.208 4.752 0.704 4.976 4.544 4.992 7.024 1.664 12.976-4.944 8.768-9.568 17.664-12.544 27.392-2.288 7.472-2.992 15.12-4.112 22.768-1.216 8.192 0.096 15.648 4.32 22.544 6.832 11.104 13.808 22.144 21.040 33.008 4.336 6.512 9.984 11.856 17.12 15.328 4.688 2.288 9.36 4.72 14.256 6.432 8.768 3.104 17.712 5.744 26.576 8.592 1.664 0.544 3.312 1.12 5.088 1.744 0.112-0.624 0.24-0.976 0.256-1.328 0.368-8.864 0.608-17.712 1.136-26.544 0.16-2.704 0.928-5.488 1.888-8.048 1.168-3.072 0.976-3.808-2.432-3.968-9.968-0.496-19.056-3.712-27.232-9.168-7.44-4.992-14.512-10.64-19.264-18.432-2.64-4.336-6.048-7.296-10.832-8.64-2.24-0.624-2.912-1.872-2.784-4.080 0.496-7.28 2.4-14.144 5.952-20.512 7.024-12.592 15.744-23.968 24.944-35.040 7.52-9.008 16.080-16.352 26.976-20.816 1.008-0.416 2.192-0.368 3.296-0.544-0.288 1.232-0.208 2.784-0.912 3.664-2.896 3.52-5.792 7.136-9.152 10.192-7.28 6.624-12.128 14.816-16.144 23.616-0.544 1.184-0.576 2.608-0.928 4.272 1.28-0.208 2.096-0.32 2.864-0.464 4.192-0.848 8.368-2 12.624-2.48 15.84-1.696 31.712-3.36 47.712-2.256 5.184 0.352 10.176 0.864 14.784 3.52 1.92 1.104 4.176 1.584 6.304 2.352 0.208-0.24 0.416-0.464 0.624-0.704-0.32-1.184-0.544-2.448-1.024-3.568-1.168-2.64-2.784-5.136-3.632-7.84-2.864-9.2-8.208-16.64-15.344-22.928-1.056-0.928-2-1.936-2.992-2.944-1.104-1.12-2-2.384-0.752-3.904 1.216-1.472 2.56-1.36 4.192-0.448 8.64 4.752 15.68 11.312 21.808 18.928 2.752 3.408 5.248 7.024 8.048 10.4 10.128 12.16 15.536 26.384 18.544 41.696 0.672 3.472-0.144 6.208-3.296 8.16-3.808 2.384-6.624 5.648-8.8 9.584-1.072 1.936-2.4 3.76-3.776 5.536-8.976 11.664-21.904 16.56-35.392 20.336-2.48 0.704-3.312 1.792-3.2 3.984 0.448 9.872 0.96 19.76 1.392 29.632 0.096 1.984 1.12 3.056 3.008 2.784 3.936-0.608 8.080-0.848 11.712-2.288 8.896-3.568 17.52-7.776 26.272-11.696 16.032-7.168 28.576-18.336 38.304-32.848 1.392-2.096 2.896-4.128 4.272-6.224 5.92-9.168 10.496-18.704 11.408-29.904 1.264-15.536 0.32-30.656-5.2-45.424-1.488-4.016-2.304-8.496-2.432-12.784-0.144-5.456 4.736-9.968 9.568-9.024 5.28 1.008 10.496 2.432 14.832 6.064 1.376 1.168 3.408 1.952 5.2 2.096 4.688 0.368 8.768 1.632 11.616 5.648 0.512 0.72 1.376 1.216 2.080 1.84 6.144 5.44 12.384 10.752 18.336 16.384 5.28 4.976 9.936 10.608 15.344 15.424 10.352 9.184 20.080 18.944 28.512 29.936 4.24 5.552 8.112 11.392 11.872 17.296 3.456 5.392 7.024 10.8 9.664 16.608 3.072 6.736 4.896 14.048 7.792 20.896 9.872 23.44 14.352 47.952 14.704 73.264 0.16 11.76 0 23.52 0.112 35.28 0.048 3.312 0.576 6.624 0.912 9.968 0 5.968 0 11.952 0 17.92-0.496 4.24-0.656 8.544-1.536 12.72-1.44 6.832-3.904 13.488-4.944 20.336-1.632 10.8-6.96 19.856-12.736 28.608-8.496 12.832-19.904 22.88-32.016 32.192-4.224 3.248-8.896 4.128-13.968 3.424-5.664-0.768-6.304-2.128-2.752-6.528 8.448-10.48 14.4-22.416 20.624-34.176 1.216-2.256 1.888-4.848 2.544-7.376 2.352-9.104 4.128-18.384 6.992-27.312 3.312-10.336 4.336-20.88 3.728-31.472-0.864-15.168-2.816-30.256-4.288-45.376-0.624-6.4-0.56-12.928-1.888-19.184-3.344-15.648-6.88-31.312-11.168-46.736-2.752-9.824-6.304-19.568-10.88-28.672-2.544-5.040-7.68-8.96-12.16-12.784-3.76-3.216-8.352-5.456-12.432-8.352-5.552-3.936-10.88-8.16-16.432-12.112-2.848-2.032-4.24-1.472-4.992 1.792-1.584 7.088-3.168 14.192-4.432 21.344-0.272 1.568 0.448 3.872 1.568 4.976 3.568 3.52 7.296 7.024 11.44 9.84 7.072 4.848 12.48 11.2 17.424 17.984 1.328 1.824 2.336 4.112 2.704 6.304 3.040 17.664 4.672 35.504 4.976 53.376 0.256 15.472-0.608 30.944-0.96 46.4-0.112 5.76-1.84 10.992-4.944 15.792-4.224 6.56-9.2 12.416-15.072 17.568-14.912 13.040-31.312 23.776-49.28 32.064-1.104 0.512-2.8 0.048-4.080-0.352-0.912-0.272-1.616-1.232-2.448-1.824-3.456-2.432-3.712-4.064-0.816-7.136 4.896-5.248 10.032-10.288 14.784-15.68 4.752-5.344 9.28-10.896 13.68-16.544 1.184-1.52 2-3.68 2.096-5.6 0.272-5.488 0.192-10.992 0.064-16.464-0.352-17.056-0.8-34.128-1.136-51.184-0.208-10.336-3.216-19.248-11.44-26.272-5.904-5.088-11.152-10.944-16.704-16.432-3.008-2.96-5.504-3.168-9.264-0.672-4.032 2.688-7.888 5.664-12.080 8.096-18.784 10.896-38.8 17.936-60.592 19.616-4.128 0.32-4.224 0.752-4.336 5.152-0.864 33.76-1.744 67.52-2.64 101.28-0.208 7.648-0.448 15.312-0.752 22.928-0.208 5.584-3.008 9.168-7.936 10.544-5.84 1.632-11.76 2.992-17.456 4.976-18.944 6.576-37.328 14.368-55.216 23.488-16.192 8.256-30.896 18.384-43.728 31.264-2.144 2.144-2.304 3.424-0.016 5.344 3.568 2.992 7.184 5.952 11.056 8.544 15.136 10.096 32.336 15.184 49.792 18.992 10.016 2.176 20.528 2.256 30.864 2.544 9.312 0.256 18.64-0.368 27.968-0.88 23.488-1.328 45.104-8.816 65.024-20.992 6.72-4.112 12.56-9.632 18.672-14.672 2.336-1.92 1.888-3.52-0.96-4.736-0.512-0.208-1.056-0.4-1.584-0.56-8.464-2.512-16.992-4.944-25.408-7.584-13.76-4.288-27.6-5.136-41.616-1.44-2.736 0.72-2.992 1.312-1.392 3.552 0.32 0.464 0.72 0.864 0.976 1.36 2 3.664 1.824 7.584 0.016 11.008-1.44 2.752-4.752 1.984-7.424 1.92-14.16-0.464-28.352-0.96-42.512-1.44-6.16-0.208-12.384-1.072-18.432-0.352-4.432 0.512-6.816-0.672-8.848-4.224-1.52-2.656-1.44-4.32 1.12-6.144 1.664-1.184 3.568-2.048 5.184-3.312 10.288-8.192 21.552-14.672 33.712-19.6 4.32-1.744 8.64-3.552 13.088-4.752 10.848-2.896 21.904-4.416 33.152-4.544 9.76-0.112 19.552-1.328 29.040 2.4 2.608 1.024 5.696 0.832 8.512 1.424 4.528 0.928 9.056 1.952 13.536 3.152 3.408 0.912 6.656 2.4 10.080 3.2 8.96 2.080 17.36 5.616 25.568 9.664 1.984 0.976 3.984 1.584 6.112 0.368 1.776-1.024 3.472-0.496 4.416 1.056 0.768 1.28 1.664 3.456 1.104 4.416-4.336 7.376-8.304 15.088-13.712 21.632-9.104 10.944-20.16 19.872-32.224 27.536-10.4 6.608-21.040 12.624-32.688 16.96-13.632 5.088-27.872 7.44-41.968 10.48-4.672 0.96-9.664 1.104-14.528 1.664zM249.040 130.736c3.104-0.352 7.088-0.8 11.088-1.216 14.656-1.536 27.456-7.168 38.352-17.12 4.672-4.272 3.904-9.92-1.872-12.592-3.808-1.776-7.552-3.68-11.52-5.040-4.288-1.44-8.72-2.96-13.184-3.312-9.568-0.752-19.232-0.448-28.784-1.216-7.232-0.576-14 0.72-20.624 3.168-6.528 2.432-12.992 5.024-19.456 7.632-1.824 0.752-3.424 2-2.48 4.288 2.48 6.016 5.504 11.76 11.36 15.168 11.168 6.528 23.408 9.488 37.12 10.24z"></path>
</svg>
