<!-- Generated by IcoMoon.io -->
<svg version="1.1" xmlns="http://www.w3.org/2000/svg" width="512" height="512" viewBox="0 0 512 512">
<title>monsters-of-order</title>
<g id="icomoon-ignore">
</g>
<path d="M421.008 449.264c-4.384-3.6-8.576-6.912-12.64-10.368-2.464-2.096-5.008-2.752-8.064-1.52-0.544 0.224-1.312 0.208-1.904 0.016-6.224-1.856-11.712-1.376-16.528 3.776-1.84 1.952-4.672 3.072-7.2 4.256-9.008 4.144-18.128 8.016-27.088 12.224-6.416 3.008-13.136 4.784-20.032 6.256-4.592 0.992-9.168 1.376-13.856 1.44-1.616 0.016-3.808 0.752-4.64 1.936-2.064 2.896-5.024 3.008-7.952 3.696-3.472 0.832-6.944 1.616-10.32 2.752-2.96 0.992-4.32 3.36-4.592 6.496-0.144 1.44-0.832 2.896-1.408 4.272-2.144 5.312-4.208 10.64-6.576 15.824-1.248 2.752-3.072 5.232-4.576 7.904-0.688 1.248-1.168 2.624-1.68 3.744-4.464-5.28-8.992-10.736-13.584-16.112-1.328-1.568-3.040-2.848-4.256-4.48-1.904-2.544-3.36-5.472-5.424-7.856-1.888-2.208-4.208-4.144-6.576-5.856-2.304-1.68-4.896-2.32-7.968-1.952-5.424 0.624-10.576-0.48-15.76-2.688-4.8-2.064-10.272-2.624-15.424-3.888-1.248-0.304-2.592-0.512-3.648-1.152-6.384-3.84-9.76-0.848-13.232 4.32-1.2 1.776-2.256 3.632-3.408 5.424s-2.304 3.584-3.696 5.728c-0.8-1.648-1.52-3.104-2.256-4.528-3.648-7.28-7.168-14.656-11.072-21.824-1.040-1.888-3.248-3.12-4.992-4.576-5.056-4.176-10.016-8.48-15.232-12.432-4-3.040-8.288-5.68-12.544-8.368-3.856-2.432-7.904-4.576-11.68-7.152-2.336-1.584-4.32-3.728-6.48-5.6-3.264-2.848-6.48-5.744-9.84-8.48-2.144-1.728-4.464-3.2-6.704-4.784-0.064-0.048-0.112-0.112-0.176-0.144-3.936-0.624-4.784-4.224-6.704-6.832-2.88-3.84-6.464-6-11.424-4.736-0.832-1.072-1.52-2.304-2.512-3.2-2.064-1.856-4.496-2.064-7.072-1.056-2.272 0.896-4.544 1.792-6.8 2.688-0.352 0.144-0.8 0.224-1.008 0.512-3.104 3.744-7.808 3.424-11.856 4.752-1.328 0.432-2.704 0.8-4.32 1.28 1.008-2.88 2.176-5.52 2.896-8.272 1.808-7.072 3.424-14.224 5.104-21.344 0.72-3.040 1.584-6.064 2.144-9.12 0.368-2.16 0.464-4.416 0.384-6.592-0.176-5.312-4.064-8.016-9.232-6.832-0.8 0.192-1.84-0.592-2.832-0.96 4.896-8.224 6.256-16.4 4.624-25.44-1.072-5.888-0.896-11.968-1.264-17.984 0-0.064 0.016-0.16 0-0.224-1.168-6-2.272-12.016-3.6-17.984-0.224-1.072-1.216-2.112-2.144-2.88-3.584-2.96-7.568-5.472-10.128-9.536-0.416-0.672-1.216-1.104-1.856-1.648 2.624-1.472 5.12-2.992 7.728-4.336 3.776-2 5.008-5.568 5.28-9.312 0.352-4.864-0.096-9.76 0.064-14.656 0.112-3.36 0.624-6.688 1.040-10.016 0.832-6.656 2.256-13.28 2.432-19.968 0.224-8.208 3.744-15.344 5.888-22.928 1.536-5.52 2.704-11.12 4.096-16.688 0.224-0.944 0.72-1.84 1.056-2.752 0.992-2.624 2.176-5.072 2.016-8.112-0.112-2.064 0.848-4.224 1.472-6.32 0.672-2.256 1.52-4.464 2.272-6.688 1.056-3.072 1.904-6.112 5.28-7.792 3.104-1.536 5.328-4.176 7.12-7.232 3.696-6.32 7.584-12.496 11.392-18.752 1.264-2.064 1.328-4.128 0.224-6.32-0.304-0.592-0.352-1.488-0.16-2.16 0.624-2.272 4.784-4.784 7.168-4.848 3.152-0.096 6.128-0.672 8.32-3.488 2.512-3.264 5.376-6.256 7.968-9.44 0.992-1.216 1.632-2.688 2.48-4.016 0.32-0.512 0.64-1.056 1.104-1.376 2.304-1.584 3.2-3.792 3.152-6.496-0.064-7.632-0.144-15.264-0.176-22.912 0-0.416 0.048-0.832 0.048-0.784 5.568 2.672 11.168 5.28 16.704 8.016 4.432 2.16 8.96 3.2 13.872 1.936 2.48-0.64 4.416-1.952 5.12-4.416 0.544-1.84 1.888-2.208 3.376-2.64 3.28-0.96 6.624-1.792 9.792-3.008 10.528-4.064 20.912-8.592 31.552-12.336 4.912-1.744 10.32-2 15.456-3.152 6.384-1.44 12.704-3.104 19.056-4.688 0.304-0.064 0.576-0.32 0.848-0.304 7.152 0.576 9.696-5.104 12.944-9.68 4.128-5.808 6.912-12.32 9.312-19.024 0.384-1.152 1.040-2.16 1.696-3.488 4.704 6.256 9.376 12.048 12.528 18.912 1.904 4.128 4.272 8.096 6.688 11.968 2.304 3.696 7.12 4.432 10.896 1.696 1.264-0.912 2.176-0.8 3.488-0.272 2.32 0.912 4.704 1.776 7.152 2.272 4.112 0.848 7.968 2.176 11.84 3.952 4.64 2.112 10.16 2.224 12.96-3.216 0.64-1.248 2.16-2.016 3.584-3.28 0.512 4.576 1.616 8.432 4.48 11.632 1.632 1.792 3.424 3.104 5.856 3.12 4.528 0.064 8.736 1.536 12.736 3.408 4.784 2.224 12.336 1.536 16.080-2.208 1.584-1.616 3.472-2.896 5.264-4.368-0.32 4.368-0.752 8.544-0.88 12.736-0.144 4.896 4.896 9.52 9.648 10.080 8.592 1.040 15.808-2.464 23.040-6.16 1.36-0.688 2.672-1.44 4.208-2.304 0 2.432-0.208 4.736 0.048 6.96 0.304 2.624 1.168 5.152 1.472 7.76 0.464 4.064 0.512 8.176 0.992 12.24 0.224 1.952 1.040 3.856 1.648 5.76 0.576 1.728 1.36 3.408 1.856 5.152 1.2 4.16 3.584 6.112 7.84 5.84 3.376-0.224 6.736-0.752 10.288-1.2 0.048 0.912 0.208 2.304 0.16 3.632-0.224 6.704 1.68 12.848 4.528 18.88 3.264 6.896 7.68 12.976 12.080 19.12 0.624 0.848 1.376 1.648 2.176 2.336 3.040 2.592 3.040 6.496 4.464 9.792s2.8 6.656 4.752 9.632c5.904 8.864 9.424 18.656 11.44 28.976 1.52 7.792 3.312 15.456 5.488 23.072 1.264 4.416 1.408 9.152 2.144 13.712 0.672 4.272 1.728 8.496 2.112 12.8 0.544 6.064 0.736 12.176 0.896 18.272 0.144 5.728 0.464 11.488-0.064 17.168-0.512 5.584-1.904 11.072-3.056 16.592-1.28 6.112-2.752 12.208-4.112 18.288-0.192 0.8-0.208 1.68-0.208 2.512 0.016 3.648 0.144 7.2-1.424 10.784-1.12 2.544-1.168 5.632-1.44 8.48-0.544 5.632-3.008 10.336-6.592 14.56-0.688 0.8-1.264 1.728-1.744 2.672-3.072 6.128-5.84 12.432-9.232 18.352-4.336 7.6-9.168 14.928-13.872 22.336-1.28 2.016-2.784 4-4.48 5.696-3.104 3.12-3.312 7.36-4.464 11.152-1.728 5.68-2.752 11.552-4.272 17.328-0.992 3.776-2.384 7.392-3.408 11.168-0.48 1.792-0.368 3.744-0.688 5.6-0.32 1.888-0.832 3.792-1.28 5.856zM384.208 301.984c0.112-0.208 0.224-0.416 0.352-0.624 4.432 0 8.848 0.16 13.28-0.048 3.584-0.192 7.424 0.32 10.384-2.624 0.416-0.384 1.264-0.384 1.936-0.464 3.248-0.368 6.496-0.64 9.728-1.104 0.944-0.144 2.048-0.512 2.688-1.152 3.216-3.248 5.84-6.96 6.112-11.68 0.224-3.952-0.208-7.968 0.064-11.92 0.272-3.744-1.12-6.432-3.856-8.8-4.208-3.68-8.544-7.216-14.48-6.896-4.096 0.208-7.152-0.784-9.152-4.784 2.208-1.904 4.544-3.808 6.784-5.888 4.384-4.096 8.752-8.256 13.056-12.448 3.904-3.84 6.32-7.232 2.208-12.528-0.592-0.752-0.96-1.728-1.376-2.64-2.208-4.752-4.384-9.536-6.576-14.288-1.472-3.2-3.056-6.32-4.384-9.552-1.616-3.856-2.752-7.92-4.592-11.68-1.312-2.688-3.072-5.376-5.264-7.392-2.576-2.368-5.728-4.176-8.848-5.856-1.488-0.8-3.568-1.152-5.216-0.848-2.112 0.384-4.416 1.216-6.048 2.576-5.056 4.176-11.264 5.808-17.184 7.76-10.208 3.36-20.816 5.44-30.56 10.224-1.28 0.64-2.848 0.72-4.688 1.152 0.224-1.616 0.256-2.784 0.592-3.84 2.016-6.384 4.16-12.752 6.128-19.168 1.008-3.264 1.648-6.656 2.64-9.92 1.376-4.496 3.008-8.96 4.464-13.44 1.472-4.544 3.008-9.104 4.16-13.712 0.32-1.28-0.64-2.896-1.056-4.32-0.352-1.2-0.88-2.336-1.072-3.568-0.208-1.2-0.096-2.432-0.208-3.648-0.352-3.84-3.648-6.528-7.376-5.568-1.888 0.48-3.856 1.584-5.264 2.944-2.848 2.832-5.328 6.064-8 9.104-2.528 2.88-5.104 5.728-7.648 8.592-0.256 0.272-0.304 0.72-0.528 1.008-1.776 2.272-3.568 4.544-5.36 6.832-0.576-0.88-0.672-1.376-0.672-1.904-0.096-10.752-0.224-21.536-0.208-32.288 0-5.12-4.992-10.32-9.792-10.688-3.488-0.272-7.056-1.2-10.336-2.464-5.056-1.936-9.856-4.592-15.44-4.704-7.024-0.144-14.064-0.352-21.088-0.32-3.904 0.016-8.016-0.432-11.344 2.48-0.368 0.32-0.992 0.384-1.52 0.432-4.464 0.352-6.784 3.424-8.256 7.024-1.44 3.584-2.304 7.424-3.376 11.168-1.728 5.968-3.408 11.952-5.072 17.856-4.016-7.104-8.096-14.16-12-21.296-1.936-3.488-4.592-4.944-8.256-4.016-3.696 0.944-5.568 3.44-5.44 7.392 0.176 6.176 0.672 12.368 0.528 18.512-0.144 6.944-0.88 13.856-1.264 20.8-0.16 2.96 0.096 5.936-1.44 8.688-0.368 0.672-0.304 1.632-0.304 2.48-0.016 6.016-0.016 12.016-0.016 18.032 0 0.992 0 1.968 0 2.944-0.208 0.064-0.432 0.144-0.64 0.208-1.216-1.216-2.512-2.384-3.632-3.696-2.992-3.472-5.76-7.12-8.896-10.448-4.016-4.272-8.256-8.384-12.544-12.384-3.216-3.008-6.528-6-10.080-8.576-3.248-2.336-6.832-4.256-10.368-6.128-3.968-2.112-8.016-1.36-11.488 1.424-4.64 3.696-7.808 8.576-10.784 13.536-1.328 2.208-1.408 5.232-2.88 7.28-2.96 4.096-1.568 8.224-0.832 12.32 0.944 5.28 4 9.68 6.64 14.24 2.896 5.008 5.584 10.128 8.416 15.184 0.96 1.728 2.048 3.376 3.12 5.056 1.616 2.48 3.328 4.896 4.832 7.44 1.104 1.904 1.744 4.064 2.848 5.968 2.704 4.592 5.584 9.104 8.336 13.664 0.592 1.008 0.992 2.144 1.632 3.584-0.736-0.272-1.008-0.368-1.28-0.464-6.992-2.368-13.904-5.072-21.008-6.992-9.12-2.464-18.432-4.304-27.664-6.336-2-0.432-4.096-0.896-6.096-0.72-3.936 0.32-7.52 5.312-7.152 9.36 0.064 0.784-0.096 1.616-0.272 2.384-0.32 1.312-1.008 2.592-1.072 3.904-0.272 5.568-0.208 11.168-0.592 16.704-0.256 3.744 0.992 6.464 3.968 8.656 1.52 1.12 2.752 2.64 4.016 4.048 0.368 0.416 0.784 1.2 0.624 1.616-0.944 2.368-2.048 4.688-3.072 7.024-0.688 1.568-2.048 3.168-1.952 4.704 0.352 6.496 0.688 13.072 1.856 19.456 0.736 4.064 1.408 8.048 1.536 12.208 0.16 4.544 3.264 10.064 8.432 9.648 2.384-0.192 4.896-0.672 7.104-1.616 6.944-2.992 13.744-6.256 20.608-9.376 1.376-0.624 2.832-1.12 4.576-1.792-0.592 2.576-1.152 4.576-1.52 6.592-1.056 5.696-2 11.424-3.072 17.12-0.8 4.336-2.096 8.624-2.48 12.976-0.432 4.784 1.472 9.216 4.96 12.368 4.416 3.968 10.112 6.528 13.168 12.064 1.040 1.888 2.704 3.44 3.68 5.376 1.568 3.104 4.384 5.2 7.696 4.624 3.264-0.576 6.336-1.888 8.416-4.672 3.424-4.592 6.64-9.328 10.080-13.904 1.472-1.952 3.28-3.632 5.264-5.76 0.144 2.704 0.096 4.784 0.368 6.8 1.088 7.76 2.16 15.536 3.488 23.28 0.736 4.256 2.064 8.288 6.736 10.16 2.304 0.912 4.368 2.464 6.544 3.728 3.888 2.272 10.976 0.896 13.92-2.464 3.040-3.472 4.912-7.472 6.576-11.696 1.168-2.992 2.736-5.808 4.208-8.896 1.040 2.672 1.888 4.944 2.832 7.2 0.96 2.32 2.048 4.592 2.992 6.912 0.32 0.8 0.576 1.744 0.528 2.592-0.352 5.152 1.904 8.896 6.96 10.080 3.424 0.8 6.8 1.792 10.208 2.592 3.376 0.8 7.056 0.384 10.592 0.352 3.728-0.048 7.472-0.224 11.184-0.48 4.752-0.352 9.536-0.736 14.272-1.264 5.104-0.576 8.272-3.216 8.656-8.656 0.096-1.2 0.272-2.624 0.992-3.44 2.368-2.736 2.704-6.096 3.36-9.344 0.752-3.904 1.36-7.84 1.904-11.168 4.112 5.856 8.416 12.048 12.8 18.128 0.736 1.008 1.84 2.016 2.992 2.368 2.224 0.688 4.592 1.264 6.912 1.264 3.568 0 7.152-0.912 10.656-0.72 5.744 0.352 9.632-3.408 14.080-5.808 1.28-0.688 2.144-2.784 2.512-4.384 0.416-1.808 0.272-3.808 0.016-5.696-0.992-6.944-2.048-13.856-3.2-20.768-1.952-11.968-4.016-23.92-5.952-35.888-0.432-2.752-0.512-5.584-0.736-8.368 1.072 0.88 1.584 1.856 2.368 2.576 6.256 5.728 12.528 11.424 18.816 17.088 3.408 3.056 6.896 6.016 10.256 9.12 2.528 2.32 4.832 4.896 7.392 7.152 4.672 4.064 11.904 2.88 16.24 0.016 4.64-3.040 6.32-8 7.632-13.136 1.264-4.96 0.784-9.632-2.336-13.68-4.064-5.232-8.384-10.272-12.656-15.344-2.304-2.752-4.704-5.376-7.072-8.048z"></path>
</svg>
