<!-- Generated by IcoMoon.io -->
<svg version="1.1" xmlns="http://www.w3.org/2000/svg" width="512" height="512" viewBox="0 0 512 512">
<title>monsters-of-order</title>
<g id="icomoon-ignore">
</g>
<path d="M232.592 255.376c-3.12 4.832-7.648 3.024-11.808 1.824-3.632-1.040-7.040-2.672-10.944-2.816-1.872-0.048-3.696-1.024-5.568-1.456-6.72-1.6-13.424-3.168-20.16-4.688-4.736-1.056-9.44-2.336-14.256-2.88-2.976-0.352-6.096 0.528-9.36 0.88 1.184 2.56 0.976 5.168 2.56 7.552 1.312 1.968 1.392 4.8 1.856 7.28 1.136 6 1.92 12.080 3.28 18.048 1.76 7.648 4.048 15.152 5.872 22.768 1.264 5.376 1.36 10.896-1.056 16-1.568 3.328-4.784 5.312-8.16 6.336-4.624 1.408-9.424 2.24-14.16 3.264-3.84 0.832-7.744 1.408-11.504 2.432-3.68 0.992-7.184 2.288-10.56 4.384-5.264 3.28-11.136 5.616-16.72 8.368-0.064 0.016-0.112 0.048-0.192 0.064-4.176 1.68-4.384 2.432-1.776 6.144 1.44 2.032 2.752 4.16 4.208 6.192 0.64 0.928 1.36 1.856 2.224 2.544 4.832 4.016 9.648 8.064 14.624 11.92 3.712 2.88 7.616 5.52 11.44 8.272 3.488 2.512 7.12 4.896 10.416 7.616 2.128 1.76 3.792 4.048 5.712 6.144 2.192-0.272 4.368 1.456 5.12 4.16 1.232 4.416 2.464 8.832 3.712 13.232 0.064 0.256 0.192 0.512 0.192 0.784 0.064 2.288 0.112 4.576 0.16 6.864-2.976 1.936-5.632 4.64-9.44 4.752-1.2 0.016-2.496-0.72-3.632-1.312-1.76-0.976-3.424-2.144-5.104-3.232-0.832-0.528-1.632-1.088-2.496-1.6-0.976-0.576-1.888-1.504-2.912-1.616-3.968-0.4-6.672-3.184-9.856-4.96-4.464-2.496-8.784-5.2-13.136-7.824-1.6-0.976-3.216-1.888-4.72-2.976-4-2.864-8-5.712-11.872-8.704-2.928-2.256-5.712-4.752-8.592-7.12-1.52-1.264-3.136-2.432-4.64-3.712-4.848-4.112-9.728-8.192-12.896-13.952-1.776-3.232-4.112-6.192-7.296-8.32-0.768-0.512-1.36-1.392-1.808-2.224-1.552-2.928-3.328-5.792-4.416-8.896-1.024-2.88-3.216-4.8-4.624-7.248-1.68-2.88-3.168-6.144-2.912-9.792 0.064-0.944-0.112-2.144-0.672-2.848-1.68-2.080-1.44-4.432-1.568-6.816-0.096-1.52-0.72-3.024-1.136-4.528-0.4-1.44-0.896-2.816-1.232-4.272-0.416-1.92-0.304-4.064-1.136-5.776-1.36-2.8-1.104-5.68-1.472-8.544-0.208-1.616-1.088-3.168-1.648-4.736-0.256-0.72-0.576-1.472-0.608-2.224-0.112-12.384-0.16-24.768-0.16-37.136 0-0.768 0.064-1.712 0.512-2.256 1.712-2.144 1.616-4.688 1.888-7.2 0.112-1.136 0.624-2.224 1.024-3.296 0.16-0.432 0.624-0.784 0.672-1.2 0.416-2.88 1.888-5.504 2.496-8.224 0.832-3.712 2.304-6.976 4.256-10.112 0.208-0.32 0.48-0.736 0.464-1.088-0.096-3.392 1.712-6.256 3.024-9.152 1.552-3.392 3.632-6.656 5.936-9.584 7.184-9.12 15.776-16.768 25.68-22.8 7.408-4.528 15.008-8.832 22.8-12.688 6.048-3.008 12.56-5.088 18.752-7.824 7.088-3.136 13.792-6.96 18.848-13.056 6-7.248 10.144-15.264 10.272-24.928 0.096-5.728 0-11.456 0.208-17.168 0.144-4.016 0.352-8.080 1.024-12.064 0.48-2.912 1.664-5.728 2.72-8.528 1.088-2.848 2.464-5.568 3.6-8.384 1.024-2.56 1.824-5.2 2.864-7.744 0.992-2.432 2.304-4.544 4.384-6.416 3.184-2.864 5.824-6.352 8.656-9.584 1.088-1.248 2.176-2.512 3.168-3.84 0.72-0.928 1.296-1.968 1.936-2.96 0.32-0.48 0.608-1.040 0.992-1.44 0.512-0.512 1.232-0.848 1.712-1.392 5.52-5.984 13.216-6.128 20.4-7.248 9.584-1.504 19.28-1.664 29.008-1.648 6.096 0.016 12.224-0.368 18.288-0.928 3.136-0.272 6.288-1.040 9.312-2.016 5.168-1.664 10.656-2.672 15.104-5.952 2.912-2.144 5.776-4.464 8.272-7.088 3.76-4 7.12-8.4 10.816-12.48 0.624-0.672 2.128-0.736 3.216-0.688 0.304 0.016 0.768 1.408 0.784 2.176 0.112 2.256 0 4.528 0.048 6.784 0.048 3.744-2.128 6.656-3.648 9.776-1.856 3.856-4.432 7.184-7.344 10.352-2.88 3.136-4.96 7.072-7.92 10.16-2.496 2.608-5.712 4.512-8.64 6.672-0.272 0.208-0.768 0.192-1.152 0.192-2.816 0.144-5.008 1.616-7.072 3.328-1.136 0.928-2.080 2.192-3.344 2.8-5.952 2.864-9.904 7.696-13.376 13.056-0.256 0.4-0.672 0.784-0.688 1.2-0.256 4.928-3.264 9.152-3.168 14.208 0.112 6.976-0.272 13.952-0.64 20.928-0.352 6.416 1.632 12.288 3.696 18.224 1.728 5.008 3.344 10.16 4.016 15.376 0.464 3.632-0.512 7.536-1.392 11.2-2.656 11.088-9.328 20.144-15.088 29.712-2.864 4.752-7.584 6.912-11.152 10.56-4.64 4.736-9.488 9.36-13.744 14.416-3.6 4.304-5.344 9.68-5.68 15.296-0.352 5.632-0.736 11.264 0.688 16.88 1.248 4.88 3.904 8.896 7.28 12.432 3.136 3.376 6.656 6.416 10.048 9.648z"></path>
<path d="M129.504 350.528c2.496-3.376 6.624-4.592 10.816-5.824 4.96-1.456 9.888-3.024 14.8-4.64 6.256-2.032 12.48-4.176 18.704-6.256 2.24-0.736 4.624-1.232 6.72-2.24 1.2-0.576 2.144-1.92 2.928-3.072 1.296-1.92 2.448-3.952 3.472-6.032 1.2-2.432 2.464-4.896 3.136-7.488 0.32-1.296-0.688-2.88-0.976-4.384-0.16-0.88-0.048-1.776-0.048-2.672-0.016-1.248 0.256-2.56-0.096-3.712-1.888-6.368-3.888-12.72-5.984-19.040-2.464-7.44-5.136-14.832-7.6-22.24-0.304-0.88-0.416-2.384 0.064-2.848 0.944-0.896 2.096-2.016 3.856-1.2 2.592 1.2 5.408 1.936 7.872 3.344 6.192 3.552 12.912 4.944 19.888 5.744 1.36 0.16 2.704 0.992 3.92 1.712 2.288 1.312 4.368 3.056 6.768 4.112 1.936 0.848 4.208 1.2 6.336 1.264 2.976 0.096 5.712 0.528 8.288 2.24 3.232 2.128 6.992 0.56 8.496-3.28 2.128-5.504 4.176-11.072 6.352-16.544 0.672-1.712 1.776-3.264 2.512-4.96 2.384-5.472 4.704-10.976 7.024-16.464 2.096-5.008 4.16-10.064 6.288-15.088 1.088-2.56 2.24-5.104 3.552-7.552 0.352-0.64 1.36-1.264 2.080-1.296 1.152-0.016 2.288 0.304 2.672 1.856 2.592 9.936 6.56 19.36 10.528 28.8 0.48 1.152 0.688 2.432 1.088 3.632 1.936 5.792 3.92 11.568 5.824 17.376 0.928 2.816 1.408 5.84 2.672 8.528 2.288 4.784 5.632 8.64 10.896 10.512 2.048 0.736 4.064 1.776 5.792 3.088 2.096 1.616 4.016 1.024 6.192 0.416 3.232-0.928 6.512-1.664 9.824-2.384 9.696-2.096 19.84-2.496 28.88-7.296 0.688-0.368 1.52-0.896 2.224-0.816 1.056 0.144 2.192 0.608 3.056 1.248 0.32 0.224 0.192 1.44-0.064 2.080-2.144 5.296-4.512 10.512-6.544 15.84-1.184 3.072-1.824 6.336-2.864 9.472-1.664 5.008-3.792 9.904-5.12 15.040-1.312 5.12-0.56 10.144 3.552 14 1.104 1.040 2.752 1.552 4.128 2.304 1.888 1.056 3.808 2.128 5.68 3.184 1.728 0.992 3.488 1.92 5.12 3.024 3.136 2.096 6.144 4.432 9.36 6.448 4.784 3.008 9.68 5.792 14.528 8.704 1.2 0.72 2.384 1.456 3.488 2.304 1.712 1.344 1.392 3.536-0.416 4.752-3.344 2.256-6.624 4.672-9.936 6.992-0.208 0.16-0.368 0.416-0.608 0.528-4.576 2.432-9.12 4.928-13.76 7.2-2.432 1.2-5.056 2.048-7.6 3.024-2.656 1.024-4.176 3.024-4.848 5.68s-1.408 5.264-3.536 7.2c-0.224 0.208-0.4 0.576-0.416 0.896-0.048 2.704-1.264 4.944-2.544 7.2-0.4 0.72-0.608 1.664-0.576 2.496 0.064 2.704-0.768 5.040-2.256 7.28-0.368 0.56-0.112 1.92 0.32 2.608 1.296 2.128 3.072 3.968 4.176 6.192 3.504 6.928 6.784 14 10.192 20.992 1.92 3.92 3.952 7.776 5.84 11.712 0.464 0.992 0.736 2.176 0.736 3.264 0 3.328-1.232 4.256-4.432 3.504-6.992-1.6-13.856-3.536-20.448-6.608-4.96-2.336-10.448-3.504-15.632-5.376-2.672-0.976-5.264-2.224-7.808-3.536-3.136-1.632-6.288-2.192-9.52-0.48-2.224 1.184-4.368 2.512-6.544 3.808-0.4 0.224-0.736 0.688-1.152 0.768-4.128 0.784-7.072 3.536-10.064 6.128-0.848 0.736-1.632 1.808-1.968 2.864-2.336 7.904-4.528 15.84-6.768 23.776-0.112 0.368-0.272 0.736-0.464 1.104-3.712 7.408-7.328 14.896-11.232 22.224-1.232 2.288-3.168 4.224-4.944 6.16-0.272 0.304-1.728 0.048-2.128-0.416-1.776-2.096-3.952-4.16-4.928-6.624-1.472-3.792-1.936-7.952-3.168-11.856-0.768-2.432-2.080-4.688-3.168-7.024-1.056-2.288-2.336-4.512-3.168-6.864-2.352-6.704-4.528-13.488-6.784-20.24-0.192-0.56-0.56-1.056-0.736-1.632-1.968-6-6.912-7.136-12.24-7.456-4.944-0.304-9.696 0.928-14.512 1.856-2.656 0.512-5.472 0.208-8.128 0.768-6.88 1.456-13.68 3.504-20.608 4.64-5.504 0.896-10.256 3.584-15.408 5.248-2.080 0.672-4.224 1.088-6.352 1.6-0.576 0.144-1.184 0.16-1.776 0.144-1.664-0.048-3.344-0.16-5.216-0.256-0.256-1.152-0.672-2.8-0.976-4.464-0.064-0.368 0.256-0.848 0.528-1.2 4.32-5.376 7.584-11.392 10.608-17.552 0.528-1.088 1.712-1.856 2.336-2.88 2.384-3.92 4.672-7.904 6.976-11.856 1.056-1.856 2.048-3.712 3.072-5.584 1.456-2.64 2.912-5.248 4.32-7.904 0.144-0.272 0.048-0.832-0.16-1.104-2.352-3.216-2.432-7.248-3.952-10.784-1.2-2.816-2.096-5.744-3.136-8.608-0.144-0.368-0.4-0.768-0.4-1.136 0.016-4.752-3.296-7.344-6.496-9.936-7.488-6.096-15.376-11.568-23.856-16.208-1.872-1.024-3.392-2.704-4.944-4.208-3.184-3.168-6.288-6.416-9.568-9.776zM264.944 402.912c6.752 0.464 12.56-1.632 17.536-6.208 1.104-1.024 2.384-1.888 3.696-2.608 7.856-4.256 12.304-10.736 13.264-19.632 0.144-1.296 0.432-2.64 0.928-3.84 2.64-6.752 2.544-13.376-0.464-19.984-0.464-1.024-0.768-2.144-0.88-3.232-0.816-7.856-4.528-13.904-11.088-18.272-1.248-0.832-2.432-1.856-3.44-2.976-4.896-5.376-10.944-8.032-18.224-8.080-2.96-0.016-5.952 0.016-8.896-0.256-8.544-0.816-15.312 3.024-21.728 7.968-1.088 0.832-2.256 1.616-3.504 2.224-8.912 4.32-13.584 11.392-14.064 21.28-0.064 1.44-0.304 2.912-0.688 4.304-1.088 3.904-1.552 7.776-0.48 11.808 0.624 2.304 1.248 4.672 1.36 7.024 0.352 7.248 2.976 13.344 8.608 17.968 3.744 3.072 7.584 6.096 11.664 8.704 6.208 3.952 12.976 6.096 20.512 4.64 1.968-0.416 3.952-0.56 5.92-0.816z"></path>
<path d="M442.832 271.344c1.968 0.016 3.712 0.576 4.88 2.176 4.896 6.784 9.68 13.68 12.384 21.728 0.608 1.824 1.152 3.68 1.872 5.472 1.408 3.488 2.176 7.024 2.080 10.848-0.144 5.776 0.112 11.568 0.192 17.344 0 0.784 0.064 1.664-0.224 2.352-2.288 5.36-2.24 11.088-3.056 16.704-0.72 4.944-2.288 9.856-4.128 14.56-3.472 8.8-8.112 17.024-13.44 24.848-1.872 2.752-4.512 4.464-6.928 6.512-3.744 3.168-7.504 6.352-11.024 9.744-5.248 5.056-10.4 10.16-17.408 12.72-4.992 1.824-9.984 3.632-15.008 5.36-2.64 0.896-5.36 1.472-7.952 2.464-1.968 0.768-3.712 2.016-5.632 2.912-4.256 1.984-8.704 3.136-13.424 3.472-1.2 0.064-1.872-0.416-2.512-1.472-2.608-4.336-3.904-9.12-5.104-13.968-0.224-0.896-0.416-1.824-0.768-2.672-1.68-4.384-0.56-7.392 2.656-10.624 3.488-3.504 7.76-5.152 12.128-6.88 1.44-0.576 2.816-1.6 3.888-2.72 3.28-3.472 6.336-7.136 9.632-10.576 1.776-1.872 3.712-3.632 5.824-5.12 3.744-2.672 5.584-6.672 7.856-10.4 0.368-0.608 0.464-1.712 0.16-2.288-1.296-2.336-0.848-4.8-0.72-7.232 0.096-1.632-0.464-2.464-1.888-3.264-5.408-3.008-10.768-6.048-16-9.312-4.336-2.672-8.432-5.792-12.768-8.48-4.672-2.864-9.488-5.504-14.304-8.112-2.096-1.152-2.464-2.864-0.608-4.368 1.808-1.44 3.696-2.24 6.208-2.128 5.744 0.272 11.504 0.48 17.232-0.992 2.384-0.608 5.040-0.304 7.552-0.064 9.056 0.832 18.064 2.256 27.12 2.64 7.872 0.32 15.040-2.432 20.048-8.864 2.128-2.72 3.504-6.096 4.88-9.312 1.712-4.048 3.6-8.128 4.336-12.384 0.88-5.008 3.68-9.648 3.072-14.928-0.208-1.872-0.688-3.712-1.056-5.712z"></path>
</svg>
