<!-- Generated by IcoMoon.io -->
<svg version="1.1" xmlns="http://www.w3.org/2000/svg" width="512" height="512" viewBox="0 0 512 512">
<title>monsters-of-order</title>
<g id="icomoon-ignore">
</g>
<path d="M54.112 367.888c3.488 2.528 6.432 5.856 10.080 6.992 4.384 1.376 6.56 3.44 7.136 7.824 0.176 1.248 1.2 2.512 2.144 3.472 0.48 0.512 1.952 0.8 2.432 0.432 3.568-2.608 7.712-4.848 10.336-8.24 6.704-8.72 13.952-16.864 22.288-24.032 4.944-4.24 10.048-8.224 13.712-13.792 2.416-3.664 5.232-7.040 8.048-10.416 1.568-1.856 3.616-3.296 5.232-5.136 1.136-1.296 2.080-2.848 2.656-4.432 0.192-0.512-1.056-2.224-1.728-2.272-11.904-0.656-22.608-4.816-32.944-10.48-3.488-1.904-7.792-2.32-11.392-4-3.52-1.664-7.584-2.992-8.416-7.952-0.24-1.392-2.096-2.944-3.568-3.664-7.088-3.536-13.104-7.888-15.664-15.984-1.008-3.184-3.184-6-4.848-8.992-4.512-8.128-9.136-16.176-13.392-24.432-1.008-1.984-0.864-4.56-1.136-6.896-0.752-6.368 0.576-12.656 0.816-18.96 0.32-8.432 0.144-16.864 0.128-25.296 0-1.040-0.080-2.336-0.656-3.104-1.984-2.624-0.752-4.752 0.656-6.944 4.288-6.752 8.576-13.488 12.864-20.24 0.288-0.464 0.752-0.864 0.816-1.344 1.136-6.912 6.432-10.816 10.992-15.28 2.432-2.384 4.72-4.944 6.944-7.536 4.512-5.376 10.32-8.768 16.576-11.712 6.752-3.184 13.152-7.088 20.56-8.8 1.904-0.432 3.728-1.664 5.344-2.848 2.72-2 5.728-2.032 8.848-1.984 2.992 0.048 6 0.032 8.992 0.048 3.28 0.032 6.576-0.384 9.536 1.776 0.96 0.704 2.464 0.992 3.68 0.896 6.080-0.464 11.776 1.296 17.616 2.48 1.856 0.384 3.808 0.464 5.712 0.56 3.376 0.144 6.864-0.432 9.888 1.776 0.416 0.288 1.088 0.56 1.52 0.432 5.248-1.488 9.472 1.664 13.68 3.616 3.76 1.728 6.896 4.944 10.048 7.792 4.848 4.336 9.584 8.816 14.176 13.44 3.328 3.344 7.344 6.176 8.656 11.232 0.72 2.8 3.76 4.336 6.624 3.856 3.152-0.528 5.008-2.624 5.2-5.664 0.464-6.848 0.56-13.68 0.864-20.528 0.144-3.424 0.56-6.848 0.56-10.272 0-2.192-0.528-4.384-0.8-6.416-2.8 0.336-5.152 0.624-7.52 0.944-0.512 0.080-1.152 0.176-1.44 0.512-2.72 3.2-6.32 2.336-9.584 1.728-1.472-0.272-3.28-1.872-3.776-3.296-0.464-1.248 0.432-3.184 1.184-4.608 1.296-2.512 2.912-4.816 4.384-7.232 0.672-1.088 1.392-2.144 2.032-3.248 2.272-4.144 4.512-8.32 6.72-12.464 1.152-2.144 2.32-4.272 3.392-6.432 2.896-5.824 5.712-11.664 8.608-17.488 4.608-9.28 9.248-18.56 13.856-27.84 1.824-3.712 3.568-7.488 5.392-11.232 0.368-0.752 0.96-1.712 1.632-1.904 3.104-0.864 3.040-3.184 2.848-5.584-0.32-3.952 1.104-7.008 4.096-9.616 1.728-1.536 2.944-3.664 4.56-5.376 0.528-0.56 1.872-1.104 2.336-0.816 3.584 2.24 7.136 4.24 8.24 9.152 1.184 5.296 3.296 10.384 2.768 15.984-0.048 0.384 0.096 0.864 0.32 1.2 3.584 5.328 4.656 11.472 6.032 17.568 1.568 6.944 3.76 13.744 6 20.48 2.384 7.232 5.056 14.368 7.808 21.472 1.344 3.488 3.488 6.704 4.72 10.224 1.584 4.56 2.896 9.248 3.808 13.984 0.528 2.8 0.128 5.76 0.128 8.656 0 5.184-1.904 7.392-7.088 8.048-0.944 0.128-1.92 0.096-2.896 0.096-2.656 0-5.328 0-8.672 0 0.368 8.224 0.704 16.272 1.008 24.32 0.080 1.584-0.096 3.2-0.096 4.8 0 1.488-0.128 3.040 0.224 4.432 0.576 2.32 2.704 3.056 4.384 1.344 2.528-2.56 5.2-4.528 8.8-5.44 1.296-0.336 2.608-1.616 3.392-2.8 4.96-7.392 12.656-10.992 20.368-14.288 10.144-4.368 21.136-4.992 31.904-6.752 13.488-2.224 26.192-0.192 38.816 4.032 0.704 0.24 1.44 0.416 2.176 0.624 4.368 1.248 8.288 2.656 12.080 5.808 6.336 5.28 14.032 8.944 20.864 13.664 2.8 1.92 5.104 4.72 7.248 7.424 2.768 3.52 4.96 7.52 7.776 10.992 1.856 2.32 3.2 4.768 2.768 7.568-0.704 4.464 1.808 7.056 4.96 8.848 3.76 2.128 4.752 5.2 5.328 9.136 1.248 8.464 2.992 16.864 4.512 25.296 0.176 0.944 0.512 1.92 0.384 2.848-1.344 10.816-1.776 21.888-4.56 32.336-1.856 6.992-6.912 13.152-10.768 19.568-3.376 5.584-7.008 11.008-10.672 16.432-1.136 1.632-2.512 3.328-4.144 4.384-14.576 9.424-29.328 18.56-46.144 23.568-0.192 0.080-0.416 0.128-0.608 0.24-5.472 3.28-11.184 5.28-17.76 5.040-3.2-0.128-4.384 3.344-2.144 5.824 5.344 5.904 11.44 10.72 18.56 14.576 4.048 2.192 7.712 5.872 10.384 9.712 3.92 5.632 8.672 9.568 15.152 11.568 0.32 0.096 0.704 0.048 0.944 0.224 5.104 3.92 8.416 0.224 11.936-2.768 1.104-0.944 2.368-1.728 3.424-2.72 0.464-0.432 0.752-1.2 0.816-1.856 0.144-1.056-0.032-2.144 0.048-3.2 0.288-4.336 2.32-6.896 5.568-7.088 4.144-0.24 6.864 2.176 8.272 6.032 1.68 4.576 4.128 8.864 6.144 13.344 1.136 2.512 2.128 5.088 3.088 7.664 1.536 4.192 2.896 8.48 4.608 12.624 0.624 1.488 1.824 2.96 3.152 3.904 6.096 4.32 8.72 10.864 11.664 17.296 2.48 5.472 5.088 10.912 7.856 16.272 1.296 2.512 3.392 4.608 4.656 7.136 1.008 2.048 1.392 4.432 1.808 6.704 1.392 7.808 4.72 14.816 8.416 21.744 0.528 0.96 0.896 2.944 0.416 3.328-0.912 0.752-2.912 1.376-3.68 0.864-3.584-2.336-7.568-2.96-11.664-3.392-0.576-0.048-1.248-0.512-1.616-0.992-2.768-3.856-6.656-4.528-11.040-4.272-1.568 0.096-3.248-0.144-4.704-0.704-6.288-2.336-12.8-3.040-19.44-3.2-8.368-0.192-16.704-0.384-25.040-0.944-12.368-0.8-24.752-1.728-37.056-2.992-2.464-0.24-4.752-2.176-7.040-3.296 0.912-3.376 1.664-6.464 2.656-9.44 0.32-0.912 1.328-1.616 2.128-2.32 2.24-1.984 4.576-3.856 6.768-5.904 1.824-1.68 2.288-3.728 0.32-5.584-2.144-2-4.432-3.904-6.816-5.632-6.72-4.912-13.488-9.808-20.368-14.56-1.808-1.248-4-1.904-5.904-3.040-0.768-0.464-1.104-1.536-1.776-2.224-0.912-0.896-2.048-2.368-2.912-2.24-0.96 0.128-2.432 1.76-2.432 2.752-0.128 11.904-4.080 22.912-7.568 34.032-1.152 3.632-2.944 7.104-4.624 10.56-0.32 0.672-1.488 1.040-2.336 1.296-1.632 0.512-3.376 0.704-4.96 1.28-6.656 2.464-7.584 4.096-7.952 11.104-0.128 2.144-1.952 4.192-2.192 6.384-0.368 3.392-2.32 5.632-4.272 8.048-3.536 4.416-8.704 6.176-13.616 8-3.68 1.376-7.296 2.224-9.424 5.984-0.576 0.992-1.904 1.728-3.040 2.192-12.608 5.232-25.504 9.296-39.152 10.752-6.8 0.72-13.52 1.984-20.288 2.912-1.568 0.224-3.2 0.288-4.768 0.128-2.992-0.336-5.936-1.296-8.896-1.296-11.232 0-20.272-6.080-29.984-10.384-3.184-1.424-6.8-1.92-9.952-3.344-3.68-1.664-7.76-3.008-8.656-8.080-0.24-1.392-2.144-2.864-3.616-3.616-7.088-3.568-13.040-7.952-15.664-16-1.104-3.376-3.328-6.432-5.248-9.488-5.376-8.48-10.672-17.008-13.632-26.72-0.48-1.568-0.192-3.376-0.368-5.056-0.24-2.32-0.384-4.672-0.944-6.944-0.192-0.768-1.472-1.76-2.288-1.776-0.848-0.032-1.824 0.864-2.528 1.584-1.376 1.376-2.512 2.96-3.856 4.368-2.272 2.336-4.56 4.672-6.96 6.864-0.816 0.752-2.032 1.52-3.056 1.568-5.824 0.176-8.576 2.624-8.432 8.416 0.080 2.48 0.992 4.944 1.376 7.424 0.336 2.128 0.192 4.368 0.72 6.416 0.384 1.44 1.328 2.912 2.384 4 2.272 2.288 3.28 4.8 2.048 7.824-1.184 2.96-3.584 3.904-6.672 4.032-1.952 0.080-3.872 0.816-5.808 1.232-2.176 0.48-4.336 0.944-6.512 1.44-1.424 0.336-2.816 0.768-4.224 1.104-2.464 0.608-4.96 1.104-7.392 1.808-2.528 0.704-5.104 1.376-7.536 2.384-3.52 1.472-6.848 3.472-10.432 4.8-2.24 0.816-4.8 1.136-7.2 1.136-10.384 0.032-20.8 0.032-31.152-0.384-5.040-0.192-9.472 0.896-13.664 3.536-2.32 1.44-4.464 2.096-7.424 0.8-2.608-1.136-5.856-0.8-8.816-1.184-1.184-0.144-2.336-0.432-3.488-0.656 0.288-1.52 0.288-3.2 0.992-4.48 0.944-1.728 2.768-3.008 3.664-4.768 6.992-13.712 14-27.392 20.672-41.28 5.68-11.84 11.248-23.76 16.24-35.936 1.904-4.672 5.056-8.368 7.248-12.672 2-3.92 2.768-8.48 4.032-12.768 0.464-1.76 0.864-3.52 1.248-5.040zM436.16 232.256c0.368-30.272-23.52-55.856-53.616-56.672-24-0.656-41.52 11.104-54.096 30.816-2.416 3.776-4.432 8.224-5.184 12.576-0.96 5.728-0.464 11.712-0.672 17.584-0.048 1.568-0.048 3.296-0.704 4.672-2.032 4.32-2.336 8.816-0.624 13.056 2.096 5.2 4.48 10.432 7.616 15.056 3.616 5.328 7.632 10.656 14.704 12.048 0.752 0.144 1.44 0.864 2.048 1.424 2.032 1.872 3.824 4.080 6.080 5.664 3.728 2.656 7.584 5.152 12.576 4.848 2.56-0.176 5.136 0.416 7.68 0.24 4.32-0.288 9.232 0.624 12.512-2.8s7.296-4.608 11.472-5.856c24.528-7.248 39.552-28.848 40.224-52.672zM194.32 388.832c0.432 4.464 0.48 8.992 1.44 13.328 1.424 6.416 3.472 12.672 5.344 18.992 1.536 5.248 3.232 10.432 7.44 14.288 2.048 1.872 4.224 3.616 6.224 5.536 8.176 7.904 17.856 12.608 29.008 14.72 30.272 5.68 62.608-18.576 62.608-50.928 0-7.776-0.096-15.632-4.144-22.752-1.776-3.152-3.728-6.368-4.8-9.776-2.944-9.616-8.768-16.752-17.424-21.632-2-1.136-4.144-2.272-6.368-2.72-6.272-1.328-12.656-0.992-19.088-2.432-7.28-1.616-15.712-2.624-23.088 1.872-0.752 0.464-1.904 0.56-2.8 0.432-4.864-0.656-8.752 1.776-13.040 3.52-10.080 4.080-14.48 12.624-18.944 21.488-2.656 5.232-1.808 10.624-2.416 16.048zM100.192 220.192c-2.192 9.328 2.384 17.76 8.224 25.616 3.28 4.416 7.856 7.856 11.088 12.288 3.232 4.464 7.472 7.232 12.048 9.76 1.856 1.040 3.76 2.576 5.712 2.656 8.384 0.336 16.816 1.424 25.152-0.944 3.232-0.912 6.704-0.96 10.048-1.328 4.080-0.432 8.704 0.912 12.032-2.24 6.080-5.808 12.192-11.664 17.488-18.144 3.136-3.824 5.472-8.512 4.752-14.224-0.576-4.512 0.192-9.152 0.048-13.728-0.24-7.088 0.144-14.288-4.128-20.704-1.92-2.896-2.912-6.368-4.672-9.392-2.656-4.624-5.152-9.424-8.512-13.52-6.144-7.488-13.712-13.296-23.472-15.328-31.552-6.56-60.944 17.104-65.76 48.528-0.464 3.136-0.048 6.416-0.048 10.704z"></path>
</svg>
