<!-- Generated by IcoMoon.io -->
<svg version="1.1" xmlns="http://www.w3.org/2000/svg" width="32" height="32" viewBox="0 0 32 32">
<title>factions-order-hunters-of-huanchi</title>
<path d="M13.812 29.635c-1.006-1.282-1.835-2.514-1.835-2.741 0-0.754 0.981-0.704 2.414 0.101l1.408 0.779 1.483-0.905c1.232-0.754 1.559-0.855 1.986-0.629 0.302 0.151 0.503 0.453 0.453 0.654-0.075 0.402-3.746 5.129-3.973 5.104-0.075 0-0.955-1.056-1.936-2.364z"></path>
<path d="M11.851 24.707c-2.062-1.257-3.897-2.414-4.073-2.565-0.151-0.176-0.377-0.955-0.453-1.735-0.176-1.433-0.176-1.458 0.453-1.458 0.83 0 1.031-0.603 0.83-2.715-0.101-0.981-0.050-2.062 0.101-2.565 0.277-0.88 0.251-0.88-1.358-2.389l-1.634-1.509 0.277-1.886c0.151-1.031 0.302-2.741 0.302-3.772l0.025-1.886 1.131-0.151c0.629-0.101 2.137-0.528 3.369-0.955 4.274-1.509 5.154-1.509 9.982 0.075 1.835 0.603 2.892 0.805 3.57 0.729l0.955-0.126-0.025 1.584c-0.025 0.88 0.101 2.741 0.277 4.098l0.327 2.489-0.855 0.654c-0.478 0.352-1.257 1.031-1.735 1.483-0.729 0.704-0.83 0.93-0.654 1.634 0.075 0.427 0.302 1.785 0.478 2.992s0.427 2.338 0.578 2.514c0.126 0.176 0.226 0.83 0.226 1.458l-0.025 1.131-2.514 1.71c-2.263 1.534-5.431 3.445-5.683 3.445-0.050 0-1.785-1.031-3.872-2.288zM17.056 23.727c0.553-0.427 0.679-0.779 0.83-2.439 0.201-2.263 0.729-3.445 2.338-5.154l1.131-1.157-0.302-1.232c-0.377-1.458-0.654-1.835-1.433-1.835-0.654 0-0.805 0.377-0.905 2.263l-0.075 1.131-0.729-1.056c-0.528-0.779-0.981-1.157-1.659-1.333-1.257-0.352-1.584-0.176-2.69 1.333l-0.955 1.307-0.075-1.835c-0.075-1.735-0.101-1.81-0.704-1.81-0.478 0-0.704 0.201-1.006 0.88-0.629 1.509-0.478 2.313 0.629 3.319 0.553 0.478 1.081 1.207 1.157 1.584s0.352 0.88 0.629 1.131c0.327 0.302 0.503 0.955 0.629 2.414 0.151 1.71 0.277 2.062 0.805 2.489 0.805 0.629 1.584 0.629 2.389 0zM17.031 10.627c1.131-0.905 1.182-1.106 0.427-2.514-0.427-0.83-0.478-1.131-0.251-1.509 0.377-0.603 0.377-0.729-0.050-0.729-0.729 0-0.855 1.383-0.251 2.565 0.402 0.754 0.377 0.779-0.352 1.509l-0.729 0.754-0.679-0.88c-0.553-0.729-0.629-0.981-0.427-1.408 0.503-0.93 0.277-2.54-0.377-2.54-0.427 0-0.427 0.126-0.050 0.754 0.302 0.478 0.277 0.654-0.402 2.288-0.201 0.453 1.282 2.464 1.835 2.464 0.176 0.025 0.779-0.327 1.307-0.754zM11.223 10.501c0.377-0.981 0.302-1.257-0.402-1.584-0.83-0.377-0.981-0.226-0.578 0.453 0.503 0.779 0.101 0.905-1.333 0.352-0.88-0.327-1.307-0.603-1.232-0.855 0.050-0.201 0.126-0.805 0.201-1.358 0.176-1.257-0.201-0.955-0.805 0.704-0.553 1.458-0.402 1.685 1.634 2.439 1.835 0.654 2.238 0.629 2.514-0.151zM23.97 9.973c1.257-0.603 1.307-0.654 1.157-1.408-0.201-1.006-0.779-2.439-1.006-2.439-0.075 0-0.075 0.629 0.025 1.383l0.151 1.408-1.157 0.503c-1.358 0.578-1.584 0.478-1.006-0.377 0.226-0.352 0.402-0.704 0.402-0.779 0-0.101-1.433 0.528-1.71 0.754-0.050 0.050 0.101 0.478 0.302 1.006 0.453 1.031 0.528 1.031 2.841-0.050zM13.083 7.735c0.151-0.427-0.251-0.729-1.659-1.207-1.383-0.453-1.961-0.327-1.961 0.478 0 0.779 2.062 1.71 2.917 1.333 0.327-0.151 0.629-0.427 0.704-0.603zM21.808 7.861c1.333-0.578 1.483-0.905 0.779-1.559-0.427-0.377-0.553-0.352-2.011 0.327-0.855 0.402-1.559 0.805-1.559 0.905 0 0.251 0.83 0.83 1.207 0.855 0.176 0 0.905-0.251 1.584-0.528z"></path>
<path d="M14.994 23.098c-0.176-0.226-0.377-1.257-0.453-2.338-0.075-1.584-0.226-2.062-0.679-2.565-0.503-0.528-0.578-0.805-0.453-1.81 0.075-0.679 0.226-1.207 0.327-1.207s0.377 0.453 0.603 1.006c0.327 0.855 0.503 1.006 1.131 1.006 1.131 0 1.509-0.226 1.961-1.232l0.402-0.905 0.226 1.131c0.176 0.93 0.126 1.282-0.277 2.011-0.277 0.528-0.553 1.685-0.654 2.841-0.151 1.509-0.302 2.011-0.654 2.188-0.629 0.352-1.131 0.302-1.483-0.126z"></path>
<path d="M23.292 26.241c-2.791-0.453-3.596-0.679-3.394-1.006 0.050-0.101 1.106-0.754 2.313-1.458 1.559-0.905 2.54-1.282 3.344-1.333 1.056-0.075 1.131-0.050 1.207 0.528 0.101 1.006-0.302 3.596-0.578 3.646-0.126 0.025-1.433-0.126-2.892-0.377z"></path>
<path d="M5.641 26.342c-0.126-0.101-0.201-1.006-0.201-2.037v-1.835h0.729c0.402 0 1.257 0.352 1.936 0.83 2.967 1.986 3.118 2.213 1.81 2.69-1.056 0.352-4.048 0.629-4.274 0.352z"></path>
<path d="M25.303 21.715c-0.528-0.126-0.629-0.327-0.704-1.182-0.075-0.905 0.050-1.182 0.855-2.087 0.503-0.553 1.282-1.257 1.685-1.559l0.754-0.553 0.578 0.754c0.327 0.402 0.603 0.88 0.603 1.031 0 0.503-2.087 3.294-2.64 3.545-0.277 0.126-0.779 0.151-1.131 0.050z"></path>
<path d="M4.258 20.408c-0.729-0.754-1.333-1.509-1.333-1.71 0-0.427 1.232-1.76 1.609-1.76 0.151 0 0.629 0.352 1.081 0.754 0.578 0.528 0.855 1.081 0.955 1.861 0.377 2.514-0.402 2.791-2.313 0.855z"></path>
<path d="M6.42 17.516c-2.011-1.584-2.313-2.238-1.609-3.621 0.377-0.704 0.402-0.704 0.855-0.302 1.584 1.534 2.539 2.917 2.539 3.721 0 1.157-0.503 1.232-1.785 0.201z"></path>
<path d="M24.046 16.837c0-1.333 0.025-1.383 1.458-2.64 1.383-1.182 1.509-1.232 2.011-0.88s0.503 0.402 0.126 1.483c-0.277 0.855-0.754 1.433-1.76 2.263-0.754 0.629-1.483 1.131-1.609 1.131s-0.226-0.603-0.226-1.358z"></path>
<path d="M6.496 13.594c-0.704-0.729-1.056-1.282-1.056-1.76 0-0.83 0.126-0.855 1.182-0.025 1.131 0.855 1.659 1.71 1.458 2.364-0.226 0.704-0.377 0.654-1.584-0.578z"></path>
<path d="M23.593 14.373c-0.754-0.754-0.201-1.735 1.559-2.816 0.578-0.377 0.754-0.402 0.93-0.126 0.402 0.629 0.226 1.131-0.578 1.886-1.383 1.282-1.584 1.383-1.911 1.056z"></path>
</svg>
