<!-- Generated by IcoMoon.io -->
<svg version="1.1" xmlns="http://www.w3.org/2000/svg" width="512" height="512" viewBox="0 0 512 512">
<title>monsters-of-order</title>
<g id="icomoon-ignore">
</g>
<path d="M291.696 512c-0.256-0.368-0.432-0.896-0.768-1.072-0.624-0.304-1.392-0.256-2-0.544-9.248-4.848-18.496-9.68-27.696-14.624-6.032-3.248-11.792-7.072-17.968-10.032-7.648-3.648-15.68-6.496-23.392-10-4.048-1.824-7.696-4.528-11.696-6.496-3.824-1.872-7.904-3.28-11.856-4.896-2.672-1.104-5.344-2.192-8.032-3.328-5.248-2.224-10 0.624-10.576 6.32-0.304 3.072-0.592 6.176-1.12 9.2-0.592 3.376-2.4 4.32-5.568 2.944-15.28-6.672-30.416-13.6-44.8-22.752 2.144-3.344 0.496-6.304-0.88-9.472-2.656-6.032-4.768-12.272-7.52-18.256-1.952-4.192-4.352-8.256-7.024-12.048-0.896-1.28-3.2-2-4.944-2.144-3.68-0.32-7.392-0.048-11.104-0.096-6.192-0.096-8.848-2.48-8.848-8.752 0-10.176 0.48-20.368 0.592-30.544 0.256-19.904 0.448-39.776 0.496-59.664 0.032-11.392-0.272-22.768-0.496-34.176-0.048-2.496-0.224-5.024-0.832-7.424-0.4-1.6-1.296-3.504-2.576-4.4-1.968-1.376-2.144-2.544-1.104-4.448 5.52-9.952 10.768-20.048 16.576-29.84 7.776-13.152 15.776-26.176 24.048-39.024 3.424-5.344 7.728-10.128 11.728-15.12 1.248-1.568 3.232-2.768 4.944-1.504 1.152 0.848 2.048 3.056 1.872 4.496-1.12 9.6-2.768 19.152-3.872 28.752-0.88 7.728-3.12 15.024-5.968 22.192-3.232 8.176-3.648 16.416-1.152 24.944 4.096 13.968 8.096 27.968 11.776 42.048 3.968 15.168 6.224 30.672 8.192 46.224 0.448 3.456 2.528 5.344 5.456 6.496 2.592 1.024 3.424-1.104 3.968-2.88 1.344-4.272 2.48-8.624 3.696-12.944 2.176-7.776 4.256-15.6 6.592-23.328 1.408-4.656 2.832-5.92 5.28-5.248 2.768 0.752 4.144 1.504 3.776 6.704-0.528 7.2 1.344 13.696 4.672 20.096 2.496 4.8 3.648 10.304 5.568 15.424 0.592 1.6 1.568 4.096 2.672 4.256 3.472 0.528 4.88-1.376 5.52-5.072 0.832-4.608 1.952-9.152 3.168-13.648 0.48-1.776 1.568-3.392 2.080-4.432 4.080 0.848 7.728 1.376 11.216 2.432 1.408 0.432 2.896 1.744 3.632 3.072 3.856 7.104 7.472 14.352 11.152 21.52 0.368 0.704 0.496 1.68 1.056 2.128 1.248 1.008 2.672 2.4 4.032 2.432 1.2 0 2.88-1.424 3.504-2.656 2-3.904 3.728-7.952 5.376-12.032 1.104-2.72 2.32-3.776 5.776-3.376 4.656 0.528 7.776 2.224 10.176 6.176 1.296 2.176 3.376 3.92 5.2 5.776 4.8 4.8 9.696 9.472 14.496 14.272 3.104 3.104 4.176 2.832 6.432-0.928 5.632-9.344 7.824-19.568 8.224-30.304 0.128-3.12 1.248-5.648 4.224-7.024 3.296-1.52 6.176-0.832 8.048 2.176 1.904 3.008 3.12 6.496 6.8 8.080 0.608 0.256 0.608 1.648 1.12 2.352 1.12 1.52 2.4 2.928 3.632 4.368 1.296-1.376 3.152-2.496 3.824-4.128 3.632-8.752 6.976-17.616 10.368-26.48 3.92-10.256 7.728-20.544 11.68-30.8 3.568-9.296 5.2-19.024 6.72-28.8 0.48-3.024 1.856-5.904 2.368-8.928 0.944-5.376 1.904-10.8 2.224-16.256 1.024-17.376 1.728-34.752 2.576-52.128 0.048-1.008-0.144-2.272 0.4-2.928 1.28-1.52 2.752-3.424 4.448-3.824 1.296-0.304 3.648 1.12 4.496 2.448 1.808 2.8 3.504 5.12 7.232 5.472 1.072 0.096 2.576 1.744 2.928 2.944 5.2 18.528 10.624 37.024 15.168 55.728 1.952 7.968 2.8 16.416 2.672 24.624-0.128 9.024 2.496 17.328 4.272 25.872 1.6 7.632 3.6 15.168 4.672 22.848 0.752 5.392 0.672 10.992 0.192 16.448-0.256 2.768-1.6 5.872-3.392 8.048-10.32 12.48-21.328 24.4-31.344 37.104-8.768 11.12-17.392 22.528-24.48 34.752-5.28 9.104-8.8 19.472-11.6 29.696-6.128 22.352-14.88 43.392-27.824 62.64-0.928 1.344-3.008 2-4.656 2.768-2.032 0.928-4.144 1.632-6.224 2.432-0.528 0.048-1.12 0.048-1.728 0.048z"></path>
<path d="M5.52 123.232c0.528-0.928 1.2-1.824 1.552-2.832 4.224-12.352 11.696-22.704 20.256-32.24 10.848-12.096 22.016-23.952 33.248-35.728 6.368-6.704 13.376-6.224 19.104 0.848 2.368 2.944 4.496 2.704 5.696-1.12 2.896-9.376 10.144-14.128 18.528-17.344 3.296-1.28 7.248-1.072 10.896-1.168 6.048-0.176 12.128-0.048 18.416-0.048-0.048 0.256-0.176 1.28-0.576 2.176-11.072 24.752-18.992 50.576-25.968 76.688-1.696 6.4-5.024 8.576-11.616 8.096-14.096-1.056-28.096-4.368-42.352-2.304-10.304 1.472-19.68 5.152-25.104 14.752-3.376 5.968-6.224 12.304-8.528 18.752-1.12 3.12-0.432 6.896-0.528 10.4-0.032 0.768 0.080 1.6-0.032 2.368-0.32 2.448 1.152 5.92-1.824 6.976-3.424 1.232-7.328 1.248-10.448-1.6-0.208-0.192-0.48-0.32-0.72-0.48 0-2 0-4 0-6 0.304-0.224 0.848-0.48 0.832-0.704-0.080-5.872-0.224-11.728-0.368-17.568 0-0.096-0.304-0.192-0.448-0.304 0-7.232 0-14.432 0-21.616z"></path>
<path d="M193.824 306.32c-1.744-2.752-3.872-4.896-4.624-7.456-3.056-10.528-5.568-21.216-8.528-31.776-2.432-8.72-5.392-17.296-7.696-26.048-1.12-4.272-1.632-8.832-1.648-13.248-0.032-4.752-1.072-8.848-3.456-13.056-4.544-7.952-1.568-16.72 6.992-21.12 1.952-1.008 3.072-2.032 3.28-4.048 0.656-7.152 1.424-14.304 1.808-21.472 0.304-5.856 1.296-11.472 3.728-16.848 1.744-3.872 1.12-4.592-2.8-6.048-11.696-4.32-23.92-6.256-36.096-8.48-1.552-0.272-3.2 0.032-4.752-0.192-2.928-0.432-6.032-0.576-8.656-1.696-5.296-2.272-6.048-4.656-4.544-10.192 2.704-10.032 5.472-20.016 7.952-30.096 1.52-6.176 2.128-12.624 3.92-18.72 1.776-6 4.8-11.616 6.8-17.552 2.576-7.632 4.72-15.392 6.944-23.152 0.72-2.496 2.352-3.632 4.752-4.432 8.592-2.88 17.456-4.128 26.48-4.592 5.776-0.304 11.504-1.328 17.248-1.856 9.248-0.848 18.496-1.568 27.744-2.368 1.696-0.144 3.376-0.352 5.056-0.656 5.168-0.896 5.952-1.696 6.48-6.832 0.32-3.248 2.032-5.504 5.152-6.256 7.824-1.872 15.376-4.448 23.728-4.368 8.624 0.048 17.28-1.696 25.92-2.544 4.88-0.48 9.776-0.576 14.656-1.12 3.952-0.448 6.848 0.944 8.944 4.176 6.272 9.632 4.32 7.28 15.456 8.448 1.104 0.128 2.192 0.176 3.296 0.128 3.808-0.176 6.368 1.68 9.072 4.256 8.128 7.68 12.768 17.168 16.368 27.504 5.248 15.072 10.976 29.968 16 45.12 1.568 4.752 1.648 10 2.304 15.024 0.272 2.128-0.72 3.648-2.752 4.48-2.928 1.168-3.904 3.504-3.744 6.48 0.192 4.096 0.448 8.224-2.192 11.824-0.048 0.080-0.128 0.176-0.128 0.272 0.8 5.376-3.328 6.544-6.928 8.272-7.024 3.344-14.032 6.752-21.056 10.096-7.744 3.696-11.296 11.392-9.344 19.776 1.6 6.8 3.008 13.648 4.256 20.528 0.32 1.856 0.096 4-0.496 5.792-4.768 14.080-9.456 28.144-16.096 41.52-6.448 12.992-8.704 27.104-9.248 41.504-0.352 9.12-1.456 18.128-4.8 26.704-0.704 1.744-1.552 3.456-2.368 5.168-1.12 2.32-3.232 2.768-5.552 2.72-2.256-0.032-2.128-1.904-2.704-3.328-1.12-2.768-2.4-5.472-3.744-8.144-0.352-0.704-1.248-1.6-1.824-1.552-0.656 0.048-1.52 0.944-1.808 1.68-1.104 2.88-1.872 5.904-3.056 8.768-2.224 5.456-4.48 10.88-6.992 16.176-1.456 3.072-2.896 3.2-5.696 1.2-0.976-0.704-1.856-1.552-2.88-2.144-2.128-1.232-3.344-0.48-3.552 2-0.144 1.872-0.096 3.856-0.672 5.6-0.368 1.168-1.568 2.752-2.576 2.848-1.2 0.144-2.976-0.72-3.744-1.744-3.024-3.92-3.856-8.704-2.896-13.376 2.256-11.152 0.608-22.32 0.768-33.472 0.080-4.624-6.304-8.832-10.768-7.248-1.296 0.448-2.592 2.48-2.928 3.968-2.096 9.856-3.824 19.776-5.92 29.6-1.072 5.072-2.704 10.032-4.048 15.024-0.544 2-1.408 4.528-3.552 4.032-1.456-0.352-3.024-2.832-3.424-4.608-1.408-6.528-2.048-13.216-3.52-19.744-1.232-5.424-3.328-10.656-4.768-16.016-2.624-9.68-2.976-19.504-1.472-29.424 0.224-1.472 0.368-3.008 0.224-4.48-0.080-0.944-0.704-2.544-1.168-2.576-1.008-0.080-2.496 0.368-3.056 1.152-1.696 2.448-3.456 4.976-4.496 7.744-3.6 9.632-6.928 19.344-10.272 29.072-0.624 1.776-1.248 3.696-1.232 5.52 0.032 3.856-2.224 6.4-5.008 9.92zM314.688 114.8c0 0.032 0 0.080 0 0.096 0.608 0 1.2-0.032 1.808 0 5.632 0.144 8.080-2.72 6.944-8.256-1.6-7.824-3.456-15.6-4.848-23.456-1.232-6.768-2.176-6.944-7.856-2.72-11.744 8.8-23.504 17.616-35.216 26.496-2.88 2.176-5.728 4.368-8.368 6.768-0.72 0.656-1.024 2.080-1.024 3.12 0 0.32 1.632 0.944 2.528 0.944 3.504 0 6.992-0.048 10.48-0.304 11.872-0.896 23.728-1.824 35.568-2.72zM171.296 84.128c0.928 5.968 8.832 17.68 13.248 20.096 0.848 0.48 1.856 0.752 2.8 1.024 11.792 3.296 23.952 4.096 36.080 4.944 1.056 0.080 2.976-1.248 3.232-2.256 1.152-4.496 1.856-9.12 2.848-14.368-3.952-0.576-7.52-1.408-11.12-1.552-8.256-0.32-16.544 0.224-24.624-2.352-5.504-1.744-11.12-3.152-16.704-4.592-1.744-0.448-3.6-0.592-5.744-0.944zM241.344 180c0 1.6-0.224 3.248 0.096 4.768 0.144 0.672 1.456 1.568 2.192 1.52 2.368-0.128 7.472-5.008 8.080-7.28 1.52-5.968 3.232-11.904 4.576-17.904 0.32-1.472 0.192-3.568-0.656-4.72-3.408-4.672-7.024-9.2-10.848-13.52-0.928-1.056-3.024-1.52-4.528-1.424-0.72 0.048-1.568 2-1.904 3.2-1.232 4.832-2.192 9.696-3.376 14.528-0.72 2.928-0.368 5.632 1.728 7.792 3.552 3.648 5.28 7.872 4.624 13.024z"></path>
<path d="M370.56 19.76c1.872 0.144 3.152 0.032 4.272 0.368 1.808 0.544 3.472 1.504 5.28 2.096 4.128 1.392 8.352 2.528 12.448 4.032 10.080 3.696 20.528 6.448 29.552 12.72 2.88 2 6.704 2.624 9.744 4.48 11.792 7.104 23.472 14.4 35.12 21.696 3.808 2.368 7.552 4.896 11.072 7.68 7.568 5.952 15.68 11.328 20.352 20.304 1.376 2.624 4.304 4.4 6.256 6.768 0.976 1.168 1.952 2.896 1.824 4.272-0.192 2.208-2.4 1.904-4.096 1.904-7.28-0.032-14.72-1.024-21.792 0.208-8.88 1.52-17.424 4.88-26.096 7.472-3.904 1.168-7.776 2.448-11.632 3.744-2.080 0.704-4.224 1.328-6.128 2.352-4.496 2.448-9.296 4.048-13.52 7.28-6.4 4.88-11.376 4.528-16.32 0.208-1.328-1.168-2.704-3.008-2.88-4.672-0.832-8.304-1.168-16.624-1.856-24.928-0.192-2.576-1.024-5.104-1.328-7.68-0.48-4.048-0.896-8.096-1.072-12.144-0.272-6.096-0.72-12.224-0.352-18.272 0.368-6.144-2.704-10.304-7.344-12.624-7.104-3.568-11.2-9.392-14.928-15.856-2.080-3.52-4.080-7.072-6.576-11.392z"></path>
</svg>
