<!-- Generated by IcoMoon.io -->
<svg version="1.1" xmlns="http://www.w3.org/2000/svg" width="512" height="512" viewBox="0 0 512 512">
<title>monsters-of-order</title>
<g id="icomoon-ignore">
</g>
<path d="M223.072 295.264c23.232-28.64 17.888-66.4-7.952-80.224-12.32-6.608-28.56-3.232-37.376 7.6-4.736 5.824-8.928 12.512-14.768 16.928-4.256 3.2-10.8 3.392-16.336 4.912-0.464-1.328-0.944-2.64-1.408-3.968 5.344-6.544 10.912-12.912 15.952-19.68 5.344-7.216 10.16-14.816 16.848-24.688-1.104-0.992-3.904-5.504-7.6-6.448-9.408-2.448-19.264-4.736-28.816-4.288-6.368 0.304-13.776 4.288-18.080 9.024-1.856 2.016 2.912 10.112 4.912 16.224-11.184 3.808-19.888-2.992-24.928-10.944-2.368-3.712 1.968-13.712 5.872-18.944 5.632-7.568 13.616-13.392 19.296-18.736 6.528 3.040 10.592 4.992 14.688 6.896 1.424-3.12 2.832-6.256 4.256-9.344-2.256-0.56-4.528-1.152-7.904-2.016 2.72-2.56 5.12-6.864 8.080-7.296 19.376-2.8 38.864-4.912 58.352-6.816 2.784-0.272 7.952 1.152 8.304 2.672 4.736 20.16 24.288 25.92 36.976 38.112 27.216 26.144 38.784 57.76 32.368 94.272-2.208 12.608-12.64 23.792-19.264 35.648-1.296 2.288-2.4 4.688-5.36 10.48 15.504 0 28.992 1.328 42.176-0.272 25.792-3.12 49.568-13.392 68.8-30.432 11.232-9.968 18.976-24.288 26.848-37.488 2.592-4.336 2.512-12.24 0.24-16.848-1.84-3.744-8.752-4.992-13.424-7.36-1.344 4.208-4.656 8.944-3.696 12.512 5.088 18.48-0.816 35.52-17.408 44.064-2.592 1.328-8.576-0.304-10.8-2.64-13.696-14.384-11.536-49.216 2.208-63.648 12.4-13.040 23.504-27.296 37.008-43.2 38.704-2.016 56.48 29.84 49.296 66.672-2.56 13.152-3.632 26.768-7.92 39.312-3.152 9.216-8.704 19.184-16.176 25.040-21.232 16.608-42.384 34.736-66.56 45.68-25.056 11.376-53.28 16.624-81.92 8.816-11.744-3.2-24.208-3.856-36.272-5.872-27.36-4.608-53.92-40.432-54.976-67.936-0.912-23.52 0.944-45.552 20.448-62.288 11.568-9.92 22.992-6.96 25.92 8 1.344 6.848 0.192 14.176 0.16 21.264-0.080 11.232-0.048 22.496-0.048 37.248z"></path>
<path d="M112.144 279.616c12.096 14.56 25.328 25.408 44.944 25.664 11.744 0.128 18.48 4.448 20.4 17.872 1.136 7.84 8.496 15.008 13.824 21.904 2.88 3.744 7.36 6.256 11.104 9.296-0.48 0.992-0.992 1.968-1.488 2.96-17.376 0-35.088 2.096-52.064-0.544-20.48-3.2-39.344-12.016-56.864-24.256-28.128-19.616-44.528-55.568-35.984-88.928 4.128-16.064 14.848-29.072 29.104-38.112 2.56-1.616 8.144-0.432 11.312 1.328 9.68 5.248 19.344 10.752 27.968 17.52 4.336 3.424 7.568 9.376 9.264 14.848 5.36 17.296-5.504 37.872-21.568 40.448z"></path>
<path d="M337.36 214.96c4.224-4.56 8.576-9.184 15.040-16.176-19.024-1.216-35.328-2.256-52.608-3.376-3.2 6.544 1.104 13.536 16.112 22.768-6.032 13.536-5.584 14.304 12.8 21.776-0.816 1.056-1.344 2.24-2.256 2.88-16.736 11.776-17.2 11.232-26.656-5.472-6.608-11.664-14.576-22.608-22.64-33.36-7.568-10.128-16.512-19.248-23.824-29.536-1.648-2.32-0.384-9.728 1.92-11.296 15.248-10.32 31.984-15.088 50.672-10.56 9.52 2.288 19.264 3.584 28.544 5.28-1.136 4.8-3.776 9.52-2.592 12.88 0.944 2.688 6.496 3.808 11.664 6.464-0.304-6.464-0.464-10.208-0.624-14.016 14.976 0.352 29.296 10.64 29.936 20.272 0.816 10.864-18.656 31.824-35.488 31.456z"></path>
<path d="M466.752 168.304c7.088 4.416 14.768 7.2 19.568 12.592 15.92 17.872 30.048 37.872 24.416 63.232-4.448 19.968-9.056 39.072-28.672 54.144-15.984 12.256-31.504 19.968-50.208 23.856-2.048 0.432-4.288 0.048-7.632 0.048 0.832-3.856 0.832-7.040 2.16-9.488 2.88-5.312 7.6-9.856 9.456-15.408 4.4-13.104 11.296-21.216 25.040-27.328 25.408-11.296 30.016-51.2 22.096-70.688-3.904-9.728-9.696-18.704-16.224-30.944z"></path>
<path d="M41.408 178.464c-19.6 19.088-20.992 41.776-18 65.248 1.536 11.968 4.064 23.824 18.48 27.872 2.864 0.816 6.496 3.856 7.216 6.576 3.888 14.656 6.976 29.536 10.32 44.336-21.936 4.416-53.664-22.752-57.888-50.48-8.032-52.496 17.040-90.176 39.856-93.536z"></path>
</svg>
