<!-- Generated by IcoMoon.io -->
<svg version="1.1" xmlns="http://www.w3.org/2000/svg" width="512" height="512" viewBox="0 0 512 512">
<title>monsters-of-order</title>
<g id="icomoon-ignore">
</g>
<path d="M332.352 0c5.168 5.68 10.464 11.28 15.536 17.056 4.64 5.296 9.136 10.752 13.616 16.176 1.296 1.584 2.384 3.312 3.456 5.056 0.816 1.328 1.392 2.768 2.16 4.112 1.92 3.44 4.16 6.736 5.728 10.336 2.016 4.592 3.6 9.424 5.152 14.208 0.272 0.832-0.448 2.048-0.912 2.992s-1.088 1.808-1.76 2.624c-5.088 6.016-10.368 11.904-15.264 18.064-3.52 4.432-6.448 9.312-9.952 13.792-2.992 3.856-6.432 7.376-9.6 11.088-4.784 5.648-9.504 11.296-14.144 16.848 6.080 6.688 14.224 6.992 21.632 8.912 5.472 1.408 11.072 2.384 16.64 3.392 2.176 0.4 4.464 0.272 6.688 0.352 1.44 0.048 2.896 0 4.96 0-0.816 1.744-1.168 3.2-2.048 4.224-3.408 3.968-7.040 7.76-10.528 11.648-1.6 1.792-3.36 3.488-4.592 5.504-3.648 6.016-8.304 11.12-13.248 16.064-3.392 3.392-6.288 7.296-9.232 11.12-7.792 10.16-15.168 20.656-21.248 31.984-4.624 8.608-9.584 17.056-14.24 25.664-1.296 2.384-1.968 5.104-3.152 7.584-1.712 3.648-3.616 7.168-5.52 10.96 24.24 6.064 48.784 2.976 72.736 3.536-2.368 5.008-4.944 10.304-7.328 15.696-2.208 4.944-3.744 10.24-6.4 14.896-2.096 3.664-5.168 6.848-8.272 9.792-2.784 2.672-4.848 5.68-6.912 8.864-3.872 5.936-8.016 11.792-12.496 17.296-11.568 14.208-23.568 28.032-35.008 42.336-8.656 10.8-18.304 20.512-28.416 29.872-9.344 8.64-18.56 17.424-27.856 26.112-3.136 2.928-6.384 5.76-9.6 8.608-15.008 13.408-30.32 26.464-46.768 38.16-6.512 4.64-12.432 10.080-18.864 14.816-3.92 2.88-8.288 5.2-12.528 7.664-2.64 1.536-5.424 2.848-8.864 4.672 0.24-1.952 0.064-3.456 0.624-4.624 1.664-3.6 3.296-7.248 5.472-10.544 6.32-9.52 12.624-19.056 19.424-28.224 11.024-14.832 22.688-29.152 33.6-44.048 9.744-13.328 18.304-27.408 26-42.080 6.704-12.768 14.576-24.928 21.632-37.536 4.064-7.264 7.664-14.784 11.2-22.336 0.816-1.712 0.48-3.968 0.72-6.224-1.376-0.064-2.304-0.048-3.2-0.208-3.696-0.624-7.392-1.328-11.088-2-2.528-0.464-5.040-1.024-7.536-1.44-4.544-0.736-9.2-1.168-13.68-2.208-5.152-1.2-10.176-2.928-15.584-4.544 1.6-1.664 2.688-3.344 4.224-4.32 4.736-2.992 6.752-7.968 9.088-12.528 7.52-14.672 14.608-29.568 22.176-44.224 2.848-5.552 6.848-10.512 9.904-15.984 4.672-8.384 9.296-16.848 13.36-25.536 2.64-5.632 4.272-11.744 6.24-17.296-5.36-1.456-10.352-3.248-15.472-4.080-5.312-0.864-10.784-0.784-16.176-1.184-2.576-0.192-5.136-0.448-7.68-0.672-5.456-0.512-10.896-1.072-16.896-1.648 0.784-1.408 1.44-3.056 2.48-4.384 6.144-7.712 12.384-15.296 17.312-23.952 6.32-11.088 12.736-22.24 20.112-32.64 7.248-10.192 15.664-19.536 23.76-29.104 4.8-5.648 9.088-11.552 12.784-18.016 1.808-3.152 4.576-5.776 6.576-8.864 3.056-4.752 5.984-9.584 8.672-14.576 5.248-9.776 10.672-19.376 17.536-28.16 2.304-2.928 3.872-6.432 5.616-9.744 1.504-2.88 2.768-5.872 4.16-8.816 0.352-0.064 0.72-0.208 1.088-0.32z"></path>
</svg>
