<!-- Generated by IcoMoon.io -->
<svg version="1.1" xmlns="http://www.w3.org/2000/svg" width="512" height="512" viewBox="0 0 512 512">
<title>monsters-of-order</title>
<g id="icomoon-ignore">
</g>
<path d="M248.016 500.992c-2.768-3.12-3.76-6.544-3.040-10.832 0.896-5.264 0.256-10.528-1.424-15.664-0.528-1.584-0.208-3.456-0.208-5.2-0.016-2.384 0.064-4.8 0.016-7.184-0.128-9.136-2.464-17.84-4.672-26.624-2.064-8.192-2.224-16.848-3.712-25.2-2.272-12.608-4.976-25.136-7.472-37.712-0.288-1.408-0.448-2.848-0.464-4.256-0.016-2.416-0.032-4.832 0.224-7.216 1.44-13.152-1.872-25.472-6.464-37.552-1.168-3.072-2.368-6.128-3.472-9.216-0.208-0.576-0.016-1.312-0.016-1.968 0.64 0.128 1.52 0 1.888 0.384 3.056 3.328 6.832 4.192 11.168 3.728 0.928-0.096 1.984 0.528 2.864 1.024 2.784 1.584 5.696 2.208 8.96 2.208 6.896-0.016 13.552-0.768 19.984-3.52 2.992-1.28 6.304-1.792 9.472-2.672 2.992-0.816 5.968-1.728 8.96-2.512 0.576-0.16 1.264 0.048 2.432 0.096-0.528 1.2-0.704 2.384-1.392 3.040-2.512 2.352-3.84 5.344-5.504 8.272-5.168 9.056-7.072 19.2-10.544 28.816-0.496 1.36 0.048 3.072-0.096 4.624s-0.448 3.12-0.784 4.656c-0.32 1.488-0.96 2.944 0.72 4.112 0.256 0.176 0.224 1.008 0.144 1.488-1.984 12.016-4.16 24-5.968 36.032-1.104 7.344-1.312 14.848-2.544 22.176-1.008 5.984-2.976 11.792-4.464 17.696-2.432 9.664-2.944 19.472-1.952 29.376 0.848 8.16-0.768 16.16-1.472 24.224-0.16 1.824-0.496 3.632-0.736 5.456-0.128-0.080-0.288-0.080-0.448-0.080z"></path>
<path d="M381.472 214.32c0.080 2.656-0.016 4.96 2.88 5.456 0.064 0.016 0.144 0.096 0.16 0.16 0.736 1.76 1.488 3.472 3.536 4.24 1.792 0.656 3.472 1.584 5.424 2.512-1.008 1.856 0.4 2.528 1.728 3.152 2.096 0.96 3.648 2.064 3.728 4.736 0.016 0.88 1.28 2.048 2.256 2.512 3.776 1.872 7.696 1.76 11.248-0.464 1.168-0.72 2.096-2.432 2.352-3.84 0.496-2.736 0.464-5.568 0.656-8.352 6.848 1.152 13.616 2.272 20.4 3.376 1.104 0.176 2.208 0.368 3.328 0.4 8.192 0.224 16.384 0.304 24.56 0.656 3.088 0.144 6.384 0.368 9.2 1.52 5.92 2.432 12.048 3.2 18.32 3.52 1.024 0.064 1.984 0.768 2.992 1.12 1.408 0.48 2.832 1.2 4.272 1.328 3.44 0.288 6.912 0.176 10.336 0.448 1.088 0.080 2.656 0.576 3.056 1.36 0.576 1.168-1.664 3.296-3.296 3.44-0.8 0.064-1.6 0.080-2.416 0-10.016-0.96-19.84 0.64-29.664 2.384-9.856 1.744-19.968 2.688-29.568 5.36-14.736 4.096-29.696 6.592-44.768 8.832-2.512 0.384-4.944 1.328-7.424 1.92-1.072 0.256-2.256 0.464-3.296 0.288-0.816-0.144-1.552-0.928-2.304-1.408 0.496-0.608 1.152-1.168 1.504-1.856 0.528-0.976 1.328-2.144 1.152-3.072-0.624-3.216-1.472-6.432-2.528-9.52-1.312-3.76-4.56-5.088-8.128-3.28-2.368 1.2-4.176 1.088-6.064-0.768-2.384-2.352-4.832-4.64-7.376-6.8-0.864-0.736-2.048-1.248-3.168-1.6-3.2-1.024-6.48-1.808-9.632-2.944-1.856-0.688-3.536-1.824-5.28-2.816-2.608-1.488-5.12-3.2-7.824-4.48-4.496-2.112-9.040-4.176-13.712-5.872-9.040-3.248-18.096-6.464-27.296-9.232-3.376-1.024-7.184-0.544-10.704-1.184-5.824-1.072-11.648-2.288-17.328-3.872-2.272-0.64-4.64-2.096-6.192-3.84-2.832-3.232-5.264-6.864-7.504-10.56-0.896-1.488-1.008-3.52-1.2-5.344-0.064-0.496 0.704-1.344 1.28-1.6 3.968-1.904 7.888-1.408 11.856 0.32 1.872 0.816 3.952 1.664 5.952 1.664 12.128-0.032 23.952 1.952 35.744 4.544 2.512 0.544 5.056 1.12 7.584 1.104 3.44-0.016 6.384 1.104 9.376 2.528 9.056 4.272 18.288 8.24 27.232 12.752 4.096 2.064 7.728 5.088 11.408 7.872 0.8 0.608 1.28 2.144 1.248 3.248-0.16 3.856 1.2 4.976 5.024 4.496 2.576-0.32 4.624-0.784 5.456-3.536 0.048-0.368 0.64-0.528 1.44-1.040z"></path>
<path d="M0 238.704c0.784-0.464 1.552-1.248 2.384-1.344 4.224-0.496 8.448-0.816 12.672-1.248 0.624-0.064 1.584-0.064 1.808-0.448 1.232-2.192 3.392-1.92 5.28-2.064 12.672-0.944 24.768-3.968 36.608-8.592 6.128-2.384 12.928-2.976 19.392-4.56 4.976-1.232 9.92-2.608 14.784-4.224 1.904-0.624 3.568-2.032 5.648-3.248 0.080 0.128 0.576 0.784 0.656 0.928-1.168 2.672-2.304 4.88-3.072 7.216-0.64 1.968 0.624 2.752 2.464 2.704 0.8-0.016 1.6-0.016 2.384-0.16 3.056-0.608 6.128-1.152 9.152-1.904 1.36-0.336 2.736-0.992 3.92-1.76 5.408-3.568 10.704-7.296 16.080-10.912 0.848-0.56 1.808-1.104 2.784-1.328 6.368-1.552 12.416-3.728 17.616-7.888 0.688-0.544 1.52-0.864 2.336-1.248 3.472-1.664 3.472-1.648 5.808 1.264 1.904 2.384 4.64 2.528 6.512 0.096s4.304-3.888 7.168-4.512c14.8-3.28 29.584-6.544 44.416-9.616 3.568-0.736 7.328-0.72 10.992-1.168 1.408-0.16 2.816-0.56 4.176-1.024 5.008-1.68 9.984-3.456 15.6-5.424-0.576 1.76-0.816 3.088-1.424 4.224-2.576 4.72-5.184 9.424-7.936 14.032-1.328 2.224-3.536 3.92-3.792 6.8-0.032 0.48-1.312 1.152-2.048 1.232-11.632 1.312-23.2 2.944-34.736 5.024-8.352 1.488-16.384 4.336-24.8 5.328s-16.064 4.16-23.584 7.872c-1.632 0.8-3.472 1.184-5.248 1.712-9.68 2.848-17.856 8.288-25.344 14.864-2.736 2.384-6.192 4.176-7.312 8.080-0.048 0.144-0.16 0.288-0.288 0.384-3.488 3.6-3.472 4.176 0 7.872 0.88 0.944 1.904 1.76 2.576 2.848 0.4 0.656 0.224 1.664 0.304 2.512-0.8 0.080-1.872 0.528-2.352 0.16-2.272-1.632-4.784-1.792-7.376-1.504-4.976 0.528-8.992-1.024-11.936-5.184-1.264-1.808-3.072-2.624-5.248-2.208-8.368 1.632-15.808-0.256-23.056-4.8-5.664-3.536-12.224-4.48-19.040-5.024-10.48-0.816-21.2-0.448-31.392-4.016-3.28-1.152-6.448-0.528-9.552 0.928-1.072 0.496-2.384 0.416-3.6 0.624-0.176-0.4-0.304-0.848-0.448-1.264z"></path>
<path d="M226.272 170.256c2.432-5.504 4.736-10.784 7.104-16.048 2.544-5.648 3.776-11.584 4.016-17.728 0.224-5.92 0.448-11.776 2.528-17.536 1.12-3.12 0.56-6.832 0.848-10.256 0.8-10.32 1.76-20.64 2.416-30.96 1.072-17.056 1.888-34.144 2.896-51.184 0.24-4.080 0.656-8.16 1.184-12.208 0.144-1.168 0.928-2.256 1.424-3.392 0.24 0.016 0.48 0.032 0.704 0.064 0.224 0.864 0.544 1.712 0.624 2.576 1.44 16.384 2.848 32.8 4.272 49.184 0.032 0.48-0.032 1.024 0.16 1.424 3.456 6.912 2.816 14.576 4.224 21.856 2.912 14.944 3.392 30.256 7.232 45.024 1.712 6.608 3.136 13.216 4.24 19.968 0.736 4.56 3.12 8.832 4.736 13.248 0.544 1.488 1.312 2.944 1.552 4.496 0.304 1.888-0.816 2.832-2.752 2.624-0.464-0.064-0.96-0.16-1.392-0.368-5.296-2.448-10.912-2.224-16.544-1.92-4.56 0.24-9.136 0.16-13.696 0.32-1.168 0.032-2.592 0.016-3.456 0.64-2.528 1.888-5.184 1.92-8.016 1.248-1.344-0.336-2.672-0.656-4.304-1.040z"></path>
<path d="M241.392 302.784c-1.344 0-2.576-0.384-3.28 0.064-2.784 1.744-5.44 0.976-8.048-0.128-3.84-1.632-7.536-3.6-11.392-5.168-4.16-1.664-8.4-3.12-12.656-4.512-12.432-4.16-24.96-8.016-36.688-13.984-2.064-1.040-4.24-1.888-6.384-2.816-3.92-1.68-7.664-3.536-10.576-6.88-1.392-1.6-3.328-2.736-5.104-4-4.784-3.392-9.6-6.72-14.352-10.128-3.152-2.256-3.232-7.296 0.128-9.344 5.424-3.28 10.96-6.32 16.608-9.184 5.504-2.784 11.168-5.2 16.784-7.776 1.248-0.56 2.496-1.168 3.792-1.488 0.816-0.208 1.744 0.128 2.624 0.224-0.096 0.96 0.096 2.128-0.368 2.832-1.088 1.584-2.576 2.848-3.76 4.384-3.296 4.24-6.528 8.512-9.744 12.816-1.184 1.584-0.624 2.688 1.2 3.232 1.008 0.288 2.016 0.656 3.040 0.736 5.808 0.4 10.4 3.312 14.928 6.688 9.888 7.344 20.224 13.728 32.592 16.368 7.968 1.712 15.744 4.32 23.616 6.528 2.624 0.736 4.096 2.432 4.624 5.248 0.416 2.256 1.424 4.4 2.288 6.544 1.328 3.28 1.52 6.512 0.128 9.728z"></path>
<path d="M151.632 302.816c-0.208-2.464-0.656-4.976-0.496-7.424 0.144-1.888 0.944-3.792 1.68-5.584 0.736-1.76 1.856-1.424 3.216-0.4 3.056 2.272 6.080 4.672 9.424 6.48 4.896 2.624 9.040 6.048 12.8 10.080 1.184 1.264 2.88 2.208 4.496 2.88 2.528 1.024 4.48 2.528 5.424 5.104 0.784 2.144-0.064 3.536-2.304 3.712-4.4 0.336-7.312 2.672-9.056 6.544-3.216 7.104-8.496 12.272-15.408 15.6-4.96 2.416-9.12 5.696-12.592 9.888-6.704 8.048-14.176 15.328-22.224 22.016-5.808 4.816-10.72 10.32-14.24 17.088-1.584 3.056-3.536 5.92-5.44 8.8-0.4 0.608-1.36 0.848-2.096 1.248-0.304-0.784-0.8-1.552-0.864-2.352-0.048-0.656 0.368-1.36 0.656-2.032 1.584-3.6 3.312-7.136 4.72-10.784 0.48-1.264 0.176-2.848 0.24-4.272 0.048-0.736-0.096-1.6 0.224-2.224 3.040-5.648 5.728-11.52 9.312-16.784 4.416-6.48 8.048-13.28 10.864-20.56 1.152-2.976 2.624-5.84 4.144-8.672 2.624-4.88 4.384-9.968 4.512-15.568 0.080-2.944 3.072-5.056 5.92-4.112 2.032 0.656 3.36 0.128 4.496-1.6 2.672-4.112 2.832-4.464 2.592-7.024z"></path>
<path d="M249.344 189.056c1.088 1.6 2.176 2.784 2.816 4.192 3.776 8.16 7.664 16.24 11.104 24.544 1.888 4.56 3.536 9.36 4.192 14.224 0.56 4.016-0.048 8.368-0.928 12.384-1.952 8.88-3.552 17.888-9.040 25.632-2.688 3.776-4.4 8.112-5.264 12.816-0.656 3.68-2.112 7.216-3.312 10.784-0.224 0.688-0.88 1.232-1.808 2.464-1.024-2.896-2.096-5.12-2.576-7.456-1.68-8.080-4.72-15.648-7.952-23.152-0.784-1.856-1.424-3.728-2.208-5.6-8.048-19.232-4.336-36.992 6.768-53.808 3.408-5.184 6.624-10.4 8.192-17.024z"></path>
<path d="M325.44 229.776c1.2 0.608 1.968 0.96 2.704 1.36 8.032 4.176 16 8.448 24.096 12.464 7.856 3.92 14.272 9.712 21.168 15.136-5.024 3.36-9.584 7.216-14.816 9.68-8.352 3.968-17.104 7.184-25.808 10.384-2.096 0.768-4.72 0.528-7.008 0.144-3.136-0.528-5.824 0.4-8.656 1.36-4.976 1.728-10 3.296-15.024 4.88-0.608 0.176-1.264 0.144-1.904 0.176-3.376 0.208-3.952 0.8-3.392 4.176 0.32 1.968-0.496 2.784-2.224 3.28-3.616 1.024-7.376 1.808-10.784 3.328-8.592 3.84-18.208 3.568-26.848 7.072-0.4 0.16-0.992 0.16-1.408 0.048-2.176-0.704-4.656-5.744-3.728-7.872 1.328-3.088 2.768-6.128 4.304-9.12 1.248-2.448 3.552-3.76 6.080-4.352 9.808-2.368 19.664-4.56 29.456-6.88 6.064-1.44 12.208-2.736 18.112-4.672 7.536-2.496 14.896-5.456 22.256-8.432 3.088-1.248 5.984-3.056 8.976-4.576 1.952-0.976 1.744-2.144 0.416-3.6-4.704-5.056-9.36-10.144-14.032-15.2-1.088-1.168-2.224-2.064-1.424-4.112 0.464-1.168-0.24-2.768-0.496-4.656z"></path>
<path d="M306.576 307.84c2.224-1.232 4.112-2.672 6.272-3.36 9.6-3.12 17.936-8.448 26.16-14.064 2.192-1.488 4.256-3.136 6.464-4.624 2.912-1.952 4.736-1.248 6.192 1.952 3.296 7.216 3.616 15.056 5.344 22.608 2.592 11.184 4.784 22.448 9.2 33.264 4.928 12.032 8.32 24.704 12.464 37.024 0.864 2.544 2.272 4.896 3.312 7.408 0.96 2.304 1.76 4.704 2.656 7.056-0.256 0.16-0.496 0.32-0.768 0.48-0.608-0.608-1.28-1.12-1.76-1.792-4.4-6.32-8.592-12.8-13.152-18.992-9.424-12.8-18.976-25.472-28.592-38.096-1.392-1.808-3.52-3.040-5.184-4.656-4.704-4.592-9.312-9.296-14.016-13.904-0.944-0.928-2.192-1.552-3.296-2.304-0.528-0.368-1.152-0.608-1.568-1.040-4.192-4.512-4.176-4.512-9.728-6.976z"></path>
<path d="M149.6 190.624c-0.32-2.176-0.544-3.792-0.816-5.44-0.784-4.736-1.072-9.632-2.528-14.16-3.040-9.424-4.512-19.136-6.672-28.736-2.368-10.56-4.752-21.104-7.232-31.648-0.464-1.92-1.248-3.792-1.968-5.648-1.104-2.752-2.256-5.488-3.472-8.176-0.88-1.952-0.96-3.696 1.072-5.264 0.336 0.56 0.736 1.2 1.088 1.872 10.912 20.672 23.776 40.144 36.384 59.76 2.176 3.392 5.264 6.224 8.096 9.136 4.144 4.256 8.496 8.272 12.624 12.528 2.128 2.208 1.744 3.216-1.264 4.112-1.152 0.336-2.368 0.624-3.536 0.528-3.376-0.304-5.808 1.184-8.032 3.536-1.92 2.032-4.080 3.84-6.144 5.728-1.888 1.712-4.224 1.952-5.888 0.224-3.552-3.712-6.608-1.408-9.824 0.288-0.48 0.256-0.88 0.64-1.888 1.36z"></path>
<path d="M394.24 115.024c-0.784 1.44-1.568 2.896-2.368 4.32-0.944 1.68-2.048 3.28-2.848 5.024-1.424 3.088-2.656 6.288-4.032 9.392-1.328 2.992-2.528 6.080-4.192 8.896-6.032 10.224-12.272 20.32-16.944 31.296-0.944 2.208-2.304 4.24-3.056 6.48-0.88 2.688-1.264 5.536-1.968 8.288-0.304 1.168-0.576 2.656-1.408 3.248-0.544 0.4-2.224-0.24-3.088-0.864-3.728-2.704-7.824-4.4-12.416-4.816-3.632-0.336-6.448-1.728-7.936-5.264-0.816-1.92-2.368-2.832-4.48-3.168-2.848-0.448-5.664-1.088-8.432-1.872-0.96-0.288-1.728-1.248-2.576-1.904 0.688-0.704 1.248-1.632 2.064-2.096 4.976-2.752 10.048-5.36 15.040-8.112 7.792-4.272 14.624-9.824 21.152-15.84 11.68-10.768 23.504-21.408 35.28-32.096 0.528-0.48 1.152-0.864 1.712-1.28 0.16 0.128 0.32 0.24 0.496 0.368z"></path>
</svg>
