<!-- Generated by IcoMoon.io -->
<svg version="1.1" xmlns="http://www.w3.org/2000/svg" width="512" height="512" viewBox="0 0 512 512">
<title>monsters-of-order</title>
<g id="icomoon-ignore">
</g>
<path d="M392.304 239.328c-3.6 0.192-6.928-2.304-7.056-4.912-0.144-2.88 2.928-5.744 6.112-5.712 3.472 0.048 6.48 2.72 6.512 5.744 0.112 3.024-2.944 4.752-5.568 4.88zM371.968 177.264c-0.96 1.312-0.944 3.552-3.28 3.696-1.056 0.048-2.112 0.144-3.728 0.272 2.208-3.872 3.952-6.944 6.032-10.576 0.976 1.056 2.464 1.968 2.608 3.040 0.144 1.104-0.848 2.528-1.632 3.584zM322.832 130.016c-2.816-0.096-6.112-4.192-6.080-7.584 0.016-2.224 2.816-4.448 5.52-4.368 4.448 0.096 7.216 2.448 7.12 6.032-0.080 2.8-3.648 6.032-6.56 5.936zM247.84 110.448c-4.464-0.144-7.104-2.784-6.896-6.912 0.192-3.872 3.552-6.72 7.792-6.624 3.44 0.096 5.952 2.928 5.84 6.672-0.112 4.16-2.88 6.976-6.736 6.864zM168.704 137.744c-3.792 0-6.64-2.704-6.624-6.288 0.016-3.696 2.736-6.32 6.56-6.304 4 0 6.752 2.848 6.672 6.912-0.048 3.552-2.528 5.696-6.624 5.664zM133.392 189.584c-3.008 0.608-5.504-1.008-7.248-4.48-1.168-2.384-1.84-4.752-0.352-7.232 1.728-2.896 4.8-4.112 7.968-3.184 2.544 0.736 4.592 4.064 4.672 7.488 0.048 3.424-2.256 6.832-5.040 7.408zM114.736 245.152c-2.64 0.032-5.040-2.256-5.072-4.896-0.048-3.536 2.496-6.16 5.968-6.096 2.368 0.048 4.368 2.384 4.432 5.232 0.048 3.136-2.336 5.712-5.312 5.76zM412.272 259.36c26.304-9.136 52.4-18.208 78.48-27.264l-0.016-1.264c-1.168-0.448-2.32-1.056-3.536-1.36-5.024-1.216-10.064-2.32-15.088-3.536-8.528-2.032-17.008-4.192-25.552-6.208-10.72-2.544-21.408-5.168-32.192-7.44-4.704-0.976-7.248-3.664-8.752-7.936-1.568-4.416-3.344-8.752-4.96-13.12-1.76-4.656-0.912-7.216 3.264-10.048 2.112-1.408 4.256-2.768 6.304-4.288 22.48-16.608 44.928-33.232 67.376-49.888 0.672-0.496 1.12-1.296 1.648-1.952-0.144-0.272-0.304-0.576-0.432-0.848-3.52 0.56-7.024 1.072-10.528 1.68-11.232 2-22.464 4.048-33.696 6.048-9.6 1.728-19.2 3.408-28.784 5.152-11.12 2.016-22.24 4.112-33.36 6.048-0.784 0.128-2.096-0.512-2.56-1.2-4.544-6.624-8.88-13.344-13.44-19.936-1.216-1.76-1.264-3.152-0.384-5.056 7.68-16.88 15.296-33.792 22.832-50.752 1.36-3.040 2.352-6.224 6.208-6.992 0.080-0.016 0.080-0.352 0.304-1.408-1.84 0.432-3.408 0.608-4.832 1.168-1.12 0.432-1.968 1.488-3.072 1.968-5.536 2.416-11.472 4.096-16.608 7.152-15.296 9.056-30.304 18.624-45.344 28.112-1.952 1.2-3.472 1.28-5.376 0.24-4.016-2.208-8.096-4.304-12.16-6.416-1.824-0.928-3.6-2.144-5.536-2.608-2.56-0.592-4.448-1.68-5.664-4.064-0.352-0.704-1.312-1.712-1.84-1.616-2.496 0.432-2.88-1.312-3.52-2.944-8.192-20.464-16.384-40.928-24.592-61.392-2.24-5.568-4.496-11.104-7.056-17.392-5.168 14.64-10.064 28.48-14.96 42.336-4.928 13.968-9.856 27.952-14.656 41.568-1.2 0.096-2.368-0.192-2.928 0.272-1.456 1.248-2.608 2.896-4.016 4.224-1.376 1.312-2.72 2.96-4.4 3.552-4.4 1.52-8.976 2.528-13.456 3.776-2.64 0.72-5.36 1.264-7.808 2.416-1.712 0.8-2.816 0.56-4.24-0.352-11.632-7.376-23.312-14.704-34.992-22.016-7.68-4.816-15.12-10.128-24.064-12.528-1.136-0.304-2.784-0.512-3.536 0.048-1.504 1.152-1.952 2.72-0.96 4.88 7.52 16.64 14.896 33.344 22.256 50.048 0.944 2.112 1.776 4.32 2.208 6.576 0.192 1.008-0.496 2.384-1.184 3.296-2.96 3.888-6.16 7.6-9.104 11.504-1.968 2.64-4.368 5.024-7.632 4.72-5.232-0.464-10.384-1.776-15.552-2.704-14.608-2.592-29.2-5.152-43.776-7.792-11.6-2.080-23.2-4.24-34.816-6.352-3.264-0.592-6.544-1.072-9.824-1.6-0.352 0.512-0.704 1.056-1.056 1.6 0.976 0.544 2.032 0.976 2.944 1.648 17.040 12.624 34.256 25.024 50.976 38.048 8.336 6.48 18.032 11.424 24.576 20.208 1.376 1.824 1.76 3.296 1.072 5.28-0.448 1.28-0.848 2.56-1.248 3.856-1.616 5.504-3.168 11.024-4.848 16.512-0.72 2.352-3.248 3.872-5.024 3.552-1.36-0.24-2.848-0.464-4.128-0.112-7.488 2.112-14.944 4.368-22.368 6.656-5.856 1.792-11.696 3.664-17.536 5.52-6.208 1.984-12.416 3.904-18.592 5.984-0.928 0.32-1.632 1.296-2.8 2.256 11.808 4.416 22.928 8.56 34.048 12.752 11.792 4.416 23.52 8.912 35.344 13.232 2.32 0.848 2.96 2.096 2.592 4.336-0.336 2.016-0.32 4.096-0.768 6.080-0.624 2.704 0.624 3.168 2.928 3.152 11.344-0.048 22.672-0.096 34.016 0.016 2.608 0.032 3.312-0.912 3.376-3.392 0.208-12.256 1.376-24.432 4.416-36.304 5.92-23.072 14.304-44.992 30.256-63.28 2.448-2.784 4.288-6.224 7.088-8.528 5.776-4.784 11.92-9.168 18.128-13.424 36.368-24.832 81.648-24.432 118.208 2.704 14.512 10.768 25.968 24.224 34.912 39.824 14.032 24.464 20.544 50.976 21.104 79.040 0.048 2.24 0.496 3.376 3.088 3.36 13.68-0.112 27.36-0.048 41.056-0.096 3.168 0 3.36-0.368 2.384-3.472-1.392-4.432-2.736-8.864-4.208-13.6z"></path>
<path d="M309.104 392.464c-0.352-0.048-0.736-0.256-1.024-0.48-5.28-4.24-10.56-8.496-15.808-12.768-4.080-3.312-5.232-8.304-7.392-12.736-1.536-3.2-3.6-6.16-5.392-9.232-0.944-1.632-2.208-3.232-2.656-5.008-1.856-7.376-5.28-10.688-12.752-11.936-1.024-0.16-2.016-0.512-3.008-0.752 1.856-11.072 7.376-12.288 19.744-10.976-0.576-1.904-1.264-3.664-1.616-5.504-0.32-1.616-0.544-3.504 1.776-3.968 2.096-0.416 2.416 1.040 3.008 2.672 1.36 3.648 2.256 7.488 6.192 9.824 2.096 1.248 3.344 3.936 4.848 6.048 1.456 2 3.024 4 4.112 6.192 0.736 1.488 0.976 3.296 1.088 5.008 0.496 7.6 1.136 15.136 6.032 21.52 0.432 0.576 0.432 1.456 0.592 2.208 0.208 0.96 0.096 2.112 0.624 2.832 2.464 3.312 4.928 6.656 7.712 9.696 2.112 2.32 4.688 4.208 6.992 6.208-0.192 0.944-0.368 2.016-0.576 3.088-3.856-0.592-8.176-1.248-12.512-1.92zM274.848 369.072c-1.136 0.56-2.896-0.128-4.336-0.432-0.352-0.048-0.576-0.704-1.152-1.44-0.48 0.72-0.784 1.504-1.072 1.52-6.704 0.272-13.216 3.872-19.904 1.824-3.056-0.928-5.968-1.952-9.168-1.92-1.152 0.016-2.304-0.112-3.424 0.048-2.576 0.336-3.408-0.56-2.768-3.136 1.632-6.416 5.728-8.928 12.272-6.656 6.88 2.416 13.568 1.952 20.368 0.224 5.584-1.408 9.968 0.896 11.328 6.368 0.256 1.024-1.040 3.072-2.128 3.6zM228.176 357.44c-3.792 3.76-5.104 8.704-6.928 13.36-2.672 6.832-7.92 11.152-13.664 15.104-1.184 0.816-2.912 1.168-3.712 2.24-3.52 4.704-8.656 4.944-13.76 5.52-1.312 0.144-2.608 0.592-3.552 0.832-0.16-1.040-0.352-2.096-0.544-3.136 1.984-1.776 4.304-3.664 6.352-5.824 1.296-1.328 2.208-3.040 3.264-4.592 0.256-0.416 0.32-1.088 0.656-1.264 3.44-1.728 4.912-4.56 4.96-8.304 0.016-0.512 0.4-1.088 0.752-1.536 4.368-5.6 4.992-12.288 5.584-18.976 0.304-3.344 0.112-6.64 3.168-9.168 1.376-1.152 1.632-3.504 2.768-5.040 1.824-2.544 4.112-4.512 7.408-4.992 1.104-0.16 2.192-0.688 3.28-1.056-1.68-4.016 1.456-12.176 5.76-13.664 0.192 2.096 0.432 4 0.496 5.936 0.096 1.952 0.016 3.888 0.016 6.352 3.28 0.144 6.544 0.416 9.792 0.448 4.88 0.048 5.616 0.656 6.096 5.536 0.144 1.36 0.24 2.704 0.368 4.32-1.024 0.24-2.112 0.72-3.248 0.752-7.216 0.192-10.88 6.416-12.272 11.424-0.576 2.032-1.616 4.24-3.072 5.712zM186.304 263.6c0.256-0.272 0.608-0.512 0.8-0.848 3.12-5.984 8.768-5.616 14.24-5.632 0.208 0 0.4-0.016 0.576 0.048 7.040 3.232 14.112 6.4 21.072 9.76 4.448 2.144 8.752 4.608 13.488 7.136-3.424 3.76-7.856 5.296-12.32 5.744-9.488 0.928-19.040 1.216-28.576 1.712-1.424 0.080-2.928-0.112-4.336-0.464-8.672-2.144-11.136-10.976-4.928-17.456zM218.576 199.168c4.576-17.76 16.080-27.632 34.896-27.856 20.848-0.256 34.672 12.208 36.624 32.88 0.96 10.16-4.24 19.168-12.096 25.904-4.464 3.84-9.744 6.336-15.728 7.36-2.88 0.48-5.6 1.856-8.384 2.8-1.536-0.592-2.704-1.168-3.968-1.536-2.096-0.608-4.256-0.96-6.336-1.632-6.112-1.92-11.936-4.544-16.304-9.392-5.136-5.712-8.32-12.544-9.376-20.16-0.368-2.704-0.016-5.664 0.688-8.352zM299.712 261.696c1.12-0.368 2.432-0.576 3.232-1.312 3.392-3.136 7.392-2.656 11.248-1.744 1.888 0.448 3.584 1.984 5.248 3.2 0.832 0.608 1.248 1.776 2.064 2.448 4.448 3.584 4.064 8.32 2.544 12.848-1.28 3.728-5.12 4.56-8.64 5.040-2.48 0.352-5.072 0.256-7.6 0.144-7.872-0.416-15.776-0.592-23.6-1.52-3.792-0.448-7.44-2.368-11.696-3.84 8.288-8.112 17.536-12.080 27.216-15.28zM400.544 328.72c-1.216-1.648-2.592-3.2-3.632-4.944-2.48-4.128-6.048-6.176-10.832-6.448-1.504-0.080-3.152-0.416-4.416-1.184-3.152-1.952-6.416-2.096-9.504-0.496-4.352 2.24-9.056 4.352-12.608 7.632-6.24 5.776-11.008 12.56-10.672 21.968 0.272 8.080-0.912 16.224-0.384 24.256 0.432 6.544 2.416 12.976 3.728 19.44 0.448 2.272 1.248 4.544 1.328 6.832 0.192 4.56-0.128 9.136-0.016 13.696 0.144 6.048-1.984 10.96-6.032 15.488-2.24 2.528-4.928 3.312-7.744 4.56-4.096 1.824-8.192 1.040-12.304 1.072-0.416 0-0.912-0.368-1.216-0.704-1.568-1.728-3.264-3.376-4.576-5.28-0.816-1.184-1.424-2.816-1.392-4.224 0.096-4.080 0.48-8.144 0.928-12.192 0.080-0.736 0.8-1.872 1.408-2.016 2.832-0.656 5.744-0.96 8.624-1.488 1.008-0.16 2.096-0.368 2.928-0.912 2.432-1.616 4.704-3.44 7.12-5.072 3.264-2.224 3.376-4.704 0.128-7.040-2.592-1.872-5.536-3.312-7.872-5.472s-5.52-4.72-5.92-7.472c-1.12-7.872-1.824-16-1.184-23.904 0.736-9.168 0.384-18.64 6.864-26.864 3.424-4.352 6.416-9.008 10.976-12.24 4.288-3.024 8.768-5.808 13.312-8.432 2.64-1.536 3.824-3.952 4.464-6.544 0.24-0.96-1.328-2.352-1.984-3.6-0.816-1.552-1.952-3.072-2.24-4.72-1.008-5.536-2.336-11.136-2.352-16.704-0.080-12.176 0.16-24.32-2.368-36.288-0.832-3.888-2.464-7.696-2.72-11.584-0.512-7.744-2.928-14.624-7.152-21.056-1.136-1.728-1.712-3.872-2.384-5.872-0.736-2.112-0.976-4.448-2.032-6.384-2.48-4.528-5.232-8.896-8.048-13.216-2.704-4.144-5.056-8.816-8.656-12.048-4.784-4.256-8.896-9.52-15.44-11.792-5.376-1.872-9.312-7.232-15.76-6.88-0.464 0.016-0.944-0.656-1.456-0.896-4.192-1.792-8.224-4.352-12.608-5.152-5.76-1.072-11.808-1.296-17.648-0.864-3.504 0.256-6.8 0.304-10.304 0.016-5.856-0.464-11.808 0.256-17.68 0.72-1.44 0.128-2.816 1.248-4.24 1.856-3.44 1.488-6.816 3.776-10.416 4.208-5.376 0.624-9.28 3.232-12.96 6.704-0.48 0.464-1.104 1.376-1.488 1.28-3.344-0.784-4.72 1.744-7.008 3.28-5.584 3.76-10.064 8.448-14.752 13.152-7.472 7.488-12.416 16.512-17.056 25.696-6.24 12.32-6.768 26.224-9.408 39.504-1.296 6.48-0.512 13.36-0.912 20.048-0.512 8.56-1.072 17.152-1.984 25.664-0.512 5.008-1.776 9.824-5.248 13.968-2.944 3.552-1.296 7.264 3.072 8.224 0.56 0.112 1.072 0.416 1.568 0.704 3.856 2.24 7.952 4.144 11.488 6.816 7.168 5.408 12.992 12.176 16.128 20.688 1.552 4.24 2.352 8.912 2.64 13.44 0.368 5.808-0.112 11.632-0.208 17.456-0.112 5.536 0.608 11.104-2.896 16.176-2.416 3.52-3.248 8.080-7.504 10.368-2.032 1.12-3.744 2.848-5.536 4.256 2.608 2.064 5.184 4.128 7.808 6.128 0.608 0.464 1.36 0.912 2.080 1.056 4.368 0.832 8.752 1.68 13.136 2.32 4.208 0.608 4.224 0.48 4.256 4.896 0.016 0.96-0.032 1.952-0.144 2.912-0.928 7.504-2.064 14.992-9.376 19.344-2.176 1.296-4.608 2.56-7.056 2.88-4.992 0.624-10.032 0.352-13.936-3.472-2.88-2.816-6.208-5.504-6.576-9.92-0.496-5.808-1.056-11.632-0.912-17.456 0.224-7.68 1.44-15.328 1.648-23.008 0.304-11.12 0.4-22.192 2.72-33.184 1.376-6.544-0.16-12.912-3.712-18.816-3.952-6.592-9.504-11.312-16.368-14.496-4.352-2.016-8.816-3.28-13.312 0.032-0.912 0.672-2.432 0.656-3.664 0.704-3.968 0.144-7.168 1.792-9.584 4.88-1.744 2.224-3.312 4.592-4.944 6.896-4.336 6.128-5.392 13.088-4.944 20.368 0.048 0.944 0.608 1.856 1.008 2.976 4.704-3.168 9.2-5.296 14.72-5.28 6.064 0 10.56 4.256 10.144 10.144-0.368 4.944-0.896 9.92-1.776 14.784-1.328 7.36-3.008 14.672-4.608 21.984-0.24 1.136-1.040 2.112-1.312 3.248-1.2 4.88-2.896 9.728-3.264 14.672-0.368 4.8 0.32 9.76 1.104 14.576 1.024 6.112 1.904 12.432 4.128 18.176 3.616 9.36 10.208 16.96 16.896 24.352 0.464 0.496 1.024 1.248 1.552 1.248 5.104 0.16 8.24 4.080 12.192 6.368 4.848 2.832 9.824 5.408 15.424 5.856 9.408 0.784 18.624-0.72 27.104-5.040 6.064-3.088 11.808-6.784 17.648-10.304 1.056-0.624 2.32-1.52 2.688-2.576 1.072-2.928 2.416-5.408 5.616-6.416 0.384-0.112 0.752-0.704 0.864-1.136 0.704-2.816 1.84-5.632 1.92-8.464 0.272-9.040 0.144-18.096 0.224-27.136 0.016-2.208-0.048-4.448 0.448-6.56 0.16-0.704 1.904-1.36 2.96-1.424 0.496-0.032 1.536 1.328 1.568 2.112 0.464 7.568 0.928 15.104 1.056 22.672 0.096 4.816-0.432 9.632-0.656 14.432-0.16 3.888-2.432 7.008-3.728 10.496-1.904 5.040-4.832 9.328-8.848 12.704-2.88 2.416-6.272 4.352-9.696 5.872-4.4 1.952-9.024 3.392-13.616 4.832-12.416 3.904-24.72 4.656-36.848-1.376-2.56-1.264-5.472-1.824-8.912-2.912 0.736 1.408 0.944 2.096 1.376 2.592 5.472 6.448 10.768 13.072 16.528 19.232 4.016 4.32 9.216 6.816 15.344 6.896 8.88 0.080 17.792 0.688 26.64 0.128 5.52-0.352 11.040-1.968 15.68-5.648 3.856-3.072 7.984-5.824 12.128-8.56 5.376-3.552 9.216-8.336 11.568-14.304 0.624-1.616 0.736-3.664 1.824-4.88 3.136-3.552 2.32-7.696 2.416-11.744 0.016-0.896 0.032-1.76 0.048-2.656 0.144-9.616 0.256-19.264 0.464-28.896 0.128-5.232 0.464-10.448 0.624-15.68 0.048-1.792 0.368-3.648 2.32-3.856 1.376-0.128 2.848 0.816 3.936 1.168-0.144 2.192-0.336 3.6-0.336 5.024 0.016 9.84 0.048 19.664 0.112 29.488 0 0.752 0.208 1.536 0.368 2.272 0.544 2.416 1.184 4.784 1.616 7.216 0.864 4.768 1.264 9.664 2.544 14.304 1.184 4.32 3.2 8.432 4.992 12.56 2.384 5.568 3.824 11.792 10.096 14.704 3.168 1.456 6.128 4.016 9.408 4.512 8.064 1.184 16.272 1.872 24.432 1.968 4.672 0.080 9.792-0.448 13.92-2.368 6.656-3.088 12.496-7.904 18.992-11.344 6.56-3.488 10.256-9.504 14.992-14.88-3.76-0.096-7.376 0.336-11.008 0.464-5.712 0.224-11.44 0.608-17.12 0.256-4.704-0.272-9.44-2.432-14.032-2.080-7.696 0.624-12.32-4.416-17.824-7.872-4.416-2.8-5.408-8.208-8.16-12.288-3.28-4.88-2.944-10.896-3.696-16.576-1.12-8.496-1.856-16.928 0.368-25.056 3.136-1.744 4.112-0.128 4.432 2.384 0.208 1.536 0.24 3.088 0.256 4.656 0.032 6.64 0.48 13.12 3.664 19.232 2.016 3.888 3.008 8.32 4.928 12.288 1.952 4.048 3.936 8.144 9.008 9.6 3.136 0.912 6.32 2.272 8.928 4.208 4.944 3.632 10.432 4.848 16.352 5.152 6.784 0.336 13.216-1.2 19.808-2.64 7.952-1.728 14.048-6 19.584-11.136 6.272-5.76 10.528-13.12 12.416-21.504 1.296-5.776 2.304-11.712 2.576-17.632 0.384-7.856 0.304-15.712-2.24-23.472-2.432-7.36-4.048-15.008-5.808-22.576-0.816-3.504-1.28-7.12-1.648-10.72-0.432-4.256-0.624-8.544-0.784-12.832-0.032-0.72 0.56-1.632 1.136-2.192 4.576-4.512 13.008-4.544 17.808-0.112 1.728 1.568 3.424 3.152 5.584 5.136 0.624-2.080 1.488-3.696 1.6-5.376 0.512-7.488-0.608-14.608-5.232-20.832z"></path>
</svg>
