<!-- Generated by IcoMoon.io -->
<svg version="1.1" xmlns="http://www.w3.org/2000/svg" width="512" height="512" viewBox="0 0 512 512">
<title>monsters-of-order</title>
<g id="icomoon-ignore">
</g>
<path d="M273.888 512c-0.336 0-0.656 0-0.976 0-8.032-1.76-9.12-7.552-9.2-14.624-0.064-5.44-1.456-10.88-2.32-16.32-0.752-4.832-3.888-8.304-7.744-7.712-4.368 0.672-4.64 4.48-5.248 8.144-0.976 5.872-1.968 11.84-3.936 17.424-2.704 7.648-3.968 8.048-12.128 7.824-1.776-0.048-3.584 0.064-5.36-0.048-5.936-0.336-10.064-3.872-10.688-9.808-0.736-6.816-2.8-12.944-7.648-17.904-1.168-1.2-2.704-2.048-4.064-3.056-0.928 1.76-2.448 3.424-2.656 5.264-0.4 3.344 0.592 6.944-0.192 10.16-0.656 2.656-2.592 6.48-4.672 7.008-2.992 0.752-7.088 0.224-8.768-4.128-1.728-4.512-3.744-8.928-5.936-13.248-1.104-2.176-2.528-4.944-4.496-5.696-1.232-0.48-3.6 2.464-5.696 3.424-2.448 1.136-5.088 2.192-7.696 2.304-0.8 0.016-2.304-3.2-2.448-5.040-0.496-5.968 0.736-12.368-1.008-17.856-2.864-9.072-2.368-17.824-1.136-26.864 1.072-7.84 0.8-15.44-3.632-22.528-1.36-2.192-1.856-5.264-1.792-7.904 0.128-5.024-1.904-8.656-5.472-11.856-3.008-2.704-5.936-5.536-8.56-8.624-4.896-5.76-7.84-6.048-13.696-0.832-2.912 2.592-5.536 5.52-8.64 7.824-5.712 4.208-11.232 7.104-19.392 0.896-3.632-2.768-6.528-6.464-9.808-9.68-5.312-5.184-11.104-9.952-15.936-15.536-9.344-10.768-12.096-24.096-13.072-37.872-0.704-10.016-1.152-20.080-2.112-30.080-0.32-3.264-1.136-6.944-2.992-9.536-6.288-8.736-6.208-20.288 1.856-27.632 8.512-7.744 10.736-17.696 12.128-28.224 0.192-1.408-0.016-2.912-0.288-4.336-2.848-14.576-6.688-29.040-8.368-43.76-1.504-13.296-0.704-26.912 3.216-39.952 2.848-9.408 6.144-18.704 9.408-27.984 2.24-6.4 4.032-13.088 7.28-18.944 4.88-8.864 10.672-17.312 16.432-25.68 4.672-6.752 10.032-13.008 14.864-19.68 7.328-10.128 16.928-17.568 28.368-21.968 13.392-5.152 27.072-9.712 40.928-13.392s28.096-5.968 42.128-8.912c3.152-0.672 6.192-1.824 9.344-2.448 5.328-1.040 10.752-2.768 16.064-2.608 22.32 0.624 44.656 1.552 66.928 2.992 6.336 0.416 12.864 2.176 18.72 4.704 11.376 4.944 22.176 11.216 33.488 16.288 13.088 5.872 25.856 12.272 35.056 23.552 6.288 7.696 12.336 15.92 16.688 24.784 3.936 8.016 5.424 17.232 8.016 25.92 0.832 2.784 1.632 5.6 2.64 8.32 5.040 13.616 11.616 26.896 14.88 40.928 4.544 19.488 6.88 39.616 3.664 59.696-2.24 14.032 0.144 28.16-1.424 42.112-2.048 18.32 3.424 35.28 8.048 52.464 0.464 1.696 1.152 3.52 2.272 4.784 4.96 5.536 5.456 11.776 3.552 18.592-0.608 2.176-0.656 4.496-1.216 6.688-2.512 9.728-7.152 17.696-17.68 20.608-1.696 0.48-3.616 0.976-4.88 2.096-8.080 7.152-16 14.496-23.984 21.76-2.992 2.72-5.872 5.6-9.12 7.968-4.4 3.216-10.288 2.304-15.712-1.968-7.2-5.648-13.264-3.6-16.272 4.944-3.088 8.832-7.28 17.296-10.16 26.16-3.584 11.024-8.384 21.792-8.096 33.824 0.16 7.28-0.064 14.576-0.416 21.872-0.208 4.4-6.608 11.792-10.688 12.096-4.944 0.384-5.312-4.288-6.96-7.424-0.224-0.432-0.384-1.040-0.736-1.232-2.128-1.024-4.288-2.464-6.512-2.64-0.736-0.064-2.096 3.152-2.512 5.024-0.48 2.176-0.464 4.544-0.288 6.784 0.56 8.048-3.216 14.224-9.184 18.8-1.856 1.44-5.776 0.768-8.528 0.112-0.752-0.192-1.088-3.808-0.944-5.808 0.528-6.416 1.776-12.8 1.952-19.216 0.128-4.752-3.040-7.376-7.408-6.832-3.76 0.464-3.824 3.744-4.16 6.656-0.272 2.24-0.336 4.608-1.104 6.688-2.88 7.68-5.6 15.504-9.328 22.752-1.376 2.704-5.328 4.176-8.288 5.936-1.28 0.768-3.040 0.832-4.576 1.216zM188.512 150.672c-1.68 2.256-2.528 3.824-3.76 5.040-6.896 6.784-14.016 13.344-20.784 20.224-4.512 4.608-10.368 8.32-10.496 16.048-0.224 13.616-1.104 27.232-1.2 40.848-0.048 7.824 4.24 11.152 12.752 11.152 4.544 0 9.104-0.416 13.6 0.064 12.032 1.296 23.984 3.936 36.016 4.288 20.704 0.608 41.472 0.016 62.208-0.352 17.952-0.336 35.872-1.136 53.824-1.584 6.8-0.16 13.616 0.16 20.416 0.048 5.456-0.080 7.424-2.176 7.648-7.632 0.208-4.544 0.432-9.056 0.528-13.6 0.208-10.016 0.496-20.016 0.336-30.032-0.048-2.128-1.616-4.544-3.088-6.272-8.384-9.824-16.944-19.536-25.472-29.248-2.432-2.768-4.96-5.424-8.512-9.28 3.472-1.424 6.048-3.248 8.72-3.456 6.784-0.528 13.6-0.528 20.4-0.352 4.272 0.112 6.688-1.856 6.88-5.776 0.384-8.192 0.592-16.464 0.192-24.656-0.208-4.24-2.832-6.592-7.872-6.48-16.048 0.272-32.080 0.112-48.128-0.192-1.84-0.048-4.352-1.568-5.248-3.136-0.688-1.216 0.112-4.032 1.2-5.376 3.552-4.4 7.472-8.512 11.392-12.576 4.544-4.704 9.712-7.568 16.736-7.264 8.72 0.416 17.504 0.112 26.208-0.56 2.064-0.16 5.488-2.816 5.648-4.608 0.752-7.552 0.672-15.184 0.624-22.8-0.016-4.448-2.496-6.784-7.024-6.896-16.528-0.496-33.056-1.072-49.568-1.504-1.36-0.048-3.056 0.4-4.032 1.28-5.568 4.896-11.040 9.888-16.384 15.040-7.2 6.944-14.112 14.176-21.392 21.040-3.456 3.248-7.712 2.816-11.12-0.224-3.584-3.2-7.424-6.144-10.88-9.488-7.376-7.152-15.44-13.888-21.584-22-3.872-5.104-7.952-6.8-13.408-6.624-14.24 0.48-28.464 1.376-42.688 1.904-4.72 0.16-8.224 2.048-8.624 6.752-0.656 8.16-1.088 16.416-0.432 24.56 0.192 2.432 4.128 6.208 6.688 6.512 8.304 0.96 16.8 1.040 25.184 0.624 7.6-0.384 13.904 0.8 18.64 7.504 2.368 3.36 5.696 6.128 8.832 8.864 3.792 3.312 3.856 5.872-0.864 7.84-4.096 1.712-8.704 3.312-13.024 3.2-12.112-0.272-24.24-1.2-36.288-2.4-4.816-0.48-7.408 1.408-8.112 5.456-0.864 4.896-0.8 9.936-1.040 14.928-0.48 9.872 7.2 19.76 18.112 18.768 3.856-0.352 7.808-0.208 11.648 0.144 2.048 0.224 4 1.344 6.656 2.288zM162.096 339.936c8.848-0.56 15.648-1.344 22.416-1.296 7.232 0.048 13.184-3.008 18.976-6.592 4.368-2.704 8.72-5.536 12.64-8.864 9.664-8.176 9.376-18.496-1.136-26-5.168-3.68-11.152-6.448-17.072-8.8-13.936-5.568-27.712-11.968-42.16-15.52-12.608-3.12-25.824-3.632-37.904-9.44-3.904-1.888-9.2 0.896-11.584 4.688-1.456 2.32-2.992 4.64-4.816 6.656-4.336 4.72-5.168 10.080-2.704 15.728 4.976 11.392 10.816 22.24 19.456 31.472 8.176 8.768 17.376 15.44 29.472 17.088 5.424 0.752 10.96 0.688 14.416 0.88zM334.992 339.056c2.736-0.272 5.52-0.288 8.176-0.88 10.56-2.336 21.232-4.368 31.584-7.488 6.064-1.824 12.192-4.64 17.168-8.448 4.576-3.52 8.080-8.704 11.312-13.632 3.936-5.984 10.848-10.4 11.168-18.32 0.224-5.728-0.224-11.568-1.152-17.232-1.408-8.576-4.16-10.256-12.72-8.8-11.008 1.856-22.032 3.616-32.96 5.728-12.848 2.496-25.664 5.12-38.4 8.080-4 0.928-7.648 4.208-11.568 4.448-8.592 0.528-15.936 2.832-22.576 8.528-4.208 3.616-5.088 7.68-1.68 12.16 1.856 2.448 2.88 5.568 4.128 8.448 0.688 1.616 0.704 3.584 1.616 5.056 8.176 13.456 20.368 20.512 35.888 22.352zM264.624 422.688c6.512-1.584 14.368-2.928 21.792-5.504 5.92-2.048 6.816-5.904 3.36-10.88-3.76-5.424-6.464-11.12-7.776-17.584-0.496-2.464-1.856-4.816-3.056-7.072-4.128-7.84-8.512-15.408-8.192-24.896 0.192-5.776-1.024-11.616-1.696-17.408-0.352-3.152-1.52-5.424-5.36-5.696-3.76-0.288-6.4 0.608-7.296 4.544-1.088 4.72-2.288 9.44-3.152 14.208-1.408 7.696-4.288 14.576-8.16 21.52-5.456 9.792-9.28 20.576-13.056 31.2-1.712 4.832 0.8 9.12 6.032 9.6 7.088 0.672 12.576 4.768 18.992 6.624 2 0.544 4.096 0.704 7.568 1.312z"></path>
<path d="M302.896 193.52c-4.512 0.736-7.776 1.712-11.040 1.696-11.024-0.048-22.032-0.608-33.056-0.672-12.464-0.080-24.928 0.144-37.376 0.208-2.112 0.016-4.272 0.224-6.288-0.16-1.888-0.384-5.12-1.376-5.168-2.224-0.128-2.704 0.112-6.176 1.712-8.096 5.568-6.656 11.728-12.752 17.696-19.072 6.848-7.232 13.616-14.544 20.64-21.568 1.040-1.040 3.52-1.376 5.104-1.040 1.776 0.384 3.584 1.648 4.896 2.992 12.096 12.192 24.16 24.384 35.984 36.832 2.576 2.72 4.080 6.464 6.896 11.104z"></path>
</svg>
