<!-- Generated by IcoMoon.io -->
<svg version="1.1" xmlns="http://www.w3.org/2000/svg" width="512" height="512" viewBox="0 0 512 512">
<title>monsters-of-order</title>
<g id="icomoon-ignore">
</g>
<path d="M75.456 448.912c-51.904-18.304-81.776-66.096-74.304-118.368 8.208-57.504 50.032-94.848 106.416-94.48 61.984 0 110.16 47.056 110.16 107.92 0 44.816-30.624 88.496-71.696 102.688-24.272 8.592-50.784 9.328-70.576 2.24z"></path>
<path d="M227.056 349.952c0-11.584-1.488-27.632-2.992-35.84l-2.992-15.312 28.384-7.088c15.68-3.728 29.504-8.592 30.624-10.448s-4.112-9.328-11.584-17.184l-13.44-13.44 32.864-8.96c17.92-4.848 40.704-11.584 50.784-14.192l18.304-5.6-13.824-13.824c-7.472-7.472-13.44-14.56-13.44-15.68s10.448-2.24 23.52-2.608c12.704-0.368 53.392-2.608 90-4.48 36.976-1.872 67.584-2.992 68.704-2.24 0.752 1.12-23.904 9.712-54.896 19.792-30.992 9.712-56.016 18.672-56.016 19.792-0.368 1.12 5.6 8.208 12.704 16.432 7.088 7.84 13.072 14.944 13.072 15.312 0 0.752-11.2 4.848-25.024 9.328-14.192 4.112-34.352 10.448-45.184 14.192-10.832 3.36-19.040 7.088-18.672 8.592 0.752 1.488 10.832 11.2 22.784 21.664 12.704 11.2 19.792 19.792 16.8 20.544-2.608 0.752-26.512 7.472-53.392 15.312-26.512 7.84-59.376 16.8-72.816 20.544l-24.272 6.352z"></path>
<path d="M163.584 239.056c-8.208-4.848-22.784-10.080-32.48-11.2-10.080-1.488-17.92-2.992-17.92-3.728s6.352-11.2 14.192-23.152c7.472-12.32 26.512-42.576 41.824-67.216l28-45.184 14.192 28.384 14.192 28 23.904-38.080c13.072-21.28 25.392-39.952 27.632-42.192 1.872-1.872 7.088 2.992 13.44 13.824 5.6 9.328 11.2 17.184 12.32 17.184 1.488 0 5.6-4.48 8.96-10.448 16.432-26.512 58.992-88.128 58.992-85.136 0 1.872-12.704 42.192-28.384 89.248l-28.752 85.888-9.712-17.184c-5.232-9.712-10.448-17.552-11.584-17.552s-13.44 19.424-27.264 42.944c-14.192 23.52-26.144 42.944-26.88 42.944-1.12 0-6.352-6.72-11.568-14.944-5.6-8.208-11.2-13.824-12.688-13.072-1.872 1.12-9.328 12.688-17.184 26.144s-15.312 24.272-16.432 23.904c-1.12 0-8.592-4.48-16.8-9.328z"></path>
</svg>
