<!-- Generated by IcoMoon.io -->
<svg version="1.1" xmlns="http://www.w3.org/2000/svg" width="512" height="512" viewBox="0 0 512 512">
<title>monsters-of-order</title>
<g id="icomoon-ignore">
</g>
<path d="M313.632 199.232c-12.736 13.664-25.68 27.184-38.192 41.088-11.296 12.544-22.832 24.976-32.992 38.432-14.96 19.824-28.96 40.368-42.96 60.88-3.616 5.296-5.088 8.048-11.296 1.872-27.184-27.024-38.8-58.656-35.392-97.28 2.048-23.056 9.216-43.872 18.128-64.512 2.048-4.72 5.792-8.832 9.232-12.816 3.216-3.696 5.68-1.888 8.144 1.632 9.28 13.28 18.72 26.432 28.256 39.52 4.256 5.824 9.056 11.216 13.2 17.104 1.232 1.728 1.088 4.432 1.568 6.688-2.128-0.432-4.528-0.4-6.256-1.456-1.248-0.768-1.632-2.992-2.384-4.56-0.88 0.8-1.744 1.568-2.608 2.368 1.408 3.296 2.8 6.592 5.264 12.336-20.272-6.288-26.672-23.616-39.712-37.056-1.76 5.040-3.36 8.64-4.288 12.384-2.992 12.128-5.76 24.304-8.592 36.48-4.112 17.6 1.232 32.8 11.792 46.688 0.352 0.464 0.688 0.928 0.992 1.424 7.6 13.2 8.832 12.912 17.52-0.656 5.504-8.576 12.112-16.464 18.448-24.464 10.016-12.592 20.64-24.704 30.224-37.584 17.968-24.192 35.392-48.768 53.040-73.2 0.992-1.392 2.080-2.704 2.816-3.648 14.592 2.816 20.512 14.544 26.576 25.2 5.952 10.512 10.976 21.808 14.512 33.344 2.912 9.504 3.488 19.856 4.352 29.888 0.72 8.384 0.752 16.88 0.336 25.28-0.688 13.6-0.896 27.328-8.896 39.472-5.936 9.008-10.896 18.704-16.72 27.824-1.296 2-4.368 2.864-6.608 4.256-0.88-2.32-2.688-4.72-2.448-6.928 0.672-6.192-2-8.704-7.584-10.88-4.048-1.584-7.728-5.376-10.368-9.056-10.272-14.256-19.008-29.824-36.624-37.312 3.264-8.8 6.032-16.704 9.216-24.448 0.64-1.536 2.736-2.768 4.448-3.392 0.64-0.24 2.832 1.488 2.976 2.528 2.16 15.216 12.912 22.736 24.864 30.224 6.672 4.176 11.312 11.6 17.728 18.48 4.032-17.728 11.696-34.736 9.408-54.128-2.16-19.376-4.8-38.304-19.168-51.968z"></path>
<path d="M364.544 101.648c-0.416-3.408-0.752-6.256-1.088-8.976 20.016-19.36 39.92-38.576 60.192-58.16 2.832 8.064-2.032 14.016-5.92 19.68-8.128 11.84-16.896 23.216-25.552 34.656-4.592 6.064-9.824 11.664-14.224 17.856-2.896 4.096-4.768 8.896-8.368 15.792 7.632 0.272 12.752 0.48 20.064 0.736-3.792 5.664-6.864 11.504-11.104 16.32-5.296 6.032-4.384 10.512-0.688 17.472 8.464 16 17.296 32.016 20.432 50.384 1.376 8.080 3.44 16.48 7.312 23.552 2.4 4.384 7.104 9.792 14.32 8.048 1.712-0.416 3.568-0.512 5.136-1.248 7.856-3.616 15.328-4.112 24.352-2.656 19.008 3.056 38.48 3.28 57.744 4.72 1.584 0.112 3.152 0.752 4.848 3.104-9.28 1.296-18.544 2.48-27.808 3.872-17.456 2.64-34.912 5.408-52.368 8.064-2.608 0.4-5.248 0.72-7.856 0.752-7.6 0.144-14.112 1.424-14.48 11.12-0.048 0.992-2.208 1.744-2.976 2.896-1.472 2.192-3.936 4.688-3.712 6.832 1.312 13.072-0.016 25.2-9.056 35.648-1.312 1.504-2.224 5.664-1.376 6.416 6.976 6.208 0.896 12.048-0.768 17.296-3.136 9.936-7.44 19.344-5.44 30.24 0.4 2.16-1.312 5.12-2.8 7.168-4.64 6.448-3.296 11.6 2.304 16.688 3.648 3.312 7.248 10.864 9.904 10.432 14.352-2.288 14.304 10.096 19.488 17.12 13.696 18.56 27.44 37.136 41.152 55.696 0.464 0.64 0.688 1.456 2.064 4.368-3.52-1.232-5.744-1.344-6.912-2.528-12.624-12.736-28.4-21.76-38.816-37.472-6.416-9.648-18.704-15.376-28.144-23.12-2.288-1.872-5.056-4.592-5.328-7.152-0.752-7.344-4.992-10.96-11.296-12.912-7.888-2.448-12.784-6.496-10.624-15.824 1.904-8.24-3.76-11.552-10.16-14-7.152-2.72-7.776-5.12-3.152-11.008 14.32-18.192 25.472-37.728 27.376-61.584 0.432-5.568 3.072-10.928 4.704-16.384 0.416-1.392 1.248-2.8 1.168-4.176-1.376-25.232 2.336-51.296-9.44-74.976-5.936-11.952-14.144-22.784-20.976-34.32-2.128-3.616-3.024-7.936-4.64-11.872-0.608-1.488-1.504-3.776-2.64-4.032-8.048-1.824-5.52-6.24-3.488-11.232 1.088-2.656 1.040-5.936 0.896-8.912-0.32-6.608 4.192-11.584 10.016-9.664 7.296 2.4 8.736-1.504 8.912-7.072 0.192-5.52 1.136-9.872 8.832-7.632zM405.216 251.136c-5.6-3.552-9.248-7.68-12.592-7.44-2.88 0.224-5.408 5.408-8.080 8.4 3.408 2.944 6.496 7.168 10.432 8.24 1.92 0.544 5.488-4.72 10.24-9.2z"></path>
<path d="M85.488 461.056c4.768-7.776 9.536-15.552 14.272-23.328 2.56-4.208 4.8-8.656 7.728-12.592 3.136-4.224 7.184-7.76 10.272-12.032 2.48-3.44 4.544-7.328 6.016-11.296 2.32-6.272 4.064-12.768 5.904-19.2 1.392-4.864 3.024-8.368 9.504-7.744 4.64 0.464 6.576-7.232 3.36-13.36-1.888-3.616-4.048-7.216-6.672-10.32-12.256-14.56-18.176-31.728-24.224-49.552-3.44-10.064-6.48-22.32-16.88-29.872-7.888-5.712-12.688-6.176-20.672 0.336-2.048 1.664-6.064 1.424-9.136 1.264-7.168-0.352-14.336-0.96-21.44-1.904-6.448-0.88-12.784-2.64-19.264-3.488-5.504-0.736-11.12-0.592-16.688-1.088-2.608-0.24-5.136-1.040-7.568-3.216 9.904-2.32 19.76-4.992 29.744-6.896 15.536-2.944 31.216-5.12 46.72-8.16 4.528-0.896 7.328-1.152 10.128 3.456 1.472 2.448 7.184 5.248 8.384 4.352 2.768-2.064 5.024-6.080 5.6-9.584 2.24-13.728 2.704-27.808 5.872-41.248 2.208-9.376 7.488-18.096 11.952-26.8 6.176-12.096 10.352-24.592 9.376-38.352-0.352-5.056-1.888-8.8-8.32-9.136-2.416-0.112-5.984-3.136-6.768-5.568-2.464-7.424-3.52-15.328-5.856-22.816-0.736-2.368-3.632-4.272-5.872-5.92-9.664-6.976-15.648-16.064-18.064-27.36 0.672-0.592 1.328-1.216 2-1.808 6.112 5.088 12.352 10.016 18.304 15.248 11.344 9.952 22.736 19.84 33.6 30.288 2.032 1.968 2.288 6.448 2.208 9.744-0.112 5.056 1.504 7.856 6.336 10.112 5.536 2.576 10.384 6.656 17.072 11.12-6.4 14.144-13.12 28.768-19.632 43.52-10.080 22.816-17.632 46.192-14.688 71.712 1.248 10.864 1.232 22.016 3.792 32.544 1.648 6.768 6.448 12.992 10.688 18.848 11.536 15.952 23.584 31.536 35.248 47.424 1.104 1.504 1.968 4.88 1.136 5.84-2.064 2.336-5.040 5.12-7.856 5.36-9.088 0.752-10.304 2.080-9.568 10.96 0.224 2.576-1.76 5.904-3.696 8-20.448 22.24-41.088 44.304-61.68 66.4-2.528 2.72-5.104 5.376-7.648 8.064-0.992-0.656-2-1.312-2.992-1.952zM121.488 264.016c0.608-0.64 1.232-1.248 1.84-1.888-3.040-2.896-6.080-5.824-9.12-8.72-3.216 3.472-8.4 6.672-8.976 10.544-0.416 2.736 4.992 8.432 8.56 9.2 5.168 1.088 9.2-2.576 7.68-9.136z"></path>
<path d="M279.552 310.576c2.976 6.704 5.424 13.008 2.336 21.072-1.952 5.104-0.736 10.624 2.992 16.688 5.248 8.512 7.744 19.456 8.736 29.632 0.72 7.392-6.592 12.304-13.456 14.192-2.88 0.8-8.096-1.584-10.144-4.192-3.68-4.672-6.752-9.232-2.992-17.024 3.792-7.92 2.992-18.016 4.416-27.12 1.712-11.088 3.632-22.144 5.488-33.216 0.896 0 1.76 0 2.64-0.016z"></path>
</svg>
