<!-- Generated by IcoMoon.io -->
<svg version="1.1" xmlns="http://www.w3.org/2000/svg" width="512" height="512" viewBox="0 0 512 512">
<title>monsters-of-order</title>
<g id="icomoon-ignore">
</g>
<path d="M330.704 490.304c-19.664-21.632-20.848-23.6-14.544-30.288 3.536-3.536 6.288-11.008 6.288-16.512-0.4-13.376-13.76-41.296-25.168-51.904-9.44-9.040-9.824-9.44-3.936-26.736 10.224-29.104-0.4-83.376-20.064-101.856-27.92-25.952-52.304 22.816-37.36 73.536 3.536 11.008 3.536 18.096 0.784 23.2-6.688 12.592-14.16 70-10.624 82.592 4.32 14.944 3.936 16.512-9.44 40.896l-11.408 20.448-28.32-55.84 8.256-16.512c6.688-13.376 7.872-21.232 6.688-47.984-0.784-19.664-3.936-37.36-8.256-46.016-7.072-14.16-7.072-14.944 0.784-27.536 11.792-19.264 11.008-44.432-1.568-56.64-12.976-12.976-30.672-12.976-44.048 0.4-8.656 9.040-9.824 12.192-7.472 28.704l2.352 18.48-32.64 10.624c-35.392 11.408-44.048 12.976-40.112 6.688 1.568-2.352 4.72-17.696 7.072-34.608 4.72-29.104 5.12-30.288 18.88-36.96 10.624-4.72 17.312-12.192 24.784-27.536 11.408-22.816 12.592-33.824 5.504-53.488-4.32-11.408-3.936-13.76 1.968-16.912 12.592-7.472 19.664-26.736 16.912-48.368-1.184-11.008-3.536-23.6-4.72-28.32-1.568-6.688 0.4-9.44 10.224-13.376 6.688-2.752 22.416-16.512 35.392-31.072l23.2-25.952 11.008 10.624c12.976 12.192 28.32 18.88 44.832 18.88 14.16 0 48.768-16.912 51.904-25.568 3.936-10.224 8.656-7.072 27.536 19.664 11.408 15.728 23.984 28.32 32.256 32.256 14.944 7.072 15.728 11.008 9.824 33.424-5.504 19.664 1.184 45.616 14.544 57.024 9.44 7.472 10.224 9.824 5.904 18.88-6.288 13.76-5.904 26.736 1.568 44.432 7.872 19.264 24.384 36.176 35.792 36.176 8.256 0 9.040 1.568 9.040 19.664 0 10.624 1.968 27.536 4.72 37.36 2.752 9.44 3.536 18.48 2.352 19.664-1.184 1.568-8.256-0.4-15.344-3.936-7.072-3.936-20.064-9.040-28.704-11.408-16.128-4.72-16.128-4.72-17.296-24.784-1.184-17.296-3.152-22.016-12.976-30.672-13.76-11.408-19.264-12.192-34.608-3.936-17.296 8.656-21.232 25.168-14.16 56.24 3.536 14.16 9.44 31.456 13.76 38.144 5.904 9.44 7.872 19.664 7.872 38.928 0 33.824 6.688 60.176 16.912 67.248l8.256 5.904-8.656 27.536c-5.12 14.944-10.224 27.92-11.792 28.704s-12.192-8.656-23.984-21.632zM349.568 464.752c-5.904-7.072-13.376-0.4-9.824 8.656 1.968 5.504 3.536 5.904 8.256 1.968s5.12-6.288 1.568-10.624zM208.384 453.344c0-5.504-8.256-7.472-12.976-2.752-3.536 3.536 5.12 13.376 9.44 10.624 1.968-1.184 3.536-4.72 3.536-7.872zM331.872 373.504c2.752-4.32-1.184-16.128-5.504-16.128s-8.256 11.792-5.504 16.128c1.184 1.968 3.536 3.536 5.504 3.536s4.32-1.568 5.504-3.536zM212.32 333.776c0-4.32-2.352-7.872-5.504-7.872-7.072 0-11.408 6.288-8.256 11.792 4.32 7.072 13.76 4.32 13.76-3.936zM102.208 278.72c0-5.12-2.752-7.872-7.872-7.872s-7.872 2.752-7.872 7.872c0 5.12 2.752 7.872 7.872 7.872s7.872-2.752 7.872-7.872zM427.84 279.904c-1.968-10.224-14.944-11.408-14.944-1.568 0 5.904 2.352 8.256 8.256 8.256 5.504 0 7.472-1.968 6.688-6.688zM240.24 162.704l4.72-11.792 6.288 14.544c7.472 17.696 9.44 18.096 15.344 4.72 5.904-11.792 10.624-9.824 13.76 6.288 1.968 8.256 4.32 11.008 8.656 9.44 4.32-1.968 5.904-8.656 5.904-27.92 0-31.072 4.72-31.072 21.632 0 6.288 12.192 13.76 22.416 16.128 22.416 2.752 0 8.656-3.152 13.376-7.072 8.256-6.688 8.656-8.256 3.936-29.488-2.352-12.592-3.936-29.104-3.536-37.36 1.184-16.512-1.184-22.416-12.192-28.32-6.288-3.536-8.656-1.968-13.76 7.872-8.656 16.512-14.544 14.944-11.792-2.752 1.968-12.976 1.568-14.16-2.752-8.256-2.752 3.536-8.256 11.792-11.792 18.48-8.256 14.944-14.944 15.728-15.344 1.568-0.4-6.288-1.568-15.344-3.152-20.848l-3.152-9.824-5.12 11.008c-3.536 7.072-7.472 10.224-11.008 8.656-9.44-3.536-16.512 5.904-16.512 22.016 0 8.656-1.568 15.344-3.152 15.344-5.12 0-15.344-12.592-20.848-25.568l-5.12-11.792-1.968 15.728-2.352 15.728-11.408-16.512c-13.376-20.064-20.848-21.632-23.6-3.936-1.184 6.688-3.152 18.88-4.32 26.352-7.472 47.984-7.472 46.016 3.536 53.088 13.376 8.656 19.264 6.288 30.288-14.16 12.976-23.2 17.696-23.2 20.448 0.4 1.184 11.008 3.536 22.016 5.12 24.384 3.152 4.72 3.936 3.152 13.76-22.416z"></path>
</svg>
