<!-- Generated by IcoMoon.io -->
<svg version="1.1" xmlns="http://www.w3.org/2000/svg" width="32" height="32" viewBox="0 0 32 32">
<title>factions-chaos-claws-of-karanak-cropped</title>
<path d="M20.669 30.644c-1.229-1.352-1.303-1.475-0.909-1.893 0.221-0.221 0.393-0.688 0.393-1.032-0.025-0.836-0.86-2.581-1.573-3.244-0.59-0.565-0.614-0.59-0.246-1.671 0.639-1.819-0.025-5.211-1.254-6.366-1.745-1.622-3.269 1.426-2.335 4.596 0.221 0.688 0.221 1.131 0.049 1.45-0.418 0.787-0.885 4.375-0.664 5.162 0.27 0.934 0.246 1.032-0.59 2.556l-0.713 1.278-1.77-3.49 0.516-1.032c0.418-0.836 0.492-1.327 0.418-2.999-0.049-1.229-0.246-2.335-0.516-2.876-0.442-0.885-0.442-0.934 0.049-1.721 0.737-1.204 0.688-2.777-0.098-3.54-0.811-0.811-1.917-0.811-2.753 0.025-0.541 0.565-0.614 0.762-0.467 1.794l0.147 1.155-2.040 0.664c-2.212 0.713-2.753 0.811-2.507 0.418 0.098-0.147 0.295-1.106 0.442-2.163 0.295-1.819 0.32-1.893 1.18-2.31 0.664-0.295 1.082-0.762 1.549-1.721 0.713-1.426 0.787-2.114 0.344-3.343-0.27-0.713-0.246-0.86 0.123-1.057 0.787-0.467 1.229-1.671 1.057-3.023-0.074-0.688-0.221-1.475-0.295-1.77-0.098-0.418 0.025-0.59 0.639-0.836 0.418-0.172 1.401-1.032 2.212-1.942l1.45-1.622 0.688 0.664c0.811 0.762 1.77 1.18 2.802 1.18 0.885 0 3.048-1.057 3.244-1.598 0.246-0.639 0.541-0.442 1.721 1.229 0.713 0.983 1.499 1.77 2.016 2.016 0.934 0.442 0.983 0.688 0.614 2.089-0.344 1.229 0.074 2.851 0.909 3.564 0.59 0.467 0.639 0.614 0.369 1.18-0.393 0.86-0.369 1.671 0.098 2.777 0.492 1.204 1.524 2.261 2.237 2.261 0.516 0 0.565 0.098 0.565 1.229 0 0.664 0.123 1.721 0.295 2.335 0.172 0.59 0.221 1.155 0.147 1.229-0.074 0.098-0.516-0.025-0.959-0.246-0.442-0.246-1.254-0.565-1.794-0.713-1.008-0.295-1.008-0.295-1.081-1.549-0.074-1.081-0.197-1.376-0.811-1.917-0.86-0.713-1.204-0.762-2.163-0.246-1.081 0.541-1.327 1.573-0.885 3.515 0.221 0.885 0.59 1.966 0.86 2.384 0.369 0.59 0.492 1.229 0.492 2.433 0 2.114 0.418 3.761 1.057 4.203l0.516 0.369-0.541 1.721c-0.32 0.934-0.639 1.745-0.737 1.794s-0.762-0.541-1.499-1.352zM21.848 29.047c-0.369-0.442-0.836-0.025-0.614 0.541 0.123 0.344 0.221 0.369 0.516 0.123s0.32-0.393 0.098-0.664zM13.024 28.334c0-0.344-0.516-0.467-0.811-0.172-0.221 0.221 0.32 0.836 0.59 0.664 0.123-0.074 0.221-0.295 0.221-0.492zM20.742 23.344c0.172-0.27-0.074-1.008-0.344-1.008s-0.516 0.737-0.344 1.008c0.074 0.123 0.221 0.221 0.344 0.221s0.27-0.098 0.344-0.221zM13.27 20.861c0-0.27-0.147-0.492-0.344-0.492-0.442 0-0.713 0.393-0.516 0.737 0.27 0.442 0.86 0.27 0.86-0.246zM6.388 17.42c0-0.32-0.172-0.492-0.492-0.492s-0.492 0.172-0.492 0.492c0 0.32 0.172 0.492 0.492 0.492s0.492-0.172 0.492-0.492zM26.74 17.494c-0.123-0.639-0.934-0.713-0.934-0.098 0 0.369 0.147 0.516 0.516 0.516 0.344 0 0.467-0.123 0.418-0.418zM15.015 10.169l0.295-0.737 0.393 0.909c0.467 1.106 0.59 1.131 0.959 0.295 0.369-0.737 0.664-0.614 0.86 0.393 0.123 0.516 0.27 0.688 0.541 0.59 0.27-0.123 0.369-0.541 0.369-1.745 0-1.942 0.295-1.942 1.352 0 0.393 0.762 0.86 1.401 1.008 1.401 0.172 0 0.541-0.197 0.836-0.442 0.516-0.418 0.541-0.516 0.246-1.843-0.147-0.787-0.246-1.819-0.221-2.335 0.074-1.032-0.074-1.401-0.762-1.77-0.393-0.221-0.541-0.123-0.86 0.492-0.541 1.032-0.909 0.934-0.737-0.172 0.123-0.811 0.098-0.885-0.172-0.516-0.172 0.221-0.516 0.737-0.737 1.155-0.516 0.934-0.934 0.983-0.959 0.098-0.025-0.393-0.098-0.959-0.197-1.303l-0.197-0.614-0.32 0.688c-0.221 0.442-0.467 0.639-0.688 0.541-0.59-0.221-1.032 0.369-1.032 1.376 0 0.541-0.098 0.959-0.197 0.959-0.32 0-0.959-0.787-1.303-1.598l-0.32-0.737-0.123 0.983-0.147 0.983-0.713-1.032c-0.836-1.254-1.303-1.352-1.475-0.246-0.074 0.418-0.197 1.18-0.27 1.647-0.467 2.999-0.467 2.876 0.221 3.318 0.836 0.541 1.204 0.393 1.893-0.885 0.811-1.45 1.106-1.45 1.278 0.025 0.074 0.688 0.221 1.376 0.32 1.524 0.197 0.295 0.246 0.197 0.86-1.401z"></path>
</svg>
