<!-- Generated by IcoMoon.io -->
<svg version="1.1" xmlns="http://www.w3.org/2000/svg" width="512" height="512" viewBox="0 0 512 512">
<title>monsters-of-order</title>
<g id="icomoon-ignore">
</g>
<path d="M253.264 0c11.52 10.288 14.016 16.4 9.488 23.344 10.528 10.736 2.016 24.304 4.816 36.32 10.544-6.032 20.56-11.872 30.736-17.408 1.024-0.544 3.088 0.848 5.952 1.728-18 35.184-26.144 72.096-23.664 111.648 1.904-4.096 4.016-8.112 5.664-12.32 8.272-21.072 21.584-38.96 36.432-55.568 10.848-12.112 23.040-23.088 35.28-33.824 3.040-2.672 8.592-2.48 12.976-3.6-1.392 4.064-1.776 8.912-4.288 12.064-15.728 19.552-27.472 41.28-37.824 64-3.68 8.096-10.48 14.816-13.84 22.992-9.856 23.888-16.032 48.272-13.488 74.896 2.448 25.52 6.32 50.448 15.888 74.224 6.336 15.744 15.68 29.568 29.328 40.096 18.816 14.496 52.288 6.816 66.384-15.040 9.12-14.096 8.416-29.792 7.536-45.392-1.408-25.12-8.4-48.256-29.328-64.176-15.104-11.504-40.48-10.688-47.392 16.016-4.432 17.12-1.76 33.216 4.144 48.992 2.144 5.728 6.576 10.928 11.024 15.344 4.88 4.832 10.592 3.888 15.248-1.264 7.792-8.576 9.024-24.976 3.088-35.056-3.056-5.2-6.592-2.624-10.432-1.632-2.784 0.72-5.808 0.416-8.72 0.592 0.368-3.088-0.144-6.656 1.264-9.136 3.296-5.744 7.264-10.736 15.248-11.088 9.552-0.432 16.656 3.36 20.96 11.152 7.984 14.464 10.464 50.224-7.088 65.744-7.984 7.072-26.624 10.56-37.552 4.944-15.552-8-27.248-19.808-31.68-37.12-5.808-22.656-9.824-45.872 1.76-67.712 7.008-13.232 16.592-25.552 33.28-27.712 16.8-2.176 33.6-5.968 49.968 3.36 32.736 18.688 50.624 45.584 48.88 84.16-0.608 13.248-0.608 26.56-1.776 39.744-3.92 44.192-40.656 70.080-80.672 67.904-15.488-0.832-28.384-9.008-41.28-16.704-1.472-0.896-3.008-1.696-4.592-2.416-0.384-0.176-1.024 0.224-2.848 0.688 4.496 10.4 7.936 21.136 13.488 30.656 11.024 18.944 23.232 37.184 34.8 55.824 1.36 2.208 1.584 5.12 2.32 7.696-3.216-0.144-7.456 0.96-9.488-0.672-11.904-9.616-24.864-18.576-34.48-30.224-13.888-16.8-25.536-35.472-37.488-53.776-4.016-6.144-5.984-13.6-10.016-20.544 0 10-0.672 20.064 0.192 30s3.008 19.824 5.040 29.664c2.080 10.128 3.952 20.416 7.264 30.176 3.168 9.344 8.048 18.112 12.656 28.144-17.264 2.32-24.144-12.544-37.968-19.136 0 3.648 0.144 6.224-0.016 8.784-0.896 13.152-0.912 26.496-3.248 39.376-0.896 4.896-7.184 8.832-11.008 13.184-3.952-3.952-9.024-7.248-11.6-11.936-7.504-13.632-5.28-28.624-4.208-43.312 0.128-1.76 0.368-3.488 0.832-7.808-4.128 3.056-6.208 4.704-8.368 6.208-6.896 4.736-13.696 9.696-20.896 13.888-1.904 1.104-5.248-0.224-7.92-0.432 0.384-2.432 0.128-5.248 1.28-7.232 3.216-5.488 6.768-10.8 10.608-15.888 11.968-15.84 14.304-34.448 15.84-53.344 0.896-10.928 1.968-21.856 2.816-32.784 0.192-2.672-0.224-5.36-0.448-10.608-7.088 14.144-12.384 26.192-18.912 37.488-15.616 27.008-34.544 51.296-60.64 69.12-1.664 1.12-4.4 0.72-6.64 0.992 0.288-2.48-0.224-5.424 0.96-7.376 13.040-21.824 26.432-43.44 39.44-65.28 2.88-4.832 4.592-10.4 6.848-15.616-0.544-0.592-1.088-1.152-1.6-1.728-2.576 1.28-5.232 2.432-7.696 3.888-26.256 15.376-54 15.904-80.992 4.4-21.264-9.040-37.056-25.664-40.176-49.776-2.784-21.568-4.768-43.584-3.712-65.264 1.568-32.48 30.736-67.6 62.672-74.432 20.24-4.336 40.352-2.512 57.6 14.672 21.632 21.552 22.72 44.864 15.856 72.176-3.088 12.256-8.736 22.224-14.768 32.72-11.344 19.76-50.576 23.28-63.888-1.408-5.2-9.632-4.128-22.896-4.944-34.56-0.32-4.704 1.6-9.68 2.944-14.4 3.696-12.992 19.936-20.64 32.368-15.376 6.032 2.56 8.128 7.12 7.136 16.496-7.696-4.512-14.864-6.272-20.544 2.992-4.816 7.84-2.272 29.296 4.752 35.28 7.312 6.208 15.168 5.872 21.344-1.44 10.288-12.128 17.744-54.8 4.128-72.592-10.224-13.36-30.576-14.544-42.784-4.752-16.352 13.088-25.696 30.848-28.384 50.944-2.976 22.128-3.168 44.512 11.568 64.096 15.888 21.088 50.656 23.12 67.728 2.976 16.64-19.632 27.248-42.032 33.824-67.344 7.36-28.336 7.632-56.272 2.208-84.224-2.88-14.8-9.872-28.944-16.192-42.848-12.432-27.424-26.384-54.064-45.040-77.952-1.872-2.384-3.168-5.232-4.736-7.856 0.448-0.72 0.928-1.456 1.392-2.176 2.848 0.992 6.112 1.392 8.464 3.056 16.88 11.968 32.224 25.84 43.2 43.408 11.568 18.512 21.52 38.016 32.176 57.104 0.56 0.992 1.024 2.064 2.864 2.544 0.544-20.112 1.504-40.176-4.96-58.816-6.624-18.448-16.32-35.792-25.040-54.624 15.904-1.664 24.080 13.088 37.744 19.12-0.368-3.088-0.656-4.864-0.784-6.64-1.408-20.24-3.824-40.72 14.672-55.696 0.592 0 1.168 0 1.76 0z"></path>
</svg>
