<!-- Generated by IcoMoon.io -->
<svg version="1.1" xmlns="http://www.w3.org/2000/svg" width="512" height="512" viewBox="0 0 512 512">
<title>monsters-of-order</title>
<g id="icomoon-ignore">
</g>
<path d="M242.688 481.072c-13.248-17.984-26.176-40.368-31.216-52.992-4.736-11.984-12.304-29.648-16.72-39.104s-11.984-27.12-17.024-39.424c-4.736-11.984-9.776-23.344-11.36-24.912-1.264-1.888-2.528-5.68-2.528-8.512 0-3.152-6.304-12.608-13.872-21.76-7.568-8.832-16.080-22.704-19.232-30.912-6.304-17.984-7.568-20.496-23.344-54.56-8.832-18.608-16.4-29.968-24.592-36.592-6.624-5.36-15.136-12.304-19.232-15.776-5.68-4.416-7.568-10.4-10.096-31.232-1.584-13.872-3.792-29.024-4.736-33.424-3.792-14.192 46.368-81.376 60.56-81.376 1.888 0 0.624 5.68-2.832 12.608-9.776 19.232-13.568 49.52-8.512 64.336 6 16.72 14.816 22.384 53.296 32.48 32.48 8.512 34.688 8.832 113.232 8.192 45.104-0.32 87.68-2.208 97.776-4.416 23.648-4.736 40.048-14.192 45.104-26.176 6-13.872 5.68-84.208-0.32-91.456-8.512-10.4-1.584-7.248 18.608 7.888 11.984 9.152 22.384 19.872 24.912 25.856 7.248 16.72 12.928 40.688 12.928 54.256 0 24.288-15.776 69.392-32.48 92.416-15.136 21.136-40.048 70.96-40.048 80.432 0 4.096-1.264 8.512-2.832 10.416-4.736 5.040-19.232 46.992-19.232 55.504 0 9.456-6.944 26.176-33.12 82.944-5.68 12.304-12.304 26.8-14.192 32.48-2.208 5.68-6.944 12.928-10.72 15.776-3.472 3.152-8.832 9.152-11.36 13.872-7.888 13.568-25.856 34.064-29.968 34.064-2.208 0-14.192-13.872-26.816-30.912zM283.376 411.056c6.624-6.944 15.776-20.192 20.192-29.024 21.44-45.104 33.44-71.6 36.896-82.944 2.528-6.944 7.568-19.872 11.664-29.024 4.096-8.832 7.248-17.664 7.248-19.232s2.208-7.248 5.040-12.624c6-11.984 8.832-38.48 4.096-38.48-1.584 0-2.528-1.264-1.264-2.832 0.944-1.888-1.264-6-5.040-9.152-5.68-5.36-13.248-6.624-58.656-8.512-28.704-1.264-63.072-1.264-76.32 0-13.248 1.584-29.328 2.832-36.272 3.472-6.624 0.624-14.816 3.472-18.288 6.624-5.68 5.040-6 8.192-4.096 29.328 1.264 16.080 4.416 27.12 9.152 34.688 3.792 6 11.040 21.136 15.776 33.12 5.040 12.304 11.664 24.288 14.816 26.8 2.832 2.528 7.568 15.136 10.4 27.76 7.888 35.328 35.632 82.64 48.256 82.64 2.208 0 9.456-5.68 16.4-12.608z"></path>
</svg>
