<!-- Generated by IcoMoon.io -->
<svg version="1.1" xmlns="http://www.w3.org/2000/svg" width="512" height="512" viewBox="0 0 512 512">
<title>monsters-of-order</title>
<g id="icomoon-ignore">
</g>
<path d="M217.44 511.472c-3.808-0.752-7.248-2.736-8.176-4.688-1.328-2.816-1.472-13.152-0.32-22.976 1.328-11.36 2.032-66.48 0.96-76.288-1.072-9.824-2.096-13.856-9.872-38.992-9.664-31.184-12.88-39.648-21.408-56.4-5.168-10.144-9.792-16.96-13.92-20.512-6.832-5.872-6.512-7.392 6.336-31.168 5.152-9.52 8.624-18.544 10.16-26.416 0.512-2.624 1.632-10.72 2.496-17.984 1.76-14.96 2.080-16.256 5.088-20.832 3.872-5.872 10.304-9.792 21.76-13.248 8.624-2.608 12.448-3.2 27.968-4.384 20.608-1.568 26.208-1.296 44.736 2.16 25.088 4.672 34.032 8.512 36.656 15.776 0.576 1.584 1.040 7.44 1.424 17.76 0.944 25.552 2.016 29.76 13.472 52.64 8.288 16.576 9.68 19.776 10.528 24.384 0.816 4.4-0.176 8.224-3.456 13.52-1.488 2.4-3.824 6.688-5.184 9.536-2.816 5.888-33.072 100.608-35.28 110.448-1.344 6-1.376 7.088-1.376 42.176 0 34.928-0.032 36.080-1.232 38.112-1.536 2.624-4.208 3.632-9.728 3.696-5.568 0.064-7.52-0.992-9.392-5.072-1.424-3.12-1.472-3.744-2.112-30.576-0.352-15.072-0.928-31.552-1.296-36.624-0.832-11.856-5.136-43.44-6.448-47.216-0.544-1.6-2.032-4.064-3.28-5.472-2-2.256-2.72-2.624-5.776-3.040-11.2-1.52-20.56 3.392-25.152 13.2-3.744 8-3.728 7.744-4.16 61.616l-0.4 49.248-1.472 2.976c-2.384 4.832-5.44 6.016-12.176 4.688zM270.464 340.832c-0.304-7.84-0.128-12.512 0.832-21.632 1.712-16.272 1.792-16.352 15.216-16.368 9.472-0.016 13.584-0.768 18.192-3.344 3.536-1.984 4.752-3.312 5.232-5.728 0.624-3.136-0.576-3.376-13.136-2.64-17.968 1.056-21.52 1.872-23.056 5.28-0.384 0.832-1.136 1.504-1.68 1.504-1.808 0-3.632 1.808-5.232 5.2l-1.584 3.344v18.816c0 23.264 0.864 21.472-10.096 21.168-7.008-0.192-7.712-0.32-10.080-1.888-1.952-1.296-2.704-2.304-3.264-4.304-1.248-4.608-1.76-10.368-1.776-20.24-0.016-7.92-0.192-9.76-0.976-10.416s-1.136-0.608-2 0.256c-0.912 0.912-1.072 2.96-1.248 16.88-0.224 17.248 0.256 21.616 2.528 23.216 1.104 0.768 4.016 0.928 16.912 0.928h15.584zM239.824 303.664c0.128-0.384-0.592-1.024-1.6-1.44-2.288-0.944-3.856-2.656-4.672-5.072-0.656-1.936-1.184-2.208-11.712-6.048-6.528-2.384-20.752-2.32-23.184 0.112-1.632 1.632-1.232 3.6 1.024 4.832 1.008 0.56 1.952 1.552 2.064 2.208 0.368 2.032 1.952 3.248 5.856 4.496 5.632 1.824 5.28 1.792 19.12 1.696 8.832-0.064 12.944-0.304 13.104-0.768zM189.536 479.68c-8.848-1.504-23.6-7.248-30.48-11.856-3.44-2.32-10.528-8.864-23.616-21.824-26.304-26.080-31.152-31.824-39.648-47.136-7.936-14.288-8.576-16.368-14.96-48.624-7.28-36.752-7.264-36.592-7.264-48.944 0-11.952 0.256-13.808 4.88-35.808 4.016-19.088 5.424-23.52 9.36-29.36 2.864-4.272 30.304-43.744 35.584-51.184 4.096-5.776 8.992-11.152 16.464-18.064 13.28-12.256 20.768-17.008 38.112-24.176 13.936-5.76 20.176-7.872 30.64-10.384 18.256-4.384 35.552-6.080 50.992-4.992 10.816 0.768 11.664 0.912 33.952 5.92 24.32 5.456 28.688 7.072 43.488 16.096 12.384 7.552 19.040 12.896 33.264 26.72 16.304 15.84 21.12 21.568 25.696 30.64 2.896 5.744 22.272 50.688 23.648 54.88 2.4 7.328 3.184 12.464 4.4 29.232 1.36 18.656 1.552 31.776 0.56 38.832-0.752 5.44-8.56 38.576-10.512 44.576-3.92 12.144-15.52 35.264-21.76 43.392-4.656 6.064-37.456 38.496-41.552 41.088-10.384 6.576-21.952 9.984-29.808 8.816-4.32-0.64-4.352-0.896-4.352-28.976 0-26.784 0.064-27.52 4.384-47.088 3.040-13.776 5.488-22.72 8.192-30.048 2.384-6.432 21.248-48.992 23.168-52.272 2.704-4.624 7.392-9.712 12.832-13.952 9.488-7.408 9.344-9.856-1.072-17.744-16.368-12.368-19.328-16.32-23.696-31.568-4.24-14.752-4.544-17.104-4.976-37.856-0.416-20.432-0.624-21.648-4.24-25.456-2.256-2.384-2.736-2.608-24.096-11.312-25.44-10.352-24.608-10.176-46.224-10.48-24.88-0.368-26.56-0.112-63.312 9.744-16.16 4.32-21.888 7.488-25.024 13.824-1.12 2.24-1.216 3.872-1.296 20.288-0.080 17.744-0.432 21.696-2.512 28.32-1.168 3.712-9.504 22.336-11.632 26-2.656 4.576-7.392 9.744-13.056 14.272-6.224 4.976-8.688 8.096-9.152 11.632-0.752 5.616 1.712 9.376 15.168 23.2 10.448 10.72 16.32 17.952 20.176 24.816 2.512 4.48 15.328 34.032 18.352 42.336 2.992 8.192 4.784 15.232 8.576 33.6 5.2 25.248 5.648 33.904 2.752 53.44-1.376 9.328-2.848 14.128-5.024 16.464-1.248 1.344-2.16 1.504-5.392 0.96zM444.72 312.256c-2.272-0.656-4.096-2.24-5.328-4.656-0.816-1.616-2.352-9.088-4.56-22.352-4.256-25.488-6.32-33.904-13.92-56.912-10.656-32.192-11.136-32.944-39.84-61.6-11.728-11.712-23.024-22.576-25.12-24.16-13.936-10.56-39.328-22.432-58.672-27.456-16.416-4.256-18.864-4.624-31.088-4.592-10.368 0.016-12.176 0.208-28.016 2.928-25.168 4.32-29.696 5.696-55.408 16.72-26.064 11.184-32.48 14.576-43.984 23.264-6.72 5.072-38.288 36.432-43.12 42.848-6.080 8.064-10.032 16.416-16.608 35.152-11.984 34.096-13.296 38.96-14.464 53.472-0.48 5.968-0.96 8.384-2.224 11.184-3.152 7.008-5.44 8-18.592 8.032-16.784 0.032-38.288-4.256-38.288-7.632 0-1.616 7.392-5.376 18.864-9.616 8.24-3.056 11.312-4.912 16.736-10.144 7.968-7.696 7.984-7.744 21.104-47.104 9.072-27.216 11.872-36.336 12.080-39.424 0.32-4.576-0.512-8.544-5.392-25.616-4.8-16.784-8.256-21.968-21.248-31.792-9.408-7.104-10.464-8.080-9.824-9.104 1.44-2.336 23.52 1.728 33.2 6.112 7.376 3.344 13.792 8.528 16.832 13.6 2.224 3.712 6.352 7.264 9.184 7.904 5.44 1.216 10.704-0.928 23.856-9.712 4.416-2.944 11.92-7.68 16.656-10.528 12.592-7.536 19.616-15.248 22.752-25.024 1.968-6.128 6.128-10.048 10.672-10.048 1.008 0 3.44 0.736 5.392 1.632 2.768 1.264 4.832 1.696 9.296 1.936 7.552 0.4 11.248-0.4 24.224-5.184 19.856-7.328 25.456-10.944 27.408-17.728 0.992-3.424 0.992-3.968 0.032-8.864-0.56-2.864-1.936-7.6-3.056-10.512-5.152-13.44-5.552-21.152-1.6-31.408 5.040-13.072 18.096-27.6 23.088-25.68 1.28 0.496 1.152 5.232-0.224 8.848-0.624 1.616-2.528 5.072-4.24 7.68-5.152 7.856-5.632 13.248-2.064 23.312 3.104 8.752 14.704 35.712 16.464 38.272 3.6 5.2 11.056 10.656 17.040 12.464 1.648 0.496 10.64 2.304 20 4.032 28.368 5.216 30.192 5.872 37.936 13.824 2.72 2.784 7.024 6.432 9.552 8.128 9.312 6.176 33.824 20.576 36.624 21.536 5.184 1.76 6.336 1.056 19.984-12.352 14.032-13.776 17.152-16.432 21.808-18.576 4.272-1.952 12.064-2.384 13.68-0.768 1.44 1.44 0.768 3.136-9.44 23.584-12.272 24.576-15.744 30.208-20.048 32.624-1.040 0.576-0.992 0.944 0.736 6.032 1.008 2.976 11.616 27.776 23.568 55.088l21.728 49.664 4.624 4.672c5.824 5.904 9.92 7.936 20.32 10.080 12.32 2.544 21.168 4.624 22.128 5.232 4.080 2.544-12.256 11.040-28.592 14.848-10.736 2.512-29.52 4.72-32.608 3.856z"></path>
</svg>
