<!-- Generated by IcoMoon.io -->
<svg version="1.1" xmlns="http://www.w3.org/2000/svg" width="512" height="512" viewBox="0 0 512 512">
<title>monsters-of-order</title>
<g id="icomoon-ignore">
</g>
<path d="M182.784 356.048c-2.224 1.824-4.24 3.872-6.592 5.344-9.632 6.032-19.264 12.064-29.088 17.792-14.816 8.656-29.76 17.088-45.36 26-1.392-3.28-3.44-6.928-4.496-10.848-1.392-5.168-4.448-6.64-8.944-4.752-11.216 4.704-22.288 9.792-33.472 14.624-2.48 1.072-5.184 1.664-8.224 1.584 14.96-21.168 33.248-38.688 52.224-57.040 2.224 4.592 4.192 8.224 5.776 12.016 2.224 5.296 5.872 7.408 10.288 3.936 8.192-6.448 15.728-13.776 23.088-21.136 1.28-1.296 1.008-4.864 0.448-7.12-0.976-3.84-3.024-7.392-4.16-11.216-1.584-5.328-3.040-10.736-3.952-16.208-0.752-4.432-3.264-6.048-7.248-6.448-26.048-2.512-52.080-4.896-78.096-7.584-12.992-1.36-25.936-3.168-38.848-5.072-2.16-0.32-4.080-2.224-6.112-3.424 0.112-0.608 0.224-1.2 0.336-1.792 9.44-1.632 18.832-3.744 28.336-4.848 24.512-2.816 49.072-5.072 73.584-7.84 6.912-0.784 13.664-2.864 20.56-3.76 5.392-0.688 8.24-3.712 9.84-8.432 1.28-3.776 2.736-7.552 3.456-11.456 0.336-1.824-0.32-4.448-1.536-5.808-5.776-6.4-11.68-12.656-17.936-18.576-4.464-4.208-7.024-3.168-8.896 2.8-2.368 7.52-5.088 8.24-10.832 3.040-20.656-18.72-41.376-37.408-61.728-57.424 4.128 1.68 8.368 3.12 12.384 5.040 13.232 6.336 26.32 12.96 39.6 19.216 5.92 2.8 9.568 0.56 11.056-5.856 0.672-2.896 1.728-5.712 3.104-10.128 16.048 9.328 30.976 17.776 45.632 26.64 5.36 3.248 9.328 3.664 13.584-1.728 3.488-4.432 8.208-7.904 11.776-12.288 1.52-1.872 2.56-5.328 1.936-7.536-3.328-11.712-7.072-23.328-11.152-34.816-0.688-1.952-3.664-4.24-5.68-4.304-2.944-0.112-6.176 1.168-8.848 2.688-6.544 3.68-8.336 2.8-10.336-4.672-4.656-17.472-9.648-34.864-14.432-52.32-0.72-2.576-0.928-5.312-1.36-7.984 0.64-0.384 1.28-0.768 1.92-1.152 4.208 5.648 8.528 11.2 12.592 16.944 3.84 5.456 7.328 11.184 11.152 16.656 4 5.728 9.104 2.176 12.944 0.304 5.392-2.624 7.84-1.728 10.096 3.728 1.68 3.984 4.912 7.296 7.264 11.040 6.672 10.656 13.024 21.52 19.952 31.984 5.488 8.272 7.152 8.48 16.496 5.232 1.392-0.48 2.88-0.608 4.352-0.912 10.864-2.352 12.528-5.184 14.016-16.048 3.056-22.352 6.672-44.656 10.608-66.864 2.896-16.368 6.64-32.576 10.048-48.832 0.304-1.408 0.784-2.784 2.624-4.416 1.408 5.872 3.008 11.712 4.192 17.632 4.256 21.44 8.384 42.912 12.56 64.368 1.536 7.872 2.832 15.776 4.544 23.616 1.568 7.184 2.8 14.608 5.68 21.264 1.616 3.728 5.84 7.584 9.728 8.832 13.488 4.352 13.504 3.872 20.432-8.864 7.808-14.336 15.792-28.576 23.808-42.784 1.984-3.52 4.368-2.208 6.592-0.064 2.864 2.768 5.776 5.488 8.624 8.272 3.792 3.712 7.008 3.152 9.792-1.232 8.128-12.752 16.16-25.552 24.448-38.192 2.368-3.616 5.52-6.72 8.32-10.048 0.672 0.416 1.376 0.816 2.048 1.232-9.456 29.424-18.896 58.832-28.912 89.984-3.184-3.424-5.392-5.472-7.232-7.824-4.064-5.2-9.072-5.136-11.84 0.848-3.728 8-7.184 16.16-9.872 24.528-0.816 2.56 0.464 6.592 2.16 8.992 2.608 3.728 6.384 6.624 9.648 9.872 7.12 7.040 6.832 6.544 15.68 1.44 15.248-8.8 30.88-16.896 47.408-25.856 1.92 5.216 3.568 9.232 4.912 13.344 1.984 5.968 5.152 7.12 10.48 4.368 10.064-5.2 20.288-10.064 30.496-14.976 4.88-2.336 9.856-4.448 14.832-6.672-1.2 6.4-37.904 42.816-57.296 56.928-0.368-0.128-0.928-0.16-1.12-0.432-7.072-10.352-6.976-10.224-17.648-3.008-4.512 3.040-9.504 5.376-14.256 8.080-7.296 4.16-8.592 7.44-6.016 15.472 1.152 3.6 2.48 7.136 3.84 10.672 2.528 6.512 8.384 8.016 14.32 8.816 24.448 3.264 48.976 5.888 73.36 9.616 13.888 2.112 27.52 5.888 41.744 10.048-3.744 1.152-7.392 2.784-11.2 3.408-12.688 2.096-25.424 3.824-38.128 5.776-17.648 2.688-35.392 5.024-52.928 8.336-7.68 1.44-15.792 3.648-22.272 7.776-7.616 4.864-8.624 14.512-10.48 22.88-0.32 1.408 1.776 3.744 3.264 5.072 6.080 5.504 12.336 10.816 18.56 16.16 3.424 2.944 6.128 1.872 8.32-1.6 1.872-2.96 3.648-5.968 6.048-9.888 19.68 16.080 38.656 31.6 57.632 47.104-0.352 0.736-0.72 1.44-1.088 2.176-1.696-0.464-3.52-0.656-5.056-1.424-7.024-3.568-13.952-7.344-20.944-10.912-1.856-0.944-4-1.312-5.872-2.24-8.432-4.256-15.408-1.616-18.672 7.136-3.824 10.32-5.616 10.48-15.568 4.784-11.136-6.336-23.072-11.28-34.16-17.648s-21.648-13.664-32.192-20.912c-1.12-0.768-1.44-4.304-0.688-5.856 3.344-6.96 7.84-13.408 10.704-20.544 2.928-7.248 4.592-15.056 6.544-22.672 0.928-3.632 1.2-7.44 1.776-11.168 0.224-1.44 0.976-2.96 0.752-4.336-3.056-18.72-3.872-38.16-17.504-53.488-6.512-7.328-11.856-15.856-19.088-22.336-8.272-7.408-18.592-11.616-29.2-15.68-17.104-6.56-34.288-4.512-51.264-2.928-24.64 2.304-45.008 13.696-59.968 34.032-15.728 21.392-23.392 45.024-19.776 71.552 2.544 18.592 9.472 35.6 21.408 50.352 0.48 0.576 0.88 1.312 1.84 2.816zM368.080 289.456c4.256 2.304 6.704 4.56 9.232 4.656 1.536 0.048 4.736-3.552 4.448-4.912-0.448-2.144-3.328-5.36-5.024-5.28-2.4 0.128-4.688 2.832-8.656 5.536zM145.184 287.904c0.032-0.8 0.064-1.6 0.112-2.416-2.032-1.232-4.128-3.52-6.096-3.408-2 0.128-3.872 2.608-5.792 4.048 1.872 1.84 3.504 4.672 5.664 5.152 1.696 0.384 4.048-2.144 6.112-3.36zM319.856 180.176c-2.304 3.088-5.072 5.568-4.624 6.448 1.104 2.176 3.456 4.192 5.76 5.008 0.816 0.304 4.24-3.104 4.128-4.656-0.144-1.904-2.688-3.664-5.248-6.8zM191.712 190.096c-0.032 0.8-0.096 1.584-0.128 2.384 2.16 1.504 4.352 4.144 6.464 4.112 1.792-0.032 3.52-3.216 5.296-5.008-1.712-1.536-3.296-4.112-5.136-4.288-2.048-0.224-4.336 1.76-6.496 2.8zM364.096 344.128c-3.664-2.304-5.616-4.496-7.264-4.288-1.728 0.208-4.304 2.656-4.416 4.256-0.112 1.632 2.4 4.896 3.664 4.832 2.080-0.096 4.064-2.256 8.016-4.784zM157.456 359.28c2.608-3.616 5.328-5.776 5.056-7.456-0.304-1.952-3.264-3.504-5.056-5.232-1.44 1.728-3.888 3.36-4.064 5.216-0.176 1.792 1.952 3.808 4.064 7.488zM359.344 223.248c-2.496 3.2-5.008 5.024-4.976 6.8 0.032 1.616 2.672 4.080 4.496 4.432 1.264 0.256 4.336-2.368 4.4-3.808 0.112-1.92-1.936-3.952-3.92-7.424zM160.176 229.152c-0.816 0.016-1.632 0.032-2.464 0.048-1.12 1.872-3.344 3.968-3.040 5.568 0.336 1.696 2.944 3.68 4.848 4.048 1.072 0.192 3.808-2.64 3.808-4.112 0.016-1.84-2.016-3.712-3.152-5.552zM264.16 173.84c-3.136-1.68-5.024-3.504-6.4-3.184-1.664 0.368-2.864 2.624-4.272 4.048 1.424 1.248 2.96 3.584 4.272 3.472 1.776-0.16 3.424-2.192 6.4-4.336z"></path>
<path d="M319.024 243.216c-0.976 6.928-5.6 10.8-8.768 15.376-3.44 4.976-7.536 9.488-10.752 14.592-4.496 7.072-7.664 8.48-14.88 4.496-4.736-2.624-9.28-5.792-13.376-9.312-7.84-6.752-16.48-10.704-27.024-10.16-6.896 0.352-13.84 5.712-15.696 12.464-2.96 10.784-1.072 18.144 6.304 22.288 2.16 1.216 5.216 1.6 7.712 1.264 8.928-1.152 17.408-0.528 26.208 2.064 10.576 3.12 21.168 5.936 29.376 13.552 14.464 13.424 20.4 34.080 7.696 53.504-3.728 5.68-8.528 8.864-14.368 12.272-11.52 6.72-23.408 5.408-35.488 5.248-4.432-0.048-8.864-0.176-13.312 0-6.144 0.256-11.744 0-17.056-4.304-4.896-3.968-11.44-5.872-16.544-9.648-4.112-3.040-7.424-7.328-10.512-11.488-0.88-1.152-0.464-4.736 0.656-5.68 6.24-5.216 12.912-9.904 19.328-14.928 3.040-2.4 4.768-3.104 7.152 1.232 7.6 13.824 26.736 23.104 42.304 21.168 11.392-1.424 20.176-17.44 14.256-27.216-7.36-12.112-18.608-19.68-32.688-21.184-10.064-1.072-20.736-2.384-29.6 5.552-1.136 1.040-5.824-0.096-7.456-1.664-21.072-20.256-20.64-42.096-2.176-66.144 6.416-8.368 14.992-13.072 25.136-16.816 17.008-6.272 30.704-0.032 44.64 7.696 10.64 5.888 22.272 5.888 33.872 6.192 1.2 0 2.432-0.208 5.056-0.416z"></path>
</svg>
