<!-- Generated by IcoMoon.io -->
<svg version="1.1" xmlns="http://www.w3.org/2000/svg" width="32" height="32" viewBox="0 0 32 32">
<title>factions-order-questor-soulsworn</title>
<path d="M7.143 29.913c-1.265-0.534-3.99-3.063-4.861-4.496-1.574-2.67-2.079-4.356-2.248-7.587-0.225-4.946 0.674-7.643 3.513-10.538 2.473-2.529 5.17-3.934 9.189-4.777s4.271-0.843 7.081-0.14c3.007 0.787 5.423 1.967 7.306 3.569 2.023 1.742 2.979 3.316 4.046 6.519 1.714 5.283 0.759 10.453-2.698 14.528-1.068 1.265-2.726 2.36-3.063 2.051-0.056-0.084 0.309-0.983 0.843-1.995 1.152-2.332 1.461-4.412 1.012-7.222-0.618-4.046-2.389-6.547-5.929-8.458-1.77-0.955-1.911-0.983-4.918-0.983-2.951 0-3.203 0.056-4.974 0.927-3.344 1.63-5.508 4.693-6.126 8.627-0.506 3.232 0.028 5.62 1.939 8.402 1.18 1.714 1.152 2.108-0.112 1.574z"></path>
<path d="M12.622 29.323c-1.714-0.787-2.698-1.77-3.737-3.765-2.698-5.283 0.983-12.027 6.772-12.42 2.726-0.197 4.637 0.59 6.547 2.67 1.939 2.108 2.304 3.063 2.332 5.957 0.028 2.136-0.056 2.529-0.759 3.709-0.955 1.658-2.079 2.557-4.412 3.597-2.304 1.040-4.833 1.124-6.744 0.253z"></path>
</svg>
