<!-- Generated by IcoMoon.io -->
<svg version="1.1" xmlns="http://www.w3.org/2000/svg" width="512" height="512" viewBox="0 0 512 512">
<title>monsters-of-order</title>
<g id="icomoon-ignore">
</g>
<path d="M260.064 1.056c17.168-4.144 34.128 4.816 51.728 10.864 10.4 3.552 18.8 9.744 25.536 18.272 2.416 3.072 4.72 6.432 6.16 10.032 3.040 7.696 7.68 14.32 12.112 21.2 2.8 4.368 5.072 9.232 6.624 14.176 2.992 9.616 5.776 19.392 7.824 29.264 1.68 8.192 3.12 16.64 2.976 24.976-0.176 10.688-2 21.344-3.184 32.016-0.608 5.328 0.224 9.984 2.752 15.056 2.464 4.928 3.408 11.088 3.344 16.688-0.128 10.208 2.848 19.584 6.656 28.576 4.608 10.848 1.552 17.296-7.696 24.144-10.064 7.424-19.904 15.136-29.936 22.56-1.536 1.152-3.632 2.016-5.536 2.112-5.184 0.288-10.4-0.128-15.584 0.224-1.728 0.128-3.76 1.312-4.976 2.656-8.576 9.376-10.672 20.832-10.576 33.088 0.048 6.24-0.64 12.496-0.944 18.752-0.080 1.264-0.368 2.784 0.176 3.808 3.632 6.816-0.848 10.4-5.408 13.904-5.168 3.952-10.576 7.584-15.584 11.664-3.824 3.136-7.072 7.024-10.864 10.176-3.312 2.784-6.992 5.168-10.688 7.408-2.512 1.536-4.88 1.632-7.632-0.688-2.512-2.096-6.304-2.56-9.264-4.256-9.616-5.552-19.12-11.328-28.624-17.072-7.776-4.704-15.424-9.568-23.248-14.176-2.88-1.68-2.384-3.904-2.144-6.48 0.944-9.888 2.048-19.776 2.512-29.696 0.272-5.776-1.104-11.408-4.256-16.496-1.872-2.992-3.312-6.256-4.896-9.456-4.752-9.568-19.152-10.96-25.536-2.432-5.92 7.888-14.496 8.112-21.024 0.704-2.096-2.384-4.32-4.848-6.944-6.56-11.136-7.12-16.72-17.536-19.2-30.128-1.312-6.656-2.848-13.248-4.624-19.776-0.48-1.824-2.112-3.408-3.392-4.976-4.16-4.992-4.256-8.864 0.288-13.504 2.784-2.8 6.096-5.072 9.056-7.68 6.24-5.44 8.432-16.864 4.768-24.096-0.416-0.832-0.64-1.968-0.416-2.848 3.536-14.256 2.512-28.56 1.504-43.024-0.944-13.808-2.336-28.064 3.584-41.248 3.488-7.776 7.584-15.472 12.672-22.24 7.648-10.176 16.272-19.68 24.784-29.184 8.384-9.376 19.808-13.392 31.52-16.496 13.232-3.488 26.464-7.184 39.904-9.6 7.472-1.312 15.488-0.224 25.728-0.224zM295.808 239.056c2.608-0.288 4.656-0.336 6.624-0.8 4.256-0.976 8.496-2.112 12.72-3.312 5.792-1.632 11.888-2.688 17.28-5.216 8.944-4.24 14.304-12.528 19.52-20.464 1.616-2.464 0.992-6.608 0.832-9.968-0.128-2.432-1.392-4.768-1.776-7.216-0.608-3.824-2.224-5.6-6.016-5.44-3.92 0.192-7.92 0.432-11.744 1.296-6.48 1.44-12.784 3.488-19.248 5.072-5.168 1.264-10.672 1.584-15.536 3.504-4.32 1.712-7.984 5.12-11.968 7.696-0.56 0.368-1.312 0.736-1.904 0.64-2.576-0.432-3.952 0.736-5.12 2.944-0.848 1.632-2.24 3.072-3.632 4.368-3.824 3.584-4.72 12.864-1.2 16.592 5.84 6.192 13.376 9.088 21.168 10.304zM179.856 244.896c6.704-0.832 14.816-0.8 22.24-3.024 6.24-1.872 11.712-6.304 17.472-9.728 5.408-3.184 5.168-6.096 1.664-11.456-1.488-2.288-4.16-4.256-6.72-5.264-7.984-3.136-16.096-6.096-24.368-8.48-15.696-4.56-31.568-7.52-47.952-3.344-4.256 1.072-6.992 6.752-4.576 10.336 3.264 4.832 6.384 9.792 10.112 14.256 8.064 9.6 17.904 16.16 32.128 16.688zM232.192 283.952c-0.192 2.976 1.344 4.192 3.808 4.48 2.144 0.272 4.336 0.144 6.48 0.384 1.072 0.128 2.432 0.288 3.088 0.976 2.928 2.992 6.16 3.312 10.016 2.176 5.168-1.536 10.432-2.8 15.664-4.096 2.288-0.56 2.896-2.688 1.584-3.632-4-2.88-3.632-7.312-4.944-11.184-3.44-10.16-6.992-20.272-10.624-30.352-1.216-3.392-4.928-4.064-7.36-1.168-2.512 2.992-4.944 6.24-6.512 9.744-2.368 5.328-3.968 11.040-5.84 16.592-1.824 5.392-3.584 10.736-5.36 16.080z"></path>
<path d="M33.056 298.48c4.144-2.832 7.584-4.928 10.72-7.408 1.44-1.152 2.848-2.88 3.296-4.608 0.656-2.688 1.44-6.016 0.384-8.256-1.632-3.504-5.632-4.016-9.36-3.696-2.656 0.24-5.28 0.784-7.936 1.040s-4.88-0.64-5.728-3.408c-2.416-7.648-5.264-15.232-6.96-23.040-2.192-9.936-4.208-20.032-4.88-30.128-0.688-10.672 0.176-21.44 0.656-32.16 0.464-10.208 0.56-20.544 2.288-30.576 1.632-9.472 5.216-18.592 7.92-27.888 0.656-2.288 0.784-4.816 1.808-6.912 5.136-10.544 9.968-21.312 15.888-31.424 7.648-13.008 19.616-22.016 31.408-31.040 1.040-0.8 2.704-0.784 4.064-1.12 0.080 1.456 0.704 3.184 0.144 4.336-3.312 6.624-6.608 13.28-10.432 19.616-8.144 13.472-12.784 28.24-15.088 43.568-2.096 14.128-3.088 28.448-3.76 42.752-0.752 16.352 1.92 32.288 6.8 48 2.368 7.632 6.944 13.552 10.864 20.048 0.992 1.632 1.68 3.504 2.88 4.976 4.16 5.216 3.088 9.568-1.264 14.176-3.968 4.208-3.808 7.824-0.56 12.784 3.12 4.752 8.064 4.992 12.272 0.544 0.784-0.832 1.392-1.776 2.416-3.12 2 2.928 3.952 5.536 5.552 8.336 0.368 0.64-0.336 2.064-0.848 2.976-1.248 2.224-3.040 4.16-3.952 6.512-1.584 4.112-0.336 7.312 2.992 9.28s7.776 1.2 10.448-1.76c0.592-0.656 1.152-1.312 2.096-2.368 2.48 2.432 4.976 4.608 7.136 7.072 1.632 1.856 0.8 3.264-1.312 4.512-2.656 1.552-5.584 3.216-7.312 5.6-1.264 1.76-1.456 4.896-0.928 7.136 0.64 2.688 3.248 3.856 6.112 3.536 5.552-0.608 11.152-1.152 12.992-8.016 0.128-0.432 2.608-0.848 3.504-0.368 1.392 0.752 2.272 2.368 3.456 3.504 3.68 3.504 3.744 4.72 0.080 8.352-2.8 2.752-2.976 6.16-2.48 9.616 0.128 0.784 1.728 1.824 2.736 1.92 3.552 0.384 6.432-1.040 8.656-3.952 2.928-3.808 5.28-3.968 8.912-0.832 4.8 4.144 4.944 5.12 2 11.008-0.736 1.488-1.296 3.072-1.808 4.656-1.072 3.312-0.416 6.096 2.8 7.888 2.624 1.456 6.672 0.656 8.496-2.24 1.456-2.336 2.368-5.088 3.12-7.744 0.896-3.184 2.24-3.952 5.040-2.144 1.824 1.168 3.536 2.528 5.232 3.872 1.584 1.248 1.808 2.384 0.752 4.512-1.536 3.088-2.528 6.656-2.928 10.080-0.384 3.392 2.928 6.704 6.208 7.184 3.168 0.464 5.648-1.44 6.944-5.312 2.512-7.584 2.512-7.552 9.040-2.848 1.216 0.88 2.528 1.664 4.144 2.688-1.536 3.264-3.184 6.256-4.416 9.424-2.416 6.288 2.56 13.696 8.704 12.576 2.416-0.432 4.848-2.576 6.48-4.608 1.616-1.968 2.192-4.768 3.392-7.632 3.12 3.44 6.208 6.608 8.944 10.032 0.512 0.64-0.24 2.384-0.592 3.584-1.664 5.872-0.656 7.824 5.36 8.352 5.232 0.464 10.448 1.040 15.472-2.288 2.928-1.952 6.944-2.832 10.544-3.072 9.504-0.64 19.12-2.336 28.336 1.968 1.36 0.64 2.944 1.248 4.416 1.2 6.56-0.272 11.328 3.728 16.304 6.912 2.976 1.92 4.528 0.928 6.016-1.248 3.264-4.832 1.664-9.264-1.824-13.648 3.216-2.416 6.352-4.752 9.408-7.040 2.048 1.92 3.632 4 5.728 5.28 3.12 1.904 6.608 2.24 9.696-0.272 2.832-2.32 3.36-5.168 1.968-8.608-0.784-1.904-2.112-4.8-1.312-5.92 2.224-3.12 5.408-5.536 9.008-8.992 1.408 5.456 2.416 10.176 7.696 11.104 1.776 0.32 4 0.176 5.504-0.656 4.416-2.416 3.872-7.424-1.632-15.568 4.576-2.192 9.088-4.368 13.616-6.528 6 6.256 9.936 7.68 13.344 4.832 3.344-2.784 3.12-8.064-0.128-12.944 1.536-1.872 2.832-3.776 4.464-5.328 2.224-2.112 4.48-3.088 7.232-0.272 1.44 1.488 3.632 2.432 5.648 3.088 9.232 3.072 13.984-0.48 13.392-10.176-0.128-1.952-1.536-4.288-3.072-5.6-4.432-3.776-4.608-6-0.096-9.568 0.512-0.384 0.976-0.832 1.44-1.264 7.632-7.232 8.016-5.952 13.856 0.416 1.616 1.76 7.872 2.272 9.28 0.56 0.688-0.832 0.88-2.784 0.384-3.776-2.176-4.56-4-9.408-9.216-11.792-0.88-0.384-1.552-3.296-0.992-4.384 1.776-3.536 4.064-6.8 6.336-10.064 1.92-2.784 4.72-2.464 6.4 0.544 0.56 0.992 0.896 2.176 1.616 2.992 5.28 6.096 11.232 5.264 14.064-2.288 2.32-6.16 4.832-12.496 3.088-19.296-0.688-2.688-2.224-5.136-2.928-7.824-0.384-1.456-0.384-3.552 0.384-4.672 7.216-10.4 11.376-21.904 13.104-34.4 0.56-4.048 1.856-7.968 2.512-12.016 3.952-24.144 7.088-48.288 3.856-72.848-2.096-15.984-5.728-31.408-13.904-45.504-1.536-2.624-2.24-5.744-3.648-8.448-1.392-2.624-2.976-5.264-4.928-7.472-3.12-3.536-3.808-8.544-0.544-13.008 4.048 3.392 8.384 6.432 11.984 10.208 5.392 5.632 10.304 11.712 15.296 17.712 5.072 6.096 9.872 12.272 12.624 19.952 3.6 10.080 8.656 19.728 11.616 29.984 3.856 13.328 6.56 27.040 9.184 40.688 1.616 8.384 2.32 16.928 3.024 25.456 1.264 15.136-1.12 29.936-5.68 44.24-4.24 13.328-9.616 26.304-14.368 39.104-1.2 0.048-1.488 0.176-1.664 0.080-4.944-2.576-9.424-2.48-13.472 1.872-2.432 2.608-5.328 4.832-7.648 7.536-1.024 1.2-1.488 3.136-1.632 4.8-0.288 3.184 1.36 4.752 4.656 4.336 0.512-0.080 1.024-0.032 1.536-0.032 2.88 0.080 6.144-0.752 7.376 3.088 1.2 3.68-0.048 7.024-3.216 9.568-1.168 0.944-2.048 2.224-3.248 3.552-4.512-3.824-9.84-3.344-15.008-2.784-5.216 0.56-7.312 3.312-7.648 8.896-0.224 3.488 2.944 7.792 6.56 8.96 1.168 0.368 2.336 0.704 4.24 1.264-3.68 4.624-6.944 8.72-10.304 12.944-5.168-8.384-9.728-10.592-17.488-7.888-2.336 0.832-5.024 2.944-5.888 5.136-1.2 2.944 0.432 6.112 3.312 7.888 2.784 1.76 5.792 3.12 9.088 4.832-0.656 0.736-1.536 1.728-2.384 2.736-1.488 1.76-3.312 3.344-4.384 5.312-2.688 4.976-4.096 5.232-7.744 0.848-0.8-0.976-1.616-2.096-1.92-3.264-0.704-2.576-2.576-2.976-4.72-2.928-5.488 0.128-9.568 6.208-7.68 11.36 1.552 4.192 4.096 7.36 8.704 8.384-1.504 3.728-4.464 6.112-11.424 9.28-1.952-3.12-3.904-6.208-5.872-9.328-1.824-2.928-4.576-2.992-7.456-2.192-5.024 1.408-8.528 9.552-5.792 13.952 1.504 2.464 3.68 4.56 5.792 6.56 1.68 1.616 1.728 2.848 0.144 4.48-2.416 2.464-4.624 5.12-7.040 7.6-1.616 1.632-3.168 1.712-4.048-0.784-0.976-2.752-1.504-5.776-2.944-8.256-1.392-2.384-4.16-6.256-5.488-5.952-3.312 0.8-6.992 2.992-8.992 5.728-3.904 5.328-3.264 7.024 1.504 11.808 0.896 0.896 1.904 1.808 2.512 2.88 1.264 2.288 1.504 4.608-1.104 6.24-2.064 1.296-4.112 2.656-6.352 3.536-4.288 1.664-6.192 0.432-7.472-4.016-0.688-2.32-1.68-4.56-2.736-6.752-1.952-4.112-5.216-5.44-9.472-3.92-4.8 1.712-7.12 5.408-5.552 9.792 1.024 2.832 2.576 5.552 4.416 7.968 3.552 4.672 3.488 7.28-0.992 11.088-2.992 2.528-6.256 4.384-10.432 4.096-2.656-0.192-3.92-1.264-3.904-4.048 0.032-3.456 0.144-6.96-0.416-10.336-0.992-5.888-3.728-6.816-8.192-2.976-2.704 2.336-5.28 4.848-7.792 7.376-0.56 0.56-0.832 1.536-0.928 2.368-0.704 6.944-0.384 13.744 1.904 20.464 2.976 8.752-1.456 16.224-10.496 18.32-7.424 1.712-12.688 8.064-13.344 16.736-0.56 7.168-2.384 13.936-6.528 19.712-1.536 2.144-4.944 3.776-7.648 4.064-6.72 0.704-13.552 0.592-20.32 0.608-3.824 0-5.408-3.488-5.328-6.016 0.224-7.36-3.408-13.056-6.608-19.072-1.488-2.784-2.384-5.872-3.856-8.656-1.712-3.264-4.624-4.24-8.336-4.384-2.736-0.096-6.912-0.688-7.84-2.432-2.56-4.88-6.656-9.648-4.704-16 0.512-1.664 0.848-3.44 0.832-5.168 0-5.744-0.192-11.52-0.336-17.28-0.144-5.552-4.704-9.040-10.16-7.776-6.704 1.536-9.408 4.624-9.616 11.152-0.096 2.8-2.112 3.872-4.112 3.264-3.824-1.168-7.648-2.736-11.056-4.8-2.32-1.408-1.68-4.208 1.104-5.632 5.168-2.656 8.064-6.72 9.104-12.48 1.024-5.632-3.44-7.072-6.56-9.68-2.704-2.24-5.536-1.552-7.728 0.32-3.184 2.688-6.16 5.728-8.72 9.008-2.896 3.728-4.72 4.112-7.872 0.656-0.848-0.944-1.712-1.904-2.608-2.8-3.584-3.6-2.88-6.768 1.92-8.752 5.552-2.272 7.040-4.368 7.040-9.936 0-5.92-4.208-9.408-9.568-6.864-3.968 1.872-7.728 5.072-10.448 8.544-2.576 3.344-4.976 2.512-7.648 1.408-3.904-1.616-6.672-5.776-5.68-8.192 0.32-0.752 1.456-1.216 2.288-1.712 3.408-2 6.624-4.336 6.848-8.608 0.096-1.92-0.544-4.672-1.872-5.776-7.12-5.744-15.248-4.432-18.736 4.144-1.632 4.048-3.12 4.48-6.304 1.408-1.728-1.68-3.344-3.536-4.848-5.44-1.776-2.288-0.24-3.952 1.248-5.68 3.968-4.608 3.552-12.4-0.752-15.904-4.208-3.408-11.84-1.808-14.272 3.024-2.288 4.528-3.408 4.832-7.456 1.728-1.408-1.104-2.608-2.432-3.952-3.632-2.368-2.144-2.416-4.112-0.048-6.512 3.904-3.968 4.704-8.912 3.552-14.208-0.848-3.904-4.416-4.848-7.376-5.040-2.016-0.128-4.24 1.968-6.256 3.248-1.712 1.072-3.488 3.584-4.848 3.344-2-0.384-4.32-2.288-5.312-4.16-4.816-9.104-4.672-9.184 4-14.448 3.68-2.24 4.656-5.168 2.656-7.888-2.144-2.928-7.184-3.456-9.968-1.104-5.744 4.928-5.92 4.896-10.944-0.592-2.704-2.896-5.488-5.632-7.984-8.208zM276.576 460.32c7.376 0.080 11.808-2.848 11.888-8.336 0.032-2.528-1.584-5.536-3.344-7.552-2.016-2.368-4.336-0.272-6.4 1.024-1.712 1.040-3.904 1.488-5.36 2.784-1.872 1.664-4.512 3.92-4.512 5.888 0 1.872 2.848 3.92 4.752 5.552 0.832 0.704 2.416 0.544 2.976 0.64zM221.44 448.896c0.48 5.456 2.048 8.912 6.336 10.896 3.264 1.488 6.16 1.36 8.96-0.848 3.040-2.416 3.024-5.12-0.096-7.456-2.464-1.856-4.896-3.728-7.504-5.328-1.408-0.848-3.76-2.064-4.624-1.504-1.584 1.024-2.416 3.264-3.072 4.256zM255.6 462.272c-0.432 0.144-0.88 0.288-1.344 0.432-1.216 4.016-2.608 7.984-3.504 12.064-0.24 1.040 0.832 3.36 1.616 3.504 2.336 0.432 4.848 0.32 7.184-0.128 0.512-0.096 1.024-2.512 0.8-3.728-0.48-2.896-1.248-5.776-2.192-8.528-0.48-1.344-1.68-2.432-2.56-3.632z"></path>
</svg>
