<!-- Generated by IcoMoon.io -->
<svg version="1.1" xmlns="http://www.w3.org/2000/svg" width="512" height="512" viewBox="0 0 512 512">
<title>monsters-of-order</title>
<g id="icomoon-ignore">
</g>
<path d="M267.12 506.096c-6.080-7.296-12.16-7.904-17.328-1.52-4.56 5.472-19.152 6.080-27.36 0.912-4.864-3.040-7.296-3.040-12.16-0.304-4.256 2.736-6.384 2.736-7.904 0.608-1.216-2.128-10.64-7.296-20.976-12.16-18.24-8.208-19.152-9.12-21.28-21.584-1.216-7.296-3.344-14.592-4.56-16.112-1.52-1.824-3.040-10.032-3.648-18.24-0.912-13.376-2.128-15.808-11.552-22.192-8.208-5.472-13.984-6.992-24.32-6.080-19.76 1.216-36.784-6.992-43.472-21.28-2.736-6.080-6.384-13.376-7.6-15.808-10.944-19.456-12.464-24.32-8.208-24.32 11.248 0 13.68-22.496 5.168-43.168-4.864-10.944-9.424-47.12-10.64-79.968-0.608-15.2 7.904-83.616 11.856-97.904 23.104-80.272 148.064-144.72 237.456-122.528 61.408 15.504 129.824 70.528 149.584 121.008 8.208 20.976 13.376 87.568 9.12 117.664-1.52 11.856-3.648 32.832-4.864 47.12-0.912 14.288-3.648 28.576-5.776 31.92-6.080 8.816-5.168 20.672 2.432 30.4s7.6 9.424-16.416 40.128c-13.68 17.328-16.416 19.152-24.32 17.936-4.864-0.608-17.024 1.52-26.752 4.864-23.712 7.904-30.4 16.72-30.4 41.040-0.304 14.896-1.52 19.152-8.816 27.664-12.464 14.592-29.184 22.8-37.088 18.544-5.168-2.736-7.6-2.128-13.072 3.040-8.512 8.208-20.368 8.208-27.056 0.304zM249.776 408.496l7.6-12.16 2.432 10.032c1.52 5.472 3.648 11.248 5.168 12.768 1.216 1.216 9.424-1.52 17.936-6.080 14.288-8.208 15.504-9.728 15.504-20.064 0-6.384-1.216-11.552-3.040-11.552-1.52 0-3.040-2.128-3.040-4.864 0-2.432-1.216-3.648-3.040-2.736-1.52 0.912-3.040-0.304-3.040-2.736s-3.952-11.248-9.12-19.152c-4.864-7.904-9.12-16.112-9.12-18.24 0-6.688-16.416-4.56-22.8 3.040-11.856 13.68-29.184 50.768-27.056 57.456 1.824 6.080 18.544 25.232 22.496 26.144 0.912 0.304 4.864-5.168 9.12-11.856zM174.992 347.392c-0.912-1.216 3.344-3.040 9.424-4.256 5.776-0.912 10.64-3.040 10.64-4.56s2.128-2.736 4.56-2.736c2.432 0 4.56-1.216 4.56-2.736 0-1.824 3.344-6.688 7.6-11.248 5.472-6.080 7.6-11.552 7.6-20.672 0-22.192-1.824-24.32-22.192-30.096-10.336-2.736-25.232-8.512-33.44-12.768-20.976-11.248-34.048-10.032-50.464 4.256-12.16 10.336-13.376 12.768-14.592 27.968-2.736 35.872 24.32 60.8 65.056 59.28 6.688 0 11.856-1.216 11.248-2.432zM396.928 340.096c4.864-3.648 10.032-12.768 13.68-24.016 6.080-17.328 11.248-46.816 7.904-43.776-0.912 0.912-8.208-4.864-16.72-13.072-19.76-18.848-31.92-19.76-55.632-3.952-38.304 25.232-40.128 27.056-41.040 38.608-3.040 35.568 61.712 68.096 91.824 46.208zM270.16 242.192c9.728-9.728 21.28-24.32 26.144-32.528 4.56-8.512 13.68-24.016 20.368-34.96 6.688-11.248 14.592-30.096 18.24-44.080 3.344-13.376 7.6-26.752 9.12-29.488 6.384-11.248-3.040-4.864-17.328 11.248-29.488 34.352-57.456 83.92-68.704 121.616-2.432 8.512-5.472 17.632-6.688 20.672-3.648 8.816 0.608 6.080 18.848-12.464zM191.712 220c21.888-11.248 42.256-39.824 68.704-95.472 6.384-13.376 13.984-27.664 17.024-31.92 6.688-10.032 30.4-54.72 28.576-54.72-0.608 0-6.992 3.952-14.288 8.816-29.488 20.064-58.672 58.672-84.832 111.888-11.552 23.408-20.976 44.688-20.976 47.12s-2.128 6.992-4.56 10.336c-8.816 11.856-6.384 12.768 10.336 3.952zM126.96 193.856c19.76-18.544 48.032-59.584 60.192-86.656 3.952-8.816 12.768-26.144 19.456-38 6.688-12.16 10.944-22.192 9.424-22.192-7.904 0-22.192 10.944-40.736 31.008-20.672 22.496-40.736 58.672-57.76 104.288-3.648 10.032-7.904 20.672-9.12 23.712-1.216 2.736-1.824 5.168-1.216 5.168s9.728-7.904 19.76-17.328z"></path>
</svg>
