<!-- Generated by IcoMoon.io -->
<svg version="1.1" xmlns="http://www.w3.org/2000/svg" width="512" height="512" viewBox="0 0 512 512">
<title>monsters-of-order</title>
<g id="icomoon-ignore">
</g>
<path d="M22.416 285.968c2.432 0 4.912 0.24 7.312-0.048 6.992-0.8 13.968-2 20.992-2.672 7.792-0.736 15.6-1.104 23.424-1.536 6.112-0.352 12.016-1.44 17.968-3.040 6.816-1.824 14.032-2.256 21.072-3.12 3.136-0.384 6.368-0.128 9.488-0.64 3.312-0.56 4.064-2.096 4.112-5.424 0.064-4.736 0.368-9.44 0.624-14.176 0.256-4.912-0.432-9.424-2.992-13.856-3.168-5.44-2.512-11.648-2.112-17.664 0.176-2.56 0.56-5.12 0.944-7.68 0.304-1.888-0.368-2.816-2.304-2.736-3.68 0.192-7.424 0.112-11.056 0.688-9.776 1.6-19.328-0.416-28.976-1.184-10.176-0.816-20.4-1.504-30.56 1.040-3.568 0.896-7.424 0.624-11.168 0.896-0.080-0.352-0.144-0.704-0.24-1.056 2.928-0.944 5.792-2.24 8.784-2.784 12.208-2.128 24.4-4.24 36.672-5.872 6.112-0.816 12.352-0.624 18.56-0.896 3.616-0.144 7.216-0.352 10.832-0.448 1.936-0.064 3.072-0.976 3.328-2.88 0.416-2.976 1.184-5.68 3.616-7.744 0.432-0.368 0.432-1.632 0.192-2.368-0.832-2.704-1.696-5.408-2.864-7.984-0.384-0.864-1.632-1.808-2.512-1.856-5.216-0.304-6.88 0.992-9.168 5.664-0.688 1.392-2.256 2.352-3.424 3.504-1.056-1.456-2.416-2.816-3.040-4.448-0.432-1.136-0.064-2.736 0.32-4.032 1.696-5.776 3.408-11.552 5.424-17.2 0.688-1.888 2.048-3.856 3.664-5.056 3.504-2.672 4.864-6.592 6.736-10.224 0.288-0.544-0.256-1.632-0.64-2.32-1.312-2.256-0.976-4.368-0.416-6.864 1.76-8.128 5.984-15.232 9.84-22.272 5.44-9.92 6.496-20.512 7.552-31.296 0.544-5.488 1.040-10.96 1.52-16.448 0.32-3.536 2.608-4.544 6.784-2.864-1.296 3.232-0.624 6.416-0.208 9.776 1.312 10.832 4.16 21.44 4.448 32.432 0.128 4.72 2.128 9.344 3.040 14.080 0.448 2.352 0.816 4.912 0.352 7.168-1.488 7.152 1.2 13.392 3.68 19.696 1.952 4.944 4.32 9.728 4.816 15.152 0.208 2.352 1.872 3.232 4.192 3.248 0.88 0 2.32 0.624 2.512 1.264 0.496 1.616-0.816 2.048-2.24 2.352-2.512 0.544-5.072 1.104-7.44 2.016-1.2 0.48-2.688 1.664-2.976 2.784-1.6 6.592-3.040 13.232-4.128 19.904-0.608 3.664 0.576 4.304 4.096 3.136 1.68-0.56 3.504-0.928 5.28-0.976 6.464-0.128 12.912-0.016 19.376-0.128 7.024-0.128 12.144-3.504 15.792-9.408 1.072-1.744 2.384-3.376 3.728-4.928 1.248-1.44 2.688-1.2 3.264 0.64 0.752 2.368 1.392 4.8 1.696 7.232 0.608 4.784 1.76 6.096 6.528 6 9.984-0.144 20-0.064 29.936-0.688 6.848-0.432 7.056 0.432 5.44-6.688-1.504-6.688 0.576-13.104 0.608-20-0.56 0-1.488 0.144-2.32-0.048-1.376-0.32-2.928-0.576-3.984-1.392-1.616-1.232-3.184-2.8-2.688-5.216 0.496-2.448 2.672-2.64 4.56-3.168 2.064-0.576 4.128-1.104 6.288-1.664-2.192-5.792-5.36-10.736-9.424-15.088-0.576-0.624-2.304-0.768-3.168-0.384-5.056 2.24-8.96 6.032-12.528 10.16-0.416 0.48-0.448 1.248-0.624 1.888-0.496 1.872-2.848 3.408-4.848 2.944-2.192-0.496-2.064-2.288-1.744-3.936 0.288-1.424 0.512-3.008 1.312-4.128 3.824-5.472 5.712-11.728 7.36-18.032 0.736-2.8 1.92-4.88 4.672-6.352 4.24-2.256 4.544-4.128 2.016-8.176-2.080-3.376-1.6-6.864-0.672-10.464 3.184-12.512 7.104-24.768 11.776-36.8 1.072-2.8 2.016-5.568 0.672-8.72-0.928-2.16 2.304-6.064 5.136-6.336 2.128-0.192 2.624-1.184 2.864-3.104 0.64-5.36 1.616-10.704 2.352-16.032 0.768-5.6 1.392-11.232 2.16-16.832 0.144-1.184 0.416-2.416 0.896-3.488 1.872-4.112 2.224-8.4 1.936-12.848-0.208-3.408 1.36-4.656 4.352-3.568 0.704 0.256 1.504 1.12 1.728 1.872 1.392 5.056 2.784 10.112 3.888 15.232 0.384 1.808 0.176 3.76 0.016 5.632-0.048 0.576-0.736 1.2-1.296 1.6-0.608 0.448-1.616 0.48-2.016 1.008-0.992 1.296-2.56 2.912-2.368 4.176 0.176 1.136 2.24 2.624 3.664 2.864 5.056 0.816 7.728 3.632 9.296 8.416 1.424 4.368 3.616 8.48 5.568 12.656 1.072 2.288 0.256 5.808-1.888 7.36-2.384 1.696-2.448 2.848-0.32 4.928 0.368 0.368 0.736 0.8 1.184 0.992 4.672 1.872 6.432 5.92 7.744 10.336 2.24 7.488 4.656 14.944 6.736 22.464 1.376 4.944 2.352 10.032 3.36 15.072 0.24 1.12 0.32 2.624-0.24 3.488-1.568 2.432-1.296 4.848-0.8 7.44 2.016 10.672 4.608 21.152 10.096 30.72 0.752 1.312 1.136 2.864 1.504 4.368 0.512 2.112-0.48 3.072-2.608 3.040-3.824-0.080-7.488-0.976-10.224-3.68-5.488-5.424-10.72-11.12-16.080-16.704-0.816-0.832-1.664-1.824-2.688-2.256-1.68-0.736-2.816-0.576-3.408 1.856-1.136 4.736-2.912 9.344-4.448 13.968-1.136 3.408-0.896 3.792 2.416 5.168 1.056 0.432 1.824 1.6 2.704 2.432-0.752 0.704-1.376 1.728-2.256 2.080-1.808 0.752-2.192 1.872-1.744 3.664 0.608 2.416 0.992 4.88 1.536 7.312 0.384 1.696 0.544 3.232-0.544 4.912-0.48 0.752-0.080 2.624 0.576 3.44 1.936 2.416 2.784 4.912 1.856 7.904-0.688 2.24 0.304 2.944 2.432 2.912 13.168-0.288 26.32-0.56 39.488-0.736 2.752-0.048 4.176-1.248 5.008-3.808 1.2-3.616 1.888-7.536 5.184-10.656 0.576 1.104 1.168 2 1.552 2.976 1.12 2.8 2.176 5.6 3.184 8.432 0.64 1.792 1.808 2.512 3.68 2.576 13.232 0.448 26.496 0.976 39.728 1.44 2.848 0.112 3.344-0.352 3.408-3.168 0.048-1.552-0.208-3.136 0.048-4.656 1.184-7.056-1.136-13.392-3.984-19.6-0.368-0.8-1.536-1.376-2.448-1.728-0.752-0.288-1.728-0.128-2.56 0.016-3.168 0.56-5.344-0.688-7.024-3.872 1.616-0.512 3.232-0.88 4.736-1.52 2.8-1.2 5.776-2.192 8.224-3.92 2.416-1.696 1.808-3.728-1.008-4.672-5.12-1.744-8.128-6.864-7.168-12.16 1.232-6.672 2.432-13.344 3.616-20.032 0.544-3.056 2.256-4.848 5.184-5.744 3.984-1.232 4.224-1.504 4-5.664-0.448-9.056-0.368-18.096 1.104-27.040 1.856-11.264 4.176-22.448 6.416-33.648 0.208-1.056 1.328-1.92 2.048-2.864 0.208 0.112 0.448 0.192 0.672 0.304 0.32 2.784 0.512 5.568 0.992 8.336 1.184 6.912 3.808 13.52 3.728 20.72-0.048 2.944 0.688 6 1.632 8.848 1.040 3.136 2.384 6.288 4.192 9.040 3.76 5.792 6.4 11.92 7.376 18.784 0.256 1.76 1.424 3.424 2.224 5.072 0.736 1.552 1.552 3.056 2.624 5.136-1.632-0.144-2.368-0.192-3.104-0.288-4.064-0.56-6.88 2.864-5.216 6.592 0.368 0.8 1.888 1.296 2.944 1.504 5.552 1.056 10.208 3.504 13.728 8.24-2.128 2.176-1.392 4.368-0.064 6.688 3.984 7.024 7.872 14.096 11.728 21.2 0.544 0.992 0.8 2.352 0.64 3.44-0.128 0.832-0.976 1.936-1.744 2.24-0.624 0.24-1.984-0.288-2.416-0.896-2.048-2.928-4.848-2.816-7.872-2.384-3.92 0.56-7.84 1.072-11.744 1.52-2.736 0.32-5.344 1.248-6.32 3.824-2.88 7.6-5.408 15.328-8.272 23.568 5.728 0.704 10.72 1.744 15.728 1.872 15.392 0.368 30.784 0.448 46.192 0.496 3.008 0.016 5.248 1.008 7.344 3.68-2.016 0.176-3.68 0.416-5.36 0.448-17.728 0.384-35.44 0.768-53.184 1.104-2.416 0.048-4.816-0.208-7.232-0.32-1.76-0.080-2.48 0.672-2.224 2.496 0.976 7.104 0.992 14.176 0.208 21.344-0.672 6.048-0.128 12.224-0.768 18.288-0.608 5.776-1.328 11.408 0.016 17.152 0.272 1.168-0.608 2.576-0.896 3.872-0.256 1.040-0.48 2.064-0.688 3.104 1.040 0.208 2.112 0.736 3.12 0.624 18.576-1.92 37.168-0.192 55.744-0.304 10.992-0.064 22.016 0.896 33.024 1.424 3.056 0.144 5.808 1.008 8.336 3.568-1.2 0-2 0-2.848 0-0.080 0.928-0.144 1.68-0.208 2.48-8.928-0.256-17.76-0.624-26.56-0.688-3.856-0.048-7.712 0.544-11.584 0.832-11.232 0.864-22.448 1.728-33.68 2.56-8.304 0.624-16.608 1.2-24.928 1.792-2.608 0.176-3.808 1.232-3.856 3.808-0.080 7.728 0 15.472-0.128 23.2-0.080 4.112-0.608 8.224-0.736 12.336-0.064 2.288 0.272 4.592 0.432 6.88 0.144 2.704 0.512 5.44 0.384 8.16-0.208 4.32 2.048 6.944 6.304 6.288 16.768-2.576 33.632-1.488 50.464-1.6 9.728-0.064 19.456-0.496 29.168-0.496 4.096 0 8.192 0.672 12.272 1.232 1.12 0.144 2.128 1.040 3.616 1.808-0.864 0.384-1.056 0.56-1.264 0.576-10.976 0.816-21.936 1.856-32.928 2.32-9.584 0.416-18.96 1.68-28.416 3.2-9.472 1.536-19.2 1.536-28.8 2.304-2.128 0.176-4.24 0.704-6.32 1.184s-3.136 1.872-2.8 3.984c2.24 13.472 2.704 27.040 2.256 40.656-0.064 1.632 0.448 3.472 1.2 4.944 3.264 6.432 4.064 13.168 3.536 20.288-0.576 7.648-0.736 15.296-1.136 22.944-0.176 3.376-0.672 6.688-2.976 9.424-1.936 2.288-2.704 2.368-5.184 0.704-1.2-0.816-2.48-1.552-3.68-2.368-2.192-1.504-4.192-1.76-6.608-0.112-3.136 2.128-7.056 0.432-7.728-3.344-0.432-2.416-0.752-5.072-0.144-7.408 2.064-8.112 1.104-16.256 0.896-24.4-0.208-9.12-0.608-18.224-0.8-27.36-0.24-10.496-0.304-21.008-0.56-31.488-0.016-1.136-0.672-3.184-1.232-3.248-1.92-0.24-4.32-0.416-5.776 0.56s-2.624 1.232-4.176 1.264c-3.312 0.112-6.624 0.48-9.936 0.448-3.168-0.016-6.352-0.384-9.52-0.64-2.752-0.208-5.488-0.496-8.224-0.704s-3.312 0.496-3.2 3.184c0.016 0.88-0.416 1.984-0.992 2.672-0.992 1.168-2.224 2.16-3.44 3.104-2.48 1.92-4.16 1.376-5.312-1.616-0.816-2.096-1.44-4.256-2.544-6.176-0.512-0.896-1.872-1.376-2.912-1.92-0.416-0.192-1.040-0.064-1.536 0.016-5.872 0.976-11.472-0.016-17.264-1.44-8.096-1.984-16.416-1.456-24.512 0.8-0.576 0.144-1.328 1.136-1.312 1.696 0.24 4.864 0.608 9.728 0.992 14.576 0.144 1.952 0.448 3.92 0.672 5.872 0.432 3.744 0.688 7.504 1.296 11.216 0.48 2.928 0.080 5.552-1.12 8.272-0.736 1.632-1.184 3.632-0.992 5.408 0.976 9.488 2.24 18.944 3.264 28.432 0.256 2.368 1.248 3.168 3.6 3.344 4.784 0.32 9.584 0.736 14.288 1.568 2.784 0.496 4.928 2.304 5.808 6.032-4.912 0-9.52-0.048-14.144 0.016-2.24 0.048-4.448 0.352-6.688 0.432-1.808 0.064-2.432 0.992-2.24 2.672 0.64 5.632 1.264 11.28 1.92 16.912 0.064 0.672 0.144 1.36 0.128 2.016-0.128 3.568-0.64 7.168-0.416 10.72 0.64 9.056-1.136 17.824-2.928 26.56-1.168 5.616-4.864 8.224-9.552 7.84-5.856-0.48-10.704-4.752-11.296-10.24-0.192-1.76 0.016-3.6 0.256-5.376 0.448-3.36-0.208-6.352-2.672-8.752-1.424-1.392-2.016-2.752-1.104-4.816 0.448-0.992 0.32-2.608-0.192-3.6-1.12-2.128-1.12-3.984 0.064-6.064 2.112-3.664 0.496-7.296-3.632-7.872-2.912-0.416-4.752-1.568-5.632-4.432-0.32-1.008-1.248-1.824-1.824-2.784-1.392-2.288-0.944-3.072 1.616-3.744 1.2-0.32 2.736-0.928 3.296-1.888 1.616-2.752 0.288-5.216-2.928-5.488-4.432-0.368-8.912-0.304-13.328-0.832-1.504-0.176-3.344-1.312-4.128-2.56-0.88-1.376 0.864-1.632 1.936-1.792 6.128-0.864 12.288-1.632 18.384-2.608 0.896-0.144 2.304-1.2 2.368-1.952 0.704-7.776 2.048-15.6 0.192-23.376-0.672-2.848-2.064-5.6-3.536-8.16-1.312-2.288-1.136-4.608 1.36-5.744 2.128-0.976 2.128-2.096 1.52-4.064-0.64-2.096-0.992-4.416-0.832-6.592 0.368-5.312 1.248-10.592 1.6-15.904 0.256-4 0.016-8.048-0.016-12.080-0.016-1.664-1.072-2.288-2.544-2.256-4.784 0.128-9.552-0.64-14.336 0.88-2 0.64-4.544-0.384-6.848-0.576-6.064-0.544-12.144-1.296-18.208-1.504-4.976-0.176-7.744 3.296-7.312 8.352 0.064 0.688 0.352 1.392 0.208 2.048-0.208 1.2-0.624 2.384-0.976 3.568-1.248-0.416-2.576-0.624-3.696-1.248-0.944-0.544-1.6-1.552-2.416-2.304-0.88-0.816-1.696-1.808-2.752-2.304-2.192-1.072-2.512-2.512-1.664-4.656 1.072-2.64 0.688-3.36-2.112-3.376-6.944-0.048-13.92 0.080-20.88 0.128-2.32 0.016-4.656 0.016-6.944-0.016-2.112-0.048-3.728 0.768-3.664 3.040 0.288 10.224 0.704 20.448 1.072 30.672 0.016 0.432 0.016 0.944 0.288 1.248 3.968 4.672 2.128 10.368 2.784 15.632 0.896 7.408 1.568 14.848 2.352 22.464 0.064 0-0.496-0.128-0.832 0.080-0.864 0.544-1.632 1.232-2.432 1.856 0.8 0.48 1.568 0.944 2.368 1.392 0.128 0.080 0.432-0.048 0.496 0.048 0.768 0.896 1.936 1.728 2.192 2.752 0.56 2.192 2.64 4.48 0.544 6.72-0.496 0.512-2.48 0.48-3.104-0.064-4.656-4.064-9.792-4.864-15.664-3.344-1.952 0.496-4.32 0.176-6.304-0.432-3.328-1.008-5.312-3.424-5.184-7.12 0.064-1.632 0.208-3.248 0.32-4.88 0.304-4.432 0.768-8.896 0.88-13.328 0.128-5.936-0.048-11.856-0.016-17.792 0-2.64-0.064-5.232 1.376-7.728 0.704-1.232 0.672-3.008 0.624-4.544-0.192-7.312-0.544-14.608-0.8-21.936-0.112-3.040-0.368-3.296-3.328-2.848-20.592 3.136-41.264 5.664-62.16 5.072-4.912-0.128-9.808 0.112-14.72 0.352-3.76 0.192-6.928-0.976-9.584-3.6-0.384-0.384-0.672-0.896-0.992-1.36 0.544-0.304 1.072-0.8 1.664-0.832 5.488-0.496 10.976-0.928 16.464-1.376 15.088-1.296 30.16-2.704 45.264-3.856 7.648-0.56 15.296-0.624 22.96-0.88 3.376-0.112 3.616-0.624 3.664-3.952 0.064-8.224-0.048-16.416 0.88-24.64 1.040-9.216 1.072-18.56 1.456-27.824 0.128-3.104-0.64-3.824-3.68-3.936-6.128-0.208-12.176-0.048-18.096 2.048-3.552 1.248-6.944 0.704-9.856-1.952-0.608-0.544-1.456-0.976-2.256-1.104-4.32-0.736-8.656-1.616-12.992-1.92-3.2-0.208-6.544 0.080-9.712 0.704-3.68 0.704-7.296 1.392-10.912 0.064-7.088-2.608-14.384-2.016-21.68-1.92-4.112 0.064-8.224-0.256-12.304-0.688-1.52-0.144-2.992-1.072-4.496-1.664 0.064-0.112 0.112-0.368 0.144-0.608zM316.368 263.792c0.24-0.048 0.48-0.080 0.704-0.128 0.256 0.56 0.608 1.12 0.736 1.728 0.544 2.256 1.168 4.512 1.44 6.8 0.256 1.984 1.232 2.672 3.072 2.608 1.296-0.048 2.576 0.016 3.872 0.048 12.832 0.048 25.632 0.064 38.464 0.128 1.68 0 3.168 0.112 3.504-2.304 0.976-6.8 2.128-13.552 3.264-20.336 1.168-6.848 3.184-13.536 2.56-20.64-0.512-5.984-0.608-12.016-0.864-18.032-0.080-1.808-0.112-3.616-0.24-5.408-0.112-1.552-0.864-2.48-2.576-2.624-3.872-0.32-7.712-0.672-11.36 1.2-0.768 0.416-1.824 0.384-2.752 0.368-7.216-0.112-14.416-0.304-21.632-0.368-3.536-0.016-3.792 0.352-2.752 3.728 0.672 2.192 0.368 3.552-2.128 4.256-1.2 0.352-2.16 1.616-3.168 2.512-0.88 0.8-1.6 1.856-2.56 2.544-2.112 1.456-3.376 0.816-3.536-1.744-0.112-1.888 0.064-3.792-0.064-5.68-0.24-3.312-2.176-5.488-4.944-5.552-6.976-0.128-13.952-0.288-20.752 1.632-3.296 0.928-6.4 0.896-9.36-1.184-0.944-0.672-2.224-1.072-3.376-1.12-4.544-0.24-9.104-0.352-13.648-0.384-1.872-0.016-2.608 1.12-2.16 2.928 0.416 1.664 0.976 3.296 1.328 4.976 1.312 6.176 1.696 12.224-2.256 17.792-0.992 1.392-1.424 3.312-1.664 5.056-0.608 4.224-0.736 8.496-1.424 12.704-1.104 6.544-1.184 12.8 2.672 18.624 0.864 1.312 1.312 2.992 1.632 4.56 0.384 1.872 1.328 2.576 3.184 2.576 14.016 0.112 28.048 0.256 42.048 0.432 1.888 0.016 2.848-0.704 3.12-2.608 0.432-3.040 1.040-6.048 1.568-9.088zM258.544 310.96c1.328 12.24 2.544 23.2 3.728 34.128 0.208 2 1.392 2.672 3.36 2.736 12.144 0.272 24.256 0.672 36.368 0.976 2.16 0.064 4.304 0.016 6.432-0.208 4.176-0.448 5.472-1.952 5.84-6.112 0.144-1.6 0.384-3.264 0.992-4.736s1.696-2.736 2.576-4.112c1.504 1.168 3.072 2.256 4.48 3.536 0.448 0.416 0.448 1.296 0.768 1.872 0.896 1.616 1.6 3.44 2.864 4.72 3.92 3.952 8.896 4.848 14.272 4.448 7.648-0.56 15.28-1.008 22.928-1.36 2.416-0.112 3.296-0.88 3.264-3.408-0.128-10.656-0.256-21.328-0.016-31.984 0.144-6.864 0.944-13.728 1.424-20.592 0.208-2.912-0.432-3.568-2.928-3.632-6.608-0.192-13.216-0.432-19.824-0.736-7.184-0.32-14.4-0.752-21.584-1.136-2.256-0.128-3.248 0.864-3.872 3.136-0.56 2.016-1.792 4.064-3.248 5.616-1.376 1.456-2.928 0.768-3.312-1.232-0.304-1.6-0.384-3.248-0.32-4.864 0.064-1.872-0.672-2.608-2.512-2.704-14.608-0.768-29.184-0.832-43.76 0.944-3.472 0.432-4 1.008-4.352 4.48-0.304 3.072-0.512 6.176-1.104 9.216-0.704 4.064-1.792 8.112-2.448 11.024zM184.608 266.72c1.44 2.448 2.88 4.8 4.176 7.216 0.768 1.44 1.696 2.176 3.424 2.16 15.392-0.24 30.8-0.432 46.192-0.576 1.824-0.016 2.688-0.768 2.608-2.64-0.208-5.68-0.512-11.344-0.512-17.024 0-6.688-0.064-13.408 0.496-20.080 0.56-6.528 1.44-12.96-0.048-19.472-0.48-2.080-0.176-4.448 0.24-6.608 0.544-2.88 0.176-3.664-2.752-3.616-4.48 0.048-8.96 0.064-13.408 0.304-2.128 0.112-4.48 0.208-6.256 1.184-2.976 1.616-5.92 1.392-8.992 1.12-1.728-0.144-3.472-0.496-5.12-0.288-1.072 0.128-2.432 0.896-2.976 1.792-1.168 1.872-1.696 4.128-2.816 6.048-0.624 1.040-1.824 2.192-2.928 2.384-2.384 0.432-6.8-4.256-6.48-6.688 0.256-1.952-0.576-2.752-2.352-2.848-0.864-0.048-1.728 0.064-2.56 0.128-4.976 0.368-10.032 1.552-14.864 0.944-7.568-0.944-14.72 0.496-21.952 1.936-1.184 0.24-2.784 1.568-3.040 2.64-0.944 4-1.376 8.048 0.368 12.144 2.112 4.928 1.616 9.92 0.176 15.104-1.6 5.68-2.784 11.664-1.296 17.568 0.928 3.728 2.224 7.28 2.176 11.232-0.016 1.76 1.104 3.6 1.856 5.312 0.192 0.448 1.008 0.88 1.52 0.88 8.352-0.080 16.688-0.192 25.024-0.368 5.12-0.112 5.744-0.64 6.336-5.68 0.208-2.24 1.136-3.728 3.792-4.192zM238.432 347.216c-0.256-1.296-0.448-2.128-0.56-2.976-0.416-3.232-1.232-6.48-1.072-9.68 0.208-4.608 1.248-9.168 1.744-13.776 1.232-11.232 5.104-22.144 3.92-33.68-0.208-2.048-0.64-2.944-2.816-2.928-4.816 0.064-9.648-0.256-14.448-0.016-3.2 0.176-6.368 1.104-9.584 1.552-2.784 0.384-5.568 0.8-8.368 0.752-4.448-0.080-8.912-0.624-13.392-0.8-2.848-0.112-3.168 0.416-2.688 3.168 0.192 1.184 0.672 2.416 0.496 3.552-0.192 1.232-0.736 3.040-1.6 3.376-1.552 0.624-2.928-0.512-3.536-2.176-0.432-1.2-0.864-2.432-1.184-3.68-0.608-2.304-1.888-3.168-4.368-2.8-3.888 0.576-7.936 1.504-11.776 1.072-5.92-0.672-11.648-0.112-17.456 0.672-5.008 0.672-5.248 0.816-6.304 5.776-0.112 0.496-0.192 1.008-0.208 1.536-0.352 6.784-0.688 13.552-1.008 20.368-0.176 3.76-0.624 7.584-0.384 11.328 0.32 5.408 1.232 10.768 1.76 16.144 0.368 3.552 0.576 3.76 4.048 3.616 9.456-0.432 18.912-1.12 28.368-1.072 4.544 0.016 6.928-1.44 8.272-5.68 0.928-2.976 2.512-5.728 3.808-8.592 0.288 0 0.544-0.016 0.816-0.016 0.688 1.2 1.568 2.368 2.016 3.664 0.672 1.936 0.944 4 1.504 6 1.184 4.24 2.56 5.296 6.992 5.296 9.376 0.016 18.768 0.016 28.144 0.016 2.816 0.016 5.664 0.016 8.848 0.016zM232.64 139.856c2.992-0.288 5.568-0.432 8.112-0.768 0.752-0.112 2-0.64 2.064-1.136 0.32-2.192 0.816-4.592 0.288-6.656-0.8-3.12-3.696-4.288-6.624-5.008-1.504-0.368-2.384 0.048-2.864 1.632-0.896 2.944-1.952 5.856-2.992 8.752-0.992 2.704-0.512 3.312 2.016 3.184zM129.136 134.064c-2.864-0.64-4.288 0.496-5.136 2.512-0.56 1.328-0.928 2.784-1.376 4.16-0.608 1.808 1.568 5.184 3.472 5.232 0.496 0 1.376-0.576 1.456-1.008 0.608-3.616 1.072-7.248 1.6-10.896zM243.968 170.448c0.352 0.080 0.688 0.144 1.040 0.24 1.008-0.576 2.048-1.136 3.056-1.728 0.016-0.304 0.048-0.608 0.080-0.88-1.328-0.304-2.672-0.608-4-0.896-0.080 1.104-0.128 2.176-0.176 3.264z"></path>
</svg>
