<!-- Generated by IcoMoon.io -->
<svg version="1.1" xmlns="http://www.w3.org/2000/svg" width="512" height="512" viewBox="0 0 512 512">
<title>monsters-of-order</title>
<g id="icomoon-ignore">
</g>
<path d="M224.272 510.576c-0.608-0.784-1.408-2.608-1.776-4.048s-10.368-49.056-22.24-105.824c-14.464-69.216-21.68-104.832-21.888-108.16-0.448-7.28-1.024-7.056 17.904-7.264 8.224-0.096 28.912 0.048 45.968 0.304 27.824 0.416 31.2 0.576 32.864 1.472 3.552 1.904 4.256 5.36 2.976 14.576-0.976 7.008-40.512 185.824-42.496 192.24-3.008 9.648-7.504 18.128-9.632 18.128-0.304 0-1.056-0.64-1.68-1.424zM241.808 375.024c4.272-1.264 8.256-5.088 10.912-10.496 2.016-4.080 2.16-4.72 2.16-9.568 0-4.608-0.176-5.488-1.552-7.824-2.752-4.688-8-8.608-14.576-10.88-1.968-0.688-6.688-1.488-11.152-1.92-4.272-0.416-8.368-1.056-9.088-1.456-3.008-1.6-3.936-8.16-1.664-11.584 1.92-2.88 5.056-4.208 9.904-4.192 4.56 0.016 7.792 1.344 10.16 4.16 1.968 2.336 3.504 3.024 6.768 3.056 3.68 0.032 7.008-1.84 9.216-5.168 4.288-6.464 2.576-8.944-9.088-13.248-6.256-2.304-11.824-3.072-20.8-2.832-9.104 0.24-11.248 1.024-16 5.776-5.776 5.776-8.256 13.696-7.024 22.384 0.8 5.68 1.952 7.792 5.248 9.616 2.368 1.312 3.216 1.408 14.608 1.728 11.488 0.32 12.224 0.416 14.656 1.76 1.408 0.784 3.344 2.528 4.288 3.888 3.264 4.656 2.496 12.88-1.392 14.928-2.144 1.12-9.872 0.576-13.952-0.992-2.128-0.816-4.56-2.432-6.784-4.48-4.176-3.856-5.408-4.016-10.016-1.248-4.128 2.48-5.344 4.672-4.384 7.872 1.584 5.296 6.512 9.472 12.72 10.816 4.832 1.040 23.248 0.976 26.848-0.080zM251.136 484.992c-0.736-0.736-1.056-1.616-0.864-2.448 0.16-0.704 9.472-43.536 20.704-95.168s20.784-95.072 21.264-96.512c0.464-1.44 1.696-3.424 2.704-4.4s7.792-5.68 15.056-10.448c20.256-13.296 21.84-14.048 24.096-11.552 0.816 0.896 0.944 1.664 0.624 3.808-0.512 3.424-38.72 127.248-41.632 134.896-1.92 5.072-30.080 66.72-34.608 75.776-2.192 4.368-4.288 7.2-5.376 7.2-0.464 0-1.36-0.528-1.984-1.152zM203.456 478.048c-3.792-4.032-9.296-13.424-17.968-30.656-10-19.872-11.376-23.36-21.84-55.52-22.384-68.736-37.696-119.2-37.696-124.304s4.128-6.176 10.224-2.656c6.16 3.568 26.336 17.808 29.008 20.48 5.824 5.824 4.832 1.856 23.712 94.528 15.984 78.432 17.040 84.016 17.312 91.2 0.352 8.944-0.016 9.84-2.752 6.928zM223.008 274.784c-17.84-0.896-33.28-1.776-34.288-1.968-3.888-0.72-4.624-4.72-1.984-10.688 2.352-5.312 3.984-11.504 4.656-17.696 0.48-4.544 0.896-5.936 2.512-8.608 2.976-4.928 4.384-8.368 5.2-12.688 0.48-2.544 1.488-5.168 2.784-7.28 2.944-4.816 4.432-8.512 5.344-13.264 0.56-2.912 1.312-4.848 2.464-6.32 2.448-3.136 16.176-27.856 16.864-30.384 0.816-2.976 1.456-3.616 3.664-3.616 2.24 0 4.752 1.904 6.176 4.688 0.544 1.056 9.136 22.976 19.104 48.72s18.544 47.44 19.072 48.24c0.656 0.976 0.96 2.656 0.976 5.296 0.016 4.992-0.928 6.032-6.064 6.784-5.168 0.752-9.712 0.624-46.464-1.216zM285.856 270.528c-0.784-0.784-1.968-2.656-2.624-4.16-2.656-6.096-28.352-76.592-29.568-81.12-2.256-8.4-1.568-17.248 1.152-14.976 0.512 0.416 0.928 1.392 0.928 2.144 0 2.704 1.552 5.264 3.936 6.48 3.264 1.664 7.024 4.912 25.152 21.68 22.496 20.832 24.368 22.48 31.76 28.16 6.832 5.248 8.752 7.424 9.872 11.168 1.408 4.688-1.792 9.696-8.608 13.456-5.6 3.088-10.144 6.432-15.856 11.648s-8.784 6.96-12.304 6.96c-1.824 0-2.784-0.352-3.856-1.424zM165.216 269.68c-2.576-0.624-29.136-15.984-32.096-18.56-4.016-3.504-4.416-6.752-1.44-11.568 1.792-2.912 8.848-9.312 12.032-10.928 6.032-3.056 16.4-11.856 22.448-19.072 7.712-9.184 13.872-15.104 17.584-16.864 4.144-1.984 4.496-2.352 5.376-5.632 0.832-3.12 4.48-7.12 8.928-9.792 3.312-2 8.032-3.552 9.312-3.072 1.216 0.464 1.424 3.776 0.496 7.792-1.008 4.384-20.496 55.44-22.208 58.208-0.608 0.992-1.744 2.208-2.496 2.704-1.68 1.104-3.632 6.096-4.128 10.576-0.416 3.76-3.808 10.896-6.72 14.112-1.984 2.192-4.144 2.848-7.072 2.128zM327.808 227.92c-3.504-1.872-10.032-7.424-35.296-30-17.968-16.048-27.024-24.56-29.616-27.792-5.776-7.216-7.44-12.96-6.528-22.496 0.672-7.12 2.32-12.688 5.968-20.096 5.104-10.4 10.368-15.776 16.704-17.040 2.416-0.48 3.536-1.088 4.832-2.56 2.144-2.448 3.456-6.848 3.456-11.664 0-5.136 0.928-12.8 1.984-16.416 1.328-4.576 5.104-9.76 9.456-12.976 4.272-3.168 13.344-7.968 21.008-11.136 7.872-3.248 10.528-4.72 13.552-7.552 3.904-3.664 5.68-7.472 5.696-12.208 0.016-10.288 2.672-16.512 8.016-18.768 1.088-0.464 5.488-1.184 9.776-1.616 8.624-0.864 10.256-1.376 15.424-4.912 6.656-4.544 9.856-3.616 9.84 2.848-0.032 6.608-3.216 10.672-11.68 14.88-6.672 3.312-8.192 4.944-9.824 10.544-1.056 3.6-1.984 12.848-2.016 19.92-0.016 5.552-1.168 10.8-3.52 16.016-2.4 5.344-5.376 9.040-9.984 12.448-9.184 6.784-9.6 8-9.92 28.24-0.272 17.184 0.192 21.712 2.784 27.040 1.632 3.36 2.016 3.728 5.456 5.36 2.288 1.088 4.288 2.528 5.264 3.808 1.504 1.984 1.568 2.352 1.536 8.432-0.032 5.504-0.256 6.928-1.648 10.64-1.984 5.264-3.568 7.856-6.432 10.4-5.696 5.088-6.976 6.752-8.704 11.248-0.944 2.48-2.048 6.464-2.416 8.848-0.816 5.088-0.48 16.784 0.64 22.528 0.656 3.376 0.64 3.984-0.080 4.448-1.136 0.72-1.696 0.656-3.712-0.416zM128.096 223.568c0.24-1.664 0.448-9.904 0.448-18.336 0-15.008-0.032-15.36-1.28-16.944-0.704-0.896-1.968-2.784-2.8-4.208-2.96-5.056-5.424-8.384-9.632-13.088-3.6-4.016-4.544-5.504-6-9.52-4.48-12.384-3.76-26.368 1.808-34.928 1.168-1.808 3.168-3.712 5.568-5.28 6.176-4.096 9.168-7.872 9.2-11.616 0.032-3.008 1.168-6.672 2.608-8.4 3.232-3.84 4.704-10.16 5.424-23.392 0.56-10.384 0.992-12.464 2.976-14.816 0.736-0.864 1.76-2.608 2.304-3.856s1.472-3.44 2.080-4.864 2.208-3.968 3.568-5.648c2.176-2.704 3.344-3.488 10.272-6.816 8.112-3.904 11.664-6.336 18.992-12.944 8.896-8.032 17.408-12.88 29.888-17.056 8.64-2.88 16.8-6.672 19.536-9.040 3.216-2.8 4.352-3.216 6.592-2.48 1.072 0.352 2.112 1.136 2.288 1.712 0.4 1.248-0.752 6.096-3.248 13.68-2.272 6.928-5.136 10.56-20.016 25.344-15.472 15.376-17.808 19.232-17.712 29.216 0.048 4.4-0.128 5.136-2.016 8.896-1.136 2.256-3.392 5.664-5.040 7.552-7.248 8.368-10.816 14.352-10.832 18.144 0 2.72 1.776 5.104 9.248 12.32 7.312 7.056 10.976 9.984 15.616 12.448 5.488 2.896 8.144 5.888 9.632 10.8 2.080 6.832 0.512 12.64-5.44 20.16-3.856 4.88-72.592 65.968-74.208 65.968-0.144 0-0.048-1.36 0.192-3.008zM361.824 116.896c-2.176-1.712-2.704-4.368-2.704-13.376 0-8.688 0.368-10.080 3.408-12.624 0.944-0.8 3.072-1.744 4.704-2.096 8.928-1.92 10.608-4.16 14.832-19.856 1.696-6.32 3.296-8.8 7.104-11.104 4.416-2.656 12.208-5.952 14.32-6.048 1.552-0.064 1.824 0.16 2.304 1.936 0.704 2.592 0.208 7.408-1.008 9.744-0.528 1.024-1.776 2.176-2.816 2.608-3.52 1.472-3.472 1.2-3.856 19.744-0.288 14.352-0.496 17.44-1.376 19.808-1.232 3.36-4.272 6.56-7.776 8.192-3.232 1.504-11.664 3.584-15.296 3.776-2.48 0.128-2.784 0.016-2.96-1.152-0.224-1.552-2.24-2.832-3.104-1.968-0.32 0.32-0.88 1.184-1.248 1.92-0.88 1.776-2.64 1.952-4.528 0.48zM221.168 67.376c-0.496-0.88-0.736-3.776-0.736-9.040 0-7.296 0.096-7.936 1.584-10.96 1.904-3.872 1.552-3.696 18.272-9.12 7.824-2.528 12.784-4.448 13.44-5.168 0.832-0.928 1.76-1.152 4.608-1.152 4.736 0 5.84 1.056 4.864 4.672-1.072 3.984-3.888 9.040-6.72 12.080-3.664 3.904-7.888 6.304-16.064 9.072-8.784 2.976-11.408 4.448-14.464 8.064-2.688 3.184-3.68 3.504-4.768 1.584z"></path>
</svg>
