<!-- Generated by IcoMoon.io -->
<svg version="1.1" xmlns="http://www.w3.org/2000/svg" width="512" height="512" viewBox="0 0 512 512">
<title>monsters-of-order</title>
<g id="icomoon-ignore">
</g>
<path d="M86.352 200.304c-0.4 0.096-0.192 0 0 0 10.752 1.6 20.208 0.496 28.496-8.16 8.16-8.56 17.728-15.728 26.592-23.792 5.072-4.576 8.864-4.88 13.344 0.304 2.992 3.488 5.28 7.472 9.264 11.248 0.192-2.88 0.8-5.776 0.4-8.464-1.488-8.16-11.056-15.424-18.816-13.136-4.672 1.392-8.768 5.472-12.736 8.768-9.36 7.872-18.336 16.128-27.6 24.096-5.184 4.48-11.648 2.592-17.616 2.688-3.088 0.096-6.176-0.8-9.152-1.488-5.472-1.392-7.568-5.968-5.568-11.248 1.792-4.88 2.992-10.048 4.784-14.928 1.696-4.384 4.88-8.464 5.568-12.944 1.296-9.264 1.392-18.72 1.888-28.080 0.096-1.088-0.192-2.288 0.096-3.392 4.784-18.624 10.752-36.832 22.608-52.368 4.288-5.568 9.856-10.16 15.152-14.928 5.472-5.072 11.648-9.552 16.848-14.928 7.168-7.264 16.032-11.456 25.2-15.040 17.616-6.768 33.36-18.416 52.592-20.912 14.048-1.792 28.288-3.68 42.432-3.488 11.36 0.192 22.72 3.68 34.064 5.568 2.288 0.4 4.672 0.192 6.864 0.8 10.352 2.992 21.216 4.976 29.984 11.952 0.992 0.8 2.192 1.488 3.488 1.792 14.352 3.392 26.496 10.848 37.456 20.416 7.968 6.976 16.528 13.536 23.12 21.6 5.872 7.264 10.656 16.032 13.536 24.88 5.568 17.328 9.456 35.248 14.24 52.96 1.296 4.88 2.688 9.856 4.48 14.528 0.8 1.984 2.784 3.68 4.384 5.28 7.264 7.072 5.376 21.6-3.488 25.888-1.488 0.704-3.584 0.496-6.176 0.896-2.192 8.56-10.752 6.272-17.328 7.264-7.568 1.2-14.544-0.4-20.624-6.672-8.464-8.768-18.24-16.32-27.392-24.288-3.28-2.784-6.576-5.28-11.344-5.072-10.752 0.192-18.432 11.056-14.752 22.896 1.792-2.592 3.088-4.672 4.576-6.672 1.392-1.984 2.784-4.080 4.48-5.872 3.888-4.176 7.168-4.48 11.456-0.8 10.448 9.152 21.024 18.112 31.072 27.68 7.472 7.168 16.224 6.576 25.104 5.184 5.072-0.8 9.952-2.992 15.536-4.784-1.984 4.176-4.288 8.256-5.872 12.544-2.592 7.472-5.968 14.928-6.864 22.592-2.192 19.216-3.088 38.528-4.672 57.744-1.088 13.136-2.688 26.176-3.984 39.328-0.496 5.072-1.088 10.16-1.2 15.232-0.4 14.336-5.28 27.776-7.76 41.712-0.992 5.68-0.304 11.552-0.992 17.328-0.896 6.464-2.288 12.848-3.984 19.216-0.992 3.984-3.184 7.664-4.384 11.552-2.384 7.872-8.368 12.352-14.64 16.72-12.736 8.864-25.504 17.52-36.16 29.072-4.576 4.976-10.256 8.864-15.44 13.248-3.28 2.784-6.576 5.472-9.664 8.464-5.072 4.88-12.544 3.184-18.128 6.672-2.192 1.392-4.784 2.192-7.264 2.992-2.384 0.8-4.88 2.096-7.264 2.096-18.928 0.096-37.952 0.096-56.88-0.192-3.184-0.096-6.768-1.6-9.36-3.488-4.48-3.28-8.256-7.664-12.64-11.152-10.256-8.064-20.72-15.824-31.168-23.6-9.056-6.768-17.92-14.032-27.488-20.016-8.368-5.28-10.96-14.336-15.744-21.808-3.28-5.072-3.184-12.64-3.584-19.216-1.2-20.208-4.88-39.92-10.16-59.536-1.792-6.672-2.096-13.744-3.888-20.304-3.392-11.952-4.384-24-4.080-36.24 0.192-11.056 0.192-22.096-0.496-33.152-0.592-10.16-1.392-20.416-3.392-30.464-2.592-10.944-6.272-21.6-9.28-32.56zM343.92 253.568c-0.304 0.192-0.704 0.304-0.992 0.496 0-2.496 0.304-4.976-0.096-7.36-0.192-1.2-1.488-2.784-2.688-3.184-0.896-0.304-2.288 1.2-3.488 1.6-1.792 0.592-4.288 1.984-5.376 1.296-1.296-0.8-2.096-3.68-1.696-5.28 1.392-5.184 1.392-9.952-2.496-14.832-0.8 2.992-1.088 5.68-2.288 7.968-2.096 3.888-4.288 7.968-7.36 11.056-1.296 1.296-4.88 0.192-7.872 0.192 0.496-2.384 0.896-3.888 1.088-5.28 0.592-6.576 1.2-13.136 1.488-19.712 0-0.992-1.488-2.096-2.288-3.088-0.704 0.992-1.792 1.984-1.888 2.992-0.704 5.072-1.296 10.16-1.792 15.232-0.592 5.872-4.384 9.76-9.056 12.24-2.288 1.2-5.776 0.192-8.864 0.192 0-9.952 0.096-19.712-0.096-29.472 0-1.6-1.392-3.184-2.096-4.784-0.8 1.6-2.096 3.184-2.192 4.88-0.192 5.776 0.496 11.648-0.192 17.424-0.496 3.888-1.696 9.264-4.384 10.752-4.288 2.496-10.048 2.688-15.328 3.28-3.584 0.496-7.76-2.88-7.472-5.776 0.8-7.664 1.984-15.232 2.88-22.8 0.192-1.6 0.592-3.584-0.096-4.784-0.704-1.296-2.592-2.384-4.080-2.592-0.704-0.096-2.496 2.192-2.384 3.392 0.304 8.768 0.992 17.616 1.2 26.384 0 1.2-1.488 3.584-2.288 3.584-6.672 0.304-13.632 2.992-20.128-1.792-1.696-8.96-2.192-18.32 1.088-27.68 0.496-1.488-0.4-3.488-0.704-5.184-0.704 0-1.296 0-1.984 0-3.392 9.456-3.28 19.52-3.488 29.472-3.984 0.4-7.472 0.704-10.752 0.992-6.368-7.76-7.872-16.832-7.872-26.48-0.992 0.896-1.888 1.888-1.792 2.784 0.4 7.968 1.088 15.936 1.488 23.984 0.096 1.2-0.4 3.28-0.992 3.392-1.984 0.4-8.256-5.28-8.864-7.472-1.296-4.576-2.688-9.152-3.984-13.744-0.496 0-0.896 0.096-1.392 0.096 0 3.68 0 7.36 0 11.056-0.096 3.488 0.496 7.264-0.496 10.56-0.8 2.688-11.248 3.184-13.040 0.592-1.888-2.784-3.088-6.176-4.672-9.264-0.304 0-0.496 0-0.8-0.096 0 2.88 0 5.776 0 8.768-1.2-1.488-1.488-3.28-2.192-4.784s-1.792-3.68-2.992-3.984c-1.6-0.304-4.384 0.496-5.072 1.792-3.584 5.776-7.664 11.648-6.080 19.216-2.496-0.896-4.288-0.992-3.776 2.496 0.192 1.2 0.096 2.592-0.192 3.776-2.496 11.152-5.184 22.304-7.472 33.552-0.896 4.080-2.288 8.656-1.392 12.448 3.488 14.736 7.36 29.36 11.952 43.696 2.288 7.168 6.080 14.032 10.048 20.512 2.288 3.584 6.368 5.968 9.664 8.96 0.496-0.304 0.992-0.592 1.6-0.896-1.488-4.976-1.6-9.36 2.192-13.536 3.088-3.488 4.976-8.16 7.36-12.352 0.592 0.096 1.2 0.096 1.792 0.192 0.496 1.888 1.392 3.776 1.6 5.68 1.2 9.76 2.192 19.616 3.488 29.36 0.4 2.992 1.984 5.776 5.568 4.672 2.992-0.896 4.384-2.992 3.68-6.864-1.6-8.064-2.288-16.32-3.28-24.496-0.4-3.584 2.096-5.376 4.976-5.68 4.88-0.496 9.856-0.096 15.824-0.096 0.592 7.968 1.088 16.928 2.096 25.888 0.4 3.584 1.792 7.168 2.784 10.752 0.8-0.096 1.6-0.192 2.288-0.192 0.496-2.288 1.392-4.576 1.296-6.864-0.4-9.056-1.2-18.112-1.6-27.184-0.192-5.472 2.592-8.16 7.968-8.16 3.184 0 6.368-0.192 9.456 0.192 1.488 0.192 3.584 1.2 4.080 2.384 1.696 4.88 3.68 9.952 4.080 15.136 0.4 5.968-0.992 12.048-1.088 18.112 0 1.888 1.696 3.776 2.592 5.68 1.392-1.088 3.68-1.984 3.984-3.28 0.8-3.392 0.896-7.072 0.992-10.656 0.192-7.264 0.096-14.528 0.192-21.808 0.096-5.68 1.792-7.264 7.264-7.168 3.984 0.096 7.968 0.096 11.952 0.096 4.384 0 7.472 0.4 8.56 6.272 0.592 3.488-0.592 4.88-1.392 7.472-2.688 8.56-4.288 17.424-6.368 26.176 2.592 0.896 4.784 1.696 7.76 2.688 1.392-9.36 2.688-18.224 4.080-27.072 0.496-3.392 1.2-6.768 2.288-10.048 0.4-1.088 1.984-2.288 3.184-2.496 6.672-0.992 12.96 4.576 12.848 11.248 0 1.696-0.192 3.28-0.192 4.976 0 6.976 0 13.936 0 22.304 1.696-3.088 3.392-5.072 3.776-7.264 1.088-5.968 1.6-12.048 2.496-18.112 0.304-2.288 0.896-4.576 1.392-6.976 0.704 0 1.392 0 2.096 0 1.792 6.464 5.68 12.144 5.776 19.312 0 1.984 1.6 4.48 3.28 5.68 0.896 0.592 4.576-0.8 5.072-2.096 3.488-8.368 6.864-16.72 9.36-25.392 2.592-9.056 3.888-18.624 6.272-27.776 1.392-5.28 4.48-10.16 5.776-15.536 2.592-10.656 4.48-21.408 6.576-32.256 0.192-0.8-0.4-1.888-0.8-2.688-1.296-2.688-2.992-5.28-3.776-8.16-2.192-7.072-4.080-14.24-6.080-21.312-1.792 3.888-2.496 7.872-3.984 11.456-0.496 1.296-2.992 2.688-4.384 2.592-1.088-0.096-2.096-2.384-2.496-3.088 2.992-1.792 6.080-2.592 6.976-4.48 0.4-1.296-2.096-3.984-3.184-6.080zM244.432 69.68c-6.464 4.576-12.24 7.872-15.152 15.232-4.784 11.952-8.656 24-10.56 36.736-0.592 4.176 1.488 7.76 5.68 8.256 2.88 0.304 5.872 0.096 8.768 0.496 5.968 0.896 9.664-3.488 13.744-6.368 1.088-0.8 1.392-3.28 1.392-4.976 0.192-5.28-0.192-10.656 0.096-15.936 0.4-4.976 1.392-9.856 2.192-14.736 0.496 0.096 0.896 0.096 1.392 0.192 1.088 10.848 2.384 21.696 3.28 32.656 0.592 6.672 3.28 8.96 9.76 8.064 2.592-0.4 5.28 0.096 7.872 0.4 4.48 0.592 7.072-1.2 8.464-5.472 2.192-7.072 0.4-13.744-2.096-20.112-2.496-6.272-5.776-12.24-8.768-18.416-1.792-3.68-3.28-7.568-5.28-11.152-0.8-1.392-2.688-2.288-3.488-2.88-0.704 2.688-1.296 4.784-1.888 6.864-2.496-1.2-5.072-2.496-7.568-3.68-5.072-0.8-5.184 2.992-4.48 7.168-6.464-2.096-7.664-5.568-3.392-12.352zM312.448 68.896c-0.192 6.080 0.704 11.648 4.784 16.32 1.696 1.984 3.488 3.888 4.976 6.080 6.080 9.056 14.24 14.144 25.408 14.928 12.736 0.896 20.32-7.072 27.6-15.328 2.592-2.88 2.784-6.768 0.4-10.656-2.288-3.584-3.488-7.968-6.080-11.248-2.384-3.088-5.568-6.368-9.056-7.472-8.464-2.688-17.328-3.888-25.904-6.080-3.088-0.8-6.080-2.384-9.056-3.776-5.872-2.88-9.456-1.392-11.056 5.072-0.992 4.080-1.296 8.16-1.984 12.144zM149.696 113.088c6.464-0.992 11.552-1.088 16.144-2.592 3.984-1.296 7.568-3.984 11.056-6.368 6.576-4.576 11.552-10.656 14.144-18.32 2.288-6.864 0.896-13.040-2.688-19.408-2.192-3.888-4.384-4.88-8.256-3.984-8.256 1.888-15.728 6.368-24.608 6.576-4.48 0.096-9.056 2.288-13.36 4.176-6.176 2.688-10.048 7.872-13.136 13.632-4.576 8.56-0.4 19.904 7.568 22.496 4.672 1.488 9.456 2.688 13.136 3.776z"></path>
</svg>
