<!-- Generated by IcoMoon.io -->
<svg version="1.1" xmlns="http://www.w3.org/2000/svg" width="32" height="32" viewBox="0 0 32 32">
<title>fighters-champion</title>
<path d="M14.737 0c0.162 0.349 0.33 0.696 0.486 1.049 0.29 0.66 0.566 1.326 0.863 1.982 0.208 0.46 0.443 0.908 0.667 1.361 0.043 0.085 0.090 0.167 0.134 0.252 0.258 0.508 0.517 1.017 0.776 1.527 0.128 0.252 0.080 0.4-0.183 0.516-0.324 0.143-0.449 0.443-0.599 0.725-0.011 0.020 0.038 0.1 0.072 0.113 0.273 0.098 0.549 0.193 0.828 0.275 0.339 0.098 0.608 0.301 0.867 0.528 0.109 0.095 0.225 0.183 0.344 0.266 0.090 0.061 0.158 0.044 0.182-0.078 0.034-0.168 0.073-0.332-0.029-0.494-0.060-0.097 0.010-0.154 0.092-0.181 0.27-0.088 0.544-0.168 0.823-0.255 0.049 0.089 0.089 0.163 0.129 0.237 0.123 0.22 0.373 0.342 0.622 0.307 0.105-0.015 0.169-0.066 0.197-0.176 0.050-0.198 0.026-0.376-0.109-0.537-0.038-0.045-0.070-0.095-0.113-0.154 0.117-0.050 0.221-0.103 0.329-0.137 0.031-0.010 0.085 0.024 0.117 0.051 0.1 0.088 0.184 0.202 0.295 0.271 0.159 0.099 0.295 0.048 0.432-0.082 0.148-0.139 0.305-0.273 0.478-0.379 0.255-0.154 0.292-0.207 0.231-0.509-0.005-0.024-0.005-0.049-0.009-0.094 0.069 0.006 0.132 0.009 0.193 0.019 0.169 0.028 0.316-0.015 0.405-0.164 0.138-0.228 0.347-0.357 0.587-0.445 0.137-0.050 0.272-0.1 0.41-0.146 0.125-0.041 0.252-0.079 0.283-0.233 0.004-0.018 0.023-0.033 0.036-0.046 0.129-0.125 0.552-0.122 0.681 0.003 0.084 0.082 0.068 0.172 0.028 0.263-0.459 1.024-0.91 2.051-1.383 3.068-0.148 0.32-0.37 0.606-0.533 0.919-0.182 0.35-0.337 0.715-0.314 1.125 0.010 0.172-0.045 0.241-0.222 0.242-0.286 0.001-0.572-0.004-0.859-0.005-0.019 0-0.036 0.009-0.077 0.019 0.034 0.055 0.061 0.099 0.089 0.143 0.182 0.294 0.393 0.575 0.534 0.886 0.105 0.231 0.13 0.501 0.174 0.756s0.107 0.307 0.331 0.181c0.154-0.087 0.285-0.217 0.425-0.33 0.112-0.089 0.221-0.182 0.331-0.272 0.015-0.013 0.038-0.025 0.041-0.041 0.049-0.193 0.188-0.143 0.309-0.108 0.291 0.084 0.573 0.181 0.741 0.47 0.034 0.059 0.14 0.094 0.22 0.108 0.701 0.124 1.403 0.233 2.104 0.364 0.359 0.066 0.709 0.184 1.070 0.242 0.38 0.061 0.731 0.201 1.084 0.341 0.306 0.123 0.608 0.263 0.915 0.385 0.134 0.053 0.276 0.090 0.418 0.115 0.156 0.028 0.26 0.103 0.347 0.235 0.082 0.123 0.043 0.196-0.063 0.256-0.243 0.139-0.485 0.281-0.736 0.408-0.844 0.429-1.695 0.844-2.536 1.281-0.31 0.162-0.6 0.363-0.892 0.558-0.098 0.065-0.161 0.063-0.246-0.011-0.098-0.085-0.204-0.162-0.314-0.233-0.227-0.148-0.384-0.149-0.569-0.014-0.211 0.154-0.31 0.389-0.248 0.616 0.033 0.119 0.084 0.233 0.129 0.356-0.258 0.129-0.517 0.26-0.776 0.389-0.265 0.132-0.509 0.271-0.555 0.612-0.025 0.184-0.088 0.203-0.245 0.107-0.083-0.051-0.156-0.123-0.227-0.191-0.109-0.103-0.186-0.089-0.227 0.055-0.060 0.217-0.105 0.439-0.169 0.655-0.061 0.206-0.139 0.405-0.209 0.608-0.013 0.035-0.020 0.070-0.041 0.145 0.222-0.118 0.419-0.083 0.611-0.023 0.078 0.025 0.166 0.075 0.211 0.14 0.093 0.135 0.157 0.29 0.238 0.434 0.25 0.445 0.49 0.896 0.756 1.332 0.296 0.488 0.606 0.97 0.929 1.441 0.194 0.285 0.436 0.538 0.637 0.819 0.272 0.378 0.538 0.761 0.784 1.158 0.074 0.119 0.088 0.284 0.098 0.43 0.009 0.13-0.061 0.163-0.167 0.087-0.142-0.103-0.287-0.077-0.445-0.055-0.11 0.015-0.238 0-0.341-0.043-0.494-0.203-0.968-0.488-1.48-0.617-0.74-0.186-1.403-0.529-2.087-0.832-0.309-0.137-0.617-0.265-0.954-0.306-0.049-0.006-0.095-0.028-0.144-0.041-0.278-0.080-0.555-0.171-0.836-0.238-0.135-0.033-0.201-0.094-0.206-0.231-0.005-0.13-0.020-0.26-0.029-0.39-0.008-0.119-0.074-0.152-0.172-0.103-0.061 0.030-0.119 0.077-0.163 0.128-0.411 0.492-0.948 0.798-1.534 1.026-0.072 0.028-0.158 0.024-0.237 0.023-0.207-0.003-0.397 0.046-0.563 0.177-0.046 0.036-0.102 0.069-0.158 0.083-0.295 0.072-0.592 0.144-0.889 0.202-0.127 0.024-0.151 0.114-0.099 0.178 0.197 0.247 0.354 0.539 0.651 0.69 0.109 0.055 0.128 0.118 0.065 0.213-0.077 0.118-0.153 0.236-0.237 0.349-0.344 0.465-0.651 0.951-0.808 1.518-0.055 0.201-0.237 0.257-0.42 0.29-0.094 0.016-0.189 0.018-0.285 0.029-0.123 0.015-0.184 0.108-0.134 0.223 0.065 0.152 0.164 0.266 0.337 0.317 0.093 0.028 0.179 0.102 0.248 0.173 0.023 0.024 0 0.12-0.031 0.163-0.159 0.218-0.331 0.429-0.492 0.646-0.046 0.063-0.075 0.139-0.109 0.211-0.083 0.169-0.166 0.339-0.243 0.511-0.038 0.085-0.065 0.176-0.094 0.265-0.048 0.145-0.069 0.306-0.146 0.434-0.12 0.201-0.188 0.405-0.189 0.639-0.001 0.114-0.009 0.233-0.040 0.342-0.048 0.164-0.182 0.192-0.27 0.050-0.104-0.167-0.196-0.35-0.251-0.538-0.142-0.48-0.258-0.967-0.391-1.45-0.025-0.090-0.059-0.183-0.109-0.262-0.502-0.79-0.839-1.653-1.099-2.545-0.176-0.603-0.477-1.116-0.9-1.574-0.253-0.273-0.211-0.248 0.044-0.447 0.285-0.221 0.547-0.473 0.81-0.72 0.056-0.053 0.080-0.139 0.132-0.236-0.149-0.016-0.262-0.029-0.375-0.040-0.823-0.079-1.588-0.33-2.284-0.776-0.133-0.085-0.265-0.164-0.436-0.183-0.114-0.013-0.221-0.107-0.326-0.173-0.1-0.063-0.194-0.137-0.307-0.217-0.051 0.331-0.146 0.633 0.065 0.923 0.077 0.105-0.005 0.181-0.104 0.217-0.305 0.115-0.609 0.228-0.915 0.336-0.203 0.072-0.415 0.118-0.616 0.196-1.402 0.544-2.835 1.005-4.199 1.645-0.159 0.075-0.345 0.109-0.522 0.13-0.070 0.009-0.182-0.049-0.217-0.11s-0.033-0.188 0.009-0.245c0.275-0.361 0.573-0.707 0.852-1.066 0.436-0.562 0.887-1.115 1.282-1.706 0.123-0.184 0.208-0.276 0.428-0.294 0.272-0.023 0.416-0.278 0.336-0.544-0.033-0.109-0.015-0.192 0.046-0.281 0.221-0.317 0.439-0.636 0.655-0.956 0.070-0.104 0.156-0.161 0.286-0.164 0.27-0.008 0.291-0.040 0.236-0.307-0.004-0.019 0-0.039 0-0.070 0.119-0.023 0.236-0.048 0.353-0.066 0.119-0.019 0.157-0.074 0.102-0.187-0.213-0.44-0.192-0.916-0.207-1.386-0.006-0.181 0-0.361-0.006-0.542-0.001-0.039-0.034-0.075-0.051-0.114-0.041 0.021-0.104 0.034-0.122 0.068-0.036 0.073-0.048 0.158-0.074 0.237-0.030 0.090-0.065 0.179-0.098 0.268-0.080-0.030-0.168-0.048-0.238-0.092-0.28-0.174-0.542-0.385-0.836-0.527-0.263-0.125-0.564-0.167-0.843-0.261-0.612-0.206-1.223-0.42-1.831-0.636-0.103-0.036-0.199-0.095-0.294-0.151-0.127-0.073-0.245-0.135-0.409-0.109-0.083 0.014-0.192-0.050-0.27-0.105-0.193-0.139-0.395-0.206-0.641-0.218-0.236-0.011-0.47-0.092-0.698-0.168-0.065-0.021-0.124-0.129-0.138-0.206-0.008-0.045 0.069-0.128 0.125-0.157 0.739-0.384 1.483-0.755 2.219-1.143 0.692-0.364 1.377-0.743 2.063-1.118 0.127-0.070 0.241-0.166 0.367-0.237 0.233-0.133 0.464-0.277 0.711-0.381 0.33-0.138 0.553-0.341 0.622-0.707 0.087-0.46 0.227-0.903 0.489-1.3 0.031-0.048 0.018-0.163-0.020-0.208-0.074-0.087-0.144-0.226-0.305-0.151-0.090 0.043-0.182 0.087-0.268 0.135-0.11 0.063-0.199 0.040-0.251-0.069-0.095-0.203-0.203-0.405-0.263-0.62-0.238-0.864-0.469-1.73-0.684-2.6-0.166-0.67-0.305-1.347-0.455-2.022-0.016-0.073-0.034-0.153-0.019-0.223 0.014-0.063 0.059-0.137 0.112-0.168 0.053-0.030 0.158-0.043 0.197-0.010 0.261 0.22 0.585 0.301 0.887 0.437 0.438 0.196 0.863 0.423 1.299 0.623 0.354 0.163 0.714 0.317 1.077 0.458 0.325 0.125 0.634 0.268 0.918 0.475 0.159 0.117 0.355 0.184 0.532 0.278 0.102 0.054 0.206 0.107 0.297 0.176 0.22 0.168 0.226 0.329 0.039 0.531-0.054 0.058-0.103 0.123-0.138 0.192-0.015 0.030-0.005 0.102 0.018 0.117 0.028 0.018 0.083 0 0.123-0.011 0.021-0.006 0.036-0.033 0.053-0.053 0.295-0.357 0.675-0.592 1.101-0.764 0.26-0.105 0.518-0.216 0.776-0.326 0.138-0.060 0.176-0.132 0.085-0.241-0.125-0.153-0.28-0.285-0.43-0.416-0.030-0.026-0.099-0.001-0.143-0.019-0.079-0.031-0.174-0.060-0.222-0.122-0.030-0.038-0.010-0.144 0.023-0.201 0.208-0.355 0.421-0.705 0.641-1.054 0.589-0.938 1.137-1.895 1.586-2.914 0.356-0.812 0.712-1.622 1.031-2.449 0.018-0.003 0.038-0.003 0.058-0.003zM18.987 14.575c0.004 0 0.008 0 0.010 0 0-0.351 0.004-0.702-0.001-1.052-0.008-0.577 0.021-1.167-0.196-1.709-0.201-0.499-0.474-0.97-0.724-1.449-0.040-0.078-0.113-0.14-0.176-0.204-0.163-0.163-0.333-0.32-0.495-0.483-0.181-0.183-0.356-0.376-0.609-0.454-0.613-0.189-1.228-0.369-1.845-0.542-0.070-0.020-0.159 0.024-0.238 0.043-0.123 0.029-0.25 0.099-0.368 0.087-0.534-0.058-1.043-0.019-1.497 0.297-0.367 0.255-0.726 0.519-1.092 0.775s-0.549 0.646-0.666 1.041c-0.123 0.414-0.173 0.855-0.203 1.29-0.087 1.256-0.146 2.513-0.223 3.77-0.006 0.103-0.045 0.226-0.113 0.3-0.163 0.177-0.089 0.381-0.107 0.576-0.008 0.087 0.009 0.179-0.021 0.257-0.093 0.246-0.203 0.485-0.305 0.728-0.008 0.019-0.011 0.039-0.018 0.056-0.055 0.143-0.099 0.292-0.168 0.429-0.097 0.192-0.104 0.231 0.051 0.379 0.193 0.184 0.33 0.4 0.42 0.65 0.049 0.137 0.104 0.272 0.171 0.4 0.122 0.237 0.373 0.391 0.583 0.344 0.434-0.098 0.761 0.127 1.038 0.386 0.181 0.169 0.335 0.375 0.529 0.539 0.079 0.066 0.118 0.182 0.172 0.277 0.024 0.043 0.031 0.098 0.061 0.137 0.349 0.445 0.369 0.958 0.31 1.489-0.019 0.169-0.036 0.339-0.048 0.509-0.006 0.093 0.009 0.183 0.122 0.213 0.107 0.029 0.187-0.013 0.243-0.102 0.074-0.119 0.146-0.24 0.217-0.36 0.070-0.118 0.162-0.137 0.27-0.049 0.061 0.050 0.112 0.117 0.174 0.166 0.060 0.046 0.132 0.079 0.197 0.118 0.025-0.072 0.061-0.14 0.075-0.215 0.034-0.182 0.058-0.366 0.085-0.548 0.018-0.118 0.058-0.129 0.154-0.051 0.199 0.158 0.258 0.374 0.277 0.61 0.010 0.132 0.058 0.232 0.206 0.255 0.146 0.023 0.256-0.028 0.335-0.148 0.019-0.029 0.028-0.064 0.046-0.094 0.014-0.023 0.034-0.049 0.056-0.056 0.069-0.025 0.491 0.13 0.528 0.192 0.010 0.016 0.013 0.038 0.015 0.058 0.014 0.129 0.097 0.213 0.212 0.218 0.129 0.005 0.119-0.132 0.137-0.217 0.133-0.652 0.252-1.308 0.395-1.958 0.050-0.226 0.103-0.49 0.25-0.646 0.294-0.311 0.648-0.567 0.989-0.829 0.277-0.215 0.576-0.401 0.859-0.61 0.079-0.058 0.134-0.148 0.204-0.217 0.049-0.048 0.1-0.114 0.159-0.124 0.138-0.025 0.14-0.1 0.137-0.216-0.006-0.188-0.035-0.396 0.031-0.562 0.105-0.266 0.077-0.478-0.078-0.705-0.261-0.383-0.444-0.802-0.47-1.267-0.036-0.576-0.045-1.148-0.065-1.72zM22.038 16.39c0.238 0.004 0.317-0.025 0.492-0.166 0.026-0.021 0.060-0.050 0.089-0.050 0.112 0.003 0.154-0.066 0.168-0.156 0.051-0.345 0.109-0.691 0.139-1.039 0.014-0.154-0.051-0.306-0.183-0.41-0.177-0.139-0.352-0.281-0.539-0.409-0.050-0.034-0.14-0.038-0.201-0.020-0.104 0.030-0.197 0.094-0.299 0.135-0.307 0.124-0.519 0.334-0.599 0.662-0.030 0.127-0.061 0.252-0.090 0.379-0.054 0.236-0.049 0.465 0.133 0.646 0.25 0.252 0.549 0.416 0.889 0.426zM14.882 26.049c0.294 0.014 0.559-0.048 0.76-0.284 0.016-0.019 0.038-0.039 0.059-0.044 0.235-0.058 0.262-0.232 0.24-0.429-0.013-0.108-0.039-0.215-0.059-0.322-0.006-0.033-0.029-0.070-0.020-0.098 0.045-0.148-0.029-0.255-0.133-0.334-0.13-0.1-0.272-0.188-0.416-0.268-0.038-0.021-0.134-0.009-0.151 0.019-0.075 0.125-0.189 0.153-0.317 0.167-0.124 0.014-0.248 0.034-0.373 0.051-0.326 0.046-0.533 0.256-0.578 0.58-0.010 0.074-0.024 0.148-0.040 0.221-0.055 0.248 0.006 0.405 0.223 0.534 0.248 0.145 0.517 0.221 0.806 0.207zM6.921 16.462c0.003 0.011 0.004 0.023 0.006 0.034 0.128-0.038 0.258-0.072 0.385-0.115 0.113-0.040 0.218-0.112 0.334-0.133 0.237-0.044 0.311-0.221 0.327-0.41 0.025-0.288-0.030-0.571-0.204-0.815-0.135-0.189-0.31-0.265-0.555-0.284-0.258-0.020-0.5-0.008-0.737 0.078-0.324 0.118-0.554 0.546-0.45 0.873 0.070 0.222 0.181 0.433 0.291 0.64 0.033 0.060 0.119 0.117 0.188 0.127 0.134 0.020 0.275 0.006 0.413 0.006zM15.785 6.341c-0.030-0.193-0.304-0.595-0.484-0.665-0.039-0.015-0.089-0.010-0.13-0.003-0.102 0.021-0.202 0.053-0.305 0.074-0.589 0.127-0.907 0.493-0.885 1.022 0.014 0.346 0.258 0.631 0.598 0.699 0.285 0.056 0.567 0.061 0.839-0.061 0.053-0.024 0.118-0.074 0.132-0.124 0.087-0.312 0.159-0.627 0.237-0.942zM6.444 14.572c0.068 0.011 0.133 0.031 0.199 0.031 0.173-0.002 0.345-0.010 0.517-0.024 0.020-0.001 0.058-0.078 0.050-0.085-0.039-0.041-0.087-0.099-0.137-0.103-0.147-0.013-0.296-0.002-0.445-0.002-0.108 0-0.164 0.056-0.183 0.183zM17.161 24.327c0.066 0.045 0.094 0.080 0.113 0.077 0.216-0.053 0.433-0.108 0.644-0.176 0.028-0.009 0.033-0.092 0.049-0.139-0.050-0.013-0.105-0.045-0.148-0.033-0.134 0.039-0.263 0.093-0.394 0.145-0.079 0.033-0.156 0.073-0.265 0.125zM16.96 24.309c-0.163 0-0.312-0.001-0.462 0.001-0.080 0.001-0.148 0.040-0.128 0.127 0.019 0.078 0.072 0.148 0.11 0.222 0.048-0.038 0.093-0.082 0.144-0.113 0.058-0.034 0.124-0.084 0.182-0.079 0.134 0.013 0.178-0.031 0.153-0.158zM17.774 22.819c-0.098 0.092-0.148 0.252-0.143 0.462 0.001 0.040 0.018 0.103 0.045 0.114 0.036 0.016 0.098 0.006 0.135-0.015 0.181-0.102 0.163-0.406-0.038-0.561zM20.424 22.547c-0.192 0.018-0.55 0.355-0.538 0.499 0.266-0.005 0.55-0.263 0.538-0.499zM26.432 15.222c0.226 0.019 0.375-0.182 0.29-0.388-0.010-0.024-0.104-0.045-0.11-0.035-0.087 0.129-0.209 0.245-0.179 0.423zM17.422 6.401c-0.036-0.089-0.063-0.164-0.099-0.233-0.016-0.030-0.054-0.073-0.078-0.070-0.030 0.004-0.066 0.043-0.079 0.075-0.054 0.141 0.026 0.236 0.123 0.334 0.045-0.036 0.087-0.070 0.133-0.105zM13.514 27.519c0.008-0.020 0.015-0.039 0.023-0.059-0.055-0.094-0.109-0.188-0.164-0.282-0.045-0.075-0.134-0.054-0.132-0.003 0.004 0.095 0.046 0.197 0.1 0.278 0.028 0.041 0.114 0.045 0.173 0.065zM15.021 5.439c-0.055-0.041-0.092-0.085-0.108-0.079-0.095 0.035-0.188 0.078-0.276 0.129-0.014 0.008 0.001 0.068 0.004 0.104 0.079-0.010 0.162-0.009 0.238-0.033 0.045-0.016 0.080-0.068 0.143-0.122zM26.642 14.583c0.056 0.060 0.084 0.113 0.125 0.128 0.059 0.021 0.154-0.13 0.134-0.233-0.010-0.049-0.063-0.089-0.097-0.133-0.050 0.075-0.102 0.151-0.163 0.238zM10.786 10.79c-0.077 0.112-0.138 0.181-0.171 0.262-0.009 0.023 0.064 0.079 0.099 0.12 0.056-0.070 0.122-0.135 0.163-0.213 0.011-0.023-0.043-0.082-0.092-0.169zM14.782 30.475c0.002-0.020 0.013-0.041 0.008-0.059-0.011-0.034-0.033-0.065-0.049-0.098-0.031 0.024-0.072 0.043-0.090 0.073-0.023 0.036-0.048 0.093-0.034 0.124 0.025 0.061 0.078 0.112 0.118 0.167 0.016-0.054 0.033-0.109 0.048-0.163 0.002-0.014 0-0.029 0-0.044zM22.511 20.32c0.082-0.108 0.149-0.196 0.22-0.29-0.045-0.039-0.078-0.066-0.125-0.107-0.034 0.134-0.246 0.196-0.094 0.396zM7.568 10.449c-0.242 0.044-0.304 0.142-0.199 0.332 0.069-0.114 0.125-0.208 0.199-0.332zM14.016 28.998c0.085-0.075 0.074-0.122-0.088-0.265-0.030 0.029-0.061 0.059-0.105 0.102 0.074 0.061 0.133 0.112 0.193 0.163zM13.594 27.827c-0.072 0.095-0.105 0.177-0.013 0.237 0.030 0.019 0.1-0.025 0.174-0.048-0.068-0.079-0.109-0.128-0.162-0.189zM7.503 14.379c0.122 0.034 0.172 0.21 0.344 0.053-0.124-0.018-0.178-0.179-0.344-0.053zM25.622 14.94c0.025-0.102 0.040-0.163 0.055-0.223-0.069 0.002-0.138 0.005-0.207 0.008-0.004 0.018-0.008 0.034-0.010 0.051 0.041 0.041 0.082 0.083 0.162 0.164zM9.739 18.020c-0.019-0.006-0.039-0.013-0.058-0.020-0.048 0.040-0.094 0.082-0.144 0.123 0.058 0.070 0.109 0.132 0.176 0.046 0.028-0.035 0.019-0.099 0.026-0.149zM21.594 13.83c-0.033 0.083-0.056 0.147-0.082 0.21 0.074-0.026 0.147-0.051 0.25-0.088-0.070-0.050-0.102-0.073-0.168-0.122zM27.691 13.489c-0.033 0.035-0.060 0.065-0.094 0.103 0.043 0.040 0.077 0.073 0.115 0.11 0.041-0.039 0.074-0.070 0.112-0.107-0.050-0.040-0.088-0.069-0.133-0.107zM12.043 23.286c0.129-0.161 0.117-0.203-0.063-0.252 0.020 0.080 0.039 0.154 0.063 0.252zM11.926 6.473c0.018-0.001 0.034-0.004 0.051-0.005 0.004-0.049 0.008-0.099 0.013-0.148-0.055 0.009-0.11 0.018-0.199 0.033 0.065 0.058 0.1 0.089 0.135 0.12z"></path>
<path d="M13.447 19.531c-0.666-0.025-1.317-0.125-1.94-0.368-0.073-0.028-0.146-0.073-0.199-0.128-0.149-0.149-0.287-0.307-0.428-0.465-0.102-0.115-0.138-0.242-0.095-0.401 0.072-0.267 0.196-0.492 0.437-0.641 0.090-0.056 0.14-0.119 0.075-0.236-0.018-0.031 0.020-0.127 0.059-0.151 0.205-0.128 0.425-0.176 0.658-0.070 0.3 0.137 0.603 0.268 0.903 0.409 0.408 0.192 0.813 0.389 1.218 0.583 0.014 0.006 0.026 0.014 0.040 0.020 0.307 0.148 0.311 0.172 0.144 0.462-0.082 0.143-0.132 0.304-0.217 0.444-0.095 0.156-0.199 0.312-0.327 0.44-0.078 0.077-0.21 0.099-0.316 0.147-0.005-0.014-0.008-0.030-0.010-0.045zM11.258 17.998c0.133-0.122 0.133-0.123 0.030-0.213-0.035 0.039-0.072 0.078-0.112 0.12 0.031 0.036 0.056 0.065 0.082 0.093z"></path>
<path d="M16.792 19.132c-0.287-0.039-0.533-0.112-0.731-0.32-0.12-0.127-0.253-0.242-0.383-0.361-0.065-0.060-0.084-0.112-0.008-0.187 0.045-0.044 0.065-0.12 0.080-0.186 0.031-0.138 0.109-0.187 0.25-0.176 0.070 0.006 0.151-0.019 0.217-0.049 0.563-0.256 1.048-0.659 1.647-0.848 0.147-0.046 0.27-0.050 0.397 0.040 0.286 0.201 0.494 0.623 0.425 0.887-0.061 0.238-0.204 0.406-0.441 0.493-0.069 0.025-0.133 0.066-0.197 0.105-0.217 0.134-0.424 0.29-0.652 0.401-0.187 0.093-0.401 0.135-0.605 0.199z"></path>
<path d="M14.195 21.482c-0.030-0.122-0.074-0.223-0.078-0.327-0.010-0.25-0.004-0.5 0-0.751 0.004-0.306 0.128-0.57 0.287-0.824 0.050-0.080 0.045-0.193 0.077-0.288 0.019-0.059 0.045-0.143 0.092-0.162 0.123-0.051 0.256-0.090 0.389-0.103 0.192-0.020 0.321 0.075 0.404 0.248 0.054 0.112 0.125 0.213 0.179 0.325 0.065 0.139 0.156 0.278 0.173 0.427 0.050 0.416 0.069 0.837 0.099 1.256 0.009 0.127-0.015 0.233-0.176 0.237-0.005 0-0.011 0.001-0.014 0.004-0.188 0.194-0.319 0.056-0.459-0.074-0.235-0.215-0.495-0.24-0.774-0.079-0.054 0.031-0.107 0.060-0.199 0.113zM14.861 20.319c0.097-0.049 0.188-0.248 0.153-0.327-0.011-0.024-0.040-0.051-0.064-0.054s-0.060 0.020-0.070 0.043c-0.056 0.108-0.085 0.221-0.019 0.339zM14.492 20.781c-0.020 0-0.040 0-0.060-0.001-0.004 0.1-0.009 0.201-0.013 0.301 0.035-0.008 0.089-0.004 0.104-0.026 0.065-0.095 0.063-0.192-0.031-0.273z"></path>
</svg>
