<!-- Generated by IcoMoon.io -->
<svg version="1.1" xmlns="http://www.w3.org/2000/svg" width="512" height="512" viewBox="0 0 512 512">
<title>monsters-of-order</title>
<g id="icomoon-ignore">
</g>
<path d="M512.16 268.352c-0.272 3.824-0.64 7.632-0.784 11.456-0.736 18.384-6.432 35.44-13.552 52.176-3.568 8.368-6.288 17.12-9.28 25.744-3.584 10.336-9.792 19.136-15.968 27.984-1.344 1.936-2.864 3.824-4.464 5.552-6.784 7.392-13.44 14.88-20.512 22-5.472 5.488-12.032 9.44-19.408 12.048-2.496 0.864-4.848 2.128-7.184 3.392-7.984 4.304-16.256 7.312-25.536 7.2-3.52-0.048-7.136 0.592-10.56 1.44-8.144 1.968-16.192 0.256-24.256-0.256-1.776-0.112-3.632 0.592-5.472 0.8-2.064 0.224-4.16 0.688-6.176 0.432-12.464-1.536-24.512-4.592-36.272-9.2-9.92-3.872-20.304-6.608-30.208-10.512-15.968-6.288-28.704-16.784-38.8-30.736-5.472-7.52-11.616-14.544-17.472-21.792-4.688-5.808-7.344-12.512-9.216-19.664-0.736-2.832-1.744-5.856-3.424-8.192-5.392-7.392-10.816-14.768-16.896-21.584-8.112-9.12-12.208-19.984-14.080-31.6-0.816-5.072 0.544-10.768 1.968-15.888 3.088-11.12 6.928-22.224 14.864-30.832 10.080-10.96 22.16-19.344 36.944-22.928 3.056-0.752 6.336-0.848 9.52-0.96 1.168-0.048 2.432 0.592 3.552 1.136 2.672 1.328 5.232 2.096 8.368 1.008 6.304-2.192 12.592-1.504 18.688 1.216 0.496 0.224 1.056 0.432 1.424 0.8 10.704 10.48 20.976 21.296 25.424 36.144 3.312 11.072 4.512 22.368 3.136 33.888-0.112 0.912-0.256 1.824-0.16 2.752 0.784 7.424-0.8 14.544-2.864 21.568-0.464 1.6-1.6 3.024-2.464 4.48-1.696 2.784-3.408 5.552-5.12 8.32-2.24 3.568-1.504 6.816 0.704 10.176 5.632 8.56 12.56 15.888 20.304 22.544 2.304 1.984 4 4.672 6.224 6.768 1.872 1.808 3.872 3.776 6.192 4.752 13.584 5.856 27.664 7.392 42.080 3.584 9.024-2.384 17.12-6.832 24.576-12.352 4.48-3.312 8.736-6.928 13.040-10.48 6.544-5.424 12-11.76 16.144-19.2 3.904-7.024 8.56-13.696 11.664-21.056 4.544-10.72 6.288-22.288 7.744-33.824 1.856-14.496 3.712-29.024 5.072-43.568 0.496-5.392-0.048-10.96-0.656-16.352-1.008-8.8-1.984-17.648-3.84-26.304-1.872-8.832-5.072-17.248-9.808-25.136-4.064-6.784-7.392-14.080-8.224-22.176 0-0.096 0-0.176-0.016-0.272-3.36-6.832-6.224-14.032-12-19.344-2.272-2.080-5.28-3.392-7.504-5.488-2.544-2.432-4.464-5.44-6.832-8.048-1.808-1.984-3.664-4.032-5.856-5.552-3.088-2.144-6.304-3.984-7.792-7.776-0.304-0.784-1.664-1.216-2.608-1.616-3.344-1.392-6.912-2.352-10.032-4.096-4.144-2.304-8.032-5.072-11.872-7.872-7.184-5.184-14.976-9.056-23.408-11.728-2.416-0.784-4.896-1.616-7.136-2.816-14.656-7.792-30.336-12.368-46.56-15.568-8.944-1.76-17.76-4.144-26.704-6.016-2.656-0.544-5.472-0.336-8.192-0.48-4.096-0.176-8.208-0.416-12.304-0.464-2.624-0.016-5.28 0.112-7.888 0.416-7.072 0.816-14.128 1.6-21.152 2.736-11.472 1.856-22.752 4.512-32.864 10.672-3.040 1.856-6.192 3.552-9.488 4.896-5.856 2.448-11.408 5.184-15.728 10.112-1.136 1.296-2.944 2.432-4.624 2.736-3.024 0.544-4.736 2.432-6.512 4.576-1.968 2.352-4.064 4.64-6.352 6.704-8.512 7.664-16.576 15.68-23.344 24.992-2.128 2.928-4.864 5.376-7.232 8.144-2.016 2.352-4.064 4.688-5.808 7.232-6.032 8.832-11.84 17.792-17.952 26.592-1.92 2.768-4.32 5.184-6.704 7.584-5.424 5.472-8.688 12.048-10.832 19.392-1.232 4.256-3.296 8.272-4.896 12.416-2.016 5.168-4.112 10.288-5.824 15.552-1.376 4.256-2.384 8.64-3.232 13.008-0.896 4.64-1.344 9.376-2.096 14.032-0.688 4.208-2.064 8.384-2.144 12.592-0.176 7.184 0.096 14.432 0.688 21.584 1.488 18.336 5.056 36.352 9.072 54.288 0.112 0.528 0.144 1.136 0.384 1.584 4.672 7.888 3.872 17.648 8.8 25.408 7.184 23.984 21.616 43.472 38.256 61.584 12.432 13.536 24.672 27.264 37.408 40.512 4.16 4.352 9.632 7.456 14.432 11.2 4.736 3.712 9.36 7.568 14.064 11.28 1.488 1.168 3.040 2.4 4.752 3.072 11.504 4.368 23.056 8.592 34.576 12.848 1.008 0.368 2.128 0.64 3.2 0.592 5.536-0.224 10.704 1.216 15.664 3.392 4.944 2.128 9.712 2.656 14.848 0.464 1.264-0.528 3.568 0.336 4.896 1.264 2.064 1.44 4.112 1.968 6.592 2.144 8.096 0.592 16.192 1.616 24.288 2.224 3.792 0.272 7.664 0.224 11.44-0.176 4.272-0.464 8.272 0.224 11.84 2.4 1.344 0.816 2.032 2.768 3.344 4.688-2.144 0.384-3.552 0.848-4.96 0.864-9.024 0.16-18.064 0.368-27.12 0.224-4.624-0.064-9.232-0.816-13.856-1.296-1.616-0.176-3.264-0.816-4.864-0.704-3.504 0.256-6.272-0.912-9.072-2.928-1.264-0.896-3.776-0.96-5.28-0.368-2.944 1.216-5.44 1.136-8.032-0.624-0.432-0.304-0.96-0.48-1.488-0.592-3.568-0.944-7.136-1.968-10.752-2.752-2.544-0.544-5.152-0.8-7.728-1.136-0.368-0.048-0.8 0.16-1.072 0.016-4.48-2.032-9.040-0.688-13.6-0.656-3.712 0-7.472-1.28-11.072-2.448-6.672-2.176-13.104-6.016-19.888-6.704-12.096-1.232-20.928-9.072-31.44-13.328-9.92-4.032-19.024-9.744-26.8-17.312-0.592-0.576-1.44-1.072-1.664-1.76-1.216-3.824-4.416-5.552-7.344-7.776-4.272-3.216-8.528-6.624-12.208-10.496-5.648-5.968-10.976-12.272-16.144-18.688-2.864-3.552-5.056-7.584-7.68-11.344-4.704-6.72-9.648-13.312-14.24-20.096-2.416-3.616-4.384-7.552-6.464-11.392-4.896-9.072-9.872-18.112-14.544-27.296-1.648-3.216-2.576-6.784-3.712-10.272-2.656-8.352-4.704-16.896-7.888-25.024-4.432-11.408-6.224-23.44-9.168-35.216-2.656-10.592-4.864-21.264-3.84-32.24 1.584-16.528 2.864-33.152 8.704-48.96 0.704-1.92 0.592-4.112 1.056-6.144 0.816-3.52 1.6-7.040 2.768-10.448 1.232-3.584 3.136-6.944 4.272-10.56 4.048-12.832 8.864-25.248 15.728-36.928 6.928-11.792 12.992-24.128 19.664-36.080 1.504-2.72 3.68-5.216 5.952-7.408 3.296-3.2 5.744-6.784 7.296-11.088 0.752-2.096 1.872-4.112 3.024-6.064 1.12-1.872 2.608-3.552 3.712-5.44 7.984-13.952 19.536-24.576 32.24-33.936 7.344-5.392 15.36-9.84 23.136-14.64 1.296-0.8 2.768-1.584 4.256-1.872 6.192-1.216 11.52-4.384 17.088-7.072 9.216-4.416 19.2-5.696 29.2-6.864 9.6-1.12 19.232-1.808 28.656-4.512 4.368-1.232 9.232-0.704 13.872-1.008 1.808-0.112 3.616-0.336 5.392-0.496 5.12 0 10.24 0 15.36 0 4.16 0.368 8.32 0.704 12.48 1.104 12.832 1.184 25.68 2.144 38.464 3.664 15.024 1.776 29.472 6.080 43.68 11.248 13.008 4.752 26.272 8.848 39.056 14.128 10.224 4.208 18.88 11.84 30 14.352 16.784 8.896 32.656 19.072 46.096 32.72 8.784 8.944 16.096 18.912 22.336 29.728 1.424 2.448 2.832 5.024 4.848 6.928 3.248 3.040 5.488 6.592 7.152 10.56 2.016 4.8 4.192 9.552 5.92 14.432 3.2 8.912 6.384 17.888 9.104 26.96 1.056 3.52 0.784 7.424 1.264 11.12 3.024 22.368 6.144 44.704 9.12 67.072 0.624 4.592 0.704 9.264 1.024 13.904 0.064 3.568 0.064 7.040 0.064 10.512zM448.336 399.056c-5.76 4.16-5.824 4.272-4.272 6.512 1.936-1.456 3.872-2.896 5.952-4.464-0.624-0.784-1.12-1.376-1.664-2.064z"></path>
<path d="M80.736 292.688c-2.256-3.040-4.224-5.44-5.952-8.032-2.304-3.472-2.352-7.2 0.224-10.496 5.12-6.512 10.512-12.832 15.728-19.296 1.76-2.192 3.184-4.672 4.944-6.88 1.968-2.496 4.096-4.832 6.176-7.2 0.848-0.96 1.968-1.76 2.56-2.832 5.024-9.328 12.912-16.128 20.784-22.752 12.368-10.432 24.56-21.264 38.048-30.048 15.84-10.336 32.672-19.44 51.52-23.712 11.392-2.592 22.656-5.696 34.16-7.472 7.392-1.136 15.12 0.048 22.656-0.432 11.152-0.704 21.488 2.272 31.808 5.824 1.712 0.592 3.776 0.336 5.664 0.256 5.488-0.272 9.536 2.064 11.504 7.088 0.864 2.192 0.64 4.896 0.624 7.36-0.016 1.328-1.072 2.704-0.912 3.952 0.208 1.552 0.864 3.824 1.936 4.256 1.104 0.464 3.392-0.544 4.368-1.648 1.616-1.776 2.608-4.16 3.872-6.288 2.384-4 4.432-4.064 6.864-0.176 1.648 2.656 4.144 4 7.088 4.752 3.952 1.024 8.096 1.744 11.824 3.36 3.52 1.536 6.656 4.032 9.92 6.128 1.136 0.736 2.176 1.664 3.312 2.4 4.256 2.816 8.56 5.552 12.784 8.384 0.976 0.656 1.872 1.488 2.608 2.4 5.168 6.432 10.512 12.72 15.36 19.392s9.072 13.712 13.6 20.576c7.408 11.184 11.136 23.776 13.6 36.752 0.592 3.088-0.368 6.448-0.64 10.288-3.984-2.24-6.544-4.64-8.512-8-1.216-2.080-3.248-3.776-5.104-5.424-2.864-2.512-6.080-4.624-8.8-7.264-6.992-6.832-13.808-13.84-20.624-20.832-2.656-2.736-4.752-6.176-7.744-8.416-7.152-5.344-14.544-10.48-22.128-15.184-17.696-10.976-37.296-16.464-57.76-19.344-7.408-1.056-14.704-2.944-22.128-3.616-5.872-0.528-11.872 0.176-17.792 0.528-7.936 0.432-15.872 1.024-23.808 1.584-0.8 0.048-1.616 0.256-2.4 0.496-11.456 3.728-22.96 7.36-33.712 12.944-2.176 1.12-4.64 1.6-6.912 2.592-4.416 1.936-8.896 3.776-13.104 6.112-8.944 4.96-17.584 10.48-26.592 15.28-11.184 5.952-20.624 14.16-30.304 22.096-7.2 5.92-14.080 12.192-21.152 18.272-1.232 1.072-2.544 2.192-4.032 2.832-5.024 2.176-9.856 4.48-13.472 9.472zM409.216 252.096c-1.664 3.552-0.336 6.032 3.472 6.752 0.944-3.2-1.168-4.864-3.472-6.752z"></path>
<path d="M317.408 315.168c1.216-4.992 2.608-10.432 3.792-15.968 0.336-1.6-0.048-3.344-0.016-5.024 0-3.456-0.176-6.912 0.224-10.32 0.112-0.912 1.984-2.080 3.216-2.288 3.776-0.656 7.632-0.8 11.408-1.376 10.352-1.584 20.512-3.824 30.272-7.824 5.12-2.096 10.56-3.456 15.824-5.232 1.664-0.576 2.896-0.096 3.216 1.44 0.464 2.336 1.104 4.896 0.544 7.104-1.328 5.44-5.008 9.584-9.488 12.688-12.096 8.368-24.176 16.768-36.64 24.512-5.76 3.568-12.416 5.696-18.72 8.304-0.624 0.256-2.144-0.496-2.496-1.168-0.656-1.264-0.736-2.784-1.168-4.864z"></path>
<path d="M189.488 327.76c-0.64 0.912-1.424 2.224-2.4 3.312-0.432 0.48-1.296 0.624-1.984 0.816-3.728 1.136-6.448 1.056-9.264-2.864-2.272-3.136-6.496-5.376-10.288-6.784-10.88-4.032-20.848-9.648-30.544-15.872-2.896-1.856-5.056-4.208-6.128-7.456-1.168-3.552-2.256-7.104-3.312-10.704-0.64-2.144 0.304-2.976 2.432-2.496 1.504 0.336 3.088 0.64 4.464 1.296 7.872 3.888 16.4 4.832 24.896 5.968 1.808 0.256 3.632 0.336 5.44 0.64 2.384 0.416 4.416 0.048 6.384-1.552 2.176-1.76 4.48-1.328 5.28 1.328 3.472 11.248 9.264 21.424 14.432 31.872 0.272 0.592 0.32 1.264 0.624 2.464z"></path>
</svg>
