<!-- Generated by IcoMoon.io -->
<svg version="1.1" xmlns="http://www.w3.org/2000/svg" width="512" height="512" viewBox="0 0 512 512">
<title>monsters-of-order</title>
<g id="icomoon-ignore">
</g>
<path d="M301.024 0c14.976 2.608 27.408 10.944 40.32 18.080 4.432 2.448 8.144 6.208 12.304 9.184 1.36 0.96 3.136 1.344 4.656 2.112 1.168 0.576 2.624 1.104 3.264 2.080 6.8 10.672 14.656 20.624 20.672 31.872 4.64 8.672 7.12 17.888 9.856 27.12 0.176 0.608 0.384 1.248 0.736 1.744 3.92 5.216 6.080 11.232 8.096 17.344 0.736 2.272 1.712 4.48 2.672 6.64 0.944 2.128 0.336 3.232-1.984 3.792-5.536 1.312-10.864 0.064-16.16-1.264-9.76-2.432-17.344 1.088-23.296 8.592-1.28 1.6-1.52 4.016-2.432 5.968-8.704 18.56 6.048 35.136 21.696 37.712 5.872 0.96 11.6 1.040 17.344-0.816 3.296-1.088 5.776-2.912 7.6-5.856 0.544-0.864 1.824-2.080 2.512-1.92 1.984 0.464 4.576 0.496 5.296 3.056 0.4 1.424 0.608 3.024 0.336 4.48-0.976 5.44-2.16 10.816-3.296 16.208-0.144 0.704-0.32 1.408-0.528 2.112-3.216 10.208-6.464 20.432-9.568 30.688-0.528 1.728-0.736 3.616-0.704 5.392 0.080 3.408-1.952 5.856-3.648 8.432-0.288 0.416-1.792 0.384-2.496 0.032-1.040-0.496-1.904-1.44-2.816-2.224-2.224-1.904-4.528-3.376-7.712-3.328-1.344 0.016-2.848-0.928-4-1.792-2.032-1.568-4.048-2.16-6.48-1.2-1.568 0.608-3.168 1.12-4.752 1.664-4.64 1.584-7.392 4.96-7.184 9.728 0.304 6.864 1.264 13.712 2.112 20.528 0.256 2.032 0.4 4-1.2 5.36-3.168 2.704-4.576 6.496-6.704 9.872-1.040 1.648-2.416 3.312-4.032 4.288-3.888 2.368-8 4.4-12.080 6.448-0.816 0.416-2.336 0.72-2.832 0.288-0.656-0.576-0.688-1.92-0.944-2.944-0.416-1.648-0.688-3.328-1.264-4.896-0.544-1.488-1.248-2.992-2.192-4.24-1.824-2.384-3.808-4.672-5.92-6.8-0.416-0.416-1.904-0.304-2.544 0.096-0.56 0.368-1.040 1.6-0.848 2.224 0.176 0.544 1.344 1.088 2.080 1.088 2.384 0.016 2.976 1.040 2.304 3.216-0.208 0.656-0.032 1.424-0.032 2.144 0.016 0.8 0.384 1.76 0.032 2.368-2.192 4.048-0.48 8.112-0.336 12.176 0.096 2.928-0.384 5.904-0.768 8.832-0.608 4.432-1.216 8.864-2.112 13.264-0.416 2.080-1.52 4.032-2.24 6.064-0.768 2.208-2.416 3.024-4.576 3.264-3.216 0.368-5.152-0.864-5.184-4.096-0.016-3.408 0.56-6.816 1.088-10.208 0.784-5.136 1.872-10.256 2.576-15.408 0.144-1.024-0.848-2.192-1.312-3.264-1.184 0.56-2.496 0.944-3.472 1.728-0.608 0.48-0.608 1.632-1.040 2.368-1.44 2.464-2.752 5.040-4.512 7.264-1.76 2.24-2.864 2.080-5.552 0.304-2.064-1.36-1.808-2.944-1.088-4.992 2.368-6.704 4.816-13.392 6.576-20.272 0.656-2.592 0.096-5.856-0.88-8.448-1.808-4.704-3.792-9.52-6.736-13.504-3.056-4.112-7.088-7.648-12.448-8.976-1.056-0.256-2.192-0.688-3.056-1.344-5.76-4.4-12.176-4.32-18.832-3.024-1.184 0.224-2.384 0.72-3.536 0.608-5.744-0.544-10.032 2.144-13.904 5.904-1.728 1.664-3.552 3.264-5.104 5.104-1.040 1.248-2.16 2.784-2.368 4.336-1.056 7.552-2.144 15.088-2.592 22.672-0.32 5.584 0.976 11.024 4.864 15.472 0.576 0.656 1.264 1.408 1.424 2.192 0.224 1.088 0.208 2.352-0.208 3.344-0.144 0.368-1.744 0.416-2.576 0.176-2.272-0.688-4.448-1.6-6.848-2.512 0 0.944-0.016 1.584 0 2.208 0.128 3.056-0.736 3.872-3.472 2.736-2.576-1.056-5.152-2.304-7.328-4.016-3.248-2.528-4.784-5.92-4.512-10.32 0.256-4.176 1.040-8.464-0.928-12.56-1.952-4.032-7.44-5.744-10.896-2.896-4 3.296-8.032 4.944-12.88 2.128-0.32 2.064-0.528 4-0.928 5.872-0.368 1.632-1.472 2-2.912 1.216-0.768-0.416-1.504-0.896-2.16-1.472-3.616-3.024-7.248-6.064-10.784-9.184-0.928-0.816-1.632-1.968-2.288-3.056-1.008-1.68-1.168-3.104 1.232-3.888 0.688-0.224 1.248-1.152 1.648-1.872 1.76-3.216 3.456-6.464 5.152-9.712 1.664-3.184 3.68-6.24 4.88-9.6 2.368-6.64-2.352-13.232-9.296-13.84-8.672-0.784-16.032 2.112-22.64 7.44-1.904 1.552-6.224 1.248-8.304-0.608-3.776-3.328-7.712-6.528-11.232-10.096-5.136-5.216-8.032-11.808-9.712-18.8-1.568-6.544-2.624-13.2-3.808-19.824-0.464-2.608 0.88-3.936 3.568-3.792 3.696 0.176 7.36 0.304 11.056 0.544 9.136 0.576 15.696-3.712 19.952-11.312 5.616-10.016 7.168-20.624 3.344-31.776-3.072-8.944-14.768-15.488-23.824-13.024-3.856 1.040-7.648 2.352-11.312 3.888-4.256 1.792-6.768 0.48-7.008-4.128-0.16-3.008-0.496-6.048-0.224-9.008 0.256-2.752 0.96-5.536 1.952-8.128 3.344-8.832 6.704-17.664 10.432-26.336 4.016-9.248 9.376-17.696 16.576-24.88 2.144-2.144 4.256-4.4 6.064-6.848 7.024-9.52 16.16-16.384 26.432-21.952 9.44-5.136 18.8-10.368 28.224-15.568 0.768-0.416 1.568-0.848 2.416-1.088 4.992-1.44 9.44-3.952 13.552-7.088 1.584-1.2 3.408-1.552 4.944-0.464 2.24 1.6 4.336 3.536 6.224 5.552 1.392 1.504-0.24 2.304-1.328 2.848-3.872 1.92-6.4 5.024-8.032 8.912-2.544 6.064-2.144 12.128 0.688 17.92 0.896 1.84 2.624 3.408 4.256 4.8 2.784 2.384 5.744 4.608 8.736 6.736 5.776 4.16 12.368 6.16 19.392 6.256 7.632 0.096 15.2-0.608 22.272-3.952 3.104-1.488 5.712-3.392 7.872-6.128 6.528-8.304 9.6-17.488 7.68-28.080-0.608-3.312-2.080-5.984-4.688-8.128-2.656-2.192-5.184-4.528-8.112-7.12 2.224-1.104 3.408-1.664 4.592-2.208 4.656 0 9.312 0 13.968 0zM313.28 270.896c1.424-0.56 2.944-0.768 3.792-1.632 0.8-0.8 1.408-2.496 1.104-3.472-0.288-0.864-1.904-1.632-3.008-1.744-0.544-0.064-1.584 1.36-1.808 2.272-0.32 1.328-0.080 2.816-0.080 4.576zM137.76 117.488c-0.72 0.080-1.52-0.080-1.952 0.24-0.656 0.528-1.088 1.392-1.6 2.080 0.656 0.384 1.328 1.040 2.032 1.104 1.088 0.080 2.24-0.144 3.296-0.464 0.48-0.144 1.168-0.848 1.136-1.264-0.016-0.496-0.608-1.12-1.104-1.408-0.544-0.288-1.248-0.224-1.808-0.304zM153.696 222.688c1.328 1.328 1.6 1.28 3.76-0.528-1.568-1.952-1.824-1.904-3.76 0.528z"></path>
<path d="M194.576 512c-5.264-3.232-6.496-7.232-4.88-13.344 3.296-12.464 6.4-24.992 9.376-37.536 1.44-6.064 2.544-12.224 3.456-18.4 0.4-2.816-0.096-5.76-0.176-8.624-0.016-0.96-0.064-1.92-0.064-2.896 0.016-2.848 1.28-5.2 3.088-5.776 2.064-0.656 5.12 0.624 6.624 2.928s2.784 4.672 4.288 6.944c2.368 3.552 4.576 3.6 7.168 0.224 3.328-4.288 5.504-9.136 7.2-14.288 1.104-3.328 3.136-6.416 5.056-9.408 1.28-1.984 3.552-1.744 5.456-0.944s1.28 2.592 0.976 4.016c-0.784 3.936-1.68 7.824-2.576 11.728-1.104 4.832-4.16 8.416-7.728 11.632-0.544 0.48-1.28 0.848-1.6 1.44-0.528 1.008-0.784 2.128-1.168 3.216 1.056 0.368 2.192 1.152 3.184 1.008 1.968-0.256 3.84-1.12 5.776-1.584 2.576-0.624 5.136-1.168 7.744-1.632 1.584-0.288 3.392-0.064 3.792 1.68s-0.128 3.52-1.888 4.736c-2.896 2-5.744 4.096-8.432 6.368-1.712 1.424-3.216 3.136-4.64 4.864-5.2 6.208-10.352 12.464-15.488 18.72-1.12 1.36-2.192 2.768-3.136 4.24-5.984 9.312-11.904 18.64-17.904 27.936-0.688 1.040-1.728 1.84-2.608 2.752-0.304 0.016-0.624 0.016-0.944 0.016zM201.664 480.8c-1.68 2.064-2 4.48-1.904 6.976 0.016 0.64 0.464 1.248 0.72 1.888 0.704-0.304 1.568-0.448 2.064-0.944 1.328-1.312 0.736-6.416-0.88-7.92z"></path>
<path d="M270.88 244.416c4.128 1.36 8.784 2.16 12.096 5.504 4.864 4.912 8.432 10.656 9.92 17.568 2.384 11.136-3.184 20.736-14.144 23.76-1.984 0.544-2.384 1.488-2.272 3.216 0.176 2.416-0.224 4.48-2.288 6.224-0.96 0.8-1.408 2.496-1.632 3.856-0.736 4.672-0.928 9.456-1.968 14.048-1.488 6.464-3.536 12.8-5.44 19.168-0.176 0.576-1.088 1.216-1.728 1.328-4.432 0.688-8.208-2.528-8.112-7.040 0.032-2.144 0.576-4.272 1.008-6.4 1.52-7.44 3.056-14.912 4.656-22.336 0.336-1.632 0.8-3.264 1.424-4.816 1.424-3.616 0.736-5.664-2.592-7.632-7.584-4.512-12.4-11.36-14.976-19.568-2.896-9.264 2.832-19.424 12.208-22.736 3.392-1.2 6.816-2.304 10.256-3.392 1.088-0.32 2.208-0.464 3.568-0.72z"></path>
<path d="M114.368 324.528c0.784-5.104 2.24-10.208 5.472-14.672 0.656-0.896 1.312-1.824 1.984-2.704 1.52-1.968 1.632-3.936 0.64-6.288-1.36-3.232-2.512-6.576-3.472-9.952-0.368-1.28-0.256-2.848 0.080-4.176 1.664-6.736 5.104-12.56 9.536-17.856 2.608-3.136 5.136-6.368 7.712-9.536 0.256-0.32 0.48-0.64 0.784-0.896 1.52-1.328 3.072-2.816 5.312-1.872 1.472 0.624 2.048 3.616 1.040 5.936-1.088 2.496-2.496 4.832-3.712 7.264-2.384 4.72-4.944 9.344-7.008 14.208-1.056 2.512-1.36 5.376-1.664 8.128-0.208 1.76 0.88 2.368 2.672 1.744 1.328-0.48 2.736-0.88 4.128-0.976 1.584-0.128 2.144 0.896 1.648 2.368-0.256 0.736-0.688 1.44-1.088 2.128-3.072 5.36-6.144 10.704-9.216 16.048-2.944 5.136-4.432 10.576-3.968 16.56 0.16 2.048-0.064 4.176-0.48 6.208-0.496 2.384-2.288 3.056-4.368 1.84-0.688-0.4-1.472-0.88-1.824-1.52-2-3.712-4-7.408-4.208-11.984z"></path>
<path d="M316.784 348.432c0.656-1.344 1.632-2.624 1.92-4.048 0.8-3.84 1.056-7.808 2.048-11.584 2.224-8.592 4.8-17.104 7.152-25.648 0.48-1.76 1.52-2.512 3.184-2.736 3.264-0.448 5.504 2.224 4.112 5.28-0.928 2.048-1.024 3.92-0.464 6.016 0.288 1.008 0.032 2.224-0.24 3.264-1.216 4.48-2.672 8.896-3.792 13.408-0.784 3.152-1.184 6.4-1.744 9.616-1.056 6.144-3.328 11.392-9.84 13.6-2.976 1.008-4.88 3.072-5.616 6.080-1.328 5.28-2.528 10.576-3.776 15.872-0.32 1.328-0.496 2.688-0.944 3.952-0.88 2.576-3.008 3.264-5.36 1.824-2.816-1.744-3.248-4.416-2.752-7.36 1.104-6.48 2.448-12.912 3.392-19.408 0.56-3.872 0.528-7.824 0.784-11.744 0.064-0.784 0.16-1.6 0.416-2.352 0.784-2.272 2.976-3.648 5.232-3.376 2.512 0.32 3.024 2.24 3.52 4.272 0.4 1.648 0.944 3.232 1.424 4.864 0.448 0.048 0.88 0.128 1.328 0.176z"></path>
<path d="M179.824 390.864c-0.464 0.864-0.784 1.824-1.408 2.544-2.448 2.832-4.576 3.152-6.768 1.168-3.312-2.992-3.712-6.256-1.28-9.008 2.064-2.32 4.112-4.672 5.92-7.2 6.576-9.104 9.696-19.264 8.592-30.544-0.16-1.584 0.176-2.848 1.648-3.68 2.288-1.28 3.728-0.848 4.8 1.584 2.512 5.712 1.952 11.6 0.784 17.488-0.448 2.272-1.040 4.512-1.44 6.8-0.4 2.384-0.896 4.64-2.736 6.496-2.064 2.128-1.728 4.096 0.656 5.84 2.992 2.192 4.016 4.864 3.072 8.384-2.272 8.512-5.104 16.784-11.76 23.024-1.312 1.216-2.928 2.064-4.4 3.136-0.96 0.688-1.952 1.36-2.848 2.144-2.080 1.808-3.92 0.768-5.632-0.528-1.824-1.344-3.184-3.168-2.464-5.52 0.288-0.928 1.584-1.888 2.608-2.144 5.216-1.312 8.416-4.72 10.56-9.392 1.056-2.32 2.24-4.608 3.232-6.976 0.32-0.784 0.16-1.792 0.24-2.688-0.448-0.32-0.896-0.624-1.36-0.928z"></path>
<path d="M143.52 278.896c0.128-0.736 0.144-2.16 0.608-3.408 2.656-6.976 3.072-14.368 4.24-21.616 0.288-1.744 0.976-3.552 1.904-5.056 2.144-3.472 4.432-6.864 6.928-10.096 3.472-4.496 7.952-7.648 13.664-8.704 0.944-0.176 1.904-0.256 2.864-0.24 2.464 0.080 4.256 1.312 5.344 3.488 1.088 2.208 0.576 4.32-1.040 5.984-1.488 1.552-3.184 2.912-4.896 4.24-2.032 1.584-3.616 3.312-3.696 6.128-0.016 0.96-0.688 1.952-1.184 2.832-3.872 6.72-7.904 13.36-11.648 20.176-1.328 2.416-1.952 5.2-2.928 7.792-0.768 2-1.44 4.080-2.464 5.936s-3.072 2.032-4.688 0.496c-2.112-1.952-3.008-4.448-2.992-7.92z"></path>
<path d="M392.416 257.504c-0.576 2.304-1.056 4.736-1.824 7.072-0.8 2.496-1.888 4.896-2.784 7.36-0.816 2.208-5.712 5.776-8.112 5.76-0.528 0-1.28-0.16-1.52-0.528-2.192-3.184-5.584-5.264-5.216-10.368 0.704-9.632-2.384-18.8-6.176-27.616-1.792-4.176-1.152-6.32 3.104-8.128 2.208-0.928 4.512-1.68 6.864-2.128 1.008-0.208 2.432 0.256 3.248 0.944 4.976 4.048 8.576 9.024 9.856 15.472 0.784 3.968 1.664 7.952 2.576 12.16z"></path>
<path d="M213.2 275.408c-1.872 9.712-0.704 19.712-4.288 29.168-2.848 7.52-4.672 15.44-7.088 23.136-0.928 2.992-2.032 3.344-4.864 2.208-3.968-1.632-6.144-7.824-4.64-11.824 2.464-6.48 4.72-13.072 6.768-19.68 0.96-3.088 1.12-6.416 1.824-9.616 1.184-5.296 2.496-10.576 3.856-15.84 0.464-1.744 3.184-2.736 5.792-2.208 2.752 0.544 2.432 2.784 2.624 4.656z"></path>
<path d="M179.504 359.712c-4.32-2.304-5.536-6.416-6.56-10.656-0.224-0.928-0.16-1.952-0.48-2.832-1.6-4.4-1.184-8.736-0.080-13.168 0.608-2.384 0.56-4.96 1.2-7.328 0.864-3.216 1.872-6.448 3.248-9.472 1.328-2.896 3.184-5.536 4.832-8.288 0.24-0.416 0.496-0.816 0.816-1.184 1.424-1.712 4.496-2.528 6.096-1.648 1.568 0.864 2.432 3.968 1.504 6.080-0.896 2.048-1.968 4.032-3.088 5.968-4.432 7.568-5.984 16.032-7.152 24.512-0.496 3.616 0.64 7.44 1.024 11.2 0.24 2.304 0.736 4.656-1.392 6.816z"></path>
<path d="M235.632 354.352c1.104-6.816 1.92-13.424 3.296-19.904 1.168-5.456 4.208-10.016 8.464-13.648 0.944-0.8 2.384-1.36 3.632-1.408 2.928-0.096 4.288 1.84 3.232 4.592-1.68 4.4-3.632 8.704-5.296 13.12-0.56 1.44-0.656 3.072-0.928 4.64-0.736 4.208-1.488 8.448-2.224 12.656-0.208 1.168-0.528 2.32-0.624 3.52-0.144 1.584 0.24 3.328-0.288 4.752-0.496 1.328-1.68 2.848-2.928 3.328-1.664 0.624-2.688-1.008-3.232-2.512-1.104-3.088-2.112-6.176-3.104-9.152z"></path>
<path d="M396.576 277.792c-1.264 5.040-2.192 9.52-3.552 13.872-1.872 5.936-4.048 11.776-6.16 17.664-1.552 4.32-5.344 6.064-9.168 7.488-2.592 0.96-6.944-3.296-6.256-6 0.208-0.784 1.088-1.6 1.872-1.984 2.512-1.216 4.112-2.992 4.352-5.856 0.048-0.464 0.256-0.928 0.448-1.36 2.048-4.832 3.952-9.76 6.224-14.512 1.712-3.6 3.68-7.088 5.904-10.368 0.64-0.944 2.656-1.504 3.888-1.344 1.008 0.16 1.792 1.712 2.464 2.432z"></path>
<path d="M241.264 391.504c0.576-2.816 1.104-6.928 2.304-10.816 2.24-7.344 4.88-14.576 7.392-21.84 0.656-1.904 1.28-3.808 4.080-3.44 3.328 0.464 4.176 1.52 3.952 4.944-0.608 9.616-2.592 18.848-6.864 27.552-0.656 1.328-0.784 2.928-1.152 4.4-0.16 0.624-0.208 1.264-0.4 1.872-0.816 2.736-3.072 4.368-5.472 4.080-2.464-0.32-3.872-2.32-3.84-6.736z"></path>
<path d="M370.464 301.792c-0.32 2.528-1.088 5.104-0.896 7.584 0.304 4.016-0.608 7.632-1.888 11.36-2.128 6.128-3.728 12.4-5.584 18.624-0.288 0.928-0.544 1.872-0.976 2.688-1.84 3.536-4.208 3.728-6.576 0.528-1.952-2.656-3.168-5.136-2.24-8.944 1.312-5.424 3.008-10.576 5.456-15.552 2.416-4.88 4.592-9.856 7.024-14.736 0.656-1.312 1.648-2.592 2.816-3.456 1.424-1.024 3.136 0.16 2.896 1.904z"></path>
<path d="M139.104 338.368c-1.84 7.184-3.76 15.168-6 23.056-0.768 2.704-3.168 4.336-5.744 5.472-1.792 0.8-3.248 0.336-4.496-1.104-2.656-3.136-2.352-4.24-0.64-8.032 2.496-5.52 4.368-11.296 6.384-17.024 1.472-4.176 2.432-8.432 0.896-12.88-0.336-0.976-0.080-3.136 0.304-3.232 1.312-0.32 2.992-0.4 4.112 0.208 1.312 0.704 2.688 2.048 3.136 3.408 0.928 2.976 1.28 6.096 2.048 10.112z"></path>
<path d="M354.080 378.336c-1.424-0.8-2.576-1.248-3.424-2-1.568-1.424-1.344-3.232 0.624-4 4.336-1.664 6.224-4.912 6.928-9.296 0.256-1.632 0.896-3.248 1.712-4.704 3.168-5.744 3.84-12.16 5.216-18.384 0.416-1.92 1.056-3.856 1.888-5.632 0.848-1.872 2.576-2.352 4.48-1.824 1.52 0.416 3.184 3.264 2.896 4.736-1.344 6.896-2.592 13.824-4.112 20.688-1.328 6-4.352 11.232-8.576 15.6-2.032 2.112-5.040 3.248-7.6 4.816z"></path>
<path d="M279.536 325.44c-0.384 5.536-0.288 11.152-1.312 16.576-1.12 6.016-3.232 11.84-5.040 17.728-0.656 2.128-1.504 4.24-2.576 6.176-0.496 0.928-1.744 2.032-2.656 2-0.864-0.016-2.064-1.2-2.496-2.16-1.168-2.704-1.84-5.504-0.976-8.592 2.048-7.408 3.92-14.848 5.744-22.304 0.304-1.248 0.288-2.688 0-3.952-0.72-3.312 0.4-6.16 2.448-8.432 0.864-0.944 3.088-1.12 4.56-0.88 1.872 0.304 2.304 2.048 2.288 3.84z"></path>
<path d="M365.728 268.224c2.752 0.064 4.72 3.968 3.088 6.368-5.184 7.6-4.336 16.72-6.608 25.040-0.736 2.768-1.008 5.664-1.488 8.512-0.336 2.032-1.632 2.592-3.312 1.824-1.344-0.608-3.216-1.424-3.568-2.544-0.96-3.024-2.080-6.4-1.632-9.392 1.056-6.864 3.104-13.552 4.64-20.352 0.976-4.4 4.032-6.96 7.552-9.168 0.464-0.288 1.104-0.24 1.328-0.288z"></path>
<path d="M321.36 376.24c-0.944 4.976-1.888 9.376-2.608 13.792s-1.392 8.848-1.84 13.312c-0.56 5.456-6.88 11.664-12.304 11.632-1.184 0-2.528-0.576-3.52-1.28-2.032-1.44-1.728-3.376 0.64-4.016 3.936-1.056 5.808-3.776 6.48-7.504 1.744-9.536 3.392-19.072 5.216-28.576 0.24-1.248 1.184-3.232 1.968-3.312 1.216-0.128 2.944 0.784 3.84 1.792 1.12 1.216 1.584 3.024 2.128 4.176z"></path>
<path d="M195.216 355.12c0.208-0.384 0.608-1.216 1.056-2.032 1.104-1.872 2.368-3.616 3.312-5.552 2.16-4.448 4.432-8.864 6.128-13.504 1.232-3.328 1.552-7.008 2.336-10.512 0.256-1.168 0.544-2.352 0.976-3.456 0.88-2.144 3.072-2.464 4.256-0.544 1.392 2.24 2.496 4.656 3.648 7.024 0.16 0.304 0.144 0.768 0.064 1.12-0.576 2.736-1.184 5.44-1.824 8.144-0.208 0.864-0.4 1.744-0.784 2.512-2.432 4.784-4.512 9.792-7.552 14.176-1.968 2.832-5.2 4.864-8.128 6.88-1.664 1.152-3.52-0.896-3.488-4.256z"></path>
<path d="M96 344.336c0.224-8.528 2.672-14.976 6.608-20.864 0.784-1.168 1.888-2.272 3.104-2.912 1.152-0.576 2.608-0.496 3.952-0.72 0.224 1.472 1.152 3.376 0.544 4.288-3.312 4.992-2.752 10.752-3.712 16.208-1.056 6.016-1.648 12.064-0.144 18.096 0.128 0.464 0.096 0.96 0.080 1.44-0.128 2.912-1.504 3.68-4.016 2.208-2.624-1.52-4.56-3.712-5.056-6.704-0.704-4.096-1.024-8.256-1.36-11.056z"></path>
<path d="M165.472 283.968c-0.336 1.152-0.736 2.672-1.264 4.176-0.64 1.808-1.264 3.632-2.080 5.344-0.768 1.552-1.552 3.184-2.736 4.416-3.792 3.92-7.632 7.808-11.728 11.392-2.752 2.416-5.92 4.352-8.944 6.448-1.312 0.896-2.368 0.464-3.232-0.848-2.384-3.648-1.68-5.856 2.448-7.744 1.216-0.56 2.512-1.2 3.44-2.144 3.92-4 7.808-8.048 11.536-12.224 2.864-3.232 3.536-7.472 4.496-11.52 0.496-2.112 0.768-4.192 3.68-4.048 2.576 0.128 3.152 2.144 3.92 3.952 0.288 0.72 0.256 1.568 0.48 2.816z"></path>
<path d="M148.864 397.824c0.64-6 2.048-11.36 6.208-15.6 2.576-2.624 5.024-5.424 7.872-7.712 1.664-1.328 3.968-1.968 6.080-2.576 0.768-0.224 2.224 0.336 2.608 0.976 0.384 0.656 0.128 2.048-0.368 2.816-1.28 2.112-2.864 4.048-4.272 6.096-1.904 2.768-3.856 5.52-5.664 8.352-2.224 3.456-3.088 7.248-3.232 11.376-0.080 2.352-1.2 4.736-2.144 6.976-0.768 1.824-2.192 1.488-3.152 0.128-2.384-3.328-3.696-7.088-3.936-10.864z"></path>
<path d="M299.024 368.864c-4.032 1.12-4.032 4.192-4.336 7.44-0.976 10.464-2.208 20.864-3.472 31.28-0.336 2.848-1.984 3.44-4.4 1.792-2.464-1.664-3.632-4-3.344-6.976 0.864-8.688 1.712-17.376 2.608-26.064 0.528-5.024 4.528-8.736 9.52-8.784 1.088-0.016 2.16 0.448 3.248 0.704 0.064 0.208 0.128 0.4 0.176 0.624z"></path>
<path d="M259.216 382.432c2.672-0.064 4.672 2.048 4.352 4.080-1.312 8.096-1.216 16.496-5.536 23.936-1.424 2.464-2.032 5.392-3.248 8-0.896 1.92-2.144 3.728-3.408 5.456-0.928 1.248-2.24 1.92-3.76 0.784-1.488-1.152-2.464-2.432-1.552-4.512 1.632-3.648 3.408-7.264 4.576-11.072 1.632-5.424 2.736-10.992 4.096-16.48 0.624-2.496 1.168-5.024 2.128-7.36 0.496-1.28 1.792-2.192 2.352-2.832z"></path>
<path d="M238.464 379.728c-0.448 1.216-0.768 2.448-1.312 3.568-2 4.096-4.096 8.176-6.176 12.224-2.192 4.24-3.184 8.672-2.736 13.472 0.224 2.304 0.128 4.656 0.032 6.96-0.080 2.576-2.416 4.096-4.432 2.592-1.6-1.2-3.136-3.136-3.648-5.024-1.424-5.024-0.8-10.048 1.632-14.704 2.832-5.392 5.792-10.72 8.784-16.016 1.632-2.848 3.952-3.728 7.84-3.072z"></path>
<path d="M342.24 375.376c-7.584-2.064-10.448-7.024-8.512-14.464 1.344-5.104 2.496-10.256 3.92-15.328 0.608-2.144 1.584-4.176 2.544-6.208 0.896-1.888 3.008-2.672 4.816-1.888 2.032 0.88 1.84 2.496 1.392 4.256-1.28 4.8-2.416 9.632-3.728 14.416-1.392 5.024-1.472 9.952 0.288 14.864 0.56 1.568 0.816 3.104-0.704 4.352z"></path>
<path d="M296.224 333.52c0.096-6.8 1.216-13.344 4.192-19.552 1.408-2.912 3.952-3.52 6.784-2.784 2.432 0.624 3.552 2.784 2.112 4.816-3.792 5.312-3.248 11.584-4.432 17.456-0.624 3.136-1.168 6.304-2.144 9.312-0.816 2.528-2.144 2.656-4.048 0.72-2.432-2.464-2.416-5.616-2.448-8.768 0-0.4 0-0.8 0-1.2z"></path>
</svg>
