<!-- Generated by IcoMoon.io -->
<svg version="1.1" xmlns="http://www.w3.org/2000/svg" width="512" height="512" viewBox="0 0 512 512">
<title>monsters-of-order</title>
<g id="icomoon-ignore">
</g>
<path d="M518.032 369.248c-2.656 4.256-3.44 4.32-8.064 2-9.712-4.832-17.824-11.424-24.64-19.968-4.432-5.552-10.16-10.048-14.832-15.408-5.424-6.208-10.32-12.88-15.488-19.312-4.432-5.488-8.912-10.928-13.456-16.32-1.712-2-2.784-1.952-4.176 0.4-4.448 7.536-8.784 15.136-13.152 22.736-0.832 1.424-1.44 2.944-2.384 4.256-1.744 2.4-3.888 2.656-6.224 0.784-0.784-0.656-1.632-1.328-2.192-2.176-4.128-6.224-8.4-12.368-12.272-18.736-3.040-4.992-5.712-10.192-8.32-15.424-1.616-3.2-2.864-6.608-4.224-9.936-0.768-1.92-0.208-3.552 1.712-4.224 4-1.488 5.872-4.608 7.536-8.256 5.952-12.992 11.808-26 14.832-40 1.072-4.992 0.992-10.24 1.456-15.584 4.288 1.328 6.544 4.656 8.384 8.592 3.568 7.6 7.056 15.296 11.040 22.688 2.176 4.048 5.328 7.552 8.048 11.296 0.4 0.544 0.928 1.040 1.504 1.392 2.656 1.68 4.768 0.88 5.328-2.208 0.576-3.168 1.776-5.84 4.24-8 0.72-0.624 1.040-1.744 1.44-2.672 0.896-1.984 2.288-3.264 4.56-3.12 2.192 0.16 3.616 1.712 3.824 3.664 1.168 12.112 7.552 22.016 13.632 31.968 6.928 11.376 11.552 23.776 16.976 35.824 7.936 17.632 16.16 35.12 24.272 52.672 0.176 0.384 0.432 0.736 0.656 1.072 0 0.672 0 1.344 0 2.048zM461.152 294.912c0.368-0.064 0.736-0.16 1.12-0.224-0.112-1.264-0.192-2.544-0.288-3.808-1.232 0.224-2.464 0.48-3.664 0.72 0.016 0.288 0.048 0.544 0.064 0.832 0.896 0.832 1.824 1.664 2.768 2.496z"></path>
<path d="M249.312 504c-4.432-2.544-5.104-3.92-4.512-8.944 1.504-12.8 2.896-25.616 4.512-38.432 1.424-11.248 3.104-22.464 4.56-33.712 0.56-4.304 0.832-8.656 1.216-12.992 0.208-2.672-1.552-4.064-3.776-3.872-7.888 0.752-15.744-1.952-23.632 0.128-2.784 0.752-5.392-0.256-7.056-2.656-1.744-2.48-1.152-5.104 0.224-7.552 4.496-8.032 9.104-15.984 13.6-24.016 2.048-3.664 4.32-7.296 5.792-11.184 2.544-6.656 7.584-9.712 14.112-10.32 4.128-0.384 7.888-1.456 11.536-3.312 2.72-1.376 5.28-1.568 8.144-0.176 2.736 1.328 5.616 1.312 8.48 0 0.96-0.432 2.16-0.448 3.264-0.512 1.216-0.064 2.48 0.272 3.6 0 5.424-1.344 10.112 0.832 14.896 2.768 1.040 0.4 2.064 0.848 3.12 1.2 3.856 1.28 5.68 3.952 5.456 7.984-0.192 3.008-1.552 4.176-4.496 3.872-0.336-0.048-0.672-0.112-1.008-0.176-6.656-1.536-7.168-1.28-10.224 5.008-1.376 2.864-2.672 5.76-4 8.64-3.248 6.928-3.152 14.144-1.936 21.456 0.336 2.128 1.504 3.168 3.552 2.544 2.928-0.896 5.84-1.984 8.656-3.184 4.368-1.888 7.84-0.4 8.736 4.224 0.224 1.136-0.176 2.784-0.928 3.664-3.952 4.496-6.912 9.536-9.376 15.024-1.424 3.168-4.176 5.776-6.384 8.56-1.104 1.392-2.672 2.512-3.488 4.048-4.976 9.12-9.84 18.304-14.656 27.52-5.168 9.888-10.256 19.808-15.28 29.776-1.344 2.672-2.432 5.504-3.536 8.32s-2.672 5.152-5.568 6.336c-1.216 0.016-2.4 0.016-3.616 0.016zM230.224 393.456c-1.104 1.44-1.664 2.176-2.48 3.216 1.312 1.056 2.496 2.064 3.776 2.928 0.128 0.096 1.376-1.040 1.28-1.232-0.656-1.552-1.552-2.992-2.608-4.928z"></path>
<path d="M190.592 277.008c1.568-1.984 3.056-1.712 4.544-0.368 1.568 1.44 3.28 2.176 5.376 1.312 0.544-3.808-1.984-7.824-5.472-8.768-3.552-0.944-7.008-2.224-10.88-1.104-0.928 0.288-2.512-0.88-3.488-1.712-1.2-1.056-1.984-2.624-3.168-3.712-1.072-0.992-2.496-1.616-3.776-2.384-0.288-0.176-0.688-0.176-0.944-0.384-5.92-4.56-12.16-8.912-13.312-17.168-0.144-1.104-0.176-2.32-0.656-3.28-2.496-4.72-1.888-9.44-0.608-14.304 0.784-2.992 1.344-6.048 1.824-9.088 0.656-4.048 1.536-8 4.128-11.264 4.736-5.872 7.408-12.464 7.872-20.048 0.208-3.664 1.488-7.264 1.712-10.928 0.32-4.864 0.176-9.76 0.128-14.688-0.128-13.856-0.288-27.68-0.512-41.536-0.048-2.32-0.288-4.624-0.48-6.944-0.944-10.992 1.712-21.168 7.152-30.624 3.28-5.712 6.72-11.328 10.16-16.96 0.656-1.056 1.536-2.112 2.544-2.816 8.976-6.384 18-12.72 26.992-19.024 0.56-0.384 1.152-0.8 1.776-1.056 10.448-4 18.928-11.136 27.984-17.36 5.792-3.984 10.944-8.816 17.6-11.6 4.704-1.984 9.44-3.376 14.48-3.264 20 0.432 38.176 5.776 52.912 20.112 2.768 2.72 5.6 5.376 8.496 7.92 2.32 2.016 4.976 3.68 7.216 5.776 3.056 2.864 6.224 5.76 8.72 9.088 4.88 6.544 9.12 13.6 14.080 20.048 5.184 6.752 7.12 14.432 7.488 22.576 0.288 6.32-0.192 12.688-0.32 19.072-0.048 1.984-0.064 3.952-0.096 5.936-0.064 7.488 0.192 14.976-0.224 22.448-0.624 11.296 0.768 22.416 3.104 33.296 1.456 6.832 4.768 13.472 8.064 19.728 4.512 8.528 5.648 17.792 7.392 26.944 0.176 0.944-0.16 2.048-0.432 3.040-4.544 15.584-11.616 30.112-18.192 44.864-0.88 2-2.608 3.344-4.672 3.072-6.496-0.896-12.576 1.216-18.832 2.048-2.976 0.4-6 0.768-8.992 0.688-3.6-0.048-5.424 1.888-6.944 4.736-1.28 2.368-2.736 4.656-4.352 6.816-1.632 2.192-1.424 6.928 1.072 8.992 2.56 2.112 2.496 4.368 2.064 7.344-1.488 10.272-5.504 19.84-8.208 29.744-1.344 4.896-4.064 8.8-8.256 11.808-1.6 1.152-2.832 1.104-4.128-0.048-2.592-2.224-4.048-5.040-4.128-8.544-0.064-2.496-0.176-4.992-0.448-7.44-0.32-2.72-2.064-3.44-4.32-1.744-1.92 1.44-3.744 3.040-5.504 4.672-2.88 2.656-5.968 3.28-9.44 1.312-2.224-1.28-3.952-1.12-5.376 1.312-1.152 1.92-3.216 1.856-5.104 1.424-1.936-0.432-2.8-1.92-2.896-3.824-0.288-4.784-0.88-9.536 0.928-14.288 1.040-2.72-2.4-10.096-4.912-11.68-1.664-1.056-3.152-0.544-3.952 0.992-3.552 6.592-5.792 13.424-3.488 20.976 1.232 4.032-0.368 6.192-4.544 6.192-0.688 0-1.392 0.016-2.064-0.096-5.104-0.896-9.984-0.576-14.832 1.568-2.896 1.28-4.336 0.432-5.92-2.336-2.16-3.824-4.24-7.664-6.4-11.488-0.496-0.88-1.040-1.856-1.808-2.48-0.656-0.512-1.744-0.928-2.496-0.768-0.512 0.112-1.008 1.28-1.104 2.048-0.336 3.536-0.064 6.928 1.424 10.32 1.168 2.624 1.488 5.616 2.176 8.448 0.384 1.6 1.008 3.152 1.104 4.752 0.064 1.104-0.288 2.48-0.96 3.312-1.44 1.776-3.28 3.248-4.848 4.944-2.656 2.928-5.312 3.12-8.256 0.448-3.216-2.88-4.72-6.72-4.832-10.8-0.256-8.944-3.232-17.376-4.432-26.112-1.424-10.352-5.984-18.896-12.384-26.768-2.928-3.712-5.92-7.504-9.040-11.424zM351.296 197.84c-6.208 2.192-13.536 3.952-19.92 8.272-1.776 1.216-3.984 1.744-6 2.608-1.168 0.496-2.688 0.688-3.376 1.568-4 5.056-9.2 8.384-14.992 10.992-0.72 0.336-1.744 1.744-1.552 2.224 1.632 4.112 2.48 8.656 6.048 11.76 5.344 4.672 11.328 7.392 18.592 6.832 1.216-0.096 2.432 0.192 3.616 0 3.488-0.576 7.216-0.72 10.368-2.128 5.68-2.592 11.104-5.808 16.48-9.056 4.656-2.832 7.648-7.056 9.312-12.256 0.656-2.048 0.448-3.824-0.88-5.568-2.656-3.504-5.152-7.104-7.792-10.592-2.224-2.88-5.184-4.432-9.888-4.672zM224.784 240c0-0.064-0.016-0.16-0.016-0.224 4.096-0.384 8.272-0.48 12.288-1.28 3.792-0.752 7.424-2.272 11.104-3.488 0.16-0.048 0.272-0.224 0.384-0.32 2.336-2.16 4.72-4.256 7.056-6.432 1.616-1.488 1.312-2.8-0.448-3.952-2.016-1.312-3.952-2.72-6-4-6.336-3.936-12.752-7.776-19.056-11.744-3.552-2.224-7.232-4.368-10.48-7.008-4.448-3.664-11.776-3.808-15.824 0.336-4.096 4.192-6.912 9.232-8.448 14.864-0.288 1.12 0.16 2.784 0.832 3.776 2.176 3.072 4.656 5.952 7.008 8.912 5.44 6.864 13.76 7.936 21.312 10.528 0.112 0.064 0.176 0.048 0.272 0.048zM295.2 280.144c-0.496-2.048-0.832-3.552-1.232-5.040-0.4-1.568-1.056-3.104-1.2-4.704-0.624-6.832-1.28-13.68-1.632-20.512-0.384-7.328-2.976-12.656-11.056-13.648-0.4-0.048-0.832-0.448-1.2-0.384-0.832 0.128-2.176 0.192-2.4 0.72-0.992 2.112-1.984 4.368-2.336 6.64-0.832 5.232-1.232 10.544-1.888 15.792-0.288 2.368-1.248 4.72-1.168 7.088 0.176 3.936-0.432 7.648-1.744 11.312-0.88 2.48 0.56 3.936 3.056 3.104 1.040-0.336 1.776-1.456 2.688-2.192 1.6-1.264 3.168-2.512 4.848-3.648 0.4-0.272 1.488-0.208 1.824 0.128 3.552 3.552 8.336 3.776 13.488 5.328zM183.632 168c-1.92 2.656-4.448 14.928-3.792 17.872 3.376-0.928 6.528-15.072 3.792-17.872zM288.96 44.352c-1.888 2.176-0.928 9.184 1.328 10.88 2.272-2.336 1.504-9.104-1.328-10.88zM220.576 83.824c-2.544 1.872-2.832 9.232-0.496 10.816 1.824-2.224 2.208-8.544 0.496-10.816z"></path>
<path d="M97.824 263.44c1.776-1.312 3.168-1.936 3.984-3.008 7.216-9.632 14.48-19.2 21.328-29.104 3.168-4.56 6.432-8.816 10.64-12.496 2.864-2.512 5.152-5.68 7.648-8.592 0.928-1.072 1.744-2.224 2.88-3.712 0.368 1.040 0.72 1.552 0.72 2.064 0.048 5.392 0.096 10.8 0.016 16.208 0 0.72-0.544 1.424-0.864 2.112-0.368 0.768-0.992 1.488-1.168 2.272-1.344 6.432-2.688 12.864-3.824 19.312-0.176 0.992 0.4 2.336 1.056 3.232 3.936 5.424 7.936 10.816 12.032 16.112 3.104 3.984 7.392 5.6 12.336 5.264 2.048-0.16 3.824 0.176 5.12 1.776 1.712 2.048 3.44 4.112 4.88 6.336 0.512 0.784 0.448 2.256 0.112 3.2-0.384 1.072-1.264 2.048-2.16 2.832-5.472 4.976-11.232 9.648-16.496 14.816-12.48 12.384-27.632 21.248-41.584 31.712-1.232 0.896-2.736 1.424-4.064 2.192-2.592 1.488-5.264 2.832-7.664 4.592-2.544 1.824-4.096 2.288-6-0.112s-3.344-5.344-4.464-8.256c-1.712-4.48-3.072-9.104-4.368-13.712-0.88-3.12-1.456-6.336-2.096-9.536-0.72-3.76-1.504-4.448-4.976-2.976-4.8 2.064-9.6 4.224-14.032 6.944-7.104 4.336-14.048 8.992-20.832 13.904-4.896 3.568-9.696 7.44-14 11.712-7.28 7.264-14.512 14.432-23.648 19.376-1.12 0.608-2 1.712-3.12 2.272-1.44 0.72-3.008 1.152-4.544 1.696-0.224-0.224-0.48-0.48-0.72-0.72 0.384-1.312 0.432-2.88 1.216-3.92 11.056-15.040 22-30.16 33.424-44.88 6.432-8.288 13.136-16.352 19.712-24.512 5.472-6.8 10.176-14.016 15.2-21.024 2.832-3.984 6.48-7.376 9.232-11.376 2.672-3.872 4.768-8.144 6.992-12.304 2.048-3.744 4.656-5.2 8.816-4.944 1.888 0.128 1.952 1.456 2 2.72 0.144 5.504 0.144 11.024 0.32 16.528 0.112 1.744 0.544 3.488 0.928 5.952zM17.536 346.112c6.544-2.736 9.792-6.288 9.328-10.032-4.544 0.928-8.528 5.12-9.328 10.032z"></path>
<path d="M147.472 112.944c1.792 0.768 2.784 2.544 3.568 4.768 2 5.648 1.936 11.424 2.208 17.264 0.336 7.264 1.68 14.48 2.176 21.776 0.432 6.224 0.304 12.528 0.368 18.784 0 0.496-0.384 1.104-0.768 1.424-0.176 0.128-1.008-0.224-1.264-0.544-5.088-7.696-14.016-8.080-21.504-10.912-5.952-2.224-12.544-2.832-18.864-4.064-1.344-0.256-2.8-0.432-4.112-0.176-4.736 0.928-9.264-0.112-13.76-1.312-4.4-1.184-8.656-2.832-13.088-3.888-2.592-0.624-5.392-0.72-8.064-0.624-6 0.224-12.048 0.384-18 1.12-11.008 1.344-21.968 3.264-32.352 7.392-2.672 1.072-3.568-0.336-4.512-2.432 0.688-0.544 1.344-1.056 2.016-1.568 16.72-12.848 35.472-21.904 55.12-29.296 1.536-0.576 2.768-1.888 4.208-2.768 1.744-1.040 3.504-2.064 5.376-2.88 2.48-1.104 5.12-1.808 7.536-3.008 2.832-1.392 5.552-3.104 8.288-4.72 2-1.184 3.536-0.544 3.984 1.488s0.24 4.176 0.304 6.272c0.048 1.824 0.048 3.648 0.064 5.44 1.744-0.432 3.568-0.672 5.232-1.328 9.648-3.84 19.296-7.744 28.848-11.808 2.336-0.96 4.4-2.72 7.008-4.4z"></path>
<path d="M396 102.24c0.992 1.616 1.952 3.12 2.864 4.672 4.56 7.888 16 8.304 20.944 0.56 1.040-1.616 1.312-3.888 1.424-5.888 0.128-2.256 1.248-2.672 2.992-2.256 1.152 0.256 2.288 0.72 3.264 1.424 3.456 2.544 7.312 3.392 11.536 3.744 4.736 0.384 9.488 1.456 14.112 2.688 4.72 1.232 9.328 2.992 13.936 4.672 1.664 0.592 3.12 1.76 4.768 2.336 2.832 0.96 5.664 1.984 8.608 2.448 5.92 0.928 11.216 3.12 16.032 6.656 2.976 2.208 5.952 4.336 8.912 6.56 0.832 0.608 1.504 1.392 2.88 2.672-1.856 0.72-3.264 1.68-4.672 1.744-5.152 0.256-10.32 0.224-15.488 0.224-1.344 0-2.832 0-4.096-0.448-5.792-2.128-11.728-1.152-17.648-1.008-5.312 0.128-10.608 0.176-15.936 0.384-1.776 0.064-3.6 0.256-5.28 0.752-4.608 1.376-9.216 2.768-13.696 4.512-4.128 1.616-8.224 3.424-12.080 5.616-4.88 2.752-9.424 6.048-14.192 8.944-3.36 2.016-6 4.544-7.392 8.272-0.432 1.168-1.28 2.192-2.048 3.44-2.88-2.048-3.648-4.88-3.728-7.936-0.112-4.32 0-8.608-0.064-12.912-0.224-11.6-0.432-23.216-0.784-34.816-0.176-5.232-0.368-5.232 4.832-7.104z"></path>
<path d="M196.928 333.904c0.928 4.512-1.136 7.936-3.824 11.136-0.432 0.512-0.944 1.072-1.552 1.28-8.368 2.88-15.552 7.968-23.024 12.496-4.336 2.624-8.592 5.376-12.784 8.208-7.824 5.312-15.456 10.832-23.344 16.032-3.712 2.432-7.904 4.112-11.712 6.432-3.216 1.936-6.24 4.176-9.216 6.432-1.2 0.896-2.176 1.568-3.68 0.752-1.456-0.784-1.6-1.872-0.96-3.248 0.064-0.16 0.208-0.336 0.176-0.48-1.312-6.416 3.216-10.144 6.704-14.288 13.264-15.808 26.576-31.568 39.84-47.376 1.936-2.32 4.4-4.224 5.312-7.424 0.32-1.12 2.224-2.192 3.568-2.512 4.48-1.072 7.984-3.6 11.728-6.112 3.12-2.112 7.28-2.72 11.040-3.776 0.432-0.112 1.664 1.008 1.776 1.68 0.608 4.064 2.88 7.264 5.008 10.64 1.616 2.512 2.976 5.2 4.336 7.872 0.336 0.624 0.4 1.488 0.608 2.256zM121.632 381.808c-1.008-1.568-2.176-2.448-3.568-0.928-1.248 1.344-1.888 2.928 0.288 4.384 1.072-1.152 2.128-2.256 3.28-3.456z"></path>
<path d="M417.024 400.736c-7.552-7.6-15.36-14.976-22.64-22.848-9.488-10.256-19.12-20.304-30.336-28.672-2.464-1.824-5.28-3.232-8.064-4.48-5.392-2.4-7.488-6-6.624-11.888 0.176-1.104 0.288-2.256 0.128-3.328-1.184-7.424 1.92-14.032 3.984-20.784 1.264-4.16 9.12-6.16 12.576-3.504 2.768 2.128 5.728 2.88 9.168 2.432 4.544-0.576 7.504 2.112 7.344 6.72-0.128 3.44 0.832 6.32 2.72 9.2 1.552 2.336 2.448 5.104 3.808 7.584 6.288 11.536 12.64 23.024 18.928 34.56 1.072 1.952 2.224 3.936 2.88 6.032 1.872 6.048 5.104 11.424 8.496 16.688 3.856 5.936 3.488 7.536-2.368 12.304z"></path>
</svg>
