<!-- Generated by IcoMoon.io -->
<svg version="1.1" xmlns="http://www.w3.org/2000/svg" width="32" height="32" viewBox="0 0 32 32">
<title>fighter-frenzied</title>
<path d="M21.014 3.463c-0.155 0.236-0.331 0.471-0.481 0.727-0.331 0.556-0.376 1.148-0.2 1.759 0.135 0.481 0.251 0.967 0.426 1.433 0.241 0.626 0.205 1.253 0.085 1.935 0.361-0.015 0.697-0.030 1.032-0.050 0.035 0 0.070-0.040 0.105-0.065 0.296-0.241 0.626-0.446 0.872-0.727 0.175-0.2 0.311-0.486 0.341-0.752 0.075-0.677 0.471-1.153 0.927-1.669-0.065 0.301-0.145 0.541-0.155 0.782-0.020 0.431-0.025 0.862 0.005 1.293 0.035 0.536 0.010 1.068-0.165 1.579-0.11 0.321-0.281 0.591-0.541 0.822-0.396 0.361-0.742 0.762-0.877 1.308-0.030 0.115-0.115 0.216-0.19 0.316-0.346 0.446-0.687 0.902-1.052 1.328-0.165 0.195-0.376 0.376-0.737 0.366 0.251-0.792 0.491-1.554 0.732-2.315-0.015-0.020-0.030-0.040-0.040-0.055-0.556 0.386-1.113 0.777-1.679 1.168-0.005-0.035-0.010-0.090-0.020-0.145-0.095-0.596-0.19-1.188-0.281-1.784-0.015-0.080-0.040-0.165-0.040-0.246-0.005-0.722 0-1.443 0-2.135-1.073 0.456-1.724 1.383-2.335 2.285-0.551-0.536-1.118-1.037-1.619-1.599-0.286-0.321-0.471-0.737-0.677-1.123-0.055-0.105-0.030-0.256-0.020-0.386 0.030-0.456 0.070-0.917 0.070-1.378-1.057 1.263-1.078 2.766-1.047 4.32-0.646-0.461-1.027-1.098-1.403-1.754 0.13 1.438 0.231 2.867-0.386 4.25-0.822-0.636-1.574-1.328-2.245-2.145-0.035 0.070-0.060 0.115-0.080 0.165-0.316 0.997-0.241 1.955 0.326 2.852 0.135 0.21 0.1 0.376-0.055 0.531-0.13 0.13-0.145 0.401-0.421 0.361-0.065-0.010-0.135-0.010-0.19-0.045-0.371-0.241-0.742-0.481-0.922-0.907-0.241-0.556-0.481-1.118-0.697-1.684-0.19-0.516-0.236-1.042-0.115-1.594 0.135-0.601 0.205-1.223-0.020-1.824-0.090-0.241-0.236-0.476-0.401-0.677-0.266-0.321-0.566-0.606-0.887-0.942 0.501-0.045 0.947 0.030 1.388 0.14 0.687 0.17 1.193 0.601 1.679 1.083 0.341 0.336 0.707 0.652 1.113 1.017 0.125-0.446 0.236-0.827 0.331-1.213 0.226-0.917 0.431-1.844 0.321-2.787-0.065-0.551-0.301-1.083-0.466-1.624-0.045-0.14-0.1-0.276-0.175-0.476 0.652 0.321 1.248 0.626 1.644 1.203 0.080 0.11 0.105 0.261 0.155 0.391 0.125 0.326 0.236 0.657 0.376 0.977 0.055 0.125 0.185 0.221 0.321 0.376 0.216-0.381 0.401-0.712 0.591-1.037 0.085-0.15 0.17-0.301 0.271-0.441 0.491-0.712 0.616-1.504 0.581-2.345-0.005-0.135 0.045-0.311 0.13-0.411 0.241-0.286 0.496-0.566 0.782-0.802 0.476-0.386 0.982-0.742 1.498-1.067-0.14 0.311-0.296 0.621-0.421 0.937-0.246 0.611-0.261 1.213 0.1 1.799 0.165 0.271 0.301 0.556 0.471 0.827 0.401 0.637 0.516 1.323 0.386 2.060-0.045 0.271-0.040 0.546-0.040 0.822 0.005 0.316 0.326 0.476 0.606 0.336 0.376-0.19 0.626-0.466 0.837-0.842 0.601-1.113 1.398-2.025 2.581-2.501z"></path>
<path d="M21.977 15.982c0.080 0.16 0.125 0.271 0.185 0.371 0.316 0.571 0.702 1.088 1.243 1.463 0.17 0.12 0.19 0.21 0.055 0.351-0.14 0.14-0.286 0.281-0.411 0.401-0.657-0.115-0.962-0.687-1.448-1.108-0.531 0.541-1.047 1.067-1.564 1.594-2.922 2.997-5.849 5.999-8.771 8.996-0.707 0.722-1.403 1.453-2.11 2.17-0.476 0.481-1.052 0.827-1.654 1.113-0.496 0.231-1.012 0.416-1.524 0.621-0.251 0.1-0.321 0.045-0.286-0.215 0.050-0.381 0.1-0.757 0.155-1.138 0.080-0.541 0.371-0.982 0.692-1.393 0.351-0.451 0.757-0.867 1.148-1.288 3.493-3.724 6.986-7.447 10.485-11.166 0.336-0.356 0.692-0.692 1.022-1.052 0.11-0.12 0.16-0.256 0-0.431-0.301-0.321-0.556-0.682-0.832-1.022-0.135-0.16-0.11-0.291 0.045-0.421 0.095-0.080 0.175-0.18 0.231-0.236 0.286 0.21 0.561 0.411 0.837 0.611 0.316 0.231 0.626 0.476 0.952 0.687 0.075 0.050 0.261 0.030 0.326-0.030 0.356-0.321 0.692-0.667 1.032-1.002 0.341-0.341 0.687-0.672 1.012-1.022 0.266-0.281 0.531-0.576 0.621-0.967 0.030-0.125-0.015-0.266-0.035-0.471 0.276-0.426 0.777-0.551 1.328-0.571 0.065-0.005 0.135 0.010 0.195 0.035 0.692 0.291 1.032 1.408 0.626 2.035-0.075 0.115-0.135 0.16-0.296 0.105-0.301-0.1-0.616-0.025-0.847 0.17-0.376 0.326-0.737 0.677-1.052 1.057-0.486 0.576-0.932 1.193-1.363 1.754z"></path>
<path d="M12.83 22.032c-1.233-1.158-2.446-2.29-3.659-3.423-0.040-0.296-0.291-0.391-0.496-0.536-0.16-0.115-0.291-0.11-0.446 0.005-0.431 0.311-0.872 0.606-1.318 0.912-0.185-0.175-0.346-0.316-0.496-0.471-0.105-0.105-0.095-0.195 0.035-0.306 0.351-0.316 0.682-0.652 1.022-0.982 0.055-0.050 0.095-0.115 0.15-0.165 0.321-0.301 0.346-0.581 0.055-0.917-0.631-0.732-1.263-1.463-1.915-2.175-0.226-0.251-0.501-0.476-0.862-0.511-0.205-0.020-0.416-0.005-0.697-0.005-0.386-0.356-0.416-1.273 0.020-1.759 0.571-0.642 1.188-0.596 2.060 0.15-0.215 0.155-0.15 0.366-0.045 0.531 0.185 0.286 0.396 0.566 0.631 0.812 0.321 0.331 0.682 0.626 1.022 0.942 0.321 0.301 0.631 0.616 0.962 0.902 0.276 0.241 0.341 0.226 0.636-0.010 0.406-0.316 0.812-0.631 1.213-0.957 0.11-0.090 0.2-0.216 0.306-0.331-0.005 0 0.015-0.005 0.025 0.005 0.486 0.431 0.491 0.496 0.11 1.027-0.16 0.226-0.321 0.446-0.481 0.672-0.185 0.256-0.185 0.326 0.050 0.551 0.521 0.511 1.052 1.007 1.574 1.519 0.767 0.742 1.529 1.488 2.295 2.235 0.045 0.045 0.090 0.095 0.15 0.16-0.642 0.702-1.263 1.403-1.904 2.125z"></path>
<path d="M26.963 18.538c-1.057 0.361-2.055 0.551-3.112 0.646 0.221-1.498 1.047-2.656 1.94-3.804-0.672 0.356-1.343 0.687-2.165 0.702 0.271-0.306 0.516-0.636 0.812-0.907 0.511-0.466 1.067-0.877 1.579-1.338 0.326-0.291 0.576-0.667 0.912-0.947 0.236-0.195 0.541-0.311 0.832-0.431s0.591-0.231 0.897-0.306c0.271-0.065 0.556-0.070 0.837-0.1 0.13-0.015 0.261-0.020 0.436-0.035-0.090 0.070-0.155 0.13-0.231 0.175-1.052 0.646-1.554 1.684-1.975 2.777-0.205 0.536-0.361 1.093-0.536 1.639-0.020 0.070-0.030 0.14-0.060 0.266 0.501-0.090 0.972-0.135 1.423-0.261 1.133-0.316 2.175-0.15 3.152 0.496 0.025 0.020 0.050 0.040 0.125 0.095-0.296 0.075-0.551 0.17-0.812 0.205-1.042 0.135-1.679 0.792-1.99 1.714-0.386 1.158-1.243 1.834-2.215 2.401-0.451 0.261-0.992 0.371-1.498 0.526-0.1 0.030-0.236-0.035-0.356-0.095 0.406-0.13 0.541-0.496 0.672-0.797 0.256-0.586 0.652-1.078 0.942-1.634 0.145-0.296 0.241-0.611 0.391-0.987z"></path>
<path d="M15.436 24.462c0.636-0.687 1.258-1.358 1.889-2.040 0.732 0.712 1.428 1.403 2.135 2.085 1.303 1.268 2.616 2.526 3.909 3.799 0.286 0.281 0.516 0.606 0.772 0.912 0.446 0.536 0.486 1.208 0.601 1.849 0.105 0.576 0.095 0.576-0.456 0.376-0.536-0.195-1.078-0.386-1.614-0.591-0.165-0.065-0.316-0.175-0.471-0.271-0.055-0.035-0.1-0.1-0.16-0.115-0.496-0.145-0.802-0.551-1.158-0.882-0.371-0.336-0.727-0.687-1.093-1.027-1.428-1.343-2.857-2.681-4.29-4.019-0.020-0.020-0.040-0.045-0.065-0.075z"></path>
<path d="M7.397 16.574c-0.105 0.045-0.215 0.1-0.331 0.135-0.406 0.125-0.817 0.241-1.228 0.356-0.060 0.020-0.13 0.025-0.19 0.030-0.341 0.010-0.461 0.246-0.296 0.546 0.125 0.231 0.215 0.476 0.321 0.712 0.015 0.040 0.030 0.080 0.050 0.115 0.311 0.456 0.641 0.897 0.922 1.368 0.17 0.296 0.261 0.637 0.386 0.957 0.075 0.19 0.145 0.386 0.226 0.576 0.035 0.080 0.080 0.155 0.11 0.215-0.692-0.065-1.368-0.13-2.065-0.2 0.341 0.862 0.847 1.468 1.679 1.799-0.241 0.11-0.496 0.060-0.727-0.030-0.566-0.21-1.123-0.456-1.684-0.687-0.075-0.030-0.15-0.075-0.205-0.135-0.346-0.386-0.802-0.576-1.283-0.672-0.687-0.135-1.148-0.546-1.514-1.098-0.19-0.291-0.346-0.606-0.476-0.932-0.211-0.516-0.566-0.917-0.927-1.323-0.040-0.045-0.080-0.085-0.165-0.175 0.637 0.241 1.228 0.411 1.599 0.967 0.296 0.446 0.737 0.611 1.258 0.616 0.080 0 0.175 0.005 0.246 0.035 0.356 0.17 0.657 0.030 0.952-0.145 0.125-0.075 0.266-0.135 0.411-0.205-0.040-0.070-0.065-0.135-0.105-0.18-0.596-0.611-0.717-1.408-0.872-2.19-0.060-0.311-0.14-0.616-0.226-0.922-0.221-0.817-0.782-1.313-1.544-1.619-0.080-0.030-0.16-0.065-0.301-0.12 0.887-0.085 1.689-0.005 2.441 0.351 0.471 0.221 0.937 0.471 1.388 0.732 0.481 0.271 0.937 0.581 1.423 0.852 0.215 0.12 0.466 0.18 0.727 0.271z"></path>
</svg>
