<!-- Generated by IcoMoon.io -->
<svg version="1.1" xmlns="http://www.w3.org/2000/svg" width="32" height="32" viewBox="0 0 32 32">
<title>fighters-fly</title>
<path d="M21.862 0c0.16 0.019 0.323 0.033 0.482 0.062 0.081 0.014 0.157 0.055 0.231 0.106-0.29 0.27-0.6 0.416-0.991 0.385-0.18-0.014-0.371 0.010-0.545 0.056-0.382 0.101-0.757 0.23-1.135 0.346-0.049 0.015-0.1 0.041-0.148 0.035-0.353-0.041-0.676 0.069-0.985 0.204-0.464 0.201-0.954 0.311-1.438 0.452-0.481 0.14-0.944 0.341-1.413 0.518-0.219 0.082-0.442 0.163-0.657 0.257-0.085 0.037-0.159 0.104-0.232 0.164-0.117 0.098-0.219 0.221-0.348 0.299-0.667 0.406-1.34 0.8-2.010 1.201-0.105 0.063-0.217 0.13-0.291 0.223-0.161 0.198-0.372 0.3-0.603 0.38-0.112 0.038-0.219 0.086-0.332 0.126-0.124 0.045-0.198 0.128-0.254 0.249-0.047 0.104-0.126 0.198-0.205 0.284-0.058 0.063-0.131 0.117-0.207 0.159-0.69 0.382-1.144 1.004-1.629 1.594-0.071 0.087-0.092 0.212-0.144 0.317-0.065 0.135-0.117 0.286-0.212 0.397-0.166 0.193-0.18 0.397-0.11 0.619 0.045 0.142 0.178 0.184 0.33 0.104 0.246-0.13 0.482-0.273 0.73-0.399 0.43-0.219 0.866-0.426 1.295-0.644 0.688-0.348 1.436-0.438 2.188-0.524 0.653-0.074 1.306-0.168 1.96-0.231 1.030-0.099 2.061-0.153 3.093-0.014 0.922 0.124 1.852 0.205 2.763 0.386 1.106 0.221 2.189 0.549 3.263 0.903 1.044 0.345 1.928 0.924 2.712 1.679 0.444 0.427 0.909 0.833 1.362 1.251 0.053 0.049 0.087 0.116 0.13 0.175-0.010 0.017-0.021 0.033-0.029 0.051-0.060-0.015-0.13-0.017-0.182-0.047-0.503-0.298-1.007-0.595-1.503-0.903-0.331-0.205-0.657-0.421-0.972-0.649-0.36-0.259-0.727-0.5-1.165-0.613-0.035-0.009-0.068-0.024-0.1-0.039-0.249-0.11-0.5-0.184-0.778-0.212-0.303-0.031-0.614-0.11-0.887-0.24-0.251-0.119-0.496-0.164-0.766-0.199-0.314-0.041-0.614-0.166-0.927-0.221-0.657-0.117-1.32-0.2-1.975-0.322-0.554-0.103-1.108-0.162-1.67-0.141-0.154 0.005-0.308 0.021-0.462 0.028-0.43 0.021-0.862 0.024-1.288 0.065-0.312 0.029-0.614 0.14-0.925 0.158-0.781 0.042-1.499 0.334-2.248 0.503-0.145 0.033-0.292 0.064-0.432 0.113-0.232 0.078-0.458 0.169-0.686 0.257-0.124 0.047-0.251 0.091-0.372 0.145-0.195 0.086-0.398 0.163-0.578 0.272-0.238 0.144-0.459 0.305-0.753 0.33-0.153 0.013-0.541 0.521-0.527 0.676 0.005 0.050 0.063 0.11 0.112 0.135s0.121 0.017 0.182 0.018c0.643 0.014 1.286 0.022 1.928 0.045 0.245 0.009 0.487 0.059 0.732 0.086 0.112 0.013 0.226 0.022 0.337 0.018 0.295-0.010 0.582 0.027 0.863 0.127 0.169 0.060 0.346 0.094 0.519 0.141 1.023 0.286 2.043 0.586 2.996 1.065 0.34 0.171 0.683 0.336 1.008 0.531 0.369 0.222 0.723 0.47 1.075 0.717 0.214 0.15 0.409 0.329 0.621 0.481 0.872 0.624 1.57 1.413 2.188 2.279 0.033 0.047 0.046 0.11 0.069 0.167-0.015 0.013-0.031 0.026-0.046 0.039-0.055-0.036-0.116-0.067-0.167-0.109-0.708-0.572-1.411-1.149-2.12-1.718-0.509-0.409-1.097-0.679-1.693-0.938-0.349-0.151-0.684-0.331-1.031-0.481-0.231-0.099-0.471-0.176-0.71-0.252-0.509-0.159-1.022-0.309-1.531-0.467-0.562-0.175-1.122-0.355-1.685-0.533-0.044-0.014-0.092-0.030-0.135-0.022-0.331 0.060-0.64-0.062-0.959-0.094-0.232-0.024-0.471-0.017-0.707-0.005-0.339 0.017-0.673 0.047-1.011 0.077-0.096 0.008-0.192 0.026-0.288 0.046-0.219 0.047-0.44 0.098-0.658 0.151-0.073 0.018-0.157 0.039-0.208 0.087-0.044 0.042-0.047 0.126-0.069 0.191 0.059 0.018 0.121 0.056 0.177 0.051 0.261-0.028 0.518-0.081 0.78-0.101 0.905-0.072 1.804-0.077 2.688 0.189 0.459 0.137 0.916 0.276 1.331 0.52 0.367 0.216 0.79 0.253 1.179 0.393 0.941 0.336 1.914 0.588 2.816 1.033 0.201 0.1 0.417 0.175 0.623 0.264 0.444 0.193 0.816 0.476 1.076 0.888 0.046 0.073 0.087 0.151 0.117 0.232 0.064 0.18 0.005 0.298-0.176 0.361-0.072 0.024-0.153 0.028-0.223 0.059-0.068 0.030-0.145 0.069-0.182 0.127-0.059 0.090-0.072 0.209-0.212 0.235-0.019 0.004-0.037 0.11-0.026 0.162 0.081 0.386 0.018 0.52-0.353 0.685-0.127 0.056-0.187 0.145-0.197 0.284-0.035 0.529-0.339 0.919-0.853 1.065-0.391 0.11-0.573 0.397-0.68 0.748-0.064 0.213 0.005 0.415 0.176 0.556 0.205 0.169 0.426 0.321 0.64 0.479 0.053 0.038 0.109 0.072 0.191 0.127-0.083 0.065-0.142 0.142-0.217 0.166-0.441 0.137-0.884 0.266-1.329 0.391-0.082 0.023-0.173 0.022-0.26 0.024-0.359 0.012-0.718 0.035-1.075 0.026-0.296-0.008-0.59-0.063-0.887-0.083-0.276-0.018-0.557-0.049-0.828-0.018-0.396 0.045-0.672-0.13-0.918-0.398-0.055-0.060-0.101-0.13-0.144-0.199-0.1-0.163-0.086-0.234 0.065-0.353 0.117-0.092 0.238-0.18 0.356-0.271 0.151-0.116 0.268-0.252 0.371-0.421 0.14-0.23 0.313-0.45 0.613-0.521 0.121-0.028 0.236-0.124 0.333-0.21 0.282-0.248 0.554-0.506 0.83-0.76 0.045-0.042 0.091-0.082 0.132-0.128 0.227-0.255 0.198-0.507-0.098-0.676-0.463-0.266-0.912-0.575-1.406-0.762-0.483-0.185-0.92-0.415-1.321-0.731-0.108-0.085-0.262-0.11-0.392-0.169-0.171-0.077-0.353-0.142-0.508-0.244-0.649-0.425-1.275-0.882-2.055-1.056-0.142-0.032-0.285-0.15-0.382-0.267-0.371-0.444-0.93-0.634-1.477-0.432-0.35 0.128-0.677 0.32-1.016 0.477-0.104 0.049-0.226 0.063-0.328 0.116-0.085 0.044-0.169 0.108-0.224 0.185-0.080 0.109-0.171 0.128-0.253 0.015-0.095-0.133-0.098-0.278-0.015-0.42 0.151-0.262 0.309-0.521 0.46-0.782 0.031-0.053 0.065-0.107 0.081-0.164 0.033-0.127-0.041-0.243-0.169-0.254-0.121-0.010-0.17-0.076-0.194-0.182-0.087-0.377-0.068-0.747 0.099-1.097 0.49-1.032 0.92-2.096 1.591-3.034 0.187-0.263 0.372-0.529 0.566-0.787 0.236-0.314 0.466-0.636 0.726-0.929 0.725-0.814 1.562-1.5 2.45-2.128 0.086-0.062 0.154-0.148 0.232-0.219 0.098-0.090 0.189-0.192 0.301-0.262 0.759-0.462 1.52-0.919 2.284-1.372 0.234-0.139 0.482-0.254 0.713-0.397 0.191-0.117 0.376-0.248 0.548-0.39 0.198-0.164 0.422-0.257 0.673-0.28 0.45-0.041 0.871-0.186 1.297-0.323 0.374-0.121 0.762-0.201 1.143-0.304 0.201-0.055 0.407-0.108 0.602-0.182 0.34-0.128 0.684-0.214 1.049-0.227 0.167-0.005 0.333-0.053 0.5-0.077 0.288-0.041 0.577-0.080 0.867-0.119 0.095-0.013 0.191-0.024 0.286-0.036 0.131-0.004 0.265-0.004 0.399-0.004zM16.136 14.964c-0.019-0.15-0.114-0.16-0.198-0.157-0.036 0.001-0.069 0.064-0.104 0.099 0.063 0.047 0.119 0.109 0.191 0.137 0.026 0.010 0.083-0.058 0.112-0.080z"></path>
<path d="M2.972 25.255c0.095-0.085 0.191-0.171 0.287-0.254 0.341-0.295 0.677-0.584 0.94-0.965 0.362-0.522 0.781-1.005 1.179-1.5 0.163-0.203 0.338-0.398 0.503-0.599 0.257-0.313 0.522-0.621 0.764-0.946 0.4-0.538 0.834-1.045 1.323-1.499 0.549-0.509 0.977-1.106 1.34-1.754 0.085-0.151 0.178-0.302 0.294-0.431 0.059-0.068 0.169-0.1 0.263-0.127 0.166-0.047 0.336-0.078 0.507-0.116 0.059-0.013 0.118-0.037 0.177-0.036 0.216 0.006 0.432 0.017 0.647 0.036 0.063 0.005 0.136 0.027 0.183 0.067 0.222 0.195 0.401 0.416 0.489 0.711 0.166 0.559 0.078 1.090-0.171 1.595-0.076 0.153-0.225 0.277-0.36 0.393-0.323 0.277-0.664 0.534-0.986 0.814-0.192 0.168-0.362 0.363-0.54 0.547-0.050 0.051-0.096 0.107-0.151 0.153-1.208 1.002-2.503 1.885-3.79 2.777-0.288 0.2-0.56 0.408-0.816 0.643-0.094 0.086-0.184 0.103-0.309 0.063-0.076-0.026-0.184-0.019-0.256 0.017-0.367 0.185-0.726 0.386-1.088 0.577-0.237 0.126-0.25 0.121-0.427-0.072 0-0.031 0-0.062 0-0.092z"></path>
<path d="M25.032 7.502c-0.091-0.035-0.171-0.065-0.253-0.098-0.017 0.032-0.029 0.049-0.035 0.068-0.059 0.217-0.058 0.214-0.26 0.123-1.092-0.49-2.244-0.785-3.41-1.034-0.362-0.077-0.72-0.171-1.084-0.228-0.648-0.103-1.3-0.185-1.951-0.269-0.198-0.026-0.4-0.054-0.598-0.044-0.723 0.033-1.444 0.085-2.167 0.124-0.24 0.013-0.483 0.037-0.721 0.012-0.33-0.036-0.641 0.035-0.961 0.092-0.519 0.094-1.043 0.177-1.567 0.239-0.435 0.051-0.837 0.2-1.247 0.332-0.136 0.044-0.274 0.092-0.414 0.118-0.065 0.012-0.171-0.003-0.205-0.046s-0.027-0.159 0.010-0.207c0.136-0.178 0.268-0.373 0.445-0.504 0.726-0.536 1.438-1.105 2.214-1.563 1.063-0.626 2.115-1.287 3.268-1.75 0.46-0.185 0.935-0.336 1.402-0.508 0.746-0.276 1.499-0.531 2.276-0.71 0.36-0.082 0.718-0.172 1.077-0.255 0.022-0.005 0.049 0.005 0.104 0.013-0.068 0.136-0.122 0.262-0.192 0.376-0.354 0.565-0.389 1.155-0.050 1.717 0.285 0.474 0.564 0.973 1.083 1.255 0.712 0.69 1.601 1.125 2.429 1.645 0.33 0.207 0.594 0.468 0.839 0.761 0.108 0.124 0.095 0.203-0.032 0.341z"></path>
<path d="M11.29 9.7c0.172-0.296 0.404-0.445 0.713-0.503 0.286-0.054 0.572-0.127 0.843-0.232 0.562-0.221 1.149-0.309 1.743-0.368 0.603-0.059 1.208-0.101 1.813-0.154 0.404-0.035 0.805-0.101 1.209-0.107 0.528-0.006 1.061 0.001 1.585 0.059 0.975 0.108 1.956 0.207 2.915 0.4 1.038 0.209 2.085 0.436 3.036 0.935 0.351 0.185 0.667 0.439 0.985 0.679 0.175 0.132 0.212 0.321 0.142 0.48-0.059 0.137-0.15 0.185-0.295 0.14-0.173-0.055-0.344-0.051-0.513 0.010-0.038 0.014-0.080 0.033-0.118 0.030-0.377-0.032-0.672 0.225-1.025 0.277-0.35 0.053-0.701 0.105-1.049 0.167-0.177 0.032-0.349 0.086-0.522 0.131-0.029 0.008-0.067 0.013-0.086 0.032-0.198 0.204-0.481 0.246-0.714 0.38-0.267 0.153-0.51 0.341-0.759 0.524-0.063 0.046-0.107 0.124-0.15 0.193-0.114 0.175-0.221 0.354-0.341 0.524-0.018 0.026-0.103 0.033-0.136 0.014-0.055-0.032-0.098-0.090-0.139-0.142-0.371-0.48-0.834-0.865-1.302-1.241-0.185-0.149-0.41-0.248-0.613-0.376-0.576-0.363-1.207-0.611-1.828-0.882-0.065-0.028-0.132-0.059-0.191-0.099-0.613-0.406-1.318-0.508-2.023-0.558-0.691-0.049-1.361-0.205-2.037-0.326-0.159-0.028-0.305-0.049-0.477-0.003-0.209 0.058-0.44 0.017-0.662 0.017zM13.070 9.73c0.045-0.091 0.086-0.157 0.108-0.227 0.005-0.017-0.055-0.077-0.080-0.073-0.067 0.008-0.131 0.040-0.209 0.067 0.036 0.053 0.049 0.074 0.064 0.094 0.027 0.036 0.058 0.069 0.117 0.14zM17.291 10.454c-0.005 0.014-0.010 0.028-0.015 0.044 0.131 0.047 0.262 0.095 0.428 0.154-0.065-0.184-0.163-0.219-0.413-0.198zM20.775 12.445c-0.029 0.005-0.058 0.012-0.087 0.017 0.014 0.081 0.029 0.162 0.044 0.243 0.029-0.012 0.086-0.027 0.086-0.035-0.008-0.076-0.026-0.15-0.042-0.225z"></path>
<path d="M12.927 21.58c0.171-0.053 0.296-0.092 0.424-0.13 0.033-0.010 0.072-0.015 0.107-0.012 0.279 0.027 0.558 0.055 0.836 0.086 0.060 0.006 0.124 0.017 0.181 0.041 0.421 0.186 0.846 0.13 1.268 0.015 0.317-0.086 0.626-0.198 0.94-0.298 0.277-0.089 0.416-0.003 0.431 0.29 0.008 0.136-0.014 0.275-0.030 0.411-0.051 0.458-0.117 0.915-0.154 1.374-0.032 0.388-0.010 0.782-0.053 1.168-0.045 0.417-0.136 0.829-0.209 1.242-0.008 0.045-0.023 0.091-0.022 0.136 0.026 0.735-0.222 1.418-0.392 2.119-0.099 0.404-0.107 0.83-0.155 1.247-0.022 0.194-0.050 0.386-0.064 0.58-0.027 0.367-0.033 0.737-0.073 1.104-0.032 0.287-0.092 0.574-0.159 0.856-0.023 0.098-0.080 0.21-0.226 0.183-0.253-0.046-0.398-0.157-0.413-0.309-0.041-0.397-0.081-0.792-0.122-1.188-0.003-0.021-0.006-0.040-0.010-0.060-0.101-0.48-0.239-0.956-0.3-1.441-0.098-0.784-0.373-1.522-0.528-2.289-0.073-0.361-0.151-0.717-0.264-1.072-0.121-0.382-0.234-0.793-0.218-1.186 0.018-0.435-0.021-0.841-0.16-1.245-0.046-0.132-0.051-0.278-0.173-0.382-0.041-0.035-0.060-0.108-0.069-0.167-0.062-0.375-0.062-0.77-0.391-1.074z"></path>
<path d="M20.603 17.4c0.209 0.059 0.462 0.098 0.684 0.201 0.437 0.201 0.822 0.48 1.121 0.87 0.11 0.145 0.271 0.252 0.403 0.38 0.227 0.222 0.448 0.452 0.68 0.669 0.167 0.157 0.345 0.304 0.527 0.444 0.217 0.164 0.449 0.307 0.662 0.476 0.386 0.307 0.768 0.619 1.138 0.945 0.253 0.223 0.477 0.479 0.723 0.711 0.468 0.444 0.854 0.957 1.236 1.472 0.201 0.271 0.377 0.562 0.563 0.844 0.054 0.081 0.078 0.18-0.008 0.231-0.047 0.028-0.145-0.010-0.214-0.035-0.090-0.032-0.172-0.089-0.264-0.121-0.194-0.067-0.398-0.109-0.584-0.191-0.171-0.076-0.326-0.19-0.484-0.291-0.051-0.033-0.090-0.086-0.142-0.117-0.631-0.382-1.261-0.77-1.898-1.142-0.359-0.209-0.733-0.393-1.097-0.592-0.999-0.548-1.997-1.097-2.996-1.646-0.196-0.108-0.4-0.195-0.604-0.286-0.368-0.162-0.72-0.386-0.852-0.812-0.068-0.221-0.13-0.443-0.187-0.665-0.012-0.046-0.004-0.101 0.008-0.149 0.153-0.612 0.672-1.064 1.335-1.161 0.072-0.013 0.144-0.021 0.253-0.035z"></path>
</svg>
