<!-- Generated by IcoMoon.io -->
<svg version="1.1" xmlns="http://www.w3.org/2000/svg" width="33" height="32" viewBox="0 0 33 32">
<title>fighter-gargantuan</title>
<path d="M0 20.664c0-0.609 0-1.218 0-1.826 0.012-0.072 0.024-0.142 0.035-0.213 0.096-0.636 0.167-1.278 0.294-1.909 0.172-0.858 0.393-1.705 0.455-2.583 0.053-0.74 0.222-1.452 0.51-2.138 0.139-0.329 0.368-0.531 0.683-0.664 0.242-0.102 0.294-0.062 0.301 0.202 0.006 0.21 0.014 0.423 0.050 0.629 0.11 0.618 0.543 1.078 0.82 1.613 0.044 0.085 0.14 0.155 0.228 0.201 0.618 0.323 1.256 0.586 1.959 0.648 0.096 0.009 0.193-0.012 0.289-0.015 0.114-0.005 0.231-0.021 0.341-0.002 0.187 0.035 0.359 0.026 0.527-0.073 0.082-0.049 0.177-0.096 0.269-0.108 0.478-0.058 0.834-0.303 1.149-0.656 0.166-0.187 0.408-0.304 0.609-0.461 0.549-0.426 0.947-0.944 0.962-1.676 0.005-0.201 0.003-0.405-0.030-0.601-0.021-0.128-0.079-0.277-0.172-0.361-0.117-0.105-0.283-0.16-0.434-0.222-0.035-0.015-0.102 0.018-0.142 0.047-0.158 0.108-0.31 0.228-0.47 0.336-0.227 0.152-0.466 0.288-0.688 0.446-0.234 0.167-0.388 0.396-0.461 0.68-0.099 0.384-0.306 0.533-0.696 0.467-0.548-0.091-1.047-0.324-1.56-0.598 0.184-0.125 0.342-0.236 0.502-0.342 0.222-0.149 0.234-0.213 0.090-0.444-0.059-0.094-0.111-0.192-0.183-0.317 0.152 0 0.262 0.014 0.367-0.003 0.207-0.032 0.423-0.052 0.613-0.129 0.277-0.113 0.35-0.435 0.192-0.686-0.029-0.046-0.053-0.096-0.069-0.148-0.050-0.167 0.047-0.272 0.208-0.207 0.297 0.122 0.577 0.018 0.857-0.044 0.221-0.050 0.356-0.251 0.367-0.47 0.012-0.253-0.082-0.409-0.323-0.511-0.134-0.056-0.271-0.108-0.411-0.151-0.189-0.058-0.237-0.021-0.256 0.177-0.038 0.38-0.306 0.565-0.679 0.472-0.129-0.032-0.263-0.049-0.396-0.061-0.099-0.008-0.18 0.044-0.148 0.152 0.059 0.201 0.125 0.402 0.218 0.589 0.059 0.119 0.067 0.212 0.011 0.324-0.058 0.113-0.143 0.163-0.266 0.14-0.321-0.056-0.645-0.11-0.965-0.177-0.213-0.044-0.263-0.008-0.24 0.213 0.026 0.248 0.117 0.467 0.268 0.668 0.134 0.178 0.104 0.35-0.102 0.429-0.148 0.056-0.338 0.081-0.489 0.043-0.496-0.129-0.874-0.449-1.178-0.849-0.349-0.457-0.452-0.91-0.064-1.437 0.237-0.321 0.379-0.686 0.517-1.059 0.149-0.402 0.311-0.816 0.556-1.161 0.703-0.992 1.44-1.962 2.184-2.925 0.542-0.7 1.157-1.324 1.965-1.738 0.718-0.367 1.411-0.782 2.12-1.167 0.224-0.12 0.458-0.233 0.7-0.303 0.233-0.067 0.482-0.075 0.77-0.114-0.043 0.081-0.053 0.108-0.070 0.129-0.184 0.234-0.367 0.47-0.554 0.703-0.122 0.151-0.169 0.321-0.148 0.511 0.020 0.166 0.053 0.341 0.23 0.406 0.19 0.072 0.379 0.032 0.517-0.126 0.128-0.146 0.242-0.303 0.355-0.461 0.061-0.087 0.12-0.135 0.239-0.126 0.091 0.008 0.196-0.017 0.277-0.061 0.513-0.277 1.015-0.574 1.531-0.845 0.499-0.263 0.998-0.537 1.571-0.613 0.32-0.043 0.639-0.082 0.96-0.113 0.076-0.008 0.157 0.023 0.236 0.035-0.082 0.097-0.17 0.148-0.254 0.202-0.082 0.052-0.169 0.099-0.239 0.164-0.131 0.122-0.16 0.352-0.062 0.486 0.113 0.157 0.247 0.070 0.376 0.021 0.525-0.196 1.078-0.321 1.627-0.251 0.711 0.091 1.417 0.25 2.113 0.431 0.384 0.1 0.741 0.303 1.108 0.464 0.104 0.046 0.199 0.11 0.303 0.166-0.030 0.097-0.052 0.18-0.082 0.259-0.114 0.292-0.043 0.522 0.196 0.729 0.492 0.426 0.974 0.865 1.45 1.309 0.119 0.111 0.198 0.263 0.33 0.444-0.233 0.050-0.402 0.090-0.571 0.123-0.411 0.081-0.543 0.371-0.35 0.744 0.081 0.155 0.164 0.318 0.192 0.487 0.044 0.256 0.142 0.478 0.3 0.674 0.254 0.318 0.525 0.624 0.778 0.944 0.247 0.312 0.54 0.458 0.936 0.312 0.027-0.011 0.059-0.011 0.090-0.012 0.531-0.030 0.834-0.367 1.033-0.81 0.199-0.441 0.368-0.896 0.542-1.348 0.113-0.292 0.33-0.406 0.627-0.399 0.546 0.014 1.014 0.222 1.37 0.63 0.627 0.72 1.251 1.444 1.845 2.192 0.871 1.096 1.485 2.342 1.921 3.662 0.294 0.889 0.586 1.788 0.709 2.726 0.005 0.037 0.014 0.073 0.027 0.107 0.221 0.528 0.266 1.082 0.257 1.645-0.003 0.169 0.018 0.338 0.029 0.507 0 0.256 0 0.511 0 0.767-0.011 0.065-0.026 0.129-0.033 0.195-0.059 0.581-0.094 1.166-0.184 1.741-0.102 0.653-0.271 1.295-0.379 1.947-0.152 0.918-0.476 1.769-0.913 2.583-0.044 0.081-0.126 0.14-0.19 0.21-0.040-0.119-0.049-0.209-0.038-0.297 0.017-0.145 0.058-0.286 0.065-0.431 0.027-0.504 0.043-1.008 0.067-1.511 0.006-0.14 0.033-0.279 0.032-0.417-0.003-0.17-0.073-0.314-0.254-0.356-0.186-0.043-0.304 0.065-0.381 0.216-0.058 0.113-0.099 0.236-0.134 0.358-0.222 0.769-0.525 1.502-0.909 2.202-0.026 0.049-0.059 0.093-0.119 0.184-0.017-0.104-0.026-0.149-0.030-0.195-0.023-0.248-0.032-0.498-0.070-0.744-0.035-0.227-0.157-0.297-0.381-0.245-0.163 0.038-0.271 0.143-0.294 0.311-0.11 0.823-0.758 1.31-1.192 1.979-0.059-0.205-0.093-0.371-0.154-0.527-0.059-0.149-0.154-0.288-0.339-0.292-0.177-0.005-0.262 0.122-0.341 0.262-0.254 0.451-0.502 0.903-0.776 1.341-0.123 0.198-0.275 0.396-0.458 0.537-0.411 0.323-0.829 0.642-1.28 0.907-0.657 0.387-1.107 0.944-1.447 1.601-0.244 0.469-0.002 0.989 0.511 1.114 0.187 0.046 0.385 0.049 0.578 0.075 0.052 0.008 0.104 0.026 0.181 0.044-0.178 0.105-0.327 0.186-0.469 0.277-0.644 0.411-1.347 0.671-2.087 0.837-0.379 0.085-0.758 0.166-1.135 0.25-0.592 0.132-1.181 0.282-1.776 0.396-0.327 0.062-0.664 0.047-0.992-0.059 0.023-0.062 0.040-0.11 0.076-0.209-0.495 0.044-0.953 0.084-1.409 0.126-0.405 0.038-0.81 0.102-1.215 0.116-0.473 0.017-0.947-0.024-1.42-0.014-0.77 0.017-1.53 0.069-2.301-0.108-0.699-0.16-1.432-0.174-2.152-0.231-0.682-0.055-1.304-0.257-1.871-0.642-0.175-0.119-0.37-0.209-0.554-0.317-0.052-0.030-0.096-0.073-0.151-0.116 0.152-0.067 0.292-0.102 0.4-0.181 0.266-0.192 0.522-0.397 0.773-0.61 0.323-0.275 0.274-0.662-0.102-0.861-0.253-0.134-0.502-0.274-0.764-0.388-0.968-0.423-1.715-1.073-2.143-2.059-0.008-0.017-0.017-0.032-0.026-0.049-0.242-0.411-0.403-0.432-0.728-0.091-0.295-0.385-0.501-0.817-0.673-1.265-0.093-0.244-0.174-0.493-0.259-0.74-0.070-0.202-0.228-0.307-0.414-0.277-0.169 0.027-0.244 0.139-0.25 0.367-0.002 0.104-0.002 0.207-0.002 0.311 0 0.067 0 0.134 0 0.201-0.021 0.005-0.044 0.008-0.065 0.012-0.027-0.055-0.058-0.108-0.082-0.164-0.312-0.74-0.618-1.481-0.936-2.216-0.047-0.11-0.132-0.224-0.231-0.289-0.227-0.149-0.417-0.058-0.466 0.209-0.018 0.1-0.023 0.207-0.011 0.307 0.041 0.326 0.097 0.65 0.137 0.976 0.015 0.123 0.003 0.25 0.003 0.374-0.023 0.005-0.047 0.009-0.070 0.012-0.1-0.128-0.236-0.24-0.295-0.385-0.137-0.336-0.259-0.682-0.345-1.035-0.167-0.654-0.301-1.327-0.447-1.995zM15.955 9.678c-0.061-0.003-0.108-0.008-0.157-0.009-0.26-0.009-0.268-0.009-0.309 0.253-0.035 0.222-0.052 0.447-0.070 0.671-0.015 0.175-0.145 0.19-0.272 0.207-0.131 0.017-0.169-0.069-0.18-0.177-0.017-0.181-0.055-0.364-0.041-0.543 0.033-0.44 0.037-0.443-0.394-0.377-0.142 0.021-0.215 0.079-0.231 0.227-0.026 0.224-0.067 0.444-0.11 0.665-0.046 0.231-0.174 0.309-0.46 0.317-0.218 0.006-0.193-0.157-0.219-0.288-0.003-0.018-0.005-0.040-0.015-0.052-0.043-0.047-0.088-0.123-0.135-0.126-0.046-0.003-0.113 0.062-0.142 0.114-0.047 0.084-0.075 0.18-0.107 0.271-0.266 0.781-0.524 1.566-0.802 2.342-0.174 0.486-0.256 0.432 0.289 0.606 0.361 0.114 0.44 0.256 0.405 0.636-0.044 0.49-0.090 0.982-0.084 1.472 0.011 0.732-0.014 1.46-0.096 2.186-0.026 0.224-0.119 0.288-0.342 0.263-0.137-0.015-0.279-0.012-0.414 0.009-0.644 0.099-1.283 0.219-1.941 0.128-0.19-0.026-0.387-0.011-0.58-0.002-0.16 0.006-0.213 0.096-0.193 0.259 0.050 0.411 0.099 0.822 0.125 1.234 0.018 0.303 0.014 0.607-0.008 0.91-0.011 0.158 0.018 0.263 0.155 0.352 0.199 0.128 0.409 0.251 0.575 0.416 0.412 0.406 0.676 0.884 0.615 1.495-0.017 0.167 0.009 0.339 0.017 0.508 0.030 0.668 0.073 1.336 0.087 2.004 0.008 0.33-0.17 0.484-0.504 0.495-0.14 0.005-0.28-0.009-0.419-0.015-0.472-0.017-0.945-0.033-1.417-0.050-0.116-0.005-0.18 0.044-0.19 0.167-0.021 0.218-0.044 0.437-0.081 0.651-0.027 0.158 0.026 0.215 0.183 0.239 0.201 0.032 0.412 0.069 0.592 0.158 0.624 0.309 0.985 1.475 0.731 1.977-0.108 0.215-0.070 0.428 0.078 0.616 0.1 0.128 0.132 0.266 0.096 0.428-0.050 0.218-0.088 0.437-0.132 0.654 0.033 0.012 0.050 0.020 0.069 0.023 1.006 0.16 2.018 0.227 3.036 0.236 0.454 0.005 0.487-0.020 0.419-0.475-0.081-0.533 0.009-1.041 0.172-1.543 0.020-0.061 0.062-0.117 0.104-0.169 0.218-0.274 0.492-0.205 0.767-0.12 0.196 0.059 0.333 0.225 0.335 0.429 0.003 0.341-0.008 0.682-0.009 1.023-0.002 0.236 0.014 0.472-0.003 0.706-0.011 0.164 0.027 0.247 0.199 0.245 0.432-0.002 0.866 0.008 1.295-0.029 0.454-0.038 0.901-0.151 1.356-0.18 1.195-0.078 2.356-0.353 3.52-0.601 0.431-0.091 0.727-0.365 0.89-0.807-0.218-0.059-0.234-0.225-0.198-0.394 0.102-0.464 0.020-0.919-0.040-1.377-0.017-0.129-0.079-0.195-0.202-0.219-0.186-0.035-0.368-0.081-0.552-0.117-0.286-0.056-0.446-0.26-0.467-0.517-0.020-0.257-0.142-0.571 0.184-0.759 0.024-0.014 0.018-0.070 0.040-0.097 0.090-0.116 0.17-0.245 0.283-0.333 0.096-0.076 0.23-0.111 0.352-0.146 0.202-0.056 0.266-0.187 0.245-0.385-0.014-0.139-0.032-0.282-0.018-0.419 0.046-0.466 0.1-0.93 0.163-1.393 0.017-0.125-0.006-0.184-0.135-0.195-0.151-0.012-0.301-0.040-0.454-0.049-0.403-0.026-0.463-0.079-0.566-0.478-0.23-0.881-0.464-1.762-0.702-2.642-0.023-0.084-0.067-0.161-0.122-0.285-0.072 0.1-0.125 0.157-0.158 0.224-0.093 0.192-0.174 0.388-0.263 0.581-0.4 0.852-0.805 1.703-1.199 2.558-0.076 0.164-0.21 0.219-0.35 0.195-0.072-0.014-0.14-0.145-0.178-0.237-0.175-0.431-0.096-0.874-0.044-1.313 0.023-0.186 0.046-0.374 0.041-0.56-0.009-0.335-0.044-0.668-0.059-1.001-0.027-0.595-0.041-1.192-0.072-1.788-0.032-0.638-0.081-1.275-0.116-1.913-0.041-0.752-0.005-1.508-0.224-2.245-0.085-0.285 0.152-0.546 0.457-0.531 0.16 0.008 0.196-0.053 0.163-0.192-0.079-0.323-0.148-0.647-0.239-0.965-0.272-0.965-0.554-1.927-0.828-2.89-0.027-0.099-0.053-0.167-0.177-0.155-0.128 0.012-0.139 0.094-0.139 0.193 0.002 0.292 0.008 0.584-0.003 0.877-0.002 0.059-0.056 0.146-0.108 0.17-0.216 0.1-0.338 0.014-0.364-0.26-0.027-0.291-0.146-0.584 0.003-0.875 0.011-0.021-0.002-0.050-0.006-0.094zM7.283 5.348c-0.009-0.044-0.012-0.138-0.047-0.221-0.029-0.065-0.088-0.154-0.145-0.161-0.050-0.008-0.134 0.069-0.169 0.128-0.113 0.193-0.215 0.394-0.309 0.598-0.043 0.091-0.055 0.196-0.081 0.294 0.116 0.024 0.23 0.061 0.347 0.067 0.056 0.003 0.126-0.041 0.172-0.084 0.16-0.155 0.233-0.35 0.231-0.621z"></path>
<path d="M14.608 24.606c0 0.126 0.006 0.254-0.002 0.381-0.011 0.174-0.11 0.234-0.269 0.175-0.231-0.087-0.341-0.292-0.285-0.534 0.037-0.158 0.078-0.317 0.116-0.475 0.029-0.12 0.11-0.218 0.225-0.181 0.084 0.026 0.175 0.132 0.196 0.221 0.033 0.131 0.009 0.275 0.009 0.416 0.003-0.002 0.006-0.002 0.009-0.002z"></path>
<path d="M14.511 15.278c0.055-0.164 0.116-0.359 0.189-0.549 0.037-0.096 0.108-0.108 0.207-0.058 0.222 0.11 0.233 0.315 0.231 0.514-0.002 0.137-0.052 0.272-0.081 0.409-0.032 0.151-0.146 0.227-0.277 0.207-0.076-0.012-0.154-0.117-0.198-0.198-0.044-0.084-0.044-0.187-0.072-0.326z"></path>
<path d="M14.949 20.879c-0.020 0.050-0.030 0.151-0.087 0.207-0.157 0.157-0.271 0.12-0.391-0.067-0.164-0.262-0.081-0.527-0.024-0.785 0.015-0.067 0.146-0.152 0.221-0.149 0.070 0.003 0.174 0.102 0.193 0.178 0.050 0.186 0.059 0.382 0.088 0.616z"></path>
</svg>
