<!-- Generated by IcoMoon.io -->
<svg version="1.1" xmlns="http://www.w3.org/2000/svg" width="32" height="32" viewBox="0 0 32 32">
<title>fighters-trapper</title>
<path d="M18.139 1.4c0.132 0.076 0.157 0.21 0.172 0.341 0.111 0.991 0.161 1.983 0.044 2.979-0.024 0.2-0.035 0.402-0.039 0.602-0.012 0.471-0.050 0.938-0.158 1.4-0.032 0.136-0.025 0.282-0.025 0.424-0.001 0.12 0.067 0.175 0.183 0.132 0.095-0.036 0.158-0.014 0.239 0.047 0.082 0.064 0.188 0.106 0.29 0.133 0.315 0.087 0.614 0.2 0.87 0.412 0.058 0.048 0.138 0.076 0.213 0.093 0.56 0.128 1.118 0.256 1.682 0.373 0.296 0.061 0.386-0.033 0.355-0.339-0.038-0.372-0.101-0.736-0.242-1.086-0.115-0.286-0.207-0.581-0.315-0.87-0.036-0.1-0.096-0.192-0.141-0.287-0.018-0.037-0.025-0.078-0.037-0.119 0.407-0.057 0.482-0.012 0.585 0.234 0.024 0.054 0.108 0.086 0.169 0.119 0.075 0.040 0.178 0.053 0.23 0.111 0.211 0.236 0.418 0.481 0.606 0.736 0.193 0.26 0.346 0.551 0.55 0.799 0.139 0.171 0.318 0.327 0.511 0.429 0.518 0.278 0.996 0.607 1.432 1.002 0.286 0.26 0.593 0.499 0.892 0.747 0.164 0.138 0.296 0.298 0.353 0.513 0.036 0.139 0.027 0.254-0.086 0.361-0.133 0.125-0.104 0.233 0.066 0.302 0.068 0.027 0.14 0.068 0.209 0.065 0.079-0.003 0.181-0.022 0.23-0.075 0.081-0.086 0.164-0.136 0.279-0.136 0.107 0 0.215-0.005 0.322 0.007 0.151 0.018 0.231 0.126 0.308 0.247 0.050 0.078 0.123 0.156 0.205 0.19 0.258 0.108 0.524 0.197 0.705 0.431 0.021 0.025 0.051 0.046 0.082 0.063 0.501 0.296 0.999 0.601 1.507 0.887 0.205 0.115 0.393 0.225 0.508 0.445 0.104 0.197 0.3 0.272 0.517 0.295 0.247 0.025 0.288 0.057 0.29 0.309 0.001 0.12-0.040 0.242-0.063 0.363-0.102-0.038-0.213-0.061-0.306-0.115-0.25-0.143-0.518-0.189-0.803-0.213-0.561-0.046-1.122-0.12-1.682-0.18-0.272-0.028-0.546-0.050-0.821-0.074-0.019-0.001-0.040-0.001-0.057-0.010-0.529-0.257-1.144-0.183-1.675-0.434-0.044-0.021-0.104-0.014-0.157-0.012-0.169 0.003-0.34 0.027-0.507 0.008-0.561-0.059-1.118-0.143-1.68-0.197-0.46-0.044-0.904-0.132-1.318-0.336-0.351-0.173-0.711-0.214-1.101-0.189-0.228 0.014-0.468-0.044-0.69-0.113-0.23-0.070-0.26-0.367-0.112-0.553 0.145-0.182 0.258-0.391 0.368-0.598 0.057-0.107-0.010-0.201-0.14-0.217-0.172-0.021-0.346-0.086-0.52 0.008-0.031 0.016-0.095-0.012-0.135-0.034-0.288-0.157-0.596-0.252-0.918-0.303-0.024-0.004-0.048-0.011-0.069-0.021-0.322-0.154-0.643-0.311-0.964-0.464-0.067-0.031-0.138-0.054-0.209-0.068-0.357-0.076-0.453-0.039-0.591 0.295-0.257 0.618-0.604 1.171-1.065 1.661-0.285 0.303-0.537 0.637-0.803 0.958-0.081 0.099-0.060 0.279 0.067 0.399 0.288 0.275 0.583 0.539 0.875 0.809 0.14 0.129 0.275 0.264 0.419 0.389 0.111 0.096 0.225 0.19 0.347 0.268 0.326 0.209 0.343 0.466 0.040 0.705-0.016 0.012-0.031 0.023-0.047 0.036-0.239 0.182-0.299 0.327-0.161 0.464 0.267 0.264 0.49 0.401 0.743 0.163 0.028-0.027 0.054-0.057 0.083-0.083 0.145-0.131 0.31-0.142 0.446-0.003 0.299 0.305 0.604 0.606 0.872 0.936 0.235 0.289 0.486 0.556 0.8 0.752 0.478 0.297 0.857 0.682 1.125 1.179 0.096 0.179 0.253 0.329 0.464 0.313 0.194-0.015 0.3-0.21 0.34-0.37 0.097-0.384 0.354-0.675 0.527-1.012 0.051-0.102 0.125-0.15 0.244-0.146 0.089 0.004 0.136 0.032 0.155 0.119 0.046 0.209 0.164 0.328 0.39 0.354 0.185 0.022 0.256 0.193 0.269 0.346 0.061 0.663 0.335 1.252 0.582 1.856 0.286 0.696 0.511 1.419 0.79 2.118 0.275 0.692 0.575 1.373 0.883 2.050 0.111 0.243 0.285 0.456 0.418 0.691 0.108 0.19 0.204 0.388 0.296 0.586 0.025 0.055 0.025 0.125 0.022 0.188-0.012 0.238-0.215 0.363-0.432 0.268-0.053-0.024-0.111-0.050-0.151-0.089-0.362-0.35-0.814-0.562-1.245-0.803-0.033-0.018-0.083-0.044-0.108-0.031-0.143 0.070-0.254-0.008-0.375-0.061-0.293-0.126-0.586-0.249-0.879-0.374-0.008-0.004-0.018-0.006-0.027-0.011-0.34-0.167-0.686-0.327-1.021-0.503-0.389-0.204-0.808-0.296-1.239-0.35s-0.857-0.095-1.29-0.007c-0.129 0.026-0.275-0.039-0.414-0.050-0.252-0.021-0.505-0.036-0.758-0.049-0.2-0.008-0.4-0.011-0.6-0.007-0.126 0.003-0.253 0.029-0.381 0.031-0.167 0.001-0.22-0.067-0.188-0.232 0.047-0.239 0.201-0.384 0.404-0.511 0.419-0.263 0.833-0.536 1.23-0.83 0.25-0.184 0.317-0.462 0.263-0.766-0.039-0.216 0.014-0.275 0.237-0.267 0.087 0.003 0.174 0 0.269 0 0-0.194 0.007-0.371-0.003-0.545-0.008-0.139-0.096-0.216-0.235-0.243-0.21-0.042-0.387 0.007-0.538 0.161-0.162 0.164-0.247 0.139-0.424 0.001-0.276-0.218-0.453-0.493-0.58-0.813-0.037-0.092-0.113-0.173-0.185-0.244-0.261-0.26-0.55-0.481-0.871-0.669-0.319-0.186-0.607-0.429-0.9-0.659-0.22-0.172-0.42-0.37-0.642-0.541-0.178-0.138-0.366-0.265-0.564-0.37-0.197-0.104-0.349-0.243-0.492-0.411-0.338-0.4-0.69-0.788-1.043-1.175-0.132-0.145-0.218-0.118-0.272 0.075-0.051 0.181-0.172 0.276-0.35 0.317-0.516 0.118-0.971 0.361-1.378 0.695-0.136 0.111-0.172 0.117-0.254-0.036-0.048-0.089-0.087-0.186-0.121-0.282-0.046-0.128-0.133-0.174-0.262-0.162-0.258 0.025-0.422 0.239-0.389 0.509 0.011 0.087 0.039 0.175 0.028 0.261-0.022 0.204-0.203 0.377-0.411 0.402-0.181 0.021-0.34 0.071-0.471 0.213-0.051 0.057-0.143 0.079-0.218 0.113-0.285 0.128-0.571 0.256-0.857 0.385-0.114 0.051-0.228 0.11-0.344 0.154-0.106 0.039-0.153 0.114-0.138 0.214 0.039 0.275 0.072 0.553 0.136 0.823 0.089 0.36 0.203 0.716 0.312 1.072 0.083 0.271 0.172 0.541 0.269 0.807 0.022 0.063 0.079 0.139 0.134 0.154 0.038 0.011 0.118-0.061 0.153-0.113 0.074-0.11 0.134-0.227 0.192-0.346 0.224-0.457 0.441-0.917 0.671-1.372 0.025-0.050 0.118-0.098 0.174-0.093 0.057 0.005 0.135 0.066 0.157 0.122 0.093 0.232 0.061 0.47 0.003 0.708-0.072 0.299-0.156 0.598-0.196 0.902-0.025 0.2 0.018 0.409 0.029 0.613 0.031 0.538 0.037 1.079 0.096 1.614 0.092 0.848 0.22 1.69 0.333 2.535 0.005 0.039 0.012 0.077 0.014 0.117 0.039 0.56 0.075 1.122 0.119 1.682 0.023 0.293 0.044 0.588 0.097 0.877 0.027 0.149 0.111 0.291 0.186 0.425 0.128 0.225 0.28 0.438 0.404 0.665 0.132 0.239 0.032 0.441-0.222 0.527-0.104 0.036-0.193 0.121-0.289 0.184-0.010 0-0.019 0-0.029 0-0.222-0.115-0.274-0.332-0.323-0.55-0.181-0.799-0.531-1.512-1.075-2.127-0.036-0.039-0.078-0.076-0.122-0.102-0.434-0.256-0.786-0.599-1.090-0.996-0.288-0.377-0.561-0.768-0.872-1.125-0.25-0.288-0.542-0.538-0.821-0.798-0.194-0.181-0.418-0.331-0.592-0.527-0.381-0.428-0.743-0.874-1.105-1.32-0.119-0.147-0.214-0.314-0.329-0.484 0.231-0.072 0.407 0.015 0.576 0.111 0.244 0.139 0.496 0.238 0.782 0.217 0.176-0.012 0.351-0.038 0.526-0.064 0.274-0.042 0.344-0.193 0.19-0.42-0.189-0.281-0.303-0.589-0.379-0.917-0.037-0.159-0.107-0.313-0.168-0.467-0.065-0.163-0.166-0.316-0.201-0.484-0.087-0.413-0.244-0.795-0.445-1.16-0.038-0.070-0.136-0.139-0.214-0.149-0.375-0.043-0.751-0.081-1.128-0.090-0.529-0.014-1.061-0.001-1.59 0-0.162 0-0.331-0.026-0.484 0.008-0.407 0.090-0.801 0.029-1.197-0.047-0.303-0.057-0.618-0.104-0.73-0.464 0-0.019 0-0.039 0-0.059 0.018-0.007 0.036-0.018 0.054-0.022 0.325-0.066 0.662-0.096 0.95-0.292 0.029-0.019 0.076-0.019 0.114-0.018 0.23 0.006 0.382-0.111 0.517-0.288 0.102-0.133 0.229-0.256 0.365-0.354 0.146-0.106 0.218-0.224 0.215-0.405-0.005-0.231 0.003-0.461 0.012-0.692 0.005-0.13 0.061-0.233 0.183-0.298 0.236-0.125 0.235-0.128 0.031-0.306-0.022-0.019-0.046-0.039-0.063-0.061-0.059-0.075-0.104-0.146-0.055-0.254 0.033-0.072 0.046-0.163 0.037-0.242-0.012-0.1-0.063-0.195-0.087-0.295-0.033-0.133-0.098-0.196-0.243-0.146-0.115 0.040-0.16-0.035-0.186-0.13-0.025-0.092 0.010-0.139 0.103-0.152 0.122-0.015 0.134-0.1 0.078-0.179-0.053-0.074-0.135-0.125-0.222-0.202 0.082-0.019 0.156-0.051 0.231-0.053 0.678-0.014 1.339-0.122 1.989-0.306 0.039-0.011 0.085-0.007 0.126-0.005 0.119 0.004 0.237 0.017 0.355 0.010 0.136-0.009 0.271-0.055 0.406-0.050 0.301 0.015 0.579-0.051 0.859-0.159 0.4-0.154 0.808-0.291 1.217-0.422 0.645-0.207 1.269-0.448 1.852-0.807 0.583-0.36 1.080-0.827 1.622-1.236 0.024-0.017 0.043-0.040 0.064-0.061 0.192-0.189 0.389-0.374 0.576-0.567 0.218-0.223 0.435-0.45 0.642-0.684 0.135-0.152 0.252-0.323 0.379-0.482 0.143-0.179 0.308-0.345 0.43-0.536 0.171-0.268 0.295-0.564 0.465-0.833 0.368-0.577 0.703-1.164 0.824-1.849 0.016-0.089 0.063-0.142 0.169-0.149 0.059-0.004 0.136-0.053 0.168-0.104 0.177-0.287 0.366-0.57 0.505-0.874 0.125-0.275 0.178-0.58 0.286-0.863 0.11-0.285 0.168-0.574 0.156-0.876-0.017-0.422-0.044-0.842-0.064-1.263-0.010-0.207 0.025-0.25 0.239-0.311 0.1 0.175 0.236 0.341 0.293 0.531 0.113 0.378 0.188 0.767 0.267 1.155 0.026 0.128 0.064 0.238 0.186 0.296 0.155 0.075 0.31 0.152 0.471 0.204 0.099 0.032 0.215 0.044 0.317 0.028 0.333-0.054 0.557-0.26 0.683-0.564 0.197-0.478 0.264-0.986 0.316-1.495 0.019-0.196 0.025-0.392 0.186-0.536 0.039 0.007 0.079 0.007 0.118 0.007zM17.172 7.979c-0.003 0-0.005 0-0.007 0 0-0.118 0.008-0.236-0.003-0.352-0.016-0.169-0.092-0.311-0.24-0.402-0.316-0.188-0.646-0.306-1.024-0.201-0.175 0.048-0.36 0.068-0.527 0.131-0.808 0.309-1.088 1.284-0.552 1.957 0.353 0.443 0.857 0.559 1.397 0.559 0.166 0 0.326-0.033 0.449-0.153 0.267-0.256 0.446-0.558 0.467-0.937 0.012-0.201 0.025-0.402 0.039-0.602zM5.007 16.232c-0.027 0.421 0.209 0.716 0.567 0.845 0.074 0.028 0.145 0.061 0.211 0.102 0.147 0.092 0.304 0.107 0.468 0.068 0.325-0.078 0.587-0.267 0.829-0.486 0.057-0.051 0.1-0.142 0.11-0.218 0.060-0.584 0.035-1.147-0.402-1.611-0.177-0.189-0.276-0.181-0.361 0.059-0.039 0.107-0.1 0.136-0.214 0.115-0.117-0.022-0.247-0.038-0.361-0.010-0.454 0.117-0.857 0.671-0.846 1.136zM12.646 11.548c-0.179 0.025-0.346 0.044-0.51 0.070-0.207 0.032-0.383 0.118-0.511 0.289-0.239 0.317-0.14 1.026 0.178 1.266 0.031 0.024 0.067 0.043 0.103 0.057 0.161 0.060 0.318 0.133 0.485 0.171 0.106 0.023 0.237 0.018 0.336-0.024 0.314-0.135 0.621-0.292 0.929-0.442 0.229-0.11 0.243-0.152 0.164-0.387-0.037-0.111-0.119-0.24-0.091-0.334 0.050-0.165-0.028-0.282-0.078-0.409-0.079-0.206-0.296-0.246-0.471-0.323-0.055-0.024-0.151 0.057-0.232 0.079-0.050 0.015-0.104 0.018-0.157 0.014-0.054-0.004-0.106-0.019-0.146-0.028zM18.297 7.595c-0.020 0.204 0.029 0.287 0.206 0.367 0.201 0.090 0.402 0.182 0.607 0.264 0.044 0.018 0.103-0.001 0.156-0.004-0.019-0.060-0.022-0.153-0.064-0.174-0.293-0.157-0.593-0.299-0.906-0.453zM14.597 6.049c-0.218-0.003-0.336 0.096-0.303 0.247 0.010 0.046 0.048 0.108 0.083 0.117 0.033 0.007 0.099-0.039 0.117-0.079 0.046-0.089 0.070-0.188 0.103-0.286zM22.521 8.878c-0.003-0.022-0.007-0.043-0.011-0.065-0.067-0.027-0.132-0.058-0.2-0.076-0.008-0.003-0.058 0.075-0.050 0.103 0.015 0.049 0.064 0.128 0.093 0.126 0.057-0.005 0.112-0.057 0.167-0.088z"></path>
</svg>
