<!-- Generated by IcoMoon.io -->
<svg version="1.1" xmlns="http://www.w3.org/2000/svg" width="512" height="512" viewBox="0 0 512 512">
<title>monsters-of-order</title>
<g id="icomoon-ignore">
</g>
<path d="M262.16 73.808c-6.432 9.040-11.392 17.6-17.92 24.8-8.768 9.728-20.752 12.064-33.504 11.664-3.408-0.096-6.928 1.744-10.128 3.104-0.976 0.384-1.552 2.336-1.952 3.696-1.552 5.648-2.816 11.376-4.384 17.024-1.36 4.96-0.688 6.416 4.384 7.872 0.88 0.288 1.84 0.688 2.624 1.264 11.888 8.848 22.4 19.056 32.528 29.952 5.152 5.648 7.6 10.8 6.928 18.288-0.288 3.408 1.456 6.912 2.24 10.4 3.504-1.264 7.12-2.432 10.608-3.888 0.784-0.288 1.36-1.744 1.552-2.72 2.432-9.824 3.6-19.248-4.976-27.136-2.528-2.336-3.984-5.84-6.32-8.464-2.528-2.816-5.264-5.648-8.384-7.872-6.704-4.672-13.536-9.136-17.92-16.432-1.072-1.84-3.312-2.912-5.536-4.864 1.552-2.432 2.912-5.152 4.864-7.296 2.144-2.432 4.88-3.008 8.384-2.048 3.888 1.072 8.192 1.072 12.176 1.648 2.048 0.288 4.384 0.48 5.952 1.552 7.504 5.536 15.792 9.328 24.736 11.968 3.6 1.072 6.608 3.792 9.936 5.744 6.928 3.984 13.536 8.464 20.848 11.76 10.224 4.672 18.112 12.16 26.592 18.96 1.952 1.552 4.080 3.6 6.32 4.080 2.336 0.48 5.76 0.288 7.312-1.072 7.504-6.608 14.704-13.52 21.52-20.72 1.952-2.048 3.104-5.744 2.912-8.464-0.192-2.432-2.816-4.672-4.272-7.008-2.048 1.552-4.176 2.912-6.048 4.768-5.648 5.44-11.008 11.184-16.752 16.624-2.048 1.84-4.48 2.048-6.816-0.384-2.816-2.912-5.856-5.536-9.056-8.064s-4-4.384-0.784-8.064c12.752-15.072 25.024-30.528 37.504-45.904 5.76-7.008 12.368-10.704 21.52-6.704 1.168 0.48 2.528 0.688 3.792 0.576 4.672-0.384 7.216 2.336 7.504 6.416 0.288 4.48 3.12 3.984 3.216 7.68s3.696 14.976-0.288 26.64c-3.712 7.584-7.216 14.496-10.416 21.584-1.952 4.176-3.12 8.752-5.264 12.736-2.912 5.344-6.528 10.304-9.84 15.456-1.84 2.816-3.504 5.744-5.248 8.656-4.176 7.008-8.384 14-12.656 20.912-5.152 8.464-10.72 16.624-15.392 25.28-2.24 4.176-3.6 9.232-4.176 14-1.744 14.976 2.624 29.264 5.76 43.664 2.144 10.304 5.552 19.936 10.224 29.376 2.144 4.272 1.168 7.776-2.528 11.088-8.864 7.968-17.728 15.952-26.208 24.304-11.296 11.184-22.304 22.752-33.216 34.336-8.288 8.752-16.272 17.696-24.24 26.736-1.552 1.744-2.528 3.984-4.176 6.608-0.784-0.288-2.336-0.384-3.104-1.264-3.712-3.984-7.408-8.064-10.72-12.448-11.488-14.976-22.496-30.336-34.48-45.024-3.792-4.672-9.648-7.776-14.8-11.376-7.504-5.344-15.2-10.496-22.784-15.664-2.528-1.744-5.056-3.312-7.792-4.768-2.912-1.552-3.504-3.696-1.744-6.224 5.44-7.68 7.696-16.048 8.384-25.568 0.688-9.632 3.792-19.056 5.856-28.592 0.288-1.552 0.576-3.216 0.576-4.768 0.288-8.656 0.48-17.408 0.976-26.064 0.096-1.456 0.976-2.912 1.744-4.176 3.792-5.648 4.080-9.136-0.192-13.904-5.056-5.648-10.72-10.8-16.176-16.048-3.696-3.6-6.608-8.272-12.848-8.176-0.88 0-2.24-1.84-2.72-3.104-4.496-11.28-11.488-20.912-18.992-30.336-2.912-3.696-4.784-8.064-10.032-9.824-2.624-0.88-2.912-4.384-1.168-7.104 0.576-0.976 1.456-1.648 2.144-2.624 5.264-6.912 5.168-7.296-2.72-11.872-4.496-2.624-4.592-6.32-0.688-10.016 1.36-1.264 2.816-3.216 2.912-4.864 0.576-8.272 6.624-13.52 10.512-19.936 5.648-9.328 11.2-18.768 16.848-28.096 1.456-2.336 3.312-4.384 4.672-6.704 1.36-2.432 2.048-5.152 3.408-7.68 0.784-1.456 2.048-3.696 3.312-3.792 7.792-0.784 15.376-1.648 23.28 1.264 7.6 2.816 15.888 5.152 23.856 4.96 8.768-0.192 16.64 2.624 24.928 3.696 8.864 1.168 17.728 2.912 26.496 4.48 2.144-0.096 3.888 0.48 7.6 1.456zM265.856 375.664c0.48-5.44-3.696-9.536-11.584-10.304-4.96-0.48-10.608 5.44-10.816 10.8-0.192 5.152 6.24 13.232 10.512 13.328 4.672 0.096 11.888-8.272 11.888-13.808z"></path>
<path d="M128.624 382.176c7.408-7.872 14.416-15.168 21.040-22.656 1.744-1.952 2.624-4.672 3.792-7.2 1.456-3.12 3.216-3.504 6.048-1.456 1.84 1.36 4.496 1.552 6.336 2.816 5.264 3.504 11.008 6.8 15.472 11.184 18.016 17.312 34.768 35.584 48.608 56.496 6.144 9.328 11.984 18.864 17.92 28.304 1.952 3.12 3.504 3.504 6.816 1.072 14.016-10.608 22.688-25.568 33.6-38.896 6.144-7.488 12.656-14.592 19.088-21.68 7.504-8.368 15.088-16.624 22.592-24.992 5.344-5.936 10.512-12.16 15.984-17.984 3.408-3.696 4.576-3.312 6.928 1.072 4.576 8.56 9.152 17.12 13.92 25.68 1.072 1.952 2.528 3.792 4.176 5.248 3.312 2.912 2.24 4.864-0.576 7.392-10.816 9.92-22.016 19.456-31.952 30.336-9.344 10.304-16.96 22.272-25.904 33.056-9.936 11.968-20.256 23.632-31.072 34.912-8.672 9.136-18.224 17.408-27.376 26.064-1.84 1.744-9.248 1.36-11.008-1.072-3.984-5.536-7.6-11.472-11.392-17.216-7.984-11.76-15.792-23.632-26.496-33.36-4.272-3.888-7.216-9.328-10.512-14.288-9.248-13.904-22.496-23.824-34.592-34.816-9.344-8.56-19.392-16.336-29.12-24.608-0.976-0.784-1.552-2.24-2.336-3.408zM251.728 492.448c7.696 0.48 11.296-7.584 11.68-14.288 0.384-5.744-4.976-10.496-10.72-10.4-7.12 0.096-15.184 6.416-15.088 11.664 0.096 5.536 8.288 14.288 14.112 13.024zM313.584 423.696c0.096-5.84-4.272-9.824-11.008-10.016-5.76-0.192-12.176 6.32-12.272 12.448-0.096 5.744 6.24 12.832 11.392 12.832 5.856 0 11.776-7.68 11.888-15.264zM334.048 380.72c0 0.976-0.096 1.952 0 2.912 0.384 4.48 3.792 8.368 8.48 9.44 4.176 0.976 8.192 0.192 10.128-3.696 2.528-5.056 3.984-10.608 1.648-16.24-0.576-1.36-1.84-2.624-3.104-3.408-9.648-5.152-17.152-0.288-17.152 10.992zM175.184 383.344c0-7.296-4.384-12.832-9.744-13.328-5.76-0.576-11.68 4.48-11.872 11.28-0.192 5.44 6.336 11.184 12.272 11.184 4.672-0.096 9.344-4.576 9.344-9.136zM203.712 434.208c6.432 0.096 9.648-2.912 9.648-9.232 0.096-6.608-5.248-12.064-11.776-12.16-5.648-0.096-8.288 2.624-8.384 8.656-0.096 8.176 3.504 12.64 10.512 12.736z"></path>
<path d="M357.024 79.552c-2.144 2.72-4.176 6.032-7.12 8.56-7.12 6.416-11.776 14.4-17.152 22.176-6.048 8.752-14.112 16.048-21.712 23.632-1.072 1.072-4.48 1.168-6.144 0.384-7.888-3.792-15.696-7.968-23.472-12.064-4-2.144-3.6-3.104-0.688-6.704 7.888-9.824 15.296-20.128 22.976-30.144 6.336-8.272 12.848-16.336 19.584-24.304 0.88-1.072 2.816-1.648 4.272-1.648 6.608 0.096 13.248 0.688 19.776 0.784 3.408 0.096 5.344 1.36 6.144 4.768 0.976 4.576 2.144 9.040 3.504 14.592z"></path>
<path d="M283.888 17.696c6.24 0.976 12.368 1.552 18.224 3.216 1.84 0.48 3.216 3.888 3.984 6.224 1.84 5.248 3.504 10.608 4.48 16.048 0.48 2.528 0.096 5.84-1.264 7.968-6.144 9.728-12.656 19.248-19.184 28.688-4.48 6.416-9.152 12.736-13.92 18.96-3.216 4.272-6.432 8.656-10.032 12.544-2.912 3.216-10.32 1.072-11.776-3.104-0.288-0.784 0.576-2.528 1.36-3.104 8.96-6.32 14.016-15.856 19.68-24.704 2.144-3.504 3.504-7.488 4.784-11.376s-1.36-7.776-6.048-8.752c-6.928-1.456-13.92-2.432-20.848-3.792-1.744-0.288-3.504-0.784-5.056-1.552-2.336-1.168-3.888-2.336-1.552-5.44 5.952-7.872 11.392-16.24 17.152-24.208 3.216-4.48 8.48-5.248 13.44-6.224 2.432-0.48 4.672-0.976 6.624-1.36z"></path>
<path d="M174.688 42.4c0.88-1.952 1.168-3.216 1.952-4.176 5.856-7.776 11.888-15.552 17.824-23.248 1.552-2.048 3.104-4.176 4.768-6.032 2.624-2.912 5.552-4.864 9.744-6.32 8.384-2.816 16.656-2.048 25.024-2.528 3.792-0.192 5.44 1.552 6.816 4.48 1.84 4.272 3.984 8.368 5.76 12.736 0.576 1.36 0.48 3.504-0.192 4.864-4.48 7.968-9.248 15.76-13.728 23.728-1.552 2.816-3.504 4.368-6.928 3.888-10.512-1.456-21.040-2.816-31.456-4.272-6.336-0.976-12.56-2.048-19.584-3.12z"></path>
</svg>
