<!-- Generated by IcoMoon.io -->
<svg version="1.1" xmlns="http://www.w3.org/2000/svg" width="37" height="32" viewBox="0 0 37 32">
<title>fighter-mount</title>
<path d="M21.545 0c0.078 0 0.156 0 0.235 0 0.062 0.013 0.124 0.033 0.186 0.039 0.292 0.031 0.584 0.054 0.875 0.088 0.243 0.028 0.284 0.096 0.269 0.333-0.010 0.153 0.005 0.31 0.023 0.465 0.020 0.174 0.072 0.346 0.081 0.52 0.049 0.866 0.091 1.731 0.129 2.598 0.020 0.45 0.165 0.572 0.614 0.523 0.303-0.033 0.611-0.051 0.916-0.055 0.403-0.008 0.808 0.021 1.209 0.002 0.957-0.047 1.912-0.116 2.869-0.174 0.142-0.008 0.285-0.002 0.333 0.168 0.051 0.184-0.059 0.403-0.222 0.465-0.231 0.088-0.466 0.165-0.694 0.262-0.075 0.033-0.129 0.111-0.194 0.168 0.062 0.051 0.116 0.119 0.186 0.15 0.31 0.135 0.636 0.238 0.934 0.394 0.316 0.166 0.636 0.246 0.991 0.235 0.51-0.015 1.015 0.016 1.506 0.178 0.129 0.042 0.258 0.067 0.235 0.249-0.023 0.181-0.111 0.272-0.3 0.295-0.212 0.026-0.421 0.078-0.626 0.14-0.214 0.065-0.253 0.272-0.075 0.414 0.135 0.108 0.29 0.204 0.451 0.264 0.354 0.132 0.712 0.254 1.076 0.347 0.174 0.046 0.381 0.062 0.551 0.013 0.318-0.093 0.592-0.026 0.859 0.129 0.231 0.134 0.253 0.207 0.173 0.466-0.086 0.277-0.029 0.342 0.264 0.365 0.337 0.026 0.672 0.068 1.007 0.112 0.054 0.007 0.134 0.057 0.143 0.101 0.073 0.323 0.166 0.645 0.186 0.973 0.023 0.373 0.013 0.396 0.386 0.412 0.378 0.015 0.657 0.324 0.629 0.703-0.018 0.264-0.021 0.531-0.065 0.791-0.039 0.235-0.002 0.451 0.072 0.668 0.155 0.465 0.189 0.942 0.165 1.426-0.018 0.357-0.038 0.712-0.065 1.069-0.034 0.434-0.049 0.87-0.126 1.297-0.057 0.315-0.222 0.61-0.305 0.923-0.261 0.981-0.771 1.803-1.478 2.53-0.812 0.835-1.775 1.415-2.864 1.77-0.87 0.285-1.77 0.481-2.66 0.704-0.895 0.225-1.806 0.231-2.719 0.186-0.171-0.008-0.261-0.088-0.29-0.256-0.038-0.228 0.057-0.377 0.308-0.438 0.786-0.196 1.542-0.469 2.279-0.805 0.628-0.285 1.276-0.525 1.902-0.815 1.221-0.569 2.223-1.377 2.657-2.707 0.173-0.526 0.271-1.086 0.333-1.638 0.047-0.422 0.052-0.872-0.044-1.283-0.171-0.722-0.293-1.477-0.782-2.083-0.134-0.165-0.266-0.333-0.419-0.478-0.28-0.264-0.663-0.285-1.009-0.394-0.763-0.24-1.531-0.181-2.295 0.007-0.156 0.039-0.256 0.148-0.244 0.311 0.026 0.375 0.046 0.753 0.108 1.125 0.065 0.398 0.21 0.782 0.258 1.18 0.075 0.628 0.359 1.149 0.722 1.641 0.205 0.279 0.5 0.476 0.818 0.535 0.391 0.073 0.773 0.15 1.151 0.28 0.531 0.183 0.758 0.663 0.489 1.152-0.479 0.87-1.325 1.319-2.119 1.826-0.005 0.003-0.011 0.005-0.018 0.007-0.248 0.078-0.407 0.026-0.554-0.189-0.323-0.471-0.755-0.805-1.281-1.019-0.302-0.122-0.605-0.24-0.91-0.355-0.794-0.302-1.568-0.636-2.238-1.175-0.217-0.174-0.458-0.321-0.698-0.463-0.644-0.38-1.172-0.888-1.637-1.464-0.127-0.158-0.205-0.36-0.279-0.554-0.047-0.122-0.103-0.187-0.235-0.179-0.085 0.005-0.17-0.003-0.254 0.008-0.194 0.026-0.244 0.117-0.168 0.295 0.272 0.634 0.66 1.185 1.206 1.61 0.499 0.388 1.011 0.76 1.519 1.134 0.264 0.194 0.261 0.336-0.007 0.517-0.083 0.055-0.163 0.135-0.209 0.223-0.127 0.241-0.067 0.587 0.116 0.791 0.070 0.078 0.14 0.155 0.205 0.235 0.22 0.266 0.202 0.564-0.042 0.8-0.346 0.334-0.681 0.68-1.038 1.001-0.624 0.564-1.11 1.244-1.622 1.901-0.049 0.064-0.099 0.15-0.099 0.225-0.002 0.306-0.174 0.482-0.411 0.641-0.117 0.078-0.218 0.202-0.284 0.328-0.096 0.184-0.034 0.269 0.173 0.272 0.737 0.013 1.474 0.031 2.21 0.029 0.769 0 1.537-0.013 2.306-0.029 0.73-0.015 1.459-0.044 2.189-0.062 0.145-0.003 0.23-0.044 0.233-0.212 0.007-0.295-0.002-0.313-0.308-0.315-0.046 0-0.093 0-0.137-0.010-0.147-0.033-0.223-0.121-0.222-0.277 0.003-0.148 0.036-0.274 0.209-0.305 0.288-0.052 0.575-0.116 0.866-0.148 0.121-0.013 0.271 0.011 0.37 0.077 0.275 0.183 0.509 0.143 0.747-0.059 0.274-0.231 0.587-0.373 0.942-0.445 0.344-0.070 0.683-0.166 1.015-0.277 0.401-0.132 0.795-0.288 1.19-0.44 0.29-0.112 0.311-0.106 0.417 0.192 0.033 0.091 0.055 0.189 0.095 0.277 0.096 0.21 0.049 0.365-0.14 0.504-0.204 0.15-0.409 0.308-0.579 0.496-0.14 0.155-0.258 0.344-0.337 0.538-0.093 0.227-0.020 0.313 0.222 0.329 0.104 0.007 0.209 0.005 0.313 0.003 0.763-0.011 1.524-0.024 2.287-0.033 0.225-0.002 0.45 0.010 0.675 0.023 0.046 0.003 0.124 0.038 0.127 0.065 0.018 0.158 0.065 0.334 0.013 0.471-0.064 0.17-0.192 0.331-0.329 0.455-0.463 0.419-0.913 0.861-1.421 1.219-1.568 1.11-3.156 2.197-4.895 3.030-0.556 0.266-1.133 0.491-1.713 0.699-0.451 0.163-0.931 0.249-1.384 0.411-1.666 0.593-3.39 0.916-5.141 1.118-0.29 0.034-0.587 0.010-0.879 0.033-0.544 0.042-1.087 0.101-1.63 0.147-0.246 0.021-0.492 0.028-0.738 0.039-0.365 0-0.73 0-1.095 0-0.051-0.010-0.099-0.024-0.152-0.031-0.543-0.073-1.086-0.14-1.627-0.218-1.415-0.204-2.782-0.598-4.153-0.998-1.966-0.572-3.824-1.363-5.526-2.507-0.579-0.39-1.13-0.817-1.703-1.211-0.777-0.535-1.434-1.206-2.127-1.839-0.018-0.016-0.031-0.039-0.051-0.065 0.54-0.204 1.086-0.303 1.651-0.244 0.212 0.021 0.346-0.057 0.447-0.222-0.075-0.179-0.217-0.24-0.393-0.243-0.156-0.003-0.315 0.002-0.468-0.021-0.112-0.016-0.218-0.073-0.364-0.125 0.098-0.091 0.148-0.155 0.212-0.196 0.333-0.205 0.659-0.427 1.009-0.595 0.204-0.099 0.452-0.147 0.678-0.148 0.14 0 0.347 0.096 0.407 0.21 0.165 0.31 0.37 0.346 0.657 0.215 0.041-0.018 0.090-0.018 0.134-0.024 0.17-0.029 0.288-0.121 0.333-0.29 0.068-0.258 0.143-0.513 0.189-0.774 0.044-0.244 0.119-0.461 0.295-0.645 0.734-0.769 1.408-1.576 1.969-2.491 0.659-1.074 1.428-2.078 2.122-3.131 0.236-0.36 0.398-0.771 0.577-1.167 0.075-0.165-0.002-0.284-0.186-0.308-0.186-0.024-0.377-0.023-0.566-0.021-0.383 0.002-0.509-0.108-0.57-0.487-0.072-0.437 0.067-0.822 0.264-1.198 0.148-0.28 0.109-0.468-0.093-0.714-0.068-0.082-0.111-0.205-0.119-0.313-0.020-0.259-0.098-0.318-0.342-0.21-0.072 0.031-0.135 0.078-0.202 0.119-0.75 0.458-1.493 0.929-2.253 1.372-0.466 0.272-0.954 0.509-1.431 0.756-0.127 0.067-0.184 0.165-0.209 0.306-0.013 0.075-0.083 0.181-0.143 0.194-0.073 0.015-0.199-0.031-0.241-0.093-0.104-0.155-0.204-0.324-0.253-0.502-0.14-0.509-0.406-0.957-0.65-1.416-0.16-0.3-0.306-0.344-0.628-0.215-0.424 0.171-0.773 0.456-1.033 0.833-0.117 0.168-0.258 0.248-0.447 0.184-0.231-0.077-0.455-0.179-0.738-0.293 0.323-0.171 0.336-0.429 0.3-0.717 0.336 0.098 0.606 0.033 0.786-0.254 0.14-0.222 0.3-0.377 0.587-0.388 0.191-0.007 0.24-0.142 0.152-0.306-0.156-0.29-0.442-0.45-0.742-0.401-0.507 0.083-0.686 0.176-0.698 0.575-0.003 0.109-0.068 0.132-0.16 0.095-0.054-0.021-0.106-0.051-0.16-0.072-0.251-0.096-0.425 0.003-0.469 0.266-0.010 0.057 0.002 0.132-0.031 0.17-0.046 0.055-0.142 0.134-0.183 0.117-0.165-0.067-0.357-0.132-0.463-0.261-0.158-0.192-0.269-0.429-0.372-0.66-0.127-0.288-0.082-0.562 0.098-0.831 0.223-0.336 0.414-0.693 0.626-1.035 0.112-0.183 0.22-0.375 0.363-0.53 0.372-0.401 0.693-0.812 0.932-1.324 0.293-0.624 0.613-1.232 0.841-1.886 0.024-0.070 0.068-0.134 0.103-0.197 0.223 0.047 0.166 0.214 0.196 0.346 0.023 0.098 0.059 0.233 0.132 0.272 0.126 0.070 0.207-0.047 0.269-0.155 0.072-0.124 0.189-0.145 0.303-0.086 0.072 0.036 0.129 0.109 0.179 0.174 0.437 0.569 0.872 1.138 1.302 1.712 0.086 0.116 0.179 0.228 0.333 0.197 0.261-0.054 0.518-0.132 0.799-0.205-0.068-0.099-0.104-0.153-0.143-0.205-0.466-0.628-0.936-1.253-1.4-1.883-0.272-0.368-0.277-0.818-0.021-1.195 0.202-0.297 0.411-0.588 0.611-0.883 0.068-0.099 0.143-0.176 0.272-0.126 0.15 0.059 0.088 0.176 0.070 0.284-0.054 0.319-0.109 0.641-0.153 0.962-0.007 0.047 0.026 0.117 0.065 0.147 0.028 0.021 0.117 0.011 0.139-0.016 0.153-0.199 0.337-0.14 0.533-0.091 0.341 0.085 0.476 0.026 0.683-0.262 0.258-0.36 0.509-0.725 0.777-1.079 0.090-0.119 0.22-0.205 0.333-0.306 0.028 0.013 0.055 0.028 0.085 0.041-0.023 0.145-0.034 0.293-0.070 0.435-0.080 0.313-0.186 0.621-0.256 0.937-0.047 0.215 0.124 0.346 0.321 0.251 0.126-0.059 0.236-0.161 0.333-0.262 0.368-0.386 0.732-0.779 1.092-1.174 0.132-0.145 0.277-0.178 0.489-0.088-0.049 0.122-0.098 0.238-0.143 0.355-0.096 0.246-0.209 0.489-0.275 0.743-0.020 0.078 0.068 0.248 0.145 0.277 0.279 0.111 0.57 0.16 0.88 0.101 0.174-0.033 0.359-0.015 0.538-0.010 0.181 0.007 0.36 0.037 0.541 0.036 0.305-0.002 0.61-0.028 0.914-0.031 0.181-0.002 0.372 0.060 0.543 0.024 0.313-0.065 0.548 0.090 0.808 0.186-0.513 1.451-2.404 3.86-3.547 4.781-0.264 0.212-0.5 0.456-0.761 0.675-0.429 0.359-0.867 0.707-1.302 1.059-0.114 0.093-0.22 0.077-0.334-0.015-0.068-0.054-0.158-0.112-0.24-0.114-0.285-0.003-0.572 0.007-0.856 0.036-0.068 0.007-0.134 0.096-0.191 0.156-0.075 0.078-0.139 0.166-0.207 0.251-0.041-0.108-0.083-0.215-0.124-0.323-0.007-0.016 0-0.039 0.002-0.059 0.034-0.572 0.068-1.143 0.104-1.715 0.011-0.196-0.034-0.238-0.223-0.192-0.158 0.037-0.316 0.080-0.473 0.122-0.132 0.034-0.189 0.116-0.183 0.258 0.016 0.346 0.016 0.691 0.034 1.037 0.033 0.675 0.034 0.673-0.559 0.994-0.161 0.088-0.298 0.072-0.422-0.059-0.184-0.194-0.378-0.38-0.548-0.585-0.16-0.194-0.359-0.272-0.6-0.266-0.196 0.007-0.249 0.090-0.132 0.243 0.302 0.391 0.615 0.773 0.929 1.154 0.109 0.132 0.254 0.192 0.434 0.181 0.171-0.011 0.302 0.065 0.368 0.231 0.106 0.266 0.137 0.284 0.396 0.15 0.706-0.364 1.407-0.735 2.109-1.104 0.093-0.049 0.191-0.093 0.285-0.139-0.033 0.083-0.085 0.13-0.142 0.168-0.202 0.132-0.411 0.254-0.608 0.391-0.095 0.065-0.189 0.143-0.254 0.236-0.101 0.147-0.036 0.375 0.108 0.38 0.202 0.008 0.442 0.036 0.605-0.054 0.553-0.303 1.12-0.603 1.607-0.999 1.8-1.46 3.345-3.154 4.504-5.175 0.174-0.303 0.318-0.624 0.478-0.936 0.029-0.057 0.062-0.117 0.108-0.16 0.184-0.168 0.202-0.347 0.037-0.527-0.109-0.121-0.212-0.259-0.347-0.341-0.168-0.101-0.181-0.235-0.178-0.398 0.011-0.698 0.018-1.395 0.029-2.093 0.003-0.183-0.059-0.302-0.233-0.385-0.122-0.059-0.22-0.173-0.336-0.269 0.109-0.132 0.207-0.236 0.292-0.35 0.259-0.352 0.59-0.533 1.040-0.496 0.129 0.011 0.228 0.041 0.254 0.161 0.051 0.233 0.111 0.471 0.108 0.706-0.007 0.409-0.103 0.82-0.080 1.226 0.028 0.486 0.156 0.973 0.632 1.231 0.53 0.285 1.103 0.456 1.705 0.531 0.919 0.116 1.796-0.072 2.639-0.399 0.818-0.318 1.478-0.828 1.712-1.738 0.010-0.038 0.020-0.078 0.041-0.109 0.298-0.442 0.057-1.312-0.427-1.637-0.349-0.243-0.328-0.504 0.041-0.737zM15.27 16.363c0.042-0.293 0.098-0.556 0.112-0.82 0.008-0.14-0.007-0.315-0.085-0.421-0.231-0.315-0.499-0.601-0.751-0.898-0.016-0.020-0.036-0.039-0.057-0.052-0.139-0.086-0.29-0.108-0.419-0.003-0.14 0.114-0.042 0.238 0.033 0.344 0.165 0.235 0.336 0.465 0.507 0.694 0.222 0.3 0.227 0.68 0.059 0.97-0.266 0.461-0.509 0.934-0.75 1.408-0.15 0.295-0.254 0.614-0.417 0.901-0.424 0.75-0.908 1.459-1.48 2.104-0.068 0.077-0.155 0.135-0.231 0.205-0.168 0.152-0.37 0.279-0.492 0.46-0.235 0.349-0.429 0.725-0.628 1.097-0.111 0.207-0.218 0.258-0.419 0.132-0.072-0.046-0.119-0.13-0.183-0.191-0.052-0.051-0.111-0.122-0.171-0.129-0.114-0.011-0.235 0.007-0.349 0.031-0.152 0.033-0.266 0.132-0.282 0.288-0.059 0.536-0.334 0.996-0.523 1.485-0.057 0.147-0.215 0.272-0.355 0.362-0.112 0.072-0.155 0.156-0.109 0.249 0.028 0.055 0.14 0.096 0.217 0.098 0.155 0.003 0.31-0.038 0.465-0.039 1.12-0.013 2.241-0.015 3.361-0.031 1.622-0.023 3.245-0.052 4.867-0.078 0.096-0.002 0.21 0.021 0.21-0.129 0-0.139-0.072-0.222-0.214-0.225-0.104-0.003-0.218 0.033-0.31-0.002-0.106-0.039-0.201-0.125-0.284-0.209-0.024-0.024-0.011-0.14 0.018-0.156 0.207-0.119 0.411-0.279 0.636-0.319 0.515-0.093 1.030-0.215 1.565-0.181 0.207 0.013 0.403-0.093 0.507-0.282 0.225-0.411 0.569-0.572 1.020-0.535 0.153 0.013 0.236-0.064 0.293-0.202 0.096-0.235 0.197-0.468 0.311-0.693 0.438-0.864 0.87-1.733 1.333-2.585 0.223-0.411 0.303-0.828 0.302-1.289-0.002-0.368-0.104-0.624-0.412-0.839-0.394-0.275-0.584-0.685-0.52-1.17 0.044-0.334 0.13-0.663 0.197-0.996 0.010-0.046 0.011-0.095 0.016-0.132-0.176 0.031-0.333 0.075-0.492 0.082-0.407 0.018-0.82-0.018-1.223 0.033-0.691 0.088-1.358 0.292-2.007 0.548-0.217 0.086-0.434 0.174-0.644 0.275-0.707 0.334-1.403 0.691-2.223 0.839zM15.002 6.326c-0.021 0.007-0.042 0.015-0.064 0.021-0.010 0.108-0.020 0.214-0.028 0.321-0.013 0.179-0.015 0.362-0.037 0.54-0.028 0.225-0.095 0.447-0.106 0.673-0.023 0.448-0.028 0.898-0.026 1.346 0.002 0.24 0.024 0.479 0.047 0.719 0.033 0.331 0.101 0.659 0.104 0.989 0.016 1.146 0.284 2.259 0.437 3.387 0.021 0.153 0.108 0.248 0.267 0.262 0.156 0.015 0.266-0.046 0.315-0.2 0.008-0.024 0.018-0.049 0.029-0.072 0.183-0.406 0.551-0.505 0.91-0.245 0.099 0.073 0.199 0.148 0.3 0.22 0.246 0.176 0.52 0.259 0.822 0.272 0.491 0.021 0.955-0.073 1.413-0.245 0.23-0.086 0.471-0.152 0.712-0.189 0.489-0.077 0.981-0.126 1.472-0.189 0.285-0.036 0.333-0.085 0.271-0.364s-0.158-0.549-0.24-0.823c-0.171-0.574-0.372-1.146-0.28-1.759 0.085-0.579 0.166-1.161 0.29-1.733 0.109-0.5 0.282-0.988 0.412-1.485 0.036-0.135 0.072-0.306 0.018-0.419-0.137-0.29-0.323-0.556-0.487-0.826-0.518 0.238-0.554 0.308-0.603 0.823-0.072 0.73-0.064 1.472-0.336 2.173-0.047 0.121-0.059 0.253-0.090 0.38-0.215 0.898-0.355 1.814-0.714 2.675-0.055 0.134-0.116 0.176-0.251 0.088 0.031-0.085 0.060-0.17 0.091-0.253 0.381-1.029 0.598-2.103 0.807-3.174 0.114-0.592 0.147-1.2 0.21-1.801 0.008-0.077-0.021-0.158-0.034-0.236-0.080 0.015-0.166 0.015-0.238 0.044-0.409 0.168-0.805 0.368-1.223 0.512-0.996 0.341-1.961 0.236-2.883-0.271-0.171-0.095-0.282-0.057-0.3 0.143-0.029 0.306-0.020 0.616-0.037 0.924-0.046 0.81-0.033 1.614 0.197 2.399 0.153 0.525 0.311 1.046 0.463 1.571 0.013 0.044-0.011 0.099-0.020 0.15-0.057-0.021-0.121-0.034-0.166-0.070-0.031-0.024-0.036-0.082-0.051-0.126-0.117-0.359-0.266-0.711-0.342-1.077-0.214-1.024-0.414-2.052-0.582-3.084-0.068-0.417-0.143-0.851 0.015-1.275 0.016-0.046-0.005-0.122-0.036-0.166-0.137-0.191-0.285-0.372-0.429-0.554zM6.316 9.276c0.36 0.008 0.613-0.222 0.616-0.556 0.002-0.319-0.174-0.492-0.513-0.502-0.377-0.011-0.662 0.236-0.668 0.585-0.008 0.292 0.199 0.465 0.566 0.473zM3.332 8.887c0.354 0.002 0.686-0.354 0.673-0.652-0.005-0.124-0.003-0.248-0.024-0.368-0.013-0.075-0.052-0.186-0.106-0.202-0.070-0.023-0.196 0.003-0.243 0.057-0.235 0.269-0.456 0.551-0.668 0.838-0.028 0.037-0.005 0.168 0.033 0.191 0.121 0.068 0.259 0.108 0.336 0.137zM22.828 5.211c-0.031-0.075-0.064-0.155-0.096-0.233-0.083 0.049-0.194 0.078-0.244 0.15-0.21 0.297-0.404 0.605-0.597 0.913-0.039 0.062-0.067 0.147-0.062 0.218 0.005 0.067 0.046 0.166 0.096 0.186s0.16-0.018 0.199-0.067c0.207-0.266 0.407-0.538 0.595-0.82 0.059-0.091 0.068-0.215 0.109-0.347zM22.329 13.284c0.156-0.447 0.049-0.852-0.028-1.255-0.010-0.049-0.148-0.085-0.231-0.101-0.020-0.003-0.091 0.099-0.083 0.147 0.059 0.403 0.095 0.813 0.342 1.209z"></path>
<path d="M15.092 16.835c0.207 0.101 0.394 0.176 0.564 0.284 0.086 0.055 0.156 0.155 0.205 0.249 0.231 0.438 0.323 0.918 0.388 1.403 0.034 0.258 0.088 0.513 0.137 0.769 0.047 0.244-0.015 0.326-0.259 0.334-0.284 0.010-0.451 0.217-0.406 0.497 0.021 0.13 0.090 0.215 0.225 0.231 0.259 0.031 0.522 0.103 0.776 0.077 0.275-0.028 0.549-0.135 0.745-0.362 0.106-0.124 0.199-0.261 0.313-0.373 0.047-0.046 0.145-0.075 0.209-0.060 0.039 0.010 0.075 0.111 0.083 0.174 0.028 0.228-0.051 0.421-0.218 0.58-0.135 0.13-0.199 0.288-0.165 0.478 0.036 0.201 0.176 0.303 0.38 0.272 0.194-0.029 0.357-0.112 0.469-0.284 0.099-0.152 0.21-0.297 0.315-0.447 0.184 0.153 0.236 0.342 0.14 0.562-0.222 0.513-0.575 0.9-1.077 1.165-0.541 0.285-1.117 0.305-1.694 0.246-0.227-0.023-0.442-0.178-0.655-0.285-0.171-0.086-0.326-0.166-0.533-0.091-0.176 0.062-0.355-0.112-0.313-0.282 0.121-0.481 0.072-0.96-0.041-1.43-0.080-0.333-0.217-0.65-0.328-0.975-0.023-0.067-0.064-0.135-0.065-0.202-0.002-0.143-0.075-0.214-0.2-0.253-0.142-0.044-0.191-0.134-0.116-0.267 0.372-0.672 0.747-1.341 1.121-2.013z"></path>
</svg>
