<!-- Generated by IcoMoon.io -->
<svg version="1.1" xmlns="http://www.w3.org/2000/svg" width="32" height="32" viewBox="0 0 32 32">
<title>fighters-mount</title>
<path d="M18.634 2.2c0.067 0 0.135 0 0.203 0 0.053 0.011 0.107 0.029 0.161 0.034 0.252 0.027 0.505 0.046 0.757 0.076 0.21 0.024 0.246 0.083 0.233 0.288-0.009 0.132 0.004 0.267 0.020 0.401 0.017 0.15 0.062 0.298 0.070 0.449 0.043 0.747 0.079 1.493 0.112 2.241 0.017 0.388 0.143 0.493 0.531 0.451 0.262-0.029 0.529-0.044 0.792-0.048 0.348-0.007 0.699 0.018 1.046 0.002 0.828-0.041 1.654-0.1 2.481-0.15 0.123-0.007 0.246-0.002 0.288 0.145 0.044 0.159-0.051 0.348-0.192 0.401-0.2 0.076-0.403 0.142-0.6 0.226-0.065 0.029-0.111 0.096-0.168 0.145 0.053 0.044 0.1 0.102 0.161 0.129 0.268 0.116 0.55 0.205 0.807 0.34 0.273 0.143 0.55 0.212 0.857 0.203 0.441-0.013 0.878 0.014 1.302 0.154 0.112 0.036 0.223 0.058 0.203 0.214s-0.096 0.235-0.259 0.255c-0.183 0.022-0.364 0.067-0.541 0.121-0.185 0.056-0.219 0.235-0.065 0.357 0.117 0.093 0.251 0.176 0.39 0.228 0.306 0.114 0.616 0.219 0.93 0.299 0.15 0.040 0.329 0.053 0.477 0.011 0.275-0.080 0.512-0.023 0.743 0.111 0.2 0.116 0.219 0.178 0.15 0.402-0.075 0.239-0.025 0.295 0.228 0.315 0.291 0.022 0.581 0.059 0.871 0.096 0.047 0.006 0.116 0.049 0.123 0.087 0.063 0.278 0.144 0.556 0.161 0.839 0.020 0.322 0.011 0.342 0.334 0.355 0.327 0.013 0.568 0.279 0.544 0.606-0.015 0.228-0.018 0.458-0.056 0.682-0.034 0.203-0.002 0.389 0.062 0.576 0.134 0.401 0.163 0.813 0.143 1.23-0.016 0.308-0.033 0.614-0.056 0.922-0.029 0.374-0.042 0.75-0.109 1.118-0.049 0.272-0.192 0.526-0.264 0.796-0.226 0.846-0.667 1.555-1.278 2.182-0.702 0.72-1.535 1.22-2.477 1.527-0.753 0.246-1.531 0.415-2.301 0.607-0.774 0.194-1.562 0.199-2.352 0.161-0.148-0.007-0.226-0.076-0.251-0.221-0.033-0.197 0.049-0.325 0.266-0.378 0.68-0.169 1.334-0.404 1.971-0.694 0.543-0.246 1.104-0.453 1.645-0.703 1.056-0.491 1.923-1.188 2.298-2.335 0.15-0.454 0.234-0.936 0.288-1.413 0.041-0.364 0.045-0.752-0.038-1.107-0.148-0.623-0.253-1.274-0.677-1.796-0.116-0.143-0.23-0.287-0.362-0.412-0.242-0.228-0.573-0.246-0.873-0.34-0.66-0.207-1.324-0.156-1.985 0.006-0.135 0.034-0.221 0.128-0.211 0.268 0.023 0.323 0.040 0.65 0.093 0.97 0.056 0.343 0.182 0.675 0.223 1.018 0.065 0.541 0.31 0.991 0.624 1.415 0.177 0.241 0.432 0.411 0.707 0.461 0.338 0.063 0.669 0.13 0.996 0.242 0.459 0.158 0.655 0.572 0.423 0.993-0.414 0.75-1.146 1.138-1.832 1.575-0.004 0.003-0.010 0.004-0.016 0.006-0.214 0.067-0.352 0.022-0.479-0.163-0.279-0.406-0.653-0.694-1.108-0.879-0.261-0.105-0.523-0.207-0.787-0.306-0.687-0.26-1.356-0.548-1.936-1.013-0.188-0.15-0.396-0.277-0.604-0.399-0.557-0.328-1.014-0.766-1.416-1.263-0.11-0.136-0.177-0.311-0.241-0.478-0.041-0.105-0.089-0.161-0.204-0.154-0.073 0.004-0.147-0.003-0.22 0.007-0.168 0.023-0.211 0.101-0.145 0.255 0.235 0.547 0.571 1.022 1.043 1.389 0.432 0.334 0.875 0.655 1.314 0.978 0.229 0.167 0.226 0.289-0.006 0.446-0.072 0.048-0.141 0.116-0.181 0.192-0.11 0.208-0.058 0.507 0.1 0.682 0.061 0.067 0.121 0.134 0.177 0.203 0.19 0.229 0.175 0.486-0.036 0.69-0.299 0.288-0.589 0.587-0.898 0.864-0.54 0.486-0.96 1.073-1.403 1.639-0.042 0.055-0.086 0.129-0.086 0.194-0.002 0.264-0.15 0.416-0.355 0.553-0.101 0.067-0.188 0.174-0.246 0.283-0.083 0.159-0.029 0.232 0.15 0.235 0.637 0.011 1.275 0.027 1.912 0.025 0.665 0 1.329-0.011 1.994-0.025 0.631-0.013 1.262-0.038 1.893-0.053 0.125-0.003 0.199-0.038 0.202-0.183 0.006-0.255-0.002-0.27-0.266-0.272-0.040 0-0.080 0-0.119-0.009-0.127-0.029-0.193-0.104-0.192-0.239 0.002-0.128 0.031-0.236 0.181-0.263 0.249-0.045 0.497-0.1 0.749-0.128 0.105-0.011 0.234 0.010 0.32 0.066 0.238 0.158 0.44 0.123 0.646-0.051 0.237-0.199 0.508-0.322 0.815-0.384 0.297-0.061 0.591-0.143 0.878-0.239 0.347-0.114 0.688-0.248 1.029-0.38 0.251-0.096 0.269-0.091 0.361 0.166 0.029 0.079 0.048 0.163 0.082 0.239 0.083 0.181 0.043 0.315-0.121 0.435-0.176 0.129-0.354 0.266-0.501 0.428-0.121 0.134-0.223 0.297-0.291 0.464-0.080 0.196-0.017 0.27 0.192 0.284 0.090 0.006 0.18 0.004 0.271 0.003 0.66-0.009 1.318-0.021 1.978-0.029 0.195-0.002 0.389 0.009 0.584 0.020 0.040 0.003 0.107 0.033 0.11 0.056 0.016 0.136 0.056 0.288 0.011 0.406-0.055 0.147-0.166 0.286-0.285 0.393-0.4 0.361-0.789 0.743-1.229 1.052-1.356 0.957-2.729 1.895-4.234 2.613-0.481 0.229-0.98 0.423-1.481 0.603-0.39 0.141-0.805 0.215-1.197 0.355-1.441 0.511-2.932 0.79-4.446 0.964-0.251 0.029-0.508 0.009-0.76 0.029-0.471 0.036-0.94 0.087-1.41 0.127-0.213 0.018-0.425 0.024-0.638 0.034-0.316 0-0.631 0-0.947 0-0.044-0.009-0.086-0.021-0.132-0.027-0.47-0.063-0.939-0.121-1.407-0.188-1.224-0.176-2.406-0.516-3.592-0.861-1.7-0.493-3.307-1.175-4.779-2.162-0.501-0.336-0.977-0.705-1.473-1.045-0.672-0.461-1.24-1.040-1.839-1.586-0.016-0.014-0.027-0.034-0.044-0.056 0.467-0.176 0.939-0.261 1.428-0.211 0.183 0.018 0.299-0.049 0.386-0.191-0.065-0.154-0.188-0.207-0.34-0.209-0.135-0.003-0.272 0.002-0.405-0.018-0.097-0.014-0.189-0.063-0.315-0.108 0.085-0.078 0.128-0.134 0.183-0.169 0.288-0.177 0.57-0.368 0.873-0.513 0.177-0.086 0.391-0.127 0.586-0.128 0.121 0 0.3 0.083 0.352 0.181 0.143 0.267 0.32 0.298 0.568 0.185 0.036-0.015 0.078-0.015 0.116-0.021 0.147-0.025 0.249-0.104 0.288-0.25 0.059-0.223 0.124-0.443 0.164-0.668 0.038-0.211 0.103-0.398 0.255-0.556 0.635-0.663 1.218-1.359 1.703-2.148 0.57-0.927 1.235-1.793 1.836-2.701 0.204-0.31 0.344-0.665 0.499-1.006 0.065-0.143-0.002-0.245-0.161-0.266-0.161-0.021-0.326-0.020-0.489-0.018-0.331 0.002-0.44-0.093-0.493-0.42-0.062-0.377 0.058-0.709 0.229-1.033 0.128-0.241 0.094-0.404-0.080-0.616-0.059-0.071-0.096-0.177-0.103-0.27-0.017-0.223-0.085-0.274-0.296-0.181-0.062 0.027-0.117 0.067-0.175 0.102-0.649 0.395-1.291 0.801-1.949 1.184-0.403 0.234-0.825 0.439-1.237 0.652-0.11 0.058-0.159 0.142-0.181 0.264-0.011 0.064-0.071 0.156-0.123 0.167-0.063 0.013-0.172-0.027-0.209-0.080-0.090-0.134-0.176-0.28-0.219-0.433-0.121-0.439-0.351-0.825-0.562-1.221-0.138-0.259-0.265-0.297-0.543-0.186-0.366 0.147-0.668 0.393-0.893 0.718-0.101 0.145-0.223 0.214-0.386 0.159-0.2-0.066-0.394-0.154-0.638-0.253 0.279-0.147 0.291-0.37 0.259-0.618 0.291 0.085 0.524 0.028 0.68-0.219 0.121-0.191 0.259-0.325 0.508-0.334 0.165-0.006 0.207-0.123 0.131-0.264-0.135-0.25-0.382-0.388-0.641-0.346-0.439 0.072-0.593 0.152-0.604 0.496-0.003 0.094-0.059 0.114-0.138 0.082-0.047-0.018-0.092-0.044-0.138-0.062-0.217-0.083-0.368 0.003-0.406 0.229-0.009 0.049 0.002 0.114-0.027 0.147-0.040 0.047-0.123 0.116-0.159 0.101-0.143-0.058-0.309-0.114-0.4-0.225-0.136-0.166-0.232-0.37-0.321-0.569-0.11-0.248-0.071-0.485 0.085-0.717 0.193-0.29 0.358-0.598 0.541-0.893 0.097-0.158 0.19-0.323 0.314-0.457 0.322-0.346 0.6-0.7 0.806-1.142 0.253-0.538 0.53-1.063 0.727-1.627 0.021-0.061 0.059-0.116 0.089-0.17 0.193 0.040 0.143 0.184 0.17 0.298 0.020 0.084 0.051 0.201 0.114 0.234 0.109 0.061 0.179-0.041 0.233-0.134 0.062-0.107 0.163-0.125 0.262-0.074 0.062 0.031 0.111 0.094 0.155 0.15 0.378 0.491 0.754 0.982 1.126 1.477 0.074 0.1 0.155 0.197 0.288 0.17 0.226-0.046 0.448-0.114 0.691-0.177-0.059-0.086-0.090-0.132-0.124-0.177-0.403-0.542-0.809-1.081-1.211-1.624-0.236-0.317-0.24-0.705-0.018-1.030 0.175-0.256 0.355-0.507 0.529-0.762 0.059-0.086 0.124-0.152 0.235-0.109 0.13 0.051 0.076 0.152 0.061 0.245-0.046 0.275-0.094 0.553-0.132 0.83-0.006 0.041 0.023 0.101 0.056 0.127 0.024 0.018 0.101 0.009 0.12-0.014 0.132-0.171 0.291-0.121 0.461-0.079 0.295 0.073 0.412 0.023 0.591-0.226 0.223-0.311 0.44-0.625 0.672-0.931 0.078-0.102 0.19-0.177 0.288-0.264 0.024 0.011 0.048 0.024 0.073 0.035-0.020 0.125-0.029 0.253-0.061 0.375-0.069 0.27-0.161 0.536-0.221 0.808-0.041 0.185 0.107 0.298 0.278 0.216 0.109-0.051 0.204-0.139 0.288-0.226 0.318-0.333 0.633-0.672 0.945-1.013 0.114-0.125 0.239-0.154 0.423-0.076-0.043 0.105-0.085 0.205-0.124 0.306-0.083 0.212-0.181 0.421-0.238 0.641-0.017 0.067 0.059 0.214 0.125 0.239 0.241 0.096 0.493 0.138 0.761 0.087 0.15-0.029 0.311-0.013 0.465-0.009 0.157 0.006 0.311 0.032 0.468 0.031 0.264-0.002 0.527-0.024 0.79-0.027 0.157-0.002 0.322 0.052 0.47 0.021 0.271-0.056 0.474 0.078 0.698 0.161-0.443 1.251-2.079 3.329-3.068 4.123-0.228 0.183-0.432 0.393-0.658 0.582-0.371 0.31-0.75 0.61-1.126 0.914-0.099 0.080-0.19 0.066-0.289-0.013-0.059-0.047-0.137-0.097-0.207-0.098-0.246-0.003-0.495 0.006-0.74 0.031-0.059 0.006-0.116 0.083-0.165 0.135-0.065 0.067-0.12 0.143-0.179 0.216-0.035-0.093-0.072-0.186-0.107-0.278-0.006-0.014 0-0.034 0.002-0.051 0.030-0.493 0.059-0.986 0.090-1.479 0.010-0.169-0.029-0.205-0.193-0.166-0.137 0.032-0.273 0.069-0.409 0.105-0.114 0.029-0.164 0.1-0.159 0.223 0.014 0.298 0.014 0.596 0.030 0.895 0.029 0.582 0.029 0.58-0.484 0.857-0.139 0.076-0.258 0.062-0.365-0.051-0.159-0.167-0.327-0.328-0.474-0.505-0.138-0.167-0.311-0.234-0.519-0.229-0.17 0.006-0.215 0.078-0.114 0.21 0.261 0.337 0.532 0.666 0.804 0.995 0.094 0.114 0.22 0.166 0.375 0.156 0.148-0.009 0.261 0.056 0.318 0.199 0.092 0.23 0.118 0.245 0.343 0.13 0.611-0.314 1.217-0.634 1.824-0.952 0.080-0.042 0.165-0.080 0.247-0.12-0.029 0.072-0.073 0.112-0.123 0.145-0.175 0.114-0.355 0.219-0.526 0.337-0.082 0.056-0.164 0.123-0.22 0.204-0.087 0.127-0.031 0.323 0.094 0.328 0.175 0.007 0.382 0.031 0.523-0.046 0.478-0.261 0.969-0.52 1.39-0.862 1.557-1.259 2.893-2.72 3.895-4.463 0.15-0.261 0.275-0.538 0.413-0.807 0.025-0.049 0.054-0.101 0.094-0.138 0.159-0.145 0.175-0.299 0.032-0.455-0.095-0.104-0.184-0.223-0.3-0.294-0.145-0.087-0.156-0.202-0.154-0.343 0.010-0.602 0.016-1.203 0.025-1.805 0.003-0.158-0.051-0.26-0.202-0.332-0.105-0.051-0.19-0.149-0.29-0.232 0.094-0.114 0.179-0.204 0.252-0.302 0.224-0.304 0.51-0.459 0.9-0.428 0.111 0.010 0.197 0.036 0.22 0.139 0.044 0.201 0.096 0.406 0.093 0.609-0.006 0.353-0.089 0.707-0.069 1.057 0.024 0.419 0.135 0.839 0.546 1.062 0.459 0.246 0.954 0.393 1.475 0.458 0.795 0.1 1.554-0.062 2.282-0.344 0.707-0.274 1.279-0.714 1.481-1.499 0.009-0.033 0.017-0.068 0.035-0.094 0.258-0.381 0.050-1.132-0.369-1.412-0.302-0.21-0.284-0.435 0.036-0.636zM13.207 16.313c0.036-0.253 0.085-0.48 0.097-0.707 0.007-0.121-0.006-0.272-0.074-0.363-0.2-0.271-0.431-0.518-0.649-0.774-0.014-0.018-0.031-0.034-0.050-0.045-0.12-0.074-0.251-0.093-0.362-0.003-0.121 0.098-0.036 0.205 0.028 0.297 0.143 0.203 0.291 0.401 0.438 0.598 0.192 0.259 0.196 0.586 0.051 0.837-0.23 0.398-0.44 0.805-0.649 1.214-0.13 0.254-0.22 0.529-0.361 0.777-0.367 0.647-0.785 1.259-1.28 1.815-0.059 0.066-0.134 0.116-0.2 0.177-0.145 0.131-0.32 0.241-0.425 0.397-0.204 0.301-0.371 0.625-0.543 0.946-0.096 0.178-0.188 0.223-0.363 0.114-0.062-0.040-0.103-0.112-0.158-0.165-0.045-0.044-0.096-0.105-0.148-0.111-0.099-0.009-0.204 0.006-0.302 0.027-0.132 0.028-0.23 0.114-0.244 0.248-0.051 0.462-0.289 0.859-0.452 1.281-0.050 0.127-0.186 0.235-0.307 0.313-0.097 0.062-0.134 0.134-0.095 0.214 0.024 0.048 0.121 0.083 0.188 0.085 0.134 0.002 0.268-0.033 0.402-0.034 0.969-0.011 1.938-0.013 2.907-0.027 1.403-0.020 2.806-0.045 4.209-0.067 0.083-0.002 0.182 0.018 0.182-0.111 0-0.12-0.063-0.191-0.185-0.194-0.090-0.002-0.189 0.029-0.268-0.002-0.091-0.034-0.174-0.108-0.245-0.18-0.021-0.021-0.010-0.121 0.015-0.135 0.179-0.103 0.355-0.241 0.55-0.275 0.445-0.080 0.891-0.186 1.354-0.156 0.179 0.011 0.348-0.080 0.438-0.243 0.195-0.354 0.492-0.493 0.882-0.461 0.132 0.011 0.204-0.055 0.254-0.174 0.083-0.203 0.17-0.404 0.269-0.598 0.378-0.745 0.752-1.495 1.153-2.23 0.193-0.354 0.262-0.714 0.261-1.112-0.002-0.317-0.090-0.538-0.356-0.723-0.341-0.238-0.505-0.591-0.45-1.009 0.038-0.288 0.113-0.572 0.17-0.859 0.009-0.039 0.010-0.082 0.014-0.114-0.152 0.027-0.288 0.064-0.426 0.071-0.352 0.015-0.709-0.016-1.057 0.028-0.598 0.076-1.175 0.252-1.736 0.473-0.188 0.074-0.375 0.15-0.557 0.237-0.611 0.288-1.213 0.596-1.923 0.723zM12.975 7.656c-0.018 0.006-0.036 0.013-0.055 0.018-0.009 0.093-0.018 0.185-0.024 0.277-0.011 0.154-0.013 0.312-0.032 0.466-0.024 0.194-0.082 0.386-0.092 0.58-0.020 0.386-0.024 0.775-0.023 1.161 0.002 0.207 0.021 0.413 0.041 0.62 0.029 0.286 0.088 0.568 0.090 0.853 0.014 0.989 0.245 1.948 0.378 2.921 0.018 0.132 0.093 0.214 0.231 0.226 0.135 0.013 0.23-0.039 0.273-0.172 0.007-0.021 0.016-0.042 0.025-0.062 0.158-0.35 0.477-0.436 0.787-0.211 0.086 0.063 0.172 0.128 0.259 0.19 0.213 0.152 0.45 0.223 0.711 0.234 0.425 0.018 0.826-0.063 1.222-0.211 0.199-0.074 0.407-0.131 0.616-0.163 0.423-0.066 0.848-0.109 1.273-0.163 0.246-0.031 0.288-0.073 0.234-0.314s-0.137-0.473-0.207-0.71c-0.148-0.495-0.322-0.989-0.242-1.517 0.073-0.5 0.143-1.002 0.251-1.495 0.094-0.431 0.244-0.852 0.356-1.28 0.031-0.117 0.062-0.264 0.016-0.362-0.119-0.25-0.279-0.479-0.421-0.712-0.448 0.205-0.479 0.266-0.522 0.71-0.062 0.63-0.055 1.27-0.29 1.874-0.041 0.104-0.051 0.218-0.078 0.328-0.186 0.775-0.307 1.564-0.618 2.307-0.047 0.116-0.1 0.152-0.217 0.076 0.027-0.073 0.052-0.147 0.078-0.218 0.33-0.887 0.517-1.814 0.698-2.737 0.098-0.511 0.127-1.035 0.182-1.553 0.007-0.066-0.018-0.136-0.029-0.204-0.070 0.013-0.144 0.013-0.206 0.038-0.354 0.145-0.697 0.318-1.058 0.442-0.861 0.294-1.696 0.204-2.493-0.234-0.148-0.082-0.244-0.049-0.259 0.123-0.025 0.264-0.018 0.531-0.032 0.797-0.040 0.699-0.028 1.392 0.17 2.069 0.132 0.453 0.269 0.902 0.4 1.355 0.011 0.038-0.009 0.086-0.017 0.129-0.050-0.018-0.105-0.029-0.144-0.060-0.027-0.021-0.031-0.071-0.044-0.109-0.101-0.309-0.23-0.613-0.296-0.929-0.185-0.883-0.358-1.77-0.504-2.66-0.059-0.36-0.123-0.734 0.013-1.1 0.014-0.040-0.005-0.105-0.031-0.143-0.118-0.165-0.246-0.321-0.371-0.478zM5.463 10.2c0.311 0.007 0.53-0.191 0.533-0.479 0.002-0.275-0.15-0.425-0.444-0.433-0.326-0.009-0.573 0.204-0.578 0.505-0.007 0.252 0.172 0.401 0.489 0.408zM2.882 9.865c0.306 0.002 0.593-0.305 0.582-0.562-0.004-0.107-0.002-0.214-0.021-0.318-0.011-0.064-0.045-0.16-0.092-0.174-0.061-0.020-0.169 0.003-0.21 0.049-0.203 0.232-0.394 0.475-0.578 0.723-0.024 0.032-0.004 0.145 0.029 0.165 0.104 0.059 0.224 0.093 0.29 0.118zM19.743 6.695c-0.027-0.065-0.055-0.134-0.083-0.201-0.072 0.043-0.168 0.068-0.211 0.13-0.182 0.256-0.35 0.521-0.516 0.787-0.034 0.053-0.058 0.127-0.053 0.188 0.004 0.058 0.039 0.143 0.083 0.161s0.138-0.016 0.172-0.058c0.179-0.23 0.352-0.464 0.514-0.707 0.051-0.079 0.059-0.186 0.094-0.299zM19.312 13.657c0.135-0.386 0.042-0.735-0.024-1.082-0.009-0.042-0.128-0.073-0.2-0.087-0.017-0.003-0.078 0.086-0.072 0.127 0.051 0.347 0.082 0.701 0.296 1.043z"></path>
<path d="M13.053 16.72c0.179 0.087 0.341 0.152 0.488 0.245 0.075 0.047 0.135 0.134 0.177 0.215 0.2 0.378 0.279 0.791 0.336 1.21 0.029 0.223 0.076 0.443 0.118 0.663 0.041 0.211-0.013 0.281-0.224 0.288-0.246 0.009-0.39 0.187-0.351 0.429 0.018 0.112 0.078 0.186 0.195 0.199 0.224 0.027 0.452 0.089 0.671 0.066 0.238-0.024 0.475-0.116 0.645-0.312 0.092-0.107 0.172-0.225 0.271-0.322 0.041-0.039 0.125-0.064 0.181-0.052 0.034 0.009 0.065 0.096 0.072 0.15 0.024 0.197-0.044 0.363-0.188 0.5-0.117 0.112-0.172 0.248-0.143 0.412 0.031 0.173 0.152 0.261 0.329 0.235 0.168-0.025 0.309-0.097 0.405-0.245 0.086-0.131 0.182-0.256 0.273-0.386 0.159 0.132 0.204 0.295 0.121 0.485-0.192 0.442-0.498 0.776-0.932 1.005-0.468 0.246-0.966 0.263-1.465 0.212-0.196-0.020-0.382-0.154-0.566-0.246-0.148-0.074-0.282-0.143-0.461-0.078-0.152 0.053-0.307-0.096-0.271-0.243 0.105-0.415 0.063-0.828-0.036-1.233-0.069-0.288-0.188-0.561-0.284-0.841-0.020-0.058-0.055-0.116-0.056-0.174-0.002-0.123-0.065-0.185-0.173-0.218-0.123-0.038-0.165-0.116-0.1-0.23 0.322-0.58 0.646-1.157 0.97-1.736z"></path>
</svg>
