<!-- Generated by IcoMoon.io -->
<svg version="1.1" xmlns="http://www.w3.org/2000/svg" width="512" height="512" viewBox="0 0 512 512">
<title>monsters-of-order</title>
<g id="icomoon-ignore">
</g>
<path d="M349.792 0c2.56 0.304 5.168 0.528 7.712 0.992 1.296 0.224 2.512 0.88 3.696 1.696-4.64 4.32-9.6 6.656-15.856 6.16-2.88-0.224-5.936 0.16-8.72 0.896-6.112 1.616-12.112 3.68-18.16 5.536-0.784 0.24-1.6 0.656-2.368 0.56-5.648-0.656-10.816 1.104-15.76 3.264-7.424 3.216-15.264 4.976-23.008 7.232-7.696 2.24-15.104 5.456-22.608 8.288-3.504 1.312-7.072 2.608-10.512 4.112-1.36 0.592-2.544 1.664-3.712 2.624-1.872 1.568-3.504 3.536-5.568 4.784-10.672 6.496-21.44 12.8-32.16 19.216-1.68 1.008-3.472 2.080-4.656 3.568-2.576 3.168-5.952 4.8-9.648 6.080-1.792 0.608-3.504 1.376-5.312 2.016-1.984 0.72-3.168 2.048-4.064 3.984-0.752 1.664-2.016 3.168-3.28 4.544-0.928 1.008-2.096 1.872-3.312 2.544-11.040 6.112-18.304 16.064-26.064 25.504-1.136 1.392-1.472 3.392-2.304 5.072-1.040 2.16-1.872 4.576-3.392 6.352-2.656 3.088-2.88 6.352-1.76 9.904 0.72 2.272 2.848 2.944 5.28 1.664 3.936-2.080 7.712-4.368 11.68-6.384 6.88-3.504 13.856-6.816 20.72-10.304 11.008-5.568 22.976-7.008 35.008-8.384 10.448-1.184 20.896-2.688 31.36-3.696 16.48-1.584 32.976-2.448 49.488-0.224 14.752 1.984 29.632 3.28 44.208 6.176 17.696 3.536 35.024 8.784 52.208 14.448 16.704 5.52 30.848 14.784 43.392 26.864 7.104 6.832 14.544 13.328 21.792 20.016 0.848 0.784 1.392 1.856 2.080 2.8-0.16 0.272-0.336 0.528-0.464 0.816-0.96-0.24-2.080-0.272-2.912-0.752-8.048-4.768-16.112-9.52-24.048-14.448-5.296-3.28-10.512-6.736-15.552-10.384-5.76-4.144-11.632-8-18.64-9.808-0.56-0.144-1.088-0.384-1.6-0.624-3.984-1.76-8-2.944-12.448-3.392-4.848-0.496-9.824-1.76-14.192-3.84-4.016-1.904-7.936-2.624-12.256-3.184-5.024-0.656-9.824-2.656-14.832-3.536-10.512-1.872-21.12-3.2-31.6-5.152-8.864-1.648-17.728-2.592-26.72-2.256-2.464 0.080-4.928 0.336-7.392 0.448-6.88 0.336-13.792 0.384-20.608 1.040-4.992 0.464-9.824 2.24-14.8 2.528-12.496 0.672-23.984 5.344-35.968 8.048-2.32 0.528-4.672 1.024-6.912 1.808-3.712 1.248-7.328 2.704-10.976 4.112-1.984 0.752-4.016 1.456-5.952 2.32-3.12 1.376-6.368 2.608-9.248 4.352-3.808 2.304-7.344 4.88-12.048 5.28-2.448 0.208-8.656 8.336-8.432 10.816 0.080 0.8 1.008 1.76 1.792 2.16s1.936 0.272 2.912 0.288c10.288 0.224 20.576 0.352 30.848 0.72 3.92 0.144 7.792 0.944 11.712 1.376 1.792 0.208 3.616 0.352 5.392 0.288 4.72-0.16 9.312 0.432 13.808 2.032 2.704 0.96 5.536 1.504 8.304 2.256 16.368 4.576 32.688 9.376 47.936 17.040 5.44 2.736 10.928 5.376 16.128 8.496 5.904 3.552 11.568 7.52 17.2 11.472 3.424 2.4 6.544 5.264 9.936 7.696 13.952 9.984 25.12 22.608 35.008 36.464 0.528 0.752 0.736 1.76 1.104 2.672-0.24 0.208-0.496 0.416-0.736 0.624-0.88-0.576-1.856-1.072-2.672-1.744-11.328-9.152-22.576-18.384-33.92-27.488-8.144-6.544-17.552-10.864-27.088-15.008-5.584-2.416-10.944-5.296-16.496-7.696-3.696-1.584-7.536-2.816-11.36-4.032-8.144-2.544-16.352-4.944-24.496-7.472-8.992-2.8-17.952-5.68-26.96-8.528-0.704-0.224-1.472-0.48-2.16-0.352-5.296 0.96-10.24-0.992-15.344-1.504-3.712-0.384-7.536-0.272-11.312-0.080-5.424 0.272-10.768 0.752-16.176 1.232-1.536 0.128-3.072 0.416-4.608 0.736-3.504 0.752-7.040 1.568-10.528 2.416-1.168 0.288-2.512 0.624-3.328 1.392-0.704 0.672-0.752 2.016-1.104 3.056 0.944 0.288 1.936 0.896 2.832 0.816 4.176-0.448 8.288-1.296 12.48-1.616 14.48-1.152 28.864-1.232 43.008 3.024 7.344 2.192 14.656 4.416 21.296 8.32 5.872 3.456 12.64 4.048 18.864 6.288 15.056 5.376 30.624 9.408 45.056 16.528 3.216 1.6 6.672 2.8 9.968 4.224 7.104 3.088 13.056 7.616 17.216 14.208 0.736 1.168 1.392 2.416 1.872 3.712 1.024 2.88 0.080 4.768-2.816 5.776-1.152 0.384-2.448 0.448-3.568 0.944-1.088 0.48-2.32 1.104-2.912 2.032-0.944 1.44-1.152 3.344-3.392 3.76-0.304 0.064-0.592 1.76-0.416 2.592 1.296 6.176 0.288 8.32-5.648 10.96-2.032 0.896-2.992 2.32-3.152 4.544-0.56 8.464-5.424 14.704-13.648 17.040-6.256 1.76-9.168 6.352-10.88 11.968-1.024 3.408 0.080 6.64 2.816 8.896 3.28 2.704 6.816 5.136 10.24 7.664 0.848 0.608 1.744 1.152 3.056 2.032-1.328 1.040-2.272 2.272-3.472 2.656-7.056 2.192-14.144 4.256-21.264 6.256-1.312 0.368-2.768 0.352-4.16 0.384-5.744 0.192-11.488 0.56-17.2 0.416-4.736-0.128-9.44-1.008-14.192-1.328-4.416-0.288-8.912-0.784-13.248-0.288-6.336 0.72-10.752-2.080-14.688-6.368-0.88-0.96-1.616-2.080-2.304-3.184-1.6-2.608-1.376-3.744 1.040-5.648 1.872-1.472 3.808-2.88 5.696-4.336 2.416-1.856 4.288-4.032 5.936-6.736 2.24-3.68 5.008-7.2 9.808-8.336 1.936-0.448 3.776-1.984 5.328-3.36 4.512-3.968 8.864-8.096 13.28-12.16 0.72-0.672 1.456-1.312 2.112-2.048 3.632-4.080 3.168-8.112-1.568-10.816-7.408-4.256-14.592-9.2-22.496-12.192-7.728-2.96-14.72-6.64-21.136-11.696-1.728-1.36-4.192-1.76-6.272-2.704-2.736-1.232-5.648-2.272-8.128-3.904-10.384-6.8-20.4-14.112-32.88-16.896-2.272-0.512-4.56-2.4-6.112-4.272-5.936-7.104-14.88-10.144-23.632-6.912-5.6 2.048-10.832 5.12-16.256 7.632-1.664 0.784-3.616 1.008-5.248 1.856-1.36 0.704-2.704 1.728-3.584 2.96-1.28 1.744-2.736 2.048-4.048 0.24-1.52-2.128-1.568-4.448-0.24-6.72 2.416-4.192 4.944-8.336 7.36-12.512 0.496-0.848 1.040-1.712 1.296-2.624 0.528-2.032-0.656-3.888-2.704-4.064-1.936-0.16-2.72-1.216-3.104-2.912-1.392-6.032-1.088-11.952 1.584-17.552 7.84-16.512 14.72-33.536 25.456-48.544 2.992-4.208 5.952-8.464 9.056-12.592 3.776-5.024 7.456-10.176 11.616-14.864 11.6-13.024 24.992-24 39.2-34.048 1.376-0.992 2.464-2.368 3.712-3.504 1.568-1.44 3.024-3.072 4.816-4.192 12.144-7.392 24.32-14.704 36.544-21.952 3.744-2.224 7.712-4.064 11.408-6.352 3.056-1.872 6.016-3.968 8.768-6.24 3.168-2.624 6.752-4.112 10.768-4.48 7.2-0.656 13.936-2.976 20.752-5.168 5.984-1.936 12.192-3.216 18.288-4.864 3.216-0.88 6.512-1.728 9.632-2.912 5.44-2.048 10.944-3.424 16.784-3.632 2.672-0.080 5.328-0.848 8-1.232 4.608-0.656 9.232-1.28 13.872-1.904 1.52-0.208 3.056-0.384 4.576-0.576 2.096-0.064 4.24-0.064 6.384-0.064zM258.176 239.424c-0.304-2.4-1.824-2.56-3.168-2.512-0.576 0.016-1.104 1.024-1.664 1.584 1.008 0.752 1.904 1.744 3.056 2.192 0.416 0.16 1.328-0.928 1.792-1.28z"></path>
<path d="M47.552 404.080c1.52-1.36 3.056-2.736 4.592-4.064 5.456-4.72 10.832-9.344 15.040-15.44 5.792-8.352 12.496-16.080 18.864-24 2.608-3.248 5.408-6.368 8.048-9.584 4.112-5.008 8.352-9.936 12.224-15.136 6.4-8.608 13.344-16.72 21.168-23.984 8.784-8.144 15.632-17.696 21.44-28.064 1.36-2.416 2.848-4.832 4.704-6.896 0.944-1.088 2.704-1.6 4.208-2.032 2.656-0.752 5.376-1.248 8.112-1.856 0.944-0.208 1.888-0.592 2.832-0.576 3.456 0.096 6.912 0.272 10.352 0.576 1.008 0.080 2.176 0.432 2.928 1.072 3.552 3.12 6.416 6.656 7.824 11.376 2.656 8.944 1.248 17.44-2.736 25.52-1.216 2.448-3.6 4.432-5.76 6.288-5.168 4.432-10.624 8.544-15.776 13.024-3.072 2.688-5.792 5.808-8.64 8.752-0.8 0.816-1.536 1.712-2.416 2.448-19.328 16.032-40.048 30.16-60.64 44.432-4.608 3.2-8.96 6.528-13.056 10.288-1.504 1.376-2.944 1.648-4.944 1.008-1.216-0.416-2.944-0.304-4.096 0.272-5.872 2.96-11.616 6.176-17.408 9.232-3.792 2.016-4 1.936-6.832-1.152 0-0.496 0-0.992 0-1.472z"></path>
<path d="M400.512 120.032c-1.456-0.56-2.736-1.040-4.048-1.568-0.272 0.512-0.464 0.784-0.56 1.088-0.944 3.472-0.928 3.424-4.16 1.968-17.472-7.84-35.904-12.56-54.56-16.544-5.792-1.232-11.52-2.736-17.344-3.648-10.368-1.648-20.8-2.96-31.216-4.304-3.168-0.416-6.4-0.864-9.568-0.704-11.568 0.528-23.104 1.36-34.672 1.984-3.84 0.208-7.728 0.592-11.536 0.192-5.28-0.576-10.256 0.56-15.376 1.472-8.304 1.504-16.688 2.832-25.072 3.824-6.96 0.816-13.392 3.2-19.952 5.312-2.176 0.704-4.384 1.472-6.624 1.888-1.040 0.192-2.736-0.048-3.28-0.736s-0.432-2.544 0.16-3.312c2.176-2.848 4.288-5.968 7.12-8.064 11.616-8.576 23.008-17.68 35.424-25.008 17.008-10.016 33.84-20.592 52.288-28 7.36-2.96 14.96-5.376 22.432-8.128 11.936-4.416 23.984-8.496 36.416-11.36 5.76-1.312 11.488-2.752 17.232-4.080 0.352-0.080 0.784 0.080 1.664 0.208-1.088 2.176-1.952 4.192-3.072 6.016-5.664 9.040-6.224 18.48-0.8 27.472 4.56 7.584 9.024 15.568 17.328 20.080 11.392 11.040 25.616 18 38.864 26.32 5.28 3.312 9.504 7.488 13.424 12.176 1.728 1.984 1.52 3.248-0.512 5.456z"></path>
<path d="M180.64 155.2c2.752-4.736 6.464-7.12 11.408-8.048 4.576-0.864 9.152-2.032 13.488-3.712 8.992-3.536 18.384-4.944 27.888-5.888 9.648-0.944 19.328-1.616 29.008-2.464 6.464-0.56 12.88-1.616 19.344-1.712 8.448-0.096 16.976 0.016 25.36 0.944 15.6 1.728 31.296 3.312 46.64 6.4 16.608 3.344 33.36 6.976 48.576 14.96 5.616 2.96 10.672 7.024 15.76 10.864 2.8 2.112 3.392 5.136 2.272 7.68-0.944 2.192-2.4 2.96-4.72 2.24-2.768-0.88-5.504-0.816-8.208 0.16-0.608 0.224-1.28 0.528-1.888 0.48-6.032-0.512-10.752 3.6-16.4 4.432-5.6 0.848-11.216 1.68-16.784 2.672-2.832 0.512-5.584 1.376-8.352 2.096-0.464 0.128-1.072 0.208-1.376 0.512-3.168 3.264-7.696 3.936-11.424 6.080-4.272 2.448-8.16 5.456-12.144 8.384-1.008 0.736-1.712 1.984-2.4 3.088-1.824 2.8-3.536 5.664-5.456 8.384-0.288 0.416-1.648 0.528-2.176 0.224-0.88-0.512-1.568-1.44-2.224-2.272-5.936-7.68-13.344-13.84-20.832-19.856-2.96-2.384-6.56-3.968-9.808-6.016-9.216-5.808-19.312-9.776-29.248-14.112-1.040-0.448-2.112-0.944-3.056-1.584-9.808-6.496-21.088-8.128-32.368-8.928-11.056-0.784-21.776-3.28-32.592-5.216-2.544-0.448-4.88-0.784-7.632-0.048-3.344 0.928-7.040 0.272-10.592 0.272zM209.12 155.68c0.72-1.456 1.376-2.512 1.728-3.632 0.080-0.272-0.88-1.232-1.28-1.168-1.072 0.128-2.096 0.64-3.344 1.072 0.576 0.848 0.784 1.184 1.024 1.504 0.432 0.576 0.928 1.104 1.872 2.24zM276.656 167.264c-0.080 0.224-0.16 0.448-0.24 0.704 2.096 0.752 4.192 1.52 6.848 2.464-1.040-2.944-2.608-3.504-6.608-3.168zM332.4 199.12c-0.464 0.080-0.928 0.192-1.392 0.272 0.224 1.296 0.464 2.592 0.704 3.888 0.464-0.192 1.376-0.432 1.376-0.56-0.128-1.216-0.416-2.4-0.672-3.6z"></path>
<path d="M206.832 345.28c2.736-0.848 4.736-1.472 6.784-2.080 0.528-0.16 1.152-0.24 1.712-0.192 4.464 0.432 8.928 0.88 13.376 1.376 0.96 0.096 1.984 0.272 2.896 0.656 6.736 2.976 13.536 2.080 20.288 0.24 5.072-1.376 10.016-3.168 15.040-4.768 4.432-1.424 6.656-0.048 6.896 4.64 0.128 2.176-0.224 4.4-0.48 6.576-0.816 7.328-1.872 14.64-2.464 21.984-0.512 6.208-0.16 12.512-0.848 18.688-0.72 6.672-2.176 13.264-3.344 19.872-0.128 0.72-0.368 1.456-0.352 2.176 0.416 11.76-3.552 22.688-6.272 33.904-1.584 6.464-1.712 13.28-2.48 19.952-0.352 3.104-0.8 6.176-1.024 9.28-0.432 5.872-0.528 11.792-1.168 17.664-0.512 4.592-1.472 9.184-2.544 13.696-0.368 1.568-1.28 3.36-3.616 2.928-4.048-0.736-6.368-2.512-6.608-4.944-0.656-6.352-1.296-12.672-1.952-19.008-0.048-0.336-0.096-0.64-0.16-0.96-1.616-7.68-3.824-15.296-4.8-23.056-1.568-12.544-5.968-24.352-8.448-36.624-1.168-5.776-2.416-11.472-4.224-17.152-1.936-6.112-3.744-12.688-3.488-18.976 0.288-6.96-0.336-13.456-2.56-19.92-0.736-2.112-0.816-4.448-2.768-6.112-0.656-0.56-0.96-1.728-1.104-2.672-0.992-6-0.992-12.32-6.256-17.184z"></path>
<path d="M329.648 278.4c3.344 0.944 7.392 1.568 10.944 3.216 6.992 3.216 13.152 7.68 17.936 13.92 1.76 2.32 4.336 4.032 6.448 6.080 3.632 3.552 7.168 7.232 10.88 10.704 2.672 2.512 5.52 4.864 8.432 7.104 3.472 2.624 7.184 4.912 10.592 7.616 6.176 4.912 12.288 9.904 18.208 15.12 4.048 3.568 7.632 7.664 11.568 11.376 7.488 7.104 13.664 15.312 19.776 23.552 3.216 4.336 6.032 8.992 9.008 13.504 0.864 1.296 1.248 2.88-0.128 3.696-0.752 0.448-2.32-0.16-3.424-0.56-1.44-0.512-2.752-1.424-4.224-1.936-3.104-1.072-6.368-1.744-9.344-3.056-2.736-1.216-5.216-3.040-7.744-4.656-0.816-0.528-1.44-1.376-2.272-1.872-10.096-6.112-20.176-12.32-30.368-18.272-5.744-3.344-11.728-6.288-17.552-9.472-15.984-8.768-31.952-17.552-47.936-26.336-3.136-1.728-6.4-3.12-9.664-4.576-5.888-2.592-11.52-6.176-13.632-12.992-1.088-3.536-2.080-7.088-2.992-10.64-0.192-0.736-0.064-1.616 0.128-2.384 2.448-9.792 10.752-17.024 21.36-18.576 1.152-0.208 2.304-0.336 4.048-0.56z"></path>
</svg>
