<!-- Generated by IcoMoon.io -->
<svg version="1.1" xmlns="http://www.w3.org/2000/svg" width="512" height="512" viewBox="0 0 512 512">
<title>monsters-of-order</title>
<g id="icomoon-ignore">
</g>
<path d="M164.896 496.8c-0.8-0.432-1.664-0.752-2.352-1.312-2.688-2.192-5.68-3.008-9.12-2.48-3.664 0.544-5.712-2.208-8.032-4.272-0.368-0.336-0.208-1.536-0.048-2.288 1.296-5.648 1.12-11.328-1.312-16.496-4.24-9.056-5.2-18.848-7.568-28.352-2.080-8.256-5.552-16.368-11.12-23.216-0.624-0.768-1.312-1.536-2.16-2.064-4.048-2.56-7.904-5.232-10.752-9.28-0.768-1.12-2.784-1.584-4.32-1.888-2.56-0.496-5.248-0.4-7.792-0.928-1.792-0.368-3.648-1.088-5.136-2.112-2.256-1.52-4.144-1.536-6.064 0.336-0.128 0.144-0.24 0.272-0.4 0.368-2.688 1.696-5.376 3.376-8.032 5.040-4.208-2.064-8.672-3.712-11.344-7.952-0.624-0.992-1.2-2.016-1.696-3.072-1.392-2.96-2.896-5.76-5.904-7.488-0.752-0.432-1.392-1.2-1.84-1.968-5.456-9.392-9.952-19.072-7.888-30.432 0.256-1.312 0.48-2.832 1.264-3.792 6.816-8.16 9.696-17.728 11.008-28.080 1.168-9.216 3.744-18.352 3.952-27.552 0.24-11.28 2.848-22.16 4.096-33.248 0.112-1.088 0.24-2.16 0.24-3.232-0.032-13.376-0.272-26.72 0.032-40.096 0.112-5.152 1.44-10.288 2.176-15.424 0.4-2.944 0.992-5.872 1.040-8.8 0.176-8.256 1.344-16.368 3.744-24.256 1.488-4.912 3.888-9.296 7.344-13.12 5.536-6.048 10.56-12.736 16.704-18.080 11.552-10.016 24.912-17.168 39.536-21.888 3.968-1.296 7.632-3.552 11.472-5.28 3.344-1.52 6.72-2.944 10.112-4.368 1.344-0.576 2.784-0.848 4.048-1.52 8.48-4.544 17.728-6.624 27.024-8.384 2.064-0.384 4.384-0.272 6.416 0.224 7.68 1.952 15.424 3.776 22.928 6.32 10.32 3.504 20.032 8.256 29.552 13.808 10.208 5.968 18.464 14.080 27.568 21.2 3.216 2.512 5.52 6.368 7.776 9.888 2.656 4.192 4.656 8.768 7.264 12.992 6.64 10.752 11.68 22.16 15.072 34.336 0.256 0.848 0.304 1.936 0.848 2.56 5.408 6.144 5.36 14.032 6.64 21.392 3.68 21.008 2.368 41.92-1.856 62.704-0.112 0.528-0.208 1.072-0.272 1.6-0.752 4.912-0.72 4.928 4.272 5.056 0.72 2.784 1.344 5.68 2.24 8.48 4.64 14.32 6.784 29.136 9.248 43.92 0.448 2.784 1.696 5.504 2.976 8.032 2.352 4.56 3.008 9.104 1.44 14.080-1.632 5.232-3.776 10.048-7.584 14.16-4.56 4.88-8.896 9.968-13.152 15.152-1.264 1.536-2.208 3.552-2.688 5.456-0.848 3.424-2.8 5.328-6.224 5.872-6.896 1.12-13.504 1.392-19.76-2.976-3.744-2.64-8-1.488-11.744 0.816-5.632 3.456-9.52 8.48-12.72 14.128-2.112 3.744-3.472 7.568-3.424 12.016 0.112 8.992-1.264 17.76-4.592 26.256-0.848 2.208-0.576 4.944-0.528 7.456 0.032 1.696-0.4 2.56-2.192 2.576-2.656 0.032-3.888 1.712-4.368 4.016-0.432 2.128-0.624 4.288-0.928 6.448-0.528 3.92-2.656 6.864-5.6 9.28-3.696 3.008-9.808 1.12-12.048-3.568-0.624-1.312-1.44-2.56-2.080-3.68-3.824 3.648-7.488 6.864-10.8 10.384-1.712 1.808-3.328 2.016-5.264 0.944-3.968-2.176-6.624-5.168-6.72-10.032-0.080-4.416-0.208-8.848-0.624-13.264-0.144-1.344-0.944-3.024-1.984-3.776-2.256-1.616-3.968-0.544-3.968 2.24 0 2.176 0.304 4.336 0.208 6.48-0.080 1.488-0.176 3.28-0.976 4.368-2.72 3.568-3.504 7.664-4.048 11.872-0.496 3.824-1.36 4.112-5.248 3.744-3.648-0.336-5.856-2.512-8.112-4.88-1.392-1.44-2.624-3.024-4.192-4.224-0.768-0.592-2.304-0.848-3.12-0.448-0.848 0.4-1.424 1.696-1.712 2.736-0.224 0.8 0.080 1.792 0.256 2.656 0.944 4.96 0.48 5.92-3.92 8.080-0.992-0.032-2.080-0.032-3.168-0.032zM298.848 364.96c2.752-2.064 3.52-4.048 2.8-6.592-0.4-1.376-0.592-2.832-0.944-4.224-2.208-8.432-4.464-16.848-6.72-25.264-1.536-5.696-10.72-11.792-16.288-10.864-11.728 1.952-21.216 8.224-30.112 15.6-1.568 1.296-2.72 3.152-3.792 4.912-3.936 6.48-7.616 13.088-11.664 19.488-1.136 1.792-3.024 3.392-4.928 4.288-2.208 1.072-3.008 2.336-2.608 4.64 0.528 2.912 1.712 4.112 4.432 4.064 6.448-0.080 12.736-0.752 18.768-3.392 6.64-2.88 13.552-4.912 20.848-5.328 0.704-0.048 1.488-0.176 2.032-0.592 5.184-3.664 11.12-5.456 17.056-7.312 5.456-1.696 5.744-1.616 7.984 3.824 0.928 2.24 1.984 4.368 3.12 6.8zM96.704 344.032c0.32 2.832-0.368 6.176 2.512 7.68 2.848 1.488 5.040 5.52 9.28 3.2 0.288-0.16 0.944 0.432 1.472 0.528 1.568 0.32 3.12 0.816 4.688 0.816 5.6-0.032 11.232-0.688 16.768-0.224 4.144 0.336 8.288 1.648 12.192 3.152 5.376 2.064 10.48 4.784 15.776 7.072 1.168 0.496 2.704 0.544 3.968 0.336 4.64-0.752 5.408-2.688 2.4-6.256-5.264-6.224-9.856-13.024-16.368-18.256-5.456-4.368-10.368-9.456-15.648-14.112-1.040-0.912-2.528-1.392-3.872-1.856-5.184-1.808-10.432-3.408-15.552-5.36-4.032-1.536-4.384-1.488-6.768 2.112-1.888 2.848-4 5.52-5.968 8.32-1.264 1.792-2.8 3.504-3.552 5.504-0.816 2.288-0.928 4.88-1.36 7.36zM185.424 428.544c3.872-2.24 7.632-4.336 11.296-6.592 1.6-0.992 2.912-0.976 4.464-0.032 2.976 1.856 6.128 3.472 9.088 5.36 1.488 0.944 2.736 2.288 4.144 3.376 0.656 0.496 1.584 1.264 2.144 1.12 0.624-0.176 1.408-1.312 1.392-2.016-0.112-2.64-0.272-5.36-0.912-7.904-0.656-2.608-2.464-4.992-2.736-7.584-0.848-8.208-3.648-15.568-7.456-22.784-1.936-3.648-2.384-8.080-3.504-12.144-1.024-3.616-3.648-4.912-7.056-3.552-4.192 1.68-7.888 9.376-7.024 13.792 0.656 3.328 1.472 6.912 0.848 10.112-1.376 7.584-3.424 15.088-5.536 22.512-0.64 2.256-0.72 4 0.832 6.368zM181.152 476.24c1.088 1.856 2.016 3.616 3.168 5.232 0.432 0.608 1.344 0.864 2.016 1.296 0.368-0.752 1.2-1.616 1.040-2.256-0.4-1.808-1.040-3.6-1.936-5.232-0.448-0.848-1.632-1.264-2.464-1.888-0.496 0.848-1.024 1.664-1.808 2.832zM157.936 482.32c-0.912-0.944-1.792-1.856-2.688-2.8-0.912 1.424-2.128 2.752-2.608 4.288-0.4 1.312 0.208 2.784 2.128 2.656 2.368-0.112 2.416-1.968 3.168-4.144zM241.472 478.592c1.2-1.344 2.256-2.56 3.424-3.84-1.2-1.088-1.36-3.664-3.776-2.208-1.712 0.992-1.568 3.712 0.368 6.048z"></path>
<path d="M0 221.408c2.352-1.888 4.64-2.48 7.632-0.848 5.232 2.848 10.304-0.304 11.344-6.592 1.024-6.176 0.144-12.224-0.816-18.304-1.632-10.512-3.296-21.056-4.512-31.616-1.088-9.52 0.144-18.896 2.656-28.144 2.064-7.568 3.744-15.184 7.312-22.32 4.112-8.24 8.864-15.824 15.84-22.016 6.816-6.032 13.088-12.72 20-18.656 3.296-2.832 7.488-4.608 11.328-6.8 7.984-4.592 15.936-9.216 23.968-13.664 8.576-4.768 17.424-9.104 25.824-14.176 4.88-2.96 9.12-6.976 13.648-10.56 2.4-1.904 4.656-3.968 7.088-5.824 1.296-0.976 2.624-1.024 3.568 0.768 1.312 2.416 2.48 2.624 4.56 0.768 2.432-2.16 4.704-4.496 7.088-6.688 2.848-2.592 5.312-1.888 6.176 1.968 0.88 3.92-0.176 7.536-2.832 10.56-1.072 1.2-2.384 2.208-3.664 3.2-5.424 4.048-11.024 7.888-16.288 12.128-3.968 3.232-7.552 6.96-11.248 10.512-1.936 1.888-4.144 3.648-5.632 5.824-4.464 6.496-9.28 12.864-6.912 21.744 1.168 4.4 1.344 9.056 1.984 13.936 2.656-1.152 5.52-2.384 8.672-3.776 0 0.768 0.176 1.296-0.032 1.568-2.752 3.84-5.584 7.584-10.688 8.48-0.704 0.112-1.392 0.4-2.064 0.688-20.176 8.8-34.384 23.408-43.056 43.616-4.928 11.424-9.216 23.040-13.28 34.832-4.976 14.384-6.176 29.024-6.592 43.936-0.144 4.88-0.656 9.744-0.624 14.608 0.080 8.656 0.336 17.312 0.8 25.952 0.4 8.128 1.2 16.272-1.84 24.096-0.768 2.016-1.68 4-2.784 5.856-1.296 2.16-2.576 2.128-4.272 0.352-2.288-2.432-4.736-4.688-6.992-7.136-1.296-1.376-2.56-2.832-3.52-4.416-4.384-7.392-8.304-15.008-10.256-23.472-0.144-0.704-0.32-1.44-0.656-2.048-6.256-11.056-12.56-22.112-18.864-33.152-0.672-1.2-1.44-2.336-2.144-3.456 0-0.544 0-1.088 0-1.632z"></path>
<path d="M159.072 85.168c2.192-2.88 4.16-4.464 7.040-5.104 1.2-0.24 2.48-1.76 2.928-2.976 0.208-0.576-1.536-1.904-2.528-2.736-0.816-0.656-1.808-1.072-3.28-1.888 1.376-1.216 2.288-2.368 3.472-2.96 4.688-2.336 9.408-4.608 14.224-6.672 12.112-5.136 24.064-10.784 36.512-15.024 15.536-5.264 31.408-9.936 47.84-11.36 8.768-0.752 17.696-0.24 26.48 0.4 8.72 0.624 17.376 2.16 26.064 3.296 6.992 0.928 13.584-0.592 20.16-2.848 12.496-4.32 24.992-8.8 37.744-12.32 11.184-3.072 22.656-3.408 33.84 1.024 2.144 0.864 4.544 1.168 6.848 1.536 4.464 0.672 7.056 3.424 8.496 7.392 1.152 3.2-0.912 5.904-4.224 5.264-8.080-1.584-16.032-0.528-23.968 0.496-2.912 0.352-5.696 1.648-8.544 2.464-2.576 0.72-5.2 1.36-7.776 2.064-3.792 1.072-7.632 1.984-11.328 3.296-2.432 0.88-4.64 2.4-7.008 3.552-10.416 5.040-13.84 14.336-14.4 24.864-0.368 6.352 3.68 10.736 8.976 13.84 5.040 2.944 10.64 4.016 16.368 4.208 5.68 0.176 11.424 0.32 17.056-0.24 4.512-0.464 8.928-2.080 13.392-3.104 12.912-2.944 25.824-6.048 38.816-8.656 8.304-1.664 16.832-3.504 25.264-1.856 8.032 1.568 15.872 4.144 23.776 6.272 0.336 0.080 0.752 0.176 0.976 0.432 4.256 4.688 10.192 5.952 15.84 7.744 4.544 1.44 8.032 4.016 9.92 8.512 1.168 2.8 0.144 5.040-2.848 5.328-3.936 0.4-7.936 0.656-11.888 0.528-11.056-0.4-22.112-0.176-32.848 2.592-4.432 1.168-8.624 3.6-12.656 5.856-4.064 2.256-7.728 5.28-12.688 5.488-0.896 0.048-1.904 0.672-2.608 1.312-7.568 6.848-15.248 13.568-22.528 20.688-3.936 3.824-6.352 8.608-8.496 13.856-4.432 10.832-5.632 22.512-9.92 33.376-4.112 10.368-11.056 18.496-18.64 26.288-4.512 4.656-9.664 9.072-12.784 14.592-3.664 6.448-6.72 13.856-2.384 21.552 1.952 3.456 4.048 6.816 6.192 10.144 0.576 0.88 1.472 1.792 2.4 2.128 6.4 2.304 12.688 4.176 19.536 0.768 3.28-1.632 7.28-2.064 11.008-2.432 6.256-0.592 12.592-1.152 18.832-0.864 4.384 0.208 8.080 2.624 10.624 6.672 1.152 1.824 3.344 3.008 4.688 4.736 0.88 1.152 1.968 3.344 1.472 4.144-0.88 1.392-2.784 2.384-4.464 2.944-1.472 0.496-3.392-0.256-4.784 0.304-3.392 1.36-6.768 2.4-10.464 2.56-0.976 0.048-2.080 0.752-2.848 1.472-11.376 10.512-24.288 19.392-34.080 31.632-8.032 10.016-13.36 21.632-19.488 32.768-1.392 2.56-2.384 2.848-4.288 0.704-0.768-0.848-1.392-1.888-1.84-2.976-3.168-7.952-6.448-15.872-9.344-23.904-3.616-9.92-6.624-20.032-10.432-29.856-3.568-9.152-4.272-18.256-2.432-27.872 1.072-5.6 0.864-11.456 1.2-17.184 0.176-2.624 0.080-5.232 0.32-7.84 1.216-12.96-1.952-25.264-5.472-37.536-2.512-8.736-4.592-17.616-7.184-26.352-1.488-4.992-3.616-9.776-5.408-14.704-0.464-1.248-0.912-2.624-0.816-3.92 0.256-3.456-0.992-6.304-2.928-9.056-2.032-2.976-3.664-6.224-5.856-9.024-2.24-2.88-4.56-5.936-7.536-7.936-3.616-2.448-6.464-5.312-8.176-9.12-3.872-8.608-10.336-14.592-18.288-19.344-8.16-4.88-15.936-10.288-22.336-17.456-2.464-2.752-5.824-3.664-9.424-4.208-9.168-1.392-18.304-3.152-27.456-4.624-2.256-0.368-4.592-0.288-6.864-0.32-4.224-0.048-8.544 0.48-12.672-0.128-6.72-0.976-13.136 0.4-19.632 1.488-5.68 0.944-11.28 2.208-16.928 3.328-0.992 0.224-1.936 0.32-3.552 0.576zM344.432 212.112c-0.224-1.216-0.432-2.912-0.928-4.512-0.176-0.576-1.168-0.88-1.792-1.312-0.4 0.592-1.136 1.2-1.12 1.792 0.080 2.112 0.32 4.272 0.672 6.368 0.096 0.576 0.848 0.992 1.296 1.488 0.544-0.496 1.2-0.928 1.568-1.536 0.256-0.48 0.16-1.2 0.304-2.288zM335.344 55.024c-1.536-1.040-2.288-1.952-3.168-2.080-1.888-0.272-3.792 1.52-3.344 3.28 0.304 1.168 1.632 2.112 2.48 3.136 1.152-1.264 2.336-2.528 4.016-4.336z"></path>
</svg>
