<!-- Generated by IcoMoon.io -->
<svg version="1.1" xmlns="http://www.w3.org/2000/svg" width="512" height="512" viewBox="0 0 512 512">
<title>monsters-of-order</title>
<g id="icomoon-ignore">
</g>
<path d="M508.848 16.24c-6.832 11.232-13.952 22.288-20.384 33.76-8.704 15.456-18.176 30.48-24.656 47.104-2.736 6.96-5.344 14.16-9.36 20.368-3.12 4.8-5.584 9.792-7.872 14.944-8.656 19.632-17.152 39.376-25.776 59.040-2.928 6.688-6.16 13.232-8.992 19.968-1.392 3.312-2.288 6.896-3.088 10.416-0.624 2.816-1.824 3.712-4.608 2.704-5.376-1.968-8.080-7.744-6.368-13.104 1.632-5.088 2.688-10.176 1.28-15.6-0.624-2.384-0.112-5.056-0.16-7.6-0.192-8.672-0.336-17.376-0.624-26.048-0.288-8.608-0.672-17.2-1.024-25.792-0.144-3.216-0.32-6.4-0.592-9.6-0.288-2.976-1.552-3.664-4.24-2.288-0.944 0.48-1.808 1.232-2.512 2.064-6.592 7.488-12.992 15.152-19.808 22.464-4.144 4.448-9.072 8.176-13.376 12.48-6.768 6.8-13.936 13.232-19.296 21.36-1.472 2.224-3.984 3.744-5.856 5.712-3.504 3.68-7.152 7.296-10.32 11.28-6.496 8.192-12.896 16.512-19.072 24.96-12.816 17.568-27.728 33.504-39.632 51.792-9.84 15.088-19.808 30.032-28.112 46.032-1.488 2.864-3.52 5.424-5.344 8.112-0.288-0.064-0.592-0.144-0.896-0.224-0.288-1.072-0.768-2.128-0.896-3.216-0.208-1.984 0.048-4.048-0.304-6.016-0.656-3.824-1.44-7.664-2.496-11.392-0.768-2.688-2.256-5.184-2.976-7.92-0.864-3.136-3.136-3.616-5.808-4.080-2.608-0.464-4.144 0.32-5.664 2.608-9.808 15.024-19.744 29.936-29.744 44.832-1.68 2.496-3.824 4.656-5.936 6.848-4.288 4.448-7.6 9.504-10.864 14.736-3.12 4.992-7.456 9.184-11.328 13.68-1.024 1.216-2.448 1.2-3.28-0.096-0.944-1.488-2.176-3.296-2.016-4.848 0.416-4.208 0.592-8.608 3.504-12.192 0.512-0.624 0.624-1.712 0.592-2.56-0.064-1.072-0.384-2.16-0.768-3.168-2.16-5.664-2.544-5.584-8.56-5.952-4.704-0.272-9.376-1.472-14.048-2.208-2.512-0.416-5.040-1.056-7.552-1.2-10.048-0.528-20.128-1.008-30.192-1.328-11.424-0.368-16.816 0.624-34.704 5.904-0.864-3.168-0.256-6.144 1.104-8.976 0.96-2.048 1.888-4.256 3.312-5.968 1.344-1.632 3.136-3.040 5.008-4.032 3.408-1.776 7.008-3.12 10.48-4.672 12.192-5.456 24.416-10.832 36.576-16.368 14.464-6.624 27.68-14.976 39.712-25.632 6.72-5.952 13.2-12.384 20.48-17.664 8.304-6.016 15.312-13.28 22.912-20.016 6.528-5.792 12.4-12.144 18.544-18.256 1.744-1.744 3.792-3.184 5.872-4.512 5.040-3.2 8.592-7.536 10.848-13.072 0.736-1.776 2.192-3.296 2.96-5.088 0.8-1.872 1.168-3.936 1.776-6.112 0.288 0.048 0.8 0.112 1.28 0.256 2.448 0.72 4.128-0.016 5.52-2.256 3.312-5.232 6.848-10.352 10.4-15.664 2.88 1.552 4.512 3.776 5.088 6.672 0.336 1.68 0.48 3.456 0.384 5.168-0.288 5.968 1.248 7.344 7.216 6.24 0.368-0.064 0.768-0.176 1.072-0.064 4.032 1.424 5.76-1.248 7.12-4.176 3.52-7.504 8.736-13.552 15.088-18.928 5.056-4.304 9.28-9.6 14-14.336 13.2-13.232 26.608-26.256 39.632-39.616 7.344-7.536 14.176-15.52 21.088-23.456 1.056-1.216 1.968-3.696 1.424-4.8-0.624-1.2-3.040-2.032-4.672-2.016-10.512 0.192-21.056 0.432-31.568 1.104-8.304 0.528-16.432 0.912-24.4-2.128-1.984-0.752-4.32-0.864-6.48-0.912-4.944-0.112-9.904 0-14.848-0.016-0.944 0-1.872-0.144-3.344-0.24 0.72-0.688 0.944-1.008 1.232-1.12 1.344-0.64 3.216-0.8 2.88-3.024s-1.632-3.696-3.712-4.32c-0.912-0.288-2.064-0.416-2.96-0.144-2.88 0.864-3.568-0.624-3.616-3.024 0-0.64 0-1.28 0-2.32 1.344 0 2.736-0.288 3.968 0.048 5.376 1.488 10.608 0.688 15.632-1.264 14.464-5.632 29.68-8.64 44.56-12.752 2.176-0.592 4.576-0.48 6.768-1.104 4.128-1.152 8.32-2.208 12.192-3.968 9.792-4.432 19.744-8.176 30.32-10.352 3.824-0.768 7.584-2.112 11.232-3.568 22.24-9.088 45.504-15.024 68.384-22.080 10.512-3.264 20.8-7.056 30.64-11.968 2.832-1.424 5.568-2.992 8.336-4.512 0.192 0 0.368 0 0.544 0 1.28 1.648 2.56 3.312 3.856 4.944-0.096 1.12-0.096 2.208-0.096 3.312z"></path>
<path d="M125.856 279.488c-5.28 2.224-10.88 4.48-16.384 6.912-6.768 2.992-13.456 6.16-20.224 9.2-1.984 0.896-4 1.824-6.096 2.384-2.208 0.592-3.52 1.6-3.856 3.984-0.368 2.752-2.032 4.608-4.56 5.744-6.048 2.688-12.416 4.56-17.936 8.448-2.848 2.016-6.032 3.168-9.664 0.8-2.32-1.488-4.4-0.24-5.248 2.512-1.808 5.856-2.56 11.76-0.672 17.808 1.104 3.472 1.888 7.056 3.024 10.528 0.576 1.776 1.824 3.36 2.4 5.152 0.768 2.4 1.712 4.896 1.712 7.344 0 4.4 1.504 7.6 4.912 10.432 1.984 1.68 3.216 4.352 4.464 6.736 1.008 1.92 1.472 4.144 2.352 6.144 1.648 3.6 4 4.88 7.936 4.4 4.992-0.624 10.032-1.024 14.96-2.080 2.656-0.576 5.312-1.904 7.536-3.504 3.008-2.144 5.76-4.448 9.6-4.992 1.056-0.144 2.112-1.072 2.928-1.856 2.992-2.784 6.096-5.104 10.544-5.264 1.392-0.048 2.928-1.68 4.080-2.864 2.080-2.176 7.008-3.84 9.744-2.864 0.544 0.208 1.232 1.008 1.232 1.504-0.016 1.68 0.096 3.6-0.64 5.040-2.080 4.176-4.416 8.208-6.864 12.176-3.024 4.88-5.152 10.048-6.304 15.68-0.416 2.016-1.344 3.936-2.128 5.856-2.688 6.384-5.616 12.688-8.080 19.168-1.712 4.528 0.576 8.448 5.152 10.256 2.016 0.768 3.872 1.968 5.776 3.024 1.504 0.848 2.928 1.856 4.48 2.656 5.232 2.656 10.336 5.568 15.744 7.744 4.288 1.712 8.928 2.56 13.424 3.632 3.52 0.864 7.168 1.264 10.656 2.224 3.6 0.992 4.128 0.896 5.136-2.592 0.080-0.336 0.144-0.72 0.272-1.056 1.2-3.936 1.344-4 5.424-2.96 3.648 0.944 3.872 0.72 4.56-3.088 0.24-1.296 0.816-2.608 1.424-3.792 2.768-5.232 5.856-10.32 8.4-15.616 2.736-5.68 5.136-11.52 7.408-17.392 0.96-2.512 1.344-5.28 1.776-7.968 0.672-4.416 0.96-8.88 1.68-13.28 1.344-8.592 2.736-17.152 4.368-25.68 0.624-3.392 2.112-6.592 2.912-9.952 0.592-2.512 0.736-5.136 1.056-7.68 0.576-4.784 0.544-9.744 3.344-13.936 0.512-0.768 1.44-1.248 2.208-1.856 0.544 0.768 1.472 1.504 1.6 2.352 0.768 4.848 2.4 9.888 1.792 14.608-1.744 13.248 0.576 26.272 0.976 39.424 0.432 14.416 4.912 28.032 7.728 41.984 0.416 2.016 0.176 4.176 0.592 6.192 0.672 3.264 1.584 6.48 2.4 9.696 0.368 1.472 0.688 2.976 1.2 4.4 0.688 1.92 1.024 4.448 2.432 5.568 3.184 2.544 6.848 4.48 10.48 6.4 0.864 0.464 2.56 0.32 3.392-0.24 4.944-3.376 10.72-3.408 16.224-4.656 7.392-1.68 14.864-3.136 22.048-5.488 13.52-4.464 18.944-20.544 13.248-32.176-3.088-6.288-6.224-12.928-7.264-19.728-1.536-10.224-5.424-19.232-10.512-27.808 2.544-3.2 4.512-3.44 7.248-0.944 5.008 4.56 9.968 9.168 12.976 15.456 0.768 1.6 2.064 3.024 3.312 4.352 7.152 7.776 15.808 13.728 24.352 19.792 3.808 2.704 7.872 1.488 10.144-2.512 2.864-4.992 5.888-9.904 8.944-14.784 3.552-5.664 7.68-10.96 10.704-16.864 3.616-7.12 6.96-14.512 9.264-22.112 1.584-5.232 1.2-11.056 1.584-16.608 0.112-1.824-0.72-3.312-2.704-3.568-13.824-1.904-26.432-7.76-39.568-11.792-9.92-3.040-20.288-4.576-30.464-6.8-4.56-0.992-9.088-2.112-13.68-2.96-1.776-0.336-3.76-0.576-5.456-0.144-4 1.072-7.28-0.416-10.944-2.288 1.808-1.024 3.28-2.176 4.944-2.784 8.32-3.040 16.4-6.544 25.696-6.448 5.568 0.048 11.2-1.536 16.72-2.752 18.672-4.096 37.296-8.384 55.952-12.592 1.792-0.416 3.568-0.816 5.376-1.2 1.696-0.336 2.592-1.248 2.432-3.040-0.528-5.568-1.008-11.12-1.648-16.656-0.112-0.896-0.72-2.080-1.44-2.496-2.256-1.232-2.48-3.136-2.448-5.36 0-5.232-1.68-9.84-5.52-13.6-1.312-1.264-2.32-2.832-3.44-4.272-1.68-2.176-3.792-2.736-6.336-1.824-8.224 3.024-16.4 6.112-24.688 8.992-3.68 1.296-7.456 2.304-11.28 3.232-0.72 0.176-2.016-0.528-2.48-1.216-0.432-0.656-0.496-2.032-0.064-2.688 1.344-2.176 2.784-4.32 4.56-6.16 7.024-7.328 14.256-14.464 21.248-21.808 2.928-3.088 5.52-6.528 8.256-9.824 0.528-0.624 0.944-1.392 1.552-1.904 3.456-2.688 5.408-6.384 7.056-10.304 0.528-1.264 1.072-2.544 1.856-3.664 1.92-2.704 5.232-3.168 7.216-0.576 2.496 3.232 4.56 6.816 6.448 10.432 1.2 2.32 2.56 3.92 5.008 5.088 2.224 1.056 4.368 2.768 5.856 4.72 12.848 16.592 18.72 35.856 20.512 56.416 0.72 8.336 1.12 16.816 0.368 25.104-0.688 7.808 0.592 15.264 1.168 22.912 0.816 10.656 0.736 21.216-1.952 31.824-4.56 18.080-9.536 36.032-16.72 53.28-1.248 3.024-2.752 6.016-4.672 8.656-6.88 9.36-13.952 18.576-21.008 27.84-3.52 4.624-7.744 8.448-12.624 11.696-2.256 1.488-3.76 4.048-5.568 6.16-0.48 0.544-0.736 1.296-1.248 1.776-8.32 6.848-16.32 13.984-26.848 17.712-6.208 2.192-11.68 6.336-17.584 9.504-5.408 2.88-10.912 5.568-16.336 8.4-1.056 0.544-2.4 0.944-3.024 1.824-2.016 2.976-5.184 3.744-8.224 4.992-2.864 1.152-5.568 2.768-8.224 4.352-5.968 3.52-12.176 5.92-19.312 4.512-0.528-0.112-1.12-0.144-1.648-0.048-8.704 1.424-17.328-1.056-26-0.544-1.264 0.064-2.544-0.224-3.808-0.48-2.080-0.384-3.328-1.68-3.952-3.728-0.336-0.992-0.848-2.112-1.632-2.656-0.688-0.48-1.952-0.464-2.8-0.192-0.416 0.144-0.736 1.424-0.624 2.112 0.32 2.128-0.592 2.816-2.592 2.768-3.040-0.064-6.048 0.016-8.512-2.256-0.544-0.528-1.712-0.576-2.592-0.544-15.264 0.64-29.76-3.136-44.16-7.584-1.2-0.368-2.592-0.768-3.744-0.48-3.040 0.8-5.488-0.304-8.064-1.648-5.872-3.12-11.824-6.064-17.776-9.072-1.056-0.544-2.224-0.96-3.168-1.648-9.424-6.912-20.048-12.176-28.4-20.624-2.080-2.128-4.704-3.808-7.216-5.424-5.424-3.52-9.52-8.24-12.928-13.632-0.464-0.736-1.008-1.632-1.744-1.968-3.552-1.648-5.104-4.576-5.664-8.192-0.384-2.56-1.392-3.664-4.24-4.624-2.448-0.832-4.368-4.352-5.664-7.104-1.248-2.64-1.392-5.808-1.952-8.752-0.144-0.752 0.064-1.552 0.72-2.592 0.64 0.768 1.344 1.504 1.92 2.352 1.504 2.32 3.472 2.288 4.8-0.192 1.712-3.312 1.92-6.768-0.208-9.936-3.488-5.152-5.872-10.736-7.6-16.64-0.576-1.952-1.92-2.976-3.84-3.888-2.128-1.008-4.080-2.752-5.632-4.56-1.712-1.968-3.52-2.928-6.144-2.912-2.256 0.016-4.528-0.464-6.8-0.688-0.736-0.064-1.584-0.368-2.16-0.096-2.832 1.376-4.384-0.16-5.488-2.352-1.376-2.768-2.864-5.568-3.712-8.496-3.52-12.32-6.368-24.784-7.072-37.648-0.096-1.504-0.896-2.976-1.056-4.512-0.256-2.304-0.368-4.656-0.288-6.976 0.096-2.176 0.624-4.32 0.816-6.496 1.168-13.76 2.208-27.52 3.504-41.28 0.416-4.448 0.96-8.992 2.352-13.2 2.064-6.192 4.992-12.144 7.456-18.224 0.528-1.296 0.496-2.832 0.944-4.176 0.768-2.4 1.504-4.832 2.56-7.12 1.632-3.568 3.76-6.912 5.2-10.544 5.088-12.736 12.256-24.352 21.616-34.144 17.232-18.064 34.848-35.872 56.688-48.688 2.592-1.536 5.088-3.264 7.488-5.104 8.592-6.592 18.56-10.8 28.752-13.152 7.408-1.712 14.576-4.576 22.304-5.28 4.944-0.464 9.888-1.76 14.704-3.168 6.48-1.904 13.12-2.256 19.792-2.64 5.2-0.288 10.4-0.992 15.584-1.472 6.48-0.592 12.784-0.144 18.72 2.976 1.424 0.72 3.136 0.992 4.752 1.264 16.672 2.816 31.52 9.888 45.216 19.536 0.72 0.528 1.344 1.232 1.968 1.904 2.192 2.336 4.832 3.344 8.080 3.408 2.64 0.048 5.28 0.496 7.84 1.104 2.736 0.624 3.184 2.288 0.896 3.92-1.584 1.12-3.792 1.904-5.712 1.904-3.472-0.016-6.528 0.32-8.752 3.44-0.528 0.752-1.632 1.152-2.512 1.584-4.448 2.064-7.936 5.152-10.608 9.264-0.736 1.152-2.16 1.808-3.136 2.832-1.68 1.712-3.6 3.344-4.848 5.376-2.288 3.744-4.192 4.144-8.032 2.032-5.488-2.992-9.312-7.6-13.12-12.288-2.544-3.136-5.104-3.040-7.584 0.192-0.432 0.576-0.864 1.216-1.072 1.904-3.184 10.256-7.152 20.24-9.84 30.72-3.712 14.576-8.704 28.944-19.248 40.448-0.512 0.544-0.96 1.104-1.472 1.648-0.192 0.192-0.416 0.336-0.896 0.736-0.416-1.392-0.768-2.656-1.152-3.92-1.296-4.464-2.768-8.912-3.888-13.408-2.496-9.984-5.376-19.936-3.936-30.48 0.176-1.424 0-2.928-0.112-4.368-0.48-6.288-1.056-12.576-1.488-18.864-0.192-3.168-0.624-3.504-3.744-3.616-13.52-0.512-26.224 3.744-39.072 6.912-6.544 1.632-12.976 3.824-19.456 5.744-2.8 0.832-3.888 2.736-3.136 5.44 2.176 8.016 4.128 16.112 6.784 23.968 3.168 9.344 7.008 18.448 10.544 27.68 0.288 0.768 0.816 1.6 0.736 2.336-0.24 1.632-0.336 3.632-1.344 4.688-0.672 0.72-2.848 0.288-4.24-0.048-1.312-0.304-2.496-1.12-3.696-1.824-9.408-5.328-18.768-10.64-28.112-16.032-1.408-0.8-2.608-1.952-3.92-2.928-1.744-1.296-3.552-2.496-5.2-3.92-1.584-1.344-3.168-2.768-4.368-4.416-2.832-3.872-6.048-4.48-9.424-1.12-3.504 3.472-6.64 7.328-9.952 11.008-1.168 1.296-2.112 3.024-3.552 3.776-4.368 2.336-6.4 6.24-8.128 10.56-0.624 1.6-1.536 3.136-2.448 4.592-4.624 7.312-8.32 14.88-9.088 23.712-0.48 5.44-1.632 10.848-2.688 16.208-0.736 3.664-2.128 7.12-1.312 11.040 0.432 2.032 1.312 2.864 3.264 2.864 2.304 0 4.608 0.272 6.864-0.016 1.776-0.256 3.616-0.96 5.184-1.872 1.44-0.864 2.496-1.2 4.224-0.496 1.888 0.72 4.096 0.8 6.192 0.848 10.72 0.192 21.44 0.16 32.144 0.496 3.456 0.112 6.864 1.12 10.272 1.744 0.368 0.064 0.72 0.192 1.024 0.368 3.872 1.664 7.648 3.504 11.76 5.488zM169.6 465.264c0.576-0.048 1.68 0.192 1.952-0.176 0.8-1.072 1.824-2.448 1.744-3.648-0.192-2.176-1.744-1.424-3.024-0.736-0.864 0.464-1.872 0.768-2.704 1.28-0.688 0.464-1.2 1.168-1.824 1.776 0.768 0.464 1.536 0.992 2.368 1.344 0.384 0.176 0.896 0.112 1.504 0.144zM59.712 423.472c-0.16-1.632-0.144-3.072-0.48-4.4-0.16-0.624-1.056-1.024-1.6-1.552-0.464 0.624-1.2 1.216-1.296 1.872-0.32 2.256 0.864 3.504 3.392 4.080zM372.656 332c2.256-2.448 2.432-3.92 0.72-6.624-1.152 2.224-2.336 4.224-0.72 6.624z"></path>
</svg>
