<!-- Generated by IcoMoon.io -->
<svg version="1.1" xmlns="http://www.w3.org/2000/svg" width="512" height="512" viewBox="0 0 512 512">
<title>monsters-of-order</title>
<g id="icomoon-ignore">
</g>
<path d="M507.168 236.592c-1.376 1.408-3.008 1.664-5.008 1.888-3.744 0.4-7.456 1.568-11.12 2.656-3.504 1.056-6.896 2.432-10.368 3.616-2.352 0.816-4.736 1.664-7.152 2.24-2.496 0.608-5.024 0.928-7.584 1.344-2.016 0.336-4.112 0.352-6.064 0.944-13.216 4-26.448 8-39.6 12.256-3.712 1.216-7.344 2.912-10.704 4.912-5.776 3.456-11.248 7.408-16.976 10.928-2.096 1.28-4.496 2.32-6.896 2.784-3.504 0.704-5.056-0.336-6.752-3.488-2.208-4-3.552-4.576-7.456-2.288-6.080 3.568-10.496 8.448-11.936 15.712-1.072 5.408-3.104 10.528-7.904 13.92-2.176 1.552-4.656 2.72-6.656 4.464-6.416 5.616-12.752 11.36-18.992 17.152-2.896 2.688-6.176 4.24-9.92 5.584-9.392 3.392-17.696 8.368-21.168 18.704-0.944 2.8-0.432 4.88 1.792 6.672 3.152 2.512 6.288 5.072 9.472 7.552 0.672 0.512 1.616 0.672 2.384 1.12 0.896 0.512 2.224 0.992 2.496 1.776 1.104 3.216 3.776 4.352 6.528 5.52 0.464 0.208 0.88 0.512 1.504 1.616-1.28 0.496-2.544 1.296-3.84 1.408-5.808 0.464-11.648 0.816-17.488 1.008-2.784 0.112-4.448 1.376-4.912 4-0.512 2.896-1.12 5.856-1.056 8.784 0.096 3.6 2.576 5.776 5.776 7.104 4.48 1.84 4.784 2.992 1.216 6.304-2.544 2.384-3.744 5.344-4.72 8.608-2.32 7.952-4.56 15.968-8.656 23.264-0.432 0.768-0.56 1.68-0.832 2.544-3.328 11.056-6.848 22.032-9.952 33.152-3.024 10.848-6.304 21.712-6.496 33.152 0 0.624-0.224 1.44 0.064 1.856 2.336 3.296 0.16 4.992-2.224 6.624-0.176 0-0.352 0-0.544 0-3.376-2.432-4.544-5.728-4.352-9.808 0.224-5.28 0.896-10.704 0.064-15.856-1.568-9.888-3.904-19.648-6.224-29.392-1.552-6.528-3.792-12.896-5.344-19.424-0.992-4.176-1.264-8.512-1.872-12.752-0.112-0.72-0.176-1.456-0.448-2.096-4.448-10.672-5.664-22.32-10.448-32.96-2.88-6.384-3.952-13.568-5.872-20.352-0.592-2.064-1.12-4.176-2.096-6.064-1.264-2.464-0.688-3.952 1.616-5.28 3.504-2.016 5.616-4.96 5.344-9.232-0.112-1.84-0.896-2.912-2.848-3.328-4.128-0.848-5.232-2.224-5.184-6.512 0.064-4.72-2.464-8.4-4.832-12.016-1.888-2.896-7.616-1.856-9.072 1.28-0.384 0.784-0.816 1.552-1.28 2.448-6.048-2.912-11.616-6.112-16.432-10.48-4.112-3.744-8.256-7.504-12.432-11.168-1.616-1.408-3.568-2.432-5.104-3.904-1.776-1.712-3.68-3.488-4.784-5.616-2.208-4.288-5.072-7.728-9.168-10.288-2.272-1.408-4.224-3.328-6.272-5.072-1.68-1.456-3.408-2.288-5.824-2.176-1.504 0.064-3.28-0.784-4.544-1.744-2.112-1.616-2.224-3.408-0.4-5.328 3.504-3.664 2.064-7.888 1.712-11.984-0.016-0.24-0.224-0.496-0.432-0.672-2.336-2.4-4.848-0.848-7.296-0.288-1.936 0.448-2.88 1.728-2.448 3.792 0.064 0.352 0.224 0.832 0.064 1.056-1.84 2.512-0.672 5.136-0.432 7.776 0.336 3.504-1.392 4.832-4.544 3.152-7.344-3.936-14.88-7.632-21.6-12.464-6.976-5.024-14.528-6-22.544-6.016-1.344 0-2.688 0.288-4.016 0.288-3.504-0.016-4.56-2-2.944-5.104 1.456-2.768 2.896-5.568 4.176-8.416 1.008-2.24-0.768-6.272-3.152-7.584-1.84-1.040-6.224-0.128-7.296 1.84-0.496 0.896-0.272 2.512 0.224 3.552 0.544 1.168 1.888 1.936 2.608 3.024 0.512 0.816 0.608 1.904 0.88 2.848-0.992 0.112-2.048 0.544-2.944 0.32-3.152-0.736-6.176-1.968-9.344-2.496-7.232-1.168-14.56-1.84-21.792-3.008-10.368-1.68-20.656-3.728-31.024-5.408-2.992-0.464-5.952-0.512-7.696-4.176 1.408-0.448 2.832-1.216 4.272-1.296 2.224-0.112 4.48 0.336 6.704 0.4 0.896 0.016 1.904-0.24 2.72-0.656 1.6-0.816 2.96-2.272 4.624-2.688 8.976-2.384 17.328-6.272 25.68-10.288 4.56-2.208 9.472-3.856 14.336-5.328 10.592-3.168 20.384-7.904 29.344-14.4 2.208-1.6 4.208-2.016 6.704-0.784 3.216 1.6 6.528 2.352 10.128 0.848 0.848-0.352 2.048 0.048 3.296 0.112 3.264-4.336 4.896-9.552 6.208-15.008 0.096 1.056 0.176 2.112 0.336 3.856 1.104-1.968 1.872-3.328 2.72-4.848 0.496 0.432 0.928 0.784 1.392 1.184 0.608-0.592 1.184-1.12 1.744-1.664 4.112 2.992 5.36 7.28 4 12.928-0.928 3.824-1.824 7.664-2.432 11.536-0.432 2.768 0.56 3.744 3.376 3.968 3.6 0.288 6.8-0.88 9.408-3.28 2.896-2.672 5.68-5.504 8.256-8.496 3.296-3.792 6.144-8.016 9.6-11.632 12.496-13.072 24.816-26.432 40.384-36.064 9.312-5.776 18.784-11.232 28.24-16.768 3.232-1.904 4.288-5.008 3.056-9.568-0.88-3.216-2.96-4.72-6.624-4.736-0.992 0-2 0.288-2.944 0.16-1.664-0.24-4.192-0.272-4.736-1.264-0.688-1.264-0.16-3.6 0.56-5.136 2.064-4.464 4.512-8.752 6.752-13.152 1.568-3.12 3.264-6.224 4.496-9.472 0.992-2.624 1.68-5.44 2.016-8.224 0.464-4.176 2.208-5.728 6.4-5.008 3.264 0.56 6.432 0.608 9.44-1.056 3.104-1.712 4.672-4.352 4.848-7.856 0.128-2.496-1.184-4.112-3.728-4.288-1.952-0.128-3.952 0-5.952 0.016-3.664 0.064-5.136-1.968-3.84-5.328 0.208-0.496 0.4-0.992 0.656-1.488 5.968-12.016 12.032-23.984 17.952-36.016 1.872-3.776 3.488-7.68 5.072-11.568 0.944-2.32 2.016-4.304 4.528-5.36 0.72-0.32 1.152-1.6 1.488-2.512 0.592-1.504 1.008-3.072 1.52-4.624 0.176 0 0.352 0 0.544 0 0.72 1.296 1.632 2.512 2.096 3.888 1.056 3.184 1.776 6.496 2.848 9.696 2.512 7.552 5.216 15.040 7.728 22.592 1.216 3.632 2.176 7.392 3.248 11.072 2.352 8.064 5.28 16.032 6.944 24.256 2 9.856 3.888 19.664 7.92 28.976 1.392 3.216 2.688 6.448 3.904 9.728 2.016 5.472 4.56 10.352 9.92 13.568 3.68 2.208 3.376 5.472-0.112 8.032-1.664 1.216-3.456 2.272-5.104 3.504-1.376 1.056-1.68 2.544-0.272 3.664 2.992 2.384 5.952 4.96 9.328 6.688 1.824 0.944 4.56 0.816 6.72 0.32 3.728-0.848 7.28-2.512 11.024-3.488 1.52-0.4 3.44-0.24 4.944 0.272 2.56 0.848 2.992 2.576 1.552 4.848-1.344 2.112-2.8 4.16-4.24 6.24-2.32 3.392-2.4 4.448 0.768 7.056 4.128 3.44 6.944 7.552 8.592 12.704 1.12 3.568 2.512 7.328 4.832 10.144 2.24 2.768 3.616 5.136 2.672 8.672-0.112 0.448 0.768 1.376 1.376 1.776 1.344 0.896 2.992 1.392 4.224 2.4 2.176 1.84 4.048 4.080 6.224 5.936 2.992 2.56 6.4 3.12 10.032 1.296 1.936-0.96 3.776-2.352 5.808-2.784 4.384-0.896 5.392-3.952 6.304-7.68 0.592-2.448 1.904-4.8 3.296-6.96 1.376-2.112 3.248-1.952 4.88-0.112 7.008 8.016 15.488 13.696 25.92 16.416 1.952 0.512 4.112 1.776 5.296 3.376 3.152 4.192 7.296 6.448 12.16 7.904 8.576 2.608 17.152 5.216 25.648 8.112 6.944 2.352 13.76 5.12 20.624 7.696 0.496 0.176 1.040 0.4 1.392 0.768 2.736 2.608 6.080 3.104 9.536 2.24 3.392-0.832 6.176 0.064 8.752 2.16 0.048 0.448 0.048 0.992 0.048 1.52zM267.312 359.44c0.768-1.152 1.552-1.856 1.744-2.72 1.008-4.24 1.792-8.56 2.768-12.816 0.896-4.016 1.856-4.608 5.808-3.296 1.792 0.592 2.832 0.24 3.552-1.568 1.84-4.56 3.568-9.2 5.856-13.568 1.456-2.768 3.488-5.504 5.904-7.44 3.68-2.944 7.904-5.28 11.968-7.696 1.968-1.184 3.216-2.672 3.712-4.96 0.96-4.336 0.944-8.416-1.344-12.48-1.888-3.376-0.992-5.472 2.56-7.184 4.064-1.952 8.192-2.432 12.384-0.096 0.832 0.464 2.224 0.784 3.008 0.4 6.224-3.008 11.2-7.392 11.376-14.736 0.112-4.672-0.672-9.472-1.888-14.016-3.008-11.184-6.672-22.192-6.224-33.968 0.128-3.776 0.656-7.552 0.432-11.296-0.464-8.336-1.072-16.656-2.112-24.928-0.4-3.184-1.968-6.288-3.328-9.296-1.28-2.848-3.248-5.392-4.464-8.272-1.792-4.24-4.848-7.008-8.912-8.896-2.512-1.168-5.36-1.968-7.456-3.728-4.992-4.224-10.976-6.016-16.992-7.744-9.92-2.88-20.112-5.136-30.256-2.32-10.16 2.848-19.952 6.944-29.856 10.672-1.6 0.608-2.992 1.968-4.24 3.232-3.84 3.888-7.776 7.744-11.296 11.92-2.16 2.56-4.384 5.52-5.216 8.672-1.968 7.408-4.224 15.024-4.4 22.592-0.336 12.672-0.768 25.28-2.448 37.84-1.152 8.464-1.216 17.184-5.616 25.008-0.944 1.68-0.496 4.576 0.16 6.64 1.072 3.392 2.96 6.528 4.272 9.856 1.216 3.104 3.184 5.248 6.24 6.624 1.6 0.72 3.184 1.792 4.352 3.104 4.432 4.88 9.648 4.624 15.312 2.912 4.624-1.392 8.752-1.504 12.8 2.448 7.856 7.68 11.616 17.344 14.672 27.424 0.464 1.552 0.224 3.408-0.016 5.072-0.496 3.44 0.624 4.656 4.112 4.080 4.128-0.672 5.44 0.72 6.4 4.768 1.44 6.064 3.456 11.984 5.28 17.984 0.16 0.496 0.624 0.848 1.344 1.744zM127.456 216.448c-1.152-1.456-1.872-2.56-2.768-3.488-0.288-0.288-1.216-0.352-1.504-0.128-0.352 0.288-0.608 1.152-0.448 1.552 0.736 1.776 2.176 2.4 4.72 2.064zM156.4 280.928c0.24 0.208 0.496 0.432 0.736 0.624 0.624-0.96 1.632-1.856 1.744-2.896 0.064-0.624-1.216-1.392-1.888-2.112-0.208 0.16-0.4 0.288-0.608 0.448 0 1.328 0 2.624 0 3.936zM314.32 298.192c-2.064 1.392-1.376 2.496 0.32 3.856 0.624-0.624 1.232-1.232 1.936-1.936-0.928-0.784-1.504-1.296-2.24-1.936z"></path>
<path d="M238.88 282.144c-6.288-1.856-13.328-1.296-19.152-5.328-0.768-0.544-1.792-0.784-2.736-0.992-7.344-1.6-10.992-9.28-7.568-15.952 0.656-1.28 1.296-2.56 1.776-3.904 1.84-5.36 5.36-7.552 11.072-6.576 1.376 0.224 2.768 0.784 4 1.456 6.128 3.376 12.192 6.848 18.336 10.192 2.272 1.232 4.672 2.176 7.072 3.184 2.064 0.88 3.84 1.968 4.192 4.448 0.352 2.352-1.296 3.456-2.832 4.784-1.664 1.44-3.328 2.992-4.56 4.8-2.384 3.456-6.176 2.768-9.568 3.856z"></path>
<path d="M299.984 275.472c-7.936 0.112-12.88-2.048-16.976-6.272-1.552-1.616-1.952-3.328-0.272-4.944 1.728-1.632 3.6-3.184 5.584-4.496 4.336-2.832 8.848-5.44 13.216-8.24 0.608-0.4 1.216-1.392 1.184-2.096-0.016-1.776 0.896-2.4 2.432-2.576 1.936-0.24 4.352-1.344 5.68-0.592 2.768 1.664 5.328 4.016 7.28 6.608 2.72 3.6 3.504 8.032 3.456 12.48-0.016 1.184-0.944 2.992-1.936 3.456-6.864 3.296-13.936 6.176-19.648 6.64z"></path>
<path d="M254.32 306.096c0.448-1.44 1.040-2.848 1.28-4.304 0.464-2.576 0.672-5.232 1.12-7.808 0.24-1.392 0.4-3.104 1.264-4.064 2.112-2.288 4.544-4.336 6.976-6.288 2.576-2.048 4.272-1.776 6.528 0.672 2.544 2.736 3.616 6.016 4.224 9.68 0.448 2.656 1.44 5.328 2.768 7.68 2.176 3.84 3.008 7.728-2.736 10.416-5.584 2.608-10.864 3.936-16.672 1.072-2.96-1.504-4.496-3.616-4.768-7.056z"></path>
</svg>
