<!-- Generated by IcoMoon.io -->
<svg version="1.1" xmlns="http://www.w3.org/2000/svg" width="512" height="512" viewBox="0 0 512 512">
<title>monsters-of-order</title>
<g id="icomoon-ignore">
</g>
<path d="M487.12 5.296c-2.4 2.112-4.576 4.528-7.232 6.288-3.744 2.496-6.992 5.152-9.6 8.992-6.784 10.032-14.16 19.632-21.104 29.568-2.64 3.776-4.736 7.936-7.088 11.92-0.384 0.64-0.784 1.312-1.232 1.904-9.392 12.832-18.816 25.664-28.24 38.464-0.496 0.688-1.024 1.712-1.68 1.856-3.632 0.736-4.32 3.696-5.664 6.448-1.536 3.104-3.296 6.4-5.808 8.656-4.464 4-6.848 9.2-9.792 14.16-3.312 5.6-6.832 11.104-10.416 16.544-1.52 2.304-5.008 2.704-6.688 0.576-1.712-2.176-3.040-4.784-3.936-7.392-0.448-1.312-0.016-3.392 0.8-4.528 2.352-3.104 3.36-6.576 3.536-10.32 0.336-8.704 0.704-17.424 0.736-26.16 0-3.184-0.736-6.4-1.536-9.488-0.784-2.96-2.592-3.792-5.152-2.256-4.832 2.944-9.488 6.16-14.112 9.408-6.64 4.688-13.088 9.68-19.808 14.304-8.896 6.144-17.968 11.968-23.776 21.552-2.080 3.44-6.144 3.392-8.368-0.016-4.976-7.584-10.784-14.704-13.392-23.616-0.4-1.392-0.832-3.296-0.24-4.384 0.976-1.776 5.456-2.4 7.216-1.824 0.944 0.336 2.176 0.384 3.136 0.064 3.744-1.184 7.328-3.040 11.152-3.776 6.992-1.344 13.392-3.648 19.232-7.92 7.632-5.6 15.632-10.688 23.376-16.144 3.104-2.176 3.488-4.128 1.712-7.584-2.080-4.032-4.32-8.016-6.608-11.92-0.592-0.992-1.584-1.856-2.56-2.544-1.776-1.232-3.824-2.128-5.552-3.456-2.416-1.856-4.72-2.16-7.664-1.136-6.256 2.16-16.72-3.776-18.288-10.048-0.096-0.352-0.064-0.736-0.144-1.424 1.584-0.208 3.152-0.64 4.72-0.624 5.472 0.064 10.976 0.288 16.464 0.448 0.752 0.016 1.536 0.096 2.272-0.016 6.752-1.088 13.488-2.208 20.256-3.344 10.048-1.68 20.112-3.408 30.176-5.024 5.52-0.896 11.056-1.616 16.576-2.416 0.48-0.064 0.944-0.16 1.376-0.336 10.784-3.68 21.552-7.44 32.352-11.024 9.152-3.040 18.448-5.712 27.568-8.848 5.408-1.856 11.008-3.44 15.456-7.472 2.72-2.496 4.688-1.776 7.568 2.128 0.048 0.64 0.048 1.216 0.048 1.776z"></path>
<path d="M113.616 149.552c-3.104-4.56-2.864-4.144-6.928-1.312-18.304 12.832-26.208 32.432-34.304 51.936-0.208 0.528-0.432 1.088-0.448 1.632-0.448 14.016-1.968 28.144 2.176 41.824 2.32 7.664 5.792 15.008 8.944 22.416 0.528 1.232 1.92 2.352 3.2 2.96 2.704 1.328 3.552 2.912 2.96 5.808-1.392 6.656-2.656 13.328-3.984 19.984-0.208 1.024-0.256 2.16-0.784 3.008-2.4 3.872-2.352 8.080-2.16 12.384 0.096 2.064 0.096 4.224-0.448 6.16-0.832 2.992-2.944 3.888-5.744 2.608-9.040-4.176-18.016-8.4-25.632-15.008-4.32-3.744-7.712-8.032-9.648-13.44-1.536-4.272-3.184-8.512-4.976-12.688-4.096-9.6-6-19.808-8.496-29.856-0.752-3.056-2.080-5.968-3.088-8.96-0.24-0.688-0.288-1.472-0.288-2.208 0.096-4.32 0.24-8.624 0.352-12.944 0-0.288-0.096-0.576-0.048-0.848 0.992-6.112 1.52-12.384 3.152-18.336 2.016-7.472 4.64-14.8 7.536-21.984 3.776-9.36 7.824-18.656 12.24-27.744 2.864-5.952 6.752-11.376 9.872-17.232 5.024-9.504 13.28-15.792 21.744-21.68 7.52-5.248 15.648-9.584 23.52-14.272 2.608-1.536 5.216-3.056 7.904-4.48 1.168-0.624 2.416-1.12 3.68-1.44 5.568-1.424 11.168-2.768 16.784-4.144 0.096-0.016 0.192-0.048 0.256-0.096 9.088-6.496 20.304-5.376 30.368-8.352 2.544-0.752 5.408-0.304 8.112-0.688 2.672-0.384 5.456-0.736 7.936-1.728 2.448-0.992 4.624-1.488 7.072-0.336 0.592 0.288 1.28 0.576 1.904 0.528 5.168-0.4 9.184 1.568 12.384 5.568 0.624 0.752 1.68 1.216 2.608 1.664 6.096 3.040 12.24 5.968 18.336 9.056 1.856 0.928 3.36 0.784 5.36 0.112 2.304-0.784 4.928-0.736 7.424-0.736 1.168 0 2.4 0.624 3.44 1.264 9.824 5.84 18.24 13.040 25.696 21.936 5.616 6.688 8.416 14.368 12.048 21.808 4.832 9.952 9.744 19.888 13.808 30.192 1.904 4.816 2.272 10.336 2.64 15.6 0.64 9.184 1.168 18.384 0.976 27.552-0.16 8.768-0.8 17.6-4.72 25.76-0.24 0.496-0.528 1.040-0.576 1.584-1.072 12.336-6.848 22.72-13.776 32.528-4.96 7.024-9.776 14.208-16.336 19.984-2.512 2.208-4.128 5.424-6.432 7.936-6.624 7.232-12.8 14.992-22.432 18.704-1.712 0.656-2.912 2.592-4.464 3.776-1.984 1.52-3.936 3.248-6.192 4.24-4.928 2.16-10.080 3.744-15.040 5.808-4.192 1.728-7.024 1.232-9.296-2.752-1.072-1.872-1.728-4.288-1.68-6.448 0.112-6.896-1.136-13.52-2.592-20.224-1.12-5.12-1.216-10.512-1.44-15.792-0.048-1.072 1.216-2.512 2.256-3.184 0.624-0.384 2.112 0.208 2.992 0.736 0.848 0.496 1.424 1.488 2.128 2.224 2.176 2.272 3.984 2.016 5.152-0.928 1.072-2.704 1.984-5.264 5.216-6.24 1.024-0.304 1.68-1.728 2.56-2.608 8.32-8.16 16.688-16.272 25.024-24.448 5.264-5.168 7.568-11.872 10.192-18.592 3.184-8.112 2.464-16.832 5.056-24.944 0.16-0.544 0.352-1.12 0.304-1.664-0.656-8.72-1.040-17.472-2.176-26.128-0.448-3.504-2.208-7.024-4.048-10.096-3.696-6.16-7.872-12.016-11.872-18-0.352-0.544-0.784-1.088-1.264-1.536-2.672-2.496-5.36-4.976-8.080-7.424-11.12-10.048-23.92-16.464-39.024-17.952-2.816-0.288-5.648-0.688-8.464-0.944-3.088-0.288-5.904-0.304-8.992 1.232-2.992 1.488-6.8 1.264-10.224 1.984-7.040 1.488-14.080 2.992-21.040 4.768-5.28 1.344-9.408 4.736-13.168 8.608-1.568 1.52-3.232 2.912-4.96 4.512zM114.656 106.368c1.168-1.232 2.32-2.464 3.488-3.728-0.672-0.384-1.488-1.216-2-1.072-1.904 0.592-2.8 2.016-1.488 4.784zM113.936 140.208c0.208 0.192 0.448 0.352 0.672 0.544 1.328-1.088 2.72-2.128 3.952-3.312 0.304-0.304 0.16-1.072 0.208-1.632-0.576 0.048-1.392-0.144-1.664 0.16-1.136 1.328-2.128 2.816-3.184 4.24z"></path>
<path d="M229.648 464.72c0.16-2.080 0.4-4.144 0.448-6.24 0.064-2.656-1.44-4.272-3.872-4.288-2.224-0.016-3.456 1.488-3.36 4.272 0.048 1.136 0.592 2.304 0.432 3.36-0.256 1.616-0.656 3.312-1.536 4.64-1.168 1.712-2.672 1.92-4.512 0.288-4.144-3.728-8.544-7.232-12.8-10.832-4.384-3.68-9.344-5.168-15.088-4.272-3.632 0.576-6.704-1.904-7.936-5.84-5.456-17.216-10.88-34.432-16.416-51.616-0.352-1.088-1.136-2.256-2.064-2.896-4.032-2.8-8.208-5.408-12.336-8.080-0.848-0.576-2-0.928-2.544-1.712-6-8.368-12.336-16.544-17.712-25.344-2.96-4.864-5.92-9.888-8.4-15.008-3.92-8.112-7.488-16.512-8.208-25.776-0.544-6.976-2-13.92-2.128-20.896-0.192-8.944 0.256-17.904 0.976-26.848 0.384-4.768 1.904-9.456 2.912-14.176 1.392-6.528 3.584-12.736 7.040-18.496 3.504-5.856 6.64-11.904 10.224-17.744 1.312-2.128 3.248-3.936 5.104-5.664 2.848-2.656 6.144-4.864 8.72-7.712 8.32-9.2 19.568-14.56 28.944-22.384 4.336-3.632 9.36-6.48 13.808-10 1.632-1.312 2.944-3.44 3.648-5.456 1.52-4.368 6.384-6.64 10.464-4.432 2.656 1.44 5.328 2.896 7.856 4.576 3.92 2.64 6.944 6.016 8.672 10.592 1.392 3.728 3.344 7.216 4.96 10.832 1.616 3.584 0.832 6.528-2.464 8.608-5.2 3.28-10.48 6.4-15.728 9.6-0.704 0.448-1.376 1.024-2.016 1.568-5.52 4.912-11.072 9.824-16.528 14.8-1.312 1.184-2.16 2.848-3.392 4.128-1.168 1.184-2.4 2.64-3.84 3.088-2.112 0.64-3.312 1.776-4.464 3.536-3.2 4.928-6.528 9.792-10 14.496-5.456 7.344-8.864 15.408-9.184 24.64-0.336 9.84-0.848 19.68-0.784 29.52 0.016 3.28 1.52 6.592 2.56 9.824 1.376 4.224 2.96 8.368 4.432 12.544 1.12 3.104 2.112 6.288 3.344 9.344 1.488 3.776 2.944 7.616 4.864 11.168 1.728 3.2 3.696 6.4 6.16 9.056 4.176 4.512 8.816 8.608 13.28 12.88 2.496 2.368 3.776 2.544 6.48 0.592 3.136-2.224 5.92-4.768 10.048-5.568 2.256-0.448 4-3.056 6.24-4.288 5.376-2.96 10.88-5.76 16.368-8.512 2.752-1.376 5.168-0.992 7.072 1.632 2.992 4.176 6.688 6.88 11.872 7.424 0.544 0.048 1.088 0.352 1.568 0.64 5.92 3.536 12.384 5.648 19.088 7.136 0.736 0.16 1.472 0.384 2.208 0.592 3.088 0.88 4.56 2.56 4.464 5.056-0.112 2.56-2.368 5.552-4.912 5.952-3.536 0.576-5.712 2.864-7.616 5.504-1.968 2.704-0.624 5.424 2.768 5.856 3.152 0.4 5.456-1.072 7.424-3.344 1.536-1.776 3.040-3.648 4.736-5.296 2.304-2.208 5.008-2.768 8.128-1.824 9.456 2.912 18.656 6.384 27.296 11.376 5.12 2.96 10.832 4.928 16.192 7.536 3.728 1.824 7.248 3.984 10.88 5.968 0.4 0.24 0.8 0.688 1.216 0.704 4.224 0.208 6.288 3.536 8.752 6.16 0.656 0.704 1.184 2.32 0.832 3.088-0.576 1.184-1.904 2.768-2.96 2.816-3.040 0.144-5.376 1.088-7.664 3.104-0.944 0.832-3.104 0.896-4.464 0.496-4.56-1.296-8.8-0.528-13.376 0.288-8.256 1.472-14.464 6.88-21.904 9.776-1.904 0.736-2.416 2.352-1.808 4.224 1.072 3.296 0.496 6.16-1.952 8.624-0.256 0.256-0.544 0.576-0.64 0.928-2.448 7.424-8.672 11.456-14.304 16.032-4.048 3.296-4.784 7.184-2.128 11.744 1.632 2.768 3.536 5.424 4.928 8.304 1.776 3.632 3.040 7.488 4.768 11.152 1.296 2.768 2.896 5.408 4.576 7.968 1.184 1.808 2.768 3.344 4.096 5.072 1.136 1.488 2.608 3.056 1.040 5.056-1.664 2.112-3.536 4.416-6.592 3.408-5.264-1.728-10.864-2.8-15.056-6.896-1.344-1.328-2.864-2.496-4.24-3.776-4.144-3.824-8.848-6.656-13.856-9.264-8.416-4.416-17.472-7.968-24-15.408-0.496-0.576-1.136-0.992-1.776-1.392-5.696-3.648-5.712-3.696-5.36-10.272zM319.408 401.504c-0.384 0.256-0.752 0.496-1.136 0.752 0.256 1.024 0.304 2.224 0.88 3.040 0.784 1.12 1.904 2.112 3.056 2.848 0.784 0.496 1.904 0.496 2.864 0.704-0.112-1.184 0.208-2.768-0.432-3.44-1.488-1.568-3.456-2.656-5.248-3.92z"></path>
</svg>
