<!-- Generated by IcoMoon.io -->
<svg version="1.1" xmlns="http://www.w3.org/2000/svg" width="33" height="32" viewBox="0 0 33 32">
<title>fighter-destroyer</title>
<path d="M33.389 23.306c-0.171 0.275-0.222 0.279-0.52 0.129-0.626-0.312-1.149-0.737-1.588-1.288-0.285-0.358-0.655-0.648-0.956-0.994-0.35-0.401-0.665-0.831-0.998-1.246-0.286-0.354-0.575-0.705-0.867-1.053-0.11-0.129-0.179-0.126-0.269 0.026-0.287 0.486-0.566 0.977-0.848 1.467-0.053 0.092-0.093 0.19-0.154 0.275-0.112 0.155-0.251 0.171-0.401 0.051-0.051-0.042-0.105-0.086-0.142-0.14-0.266-0.401-0.541-0.798-0.791-1.209-0.196-0.322-0.368-0.658-0.536-0.995-0.104-0.207-0.185-0.426-0.272-0.641-0.050-0.124-0.014-0.229 0.11-0.273 0.258-0.096 0.378-0.297 0.486-0.533 0.383-0.838 0.761-1.678 0.956-2.581 0.069-0.322 0.064-0.661 0.094-1.006 0.276 0.086 0.422 0.301 0.54 0.554 0.23 0.491 0.455 0.987 0.712 1.464 0.14 0.261 0.343 0.487 0.519 0.729 0.026 0.035 0.060 0.067 0.097 0.090 0.171 0.108 0.308 0.057 0.344-0.143 0.037-0.204 0.114-0.377 0.273-0.516 0.046-0.040 0.067-0.112 0.093-0.172 0.058-0.128 0.148-0.211 0.294-0.201 0.142 0.010 0.233 0.11 0.246 0.236 0.075 0.781 0.487 1.42 0.879 2.062 0.447 0.734 0.745 1.534 1.094 2.311 0.511 1.137 1.041 2.265 1.564 3.398 0.011 0.025 0.028 0.047 0.042 0.069 0 0.043 0 0.087 0 0.132zM29.723 18.51c0.024-0.004 0.047-0.010 0.072-0.014-0.007-0.082-0.012-0.164-0.019-0.246-0.079 0.015-0.158 0.031-0.236 0.046 0.001 0.018 0.003 0.035 0.004 0.053 0.058 0.054 0.118 0.107 0.179 0.161z"></path>
<path d="M16.069 32c-0.286-0.164-0.329-0.253-0.291-0.577 0.097-0.826 0.187-1.653 0.291-2.479 0.092-0.726 0.2-1.449 0.294-2.175 0.036-0.278 0.054-0.559 0.078-0.838 0.014-0.172-0.1-0.262-0.243-0.25-0.508 0.049-1.015-0.126-1.523 0.008-0.179 0.049-0.347-0.017-0.455-0.171-0.112-0.16-0.074-0.329 0.015-0.487 0.29-0.518 0.587-1.031 0.876-1.549 0.132-0.237 0.278-0.471 0.373-0.722 0.164-0.429 0.489-0.626 0.91-0.666 0.266-0.025 0.509-0.094 0.744-0.214 0.175-0.089 0.341-0.101 0.525-0.012 0.176 0.086 0.362 0.085 0.547 0 0.062-0.028 0.139-0.029 0.21-0.033 0.078-0.004 0.16 0.018 0.232 0 0.35-0.087 0.652 0.054 0.96 0.179 0.067 0.026 0.133 0.055 0.201 0.078 0.248 0.083 0.366 0.255 0.351 0.515-0.012 0.194-0.1 0.269-0.29 0.25-0.022-0.003-0.043-0.008-0.065-0.012-0.429-0.099-0.462-0.083-0.659 0.323-0.089 0.185-0.172 0.372-0.258 0.558-0.21 0.447-0.203 0.912-0.125 1.384 0.022 0.137 0.097 0.205 0.229 0.164 0.189-0.058 0.376-0.128 0.558-0.205 0.282-0.122 0.505-0.026 0.563 0.272 0.015 0.074-0.011 0.18-0.060 0.236-0.255 0.29-0.445 0.615-0.604 0.969-0.092 0.204-0.269 0.372-0.411 0.552-0.071 0.090-0.172 0.162-0.225 0.261-0.321 0.588-0.634 1.181-0.944 1.775-0.333 0.638-0.661 1.278-0.985 1.921-0.087 0.172-0.157 0.355-0.228 0.536s-0.172 0.332-0.359 0.409c-0.078 0.001-0.155 0.001-0.233 0.001zM14.839 24.868c-0.071 0.093-0.107 0.14-0.16 0.208 0.085 0.068 0.161 0.133 0.244 0.189 0.008 0.006 0.089-0.067 0.083-0.079-0.043-0.1-0.1-0.193-0.168-0.318z"></path>
<path d="M12.284 17.355c0.101-0.128 0.197-0.111 0.293-0.024 0.101 0.093 0.211 0.14 0.346 0.085 0.035-0.246-0.128-0.505-0.353-0.565-0.229-0.061-0.452-0.144-0.701-0.071-0.060 0.018-0.162-0.057-0.225-0.111-0.078-0.068-0.128-0.169-0.204-0.239-0.069-0.064-0.161-0.104-0.243-0.154-0.018-0.011-0.044-0.011-0.061-0.025-0.382-0.294-0.784-0.575-0.858-1.108-0.010-0.071-0.011-0.15-0.043-0.211-0.161-0.304-0.121-0.609-0.039-0.923 0.051-0.193 0.087-0.39 0.118-0.587 0.042-0.261 0.099-0.516 0.266-0.726 0.305-0.379 0.477-0.804 0.507-1.293 0.014-0.236 0.096-0.469 0.111-0.705 0.021-0.314 0.011-0.63 0.008-0.947-0.008-0.894-0.019-1.786-0.033-2.68-0.003-0.15-0.018-0.298-0.031-0.448-0.061-0.709 0.11-1.366 0.461-1.976 0.212-0.368 0.433-0.731 0.655-1.094 0.042-0.068 0.099-0.136 0.164-0.182 0.579-0.412 1.16-0.82 1.74-1.228 0.036-0.025 0.074-0.051 0.114-0.068 0.673-0.258 1.22-0.719 1.804-1.12 0.373-0.257 0.705-0.569 1.134-0.748 0.303-0.128 0.608-0.218 0.933-0.211 1.289 0.028 2.461 0.372 3.41 1.298 0.179 0.175 0.361 0.347 0.548 0.511 0.15 0.13 0.321 0.237 0.465 0.373 0.197 0.185 0.401 0.371 0.562 0.586 0.315 0.422 0.587 0.877 0.908 1.294 0.334 0.436 0.459 0.931 0.482 1.457 0.018 0.408-0.012 0.819-0.021 1.23-0.003 0.128-0.004 0.255-0.006 0.383-0.004 0.483 0.012 0.966-0.015 1.448-0.040 0.729 0.050 1.446 0.2 2.148 0.094 0.441 0.307 0.869 0.52 1.273 0.291 0.55 0.364 1.148 0.476 1.739 0.011 0.061-0.010 0.132-0.028 0.196-0.293 1.005-0.749 1.943-1.173 2.894-0.057 0.129-0.168 0.216-0.301 0.198-0.419-0.058-0.811 0.079-1.214 0.133-0.192 0.026-0.387 0.049-0.58 0.044-0.232-0.004-0.35 0.121-0.448 0.305-0.082 0.153-0.176 0.301-0.28 0.44-0.105 0.142-0.092 0.447 0.069 0.58 0.165 0.136 0.161 0.282 0.133 0.473-0.096 0.663-0.355 1.28-0.529 1.919-0.086 0.316-0.262 0.568-0.532 0.762-0.103 0.074-0.182 0.071-0.266-0.003-0.167-0.144-0.261-0.325-0.266-0.551-0.004-0.161-0.011-0.322-0.029-0.48-0.021-0.176-0.133-0.222-0.279-0.112-0.124 0.093-0.241 0.196-0.355 0.301-0.185 0.171-0.384 0.212-0.608 0.085-0.144-0.083-0.255-0.072-0.347 0.085-0.074 0.124-0.207 0.119-0.329 0.092-0.125-0.028-0.18-0.124-0.187-0.246-0.018-0.309-0.057-0.616 0.060-0.922 0.067-0.175-0.155-0.651-0.316-0.754-0.107-0.068-0.203-0.035-0.255 0.064-0.229 0.425-0.373 0.866-0.225 1.353 0.079 0.26-0.024 0.4-0.293 0.4-0.044 0-0.090 0.001-0.133-0.006-0.329-0.058-0.644-0.037-0.956 0.101-0.187 0.083-0.28 0.028-0.382-0.151-0.139-0.247-0.273-0.495-0.412-0.741-0.032-0.057-0.067-0.119-0.117-0.16-0.042-0.033-0.112-0.060-0.161-0.049-0.033 0.007-0.065 0.083-0.071 0.132-0.022 0.228-0.004 0.447 0.092 0.666 0.075 0.169 0.096 0.362 0.14 0.545 0.025 0.103 0.065 0.203 0.071 0.307 0.004 0.071-0.018 0.16-0.062 0.214-0.093 0.115-0.212 0.21-0.312 0.319-0.171 0.189-0.343 0.201-0.532 0.029-0.207-0.186-0.304-0.434-0.311-0.697-0.017-0.577-0.208-1.121-0.286-1.685-0.092-0.668-0.386-1.219-0.798-1.727-0.189-0.24-0.382-0.484-0.583-0.737zM22.642 12.248c-0.4 0.142-0.873 0.255-1.284 0.534-0.114 0.078-0.257 0.112-0.386 0.168-0.075 0.032-0.173 0.044-0.218 0.101-0.258 0.326-0.593 0.541-0.966 0.709-0.047 0.022-0.112 0.112-0.1 0.144 0.105 0.265 0.16 0.558 0.39 0.759 0.344 0.301 0.73 0.477 1.198 0.441 0.078-0.006 0.157 0.012 0.233 0 0.225-0.037 0.465-0.046 0.668-0.137 0.366-0.167 0.716-0.375 1.062-0.584 0.3-0.182 0.493-0.455 0.6-0.791 0.042-0.132 0.029-0.247-0.057-0.359-0.171-0.226-0.332-0.458-0.502-0.684-0.143-0.186-0.334-0.286-0.637-0.301zM14.488 14.968c0-0.004-0.001-0.010-0.001-0.014 0.264-0.025 0.533-0.031 0.792-0.083 0.244-0.049 0.479-0.147 0.716-0.225 0.010-0.003 0.017-0.014 0.025-0.021 0.151-0.139 0.304-0.275 0.455-0.415 0.104-0.096 0.085-0.18-0.029-0.255-0.13-0.085-0.255-0.176-0.387-0.258-0.408-0.254-0.822-0.502-1.228-0.758-0.229-0.144-0.466-0.282-0.675-0.452-0.287-0.236-0.759-0.246-1.020 0.022-0.264 0.271-0.445 0.595-0.545 0.959-0.019 0.072 0.010 0.18 0.054 0.244 0.14 0.198 0.3 0.384 0.451 0.575 0.351 0.443 0.887 0.512 1.374 0.679 0.007 0.004 0.012 0.003 0.018 0.003zM19.026 17.558c-0.032-0.132-0.054-0.229-0.079-0.325-0.026-0.101-0.068-0.2-0.078-0.303-0.040-0.441-0.082-0.883-0.105-1.324-0.025-0.473-0.192-0.816-0.713-0.88-0.026-0.003-0.054-0.029-0.078-0.025-0.054 0.008-0.14 0.012-0.155 0.046-0.064 0.137-0.128 0.282-0.151 0.429-0.053 0.337-0.079 0.68-0.122 1.019-0.019 0.153-0.081 0.305-0.075 0.457 0.011 0.254-0.028 0.493-0.112 0.73-0.057 0.16 0.036 0.254 0.197 0.2 0.067-0.022 0.114-0.094 0.173-0.142 0.103-0.081 0.204-0.162 0.312-0.235 0.026-0.018 0.096-0.014 0.118 0.008 0.229 0.229 0.537 0.244 0.869 0.344zM11.836 10.322c-0.124 0.171-0.287 0.963-0.244 1.153 0.218-0.060 0.421-0.972 0.244-1.153zM18.624 2.345c-0.121 0.14-0.060 0.593 0.086 0.702 0.146-0.151 0.097-0.587-0.086-0.702zM14.217 4.892c-0.164 0.121-0.182 0.595-0.032 0.698 0.118-0.144 0.142-0.551 0.032-0.698z"></path>
<path d="M6.305 16.48c0.114-0.085 0.204-0.125 0.257-0.194 0.465-0.622 0.934-1.239 1.375-1.878 0.204-0.294 0.415-0.569 0.686-0.806 0.185-0.162 0.332-0.366 0.493-0.554 0.060-0.069 0.112-0.143 0.186-0.239 0.024 0.067 0.047 0.1 0.047 0.133 0.003 0.348 0.006 0.697 0.001 1.046 0 0.046-0.035 0.092-0.056 0.136-0.024 0.050-0.064 0.096-0.075 0.147-0.087 0.415-0.173 0.83-0.247 1.246-0.011 0.064 0.026 0.151 0.068 0.208 0.254 0.35 0.511 0.698 0.776 1.039 0.2 0.257 0.476 0.362 0.795 0.34 0.132-0.010 0.246 0.011 0.33 0.114 0.11 0.132 0.222 0.265 0.314 0.409 0.033 0.051 0.029 0.146 0.007 0.207-0.025 0.069-0.082 0.132-0.139 0.183-0.353 0.321-0.724 0.622-1.063 0.956-0.805 0.799-1.781 1.371-2.68 2.046-0.079 0.058-0.176 0.092-0.262 0.142-0.167 0.096-0.339 0.183-0.494 0.296-0.164 0.118-0.264 0.147-0.387-0.008s-0.216-0.344-0.287-0.532c-0.111-0.289-0.198-0.587-0.282-0.885-0.057-0.201-0.094-0.409-0.135-0.615-0.047-0.243-0.097-0.287-0.321-0.192-0.309 0.133-0.619 0.273-0.905 0.448-0.458 0.28-0.906 0.58-1.342 0.897-0.316 0.23-0.625 0.48-0.902 0.756-0.469 0.468-0.935 0.931-1.525 1.25-0.072 0.039-0.129 0.11-0.201 0.146-0.093 0.047-0.194 0.074-0.293 0.11-0.015-0.015-0.031-0.031-0.046-0.046 0.025-0.085 0.028-0.186 0.078-0.253 0.713-0.97 1.418-1.946 2.155-2.896 0.414-0.534 0.847-1.055 1.27-1.581 0.353-0.439 0.656-0.904 0.98-1.357 0.183-0.257 0.418-0.476 0.595-0.734 0.172-0.25 0.307-0.526 0.451-0.794 0.132-0.242 0.3-0.336 0.568-0.319 0.122 0.008 0.126 0.094 0.129 0.176 0.010 0.355 0.010 0.711 0.021 1.066 0.007 0.112 0.035 0.225 0.060 0.384zM1.13 21.814c0.422-0.176 0.631-0.405 0.601-0.647-0.293 0.060-0.55 0.33-0.601 0.647z"></path>
<path d="M9.505 6.771c0.115 0.049 0.179 0.164 0.23 0.308 0.129 0.364 0.125 0.737 0.142 1.114 0.022 0.469 0.108 0.935 0.14 1.405 0.028 0.402 0.019 0.808 0.024 1.212 0 0.032-0.025 0.071-0.050 0.092-0.011 0.008-0.065-0.014-0.081-0.035-0.328-0.497-0.903-0.522-1.386-0.704-0.384-0.144-0.809-0.183-1.216-0.262-0.086-0.017-0.18-0.028-0.265-0.012-0.305 0.060-0.597-0.007-0.887-0.085-0.283-0.076-0.558-0.183-0.844-0.251-0.167-0.040-0.347-0.047-0.519-0.040-0.387 0.014-0.777 0.025-1.16 0.072-0.709 0.087-1.416 0.21-2.085 0.477-0.172 0.069-0.23-0.022-0.291-0.157 0.044-0.035 0.087-0.068 0.13-0.101 1.078-0.829 2.286-1.413 3.552-1.89 0.099-0.037 0.178-0.122 0.271-0.178 0.112-0.067 0.226-0.133 0.346-0.186 0.16-0.071 0.33-0.117 0.486-0.194 0.183-0.090 0.358-0.2 0.534-0.304 0.129-0.076 0.228-0.035 0.257 0.096s0.015 0.269 0.019 0.405c0.003 0.117 0.003 0.235 0.004 0.351 0.112-0.028 0.23-0.043 0.337-0.086 0.622-0.248 1.244-0.5 1.86-0.762 0.151-0.062 0.283-0.175 0.452-0.284z"></path>
<path d="M25.523 6.080c0.064 0.104 0.126 0.201 0.185 0.301 0.294 0.509 1.031 0.536 1.35 0.036 0.067-0.104 0.085-0.251 0.092-0.38 0.008-0.146 0.081-0.172 0.193-0.146 0.074 0.017 0.148 0.047 0.21 0.092 0.223 0.164 0.471 0.219 0.744 0.242 0.305 0.025 0.611 0.094 0.909 0.173 0.304 0.080 0.601 0.193 0.898 0.301 0.107 0.039 0.201 0.114 0.308 0.151 0.182 0.062 0.365 0.128 0.554 0.158 0.382 0.060 0.723 0.201 1.033 0.43 0.192 0.142 0.384 0.28 0.575 0.423 0.053 0.039 0.097 0.090 0.185 0.172-0.119 0.047-0.21 0.108-0.301 0.112-0.332 0.017-0.665 0.015-0.998 0.015-0.087 0-0.183 0-0.264-0.029-0.373-0.137-0.756-0.074-1.137-0.065-0.343 0.008-0.684 0.011-1.027 0.025-0.114 0.004-0.232 0.017-0.34 0.049-0.297 0.089-0.594 0.179-0.883 0.291-0.266 0.104-0.53 0.221-0.779 0.362-0.314 0.178-0.607 0.39-0.915 0.577-0.216 0.13-0.386 0.293-0.476 0.534-0.028 0.075-0.083 0.142-0.132 0.222-0.186-0.132-0.235-0.315-0.24-0.512-0.008-0.278 0-0.555-0.004-0.833-0.015-0.748-0.028-1.498-0.051-2.246-0.011-0.337-0.024-0.337 0.312-0.458z"></path>
<path d="M12.693 21.026c0.060 0.291-0.074 0.512-0.247 0.718-0.028 0.033-0.061 0.069-0.1 0.083-0.54 0.186-1.002 0.514-1.484 0.806-0.279 0.169-0.554 0.347-0.824 0.53-0.504 0.343-0.996 0.699-1.504 1.034-0.239 0.157-0.509 0.266-0.755 0.415-0.207 0.125-0.402 0.269-0.594 0.415-0.078 0.058-0.14 0.101-0.237 0.049-0.094-0.051-0.103-0.121-0.062-0.21 0.004-0.010 0.013-0.022 0.011-0.031-0.085-0.414 0.207-0.654 0.432-0.922 0.855-1.020 1.713-2.037 2.568-3.057 0.125-0.15 0.284-0.272 0.343-0.479 0.021-0.072 0.143-0.142 0.23-0.162 0.289-0.069 0.515-0.232 0.756-0.394 0.201-0.136 0.469-0.175 0.712-0.243 0.028-0.008 0.107 0.065 0.114 0.108 0.039 0.262 0.186 0.469 0.323 0.686 0.104 0.162 0.192 0.336 0.28 0.508 0.022 0.040 0.026 0.096 0.039 0.146zM7.839 24.116c-0.065-0.101-0.14-0.158-0.23-0.060-0.080 0.087-0.121 0.189 0.019 0.283 0.069-0.074 0.137-0.146 0.211-0.223z"></path>
<path d="M26.879 25.338c-0.487-0.49-0.99-0.966-1.459-1.474-0.611-0.662-1.232-1.31-1.956-1.85-0.158-0.118-0.34-0.208-0.52-0.289-0.348-0.155-0.483-0.387-0.427-0.767 0.011-0.071 0.019-0.146 0.008-0.215-0.076-0.479 0.124-0.905 0.257-1.341 0.082-0.268 0.588-0.397 0.811-0.226 0.178 0.137 0.369 0.186 0.591 0.157 0.293-0.037 0.484 0.136 0.473 0.434-0.008 0.222 0.053 0.408 0.175 0.593 0.1 0.151 0.158 0.329 0.246 0.489 0.405 0.744 0.815 1.486 1.22 2.23 0.069 0.126 0.144 0.254 0.186 0.389 0.121 0.391 0.329 0.737 0.548 1.077 0.248 0.383 0.225 0.486-0.153 0.794z"></path>
</svg>
