<!-- Generated by IcoMoon.io -->
<svg version="1.1" xmlns="http://www.w3.org/2000/svg" width="512" height="512" viewBox="0 0 512 512">
<title>monsters-of-order</title>
<g id="icomoon-ignore">
</g>
<path d="M191.392 494.976c4.064-17.104 8.64-33.792 11.872-50.816 1.408-7.728 0.16-15.936-0.16-23.904-0.080-3.152-0.16-6.56-1.408-9.296-2.4-5.072-5.648-9.792-8.8-14.448-1.664-2.496-3.904-4.656-6.064-6.72-6.48-6.304-14.032-6.304-22.080-3.568-8.048 2.816-17.024-0.656-19.84-8.048-0.992-2.576-0.752-5.648-0.752-8.544 0.16-11.296-2.16-22-6.64-32.288-0.832-2-1.824-4.064-3.232-5.728-8.304-9.632-12.208-20.832-12.704-33.536-0.16-5.568-1.248-11.12-1.584-16.768-0.080-1.824 0.336-3.904 1.072-5.568 2.080-4.32 4.4-8.544 6.8-12.704 0.656-1.168 2.080-2 3.824-3.568 0-4.144-0.16-9.216 0-14.368 0.256-5.888 0.992-11.792 0.992-17.68 0-3.904-0.832-7.888-1.328-11.952 1.824 1.408 3.728 2.912 5.808 4.32 2.816 2 5.728 3.232 9.552 2.656 2.816-0.496 5.888 0.496 8.8 1.248 14.528 3.488 29.392 2.4 44.080 2.656 5.072 0.080 10.128 1.072 15.2 1.248 2.4 0.080 4.896-0.832 7.392-0.992 2.080-0.16 4.24 0.080 6.304 0.16 0 0.416 0 0.912 0 1.328-0.912 0.336-1.824 0.656-3.408 1.168 0.752 0.416 1.168 0.912 1.664 0.992 4.4 0.832 8.8 1.904 13.28 2.32 3.408 0.336 6.896-0.16 10.288-0.576 6.064-0.752 12.208-1.664 18.272-2.4 2.16-0.256 4.4-0.416 6.56-0.576 8.88-0.656 17.76-1.488 26.656-2 4.976-0.336 10.128-0.656 15.104-0.080 10.464 1.248 20.672 0.656 30.96-1.744 17.264-3.984 35.040-6.224 51.392-13.456 2.912 2.736 3.984 10.96 2.32 15.44-0.656 1.744-0.912 3.648-1.328 5.472-0.912 3.904-2.32 7.808-2.496 11.792-0.336 9.792 0.416 20.256 6.8 27.728 9.296 11.040 6.48 21.344 1.408 32.288-6.56 14.368-13.536 28.64-19.68 43.248-2.736 6.56-3.824 13.872-5.808 20.752-1.072 3.648-2.4 7.216-3.824 10.8-1.072 2.736-3.232 2.656-5.808 2-4.656-1.168-9.376-2.576-14.032-2.496-8.224 0.16-15.104 4.32-19.76 10.88-2.080 2.816-1.744 7.312-3.072 10.8-3.072 8.384-1.664 16.944-1.168 25.408 1.072 19.504 6.896 38.032 13.040 56.368 0.656 2.080 0.832 3.488-1.072 4.976-7.312 5.648-14.368 11.456-21.664 16.944-1.904 1.408-4.656 1.664-6.8 2.816-9.968 5.568-20.752 4.48-31.472 4.48-10.8 0-21.584 0.576-32.288-0.16-8.304-0.576-16.688-2.080-24.656-4.32-12.032-3.408-23.744-7.808-35.616-11.872-0.576 0.256-0.992-0.16-0.912-0.080zM353.872 303.36c-0.256 0-0.576-0.080-0.832-0.080 0-2.912 0.080-5.808 0-8.72-0.256-9.376-6.976-15.104-16.192-13.536-5.152 0.912-10.208 2.16-15.2 3.648-8.88 2.736-17.344 6.48-23.408 14.032-4.32 5.312-3.648 11.536-2.736 17.76 0.16 0.912 1.168 1.904 2 2.496 2.32 1.664 4.816 3.232 7.312 4.656 9.136 5.232 19.424 4.976 29.392 5.472 4.48 0.256 9.296-2.080 13.536-4.064 3.232-1.488 4.48-4.656 4.32-8.72-0.16-4.32 1.168-8.64 1.824-12.944zM197.12 329.936c0.672-0.080 1.408-0.16 2.080-0.080 10.384 1.488 19.088-3.232 28.064-7.056 1.168-0.496 2.576-1.488 3.072-2.576 3.072-6.304 3.904-19.84-5.568-24.656-5.984-3.072-11.952-6.304-18.176-8.8-4.064-1.664-8.64-2.576-13.040-2.912-3.328-0.256-6.8 1.072-10.208 1.168-2.912 0.080-4.32 1.584-5.888 3.824-5.568 8.048-5.888 17.024-3.824 25.824 2.4 10.048 7.552 16.768 18.512 15.36 1.664-0.256 3.328-0.080 4.976-0.080zM264.944 388.048c1.168 1.488 1.664 2.816 2.656 3.488 9.216 5.984 15.52 5.648 18.768-3.152 1.248-3.488 0.752-8.048-0.16-11.792-1.824-7.888-4.56-15.52-6.64-23.328-2-7.728-8.128-10.288-14.688-12.208-3.072-0.912-14.192 5.152-16.016 8.048-7.552 12.544-10.384 26.24-9.632 40.768 0.16 4.24 2 5.888 6.304 5.888 7.056 0.080 13.776-0.832 19.424-7.728z"></path>
<path d="M111.936 146.864c4.736 0 9.376-0.080 14.112 0.080 0.992 0 2 0.656 2.992 0.992 2.912 0.992 5.728 2 8.64 3.072 0.992 0.336 1.904 0.832 2.912 1.248 2.32 0.992 4.736 1.824 7.056 2.912 1.072 0.576 2 1.584 3.824 2.080-2.24-3.648-3.904-7.888-6.72-10.96-7.056-7.632-13.952-15.104-17.344-25.072-0.912-2.816-1.408-5.808-1.584-8.8-0.752-13.952-3.984-26.976-13.952-37.36-4.736-4.976-10.048-9.376-14.864-14.784 5.472 2.656 11.296 4.896 16.432 7.968 8.464 5.152 17.264 10.128 22.752 18.848 3.984 6.4 7.888 12.944 11.2 19.68 3.728 7.632 8.96 13.872 16.192 18.352 1.664 0.992 3.824 1.408 5.808 1.584 0.576 0.080 2-1.584 1.904-2.32-0.496-7.056-0.912-14.192-2-21.248-0.672-4.144-2.576-8.048-3.824-11.712 5.568 1.168 9.136 6.064 12.128 11.616 0.16 0.336 0.336 0.752 0.416 1.168 0.992 2.992 2.32 5.808 5.888 5.728 2.24-0.080 5.072-6.64 4.4-9.376-1.488-6.64-4.816-11.040-11.536-14.032-13.040-5.888-25.488-13.040-38.112-19.76-15.52-8.128-28.144-19.504-37.52-34.208-6.64-10.288-6.304-21.248-2.080-32.544 0.336 1.248 0.832 2.4 0.912 3.648 1.824 14.112 9.376 23.744 22.16 29.632 19.84 9.056 39.52 18.352 59.28 27.488 7.056 3.328 14.192 6.72 22.496 6.144 1.584-7.312-3.232-11.616-7.632-15.36-2.992-2.576-7.552-3.328-11.376-4.976-5.312-2.24-9.872-5.152-12.784-10.464-1.744-3.232-6.224-4.656-6.64-9.056-0.416-3.984-0.832-7.968-1.168-11.872 0.336-0.080 0.752-0.16 1.072-0.16 1.072 1.904 1.904 4.064 3.328 5.728s3.568 2.656 5.072 4.144c3.744 3.824 8.384 4.896 13.456 5.312 3.328 0.256 6.976 0.416 9.968 1.824 7.968 3.648 17.104 4.976 22.832 13.040 2.080 2.992 6.56 4.144 9.296 6.72 6.304 6.144 12.368 12.624 18.352 19.088 2.656 2.816 5.568 4.32 9.472 3.904 4.816-0.416 6.48-2.576 4.32-7.216-1.824-3.984-3.984-7.888-6.64-11.376-4.32-5.728-9.472-10.8-16.272-13.872 7.056 0.832 14.368 0.992 21.168 2.736 6.56 1.744 12.032 6.224 16.112 11.792 8.128 11.296 15.696 22.992 23.904 34.128 2.32 3.152 5.984 5.888 9.632 7.216 6.4 2.4 12.208-3.232 10.208-9.968-1.904-6.304-5.072-12.288-7.472-18.016 11.12 4.736 17.344 14.448 21.84 25.904 4.816 12.208-1.584 23.168-3.824 34.544 4.48 0.992 11.296-2 14.032-4.736 6.4-6.304 6.8-14.288 6.976-22.416 0-1.664 0.656-3.328 0.992-4.896 0.416 0 0.912-0.080 1.328-0.080 0.752 2 1.488 3.984 2.32 5.888 5.152 10.96 4.656 22.672 3.824 34.128-0.336 4.24-3.824 8.304-5.888 12.448-0.752 1.408-1.488 2.912-2.576 4.976 5.152 0 9.136-1.824 12.448-4.24 5.152-3.728 8.048-9.136 8.64-15.696 0.16-1.824 1.744-3.488 2.912-5.728 6.064 8.96 5.392 17.6 4.48 26.48-0.912 9.552-8.304 14.688-12.368 21.344 1.744 2.992 3.232 6.064 5.232 8.72 0.992 1.328 2.816 1.904 4.56 3.072-1.744 0.496-3.072 1.168-4.48 1.168-2.736 0.080-5.648 0.256-8.224-0.416-3.152-0.752-6.064-2.32-9.056-3.648-1.072-0.496-2.4-1.168-2.912-2.16-1.824-3.328-4.736-4.064-8.048-4.896-3.984-0.992-7.808-2.992-12.208-4.736 2.736-1.904 4.48-3.072 5.648-3.904-3.488-1.824-6.976-3.232-10.048-5.392-4.4-3.072-0.336-6.976-0.080-10.96-7.136 1.744-10.128-4.24-14.608-7.216-6.896-4.56-13.952-8.048-22.336-8.464-1.664-0.080-3.408-0.992-4.976-1.744-8.048-3.648-10.208-4.064-20.256-3.328 2.32 0.912 3.824 1.488 5.312 2.080-0.080 0.256-0.080 0.496-0.16 0.752-2.576-0.416-5.152-0.832-7.728-1.168-3.568-0.496-7.312-1.584-10.8-1.248-12.288 0.912-23.904 4.736-33.616 12.128-4.32 3.232-8.224 3.152-12.704 3.728-2.24 0.256-4.736 0.752-6.56 1.904-6.64 4.064-13.12 8.464-19.504 12.944-2.576 1.824-3.568 4.24-3.648 7.888-0.080 3.408-2.816 6.896-4.736 10.208-1.664 2.912-3.824 5.648-5.728 8.384-3.488 4.896-6.48 10.288-12.944 11.952-0.752 0.16-1.248 1.168-2 1.408-2.736 0.912-5.808 2.816-8.304 2.24-3.728-0.832-5.312-4.56-5.152-8.464 0.256-5.728-2.496-10.384-5.568-14.784-2.656-3.824-6.064-7.216-9.472-11.12 4.144-1.824 7.968-1.584 11.12 0.080 3.232 1.664 5.888 4.48 9.296 6.4-3.072-5.808-5.888-11.792-9.136-17.52-3.232-5.568-7.312-10.288-13.872-12.128-2.576-0.752-5.072-1.664-7.552-2.576-0.16 0-0.080-0.256-0.080-0.496z"></path>
<path d="M179.52 191.616c5.984-1.328 11.952-2.656 18.016-3.984 7.472-1.584 14.608-1.904 21.584 2.816 2.816 1.904 6.976 1.824 10.544 2.656 0.16-0.416 0.256-0.832 0.416-1.328-1.584-1.248-3.488-2.24-4.48-3.824-0.752-1.168-1.072-3.984-0.496-4.4 2.32-1.664 5.152-2.656 7.808-3.824 3.328-1.488 7.728-0.256 10.048-4.144 0.16-0.336 0.576-0.656 0.912-0.752 8.96-1.744 18.176-4.32 27.152-1.904 4.656 1.248 8.384 5.808 12.784 8.96-2.496 3.824-4.48 6.976-6.56 10.128 0.16 0.256 0.256 0.496 0.416 0.752 1.488-0.832 2.992-1.584 4.4-2.496 3.072-2 5.888-4.4 9.216-6.064 10.88-5.472 22.416-4.56 34.032-3.328 3.984 0.416 8.128 0.256 11.952 1.248 3.728 0.992 7.136 3.072 10.624 4.736 0.576 0.256 1.168 1.072 1.744 1.072 6.4-0.16 10.96 4.24 16.272 6.48 5.392 2.32 9.472 6.4 12.368 12.288-2.992 1.168-5.568 2.4-8.304 3.152-7.312 1.904-14.608 3.568-22 5.232-1.744 0.416-3.568 0.080-5.312 0.336-4.4 0.752-8.88 1.664-13.28 2.496-5.232 0.912-10.208 3.328-15.696-0.16-2.496-1.584-6.4-0.912-9.552-1.664-1.904-0.496-3.824-1.488-5.568-2.496-2.656-1.488-5.072-3.648-7.888-4.736-4.656-1.744-9.632-2.912-14.448-4.32-0.496-0.16-1.072-0.576-1.168-0.992-0.992-3.568-3.824-2.992-6.4-3.072-3.568-0.16-7.312-0.832-8.304 4.24-0.080 0.336-0.992 0.576-2 0.416 0.992-1.248 1.904-2.496 3.904-4.976-7.632-0.576-14.112-1.072-20.592-1.584 0 0.256 0 0.496-0.080 0.752 4.896 2.496 9.872 4.976 15.36 7.808-1.904 2.24-3.408 3.904-5.152 5.888 14.688-4.56 27.488 1.248 40.592 5.648-12.448 1.744-23.088 10.208-36.368 8.72-4.064-0.416-8.304 1.328-12.544 2.080-1.168 0.256-2.4 0.336-4.656 0.656 4.736-3.728 1.824-6.72 0.080-9.216-0.832-1.168-3.728-1.168-5.728-1.072-10.288 0.336-20.672 1.328-30.96 0.992-9.056-0.256-18.176-1.248-26.976-2.992-5.648-1.168-10.96-4.24-16.192-6.896-0.912-0.496-1.584-3.488-0.992-4.48 2.576-4.736 6.224-8.64 11.376-10.704 3.488-1.408 6.976-2.736 10.464-4.144h-0.416z"></path>
<path d="M324.64 175.6c-7.968 0.656-16.944 0.752-25.568 2.32-7.552 1.408-13.36-1.664-19.6-4.48-1.248-0.576-2.576-1.824-3.072-3.152-1.584-4.064-3.232-8.224-4.064-12.448-0.912-4.4 1.408-6.8 5.984-7.632 2.4-0.416 4.976-0.832 7.136-1.824 5.888-2.656 11.872-1.904 17.76-0.656 2 0.416 3.984 1.584 5.648 2.912 3.568 2.992 6.976 6.224 10.384 9.472 2.32 2.24 5.392 4.144 2.656 8.544-0.656 1.168 1.664 4.24 2.736 6.976z"></path>
<path d="M277.824 144.288c-1.904 1.744-3.568 3.072-4.976 4.656-2.912 3.152-6.4 5.984-7.312 10.624-0.256 1.248-1.248 2.736-2.32 3.232-5.232 2.32-10.464 4.656-15.936 6.304-1.744 0.496-4.32-0.832-6.144-1.904-3.904-2.24-7.632-4.736-11.296-7.312-3.824-2.736-3.408-7.056-0.992-10.704 4.56-6.72 11.872-6.224 18.176-8.304 1.824-0.576 3.984-0.256 5.648-0.912 9.216-3.648 16.848 0.912 25.152 4.32z"></path>
<path d="M182.672 175.76c1.168-6.976 6.64-9.216 11.376-12.208 2.992-1.904 6.064-3.728 9.136-5.648 4.32-2.656 16.112-2 20.592 1.248 0.416 0.336 0.832 0.656 1.328 0.992 6.304 4.656 6.304 6.48-0.080 11.376-5.808 4.48-12.624 5.568-19.6 6.64-2.816 0.416-5.728 0.752-8.544 1.328-5.472 1.168-10.208 0-14.192-3.728z"></path>
<path d="M179.6 191.536c-1.584-0.576-3.152-1.248-4.736-1.824 0.912-1.488 1.744-3.152 2.736-4.56 3.648-5.072 7.888-5.232 12.944-1.744 1.248 0.832 3.568 0.16 5.392 0.16 0.16 0.416 0.416 0.752 0.576 1.168-2.080 1.168-4.064 2.496-6.224 3.328-3.568 1.328-7.216 2.4-10.8 3.568 0 0 0.080-0.080 0.080-0.080z"></path>
<path d="M215.392 151.936c1.744-0.912 3.568-1.824 6.224-3.152 0 1.744 0.256 3.568-0.080 3.648-1.744 0.656-3.648 0.832-5.568 1.248-0.16-0.576-0.416-1.168-0.576-1.744z"></path>
</svg>
