<!-- Generated by IcoMoon.io -->
<svg version="1.1" xmlns="http://www.w3.org/2000/svg" width="32" height="32" viewBox="0 0 32 32">
<title>fighters-ferocious</title>
<path d="M19.144 25.717c-0.599-0.13-0.783-0.006-0.8 0.527-0.012 0.497-0.308 0.823-0.634 1.137-0.124 0.124-0.261 0.231-0.445 0.397-0.030-0.148-0.089-0.261-0.071-0.355 0.113-0.497-0.041-0.971-0.118-1.445-0.041-0.261-0.207-0.403-0.462-0.42-0.237-0.024-0.385 0.113-0.462 0.332-0.036 0.107-0.095 0.207-0.136 0.284-0.101-0.178-0.201-0.343-0.291-0.497-0.101 0.184-0.19 0.314-0.237 0.456-0.041 0.136-0.053 0.284-0.059 0.432-0.012 0.243 0 0.491-0.024 0.734-0.006 0.071-0.071 0.178-0.136 0.201s-0.166-0.024-0.231-0.071c-0.361-0.231-0.463-0.58-0.486-0.995-0.024-0.45-0.261-0.823-0.564-1.196-0.243 0.29-0.272 0.634-0.32 0.959-0.030 0.207-0.124 0.343-0.326 0.343-0.083 0-0.238-0.107-0.243-0.172-0.030-0.551-0.291-1.018-0.54-1.486-0.219-0.42-0.361-0.847-0.432-1.32-0.154-0.971-1.008-0.924-1.565-0.545-0.13 0.089-0.255 0.184-0.397 0.284-0.113-0.13-0.278-0.314-0.438-0.509-0.38-0.45-0.759-0.9-1.126-1.362-0.041-0.053-0.030-0.172-0.024-0.255 0.024-0.207 0.113-0.42 0.095-0.622-0.065-0.61-0.172-1.22-0.261-1.83-0.012-0.077-0.012-0.16 0.012-0.225 0.148-0.403 0.207-0.805 0.213-1.238 0-0.403 0.113-0.805 0.166-1.208 0.071-0.521 0.077-1.054-0.343-1.427-0.255-0.225-0.617-0.326-0.925-0.497-0.575-0.326-1.209-0.19-1.82-0.243-0.735-0.065-1.447-0.19-2.092-0.604-0.575-0.367-1.049-0.823-1.481-1.332-0.089-0.101-0.154-0.231-0.213-0.349-0.333-0.651-0.735-1.279-0.978-1.966-0.231-0.657-0.361-1.362-0.426-2.061s-0.030-1.415 0.012-2.12c0.113-2.001 0.972-3.683 2.3-5.152 0.107-0.118 0.249-0.201 0.38-0.302 0.030 0.018 0.065 0.030 0.095 0.047-0.036 0.16-0.053 0.326-0.095 0.486-0.195 0.758-0.438 1.51-0.581 2.28-0.13 0.711-0.207 1.445 0.065 2.15 0.266 0.693 0.503 1.397 0.836 2.061 0.266 0.539 0.634 1.030 0.99 1.522 0.255 0.355 0.623 0.557 1.061 0.628 0.107 0.018 0.237 0.012 0.314 0.071 0.539 0.415 1.221 0.332 1.82 0.527 0.54 0.178 1.085 0.095 1.636 0.053 0.866-0.065 1.548-0.515 2.252-0.936 0.367-0.225 0.741-0.462 1.138-0.616 0.349-0.136 0.741-0.16 1.114-0.237 0.539-0.112 1.079-0.207 1.613-0.355 0.741-0.207 1.434-0.006 2.104 0.231 1.079 0.385 2.146 0.829 3.183 1.315 0.361 0.172 0.635 0.533 0.919 0.841 0.272 0.296 0.564 0.527 0.978 0.604 0.266 0.047 0.516 0.195 0.777 0.231 0.645 0.089 1.28-0.059 1.861-0.326 0.587-0.266 1.138-0.616 1.684-0.965 0.172-0.107 0.261-0.338 0.397-0.497 0.308-0.367 0.651-0.705 0.931-1.090 0.563-0.776 0.848-1.664 1.008-2.605 0.243-1.421 0.036-2.783-0.416-4.133-0.047-0.142-0.006-0.314-0.006-0.474 0.16-0.036 0.291-0.065 0.45-0.101 0.86 1.226 1.672 2.487 1.725 4.074 0.012 0.409 0.089 0.817 0.13 1.232 0.006 0.059 0.006 0.118-0.006 0.172-0.332 1.433-0.641 2.878-1.008 4.305-0.231 0.912-0.617 1.776-1.108 2.588-0.284 0.468-0.694 0.764-1.173 0.995-0.308 0.148-0.593 0.349-0.907 0.486-0.355 0.16-0.734 0.266-1.102 0.409-0.266 0.107-0.552 0.19-0.771 0.361-0.29 0.219-0.564 0.486-0.789 0.776-0.284 0.379-0.522 0.794-0.759 1.202-0.083 0.148-0.124 0.338-0.124 0.503 0 0.456 0.053 0.918 0.036 1.374-0.012 0.296-0.059 0.61-0.172 0.888-0.195 0.486-0.272 0.977-0.278 1.492 0 0.243-0.041 0.486-0.071 0.728-0.006 0.053-0.041 0.113-0.083 0.142-0.349 0.284-0.7 0.568-1.067 0.835-0.071 0.053-0.213 0.053-0.308 0.036-0.676-0.124-1.345-0.207-1.861 0.373-0.136 0.154-0.238 0.367-0.272 0.563-0.101 0.486-0.154 0.971-0.225 1.474zM13.922 19.837c-0.32-0.367-0.641-0.711-0.931-1.078-0.308-0.385-0.652-0.497-1.079-0.308-0.487 0.219-0.605 0.432-0.487 0.977 0.041 0.195-0.006 0.462 0.266 0.545 0.403 0.118 0.812 0.243 1.221 0.332 0.439 0.101 0.83-0.113 1.008-0.468zM16.382 20.992c-0.16 0.083-0.302 0.154-0.438 0.231-0.101 0.059-0.213 0.107-0.284 0.189-0.13 0.148-0.231 0.32-0.35 0.474-0.237 0.308-0.296 0.651-0.243 1.024 0.036 0.237 0.278 0.391 0.481 0.272 0.148-0.089 0.272-0.243 0.367-0.391 0.101-0.16 0.154-0.343 0.231-0.521 0.124 0.284 0.172 0.557 0.266 0.811 0.041 0.113 0.166 0.231 0.278 0.266 0.095 0.030 0.284-0.030 0.333-0.107 0.124-0.201 0.219-0.426 0.089-0.687-0.195-0.385-0.361-0.782-0.539-1.167-0.059-0.136-0.124-0.266-0.191-0.397zM17.947 20.11c0.095 0.243 0.332 0.409 0.664 0.497 0.444 0.113 0.854-0.041 1.262-0.142 0.676-0.166 0.706-0.959 0.361-1.285-0.326-0.308-0.836-0.296-1.162 0-0.338 0.314-0.712 0.592-1.126 0.93z"></path>
<path d="M13.353 26.996c-0.089 0.45 0.142 0.782 0.308 1.125 0.018 0.030 0.065 0.065 0.095 0.065 0.522-0.036 0.877 0.432 1.393 0.45 0.356 0.012 0.516-0.012 0.652-0.349 0.148-0.367 0.243-0.764 0.355-1.143 0.036-0.113 0.053-0.225 0.16-0.385 0.095 0.118 0.237 0.225 0.266 0.361 0.113 0.468 0.184 0.942 0.266 1.409 0.018 0.101 0 0.213 0 0.373 0.432-0.189 0.823-0.343 1.191-0.539 0.118-0.065 0.189-0.225 0.272-0.343 0.178-0.255 0.332-0.527 0.533-0.758 0.32-0.373 0.534-0.841 0.984-1.107 0.089-0.053 0.124-0.225 0.166-0.343 0.095-0.272 0.166-0.557 0.266-0.823 0.024-0.065 0.148-0.095 0.237-0.124 0.172-0.059 0.349-0.101 0.522-0.16 0.361-0.124 0.723-0.249 1.079-0.385 0.278-0.113 0.569-0.219 0.823-0.379 0.783-0.48 1.476-1.084 1.974-1.848 0.367-0.568 0.462-1.261 0.539-1.936 0.024-0.201 0.077-0.397 0.124-0.657 0.124 0.089 0.219 0.118 0.255 0.184 0.172 0.326 0.427 0.616 0.386 1.024-0.059 0.58-0.101 1.161-0.172 1.741-0.018 0.13-0.095 0.261-0.16 0.379-0.284 0.521-0.533 1.078-0.889 1.551-0.332 0.444-0.789 0.794-1.185 1.184-0.148 0.148-0.284 0.314-0.433 0.468-0.243 0.255-0.48 0.515-0.741 0.752-0.249 0.225-0.516 0.444-0.806 0.622-0.272 0.166-0.575 0.284-0.871 0.409-0.664 0.278-1.055 1.084-0.848 1.771 0.089 0.308 0.006 0.545-0.243 0.746-0.486 0.403-0.954 0.823-1.44 1.22-0.284 0.237-0.605 0.361-1.002 0.338-0.586-0.036-1.185-0.006-1.773 0-0.089 0-0.184-0.006-0.261 0.024-0.564 0.207-1.043 0.041-1.518-0.278-0.172-0.118-0.415-0.124-0.598-0.231-0.308-0.178-0.592-0.409-0.901-0.592-0.118-0.071-0.278-0.089-0.416-0.118-0.497-0.107-0.86-0.29-0.883-0.823-0.030-0.74-0.385-1.362-0.652-2.025-0.118-0.29-0.338-0.385-0.575-0.497-0.789-0.379-1.589-0.746-2.228-1.368-0.219-0.213-0.416-0.45-0.575-0.711-0.569-0.953-1.156-1.907-1.333-3.026-0.077-0.503-0.142-1.013-0.16-1.522-0.036-0.746-0.030-1.498-0.036-2.244 0-0.136-0.006-0.284 0.041-0.409 0.231-0.58 0.48-1.155 0.741-1.765 0.243 0.184 0.284 0.355 0.272 0.622-0.036 0.628-0.006 1.261 0.036 1.889 0.047 0.782 0.243 1.54 0.664 2.209 0.326 0.521 0.694 1.030 1.102 1.486 0.51 0.557 1.073 1.066 1.63 1.575 0.308 0.284 0.664 0.444 1.108 0.296 0.201-0.065 0.373 0.006 0.48 0.219 0.16 0.314 0.355 0.604 0.516 0.912 0.219 0.426 0.361 0.882 0.326 1.374-0.006 0.107-0.024 0.225 0.006 0.326s0.107 0.195 0.16 0.29c0.065-0.071 0.149-0.136 0.195-0.213 0.142-0.201 0.308-0.308 0.569-0.29z"></path>
</svg>
