<!-- Generated by IcoMoon.io -->
<svg version="1.1" xmlns="http://www.w3.org/2000/svg" width="34" height="32" viewBox="0 0 34 32">
<title>fighter-berserker</title>
<path d="M10.95 32c-0.053-0.029-0.111-0.050-0.156-0.087-0.179-0.146-0.377-0.2-0.605-0.165-0.243 0.036-0.38-0.147-0.534-0.284-0.025-0.023-0.014-0.102-0.003-0.152 0.086-0.375 0.074-0.753-0.087-1.096-0.282-0.602-0.345-1.253-0.503-1.884-0.138-0.549-0.369-1.088-0.738-1.543-0.042-0.051-0.087-0.102-0.143-0.137-0.269-0.17-0.525-0.348-0.714-0.617-0.051-0.074-0.185-0.105-0.287-0.125-0.17-0.033-0.348-0.027-0.518-0.062-0.119-0.024-0.242-0.072-0.341-0.14-0.15-0.101-0.275-0.102-0.402 0.023-0.009 0.009-0.016 0.018-0.027 0.024-0.179 0.113-0.357 0.224-0.534 0.335-0.279-0.137-0.576-0.246-0.753-0.528-0.042-0.066-0.080-0.134-0.113-0.204-0.092-0.197-0.192-0.383-0.392-0.497-0.050-0.029-0.092-0.080-0.122-0.131-0.362-0.624-0.66-1.267-0.524-2.022 0.017-0.087 0.032-0.188 0.084-0.252 0.452-0.542 0.644-1.178 0.731-1.866 0.078-0.612 0.249-1.219 0.263-1.831 0.016-0.75 0.189-1.472 0.272-2.209 0.008-0.072 0.016-0.144 0.016-0.215-0.002-0.888-0.018-1.775 0.002-2.664 0.008-0.342 0.096-0.683 0.144-1.025 0.027-0.195 0.066-0.39 0.069-0.585 0.012-0.549 0.089-1.087 0.249-1.612 0.099-0.326 0.258-0.618 0.488-0.872 0.368-0.402 0.701-0.846 1.109-1.201 0.767-0.666 1.654-1.141 2.626-1.454 0.264-0.086 0.507-0.236 0.762-0.351 0.222-0.101 0.446-0.195 0.671-0.29 0.089-0.038 0.185-0.056 0.269-0.101 0.563-0.302 1.177-0.441 1.795-0.557 0.137-0.026 0.291-0.018 0.426 0.015 0.51 0.129 1.024 0.251 1.522 0.42 0.686 0.233 1.33 0.549 1.962 0.918 0.678 0.396 1.226 0.935 1.831 1.409 0.213 0.167 0.366 0.423 0.516 0.657 0.177 0.278 0.309 0.582 0.483 0.863 0.441 0.714 0.776 1.472 1.001 2.281 0.017 0.057 0.020 0.129 0.056 0.17 0.359 0.408 0.356 0.932 0.441 1.421 0.245 1.396 0.158 2.785-0.123 4.166-0.008 0.035-0.014 0.071-0.018 0.107-0.050 0.326-0.048 0.327 0.284 0.336 0.048 0.185 0.089 0.377 0.149 0.563 0.308 0.951 0.45 1.936 0.614 2.918 0.030 0.185 0.113 0.366 0.198 0.534 0.156 0.303 0.2 0.605 0.096 0.936-0.108 0.348-0.251 0.668-0.504 0.941-0.303 0.324-0.591 0.662-0.873 1.006-0.084 0.102-0.147 0.236-0.179 0.363-0.056 0.228-0.186 0.354-0.413 0.39-0.458 0.074-0.897 0.092-1.312-0.198-0.249-0.176-0.531-0.099-0.78 0.054-0.374 0.23-0.632 0.563-0.845 0.939-0.141 0.249-0.231 0.503-0.228 0.798 0.008 0.597-0.084 1.18-0.305 1.744-0.057 0.147-0.038 0.329-0.035 0.495 0.002 0.113-0.027 0.17-0.146 0.171-0.176 0.002-0.258 0.114-0.29 0.267-0.029 0.141-0.042 0.285-0.062 0.428-0.035 0.26-0.177 0.456-0.372 0.617-0.245 0.2-0.651 0.075-0.8-0.237-0.042-0.087-0.096-0.17-0.138-0.245-0.254 0.242-0.497 0.456-0.717 0.69-0.114 0.12-0.221 0.134-0.35 0.063-0.263-0.144-0.44-0.344-0.446-0.666-0.005-0.294-0.014-0.588-0.042-0.881-0.009-0.089-0.063-0.201-0.132-0.251-0.15-0.107-0.264-0.036-0.264 0.149 0 0.144 0.020 0.288 0.014 0.431-0.005 0.099-0.011 0.218-0.065 0.29-0.18 0.237-0.233 0.509-0.269 0.789-0.033 0.254-0.090 0.273-0.348 0.249-0.242-0.023-0.389-0.167-0.539-0.324-0.092-0.096-0.174-0.201-0.278-0.281-0.051-0.039-0.153-0.056-0.207-0.030-0.056 0.027-0.095 0.113-0.114 0.182-0.015 0.053 0.005 0.119 0.017 0.177 0.063 0.329 0.032 0.393-0.261 0.537-0.066-0.002-0.138-0.002-0.21-0.002zM19.845 23.24c0.183-0.137 0.234-0.269 0.186-0.438-0.026-0.092-0.039-0.188-0.063-0.281-0.147-0.56-0.296-1.12-0.446-1.679-0.102-0.378-0.711-0.783-1.082-0.722-0.779 0.129-1.409 0.546-1.999 1.036-0.104 0.086-0.18 0.209-0.252 0.326-0.261 0.431-0.506 0.87-0.774 1.295-0.075 0.119-0.201 0.225-0.327 0.285-0.147 0.071-0.2 0.155-0.173 0.308 0.035 0.194 0.113 0.273 0.294 0.27 0.428-0.005 0.846-0.050 1.246-0.225 0.441-0.192 0.9-0.327 1.385-0.354 0.047-0.003 0.099-0.012 0.135-0.039 0.344-0.243 0.738-0.363 1.133-0.486 0.362-0.113 0.381-0.107 0.53 0.254 0.062 0.149 0.132 0.29 0.207 0.452zM6.422 21.849c0.021 0.188-0.024 0.41 0.167 0.51 0.189 0.099 0.335 0.366 0.617 0.213 0.019-0.011 0.063 0.029 0.098 0.035 0.104 0.021 0.207 0.054 0.311 0.054 0.372-0.002 0.746-0.045 1.114-0.015 0.275 0.023 0.551 0.11 0.81 0.209 0.357 0.137 0.696 0.318 1.048 0.47 0.077 0.033 0.179 0.036 0.263 0.023 0.308-0.050 0.359-0.179 0.159-0.416-0.35-0.414-0.654-0.866-1.087-1.213-0.363-0.291-0.689-0.629-1.039-0.938-0.069-0.060-0.168-0.092-0.257-0.123-0.344-0.12-0.692-0.227-1.033-0.356-0.267-0.102-0.291-0.099-0.449 0.14-0.125 0.189-0.266 0.366-0.396 0.552-0.084 0.119-0.186 0.233-0.236 0.366-0.054 0.152-0.062 0.324-0.090 0.489zM12.314 27.465c0.257-0.149 0.507-0.288 0.75-0.438 0.107-0.066 0.194-0.065 0.297-0.002 0.198 0.123 0.407 0.231 0.603 0.356 0.099 0.063 0.182 0.152 0.275 0.224 0.044 0.033 0.105 0.084 0.143 0.074 0.042-0.012 0.093-0.087 0.092-0.134-0.008-0.176-0.018-0.356-0.060-0.525-0.044-0.173-0.164-0.332-0.182-0.504-0.056-0.545-0.242-1.034-0.495-1.514-0.129-0.242-0.158-0.537-0.233-0.807-0.068-0.24-0.242-0.326-0.468-0.236-0.278 0.111-0.524 0.623-0.467 0.916 0.044 0.221 0.098 0.459 0.057 0.672-0.092 0.504-0.227 1.003-0.368 1.496-0.042 0.15-0.048 0.266 0.056 0.423zM12.030 30.634c0.072 0.123 0.134 0.24 0.21 0.348 0.028 0.041 0.089 0.057 0.134 0.086 0.025-0.050 0.080-0.107 0.069-0.15-0.027-0.12-0.069-0.239-0.129-0.347-0.030-0.056-0.108-0.084-0.164-0.125-0.033 0.056-0.068 0.11-0.12 0.188zM10.488 31.038c-0.060-0.062-0.119-0.123-0.179-0.186-0.060 0.095-0.141 0.183-0.173 0.285-0.027 0.087 0.014 0.185 0.141 0.177 0.158-0.008 0.161-0.131 0.21-0.276zM16.035 30.79c0.080-0.090 0.15-0.17 0.227-0.255-0.080-0.072-0.090-0.243-0.251-0.147-0.114 0.066-0.104 0.246 0.024 0.402z"></path>
<path d="M0 13.702c0.156-0.125 0.308-0.165 0.507-0.057 0.348 0.189 0.684-0.020 0.753-0.438 0.068-0.41 0.009-0.812-0.054-1.216-0.108-0.699-0.219-1.399-0.3-2.101-0.072-0.632 0.009-1.256 0.176-1.87 0.137-0.503 0.249-1.009 0.486-1.483 0.273-0.548 0.588-1.052 1.052-1.463 0.453-0.401 0.869-0.845 1.328-1.24 0.219-0.188 0.497-0.306 0.752-0.452 0.53-0.305 1.058-0.612 1.592-0.908 0.57-0.317 1.157-0.605 1.715-0.942 0.324-0.197 0.606-0.464 0.906-0.702 0.159-0.126 0.309-0.264 0.471-0.387 0.086-0.065 0.174-0.068 0.237 0.051 0.087 0.161 0.165 0.174 0.303 0.051 0.161-0.144 0.312-0.299 0.471-0.444 0.189-0.173 0.353-0.125 0.41 0.131 0.059 0.261-0.011 0.501-0.188 0.702-0.071 0.080-0.158 0.147-0.243 0.212-0.36 0.269-0.732 0.524-1.082 0.806-0.264 0.215-0.501 0.462-0.747 0.698-0.129 0.125-0.275 0.242-0.374 0.387-0.296 0.432-0.617 0.855-0.459 1.445 0.078 0.293 0.089 0.602 0.132 0.926 0.176-0.077 0.366-0.159 0.576-0.251 0 0.051 0.011 0.086-0.002 0.104-0.183 0.255-0.371 0.504-0.71 0.563-0.047 0.008-0.092 0.026-0.137 0.045-1.34 0.585-2.283 1.556-2.859 2.898-0.327 0.759-0.612 1.531-0.882 2.314-0.33 0.956-0.41 1.929-0.438 2.919-0.009 0.324-0.044 0.647-0.041 0.971 0.006 0.575 0.022 1.15 0.053 1.724 0.027 0.54 0.080 1.081-0.122 1.601-0.051 0.134-0.111 0.266-0.185 0.389-0.086 0.143-0.171 0.141-0.284 0.023-0.152-0.161-0.314-0.312-0.464-0.474-0.086-0.092-0.17-0.188-0.234-0.294-0.291-0.491-0.551-0.997-0.681-1.559-0.010-0.047-0.021-0.096-0.044-0.137-0.416-0.735-0.834-1.469-1.252-2.203-0.045-0.080-0.096-0.155-0.143-0.23 0-0.036 0-0.072 0-0.108z"></path>
<path d="M10.563 4.649c0.146-0.191 0.276-0.297 0.468-0.339 0.080-0.016 0.165-0.117 0.194-0.198 0.014-0.038-0.102-0.126-0.168-0.182-0.054-0.044-0.12-0.071-0.218-0.125 0.092-0.081 0.152-0.158 0.231-0.197 0.311-0.155 0.624-0.306 0.944-0.443 0.804-0.341 1.598-0.717 2.425-0.998 1.031-0.35 2.085-0.66 3.177-0.755 0.582-0.050 1.175-0.016 1.759 0.026 0.579 0.042 1.154 0.144 1.73 0.219 0.464 0.062 0.902-0.039 1.339-0.189 0.83-0.287 1.66-0.585 2.506-0.818 0.743-0.204 1.504-0.227 2.247 0.068 0.143 0.057 0.302 0.078 0.455 0.102 0.296 0.045 0.468 0.228 0.564 0.492 0.077 0.212-0.060 0.392-0.281 0.35-0.536-0.105-1.064-0.035-1.592 0.033-0.194 0.024-0.378 0.11-0.567 0.164-0.171 0.048-0.345 0.090-0.516 0.137-0.252 0.071-0.507 0.132-0.752 0.219-0.162 0.059-0.308 0.159-0.465 0.236-0.692 0.335-0.919 0.953-0.957 1.652-0.024 0.422 0.245 0.714 0.596 0.92 0.335 0.195 0.707 0.267 1.087 0.279 0.378 0.011 0.759 0.021 1.133-0.016 0.3-0.030 0.593-0.138 0.89-0.206 0.858-0.195 1.715-0.402 2.578-0.575 0.551-0.111 1.117-0.233 1.678-0.123 0.533 0.104 1.054 0.275 1.579 0.417 0.023 0.006 0.050 0.012 0.065 0.029 0.282 0.312 0.677 0.395 1.052 0.515 0.302 0.096 0.533 0.267 0.659 0.566 0.078 0.186 0.009 0.335-0.189 0.354-0.261 0.026-0.527 0.044-0.789 0.035-0.734-0.026-1.468-0.012-2.181 0.173-0.294 0.077-0.572 0.239-0.84 0.389-0.27 0.15-0.513 0.351-0.843 0.365-0.059 0.003-0.126 0.045-0.173 0.087-0.503 0.455-1.012 0.902-1.496 1.375-0.261 0.254-0.422 0.572-0.564 0.921-0.294 0.72-0.374 1.496-0.659 2.217-0.273 0.689-0.734 1.229-1.238 1.747-0.3 0.309-0.642 0.603-0.849 0.97-0.243 0.428-0.446 0.921-0.158 1.432 0.129 0.23 0.269 0.453 0.411 0.674 0.038 0.059 0.098 0.119 0.159 0.141 0.425 0.153 0.842 0.278 1.297 0.051 0.218-0.108 0.483-0.137 0.731-0.161 0.416-0.039 0.836-0.077 1.25-0.057 0.291 0.014 0.537 0.174 0.705 0.443 0.077 0.122 0.222 0.2 0.312 0.315 0.059 0.077 0.131 0.222 0.098 0.275-0.059 0.093-0.185 0.158-0.296 0.195-0.098 0.033-0.225-0.017-0.318 0.020-0.225 0.090-0.45 0.159-0.695 0.17-0.065 0.003-0.138 0.050-0.189 0.098-0.756 0.699-1.613 1.288-2.263 2.101-0.533 0.666-0.887 1.438-1.294 2.178-0.093 0.17-0.158 0.189-0.285 0.047-0.051-0.057-0.093-0.126-0.122-0.198-0.21-0.528-0.428-1.054-0.621-1.588-0.24-0.659-0.44-1.331-0.693-1.984-0.237-0.608-0.284-1.213-0.161-1.852 0.071-0.372 0.057-0.761 0.080-1.142 0.011-0.174 0.005-0.348 0.021-0.521 0.081-0.861-0.129-1.678-0.363-2.494-0.167-0.581-0.305-1.171-0.477-1.751-0.099-0.332-0.24-0.65-0.359-0.977-0.030-0.083-0.060-0.174-0.054-0.26 0.017-0.23-0.066-0.419-0.194-0.602-0.135-0.197-0.243-0.413-0.389-0.6-0.149-0.192-0.303-0.395-0.5-0.528-0.24-0.162-0.429-0.353-0.543-0.606-0.257-0.572-0.686-0.97-1.214-1.286-0.542-0.324-1.058-0.683-1.483-1.16-0.164-0.183-0.387-0.243-0.626-0.279-0.609-0.093-1.216-0.209-1.823-0.308-0.15-0.024-0.305-0.019-0.456-0.021-0.281-0.003-0.567 0.032-0.842-0.009-0.446-0.065-0.872 0.027-1.303 0.099-0.377 0.063-0.749 0.147-1.124 0.221-0.066 0.015-0.129 0.021-0.236 0.038zM22.872 13.084c-0.015-0.081-0.029-0.194-0.062-0.3-0.012-0.038-0.078-0.059-0.119-0.087-0.026 0.039-0.075 0.080-0.074 0.119 0.005 0.141 0.021 0.284 0.045 0.423 0.006 0.038 0.056 0.066 0.086 0.099 0.036-0.033 0.080-0.062 0.104-0.102 0.017-0.032 0.011-0.080 0.020-0.152zM22.269 2.646c-0.102-0.069-0.152-0.129-0.21-0.138-0.125-0.018-0.252 0.101-0.222 0.218 0.020 0.078 0.108 0.14 0.165 0.209 0.077-0.084 0.155-0.168 0.267-0.288z"></path>
</svg>
