<!-- Generated by IcoMoon.io -->
<svg version="1.1" xmlns="http://www.w3.org/2000/svg" width="32" height="32" viewBox="0 0 32 32">
<title>fighters-destroyer</title>
<path d="M32.377 23.078c-0.166 0.266-0.215 0.27-0.504 0.125-0.607-0.302-1.114-0.714-1.54-1.248-0.277-0.347-0.635-0.628-0.927-0.963-0.339-0.388-0.645-0.805-0.968-1.207-0.277-0.343-0.557-0.683-0.841-1.020-0.107-0.125-0.174-0.122-0.261 0.025-0.278 0.471-0.549 0.946-0.822 1.421-0.052 0.089-0.090 0.184-0.149 0.266-0.109 0.15-0.243 0.166-0.389 0.049-0.049-0.041-0.102-0.083-0.137-0.136-0.258-0.389-0.525-0.773-0.767-1.171-0.19-0.312-0.357-0.637-0.52-0.964-0.101-0.2-0.179-0.413-0.264-0.621-0.048-0.12-0.013-0.222 0.107-0.264 0.25-0.093 0.367-0.288 0.471-0.516 0.372-0.812 0.738-1.625 0.927-2.5 0.067-0.312 0.062-0.64 0.091-0.974 0.268 0.083 0.409 0.291 0.524 0.537 0.223 0.475 0.441 0.956 0.69 1.418 0.136 0.253 0.333 0.472 0.503 0.706 0.025 0.034 0.058 0.065 0.094 0.087 0.166 0.105 0.298 0.055 0.333-0.138 0.036-0.198 0.111-0.365 0.265-0.5 0.045-0.039 0.065-0.109 0.090-0.167 0.056-0.124 0.143-0.204 0.285-0.195 0.137 0.010 0.226 0.107 0.239 0.229 0.073 0.757 0.472 1.376 0.852 1.998 0.433 0.711 0.722 1.486 1.061 2.239 0.496 1.102 1.010 2.195 1.517 3.292 0.011 0.024 0.027 0.046 0.041 0.067 0 0.042 0 0.084 0 0.128zM28.822 18.432c0.023-0.004 0.046-0.010 0.070-0.014-0.007-0.079-0.012-0.159-0.018-0.238-0.077 0.014-0.154 0.030-0.229 0.045 0.001 0.018 0.003 0.034 0.004 0.052 0.056 0.052 0.114 0.104 0.173 0.156z"></path>
<path d="M15.582 31.5c-0.277-0.159-0.319-0.245-0.282-0.559 0.094-0.8 0.181-1.601 0.282-2.402 0.089-0.703 0.194-1.404 0.285-2.107 0.035-0.269 0.052-0.541 0.076-0.812 0.013-0.167-0.097-0.254-0.236-0.242-0.493 0.047-0.984-0.122-1.477 0.008-0.174 0.047-0.337-0.016-0.441-0.166-0.109-0.155-0.072-0.319 0.014-0.472 0.281-0.502 0.569-0.999 0.85-1.501 0.128-0.229 0.27-0.456 0.362-0.699 0.159-0.416 0.474-0.607 0.882-0.645 0.258-0.024 0.493-0.091 0.721-0.207 0.17-0.086 0.33-0.098 0.509-0.011 0.171 0.083 0.351 0.082 0.53 0 0.060-0.027 0.135-0.028 0.204-0.032 0.076-0.004 0.155 0.017 0.225 0 0.339-0.084 0.632 0.052 0.931 0.173 0.065 0.025 0.129 0.053 0.195 0.075 0.241 0.080 0.355 0.247 0.341 0.499-0.012 0.188-0.097 0.261-0.281 0.242-0.021-0.003-0.042-0.007-0.063-0.011-0.416-0.096-0.448-0.080-0.639 0.313-0.086 0.179-0.167 0.36-0.25 0.54-0.203 0.433-0.197 0.884-0.121 1.341 0.021 0.133 0.094 0.198 0.222 0.159 0.183-0.056 0.365-0.124 0.541-0.199 0.273-0.118 0.49-0.025 0.546 0.264 0.014 0.071-0.011 0.174-0.058 0.229-0.247 0.281-0.432 0.596-0.586 0.939-0.089 0.198-0.261 0.361-0.399 0.535-0.069 0.087-0.167 0.157-0.218 0.253-0.311 0.57-0.615 1.144-0.916 1.72-0.323 0.618-0.641 1.238-0.955 1.861-0.084 0.167-0.152 0.344-0.221 0.52s-0.167 0.322-0.348 0.396c-0.076 0.001-0.15 0.001-0.226 0.001zM14.389 24.591c-0.069 0.090-0.104 0.136-0.155 0.201 0.082 0.066 0.156 0.129 0.236 0.183 0.008 0.006 0.086-0.065 0.080-0.077-0.041-0.097-0.097-0.187-0.163-0.308z"></path>
<path d="M11.912 17.313c0.098-0.124 0.191-0.107 0.284-0.023 0.098 0.090 0.205 0.136 0.336 0.082 0.034-0.238-0.124-0.489-0.342-0.548-0.222-0.059-0.438-0.139-0.68-0.069-0.058 0.018-0.157-0.055-0.218-0.107-0.075-0.066-0.124-0.164-0.198-0.232-0.067-0.062-0.156-0.101-0.236-0.149-0.018-0.011-0.043-0.011-0.059-0.024-0.37-0.285-0.76-0.557-0.832-1.073-0.009-0.069-0.011-0.145-0.041-0.205-0.156-0.295-0.118-0.59-0.038-0.894 0.049-0.187 0.084-0.378 0.114-0.568 0.041-0.253 0.096-0.5 0.258-0.704 0.296-0.367 0.463-0.779 0.492-1.253 0.013-0.229 0.093-0.454 0.107-0.683 0.020-0.304 0.011-0.61 0.008-0.918-0.008-0.866-0.018-1.73-0.032-2.596-0.003-0.145-0.018-0.289-0.030-0.434-0.059-0.687 0.107-1.323 0.447-1.914 0.205-0.357 0.42-0.708 0.635-1.060 0.041-0.066 0.096-0.132 0.159-0.176 0.561-0.399 1.125-0.795 1.687-1.189 0.035-0.024 0.072-0.050 0.111-0.066 0.653-0.25 1.183-0.696 1.749-1.085 0.362-0.249 0.684-0.551 1.1-0.725 0.294-0.124 0.59-0.211 0.905-0.204 1.25 0.027 2.386 0.361 3.307 1.257 0.173 0.17 0.35 0.336 0.531 0.495 0.145 0.126 0.311 0.23 0.451 0.361 0.191 0.179 0.389 0.36 0.545 0.568 0.305 0.409 0.57 0.85 0.88 1.253 0.324 0.422 0.445 0.902 0.468 1.411 0.018 0.395-0.012 0.793-0.020 1.192-0.003 0.124-0.004 0.247-0.006 0.371-0.004 0.468 0.012 0.936-0.014 1.403-0.039 0.706 0.048 1.401 0.194 2.081 0.091 0.427 0.298 0.842 0.504 1.233 0.282 0.533 0.353 1.112 0.462 1.684 0.011 0.059-0.010 0.128-0.027 0.19-0.284 0.974-0.726 1.882-1.137 2.804-0.055 0.125-0.163 0.209-0.292 0.192-0.406-0.056-0.786 0.076-1.177 0.128-0.186 0.025-0.375 0.048-0.562 0.043-0.225-0.003-0.339 0.118-0.434 0.296-0.080 0.148-0.171 0.291-0.272 0.426-0.102 0.137-0.089 0.433 0.067 0.562 0.16 0.132 0.156 0.273 0.129 0.459-0.093 0.642-0.344 1.24-0.513 1.859-0.084 0.306-0.254 0.55-0.516 0.738-0.1 0.072-0.177 0.069-0.258-0.003-0.162-0.139-0.253-0.315-0.258-0.534-0.004-0.156-0.011-0.312-0.028-0.465-0.020-0.17-0.129-0.215-0.27-0.109-0.12 0.090-0.234 0.19-0.344 0.292-0.18 0.166-0.373 0.205-0.59 0.082-0.139-0.080-0.247-0.070-0.336 0.082-0.072 0.12-0.201 0.116-0.319 0.089-0.121-0.027-0.175-0.12-0.181-0.239-0.018-0.299-0.055-0.596 0.058-0.893 0.065-0.17-0.15-0.631-0.307-0.73-0.104-0.066-0.197-0.034-0.247 0.062-0.222 0.412-0.362 0.839-0.218 1.311 0.077 0.252-0.023 0.387-0.284 0.387-0.043 0-0.087 0.001-0.129-0.006-0.319-0.056-0.624-0.036-0.927 0.098-0.181 0.080-0.271 0.027-0.37-0.146-0.135-0.239-0.265-0.479-0.4-0.718-0.031-0.055-0.065-0.116-0.113-0.155-0.041-0.032-0.109-0.058-0.156-0.048-0.032 0.007-0.063 0.080-0.069 0.128-0.021 0.221-0.004 0.433 0.089 0.645 0.073 0.164 0.093 0.351 0.136 0.528 0.024 0.1 0.063 0.197 0.069 0.297 0.004 0.069-0.018 0.155-0.060 0.207-0.090 0.111-0.205 0.203-0.303 0.309-0.166 0.183-0.332 0.195-0.516 0.028-0.201-0.18-0.295-0.42-0.302-0.675-0.016-0.559-0.202-1.086-0.277-1.632-0.089-0.647-0.374-1.181-0.774-1.673-0.183-0.232-0.37-0.469-0.565-0.714zM21.956 12.365c-0.388 0.137-0.846 0.247-1.245 0.517-0.111 0.076-0.249 0.109-0.375 0.163-0.073 0.031-0.168 0.043-0.211 0.098-0.25 0.316-0.575 0.524-0.937 0.687-0.045 0.021-0.109 0.109-0.097 0.139 0.102 0.257 0.155 0.541 0.378 0.735 0.334 0.292 0.708 0.462 1.162 0.427 0.076-0.006 0.152 0.012 0.226 0 0.218-0.036 0.451-0.045 0.648-0.133 0.355-0.162 0.694-0.363 1.030-0.566 0.291-0.177 0.478-0.441 0.582-0.766 0.041-0.128 0.028-0.239-0.055-0.348-0.166-0.219-0.322-0.444-0.487-0.662-0.139-0.18-0.324-0.277-0.618-0.292zM14.049 15c0-0.004-0.001-0.010-0.001-0.014 0.256-0.024 0.517-0.030 0.768-0.080 0.237-0.047 0.464-0.142 0.694-0.218 0.010-0.003 0.017-0.014 0.024-0.020 0.146-0.135 0.295-0.266 0.441-0.402 0.101-0.093 0.082-0.175-0.028-0.247-0.126-0.082-0.247-0.17-0.375-0.25-0.396-0.246-0.797-0.486-1.191-0.734-0.222-0.139-0.452-0.273-0.655-0.438-0.278-0.229-0.736-0.238-0.989 0.021-0.256 0.262-0.432 0.577-0.528 0.929-0.018 0.070 0.010 0.174 0.052 0.236 0.136 0.192 0.291 0.372 0.438 0.557 0.34 0.429 0.86 0.496 1.332 0.658 0.007 0.004 0.011 0.003 0.017 0.003zM18.45 17.509c-0.031-0.128-0.052-0.222-0.077-0.315-0.025-0.098-0.066-0.194-0.075-0.294-0.039-0.427-0.080-0.855-0.102-1.282-0.024-0.458-0.186-0.791-0.691-0.853-0.025-0.003-0.052-0.028-0.075-0.024-0.052 0.008-0.136 0.012-0.15 0.045-0.062 0.132-0.124 0.273-0.146 0.415-0.052 0.327-0.077 0.659-0.118 0.987-0.018 0.148-0.078 0.295-0.073 0.443 0.011 0.246-0.027 0.478-0.109 0.707-0.055 0.155 0.035 0.246 0.191 0.194 0.065-0.021 0.111-0.091 0.168-0.137 0.1-0.079 0.198-0.157 0.303-0.228 0.025-0.017 0.093-0.013 0.114 0.008 0.222 0.222 0.521 0.236 0.843 0.333zM11.477 10.5c-0.12 0.166-0.278 0.933-0.237 1.117 0.211-0.058 0.408-0.942 0.237-1.117zM18.060 2.772c-0.118 0.136-0.058 0.574 0.083 0.68 0.142-0.146 0.094-0.569-0.083-0.68zM13.786 5.239c-0.159 0.117-0.177 0.577-0.031 0.676 0.114-0.139 0.138-0.534 0.031-0.676z"></path>
<path d="M6.114 16.465c0.111-0.082 0.198-0.121 0.249-0.188 0.451-0.602 0.905-1.2 1.333-1.819 0.198-0.285 0.402-0.551 0.665-0.781 0.179-0.157 0.322-0.355 0.478-0.537 0.058-0.067 0.109-0.139 0.18-0.232 0.023 0.065 0.045 0.097 0.045 0.129 0.003 0.337 0.006 0.675 0.001 1.013 0 0.045-0.034 0.089-0.054 0.132-0.023 0.048-0.062 0.093-0.073 0.142-0.084 0.402-0.168 0.804-0.239 1.207-0.011 0.062 0.025 0.146 0.066 0.202 0.246 0.339 0.496 0.676 0.752 1.007 0.194 0.249 0.462 0.35 0.771 0.329 0.128-0.010 0.239 0.011 0.32 0.111 0.107 0.128 0.215 0.257 0.305 0.396 0.032 0.049 0.028 0.141 0.007 0.2-0.024 0.067-0.079 0.128-0.135 0.177-0.342 0.311-0.702 0.603-1.031 0.926-0.78 0.774-1.727 1.328-2.599 1.982-0.077 0.056-0.171 0.089-0.254 0.137-0.162 0.093-0.329 0.177-0.479 0.287-0.159 0.114-0.256 0.143-0.375-0.007s-0.209-0.334-0.279-0.516c-0.107-0.28-0.192-0.569-0.273-0.857-0.055-0.195-0.091-0.396-0.131-0.596-0.045-0.235-0.094-0.278-0.311-0.186-0.3 0.129-0.6 0.264-0.877 0.434-0.444 0.271-0.878 0.562-1.302 0.869-0.306 0.223-0.606 0.465-0.875 0.732-0.455 0.454-0.907 0.902-1.478 1.211-0.070 0.038-0.125 0.107-0.195 0.142-0.090 0.045-0.188 0.072-0.284 0.106-0.014-0.014-0.030-0.030-0.045-0.045 0.024-0.082 0.027-0.18 0.076-0.245 0.691-0.94 1.375-1.885 2.089-2.805 0.402-0.518 0.821-1.022 1.232-1.532 0.342-0.425 0.636-0.876 0.95-1.314 0.177-0.249 0.405-0.461 0.577-0.711 0.167-0.242 0.298-0.509 0.437-0.769 0.128-0.234 0.291-0.325 0.551-0.309 0.118 0.008 0.122 0.091 0.125 0.17 0.009 0.344 0.009 0.689 0.020 1.033 0.007 0.109 0.034 0.218 0.058 0.372zM1.096 21.632c0.409-0.171 0.612-0.393 0.583-0.627-0.284 0.058-0.533 0.32-0.583 0.627z"></path>
<path d="M9.217 7.059c0.112 0.048 0.174 0.159 0.223 0.298 0.125 0.353 0.121 0.714 0.138 1.079 0.021 0.454 0.105 0.905 0.136 1.361 0.027 0.389 0.019 0.783 0.023 1.174 0 0.031-0.024 0.069-0.048 0.089-0.011 0.008-0.063-0.014-0.079-0.034-0.318-0.481-0.876-0.505-1.344-0.682-0.372-0.139-0.784-0.177-1.179-0.254-0.084-0.016-0.175-0.027-0.257-0.011-0.296 0.058-0.579-0.007-0.86-0.082-0.275-0.074-0.541-0.177-0.818-0.243-0.162-0.039-0.337-0.045-0.504-0.039-0.375 0.014-0.753 0.024-1.125 0.070-0.688 0.084-1.373 0.204-2.022 0.462-0.167 0.067-0.223-0.021-0.282-0.152 0.043-0.034 0.084-0.066 0.126-0.098 1.045-0.803 2.217-1.369 3.445-1.831 0.096-0.036 0.173-0.118 0.263-0.173 0.109-0.065 0.219-0.129 0.336-0.18 0.155-0.069 0.32-0.113 0.471-0.188 0.177-0.087 0.347-0.194 0.518-0.295 0.125-0.074 0.221-0.034 0.249 0.093s0.015 0.261 0.019 0.392c0.003 0.114 0.003 0.228 0.004 0.34 0.109-0.027 0.223-0.042 0.327-0.083 0.603-0.24 1.206-0.484 1.803-0.738 0.146-0.060 0.275-0.17 0.438-0.275z"></path>
<path d="M24.75 6.39c0.062 0.101 0.122 0.195 0.179 0.292 0.285 0.493 1 0.519 1.309 0.035 0.065-0.101 0.082-0.243 0.089-0.368 0.008-0.141 0.078-0.167 0.187-0.141 0.072 0.016 0.143 0.045 0.204 0.089 0.216 0.159 0.457 0.212 0.721 0.234 0.296 0.024 0.593 0.091 0.882 0.168 0.295 0.077 0.583 0.187 0.871 0.292 0.104 0.037 0.195 0.11 0.298 0.146 0.177 0.060 0.354 0.124 0.538 0.153 0.37 0.058 0.701 0.195 1.002 0.416 0.186 0.138 0.372 0.271 0.557 0.41 0.052 0.038 0.094 0.087 0.18 0.167-0.116 0.045-0.204 0.105-0.292 0.109-0.322 0.016-0.645 0.014-0.968 0.014-0.084 0-0.177 0-0.256-0.028-0.362-0.133-0.733-0.072-1.103-0.063-0.332 0.008-0.663 0.011-0.996 0.024-0.111 0.004-0.225 0.016-0.33 0.047-0.288 0.086-0.576 0.173-0.856 0.282-0.258 0.101-0.514 0.214-0.755 0.351-0.305 0.172-0.589 0.378-0.887 0.559-0.21 0.126-0.375 0.284-0.462 0.517-0.027 0.073-0.080 0.137-0.128 0.215-0.18-0.128-0.228-0.305-0.233-0.496-0.007-0.27 0-0.538-0.004-0.807-0.014-0.725-0.027-1.451-0.049-2.176-0.011-0.327-0.023-0.327 0.302-0.444z"></path>
<path d="M12.308 20.869c0.058 0.282-0.071 0.496-0.239 0.696-0.027 0.032-0.059 0.067-0.097 0.080-0.523 0.18-0.972 0.498-1.439 0.781-0.271 0.164-0.537 0.336-0.799 0.513-0.489 0.332-0.966 0.677-1.459 1.002-0.232 0.152-0.494 0.257-0.732 0.402-0.201 0.121-0.39 0.261-0.576 0.402-0.075 0.056-0.136 0.098-0.23 0.047-0.091-0.049-0.1-0.117-0.060-0.203 0.004-0.010 0.013-0.021 0.011-0.030-0.082-0.401 0.201-0.634 0.419-0.893 0.829-0.988 1.661-1.973 2.49-2.961 0.121-0.145 0.275-0.264 0.332-0.464 0.020-0.070 0.139-0.137 0.223-0.157 0.28-0.067 0.499-0.225 0.733-0.382 0.195-0.132 0.455-0.17 0.69-0.236 0.027-0.007 0.104 0.063 0.111 0.105 0.038 0.254 0.18 0.454 0.313 0.665 0.101 0.157 0.186 0.325 0.271 0.492 0.021 0.039 0.025 0.093 0.038 0.141zM7.602 23.863c-0.063-0.098-0.136-0.153-0.223-0.058-0.078 0.084-0.118 0.183 0.018 0.274 0.067-0.072 0.133-0.141 0.205-0.216z"></path>
<path d="M26.064 25.046c-0.472-0.475-0.96-0.936-1.415-1.428-0.593-0.641-1.195-1.269-1.896-1.792-0.154-0.114-0.33-0.202-0.504-0.28-0.337-0.15-0.468-0.375-0.414-0.743 0.011-0.069 0.018-0.141 0.008-0.208-0.074-0.464 0.12-0.877 0.249-1.299 0.079-0.26 0.57-0.385 0.786-0.219 0.173 0.133 0.358 0.18 0.573 0.152 0.284-0.036 0.469 0.132 0.459 0.42-0.008 0.215 0.052 0.395 0.17 0.575 0.097 0.146 0.153 0.319 0.238 0.474 0.393 0.721 0.79 1.439 1.183 2.16 0.067 0.122 0.139 0.246 0.18 0.377 0.117 0.378 0.319 0.714 0.531 1.043 0.241 0.371 0.218 0.471-0.148 0.769z"></path>
</svg>
