<!-- Generated by IcoMoon.io -->
<svg version="1.1" xmlns="http://www.w3.org/2000/svg" width="512" height="512" viewBox="0 0 512 512">
<title>monsters-of-order</title>
<g id="icomoon-ignore">
</g>
<path d="M306.304 411.472c-9.584-2.080-12.528-0.096-12.8 8.432-0.192 7.952-4.928 13.168-10.144 18.192-1.984 1.984-4.176 3.696-7.12 6.352-0.48-2.368-1.424-4.176-1.136-5.68 1.808-7.952-0.656-15.536-1.888-23.12-0.656-4.176-3.312-6.448-7.392-6.72-3.792-0.384-6.16 1.808-7.392 5.312-0.576 1.712-1.52 3.312-2.176 4.544-1.616-2.848-3.216-5.488-4.656-7.952-1.616 2.944-3.040 5.024-3.792 7.296-0.656 2.176-0.848 4.544-0.944 6.912-0.192 3.888 0 7.856-0.384 11.744-0.096 1.136-1.136 2.848-2.176 3.216s-2.656-0.384-3.696-1.136c-5.776-3.696-7.408-9.28-7.776-15.92-0.384-7.2-4.176-13.168-9.024-19.136-3.888 4.64-4.352 10.144-5.12 15.344-0.48 3.312-1.984 5.488-5.216 5.488-1.328 0-3.808-1.712-3.888-2.752-0.48-8.816-4.656-16.288-8.64-23.776-3.504-6.72-5.776-13.552-6.912-21.12-2.464-15.536-16.128-14.784-25.040-8.72-2.080 1.424-4.080 2.944-6.352 4.544-1.808-2.080-4.448-5.024-7.008-8.144-6.080-7.2-12.144-14.4-18.016-21.792-0.656-0.848-0.48-2.752-0.384-4.080 0.384-3.312 1.808-6.72 1.52-9.952-1.040-9.76-2.752-19.52-4.176-29.28-0.192-1.232-0.192-2.56 0.192-3.6 2.368-6.448 3.312-12.88 3.408-19.808 0-6.448 1.808-12.88 2.656-19.328 1.136-8.336 1.232-16.864-5.488-22.832-4.080-3.6-9.872-5.216-14.8-7.952-9.2-5.216-19.344-3.040-29.12-3.888-11.76-1.040-23.152-3.040-33.472-9.664-9.2-5.872-16.784-13.168-23.696-21.312-1.424-1.616-2.464-3.696-3.408-5.584-5.328-10.416-11.76-20.464-15.648-31.456-3.696-10.512-5.776-21.792-6.816-32.976s-0.48-22.64 0.192-33.92c1.808-32.016 15.552-58.928 36.8-82.432 1.712-1.888 3.984-3.216 6.080-4.832 0.48 0.288 1.040 0.48 1.52 0.752-0.576 2.56-0.848 5.216-1.52 7.776-3.12 12.128-7.008 24.16-9.296 36.48-2.080 11.376-3.312 23.12 1.040 34.4 4.256 11.088 8.048 22.352 13.376 32.976 4.256 8.624 10.144 16.48 15.84 24.352 4.080 5.68 9.968 8.912 16.976 10.048 1.712 0.288 3.792 0.192 5.024 1.136 8.624 6.64 19.536 5.312 29.12 8.432 8.64 2.848 17.36 1.52 26.176 0.848 13.856-1.040 24.768-8.24 36.032-14.976 5.872-3.6 11.856-7.392 18.208-9.856 5.584-2.176 11.856-2.56 17.824-3.792 8.624-1.792 17.264-3.312 25.808-5.68 11.856-3.312 22.944-0.096 33.664 3.696 17.264 6.16 34.336 13.264 50.928 21.040 5.776 2.752 10.16 8.528 14.704 13.456 4.352 4.736 9.024 8.432 15.648 9.664 4.256 0.752 8.256 3.12 12.432 3.696 10.32 1.424 20.48-0.944 29.776-5.216 9.392-4.256 18.208-9.856 26.944-15.44 2.752-1.712 4.176-5.408 6.352-7.952 4.928-5.872 10.416-11.28 14.896-17.44 9.008-12.416 13.568-26.624 16.128-41.68 3.888-22.736 0.576-44.528-6.656-66.128-0.752-2.272-0.096-5.024-0.096-7.584 2.56-0.576 4.656-1.040 7.2-1.616 13.76 19.616 26.752 39.792 27.6 65.184 0.192 6.544 1.424 13.072 2.080 19.712 0.096 0.944 0.096 1.888-0.096 2.752-5.312 22.928-10.256 46.048-16.128 68.88-3.696 14.592-9.872 28.416-17.728 41.408-4.544 7.488-11.104 12.224-18.768 15.92-4.928 2.368-9.488 5.584-14.512 7.776-5.68 2.56-11.744 4.256-17.632 6.544-4.256 1.712-8.832 3.040-12.336 5.776-4.64 3.504-9.024 7.776-12.624 12.416-4.544 6.064-8.352 12.704-12.144 19.232-1.328 2.368-1.984 5.408-1.984 8.048 0 7.296 0.848 14.688 0.576 21.984-0.192 4.736-0.944 9.76-2.752 14.208-3.12 7.776-4.352 15.632-4.448 23.872 0 3.888-0.656 7.776-1.136 11.648-0.096 0.848-0.656 1.808-1.328 2.272-5.584 4.544-11.2 9.088-17.072 13.36-1.136 0.848-3.408 0.848-4.928 0.576-10.816-1.984-21.52-3.312-29.776 5.968-2.176 2.464-3.808 5.872-4.352 9.008-1.616 7.776-2.464 15.536-3.6 23.584zM222.752 317.392c-5.12-5.872-10.256-11.376-14.896-17.248-4.928-6.16-10.432-7.952-17.264-4.928-7.792 3.504-9.68 6.912-7.792 15.632 0.656 3.12-0.096 7.392 4.256 8.72 6.448 1.888 12.992 3.888 19.536 5.312 7.024 1.616 13.28-1.808 16.128-7.488zM262.112 335.872c-2.56 1.328-4.832 2.464-7.008 3.696-1.616 0.944-3.408 1.712-4.544 3.024-2.080 2.368-3.696 5.12-5.6 7.584-3.792 4.928-4.736 10.416-3.888 16.384 0.576 3.792 4.448 6.256 7.696 4.352 2.368-1.424 4.352-3.888 5.872-6.256 1.616-2.56 2.464-5.488 3.696-8.336 1.984 4.544 2.752 8.912 4.256 12.976 0.656 1.808 2.656 3.696 4.448 4.256 1.52 0.48 4.544-0.48 5.328-1.712 1.984-3.216 3.504-6.816 1.424-10.992-3.12-6.16-5.776-12.512-8.624-18.672-0.944-2.176-1.984-4.256-3.056-6.352zM287.152 321.76c1.52 3.888 5.312 6.544 10.624 7.952 7.104 1.808 13.664-0.656 20.192-2.272 10.816-2.656 11.296-15.344 5.776-20.56-5.216-4.928-13.376-4.736-18.592 0-5.408 5.024-11.392 9.472-18.016 14.88z"></path>
<path d="M213.648 431.936c-1.424 7.2 2.272 12.512 4.928 18 0.288 0.48 1.040 1.040 1.52 1.040 8.352-0.576 14.032 6.912 22.288 7.2 5.696 0.192 8.256-0.192 10.432-5.584 2.368-5.872 3.888-12.224 5.68-18.288 0.576-1.808 0.848-3.6 2.56-6.16 1.52 1.888 3.792 3.6 4.256 5.776 1.808 7.488 2.944 15.072 4.256 22.544 0.288 1.616 0 3.408 0 5.968 6.912-3.024 13.168-5.488 19.056-8.624 1.888-1.040 3.024-3.6 4.352-5.488 2.848-4.080 5.312-8.432 8.528-12.128 5.12-5.968 8.544-13.456 15.744-17.712 1.424-0.848 1.984-3.6 2.656-5.488 1.52-4.352 2.656-8.912 4.256-13.168 0.384-1.040 2.368-1.52 3.792-1.984 2.752-0.944 5.584-1.616 8.352-2.56 5.776-1.984 11.568-3.984 17.264-6.16 4.448-1.808 9.104-3.504 13.168-6.064 12.528-7.68 23.616-17.344 31.584-29.568 5.872-9.088 7.392-20.176 8.624-30.976 0.384-3.216 1.232-6.352 1.984-10.512 1.984 1.424 3.504 1.888 4.080 2.944 2.752 5.216 6.832 9.856 6.176 16.384-0.944 9.28-1.616 18.576-2.752 27.856-0.288 2.080-1.52 4.176-2.56 6.064-4.544 8.336-8.528 17.248-14.224 24.816-5.312 7.104-12.624 12.704-18.96 18.944-2.368 2.368-4.544 5.024-6.928 7.488-3.888 4.080-7.68 8.24-11.856 12.032-3.984 3.6-8.256 7.104-12.896 9.952-4.352 2.656-9.2 4.544-13.936 6.544-10.624 4.448-16.88 17.344-13.568 28.336 1.424 4.928 0.096 8.72-3.888 11.936-7.776 6.448-15.264 13.168-23.040 19.52-4.544 3.792-9.68 5.776-16.032 5.408-9.376-0.576-18.96-0.096-28.368 0-1.424 0-2.944-0.096-4.176 0.384-9.024 3.312-16.688 0.656-24.288-4.448-2.752-1.888-6.64-1.984-9.568-3.696-4.928-2.848-9.472-6.544-14.416-9.472-1.888-1.136-4.448-1.424-6.656-1.888-7.952-1.712-13.76-4.64-14.128-13.168-0.48-11.84-6.16-21.792-10.432-32.4-1.888-4.64-5.408-6.16-9.2-7.952-12.624-6.064-25.424-11.936-35.648-21.888-3.504-3.408-6.656-7.2-9.2-11.376-9.104-15.248-18.496-30.512-21.328-48.416-1.232-8.048-2.272-16.208-2.56-24.352-0.576-11.936-0.48-23.968-0.576-35.904 0-2.176-0.096-4.544 0.656-6.544 3.696-9.28 7.68-18.48 11.856-28.24 3.888 2.944 4.544 5.68 4.352 9.952-0.576 10.048-0.096 20.176 0.576 30.224 0.752 12.512 3.888 24.64 10.624 35.344 5.216 8.336 11.104 16.48 17.632 23.776 8.16 8.912 17.168 17.056 26.080 25.2 4.928 4.544 10.624 7.104 17.728 4.736 3.216-1.040 5.968 0.096 7.68 3.504 2.56 5.024 5.68 9.664 8.256 14.592 3.504 6.816 5.776 14.112 5.216 21.984-0.096 1.712-0.384 3.6 0.096 5.216s1.712 3.12 2.56 4.64c1.040-1.136 2.384-2.176 3.12-3.408 2.272-3.216 4.928-4.928 9.104-4.64z"></path>
</svg>
