<!-- Generated by IcoMoon.io -->
<svg version="1.1" xmlns="http://www.w3.org/2000/svg" width="512" height="512" viewBox="0 0 512 512">
<title>monsters-of-order</title>
<g id="icomoon-ignore">
</g>
<path d="M0 250.48c1.264-0.96 2.4-2.544 3.776-2.816 4.368-0.848 8.128-2.72 11.952-4.992 6.976-4.16 14.368-7.6 21.504-11.488 2.864-1.552 5.824-3.136 8.24-5.264 6.016-5.328 12.928-9.312 19.568-13.712 4.736-3.152 9.408-6.48 13.824-10.064 2.976-2.416 5.536-5.36 8.192-8.144 2.48-2.608 3.872-2.704 6.176-0.016 1.2 1.376 2.192 2.96 3.424 4.352 2.080 2.4 4.4 2.4 5.904-0.368 3.088-5.712 4.736-11.84 3.872-18.4-0.368-2.832-2.24-4.352-5.088-4.144-2.336 0.16-4.672 0.576-6.928 1.152-3.888 0.96-6.544-0.112-8.192-3.824-4.096-9.2-7.44-18.608-8.496-28.704-0.624-6.096-0.816-12.224-1.344-18.304-0.752-8.576-4.432-16.288-7.504-24.16-0.688-1.712-1.264-3.504-2.176-5.088-1.6-2.816-1.296-5.536-0.32-8.432 0.48-1.392 1.168-2 2.512-1.856 1.072 0.128 2.272 0.208 3.136 0.784 4.624 3.072 9.824 4.048 15.2 4.768 3.152 0.416 6.288 1.152 9.296 2.192 6.528 2.336 13.232 3.52 20.144 4.112 6.688 0.592 13.28 1.968 19.904 2.96 0.992 0.144 2.016 0.208 2.992 0.064 9.52-1.424 18.72 0.144 27.808 2.752 5.504 1.568 6.912 5.648 3.776 10.416-1.104 1.68-2.544 3.136-3.728 4.736-2.672 3.664-1.504 7.024 2.768 8.416 6.192 2.016 6.48 2.544 2.768 7.936-4.144 6-8.4 11.952-12.832 17.744-3.296 4.32-6.128 8.784-7.648 14.032-1.872 6.576-3.808 13.136-5.696 19.712-0.112 0.4-0.144 0.832-0.144 1.232 0.352 15.072-0.304 30.24 3.424 45.072 0.672 2.656 0.672 5.488 0.736 8.224 0.080 3.936 0.016 7.888-0.192 11.84-0.112 1.792-0.528 3.68-1.296 5.264-0.416 0.848-1.872 1.536-2.912 1.648-1.472 0.144-1.968 0.704-2.384 2.032-0.784 2.544-1.68 5.056-2.72 7.488-3.616 8.288-7.328 16.544-10.944 24.816-0.272 0.624-0.304 1.488-0.144 2.176 0.88 4.256 1.904 8.496 2.784 12.768 0.592 2.752 1.968 4.976 4.24 6.608 2.496 1.792 3.872 4.256 4.8 7.184 1.6 5.104 2.96 10.384 5.36 15.136 1.792 3.568 4.944 6.48 7.664 9.488 0.544 0.608 2 0.384 3.040 0.544 1.744 0.304 3.52 0.608 5.264 0.944 1.296 0.256 2.592 0.8 3.872 0.8 2.4 0.016 3.968 1.056 4.848 3.248 0.4 1.008 0.896 2 1.424 2.928 1.472 2.544 1.136 3.424-1.744 4.32-4.192 1.328-4.512 1.664-4.288 6.048 0.112 2.336 0.304 4.688 0.848 6.928s1.664 4.352 2.592 6.688c-1.072 0.368-2.144 0.464-2.912 1.024-0.688 0.496-1.328 1.488-1.376 2.288-0.016 0.48 1.088 1.328 1.792 1.472 2.768 0.608 4.48 2.016 4.88 4.368 0.368 2.128-0.816 4.624-3.424 5.568-7.504 2.688-15.040 5.184-22.656 7.504-4.8 1.488-9.696 2.656-14.624 3.76-2.672 0.608-5.44 0.8-8.176 1.136-2 0.256-4 0.368-6 0.736-4.944 0.848-9.824 2.16-14.784 2.656-7.92 0.8-15.872 1.216-23.824 1.552-4.144 0.16-6.176-2.592-5.472-6.704 0.064-0.336 0.112-0.672 0.224-0.992 2.8-7.616 5.584-15.248 8.4-22.848 5.232-14.096 9.68-28.384 11.28-43.456 0.368-3.36 1.664-6.64 2.384-9.968 0.464-2.128 1.168-4.368 0.864-6.4-0.576-3.664 1.168-5.424 5.28-6.064 1.488-0.224 3.024-0.192 4.48-0.432 2.928-0.528 4.688-2.352 5.424-5.232 1.712-6.368 1.68-12.4-2.72-17.856-1.408-1.744-2.368-3.872-3.632-5.728-1.408-2.080-2.512-2.192-3.84-0.208-2.224 3.344-4.368 6.752-6.224 10.304-0.992 1.856-2 2.384-3.744 1.344-6-3.504-12.368-6.176-18.128-10.256-9.904-7.008-20.352-13.344-30.832-19.456-11.008-6.432-22.832-10.88-35.6-12.48-3.424-0.416-6.112-2.176-8.032-5.040 0-0.16 0-0.32 0-0.48zM138.208 141.472c0.592-4.912-0.896-9.344-3.184-13.52-1.616-2.976-4.96-3.968-8.176-3.136-1.168 0.32-2.72 0.064-3.824-0.464-3.168-1.488-3.968-1.328-5.808 1.76-0.464 0.784-0.96 1.632-1.68 2.176-2.816 2.144-4.112 5.264-5.28 8.384-3.2 8.512-1.856 13.76 5.056 19.664 4.112 3.504 8.832 5.264 14.192 4.032 2.24-0.528 4.32-1.824 6.48-2.752 3.84-1.664 4.704-3.456 3.808-7.552-0.64-2.832-1.072-5.712-1.6-8.576zM117.664 234.032c-0.080 0-0.16-0.016-0.224-0.016 0-0.496 0-1.008 0-1.504-0.048-3.424-4.688-9.712-7.968-10.736-0.528-0.16-1.168-0.144-1.712-0.016-6.88 1.472-13.376 3.872-18.768 8.576-0.944 0.848-1.936 2.064-2.144 3.248-0.576 3.632-1.056 7.296-1.12 10.976-0.048 4.496 2.672 7.744 7.088 8.416 3.968 0.592 8 0.96 12.016 0.944 6.016-0.048 10.544-3.984 11.6-9.888 0.592-3.344 0.816-6.704 1.216-10.016zM126.496 375.52c5.008 0.016 8.4-1.392 8.944-4.784 0.816-5.168 1.136-10.464 0.992-15.68-0.112-3.488-1.968-4.144-5.456-3.152-1.616 0.464-3.392 0.496-5.056 0.736-2.080 0.304-4.432 0.048-6.192 0.992-4.704 2.432-6.656 7.488-5.28 12.336 1.808 6.48 5.696 9.536 12.080 9.552zM92.864 403.376c-1.552-1.008-2.512-2.112-3.28-2-0.8 0.112-1.936 1.424-1.968 2.224 0 0.688 1.344 1.856 2.192 1.92 0.752 0.064 1.6-1.072 3.040-2.144zM65.136 242.384c-0.688-1.68-1.232-2.976-1.792-4.288-0.592 0.608-1.536 1.136-1.696 1.856-0.432 1.824 0.704 2.496 3.488 2.432z"></path>
<path d="M267.168 15.2c5.2 3.456 8.944 8.224 12.576 13.2 11.904 16.256 23.952 32.384 35.904 48.592 2.368 3.232 4.624 6.544 7.056 10.048-1.296 0.272-2.24 0.496-3.216 0.672-3.184 0.592-5.968 1.712-8.384 4.144-1.76 1.744-4.208 3.104-6.608 3.84-4.592 1.408-7.488 4.24-9.104 8.624-0.384 1.104-0.672 2.4-1.44 3.152-2.624 2.608-2.624 5.68-2.464 9.072 0.592 10.976 0.816 21.968 1.424 32.928 0.304 5.52 1.12 11.008 1.648 16.496 0.32 3.344 0.784 6.704 0.736 10.032-0.176 12.224 2 24.224 3.36 36.304 0.192 1.712 0.944 3.408 1.008 5.104 0.048 1.12-0.4 2.48-1.12 3.312-1.088 1.232-2.544 2.192-3.952 3.104-8.8 5.6-16.192 12.72-22.72 20.832-2.928 3.664-6.112 7.136-9.312 10.576-0.592 0.656-2.064 1.328-2.608 1.024-1.184-0.656-2.72-1.824-2.88-2.96-0.224-1.712-1.104-2.304-2.224-3.264-1.904-1.568-3.552-3.456-5.168-5.328-1.376-1.616-2.352-3.68-3.936-5.056-4.72-4.144-9.696-8-14.464-12.080-1.824-1.584-3.616-3.296-5.040-5.216-2.512-3.392-5.856-5.392-9.632-6.976-1.056-0.432-1.808-1.552-2.688-2.352 0.736-0.704 1.376-1.696 2.24-2.096 3.104-1.392 4-4.144 4.496-7.088 1.92-11.328 3.728-22.624 3.984-34.192 0.368-16.432 1.424-32.848 2-49.28 0.192-5.68-0.208-11.392-0.336-17.12-0.064-3.136-0.8-4.096-3.84-4.512-3.072-0.432-6.176-0.688-9.264-0.992-0.432-0.048-0.992-0.176-1.232 0.048-2.656 2.224-4.464 0.272-6.64-1.056-1.488-0.912-3.456-1.104-5.232-1.488-1.12-0.256-2.272-0.32-3.664-1.104 0.736-0.672 1.44-1.376 2.224-2 2.752-2.176 5.808-4.048 8.24-6.544 9.056-9.376 19.488-17.488 26.368-28.928 3.040-5.104 6.816-9.76 10.208-14.656 4.736-6.848 9.952-13.28 16.016-19.024 2.56-2.4 4.768-5.168 7.136-7.76 0.208-0.048 0.384-0.048 0.544-0.048zM271.744 200.336c-1.024-3.152-1.824-6.208-3.072-9.088-0.544-1.28-1.808-2.448-3.040-3.2-2.224-1.296-4.64-2.336-7.040-3.296-3.872-1.552-8.768 0.208-11.056 3.664-4.624 6.976-5.2 14.048-0.32 21.040 1.2 1.712 3.184 3.616 5.088 4 4.416 0.912 8.992 0.848 13.296-0.992 0.944-0.4 2.192-1.024 2.512-1.856 1.344-3.296 2.4-6.72 3.616-10.288zM264.176 97.296c3.344-0.176 6.048-1.68 7.872-4.352 2.624-3.776 4.944-7.776 7.376-11.696 0.784-1.232 0.736-2.384-0.544-3.28-3.2-2.24-6.384-4.528-9.632-6.72-1.6-1.072-3.488-1.76-4.896-2.992-1.632-1.456-3.392-2.144-5.264-1.168-1.92 1.008-0.784 2.784-0.48 4.256 0.784 3.76 0.224 4.72-3.408 5.984-2.896 1.008-3.952 2.4-3.616 5.456 0.432 3.904 1.712 7.536 4.464 10.48 2.176 2.352 4.8 3.872 8.128 4zM309.264 80.976c0.4-0.272 0.8-0.528 1.168-0.8-0.944-1.376-1.872-2.704-2.816-4.080-0.352 0.224-0.704 0.48-1.056 0.704 0.88 1.376 1.792 2.768 2.688 4.16z"></path>
<path d="M291.744 410.672c3.232-5.088 4.832-10.384 4.080-16.208-0.192-1.456-1.168-2.816-1.76-4.192-1.392 0.896-3.28 1.536-4.096 2.816-1.008 1.6-1.376 3.712-1.584 5.68-0.192 1.856-0.752 3.184-2.416 4.096s-2.592-0.176-3.792-0.96c-3.008-2-6.112-3.824-9.2-5.712-2.752-1.68-5.52-1.552-8.384-0.144-4.688 2.272-5.696 1.696-6.064-3.44-0.144-2.080 0.064-4.192-0.192-6.288-0.096-0.944-0.912-1.824-1.392-2.72-0.816 0.608-1.68 1.12-2.4 1.808-1.296 1.168-2.592 2.384-3.76 3.68-0.496 0.576-0.896 1.376-0.992 2.112-0.128 0.912 0.144 1.824 0.144 2.752 0.016 4.176-1.536 6.384-5.536 7.68-1.744 0.576-3.568 0.912-5.36 1.392-3.632 1.008-7.296 1.952-10.88 3.088-4.8 1.536-7.824-0.064-9.12-4.944-0.4-1.536-0.656-3.152-1.28-4.576-0.336-0.8-1.328-1.328-2-1.968-0.544 0.752-1.408 1.424-1.584 2.24-0.784 3.936-0.72 7.744 0.848 11.584 1.024 2.512 1.408 5.36 1.696 8.080 0.272 2.64-1.68 4.688-4.112 5.216-4.096 0.848-8.144 1.872-12.192 2.832-0.992 0.224-1.92 0.624-2.912 0.752-3.424 0.432-5.312-1.12-5.008-4.496 0.704-8.304-1.488-16.32-2.176-24.464-0.48-5.888 0.064-11.856 0.192-17.776 0.112-5.2 0.272-10.368 0.336-15.568 0.016-1.504-0.192-3.024-0.224-4.528-0.432-14.256-15.696-20.752-25.536-18.832-0.784 0.144-1.712 0.48-2.192 1.056-1.376 1.552-2.784 2.128-4.64 0.992-1.92-1.168-2.624-2.88-2.416-5.152 0.144-1.44 0.112-2.976-0.208-4.368-0.16-0.784-1.12-1.344-1.696-2.032-1.216-1.504-2.832-2.848-3.552-4.576-1.616-3.856-2.608-7.968-4.224-11.84-1.056-2.496-2.56-4.848-4.16-7.072-1.072-1.504-1.392-2.8-0.4-4.368 0.080-0.144 0.144-0.304 0.256-0.432 10.704-14.768 13.76-32.432 17.984-49.504 2.176-8.72 1.632-17.872-0.384-26.944-1.92-8.544-3.968-17.152-3.152-26.096 2-21.632 10.592-40.512 23.952-57.376 1.552-1.952 3.456-3.68 5.36-5.312 6.512-5.68 13.104-11.28 19.664-16.896 0.88-0.752 1.712-1.696 2.768-2.176s2.56-0.912 3.456-0.48c0.848 0.416 1.632 1.92 1.68 2.976 0.192 3.6 0.208 7.232 0.016 10.832-0.848 16.16-1.808 32.336-2.624 48.512-0.368 7.696-0.576 15.424-0.736 23.152-0.048 2.128-0.592 3.792-1.952 5.488-3.008 3.664-4 7.936-2.416 12.512 0.368 1.008 1.488 1.808 2.416 2.512 1.232 0.96 2.784 1.552 3.904 2.592 10.88 10.256 21.696 20.576 32.512 30.88 1.968 1.856 3.824 3.776 5.76 5.648 0.96 0.944 1.824 2.080 2.976 2.704 3.040 1.696 5.92 3.44 5.84 6.88 2.192 0.208 3.968 0.496 5.744 0.48 0.688 0 1.536-0.544 2.016-1.088 2.352-2.608 4.592-5.296 6.912-7.968 2.8 2.496 2.896 2.48 5.264-0.368 5.472-6.592 10.96-13.168 16.336-19.824 0.88-1.104 1.168-2.672 1.76-3.984s0.992-2.944 1.968-3.888c3.888-3.712 7.936-7.232 11.984-10.768 2.992-2.592 3.184-3.968 0.96-7.28-0.784-1.168-1.328-2.512-1.744-3.84-3.824-12.192-5.376-24.72-5.488-37.44-0.096-7.136-0.656-14.256-0.848-21.392-0.112-3.28-0.096-6.544 0.192-9.808 0.688-8.688-0.256-17.264-1.424-25.84-0.576-4.112-0.576-4.112 3.104-5.904 0.688-0.336 1.376-0.656 2.192-1.056 1.168 2.24 2.448 2.4 4.464 0.688 2.4-2.080 4.224-1.344 6.512 0.848 2.752 2.656 5.792 5.104 9.056 7.056 5.040 2.992 8.896 7.008 12.272 11.712 7.136 9.968 12.4 20.944 16.544 32.384 2.752 7.6 3.152 15.744 2.064 23.856-0.176 1.216 0.048 2.496 0.048 3.76-0.016 2.080-0.016 4.176-0.112 6.256-0.112 2.144-0.496 4.288-0.528 6.432-0.048 10.576-0.064 21.152 0.048 31.728 0.016 1.504 0.784 2.992 1.072 4.512 0.32 1.616 0.944 3.312 0.672 4.848-0.784 4.32-0.528 8.576 0.752 12.704 2.544 8.176 4.88 16.368 9.36 23.808 2.4 3.952 3.184 8.464 3.152 13.056-0.016 4.528 0.112 8.992 1.92 13.344 0.592 1.392-0.224 3.792-1.088 5.376-2.192 4.032-5.056 7.744-7.184 11.808-2.192 4.208-4.192 8.608-5.696 13.088-0.8 2.4-0.624 5.248-0.48 7.872 0.144 2.48 1.92 3.104 3.52 1.168 2.896-3.44 5.888-6.976 7.968-10.896 2.4-4.496 4.464-8.976 9.056-11.744 0.848-0.496 1.28-2.080 1.472-3.2 1.712-10.672 0.368-21.248-1.168-31.808-0.272-1.904-0.368-3.856-0.848-5.728-0.496-2-1.264-3.952-2.080-5.84-1.456-3.28-3.216-6.448-4.544-9.792-1.952-4.976-3.68-10.048-5.424-15.136-0.464-1.392-0.736-2.944-0.608-4.4 0.688-8.096 1.856-16.176 2.288-24.288 1.184-22.368 2.496-44.768-3.136-66.832-2-7.824-6.016-14.688-10.368-21.376-2.48-3.776-4.912-7.648-7.76-11.152-2.352-2.896-5.248-5.36-7.984-7.968-0.848-0.8-2.192-1.232-2.72-2.176-0.624-1.2-1.056-2.832-0.736-4.096 0.144-0.592 2.288-1.136 3.392-0.944 5.504 0.944 9.424-2.128 9.408-7.824 0-1.296-0.8-2.944-1.76-3.824-2.096-1.92-4.592-3.36-6.864-5.104-2-1.536-1.856-2.304 0.368-3.552 1.168-0.656 2.272-1.424 3.456-2.080 0.656-0.352 1.376-0.752 2.080-0.816 8.112-0.848 16.224-1.536 24.304-2.448 3.312-0.368 6.656-0.944 9.856-1.92 15.184-4.56 30.32-9.28 45.472-13.872 4.8-1.44 6.864 0.592 5.376 5.424-0.848 2.752-2.224 5.328-3.36 7.984-0.416 1.008-0.896 1.968-1.28 3.008-4.24 11.104-8.48 22.208-12.704 33.312-4.256 11.12-8.56 22.256-9.376 34.304-0.112 1.664 0.192 3.344 0.272 4.992 0.096 1.792-0.64 2.496-2.448 1.92-2.624-0.848-3.744-2.768-4.416-5.312-0.528-1.952-1.264-4.032-2.48-5.6-1.616-2.080-4.672-2.432-6.64-1.264-2.336 1.376-2.608 3.568-1.92 5.936 1.168 4 2.768 7.936 3.584 12.016 1.072 5.328 1.664 10.768 2.224 16.176 0.176 1.504-0.816 3.136-0.736 4.672 0.224 3.824 0.688 7.648 1.264 11.44 0.432 2.912 1.28 5.728 1.92 8.576 0.464 2.080 1.28 2.448 2.88 1.056 1.968-1.696 3.808-3.568 5.584-5.424 0.464-0.496 0.64-1.328 0.816-2.032 0.304-1.136 0.304-2.4 0.8-3.424 1.392-2.832 1.664-5.744 1.392-8.816-0.112-1.12 0.192-2.272 0.384-4.32 3.184 2.624 5.84 4.688 8.368 6.976 3.792 3.408 7.52 6.944 11.264 10.432 0.064 0.064 0.112 0.128 0.208 0.144 4.576 0.816 7.232 5.44 11.92 6.096 0.816 0.112 1.856 0.704 2.272 1.376 1.6 2.544 4.096 3.6 6.704 4.592 7.184 2.784 14.464 5.424 21.44 8.576 6.080 2.752 11.888 6.224 17.824 9.296 4.624 2.384 9.312 4.624 13.968 6.976 1.584 0.8 3.088 1.696 4.576 2.656 2.064 1.296 3.504 2.992 2.72 5.632-0.816 2.656-3.68 4.368-6.288 4.576-2.416 0.192-5.056 0.48-7.168 1.6-12.24 6.464-24.384 13.12-36.464 19.856-3.52 1.952-6.72 4.416-10.080 6.608-1.472 0.96-2.976 1.904-4.512 2.72-5.856 3.232-11.712 6.48-17.648 9.568-1.664 0.88-3.568 1.264-5.328 1.968-1.824 0.752-3.584 1.68-5.44 2.4-1.296 0.528-3.2 1.584-3.936 1.072-1.328-0.912-2.272-2.704-2.832-4.32-0.528-1.536-0.144-3.36-0.576-4.944-0.96-3.84-4.528-6.608-8.464-6.72-0.8-0.016-2.080 0.32-2.384 0.88-2.032 3.936-3.84 7.808-2.656 12.608 0.944 3.776 1.008 7.68 0.080 11.696-0.688 3.088-0.208 6.48-0.016 9.744 0.32 5.264 0.848 10.512 1.168 15.792 0.048 0.992-0.528 2.080-0.992 3.024-1.856 3.632-0.752 6.048 3.2 6.8 1.072 0.208 2.176 0.32 3.232 0.496 2.496 0.432 4.416-0.144 5.584-2.64 0.528-1.104 1.504-2 2.368-2.928 1.456-1.552 3.184-2.144 5.232-1.312 2.128 0.832 3.456 2.24 3.664 4.656 0.624 7.52 1.296 15.056 2 22.56 0.144 1.568 0.208 3.232 0.736 4.688 2.192 6.048 2.288 12.336 2.4 18.64 0.192 9.776 0.624 19.456 4.4 28.656 0.192 0.464 0.464 1.024 0.368 1.44-0.32 1.056-0.576 2.48-1.328 2.896-0.704 0.384-2.512 0.080-3.024-0.576-1.968-2.448-3.952-2.832-7.024-2.064-2.176 0.576-4.736-0.496-7.136-0.8-3.488-0.432-6.976-0.864-10.464-1.264-0.416-0.048-0.896 0.096-1.232-0.080-6.112-3.136-12.48-1.376-18.784-1.024-1.232 0.064-2.48-0.112-3.712-0.272-2.944-0.368-5.888-0.912-8.832-1.184-2.48-0.256-5.008-0.368-7.504-0.32-2.464 0.064-4.912 0.464-7.392 0.608-1.28 0.064-2.8 0.272-3.84-0.272-2.016-1.008-3.744-0.88-5.76-0.112-1.68 0.656-3.552 1.008-5.36 1.072-0.896 0.048-2.144-0.688-2.56-1.44-0.336-0.608 0.080-2.032 0.656-2.656 2.032-2.192 2.88-4.832 3.36-7.712 0.4-2.48 0.912-4.944 1.584-7.376 1.424-5.296-0.784-9.76-5.92-11.712-4.64-1.792-4.736-1.968-3.296-6.752 1.232-4.080 2.304-8.176 3.584-12.224 0.912-2.928 3.088-3.968 6.112-4.72 4.080-1.008 7.888-3.12 11.712-4.944 0.416-0.192 0.464-1.808 0.208-2.608-0.752-2.384-1.664-4.704-2.688-6.96-0.368-0.8-1.264-1.376-1.968-1.952-0.208-0.16-0.64-0.112-0.992-0.112-13.776-0.624-13.392 0.384-17.984 10.352-4.048 8.8-7.392 17.776-7.888 27.632-0.368 6.816-1.072 13.648-1.616 20.448-0.048 0.496 0.048 1.104-0.192 1.488-3.088 5.264-0.864 10.608-0.256 15.888 0.464 4.048 0.624 4.080-3.008 6.128-0.88 0.48-1.712 1.056-2.56 1.6-1.808 1.216-3.696 1.296-5.376-0.048-5.36-4.288-10.656-8.672-15.968-13.024-0.336-0.224-0.608-0.672-1.072-1.216zM350.368 289.424c0.528-3.76-2.192-6.32-4.912-9.088-2.112-2.176-4.4-1.104-6.576-1.008-2.752 0.112-5.568 0.336-8.208 1.056-3.28 0.864-6.816 1.68-9.52 3.552-3.584 2.512-7.392 4.16-11.488 5.392-2.464 0.736-5.152 1.392-7.168 2.864-2.976 2.192-5.968 2.704-9.456 2.032-1.616-0.32-3.36-0.432-4.96-0.112-1.152 0.208-2.16 1.184-3.248 1.824 0.816 0.88 1.504 1.92 2.496 2.592 2.752 1.872 5.856 3.28 8.4 5.376 7.712 6.4 16.448 7.12 25.712 5.152 5.648-1.184 11.216-2.768 16.848-4.080 7.984-1.808 11.984-6.752 12.080-15.52zM235.984 297.888c-0.112-0.432-0.224-0.848-0.368-1.296-1.616-0.544-3.2-1.12-4.832-1.6-7.92-2.176-15.872-4.208-22.608-9.376-0.992-0.752-2.592-0.784-3.904-1.024-0.736-0.144-1.552 0.064-2.224-0.16-4.624-1.696-9.312-3.28-13.792-5.264-5.376-2.4-9.984-0.368-11.264 5.328-0.48 2.128-0.992 4.256-1.216 6.432-0.112 0.992 0.112 2.224 0.624 3.024 1.392 2.080 2.976 4.048 4.592 5.984 4.624 5.488 10.8 7.44 17.712 7.296 5.264-0.112 10.544-0.528 15.792-0.752 0.592-0.016 1.264-0.048 1.712 0.208 2.88 1.68 5.328 0.464 7.76-1.008 3.088-1.872 6.128-3.76 9.184-5.68 0.976-0.656 1.872-1.392 2.816-2.080zM429.632 248.256c0.144-6.928-5.312-14.608-11.072-16.48-0.576-0.192-1.504-0.224-1.856 0.112-1.76 1.712-3.776 1.856-6.048 1.488-0.848-0.112-1.872 0.176-2.656 0.576-3.312 1.696-5.92 4.144-7.136 7.744-1.504 4.528-1.936 9.184-1.024 13.872 0.432 2.288 1.488 4.192 3.68 5.392 3.52 1.92 6.976 4 10.432 6.048 1.712 1.008 2.896 0.592 3.952-1.12 0.704-1.168 1.696-2.24 2.8-3.040 5.376-3.824 8.336-9.008 8.928-14.576zM241.952 348.88c-0.016 0.496-0.064 1.008-0.080 1.504-0.16 2.992 0.192 3.28 3.088 2.4 2.416-0.704 4.832-1.424 7.232-2.192 5.056-1.664 10.064-2.336 15.264-0.464 2.768 1.008 4.672-0.96 4.144-4.048-0.176-1.072-0.688-2.080-0.944-3.136-0.544-2.272-0.992-4.528-1.504-6.8-1.168-5.152-2.176-10.32-3.584-15.376-0.368-1.296-1.808-2.624-3.072-3.248-1.6-0.752-3.552-0.752-5.328-1.168-2.448-0.528-4.368 0.336-5.552 2.464-5.12 9.376-10.112 18.832-9.632 30.032zM372.464 377.424c0.048 2.704-0.464 5.568 1.904 7.584 3.616 3.088 10.592 3.456 15.008 0.992 4.624-2.608 7.504-8.032 6.832-13.024-0.304-2.24-0.688-4.464-1.12-6.704-0.592-3.024-1.856-3.776-5.008-4.176-1.856-0.224-3.936-0.944-5.392-2.128-2.768-2.24-6.8-3.104-10.256-1.552-2.832 1.28-5.696 5.776-5.424 8.768 0.048 0.784 0.352 1.744 0.896 2.24 2.384 2.24 2.896 5.008 2.544 8zM388.896 96.752c-2.432 0.224-4.112 0.432-5.776 0.496-3.2 0.144-5.68 1.6-7.968 3.792-6.080 5.888-4.464 17.712 3.024 21.92 1.216 0.688 2.88 0.992 4.256 0.8 6.832-0.912 11.584-5.968 12.72-12.72 0.864-5.088 0.048-9.52-3.968-12.992-0.8-0.688-1.92-1.072-2.304-1.296zM492.944 249.744c0.816-1.216 1.872-2.112 2.032-3.168 0.176-1.008-0.416-2.272-1.008-3.184-0.256-0.384-2.032-0.32-2.080-0.144-0.384 1.408-0.672 2.88-0.736 4.32-0.016 0.464 0.736 0.944 1.792 2.176zM207.632 416.352c1.6-1.376 2.352-5.2 1.392-6.656-0.752-1.12-1.584-1.12-2.288 0.080-0.992 1.696-0.592 4.768 0.912 6.576zM355.68 261.92c1.184-3.2 0.704-4.448-2-5.456 0.688 1.856 1.264 3.488 2 5.456z"></path>
<path d="M205.36 442.736c4.736-2.080 9.376-4.4 14.256-6.144 3.104-1.12 5.232-2.8 5.696-6 0.528-3.632 0.736-7.328 0.992-11.008 0.208-3.104 0.752-3.792 3.92-3.888 2.736-0.048 4.64-1.552 6.608-3.2 1.296-1.088 2.832-2.080 4.432-2.592 3.984-1.28 8.032-2.624 12.144-3.232 4.944-0.736 10.144-1.552 14.992-0.816 4.304 0.656 8.4 3.2 12.384 5.296 2.768 1.472 3.984 4.416 4.048 7.456 0.112 6.608 3.168 11.84 7.088 16.8 2.464 3.088 5.152 5.648 9.184 6.656 1.12 0.304 2.288 1.664 2.848 2.816 0.432 0.864 0.304 2.56-0.32 3.184-0.576 0.592-2.272 0.688-3.152 0.272-3.168-1.392-6.224-1.168-8.88 0.736-3.456 2.448-6.928 5.056-9.792 8.176-4.256 4.624-7.92 9.792-11.968 14.624-4.352 5.216-6.080 11.536-7.52 17.92-1.008 4.464-4.592 5.632-7.872 6.88-2.064 0.8-3.872-1.216-4.912-3.152-1.792-3.312-3.744-6.592-5.152-10.064-5.472-13.504-15.424-22.976-27.152-30.896-2.496-1.68-5.264-2.976-7.744-4.688-1.648-1.12-3.008-2.688-4.48-4.048 0.080-0.368 0.208-0.704 0.32-1.056zM269.712 435.168c0.048-5.6-3.728-11.328-8.896-13.52-5.056-2.128-10.784 0.368-12.384 5.584-0.88 2.864-1.424 5.888-1.696 8.864-0.432 4.464 6.112 11.584 10.672 11.872 0.592 0.048 1.168 0.016 1.76-0.080 5.056-0.96 10.48-7.52 10.544-12.72zM257.44 481.424c-2.112 1.168-3.984 1.68-3.664 4.080 0.064 0.432 0.416 0.816 0.64 1.216 0.432-0.304 1.024-0.528 1.232-0.912 0.608-1.216 1.056-2.512 1.792-4.368z"></path>
</svg>
