<!-- Generated by IcoMoon.io -->
<svg version="1.1" xmlns="http://www.w3.org/2000/svg" width="512" height="512" viewBox="0 0 512 512">
<title>monsters-of-order</title>
<g id="icomoon-ignore">
</g>
<path d="M290.224 22.4c2.112 1.216 2.512 3.36 2.752 5.456 1.776 15.856 2.576 31.728 0.704 47.664-0.384 3.2-0.56 6.432-0.624 9.632-0.192 7.536-0.8 15.008-2.528 22.4-0.512 2.176-0.4 4.512-0.4 6.784-0.016 1.92 1.072 2.8 2.928 2.112 1.52-0.576 2.528-0.224 3.824 0.752 1.312 1.024 3.008 1.696 4.64 2.128 5.040 1.392 9.824 3.2 13.92 6.592 0.928 0.768 2.208 1.216 3.408 1.488 8.96 2.048 17.888 4.096 26.912 5.968 4.736 0.976 6.176-0.528 5.68-5.424-0.608-5.952-1.616-11.776-3.872-17.376-1.84-4.576-3.312-9.296-5.040-13.92-0.576-1.6-1.536-3.072-2.256-4.592-0.288-0.592-0.4-1.248-0.592-1.904 6.512-0.912 7.712-0.192 9.36 3.744 0.384 0.864 1.728 1.376 2.704 1.904 1.2 0.64 2.848 0.848 3.68 1.776 3.376 3.776 6.688 7.696 9.696 11.776 3.088 4.16 5.536 8.816 8.8 12.784 2.224 2.736 5.088 5.232 8.176 6.864 8.288 4.448 15.936 9.712 22.912 16.032 4.576 4.16 9.488 7.984 14.272 11.952 2.624 2.208 4.736 4.768 5.648 8.208 0.576 2.224 0.432 4.064-1.376 5.776-2.128 2-1.664 3.728 1.056 4.832 1.088 0.432 2.24 1.088 3.344 1.040 1.264-0.048 2.896-0.352 3.68-1.2 1.296-1.376 2.624-2.176 4.464-2.176 1.712 0 3.44-0.080 5.152 0.112 2.416 0.288 3.696 2.016 4.928 3.952 0.8 1.248 1.968 2.496 3.28 3.040 4.128 1.728 8.384 3.152 11.28 6.896 0.336 0.4 0.816 0.736 1.312 1.008 8.016 4.736 15.984 9.616 24.112 14.192 3.28 1.84 6.288 3.6 8.128 7.12 1.664 3.152 4.8 4.352 8.272 4.72 3.952 0.4 4.608 0.912 4.64 4.944 0.016 1.92-0.64 3.872-1.008 5.808-1.632-0.608-3.408-0.976-4.896-1.84-4-2.288-8.288-3.024-12.848-3.408-8.976-0.736-17.952-1.92-26.912-2.88-4.352-0.448-8.736-0.8-13.136-1.184-0.304-0.016-0.64-0.016-0.912-0.16-8.464-4.112-18.304-2.928-26.8-6.944-0.704-0.336-1.664-0.224-2.512-0.192-2.704 0.048-5.44 0.432-8.112 0.128-8.976-0.944-17.888-2.288-26.88-3.152-7.36-0.704-14.464-2.112-21.088-5.376-5.616-2.768-11.376-3.424-17.616-3.024-3.648 0.224-7.488-0.704-11.040-1.808-3.68-1.12-4.16-5.872-1.792-8.848 2.32-2.912 4.128-6.256 5.888-9.568 0.912-1.712-0.16-3.216-2.24-3.472-2.752-0.336-5.536-1.376-8.32 0.128-0.496 0.256-1.52-0.192-2.16-0.544-4.608-2.512-9.536-4.032-14.688-4.848-0.384-0.064-0.768-0.176-1.104-0.336-5.152-2.464-10.288-4.976-15.424-7.424-1.072-0.496-2.208-0.864-3.344-1.088-5.712-1.216-7.248-0.624-9.456 4.72-4.112 9.888-9.664 18.736-17.040 26.576-4.56 4.848-8.592 10.192-12.848 15.328-1.296 1.584-0.96 4.464 1.072 6.384 4.608 4.4 9.328 8.624 14 12.944 2.24 2.064 4.4 4.224 6.704 6.224 1.776 1.536 3.6 3.040 5.552 4.288 5.216 3.344 5.488 7.456 0.64 11.28-0.256 0.192-0.496 0.368-0.752 0.576-3.824 2.912-4.784 5.232-2.576 7.424 4.272 4.224 7.84 6.416 11.888 2.608 0.448-0.432 0.864-0.912 1.328-1.328 2.32-2.096 4.96-2.272 7.136-0.048 4.784 4.88 9.664 9.696 13.952 14.976 3.76 4.624 7.776 8.896 12.8 12.032 7.648 4.752 13.712 10.912 18 18.864 1.536 2.864 4.048 5.264 7.424 5.008 3.104-0.24 4.8-3.36 5.44-5.92 1.552-6.144 5.664-10.8 8.432-16.192 0.816-1.632 2-2.4 3.904-2.336 1.424 0.064 2.176 0.512 2.48 1.904 0.736 3.344 2.624 5.248 6.24 5.664 2.96 0.352 4.096 3.088 4.304 5.536 0.976 10.608 5.36 20.032 9.312 29.696 4.576 11.136 8.176 22.704 12.64 33.888 4.4 11.072 9.2 21.968 14.128 32.8 1.776 3.888 4.56 7.296 6.688 11.056 1.728 3.040 3.264 6.208 4.736 9.376 0.4 0.88 0.4 2 0.352 3.008-0.192 3.808-3.44 5.808-6.912 4.288-0.848-0.384-1.776-0.8-2.416-1.424-5.792-5.6-13.024-8.992-19.92-12.848-0.528-0.288-1.328-0.704-1.728-0.496-2.288 1.12-4.064-0.128-6-0.976-4.688-2.016-9.376-3.984-14.064-5.984-0.128-0.064-0.288-0.096-0.432-0.176-5.44-2.672-10.976-5.232-16.336-8.048-6.224-3.264-12.928-4.736-19.824-5.6s-13.712-1.52-20.64-0.112c-2.064 0.416-4.4-0.624-6.624-0.8-4.032-0.336-8.080-0.576-12.128-0.784-3.2-0.128-6.4-0.176-9.6-0.112-2.016 0.048-4.048 0.464-6.096 0.496-2.672 0.016-3.52-1.072-3.008-3.712 0.752-3.824 3.216-6.144 6.464-8.176 6.704-4.208 13.328-8.576 19.68-13.28 4-2.944 5.072-7.392 4.208-12.256-0.624-3.456 0.224-4.4 3.792-4.272 1.392 0.048 2.784 0 4.304 0 0-3.104 0.112-5.936-0.048-8.72-0.128-2.224-1.536-3.456-3.76-3.888-3.36-0.672-6.192 0.112-8.608 2.576-2.592 2.624-3.952 2.224-6.784 0.016-4.416-3.488-7.248-7.888-9.28-13.008-0.592-1.472-1.808-2.768-2.96-3.904-4.176-4.16-8.8-7.696-13.936-10.704-5.104-2.976-9.712-6.864-14.4-10.544-3.52-2.752-6.72-5.92-10.272-8.656-2.848-2.208-5.856-4.24-9.024-5.92-3.152-1.664-5.584-3.888-7.872-6.576-5.408-6.4-11.040-12.608-16.688-18.8-2.112-2.32-3.488-1.888-4.352 1.2-0.816 2.896-2.752 4.416-5.6 5.072-8.256 1.888-15.536 5.776-22.048 11.12-2.176 1.776-2.752 1.872-4.064-0.576-0.768-1.424-1.392-2.976-1.936-4.512-0.736-2.048-2.128-2.784-4.192-2.592-4.128 0.4-6.752 3.824-6.224 8.144 0.176 1.392 0.624 2.8 0.448 4.176-0.352 3.264-3.248 6.032-6.576 6.432-2.896 0.336-5.44 1.136-7.536 3.408-0.816 0.912-2.288 1.264-3.488 1.808-4.56 2.048-9.136 4.096-13.712 6.16-1.824 0.816-3.648 1.76-5.504 2.464-1.696 0.624-2.448 1.824-2.208 3.424 0.624 4.4 1.152 8.848 2.176 13.168 1.424 5.76 3.248 11.456 4.992 17.152 1.328 4.336 2.752 8.656 4.304 12.912 0.352 1.008 1.264 2.224 2.144 2.464 0.608 0.176 1.888-0.976 2.448-1.808 1.184-1.76 2.144-3.632 3.072-5.536 3.584-7.312 7.056-14.672 10.736-21.952 0.4-0.8 1.888-1.568 2.784-1.488 0.912 0.080 2.16 1.056 2.512 1.952 1.488 3.712 0.976 7.52 0.048 11.328-1.152 4.784-2.496 9.568-3.136 14.432-0.4 3.2 0.288 6.544 0.464 9.808 0.496 8.608 0.592 17.264 1.536 25.824 1.472 13.568 3.52 27.040 5.328 40.56 0.080 0.624 0.192 1.232 0.224 1.872 0.624 8.96 1.2 17.952 1.904 26.912 0.368 4.688 0.704 9.408 1.552 14.032 0.432 2.384 1.776 4.656 2.976 6.8 2.048 3.6 4.48 7.008 6.464 10.64 2.112 3.824 0.512 7.056-3.552 8.432-1.664 0.576-3.088 1.936-4.624 2.944-0.16 0-0.304 0-0.464 0-3.552-1.84-4.384-5.312-5.168-8.8-2.896-12.784-8.496-24.192-17.2-34.032-0.576-0.624-1.248-1.216-1.952-1.632-6.944-4.096-12.576-9.584-17.44-15.936-4.608-6.032-8.976-12.288-13.952-18-4-4.608-8.672-8.608-13.136-12.768-3.104-2.896-6.688-5.296-9.472-8.432-6.096-6.848-11.888-13.984-17.68-21.12-1.904-2.352-3.424-5.024-5.264-7.744 3.696-1.152 6.512 0.24 9.216 1.776 3.904 2.224 7.936 3.808 12.512 3.472 2.816-0.192 5.616-0.608 8.416-1.024 4.384-0.672 5.504-3.088 3.040-6.72-3.024-4.496-4.848-9.424-6.064-14.672-0.592-2.544-1.712-5.008-2.688-7.472-1.040-2.608-2.656-5.056-3.216-7.744-1.392-6.608-3.904-12.72-7.12-18.56-0.608-1.12-2.176-2.224-3.424-2.384-6-0.688-12.016-1.296-18.048-1.44-8.464-0.224-16.976-0.016-25.44 0-2.592 0-5.296-0.416-7.744 0.128-6.512 1.44-12.816 0.464-19.152-0.752-4.848-0.912-9.888-1.664-11.68-7.424 0-0.304 0-0.624 0-0.944 0.288-0.112 0.576-0.288 0.864-0.352 5.2-1.056 10.592-1.536 15.2-4.672 0.464-0.304 1.216-0.304 1.824-0.288 3.68 0.096 6.112-1.776 8.272-4.608 1.632-2.128 3.664-4.096 5.84-5.664 2.336-1.696 3.488-3.584 3.44-6.48-0.080-3.696 0.048-7.376 0.192-11.072 0.080-2.080 0.976-3.728 2.928-4.768 3.776-2 3.76-2.048 0.496-4.896-0.352-0.304-0.736-0.624-1.008-0.976-0.944-1.2-1.664-2.336-0.88-4.064 0.528-1.152 0.736-2.608 0.592-3.872-0.192-1.6-1.008-3.12-1.392-4.72-0.528-2.128-1.568-3.136-3.888-2.336-1.84 0.64-2.56-0.56-2.976-2.080-0.4-1.472 0.16-2.224 1.648-2.432 1.952-0.24 2.144-1.6 1.248-2.864-0.848-1.184-2.16-2-3.552-3.232 1.312-0.304 2.496-0.816 3.696-0.848 10.848-0.224 21.424-1.952 31.824-4.896 0.624-0.176 1.36-0.112 2.016-0.080 1.904 0.064 3.792 0.272 5.68 0.16 2.176-0.144 4.336-0.88 6.496-0.8 4.816 0.24 9.264-0.816 13.744-2.544 6.4-2.464 12.928-4.656 19.472-6.752 10.32-3.312 20.304-7.168 29.632-12.912 9.328-5.76 17.28-13.232 25.952-19.776 0.384-0.272 0.688-0.64 1.024-0.976 3.072-3.024 6.224-5.984 9.216-9.072 3.488-3.568 6.96-7.2 10.272-10.944 2.16-2.432 4.032-5.168 6.064-7.712 2.288-2.864 4.928-5.52 6.88-8.576 2.736-4.288 4.72-9.024 7.44-13.328 5.888-9.232 11.248-18.624 13.184-29.584 0.256-1.424 1.008-2.272 2.704-2.384 0.944-0.064 2.176-0.848 2.688-1.664 2.832-4.592 5.856-9.12 8.080-13.984 2-4.4 2.848-9.28 4.576-13.808 1.76-4.56 2.688-9.184 2.496-14.016-0.272-6.752-0.704-13.472-1.024-20.208-0.16-3.312 0.4-4 3.824-4.976 1.6 2.8 3.776 5.456 4.688 8.496 1.808 6.048 3.008 12.272 4.272 18.48 0.416 2.048 1.024 3.808 2.976 4.736 2.48 1.2 4.96 2.432 7.536 3.264 1.584 0.512 3.44 0.704 5.072 0.448 5.328-0.864 8.912-4.16 10.928-9.024 3.152-7.648 4.224-15.776 5.056-23.92 0.304-3.136 0.4-6.272 2.976-8.576 0.624 0.112 1.264 0.112 1.888 0.112zM274.752 127.664c-0.048 0-0.080 0-0.112 0 0-1.888 0.128-3.776-0.048-5.632-0.256-2.704-1.472-4.976-3.84-6.432-5.056-3.008-10.336-4.896-16.384-3.216-2.8 0.768-5.76 1.088-8.432 2.096-12.928 4.944-17.408 20.544-8.832 31.312 5.648 7.088 13.712 8.944 22.352 8.944 2.656 0 5.216-0.528 7.184-2.448 4.272-4.096 7.136-8.928 7.472-14.992 0.192-3.216 0.4-6.432 0.624-9.632zM80.112 259.712c-0.432 6.736 3.344 11.456 9.072 13.52 1.184 0.448 2.32 0.976 3.376 1.632 2.352 1.472 4.864 1.712 7.488 1.088 5.2-1.248 9.392-4.272 13.264-7.776 0.912-0.816 1.6-2.272 1.76-3.488 0.96-9.344 0.56-18.352-6.432-25.776-2.832-3.024-4.416-2.896-5.776 0.944-0.624 1.712-1.6 2.176-3.424 1.84-1.872-0.352-3.952-0.608-5.776-0.16-7.264 1.872-13.712 10.736-13.536 18.176zM202.336 184.768c-2.864 0.4-5.536 0.704-8.16 1.12-3.312 0.512-6.128 1.888-8.176 4.624-3.824 5.072-2.24 16.416 2.848 20.256 0.496 0.384 1.072 0.688 1.648 0.912 2.576 0.96 5.088 2.128 7.76 2.736 1.696 0.368 3.792 0.288 5.376-0.384 5.024-2.16 9.936-4.672 14.864-7.072 3.664-1.76 3.888-2.432 2.624-6.192-0.592-1.776-1.904-3.84-1.456-5.344 0.8-2.64-0.448-4.512-1.248-6.544-1.264-3.296-4.736-3.936-7.536-5.168-0.88-0.384-2.416 0.912-3.712 1.264-0.8 0.24-1.664 0.288-2.512 0.224-0.864-0.064-1.696-0.304-2.336-0.448zM292.752 121.52c-0.32 3.264 0.464 4.592 3.296 5.872 3.216 1.44 6.432 2.912 9.712 4.224 0.704 0.288 1.648-0.016 2.496-0.064-0.304-0.96-0.352-2.448-1.024-2.784-4.688-2.512-9.488-4.784-14.496-7.248zM233.552 96.784c-3.488-0.048-5.376 1.536-4.848 3.952 0.16 0.736 0.768 1.728 1.328 1.872 0.528 0.112 1.584-0.624 1.872-1.264 0.736-1.424 1.12-3.008 1.648-4.576zM360.336 142.048c-0.048-0.352-0.112-0.688-0.176-1.040-1.072-0.432-2.112-0.928-3.2-1.216-0.128-0.048-0.928 1.2-0.8 1.648 0.24 0.784 1.024 2.048 1.488 2.016 0.912-0.080 1.792-0.912 2.672-1.408z"></path>
</svg>
