<!-- Generated by IcoMoon.io -->
<svg version="1.1" xmlns="http://www.w3.org/2000/svg" width="512" height="512" viewBox="0 0 512 512">
<title>monsters-of-order</title>
<g id="icomoon-ignore">
</g>
<path d="M322.976 0c0.56 0 1.12 0 1.664 0 0.352 0.144 0.656 0.352 1.024 0.416 9.792 1.92 19.648 3.68 29.392 5.792 18 3.872 35.92 8.016 52.768 15.824 1.072 0.48 2.288 0.832 3.472 0.928 3.76 0.256 7.2 0.928 9.824 4.096 0.88 1.072 2.528 1.504 3.84 2.16 4.656 2.272 9.312 4.544 13.968 6.784 2 0.976 4.032 1.872 6 2.864 4 2.064 8.288 3.76 11.888 6.4 6.256 4.608 12.16 9.712 18.016 14.8 5.904 5.12 10.672 11.216 14.896 17.84 8.704 13.76 12.256 29.12 13.6 44.928 0.768 9.008 1.664 18.112-0.672 27.312-3.872 15.312-9.424 29.664-20.080 41.504-5.744 6.368-12.272 12.048-18.576 17.904-1.6 1.488-3.52 2.784-5.52 3.616-16.464 6.816-32.944 13.728-49.568 20.128-6.608 2.528-13.616 4.128-20.56 5.6-8.48 1.824-16.288 4.96-22.512 11.024-6.096 5.936-11.728 12.352-17.552 18.528-5.472 5.792-6.64 16.512-2.8 23.552 2.576 4.672 4.928 9.472 7.232 14.288 1.808 3.824 1.072 7.904-1.76 10.816-0.976-1.136-1.92-2.24-2.896-3.36-1.296-1.504-2.368-1.744-3.712 0.16-0.976 1.36-2.416 3.088-3.872 3.312-5.136 0.864-9.152 3.92-13.408 6.4-5.552 3.248-11.424 6.256-14.688 12.304-2.896 5.344-5.76 10.752-8.784 16.032-2.112 3.728-3.248 7.6-2.912 11.936 0.192 2.384 0.112 4.848-0.32 7.184-2.288 11.856-4.768 23.696-7.152 35.536-0.144 0.72-0.224 1.456-0.256 2.208-0.192 6.72-0.256 13.456-0.528 20.176-0.464 10.592-1.552 21.232-5.888 30.928-6.304 14.080-9.872 29.232-17.328 42.848-2.176 3.936-4.592 7.024-8.8 8.688-1.904 0.768-3.472 0.88-5.28-0.672 2.528-2.752 2.128-5.12-0.944-7.152-0.416-0.272-0.432-1.488-0.352-2.224 0.528-3.84 1.2-7.696 1.744-11.536 1.28-9.2 2.896-18.416-3.76-26.56-1.2-1.456-2.176-2.24-4.032-2.128-4.976 0.304-9.952 0.48-14.944 0.736-4.448 0.224-6.736 3.168-5.84 7.456 0.272 1.36 0.768 2.656 1.024 4.032 1.232 6.192 2.336 12.368-0.624 18.416-0.304 0.624-0.56 1.6-0.304 2.16 1.968 4.304-0.144 8.112-1.296 12.048-0.576 2.016-1.536 2.176-3.264 1.296-4.544-2.368-8.192-5.536-10.752-10.096-2.64-4.752-4.192-9.744-5.344-15.056-2.272-10.56-5.168-21.008-7.76-31.504-0.88-3.584-1.776-7.104-0.368-10.88 0.56-1.504 0.064-3.456-0.112-5.184-0.192-1.92-0.672-3.792-0.864-5.728-0.928-10.144-1.76-20.272-2.736-30.416-0.416-4.288-1.136-8.448-0.256-12.896 0.816-4 0.768-8.32 0.32-12.384-1.312-11.968-5.952-23.040-10.288-34.16-0.56-1.408-2.032-2.528-3.248-3.616-2.848-2.624-6.208-4.816-8.544-7.808-2.32-2.944-5.072-4.72-8.432-5.952-1.648-0.608-3.36-1.088-4.928-1.856-3.664-1.824-7.024-1.952-10.256 0.976-0.624 0.56-2.24 0.736-2.912 0.32-0.736-0.464-1.488-2.032-1.232-2.752 0.944-2.688 0.192-5.056-0.512-7.568-0.352-1.312 0.016-2.912 0.352-4.336 1.296-5.488 1.616-11.024 0.464-16.512-0.832-3.968-2.384-7.776-3.168-11.76-0.768-3.792-2.688-6.768-5.136-9.632-3.776-4.448-7.152-9.216-10.912-13.664-1.952-2.288-4.192-4.432-6.576-6.224-2.944-2.224-6.224-3.984-9.312-6.016-4.864-3.168-9.92-5.68-15.888-6.048-2.272-0.144-4.672-0.608-6.72-1.552-8.24-3.888-16.4-8.064-24.576-12.112-0.672-0.32-1.36-0.976-1.984-0.896-5.008 0.608-8.784-2.24-12.848-4.256-0.976-0.48-2.208-0.432-3.2-0.896-2.448-1.152-5.328-1.952-7.136-3.792-11.936-12-23.376-24.432-31.040-40.096-4.24-8.656-6.768-17.072-5.584-26.608 0.736-6 0.672-11.968-1.024-17.84 0-2.784 0-5.552 0-8.336 0.56-3.456 1.36-6.896 1.648-10.384 0.736-9.072 3.776-17.504 7.2-25.808 0.976-2.32 2.64-4.496 4.416-6.304 4.208-4.304 8.864-8.16 12.992-12.56 12.64-13.504 28.864-21.52 45.184-29.2 15.040-7.088 30.32-13.664 45.648-20.128 6.272-2.64 12.816-5.024 19.456-6.272 9.152-1.744 18.528-2.416 27.824-3.312 9.36-0.896 18.88 0.16 28.096-2.592 1.2-0.368 2.704 0.272 4.080 0.416 2.624 0.304 5.216 0.72 7.824 0.832 1.744 0.064 3.504-0.48 5.232-0.464 1.152 0 2.288 0.528 3.456 0.816 0.016 0.304 0.048 0.576 0.096 0.88-1.184 0.816-2.272 2.064-3.568 2.368-2.752 0.624-5.6 0.976-8.432 0.992-2.016 0.016-2.912 0.464-3.376 2.576-0.32 1.488-1.28 3.36-2.496 4.032-3.84 2.080-7.968 3.712-11.968 5.488-0.224-0.224-0.464-0.464-0.688-0.672 0.768-0.944 1.504-1.904 2.416-3.056-1.040 0-2.032-0.16-2.96 0.016-8.624 1.696-17.28 3.264-25.824 5.28-3.632 0.864-7.312 2.24-10.496 4.208-15.824 9.776-31.472 19.776-47.184 29.744-3.664 2.32-6.368 5.632-7.104 9.888-1.104 6.352-2.272 12.784-2.368 19.184-0.16 11.76 7.024 19.44 16.080 25.616 3.408 2.336 6.88 4.656 10.56 6.512 4 2.016 8.16 4.336 12.48 5.008 10.96 1.712 22.032 2.624 33.056 3.776 8.848 0.928 17.6 3.76 26.656 1.44 0.512-0.144 1.104-0.016 1.664 0.016 6.48 0.512 12.064-2.16 17.552-5.072 3.216-1.712 6.224-4 9.616-5.312 7.232-2.736 13.824-7.088 21.664-8.368 9.072-1.488 17.888-4.96 27.376-2.992 3.984 0.816 8.112 0.944 12.064 1.808 6.304 1.36 12.928 2.24 18.72 4.864 7.184 3.264 13.6 8.16 20.4 12.256 6.48 3.92 12.768 9.008 21.152 5.072 0.064-0.048 0.192-0.016 0.272-0.048 8.448-1.568 16.928-3.088 25.36-4.768 7.344-1.456 14.64-3.104 21.952-4.72 6.64-1.488 13.312-2.896 19.904-4.656 3.824-1.024 4.816-3.52 3.76-7.296-0.624-2.208-0.976-4.496-1.408-6.768-1.408-7.52-2.112-15.28-4.336-22.56-4.080-13.296-12.32-24.304-22.24-33.744-7.664-7.312-16.208-13.76-24.48-20.448-2.848-2.32-5.792-4.752-9.104-6.192-6.256-2.736-11.952-6.208-17.184-10.512-0.864-0.688-1.712-1.616-2.704-1.904-3.616-1.040-4.64-3.76-4.928-7.072zM261.312 344.416c-0.368-0.192-0.736-0.4-1.12-0.576-1.152 1.040-2.544 1.92-3.456 3.152-1.696 2.32-2.96 4.928-4.656 7.232-1.408 1.92-2.96 3.872-4.848 5.28-6.304 4.704-13.52 1.808-15.008-5.808-0.368-1.904-0.864-3.792-1.488-5.632-0.576-1.696-1.76-2.112-3.152-0.784-1.952 1.824-3.984 3.632-5.728 5.648-1.6 1.872-1.6 3.792 0.528 5.536 1.104 0.928 2.128 2.112 2.848 3.36 2.944 5.12 5.936 10.208 6.72 16.288 0.32 2.432 1.136 4.864 2.064 7.184 2.032 5.136 2.912 10.416 3.008 15.984 0.144 8.224 5.6 13.36 11.712 18.208 0.512-4.608 5.12-8.832 0.624-13.616-0.256-0.272-0.304-0.864-0.32-1.296-0.16-5.088-0.208-10.176 1.92-15.008 5.696-12.976 9.12-26.544 10.544-40.656 0.096-1.44-0.16-2.96-0.224-4.464zM322 239.616c-4.88 0.016-8.080 1.568-10.832 5.6-1.568 2.272-2.832 4.768-4.304 7.136-4.208 6.672-8.448 13.312-16 16.864-0.816 0.368-1.536 1.088-2.080 1.808-3.664 4.768-7.312 9.568-10.864 14.432-1.872 2.592-1.456 3.76 1.744 4.352 4.352 0.832 8.832 1.184 13.152 2.112 4.416 0.944 8.128-0.304 11.888-2.448 1.776-1.024 3.936-1.552 6-1.92 2.384-0.432 3.536-1.696 3.936-3.984 0.32-1.904 0.672-3.792 1.2-5.648 3.104-11.12 6.272-22.208 9.376-33.328 0.656-2.448-1.072-4.96-3.2-4.96zM166.368 254c1.072 11.392 2.416 22.464 8.128 32.512 1.552 2.736 3.52 4.656 6.56 5.584 1.76 0.528 3.888 0.896 5.056 2.112 3.84 4 8.496 3.968 13.392 3.52 3.408-0.32 6.832-0.432 10.24-0.832 1.296-0.144 2.528-0.784 3.792-1.184-0.416-1.072-0.736-2.16-1.28-3.152-0.272-0.528-1.040-0.816-1.392-1.312-1.392-2.112-3.264-4.144-3.888-6.48-0.768-2.944-2.16-4.864-4.704-6.432-2.864-1.776-5.632-3.824-8.176-6.048-2.496-2.176-4.592-4.848-7.040-7.104-4.928-4.592-9.888-9.12-15.040-13.488-1.024-0.864-2.912-1.152-4.288-0.928-0.608 0.144-0.928 2.128-1.36 3.248zM221.728 343.312c-1.28-1.408-2.176-2.432-3.088-3.424-0.864 0.832-2.592 2.016-2.416 2.416 0.624 1.488 1.872 2.704 2.896 4.048 0.72-0.832 1.44-1.664 2.592-3.040zM335.616 238.032c1.344-1.952 2.336-3.408 3.456-4.976-3.536-0.048-4.288 0.88-3.456 4.976z"></path>
<path d="M24.48 413.12c0.16-0.272 0.304-0.608 0.512-0.896 14.032-21.44 28.048-42.896 42.16-64.304 2.176-3.312 2.112-6.016-0.048-9.408-2.032-3.216-3.616-6.928-4.512-10.656-4.416-18.528-8.64-37.104-12.72-55.712-0.656-3.008-0.464-6.272-0.256-9.376 0.208-3.264 2.288-5.136 5.584-5.52 4.080-0.432 8.064-2.016 12.304-0.416 1.104 0.416 2.832-0.464 4.144-1.024 1.6-0.688 2.576-0.352 2.864 1.296 0.304 1.616 0.464 3.296 0.512 4.96 0.528 17.808 2.064 35.536 7.856 52.512 1.904 5.6 4.752 11.072 7.984 16.032 6.016 9.216 12.416 18.176 19.088 26.96 10 13.152 22.56 23.424 37.248 31.040 5.328 2.752 10.816 5.232 16.24 7.824 4.96 2.368 6.992 6.192 6.192 11.504-0.656 4.24 0 8.288 2.016 12.112 0.656 1.232 1.312 2.448 1.776 3.76 1.856 4.976-1.28 9.264-6.56 8.336-3.056-0.528-6.224-1.952-8.752-3.776-4.128-2.96-8.336-5.184-13.36-6.4-3.568-0.864-6.944-2.912-10.144-4.864-3.088-1.872-5.728-4.416-8.704-6.432-2.736-1.824-5.696-3.328-8.576-5.008-1.6-0.928-3.424-1.664-4.656-2.944-5.968-6.192-11.84-12.48-17.584-18.88-1.104-1.232-1.712-3.008-2.272-4.64-0.672-1.952-1.616-2.48-3.728-2.112-7.968 1.44-15.376 4.304-22.448 8.224-1.36 0.768-2.848 1.392-4.080 2.368-8.896 6.944-17.76 13.968-26.592 21.008-1.952 1.552-3.632 3.456-5.52 5.088-2.528 2.208-3.776 2.032-5.968-0.688z"></path>
<path d="M430.192 270.352c0.144 2.656 0.192 4.704 0.368 6.736 0.352 4.048-0.512 7.776-1.952 11.632-3.040 8.224-5.584 16.624-8.288 24.976-1.488 4.56-2.8 9.2-4.288 13.76-0.736 2.288-0.784 4.304 1.28 6.016 0.688 0.576 1.12 1.488 1.664 2.224 8.496 11.536 17.024 23.072 25.52 34.608 0.432 0.608 0.864 1.28 1.456 1.664 7.088 4.512 11.376 11.552 16.288 18.016 0.224 0.304 0.464 0.576 0.672 0.88 2.080 2.88 2.448 5.648 0.976 7.088-1.696 1.616-6.048 1.76-8.336 0.096-4.032-2.944-7.776-6.368-12.048-8.912-4.72-2.832-9.744-5.264-14.896-7.152-3.84-1.408-6.816-3.408-9.264-6.624-0.992-1.296-2.752-2.368-4.352-2.832-3.584-0.992-6.608-2.752-9.248-5.344-5.808-5.648-11.728-6.144-18.432-1.616-0.304 0.208-0.624 0.608-0.928 0.576-4.384-0.192-5.008 3.424-6.784 6.192-2.224 3.424-5.168 6.416-7.824 9.536-8.032 9.472-16.608 18.432-26.336 26.224-1.36 1.088-2.88 2.016-4.384 2.88-4 2.288-8.080 4.464-12.096 6.768-3.616 2.080-6.944 0.624-7.76-3.568-1.040-5.44-2-10.912-2.88-16.368-0.576-3.616 0.304-4.96 3.52-6.624 1.28-0.656 2.496-1.648 3.36-2.752 1.744-2.272 3.168-4.768 4.752-7.152 1.184-1.776 2.448-2.736 4.864-1.808 1.088 0.416 2.896-0.16 4.048-0.864 13.52-8.112 24.384-19.136 34.32-31.216 12.976-15.776 22.144-33.696 28.672-52.88 2.496-7.344 3.2-15.328 4.4-23.088 0.576-3.792 0.528-7.728 0.512-11.6 0-2.752 1.184-4.352 3.76-5.072 1.248-0.352 2.576-0.56 3.68-1.152 1.184-0.656 2.448-1.488 3.2-2.576 2.080-3.056 5.904-3.728 8.592-1.248 3.888 3.568 4.672 8.24 4.512 13.2-0.096 2.688-0.256 5.376-0.352 7.44z"></path>
</svg>
