<!-- Generated by IcoMoon.io -->
<svg version="1.1" xmlns="http://www.w3.org/2000/svg" width="496" height="512" viewBox="0 0 496 512">
<title>monsters-of-order</title>
<g id="icomoon-ignore">
</g>
<path d="M236.016 493.2l-1.712-0.16-0.080-0.944c-0.048-0.736-0.208-0.976-0.784-1.216-0.72-0.304-1.952-1.552-2.448-2.496-0.16-0.272-0.624-0.608-1.056-0.688s-0.912-0.272-1.056-0.384c-0.128-0.096-0.544-0.256-0.912-0.352s-1.008-0.512-1.424-0.912c-0.416-0.432-0.832-0.768-0.96-0.768-0.080 0-0.32-0.272-0.464-0.64-0.16-0.336-0.576-0.688-0.88-0.784-0.448-0.096-0.624-0.304-0.576-0.688 0.048-0.48-0.128-0.56-1.232-0.72-1.552-0.208-2.592-0.912-2.368-1.632 0.288-0.976 0.192-1.216-0.544-1.472-0.992-0.336-2.832-2.192-2.832-2.848 0-0.304-0.288-0.816-0.624-1.168-0.368-0.336-0.864-1.088-1.12-1.712-0.576-1.328-1.12-1.6-1.68-0.848-0.208 0.304-0.496 0.48-0.592 0.384-0.288-0.304-0.192-1.504 0.192-2.032 0.704-0.912 0.464-1.776-0.736-2.784-1.040-0.896-1.088-1.024-1.040-2.112 0.032-0.64-0.080-1.2-0.192-1.248-1.456-0.528-2-1.424-1.232-2.032 0.416-0.304 0.416-0.384 0-1.904-0.512-1.904-0.512-4.608 0.032-5.936 0.304-0.736 0.384-2.192 0.464-6.352 0.032-2.96 0.16-5.856 0.256-6.416 0.112-0.72 0.048-1.536-0.224-2.496-0.224-0.784-0.336-1.552-0.288-1.68 0.192-0.336 1.040-0.336 1.216-0.032 0.080 0.128 0.368 0.176 0.624 0.096 0.368-0.096 0.496-0.464 0.624-1.712 0.096-0.864 0.080-2.096-0.080-2.704-0.208-0.896-0.176-1.296 0.112-1.888 0.176-0.416 0.336-1.296 0.336-1.968s0.16-1.84 0.32-2.576c0.336-1.376 0.368-4.56 0.080-5.936-0.256-1.12 0.368-2.72 1.168-3.136 0.624-0.336 0.656-0.416 0.656-2.368 0-1.84 0.048-2.064 0.624-2.576 0.496-0.432 0.624-0.768 0.576-1.472-0.032-0.512 0.080-1.28 0.224-1.68 0.384-1.024 0.832-3.952 0.656-4.224-0.080-0.16 0.080-0.592 0.368-0.992 0.416-0.592 0.512-1.072 0.512-2.672 0-1.712 0.080-2.032 0.624-2.704 0.672-0.816 0.672-1.072-0.048-2.832-0.384-0.944-0.384-0.976 0.24-1.664 0.592-0.64 0.672-0.912 0.672-2.576 0-1.28 0.128-2.096 0.416-2.576 0.368-0.656 0.368-0.768-0.128-1.76-0.72-1.376-0.704-1.936 0.096-2.656 0.544-0.48 0.624-0.688 0.464-1.632-0.080-0.608-0.080-1.216 0.032-1.408 0.096-0.16 0.208-1.552 0.208-3.104l0.032-2.832 1.184-1.856c0.992-1.536 1.168-2.032 1.136-2.928-0.032-0.592 0.096-2.32 0.288-3.872 0.144-1.536 0.208-3.216 0.144-3.744-0.192-1.296 0.128-1.84 1.376-2.352 0.832-0.352 1.168-0.384 1.872-0.128 0.832 0.272 2.576 0.224 3.328-0.128 0.288-0.16 0.448 0 0.576 0.608 0.096 0.48 0.384 0.912 0.752 1.072 0.32 0.16 0.592 0.352 0.592 0.464s0.384 0.784 0.88 1.536c0.496 0.736 0.912 1.664 0.96 2.016 0.048 0.736 1.968 5.024 2.336 5.248 0.416 0.256 1.232 2.112 1.232 2.752 0 1.072 1.824 5.168 2.496 5.6 0.272 0.176 0.464 0.592 0.464 1.024s0.384 1.552 0.864 2.576c0.672 1.456 0.864 2.192 0.864 3.312 0 1.632 0.448 2.528 1.536 3.104 0.704 0.384 0.72 0.416 0.544 1.856-0.16 1.536 0.096 2.416 1.168 3.824 0.64 0.816 0.624 1.808-0.048 1.984-0.368 0.096-0.464 0.272-0.368 0.688 0.080 0.272 0.16 0.736 0.16 0.992s0.192 0.432 0.576 0.432c0.752 0 1.008 0.224 1.536 1.376 0.368 0.768 0.384 1.072 0.176 1.456-0.32 0.512-0.384 2.704-0.16 3.392 0.080 0.224 0.368 0.416 0.624 0.416 0.448 0 0.464 0.128 0.32 1.248-0.096 0.768-0.032 1.6 0.16 2.192 0.176 0.56 0.32 2.464 0.336 4.56 0.032 3.408 0.048 3.6 0.512 3.6 0.704 0 0.8 1.024 0.16 1.456-0.576 0.352-0.64 1.12-0.288 2.368 0.096 0.432 0.128 1.408 0.032 2.16-0.176 1.152-0.096 1.6 0.288 2.496 0.288 0.656 0.496 1.584 0.464 2.416 0 0.72-0.032 2.016-0.032 2.848-0.032 0.848-0.208 2.416-0.416 3.52-0.336 1.584-0.336 2.16-0.096 2.96 0.208 0.768 0.192 1.712-0.032 4.032-0.336 3.344-0.288 8.48 0.096 10.272 0.576 2.592 0.544 3.392-0.16 4.048-0.704 0.688-0.832 1.296-0.336 2.032 0.224 0.384 0.192 0.656-0.16 1.408-0.448 0.944-0.496 2.624-0.384 10.912 0.048 2.32-0.032 3.040-0.288 3.136-0.24 0.096-0.288 0.864-0.176 3.904 0.128 2.832 0.080 4.032-0.176 4.944-0.192 0.64-0.448 1.68-0.592 2.288-0.464 2.288-0.768 3.312-1.248 4.224-0.288 0.512-0.496 1.12-0.496 1.376 0 0.512-0.384 0.816-0.592 0.48-0.096-0.128-0.672 0.048-1.344 0.416-0.96 0.56-1.536 0.688-3.264 0.72-1.168 0.048-2.864 0-3.824-0.096z"></path>
<path d="M324.448 490.064c-0.512-0.432-0.96-1.68-0.784-2.24 0.096-0.304-0.288-0.912-1.248-1.936-1.568-1.728-1.536-1.6-1.824-4.432-0.128-1.168-0.32-2.192-0.448-2.224-0.096-0.048-0.128-1.024-0.048-2.16 0.16-2.288 0-2.88-0.752-3.136-0.672-0.208-0.88-1.248-0.8-3.472 0.048-0.944 0.72-1.504 1.792-1.504 0.752 0 0.688-2.144-0.128-3.616l-0.624-1.12 0.496-0.944c0.256-0.512 0.496-1.088 0.496-1.296 0-0.176 0.176-0.912 0.368-1.584s0.416-1.68 0.496-2.192c0.096-0.72 0.256-0.976 0.592-0.976 0.752 0 0.864-1.456 0.368-4-0.128-0.736-0.096-0.848 0.336-0.848 0.576 0 0.656-0.336 0.88-3.168 0.080-1.088 0.032-1.664-0.256-2.096-0.336-0.56-0.336-0.656 0-1.168 1.584-2.32 2.496-3.744 2.752-4.288 0.416-0.848 0.72-4.544 0.448-5.328-0.176-0.464-0.128-0.896 0.256-1.664 0.4-0.864 0.448-1.344 0.32-2.96-0.128-1.504-0.080-2.144 0.224-2.752 0.256-0.512 0.4-1.536 0.416-2.848v-2.096l1.168-0.864c1.136-0.848 1.184-0.944 1.28-2.272 0.048-1.024-0.032-1.536-0.336-1.936-0.624-0.768-0.544-1.2 0.32-2.032 0.64-0.64 0.752-0.848 0.576-1.456-0.128-0.384-0.224-1.584-0.224-2.656 0-1.216-0.112-2.096-0.288-2.272-0.544-0.56-0.336-0.944 0.624-1.248 1.248-0.432 1.36-0.592 0.784-1.28-0.704-0.848-0.624-1.584 0.256-2.448 1.216-1.168 1.536-2.032 1.328-3.52-0.464-3.616-0.496-3.312 0.464-4.304 0.944-0.976 1.056-1.504 0.656-2.928-0.208-0.768-0.176-0.848 0.464-1.2 0.832-0.464 1.232-1.088 1.232-2.016 0-0.352 0.128-0.72 0.256-0.816 0.16-0.080 0.224-0.48 0.16-0.864-0.080-0.352 0.032-0.992 0.192-1.376 0.576-1.12 1.12-3.216 1.12-4.256 0-1.12 0.096-1.216 1.136-1.072 0.72 0.128 0.8 0.208 0.944 1.376 0.16 1.072 0.256 1.248 0.72 1.248 0.304 0 0.944 0.208 1.376 0.464 0.992 0.56 1.616 1.984 1.36 3.264-0.144 0.896 0.096 1.536 1.040 2.576 0.448 0.512 0.592 0.896 0.496 1.344-0.448 2.112-0.448 2.24 0.096 3.344 0.512 1.040 0.544 1.216 0.24 2.72-0.288 1.536-0.256 1.632 0.224 2.192 0.288 0.336 0.704 1.168 0.864 1.888 0.32 1.168 0.288 1.344-0.128 2.064-0.464 0.784-0.464 0.784 0.16 1.2 0.816 0.528 0.96 1.2 0.544 2.192-0.192 0.464-0.368 1.536-0.4 2.368 0 1.2 0.096 1.632 0.512 2.096 0.512 0.56 0.512 0.592 0.080 1.456-0.448 0.848-0.448 0.864 0.080 1.984 0.64 1.344 0.672 1.808 0.16 2.272-0.288 0.256-0.336 0.592-0.224 1.472 0.176 1.152 0.256 5.472 0.128 7.104-0.048 0.48 0.096 0.992 0.32 1.28 0.512 0.592 0.512 1.040 0 1.632-0.64 0.736-0.64 7.040 0 8.592 0.336 0.816 0.416 1.408 0.32 2.16-0.448 2.72-0.448 3.040 0.048 3.696 0.416 0.608 0.464 0.944 0.288 3.6-0.128 1.984-0.080 3.216 0.112 3.824 0.16 0.48 0.208 1.248 0.128 1.664s-0.096 1.472-0.048 2.32c0.096 1.408 0.048 1.68-0.544 2.448-0.784 1.088-0.816 1.408 0 2.272l0.64 0.688-0.512 1.072c-0.368 0.768-0.448 1.2-0.256 1.424 0.16 0.16 0.32 0.896 0.416 1.6 0.16 1.456-0.080 1.904-1.216 2.4-0.688 0.272-1.536 1.888-2.144 4-0.096 0.352-0.576 0.896-1.040 1.2s-0.992 0.72-1.168 0.896c-0.176 0.176-0.832 0.912-1.488 1.6-0.624 0.72-1.456 1.472-1.824 1.712s-0.72 0.784-0.832 1.28c-0.256 1.2-1.056 2.16-1.92 2.352-1.056 0.224-1.408 0.608-1.408 1.536 0 0.848-0.864 1.968-3.040 3.856-0.64 0.56-1.328 1.344-1.552 1.728-0.368 0.72-0.4 0.72-2.032 0.56-1.536-0.16-1.712-0.128-2.496 0.48-0.992 0.768-1.040 0.768-1.584 0.352z"></path>
<path d="M272.16 487.232l-0.832-0.592v-3.216c0-3.216 0-3.216-0.656-3.776-0.832-0.656-0.88-1.584-0.176-2.32 1.136-1.168 1.184-4 0.080-5.104-0.496-0.48-0.592-0.816-0.592-2.032 0-1.424-0.288-2.064-1.008-2.32-0.256-0.096-0.288-0.528-0.192-4.128 0-0.608-0.128-1.984-0.256-3.088-0.624-4.208-0.784-10.88-0.288-11.392 0.368-0.384 0.4-1.152 0.032-1.28-0.16-0.048-0.256-0.48-0.288-0.976-0.048-0.736 0.048-0.896 0.448-0.896 0.688 0 0.784-1.536 0.24-3.536-0.368-1.296-0.368-1.728-0.112-2.848 0.208-0.912 0.24-1.456 0.048-1.776-0.192-0.352-0.16-0.656 0.176-1.248 0.256-0.416 0.64-1.296 0.88-1.968 0.288-0.864 0.688-1.344 1.28-1.728l0.864-0.512-0.176-1.6c-0.096-1.072-0.048-1.904 0.192-2.592 0.208-0.608 0.256-1.28 0.16-1.664-0.096-0.352-0.176-1.216-0.192-1.904-0.032-1.12 0.096-1.456 0.96-2.656 0.816-1.12 0.992-1.552 0.992-2.544 0-1.424 0.8-3.904 1.488-4.608 0.624-0.64 0.624-0.864-0.032-1.504-0.88-0.864-0.656-2.784 0.368-3.168 0.256-0.080 0.256-3.824 0.032-4.816-0.176-0.688-0.16-0.72 0.672-0.72 0.96 0 1.92-0.848 1.92-1.728 0-0.272 0.128-0.608 0.256-0.72 0.288-0.176 0.080-1.84-0.32-2.32-0.176-0.208-0.032-0.416 0.512-0.72 0.784-0.416 0.992-1.072 0.496-1.584-0.144-0.16-0.32-1.328-0.368-2.576-0.080-1.776 0-2.352 0.256-2.592s0.368-0.224 0.368-0.032c0 0.16 0.208 0.272 0.496 0.272 0.4 0 0.496-0.176 0.496-0.896 0-0.48 0.128-0.896 0.256-0.896 0.16 0 0.256-0.512 0.256-1.152s0.144-1.472 0.336-1.856c0.192-0.384 0.448-1.664 0.544-2.832 0.16-1.856 0.256-2.224 0.864-2.848 0.864-0.912 0.912-1.76 0.176-3.216l-0.544-1.040 0.592-0.912c0.448-0.64 0.816-0.912 1.36-0.976 0.72-0.080 0.752-0.128 0.944-1.728 0.096-0.912 0.464-2.192 0.8-2.848 0.496-0.976 0.576-1.328 0.368-1.856-0.16-0.384-0.256-1.12-0.256-1.712 0-0.864 0.176-1.216 1.136-2.32 1.424-1.664 1.68-2.288 1.312-3.408-0.336-1.088-0.16-2.224 0.624-3.392 2.288-3.568 2.464-3.968 2.64-5.424 0.112-0.992 0.336-1.68 0.688-2.064 0.544-0.592 0.72-2.032 0.256-2.32-0.32-0.208-0.032-0.848 0.496-1.024 0.624-0.208 1.552-1.776 1.536-2.624 0-0.736 0.368-1.6 0.8-1.888 0.144-0.096 0.256-0.976 0.288-1.904 0.032-3.296 0.544-3.616 2.544-1.6 0.752 0.736 1.504 1.28 1.824 1.28 0.768 0.032 2.032 1.216 2.512 2.416 1.376 3.296 1.088 6.928-0.592 6.848-0.256 0-0.512 0.128-0.512 0.336 0 0.176 0.176 0.336 0.368 0.336 0.416 0 1.616 0.72 1.904 1.152 0.096 0.128 0.208 1.040 0.208 2.016v1.76l0.72-0.16c0.512-0.096 0.752-0.048 0.864 0.224 0.288 0.784 0.112 1.152-0.72 1.536l-0.864 0.352 0.144 2.112c0.096 1.152 0.272 2.288 0.368 2.528 0.128 0.224 0.224 0.896 0.224 1.456 0 1.040 0.32 1.456 1.040 1.344 0.624-0.096 1.008 0.784 0.64 1.584-0.16 0.352-0.416 0.656-0.592 0.656-0.24 0-0.24 0.176 0.048 0.896 0.176 0.48 0.336 1.456 0.336 2.16s0.176 1.632 0.368 2.064c0.416 0.816 0.448 2.752 0.048 4.384-0.192 0.816-0.176 1.088 0.256 1.664 0.496 0.688 0.96 3.104 0.624 3.104-0.096 0-0.336-0.16-0.512-0.304-0.256-0.272-0.288-0.096-0.176 0.944 0.096 0.72 0.192 1.76 0.256 2.32 0.032 0.608 0.288 1.344 0.592 1.76 0.672 0.864 0.704 1.296 0.080 1.472s-0.944 2.544-0.4 3.392c0.4 0.608 0.4 1.984 0.032 7.168-0.16 2.016-0.16 2.096 0.496 2.592 0.448 0.352 0.672 0.768 0.64 1.248-0.096 7.6-0.080 8.176 0.256 8.768 0.208 0.416 0.336 1.968 0.4 5.296 0.096 6.064 0.176 7.088 0.576 8.080 0.256 0.72 0.256 0.944-0.096 1.76-0.368 0.784-0.4 1.12-0.16 2.416 0.16 0.848 0.4 1.584 0.496 1.664 0.128 0.080 0.224 0.336 0.224 0.592 0 0.272 0.416 1.088 0.912 1.84 0.592 0.896 0.88 1.632 0.88 2.144-0.032 0.416-0.080 2.496-0.16 4.592-0.16 5.152-0.576 7.856-1.456 9.024-0.256 0.336-0.448 0.864-0.448 1.2 0 0.72-1.328 3.392-1.92 3.872-0.208 0.176-0.592 0.432-0.784 0.56-0.224 0.128-0.32 0.528-0.288 1.072 0.048 0.72-0.096 1.040-0.832 1.76-0.496 0.48-1.2 1.456-1.6 2.16-0.64 1.12-1.584 2.16-3.136 3.44-0.176 0.128-0.336 0.528-0.336 0.864 0 0.464-0.464 1.088-1.6 2.224-0.912 0.896-1.824 2.032-2.096 2.672-0.256 0.608-0.832 1.6-1.312 2.192s-0.96 1.424-1.12 1.888c-0.256 0.896-1.808 2.416-3.28 3.344-0.544 0.336-0.96 0.736-0.96 0.944s-0.624 0.896-1.36 1.552-1.36 1.408-1.36 1.664c0 0.384-1.328 1.248-1.92 1.248-0.336 0-1.952 1.888-2.112 2.496-0.208 0.608-2.448 2.24-3.408 2.464-0.416 0.128-0.704 0.384-0.752 0.72-0.080 0.512-0.224 0.56-2.288 0.64-1.376 0.032-2.32-0.048-2.544-0.256-0.256-0.208-0.416-0.208-0.624 0-0.448 0.464-1.28 0.352-2.192-0.272z"></path>
<path d="M110.224 478.672c-0.624-0.096-1.36-0.304-1.664-0.48s-1.040-0.304-1.664-0.304c-0.624 0-1.408-0.128-1.76-0.304-0.576-0.256-0.624-0.384-0.464-1.344 0.16-1.024 0.096-1.088-1.792-3.344-1.056-1.248-2.336-2.464-2.816-2.704s-1.088-0.736-1.296-1.088c-0.336-0.528-0.496-0.608-0.8-0.352-0.496 0.432-1.168-0.256-1.552-1.552-0.16-0.528-0.672-1.376-1.12-1.84-2.8-2.848-3.536-3.52-3.904-3.52-0.592 0-1.76-0.56-2.096-1.024-0.16-0.208-0.208-0.56-0.096-0.768 0.288-0.592-0.176-1.984-0.736-2.288-0.288-0.16-0.832-0.208-1.216-0.128-1.008 0.224-1.536-0.16-2.272-1.712-0.768-1.6-1.536-2.496-2.16-2.496-0.224 0-0.784-0.512-1.264-1.152-0.912-1.248-0.992-1.296-1.424-0.848-0.464 0.48-0.992-0.16-0.544-0.656 0.256-0.352 0.16-0.48-0.832-0.912-0.912-0.416-1.232-0.72-1.616-1.584-0.24-0.608-0.688-1.248-0.992-1.424s-0.512-0.528-0.512-0.816c0-0.352-0.448-0.816-1.36-1.408-1.376-0.912-1.84-1.536-1.84-2.368 0-0.272-0.176-0.64-0.368-0.816s-0.32-0.416-0.256-0.512c0.128-0.208-1.168-3.040-1.536-3.296-0.416-0.336-1.552-3.136-1.552-3.872 0-0.656-0.080-0.768-0.496-0.656-0.336 0.096-0.688-0.128-1.232-0.784-1.296-1.632-1.552-1.84-2.176-1.84-0.496 0-0.544-0.080-0.32-0.352 0.176-0.208 0.272-0.784 0.208-1.328-0.080-0.816-0.24-1.072-1.296-1.808-0.72-0.512-1.328-1.168-1.456-1.552s-0.368-1.12-0.592-1.664c-0.288-0.736-0.32-1.072-0.096-1.6 0.464-1.040 0.368-1.344-0.992-2.592-0.72-0.656-1.904-1.84-2.592-2.592-1.088-1.168-1.296-1.552-1.296-2.352 0-0.512-0.096-1.024-0.256-1.088-0.128-0.080-0.576-0.864-0.96-1.76-0.624-1.344-0.928-1.712-2-2.288-0.656-0.384-1.328-0.912-1.488-1.168-0.128-0.256-0.624-0.592-1.088-0.768-0.592-0.208-0.864-0.464-0.992-0.976-0.080-0.384-0.576-1.024-1.12-1.456-0.624-0.48-0.992-0.976-1.008-1.344 0-0.48 0.096-0.56 0.496-0.432 0.448 0.16 0.496 0.048 0.496-0.784 0-1.712-1.552-3.408-2.736-3.040-0.864 0.272-1.456-0.304-1.456-1.424 0-0.656-0.176-1.28-0.496-1.68-0.288-0.416-0.496-1.040-0.496-1.632 0-0.848-0.128-1.040-1.12-1.776-0.64-0.48-1.184-1.12-1.28-1.472-0.080-0.352-0.352-1.088-0.592-1.6-0.272-0.528-0.464-1.408-0.464-1.936 0-1.424-0.448-2.592-0.992-2.592-0.24 0-0.688-0.384-0.96-0.816-0.96-1.552-1.76-2.576-2.256-2.928-0.576-0.416-0.624-1.024-0.224-1.968 0.416-0.912-0.048-1.888-1.408-3.056-0.864-0.768-1.088-1.088-1.088-1.76 0-0.48-0.288-1.248-0.672-1.84-0.416-0.64-0.656-1.408-0.72-2.144-0.032-0.64-0.336-1.76-0.688-2.464-0.416-0.864-0.624-1.664-0.576-2.272 0.048-0.896-0.032-1.024-0.864-1.472-0.512-0.272-0.928-0.656-0.928-0.816 0-0.416-0.736-1.936-1.2-2.496-0.32-0.384-0.32-0.512-0.032-0.688s0.176-0.512-0.448-1.712c-0.416-0.816-0.96-1.904-1.184-2.416-0.272-0.608-0.656-1.040-1.12-1.2-0.768-0.272-1.088-0.864-1.328-2.352-0.176-1.168-0.88-1.84-1.872-1.808l-0.768 0.032 0.16-1.216c0.128-1.024 0.080-1.296-0.352-1.68-0.24-0.224-0.624-0.384-0.864-0.304-0.448 0.176-0.464-0.048-0.112-0.976 0.288-0.816-0.208-1.968-1.12-2.576-0.672-0.464-0.816-1.328-0.32-2.144 0.256-0.416 0.224-0.608-0.256-1.248-0.288-0.432-0.544-0.944-0.544-1.12 0-0.208-0.272-0.56-0.624-0.784-0.832-0.56-1.264-1.536-1.456-3.312-0.192-1.728-0.464-2.192-1.28-2.192-0.656 0-0.912-0.336-0.72-0.992 0.096-0.336 0.288-0.432 0.672-0.336 0.464 0.128 0.496 0.048 0.336-1.024-0.112-0.912-0.096-1.2 0.224-1.296 0.736-0.304 0.16-2.32-0.672-2.192-0.688 0.080-0.928-0.048-1.296-0.784s-0.336-0.768 0.368-1.456c0.512-0.464 0.688-0.816 0.592-1.072-0.096-0.224-0.192-1.040-0.224-1.84-0.032-1.12-0.176-1.68-0.752-2.672-0.592-0.944-0.912-1.984-1.344-4.384-0.448-2.448-0.688-3.216-1.088-3.52-0.464-0.336-0.464-0.432-0.192-1.536 0.24-0.896 0.24-1.552 0.032-2.848s-0.208-1.856 0.032-2.544c0.272-0.768 0.256-0.944-0.208-1.584-0.736-1.072-0.832-1.76-0.512-4.464 0.256-2.272 0.256-2.496-0.176-2.976-0.336-0.416-0.416-0.848-0.368-2.112 0.080-1.088-0.032-1.84-0.288-2.368-0.448-0.896-0.512-2.24-0.16-2.464 0.16-0.080 0.256-0.352 0.256-0.608 0-0.384-0.192-0.464-0.912-0.432-0.8 0.032-0.928-0.048-1.008-0.56-0.048-0.352 0.128-0.736 0.464-1.040 0.448-0.352 0.512-0.608 0.368-1.328-0.080-0.48-0.32-1.2-0.512-1.6-0.544-1.072-0.448-1.76 0.368-2.576 0.88-0.864 0.88-0.944 0.208-1.28-0.592-0.272-1.056-1.856-0.656-2.272 0.112-0.16 0.208-0.64 0.208-1.088 0-0.656-0.096-0.848-0.464-0.848-0.496 0-0.768-1.12-0.88-3.568-0.032-0.64-0.112-1.328-0.208-1.536-0.048-0.208-0.208-0.944-0.32-1.664-0.208-1.072-0.32-1.296-0.784-1.344-0.768-0.128-0.928-0.656-0.448-1.376 0.496-0.736 0.496-2.032 0-3.040-0.416-0.896-0.288-2.832 0.288-3.312 0.64-0.56 0.416-1.040-0.464-0.944-0.576 0.048-0.784-0.032-0.784-0.304 0-0.224 0.256-0.416 0.64-0.464 0.576-0.080 0.624-0.176 0.624-1.072 0-0.56 0.16-1.344 0.32-1.76 0.416-1.040 0.208-1.456-0.864-1.664-0.704-0.16-0.96-0.384-1.28-1.072-0.384-0.848-0.384-0.912 0.128-2.016 0.656-1.424 0.656-1.904 0.048-2.976-0.368-0.656-0.496-1.408-0.544-3.184-0.032-1.296 0.032-2.416 0.128-2.528s0-0.384-0.224-0.64c-0.416-0.48-0.448-0.768-0.192-2.704 0.16-1.2 0.096-1.408-0.496-2.144-0.592-0.72-0.64-0.944-0.496-2.112 0.080-0.72 0.32-1.424 0.496-1.584 0.272-0.224 0.288-0.464 0.048-1.152-0.16-0.48-0.416-1.088-0.624-1.408-0.224-0.352-0.32-1.84-0.368-5.232-0.080-9.28-0.080-10.192 0.512-13.376 0.512-2.72 0.544-3.344 0.32-5.472-0.192-1.888-0.192-2.448 0.048-2.656 0.576-0.464 0.656-1.296 0.32-2.4-0.368-1.088-0.16-1.664 0.592-1.504 0.288 0.048 0.336-0.608 0.336-3.392 0-3.056 0.048-3.536 0.464-4.032 0.704-0.784 0.832-2.4 0.752-8.688-0.080-5.072-0.032-5.92 0.384-7.312 0.256-0.864 0.672-1.888 0.864-2.224 0.288-0.432 0.368-0.896 0.256-1.408-0.096-0.528 0.048-1.28 0.512-2.496 0.816-2.064 1.376-7.216 1.008-8.816-0.176-0.656-0.16-1.28 0.048-1.968 0.208-0.72 0.224-1.76 0.032-3.92-0.16-1.904-0.176-3.536 0-4.656 0.176-1.408 0.288-5.76 0.256-8.592-0.032-0.288 0.208-0.816 0.464-1.2 0.704-0.96 1.456-3.008 1.456-3.872 0-0.384 0.16-0.896 0.368-1.152 0.368-0.432 0.64-2.288 0.752-5.024 0.048-1.6 0.8-3.52 1.488-3.776 0.304-0.128 0.304-0.416-0.112-2.064l-0.464-1.904 0.592-0.976c0.336-0.528 0.832-1.248 1.088-1.6 0.448-0.592 0.448-0.736 0.16-1.904-0.496-1.904-0.448-2.352 0.32-2.72 0.592-0.288 0.72-0.528 0.864-1.712 0.128-1.024 0.384-1.728 1.168-2.832 0.928-1.376 1.088-1.936 0.992-3.568-0.048-0.912 0.368-3.216 0.624-3.568 0.176-0.208 0.368-0.944 0.464-1.6 0.080-0.944 0.336-1.424 0.88-1.968 0.4-0.384 0.736-0.896 0.736-1.12 0-0.208 0.192-0.512 0.464-0.64 0.368-0.224 0.496-0.688 0.64-2.752 0.192-2.832 0.4-3.488 1.28-4.464 0.368-0.384 0.784-1.12 0.992-1.6 0.176-0.48 0.464-1.328 0.656-1.84s0.544-1.024 0.768-1.040c0.576-0.128 0.832-1.040 0.688-2.4-0.112-1.040-0.080-1.2 0.448-1.504 0.832-0.432 0.992-0.768 0.832-1.552-0.096-0.512 0-0.736 0.368-0.976 0.288-0.16 0.512-0.416 0.512-0.592s0.224-0.464 0.496-0.64c0.368-0.224 0.464-0.48 0.352-0.896-0.16-0.656 0.544-2.064 1.68-3.44 0.464-0.56 0.688-1.12 0.688-1.712s0.128-0.896 0.352-0.896c0.592 0 0.672-0.432 0.224-1.248l-0.448-0.768 1.056-0.912c1.344-1.2 1.824-2.16 1.728-3.52-0.080-0.976-0.032-1.088 0.736-1.456 0.96-0.48 1.28-0.912 1.28-1.776 0-0.352 0.272-1.040 0.592-1.536s0.672-1.168 0.752-1.536c0.096-0.352 0.352-0.864 0.512-1.152 0.208-0.288 0.336-0.816 0.336-1.168 0-0.608 1.008-2.24 1.552-2.464 0.096-0.048 0.512-0.384 0.912-0.736 0.592-0.512 0.704-0.72 0.496-1.088-0.624-1.168 0.208-2.544 1.504-2.544 0.88 0 1.040-0.56 0.592-2.112l-0.336-1.2 0.816-0.352c0.576-0.224 0.88-0.592 0.992-1.072 0.096-0.416 0.32-1.072 0.496-1.504 0.576-1.408 0.928-2.544 1.056-3.296 0.096-0.512 0.368-0.816 0.96-1.072 0.832-0.352 1.168-0.944 1.088-2.096s0-1.584 0.256-1.584c0.4 0 1.168-0.816 1.328-1.456 0.096-0.304 0.832-1.216 1.584-2.032s1.584-1.936 1.776-2.496c0.288-0.736 0.624-1.152 1.264-1.472 0.704-0.336 1.040-0.768 1.456-1.776 0.352-0.784 1.088-1.856 1.872-2.656 1.408-1.424 1.76-1.584 1.968-0.96 0.096 0.208 0.4 0.384 0.72 0.384s0.704-0.176 0.864-0.384c0.416-0.512 0.672-0.48 0.864 0.128 0.096 0.288 0.448 0.816 0.8 1.168 0.512 0.528 0.592 0.768 0.448 1.648-0.128 0.736-0.048 1.168 0.208 1.632 0.592 0.944 0.464 2.16-0.336 3.312-0.4 0.56-0.88 1.248-1.088 1.536-0.272 0.416-0.288 0.864-0.096 2.368l0.256 1.84-0.768 0.912c-0.864 1.024-0.992 1.968-0.4 3.664 0.208 0.592 0.288 1.168 0.224 1.328-0.080 0.128-0.592 0.208-1.168 0.16-1.056-0.080-1.424 0.304-0.912 0.944 0.16 0.208 0.304 0.912 0.304 1.584s0.112 1.376 0.272 1.552c0.224 0.304-0.032 0.432-0.736 0.336-0.688-0.096-1.28 0.512-1.424 1.456-0.4 2.544-0.672 3.344-1.28 3.744-0.496 0.352-0.592 0.592-0.544 1.408 0.048 0.56 0 1.072-0.096 1.168-0.272 0.288-0.208 2.096 0.096 3.184 0.32 1.072 0.080 2.032-0.784 3.088-0.4 0.464-0.464 0.784-0.32 1.968 0.096 0.96 0.032 1.776-0.224 2.528-0.288 0.896-0.32 1.728-0.16 4.688 0.224 3.792 0.16 4.64-0.464 5.376-0.288 0.304-0.368 0.848-0.32 1.584 0.032 0.608-0.048 1.344-0.208 1.632-0.176 0.336-0.208 0.56-0.032 0.656 0.416 0.288 0.272 1.552-0.288 2.064-0.448 0.416-0.496 0.736-0.448 2.592 0.048 1.808-0.032 2.224-0.496 2.848-0.32 0.48-0.512 1.12-0.512 1.776 0 0.56-0.096 1.216-0.224 1.472-1.2 2.464-1.536 3.92-1.008 4.256 0.4 0.256 0.288 0.944-0.208 1.504-0.72 0.816-1.088 3.856-1.056 8.512 0 2.352-0.096 4.672-0.224 5.2-0.16 0.512-0.272 1.776-0.272 2.8-0.032 1.2-0.176 2.096-0.416 2.464-0.256 0.416-0.352 1.168-0.32 2.192 0.032 0.864-0.16 2.352-0.368 3.344s-0.4 2.416-0.368 3.232c0 0.816-0.096 1.712-0.224 1.984-0.288 0.56 0.128 2.672 0.64 3.312 0.448 0.528 0.448 2.144-0.032 3.696-0.464 1.6-0.464 2.368 0 2.912 0.272 0.336 0.32 0.608 0.176 1.040-0.4 1.072-0.576 4-0.592 10.048 0 3.952 0.080 6.112 0.272 6.608 0.208 0.528 0.256 2.368 0.16 6.416-0.128 5.12-0.096 5.76 0.288 6.368 0.288 0.464 0.416 1.28 0.464 2.496 0.032 1.024 0.176 2.288 0.336 2.832 0.704 2.4 0.736 2.8 0.448 4.112-0.208 0.96-0.208 1.536 0 2.112s0.208 1.024 0.032 1.504c-0.16 0.384-0.256 1.632-0.256 2.784 0.032 1.728 0.128 2.24 0.592 2.96 0.288 0.464 0.752 1.504 1.040 2.352 0.368 1.072 0.688 1.6 1.168 1.888 0.592 0.352 0.672 0.512 0.544 1.168-0.464 2.368-0.464 2.368 0.32 2.784 0.4 0.208 1.040 0.912 1.376 1.552 0.592 1.024 0.688 1.536 0.784 3.904l0.128 2.704 1.328 2.064c1.168 1.76 1.376 2.224 1.376 3.264s0.080 1.2 0.624 1.344c0.32 0.080 0.656 0.4 0.752 0.688 0.16 0.464 0.288 3.952 0.352 7.296 0 0.352 0.176 0.896 0.368 1.2 0.208 0.336 0.368 0.912 0.368 1.296s0.224 1.072 0.496 1.472c0.288 0.432 0.496 1.2 0.496 1.728s0.176 1.248 0.4 1.6c0.32 0.512 0.368 0.992 0.288 2.352-0.176 1.712-0.16 1.728 0.576 2.16 0.4 0.256 0.912 0.848 1.12 1.296 0.224 0.48 0.624 1.072 0.88 1.328 0.256 0.224 0.464 0.64 0.464 0.896 0 0.64 1.2 4.896 1.424 5.072 0.704 0.512 1.488 3.088 1.296 4.352-0.032 0.224 0.336 0.96 0.8 1.664s0.944 1.632 1.008 2.064c0.128 0.528 0.496 1.024 1.168 1.472 1.088 0.784 1.040 0.64 0.96 3.088l-0.048 1.808 0.912 0.528c0.496 0.304 1.088 0.896 1.296 1.328 0.224 0.4 0.576 0.768 0.736 0.768s0.288 0.224 0.288 0.528c0 0.528 0 0.528-0.448-0.032-0.4-0.512-0.464-0.512-0.752-0.176-0.4 0.512-0.16 1.344 0.464 1.536 0.288 0.080 0.576 0.512 0.72 1.152 0.16 0.528 0.464 1.28 0.736 1.6 0.256 0.336 0.64 0.976 0.864 1.424s0.704 0.976 1.056 1.152c0.624 0.304 0.688 0.464 0.816 2.288 0.128 2.064 0.208 2.192 2.176 4.208 0.592 0.608 0.704 0.976 0.304 1.216-0.832 0.528 0.368 3.232 1.6 3.536 0.496 0.128 0.624 0.336 0.624 0.992 0 1.12 1.12 2.832 1.744 2.656 0.72-0.208 0.576 0.384-0.416 1.552l-0.88 1.072 0.88 0.384c0.736 0.336 0.88 0.512 0.88 1.12 0 0.512 0.208 0.896 0.672 1.248 0.64 0.48 0.64 0.528 0.336 1.472-0.32 1.024-0.080 2.4 0.448 2.4 0.128 0 0.416 0.176 0.64 0.416 0.336 0.384 0.336 0.48-0.128 1.248l-0.496 0.816 0.784 1.12c0.416 0.608 1.040 1.376 1.376 1.68 0.336 0.336 0.576 0.864 0.576 1.296 0 0.384 0.176 0.944 0.368 1.216s0.368 0.768 0.368 1.12c0 0.848 0.64 1.776 1.216 1.776 0.816 0 1.008 0.608 0.992 2.96-0.048 2.8 0.080 3.232 1.056 3.696 0.912 0.416 2 2.16 2.288 3.616 0.096 0.512 0.448 1.216 0.752 1.584 0.448 0.432 0.624 0.896 0.624 1.632 0 0.864 0.096 1.072 0.832 1.504 0.768 0.464 0.864 0.656 0.944 1.76 0.048 0.992 0.176 1.216 0.576 1.296 0.8 0.128 1.616 0.608 1.616 0.976 0 0.176 0.336 0.688 0.736 1.12 0.592 0.64 0.704 0.896 0.496 1.28-0.16 0.256-0.368 0.56-0.496 0.64-0.592 0.384-0.208 1.168 0.96 1.968 1.616 1.072 1.92 1.68 1.408 2.672-0.336 0.736-0.336 0.784 0.176 1.072 0.704 0.416 1.904 2.352 1.904 3.056 0 0.352 0.256 0.656 0.704 0.864 0.832 0.384 1.264 0.912 1.28 1.664 0 0.384 0.144 0.56 0.496 0.56 0.416 0 0.496 0.176 0.496 0.992 0 0.912 0.208 1.776 0.8 3.392 0.176 0.464 0.544 0.784 1.088 0.976 1.056 0.352 1.456 1.072 1.040 1.76-0.256 0.432-0.224 0.608 0.208 1.088 0.992 1.2 1.504 2.144 1.68 3.104 0.112 0.592 0.464 1.28 0.864 1.664 0.96 0.944 2 2.96 2 3.92 0 1.2 0.464 2.72 0.88 2.912 0.208 0.080 0.736 0.72 1.168 1.456 0.704 1.072 0.832 1.6 0.944 3.104s0.24 1.984 0.816 2.752c0.4 0.528 1.056 1.088 1.504 1.296 0.688 0.272 0.88 0.56 1.136 1.552 0.24 0.912 0.592 1.424 1.408 2.112 1.904 1.6 2.672 2.416 2.832 3.040 0.16 0.464 0.288 0.528 0.512 0.304 0.256-0.208 0.464-0.208 0.864 0 0.576 0.304 0.448 0.768-0.224 0.768-0.736 0-0.752 0.304-0.16 1.072 0.336 0.416 0.624 1.024 0.624 1.376s0.080 0.608 0.208 0.608c0.368 0 2.496 2.096 2.864 2.832 0.192 0.384 0.64 1.024 0.992 1.408s0.688 1.152 0.784 1.712c0.080 0.528 0.288 1.12 0.512 1.28 1.184 0.976 3.504 3.488 3.84 4.208 0.224 0.464 0.592 0.816 0.864 0.816 0.592 0 2.288 1.376 2.704 2.224 0.192 0.352 0.688 0.976 1.136 1.344 0.512 0.48 0.88 1.152 1.12 2.016 0.192 0.848 0.464 1.328 0.8 1.424 0.336 0.128 0.464 0.416 0.464 1.024 0 0.72 0.096 0.912 0.592 1.040 0.336 0.080 0.736 0.080 0.864-0.032 0.336-0.208 0.336 0.528 0 1.2-0.496 0.912-0.512 2.544-0.048 3.056 0.416 0.464 0.448 1.424 0.288 5.808-0.048 0.768 0 3.52 0.096 6.112 0.128 4.224 0.096 4.896-0.336 6.496-0.832 3.040-0.912 3.392-0.752 4.128 0.048 0.384 0.272 0.912 0.464 1.152 0.32 0.384 0.32 0.592 0 1.776-0.592 2.016-0.736 3.92-0.368 4.512 0.256 0.432 0.224 0.64-0.192 1.216-0.464 0.64-0.464 0.848-0.208 1.888 0.272 1.040 0.24 1.248-0.16 1.776-0.256 0.336-0.464 0.736-0.464 0.864 0 0.16-0.336 0.528-0.752 0.896-0.576 0.512-0.8 0.912-0.864 1.776-0.176 1.504-0.736 2.976-1.488 3.904-0.32 0.416-0.592 0.848-0.592 0.976 0 0.16-0.288 0.688-0.624 1.2s-0.624 1.216-0.624 1.584c0 0.352-0.224 0.992-0.496 1.408-0.288 0.432-0.496 1.2-0.496 1.712 0 0.592-0.192 1.2-0.576 1.664-0.32 0.384-0.88 1.296-1.28 1.984-0.368 0.72-1.088 1.888-1.552 2.624-0.592 0.944-0.832 1.536-0.72 1.984 0.128 0.736-1.12 2.928-2.032 3.6-0.288 0.208-0.512 0.48-0.512 0.64s-0.368 0.656-0.832 1.088c-0.464 0.432-0.928 1.152-1.040 1.552-0.192 0.864-0.784 1.632-1.232 1.632-0.176 0-0.448 0.224-0.592 0.48-0.112 0.272-0.464 0.56-0.736 0.656-0.368 0.128-0.448 0.304-0.336 0.848 0.176 0.912-0.704 1.968-1.968 2.416-1.056 0.384-1.264 0.64-1.504 1.84-0.096 0.512-0.88 1.472-2.32 2.928-1.2 1.2-2.368 2.544-2.592 3.008-0.336 0.656-0.544 0.816-1.232 0.816-0.672 0-0.864 0.128-0.992 0.608-0.080 0.336-0.512 0.896-0.992 1.248-0.576 0.464-0.88 0.976-0.992 1.584-0.096 0.48-0.336 0.896-0.496 0.896s-0.512 0.224-0.752 0.512c-0.256 0.272-0.576 0.48-0.72 0.48-0.16-0.032-0.768-0.128-1.376-0.208z"></path>
<path d="M169.68 468.832c-0.64-0.176-1.408-0.512-1.728-0.736-0.72-0.512-2.272-0.528-2.656-0.032-0.448 0.56-0.832 0.096-0.512-0.656 0.192-0.56 0.096-0.768-0.736-1.632-0.576-0.592-0.96-1.216-0.96-1.584 0-0.416-0.224-0.688-0.672-0.896-1.92-0.864-4.032-3.52-4.032-5.072 0-0.72-0.128-0.992-0.624-1.248-0.336-0.176-0.688-0.272-0.752-0.208-0.192 0.208-1.664-1.536-2.192-2.576-0.368-0.736-0.368-0.992-0.096-1.984 0.256-0.976 0.256-1.28-0.080-1.968-1.248-2.672-1.376-3.232-0.832-3.696 0.496-0.432 0.688-2.352 0.272-2.832-0.592-0.72-0.688-1.936-0.176-2.464 0.88-0.864 1.056-1.504 0.88-3.312-0.096-0.976-0.272-1.984-0.368-2.32-0.176-0.432-0.096-0.768 0.288-1.296l0.512-0.72-0.768-1.376c-0.832-1.584-0.928-2.16-0.656-3.824 0.112-0.816 0.080-1.376-0.128-1.776-0.336-0.656-0.32-3.232 0.032-4.208 0.144-0.336 0.144-1.088 0.032-1.728-0.176-0.992-0.128-1.2 0.32-1.6 0.496-0.432 0.512-0.688 0.464-4.080-0.032-3.312-0.080-3.664-0.592-4.384-0.768-1.072-0.768-3.232 0-3.824 0.464-0.384 0.496-0.464 0.176-0.912-0.656-0.992-0.72-2.672-0.16-4.384 0.288-0.896 0.512-2.224 0.544-3.168 0-0.896 0.032-1.968 0.032-2.4 0.080-2.112-0.048-9.104-0.176-10.448-0.368-3.6-0.416-5.456-0.176-5.968 0.192-0.352 0.192-1.216 0.032-3.008-0.336-3.312-0.208-4.304 0.72-4.48 0.72-0.16 1.376-0.688 1.584-1.248 0.080-0.224 0.368-0.048 0.88 0.512 0.416 0.432 0.912 0.816 1.12 0.816 0.176 0 0.624 0.464 0.992 1.024 0.736 1.168 0.88 1.216 1.504 0.512 0.624-0.736 0.912-0.64 2.080 0.64 0.992 1.088 1.296 2.192 0.768 2.544-0.128 0.080-0.256 0.416-0.256 0.736 0 0.56 0.816 1.168 1.552 1.168 0.176 0 0.624 0.272 1.008 0.592 0.576 0.48 0.736 0.896 0.912 2.032 0.096 0.784 0.448 2.032 0.8 2.784s0.816 1.84 1.040 2.416c0.224 0.592 0.592 1.152 0.832 1.216 0.336 0.096 0.416 0.48 0.416 1.936s0.080 1.856 0.464 2.144c0.256 0.208 0.816 0.72 1.28 1.152 0.816 0.768 0.832 0.784 0.688 2.416-0.128 1.344-0.080 1.68 0.256 1.808 0.64 0.256 1.328 1.68 1.536 3.088 0.144 1.168 0.208 1.344 0.864 1.472 1.12 0.256 1.344 0.72 1.008 2.192-0.176 0.72-0.304 1.76-0.304 2.32v1.024l0.928-0.096 0.912-0.080-0.080 1.664c-0.080 1.536-0.048 1.712 0.576 2.24 0.544 0.48 0.64 0.736 0.496 1.28-0.416 1.808-0.416 2.352 0.128 3.472 0.384 0.864 0.576 1.808 0.672 3.648 0.096 2.352 0.176 2.656 1.264 4.864 1.232 2.576 1.264 2.8 0.816 6.48-0.16 1.376-0.176 2.464-0.048 2.832 0.144 0.352 0.144 0.736 0 0.976-0.368 0.608-0.256 1.168 0.272 1.328 0.672 0.176 1.056 1.328 0.72 2.016-0.288 0.592-0.192 1.728 0.304 2.96 0.272 0.656 0.272 0.976 0 1.664-0.176 0.432-0.416 1.248-0.544 1.76-0.32 1.376-0.448 6.848-0.16 7.6 0.128 0.352 0.288 3.312 0.32 6.544 0.096 5.68 0.096 5.936-0.384 6.448-0.512 0.528-1.136 0.64-1.712 0.272-0.448-0.304-1.952 0.464-2.128 1.040-0.080 0.256-0.32 0.64-0.544 0.848-0.336 0.384-0.336 0.432 0 0.72 0.336 0.256 0.336 0.384 0.080 0.768-0.288 0.352-0.72 0.432-2.288 0.464-1.088 0.032-2.176 0-2.448-0.032s-0.88 0-1.376 0.080c-0.464 0.080-1.376-0.032-2.032-0.208z"></path>
<path d="M384.816 466.256c-0.288-0.208-0.544-0.56-0.544-0.784 0-0.656-1.2-2.112-1.616-1.968-0.368 0.16-0.464-0.16-0.72-1.968-0.048-0.512-0.4-1.408-0.752-1.968s-0.688-1.328-0.784-1.68c-0.096-0.416-0.368-0.72-0.72-0.816-0.752-0.176-1.216-1.376-1.008-2.448 0.096-0.464 0.208-1.6 0.256-2.544s0.224-1.888 0.368-2.096c0.24-0.304 0.080-0.56-1.056-1.472-1.328-1.072-1.376-1.152-1.376-2.32 0-1.472-0.336-2.224-1.040-2.224-0.416 0-0.464-0.096-0.336-0.688 0.368-1.728 0.64-4.080 0.512-4.592-0.080-0.304-0.624-0.912-1.232-1.344s-1.12-0.816-1.12-0.848c-0.032-0.032-0.176-1.072-0.368-2.352-0.256-1.728-0.464-2.4-0.832-2.704-0.624-0.512-0.64-0.72-0.16-1.664 0.192-0.416 0.368-0.944 0.368-1.216 0-0.56-0.912-2.352-1.552-3.040-0.288-0.304-0.416-0.688-0.32-1.152 0.080-0.384 0.192-1.344 0.288-2.16 0.176-1.584-0.16-2.544-1.312-4.048-0.576-0.736-0.992-3.040-0.656-3.568s0.096-1.776-0.416-2.656c-0.256-0.432-0.464-1.2-0.464-1.712 0-0.64-0.112-0.976-0.416-1.072-0.544-0.176-2.048-2.496-2.048-3.104 0-0.256 0.096-0.608 0.224-0.816 0.176-0.256 0-0.688-0.512-1.456-0.752-1.072-0.752-1.152-0.576-3.040 0.256-2.848-0.032-4.384-0.944-5.248-0.672-0.64-0.72-0.784-0.448-1.296 1.28-2.496 1.232-2.352 0.752-2.704-0.256-0.176-0.464-0.56-0.464-0.816s-0.256-0.656-0.512-0.864c-0.464-0.336-0.544-0.608-0.496-2.16 0.032-1.504-0.080-2.144-0.752-3.776-0.656-1.712-0.784-2.288-0.784-4.304-0.032-1.904 0.080-2.464 0.464-3.040 0.864-1.28 1.312-2.288 1.344-2.976 0-0.432 0.336-1.072 0.944-1.68 0.496-0.56 1.056-1.2 1.232-1.424s0.512-0.416 0.768-0.416c0.592 0 1.616-1.152 1.424-1.632-0.096-0.256-0.032-0.336 0.192-0.224 0.192 0.080 0.704-0.16 1.12-0.512s1.168-0.72 1.712-0.816c1.136-0.208 1.488-0.592 0.912-1.024s-0.512-1.072 0.16-1.424c0.288-0.16 0.832-0.56 1.168-0.864 0.336-0.336 0.832-0.64 1.12-0.688s0.592-0.336 0.752-0.656c0.128-0.304 0.4-0.56 0.576-0.56 0.576 0 2.224-1.296 2.368-1.856 0.080-0.272 0-0.688-0.16-0.864-0.4-0.48 0.336-1.536 1.088-1.504 0.368 0.032 0.624-0.176 0.816-0.56 0.128-0.304 0.416-0.608 0.624-0.688 0.224-0.080 0.592-0.464 0.832-0.896 0.24-0.416 0.752-0.976 1.168-1.28 0.4-0.272 0.752-0.736 0.864-0.992 0.080-0.256 0.464-0.608 0.864-0.784 0.512-0.224 0.752-0.48 0.752-0.896 0-0.736 0.24-0.976 0.656-0.592 0.496 0.416 0.704 0.032 0.336-0.656-0.416-0.784 0-1.6 0.912-1.856 0.832-0.208 3.168-1.936 3.504-2.592 0.112-0.272 0.24-0.864 0.24-1.296 0-0.608 0.176-0.896 0.832-1.28 0.464-0.272 0.96-0.784 1.136-1.12s1.248-1.472 2.384-2.576c2.080-1.936 2.384-2.416 1.696-2.416-0.192 0-0.368-0.176-0.368-0.416 0-0.736 0.512-1.376 1.12-1.376 0.864 0 1.328-0.256 1.168-0.64-0.048-0.208 0-0.512 0.176-0.688s0.496-0.72 0.752-1.152c0.368-0.656 0.64-0.848 1.248-0.848 1.376 0 2.384-0.944 3.136-2.928 0.368-0.976 0.624-1.968 0.624-2.192-0.048-0.256 0.224-0.528 0.64-0.72 0.816-0.352 1.008-0.72 1.744-3.184s1.664-3.92 2.72-4.432c1.12-0.528 1.248-0.736 1.248-1.728 0-0.608 0.288-1.072 1.36-2.16 1.12-1.12 1.36-1.536 1.328-2.144-0.096-1.504 0.032-2.16 0.496-2.592 0.288-0.304 0.496-0.976 0.592-1.888 0.080-0.784 0.4-1.936 0.72-2.528 0.288-0.592 0.688-1.328 0.832-1.632 0.224-0.384 0.224-0.992 0.032-2.24-0.224-1.552-0.192-1.728 0.256-2.368 0.288-0.384 0.544-0.864 0.544-1.040s0.16-0.432 0.336-0.528c0.4-0.256 1.040-1.68 1.264-2.8 0.128-0.688 0.256-0.816 0.944-0.896 0.704-0.080 0.832-0.224 1.28-1.472 0.512-1.376 0.512-1.408 0.048-2.24-0.592-1.024-0.256-1.584 0.944-1.584 0.752 0 0.816-0.080 0.96-1.024 0.080-0.56 0.256-1.024 0.4-1.024 0.336 0 0.992-1.408 0.992-2.112 0-0.464 0.192-0.72 0.72-0.944 0.944-0.384 1.056-0.784 0.72-2.192-0.336-1.328-0.128-1.904 0.832-2.144 0.544-0.128 0.592-0.272 0.72-2.192 0.112-1.968 0.144-2.032 1.056-2.912 0.832-0.784 0.96-1.072 1.168-2.592 0.128-1.168 0.4-1.968 0.832-2.544 0.32-0.464 0.832-1.408 1.136-2.112 0.288-0.688 0.72-1.456 0.944-1.712 0.256-0.304 0.32-0.64 0.192-1.152-0.256-0.944-0.192-1.248 0.544-2.8 0.576-1.2 0.736-1.344 1.664-1.536 0.944-0.208 1.008-0.272 1.088-1.152 0.048-0.48-0.16-1.584-0.416-2.4-0.576-1.6-0.672-2.656-0.256-2.656 0.16 0 0.256-0.16 0.256-0.352s0.112-0.4 0.256-0.464c0.16-0.048 0.32-0.72 0.368-1.472 0.128-1.6 0.448-2.224 1.824-3.344 0.992-0.816 1.168-1.408 0.752-2.224-0.368-0.784-0.496-2.592-0.176-2.592 0.176 0 0.512-0.224 0.768-0.512s0.688-0.512 0.96-0.512c0.544 0 1.488-0.512 0.992-0.512-0.176 0-0.368-0.4-0.448-0.896-0.16-0.736 0-1.296 0.864-3.088 0.992-2.112 1.008-2.24 0.72-3.184-0.288-0.912-0.288-1.072 0.256-1.808 0.496-0.688 0.576-1.168 0.672-3.488 0.080-2.272 0.176-2.784 0.592-3.232 0.576-0.64 0.496-1.856-0.176-2.416-0.4-0.336-0.464-2.672-0.112-3.264 0.144-0.256 0.464-0.304 1.12-0.176l0.88 0.176-0.16-2.368c-0.096-1.296-0.256-2.576-0.4-2.8-0.128-0.304-0.128-0.464 0.048-0.464 0.128 0 0.24 0.128 0.24 0.256 0 0.4 0.464 0.304 1.248-0.304 0.576-0.432 0.656-0.64 0.496-0.992-0.176-0.288-0.176-0.512 0-0.608 0.416-0.288 0.256-1.072-0.256-1.456-0.704-0.464-0.464-1.248 0.448-1.68 0.4-0.176 0.96-0.528 1.28-0.784 0.592-0.464 0.592-0.464 0.24-2.576-0.256-1.76-0.416-2.144-0.88-2.368-0.704-0.336-0.736-1.2-0.080-1.376 0.624-0.176 0.656-1.472 0.128-3.008-0.208-0.56-0.336-1.632-0.368-2.4 0-1.072 0.128-1.504 0.624-2.112 0.576-0.688 0.624-0.96 0.624-3.264 0-1.632 0.128-2.8 0.368-3.408 0.256-0.64 0.336-1.632 0.32-3.392-0.048-1.376 0.032-3.216 0.16-4.112 0.192-1.376 0.16-1.664-0.224-2.096-0.368-0.4-0.416-0.768-0.256-2.144 0.096-1.024 0.080-1.712-0.096-1.808-0.368-0.224-0.288-1.152 0.096-1.296 0.464-0.176 0.88-1.456 0.88-2.656 0-0.528 0.16-1.088 0.336-1.248s0.464-0.784 0.64-1.408c0.256-1.024 0.24-1.2-0.336-2.352s-0.624-1.28-0.224-1.552c0.224-0.176 0.464-0.336 0.544-0.336s0.16-1.152 0.16-2.576c0-2.224-0.080-2.592-0.464-2.912-0.336-0.288-0.416-0.528-0.288-1.072 0.096-0.384 0.256-1.040 0.32-1.472 0.080-0.4 0.416-1.072 0.768-1.456 0.544-0.608 0.576-0.768 0.32-1.408-0.16-0.384-0.624-0.912-1.040-1.168l-0.768-0.432 0.176-2.112c0.080-1.152 0.336-2.416 0.544-2.8 0.4-0.816 0.304-1.072-0.656-1.584-0.672-0.352-0.704-0.432-0.448-1.328 0.176-0.688 0.176-1.2-0.032-1.76-0.336-0.96-0.192-1.424 0.544-1.76 0.688-0.304 0.624-1.504-0.128-2.352-0.4-0.432-0.464-0.736-0.32-1.28 0.096-0.384 0.208-1.504 0.288-2.448 0.096-1.584 0.048-1.84-0.544-2.784-0.592-0.912-0.624-1.040-0.256-1.456 0.512-0.592 0.512-2.416 0.032-4.224-0.256-0.944-0.368-1.936-0.256-2.576 0.080-0.56 0.032-1.152-0.128-1.296s-0.096-0.512 0.16-0.992c0.4-0.816 0.256-1.584-0.336-2.064-0.32-0.224-0.4-0.768-0.336-2.96 0.048-2.24-0.032-2.912-0.512-4.304-0.512-1.456-0.544-1.68-0.208-1.888 0.448-0.304 0.464-0.992 0.176-4.464-0.128-1.632-0.096-2.72 0.080-3.232 0.224-0.656 0.176-0.896-0.176-1.376-0.672-0.864-0.96-5.040-0.416-5.856s0.496-1.2-0.224-1.472c-0.4-0.16-0.576-0.384-0.464-0.608 0.080-0.224-0.080-0.512-0.368-0.72-0.624-0.416-0.624-0.848 0-2.464 0.512-1.248 0.512-1.328 0.096-1.808-0.224-0.256-0.752-0.512-1.168-0.56-0.512-0.048-0.832-0.224-0.864-0.528-0.16-0.736 0.176-1.712 0.544-1.712 0.592 0 0.992-0.72 0.72-1.344-0.176-0.384-0.16-0.784 0.080-1.344 0.288-0.736 0.288-0.816-0.256-1.072-0.704-0.336-1.408-1.904-1.296-2.848 0.048-0.416 0.32-0.768 0.752-0.976 0.8-0.384 0.864-0.816 0.176-0.992-0.256-0.080-0.496-0.304-0.496-0.512s-0.224-0.72-0.512-1.12c-0.416-0.64-0.496-1.024-0.4-2.592 0.048-0.992 0.24-2.32 0.416-2.912 0.288-1.040 0.256-1.12-0.464-2.096-0.864-1.12-0.944-1.472-0.4-2.224 0.512-0.72 0.448-1.328-0.224-1.968-0.32-0.304-0.816-1.072-1.12-1.68l-0.576-1.088 0.512-1.216c0.624-1.472 0.624-2.112 0.112-2.544-1.136-0.992-1.2-3.008-0.176-4.8 0.576-0.944 0.496-1.728-0.176-1.968-0.704-0.224-1.008-1.408-1.184-4.352-0.176-2.624-0.192-2.784-0.72-2.848-0.416-0.080-0.576-0.256-0.576-0.72 0-0.352 0.176-0.688 0.368-0.768s0.368-0.384 0.368-0.64c0-0.352-0.176-0.48-0.624-0.48-0.512 0-0.624-0.128-0.624-0.784 0-0.432-0.176-1.584-0.4-2.528-0.4-1.712-0.4-1.76 0.128-2.624 0.448-0.736 0.464-0.992 0.24-1.68-0.16-0.464-0.592-0.96-1.008-1.2-0.704-0.384-0.72-0.416-0.544-1.856 0.128-1.216 0.080-1.648-0.288-2.288-0.256-0.432-0.512-0.784-0.592-0.784-0.288 0-0.128-1.776 0.176-1.888 0.496-0.208 1.744 0.128 2.080 0.512 0.16 0.208 0.496 0.352 0.752 0.352s0.592 0.256 0.72 0.592c0.208 0.592 1.136 1.584 2.832 3.056 1.504 1.296 2.16 1.712 2.768 1.712 0.32 0 0.576 0.128 0.576 0.256 0 0.16-0.176 0.256-0.368 0.256s-0.368 0.080-0.368 0.208c0.032 0.304 0.832 1.216 1.296 1.408s0.544 0.56 0.176 0.816c-0.784 0.512 0.336 1.904 1.552 1.904 0.32 0 0.832 0.288 1.12 0.64 0.368 0.432 0.784 0.64 1.296 0.64 0.768 0 0.768 0.032 0.64 0.896-0.080 0.48-0.368 1.216-0.64 1.632-0.288 0.416-0.512 0.784-0.512 0.864 0 0.176 1.056 0.48 1.424 0.432 0.64-0.080 1.28 0.816 1.28 1.76 0 0.512 0.176 1.2 0.368 1.552 0.176 0.352 0.752 1.504 1.232 2.544 0.512 1.040 1.36 2.416 1.904 3.040 0.912 0.992 0.992 1.2 0.864 2.144-0.128 0.96-0.080 1.088 1.216 2.448 0.752 0.784 1.408 1.712 1.488 2.064 0.176 0.816 0.416 1.376 1.28 2.8 0.4 0.64 0.832 1.536 0.992 1.984s0.496 1.152 0.8 1.504c0.256 0.352 0.496 0.864 0.496 1.152 0 0.256 0.256 0.56 0.576 0.688 0.512 0.208 0.624 0.464 0.752 2.24 0.208 2.464 0.368 3.136 0.768 3.136 0.656 0 1.12 0.784 1.12 1.904 0 0.864 0.128 1.2 0.496 1.408 0.256 0.16 0.496 0.528 0.496 0.864 0 0.656 0.864 2.848 1.216 3.088 0.112 0.080 0.176 0.352 0.080 0.608-0.080 0.336 0.048 0.592 0.4 0.768 0.288 0.176 0.512 0.48 0.512 0.736 0 0.224 0.16 0.656 0.32 0.976 1.2 2.144 1.664 3.264 1.664 4.096 0 0.688 0.16 1.072 0.496 1.296 0.256 0.176 0.496 0.464 0.496 0.64 0 0.208 0.256 0.608 0.624 0.944 0.496 0.48 0.624 0.848 0.624 1.84 0 1.072 0.080 1.216 0.512 1.216 1.248 0 1.456 0.384 1.456 2.8v2.272l0.864 0.72c0.752 0.608 0.864 0.864 0.864 1.808 0 0.736 0.224 1.504 0.64 2.24 0.576 0.992 0.624 1.344 0.512 2.592-0.080 0.784-0.224 1.712-0.336 2.016-0.080 0.416-0.048 0.592 0.176 0.592 0.592 0.032 1.712 2.192 2 3.824 0.112 0.848 0.416 1.712 0.592 1.904 0.256 0.256 0.336 1.072 0.336 2.928 0 2.224 0.048 2.576 0.448 2.72 0.992 0.352 1.28 0.896 1.28 2.352 0.032 0.848 0.176 1.632 0.368 1.904s0.368 0.768 0.368 1.072 0.192 0.816 0.464 1.152c0.368 0.48 0.4 0.72 0.176 1.456-0.224 0.784-0.192 0.944 0.336 1.424 1.28 1.168 2.16 2.832 1.76 3.312-0.176 0.208-0.128 0.688 0.128 1.424 0.208 0.64 0.496 2.224 0.624 3.536 0.288 2.8 0.496 3.344 1.232 3.168 0.496-0.16 0.496-0.096 0.16 0.736s-0.32 0.992 0.128 1.968c0.512 1.168 0.592 2.496 0.368 6.832-0.096 2.064-0.048 2.672 0.224 2.912s0.32 0.688 0.192 1.856c-0.080 0.864 0 2.4 0.176 3.472 0.176 1.040 0.256 2.576 0.256 3.408-0.080 1.76 0.32 3.44 0.832 3.648 0.496 0.176 0.448 1.84-0.080 2.416-0.368 0.432-0.368 0.512 0.128 1.040 1.12 1.216 1.296 2.368 1.264 7.184-0.032 2.752 0.048 3.168 0.704 3.952 0.544 0.688 0.624 1.024 0.624 2.464 0 0.912-0.080 1.712-0.16 1.776-0.080 0.096 0.080 0.512 0.32 0.944 0.752 1.28 1.424 3.536 1.12 3.648-0.16 0.048-0.496 0.256-0.752 0.464-0.448 0.336-0.416 0.384 0.464 1.248 0.784 0.736 0.912 0.992 0.752 1.472-0.208 0.656-0.208 0.768 0.176 5.040 0.32 3.744 0.32 4.72-0.048 5.68-0.4 0.992-0.096 3.104 0.64 4.592 0.336 0.688 0.544 1.344 0.464 1.504-0.080 0.128-0.192 1.168-0.24 2.288-0.080 1.12-0.256 2.416-0.464 2.928-0.4 0.944-0.496 2.912-0.176 3.232 0.096 0.096 0.288-0.224 0.448-0.784 0.448-1.456 0.464 0.72 0.16 10.88-0.096 3.296-0.096 6.272 0 6.608 0.128 0.352 0.096 1.904-0.080 3.648-0.256 2.656-0.256 3.104 0.080 3.856 0.336 0.72 0.336 0.944 0.048 1.472-0.176 0.336-0.32 1.12-0.336 1.728 0 0.64-0.208 1.456-0.464 1.904-0.288 0.512-0.592 1.776-0.784 3.52-0.288 2.704-0.288 2.784 0.208 3.52 0.64 0.896 0.704 1.776 0.16 2.96-0.256 0.592-0.336 1.168-0.24 1.808 0.288 1.712 0.208 2.224-0.416 2.784-0.592 0.512-0.624 0.688-0.496 1.984 0.16 1.552 0 1.936-1.584 3.744-0.592 0.688-1.088 0.992-1.536 0.992-1.056 0-1.248 0.384-1.088 2.352 0.16 1.664 0.096 1.776-0.512 2.464-0.368 0.416-1.12 0.912-1.632 1.168-0.832 0.384-1.040 0.64-1.488 1.984-0.592 1.856-0.64 3.056-0.096 3.52 0.448 0.384 1.584 2.592 1.584 3.104 0 0.208-0.224 0.656-0.496 1.024-0.64 0.848-0.624 1.584 0.032 2.064 0.464 0.336 0.512 0.56 0.448 2.416-0.080 1.84-0.176 2.112-0.816 2.784-0.64 0.72-0.672 0.816-0.4 1.632 0.416 1.168 0.112 2.976-0.672 4.176-0.544 0.848-0.592 1.072-0.368 1.856 0.176 0.56 0.208 1.024 0.032 1.328-0.144 0.304-0.144 0.896 0.032 1.664l0.256 1.216-1.328 1.408-1.328 1.424 0.32 1.28c0.192 0.72 0.336 2.032 0.336 2.976 0 1.552-0.048 1.76-0.624 2.144-0.464 0.304-0.576 0.56-0.464 1.088 0.080 0.384 0 1.376-0.16 2.224-0.176 0.816-0.32 1.936-0.368 2.464s-0.272 1.2-0.512 1.504c-0.336 0.384-0.464 0.912-0.464 2.096 0 1.424-0.080 1.712-0.752 2.496-0.752 0.864-0.768 0.976-0.8 3.408 0 1.408-0.112 2.848-0.256 3.216-0.16 0.432-0.176 0.992-0.032 1.472 0.288 1.072-0.096 2.112-1.168 2.96-0.784 0.608-0.832 0.768-0.688 1.6 0.256 1.584 0.192 2.272-0.256 3.008-0.256 0.384-0.576 1.072-0.72 1.472-0.112 0.432-0.496 0.864-0.784 1.024-0.32 0.128-0.672 0.56-0.8 0.976-0.144 0.384-0.464 1.024-0.752 1.376-0.256 0.352-0.496 0.976-0.496 1.376 0 1.12-0.72 2.72-1.456 3.296-0.368 0.256-0.864 0.976-1.12 1.584s-0.768 1.808-1.168 2.672c-0.416 0.912-0.72 1.984-0.72 2.592 0 0.816-0.128 1.088-0.544 1.328-0.672 0.384-1.056 0.848-1.584 1.936-0.224 0.464-0.592 0.896-0.864 0.976-0.576 0.176-0.592 0.608-0.128 1.28 0.416 0.592 0.288 1.024-0.624 2.112-0.368 0.464-0.704 0.944-0.704 1.088s-0.288 0.656-0.64 1.152c-0.72 0.976-1.552 3.776-1.584 5.232 0 1.024-0.592 1.76-1.424 1.76-0.464 0-0.544 0.16-0.544 1.088s-0.080 1.168-0.624 1.424c-0.592 0.272-0.64 0.384-0.544 1.84 0.080 1.6 0 1.76-1.088 2.112-0.336 0.096-0.448 0.432-0.448 1.536 0 1.072-0.080 1.472-0.464 1.728-0.672 0.48-1.536 2.272-1.36 2.832 0.096 0.336-0.128 0.784-0.8 1.504-0.832 0.864-0.96 1.152-0.96 2.192 0 1.168 0 1.2-1.12 1.6l-1.12 0.432-0.080 1.376c-0.080 1.248-0.128 1.408-0.784 1.664-0.496 0.176-0.768 0.512-0.88 0.992-0.176 0.784-0.992 2.656-1.632 3.664-0.224 0.352-0.464 1.040-0.544 1.552-0.128 0.736-0.416 1.152-1.456 1.936-1.328 1.024-1.376 1.2-1.040 2.832 0.176 0.736 0.128 0.848-0.256 0.768-0.336-0.048-0.496 0.096-0.544 0.56-0.048 0.352-0.224 0.992-0.4 1.408s-0.4 0.944-0.448 1.152c-0.080 0.208-0.816 0.896-1.664 1.536l-1.584 1.152-0.048 1.712c-0.048 1.888-0.336 2.656-1.12 2.88-0.4 0.128-0.464 0.304-0.336 0.816 0.176 0.736-0.224 1.344-0.864 1.344-0.496 0-0.784 0.592-0.592 1.152 0.224 0.592-0.128 1.664-0.512 1.664-0.192 0-0.544 0.416-0.752 0.896-0.224 0.512-0.64 1.024-0.88 1.168-0.368 0.208-0.416 0.352-0.224 0.56 0.496 0.512 0.336 1.664-0.336 2.112-0.448 0.304-0.624 0.608-0.576 1.088 0.080 0.944-0.256 1.376-0.944 1.216-0.912-0.176-2.816 1.84-2.816 2.96 0 0.688-0.208 1.024-0.992 1.68-0.752 0.608-0.992 0.992-0.992 1.552 0 0.688-0.080 0.768-0.752 0.768-0.944 0-1.84 0.944-2.096 2.112-0.096 0.592-0.576 1.2-1.632 2.096-0.8 0.688-1.456 1.408-1.456 1.584s-0.16 0.416-0.32 0.512c-0.208 0.096-0.544 0.56-0.832 0.976-0.24 0.432-1.040 1.344-1.744 2.096-0.88 0.912-1.328 1.584-1.456 2.24-0.128 0.784-0.256 0.912-0.672 0.784-0.416-0.096-0.944 0.304-2.448 1.904-1.056 1.12-1.92 2.192-1.92 2.368 0 0.464-0.672 0.992-0.96 0.816-0.224-0.16-1.536 1.152-2.336 2.272-0.16 0.224-0.672 0.512-1.136 0.608-0.704 0.128-0.88 0.336-0.992 0.864-0.080 0.384-0.464 0.944-0.88 1.248-0.448 0.336-1.488 1.424-2.288 2.448-0.832 0.992-1.664 1.84-1.872 1.84s-0.544 0.272-0.752 0.64c-0.224 0.352-1.12 0.992-2 1.456-0.864 0.432-1.68 0.992-1.824 1.248-0.128 0.256-0.512 0.48-0.88 0.528-0.576 0.048-0.72 0.224-0.768 0.848-0.080 0.864-0.624 1.408-1.408 1.408-0.288 0-1.088 0.272-1.76 0.64s-1.568 0.64-2.048 0.64c-0.96 0-3.744 0.72-4.080 1.040-0.368 0.352-1.216 0.272-1.824-0.176zM437.84 26.368c0-0.048-0.288-0.096-0.64-0.096s-0.576 0.096-0.496 0.224c0.16 0.208 1.136 0.096 1.136-0.128z"></path>
<path d="M265.936 350.528c-0.832-0.256-1.296-0.272-1.632-0.080-0.816 0.432-0.944 0.304-1.136-1.168-0.16-1.328-0.128-1.472 0.496-2.144s0.64-0.784 0.368-1.664c-0.416-1.28-0.096-5.344 0.496-6.368 0.624-1.088 0.832-2.064 0.832-4.096 0-1.28-0.128-2.016-0.416-2.416-0.416-0.64-0.512-2.368-0.176-3.344 0.128-0.384 0.080-0.896-0.144-1.424-0.304-0.768-0.416-0.848-1.056-0.688-0.464 0.096-0.736 0.080-0.736-0.096s0.128-0.272 0.256-0.272c0.176 0 0.208-0.352 0.112-0.944-0.256-1.6-0.624-2.32-1.488-2.832-0.512-0.336-0.832-0.768-0.944-1.28-0.224-1.168-2.496-2.16-3.744-1.68-0.416 0.176-1.12 1.664-1.12 2.368 0 0.256-0.4 0.912-0.864 1.472-0.816 0.976-0.864 1.152-0.816 2.672 0.032 1.552-0.32 2.752-0.784 2.752-0.16 0-0.256 0.416-0.256 0.896 0 0.608-0.128 0.896-0.368 0.896-0.192 0-0.368-0.224-0.368-0.512 0-0.384-0.176-0.512-0.72-0.512-0.4 0-0.832 0.176-1.040 0.416-0.176 0.208-0.736 0.608-1.264 0.896-0.544 0.272-1.008 0.656-1.12 0.864-0.080 0.208-0.256 0.384-0.464 0.384-0.384 0-0.448-0.72-0.096-1.28 0.176-0.304 0.096-0.416-0.448-0.512-0.512-0.096-0.832-0.464-1.296-1.536-0.464-1.040-0.88-1.536-1.616-1.904-0.928-0.512-0.96-0.56-0.88-1.728 0.080-1.088-0.512-2.784-0.928-2.704-0.080 0-0.592 0.336-1.136 0.688-3.456 2.32-3.552 2.416-2.96 3.088 0.288 0.352 0.336 0.688 0.176 1.776-0.288 1.84-0.464 1.968-1.872 1.328-0.64-0.304-1.552-0.528-2-0.528-0.64 0-1.12-0.256-1.92-1.024-0.592-0.56-1.168-1.024-1.28-1.024-0.464-0.032-2.080-2.656-2.080-3.408 0-0.416-0.288-1.12-0.624-1.6-0.624-0.848-0.64-0.992-0.576-3.472l0.096-2.592-0.8-0.384c-0.448-0.208-0.816-0.528-0.816-0.736-0.032-1.664-1.712-3.168-3.872-3.472-1.12-0.16-1.28-0.096-1.36 0.304-0.080 0.256 0.032 0.64 0.192 0.848 0.368 0.464 0.192 1.536-0.256 1.552-0.16 0-0.624 0.032-1.12 0.048-0.496 0.032-0.88 0.208-0.96 0.416s-0.368 0.64-0.704 0.976c-0.512 0.512-0.72 0.56-2.048 0.432-0.816-0.096-1.664-0.096-1.872 0-0.368 0.128-0.368 0.208-0.032 0.72 0.496 0.736 0.496 0.976-0.032 0.976-0.384 0-3.040-2.672-3.040-3.088 0-0.096 0.128-0.272 0.256-0.352 0.416-0.256 0.272-1.296-0.256-1.776-0.288-0.256-0.496-0.592-0.496-0.768s-0.288-0.608-0.624-0.992c-0.336-0.384-0.624-0.912-0.624-1.2s-0.224-0.592-0.512-0.688c-0.832-0.336-1.2-1.856-0.928-3.696 0.336-2.096 0.176-2.592-1.12-3.36-1.712-1.024-1.92-1.408-2-3.392-0.032-1.024-0.288-2.4-0.592-3.216-0.288-0.784-0.512-1.856-0.512-2.352 0-0.688-0.176-1.072-0.736-1.584-0.832-0.768-0.88-1.024-0.384-2.464 0.832-2.448 0.784-2.784-0.416-4.048-1.040-1.088-1.488-1.296-2.336-1.2-0.192 0.032-0.592-0.224-0.912-0.608-0.336-0.352-1.28-1.216-2.096-1.936-1.632-1.408-1.92-1.456-4.448-1.024-0.88 0.16-2.32 0.272-3.216 0.272-1.232 0-1.92 0.16-3.008 0.688-0.784 0.416-1.424 0.848-1.424 0.976 0 0.16-0.416 0.464-0.912 0.688-0.8 0.384-0.96 0.384-1.408 0.048-0.288-0.176-0.72-0.352-0.96-0.352s-0.688-0.16-0.992-0.304c-0.288-0.176-1.296-0.336-2.24-0.336-1.664 0-1.712-0.032-1.904-0.688-0.096-0.416-0.8-1.296-1.552-2.016-0.912-0.864-1.376-1.504-1.376-1.888 0-0.336-0.176-0.64-0.368-0.736s-0.368-0.384-0.368-0.656c0-0.272-0.176-0.512-0.368-0.512s-0.368-0.096-0.368-0.256c0-0.128-0.32-0.56-0.736-0.944-0.384-0.352-0.736-0.816-0.736-0.976s-0.32-0.384-0.72-0.464c-0.592-0.128-0.864-0.432-1.456-1.776-0.8-1.712-1.12-2.112-1.904-2.272-0.448-0.080-0.496-0.256-0.416-1.664s0.048-1.584-0.448-1.728c-0.288-0.096-0.672-0.048-0.832 0.096s-0.464 0.272-0.72 0.272c-0.624 0-0.88-0.768-0.368-1.072 0.544-0.304 0.576-2.24 0.032-3.824-0.224-0.688-0.336-1.776-0.288-2.656 0.080-1.344 0.112-1.504 0.688-1.664 0.512-0.128 0.544-0.176 0.192-0.352-0.24-0.096-0.448-0.384-0.448-0.608s-0.176-0.688-0.384-0.992c-0.288-0.4-0.336-0.864-0.224-1.68 0.16-0.912 0.368-1.296 1.136-1.936l0.992-0.784-0.64-0.768c-0.72-0.896-0.8-1.712-0.176-1.936 1.408-0.48 2.464-1.168 2.88-1.904 0.256-0.464 0.752-1.152 1.168-1.536 0.464-0.464 0.688-0.912 0.688-1.472 0-0.464 0.256-1.152 0.512-1.584 0.384-0.56 0.496-0.992 0.384-1.728-0.096-0.784-0.032-1.072 0.448-1.472 0.512-0.464 0.544-0.592 0.32-1.984-0.288-1.728-0.288-1.552 0.048-3.488 0.16-0.816 0.176-1.632 0.080-1.776-0.272-0.432-0.592-3.296-0.624-5.712-0.048-1.68 0.032-2.192 0.384-2.592 0.288-0.336 0.384-0.736 0.288-1.216-0.288-1.584-0.384-8.48-0.16-10.656 0.336-2.96 0.32-3.392-0.208-5.472-0.288-0.96-0.448-1.776-0.368-1.84 0.048-0.048 0.16-0.768 0.224-1.552 0.128-1.376 0.096-1.472-0.496-1.712-0.384-0.16-0.624-0.432-0.624-0.816 0-0.784-0.224-1.040-1.088-1.344-0.624-0.208-0.8-0.48-1.12-1.728-0.288-1.072-0.672-1.728-1.376-2.448-1.424-1.424-2.080-2.448-2.080-3.184 0-0.384-0.336-0.96-0.768-1.456-0.704-0.72-0.72-0.816-0.368-1.216 0.512-0.608 0.512-0.64-0.448-1.728-0.448-0.528-0.88-1.28-0.96-1.632-0.224-0.864-1.088-1.808-2.096-2.24-0.448-0.208-0.768-0.48-0.72-0.64 0.128-0.336-0.592-1.68-0.864-1.68-0.128 0-0.288 0.16-0.336 0.352-0.080 0.288-0.496 0.224-2.144-0.288-1.088-0.352-2.368-0.64-2.832-0.64-0.576 0-1.088-0.224-1.632-0.736-0.992-0.864-2.16-1.024-2.832-0.384-0.592 0.56-1.168 0.384-1.552-0.48-0.224-0.528-0.448-0.64-1.28-0.608-0.592 0-1.408-0.208-2-0.512-0.736-0.4-1.408-0.528-2.832-0.528-1.088 0-2-0.128-2.176-0.304-0.192-0.208-0.368-0.208-0.592 0-0.176 0.128-0.592 0.288-0.928 0.288-1.376 0.048-4.368 0.48-5.264 0.768-0.672 0.224-1.168 0.224-1.712 0.048-0.448-0.128-1.776-0.336-2.96-0.4-2.048-0.176-2.208-0.224-3.008-1.040-0.464-0.48-1.12-0.896-1.488-0.896-0.336-0.032-0.992-0.080-1.408-0.16-0.448-0.048-1.664-0.128-2.688-0.16-1.712-0.048-1.968-0.16-3.136-1.024-1.36-0.992-2.624-1.216-3.248-0.608-0.272 0.256-0.32 0.128-0.208-0.656 0.16-0.944 0.16-0.944-0.96-1.248-1.056-0.304-1.488-0.72-0.72-0.72 0.208 0 0.368-0.096 0.368-0.256 0-0.128-0.208-0.256-0.464-0.256s-0.592-0.176-0.768-0.384-0.624-0.384-0.96-0.384c-0.368 0-0.88-0.176-1.168-0.384-0.24-0.208-0.624-0.384-0.864-0.384s-0.464-0.16-0.544-0.352c-0.208-0.512-1.168-0.608-1.968-0.208-0.88 0.432-1.504 0.224-1.344-0.464 0.128-0.528-1.376-2.544-1.92-2.544-0.208 0-0.496-0.208-0.672-0.464-0.176-0.288-0.592-0.608-0.88-0.784-0.624-0.336-1.328-1.76-1.456-2.8-0.128-1.248-0.224-1.328-1.552-1.152-1.136 0.16-1.248 0.128-1.456-0.432-0.128-0.336-0.544-0.912-0.912-1.28-3.424-3.264-4.048-3.92-4.048-4.432 0-0.288 0.128-0.656 0.288-0.816 0.288-0.304-0.176-1.424-1.168-2.8-0.32-0.432-0.592-0.96-0.592-1.2 0-0.48-0.944-1.168-1.664-1.168s-1.136-0.848-0.944-1.76c0.096-0.528 0-0.816-0.496-1.296-0.336-0.336-0.624-0.784-0.624-1.024s-0.224-0.64-0.496-0.896c-0.288-0.256-0.496-0.768-0.496-1.152 0-0.992-1.168-3.568-2.032-4.384-0.4-0.352-0.704-0.944-0.704-1.28s-0.32-0.944-0.736-1.344c-0.496-0.48-0.736-0.992-0.736-1.456 0-0.768-0.624-2.24-1.056-2.544-0.16-0.080-0.448-0.528-0.624-1.024-0.224-0.464-0.64-0.944-0.96-1.088-0.64-0.304-0.96-1.072-0.576-1.472 0.336-0.352 0.368-1.536 0.032-1.328-0.128 0.080-0.256 0.384-0.256 0.656 0 0.72-0.592 0.464-0.688-0.288-0.048-0.336 0.080-0.736 0.288-0.896 0.576-0.432 0.544-1.856-0.032-3.312-0.288-0.688-0.592-1.472-0.672-1.728-0.080-0.224-0.512-0.656-0.992-0.976-0.8-0.48-0.832-0.56-0.624-1.424 0.256-1.216 0.048-4.032-0.4-5.168-0.208-0.48-0.464-2.544-0.624-4.592s-0.368-4.672-0.464-5.856c-0.128-1.248-0.128-2.352 0-2.592s0.224-1.088 0.224-1.936c0-1.152-0.128-1.68-0.512-2.16-0.288-0.384-0.576-1.072-0.64-1.536-0.080-0.736 0-0.944 0.64-1.536 0.768-0.656 0.96-1.376 0.544-2.16-0.128-0.256-0.128-1.152 0.032-2.224 0.128-0.976 0.224-2.784 0.208-3.968s0.16-3.056 0.336-4.128c0.336-1.664 0.336-2.448 0.128-5.024-0.208-2.224-0.208-3.296 0-3.872 0.144-0.432 0.272-1.376 0.272-2.112 0-1.072 0.128-1.424 0.624-1.904 0.448-0.432 0.624-0.864 0.624-1.584 0-0.56 0.176-1.344 0.4-1.76 0.224-0.464 0.416-1.6 0.448-2.784 0.080-1.584 0.208-2.144 0.624-2.704 0.4-0.528 0.512-1.072 0.544-2.496 0.032-0.992 0.096-1.504 0.16-1.088 0.24 1.584 1.68 0.256 1.584-1.456-0.032-0.864 0.128-1.344 0.688-2.24 0.416-0.64 0.864-1.68 1.008-2.352 0.368-1.76 0.88-2.704 2.032-3.728l0.992-0.912-0.464-0.816-0.448-0.848 0.864-0.768c2.272-2.032 2.24-2.016 2.176-3.056-0.032-0.688 0.128-1.216 0.496-1.76 0.32-0.432 0.544-1.12 0.544-1.632 0-0.72 0.176-1.024 0.992-1.68 0.544-0.432 1.056-1.072 1.136-1.408 0.096-0.416 0.448-0.72 0.96-0.896 0.864-0.288 1.168-0.768 0.96-1.376-0.080-0.208 0.080-0.592 0.32-0.848s0.768-0.896 1.168-1.408c0.368-0.528 0.88-1.024 1.136-1.088s0.864-0.768 1.376-1.536c0.832-1.296 0.96-1.408 1.872-1.408 0.88 0 0.96-0.048 0.816-0.608-0.096-0.416-0.032-0.64 0.288-0.736 0.224-0.096 0.368-0.416 0.336-0.736s-0.032-0.816 0-1.088c0.032-0.464 0.080-0.432 0.336 0.128 0.288 0.592 0.448 0.64 1.968 0.608 1.008 0 1.664 0.096 1.68 0.256s0 1.504 0 2.976c0.032 2.8-0.256 3.792-1.168 4.592-0.672 0.56-1.088 1.888-1.088 3.392 0 1.12-0.096 1.456-0.464 1.648-0.4 0.224-0.464 0.656-0.576 2.624-0.096 1.552-0.288 2.656-0.576 3.216-0.272 0.56-0.416 1.376-0.4 2.352 0 1.072-0.096 1.648-0.448 2.064-0.368 0.48-0.416 0.912-0.32 3.168 0.096 2.032 0.032 2.752-0.288 3.36-0.64 1.296-0.8 3.856-0.544 9.376 0.096 1.968 0.208 4.384 0.224 5.36 0.032 0.992 0.176 1.968 0.288 2.16 0.464 0.768 1.088 2.96 1.12 3.904 0 0.608 0.128 1.024 0.368 1.12 0.624 0.224 1.12 1.472 1.12 2.752s0.32 2.064 1.904 4.432c1.008 1.552 1.056 1.68 1.008 3.312-0.080 1.424 0 1.808 0.464 2.416 0.416 0.528 0.576 1.072 0.576 1.936 0 0.736 0.16 1.328 0.336 1.536 0.208 0.16 0.496 0.688 0.64 1.168 0.16 0.464 0.624 1.088 1.040 1.408 0.672 0.512 0.72 0.64 0.592 1.6-0.144 0.992-0.096 1.088 1.248 2.496 1.088 1.152 1.376 1.664 1.424 2.4 0.080 0.72 0.32 1.12 1.088 1.856 1.168 1.072 2.512 3.216 2.512 4 0 0.352 0.208 0.608 0.512 0.688 0.368 0.096 0.464 0.288 0.336 0.656-0.16 0.512 1.136 2.192 3.504 4.512 0.592 0.592 1.056 1.168 1.056 1.328s0.288 0.512 0.656 0.736c0.832 0.56 1.792 1.632 1.792 2.032 0 0.16 0.448 0.688 0.96 1.152 0.544 0.464 1.12 1.168 1.28 1.552 0.176 0.416 0.576 0.768 0.944 0.848 1.328 0.288 2.816 0.944 3.2 1.424 0.224 0.256 0.832 0.944 1.376 1.504l0.96 1.024 4.752-0.16 1.36 1.072c1.184 0.944 1.376 1.024 1.76 0.688 0.464-0.432 1.2-0.464 1.2-0.032 0.032 0.688 1.552 2.032 2.576 2.272 2.336 0.528 2.32 0.528 3.136-0.16 1.040-0.912 1.36-0.848 1.872 0.416 0.288 0.656 0.32 0.656 2.16 0.528l1.84-0.16 1.088 1.888 2.288-0.128c2.224-0.128 2.288-0.096 2.832 0.528 0.544 0.656 0.576 0.656 3.2 0.48 1.424-0.080 3.184-0.224 3.872-0.304 1.12-0.16 1.36-0.080 1.824 0.416 0.512 0.528 0.624 0.56 2.768 0.288 1.536-0.176 2.384-0.176 2.72 0 0.656 0.384 3.040 0.032 3.744-0.56 0.32-0.288 0.864-0.48 1.2-0.48s0.928-0.16 1.344-0.352c0.368-0.208 1.92-0.512 3.408-0.656 1.504-0.176 2.88-0.464 3.088-0.64 0.192-0.208 1.296-0.72 2.464-1.152 1.664-0.64 2.32-0.768 3.168-0.64 0.72 0.096 1.040 0.080 1.040-0.16 0-0.464 2.048-2.24 2.624-2.272 0.288 0 0.8-0.208 1.12-0.464s0.784-0.528 1.008-0.64c0.224-0.080 0.448-0.416 0.496-0.736 0.048-0.384 0.288-0.608 0.64-0.656 0.32-0.048 0.672-0.352 0.784-0.688s0.496-0.784 0.832-1.024c0.336-0.224 0.704-0.64 0.768-0.912 0.288-0.944 0.832-1.248 1.84-1.088 0.816 0.128 0.992 0.080 1.264-0.432 0.176-0.336 0.464-0.736 0.704-0.912 0.544-0.432 2.784-1.088 3.696-1.088 0.464 0 0.928-0.208 1.216-0.528 1.040-1.28 1.952-1.584 4.416-1.536 1.504 0.032 2.464-0.048 2.704-0.256 0.256-0.208 1.008-0.256 2.592-0.128 2.192 0.176 2.256 0.16 3.072-0.528 2.288-1.904 2.32-1.936 4.256-1.024 0.384 0.176 0.736 0.176 1.168-0.032 0.368-0.176 0.672-0.208 0.736-0.048 0.288 0.512 1.728 0.256 2.416-0.384 0.368-0.352 0.672-0.768 0.672-0.864 0-0.128 0.688-0.464 1.536-0.784 1.28-0.48 1.664-0.528 2.416-0.288 0.512 0.16 1.136 0.288 1.408 0.288 0.576 0 1.2-0.656 1.36-1.408 0.048-0.336 0.256-0.48 0.576-0.432 2.048 0.384 2.24 0.352 3.040-0.336 0.416-0.352 0.832-0.896 0.912-1.152 0.16-0.512 0.288-0.528 3.088-0.56 0.464 0 1.632 0.16 2.544 0.304 1.264 0.224 1.856 0.256 2.304 0.032 0.832-0.384 2.736-0.352 4.080 0.048 0.832 0.288 1.552 0.304 2.944 0.096l1.84-0.224 0.736 0.896c0.752 0.896 0.8 0.896 2.288 0.768 1.664-0.16 1.504-0.288 2.16 1.632 0.080 0.224 0.288 0.208 0.88-0.096 1.184-0.608 2.944-0.304 4.192 0.736 0.944 0.768 1.136 0.848 2.592 0.784 1.552-0.080 1.584-0.048 2.128 0.784 0.64 0.992 1.904 1.584 3.248 1.456 0.752-0.048 1.056 0.048 1.504 0.592 0.32 0.336 0.576 0.848 0.544 1.088-0.032 0.336 0.256 0.48 1.168 0.608 0.768 0.128 1.424 0.432 1.856 0.848 0.368 0.352 0.784 0.656 0.96 0.656s0.496 0.256 0.8 0.56l0.496 0.56 0.752-0.592c0.544-0.416 1.040-0.528 1.68-0.48l0.912 0.080 0.032 1.28c0 0.72 0.032 1.344 0.048 1.456s0.624-0.032 1.28-0.304c0.688-0.288 1.552-0.512 1.904-0.512 0.864 0 2.752 1.152 3.664 2.24l0.768 0.912 0.88-0.72c0.512-0.416 1.056-0.656 1.28-0.56 0.416 0.16 0.496 0.56 0.128 0.784-0.464 0.304 0.256 0.896 1.12 0.896 0.88 0 2.464 0.608 2.72 1.040 0.128 0.176 0.576 0.224 1.248 0.096 1.088-0.16 1.12-0.16 1.456 0.736 0.272 0.64 0.576 0.912 1.088 1.040 0.4 0.080 0.864 0.336 1.040 0.528s0.592 0.352 0.96 0.352c0.544 0 0.752 0.16 0.96 0.784 0.448 1.344 4.080 5.584 4.816 5.584 0.368 0 0.992 0.688 1.2 1.344 0.096 0.256 0.496 0.592 0.912 0.72 0.544 0.208 0.752 0.48 0.88 1.152 0.128 0.64 0.256 0.864 0.64 0.864 0.32 0 0.592 0.288 0.752 0.768 0.288 0.816 1.28 1.28 2.768 1.28 0.416 0 1.040 0.208 1.36 0.432 0.704 0.512 3.616 1.6 4.256 1.6 0.24 0 0.592 0.336 0.816 0.736 0.416 0.896 0.88 1.072 2.864 1.168 1.664 0.080 2.080 0.336 2.272 1.376l0.16 0.736 2.176-0.48c1.184-0.256 2.832-0.464 3.632-0.48s2.336-0.176 3.424-0.4c1.376-0.304 2.752-0.384 4.656-0.304 2.448 0.096 3.824-0.080 5.136-0.64 0.192-0.080 0.72-0.176 1.12-0.224 0.624-0.080 0.752-0.208 0.816-0.848 0.096-0.912 0.4-1.152 1.488-1.152 0.592 0 0.8 0.096 0.8 0.464 0 0.288 0.144 0.176 0.4-0.336 0.672-1.328 1.088-1.664 2.16-1.664s2.192-0.784 2.944-2.064c0.368-0.64 0.512-0.688 1.056-0.48 0.96 0.384 1.84 0.304 2.032-0.128 0.208-0.656 2.288-1.584 3.872-1.728 1.664-0.176 2.384-0.688 1.904-1.296-0.256-0.304-0.176-0.512 0.512-1.152 0.448-0.432 1.28-1.024 1.888-1.296 0.656-0.336 1.040-0.688 1.040-0.976s0.416-0.912 0.944-1.472c0.512-0.528 1.056-1.168 1.168-1.376s0.448-0.512 0.72-0.656c0.256-0.16 0.544-0.64 0.624-1.088 0.080-0.48 0.368-0.976 0.752-1.248 0.8-0.528 2.336-2.416 2.576-3.088 0.080-0.256 0.464-0.608 0.88-0.784 0.624-0.288 0.8-0.256 1.184 0.096 0.224 0.224 0.576 0.416 0.72 0.416 0.368 0 0.368-0.848 0-1.216-0.32-0.336 0.16-1.072 0.688-1.072 0.208 0 0.336-0.224 0.336-0.512 0-0.304 0.288-0.656 0.752-0.896 0.416-0.224 0.752-0.512 0.752-0.656 0-0.72 1.056-1.68 3.84-3.536 0.576-0.384 0.832-0.784 0.944-1.504 0.128-0.896 0.64-1.504 2.080-2.448 0.032-0.032 0.096-0.512 0.16-1.072s0.288-1.328 0.512-1.712c0.304-0.464 0.368-0.912 0.272-1.536-0.128-0.64-0.032-1.152 0.336-1.856 0.256-0.528 0.496-1.088 0.496-1.248s0.224-0.592 0.496-0.944c0.288-0.352 0.64-1.040 0.784-1.504s0.544-1.152 0.864-1.536c0.64-0.688 0.672-1.344 0.192-3.312-0.144-0.592-0.080-0.736 0.4-0.944 0.448-0.16 0.72-0.608 1.040-1.664 0.224-0.784 0.416-1.584 0.416-1.76s0.336-0.816 0.768-1.408l0.752-1.072-0.272-1.904c-0.144-1.072-0.448-2.24-0.624-2.624-0.368-0.736-0.336-0.768 0.752-1.456 0.576-0.352 0.88-2.032 0.72-3.952-0.144-1.552-0.096-1.712 0.496-2.272 0.624-0.64 0.816-1.408 0.416-2.032-0.224-0.352 0.256-2.752 0.752-3.776 0.192-0.432 0.16-0.72-0.24-1.408-0.272-0.464-0.592-1.456-0.704-2.192-0.128-1.088-0.080-1.424 0.256-1.84 0.4-0.464 0.416-0.608 0.032-2.544-0.512-2.656-0.512-5.424-0.032-5.856 0.464-0.416 0.256-0.768-0.512-0.768-0.592 0-0.592-0.032-0.448-1.728 0.128-1.408 0.096-1.776-0.24-2.064-0.224-0.176-0.4-0.72-0.4-1.152 0-0.528-0.224-1.024-0.72-1.504-0.624-0.592-0.72-0.848-0.592-1.648 0.080-0.512 0.336-1.376 0.592-1.904 0.576-1.152 0.448-1.776-0.4-2.16-0.752-0.352-0.8-1.072-0.128-1.712 0.624-0.608 0.624-0.784-0.176-1.2-1.008-0.512-1.824-2.32-1.664-3.616 0.096-0.56 0.256-1.248 0.4-1.472 0.144-0.336 0.032-0.608-0.576-1.152-0.672-0.64-0.736-0.848-0.64-1.712 0.080-0.528 0.224-1.072 0.336-1.168 0.096-0.096 0.944-0.080 1.84 0.048 1.632 0.256 1.68 0.288 2.32 1.408 0.416 0.768 0.736 1.088 1.008 0.992 1.168-0.464 1.536-0.416 2.704 0.384 0.656 0.464 1.248 0.864 1.328 0.912 0.080 0.080-0.080 0.224-0.32 0.352-0.496 0.304-0.576 1.376-0.096 1.68 0.16 0.096 0.64 0.336 1.040 0.464 0.464 0.16 0.768 0.432 0.768 0.768 0.032 0.288 0.048 0.72 0.080 0.96s0.176 0.432 0.368 0.432c0.576 0 1.376 1.328 1.216 2.064-0.096 0.512 0.080 0.816 0.752 1.456 0.496 0.432 1.040 0.736 1.248 0.656 0.224-0.096 0.368 0.208 0.464 1.024 0.256 1.856 1.424 3.968 2.752 4.944 0.72 0.528 1.184 1.088 1.248 1.536 0.080 0.384 0.256 1.216 0.4 1.904 0.192 0.864 0.192 1.296 0 1.552-0.336 0.384 0.512 1.296 1.328 1.472 0.288 0.080 0.448 0.256 0.368 0.48-0.336 1.040-0.080 3.312 0.592 4.672 0.496 0.992 0.624 1.632 0.544 2.064-0.176 0.688 0.544 2.704 1.056 3.040 0.448 0.304 0.32 1.584-0.224 2.064-0.448 0.4-0.496 0.688-0.336 2.528 0.080 1.152 0.288 2.624 0.512 3.312 0.208 0.848 0.288 1.664 0.192 2.4-0.128 0.944-0.080 1.216 0.368 1.712 0.624 0.688 1.040 3.44 0.512 3.44-0.224 0-0.256 0.288-0.176 0.976 0.176 1.152 0.464 4.608 0.416 5.152-0.256 3.392-0.256 5.36 0 6.192 0.256 0.896 0.256 0.992-0.224 1.344-0.448 0.304-0.544 0.64-0.544 1.664 0 1.456-0.24 2.064-1.296 3.216-0.704 0.768-0.72 0.896-0.544 2.16 0.256 2.112 0.16 3.968-0.4 5.328-0.256 0.72-0.464 1.552-0.464 1.904s-0.24 0.976-0.544 1.408c-0.64 0.896-0.752 2.368-0.224 3.36 0.368 0.72 0.416 0.592-0.88 2.416-0.416 0.608-0.592 1.984-0.592 4.688 0 1.168-0.096 1.472-0.448 1.6-0.368 0.096-0.464 0.512-0.592 2.032-0.096 1.040-0.32 2.288-0.512 2.752-0.256 0.72-0.256 0.992 0 1.68 0.336 0.848 0.16 1.936-0.464 2.448-0.944 0.768-1.408 2.224-1.408 4.208 0 1.808-0.080 2.096-0.656 2.848-0.368 0.464-0.832 0.912-0.96 1.024-0.192 0.16-0.224 0.512-0.096 1.152 0.128 0.528 0.16 1.6 0.048 2.368-0.176 1.344-0.192 1.408-1.168 1.68-1.056 0.304-1.12 0.432-0.576 2.192 0.208 0.768 0.192 1.040-0.096 1.536-0.208 0.336-0.448 0.992-0.544 1.536-0.080 0.512-0.32 0.96-0.496 1.040-0.208 0.080-0.416 0.528-0.512 0.992s-0.496 1.296-0.88 1.84c-0.4 0.56-0.72 1.216-0.72 1.472 0 0.736-0.624 1.856-1.824 3.232-1.088 1.248-1.808 2.848-1.504 3.312 0.192 0.336-0.448 1.856-0.96 2.288-0.208 0.208-0.592 0.768-0.784 1.28-0.192 0.48-0.512 1.072-0.72 1.28-1.424 1.584-1.632 1.968-1.504 2.592 0.096 0.512-0.048 0.848-0.624 1.408-0.944 0.912-2.048 2.752-2.416 3.952-0.336 1.12-0.784 1.552-2.272 2.112-1.248 0.464-2.032 1.2-2.384 2.224-0.176 0.464-0.832 0.944-2.32 1.712-1.12 0.592-2.256 1.072-2.496 1.072-0.576 0-1.792 0.688-2.688 1.472-0.4 0.384-1.088 0.656-1.776 0.736-0.624 0.080-1.136 0.256-1.136 0.352 0 0.128-0.176 0.224-0.368 0.224s-0.912 0.512-1.616 1.152c-0.688 0.64-1.376 1.168-1.552 1.168-0.176 0.032-0.752 0.080-1.248 0.096-0.912 0.048-1.552 0.528-2.288 1.712-0.368 0.592-2.496 1.216-3.2 0.96-0.992-0.384-1.536-0.304-1.696 0.288-0.16 0.432-0.304 0.512-0.832 0.384-2.576-0.608-3.264-0.432-3.264 0.896 0 0.512-0.192 0.864-0.624 1.168-0.624 0.4-0.672 0.4-0.96 0-0.32-0.464-0.864-0.592-0.864-0.176 0 0.512-2.288 2.032-3.088 2.032-0.448 0-1.056 0.208-1.376 0.464s-1.904 1.072-3.488 1.84c-1.616 0.768-2.912 1.504-2.912 1.664 0 0.128-0.72 1.040-1.6 1.984-0.864 0.96-1.792 2.192-2.032 2.72-0.464 1.040-0.992 1.344-1.664 0.96-0.288-0.176-0.448-0.128-0.544 0.176-0.096 0.224-0.464 0.56-0.864 0.784-0.576 0.304-0.72 0.528-0.72 1.248 0 0.464-0.16 1.024-0.336 1.216-0.256 0.256-0.256 0.464-0.096 0.64 0.336 0.352-0.464 1.584-1.088 1.584-0.272 0-0.64 0.336-0.88 0.784-0.224 0.432-0.88 1.376-1.456 2.096-0.672 0.784-1.056 1.552-1.056 1.968s-0.256 0.944-0.688 1.344c-1.664 1.664-2.16 3.904-1.12 5.072 0.448 0.512 0.448 0.464-0.752 2.752-0.88 1.664-1.136 4.048-1.184 12.080-0.080 7.056-0.128 7.952-0.496 8.464-0.512 0.656-0.544 1.456-0.16 3.472 0.288 1.472 0.288 1.504-0.4 2.16-0.72 0.688-0.72 0.608-0.256 2.912 0.128 0.56 0 0.784-0.72 1.344-1.008 0.784-1.408 1.776-1.408 3.408 0 0.688-0.16 1.328-0.4 1.6-0.448 0.512-0.576 3.168-0.176 3.92 0.16 0.272 0.336 1.168 0.416 1.968 0.176 1.376 0.16 1.456-0.4 1.536-0.8 0.096-0.992 1.504-0.64 4.464 0.256 2.352 0.256 2.368-0.368 3.232-0.336 0.464-0.72 1.152-0.832 1.536-0.080 0.384-0.368 0.848-0.624 0.992-0.256 0.176-0.464 0.48-0.464 0.688s-0.4 0.896-0.864 1.504c-0.544 0.688-0.864 1.408-0.864 1.84 0 0.592-0.176 0.816-0.832 1.088-0.448 0.208-1.136 0.768-1.536 1.28s-1.056 1.152-1.504 1.424c-0.448 0.256-0.864 0.768-0.96 1.12-0.128 0.56-0.288 0.656-1.12 0.656-1.424 0-2.64 0.608-3.008 1.504-0.256 0.656-0.336 0.72-0.784 0.384-0.256-0.208-0.624-0.352-0.8-0.352-0.192 0-0.656-0.256-1.056-0.56s-0.768-0.512-0.832-0.432c-1.376 2.016-1.376 2.016-2.736 2.016-0.784 0-1.776-0.208-2.448-0.512-1.008-0.464-1.312-0.48-2.832-0.256-0.912 0.176-2.176 0.336-2.784 0.384-1.12 0.080-1.808 0.304-4.448 1.408-0.736 0.304-1.68 0.64-2.096 0.736-0.448 0.096-0.864 0.432-1.040 0.848-0.4 0.848-2.176 2.496-2.688 2.496-0.96 0-3.792 3.744-3.808 5.040 0 0.176-0.224 0.64-0.464 1.024-0.464 0.64-0.464 0.784-0.128 2.448 0.288 1.408 0.288 1.808 0.048 2.144-0.512 0.608-0.864 2.448-0.624 3.264 0.112 0.416 0.208 1.888 0.208 3.264l0.032 2.528-0.752 0.608c-0.416 0.352-0.768 0.848-0.768 1.088s-0.096 0.56-0.256 0.64c-0.112 0.080-0.24 1.12-0.24 2.288 0 2.272-0.496 3.952-1.184 3.952-0.256 0-0.32 0.304-0.192 1.472 0.496 5.104 0.512 4.736-0.32 5.712-0.416 0.48-0.704 0.976-0.624 1.040s0.176 0.464 0.192 0.864c0.048 0.384 0.128 0.864 0.176 1.072 0.16 0.528-0.688 0.64-1.168 0.16-0.208-0.224-0.592-0.384-0.816-0.336-0.32 0.080-0.4 0.416-0.368 1.984 0.032 1.040 0.048 2.288 0.096 2.752 0.048 0.56-0.096 0.992-0.448 1.408-0.288 0.336-0.544 0.848-0.544 1.152s-0.336 0.944-0.752 1.424c-0.656 0.784-0.752 0.992-0.592 1.968 0.176 0.992 0.128 1.12-0.656 1.776-0.72 0.608-0.832 0.848-0.8 1.808 0.032 0.592 0.096 1.504 0.192 2.032 0.16 0.784 0.096 0.944-0.336 1.088-0.288 0.080-0.752 0.080-1.040 0-0.336-0.128-0.464-0.080-0.448 0.176 0.16 0.784-0.32 1.424-1.408 1.856-1.488 0.592-2.576 1.552-2.576 2.288 0 0.816-0.192 0.896-1.552 0.464zM255.264 284.672c0.544-0.16 1.168-0.432 1.36-0.608s0.704-0.432 1.056-0.512c0.464-0.128 0.64-0.304 0.576-0.608-0.368-1.408-0.368-1.888-0.032-2.72 0.192-0.512 0.368-1.296 0.368-1.776 0-0.656-0.096-0.848-0.544-0.912-0.416-0.048-0.544-0.208-0.464-0.592 0.048-0.272 0.096-1.6 0.128-2.928 0-1.328 0.080-2.464 0.16-2.544s0.288-0.864 0.464-1.776c0.16-0.912 0.336-1.936 0.416-2.288 0.096-0.432-0.032-0.864-0.336-1.28-0.4-0.512-0.448-0.736-0.224-1.216 0.224-0.464 0.176-0.784-0.176-1.456-0.448-0.848-0.448-1.552-0.032-3.088 0.112-0.416-0.080-0.784-0.832-1.552-0.688-0.688-1.056-1.328-1.168-2.016-0.096-0.528-0.32-1.248-0.512-1.552s-0.336-1.040-0.336-1.632c0-0.768-0.176-1.28-0.672-1.856-0.336-0.432-0.736-0.768-0.88-0.72-0.496 0.16-1.184-0.288-1.536-0.992-0.208-0.432-0.752-0.912-1.296-1.12-0.592-0.256-1.12-0.736-1.456-1.376-0.64-1.168-1.264-1.168-2.080 0-0.32 0.48-0.72 0.736-1.12 0.736-1.168 0-2.576 1.072-2.576 1.936 0 0.304-0.592 1.472-1.296 2.592-0.832 1.216-1.408 2.448-1.536 3.136-0.272 1.472-0.208 3.92 0.096 4.512s-0.080 1.072-0.832 1.072c-1.168 0-1.376 0.864-0.592 2.656 0.544 1.296 0.576 2.624 0 2.496-0.176-0.048-0.592 0.16-0.88 0.464-0.496 0.48-0.544 0.736-0.496 2.928 0.048 2.032 0 2.4-0.336 2.4-2.368 0.080-2.368 0.080-2.336 1.168 0.080 1.888 0.368 3.488 0.72 4.032 0.208 0.304 0.368 0.736 0.368 0.976s0.448 1.040 0.992 1.776c0.544 0.768 0.992 1.504 0.992 1.68 0 0.992 3.456 0.848 5.68-0.256 1.712-0.848 2.048-0.864 2.592-0.032 0.336 0.56 0.544 0.64 1.248 0.512 0.72-0.16 0.88-0.080 1.136 0.416 0.416 0.848 0.688 0.976 1.968 0.976 0.736 0 1.264 0.16 1.488 0.416 0.32 0.416 1.088 0.816 1.584 0.848 0.144 0.032 0.688-0.096 1.232-0.256zM238.56 282.96c0.080-0.224-0.048-0.336-0.336-0.256-0.224 0.032-0.464 0.224-0.544 0.416-0.080 0.224 0.048 0.336 0.336 0.256 0.224-0.032 0.464-0.224 0.544-0.416zM213.552 262.88c0.672-0.736 1.536-0.848 2.912-0.384 1.312 0.464 2.368 0.16 2.544-0.688 0.384-1.904 0.544-2.096 1.632-2.096 1.12 0 1.424-0.256 2.096-1.712 0.368-0.864 0.912-1.584 1.328-1.84 0.624-0.352 0.72-0.56 0.72-1.552-0.032-0.64-0.176-1.376-0.368-1.632-0.192-0.288-0.368-0.768-0.368-1.088s-0.176-0.944-0.368-1.344c-0.288-0.512-0.368-1.408-0.336-2.72 0.032-1.408-0.080-2.224-0.368-2.752-0.224-0.4-0.384-0.896-0.384-1.072s-0.384-0.608-0.864-0.992c-0.544-0.4-0.96-1.040-1.168-1.664-0.176-0.656-0.416-0.992-0.72-0.992-0.224 0-1.056-0.256-1.824-0.56-1.536-0.592-2.080-1.216-1.488-1.728 0.576-0.48 0.448-1.152-0.256-1.472-0.336-0.16-0.624-0.464-0.624-0.656s-0.24-0.4-0.576-0.512c-0.336-0.080-0.72-0.48-0.928-0.96-0.224-0.528-0.544-0.864-0.912-0.912-0.32-0.048-0.688-0.384-0.832-0.72-0.192-0.432-0.416-0.592-0.656-0.464-0.224 0.096-0.64 0.224-0.928 0.288-0.512 0.128-0.576 0.032-0.576-0.784 0-0.656 0.096-0.912 0.368-0.912 0.448 0-0.672-1.040-2.224-2.112-1.168-0.816-1.712-0.848-3.776-0.176-0.864 0.288-1.952 0.512-2.416 0.512-1.168 0-2.24 0.528-3.408 1.632-0.512 0.512-1.040 0.912-1.168 0.912s-0.672 0.4-1.184 0.912c-0.544 0.48-1.168 0.864-1.408 0.816s-0.464 0.096-0.496 0.304c-0.512 3.824-0.96 5.472-1.744 6.416-0.512 0.656-0.832 1.296-0.832 1.776 0 0.528-0.144 0.784-0.448 0.896-0.384 0.096-0.512 0.528-0.752 2.496-0.16 1.328-0.416 2.704-0.576 3.088-0.288 0.64-0.256 0.736 0.624 1.472 0.832 0.72 0.912 0.912 0.912 1.968 0 1.216 0.208 1.504 1.232 1.504 0.288 0 0.464 0.256 0.576 0.72 0.080 0.384 0.336 0.944 0.592 1.248 0.256 0.336 0.64 0.864 0.864 1.2 0.32 0.432 0.672 0.608 1.168 0.608 0.464-0.032 1.008 0.208 1.424 0.592 0.368 0.352 0.96 0.784 1.36 0.992s0.736 0.64 0.816 0.992c0.256 1.216 0.32 1.296 1.056 1.296 0.384 0 0.816 0.128 0.912 0.272 0.096 0.176 0.624 0.224 1.488 0.096 1.12-0.128 1.456-0.080 2.048 0.352 0.96 0.72 2.816 0.72 3.92 0.032 1.040-0.656 1.536-0.64 1.536 0s1.168 1.76 1.792 1.776c0.256 0 0.72-0.304 1.040-0.656zM284 261.472c1.632-0.512 3.84-0.64 4.448-0.256 0.224 0.16 0.752 0.048 1.488-0.272 2.336-1.088 2.864-1.456 3.328-2.352 0.288-0.56 0.672-0.912 0.944-0.912 0.544 0 1.488-0.464 1.728-0.864 0.096-0.16 0.192-0.64 0.192-1.040 0-0.432 0.224-1.216 0.496-1.776 0.4-0.784 0.64-0.992 1.168-1.024 0.672 0 0.704-0.032 0.624-1.328-0.080-1.152 0-1.376 0.576-1.936 0.576-0.528 0.672-0.864 0.72-2.24 0.048-0.896 0.16-1.936 0.256-2.352 0.128-0.48 0.048-0.896-0.256-1.376-0.448-0.72-0.512-2.32-0.208-4.688l0.144-1.152-2.032-1.904c-1.12-1.040-2.208-2.096-2.464-2.32-0.416-0.4-0.496-0.4-1.168 0.176-0.624 0.528-0.88 0.608-1.952 0.464-0.832-0.080-1.312-0.032-1.408 0.16-0.224 0.352-1.376 0.384-1.376 0.032 0-0.48-1.168-1.040-2.752-1.296l-1.584-0.256-1.136 1.28c-1.056 1.168-1.264 1.296-2.24 1.296-0.592 0-1.216-0.128-1.376-0.304-0.224-0.224-0.288-0.224-0.288 0.032 0 0.176-0.224 0.656-0.496 1.040-0.448 0.656-0.464 0.768-0.128 1.424 0.336 0.688 0.32 0.768-0.096 0.944-0.256 0.128-0.832 0.848-1.28 1.584-0.816 1.328-0.832 1.344-2.048 1.344-0.88 0.032-1.28 0.16-1.456 0.464-0.112 0.224-0.448 0.64-0.688 0.896-0.256 0.288-0.464 0.72-0.464 0.992 0 0.592-0.576 1.2-2.32 2.544-1.792 1.376-1.92 1.552-1.744 2.144 0.096 0.304 0.192 1.584 0.256 2.832 0.128 3.264 0.288 3.92 0.992 4.208 0.512 0.208 0.592 0.352 0.464 0.96-0.128 0.64-0.032 0.816 0.752 1.28 0.512 0.304 0.944 0.816 1.040 1.216 0.096 0.384 0.592 1.072 1.136 1.584 0.88 0.848 1.056 0.896 2.496 0.864 0.832 0 1.872 0.128 2.272 0.304 0.96 0.432 3.488 0.256 5.536-0.384zM98.464 22.4c-0.144-0.256-0.944-0.288-1.168-0.032-0.080 0.080-0.048 0.304 0.096 0.48 0.208 0.256 0.368 0.256 0.72 0.048 0.256-0.176 0.4-0.416 0.336-0.512z"></path>
<path d="M191.392 244.048c0.048-0.352 0.192-0.64 0.32-0.64s0.224 0.288 0.224 0.64c0 0.352-0.16 0.64-0.336 0.64-0.208 0-0.288-0.208-0.192-0.64z"></path>
<path d="M106.368 168.832c0.080-0.224 0.16-0.464 0.16-0.512 0-0.080 0.112-0.048 0.24 0.032 0.4 0.256 0.288 0.896-0.16 0.896-0.272 0-0.336-0.128-0.24-0.4z"></path>
</svg>
