<!-- Generated by IcoMoon.io -->
<svg version="1.1" xmlns="http://www.w3.org/2000/svg" width="31" height="32" viewBox="0 0 31 32">
<title>grand-alliance-chaos</title>
<path d="M14.64 31.966c-0.016-0.017-0.040-0.040-0.052-0.050-0.016-0.013-0.022-0.042-0.022-0.11 0-0.102-0.012-0.134-0.066-0.183-0.030-0.027-0.036-0.042-0.033-0.099 0.001-0.037-0.004-0.096-0.012-0.132-0.008-0.037-0.020-0.12-0.027-0.185s-0.022-0.136-0.033-0.156c-0.033-0.064-0.050-0.168-0.040-0.262 0.006-0.061 0.004-0.093-0.007-0.099-0.008-0.006-0.016-0.023-0.016-0.040 0-0.016-0.022-0.051-0.048-0.078s-0.048-0.062-0.048-0.076c0-0.016-0.016-0.034-0.034-0.044-0.019-0.009-0.034-0.024-0.034-0.034s-0.013-0.031-0.029-0.045c-0.027-0.027-0.027-0.034-0.012-0.202 0.008-0.096 0.022-0.194 0.030-0.215 0.019-0.052-0.003-0.13-0.057-0.201-0.032-0.041-0.041-0.068-0.041-0.116 0-0.054-0.007-0.071-0.052-0.115-0.067-0.067-0.077-0.095-0.049-0.137 0.019-0.031 0.020-0.048 0.006-0.13-0.008-0.054-0.020-0.127-0.023-0.167-0.004-0.038-0.016-0.084-0.027-0.102-0.012-0.020-0.016-0.047-0.011-0.072 0.007-0.037 0.004-0.042-0.027-0.051-0.020-0.006-0.041-0.006-0.048-0.001-0.018 0.011-0.032-0.054-0.023-0.11 0.003-0.024-0.003-0.074-0.013-0.109s-0.019-0.084-0.019-0.108c0-0.025-0.011-0.054-0.029-0.069-0.022-0.023-0.026-0.037-0.019-0.082s0.004-0.061-0.023-0.092c-0.019-0.021-0.045-0.068-0.057-0.105-0.020-0.058-0.022-0.086-0.010-0.211 0.014-0.153 0.011-0.176-0.029-0.215-0.016-0.016-0.023-0.037-0.018-0.052 0.010-0.033-0.029-0.113-0.053-0.113-0.030 0-0.036-0.037-0.016-0.081 0.016-0.033 0.016-0.059 0.004-0.139-0.012-0.082-0.023-0.108-0.060-0.149-0.036-0.040-0.046-0.062-0.046-0.105s-0.010-0.064-0.048-0.103c-0.046-0.048-0.048-0.052-0.048-0.161 0-0.074-0.007-0.127-0.020-0.154-0.020-0.038-0.020-0.057 0.001-0.18 0.024-0.153 0.034-0.174 0.082-0.174 0.033 0 0.033 0.001 0.013 0.042-0.011 0.023-0.021 0.045-0.021 0.050s0.040 0.004 0.089 0c0.075-0.006 0.099-0.003 0.161 0.028 0.056 0.028 0.092 0.035 0.177 0.035 0.177 0 0.244-0.050 0.244-0.178 0-0.038 0.010-0.093 0.020-0.122 0.027-0.067 0.027-0.136 0.001-0.167-0.033-0.038-0.033-0.405 0-0.566 0.011-0.051 0.026-0.123 0.033-0.163 0.008-0.038 0.014-0.11 0.012-0.16-0.003-0.072 0-0.093 0.020-0.108 0.020-0.017 0.020-0.021 0.003-0.037-0.011-0.010-0.020-0.030-0.020-0.044 0-0.051-0.066-0.176-0.112-0.212-0.026-0.020-0.067-0.041-0.092-0.045-0.041-0.009-0.121-0.057-0.145-0.088-0.008-0.013-0.006-0.119 0.007-0.229 0.003-0.018 0.013-0.033 0.024-0.034s0.039-0.003 0.062-0.003c0.036-0.003 0.041-0.009 0.041-0.041-0.001-0.034 0.004-0.040 0.034-0.040 0.020 0 0.043 0.007 0.052 0.017 0.011 0.011 0.016 0.011 0.016 0.001s0.020-0.023 0.041-0.031c0.024-0.009 0.046-0.030 0.055-0.051 0.016-0.044 0.016-0.171 0.001-0.212-0.007-0.016-0.007-0.044 0-0.064s0.013-0.072 0.017-0.117c0.005-0.081 0.005-0.082-0.062-0.151-0.036-0.038-0.066-0.078-0.066-0.091s-0.010-0.017-0.026-0.013c-0.013 0.004-0.030 0-0.034-0.009-0.005-0.009-0.024-0.016-0.043-0.016-0.024 0-0.036-0.010-0.043-0.035-0.006-0.023-0.023-0.040-0.055-0.050-0.037-0.013-0.046-0.024-0.046-0.052 0-0.023-0.018-0.051-0.048-0.079-0.026-0.024-0.048-0.052-0.048-0.062s-0.006-0.018-0.014-0.018c-0.007 0-0.016-0.023-0.022-0.050-0.018-0.101 0.057-0.201 0.139-0.184 0.037 0.007 0.052 0 0.098-0.042 0.029-0.027 0.056-0.050 0.060-0.050 0.017 0 0.037-0.076 0.039-0.142 0.001-0.057-0.004-0.071-0.053-0.125-0.030-0.033-0.055-0.065-0.055-0.072s-0.016-0.023-0.033-0.035c-0.030-0.020-0.037-0.020-0.077 0-0.027 0.016-0.060 0.020-0.093 0.014-0.103-0.017-0.264-0.025-0.321-0.017-0.044 0.007-0.063 0.018-0.073 0.041-0.011 0.024-0.027 0.033-0.072 0.035-0.053 0.004-0.062 0.010-0.093 0.067-0.020 0.034-0.056 0.074-0.081 0.089-0.044 0.027-0.077 0.055-0.156 0.132-0.020 0.020-0.048 0.040-0.060 0.045-0.014 0.004-0.030 0.035-0.040 0.074-0.014 0.057-0.020 0.064-0.055 0.064-0.024 0-0.040 0.007-0.040 0.018 0 0.025-0.156 0.18-0.181 0.18-0.010 0-0.062 0.045-0.113 0.101-0.053 0.055-0.119 0.116-0.148 0.134-0.029 0.020-0.057 0.050-0.065 0.068s-0.019 0.038-0.026 0.044c-0.008 0.004-0.016 0.024-0.016 0.042s-0.011 0.042-0.023 0.052c-0.046 0.035-0.086 0.109-0.086 0.157 0 0.042-0.006 0.050-0.040 0.057-0.026 0.006-0.044 0.020-0.050 0.041-0.015 0.048-0.049 0.084-0.075 0.075-0.016-0.006-0.030 0.011-0.052 0.057-0.020 0.041-0.044 0.069-0.067 0.079-0.044 0.017-0.152 0.133-0.218 0.232-0.036 0.054-0.059 0.074-0.105 0.088-0.062 0.018-0.089 0.007-0.159-0.071l-0.033-0.035 0.023-0.112c0.013-0.064 0.024-0.193 0.027-0.306 0.003-0.134 0.012-0.217 0.027-0.266 0.014-0.040 0.021-0.092 0.017-0.117-0.008-0.052-0.001-0.068 0.043-0.092 0.017-0.010 0.030-0.030 0.030-0.051 0-0.018 0.015-0.052 0.034-0.075 0.032-0.040 0.034-0.054 0.034-0.185 0-0.137 0.020-0.289 0.062-0.457 0.011-0.045 0.020-0.11 0.020-0.146 0-0.044 0.007-0.067 0.020-0.072 0.011-0.004 0.023-0.023 0.029-0.038 0.005-0.017 0.029-0.059 0.052-0.095 0.036-0.055 0.043-0.081 0.050-0.184 0.006-0.067 0.016-0.136 0.023-0.156 0.032-0.076 0.046-0.202 0.027-0.255-0.026-0.075-0.034-0.085-0.085-0.085-0.036 0-0.046-0.007-0.052-0.033-0.007-0.024-0.029-0.038-0.109-0.064-0.055-0.017-0.121-0.031-0.145-0.031-0.034 0-0.048-0.009-0.060-0.035-0.019-0.042-0.026-0.044-0.049-0.007-0.014 0.023-0.032 0.028-0.096 0.028-0.077 0-0.079 0.001-0.126 0.067-0.080 0.11-0.194 0.217-0.232 0.217-0.023 0-0.060 0.028-0.125 0.096-0.049 0.052-0.102 0.113-0.116 0.136-0.050 0.076-0.1 0.12-0.154 0.134-0.036 0.010-0.083 0.047-0.151 0.115-0.055 0.055-0.1 0.105-0.1 0.112 0 0.020-0.046 0.055-0.085 0.065-0.020 0.006-0.074 0.051-0.119 0.101-0.060 0.068-0.090 0.091-0.118 0.091-0.043 0-0.141 0.075-0.158 0.119-0.011 0.033 0.040 0.12 0.105 0.177 0.033 0.030 0.033 0.031 0.011 0.084-0.012 0.028-0.026 0.075-0.030 0.102-0.010 0.076-0.024 0.088-0.102 0.078-0.066-0.010-0.082-0.004-0.251 0.102-0.048 0.030-0.090 0.047-0.116 0.047-0.014 0-0.089 0.014-0.168 0.030s-0.158 0.033-0.178 0.034c-0.022 0.001-0.049 0.013-0.063 0.025-0.014 0.014-0.036 0.024-0.049 0.024s-0.026 0.010-0.030 0.021c-0.010 0.023-0.086 0.050-0.146 0.050-0.053 0-0.171 0.055-0.177 0.081-0.004 0.024-0.024 0.027-0.241 0.038-0.171 0.010-0.284 0.034-0.336 0.074-0.024 0.018-0.065 0.044-0.089 0.055-0.024 0.013-0.050 0.037-0.059 0.055-0.013 0.027-0.029 0.035-0.093 0.042-0.043 0.004-0.111 0.013-0.152 0.017-0.086 0.010-0.112 0.028-0.145 0.099-0.014 0.030-0.032 0.048-0.048 0.048s-0.037 0.013-0.052 0.028c-0.014 0.014-0.046 0.037-0.073 0.048s-0.056 0.031-0.067 0.042c-0.020 0.027-0.056 0.030-0.079 0.007-0.027-0.028-0.252-0.040-0.388-0.020-0.073 0.010-0.079 0.013-0.114 0.079-0.020 0.040-0.050 0.076-0.069 0.082-0.016 0.007-0.049 0.034-0.073 0.059-0.023 0.027-0.059 0.062-0.079 0.079s-0.036 0.045-0.036 0.065c0 0.045-0.027 0.068-0.095 0.076-0.039 0.006-0.057 0.017-0.069 0.041-0.013 0.030-0.023 0.034-0.088 0.034-0.055 0-0.079 0.007-0.098 0.027-0.014 0.016-0.059 0.042-0.102 0.059-0.090 0.038-0.191 0.095-0.202 0.113-0.006 0.007-0.039 0.013-0.074 0.013-0.043 0-0.079 0.010-0.099 0.025-0.017 0.014-0.063 0.040-0.102 0.058-0.037 0.020-0.073 0.041-0.077 0.048-0.006 0.007-0.041 0.016-0.080 0.017-0.057 0.003-0.079 0.011-0.105 0.041-0.019 0.020-0.049 0.037-0.067 0.037s-0.039 0.011-0.045 0.024c-0.017 0.030-0.122 0.062-0.224 0.069-0.074 0.004-0.080 0.003-0.149-0.055l-0.072-0.059 0.008-0.084c0.004-0.045 0.008-0.102 0.008-0.123 0-0.034 0.006-0.041 0.034-0.041 0.024 0 0.039-0.010 0.048-0.035 0.007-0.020 0.023-0.040 0.034-0.044 0.015-0.007 0.020-0.027 0.017-0.074-0.001-0.057 0.004-0.069 0.040-0.101 0.024-0.021 0.045-0.055 0.049-0.079 0.006-0.040 0.007-0.041 0.017-0.010 0.005 0.017 0.020 0.031 0.034 0.031 0.034 0 0.086-0.069 0.074-0.098-0.016-0.040-0.010-0.089 0.020-0.13 0.016-0.021 0.029-0.050 0.029-0.061s0.013-0.025 0.027-0.030c0.049-0.016 0.164-0.146 0.164-0.185 0-0.035 0.018-0.058 0.114-0.143 0.043-0.038 0.049-0.050 0.043-0.088s-0.001-0.052 0.041-0.101c0.027-0.031 0.049-0.069 0.049-0.084 0-0.021 0.011-0.030 0.044-0.033 0.043-0.004 0.045-0.009 0.053-0.068 0.014-0.088 0.036-0.142 0.059-0.142 0.013 0 0.030-0.018 0.043-0.042s0.037-0.045 0.063-0.052c0.037-0.011 0.048-0.025 0.088-0.129 0.033-0.086 0.065-0.139 0.118-0.2 0.041-0.045 0.096-0.115 0.122-0.154s0.055-0.074 0.063-0.074c0.032 0 0.063-0.055 0.057-0.098-0.006-0.035 0-0.045 0.033-0.059 0.040-0.017 0.048-0.033 0.024-0.048-0.020-0.013-0.016-0.072 0.007-0.092 0.017-0.016 0.024-0.014 0.043 0.011 0.022 0.033 0.053 0.028 0.066-0.007 0.005-0.013 0.001-0.031-0.007-0.041-0.034-0.044 0.008-0.122 0.099-0.18 0.022-0.014 0.044-0.047 0.055-0.084 0.016-0.050 0.024-0.061 0.052-0.061 0.029 0 0.037-0.010 0.048-0.059 0.010-0.038 0.041-0.091 0.086-0.142 0.039-0.045 0.083-0.119 0.102-0.163 0.022-0.057 0.040-0.082 0.056-0.082 0.014 0 0.036-0.017 0.049-0.037s0.037-0.052 0.053-0.074c0.016-0.021 0.033-0.067 0.037-0.099 0.004-0.037 0.020-0.076 0.039-0.096 0.029-0.031 0.033-0.033 0.055-0.011 0.032 0.030 0.063 0.017 0.080-0.030 0.021-0.055 0.069-0.071 0.145-0.048 0.048 0.014 0.062 0.025 0.057 0.044-0.004 0.013 0.008 0.035 0.026 0.052s0.033 0.035 0.033 0.044c0 0.007 0.016 0.014 0.036 0.014 0.020 0 0.059 0.014 0.086 0.031 0.073 0.045 0.174 0.055 0.243 0.024 0.030-0.014 0.069-0.027 0.086-0.027 0.019 0 0.037-0.013 0.046-0.035 0.008-0.020 0.019-0.035 0.024-0.035 0.015 0 0.041-0.069 0.041-0.108 0-0.020 0.011-0.055 0.023-0.078 0.023-0.040 0.023-0.045 0-0.11s-0.024-0.235-0.003-0.27c0.011-0.020 0.066-0.018 0.086 0.003 0.013 0.013 0.022 0.011 0.041-0.007 0.030-0.028 0.121-0.031 0.222-0.007 0.067 0.016 0.073 0.014 0.144-0.024 0.046-0.025 0.077-0.054 0.082-0.072 0.006-0.021 0.027-0.038 0.066-0.051 0.046-0.017 0.062-0.030 0.072-0.065 0.007-0.027 0.024-0.050 0.048-0.059 0.057-0.024 0.121-0.078 0.113-0.096-0.003-0.010 0.004-0.030 0.016-0.042s0.027-0.042 0.036-0.064c0.014-0.035 0.021-0.038 0.059-0.031 0.060 0.011 0.092-0.014 0.108-0.091 0.016-0.069 0.047-0.103 0.086-0.092 0.039 0.013 0.075-0.007 0.105-0.061 0.024-0.044 0.026-0.057 0.012-0.092-0.012-0.033-0.012-0.045 0.004-0.065 0.027-0.031 0.048-0.101 0.041-0.14-0.006-0.041-0.079-0.103-0.121-0.103-0.017 0-0.057-0.010-0.088-0.023-0.041-0.017-0.077-0.021-0.133-0.014-0.043 0.006-0.158 0.004-0.255 0-0.156-0.009-0.178-0.013-0.185-0.037-0.007-0.031-0.027-0.033-0.1-0.003-0.048 0.020-0.059 0.021-0.074 0.004-0.023-0.024-0.026-0.042-0.023-0.193l0.003-0.117h0.066c0.065 0 0.069-0.001 0.111-0.071 0.033-0.052 0.053-0.071 0.077-0.071 0.057 0 0.122-0.042 0.161-0.108 0.026-0.044 0.050-0.065 0.076-0.071 0.041-0.009 0.073-0.058 0.073-0.113 0-0.018 0.007-0.037 0.014-0.041 0.007-0.006 0.024-0.035 0.037-0.065 0.016-0.040 0.037-0.065 0.073-0.085 0.034-0.017 0.053-0.037 0.053-0.055 0-0.014 0.006-0.031 0.013-0.035 0.008-0.006 0.014-0.078 0.014-0.17 0-0.157-0.001-0.163-0.034-0.185-0.039-0.027-0.048-0.109-0.013-0.129 0.017-0.010 0.017-0.020 0.003-0.061-0.023-0.069-0.060-0.106-0.086-0.084s-0.024-0.011 0.001-0.184c0.012-0.072 0.017-0.153 0.012-0.178-0.008-0.048-0.113-0.163-0.148-0.163-0.010 0-0.022-0.013-0.026-0.028-0.006-0.021-0.020-0.028-0.053-0.030-0.024-0.001-0.075-0.006-0.113-0.010-0.081-0.009-0.113-0.009-0.447 0.001-0.252 0.007-0.255 0.007-0.327 0.050-0.092 0.054-0.151 0.149-0.151 0.244 0 0.048 0.007 0.068 0.027 0.082 0.029 0.018 0.036 0.059 0.016 0.099-0.008 0.013-0.018 0.042-0.022 0.065-0.008 0.038-0.011 0.040-0.069 0.031-0.046-0.007-0.070-0.004-0.096 0.014-0.052 0.035-0.185 0.025-0.185-0.013 0-0.010-0.027-0.044-0.060-0.076-0.044-0.045-0.073-0.061-0.103-0.061-0.043 0-0.111-0.059-0.111-0.095 0-0.024-0.112-0.089-0.152-0.089-0.017 0-0.050-0.013-0.073-0.028s-0.050-0.028-0.062-0.028c-0.040 0-0.133-0.105-0.142-0.16-0.008-0.047-0.014-0.052-0.050-0.052-0.023 0-0.053 0.006-0.067 0.014-0.043 0.023-0.109-0.010-0.119-0.059-0.004-0.023-0.019-0.047-0.033-0.054-0.014-0.009-0.027-0.025-0.033-0.041-0.004-0.016-0.024-0.030-0.055-0.034-0.024-0.004-0.065-0.021-0.086-0.038-0.037-0.028-0.046-0.030-0.119-0.016-0.044 0.009-0.115 0.016-0.158 0.016s-0.098 0.007-0.121 0.016c-0.039 0.014-0.048 0.011-0.083-0.018-0.022-0.020-0.079-0.055-0.128-0.079s-0.099-0.057-0.112-0.072c-0.016-0.018-0.043-0.030-0.069-0.030-0.023 0-0.077-0.017-0.118-0.037-0.056-0.027-0.086-0.034-0.125-0.027-0.037 0.007-0.065 0.001-0.103-0.020-0.032-0.018-0.065-0.025-0.084-0.021-0.026 0.007-0.045-0.004-0.093-0.054-0.083-0.088-0.136-0.102-0.388-0.099-0.154 0.001-0.227-0.004-0.268-0.018-0.032-0.011-0.089-0.021-0.128-0.021s-0.086-0.006-0.103-0.013c-0.059-0.024-0.169-0.149-0.214-0.244-0.040-0.085-0.050-0.096-0.093-0.105-0.052-0.010-0.151-0.058-0.164-0.079-0.004-0.007-0.046-0.013-0.096-0.013-0.083 0-0.092-0.003-0.146-0.054-0.032-0.030-0.070-0.059-0.083-0.065-0.016-0.004-0.074-0.001-0.135 0.007-0.096 0.016-0.112 0.016-0.158-0.007-0.040-0.020-0.102-0.027-0.264-0.033-0.198-0.009-0.215-0.011-0.251-0.041-0.023-0.021-0.057-0.034-0.085-0.034-0.062 0-0.080-0.028-0.071-0.106 0.005-0.041 0.004-0.064-0.006-0.064s-0.013-0.008-0.009-0.017c0.003-0.010 0.020-0.018 0.039-0.018 0.027 0 0.034-0.008 0.037-0.045l0.004-0.044 0.102 0.007c0.069 0.006 0.109 0.003 0.122-0.008 0.011-0.010 0.034-0.013 0.052-0.008 0.024 0.006 0.046-0.006 0.096-0.058l0.066-0.065 0.013 0.035c0.014 0.035 0.016 0.035 0.056 0.016 0.022-0.013 0.041-0.028 0.041-0.035s0.011-0.024 0.026-0.040c0.029-0.030 0.095-0.025 0.107 0.008 0.004 0.011 0.013 0.014 0.023 0.007 0.009-0.007 0.050-0.021 0.090-0.033 0.041-0.010 0.086-0.027 0.099-0.038s0.055-0.021 0.093-0.021c0.057-0.001 0.075 0.006 0.109 0.038 0.037 0.035 0.048 0.040 0.099 0.031 0.070-0.011 0.108-0.038 0.138-0.096 0.022-0.044 0.023-0.044 0.039-0.014 0.024 0.047 0.046 0.038 0.129-0.047 0.059-0.061 0.083-0.078 0.116-0.078 0.029 0 0.048 0.010 0.057 0.028 0.020 0.040 0.089 0.037 0.128-0.004 0.041-0.044 0.109-0.071 0.165-0.064 0.043 0.004 0.048 0.001 0.075-0.059 0.020-0.041 0.055-0.085 0.105-0.125 0.041-0.034 0.076-0.071 0.076-0.081 0-0.027 0.043-0.12 0.056-0.12 0.034 0 0.072-0.214 0.039-0.234-0.007-0.004-0.013-0.021-0.013-0.038 0-0.027 0.006-0.028 0.086-0.018 0.046 0.006 0.107 0.023 0.135 0.037 0.044 0.023 0.052 0.037 0.088 0.15 0.022 0.068 0.048 0.134 0.057 0.147 0.011 0.013 0.024 0.042 0.030 0.064 0.008 0.033 0.024 0.047 0.075 0.067 0.074 0.027 0.143 0.017 0.202-0.031 0.018-0.014 0.063-0.042 0.099-0.062 0.056-0.030 0.074-0.034 0.107-0.021 0.022 0.007 0.040 0.020 0.040 0.028 0 0.017 0.164 0.008 0.343-0.017 0.065-0.010 0.138-0.018 0.164-0.020 0.063-0.004 0.118-0.033 0.145-0.074s0.128-0.076 0.144-0.050c0.008 0.016 0.014 0.014 0.023-0.006s0.019-0.021 0.043-0.008c0.016 0.008 0.046 0.013 0.067 0.007 0.070-0.017 0.238-0.12 0.254-0.156 0.010-0.020 0.023-0.033 0.033-0.028 0.020 0.008 0.228-0.065 0.277-0.099 0.020-0.014 0.050-0.041 0.063-0.059 0.024-0.033 0.032-0.034 0.118-0.025 0.074 0.008 0.095 0.006 0.109-0.013 0.010-0.011 0.027-0.021 0.041-0.021s0.032-0.010 0.041-0.021c0.008-0.011 0.030-0.024 0.045-0.030 0.016-0.006 0.046-0.021 0.063-0.035 0.018-0.016 0.050-0.027 0.070-0.027s0.049-0.014 0.069-0.035c0.016-0.018 0.055-0.051 0.085-0.072 0.046-0.033 0.055-0.035 0.070-0.018 0.008 0.011 0.043 0.040 0.075 0.062 0.066 0.045 0.082 0.085 0.059 0.15-0.022 0.067-0.018 0.117 0.013 0.159 0.016 0.020 0.027 0.041 0.027 0.047s0.026 0.050 0.057 0.098c0.060 0.091 0.123 0.129 0.187 0.112 0.033-0.010 0.123 0.017 0.156 0.047 0.012 0.011 0.034 0.018 0.048 0.017s0.050 0.001 0.082 0.007c0.063 0.011 0.113-0.008 0.162-0.062 0.016-0.017 0.041-0.037 0.057-0.044s0.033-0.028 0.039-0.055c0.007-0.031 0.023-0.051 0.060-0.071 0.029-0.014 0.063-0.044 0.075-0.064s0.037-0.044 0.055-0.051c0.033-0.016 0.096-0.142 0.111-0.221 0.007-0.034 0.001-0.061-0.020-0.101-0.029-0.052-0.029-0.058-0.008-0.098 0.011-0.024 0.036-0.047 0.055-0.052 0.023-0.006 0.039-0.021 0.044-0.048 0.004-0.021 0.022-0.082 0.041-0.137 0.043-0.129 0.043-0.17-0.004-0.211-0.029-0.025-0.037-0.048-0.043-0.115-0.004-0.054-0.016-0.091-0.032-0.108-0.014-0.014-0.045-0.061-0.069-0.105-0.023-0.042-0.048-0.078-0.055-0.078s-0.013-0.007-0.013-0.016c0-0.008-0.020-0.042-0.046-0.075s-0.053-0.075-0.062-0.095c-0.008-0.025-0.027-0.041-0.059-0.048-0.024-0.007-0.060-0.016-0.079-0.020-0.027-0.007-0.033-0.018-0.034-0.062-0.001-0.038 0.006-0.059 0.022-0.068 0.012-0.007 0.036-0.035 0.052-0.062 0.017-0.030 0.041-0.050 0.056-0.050s0.046-0.010 0.067-0.021c0.037-0.020 0.045-0.020 0.085 0.001 0.049 0.027 0.152 0.020 0.259-0.016 0.050-0.017 0.070-0.034 0.096-0.082 0.049-0.088 0.063-0.139 0.056-0.197-0.004-0.040-0.012-0.054-0.039-0.059-0.034-0.010-0.036-0.017-0.039-0.115-0.001-0.047-0.007-0.059-0.039-0.075-0.023-0.011-0.039-0.031-0.039-0.050 0-0.017-0.020-0.062-0.040-0.102-0.022-0.038-0.055-0.099-0.074-0.134s-0.062-0.092-0.096-0.127c-0.034-0.034-0.063-0.071-0.063-0.081 0-0.008-0.034-0.054-0.074-0.098-0.073-0.079-0.075-0.079-0.137-0.071-0.052 0.008-0.072 0.004-0.136-0.033-0.085-0.051-0.13-0.055-0.177-0.016-0.033 0.025-0.036 0.025-0.056 0.003-0.030-0.034-0.050-0.093-0.043-0.125 0.004-0.016-0.001-0.040-0.012-0.054-0.020-0.027-0.024-0.027-0.086-0.008-0.037 0.010-0.105 0.018-0.148 0.020-0.080 0.001-0.082 0.003-0.102 0.051-0.010 0.027-0.030 0.057-0.045 0.068s-0.026 0.035-0.026 0.059c0 0.033-0.011 0.047-0.065 0.078-0.037 0.021-0.077 0.050-0.090 0.061-0.022 0.021-0.024 0.020-0.033-0.008-0.004-0.017-0.020-0.034-0.033-0.038-0.015-0.006-0.036-0.027-0.046-0.050-0.011-0.021-0.043-0.054-0.070-0.071-0.040-0.027-0.048-0.038-0.043-0.068 0.003-0.018-0.006-0.068-0.020-0.11-0.016-0.041-0.026-0.085-0.026-0.098 0-0.011-0.016-0.031-0.034-0.044-0.023-0.016-0.034-0.035-0.034-0.064s-0.015-0.058-0.048-0.092c-0.026-0.027-0.048-0.061-0.048-0.075s-0.009-0.034-0.020-0.044c-0.011-0.010-0.024-0.048-0.029-0.086-0.008-0.064-0.014-0.072-0.055-0.091-0.032-0.013-0.044-0.027-0.039-0.040 0.010-0.027-0.043-0.156-0.077-0.187-0.020-0.018-0.022-0.033-0.013-0.068 0.022-0.082-0.027-0.173-0.113-0.207-0.023-0.010-0.041-0.028-0.046-0.054-0.006-0.021-0.018-0.052-0.027-0.068-0.011-0.016-0.020-0.048-0.020-0.074 0-0.033-0.011-0.057-0.034-0.078-0.020-0.018-0.034-0.045-0.034-0.067s-0.011-0.044-0.026-0.054c-0.013-0.010-0.037-0.051-0.050-0.092-0.029-0.092-0.093-0.215-0.145-0.279-0.037-0.042-0.039-0.052-0.030-0.123 0.005-0.057 0.003-0.076-0.008-0.076-0.010 0-0.034-0.016-0.057-0.035-0.022-0.020-0.055-0.035-0.073-0.035s-0.041-0.014-0.053-0.033c-0.027-0.044-0.114-0.081-0.179-0.078-0.030 0-0.069-0.006-0.086-0.016s-0.043-0.014-0.055-0.010c-0.034 0.011-0.072-0.020-0.072-0.062 0-0.020 0.005-0.086 0.013-0.149s0.020-0.157 0.024-0.212c0.008-0.089 0.013-0.099 0.041-0.103 0.030-0.004 0.032-0.008 0.027-0.149l-0.004-0.143-0.048-0.034c-0.026-0.018-0.046-0.042-0.044-0.055 0.007-0.030-0.066-0.102-0.102-0.103-0.070 0-0.123-0.089-0.149-0.244-0.006-0.038-0.016-0.054-0.032-0.054-0.013 0-0.041-0.016-0.065-0.034-0.034-0.028-0.037-0.037-0.022-0.055 0.044-0.057-0.029-0.168-0.121-0.187-0.027-0.006-0.041-0.014-0.032-0.017s0.016-0.018 0.016-0.033c0-0.015 0.007-0.031 0.014-0.035 0.008-0.004 0.014-0.024 0.014-0.041 0-0.024-0.014-0.040-0.046-0.057-0.026-0.013-0.053-0.023-0.062-0.023s-0.018-0.016-0.023-0.035c-0.007-0.027-0.018-0.035-0.048-0.035-0.027 0-0.040-0.007-0.040-0.023 0-0.041-0.067-0.173-0.092-0.181-0.013-0.004-0.052-0.038-0.086-0.074s-0.082-0.075-0.106-0.086c-0.039-0.016-0.045-0.025-0.045-0.069s-0.011-0.062-0.074-0.125c-0.093-0.093-0.139-0.184-0.133-0.26 0-0.010 0.023-0.028 0.050-0.041 0.046-0.023 0.049-0.023 0.088 0.007 0.036 0.027 0.052 0.030 0.121 0.023 0.072-0.008 0.085-0.006 0.121 0.025 0.072 0.059 0.144 0.096 0.194 0.096 0.029 0 0.046 0.007 0.046 0.018 0 0.047 0.174 0.093 0.198 0.052s0.13 0.004 0.13 0.052c0 0.018 0.050 0.052 0.096 0.068 0.019 0.006 0.069 0.035 0.111 0.064 0.067 0.047 0.090 0.054 0.179 0.059 0.073 0.004 0.118 0.016 0.154 0.038 0.029 0.018 0.059 0.028 0.076 0.023 0.033-0.010 0.098 0.016 0.098 0.040 0 0.021 0.126 0.108 0.234 0.16 0.034 0.017 0.089 0.064 0.123 0.105s0.085 0.089 0.113 0.109c0.052 0.034 0.062 0.051 0.092 0.154 0.010 0.031 0.041 0.085 0.073 0.117l0.056 0.062 0.092-0.010c0.057-0.006 0.119-0.023 0.163-0.045 0.049-0.025 0.082-0.034 0.106-0.028 0.020 0.006 0.059 0.014 0.086 0.021s0.070 0.024 0.096 0.041c0.026 0.017 0.067 0.031 0.089 0.031 0.052 0 0.103 0.014 0.103 0.028 0 0.007 0.059 0.072 0.132 0.147 0.13 0.134 0.132 0.136 0.198 0.136 0.084 0 0.11 0.010 0.11 0.042 0 0.028 0.036 0.048 0.048 0.028 0.027-0.047 0.118 0.013 0.136 0.089 0.006 0.025 0.017 0.038 0.037 0.038 0.016 0 0.060 0.016 0.1 0.035s0.093 0.040 0.12 0.044c0.034 0.007 0.072 0.035 0.138 0.11 0.113 0.123 0.129 0.14 0.146 0.176 0.007 0.014 0.043 0.038 0.079 0.052 0.062 0.024 0.066 0.024 0.082 0.001 0.024-0.035 0.069-0.008 0.079 0.048 0.008 0.035 0.016 0.042 0.050 0.042 0.030 0 0.043 0.008 0.050 0.033 0.016 0.057 0.1 0.157 0.161 0.195 0.032 0.020 0.066 0.054 0.077 0.075 0.014 0.033 0.024 0.038 0.056 0.034 0.024-0.004 0.043 0.001 0.052 0.018 0.012 0.020 0.024 0.023 0.065 0.013 0.026-0.006 0.059-0.020 0.070-0.030 0.013-0.011 0.024-0.013 0.030-0.003 0.005 0.007 0.023 0.021 0.041 0.031 0.016 0.008 0.030 0.027 0.030 0.038 0 0.028 0.053 0.021 0.17-0.021 0.102-0.037 0.123-0.037 0.173 0.001 0.046 0.034 0.050 0.064 0.020 0.125-0.020 0.038-0.020 0.044 0.007 0.068 0.024 0.024 0.026 0.028 0.007 0.037-0.015 0.006-0.022 0.025-0.020 0.068 0.001 0.034-0.008 0.096-0.020 0.139-0.015 0.055-0.019 0.105-0.014 0.17 0.006 0.051 0.001 0.123-0.007 0.161-0.014 0.064-0.012 0.076 0.020 0.143 0.020 0.041 0.034 0.081 0.034 0.089 0 0.031 0.046 0.062 0.077 0.054 0.018-0.006 0.055 0 0.082 0.013 0.027 0.011 0.065 0.021 0.082 0.021 0.016 0 0.036 0.007 0.039 0.016 0.006 0.007 0.020 0.011 0.032 0.008s0.053 0.010 0.089 0.028c0.037 0.018 0.099 0.038 0.137 0.042 0.077 0.008 0.133 0.037 0.133 0.067 0 0.010 0.012 0.030 0.027 0.044s0.027 0.042 0.027 0.062 0.010 0.050 0.020 0.064c0.011 0.016 0.020 0.042 0.020 0.061 0 0.021 0.008 0.033 0.023 0.033 0.037 0 0.122 0.068 0.161 0.127 0.033 0.051 0.039 0.054 0.121 0.061 0.048 0.003 0.135 0.024 0.192 0.045 0.106 0.040 0.106 0.040 0.169 0.014 0.045-0.017 0.077-0.044 0.109-0.091l0.046-0.065 0.001-0.205c0-0.113 0-0.224 0-0.246s-0.013-0.057-0.027-0.076c-0.015-0.018-0.027-0.045-0.027-0.058s-0.016-0.052-0.034-0.089c-0.020-0.037-0.034-0.076-0.034-0.088s-0.012-0.030-0.026-0.040c-0.020-0.013-0.023-0.024-0.013-0.050 0.019-0.052 0.015-0.105-0.010-0.133-0.014-0.016-0.027-0.067-0.033-0.129-0.007-0.057-0.017-0.122-0.026-0.146-0.007-0.023-0.019-0.081-0.026-0.127l-0.009-0.085-0.057-0.004c-0.053-0.004-0.056-0.007-0.046-0.035 0.020-0.057 0.029-0.241 0.018-0.395-0.010-0.122-0.020-0.166-0.048-0.225-0.036-0.069-0.037-0.076-0.020-0.154 0.016-0.076 0.014-0.084-0.016-0.126-0.023-0.033-0.036-0.079-0.045-0.161-0.008-0.071-0.022-0.126-0.036-0.142-0.020-0.021-0.022-0.058-0.020-0.212l0.003-0.187 0.057-0.052c0.067-0.061 0.077-0.064 0.089-0.028 0.011 0.030 0.037 0.051 0.105 0.088 0.027 0.016 0.050 0.038 0.050 0.048s0.010 0.027 0.020 0.037 0.023 0.040 0.029 0.068c0.006 0.028 0.024 0.064 0.043 0.079 0.019 0.018 0.041 0.064 0.055 0.115s0.039 0.102 0.065 0.132c0.037 0.041 0.048 0.045 0.089 0.038l0.046-0.008-0.008 0.050c-0.008 0.044-0.004 0.052 0.040 0.086 0.046 0.037 0.048 0.042 0.045 0.119-0.004 0.069 0.001 0.088 0.033 0.126 0.020 0.025 0.039 0.058 0.045 0.074 0.006 0.020 0.020 0.028 0.048 0.028 0.022 0 0.063 0.016 0.090 0.035 0.046 0.033 0.062 0.035 0.2 0.034 0.166-0.001 0.189 0.008 0.189 0.078 0.001 0.037 0.011 0.051 0.063 0.084 0.033 0.023 0.072 0.057 0.085 0.076s0.044 0.059 0.069 0.089c0.023 0.028 0.044 0.062 0.044 0.074s0.012 0.033 0.027 0.047c0.016 0.014 0.027 0.034 0.027 0.045s0.010 0.023 0.020 0.027c0.011 0.006 0.020 0.017 0.020 0.027s0.022 0.027 0.048 0.037c0.026 0.010 0.048 0.027 0.048 0.038 0 0.031 0.082 0.102 0.118 0.102 0.037 0 0.062 0.040 0.052 0.079-0.006 0.021 0.010 0.044 0.052 0.085 0.032 0.030 0.096 0.095 0.141 0.142 0.082 0.084 0.086 0.086 0.119 0.068 0.052-0.028 0.175-0.044 0.231-0.030 0.109 0.027 0.123 0.028 0.123 0.004 0-0.011 0.012-0.028 0.026-0.037 0.036-0.018 0.156-0.018 0.175 0.001 0.010 0.010 0.033-0.007 0.079-0.061 0.106-0.122 0.121-0.163 0.11-0.292-0.007-0.096-0.007-0.106 0.011-0.084 0.011 0.016 0.032 0.025 0.050 0.021 0.024-0.003 0.039-0.027 0.075-0.12 0.043-0.11 0.044-0.12 0.034-0.241-0.006-0.068-0.016-0.168-0.024-0.224-0.008-0.054-0.014-0.109-0.016-0.122 0-0.013-0.017-0.042-0.039-0.067-0.043-0.045-0.062-0.11-0.054-0.181 0.003-0.031 0.016-0.047 0.052-0.065 0.053-0.028 0.082-0.079 0.082-0.15 0-0.027 0.014-0.067 0.029-0.091 0.024-0.035 0.027-0.052 0.020-0.115-0.006-0.041-0.010-0.092-0.010-0.116 0.008-0.28-0.008-0.562-0.033-0.604-0.006-0.008-0.010-0.037-0.008-0.062s-0.010-0.061-0.023-0.079c-0.014-0.017-0.029-0.051-0.034-0.075-0.006-0.023-0.022-0.055-0.036-0.071s-0.040-0.059-0.057-0.099c-0.039-0.086-0.095-0.122-0.133-0.086-0.046 0.042-0.083 0.021-0.083-0.047 0-0.040-0.1-0.115-0.154-0.115-0.024 0-0.063-0.013-0.085-0.027-0.027-0.018-0.053-0.025-0.079-0.020-0.022 0.004-0.055 0-0.073-0.010-0.029-0.016-0.032-0.021-0.014-0.045 0.012-0.020 0.016-0.041 0.007-0.071-0.022-0.078 0.037-0.174 0.119-0.19 0.040-0.007 0.046-0.014 0.046-0.054 0-0.024-0.012-0.071-0.026-0.103-0.030-0.068-0.027-0.074 0.065-0.11 0.063-0.027 0.088-0.076 0.059-0.122-0.007-0.014-0.015-0.050-0.015-0.076 0-0.040 0.006-0.050 0.027-0.050 0.033 0 0.062-0.055 0.080-0.154 0.009-0.057 0.007-0.093-0.008-0.157-0.013-0.047-0.020-0.088-0.016-0.092 0.006-0.004 0.026 0.001 0.048 0.014 0.036 0.018 0.041 0.018 0.070-0.010 0.020-0.020 0.032-0.047 0.032-0.075 0-0.027 0.011-0.055 0.026-0.069 0.027-0.025 0.056-0.122 0.056-0.19 0-0.030-0.010-0.045-0.036-0.058-0.034-0.016-0.036-0.021-0.027-0.082 0.004-0.035 0.016-0.074 0.023-0.083 0.023-0.028 0.053-0.024 0.065 0.010 0.011 0.028 0.012 0.028 0.041 0.003 0.020-0.017 0.033-0.048 0.040-0.096 0.005-0.044 0.022-0.089 0.045-0.12 0.086-0.115 0.121-0.211 0.133-0.371 0.012-0.147 0.016-0.153 0.073-0.241 0.055-0.081 0.060-0.099 0.066-0.188 0.004-0.069 0.014-0.108 0.030-0.127 0.014-0.016 0.039-0.057 0.055-0.092s0.037-0.068 0.045-0.074c0.010-0.006 0.008-0.023-0.003-0.050-0.032-0.079-0.001-0.35 0.041-0.374 0.032-0.017 0.095-0.151 0.095-0.201 0-0.095 0.046-0.345 0.069-0.378 0.014-0.021 0.030-0.055 0.036-0.079 0.008-0.038 0.052-0.139 0.096-0.218 0.010-0.020 0.020-0.071 0.020-0.115 0-0.058 0.007-0.089 0.027-0.116 0.022-0.028 0.027-0.058 0.029-0.154 0-0.178 0.016-0.252 0.057-0.283 0.022-0.017 0.040-0.047 0.046-0.076s0.022-0.058 0.039-0.071c0.034-0.023 0.044-0.071 0.053-0.253 0.004-0.054 0.012-0.143 0.020-0.195 0.010-0.054 0.016-0.137 0.012-0.185-0.003-0.069 0.003-0.096 0.026-0.13 0.040-0.058 0.086-0.156 0.086-0.183 0-0.011-0.009-0.021-0.018-0.021-0.027 0-0.055-0.062-0.043-0.098 0.013-0.047 0.067-0.078 0.102-0.058 0.016 0.009 0.029 0.021 0.029 0.028s0.018 0.016 0.040 0.021c0.043 0.010 0.107 0.098 0.121 0.166 0.004 0.021 0.026 0.058 0.048 0.081 0.039 0.038 0.041 0.050 0.048 0.184 0.007 0.12 0.014 0.15 0.040 0.188 0.017 0.025 0.033 0.059 0.033 0.076 0 0.041 0.066 0.248 0.088 0.275 0.011 0.013 0.022 0.088 0.029 0.191 0.006 0.093 0.012 0.188 0.014 0.211s0.012 0.045 0.024 0.052c0.011 0.007 0.043 0.061 0.072 0.117 0.040 0.085 0.048 0.115 0.041 0.15-0.006 0.025-0.006 0.081 0 0.126 0.009 0.072 0.015 0.085 0.083 0.153 0.041 0.040 0.073 0.082 0.073 0.093s0.032 0.040 0.069 0.064c0.089 0.057 0.090 0.092 0.011 0.215-0.050 0.076-0.059 0.101-0.060 0.168-0.001 0.042-0.009 0.081-0.016 0.082-0.036 0.013-0.062 0.045-0.083 0.112-0.027 0.075-0.020 0.127 0.016 0.142s0.066 0.156 0.063 0.289c-0.004 0.173-0.006 0.168 0.050 0.193 0.045 0.020 0.049 0.025 0.041 0.064-0.004 0.025 0.003 0.068 0.020 0.113 0.015 0.038 0.027 0.093 0.027 0.122s0.007 0.092 0.016 0.142c0.014 0.078 0.022 0.095 0.055 0.112s0.039 0.030 0.039 0.078c0 0.031 0.009 0.079 0.022 0.109 0.012 0.028 0.024 0.079 0.026 0.11 0.001 0.042 0.015 0.075 0.045 0.113 0.037 0.045 0.044 0.067 0.044 0.127 0 0.055 0.014 0.102 0.055 0.193 0.030 0.067 0.063 0.127 0.073 0.137 0.011 0.008 0.030 0.057 0.043 0.106 0.014 0.051 0.033 0.095 0.044 0.099s0.020 0.020 0.020 0.034c0 0.016 0.016 0.052 0.037 0.082 0.026 0.041 0.039 0.081 0.043 0.151l0.010 0.095-0.045 0.017c-0.024 0.010-0.048 0.028-0.053 0.042-0.009 0.028-0.062 0.047-0.096 0.034-0.013-0.004-0.050 0.004-0.084 0.020s-0.082 0.028-0.106 0.028c-0.034 0-0.074 0.021-0.154 0.082-0.059 0.044-0.123 0.092-0.144 0.105-0.044 0.030-0.073 0.11-0.059 0.171 0.006 0.025 0.011 0.178 0.016 0.341 0.004 0.244 0.009 0.302 0.027 0.331 0.016 0.027 0.019 0.048 0.011 0.093-0.029 0.156-0.001 0.5 0.047 0.599 0.027 0.055 0.029 0.067 0.016 0.184-0.014 0.11-0.017 0.156-0.013 0.313 0 0.021-0.003 0.129-0.007 0.239-0.007 0.149-0.004 0.21 0.010 0.234 0.011 0.021 0.017 0.109 0.019 0.26 0.003 0.198 0.007 0.235 0.032 0.283 0.016 0.030 0.037 0.075 0.050 0.101 0.011 0.025 0.033 0.052 0.048 0.061 0.022 0.013 0.027 0.030 0.027 0.086 0 0.038 0.010 0.093 0.020 0.122 0.014 0.031 0.018 0.069 0.012 0.098-0.007 0.037-0.003 0.050 0.013 0.057 0.012 0.004 0.033 0.035 0.045 0.071 0.030 0.081 0.069 0.093 0.225 0.078 0.1-0.011 0.118-0.010 0.132 0.011 0.010 0.013 0.032 0.024 0.049 0.025s0.050 0.007 0.073 0.011c0.059 0.013 0.198-0.042 0.212-0.085 0.007-0.018 0.024-0.037 0.039-0.042s0.029-0.016 0.029-0.023 0.009-0.013 0.019-0.013c0.010 0 0.026-0.010 0.036-0.021s0.036-0.021 0.057-0.021c0.053 0 0.103-0.028 0.163-0.095 0.057-0.062 0.081-0.103 0.081-0.143 0-0.034 0.024-0.045 0.105-0.045 0.066 0 0.115-0.035 0.115-0.085 0-0.040 0.077-0.159 0.115-0.18 0.024-0.014 0.036-0.034 0.043-0.086 0.009-0.061 0.017-0.074 0.093-0.137 0.106-0.091 0.141-0.125 0.149-0.15 0.006-0.016 0.011-0.017 0.026-0.001 0.027 0.027 0.066 0.020 0.082-0.014 0.037-0.088 0.141-0.208 0.222-0.256 0.059-0.037 0.065-0.044 0.065-0.095 0-0.044 0.009-0.061 0.040-0.083 0.022-0.017 0.052-0.030 0.069-0.030s0.041-0.020 0.059-0.044c0.039-0.054 0.095-0.086 0.121-0.069 0.013 0.007 0.026 0.007 0.037-0.003 0.012-0.010 0.023-0.010 0.039 0.003 0.016 0.014 0.019 0.034 0.012 0.083-0.006 0.035-0.016 0.072-0.022 0.082s-0.010 0.035-0.004 0.058c0.006 0.027-0.001 0.072-0.020 0.125-0.016 0.045-0.029 0.116-0.029 0.156 0 0.064-0.009 0.088-0.062 0.17-0.039 0.064-0.056 0.102-0.048 0.11s0.014 0.068 0.014 0.133c0 0.103-0.006 0.132-0.041 0.21-0.024 0.051-0.063 0.108-0.092 0.132l-0.049 0.042 0.009 0.109c0.009 0.095 0.006 0.115-0.019 0.157-0.027 0.047-0.029 0.078-0.006 0.153 0.006 0.021-0.006 0.047-0.040 0.092-0.027 0.035-0.050 0.074-0.050 0.085s-0.015 0.051-0.034 0.088c-0.018 0.035-0.037 0.092-0.043 0.125-0.006 0.037-0.020 0.065-0.037 0.075-0.043 0.027-0.106 0.188-0.108 0.27 0 0.057 0.005 0.075 0.033 0.096 0.019 0.016 0.045 0.024 0.067 0.020 0.030-0.006 0.039 0.001 0.060 0.052 0.013 0.033 0.057 0.092 0.096 0.13 0.040 0.040 0.076 0.084 0.082 0.099 0.013 0.044 0.098 0.092 0.164 0.095 0.047 0.003 0.072-0.006 0.109-0.035 0.029-0.023 0.066-0.038 0.090-0.038 0.033 0 0.046-0.010 0.063-0.042 0.012-0.024 0.030-0.042 0.041-0.042s0.033-0.014 0.048-0.031c0.024-0.028 0.043-0.033 0.118-0.031 0.088 0.001 0.090 0 0.159-0.067s0.070-0.067 0.059-0.134c-0.006-0.042-0.020-0.076-0.036-0.088-0.016-0.011-0.026-0.035-0.026-0.059s-0.012-0.067-0.027-0.096c-0.015-0.031-0.024-0.065-0.020-0.076 0.010-0.025 0.132-0.054 0.234-0.054 0.052 0 0.082 0.008 0.109 0.030 0.030 0.024 0.059 0.030 0.205 0.034 0.179 0.004 0.205-0.003 0.207-0.062 0-0.013 0.014-0.024 0.030-0.027 0.018-0.003 0.034-0.020 0.043-0.042 0.022-0.067 0.083-0.13 0.126-0.13 0.020 0 0.045-0.008 0.053-0.020 0.010-0.011 0.027-0.017 0.041-0.013 0.016 0.004 0.044-0.016 0.081-0.055 0.032-0.033 0.057-0.065 0.057-0.071s0.020-0.011 0.046-0.011c0.063 0 0.107-0.018 0.151-0.064 0.033-0.034 0.045-0.037 0.122-0.033l0.085 0.004-0.003-0.052c-0.001-0.030-0.020-0.109-0.037-0.177-0.027-0.099-0.044-0.133-0.080-0.163-0.039-0.037-0.043-0.042-0.029-0.088 0.010-0.031 0.010-0.054 0.001-0.062-0.007-0.007-0.011-0.041-0.009-0.074 0.007-0.092 0.046-0.116 0.198-0.12 0.067-0.001 0.145-0.008 0.171-0.016 0.029-0.008 0.072-0.008 0.112 0 0.056 0.013 0.076 0.010 0.143-0.018l0.077-0.034 0.039 0.031c0.057 0.044 0.122 0.038 0.175-0.013 0.024-0.024 0.053-0.042 0.065-0.042 0.010 0 0.036-0.016 0.057-0.034s0.062-0.041 0.089-0.050c0.027-0.009 0.067-0.040 0.088-0.067s0.047-0.048 0.057-0.048c0.011 0 0.040 0.023 0.065 0.051 0.043 0.048 0.048 0.050 0.151 0.052l0.106 0.003 0.015-0.048c0.014-0.040 0.027-0.051 0.076-0.067 0.032-0.008 0.067-0.025 0.078-0.034 0.020-0.017 0.285-0.021 0.311-0.006 0.007 0.004 0.030 0 0.053-0.008 0.032-0.014 0.040-0.025 0.040-0.062 0-0.058 0.049-0.108 0.111-0.113 0.050-0.006 0.116-0.031 0.151-0.062 0.014-0.010 0.065-0.021 0.119-0.024 0.053-0.003 0.105-0.008 0.113-0.014 0.010-0.006 0.013-0.031 0.011-0.055-0.004-0.041 0-0.048 0.040-0.061 0.024-0.007 0.052-0.008 0.062-0.003 0.033 0.023 0.059 0.011 0.090-0.038 0.016-0.028 0.030-0.058 0.030-0.068 0-0.035 0.036-0.051 0.119-0.051 0.081 0 0.086-0.003 0.107-0.042 0.011-0.023 0.020-0.055 0.020-0.071 0-0.028 0.007-0.031 0.066-0.025 0.059 0.004 0.072 0 0.111-0.041 0.023-0.025 0.065-0.051 0.089-0.059 0.060-0.016 0.151 0.001 0.202 0.040s0.067 0.038 0.067-0.006c0-0.024 0.029-0.067 0.096-0.136 0.053-0.057 0.096-0.109 0.096-0.116s0.022-0.034 0.049-0.059c0.044-0.042 0.052-0.045 0.090-0.030 0.037 0.014 0.044 0.013 0.070-0.021 0.027-0.035 0.039-0.038 0.126-0.038 0.053 0 0.116 0.007 0.141 0.016 0.039 0.014 0.048 0.011 0.075-0.016 0.066-0.068 0.163-0.144 0.182-0.144 0.027 0 0.072-0.050 0.082-0.092 0.009-0.037 0.015-0.040 0.073-0.037 0.020 0.001 0.056-0.011 0.082-0.030s0.077-0.051 0.113-0.072c0.036-0.021 0.065-0.045 0.065-0.052 0-0.008 0.006-0.014 0.014-0.014 0.022 0 0.057 0.086 0.050 0.125-0.004 0.020 0 0.047 0.009 0.061 0.023 0.038-0.012 0.171-0.063 0.239-0.040 0.051-0.048 0.055-0.090 0.048s-0.045-0.006-0.030 0.014c0.016 0.018 0.014 0.025-0.001 0.042-0.011 0.011-0.029 0.040-0.039 0.064s-0.024 0.044-0.034 0.044c-0.020 0-0.072 0.082-0.083 0.136-0.006 0.020-0.026 0.050-0.048 0.065-0.032 0.025-0.040 0.041-0.040 0.085 0 0.057-0.014 0.076-0.103 0.153-0.023 0.020-0.063 0.064-0.089 0.098s-0.065 0.069-0.085 0.081c-0.053 0.028-0.077 0.058-0.093 0.116-0.010 0.035-0.034 0.068-0.076 0.102-0.060 0.048-0.085 0.092-0.086 0.151-0.001 0.042-0.063 0.15-0.123 0.214-0.065 0.068-0.123 0.171-0.158 0.275-0.006 0.014-0.017 0.025-0.029 0.025-0.010 0-0.023 0.017-0.029 0.038-0.004 0.020-0.020 0.054-0.036 0.072-0.014 0.020-0.026 0.044-0.026 0.054s-0.006 0.020-0.014 0.020c-0.007 0-0.014 0.007-0.014 0.016 0 0.037-0.059 0.142-0.103 0.184-0.027 0.027-0.072 0.096-0.1 0.154-0.027 0.058-0.069 0.13-0.090 0.16-0.027 0.035-0.043 0.076-0.050 0.13-0.006 0.042-0.022 0.093-0.037 0.113-0.016 0.020-0.032 0.055-0.037 0.076-0.009 0.041-0.040 0.064-0.105 0.078-0.027 0.007-0.041 0.023-0.057 0.068-0.011 0.034-0.023 0.079-0.024 0.103-0.003 0.030-0.017 0.051-0.052 0.072-0.026 0.018-0.065 0.047-0.085 0.065-0.048 0.041-0.158 0.208-0.178 0.269-0.009 0.025-0.030 0.062-0.048 0.081s-0.030 0.045-0.029 0.057c0.001 0.012-0.007 0.038-0.020 0.058-0.012 0.018-0.023 0.042-0.023 0.051s-0.016 0.035-0.033 0.058c-0.017 0.021-0.034 0.052-0.037 0.068s-0.020 0.031-0.039 0.035c-0.023 0.004-0.044 0.027-0.059 0.061l-0.026 0.054 0.036 0.047c0.030 0.041 0.032 0.050 0.014 0.057-0.039 0.016-0.047 0.008-0.047-0.034 0-0.050-0.024-0.055-0.062-0.014-0.014 0.016-0.034 0.031-0.047 0.035-0.024 0.007-0.079 0.102-0.067 0.115 0.004 0.004-0.029 0.044-0.073 0.089s-0.081 0.089-0.081 0.096c0 0.008-0.011 0.025-0.026 0.038-0.014 0.013-0.029 0.051-0.033 0.084-0.011 0.084-0.059 0.116-0.112 0.075-0.026-0.020-0.026-0.023-0.004-0.089 0.057-0.18 0.060-0.289 0.007-0.31-0.016-0.006-0.016-0.016-0.003-0.055 0.009-0.027 0.019-0.054 0.024-0.058 0.005-0.006 0.009-0.031 0.009-0.058 0-0.038-0.009-0.052-0.043-0.075-0.039-0.024-0.059-0.027-0.128-0.020-0.045 0.006-0.1 0.021-0.123 0.035-0.052 0.033-0.059 0.037-0.109 0.048-0.022 0.006-0.065 0.037-0.096 0.071-0.040 0.045-0.072 0.067-0.113 0.076-0.033 0.007-0.070 0.023-0.084 0.035s-0.055 0.033-0.093 0.044c-0.043 0.014-0.089 0.041-0.122 0.076-0.030 0.030-0.067 0.061-0.084 0.071-0.017 0.008-0.036 0.033-0.039 0.051-0.004 0.020-0.020 0.037-0.032 0.038-0.089 0.010-0.149 0.027-0.168 0.048-0.009 0.011-0.022 0.020-0.029 0.020s-0.056 0.044-0.108 0.099c-0.052 0.054-0.113 0.109-0.136 0.123-0.023 0.013-0.041 0.030-0.041 0.035 0 0.025-0.057 0.068-0.090 0.068-0.026 0-0.065 0.028-0.141 0.106-0.057 0.058-0.114 0.106-0.125 0.106s-0.032 0.010-0.046 0.020c-0.014 0.011-0.036 0.017-0.048 0.013-0.016-0.004-0.036 0.014-0.065 0.062-0.046 0.075-0.21 0.243-0.238 0.245-0.009 0-0.024 0.016-0.033 0.035s-0.030 0.040-0.047 0.044c-0.037 0.010-0.046 0.037-0.032 0.102s-0.022 0.17-0.071 0.218c-0.037 0.035-0.040 0.045-0.040 0.143 0 0.115 0.030 0.184 0.093 0.217 0.018 0.008 0.050 0.033 0.070 0.054 0.020 0.020 0.050 0.037 0.069 0.037s0.056 0.014 0.086 0.031c0.054 0.031 0.055 0.031 0.074 0.006 0.022-0.033 0.105-0.065 0.163-0.065 0.030 0 0.059-0.017 0.102-0.057 0.065-0.062 0.088-0.068 0.146-0.035 0.022 0.011 0.066 0.021 0.098 0.021 0.048 0 0.069-0.010 0.109-0.048 0.029-0.025 0.066-0.051 0.081-0.057 0.017-0.006 0.040-0.021 0.054-0.037s0.037-0.028 0.050-0.028c0.015 0 0.056-0.013 0.090-0.028l0.066-0.030 0.085 0.028c0.047 0.016 0.095 0.025 0.105 0.021 0.020-0.008 0.077 0.017 0.092 0.041 0.006 0.007 0.001 0.045-0.010 0.084-0.010 0.038-0.014 0.079-0.010 0.091s-0.009 0.050-0.027 0.086c-0.018 0.038-0.039 0.084-0.044 0.103-0.011 0.037-0.063 0.109-0.126 0.174-0.020 0.021-0.041 0.055-0.046 0.076-0.004 0.025-0.027 0.052-0.066 0.079-0.032 0.021-0.057 0.047-0.057 0.054s-0.017 0.055-0.041 0.105c-0.032 0.071-0.056 0.101-0.105 0.136-0.078 0.055-0.086 0.065-0.086 0.113 0 0.025-0.020 0.055-0.060 0.093-0.071 0.068-0.086 0.123-0.059 0.217 0.012 0.044 0.016 0.076 0.006 0.103-0.023 0.074 0.052 0.231 0.103 0.218 0.036-0.010 0.039 0.006 0.019 0.076-0.023 0.082-0.015 0.109 0.037 0.123 0.026 0.007 0.050 0.027 0.065 0.052 0.039 0.074 0.077 0.079 0.473 0.074 0.161-0.003 0.182-0.006 0.221-0.034 0.023-0.017 0.059-0.038 0.080-0.047 0.019-0.007 0.041-0.028 0.048-0.045 0.007-0.018 0.029-0.057 0.048-0.086 0.039-0.059 0.043-0.099 0.015-0.151-0.026-0.047-0.026-0.132 0-0.26 0.017-0.082 0.018-0.13 0.009-0.235l-0.014-0.132 0.056-0.068c0.032-0.038 0.063-0.069 0.072-0.069 0.010 0 0.040 0.013 0.070 0.028s0.073 0.034 0.098 0.042c0.029 0.010 0.047 0.027 0.052 0.050 0.007 0.027 0.018 0.035 0.048 0.035 0.041 0 0.072 0.034 0.107 0.117 0.012 0.028 0.024 0.038 0.041 0.033 0.014-0.004 0.043 0.001 0.065 0.013 0.021 0.011 0.052 0.021 0.069 0.021 0.034 0 0.099 0.064 0.106 0.105 0.004 0.030 0.188 0.139 0.276 0.164 0.027 0.008 0.070 0.034 0.092 0.057 0.032 0.031 0.056 0.042 0.093 0.044 0.142 0.001 0.185 0.008 0.202 0.031 0.019 0.027 0.103 0.067 0.141 0.067 0.013 0 0.043 0.021 0.069 0.047 0.045 0.048 0.105 0.058 0.163 0.027 0.017-0.010 0.052-0.017 0.080-0.017s0.118-0.023 0.2-0.051c0.083-0.028 0.155-0.048 0.159-0.044 0.003 0.004 0.029-0.003 0.056-0.014l0.049-0.021 0.107 0.119-0.011 0.093c-0.014 0.116-0.011 0.195 0.009 0.272 0.012 0.050 0.020 0.057 0.055 0.057 0.024 0 0.047 0.011 0.060 0.031 0.016 0.024 0.033 0.031 0.070 0.028 0.027-0.003 0.063 0.006 0.079 0.018 0.016 0.011 0.050 0.021 0.076 0.021s0.048 0.008 0.053 0.021c0.004 0.013 0.033 0.035 0.063 0.051 0.047 0.025 0.070 0.028 0.145 0.020 0.050-0.004 0.102-0.011 0.113-0.016 0.014-0.004 0.041 0.013 0.072 0.044 0.053 0.055 0.073 0.059 0.113 0.028 0.047-0.037 0.073-0.027 0.073 0.027 0 0.027-0.009 0.052-0.016 0.057-0.010 0.004 0.006 0.006 0.033 0.001s0.053-0.001 0.059 0.007c0.004 0.008 0.063 0.014 0.135 0.014 0.086 0.001 0.135 0.007 0.151 0.021 0.016 0.010 0.050 0.023 0.078 0.028 0.036 0.006 0.056 0.018 0.066 0.044 0.009 0.018 0.024 0.034 0.034 0.034s0.037 0.014 0.057 0.031c0.036 0.028 0.043 0.030 0.119 0.013 0.078-0.017 0.082-0.016 0.122 0.020 0.033 0.027 0.057 0.035 0.109 0.035 0.073 0 0.109 0.025 0.109 0.076 0 0.045 0.012 0.052 0.050 0.027 0.026-0.018 0.050-0.020 0.132-0.011 0.055 0.007 0.129 0.011 0.165 0.010 0.057-0.003 0.075 0.004 0.139 0.054 0.053 0.042 0.085 0.057 0.119 0.055 0.079-0.003 0.238 0.017 0.252 0.031 0.007 0.007 0.060 0.013 0.118 0.013 0.092 0 0.111 0.004 0.145 0.034 0.022 0.018 0.065 0.035 0.1 0.041 0.052 0.007 0.072 0.018 0.123 0.079 0.034 0.038 0.079 0.076 0.099 0.085 0.050 0.020 0.202 0.023 0.245 0.004 0.032-0.013 0.041-0.010 0.066 0.017 0.073 0.079 0.005 0.166-0.135 0.17-0.056 0.003-0.099 0.016-0.148 0.042-0.039 0.023-0.077 0.035-0.085 0.030-0.010-0.006-0.046 0.010-0.082 0.035-0.062 0.040-0.073 0.042-0.141 0.034-0.039-0.006-0.086-0.016-0.105-0.021-0.024-0.010-0.037-0.006-0.062 0.024-0.018 0.021-0.057 0.042-0.099 0.052-0.059 0.016-0.070 0.024-0.082 0.065-0.010 0.034-0.020 0.044-0.037 0.040-0.014-0.004-0.024-0.001-0.024 0.006s-0.034 0.013-0.076 0.013c-0.055 0-0.078 0.006-0.083 0.021-0.007 0.016-0.014 0.017-0.036 0.006-0.019-0.011-0.077-0.013-0.172-0.006-0.154 0.011-0.254 0.051-0.271 0.108-0.007 0.023-0.022 0.027-0.090 0.027-0.072 0-0.085 0.004-0.116 0.041-0.030 0.035-0.050 0.042-0.13 0.051-0.099 0.010-0.136 0.031-0.136 0.078 0 0.061-0.098 0.093-0.166 0.057-0.020-0.011-0.037-0.009-0.070 0.010-0.024 0.013-0.075 0.028-0.113 0.034-0.113 0.017-0.175 0.038-0.198 0.067-0.034 0.045-0.074 0.059-0.148 0.050-0.081-0.010-0.257 0.016-0.36 0.052-0.041 0.014-0.066 0.027-0.056 0.027 0.009 0.001 0.016 0.014 0.016 0.028 0 0.018-0.017 0.034-0.055 0.050-0.040 0.016-0.056 0.033-0.063 0.061-0.014 0.057-0.088 0.204-0.123 0.245-0.016 0.020-0.033 0.054-0.036 0.078-0.006 0.058-0.040 0.059-0.095 0.004-0.026-0.025-0.063-0.058-0.081-0.071-0.020-0.014-0.062-0.045-0.096-0.069-0.109-0.079-0.174-0.095-0.388-0.088-0.11 0.004-0.205 0.001-0.229-0.007-0.033-0.013-0.045-0.010-0.072 0.011-0.023 0.018-0.065 0.027-0.148 0.033-0.146 0.010-0.238 0.028-0.267 0.052-0.012 0.011-0.044 0.018-0.070 0.017-0.039-0.003-0.049 0.003-0.066 0.038-0.027 0.052-0.036 0.055-0.248 0.072-0.23 0.018-0.266 0.025-0.313 0.065-0.041 0.035-0.050 0.038-0.139 0.040-0.050 0.001-0.055 0.006-0.050 0.034 0.004 0.033-0.011 0.037-0.118 0.031-0.024-0.001-0.070 0.010-0.103 0.025-0.113 0.057-0.164 0.074-0.215 0.074-0.027 0-0.055-0.004-0.060-0.010s-0.029-0.011-0.050-0.013c-0.022-0.001-0.048-0.010-0.059-0.018-0.026-0.023-0.011-0.086 0.026-0.101 0.022-0.009 0.033-0.028 0.039-0.074 0.004-0.034 0.013-0.084 0.016-0.112 0.007-0.047 0.003-0.054-0.060-0.109-0.057-0.051-0.078-0.059-0.13-0.059-0.046 0-0.073-0.009-0.103-0.035l-0.039-0.035-0.225 0.010c-0.123 0.004-0.231 0.014-0.241 0.021s-0.052 0.016-0.096 0.020c-0.108 0.010-0.164 0.040-0.177 0.096-0.006 0.024-0.021 0.059-0.034 0.078-0.016 0.020-0.026 0.057-0.026 0.092 0 0.033-0.007 0.067-0.016 0.075-0.011 0.011-0.009 0.033 0.011 0.076 0.024 0.057 0.034 0.065 0.109 0.089 0.044 0.016 0.090 0.035 0.102 0.044 0.011 0.010 0.039 0.021 0.059 0.027 0.022 0.006 0.049 0.028 0.066 0.055 0.014 0.025 0.048 0.061 0.074 0.081s0.050 0.047 0.055 0.059c0.006 0.014 0.022 0.035 0.039 0.050s0.041 0.042 0.055 0.065c0.014 0.021 0.036 0.038 0.050 0.038 0.016 0 0.040 0.021 0.060 0.054 0.017 0.028 0.041 0.061 0.053 0.071 0.016 0.014 0.018 0.030 0.009 0.071-0.036 0.146-0.041 0.159-0.081 0.18-0.024 0.014-0.041 0.033-0.041 0.051 0 0.045-0.060 0.098-0.113 0.098-0.024 0-0.066 0.013-0.090 0.028s-0.054 0.028-0.065 0.028c-0.011 0-0.027 0.013-0.037 0.028-0.014 0.021-0.033 0.028-0.075 0.028-0.032 0-0.062 0.007-0.066 0.014-0.004 0.009-0.030 0.014-0.057 0.014-0.063 0-0.162 0.068-0.268 0.184-0.060 0.064-0.088 0.084-0.107 0.078-0.043-0.014-0.075 0.016-0.115 0.109-0.032 0.071-0.040 0.112-0.041 0.195 0 0.059-0.007 0.115-0.013 0.125s-0.007 0.034-0.003 0.052c0.007 0.027 0.023 0.038 0.070 0.051 0.037 0.010 0.069 0.028 0.082 0.050 0.018 0.030 0.032 0.034 0.102 0.034 0.073 0 0.085 0.004 0.115 0.042 0.019 0.023 0.052 0.045 0.073 0.051 0.022 0.004 0.063 0.024 0.090 0.044 0.049 0.035 0.050 0.035 0.126 0.013 0.041-0.013 0.079-0.030 0.083-0.037 0.004-0.009 0.030-0.014 0.056-0.014 0.060 0 0.073 0.031 0.057 0.147-0.007 0.047-0.009 0.098-0.006 0.11 0.003 0.014 0 0.030-0.009 0.034-0.023 0.016-0.039 0.076-0.024 0.102 0.007 0.013 0.016 0.041 0.020 0.061s0.023 0.054 0.043 0.075c0.019 0.021 0.034 0.044 0.034 0.052s0.019 0.013 0.043 0.013c0.050 0 0.105 0.052 0.128 0.126 0.016 0.048 0.029 0.057 0.122 0.078 0.034 0.009 0.037 0.014 0.037 0.072 0 0.051 0.004 0.064 0.024 0.064 0.014 0 0.060 0.038 0.105 0.085 0.088 0.092 0.123 0.103 0.196 0.065 0.020-0.010 0.070-0.024 0.109-0.030 0.040-0.006 0.089-0.023 0.109-0.040 0.034-0.027 0.036-0.034 0.030-0.134-0.007-0.11 0.001-0.154 0.049-0.253 0.020-0.044 0.037-0.061 0.059-0.061 0.030 0 0.073 0.047 0.073 0.081 0 0.035 0.072 0.132 0.098 0.132 0.019 0 0.030 0.017 0.041 0.064 0.009 0.034 0.023 0.071 0.034 0.079s0.019 0.027 0.019 0.040c0 0.027 0.043 0.154 0.062 0.185 0.027 0.045 0.062 0.12 0.062 0.137 0 0.010 0.019 0.027 0.041 0.040 0.023 0.013 0.041 0.033 0.041 0.047 0 0.042 0.024 0.057 0.078 0.045 0.027-0.007 0.065-0.006 0.088 0.003 0.033 0.011 0.039 0.023 0.039 0.061 0 0.030 0.009 0.050 0.022 0.055 0.026 0.010 0.047 0 0.047-0.024s0.118-0.098 0.162-0.099c0.122-0.004 0.181 0.006 0.215 0.037 0.036 0.031 0.037 0.033 0.020 0.122-0.009 0.048-0.029 0.115-0.043 0.146-0.026 0.051-0.030 0.086-0.034 0.328-0.009 0.432-0.003 0.507 0.043 0.603 0.024 0.050 0.053 0.159 0.050 0.187-0.006 0.045 0.066 0.161 0.115 0.185 0.034 0.017 0.056 0.044 0.082 0.101 0.027 0.059 0.049 0.086 0.093 0.11 0.047 0.027 0.062 0.045 0.081 0.103 0.024 0.078 0.093 0.149 0.143 0.149 0.016 0 0.056 0.010 0.088 0.021s0.106 0.021 0.165 0.021h0.107l0.039 0.052c0.047 0.064 0.062 0.154 0.039 0.226-0.043 0.13-0.050 0.195-0.029 0.268 0.026 0.086 0.040 0.209 0.037 0.341-0.001 0.088 0.003 0.11 0.040 0.177 0.023 0.042 0.043 0.091 0.043 0.108 0 0.020 0.020 0.042 0.055 0.067 0.043 0.028 0.055 0.044 0.055 0.076 0 0.082 0.016 0.132 0.050 0.147 0.029 0.013 0.033 0.023 0.027 0.062-0.006 0.033 0 0.055 0.020 0.081 0.013 0.018 0.026 0.044 0.026 0.057s0.015 0.055 0.034 0.095c0.027 0.055 0.044 0.072 0.077 0.079 0.023 0.004 0.046 0.017 0.050 0.027s-0.003 0.064-0.016 0.116c-0.013 0.054-0.020 0.129-0.018 0.167l0.004 0.069-0.069 0.027c-0.037 0.014-0.095 0.030-0.125 0.033-0.102 0.011-0.215-0.072-0.268-0.197-0.016-0.034-0.024-0.038-0.092-0.042-0.073-0.004-0.079-0.007-0.104-0.058-0.036-0.072-0.114-0.105-0.175-0.072-0.034 0.018-0.040 0.018-0.047-0.001-0.006-0.013-0.006-0.040-0.001-0.062 0.011-0.057-0.024-0.086-0.103-0.086-0.052 0-0.067-0.006-0.086-0.035-0.012-0.020-0.033-0.035-0.047-0.035s-0.036-0.023-0.050-0.052c-0.020-0.037-0.047-0.059-0.098-0.085-0.040-0.017-0.073-0.038-0.073-0.045s-0.017-0.020-0.037-0.028c-0.022-0.009-0.055-0.030-0.077-0.047-0.023-0.020-0.055-0.031-0.085-0.030-0.036 0.001-0.055-0.007-0.073-0.033-0.014-0.018-0.032-0.034-0.040-0.034s-0.023-0.016-0.034-0.034c-0.016-0.025-0.040-0.037-0.090-0.044-0.063-0.009-0.070-0.014-0.084-0.058-0.010-0.028-0.024-0.048-0.039-0.048-0.012 0-0.056-0.038-0.1-0.084-0.086-0.093-0.143-0.129-0.202-0.129-0.022 0-0.048-0.010-0.057-0.023-0.036-0.044-0.065-0.048-0.196-0.034l-0.13 0.014-0.041-0.040c-0.052-0.051-0.128-0.048-0.152 0.006-0.020 0.048-0.066 0.042-0.119-0.017-0.050-0.054-0.060-0.106-0.024-0.136 0.067-0.057 0.145-0.156 0.159-0.2 0.004-0.017 0.009-0.059 0.010-0.095 0.001-0.057-0.004-0.068-0.047-0.103-0.026-0.021-0.057-0.058-0.069-0.079-0.012-0.027-0.041-0.050-0.082-0.065-0.034-0.014-0.062-0.030-0.062-0.037s-0.019-0.014-0.041-0.020c-0.023-0.006-0.050-0.024-0.062-0.041-0.029-0.044-0.078-0.065-0.156-0.065-0.043 0-0.073-0.007-0.083-0.021-0.010-0.011-0.026-0.021-0.037-0.021s-0.041-0.017-0.067-0.037c-0.039-0.031-0.050-0.034-0.067-0.020-0.018 0.016-0.027 0.013-0.053-0.013-0.029-0.028-0.041-0.031-0.113-0.023-0.050 0.007-0.104 0.003-0.142-0.009-0.081-0.023-0.321-0.023-0.349 0-0.016 0.014-0.029 0.013-0.062-0.004-0.022-0.013-0.063-0.023-0.090-0.023-0.046 0-0.048-0.003-0.048-0.048 0-0.035-0.010-0.055-0.030-0.071-0.024-0.018-0.030-0.035-0.029-0.093 0.003-0.086 0.010-0.099 0.053-0.099 0.049 0 0.162-0.119 0.151-0.16-0.004-0.017-0.009-0.055-0.009-0.085 0-0.048-0.007-0.057-0.065-0.095-0.036-0.024-0.075-0.042-0.089-0.042-0.016 0-0.041-0.025-0.063-0.064-0.020-0.034-0.047-0.064-0.060-0.064-0.012 0-0.067 0.009-0.123 0.020-0.055 0.011-0.139 0.018-0.188 0.016-0.082-0.006-0.089-0.009-0.121-0.057-0.063-0.096-0.075-0.14-0.052-0.197 0.029-0.069 0.027-0.072-0.041-0.149-0.034-0.037-0.062-0.075-0.062-0.082 0-0.021-0.046-0.061-0.073-0.061-0.011 0-0.039-0.017-0.063-0.037-0.029-0.025-0.052-0.034-0.073-0.030-0.026 0.007-0.034-0.001-0.057-0.057-0.015-0.035-0.039-0.069-0.055-0.078-0.016-0.007-0.043-0.021-0.060-0.033-0.023-0.013-0.041-0.016-0.059-0.006s-0.040 0.006-0.078-0.016c-0.030-0.016-0.057-0.034-0.063-0.042-0.004-0.007-0.018-0.014-0.030-0.014s-0.060-0.018-0.105-0.041c-0.076-0.037-0.098-0.041-0.235-0.041-0.128 0-0.162 0.004-0.227 0.033-0.041 0.018-0.089 0.038-0.107 0.042-0.020 0.006-0.034 0.024-0.039 0.051-0.007 0.035-0.014 0.041-0.055 0.041-0.047 0-0.049 0.004-0.065 0.074-0.006 0.023-0.020 0.042-0.040 0.048-0.016 0.006-0.049 0.027-0.073 0.048s-0.050 0.042-0.062 0.045c-0.012 0.004-0.017 0.034-0.019 0.091-0.001 0.081-0.014 0.205-0.027 0.27-0.003 0.017-0.020 0.048-0.039 0.071-0.029 0.037-0.033 0.057-0.041 0.252-0.006 0.117-0.010 0.251-0.009 0.297 0.001 0.048-0.004 0.103-0.013 0.123-0.009 0.024-0.009 0.054 0 0.086 0.011 0.040 0.007 0.065-0.015 0.125-0.017 0.041-0.041 0.084-0.057 0.095-0.022 0.016-0.024 0.030-0.019 0.067 0.019 0.103-0.088 0.12-0.175 0.028-0.026-0.025-0.057-0.079-0.070-0.119-0.016-0.054-0.030-0.072-0.049-0.072-0.014 0-0.026-0.006-0.026-0.014s-0.020-0.018-0.044-0.025c-0.029-0.007-0.052-0.025-0.063-0.048-0.010-0.021-0.029-0.042-0.044-0.047s-0.032-0.024-0.036-0.041c-0.004-0.018-0.022-0.040-0.041-0.050-0.017-0.009-0.033-0.027-0.033-0.041 0-0.030-0.149-0.18-0.192-0.194-0.016-0.004-0.053-0.040-0.085-0.076-0.033-0.038-0.085-0.082-0.113-0.098-0.030-0.017-0.086-0.067-0.123-0.11-0.121-0.143-0.113-0.137-0.177-0.126-0.030 0.006-0.083 0.011-0.118 0.013-0.073 0.001-0.096 0.014-0.096 0.055 0 0.018-0.004 0.024-0.011 0.016-0.026-0.041-0.179-0.031-0.211 0.014-0.005 0.007-0.027 0.009-0.049 0.004-0.029-0.006-0.057 0.003-0.103 0.030-0.052 0.031-0.073 0.058-0.118 0.147-0.048 0.096-0.055 0.123-0.059 0.225l-0.006 0.115 0.048 0.017c0.046 0.016 0.048 0.018 0.050 0.086 0.001 0.040 0.007 0.098 0.012 0.13 0.014 0.076-0.014 0.123-0.085 0.146-0.029 0.010-0.062 0.027-0.074 0.038s-0.043 0.025-0.069 0.034c-0.026 0.007-0.069 0.034-0.096 0.059-0.047 0.041-0.052 0.057-0.074 0.18-0.045 0.258-0.049 0.307-0.056 0.687-0.009 0.459-0.009 0.542 0.010 0.575 0.022 0.044 0.014 0.099-0.022 0.143-0.033 0.040-0.036 0.054-0.034 0.166 0.001 0.067-0.001 0.188-0.006 0.27-0.005 0.142-0.007 0.149-0.045 0.18-0.039 0.033-0.039 0.033-0.034 0.177 0.003 0.079 0.011 0.154 0.020 0.164 0.012 0.014 0.050 0.017 0.162 0.013 0.13-0.006 0.152-0.010 0.2-0.044 0.077-0.054 0.161-0.047 0.225 0.020 0.022 0.023 0.027 0.047 0.027 0.112 0 0.108-0.034 0.276-0.067 0.333-0.014 0.024-0.029 0.061-0.034 0.082s-0.016 0.047-0.027 0.057c-0.046 0.047-0.065 0.112-0.062 0.208 0.001 0.054-0.003 0.105-0.009 0.115-0.007 0.010-0.010 0.047-0.009 0.079 0.001 0.048-0.006 0.069-0.029 0.093-0.072 0.072-0.109 0.13-0.102 0.16 0.003 0.016-0.004 0.048-0.018 0.072-0.014 0.023-0.029 0.067-0.034 0.098-0.009 0.040-0.027 0.071-0.073 0.116-0.036 0.033-0.073 0.061-0.082 0.061s-0.024 0.020-0.032 0.042c-0.018 0.050-0.067 0.061-0.067 0.014 0-0.016-0.006-0.028-0.012-0.028-0.017 0-0.029 0.109-0.016 0.153 0.006 0.021 0.016 0.127 0.020 0.234 0.009 0.174 0.007 0.198-0.014 0.222-0.013 0.016-0.020 0.037-0.016 0.048 0.006 0.013-0.007 0.041-0.029 0.067-0.024 0.033-0.034 0.058-0.033 0.091 0.004 0.037-0.003 0.047-0.033 0.062-0.036 0.016-0.037 0.020-0.030 0.108 0.007 0.085 0.006 0.092-0.026 0.113s-0.033 0.030-0.032 0.153c0.001 0.072 0.001 0.139 0.001 0.147-0.001 0.010-0.020 0.027-0.043 0.040-0.029 0.016-0.044 0.038-0.055 0.078-0.007 0.031-0.020 0.082-0.027 0.113-0.011 0.041-0.022 0.057-0.041 0.057-0.027 0-0.033 0.014-0.046 0.12-0.006 0.038-0.020 0.068-0.044 0.089-0.033 0.030-0.037 0.044-0.037 0.123-0.001 0.082-0.004 0.091-0.033 0.099-0.022 0.006-0.032 0.018-0.032 0.041 0 0.018-0.016 0.068-0.034 0.11s-0.034 0.089-0.034 0.106c0 0.018-0.012 0.040-0.029 0.050-0.050 0.033-0.089 0.174-0.082 0.302 0 0.024 0.003 0.061 0.003 0.082 0.001 0.023-0.011 0.057-0.027 0.078-0.075 0.098-0.113 0.166-0.105 0.2 0.006 0.021 0 0.042-0.016 0.061s-0.024 0.051-0.024 0.096c0 0.058-0.006 0.074-0.037 0.099-0.036 0.028-0.039 0.038-0.039 0.133 0 0.057-0.004 0.161-0.010 0.234-0.008 0.129-0.008 0.13-0.050 0.149-0.023 0.010-0.050 0.030-0.062 0.042-0.024 0.031-0.089 0.065-0.121 0.065-0.014 0-0.039-0.014-0.053-0.033zM16.541 21.466c0-0.007 0.026-0.031 0.057-0.051 0.032-0.021 0.070-0.050 0.086-0.064 0.015-0.016 0.036-0.027 0.047-0.027s0.039-0.016 0.062-0.034c0.052-0.040 0.080-0.047 0.152-0.031 0.043 0.009 0.057 0.006 0.085-0.021s0.111-0.065 0.204-0.093c0.016-0.004 0.047-0.025 0.069-0.047 0.060-0.055 0.111-0.085 0.187-0.108 0.055-0.017 0.071-0.030 0.086-0.067 0.009-0.025 0.039-0.065 0.062-0.089s0.069-0.065 0.098-0.093c0.030-0.030 0.067-0.054 0.083-0.054s0.056-0.024 0.088-0.052c0.032-0.030 0.067-0.059 0.079-0.068 0.032-0.018 0.053-0.137 0.057-0.311 0.003-0.12 0-0.146-0.020-0.17-0.013-0.016-0.027-0.051-0.030-0.078-0.004-0.044-0.010-0.051-0.055-0.062-0.043-0.011-0.052-0.020-0.057-0.057-0.032-0.226-0.041-0.289-0.052-0.32-0.007-0.020-0.012-0.061-0.014-0.092s-0.009-0.075-0.017-0.099c-0.010-0.023-0.022-0.067-0.026-0.098s-0.018-0.067-0.030-0.081c-0.013-0.014-0.020-0.038-0.016-0.054 0.003-0.016 0.001-0.055-0.006-0.089-0.010-0.045-0.023-0.067-0.053-0.085-0.046-0.027-0.062-0.076-0.074-0.234-0.007-0.092-0.006-0.105 0.023-0.139 0.030-0.037 0.032-0.037 0.123-0.021 0.063 0.011 0.096 0.025 0.105 0.042 0.007 0.014 0.030 0.030 0.050 0.035 0.043 0.010 0.169 0.089 0.169 0.105 0 0.011 0.144 0.079 0.196 0.092 0.020 0.006 0.045 0.024 0.053 0.044 0.020 0.047 0.047 0.054 0.121 0.034 0.057-0.016 0.069-0.014 0.13 0.021 0.039 0.020 0.088 0.037 0.113 0.037 0.033 0 0.050 0.010 0.067 0.035 0.024 0.040 0.059 0.044 0.129 0.018 0.034-0.011 0.060-0.011 0.109 0.001 0.052 0.014 0.081 0.013 0.149-0.003 0.125-0.030 0.187-0.081 0.222-0.181 0.034-0.095 0.099-0.178 0.187-0.241 0.116-0.084 0.204-0.187 0.23-0.273 0.016-0.047 0.020-0.096 0.016-0.122-0.004-0.028 0-0.059 0.012-0.086 0.017-0.033 0.030-0.041 0.069-0.041 0.043 0 0.048-0.004 0.063-0.059 0.010-0.034 0.024-0.071 0.036-0.084 0.010-0.011 0.017-0.048 0.017-0.079 0-0.035 0.016-0.089 0.041-0.14 0.049-0.101 0.050-0.154 0.009-0.229l-0.032-0.057 0.019-0.211c0.016-0.156 0.016-0.221 0.004-0.251-0.011-0.031-0.011-0.047 0.001-0.061 0.019-0.024-0.039-0.113-0.126-0.194-0.034-0.033-0.089-0.085-0.123-0.119-0.1-0.099-0.105-0.102-0.138-0.102-0.018 0-0.054-0.014-0.080-0.033-0.026-0.017-0.063-0.042-0.082-0.055s-0.060-0.031-0.090-0.040c-0.079-0.023-0.141-0.058-0.148-0.085-0.006-0.020-0.106-0.059-0.212-0.079-0.026-0.006-0.060-0.028-0.085-0.058-0.053-0.062-0.141-0.103-0.2-0.093-0.024 0.004-0.080 0.003-0.121-0.001-0.067-0.010-0.076-0.014-0.089-0.054-0.009-0.024-0.027-0.052-0.043-0.064-0.027-0.020-0.027-0.021 0.013-0.062 0.022-0.023 0.043-0.054 0.049-0.068 0.004-0.014 0.026-0.035 0.050-0.044s0.050-0.033 0.062-0.050c0.026-0.041 0.057-0.050 0.109-0.027 0.047 0.020 0.128 0.011 0.159-0.018 0.019-0.017 0.024-0.016 0.039 0.003 0.023 0.030 0.034 0.027 0.052-0.014 0.009-0.020 0.024-0.035 0.036-0.035s0.065-0.041 0.118-0.091c0.055-0.051 0.115-0.093 0.138-0.099 0.026-0.006 0.046-0.021 0.057-0.047 0.009-0.023 0.049-0.072 0.088-0.112 0.044-0.044 0.077-0.091 0.082-0.116 0.009-0.048 0.067-0.086 0.093-0.059 0.024 0.025 0.086 0.016 0.168-0.030 0.043-0.024 0.086-0.048 0.095-0.055 0.007-0.006 0.032-0.011 0.053-0.011 0.066 0.001 0.109-0.058 0.115-0.159 0.006-0.074 0.001-0.093-0.023-0.127-0.018-0.025-0.029-0.062-0.029-0.096 0-0.033-0.011-0.069-0.026-0.089-0.013-0.018-0.029-0.057-0.034-0.085s-0.027-0.078-0.050-0.11c-0.023-0.031-0.041-0.061-0.041-0.065 0-0.006-0.012-0.038-0.029-0.074-0.016-0.035-0.032-0.086-0.036-0.112-0.007-0.045-0.011-0.048-0.050-0.040-0.052 0.010-0.076-0.014-0.098-0.091-0.013-0.048-0.048-0.079-0.125-0.115-0.016-0.007-0.033-0.024-0.037-0.035-0.006-0.013-0.024-0.023-0.046-0.023s-0.052-0.010-0.069-0.021c-0.026-0.020-0.044-0.020-0.158 0-0.070 0.013-0.158 0.030-0.194 0.041-0.039 0.010-0.093 0.014-0.132 0.008-0.040-0.006-0.082-0.001-0.106 0.010-0.022 0.008-0.053 0.017-0.070 0.018-0.016 0-0.074 0.025-0.128 0.058-0.105 0.061-0.195 0.082-0.35 0.084-0.069 0-0.102 0.010-0.182 0.051s-0.111 0.050-0.156 0.045c-0.032-0.004-0.077 0.003-0.102 0.013-0.043 0.017-0.046 0.017-0.063-0.018l-0.017-0.037-0.039 0.052c-0.020 0.028-0.052 0.057-0.069 0.064s-0.048 0.045-0.070 0.091l-0.039 0.079 0.036 0.054c0.022 0.030 0.037 0.074 0.037 0.099 0 0.030 0.013 0.061 0.041 0.092 0.047 0.055 0.049 0.081 0.029 0.201-0.019 0.112-0.022 0.105 0.032 0.127 0.066 0.028 0.103 0.113 0.099 0.234-0.001 0.051-0.007 0.099-0.012 0.108-0.009 0.016-0.012 0.185-0.010 0.45 0 0.054 0.009 0.108 0.016 0.117 0.009 0.011 0.016 0.047 0.020 0.079s0.009 0.109 0.014 0.17c0.009 0.101 0.007 0.113-0.021 0.139-0.020 0.020-0.029 0.045-0.029 0.086s-0.011 0.076-0.036 0.113c-0.032 0.047-0.034 0.058-0.020 0.098 0.009 0.025 0.016 0.058 0.016 0.075s0.012 0.045 0.027 0.065c0.017 0.023 0.027 0.058 0.027 0.095 0 0.050 0.007 0.065 0.043 0.095 0.040 0.031 0.043 0.040 0.030 0.075-0.010 0.028-0.009 0.061 0.004 0.117 0.024 0.105 0.046 0.142 0.076 0.142 0.015 0 0.023 0.006 0.019 0.013s-0.015 0.065-0.023 0.13c-0.009 0.065-0.020 0.151-0.026 0.19s-0.016 0.101-0.022 0.139c-0.009 0.064-0.011 0.067-0.052 0.067-0.036 0-0.055 0.013-0.096 0.064-0.030 0.035-0.060 0.064-0.070 0.064s-0.024 0.009-0.033 0.020c-0.009 0.011-0.033 0.024-0.052 0.030-0.082 0.021-0.182 0.084-0.21 0.13-0.013 0.025-0.036 0.047-0.048 0.047-0.011 0-0.020 0.006-0.020 0.014s-0.019 0.035-0.043 0.064c-0.033 0.038-0.048 0.047-0.066 0.035-0.024-0.013-0.085-0.003-0.156 0.027-0.022 0.009-0.085 0.016-0.141 0.016-0.146 0-0.202 0.021-0.28 0.109-0.077 0.086-0.102 0.166-0.073 0.225 0.026 0.051 0.024 0.062-0.011 0.062-0.052 0-0.069 0.020-0.065 0.074 0.003 0.030-0.005 0.065-0.019 0.088-0.018 0.027-0.022 0.051-0.016 0.089 0.007 0.041 0.004 0.055-0.016 0.071-0.022 0.016-0.026 0.041-0.029 0.157-0.001 0.075 0.003 0.167 0.012 0.202 0.014 0.059 0.012 0.069-0.023 0.132-0.020 0.037-0.045 0.069-0.053 0.072s-0.032 0.009-0.052 0.013c-0.020 0.006-0.041 0.021-0.046 0.038-0.009 0.025-0.017 0.030-0.062 0.023-0.037-0.004-0.055-0.001-0.060 0.013-0.004 0.010-0.023 0.023-0.043 0.028-0.026 0.007-0.034 0.018-0.034 0.048 0 0.041-0.020 0.065-0.060 0.072-0.029 0.007-0.067 0.076-0.092 0.168-0.010 0.035-0.039 0.086-0.066 0.117l-0.049 0.054-0.123-0.003c-0.067-0.001-0.136 0.001-0.152 0.007-0.022 0.007-0.032 0.001-0.043-0.025-0.010-0.021-0.032-0.038-0.057-0.044s-0.056-0.023-0.071-0.038c-0.020-0.021-0.032-0.024-0.043-0.013-0.033 0.034-0.072 0.017-0.107-0.052-0.034-0.064-0.036-0.069-0.020-0.137 0.020-0.079 0.007-0.117-0.049-0.15-0.024-0.013-0.033-0.011-0.043 0.007-0.007 0.013-0.022 0.023-0.033 0.023s-0.030 0.024-0.043 0.052c-0.011 0.030-0.045 0.081-0.073 0.116-0.043 0.050-0.053 0.074-0.053 0.119s-0.009 0.065-0.053 0.11c-0.039 0.040-0.065 0.055-0.095 0.055-0.023 0-0.046 0.007-0.050 0.014-0.026 0.044-0.116-0.030-0.116-0.095 0-0.054-0.022-0.075-0.077-0.075-0.062 0-0.088-0.013-0.088-0.042 0-0.014-0.011-0.030-0.023-0.034-0.013-0.006-0.043-0.035-0.066-0.067s-0.062-0.074-0.086-0.092c-0.024-0.020-0.053-0.057-0.063-0.084-0.024-0.059-0.060-0.079-0.113-0.065-0.036 0.010-0.046 0.003-0.109-0.067-0.059-0.067-0.072-0.092-0.086-0.17-0.010-0.051-0.030-0.117-0.046-0.149-0.024-0.050-0.027-0.072-0.020-0.219 0.004-0.091 0.011-0.178 0.016-0.194 0.010-0.041-0.020-0.164-0.044-0.183-0.022-0.017-0.034-0.197-0.015-0.236 0.008-0.018-0.001-0.031-0.048-0.058-0.050-0.028-0.060-0.041-0.066-0.089-0.007-0.055-0.010-0.057-0.062-0.061-0.030-0.003-0.060-0.013-0.069-0.023-0.030-0.041-0.075-0.052-0.162-0.042-0.046 0.006-0.092 0.016-0.102 0.023-0.008 0.007-0.027 0.011-0.041 0.009s-0.050 0.009-0.080 0.023c-0.073 0.037-0.136 0.031-0.229-0.016-0.066-0.034-0.081-0.050-0.1-0.101-0.013-0.034-0.041-0.075-0.063-0.091s-0.039-0.042-0.039-0.055c0-0.014-0.020-0.052-0.046-0.086s-0.050-0.079-0.055-0.101c-0.006-0.020-0.030-0.057-0.053-0.079-0.043-0.041-0.043-0.044-0.041-0.16 0.001-0.065-0.003-0.168-0.008-0.232-0.006-0.062-0.006-0.136 0-0.163 0.007-0.037 0.004-0.057-0.016-0.086-0.023-0.033-0.027-0.062-0.027-0.178 0-0.144-0.020-0.239-0.063-0.287-0.026-0.030-0.016-0.052 0.030-0.069 0.018-0.007 0.036-0.030 0.041-0.051 0.011-0.042 0.083-0.161 0.099-0.161s0.072-0.092 0.072-0.119c0-0.014 0.016-0.044 0.034-0.068 0.043-0.054 0.043-0.072-0.007-0.174-0.023-0.047-0.041-0.102-0.041-0.123 0-0.030-0.007-0.040-0.026-0.040-0.015 0-0.032-0.008-0.037-0.017-0.024-0.041-0.023-0.705 0.001-0.783s0.030-0.142 0.011-0.164c-0.008-0.011-0.020-0.034-0.023-0.051-0.007-0.027-0.001-0.035 0.039-0.052s0.050-0.031 0.063-0.082c0.032-0.126 0.057-0.195 0.079-0.212 0.012-0.010 0.032-0.035 0.043-0.057s0.030-0.042 0.043-0.047c0.034-0.011 0.069-0.098 0.077-0.195 0.011-0.134 0.016-0.151 0.046-0.151 0.016 0 0.056-0.027 0.089-0.058 0.057-0.055 0.062-0.064 0.062-0.132 0-0.101 0.011-0.113 0.085-0.102 0.056 0.008 0.060 0.007 0.077-0.030 0.010-0.023 0.036-0.075 0.057-0.117 0.023-0.042 0.041-0.085 0.041-0.093 0-0.010 0.050-0.069 0.113-0.133 0.1-0.101 0.116-0.113 0.151-0.105 0.023 0.004 0.046 0.001 0.060-0.011 0.012-0.010 0.063-0.021 0.112-0.025 0.077-0.006 0.090-0.011 0.096-0.035 0.006-0.034 0.026-0.050 0.066-0.050 0.016 0 0.041-0.017 0.056-0.038 0.026-0.037 0.034-0.040 0.126-0.038 0.081 0.003 0.105-0.003 0.125-0.024 0.013-0.014 0.037-0.027 0.049-0.027 0.032 0 0.073-0.041 0.073-0.072s0.077-0.126 0.102-0.126c0.007 0 0.039 0.016 0.066 0.035 0.060 0.042 0.088 0.044 0.106 0.008 0.007-0.014 0.032-0.034 0.052-0.042 0.060-0.025 0.105-0.054 0.116-0.076 0.007-0.013 0.045-0.024 0.093-0.030 0.045-0.006 0.086-0.016 0.090-0.023 0.013-0.020 0.099-0.017 0.13 0.003 0.022 0.014 0.033 0.014 0.055 0 0.043-0.027 0.065-0.020 0.081 0.025 0.007 0.024 0.022 0.042 0.033 0.042s0.036 0.016 0.056 0.035c0.046 0.042 0.098 0.058 0.123 0.035 0.011-0.008 0.053-0.020 0.093-0.024 0.057-0.006 0.079-0.003 0.092 0.016 0.010 0.013 0.029 0.023 0.041 0.023s0.044 0.016 0.070 0.034c0.072 0.050 0.095 0.052 0.228 0.037 0.118-0.014 0.123-0.013 0.145 0.017 0.047 0.062 0.072 0.084 0.090 0.075 0.011-0.004 0.029 0.004 0.039 0.020 0.023 0.033 0.095 0.072 0.132 0.072 0.039 0 0.079 0.027 0.079 0.052 0 0.018 0.012 0.020 0.076 0.011 0.073-0.008 0.078-0.007 0.13 0.041 0.030 0.028 0.065 0.051 0.077 0.051 0.011 0 0.030 0.023 0.041 0.050 0.014 0.034 0.032 0.052 0.057 0.058 0.020 0.006 0.072 0.027 0.113 0.050s0.085 0.042 0.098 0.047c0.014 0.004 0.026 0.028 0.032 0.064 0.004 0.033 0.014 0.058 0.020 0.058s0.040 0.028 0.075 0.061c0.044 0.042 0.063 0.069 0.057 0.085-0.007 0.016 0 0.023 0.023 0.027 0.022 0.003 0.033 0.016 0.036 0.040 0.003 0.021 0.019 0.045 0.041 0.058 0.023 0.014 0.046 0.044 0.057 0.082s0.036 0.072 0.060 0.091c0.055 0.040 0.076 0.067 0.077 0.102 0 0.021 0.018 0.035 0.067 0.054 0.113 0.041 0.111 0.042 0.278-0.129 0.036-0.037 0.066-0.074 0.066-0.082s0.026-0.034 0.059-0.057c0.088-0.061 0.095-0.072 0.083-0.161-0.006-0.042-0.018-0.091-0.027-0.106-0.041-0.059-0.014-0.177 0.041-0.177 0.034 0 0.037-0.006 0.055-0.088 0.012-0.055 0.129-0.167 0.175-0.167 0.032 0 0.039-0.007 0.045-0.050 0.007-0.038 0.023-0.058 0.065-0.086 0.067-0.042 0.145-0.122 0.196-0.201 0.032-0.047 0.037-0.068 0.030-0.108-0.010-0.052-0.024-0.071-0.077-0.086-0.041-0.013-0.055-0.031-0.055-0.074 0-0.017-0.020-0.047-0.044-0.068s-0.056-0.047-0.072-0.059c-0.020-0.017-0.023-0.033-0.016-0.076s0.001-0.074-0.026-0.132c-0.020-0.041-0.034-0.084-0.034-0.095s-0.020-0.058-0.041-0.105c-0.022-0.047-0.041-0.101-0.041-0.119 0-0.044-0.133-0.177-0.173-0.173-0.020 0.001-0.040-0.011-0.057-0.038-0.020-0.030-0.050-0.047-0.113-0.064-0.046-0.014-0.089-0.021-0.096-0.017s-0.022-0.010-0.033-0.033c-0.023-0.047-0.047-0.059-0.105-0.059-0.026 0-0.055-0.016-0.083-0.044-0.032-0.031-0.052-0.041-0.074-0.035s-0.037 0-0.050-0.020c-0.012-0.018-0.052-0.035-0.113-0.051-0.145-0.035-0.188-0.050-0.215-0.074-0.019-0.018-0.059-0.023-0.189-0.024-0.089 0-0.163-0.004-0.163-0.008 0-0.028-0.102-0.041-0.217-0.028-0.009 0-0.030 0.017-0.047 0.037s-0.036 0.035-0.044 0.035c-0.039 0-0.139 0.069-0.145 0.101-0.012 0.052-0.095 0.076-0.2 0.057-0.103-0.018-0.184-0.020-0.184-0.003 0 0.007-0.030 0.028-0.067 0.048-0.079 0.041-0.344 0.313-0.344 0.354 0 0.007-0.027 0.041-0.062 0.076s-0.062 0.075-0.062 0.089c0 0.045-0.037 0.064-0.088 0.045-0.024-0.010-0.055-0.017-0.067-0.017-0.030 0-0.106-0.12-0.106-0.171 0-0.045-0.037-0.092-0.090-0.112-0.032-0.013-0.034-0.020-0.024-0.061 0.014-0.061 0.010-0.11-0.014-0.168-0.024-0.059-0.184-0.161-0.243-0.156-0.022 0.003-0.055-0.007-0.077-0.024-0.043-0.033-0.072-0.037-0.219-0.033-0.083 0.003-0.105 0.008-0.13 0.034-0.026 0.027-0.046 0.031-0.121 0.031-0.050-0.001-0.122-0.007-0.161-0.013-0.069-0.010-0.073-0.008-0.073 0.020 0 0.033-0.036 0.040-0.079 0.017-0.040-0.021-0.158-0.042-0.224-0.041-0.059 0.001-0.065 0.006-0.079 0.050-0.018 0.048-0.030 0.052-0.114 0.047-0.033-0.001-0.063 0.010-0.187 0.078-0.024 0.013-0.052 0.040-0.060 0.058-0.011 0.025-0.026 0.034-0.059 0.034-0.023 0-0.048 0.006-0.055 0.013s-0.075 0.040-0.151 0.072c-0.076 0.034-0.146 0.069-0.159 0.079-0.011 0.011-0.036 0.020-0.055 0.020-0.017 0-0.060 0.014-0.095 0.031s-0.083 0.035-0.109 0.040c-0.033 0.004-0.049 0.016-0.053 0.035-0.003 0.016-0.023 0.051-0.048 0.079-0.089 0.109-0.109 0.156-0.111 0.292-0.001 0.079-0.011 0.144-0.026 0.18-0.017 0.041-0.020 0.078-0.014 0.142 0.004 0.048 0.001 0.103-0.006 0.123-0.012 0.030-0.008 0.054 0.016 0.119 0.018 0.044 0.040 0.088 0.048 0.096s0.016 0.027 0.016 0.040c0 0.014 0.007 0.030 0.014 0.034s0.013 0.030 0.013 0.057 0.011 0.058 0.024 0.072c0.027 0.028 0.057 0.122 0.057 0.181 0 0.028 0.015 0.055 0.053 0.092 0.029 0.028 0.060 0.065 0.069 0.082 0.020 0.040 0.020 0.255 0 0.266-0.007 0.006-0.020 0.025-0.026 0.044-0.016 0.040-0.022 0.040-0.125 0.016-0.041-0.011-0.088-0.014-0.103-0.008-0.069 0.028-0.137 0.011-0.296-0.074-0.027-0.014-0.078-0.027-0.112-0.027s-0.065-0.006-0.069-0.013c-0.004-0.007-0.048-0.017-0.096-0.023-0.049-0.004-0.118-0.017-0.155-0.027-0.043-0.011-0.079-0.014-0.106-0.006-0.022 0.007-0.074 0.008-0.114 0.004-0.050-0.006-0.083-0.001-0.113 0.014-0.022 0.013-0.065 0.021-0.092 0.020-0.039-0.003-0.060 0.004-0.082 0.027-0.034 0.035-0.039 0.037-0.096 0.016-0.055-0.020-0.105 0.004-0.095 0.045 0.006 0.018-0.003 0.034-0.020 0.045-0.024 0.016-0.079 0.112-0.079 0.142 0 0.007-0.024 0.041-0.055 0.075s-0.055 0.074-0.055 0.088c0 0.016-0.012 0.041-0.027 0.059s-0.027 0.044-0.027 0.058-0.006 0.030-0.013 0.034c-0.008 0.004-0.014 0.024-0.014 0.041s-0.012 0.050-0.027 0.069c-0.014 0.019-0.027 0.045-0.027 0.057 0 0.011-0.010 0.028-0.020 0.038s-0.020 0.030-0.020 0.045c0 0.027-0.036 0.086-0.088 0.15-0.023 0.025-0.029 0.055-0.030 0.156-0.003 0.068-0.007 0.202-0.010 0.3-0.007 0.201 0.014 0.314 0.066 0.357 0.018 0.014 0.034 0.040 0.040 0.059 0.010 0.042 0.055 0.052 0.222 0.052 0.105-0.001 0.132 0.004 0.161 0.027 0.020 0.017 0.055 0.028 0.088 0.028 0.037 0 0.063 0.010 0.090 0.035 0.020 0.020 0.037 0.042 0.037 0.050s0.057 0.014 0.135 0.014c0.088 0 0.158 0.008 0.2 0.023 0.037 0.013 0.085 0.020 0.109 0.016 0.041-0.007 0.050-0.001 0.092 0.055 0.024 0.034 0.052 0.062 0.063 0.062 0.033 0 0.048 0.052 0.026 0.096-0.029 0.057-0.056 0.078-0.090 0.067-0.037-0.011-0.069 0.016-0.069 0.058 0 0.037-0.036 0.062-0.086 0.062-0.020 0-0.037 0.009-0.041 0.020-0.006 0.013-0.039 0.024-0.093 0.030-0.099 0.011-0.136 0.031-0.136 0.068 0 0.016-0.012 0.030-0.029 0.034-0.016 0.006-0.059 0.024-0.093 0.044-0.034 0.018-0.079 0.042-0.098 0.052s-0.070 0.033-0.113 0.050c-0.043 0.017-0.079 0.037-0.079 0.042 0 0.014-0.118 0.057-0.158 0.057-0.016 0-0.054 0.020-0.082 0.042-0.029 0.024-0.062 0.042-0.073 0.042-0.044 0-0.056 0.031-0.056 0.136 0 0.059-0.007 0.108-0.016 0.113-0.016 0.010-0.006 0.116 0.018 0.17 0.016 0.038 0.003 0.102-0.050 0.224-0.023 0.058-0.029 0.093-0.024 0.198 0.003 0.115 0.008 0.134 0.043 0.185 0.020 0.031 0.050 0.076 0.062 0.102 0.020 0.041 0.024 0.044 0.066 0.033 0.045-0.014 0.079 0.001 0.079 0.037 0 0.025 0.044 0.048 0.096 0.048 0.039 0 0.041 0.001 0.024 0.033-0.010 0.018-0.016 0.079-0.014 0.159 0.001 0.071-0.003 0.149-0.010 0.174-0.012 0.041-0.010 0.050 0.036 0.095 0.027 0.028 0.063 0.050 0.081 0.050 0.023 0 0.043 0.017 0.067 0.057 0.044 0.072 0.073 0.086 0.149 0.076 0.057-0.009 0.066-0.006 0.105 0.038 0.036 0.040 0.046 0.044 0.067 0.030 0.017-0.011 0.048-0.011 0.106-0.003 0.044 0.009 0.121 0.016 0.171 0.017 0.075 0.004 0.096-0.001 0.139-0.031 0.027-0.020 0.055-0.048 0.062-0.062 0.010-0.023 0.027-0.028 0.093-0.031 0.044-0.001 0.109-0.007 0.143-0.014 0.095-0.020 0.136-0.010 0.163 0.038 0.022 0.037 0.027 0.040 0.043 0.020 0.009-0.011 0.022-0.017 0.029-0.013 0.027 0.017 0.001 0.204-0.029 0.204-0.006 0-0.029 0.034-0.052 0.075-0.029 0.052-0.039 0.086-0.034 0.117 0.006 0.038-0.003 0.054-0.056 0.108-0.034 0.035-0.063 0.075-0.063 0.089s-0.016 0.047-0.034 0.072c-0.020 0.025-0.034 0.062-0.034 0.084 0 0.020-0.010 0.069-0.022 0.108-0.026 0.081-0.022 0.224 0.008 0.26 0.023 0.030 0.033 0.249 0.016 0.334-0.016 0.072 0.006 0.12 0.056 0.129 0.023 0.003 0.033 0.016 0.039 0.047 0.006 0.034 0.015 0.044 0.043 0.047 0.032 0.004 0.041 0.014 0.052 0.059 0.020 0.072 0.057 0.099 0.145 0.099s0.1 0.010 0.113 0.078c0.010 0.054 0.014 0.057 0.065 0.061 0.030 0.003 0.062 0.011 0.072 0.020 0.041 0.035 0.233 0.125 0.267 0.125s0.039 0.006 0.039 0.042c0 0.031 0.008 0.047 0.029 0.055 0.016 0.006 0.046 0.035 0.066 0.067 0.024 0.035 0.050 0.058 0.076 0.062 0.027 0.006 0.045 0.021 0.062 0.057 0.022 0.048 0.026 0.050 0.118 0.059 0.053 0.006 0.109 0.017 0.128 0.025s0.052 0.014 0.079 0.014 0.084 0.013 0.126 0.027c0.128 0.044 0.231 0.072 0.267 0.072 0.020 0 0.046 0.013 0.057 0.027 0.019 0.021 0.036 0.025 0.079 0.018 0.050-0.007 0.059-0.003 0.095 0.041l0.037 0.047 0.093-0.016c0.086-0.016 0.098-0.014 0.136 0.010 0.079 0.050 0.318 0.021 0.356-0.041 0.006-0.009 0.024-0.016 0.043-0.016 0.020 0 0.039-0.013 0.049-0.031 0.008-0.017 0.027-0.044 0.041-0.059 0.016-0.016 0.026-0.037 0.026-0.048 0-0.018 0.241-0.272 0.261-0.272 0.006 0 0.017-0.014 0.023-0.033 0.014-0.031 0.020-0.033 0.103-0.024 0.103 0.011 0.125 0.023 0.192 0.095 0.048 0.051 0.174 0.285 0.192 0.352 0.004 0.017 0.041 0.057 0.083 0.088 0.070 0.054 0.125 0.113 0.136 0.146 0.003 0.007 0.037 0.017 0.076 0.023 0.040 0.004 0.079 0.017 0.088 0.027s0.024 0.020 0.036 0.020c0.012 0 0.037 0.013 0.056 0.030 0.033 0.025 0.050 0.028 0.202 0.021 0.090-0.004 0.185-0.003 0.211 0.003 0.079 0.017 0.179 0.018 0.179 0.003zM15.423 18.72c0.020 0 0.055-0.020 0.082-0.044 0.043-0.038 0.048-0.052 0.048-0.109 0-0.075-0.033-0.18-0.072-0.224-0.013-0.016-0.024-0.047-0.024-0.069s-0.013-0.055-0.030-0.075c-0.026-0.027-0.033-0.057-0.039-0.156-0.016-0.224-0.033-0.286-0.092-0.347-0.053-0.054-0.055-0.055-0.166-0.055-0.060-0.001-0.115 0.001-0.119 0.007-0.004 0.004-0.011 0.034-0.014 0.067-0.006 0.069-0.046 0.168-0.079 0.197-0.013 0.010-0.023 0.030-0.023 0.042 0 0.028-0.046 0.11-0.092 0.159-0.023 0.027-0.034 0.057-0.039 0.103-0.003 0.042-0.014 0.078-0.032 0.098-0.039 0.044-0.049 0.092-0.029 0.117 0.014 0.017 0.014 0.028 0.001 0.048-0.013 0.024-0.009 0.031 0.044 0.064 0.032 0.020 0.075 0.035 0.095 0.035s0.048 0.014 0.063 0.031c0.030 0.033 0.105 0.051 0.247 0.061 0.116 0.009 0.161 0.018 0.181 0.044 0.010 0.011 0.026 0.017 0.036 0.013s0.034-0.007 0.052-0.007zM16.452 17.528c0.030 0 0.073 0.004 0.096 0.009 0.024 0.006 0.053 0.001 0.072-0.009 0.016-0.010 0.090-0.055 0.166-0.099 0.085-0.052 0.151-0.082 0.177-0.082 0.045 0 0.079-0.025 0.093-0.069 0.004-0.016 0.016-0.031 0.029-0.035 0.011-0.004 0.032-0.035 0.046-0.069 0.019-0.044 0.037-0.065 0.062-0.072 0.019-0.004 0.043-0.027 0.056-0.052 0.013-0.023 0.034-0.055 0.048-0.069 0.016-0.016 0.030-0.045 0.034-0.067 0.004-0.023 0.014-0.069 0.022-0.106 0.018-0.079-0.009-0.184-0.065-0.259l-0.036-0.050h-0.132c-0.128 0-0.133 0.001-0.162 0.040-0.029 0.035-0.040 0.038-0.179 0.050-0.081 0.006-0.17 0.011-0.196 0.011-0.056 0-0.133 0.055-0.145 0.103-0.004 0.018-0.020 0.041-0.037 0.051s-0.057 0.051-0.092 0.095c-0.089 0.11-0.178 0.202-0.198 0.202-0.010 0-0.020 0.009-0.024 0.018-0.012 0.033-0.099 0.067-0.145 0.058-0.029-0.006-0.054-0.001-0.077 0.014-0.020 0.013-0.041 0.020-0.048 0.016s-0.029 0.009-0.048 0.027c-0.029 0.028-0.037 0.050-0.037 0.101-0.001 0.058 0.004 0.072 0.053 0.123 0.052 0.052 0.062 0.058 0.139 0.061 0.062 0.003 0.099 0.014 0.141 0.041 0.056 0.037 0.065 0.037 0.196 0.028 0.076-0.004 0.162-0.009 0.192-0.009zM14.248 17.5c0.008-0.009 0.043-0.014 0.079-0.014 0.070 0.003 0.069 0.004 0.195-0.13 0.039-0.042 0.088-0.081 0.106-0.085 0.020-0.006 0.030-0.016 0.026-0.023-0.005-0.009-0.011-0.041-0.015-0.075-0.006-0.057-0.032-0.095-0.067-0.095-0.010 0-0.023-0.016-0.032-0.034-0.020-0.045-0.161-0.112-0.212-0.102-0.027 0.006-0.050 0-0.074-0.020-0.026-0.021-0.041-0.024-0.059-0.014-0.052 0.028-0.077 0.017-0.095-0.042-0.011-0.037-0.029-0.064-0.054-0.076-0.020-0.011-0.049-0.034-0.063-0.050-0.020-0.023-0.037-0.028-0.065-0.023-0.045 0.011-0.129-0.024-0.148-0.061-0.022-0.044-0.11-0.089-0.165-0.088-0.085 0.004-0.095 0.001-0.119-0.042-0.014-0.023-0.048-0.051-0.075-0.062-0.029-0.011-0.055-0.028-0.060-0.037-0.004-0.007-0.050-0.014-0.102-0.014-0.081 0-0.096 0.004-0.125 0.037-0.027 0.028-0.043 0.034-0.082 0.028-0.041-0.007-0.056-0.001-0.099 0.038-0.056 0.051-0.053 0.038-0.046 0.293 0.003 0.102 0.010 0.133 0.046 0.205 0.053 0.109 0.134 0.195 0.204 0.217 0.056 0.017 0.141 0.099 0.141 0.136 0 0.024 0.088 0.058 0.116 0.045 0.012-0.004 0.029 0.006 0.043 0.025 0.027 0.045 0.067 0.054 0.238 0.052 0.079 0 0.166 0.004 0.192 0.011 0.073 0.020 0.349 0.018 0.367-0.001z"></path>
<path d="M21.561 2.541c0-0.017 0.009-0.030 0.022-0.030s0.020 0.010 0.016 0.024c-0.007 0.035-0.039 0.040-0.039 0.006z"></path>
</svg>
