<!-- Generated by IcoMoon.io -->
<svg version="1.1" xmlns="http://www.w3.org/2000/svg" width="31" height="32" viewBox="0 0 31 32">
<title>grand-alliance-destruction</title>
<path d="M14.751 30.825l-0.107-0.010-0.005-0.059c-0.003-0.046-0.013-0.061-0.049-0.076-0.045-0.019-0.122-0.097-0.153-0.156-0.010-0.017-0.039-0.038-0.066-0.043s-0.057-0.017-0.066-0.024c-0.008-0.006-0.034-0.016-0.057-0.022s-0.063-0.032-0.089-0.057c-0.026-0.027-0.052-0.048-0.060-0.048-0.005 0-0.020-0.017-0.029-0.040-0.010-0.021-0.036-0.043-0.055-0.049-0.028-0.006-0.039-0.019-0.036-0.043 0.003-0.030-0.008-0.035-0.077-0.045-0.097-0.013-0.162-0.057-0.148-0.102 0.018-0.061 0.012-0.076-0.034-0.092-0.062-0.021-0.177-0.137-0.177-0.178 0-0.019-0.018-0.051-0.039-0.073-0.023-0.021-0.054-0.068-0.070-0.107-0.036-0.083-0.070-0.1-0.105-0.053-0.013 0.019-0.031 0.030-0.037 0.024-0.018-0.019-0.012-0.094 0.012-0.127 0.044-0.057 0.029-0.111-0.046-0.174-0.065-0.056-0.068-0.064-0.065-0.132 0.002-0.040-0.005-0.075-0.012-0.078-0.091-0.033-0.125-0.089-0.077-0.127 0.026-0.019 0.026-0.024 0-0.119-0.032-0.119-0.032-0.288 0.002-0.371 0.019-0.046 0.024-0.137 0.029-0.397 0.002-0.185 0.010-0.366 0.016-0.401 0.007-0.045 0.003-0.096-0.014-0.156-0.014-0.049-0.021-0.097-0.018-0.105 0.012-0.021 0.065-0.021 0.076-0.002 0.005 0.008 0.023 0.011 0.039 0.006 0.023-0.006 0.031-0.029 0.039-0.107 0.006-0.054 0.005-0.131-0.005-0.169-0.013-0.056-0.011-0.081 0.007-0.118 0.011-0.026 0.021-0.081 0.021-0.123s0.010-0.115 0.020-0.161c0.021-0.086 0.023-0.285 0.005-0.371-0.016-0.070 0.023-0.17 0.073-0.196 0.039-0.021 0.041-0.026 0.041-0.148 0-0.115 0.003-0.129 0.039-0.161 0.031-0.027 0.039-0.048 0.036-0.092-0.002-0.032 0.005-0.080 0.014-0.105 0.024-0.064 0.052-0.247 0.041-0.264-0.005-0.010 0.005-0.037 0.023-0.062 0.026-0.037 0.032-0.067 0.032-0.167 0-0.107 0.005-0.127 0.039-0.169 0.042-0.051 0.042-0.067-0.003-0.177-0.024-0.059-0.024-0.061 0.015-0.104 0.037-0.040 0.042-0.057 0.042-0.161 0-0.080 0.008-0.131 0.026-0.161 0.023-0.041 0.023-0.048-0.008-0.11-0.045-0.086-0.044-0.121 0.006-0.166 0.034-0.030 0.039-0.043 0.029-0.102-0.005-0.038-0.005-0.076 0.002-0.088 0.006-0.010 0.013-0.097 0.013-0.194l0.002-0.177 0.074-0.116c0.062-0.096 0.073-0.127 0.071-0.183-0.002-0.037 0.006-0.145 0.018-0.242 0.009-0.096 0.013-0.201 0.009-0.234-0.012-0.081 0.008-0.115 0.086-0.147 0.052-0.022 0.073-0.024 0.117-0.008 0.052 0.017 0.161 0.014 0.208-0.008 0.018-0.010 0.028 0 0.036 0.038 0.006 0.030 0.024 0.057 0.047 0.067 0.020 0.010 0.037 0.022 0.037 0.029s0.024 0.049 0.055 0.096c0.031 0.046 0.057 0.104 0.060 0.126 0.003 0.046 0.123 0.314 0.146 0.328 0.026 0.016 0.077 0.132 0.077 0.172 0 0.067 0.114 0.323 0.156 0.35 0.017 0.011 0.029 0.037 0.029 0.064s0.024 0.097 0.054 0.161c0.042 0.091 0.054 0.137 0.054 0.207 0 0.102 0.028 0.158 0.096 0.194 0.044 0.024 0.045 0.026 0.034 0.116-0.010 0.096 0.006 0.151 0.073 0.239 0.040 0.051 0.039 0.113-0.003 0.124-0.023 0.006-0.029 0.017-0.023 0.043 0.005 0.017 0.010 0.046 0.010 0.062s0.012 0.027 0.036 0.027c0.047 0 0.063 0.014 0.096 0.086 0.023 0.048 0.024 0.067 0.011 0.091-0.020 0.032-0.024 0.169-0.010 0.212 0.005 0.014 0.023 0.026 0.039 0.026 0.028 0 0.029 0.008 0.020 0.078-0.006 0.048-0.002 0.1 0.010 0.137 0.011 0.035 0.020 0.154 0.021 0.285 0.002 0.213 0.003 0.225 0.032 0.225 0.044 0 0.050 0.064 0.010 0.091-0.036 0.022-0.040 0.070-0.018 0.148 0.006 0.027 0.008 0.088 0.002 0.135-0.011 0.072-0.006 0.1 0.018 0.156 0.018 0.041 0.031 0.099 0.029 0.151 0 0.045-0.002 0.126-0.002 0.178-0.002 0.053-0.013 0.151-0.026 0.22-0.021 0.099-0.021 0.135-0.006 0.185 0.013 0.048 0.012 0.107-0.002 0.252-0.021 0.209-0.018 0.53 0.006 0.642 0.036 0.162 0.034 0.212-0.010 0.253-0.044 0.043-0.052 0.081-0.021 0.127 0.014 0.024 0.012 0.041-0.010 0.088-0.028 0.059-0.031 0.164-0.024 0.682 0.003 0.145-0.002 0.19-0.018 0.196-0.015 0.006-0.018 0.054-0.011 0.244 0.008 0.177 0.005 0.252-0.011 0.309-0.012 0.040-0.028 0.105-0.037 0.143-0.029 0.143-0.048 0.207-0.078 0.264-0.018 0.032-0.031 0.070-0.031 0.086 0 0.032-0.024 0.051-0.037 0.030-0.006-0.008-0.042 0.003-0.084 0.026-0.060 0.035-0.096 0.043-0.204 0.045-0.073 0.003-0.179 0-0.239-0.006z"></path>
<path d="M20.278 30.629c-0.032-0.027-0.060-0.105-0.049-0.14 0.006-0.019-0.018-0.057-0.078-0.121-0.098-0.108-0.096-0.1-0.114-0.277-0.008-0.073-0.020-0.137-0.028-0.139-0.006-0.003-0.008-0.064-0.003-0.135 0.010-0.143 0-0.18-0.047-0.196-0.042-0.013-0.055-0.078-0.050-0.217 0.003-0.059 0.045-0.094 0.112-0.094 0.047 0 0.043-0.134-0.008-0.226l-0.039-0.070 0.031-0.059c0.016-0.032 0.031-0.068 0.031-0.081 0-0.011 0.011-0.057 0.023-0.099s0.026-0.105 0.031-0.137c0.006-0.045 0.016-0.061 0.037-0.061 0.047 0 0.054-0.091 0.023-0.25-0.008-0.046-0.006-0.053 0.021-0.053 0.036 0 0.041-0.021 0.055-0.198 0.005-0.068 0.002-0.104-0.016-0.131-0.021-0.035-0.021-0.041 0-0.073 0.099-0.145 0.156-0.234 0.172-0.268 0.026-0.053 0.045-0.284 0.028-0.333-0.011-0.029-0.008-0.056 0.016-0.104 0.025-0.054 0.028-0.084 0.020-0.185-0.008-0.094-0.005-0.134 0.014-0.172 0.016-0.032 0.025-0.096 0.026-0.178v-0.131l0.073-0.054c0.071-0.053 0.074-0.059 0.080-0.142 0.003-0.064-0.002-0.096-0.021-0.121-0.039-0.048-0.034-0.075 0.020-0.127 0.040-0.040 0.047-0.053 0.036-0.091-0.008-0.024-0.014-0.099-0.014-0.166 0-0.076-0.007-0.131-0.018-0.142-0.034-0.035-0.021-0.059 0.039-0.078 0.078-0.027 0.085-0.037 0.049-0.080-0.044-0.053-0.039-0.099 0.016-0.153 0.076-0.073 0.096-0.127 0.083-0.22-0.029-0.226-0.031-0.207 0.029-0.269 0.059-0.061 0.066-0.094 0.041-0.183-0.013-0.048-0.011-0.053 0.029-0.075 0.052-0.029 0.077-0.068 0.077-0.126 0-0.022 0.008-0.045 0.016-0.051 0.010-0.005 0.014-0.030 0.010-0.054-0.005-0.022 0.002-0.062 0.012-0.086 0.036-0.070 0.070-0.201 0.070-0.266 0-0.070 0.006-0.076 0.071-0.067 0.045 0.008 0.050 0.013 0.059 0.086 0.010 0.067 0.016 0.078 0.045 0.078 0.019 0 0.059 0.013 0.086 0.029 0.062 0.035 0.101 0.124 0.085 0.204-0.009 0.056 0.006 0.096 0.065 0.161 0.028 0.032 0.037 0.056 0.031 0.084-0.028 0.132-0.028 0.14 0.006 0.209 0.032 0.065 0.034 0.076 0.015 0.17-0.018 0.096-0.016 0.102 0.014 0.137 0.018 0.021 0.044 0.073 0.054 0.118 0.020 0.073 0.018 0.084-0.008 0.129-0.029 0.049-0.029 0.049 0.010 0.075 0.051 0.033 0.060 0.075 0.034 0.137-0.012 0.029-0.023 0.096-0.025 0.148 0 0.075 0.006 0.102 0.032 0.131 0.032 0.035 0.032 0.037 0.005 0.091-0.028 0.053-0.028 0.054 0.005 0.124 0.040 0.084 0.042 0.113 0.010 0.142-0.018 0.016-0.021 0.037-0.014 0.092 0.011 0.072 0.016 0.342 0.008 0.444-0.003 0.030 0.006 0.062 0.020 0.080 0.032 0.037 0.032 0.065 0 0.102-0.040 0.046-0.040 0.44 0 0.537 0.021 0.051 0.026 0.088 0.020 0.135-0.028 0.17-0.028 0.19 0.003 0.231 0.026 0.038 0.029 0.059 0.018 0.225-0.008 0.124-0.005 0.201 0.007 0.239 0.010 0.030 0.013 0.078 0.008 0.104s-0.006 0.092-0.003 0.145c0.006 0.088 0.003 0.105-0.034 0.153-0.049 0.068-0.051 0.088 0 0.142l0.040 0.043-0.032 0.067c-0.023 0.048-0.028 0.075-0.016 0.089 0.010 0.010 0.020 0.056 0.026 0.1 0.010 0.091-0.005 0.119-0.076 0.15-0.043 0.017-0.096 0.118-0.134 0.25-0.006 0.022-0.036 0.056-0.065 0.075s-0.062 0.045-0.073 0.056c-0.011 0.011-0.052 0.057-0.093 0.1-0.039 0.045-0.091 0.092-0.114 0.107s-0.045 0.049-0.052 0.080c-0.016 0.075-0.066 0.135-0.12 0.147-0.066 0.014-0.088 0.038-0.088 0.096 0 0.053-0.054 0.123-0.19 0.241-0.040 0.035-0.083 0.084-0.097 0.108-0.023 0.045-0.025 0.045-0.127 0.035-0.096-0.010-0.107-0.008-0.156 0.030-0.062 0.048-0.065 0.048-0.099 0.022z"></path>
<path d="M17.010 30.452l-0.052-0.037v-0.201c0-0.201 0-0.201-0.041-0.236-0.052-0.041-0.055-0.099-0.011-0.145 0.071-0.073 0.074-0.25 0.005-0.319-0.031-0.030-0.037-0.051-0.037-0.127 0-0.089-0.018-0.129-0.063-0.145-0.016-0.006-0.018-0.033-0.012-0.258 0-0.038-0.008-0.124-0.016-0.193-0.039-0.263-0.049-0.68-0.018-0.712 0.023-0.024 0.025-0.072 0.002-0.080-0.010-0.003-0.016-0.030-0.018-0.061-0.003-0.046 0.003-0.056 0.028-0.056 0.043 0 0.049-0.096 0.015-0.221-0.023-0.081-0.023-0.108-0.007-0.178 0.013-0.057 0.015-0.091 0.003-0.111-0.012-0.022-0.010-0.041 0.011-0.078 0.016-0.026 0.040-0.081 0.055-0.123 0.018-0.054 0.043-0.084 0.080-0.108l0.054-0.032-0.011-0.1c-0.006-0.067-0.003-0.119 0.012-0.162 0.013-0.038 0.016-0.080 0.010-0.104-0.006-0.022-0.011-0.076-0.012-0.119-0.002-0.070 0.006-0.091 0.060-0.166 0.051-0.070 0.062-0.097 0.062-0.159 0-0.089 0.050-0.244 0.093-0.288 0.039-0.040 0.039-0.054-0.002-0.094-0.055-0.054-0.041-0.174 0.023-0.198 0.016-0.005 0.016-0.239 0.002-0.301-0.011-0.043-0.010-0.045 0.042-0.045 0.060 0 0.12-0.053 0.12-0.108 0-0.017 0.008-0.038 0.016-0.045 0.018-0.011 0.005-0.115-0.020-0.145-0.011-0.013-0.002-0.026 0.032-0.045 0.049-0.026 0.062-0.067 0.031-0.099-0.009-0.010-0.020-0.083-0.023-0.161-0.005-0.111 0-0.147 0.016-0.162s0.023-0.014 0.023-0.002c0 0.010 0.013 0.017 0.031 0.017 0.025 0 0.031-0.011 0.031-0.056 0-0.030 0.008-0.056 0.016-0.056 0.010 0 0.016-0.032 0.016-0.072s0.009-0.092 0.021-0.116c0.012-0.024 0.028-0.104 0.034-0.177 0.010-0.116 0.016-0.139 0.054-0.178 0.054-0.057 0.057-0.11 0.011-0.201l-0.034-0.065 0.037-0.057c0.028-0.040 0.051-0.057 0.085-0.061 0.045-0.005 0.047-0.008 0.059-0.108 0.006-0.057 0.029-0.137 0.050-0.178 0.031-0.061 0.036-0.083 0.023-0.116-0.010-0.024-0.016-0.070-0.016-0.107 0-0.054 0.011-0.076 0.071-0.145 0.089-0.104 0.105-0.143 0.082-0.213-0.021-0.068-0.010-0.139 0.039-0.212 0.143-0.223 0.154-0.248 0.165-0.339 0.007-0.062 0.021-0.105 0.043-0.129 0.034-0.037 0.045-0.127 0.016-0.145-0.020-0.013-0.002-0.053 0.031-0.064 0.039-0.013 0.097-0.111 0.096-0.164 0-0.046 0.023-0.1 0.050-0.118 0.009-0.006 0.016-0.061 0.018-0.119 0.002-0.206 0.034-0.226 0.159-0.1 0.047 0.046 0.094 0.080 0.114 0.080 0.048 0.002 0.127 0.076 0.157 0.151 0.086 0.206 0.068 0.433-0.037 0.428-0.016 0-0.032 0.008-0.032 0.021 0 0.011 0.011 0.021 0.023 0.021 0.026 0 0.101 0.045 0.119 0.072 0.006 0.008 0.013 0.065 0.013 0.126v0.11l0.045-0.010c0.032-0.006 0.047-0.003 0.054 0.014 0.018 0.049 0.007 0.072-0.045 0.096l-0.054 0.022 0.009 0.132c0.006 0.072 0.017 0.143 0.023 0.158 0.008 0.014 0.014 0.056 0.014 0.091 0 0.065 0.020 0.091 0.065 0.084 0.039-0.006 0.063 0.049 0.040 0.099-0.010 0.022-0.026 0.041-0.037 0.041-0.015 0-0.015 0.011 0.003 0.056 0.011 0.030 0.021 0.091 0.021 0.135s0.011 0.102 0.023 0.129c0.026 0.051 0.028 0.172 0.003 0.274-0.012 0.051-0.011 0.068 0.016 0.104 0.031 0.043 0.060 0.194 0.039 0.194-0.006 0-0.021-0.010-0.032-0.019-0.016-0.017-0.018-0.006-0.011 0.059 0.006 0.045 0.012 0.11 0.016 0.145 0.002 0.038 0.018 0.084 0.037 0.11 0.042 0.054 0.044 0.081 0.005 0.092s-0.059 0.159-0.025 0.212c0.025 0.038 0.025 0.124 0.002 0.448-0.010 0.126-0.010 0.131 0.031 0.162 0.028 0.022 0.042 0.048 0.040 0.078-0.006 0.475-0.005 0.511 0.016 0.548 0.013 0.026 0.021 0.123 0.025 0.331 0.006 0.379 0.011 0.443 0.036 0.505 0.016 0.045 0.016 0.059-0.006 0.11-0.023 0.049-0.025 0.070-0.010 0.151 0.010 0.053 0.025 0.099 0.031 0.104 0.008 0.005 0.014 0.021 0.014 0.037 0 0.017 0.026 0.068 0.057 0.115 0.037 0.056 0.055 0.102 0.055 0.134-0.002 0.026-0.005 0.156-0.010 0.287-0.010 0.322-0.036 0.491-0.091 0.564-0.016 0.021-0.028 0.054-0.028 0.075 0 0.045-0.083 0.212-0.12 0.242-0.013 0.011-0.037 0.027-0.049 0.035-0.014 0.008-0.020 0.033-0.018 0.067 0.003 0.045-0.006 0.065-0.052 0.11-0.031 0.030-0.075 0.091-0.1 0.135-0.040 0.070-0.099 0.135-0.196 0.215-0.011 0.008-0.021 0.033-0.021 0.054 0 0.029-0.029 0.068-0.1 0.139-0.057 0.056-0.114 0.127-0.131 0.167-0.016 0.038-0.052 0.1-0.082 0.137s-0.060 0.089-0.070 0.118c-0.016 0.056-0.113 0.151-0.205 0.209-0.034 0.021-0.060 0.046-0.060 0.059s-0.039 0.056-0.085 0.097-0.085 0.088-0.085 0.104c0 0.024-0.083 0.078-0.12 0.078-0.021 0-0.122 0.118-0.132 0.156-0.013 0.038-0.153 0.14-0.213 0.154-0.026 0.008-0.044 0.024-0.047 0.045-0.005 0.032-0.014 0.035-0.143 0.040-0.086 0.002-0.145-0.003-0.159-0.016-0.016-0.013-0.026-0.013-0.039 0-0.028 0.029-0.080 0.022-0.137-0.017z"></path>
<path d="M6.889 29.917c-0.039-0.006-0.085-0.019-0.104-0.030s-0.065-0.019-0.104-0.019c-0.039 0-0.088-0.008-0.11-0.019-0.036-0.016-0.039-0.024-0.029-0.084 0.010-0.064 0.006-0.068-0.112-0.209-0.066-0.078-0.146-0.154-0.176-0.169s-0.068-0.046-0.081-0.068c-0.021-0.033-0.031-0.038-0.050-0.022-0.031 0.027-0.073-0.016-0.097-0.097-0.010-0.033-0.042-0.086-0.070-0.115-0.175-0.178-0.221-0.22-0.244-0.22-0.037 0-0.11-0.035-0.131-0.064-0.010-0.013-0.013-0.035-0.006-0.048 0.018-0.037-0.011-0.124-0.046-0.143-0.018-0.010-0.052-0.013-0.076-0.008-0.063 0.014-0.096-0.010-0.142-0.107-0.048-0.1-0.096-0.156-0.135-0.156-0.014 0-0.049-0.032-0.079-0.072-0.057-0.078-0.062-0.081-0.089-0.053-0.029 0.030-0.062-0.010-0.034-0.041 0.016-0.022 0.010-0.030-0.052-0.057-0.057-0.026-0.077-0.045-0.101-0.099-0.015-0.038-0.043-0.078-0.062-0.089s-0.032-0.033-0.032-0.051c0-0.022-0.028-0.051-0.085-0.088-0.086-0.057-0.115-0.096-0.115-0.148 0-0.017-0.011-0.040-0.023-0.051s-0.020-0.026-0.016-0.032c0.008-0.013-0.073-0.19-0.096-0.206-0.026-0.021-0.097-0.196-0.097-0.242 0-0.041-0.005-0.048-0.031-0.041-0.021 0.006-0.043-0.008-0.077-0.049-0.081-0.102-0.097-0.115-0.136-0.115-0.031 0-0.034-0.005-0.020-0.022 0.011-0.013 0.017-0.049 0.013-0.083-0.005-0.051-0.015-0.067-0.081-0.113-0.045-0.032-0.083-0.073-0.091-0.097s-0.023-0.070-0.037-0.104c-0.018-0.046-0.020-0.067-0.006-0.1 0.029-0.065 0.023-0.084-0.062-0.162-0.045-0.041-0.119-0.115-0.162-0.162-0.068-0.073-0.081-0.097-0.081-0.147 0-0.032-0.006-0.064-0.016-0.068-0.008-0.005-0.036-0.054-0.060-0.11-0.039-0.084-0.058-0.107-0.125-0.143-0.041-0.024-0.083-0.057-0.093-0.073-0.008-0.016-0.039-0.037-0.068-0.048-0.037-0.013-0.054-0.029-0.062-0.061-0.005-0.024-0.036-0.064-0.070-0.091-0.039-0.030-0.062-0.061-0.063-0.084 0-0.030 0.006-0.035 0.031-0.027 0.028 0.010 0.031 0.003 0.031-0.049 0-0.107-0.097-0.213-0.171-0.19-0.054 0.017-0.091-0.019-0.091-0.089 0-0.041-0.011-0.080-0.031-0.105-0.018-0.026-0.031-0.065-0.031-0.102 0-0.053-0.008-0.065-0.070-0.111-0.040-0.030-0.074-0.070-0.080-0.092-0.005-0.022-0.022-0.068-0.037-0.1-0.017-0.033-0.029-0.088-0.029-0.121 0-0.089-0.028-0.162-0.062-0.162-0.015 0-0.043-0.024-0.060-0.051-0.060-0.097-0.11-0.161-0.141-0.183-0.036-0.026-0.039-0.064-0.014-0.123 0.026-0.057-0.003-0.118-0.088-0.191-0.054-0.048-0.068-0.068-0.068-0.11 0-0.030-0.018-0.078-0.042-0.115-0.026-0.040-0.041-0.088-0.045-0.134-0.002-0.040-0.021-0.11-0.043-0.154-0.026-0.054-0.039-0.104-0.036-0.142 0.003-0.056-0.002-0.064-0.054-0.092-0.032-0.017-0.058-0.041-0.058-0.051 0-0.026-0.046-0.121-0.075-0.156-0.020-0.024-0.020-0.032-0.002-0.043s0.011-0.032-0.028-0.107c-0.026-0.051-0.060-0.119-0.074-0.151-0.017-0.038-0.041-0.065-0.070-0.075-0.048-0.017-0.068-0.054-0.083-0.147-0.011-0.073-0.055-0.115-0.117-0.113l-0.048 0.002 0.010-0.076c0.008-0.064 0.005-0.081-0.022-0.105-0.015-0.014-0.039-0.024-0.054-0.019-0.028 0.011-0.029-0.003-0.007-0.061 0.018-0.051-0.013-0.123-0.070-0.161-0.042-0.029-0.051-0.083-0.020-0.134 0.016-0.026 0.014-0.038-0.016-0.078-0.018-0.027-0.034-0.059-0.034-0.070 0-0.013-0.017-0.035-0.039-0.049-0.052-0.035-0.079-0.096-0.091-0.207-0.012-0.108-0.029-0.137-0.080-0.137-0.041 0-0.057-0.021-0.045-0.062 0.006-0.021 0.018-0.027 0.042-0.021 0.029 0.008 0.031 0.003 0.021-0.064-0.007-0.057-0.006-0.075 0.014-0.081 0.046-0.019 0.010-0.145-0.042-0.137-0.043 0.005-0.058-0.003-0.081-0.049s-0.021-0.048 0.023-0.091c0.032-0.029 0.043-0.051 0.037-0.067-0.006-0.014-0.012-0.065-0.014-0.115-0.002-0.070-0.011-0.105-0.047-0.167-0.037-0.059-0.057-0.124-0.084-0.274-0.028-0.153-0.043-0.201-0.068-0.22-0.029-0.021-0.029-0.027-0.012-0.096 0.015-0.056 0.015-0.097 0.002-0.178s-0.013-0.116 0.002-0.159c0.017-0.048 0.016-0.059-0.013-0.099-0.046-0.067-0.052-0.11-0.032-0.279 0.016-0.142 0.016-0.156-0.011-0.186-0.021-0.026-0.026-0.053-0.023-0.132 0.005-0.068-0.002-0.115-0.018-0.148-0.028-0.056-0.032-0.14-0.010-0.154 0.010-0.005 0.016-0.022 0.016-0.038 0-0.024-0.012-0.029-0.057-0.027-0.050 0.002-0.058-0.003-0.063-0.035-0.003-0.022 0.008-0.046 0.029-0.065 0.028-0.022 0.032-0.038 0.023-0.083-0.005-0.030-0.020-0.075-0.032-0.1-0.034-0.067-0.028-0.11 0.023-0.161 0.055-0.054 0.055-0.059 0.013-0.080-0.037-0.017-0.066-0.116-0.041-0.142 0.007-0.010 0.013-0.040 0.013-0.068 0-0.041-0.006-0.053-0.029-0.053-0.031 0-0.048-0.070-0.055-0.223-0.002-0.040-0.007-0.083-0.013-0.096-0.003-0.013-0.013-0.059-0.020-0.104-0.013-0.067-0.020-0.081-0.049-0.084-0.048-0.008-0.058-0.041-0.028-0.086 0.031-0.046 0.031-0.127 0-0.19-0.026-0.056-0.018-0.177 0.018-0.207 0.040-0.035 0.026-0.065-0.029-0.059-0.036 0.003-0.049-0.002-0.049-0.019 0-0.014 0.016-0.026 0.040-0.029 0.036-0.005 0.039-0.011 0.039-0.067 0-0.035 0.010-0.084 0.020-0.11 0.026-0.065 0.013-0.091-0.054-0.104-0.044-0.010-0.060-0.024-0.080-0.067-0.024-0.053-0.024-0.057 0.008-0.126 0.041-0.089 0.041-0.119 0.003-0.186-0.023-0.041-0.031-0.088-0.034-0.199-0.002-0.081 0.002-0.151 0.008-0.158s0-0.024-0.014-0.040c-0.026-0.030-0.028-0.048-0.012-0.169 0.010-0.075 0.006-0.088-0.031-0.134-0.037-0.045-0.040-0.059-0.031-0.132 0.005-0.045 0.020-0.089 0.031-0.099 0.017-0.014 0.018-0.029 0.003-0.072-0.010-0.030-0.026-0.068-0.039-0.088-0.014-0.022-0.020-0.115-0.023-0.327-0.005-0.58-0.005-0.637 0.032-0.836 0.032-0.17 0.034-0.209 0.020-0.342-0.012-0.118-0.012-0.153 0.003-0.166 0.036-0.029 0.041-0.081 0.020-0.15-0.023-0.068-0.010-0.104 0.037-0.094 0.018 0.003 0.021-0.038 0.021-0.212 0-0.191 0.003-0.221 0.029-0.252 0.044-0.049 0.052-0.15 0.047-0.543-0.005-0.317-0.002-0.37 0.024-0.457 0.016-0.054 0.042-0.118 0.054-0.139 0.018-0.027 0.023-0.056 0.016-0.088-0.006-0.033 0.003-0.080 0.032-0.156 0.051-0.129 0.086-0.451 0.063-0.551-0.011-0.041-0.010-0.080 0.003-0.123 0.013-0.045 0.014-0.11 0.002-0.245-0.010-0.119-0.011-0.221 0-0.291 0.011-0.088 0.018-0.36 0.016-0.537-0.002-0.018 0.013-0.051 0.029-0.075 0.044-0.060 0.091-0.188 0.091-0.242 0-0.024 0.010-0.056 0.023-0.072 0.023-0.027 0.040-0.143 0.047-0.314 0.003-0.1 0.050-0.22 0.093-0.236 0.019-0.008 0.019-0.026-0.007-0.129l-0.029-0.119 0.037-0.061c0.021-0.033 0.052-0.078 0.068-0.1 0.028-0.037 0.028-0.046 0.010-0.119-0.031-0.119-0.028-0.147 0.020-0.17 0.037-0.018 0.045-0.033 0.054-0.107 0.008-0.064 0.024-0.108 0.073-0.177 0.058-0.086 0.068-0.121 0.062-0.223-0.003-0.057 0.023-0.201 0.039-0.223 0.011-0.013 0.023-0.059 0.029-0.1 0.005-0.059 0.021-0.089 0.055-0.123 0.025-0.024 0.046-0.056 0.046-0.070 0-0.013 0.012-0.032 0.029-0.040 0.023-0.014 0.031-0.043 0.040-0.172 0.012-0.177 0.025-0.218 0.080-0.279 0.023-0.024 0.049-0.070 0.062-0.1 0.011-0.030 0.029-0.083 0.041-0.115s0.034-0.064 0.048-0.065c0.036-0.008 0.052-0.065 0.043-0.15-0.007-0.065-0.005-0.075 0.028-0.094 0.052-0.027 0.062-0.048 0.052-0.097-0.006-0.032 0-0.046 0.023-0.061 0.018-0.010 0.032-0.026 0.032-0.037s0.014-0.029 0.031-0.040c0.023-0.014 0.029-0.030 0.022-0.056-0.010-0.041 0.034-0.129 0.105-0.215 0.029-0.035 0.043-0.070 0.043-0.107s0.008-0.056 0.022-0.056c0.037 0 0.042-0.027 0.014-0.078l-0.028-0.048 0.066-0.057c0.084-0.075 0.114-0.135 0.108-0.22-0.005-0.061-0.002-0.068 0.046-0.091 0.060-0.030 0.080-0.057 0.080-0.111 0-0.022 0.017-0.065 0.037-0.096s0.042-0.073 0.047-0.096c0.006-0.022 0.022-0.054 0.032-0.072 0.013-0.018 0.021-0.051 0.021-0.073 0-0.038 0.063-0.14 0.097-0.154 0.006-0.003 0.032-0.024 0.057-0.046 0.037-0.032 0.044-0.045 0.031-0.068-0.039-0.073 0.013-0.159 0.094-0.159 0.055 0 0.065-0.035 0.037-0.132l-0.021-0.075 0.051-0.022c0.036-0.014 0.055-0.037 0.062-0.067 0.006-0.026 0.020-0.067 0.031-0.094 0.036-0.088 0.058-0.159 0.066-0.206 0.006-0.032 0.023-0.051 0.060-0.067 0.052-0.022 0.073-0.059 0.068-0.131s0-0.099 0.016-0.099c0.025 0 0.073-0.051 0.083-0.091 0.006-0.019 0.052-0.076 0.099-0.127s0.099-0.121 0.111-0.156c0.018-0.046 0.039-0.072 0.079-0.092 0.044-0.021 0.065-0.048 0.091-0.111 0.022-0.049 0.068-0.116 0.117-0.166 0.088-0.089 0.11-0.099 0.123-0.060 0.006 0.013 0.025 0.024 0.045 0.024s0.044-0.011 0.054-0.024c0.026-0.032 0.042-0.030 0.054 0.008 0.006 0.018 0.028 0.051 0.050 0.073 0.032 0.033 0.037 0.048 0.028 0.103-0.008 0.046-0.003 0.073 0.013 0.102 0.037 0.059 0.029 0.135-0.021 0.207-0.025 0.035-0.055 0.078-0.068 0.096-0.017 0.026-0.018 0.054-0.006 0.148l0.016 0.115-0.048 0.057c-0.054 0.064-0.062 0.123-0.025 0.229 0.013 0.037 0.018 0.073 0.014 0.083-0.005 0.008-0.037 0.013-0.073 0.010-0.066-0.005-0.089 0.019-0.057 0.059 0.010 0.013 0.019 0.057 0.019 0.099s0.007 0.086 0.017 0.097c0.014 0.019-0.002 0.027-0.046 0.021-0.043-0.006-0.080 0.032-0.089 0.091-0.025 0.159-0.042 0.209-0.080 0.234-0.031 0.022-0.037 0.037-0.034 0.088 0.003 0.035 0 0.067-0.006 0.073-0.017 0.018-0.013 0.131 0.006 0.199 0.020 0.067 0.005 0.127-0.049 0.193-0.025 0.029-0.029 0.049-0.020 0.123 0.006 0.060 0.002 0.111-0.014 0.158-0.018 0.056-0.020 0.108-0.010 0.293 0.014 0.237 0.010 0.29-0.029 0.336-0.018 0.019-0.023 0.053-0.020 0.099 0.002 0.038-0.003 0.084-0.013 0.102-0.011 0.021-0.013 0.035-0.002 0.041 0.026 0.018 0.017 0.097-0.018 0.129-0.028 0.026-0.031 0.046-0.028 0.162 0.003 0.113-0.002 0.139-0.031 0.178-0.020 0.030-0.032 0.070-0.032 0.111 0 0.035-0.006 0.076-0.014 0.092-0.075 0.154-0.096 0.245-0.063 0.266 0.025 0.016 0.018 0.059-0.013 0.094-0.045 0.051-0.068 0.241-0.066 0.532 0 0.147-0.006 0.292-0.014 0.325-0.010 0.032-0.017 0.111-0.017 0.175-0.002 0.075-0.011 0.131-0.026 0.154-0.016 0.026-0.022 0.073-0.020 0.137 0.002 0.054-0.010 0.147-0.023 0.209s-0.025 0.151-0.023 0.202c0 0.051-0.006 0.107-0.014 0.124-0.018 0.035 0.008 0.167 0.040 0.207 0.028 0.033 0.028 0.134-0.002 0.231-0.029 0.1-0.029 0.148 0 0.182 0.017 0.021 0.020 0.038 0.011 0.065-0.025 0.067-0.036 0.25-0.037 0.628 0 0.247 0.005 0.382 0.017 0.413 0.013 0.033 0.016 0.148 0.010 0.401-0.008 0.32-0.006 0.36 0.018 0.398 0.018 0.029 0.026 0.080 0.029 0.156 0.002 0.064 0.011 0.143 0.021 0.177 0.044 0.15 0.046 0.175 0.028 0.257-0.013 0.060-0.013 0.096 0 0.132s0.013 0.064 0.002 0.094c-0.010 0.024-0.016 0.102-0.016 0.174 0.002 0.108 0.008 0.14 0.037 0.185 0.018 0.029 0.047 0.094 0.065 0.147 0.023 0.067 0.043 0.1 0.073 0.118 0.037 0.022 0.042 0.032 0.034 0.073-0.029 0.148-0.029 0.148 0.020 0.174 0.025 0.013 0.065 0.057 0.086 0.097 0.037 0.064 0.043 0.096 0.049 0.244l0.008 0.169 0.083 0.129c0.073 0.11 0.086 0.139 0.086 0.204s0.005 0.075 0.039 0.084c0.020 0.005 0.041 0.025 0.047 0.043 0.010 0.029 0.018 0.247 0.022 0.456 0 0.022 0.011 0.056 0.023 0.075 0.013 0.021 0.023 0.057 0.023 0.081s0.014 0.067 0.031 0.092c0.018 0.027 0.031 0.075 0.031 0.108s0.011 0.078 0.025 0.1c0.020 0.032 0.023 0.062 0.018 0.147-0.011 0.107-0.010 0.108 0.036 0.135 0.025 0.016 0.057 0.053 0.070 0.081 0.014 0.030 0.039 0.067 0.055 0.083 0.016 0.014 0.029 0.040 0.029 0.056 0 0.040 0.075 0.306 0.089 0.317 0.044 0.032 0.093 0.193 0.081 0.272-0.002 0.014 0.021 0.060 0.050 0.104s0.059 0.102 0.063 0.129c0.008 0.033 0.031 0.064 0.073 0.092 0.068 0.049 0.065 0.040 0.060 0.193l-0.003 0.113 0.057 0.033c0.031 0.019 0.068 0.056 0.081 0.083 0.014 0.025 0.036 0.048 0.046 0.048s0.018 0.014 0.018 0.033c0 0.033 0 0.033-0.028-0.002-0.025-0.032-0.029-0.032-0.047-0.011-0.025 0.032-0.010 0.084 0.029 0.096 0.018 0.005 0.036 0.032 0.045 0.072 0.010 0.033 0.029 0.080 0.046 0.1 0.016 0.021 0.040 0.061 0.054 0.089s0.044 0.061 0.066 0.072c0.039 0.019 0.043 0.029 0.051 0.143 0.008 0.129 0.013 0.137 0.136 0.263 0.037 0.038 0.044 0.061 0.019 0.076-0.052 0.033 0.023 0.202 0.1 0.221 0.031 0.008 0.039 0.021 0.039 0.062 0 0.070 0.070 0.177 0.109 0.166 0.045-0.013 0.036 0.024-0.026 0.097l-0.055 0.067 0.055 0.024c0.046 0.021 0.055 0.032 0.055 0.070 0 0.032 0.013 0.056 0.042 0.078 0.040 0.030 0.040 0.033 0.021 0.092-0.020 0.064-0.005 0.15 0.028 0.15 0.008 0 0.026 0.011 0.040 0.026 0.021 0.024 0.021 0.030-0.008 0.078l-0.031 0.051 0.049 0.070c0.026 0.038 0.065 0.086 0.086 0.105 0.021 0.021 0.036 0.054 0.036 0.081 0 0.024 0.011 0.059 0.023 0.076s0.023 0.048 0.023 0.070c0 0.053 0.040 0.111 0.076 0.111 0.051 0 0.063 0.038 0.062 0.185-0.003 0.175 0.005 0.202 0.066 0.231 0.057 0.026 0.125 0.135 0.143 0.226 0.006 0.032 0.028 0.076 0.047 0.099 0.028 0.027 0.039 0.056 0.039 0.102 0 0.054 0.006 0.067 0.052 0.094 0.048 0.029 0.054 0.041 0.059 0.11 0.003 0.062 0.011 0.076 0.036 0.081 0.050 0.008 0.101 0.038 0.101 0.061 0 0.011 0.021 0.043 0.046 0.070 0.037 0.040 0.044 0.056 0.031 0.080-0.010 0.016-0.023 0.035-0.031 0.040-0.037 0.024-0.013 0.073 0.060 0.123 0.101 0.067 0.12 0.105 0.088 0.167-0.021 0.046-0.021 0.049 0.011 0.067 0.044 0.026 0.119 0.147 0.119 0.191 0 0.022 0.016 0.041 0.044 0.054 0.052 0.024 0.079 0.057 0.080 0.104 0 0.024 0.009 0.035 0.031 0.035 0.026 0 0.031 0.011 0.031 0.062 0 0.057 0.013 0.111 0.050 0.212 0.011 0.029 0.034 0.049 0.068 0.061 0.066 0.022 0.091 0.067 0.065 0.11-0.016 0.027-0.014 0.038 0.013 0.068 0.062 0.075 0.094 0.134 0.105 0.194 0.007 0.037 0.029 0.080 0.054 0.104 0.060 0.059 0.125 0.185 0.125 0.245 0 0.075 0.029 0.17 0.055 0.182 0.013 0.005 0.046 0.045 0.073 0.091 0.044 0.067 0.052 0.1 0.059 0.194s0.015 0.124 0.051 0.172c0.025 0.033 0.066 0.068 0.094 0.081 0.043 0.017 0.055 0.035 0.071 0.097 0.015 0.057 0.037 0.089 0.088 0.132 0.119 0.1 0.167 0.151 0.177 0.19 0.010 0.029 0.018 0.033 0.032 0.019 0.016-0.013 0.029-0.013 0.054 0 0.036 0.019 0.028 0.048-0.014 0.048-0.046 0-0.047 0.019-0.010 0.067 0.021 0.026 0.039 0.064 0.039 0.086s0.005 0.038 0.013 0.038c0.023 0 0.156 0.131 0.179 0.177 0.012 0.024 0.040 0.064 0.062 0.088s0.043 0.072 0.049 0.107c0.005 0.033 0.018 0.070 0.032 0.080 0.074 0.061 0.219 0.218 0.24 0.263 0.014 0.029 0.037 0.051 0.054 0.051 0.037 0 0.143 0.086 0.169 0.139 0.012 0.022 0.043 0.061 0.071 0.084 0.032 0.030 0.055 0.072 0.070 0.126 0.012 0.053 0.029 0.083 0.050 0.089 0.021 0.008 0.029 0.026 0.029 0.064 0 0.045 0.006 0.057 0.037 0.065 0.021 0.005 0.046 0.005 0.054-0.002 0.021-0.013 0.021 0.033 0 0.075-0.031 0.057-0.032 0.159-0.003 0.191 0.026 0.029 0.028 0.089 0.018 0.363-0.003 0.048 0 0.22 0.006 0.382 0.008 0.264 0.006 0.306-0.021 0.406-0.052 0.19-0.057 0.212-0.047 0.258 0.003 0.024 0.017 0.057 0.029 0.072 0.020 0.024 0.020 0.037 0 0.111-0.037 0.126-0.046 0.245-0.023 0.282 0.016 0.027 0.014 0.040-0.012 0.076-0.029 0.040-0.029 0.053-0.013 0.118 0.017 0.065 0.015 0.078-0.010 0.111-0.016 0.021-0.029 0.046-0.029 0.054 0 0.010-0.021 0.033-0.047 0.056-0.036 0.032-0.050 0.057-0.054 0.111-0.011 0.094-0.046 0.186-0.093 0.244-0.020 0.026-0.037 0.053-0.037 0.061 0 0.010-0.018 0.043-0.039 0.075s-0.039 0.076-0.039 0.099c0 0.022-0.014 0.062-0.031 0.088-0.018 0.027-0.031 0.075-0.031 0.107 0 0.037-0.012 0.075-0.036 0.104-0.020 0.024-0.055 0.081-0.080 0.124-0.023 0.045-0.068 0.118-0.097 0.164-0.037 0.059-0.052 0.096-0.045 0.124 0.008 0.046-0.070 0.183-0.127 0.225-0.018 0.013-0.032 0.030-0.032 0.040s-0.023 0.041-0.052 0.068c-0.029 0.027-0.058 0.072-0.065 0.097-0.012 0.054-0.049 0.102-0.077 0.102-0.011 0-0.028 0.014-0.037 0.030-0.007 0.017-0.029 0.035-0.046 0.041-0.023 0.008-0.028 0.019-0.021 0.053 0.011 0.057-0.044 0.123-0.123 0.151-0.066 0.024-0.079 0.040-0.094 0.115-0.006 0.032-0.055 0.092-0.145 0.183-0.075 0.075-0.148 0.159-0.162 0.188-0.021 0.041-0.034 0.051-0.077 0.051-0.042 0-0.054 0.008-0.062 0.038-0.005 0.021-0.032 0.056-0.062 0.078-0.036 0.029-0.055 0.061-0.062 0.099-0.006 0.030-0.021 0.056-0.031 0.056s-0.032 0.014-0.047 0.032c-0.016 0.017-0.036 0.030-0.045 0.030-0.010-0.002-0.048-0.008-0.086-0.013z"></path>
<path d="M10.605 29.302c-0.040-0.011-0.088-0.032-0.108-0.046-0.045-0.032-0.142-0.033-0.166-0.002-0.028 0.035-0.052 0.006-0.032-0.041 0.012-0.035 0.006-0.048-0.046-0.102-0.036-0.037-0.060-0.076-0.060-0.099 0-0.026-0.014-0.043-0.042-0.056-0.12-0.054-0.252-0.22-0.252-0.317 0-0.045-0.008-0.062-0.039-0.078-0.021-0.011-0.043-0.017-0.047-0.013-0.012 0.013-0.104-0.096-0.137-0.161-0.023-0.046-0.023-0.062-0.006-0.124 0.016-0.061 0.016-0.080-0.005-0.123-0.078-0.167-0.086-0.202-0.052-0.231 0.031-0.027 0.043-0.147 0.017-0.177-0.037-0.045-0.043-0.121-0.011-0.154 0.055-0.054 0.066-0.094 0.055-0.207-0.006-0.061-0.017-0.124-0.023-0.145-0.011-0.027-0.006-0.048 0.018-0.081l0.032-0.045-0.048-0.086c-0.052-0.099-0.058-0.135-0.041-0.239 0.007-0.051 0.005-0.086-0.008-0.111-0.021-0.041-0.020-0.202 0.002-0.263 0.009-0.021 0.009-0.068 0.002-0.108-0.011-0.062-0.008-0.075 0.020-0.1 0.031-0.027 0.032-0.043 0.029-0.255-0.002-0.207-0.005-0.229-0.037-0.274-0.048-0.067-0.048-0.202 0-0.239 0.029-0.024 0.031-0.029 0.011-0.057-0.041-0.062-0.045-0.167-0.010-0.274 0.018-0.056 0.032-0.139 0.034-0.198 0-0.056 0.002-0.123 0.002-0.15 0.005-0.132-0.003-0.569-0.011-0.653-0.023-0.225-0.026-0.341-0.011-0.373 0.012-0.022 0.012-0.076 0.002-0.188-0.021-0.207-0.013-0.269 0.045-0.28 0.045-0.010 0.086-0.043 0.099-0.078 0.005-0.014 0.023-0.003 0.055 0.032 0.026 0.027 0.057 0.051 0.070 0.051 0.011 0 0.039 0.029 0.062 0.064 0.046 0.073 0.055 0.076 0.094 0.032 0.039-0.046 0.057-0.040 0.13 0.040 0.062 0.068 0.081 0.137 0.048 0.159-0.008 0.005-0.016 0.026-0.016 0.046 0 0.035 0.051 0.073 0.097 0.073 0.011 0 0.039 0.017 0.063 0.037 0.036 0.030 0.046 0.056 0.057 0.127 0.006 0.049 0.028 0.127 0.050 0.174s0.051 0.115 0.065 0.151c0.014 0.037 0.037 0.072 0.052 0.076 0.021 0.006 0.026 0.030 0.026 0.121s0.005 0.116 0.029 0.134c0.016 0.013 0.051 0.045 0.080 0.072 0.051 0.048 0.052 0.049 0.043 0.151-0.008 0.084-0.005 0.105 0.016 0.113 0.040 0.016 0.083 0.105 0.096 0.193 0.009 0.073 0.013 0.084 0.054 0.092 0.070 0.016 0.084 0.045 0.063 0.137-0.011 0.045-0.019 0.11-0.019 0.145v0.064l0.058-0.006 0.057-0.005-0.005 0.104c-0.005 0.096-0.003 0.107 0.036 0.14 0.034 0.030 0.040 0.046 0.031 0.080-0.026 0.113-0.026 0.147 0.008 0.217 0.024 0.054 0.036 0.113 0.042 0.228 0.006 0.147 0.011 0.166 0.079 0.304 0.077 0.161 0.079 0.175 0.051 0.405-0.010 0.086-0.011 0.154-0.003 0.177 0.009 0.022 0.009 0.046 0 0.061-0.023 0.038-0.016 0.073 0.017 0.083 0.042 0.011 0.066 0.083 0.045 0.126-0.018 0.037-0.012 0.108 0.019 0.185 0.017 0.041 0.017 0.061 0 0.104-0.011 0.027-0.026 0.078-0.034 0.11-0.020 0.086-0.028 0.428-0.010 0.475 0.008 0.022 0.018 0.207 0.020 0.409 0.006 0.355 0.006 0.371-0.024 0.403-0.032 0.033-0.071 0.040-0.107 0.017-0.028-0.019-0.122 0.029-0.133 0.065-0.005 0.016-0.020 0.040-0.034 0.053-0.021 0.024-0.021 0.027 0 0.045 0.021 0.016 0.021 0.024 0.005 0.048-0.018 0.022-0.045 0.027-0.143 0.029-0.068 0.002-0.136 0-0.153-0.002s-0.055 0-0.086 0.005c-0.029 0.005-0.086-0.002-0.127-0.013z"></path>
<path d="M24.051 29.141c-0.018-0.013-0.034-0.035-0.034-0.049 0-0.041-0.075-0.132-0.101-0.123-0.023 0.010-0.029-0.010-0.045-0.123-0.003-0.032-0.025-0.088-0.047-0.123s-0.043-0.083-0.049-0.105c-0.006-0.026-0.023-0.045-0.045-0.051-0.047-0.011-0.076-0.086-0.063-0.153 0.006-0.029 0.013-0.1 0.016-0.159s0.014-0.118 0.023-0.131c0.015-0.019 0.005-0.035-0.066-0.092-0.083-0.067-0.086-0.072-0.086-0.145 0-0.092-0.021-0.139-0.065-0.139-0.026 0-0.029-0.006-0.021-0.043 0.023-0.108 0.040-0.255 0.032-0.287-0.005-0.019-0.039-0.057-0.077-0.084s-0.070-0.051-0.070-0.053c-0.002-0.002-0.011-0.067-0.023-0.147-0.016-0.108-0.029-0.15-0.052-0.169-0.039-0.032-0.040-0.045-0.010-0.104 0.012-0.026 0.023-0.059 0.023-0.076 0-0.035-0.057-0.147-0.097-0.19-0.018-0.019-0.026-0.043-0.020-0.072 0.005-0.024 0.012-0.084 0.018-0.135 0.011-0.099-0.010-0.159-0.082-0.253-0.036-0.046-0.062-0.19-0.041-0.223s0.006-0.111-0.026-0.166c-0.016-0.027-0.029-0.075-0.029-0.107 0-0.040-0.007-0.061-0.026-0.067-0.034-0.011-0.128-0.156-0.128-0.194 0-0.016 0.006-0.038 0.014-0.051 0.011-0.016 0-0.043-0.032-0.091-0.047-0.067-0.047-0.072-0.036-0.19 0.016-0.178-0.002-0.274-0.059-0.328-0.042-0.040-0.045-0.049-0.028-0.081 0.080-0.156 0.077-0.147 0.047-0.169-0.016-0.011-0.029-0.035-0.029-0.051s-0.016-0.041-0.032-0.054c-0.029-0.021-0.034-0.038-0.031-0.135 0.002-0.094-0.005-0.134-0.047-0.236-0.041-0.107-0.049-0.143-0.049-0.269-0.002-0.119 0.005-0.154 0.029-0.19 0.054-0.080 0.082-0.143 0.084-0.186 0-0.027 0.021-0.067 0.059-0.105 0.031-0.035 0.066-0.075 0.077-0.089s0.032-0.026 0.048-0.026c0.037 0 0.101-0.072 0.089-0.102-0.006-0.016-0.002-0.021 0.012-0.014 0.012 0.005 0.044-0.010 0.070-0.032s0.073-0.045 0.107-0.051c0.071-0.013 0.093-0.037 0.057-0.064s-0.032-0.067 0.010-0.089c0.018-0.010 0.052-0.035 0.073-0.054 0.021-0.021 0.052-0.040 0.070-0.043s0.037-0.021 0.047-0.041c0.008-0.019 0.025-0.035 0.036-0.035 0.036 0 0.139-0.081 0.148-0.116 0.005-0.017 0-0.043-0.010-0.054-0.025-0.030 0.021-0.096 0.068-0.094 0.023 0.002 0.039-0.011 0.051-0.035 0.008-0.019 0.026-0.038 0.039-0.043 0.014-0.005 0.037-0.029 0.052-0.056 0.015-0.026 0.047-0.061 0.073-0.080 0.025-0.017 0.047-0.046 0.054-0.062 0.005-0.016 0.029-0.038 0.054-0.049 0.032-0.014 0.047-0.030 0.047-0.056 0-0.046 0.015-0.061 0.041-0.037 0.031 0.026 0.044 0.002 0.021-0.041-0.026-0.049 0-0.1 0.057-0.116 0.052-0.013 0.198-0.121 0.219-0.162 0.007-0.017 0.015-0.054 0.015-0.081 0-0.038 0.011-0.056 0.052-0.080 0.029-0.017 0.060-0.049 0.071-0.070s0.078-0.092 0.149-0.161c0.13-0.121 0.149-0.151 0.106-0.151-0.012 0-0.023-0.011-0.023-0.026 0-0.046 0.032-0.086 0.070-0.086 0.054 0 0.083-0.016 0.073-0.040-0.003-0.013 0-0.032 0.011-0.043s0.031-0.045 0.047-0.072c0.023-0.041 0.040-0.053 0.078-0.053 0.086 0 0.149-0.059 0.196-0.183 0.023-0.061 0.039-0.123 0.039-0.137-0.003-0.016 0.014-0.033 0.040-0.045 0.051-0.022 0.063-0.045 0.109-0.199s0.104-0.245 0.17-0.277c0.070-0.033 0.078-0.046 0.078-0.108 0-0.038 0.018-0.067 0.085-0.135 0.070-0.070 0.085-0.096 0.083-0.134-0.006-0.094 0.002-0.135 0.031-0.162 0.018-0.019 0.031-0.061 0.037-0.118 0.005-0.049 0.025-0.121 0.045-0.158 0.018-0.037 0.043-0.083 0.052-0.102 0.014-0.024 0.014-0.062 0.002-0.14-0.014-0.097-0.012-0.108 0.016-0.148 0.018-0.024 0.034-0.054 0.034-0.065s0.010-0.027 0.021-0.033c0.025-0.016 0.065-0.105 0.079-0.175 0.008-0.043 0.016-0.051 0.059-0.056 0.044-0.005 0.052-0.014 0.080-0.092 0.032-0.086 0.032-0.088 0.003-0.14-0.037-0.064-0.016-0.099 0.059-0.099 0.047 0 0.051-0.005 0.060-0.064 0.005-0.035 0.016-0.064 0.025-0.064 0.021 0 0.062-0.088 0.062-0.132 0-0.029 0.012-0.045 0.045-0.059 0.059-0.024 0.066-0.049 0.045-0.137-0.021-0.083-0.008-0.119 0.052-0.134 0.034-0.008 0.037-0.017 0.045-0.137 0.007-0.123 0.009-0.127 0.066-0.182 0.052-0.049 0.060-0.067 0.073-0.162 0.008-0.073 0.025-0.123 0.052-0.159 0.020-0.029 0.052-0.088 0.071-0.132 0.018-0.043 0.045-0.091 0.059-0.107 0.016-0.019 0.020-0.040 0.012-0.072-0.016-0.059-0.012-0.078 0.034-0.175 0.036-0.075 0.046-0.084 0.104-0.096 0.059-0.013 0.063-0.017 0.068-0.072 0.003-0.030-0.010-0.099-0.026-0.15-0.036-0.1-0.042-0.166-0.016-0.166 0.010 0 0.016-0.010 0.016-0.022s0.007-0.025 0.016-0.029c0.010-0.003 0.020-0.045 0.023-0.092 0.008-0.1 0.028-0.139 0.114-0.209 0.062-0.051 0.073-0.088 0.047-0.139-0.023-0.049-0.031-0.162-0.011-0.162 0.011 0 0.032-0.014 0.048-0.032s0.043-0.032 0.060-0.032c0.034 0 0.093-0.032 0.062-0.032-0.011 0-0.023-0.025-0.028-0.056-0.010-0.046 0-0.081 0.054-0.193 0.062-0.132 0.063-0.14 0.045-0.199-0.018-0.057-0.018-0.067 0.016-0.113 0.031-0.043 0.036-0.073 0.042-0.218 0.005-0.142 0.011-0.174 0.037-0.202 0.036-0.040 0.031-0.116-0.011-0.151-0.025-0.021-0.029-0.167-0.007-0.204 0.009-0.016 0.029-0.019 0.070-0.011l0.055 0.011-0.010-0.148c-0.006-0.081-0.016-0.161-0.025-0.175-0.008-0.019-0.008-0.029 0.003-0.029 0.008 0 0.015 0.008 0.015 0.016 0 0.025 0.029 0.019 0.078-0.019 0.036-0.027 0.041-0.040 0.031-0.062-0.011-0.018-0.011-0.032 0-0.038 0.026-0.018 0.016-0.067-0.016-0.091-0.044-0.029-0.029-0.078 0.028-0.105 0.025-0.011 0.060-0.033 0.080-0.049 0.037-0.029 0.037-0.029 0.015-0.161-0.016-0.11-0.026-0.134-0.055-0.148-0.044-0.021-0.046-0.075-0.005-0.086 0.039-0.011 0.041-0.092 0.008-0.188-0.013-0.035-0.021-0.102-0.023-0.15 0-0.067 0.008-0.094 0.039-0.132 0.036-0.043 0.039-0.060 0.039-0.204 0-0.102 0.008-0.175 0.023-0.213 0.016-0.040 0.021-0.102 0.020-0.212-0.003-0.086 0.002-0.201 0.010-0.257 0.012-0.086 0.010-0.104-0.014-0.131-0.023-0.025-0.026-0.048-0.016-0.134 0.006-0.064 0.005-0.107-0.006-0.113-0.023-0.014-0.018-0.072 0.006-0.081 0.029-0.011 0.055-0.091 0.055-0.166 0-0.033 0.010-0.068 0.021-0.078s0.029-0.049 0.040-0.088c0.016-0.064 0.015-0.075-0.021-0.147s-0.039-0.080-0.014-0.097c0.014-0.011 0.029-0.021 0.034-0.021s0.010-0.072 0.010-0.161c0-0.139-0.005-0.162-0.029-0.182-0.021-0.018-0.026-0.033-0.018-0.067 0.006-0.024 0.016-0.065 0.020-0.092 0.005-0.025 0.026-0.067 0.048-0.091 0.034-0.038 0.036-0.048 0.020-0.088-0.010-0.024-0.039-0.057-0.065-0.073l-0.048-0.027 0.011-0.132c0.005-0.072 0.021-0.151 0.034-0.175 0.025-0.051 0.019-0.067-0.041-0.099-0.042-0.022-0.044-0.027-0.028-0.083 0.011-0.043 0.011-0.075-0.002-0.11-0.021-0.060-0.012-0.089 0.034-0.11 0.043-0.019 0.039-0.094-0.008-0.147-0.025-0.027-0.029-0.046-0.020-0.080 0.006-0.024 0.013-0.094 0.018-0.153 0.006-0.099 0.003-0.115-0.034-0.174-0.037-0.057-0.039-0.065-0.016-0.091 0.032-0.037 0.032-0.151 0.002-0.264-0.016-0.059-0.023-0.121-0.016-0.161 0.005-0.035 0.002-0.072-0.008-0.081s-0.006-0.032 0.010-0.062c0.025-0.051 0.016-0.099-0.021-0.129-0.020-0.014-0.025-0.048-0.021-0.185 0.003-0.14-0.002-0.182-0.032-0.269-0.032-0.091-0.034-0.105-0.013-0.118 0.028-0.019 0.029-0.062 0.011-0.279-0.008-0.102-0.006-0.17 0.005-0.202 0.014-0.041 0.011-0.056-0.011-0.086-0.042-0.054-0.060-0.315-0.026-0.366s0.031-0.075-0.014-0.092c-0.025-0.010-0.036-0.024-0.029-0.038 0.005-0.014-0.005-0.032-0.023-0.045-0.039-0.026-0.039-0.053 0-0.154 0.032-0.078 0.032-0.083 0.006-0.113-0.014-0.016-0.047-0.032-0.073-0.035-0.032-0.003-0.052-0.014-0.054-0.033-0.010-0.046 0.011-0.107 0.034-0.107 0.037 0 0.062-0.045 0.045-0.084-0.011-0.024-0.010-0.049 0.005-0.084 0.018-0.046 0.018-0.051-0.016-0.067-0.044-0.021-0.088-0.119-0.081-0.178 0.003-0.026 0.020-0.048 0.047-0.061 0.050-0.024 0.054-0.051 0.011-0.062-0.016-0.005-0.031-0.019-0.031-0.032s-0.014-0.045-0.032-0.070c-0.026-0.040-0.031-0.064-0.025-0.162 0.003-0.062 0.015-0.145 0.026-0.182 0.018-0.065 0.016-0.070-0.029-0.131-0.054-0.070-0.059-0.092-0.025-0.139 0.032-0.045 0.028-0.083-0.014-0.123-0.020-0.019-0.051-0.067-0.070-0.105l-0.036-0.068 0.032-0.076c0.039-0.092 0.039-0.132 0.007-0.159-0.071-0.062-0.075-0.188-0.011-0.3 0.036-0.059 0.031-0.108-0.011-0.123-0.044-0.014-0.063-0.088-0.074-0.272-0.011-0.164-0.012-0.174-0.045-0.178-0.026-0.005-0.036-0.016-0.036-0.045 0-0.022 0.011-0.043 0.023-0.048s0.023-0.024 0.023-0.040c0-0.022-0.011-0.030-0.039-0.030-0.032 0-0.039-0.008-0.039-0.049 0-0.027-0.011-0.099-0.025-0.158-0.025-0.107-0.025-0.11 0.008-0.164 0.028-0.046 0.029-0.062 0.015-0.105-0.010-0.029-0.037-0.060-0.063-0.075-0.044-0.024-0.045-0.026-0.034-0.116 0.008-0.076 0.005-0.103-0.018-0.143-0.016-0.027-0.032-0.049-0.037-0.049-0.018 0-0.008-0.111 0.011-0.118 0.031-0.013 0.109 0.008 0.13 0.032 0.010 0.013 0.031 0.022 0.047 0.022s0.037 0.016 0.045 0.037c0.013 0.037 0.071 0.099 0.177 0.191 0.094 0.081 0.135 0.107 0.173 0.107 0.020 0 0.036 0.008 0.036 0.016 0 0.010-0.011 0.016-0.023 0.016s-0.023 0.005-0.023 0.013c0.002 0.019 0.052 0.076 0.081 0.088s0.034 0.035 0.011 0.051c-0.049 0.032 0.021 0.119 0.097 0.119 0.020 0 0.052 0.018 0.070 0.040 0.023 0.027 0.049 0.040 0.081 0.040 0.048 0 0.048 0.002 0.040 0.056-0.005 0.030-0.023 0.076-0.040 0.102-0.018 0.026-0.032 0.049-0.032 0.054 0 0.011 0.066 0.030 0.089 0.027 0.040-0.005 0.080 0.051 0.080 0.11 0 0.032 0.011 0.075 0.023 0.097 0.011 0.022 0.047 0.094 0.077 0.159 0.032 0.065 0.085 0.151 0.119 0.19 0.057 0.062 0.062 0.075 0.054 0.134-0.008 0.060-0.005 0.068 0.076 0.153 0.047 0.049 0.088 0.107 0.093 0.129 0.011 0.051 0.026 0.086 0.080 0.175 0.025 0.040 0.052 0.096 0.062 0.124s0.031 0.072 0.050 0.094c0.016 0.022 0.031 0.054 0.031 0.072 0 0.016 0.016 0.035 0.036 0.043 0.032 0.013 0.039 0.029 0.047 0.14 0.013 0.154 0.023 0.196 0.048 0.196 0.041 0 0.070 0.049 0.070 0.119 0 0.054 0.008 0.075 0.031 0.088 0.016 0.010 0.031 0.033 0.031 0.054 0 0.041 0.054 0.178 0.076 0.193 0.007 0.005 0.011 0.022 0.005 0.038-0.005 0.021 0.003 0.037 0.025 0.048 0.018 0.011 0.032 0.030 0.032 0.046 0 0.014 0.010 0.041 0.020 0.061 0.075 0.134 0.104 0.204 0.104 0.256 0 0.043 0.010 0.067 0.031 0.081 0.016 0.011 0.031 0.029 0.031 0.040 0 0.013 0.016 0.038 0.039 0.059 0.031 0.030 0.039 0.053 0.039 0.115 0 0.067 0.005 0.076 0.032 0.076 0.078 0 0.091 0.024 0.091 0.175v0.142l0.054 0.045c0.047 0.038 0.054 0.054 0.054 0.113 0 0.046 0.014 0.094 0.040 0.14 0.036 0.062 0.039 0.084 0.032 0.162-0.005 0.049-0.014 0.107-0.021 0.126-0.005 0.026-0.003 0.037 0.011 0.037 0.037 0.002 0.107 0.137 0.125 0.239 0.007 0.053 0.026 0.107 0.037 0.119 0.016 0.016 0.021 0.067 0.021 0.183 0 0.139 0.003 0.161 0.028 0.17 0.062 0.022 0.080 0.056 0.080 0.147 0.002 0.053 0.011 0.102 0.023 0.119s0.023 0.048 0.023 0.067 0.012 0.051 0.029 0.072c0.023 0.030 0.025 0.045 0.011 0.091-0.014 0.049-0.012 0.059 0.021 0.089 0.080 0.073 0.135 0.177 0.11 0.207-0.011 0.013-0.008 0.043 0.008 0.089 0.013 0.040 0.031 0.139 0.039 0.221 0.018 0.175 0.031 0.209 0.077 0.198 0.031-0.010 0.031-0.006 0.010 0.046s-0.020 0.062 0.008 0.123c0.032 0.073 0.037 0.156 0.023 0.427-0.006 0.129-0.003 0.167 0.014 0.182s0.020 0.043 0.012 0.116c-0.005 0.054 0 0.15 0.011 0.217 0.011 0.065 0.016 0.161 0.016 0.213-0.005 0.11 0.020 0.215 0.052 0.228 0.031 0.011 0.028 0.115-0.005 0.151-0.023 0.027-0.023 0.032 0.008 0.065 0.070 0.076 0.081 0.148 0.079 0.449-0.002 0.172 0.003 0.198 0.044 0.247 0.034 0.043 0.039 0.064 0.039 0.154 0 0.057-0.005 0.107-0.010 0.111-0.005 0.006 0.005 0.032 0.020 0.059 0.047 0.080 0.089 0.221 0.070 0.228-0.010 0.003-0.031 0.016-0.047 0.029-0.028 0.021-0.026 0.024 0.029 0.078 0.049 0.046 0.057 0.062 0.047 0.092-0.013 0.041-0.013 0.048 0.011 0.315 0.020 0.234 0.020 0.295-0.003 0.355-0.025 0.062-0.006 0.194 0.040 0.287 0.021 0.043 0.034 0.084 0.029 0.094-0.005 0.008-0.012 0.073-0.015 0.143-0.005 0.070-0.016 0.151-0.029 0.183-0.025 0.059-0.031 0.182-0.011 0.202 0.006 0.006 0.018-0.014 0.028-0.049 0.028-0.091 0.029 0.045 0.010 0.68-0.006 0.206-0.006 0.392 0 0.413 0.008 0.022 0.006 0.119-0.005 0.228-0.016 0.166-0.016 0.194 0.005 0.241 0.021 0.045 0.021 0.059 0.003 0.092-0.011 0.021-0.020 0.070-0.021 0.108 0 0.040-0.013 0.091-0.029 0.119-0.018 0.032-0.037 0.111-0.049 0.22-0.018 0.169-0.018 0.174 0.013 0.22 0.040 0.056 0.044 0.111 0.010 0.185-0.016 0.037-0.021 0.073-0.015 0.113 0.018 0.107 0.013 0.139-0.026 0.174-0.037 0.032-0.039 0.043-0.031 0.124 0.010 0.097 0 0.121-0.099 0.234-0.037 0.043-0.068 0.062-0.096 0.062-0.066 0-0.078 0.024-0.068 0.147 0.010 0.104 0.006 0.111-0.032 0.154-0.023 0.026-0.070 0.057-0.102 0.073-0.052 0.024-0.065 0.040-0.093 0.124-0.037 0.116-0.040 0.191-0.006 0.22 0.028 0.024 0.099 0.162 0.099 0.194 0 0.013-0.014 0.041-0.031 0.064-0.040 0.053-0.039 0.099 0.002 0.129 0.029 0.021 0.032 0.035 0.028 0.151-0.005 0.115-0.011 0.132-0.051 0.174-0.040 0.045-0.042 0.051-0.025 0.102 0.026 0.073 0.007 0.186-0.042 0.261-0.034 0.053-0.037 0.067-0.023 0.116 0.011 0.035 0.013 0.064 0.002 0.083-0.009 0.019-0.009 0.056 0.002 0.104l0.016 0.076-0.083 0.088-0.083 0.089 0.020 0.080c0.012 0.045 0.021 0.127 0.021 0.186 0 0.097-0.003 0.11-0.039 0.134-0.029 0.019-0.036 0.035-0.029 0.068 0.005 0.024 0 0.086-0.010 0.139-0.011 0.051-0.020 0.121-0.023 0.154s-0.017 0.075-0.032 0.094c-0.021 0.024-0.029 0.057-0.029 0.131 0 0.089-0.005 0.107-0.047 0.156-0.047 0.054-0.048 0.061-0.050 0.213 0 0.088-0.007 0.178-0.016 0.201-0.010 0.027-0.011 0.062-0.002 0.092 0.018 0.067-0.006 0.132-0.073 0.185-0.049 0.038-0.052 0.048-0.043 0.1 0.016 0.099 0.012 0.142-0.016 0.188-0.016 0.024-0.036 0.067-0.045 0.092-0.007 0.027-0.031 0.054-0.049 0.064-0.020 0.008-0.042 0.035-0.050 0.061-0.009 0.024-0.029 0.064-0.047 0.086-0.016 0.022-0.031 0.061-0.031 0.086 0 0.070-0.045 0.17-0.091 0.206-0.023 0.016-0.054 0.061-0.070 0.099s-0.048 0.113-0.073 0.167c-0.026 0.057-0.045 0.124-0.045 0.162 0 0.051-0.008 0.068-0.034 0.083-0.042 0.024-0.066 0.053-0.099 0.121-0.014 0.029-0.037 0.056-0.054 0.061-0.036 0.011-0.037 0.038-0.008 0.080 0.026 0.037 0.018 0.064-0.039 0.132-0.023 0.029-0.044 0.059-0.044 0.068s-0.018 0.041-0.040 0.072c-0.045 0.061-0.097 0.236-0.099 0.327 0 0.064-0.037 0.11-0.089 0.11-0.029 0-0.034 0.010-0.034 0.068s-0.005 0.073-0.039 0.089c-0.037 0.017-0.040 0.024-0.034 0.115 0.005 0.1 0 0.11-0.068 0.132-0.021 0.006-0.028 0.027-0.028 0.096 0 0.067-0.005 0.092-0.029 0.108-0.042 0.030-0.096 0.142-0.085 0.177 0.006 0.021-0.008 0.049-0.050 0.094-0.052 0.054-0.060 0.072-0.060 0.137 0 0.073 0 0.075-0.070 0.1l-0.070 0.027-0.005 0.086c-0.005 0.078-0.008 0.088-0.049 0.104-0.031 0.011-0.048 0.032-0.055 0.062-0.011 0.049-0.062 0.166-0.102 0.229-0.014 0.022-0.029 0.065-0.034 0.097-0.008 0.046-0.026 0.072-0.091 0.121-0.083 0.064-0.086 0.075-0.065 0.177 0.011 0.046 0.008 0.053-0.016 0.048-0.021-0.003-0.031 0.006-0.034 0.035-0.003 0.022-0.014 0.062-0.025 0.088s-0.025 0.059-0.028 0.072c-0.005 0.013-0.051 0.056-0.104 0.096l-0.099 0.072-0.003 0.107c-0.003 0.118-0.021 0.166-0.070 0.18-0.025 0.008-0.029 0.019-0.021 0.051 0.011 0.046-0.014 0.084-0.054 0.084-0.031 0-0.049 0.037-0.037 0.072 0.014 0.037-0.008 0.104-0.032 0.104-0.012 0-0.034 0.026-0.047 0.056-0.014 0.032-0.040 0.064-0.055 0.073-0.023 0.013-0.026 0.022-0.014 0.035 0.031 0.032 0.021 0.104-0.021 0.132-0.028 0.019-0.039 0.038-0.036 0.068 0.005 0.059-0.016 0.086-0.059 0.076-0.057-0.011-0.176 0.115-0.176 0.185 0 0.043-0.013 0.064-0.062 0.105-0.047 0.038-0.062 0.062-0.062 0.097 0 0.043-0.005 0.048-0.047 0.048-0.059 0-0.115 0.059-0.131 0.132-0.006 0.037-0.036 0.075-0.102 0.131-0.050 0.043-0.091 0.088-0.091 0.099s-0.010 0.026-0.020 0.032c-0.013 0.006-0.034 0.035-0.052 0.061-0.015 0.027-0.065 0.084-0.109 0.131-0.055 0.057-0.083 0.099-0.091 0.14-0.008 0.049-0.016 0.057-0.042 0.049-0.026-0.006-0.059 0.019-0.153 0.119-0.066 0.070-0.12 0.137-0.12 0.148 0 0.029-0.042 0.062-0.060 0.051-0.014-0.010-0.096 0.072-0.146 0.142-0.010 0.014-0.042 0.032-0.071 0.038-0.044 0.008-0.055 0.021-0.062 0.054-0.005 0.024-0.029 0.059-0.055 0.078-0.028 0.021-0.093 0.089-0.143 0.153-0.052 0.062-0.104 0.115-0.117 0.115s-0.034 0.017-0.047 0.040c-0.014 0.022-0.070 0.062-0.125 0.091-0.054 0.027-0.105 0.062-0.114 0.078-0.008 0.016-0.032 0.030-0.055 0.033-0.036 0.003-0.045 0.014-0.048 0.053-0.005 0.054-0.039 0.088-0.088 0.088-0.018 0-0.068 0.017-0.11 0.040s-0.098 0.040-0.128 0.040c-0.060 0-0.234 0.045-0.255 0.065-0.023 0.022-0.076 0.017-0.114-0.011zM27.365 1.648c0-0.003-0.018-0.006-0.040-0.006s-0.036 0.006-0.031 0.014c0.010 0.013 0.071 0.006 0.071-0.008z"></path>
<path d="M16.621 21.908c-0.052-0.016-0.081-0.017-0.102-0.005-0.051 0.027-0.059 0.019-0.071-0.073-0.010-0.083-0.008-0.092 0.031-0.134s0.040-0.049 0.023-0.104c-0.026-0.080-0.006-0.334 0.031-0.398 0.039-0.068 0.052-0.129 0.052-0.256 0-0.080-0.008-0.126-0.026-0.151-0.026-0.040-0.032-0.148-0.011-0.209 0.008-0.024 0.005-0.056-0.009-0.089-0.019-0.048-0.026-0.053-0.066-0.043-0.029 0.006-0.046 0.005-0.046-0.006s0.008-0.017 0.016-0.017c0.011 0 0.013-0.022 0.007-0.059-0.016-0.1-0.039-0.145-0.093-0.177-0.032-0.021-0.052-0.048-0.059-0.080-0.014-0.073-0.156-0.135-0.234-0.105-0.026 0.011-0.070 0.104-0.070 0.148 0 0.016-0.025 0.057-0.054 0.092-0.051 0.061-0.054 0.072-0.051 0.167 0.002 0.097-0.020 0.172-0.049 0.172-0.010 0-0.016 0.026-0.016 0.056 0 0.038-0.008 0.056-0.023 0.056-0.012 0-0.023-0.014-0.023-0.032 0-0.024-0.011-0.032-0.045-0.032-0.025 0-0.052 0.011-0.065 0.026-0.011 0.013-0.046 0.038-0.079 0.056-0.034 0.017-0.063 0.041-0.070 0.054-0.005 0.013-0.016 0.024-0.029 0.024-0.024 0-0.028-0.045-0.006-0.080 0.011-0.019 0.006-0.026-0.028-0.032-0.032-0.006-0.052-0.029-0.081-0.096-0.029-0.065-0.055-0.096-0.101-0.119-0.058-0.032-0.060-0.035-0.055-0.108 0.005-0.068-0.032-0.174-0.058-0.169-0.005 0-0.037 0.021-0.071 0.043-0.216 0.145-0.222 0.151-0.185 0.193 0.018 0.022 0.021 0.043 0.011 0.111-0.018 0.115-0.029 0.123-0.117 0.083-0.040-0.019-0.097-0.033-0.125-0.033-0.040 0-0.070-0.016-0.12-0.064-0.037-0.035-0.073-0.064-0.080-0.064-0.029-0.002-0.13-0.166-0.13-0.213 0-0.026-0.018-0.070-0.039-0.1-0.039-0.053-0.040-0.062-0.036-0.217l0.006-0.162-0.050-0.024c-0.028-0.013-0.051-0.033-0.051-0.046-0.002-0.104-0.107-0.198-0.242-0.217-0.070-0.010-0.080-0.006-0.085 0.019-0.005 0.016 0.002 0.040 0.012 0.053 0.023 0.029 0.012 0.096-0.016 0.097-0.010 0-0.039 0.002-0.070 0.003-0.031 0.002-0.055 0.013-0.060 0.026s-0.023 0.040-0.044 0.061c-0.032 0.032-0.045 0.035-0.128 0.027-0.051-0.006-0.104-0.006-0.117 0-0.023 0.008-0.023 0.013-0.002 0.045 0.031 0.046 0.031 0.061-0.002 0.061-0.024 0-0.19-0.167-0.19-0.193 0-0.006 0.008-0.017 0.016-0.022 0.026-0.016 0.017-0.081-0.016-0.111-0.018-0.016-0.031-0.037-0.031-0.048s-0.018-0.038-0.039-0.062c-0.021-0.024-0.039-0.057-0.039-0.075s-0.014-0.037-0.032-0.043c-0.052-0.021-0.075-0.116-0.058-0.231 0.021-0.131 0.011-0.162-0.070-0.21-0.107-0.064-0.12-0.088-0.125-0.212-0.002-0.064-0.018-0.15-0.037-0.201-0.018-0.049-0.032-0.116-0.032-0.147 0-0.043-0.011-0.067-0.046-0.099-0.052-0.048-0.055-0.064-0.024-0.154 0.052-0.153 0.049-0.174-0.026-0.253-0.065-0.068-0.093-0.081-0.146-0.075-0.012 0.002-0.037-0.014-0.057-0.038-0.021-0.022-0.080-0.076-0.131-0.121-0.102-0.088-0.12-0.091-0.278-0.064-0.055 0.010-0.145 0.017-0.201 0.017-0.077 0-0.12 0.010-0.188 0.043-0.049 0.026-0.089 0.053-0.089 0.061 0 0.010-0.026 0.029-0.057 0.043-0.050 0.024-0.060 0.024-0.088 0.003-0.018-0.011-0.045-0.022-0.060-0.022s-0.043-0.010-0.062-0.019c-0.018-0.011-0.081-0.021-0.14-0.021-0.104 0-0.107-0.002-0.119-0.043-0.006-0.026-0.050-0.081-0.097-0.126-0.057-0.054-0.086-0.094-0.086-0.118 0-0.021-0.011-0.040-0.023-0.046s-0.023-0.024-0.023-0.041c0-0.017-0.011-0.032-0.023-0.032s-0.023-0.006-0.023-0.016c0-0.008-0.020-0.035-0.046-0.059-0.024-0.022-0.046-0.051-0.046-0.061s-0.020-0.024-0.045-0.029c-0.037-0.008-0.054-0.027-0.091-0.111-0.050-0.107-0.070-0.132-0.119-0.142-0.028-0.005-0.031-0.016-0.026-0.104s0.003-0.099-0.028-0.108c-0.018-0.006-0.042-0.003-0.052 0.006s-0.029 0.017-0.045 0.017c-0.039 0-0.055-0.048-0.023-0.067 0.034-0.019 0.036-0.14 0.002-0.239-0.014-0.043-0.021-0.111-0.018-0.166 0.005-0.084 0.007-0.094 0.043-0.104 0.032-0.008 0.034-0.011 0.012-0.022-0.015-0.006-0.028-0.024-0.028-0.038s-0.011-0.043-0.024-0.062c-0.018-0.025-0.021-0.054-0.014-0.105 0.010-0.057 0.023-0.081 0.071-0.121l0.062-0.049-0.040-0.048c-0.045-0.056-0.050-0.107-0.011-0.121 0.088-0.030 0.154-0.073 0.18-0.119 0.016-0.029 0.047-0.072 0.073-0.096 0.029-0.029 0.043-0.057 0.043-0.092 0-0.029 0.016-0.072 0.032-0.099 0.024-0.035 0.031-0.062 0.024-0.108-0.006-0.049-0.002-0.067 0.028-0.092 0.032-0.029 0.034-0.037 0.020-0.124-0.018-0.108-0.018-0.097 0.003-0.218 0.010-0.051 0.011-0.102 0.005-0.111-0.017-0.027-0.037-0.206-0.039-0.357-0.003-0.105 0.002-0.137 0.024-0.162 0.018-0.021 0.024-0.046 0.018-0.076-0.018-0.099-0.024-0.53-0.010-0.666 0.021-0.185 0.020-0.212-0.013-0.342-0.018-0.060-0.028-0.111-0.023-0.115 0.003-0.003 0.010-0.048 0.014-0.097 0.008-0.086 0.006-0.092-0.031-0.107-0.024-0.010-0.039-0.027-0.039-0.051 0-0.049-0.014-0.065-0.068-0.084-0.039-0.013-0.050-0.030-0.070-0.108-0.018-0.067-0.042-0.108-0.086-0.153-0.089-0.089-0.13-0.153-0.13-0.199 0-0.024-0.021-0.060-0.048-0.091-0.044-0.045-0.045-0.051-0.023-0.076 0.032-0.038 0.032-0.040-0.028-0.108-0.028-0.033-0.055-0.080-0.060-0.102-0.014-0.054-0.068-0.113-0.131-0.14-0.028-0.013-0.048-0.030-0.045-0.040 0.008-0.021-0.037-0.105-0.054-0.105-0.008 0-0.018 0.010-0.021 0.022-0.005 0.018-0.031 0.014-0.134-0.018-0.068-0.022-0.148-0.040-0.177-0.040-0.036 0-0.068-0.014-0.102-0.046-0.062-0.054-0.135-0.064-0.177-0.024-0.037 0.035-0.073 0.024-0.097-0.030-0.014-0.033-0.028-0.040-0.080-0.038-0.037 0-0.088-0.013-0.125-0.032-0.046-0.025-0.088-0.033-0.177-0.033-0.068 0-0.125-0.008-0.136-0.019-0.012-0.013-0.023-0.013-0.037 0-0.011 0.008-0.037 0.018-0.058 0.018-0.086 0.003-0.273 0.030-0.329 0.048-0.042 0.014-0.073 0.014-0.107 0.003-0.028-0.008-0.111-0.021-0.185-0.025-0.128-0.011-0.138-0.014-0.188-0.065-0.029-0.030-0.070-0.056-0.093-0.056-0.021-0.002-0.062-0.005-0.088-0.010-0.028-0.003-0.104-0.008-0.168-0.010-0.107-0.003-0.123-0.010-0.196-0.064-0.085-0.062-0.164-0.076-0.203-0.038-0.017 0.016-0.020 0.008-0.013-0.041 0.010-0.059 0.010-0.059-0.060-0.078-0.066-0.019-0.093-0.045-0.045-0.045 0.013 0 0.023-0.006 0.023-0.016 0-0.008-0.013-0.016-0.029-0.016s-0.037-0.011-0.048-0.024-0.039-0.024-0.060-0.024c-0.023 0-0.055-0.011-0.073-0.024-0.015-0.013-0.039-0.024-0.054-0.024s-0.029-0.010-0.034-0.022c-0.013-0.032-0.073-0.038-0.123-0.013-0.055 0.027-0.094 0.014-0.084-0.029 0.008-0.033-0.086-0.159-0.12-0.159-0.013 0-0.031-0.013-0.042-0.029-0.011-0.018-0.037-0.038-0.055-0.049-0.039-0.021-0.083-0.11-0.091-0.175-0.008-0.078-0.014-0.083-0.097-0.072-0.071 0.010-0.078 0.008-0.091-0.027-0.008-0.021-0.034-0.057-0.057-0.080-0.214-0.204-0.253-0.245-0.253-0.277 0-0.018 0.008-0.041 0.018-0.051 0.018-0.019-0.011-0.089-0.073-0.175-0.020-0.027-0.037-0.060-0.037-0.075 0-0.030-0.059-0.073-0.104-0.073s-0.071-0.053-0.059-0.11c0.006-0.033 0-0.051-0.031-0.081-0.021-0.021-0.039-0.049-0.039-0.064s-0.014-0.040-0.031-0.056c-0.018-0.016-0.031-0.048-0.031-0.072 0-0.062-0.073-0.223-0.127-0.274-0.025-0.022-0.044-0.059-0.044-0.080s-0.020-0.059-0.046-0.084c-0.031-0.030-0.046-0.062-0.046-0.091 0-0.048-0.039-0.14-0.066-0.159-0.010-0.005-0.028-0.033-0.039-0.064-0.014-0.029-0.040-0.059-0.060-0.068-0.040-0.019-0.060-0.067-0.036-0.092 0.021-0.022 0.023-0.096 0.002-0.083-0.008 0.005-0.016 0.024-0.016 0.041 0 0.045-0.037 0.029-0.043-0.018-0.003-0.021 0.005-0.046 0.018-0.056 0.036-0.027 0.034-0.116-0.002-0.207-0.018-0.043-0.037-0.092-0.042-0.108-0.005-0.014-0.032-0.041-0.062-0.061-0.050-0.030-0.052-0.035-0.039-0.089 0.016-0.076 0.003-0.252-0.025-0.323-0.013-0.030-0.029-0.159-0.039-0.287s-0.023-0.292-0.029-0.366c-0.008-0.078-0.008-0.147 0-0.162s0.014-0.068 0.014-0.121c0-0.072-0.008-0.105-0.032-0.135-0.018-0.024-0.036-0.067-0.040-0.096-0.005-0.046 0-0.059 0.040-0.096 0.048-0.041 0.060-0.086 0.034-0.135-0.008-0.016-0.008-0.072 0.002-0.139 0.008-0.061 0.014-0.174 0.013-0.248s0.010-0.191 0.021-0.258c0.021-0.104 0.021-0.153 0.008-0.314-0.013-0.139-0.013-0.206 0-0.242 0.009-0.027 0.017-0.086 0.017-0.132 0-0.067 0.008-0.089 0.039-0.119 0.028-0.027 0.039-0.054 0.039-0.099 0-0.035 0.011-0.084 0.025-0.11 0.014-0.029 0.026-0.1 0.028-0.174 0.005-0.099 0.013-0.134 0.039-0.169 0.025-0.033 0.032-0.067 0.034-0.156 0.002-0.062 0.006-0.094 0.010-0.068 0.015 0.099 0.105 0.016 0.099-0.091-0.002-0.054 0.008-0.084 0.043-0.14 0.026-0.040 0.054-0.105 0.063-0.147 0.023-0.11 0.055-0.169 0.127-0.233l0.062-0.057-0.029-0.051-0.028-0.053 0.054-0.048c0.142-0.127 0.14-0.126 0.136-0.191-0.002-0.043 0.008-0.076 0.031-0.11 0.020-0.027 0.034-0.070 0.034-0.102 0-0.045 0.011-0.064 0.062-0.105 0.034-0.027 0.066-0.067 0.071-0.088 0.006-0.026 0.028-0.045 0.060-0.056 0.054-0.018 0.073-0.048 0.060-0.086-0.005-0.013 0.005-0.037 0.020-0.053s0.048-0.056 0.073-0.088c0.023-0.033 0.055-0.064 0.071-0.068s0.054-0.048 0.086-0.096c0.052-0.081 0.060-0.088 0.117-0.088 0.055 0 0.060-0.003 0.051-0.038-0.006-0.026-0.002-0.040 0.018-0.046 0.014-0.006 0.023-0.026 0.021-0.046s-0.002-0.051 0-0.068c0.002-0.029 0.005-0.027 0.021 0.008 0.018 0.037 0.028 0.040 0.123 0.038 0.063 0 0.104 0.006 0.105 0.016s0 0.094 0 0.186c0.002 0.175-0.016 0.237-0.073 0.287-0.042 0.035-0.068 0.118-0.068 0.212 0 0.070-0.006 0.091-0.029 0.103-0.025 0.014-0.029 0.041-0.036 0.164-0.006 0.097-0.018 0.166-0.036 0.201-0.017 0.035-0.026 0.086-0.025 0.147 0 0.067-0.006 0.103-0.028 0.129-0.023 0.030-0.026 0.057-0.020 0.198 0.006 0.127 0.002 0.172-0.018 0.21-0.040 0.081-0.050 0.241-0.034 0.586 0.006 0.123 0.013 0.274 0.014 0.335 0.002 0.062 0.011 0.123 0.018 0.135 0.029 0.048 0.068 0.185 0.070 0.244 0 0.038 0.008 0.064 0.023 0.070 0.039 0.014 0.070 0.092 0.070 0.172s0.020 0.129 0.119 0.277c0.063 0.097 0.066 0.105 0.063 0.207-0.005 0.089 0 0.113 0.029 0.151 0.026 0.033 0.036 0.067 0.036 0.121 0 0.046 0.010 0.083 0.021 0.096 0.013 0.010 0.031 0.043 0.040 0.073 0.010 0.029 0.039 0.068 0.065 0.088 0.042 0.032 0.045 0.040 0.037 0.1-0.009 0.062-0.006 0.068 0.078 0.156 0.068 0.072 0.086 0.104 0.089 0.15 0.005 0.045 0.020 0.070 0.068 0.116 0.073 0.067 0.157 0.201 0.157 0.25 0 0.022 0.013 0.038 0.032 0.043 0.023 0.006 0.029 0.018 0.021 0.041-0.010 0.032 0.071 0.137 0.219 0.282 0.037 0.037 0.066 0.073 0.066 0.083s0.018 0.032 0.041 0.046c0.052 0.035 0.112 0.102 0.112 0.127 0 0.010 0.028 0.043 0.060 0.072 0.034 0.029 0.070 0.073 0.080 0.097 0.011 0.026 0.036 0.048 0.059 0.053 0.083 0.018 0.176 0.059 0.2 0.089 0.014 0.016 0.052 0.059 0.086 0.094l0.060 0.064 0.297-0.010 0.085 0.067c0.074 0.059 0.086 0.064 0.11 0.043 0.029-0.027 0.075-0.029 0.075-0.002 0.002 0.043 0.097 0.127 0.161 0.142 0.146 0.033 0.145 0.033 0.196-0.010 0.065-0.057 0.085-0.053 0.117 0.026 0.018 0.041 0.020 0.041 0.135 0.033l0.115-0.010 0.068 0.118 0.143-0.008c0.139-0.008 0.143-0.006 0.177 0.033 0.034 0.041 0.036 0.041 0.2 0.030 0.089-0.005 0.199-0.014 0.242-0.019 0.070-0.010 0.085-0.005 0.114 0.026 0.032 0.033 0.039 0.035 0.173 0.018 0.096-0.011 0.149-0.011 0.17 0 0.041 0.024 0.19 0.002 0.234-0.035 0.020-0.018 0.054-0.030 0.075-0.030s0.058-0.010 0.084-0.022c0.023-0.013 0.12-0.032 0.213-0.041 0.094-0.011 0.18-0.029 0.193-0.040 0.012-0.013 0.081-0.045 0.154-0.072 0.104-0.040 0.145-0.048 0.198-0.040 0.045 0.006 0.065 0.005 0.065-0.010 0-0.029 0.128-0.14 0.164-0.142 0.018 0 0.050-0.013 0.070-0.029s0.049-0.033 0.063-0.040c0.014-0.005 0.028-0.026 0.031-0.046 0.003-0.024 0.018-0.038 0.040-0.041 0.020-0.003 0.042-0.022 0.049-0.043s0.031-0.049 0.052-0.064c0.021-0.014 0.044-0.040 0.048-0.057 0.018-0.059 0.052-0.078 0.115-0.068 0.051 0.008 0.062 0.005 0.079-0.027 0.011-0.021 0.029-0.046 0.044-0.057 0.034-0.027 0.174-0.068 0.231-0.068 0.029 0 0.058-0.013 0.076-0.033 0.065-0.080 0.122-0.099 0.276-0.096 0.094 0.002 0.154-0.003 0.169-0.016 0.016-0.013 0.063-0.016 0.162-0.008 0.137 0.011 0.141 0.010 0.192-0.033 0.143-0.119 0.145-0.121 0.266-0.064 0.024 0.011 0.046 0.011 0.073-0.002 0.023-0.011 0.042-0.013 0.046-0.003 0.018 0.032 0.108 0.016 0.151-0.024 0.023-0.022 0.042-0.048 0.042-0.054 0-0.008 0.043-0.029 0.096-0.049 0.080-0.030 0.104-0.033 0.151-0.018 0.032 0.010 0.071 0.018 0.088 0.018 0.036 0 0.075-0.041 0.085-0.088 0.003-0.021 0.016-0.030 0.036-0.027 0.128 0.024 0.14 0.022 0.19-0.021 0.026-0.022 0.052-0.056 0.057-0.072 0.010-0.032 0.018-0.033 0.193-0.035 0.029 0 0.102 0.010 0.159 0.019 0.079 0.014 0.116 0.016 0.144 0.002 0.052-0.024 0.171-0.022 0.255 0.003 0.052 0.018 0.097 0.019 0.184 0.006l0.115-0.014 0.046 0.056c0.047 0.056 0.050 0.056 0.143 0.048 0.104-0.010 0.094-0.018 0.135 0.102 0.005 0.014 0.018 0.013 0.055-0.006 0.074-0.038 0.184-0.019 0.262 0.046 0.059 0.048 0.071 0.053 0.162 0.049 0.097-0.005 0.099-0.003 0.133 0.049 0.040 0.062 0.119 0.099 0.203 0.091 0.047-0.003 0.066 0.003 0.094 0.037 0.020 0.021 0.036 0.053 0.034 0.068-0.002 0.021 0.016 0.030 0.073 0.038 0.048 0.008 0.089 0.027 0.116 0.053 0.023 0.022 0.049 0.041 0.060 0.041s0.031 0.016 0.050 0.035l0.031 0.035 0.047-0.037c0.034-0.026 0.065-0.033 0.105-0.030l0.057 0.005 0.002 0.080c0 0.045 0.002 0.084 0.003 0.091s0.039-0.002 0.080-0.019c0.043-0.018 0.097-0.032 0.119-0.032 0.054 0 0.172 0.072 0.229 0.14l0.048 0.057 0.055-0.045c0.032-0.026 0.066-0.041 0.080-0.035 0.026 0.010 0.031 0.035 0.008 0.049-0.029 0.019 0.016 0.056 0.070 0.056 0.055 0 0.154 0.038 0.17 0.065 0.008 0.011 0.036 0.014 0.078 0.006 0.068-0.010 0.070-0.010 0.091 0.046 0.017 0.040 0.036 0.057 0.068 0.065 0.025 0.005 0.054 0.021 0.065 0.033s0.037 0.022 0.060 0.022c0.034 0 0.047 0.010 0.060 0.049 0.028 0.084 0.255 0.349 0.301 0.349 0.023 0 0.062 0.043 0.075 0.084 0.006 0.016 0.031 0.037 0.057 0.045 0.034 0.013 0.047 0.030 0.055 0.072 0.008 0.040 0.016 0.054 0.040 0.054 0.020 0 0.037 0.018 0.047 0.048 0.018 0.051 0.080 0.080 0.173 0.080 0.026 0 0.065 0.013 0.085 0.027 0.044 0.032 0.226 0.1 0.266 0.1 0.015 0 0.037 0.021 0.051 0.046 0.026 0.056 0.055 0.067 0.179 0.073 0.104 0.005 0.13 0.021 0.142 0.086l0.010 0.046 0.136-0.030c0.074-0.016 0.177-0.029 0.227-0.030s0.146-0.011 0.214-0.025c0.086-0.019 0.172-0.024 0.291-0.019 0.153 0.006 0.239-0.005 0.321-0.040 0.012-0.005 0.045-0.011 0.070-0.014 0.039-0.005 0.047-0.013 0.051-0.053 0.006-0.057 0.025-0.072 0.093-0.072 0.037 0 0.050 0.006 0.050 0.029 0 0.018 0.009 0.011 0.025-0.021 0.042-0.083 0.068-0.104 0.135-0.104s0.137-0.049 0.184-0.129c0.023-0.040 0.032-0.043 0.066-0.030 0.060 0.024 0.115 0.019 0.127-0.008 0.013-0.041 0.143-0.099 0.242-0.108 0.104-0.011 0.149-0.043 0.119-0.081-0.016-0.019-0.011-0.032 0.032-0.072 0.028-0.027 0.080-0.064 0.118-0.081 0.041-0.021 0.065-0.043 0.065-0.061s0.026-0.057 0.059-0.092c0.032-0.033 0.066-0.073 0.073-0.086s0.028-0.032 0.045-0.041c0.016-0.010 0.034-0.040 0.039-0.068 0.005-0.030 0.023-0.061 0.047-0.078 0.050-0.033 0.146-0.151 0.161-0.193 0.005-0.016 0.029-0.038 0.055-0.049 0.039-0.018 0.050-0.016 0.074 0.006 0.014 0.014 0.036 0.026 0.045 0.026 0.023 0 0.023-0.053 0-0.076-0.020-0.021 0.010-0.067 0.043-0.067 0.013 0 0.021-0.014 0.021-0.032 0-0.019 0.018-0.041 0.047-0.056 0.026-0.014 0.047-0.032 0.047-0.041 0-0.045 0.066-0.105 0.24-0.221 0.036-0.024 0.052-0.049 0.059-0.094 0.008-0.056 0.040-0.094 0.13-0.153 0.002-0.002 0.006-0.032 0.010-0.067s0.018-0.083 0.032-0.107c0.019-0.029 0.023-0.057 0.017-0.096-0.008-0.040-0.002-0.072 0.021-0.116 0.016-0.033 0.031-0.068 0.031-0.078s0.014-0.037 0.031-0.059c0.018-0.022 0.040-0.065 0.049-0.094s0.034-0.072 0.054-0.096c0.040-0.043 0.042-0.084 0.012-0.207-0.009-0.037-0.005-0.046 0.025-0.059 0.028-0.010 0.045-0.038 0.065-0.104 0.014-0.049 0.026-0.099 0.026-0.11s0.021-0.051 0.048-0.088l0.047-0.067-0.017-0.119c-0.009-0.067-0.028-0.14-0.039-0.164-0.023-0.046-0.021-0.048 0.047-0.091 0.036-0.022 0.055-0.127 0.045-0.247-0.009-0.097-0.006-0.107 0.031-0.142 0.039-0.040 0.051-0.088 0.026-0.127-0.014-0.022 0.016-0.172 0.047-0.236 0.012-0.027 0.010-0.045-0.015-0.088-0.017-0.029-0.037-0.091-0.044-0.137-0.008-0.068-0.005-0.089 0.016-0.115 0.025-0.029 0.026-0.038 0.002-0.159-0.032-0.166-0.032-0.339-0.002-0.366 0.029-0.026 0.016-0.048-0.032-0.048-0.037 0-0.037-0.002-0.028-0.108 0.008-0.088 0.006-0.111-0.015-0.129-0.014-0.011-0.025-0.045-0.025-0.072 0-0.033-0.014-0.064-0.045-0.094-0.039-0.037-0.045-0.053-0.037-0.103 0.005-0.032 0.021-0.086 0.037-0.119 0.036-0.072 0.028-0.111-0.025-0.135-0.047-0.022-0.050-0.067-0.008-0.107 0.039-0.038 0.039-0.049-0.011-0.075-0.063-0.032-0.114-0.145-0.104-0.226 0.006-0.035 0.016-0.078 0.025-0.092 0.009-0.021 0.002-0.038-0.036-0.072-0.042-0.040-0.046-0.053-0.040-0.107 0.005-0.033 0.014-0.067 0.021-0.073 0.006-0.006 0.059-0.005 0.115 0.003 0.102 0.016 0.105 0.018 0.145 0.088 0.026 0.048 0.046 0.068 0.063 0.062 0.073-0.029 0.096-0.026 0.169 0.024 0.041 0.029 0.078 0.054 0.083 0.057 0.005 0.005-0.005 0.014-0.020 0.022-0.031 0.019-0.036 0.086-0.006 0.105 0.010 0.006 0.040 0.021 0.065 0.029 0.029 0.010 0.048 0.027 0.048 0.048 0.002 0.018 0.003 0.045 0.005 0.060s0.011 0.027 0.023 0.027c0.036 0 0.086 0.083 0.076 0.129-0.006 0.032 0.005 0.051 0.047 0.091 0.031 0.027 0.065 0.046 0.078 0.041 0.014-0.006 0.023 0.013 0.029 0.064 0.016 0.116 0.089 0.248 0.172 0.309 0.045 0.033 0.074 0.068 0.078 0.096 0.005 0.024 0.016 0.076 0.025 0.119 0.012 0.054 0.012 0.081 0 0.097-0.021 0.024 0.032 0.081 0.083 0.092 0.018 0.005 0.028 0.016 0.023 0.030-0.021 0.065-0.005 0.207 0.037 0.292 0.031 0.062 0.039 0.102 0.034 0.129-0.011 0.043 0.034 0.169 0.066 0.19 0.028 0.019 0.020 0.099-0.014 0.129-0.028 0.025-0.031 0.043-0.021 0.158 0.005 0.072 0.018 0.164 0.032 0.207 0.013 0.053 0.018 0.104 0.012 0.15-0.008 0.059-0.005 0.076 0.023 0.107 0.039 0.043 0.065 0.215 0.032 0.215-0.014 0-0.016 0.018-0.011 0.061 0.011 0.072 0.029 0.288 0.026 0.322-0.016 0.212-0.016 0.335 0 0.387 0.016 0.056 0.016 0.062-0.014 0.084-0.028 0.019-0.034 0.040-0.034 0.104 0 0.091-0.015 0.129-0.081 0.201-0.044 0.048-0.045 0.056-0.034 0.135 0.016 0.132 0.010 0.248-0.025 0.333-0.016 0.045-0.029 0.097-0.029 0.119s-0.015 0.061-0.034 0.088c-0.040 0.056-0.047 0.148-0.014 0.21 0.023 0.045 0.026 0.037-0.055 0.151-0.026 0.038-0.037 0.124-0.037 0.293 0 0.073-0.006 0.092-0.028 0.1-0.023 0.006-0.029 0.032-0.037 0.127-0.006 0.065-0.020 0.143-0.032 0.172-0.016 0.045-0.016 0.062 0 0.105 0.021 0.053 0.010 0.121-0.029 0.153-0.059 0.048-0.088 0.139-0.088 0.263 0 0.113-0.005 0.131-0.041 0.178-0.023 0.029-0.052 0.057-0.060 0.064-0.012 0.010-0.014 0.032-0.006 0.072 0.008 0.033 0.010 0.1 0.003 0.148-0.011 0.084-0.012 0.088-0.073 0.105-0.066 0.019-0.070 0.027-0.036 0.137 0.013 0.048 0.012 0.065-0.006 0.096-0.013 0.021-0.028 0.062-0.034 0.096-0.005 0.032-0.020 0.060-0.031 0.065-0.013 0.005-0.026 0.033-0.032 0.062s-0.031 0.081-0.055 0.115c-0.025 0.035-0.045 0.076-0.045 0.092 0 0.046-0.039 0.116-0.114 0.202-0.068 0.078-0.113 0.178-0.094 0.207 0.012 0.021-0.028 0.116-0.060 0.143-0.013 0.013-0.037 0.048-0.049 0.080-0.012 0.030-0.032 0.067-0.045 0.080-0.089 0.099-0.102 0.123-0.094 0.162 0.006 0.032-0.003 0.053-0.039 0.088-0.059 0.057-0.128 0.172-0.151 0.247-0.021 0.070-0.049 0.097-0.142 0.132-0.078 0.029-0.127 0.075-0.149 0.139-0.011 0.029-0.052 0.059-0.145 0.107-0.070 0.037-0.141 0.067-0.156 0.067-0.036 0-0.112 0.043-0.168 0.092-0.025 0.024-0.068 0.041-0.111 0.046-0.039 0.005-0.071 0.016-0.071 0.022 0 0.008-0.011 0.014-0.023 0.014s-0.057 0.032-0.101 0.072c-0.043 0.040-0.086 0.073-0.097 0.073-0.011 0.002-0.047 0.005-0.078 0.006-0.057 0.003-0.097 0.033-0.143 0.107-0.023 0.037-0.156 0.076-0.2 0.060-0.062-0.024-0.096-0.019-0.106 0.018-0.010 0.027-0.019 0.032-0.052 0.024-0.161-0.038-0.204-0.027-0.204 0.056 0 0.032-0.012 0.054-0.039 0.073-0.039 0.025-0.042 0.025-0.060 0-0.020-0.029-0.054-0.037-0.054-0.011 0 0.032-0.143 0.127-0.193 0.127-0.028 0-0.066 0.013-0.086 0.029s-0.119 0.067-0.218 0.115c-0.101 0.048-0.182 0.094-0.182 0.104 0 0.008-0.045 0.065-0.1 0.124-0.054 0.060-0.112 0.137-0.127 0.17-0.029 0.065-0.062 0.084-0.104 0.060-0.018-0.011-0.028-0.008-0.034 0.011-0.006 0.014-0.029 0.035-0.054 0.049-0.036 0.019-0.045 0.033-0.045 0.078 0 0.029-0.010 0.064-0.021 0.076-0.016 0.016-0.016 0.029-0.006 0.040 0.021 0.022-0.029 0.099-0.068 0.099-0.017 0-0.040 0.021-0.055 0.049-0.014 0.027-0.055 0.086-0.091 0.131-0.042 0.049-0.066 0.097-0.066 0.123s-0.016 0.059-0.043 0.084c-0.104 0.104-0.135 0.244-0.070 0.317 0.028 0.032 0.028 0.029-0.047 0.172-0.055 0.104-0.071 0.253-0.074 0.755-0.005 0.441-0.008 0.497-0.031 0.529-0.032 0.041-0.034 0.091-0.010 0.217 0.018 0.092 0.018 0.094-0.025 0.135-0.045 0.043-0.045 0.038-0.016 0.182 0.008 0.035 0 0.049-0.045 0.084-0.063 0.049-0.088 0.111-0.088 0.213 0 0.043-0.010 0.083-0.025 0.1-0.028 0.032-0.036 0.198-0.011 0.245 0.010 0.017 0.021 0.073 0.026 0.123 0.011 0.086 0.010 0.091-0.025 0.096-0.050 0.006-0.062 0.094-0.040 0.279 0.016 0.147 0.016 0.148-0.023 0.202-0.021 0.029-0.045 0.072-0.052 0.096-0.005 0.024-0.023 0.053-0.039 0.062-0.016 0.011-0.029 0.030-0.029 0.043s-0.025 0.056-0.054 0.094c-0.034 0.043-0.054 0.088-0.054 0.115 0 0.037-0.011 0.051-0.052 0.068-0.028 0.013-0.071 0.048-0.096 0.080s-0.066 0.072-0.094 0.089c-0.028 0.016-0.054 0.048-0.060 0.070-0.008 0.035-0.018 0.041-0.070 0.041-0.089 0-0.165 0.038-0.188 0.094-0.016 0.041-0.021 0.045-0.049 0.024-0.016-0.013-0.039-0.022-0.050-0.022-0.012 0-0.041-0.016-0.066-0.035s-0.048-0.032-0.052-0.027c-0.086 0.126-0.086 0.126-0.171 0.126-0.049 0-0.111-0.013-0.153-0.032-0.063-0.029-0.082-0.030-0.177-0.016-0.057 0.011-0.136 0.021-0.174 0.024-0.070 0.005-0.113 0.019-0.278 0.088-0.046 0.019-0.105 0.040-0.131 0.046-0.028 0.006-0.054 0.027-0.065 0.053-0.025 0.053-0.136 0.156-0.168 0.156-0.060 0-0.237 0.234-0.238 0.315 0 0.011-0.014 0.040-0.029 0.064-0.029 0.040-0.029 0.049-0.008 0.153 0.018 0.088 0.018 0.113 0.003 0.134-0.032 0.038-0.054 0.153-0.039 0.204 0.007 0.026 0.013 0.118 0.013 0.204l0.002 0.158-0.047 0.038c-0.026 0.022-0.048 0.053-0.048 0.068s-0.006 0.035-0.016 0.040c-0.007 0.005-0.015 0.070-0.015 0.143 0 0.142-0.031 0.247-0.074 0.247-0.016 0-0.020 0.019-0.012 0.092 0.031 0.319 0.032 0.296-0.020 0.357-0.026 0.030-0.044 0.061-0.039 0.065s0.011 0.029 0.012 0.054c0.003 0.024 0.008 0.054 0.011 0.067 0.010 0.033-0.043 0.040-0.073 0.010-0.013-0.014-0.037-0.024-0.051-0.021-0.020 0.005-0.025 0.026-0.023 0.124 0.002 0.065 0.003 0.143 0.006 0.172 0.003 0.035-0.006 0.062-0.028 0.088-0.018 0.021-0.034 0.053-0.034 0.072s-0.021 0.059-0.047 0.089c-0.041 0.049-0.047 0.062-0.037 0.123 0.011 0.062 0.008 0.070-0.041 0.111-0.045 0.038-0.052 0.053-0.050 0.113 0.002 0.037 0.006 0.094 0.012 0.127 0.010 0.049 0.006 0.059-0.021 0.068-0.018 0.005-0.047 0.005-0.065 0-0.021-0.008-0.029-0.005-0.028 0.011 0.010 0.049-0.020 0.089-0.088 0.116-0.093 0.037-0.161 0.097-0.161 0.143 0 0.051-0.012 0.056-0.097 0.029zM15.954 17.792c0.034-0.010 0.073-0.027 0.085-0.038s0.044-0.027 0.066-0.032c0.029-0.008 0.040-0.019 0.036-0.038-0.023-0.088-0.023-0.118-0.002-0.17 0.012-0.032 0.023-0.081 0.023-0.111 0-0.041-0.006-0.053-0.034-0.057-0.026-0.003-0.034-0.013-0.029-0.037 0.003-0.017 0.006-0.1 0.008-0.183 0-0.083 0.005-0.154 0.010-0.159s0.018-0.054 0.029-0.111c0.010-0.057 0.021-0.121 0.026-0.143 0.006-0.027-0.002-0.054-0.021-0.080-0.025-0.032-0.028-0.046-0.014-0.076 0.014-0.029 0.011-0.049-0.011-0.091-0.028-0.053-0.028-0.097-0.002-0.193 0.007-0.026-0.005-0.049-0.052-0.097-0.043-0.043-0.066-0.083-0.073-0.126-0.006-0.033-0.020-0.078-0.032-0.097s-0.021-0.065-0.021-0.102c0-0.048-0.011-0.080-0.042-0.116-0.021-0.027-0.046-0.048-0.055-0.045-0.031 0.010-0.074-0.018-0.096-0.062-0.013-0.027-0.047-0.057-0.081-0.070-0.037-0.016-0.070-0.046-0.091-0.086-0.040-0.073-0.079-0.073-0.13 0-0.020 0.030-0.045 0.046-0.070 0.046-0.073 0-0.161 0.067-0.161 0.121 0 0.019-0.037 0.092-0.081 0.162-0.052 0.076-0.088 0.153-0.096 0.196-0.017 0.092-0.013 0.245 0.006 0.282s-0.005 0.067-0.052 0.067c-0.073 0-0.086 0.054-0.037 0.166 0.034 0.081 0.036 0.164 0 0.156-0.011-0.003-0.037 0.010-0.055 0.029-0.031 0.030-0.034 0.046-0.031 0.183 0.003 0.127 0 0.15-0.021 0.15-0.148 0.005-0.148 0.005-0.146 0.073 0.005 0.118 0.023 0.218 0.045 0.252 0.013 0.019 0.023 0.046 0.023 0.061s0.028 0.065 0.062 0.111c0.034 0.048 0.062 0.094 0.062 0.105 0 0.062 0.216 0.053 0.355-0.016 0.107-0.053 0.128-0.054 0.162-0.002 0.021 0.035 0.034 0.040 0.078 0.032 0.045-0.010 0.055-0.005 0.071 0.026 0.026 0.053 0.043 0.061 0.123 0.061 0.046 0 0.079 0.010 0.093 0.026 0.020 0.026 0.068 0.051 0.099 0.053 0.009 0.002 0.043-0.006 0.077-0.016zM14.91 17.685c0.005-0.014-0.003-0.021-0.021-0.016-0.014 0.002-0.029 0.014-0.034 0.026-0.005 0.014 0.003 0.021 0.021 0.016 0.014-0.002 0.029-0.014 0.034-0.026zM13.347 16.43c0.042-0.046 0.096-0.053 0.182-0.024 0.082 0.029 0.148 0.010 0.159-0.043 0.024-0.119 0.034-0.131 0.102-0.131 0.070 0 0.089-0.016 0.131-0.107 0.023-0.054 0.057-0.099 0.083-0.115 0.039-0.022 0.045-0.035 0.045-0.097-0.002-0.040-0.011-0.086-0.023-0.102-0.012-0.018-0.023-0.048-0.023-0.068s-0.011-0.059-0.023-0.084c-0.018-0.032-0.023-0.088-0.021-0.17 0.002-0.088-0.005-0.139-0.023-0.172-0.014-0.025-0.024-0.056-0.024-0.067s-0.024-0.038-0.054-0.062c-0.034-0.025-0.060-0.065-0.073-0.104-0.011-0.041-0.026-0.062-0.045-0.062-0.014 0-0.066-0.016-0.114-0.035-0.096-0.037-0.13-0.076-0.093-0.108 0.036-0.030 0.028-0.072-0.016-0.092-0.021-0.010-0.039-0.029-0.039-0.041s-0.015-0.025-0.036-0.032c-0.021-0.005-0.045-0.030-0.058-0.060-0.014-0.033-0.034-0.054-0.057-0.057-0.020-0.003-0.043-0.024-0.052-0.045-0.012-0.027-0.026-0.037-0.041-0.029-0.014 0.006-0.040 0.014-0.058 0.018-0.032 0.008-0.036 0.002-0.036-0.049 0-0.041 0.006-0.057 0.023-0.057 0.028 0-0.042-0.065-0.139-0.132-0.073-0.051-0.107-0.053-0.236-0.011-0.054 0.018-0.122 0.032-0.151 0.032-0.073 0-0.14 0.033-0.213 0.102-0.032 0.032-0.065 0.057-0.073 0.057s-0.042 0.025-0.074 0.057c-0.034 0.030-0.073 0.054-0.088 0.051s-0.029 0.006-0.031 0.019c-0.032 0.239-0.060 0.342-0.109 0.401-0.032 0.041-0.052 0.081-0.052 0.111 0 0.033-0.009 0.049-0.028 0.056-0.024 0.006-0.032 0.033-0.047 0.156-0.010 0.083-0.026 0.169-0.036 0.193-0.018 0.040-0.016 0.046 0.039 0.092 0.052 0.045 0.057 0.057 0.057 0.123 0 0.076 0.013 0.094 0.077 0.094 0.018 0 0.029 0.016 0.036 0.045 0.005 0.024 0.021 0.059 0.037 0.078 0.016 0.021 0.040 0.054 0.054 0.075 0.020 0.027 0.042 0.038 0.073 0.038 0.029-0.002 0.063 0.013 0.089 0.037 0.023 0.022 0.060 0.049 0.085 0.062s0.046 0.040 0.051 0.062c0.016 0.076 0.020 0.081 0.066 0.081 0.024 0 0.051 0.008 0.057 0.017 0.006 0.011 0.039 0.014 0.093 0.006 0.070-0.008 0.091-0.005 0.128 0.022 0.060 0.045 0.176 0.045 0.245 0.002 0.065-0.041 0.096-0.040 0.096 0s0.073 0.11 0.112 0.111c0.016 0 0.045-0.019 0.065-0.041zM17.75 16.342c0.102-0.032 0.24-0.040 0.278-0.016 0.014 0.010 0.047 0.003 0.093-0.017 0.146-0.068 0.179-0.091 0.208-0.147 0.018-0.035 0.042-0.057 0.059-0.057 0.034 0 0.093-0.029 0.108-0.054 0.006-0.010 0.012-0.040 0.012-0.065 0-0.027 0.014-0.076 0.031-0.111 0.025-0.049 0.040-0.062 0.073-0.064 0.042 0 0.044-0.002 0.039-0.083-0.005-0.072 0-0.086 0.036-0.121 0.036-0.033 0.042-0.054 0.045-0.14 0.003-0.056 0.010-0.121 0.016-0.147 0.008-0.030 0.003-0.056-0.016-0.086-0.028-0.045-0.032-0.145-0.013-0.293l0.009-0.072-0.127-0.119c-0.070-0.065-0.138-0.131-0.154-0.145-0.026-0.025-0.031-0.025-0.073 0.011-0.039 0.033-0.055 0.038-0.122 0.029-0.052-0.005-0.082-0.002-0.088 0.010-0.014 0.022-0.086 0.024-0.086 0.002 0-0.030-0.073-0.065-0.172-0.081l-0.099-0.016-0.071 0.080c-0.066 0.073-0.079 0.081-0.14 0.081-0.037 0-0.076-0.008-0.086-0.019-0.014-0.014-0.018-0.014-0.018 0.002 0 0.011-0.014 0.041-0.031 0.065-0.028 0.041-0.029 0.048-0.008 0.089 0.021 0.043 0.020 0.048-0.006 0.059-0.016 0.008-0.052 0.053-0.080 0.099-0.051 0.083-0.052 0.084-0.128 0.084-0.055 0.002-0.080 0.010-0.091 0.029-0.007 0.014-0.028 0.040-0.043 0.056-0.016 0.018-0.029 0.045-0.029 0.062 0 0.037-0.036 0.075-0.145 0.159-0.112 0.086-0.12 0.097-0.109 0.134 0.006 0.019 0.012 0.099 0.016 0.177 0.008 0.204 0.018 0.245 0.062 0.263 0.032 0.013 0.037 0.022 0.029 0.060-0.008 0.040-0.002 0.051 0.047 0.080 0.032 0.019 0.059 0.051 0.065 0.076 0.006 0.024 0.037 0.067 0.071 0.099 0.055 0.053 0.066 0.056 0.156 0.054 0.052 0 0.117 0.008 0.142 0.019 0.060 0.027 0.218 0.016 0.346-0.024zM6.154 1.4c-0.009-0.016-0.059-0.018-0.073-0.002-0.005 0.005-0.003 0.019 0.006 0.030 0.013 0.016 0.023 0.016 0.045 0.003 0.016-0.011 0.025-0.026 0.021-0.032z"></path>
<path d="M11.962 15.253c0.003-0.022 0.012-0.040 0.020-0.040s0.014 0.018 0.014 0.040c0 0.022-0.010 0.040-0.021 0.040-0.013 0-0.018-0.013-0.012-0.040z"></path>
<path d="M6.648 10.552c0.005-0.014 0.010-0.029 0.010-0.032 0-0.005 0.007-0.003 0.015 0.002 0.025 0.016 0.018 0.056-0.010 0.056-0.017 0-0.021-0.008-0.015-0.025z"></path>
</svg>
