<!-- Generated by IcoMoon.io -->
<svg version="1.1" xmlns="http://www.w3.org/2000/svg" width="512" height="512" viewBox="0 0 512 512">
<title>monsters-of-order</title>
<g id="icomoon-ignore">
</g>
<path d="M120.688 418.72c0-6.080-1.824-11.92 0.288-14.512 13.808-16.88 8.256-33.040 3.712-51.92-4.608-19.168-19.168-34.336-19.056-55.104 0.064-4.368-7.792-10.272-13.216-12.976-14.64-7.488-30.096-13.456-44.96-20.48-5.312-2.48-9.968-6.368-20.944-13.504 19.536 0 31.92-1.232 43.952 0.288 13.984 1.776 19.888-8.32 28.032-15.568 8.848-7.84 10.496-16.048 4.432-26.896-1.824-3.248 0.704-9.968 2.944-14.272 8.144-15.632 17.936-30.496 25.376-46.496 7.968-17.168 4.064-24.256-14.752-32.448-8.912-3.888-12.736-14.688-9.68-27.376 2.304-9.616 10.144-6.96 16.288-7.024 15.872-0.24 15.872 0.064 17.456 16.64 1.712 17.696 1.712 17.872 19.232 17.936 17.824 0.064 35.52 1.6 48.384-16.224 4.432-6.128 15.344-7.84 23.488-11.088 19.712-7.728 24.304-13.92 24.432-34.224 0-5.664-0.656-11.264-0.48-16.928 0.592-18.464 13.040-40.48 14.816-35.984 5.424 13.568 12.448 28.912 10.672 42.544-4.368 34.16-5.376 32.272 26.72 47.44 17.696 8.384 37.104 11.328 54.512 22.304 11.92 7.488 33.28 6.896 45.072-10.56 5.6-8.256 13.504-15.696 16.464-24.784 4.064-12.56 12.56-10.672 21.248-10.096 1.776 0.112 5.008 4.608 4.72 5.072-6.144 8.912-1.952 24.48-15.28 27.968-11.92 3.12-13.216 14.096-20 20.656-8.56 8.256-8.848 13.68 0.176 21.296 2.768 2.304 4.24 8.144 3.84 12.096-2.592 23.664 2.832 46.32 6.608 69.328 2.72 16.224 11.392 24.656 28.496 26.368 10.672 1.056 21.248 3.184 31.808 4.832-1.6 17.872-18.224 16.464-28.912 22.896-12.032 7.264-26.544 11.856-27.024 30.8-0.112 4.656-3.84 13.040-12.8 17.52-13.104 6.608-17.408 26.368-8.496 37.344 8.672 10.672 10.736 27.792 28.080 31.328 3.424 0.704 6.192 6.080 8.496 9.792 0.832 1.296-0.112 4.608-1.296 6.016-1.184 1.36-3.888 2.176-5.776 1.952-1.952-0.24-4.432-1.536-5.488-3.12-8.608-13.152-22.832-17.232-36.4-21.248-11.92-3.536-26.784-14.928-33.632 8.080-1.12 3.84-8.784 6.608-13.984 8.144-18.816 5.552-38.048 9.792-56.752 15.76-5.664 1.824-14.224 7.616-14.272 11.744-0.176 15.104-7.728 32.096 5.488 45.072 8.848 8.672 7.376 14.864-0.88 22.304-3.072 2.768-3.664 8.432-6.784 11.040-2.416 1.952-10.144 1.824-10.272 1.408-2.416-10.032-14.752-17.584-6.32-30.736 3.776-5.904 2.944-14.864 4.016-22.48 2.304-16.048-7.264-25.136-19.936-31.44-6.784-3.36-14.816-7.376-21.712-6.544-19.584 2.368-31.808-7.664-43.072-21.056-6.080-7.312-11.616-7.488-19.936-1.408-10.736 7.84-23.488 13.216-37.104 20.592zM412.080 260.064c1.824-41.712-14.336-74.4-36.992-103.552-26.672-34.272-67.136-46.32-106.96-46.848-30.144-0.416-62.24 6.96-88.208 29.504-36.464 31.616-59.12 69.568-59.12 117.936 0.064 41.536 18.048 76.224 47.44 105.904 27.488 27.728 63.6 33.28 98.464 42.72 82.416-10.976 145.552-66.736 145.376-145.664z"></path>
</svg>
