<!-- Generated by IcoMoon.io -->
<svg version="1.1" xmlns="http://www.w3.org/2000/svg" width="512" height="512" viewBox="0 0 512 512">
<title>monsters-of-order</title>
<g id="icomoon-ignore">
</g>
<path d="M413.472 97.92c-0.688 1.264-1.040 2.88-2.064 3.792-3.456 3.216-6.784 7.024-10.816 9.328-4.832 2.768-5.76 12.544-2.192 16.912 6.448 7.936 12.32 16.464 17.84 25.2 4.144 6.672 7.824 13.808 10.928 21.056 3.456 8.176 6.336 16.576 8.976 24.976 1.84 5.76 3.92 11.856 3.792 17.728-0.224 14.736 11.968 11.168 19.568 13.92 8.4 2.992 17.376 4.608 26.016 7.36 1.488 0.464 3.216 5.872 2.64 6.336-2.88 2.416-6.336 4.256-9.904 5.52-3.216 1.152-6.784 1.504-10.128 1.952-5.408 0.928-10.928 2.416-16.336 2.416-6.56 0-9.44 1.84-10.128 8.976-1.040 9.664-3.456 19.104-5.76 28.544-2.768 10.928-5.52 21.984-9.328 32.56-2.64 7.248-7.136 13.92-11.28 20.592-4.256 6.912-10.704 12.896-13.232 20.256-1.376 4.256 2.416 10.928 5.056 15.76 3.104 5.76 7.712 10.704 11.616 16 1.728 2.304 4.72 4.944 4.48 7.248-0.688 5.984-7.6 6.096-14.272 1.152-6.208-4.608-13.472-7.824-19.456-12.656-10.592-8.624-16 1.040-22.896 5.632-9.552 6.448-18.416 14.608-29.008 18.64-18.88 7.248-38.896 11.504-58 18.064-3.104 1.040-4.608 7.712-6.096 12.080-2.416 7.136-4.256 14.496-6.336 21.872-3.104 11.616-6.336 23.248-9.2 34.992-1.264 5.296-3.792 8.4-9.664 7.488-0.352 0-0.8-0.352-0.8-0.576-0.224-1.040 0-2.192-0.464-2.992-0.688-1.616-2.416-3.104-2.528-4.72-0.688-8.512-0.112-17.264-1.616-25.664-2.064-11.504-6.672-22.672-8.176-34.176-1.952-14.848-14.272-9.328-21.984-12.32-10.816-4.144-22.672-5.984-33.488-10.128-9.088-3.456-17.84-8.048-25.888-13.472-10.24-7.024-19.328-15.648-29.456-22.784-2.416-1.728-7.824-1.040-10.816 0.576-7.824 4.144-14.608 10.128-22.56 13.696-4.144 1.952-9.776 0.464-14.736 0.464 0.688-3.104 0.352-6.912 2.192-9.088 5.184-6.336 11.856-11.616 16.688-18.176 3.104-4.144 6.448-10.704 5.184-14.848-2.064-7.36-7.6-13.696-11.392-20.592-2.064-3.68-3.68-7.712-5.296-11.616-2.88-6.56-6.096-13.12-8.288-19.904-2.192-6.912-3.456-14.048-4.944-21.056-1.152-5.52-2.064-11.168-2.88-16.8-0.464-3.568-0.928-7.248-0.688-10.928 0.352-9.088-7.6-7.136-12.080-8.4-9.2-2.64-18.88-3.568-28.304-5.632-1.152-0.224-2.64-5.056-2.192-5.296 2.88-2.064 5.984-4.032 9.328-5.056 7.136-2.192 14.384-3.68 21.52-5.408 3.68-0.928 9.328-0.576 10.704-2.88 3.104-5.056 3.92-11.392 5.872-17.152 3.216-9.664 6.448-19.456 10.128-28.88 2.192-5.632 5.52-10.816 8.288-16.224 2.528-4.832 4.608-9.904 7.488-14.384 3.344-5.296 8.752-9.552 10.816-15.184 1.264-3.344-1.728-8.512-3.216-12.656-1.040-2.992-2.64-5.872-4.368-8.512-1.952-2.992-4.608-5.632-6.672-8.624-3.104-4.256-5.872-8.864-8.976-13.344-3.456-4.832-7.248-9.664-10.816-14.496-2.992-4.144-6.096-8.4-8.976-12.656-0.352-0.464 0.464-1.728-0.224-2.768 0.464-0.928 0.8-1.84 1.152-2.416 1.728-0.576 3.568-1.504 5.52-1.728 1.040-0.112 2.304 0.928 3.216 1.616 2.64 2.064 5.296 4.256 7.936 6.336 3.104 2.528 6.096 5.184 9.328 7.488 3.568 2.64 7.6 4.608 11.28 7.136 5.632 4.144 11.056 8.624 16.8 12.768 2.88 2.192 6.208 3.792 9.44 5.76 2.416 1.376 5.056 4.256 7.136 3.92 4.608-0.8 9.088-2.768 13.232-4.944 4.368-2.304 8.288-5.76 12.656-8.288 6.912-4.032 13.92-7.824 21.168-11.28 4.368-2.192 9.088-3.68 13.808-5.184 5.408-1.728 10.928-3.568 16.576-4.608 4.368-0.928 8.976-0.576 13.344-1.264 3.92-0.688 7.936-1.616 11.504-3.344 0.8-0.464-0.576-4.48 0.112-6.56 0.688-2.64 2.64-4.832 3.792-7.36 1.152-2.768 1.952-5.632 2.768-8.512 2.192-7.024 4.256-14.16 6.336-21.168 1.264-4.368 2.192-8.864 3.568-13.12 0.352-0.928 2.304-1.152 3.456-1.728 1.488-0.688 2.88-1.488 4.256-2.192 0.576 1.728 1.264 3.456 1.616 5.296 1.488 7.248 3.104 14.496 4.256 21.872 0.8 4.944 0.352 10.24 1.488 15.072 1.488 6.784 2.528 14.384 6.56 19.68 2.528 3.344 10.016 2.528 15.184 4.032 10.24 2.768 20.592 5.52 30.72 8.624 5.056 1.488 10.24 3.344 14.96 5.76 6.784 3.456 13.472 7.36 19.904 11.392 7.024 4.368 13.472 10.24 20.944 13.344 3.104 1.264 8.4-2.64 12.656-4.256 4.368-1.616 8.624-3.792 13.12-4.608 2.768-0.8 5.984 0.8 8.976 1.488zM87.904 308.176c0.224 0.352 0.928 1.616 1.616 2.88 7.6 13.808 13.232 29.456 23.36 41.088 14.96 17.024 32.112 32.688 50.4 46.144 20.368 14.96 44.192 23.824 70.080 24.048 19.792 0.112 39.824-0.352 59.376-3.104 11.616-1.728 22.896-7.824 33.712-13.12 10.128-4.832 19.68-10.928 29.12-17.024 6.096-3.92 11.968-8.624 17.376-13.472 4.144-3.68 7.712-8.176 11.168-12.656 7.248-9.2 15.184-18.064 21.168-28.080 5.184-8.512 8.4-18.304 11.856-27.856 3.216-8.864 6.448-17.728 8.176-26.928s1.616-18.64 2.304-27.968c0.464-5.632 1.616-11.504 1.040-17.040-0.688-7.024-2.88-13.92-4.368-20.944-1.376-6.672-1.952-13.808-4.368-20.144-2.992-8.176-7.36-16-11.392-23.712-4.032-7.6-7.824-15.424-13.008-22.32-6.56-8.752-14.16-16.912-21.872-24.736-5.184-5.296-11.28-9.776-17.264-14.16-5.408-4.032-11.168-7.6-17.024-10.928-6.336-3.68-12.544-7.712-19.456-10.016-10.352-3.344-21.296-5.296-31.872-7.824-7.36-1.728-14.736-3.68-22.208-4.832-6.336-1.040-12.768-1.952-19.104-1.488-9.904 0.8-19.68 2.304-29.344 4.368-9.776 2.192-19.456 4.944-28.88 8.288-5.52 1.952-10.128 6.096-15.424 8.864-2.88 1.488-6.784 1.376-9.328 3.344-8.048 5.984-16.112 12.192-23.248 19.216-8.176 7.936-15.424 17.040-23.248 25.44-0.464 0.576-2.64-0.464-3.104 0.112-1.952 2.192-3.68 4.608-5.184 7.136-4.144 6.912-8.4 13.696-12.080 20.944-3.104 6.096-5.872 12.544-7.936 19.104s-3.68 13.232-4.608 20.032c-2.064 14.032-4.256 28.080-5.296 42.24-0.464 6.448 1.488 13.12 2.304 19.568 0.464 3.92 0.8 7.936 1.488 11.744 1.488 7.712 3.216 15.184 5.056 23.824z"></path>
<path d="M87.104 93.888c0.112 0 0.224 0 0.352-0.112 0 0 0 0.112 0 0.112-0.112 0-0.224 0-0.352 0.112 0.112 0.112 0 0 0-0.112z"></path>
<path d="M413.472 97.92c0.112 0.352 0.224 0.576 0.352 0.928 0 0-0.112 0-0.112 0-0.112-0.224-0.112-0.576-0.224-0.928z"></path>
<path d="M93.888 69.376c0 0-0.112 0-0.112-0.112 0 0 0-0.112 0.112-0.112 0 0 0.112 0 0.112 0.112 0 0 0 0-0.112 0.112z"></path>
<path d="M115.072 147.056c0.112 0.112 0.112 0.224 0.112 0.352 0 0-0.112 0.112-0.112 0.112-0.112-0.112-0.112-0.224-0.224-0.352 0.112-0.112 0.112-0.112 0.224-0.112z"></path>
<path d="M111.392 152.352c0 0 0-0.112 0-0.112s0.112 0 0.112 0c0 0.112 0 0.224 0 0.224 0-0.112 0-0.112-0.112-0.112z"></path>
</svg>
