<!-- Generated by IcoMoon.io -->
<svg version="1.1" xmlns="http://www.w3.org/2000/svg" width="512" height="512" viewBox="0 0 512 512">
<title>monsters-of-order</title>
<g id="icomoon-ignore">
</g>
<path d="M198.256 30.4c0.16-1.968 0.080-2.096-2.224-4.32-1.792-1.712-5.616-2.080-7.376-0.464-1.52 1.392-2.912 2.992-4.032 4.704-2.56 3.904-5.36 7.568-8.704 10.816-1.872 1.808-1.952 3.856-0.464 5.824 3.248 4.304 9.328 5.2 13.472 1.68 5.552-4.736 9.52-10.464 9.328-18.256zM207.44 429.264c0.032-1.712 0.112-3.44 0.096-5.136-0.080-5.216-0.24-10.416-0.24-15.632 0-2.096 0.336-4.192 0.528-6.304 0.576-6.416 1.216-12.8 1.712-19.232 0.256-3.28 1.216-6.288 2.736-9.168 1.888-3.568 3.76-4.416 7.696-3.376 1.152 0.304 2.32 0.496 3.488 0.624 0.384 0.048 0.944-0.192 1.184-0.512 1.728-2.144 3.648-4.192 5.056-6.512 2.848-4.752 5.376-9.712 8.16-14.48 0.896-1.52 2.24-2.736 3.344-4.128 0.88-1.088 1.712-2.208 2.992-3.904-3.424 0.336-5.904 0.736-7.984 2.672-0.88 0.832-1.92 2.192-3.392 0.912-0.96-0.816-0.672-2.24 0.48-3.888 5.232-7.568 10.672-15.024 15.6-22.8 3.632-5.712 6.256-11.984 8.24-18.512 1.504-4.992 2.992-9.984 4.64-14.928 0.48-1.44 1.36-2.8 2.336-3.968 1.872-2.288 4.24-2.544 7.024-0.736 1.008-3.232 1.808-6.208 2.832-9.12 2.72-7.648 2.72-15.696 3.76-23.6 0.304-2.288 1.056-4.512 1.44-6.784 0.336-2.192 0.464-4.4 0.624-6.608 0.176-2.416 1.008-4.272 3.632-4.944 1.712-0.432 1.68-0.512 3.648 1.088 1.68-3.024 3.52-5.984 4-9.376 1.088-7.68 2.48-15.344 1.92-23.168-0.144-2.080-0.304-4.224-0.928-6.192-1.296-4.176-0.944-7.76 1.344-11.712 3.968-6.848 6.304-14.384 7.52-22.256 0.592-3.808-0.912-6.912-2.784-9.92-0.4-0.624-1.472-0.88-2.288-1.168-2.24-0.832-3.76-2.224-4.208-4.704-0.16-0.896-0.832-1.712-1.296-2.544-0.336-0.576-1.008-1.072-1.072-1.648-0.464-4.208-2.080-8.080-3.392-12.048-0.672-2.080-1.008-4.256-2.080-6.256-0.624-1.152-0.864-2.496-1.312-3.744-0.256-0.72-0.4-1.552-0.88-2.096-2.096-2.48-2.416-5.44-2.304-8.464 0.096-3.184 1.632-4.848 4.832-5.376 1.312-0.224 2.64-0.24 4.24-0.4-0.944-1.808-1.616-3.488-3.568-4.464-0.976-0.512-1.52-1.824-2.304-2.736-0.88-0.992-1.808-1.936-2.944-3.168-1.808 2.672-3.68 5.072-5.152 7.712-1.36 2.432-3.040 4.384-5.584 5.44-2.208 0.928-2.864 2.432-2.48 4.736 0.4 2.416 0.512 4.848 0.736 7.248 2.288 1.328 2.752 2.272 1.536 4.464-0.944 1.68-0.944 3.28-0.896 5.088 0.144 4.56 0.176 9.12 0.032 13.664-0.048 1.488-0.384 3.264-1.248 4.4-1.376 1.76-1.408 3.584-1.504 5.6-0.080 1.632-0.192 3.456-1.008 4.784-1.328 2.208-1.712 4.464-1.76 6.944-0.080 3.776-2.016 6.576-4.704 9.152-4.4 4.24-8.416 8.848-9.856 15.088-0.144 0.624-0.352 1.264-0.576 2.080-1.952-0.128-3.152-1.168-3.776-2.784-1.264-3.264-3.936-5.072-6.736-6.784-0.944-0.576-1.856-1.152-2.8-1.68s-1.888-1.232-2.928-1.456c-4.4-0.944-8.816-0.736-13.232 0.016-0.624 0.096-1.376 0.352-1.792 0.8-1.888 2-4.288 2.112-6.784 2.080-1.664-0.016-3.328 0.112-5.008 0.128-2.832 0.064-5.456 0.512-7.584 2.704-1.696 1.744-3.92 2.496-6.336 2.528-3.584 0.048-6.704 1.6-9.6 3.392-3.472 2.144-6.896 4.448-9.36 7.872-0.688 0.944-1.824 1.6-2.752 2.384-1.536 1.28-3.056 2.56-4.608 3.824-2.448 2.032-5.024 3.92-7.328 6.144-2.688 2.608-5.136 5.488-7.712 8.224-0.448 0.48-1.008 1.136-1.552 1.184-3.808 0.336-7.712 1.2-11.28-1.2-0.976-0.672-2.192-0.992-3.168-1.616-1.264-0.832-2.592-1.664-3.616-2.768-1.696-1.808-3.488-2.8-6.080-2.736-6.56 0.16-13.12-0.032-19.664 0.032-2.544 0.032-4.624-0.416-5.6-3.12-0.208-0.576-0.896-0.944-1.36-1.424-1.696-1.68-1.712-2.096-0.496-4.192 0.304-0.512 0.352-1.184 0.56-1.792s0.24-1.488 0.656-1.76c1.968-1.248 1.536-2.992 1.152-4.736-0.56-2.592-1.024-5.216-1.808-7.744-1.264-4.048-0.672-8.16-0.672-12.24-0.016-1.76 0.8-3.392 2.304-4.624 1.088-0.896 1.968-2.064 3.312-3.504 0.528 1.408 1.12 2.432 1.328 3.536 1.024 5.664 4.24 9.888 8.576 13.44 1.824 1.488 3.696 1.712 5.872 0.832 2.64-1.040 5.376-1.872 8.496-2.928 0-2.48 0.016-5.456 0-8.432-0.016-2.096-0.016-4.064 1.216-6.048 1.008-1.632 1.104-3.808 1.664-5.712 0.352-1.264 0.784-2.528 1.216-3.792 0.512-1.52 1.712-1.968 3.168-1.856 1.376 0.128 2.304 1.024 2.512 2.304 0.24 1.536 0.288 3.104 0.192 4.656-0.208 2.816 0.256 5.488 1.072 8.16 0.352 1.152 0.368 2.4 0.512 3.6 0.192 1.648 0.832 2.928 2.976 3.584 0.304-1.136 0.672-2.128 0.832-3.136 0.352-1.968 0.496-3.968 0.912-5.92 0.736-3.488 2.128-4.016 5.104-2.24 1.216 0.736 2.576 1.216 3.872 1.792 1.584 0.704 3.136 1.136 4.416-1.056 0.624 1.408 1.072 2.384 1.6 3.6 0.624-0.224 1.248-0.448 2.304-0.832-1.968-1.76-1.856-3.584-1.36-5.6 0.528-2.144 0.736-4.384 1.152-6.56 0.304-1.648 0.576-3.328 2.288-4.176 2.992 1.392 5.92 2.784 9.008 4.224 0.576-0.384 1.168-0.784 2.032-1.36 0.464 1.184 0.896 2.256 1.36 3.456 1.344-0.144 2.528-0.784 1.376-1.968-1.568-1.616-1.104-3.2-0.88-4.944 0.32-2.512 0.624-5.056 0.896-7.584 0.192-1.696 0.512-3.296 2.192-4.544 0.672 0.384 1.424 0.784 2.144 1.216 0.48 0.288 1.040 0.96 1.376 0.864 2.944-0.88 4.48 1.696 6.704 2.784 1.68-1.68 0.608-3.408 0.416-5.056s-0.384-3.264-0.624-5.184c4.080-0.032 4.992-2.992 5.872-5.888 1.84 0.512 2.896 1.472 3.616 2.976 1.44 2.992 2.752 3.808 4.976 3.376 2.368-0.448 4.24-2.832 4.352-5.616 0.032-0.784-0.128-1.568-0.048-2.336 0.24-2.448 1.328-3.232 3.872-3.232 1.184 0 2.384-0.304 3.552-0.464 1.088-1.792 0.624-3.056-0.48-4.592-2.336-3.232-4.48-6.624-6.416-10.096-1.584-2.864-3.44-5.44-5.888-7.552-2.208-1.904-4.288-3.872-5.104-7.216-1.264 0.304-2.624 0.24-3.488 0.88-2.48 1.76-5.216 1.616-8.336 1.552-1.008-2.736-3.056-4.464-6.224-4.016-1.216 0.176-2.816 0.72-3.44 1.632-1.792 2.624-3.664 5.28-3.568 8.768 0.080 2.304-0.208 4.624-0.32 6.784-1.792 1.344-3.376 1.056-4.144-0.56-0.672-1.44-1.84-2.080-2.784-3.104-1.2-1.28-2.096-2.832-3.264-4.144-0.848-0.976-1.824-1.936-2.944-2.576-1.44-0.816-2.224-0.304-2.944 1.344-1.056 2.416-2.16 4.8-3.296 7.184-0.624 1.312-1.648 1.568-2.624 0.512-1.12-1.2-2.080-2.336-3.84-2.816-0.896-0.256-1.376-1.904-2.144-2.848-0.992-1.216-1.648-3.008-4-2.64 0.272 1.968-0.416 3.328-2.4 3.984-1.536 0.528-2 2.016-2.128 3.488-0.176 1.984-0.32 3.968-0.32 5.984 0.016 1.92-0.576 3.488-2.064 4.688-2.048 1.648-3.92 1.088-5.104-1.216-1.536-3.008-2.544-6.144-2.464-9.52 0.064-2.656-1.088-4.352-3.808-5.712-0.304 3.456-0.848 6.752-0.784 10.032 0.064 3.408-1.104 5.792-4.608 7.504-1.328-1.168-2.816-2.416-4.224-3.76-1.008-0.944-1.376-2.128-1.488-3.552-0.128-1.824-0.72-3.616-1.104-5.44-1.76 0.032-2.352 0.864-2.736 1.968-1.808 5.36-3.632 10.72-5.408 16.096-2.576 7.824-4.576 15.776-3.904 24.128 0.048 0.784-0.032 1.552-0.096 2.336-0.016 0.208-0.16 0.4-0.256 0.64-2.032 0.72-2.896-0.704-3.472-2.144-1.28-3.184-2.416-6.432-3.6-9.664-0.272-0.72-0.464-1.456-0.832-2.128-2.144-3.872-3.44-8.032-3.12-12.4 0.288-3.872-2.944-6.224-6.56-4.528-4.208 1.968-8.144 4.192-9.52 9.088-0.080 0.32-0.256 0.624-0.464 0.88-0.128 0.16-0.352 0.24-0.672 0.432-1.472-0.832-2.336-2.080-1.664-3.76 1.696-4.256 2.576-8.784 5.104-12.832 4.64-7.392 8.8-15.104 13.12-22.704 0.56-1.008 1.216-1.968 0.512-3.376-0.256-0.512 0.56-1.904 1.216-2.512 4.016-3.664 8.080-7.264 12.208-10.8 6.784-5.824 14.736-9.808 22.384-14.272 4.288-2.528 8.848-4.608 13.216-7.008 5.328-2.912 9.312-7.472 13.776-11.44 4.624-4.096 9.552-7.872 14.448-11.664 2.704-2.080 5.536-4.064 8.464-5.84 8.144-4.944 16.368-9.584 26.032-11.12 4.448-0.704 8.848-2.064 13.12-3.568 7.104-2.512 14.368-3.488 21.856-3.68 6.192-0.16 12.384-0.576 18.544-1.2 9.904-0.992 19.472 0.8 28.864 3.568 6.864 2.016 13.552 4.656 20.32 7.024 0.208 0.080 0.432 0.128 0.624 0.256 3.36 2.224 7.168 3.344 10.864 4.8 3.6 1.408 5.76 4.464 6.944 8.048 0.8 2.432 1.344 4.896 3.248 6.8 0.512 0.512 0.736 1.36 1.024 2.080 1.712 4.208 3.424 8.416 5.152 12.624 0.112 0.288 0.416 0.48 0.8 0.896 0.768-0.688 1.44-1.376 2.208-1.968 1.152-0.832 2.256-1.872 3.552-2.304 1.44-0.48 2.112-1.312 2.656-2.64 1.184-2.848 2.512-5.648 3.888-8.432 1.264-2.624 3.184-3.6 5.6-3.088 2.176 0.48 3.12 2.224 3.808 4.896 1.328 5.040 1.104 10.272 2.432 15.328 0.832 3.152 0.64 6.624 0.544 9.936-0.112 3.584 0.144 6.848 3.984 9.024 0.64-0.576 1.504-1.376 2.368-2.16 1.488-1.376 3.2-2.032 5.184-1.328 2.080 0.736 3.296 2.288 3.392 4.496 0.080 2 0.432 4.128-0.112 5.984-1.824 6.224-1.088 12.56-1.328 18.848-0.064 1.872-0.192 3.76-0.352 5.648-0.208 2.576-1.44 4.384-4.080 5.040-0.416 0.112-1.056 0.208-1.184 0.496-1.664 3.92-6.224 4.864-8.432 8.192-0.4 0.608-1.056 1.328-0.976 1.92 0.416 3.616 1.008 7.216 1.568 10.912 1.072 0.192 2.112 0.208 3.008 0.576 0.864 0.352 1.936 0.896 2.288 1.648 1.408 3.056 4.064 4.192 7.008 4.304 6.432 0.224 12.88 0.128 19.328 0.080 1.2 0 2.4-0.4 4.032-0.672 0.24 2.608 0.672 5.216 0.688 7.824 0.080 6.096 0.080 12.192-0.144 18.272-0.112 2.96-1.088 5.888-1.216 8.848-0.304 6.896-1.664 13.616-3.184 20.304-0.8 3.536-2.24 6.944-3.568 10.352-1.664 4.24-5.552 4.656-8.416 1.024-0.88-1.12-1.68-2.304-2.64-3.36-2.224-2.448-4.528-4.8-6.784-7.216-1.44-1.536-3.44-1.76-6.144-0.512 0.128 0.688 0.16 1.456 0.368 2.176 1.216 4.048 0 7.712-1.968 11.136-0.896 1.584-2.448 2.544-4.48 2.192-0.64-0.112-1.296-0.080-1.936-0.128-1.104 1.504-1.2 3.024-0.24 4.416 0.8 1.168 0.704 2.24 0.304 3.456-0.256 0.832-0.304 1.76-0.608 2.576-1.648 4.384-0.080 8.496 1.168 12.576 0.864 2.864 3.92 4.256 7.104 3.104 2.896-1.072 5.008-0.48 7.28 1.456 1.264 1.056 3.152 1.552 4.848 1.856 2.080 0.352 3.104 1.44 3.504 3.376 0.704 3.344 2.048 6.656 0.64 10.096-0.976 2.352-2.096 4.656-3.056 7.008-0.4 1.024-0.72 2.112-0.864 3.2-0.592 4.368-2.4 8.256-4.512 12.064-2 3.632-4.368 6.848-7.568 9.6-1.872 1.632-3.648 2.768-6.16 2.672-0.864-0.032-1.744 0.24-2.976 0.448-0.144-1.36-0.304-2.624-0.448-3.888-0.512-4.448-2.384-5.952-6.832-5.504-1.616-2.448-2.544-5.44-5.632-6.96-2.144 1.808-3.44 4.944-6.848 4.864-0.272 3.264 0.624 6.112 1.76 8.864 0.944 2.304 0.672 4.208-1.248 5.968-2.368 2.16-3.776 4.848-3.888 8.16-0.064 1.44-0.16 2.912-0.56 4.288-0.384 1.344-1.056 2.64-1.792 3.84-0.688 1.104-1.632 2.048-2.48 3.056-0.416 0.512-0.8 1.152-1.36 1.44-6.304 3.36-8.144 9.6-10.032 15.712-1.088 3.488-1.68 7.088-4.928 9.488-1.296 0.944-0.64 2.88 1.264 3.088 2.496 0.256 3.504 1.776 4.784 3.536 1.104 1.568 1.088 3.008 0.864 4.832-0.912 0.176-1.776 0.528-2.608 0.464-4.576-0.336-7.984 1.92-10.56 5.28-3.36 4.4-6.496 8.992-9.472 13.664-1.328 2.080-1.984 4.56-2.448 7.28 0.528-0.24 1.072-0.416 1.584-0.704 0.464-0.288 0.864-0.736 1.36-0.96 1.824-0.864 3.808-0.832 5.408 0.208 1.552 1.008 0.304 2.624 0.064 3.968-1.072 6.032-4.32 10.464-9.52 13.744-3.76 2.368-7.216 5.248-9.12 9.44-2.144 4.688-3.44 9.6-3.328 14.8 0.016 0.24 0.336 0.496 0.672 0.96 0.464-0.624 0.832-1.104 1.216-1.584 1.616-1.968 3.056-4.096 4.896-5.808 3.072-2.832 5.696-6.272 9.616-8.112 2-0.944 3.968-2.032 6.048-2.672 1.152-0.352 2.64-0.176 3.808 0.256 3.056 1.136 3.552 2.032 3.264 5.296-0.144 1.52-0.624 3.040 0.944 4.48 1.296-1.168 2.080-2.512 2.848-3.984 2.464-4.688 5.12-9.232 8.48-13.424 2.32-2.88 3.648-6.56 5.296-9.936s3.168-6.784 4.736-10.192c0.24-0.496 0.464-1.040 0.512-1.568 0.192-2.016 1.312-3.104 3.104-3.92 1.024-0.464 1.808-1.536 2.576-2.464 1.968-2.368 4.224-3.168 6.736-2.256 2.624 0.944 4.176 3.312 3.904 6.272-0.128 1.424-0.256 3.008-0.96 4.176-1.44 2.352-1.92 4.928-2.704 7.456-0.72 2.304-1.728 4.624-3.12 6.544-3.792 5.2-6.144 10.96-7.952 17.072-1.488 4.976-1.84 10.192-3.472 15.104-2.080 6.288-4.32 12.528-6.352 18.816-0.704 2.192-1.216 4.496-1.456 6.784-0.176 1.744 0.256 3.392 2.080 4.576 0.8 0.512 1.008 2.064 1.328 3.184 0.752 2.512 1.6 4.912 4.368 5.12 3.616-4.128 7.216-7.872 10.384-11.92 2.512-3.216 4.688-6.72 6.768-10.256 4.16-7.056 8.496-14.048 12.144-21.392 5.28-10.592 10.080-21.44 14.976-32.224 5.584-12.224 9.44-25.056 13.392-37.856 1.744-5.616 3.52-11.216 3.904-17.12 0.16-2.288 0.192-4.592 0.080-6.88-0.096-1.648 0.288-3.024 1.824-3.504 1.616-0.512 1.776-1.616 2.176-2.944 0.864-2.928 2.192-5.648 4.688-8.672 0.688 2.752 1.168 4.752 1.712 6.752 2.208 8.256 2.624 16.608 1.168 25.056-0.656 3.744-0.512 7.296 0.576 11.12 0.88 3.072-0.064 6.784-0.64 10.128-0.672 3.76-2.112 7.392-2.736 11.168-1.216 7.392-2.080 14.848-3.104 22.256-0.080 0.656-0.24 1.312-0.384 1.952-0.784 3.776-1.424 7.584-2.4 11.296-0.56 2.224-1.424 4.464-2.624 6.416-1.712 2.784-2.72 5.76-3.696 8.832-1.424 4.416-3.104 8.736-4.656 13.104-1.104 3.152-1.76 6.304-0.512 9.616 1.248 3.344 2.336 6.688 5.28 9.072 1.472 1.2 2.512 1.536 4.4 0.56 2.912-1.536 6.144-2.512 9.216-3.712 0.928-0.352 1.952-0.576 2.768-1.104 4.928-3.184 10.288-5.76 14.192-10.336 1.584-1.856 3.6-3.36 5.008-5.312s2.304-4.256 3.408-6.416c0.496-0.992 0.816-2.080 1.44-2.96 3.808-5.408 6.128-11.52 8.448-17.616 0.192-0.512 0.24-1.088 0.24-1.632-0.080-5.712 1.2-11.216 2.512-16.736 0.496-2.112 0.208-4.416 0.448-6.608 0.144-1.232 0.592-2.448 1.008-4.032 3.776 3.264 7.12 6.144 10.448 9.040 0.24 0.208 0.576 0.512 0.56 0.784-0.080 3.6 1.904 6.704 2.32 10.288 0.624 5.44-0.368 10.576-0.992 15.824-0.032 0.336-0.144 0.672-0.128 1.008 0.816 9.92-2.384 19.328-3.968 28.928-0.576 3.504-1.344 6.992-2.288 10.416-0.688 2.528-1.872 4.944-2.72 7.456-2.032 5.968-6.080 11.136-7.072 17.504-0.544 3.6-2.72 6.32-4.624 9.12-1.92 2.832-4.112 5.632-6.736 7.776-2.272 1.856-4.816 3.008-5.392 6.4-0.176 0.992-2.064 1.984-3.344 2.416-4.256 1.376-8.592 2.32-13.072 0.832-0.944-0.32-1.968-0.368-2.912-0.704-1.264-0.448-2.32-0.304-3.44 0.48-2.672 1.856-5.776 2.304-8.896 2.144-3.712-0.208-7.248 0.528-10.8 1.376-0.112 0.032-0.208 0.096-0.304 0.112-7.488 0.4-14.56 2.848-21.744 4.656-3.104 0.784-6.112 1.952-9.168 2.944-1.584 0.512-3.12 1.12-4.72 1.552-2 0.544-4.032 0.8-5.888 2.016-1.28 0.832-3.2 0.784-4.848 0.944-1.536 0.144-3.104-0.048-4.656 0.064-3.248 0.224-6.416-0.016-9.712 1.216-3.2 1.216-6.96 0.912-10.48 1.216-3.872 0.336-7.68-0.512-11.52-0.864-2.624-0.24-5.296-0.896-7.856 0.416-0.192 0.080-0.448 0.096-0.656 0.096-7.856-0.144-15.744 1.136-23.552-0.272-2.816-0.512-5.52-1.6-8.272-2.448-0.736-0.224-1.488-0.72-2.192-0.64-4.144 0.448-7.872-1.008-11.616-2.304-2.672-0.928-4.016-3.36-5.68-5.392-0.272-0.336-0.448-0.736-0.624-1.072-5.056 0.56-7.552-0.624-9.76-5.12-1.648-3.376-4-6.096-6.672-8.64-2.416-2.304-4.72-4.672-5.696-8.048-0.288-0.992-1.168-1.856-1.92-2.656-1.632-1.808-3.6-3.36-4.944-5.328-1.152-1.664-1.712-3.76-2.4-5.712-0.448-1.216-0.4-2.672-1.072-3.728-1.28-2.032-1.968-4.176-2.208-6.528-0.112-1.056-0.352-2.304-0.976-3.072-1.728-2.16-2.080-4.64-2.064-7.216 0.032-9.216 0.048-18.432 0.24-27.664 0.032-1.84 0.688-3.68 1.216-5.472 0.464-1.536 1.68-2.384 3.248-2.448 1.728-0.080 3.088 0.768 3.584 2.432 0.576 2 1.088 4.064 1.264 6.144 0.128 1.52 0.512 2.592 1.6 3.76 1.504 1.584 2.56 3.6 3.824 5.392 0.944 1.328 1.952 2.624 2.928 3.936 0.24-0.064 0.464-0.128 0.688-0.176z"></path>
</svg>
