<!-- Generated by IcoMoon.io -->
<svg version="1.1" xmlns="http://www.w3.org/2000/svg" width="512" height="512" viewBox="0 0 512 512">
<title>monsters-of-order</title>
<g id="icomoon-ignore">
</g>
<path d="M255.84 511.936c-1.856-0.416-3.92-3.088-4.544-5.984-0.832-2.688-2.272-4.944-3.296-4.944-1.232 0-2.064-1.232-2.064-2.896s-2.064-3.296-4.752-4.128c-2.48-0.624-6.608-2.896-9.072-5.36-2.48-2.272-5.152-4.128-5.568-4.128-2.48 0-9.488-7.216-9.488-9.696 0-1.44-1.856-2.688-4.336-2.688s-6.192-2.272-8.464-5.152c-2.272-2.896-6.192-5.152-9.072-5.152-4.336 0-4.944-0.832-4.944-8.256 0-7.216-0.624-8.256-4.752-8.256-2.48 0-5.776-1.856-7.216-4.128-1.44-2.48-4.752-5.152-7.216-6.192-7.84-3.504-11.968-6.816-29.712-24.544-13.616-13.616-16.704-17.744-14.848-20.016 2.272-2.688 1.856-9.072-1.232-18.56-0.832-2.48-0.208-5.568 1.44-7.216 1.44-1.648 3.088-4.752 3.296-7.008 0.416-2.272 2.896-8.256 5.568-13.408s5.36-11.344 6.192-13.824c0.624-2.688 2.272-4.752 3.296-4.752s1.856-1.856 1.856-4.128c0-3.712 3.92-11.344 11.968-23.728 1.44-2.272 3.088-5.776 3.712-7.632 0.832-2.064 2.064-3.712 3.088-3.712s1.856-1.232 1.856-2.896c0-1.648 1.232-4.336 2.688-5.776 3.088-3.088 6.4-10.112 5.776-12.592-0.208-1.024 0.624-1.232 1.856-0.416 1.024 0.624 2.064 0.416 2.064-0.416 0-1.024 2.272-4.128 5.152-7.216s5.36-7.84 5.568-10.736c0.208-2.688 1.44-4.944 2.48-4.752 1.232 0.208 2.064-0.624 2.272-2.064 0-1.232 2.48-5.152 5.776-8.672 3.088-3.504 5.568-7.216 5.568-8.256s1.44-2.896 3.088-4.336c1.648-1.44 3.088-4.336 3.088-6.4 0-2.272 0.832-3.92 2.064-3.92 1.024 0 2.48-2.272 3.296-5.152 0.624-2.896 2.064-4.544 3.088-3.92s1.856-0.208 1.856-1.856c0-1.648 1.44-3.504 3.088-4.336 1.648-0.624 3.088-2.48 3.088-4.336 0-3.088 1.232-5.152 7.84-12.384 1.232-1.44 2.48-4.128 2.48-5.984 0-1.648 1.232-3.92 2.896-4.752s3.296-4.944 3.712-8.864c0.416-5.568 1.648-7.424 5.36-7.84 3.088-0.416 4.544 0.416 4.544 2.48 0 1.856 1.44 3.296 3.296 3.296 2.48 0 3.088 1.232 2.064 5.152-1.024 3.712-0.416 5.152 1.648 5.152 1.856 0 3.504 3.088 4.336 8.256 0.832 4.544 2.272 8.672 3.296 9.488 1.024 0.624 1.856 4.944 1.856 9.696s1.44 10.528 3.088 12.592c1.648 2.272 3.088 6.608 3.088 9.904 0 3.088 0.832 5.776 2.064 5.776 1.024 0 2.688 3.712 3.296 8.256 0.832 4.544 2.272 8.864 3.088 9.488 1.024 0.624 1.856 4.128 1.856 7.84s1.44 8.464 3.088 10.72c1.648 2.064 3.088 6.4 3.088 9.28 0 3.088 1.232 6.608 2.688 7.84 1.648 1.232 2.688 5.152 2.48 8.864-0.416 3.712 0 7.84 0.624 8.864 1.648 2.48 2.48 5.984 3.92 15.056 0.624 3.504 2.272 6.608 3.504 6.608 1.44 0 2.688 3.504 2.896 7.632 0.416 4.128 1.648 8.864 2.896 10.32 1.648 2.064 0.832 3.92-3.296 7.84-2.896 2.688-5.36 5.568-5.36 6.192 0 0.832-1.232 2.688-2.48 4.128-6.192 6.816-7.84 9.28-7.84 11.136 0 1.024-1.44 2.272-3.088 3.088-1.648 0.624-3.088 2.064-3.088 3.296s-1.232 3.712-2.48 5.152c-5.36 5.984-7.84 9.072-7.84 10.112 0 0.624-2.688 3.92-6.192 7.632-6.4 7.216-12.384 27.024-8.256 28.272 1.024 0.416 2.064 2.064 2.064 3.712s1.44 2.896 3.088 2.896c1.648 0 3.088 1.024 3.088 2.48 0 2.272 7.424 9.488 17.328 16.912 3.92 2.896 5.36 5.776 5.36 10.736 0 8.464 1.648 8.672 9.072 1.856 3.088-2.896 6.4-5.152 7.632-5.152 2.272 0 5.984-8.464 4.544-10.736-0.416-1.024-3.088-1.648-5.984-1.648-2.688 0-4.944-0.832-4.944-2.064 0-1.024-1.44-2.064-3.088-2.064s-3.088-1.232-3.088-2.48c-0.208-1.44-3.92-5.152-8.256-8.256-4.544-3.296-8.048-7.008-7.84-8.256 0.416-1.648-1.856-2.896-4.944-3.296-5.152-0.624-5.568-1.232-3.504-4.752 2.688-5.36 9.488-12.176 11.968-12.176 1.024 0 2.272-1.648 3.088-3.504 1.648-5.36 5.776-11.344 11.136-16.096 2.48-2.272 4.544-5.152 4.544-6.4 0-1.024 3.712-5.776 8.256-10.112s8.256-9.488 8.464-11.344c0-2.272 0.416-2.272 1.232-0.416 0.832 2.064 1.856 1.856 4.944-0.832 5.36-4.752 4.944-7.008-1.648-12.384-5.36-4.336-5.568-4.944-3.088-11.552 1.648-4.336 1.856-7.008 0.416-7.424-1.024-0.416-2.064-4.128-2.064-8.256s-1.44-9.488-3.088-11.552c-1.648-2.272-3.088-6.608-3.088-9.696s-1.232-5.984-2.48-6.608c-1.44-0.416-1.856-1.648-1.024-2.688 0.832-0.832 3.504-0.624 5.568 0.832 2.48 1.44 4.128 1.648 4.128 0.416 0-1.024-2.064-2.48-4.752-3.088-5.776-1.44-11.76-11.76-11.76-20.016 0-3.296-1.44-7.424-3.088-9.072-1.648-1.856-3.088-5.36-3.088-8.256 0-2.688-0.832-4.944-1.856-4.944s-2.272-2.064-2.896-4.544c-1.648-7.84-6.4-18.976-9.072-21.872-1.44-1.44-2.688-4.944-2.688-7.632s-1.024-5.568-2.064-6.192c-1.024-0.624-2.064-3.296-2.064-5.984 0-2.48-1.44-6.4-3.088-8.672-1.648-2.064-3.088-7.008-3.088-10.528 0-3.712-0.832-6.816-1.856-6.816-2.48 0-4.128-7.424-2.896-12.384 1.232-4.752 4.752-5.568 4.752-1.024 0 1.648 2.896 5.776 6.192 8.864 3.504 3.296 6.192 8.048 6.192 10.528 0 2.272 1.024 4.336 2.064 4.336 1.232 0 2.064 1.024 2.064 2.48 0 3.088 12.992 29.296 15.056 30.128 0.832 0.416 1.44 2.896 1.44 5.568s0.832 5.36 1.856 6.192c1.232 0.624 4.128 5.568 6.816 10.928s5.36 10.112 6.4 10.32c0.832 0.416 1.44 2.896 1.44 5.568 0 2.48 1.44 5.776 3.088 7.216s3.088 3.92 3.088 5.36c0 1.648 1.024 2.896 2.064 2.896 1.232 0 2.064 1.44 2.064 3.088 0 1.44 1.232 3.712 2.688 4.544 2.896 1.856 7.216 8.464 8.864 13.616 0.832 1.856 2.064 3.504 3.088 3.504s1.856 1.232 1.856 2.896c0 1.44 1.44 3.92 3.088 5.36s3.088 4.128 3.088 6.192c0 2.064 1.44 4.752 3.088 6.192s3.088 4.128 3.088 6.192 1.44 4.336 3.296 4.944c1.648 0.624 2.48 2.064 1.856 3.296-0.624 1.024 0.416 2.064 2.48 2.064 3.088 0 3.296 0.416 0.624 2.064-2.064 1.232-2.272 2.064-0.416 2.064 1.232 0 2.48 1.856 2.48 3.92 0 2.272 1.232 5.36 2.688 6.816 1.232 1.44 4.336 6.192 6.4 10.528 2.272 4.128 4.752 7.632 5.776 7.632 0.832 0 1.648 4.752 1.648 10.32 0 8.048 0.832 10.32 3.296 10.32 1.648 0 2.688 0.832 1.856 1.856-0.624 1.232 0.624 2.896 2.48 4.128 2.064 1.232 2.48 2.272 1.232 2.272-1.44 0-2.688 1.648-2.688 3.712 0 1.856-10.112 13.408-22.288 25.376-12.176 12.176-24.96 25.376-28.672 29.296s-9.696 8.464-13.616 9.904c-3.92 1.44-8.672 4.944-10.32 7.84-1.856 3.088-5.152 5.568-7.424 5.776-5.568 0.416-10.528 5.36-10.528 10.32 0 2.064-1.648 5.568-3.504 7.84-2.688 3.296-3.088 3.504-2.064 0.624 2.272-6.4-2.272-3.92-12.176 6.608-5.36 5.776-10.928 10.32-12.592 10.32s-2.48 0.832-1.856 1.648c1.648 2.896-9.696 12.176-13.616 11.344zM266.576 492.544c0-2.272-0.832-3.712-2.064-2.896-1.024 0.624-1.44 2.48-0.624 4.128 1.44 4.336 2.688 3.92 2.688-1.232zM260.384 491.728c0-1.648-0.832-3.088-2.064-3.088-1.024 0-2.064 1.44-2.064 3.088s1.024 3.088 2.064 3.088c1.232 0 2.064-1.44 2.064-3.088zM272.768 486.976c0-1.44-0.832-2.064-2.064-1.44-1.024 0.624-2.064 3.296-2.064 5.776 0 3.712 0.416 3.92 2.064 1.44 1.024-1.648 2.064-4.336 2.064-5.776zM252.96 487.808c-0.832-2.064 0.624-3.296 4.752-3.92 5.568-0.832 5.568-0.832-0.832-1.232-5.36-0.208-6.816-1.024-6.816-4.336 0-4.128-0.208-4.128-4.944-0.624-5.568 4.128-5.36 7.008 0.624 5.36 2.48-0.624 4.128 0.416 4.944 3.296 0.624 2.48 1.648 4.336 2.272 4.336s0.624-1.232 0-2.896zM298.96 474.8c-0.832-0.624-1.44 0-1.44 1.44s0.624 2.064 1.44 1.44c0.624-0.832 0.624-2.064 0-2.896zM315.472 458.304c-0.832-0.624-1.44 0-1.44 1.44s0.624 2.064 1.44 1.44c0.624-0.832 0.624-2.064 0-2.896zM212.512 451.696c0.832-5.36 6.4-12.592 9.696-12.592 1.44 0 4.544-2.272 7.216-5.152s5.984-5.152 7.632-5.152c1.44 0 2.688-0.832 2.688-1.856s2.896-4.752 6.192-8.048c6.816-6.816 7.84-10.736 3.088-10.736-1.648 0-3.088 1.024-3.088 2.064 0 1.232-1.024 2.064-2.272 2.064s-3.296 1.232-4.752 2.688c-1.44 1.232-7.008 6.192-12.592 10.736-25.376 21.040-30.736 28.272-22.080 30.528 5.568 1.44 7.632 0.416 8.256-4.544zM327.44 436.848c2.272-3.296 0.208-3.92-2.688-0.624-1.44 1.648-1.648 2.896-0.624 2.896s2.688-1.024 3.296-2.272zM314.032 433.952c0-0.416-2.272-3.296-5.36-6.192-2.896-2.896-4.544-6.192-3.92-7.216 0.832-1.232-1.024-1.856-3.92-1.648-3.088 0.208-5.36 1.648-5.36 3.296 0 1.44 1.024 2.064 2.064 1.44 2.48-1.44 8.256 3.712 8.256 7.216 0 1.232 0.832 1.856 1.856 1.024 1.024-0.624 2.48-0.208 3.296 1.024 1.232 2.064 3.088 2.896 3.088 1.024zM291.328 419.712c0-0.624-1.024-1.648-2.48-2.48s-1.648-0.624-0.832 0.832c1.44 2.48 3.296 3.296 3.296 1.648zM245.328 400.944c0.624-1.856-0.416-4.944-2.48-7.216s-3.088-5.36-2.48-7.008c0.832-1.856 0.208-2.688-1.232-2.064-2.48 0.832-11.136-12.784-10.112-16.096 0.208-0.832-0.832-1.648-2.48-1.648-1.44 0-3.296-1.856-3.92-4.128-0.624-2.688-0.208-3.712 1.024-2.688 1.44 0.624 1.648 0.208 0.832-1.024-0.832-1.44-2.688-2.48-4.128-2.48s-4.336-3.296-6.608-7.216c-2.064-3.92-4.752-7.216-5.568-7.216-1.024 0-1.44-6.192-1.024-13.616 0.624-9.696 1.856-14.448 4.336-16.304 1.856-1.44 3.504-4.944 3.504-7.84s1.024-5.984 2.064-6.608c1.232-0.624 2.064-4.544 2.064-8.464s1.024-7.008 2.064-7.008c1.232 0 2.064-3.712 2.064-8.048 0-4.544 1.024-8.864 2.064-9.488 1.232-0.832 1.648-2.272 1.024-3.296-0.832-1.024-0.416-1.856 0.624-1.856 1.232 0 2.48-3.088 3.088-6.608 2.064-12.176 6.4-26.4 8.048-26.4 1.024 0 1.648-3.504 1.648-7.632 0-4.336 1.44-9.696 3.088-11.76 1.648-2.272 3.088-6.608 3.088-9.904 0-3.088 1.024-5.776 2.064-5.776 1.232 0 2.064-1.44 2.064-3.088s1.856-6.608 4.336-11.136c4.336-8.464 4.544-14.848 0.832-15.888-2.064-0.624-9.28 12.784-9.28 17.12 0 1.232-1.44 2.688-3.088 3.504-1.648 0.624-3.088 2.896-3.088 5.152s-0.832 4.752-2.064 5.36c-1.024 0.624-2.064 4.544-2.064 8.672 0 3.92-1.232 9.696-2.896 12.592-3.712 7.424-9.488 25.376-9.488 29.92 0 1.856-0.832 3.504-2.064 3.504-1.024 0-2.688 3.712-3.296 8.256-0.832 4.544-2.064 8.256-3.088 8.256s-1.856 3.504-1.856 7.84c0 4.128-1.44 9.488-3.088 11.552-1.648 2.272-3.088 6.608-3.088 9.904 0 3.088-0.832 5.776-1.856 5.776s-2.48 3.296-3.088 7.216c-0.832 3.92-2.272 7.216-3.296 7.216-1.232 0-2.064 2.272-2.064 4.944s-1.44 5.984-3.088 7.424c-1.856 1.44-2.896 5.36-2.688 9.072 0.416 7.008 4.944 17.744 7.632 17.744 0.832 0 2.688 2.272 3.92 5.152 1.232 2.688 5.984 7.424 10.528 10.32 5.568 3.504 8.048 6.192 7.216 8.256-0.832 1.648-0.208 3.088 1.024 3.088s2.272 2.48 2.272 5.36c0 3.92 0.832 5.152 2.896 4.336s3.712 0.416 4.544 3.296c1.44 4.752 8.464 11.76 11.552 11.76 1.024 0 2.272-1.44 3.088-3.088zM238.72 377.424c-0.624-1.024 0.624-2.48 2.48-2.896 2.272-0.624 1.648-1.024-1.856-1.232-4.128-0.208-5.36 0.624-4.544 2.896 0.832 1.648 2.064 3.088 3.296 3.088 1.024 0 1.44-0.832 0.624-1.856zM219.12 374.336c0-0.624-1.024-1.648-2.48-2.48s-1.648-0.624-0.832 0.832c1.44 2.48 3.296 3.296 3.296 1.648zM232.112 363.392c-1.44-0.416-3.92-0.416-5.152 0-1.44 0.624-0.416 1.024 2.48 1.024s3.92-0.416 2.688-1.024zM333.216 326.256c-1.44-0.624-2.896-2.896-2.896-5.36-0.208-3.296-0.624-2.896-1.648 1.648-1.44 6.608 1.44 10.736 4.944 6.816 1.44-1.44 1.232-2.48-0.416-3.088zM336.096 313.872c-0.832-0.624-2.064-0.624-2.896 0-0.624 0.832 0 1.44 1.44 1.44s2.064-0.624 1.44-1.44zM331.968 303.568c0.208-4.544-0.208-4.944-1.648-2.064-1.232 1.856-1.44 4.544-0.832 5.568 1.856 2.896 2.064 2.688 2.48-3.504zM324.96 289.536c-0.624-1.856-1.648-2.896-2.064-2.272-0.624 0.624-0.416 1.856 0.416 3.088 1.856 3.296 3.088 2.688 1.648-0.832z"></path>
<path d="M316.080 495.44c0-1.856 2.48-5.776 5.568-8.256 4.944-4.336 6.608-4.752 21.456-3.504 13.2 1.232 17.12 0.832 21.248-2.064 3.088-1.856 9.488-3.296 15.68-3.296 5.776 0 11.552-0.832 12.992-2.064 12.592-10.112 17.952-15.264 17.952-17.744 0-1.648 0.624-2.896 1.648-2.896 2.48 0 8.672-12.384 8.672-17.536 0-2.688 1.44-10.528 3.296-17.328 2.272-9.488 2.896-20.624 2.48-44.976s0-32.384 2.064-33.008c1.232-0.624 2.48-2.688 2.48-4.544 0-2.064 2.272-6.4 5.152-9.696s5.776-8.048 6.4-10.528c0.832-2.688 2.064-4.752 3.088-4.752s1.856-2.896 1.856-6.608c0-4.752-2.064-8.256-8.256-14.24-4.544-4.336-8.256-8.864-8.256-10.112 0-1.024-0.832-2.064-2.064-2.064-1.024 0-2.064-1.856-2.064-3.92 0-2.272-0.832-4.752-2.064-5.36-1.024-0.624-2.064-2.896-2.064-4.752 0-3.088 0.416-3.088 2.272-0.416 1.44 2.272 1.856 0.416 1.44-7.008-0.208-6.608 0.416-10.528 2.064-11.136 1.44-0.416 2.48-2.48 2.48-4.752s1.44-4.544 3.088-5.152c1.648-0.832 3.088-2.688 3.088-4.336s1.024-2.272 2.272-1.648c1.232 0.832 2.688-0.416 3.296-2.688 0.624-2.48 3.92-5.776 7.424-7.424 10.32-5.152 13.824-8.464 13.824-13.408 0-4.544-0.624-4.544-17.952-4.128-17.536 0.416-23.728 2.48-30.944 9.28-1.44 1.44-5.36 3.712-8.864 5.36-3.504 1.44-6.816 4.752-7.424 7.424-1.856 7.008-4.752 5.36-6.192-3.712-0.832-4.544-2.064-8.256-3.088-8.256-4.944 0 1.024-18.768 8.864-27.856 2.48-2.896 5.776-5.152 7.216-5.152s2.688-0.832 2.688-2.064c0-1.024 1.232-2.064 2.688-2.064 4.336 0 20.016-17.744 20.016-22.688 0-2.272 1.44-4.752 3.088-5.36 1.648-0.832 3.088-2.896 3.088-4.752s1.232-4.944 2.896-6.816c1.44-2.064 2.272-7.216 1.856-12.384-0.416-6.4 0-8.048 1.44-5.776s2.064 2.48 2.064 0.416c0-1.648-1.856-3.296-4.128-3.92-3.92-1.024-4.336-2.48-3.712-13.824 0.624-10.72 1.232-12.592 4.752-13.408 2.272-0.416 4.944-1.856 5.776-3.504s2.48-2.896 3.504-2.896c2.688 0 2.688 10.928 0.208 13.616-1.024 1.024-2.272 11.968-2.688 24.352-0.416 15.68-1.44 22.896-3.088 23.52-1.44 0.416-2.688 2.272-2.688 4.336 0 1.856-1.44 5.36-3.088 7.632-1.648 2.064-3.088 5.36-3.088 7.008 0 4.336-20.224 24.752-24.144 24.752-2.688 0-8.864 11.344-8.864 16.304 0 2.48 1.232 4.336 3.088 4.336 1.648 0 3.088-0.832 3.088-2.064 0-1.024 2.272-2.064 4.944-2.064s5.36-1.232 5.984-2.688c1.024-2.688 34.864-8.864 38.16-6.816 2.688 1.648 14.848-2.688 14.848-5.152 0-1.024 1.44-1.856 3.088-1.856s3.088-1.44 3.088-3.088c0-2.272 2.272-3.088 8.256-3.088 9.696 0 10.32 1.856 2.688 9.904-16.704 17.328-27.44 30.128-27.44 32.592 0 1.648-0.832 2.896-1.648 2.896-1.024 0-3.088 2.272-4.544 5.152-1.44 2.688-3.296 4.752-4.128 4.544s-4.944 3.088-9.072 7.424c-6.608 7.216-7.424 9.072-7.424 19.184 0 8.464 0.832 11.136 3.088 11.136 1.856 0 2.48 1.232 1.856 3.088-0.832 1.856 0 3.088 1.648 3.088s5.36 2.896 8.048 6.608 6.608 8.256 8.672 10.32c3.92 4.128 4.544 19.808 0.832 24.752-1.232 1.856-1.44 1.232-0.416-1.44 1.232-3.92 1.024-3.712-2.896 0.416-2.48 2.48-4.336 5.36-4.336 6.608 0 1.024-1.44 2.272-3.088 3.088-1.648 0.624-3.088 2.896-3.088 4.944 0 2.272-2.272 6.192-5.152 9.072-4.944 4.944-4.944 5.568-5.776 48.272-0.832 40.848-3.504 62.72-8.048 62.72-1.024 0-1.648 1.232-1.648 2.688s-1.856 3.712-4.128 5.152c-2.272 1.232-5.36 5.776-7.008 9.696s-4.544 7.216-6.192 7.216c-1.856 0-3.296 1.024-3.296 2.064 0 1.232-1.44 2.064-3.088 2.064s-3.088 0.832-3.088 1.648c0 5.568-25.376 10.528-61.28 11.968-21.456 1.024-23.312 0.832-23.312-2.688zM412.432 474.8c-0.832-0.624-1.44 0-1.44 1.44s0.624 2.064 1.44 1.44c0.624-0.832 0.624-2.064 0-2.896z"></path>
<path d="M304.736 472.128c0.624-1.024 1.648-2.064 2.272-2.064s0.416 1.024-0.208 2.064c-0.624 1.232-1.648 2.064-2.272 2.064s-0.416-0.832 0.208-2.064z"></path>
<path d="M127.936 449.008c-4.752-4.336-11.76-7.84-15.68-7.84-2.064 0-5.568-1.44-7.84-3.088-2.064-1.648-5.568-3.088-7.632-3.088s-4.128-1.44-4.752-3.088c-0.832-1.648-3.088-3.088-5.152-3.088-4.128 0-38.992-33.008-38.992-36.928 0-1.232-0.832-2.272-2.064-2.272-1.024 0-2.48-2.272-3.296-5.152-0.624-2.896-2.272-5.152-3.712-5.152-2.688 0-7.424-9.488-7.424-14.848 0-2.064-1.232-3.712-2.48-3.712-1.856 0-1.648-0.832 0.416-2.064 2.688-1.648 2.48-2.064-0.416-2.064-2.48 0-3.712-1.648-3.712-4.944 0-2.896-0.832-5.776-2.064-6.4-1.024-0.624-2.064-3.712-2.064-6.816s-1.44-7.424-3.088-9.488c-4.336-5.776-4.336-56.112 0-61.888 1.648-2.272 3.088-6.192 3.088-8.672 0-2.688 1.024-5.36 2.064-5.984 1.232-0.624 2.064-2.896 2.064-4.752 0-2.064 1.856-5.152 4.128-7.216 2.272-1.856 4.128-4.944 4.128-6.816 0-2.064 1.024-2.896 3.296-2.064 2.064 0.832 3.712-0.624 5.36-4.944 1.232-3.712 3.504-6.192 5.776-6.192 2.064 0 4.128-1.44 4.944-3.088 0.624-1.648 2.896-3.088 5.152-3.088 2.064 0 4.336-1.44 5.152-3.088 0.624-1.648 2.896-3.088 5.152-3.088s4.752-0.832 5.36-2.064c2.272-3.504 7.216-2.272 7.216 1.856 0 5.152-5.984 16.512-11.136 21.248-6.192 5.776-15.68 23.936-15.68 30.32 0 1.856-1.44 5.152-3.088 7.216-1.648 2.272-3.088 6.192-3.088 8.672s-1.44 4.944-3.088 5.776c-2.064 0.624-3.088 3.92-3.088 9.28 0 4.544-0.832 8.864-2.064 9.488s-2.064 3.712-2.064 6.608c0 3.088-1.024 8.672-2.48 12.384-2.064 5.568-2.064 7.84 0 10.928 1.44 2.272 2.48 8.048 2.48 13.2 0 5.36 1.232 9.904 2.896 11.552 1.648 1.232 2.48 3.712 1.856 5.36s0.208 2.896 2.064 2.896 3.92 0.832 4.544 2.064c0.624 1.232-0.208 1.44-1.856 0.832-3.504-1.44-4.544 2.272-1.232 4.336 1.232 0.624 2.064 3.088 2.064 5.36 0 2.064 0.832 3.92 1.856 3.92s2.688 2.064 3.504 4.544c0.624 2.48 2.48 5.568 3.712 7.008 1.232 1.232 3.712 4.544 5.36 7.008 1.648 2.688 5.776 7.216 9.072 10.112s7.216 6.608 8.672 8.048c1.44 1.232 3.504 2.48 4.752 2.48s2.272 0.624 2.272 1.648c0 2.064 11.968 8.672 15.68 8.672 1.44 0 8.864 3.712 16.304 8.256s15.472 8.256 18.16 8.256c6.816 0 13.824 2.272 13.824 4.336 0 2.896-20.016 2.272-23.104-0.624z"></path>
<path d="M275.44 429.408c0.832-0.624 2.064-0.624 2.896 0 0.624 0.832 0 1.44-1.44 1.44s-2.064-0.624-1.44-1.44z"></path>
<path d="M98.224 415.392c-0.832-1.648-2.48-3.088-3.92-3.088-3.296 0-9.696-7.216-7.84-8.864 0.624-0.832-0.208-1.44-2.064-1.44s-3.504-1.44-3.504-3.088c0-1.648-1.232-3.088-2.896-3.088-1.44 0-4.544-3.296-6.608-7.424-2.272-4.128-4.752-9.072-5.984-11.344-1.024-2.064-2.896-3.92-4.128-3.92-1.024 0-0.624-1.024 1.024-2.064 2.688-1.648 2.48-2.064-0.416-2.064-2.688 0-3.712-1.648-3.712-5.776 0-3.088-1.232-7.008-2.48-8.464-4.336-4.128-2.896-49.52 1.648-60.032 2.064-4.544 4.336-8.256 5.36-8.256 0.832 0 1.648-1.856 1.648-3.92 0-11.136 15.472-29.088 25.168-29.088 3.296 0 6.4-1.44 7.008-3.088 0.832-1.648 3.504-3.088 6.192-3.088s4.944-0.832 4.944-2.064c0-1.024 1.648-2.064 3.92-2.064 2.064 0 4.944-1.44 6.4-3.088s4.336-3.088 6.608-3.088c2.064 0 5.36-1.232 7.216-2.48 9.072-7.424 15.056-14.032 15.056-16.912 0-1.856 0.832-3.296 2.064-3.296 1.024 0 2.48-3.296 3.296-7.216 0.624-3.92 2.064-7.84 3.088-8.464 2.48-1.44 2.272-24.96-0.208-26.608-2.688-1.648-2.688-14.848 0-16.512 1.232-0.624 2.064-5.36 2.064-10.32 0-8.464 6.816-25.792 10.736-27.44 0.832-0.416 1.648-2.064 1.648-3.712s1.232-2.688 2.688-2.272c1.232 0.208 2.272-0.624 2.064-2.064-0.208-1.232 2.272-2.896 5.568-3.712 3.504-0.832 6.192-2.272 6.192-3.504 0-3.088 5.568-7.84 9.28-7.84 1.648 0 3.712-1.232 4.336-2.688 0.416-1.44 4.752-2.896 9.696-3.296 4.752-0.208 9.072-1.232 9.28-2.48 1.024-2.48 26.608-2.48 28.272 0.208 2.064 3.296 37.344 2.688 40.848-1.024 1.648-1.648 3.504-2.48 4.128-1.856 1.856 1.856 13.824-5.984 13.824-8.864 0-1.44 1.44-2.688 3.088-2.688s3.088-1.648 3.088-3.712c0-2.272 1.648-7.008 3.504-10.928 3.92-8.048 23.728-28.672 27.648-28.672 1.232 0 3.504-1.232 4.752-2.896 2.272-3.088 12.176-4.128 36.928-3.504 7.84 0 13.616 1.024 12.992 2.064-2.272 3.712 16.512-3.088 20.624-7.424 2.48-2.688 5.36-4.752 6.816-4.752 1.232 0 2.272-1.024 2.272-2.064 0-4.128 7.84-10.72 11.76-9.904 4.944 0.832 5.776 8.048 1.856 15.888-1.856 3.296-3.296 9.072-3.296 12.592 0 3.296-0.832 6.192-2.064 6.192-1.024 0-2.48 2.272-3.296 4.944-0.624 2.688-3.296 5.984-6.192 7.424-2.688 1.648-4.944 3.92-4.944 5.568 0 1.44-1.44 2.688-3.088 2.688s-3.088 1.44-3.088 3.088c0 1.648-1.44 3.088-3.088 3.088-1.856 0-4.336 1.024-5.776 2.064-9.28 7.84-12.592 10.32-13.824 10.32-2.272 0-12.592 10.928-14.656 15.472-1.024 2.272-2.688 5.568-3.504 7.216-6.192 10.72-7.424 15.264-8.672 34.048-0.832 11.344-1.024 21.248-0.624 22.288 1.44 2.48 6.4 1.648 7.632-1.648 0.832-2.48 5.152-3.088 19.808-3.088 10.928 0 18.56-0.832 18.56-2.064 0-1.024 1.232-2.064 2.896-2.064 2.896 0 18.768-14.24 18.768-16.704 0-0.832 0.624-2.272 1.44-3.088 2.896-2.896 4.128 5.36 1.44 8.864-2.064 2.48-2.064 3.088-0.208 1.856 4.752-2.896 2.48 0.832-5.984 9.28-6.608 6.608-7.84 8.864-5.776 10.32 2.064 1.232 1.232 1.856-2.688 1.856-2.896 0-5.776 1.024-6.192 2.48-0.624 1.856-4.752 1.856-17.744-0.208-16.096-2.272-17.328-2.272-22.896 1.648-3.088 2.272-6.4 3.712-7.008 3.088s-2.688 1.024-4.544 3.92c-4.752 7.424-11.344 5.152-11.344-3.92 0-3.712 1.024-7.424 2.064-8.048 2.896-1.648 2.688-16.912-0.208-18.768-1.232-0.832-1.856-4.336-1.024-8.864 0.624-4.128 1.648-11.552 2.48-16.704 1.232-8.864 11.76-26.816 15.68-26.816 0.832 0 1.648-1.44 1.648-3.088s1.232-3.088 2.896-3.088c1.648 0 3.296-1.44 4.128-3.088 0.624-1.648 2.48-3.088 4.336-3.088s5.36-2.272 8.048-5.152c2.688-2.896 6.608-5.152 9.072-5.152 2.272 0 4.544-1.44 5.36-3.088 0.624-1.648 2.48-3.088 4.336-3.088 1.648 0 5.568-3.712 8.464-8.256 3.088-4.544 6.4-8.256 7.216-8.256 1.024 0 1.856-1.44 1.856-3.088s1.024-3.088 2.064-3.088c1.232 0 2.064-2.272 2.064-5.152 0-6.4-2.064-6.4-8.464-0.832-2.688 2.48-7.216 5.152-9.904 6.192-8.256 3.296-38.368 1.232-36.304-2.48 1.44-2.064-5.152-0.832-10.528 1.856-2.272 1.024-6.4 3.296-9.696 4.752-3.088 1.44-6.192 4.544-6.816 7.008-1.44 5.776-2.48 11.76-2.688 15.056-0.208 1.232-0.832 2.272-1.648 2.272-4.336-0.624-6.4 0.832-10.528 8.048-2.272 4.336-6.192 9.488-8.672 11.76-2.272 2.064-4.128 4.544-4.128 5.568s-1.024 2.896-2.064 4.336c-1.232 1.44-4.544 5.36-7.216 8.672-5.152 6.192-5.152 6.192-27.024 6.192-18.368 0-22.080-0.624-23.728-3.504s-4.336-3.296-16.912-2.48c-8.048 0.624-17.12 1.856-20.016 2.896s-7.424 2.272-10.32 2.896c-2.896 0.624-9.28 4.752-14.032 9.488-4.944 4.544-10.112 7.632-11.136 7.008-1.232-0.832-6.192 2.896-11.136 8.256-7.632 8.464-9.072 11.552-10.112 21.456-0.832 6.608-2.272 13.824-3.504 16.096-1.44 3.088-1.44 5.776 0.208 8.672 2.896 5.36 2.896 20.432 0.208 22.080-1.024 0.624-2.064 5.984-2.064 11.552 0 7.216-0.832 10.528-3.088 11.344-1.648 0.832-3.088 3.088-3.088 5.152s-0.832 3.92-2.064 3.92c-1.024 0-2.064 1.024-2.064 2.272 0 3.088-10.32 15.056-13.2 15.472-5.568 0.624-6.192 1.232-2.272 2.896 3.504 1.44 3.296 1.856-2.064 2.064-3.296 0.208-8.672 0.208-11.76 0-3.296-0.208-5.776 0.624-5.776 1.856 0 1.024-4.128 2.688-9.28 3.504-5.152 0.624-9.28 2.064-9.28 2.896s-3.088 2.064-6.608 2.896c-4.752 1.024-5.984 1.856-4.128 3.088 2.272 1.44 2.064 2.064-0.624 3.088-4.944 1.856-5.568 1.648-3.92-1.232 0.832-1.44 0.624-1.648-0.832-0.832-3.504 2.064-3.088 5.36 0.416 5.36 1.648 0 3.712 1.024 4.544 2.48 0.832 1.232 0.624 1.856-0.416 1.024-1.024-0.624-2.064 2.688-2.064 7.216-0.208 4.544-1.44 9.28-2.688 10.528s-2.272 5.568-2.272 9.696c0 4.336-1.44 10.736-3.296 14.448-2.896 5.568-3.296 10.528-2.272 26.4 0.832 10.928 2.272 20.624 3.504 21.872 1.024 1.024 2.064 4.128 2.064 6.816s0.832 4.752 2.064 4.752c1.024 0 2.48 2.272 3.296 5.152 0.624 2.896 2.064 5.152 3.088 5.152s1.856 1.44 1.856 3.088c0 1.648 1.232 3.088 2.896 3.088s3.504 2.272 4.128 5.152c0.832 2.896 2.272 5.152 3.296 5.152 1.232 0 2.064 1.232 2.064 2.896s1.024 3.296 2.064 3.712c1.232 0.416 0.208 1.856-2.064 3.296-3.504 2.064-4.336 2.064-5.36-0.624zM93.264 409.408c0-0.624-1.024-1.648-2.48-2.48s-1.648-0.624-0.832 0.832c1.44 2.48 3.296 3.296 3.296 1.648z"></path>
<path d="M279.568 414.976c0.832-0.624 2.064-0.624 2.896 0 0.624 0.832 0 1.44-1.44 1.44s-2.064-0.624-1.44-1.44z"></path>
<path d="M50.56 373.712c0.832-0.624 2.064-0.624 2.896 0 0.624 0.832 0 1.44-1.44 1.44s-2.064-0.624-1.44-1.44z"></path>
<path d="M53.040 366.896c-0.624-1.024-0.208-2.064 0.832-2.064 1.232 0 2.272 1.024 2.272 2.064 0 1.232-0.416 2.064-0.832 2.064-0.624 0-1.648-0.832-2.272-2.064z"></path>
<path d="M122.768 258.176c0.832-0.624 2.064-0.624 2.896 0 0.624 0.832 0 1.44-1.44 1.44s-2.064-0.624-1.44-1.44z"></path>
<path d="M451.216 241.056c0.624-1.024 1.648-2.064 2.272-2.064 0.416 0 0.832 1.024 0.832 2.064 0 1.232-1.024 2.064-2.272 2.064-1.024 0-1.44-0.832-0.832-2.064z"></path>
<path d="M361.472 175.040c0-1.44 0.624-2.064 1.44-1.44 0.624 0.832 0.624 2.064 0 2.896-0.832 0.624-1.44 0-1.44-1.44z"></path>
<path d="M363.536 168.848c0-1.44 0.624-2.064 1.44-1.44 0.624 0.832 0.624 2.064 0 2.896-0.832 0.624-1.44 0-1.44-1.44z"></path>
<path d="M186.736 126.128c0.832-0.624 2.064-0.624 2.896 0 0.624 0.832 0 1.44-1.44 1.44s-2.064-0.624-1.44-1.44z"></path>
</svg>
