<!-- Generated by IcoMoon.io -->
<svg version="1.1" xmlns="http://www.w3.org/2000/svg" width="512" height="512" viewBox="0 0 512 512">
<title>monsters-of-order</title>
<g id="icomoon-ignore">
</g>
<path d="M245.504 509.424c0.208-6.32-0.816-9.792-2.656-9.792-1.216 0-4.080-1.84-6.528-4.080-2.448-2.032-5.104-3.472-6.112-2.848-0.816 0.608-1.632-1.424-1.632-4.288 0-3.056 0.816-4.896 2.032-4.080 1.216 0.608 2.032-1.024 2.032-3.664 0-2.848-1.424-5.712-3.264-6.32-4.48-1.84-4.896-1.632-5.104 2.448 0 2.032-0.608 2.448-1.216 1.024-1.216-3.264-8.768 0.416-8.768 4.080 0 1.424 0.816 1.216 2.032-0.608 1.424-2.24 2.032-0.816 2.032 5.712 0 4.688-0.816 8.56-2.032 8.56-1.024 0-1.424-1.632-0.608-3.472 0.816-2.448-0.208-1.84-2.848 1.216l-4.080 5.104-1.424-4.48c-0.816-2.24-0.816-8.16-0.208-12.848 1.024-6.112 0.4-8.976-1.424-10.192-2.032-1.424-1.84-1.84 0.816-1.84 1.84 0 3.872 1.216 4.288 2.656 0.608 1.424 1.216 1.024 1.216-1.216 0.208-3.056-1.216-3.472-7.952-3.056-7.552 0.416-8.16 0.816-8.16 6.32 0 3.056-0.816 5.296-1.632 4.688-3.264-1.84-8.56 6.928-8.56 14.064 0 7.952-3.264 11.216-5.104 5.104-0.608-2.24-2.032-4.080-2.656-4.080-0.816 0-3.264-3.472-5.504-7.552-2.032-4.288-4.896-9.184-6.32-10.816s-2.848-7.136-3.472-12.24c-2.656-21.216-4.896-31.808-7.344-36.704-2.848-5.296-9.376-12.24-11.632-12.24-2.656 0-11.424-8.16-8.768-8.16 7.952-0.416-14.48-8.16-23.040-8.16-7.552 0-9.792-0.816-9.792-3.264 0-1.632-0.816-2.448-2.032-1.84-1.024 0.608-2.032 0.208-2.032-1.024s-2.24-4.288-5.104-6.928c-2.848-2.656-5.104-5.712-5.104-7.136 0-1.216-0.816-2.24-1.84-2.24s-2.448-2.656-3.264-5.92c-0.608-3.264-2.656-7.136-4.288-8.56-1.632-1.216-2.848-3.472-2.848-4.896 0-1.632-1.024-3.056-2.032-3.472-1.216-0.416 0.208-3.056 3.056-6.112s5.104-7.344 5.104-9.792c0-2.24 1.424-4.080 3.056-4.080s3.056-1.424 3.056-3.056 0.816-3.056 1.84-3.056c1.024 0 2.448-2.848 3.264-6.112 0.816-3.472 2.24-5.712 3.264-4.896 2.032 1.216 3.056-35.072 2.032-71.584-0.608-22.432 1.84-36.704 4.896-28.96 0.816 1.84 2.448 3.472 3.872 3.472 1.216 0 2.448 1.84 2.656 4.080s4.080 7.552 8.56 11.632c5.296 4.688 8.368 9.184 8.368 12.24 0 2.656 1.024 6.528 2.448 8.56 1.84 3.056 1.84 5.104 0 9.376-1.424 2.848-2.448 6.928-2.448 9.184 0 2.032-1.216 5.104-2.848 6.528-7.952 7.744-15.696 13.872-17.536 13.872-1.024 0-2.032 2.24-2.032 4.896 0 4.48 1.024 4.688 14.688 5.92 17.328 1.424 21.008-1.024 23.248-14.88 0.816-4.48 2.24-8.768 3.056-9.376 2.448-1.424 2.24-34.672-0.208-39.152-1.024-1.84-3.472-6.928-5.296-11.216s-8.56-13.056-14.88-19.376c-6.32-6.32-11.216-12.24-11.008-13.056 0.416-0.816-1.632-1.632-4.48-1.632-3.264 0-5.104-1.216-5.104-3.264 0-1.632 0.816-2.656 1.84-2.032s2.448-1.216 3.056-4.080c1.424-5.296 11.632-17.136 14.88-17.136 0.816 0 4.896-3.664 8.768-8.16s8.768-8.16 10.816-8.16c1.84 0 3.472-0.816 3.472-2.032 0-1.024 2.24-2.448 5.104-3.264 2.848-0.608 5.104-1.84 5.104-2.656 0-0.608 2.848-2.448 6.528-4.080 3.472-1.632 8.16-4.688 10.192-6.736 2.24-2.24 5.296-3.472 7.136-2.848 1.632 0.608 5.504 0 8.368-1.424 16.928-8.56 20.192-9.584 31.616-9.184 8.368 0.416 12.24-0.208 13.664-2.24 2.848-4.896 9.184-4.48 11.216 0.416 1.216 2.448 4.896 5.296 8.16 6.528 3.472 1.024 6.928 3.056 7.744 4.48s3.872 2.656 6.528 2.656c2.848 0 5.104 1.024 5.104 2.032 0 1.216 1.216 2.032 2.848 2.032 1.424 0 3.872 1.424 5.296 3.056s4.080 3.056 5.92 3.056c1.84 0 6.112 2.656 9.584 5.712 3.664 3.056 9.376 7.744 12.848 10.608 3.264 2.848 6.112 6.32 6.32 7.744 0 1.216 0.816 2.448 1.632 2.448 3.264 0 13.264 23.456 14.272 33.248 0.416 5.296 1.632 9.584 2.656 9.584 2.656 0 2.24 60.576-0.208 62.208-1.024 0.608-1.84 4.288-1.84 7.744l0.208 6.528 1.632-6.112c1.424-5.504 1.632-5.296 1.84 3.056 0 6.528-0.416 8.368-1.84 6.112-1.632-2.448-2.032-2.032-2.032 1.632 0 2.848-0.816 4.288-2.24 3.264-1.424-0.816-1.84 0-1.024 2.448 0.608 2.24 0.416 4.896-0.416 6.32s-1.84-2.656-2.032-9.184c-0.608-14.688-1.024-16.72-4.080-22.224-3.264-5.92-3.264-49.36 0-57.104 2.848-6.928 3.664-13.056 1.632-11.824s-4.48-4.896-2.848-7.344c1.424-2.24-3.264-2.448-6.928-0.208-1.424 1.024-2.032 3.264-1.216 5.104 0.608 1.84 0.416 3.472-0.816 3.472s-2.24 11.632-2.24 30.8c-0.208 16.928-0.416 31.408-0.608 32.224 0 0.608 0 6.528 0.208 13.056 0.208 7.952 1.024 11.632 2.848 11.632 1.632 0 2.848 3.056 3.056 7.552 0.608 9.376 1.024 9.584 9.376 9.376 5.296-0.208 7.344 1.024 10 5.504 1.84 3.056 2.848 6.112 2.032 6.736-0.608 0.816 0.416 3.664 2.24 6.32 1.84 2.848 3.264 6.928 3.264 9.376 0 2.24 1.424 4.080 3.056 4.080s3.056 1.424 3.056 3.056c0 1.632 1.024 3.056 2.032 3.056 1.216 0 2.032 2.24 2.032 4.896 0 2.848-0.816 5.712-2.032 6.32-1.024 0.608-2.032 3.872-2.032 7.136 0 5.712-2.24 8.976-16.72 24.48-3.264 3.264-5.712 6.528-5.712 7.136s-2.24 4.688-5.104 8.768c-3.264 4.896-5.104 6.32-5.104 3.872 0-1.84 1.024-3.472 2.032-3.472 1.216 0 2.032-1.024 2.032-2.24s-1.84-1.84-4.080-1.216c-3.056 0.816-4.080 0.208-3.664-2.24 0.416-2.656-1.216-3.664-6.928-4.080-6.528-0.608-8.768 0.416-16.32 8.16-11.824 11.632-14.48 18.144-15.088 36.512-0.608 15.296-6.528 32.432-11.216 32.432-1.024 0-1.84 1.424-1.84 3.056s-0.816 3.056-2.032 3.056c-1.024 0-2.656 2.448-3.264 5.712-0.816 3.056-2.032 6.528-3.056 7.552-0.816 1.216-1.84 5.104-2.24 8.976-0.608 6.528-5.504 11.824-5.104 5.92zM217.36 470.88c-1.216-6.736-3.056-7.344-3.056-1.216 0 3.056 0.816 5.504 1.84 5.504 1.216 0 1.632-2.032 1.216-4.288zM193.088 471.696c-1.84-1.84-17.536-2.448-17.536-0.816 0 0.816 4.288 1.424 9.376 1.632s8.768-0.208 8.16-0.816zM244.896 469.040c0-2.24-0.816-4.288-2.032-4.288-5.92-1.024-6.736-0.416-7.136 3.872-0.208 3.472 0.816 4.48 4.48 4.48 3.264 0 4.688-1.216 4.688-4.080zM195.952 459.872c0-1.632-1.424-3.056-3.056-3.056s-3.056 1.424-3.056 3.056c0 1.632 1.424 3.056 3.056 3.056s3.056-1.424 3.056-3.056zM211.856 427.040c3.056-2.032 6.528-2.656 10.4-1.84 3.472 0.608 6.528 0.416 7.344-1.024 0.608-1.024 2.24-1.632 3.264-1.024 2.848 1.84 2.24-1.024-1.216-4.288-1.632-1.84-3.056-5.296-3.056-7.744 0-2.656-2.24-10-5.104-16.32s-5.104-13.264-5.104-15.504c0-3.056-1.424-4.080-5.104-4.080-3.264 0-5.104 1.216-5.104 3.056s-1.216 3.664-2.448 4.080c-1.84 0.816-2.656 5.296-2.24 13.872 0.208 11.216 0 11.632-1.024 3.472-0.816-5.712-1.84-7.952-2.656-5.92-0.816 1.632-1.024 5.712-0.608 9.184 0.816 4.896 0.608 5.296-1.024 1.84-1.84-3.872-2.032-3.872-2.032 0.608-0.208 2.448 1.216 5.104 2.848 5.712 4.080 1.632 3.872 6.928-0.208 10-3.056 2.032-3.056 2.656 0.208 5.712 4.288 4.288 6.928 4.288 12.848 0.208zM234.080 426.832c-0.816-0.608-1.424 0-1.424 1.424s0.608 2.032 1.424 1.424c0.608-0.816 0.608-2.032 0-2.848zM200.032 416.016c0-1.024-1.024-2.032-2.24-2.032-1.024 0-1.424 1.024-0.816 2.032 0.608 1.216 1.632 2.032 2.24 2.032 0.4 0 0.816-0.816 0.816-2.032zM108.656 380.336c1.024-4.48 0.416-5.104-4.688-5.104-3.264 0-5.92 0.816-5.92 1.84 0 8.976 9.184 11.632 10.608 3.264zM174.736 380.336c0.816-3.664 2.656-5.104 6.32-5.104 4.688 0 4.896-0.608 4.48-11.216-0.4-7.744-1.424-11.216-3.264-11.216-1.424 0-2.656-0.816-2.656-2.032 0-1.024-1.424-2.032-3.056-2.032s-3.056-0.816-3.056-2.032c0-1.024-1.424-2.032-3.264-2.032s-2.448 1.024-1.632 2.656c0.816 1.216-0.4 0.816-2.656-1.024-2.24-2.032-7.344-3.664-11.424-3.664s-7.952-0.816-8.56-2.032c-0.608-1.024-5.296-2.032-10.4-2.032-4.896 0-8.976 1.024-8.976 2.032 0 1.216-0.816 2.032-2.032 2.032-1.024 0-3.872 1.84-6.112 4.080-4.080 4.080-5.296 14.48-2.848 23.456 1.216 4.896 19.984 11.216 32.832 11.216 4.688 0 9.184 1.024 9.792 2.032 0.608 1.216 4.48 2.032 8.16 2.032 5.92 0 7.344-0.816 8.368-5.104zM293.232 378.288c3.872-1.632 9.376-3.056 12.032-3.056 2.848 0 4.896-1.216 4.896-3.056 0-1.632 1.216-2.448 2.848-1.84 3.056 1.216 9.376-4.288 9.376-8.16 0-1.424-2.656-5.92-6.112-9.584-3.264-3.872-6.112-7.552-6.112-8.368 0-1.024-1.424-1.632-3.056-1.632s-3.056-1.024-3.056-2.24c0-1.632-1.024-1.632-3.056 0.208-1.84 1.632-5.712 2.032-10.192 1.216-7.952-1.632-8.768-2.656-3.664-6.32 3.056-2.24 3.056-2.656-1.424-2.24-2.848 0-8.368 3.472-12.64 7.952-4.288 4.080-8.976 7.552-10.816 7.552-1.632 0-4.688 0.816-6.736 1.84-1.84 1.024-5.104 2.448-6.928 3.056-5.712 1.632-4.896 16.72 1.024 22.848 3.872 4.288 6.32 4.896 20.4 4.896 9.584 0 18.768-1.216 23.248-3.056zM234.288 312.208l-0.816-12.432h13.872c13.248 0 13.872-0.208 13.872-4.896 0-3.472-1.424-5.296-5.104-6.112-2.848-0.816-5.104-2.24-5.104-3.264 0-1.216-1.424-2.032-3.056-2.032s-3.056-1.632-3.056-3.872c0-2.032-1.424-6.528-3.056-9.584-4.688-9.184-3.872-19.376 2.24-25.904 2.848-3.056 6.112-4.896 7.344-4.288 1.424 1.024 1.84 0.208 1.024-1.84s-0.4-3.264 1.024-2.848c2.656 0.608 3.872-6.112 2.24-12.432-0.816-3.472-1.84-4.080-3.264-2.656-3.056 3.056-6.112 2.848-4.288-0.208 0.816-1.632 0.608-2.032-0.4-1.024s-2.032 2.656-2.032 3.664c-0.208 1.024-0.4 2.848-0.608 3.872 0 1.216-2.448 2.032-5.296 2.032-4.48 0-5.104-0.816-5.104-8.16s0.608-8.16 5.104-8.16c2.848 0 5.104-0.608 5.104-1.424 0-1.024 0.608-3.664 1.216-5.92 2.24-8.16-12.64-16.928-18.56-11.216-1.216 1.216-6.112 2.24-11.008 2.656-5.104 0.4-9.376 1.632-9.792 3.056-0.4 1.216 2.032 5.104 5.296 8.56l6.32 6.528v55.056c0 36.304 0.608 54.656 2.032 53.84 1.216-0.608 2.032-0.416 2.032 0.816 0 2.448 8.56 4.080 11.008 2.032 1.024-0.816 1.424-7.136 0.816-13.872zM196.144 274.288c-0.4-14.688-1.632-25.904-3.056-27.936-2.656-3.872-1.84-15.904 1.024-15.904 0.816 0 2.032 3.472 2.448 7.744l0.816 7.552 0.208-7.552c0.4-6.32-0.608-8.16-5.712-11.216-3.264-1.84-6.112-4.688-6.112-6.112s-1.424-2.656-3.056-2.656c-1.632 0-3.056-0.816-3.056-2.032 0-1.024-0.816-2.032-2.032-2.032-1.024 0-2.032 2.848-2.032 6.112 0 3.472 1.024 6.112 2.032 6.112 1.216 0 2.032 1.84 2.032 4.080 0 3.056-1.216 4.080-5.504 3.872-3.264 0-4.48-0.608-3.056-1.216 4.288-1.632 2.656-5.104-2.032-4.288-3.472 0.4-4.896 2.24-5.296 6.32-0.4 3.056-1.632 5.104-2.656 4.48-1.024-0.816-1.84 0.208-1.84 1.84 0 1.84 1.024 3.264 2.24 3.264s3.664 1.424 5.296 3.264c2.032 1.84 5.104 2.656 7.744 2.032 4.896-1.216 7.136 1.632 7.136 8.56 0 3.056-0.4 3.056-2.032 0.416-1.424-2.448-2.032-1.632-2.032 3.056s-0.608 5.504-2.032 3.056c-1.424-2.448-2.032-1.632-2.032 3.056s-0.608 5.504-2.032 3.056c-1.632-2.448-2.032-2.24-2.032 1.632 0 2.656-1.216 4.48-3.056 4.48-1.632 0-3.056 1.424-3.056 3.056s-0.816 3.056-2.032 3.056c-3.056 0-2.448 9.792 0.608 10.816 1.216 0.416 7.136 0.416 12.64 0 7.952-0.816 11.008-0.416 13.056 2.24 1.632 1.84 4.288 3.056 6.112 2.848 2.848-0.608 3.264-4.080 2.448-25.088zM294.24 255.92c0.608-2.848 0.208-5.104-0.816-5.104s-1.216-1.024-0.416-2.448c0.816-1.216 0.608-1.632-0.608-1.024-1.216 0.816-4.288-0.816-6.928-3.472-4.288-4.48-12.032-5.104-12.032-1.024 0 1.024-2.656 1.84-6.112 1.84-5.92 0-7.136 1.632-6.112 8.16 0.816 5.296 7.136 7.952 19.584 8.16 11.824 0 12.64-0.416 13.456-5.104zM254.48 245.52c-0.608-0.608-2.448-0.816-3.872-0.208-1.632 0.608-1.024 1.216 1.216 1.216 2.24 0.208 3.472-0.4 2.656-1.024zM277.52 229.408c0-5.92-6.928-7.344-8.976-1.84-1.632 4.288 0.208 6.928 5.104 6.928 2.848 0 3.872-1.424 3.872-5.104z"></path>
<path d="M309.344 417.040c0.816-1.632 2.24-3.056 3.264-3.056 1.216 0 1.024 1.216-0.416 3.056-1.424 1.632-2.848 3.056-3.264 3.056s-0.208-1.424 0.416-3.056z"></path>
<path d="M304.032 412.144c0-1.216 0.816-2.656 2.032-3.264s1.424 0.208 0.816 1.84c-1.424 3.664-2.848 4.288-2.848 1.424z"></path>
<path d="M355.024 320.368c0-3.472 7.552-11.008 8.768-8.976 0.608 1.024-1.024 3.872-3.872 6.528-2.656 2.656-4.896 3.664-4.896 2.448z"></path>
<path d="M366.24 316.096c0.608-1.024 1.632-2.032 2.24-2.032s0.416 1.024-0.208 2.032c-0.608 1.216-1.632 2.032-2.24 2.032s-0.416-0.816 0.208-2.032z"></path>
<path d="M334.624 312.016c0-1.424 0.608-2.032 1.424-1.424 0.608 0.816 0.608 2.032 0 2.848-0.816 0.608-1.424 0-1.424-1.424z"></path>
<path d="M366.64 309.568c-3.264-1.632-3.264-2.24-0.416-6.32 1.84-2.448 3.056-8.768 3.056-14.688 0-6.112 1.216-12.032 3.056-14.48 2.24-2.848 2.848-10 3.056-27.728 0-13.664 0.816-24.272 2.032-25.088 3.664-2.24 2.032-8.368-3.472-13.456-2.848-2.656-4.688-3.664-3.872-2.448 1.024 1.84 0.416 2.24-1.424 1.424-4.288-1.632-5.92-8.976-2.24-10.4 3.472-1.216 4.080-29.168 0.608-32.624-4.896-4.896 4.48-39.36 12.032-44.048 1.216-0.816 2.448-4.896 2.448-8.56v-7.136h-21.216c-20.8 0-21.216-0.208-22.432-4.896-1.216-5.296 0.208-11.424 2.848-11.424 0.816 0 2.24-2.448 3.056-5.504 1.424-5.296 1.632-5.296 3.056-1.632 1.632 3.872 1.84 3.872 1.84-0.416 0.208-2.656-1.024-4.688-2.24-4.688-1.84 0-1.632-0.816 0.416-2.24 3.664-2.448-6.32-1.424-19.376 2.032-4.48 1.216-19.584 2.24-33.648 2.24-16.512-0.208-29.36 1.024-36.704 3.056-6.112 1.632-13.664 3.056-16.72 3.056s-6.112 1.024-6.736 2.032c-2.032 3.472-15.296 2.448-15.296-1.024 0-2.032-2.032-3.056-6.32-3.056-5.712 0-6.32-0.608-5.504-5.104 0.816-3.472 0.208-5.104-1.632-5.104-1.632 0-2.848-2.24-2.848-5.104 0-6.32-2.032-6.32-8.56-0.416-6.112 5.504-11.424 8.976-16.928 11.424-6.528 2.848-19.776 18.96-18.768 22.848 0.4 1.84-0.816 5.504-3.056 8.16-2.032 2.656-3.664 4.080-3.472 2.848 1.024-7.136-1.024-6.928-8.56 0.816-4.48 4.896-9.376 8.976-11.008 9.184s-4.688 2.848-7.136 5.92c-4.080 5.104-10.192 5.712-10.192 0.608 0-1.216-3.264-2.24-7.952-2.24-5.504 0-7.552 0.816-6.928 2.656 0.608 1.632 0 2.032-2.032 1.216-1.84-0.608-3.472 0.4-4.288 2.656-0.608 2.032-3.472 6.32-6.32 9.584s-5.104 7.136-5.104 8.768c0 1.424-0.816 2.656-2.032 2.656-1.024 0-2.032 1.024-2.032 2.032 0 1.216-2.24 6.736-5.104 12.64-4.080 8.56-5.296 14.688-6.32 35.072-0.816 13.664-2.032 25.088-2.656 25.696-4.080 3.472-8.768 16.32-7.744 21.616 3.056 15.296 6.112 26.512 8.16 27.536 1.024 0.816 2.24 4.288 2.448 7.952 0.416 3.664 1.424 7.136 2.448 7.952 1.024 0.608 1.84 4.080 2.032 7.344 0 3.472-0.208 4.48-0.816 2.656-0.416-2.032-2.656-3.664-4.688-3.664-3.056 0-6.928-6.32-6.32-10.608 0.208-1.024-1.84-1.632-4.48-1.632-3.264 0-3.664-0.608-1.84-1.84 2.24-1.216 2.032-2.032-1.024-3.264-2.032-1.024-4.288-1.424-5.104-1.424-1.024 0.208-1.632-2.656-1.632-6.32s-1.424-8.56-3.056-10.816c-3.872-5.104-3.872-17.952 0-21.824 1.632-1.632 3.264-5.92 3.472-9.184 0.208-3.472 1.216-5.712 2.032-5.296 0.816 0.608 1.632-2.24 1.632-6.32 0-4.48 1.216-7.744 3.056-8.368 3.872-1.632 4.288-19.376 0.608-25.904-2.656-4.896-2.448-15.696 0.608-18.56 1.024-1.216 1.84-3.264 1.84-4.896 0-2.24 10.816-17.952 14.48-20.8 0.816-0.608 1.632-2.848 2.032-5.104s3.056-5.104 5.504-6.32c2.656-1.216 4.688-2.848 4.688-3.664-0.608-5.104 0.208-7.344 2.448-7.344 1.216 0 4.288-3.664 6.32-8.16 2.24-4.48 4.688-8.16 5.712-8.16 0.816 0 1.632-1.216 1.632-2.656 0-4.688 7.136-11.424 11.824-11.008 5.296 0.416 5.92 4.688 1.424 9.792-4.288 4.48-2.032 14.064 3.264 14.064 2.032 0 3.664 0.608 3.664 1.632-0.608 4.080 0.608 4.288 4.48 0.608 2.656-2.448 4.48-7.136 5.104-12.432 0.416-4.896 1.632-9.792 2.848-11.216 1.024-1.216 1.424-3.056 0.608-3.664-0.608-0.816 1.216-1.424 4.080-1.424 3.056 0 5.504-0.816 5.504-1.84s2.448-2.448 5.504-3.264c3.056-0.608 7.552-3.472 10.192-6.32 2.448-2.656 5.104-4.896 5.712-4.896s3.664-2.24 6.736-5.104c3.056-2.848 6.528-5.104 7.744-5.104 1.424 0 2.848-1.424 3.664-3.056 0.608-1.632 2.848-3.056 5.104-3.056 2.032 0 4.288-1.424 5.104-3.056 0.608-1.632 1.84-3.056 2.656-2.848 2.848 0.608 18.96-6.928 18.96-8.768 0-0.816 1.84-1.632 4.080-1.632 5.296 0 22.432-10.608 22.432-13.872 0-1.424 1.024-2.032 2.032-1.424 1.216 0.608 2.656-0.208 3.264-1.84 0.816-1.84 3.472-3.264 6.736-3.056 2.848 0 4.080 0.608 2.848 1.216-1.632 0.608-2.656 4.688-2.656 10 0 4.896-0.816 8.976-1.84 8.976-2.656 0-8.368 12.032-8.368 17.744 0 4.288 0.816 4.688 9.184 4.688 6.32 0 9.584-1.024 10.4-3.056 0.816-1.632 3.264-3.056 5.712-3.056 2.24 0 6.112-1.424 8.16-3.056 2.24-1.632 5.712-3.056 7.744-3.056s3.664-0.816 3.664-2.032c0-2.848 6.928-2.448 9.792 0.416 2.032 2.032 3.056 2.032 4.48-0.208 1.424-2.448 2.24-2.448 4.896-0.416 3.872 3.264 33.856 3.472 39.76 0.416 2.24-1.216 6.32-2.24 8.976-2.24 2.848 0 6.112-1.424 7.552-3.056s4.896-3.056 7.552-3.056c3.472 0 8.368-3.264 14.688-9.792 10.192-10.608 18.768-16.72 23.248-16.72 1.632 0 4.080-1.424 5.504-3.056s4.688-3.056 7.136-3.056c2.448 0 7.952-1.424 11.824-3.056 8.16-3.472 27.328-4.080 31.808-1.216 2.448 1.632 2.448 2.448 0.416 5.104-1.632 1.84-4.688 3.472-7.136 3.472-2.24 0.208-0.608 1.024 3.872 1.84l8.16 1.424-10.608 0.4c-5.92 0-10.816 1.216-10.816 2.24 0 1.216-1.84 2.032-4.288 2.032-2.24 0-3.472-0.816-2.848-2.032 3.664-5.92-12.032 0.608-19.584 8.16-3.264 3.264-9.584 7.952-14.064 10.4-4.48 2.656-8.16 5.92-8.16 7.344s-0.608 2.656-1.632 2.656c-0.816 0-3.872 2.032-6.736 4.688-2.848 2.448-6.736 5.504-8.768 6.528-2.032 1.216-4.896 5.712-6.528 10.192-3.472 10.192-3.472 10.192 0 13.872 3.664 3.472 32.224 3.264 33.44-0.416 0.416-1.216 2.656-2.24 5.104-2.24s7.136-1.424 10.4-3.056c4.288-2.24 11.824-3.056 28.544-2.848 14.88 0.208 20.592 0.816 16.512 1.84-3.264 0.816-4.896 1.632-3.264 1.84s0.816 1.84-2.448 4.288c-6.112 4.896-7.552 5.104-7.552 1.024 0-1.84-3.056 0.208-7.952 5.104-4.288 4.48-8.56 8.16-9.376 8.16-0.608 0-2.656 1.216-4.080 2.448-6.736 5.92-9.184 7.744-10.816 7.744-1.024 0-4.080 3.056-6.928 6.736-3.056 3.472-7.744 9.376-10.816 12.64-12.032 13.872-13.456 17.952-13.456 37.728 0 11.824-0.608 17.952-2.032 17.136-1.024-0.608-1.424-4.48-0.816-8.56 0.608-5.296 0.416-6.736-1.024-4.48-3.264 5.104-2.24 13.056 2.24 16.928 3.872 3.472 4.688 3.472 12.64 0.4 10.816-4.080 48.736-3.664 49.552 0.608 0.208 1.424 0 1.632-0.608 0.4-1.424-3.264-5.296-2.448-4.080 0.816 0.816 1.84 0.208 2.656-1.216 2.032-8.56-3.264-38.144 18.56-38.144 27.728 0 2.24-0.816 4.080-1.84 4.080s-2.656 2.032-3.472 4.688c-0.816 2.448-3.472 7.952-6.112 12.032-4.288 6.528-4.896 10.192-5.104 30.176 0 12.432-0.816 22.224-1.424 21.408-1.424-1.216-8.56 12.64-8.56 16.72 0 1.424-1.024 2.656-2.24 2.656s-1.84-1.424-1.024-3.056c0.608-1.632 0.208-3.056-1.024-3.056-1.024 0-1.632 2.448-1.424 5.296 0.608 5.92-3.264 7.952-9.184 4.48zM370.72 306.512c-0.816-0.608-1.424 0-1.424 1.424s0.608 2.032 1.424 1.424c0.608-0.816 0.608-2.032 0-2.848zM375.408 198.416c0-2.24 2.032-2.656 8.768-1.632 6.112 0.816 7.744 0.608 5.504-1.024-2.24-1.424-2.24-2.032-0.416-2.032 1.632 0 1.024-1.632-1.632-4.48-4.080-4.288-4.48-4.48-6.928-1.216s-2.848 3.264-5.92 0c-3.264-3.056-3.472-3.056-3.472 0.208 0 1.84 1.216 3.472 2.656 3.472 1.216 0-0.208 1.84-3.264 3.872-3.872 2.448-4.896 4.080-3.056 4.688 4.896 1.632 7.744 1.024 7.744-1.84zM229.808 75.856c0.208-1.424 0-1.632-0.608-0.416-1.632 3.472-6.736 2.448-5.296-1.216 0.608-1.84 3.056-2.848 6.528-2.448 4.48 0.608 5.296-0.208 5.296-4.48 0-3.264-1.216-5.296-3.472-5.712s-3.664 0.608-3.664 2.448c0 2.24-1.84 3.264-6.32 3.264-4.896 0-6.112 0.608-5.104 3.264 0.608 1.84 1.216 4.288 1.216 5.712 0 3.472 10.816 3.056 11.424-0.416zM216.336 74.624c0-0.608-0.816-1.632-2.032-2.24-1.024-0.608-2.032-0.208-2.032 0.816 0 1.216 1.024 2.24 2.032 2.24 1.216 0 2.032-0.416 2.032-0.816z"></path>
<path d="M91.936 140.704c0-1.424 0.608-2.032 1.424-1.424 0.608 0.816 0.608 2.032 0 2.848-0.816 0.608-1.424 0-1.424-1.424z"></path>
<path d="M93.984 134.592c0-1.424 0.608-2.032 1.424-1.424 0.608 0.816 0.608 2.032 0 2.848-0.816 0.608-1.424 0-1.424-1.424z"></path>
<path d="M469.84 76.048c0.816-0.608 2.032-0.608 2.848 0 0.608 0.816 0 1.424-1.424 1.424s-2.032-0.608-1.424-1.424z"></path>
<path d="M254.064 30.576c0.608-1.024 1.632-2.032 2.24-2.032 0.416 0 0.816 1.024 0.816 2.032 0 1.216-1.024 2.032-2.24 2.032-1.024 0-1.424-0.816-0.816-2.032z"></path>
</svg>
