<!-- Generated by IcoMoon.io -->
<svg version="1.1" xmlns="http://www.w3.org/2000/svg" width="512" height="512" viewBox="0 0 512 512">
<title>monsters-of-order</title>
<g id="icomoon-ignore">
</g>
<path d="M258.384 510.944c-5.936-0.608-7.376-1.44-5.12-2.864 2.048-1.232 1.44-1.84-2.656-1.84-4.72 0-5.744-0.816-5.744-5.12 0-2.864-0.816-5.12-2.048-5.12-1.024 0-2.048-1.232-2.048-2.464 0-1.44-2.256-7.168-5.12-12.704-5.744-11.472-6.352-16.608-2.256-18.24 5.744-2.256 11.472-18.656 11.472-32.8 0-7.376 0.816-13.936 1.632-14.544 3.072-1.84 4.512-34.432 2.256-47.344-1.232-6.768-2.464-18.24-3.072-25.616-0.816-12.912-2.048-17.008-8.192-29.312-1.632-3.28-2.864-7.168-2.864-8.816s-1.44-3.488-3.072-4.096c-1.632-0.816-3.072-2.864-3.072-4.72 0-4.304-8.192-12.496-12.496-12.496-1.632 0-5.328-1.632-8.608-3.696l-5.536-3.888 5.12-5.536c2.864-3.072 5.12-6.352 5.12-7.584 0-1.024 1.232-1.84 2.656-1.84 1.232 0 3.696-2.864 5.328-6.352 1.44-3.488 5.328-9.024 8.608-12.304s5.936-8 5.936-10.048c0-2.256 0.816-4.096 1.84-4.096s2.256-22.128 2.464-49.184c0.608-35.664 1.44-49.6 3.488-51.648 6.56-6.56 0.608-24.176-8.4-24.176-1.84 0-3.488-0.816-3.488-2.048 0-1.024-1.84-2.048-4.096-2.048s-4.096-1.024-4.096-2.256c0-1.232 1.84-2.672 4.096-3.28 3.696-1.024 5.12-4.304 4.304-9.216 0-1.024 4.72-1.632 10.448-1.84 65.792-0.608 78.080-0.208 72.352 2.256-3.696 1.632-3.696 1.84 1.232 1.84 5.12 0.208 14.144 6.768 14.144 10.448 0 1.024-1.44 1.232-3.488 0.608-2.256-0.816-2.864-0.608-1.84 1.024 2.048 3.488-0.416 6.56-3.888 5.12-1.632-0.608-3.072-3.28-3.072-5.936 0-3.888-1.024-4.912-5.12-4.912s-5.12 1.024-5.12 4.912c0 3.696 1.232 5.328 4.512 5.744 2.464 0.416 4.72 1.84 5.328 3.488s0 2.256-1.024 1.632c-1.024-0.608-3.488 0.608-5.328 2.864-2.864 3.28-3.488 8.4-3.488 28.288 0 21.52-0.416 24.8-4.304 29.712-2.256 3.072-3.696 6.96-3.072 8.608 1.44 3.888 6.144 2.656 6.56-1.44 0.416-6.56 0.816-8 2.656-8 1.024 0 2.256 6.768 2.864 14.96 0.608 8 1.84 17.632 2.464 21.312 1.232 5.744 0.816 6.56-3.28 7.168-3.28 0.416-5.12 2.256-5.536 5.536-0.416 2.656-3.072 7.168-5.744 10.24-5.536 5.936-11.072 16.608-11.072 21.52 0 1.84-0.816 3.28-2.048 3.28s-2.048 6.768-2.048 16.192c0 10.24-1.024 18.24-3.072 21.936-3.888 7.584-3.888 20.080 0 24.192 1.632 1.632 3.072 5.536 3.072 8.4 0 6.56 6.352 25.616 8.608 25.616 1.024 0 1.632 2.464 1.632 5.744 0.208 3.072 1.44 7.792 3.072 10.656s2.864 7.584 3.072 10.448c0 2.864 0.608 5.936 1.232 6.56 1.84 1.84 8.816 22.128 9.024 25.824 0 1.632 1.44 4.72 3.28 6.56 3.072 3.488 3.072 4.096 0 8.816-1.84 2.864-3.28 6.976-3.28 9.216s-0.816 4.512-1.84 5.12c-0.816 0.608-2.256 3.696-2.864 6.768-0.608 3.28-2.864 7.584-4.912 9.84-4.912 5.12-10.048 15.584-11.888 23.568-0.816 3.28-2.256 6.144-3.28 6.144s-1.84 1.44-1.84 3.28c0 4.512-14.144 21.728-16.608 20.288-1.024-0.816-1.232 0.208-0.608 1.84 0.608 1.84 1.024 3.072 0.608 2.864s-4.512-0.608-8.816-1.024zM275.6 281.808c0-3.696-0.816-4.72-3.072-3.888-3.28 1.232-4.096 5.328-1.632 7.584 2.656 2.864 4.72 1.232 4.72-3.696z"></path>
<path d="M130.080 498.032c0-1.024-1.84-2.048-4.304-2.048-4.912 0-16.4-5.936-18.848-9.632-0.816-1.44-2.864-2.656-4.096-2.656-1.44 0-5.536-2.656-9.216-6.144-3.696-3.28-8-6.144-9.216-6.144-1.44 0-1.232-0.816 0.608-2.048 2.672-1.84 2.672-2.048 0-2.048-1.84 0-5.536-2.256-8.192-5.12-2.864-2.864-6.768-6.768-8.608-8.816-2.048-1.84-3.696-5.536-3.696-8 0-2.656-0.816-4.72-2.048-4.72-1.024 0-2.048-1.632-2.048-3.488 0-2.048-1.44-6.352-3.072-9.632-1.632-3.072-3.072-9.216-3.072-13.328s-1.232-8.816-2.464-10.048c-1.632-1.632-2.864-10.864-3.28-24.592-0.608-18.448-0.208-22.544 2.464-24.8 1.84-1.44 3.28-5.328 3.28-8.4s1.44-6.768 3.072-8.192c1.632-1.44 3.072-3.888 3.072-5.744 0-1.632 2.256-6.144 5.12-9.84 6.352-8.192 6.352-10.448 0.608-15.984-6.768-6.144-11.888-14.752-11.888-19.68 0-2.256-0.816-4.096-1.84-4.096s-2.256-2.048-2.864-4.512c-1.232-4.096 9.424-26.432 13.12-27.872 1.024-0.416 1.84-2.656 1.84-4.912 0-4.096 5.12-14.752 9.216-19.264 5.536-5.936 15.776-9.024 29.712-9.024 20.912 0 22.96-2.256 22.128-25.408-0.416-12.496-1.232-17.632-3.072-17.632s-2.672-4.096-2.672-14.352c0-11.472-0.608-14.352-3.072-14.352-1.632 0-3.072-1.024-3.072-2.048 0-1.232-1.84-4.096-3.888-6.56-3.888-4.096-3.888-4.304 0.416-11.072 4.72-7.376 5.744-7.584 25.008-6.768 51.040 2.048 51.44 2.048 72.352 0.608 14.352-1.024 16.8-0.608 16.8 2.048 0 1.84 1.232 3.28 2.656 3.28 1.84 0 1.84 0.416-0.208 1.84-1.44 0.816-3.072 3.488-3.28 5.536-0.416 2.048-1.84 3.696-2.864 3.488-1.44-0.416-1.84 0.816-1.024 2.864s0.416 2.864-0.816 2.048c-1.232-0.816-3.488-0.208-5.12 1.232-1.44 1.44-6.768 4.304-11.888 6.56-5.12 2.048-10.864 5.744-13.12 7.792-3.488 3.488-3.696 4.912-1.232 14.544 1.44 6.352 2.048 16.8 1.232 26.848-0.608 9.024-1.632 31.152-2.464 49.184l-1.232 32.784 6.144 6.768c3.28 3.488 6.768 6.56 8 6.56 2.464 0 12.912 11.472 12.912 14.144 0 1.024 1.44 2.256 3.072 3.072 1.632 0.608 3.072 2.464 3.072 3.888 0 1.632 1.44 4.096 3.072 5.536s3.072 4.304 3.072 6.144c0 2.048 1.024 4.096 2.256 4.512 1.024 0.416 2.256 3.696 2.256 7.168 0.208 4.912 1.024 6.144 3.488 5.328 2.256-0.816 1.84 0-0.816 2.048-3.696 3.072-3.696 3.28-0.416 3.488 3.072 0 3.488 2.864 3.488 29.52 0 16.4-0.816 30.128-1.84 30.736s-2.464 4.512-3.072 8.4c-0.816 3.888-2.256 7.168-3.28 7.168-0.816 0-2.256 2.864-3.072 6.144-0.816 3.488-2.256 6.144-3.28 6.144s-1.84 2.256-1.84 5.12c0 2.864-0.816 5.12-1.84 5.12s-2.656 1.84-3.28 4.096c-0.816 2.256-7.792 10.656-15.568 18.656-13.728 13.936-14.752 14.544-19.472 12.096-4.096-2.256-5.744-2.256-10.048 0-2.864 1.44-5.12 3.888-5.12 5.328 0 2.464-5.744 5.936-8.608 5.328-1.024-0.208-1.632 0.608-1.632 1.632 0 1.232-1.44 2.048-3.072 2.048s-3.072 1.024-3.072 2.048c0 1.232-3.696 2.048-8.192 2.048s-8.192-0.816-8.192-2.048zM202.432 394.736c5.328-5.536 6.768-54.112 1.44-59.44-1.024-1.024-2.048-3.696-2.048-5.744s-0.816-3.696-1.632-3.696c-1.024 0-3.28-3.696-5.328-8.192-4.096-9.424-9.632-15.168-18.24-19.472-5.12-2.464-6.352-2.464-8.816 0-1.632 1.44-2.864 5.12-2.864 8 0 4.912 8.608 23.568 12.096 25.824s14.544 22.128 14.544 26.24c0 2.256 1.024 4.912 2.048 5.536 1.232 0.608 2.048 8.608 2.048 17.632 0 16.192 1.232 18.656 6.768 13.328zM109.584 291.024c0-1.024 1.44-2.048 3.072-2.048s5.328-2.256 8.192-5.12c4.512-4.72 5.12-6.976 5.12-20.496 0-17.216-1.84-19.472-15.984-19.472-6.352 0-9.424 1.44-15.376 7.584-6.352 6.352-7.584 8.816-7.584 16.4 0 4.912 1.84 12.704 4.096 17.008 3.696 7.168 5.12 8.192 11.28 8.192 3.888 0 7.168-0.816 7.168-2.048zM179.28 277.712c0-4.096-1.024-5.12-5.12-5.12s-5.12 1.024-5.12 5.12 1.024 5.12 5.12 5.12c4.096 0 5.12-1.024 5.12-5.12zM136.24 148.8c0-4.512-5.936-8.4-8.608-5.744-4.72 4.72-3.488 8.608 2.656 8.608 3.696 0 5.936-1.024 5.936-2.864zM216.16 127.072c0-1.024-0.416-2.048-0.816-2.048-0.608 0-1.632 1.024-2.256 2.048-0.608 1.232-0.208 2.048 0.816 2.048 1.232 0 2.256-0.816 2.256-2.048z"></path>
<path d="M367.824 461.136c0-1.44 0.608-2.048 1.44-1.44 0.608 0.816 0.608 2.048 0 2.864-0.816 0.608-1.44 0-1.44-1.44z"></path>
<path d="M367.824 457.248c-6.352-0.816-9.024-2.048-8.608-4.096 0.416-1.632-0.608-2.256-2.256-1.632-1.44 0.608-4.512-1.632-6.768-4.912-2.048-3.28-4.512-5.936-5.328-5.936-1.024 0-1.632-1.84-1.632-4.096s-2.256-7.792-5.12-12.304c-2.864-4.512-5.12-9.632-5.12-11.264 0-1.84-1.44-3.696-3.072-4.304-1.632-0.816-3.072-3.696-3.072-6.768 0-2.864-1.44-7.168-3.072-9.216-1.632-2.256-3.072-5.744-3.072-7.792s-0.816-3.696-2.048-3.696c-1.024 0-2.048-1.632-2.048-3.888 0-2.048-1.44-4.912-3.072-6.352s-3.072-4.72-3.072-7.376-0.816-4.912-1.84-4.912c-2.256 0-3.072-3.888-6.352-28.688-1.232-9.632-3.696-20.080-5.328-23.152-2.048-4.304-2.464-9.84-1.44-21.52 0.816-10.24 1.84-14.352 2.864-11.68s1.44 0.208 1.44-6.56c0-5.936 0.816-12.096 2.256-13.52 1.232-1.632 2.464-5.328 2.656-8.192s1.232-4.72 2.048-4.304c0.816 0.608 1.632 0.208 1.632-0.816 0-1.232 2.864-3.072 6.144-4.304 3.488-1.024 6.144-3.072 6.144-4.096 0-1.232 1.232-2.256 2.864-2.256s4.304-1.232 5.744-2.864c1.632-1.44 5.12-3.488 7.792-4.304 5.936-1.84 12.304-8.608 12.304-12.704 0-2.048 3.072-2.656 10.864-2.656 5.744 0.208 21.104 0.208 34.016 0.208 22.752 0 30.944 2.048 30.944 7.376 0 1.232 2.864 2.656 6.352 3.072 3.888 0.416 7.376 2.256 8.816 4.72 1.232 2.256 3.488 4.912 4.912 5.744 1.232 0.816 2.464 3.072 2.464 4.512 0 1.632 0.816 3.072 1.632 3.072 1.84 0 6.144 18.032 8 32.784 0.416 5.12 2.048 10.24 3.28 11.264 3.888 3.28 4.096 9.216 0.416 9.216-2.464 0-3.072 2.464-3.072 11.68 0 10.448-4.72 28.688-8.4 31.36-0.608 0.608-1.84 4.512-2.656 8.816-0.816 4.096-2.256 7.584-3.28 7.584-1.232 0-2.048 2.256-2.048 5.12s-0.816 5.12-1.84 5.12-2.464 2.656-3.28 6.144c-0.816 3.28-2.256 6.56-3.28 7.168-1.024 0.816-1.84 3.072-1.84 5.12s-2.656 6.56-6.144 9.84c-3.28 3.488-6.144 7.168-6.144 8.4s-0.816 2.256-1.84 2.256c-1.024 0-2.464 2.256-3.072 5.12-0.816 2.864-2.256 5.12-3.28 5.12-1.232 0-2.048 1.024-2.048 2.048 0 1.232-3.696 6.144-8.192 10.656-4.512 4.72-8.192 9.84-8.192 11.472 0 1.44-1.632 4.72-3.488 7.376-2.864 3.888-4.304 4.304-8.192 2.464-5.12-2.464-6.56-6.56-1.632-4.512 1.632 0.608 3.072 0.208 3.072-0.816 0-1.232-5.12-2.048-11.264-2.048-11.072 0-11.072 0-10.656 6.144 0.416 5.936 1.632 6.976 7.168 6.352 1.232-0.208 2.464 0.608 2.464 1.84 0 1.024 3.072 2.256 6.768 2.256 3.488 0.208 4.912 0.608 3.072 1.232-2.048 0.416-3.696 1.632-3.696 2.656s1.632 2.256 3.696 2.656c4.72 1.232-0.416 1.024-11.888-0.416zM394.672 304.976c2.048-2.656 3.696-6.352 3.888-8.4 0-2.048 1.024-3.072 2.256-2.464 1.232 0.816 2.656-0.416 3.28-2.864s1.84-4.304 2.864-4.304c1.024 0 1.84-0.816 1.84-1.84s3.696-7.376 8.4-14.352c8.608-12.704 9.024-17.632 2.464-20.080-2.048-0.816-6.768-4.512-10.24-8.192-6.144-6.352-6.768-8.192-6.768-19.264v-12.096h-8c-4.72 0-9.424 1.44-11.264 3.28-1.84 1.632-3.28 2.656-3.28 1.84 0-0.608-1.84-0.208-4.304 1.232-3.072 1.632-3.696 2.864-2.048 4.512 1.232 1.232 2.256 6.56 2.256 11.68 0 8.816-0.416 9.632-7.168 12.912-4.096 1.84-8.608 3.488-10.24 3.488-1.84 0-3.072 2.048-3.072 5.12 0 2.864 0.816 5.12 1.84 5.12s2.256 1.632 3.072 3.696c1.232 3.888 5.12 10.24 8.816 14.144 1.232 1.44 3.488 5.328 5.12 8.816 1.44 3.28 3.28 6.144 4.096 6.144s2.256 3.696 2.864 8.192c1.632 9.632 6.976 11.072 13.328 3.696zM310.448 291.024c0-3.28 0-6.768 0.208-7.584 0.416-4.096-3.888-2.048-6.144 2.656-1.84 4.096-1.84 6.144 0 8.192 3.696 4.512 5.936 3.28 5.936-3.28zM321.504 253.12c0.608-1.632 0-2.864-1.232-2.464-1.232 0.208-2.656-0.816-3.072-2.256-0.608-1.44 1.44-3.072 5.12-3.696 3.888-0.816 5.936-2.256 5.328-3.888-1.232-3.072-7.792-5.12-10.24-3.28-2.864 2.048-3.28 11.888-0.816 13.52 1.84 1.232 1.84 2.048-0.208 3.28-2.256 1.44-2.256 1.84 0.416 1.84 1.84 0 3.888-1.44 4.72-3.072zM326.832 249.216c0-0.608-1.024-1.632-2.464-2.464s-1.632-0.608-0.816 0.816c1.44 2.464 3.28 3.28 3.28 1.632z"></path>
<path d="M385.856 262.96c-4.096-1.024-5.12-6.768-1.024-6.768 1.44 0 3.696 1.84 5.12 4.096 2.464 4.096 2.256 4.304-4.096 2.656z"></path>
<path d="M279.904 302.912c0-3.696 0.816-8.608 1.84-10.864 1.232-3.072 1.84-1.232 1.84 6.768 0.208 5.744-0.608 10.656-1.84 10.656-1.024 0-2.048-3.072-1.84-6.56z"></path>
<path d="M422.752 201.472c1.232-0.416 3.696-0.416 5.12 0 1.232 0.608 0.208 1.024-2.656 1.024s-3.888-0.416-2.464-1.024z"></path>
<path d="M415.584 198.192c-1.024-1.84-10.24-3.696-26.64-5.536-17.632-1.84-25.408-3.488-26.032-5.536-0.608-1.632-0.416-2.464 0.416-1.84 0.816 0.416 2.864 0.208 4.512-0.816 2.256-1.44 2.464-2.656 0.608-6.56-1.44-2.656-2.864-8.4-3.28-12.912-1.024-11.264-5.936-28.080-9.024-31.36-1.44-1.44-2.656-4.096-2.656-5.744s-0.816-2.864-2.048-2.864c-1.024 0-2.048-2.256-2.048-4.912 0-4.512 1.024-5.12 11.264-6.352 6.144-0.816 11.264-2.256 11.264-3.28s2.464-1.84 5.744-1.632c3.072 0 4.304 0.608 2.656 1.232-6.976 2.864 3.696 4.096 24.592 3.072 21.312-1.024 22.752-0.816 27.456 3.696 6.768 6.352 6.352 11.28-1.024 15.776-3.28 1.84-6.144 4.304-6.144 5.328 0 0.816-2.464 3.888-5.328 6.768-5.12 4.512-5.536 6.144-5.744 22.96-0.208 17.216-0.416 17.824-4.72 17.424-3.072-0.416-4.72 0.608-4.72 2.464 0 2.464 1.44 2.864 5.744 1.84 7.168-1.632 6.976-1.632 11.264 0.208 3.488 1.44 3.488 1.632-0.608 4.512-2.256 1.632-3.696 3.888-3.072 4.912 0.816 1.024 0.816 1.84 0.208 1.84s-1.84-1.232-2.656-2.656zM409.632 162.32c0.208-6.56-3.488-9.024-5.536-3.696-1.632 4.096 0.816 11.68 3.28 10.864 1.024-0.208 2.256-3.488 2.256-7.168z"></path>
<path d="M426.848 195.312c1.44-0.608 3.28-0.416 3.888 0.208 0.816 0.608-0.416 1.232-2.656 1.024-2.256 0-2.864-0.608-1.232-1.232z"></path>
<path d="M226.624 131.984c0-2.256 0.608-2.864 1.232-1.232 0.608 1.44 0.416 3.28-0.208 3.888-0.608 0.816-1.232-0.416-1.024-2.656z"></path>
<path d="M446.32 124.208c-6.976-3.28-6.352-10.656 0.816-10.448 4.304 0 5.536 1.024 6.144 5.536 0.816 6.56-0.816 7.792-6.976 4.912zM451.856 121.952c0-1.632-1.44-3.072-3.072-3.072-2.656 0-2.864 0.608-0.608 3.072 3.28 3.696 3.696 3.696 3.696 0z"></path>
<path d="M136.24 105.552c0-1.632-1.44-3.072-3.072-3.072-3.488 0-4.304-13.328-1.024-18.448 2.864-4.512 35.040-5.744 39.344-1.44 1.632 1.84 6.768 3.488 11.072 3.888 7.168 0.608 8 1.232 7.376 5.536-0.208 2.864-1.84 6.56-3.28 8.192-1.44 1.84-2.256 4.72-1.84 6.352 0.816 2.672 0.608 2.672-1.44 0-1.84-2.464-2.656-2.464-3.488-0.416-0.608 1.84-1.84 2.048-3.696 0.416-3.888-3.28-27.264-3.888-28.48-0.608-1.44 3.696-11.472 3.488-11.472-0.416z"></path>
<path d="M370.080 94.080c-3.888-3.28-4.096-4.304-2.048-13.936l2.256-10.448h24.192c23.984 0 24.192 0 25.008 5.12 1.44 7.168-4.096 17.424-9.424 17.424-2.464 0-5.328 0.816-6.352 1.84-1.232 1.024-8.192 2.256-15.776 2.672-10.448 0.608-14.544 0-17.824-2.672z"></path>
<path d="M284.816 69.68c-10.656-0.608-16.192-1.632-13.328-2.256 4.096-1.024 3.488-1.44-3.072-1.632-4.512-0.208-11.68-0.816-15.776-1.44l-7.792-1.44v-12.912c0-9.024 0.816-13.12 2.656-13.12 2.256 0 13.728-14.352 13.728-17.216 0-3.696 13.12-19.68 16.4-19.68 4.512 0 19.056 16.192 17.632 19.68-1.024 2.464 2.464 6.96 5.536 6.96 0.816 0 1.024-1.024 0.208-2.464s-0.608-1.632 1.024-0.816c1.44 1.024 1.632 2.672 0.416 4.72-1.84 3.488 1.632 8.816 5.744 8.816 3.888 0 2.656 25.008-1.44 29.712-3.072 3.696-5.328 4.096-21.936 3.072zM303.68 66.208c-0.816-0.608-1.44 0-1.44 1.44s0.608 2.048 1.44 1.44c0.608-0.816 0.608-2.048 0-2.864zM289.952 12.096c-2.464-3.28-5.12-5.744-5.744-5.12-1.024 1.232 7.376 11.472 9.216 11.472 0.608 0-1.024-2.864-3.488-6.352zM281.136 2.672c-0.816-0.608-2.048-0.608-2.864 0-0.608 0.816 0 1.44 1.44 1.44s2.048-0.608 1.44-1.44z"></path>
</svg>
