<!-- Generated by IcoMoon.io -->
<svg version="1.1" xmlns="http://www.w3.org/2000/svg" width="512" height="512" viewBox="0 0 512 512">
<title>monsters-of-order</title>
<g id="icomoon-ignore">
</g>
<path d="M242.128 505.136c-2.384-2.928-4.96-5.328-5.872-5.504-2.576 0-12.288-9.728-12.288-12.288 0-1.28-2.208-2.384-4.96-2.56-4.4 0-4.592-0.368-1.472-1.472 3.296-1.28 3.12-1.472-1.104-2.56-2.576-0.736-7.712-4.032-11.376-7.712-3.664-3.488-7.52-6.416-8.624-6.416-0.912 0-1.84-1.104-1.84-2.208 0-2.016-10.096-10.096-15.408-12.288-0.912-0.368-5.504-4.592-10.272-9.36-6.416-6.416-9.36-8.256-10.832-6.784s-2.016 0.912-2.016-2.016c0-2.384-3.12-7.152-7.344-11.184-4.032-3.856-7.344-7.712-7.344-8.432 0-2.752-11.376-15.408-14.672-16.512-2.016-0.736-3.664-2.384-3.664-3.856s-1.28-2.56-2.752-2.56c-1.472 0-2.752-0.736-2.752-1.84 0-0.912-1.28-1.84-2.752-1.84s-2.752-1.104-2.752-2.384c0-1.28-3.296-5.872-7.344-10.096-4.032-4.032-7.344-8.432-7.344-9.536 0-0.912 3.488-1.84 7.712-1.84s6.976 0.544 6.416 1.104c-2.208 2.384 7.712 8.080 13.76 8.080 4.4 0 7.712-1.472 11.184-5.136 4.592-4.768 4.96-6.416 4.96-19.808 0-8.432-0.912-15.6-2.016-16.688-1.28-1.28-2.208-9.728-2.384-21.104l-0.176-18.896 12.848-0.544c7.152-0.176 15.408-1.648 18.72-3.12 6.416-3.12 21.648-3.856 19.808-0.912-0.544 0.912-2.208 1.28-3.664 0.544-1.472-0.544-2.752-0.368-2.752 0.176 0 0.736 2.016 2.016 4.592 2.928l4.592 1.84v31.184c0 18.528 0.736 31.008 1.648 30.448 0.912-0.736 0.736 1.28-0.368 4.4-1.472 4.032-1.472 6.976 0.176 11.552 1.28 3.296 2.208 10.64 2.208 16.144 0 12.48 3.664 16.32 15.6 16.32h8.256v-7.344c0-4.96 1.104-7.712 3.296-8.992 1.648-1.104 2.016-2.016 0.912-2.016-4.768 0-7.888-10.64-7.888-26.24 0-8.432-0.912-18.16-2.208-21.456-1.648-4.768-1.648-6.416 0-6.976 1.472-0.368 2.208-5.328 2.208-13.392 0-13.936 3.664-25.504 8.080-25.504 1.648 0 2.928-0.736 2.928-1.648s2.016-0.736 4.592 0.368c2.576 1.28 4.592 2.752 4.592 3.488 0 1.104 24.032 0.544 44.944-1.28 9.168-0.736 11.744-0.176 15.6 2.928l4.592 3.664-4.592-2.208c-4.4-2.208-4.592-2.016-1.28 1.472 2.384 2.752 3.12 6.784 2.928 18.16-0.176 10.096-0.544 13.024-1.648 9.904s-1.472-0.368-1.648 9.536c-0.176 7.712 0.736 14.672 1.648 15.232 2.56 1.648 2.384 20.368-0.368 27.696-1.648 4.592-1.648 7.152-0.176 10.272 1.104 2.384 2.56 5.68 3.12 7.344 0.736 2.56 2.208 2.928 6.976 2.016 3.296-0.544 6.416-1.84 6.608-2.752 0.368-0.736 1.472-1.472 2.56-1.472 6.048 0 6.784-6.976 6.976-82 0-16.688 0.544-20.736 2.56-20.736 1.472 0 2.928-1.104 3.488-2.208 0.544-1.84 1.28-1.84 3.664 0 1.472 1.28 8.432 2.752 15.232 3.12 16.144 0.912 18.896 4.032 19.072 20.736 0 8.8 0.736 11.744 2.928 12.656 2.384 0.912 2.384 1.28 0.368 2.56-1.84 1.28-1.84 1.648 0 1.648 1.104 0 2.208 1.28 2.208 2.752s-1.28 2.752-2.928 2.752c-2.384 0-2.752 2.384-2.384 14.672 0.368 10.832 1.28 14.672 3.12 14.672 1.28 0 1.84-0.912 1.28-2.016-0.736-1.104 0.368-2.384 2.56-2.928s3.856-1.648 3.856-2.56 1.648-1.648 3.856-1.648c2.016 0 5.504-0.912 7.52-2.016s7.152-2.208 11.376-2.56c4.032-0.368 6.048-0.176 4.4 0.368-1.84 0.368-3.296 1.648-3.296 2.56s1.472 1.648 3.296 1.84c2.752 0 2.752 0.176-0.368 1.472-3.296 1.28-3.296 1.472-0.544 2.56 1.648 0.544 3.12 2.208 3.12 3.296 0 1.472-0.736 1.472-2.752-0.176-1.84-1.648-2.752-1.648-2.752-0.176 0 1.104-1.104 2.016-2.208 2.016-2.56 0-41.824 39.808-41.824 42.384 0 0.912-1.104 1.648-2.384 1.648-1.472 0-6.048 3.12-10.272 6.976-15.040 13.216-58.896 57.424-58.896 59.072 0 1.104-1.28 1.84-2.752 1.84-1.648 0-3.296 1.28-3.856 2.752-0.736 1.472-2.208 2.752-3.664 2.752-3.488 0-20.912 18.352-20.912 22.016 0 1.472-1.472 3.664-3.488 4.96-2.752 1.84-4.032 1.28-7.712-3.12zM236.8 490.464c1.472-0.912 2.016-2.208 1.472-2.928-0.736-0.544-2.576 0.176-4.224 1.84-3.296 3.12-1.648 3.856 2.752 1.104zM231.296 483.12c-1.472-0.912-3.488-1.84-4.592-1.84-0.912 0-0.544 0.912 0.912 1.84s3.664 1.84 4.592 1.84c1.104 0 0.544-0.912-0.912-1.84zM302.848 420.928c0-0.912 0.544-2.928 1.104-4.592 0.736-2.208 0-2.928-2.752-2.928-2.928 0-3.856 1.104-3.856 4.592 0 2.928 1.104 4.592 2.752 4.592 1.472 0 2.752-0.736 2.752-1.648z"></path>
<path d="M44.176 268.48c0-0.912-1.28-1.84-2.752-1.84-1.84 0-2.752-1.84-2.752-5.504 0-4.592-0.736-5.504-4.592-5.504-2.752 0-4.592 1.104-4.592 2.576s-2.016 3.12-4.592 3.664c-2.576 0.736-4.592 2.016-4.592 2.928 0 1.104-2.576 1.84-5.68 1.84-5.328 0-5.68-0.368-4.592-4.96 0.912-3.856 0.736-4.4-0.736-2.384-1.648 2.384-2.016 2.384-3.664 0-0.912-1.472-1.472-3.856-0.912-4.96 0.368-1.28-0.368-2.384-1.84-2.384-4.768 0-2.928-3.488 2.384-4.224l4.96-0.736-4.96-0.368c-5.328-0.176-6.976-4.96-3.296-8.624 2.208-2.208 3.12-35.584 1.104-38.896-0.736-1.28-0.736-2.208 0.176-2.016 3.664 0.544 6.24-0.368 5.136-2.016-0.544-1.104 0.736-1.84 3.12-1.648 2.384 0 3.12 0.544 1.84 1.104-1.648 0.544-0.544 2.208 3.296 4.592l5.872 3.488 4.224-4.768c2.384-2.576 5.328-4.592 6.416-4.592 0.912 0 1.84-1.28 1.84-2.752s0.912-2.752 1.84-2.752c1.104 0 1.84-2.752 1.84-5.872 0-6.048-8.432-17.984-12.48-17.984-1.104 0-2.208-0.912-2.576-2.208-0.544-1.472-2.752-0.736-6.976 2.208-3.296 2.384-5.504 3.488-4.768 2.208 0.912-1.472-0.176-2.208-2.928-2.208-2.384 0-5.328-1.648-6.608-3.664-1.84-3.12-1.648-4.224 1.648-7.52 2.208-2.208 5.68-3.488 8.624-3.296 11.008 0.912 11.376 0.544 11.552-9.728 0-5.328 0.736-11.376 1.472-13.392 0.912-2.016 0.912-4.96 0.176-6.416-6.048-12.288-6.416-13.392-4.032-14.128 1.104-0.544 2.208-3.664 2.208-6.976 0-3.664 1.104-6.416 2.752-7.152 1.648-0.544 2.208-2.208 1.472-4.032-0.736-2.016-0.544-2.752 0.736-2.016 1.28 0.912 2.576-0.912 3.296-4.4 0.736-3.12 3.664-7.712 6.608-10.272 2.928-2.752 5.328-6.048 5.328-7.52s1.104-2.208 2.752-1.472c2.56 0.912 10.096-5.136 10.096-8.256 0-2.016 11.008-12.656 13.024-12.656 1.104 0 2.752-0.736 4.032-1.84 5.504-4.224 14.864-12.288 19.808-17.056 5.872-5.328 12.656-6.608 12.656-2.208 0 3.12 6.416 3.664 8.256 0.736 0.736-0.912 3.12-2.576 5.136-3.664 4.768-2.016 10.272-5.504 13.568-8.256 1.104-1.104 4.4-1.648 6.976-1.104 3.296 0.544 4.592 0.176 4.224-1.648-0.368-2.016 4.032-2.576 22.384-2.928 12.656-0.176 23.664 0.368 24.768 1.28 2.208 1.648 15.408 4.592 18.72 4.032 1.104-0.368 2.576 0.368 3.296 1.472 0.544 0.912 3.856 1.84 7.344 1.84 3.664 0 6.976 1.104 7.888 2.752 0.736 1.648 3.296 3.12 5.328 3.296 2.208 0 3.488 0.912 3.12 1.648-0.544 0.912 0.544 2.016 2.384 2.752 4.224 1.648 7.888 5.136 7.888 7.712 0 1.104 1.28 2.016 2.752 2.016s2.752 1.28 2.752 2.752c0 1.472 1.28 2.752 2.752 2.752s2.752 0.912 2.752 1.84c0 1.104 1.28 1.84 2.752 1.84s2.752 1.28 2.752 2.752c0 1.472 0.912 2.752 1.84 2.752 1.104 0 1.84 1.104 1.84 2.56s1.104 3.856 2.56 5.136c1.28 1.472 2.928 4.96 3.488 7.888 4.592 23.296 8.080 33.936 11.184 33.936 0.912 0 3.488 2.016 5.872 4.592s5.328 4.592 6.608 4.592c1.28 0 4.032 1.28 5.872 2.752 2.016 1.472 5.504 2.752 7.712 2.752 2.384 0 4.768 0.912 5.328 1.84 1.472 2.384 15.6 2.384 15.6 0 0-0.912 1.104-1.84 2.384-1.84 1.472 0 4.96-2.016 7.888-4.592s7.344-5.136 9.904-5.68c2.56-0.544 6.048-1.648 7.712-2.752 8.432-4.4 30.816 0 35.040 6.976 0.912 1.28 2.384 1.84 3.488 1.28 1.104-0.736 1.472-0.544 0.912 0.544-1.648 2.56 5.328 7.888 10.64 7.888 2.384 0 4.96 0.912 5.504 1.84 0.544 1.104 6.048 1.84 12.112 1.84s10.832-0.736 10.832-1.84c0-0.912 1.104-1.84 2.56-1.84s2.928-0.912 3.296-2.208c0.368-1.104 2.56-2.384 4.768-2.752 3.664-0.544 4.032 0.176 4.032 7.712 0 4.592-0.736 8.256-1.648 8.256s-2.208 2.016-2.752 4.592c-0.736 2.576-2.016 4.592-2.928 4.592-1.104 0-1.84 0.912-1.84 2.016s-2.384 4.4-5.328 7.344c-5.328 5.136-5.872 5.328-24.768 5.328-17.792 0-19.44 0.368-22.192 4.224s-2.752 4.032 4.032 5.504c18.16 3.856 32.288 5.136 33.76 2.928 0.736-1.472 9.168-2.576 22.56-3.12 18.528-0.736 22.384-0.368 28.256 2.576 3.664 2.016 7.888 4.592 9.168 5.68 1.28 1.28 3.488 2.384 4.96 2.384 1.28 0 2.752 0.544 3.12 1.472 0.368 0.736 3.664 2.928 7.344 4.768 6.048 3.12 6.608 3.856 3.856 5.68-1.472 1.104-2.384 3.296-1.84 4.768 0.736 1.84 1.104 1.648 1.104-0.544 0.176-4.032 3.856-4.4 3.856-0.544 0 3.12 1.104 3.12-23.12 2.752-17.792-0.176-18.528 0-22.016 4.592-4.96 6.608-12.656 10.096-22.928 10.096-4.768 0-9.36 0.912-9.904 1.84-0.736 1.104-2.016 1.472-2.928 0.912-0.912-0.736-1.648-0.176-1.648 0.736 0 1.104-3.296 2.016-7.344 2.016s-7.344-0.736-7.344-1.648c0-3.296-7.52-3.488-11.376-0.368l-3.856 3.296 3.664 3.664c2.928 2.928 6.784 4.032 15.040 4.592 6.24 0.176 11.184 0 11.184-0.736s1.104-0.912 2.56-0.368c1.472 0.544 3.12 0.176 3.856-0.912 1.472-2.576 13.76-2.576 13.76-0.176 0 1.104 2.016 1.84 4.224 1.84 2.752 0 6.784 2.752 10.64 6.976 3.488 3.856 8.992 8.256 12.288 9.728 3.12 1.28 5.872 3.488 5.872 4.768 0 1.104 2.208 2.384 4.96 2.752 3.488 0.368 4.96 1.648 5.136 4.768 0.176 2.208-0.912 4.96-2.208 6.24-1.648 1.28-1.84 2.384-0.544 3.296 0.912 0.544-5.328 1.28-13.936 1.28-8.8 0.176-16.688 1.104-17.792 2.208-2.56 2.56-22.016 2.56-24.576 0-1.472-1.472-3.12-1.472-5.872 0.176-2.56 1.28-14.864 2.016-34.672 2.016-22.192 0-31.552 0.544-33.76 2.208-3.488 2.752-19.632 2.56-25.136-0.368-2.208-1.28-17.056-2.016-38.336-2.016-28.992 0-35.216 0.544-37.056 2.752s-4.768 2.56-12.48 1.84c-5.68-0.544-11.008-1.648-12.112-2.752-0.912-0.912-9.168-1.84-17.984-1.84-9.536 0-16.144-0.736-16.144-1.84 0-0.912-1.28-1.84-2.752-1.84s-2.752 0.912-2.752 1.84c0 1.104-4.592 1.84-10.096 1.84s-11.744 1.104-13.76 2.384c-3.12 1.84-4.032 1.648-5.328-0.368-1.104-1.84-5.136-2.208-14.128-1.84-24.224 0.912-30.080 0.176-30.080-3.664 0-2.016-0.736-4.224-1.84-4.768-0.912-0.544-1.84-3.488-1.84-6.608 0-2.928 0.912-5.328 1.84-5.328 1.104 0 1.84-1.648 1.84-3.488 0-2.016-0.736-4.224-1.84-4.768-0.912-0.544-1.84-3.12-1.84-5.68 0-3.296 0.912-4.4 3.856-4.4 2.016 0 4.96-1.28 6.416-2.752 1.648-1.472 6.048-2.752 9.904-2.752 4.4 0 7.344-0.912 8.080-2.752 0.544-1.472 2.208-2.752 3.488-2.752 1.472 0 2.384-1.648 2.208-4.032-0.368-4.032-1.28-4.224-15.968-4.768-12.288-0.544-15.968 0-17.792 2.208-1.472 1.648-3.488 2.928-4.592 2.928-1.28 0-4.032 1.84-6.048 4.224-2.928 3.12-4.032 7.52-4.768 18.528-0.544 7.888-1.648 15.040-2.56 15.6-1.648 1.28-6.048 8.8-6.048 10.272 0 1.648 10.096-1.472 11.376-3.488 0.736-1.104 1.472 0.368 1.472 3.296s-0.544 4.96-1.104 4.224c-1.648-1.648-6.24 3.488-6.24 6.784 0 2.208-1.84 2.928-7.344 2.928-10.096 0-15.040-4.592-14.304-13.392 0.544-8.256-0.736-9.536-5.68-6.416-2.752 1.648-3.856 4.224-3.856 9.36s-0.736 6.976-2.384 6.24c-1.28-0.544-4.4 0.176-6.976 1.648-5.136 2.928-14.496 3.296-14.496 0.736zM17.024 261.504c-2.56-0.736-2.928-9.536-0.368-9.536 1.104 0 1.84 0.912 1.84 1.84 0 2.752 5.328 2.208 8.256-0.736 1.84-1.84 2.016-2.928 0.368-4.592-2.752-2.752-6.784-2.576-6.784 0.544 0 1.472-1.472 2.384-3.12 2.208-2.208-0.176-3.488 1.648-4.224 6.416-1.104 6.048-0.736 6.608 2.56 5.68 2.016-0.544 2.752-1.28 1.472-1.84zM53.344 257.472c0-2.016-0.736-3.664-1.84-3.664-0.912 0-1.84 1.648-1.84 3.664s0.912 3.664 1.84 3.664c1.104 0 1.84-1.648 1.84-3.664zM477.12 246.464c0-2.016-1.28-3.664-2.752-3.664-2.384 0-2.384 0.544-0.544 3.664 1.28 2.016 2.56 3.664 2.752 3.664 0.368 0 0.544-1.648 0.544-3.664zM62.88 144.288c0.544-4.96 5.136-8.432 5.136-3.856 0 8.080 25.136 11.92 36.88 5.68 19.44-10.464 21.456-27.152 5.328-41.456-6.24-5.68-16.512-6.784-20.176-2.208-1.28 1.472-3.296 2.752-4.592 2.752s-2.752 1.28-3.488 2.752c-0.544 1.472-2.752 2.752-4.768 2.752s-3.664 0.736-3.664 1.648c0 0.912-1.472 2.208-3.12 2.752-4.032 1.472-10.272 5.136-14.128 8.256-4.224 3.488-4.032 20 0.368 23.296 4.592 3.488 5.504 3.12 6.24-2.384zM209.28 147.408c0-0.912-0.736-1.84-1.84-1.84-0.912 0-1.84 0.912-1.84 1.84 0 1.104 0.912 1.84 1.84 1.84 1.104 0 1.84-0.736 1.84-1.84zM424.288 141.536c-1.104-1.104-2.928-1.28-4.032-0.544-1.648 1.104-1.648 1.648 0.176 2.928 3.12 1.84 6.24 0 3.856-2.384zM134.064 114.752c-4.224-0.736-4.4-0.912-0.912-2.384 3.12-1.104 3.12-1.472 0.544-1.472-1.84-0.176-3.296-1.28-3.296-2.384 0-1.28-0.912-0.912-2.016 1.104-2.384 3.856 0.544 6.608 6.608 6.24 2.752 0 2.576-0.368-0.912-1.104zM38.672 100.624c0-2.56 0.736-4.592 1.84-4.592 0.912 0 2.208-2.016 2.928-4.592 0.544-2.56 2.016-4.592 2.928-4.592 1.104 0 1.28 1.472 0.544 3.296-0.912 2.384-0.544 2.56 1.104 0.912 2.928-2.928 0.736-5.504-4.768-5.504-3.296 0-4.592 0.912-4.592 3.488 0 1.84-1.104 3.856-2.384 4.4-1.648 0.544-2.208 2.928-1.648 6.24 0.912 6.608 4.032 7.344 4.032 0.912zM50.592 100.256c-2.016-0.544-4.224-1.84-4.96-3.12-0.912-1.28-1.472-0.912-1.472 1.28s1.28 3.12 5.136 2.928c3.856-0.176 4.032-0.368 1.28-1.104zM189.472 68.144c-1.648-1.648-2.752-1.648-4.4 0s-1.28 2.208 2.208 2.208 3.856-0.544 2.208-2.208zM179.936 39.168c0-0.912-0.368-1.84-0.736-1.84-0.544 0-1.472 0.912-2.016 1.84-0.544 1.104-0.176 1.84 0.736 1.84 1.104 0 2.016-0.736 2.016-1.84z"></path>
<path d="M318.432 88.704c0.736-1.104-1.28-2.384-4.4-2.928-4.224-0.912-6.048-2.384-6.784-6.048-1.472-6.416-8.432-20.544-11.744-24.032-3.12-3.296-9.168-16.88-8.080-18.72 0.912-1.28 0.368-1.648-1.648-0.912s-2.56 0.368-1.84-1.648c0.912-2.752 11.744-3.664 14.128-1.28 2.016 2.016 13.76 2.384 14.864 0.368 0.736-0.912 3.12-1.648 5.504-1.648s6.608-0.912 9.168-2.208c3.296-1.472 5.872-1.472 8.8-0.176 2.208 1.104 6.976 2.016 10.464 2.208 6.608 0.176 18.352 5.328 18.352 7.888 0 0.912 1.28 1.472 2.752 1.472s2.752 0.912 2.752 1.84c0 2.752 6.976 9.168 9.904 9.168 1.472 0 3.296 0.912 3.856 1.84 0.544 1.104 4.032 1.84 7.52 1.84 4.032 0 7.712 1.472 10.272 4.032 2.752 2.752 2.928 3.488 0.912 2.752-2.208-0.736-3.12 0.176-3.488 3.856-0.544 4.4-1.104 4.96-6.976 4.4-3.488-0.368-6.608-1.472-6.976-2.384-0.912-2.208-20-2.016-21.456 0.176-0.544 1.104-2.752 1.84-4.592 1.84s-4.592 1.104-5.872 2.384c-2.752 2.384-5.504 4.032-20.912 12.288-9.904 5.504-16.688 7.152-14.496 3.664z"></path>
<path d="M194.24 3.024c1.104-0.368 3.296-0.368 4.592 0 1.104 0.544 0.176 0.912-2.384 0.912s-3.488-0.368-2.208-0.912z"></path>
</svg>
