<!-- Generated by IcoMoon.io -->
<svg version="1.1" xmlns="http://www.w3.org/2000/svg" width="512" height="512" viewBox="0 0 512 512">
<title>monsters-of-order</title>
<g id="icomoon-ignore">
</g>
<path d="M257.776 505.168c-1.824-1.824-3.104-5.488-3.104-8.224 0-2.56-0.736-5.312-1.824-5.856-0.912-0.544-1.824-2.928-1.824-5.312 0-2.192-1.28-5.664-2.736-7.68-1.456-1.824-2.736-5.312-2.736-7.504s-1.456-4.752-3.104-5.856c-3.104-1.648-3.104-1.824-0.176-2.928 1.648-0.736 3.472-3.104 4.032-5.664 0.736-2.384 2.016-4.384 2.928-4.384 1.104 0 1.824-0.912 1.824-2.016 0-1.28 2.016-4.032 4.384-6.224 2.56-2.384 4.016-4.576 3.664-5.12-0.544-0.544 0.736-1.824 2.752-2.928 3.472-2.016 3.664-2.192 0.736-5.664-1.824-2.016-4.208-3.664-5.488-3.664s-2.384-0.736-2.384-1.648c0-0.736-4.944-2.016-10.976-2.752s-11.344-2.016-11.888-2.928c-0.736-1.104-3.104-1.824-5.664-1.824-2.736 0-4.384-1.104-4.384-2.752 0-1.456-1.28-2.752-2.736-2.752s-2.736-1.104-2.736-2.56c0-1.456-1.28-3.104-2.928-3.664-2.384-0.912-2.928-3.104-2.192-11.52 0.544-5.664 1.824-10.784 2.928-11.152 1.28-0.368 2.192-1.824 2.192-3.104 0-3.104 5.664-6.4 10.608-6.4 2.016 0 4.032-1.28 4.752-2.752 0.544-1.456 2.736-2.752 4.752-2.752s3.664-0.736 3.664-1.824c0-0.912 0.912-1.824 2.016-1.824 1.28 0 3.296-1.456 4.752-3.104 1.456-1.824 2.192-2.384 1.648-1.104-0.736 1.104-0.368 2.56 0.736 3.296s1.824-0.912 1.824-3.472c0-2.928-1.104-4.752-2.736-4.752-1.456 0-2.736-1.456-2.736-3.296 0-3.104-6.592-7.68-10.976-7.68-0.912 0-4.384-2.384-7.68-5.488-3.296-2.928-6.592-5.488-7.504-5.488-2.192 0-6.768-4.752-6.768-7.136 0-0.912-1.28-3.104-2.928-4.752-2.384-2.384-2.736-5.312-1.648-16.464 1.104-11.712 1.648-13.712 4.752-13.712 2.384 0 3.104-0.912 2.192-3.104s-0.544-2.56 1.28-1.456c1.28 0.736 6.944 1.28 12.624 0.912 27.984-1.648 55.424-0.368 60.544 2.752 1.104 0.736 1.648 2.384 1.104 3.84-0.544 1.28 0.176 3.664 1.648 5.12s2.752 4.384 2.752 6.4c0 2.192 0.736 3.84 1.648 3.84 0.736 0 2.016 6.224 2.752 13.904s2.192 15.36 3.472 17.376c1.648 2.56 1.456 4.752-0.176 9.504-1.28 3.296-2.192 7.136-2.192 8.416s-2.384 5.488-5.312 9.152c-2.752 3.664-4.752 7.504-4.384 8.592 0.368 1.28-1.456 2.752-4.384 3.296-3.84 1.104-4.384 1.648-2.192 3.104 1.824 1.28 1.104 1.648-2.928 1.28-8.048-0.736-7.68 3.84 0.912 12.624 4.032 4.208 7.312 8.592 7.312 9.696 0 0.912 1.28 1.824 2.752 1.824 1.648 0 2.752 1.648 2.752 4.384 0 2.56 0.736 4.944 1.648 5.488 2.016 1.28-1.28 13.536-4.752 17.744-1.28 1.456-2.384 4.208-2.384 5.856s-2.016 3.472-4.576 4.208c-2.56 0.544-4.576 1.824-4.576 2.752 0 0.736-2.192 4.032-4.944 6.944-2.928 2.928-6.224 6.768-7.312 8.224-2.752 3.296-3.296 26.704-0.544 26.704 2.384 0 2.384 10.24 0 14.816-2.384 4.384-5.856 4.384-9.696 0.176zM265.632 379.696c0-0.368-1.28-1.28-2.928-1.824-1.456-0.544-2.192-0.368-1.648 0.736 1.104 1.824 4.576 2.56 4.576 1.104zM256.304 352.624c0-5.12-0.368-5.488-1.648-2.384-2.192 5.12-2.192 8.224 0 8.224 1.104 0 1.824-2.752 1.648-5.856zM268.752 353.536c-0.736-0.544-1.824-0.544-2.56 0-0.544 0.736 0 1.28 1.28 1.28s1.824-0.544 1.28-1.28zM255.216 344.4c-1.28-0.368-3.84-0.368-5.488 0-1.824 0.544-0.736 0.912 2.192 0.912 3.104 0 4.384-0.368 3.296-0.912zM230.88 327.568c0-0.912-1.28-2.016-2.56-2.56-1.824-0.736-2.384-0.176-1.648 1.648 1.104 2.752 4.208 3.472 4.208 0.912zM216.256 310.736c0-2.192-0.912-2.928-2.736-2.384-2.384 0.912-2.384 1.648-0.544 4.032 1.824 2.192 1.824 2.56 0.176 1.456-1.648-0.736-2.384-0.176-2.384 1.824 0 2.384 0.544 2.56 2.736 0.736 1.456-1.28 2.736-3.84 2.736-5.664z"></path>
<path d="M152.048 503.712c-0.176-0.912-0.176-2.192 0-2.928 0-0.912-0.544-1.456-1.648-1.456-0.912 0-1.824-1.28-1.824-2.752s-1.28-2.752-2.736-2.752c-2.016 0-2.736-2.016-2.736-7.312 0-4.032-0.736-7.312-1.824-7.312-0.912 0-1.824-4.032-1.824-9.152 0-4.944 0.912-9.152 1.824-9.152 1.104 0 1.824-2.384 1.824-5.488 0-3.472 0.912-5.312 2.384-4.944 1.456 0.176 2.384-2.384 2.736-7.312 0.544-6.768-0.176-8.048-5.664-12.256-3.472-2.56-7.504-4.752-9.152-4.752-1.824 0-3.104-0.736-3.104-1.648s-2.016-2.192-4.384-2.752c-5.488-1.28-18.112-13.36-16.64-15.728 0.736-1.104-0.176-3.104-1.648-4.752-4.032-3.84-4.032-19.024-0.176-19.024 1.456 0 2.736-0.736 2.736-1.824 0-0.912 1.28-1.824 2.736-1.824s6.592-3.664 11.152-8.416c7.504-7.312 8.416-8.96 7.312-14.080-1.104-5.856-7.136-12.064-11.712-12.256-2.56 0-20.304-12.624-26.16-18.48-2.016-2.016-3.472-5.856-3.472-8.96 0-2.928-0.736-5.488-1.824-5.488-0.912 0-1.824-2.384-1.824-5.488 0-2.928 0.912-5.488 1.824-5.488 1.104 0 1.824-2.016 1.824-4.576 0-2.928 1.104-4.576 2.736-4.576 1.456 0 2.736-1.28 2.736-2.752 0-2.192 3.296-2.752 18.48-2.752 17.552 0 18.832-0.368 22.864-4.576 4.208-4.576 11.712-6.224 11.712-2.752 0 0.912 2.016 2.192 4.576 2.928s4.384 1.648 3.84 2.016c-0.368 0.544 2.016 4.576 5.488 9.152 3.472 4.384 6.224 9.328 6.224 10.784s0.912 2.56 1.824 2.56c1.104 0 1.824 2.752 1.824 6.032 0 3.104 1.28 7.504 2.736 9.328 3.84 5.12 3.84 29.632 0 33.296-1.456 1.648-2.736 4.944-2.736 7.68-0.176 5.12-3.664 11.344-6.592 11.344-2.56 0.176-15.36 17.008-15.36 20.112 0 4.576 9.696 13.904 13.712 13.168 2.736-0.368 2.928-0.176 1.28 1.104-2.016 1.28-1.456 2.56 2.384 5.664 4.752 3.664 4.944 4.752 4.944 17.92-0.176 8.048-1.104 14.448-2.192 14.816-0.912 0.368-1.824 1.824-1.824 3.296s-1.28 2.56-2.736 2.56-2.736 0.912-2.736 2.016-0.736 1.456-1.648 0.912c-0.912-0.544-2.928 0.912-4.576 3.472-2.192 3.472-2.928 8.96-2.736 23.232 0 12.256 0.544 17.552 1.648 15.184s1.648-2.752 1.648-0.912c0 3.104-5.12 10.784-5.488 8.048zM104.688 315.68c0-3.104-1.28-4.576-4.576-5.12-5.312-1.104-5.488-0.912-1.648 4.944s6.224 5.856 6.224 0.176z"></path>
<path d="M367.696 482.496c-0.368-4.576-1.456-7.68-2.56-7.504-1.28 0.176-1.824-3.664-1.648-11.888 0.544-13.36 2.384-22.32 4.576-22.32 0.912 0 2.016-3.296 2.752-7.312 0.736-4.576 2.192-7.312 3.84-7.312 1.456 0 2.56-1.824 2.56-4.576 0-3.296-2.192-6.224-7.68-10.064-4.032-2.928-8.592-5.488-10.064-5.488-1.28 0-2.384-0.736-2.384-1.824 0-0.912-1.824-1.824-4.032-1.824-2.752 0-4.944-1.648-6.4-4.752-1.824-4.032-1.824-4.576 0.544-3.664 1.648 0.544 2.192 0.176 1.648-0.736-0.544-1.104-2.016-1.824-2.928-1.824-5.488 0-11.888-14.64-8.784-20.304 0.912-1.824 2.928-3.472 4.384-3.472s2.752-0.736 2.752-1.648c0-0.912 1.648-2.384 3.664-2.928s4.208-3.104 4.752-5.664c0.544-2.384 1.824-4.384 2.752-4.384s1.648-3.664 1.648-8.224c0-9.504-2.192-12.432-14.448-20.112-4.384-2.56-8.416-6.4-8.784-8.416-0.544-1.824-1.648-3.104-2.384-2.56-2.016 1.28-3.472-5.664-2.384-10.064 0.544-2.016 1.648-3.664 2.56-3.664s1.648-2.192 1.648-5.12c0-2.752 2.016-7.136 4.752-10.064l4.752-5.12 29.44 0.544c21.952 0.368 29.44 1.104 30.176 2.928 0.544 1.824 1.28 1.824 3.664 0 2.192-1.824 2.928-1.824 3.472 0 0.544 1.104 3.104 2.192 5.664 2.192 6.768 0.176 10.432 3.472 10.784 10.064 0.176 3.104 0 4.384-0.544 3.296-2.928-6.768-4.384-0.176-4.384 20.112v22.496l-8.224 8.592c-4.384 4.752-8.592 8.592-9.152 8.592-2.016 0-11.888 10.608-11.888 12.624 0 1.104 1.456 2.016 3.296 2.016 2.56 0 2.752 0.368 0.368 1.824s-2.192 1.824 0.544 1.824c1.824 0 3.664 1.28 4.208 2.752 0.736 1.456 2.56 2.752 4.576 2.752 3.84 0 7.136 5.12 7.136 11.344 0 3.296 0.368 3.664 1.824 1.456 1.648-2.384 1.824-2.384 2.016 0 0.544 7.68-0.736 15.728-2.928 16.832-1.28 0.736-3.296 4.032-4.752 7.312-1.28 3.296-2.752 6.4-3.296 6.944s-2.016 2.56-3.104 4.576c-1.104 2.016-4.384 4.384-7.312 5.488-2.928 0.912-7.312 3.84-9.696 6.4-2.56 2.56-5.12 4.384-5.664 4.208s-0.912 5.12-0.736 11.888c0.368 9.696 0.176 10.608-0.912 4.944l-1.28-7.312-2.192 12.064c-1.28 6.592-2.192 14.272-2.192 16.832 0 8.048-3.472 5.664-4.032-2.752zM400.080 431.648c0.544-0.912 0.736-1.824 0.176-1.824s-1.456 0.912-2.016 1.824c-0.544 1.104-0.736 1.824-0.176 1.824s1.456-0.736 2.016-1.824z"></path>
<path d="M377.584 479.2c0-3.472 0.368-4.944 0.912-3.104 0.368 1.648 0.368 4.576 0 6.4-0.544 1.648-0.912 0.176-0.912-3.296z"></path>
<path d="M2.8 269.216c-0.544-1.28-0.368-4.576 0.176-7.312 0.736-2.752 2.016-9.504 3.104-14.992 0.912-5.488 2.928-12.8 4.576-16.096 3.84-8.048 1.456-20.672-4.384-23.232-4.032-1.824-5.12-8.96-1.28-7.872 1.104 0.368 1.648 1.104 1.456 1.824-0.368 0.912 4.384 1.456 10.432 1.456 8.784 0 10.976-0.544 10.976-2.928 0-1.824 1.104-2.56 2.56-2.016 1.824 0.736 2.752-1.104 3.472-6.592 1.456-10.784-1.104-12.992-17.92-13.904-2.736-0.176-13.712-10.608-13.712-12.8 0-1.104-0.736-2.016-1.648-2.016s-0.736-2.016 0.368-4.576c1.456-2.928 3.664-4.576 6.4-4.576 2.192 0 4.032-0.736 4.032-1.824 0-0.912 2.384-1.824 5.312-1.824s6.592-1.28 8.224-2.736c1.456-1.456 3.472-2.736 4.576-2.736 3.296 0 2.384-15.728-0.912-18.48-2.384-2.016-2.736-4.576-2.016-12.432 0.544-5.312 2.016-10.784 2.928-11.712 1.104-1.104 2.016-4.208 2.016-6.768s1.28-6.4 2.736-8.416c1.456-1.824 2.736-4.944 2.736-6.592 0-1.824 0.912-3.296 1.824-3.296 1.104 0 1.824-0.912 1.824-2.016 0-2.016 10.976-16.832 13.36-17.744 0.736-0.368 1.28-1.824 1.28-3.104 0-3.472 22.864-26.528 26.16-26.528 1.456 0 3.104-1.104 3.664-2.56 0.912-2.384 6.224-4.032 20.48-6.032 4.032-0.544 8.96-2.192 10.976-3.472 2.016-1.456 6.592-2.56 10.432-2.56 5.312 0 6.944-0.736 6.944-3.104 0-2.192 0.544-2.56 1.456-1.104s2.384 1.648 4.032 0.544c1.456-1.104 11.52-1.824 22.496-1.824 11.712 0 19.568-0.736 19.568-1.824 0-2.384 10.432-2.384 11.888 0 0.544 1.104 3.664 1.824 6.768 1.824s7.136 1.28 8.96 2.928c1.824 1.648 6.944 2.928 12.8 2.928 5.488 0.176 8.048 0.544 5.856 1.104-5.312 0.736-5.488 4.032-0.544 4.032 4.576 0 12.256 4.752 17.376 10.432 2.016 2.384 4.752 4.208 6.032 4.208 2.736 0 9.504 6.592 9.504 9.152 0 1.104 2.016 3.84 4.576 6.224s4.576 5.12 4.576 6.4c0 1.104 1.104 2.016 2.384 2.016s2.56 2.016 2.752 4.752c0.176 2.56 1.28 6.4 2.384 8.416 1.104 2.192 2.56 10.976 3.104 19.568 0.912 15.552 0.912 15.728 8.784 23.6 7.312 7.136 8.592 7.68 18.112 7.68 9.152 0 10.784-0.544 15.728-5.856 2.928-3.296 5.312-6.592 5.312-7.312 0-0.912 1.104-1.456 2.56-1.456s2.928-1.28 3.664-2.736c0.736-2.192 4.384-2.736 16.096-2.736 15.36 0.176 19.76 1.648 22.128 7.872 0.544 1.648 2.016 3.104 3.104 3.104 0.912 0 1.824 1.28 1.824 2.736 0 4.944 6.944 10.064 13.712 10.064 3.472 0 6.4-0.736 6.4-1.824 0-0.912 1.456-1.824 3.296-1.824 4.384-0.176 11.344-6.4 11.344-10.432 0.176-6.944 4.384-9.696 14.816-9.696 7.136 0 9.152 0.544 7.136 1.824-1.824 1.104-2.016 1.824-0.368 1.824 1.104 0 2.192 1.456 2.016 3.296 0 2.192-0.368 2.384-1.104 0.544-2.016-4.944-7.872 10.976-7.872 21.408 0 9.504-0.544 10.432-7.68 17.2-4.208 3.84-8.592 6.944-9.872 6.944s-3.104 1.104-3.84 2.56c-0.736 1.456-3.104 2.736-5.12 3.104-2.192 0.544-3.84 2.56-4.208 4.944-0.544 3.84 0 4.032 9.504 4.032 5.664 0 10.24-0.736 10.24-1.648s1.824-2.016 4.208-2.736c2.192-0.544 7.312-3.664 11.344-7.136 5.12-4.208 9.872-6.592 15.552-7.312 4.384-0.544 8.416-2.016 8.784-2.928 0.912-2.56 7.136-2.56 8.592-0.176 0.544 1.104 4.752 1.824 9.152 1.824 4.576 0 9.152 1.104 10.784 2.736 1.456 1.456 3.296 2.736 4.208 2.736s2.928 1.456 4.384 3.296c1.648 1.648 5.856 5.664 9.504 8.96 5.664 4.944 6.768 6.944 6.768 13.168 0 9.152-3.104 10.976-12.256 7.68-7.872-2.928-18.48-3.104-21.216-0.368-1.104 1.104-3.472 2.016-5.488 2.016-4.576 0-14.080 9.696-14.080 14.272 0 2.192 3.664 6.592 8.96 10.976 7.68 5.856 10.976 7.312 20.304 8.224 7.136 0.912 12.432 2.56 14.816 4.752 2.192 2.016 4.944 3.104 6.032 2.736 1.648-0.544 2.384 2.192 2.752 9.696 0.176 5.664 1.104 11.344 1.824 12.432 2.56 3.104 1.648 8.048-2.192 11.344-2.016 1.824-3.104 2.192-2.384 1.104 0.912-1.824-2.384-2.384-14.816-2.56-28.528-0.368-45.36 0.544-45.904 2.192-0.912 2.192-30.912 2.192-32.368-0.176-1.648-2.752-42.256-2.384-46.64 0.368-2.752 1.824-4.752 1.824-9.696 0-7.504-2.752-25.424-2.928-28.176-0.176-1.104 1.104-12.256 2.384-25.056 2.752-12.8 0.544-25.248 1.648-27.616 2.56-2.56 0.912-4.576 1.104-4.576 0.368s-4.752-1.104-10.608-0.736c-44.816 2.192-53.408 2.192-53.408 0.544 0-2.56-23.408-2.192-27.616 0.368-2.384 1.456-4.384 1.456-7.504 0-2.384-1.28-7.68-2.752-11.888-3.296-5.664-0.912-8.784-2.56-11.52-6.4-4.576-6.4-4.576-6.944 0-10.976 4.032-3.472 6.592-11.152 3.472-10.432-3.664 0.736-12.992-12.8-13.168-19.024-0.368-5.664 0.176-6.224 5.312-6.768 3.472-0.368 8.416-3.104 12.8-7.312l7.136-6.768-14.448-0.544c-10.976-0.368-14.992 0.176-17.552 2.384-1.648 1.456-3.664 2.736-4.208 2.736-2.192 0-8.592 6.224-8.592 8.416 0 1.28-1.104 2.56-2.192 2.928-2.384 0.912 1.28 7.872 8.048 14.992 2.384 2.56 3.296 6.4 3.296 13.712 0 5.488-0.544 9.328-1.104 8.784-0.736-0.736-2.928 1.824-4.944 5.664-4.384 8.224-9.328 13.168-13.168 13.168-4.384 0-14.272-10.608-12.992-13.904 0.736-1.824 0.368-2.384-1.104-1.456s-1.648 0.368-0.912-1.648c0.736-2.016 0.176-3.104-1.456-3.104-1.456 0-2.736-0.736-2.736-1.824 0-0.912-0.736-1.824-1.824-1.824-2.384 0-7.312 9.872-7.312 14.448 0 5.664-5.312 7.504-15.184 5.312-8.224-1.648-8.592-2.192-9.696-8.96-1.104-6.032-1.824-7.136-5.488-7.136s-4.384 0.912-4.576 6.032c-0.176 3.104-0.176 6.592 0 7.312 0.176 0.912-0.544 1.104-1.648 0.368-0.912-0.544-1.824 0.176-1.824 1.824 0 1.456-2.192 3.664-4.752 4.576-6.768 2.752-33.84 1.456-34.928-1.456zM37.92 259.888c1.28-2.192-2.192-4.384-4.576-2.928-2.016 1.28-0.736 4.576 1.824 4.576 0.912 0 2.016-0.736 2.736-1.648zM106.32 254.032c-4.208-2.56-5.664 0.368-2.192 4.208 2.928 3.296 3.296 3.472 3.84 0.544 0.368-1.824-0.368-3.84-1.648-4.752zM124.8 245.072c0-0.912-0.912-1.824-2.016-1.824-0.912 0-1.28 0.912-0.736 1.824 0.544 1.104 1.456 1.824 2.016 1.824 0.368 0 0.736-0.736 0.736-1.824zM201.616 173.744c0-2.016-0.736-3.664-1.824-3.664-0.912 0-1.824 1.648-1.824 3.664s0.912 3.664 1.824 3.664c1.104 0 1.824-1.648 1.824-3.664zM240.032 170.992c0-1.456-0.736-2.736-1.824-2.736-0.912 0-1.824 1.28-1.824 2.736s0.912 2.736 1.824 2.736c1.104 0 1.824-1.28 1.824-2.736zM98.832 160.752c0.368-0.912 3.84-1.648 7.68-1.648 4.384 0 7.312-0.912 8.048-2.736 0.544-1.456 2.192-2.736 3.84-2.736 5.488 0 10.064-6.944 10.064-15.552 0-4.576-0.736-8.224-1.824-8.224-0.912 0-1.824-1.648-1.824-3.664 0-2.192-2.928-6.592-6.4-10.064s-7.872-6.4-10.064-6.4c-2.016 0-3.664-0.736-3.664-1.824 0-2.56-6.592-2.192-10.976 0.368-2.928 1.824-4.384 1.824-7.312 0.176-3.104-2.016-4.576-1.28-12.8 6.768-5.12 5.12-10.064 9.152-10.976 9.152-1.104 0-1.824 1.104-1.824 2.56 0 1.648-2.192 2.928-5.856 3.296-9.328 0.912-16.832 17.2-8.784 19.2 2.016 0.544 3.664 1.648 3.664 2.56s1.28 1.648 2.736 1.648c1.648 0 3.296 1.28 3.84 2.736 0.736 1.648 3.472 2.736 7.136 2.736 3.296 0 8.784 1.28 12.064 2.736 6.592 2.928 22.128 2.192 23.232-1.104zM55.296 78.624c0-0.912-0.368-1.824-0.736-1.824-0.544 0-1.456 0.912-2.016 1.824-0.544 1.104-0.176 1.824 0.736 1.824 1.104 0 2.016-0.736 2.016-1.824z"></path>
<path d="M307.712 85.952c-1.456-2.016-2.752-4.752-2.752-6.032 0-4.752-3.664-3.664-4.576 1.456-1.104 6.592-4.384 7.136-5.12 0.912-0.368-2.56-1.456-5.312-2.56-6.4-1.456-1.28-1.648-0.736-0.736 1.824 1.104 2.928 0.912 3.296-0.912 1.456s-1.824-2.928-0.176-4.576c3.472-3.472 1.824-12.8-3.296-17.92-2.016-2.016-7.312-13.36-7.312-15.728 0-1.456-0.912-2.56-1.824-2.56-1.104 0-2.56-1.456-3.104-3.104-0.736-1.824-2.752-4.752-4.752-6.4-4.208-3.84-1.824-9.696 5.12-11.344 2.56-0.736 4.576-2.016 4.576-2.928 0-1.104 6.224-1.824 14.64-1.824 9.152 0 14.64 0.736 14.64 2.016 0 2.56 4.576 7.136 7.136 7.136 1.104 0 2.016 1.28 2.016 2.736s0.912 2.736 1.824 2.736c1.104 0 2.752 2.016 3.664 4.576 1.456 4.032 2.928 4.576 9.872 4.576 4.576 0 8.784-0.736 9.328-1.824 0.544-0.912 2.752-1.824 4.576-1.824s4.208-1.104 4.944-2.192c4.032-6.224 18.832-12.624 27.072-11.712 11.52 1.28 22.496 4.032 25.056 6.224 1.28 0.912 4.384 2.192 6.944 2.56 3.84 0.368 4.752 1.648 5.12 7.504 0.368 3.664 1.28 6.768 2.384 6.768 0.912 0 1.648 1.28 1.648 2.736 0 3.296-6.944 3.664-13.36 0.736-3.296-1.456-7.136-1.456-14.448 0-8.592 1.824-10.24 2.928-13.36 8.96-2.016 3.664-4.752 7.872-5.856 9.152-1.28 1.28-2.384 3.664-2.384 5.12 0 2.736-3.296 3.104-24.688 2.928-13.904-0.368-18.112 1.456-27.808 11.712-6.768 7.312-8.048 7.504-11.52 2.56z"></path>
</svg>
