<!-- Generated by IcoMoon.io -->
<svg version="1.1" xmlns="http://www.w3.org/2000/svg" width="512" height="512" viewBox="0 0 512 512">
<title>monsters-of-order</title>
<g id="icomoon-ignore">
</g>
<path d="M320.688 510.080c0-1.28 0.544-1.824 1.28-1.28 0.544 0.736 0.544 1.824 0 2.56-0.736 0.544-1.28 0-1.28-1.28z"></path>
<path d="M327.088 510.080c-0.736-1.104 0-4.016 1.648-6.4s2.928-6.032 2.928-8.224c0-2.928-1.104-3.664-5.488-3.664-3.104 0-6.032 1.104-6.576 2.56-1.104 2.928-6.032 1.824-8.416-1.456-1.104-1.456-2.016-1.104-3.104 0.736-2.192 3.296-1.456 4.208 4.576 4.384 7.504 0.368 7.136 3.84-0.368 4.384-3.472 0.176-8.048 1.28-9.872 2.192-4.208 2.192-60.528 2.384-56.88 0.176 3.472-2.192-1.456-3.472-15.728-4.208-6.224-0.176-10.784-1.104-10.432-1.824 0.544-0.912-3.472-1.456-8.784-1.456-5.856 0-11.344-1.104-13.536-2.736-1.824-1.456-4.944-2.736-6.576-2.736s-5.312-1.28-8.224-2.736c-2.736-1.456-7.872-3.664-10.976-4.944-3.296-1.28-6.032-3.472-6.032-4.576 0-1.28-1.648-2.384-3.664-2.384-4.576 0-16.096-7.136-23.776-14.624-3.104-2.928-6.768-5.488-8.224-5.488s-2.736-1.28-2.736-2.736c0-1.456-0.736-2.736-1.648-2.736-2.928 0-33.104-30.352-33.104-33.28 0-1.648-0.736-3.296-1.824-3.664-1.456-0.544-2.928-5.296-3.472-11.52-0.176-0.912-0.912-0.736-1.648 0.368-0.912 1.456-1.456-0.368-1.648-4.208-0.176-3.664-1.28-7.312-2.56-8.048-1.456-1.104-2.384-6.944-2.384-18.464l-0.176-17.008 9.696-0.176c7.504-0.176 9.504 0.176 9.504 2.56 0 1.648 2.016 5.12 4.208 7.68 2.384 2.384 4.752 5.664 5.12 6.768 2.016 5.856 40.416 45.36 45.712 47.008 1.824 0.736 3.472 2.016 3.472 2.928s1.104 1.648 2.56 1.648c1.28 0 3.472 1.28 4.752 2.736s2.928 2.192 3.84 1.648c0.912-0.544 3.104 0 4.752 0.912 2.56 1.456 2.736 1.824 0.544 2.016-5.312 0.176 19.936 12.8 25.424 12.8 2.192 0 3.84 0.912 3.84 1.824 0 1.104 4.944 1.824 10.976 1.824 6.768 0 10.976 0.736 10.976 2.016 0 1.104-1.28 1.648-2.736 0.912-1.456-0.544-2.736-0.368-2.736 0.544 0 2.192 21.76 3.84 26.88 1.824 2.384-0.912 7.872-1.648 11.888-1.648 8.224 0 19.744-3.472 19.744-5.856 0-0.736 1.28-1.456 2.736-1.456 2.192 0 2.736-2.56 2.736-12.8s0.544-12.8 2.736-12.8c1.456 0 2.736-0.912 2.736-2.016 0-2.56 4.576-7.136 7.136-7.136 1.104 0 2.016-1.28 2.016-2.736s0.912-2.736 2.016-2.736c1.28 0 4.016-2.016 6.4-4.576s5.856-4.576 7.856-4.576c2.016 0 4.208-0.912 4.944-2.192 0.912-1.28 0.544-1.456-1.104-0.544-1.456 0.912-2.016 0.736-1.28-0.368 0.736-0.912 8.592-2.016 17.552-2.016 12.992-0.176 16.832 0.368 18.656 2.736 2.384 2.736 2.192 2.736-1.648 0.736-2.384-1.28-5.664-2.016-7.312-1.456-1.824 0.368-0.368 1.456 3.84 2.736 3.84 1.104 8.416 1.456 10.064 0.912 2.736-1.104 2.736-0.912 0.544 1.824s-2.016 3.104 0.544 3.104c2.016 0 2.928-1.648 2.928-5.488 0-3.664-0.912-5.488-2.736-5.488-1.456 0-2.736-1.28-2.736-2.736 0-1.648-1.28-4.752-2.736-7.136-2.016-2.928-2.928-8.96-2.928-18.112 0-12.432 0.544-14.624 4.752-20.48 5.296-6.768 5.488-6.032-2.736-15.904-3.296-4.208-16.832-4.576-20.112-0.544-1.28 1.456-3.84 2.736-5.664 2.736-2.192 0-3.84 1.824-4.576 4.576-0.544 2.56-1.824 4.576-2.736 4.576-2.56 0-2.016 10.24 0.736 12.432 1.28 1.104 2.016 5.296 1.648 11.152-0.544 7.504-1.456 9.328-4.576 10.432-2.192 0.736-7.856 5.296-12.432 10.064-4.752 4.944-9.504 8.96-10.432 8.96-1.104 0-2.928 1.648-4.016 3.664s-2.736 3.296-3.84 2.736c-0.912-0.736-1.648 0-1.648 1.456 0 3.296-4.208 6.944-8.592 7.68-1.824 0.176-3.104 1.456-2.736 2.56 0.176 1.456-2.384 2.016-8.416 1.824-9.152-0.368-16.832 3.664-16.832 8.96 0 2.016-3.664 8.224-8.416 14.816-0.368 0.368-2.016 0-3.84-0.736-3.104-1.28-3.104-1.456 0.368-2.736 2.736-1.28 1.824-1.648-4.016-1.648-6.576-0.176-7.872-0.736-7.872-3.84 0-2.016-0.736-3.664-1.456-3.664-0.912 0-3.104-3.664-5.12-8.224-2.56-6.224-4.208-8.224-7.312-8.224-2.192 0-4.384 1.28-5.12 2.736-0.544 1.456-3.104 2.736-5.664 2.736h-4.576v-19.024c0-15.184 0.544-19.2 2.736-20.112 1.456-0.544 2.736-2.736 2.736-4.752 0-5.488 9.696-14.624 15.36-14.624 2.56 0 4.576 0.544 4.384 1.456-0.544 1.824 5.856 11.52 10.24 15.552 4.208 3.84 12.624 4.016 16.464 0.368 1.456-1.456 3.472-2.736 4.576-2.736s2.016-1.28 2.016-2.736 0.544-2.736 1.456-2.736c0.736 0 2.928-2.928 4.752-6.4l3.472-6.4-6.576-6.224c-3.84-3.472-6.768-7.136-6.768-8.224s-0.912-2.016-2.016-2.016c-3.472 0-19.568-17.92-23.040-25.6-0.736-1.456-1.648-3.104-2.384-3.664-0.544-0.544-2.384-3.104-4.208-5.856-4.576-7.136-4.016-15.728 1.28-20.672 2.384-2.192 4.944-5.856 5.664-7.856 0.544-2.192 2.384-4.016 3.84-4.016s3.104-1.28 3.664-2.736c0.736-1.456 2.192-2.736 3.664-2.736s2.56-0.736 2.56-1.824c0-0.912 1.104-1.824 2.56-1.824 1.28 0 3.472-1.28 4.752-2.736s4.576-2.736 7.312-2.736c2.928 0 5.488-0.912 5.856-2.016s4.576-2.384 9.328-2.928c4.752-0.544 9.152-1.824 9.696-2.56 0.544-0.912 3.104-1.648 5.856-1.648s8.96-1.456 13.712-3.104c11.152-4.016 10.976-8.048-0.544-16.464-4.576-3.296-8.96-6.768-10.064-7.504-6.576-4.752-12.256-7.68-15.552-7.68-3.104 0-3.664-1.104-3.664-7.312 0-4.016-0.736-7.312-1.824-7.312-0.912 0-1.824-1.28-1.824-2.736s0.912-2.736 1.824-2.736c1.104 0 1.824-2.928 1.824-6.4 0-4.016 1.104-6.944 2.736-7.504 1.456-0.736 2.736-3.104 2.736-5.488s0.912-4.384 1.824-4.384c1.104 0 1.824-2.016 1.824-4.576 0-3.472-0.912-4.576-4.016-4.576-8.416 0-14.272 8.96-14.272 21.76 0 4.944-1.104 11.152-2.56 13.712-2.736 5.312-1.824 21.216 1.28 23.232 2.384 1.648-4.208 4.752-9.152 4.208-3.296-0.176-4.208 0.736-4.208 4.384s0.736 4.384 4.384 3.664c4.576-0.912 6.768 1.28 5.312 5.488-0.544 1.456-4.576 2.192-11.52 2.192-5.856 0-11.344 0.912-11.888 1.824-0.544 1.104-4.208 1.824-8.048 1.824-3.664 0-8.416 1.28-10.432 2.736-1.824 1.456-5.312 2.736-7.504 2.736-2.384 0-4.208 0.736-4.208 1.648s-2.192 2.192-4.752 2.736c-4.752 1.28-15.36 10.784-15.36 13.904 0 1.104-0.544 1.824-1.456 1.824-1.456 0-5.488 10.608-7.136 18.464-0.544 2.928 0.176 5.856 2.016 7.68 1.648 1.456 2.928 3.664 2.928 4.752s0.912 2.016 1.824 2.016c1.104 0 1.824 1.104 1.824 2.56 0 4.016-8.592 4.752-12.064 0.912-1.824-2.016-3.84-3.472-4.752-3.472-2.384 0-6.944-4.752-6.944-7.136 0-1.104-1.28-2.016-2.736-2.016s-2.736-1.28-2.736-2.736c0-3.664-2.384-3.472-6.032 0.544-2.192 2.384-3.104 6.768-3.104 14.624 0 10.24-0.368 11.344-3.664 11.344-7.312 0-22.672-13.168-21.024-17.744 0.368-1.28-0.544-2.384-2.192-2.384-2.56 0-2.736-2.384-1.648-20.48 1.28-18.288 1.824-21.024 6.576-27.792 5.488-7.872 11.712-13.904 14.448-13.904 0.912 0 2.016-1.28 2.736-2.736 0.544-1.456 3.104-2.736 5.664-2.736s4.576-0.736 4.576-1.824c0-0.912 0.736-1.824 1.824-1.824 0.912 0 7.136-2.384 13.344-5.488 6.4-2.928 14.272-5.488 17.376-5.488 6.4 0 6.576-0.544 5.856-14.448-0.176-4.944 0.544-8.592 2.016-9.504 1.456-0.736 2.736-6.224 3.104-13.344 0.368-6.576 1.456-12.064 2.384-12.064s1.648-1.648 1.648-3.664c0-2.016 1.28-4.208 2.736-4.752 1.456-0.736 2.736-3.104 2.736-5.488 0-3.84-0.736-4.384-7.312-4.384-6.224 0-7.312 0.544-7.312 3.84 0 2.016-1.28 4.944-2.736 6.4-1.456 1.648-2.736 4.384-2.736 6.4 0 1.824-0.736 3.472-1.824 3.472-0.912 0-1.824 2.736-1.824 6.032 0 4.016-1.28 6.576-3.664 8.224-2.192 1.28-3.296 3.104-2.736 4.016 1.648 2.736 4.576 2.192 4.576-0.736 0-1.456 1.28-2.928 2.736-3.664 2.016-0.736 2.736 0.368 2.736 4.208 0 4.208-1.28 5.664-7.312 8.592-4.016 1.824-7.312 4.208-7.312 4.944 0 0.912-0.736 0.912-1.824 0.368-0.912-0.544-1.824-0.176-1.824 0.912s-0.912 1.456-1.824 0.912c-1.104-0.736-4.016 0-6.4 1.648s-6.4 2.928-8.784 2.928c-2.56 0-5.488 1.28-6.768 2.736s-2.928 2.192-3.84 1.648c-0.912-0.544-1.648 0.368-1.648 1.824 0 1.648-0.912 2.928-2.016 2.928-2.192 0-16.832 10.784-17.744 13.168-0.368 0.912-1.824 1.456-3.296 1.456s-2.56 1.28-2.56 2.736-1.28 2.736-2.736 2.736-4.752 2.016-7.136 4.576c-2.384 2.56-4.944 4.576-5.856 4.576-0.912 0.176-3.664 2.56-6.224 5.488-2.384 3.104-5.488 5.488-6.944 5.488-1.28 0-3.664 1.28-5.12 2.736-2.016 2.016-4.944 2.384-10.432 1.456-4.208-0.544-7.856-1.824-8.224-2.736-0.912-2.016-7.136-1.824-8.592 0.368-2.016 3.296-6.4 2.016-6.4-1.824 0-3.472 5.856-10.976 8.416-10.976 2.736 0 6.032-6.768 6.224-12.256 0-4.208-0.912-6.032-2.928-6.032s-2.56-1.456-2.192-4.944c0.544-5.12 0.736-5.12 14.080-5.488 7.312 0 13.904-0.912 14.624-2.016 0.544-0.912 2.928-2.192 5.312-2.928 2.192-0.736 4.016-2.192 4.016-3.104s1.28-1.648 2.736-1.648c1.456 0 2.736-1.28 2.736-2.736s1.28-2.736 2.736-2.736c1.456 0 2.736-1.456 2.736-3.472 0-1.824 1.28-4.384 2.736-5.664s2.736-4.016 2.736-6.224c0-3.472-0.912-3.84-8.592-3.296-4.944 0.368-9.504 1.456-10.608 2.384-0.912 0.912-3.472 1.648-5.664 1.648s-4.944 1.28-6.224 2.736c-1.28 1.456-3.472 2.736-4.944 2.736s-3.664 1.104-5.12 2.384c-1.28 1.104-5.12 4.208-8.416 6.768s-6.944 5.664-8.224 6.944c-1.28 1.104-2.928 2.192-3.84 2.192-0.736 0-2.928 2.192-4.752 4.752-2.736 3.664-3.104 6.4-2.192 14.448l1.28 10.064h-5.664c-3.84 0-5.664-0.912-5.664-2.736 0-1.648-1.648-2.736-4.384-2.736-2.56 0-5.12-0.912-5.664-1.824-0.544-1.104-2.736-1.824-4.576-1.824-3.664 0-6.944-7.312-4.752-10.608 0.544-0.736-0.736-2.928-2.56-4.576-3.296-2.736-3.296-8.592 0-8.592 0.736 0 1.824-1.824 2.56-4.208 0.544-2.192 3.84-6.032 7.504-8.416 3.472-2.384 6.4-4.944 6.4-5.856s1.28-1.648 2.736-1.648c2.384 0 3.104-2.56 2.56-8.592-0.176-2.192-7.68-0.736-9.152 1.648-0.912 1.28-2.56 1.104-5.488-1.104-2.384-1.648-3.296-2.928-2.016-2.928 1.104 0 2.192-2.016 2.192-4.384s1.28-5.312 2.736-6.576c1.648-1.28 2.736-5.312 2.736-9.872 0-5.312 0.544-6.768 1.648-4.944 1.456 2.192 2.016 1.648 2.928-2.192 0.736-2.736 1.824-4.944 2.736-4.944 0.736 0 2.736-3.104 4.752-6.768 3.296-6.576 4.208-7.872 9.504-14.080 1.104-1.456 2.192-4.016 2.192-5.664 0-1.456 0.736-2.736 1.648-2.736s3.664-3.104 5.856-6.768c2.384-3.84 6.032-8.96 8.224-11.344s5.12-6.4 6.576-8.96c2.928-5.664 17.184-20.48 19.744-20.48 0.912 0 1.824-0.912 1.824-2.016 0-1.28 1.824-3.84 4.208-6.032s4.752-5.312 5.488-7.136 2.736-3.664 4.384-4.384c1.824-0.736 4.016-2.192 4.752-3.664 2.928-4.576 8.224-2.56 12.432 4.944 2.736 4.752 5.488 7.312 7.872 7.312 4.016 0 22.304-8.592 26.336-12.432 1.28-1.104 3.664-2.192 5.12-2.192s2.56-0.736 2.56-1.824c0-0.912 1.28-1.824 2.736-1.824s2.736-1.28 2.736-2.736c0-1.648 1.648-2.736 4.576-2.736 2.56 0 4.576-0.736 4.576-1.456 0-2.192 13.344-7.68 18.656-7.68 2.56 0 5.12-1.28 5.856-2.736 0.544-1.456 2.56-2.736 4.576-2.736s4.208-0.736 4.752-1.824c1.28-2.192 21.584-2.56 23.6-0.544s5.488 1.824 6.944-0.176c0.544-0.912 2.928-2.016 5.12-2.384 4.016-0.544 4.016-0.544 1.104 4.016-5.12 7.872-3.296 10.976 6.224 10.432 4.576-0.368 8.96-1.456 10.064-2.384 0.912-0.912 4.208-1.648 7.312-1.648s6.576-0.912 7.68-2.016c3.104-3.104 27.792-4.016 39.872-1.648 6.032 1.28 16.272 2.192 22.864 2.192s10.432 0.368 8.784 0.912c-1.824 0.368-3.296 1.28-3.296 1.824s1.456 2.192 3.296 3.472c5.488 4.208 0.544 8.96-9.872 9.504-12.992 0.736-15.36 1.824-10.976 5.12 2.016 1.456 2.928 2.56 1.824 2.56-0.912 0.176 0.912 1.456 3.84 3.296 4.016 2.192 11.888 3.472 29.264 4.208 26.704 1.456 34.56 2.736 37.68 6.4 1.104 1.456 4.752 2.56 7.856 2.56 4.016 0 4.944 0.544 3.104 1.648-2.016 1.28-1.648 1.824 1.456 2.928 3.472 1.104 14.816 10.976 14.816 12.992 0 3.296-6.4 6.224-13.536 6.224-9.152 0-11.888 2.192-7.68 6.576 1.648 1.456 2.928 4.016 2.928 5.488s0.912 2.56 1.824 2.56c1.104 0 1.824 1.104 1.824 2.384 0.176 3.104 8.592 12.256 11.52 12.256 1.28 0 4.016 1.28 6.032 2.736 1.824 1.456 5.296 2.736 7.68 2.736 2.192 0 4.016 0.912 4.016 1.824 0 1.104 1.456 1.824 3.472 1.824 1.824 0 4.384 1.104 5.488 2.56 1.28 1.456 4.208 3.104 6.576 3.664 2.56 0.736 4.576 2.016 4.576 2.928 0 1.104 1.104 1.824 2.384 1.824s4.384 2.016 7.136 4.576c2.736 2.56 5.488 4.576 6.032 4.576 2.384 0 8.224 7.68 8.224 10.976 0 5.488-7.504 8.416-14.448 5.488-2.928-1.104-6.4-1.648-7.312-0.912-2.56 1.456-2.56 19.2-0.176 19.2 0.912 0 2.192 2.016 2.928 4.576 0.544 2.56 1.824 4.576 2.736 4.576s1.648 1.824 1.648 4.208c0 4.016 5.664 10.432 9.328 10.432 0.912 0 1.456 0.736 0.912 1.648s0.736 2.016 2.736 2.56c2.192 0.544 3.296 1.824 2.736 2.736-2.016 3.104 0.544 6.768 7.312 10.432 4.384 2.384 5.664 3.84 4.016 4.944-1.824 1.104-1.824 1.456 0 1.456 1.104 0 2.192 1.28 2.192 2.736s1.28 2.736 2.736 2.736c1.456 0 2.736 1.28 2.736 2.736s1.28 2.736 2.928 2.736c1.456 0 2.192 0.912 1.648 1.824-0.544 1.104 0.176 1.824 1.648 1.824s3.296 0.736 3.84 1.824c0.544 1.104-0.176 1.28-1.648 0.736-3.104-1.28-4.016 2.016-1.104 3.84 2.384 1.456 2.384 10.064-0.176 10.064-0.912 0-1.28-1.104-0.544-2.192 1.104-1.824 0.736-1.824-1.456 0-2.384 1.824-3.84 1.648-8.416-0.912-5.488-3.104-5.856-3.104-8.416 0.368-3.104 4.016-3.84 11.888-1.28 11.888 0.912 0 2.192 4.208 2.928 9.152 0.736 5.12 2.016 9.152 2.928 9.152s1.648 4.384 1.648 9.696c0 5.12 1.104 11.52 2.384 14.080s2.56 7.856 2.928 11.888c0.176 3.84 1.824 8.224 3.472 9.696 1.824 1.28 2.192 2.016 0.912 1.456-1.28-0.736-1.824 0.912-1.456 5.296 0.368 3.472 0 6.4-0.736 6.4s-1.104 2.384-0.544 5.12c0.544 4.944 0.368 5.12-7.136 5.664-4.384 0.176-8.224 0.736-8.784 1.104-0.368 0.544-0.544 10.784-0.368 22.864 0.368 17.376-0.176 22.864-2.384 25.968-1.648 2.192-2.928 6.032-2.928 8.224 0 2.384-0.736 4.208-1.824 4.208-0.912 0-1.824 2.56-1.824 5.488 0 3.104-0.736 5.488-1.824 5.488-0.912 0-1.648-1.104-1.28-2.192 0.176-1.28-1.456-2.56-3.664-2.928-2.384-0.368-4.208-1.824-4.208-3.296s-0.736-2.56-1.648-2.56c-2.928 0-12.992 9.328-12.992 12.064 0 1.456-0.736 2.56-1.456 2.56-0.912 0-3.104 3.296-5.12 7.312-1.824 4.016-4.576 7.312-5.664 7.312-1.28 0-2.384 1.28-2.384 2.736s-0.736 2.736-1.648 2.736c-0.912 0-2.016 2.192-2.384 5.12-0.368 2.736-1.456 4.752-2.736 4.576-1.104-0.368-3.84 1.648-5.664 4.016-2.016 2.56-4.576 4.576-5.664 4.576-2.928 0-23.584 21.392-24.864 25.792-0.736 1.824-3.104 4.016-5.664 4.576-2.384 0.544-4.384 1.824-4.384 2.736s-1.28 1.648-2.736 1.648c-1.456 0-2.736 0.736-2.736 1.648s-1.824 2.384-4.016 3.104c-2.384 0.544-5.296 2.016-6.768 3.296-1.456 1.104-5.856 2.016-9.872 2.192-4.208 0-7.856 1.104-8.224 2.192-0.368 1.28-2.928 2.192-5.856 2.192s-6.4 1.28-8.048 2.736c-3.104 3.104-7.68 3.664-9.328 0.912zM431.696 444.8c-0.736-0.544-1.28 0-1.28 1.28s0.544 1.824 1.28 1.28c0.544-0.736 0.544-1.824 0-2.56zM345.376 434.736c1.104-0.736 0.368-1.456-1.28-1.456-1.824 0-3.296 1.28-3.296 3.104 0 1.648 0.544 2.192 1.456 1.28 0.736-0.912 2.192-2.192 3.104-2.928zM349.408 437.488c-0.736-0.544-1.824-0.544-2.56 0-0.544 0.736 0 1.28 1.28 1.28s1.824-0.544 1.28-1.28zM350.864 425.6c1.104-0.736 0.368-1.456-1.28-1.456-1.824 0-3.296 1.28-3.296 3.104 0 1.648 0.544 2.192 1.456 1.28 0.736-0.912 2.192-2.192 3.104-2.928zM370.064 428.88c0-0.368-2.016-1.104-4.576-1.456-2.384-0.544-4.016-0.176-3.472 0.544 0.912 1.648 8.048 2.384 8.048 0.912zM358 421.2c0.544-1.456 0.368-2.192-0.736-1.648s-1.824 1.824-1.824 2.928c0 2.56 1.28 2.016 2.56-1.28zM358.544 413.712c-0.736-0.544-1.824-0.544-2.56 0-0.544 0.736 0 1.28 1.28 1.28s1.824-0.544 1.28-1.28zM354.528 409.872c-0.544-0.544-2.016 0-3.296 1.28-1.648 1.824-1.456 2.016 1.104 0.912 1.824-0.544 2.736-1.648 2.192-2.192zM281.376 400.352c0.544-0.912 0.736-1.824 0.176-1.824s-1.456 0.912-2.016 1.824c-0.544 1.104-0.736 1.824-0.176 1.824s1.456-0.736 2.016-1.824zM129.952 278.368c-0.736-0.544-1.28 0-1.28 1.28s0.544 1.824 1.28 1.28c0.544-0.736 0.544-1.824 0-2.56zM164.688 278.016c-0.176-2.192-1.456-3.104-4.016-2.928-5.664 0.736-5.664 0.912-2.016 3.664 4.752 3.664 6.4 3.472 6.032-0.736zM193.584 233.936c0.544-0.912 0.736-1.824 0.176-1.824s-1.456 0.912-2.016 1.824c-0.544 1.104-0.736 1.824-0.176 1.824s1.456-0.736 2.016-1.824zM491.68 226.8c-0.368-3.296-3.84-4.752-5.488-2.192-1.456 2.56 0.176 5.12 3.296 5.12 1.456 0 2.56-1.28 2.192-2.928zM240.768 222.96c0.544-2.016 0.176-3.296-0.736-2.56-0.912 0.544-1.648 2.192-1.648 3.664 0 3.664 1.28 3.104 2.384-1.104zM171.648 180.896c0.544-0.912 0.736-1.824 0.176-1.824s-1.456 0.912-2.016 1.824c-0.544 1.104-0.736 1.824-0.176 1.824s1.456-0.736 2.016-1.824zM164.688 176.144c-0.544-0.544-2.192-0.736-3.472-0.176-1.456 0.544-0.912 1.104 1.104 1.104 2.016 0.176 3.104-0.368 2.384-0.912zM105.808 161.152c-0.544-0.544-2.016 0-3.296 1.28-1.648 1.824-1.456 2.016 1.104 0.912 1.824-0.544 2.736-1.648 2.192-2.192zM88.064 147.44c2.928-0.544 1.824-0.736-2.736-0.736-6.224 0.176-7.504 0.736-6.944 3.472 1.28 6.4 3.664 8.048 4.208 2.928 0.368-3.664 1.824-5.12 5.488-5.664zM83.68 139.568c0.544-1.456 0.368-2.192-0.736-1.648s-1.824 1.824-1.824 2.928c0 2.56 1.28 2.016 2.56-1.28zM78.736 134.816c-0.544-1.456-1.104-0.912-1.104 1.104-0.176 2.016 0.368 3.104 0.912 2.384 0.544-0.544 0.736-2.192 0.176-3.472zM83.488 131.152c-5.12-2.56-5.312-5.312-0.368-12.8 2.192-3.296 3.296-4.576 2.736-2.736s-0.368 2.928 0.736 2.192c0.912-0.544 1.648-3.104 1.456-5.488-0.368-3.472-1.456-4.576-4.752-4.576-4.752 0-14.992 5.312-14.992 7.68 0 0.736-1.28 1.456-2.736 1.456s-2.736 1.28-2.736 2.736c0 1.456-0.736 2.736-1.824 2.736-0.912 0-1.824 1.28-1.824 2.736 0 1.28-1.456 3.472-3.104 4.384-2.736 1.648-2.56 1.824 1.824 2.016 2.928 0 6.4-1.104 7.872-2.56 1.28-1.456 4.016-2.384 5.664-2.192 1.824 0.368 3.84-0.368 4.576-1.456 0.912-1.104 1.456-0.368 1.456 2.016 0 2.192 1.456 4.384 3.296 4.752 5.664 1.456 6.944 1.104 2.736-0.912zM97.024 100.976c-0.736-0.544-1.824-0.544-2.56 0-0.544 0.736 0 1.28 1.28 1.28s1.824-0.544 1.28-1.28zM94.656 96.96c0.544-0.912-0.176-2.192-1.824-2.736-4.016-1.648-4.384-1.456-4.384 1.648 0 2.928 4.576 3.84 6.224 1.104zM387.808 70.8c-0.544-1.456-1.104-0.912-1.104 1.104-0.176 2.016 0.368 3.104 0.912 2.384 0.544-0.544 0.736-2.192 0.176-3.472zM308.432 37.344c-0.544-1.648-1.456-2.56-1.824-2.016-0.544 0.544-0.368 1.648 0.368 2.736 1.648 2.928 2.736 2.384 1.456-0.736zM316.304 34.592c-0.176-6.032-1.456-6.768-4.576-2.928-1.456 1.824-1.648 2.928-0.176 3.84 1.104 0.544 1.456 2.016 0.912 2.928-0.736 0.912 0 1.648 1.456 1.648 1.648 0 2.56-1.824 2.384-5.488z"></path>
<path d="M313.92 505.152c0.736-0.544 1.824-0.544 2.56 0 0.544 0.736 0 1.28-1.28 1.28s-1.824-0.544-1.28-1.28z"></path>
<path d="M92.096 352.8c-2.192-1.456-1.824-1.824 1.456-1.824 2.384 0 3.664 0.736 3.104 1.824-1.28 2.192-1.104 2.192-4.576 0z"></path>
<path d="M85.328 322.448c-4.384-4.576-7.872-9.504-7.872-10.784 0-3.84-5.664-10.064-9.152-10.064-5.488 0-10.064 7.68-10.064 17.008 0 4.752-0.544 8.784-1.28 9.152-0.544 0.176-3.664-1.456-6.576-3.664-5.664-4.208-5.664-4.016-9.504-37.68-2.384-20.848-0.912-22.496 17.92-22.496 7.872 0 14.080-0.912 15.36-2.192s3.296-2.192 4.576-2.192c4.016 0 9.696 6.032 9.696 10.432 0 2.384 0.736 5.664 1.648 7.504 1.104 1.648 2.384 6.944 2.928 11.888 0.736 4.752 1.824 8.224 2.928 7.68 0.912-0.736 1.648 2.192 1.648 6.4s1.28 9.872 2.928 12.8c2.016 3.104 2.56 6.768 1.824 9.872-1.824 7.136-8.048 5.856-17.008-3.664zM88.432 310.752c0-0.912-0.368-1.824-0.736-1.824-0.544 0-1.456 0.912-2.016 1.824-0.544 1.104-0.176 1.824 0.736 1.824 1.104 0 2.016-0.736 2.016-1.824zM87.152 304.704c0.544-1.456-0.176-2.56-1.456-2.56s-2.016 1.104-1.456 2.56c0.544 1.28 1.104 2.384 1.456 2.384s0.912-1.104 1.456-2.384z"></path>
<path d="M348.128 14.48c0-0.912 0.912-1.824 2.016-1.824 0.912 0 1.28 0.912 0.736 1.824-0.544 1.104-1.456 1.824-2.016 1.824-0.368 0-0.736-0.736-0.736-1.824z"></path>
</svg>
