<!-- Generated by IcoMoon.io -->
<svg version="1.1" xmlns="http://www.w3.org/2000/svg" width="32" height="32" viewBox="0 0 32 32">
<title>weapons-hook</title>
<path d="M19.753 31.803c-1.037-0.296-2.426-1.278-2.982-2.075-1.019-1.5-1.167-1.963-1.186-3.556-0.018-1.296 0.056-1.667 0.5-2.575 0.63-1.296 1.222-2 2.259-2.723 0.889-0.611 0.982-0.945 0.463-1.648-0.407-0.519-0.241-1.111 0.315-1.111s0.778-0.407 0.778-1.426c0-0.723-0.074-1.019-0.315-1.148-0.926-0.519-0.926-0.537-0.278-1.111 0.519-0.482 0.593-0.667 0.593-1.463 0-1.574-0.333-1.574-1.797-0.074-2.167 2.241-2.334 2.5-1.908 2.926 0.222 0.222-0.556 1.482-1.241 2.001-0.445 0.333-0.463 0.333-0.871-0.056l-0.426-0.407-2.352 2.445c-1.408 1.482-2.334 2.575-2.297 2.76 0.037 0.166-0.222 0.63-0.556 1-0.333 0.389-0.833 1.186-1.111 1.797-0.278 0.593-0.574 1.093-0.648 1.093-0.204 0-2.334-2.037-2.556-2.445-0.185-0.352 0.204-1.426 0.667-1.815 0.185-0.148 0.685-0.741 1.13-1.334 0.481-0.611 0.926-1.019 1.074-0.963 0.296 0.111 0.704-0.352 0.63-0.723-0.074-0.315 1.093-1.667 1.315-1.519 0.222 0.13 0.574-0.333 0.667-0.852 0.056-0.222 0.352-0.685 0.667-1.019 0.796-0.815 0.667-1.186-1.037-2.964-0.759-0.815-1.389-1.5-1.389-1.537s0.37 0 0.815 0.056c1.019 0.166 2.889 0.871 3.612 1.389 0.5 0.37 1.13 0.37 1.13 0.018 0-0.315 2.075-2.389 3.519-3.538 0.982-0.759 1.463-1.26 1.408-1.444-0.092-0.352 0.815-1.148 1.352-1.186 0.204 0 0.315-0.111 0.241-0.222-0.056-0.092-1.019-1.556-2.13-3.204-1.111-1.667-1.963-3.074-1.908-3.13 0.13-0.13 2.111 1.056 3.445 2.093 0.556 0.426 1.463 1.26 1.982 1.852l0.982 1.074 0.537-0.519c0.278-0.278 0.593-0.481 0.685-0.463 0.389 0.074 0.63-0.037 0.63-0.278 0-0.148 0.37-0.519 0.833-0.833 1.296-0.871 1.537-0.982 1.686-0.723 0.074 0.111 0.056 0.148-0.056 0.092-0.092-0.056-0.37 0.018-0.593 0.185-0.556 0.37-0.259 0.685 0.407 0.445 0.704-0.278 1.186 0.222 1.389 1.408 0.092 0.537 0.111 1.037 0.018 1.111-0.074 0.074-0.166 0.352-0.204 0.611-0.037 0.37-0.352 0.611-1.5 1.204-1.278 0.648-1.426 0.797-1.334 1.167 0.074 0.315-0.092 0.611-0.704 1.278l-0.815 0.852-0.5-0.333c-0.482-0.315-0.5-0.315-0.926 0.074-0.389 0.37-0.426 0.537-0.352 1.648 0.111 1.445 0.352 1.926 1.148 2.259 0.778 0.315 0.723 0.704-0.092 0.852l-0.667 0.13 0.074 1.463c0.056 1.334 0.111 1.519 0.574 1.908 0.278 0.241 0.5 0.482 0.5 0.537s-0.241 0.222-0.556 0.389c-0.5 0.259-0.537 0.37-0.593 1.445l-0.056 1.148-0.963 0.463c-1.667 0.797-3.019 2.426-3.019 3.649 0 1.426 0.926 3 2.111 3.575 0.963 0.463 2.908 0.519 3.334 0.092 0.148-0.148 0.389-0.278 0.519-0.278 0.296-0.018 2.445-2.037 2.76-2.63 0.13-0.241 0.222-0.982 0.222-1.667-0.018-0.704 0-1.26 0.037-1.26 0.018 0 0.241 0.389 0.463 0.889 0.333 0.667 0.426 1.222 0.445 2.445 0.018 1.408-0.037 1.648-0.426 2.13-0.37 0.463-0.407 0.482-0.315 0.148 0.185-0.593 0.056-0.537-0.945 0.445-1.315 1.278-2.797 1.908-4.408 1.889-0.704 0-1.574-0.092-1.908-0.185z"></path>
</svg>
