<!-- Generated by IcoMoon.io -->
<svg version="1.1" xmlns="http://www.w3.org/2000/svg" width="32" height="32" viewBox="0 0 32 32">
<title>weapons-club</title>
<path d="M2.735 29.269c0.085-0.064 0.202-0.118 0.352-0.16l0.16-0.032c0.47-0.149 0.79-0.373 0.961-0.672 0.277-0.512 0.641-0.918 1.089-1.217 0.598-0.427 1.121-0.982 1.569-1.665 0.683-1.067 1.292-2.071 1.825-3.010l0.032-0.064c0.961-1.686 1.718-2.913 2.273-3.682 0.277-0.341 0.64-0.886 1.089-1.633l0.384-0.64c0.107-0.192 0.288-0.47 0.544-0.832 0.47-0.726 0.779-1.292 0.929-1.697 0.192-0.469 0.566-1.12 1.121-1.953 0.512-0.769 0.864-1.366 1.057-1.793 0-0.086 0.043-0.15 0.128-0.192 0.405-0.384 0.587-0.821 0.544-1.313-0.043-0.341-0.214-0.779-0.512-1.313l-0.224-0.448c-0.085-0.192-0.091-0.363-0.016-0.512s0.208-0.245 0.4-0.288l2.081-0.544c0.32-0.107 0.56-0.325 0.72-0.656s0.208-0.678 0.144-1.041c-0.192-0.875-0.405-1.654-0.64-2.337-0.064-0.213-0.053-0.368 0.032-0.464s0.245-0.123 0.48-0.080l1.889 0.416c0.405 0.107 0.71 0.038 0.913-0.208s0.475-0.421 0.816-0.528c0.192-0.085 0.502-0.149 0.929-0.192l0.128-0.032c1.28-0.299 2.273-0.459 2.978-0.48 0.256-0.021 0.598 0.064 1.025 0.256l0.288 0.128c0.085 0.043 0.149 0.149 0.192 0.32l0.096 0.384c0.149 0.577 0.213 1.025 0.192 1.345-0.021 0.214-0.005 0.389 0.048 0.528s0.165 0.24 0.336 0.304c0.256 0.15 0.234 0.299-0.064 0.448-0.448 0.256-0.725 0.528-0.832 0.816s-0.075 0.678 0.096 1.169c0.085 0.235 0.139 0.512 0.16 0.832 0.021 0.192 0.032 0.48 0.032 0.865v0.224c0.021 0.149-0.021 0.256-0.128 0.32-0.064 0.043-0.192 0.085-0.384 0.128l-0.192 0.032c-0.192 0.043-0.48 0.053-0.864 0.032-0.512-0.021-0.896 0.021-1.153 0.128-0.384 0.128-0.693 0.4-0.929 0.816s-0.294 0.805-0.176 1.169c0.118 0.363 0.155 0.854 0.112 1.473 0 0.32-0.171 0.48-0.512 0.48h-0.768c-0.726-0.021-1.356 0.267-1.889 0.864-0.299 0.341-0.736 0.843-1.313 1.505-0.875 1.025-1.548 1.782-2.017 2.273l-0.576 0.608c-1.28 1.345-2.22 2.37-2.818 3.074-0.384 0.469-0.971 1.163-1.761 2.081l-0.961 1.121c-0.341 0.384-0.576 0.683-0.704 0.897-0.213 0.384-0.609 0.902-1.185 1.553s-0.972 1.158-1.185 1.521c-0.641 1.046-1.249 1.943-1.825 2.69-0.086 0.107-0.187 0.293-0.304 0.56s-0.218 0.464-0.304 0.592c-0.149 0.213-0.256 0.347-0.32 0.4s-0.133 0.070-0.208 0.048c-0.075-0.021-0.218-0.096-0.432-0.224-0.128-0.064-0.234-0.107-0.32-0.128s-0.192-0.011-0.32 0.032c-0.277 0.128-0.56 0.128-0.848 0s-0.496-0.341-0.624-0.64c-0.299-0.811-0.576-1.398-0.832-1.761zM20.474 10.122c0.128-0.043 0.331-0.064 0.608-0.064l0.288-0.032c0.363-0.043 0.613-0.166 0.752-0.368s0.155-0.475 0.048-0.816l-0.064-0.256c-0.085-0.277-0.117-0.48-0.096-0.608 0.021-0.341-0.15-0.491-0.512-0.448-0.576 0.128-1.12 0.352-1.633 0.672-0.171 0.086-0.229 0.203-0.176 0.352s0.101 0.352 0.144 0.608c0.021 0.234 0.043 0.405 0.064 0.512 0.107 0.32 0.299 0.47 0.576 0.448zM25.661 4.39c0-0.107-0.011-0.256-0.032-0.448l-0.032-0.416c-0.107-0.555-0.384-0.779-0.832-0.672-0.405 0.064-0.864 0.256-1.377 0.576-0.085 0.021-0.144 0.096-0.176 0.224s0.032 0.395 0.192 0.8c0.16 0.405 0.293 0.651 0.4 0.736 0.064 0.064 0.16 0.086 0.288 0.064h0.128c0.149-0.021 0.384-0.085 0.704-0.192 0.192-0.086 0.331-0.139 0.416-0.16 0.256-0.085 0.363-0.256 0.32-0.512z"></path>
</svg>
