<!-- Generated by IcoMoon.io -->
<svg version="1.1" xmlns="http://www.w3.org/2000/svg" width="32" height="32" viewBox="0 0 32 32">
<title>weapons-scythe</title>
<path d="M16.832 0.016h0.544c0.32-0.021 0.565-0.021 0.736 0 0.256 0.043 0.491 0.117 0.704 0.224 0.064 0.043 0.203 0.032 0.416-0.032 0.128-0.064 0.224-0.096 0.288-0.096 1.023-0.086 2.261 0.085 3.711 0.512 0.534 0.171 1.323 0.405 2.367 0.704l1.184 0.352h0.128c0.213 0.021 0.341 0.085 0.384 0.192 0.085 0.277 0.245 0.523 0.48 0.736 0.15 0.128 0.384 0.299 0.704 0.512 0.213 0.149 0.373 0.267 0.48 0.352 0.363 0.277 0.608 0.496 0.736 0.656s0.192 0.336 0.192 0.528c0 0.192-0.064 0.502-0.192 0.928-0.213 0.725-0.384 1.269-0.512 1.631-0.235 0.598-0.501 1.098-0.8 1.503-0.192 0.277-0.373 0.416-0.544 0.416s-0.288-0.037-0.352-0.112c-0.064-0.075-0.117-0.197-0.16-0.368-0.405-1.13-0.907-2.079-1.503-2.847-0.768-1.066-1.834-1.887-3.199-2.463-0.32-0.15-0.704-0.118-1.152 0.096s-0.821 0.534-1.12 0.96c-0.064 0.064-0.128 0.181-0.192 0.352s-0.123 0.293-0.176 0.368c-0.053 0.075-0.128 0.123-0.224 0.144s-0.261-0.075-0.496-0.288c-0.149-0.128-0.267-0.214-0.352-0.256l-0.192-0.096c-0.298-0.17-0.523-0.256-0.672-0.256-0.256-0.021-0.512 0.096-0.768 0.352-0.086 0.064-0.256 0.086-0.512 0.064-0.149 0-0.384-0.043-0.704-0.128l-0.16-0.032c-2.026-0.405-4.159-0.405-6.398 0-0.256 0.043-0.656 0.096-1.2 0.16s-0.944 0.117-1.2 0.16c-0.448 0.085-0.848 0.202-1.2 0.352s-0.858 0.427-1.519 0.832c-0.576 0.341-1.013 0.587-1.312 0.736l-0.16 0.096c-0.128 0.107-0.234 0.165-0.32 0.176s-0.16-0.048-0.224-0.176l-0.096-0.16c-0.107-0.192-0.16-0.341-0.16-0.448 0-0.171 0.107-0.341 0.32-0.512 1.322-0.96 2.516-1.759 3.583-2.399 1.322-0.811 2.607-1.482 3.855-2.015s2.853-0.927 4.814-1.184l0.512-0.064c0.725-0.128 1.269-0.182 1.631-0.16zM19.263 2.032l-0.032-0.032h-0.064v0.032c0 0.043 0.011 0.085 0.032 0.128 0-0.043 0.021-0.086 0.064-0.128zM26.684 9.037c0 0.064-0.011 0.139-0.032 0.224 0 0.171-0.021 0.288-0.064 0.352-0.491 0.854-1.162 2.154-2.015 3.903-0.576 1.194-1.013 2.084-1.312 2.671s-0.672 0.88-1.12 0.88c-0.854 0-1.61 0.245-2.271 0.736-0.533 0.405-1.045 1.002-1.535 1.791-1.471 2.367-2.036 4.841-1.695 7.422 0 0.171 0.032 0.32 0.096 0.448 0.107 0.341 0.107 0.645 0 0.912s-0.33 0.464-0.672 0.592c-0.427 0.149-0.886 0.373-1.376 0.672-0.277 0.171-0.704 0.448-1.28 0.832-0.768 0.534-1.365 0.907-1.791 1.12-0.064 0.021-0.155 0.085-0.272 0.192s-0.219 0.171-0.304 0.192c-0.107 0.043-0.203 0.032-0.288-0.032-0.15-0.15-0.064-0.459 0.256-0.928 0.448-0.533 0.789-1.195 1.024-1.983 0.15-0.469 0.309-1.194 0.48-2.175 0.15-0.811 0.277-1.407 0.384-1.791 0.341-1.13 0.661-2.090 0.96-2.879 0.384-1.002 0.8-1.898 1.248-2.687 1.322-2.239 2.932-3.711 4.83-4.415 0.682-0.256 1.258-0.661 1.727-1.216 0.384-0.427 0.736-1.023 1.056-1.791 0.854-1.983 1.493-3.721 1.919-5.214 0.085-0.298 0.197-0.464 0.336-0.496s0.293 0.048 0.464 0.24c0.277 0.277 0.523 0.64 0.736 1.088 0.128 0.256 0.277 0.651 0.448 1.184z"></path>
</svg>
