<!-- Generated by IcoMoon.io -->
<svg version="1.1" xmlns="http://www.w3.org/2000/svg" width="32" height="32" viewBox="0 0 32 32">
<title>weapons-bident</title>
<path d="M13.451 31.947c-0.191-0.468-0.017-2.793 0.711-9.733 0.087-0.954 0.121-1.787 0.069-1.891-0.139-0.226-0.937-0.017-1.371 0.364-0.677 0.607-1.388 0.728-2.238 0.364-0.642-0.295-0.78-0.451-0.971-1.11-0.121-0.434-0.174-0.971-0.104-1.214 0.052-0.226-0.017-0.746-0.174-1.162-0.33-0.954-0.26-1.492 0.486-3.105 1.18-2.533 1.388-3.348 2.238-8.327 0.191-1.197 0.417-3.019 0.468-4.059 0.121-2.013 0.417-2.602 0.625-1.284 0.069 0.417 0.156 2.602 0.208 4.892 0.087 4.545-0.087 6.106-0.885 8.396-0.52 1.474-0.538 1.804-0.121 2.168 0.399 0.347 0.746 0.416 1.162 0.174 0.538-0.295 4.649-0.364 4.996-0.087 0.399 0.329 0.85 0.191 1.145-0.347 0.243-0.417 0.226-0.538-0.364-1.735-1.128-2.307-1.145-2.411-1.197-7.529-0.052-6.28-0.052-6.506 0.226-6.679 0.174-0.104 0.243 0 0.277 0.417 0.121 1.509 1.717 10.669 1.978 11.311 0.104 0.295 0.364 0.763 0.555 1.041 0.208 0.295 0.677 1.162 1.041 1.96 0.763 1.631 0.798 2.585 0.121 3.435-0.191 0.26-0.364 0.694-0.364 0.971 0 0.728-0.295 1.18-0.954 1.457-0.92 0.382-1.874 0.312-2.394-0.174-0.503-0.468-1.093-0.434-1.249 0.069-0.052 0.191 0.104 2.446 0.347 5.049 0.434 4.598 0.451 5.985 0.017 6.263-0.174 0.121-4.233 0.208-4.285 0.104zM11.977 20.081c0.052-0.156 0.104-0.329 0.104-0.416 0-0.243-0.85-0.694-1.111-0.59-0.33 0.121-0.364 1.041-0.052 1.162 0.434 0.191 0.954 0.104 1.058-0.156zM21.015 19.595c0-0.642-0.312-0.746-0.78-0.277-0.295 0.295-0.329 0.416-0.156 0.625 0.121 0.139 0.382 0.243 0.572 0.208 0.277-0.035 0.364-0.174 0.364-0.555z"></path>
</svg>
