<!-- Generated by IcoMoon.io -->
<svg version="1.1" xmlns="http://www.w3.org/2000/svg" width="512" height="512" viewBox="0 0 512 512">
<title>monsters-of-order</title>
<g id="icomoon-ignore">
</g>
<path d="M344.336 407.392h-8.48c-7.648-0.336-13.376-0.336-17.2 0s-7.552-0.336-11.216-2c-2.656-1.344-6.144-3.328-10.48-5.984l-2.992-2-7.488-5.488c-8.656-6.992-15.632-11.648-20.944-13.968-2.656-1.008-6.32-3.488-10.976-7.488l-4.992-3.984c-3.328-2.32-6.24-3.328-8.736-2.992s-4.4 1.824-5.728 4.496c-1.008 2-2.080 3.248-3.248 3.744s-2.736 0.752-4.736 0.752h-2.496c-5.328 0-9.152 0.496-11.472 1.504-6.32 3.328-10.384 5.904-12.224 7.728s-4.080 6.064-6.736 12.72l-0.496 1.504c-0.656 1.008-0.992 1.824-0.992 2.496 0.656 3.328 0.336 6.656-0.992 9.968-0.656 2.32-1.984 5.312-3.984 8.976l-2.992 5.984c-0.336 1.008-1.168 2.336-2.496 3.984l-1.504 1.504c-1.344 1.664-2.832 2.576-4.496 2.736s-3.488-0.080-5.488-0.752l-13.472-5.984c-3.008-1.344-6.832-1.424-11.472-0.256s-7.648 3.072-8.976 5.728c-2.656 5.664-7.472 13.808-14.464 24.432l-6.48 10.48c-3.664 5.984-5.328 12.128-4.992 18.448 0.336 3.984-0.992 7.488-3.984 10.48-2 2-3.664 2.832-4.992 2.496-3.664-0.656-7.152 1.088-10.48 5.232s-6.48 4.576-9.472 1.248l-3.488-4.496c-3.328-3.664-5.664-6.656-6.976-8.976-0.656-1.008-2-2.16-3.984-3.488-9.648-4.992-21.776-6.656-36.416-4.992-2.32 0-5.648 1.824-9.968 5.488l-0.992 0.992c-1.664 1.664-4.656 3.824-8.976 6.48l-3.984 2c-1.328 0.656-2.576 0.912-3.744 0.752s-2.080-0.736-2.736-1.744c-0.656-1.008-0.832-2.16-0.496-3.488 3.664-11.632 6.16-23.104 7.488-34.416 0.336-2.656 1.328-6.48 2.992-11.472l2-7.984c1.328-7.312 2.176-12.8 2.496-16.464 0-5.984-1.328-12.128-3.984-18.448l-0.992-2.992c-1.328-2.992-2.16-5.152-2.496-6.48-0.336-2.656 0-5.152 0.992-7.488s0.656-4.832-0.992-7.488c-0.336-1.328-0.24-2.496 0.256-3.488s1.584-1.664 3.248-2c1.664-0.336 3.168-0.336 4.496 0 3.328 0.336 6.656-0.496 9.968-2.496 2.656-1.344 5.152-1.84 7.488-1.504s4.656-0.176 6.976-1.504c1.664-1.008 3.648-2.832 5.984-5.488l2-2c4-3.328 6.4-6.48 7.232-9.472s0.992-5.152 0.496-6.48l-2.24-5.984c-1.664-4.32-3.568-7.488-5.728-9.472s-2.816-4.080-2-6.24c0.816-2.176 3.232-3.248 7.232-3.248h1.504c2.32-0.336 3.824-0.16 4.496 0.496 1.344 1.344 2.656 1.92 3.984 1.744s2.992-0.752 4.992-1.744l0.992-0.496c9.648-3.328 16.288-8.816 19.952-16.464l0.992-1.504c2-3.984 3.328-6.976 3.984-8.976 1.008-3.664 1.328-6.976 0.992-9.968-0.336-4.32 0-10.8 0.992-19.456 0.656-6.32 0.992-11.136 0.992-14.464 0-12.304-2.32-25.936-6.976-40.896-4.32-13.296-12.64-26.768-24.944-40.4-3.328-3.664-5.648-9.312-6.976-16.96-0.336-3.008 0.832-5.824 3.488-8.48 1.008-1.008 2.512-1.168 4.496-0.496h0.496c12.976 3.664 25.12 3.984 36.416 0.992 1.664-0.32 4.32-0.496 7.984-0.496h5.984c7.968 0 14.8-2.832 20.448-8.48 2.656-2.992 2.992-5.904 0.992-8.736s-4.496-3.744-7.488-2.736l-2.496 0.992c-2 0.336-3.328 0.832-3.984 1.504-2.992 1.664-7.648 2.992-13.968 3.984-3.984 0.32-7.136 0.832-9.472 1.504s-4.16 0.512-5.488-0.496c-2-1.664-4.16-2.176-6.48-1.504s-4.656 0.656-6.976 0c-1.344-0.336-3.408-1.072-6.24-2.24s-4.912-1.92-6.24-2.24c-2.656-1.008-3.984-4-3.984-8.976-0.32-2.656 0.512-6.64 2.496-11.968 1.664-3.984 2.576-7.232 2.736-9.728s1.744-6.4 4.736-11.728c1.664-3.328 2.832-5.824 3.488-7.488 1.344-3.664 4.16-8.48 8.48-14.464 3.008-3.984 5.152-6.976 6.48-8.976 1.664-3.008 4.32-5.824 7.984-8.48 2-1.664 5.312-3.984 9.968-6.976l4.992-2.992c9.968-6.32 21.952-10.464 35.92-12.464 1.664-0.336 4-1.008 6.976-2l2.496-0.992c2.656-1.664 6.976-3.248 12.976-4.736s10.32-2.912 12.976-4.24c0.656-0.336 1.984-0.336 3.984 0h38.4c1.008 0 2.496 0.336 4.496 0.992l3.488 0.496c6.32 1.664 12.128 2.656 17.456 2.992 9.968 1.008 19.616 4.32 28.928 9.968 1.344 0.656 1.84 1.984 1.504 3.984v0.992c0 2-1.008 2.992-2.992 2.992-1.008 0-2.416 0.416-4.24 1.248s-3.232 1.088-4.24 0.752c-2.656-0.336-6.656 0.176-11.968 1.504l-5.984 1.504c-8.976 1.328-15.632 3.008-19.952 4.992l-4.496 2c-5.328 2-9.152 3.488-11.472 4.496-11.632 3.984-23.776 10.144-36.416 18.448-2.32 1.664-5.152 4.24-8.48 7.728s-6 5.904-7.984 7.232c-2.656 1.664-4.816 4.16-6.48 7.488-2.992 5.328-4.496 10.976-4.496 16.96v3.488c0.336 4.32 0 7.568-0.992 9.728s-0.32 4.736 2 7.728 4.912 4.656 7.728 4.992c2.832 0.336 5.232 1.344 7.232 2.992 1.328 1.344 2.992 3.328 4.992 5.984 3.984 5.984 6.656 11.968 7.984 17.952 1.008 3.328 1.424 6.24 1.248 8.736s-1.088 5.072-2.736 7.728l-4.496 7.488c-3.008 5.984-5.488 10.304-7.488 12.976-3.664 4.656-4.32 10.624-2 17.952l3.488 11.472c0.336 4.656 3.488 6.48 9.472 5.488 2.656-0.656 5.808-2.496 9.472-5.488l3.984-2.992c5.664-4.32 10.48-10.144 14.464-17.456 3.008-4.992 6-11.968 8.976-20.944 1.008-4.32 1.008-8.32 0-11.968-1.008-2.32-1.088-4.24-0.256-5.728s2.24-3.072 4.24-4.736c4.656-3.328 8.48-3.328 11.472 0 0.656 0.656 1.664 1.168 2.992 1.504s2.176 0.672 2.496 0.992c2.32 1.328 3.904 0.832 4.736-1.504s2.256-4 4.24-4.992c4.656-2 6.976-6.144 6.976-12.464v-4.992c0-4.656-0.496-8.064-1.504-10.224s-1.328-5.568-0.992-10.224l0.496-4.496c0-1.664 0.832-2.992 2.496-3.984 7.312-7.312 12.144-13.296 14.464-17.952 1.008-1.664 2.336-2.992 3.984-3.984 1.008-1.008 2-1.168 2.992-0.496l0.496 0.496c1.008 1.008 2 2.656 2.992 4.992l1.504 2.992c2 4.32 4.496 10.8 7.488 19.456l2 4.992c0.656 2.32 1.488 3.824 2.496 4.496 2.656 1.008 5.648 3.328 8.976 6.976 2 2 3.488 3.328 4.496 3.984 5.664 4.32 10.32 7.312 13.968 8.976 5.664 2.656 11.136 3.824 16.464 3.488h1.504c3.984-0.656 6.816-0.336 8.48 0.992 0.336 0.32 1.328 0.576 2.992 0.752s2.832 0.752 3.488 1.744c0.656 0.992 0.576 2.16-0.256 3.488s-1.088 2.336-0.752 2.992c0.336 0.656 0.576 1.824 0.752 3.488s0.592 2.992 1.248 3.984c7.648 8.976 8.48 19.12 2.496 30.432-3.008 5.664-6.656 10.8-10.976 15.456l-2.496 2.496c-3.328 3.984-5.984 6.816-7.984 8.48-3.008 2.656-6.16 4.656-9.472 5.984l-4.496 2c-3.008 1.664-5.488 2.656-7.488 2.992-3.328 0.656-5.744 2.080-7.232 4.24s-2.752 4.912-3.744 8.224c-1.344 7.968-3.488 14.8-6.48 20.448-3.664 6.32-8.64 11.296-14.96 14.96-2.656 1.664-3.824 3.984-3.488 6.976s2 5.312 4.992 6.976c1.664 1.008 2.832 1.504 3.488 1.504 2.32 0 5.824 0.176 10.48 0.496 7.312 0.336 12.64 0 15.968-0.992s5.568-1.088 6.736-0.256c1.168 0.816 1.92 2.56 2.24 5.232v4.992c0 2.656 1.328 4.32 3.984 4.992 6.992 1.664 12.48 2.336 16.464 2 5.648 0 10.64-1.824 14.96-5.488l2.496-1.504c4.656-2.656 7.968-4.976 9.968-6.976 1.344-1.328 2.912-1.92 4.736-1.744s3.072 0.912 3.744 2.24l0.496 0.992c1.664 2.656 2.496 4.816 2.496 6.48v2.496c0.336 2 0.336 3.488 0 4.496-0.656 3.984-0.16 7.984 1.504 11.968 1.008 2.32 2.992 5.488 5.984 9.472l4.496 5.984c3.008 3.664 5.328 6.656 6.976 8.976 4.32 6.64 9.312 10.64 14.96 11.968 1.664 0 2.912 0.496 3.744 1.504s1.664 2.336 2.496 3.984c0.832 1.664 1.504 2.736 2 3.248s0.752 1.008 0.752 1.504c0 0.496-0.176 0.752-0.496 0.752-1.008 1.008-2.16 2.832-3.488 5.488-2.992 5.312-5.744 8.56-8.224 9.728s-5.568 3.408-9.232 6.736c-4.32 3.664-7.968 5.984-10.976 6.976l-5.488 2c-7.648 3.328-13.792 4.992-18.448 4.992-3.664-0.336-8.976-0.496-15.968-0.496zM172.752 415.376c0.336 0 0.656 0.080 0.992 0.256s0.656 0.080 0.992-0.256c3.664-2 6.32-5.984 7.984-11.968l-0.496-1.504c-0.656-0.656-1.488-0.832-2.496-0.496-2.992 2.656-5.824 5.488-8.48 8.48-1.344 1.328-1.744 2.576-1.248 3.744s1.408 1.744 2.736 1.744zM70.496 330.080c0-1.344-0.656-2-2-2s-2.336 0.416-2.992 1.248c-0.656 0.832-1.088 1.824-1.248 2.992s0.736 1.744 2.736 1.744h0.496c2 0 2.992-1.328 2.992-3.984zM253.552 169.472c-1.008-1.344-2.496-1.664-4.496-0.992-1.008 0.656-1.168 1.168-0.496 1.504l0.992 0.992c0.656 1.008 1.328 1.008 2 0 1.008 0 1.664-0.496 2-1.504zM266.016 282.704c-0.656-1.344-1.488-2-2.496-2s-1.504 0.496-1.504 1.504c0 1.008 0.256 1.664 0.752 2s1.088 0.336 1.744 0c1.664 0 2.16-0.496 1.504-1.504zM499.952 225.84c-3.664-3.984-5.824-10.48-6.48-19.456l-0.496-2.496c-0.656-6.32-1.488-10.976-2.496-13.968-1.344-5.312-3.488-9.808-6.48-13.472-0.656-0.656-1.248-1.824-1.744-3.488s-0.912-2.832-1.248-3.488c-4.992-8.32-13.472-14.96-25.44-19.952-10.64-5.312-18.784-8.816-24.432-10.48l-6.48-2c-4.992-1.664-8.816-2.656-11.472-2.992-3.984-0.336-9.968-0.336-17.952 0h-9.472c-1.344 0-3.008 0.496-4.992 1.504l-1.504 0.496c-6.32 2.656-12.304 3.152-17.952 1.504-1.664-0.656-4.16-0.992-7.488-0.992-4.656-0.336-7.968-1.168-9.968-2.496-1.008-0.656-2-0.656-2.992 0-5.984 0.336-11.472-1.504-16.464-5.488-11.312-7.648-19.12-17.792-23.44-30.432-0.656-1.328-1.328-3.664-2-6.976-1.344-5.664-3.008-9.648-4.992-11.968-0.336-1.008-0.336-1.84 0-2.496 1.664-4.32 4.736-7.488 9.232-9.472s11.232-4.48 20.208-7.488l6.48-2.496c3.328-1.344 8.48-2.656 15.456-3.984l4.496-0.992c3.328-0.336 8.4-0.576 15.216-0.752s11.888-0.592 15.216-1.248c3.328-0.656 6.976-0.832 10.976-0.496 2.656 0.336 6.32 1.168 10.976 2.496l6.976 1.504c6.32 1.328 14.96 4.832 25.936 10.48 5.984 3.328 10.48 5.648 13.472 6.976l2.496 1.504c13.968 12.976 25.264 25.44 33.92 37.408l1.504 2c4.992 8.32 8.32 14.464 9.968 18.448 0.656 1.008 1.088 2.832 1.248 5.488s0.416 4.48 0.752 5.488c2.32 6.64 3.488 15.12 3.488 25.44l-0.496 7.488c-0.336 8.32-0.080 14.288 0.752 17.952s1.248 8.976 1.248 15.968c0 5.312 0.176 9.136 0.496 11.472-0.32 2.32-1.664 4.32-3.984 5.984zM430.112 280.704h14.464c2.32 1.008 6.064 2.336 11.216 3.984s8.88 2.976 11.216 3.984c4.32 2 7.808 4.48 10.48 7.488l2.992 2.992c10.976 11.632 18.624 20.944 22.944 27.936 5.312 8.32 8.144 16.96 8.48 25.936 0.336 4.656-0.512 11.792-2.496 21.44-1.008 6.64-1.664 11.632-2 14.96 0 1.664-1.168 3.664-3.488 5.984l-0.496 0.992c-1.664 3.984-2.336 7.152-2 9.472 0.336 4.656-1.168 9.312-4.496 13.968-4.32 6.656-7.808 12.976-10.48 18.96-1.008 2-3.008 4.656-5.984 7.984l-5.488 6.48c-3.328 4-5.984 6.656-7.984 7.984s-4.992 3.488-8.976 6.48l-2.496 1.504c-5.648 3.664-10.8 7.312-15.456 10.976-1.664 1.008-3.168 0.832-4.496-0.496l-0.496-0.496c-1.008-1.344-1.008-2.656 0-3.984 2.656-3.328 6.144-8.656 10.48-15.968l6.48-10.48c2.656-4.32 5.808-11.632 9.472-21.952 2.32-6.32 4.144-11.136 5.488-14.464v-5.984c0-7.648-0.176-13.456-0.496-17.456-0.336-6.64-1.488-12.464-3.488-17.456l-0.496-0.992c-0.336-1.008-0.832-1.84-1.504-2.496l-4.496-2.992c-3.328-2.32-5.824-3.824-7.488-4.496-3.328-1.664-6.48-2.16-9.472-1.504-8.304 0.336-15.456-2.992-21.44-9.968-7.648-9.312-14.464-19.632-20.448-30.928-3.664-6.64-5.152-14.464-4.496-23.44 0-4.656 2.656-7.808 7.984-9.472 10.976-4.32 20.624-5.824 28.928-4.496z"></path>
</svg>
