<!-- Generated by IcoMoon.io -->
<svg version="1.1" xmlns="http://www.w3.org/2000/svg" width="32" height="32" viewBox="0 0 32 32">
<title>weapons-unarmed</title>
<path d="M2.83 19.324c-0.019-0.073-0.093-0.101-0.221-0.083l-0.028 0.028 0.028 0.055h0.028c0.073 0.019 0.138 0.019 0.193 0zM23.766 14.11c0-0.148-0.092-0.258-0.276-0.331-0.092 0-0.156 0.018-0.193 0.055 0 0.073 0.032 0.161 0.097 0.262s0.134 0.17 0.207 0.207c0.111 0 0.166-0.064 0.166-0.193zM20.842 18.607c0-0.055-0.037-0.12-0.11-0.193-0.092 0-0.156 0.055-0.193 0.166 0.055 0.092 0.138 0.138 0.248 0.138 0.037-0.019 0.055-0.055 0.055-0.11zM13.146 17.338c0.092 0.092 0.175 0.138 0.248 0.138l0.055-0.055c-0.055-0.221-0.202-0.386-0.441-0.497-0.018 0.019-0.032 0.060-0.041 0.124s0.023 0.133 0.097 0.207zM4.126 10.607c0.478 0.239 1.039 0.451 1.683 0.634 0.368 0.129 0.929 0.285 1.683 0.469 0.643 0.165 1.121 0.294 1.434 0.386 0.11 0.037 0.211 0.018 0.303-0.055h0.303c-0.037-0.147-0.12-0.258-0.248-0.331-0.073-0.055-0.193-0.111-0.359-0.165-0.239-0.073-0.405-0.156-0.496-0.248-0.423-0.147-0.864-0.359-1.324-0.634-0.276-0.147-0.671-0.405-1.186-0.772l-0.276-0.193c-0.239-0.147-0.616-0.35-1.131-0.607-0.184-0.073-0.354-0.078-0.51-0.014s-0.28 0.188-0.372 0.372c-0.129 0.276-0.147 0.497-0.055 0.662 0.073 0.221 0.257 0.386 0.552 0.496zM19.463 3.436c0.037 0.111 0.092 0.295 0.166 0.552l0.028 0.193c0 0.092 0.028 0.193 0.083 0.303l0.055 0.414c0.055 0.368 0.092 0.644 0.11 0.827v0.11c0.037 0.57 0 1.112-0.11 1.627l-0.028 0.055c-0.019 0.092-0.047 0.156-0.083 0.193 0.019 0.036 0.019 0.091 0 0.165l-0.055 0.248c-0.055 0.129-0.083 0.276-0.083 0.441v0.165l0.028 0.165c0.037 0.073 0.083 0.11 0.138 0.11h0.028l0.055 0.11v-0.138l0.083-0.083c0.018-0.073 0.028-0.184 0.028-0.331v-0.414l0.11-0.552c0.019-0.037 0.065-0.092 0.138-0.165 0.019-0.018 0.019-0.046 0-0.083v-0.028c0-0.294 0.074-0.717 0.221-1.269 0.073-0.294 0.119-0.515 0.138-0.662l0.083-0.331c0.073-0.313 0.101-0.543 0.083-0.69l-0.028-0.221c0.036-0.092 0.064-0.202 0.083-0.331v-0.193l0.055-0.11c0.055-0.128 0.073-0.266 0.055-0.414-0.019-0.092-0.065-0.22-0.138-0.386 0-0.019-0.027-0.055-0.083-0.11s-0.083-0.101-0.083-0.138v-0.083c-0.018-0.073-0.037-0.124-0.055-0.152s-0.064-0.042-0.138-0.041c-0.147 0-0.253 0.023-0.317 0.069s-0.133 0.115-0.207 0.207l-0.055 0.055-0.11 0.221-0.11 0.166c-0.129 0.092-0.147 0.23-0.055 0.414-0.037 0.037-0.046 0.073-0.028 0.11zM16.125 19.544c0.092 0.276 0.285 0.52 0.579 0.731s0.579 0.308 0.855 0.29c0.037 0 0.083-0.018 0.138-0.055l0.055-0.028c0.092-0.037 0.161-0.092 0.207-0.166s0.060-0.138 0.041-0.193c-0.019-0.055-0.055-0.119-0.11-0.193l-0.055-0.055c-0.257-0.331-0.699-0.598-1.324-0.8-0.073-0.037-0.165-0.018-0.276 0.055l-0.083 0.055c-0.037 0.018-0.055 0.069-0.055 0.152s0.009 0.152 0.028 0.207zM22.607 17.779c0.092-0.055 0.184-0.147 0.276-0.276l0.221-0.441c0.037-0.037 0.083-0.111 0.138-0.221l0.083-0.138c0.092-0.147 0.23-0.386 0.414-0.717 0.221-0.313 0.377-0.607 0.469-0.883s0.129-0.497 0.11-0.662c0.019-0.276-0.037-0.501-0.166-0.676s-0.359-0.308-0.69-0.4l-0.083-0.028c-0.128-0.019-0.221-0.046-0.276-0.083-0.111-0.037-0.189-0.105-0.234-0.207s-0.17-0.198-0.372-0.29l-0.166-0.083c-0.239-0.147-0.478-0.327-0.717-0.538s-0.487-0.575-0.745-1.090c-0.129-0.331-0.331-0.57-0.607-0.717-0.257-0.129-0.552-0.184-0.883-0.165-0.589 0-1.159 0.184-1.71 0.552-0.037 0.019-0.073 0.046-0.11 0.083l-0.331 0.11-0.193 0.028c-0.221 0.055-0.386 0.11-0.497 0.165h-0.083c-0.221-0.037-0.451-0.027-0.69 0.028-0.165 0.037-0.395 0.101-0.69 0.193l-0.276 0.083c-0.68 0.184-1.37 0.469-2.069 0.855-0.092 0.055-0.23 0.106-0.414 0.152s-0.322 0.097-0.414 0.152l-0.579 0.359c-0.809 0.534-1.435 0.901-1.876 1.103l-0.276 0.11c-0.165 0.073-0.276 0.128-0.331 0.165l-2.069 1.214c-0.864 0.496-1.498 0.892-1.903 1.186-0.11 0.073-0.266 0.174-0.469 0.303-0.331 0.184-0.57 0.34-0.717 0.469-0.313 0.257-0.726 0.552-1.241 0.883-0.147 0.111-0.34 0.285-0.579 0.524-0.166 0.166-0.294 0.285-0.386 0.359-0.037 0.037-0.060 0.087-0.069 0.152s0.004 0.115 0.041 0.152l0.028 0.028c0.036 0.037 0.064 0.069 0.083 0.097s0.083 0.069 0.193 0.124l0.083 0.028c0.165 0.092 0.312 0.12 0.441 0.083s0.266-0.119 0.414-0.248c0.129-0.037 0.23-0.092 0.303-0.166 0-0.018 0.018-0.046 0.055-0.083h0.414c0.111 0 0.203 0.014 0.276 0.041s0.133 0.087 0.179 0.179c0.046 0.092 0.059 0.175 0.041 0.248l-0.221 0.276c-0.257 0.331-0.469 0.561-0.634 0.69-0.073 0.092-0.193 0.212-0.359 0.359l-0.193 0.193c-0.111 0.092-0.23 0.212-0.359 0.359l-0.083 0.083c-0.202 0.165-0.303 0.34-0.303 0.524v0.11l-0.359 1.159c-0.147 0.331-0.23 0.598-0.248 0.8 0 0.037-0.009 0.055-0.028 0.055l-0.165 0.331c-0.129 0.239-0.184 0.414-0.165 0.524-0.184 0.552-0.34 0.957-0.469 1.214l-0.276 0.717c-0.055 0.147-0.088 0.299-0.097 0.455s0.014 0.243 0.069 0.262v0.028h0.055c0.257-0.073 0.423-0.276 0.496-0.607 0.037-0.202 0.087-0.363 0.152-0.483s0.17-0.281 0.317-0.483l0.276-0.441c0.055-0.073 0.143-0.174 0.262-0.303s0.207-0.23 0.262-0.303c0.184-0.166 0.497-0.377 0.938-0.634 0.147-0.055 0.276-0.129 0.386-0.221l0.055-0.055c0.589-0.386 1.425-0.753 2.51-1.103 0.441-0.147 0.731 0.018 0.869 0.497s0.207 1.003 0.207 1.572v0.138c-0.019 0.111-0.023 0.198-0.014 0.262s0.051 0.115 0.124 0.152h0.028l0.138 0.055c0.092 0 0.156-0.009 0.193-0.028 0.073-0.019 0.138-0.083 0.193-0.193l0.028-0.055c0.073-0.147 0.12-0.257 0.138-0.331l0.028-0.138c0.11-0.313 0.193-0.543 0.248-0.69l0.359-0.607 0.496-0.828c0.073-0.111 0.179-0.277 0.317-0.497s0.244-0.377 0.317-0.469l0.083-0.221c0.35-0.515 0.671-0.928 0.965-1.241 0.147-0.147 0.35-0.386 0.607-0.717l0.276-0.248c0.165-0.148 0.285-0.267 0.359-0.359l0.055-0.028c0.129-0.073 0.221-0.184 0.276-0.331l0.11-0.303c0.037-0.055 0.055-0.111 0.055-0.166s-0.018-0.129-0.055-0.221c-0.092-0.202-0.202-0.496-0.331-0.883l-0.248-0.662c-0.019-0.073-0.028-0.128-0.028-0.166l0.083-0.138c0.092-0.055 0.179-0.065 0.262-0.028s0.143 0.092 0.179 0.166c0.073 0.147 0.211 0.35 0.414 0.607 0.276 0.331 0.441 0.607 0.496 0.828 0.073 0.294 0.197 0.496 0.372 0.607s0.418 0.147 0.731 0.11c0.349-0.037 0.662-0.119 0.938-0.248l0.221-0.138c0.165-0.111 0.294-0.184 0.386-0.221 0.129-0.055 0.248-0.046 0.359 0.028 0.184 0.128 0.483 0.276 0.896 0.441s0.712 0.303 0.896 0.414c0.294 0.184 0.533 0.405 0.717 0.662 0.239 0.332 0.479 0.502 0.717 0.51s0.542-0.115 0.91-0.372l0.055-0.055c0.147-0.111 0.258-0.203 0.331-0.276l0.11-0.083c0.202-0.202 0.349-0.368 0.441-0.497 0.092-0.092 0.147-0.175 0.166-0.248 0.073-0.148 0.101-0.248 0.083-0.303s-0.091-0.156-0.221-0.303c-0.019-0.019-0.047-0.055-0.083-0.11l-0.055-0.083c-0.294-0.386-0.616-0.763-0.965-1.131-0.111-0.129-0.331-0.295-0.662-0.497-0.184-0.111-0.313-0.193-0.386-0.248-0.165-0.11-0.257-0.211-0.276-0.303s0.036-0.221 0.166-0.386c0.055-0.055 0.111-0.147 0.166-0.276s0.101-0.221 0.138-0.276c0.111-0.202 0.12-0.359 0.028-0.469-0.111-0.147-0.175-0.313-0.193-0.496-0.018-0.129-0.028-0.313-0.028-0.552v-0.165c0-0.257 0.028-0.423 0.083-0.496 0.129-0.129 0.349-0.23 0.662-0.303l0.028 0.331c0.036 0.386 0.036 0.68 0 0.883l-0.028 0.083c-0.092 0.147-0.111 0.303-0.055 0.469 0 0.386 0.111 0.662 0.331 0.828 0.129 0.165 0.285 0.248 0.469 0.248 0.147 0.037 0.267 0.055 0.359 0.055h0.717c0.184 0 0.294 0.037 0.331 0.11s0.018 0.175-0.055 0.303l-0.303 0.303c-0.073 0.073-0.129 0.207-0.166 0.4s-0.019 0.327 0.055 0.4c0.019 0.129 0.070 0.252 0.152 0.372s0.207 0.262 0.372 0.428c0.165 0.129 0.289 0.207 0.372 0.234s0.143 0.041 0.179 0.041c0.037 0 0.083-0.018 0.138-0.055zM23.297 13.835c0.019-0.037 0.083-0.055 0.193-0.055 0.184 0.055 0.276 0.156 0.276 0.303s-0.055 0.221-0.166 0.221c-0.073-0.037-0.142-0.105-0.207-0.207s-0.097-0.189-0.097-0.262zM13.422 17.393c0 0.037-0.028 0.055-0.083 0.055s-0.129-0.046-0.221-0.138l-0.055-0.055c-0.11-0.092-0.156-0.175-0.138-0.248l0.028-0.11c0.294 0.111 0.45 0.277 0.469 0.497zM2.581 19.269l0.028-0.028c0.092-0.019 0.166 0.009 0.221 0.083-0.019 0.019-0.055 0.019-0.11 0h-0.11zM20.566 18.551c0-0.092 0.064-0.148 0.193-0.166l0.028 0.055c0.037 0.055 0.055 0.106 0.055 0.152s-0.018 0.078-0.055 0.097-0.078 0.014-0.124-0.014c-0.046-0.028-0.078-0.069-0.097-0.124zM17.449 22.165c-0.184-0.111-0.414-0.313-0.69-0.607-0.331-0.349-0.607-0.57-0.828-0.662-0.165-0.055-0.23-0.147-0.193-0.276 0-0.019 0.009-0.037 0.028-0.055 0.037-0.055 0.073-0.129 0.11-0.221l0.028-0.055c0.055-0.055 0.083-0.129 0.083-0.221l-0.69-0.828c-0.092-0.129-0.212-0.165-0.359-0.11-0.055 0.037-0.083 0.11-0.083 0.221v0.055c-0.037 0.073-0.009 0.202 0.083 0.386l0.083 0.193c0.055 0.202 0.055 0.34 0 0.414-0.019 0.055-0.055 0.083-0.11 0.083s-0.137-0.037-0.248-0.11c-0.386-0.165-0.882-0.184-1.49-0.055-0.202 0.036-0.505 0.147-0.91 0.331-0.294 0.128-0.524 0.221-0.69 0.276-0.019 0-0.037 0.028-0.055 0.083l-0.11 0.138 0.165-0.028 0.028 0.028c0.055 0.037 0.101 0.055 0.138 0.055h0.11c0.129 0 0.221-0.009 0.276-0.028 0.423-0.184 0.873-0.23 1.352-0.138 0.368 0.073 0.8 0.239 1.296 0.497l0.138 0.083c0.515 0.276 0.882 0.506 1.103 0.69 0.073 0.073 0.193 0.175 0.359 0.303l0.166 0.138c0.313 0.313 0.515 0.57 0.607 0.772 0.294 0.514 0.414 1.084 0.359 1.71l-0.166 0.772c-0.092 0.294-0.221 0.616-0.386 0.965l-0.083 0.138c-0.441 0.643-0.818 1.103-1.131 1.379-0.019 0-0.037 0.014-0.055 0.041s-0.018 0.060 0 0.097l0.055 0.028c0.092 0 0.166-0.018 0.221-0.055s0.12-0.073 0.193-0.11c0.478-0.257 0.882-0.588 1.214-0.993l0.166-0.166 0.166-0.193c0.129-0.129 0.221-0.267 0.276-0.414l0.028-0.11c0.073-0.147 0.137-0.303 0.193-0.469l0.11-0.221c0.055-0.111 0.083-0.203 0.083-0.276v-0.414c0.019-0.386 0.019-0.68 0-0.883-0.037-0.313-0.12-0.584-0.248-0.814s-0.303-0.575-0.524-1.034zM9.422 9.118c0.073 0.625 0.45 1.048 1.131 1.269 0.129 0.055 0.322 0.11 0.579 0.165l0.11 0.028 0.552 0.083c0.68 0.11 1.352 0.11 2.014 0 0.11 0 0.294-0.037 0.552-0.11 0.698-0.239 1.324-0.598 1.876-1.076 0.055-0.037 0.12-0.101 0.193-0.193l0.248-0.248c0.147-0.129 0.253-0.23 0.317-0.303s0.096-0.156 0.097-0.248v-0.138l0.055-0.11c0.037-0.073 0.073-0.184 0.11-0.331v-0.028h0.028c0.111-0.239 0.184-0.534 0.221-0.883 0.019-0.221 0-0.46-0.055-0.717-0.019-0.166-0.074-0.395-0.166-0.69l-0.11-0.441-0.028-0.165c0-0.128-0.018-0.221-0.055-0.276-0.202-0.368-0.505-0.727-0.91-1.076-0.073-0.037-0.128-0.027-0.166 0.028-0.018 0.019-0.028 0.046-0.028 0.083s0.028 0.083 0.083 0.138c0 0.037 0.009 0.083 0.028 0.138l0.028 0.028c0.294 0.349 0.468 0.837 0.524 1.462-0.019 0.11-0.019 0.193 0 0.248 0 0.019 0.009 0.037 0.028 0.055 0.037 0.809-0.129 1.554-0.497 2.234-0.276 0.349-0.506 0.616-0.69 0.8-0.294 0.276-0.607 0.487-0.938 0.634-0.902 0.386-1.702 0.57-2.4 0.552h-0.634c-0.221 0.019-0.515-0.036-0.883-0.165l-0.193-0.055c-0.184-0.073-0.327-0.166-0.428-0.276s-0.161-0.258-0.179-0.441c-0.019-0.073-0.078-0.151-0.179-0.234s-0.161-0.088-0.179-0.014l-0.055 0.028c-0.055 0.055-0.065 0.101-0.028 0.138 0 0.037 0.009 0.073 0.028 0.11zM23.628 12.042c0.037 0.018 0.101 0.064 0.193 0.138 0.147 0.092 0.257 0.156 0.331 0.193 0.129 0.055 0.257 0.073 0.386 0.055 0.257 0.11 0.534 0.193 0.828 0.248 0.497 0.092 0.979 0.078 1.448-0.041s0.887-0.354 1.255-0.703l0.055-0.055c0.092-0.092 0.148-0.166 0.166-0.221s0.028-0.147 0.028-0.276v-0.165c-0.111 0.055-0.258 0.134-0.441 0.234s-0.321 0.17-0.414 0.207l-0.11 0.055c-0.092 0.055-0.166 0.074-0.221 0.055-0.165-0.019-0.427-0.019-0.786 0s-0.63 0.019-0.814 0c-0.294-0.037-0.561-0.11-0.8-0.221l-0.193-0.11c-0.276-0.148-0.479-0.267-0.607-0.359-0.184-0.166-0.313-0.359-0.386-0.579l-0.055-0.165c-0.147-0.386-0.248-0.671-0.303-0.855-0.202-0.846-0.23-1.554-0.083-2.124 0.037-0.11 0.11-0.294 0.221-0.552 0.092-0.092 0.161-0.207 0.207-0.345s0.087-0.234 0.124-0.29l0.552-0.91 0.083-0.083c0.147-0.092 0.175-0.23 0.083-0.414-0.073 0.037-0.174 0.092-0.303 0.165-0.202 0.092-0.34 0.175-0.414 0.248l-0.414 0.524c-0.239 0.294-0.414 0.524-0.524 0.69l-0.055 0.083c-0.129 0.184-0.211 0.322-0.248 0.414-0.073 0.166-0.11 0.313-0.11 0.441v0.11c-0.037 0.147-0.055 0.258-0.055 0.331-0.092 0.699-0.064 1.352 0.083 1.958s0.396 1.14 0.745 1.6c0.111 0.221 0.295 0.46 0.552 0.717zM27.6 17.614c-0.092 0-0.239-0.009-0.441-0.028-0.405-0.037-0.699-0.027-0.883 0.028l-0.497 0.166c-0.478 0.165-0.827 0.303-1.048 0.414-0.331 0.184-0.552 0.377-0.662 0.579l-0.11 0.193c-0.202 0.202-0.432 0.524-0.69 0.965l-0.083 0.11c-0.165 0.313-0.285 0.561-0.359 0.745-0.111 0.276-0.166 0.543-0.166 0.8-0.092 0.515-0.128 0.993-0.11 1.434 0 0.331 0.046 0.663 0.138 0.993 0.019 0.092 0.069 0.244 0.152 0.455s0.179 0.4 0.29 0.565c0.257 0.368 0.616 0.745 1.076 1.131l0.11 0.083c0.128 0.111 0.229 0.138 0.303 0.083 0.092 0 0.152-0.028 0.179-0.083s0.014-0.12-0.041-0.193c-0.018-0.019-0.037-0.055-0.055-0.11s-0.036-0.091-0.055-0.11c-0.165-0.055-0.304-0.156-0.414-0.303-0.073-0.092-0.165-0.239-0.276-0.441l-0.193-0.331c-0.165-0.257-0.266-0.478-0.303-0.662-0.073-0.257-0.046-0.514 0.083-0.772 0.019-0.055 0.019-0.138 0-0.248v-0.552c0-0.147 0.018-0.368 0.055-0.662 0.037-0.147 0.101-0.359 0.193-0.634 0.147-0.423 0.239-0.744 0.276-0.965 0.018-0.092 0.083-0.23 0.193-0.414 0.055-0.055 0.12-0.138 0.193-0.248l0.11-0.138c0.055-0.092 0.157-0.193 0.303-0.303l0.028-0.028c0.184-0.165 0.46-0.377 0.828-0.634h0.028v-0.028c0.073-0.037 0.165-0.092 0.276-0.166l0.221-0.138c0.276-0.129 0.57-0.248 0.883-0.359 0.147 0 0.267 0.009 0.359 0.028 0.055 0 0.101-0.014 0.138-0.041s0.064-0.064 0.083-0.11c0.019-0.046-0.018-0.069-0.11-0.069zM31.986 14.414c-0.019-0.129-0.074-0.239-0.166-0.331s-0.193-0.138-0.303-0.138h-0.11c-0.294 0-0.524 0.041-0.69 0.124s-0.423 0.133-0.772 0.152c-0.294 0.019-0.514 0.055-0.662 0.11h-0.166c-0.055 0-0.092-0.009-0.11-0.028-0.165-0.11-0.358-0.147-0.579-0.11-0.129 0-0.322 0.046-0.579 0.138l-0.221 0.055c-0.129 0.055-0.23 0.074-0.303 0.055-0.165-0.019-0.331-0.009-0.497 0.028-0.111 0.018-0.295 0.073-0.552 0.165 0.018 0.037 0.055 0.073 0.11 0.11l0.055 0.055v0.028l0.469 0.11c1.066 0.202 1.866 0.367 2.4 0.496h0.083c0.037 0.019 0.092 0.028 0.166 0.028l1.131 0.221c0.368 0.055 0.718-0.138 1.048-0.579 0.129-0.073 0.211-0.175 0.248-0.303 0.019-0.073 0.019-0.202 0-0.386zM21.173 27.958c-0.037-0.036-0.037-0.137 0-0.303 0.037-0.534-0.064-0.975-0.303-1.324-0.055-0.092-0.083-0.202-0.083-0.331 0-0.184-0.037-0.322-0.11-0.414s-0.119-0.212-0.138-0.359c-0.019-0.073-0.028-0.193-0.028-0.359v-0.221c0.019-0.184 0.019-0.322 0-0.414-0.055-0.441-0.193-0.855-0.414-1.241l-0.055 0.055v0.055l-0.028 0.248c-0.037 0.092-0.046 0.156-0.028 0.193 0.037 0.589 0.055 1.021 0.055 1.296l-0.028 1.186c-0.019 0.073-0.028 0.174-0.028 0.303v0.11l-0.055 0.607v0.138c-0.037 0.681 0.046 1.242 0.248 1.683 0.018 0.055 0.046 0.161 0.083 0.317s0.064 0.271 0.083 0.345c0.055 0.111 0.12 0.175 0.193 0.193l0.028 0.028c0.055 0.037 0.106 0.055 0.152 0.055s0.078-0.037 0.097-0.11v-0.055c0.092-0.073 0.193-0.266 0.303-0.579 0.092-0.184 0.147-0.364 0.166-0.538s-0.018-0.363-0.11-0.565zM24.648 4.677c0-0.019-0.005-0.023-0.014-0.014l-0.041 0.041h0.028v0.028z"></path>
</svg>
