<!-- Generated by IcoMoon.io -->
<svg version="1.1" xmlns="http://www.w3.org/2000/svg" width="512" height="512" viewBox="0 0 512 512">
<title>monsters-of-order</title>
<g id="icomoon-ignore">
</g>
<path d="M498.416 0.144c-2.736 5.792-6.48 14.688-11.264 26.64-6.144 15.712-11.264 27.168-15.376 34.336-11.616 19.12-20.672 38.592-27.152 58.416l-1.024 2.56c-0.688 2.4-1.36 4.176-2.048 5.376s-2.128 1.792-4.352 1.792-3.664-0.512-4.352-1.536c-0.688-1.024-1.024-2.72-1.024-5.12l-0.512-3.072c-1.024-8.208-5.472-9.744-13.328-4.608-4.096 2.736-8.368 6.32-12.816 10.752-2.736 2.736-6.656 6.992-11.776 12.816l-28.176 31.76c-16.4 17.76-28.864 31.088-37.408 39.968-5.456 5.808-12.976 14.848-22.544 27.152-11.28 14-20.16 24.256-26.64 30.736-24.944 24.944-52.432 58.576-82.496 100.928-4.768 6.48-7.168 13.664-7.168 21.52 0.336 4.096 0.336 10.416 0 18.96l-0.512 12.816c0 5.808-1.888 9.904-5.632 12.304-6.48 4.432-12.64 10.080-18.448 16.912-3.76 4.432-8.88 11.104-15.376 19.984-4.784 6.832-8.544 11.776-11.264 14.864l-6.656 7.168c-6.144 6.48-10.416 11.616-12.816 15.376-0.688 1.024-1.616 1.872-2.816 2.56s-2.304 0.688-3.328 0c-2.384-0.688-3.248-3.248-2.56-7.68 1.024-8.88 2.56-17.6 4.608-26.128 0.688-3.744 1.024-9.568 1.024-17.424 0-5.808-2.384-9.392-7.168-10.752l-1.024-0.512c-1.024-0.336-1.712-0.688-2.048-1.024-7.52-7.504-16.4-11.264-26.64-11.264-6.144 0.336-15.376 2.384-27.664 6.144l-6.144 1.536c-2.384 0.336-4.256 0.336-5.632 0-1.712 0-2.992-0.768-3.84-2.304s-1.024-2.896-0.512-4.096 1.456-2.64 2.816-4.352l0.512-0.512c8.88-9.568 19.136-18.96 30.736-28.176 4.096-3.072 8.88-3.584 14.352-1.536 3.072 1.024 5.712 1.536 7.936 1.536s4.432-0.688 6.656-2.048c2.224-1.376 4.016-2.736 5.376-4.096s2.048-3.248 2.048-5.632c0-3.744-2.384-5.968-7.168-6.656-2.736-0.688-4.176-1.872-4.352-3.584s0.592-3.584 2.304-5.632l16.912-18.96c4.432-4.768 10.512-6.048 18.192-3.84s14.784 1.616 21.264-1.792c3.76-2.384 8.88-7.008 15.376-13.84l1.024-1.536c36.544-42.352 68.992-77.376 97.344-105.040 9.92-9.568 24.080-24.432 42.528-44.576l15.888-17.424c8.88-10.256 16.048-17.424 21.52-21.52s8.704-8.112 9.728-12.048c1.024-3.936 3.072-7.776 6.144-11.536 2.048-2.048 5.28-4.784 9.728-8.192 8.544-6.832 15.040-13.824 19.472-21.008 2.384-3.76 3.152-6.656 2.304-8.704s-3.328-3.744-7.424-5.12l-1.536-0.512c-1.712-0.336-3.072-0.688-4.096-1.024-3.072-1.36-4.688-3.152-4.864-5.376s1.12-4.176 3.84-5.888c5.12-3.072 12.976-7.52 23.568-13.328l11.776-6.656c11.28-5.808 23.744-13.152 37.408-22.032 8.192-5.456 20.336-13.824 36.384-25.104 1.024 0 2.56-0.432 4.608-1.28s3.92-1.104 5.632-0.768zM370.32 132.848v-2.048l-2.048 0.512v0.512c0 0.688 0.176 1.104 0.512 1.28s0.688 0.080 1.024-0.256zM480.992 20.128h-0.512l-0.512 0.512 1.024 1.024 0.512-0.512c0-0.688-0.176-1.024-0.512-1.024zM331.376 232.768c3.072-3.408 7.344-8.624 12.816-15.632s9.744-12.048 12.816-15.12c4.784-5.456 9.488-10 14.096-13.584s8.624-4.528 12.048-2.816c10.256 4.432 20.16 5.632 29.712 3.584 8.544-2.048 17.088-7.008 25.616-14.864 2.736-2.4 4.768-3.584 6.144-3.584s2.224 2.048 2.56 6.144c0 2.4 1.024 4.096 3.072 5.12 17.072 11.616 30.048 28.768 38.944 51.488s10.592 47.040 5.12 73.008c-6.48 28.016-14.336 51.744-23.568 71.216-6.144 13.664-9.552 26.144-10.24 37.408-1.024 13.664 1.456 26.56 7.424 38.688s15.968 19.728 29.968 22.8c5.12 0 8.016 1.712 8.704 5.12 0.336 1.712 0 3.072-1.024 4.096s-2.384 2.048-4.096 3.072l-1.536 0.512c-6.48 4.096-12.288 6.48-17.424 7.168-6.48 0.688-12.976-0.688-19.472-4.096l-9.216-4.608c-8.544-3.408-14.688-6.992-18.448-10.752-7.168-7.856-12.288-17.072-15.376-27.664-2.4-7.856-4.096-18.432-5.12-31.76-0.688-11.952 0.848-24.768 4.608-38.432 2.384-7.856 6.832-19.808 13.328-35.872l1.536-3.584c7.504-16.736 10.416-32.288 8.704-46.624-0.336-2.048-0.688-5.296-1.024-9.728-0.336-9.232-1.536-16.064-3.584-20.496-2.048-3.76-4.256-6.32-6.656-7.68s-5.536-2.224-9.472-2.56c-3.92-0.336-9.824-0.336-17.68 0l-11.776 0.512c-8.88 0-17.936-1.536-27.152-4.608-7.504-2.736-15.872-6.656-25.104-11.776-0.688-0.336-2.224-1.024-4.608-2.048zM427.712 243.008c0.336-0.336 0.688-0.512 1.024-0.512l0.512-0.512c-0.688-0.688-1.2-1.024-1.536-1.024h-1.024c0 1.36 0.336 2.048 1.024 2.048zM5.52 112.352v-9.728c0-1.712 0.512-3.248 1.536-4.608s2.384-2.048 4.096-2.048l2.048-0.512c1.712-0.336 3.152-0.432 4.352-0.256s2.304 0.944 3.328 2.304l1.536 1.536c1.36 1.712 2.224 3.072 2.56 4.096 8.208 12.304 18.112 17.424 29.712 15.376 2.384-0.336 5.12-0.336 8.192 0 11.616 2.736 22.88 1.536 33.808-3.584 6.832-3.072 16.048-9.392 27.664-18.96 23.568-21.168 51.584-35.344 84.032-42.528 17.76-3.744 35.696-4.256 53.792-1.536 16.4 2.384 33.296 7.52 50.72 15.376 2.4 1.024 5.376 3.504 8.96 7.424s6.752 6.4 9.472 7.424c1.024 0.336 1.376 1.12 1.024 2.304s-1.024 2.304-2.048 3.328c-1.712 2.736-3.408 7.168-5.12 13.328-0.688 3.408-1.456 6.048-2.304 7.936s-1.12 4.352-0.768 7.424c0.336 1.712 1.024 4.432 2.048 8.192l0.512 2.048c1.712 4.432 2.304 8.288 1.792 11.536s-2.816 6.24-6.912 8.96c-4.096 2.72-8.88 8.192-14.352 16.4l-5.12 7.168c-7.52 8.88-13.312 15.376-17.424 19.472-5.12 5.456-9.216 4.768-12.304-2.048-4.432-9.568-6.656-17.6-6.656-24.080-0.688-14-0.512-24.256 0.512-30.736 1.712-8.544-1.36-13.84-9.216-15.888h-1.024c-6.144-2.048-10.752-3.424-13.84-4.096-5.12-0.688-9.904-0.512-14.352 0.512-3.408 1.024-6.992 1.536-10.752 1.536-10.592-0.336-21.184 1.872-31.76 6.656-7.168 3.072-16.384 8.704-27.664 16.912-7.504 5.456-16.224 10.080-26.128 13.84-7.52 2.736-17.088 5.456-28.688 8.192s-23.568 2.56-35.872-0.512c-9.568-2.048-20.672-6.496-33.296-13.328-4.432-2.72-8.88-7.008-13.328-12.816l-1.024-1.536c-2.736-4.432-5.456-7.344-8.192-8.704-2.048-0.688-3.248-2.048-3.584-4.096-0.352-1.024-0.352-2.736 0-5.12v-2.56zM227.888 104.672c-0.336-0.336-0.768-0.592-1.28-0.768s-0.944-0.176-1.28 0c-0.336 0.176-0.512 0.432-0.512 0.768l-0.512 1.024c0.688 1.376 1.536 1.712 2.56 1.024z"></path>
</svg>
