<!-- Generated by IcoMoon.io -->
<svg version="1.1" xmlns="http://www.w3.org/2000/svg" width="512" height="512" viewBox="0 0 512 512">
<title>monsters-of-order</title>
<g id="icomoon-ignore">
</g>
<path d="M80.16 508.608c-1.376-2.048-1.712-3.92-1.024-5.632 0-1.024 0.688-2.56 2.048-4.608l0.512-0.512c2.4-4.096 6.496-10.080 12.304-17.936 3.76-4.768 6.496-8.368 8.208-10.768l2.048-2.56c7.52-9.92 12.992-17.424 16.4-22.544 5.808-8.544 10.176-16.496 13.072-23.84s8.288-16.832 16.144-28.448l5.632-8.208c3.744-4.768 7.52-12.976 11.28-24.608l5.12-15.376c2.048-5.472 2.224-10.768 0.512-15.888s-4.96-9.232-9.744-12.304c-1.712-1.024-3.424-1.872-5.12-2.56-3.408-2.048-5.28-3.92-5.632-5.632s0.336-4.096 2.048-7.168c3.072-6.496 5.28-10.432 6.656-11.792 2.048-2.048 4.272-2.896 6.656-2.56 2.048 0.688 6.32 2.56 12.816 5.632 8.208 3.76 14.352 7.52 18.448 11.28l-1.536 2.56c-1.36 1.36-2.048 2.736-2.048 4.096s0.688 2.48 2.048 3.328c1.376 0.848 2.48 1.2 3.328 1.024s1.792-0.944 2.816-2.304l1.024-1.024c4.784-5.808 10.24-15.216 16.4-28.192 3.072-6.16 5.552-10.848 7.424-14.096s4.528-8.464 7.952-15.632l4.096-9.232c2.384-4.432 2.896-8.192 1.536-11.28-0.688-1.024-1.2-2.816-1.536-5.376s-0.848-4.352-1.536-5.376c-0.688-1.712-2.048-2.912-4.096-3.584-6.16-2.384-13.504-2.736-22.032-1.024-6.144 2.048-11.792 3.408-16.912 4.096-2.4 0.336-4.272 0.336-5.632 0s-2.48-1.2-3.328-2.56c-0.848-1.36-1.024-2.896-0.512-4.608s1.456-3.072 2.816-4.096l12.304-12.304c9.568-9.92 16.912-16.912 22.032-21.008 3.76-2.72 9.056-7.168 15.888-13.328l7.168-6.656c4.784-4.096 11.776-10.080 21.008-17.936 11.28-9.568 19.568-16.912 24.864-22.032s13.248-12.128 23.84-21.008c10.592-8.88 18.288-15.712 23.072-20.496 12.976-12.976 32.624-28.688 58.944-47.152 4.432-3.072 10.928-8.368 19.472-15.888l4.608-4.096c1.712-2.4 3.584-4.096 5.632-5.12 0.336-1.024 0.944-1.712 1.792-2.048s1.792-0.176 2.816 0.512 1.2 1.872 0.512 3.584c-0.336 7.184-2.224 17.776-5.632 31.776l-16.4 67.136c-5.472 23.232-10.080 40.48-13.84 51.76-1.024 2.736-2.304 7.088-3.84 13.072s-2.992 10.512-4.352 13.584c-2.4 6.832-5.472 17.264-9.232 31.264s-7.024 24.432-9.744 31.264c-5.808 14.352-10.080 30.4-12.816 48.176-0.336 2.736-1.376 7.008-3.072 12.816-1.36 4.768-2.224 8.288-2.56 10.512s-1.024 3.504-2.048 3.84-2.384-0.352-4.096-2.048c-8.208-7.52-13.328-14.688-15.376-21.52-1.376-4.432-4.448-10.416-9.232-17.936l-1.024-2.048c-2.4-5.472-6.32-6.672-11.792-3.584l-6.656 4.096c-9.568 5.808-17.008 10.432-22.288 13.84s-8.8 7.52-10.512 12.304c-1.024 4.096-3.584 9.904-7.68 17.424-1.712 2.736-2.304 5.12-1.792 7.168s2.144 4.096 4.864 6.144c17.776 11.616 31.088 20.496 39.984 26.656 2.736 2.048 4.096 3.664 4.096 4.864s-1.2 2.64-3.584 4.352c-3.408 2.048-7.344 5.984-11.792 11.792-2.384 3.072-4.256 5.28-5.632 6.656-2.384 0.336-3.584-0.176-3.584-1.536-4.432-13.328-13.664-18.784-27.68-16.4-7.856 1.36-16.912 4.448-27.168 9.232-8.192 4.096-14.352 9.728-18.448 16.912-2.736 4.096-6.832 9.904-12.304 17.424-5.12 6.16-8.72 10.944-10.768 14.352l-3.072 5.12c-8.88 14-15.376 24.432-19.472 31.264-6.832 11.952-12.304 23.056-16.4 33.312-1.024 2.736-2.384 4.944-4.096 6.656-3.072 3.408-5.888 4.864-8.464 4.352s-5.216-2.816-7.952-6.912l-2.048-2.56c0-0.336-0.176-0.512-0.512-0.512l-1.024-0.512c-2.048 1.024-4.608 3.232-7.696 6.656-1.712 2.048-3.072 3.424-4.096 4.096l-1.536 1.536c-1.024 1.024-1.872 1.616-2.56 1.792s-1.456-0.080-2.304-0.768c-0.864-0.688-1.2-1.536-1.024-2.56s0.592-2.384 1.28-4.096v-0.512c1.712-3.76 2.304-6.656 1.792-8.72s-2.128-4.112-4.864-6.144c-3.408-3.072-6.32-2.816-8.72 0.768s-4.016 6.4-4.864 8.464c-0.848 2.064-1.952 3.936-3.328 5.632-1.024 1.024-2.736 2.384-5.12 4.096zM281.584 222.112v11.28c0 1.36 0.432 2.304 1.28 2.816s1.968 0.592 3.328 0.256c1.36-0.336 3.664-1.28 6.912-2.816s5.712-2.656 7.424-3.328c6.496-2.048 10.608-6.48 12.304-13.328 1.024-4.432 3.584-10.928 7.68-19.472l2.048-4.096 2.048-5.12c2.736-6.496 4.432-11.456 5.12-14.864 2.048-7.168 4.784-13.328 8.208-18.448l7.68-12.816c6.832-11.952 12.48-20.496 16.912-25.632 1.712-1.024 2.912-3.248 3.584-6.656 1.36-2.736 1.024-4.784-1.024-6.144-1.024-0.336-1.968-0.256-2.816 0.256s-1.456 1.104-1.792 1.792l-5.632 6.144c-9.232 9.232-15.712 16.576-19.472 22.032-11.952 16.4-28.528 36.912-49.712 61.504-2.384 3.072-3.76 5.28-4.096 6.656-1.024 2.736-1.024 5.472 0 8.208 0.336 2.048 0.336 4.784 0 8.208v3.584zM205.744 341.008c0 3.408 1.12 6.4 3.328 8.976s4.512 3.52 6.912 2.816c6.16-1.712 9.92-4.96 11.28-9.744 2.048-5.472 1.024-10.256-3.072-14.352-1.024-1.024-2.048-1.792-3.072-2.304s-2.384-0.608-4.096-0.256c-2.736 1.024-5.296 3.072-7.68 6.144s-3.584 5.984-3.584 8.72zM296.96 364.592c0-2.048-0.608-3.072-1.792-3.072s-1.792 0.848-1.792 2.56c0 0.688 0.176 1.36 0.512 2.048s0.848 0.848 1.536 0.512zM220.080 308.208v-0.512h-1.024c-0.336 0.336-0.512 0.608-0.512 0.768s0.336 0.256 1.024 0.256c-0.336-0.336-0.176-0.512 0.512-0.512z"></path>
</svg>
