<!-- Generated by IcoMoon.io -->
<svg version="1.1" xmlns="http://www.w3.org/2000/svg" width="512" height="512" viewBox="0 0 512 512">
<title>monsters-of-order</title>
<g id="icomoon-ignore">
</g>
<path d="M66.128 508.544c-5.856-1.168-10.528-5.264-10.528-8.192s-1.76-4.688-4.688-3.504c-2.336 0.592-11.12-5.264-18.72-12.88-8.192-7.6-10.528-11.696-5.856-9.36 5.264 2.928 7.024 2.928 4.096-0.592-2.928-2.928-11.12-5.264-17.552-5.264-7.6 0-12.88-3.504-12.88-8.784 0-4.688 4.096-8.192 8.784-7.6 5.264 0.592 21.648-18.144 40.96-47.984 17.552-27.504 33.936-49.728 36.864-49.728 2.336 0 4.096-2.928 4.096-6.432s11.696-16.976 25.744-29.84c24.576-21.648 102.976-131.648 102.976-145.104 0-2.928 2.336-5.856 5.856-5.856 2.928 0 7.024-6.432 9.36-14.624 1.76-8.192 5.856-12.88 8.784-11.12s5.264-1.168 5.264-5.856c0-12.288 6.432-11.696 28.672 1.168 9.952 5.264 18.144 14.624 18.144 19.888 0 8.192-29.248 56.176-50.912 83.68-12.288 15.216-60.272 95.952-60.272 101.232 0 2.928-3.504 8.784-8.192 12.288-4.096 3.504-9.36 14.048-11.12 23.408-2.336 9.36-11.12 25.744-19.888 36.864-23.984 28.672-42.128 59.68-50.912 88.352-2.928 9.952-8.784 11.12-28.080 5.856z"></path>
<path d="M363.952 248.16c-32.176-23.984-39.792-35.104-27.504-42.72 3.504-1.76 5.856-11.12 5.856-21.072 0-13.456-5.264-20.48-24.576-35.104-48.56-34.528-56.752-42.128-53.824-46.816 1.76-2.928-1.168-5.264-6.432-5.264-4.688 0-10.528-4.096-12.88-9.36-2.336-7.024-4.688-7.6-7.6-1.76-2.928 3.504-8.784 5.264-14.624 3.504-5.264-2.336-7.6-6.432-5.856-9.952 1.76-2.928 0.592-5.856-3.504-5.856s-21.072-10.528-38.032-23.984c-29.84-22.816-30.432-24.576-21.072-34.528 7.024-7.6 19.312-11.12 42.128-11.696 65.536-1.76 88.352 0 84.256 6.432-1.76 3.504 2.336 12.288 10.528 19.312 7.6 6.432 9.952 9.952 4.688 6.432-7.6-5.264-7.6-4.688-0.592 4.096 9.952 12.88 18.144 8.192 18.144-9.952 0-7.6 4.096-18.144 9.36-23.408 8.784-8.192 10.528-8.192 22.24 0 6.432 4.688 21.648 15.216 33.936 23.408 30.432 19.888 32.176 25.744 12.88 41.536-18.144 14.624-31.008 18.72-21.072 7.024 4.688-5.856 1.76-8.192-12.288-8.784l-18.72-1.168 14.624 11.12c20.48 15.792 46.816 17.552 62.608 4.096 15.216-13.456 27.504-9.952 53.248 12.88 9.952 9.952 18.72 16.384 18.72 14.624s5.264 0 11.696 3.504c6.432 3.504 11.696 10.528 11.696 15.216 0 11.696-86.592 129.904-100.048 137.504-13.456 7.024-9.952 8.192-47.984-19.312zM315.968 132.32c-1.76-2.928-8.192-5.856-13.456-5.264-8.192 0-7.6 1.168 1.76 5.264 15.792 6.432 15.792 6.432 11.696 0zM336.448 56.24c0-2.928-4.688-5.856-9.952-5.856-8.784 0-9.36 1.168-1.76 5.856 11.12 7.024 11.696 7.024 11.696 0z"></path>
</svg>
