<!-- Generated by IcoMoon.io -->
<svg version="1.1" xmlns="http://www.w3.org/2000/svg" width="512" height="512" viewBox="0 0 512 512">
<title>monsters-of-order</title>
<g id="icomoon-ignore">
</g>
<path d="M269.312 0.256h8.704c5.12-0.336 9.040-0.336 11.776 0 4.096 0.688 7.856 1.872 11.264 3.584 1.024 0.688 3.248 0.512 6.656-0.512 2.048-1.024 3.584-1.536 4.608-1.536 16.368-1.376 36.176 1.36 59.376 8.192 8.544 2.736 21.168 6.48 37.872 11.264l18.944 5.632h2.048c3.408 0.336 5.456 1.36 6.144 3.072 1.36 4.432 3.92 8.368 7.68 11.776 2.4 2.048 6.144 4.784 11.264 8.192 3.408 2.384 5.968 4.272 7.68 5.632 5.808 4.432 9.728 7.936 11.776 10.496s3.072 5.376 3.072 8.448c0 3.072-1.024 8.032-3.072 14.848-3.408 11.6-6.144 20.304-8.192 26.096-3.76 9.568-8.016 17.568-12.8 24.048-3.072 4.432-5.968 6.656-8.704 6.656s-4.608-0.592-5.632-1.792c-1.024-1.2-1.872-3.152-2.56-5.888-6.48-18.080-14.512-33.264-24.048-45.552-12.288-17.056-29.344-30.192-51.184-39.408-5.12-2.4-11.264-1.888-18.432 1.536s-13.136 8.544-17.92 15.36c-1.024 1.024-2.048 2.896-3.072 5.632s-1.968 4.688-2.816 5.888c-0.848 1.2-2.048 1.968-3.584 2.304s-4.176-1.2-7.936-4.608c-2.384-2.048-4.272-3.424-5.632-4.096l-3.072-1.536c-4.768-2.72-8.368-4.096-10.752-4.096-4.096-0.336-8.192 1.536-12.288 5.632-1.376 1.024-4.096 1.376-8.192 1.024-2.384 0-6.144-0.688-11.264-2.048l-2.56-0.512c-32.416-6.48-66.544-6.48-102.368 0-4.096 0.688-10.496 1.536-19.2 2.56s-15.104 1.872-19.2 2.56c-7.168 1.36-13.568 3.232-19.2 5.632s-13.728 6.832-24.304 13.312c-9.216 5.456-16.208 9.392-20.992 11.776l-2.56 1.536c-2.048 1.712-3.744 2.64-5.12 2.816s-2.56-0.768-3.584-2.816l-1.536-2.56c-1.712-3.072-2.56-5.456-2.56-7.168 0-2.736 1.712-5.456 5.12-8.192 21.152-15.36 40.256-28.144 57.328-38.384 21.152-12.976 41.712-23.712 61.68-32.24s45.648-14.832 77.024-18.944l8.192-1.024c11.6-2.048 20.304-2.912 26.096-2.56zM308.208 32.512l-0.512-0.512h-1.024v0.512c0 0.688 0.176 1.36 0.512 2.048 0-0.688 0.336-1.376 1.024-2.048zM426.944 144.592c0 1.024-0.176 2.224-0.512 3.584 0 2.736-0.336 4.608-1.024 5.632-7.856 13.664-18.592 34.464-32.24 62.448-9.216 19.104-16.208 33.344-20.992 42.736s-10.752 14.080-17.92 14.080c-13.664 0-25.76 3.92-36.336 11.776-8.528 6.48-16.72 16.032-24.56 28.656-23.536 37.872-32.576 77.456-27.12 118.752 0 2.736 0.512 5.12 1.536 7.168 1.712 5.456 1.712 10.32 0 14.592s-5.28 7.424-10.752 9.472c-6.832 2.384-14.176 5.968-22.016 10.752-4.432 2.736-11.264 7.168-20.48 13.312-12.288 8.544-21.84 14.512-28.656 17.92-1.024 0.336-2.48 1.36-4.352 3.072s-3.504 2.736-4.864 3.072c-1.712 0.688-3.248 0.512-4.608-0.512-2.4-2.4-1.024-7.344 4.096-14.848 7.168-8.528 12.624-19.12 16.384-31.728 2.4-7.504 4.944-19.104 7.68-34.8 2.4-12.976 4.432-22.512 6.144-28.656 5.456-18.080 10.576-33.44 15.36-46.064 6.144-16.032 12.8-30.368 19.968-42.992 21.152-35.824 46.912-59.376 77.28-70.64 10.912-4.096 20.128-10.576 27.632-19.456 6.144-6.832 11.776-16.368 16.896-28.656 13.664-31.728 23.888-59.536 30.704-83.424 1.36-4.768 3.152-7.424 5.376-7.936s4.688 0.768 7.424 3.84c4.432 4.432 8.368 10.24 11.776 17.408 2.048 4.096 4.432 10.416 7.168 18.944z"></path>
</svg>
