<!-- Generated by IcoMoon.io -->
<svg version="1.1" xmlns="http://www.w3.org/2000/svg" width="32" height="32" viewBox="0 0 32 32">
<title>weapons-reach-weapon</title>
<path d="M28.949 19.609c-0.043 0.021-0.117 0.064-0.224 0.128-0.191 0.107-0.33 0.171-0.415 0.192-0.17 0.043-0.341 0.021-0.511-0.064-0.128-0.043-0.341-0.085-0.639-0.128l-0.287-0.064c-0.362-0.086-0.671 0.064-0.926 0.447-0.085 0.149-0.175 0.272-0.271 0.367s-0.229 0.164-0.399 0.208c-0.085 0.021-0.197 0.096-0.335 0.224s-0.25 0.202-0.335 0.224l-0.16 0.096c-0.191 0.107-0.34 0.171-0.447 0.192-0.191 0.064-0.362 0.043-0.511-0.064-0.107-0.043-0.213-0.021-0.319 0.064l-0.064 0.032c-0.149 0.086-0.288 0.128-0.415 0.128s-0.255-0.053-0.383-0.16c-0.277-0.212-0.575-0.18-0.894 0.096l-0.224 0.255c-0.319 0.383-0.554 0.681-0.703 0.894-0.086 0.085-0.17 0.149-0.255 0.192-0.128 0.107-0.224 0.086-0.287-0.064-0.021-0.085-0.032-0.223-0.032-0.415v-1.533c0-0.128-0.016-0.234-0.048-0.319s-0.101-0.159-0.208-0.224l-0.479-0.479c-0.384-0.319-0.607-0.681-0.671-1.086 0-0.064-0.011-0.107-0.032-0.128-0.212-0.212-0.362-0.468-0.447-0.766-0.064-0.191-0.118-0.489-0.16-0.894l-0.032-0.415c-0.064-0.341-0.277-0.564-0.639-0.671-0.426-0.149-0.734-0.362-0.926-0.639-0.064-0.086-0.139-0.134-0.224-0.144s-0.181-0.016-0.287-0.016h-0.128c-0.234 0-0.442 0.064-0.623 0.192s-0.303 0.309-0.367 0.543c-0.064 0.234-0.191 0.457-0.383 0.671-0.128 0.15-0.33 0.32-0.607 0.511l-0.192 0.128c-0.17 0.086-0.287 0.17-0.351 0.255-0.149 0.191-0.33 0.298-0.543 0.319-0.128 0.021-0.336 0.011-0.623-0.032s-0.511-0.021-0.671 0.064c-0.16 0.085-0.303 0.255-0.431 0.511-0.021 0.043-0.043 0.117-0.064 0.224l-0.064 0.192c-0.149 0.383-0.447 0.894-0.894 1.533-0.298 0.426-0.511 0.756-0.639 0.99-0.064 0.107-0.192 0.16-0.383 0.16-0.234-0.043-0.415 0.032-0.543 0.224-0.319 0.277-0.5 0.537-0.543 0.782s0.043 0.409 0.255 0.495c0.128 0.085 0.234 0.139 0.319 0.16 0.191 0.064 0.287 0.213 0.287 0.447v1.724c0 0.191-0.096 0.436-0.287 0.735l-0.096 0.128c-0.149 0.234-0.219 0.426-0.208 0.575s0.091 0.352 0.239 0.607c0.107 0.17 0.245 0.245 0.415 0.224 0.745-0.043 1.352 0.202 1.82 0.735 0.149 0.128 0.394 0.298 0.735 0.511 0.128 0.086 0.213 0.15 0.255 0.192 0.086 0.107 0.128 0.213 0.128 0.319 0.021 0.17 0.128 0.276 0.319 0.319 0.149 0 0.271 0.059 0.367 0.176s0.207 0.123 0.335 0.016c0.298-0.341 0.649-0.554 1.054-0.639 0.107-0.021 0.192-0.005 0.255 0.048s0.068 0.123 0.016 0.208c-0.053 0.086-0.090 0.218-0.112 0.399s-0.081 0.308-0.176 0.383-0.143 0.181-0.144 0.319c-0.001 0.138 0.053 0.239 0.16 0.303l0.128 0.096c0.128 0.107 0.224 0.171 0.287 0.192 0.128 0.064 0.245 0.064 0.351 0 0.298-0.128 0.65-0.33 1.054-0.607 0.085-0.043 0.139-0.128 0.16-0.255v-0.096c0.021-0.277 0.016-0.452-0.016-0.527s-0.165-0.197-0.399-0.367c0.213-0.086 0.394-0.075 0.543 0.032l0.128 0.128c0.107 0.086 0.182 0.16 0.224 0.224s0.064 0.149 0.064 0.255c0 0.234-0.043 0.479-0.128 0.735-0.064 0.17-0.181 0.394-0.351 0.671-0.128 0.128-0.203 0.234-0.224 0.319-0.043 0.234-0.091 0.372-0.144 0.415s-0.186 0.064-0.399 0.064h-0.958c-0.17 0-0.309-0.096-0.415-0.287-0.213-0.426-0.447-0.767-0.703-1.022-0.298-0.298-0.655-0.495-1.070-0.591s-0.729-0.016-0.942 0.239c-0.255 0.277-0.447 0.42-0.575 0.431s-0.32-0.122-0.575-0.399c-0.086-0.086-0.234-0.197-0.447-0.335s-0.361-0.25-0.447-0.335c-0.234-0.191-0.404-0.362-0.511-0.511-0.149-0.191-0.234-0.404-0.255-0.639 0-0.043-0.021-0.107-0.064-0.192-0.319-0.362-0.521-0.905-0.607-1.629-0.021-0.128-0.096-0.32-0.224-0.575-0.064-0.128-0.224-0.171-0.479-0.128-0.086 0.043-0.128 0.138-0.128 0.287v0.064c0 0.15 0.021 0.266 0.064 0.351 0.085 0.128 0.128 0.245 0.128 0.351 0.085 0.681 0.277 1.203 0.575 1.565 0.043 0.064 0.059 0.117 0.048 0.16s-0.043 0.101-0.096 0.176c-0.053 0.075-0.123 0.080-0.208 0.016l-0.064-0.064c-0.489-0.234-0.723-0.607-0.703-1.118 0.021-0.298-0.053-0.596-0.224-0.894-0.085-0.17-0.255-0.415-0.511-0.735l-0.064-0.064c-0.107-0.107-0.266-0.181-0.479-0.224-0.32-0.064-0.575-0.245-0.766-0.543-0.426-0.532-0.692-1.022-0.798-1.469-0.277-0.703-0.212-1.256 0.192-1.661 0.064-0.064 0.112-0.186 0.144-0.367s0.038-0.335 0.016-0.463c-0.021-0.128-0.021-0.245 0-0.351 0.043-0.511-0.117-0.883-0.479-1.118-0.17-0.107-0.255-0.288-0.255-0.543v-2.012c0-0.191 0.075-0.362 0.224-0.511 0.212-0.191 0.34-0.34 0.383-0.447 0.086-0.191 0.075-0.404-0.032-0.639-0.043-0.064-0.032-0.16 0.032-0.287l0.032-0.032c0.149-0.384 0.298-0.82 0.447-1.309l0.032-0.032c0.021-0.086 0.032-0.155 0.032-0.208s-0.021-0.123-0.064-0.208c-0.085-0.128-0.139-0.288-0.16-0.479 0-0.107 0.011-0.266 0.032-0.479l0.032-0.255c0.021-0.128 0.106-0.277 0.255-0.447 0.107-0.107 0.186-0.202 0.239-0.287s0.154-0.218 0.303-0.399 0.255-0.314 0.319-0.399c0.234-0.319 0.521-0.479 0.862-0.479 0.277 0 0.532-0.16 0.766-0.479 0.086-0.191 0.234-0.351 0.447-0.479 0.255-0.107 0.319-0.32 0.192-0.639-0.191-0.426-0.085-0.788 0.319-1.086l0.255-0.192c0.383-0.298 0.686-0.516 0.91-0.655s0.415-0.197 0.575-0.176c0.16 0.021 0.347 0 0.559-0.064 0.107-0.043 0.277-0.117 0.511-0.224l0.287-0.128 0.192-0.064c0.234-0.064 0.377-0.149 0.431-0.255s0.133-0.255 0.239-0.447c0.149-0.255 0.245-0.458 0.287-0.607 0.15-0.405 0.373-0.639 0.671-0.703 0.107-0.021 0.256-0.085 0.447-0.192 0.298-0.149 0.548-0.224 0.75-0.224s0.356-0.117 0.463-0.351c0.191-0.32 0.479-0.618 0.862-0.894 0.213-0.17 0.564-0.394 1.054-0.671 0.128-0.064 0.362-0.117 0.703-0.16 0.511-0.064 0.82-0.298 0.926-0.703 0.064-0.149 0.208-0.325 0.431-0.527s0.357-0.388 0.399-0.559c0.149 0.064 0.288 0.213 0.415 0.447l0.064 0.16c0.021 0 0.032 0.021 0.032 0.064v0.096c0.149 0.383 0.256 0.628 0.319 0.734 0.085 0.149 0.191 0.266 0.319 0.351 0.107 0.064 0.341 0.17 0.703 0.319l0.064 0.032c0.212 0.064 0.351 0.139 0.415 0.224 0.128 0.17 0.33 0.308 0.607 0.415 0.703 0.426 1.097 1.022 1.182 1.788 0.021 0.17 0.091 0.33 0.208 0.479s0.261 0.229 0.431 0.239c0.17 0.010 0.425 0.089 0.766 0.239 0.212 0.107 0.383 0.176 0.511 0.208s0.187 0.144 0.176 0.335c-0.011 0.191-0.112 0.287-0.303 0.287-0.277 0-0.628 0.095-1.054 0.287-0.255 0.107-0.458 0.245-0.607 0.415s-0.277 0.393-0.383 0.671c-0.212 0.511-0.447 0.905-0.703 1.182-0.32 0.362-0.724 0.597-1.213 0.703l-0.128 0.032c-0.17 0.021-0.266 0.053-0.287 0.096-0.17 0.107-0.362 0.181-0.575 0.224-0.149 0.021-0.341 0.032-0.575 0.032s-0.404 0.037-0.511 0.112c-0.107 0.075-0.181 0.207-0.224 0.399l-0.032 0.16c-0.107 0.426-0.234 0.724-0.383 0.894-0.021 0.021-0.032 0.075-0.032 0.16l-0.032 0.096v0.16c0 0.128-0.038 0.192-0.112 0.192s-0.117-0.016-0.128-0.048c-0.011-0.032-0.016-0.085-0.016-0.16s-0.011-0.123-0.032-0.144c-0.128-0.191-0.245-0.5-0.351-0.926-0.085-0.319-0.165-0.564-0.239-0.735s-0.154-0.298-0.239-0.383c-0.107-0.128-0.245-0.197-0.415-0.208s-0.394-0.144-0.671-0.399l-0.351-0.255c-0.17-0.17-0.319-0.276-0.447-0.319-0.213-0.064-0.393-0.181-0.543-0.351-0.107-0.107-0.229-0.282-0.367-0.527s-0.292-0.436-0.463-0.575c-0.171-0.139-0.395-0.208-0.671-0.208-0.043 0-0.107-0.032-0.192-0.096l-0.128-0.064c-0.191-0.107-0.394-0.155-0.607-0.144s-0.405 0.080-0.575 0.208l-0.128 0.128c-0.17 0.149-0.26 0.261-0.271 0.335s0.032 0.18 0.128 0.319 0.139 0.25 0.128 0.335c-0.011 0.085-0.070 0.202-0.176 0.351-0.149 0.234-0.426 0.511-0.83 0.83l-0.383 0.351c-0.191 0.191-0.543 0.383-1.054 0.575l-0.383 0.16c-0.107 0.021-0.309 0.032-0.607 0.032-0.17 0.021-0.308 0.085-0.415 0.192s-0.16 0.245-0.16 0.415v0.192c-0.021 0.17-0.021 0.298 0 0.383 0.043 0.277 0.021 0.553-0.064 0.83-0.085 0.191-0.213 0.436-0.383 0.735l-0.192 0.287c-0.085 0.469-0.426 0.841-1.022 1.118-0.447 0.17-0.735 0.468-0.862 0.894-0.064 0.191-0.080 0.388-0.048 0.591s0.128 0.341 0.287 0.415 0.261 0.164 0.303 0.271c0.043 0.107 0.064 0.245 0.064 0.415v2.491c0 0.362-0.128 0.628-0.383 0.798-0.17 0.128-0.282 0.33-0.335 0.607s-0.037 0.511 0.048 0.703c0.086 0.192 0.15 0.288 0.192 0.287 0.149 0.043 0.277 0.118 0.383 0.224 0.064 0.064 0.144 0.181 0.239 0.351s0.175 0.287 0.239 0.351l0.032 0.096c0.043 0.107 0.107 0.16 0.192 0.16h0.064c0.17 0 0.287-0.043 0.351-0.128 0.191-0.213 0.457-0.436 0.798-0.671 0.085-0.043 0.16-0.17 0.224-0.383l0.032-0.16c0.021-0.043 0.032-0.096 0.032-0.16v-0.096c0.17-0.17 0.25-0.346 0.239-0.527s-0.085-0.378-0.224-0.591c-0.139-0.212-0.144-0.457-0.016-0.735l0.032-0.128c0.086-0.234 0.15-0.415 0.192-0.543 0.085-0.191 0.202-0.34 0.351-0.447 0.107-0.086 0.245-0.224 0.415-0.415l0.224-0.224c0.191-0.234 0.373-0.404 0.543-0.511 0.234-0.128 0.5-0.171 0.798-0.128 0.128 0.021 0.256 0 0.383-0.064 0.085-0.043 0.197-0.128 0.335-0.255s0.25-0.212 0.335-0.255c0.149-0.128 0.224-0.33 0.224-0.607 0-0.213 0.064-0.405 0.192-0.575 0.085-0.128 0.234-0.277 0.447-0.447 0.682-0.447 1.331-0.724 1.948-0.83 0.17-0.043 0.309-0.032 0.415 0.032 0.149 0.086 0.293 0.118 0.431 0.096s0.303-0.075 0.495-0.16l0.064-0.032c0.064-0.043 0.117-0.064 0.16-0.064 0.468 0.064 0.798-0.138 0.99-0.607 0.043-0.149 0.245-0.224 0.607-0.224h0.224c0.277-0.021 0.479 0 0.607 0.064 0.213 0.107 0.436 0.096 0.671-0.032l0.064-0.032c0.17-0.107 0.308-0.117 0.415-0.032 0.064 0.021 0.16-0.032 0.287-0.16 0.49-0.511 1.193-0.82 2.108-0.926 0.128-0.021 0.298-0.075 0.511-0.16l0.128-0.032c0.15-0.043 0.256-0.064 0.319-0.064 0.128-0.021 0.24 0 0.335 0.064s0.207 0.085 0.335 0.064c0.086-0.021 0.213-0.064 0.383-0.128 0.575-0.191 1.096-0.543 1.565-1.054 0.107-0.15 0.224-0.256 0.351-0.319 0.064-0.064 0.139-0.075 0.224-0.032s0.128 0.107 0.128 0.192v0.511c0 0.447-0.032 0.777-0.096 0.99-0.107 0.384 0.021 0.692 0.383 0.926 0.234 0.149 0.479 0.405 0.735 0.766s0.416 0.68 0.479 0.958l0.064 0.224c0.234 0.277 0.362 0.596 0.383 0.958 0 0.234-0.043 0.586-0.128 1.054s0.021 0.852 0.319 1.15c0.191 0.128 0.415 0.373 0.671 0.735 0.213 0.298 0.394 0.511 0.543 0.639zM9.789 8.016c-0.086-0.128-0.155-0.245-0.208-0.351s-0.133-0.18-0.239-0.224c-0.106-0.043-0.202-0.022-0.287 0.064l-0.128 0.096c-0.405 0.234-0.676 0.452-0.814 0.655s-0.111 0.357 0.080 0.463c0.298 0.107 0.426 0.341 0.383 0.703v0.064c-0.021 0.086-0.011 0.149 0.032 0.192 0.107 0.043 0.213 0.021 0.319-0.064l0.064-0.064c0.234-0.149 0.564-0.384 0.99-0.703l0.16-0.096 0.255-0.224c0.085-0.085 0.117-0.186 0.096-0.303s-0.107-0.175-0.255-0.176c-0.107-0.021-0.256-0.032-0.447-0.032zM10.683 29.381c0.021-0.107-0.032-0.266-0.16-0.479l-0.064-0.128c-0.043-0.128-0.117-0.234-0.224-0.319-0.064-0.064-0.17-0.128-0.319-0.192-0.213-0.085-0.362-0.181-0.447-0.287 0-0.043-0.053-0.032-0.16 0.032-0.149 0.064-0.271 0.234-0.367 0.511s-0.101 0.489-0.016 0.639l0.032 0.064c0.086 0.064 0.15 0.107 0.192 0.128 0.191 0.085 0.489 0.277 0.894 0.575l0.032 0.032c0.128 0.085 0.245 0.075 0.351-0.032 0.17-0.149 0.255-0.33 0.255-0.543zM6.372 12.615c0-0.255-0.027-0.441-0.080-0.559s-0.165-0.239-0.335-0.367c-0.043-0.043-0.101-0.070-0.176-0.080s-0.133 0.005-0.176 0.048c-0.426 0.319-0.671 0.734-0.734 1.245-0.021 0.128 0.037 0.293 0.176 0.495s0.272 0.314 0.399 0.335c0.277 0.021 0.489-0.117 0.639-0.415 0.021-0.043 0.069-0.112 0.144-0.208s0.128-0.176 0.16-0.239c0.032-0.063 0.027-0.148-0.016-0.255zM12.056 15.872c-0.021 0.064-0.005 0.139 0.048 0.224s0.080 0.149 0.080 0.192c0.128 0.469 0.394 0.596 0.798 0.383 0.17-0.086 0.415-0.224 0.735-0.415l0.255-0.16c0.064-0.043 0.102-0.091 0.112-0.144s0.016-0.133 0.016-0.239c0-0.106-0.037-0.196-0.112-0.271s-0.186-0.155-0.335-0.239c-0.191-0.128-0.383-0.128-0.575 0-0.298 0.234-0.639 0.457-1.022 0.671zM4.711 18.108v-0.383c0-0.255-0.075-0.383-0.224-0.383-0.107 0-0.245-0.032-0.415-0.096-0.128-0.064-0.229-0.102-0.303-0.112s-0.154 0.016-0.24 0.080c-0.043 0.021-0.085 0.096-0.128 0.224v0.032c-0.086 0.149-0.086 0.399 0 0.75s0.202 0.58 0.351 0.687l0.032 0.032c0.064 0.021 0.107 0.032 0.128 0.032 0.298 0.064 0.505 0.053 0.623-0.032s0.176-0.277 0.176-0.575zM7.841 23.568c-0.085 0.043-0.149 0.138-0.192 0.287l-0.032 0.128c-0.128 0.341-0.309 0.362-0.543 0.064-0.043-0.043-0.085-0.128-0.128-0.255v-0.096c-0.021-0.107-0.075-0.15-0.16-0.128s-0.155 0.059-0.208 0.112c-0.053 0.053-0.080 0.112-0.080 0.176 0 0.362 0.011 0.628 0.032 0.798s0.117 0.362 0.287 0.575c0.128 0.107 0.277 0.171 0.447 0.192 0.107 0 0.245-0.032 0.415-0.096 0.107-0.043 0.197-0.112 0.271-0.208s0.101-0.208 0.080-0.335-0.021-0.298 0-0.511v-0.255c0-0.128-0.011-0.224-0.032-0.287s-0.075-0.116-0.16-0.16zM4.775 24.91c0.234-0.17 0.394-0.394 0.479-0.671 0.043-0.191 0.054-0.457 0.032-0.798 0-0.085-0.032-0.155-0.096-0.208s-0.139-0.080-0.224-0.080l-0.16-0.032c-0.17-0.021-0.298-0.043-0.383-0.064-0.255-0.086-0.415-0.107-0.479-0.064s-0.096 0.192-0.096 0.447c0 0.17 0.043 0.33 0.128 0.479l0.192 0.287c0.234 0.341 0.436 0.575 0.607 0.703zM9.693 19.225c0-0.149-0.059-0.314-0.176-0.495s-0.24-0.282-0.367-0.303c-0.191-0.043-0.33-0.021-0.415 0.064l-0.192 0.16c-0.277 0.277-0.447 0.5-0.511 0.671-0.021 0.086-0.032 0.224-0.032 0.415 0.107 0.234 0.234 0.287 0.383 0.16 0.128-0.064 0.298-0.075 0.511-0.032 0.234 0 0.425-0.059 0.575-0.176s0.224-0.272 0.224-0.463zM17.932 13.701h-0.287c-0.085 0-0.165 0.021-0.239 0.064s-0.111 0.107-0.112 0.192c0 0.362-0.085 0.66-0.255 0.894-0.043 0.085-0.048 0.175-0.016 0.271s0.101 0.165 0.208 0.208c0.255 0.064 0.49 0.021 0.703-0.128 0.149-0.107 0.288-0.32 0.415-0.639 0.064-0.17 0.118-0.287 0.16-0.351 0.085-0.128 0.085-0.245 0-0.351s-0.213-0.17-0.383-0.192c-0.021 0.021-0.086 0.032-0.192 0.032zM13.653 4.472c-0.341-0.128-0.65-0.021-0.926 0.319-0.085 0.107-0.133 0.224-0.144 0.351s0.037 0.212 0.144 0.255c0.17 0.064 0.261 0.149 0.271 0.255s-0.027 0.234-0.112 0.383c-0.021 0.043-0.021 0.096 0 0.16v0.096c0 0.085 0.037 0.144 0.112 0.176s0.16 0.027 0.255-0.016c0.095-0.043 0.143-0.107 0.144-0.192 0-0.149 0.048-0.352 0.144-0.607s0.144-0.447 0.144-0.575c0.043-0.213 0.032-0.415-0.032-0.607zM6.212 25.229c-0.17-0.064-0.341-0.064-0.511 0 0.107 0.15 0.197 0.224 0.271 0.224s0.154-0.075 0.239-0.224z"></path>
</svg>
