<!-- Generated by IcoMoon.io -->
<svg version="1.1" xmlns="http://www.w3.org/2000/svg" width="32" height="32" viewBox="0 0 32 32">
<title>weapons-claws</title>
<path d="M21.521 25.462h-0.53c-0.478-0.021-0.836-0.021-1.075 0s-0.472-0.021-0.701-0.125c-0.166-0.084-0.384-0.208-0.655-0.374l-0.187-0.125-0.468-0.343c-0.541-0.437-0.977-0.728-1.309-0.873-0.166-0.063-0.395-0.218-0.686-0.468l-0.312-0.249c-0.208-0.145-0.39-0.208-0.546-0.187s-0.275 0.114-0.358 0.281c-0.063 0.125-0.13 0.203-0.203 0.234s-0.171 0.047-0.296 0.047h-0.156c-0.333 0-0.572 0.031-0.717 0.094-0.395 0.208-0.649 0.369-0.764 0.483s-0.255 0.379-0.421 0.795l-0.031 0.094c-0.041 0.063-0.062 0.114-0.062 0.156 0.041 0.208 0.021 0.416-0.062 0.623-0.041 0.145-0.124 0.332-0.249 0.561l-0.187 0.374c-0.021 0.063-0.073 0.146-0.156 0.249l-0.094 0.094c-0.084 0.104-0.177 0.161-0.281 0.171s-0.218-0.005-0.343-0.047l-0.842-0.374c-0.188-0.084-0.427-0.089-0.717-0.016s-0.478 0.192-0.561 0.358c-0.166 0.354-0.467 0.863-0.904 1.527l-0.405 0.655c-0.229 0.374-0.333 0.758-0.312 1.153 0.021 0.249-0.062 0.468-0.249 0.655-0.125 0.125-0.229 0.177-0.312 0.156-0.229-0.041-0.447 0.068-0.655 0.327s-0.405 0.286-0.592 0.078l-0.218-0.281c-0.208-0.229-0.354-0.416-0.436-0.561-0.041-0.063-0.125-0.135-0.249-0.218-0.603-0.312-1.361-0.416-2.276-0.312-0.145 0-0.353 0.114-0.623 0.343l-0.062 0.062c-0.104 0.104-0.291 0.239-0.561 0.405l-0.249 0.125c-0.083 0.041-0.161 0.057-0.234 0.047s-0.13-0.046-0.171-0.109c-0.041-0.063-0.052-0.135-0.031-0.218 0.229-0.727 0.385-1.444 0.468-2.151 0.021-0.166 0.083-0.405 0.187-0.717l0.125-0.499c0.083-0.457 0.136-0.8 0.156-1.029 0-0.374-0.083-0.758-0.249-1.153l-0.062-0.187c-0.083-0.187-0.135-0.322-0.156-0.405-0.021-0.166 0-0.322 0.062-0.468s0.041-0.302-0.062-0.468c-0.021-0.083-0.015-0.156 0.016-0.218s0.099-0.104 0.203-0.125c0.104-0.021 0.198-0.021 0.281 0 0.208 0.021 0.416-0.031 0.623-0.156 0.166-0.084 0.322-0.115 0.468-0.094s0.291-0.011 0.436-0.094c0.104-0.063 0.228-0.177 0.374-0.343l0.125-0.125c0.25-0.208 0.4-0.405 0.452-0.592s0.062-0.322 0.031-0.405l-0.14-0.374c-0.104-0.27-0.223-0.468-0.358-0.592s-0.176-0.255-0.125-0.39c0.051-0.136 0.202-0.203 0.452-0.203h0.094c0.145-0.021 0.239-0.010 0.281 0.031 0.084 0.084 0.166 0.12 0.249 0.109s0.187-0.047 0.312-0.109l0.062-0.031c0.603-0.208 1.018-0.551 1.247-1.029l0.062-0.094c0.125-0.249 0.208-0.436 0.249-0.561 0.063-0.229 0.083-0.436 0.062-0.623-0.021-0.27 0-0.675 0.062-1.216 0.041-0.395 0.062-0.696 0.062-0.904 0-0.769-0.145-1.621-0.436-2.556-0.27-0.831-0.79-1.673-1.559-2.525-0.208-0.229-0.353-0.582-0.436-1.060-0.021-0.188 0.052-0.364 0.218-0.53 0.063-0.063 0.157-0.073 0.281-0.031h0.031c0.811 0.229 1.57 0.249 2.276 0.062 0.104-0.020 0.27-0.031 0.499-0.031h0.374c0.498 0 0.925-0.177 1.278-0.53 0.166-0.187 0.187-0.369 0.062-0.546s-0.281-0.234-0.468-0.171l-0.156 0.062c-0.125 0.021-0.208 0.052-0.249 0.094-0.187 0.104-0.478 0.187-0.873 0.249-0.249 0.020-0.446 0.052-0.592 0.094s-0.26 0.032-0.343-0.031c-0.125-0.104-0.26-0.136-0.405-0.094s-0.291 0.041-0.436 0c-0.084-0.021-0.213-0.067-0.39-0.14s-0.307-0.12-0.39-0.14c-0.166-0.063-0.249-0.25-0.249-0.561-0.020-0.166 0.032-0.415 0.156-0.748 0.104-0.249 0.161-0.452 0.171-0.608s0.109-0.4 0.296-0.733c0.104-0.208 0.177-0.364 0.218-0.468 0.084-0.229 0.26-0.53 0.53-0.904 0.188-0.249 0.322-0.436 0.405-0.561 0.104-0.188 0.27-0.364 0.499-0.53 0.125-0.104 0.332-0.249 0.623-0.436l0.312-0.187c0.623-0.395 1.372-0.654 2.245-0.779 0.104-0.021 0.25-0.063 0.436-0.125l0.156-0.062c0.166-0.104 0.436-0.203 0.811-0.296s0.645-0.182 0.811-0.265c0.041-0.021 0.124-0.021 0.249 0h2.4c0.063 0 0.156 0.021 0.281 0.062l0.218 0.031c0.395 0.104 0.758 0.166 1.091 0.187 0.623 0.063 1.226 0.27 1.808 0.623 0.084 0.041 0.115 0.124 0.094 0.249v0.062c0 0.125-0.063 0.187-0.187 0.187-0.063 0-0.151 0.026-0.265 0.078s-0.202 0.068-0.265 0.047c-0.166-0.021-0.416 0.011-0.748 0.094l-0.374 0.094c-0.561 0.083-0.977 0.188-1.247 0.312l-0.281 0.125c-0.333 0.125-0.572 0.218-0.717 0.281-0.727 0.249-1.486 0.634-2.276 1.153-0.145 0.104-0.322 0.265-0.53 0.483s-0.375 0.369-0.499 0.452c-0.166 0.104-0.301 0.26-0.405 0.468-0.187 0.333-0.281 0.686-0.281 1.060v0.218c0.021 0.27 0 0.473-0.062 0.608s-0.020 0.296 0.125 0.483 0.307 0.291 0.483 0.312c0.177 0.021 0.327 0.084 0.452 0.187 0.083 0.084 0.187 0.208 0.312 0.374 0.249 0.374 0.416 0.748 0.499 1.122 0.063 0.208 0.089 0.39 0.078 0.546s-0.068 0.317-0.171 0.483l-0.281 0.468c-0.188 0.374-0.343 0.644-0.468 0.811-0.229 0.291-0.27 0.664-0.125 1.122l0.218 0.717c0.021 0.291 0.218 0.405 0.592 0.343 0.166-0.041 0.363-0.156 0.592-0.343l0.249-0.187c0.354-0.27 0.655-0.634 0.904-1.091 0.188-0.312 0.375-0.748 0.561-1.309 0.063-0.27 0.063-0.52 0-0.748-0.063-0.145-0.068-0.265-0.016-0.358s0.14-0.192 0.265-0.296c0.291-0.208 0.53-0.208 0.717 0 0.041 0.041 0.104 0.073 0.187 0.094s0.136 0.042 0.156 0.062c0.145 0.083 0.244 0.052 0.296-0.094s0.141-0.25 0.265-0.312c0.291-0.125 0.436-0.384 0.436-0.779v-0.312c0-0.291-0.031-0.504-0.094-0.639s-0.083-0.348-0.062-0.639l0.031-0.281c0-0.104 0.052-0.187 0.156-0.249 0.457-0.457 0.759-0.831 0.904-1.122 0.063-0.104 0.146-0.187 0.249-0.249 0.063-0.063 0.125-0.073 0.187-0.031l0.031 0.031c0.063 0.063 0.125 0.166 0.187 0.312l0.094 0.187c0.125 0.27 0.281 0.675 0.468 1.216l0.125 0.312c0.041 0.145 0.093 0.239 0.156 0.281 0.166 0.063 0.353 0.208 0.561 0.436 0.125 0.125 0.218 0.208 0.281 0.249 0.354 0.27 0.645 0.457 0.873 0.561 0.354 0.166 0.696 0.239 1.029 0.218h0.094c0.249-0.041 0.426-0.021 0.53 0.062 0.021 0.020 0.083 0.036 0.187 0.047s0.177 0.047 0.218 0.109c0.041 0.062 0.036 0.135-0.016 0.218s-0.068 0.146-0.047 0.187c0.021 0.041 0.036 0.114 0.047 0.218s0.037 0.187 0.078 0.249c0.478 0.561 0.53 1.195 0.156 1.902-0.188 0.354-0.416 0.675-0.686 0.966l-0.156 0.156c-0.208 0.249-0.374 0.426-0.499 0.53-0.188 0.166-0.385 0.291-0.592 0.374l-0.281 0.125c-0.188 0.104-0.343 0.166-0.468 0.187-0.208 0.041-0.359 0.13-0.452 0.265s-0.172 0.307-0.234 0.514c-0.084 0.498-0.218 0.925-0.405 1.278-0.229 0.395-0.54 0.706-0.935 0.935-0.166 0.104-0.239 0.249-0.218 0.436s0.125 0.332 0.312 0.436c0.104 0.063 0.177 0.094 0.218 0.094 0.145 0 0.364 0.011 0.655 0.031 0.457 0.021 0.79 0 0.998-0.062s0.348-0.068 0.421-0.016c0.073 0.051 0.12 0.16 0.14 0.327v0.312c0 0.166 0.083 0.27 0.249 0.312 0.437 0.104 0.78 0.146 1.029 0.125 0.353 0 0.665-0.114 0.935-0.343l0.156-0.094c0.291-0.166 0.498-0.311 0.623-0.436 0.084-0.083 0.182-0.12 0.296-0.109s0.192 0.057 0.234 0.14l0.031 0.062c0.104 0.166 0.156 0.301 0.156 0.405v0.156c0.021 0.125 0.021 0.218 0 0.281-0.041 0.249-0.010 0.499 0.094 0.748 0.063 0.145 0.187 0.343 0.374 0.592l0.281 0.374c0.188 0.229 0.333 0.416 0.436 0.561 0.27 0.415 0.582 0.665 0.935 0.748 0.104 0 0.182 0.031 0.234 0.094s0.104 0.146 0.156 0.249c0.052 0.104 0.094 0.171 0.125 0.203s0.047 0.063 0.047 0.094c0 0.031-0.011 0.047-0.031 0.047-0.063 0.063-0.135 0.177-0.218 0.343-0.187 0.332-0.359 0.535-0.514 0.608s-0.348 0.213-0.577 0.421c-0.27 0.229-0.498 0.374-0.686 0.436l-0.343 0.125c-0.478 0.208-0.862 0.312-1.153 0.312-0.229-0.021-0.561-0.031-0.998-0.031zM10.797 25.961c0.021 0 0.041 0.005 0.062 0.016s0.041 0.005 0.062-0.016c0.229-0.125 0.395-0.374 0.499-0.748l-0.031-0.094c-0.041-0.041-0.093-0.052-0.156-0.031-0.187 0.166-0.364 0.343-0.53 0.53-0.084 0.083-0.109 0.161-0.078 0.234s0.088 0.109 0.171 0.109zM4.406 20.63c0-0.084-0.041-0.125-0.125-0.125s-0.146 0.026-0.187 0.078c-0.041 0.052-0.068 0.114-0.078 0.187s0.046 0.109 0.171 0.109h0.031c0.125 0 0.187-0.083 0.187-0.249zM15.847 10.592c-0.063-0.084-0.156-0.104-0.281-0.062-0.063 0.041-0.073 0.073-0.031 0.094l0.062 0.062c0.041 0.063 0.083 0.063 0.125 0 0.063 0 0.104-0.031 0.125-0.094zM16.626 17.669c-0.041-0.084-0.093-0.125-0.156-0.125s-0.094 0.031-0.094 0.094c0 0.063 0.016 0.104 0.047 0.125s0.068 0.021 0.109 0c0.104 0 0.135-0.031 0.094-0.094zM31.247 14.115c-0.229-0.249-0.364-0.655-0.405-1.216l-0.031-0.156c-0.041-0.395-0.093-0.686-0.156-0.873-0.084-0.332-0.218-0.613-0.405-0.842-0.041-0.041-0.078-0.114-0.109-0.218s-0.057-0.177-0.078-0.218c-0.312-0.52-0.842-0.935-1.59-1.247-0.665-0.332-1.174-0.551-1.527-0.655l-0.405-0.125c-0.312-0.104-0.551-0.166-0.717-0.187-0.249-0.021-0.623-0.021-1.122 0h-0.592c-0.084 0-0.188 0.031-0.312 0.094l-0.094 0.031c-0.395 0.166-0.769 0.197-1.122 0.094-0.104-0.041-0.26-0.062-0.468-0.062-0.291-0.021-0.498-0.073-0.623-0.156-0.063-0.041-0.125-0.041-0.187 0-0.374 0.021-0.717-0.094-1.029-0.343-0.707-0.478-1.195-1.112-1.465-1.902-0.041-0.083-0.083-0.229-0.125-0.436-0.084-0.354-0.188-0.603-0.312-0.748-0.021-0.063-0.021-0.115 0-0.156 0.104-0.27 0.296-0.468 0.577-0.592s0.702-0.28 1.263-0.468l0.405-0.156c0.208-0.084 0.53-0.166 0.966-0.249l0.281-0.062c0.208-0.021 0.525-0.036 0.951-0.047s0.743-0.037 0.951-0.078c0.208-0.041 0.436-0.052 0.686-0.031 0.166 0.021 0.395 0.073 0.686 0.156l0.436 0.094c0.395 0.083 0.935 0.302 1.621 0.655 0.374 0.208 0.655 0.353 0.842 0.436l0.156 0.094c0.873 0.811 1.579 1.59 2.12 2.338l0.094 0.125c0.312 0.52 0.52 0.904 0.623 1.153 0.041 0.063 0.068 0.177 0.078 0.343s0.026 0.28 0.047 0.343c0.145 0.415 0.218 0.945 0.218 1.59l-0.031 0.468c-0.021 0.52-0.005 0.893 0.047 1.122s0.078 0.561 0.078 0.998c0 0.332 0.011 0.571 0.031 0.717-0.020 0.145-0.104 0.27-0.249 0.374zM26.882 17.544h0.904c0.145 0.063 0.379 0.146 0.701 0.249s0.555 0.186 0.701 0.249c0.27 0.125 0.488 0.28 0.655 0.468l0.187 0.187c0.686 0.727 1.164 1.309 1.434 1.746 0.332 0.52 0.509 1.060 0.53 1.621 0.021 0.291-0.032 0.737-0.156 1.34-0.063 0.415-0.104 0.727-0.125 0.935 0 0.104-0.073 0.229-0.218 0.374l-0.031 0.062c-0.104 0.249-0.146 0.447-0.125 0.592 0.021 0.291-0.073 0.582-0.281 0.873-0.27 0.416-0.488 0.811-0.655 1.185-0.063 0.125-0.188 0.291-0.374 0.499l-0.343 0.405c-0.208 0.25-0.374 0.416-0.499 0.499s-0.312 0.218-0.561 0.405l-0.156 0.094c-0.353 0.229-0.675 0.457-0.966 0.686-0.104 0.063-0.198 0.052-0.281-0.031l-0.031-0.031c-0.063-0.084-0.063-0.166 0-0.249 0.166-0.208 0.384-0.541 0.655-0.998l0.405-0.655c0.166-0.27 0.363-0.727 0.592-1.372 0.145-0.395 0.259-0.696 0.343-0.904v-0.374c0-0.478-0.011-0.841-0.031-1.091-0.021-0.415-0.093-0.779-0.218-1.091l-0.031-0.062c-0.021-0.063-0.052-0.115-0.094-0.156l-0.281-0.187c-0.208-0.145-0.364-0.239-0.468-0.281-0.208-0.104-0.405-0.135-0.592-0.094-0.519 0.021-0.966-0.187-1.34-0.623-0.478-0.582-0.904-1.227-1.278-1.933-0.229-0.415-0.322-0.904-0.281-1.465 0-0.291 0.166-0.488 0.499-0.592 0.686-0.27 1.289-0.364 1.808-0.281z"></path>
</svg>
