<!-- Generated by IcoMoon.io -->
<svg version="1.1" xmlns="http://www.w3.org/2000/svg" width="512" height="512" viewBox="0 0 512 512">
<title>monsters-of-order</title>
<g id="icomoon-ignore">
</g>
<path d="M510.528 4c0-0.688-0.256-1.36-0.768-2.048s-0.944-1.024-1.28-1.024c-3.408-1.024-8.704-1.2-15.856-0.512l-3.072 0.512c-0.336 0-0.848 0.336-1.536 1.024-0.688 2.736-3.584 5.808-8.704 9.216l-15.344 11.248c-7.504 5.456-13.12 9.712-16.88 12.784-1.712 1.36-4.608 3.248-8.704 5.632-6.144 3.76-10.4 6.832-12.784 9.2-4.096 4.784-9.040 8.192-14.832 10.224-1.024 0.352-2.384 1.024-4.096 2.048s-2.992 1.616-3.84 1.792c-0.848 0.176-1.536 0.512-2.048 1.024s-0.592 1.12-0.256 1.792c0.336 3.072-0.176 5.632-1.536 7.68-1.024 1.712-2.896 3.584-5.632 5.632l-8.704-5.632c-8.528-5.12-14.656-9.376-18.416-12.784-2.384-2.384-6.816-5.12-13.296-8.192l-1.536-0.512c-3.744-2.4-7.328-2.56-10.736-0.512-1.024 0.688-2.816 1.28-5.376 1.792s-4.352 1.12-5.376 1.792c-1.712 0.688-3.072 1.888-4.096 3.584-0.336 0.336-1.536 0.512-3.584 0.512-1.024 0-1.712 0.512-2.048 1.536v0.512c0 1.376 0.848 2.048 2.56 2.048 5.456 0.336 11.424 2.736 17.904 7.168 3.072 1.712 7.072 4.688 12.016 8.96s8.768 7.264 11.504 8.96c1.024 0.336 2.224 1.2 3.584 2.56l1.536 1.024c2.4 1.712 3.76 3.664 4.096 5.888s-0.512 4.352-2.56 6.4l-1.536 1.536c-2.384 2.736-4.096 4.096-5.12 4.096s-3.248-1.024-6.656-3.072l-2.048-1.024c-0.688-0.688-1.024-1.2-1.024-1.536-1.712-1.024-3.408-1.536-5.12-1.536s-3.072 0.688-4.096 2.048l-76.224 76.736-38.368 39.392c-2.736 1.712-5.28 4.096-7.68 7.168-6.816 6.48-16.88 16.368-30.176 29.664-18.080 18.080-31.712 31.296-40.928 39.648s-21.824 21.744-37.856 40.16l-5.12 5.632-7.68 7.68c-9.888 10.576-17.056 18.592-21.488 24.048l-0.512 0.512c-1.36 2.048-2.736 3.584-4.096 4.608l-18.928 19.952c-2.384 2.048-5.632 5.456-9.712 10.224l-20.976 24.56c-2.048 2.048-4.608 5.632-7.68 10.736-4.432 6.144-8.192 10.752-11.248 13.808-3.76 3.76-5.456 8.704-5.12 14.832 0.336 3.408 0.512 8.448 0.512 15.088v16.624c-0.336 2.384 0.176 4.096 1.536 5.12h8.704c8.176-0.336 14.144-0.336 17.904 0 11.936 0.352 23.024-3.92 33.248-12.784l6.656-5.632c12.272-10.224 20.976-18.336 26.096-24.304s9.888-10.32 14.32-13.040l1.536-1.024c4.432-3.072 7.344-5.632 8.704-7.68 2.384-2.736 6.304-6.48 11.76-11.248 7.152-6.48 12.096-11.76 14.832-15.856 4.768-3.072 11.088-8.864 18.928-17.392l7.68-8.192 7.68-7.168 42.464-42.464c15.344-16.032 28.816-30.704 40.416-44 6.144-7.84 16.544-19.088 31.2-33.76 10.576-10.576 18.416-18.752 23.536-24.56 5.808-6.816 15.344-16.528 28.64-29.152l5.12-5.12c9.2-8.528 17.216-14.832 24.048-18.928 5.12-3.408 9.040-6.992 11.76-10.736 1.376-2.048 4.096-5.456 8.192-10.224l1.024-1.024c3.76-3.76 6.32-7.168 7.68-10.224 1.712-4.096 2.048-8.352 1.024-12.784l-1.536-4.608c-1.376-2.384-0.688-4.768 2.048-7.168 2.4-1.712 4.784-0.848 7.168 2.56l1.024 1.536c2.384 3.76 4.272 6.144 5.632 7.168 8.864 8.864 14.832 18.752 17.904 29.664l1.024 3.072c2.384 5.808 4.608 9.888 6.656 12.272 3.408-2.736 6.32-6.144 8.704-10.224 1.712-2.736 3.584-6.656 5.632-11.76 1.712-3.76 1.888-7.68 0.512-11.76-0.688-3.072-2.384-6.304-5.12-9.712l-3.072-4.096c-6.816-8.176-12.112-14.144-15.856-17.904-1.712-1.36-3.76-3.584-6.144-6.656l-4.608-5.12c-0.688-1.024-1.104-1.872-1.28-2.56s0.080-1.536 0.768-2.56c3.408-7.152 9.216-14.144 17.392-20.976l2.048-1.536c2.384-2.384 3.92-4.272 4.608-5.632 2.048-3.408 5.808-8.192 11.248-14.32l5.632-7.168 4.096-5.632c6.144-8.528 11.264-14.656 15.344-18.416l1.024-1.024c3.408-3.408 5.968-5.632 7.68-6.656 3.408-1.712 6.992-2.224 10.736-1.536 1.36 0.352 2.48 0.080 3.328-0.768s1.28-1.968 1.28-3.328v-15.856zM273.152 189.696c0.688 1.024 0.768 1.888 0.256 2.56s-1.28 1.536-2.304 2.56l-2.048 1.536c-0.688 1.024-1.872 2.224-3.584 3.584l-1.536 1.536c-0.688 0.688-1.376 0.768-2.048 0.256s-1.104-1.024-1.28-1.536c-0.176-0.512-0.080-1.024 0.256-1.536s1.2-1.456 2.56-2.816l7.168-8.192 0.512 0.512c1.024 0.336 1.712 0.848 2.048 1.536zM374.96 135.472c-1.376 4.768-4.016 9.2-7.936 13.296s-9.296 10.4-16.112 18.928l-5.632 6.656c-2.384 2.736-6.32 6.656-11.76 11.76l-13.296 12.784c-10.576 9.552-18.080 17.232-22.512 23.024-6.816 8.528-13.296 14.656-19.44 18.416-1.376 0.688-2.56 1.872-3.584 3.584l-2.048 2.56c-5.12 5.456-13.312 13.392-24.56 23.792s-19.616 18.576-25.072 24.56-14.16 14.24-26.096 24.816l-11.248 9.712c-7.84 6.48-13.632 12.944-17.392 19.44-0.688 1.024-1.888 2.224-3.584 3.584l-1.536 1.536c-1.712 2.048-4.256 4.528-7.68 7.424s-5.808 5.2-7.168 6.912c-2.4 2.736-5.968 6.48-10.736 11.248l-18.928 18.928c-4.432 4.432-10.912 11.6-19.44 21.488l-11.248 12.784-6.144 7.68c-4.768 6.144-8.704 10.24-11.76 12.272-4.784 3.072-8.704 6.48-11.76 10.224-1.36 2.048-3.92 4.256-7.68 6.656l-2.048 1.536-3.072 1.536c-1.36 0-2.64-1.024-3.84-3.072s-1.456-3.76-0.768-5.12c1.024-2.4 2.896-5.456 5.632-9.216l1.024-1.536c3.76-4.096 6.992-8.704 9.712-13.808 2.384-3.072 4.256-4.944 5.632-5.632 2.736-1.024 4.864-3.408 6.4-7.168s4.176-7.68 7.936-11.76c2.048-2.384 5.456-5.792 10.224-10.224 6.144-5.808 14.656-14.672 25.584-26.608 12.96-14.32 23.024-24.72 30.176-31.2 8.176-7.504 20.112-18.912 35.808-34.272 12.96-12.96 22.848-22.512 29.664-28.64l5.632-6.144c5.12-5.456 9.296-9.376 12.528-11.76s7.744-6.464 13.552-12.272l3.584-4.096c7.504-7.84 12.784-13.632 15.856-17.392 5.12-5.808 10.224-10.912 15.344-15.344 3.072-2.048 6.656-5.808 10.736-11.248 5.808-8.176 12.112-14.32 18.928-18.416l1.536-1.024c0.688-1.024 1.36-1.712 2.048-2.048l5.632-5.632c8.864-9.2 15.68-15.52 20.464-18.928 1.36-1.024 2.896-2.912 4.608-5.632l2.56-3.584 3.584-3.584c2.736-2.736 4.944-4.608 6.656-5.632 2.384-1.712 5.632-4.944 9.712-9.712 1.376-2.048 2.992-3.072 4.864-3.072s3.84 0.864 5.888 2.56c1.024 0.336 1.712 0.768 2.048 1.28s0.512 1.456 0.512 2.816z"></path>
</svg>
