<!-- Generated by IcoMoon.io -->
<svg version="1.1" xmlns="http://www.w3.org/2000/svg" width="32" height="32" viewBox="0 0 32 32">
<title>weapons-axe</title>
<path d="M16.416 23.327c-0.585-0.042-1.097-0.157-1.536-0.345-0.168-0.083-0.45-0.146-0.847-0.188h-0.063c-0.021-0.021-0.057-0.031-0.11-0.031h-0.11l-0.188-0.063c-0.209-0.083-0.325-0.157-0.345-0.22-0.084-0.125-0.167-0.334-0.251-0.627l-0.063-0.188c0-0.042 0.031-0.094 0.094-0.157l0.031-0.031c0.376-0.606 0.836-1.233 1.38-1.881l1.913-2.352c0.209-0.251 0.45-0.596 0.721-1.035 0.167-0.335 0.345-0.659 0.533-0.972 0.105-0.147 0.152-0.293 0.141-0.439s0.057-0.22 0.204-0.22h0.063c0.063 0 0.115 0.010 0.157 0.031s0.063 0.068 0.063 0.141 0.021 0.12 0.063 0.141 0.115 0.031 0.22 0.031c0.293 0.021 0.58-0.063 0.862-0.251s0.486-0.46 0.611-0.815c0.167-0.46 0.251-0.899 0.251-1.317 0.042-0.711-0.241-1.213-0.847-1.505-0.125-0.063-0.271-0.188-0.439-0.376l-0.22-0.22c-0.105-0.063-0.261-0.146-0.47-0.251l-0.345-0.188c-0.209-0.105-0.492-0.303-0.847-0.596l-0.314-0.251c-0.147-0.125-0.366-0.324-0.658-0.596-0.209-0.209-0.371-0.377-0.486-0.502s-0.235-0.198-0.361-0.22c-0.188-0.021-0.334 0-0.439 0.063s-0.178 0.188-0.22 0.376c-0.083 0.293-0.251 0.48-0.502 0.564l-0.188-0.188c-0.313-0.293-0.512-0.543-0.596-0.753-0.042-0.125-0.178-0.303-0.408-0.533-0.125-0.125-0.209-0.219-0.251-0.282l-0.188-0.251c-0.627-0.899-1.129-1.547-1.505-1.944-0.23-0.251-0.554-0.648-0.972-1.192s-0.752-0.941-1.003-1.192l-0.376-0.47c-0.251-0.293-0.439-0.502-0.564-0.627-0.063-0.063-0.073-0.157-0.031-0.282 0.042-0.063 0.105-0.063 0.188 0l0.596 0.188c0.46 0.125 0.794 0.24 1.003 0.345 0 0.021 0.010 0.031 0.031 0.031 0.23-0.042 0.544-0 0.941 0.125 0.313 0.083 0.543 0.125 0.69 0.125 0.063 0 0.157 0.010 0.282 0.031l0.063 0.031c0.251 0.105 0.659 0.209 1.223 0.314 0.481 0.084 0.836 0.167 1.066 0.251 0.105 0.042 0.261 0.073 0.47 0.094 0.293 0.063 0.496 0.131 0.611 0.204s0.298 0.115 0.549 0.125c0.251 0.010 0.429 0.036 0.533 0.078 0.293 0.125 0.7 0.167 1.223 0.125h0.063c0.146 0 0.251 0.021 0.314 0.063l0.031 0.063c0.063 0.042 0.063 0.084 0 0.125-0.125 0.083-0.188 0.167-0.188 0.251s0.031 0.199 0.094 0.345c0.063 0.146 0.089 0.261 0.078 0.345s0.031 0.168 0.125 0.251c0.094 0.084 0.203 0.146 0.329 0.188s0.272 0.146 0.439 0.314l0.188 0.188c0.606 0.564 1.129 0.962 1.568 1.192 0.168 0.084 0.418 0.23 0.753 0.439 0.46 0.293 0.805 0.491 1.035 0.596 0.167 0.063 0.397 0.188 0.69 0.376l0.376 0.22c0.188 0.105 0.35 0.141 0.486 0.11s0.277-0.12 0.423-0.267c0.313-0.293 0.491-0.69 0.533-1.191v-0.596c0-0.105 0.037-0.178 0.11-0.22s0.152-0.026 0.235 0.047c0.084 0.073 0.22 0.173 0.408 0.298s0.325 0.23 0.408 0.314c0.168 0.125 0.418 0.293 0.753 0.502 0.272 0.167 0.471 0.293 0.596 0.376 0.209 0.146 0.528 0.334 0.956 0.564s0.736 0.412 0.925 0.549 0.461 0.33 0.815 0.58l0.596 0.408 0.188 0.22c0.105 0.168 0.198 0.272 0.282 0.314l0.753 0.627c0.083 0.084 0.146 0.136 0.188 0.157-0.063 0.188-0.141 0.324-0.235 0.408s-0.235 0.115-0.423 0.094c-0.188-0.021-0.366 0.031-0.533 0.157-0.125 0.084-0.261 0.22-0.408 0.408-0.188 0.251-0.512 0.585-0.972 1.003-0.335 0.335-0.805 0.857-1.411 1.568l-0.564 0.658c-0.209 0.209-0.461 0.575-0.753 1.097l-0.345 0.627c-0.272 0.418-0.502 0.711-0.69 0.878-0.105 0.083-0.22 0.23-0.345 0.439-0.105 0.167-0.198 0.293-0.282 0.376-1.003 1.066-2.038 2.132-3.104 3.198-0.146 0.125-0.377 0.272-0.69 0.439-0.251 0.125-0.434 0.225-0.549 0.298s-0.277 0.152-0.486 0.235c-0.293 0.125-0.502 0.24-0.627 0.345-0.083 0.042-0.209 0.073-0.376 0.094-0.125 0-0.219 0.010-0.282 0.031-0.564 0.146-1.359 0.199-2.383 0.157-0.083-0.021-0.125-0.063-0.125-0.125 0.042-0.021 0.094-0.031 0.157-0.031h0.157c0.105-0.063 0.162-0.12 0.172-0.172s-0.027-0.109-0.11-0.172c-0.084-0.063-0.173-0.052-0.267 0.031s-0.131 0.198-0.11 0.345zM19.426 7.806c0.042-0.146 0.042-0.282 0-0.408-0.042-0.083-0.116-0.209-0.22-0.376l-0.125-0.188c-0.083-0.105-0.157-0.162-0.22-0.172s-0.178 0.005-0.345 0.047c-0.209 0.083-0.372 0.136-0.486 0.157s-0.198 0.063-0.251 0.125-0.1 0.156-0.141 0.282l-0.063 0.157c-0.063 0.188-0.073 0.324-0.031 0.408l0.125 0.251c0.125 0.272 0.261 0.455 0.408 0.549s0.288 0.152 0.423 0.172 0.256-0.011 0.361-0.094l0.063-0.031c0.209-0.147 0.345-0.262 0.408-0.345 0.105-0.167 0.136-0.345 0.094-0.533zM25.635 7.556c0-0.083-0.032-0.136-0.094-0.157-0.147-0.042-0.23-0.011-0.251 0.094-0.021 0.042-0.021 0.079 0 0.11s0.052 0.047 0.094 0.047c0.147 0 0.23-0.031 0.251-0.094zM31.436 10.942c0-0.084-0.031-0.13-0.094-0.141s-0.136 0.026-0.22 0.11l-0.031 0.031c-0.021 0.063 0.021 0.094 0.125 0.094h0.063c0.105 0 0.157-0.031 0.157-0.094zM16.291 6.489c0.063 0 0.094-0.011 0.094-0.031-0.042-0.063-0.095-0.115-0.157-0.157l-0.031 0.031c-0.042 0.105-0.011 0.157 0.094 0.157zM19.27 15.394c-0.042 0-0.063 0.021-0.063 0.063l0.031 0.125c0.063 0 0.094-0.042 0.094-0.125zM1.115 26.996c0-0.147 0.052-0.272 0.157-0.376 0.063-0.063 0.168-0.136 0.314-0.22 0.523-0.376 0.941-0.721 1.254-1.035 0.188-0.188 0.429-0.491 0.721-0.909l0.125-0.157c0.209-0.23 0.366-0.397 0.47-0.502l0.188-0.188c0.23-0.251 0.376-0.449 0.439-0.596 0.084-0.209 0.293-0.46 0.627-0.753 0.146-0.125 0.324-0.345 0.533-0.658 0.188-0.272 0.345-0.471 0.47-0.596 0.168-0.188 0.397-0.48 0.69-0.878 0.355-0.481 0.627-0.826 0.815-1.035l0.219-0.251c0.878-0.983 1.484-1.746 1.819-2.289v-0.063c0.23-0.23 0.518-0.606 0.862-1.129s0.622-0.888 0.831-1.097c0.125-0.147 0.282-0.398 0.47-0.753l0.188-0.345c0.23-0.397 0.627-0.951 1.191-1.662l0.345-0.439c0.376-0.523 0.763-0.951 1.16-1.286 0.083-0.083 0.188-0.23 0.314-0.439l0.094 0.031c0.125 0.021 0.209 0.052 0.251 0.094 0.167 0.168 0.46 0.387 0.878 0.658 0.293 0.167 0.502 0.298 0.627 0.392s0.277 0.246 0.455 0.455c0.178 0.209 0.314 0.35 0.408 0.423s0.136 0.13 0.125 0.172c-0.011 0.042-0.068 0.095-0.172 0.157l-0.157 0.063c-0.084 0.209-0.271 0.481-0.564 0.815s-0.491 0.606-0.596 0.815c-0.167 0.335-0.47 0.784-0.909 1.348l-0.282 0.345c-0.063 0.084-0.167 0.198-0.314 0.345l-0.188 0.22-0.376 0.47c-0.585 0.69-1.003 1.213-1.254 1.568l-0.063 0.063c-0.335 0.481-0.617 0.795-0.847 0.941l-0.314 0.314-0.502 0.69c-0.502 0.731-0.91 1.243-1.223 1.536-0.209 0.376-0.565 0.92-1.066 1.631-0.397 0.543-0.68 0.961-0.847 1.254-0.105 0.188-0.272 0.465-0.502 0.831s-0.397 0.643-0.502 0.831l-0.345 0.596c-0.418 0.711-0.7 1.254-0.847 1.631-0.063 0.188-0.178 0.439-0.345 0.753-0.293 0.606-0.46 1.076-0.502 1.411-0.105 0.105-0.198 0.293-0.282 0.564-0.042 0.209-0.094 0.355-0.157 0.439-0.083 0.167-0.157 0.293-0.22 0.376-0.23 0.188-0.428 0.198-0.596 0.031-0.23-0.23-0.638-0.512-1.223-0.847-0.314-0.188-0.543-0.334-0.69-0.439l-0.157-0.094c-0.167-0.105-0.293-0.199-0.376-0.282-0.147-0.147-0.387-0.366-0.721-0.658-0.376-0.293-0.643-0.528-0.8-0.706s-0.231-0.361-0.22-0.549c0.011-0.188 0.1-0.355 0.267-0.502 0.147-0.188 0.262-0.314 0.345-0.376 0.147-0.125 0.314-0.178 0.502-0.157 0.042 0.083 0.073 0.125 0.094 0.125 0.084 0 0.125-0.010 0.125-0.031 0.021-0.063-0.011-0.094-0.094-0.094-0.021-0.021-0.052-0.021-0.094 0h-0.031zM4.689 29.787c-0.272 0.313-0.408 0.522-0.408 0.627s0.011 0.167 0.031 0.188c0.021 0.021 0.052 0.036 0.094 0.047s0.073 0.005 0.094-0.016c0.083-0.020 0.157-0.062 0.22-0.125s0.105-0.136 0.125-0.22c0.125-0.209 0.073-0.377-0.157-0.502zM22.719 5.831h-0.188c-0.167 0-0.277 0.021-0.329 0.063s-0.068 0.146-0.047 0.314l0.031 0.063c0.021 0.063 0.005 0.12-0.047 0.172s-0.13 0.047-0.235-0.016c-0.105-0.063-0.251-0.136-0.439-0.22-0.376-0.188-0.627-0.376-0.753-0.564-0.168-0.042-0.324-0.136-0.47-0.282-0.084-0.083-0.198-0.219-0.345-0.408-0.25-0.313-0.459-0.522-0.627-0.627-0.105-0.063-0.115-0.136-0.031-0.22l0.564-0.69c0.167-0.167 0.339-0.241 0.517-0.22s0.392-0.053 0.643-0.22l0.063-0.063c0.648-0.418 1.599-1.066 2.853-1.944l0.031-0.031c0.125-0.083 0.209-0.146 0.251-0.188 0.083-0.083 0.125-0.188 0.125-0.314s0.037-0.178 0.11-0.157c0.073 0.022 0.136 0.058 0.188 0.11s0.068 0.104 0.047 0.157c-0.021 0.053-0.041 0.131-0.063 0.235s-0.053 0.188-0.094 0.251c-0.167 0.23-0.345 0.606-0.533 1.129-0.125 0.313-0.22 0.543-0.282 0.69-0.146 0.272-0.272 0.554-0.376 0.847l-0.063 0.125c-0.105 0.335-0.167 0.586-0.188 0.753-0.042 0.293-0 0.554 0.125 0.784v0.063c0 0.209-0.021 0.335-0.063 0.376s-0.168 0.052-0.376 0.031z"></path>
</svg>
