<!-- Generated by IcoMoon.io -->
<svg version="1.1" xmlns="http://www.w3.org/2000/svg" width="512" height="512" viewBox="0 0 512 512">
<title>monsters-of-order</title>
<g id="icomoon-ignore">
</g>
<path d="M492.64 104.368c-0.336-1.024-0.848-2.384-1.536-4.096-4.080-11.248-8-19.424-11.76-24.544-20.448-24.208-44.64-41.744-72.592-52.656l-11.76-3.584c-7.152-2.384-12.448-4.256-15.856-5.616-5.792-2.4-10.736-5.12-14.832-8.176-1.712-1.36-4.256-2.56-7.664-3.584l-4.096-1.024c-4.432-1.36-7.488-1.456-9.2-0.256s-1.968 4.176-0.768 8.944c1.2 4.768 1.12 8.608-0.256 11.504s-4.256 4.864-8.688 5.872c-14.32 2.736-25.056 4.272-32.208 4.608-12.272 0.336-30.496 0.176-54.704-0.512l-21.472-0.512c-8.176 0-14.32-0.176-18.4-0.512-6.48-0.688-12.432-1.888-17.888-3.584-3.744-1.024-6.56-2.56-8.432-4.608s-2.816-4.944-2.816-8.688-1.2-6.304-3.584-7.664c-2.384-1.376-5.632-1.376-9.712 0-2.4 0.336-5.808 1.36-10.224 3.072l-2.56 1.024c-5.104 1.712-12.432 5.12-21.984 10.224-8.528 4.768-15.008 8-19.424 9.712-12.944 4.432-22.496 9.376-28.624 14.832-9.2 7.504-18.064 17.040-26.592 28.624-4.768 6.816-11.584 17.728-20.448 32.72-6.144 9.888-10.736 17.216-13.808 21.984-2.048 2.72-2.56 5.376-1.536 7.92s3.744 3.312 8.176 2.304c3.072-0.688 5.12-0.512 6.128 0.512s1.52 2.896 1.536 5.616c0 43.28 5.968 82.816 17.888 118.608 5.456 17.728 10.56 32.208 15.344 43.456 6.48 15.344 13.808 28.8 21.984 40.384 3.408 5.456 6.816 9.2 10.224 11.248 1.376 1.024 2.816 1.632 4.352 1.792s3.072-0.176 4.608-1.024c1.536-0.848 2.304-1.872 2.304-3.072s-0.336-2.656-1.024-4.352l-0.512-1.024c-1.376-5.792-2.048-12.432-2.048-19.936v-7.664c0.688-20.784 1.888-36.64 3.584-47.552l2.048-11.248c5.792-30.336 10.912-53.008 15.344-68 1.376-4.432 3.744-11.072 7.152-19.936 3.744-10.224 6.464-17.904 8.176-23.008 2.736-8.864 4.256-17.040 4.608-24.544 0.336-4.080 0.512-10.048 0.512-17.888 0-5.104 2.208-7.824 6.64-8.176 2.048-0.336 3.424 0 4.096 1.024s1.2 2.56 1.536 4.608l0.512 1.536c2.736 9.2 3.76 18.912 3.072 29.136-0.336 8.864 1.2 18.224 4.608 28.112 2.048 6.128 5.968 14.992 11.76 26.592 2.736 5.792 6.816 8.176 12.272 7.152 2.4-0.336 4.096-1.376 5.12-3.072 0.688-1.024 1.36-2.896 2.048-5.616l2.56-12.272c2.048-8.528 3.584-14.832 4.608-18.912 2.048-6.816 4.608-12.768 7.664-17.888 0.688-1.36 1.376-3.824 2.048-7.408s1.36-6.048 2.048-7.408c1.024-2.4 2.816-3.584 5.376-3.584s4.512 1.024 5.872 3.072c1.024 1.024 2.048 3.152 3.072 6.384s1.872 5.536 2.56 6.896l1.024 1.536c1.024 2.384 2.048 4.096 3.072 5.12 1.712 1.712 3.744 2.48 6.128 2.304s4.688-1.024 6.896-2.56c2.224-1.536 3.92-3.408 5.12-5.616s2.48-5.696 3.84-10.48v-0.512c1.024-3.072 2.048-5.28 3.072-6.64 1.36-2.048 3.248-2.896 5.632-2.56s3.92 1.536 4.608 3.584c0.688 1.024 1.2 3.056 1.536 6.128v1.536c0.336 1.712 0.336 4.432 0 8.176v12.272c0 11.584 0.176 20.368 0.512 26.336s1.968 10.064 4.864 12.272c2.896 2.208 7.584 3.312 14.064 3.328 4.080 0 7.664-1.36 10.736-4.096 1.712-1.712 3.744-4.608 6.128-8.688 3.072-5.12 7.84-12.272 14.32-21.472 11.248-16.704 18.912-29.648 23.008-38.848 1.712-3.424 3.664-5.632 5.872-6.64s4.336 0.352 6.384 4.096c3.76 6.48 6.48 12.096 8.176 16.864 2.048 6.48 3.248 12.864 3.584 19.168s0.688 16.096 1.024 29.392c0.336 13.296 0.688 23.344 1.024 30.16 0.336 10.576 0.176 22.336-0.512 35.28l-3.072 35.28c-2.048 17.376-3.248 30.336-3.584 38.848l-0.512 4.096c-0.688 3.408-0.864 5.792-0.512 7.152 0 2.048 1.024 3.76 3.072 5.12 2.736 1.712 5.456 2.048 8.176 1.024 1.712-0.336 4.096-1.712 7.152-4.096l1.536-1.536c2.048-1.376 4.432-4.096 7.152-8.176 5.104-6.816 11.152-17.888 18.144-33.232s13.024-26.672 18.144-34c5.104-7.328 10.048-16.288 14.832-26.848 3.408-7.152 7.328-16.864 11.76-29.136l0.512-2.048c1.024-2.72 2.56-8.352 4.608-16.864l3.584-15.856c2.736-10.576 4.096-24.544 4.096-41.92 0-5.104 1.024-8.944 3.072-11.504s5.632-3.664 10.736-3.328c2.736 0 4.768-0.688 6.128-2.048s1.52-3.568 0.512-6.64zM430.784 252.64c-0.336 0.336-1.024 0.592-2.048 0.768l-1.536 0.256c-0.688-2.048-1.024-3.584-1.024-4.608 0.336-3.072 1.376-6.32 3.072-9.712 1.024-2.048 2.64-4.848 4.864-8.432s3.84-6.208 4.864-7.92c0.336-0.688 0.848-1.2 1.536-1.536s1.28-0.256 1.792 0.256c0.512 0.512 0.944 1.104 1.28 1.792l1.024 2.048c-4.768 9.888-9.376 18.928-13.808 27.104zM460.944 180.544l-4.096 12.784c-0.336 1.024-0.848 2.736-1.536 5.12-1.024 3.744-2.384 6.464-4.096 8.176l-1.024 1.536c-0.688 1.024-1.376 1.712-2.048 2.048s-1.536 0.336-2.56 0c-2.048-1.024-2.384-3.056-1.024-6.128l6.64-19.936c1.024-4.432 3.584-6.464 7.664-6.128h1.024c0.688 0.688 1.024 1.36 1.024 2.048v0.512zM462.48 411.136c0-0.336-0.176-1.024-0.512-2.048l-0.512-1.536-1.536-3.072c-6.128-12.608-10.56-22.144-13.296-28.624-4.080-10.912-6.64-21.136-7.664-30.672 0-1.024-0.336-2.224-1.024-3.584-1.024-2.384-2.896-3.584-5.632-3.584-2.048 0.336-3.072 1.872-3.072 4.608-0.688 10.224-2.72 20.96-6.128 32.208-2.736 8.176-6.656 18.4-11.76 30.672-3.408 7.488-6.736 12.688-9.968 15.6s-7.664 4.352-13.296 4.352-10.144-1.456-13.552-4.352c-3.392-2.912-6.288-8.112-8.688-15.6-3.744-11.92-8.688-29.648-14.832-53.168l-5.632-22.496c-3.408-15.68-6.48-27.264-9.2-34.768-4.080-12.944-9.2-24.032-15.344-33.232-0.688-0.688-1.36-1.968-2.048-3.84s-1.36-3.248-2.048-4.096c-0.688-0.848-1.888-1.12-3.584-0.768s-2.816 1.2-3.328 2.56c-0.512 1.376-0.608 3.408-0.256 6.128v2.56c0 4.768 0.256 12.016 0.768 21.728s0.768 17.136 0.768 22.24c-0.336 7.504-0.848 18.576-1.536 33.232-1.024 16.032-1.712 27.952-2.048 35.792-0.336 13.296 0 25.232 1.024 35.792 1.36 5.792-0.336 9.2-5.12 10.224-2.048 0.336-3.504 0-4.352-1.024s-1.456-2.736-1.792-5.12l-0.512-2.56c-1.024-4.432-2.048-10.896-3.072-19.424l-1.536-10.736c-0.336-2.72-0.848-4.768-1.536-6.128s-2.224-2.208-4.608-2.56c-2.4-0.352-4.272 0.512-5.632 2.56-0.688 1.024-1.36 3.072-2.048 6.128-1.024 4.432-2.896 7.664-5.632 9.712s-6.48 3.424-11.248 4.096c-4.080 0.688-7.488 0-10.224-2.048-1.712-1.712-3.568-4.432-5.616-8.176l-0.512-1.024c-1.376-2.736-2.56-4.608-3.584-5.632-1.712-1.712-3.824-2.56-6.384-2.56s-4.688 0.848-6.384 2.56c-1.024 1.36-2.224 3.584-3.584 6.64l-0.512 0.512c-1.36 2.736-3.152 7.088-5.376 13.040s-4.016 10.304-5.376 13.040c-2.4 5.456-5.968 8-10.736 7.664-2.384-0.336-4.256-1.28-5.616-2.816s-2.544-3.664-3.584-6.384c-3.744-13.632-5.28-30.672-4.608-51.12v-7.664c0.336-12.608 0.512-22.144 0.512-28.624 0-10.576-0.688-20.112-2.048-28.624-1.712-9.536-1.376-18.576 1.024-27.104l0.512-1.024c1.024-3.76 1.536-6.48 1.536-8.176 0-3.424-1.2-5.456-3.584-6.128s-4.432-0.336-6.128 1.024c-1.024 0.688-2.304 2.224-3.84 4.608s-2.64 3.92-3.328 4.608c-0.688 0.688-1.024 1.376-1.024 2.048-3.744 9.2-9.888 23.008-18.4 41.408-8.528 18.736-14.656 33.056-18.4 42.944-6.48 16.032-10.912 31.024-13.296 44.992-1.024 6.816-3.824 13.632-8.432 20.448s-9.2 10.224-13.808 10.224-8.96-3.408-13.040-10.224c-3.424-5.456-6.656-14.32-9.712-26.592l-2.56-9.2c-0.688-2.384-1.36-5.968-2.048-10.736-1.36-6.816-2.56-11.936-3.584-15.344-2.048-5.104-4.944-9.28-8.688-12.528s-6.56-4.688-8.432-4.352c-1.888 0.336-4 2.72-6.384 7.152-3.072 5.792-6.656 14.992-10.736 27.616-2.736 9.552-5.12 16.544-7.152 20.96-3.072 8.528-3.408 16.88-1.024 25.056 1.376 5.104 4.944 12.096 10.736 20.96 2.736 4.768 6.32 9.376 10.736 13.808 2.736 2.736 7.168 6.48 13.296 11.248 7.504 6.128 12.96 10.912 16.368 14.32 10.224 11.248 20.624 20.112 31.184 26.592 4.080 2.736 7.744 4.016 10.992 3.84s6.912-1.792 10.992-4.864c7.152-6.816 13.632-12.112 19.424-15.856 7.504-5.12 14.832-8.688 21.984-10.736 16.032-4.768 30.336-8.176 42.944-10.224 15.344-2.384 30.176-3.072 44.48-2.048s26.24 3.744 35.792 8.176c11.248 5.104 20.608 13.12 28.112 24.032 3.76 6.128 6.912 10.144 9.456 12.016s5.184 2.4 7.92 1.536 7.168-3.152 13.296-6.896c4.080-2.736 10.56-5.808 19.424-9.2 7.152-2.736 12.448-4.944 15.856-6.64 21.472-12.608 42.944-27.6 64.416-44.992 6.48-5.12 11.424-11.76 14.832-19.936 1.024-2.048 1.28-3.584 0.768-4.608s-1.888-2.304-4.096-3.84-3.504-2.992-3.84-4.352zM103.056 438.224c-1.024 0.336-1.872 0.256-2.56-0.256s-0.944-1.024-0.768-1.536c0.176-0.512 0.592-1.024 1.28-1.536s1.2-0.768 1.536-0.768 1.024 0.176 2.048 0.512l2.56 1.536z"></path>
</svg>
