<!-- Generated by IcoMoon.io -->
<svg version="1.1" xmlns="http://www.w3.org/2000/svg" width="512" height="512" viewBox="0 0 512 512">
<title>monsters-of-order</title>
<g id="icomoon-ignore">
</g>
<path d="M262.656 373.232c-9.36-0.672-17.552-2.512-24.576-5.52-2.688-1.328-7.2-2.336-13.552-3.008h-1.008c-0.336-0.336-0.912-0.496-1.76-0.496h-1.76l-3.008-1.008c-3.344-1.328-5.2-2.512-5.52-3.52-1.344-2-2.672-5.344-4.016-10.032l-1.008-3.008c0-0.672 0.496-1.504 1.504-2.512l0.496-0.496c6.016-9.696 13.376-19.728 22.080-30.096l30.608-37.632c3.344-4.016 7.2-9.536 11.536-16.56 2.672-5.36 5.52-10.544 8.528-15.552 1.68-2.352 2.432-4.688 2.256-7.024s0.912-3.52 3.264-3.52h1.008c1.008 0 1.84 0.16 2.512 0.496s1.008 1.088 1.008 2.256 0.336 1.92 1.008 2.256 1.84 0.496 3.52 0.496c4.688 0.336 9.28-1.008 13.792-4.016s7.776-7.36 9.776-13.040c2.672-7.36 4.016-14.384 4.016-21.072 0.672-11.376-3.856-19.408-13.552-24.080-2-1.008-4.336-3.008-7.024-6.016l-3.52-3.52c-1.68-1.008-4.176-2.336-7.52-4.016l-5.52-3.008c-3.344-1.68-7.872-4.848-13.552-9.536l-5.024-4.016c-2.352-2-5.856-5.184-10.528-9.536-3.344-3.344-5.936-6.032-7.776-8.032s-3.76-3.168-5.776-3.52c-3.008-0.336-5.344 0-7.024 1.008s-2.848 3.008-3.52 6.016c-1.328 4.688-4.016 7.68-8.032 9.024l-3.008-3.008c-5.008-4.688-8.192-8.688-9.536-12.048-0.672-2-2.848-4.848-6.528-8.528-2-2-3.344-3.504-4.016-4.512l-3.008-4.016c-10.032-14.384-18.064-24.752-24.080-31.104-3.68-4.016-8.864-10.368-15.552-19.072s-12.032-15.056-16.048-19.072l-6.016-7.52c-4.016-4.688-7.024-8.032-9.024-10.032-1.008-1.008-1.168-2.512-0.496-4.512 0.672-1.008 1.68-1.008 3.008 0l9.536 3.008c7.36 2 12.704 3.84 16.048 5.52 0 0.336 0.16 0.496 0.496 0.496 3.68-0.672 8.704 0 15.056 2 5.008 1.328 8.688 2 11.040 2 1.008 0 2.512 0.16 4.512 0.496l1.008 0.496c4.016 1.68 10.544 3.344 19.568 5.024 7.696 1.344 13.376 2.672 17.056 4.016 1.68 0.672 4.176 1.168 7.52 1.504 4.688 1.008 7.936 2.096 9.776 3.264s4.768 1.84 8.784 2c4.016 0.16 6.864 0.576 8.528 1.248 4.688 2 11.2 2.672 19.568 2h1.008c2.336 0 4.016 0.336 5.024 1.008l0.496 1.008c1.008 0.672 1.008 1.344 0 2-2 1.328-3.008 2.672-3.008 4.016s0.496 3.184 1.504 5.52c1.008 2.336 1.424 4.176 1.248 5.52s0.496 2.688 2 4.016c1.504 1.344 3.248 2.336 5.264 3.008s4.352 2.336 7.024 5.024l3.008 3.008c9.696 9.024 18.064 15.392 25.088 19.072 2.688 1.344 6.688 3.68 12.048 7.024 7.36 4.688 12.88 7.856 16.56 9.536 2.672 1.008 6.352 3.008 11.040 6.016l6.016 3.52c3.008 1.68 5.6 2.256 7.776 1.76s4.432-1.92 6.768-4.272c5.008-4.688 7.856-11.040 8.528-19.056v-9.536c0-1.68 0.592-2.848 1.76-3.52s2.432-0.416 3.76 0.752c1.344 1.168 3.52 2.768 6.528 4.768s5.2 3.68 6.528 5.024c2.688 2 6.688 4.688 12.048 8.032 4.352 2.672 7.536 4.688 9.536 6.016 3.344 2.336 8.448 5.344 15.296 9.024s11.776 6.592 14.8 8.784 7.376 5.28 13.040 9.28l9.536 6.528 3.008 3.52c1.68 2.688 3.168 4.352 4.512 5.024l12.048 10.032c1.328 1.344 2.336 2.176 3.008 2.512-1.008 3.008-2.256 5.184-3.76 6.528s-3.76 1.84-6.768 1.504c-3.008-0.336-5.856 0.496-8.528 2.512-2 1.344-4.176 3.52-6.528 6.528-3.008 4.016-8.192 9.36-15.552 16.048-5.36 5.36-12.88 13.712-22.576 25.088l-9.024 10.528c-3.344 3.344-7.376 9.2-12.048 17.552l-5.52 10.032c-4.352 6.688-8.032 11.376-11.040 14.048-1.68 1.328-3.52 3.68-5.52 7.024-1.68 2.672-3.168 4.688-4.512 6.016-16.048 17.056-32.608 34.112-49.664 51.168-2.336 2-6.032 4.352-11.040 7.024-4.016 2-6.944 3.6-8.784 4.768s-4.432 2.432-7.776 3.76c-4.688 2-8.032 3.84-10.032 5.52-1.328 0.672-3.344 1.168-6.016 1.504-2 0-3.504 0.16-4.512 0.496-9.024 2.336-21.744 3.184-38.128 2.512-1.328-0.336-2-1.008-2-2 0.672-0.336 1.504-0.496 2.512-0.496h2.512c1.68-1.008 2.592-1.92 2.752-2.752s-0.432-1.744-1.76-2.752c-1.344-1.008-2.768-0.832-4.272 0.496s-2.096 3.168-1.76 5.52zM310.816 124.896c0.672-2.336 0.672-4.512 0-6.528-0.672-1.328-1.856-3.344-3.52-6.016l-2-3.008c-1.328-1.68-2.512-2.592-3.52-2.752s-2.848 0.080-5.52 0.752c-3.344 1.328-5.952 2.176-7.776 2.512s-3.168 1.008-4.016 2-1.6 2.496-2.256 4.512l-1.008 2.512c-1.008 3.008-1.168 5.184-0.496 6.528l2 4.016c2 4.352 4.176 7.28 6.528 8.784s4.608 2.432 6.768 2.752 4.096-0.176 5.776-1.504l1.008-0.496c3.344-2.352 5.52-4.192 6.528-5.52 1.68-2.672 2.176-5.52 1.504-8.528zM410.16 120.896c0-1.328-0.512-2.176-1.504-2.512-2.352-0.672-3.68-0.176-4.016 1.504-0.336 0.672-0.336 1.264 0 1.76s0.832 0.752 1.504 0.752c2.352 0 3.68-0.496 4.016-1.504zM502.976 175.072c0-1.344-0.496-2.080-1.504-2.256s-2.176 0.416-3.52 1.76l-0.496 0.496c-0.336 1.008 0.336 1.504 2 1.504h1.008c1.68 0 2.512-0.496 2.512-1.504zM260.656 103.824c1.008 0 1.504-0.176 1.504-0.496-0.672-1.008-1.52-1.84-2.512-2.512l-0.496 0.496c-0.672 1.68-0.176 2.512 1.504 2.512zM308.32 246.304c-0.672 0-1.008 0.336-1.008 1.008l0.496 2c1.008 0 1.504-0.672 1.504-2zM17.84 431.936c0-2.352 0.832-4.352 2.512-6.016 1.008-1.008 2.688-2.176 5.024-3.52 8.368-6.016 15.056-11.536 20.064-16.56 3.008-3.008 6.864-7.856 11.536-14.544l2-2.512c3.344-3.68 5.856-6.352 7.52-8.032l3.008-3.008c3.68-4.016 6.016-7.184 7.024-9.536 1.344-3.344 4.688-7.36 10.032-12.048 2.336-2 5.184-5.52 8.528-10.528 3.008-4.352 5.52-7.536 7.52-9.536 2.688-3.008 6.352-7.68 11.040-14.048 5.68-7.696 10.032-13.216 13.040-16.56l3.504-4.016c14.048-15.728 23.744-27.936 29.104-36.624v-1.008c3.68-3.68 8.288-9.696 13.792-18.064s9.952-14.208 13.296-17.552c2-2.352 4.512-6.368 7.52-12.048l3.008-5.52c3.68-6.352 10.032-15.216 19.056-26.592l5.52-7.024c6.016-8.368 12.208-15.216 18.56-20.576 1.328-1.328 3.008-3.68 5.024-7.024l1.504 0.496c2 0.336 3.344 0.832 4.016 1.504 2.672 2.688 7.36 6.192 14.048 10.528 4.688 2.672 8.032 4.768 10.032 6.272s4.432 3.936 7.28 7.28c2.848 3.344 5.024 5.6 6.528 6.768s2.176 2.080 2 2.752c-0.176 0.672-1.088 1.52-2.752 2.512l-2.512 1.008c-1.344 3.344-4.336 7.696-9.024 13.040s-7.856 9.696-9.536 13.040c-2.672 5.36-7.52 12.544-14.544 21.568l-4.512 5.52c-1.008 1.344-2.672 3.168-5.024 5.52l-3.008 3.52-6.016 7.52c-9.36 11.040-16.048 19.408-20.064 25.088l-1.008 1.008c-5.36 7.696-9.872 12.72-13.552 15.056l-5.024 5.024-8.032 11.040c-8.032 11.696-14.56 19.888-19.568 24.576-3.344 6.016-9.040 14.72-17.056 26.096-6.352 8.688-10.88 15.376-13.552 20.064-1.68 3.008-4.352 7.44-8.032 13.296s-6.352 10.288-8.032 13.296l-5.52 9.536c-6.688 11.376-11.2 20.064-13.552 26.096-1.008 3.008-2.848 7.024-5.52 12.048-4.688 9.696-7.36 17.216-8.032 22.576-1.68 1.68-3.168 4.688-4.512 9.024-0.672 3.344-1.504 5.68-2.512 7.024-1.328 2.672-2.512 4.688-3.52 6.016-3.68 3.008-6.848 3.168-9.536 0.496-3.68-3.68-10.208-8.192-19.568-13.552-5.024-3.008-8.688-5.344-11.040-7.024l-2.512-1.504c-2.672-1.68-4.688-3.184-6.016-4.512-2.352-2.352-6.192-5.856-11.536-10.528-6.016-4.688-10.288-8.448-12.8-11.296s-3.696-5.776-3.52-8.784c0.176-3.008 1.6-5.68 4.272-8.032 2.352-3.008 4.192-5.024 5.52-6.016 2.352-2 5.024-2.848 8.032-2.512 0.672 1.328 1.168 2 1.504 2 1.344 0 2-0.16 2-0.496 0.336-1.008-0.176-1.504-1.504-1.504-0.336-0.336-0.832-0.336-1.504 0h-0.496zM75.024 476.592c-4.352 5.008-6.528 8.352-6.528 10.032s0.176 2.672 0.496 3.008c0.336 0.336 0.832 0.576 1.504 0.752s1.168 0.080 1.504-0.256c1.328-0.32 2.512-0.992 3.52-2s1.68-2.176 2-3.52c2-3.344 1.168-6.032-2.512-8.032zM363.504 93.296h-3.008c-2.672 0-4.432 0.336-5.264 1.008s-1.088 2.336-0.752 5.024l0.496 1.008c0.336 1.008 0.080 1.92-0.752 2.752s-2.080 0.752-3.76-0.256c-1.68-1.008-4.016-2.176-7.024-3.52-6.016-3.008-10.032-6.016-12.048-9.024-2.688-0.672-5.184-2.176-7.52-4.512-1.344-1.328-3.168-3.504-5.52-6.528-4-5.008-7.344-8.352-10.032-10.032-1.68-1.008-1.84-2.176-0.496-3.52l9.024-11.040c2.672-2.672 5.424-3.856 8.272-3.52s6.272-0.848 10.288-3.52l1.008-1.008c10.368-6.688 25.584-17.056 45.648-31.104l0.496-0.496c2-1.328 3.344-2.336 4.016-3.008 1.328-1.328 2-3.008 2-5.024s0.592-2.848 1.76-2.512c1.168 0.352 2.176 0.928 3.008 1.76s1.088 1.664 0.752 2.512c-0.336 0.848-0.656 2.096-1.008 3.76s-0.848 3.008-1.504 4.016c-2.672 3.68-5.52 9.696-8.528 18.064-2 5.008-3.52 8.688-4.512 11.040-2.336 4.352-4.352 8.864-6.016 13.552l-1.008 2c-1.68 5.36-2.672 9.376-3.008 12.048-0.672 4.688 0 8.864 2 12.544v1.008c0 3.344-0.336 5.36-1.008 6.016s-2.688 0.832-6.016 0.496z"></path>
</svg>
