<!-- Generated by IcoMoon.io -->
<svg version="1.1" xmlns="http://www.w3.org/2000/svg" width="32" height="32" viewBox="0 0 32 32">
<title>beasts-of-chaos-ally</title>
<path fill="#fff" d="M24.74 20.082c0.176-0.227 0.276-0.497 0.413-0.745 0.072-0.13 0.139-0.265 0.192-0.403 0.123-0.322 0.289-0.628 0.354-0.973 0.022-0.117 0.099-0.224 0.133-0.341 0.123-0.423 0.231-0.85 0.358-1.272 0.121-0.402 0.224-0.807 0.272-1.225 0.026-0.229 0.204-0.39 0.304-0.588 0.006-0.011 0.019-0.020 0.031-0.026 0.193-0.1 0.377-0.238 0.582-0.289 0.244-0.061 0.457-0.166 0.667-0.29 0.117-0.070 0.23-0.146 0.349-0.211 0.113-0.062 0.231-0.116 0.348-0.167 0.088-0.038 0.18-0.068 0.289-0.108-0.265-0.159-0.524-0.217-0.799-0.214-0.059 0.001-0.116-0.025-0.175-0.037s-0.117-0.033-0.176-0.035c-0.109-0.006-0.218-0.005-0.327 0.002-0.105 0.007-0.197-0.018-0.288-0.074-0.139-0.084-0.28-0.158-0.453-0.165-0.137-0.005-0.197 0.029-0.231-0.103-0.005-0.019-0.009-0.036-0.015-0.055-0.354 0.079-0.826 0.342-1.156 0.61 0.027 0.142 0.043 0.058 0.036 0.205-0.007 0.168 0.020 0.34-0.068 0.498-0.009 0.017-0.011 0.039-0.013 0.060-0.027 0.31-0.053 0.62-0.082 0.93-0.008 0.088-0.028 0.173-0.042 0.261-0.029 0.18-0.036 0.367-0.090 0.538-0.113 0.361-0.097 0.757-0.294 1.095-0.014 0.023-0.027 0.048-0.032 0.075-0.096 0.535-0.399 0.988-0.588 1.486-0.075 0.199-0.216 0.375-0.327 0.56-0.018 0.029-0.048 0.055-0.054 0.086-0.061 0.28-0.252 0.494-0.371 0.744-0.046 0.096-0.112 0.188-0.185 0.266-0.27 0.286-0.545 0.567-0.823 0.846-0.090 0.090-0.107 0.108-0.205 0.192-0.002 0.002-0.004 0.004-0.007 0.006 0.26 0.324 0.51 0.62 0.732 0.756 0.146-0.145 0.286-0.294 0.421-0.434 0.091 0.013 0.172 0.040 0.251 0.033 0.241-0.020 0.452 0.072 0.664 0.161 0.069 0.029 0.14 0.055 0.206 0.089 0.157 0.083 0.284 0.042 0.394-0.086-0.010-0.030-0.014-0.060-0.030-0.080-0.213-0.27-0.3-0.607-0.47-0.9-0.058-0.099-0.056-0.189 0.016-0.282 0.099-0.129 0.188-0.264 0.287-0.392z"></path>
<path fill="#fff" d="M8.704 8.392c0.021-0.040 0.048-0.082 0.083-0.109 0.314-0.237 0.622-0.478 0.893-0.766 0.119-0.127 0.272-0.224 0.41-0.333 0.102-0.079 0.207-0.153 0.305-0.237 0.143-0.125 0.285-0.24 0.469-0.315 0.152-0.062 0.29-0.177 0.412-0.293 0.114-0.105 0.233-0.183 0.381-0.216 0.162-0.036 0.297-0.122 0.442-0.198 0.293-0.155 0.603-0.28 0.906-0.417 0.148-0.067 0.297-0.131 0.444-0.199 0.086-0.040 0.166-0.099 0.255-0.126 0.378-0.116 0.718-0.311 1.071-0.482 0.27-0.13 0.559-0.203 0.861-0.21 0.211-0.004 0.421-0.001 0.633-0.002 0.129 0 0.252-0.034 0.376-0.053 0.277-0.045 0.556-0.072 0.835 0.068 0.244 0.123 0.511 0.216 0.796 0.212 0.13-0.002 0.259 0.010 0.389 0.005 0.195-0.009 0.367 0.056 0.55 0.115 0.204 0.065 0.377 0.157 0.545 0.286 0.126 0.097 0.289 0.147 0.434 0.217 0.007 0.004 0.014 0.008 0.020 0.007 0.26-0.045 0.442 0.139 0.652 0.232 0.128 0.057 0.251 0.137 0.355 0.23 0.346 0.307 0.68 0.627 1.021 0.94 0.12 0.11 0.244 0.214 0.367 0.321 0.020 0.018 0.041 0.043 0.064 0.049 0.213 0.056 0.317 0.249 0.471 0.376 0.056 0.047 0.106 0.113 0.131 0.18 0.081 0.218 0.238 0.376 0.396 0.533 0.029 0.028 0.056 0.060 0.077 0.094 0.088 0.143 0.149 0.254 0.238 0.399 0.386-0.132 0.681-0.294 0.901-0.443-0.040-0.054-0.050-0.075-0.090-0.13-0.064-0.087-0.129-0.173-0.194-0.259-0.215-0.28-0.446-0.549-0.593-0.876-0.087-0.194-0.088-0.362 0.044-0.552 0.166-0.239 0.294-0.504 0.431-0.761 0.048-0.092-0.011-0.18-0.116-0.181-0.045 0-0.093 0.018-0.134 0.038-0.253 0.129-0.512 0.247-0.735 0.43-0.056 0.045-0.13 0.067-0.203 0.103-0.052-0.044-0.098-0.084-0.146-0.12-0.264-0.198-0.48-0.461-0.811-0.567-0.099-0.032-0.195-0.104-0.268-0.181-0.271-0.28-0.616-0.435-0.959-0.599-0.207-0.099-0.45-0.12-0.624-0.286-0.12-0.115-0.261-0.19-0.416-0.25-0.138-0.054-0.28-0.112-0.401-0.195-0.271-0.187-0.571-0.294-0.893-0.298-0.28-0.003-0.553-0.023-0.826-0.088-0.171-0.040-0.351-0.044-0.52-0.092-0.132-0.038-0.259-0.065-0.398-0.060-0.175 0.007-0.239-0.048-0.263-0.213-0.035-0.233-0.051-0.469-0.096-0.7-0.034-0.172-0.054-0.343-0.067-0.517-0.007-0.095-0.070-0.186-0.108-0.28-0.020-0.050-0.050-0.099-0.060-0.15-0.034-0.187-0.053-0.377-0.093-0.563-0.061-0.284-0.134-0.567-0.204-0.851-0.006-0.022-0.025-0.042-0.037-0.063-0.020 0.011-0.040 0.016-0.041 0.024-0.038 0.197-0.129 0.384-0.102 0.593 0.007 0.052-0.007 0.108-0.017 0.16-0.018 0.106-0.043 0.21-0.061 0.316s-0.020 0.217-0.043 0.323c-0.078 0.351-0.164 0.702-0.246 1.052-0.013 0.060-0.034 0.121-0.032 0.18 0.007 0.212-0.023 0.417-0.078 0.622-0.023 0.085-0.052 0.133-0.135 0.154-0.092 0.022-0.184 0.048-0.274 0.076-0.239 0.075-0.481 0.143-0.716 0.229s-0.463 0.19-0.695 0.285c-0.245 0.1-0.491 0.196-0.734 0.299-0.137 0.059-0.267 0.131-0.402 0.193-0.172 0.079-0.348 0.15-0.521 0.229s-0.336 0.185-0.515 0.24c-0.394 0.121-0.757 0.291-1.081 0.549-0.137 0.109-0.296 0.193-0.451 0.278-0.070 0.038-0.153 0.074-0.229 0.074-0.162-0.002-0.245 0.062-0.289 0.219-0.042 0.15-0.166 0.18-0.307 0.103-0.13-0.071-0.267-0.13-0.398-0.2-0.143-0.077-0.286-0.154-0.418-0.246-0.167-0.116-0.315-0.261-0.485-0.372-0.266-0.172-0.48-0.42-0.782-0.541-0.024-0.009-0.043-0.033-0.063-0.051-0.225-0.197-0.448-0.394-0.673-0.591-0.035-0.031-0.076-0.055-0.117-0.080-0.156-0.097-0.318-0.184-0.467-0.29-0.092-0.066-0.181-0.082-0.311-0.047 0.062 0.112 0.11 0.224 0.178 0.321 0.261 0.373 0.528 0.742 0.793 1.112 0.146 0.204 0.281 0.419 0.444 0.609 0.178 0.21 0.319 0.438 0.451 0.677 0.164 0.296 0.348 0.582 0.521 0.874 0.038 0.063 0.086 0.132 0.091 0.201 0.013 0.161 0.008 0.325-0.002 0.487-0.004 0.063-0.028 0.131-0.061 0.186-0.084 0.138-0.192 0.262-0.264 0.405-0.070 0.14-0.115 0.234-0.18 0.376 0.308 0.178 0.693 0.149 0.904 0.171 0.147-0.294 0.259-0.515 0.409-0.809z"></path>
<path fill="#fff" d="M20.221 17.667c0.061-0.023 0.119-0.065 0.167-0.111 0.181-0.173 0.365-0.344 0.534-0.528 0.161-0.177 0.357-0.286 0.577-0.362 0.062-0.022 0.123-0.047 0.205-0.077-0.012 0.061-0.011 0.11-0.032 0.147-0.088 0.163-0.082 0.337-0.085 0.515-0.002 0.105-0.027 0.213-0.061 0.314-0.017 0.051-0.073 0.116-0.12 0.126-0.217 0.041-0.31 0.225-0.442 0.362-0.070 0.074-0.119 0.176-0.23 0.184-0.16 0.012-0.323 0.021-0.482 0-0.116-0.016-0.253-0.219-0.242-0.324 0.013-0.126 0.092-0.201 0.212-0.246zM13.297 18.047c-0.019 0.048-0.013 0.105-0.021 0.158-0.017 0.127-0.085 0.214-0.208 0.251-0.118 0.036-0.212-0.007-0.285-0.103-0.036-0.048-0.075-0.095-0.11-0.139-0.29 0.041-0.538-0.118-0.629-0.393-0.029-0.090-0.062-0.18-0.097-0.268-0.081-0.202-0.063-0.415-0.052-0.622 0.006-0.117 0.092-0.194 0.21-0.222 0.103-0.024 0.232 0.020 0.276 0.127 0.062 0.151 0.186 0.209 0.319 0.253 0.091 0.031 0.153 0.082 0.202 0.158 0.1 0.152 0.18 0.316 0.316 0.444 0.099 0.093 0.133 0.216 0.079 0.356zM29.936 19.089c-0.096-0.402-0.219-0.798-0.334-1.196-0.048-0.168-0.102-0.334-0.165-0.539-0.125 0.162-0.222 0.294-0.215 0.473 0.017 0.41-0.172 0.793-0.16 1.203 0.001 0.026-0.018 0.051-0.023 0.078-0.026 0.117-0.067 0.235-0.074 0.354-0.011 0.211-0.136 0.38-0.188 0.575-0.010 0.037-0.067 0.063-0.103 0.093-0.042 0.033-0.086 0.062-0.125 0.091 0 0.033-0.004 0.054 0.001 0.073 0.075 0.277-0.019 0.504-0.192 0.716-0.176 0.215-0.371 0.415-0.55 0.624-0.214 0.252-0.459 0.459-0.714 0.657-0.307 0.236-0.633 0.446-0.959 0.654-0.255 0.161-0.534 0.266-0.847 0.25-0.085-0.005-0.171 0.033-0.257 0.044-0.066 0.007-0.144 0.027-0.197 0.001-0.148-0.075-0.302-0.072-0.458-0.073-0.245-0.001-0.491-0.018-0.734 0.004-0.305 0.027-0.577-0.094-0.849-0.179-0.242-0.075-0.481-0.198-0.667-0.384-0.423-0.132-0.634-0.516-0.688-0.722-0.006 0.004-0.010 0.007-0.017 0.011-0.098-0.206-0.182-0.391-0.275-0.572-0.049-0.096-0.102-0.195-0.173-0.273-0.116-0.125-0.179-0.269-0.227-0.428-0.031-0.101-0.072-0.198-0.119-0.324-0.061 0.078-0.092 0.13-0.133 0.171-0.084 0.085-0.183 0.105-0.299 0.066s-0.17-0.133-0.158-0.235c0.026-0.235 0.074-0.469 0.121-0.701 0.010-0.048 0.053-0.096 0.094-0.129 0.27-0.218 0.485-0.494 0.742-0.722 0.155-0.138 0.325-0.304 0.56-0.321 0.088-0.147 0.177-0.288 0.256-0.434 0.030-0.056 0.060-0.128 0.052-0.186-0.023-0.181 0.071-0.321 0.136-0.471 0.026-0.060 0.052-0.125 0.053-0.188 0.006-0.433 0.003-0.867 0.004-1.302 0.001-0.143 0.004-0.285 0.007-0.428 0.001-0.026 0-0.058 0.014-0.078 0.153-0.23 0.018-0.408-0.102-0.591-0.047-0.072-0.088-0.146-0.131-0.22-0.121-0.209-0.189-0.425-0.167-0.674 0.020-0.208 0.091-0.373 0.258-0.497 0.075-0.056 0.143-0.15 0.224-0.16 0.066-0.007 0.143 0.086 0.217 0.13 0.034 0.019 0.083 0.044 0.111 0.033 0.155-0.062 0.305-0.137 0.458-0.204 0.060-0.026 0.128-0.073 0.183-0.062 0.141 0.029 0.251-0.036 0.371-0.080 0.1-0.037 0.204-0.063 0.307-0.089 0.059-0.016 0.134-0.004 0.178-0.035 0.227-0.17 0.51-0.162 0.761-0.252 0.108-0.037 0.21-0.093 0.316-0.137 0.048-0.020 0.1-0.030 0.168-0.049 0.001 0.004 0.002 0.007 0.003 0.012 0.126-0.123 0.566-0.524 1.098-0.656-0.004-0.010-0.006-0.019-0.008-0.029 0.246-0.174 0.48-0.336 0.709-0.504 0.123-0.089 0.265-0.165 0.268-0.353 0.002-0.057 0.041-0.116 0.074-0.167 0.118-0.183 0.241-0.361 0.361-0.542 0.143-0.214 0.285-0.43 0.421-0.648 0.171-0.273 0.28-0.574 0.376-0.878 0.072-0.225 0.171-0.445 0.165-0.69-0.001-0.040 0.003-0.085 0.020-0.12 0.101-0.205 0.072-0.425 0.075-0.641 0.004-0.198-0.007-0.395 0.004-0.593 0.012-0.243 0.039-0.486 0.057-0.73 0.004-0.046 0.007-0.097-0.010-0.136-0.104-0.233-0.215-0.463-0.328-0.702-0.029 0.020-0.052 0.033-0.072 0.050-0.171 0.149-0.249 0.353-0.322 0.558-0.098 0.275-0.176 0.558-0.294 0.824-0.251 0.566-0.544 1.109-0.982 1.562-0.307 0.32-0.625 0.625-1.017 0.841-0.121 0.066-0.256 0.106-0.362 0.15-0.002-0.002-0.003-0.005-0.005-0.007-0.449 0.454-0.826 0.489-0.987 0.446 0.002 0.007-0.107-0.090-0.107-0.090-0.104 0.008-0.185 0.009-0.264 0.023-0.073 0.012-0.143 0.039-0.215 0.058-0.085 0.021-0.169 0.056-0.253 0.058-0.436 0.008-0.871 0.010-1.306 0.012-0.102 0-0.201-0.003-0.291 0.066-0.034 0.026-0.088 0.034-0.134 0.038-0.123 0.007-0.227 0.041-0.279 0.167-0.007 0.019-0.020 0.047-0.034 0.048-0.174 0.024-0.221 0.183-0.311 0.294-0.054 0.068-0.116 0.113-0.206 0.112-0.123-0.003-0.21-0.081-0.228-0.217-0.010-0.073-0.011-0.147-0.017-0.232-0.045-0.002-0.088-0.019-0.106-0.004-0.178 0.141-0.361 0.11-0.527-0.003-0.217-0.15-0.476-0.178-0.711-0.273-0.354-0.144-0.725-0.187-1.103-0.194-0.244-0.005-0.485-0.028-0.716-0.132-0.095-0.043-0.212-0.047-0.32-0.048-0.238-0.002-0.477-0.001-0.714 0.018-0.126 0.009-0.249 0.057-0.373 0.088-0.072 0.018-0.143 0.054-0.213 0.051-0.21-0.008-0.417-0.041-0.626-0.049-0.134-0.005-0.269 0.014-0.402 0.027-0.162 0.016-0.323 0.035-0.484 0.055-0.040 0.005-0.091-0.001-0.118 0.021-0.232 0.194-0.525 0.266-0.794 0.377-0.206 0.087-0.363 0.217-0.537 0.342-0.148 0.106-0.329 0.184-0.525 0.176-0.146-0.007-0.262 0.021-0.391 0.116-0.127 0.091-0.241 0.18-0.346 0.299-0.194 0.225-0.476 0.186-0.648-0.065-0.064-0.094-0.131-0.19-0.213-0.267-0.048-0.047-0.128-0.069-0.198-0.084-0.062-0.013-0.13-0.003-0.211-0.003-0.010-0.116-0.008-0.198-0.025-0.277-0.023-0.116-0.088-0.152-0.193-0.103-0.243 0.113-0.497 0.134-0.757 0.106-0.229-0.023-0.457-0.052-0.687-0.075-0.046-0.005-0.101-0.008-0.14 0.011-0.116 0.059-0.22 0.040-0.332-0.010-0.061-0.028-0.13-0.037-0.198-0.048-0.083-0.014-0.131-0.025-0.155-0.048-0.655 0.061-0.926-0.048-1.033-0.129-0.031 0.008-0.067 0.003-0.116-0.017-0.188-0.076-0.38-0.147-0.561-0.239-0.236-0.117-0.447-0.279-0.698-0.373-0.105-0.040-0.186-0.136-0.288-0.19-0.42-0.224-0.843-0.441-1.265-0.662-0.417-0.217-0.781-0.494-1.028-0.906-0.048-0.081-0.118-0.148-0.179-0.222-0.094-0.116-0.188-0.232-0.284-0.347-0.028-0.034-0.060-0.065-0.089-0.097-0.234 0.303-0.158 0.627-0.064 0.927 0.156 0.497 0.345 0.983 0.538 1.466 0.275 0.686 0.664 1.303 1.175 1.839 0.286 0.3 0.581 0.592 0.875 0.884 0.052 0.052 0.116 0.092 0.176 0.136 0.175 0.127 0.352 0.25 0.525 0.379 0.092 0.069 0.176 0.14 0.298 0.164 0.086 0.018 0.161 0.084 0.248 0.131-0.003 0.005-0.005 0.009-0.007 0.014 0.169-0.002 0.464 0.049 0.82 0.335 0-0.004 0-0.007 0-0.011 0.081 0.011 0.145 0.005 0.192 0.029 0.153 0.079 0.309 0.13 0.48 0.152 0.112 0.014 0.225 0.051 0.325 0.102 0.109 0.057 0.207 0.053 0.312 0.012 0.1-0.039 0.185-0.028 0.256 0.059 0.061 0.075 0.147 0.099 0.239 0.092 0.118-0.008 0.224 0.007 0.326 0.081 0.068 0.049 0.163 0.062 0.246 0.090s0.17 0.048 0.251 0.082c0.211 0.087 0.27 0.075 0.397-0.109 0.055-0.079 0.13-0.071 0.201-0.057 0.178 0.034 0.355 0.075 0.546 0.116 0.004 0.044 0.012 0.088 0.011 0.134-0.002 0.211-0.012 0.421-0.007 0.633 0.004 0.191 0.083 0.38 0.010 0.574-0.007 0.017 0.002 0.040 0.006 0.061 0.087 0.511 0.041 1.028 0.053 1.542 0.002 0.067-0.034 0.143-0.073 0.202-0.162 0.25-0.152 0.503 0.058 0.719 0.084 0.087 0.113 0.173 0.113 0.289 0.001 0.13-0.044 0.275 0.080 0.381-0.025 0.238 0.175 0.333 0.3 0.475 0.044 0.050 0.1 0.092 0.143 0.144 0.059 0.071 0.109 0.147 0.169 0.229 0.058 0.040 0.137 0.079 0.197 0.138 0.157 0.157 0.35 0.26 0.538 0.372 0.057 0.034 0.099 0.092 0.152 0.134 0.076 0.060 0.157 0.116 0.269 0.199-0.009 0.059-0.024 0.155-0.036 0.23 0.029 0.137 0.075 0.26 0.077 0.383 0.004 0.157-0.069 0.217-0.223 0.239-0.211 0.029-0.282 0.012-0.536-0.13-0.382 0.303-0.75 0.611-1.017 1.035-0.088 0.141-0.156 0.226-0.219 0.269 0 0.001 0 0.001-0.001 0.002-0.328 0.542-0.658 0.68-0.886 0.701-0.065 0.035-0.117 0.063-0.168 0.094-0.103 0.063-0.216 0.117-0.307 0.197-0.154 0.137-0.324 0.239-0.506 0.332-0.173 0.088-0.346 0.184-0.505 0.296-0.095 0.066-0.184 0.107-0.3 0.099-0.095-0.007-0.183 0.004-0.266 0.072-0.051 0.042-0.138 0.055-0.209 0.056-0.449 0.005-0.898 0.003-1.347 0.002-0.048 0-0.102 0.003-0.14-0.019-0.201-0.112-0.417-0.193-0.601-0.341-0.204-0.165-0.438-0.294-0.65-0.449-0.090-0.066-0.185-0.148-0.233-0.245-0.077-0.157-0.182-0.284-0.315-0.392-0.347-0.281-0.543-0.669-0.728-1.060-0.106-0.224-0.165-0.47-0.243-0.705-0.011-0.033-0.020-0.066-0.021-0.1-0.003-0.164-0.075-0.316-0.1-0.47-0.045-0.266-0.14-0.525-0.156-0.79-0.014-0.251-0.116-0.473-0.169-0.71-0.034-0.148-0.109-0.289-0.103-0.448 0.003-0.077-0.021-0.14-0.102-0.153-0.127-0.022-0.147-0.116-0.139-0.213s0.026-0.203 0.066-0.294c0.046-0.104 0.064-0.205 0.047-0.317-0.019-0.114-0.030-0.229-0.049-0.343-0.018-0.102-0.056-0.195-0.157-0.235-0.1 0.074-0.194 0.138-0.282 0.211-0.029 0.023-0.055 0.063-0.062 0.1-0.062 0.313-0.142 0.625-0.174 0.942-0.049 0.486-0.071 0.976-0.094 1.464-0.006 0.12 0.006 0.249 0.046 0.361 0.072 0.198 0.083 0.397 0.074 0.602-0.011 0.224-0.030 0.448-0.024 0.673 0.004 0.188 0.032 0.377 0.060 0.565 0.021 0.147 0.062 0.292 0.090 0.438 0.045 0.232 0.069 0.465 0.162 0.691 0.103 0.249 0.179 0.514 0.224 0.78 0.049 0.294 0.145 0.566 0.279 0.827 0.048 0.096 0.107 0.198 0.189 0.262 0.13 0.101 0.205 0.23 0.27 0.373 0.048 0.105 0.104 0.207 0.153 0.312 0.168 0.367 0.392 0.695 0.683 0.977 0.074 0.071 0.157 0.133 0.22 0.212 0.084 0.103 0.195 0.143 0.314 0.175 0.051 0.013 0.111 0.020 0.148 0.051 0.113 0.097 0.22 0.202 0.324 0.308 0.243 0.248 0.511 0.442 0.882 0.43 0.062-0.002 0.135 0.021 0.188 0.056 0.307 0.201 0.649 0.216 0.997 0.21 0.163-0.004 0.325-0.021 0.486-0.039 0.086-0.009 0.172-0.023 0.253-0.049 0.109-0.034 0.219-0.053 0.317 0.007 0.232 0.141 0.439 0.064 0.653-0.044 0.487-0.245 0.984-0.464 1.548-0.433 0.129 0.007 0.239-0.034 0.343-0.107 0.141-0.096 0.28-0.195 0.427-0.28 0.080-0.047 0.173-0.082 0.265-0.093 0.094-0.011 0.164-0.045 0.229-0.111 0.119-0.121 0.239-0.243 0.369-0.352 0.292-0.242 0.594-0.474 0.884-0.717 0.187-0.157 0.37-0.307 0.636-0.198 0.038-0.061 0.070-0.111 0.1-0.158 0.080 0.087 0.154 0.169 0.232 0.247 0.136 0.137 0.241 0.321 0.497 0.302v0.234c0.001 0.674 0 1.347 0.003 2.021 0.001 0.125-0.034 0.259 0.078 0.363 0.016 0.013 0.015 0.052 0.012 0.078-0.026 0.184 0.057 0.381-0.070 0.552-0.010 0.013-0.008 0.040-0.004 0.058 0.036 0.137 0.064 0.278 0.115 0.41 0.13 0.342 0.266 0.682 0.408 1.020 0.138 0.331 0.257 0.674 0.53 0.931 0.047 0.043 0.065 0.116 0.097 0.176 0.114 0.215 0.227 0.43 0.342 0.646 0.021 0.041 0.043 0.081 0.065 0.122 0.020-0.008 0.042-0.017 0.062-0.025 0.046-0.087 0.12-0.171 0.131-0.262 0.024-0.19 0.085-0.394-0.069-0.566-0.012-0.013-0.014-0.037-0.020-0.057-0.058-0.207-0.094-0.423-0.18-0.618-0.083-0.19-0.088-0.38-0.089-0.577-0.003-0.263 0.032-0.531-0.119-0.77 0.123-0.118 0.137-0.261 0.138-0.405 0.001-0.286 0-0.572 0.002-0.857 0-0.057 0.010-0.114 0.016-0.175 0.139 0.056 0.133 0.058 0.155 0.124 0.058 0.182 0.076 0.366 0.080 0.557 0.001 0.113 0.059 0.225 0.091 0.337 0.062-0.068 0.095-0.13 0.102-0.194 0.062-0.576 0.248-1.126 0.352-1.693 0.046-0.246 0.085-0.494 0.124-0.742 0.020-0.12 0.017-0.246 0.109-0.368 0.006 0.046 0.010 0.065 0.011 0.086 0.021 0.592-0.052 1.188 0.070 1.777 0.019 0.092-0.003 0.204 0.093 0.256 0.161 0.088 0.168 0.228 0.167 0.384-0.004 0.476-0.005 0.952 0 1.428 0.001 0.101-0.006 0.229 0.049 0.295 0.137 0.163 0.094 0.309 0.021 0.471-0.035 0.080-0.055 0.168-0.092 0.248-0.040 0.088-0.048 0.177 0.005 0.253 0.061 0.088 0.040 0.163 0.006 0.249-0.046 0.113-0.087 0.228-0.12 0.346-0.022 0.077-0.003 0.162 0.077 0.188 0.055 0.018 0.13-0.002 0.187-0.026 0.039-0.016 0.071-0.064 0.091-0.105 0.075-0.143 0.142-0.289 0.212-0.435 0.121-0.023 0.248-0.013 0.308-0.158 0.124-0.294 0.261-0.581 0.393-0.871 0.022-0.049 0.044-0.102 0.080-0.14 0.102-0.104 0.131-0.23 0.157-0.368 0.034-0.185 0.084-0.369 0.14-0.55 0.017-0.052 0.076-0.091 0.114-0.138 0.041-0.051 0.094-0.099 0.113-0.157 0.055-0.168 0.115-0.338 0.134-0.512 0.030-0.248 0.026-0.5 0.036-0.751-0.143-0.21-0.067-0.446-0.081-0.671-0.011-0.17-0.001-0.341-0.010-0.511-0.004-0.071-0.040-0.139-0.049-0.21-0.013-0.099-0.053-0.221-0.011-0.294 0.069-0.122 0.062-0.225 0.038-0.348-0.030-0.157 0.012-0.253 0.161-0.313 0.108-0.045 0.235-0.052 0.355-0.061 0.221-0.019 0.424 0.055 0.588 0.191 0.182 0.15 0.339 0.33 0.506 0.498 0.038 0.038 0.068 0.088 0.113 0.116 0.19 0.119 0.383 0.231 0.576 0.346 0.093 0.056 0.189 0.107 0.28 0.167 0.164 0.109 0.322 0.225 0.487 0.333 0.044 0.028 0.101 0.040 0.153 0.049 0.218 0.039 0.413 0.173 0.647 0.149 0.016-0.002 0.034 0.019 0.052 0.029 0.313 0.174 0.633 0.314 1.005 0.231 0.059-0.013 0.122 0.001 0.184-0.002 0.047-0.003 0.103 0.002 0.139-0.021 0.187-0.125 0.396-0.097 0.594-0.069 0.376 0.053 0.715-0.074 1.044-0.211 0.389-0.162 0.762-0.361 1.14-0.548 0.072-0.036 0.143-0.079 0.206-0.13 0.209-0.163 0.416-0.327 0.619-0.498 0.234-0.199 0.469-0.408 0.552-0.716 0.063-0.231 0.17-0.417 0.348-0.575 0.067-0.059 0.091-0.168 0.158-0.229 0.212-0.195 0.273-0.468 0.363-0.717 0.107-0.296 0.178-0.608 0.232-0.92 0.050-0.287 0.134-0.568 0.169-0.854 0.051-0.43 0.051-0.866 0.075-1.3 0.014-0.265 0.036-0.529 0.046-0.794 0.006-0.169 0.022-0.345-0.016-0.506z"></path>
<path fill="#fff" d="M7.665 21.402c-0.229 0.267-0.466 0.53-0.62 0.854-0.051 0.108-0.135 0.203-0.218 0.292-0.099 0.105-0.088 0.244-0.126 0.367-0.021 0.066 0.071 0.136 0.152 0.124 0.058-0.008 0.12-0.033 0.167-0.067 0.136-0.102 0.267-0.209 0.397-0.319 0.131-0.111 0.244-0.251 0.44-0.254 0.037-0.001 0.075-0.030 0.109-0.052 0.185-0.125 0.362-0.265 0.556-0.375 0.175-0.1 0.292-0.292 0.539-0.322 0.165 0.138 0.266 0.222 0.441 0.37 0.255-0.143 0.561-0.31 0.748-0.534-0.143-0.126-0.28-0.26-0.424-0.385-0.128-0.111-0.267-0.208-0.393-0.321s-0.232-0.245-0.36-0.355c-0.318-0.272-0.581-0.592-0.823-0.928-0.145-0.201-0.269-0.424-0.307-0.681-0.010-0.073-0.035-0.144-0.065-0.212-0.060-0.13-0.105-0.256-0.124-0.402-0.025-0.197-0.101-0.388-0.157-0.58-0.019-0.065-0.049-0.128-0.062-0.194-0.056-0.284-0.115-0.566-0.231-0.835-0.062-0.145-0.078-0.312-0.109-0.47-0.172-0.875-0.198-1.616-0.239-2.495-0.001-0.008-0.001-0.017-0.001-0.025-0.345-0.197-0.566-0.405-0.978-0.443-0.048 0.014-0.068-0.028-0.116-0.012-0.115 0.038-0.365 0.037-0.472 0.092-0.317 0.162-0.813 0.098-1.156 0.133-0.288 0.030-0.573 0.098-0.865 0.102-0.13 0.003-0.244 0.061-0.301 0.227 0.305 0.005 0.588-0.019 0.863 0.074 0.185 0.062 0.384 0.078 0.574 0.126 0.249 0.063 0.495 0.137 0.743 0.207 0.116 0.033 0.236 0.060 0.348 0.104 0.103 0.041 0.198 0.103 0.335 0.176 0.010 0.074 0.029 0.185 0.042 0.297 0.008 0.081-0.011 0.171 0.019 0.242 0.14 0.332 0.115 0.69 0.184 1.033 0.047 0.231 0.073 0.466 0.113 0.698 0.019 0.106 0.046 0.211 0.075 0.315 0.079 0.28 0.184 0.555 0.233 0.841 0.043 0.253 0.090 0.498 0.163 0.745 0.075 0.254 0.19 0.475 0.322 0.694 0.052 0.085 0.134 0.152 0.189 0.236 0.168 0.254 0.324 0.516 0.493 0.77 0.086 0.129 0.186 0.248 0.281 0.373-0.084 0.181-0.176 0.348-0.237 0.526-0.032 0.095-0.077 0.167-0.14 0.24z"></path>
</svg>
