<!-- Generated by IcoMoon.io -->
<svg version="1.1" xmlns="http://www.w3.org/2000/svg" width="32" height="32" viewBox="0 0 32 32">
<title>bonesplitterz-ally</title>
<path fill="#fff" d="M6.662 11.773c-0.018 0.085-0.018 0.17-0.053 0.236-0.147 0.272-0.208 0.574-0.308 0.861-0.053 0.152-0.068 0.316-0.1 0.475-0.019 0.086-0.037 0.172-0.057 0.257-0.037 0.158-0.091 0.312-0.11 0.472-0.019 0.15-0.004 0.305-0.002 0.458 0.004 0.375 0.009 0.749 0.012 1.123 0.003 0.339 0.004 0.679 0.004 1.018 0 0.241 0.014 0.483-0.006 0.722-0.022 0.249 0.113 0.467 0.108 0.709 0 0.004 0.005 0.009 0.007 0.013 0.024 0.094 0.047 0.189 0.071 0.283 0.011 0.042 0.017 0.087 0.034 0.127 0.033 0.078 0.088 0.149 0.103 0.228 0.036 0.192 0.090 0.379 0.136 0.568 0.029 0.119 0.048 0.244 0.101 0.352 0.060 0.117 0.052 0.237 0.076 0.355s0.106 0.22 0.093 0.352c-0.005 0.050 0.011 0.108 0.034 0.154 0.091 0.191 0.178 0.383 0.199 0.598 0.004 0.034 0.014 0.069 0.031 0.098 0.115 0.2 0.185 0.425 0.349 0.598 0.067 0.071 0.118 0.158 0.183 0.232 0.166 0.187 0.335 0.372 0.504 0.556 0.106 0.116 0.249 0.196 0.32 0.344 0.012 0.026 0.035 0.049 0.058 0.066 0.141 0.108 0.283 0.213 0.425 0.32 0.040 0.029 0.083 0.054 0.118 0.087 0.114 0.108 0.222 0.222 0.337 0.329 0.078 0.074 0.164 0.14 0.246 0.21 0.169 0.143 0.33 0.297 0.547 0.371 0.055 0.019 0.108 0.050 0.154 0.086 0.099 0.073 0.189 0.159 0.29 0.228 0.093 0.064 0.189 0.135 0.294 0.166 0.302 0.090 0.554 0.25 0.765 0.48 0.019 0.021 0.044 0.043 0.071 0.051 0.315 0.089 0.597 0.285 0.939 0.286 0.047 0 0.093 0.028 0.14 0.043 0.226 0.074 0.454 0.126 0.696 0.106 0.117-0.010 0.236-0.005 0.354 0 0.042 0.002 0.086 0.018 0.124 0.038 0.167 0.087 0.34 0.151 0.529 0.157 0.222 0.007 0.444 0.004 0.667 0.004 0.123 0.001 0.243 0.002 0.363 0.050 0.079 0.032 0.174 0.034 0.262 0.035 0.473 0.004 0.948 0.004 1.422 0 0.078-0.001 0.157-0.015 0.231-0.038 0.123-0.036 0.242-0.084 0.362-0.129 0.223-0.086 0.451-0.127 0.693-0.099 0.101 0.012 0.207-0.003 0.308-0.019 0.218-0.038 0.436-0.078 0.651-0.13 0.118-0.028 0.243-0.059 0.344-0.123 0.186-0.119 0.352-0.269 0.574-0.324 0.040-0.010 0.076-0.045 0.107-0.076 0.075-0.075 0.162-0.125 0.264-0.158 0.074-0.025 0.145-0.062 0.212-0.101 0.235-0.133 0.444-0.307 0.697-0.411 0.087-0.037 0.167-0.084 0.266-0.058 0.021 0.005 0.052-0.001 0.070-0.013 0.099-0.073 0.197-0.147 0.29-0.227s0.177-0.172 0.272-0.249c0.168-0.137 0.351-0.256 0.511-0.4 0.215-0.194 0.415-0.405 0.62-0.611 0.065-0.066 0.123-0.14 0.184-0.21 0.172-0.195 0.378-0.364 0.458-0.626 0.011-0.032 0.034-0.061 0.053-0.088 0.12-0.17 0.229-0.345 0.278-0.551 0.012-0.051 0.039-0.104 0.073-0.144 0.172-0.195 0.273-0.431 0.392-0.657 0.043-0.082 0.071-0.172 0.108-0.258 0.079-0.19 0.159-0.382 0.24-0.571 0.033-0.077 0.068-0.153 0.108-0.225 0.078-0.138 0.147-0.275 0.158-0.441 0.005-0.090 0.042-0.182 0.082-0.265 0.075-0.157 0.147-0.317 0.16-0.489 0.026-0.324 0.183-0.624 0.165-0.955-0.002-0.023 0.014-0.047 0.019-0.071 0.032-0.138 0.069-0.277 0.092-0.417 0.021-0.126 0.012-0.257 0.042-0.381 0.055-0.227 0.078-0.454 0.069-0.688-0.004-0.091 0.017-0.188 0.049-0.273s0.054-0.167 0.041-0.257c-0.007-0.054 0.002-0.108-0.001-0.162-0.004-0.123 0.004-0.249-0.019-0.368-0.048-0.251-0.11-0.499-0.169-0.748-0.026-0.11-0.056-0.22-0.087-0.328-0.064-0.221-0.133-0.443-0.195-0.665s-0.11-0.45-0.181-0.669c-0.038-0.12-0.064-0.236-0.056-0.361 0.004-0.054-0.002-0.11-0.017-0.16-0.057-0.194-0.12-0.385-0.181-0.577-0.033-0.103-0.064-0.207-0.101-0.309-0.080-0.217-0.156-0.436-0.25-0.647-0.077-0.175-0.168-0.346-0.265-0.511-0.093-0.156-0.2-0.304-0.302-0.455-0.043-0.065-0.081-0.138-0.136-0.193-0.179-0.181-0.375-0.347-0.45-0.606-0.003-0.009-0.011-0.016-0.016-0.025-0.114-0.202-0.32-0.32-0.455-0.503-0.008-0.011-0.024-0.019-0.038-0.023-0.152-0.034-0.263-0.125-0.355-0.247-0.029-0.039-0.075-0.064-0.113-0.095-0.156-0.13-0.317-0.251-0.466-0.388-0.302-0.278-0.597-0.562-0.893-0.846-0.12-0.115-0.262-0.19-0.419-0.241-0.055-0.018-0.109-0.046-0.153-0.083-0.114-0.098-0.238-0.151-0.392-0.138-0.059 0.004-0.124-0.018-0.182-0.041-0.080-0.034-0.153-0.091-0.235-0.122-0.131-0.048-0.253-0.101-0.352-0.205-0.089-0.095-0.192-0.168-0.336-0.161-0.045 0.002-0.093-0.025-0.137-0.045-0.153-0.072-0.302-0.134-0.48-0.126-0.221 0.010-0.444-0.004-0.666-0.010-0.058-0.002-0.116-0.015-0.174-0.028-0.062-0.014-0.125-0.027-0.183-0.052-0.148-0.062-0.316-0.072-0.453-0.168-0.1-0.070-0.212-0.098-0.336-0.092-0.133 0.007-0.266 0.004-0.399 0.003-0.086-0.001-0.163 0.011-0.241 0.056-0.048 0.027-0.113 0.034-0.17 0.034-0.316 0.004-0.632 0.004-0.948 0.003-0.239-0.001-0.453 0.112-0.685 0.142-0.014 0.002-0.026 0.012-0.041 0.019-0.235 0.112-0.472 0.222-0.707 0.335-0.035 0.017-0.065 0.045-0.1 0.063-0.069 0.035-0.138 0.071-0.21 0.1-0.183 0.072-0.376 0.123-0.548 0.216-0.247 0.135-0.509 0.231-0.766 0.342-0.23 0.099-0.466 0.19-0.681 0.315-0.24 0.14-0.481 0.266-0.751 0.331-0.071 0.017-0.122 0.050-0.174 0.1-0.106 0.102-0.214 0.205-0.336 0.287s-0.242 0.17-0.392 0.2c-0.036 0.007-0.070 0.037-0.1 0.062-0.071 0.060-0.138 0.126-0.211 0.185-0.11 0.090-0.222 0.177-0.335 0.264-0.194 0.151-0.403 0.28-0.566 0.47-0.104 0.122-0.206 0.252-0.358 0.327-0.064 0.033-0.115 0.093-0.172 0.139-0.138 0.108-0.242 0.262-0.416 0.325-0.024 0.009-0.043 0.039-0.056 0.064-0.119 0.238-0.227 0.481-0.354 0.714-0.262 0.473-0.453 0.973-0.599 1.491-0.034 0.122-0.091 0.218-0.219 0.243zM16.34 31.999c-0.074-0.145-0.161-0.273-0.153-0.433 0.004-0.074 0.002-0.148 0.002-0.222 0-0.025 0.009-0.055-0.002-0.073-0.079-0.138-0.067-0.301-0.126-0.443-0.009-0.023-0.021-0.046-0.025-0.070-0.034-0.213-0.133-0.412-0.172-0.62-0.038-0.206-0.138-0.398-0.13-0.617 0.004-0.084-0.043-0.17-0.067-0.256-0.051-0.179-0.109-0.357-0.151-0.539-0.044-0.196-0.063-0.398-0.108-0.594-0.057-0.255-0.13-0.505-0.197-0.757-0.017-0.064-0.062-0.079-0.123-0.079-0.321-0.003-0.641-0.007-0.962-0.013-0.058-0.002-0.125-0.001-0.173-0.027-0.147-0.082-0.307-0.060-0.461-0.080-0.077-0.010-0.158-0.024-0.226-0.056-0.169-0.082-0.344-0.121-0.53-0.113-0.249 0.011-0.473-0.052-0.688-0.181-0.236-0.142-0.488-0.258-0.732-0.386-0.039-0.020-0.078-0.041-0.116-0.065-0.13-0.086-0.256-0.181-0.391-0.258-0.093-0.053-0.202-0.078-0.297-0.127-0.153-0.078-0.311-0.153-0.401-0.313-0.007-0.012-0.017-0.028-0.029-0.032-0.15-0.050-0.229-0.183-0.336-0.283-0.018-0.017-0.035-0.038-0.056-0.048-0.34-0.161-0.585-0.448-0.873-0.676-0.127-0.101-0.239-0.219-0.363-0.323-0.075-0.064-0.159-0.116-0.241-0.171-0.019-0.012-0.051-0.025-0.068-0.017-0.088 0.043-0.193 0.075-0.255 0.144-0.119 0.132-0.279 0.201-0.416 0.303-0.146 0.109-0.299 0.207-0.45 0.309-0.073 0.049-0.143 0.108-0.242 0.086-0.023-0.005-0.054-0.003-0.071 0.010-0.105 0.078-0.207 0.16-0.309 0.242-0.175 0.142-0.349 0.287-0.528 0.424-0.032 0.026-0.084 0.033-0.127 0.034-0.127 0.004-0.212-0.122-0.153-0.235 0.034-0.066 0.078-0.121 0.054-0.205-0.007-0.025 0.027-0.076 0.056-0.093 0.148-0.092 0.217-0.244 0.288-0.386 0.108-0.219 0.25-0.412 0.402-0.599 0.111-0.138 0.234-0.266 0.351-0.399 0.016-0.019 0.038-0.039 0.041-0.060 0.035-0.256 0.22-0.449 0.28-0.717-0.020-0.029-0.053-0.078-0.087-0.124-0.165-0.227-0.332-0.453-0.496-0.681-0.020-0.027-0.030-0.062-0.046-0.093-0.104-0.205-0.22-0.402-0.385-0.569-0.081-0.082-0.136-0.192-0.196-0.294-0.050-0.085-0.093-0.175-0.133-0.265-0.024-0.053-0.052-0.111-0.052-0.167 0-0.093-0.023-0.175-0.071-0.251-0.104-0.168-0.111-0.354-0.112-0.542-0.001-0.057-0.016-0.115-0.026-0.172-0.009-0.049-0.019-0.096-0.033-0.144-0.060-0.223-0.121-0.445-0.183-0.667-0.010-0.033-0.039-0.063-0.041-0.094-0.015-0.216-0.123-0.414-0.117-0.634 0.001-0.029 0.003-0.064-0.012-0.086-0.066-0.096-0.064-0.204-0.069-0.313-0.003-0.096 0.007-0.198-0.049-0.286-0.007-0.011-0.006-0.029-0.007-0.044-0.002-0.236-0.042-0.468-0.087-0.699-0.005-0.029 0.004-0.068-0.011-0.086-0.091-0.105-0.070-0.232-0.075-0.354-0.004-0.069 0.006-0.139-0.006-0.206-0.012-0.071-0.044-0.14-0.071-0.219-0.136-0.004-0.257-0.050-0.353-0.151-0.016-0.017-0.043-0.026-0.066-0.031-0.168-0.035-0.336-0.063-0.502-0.105-0.099-0.025-0.19-0.077-0.288-0.106-0.179-0.052-0.36-0.096-0.54-0.143-0.048-0.012-0.095-0.024-0.144-0.034-0.364-0.078-0.725-0.183-1.104-0.143-0.047 0.004-0.095 0.001-0.149 0.001 0.001-0.105 0.061-0.154 0.129-0.196 0.086-0.054 0.184-0.069 0.284-0.063 0.11 0.006 0.213-0.014 0.318-0.053 0.076-0.029 0.163-0.030 0.247-0.035 0.093-0.005 0.187 0 0.281-0.001 0.034-0.001 0.071 0.002 0.102-0.008 0.154-0.046 0.305-0.107 0.462-0.14 0.18-0.038 0.345-0.111 0.514-0.175 0.089-0.034 0.153-0.117 0.26-0.127 0.101-0.009 0.203-0.034 0.301-0.062 0.103-0.031 0.209-0.061 0.299-0.116s0.17-0.071 0.267-0.032c0.074-0.13 0.132-0.256 0.119-0.407-0.008-0.098 0.006-0.197 0.003-0.295-0.004-0.112 0.011-0.217 0.078-0.309 0.005-0.008 0.011-0.018 0.012-0.026 0.038-0.162 0.074-0.324 0.111-0.486 0.011-0.043 0.019-0.087 0.034-0.128 0.074-0.182 0.153-0.362 0.226-0.545 0.090-0.227 0.142-0.466 0.196-0.704 0.006-0.028 0.012-0.059 0.027-0.084 0.163-0.266 0.208-0.583 0.371-0.85 0.058-0.096 0.086-0.21 0.135-0.312 0.11-0.225 0.223-0.449 0.339-0.672 0.049-0.094 0.095-0.19 0.189-0.257 0.038-0.028 0.056-0.104 0.057-0.16 0.005-0.147-0.022-0.299-0.002-0.443 0.028-0.195-0.082-0.316-0.175-0.461-0.168-0.26-0.326-0.529-0.471-0.803-0.154-0.294-0.309-0.584-0.543-0.825-0.048-0.048-0.086-0.108-0.124-0.165-0.206-0.314-0.426-0.616-0.669-0.902-0.096-0.112-0.168-0.243-0.249-0.368-0.151-0.23-0.302-0.461-0.451-0.694-0.028-0.044-0.045-0.096-0.072-0.157 0.136-0.004 0.243-0.013 0.355 0.076 0.153 0.121 0.334 0.208 0.501 0.313 0.066 0.041 0.133 0.086 0.188 0.14 0.183 0.18 0.355 0.372 0.58 0.503 0.046 0.026 0.078 0.075 0.122 0.108 0.063 0.047 0.124 0.104 0.197 0.128 0.137 0.046 0.234 0.137 0.338 0.23 0.113 0.101 0.245 0.181 0.367 0.272 0.146 0.109 0.297 0.213 0.432 0.333 0.247 0.22 0.526 0.375 0.838 0.48 0.073 0.025 0.138 0.073 0.203 0.118 0.163 0.115 0.324 0.055 0.369-0.141 0.033-0.14 0.123-0.209 0.268-0.202 0.136 0.006 0.249-0.055 0.357-0.125 0.227-0.147 0.453-0.297 0.681-0.445 0.078-0.052 0.157-0.103 0.238-0.151 0.108-0.064 0.219-0.116 0.345-0.153 0.268-0.077 0.529-0.18 0.775-0.318 0.249-0.139 0.507-0.258 0.779-0.35 0.18-0.062 0.344-0.167 0.518-0.246s0.35-0.155 0.529-0.222c0.235-0.088 0.473-0.163 0.697-0.28 0.168-0.088 0.357-0.136 0.538-0.197 0.088-0.030 0.179-0.052 0.269-0.078 0.193-0.057 0.385-0.115 0.579-0.172 0.086-0.025 0.135-0.074 0.132-0.169-0.001-0.039 0.002-0.083 0.019-0.116 0.077-0.153 0.076-0.316 0.067-0.478-0.011-0.213 0.077-0.406 0.117-0.607 0.077-0.377 0.156-0.753 0.231-1.13 0.011-0.057 0.007-0.118 0.011-0.176 0.004-0.055-0.005-0.119 0.021-0.16 0.091-0.146 0.059-0.305 0.067-0.46 0.004-0.088-0.002-0.175 0.059-0.254 0.024-0.029 0.014-0.085 0.023-0.127 0.011-0.049 0.027-0.098 0.047-0.166 0.084 0.073 0.086 0.156 0.107 0.227 0.061 0.218 0.118 0.437 0.169 0.658 0.030 0.129 0.046 0.261 0.065 0.392s0.030 0.265 0.056 0.394c0.013 0.066 0.040 0.135 0.078 0.189 0.11 0.152 0.148 0.317 0.119 0.5-0.011 0.070-0.003 0.129 0.028 0.197 0.034 0.078 0.038 0.171 0.046 0.258 0.007 0.084 0.011 0.16 0.053 0.241 0.036 0.070 0.037 0.162 0.039 0.245 0.004 0.147-0.009 0.296 0.127 0.442 0.075 0 0.182-0.004 0.287 0.002 0.073 0.004 0.15 0.010 0.216 0.037 0.126 0.051 0.255 0.063 0.388 0.078 0.175 0.021 0.346 0.067 0.519 0.102 0.077 0.016 0.153 0.041 0.231 0.046 0.142 0.006 0.287-0.013 0.428 0.002 0.233 0.026 0.467 0.036 0.686 0.153 0.138 0.074 0.276 0.145 0.41 0.228 0.153 0.094 0.332 0.146 0.495 0.225 0.093 0.044 0.181 0.099 0.264 0.159 0.152 0.108 0.289 0.23 0.484 0.271 0.138 0.028 0.267 0.098 0.396 0.159 0.187 0.088 0.37 0.183 0.553 0.279 0.056 0.030 0.105 0.073 0.153 0.115 0.127 0.108 0.246 0.228 0.382 0.324 0.101 0.074 0.224 0.119 0.337 0.178 0.074 0.039 0.155 0.069 0.219 0.12 0.198 0.162 0.388 0.333 0.582 0.499 0.030 0.026 0.065 0.044 0.117 0.078 0.080-0.046 0.171-0.091 0.257-0.146 0.123-0.080 0.236-0.182 0.366-0.249 0.157-0.080 0.321-0.146 0.473-0.233 0.059-0.034 0.126-0.022 0.182 0.021 0.059 0.045 0.075 0.103 0.039 0.168-0.124 0.224-0.25 0.448-0.376 0.669-0.054 0.093-0.116 0.182-0.173 0.272-0.067 0.107-0.080 0.224-0.047 0.341 0.064 0.225 0.173 0.43 0.312 0.616 0.171 0.228 0.359 0.444 0.534 0.67 0.066 0.086 0.125 0.178 0.172 0.274 0.091 0.185 0.242 0.323 0.367 0.481 0.145 0.186 0.253 0.384 0.289 0.619 0.005 0.034 0.019 0.066 0.031 0.098 0.086 0.257 0.171 0.513 0.259 0.768 0.078 0.223 0.16 0.445 0.238 0.667 0.047 0.135 0.113 0.267 0.131 0.406 0.022 0.163 0.102 0.297 0.155 0.444 0.052 0.143 0.099 0.288 0.142 0.434 0.050 0.165 0.089 0.333 0.142 0.496 0.056 0.173 0.126 0.339 0.146 0.524 0.021 0.193 0.119 0.28 0.31 0.277 0.138-0.003 0.257 0.061 0.356 0.127 0.175 0.117 0.354 0.153 0.556 0.136 0.093-0.009 0.188-0.006 0.281-0.002 0.042 0.002 0.098 0.004 0.125 0.031 0.066 0.065 0.145 0.063 0.221 0.054 0.186-0.024 0.361 0.037 0.539 0.071 0.118 0.022 0.226 0.099 0.367 0.164-0.139 0.047-0.257 0.079-0.368 0.127-0.127 0.053-0.252 0.113-0.371 0.182-0.239 0.138-0.472 0.287-0.711 0.426-0.067 0.039-0.145 0.067-0.222 0.077-0.207 0.025-0.382 0.127-0.561 0.22-0.052 0.027-0.102 0.059-0.156 0.083-0.121 0.054-0.218 0.126-0.259 0.261-0.017 0.055-0.059 0.101-0.089 0.151-0.044 0.077-0.115 0.151-0.125 0.232-0.027 0.214-0.091 0.421-0.106 0.637-0.009 0.131-0.055 0.258-0.089 0.386-0.073 0.27-0.175 0.532-0.217 0.812-0.019 0.13-0.079 0.252-0.119 0.379-0.056 0.178-0.126 0.354-0.162 0.536-0.033 0.162-0.098 0.309-0.158 0.459-0.014 0.037-0.036 0.072-0.041 0.111-0.048 0.346-0.232 0.645-0.347 0.967-0.091 0.256-0.216 0.495-0.361 0.726-0.003 0.004-0.005 0.008-0.006 0.013-0.060 0.241-0.229 0.421-0.347 0.63-0.014 0.026-0.029 0.055-0.052 0.071-0.134 0.096-0.186 0.252-0.278 0.378-0.050 0.070-0.058 0.144-0.016 0.223 0.037 0.070 0.069 0.142 0.102 0.213 0.1 0.209 0.198 0.418 0.3 0.626 0.021 0.043 0.054 0.081 0.079 0.122 0.038 0.061 0.075 0.123 0.116 0.189-0.051 0.034-0.088 0.058-0.123 0.084-0.086 0.062-0.169 0.074-0.273 0.026-0.211-0.095-0.428-0.178-0.644-0.26-0.063-0.023-0.132-0.031-0.2-0.039-0.139-0.016-0.285 0.032-0.421-0.041-0.019-0.010-0.081 0.021-0.093 0.047-0.047 0.114-0.138 0.173-0.235 0.235-0.061 0.040-0.119 0.094-0.155 0.156-0.123 0.207-0.317 0.302-0.535 0.364-0.135 0.039-0.261 0.086-0.354 0.201-0.030 0.036-0.081 0.055-0.121 0.083-0.060 0.042-0.12 0.086-0.178 0.13-0.023 0.019-0.040 0.047-0.064 0.061-0.198 0.106-0.336 0.287-0.519 0.412-0.125 0.086-0.254 0.166-0.384 0.246-0.104 0.064-0.206 0.131-0.317 0.186-0.073 0.035-0.158 0.047-0.236 0.075-0.11 0.041-0.218 0.088-0.329 0.129-0.294 0.109-0.563 0.279-0.872 0.358-0.265 0.067-0.522 0.173-0.785 0.253-0.112 0.034-0.23 0.061-0.346 0.065-0.101 0.004-0.2 0.011-0.283 0.065-0.176 0.116-0.373 0.111-0.57 0.115-0.148 0.003-0.294 0.011-0.415 0.118-0.051 0.045-0.088 0.089-0.086 0.161 0.001 0.038-0.010 0.078-0.020 0.114-0.052 0.175-0.106 0.348-0.16 0.522-0.008 0.027-0.016 0.062-0.035 0.078-0.090 0.077-0.089 0.181-0.101 0.284-0.013 0.122-0.034 0.242-0.053 0.364-0.005 0.039-0.017 0.078-0.019 0.116-0.026 0.421-0.118 0.829-0.225 1.234-0.021 0.081-0.025 0.166-0.044 0.247-0.038 0.158-0.083 0.315-0.121 0.473-0.023 0.095-0.041 0.191-0.058 0.288-0.011 0.063-0.019 0.126-0.030 0.19-0.021 0.126-0.038 0.252-0.064 0.377-0.019 0.085-0.049 0.167-0.074 0.25z"></path>
<path fill="#fff" d="M20.349 15.001c0.003-0.041 0.008-0.075 0.004-0.107-0.020-0.202-0.044-0.404-0.065-0.606-0.019-0.185-0.034-0.371-0.052-0.557-0.024-0.252-0.048-0.504-0.072-0.756-0.020-0.211-0.038-0.422-0.064-0.632-0.014-0.108-0.045-0.215-0.064-0.324-0.019-0.107-0.028-0.215-0.048-0.322-0.023-0.128-0.049-0.255-0.078-0.381-0.041-0.183-0.073-0.37-0.133-0.548-0.116-0.34-0.090-0.694-0.127-1.042-0.012-0.109-0.049-0.207-0.129-0.283-0.126-0.12-0.206-0.267-0.291-0.415-0.067-0.118-0.168-0.216-0.245-0.329-0.131-0.191-0.255-0.389-0.386-0.581-0.061-0.089-0.138-0.167-0.198-0.257-0.165-0.245-0.328-0.489-0.548-0.693-0.072-0.067-0.113-0.169-0.168-0.256-0.050-0.080 0.020-0.12 0.056-0.173 0.034-0.050 0.078-0.045 0.116-0.019 0.103 0.071 0.205 0.142 0.301 0.222 0.089 0.075 0.168 0.16 0.251 0.242 0.071 0.071 0.157 0.108 0.252 0.139 0.227 0.072 0.391 0.235 0.563 0.39 0.101 0.090 0.223 0.155 0.327 0.242 0.175 0.143 0.347 0.288 0.511 0.442 0.19 0.178 0.375 0.363 0.555 0.552 0.212 0.221 0.401 0.467 0.631 0.667 0.227 0.198 0.391 0.44 0.567 0.674 0.052 0.069 0.068 0.168 0.090 0.256s0.033 0.178 0.049 0.267c0.038 0.202 0.076 0.404 0.116 0.606 0.014 0.068 0.038 0.134 0.051 0.202 0.017 0.078 0.020 0.16 0.041 0.238 0.049 0.195 0.060 0.399 0.163 0.58 0.045 0.079 0.051 0.18 0.087 0.265 0.049 0.118 0.052 0.248 0.129 0.362 0.099 0.147 0.163 0.318 0.232 0.483 0.051 0.123 0.095 0.25 0.124 0.379 0.064 0.287 0.172 0.562 0.175 0.863 0.003 0.207 0.046 0.414 0.060 0.623 0.016 0.239 0.030 0.48 0.027 0.719-0.005 0.564 0.041 1.125 0.084 1.687 0.012 0.158-0.008 0.317-0.019 0.476-0.005 0.071-0.045 0.098-0.124 0.1-0.121 0.004-0.256-0.030-0.352 0.086-0.007 0.009-0.025 0.015-0.037 0.016-0.146 0.004-0.291 0.019-0.431-0.062-0.090-0.052-0.202-0.066-0.304-0.097-0.195-0.059-0.395-0.103-0.582-0.181-0.266-0.109-0.555-0.182-0.769-0.397-0.144-0.145-0.342-0.2-0.512-0.302-0.085-0.052-0.177-0.093-0.259-0.148-0.031-0.021-0.063-0.073-0.058-0.107 0.023-0.167 0.057-0.331 0.090-0.496 0.030-0.156 0.056-0.314 0.098-0.468 0.078-0.281 0.061-0.571 0.081-0.858 0.004-0.060-0.007-0.122-0.013-0.183-0.018-0.173 0.034-0.226 0.206-0.212 0.024 0.002 0.049 0.007 0.088 0.013z"></path>
<path fill="#fff" d="M9.484 19.669c0-0.078 0-0.145 0-0.212 0-0.022 0.004-0.044 0.004-0.066 0-0.159-0.010-0.317 0.001-0.475 0.012-0.195 0.042-0.388 0.063-0.582 0.010-0.090 0.012-0.181 0.024-0.27 0.019-0.145 0.047-0.287 0.066-0.431 0.011-0.091 0.011-0.183 0.020-0.274 0.011-0.102 0.023-0.205 0.037-0.306 0.019-0.144 0.042-0.287 0.064-0.431 0.021-0.141 0.046-0.282 0.065-0.424 0.011-0.087 0.014-0.175 0.026-0.263 0.011-0.076 0.031-0.15 0.043-0.226 0.031-0.183 0.058-0.369 0.091-0.552 0.014-0.077 0.042-0.151 0.059-0.227 0.021-0.095 0.033-0.192 0.054-0.287 0.025-0.115 0.055-0.228 0.083-0.342 0.034-0.136 0.065-0.272 0.1-0.408 0.024-0.093 0.051-0.184 0.077-0.276 0.012-0.042 0.022-0.085 0.034-0.127 0.052-0.189 0.107-0.376 0.156-0.566 0.045-0.173 0.081-0.348 0.127-0.52 0.033-0.125 0.078-0.247 0.114-0.371 0.023-0.079 0.038-0.16 0.060-0.239 0.035-0.128 0.071-0.254 0.109-0.38 0.061-0.201 0.119-0.402 0.187-0.6 0.059-0.173 0.13-0.34 0.193-0.511 0.061-0.168 0.11-0.341 0.178-0.506 0.073-0.181 0.16-0.357 0.243-0.534 0.095-0.202 0.19-0.405 0.29-0.604 0.099-0.197 0.203-0.391 0.308-0.585 0.030-0.055 0.070-0.101 0.148-0.067 0.119 0.052 0.175 0.106 0.136 0.175-0.078 0.139 0.001 0.256 0.027 0.382 0.014 0.070 0.024 0.141 0.028 0.212 0.004 0.058-0.003 0.116-0.005 0.175-0.010 0.184-0.017 0.369-0.031 0.552-0.017 0.212-0.048 0.423-0.058 0.635-0.011 0.241-0.012 0.481-0.010 0.721 0.004 0.376 0.002 0.754 0.028 1.129 0.012 0.176-0.043 0.307-0.139 0.44-0.057 0.078-0.063 0.172-0.042 0.27 0.034 0.162 0.059 0.326 0.087 0.489 0.004 0.017-0.005 0.036 0.002 0.050 0.106 0.236 0.022 0.483 0.041 0.725 0.021 0.269 0.051 0.538 0.070 0.808 0.009 0.13-0.004 0.262 0.004 0.392 0.008 0.15 0.030 0.299 0.040 0.449 0.018 0.301 0.030 0.601 0.049 0.902 0.007 0.122 0.024 0.243 0.036 0.365 0.003 0.026 0.005 0.050 0.005 0.076 0.001 0.133 0.002 0.266 0.002 0.4 0 0.126-0.003 0.253-0.001 0.38 0.003 0.179-0.122 0.264-0.255 0.339-0.149 0.085-0.3 0.168-0.454 0.242-0.163 0.078-0.332 0.142-0.495 0.219-0.109 0.052-0.213 0.114-0.318 0.172-0.175 0.094-0.348 0.189-0.522 0.283-0.138 0.075-0.275 0.149-0.413 0.225-0.255 0.141-0.509 0.283-0.763 0.425-0.019 0.011-0.039 0.019-0.073 0.035z"></path>
<path fill="#fff" d="M11.161 22.327c0.071-0.071 0.139-0.134 0.202-0.203 0.108-0.123 0.208-0.252 0.32-0.371 0.121-0.129 0.25-0.25 0.377-0.373 0.192-0.187 0.384-0.374 0.579-0.556 0.116-0.108 0.239-0.207 0.357-0.312 0.146-0.13 0.292-0.262 0.436-0.393 0.19-0.175 0.375-0.359 0.575-0.523 0.069-0.057 0.175-0.071 0.265-0.101 0.182-0.057 0.369-0.101 0.548-0.169 0.22-0.086 0.432-0.192 0.649-0.286 0.116-0.050 0.232-0.108 0.354-0.137 0.138-0.034 0.277-0.031 0.411 0.044 0.056 0.032 0.132 0.029 0.199 0.040 0.165 0.026 0.331 0.043 0.495 0.074 0.183 0.034 0.363 0.075 0.542 0.123 0.044 0.011 0.083 0.055 0.117 0.090 0.229 0.235 0.456 0.473 0.686 0.706 0.233 0.235 0.471 0.466 0.705 0.699 0.22 0.221 0.442 0.443 0.659 0.667 0.221 0.228 0.438 0.461 0.655 0.692 0.021 0.022 0.035 0.050 0.052 0.076 0.052 0.078 0.025 0.145-0.071 0.139-0.126-0.007-0.264-0.016-0.371-0.071-0.176-0.093-0.371-0.121-0.551-0.196-0.153-0.064-0.306-0.124-0.461-0.18-0.090-0.033-0.183-0.055-0.276-0.079-0.16-0.042-0.32-0.084-0.481-0.124-0.053-0.013-0.108-0.019-0.162-0.029-0.224-0.043-0.448-0.088-0.672-0.131-0.102-0.019-0.206-0.031-0.308-0.054-0.142-0.032-0.283-0.067-0.422-0.108-0.175-0.052-0.358-0.034-0.535-0.059-0.217-0.030-0.397 0.090-0.598 0.121-0.141 0.021-0.28 0.064-0.418 0.099-0.155 0.039-0.309 0.082-0.465 0.123-0.038 0.009-0.077 0.013-0.116 0.019-0.244 0.035-0.488 0.073-0.733 0.106-0.193 0.026-0.388 0.044-0.581 0.068-0.030 0.004-0.062 0.013-0.086 0.030-0.217 0.145-0.431 0.294-0.65 0.436-0.094 0.062-0.199 0.107-0.297 0.164-0.103 0.061-0.202 0.13-0.306 0.19-0.078 0.045-0.159 0.086-0.242 0.117-0.021 0.008-0.067-0.026-0.088-0.050-0.064-0.073-0.12-0.153-0.183-0.227-0.026-0.031-0.063-0.052-0.111-0.090z"></path>
<path fill="#fff" d="M16.401 17.609c-0.025 0.018-0.043 0.031-0.061 0.043 0.015 0.013 0.028 0.031 0.045 0.040s0.038 0.010 0.057 0.012c0.217 0.038 0.436 0.070 0.631 0.181 0.014 0.008 0.035 0.001 0.053 0.001-0.005-0.019-0.005-0.045-0.018-0.056-0.027-0.023-0.059-0.045-0.093-0.055-0.204-0.057-0.408-0.111-0.615-0.167zM17.344 17.191c0.003 0.009 0.004 0.018 0.007 0.026 0.083-0.025 0.168-0.047 0.25-0.076 0.018-0.006 0.027-0.035 0.041-0.055-0.020-0.011-0.040-0.033-0.060-0.034-0.064-0.002-0.129 0-0.191 0.007-0.144 0.015-0.287 0.033-0.429 0.054-0.023 0.003-0.061 0.037-0.057 0.049 0.006 0.027 0.028 0.062 0.053 0.072 0.027 0.011 0.065 0 0.098-0.004 0.097-0.012 0.193-0.026 0.289-0.041zM17.407 17.454c-0.318-0.128-0.625-0.252-0.932-0.376l-0.009 0.016c0.407 0.398 0.814 0.797 1.235 1.21-0.085-0.023-0.154-0.037-0.22-0.061-0.186-0.068-0.376-0.098-0.573-0.104-0.058-0.002-0.12-0.042-0.17-0.079-0.16-0.117-0.313-0.242-0.472-0.36-0.021-0.016-0.064-0.019-0.089-0.008-0.053 0.021-0.085 0.005-0.116-0.034-0.079-0.1-0.073-0.141 0.017-0.227 0.040-0.038 0.070-0.086 0.097-0.134 0.007-0.013-0.011-0.042-0.019-0.064-0.019 0.009-0.047 0.014-0.053 0.028-0.049 0.116-0.13 0.17-0.258 0.146-0.018-0.004-0.042 0.003-0.056 0.013-0.095 0.074-0.198 0.048-0.3 0.023-0.064-0.015-0.127-0.041-0.192-0.055-0.095-0.021-0.145-0.083-0.173-0.172-0.028-0.091-0.059-0.094-0.138-0.049-0.119 0.068-0.242 0.128-0.366 0.188-0.132 0.065-0.265 0.13-0.399 0.188-0.077 0.033-0.161 0.047-0.24 0.076-0.11 0.041-0.223 0.081-0.326 0.137-0.146 0.078-0.296 0.086-0.451 0.054-0.066-0.014-0.105-0.063-0.092-0.129 0.041-0.201 0.080-0.402 0.134-0.6 0.065-0.242 0.137-0.485 0.218-0.723 0.069-0.2 0.153-0.396 0.236-0.591 0.069-0.16 0.147-0.316 0.223-0.473 0.047-0.096 0.103-0.188 0.144-0.287 0.071-0.171 0.129-0.347 0.197-0.519 0.046-0.114 0.108-0.221 0.149-0.337 0.049-0.13 0.078-0.268 0.124-0.399 0.054-0.15 0.117-0.295 0.178-0.443 0.052-0.128 0.105-0.255 0.157-0.382 0.024-0.058 0.049-0.111 0.12-0.127 0.021-0.005 0.039-0.031 0.055-0.049 0.032-0.039 0.063-0.078 0.091-0.119 0.043-0.066 0.099-0.072 0.167-0.044 0.071 0.028 0.066 0.109 0.053 0.141-0.043 0.107-0.010 0.209-0.011 0.313-0.001 0.167-0.017 0.333-0.019 0.5-0.002 0.196 0.004 0.393 0.009 0.59 0.004 0.202 0.010 0.405 0.016 0.607 0.002 0.066 0.008 0.133 0.011 0.2 0.010 0.186 0.018 0.372 0.026 0.559 0.003 0.044 0.008 0.088 0.014 0.133 0.013 0.101 0.005 0.191-0.054 0.286-0.082 0.129-0.147 0.27-0.208 0.411-0.072 0.169-0.067 0.172 0.101 0.265 0.019 0.011 0.040 0.022 0.054 0.039 0.033 0.039 0.025 0.064-0.028 0.073-0.133 0.021-0.222 0.095-0.257 0.224-0.009 0.031 0.011 0.069 0.019 0.103 0.025-0.020 0.064-0.036 0.072-0.062 0.052-0.155 0.225-0.21 0.408-0.158 0.033 0.010 0.086-0.011 0.113-0.037 0.063-0.061 0.116-0.133 0.177-0.205-0.003-0.006-0.004-0.019-0.011-0.025-0.086-0.074-0.079-0.133 0.012-0.201 0.118-0.089 0.257-0.121 0.396-0.148 0.103-0.020 0.348 0.152 0.368 0.254 0.014 0.080-0.051 0.048-0.085 0.045-0.138-0.011-0.275-0.032-0.413-0.040-0.078-0.004-0.138 0.038-0.193 0.117 0.123 0.012 0.229 0.019 0.335 0.034 0.076 0.011 0.152 0.031 0.226 0.053 0.064 0.019 0.080 0.066 0.070 0.132-0.004 0.031 0.020 0.065 0.030 0.099 0.007 0.026 0.011 0.053 0.019 0.078s0.017 0.049 0.025 0.072c0.022-0.013 0.056-0.021 0.064-0.040 0.017-0.042 0.032-0.091 0.028-0.136-0.007-0.109 0.030-0.174 0.138-0.211 0.133-0.046 0.272-0.018 0.341 0.079 0.029 0.041 0.037 0.095 0.062 0.164 0.213 0.064 0.448 0.131 0.679 0.208 0.227 0.077 0.451 0.166 0.677 0.269-0.031 0.006-0.061 0.016-0.092 0.018-0.258 0.013-0.508 0.072-0.755 0.143-0.019 0.005-0.048-0.003-0.066-0.014-0.034-0.019-0.064-0.045-0.093-0.071-0.055-0.050-0.108-0.056-0.154 0z"></path>
<path fill="#fff" d="M16.866 15.912c0.012-0.229 0.024-0.396 0.031-0.563 0.009-0.225 0.017-0.45 0.021-0.675 0.001-0.060-0.012-0.122-0.015-0.183-0.015-0.287-0.029-0.576-0.041-0.864-0.008-0.18-0.033-0.363-0.010-0.54 0.028-0.216-0.034-0.421-0.026-0.634 0.003-0.090-0.040-0.182-0.061-0.272-0.008-0.035-0.020-0.071-0.021-0.106-0.004-0.179-0.089-0.325-0.184-0.468-0.020-0.030-0.042-0.059-0.062-0.090-0.056-0.090-0.045-0.14 0.040-0.202 0.125-0.092 0.142-0.091 0.244 0.039 0.083 0.105 0.189 0.203 0.237 0.323 0.059 0.143 0.201 0.192 0.275 0.309 0.209 0.331 0.472 0.625 0.645 0.979 0.057 0.116 0.145 0.218 0.197 0.336 0.092 0.209 0.17 0.424 0.248 0.64 0.058 0.164 0.1 0.335 0.161 0.498 0.054 0.142 0.131 0.274 0.187 0.415 0.088 0.224 0.165 0.452 0.25 0.677 0.044 0.116 0.101 0.226 0.143 0.342 0.035 0.098 0.057 0.2 0.086 0.301 0.018 0.063 0.034 0.125 0.056 0.186 0.034 0.091 0.082 0.177 0.106 0.27 0.037 0.144 0.062 0.291 0.083 0.437 0.004 0.029-0.024 0.076-0.050 0.093-0.068 0.042-0.143 0.072-0.215 0.107-0.012 0.006-0.031 0.004-0.040 0.012-0.112 0.106-0.219 0.053-0.336 0.003-0.253-0.11-0.513-0.204-0.767-0.313-0.224-0.097-0.444-0.204-0.663-0.312-0.041-0.019-0.062-0.075-0.101-0.103-0.026-0.019-0.068-0.034-0.098-0.027-0.162 0.033-0.244-0.002-0.274-0.162-0.033-0.168-0.035-0.342-0.045-0.453z"></path>
<path fill="#fff" d="M17.874 17.801c0.087 0.039 0.166 0.072 0.242 0.11 0.205 0.1 0.412 0.198 0.615 0.303 0.113 0.059 0.218 0.131 0.326 0.198 0.049 0.030 0.105 0.053 0.143 0.093 0.048 0.049 0.078 0.115 0.121 0.17 0.021 0.026 0.052 0.064 0.079 0.065 0.147 0.004 0.257 0.089 0.374 0.159 0.12 0.072 0.236 0.153 0.359 0.22 0.187 0.104 0.377 0.202 0.568 0.299 0.108 0.055 0.216 0.108 0.328 0.153 0.249 0.101 0.479 0.225 0.685 0.403 0.132 0.114 0.301 0.186 0.448 0.285 0.133 0.090 0.26 0.189 0.387 0.287 0.018 0.013 0.034 0.053 0.027 0.066-0.064 0.104-0.067 0.232-0.167 0.326-0.106 0.1-0.091 0.152 0.004 0.265 0.028 0.034 0.041 0.063 0.010 0.103-0.013 0.018-0.017 0.050-0.011 0.071 0.028 0.098 0.014 0.189-0.034 0.277-0.003 0.004-0.006 0.011-0.004 0.016 0.034 0.126-0.061 0.212-0.103 0.313-0.051 0.12-0.144 0.153-0.254 0.040-0.12-0.124-0.24-0.248-0.359-0.371-0.242-0.25-0.484-0.5-0.724-0.751-0.16-0.168-0.315-0.339-0.472-0.509-0.155-0.169-0.308-0.342-0.466-0.509-0.179-0.19-0.37-0.369-0.543-0.563-0.258-0.293-0.591-0.495-0.882-0.748-0.238-0.207-0.485-0.406-0.725-0.611-0.028-0.024-0.051-0.068-0.052-0.103-0.001-0.018 0.051-0.038 0.078-0.057z"></path>
<path fill="#fff" d="M12.569 20.495c0.063-0.076 0.11-0.5 0.064-0.544-0.052 0.067-0.105 0.484-0.064 0.544zM13.6 19.363c0.013 0.026 0.025 0.052 0.037 0.077 0.016-0.025 0.041-0.049 0.045-0.075 0.028-0.182 0.055-0.363 0.078-0.546 0.003-0.024-0.015-0.050-0.023-0.076-0.014 0.021-0.036 0.041-0.041 0.064-0.034 0.183-0.063 0.367-0.096 0.556zM13.032 19.947c0.020 0.022 0.033 0.036 0.046 0.050 0.013-0.018 0.034-0.034 0.039-0.055 0.045-0.207 0.088-0.414 0.13-0.622 0.004-0.015-0.009-0.033-0.013-0.049-0.019 0.012-0.050 0.021-0.055 0.038-0.050 0.211-0.098 0.423-0.147 0.638zM14.328 18.036c-0.020 0.038-0.037 0.060-0.043 0.084-0.041 0.158 0.036 0.292 0.093 0.429 0.010 0.023 0.039 0.044 0.063 0.051 0.022 0.006 0.056 0 0.074-0.014 0.012-0.010 0.010-0.044 0.004-0.065-0.008-0.033-0.026-0.062-0.035-0.093-0.033-0.103-0.061-0.208-0.095-0.31-0.009-0.026-0.034-0.046-0.061-0.082zM10.972 22.053c0.016-0.13 0.031-0.259 0.048-0.388 0.004-0.028 0.013-0.056 0.011-0.083s-0.016-0.054-0.024-0.080c-0.019 0.020-0.043 0.039-0.054 0.063-0.065 0.147-0.086 0.302-0.087 0.463 0 0.137-0.156 0.43-0.32 0.471-0.063 0.016-0.155-0.013-0.199-0.074-0.086-0.118-0.089-0.246 0.004-0.359 0.063-0.076 0.141-0.138 0.211-0.208 0.148-0.145 0.296-0.29 0.443-0.436 0.073-0.073 0.145-0.149 0.215-0.225 0.026-0.028 0.055-0.057 0.072-0.091 0.056-0.112 0.172-0.162 0.253-0.248 0.125-0.133 0.246-0.272 0.374-0.404 0.071-0.074 0.155-0.138 0.231-0.209 0.080-0.076 0.159-0.155 0.235-0.235 0.24-0.248 0.481-0.493 0.717-0.744 0.209-0.223 0.409-0.455 0.618-0.679 0.082-0.087 0.176-0.162 0.261-0.247 0.019-0.019 0.020-0.056 0.030-0.085-0.032 0.004-0.063 0.004-0.094 0.011-0.020 0.005-0.037 0.025-0.057 0.030-0.107 0.027-0.216 0.048-0.321 0.081-0.056 0.018-0.105 0.058-0.156 0.089-0.048 0.029-0.094 0.060-0.142 0.089l-0.025-0.020c0.011-0.034 0.019-0.071 0.035-0.104 0.049-0.103 0.088-0.214 0.157-0.303 0.044-0.057 0.132-0.079 0.201-0.118 0.023-0.013 0.044-0.029 0.067-0.042 0.019-0.011 0.039-0.025 0.060-0.029 0.053-0.010 0.106-0.015 0.158-0.025 0.036-0.006 0.071-0.015 0.121-0.026-0.034 0.081-0.121 0.141-0.016 0.22 0.054-0.072 0.101-0.138 0.151-0.201 0.070-0.091 0.158-0.148 0.272-0.175 0.071-0.018 0.135-0.062 0.205-0.084 0.176-0.057 0.307-0.182 0.448-0.302 0.143 0.156 0.32 0.23 0.557 0.219-0.145 0.171-0.311 0.282-0.469 0.431-0.043-0.148-0.079-0.281-0.123-0.413-0.012-0.038-0.047-0.068-0.071-0.101-0.003 0.040-0.016 0.081-0.008 0.118 0.032 0.138 0.073 0.275 0.104 0.413 0.006 0.029-0.007 0.073-0.027 0.096-0.087 0.098-0.182 0.189-0.271 0.285-0.13 0.139-0.254 0.286-0.388 0.421-0.142 0.143-0.294 0.274-0.441 0.413-0.135 0.129-0.266 0.26-0.401 0.389-0.234 0.224-0.468 0.446-0.703 0.668-0.196 0.187-0.393 0.372-0.587 0.56-0.056 0.054-0.102 0.117-0.153 0.175-0.012-0.006-0.025-0.013-0.037-0.019 0.033-0.143 0.065-0.285 0.099-0.428 0.012-0.054 0.032-0.108 0.040-0.162 0.004-0.021-0.016-0.047-0.026-0.071-0.017 0.016-0.044 0.027-0.049 0.046-0.071 0.226-0.165 0.445-0.185 0.685-0.004 0.055-0.038 0.116-0.076 0.158-0.116 0.121-0.24 0.234-0.361 0.348-0.019 0.019-0.041 0.034-0.081 0.040 0.012-0.095 0.022-0.19 0.038-0.286s0.039-0.191 0.054-0.287c0.004-0.022-0.012-0.047-0.019-0.071-0.018 0.018-0.047 0.034-0.050 0.055-0.037 0.214-0.069 0.429-0.106 0.644-0.007 0.039-0.019 0.083-0.045 0.11-0.093 0.098-0.192 0.19-0.29 0.285-0.009-0.004-0.018-0.010-0.026-0.014z"></path>
<path fill="#fff" d="M12.976 19.065c-0.102 0.093-0.198 0.188-0.301 0.275-0.165 0.142-0.338 0.274-0.498 0.42-0.148 0.135-0.289 0.279-0.427 0.426-0.178 0.19-0.346 0.392-0.526 0.581-0.11 0.116-0.239 0.214-0.356 0.324-0.153 0.144-0.306 0.289-0.457 0.436-0.154 0.151-0.307 0.304-0.458 0.458-0.018 0.018-0.041 0.048-0.038 0.068 0.012 0.076-0.034 0.117-0.079 0.163-0.082 0.081-0.162 0.165-0.256 0.26 0.009-0.087 0.019-0.162 0.021-0.237 0.005-0.113 0-0.227 0.008-0.339 0.010-0.133 0.022-0.266 0.045-0.398 0.017-0.096 0.057-0.188 0.079-0.283 0.032-0.137 0.018-0.267-0.077-0.381-0.014-0.017-0.021-0.060-0.011-0.072 0.036-0.042 0.081-0.105 0.125-0.107 0.108-0.004 0.172-0.070 0.248-0.123 0.132-0.094 0.266-0.186 0.399-0.279 0.067-0.047 0.131-0.098 0.201-0.14 0.199-0.123 0.399-0.243 0.6-0.361 0.197-0.116 0.397-0.227 0.595-0.339 0.108-0.061 0.214-0.128 0.326-0.181 0.181-0.086 0.366-0.16 0.548-0.243 0.107-0.049 0.193-0.023 0.287 0.071z"></path>
<path fill="#fff" d="M20.636 18.779c0.134-0.034 0.258-0.070 0.384-0.097 0.229-0.048 0.458-0.101 0.689-0.131 0.093-0.011 0.195 0.026 0.288 0.056 0.128 0.041 0.25 0.096 0.376 0.144 0.134 0.051 0.271 0.096 0.403 0.151 0.149 0.062 0.297 0.128 0.442 0.201 0.041 0.020 0.084 0.064 0.098 0.107 0.034 0.104 0.090 0.215 0.010 0.321-0.041 0.053-0.093 0.099-0.147 0.139-0.089 0.068-0.186 0.084-0.294 0.037-0.126-0.055-0.257-0.097-0.389-0.163 0.024-0.008 0.048-0.019 0.072-0.023 0.145-0.025 0.292-0.048 0.437-0.072 0.024-0.004 0.054-0.007 0.070-0.022 0.021-0.020 0.031-0.053 0.046-0.080-0.026-0.006-0.056-0.023-0.080-0.019-0.204 0.033-0.408 0.062-0.608 0.108-0.159 0.037-0.302 0.004-0.444-0.055-0.153-0.063-0.305-0.123-0.458-0.186-0.026-0.011-0.048-0.026-0.093-0.052 0.047-0.014 0.073-0.026 0.101-0.030 0.302-0.034 0.604-0.067 0.906-0.101 0.039-0.004 0.080-0.006 0.114-0.023 0.028-0.014 0.047-0.048 0.069-0.073-0.026-0.011-0.053-0.033-0.077-0.030-0.236 0.022-0.473 0.044-0.708 0.074-0.174 0.022-0.346 0.057-0.52 0.081-0.042 0.006-0.091 0.002-0.131-0.013-0.175-0.068-0.349-0.141-0.524-0.213-0.011-0.004-0.017-0.019-0.032-0.035z"></path>
<path fill="#fff" d="M11.685 18.896c-0.046 0.075-0.093 0.149-0.137 0.225-0.020 0.035-0.037 0.074-0.053 0.113-0.028 0.063-0.024 0.071 0.061 0.116-0.14 0.078-0.271 0.151-0.402 0.224-0.056 0.030-0.111 0.059-0.167 0.089-0.25 0.138-0.499 0.276-0.749 0.411-0.205 0.111-0.412 0.222-0.621 0.328-0.108 0.055-0.224 0.095-0.334 0.147-0.065 0.030-0.112-0.003-0.16-0.033-0.024-0.014-0.048-0.031-0.065-0.051-0.034-0.038-0.098-0.051-0.083-0.13 0.019-0.106 0.059-0.178 0.17-0.214 0.090-0.028 0.172-0.082 0.256-0.129 0.153-0.087 0.302-0.179 0.456-0.265 0.105-0.059 0.214-0.11 0.346-0.178-0.060 0.144-0.111 0.268-0.164 0.392-0.019 0.046-0.047 0.089-0.062 0.137-0.006 0.021 0.010 0.049 0.016 0.073 0.022-0.011 0.056-0.018 0.064-0.035 0.086-0.178 0.175-0.355 0.247-0.54 0.030-0.074 0.071-0.123 0.137-0.156 0.175-0.089 0.347-0.183 0.526-0.262 0.187-0.083 0.38-0.151 0.57-0.227 0.044-0.018 0.085-0.041 0.127-0.063 0.007 0.010 0.015 0.019 0.022 0.027z"></path>
<path fill="#fff" d="M21.594 18.46c-0.118 0.015-0.213 0.019-0.304 0.041-0.262 0.064-0.533 0.091-0.786 0.192-0.048 0.019-0.122-0.014-0.179-0.036-0.19-0.071-0.381-0.144-0.567-0.224-0.123-0.053-0.237-0.126-0.36-0.181-0.194-0.086-0.391-0.164-0.603-0.252 0.058-0.022 0.105-0.045 0.153-0.056 0.124-0.029 0.249-0.052 0.373-0.077 0.044-0.008 0.089-0.008 0.132-0.018 0.062-0.012 0.122-0.033 0.183-0.043 0.047-0.009 0.101-0.021 0.143-0.007 0.167 0.055 0.328 0.123 0.494 0.181 0.131 0.045 0.265 0.078 0.394 0.123 0.19 0.064 0.376 0.134 0.563 0.205 0.115 0.044 0.227 0.095 0.362 0.153z"></path>
<path fill="#fff" d="M21.359 21.891c-0.174-0.040-0.324-0.074-0.473-0.108-0.004 0.010-0.008 0.019-0.011 0.029 0.040 0.075 0.108 0.109 0.188 0.136 0.171 0.056 0.351 0.1 0.507 0.183 0.135 0.072 0.25 0.19 0.257 0.365 0.004 0.098-0.161 0.198-0.25 0.158-0.193-0.088-0.355-0.216-0.505-0.368-0.165-0.167-0.353-0.312-0.517-0.48-0.153-0.157-0.289-0.331-0.433-0.498l0.011-0.023c0.056 0.013 0.112 0.024 0.167 0.040 0.153 0.047 0.308 0.087 0.457 0.145 0.142 0.054 0.303 0.071 0.41 0.199 0.057 0.069 0.118 0.135 0.194 0.222z"></path>
<path fill="#fff" d="M18.581 19.764c0.192 0.061 0.376 0.117 0.559 0.176 0.147 0.047 0.294 0.095 0.44 0.146 0.034 0.011 0.067 0.031 0.093 0.055 0.134 0.131 0.265 0.265 0.398 0.398 0.082 0.081 0.165 0.161 0.247 0.242-0.004 0.009-0.008 0.017-0.012 0.026-0.108-0.036-0.216-0.072-0.324-0.108-0.19-0.063-0.384-0.117-0.571-0.189-0.093-0.035-0.185-0.088-0.257-0.156-0.195-0.182-0.379-0.375-0.567-0.563-0.004-0.003-0.003-0.011-0.005-0.028z"></path>
<path fill="#fff" d="M12.56 18.486c-0.013-0.003-0.026-0.005-0.041-0.008-0.042 0.088-0.086 0.177-0.125 0.266-0.004 0.011 0.008 0.041 0.014 0.041 0.017 0.001 0.042-0.004 0.049-0.015 0.042-0.066 0.083-0.133 0.116-0.204 0.010-0.020-0.008-0.053-0.013-0.080zM11.594 19.314c0.087-0.182 0.164-0.352 0.251-0.516 0.019-0.035 0.073-0.054 0.115-0.075 0.139-0.070 0.279-0.141 0.421-0.204s0.293-0.114 0.437-0.175c0.101-0.041 0.198-0.092 0.298-0.137 0.053-0.024 0.108-0.046 0.169-0.071-0.049 0.101-0.097 0.19-0.138 0.282-0.023 0.049-0.029 0.106-0.054 0.153-0.018 0.034-0.050 0.069-0.085 0.082-0.126 0.050-0.26 0.082-0.384 0.138-0.205 0.092-0.404 0.197-0.604 0.298-0.138 0.071-0.275 0.144-0.428 0.223z"></path>
<path fill="#fff" d="M19.44 19.889c-0.165-0.051-0.308-0.1-0.453-0.138-0.169-0.046-0.331-0.131-0.517-0.104-0.020 0.004-0.049-0.014-0.064-0.031-0.145-0.159-0.321-0.292-0.416-0.494-0.018-0.039-0.056-0.068-0.103-0.122 0.049 0.017 0.074 0.025 0.099 0.034 0.218 0.076 0.437 0.147 0.652 0.23 0.123 0.047 0.247 0.088 0.345 0.188 0.142 0.146 0.294 0.282 0.458 0.437z"></path>
<path fill="#fff" d="M17.911 17.593c0.126-0.019 0.251-0.039 0.377-0.056 0.176-0.023 0.353-0.045 0.53-0.064 0.030-0.004 0.064 0.013 0.094 0.024 0.145 0.050 0.289 0.101 0.434 0.153 0.041 0.014 0.079 0.032 0.132 0.053-0.107 0.014-0.205 0.020-0.299 0.041-0.172 0.037-0.35 0.064-0.509 0.134-0.096 0.041-0.159 0.011-0.229-0.017-0.164-0.064-0.324-0.137-0.486-0.207-0.019-0.009-0.034-0.026-0.050-0.040 0.002-0.007 0.004-0.015 0.005-0.022z"></path>
<path fill="#fff" d="M17.025 18.256c0.605 0.099 1.115 0.354 1.509 0.806-0.171-0.057-0.352-0.121-0.535-0.179-0.071-0.022-0.144-0.040-0.218-0.045-0.111-0.008-0.191-0.071-0.268-0.138-0.161-0.143-0.32-0.29-0.488-0.443z"></path>
<path fill="#fff" d="M20.81 21.329c-0.12-0.036-0.238-0.080-0.36-0.107-0.135-0.030-0.263-0.104-0.412-0.067-0.034 0.009-0.090-0.035-0.123-0.067-0.115-0.11-0.223-0.227-0.335-0.339-0.037-0.037-0.080-0.068-0.115-0.117 0.056 0.016 0.111 0.030 0.167 0.048 0.212 0.068 0.42 0.151 0.635 0.202 0.162 0.039 0.258 0.147 0.361 0.257 0.026 0.028 0.056 0.053 0.086 0.078 0.035 0.033 0.071 0.064 0.107 0.096-0.004 0.005-0.007 0.011-0.011 0.015z"></path>
</svg>
