<!-- Generated by IcoMoon.io -->
<svg version="1.1" xmlns="http://www.w3.org/2000/svg" width="32" height="32" viewBox="0 0 32 32">
<title>idoneth-deepkin-ally</title>
<path fill="#fff" d="M24.039 9.816c-0.069 0.080-0.108 0.137-0.158 0.179-0.23 0.193-0.467 0.379-0.695 0.574-0.334 0.287-0.663 0.581-0.995 0.87-0.119 0.105-0.147 0.208-0.086 0.37 0.32 0.864 0.281 1.715-0.128 2.545-0.064 0.132-0.112 0.272-0.176 0.403-0.058 0.12-0.12 0.24-0.195 0.35-0.258 0.381-0.524 0.756-0.784 1.136-0.392 0.575-0.886 1.037-1.489 1.386-0.114 0.066-0.24 0.075-0.357 0.114-0.109 0.035-0.179 0.176-0.286 0.231-0.422 0.217-0.864 0.38-1.343 0.424-0.216 0.020-0.428 0.075-0.644 0.1-0.406 0.046-0.803-0.006-1.193-0.123-0.349-0.105-0.704-0.191-1.047-0.311-0.568-0.198-1.122-0.441-1.621-0.775-0.516-0.344-0.821-0.851-0.898-1.478-0.030-0.254 0.046-0.482 0.197-0.683 0.32-0.426 0.747-0.673 1.278-0.724 0.28-0.027 0.561-0.040 0.842-0.043 0.165-0.002 0.331 0.026 0.496 0.043 0.059 0.007 0.128 0.029 0.117 0.098-0.007 0.046-0.056 0.108-0.099 0.123-0.175 0.059-0.354 0.109-0.534 0.151-0.324 0.077-0.645 0.16-0.944 0.31-0.225 0.113-0.431 0.25-0.593 0.446-0.171 0.207-0.16 0.4 0.064 0.556 0.193 0.135 0.398 0.255 0.612 0.356 0.569 0.266 1.178 0.416 1.778 0.596 1.148 0.344 2.252 0.151 3.34-0.248 0.707-0.26 1.366-0.617 1.898-1.163 0.324-0.333 0.618-0.697 0.915-1.056 0.148-0.178 0.246-0.389 0.3-0.616 0.044-0.184 0.044-0.369-0.001-0.552-0.185-0.752-0.548-1.382-1.229-1.8-0.441-0.272-0.872-0.56-1.37-0.722-0.427-0.138-0.866-0.224-1.31-0.282-0.634-0.082-1.268-0.166-1.904-0.216-0.341-0.026-0.688 0.007-1.031 0.037-0.682 0.058-1.353 0.194-2.019 0.345-0.167 0.038-0.335 0.089-0.491 0.161-0.454 0.206-0.905 0.418-1.35 0.641-0.591 0.296-1.087 0.715-1.506 1.225-0.13 0.158-0.258 0.318-0.387 0.477-0.049 0.060-0.098 0.119-0.216 0.109 0-0.050-0.012-0.106 0.002-0.152 0.074-0.225 0.147-0.45 0.237-0.668 0.046-0.11 0.122-0.211 0.198-0.303 0.347-0.414 0.766-0.75 1.19-1.080 0.141-0.11 0.285-0.217 0.426-0.328 0.049-0.039 0.092-0.083 0.151-0.137-0.055-0.071-0.093-0.138-0.148-0.187-0.263-0.231-0.531-0.459-0.799-0.685-0.156-0.132-0.319-0.256-0.476-0.387-0.046-0.039-0.083-0.089-0.147-0.159 0.091-0.038 0.151-0.083 0.212-0.085 0.158-0.004 0.319-0.005 0.475 0.021 0.213 0.037 0.423 0.098 0.632 0.155 0.266 0.072 0.483 0.231 0.689 0.404 0.041 0.034 0.059 0.109 0.067 0.167 0.025 0.196 0.056 0.235 0.253 0.224 0.106-0.006 0.218-0.021 0.317-0.062 0.408-0.165 0.813-0.342 1.218-0.515 0.033-0.014 0.062-0.040 0.108-0.069-0.032-0.048-0.053-0.092-0.086-0.128-0.263-0.288-0.524-0.578-0.795-0.858-0.123-0.128-0.272-0.231-0.403-0.352-0.079-0.072-0.161-0.149-0.218-0.238-0.072-0.112-0.008-0.223 0.119-0.198 0.443 0.086 0.902 0.125 1.274 0.431 0.216 0.179 0.445 0.342 0.668 0.515 0.137 0.107 0.136 0.109 0.086 0.281-0.029 0.097-0.008 0.152 0.091 0.203 0.175 0.091 0.361 0.119 0.558 0.083 0.257-0.048 0.515-0.092 0.774-0.133 0.62-0.095 1.236-0.034 1.852 0.049 0.419 0.057 0.828 0.151 1.232 0.275 0.151 0.047 0.31 0.083 0.467 0.094 0.229 0.016 0.277-0.062 0.236-0.289-0.012-0.062-0.007-0.15 0.030-0.195 0.323-0.404 0.617-0.834 1.036-1.151 0.030-0.023 0.061-0.049 0.095-0.063 0.073-0.032 0.133 0.007 0.126 0.085-0.006 0.056-0.027 0.111-0.047 0.165-0.177 0.493-0.356 0.985-0.534 1.478-0.013 0.035-0.027 0.072-0.038 0.108-0.044 0.144-0.033 0.176 0.097 0.249 0.139 0.078 0.29 0.14 0.419 0.23 0.282 0.199 0.556 0.408 0.827 0.621 0.117 0.092 0.235 0.142 0.387 0.119 0.143-0.022 0.247-0.091 0.27-0.232 0.039-0.232 0.184-0.35 0.39-0.427 0.371-0.137 0.736-0.293 1.11-0.423 0.141-0.049 0.299-0.054 0.45-0.071 0.039-0.004 0.081 0.025 0.168 0.053z"></path>
<path fill="#fff" d="M18.678 23.7c0.002-0.001 0.003-0.001 0.005-0.002-0.141-0.287-0.361-0.785-0.457-1.003-0.042-0.001-0.085-0.002-0.128-0.007-0.115-0.011-0.239 0.022-0.353 0.053-0.16 0.044-0.312 0.119-0.473 0.153s-0.326 0.031-0.5 0.046c-0.012-0.058-0.018-0.077-0.019-0.096-0.012-0.581-0.025-1.162-0.035-1.744-0.002-0.17-0.001-0.172 0.179-0.203 0.416-0.070 0.832-0.135 1.247-0.209 0.451-0.080 0.863-0.274 1.276-0.459 0.040-0.018 0.070-0.053 0.106-0.079 0.044-0.031 0.092-0.058 0.134-0.092 0.052-0.042 0.118-0.081 0.143-0.138 0.041-0.088 0.090-0.128 0.189-0.123 0.167 0.009 0.314-0.061 0.444-0.156 0.17-0.125 0.337-0.254 0.495-0.393 0.456-0.401 0.906-0.808 1.358-1.213 0.048-0.042 0.099-0.083 0.136-0.134 0.35-0.479 0.743-0.929 1.022-1.456 0.107-0.203 0.184-0.421 0.268-0.634 0.016-0.038 0.007-0.086 0.010-0.133-0.122-0.019-0.187 0.047-0.246 0.123-0.154 0.196-0.312 0.389-0.461 0.589-0.446 0.595-0.999 1.072-1.617 1.483-1.166 0.775-2.445 1.269-3.806 1.565-0.242 0.052-0.494 0.074-0.742 0.081-0.599 0.017-1.2 0.083-1.798-0.027-0.408-0.076-0.815-0.159-1.222-0.241-0.144-0.029-0.286-0.069-0.429-0.1-0.535-0.116-1.027-0.337-1.517-0.575-0.654-0.317-1.213-0.756-1.739-1.242-0.468-0.432-0.597-0.966-0.427-1.573 0.038-0.134 0.091-0.267 0.153-0.392 0.176-0.347 0.352-0.696 0.546-1.033 0.277-0.482 0.67-0.854 1.166-1.108 0.375-0.193 0.754-0.377 1.139-0.55 0.547-0.245 1.129-0.366 1.722-0.43 0.578-0.063 1.155-0.131 1.734-0.182 0.847-0.074 1.655 0.068 2.413 0.464 0.107 0.056 0.209 0.124 0.305 0.198 0.285 0.225 0.323 0.524 0.090 0.803-0.373 0.445-0.825 0.786-1.389 0.949-0.398 0.115-0.805 0.2-1.208 0.3-0.071 0.018-0.174 0.007-0.18 0.107-0.007 0.104 0.093 0.128 0.171 0.151 0.282 0.084 0.562 0.172 0.847 0.245 0.343 0.088 0.685 0.045 1.022-0.045 0.041-0.012 0.087-0.034 0.113-0.066 0.048-0.058 0.096-0.096 0.176-0.095 0.033 0.001 0.067-0.026 0.099-0.043 0.061-0.032 0.121-0.065 0.182-0.097 0.094-0.051 0.198-0.088 0.28-0.154 0.334-0.264 0.526-0.618 0.622-1.029 0.066-0.282 0.048-0.544-0.13-0.785-0.19-0.257-0.366-0.526-0.568-0.772-0.111-0.135-0.257-0.249-0.404-0.346-0.137-0.090-0.292-0.161-0.449-0.213-0.412-0.139-0.823-0.281-1.243-0.387-0.27-0.068-0.556-0.074-0.835-0.111-0.568-0.077-1.135-0.002-1.702 0.013-0.697 0.020-1.344 0.221-1.98 0.484-0.962 0.397-1.725 1.035-2.298 1.901-0.123 0.186-0.241 0.376-0.365 0.563-0.282 0.424-0.477 0.887-0.629 1.371-0.075 0.24-0.114 0.485-0.114 0.736 0.001 0.179 0.008 0.358-0.001 0.537-0.014 0.292 0.069 0.552 0.218 0.8 0.491 0.821 1.143 1.486 1.945 2.005 1.227 0.794 2.563 1.287 4.021 1.442 0.128 0.013 0.254 0.031 0.38 0.049 0.012 0.002 0.024 0.008 0.036 0.013 0.038 0.133 0.049 1.582 0.015 1.82-0.298-0.007-0.596-0.004-0.892-0.026-0.156-0.011-0.317-0.047-0.46-0.108-0.086-0.036-0.163-0.061-0.253-0.058-0.1 0.005-0.2 0.005-0.299 0-0.141 0.543-0.284 0.877-0.412 1.081 0.006 0 0.013 0.001 0.018 0.002-0.071 0.191-0.174 0.362-0.196 0.544-0.054 0.432-0.052 0.867 0.082 1.291 0.198 0.627 0.386 1.257 0.588 1.884 0.054 0.168 0.128 0.334 0.219 0.486 0.143 0.241 0.308 0.47 0.465 0.703 0.034 0.049 0.077 0.093 0.115 0.14l0.061-0.024c-0.007-0.072-0.004-0.145-0.020-0.214-0.066-0.28-0.14-0.558-0.206-0.837-0.141-0.597-0.285-1.193-0.417-1.791-0.084-0.38-0.025-0.736 0.213-1.055 0.124-0.167 0.287-0.244 0.491-0.253 0.262-0.010 0.484 0.093 0.701 0.225 0.095 0.058 0.147 0.133 0.16 0.244 0.010 0.088 0.040 0.173 0.057 0.26 0.028 0.137 0.068 0.274 0.076 0.413 0.023 0.434 0.044 0.868 0.046 1.302 0.003 0.69-0.008 1.381-0.016 2.070-0.010 0.884 0.105 1.76 0.181 2.638 0.004 0.050 0.019 0.102 0.042 0.146 0.046 0.087 0.132 0.088 0.176 0.001 0.028-0.056 0.044-0.121 0.052-0.184 0.033-0.291 0.067-0.584 0.089-0.877 0.047-0.624 0.085-1.249 0.128-1.873 0.011-0.16 0.020-0.319 0.042-0.477 0.059-0.411 0.132-0.82 0.188-1.231 0.058-0.417 0.099-0.837 0.152-1.255 0.047-0.366 0.102-0.732 0.15-1.098 0.011-0.085 0.055-0.142 0.12-0.185 0.156-0.106 0.328-0.17 0.52-0.169 0.206 0.002 0.347 0.094 0.398 0.292 0.041 0.16 0.075 0.328 0.069 0.491-0.029 0.78-0.093 1.556-0.24 2.323-0.063 0.326-0.124 0.653-0.181 0.98-0.012 0.071-0.044 0.152 0.060 0.225 0.039-0.054 0.086-0.103 0.114-0.161 0.11-0.23 0.222-0.46 0.316-0.697 0.309-0.781 0.551-1.579 0.609-2.424 0.013-0.184 0.043-0.37 0.094-0.547 0.073-0.254 0.080-0.505 0.021-0.757-0.045-0.197-0.105-0.391-0.165-0.611z"></path>
<path fill="#fff" d="M27.884 12.973c-0.030 0.001-0.060-0.016-0.091-0.023-0.079-0.017-0.157-0.043-0.237-0.049-0.101-0.008-0.204-0.003-0.306-0.001-0.085 0.003-0.156-0.016-0.233-0.060-0.147-0.083-0.293-0.175-0.477-0.176-0.133-0.001-0.192-0.090-0.225-0.243-0.030-0.137-0.063-0.273-0.103-0.407s-0.103-0.263-0.129-0.4c-0.042-0.215-0.113-0.417-0.204-0.615-0.029-0.063-0.047-0.131-0.067-0.198-0.041-0.133-0.077-0.269-0.121-0.401-0.152-0.446-0.319-0.888-0.457-1.339-0.064-0.212-0.138-0.406-0.281-0.578-0.129-0.156-0.244-0.325-0.364-0.491-0.041-0.056-0.071-0.121-0.113-0.176-0.153-0.196-0.32-0.383-0.462-0.587-0.1-0.145-0.176-0.31-0.248-0.473-0.053-0.121-0.042-0.246 0.030-0.366 0.154-0.256 0.3-0.518 0.45-0.775 0.035-0.059 0.063-0.115 0.007-0.173-0.063-0.066-0.136-0.062-0.211-0.021-0.244 0.137-0.508 0.237-0.723 0.423-0.033 0.029-0.075 0.048-0.114 0.069-0.068 0.038-0.129 0.035-0.192-0.021-0.158-0.139-0.316-0.277-0.481-0.408-0.073-0.058-0.162-0.096-0.244-0.144-0.126-0.074-0.263-0.133-0.375-0.225-0.182-0.149-0.347-0.317-0.569-0.413-0.21-0.091-0.411-0.209-0.627-0.279-0.17-0.055-0.31-0.142-0.445-0.25-0.040-0.032-0.077-0.070-0.123-0.090-0.262-0.115-0.521-0.231-0.768-0.38-0.266-0.161-0.569-0.208-0.883-0.198-0.17 0.006-0.342 0.007-0.51-0.061-0.104-0.042-0.223-0.050-0.336-0.067-0.281-0.044-0.562-0.086-0.854-0.13-0.072-0.081-0.093-0.189-0.090-0.309 0.002-0.082-0.011-0.165-0.024-0.246-0.016-0.1-0.031-0.199-0.059-0.295-0.052-0.178-0.065-0.359-0.072-0.542-0.002-0.049-0.011-0.109-0.040-0.147-0.11-0.137-0.118-0.3-0.147-0.464-0.066-0.356-0.151-0.71-0.234-1.063-0.014-0.061-0.012-0.14-0.116-0.182-0.034 0.184-0.066 0.355-0.095 0.527-0.020 0.111-0.037 0.223-0.054 0.335-0.009 0.056-0.016 0.113-0.023 0.17-0.023 0.164-0.037 0.33-0.072 0.491-0.068 0.319-0.147 0.635-0.22 0.952-0.010 0.043-0.021 0.087-0.021 0.132-0.002 0.191-0.011 0.377-0.066 0.566-0.033 0.115-0.068 0.181-0.183 0.204-0.068 0.013-0.136 0.034-0.203 0.054-0.226 0.067-0.454 0.126-0.675 0.207-0.257 0.095-0.505 0.211-0.757 0.315-0.094 0.040-0.193 0.066-0.286 0.108-0.255 0.114-0.507 0.237-0.761 0.352-0.226 0.101-0.455 0.198-0.683 0.296-0.203 0.088-0.402 0.197-0.613 0.258-0.226 0.067-0.418 0.184-0.61 0.309-0.198 0.128-0.392 0.263-0.594 0.385-0.085 0.051-0.185 0.096-0.282 0.103-0.145 0.012-0.235 0.051-0.273 0.206-0.035 0.151-0.161 0.189-0.299 0.114-0.094-0.051-0.191-0.096-0.287-0.145-0.131-0.064-0.276-0.111-0.391-0.197-0.358-0.266-0.705-0.547-1.056-0.822-0.035-0.027-0.074-0.049-0.111-0.072-0.101-0.064-0.211-0.119-0.303-0.193-0.212-0.175-0.413-0.36-0.621-0.538-0.034-0.029-0.072-0.052-0.11-0.076-0.147-0.090-0.3-0.17-0.439-0.271-0.097-0.072-0.19-0.091-0.324-0.058 0.063 0.113 0.113 0.223 0.181 0.321 0.252 0.361 0.51 0.717 0.766 1.074 0.145 0.203 0.277 0.416 0.439 0.604 0.177 0.206 0.314 0.432 0.445 0.667 0.161 0.29 0.34 0.57 0.509 0.854 0.035 0.060 0.086 0.123 0.091 0.187 0.012 0.17 0.006 0.342-0.002 0.513-0.002 0.048-0.017 0.109-0.049 0.14-0.192 0.188-0.3 0.43-0.399 0.667-0.198 0.474-0.449 0.929-0.577 1.432-0.026 0.098-0.046 0.198-0.077 0.294-0.096 0.303-0.244 0.585-0.324 0.896-0.069 0.271-0.163 0.533-0.141 0.818 0.010 0.133-0.029 0.249-0.1 0.352-0.060 0-0.121-0.019-0.157 0.003-0.183 0.114-0.398 0.122-0.594 0.193-0.254 0.093-0.491 0.234-0.761 0.288-0.136 0.027-0.271 0.113-0.402 0.103-0.292-0.021-0.566 0.086-0.851 0.091-0.132 0.002-0.242 0.058-0.299 0.221 0.083 0 0.144-0.002 0.206 0 0.147 0.006 0.295-0.001 0.439 0.023 0.193 0.031 0.383 0.083 0.573 0.132 0.215 0.055 0.429 0.117 0.643 0.175 0.066 0.018 0.133 0.035 0.198 0.055 0.145 0.042 0.291 0.079 0.434 0.13 0.092 0.033 0.177 0.087 0.307 0.153 0.011 0.069 0.030 0.18 0.044 0.291 0.010 0.082-0.006 0.171 0.020 0.246 0.082 0.237 0.125 0.478 0.129 0.728 0.001 0.038 0.008 0.076 0.015 0.114 0.041 0.23 0.082 0.459 0.124 0.688 0.030 0.161 0.057 0.324 0.099 0.483 0.072 0.277 0.184 0.546 0.227 0.826 0.038 0.245 0.091 0.479 0.156 0.719 0.071 0.254 0.189 0.469 0.321 0.685 0.049 0.080 0.125 0.142 0.177 0.22 0.151 0.229 0.292 0.463 0.443 0.692 0.099 0.147 0.208 0.288 0.308 0.426-0.086 0.216-0.169 0.422-0.253 0.626-0.012 0.029-0.036 0.053-0.058 0.076-0.28 0.299-0.529 0.621-0.716 0.987-0.023 0.045-0.046 0.104-0.086 0.124-0.156 0.080-0.127 0.248-0.189 0.372-0.040 0.081 0.030 0.173 0.123 0.17 0.059-0.002 0.128-0.023 0.176-0.057 0.13-0.091 0.257-0.189 0.375-0.296 0.141-0.126 0.267-0.267 0.476-0.278 0.039-0.002 0.077-0.042 0.114-0.067 0.058-0.039 0.115-0.080 0.173-0.12 0.188-0.132 0.384-0.252 0.561-0.397 0.192-0.157 0.31-0.171 0.498-0.007 0.173 0.151 0.341 0.308 0.514 0.457 0.15 0.128 0.305 0.252 0.459 0.375 0.169 0.133 0.359 0.244 0.504 0.398 0.128 0.136 0.274 0.226 0.431 0.31 0.118 0.063 0.242 0.112 0.358 0.176 0.088 0.049 0.165 0.119 0.253 0.168 0.14 0.077 0.175 0.044 0.315 0.117 0.159-0.249 0.331-0.716 0.425-0.991-0.031-0.008-0.062-0.016-0.092-0.026-0.215-0.073-0.333-0.029-0.491-0.212-0.108-0.125-0.253-0.198-0.404-0.246-0.226-0.072-0.407-0.208-0.589-0.348-0.030-0.023-0.057-0.057-0.091-0.070-0.268-0.105-0.482-0.283-0.686-0.477-0.097-0.092-0.2-0.177-0.302-0.263-0.127-0.106-0.261-0.203-0.383-0.314-0.347-0.317-0.687-0.642-0.983-1.011-0.165-0.204-0.323-0.412-0.427-0.654-0.013-0.029-0.036-0.055-0.041-0.086-0.043-0.227-0.129-0.436-0.216-0.649-0.064-0.16-0.068-0.344-0.1-0.518-0.003-0.018-0.001-0.039-0.006-0.057-0.065-0.212-0.132-0.423-0.196-0.635-0.015-0.048-0.021-0.099-0.031-0.147-0.014-0.062-0.026-0.124-0.044-0.185-0.062-0.199-0.137-0.394-0.188-0.597-0.071-0.284-0.090-0.574-0.088-0.868 0.004-0.829-0.009-1.658-0.007-2.488 0.001-0.156 0.031-0.316 0.067-0.469 0.086-0.365 0.183-0.726 0.28-1.088 0.026-0.098 0.068-0.192 0.104-0.288 0.036-0.1 0.073-0.201 0.119-0.323 0.083-0.022 0.146-0.098 0.172-0.204 0.143-0.568 0.401-1.088 0.673-1.602 0.106-0.198 0.201-0.389 0.398-0.537 0.331-0.246 0.618-0.548 0.932-0.818 0.203-0.174 0.417-0.334 0.63-0.495 0.081-0.059 0.177-0.097 0.261-0.152 0.154-0.101 0.317-0.193 0.452-0.316 0.113-0.102 0.232-0.175 0.375-0.209 0.151-0.036 0.279-0.114 0.415-0.186 0.286-0.152 0.588-0.275 0.883-0.408 0.11-0.049 0.227-0.086 0.333-0.144 0.23-0.125 0.473-0.215 0.72-0.301 0.22-0.077 0.421-0.207 0.629-0.316 0.147-0.077 0.306-0.115 0.463-0.165 0.373-0.118 0.747-0.041 1.12-0.073 0.093-0.008 0.184-0.040 0.277-0.051 0.283-0.031 0.562-0.079 0.84 0.059 0.244 0.122 0.506 0.206 0.786 0.209 0.192 0.002 0.384 0.004 0.575 0.016 0.074 0.004 0.147 0.033 0.221 0.054 0.109 0.031 0.219 0.059 0.324 0.103 0.074 0.031 0.139 0.086 0.208 0.13 0.091 0.058 0.179 0.118 0.273 0.171 0.053 0.032 0.116 0.049 0.17 0.081 0.091 0.051 0.179 0.087 0.289 0.081 0.066-0.004 0.149 0.012 0.197 0.053 0.106 0.089 0.235 0.124 0.352 0.186 0.11 0.059 0.214 0.138 0.308 0.223 0.317 0.288 0.626 0.584 0.942 0.873 0.126 0.116 0.259 0.226 0.388 0.339 0.020 0.016 0.039 0.038 0.062 0.044 0.213 0.056 0.315 0.25 0.47 0.379 0.052 0.043 0.097 0.106 0.121 0.17 0.081 0.209 0.227 0.365 0.383 0.516 0.022 0.022 0.047 0.044 0.063 0.071 0.187 0.305 0.398 0.598 0.551 0.918 0.147 0.309 0.235 0.645 0.35 0.97 0.023 0.066 0.053 0.131 0.069 0.198 0.040 0.159 0.106 0.31 0.091 0.485-0.007 0.089 0.044 0.184 0.069 0.276 0.058 0.215 0.116 0.431 0.174 0.646 0.106 0.393 0.221 0.785 0.314 1.181 0.042 0.177 0.047 0.365 0.060 0.548 0.011 0.158-0.003 0.313-0.061 0.468-0.033 0.090-0.002 0.202-0.016 0.302-0.050 0.366-0.108 0.73-0.161 1.096-0.016 0.106-0.023 0.214-0.044 0.319-0.029 0.15-0.072 0.296-0.098 0.446-0.043 0.24-0.091 0.477-0.214 0.691-0.003 0.005-0.006 0.012-0.007 0.017-0.081 0.512-0.382 0.939-0.556 1.415-0.077 0.212-0.225 0.398-0.34 0.595-0.031 0.055-0.062 0.111-0.089 0.169-0.057 0.12-0.107 0.244-0.166 0.363-0.054 0.108-0.114 0.213-0.178 0.315-0.050 0.081-0.103 0.163-0.168 0.232-0.249 0.264-0.498 0.529-0.757 0.783-0.145 0.142-0.31 0.265-0.463 0.398-0.126 0.107-0.249 0.218-0.375 0.325-0.11 0.095-0.219 0.17-0.38 0.19-0.149 0.020-0.29 0.123-0.43 0.197-0.19 0.102-0.376 0.212-0.565 0.317-0.016 0.010-0.036 0.012-0.053 0.022-0.242 0.15-0.376 0.193-0.618 0.342 0.108 0.328 0.296 0.632 0.435 0.863 0.268-0.115 0.429-0.129 0.708-0.219 0.224-0.072 0.427-0.225 0.623-0.365 0.207-0.147 0.386-0.333 0.593-0.48 0.194-0.138 0.372-0.31 0.618-0.368 0.090-0.021 0.186-0.065 0.252-0.127 0.184-0.173 0.352-0.361 0.526-0.541 0.090 0.011 0.177 0.032 0.263 0.030 0.156-0.002 0.303 0.015 0.445 0.083 0.133 0.063 0.275 0.102 0.406 0.168 0.154 0.077 0.264 0.026 0.37-0.091-0.013-0.034-0.018-0.068-0.037-0.092-0.208-0.257-0.286-0.582-0.449-0.862-0.063-0.109-0.050-0.202 0.026-0.299 0.093-0.12 0.18-0.244 0.268-0.37 0.123-0.177 0.217-0.372 0.319-0.562 0.249-0.468 0.463-0.948 0.599-1.46 0.008-0.031 0.023-0.060 0.033-0.091 0.118-0.363 0.241-0.724 0.352-1.089 0.080-0.262 0.123-0.536 0.218-0.792 0.087-0.237 0.121-0.485 0.14-0.725 0.022-0.278 0.204-0.461 0.301-0.691 0.008-0.021 0.035-0.038 0.058-0.049 0.187-0.096 0.366-0.232 0.565-0.277 0.272-0.061 0.494-0.202 0.729-0.328 0.072-0.040 0.138-0.093 0.212-0.129 0.147-0.073 0.297-0.142 0.449-0.207 0.073-0.031 0.149-0.054 0.203-0.112-0.257-0.157-0.529-0.202-0.813-0.191z"></path>
</svg>
