<!-- Generated by IcoMoon.io -->
<svg version="1.1" xmlns="http://www.w3.org/2000/svg" width="32" height="32" viewBox="0 0 32 32">
<title>khorne-ally</title>
<path fill="#fff" d="M6.661 11.762c-0.021 0.094-0.022 0.179-0.058 0.247-0.152 0.29-0.22 0.611-0.324 0.918-0.044 0.129-0.054 0.269-0.082 0.404-0.018 0.091-0.037 0.181-0.058 0.271-0.037 0.158-0.102 0.314-0.108 0.472-0.012 0.438-0.002 0.877 0.001 1.317 0.004 0.369 0.012 0.738 0.013 1.106 0.003 0.364-0.001 0.729 0.002 1.092 0.001 0.053 0.012 0.109 0.032 0.158 0.076 0.183 0.082 0.38 0.134 0.569 0.037 0.133 0.070 0.262 0.126 0.388 0.032 0.075 0.044 0.16 0.061 0.241 0.006 0.029-0.008 0.066 0.006 0.087 0.087 0.134 0.079 0.292 0.115 0.439 0.017 0.071 0.040 0.144 0.077 0.207 0.066 0.108 0.055 0.225 0.073 0.341 0.019 0.118 0.108 0.219 0.096 0.352-0.005 0.054 0.012 0.117 0.036 0.167 0.089 0.192 0.18 0.383 0.197 0.599 0.001 0.019 0.006 0.039 0.015 0.056 0.112 0.208 0.189 0.435 0.348 0.616 0.077 0.088 0.139 0.192 0.217 0.279 0.16 0.18 0.326 0.355 0.49 0.531 0.107 0.115 0.248 0.198 0.32 0.346 0.012 0.026 0.036 0.048 0.059 0.066 0.146 0.11 0.293 0.216 0.439 0.326 0.046 0.036 0.092 0.073 0.134 0.114 0.114 0.108 0.224 0.22 0.338 0.327 0.069 0.063 0.143 0.119 0.215 0.179 0.141 0.116 0.266 0.258 0.439 0.321 0.197 0.072 0.349 0.203 0.506 0.328 0.122 0.097 0.257 0.159 0.398 0.22 0.148 0.064 0.298 0.131 0.434 0.218 0.102 0.065 0.183 0.164 0.273 0.246 0.021 0.019 0.047 0.037 0.074 0.045 0.312 0.099 0.599 0.279 0.939 0.289 0.043 0.002 0.085 0.022 0.127 0.037 0.225 0.079 0.454 0.127 0.695 0.112 0.118-0.007 0.237-0.004 0.355 0 0.043 0.001 0.090 0.009 0.125 0.030 0.163 0.101 0.342 0.149 0.53 0.157 0.247 0.011 0.493 0.006 0.74 0.012 0.074 0.002 0.147 0.012 0.22 0.022 0.121 0.018 0.241 0.056 0.363 0.058 0.464 0.006 0.928 0.004 1.392 0.001 0.078-0.001 0.159-0.014 0.233-0.037 0.127-0.037 0.252-0.085 0.377-0.131 0.195-0.071 0.392-0.126 0.604-0.106 0.117 0.011 0.237 0.014 0.353-0.004 0.233-0.037 0.464-0.085 0.694-0.138 0.11-0.025 0.228-0.049 0.319-0.109 0.192-0.127 0.368-0.281 0.599-0.34 0.039-0.010 0.069-0.053 0.106-0.078 0.069-0.047 0.134-0.106 0.21-0.134 0.234-0.085 0.428-0.238 0.64-0.362 0.183-0.109 0.358-0.249 0.593-0.229 0.022 0.002 0.052-0.004 0.069-0.018 0.094-0.070 0.189-0.141 0.279-0.218 0.094-0.079 0.176-0.172 0.272-0.249 0.167-0.136 0.35-0.256 0.51-0.4 0.216-0.195 0.417-0.404 0.62-0.612 0.138-0.14 0.274-0.282 0.397-0.436 0.088-0.11 0.153-0.239 0.228-0.359 0.034-0.054 0.065-0.11 0.099-0.165 0.098-0.154 0.198-0.306 0.244-0.486 0.019-0.069 0.051-0.143 0.098-0.196 0.151-0.168 0.235-0.374 0.341-0.568 0.059-0.107 0.101-0.224 0.148-0.337 0.078-0.186 0.154-0.373 0.233-0.559 0.033-0.076 0.068-0.152 0.108-0.224 0.078-0.138 0.15-0.274 0.159-0.44 0.004-0.085 0.044-0.171 0.073-0.254 0.045-0.125 0.105-0.244 0.141-0.371 0.071-0.255 0.069-0.527 0.176-0.776 0.015-0.034 0.004-0.078 0.010-0.117 0.012-0.102 0.024-0.204 0.043-0.306 0.023-0.126 0.058-0.249 0.078-0.375s0.011-0.258 0.041-0.381c0.055-0.227 0.078-0.454 0.069-0.688-0.003-0.091 0.014-0.189 0.048-0.273 0.036-0.091 0.053-0.177 0.041-0.273-0.007-0.049 0.002-0.099 0-0.148-0.004-0.123 0.004-0.249-0.019-0.368-0.047-0.251-0.105-0.501-0.169-0.748-0.071-0.275-0.154-0.549-0.231-0.823-0.030-0.109-0.060-0.218-0.084-0.329-0.068-0.321-0.241-0.618-0.205-0.961 0.002-0.019-0.004-0.039-0.010-0.058-0.065-0.207-0.127-0.414-0.197-0.618-0.080-0.232-0.174-0.461-0.25-0.694-0.084-0.249-0.203-0.482-0.332-0.708-0.127-0.222-0.28-0.429-0.422-0.642-0.016-0.024-0.039-0.044-0.060-0.065-0.119-0.13-0.24-0.259-0.356-0.392-0.022-0.024-0.028-0.062-0.042-0.094-0.027-0.058-0.044-0.124-0.084-0.17-0.134-0.156-0.277-0.306-0.418-0.457-0.009-0.011-0.023-0.021-0.037-0.023-0.16-0.032-0.269-0.135-0.367-0.257-0.028-0.034-0.068-0.057-0.102-0.085-0.159-0.132-0.325-0.257-0.477-0.397-0.298-0.274-0.59-0.555-0.882-0.836-0.12-0.116-0.264-0.187-0.419-0.243-0.058-0.021-0.118-0.050-0.164-0.089-0.108-0.091-0.224-0.144-0.366-0.126-0.078 0.010-0.144-0.010-0.21-0.051-0.070-0.044-0.143-0.093-0.22-0.118-0.134-0.043-0.253-0.102-0.353-0.203-0.094-0.096-0.198-0.176-0.349-0.163-0.039 0.004-0.083-0.025-0.121-0.044-0.16-0.079-0.322-0.141-0.508-0.132-0.217 0.011-0.435 0-0.652-0.005-0.053-0.002-0.107-0.013-0.159-0.026-0.071-0.018-0.145-0.031-0.211-0.061-0.138-0.063-0.297-0.069-0.426-0.159-0.108-0.074-0.229-0.108-0.363-0.101s-0.267 0-0.4 0.005c-0.058 0.002-0.125 0.006-0.17 0.036-0.078 0.049-0.157 0.053-0.241 0.053-0.291 0-0.583 0.006-0.874-0.001-0.251-0.005-0.476 0.113-0.719 0.139-0.018 0.002-0.036 0.016-0.053 0.025-0.241 0.112-0.482 0.225-0.722 0.339-0.031 0.014-0.056 0.040-0.087 0.055-0.073 0.038-0.145 0.078-0.222 0.109-0.178 0.070-0.369 0.117-0.535 0.208-0.247 0.136-0.506 0.24-0.767 0.341-0.326 0.127-0.642 0.272-0.934 0.469-0.061 0.040-0.132 0.067-0.201 0.090-0.117 0.038-0.236 0.068-0.354 0.106-0.036 0.012-0.071 0.034-0.098 0.061-0.214 0.222-0.449 0.412-0.747 0.51-0.037 0.012-0.071 0.036-0.101 0.061-0.072 0.060-0.14 0.125-0.212 0.184-0.11 0.090-0.222 0.177-0.334 0.265-0.193 0.151-0.409 0.273-0.566 0.47-0.082 0.102-0.184 0.191-0.283 0.279-0.092 0.081-0.19 0.156-0.289 0.229-0.126 0.093-0.217 0.23-0.372 0.287-0.027 0.010-0.051 0.044-0.065 0.072-0.115 0.229-0.228 0.46-0.339 0.69-0.129 0.265-0.269 0.527-0.38 0.8-0.097 0.237-0.162 0.486-0.238 0.73-0.035 0.11-0.088 0.198-0.21 0.217zM8.168 24.108c-0.134 0.076-0.265 0.127-0.365 0.239-0.068 0.075-0.167 0.119-0.253 0.177-0.192 0.13-0.381 0.263-0.575 0.387-0.051 0.032-0.118 0.050-0.178 0.053-0.058 0.004-0.102 0.016-0.144 0.056-0.046 0.043-0.104 0.072-0.156 0.108-0.024 0.017-0.045 0.037-0.068 0.055-0.176 0.149-0.35 0.3-0.53 0.445-0.036 0.029-0.090 0.038-0.137 0.047-0.069 0.013-0.127-0.015-0.165-0.075-0.035-0.054-0.037-0.116 0-0.168 0.040-0.059 0.069-0.113 0.047-0.191-0.007-0.025 0.025-0.077 0.053-0.094 0.149-0.091 0.218-0.244 0.289-0.386 0.107-0.215 0.246-0.404 0.392-0.588 0.113-0.143 0.24-0.274 0.361-0.412 0.016-0.019 0.039-0.037 0.043-0.059 0.038-0.258 0.219-0.46 0.282-0.716-0.008-0.013-0.020-0.035-0.034-0.054-0.166-0.227-0.331-0.453-0.496-0.681-0.027-0.036-0.053-0.072-0.075-0.11-0.095-0.166-0.189-0.332-0.284-0.498-0.012-0.021-0.029-0.042-0.048-0.056-0.142-0.102-0.214-0.255-0.29-0.404-0.038-0.074-0.081-0.147-0.116-0.223-0.024-0.053-0.053-0.11-0.054-0.167-0.001-0.093-0.022-0.174-0.068-0.252-0.078-0.135-0.125-0.281-0.11-0.438 0.018-0.176-0.045-0.34-0.081-0.506-0.047-0.216-0.126-0.424-0.191-0.635-0.004-0.014-0.014-0.027-0.017-0.041-0.034-0.167-0.068-0.334-0.1-0.501-0.021-0.11-0.012-0.224-0.077-0.327-0.023-0.037-0.013-0.095-0.019-0.144-0.012-0.116 0.014-0.237-0.052-0.346-0.007-0.012-0.007-0.029-0.007-0.043-0.006-0.236-0.036-0.469-0.089-0.7-0.012-0.051-0.032-0.1-0.045-0.151-0.015-0.061-0.034-0.123-0.036-0.185-0.005-0.182 0.012-0.366-0.093-0.539-0.131 0.010-0.24-0.046-0.334-0.142-0.017-0.017-0.043-0.033-0.065-0.033-0.116-0.002-0.218-0.067-0.326-0.078-0.191-0.021-0.355-0.105-0.531-0.159-0.174-0.053-0.353-0.084-0.529-0.126-0.034-0.007-0.067-0.018-0.099-0.029-0.067-0.023-0.751-0.147-0.822-0.146-0.109 0.002-0.217 0.006-0.326 0.007-0.033 0-0.065-0.007-0.106-0.012 0.029-0.154 0.139-0.203 0.261-0.234 0.052-0.012 0.108-0.005 0.161-0.014 0.102-0.015 0.202-0.036 0.303-0.053 0.078-0.013 0.155-0.028 0.233-0.034 0.098-0.005 0.197 0 0.296-0.001 0.035-0.001 0.070 0.001 0.102-0.009 0.155-0.045 0.306-0.11 0.464-0.139 0.181-0.035 0.344-0.113 0.514-0.174 0.090-0.033 0.152-0.118 0.259-0.128 0.111-0.011 0.223-0.038 0.33-0.070 0.098-0.028 0.197-0.062 0.284-0.113 0.083-0.049 0.159-0.077 0.253-0.024 0.072-0.12 0.134-0.233 0.126-0.375-0.006-0.103 0.005-0.208 0.002-0.311-0.004-0.121 0.009-0.236 0.082-0.338 0.003-0.004 0.005-0.008 0.006-0.012 0.038-0.157 0.075-0.314 0.112-0.471 0.012-0.052 0.021-0.106 0.040-0.156 0.076-0.192 0.156-0.382 0.232-0.574 0.086-0.219 0.138-0.447 0.187-0.677 0.004-0.024 0.011-0.049 0.023-0.069 0.161-0.257 0.201-0.565 0.357-0.824 0.061-0.101 0.093-0.218 0.144-0.324 0.114-0.234 0.232-0.467 0.351-0.699 0.045-0.091 0.090-0.181 0.179-0.246 0.039-0.028 0.060-0.102 0.062-0.158 0.006-0.143-0.001-0.286-0.004-0.429 0-0.025-0.014-0.053-0.005-0.073 0.052-0.128-0.029-0.219-0.093-0.307-0.208-0.283-0.385-0.586-0.543-0.898-0.153-0.3-0.314-0.593-0.55-0.838-0.054-0.056-0.093-0.127-0.14-0.19-0.216-0.289-0.433-0.575-0.646-0.866-0.091-0.123-0.172-0.252-0.256-0.379-0.149-0.226-0.298-0.453-0.444-0.681-0.029-0.045-0.046-0.096-0.075-0.158 0.134-0.010 0.24-0.019 0.354 0.069 0.159 0.122 0.343 0.211 0.514 0.318 0.062 0.039 0.123 0.084 0.175 0.135 0.182 0.181 0.354 0.372 0.58 0.503 0.046 0.027 0.078 0.076 0.121 0.108 0.068 0.049 0.134 0.107 0.21 0.135 0.12 0.044 0.21 0.119 0.303 0.203 0.125 0.11 0.267 0.201 0.4 0.302 0.146 0.11 0.298 0.213 0.432 0.334 0.243 0.218 0.521 0.366 0.827 0.47 0.073 0.025 0.144 0.069 0.202 0.118 0.136 0.119 0.343 0.043 0.373-0.14 0.024-0.143 0.127-0.213 0.265-0.204 0.135 0.009 0.249-0.053 0.356-0.123 0.227-0.149 0.453-0.298 0.681-0.447 0.062-0.040 0.124-0.082 0.188-0.118 0.13-0.074 0.254-0.149 0.406-0.189 0.274-0.073 0.537-0.185 0.788-0.326 0.244-0.137 0.498-0.255 0.768-0.34 0.171-0.055 0.327-0.158 0.492-0.233 0.175-0.080 0.349-0.159 0.528-0.226 0.248-0.094 0.5-0.172 0.736-0.3 0.158-0.085 0.339-0.127 0.512-0.184 0.126-0.042 0.253-0.079 0.38-0.118 0.142-0.042 0.281-0.087 0.425-0.122 0.128-0.031 0.186-0.063 0.182-0.207-0.001-0.029 0.003-0.061 0.015-0.086 0.078-0.157 0.078-0.325 0.069-0.493-0.011-0.203 0.071-0.387 0.112-0.579 0.067-0.308 0.145-0.615 0.208-0.924 0.027-0.129 0.029-0.265 0.038-0.397 0.006-0.089 0.010-0.175 0.061-0.256 0.020-0.030 0.023-0.074 0.024-0.112 0.004-0.103-0.002-0.208 0.007-0.311 0.005-0.061 0.032-0.121 0.047-0.182 0.012-0.046 0.026-0.093 0.030-0.14 0.006-0.059 0.007-0.117 0.086-0.159 0.023 0.069 0.046 0.127 0.061 0.186 0.038 0.153 0.074 0.306 0.109 0.461 0.058 0.259 0.115 0.518 0.169 0.778 0.012 0.057 0.018 0.118 0.016 0.176-0.004 0.094 0.027 0.177 0.082 0.249 0.114 0.15 0.145 0.317 0.121 0.498-0.010 0.069-0.007 0.129 0.026 0.198 0.037 0.077 0.040 0.171 0.047 0.258 0.006 0.084 0.013 0.161 0.052 0.241 0.036 0.076 0.038 0.172 0.039 0.259 0.002 0.143-0.004 0.286 0.125 0.423 0.069 0.004 0.167 0.006 0.264 0.015 0.086 0.007 0.174 0.019 0.259 0.034 0.116 0.021 0.23 0.046 0.346 0.069 0.174 0.033 0.35 0.058 0.521 0.102 0.12 0.032 0.236 0.056 0.362 0.053 0.257-0.006 0.515-0.005 0.762 0.062 0.208 0.057 0.409 0.141 0.585 0.272 0.055 0.041 0.113 0.081 0.175 0.108 0.14 0.062 0.284 0.112 0.423 0.175 0.071 0.031 0.139 0.074 0.202 0.119 0.093 0.065 0.178 0.139 0.27 0.206 0.031 0.023 0.069 0.040 0.105 0.054 0.142 0.053 0.287 0.101 0.427 0.159 0.153 0.066 0.302 0.142 0.453 0.214 0.049 0.023 0.099 0.045 0.144 0.074 0.075 0.046 0.151 0.093 0.219 0.148 0.13 0.106 0.247 0.227 0.382 0.324 0.102 0.073 0.225 0.118 0.338 0.175 0.074 0.039 0.154 0.070 0.217 0.123 0.199 0.161 0.389 0.332 0.583 0.498 0.029 0.026 0.066 0.044 0.096 0.063 0.181-0.024 0.296-0.158 0.437-0.243 0.133-0.081 0.248-0.191 0.413-0.22 0.071-0.013 0.131-0.084 0.201-0.119 0.046-0.023 0.102-0.045 0.152-0.044 0.122 0.002 0.179 0.11 0.123 0.217-0.076 0.144-0.146 0.291-0.224 0.434-0.074 0.133-0.141 0.274-0.239 0.388-0.175 0.202-0.166 0.405-0.061 0.63 0.121 0.263 0.283 0.497 0.462 0.721 0.102 0.127 0.213 0.247 0.312 0.375 0.069 0.089 0.133 0.184 0.183 0.285 0.093 0.184 0.242 0.322 0.367 0.481 0.147 0.185 0.251 0.385 0.289 0.619 0.004 0.029 0.016 0.057 0.025 0.085 0.087 0.256 0.173 0.512 0.263 0.767 0.085 0.241 0.177 0.48 0.262 0.722 0.043 0.12 0.098 0.241 0.111 0.366 0.017 0.164 0.102 0.297 0.155 0.444 0.052 0.143 0.098 0.288 0.142 0.434 0.050 0.165 0.089 0.333 0.142 0.496 0.057 0.174 0.126 0.34 0.146 0.525 0.022 0.198 0.117 0.281 0.311 0.276 0.139-0.004 0.256 0.061 0.356 0.127 0.179 0.117 0.363 0.159 0.569 0.14 0.083-0.008 0.168-0.009 0.251-0.001 0.061 0.006 0.119 0.033 0.179 0.050 0.046 0.012 0.094 0.037 0.138 0.032 0.191-0.016 0.372 0.033 0.557 0.057 0.010 0.001 0.020 0.003 0.029 0.007 0.115 0.052 0.229 0.104 0.369 0.168-0.148 0.050-0.278 0.084-0.399 0.138-0.14 0.061-0.273 0.136-0.405 0.213-0.222 0.128-0.439 0.265-0.663 0.391-0.067 0.038-0.147 0.061-0.224 0.073-0.139 0.021-0.266 0.069-0.389 0.135-0.126 0.068-0.255 0.13-0.379 0.2-0.077 0.043-0.146 0.092-0.173 0.189-0.017 0.064-0.061 0.122-0.102 0.177-0.101 0.14-0.155 0.289-0.171 0.464-0.017 0.189-0.050 0.378-0.083 0.565-0.039 0.226-0.132 0.443-0.194 0.665-0.053 0.19-0.096 0.381-0.145 0.572-0.009 0.038-0.017 0.078-0.033 0.113-0.107 0.24-0.173 0.491-0.23 0.746-0.026 0.114-0.087 0.219-0.126 0.33-0.028 0.078-0.044 0.16-0.064 0.241-0.013 0.053-0.018 0.109-0.037 0.158-0.090 0.218-0.19 0.433-0.275 0.653-0.102 0.262-0.249 0.502-0.367 0.755-0.099 0.211-0.216 0.407-0.342 0.599-0.040 0.061-0.094 0.114-0.134 0.175-0.085 0.126-0.171 0.251-0.245 0.384-0.019 0.034-0.003 0.096 0.013 0.14 0.029 0.078 0.070 0.152 0.106 0.228 0.1 0.208 0.199 0.418 0.3 0.626 0.019 0.039 0.046 0.074 0.069 0.11 0.041 0.065 0.082 0.129 0.127 0.199-0.053 0.035-0.092 0.058-0.127 0.084-0.083 0.060-0.163 0.073-0.262 0.029-0.208-0.091-0.419-0.172-0.631-0.252-0.068-0.025-0.141-0.038-0.213-0.046s-0.149 0.003-0.222-0.004c-0.076-0.007-0.151-0.024-0.256-0.042-0.005 0.006-0.043 0.028-0.055 0.060-0.038 0.093-0.11 0.145-0.19 0.2-0.072 0.050-0.148 0.108-0.192 0.18-0.126 0.207-0.319 0.301-0.536 0.364-0.134 0.038-0.261 0.086-0.354 0.201-0.029 0.036-0.081 0.053-0.121 0.082-0.061 0.042-0.119 0.085-0.177 0.13-0.023 0.019-0.040 0.047-0.065 0.061-0.2 0.105-0.336 0.289-0.519 0.412-0.127 0.085-0.254 0.166-0.383 0.246-0.104 0.064-0.208 0.131-0.317 0.185-0.069 0.035-0.148 0.051-0.223 0.073-0.046 0.014-0.097 0.020-0.142 0.040-0.274 0.121-0.547 0.247-0.821 0.37-0.036 0.016-0.072 0.030-0.11 0.043-0.192 0.063-0.38 0.134-0.575 0.186-0.265 0.070-0.522 0.18-0.804 0.177-0.060-0.001-0.127 0.026-0.179 0.059-0.177 0.111-0.374 0.113-0.571 0.115-0.15 0.002-0.295 0.008-0.416 0.116-0.046 0.042-0.078 0.083-0.085 0.148-0.006 0.062-0.026 0.123-0.043 0.183-0.023 0.080-0.046 0.161-0.078 0.239-0.050 0.126-0.046 0.268-0.147 0.38-0.042 0.046-0.036 0.139-0.047 0.211-0.020 0.121-0.036 0.242-0.053 0.363-0.007 0.049-0.020 0.097-0.022 0.146-0.024 0.406-0.118 0.799-0.218 1.191-0.021 0.085-0.028 0.175-0.048 0.262-0.037 0.158-0.083 0.314-0.121 0.472-0.023 0.095-0.040 0.192-0.059 0.289-0.012 0.068-0.022 0.135-0.034 0.204-0.020 0.116-0.036 0.233-0.060 0.348-0.019 0.089-0.048 0.176-0.088 0.262-0.062-0.149-0.151-0.281-0.14-0.447 0.005-0.069 0.002-0.138 0.002-0.208 0-0.025 0.009-0.054-0.002-0.073-0.079-0.138-0.067-0.301-0.126-0.444-0.013-0.032-0.029-0.064-0.033-0.098-0.025-0.201-0.116-0.384-0.162-0.577-0.037-0.152-0.095-0.301-0.111-0.454-0.021-0.204-0.080-0.394-0.143-0.586-0.054-0.167-0.078-0.345-0.116-0.517-0.086-0.394-0.141-0.795-0.27-1.179-0.012-0.037-0.032-0.071-0.053-0.115-0.194 0-0.386 0.003-0.577-0.001-0.187-0.004-0.374-0.014-0.561-0.023-0.024-0.001-0.052-0.004-0.071-0.016-0.143-0.087-0.305-0.065-0.46-0.083-0.086-0.010-0.175-0.031-0.253-0.068-0.137-0.063-0.279-0.097-0.428-0.103-0.113-0.005-0.227-0.009-0.34-0.012-0.145-0.004-0.263-0.082-0.385-0.143-0.268-0.135-0.532-0.279-0.797-0.42-0.035-0.018-0.069-0.039-0.102-0.061-0.131-0.086-0.257-0.18-0.392-0.257-0.093-0.053-0.202-0.078-0.298-0.127-0.152-0.078-0.312-0.152-0.401-0.314-0.007-0.012-0.018-0.027-0.030-0.031-0.149-0.052-0.228-0.183-0.335-0.284-0.018-0.017-0.035-0.037-0.057-0.047-0.339-0.162-0.584-0.447-0.872-0.676-0.127-0.101-0.239-0.22-0.363-0.323-0.090-0.075-0.191-0.138-0.284-0.205z"></path>
<path fill="#fff" d="M13.337 18.83c-0.045 0.059-0.085 0.108-0.121 0.16-0.089 0.134-0.025 0.288 0.135 0.311 0.082 0.012 0.173 0.027 0.25 0.005 0.147-0.040 0.292-0.025 0.44-0.022 0.409 0.008 0.819 0.015 1.228 0.012 0.201-0.002 0.403-0.022 0.604-0.044 0.147-0.015 0.29-0.032 0.439-0.005 0.199 0.036 0.401 0.058 0.601 0.064 0.28 0.009 0.559 0.011 0.84-0.027 0.248-0.033 0.503-0.006 0.754-0.009 0.183-0.002 0.365-0.009 0.548-0.017 0.107-0.004 0.191-0.055 0.231-0.157 0.040-0.1 0.021-0.192-0.050-0.275-0.024-0.029-0.049-0.065-0.053-0.099-0.012-0.129-0.078-0.217-0.182-0.29-0.084-0.059-0.169-0.12-0.236-0.196-0.070-0.080-0.11-0.187-0.18-0.267-0.218-0.245-0.345-0.558-0.614-0.771-0.281-0.224-0.529-0.486-0.789-0.735-0.062-0.061-0.121-0.128-0.168-0.201-0.119-0.182-0.241-0.359-0.381-0.526-0.235-0.281-0.542-0.137-0.647 0.086-0.039 0.084-0.095 0.163-0.159 0.229-0.207 0.21-0.436 0.4-0.628 0.623-0.265 0.31-0.591 0.565-0.821 0.908-0.011 0.016-0.027 0.029-0.041 0.043-0.208 0.208-0.422 0.412-0.624 0.626-0.157 0.167-0.298 0.348-0.453 0.531 0.020 0.011 0.038 0.022 0.077 0.044zM9.546 13.595c0.082-0.011 0.149-0.028 0.216-0.027 0.207 0.003 0.412 0.017 0.619 0.017 0.332-0.001 0.665-0.012 0.999-0.012 0.207-0.001 0.413 0.008 0.62 0.012 0.136 0.003 0.272 0.001 0.41-0.012 0.179-0.017 0.363 0.011 0.545 0.017 0.214 0.008 0.428 0.020 0.642 0.017 0.126-0.002 0.251-0.029 0.401-0.049-0.038-0.055-0.064-0.1-0.098-0.138-0.462-0.534-0.926-1.066-1.39-1.598-0.032-0.037-0.053-0.103-0.129-0.065-0.012 0.006-0.049-0.025-0.069-0.044-0.086-0.085-0.188-0.12-0.309-0.116-0.137 0.004-0.275-0.005-0.41 0.043-0.045 0.016-0.097 0.016-0.146 0.016-0.33 0.003-0.662 0.006-0.992 0.004-0.067 0-0.134-0.021-0.201-0.033-0.048-0.008-0.096-0.019-0.145-0.020-0.113-0.004-0.227 0.001-0.34-0.002-0.168-0.004-0.187-0.025-0.187-0.189 0-0.41 0.004-0.82-0.001-1.23-0.003-0.176-0.027-0.354-0.041-0.53-0.005-0.063-0.010-0.127-0.014-0.187 0.102-0.059 0.2-0.071 0.305-0.081 0.166-0.017 0.329-0.053 0.493-0.080 0.048-0.008 0.096-0.020 0.144-0.021 0.183-0.002 0.366 0.004 0.548-0.003 0.102-0.004 0.203-0.028 0.306-0.041 0.048-0.006 0.097-0.011 0.146-0.011 0.583-0.001 1.166 0.006 1.749-0.005 0.158-0.004 0.249 0.064 0.323 0.177 0.11 0.167 0.235 0.314 0.396 0.435 0.102 0.077 0.189 0.173 0.285 0.257 0.028 0.025 0.069 0.036 0.1 0.058 0.043 0.031 0.104 0.060 0.118 0.102 0.049 0.152 0.184 0.225 0.283 0.33 0.007 0.006 0.022 0.007 0.026 0.014 0.090 0.194 0.321 0.249 0.424 0.433 0.042 0.074 0.127 0.123 0.185 0.189 0.092 0.102 0.175 0.213 0.27 0.314 0.049 0.053 0.114 0.091 0.171 0.137 0.034 0.028 0.069 0.054 0.097 0.087 0.067 0.078 0.14 0.127 0.25 0.064 0.023 0.089 0.071 0.089 0.148 0.072 0.089-0.021 0.184-0.003 0.267-0.065 0.068-0.052 0.127-0.102 0.167-0.182 0.058-0.116 0.136-0.208 0.275-0.249 0.074-0.021 0.138-0.092 0.199-0.148 0.207-0.19 0.411-0.384 0.616-0.576 0.004-0.003 0.009-0.005 0.012-0.009 0.234-0.306 0.565-0.518 0.803-0.823 0.14-0.179 0.281-0.355 0.393-0.553 0.079-0.139 0.119-0.16 0.263-0.095 0.157 0.072 0.315 0.069 0.477 0.069 0.241 0 0.48 0.011 0.721 0.042 0.258 0.035 0.528 0.052 0.782 0.010 0.351-0.057 0.699-0.021 1.047-0.037 0.083-0.004 0.167-0.001 0.275-0.001 0.082 0.146 0.175 0.308 0.265 0.471 0.012 0.021 0.018 0.046 0.020 0.070 0.008 0.166 0.014 0.331 0.021 0.497 0 0.020 0.004 0.043-0.004 0.059-0.105 0.216-0.018 0.445-0.044 0.666 0.064 0.12 0.041 0.249 0.041 0.376 0.001 0.118-0.081 0.198-0.124 0.295-0.009 0.022-0.058 0.036-0.089 0.038-0.078 0.006-0.158 0.003-0.237 0.006-0.088 0.003-0.177 0.008-0.265 0.012-0.034 0.002-0.072 0.014-0.102 0.004-0.139-0.046-0.278-0.027-0.417-0.009-0.129 0.016-0.264-0.010-0.389 0.044-0.020 0.009-0.054 0.009-0.072-0.003-0.162-0.104-0.342-0.046-0.513-0.060-0.073-0.006-0.148-0.019-0.22-0.013-0.137 0.009-0.273 0.024-0.409 0.047-0.032 0.005-0.061 0.047-0.086 0.076-0.413 0.457-0.827 0.913-1.239 1.371-0.062 0.069-0.117 0.146-0.174 0.219 0.094 0.1 0.259 0.13 0.388 0.073 0.112-0.050 0.109-0.045 0.2 0.037 0.045 0.040 0.107 0.078 0.166 0.085 0.259 0.033 0.519 0.057 0.779 0.079 0.113 0.010 0.227 0.008 0.341 0.012 0.029 0.001 0.061 0.007 0.088-0.002 0.227-0.079 0.461-0.040 0.69-0.028s0.447-0.051 0.671-0.078c0.068-0.008 0.136-0.014 0.205-0.021 0.142-0.013 0.285-0.021 0.426-0.040 0.103-0.014 0.18 0.041 0.261 0.085 0.022 0.012 0.041 0.045 0.046 0.070 0.017 0.086 0.037 0.174 0.037 0.26-0.004 0.321-0.015 0.641-0.020 0.961-0.001 0.032 0.013 0.068 0.031 0.094 0.052 0.076 0.043 0.149-0.004 0.22-0.161 0.248-0.326 0.493-0.485 0.743-0.043 0.067-0.102 0.065-0.167 0.067-0.301 0.009-0.602 0.020-0.903 0.028-0.276 0.007-0.552 0.010-0.828 0.015-0.034 0.001-0.068 0.004-0.11 0.007 0.003 0.024-0.002 0.046 0.006 0.061 0.045 0.080 0.094 0.159 0.142 0.239 0.015 0.025 0.033 0.049 0.053 0.069 0.085 0.087 0.171 0.176 0.261 0.26 0.037 0.035 0.085 0.058 0.128 0.088 0.022 0.016 0.053 0.032 0.061 0.055 0.049 0.138 0.142 0.23 0.273 0.29 0.030 0.013 0.054 0.042 0.079 0.066 0.167 0.165 0.29 0.374 0.495 0.501 0.235 0.31 0.54 0.555 0.796 0.845 0.064 0.072 0.091 0.143 0.091 0.238-0.001 0.567 0 1.135 0.005 1.702 0.001 0.118 0.025 0.234 0.037 0.352 0.012 0.122 0.026 0.245 0.029 0.368 0.007 0.266 0.006 0.532 0.012 0.797 0.002 0.077-0.020 0.132-0.085 0.175-0.135 0.089-0.27 0.181-0.402 0.277-0.061 0.045-0.121 0.051-0.194 0.037-0.363-0.063-0.729-0.033-1.093-0.021-0.195 0.006-0.388 0.062-0.583 0.095-0.151 0.025-0.301 0.048-0.452 0.073-0.029 0.004-0.064 0.005-0.084 0.023-0.092 0.080-0.2 0.067-0.308 0.067-0.355 0-0.712-0.001-1.067 0.001-0.074 0-0.149 0.004-0.221 0.016-0.436 0.074-0.874 0.051-1.312 0.017-0.363-0.029-0.725-0.080-1.092-0.072-0.612 0.012-1.224 0.007-1.837 0.011-0.123 0.001-0.247 0.010-0.37 0.015-0.273 0.011-0.538-0.059-0.808-0.081-0.098-0.007-0.196-0.020-0.294-0.020-0.281-0.001-0.565-0.016-0.844 0.007-0.582 0.049-1.164 0.029-1.745 0.046-0.085 0.003-0.17 0.037-0.281 0.062-0.042-0.053-0.102-0.124-0.156-0.197-0.012-0.017-0.010-0.046-0.010-0.069-0.004-0.276 0.026-0.558-0.019-0.827-0.049-0.293-0.004-0.591-0.085-0.879-0.026-0.093-0.008-0.197-0.009-0.296-0.002-0.118-0.019-0.233-0.037-0.349-0.028-0.173-0.026-0.357 0.004-0.53 0.021-0.127 0.031-0.253 0.032-0.38 0.001-0.103 0-0.207 0-0.315 0.19-0.083 0.337-0.228 0.495-0.36 0.162-0.134 0.269-0.311 0.404-0.467 0.058-0.067 0.117-0.134 0.178-0.197 0.268-0.272 0.469-0.595 0.706-0.892 0.103-0.13 0.228-0.244 0.345-0.363 0.141-0.143 0.283-0.285 0.447-0.448-0.123-0.010-0.184-0.067-0.242-0.142s-0.151-0.082-0.243-0.082c-0.593 0.001-1.186 0-1.778-0.001-0.053 0-0.106-0.004-0.172-0.008-0.015-0.136-0.038-0.262-0.040-0.388-0.009-0.576-0.011-1.153-0.016-1.73-0.001-0.078-0.011-0.157-0.018-0.262z"></path>
</svg>
