<!-- Generated by IcoMoon.io -->
<svg version="1.1" xmlns="http://www.w3.org/2000/svg" width="32" height="32" viewBox="0 0 32 32">
<title>tzeentch-ally</title>
<path fill="#fff" d="M6.656 11.772c-0.011 0.075-0.014 0.134-0.032 0.19-0.019 0.061-0.058 0.114-0.078 0.175-0.098 0.294-0.197 0.588-0.288 0.884-0.032 0.103-0.039 0.212-0.059 0.318-0.018 0.091-0.039 0.182-0.060 0.271-0.037 0.157-0.102 0.313-0.106 0.472-0.013 0.438-0.003 0.877 0.001 1.316 0.003 0.369 0.011 0.738 0.012 1.107 0.002 0.319-0.007 0.639-0.005 0.959 0.001 0.096 0.010 0.199 0.042 0.289 0.066 0.185 0.055 0.388 0.14 0.567 0.004 0.008 0 0.019 0.003 0.029 0.018 0.075 0.032 0.153 0.057 0.226 0.022 0.065 0.073 0.122 0.083 0.188 0.030 0.189 0.085 0.37 0.131 0.554 0.026 0.104 0.034 0.218 0.080 0.312 0.060 0.124 0.068 0.253 0.1 0.379 0.039 0.161 0.099 0.316 0.099 0.484 0.122 0.217 0.207 0.446 0.235 0.693 0.001 0.005 0.003 0.010 0.006 0.014 0.111 0.207 0.19 0.433 0.35 0.614 0.077 0.089 0.139 0.192 0.217 0.28 0.16 0.18 0.326 0.353 0.49 0.53 0.106 0.116 0.247 0.197 0.318 0.346 0.015 0.030 0.044 0.054 0.070 0.075 0.117 0.091 0.234 0.181 0.353 0.269 0.062 0.047 0.132 0.087 0.189 0.139 0.119 0.11 0.23 0.228 0.348 0.339 0.071 0.067 0.148 0.127 0.225 0.189 0.141 0.114 0.265 0.257 0.439 0.32 0.201 0.073 0.349 0.218 0.518 0.334 0.116 0.080 0.244 0.145 0.372 0.203 0.182 0.085 0.371 0.15 0.526 0.292 0.117 0.105 0.221 0.229 0.391 0.276 0.268 0.074 0.509 0.235 0.8 0.234 0.047 0 0.094 0.031 0.141 0.041 0.163 0.038 0.325 0.086 0.489 0.104 0.155 0.018 0.314 0 0.471 0.004 0.072 0.003 0.153 0.003 0.213 0.036 0.171 0.093 0.35 0.153 0.543 0.159 0.252 0.009 0.503 0.002 0.755 0.007 0.068 0.001 0.136 0.017 0.204 0.028 0.111 0.018 0.222 0.053 0.333 0.054 0.468 0.006 0.938 0.004 1.407 0.001 0.077-0.001 0.158-0.013 0.232-0.035 0.169-0.052 0.34-0.103 0.503-0.172 0.167-0.071 0.334-0.067 0.507-0.061 0.118 0.004 0.237 0.003 0.353-0.015 0.218-0.035 0.438-0.073 0.65-0.132 0.153-0.042 0.308-0.075 0.444-0.185 0.133-0.109 0.278-0.221 0.461-0.255 0.044-0.008 0.088-0.044 0.122-0.077 0.079-0.079 0.168-0.132 0.276-0.165 0.069-0.021 0.136-0.057 0.199-0.094 0.241-0.142 0.463-0.316 0.723-0.426 0.079-0.033 0.151-0.068 0.239-0.049 0.026 0.006 0.062-0.001 0.082-0.017 0.099-0.073 0.197-0.148 0.29-0.227s0.178-0.17 0.273-0.247c0.168-0.136 0.35-0.256 0.511-0.401 0.208-0.188 0.403-0.39 0.597-0.591 0.144-0.147 0.289-0.296 0.418-0.457 0.089-0.11 0.151-0.239 0.225-0.361 0.028-0.046 0.053-0.094 0.083-0.139 0.107-0.16 0.209-0.321 0.258-0.511 0.017-0.065 0.048-0.133 0.092-0.182 0.154-0.173 0.242-0.382 0.349-0.582 0.055-0.103 0.096-0.215 0.141-0.324 0.080-0.19 0.158-0.382 0.239-0.572 0.031-0.072 0.062-0.144 0.102-0.211 0.080-0.138 0.15-0.275 0.161-0.439 0.006-0.090 0.047-0.179 0.079-0.267 0.041-0.116 0.096-0.226 0.131-0.344 0.075-0.26 0.068-0.538 0.181-0.789 0.010-0.022 0.012-0.049 0.010-0.073-0.027-0.203 0.059-0.388 0.091-0.581 0.019-0.121 0.035-0.242 0.051-0.364 0.008-0.059 0.005-0.119 0.020-0.175 0.059-0.217 0.075-0.435 0.070-0.659-0.003-0.101 0.018-0.206 0.051-0.302 0.028-0.082 0.050-0.158 0.038-0.244-0.006-0.044-0.006-0.089-0.003-0.133 0.011-0.227-0.001-0.452-0.069-0.672-0.039-0.126-0.067-0.257-0.099-0.386-0.034-0.139-0.064-0.278-0.103-0.415-0.063-0.227-0.134-0.452-0.198-0.679s-0.126-0.455-0.183-0.684c-0.025-0.099-0.047-0.202-0.049-0.303s-0.015-0.193-0.053-0.288c-0.051-0.127-0.086-0.261-0.127-0.393-0.047-0.145-0.088-0.291-0.139-0.435-0.072-0.204-0.142-0.41-0.23-0.607-0.082-0.184-0.181-0.361-0.282-0.535-0.080-0.136-0.178-0.261-0.262-0.393-0.071-0.113-0.141-0.221-0.244-0.313-0.112-0.101-0.203-0.227-0.3-0.344-0.016-0.018-0.024-0.044-0.030-0.067-0.036-0.157-0.134-0.271-0.247-0.378-0.068-0.064-0.136-0.128-0.197-0.199-0.047-0.054-0.096-0.096-0.167-0.116-0.096-0.027-0.175-0.082-0.239-0.163-0.049-0.061-0.113-0.111-0.173-0.161-0.144-0.12-0.296-0.232-0.433-0.359-0.311-0.288-0.618-0.582-0.925-0.876-0.117-0.111-0.255-0.182-0.407-0.233-0.059-0.019-0.118-0.050-0.165-0.089-0.111-0.094-0.231-0.143-0.38-0.134-0.064 0.004-0.133-0.020-0.195-0.045-0.082-0.033-0.154-0.089-0.236-0.119-0.126-0.046-0.244-0.1-0.339-0.2-0.094-0.097-0.2-0.173-0.349-0.166-0.045 0.002-0.092-0.028-0.136-0.048-0.148-0.068-0.295-0.119-0.466-0.124-0.337-0.008-0.68 0.039-1.009-0.084-0.155-0.058-0.325-0.076-0.468-0.169-0.106-0.069-0.221-0.102-0.35-0.095-0.143 0.007-0.287-0.001-0.43 0.005-0.057 0.002-0.113 0.024-0.17 0.037-0.070 0.017-0.14 0.047-0.211 0.049-0.32 0.005-0.641 0.004-0.962 0.003-0.116-0.001-0.218 0.025-0.325 0.075-0.104 0.047-0.237 0.029-0.343 0.073-0.259 0.108-0.51 0.235-0.762 0.356-0.031 0.015-0.054 0.043-0.085 0.059-0.064 0.033-0.129 0.067-0.197 0.093-0.183 0.072-0.379 0.119-0.548 0.213-0.247 0.138-0.506 0.24-0.768 0.342-0.326 0.126-0.642 0.271-0.933 0.467-0.065 0.043-0.141 0.070-0.216 0.095-0.116 0.039-0.236 0.067-0.353 0.104-0.032 0.010-0.060 0.035-0.083 0.059-0.217 0.218-0.446 0.417-0.748 0.508-0.037 0.011-0.070 0.037-0.101 0.062-0.072 0.060-0.139 0.125-0.211 0.184-0.114 0.093-0.232 0.182-0.346 0.273-0.193 0.151-0.408 0.275-0.564 0.474-0.078 0.099-0.177 0.183-0.274 0.268-0.091 0.082-0.192 0.152-0.287 0.23s-0.178 0.178-0.284 0.233c-0.102 0.052-0.15 0.124-0.197 0.219-0.173 0.353-0.358 0.703-0.534 1.055-0.164 0.327-0.256 0.682-0.367 1.028-0.039 0.123-0.082 0.235-0.23 0.262zM7.066 22.979c-0.046-0.057-0.107-0.122-0.158-0.193-0.184-0.262-0.377-0.516-0.529-0.801-0.088-0.167-0.184-0.332-0.328-0.466-0.084-0.078-0.137-0.191-0.197-0.293-0.050-0.084-0.091-0.175-0.132-0.263-0.021-0.045-0.051-0.092-0.049-0.138 0.004-0.146-0.060-0.267-0.124-0.388-0.073-0.139-0.048-0.289-0.061-0.435-0.005-0.058-0.017-0.116-0.027-0.173-0.009-0.048-0.019-0.096-0.032-0.143-0.061-0.223-0.121-0.446-0.183-0.668-0.010-0.033-0.039-0.062-0.040-0.095-0.015-0.216-0.125-0.414-0.118-0.634 0.001-0.028 0.003-0.064-0.012-0.085-0.066-0.096-0.065-0.203-0.068-0.313-0.003-0.096 0.007-0.197-0.049-0.286-0.008-0.011-0.007-0.029-0.007-0.043-0.003-0.237-0.043-0.468-0.088-0.7-0.005-0.029 0.004-0.068-0.011-0.086-0.090-0.106-0.078-0.233-0.072-0.353 0.006-0.147-0.018-0.284-0.084-0.425-0.131-0.004-0.251-0.050-0.347-0.151-0.016-0.017-0.043-0.026-0.067-0.032-0.167-0.035-0.336-0.062-0.501-0.104-0.099-0.025-0.19-0.077-0.289-0.106-0.179-0.052-0.361-0.096-0.54-0.143-0.047-0.012-0.096-0.024-0.144-0.033-0.364-0.077-0.725-0.182-1.104-0.143-0.046 0.004-0.095 0.001-0.149 0.001 0.001-0.104 0.061-0.153 0.128-0.196 0.091-0.058 0.195-0.068 0.3-0.063 0.1 0.004 0.193-0.014 0.289-0.047 0.082-0.029 0.173-0.034 0.261-0.040 0.094-0.006 0.188-0.001 0.282-0.002 0.034 0 0.070 0.002 0.103-0.008 0.154-0.046 0.305-0.107 0.462-0.139 0.179-0.039 0.345-0.111 0.513-0.176 0.089-0.034 0.154-0.118 0.261-0.126 0.102-0.009 0.203-0.033 0.301-0.062 0.103-0.031 0.21-0.061 0.299-0.116 0.089-0.053 0.169-0.071 0.268-0.031 0.074-0.131 0.132-0.256 0.119-0.408-0.009-0.097 0.005-0.197 0.002-0.296-0.004-0.112 0.012-0.216 0.077-0.31 0.006-0.008 0.011-0.017 0.013-0.026 0.038-0.161 0.074-0.324 0.111-0.486 0.010-0.043 0.013-0.090 0.035-0.126 0.115-0.188 0.161-0.402 0.241-0.603 0.083-0.21 0.125-0.43 0.179-0.647 0.007-0.029 0.012-0.060 0.028-0.084 0.162-0.267 0.207-0.584 0.371-0.85 0.052-0.083 0.085-0.178 0.118-0.271 0.092-0.257 0.223-0.493 0.361-0.726 0.053-0.088 0.096-0.178 0.182-0.245 0.039-0.029 0.055-0.104 0.058-0.159 0.005-0.148-0.022-0.299-0.002-0.444 0.028-0.195-0.082-0.317-0.175-0.461-0.17-0.265-0.329-0.539-0.477-0.817-0.153-0.289-0.307-0.574-0.537-0.811-0.051-0.053-0.092-0.116-0.132-0.178-0.204-0.309-0.421-0.608-0.661-0.889-0.096-0.112-0.167-0.244-0.248-0.367-0.151-0.231-0.303-0.461-0.451-0.694-0.028-0.044-0.045-0.096-0.073-0.157 0.136-0.004 0.244-0.014 0.356 0.075 0.153 0.121 0.333 0.208 0.5 0.312 0.067 0.042 0.133 0.087 0.189 0.141 0.182 0.18 0.354 0.371 0.58 0.503 0.046 0.027 0.079 0.075 0.122 0.108 0.062 0.046 0.125 0.104 0.196 0.128 0.137 0.046 0.235 0.137 0.339 0.23 0.112 0.102 0.245 0.182 0.367 0.273 0.146 0.109 0.297 0.212 0.432 0.333 0.247 0.221 0.526 0.375 0.839 0.48 0.072 0.025 0.139 0.073 0.203 0.118 0.163 0.114 0.324 0.054 0.369-0.141 0.032-0.14 0.124-0.209 0.268-0.202 0.136 0.006 0.249-0.054 0.358-0.125 0.227-0.147 0.453-0.297 0.68-0.446 0.079-0.051 0.157-0.103 0.239-0.15 0.109-0.064 0.218-0.117 0.345-0.153 0.268-0.076 0.529-0.18 0.775-0.318 0.249-0.139 0.507-0.258 0.779-0.351 0.18-0.061 0.345-0.166 0.518-0.245s0.351-0.156 0.53-0.223c0.234-0.089 0.472-0.163 0.696-0.281 0.168-0.088 0.357-0.135 0.538-0.197 0.089-0.030 0.18-0.052 0.269-0.078 0.193-0.057 0.386-0.116 0.58-0.172 0.086-0.025 0.135-0.075 0.132-0.169-0.001-0.039 0.002-0.082 0.018-0.117 0.076-0.153 0.076-0.316 0.068-0.478-0.011-0.213 0.075-0.405 0.117-0.608 0.077-0.376 0.156-0.753 0.232-1.13 0.011-0.057 0.006-0.118 0.011-0.177 0.004-0.054-0.005-0.118 0.020-0.16 0.091-0.146 0.060-0.304 0.068-0.46 0.004-0.089-0.002-0.175 0.060-0.254 0.023-0.030 0.013-0.084 0.023-0.127 0.011-0.049 0.027-0.098 0.046-0.166 0.085 0.072 0.087 0.155 0.107 0.225 0.061 0.218 0.118 0.438 0.169 0.658 0.030 0.129 0.046 0.261 0.066 0.393s0.030 0.264 0.055 0.394c0.013 0.066 0.039 0.135 0.078 0.189 0.111 0.152 0.149 0.317 0.12 0.5-0.011 0.069-0.004 0.128 0.027 0.196 0.035 0.078 0.039 0.171 0.046 0.259 0.008 0.083 0.011 0.161 0.053 0.241 0.036 0.069 0.035 0.161 0.039 0.244 0.006 0.147-0.017 0.299 0.132 0.443 0.069 0 0.175-0.004 0.281 0.002 0.073 0.003 0.15 0.010 0.217 0.036 0.125 0.052 0.254 0.064 0.388 0.080 0.175 0.020 0.346 0.068 0.519 0.102 0.096 0.018 0.193 0.039 0.29 0.044 0.142 0.008 0.289-0.018 0.428 0.005 0.216 0.035 0.436 0.045 0.64 0.157 0.133 0.073 0.266 0.144 0.396 0.222 0.155 0.092 0.332 0.146 0.496 0.225 0.092 0.044 0.181 0.098 0.263 0.158 0.152 0.109 0.289 0.231 0.484 0.271 0.137 0.029 0.267 0.098 0.396 0.159 0.187 0.089 0.37 0.183 0.553 0.28 0.056 0.030 0.105 0.073 0.154 0.114 0.128 0.108 0.247 0.228 0.382 0.325 0.103 0.074 0.225 0.119 0.338 0.178 0.069 0.036 0.147 0.061 0.207 0.111 0.197 0.161 0.388 0.332 0.582 0.498 0.037 0.032 0.081 0.055 0.114 0.077 0.187-0.038 0.307-0.171 0.453-0.261 0.125-0.077 0.236-0.175 0.389-0.206 0.073-0.015 0.133-0.080 0.203-0.116 0.042-0.023 0.090-0.046 0.137-0.048 0.127-0.007 0.198 0.108 0.141 0.217-0.075 0.145-0.145 0.292-0.225 0.434-0.076 0.137-0.147 0.281-0.247 0.399-0.165 0.195-0.158 0.39-0.061 0.605 0.121 0.268 0.286 0.506 0.468 0.733 0.102 0.126 0.213 0.246 0.312 0.375 0.068 0.089 0.132 0.184 0.182 0.284 0.092 0.184 0.243 0.323 0.367 0.481 0.146 0.186 0.254 0.384 0.29 0.619 0.005 0.033 0.019 0.066 0.030 0.098 0.087 0.256 0.172 0.512 0.261 0.768 0.077 0.224 0.159 0.446 0.237 0.668 0.047 0.134 0.114 0.267 0.132 0.405 0.022 0.162 0.102 0.296 0.154 0.444 0.053 0.143 0.099 0.289 0.143 0.434 0.049 0.165 0.088 0.332 0.141 0.496 0.056 0.173 0.126 0.339 0.146 0.524 0.021 0.194 0.118 0.281 0.31 0.277 0.139-0.003 0.257 0.061 0.357 0.127 0.175 0.116 0.354 0.153 0.556 0.135 0.093-0.008 0.188-0.005 0.281-0.002 0.043 0.002 0.099 0.005 0.125 0.032 0.067 0.065 0.145 0.063 0.222 0.053 0.186-0.024 0.361 0.037 0.539 0.070 0.118 0.022 0.226 0.099 0.367 0.164-0.139 0.047-0.257 0.080-0.367 0.127-0.127 0.053-0.253 0.113-0.372 0.182-0.239 0.139-0.471 0.288-0.71 0.425-0.067 0.039-0.146 0.068-0.222 0.077-0.207 0.025-0.382 0.126-0.561 0.22-0.053 0.027-0.103 0.060-0.157 0.083-0.12 0.053-0.218 0.125-0.259 0.261-0.017 0.053-0.060 0.1-0.089 0.151-0.045 0.076-0.115 0.15-0.125 0.232-0.028 0.213-0.091 0.42-0.106 0.637-0.010 0.13-0.054 0.258-0.089 0.385-0.073 0.27-0.175 0.532-0.216 0.813-0.019 0.129-0.080 0.252-0.12 0.378-0.056 0.178-0.125 0.354-0.162 0.537-0.032 0.162-0.097 0.309-0.157 0.46-0.015 0.036-0.036 0.072-0.041 0.111-0.049 0.346-0.232 0.645-0.348 0.967-0.091 0.256-0.216 0.496-0.36 0.725-0.003 0.004-0.006 0.009-0.007 0.013-0.060 0.24-0.229 0.421-0.346 0.631-0.015 0.025-0.030 0.054-0.053 0.071-0.134 0.096-0.186 0.252-0.278 0.378-0.051 0.069-0.059 0.144-0.017 0.223 0.038 0.069 0.069 0.142 0.103 0.213 0.1 0.209 0.199 0.418 0.3 0.626 0.021 0.043 0.053 0.081 0.079 0.122 0.039 0.061 0.075 0.122 0.117 0.189-0.051 0.035-0.088 0.058-0.123 0.083-0.086 0.062-0.169 0.075-0.274 0.027-0.211-0.096-0.427-0.178-0.643-0.26-0.063-0.024-0.132-0.032-0.2-0.039-0.139-0.016-0.285 0.032-0.421-0.041-0.018-0.011-0.082 0.021-0.092 0.047-0.047 0.113-0.139 0.173-0.236 0.235-0.061 0.039-0.118 0.095-0.155 0.156-0.126 0.212-0.326 0.305-0.55 0.368-0.129 0.037-0.251 0.086-0.339 0.197-0.026 0.032-0.072 0.050-0.108 0.076-0.068 0.048-0.135 0.097-0.201 0.146-0.020 0.015-0.034 0.039-0.054 0.050-0.195 0.103-0.33 0.281-0.508 0.403-0.13 0.089-0.262 0.172-0.395 0.255-0.104 0.064-0.207 0.132-0.317 0.186-0.074 0.036-0.157 0.051-0.237 0.075-0.042 0.012-0.087 0.018-0.127 0.037-0.274 0.122-0.546 0.247-0.82 0.371-0.036 0.016-0.074 0.028-0.111 0.040-0.191 0.064-0.379 0.137-0.573 0.189-0.261 0.069-0.512 0.177-0.79 0.174-0.060-0.001-0.128 0.023-0.18 0.055-0.182 0.116-0.382 0.119-0.584 0.12-0.149 0.001-0.296 0.010-0.417 0.118-0.051 0.045-0.085 0.089-0.086 0.161-0.001 0.047-0.018 0.095-0.032 0.141-0.047 0.161-0.096 0.32-0.145 0.48-0.011 0.032-0.016 0.074-0.039 0.093-0.089 0.077-0.089 0.181-0.1 0.284-0.014 0.122-0.034 0.243-0.053 0.364-0.006 0.039-0.018 0.077-0.019 0.116-0.026 0.421-0.118 0.829-0.225 1.235-0.021 0.081-0.025 0.166-0.044 0.247-0.038 0.158-0.082 0.314-0.121 0.472-0.023 0.096-0.040 0.192-0.058 0.289-0.012 0.063-0.019 0.126-0.030 0.189-0.021 0.126-0.039 0.253-0.065 0.377-0.018 0.085-0.049 0.167-0.089 0.249-0.056-0.139-0.143-0.263-0.139-0.417 0.003-0.074 0.001-0.148 0.002-0.222 0-0.030 0.011-0.066-0.003-0.088-0.077-0.139-0.067-0.301-0.125-0.445-0.010-0.023-0.022-0.045-0.025-0.068-0.034-0.214-0.132-0.412-0.172-0.62s-0.138-0.399-0.131-0.617c0.003-0.089-0.046-0.18-0.071-0.27-0.049-0.175-0.107-0.347-0.146-0.524-0.044-0.197-0.063-0.399-0.108-0.595-0.059-0.254-0.131-0.505-0.197-0.758-0.017-0.064-0.061-0.079-0.123-0.080-0.32-0.003-0.641-0.007-0.961-0.013-0.059-0.001-0.125 0-0.174-0.027-0.146-0.082-0.306-0.060-0.46-0.080-0.076-0.010-0.157-0.024-0.226-0.057-0.168-0.082-0.343-0.121-0.529-0.113-0.248 0.011-0.473-0.051-0.688-0.18-0.237-0.142-0.488-0.259-0.732-0.386-0.039-0.021-0.078-0.041-0.115-0.066-0.131-0.086-0.256-0.181-0.392-0.258-0.092-0.053-0.201-0.078-0.297-0.127-0.152-0.078-0.311-0.153-0.401-0.313-0.007-0.012-0.018-0.028-0.029-0.032-0.15-0.051-0.229-0.183-0.336-0.283-0.018-0.017-0.035-0.038-0.056-0.047-0.341-0.161-0.585-0.448-0.874-0.676-0.126-0.1-0.239-0.219-0.362-0.323-0.075-0.063-0.16-0.117-0.241-0.171-0.018-0.012-0.052-0.025-0.068-0.018-0.089 0.043-0.193 0.075-0.255 0.144-0.119 0.132-0.279 0.201-0.417 0.303-0.146 0.109-0.299 0.207-0.449 0.31-0.074 0.049-0.143 0.107-0.243 0.086-0.022-0.004-0.053-0.003-0.070 0.010-0.105 0.079-0.207 0.161-0.31 0.243-0.175 0.141-0.349 0.286-0.528 0.425-0.032 0.025-0.083 0.032-0.126 0.034-0.128 0.005-0.213-0.122-0.154-0.235 0.034-0.066 0.079-0.12 0.054-0.204-0.007-0.025 0.026-0.075 0.055-0.093 0.147-0.091 0.217-0.244 0.288-0.387 0.109-0.218 0.251-0.411 0.402-0.598 0.112-0.138 0.234-0.267 0.352-0.399 0.016-0.018 0.038-0.039 0.040-0.061 0.035-0.255 0.219-0.448 0.282-0.725z"></path>
<path fill="#fff" d="M17.687 6.885c0.090 0.036 0.098 0.105 0.107 0.183 0.040 0.357-0.126 0.637-0.332 0.903-0.051 0.066-0.104 0.131-0.148 0.201-0.133 0.209-0.321 0.358-0.524 0.493-0.023 0.015-0.056 0.013-0.084 0.021-0.032 0.010-0.070 0.013-0.096 0.032-0.265 0.192-0.567 0.343-0.739 0.643-0.012 0.021-0.032 0.039-0.039 0.062-0.040 0.14-0.102 0.28-0.112 0.423-0.025 0.349-0.025 0.699-0.034 1.049-0.004 0.178 0.072 0.337 0.126 0.5 0.023 0.070 0.049 0.139 0.075 0.209 0.155 0.408 0.077 0.8-0.106 1.173-0.115 0.234-0.265 0.45-0.396 0.677-0.082 0.143-0.197 0.249-0.325 0.354-0.205 0.168-0.393 0.36-0.573 0.554-0.173 0.187-0.254 0.421-0.268 0.675-0.007 0.108-0.006 0.217-0.005 0.325 0 0.241 0.073 0.459 0.233 0.639 0.138 0.154 0.289 0.296 0.435 0.444-0.103 0.154-0.266 0.227-0.453 0.274-0.103 0.025-0.195 0.091-0.292 0.136-0.089 0.040-0.177 0.094-0.271 0.111-0.146 0.027-0.233 0.112-0.31 0.228-0.053 0.082-0.118 0.155-0.175 0.234-0.040 0.054-0.074 0.115-0.118 0.167-0.080 0.092-0.164 0.181-0.247 0.27-0.026 0.028-0.063 0.048-0.086 0.079-0.124 0.172-0.235 0.354-0.37 0.517-0.218 0.263-0.304 0.582-0.407 0.894-0.149 0.453-0.232 0.92-0.189 1.398 0.026 0.303 0.085 0.604 0.132 0.906 0.017 0.107 0.031 0.216 0.063 0.318 0.035 0.111 0.089 0.218 0.138 0.324 0.113 0.245 0.258 0.475 0.325 0.74 0.036 0.146 0.104 0.289 0.050 0.457-0.121 0.018-0.242 0.025-0.364-0.036-0.211-0.106-0.426-0.201-0.639-0.304-0.039-0.018-0.070-0.052-0.105-0.078s-0.066-0.068-0.105-0.077c-0.107-0.028-0.169-0.1-0.21-0.193-0.041-0.091-0.098-0.158-0.198-0.184-0.023-0.005-0.049-0.017-0.064-0.033-0.097-0.11-0.229-0.167-0.35-0.242-0.111-0.068-0.223-0.153-0.302-0.254-0.102-0.132-0.225-0.232-0.35-0.333-0.085-0.068-0.171-0.133-0.21-0.242-0.008-0.022-0.026-0.042-0.045-0.059-0.153-0.139-0.254-0.311-0.338-0.497-0.036-0.079-0.097-0.147-0.146-0.222-0.093-0.145-0.191-0.287-0.278-0.435-0.099-0.169-0.187-0.346-0.282-0.517-0.080-0.144-0.167-0.285-0.244-0.431-0.025-0.047-0.037-0.103-0.040-0.155-0.005-0.085-0.019-0.164-0.065-0.239-0.022-0.035-0.021-0.084-0.025-0.128-0.005-0.049 0.015-0.111-0.010-0.146-0.117-0.165-0.050-0.379-0.153-0.547-0.023-0.038-0.017-0.096-0.018-0.145-0.002-0.094-0.002-0.185-0.067-0.266-0.021-0.026-0.022-0.075-0.022-0.112-0.002-0.439-0.002-0.879-0.003-1.318 0-0.010-0.003-0.020 0-0.030 0.046-0.162 0.090-0.325 0.139-0.488 0.035-0.117 0.075-0.232 0.113-0.347 0.025-0.074 0.047-0.148 0.075-0.22 0.058-0.15 0.129-0.296 0.176-0.449 0.057-0.186 0.176-0.329 0.292-0.475 0.336-0.418 0.765-0.723 1.223-0.993 0.359-0.212 0.746-0.36 1.128-0.518 0.303-0.126 0.591-0.276 0.805-0.537 0.232-0.282 0.381-0.597 0.375-0.973-0.003-0.158 0.005-0.316 0.003-0.474-0.006-0.411 0.087-0.796 0.262-1.168 0.064-0.135 0.1-0.286 0.179-0.416 0.018-0.030 0.034-0.061 0.059-0.083 0.219-0.194 0.385-0.432 0.568-0.656 0.102-0.125 0.223-0.25 0.415-0.277 0.206-0.030 0.407-0.1 0.611-0.152 0.033-0.009 0.068-0.015 0.102-0.021 0.186-0.033 0.357-0.102 0.523-0.193 0.070-0.038 0.157-0.059 0.238-0.063 0.172-0.009 0.346-0.002 0.518-0.001 0.053 0 0.114 0.015 0.161-0.003 0.185-0.073 0.393-0.064 0.571-0.161 0.052-0.028 0.105-0.054 0.16-0.075 0.225-0.086 0.375-0.285 0.582-0.396 0.060-0.032 0.123-0.061 0.179-0.099 0.064-0.044 0.123-0.096 0.191-0.149z"></path>
<path fill="#fff" d="M19.263 20.633c0 0.188-0.014 0.376 0.003 0.562 0.020 0.209-0.038 0.403-0.104 0.588-0.040 0.116-0.088 0.226-0.104 0.349-0.004 0.038-0.025 0.075-0.046 0.108-0.397 0.634-0.925 1.137-1.597 1.459-0.533 0.255-1.105 0.399-1.709 0.339-0.314-0.032-0.626-0.080-0.925-0.193-0.027-0.011-0.063-0.016-0.080-0.036-0.108-0.136-0.246-0.237-0.375-0.351-0.115-0.102-0.222-0.195-0.386-0.227-0.125-0.025-0.249-0.1-0.349-0.182-0.164-0.135-0.301-0.298-0.396-0.493-0.044-0.088-0.093-0.174-0.144-0.258-0.107-0.177-0.197-0.36-0.257-0.561-0.018-0.061-0.039-0.126-0.078-0.175-0.194-0.235-0.231-0.512-0.232-0.803-0.001-0.162-0.024-0.325-0.028-0.487-0.002-0.072 0.020-0.144 0.027-0.216 0.011-0.113 0.030-0.222 0.077-0.329 0.043-0.096 0.046-0.211 0.082-0.311 0.225-0.651 0.64-1.158 1.181-1.574 0.523-0.401 1.118-0.626 1.754-0.749 0.28-0.054 0.569-0.044 0.853 0.024 0.225 0.054 0.452 0.103 0.66 0.211 0.417 0.053 0.721 0.329 1.059 0.535 0.090 0.055 0.153 0.154 0.233 0.225 0.231 0.205 0.423 0.443 0.577 0.71 0.074 0.127 0.135 0.262 0.192 0.399 0.021 0.052 0.011 0.117 0.020 0.175 0.018 0.116 0.041 0.232 0.062 0.346 0.008 0.048 0.023 0.096 0.024 0.144 0.002 0.257 0.001 0.513 0.001 0.77z"></path>
<path fill="#fff" d="M19.359 23.396c0.041-0.098 0.082-0.177 0.109-0.261 0.055-0.177 0.098-0.358 0.154-0.535 0.053-0.163 0.119-0.322 0.175-0.485 0.025-0.073 0.047-0.149 0.056-0.225 0.022-0.19 0.012-0.382 0.069-0.569 0.021-0.069 0.021-0.146 0.021-0.22 0.002-0.498 0.006-0.997-0.002-1.496-0.003-0.162 0.047-0.297 0.131-0.428 0.028-0.045 0.058-0.089 0.083-0.127 0.237 0.021 0.462 0.042 0.688 0.061 0.244 0.022 0.482-0.030 0.721-0.062 0.048-0.007 0.098-0.018 0.141-0.040 0.147-0.075 0.286-0.161 0.458-0.179 0.076-0.008 0.137-0.071 0.174-0.148 0.082-0.174 0.168-0.345 0.248-0.519 0.019-0.044 0.020-0.096 0.030-0.145 0.004-0.024 0.003-0.050 0.011-0.072 0.037-0.094 0.075-0.186 0.12-0.294 0.197-0.048 0.421 0.116 0.439 0.343 0.005 0.061 0.031 0.121 0.048 0.182 0.003 0.014 0.016 0.026 0.018 0.040 0.037 0.253 0.057 0.507-0.011 0.76-0.018 0.066-0.047 0.133-0.043 0.198 0.021 0.264-0.062 0.503-0.16 0.74-0.118 0.288-0.227 0.579-0.356 0.861-0.147 0.325-0.367 0.605-0.575 0.894-0.29 0.403-0.675 0.703-1.059 1.004-0.12 0.095-0.228 0.205-0.352 0.294-0.12 0.085-0.25 0.158-0.382 0.224-0.211 0.104-0.427 0.201-0.644 0.296-0.14 0.061-0.141 0.057-0.251-0.052-0.017-0.017-0.040-0.027-0.061-0.040z"></path>
</svg>
