<?xml version="1.0" encoding="UTF-8" standalone="no"?>
<!-- Created with Inkscape (http://www.inkscape.org/) -->

<svg
   xmlns:dc="http://purl.org/dc/elements/1.1/"
   xmlns:cc="http://creativecommons.org/ns#"
   xmlns:rdf="http://www.w3.org/1999/02/22-rdf-syntax-ns#"
   xmlns:svg="http://www.w3.org/2000/svg"
   xmlns="http://www.w3.org/2000/svg"
   xmlns:sodipodi="http://sodipodi.sourceforge.net/DTD/sodipodi-0.dtd"
   xmlns:inkscape="http://www.inkscape.org/namespaces/inkscape"
   width="10.737237mm"
   height="12.193693mm"
   viewBox="0 0 10.737237 12.193693"
   version="1.1"
   id="svg7100"
   inkscape:version="0.92.5 (2060ec1f9f, 2020-04-08)"
   sodipodi:docname="ogor-mawtribes.svg">
  <defs
     id="defs7094">
    <clipPath
       clipPathUnits="userSpaceOnUse"
       id="clipPath6479">
      <path
         d="m 434.704,531.637 h 30.448 v 34.565 h -30.448 z"
         id="path6477"
         inkscape:connector-curvature="0" />
    </clipPath>
  </defs>
  <sodipodi:namedview
     id="base"
     pagecolor="#ffffff"
     bordercolor="#666666"
     borderopacity="1.0"
     inkscape:pageopacity="0.0"
     inkscape:pageshadow="2"
     inkscape:zoom="0.35"
     inkscape:cx="37.433698"
     inkscape:cy="-362.6711"
     inkscape:document-units="mm"
     inkscape:current-layer="layer1"
     showgrid="false"
     fit-margin-top="0"
     fit-margin-left="0"
     fit-margin-right="0"
     fit-margin-bottom="0"
     inkscape:window-width="1920"
     inkscape:window-height="1017"
     inkscape:window-x="-8"
     inkscape:window-y="-8"
     inkscape:window-maximized="1" />
  <metadata
     id="metadata7097">
    <rdf:RDF>
      <cc:Work
         rdf:about="">
        <dc:format>image/svg+xml</dc:format>
        <dc:type
           rdf:resource="http://purl.org/dc/dcmitype/StillImage" />
        <dc:title></dc:title>
      </cc:Work>
    </rdf:RDF>
  </metadata>
  <g
     inkscape:label="Layer 1"
     inkscape:groupmode="layer"
     id="layer1"
     transform="translate(-95.929001,-40.682911)">
    <g
       transform="matrix(0.35277777,0,0,-0.35277777,-57.424907,240.42639)"
       id="g6473">
      <g
         id="g6475"
         clip-path="url(#clipPath6479)">
        <g
           id="g6481"
           transform="translate(453.1366,540.8702)">
          <path
             d="M 0,0 C 0.116,-0.191 0.225,-0.383 0.346,-0.567 0.453,-0.729 0.573,-0.883 0.688,-1.04 0.732,-1.1 0.782,-1.157 0.82,-1.221 0.894,-1.344 0.997,-1.419 1.135,-1.46 1.334,-1.518 1.536,-1.525 1.74,-1.519 c 0.103,0.004 0.206,0.006 0.309,0.016 0.113,0.011 0.225,0.033 0.338,0.047 0.188,0.022 0.356,0.091 0.509,0.204 0.05,0.037 0.104,0.074 0.162,0.095 0.191,0.072 0.331,0.248 0.319,0.451 C 3.363,-0.484 3.329,-0.262 3.297,-0.04 3.262,0.206 3.217,0.451 3.18,0.698 3.136,0.997 3.103,1.298 3.051,1.596 2.995,1.915 2.91,2.229 2.86,2.549 2.801,2.922 2.765,3.299 2.722,3.674 2.71,3.786 2.71,3.899 2.703,4.039 2.764,3.951 2.796,3.885 2.847,3.837 3.087,3.608 3.328,3.38 3.577,3.161 3.915,2.865 4.266,2.584 4.6,2.284 4.832,2.075 5.035,1.833 5.269,1.624 5.478,1.437 5.722,1.323 6.015,1.441 6.031,1.448 6.05,1.45 6.068,1.45 6.328,1.448 6.498,1.605 6.644,1.791 6.827,2.025 6.914,2.304 6.962,2.589 6.99,2.761 7.019,2.955 6.924,3.114 6.776,3.361 6.619,3.605 6.437,3.827 6.166,4.158 5.869,4.468 5.586,4.789 5.534,4.848 5.492,4.916 5.436,4.992 c 0.04,0.006 0.053,0.01 0.067,0.01 0.282,0.001 0.564,-0.004 0.846,0.002 0.164,0.004 0.35,-0.018 0.484,0.052 0.204,0.107 0.409,0.162 0.63,0.186 0.088,0.009 0.175,0.032 0.263,0.033 0.191,0 0.343,0.068 0.442,0.233 C 8.25,5.646 8.328,5.786 8.4,5.93 8.428,5.985 8.445,6.053 8.446,6.115 8.45,6.447 8.451,6.779 8.447,7.11 8.446,7.24 8.397,7.355 8.298,7.444 8.201,7.532 8.103,7.621 8.003,7.707 7.755,7.919 7.474,8.035 7.143,8.027 7.012,8.023 6.866,7.994 6.763,8.118 6.707,8.186 6.65,8.252 6.586,8.328 c 0.098,0.087 0.19,0.17 0.283,0.253 0.064,0.056 0.134,0.106 0.193,0.167 0.187,0.191 0.366,0.39 0.556,0.578 0.153,0.152 0.329,0.282 0.476,0.44 0.173,0.186 0.169,0.389 0.026,0.596 -0.052,0.076 -0.103,0.157 -0.133,0.243 -0.112,0.321 -0.265,0.62 -0.423,0.92 -0.153,0.293 -0.302,0.595 -0.4,0.909 -0.089,0.288 -0.204,0.554 -0.372,0.799 -0.077,0.114 -0.129,0.249 -0.271,0.309 -0.055,0.023 -0.1,0.067 -0.154,0.091 -0.15,0.069 -0.274,0.172 -0.4,0.274 C 5.938,13.931 5.896,13.941 5.858,13.951 5.595,14.014 5.39,13.869 5.181,13.751 5.061,13.682 4.955,13.584 4.831,13.527 4.64,13.44 4.441,13.37 4.241,13.308 3.883,13.196 3.52,13.103 3.164,12.987 2.836,12.881 2.514,12.757 2.191,12.637 2.032,12.577 1.881,12.495 1.678,12.502 c 0.025,0.115 0.042,0.219 0.071,0.32 0.037,0.126 0.087,0.248 0.127,0.374 0.085,0.268 0.168,0.537 0.249,0.806 0.062,0.204 0.134,0.407 0.176,0.616 0.071,0.363 0.174,0.712 0.343,1.042 0.065,0.126 0.11,0.263 0.152,0.399 0.037,0.119 0.053,0.244 0.087,0.364 0.034,0.122 0.047,0.254 -0.03,0.351 -0.1,0.127 -0.104,0.266 -0.111,0.41 C 2.739,17.227 2.74,17.27 2.738,17.313 2.729,17.45 2.667,17.558 2.554,17.636 2.363,17.769 2.064,17.701 1.877,17.502 1.651,17.261 1.5,16.951 1.204,16.775 1.115,16.586 0.954,16.453 0.823,16.297 0.726,16.179 0.647,16.047 0.557,15.924 0.516,15.869 0.467,15.821 0.421,15.77 l -0.032,0.02 c 0,0.056 0,0.112 0,0.169 -0.001,0.221 -0.001,0.442 -0.003,0.663 -0.004,0.489 -0.01,0.978 -0.011,1.467 0,0.131 -0.037,0.246 -0.118,0.347 -0.035,0.045 -0.073,0.089 -0.106,0.135 -0.114,0.158 -0.269,0.228 -0.462,0.222 -0.06,-0.002 -0.125,-0.01 -0.18,0.008 -0.24,0.08 -0.484,0.152 -0.712,0.258 -0.354,0.165 -0.722,0.244 -1.108,0.246 -0.503,0.003 -1.007,-0.001 -1.51,-0.016 -0.104,-0.003 -0.207,-0.063 -0.309,-0.099 -0.079,-0.028 -0.155,-0.071 -0.236,-0.088 -0.12,-0.025 -0.227,-0.066 -0.307,-0.16 -0.108,-0.129 -0.214,-0.258 -0.243,-0.433 -0.016,-0.091 -0.053,-0.178 -0.079,-0.267 -0.126,-0.439 -0.251,-0.878 -0.377,-1.317 -0.024,-0.086 -0.047,-0.173 -0.075,-0.28 -0.022,0.038 -0.033,0.056 -0.042,0.075 -0.168,0.322 -0.332,0.647 -0.506,0.967 -0.096,0.178 -0.203,0.35 -0.313,0.521 -0.102,0.16 -0.3,0.225 -0.502,0.175 -0.209,-0.052 -0.363,-0.203 -0.369,-0.396 -0.009,-0.278 -0.022,-0.559 0.009,-0.834 0.045,-0.405 0.02,-0.806 -0.003,-1.208 -0.012,-0.217 -0.03,-0.434 -0.052,-0.65 -0.023,-0.22 0.02,-0.452 -0.106,-0.656 -0.014,-0.023 -0.017,-0.055 -0.017,-0.083 0.003,-0.204 0.008,-0.407 0.011,-0.61 0.003,-0.192 0.005,-0.384 0.006,-0.575 0,-0.071 -0.004,-0.142 -0.011,-0.212 -0.003,-0.033 -0.017,-0.065 -0.026,-0.097 -0.03,0.015 -0.067,0.023 -0.088,0.045 -0.175,0.197 -0.348,0.396 -0.522,0.594 -0.141,0.16 -0.278,0.325 -0.428,0.478 -0.232,0.236 -0.479,0.458 -0.709,0.697 -0.333,0.345 -0.7,0.636 -1.15,0.815 -0.025,0.01 -0.046,0.032 -0.068,0.05 -0.193,0.163 -0.421,0.179 -0.656,0.145 -0.059,-0.008 -0.12,-0.048 -0.168,-0.088 -0.253,-0.211 -0.484,-0.44 -0.651,-0.731 -0.129,-0.226 -0.33,-0.417 -0.328,-0.705 0,-0.009 -0.007,-0.02 -0.013,-0.029 -0.139,-0.184 -0.179,-0.385 -0.098,-0.605 0.006,-0.016 -10e-4,-0.036 0.003,-0.053 0.029,-0.143 0.031,-0.3 0.096,-0.425 0.217,-0.412 0.458,-0.812 0.686,-1.219 0.083,-0.149 0.153,-0.305 0.232,-0.456 0.063,-0.124 0.112,-0.261 0.2,-0.364 0.165,-0.195 0.309,-0.399 0.408,-0.634 0.037,-0.089 0.065,-0.183 0.114,-0.265 0.194,-0.323 0.396,-0.642 0.591,-0.965 0.043,-0.07 0.07,-0.15 0.114,-0.248 -0.208,0.084 -0.385,0.159 -0.565,0.227 -0.136,0.051 -0.274,0.098 -0.414,0.14 -0.088,0.027 -0.18,0.041 -0.269,0.065 -0.313,0.085 -0.623,0.182 -0.939,0.254 -0.462,0.104 -0.929,0.186 -1.393,0.285 -0.219,0.046 -0.404,-0.031 -0.542,-0.209 -0.188,-0.243 -0.106,-0.555 -0.232,-0.811 -10e-4,-0.003 0,-0.007 0,-0.011 -0.013,-0.432 -0.026,-0.863 -0.036,-1.295 -0.003,-0.145 0.061,-0.26 0.171,-0.354 0.103,-0.088 0.207,-0.176 0.301,-0.274 0.048,-0.049 0.115,-0.129 0.103,-0.176 -0.045,-0.169 -0.063,-0.35 -0.2,-0.488 -0.067,-0.067 -0.129,-0.169 -0.134,-0.259 -0.013,-0.225 -0.002,-0.454 0.017,-0.68 0.014,-0.166 0.055,-0.329 0.081,-0.494 0.015,-0.09 0.022,-0.182 0.037,-0.273 0.027,-0.172 0.074,-0.342 0.082,-0.514 0.01,-0.224 0.018,-0.44 0.142,-0.638 0.109,-0.175 0.262,-0.272 0.463,-0.25 0.161,0.018 0.32,0.067 0.475,0.118 0.121,0.041 0.233,0.106 0.349,0.159 0.347,0.159 0.693,0.319 1.041,0.476 0.088,0.04 0.181,0.069 0.289,0.11 -0.013,-0.054 -0.02,-0.081 -0.026,-0.108 -0.056,-0.261 -0.115,-0.522 -0.167,-0.784 -0.053,-0.265 -0.102,-0.531 -0.146,-0.798 -0.04,-0.242 -0.145,-0.466 -0.147,-0.72 -0.004,-0.521 0.229,-0.889 0.667,-1.145 0.141,-0.083 0.284,-0.162 0.372,-0.313 0.053,-0.092 0.115,-0.183 0.192,-0.254 0.109,-0.103 0.196,-0.211 0.249,-0.354 0.104,-0.281 0.421,-0.404 0.689,-0.277 0.181,0.085 0.362,0.168 0.468,0.357 0.052,0.092 0.128,0.171 0.19,0.257 0.136,0.192 0.264,0.39 0.408,0.576 0.104,0.136 0.228,0.257 0.357,0.401 0.017,-0.193 0.022,-0.353 0.046,-0.51 0.06,-0.394 0.173,-0.781 0.157,-1.185 -0.001,-0.028 0.004,-0.057 0.011,-0.085 0.049,-0.185 0.1,-0.37 0.15,-0.555 0.042,-0.155 0.141,-0.257 0.284,-0.328 0.15,-0.074 0.304,-0.147 0.44,-0.242 0.242,-0.171 0.713,-0.175 0.935,0.025 0.184,0.166 0.318,0.375 0.421,0.6 0.069,0.149 0.119,0.306 0.186,0.456 0.062,0.137 0.136,0.27 0.202,0.399 0.108,-0.257 0.214,-0.509 0.32,-0.761 0.06,-0.142 0.132,-0.276 0.104,-0.447 -0.014,-0.086 0.028,-0.193 0.073,-0.273 0.143,-0.252 0.378,-0.344 0.658,-0.346 0.054,0 0.12,0 0.162,-0.028 0.279,-0.185 0.588,-0.172 0.899,-0.15 0.139,0.01 0.276,0.04 0.414,0.05 0.261,0.021 0.529,-0.032 0.784,0.067 0.032,0.012 0.071,0.002 0.107,0.005 0.205,0.014 0.412,0.018 0.615,0.047 0.276,0.04 0.417,0.2 0.459,0.475 0.016,0.105 0.016,0.235 0.079,0.304 0.15,0.168 0.179,0.373 0.222,0.571 C -0.08,-0.581 -0.046,-0.29 0,0 M 7.899,-4.966 C 7.837,-4.914 7.774,-4.861 7.712,-4.809 7.482,-4.618 7.253,-4.423 7.02,-4.236 6.875,-4.12 6.712,-4.1 6.535,-4.169 6.492,-4.187 6.432,-4.185 6.387,-4.17 6.064,-4.066 5.755,-4.085 5.461,-4.261 5.428,-4.28 5.395,-4.306 5.372,-4.337 5.221,-4.535 5.009,-4.637 4.785,-4.726 4.5,-4.839 4.215,-4.952 3.936,-5.078 3.56,-5.248 3.191,-5.435 2.815,-5.608 2.497,-5.754 2.167,-5.865 1.816,-5.914 1.669,-5.934 1.527,-5.996 1.38,-6.014 1.172,-6.04 0.96,-6.055 0.751,-6.052 0.541,-6.05 0.386,-6.124 0.267,-6.294 0.243,-6.329 0.193,-6.357 0.151,-6.366 c -0.241,-0.05 -0.486,-0.08 -0.723,-0.142 -0.145,-0.038 -0.285,-0.111 -0.416,-0.189 -0.107,-0.064 -0.179,-0.179 -0.176,-0.304 0.005,-0.169 -0.084,-0.3 -0.141,-0.443 -0.129,-0.321 -0.261,-0.64 -0.394,-0.959 -0.022,-0.052 -0.051,-0.102 -0.083,-0.149 -0.144,-0.212 -0.283,-0.427 -0.348,-0.681 -0.095,0.122 -0.186,0.249 -0.287,0.366 -0.278,0.32 -0.562,0.635 -0.842,0.954 -0.115,0.131 -0.213,0.27 -0.3,0.425 -0.192,0.345 -0.465,0.614 -0.861,0.722 -0.063,0.018 -0.133,0.008 -0.2,0.008 -0.214,-0.001 -0.431,-0.024 -0.641,0.001 -0.141,0.016 -0.271,0.105 -0.409,0.152 -0.233,0.079 -0.466,0.159 -0.703,0.221 -0.15,0.039 -0.31,0.038 -0.461,0.072 -0.099,0.022 -0.194,0.068 -0.286,0.114 -0.255,0.128 -0.464,0.099 -0.638,-0.123 -0.149,-0.19 -0.277,-0.396 -0.413,-0.596 -0.077,-0.114 -0.15,-0.23 -0.231,-0.355 -0.021,0.031 -0.039,0.052 -0.051,0.076 -0.127,0.251 -0.254,0.502 -0.379,0.754 -0.149,0.3 -0.295,0.602 -0.445,0.901 -0.027,0.053 -0.061,0.108 -0.106,0.145 -0.23,0.192 -0.465,0.377 -0.696,0.567 -0.107,0.088 -0.203,0.191 -0.315,0.274 -0.139,0.103 -0.291,0.191 -0.435,0.288 -0.212,0.143 -0.423,0.289 -0.634,0.434 -0.039,0.027 -0.074,0.057 -0.114,0.081 -0.207,0.123 -0.411,0.252 -0.625,0.363 -0.261,0.135 -0.444,0.348 -0.63,0.565 -0.185,0.217 -0.418,0.376 -0.66,0.523 -0.125,0.076 -0.238,0.17 -0.358,0.253 -0.044,0.03 -0.092,0.068 -0.14,0.072 -0.096,0.008 -0.134,0.068 -0.173,0.138 -0.055,0.096 -0.114,0.19 -0.17,0.284 -0.098,0.163 -0.258,0.251 -0.426,0.306 -0.105,0.034 -0.23,0.006 -0.356,0.006 -0.006,0.012 -0.018,0.034 -0.028,0.055 -0.116,0.231 -0.373,0.323 -0.61,0.222 -0.144,-0.062 -0.293,-0.11 -0.435,-0.176 -0.076,-0.035 -0.14,-0.096 -0.212,-0.141 -0.062,-0.038 -0.125,-0.082 -0.194,-0.102 -0.126,-0.037 -0.258,-0.056 -0.385,-0.088 -0.123,-0.032 -0.244,-0.071 -0.375,-0.11 0.047,0.14 0.099,0.278 0.141,0.42 0.107,0.359 0.219,0.716 0.311,1.078 0.062,0.241 0.093,0.49 0.142,0.735 0.025,0.129 0.07,0.255 0.084,0.385 0.017,0.169 0.029,0.342 0.013,0.51 -0.024,0.262 -0.236,0.433 -0.483,0.417 -0.025,-0.002 -0.05,-0.005 -0.074,-0.012 -0.137,-0.035 -0.137,-0.035 -0.23,0.076 0.177,0.286 0.307,0.593 0.333,0.925 0.018,0.239 0.03,0.481 -0.033,0.723 -0.087,0.332 -0.107,0.676 -0.088,1.019 0.013,0.247 -0.029,0.479 -0.111,0.712 -0.041,0.117 -0.024,0.253 -0.031,0.381 -0.014,0.246 -0.093,0.454 -0.299,0.61 -0.228,0.171 -0.464,0.335 -0.62,0.585 -0.03,0.049 -0.085,0.083 -0.134,0.129 0.1,0.051 0.2,0.101 0.297,0.154 0.06,0.032 0.114,0.075 0.175,0.103 0.175,0.083 0.272,0.224 0.349,0.4 0.077,0.175 0.052,0.35 0.057,0.526 0.01,0.339 0.002,0.679 0.024,1.017 0.015,0.227 0.074,0.45 0.103,0.676 0.03,0.233 0.048,0.468 0.07,0.702 0.022,0.238 0.025,0.479 0.07,0.712 0.046,0.236 0.134,0.465 0.204,0.697 0.079,0.263 0.164,0.523 0.236,0.788 0.079,0.296 0.142,0.597 0.22,0.893 0.02,0.078 0.066,0.15 0.102,0.223 0.083,0.168 0.101,0.349 0.089,0.531 -0.009,0.137 0.061,0.245 0.108,0.363 0.051,0.125 0.09,0.255 0.139,0.381 0.061,0.155 0.125,0.308 0.194,0.46 0.01,0.024 0.048,0.039 0.075,0.053 0.232,0.116 0.415,0.281 0.55,0.506 0.155,0.257 0.323,0.505 0.48,0.761 0.118,0.193 0.229,0.391 0.337,0.591 0.066,0.121 0.061,0.249 -0.003,0.37 -0.052,0.098 -0.033,0.178 0.042,0.25 0.043,0.043 0.092,0.08 0.134,0.124 0.082,0.088 0.169,0.115 0.299,0.11 0.215,-0.009 0.415,0.049 0.563,0.245 0.176,0.234 0.379,0.446 0.57,0.667 0.005,0.005 0.012,0.009 0.015,0.016 0.091,0.17 0.222,0.312 0.328,0.47 0.075,0.11 0.069,0.286 0.07,0.433 0.004,0.478 -0.006,0.957 -0.01,1.435 0,0.014 0.005,0.027 0.007,0.039 0.011,0.002 0.022,0.005 0.024,0.003 0.103,-0.138 0.251,-0.195 0.407,-0.258 0.264,-0.105 0.509,-0.26 0.774,-0.362 0.231,-0.088 0.472,-0.184 0.733,-0.109 0.048,0.014 0.098,0.018 0.147,0.03 0.158,0.037 0.275,0.133 0.321,0.286 0.04,0.134 0.138,0.153 0.246,0.185 0.228,0.066 0.458,0.131 0.678,0.218 0.381,0.152 0.752,0.327 1.133,0.48 0.294,0.118 0.592,0.234 0.896,0.321 0.287,0.081 0.586,0.121 0.879,0.186 0.26,0.057 0.518,0.122 0.778,0.182 0.2,0.047 0.401,0.093 0.602,0.135 0.139,0.029 0.281,0.044 0.417,0.081 0.087,0.024 0.186,0.057 0.246,0.118 0.27,0.282 0.493,0.604 0.67,0.95 0.148,0.29 0.255,0.602 0.381,0.903 0.024,0.056 0.055,0.107 0.091,0.176 0.062,-0.081 0.116,-0.149 0.168,-0.218 0.268,-0.348 0.513,-0.709 0.698,-1.112 0.122,-0.264 0.277,-0.514 0.435,-0.76 0.157,-0.247 0.494,-0.286 0.747,-0.096 0.065,0.049 0.118,0.061 0.182,0.02 0.2,-0.126 0.432,-0.136 0.653,-0.19 0.212,-0.052 0.421,-0.113 0.62,-0.222 0.223,-0.123 0.475,-0.161 0.716,-0.028 0.066,0.036 0.113,0.106 0.166,0.163 0.083,0.088 0.163,0.178 0.263,0.287 0.034,-0.153 0.063,-0.266 0.085,-0.38 0.066,-0.331 0.378,-0.6 0.719,-0.624 0.27,-0.02 0.525,-0.109 0.765,-0.224 0.317,-0.152 0.848,-0.108 1.092,0.146 0.104,0.108 0.232,0.195 0.349,0.291 C 4.524,22.115 4.505,21.853 4.487,21.591 4.486,21.573 4.485,21.555 4.485,21.537 c -0.001,-0.345 0.321,-0.673 0.66,-0.681 0.206,-0.004 0.413,-0.041 0.617,0.024 0.091,0.029 0.185,0.052 0.272,0.09 0.313,0.137 0.623,0.28 0.945,0.426 0,-0.188 -0.008,-0.388 0.003,-0.589 0.006,-0.1 0.044,-0.198 0.069,-0.297 C 7.057,20.486 7.077,20.465 7.079,20.441 7.1,20.159 7.127,19.876 7.136,19.593 7.14,19.456 7.171,19.34 7.243,19.221 7.309,19.114 7.347,18.988 7.38,18.865 7.454,18.594 7.621,18.47 7.901,18.469 c 0.238,0 0.468,0.026 0.711,0.133 0,-0.177 -0.017,-0.344 0.004,-0.507 0.026,-0.21 0.078,-0.417 0.126,-0.623 0.07,-0.299 0.242,-0.554 0.384,-0.82 0.104,-0.197 0.236,-0.381 0.367,-0.562 0.184,-0.254 0.379,-0.499 0.567,-0.749 0.021,-0.028 0.042,-0.064 0.043,-0.096 0.011,-0.276 0.151,-0.503 0.275,-0.734 0.141,-0.264 0.299,-0.519 0.441,-0.782 0.202,-0.374 0.304,-0.782 0.404,-1.191 0.018,-0.072 0.047,-0.143 0.058,-0.217 0.075,-0.526 0.203,-1.04 0.371,-1.544 0.006,-0.017 0.012,-0.034 0.015,-0.052 C 11.705,10.484 11.747,10.242 11.78,10 11.812,9.764 11.83,9.526 11.863,9.291 11.886,9.136 11.94,8.985 11.954,8.83 11.978,8.554 11.989,8.276 11.993,7.998 12,7.523 12.014,7.048 11.991,6.574 11.977,6.282 11.904,5.992 11.846,5.703 11.78,5.378 11.703,5.056 11.627,4.734 11.604,4.633 11.558,4.536 11.546,4.435 11.522,4.223 11.518,4.009 11.495,3.797 11.48,3.668 11.447,3.541 11.418,3.414 11.404,3.348 11.365,3.283 11.367,3.219 11.376,2.946 11.271,2.695 11.228,2.432 11.19,2.192 11.018,2.023 10.89,1.831 10.811,1.712 10.727,1.596 10.663,1.469 10.524,1.193 10.404,0.907 10.262,0.633 10.166,0.447 10.044,0.274 9.938,0.093 9.838,-0.076 9.748,-0.251 9.646,-0.418 9.507,-0.645 9.358,-0.867 9.216,-1.094 9.113,-1.26 9.002,-1.419 8.858,-1.554 8.756,-1.649 8.712,-1.775 8.678,-1.911 8.616,-2.164 8.528,-2.41 8.463,-2.661 8.416,-2.844 8.394,-3.033 8.35,-3.216 8.309,-3.382 8.254,-3.544 8.204,-3.708 8.14,-3.92 8.074,-4.13 8.011,-4.342 8,-4.379 8.004,-4.42 8,-4.459 7.981,-4.627 7.963,-4.794 7.944,-4.962 7.929,-4.963 7.914,-4.964 7.899,-4.966"
             style="fill:#fff;fill-opacity:1;fill-rule:nonzero;stroke:none"
             id="path6483"
             inkscape:connector-curvature="0" />
        </g>
      </g>
    </g>
  </g>
</svg>
