<?xml version="1.0" encoding="UTF-8" standalone="no"?>
<!-- Created with Inkscape (http://www.inkscape.org/) -->

<svg
   xmlns:dc="http://purl.org/dc/elements/1.1/"
   xmlns:cc="http://creativecommons.org/ns#"
   xmlns:rdf="http://www.w3.org/1999/02/22-rdf-syntax-ns#"
   xmlns:svg="http://www.w3.org/2000/svg"
   xmlns="http://www.w3.org/2000/svg"
   xmlns:sodipodi="http://sodipodi.sourceforge.net/DTD/sodipodi-0.dtd"
   xmlns:inkscape="http://www.inkscape.org/namespaces/inkscape"
   width="10.415526mm"
   height="11.567278mm"
   viewBox="0 0 10.415526 11.567278"
   version="1.1"
   id="svg8306"
   inkscape:version="0.92.5 (2060ec1f9f, 2020-04-08)"
   sodipodi:docname="chaotic-beasts.svg">
  <defs
     id="defs8300">
    <clipPath
       clipPathUnits="userSpaceOnUse"
       id="clipPath5753">
      <path
         d="m 196.088,210.74 h 29.589 v 32.809 h -29.589 z"
         id="path5751"
         inkscape:connector-curvature="0" />
    </clipPath>
  </defs>
  <sodipodi:namedview
     id="base"
     pagecolor="#ffffff"
     bordercolor="#666666"
     borderopacity="1.0"
     inkscape:pageopacity="0.0"
     inkscape:pageshadow="2"
     inkscape:zoom="0.35"
     inkscape:cx="-434.60285"
     inkscape:cy="50.43084"
     inkscape:document-units="mm"
     inkscape:current-layer="layer1"
     showgrid="false"
     fit-margin-top="0"
     fit-margin-left="0"
     fit-margin-right="0"
     fit-margin-bottom="0"
     inkscape:window-width="1920"
     inkscape:window-height="1017"
     inkscape:window-x="-8"
     inkscape:window-y="-8"
     inkscape:window-maximized="1" />
  <metadata
     id="metadata8303">
    <rdf:RDF>
      <cc:Work
         rdf:about="">
        <dc:format>image/svg+xml</dc:format>
        <dc:type
           rdf:resource="http://purl.org/dc/dcmitype/StillImage" />
        <dc:title></dc:title>
      </cc:Work>
    </rdf:RDF>
  </metadata>
  <g
     inkscape:label="Layer 1"
     inkscape:groupmode="layer"
     id="layer1"
     transform="translate(-220.822,-150.60921)">
    <g
       transform="matrix(0.35277777,0,0,-0.35277777,151.6304,236.52117)"
       id="g5747">
      <g
         id="g5749"
         clip-path="url(#clipPath5753)">
        <g
           id="g5755"
           transform="matrix(0.1370464,0,0,-0.1314461,371.6619,48.87323)">
          <g
             id="g5757"
             transform="translate(-1165.0684,-1326.275)">
            <path
               d="m 0,0 c -1.375,-0.084 -1.923,0.346 -1.951,1.356 -0.02,0.648 0.206,1.171 0.952,1.058 C 0.657,2.162 -0.229,0.921 0,0 m -29.249,2.529 c 1.274,-0.296 2.548,-0.533 3.784,-0.894 1.051,-0.308 1.387,-1.033 0.747,-1.839 -1.034,-1.299 -2.083,-2.672 -3.413,-3.65 -3.017,-2.216 -6.175,-4.265 -9.353,-6.265 -0.915,-0.576 -2.076,-0.853 -3.165,-1.088 -1.094,-0.235 -1.6,0.26 -1.141,1.232 0.631,1.334 1.542,2.554 2.413,3.77 1.195,1.672 2.646,3.197 3.661,4.96 1.454,2.525 3.93,3.09 6.467,3.774 m 47.39,-15.523 c -0.16,-0.319 -0.263,-0.901 -0.547,-1 -0.363,-0.126 -0.94,0.034 -1.304,0.256 -1.031,0.629 -2.079,1.268 -2.977,2.056 -1.561,1.37 -3.229,2.703 -4.457,4.33 C 7.286,-5.27 6.08,-2.928 4.776,-0.667 4.267,0.219 3.833,1.165 3.53,2.133 3.387,2.591 3.633,3.162 3.702,3.683 4.19,3.573 4.732,3.56 5.155,3.336 6.179,2.794 7.104,2.068 8.149,1.573 c 1.369,-0.648 2.84,-1.094 4.213,-1.736 0.544,-0.255 1.086,-0.727 1.376,-1.234 0.953,-1.666 1.964,-3.334 2.624,-5.115 0.764,-2.056 1.179,-4.232 1.779,-6.482 M -3.174,20.489 c -0.088,-0.206 -0.279,-0.651 -0.471,-1.096 -0.426,0.23 -0.963,0.373 -1.253,0.712 -0.396,0.462 -0.748,1.047 -0.866,1.627 -0.471,2.307 -0.741,4.666 -2.319,6.606 -0.617,0.758 -1.352,1.447 -1.845,2.272 -0.606,1.013 -0.773,1.063 -1.657,0.304 -1.68,-1.44 -2.205,-3.243 -2.327,-5.35 -0.062,-1.064 -0.702,-2.137 -1.249,-3.12 -0.281,-0.506 -1.099,-0.909 -1.402,-0.041 -0.352,1.011 -0.687,2.196 -0.466,3.189 0.471,2.119 0.996,4.193 0.81,6.389 -0.047,0.55 0.112,1.207 0.41,1.675 0.817,1.282 0.882,2.641 0.887,4.087 0.005,1.273 0.3,2.548 0.507,3.816 0.239,1.466 0.558,2.922 0.775,4.391 0.189,1.274 0.217,2.571 0.445,3.837 0.164,0.916 1.132,1.244 1.739,0.635 0.956,-0.959 1.881,-1.955 2.743,-2.994 1.892,-2.281 2.606,-5.052 3.192,-7.817 0.511,-2.401 0.717,-4.863 1.094,-7.293 0.126,-0.805 0.485,-1.589 0.53,-2.393 0.099,-1.798 10e-4,-3.607 0.113,-5.404 0.077,-1.25 0.368,-2.489 0.61,-4.032 m -12.562,74.349 c -0.466,-0.319 -0.678,-0.399 -0.783,-0.547 -0.978,-1.39 -2.133,-2.296 -4.032,-2.515 -0.713,-0.083 -1.296,-1.514 -1.861,-2.379 -0.317,-0.484 -0.494,-1.059 -0.698,-1.606 -0.299,-0.8 -0.54,-1.621 -0.854,-2.415 -0.27,-0.685 -0.447,-1.497 -0.946,-1.985 -1.295,-1.265 -1.902,-2.86 -2.292,-4.465 -0.368,-1.521 -0.573,-3.06 -1.327,-4.474 -0.914,-1.713 -0.537,-3.612 -0.798,-5.421 -0.458,-3.177 -0.972,-6.347 -1.552,-9.506 -0.434,-2.365 -0.875,-4.743 -1.553,-7.048 -0.925,-3.144 0.019,-6.093 0.576,-9.121 0.436,-2.366 0.212,-4.679 -1.299,-6.761 -0.283,-0.389 -0.312,-1.074 -0.209,-1.575 0.249,-1.224 0.984,-2.442 0.904,-3.624 -0.129,-1.911 -0.7,-3.803 -1.208,-5.673 -0.122,-0.446 -0.683,-0.84 -1.13,-1.132 -1.059,-0.69 -1.87,-1.444 -1.788,-2.826 0.142,-2.384 -1.224,-3.836 -3.333,-4.793 -1.637,-0.743 -3.025,-2.026 -4.919,-2.194 -0.942,-0.084 -1.899,-0.014 -2.849,0.004 -0.197,0.004 -0.391,0.119 -0.59,0.131 -4.454,0.276 -7.372,3.164 -10.34,5.837 -1.331,1.198 -2.106,2.955 -3.372,4.238 -1.859,1.885 -2.236,4.377 -3.263,6.595 -0.437,0.943 -0.522,2.034 -0.795,3.051 -0.181,0.675 -0.584,1.338 -0.581,2.005 0.004,1.476 0.062,2.979 0.351,4.424 0.55,2.75 1.286,5.467 1.92,8.204 0.06,0.261 -0.062,0.562 -0.1,0.844 -0.328,-0.053 -0.782,0.004 -0.962,-0.183 -0.575,-0.596 -1.044,-1.285 -1.561,-1.934 -0.392,-0.49 -0.795,-0.973 -1.332,-1.627 -0.738,1.245 -0.467,2.25 -0.174,3.188 0.467,1.494 1.104,2.937 1.583,4.428 0.108,0.337 -0.05,0.839 -0.266,1.148 -0.095,0.137 -0.727,0.1 -0.966,-0.063 -1.311,-0.895 -2.785,-1.68 -3.809,-2.831 -1.782,-2.002 -3.342,-4.201 -4.857,-6.406 -0.564,-0.821 -0.754,-1.886 -1.095,-2.845 -0.42,-1.178 -0.676,-2.436 -1.262,-3.53 -0.957,-1.786 -0.517,-3.649 -0.484,-5.45 0.072,-3.9 -0.362,-7.735 -0.849,-11.591 -0.176,-1.401 0.242,-2.875 0.411,-4.314 0.132,-1.126 0.389,-2.247 0.427,-3.375 0.066,-2 0.826,-3.686 2.037,-5.28 0.53,-0.697 0.672,-1.657 1.1,-2.442 0.557,-1.021 1.184,-2.012 1.853,-2.97 0.763,-1.091 1.527,-2.196 2.43,-3.176 1.343,-1.458 2.788,-2.831 4.228,-4.203 1.273,-1.213 2.615,-2.358 3.896,-3.564 1.072,-1.01 2.021,-2.156 3.166,-3.078 1.949,-1.57 2.411,-3.508 1.853,-5.769 -0.533,-2.153 0.218,-4.186 0.536,-6.264 0.136,-0.89 0.238,-1.795 0.229,-2.693 -0.003,-0.247 -0.421,-0.619 -0.721,-0.712 -1.204,-0.374 -2.418,-0.498 -3.553,-1.305 -0.739,-0.526 -2.167,-0.074 -3.263,-0.221 -2.223,-0.298 -4.497,-0.492 -6.628,-1.117 -3.591,-1.053 -7.141,-2.285 -10.595,-3.701 -1.222,-0.501 -2.373,-0.558 -3.585,-0.779 -1.619,-0.296 -3.13,-1.18 -4.665,-1.859 -4.041,-1.786 -7.925,-3.854 -11.004,-7.003 -1.452,-1.486 -2.557,-3.288 -3.824,-4.943 -0.555,-0.724 -1.021,-1.552 -1.709,-2.132 -1.434,-1.211 -1.903,-2.874 -2.545,-4.471 -1.287,-3.202 -1.456,-6.57 -1.521,-9.944 -0.017,-0.858 0.133,-1.72 0.223,-2.579 0.036,-0.35 0.206,-0.706 0.163,-1.041 -0.443,-3.441 0.512,-6.791 0.671,-10.186 0.204,-4.371 2.282,-7.815 5.154,-10.979 0.713,-0.785 1.229,-1.733 1.863,-2.588 0.845,-1.14 1.712,-2.263 2.577,-3.389 0.955,-1.241 1.917,-2.478 2.878,-3.715 1.03,-1.326 2.071,-2.644 3.089,-3.977 0.333,-0.437 0.621,-0.906 0.909,-1.371 0.564,-0.911 1.014,-1.907 1.694,-2.726 0.83,-0.999 1.799,-1.905 2.795,-2.757 1.837,-1.572 3.657,-3.183 6.148,-3.801 0.475,-0.118 0.848,-0.575 1.308,-0.798 2.712,-1.316 5.358,-2.8 8.176,-3.854 2.771,-1.036 5.705,-1.685 8.596,-2.395 2.183,-0.536 4.421,-0.86 6.612,-1.367 0.605,-0.14 1.119,-0.625 1.696,-0.91 2.164,-1.071 4.344,-2.113 6.503,-3.194 0.464,-0.233 0.846,-0.613 1.295,-0.879 3.278,-1.949 6.549,-3.909 9.856,-5.812 0.829,-0.477 1.763,-0.81 2.687,-1.095 0.293,-0.091 0.707,0.188 0.857,0.234 -1.351,2.013 -2.575,3.893 -3.863,5.731 -0.543,0.775 -1.217,1.465 -1.84,2.187 -1.276,1.481 -2.659,2.888 -3.81,4.453 -1.455,1.978 -3.566,3.161 -5.492,4.566 -1.093,0.798 -2.322,1.426 -3.505,2.104 -0.345,0.198 -0.733,0.345 -1.12,0.451 -3.993,1.094 -7.15,3.302 -9.571,6.549 -0.439,0.588 -1.139,0.988 -1.648,1.536 -1.358,1.463 -2.609,3.023 -4.031,4.422 -1.203,1.183 -2.412,2.331 -3.513,3.62 -0.646,0.756 -1.542,1.332 -1.851,2.332 -1.228,3.979 -2.765,7.939 -1.653,12.195 0.382,1.468 0.962,2.899 1.587,4.289 0.224,0.498 0.814,0.869 1.292,1.23 1.563,1.182 3.094,2.416 4.75,3.463 0.961,0.607 2.107,1.004 3.226,1.303 2.338,0.625 4.674,1.237 7.168,1.118 1.9,-0.091 2.84,-0.612 3.335,-2.349 0.042,-0.149 0.132,-0.286 0.198,-0.429 0.581,-1.267 1.16,-2.535 1.746,-3.801 0.098,-0.212 0.177,-0.462 0.344,-0.612 2.229,-1.994 3.357,-4.724 4.989,-7.106 1.131,-1.649 1.625,-3.699 2.443,-5.554 0.505,-1.146 1.117,-2.247 1.622,-3.393 0.464,-1.056 1.053,-2.115 1.22,-3.224 0.269,-1.779 1.28,-3.104 2.33,-4.45 1.315,-1.686 2.576,-3.419 3.995,-5.021 0.694,-0.782 1.605,-1.505 2.573,-1.91 1.224,-0.513 2.008,0.669 2.733,1.324 0.464,0.418 0.387,1.4 0.533,2.133 0.02,0.101 -0.054,0.233 -0.116,0.333 -2.277,3.69 -1.08,7.419 0.149,11.006 0.468,1.368 1.968,2.408 3.008,3.589 0.261,0.296 0.59,0.54 0.835,0.847 1.269,1.586 2.851,2.565 4.856,3.293 4.04,1.467 7.911,0.602 11.88,-0.009 2.378,-0.366 4.536,-1.134 6.539,-2.381 0.069,-0.042 0.136,-0.106 0.21,-0.116 4.52,-0.612 5.017,-4.348 6.202,-7.507 0.98,-2.612 1.482,-5.309 1.001,-8.106 -0.118,-0.691 -0.322,-1.392 -0.288,-2.079 0.059,-1.176 0.54,-1.362 1.537,-0.711 0.033,0.021 0.071,0.044 0.109,0.05 0.641,0.097 1.283,0.192 1.925,0.287 -0.128,-0.731 -0.175,-1.489 -0.415,-2.183 -0.144,-0.412 -0.593,-0.724 -0.903,-1.079 0.88,-0.74 2.636,-0.632 3.787,0.245 0.437,0.333 0.809,0.775 1.121,1.224 1.572,2.263 3.02,4.614 4.696,6.802 1.532,2.001 3.298,3.836 4.965,5.74 0.749,0.856 1.574,1.657 2.247,2.565 0.82,1.107 1.596,2.26 2.246,3.467 0.681,1.268 1.376,2.393 2.736,3.179 0.918,0.531 1.57,1.537 2.247,2.4 1.2,1.526 2.324,3.108 3.493,4.658 0.141,0.185 0.351,0.422 0.553,0.447 2.404,0.287 4.706,1.519 7.264,0.368 1.706,-0.767 3.572,-1.282 5.422,-1.652 2.087,-0.417 2.987,-1.808 3.519,-3.501 0.861,-2.739 1.114,-5.547 0.59,-8.398 -0.099,-0.538 -0.069,-1.101 -0.063,-1.653 0.026,-2.523 -0.973,-4.71 -2.437,-6.714 -1.001,-1.369 -2,-2.775 -3.223,-3.949 -1.108,-1.065 -2.583,-1.765 -3.779,-2.758 -2.116,-1.757 -4.123,-3.636 -6.214,-5.422 -2.035,-1.738 -4.162,-3.379 -6.161,-5.155 -0.808,-0.718 -1.369,-1.689 -2.064,-2.529 -1.528,-1.845 -3.191,-3.519 -5.374,-4.701 -1.132,-0.613 -2.073,-1.556 -3.138,-2.38 1.314,-1.094 1.334,-1.27 0.479,-2.763 1.038,-0.822 2.139,-0.406 3.037,0.084 3.463,1.89 6.811,3.981 10.299,5.825 2.839,1.499 5.736,2.966 8.758,4.054 3.177,1.144 6.546,1.783 9.806,2.725 0.872,0.252 1.721,0.713 2.457,1.239 1.975,1.413 3.885,2.913 5.82,4.379 0.161,0.122 0.325,0.24 0.477,0.372 1.957,1.696 4.091,3.242 5.819,5.133 1.815,1.984 4.071,3.304 6.209,4.843 1.834,1.322 3.427,2.953 5.145,4.43 0.567,0.488 1.184,0.923 1.786,1.373 2.043,1.529 2.953,3.871 4.483,5.756 1.025,1.261 1.027,2.533 1.143,3.953 0.096,1.185 0.648,2.333 0.962,3.506 0.139,0.522 0.239,1.065 0.271,1.603 0.114,1.886 0.245,3.774 0.256,5.662 0.005,0.803 -0.269,1.607 -0.423,2.41 -0.058,0.308 -0.239,0.627 -0.195,0.917 0.503,3.291 -1.088,6.025 -2.54,8.77 -0.708,1.34 -1.696,2.541 -2.484,3.846 -0.693,1.148 -1.213,2.397 -1.947,3.518 -0.592,0.905 -1.39,1.684 -2.092,2.521 -0.512,0.611 -1.026,1.221 -1.525,1.842 -1.171,1.453 -2.486,2.726 -4.037,3.845 -2.862,2.065 -5.538,4.368 -8.359,6.488 -0.881,0.664 -1.988,1.044 -2.973,1.585 -0.733,0.403 -1.413,0.894 -2.155,1.278 -2.957,1.531 -5.897,3.097 -8.909,4.522 -1.26,0.595 -2.663,0.951 -4.038,1.27 -1.9,0.439 -3.237,1.752 -4.713,2.794 -0.573,0.406 -0.915,1.577 -0.805,2.324 0.214,1.463 0.413,2.977 1.631,4.178 1.085,1.069 1.905,2.388 2.871,3.573 0.468,0.575 1.021,1.086 1.506,1.65 0.827,0.958 1.645,1.921 2.438,2.905 2.227,2.765 3.756,5.979 6.621,8.363 1.822,1.516 2.951,3.814 4.366,5.778 0.276,0.382 0.35,0.915 0.663,1.252 1.517,1.634 1.633,3.679 1.94,5.692 0.186,1.226 0.681,2.416 0.796,3.644 0.24,2.581 0.342,5.176 0.46,7.767 0.098,2.198 0.237,4.4 0.17,6.596 -0.042,1.347 -0.344,2.709 -0.701,4.02 -0.42,1.546 -1.013,3.048 -1.554,4.562 -0.171,0.475 -0.403,0.932 -0.63,1.386 -1.339,2.667 -2.836,5.273 -3.965,8.02 -0.58,1.413 -0.338,3.123 -0.779,4.613 -0.457,1.547 -1.278,2.996 -1.969,4.475 -0.196,0.42 -0.485,0.802 -0.75,1.188 -1.157,1.689 -2.263,3.412 -3.503,5.041 -0.702,0.921 -1.538,0.74 -2.21,-0.221 -1.019,-1.46 -0.185,-2.825 0.242,-4.154 0.67,-2.089 1.615,-4.095 2.277,-6.186 0.327,-1.032 0.139,-2.211 0.431,-3.259 0.666,-2.392 0.096,-4.728 -0.093,-7.089 -0.045,-0.58 0.053,-1.173 0.108,-1.758 0.16,-1.725 -0.208,-3.329 -0.938,-4.918 -0.493,-1.076 -0.57,-2.331 -1.067,-3.404 -0.741,-1.6 -1.627,-3.145 -2.562,-4.649 -1.217,-1.961 -2.853,-3.738 -3.731,-5.82 -0.804,-1.907 -2.284,-2.947 -3.585,-4.341 -1.486,-1.594 -3.11,-1.447 -4.864,-1.797 -1.942,-0.388 -3.606,-0.01 -5.3,0.736 -0.361,0.159 -0.759,0.244 -1.144,0.348 -1.988,0.531 -3.748,1.42 -5.23,2.845 -0.592,0.57 -1.511,0.837 -2.054,1.435 -2.897,3.19 -4.747,6.913 -5.452,11.093 -0.269,1.597 -0.077,3.265 -0.139,4.9 -0.022,0.576 -0.108,1.167 -0.283,1.717 -0.485,1.523 -0.454,2.908 0.326,4.414 0.385,0.744 0.006,1.879 -0.094,2.831 -0.163,1.533 -0.879,3.054 -0.057,4.603 0.065,0.122 0.071,0.315 0.022,0.447 -0.684,1.797 -0.126,3.538 0.133,5.323 0.306,2.105 -0.137,4.18 -0.651,6.253 -0.304,1.221 -0.114,2.551 -0.21,3.828 -0.058,0.766 -0.202,1.53 -0.369,2.283 -0.679,3.051 -1.31,6.115 -2.119,9.133 -0.227,0.847 -1.092,1.514 -1.51,2.336 -0.707,1.392 -1.601,2.792 -1.86,4.278 -0.451,2.573 -1.36,4.856 -2.839,7.03 -0.607,0.891 -0.737,2.127 -0.921,3.23 -0.136,0.815 -0.638,1.409 -1.292,1.238 -0.522,-0.136 -1.208,-0.973 -1.198,-1.489 0.033,-1.907 0.303,-3.811 0.525,-5.712 0.245,-2.096 0.538,-4.187 0.802,-6.282 0.156,-1.246 0.481,-2.506 0.405,-3.741 -0.142,-2.298 -0.484,-4.588 -0.842,-6.867 -0.053,-0.345 -0.604,-0.8 -0.982,-0.86 -0.347,-0.054 -0.864,0.278 -1.143,0.58 -0.718,0.781 -0.742,2.057 -2.112,2.407 -1.016,0.259 -1.985,0.004 -2.36,-0.957 -0.157,-0.402 -0.222,-0.843 -0.424,-1.218 -0.162,-0.3 -0.445,-0.705 -0.717,-0.739 -0.32,-0.041 -0.818,0.181 -1.009,0.445 -0.532,0.733 -1.038,1.51 -1.382,2.337 -0.56,1.344 -1.751,1.115 -2.691,0.918 -0.709,-0.149 -1.311,-0.861 -1.903,-1.381 -0.216,-0.19 -0.188,-0.673 -0.412,-0.812 -0.442,-0.272 -0.973,-0.481 -1.486,-0.528 -0.132,-0.013 -0.462,0.663 -0.483,1.034 -0.127,2.278 -0.165,4.559 -0.286,6.835 -0.076,1.41 -0.472,2.839 -0.321,4.218 0.247,2.25 -0.092,4.652 1.434,6.67 0.193,0.255 0.21,0.675 0.21,1.018 0.003,2.38 0.469,4.656 1.385,6.876 0.2,0.486 -0.161,1.188 -0.295,1.979"
               style="fill:#fff;fill-opacity:1;fill-rule:nonzero;stroke:none"
               id="path5759"
               inkscape:connector-curvature="0" />
          </g>
        </g>
        <g
           id="g5761"
           transform="matrix(0.1370464,0,0,-0.1314461,371.6619,48.87323)">
          <g
             id="g5763"
             transform="translate(-1270.7227,-1317.2672)">
            <path
               d="M 0,0 C -1.595,0.611 -3.193,1.212 -4.782,1.838 -5.99,2.313 -7.102,2.894 -7.884,3.991 -8.063,4.242 -8.841,4.352 -9.157,4.188 -9.538,3.992 -9.878,3.464 -9.962,3.03 c -0.442,-2.278 0.493,-4.093 2.129,-5.69 1.367,-1.334 2.647,-2.75 3.95,-4.144 0.154,-0.164 0.175,-0.438 0.313,-0.623 0.601,-0.8 1.092,-1.743 1.867,-2.337 1.148,-0.88 2.219,-1.637 2.839,-3.068 0.561,-1.295 1.774,-2.32 2.663,-3.49 1.912,-2.517 3.73,-5.104 5.724,-7.559 1.413,-1.74 3.044,-3.316 4.59,-4.956 0.439,-0.464 0.972,-0.852 1.373,-1.343 1.518,-1.858 3.267,-3.19 5.933,-2.946 0.69,0.063 1.437,-0.418 2.123,-0.347 2.249,0.236 4.493,0.446 5.993,2.539 0.979,1.366 2.395,2.437 3.403,3.788 0.677,0.906 1.058,2.045 1.432,3.125 0.33,0.952 0.561,1.957 0.654,2.954 0.057,0.6 -0.041,1.377 -0.402,1.823 -1.428,1.765 -2.979,3.436 -4.5,5.129 -0.811,0.902 -1.636,1.794 -2.492,2.655 -0.327,0.329 -0.746,0.582 -1.147,0.834 -0.906,0.568 -1.826,1.114 -2.74,1.671 -0.069,0.042 -0.129,0.129 -0.198,0.135 -1.908,0.162 -3.169,1.581 -4.786,2.274 -1.917,0.823 -4.012,1.247 -5.978,1.978 C 9.782,-3.455 6.824,-2.239 3.86,-1.038 3.172,-0.76 2.554,-0.32 1.866,-0.04 1.325,0.182 0.727,0.273 0.153,0.423 0.102,0.281 0.051,0.141 0,0"
               style="fill:#fff;fill-opacity:1;fill-rule:nonzero;stroke:none"
               id="path5765"
               inkscape:connector-curvature="0" />
          </g>
        </g>
        <g
           id="g5767"
           transform="matrix(0.1370464,0,0,-0.1314461,371.6619,48.87323)">
          <g
             id="g5769"
             transform="translate(-1087.5098,-1333.2623)">
            <path
               d="m 0,0 c -4.098,-0.216 -8.235,0.15 -12.25,-1.14 -2.088,-0.671 -4.319,-0.916 -6.472,-1.413 -0.615,-0.141 -1.271,-0.383 -1.751,-0.762 -1.712,-1.358 -3.362,-2.788 -5.02,-4.206 -0.334,-0.287 -0.578,-0.667 -0.903,-0.964 -1.825,-1.665 -2.399,-3.675 -2,-6.051 0.159,-0.953 0.125,-1.974 -0.03,-2.933 -0.331,-2.049 0.153,-3.514 2.063,-4.496 2.075,-1.066 4.287,-1.886 6.447,-2.794 0.246,-0.103 0.57,-0.17 0.821,-0.11 4.33,1.041 8.559,2.346 12.229,4.902 3.158,2.198 6.252,4.483 9.401,6.694 0.885,0.621 1.864,1.116 2.798,1.672 1.997,1.192 3.973,2.416 5.994,3.568 1.56,0.888 3.206,1.637 4.759,2.538 2.061,1.194 4.474,1.952 5.739,4.185 0.402,0.708 0.47,3.269 -0.027,3.873 C 21.213,3.275 20.665,2.757 20.257,2.368 19.83,1.962 19.617,1.34 19.176,0.958 18.83,0.659 18.25,0.408 17.825,0.469 17.53,0.511 17.269,1.095 17.09,1.479 16.845,2.006 16.799,2.642 16.476,3.104 15.977,3.819 15.36,3.992 14.561,3.28 13.257,2.12 11.524,2.15 9.889,1.98 9.426,1.933 8.931,2.047 8.491,1.937 6.18,1.364 3.886,0.728 1.576,0.149 1.071,0.023 0.526,0.046 0,0"
               style="fill:#fff;fill-opacity:1;fill-rule:nonzero;stroke:none"
               id="path5771"
               inkscape:connector-curvature="0" />
          </g>
        </g>
        <g
           id="g5773"
           transform="matrix(0.1370464,0,0,-0.1314461,371.6619,48.87323)">
          <g
             id="g5775"
             transform="translate(-1173.8667,-1428.5421)">
            <path
               d="m 0,0 c 0.188,1.623 -1.169,2.504 -1.91,3.674 -1.398,2.209 -3.817,2.423 -6.128,2.82 -0.079,0.013 -0.173,0.026 -0.243,-0.003 -2.151,-0.88 -4.574,-1.198 -5.956,-3.468 -1.146,-1.883 -1.76,-3.797 -1.922,-5.964 -0.201,-2.693 0.372,-5.254 0.895,-7.854 0.454,-2.258 0.713,-4.553 1.044,-6.833 0.348,-2.397 0.394,-4.876 1.091,-7.173 0.868,-2.858 0.992,-5.74 1.269,-8.645 0.145,-1.525 0.759,-3.003 1.047,-4.522 0.41,-2.173 0.529,-4.412 1.115,-6.535 0.672,-2.429 1.646,-4.791 2.668,-7.109 0.191,-0.433 1.431,-0.887 1.824,-0.681 0.608,0.316 1.098,1.147 1.273,1.844 0.17,0.679 -0.246,1.476 -0.184,2.204 0.222,2.61 0.562,5.21 0.807,7.818 0.099,1.054 -0.008,2.129 0.114,3.179 0.118,1.025 0.399,2.034 0.629,3.045 0.06,0.265 0.256,0.506 0.291,0.771 0.255,1.939 0.433,3.889 0.737,5.821 0.259,1.642 0.607,3.275 0.999,4.894 0.651,2.683 2.021,5.23 1.592,8.113 -0.029,0.19 -0.018,0.402 0.036,0.587 0.444,1.519 0.904,3.033 1.354,4.55 0.077,0.26 0.246,0.555 0.182,0.784 -0.66,2.35 0.24,4.641 0.242,6.962 C 2.867,-0.366 2.361,0.101 0.946,0.026 0.623,0.009 0.297,0.024 -0.027,0.024 c 0.029,-0.347 0.193,-0.761 0.052,-1.023 -0.174,-0.326 -0.57,-0.594 -0.934,-0.744 -0.137,-0.057 -0.666,0.317 -0.647,0.44 0.067,0.423 0.207,0.907 0.499,1.199 C -0.868,0.083 -0.363,-0.024 0,0"
               style="fill:#fff;fill-opacity:1;fill-rule:nonzero;stroke:none"
               id="path5777"
               inkscape:connector-curvature="0" />
          </g>
        </g>
      </g>
    </g>
  </g>
</svg>
