<?xml version="1.0" encoding="UTF-8" standalone="no"?>
<!-- Created with Inkscape (http://www.inkscape.org/) -->

<svg
   xmlns:dc="http://purl.org/dc/elements/1.1/"
   xmlns:cc="http://creativecommons.org/ns#"
   xmlns:rdf="http://www.w3.org/1999/02/22-rdf-syntax-ns#"
   xmlns:svg="http://www.w3.org/2000/svg"
   xmlns="http://www.w3.org/2000/svg"
   xmlns:sodipodi="http://sodipodi.sourceforge.net/DTD/sodipodi-0.dtd"
   xmlns:inkscape="http://www.inkscape.org/namespaces/inkscape"
   width="10.891214mm"
   height="14.627712mm"
   viewBox="0 0 10.891214 14.627712"
   version="1.1"
   id="svg7914"
   inkscape:version="0.92.5 (2060ec1f9f, 2020-04-08)"
   sodipodi:docname="death-monster.svg">
  <defs
     id="defs7908">
    <clipPath
       clipPathUnits="userSpaceOnUse"
       id="clipPath5295">
      <path
         d="m 368.399,312.989 h 30.943 v 41.581 h -30.943 z"
         id="path5293"
         inkscape:connector-curvature="0" />
    </clipPath>
  </defs>
  <sodipodi:namedview
     id="base"
     pagecolor="#ffffff"
     bordercolor="#666666"
     borderopacity="1.0"
     inkscape:pageopacity="0.0"
     inkscape:pageshadow="2"
     inkscape:zoom="0.35"
     inkscape:cx="-153.70389"
     inkscape:cy="130.50008"
     inkscape:document-units="mm"
     inkscape:current-layer="layer1"
     showgrid="false"
     fit-margin-top="0"
     fit-margin-left="0"
     fit-margin-right="0"
     fit-margin-bottom="0"
     inkscape:window-width="1920"
     inkscape:window-height="1017"
     inkscape:window-x="-8"
     inkscape:window-y="-8"
     inkscape:window-maximized="1" />
  <metadata
     id="metadata7911">
    <rdf:RDF>
      <cc:Work
         rdf:about="">
        <dc:format>image/svg+xml</dc:format>
        <dc:type
           rdf:resource="http://purl.org/dc/dcmitype/StillImage" />
        <dc:title></dc:title>
      </cc:Work>
    </rdf:RDF>
  </metadata>
  <g
     inkscape:label="Layer 1"
     inkscape:groupmode="layer"
     id="layer1"
     transform="translate(-146.50082,-168.73377)">
    <g
       transform="matrix(0.35277777,0,0,-0.35277777,16.525532,293.79766)"
       id="g5289">
      <g
         id="g5291"
         clip-path="url(#clipPath5295)">
        <g
           id="g5297"
           transform="translate(379.1944,352.0496)">
          <path
             d="M 0,0 C 0.013,0.159 0.007,0.17 -0.18,0.35 -0.325,0.489 -0.635,0.519 -0.777,0.387 -0.9,0.274 -1.013,0.145 -1.104,0.006 -1.311,-0.31 -1.538,-0.607 -1.809,-0.87 -1.961,-1.017 -1.967,-1.182 -1.846,-1.342 -1.583,-1.69 -1.091,-1.763 -0.755,-1.478 -0.305,-1.094 0.016,-0.631 0,0 m 0.744,-32.302 c 0.003,0.139 0.009,0.278 0.008,0.416 -0.006,0.422 -0.02,0.844 -0.02,1.266 0,0.17 0.027,0.34 0.043,0.51 0.047,0.519 0.099,1.037 0.139,1.557 0.021,0.266 0.099,0.509 0.222,0.743 0.153,0.289 0.305,0.357 0.623,0.274 0.093,-0.024 0.188,-0.04 0.283,-0.05 0.031,-0.004 0.076,0.016 0.096,0.041 0.14,0.173 0.295,0.339 0.41,0.528 0.231,0.385 0.435,0.786 0.661,1.173 0.072,0.123 0.182,0.222 0.271,0.334 0.071,0.088 0.138,0.179 0.242,0.316 -0.277,-0.027 -0.478,-0.059 -0.646,-0.217 -0.071,-0.067 -0.155,-0.177 -0.275,-0.074 -0.078,0.066 -0.054,0.181 0.039,0.315 0.424,0.613 0.864,1.217 1.263,1.846 0.294,0.463 0.507,0.971 0.667,1.499 0.122,0.404 0.242,0.808 0.376,1.209 0.039,0.116 0.11,0.227 0.189,0.322 0.152,0.185 0.344,0.206 0.569,0.059 0.081,0.262 0.146,0.503 0.23,0.738 0.22,0.619 0.22,1.271 0.305,1.911 0.025,0.185 0.086,0.365 0.116,0.55 0.027,0.177 0.037,0.356 0.051,0.535 0.014,0.196 0.082,0.346 0.294,0.4 0.138,0.035 0.136,0.042 0.295,-0.088 0.136,0.245 0.285,0.485 0.324,0.759 0.088,0.622 0.201,1.243 0.156,1.876 -0.012,0.169 -0.025,0.342 -0.075,0.502 -0.105,0.338 -0.076,0.629 0.109,0.949 0.321,0.554 0.51,1.165 0.609,1.802 0.048,0.309 -0.074,0.56 -0.226,0.804 -0.032,0.051 -0.119,0.071 -0.185,0.094 -0.182,0.067 -0.304,0.18 -0.341,0.381 -0.013,0.073 -0.067,0.139 -0.105,0.206 -0.027,0.046 -0.081,0.087 -0.087,0.134 -0.038,0.341 -0.169,0.654 -0.275,0.976 -0.055,0.168 -0.082,0.345 -0.168,0.506 -0.05,0.093 -0.07,0.202 -0.106,0.303 -0.021,0.058 -0.033,0.126 -0.071,0.17 -0.17,0.201 -0.195,0.44 -0.187,0.685 0.008,0.258 0.132,0.392 0.391,0.436 0.106,0.018 0.214,0.02 0.344,0.032 C 7.226,-5.427 7.171,-5.292 7.013,-5.212 6.934,-5.171 6.89,-5.064 6.826,-4.99 6.755,-4.91 6.68,-4.833 6.587,-4.733 6.44,-4.95 6.289,-5.144 6.17,-5.357 6.06,-5.554 5.924,-5.712 5.718,-5.798 5.539,-5.873 5.486,-5.995 5.517,-6.182 5.55,-6.377 5.558,-6.575 5.577,-6.769 5.762,-6.877 5.8,-6.953 5.701,-7.13 5.624,-7.266 5.624,-7.396 5.629,-7.542 5.641,-7.911 5.643,-8.28 5.632,-8.649 5.628,-8.77 5.601,-8.913 5.531,-9.005 5.42,-9.148 5.417,-9.295 5.409,-9.458 5.403,-9.59 5.393,-9.738 5.328,-9.846 5.221,-10.025 5.19,-10.208 5.185,-10.408 5.179,-10.714 5.022,-10.94 4.804,-11.149 4.447,-11.492 4.122,-11.865 4.006,-12.371 3.994,-12.422 3.978,-12.473 3.959,-12.54 c -0.158,0.011 -0.255,0.094 -0.306,0.226 -0.102,0.265 -0.319,0.411 -0.545,0.549 -0.076,0.046 -0.15,0.093 -0.227,0.136 -0.078,0.043 -0.153,0.1 -0.237,0.118 -0.356,0.077 -0.714,0.059 -1.071,-0.001 -0.051,-0.008 -0.111,-0.029 -0.145,-0.065 -0.153,-0.162 -0.347,-0.171 -0.549,-0.168 -0.135,10e-4 -0.27,-0.009 -0.405,-0.011 -0.229,-0.005 -0.442,-0.042 -0.614,-0.219 -0.137,-0.141 -0.317,-0.202 -0.513,-0.205 -0.29,-0.004 -0.543,-0.129 -0.777,-0.275 -0.281,-0.174 -0.558,-0.36 -0.758,-0.638 -0.056,-0.077 -0.148,-0.13 -0.223,-0.193 -0.124,-0.104 -0.248,-0.207 -0.373,-0.31 -0.198,-0.164 -0.407,-0.318 -0.593,-0.497 -0.218,-0.211 -0.416,-0.444 -0.625,-0.666 -0.036,-0.039 -0.081,-0.092 -0.126,-0.096 -0.309,-0.027 -0.625,-0.097 -0.914,0.097 -0.079,0.054 -0.177,0.08 -0.257,0.131 -0.103,0.067 -0.21,0.135 -0.293,0.224 -0.137,0.146 -0.282,0.227 -0.493,0.222 -0.531,-0.013 -1.062,0.003 -1.593,-0.003 -0.206,-0.002 -0.374,0.034 -0.453,0.253 -0.017,0.046 -0.072,0.077 -0.11,0.115 -0.137,0.136 -0.139,0.17 -0.04,0.339 0.025,0.042 0.029,0.096 0.045,0.145 0.015,0.049 0.019,0.12 0.053,0.142 0.159,0.101 0.124,0.242 0.093,0.383 -0.045,0.21 -0.083,0.423 -0.147,0.627 -0.102,0.328 -0.054,0.661 -0.054,0.991 -10e-4,0.143 0.065,0.275 0.187,0.375 0.088,0.072 0.159,0.167 0.268,0.284 0.043,-0.114 0.091,-0.197 0.107,-0.286 0.083,-0.459 0.343,-0.801 0.694,-1.088 0.148,-0.121 0.299,-0.138 0.476,-0.067 0.214,0.084 0.435,0.151 0.688,0.237 0,0.201 0.001,0.442 0,0.683 -10e-4,0.17 -10e-4,0.329 0.098,0.49 0.081,0.132 0.09,0.308 0.135,0.463 0.029,0.103 0.064,0.205 0.099,0.307 0.042,0.123 0.139,0.16 0.256,0.15 0.112,-0.01 0.187,-0.083 0.203,-0.187 0.019,-0.124 0.023,-0.252 0.015,-0.377 -0.017,-0.228 0.021,-0.445 0.087,-0.661 0.028,-0.093 0.03,-0.194 0.041,-0.292 0.015,-0.133 0.067,-0.237 0.241,-0.29 0.025,0.092 0.054,0.172 0.068,0.254 0.028,0.16 0.04,0.322 0.074,0.48 0.06,0.282 0.172,0.325 0.414,0.182 0.098,-0.059 0.209,-0.099 0.314,-0.145 0.128,-0.057 0.254,-0.092 0.358,0.085 0.051,-0.114 0.087,-0.193 0.13,-0.291 0.05,0.018 0.101,0.036 0.187,0.067 -0.16,0.142 -0.15,0.29 -0.11,0.453 0.043,0.174 0.06,0.355 0.093,0.531 0.025,0.133 0.047,0.269 0.185,0.338 0.242,-0.113 0.48,-0.225 0.729,-0.342 0.046,0.031 0.095,0.064 0.165,0.11 0.038,-0.096 0.072,-0.183 0.11,-0.28 0.109,0.012 0.205,0.064 0.112,0.16 -0.127,0.131 -0.09,0.259 -0.071,0.4 0.026,0.204 0.051,0.409 0.073,0.614 0.016,0.137 0.041,0.267 0.178,0.368 0.055,-0.031 0.115,-0.063 0.174,-0.098 0.039,-0.023 0.084,-0.078 0.112,-0.07 0.239,0.071 0.363,-0.137 0.543,-0.226 0.136,0.136 0.049,0.276 0.034,0.41 -0.015,0.132 -0.031,0.264 -0.05,0.42 0.33,0.002 0.404,0.242 0.475,0.477 0.149,-0.041 0.234,-0.119 0.293,-0.241 0.116,-0.242 0.223,-0.308 0.403,-0.274 0.192,0.036 0.344,0.229 0.353,0.455 0.003,0.063 -0.011,0.127 -0.004,0.189 0.02,0.198 0.107,0.262 0.314,0.262 0.096,0 0.193,0.024 0.288,0.037 0.088,0.145 0.051,0.247 -0.039,0.372 -0.189,0.262 -0.363,0.536 -0.519,0.818 -0.128,0.232 -0.278,0.44 -0.477,0.612 -0.179,0.154 -0.347,0.314 -0.414,0.584 -0.102,-0.024 -0.212,-0.02 -0.283,-0.071 -0.201,-0.143 -0.422,-0.131 -0.675,-0.126 -0.081,0.221 -0.248,0.361 -0.504,0.325 -0.099,-0.014 -0.228,-0.058 -0.278,-0.132 -0.145,-0.212 -0.297,-0.427 -0.289,-0.71 0.006,-0.187 -0.017,-0.374 -0.026,-0.549 -0.145,-0.109 -0.274,-0.086 -0.335,0.045 -0.054,0.116 -0.149,0.169 -0.226,0.251 -0.097,0.103 -0.17,0.229 -0.265,0.336 -0.069,0.079 -0.148,0.157 -0.238,0.208 -0.116,0.066 -0.18,0.024 -0.238,-0.109 -0.086,-0.195 -0.175,-0.389 -0.267,-0.582 -0.051,-0.106 -0.133,-0.127 -0.212,-0.041 -0.091,0.097 -0.168,0.189 -0.311,0.228 -0.073,0.021 -0.112,0.154 -0.174,0.23 -0.08,0.099 -0.133,0.243 -0.324,0.214 0.022,-0.16 -0.034,-0.269 -0.195,-0.323 -0.125,-0.043 -0.162,-0.163 -0.173,-0.283 -0.014,-0.161 -0.026,-0.322 -0.026,-0.484 0.001,-0.155 -0.046,-0.283 -0.167,-0.379 -0.166,-0.133 -0.317,-0.088 -0.414,0.099 -0.125,0.243 -0.206,0.498 -0.199,0.771 0.005,0.215 -0.088,0.353 -0.308,0.463 -0.024,-0.28 -0.069,-0.547 -0.064,-0.812 0.005,-0.276 -0.089,-0.469 -0.373,-0.608 -0.108,0.095 -0.228,0.195 -0.342,0.304 -0.081,0.076 -0.111,0.172 -0.12,0.288 -0.01,0.148 -0.058,0.293 -0.09,0.44 -0.142,-0.002 -0.191,-0.07 -0.221,-0.159 -0.146,-0.434 -0.294,-0.868 -0.438,-1.303 -0.209,-0.634 -0.37,-1.277 -0.316,-1.954 0.004,-0.063 -0.003,-0.126 -0.008,-0.189 -10e-4,-0.017 -0.013,-0.033 -0.021,-0.052 -0.164,-0.058 -0.234,0.057 -0.281,0.174 -0.104,0.258 -0.195,0.521 -0.291,0.782 -0.022,0.058 -0.038,0.118 -0.068,0.172 -0.174,0.313 -0.279,0.651 -0.253,1.004 0.023,0.313 -0.238,0.504 -0.531,0.367 -0.341,-0.159 -0.659,-0.339 -0.771,-0.736 -0.007,-0.026 -0.021,-0.05 -0.037,-0.071 -0.01,-0.013 -0.029,-0.019 -0.054,-0.035 -0.119,0.067 -0.189,0.168 -0.135,0.304 0.138,0.345 0.208,0.712 0.413,1.039 0.376,0.599 0.713,1.223 1.062,1.839 0.046,0.081 0.098,0.159 0.041,0.273 -0.021,0.042 0.045,0.154 0.098,0.204 0.325,0.297 0.654,0.588 0.988,0.874 0.549,0.471 1.194,0.794 1.813,1.156 0.347,0.205 0.716,0.373 1.07,0.567 0.431,0.236 0.754,0.605 1.116,0.926 0.374,0.332 0.774,0.637 1.17,0.944 0.219,0.169 0.448,0.329 0.685,0.473 0.659,0.4 1.326,0.776 2.108,0.901 0.36,0.057 0.717,0.167 1.062,0.289 0.575,0.203 1.164,0.283 1.77,0.298 C 3.155,2.356 3.657,2.39 4.156,2.44 4.958,2.52 5.733,2.375 6.493,2.151 7.049,1.988 7.59,1.774 8.138,1.582 8.155,1.576 8.173,1.571 8.188,1.561 8.46,1.381 8.769,1.29 9.068,1.172 9.36,1.058 9.535,0.81 9.631,0.52 9.696,0.323 9.74,0.123 9.894,-0.031 c 0.042,-0.042 0.059,-0.11 0.083,-0.168 0.139,-0.341 0.277,-0.682 0.417,-1.022 0.009,-0.023 0.034,-0.039 0.065,-0.073 0.062,0.056 0.117,0.112 0.179,0.159 0.093,0.068 0.183,0.151 0.288,0.187 0.117,0.039 0.171,0.106 0.215,0.214 0.096,0.231 0.204,0.458 0.315,0.683 0.103,0.212 0.258,0.292 0.453,0.25 0.176,-0.039 0.253,-0.18 0.309,-0.396 0.107,-0.408 0.089,-0.832 0.197,-1.242 0.068,-0.255 0.052,-0.537 0.044,-0.805 -0.009,-0.29 0.011,-0.554 0.323,-0.731 0.052,0.047 0.122,0.111 0.192,0.175 0.121,0.112 0.259,0.165 0.42,0.107 0.169,-0.06 0.267,-0.185 0.275,-0.364 0.007,-0.162 0.035,-0.334 -0.009,-0.484 -0.148,-0.504 -0.088,-1.017 -0.107,-1.527 -0.005,-0.152 -0.016,-0.305 -0.029,-0.457 -0.017,-0.209 -0.117,-0.355 -0.33,-0.408 -0.034,-0.009 -0.086,-0.017 -0.096,-0.04 -0.135,-0.318 -0.504,-0.394 -0.683,-0.664 -0.032,-0.049 -0.085,-0.108 -0.079,-0.156 0.034,-0.293 0.082,-0.585 0.127,-0.884 0.087,-0.015 0.171,-0.017 0.243,-0.047 0.07,-0.028 0.157,-0.072 0.185,-0.133 0.114,-0.248 0.329,-0.34 0.568,-0.348 0.521,-0.018 1.043,-0.01 1.565,-0.006 0.097,0 0.194,0.032 0.327,0.055 0.02,-0.211 0.054,-0.422 0.056,-0.633 0.006,-0.494 0.007,-0.987 -0.011,-1.48 -0.009,-0.24 -0.088,-0.477 -0.098,-0.717 -0.025,-0.558 -0.135,-1.103 -0.258,-1.644 -0.065,-0.286 -0.181,-0.563 -0.289,-0.838 -0.135,-0.343 -0.45,-0.377 -0.682,-0.083 -0.071,0.091 -0.136,0.187 -0.214,0.272 -0.18,0.198 -0.367,0.389 -0.55,0.585 -0.117,0.125 -0.279,0.143 -0.498,0.041 0.01,-0.056 0.013,-0.118 0.03,-0.176 0.099,-0.328 0,-0.624 -0.16,-0.902 -0.073,-0.128 -0.198,-0.206 -0.363,-0.178 -0.052,0.009 -0.105,0.007 -0.157,0.01 -0.09,-0.122 -0.097,-0.245 -0.02,-0.358 0.065,-0.095 0.057,-0.182 0.025,-0.28 -0.021,-0.068 -0.024,-0.142 -0.049,-0.209 -0.133,-0.355 -0.007,-0.688 0.094,-1.018 0.07,-0.232 0.318,-0.345 0.575,-0.251 0.235,0.087 0.405,0.039 0.589,-0.118 0.102,-0.086 0.255,-0.126 0.392,-0.15 0.169,-0.029 0.251,-0.116 0.284,-0.274 0.057,-0.271 0.166,-0.539 0.052,-0.818 -0.079,-0.191 -0.17,-0.377 -0.248,-0.567 -0.033,-0.083 -0.058,-0.171 -0.07,-0.259 -0.048,-0.354 -0.194,-0.668 -0.365,-0.977 -0.162,-0.294 -0.354,-0.555 -0.613,-0.777 -0.152,-0.132 -0.295,-0.224 -0.499,-0.216 -0.07,0.002 -0.141,-0.02 -0.241,-0.036 -0.012,0.11 -0.024,0.213 -0.036,0.315 -0.042,0.36 -0.193,0.482 -0.553,0.446 -0.131,0.198 -0.206,0.44 -0.456,0.564 -0.174,-0.146 -0.278,-0.401 -0.554,-0.394 -0.022,-0.265 0.051,-0.495 0.142,-0.718 0.077,-0.187 0.055,-0.341 -0.101,-0.483 -0.192,-0.175 -0.306,-0.393 -0.315,-0.661 -0.005,-0.117 -0.013,-0.236 -0.045,-0.347 -0.031,-0.109 -0.085,-0.214 -0.145,-0.311 -0.056,-0.089 -0.132,-0.166 -0.201,-0.248 -0.034,-0.041 -0.065,-0.093 -0.11,-0.116 -0.511,-0.272 -0.66,-0.777 -0.813,-1.273 -0.088,-0.283 -0.136,-0.574 -0.399,-0.769 -0.105,-0.077 -0.052,-0.233 0.102,-0.25 0.202,-0.021 0.284,-0.144 0.387,-0.287 0.09,-0.127 0.088,-0.244 0.07,-0.391 -0.074,-0.014 -0.144,-0.043 -0.211,-0.038 -0.371,0.027 -0.646,-0.155 -0.855,-0.427 -0.272,-0.356 -0.526,-0.728 -0.767,-1.107 -0.107,-0.168 -0.161,-0.369 -0.198,-0.589 0.043,0.019 0.087,0.034 0.128,0.057 0.038,0.023 0.07,0.059 0.11,0.078 0.148,0.07 0.309,0.067 0.438,-0.017 0.126,-0.082 0.024,-0.213 0.005,-0.322 -0.087,-0.489 -0.35,-0.848 -0.771,-1.113 -0.305,-0.192 -0.584,-0.425 -0.739,-0.765 -0.173,-0.38 -0.279,-0.777 -0.269,-1.198 0.001,-0.02 0.027,-0.04 0.054,-0.078 0.038,0.05 0.067,0.09 0.099,0.128 0.131,0.159 0.248,0.332 0.397,0.47 0.249,0.23 0.461,0.508 0.779,0.657 0.162,0.076 0.321,0.165 0.49,0.217 0.093,0.029 0.214,0.014 0.308,-0.021 0.248,-0.092 0.288,-0.165 0.265,-0.429 -0.011,-0.123 -0.05,-0.246 0.076,-0.363 0.105,0.095 0.168,0.204 0.231,0.323 0.2,0.38 0.415,0.748 0.687,1.087 0.188,0.233 0.295,0.531 0.429,0.805 0.134,0.272 0.257,0.55 0.384,0.826 0.019,0.04 0.038,0.084 0.042,0.127 0.015,0.163 0.106,0.251 0.252,0.318 0.083,0.038 0.147,0.125 0.209,0.199 0.159,0.192 0.342,0.256 0.546,0.183 0.213,-0.076 0.338,-0.268 0.316,-0.508 -0.01,-0.115 -0.021,-0.244 -0.078,-0.338 -0.116,-0.19 -0.155,-0.399 -0.219,-0.604 -0.058,-0.186 -0.14,-0.374 -0.253,-0.53 -0.307,-0.421 -0.497,-0.887 -0.644,-1.382 -0.12,-0.403 -0.149,-0.825 -0.281,-1.223 -0.168,-0.509 -0.35,-1.014 -0.515,-1.524 -0.057,-0.178 -0.099,-0.364 -0.118,-0.55 -0.014,-0.141 0.021,-0.275 0.168,-0.371 0.065,-0.042 0.081,-0.167 0.108,-0.258 0.061,-0.204 0.129,-0.398 0.354,-0.414 0.293,0.334 0.584,0.637 0.841,0.965 0.204,0.26 0.38,0.544 0.548,0.83 0.337,0.572 0.688,1.138 0.983,1.732 0.428,0.858 0.816,1.737 1.213,2.61 0.452,0.99 0.765,2.029 1.085,3.066 0.141,0.455 0.285,0.908 0.316,1.387 0.013,0.185 0.016,0.372 0.006,0.557 -0.008,0.133 0.023,0.245 0.148,0.284 0.131,0.041 0.144,0.131 0.176,0.239 0.07,0.237 0.178,0.458 0.38,0.702 0.056,-0.223 0.094,-0.385 0.138,-0.547 0.179,-0.669 0.213,-1.345 0.095,-2.029 -0.053,-0.303 -0.041,-0.591 0.047,-0.901 0.071,-0.249 -0.005,-0.549 -0.052,-0.82 -0.054,-0.305 -0.171,-0.599 -0.221,-0.904 -0.098,-0.599 -0.169,-1.202 -0.252,-1.803 -0.007,-0.053 -0.02,-0.106 -0.031,-0.158 -0.063,-0.306 -0.115,-0.614 -0.194,-0.915 -0.046,-0.18 -0.115,-0.362 -0.212,-0.519 -0.138,-0.225 -0.22,-0.467 -0.299,-0.715 -0.115,-0.357 -0.251,-0.707 -0.377,-1.061 -0.09,-0.255 -0.142,-0.51 -0.041,-0.779 0.101,-0.271 0.189,-0.541 0.428,-0.735 0.119,-0.097 0.204,-0.125 0.356,-0.046 0.236,0.124 0.497,0.203 0.747,0.301 0.075,0.029 0.158,0.047 0.224,0.09 0.399,0.258 0.833,0.466 1.15,0.837 0.128,0.15 0.291,0.272 0.405,0.43 0.114,0.158 0.187,0.345 0.276,0.52 0.04,0.08 0.066,0.169 0.116,0.24 0.308,0.438 0.496,0.933 0.684,1.427 0.016,0.041 0.02,0.088 0.019,0.132 -0.007,0.463 0.097,0.908 0.204,1.355 0.04,0.171 0.017,0.357 0.036,0.535 0.011,0.1 0.048,0.198 0.081,0.326 0.306,-0.264 0.576,-0.497 0.846,-0.732 0.02,-0.017 0.047,-0.042 0.046,-0.063 -0.006,-0.292 0.154,-0.543 0.188,-0.833 0.051,-0.441 -0.03,-0.856 -0.08,-1.281 -0.003,-0.027 -0.012,-0.054 -0.01,-0.081 0.066,-0.804 -0.193,-1.565 -0.321,-2.343 -0.047,-0.284 -0.109,-0.566 -0.185,-0.844 -0.056,-0.205 -0.151,-0.401 -0.22,-0.604 -0.164,-0.483 -0.493,-0.902 -0.573,-1.417 -0.044,-0.291 -0.22,-0.512 -0.374,-0.739 -0.155,-0.229 -0.333,-0.456 -0.545,-0.63 -0.184,-0.15 -0.39,-0.244 -0.437,-0.518 -0.014,-0.08 -0.167,-0.161 -0.271,-0.195 -0.345,-0.112 -0.696,-0.188 -1.058,-0.067 -0.077,0.026 -0.16,0.03 -0.236,0.057 -0.102,0.036 -0.188,0.024 -0.278,-0.039 -0.216,-0.15 -0.468,-0.186 -0.721,-0.173 -0.301,0.017 -0.587,-0.043 -0.875,-0.111 -0.009,-0.002 -0.017,-0.008 -0.025,-0.009 -0.607,-0.033 -1.179,-0.231 -1.761,-0.377 -0.251,-0.064 -0.495,-0.158 -0.742,-0.238 -0.128,-0.042 -0.253,-0.091 -0.382,-0.126 -0.162,-0.044 -0.326,-0.065 -0.477,-0.163 -0.104,-0.067 -0.259,-0.064 -0.392,-0.077 -0.125,-0.012 -0.252,0.004 -0.377,-0.005 -0.263,-0.018 -0.52,10e-4 -0.787,-0.099 -0.259,-0.098 -0.564,-0.074 -0.849,-0.098 -0.314,-0.027 -0.622,0.042 -0.933,0.07 -0.212,0.019 -0.429,0.072 -0.636,-0.034 -0.016,-0.007 -0.036,-0.008 -0.053,-0.008 -0.636,0.012 -1.275,-0.092 -1.907,0.022 -0.228,0.041 -0.447,0.13 -0.67,0.198 -0.059,0.018 -0.121,0.058 -0.177,0.052 -0.335,-0.036 -0.637,0.082 -0.941,0.187 -0.216,0.075 -0.325,0.272 -0.46,0.437 -0.022,0.027 -0.036,0.06 -0.051,0.087 -0.409,-0.045 -0.612,0.051 -0.79,0.415 -0.134,0.273 -0.324,0.494 -0.54,0.7 -0.196,0.186 -0.382,0.378 -0.461,0.652 -0.023,0.08 -0.095,0.15 -0.155,0.215 -0.132,0.146 -0.291,0.272 -0.401,0.432 -0.093,0.135 -0.138,0.305 -0.195,0.463 -0.036,0.098 -0.033,0.217 -0.087,0.302 -0.104,0.165 -0.159,0.338 -0.179,0.529 -0.009,0.086 -0.028,0.186 -0.079,0.249 -0.14,0.175 -0.168,0.376 -0.167,0.585 0.003,0.746 0.004,1.493 0.019,2.24 0.003,0.149 0.056,0.298 0.099,0.443 0.037,0.125 0.136,0.193 0.263,0.198 0.14,0.006 0.25,-0.062 0.29,-0.197 0.047,-0.162 0.088,-0.329 0.102,-0.497 0.011,-0.123 0.041,-0.21 0.13,-0.304 0.122,-0.128 0.207,-0.291 0.31,-0.437 0.077,-0.108 0.158,-0.212 0.237,-0.319 0.019,0.005 0.037,0.01 0.056,0.014"
             style="fill:#fff;fill-opacity:1;fill-rule:nonzero;stroke:none"
             id="path5299"
             inkscape:connector-curvature="0" />
        </g>
      </g>
    </g>
  </g>
</svg>
