<?xml version="1.0" encoding="UTF-8" standalone="no"?>
<!-- Created with Inkscape (http://www.inkscape.org/) -->

<svg
   xmlns:dc="http://purl.org/dc/elements/1.1/"
   xmlns:cc="http://creativecommons.org/ns#"
   xmlns:rdf="http://www.w3.org/1999/02/22-rdf-syntax-ns#"
   xmlns:svg="http://www.w3.org/2000/svg"
   xmlns="http://www.w3.org/2000/svg"
   xmlns:sodipodi="http://sodipodi.sourceforge.net/DTD/sodipodi-0.dtd"
   xmlns:inkscape="http://www.inkscape.org/namespaces/inkscape"
   width="12.765368mm"
   height="14.5mm"
   viewBox="0 0 12.765368 14.5"
   version="1.1"
   id="svg7952"
   inkscape:version="0.92.5 (2060ec1f9f, 2020-04-08)"
   sodipodi:docname="destruction-monster.svg">
  <defs
     id="defs7946">
    <clipPath
       clipPathUnits="userSpaceOnUse"
       id="clipPath5307">
      <path
         d="m 453.615,313.204 h 36.217 v 41.15 h -36.217 z"
         id="path5305"
         inkscape:connector-curvature="0" />
    </clipPath>
  </defs>
  <sodipodi:namedview
     id="base"
     pagecolor="#ffffff"
     bordercolor="#666666"
     borderopacity="1.0"
     inkscape:pageopacity="0.0"
     inkscape:pageshadow="2"
     inkscape:zoom="0.35"
     inkscape:cx="-227.30504"
     inkscape:cy="93.115843"
     inkscape:document-units="mm"
     inkscape:current-layer="layer1"
     showgrid="false"
     fit-margin-top="0"
     fit-margin-left="0"
     fit-margin-right="0"
     fit-margin-bottom="0"
     inkscape:window-width="1920"
     inkscape:window-height="1017"
     inkscape:window-x="-8"
     inkscape:window-y="-8"
     inkscape:window-maximized="1" />
  <metadata
     id="metadata7949">
    <rdf:RDF>
      <cc:Work
         rdf:about="">
        <dc:format>image/svg+xml</dc:format>
        <dc:type
           rdf:resource="http://purl.org/dc/dcmitype/StillImage" />
        <dc:title></dc:title>
      </cc:Work>
    </rdf:RDF>
  </metadata>
  <g
     inkscape:label="Layer 1"
     inkscape:groupmode="layer"
     id="layer1"
     transform="translate(-165.97446,-158.97023)">
    <g
       transform="matrix(0.35277777,0,0,-0.35277777,5.9463049,283.96879)"
       id="g5301">
      <g
         id="g5303"
         clip-path="url(#clipPath5307)">
        <g
           id="g5309"
           transform="translate(458.0299,341.8126)">
          <path
             d="m 0,0 c -0.258,-0.275 -0.272,-0.62 -0.396,-0.916 -0.019,-0.045 0.052,-0.128 0.08,-0.192 0.294,0.096 0.384,0.331 0.425,0.547 C 0.14,-0.396 0.204,-0.175 0,0 m 26.315,-5.364 c -0.174,-0.088 -0.289,-0.16 -0.414,-0.208 -0.231,-0.088 -0.375,-0.275 -0.519,-0.456 -0.048,-0.059 -0.061,-0.171 -0.047,-0.252 0.072,-0.428 0.184,-0.843 0.455,-1.198 0.328,-0.428 0.667,-0.849 0.965,-1.297 0.226,-0.341 0.396,-0.72 0.61,-1.116 -0.2,0.018 -0.355,0.034 -0.51,0.045 -0.192,0.014 -0.324,-0.061 -0.401,-0.247 -0.097,-0.231 -0.221,-0.451 -0.317,-0.683 -0.085,-0.207 -0.079,-0.42 0.012,-0.63 0.028,-0.065 0.039,-0.138 0.053,-0.208 0.083,-0.437 0.165,-0.874 0.251,-1.329 0.064,-0.015 0.149,-0.036 0.213,-0.051 0.094,-0.254 0.183,-0.487 0.265,-0.723 0.022,-0.066 0.033,-0.138 0.035,-0.208 0.005,-0.153 -0.001,-0.306 10e-4,-0.459 0.003,-0.352 0.211,-0.564 0.562,-0.585 0.194,-0.012 0.388,-0.031 0.582,-0.054 0.048,-0.006 0.113,-0.026 0.137,-0.062 0.186,-0.273 0.476,-0.463 0.595,-0.794 0.083,-0.231 0.234,-0.286 0.474,-0.242 0.239,0.044 0.357,-0.012 0.48,-0.23 0.181,-0.32 0.254,-0.353 0.601,-0.246 0.101,0.031 0.18,0.025 0.23,-0.071 0.131,-0.255 0.388,-0.341 0.62,-0.449 0.105,-0.049 0.243,-0.026 0.378,-0.037 0.176,-0.368 0.163,-0.772 0.138,-1.173 -0.031,-0.524 -0.246,-1.006 -0.374,-1.507 -0.151,-0.593 -0.567,-0.985 -0.924,-1.426 -0.761,-0.941 -1.634,-1.774 -2.587,-2.515 -1.209,-0.94 -2.491,-1.771 -3.862,-2.461 -1.361,-0.685 -2.774,-1.233 -4.244,-1.632 -1.024,-0.278 -2.061,-0.496 -3.117,-0.611 -1.083,-0.118 -2.171,-0.129 -3.258,-0.087 -0.511,0.019 -1.017,0.12 -1.527,0.167 -0.276,0.025 -0.554,0.02 -0.831,0.02 -0.211,0 -0.41,0.027 -0.591,0.15 -0.055,0.037 -0.133,0.044 -0.202,0.059 -0.298,0.062 -0.415,0.304 -0.256,0.566 0.117,0.191 0.257,0.368 0.394,0.561 -0.164,0.189 -0.157,0.392 -0.077,0.608 0.151,0.412 0.294,0.826 0.448,1.26 -0.327,0.326 -0.491,0.754 -0.464,1.256 0.006,0.117 0.005,0.235 10e-4,0.351 -0.006,0.185 0.056,0.326 0.215,0.436 0.161,0.112 0.157,0.22 0.057,0.404 -0.038,0.069 -0.044,0.171 -0.029,0.252 0.026,0.14 0.008,0.248 -0.164,0.323 0.107,0.276 0.21,0.543 0.314,0.808 0.047,0.117 0.086,0.239 0.15,0.346 0.186,0.313 0.131,0.635 0.056,0.961 -0.039,0.167 -0.134,0.292 -0.279,0.38 -0.061,0.037 -0.125,0.068 -0.21,0.113 0.202,0.673 0.401,1.342 0.726,1.981 -0.063,0.036 -0.12,0.059 -0.165,0.095 -0.155,0.12 -0.262,0.265 -0.258,0.477 0.007,0.359 -0.017,0.721 0.012,1.079 0.03,0.383 0.087,0.768 0.338,1.11 -0.107,-0.029 -0.215,-0.057 -0.352,-0.094 0.015,0.081 0.021,0.148 0.041,0.212 0.19,0.617 0.524,1.163 0.877,1.695 0.172,0.259 0.286,0.518 0.252,0.83 -0.043,0.408 0.106,0.733 0.406,1.005 0.218,0.197 0.421,0.409 0.652,0.635 -0.075,0.179 -0.127,0.411 0.013,0.604 0.124,0.169 0.304,0.296 0.483,0.464 -0.017,0.107 -0.153,0.123 -0.294,0.183 0.063,0.121 0.114,0.241 0.185,0.35 0.185,0.285 0.371,0.572 0.573,0.846 0.341,0.463 0.705,0.909 1.038,1.378 0.196,0.276 0.272,0.617 0.293,0.945 0.029,0.439 -0.007,0.88 -0.226,1.286 -0.155,0.287 -0.362,0.506 -0.665,0.642 -0.126,0.056 -0.251,0.142 -0.344,0.245 -0.317,0.351 -0.718,0.407 -1.134,0.291 -0.19,-0.053 -0.369,-0.041 -0.553,-0.053 -0.188,-0.013 -0.378,0.003 -0.564,-0.017 -0.382,-0.04 -0.6,-0.281 -0.608,-0.661 -0.004,-0.224 -0.004,-0.45 0.006,-0.674 0.005,-0.115 -0.03,-0.206 -0.091,-0.301 -0.096,-0.15 -0.176,-0.311 -0.261,-0.469 C 10.604,-5.793 10.425,-6.124 10.249,-6.457 9.985,-6.959 9.714,-7.456 9.468,-7.967 9.308,-8.298 9.179,-8.645 9.058,-8.992 9.023,-9.093 9.054,-9.221 9.066,-9.336 c 0.017,-0.159 0.06,-0.316 0.065,-0.475 0.015,-0.441 0.199,-0.689 0.63,-0.825 0.024,-0.007 0.047,-0.02 0.097,-0.043 -0.091,-0.171 -0.169,-0.34 -0.267,-0.498 -0.207,-0.332 -0.498,-0.584 -0.81,-0.814 -0.202,-0.148 -0.399,-0.305 -0.6,-0.454 -0.115,-0.085 -0.232,-0.171 -0.356,-0.24 -0.217,-0.121 -0.428,-0.243 -0.632,-0.393 -0.299,-0.219 -0.659,-0.301 -1.055,-0.315 -0.42,-0.016 -0.756,0.201 -1.141,0.263 -0.219,0.035 -0.429,0.114 -0.66,0.036 -0.094,-0.032 -0.212,0.009 -0.32,0.013 -0.116,0.005 -0.233,0.013 -0.348,0.007 -0.129,-0.007 -0.232,0.028 -0.351,0.089 -0.168,0.086 -0.372,0.107 -0.562,0.148 -0.47,0.102 -0.964,0.129 -1.36,0.453 -0.027,0.023 -0.065,0.034 -0.09,0.059 -0.199,0.203 -0.381,0.426 -0.599,0.606 -0.279,0.231 -0.426,0.552 -0.632,0.833 -0.216,0.295 -0.407,0.61 -0.607,0.918 -0.016,0.026 -0.011,0.065 -0.017,0.11 0.046,0.007 0.085,0.026 0.113,0.015 0.292,-0.109 0.574,-0.218 0.813,-0.446 0.23,-0.22 0.505,-0.402 0.785,-0.559 0.171,-0.096 0.373,-0.158 0.595,-0.099 0.144,0.038 0.305,0.019 0.457,0.011 0.373,-0.019 0.725,0.07 1.081,0.17 0.344,0.097 0.701,0.15 1.053,0.22 0.192,0.038 0.385,0.082 0.579,0.101 0.13,0.013 0.265,-0.015 0.409,-0.026 0.13,0.193 0.128,0.237 -0.053,0.37 -0.236,0.174 -0.413,0.392 -0.564,0.644 -0.137,0.229 -0.317,0.433 -0.474,0.652 -0.083,0.116 -0.171,0.232 -0.229,0.36 -0.076,0.166 -0.036,0.316 0.131,0.424 0.242,-0.142 0.492,-0.256 0.781,-0.259 0.175,-0.002 0.33,0.033 0.411,0.198 0.088,0.181 0.131,0.373 -0.013,0.552 -0.203,0.252 -0.229,0.548 -0.239,0.871 0.195,-0.023 0.375,-0.023 0.542,-0.069 0.192,-0.052 0.351,-0.041 0.498,0.1 0.036,0.034 0.093,0.048 0.146,0.074 0.073,0.326 0.116,0.665 0.23,0.979 0.093,0.255 0.245,0.501 0.417,0.713 0.233,0.286 0.295,0.585 0.203,0.929 -0.012,0.044 -0.026,0.086 -0.042,0.128 -0.122,0.321 -0.25,0.64 -0.13,0.99 C 6.588,-2.729 6.201,-2.964 6.119,-3.318 6.086,-3.457 6.082,-3.603 6.067,-3.746 6.051,-3.888 6.049,-4.034 6.022,-4.174 5.974,-4.422 5.856,-4.636 5.627,-4.756 5.307,-4.925 5.014,-5.125 4.763,-5.387 c -0.089,0.045 -0.101,0.106 -0.066,0.18 0.037,0.082 0.067,0.17 0.119,0.241 0.261,0.347 0.208,0.75 0.203,1.14 C 5.016,-3.592 4.848,-3.44 4.648,-3.436 4.44,-3.432 4.304,-3.592 4.26,-3.84 4.221,-4.059 4.147,-4.271 4.089,-4.485 4.05,-4.631 3.994,-4.776 3.98,-4.924 3.965,-5.087 3.816,-5.09 3.73,-5.195 3.694,-5.082 3.648,-4.986 3.634,-4.885 3.603,-4.649 3.438,-4.503 3.282,-4.359 3.011,-4.109 2.483,-4.294 2.392,-4.661 2.362,-4.783 2.323,-4.904 2.309,-5.028 2.294,-5.15 2.305,-5.276 2.305,-5.433 2,-5.406 1.813,-5.137 1.5,-5.065 1.38,-5.143 1.227,-5.239 1.079,-5.344 1.029,-5.379 0.969,-5.429 0.956,-5.483 0.865,-5.853 0.552,-6.081 0.383,-6.397 0.246,-6.652 0.238,-6.95 0.395,-7.2 0.704,-7.693 1.036,-8.173 1.371,-8.65 1.489,-8.818 1.68,-8.891 1.877,-8.937 1.98,-8.961 2.106,-8.961 2.105,-9.113 2.105,-9.227 1.998,-9.306 1.826,-9.308 1.43,-9.313 1.029,-9.346 0.639,-9.297 c -0.304,0.038 -0.606,0.159 -0.889,0.286 -0.333,0.15 -0.641,0.356 -0.967,0.52 -0.157,0.079 -0.289,0.173 -0.402,0.307 -0.342,0.406 -0.674,0.818 -0.892,1.306 -0.083,0.187 -0.277,0.175 -0.412,0.266 -0.056,0.039 -0.134,0.047 -0.192,0.083 -0.318,0.198 -0.626,0.187 -0.924,-0.04 -0.034,-0.026 -0.064,-0.057 -0.101,-0.09 -0.134,0.107 -0.156,0.244 -0.17,0.389 -0.021,0.215 -0.055,0.427 -0.082,0.641 -0.006,0.044 -0.023,0.093 -0.01,0.131 0.076,0.238 0.16,0.473 0.242,0.709 0.018,0.051 0.043,0.099 0.06,0.15 0.203,0.594 0.419,1.185 0.602,1.786 0.124,0.403 0.219,0.816 0.291,1.231 0.033,0.192 0.078,0.366 0.181,0.527 0.059,0.092 0.095,0.177 0.05,0.3 -0.048,0.132 -0.018,0.283 0.12,0.355 0.559,0.29 0.869,0.822 1.258,1.278 0.197,0.231 0.401,0.456 0.601,0.684 0.143,0.161 0.299,0.313 0.422,0.489 0.194,0.278 0.421,0.507 0.723,0.67 0.636,0.342 1.202,0.785 1.77,1.228 0.19,0.147 0.419,0.242 0.625,0.367 0.063,0.039 0.14,0.091 0.163,0.155 0.195,0.526 0.492,0.998 0.75,1.492 0.236,0.452 0.416,0.934 0.613,1.405 0.1,0.241 0.17,0.494 0.278,0.731 0.061,0.135 0.153,0.272 0.267,0.362 0.093,0.074 0.143,0.152 0.18,0.253 0.254,0.698 0.656,1.314 1.063,1.928 0.06,0.089 0.108,0.189 0.176,0.27 0.097,0.115 0.204,0.223 0.314,0.324 0.172,0.158 0.351,0.309 0.528,0.462 0.061,0.053 0.116,0.121 0.188,0.151 0.42,0.177 0.819,0.425 1.282,0.466 0.225,0.021 0.458,-0.04 0.687,-0.064 C 9.038,12.193 9.045,12.174 9.051,12.155 8.983,12.093 8.924,12.018 8.846,11.973 8.676,11.874 8.496,11.791 8.32,11.701 8.296,11.689 8.26,11.686 8.249,11.667 8.125,11.466 7.899,11.4 7.726,11.265 7.691,11.237 7.654,11.209 7.628,11.173 7.241,10.649 6.838,10.132 6.581,9.529 6.465,9.259 6.398,8.967 6.331,8.68 6.279,8.455 6.294,8.21 6.219,7.995 6.092,7.633 6.156,7.267 6.125,6.904 6.111,6.755 6.067,6.608 6.037,6.46 6.174,6.367 6.246,6.399 6.286,6.538 6.336,6.711 6.4,6.88 6.442,7.055 6.553,7.509 6.655,7.965 6.76,8.421 6.768,8.453 6.78,8.484 6.811,8.516 6.958,7.952 7.006,7.375 7.055,6.829 7.243,6.722 7.41,6.628 7.613,6.512 c 0.229,0.105 0.5,0.221 0.764,0.351 0.217,0.107 0.419,0.244 0.638,0.344 0.215,0.099 0.36,0.264 0.498,0.441 0.183,0.234 0.352,0.478 0.539,0.707 0.565,0.693 1.059,1.432 1.447,2.237 0.121,0.252 0.254,0.475 0.446,0.688 0.204,0.226 0.3,0.548 0.447,0.826 0.042,0.08 0.096,0.154 0.144,0.231 0.02,-0.009 0.04,-0.018 0.061,-0.026 -0.019,-0.103 -0.032,-0.207 -0.057,-0.307 -0.137,-0.541 -0.295,-1.077 -0.408,-1.622 -0.057,-0.277 -0.035,-0.571 -0.043,-0.857 -0.003,-0.117 0.023,-0.235 0.013,-0.35 -0.018,-0.192 0.054,-0.33 0.237,-0.451 0.124,0.096 0.265,0.191 0.389,0.304 0.211,0.194 0.409,0.401 0.618,0.597 0.302,0.283 0.601,0.57 0.915,0.838 0.218,0.186 0.459,0.346 0.691,0.514 0.189,0.138 0.382,0.269 0.571,0.406 0.29,0.21 0.576,0.424 0.867,0.632 0.05,0.035 0.114,0.05 0.171,0.074 0.167,0.068 0.344,0.117 0.497,0.206 0.386,0.224 0.797,0.247 1.251,0.197 C 18.23,12.328 18.138,12.199 18.002,12.091 17.625,11.793 17.338,11.415 17.075,11.017 17.06,10.995 17.04,10.968 17.042,10.944 17.062,10.691 16.923,10.487 16.855,10.26 16.797,10.065 16.821,9.829 16.864,9.624 16.916,9.378 17.211,9.193 17.489,9.2 17.666,9.206 17.814,9.196 17.946,9.048 18.051,8.93 18.21,8.914 18.373,8.943 c 0.14,0.025 0.286,0.042 0.427,0.031 0.351,-0.027 0.678,0.065 0.995,0.189 0.625,0.244 1.272,0.308 1.932,0.241 0.229,-0.023 0.456,-0.082 0.654,-0.222 0.108,-0.077 0.231,-0.134 0.38,-0.218 C 22.647,8.876 22.54,8.789 22.428,8.71 22.362,8.664 22.275,8.645 22.217,8.593 21.992,8.39 21.762,8.237 21.431,8.306 21.363,8.32 21.255,8.229 21.192,8.161 21.108,8.07 21.05,7.955 20.979,7.846 c -0.028,0 -0.054,-0.004 -0.079,0 -0.315,0.056 -0.509,-0.014 -0.645,-0.26 -0.13,-0.234 -0.104,-0.468 0.052,-0.684 0.036,-0.051 0.088,-0.09 0.129,-0.137 0.096,-0.108 0.127,-0.231 0.09,-0.374 -0.073,-0.288 0.016,-0.505 0.277,-0.613 0.093,-0.039 0.143,-0.093 0.194,-0.169 0.066,-0.096 0.144,-0.184 0.215,-0.276 0.119,-0.155 0.286,-0.223 0.454,-0.144 0.32,0.15 0.6,0.003 0.882,-0.086 0.384,-0.122 0.756,-0.282 1.133,-0.424 0.059,-0.022 0.13,-0.025 0.178,-0.061 0.57,-0.418 1.261,-0.648 1.759,-1.186 0.211,-0.228 0.399,-0.444 0.5,-0.739 0.055,-0.158 0.154,-0.3 0.248,-0.476 C 26.124,2.203 25.907,2.17 25.693,2.261 25.628,2.289 25.55,2.314 25.485,2.302 25.255,2.262 25.046,2.344 24.832,2.396 24.781,2.408 24.73,2.43 24.685,2.457 24.2,2.744 23.715,2.531 23.575,1.968 23.569,1.942 23.571,1.914 23.564,1.888 23.451,1.441 23.577,1.504 23.848,1.367 23.904,1.075 23.872,0.783 23.721,0.519 23.63,0.359 23.626,0.22 23.692,0.059 c 0.084,-0.204 0.206,-0.377 0.386,-0.509 0.115,-0.085 0.219,-0.188 0.339,-0.265 0.472,-0.299 0.757,-0.758 1.057,-1.206 0.075,-0.11 0.151,-0.22 0.232,-0.338 -0.111,-0.055 -0.213,-0.109 -0.319,-0.158 -0.34,-0.158 -0.512,-0.43 -0.559,-0.797 -0.025,-0.192 0.039,-0.35 0.132,-0.509 0.042,-0.073 0.079,-0.162 0.078,-0.243 -0.001,-0.193 0.061,-0.354 0.197,-0.485 0.129,-0.124 0.264,-0.243 0.401,-0.359 0.212,-0.177 0.428,-0.349 0.679,-0.554"
             style="fill:#fff;fill-opacity:1;fill-rule:nonzero;stroke:none"
             id="path5311"
             inkscape:connector-curvature="0" />
        </g>
      </g>
    </g>
  </g>
</svg>
