<?xml version="1.0" encoding="UTF-8" standalone="no"?>
<!-- Created with Inkscape (http://www.inkscape.org/) -->

<svg
   xmlns:dc="http://purl.org/dc/elements/1.1/"
   xmlns:cc="http://creativecommons.org/ns#"
   xmlns:rdf="http://www.w3.org/1999/02/22-rdf-syntax-ns#"
   xmlns:svg="http://www.w3.org/2000/svg"
   xmlns="http://www.w3.org/2000/svg"
   xmlns:sodipodi="http://sodipodi.sourceforge.net/DTD/sodipodi-0.dtd"
   xmlns:inkscape="http://www.inkscape.org/namespaces/inkscape"
   width="10.816204mm"
   height="16.088425mm"
   viewBox="0 0 10.816204 16.088425"
   version="1.1"
   id="svg7876"
   inkscape:version="0.92.5 (2060ec1f9f, 2020-04-08)"
   sodipodi:docname="order-monster.svg">
  <defs
     id="defs7870">
    <clipPath
       clipPathUnits="userSpaceOnUse"
       id="clipPath5283">
      <path
         d="m 281.817,310.96 h 30.673 v 45.639 h -30.673 z"
         id="path5281"
         inkscape:connector-curvature="0" />
    </clipPath>
  </defs>
  <sodipodi:namedview
     id="base"
     pagecolor="#ffffff"
     bordercolor="#666666"
     borderopacity="1.0"
     inkscape:pageopacity="0.0"
     inkscape:pageshadow="2"
     inkscape:zoom="0.35"
     inkscape:cx="-199.55993"
     inkscape:cy="-238.16811"
     inkscape:document-units="mm"
     inkscape:current-layer="layer1"
     showgrid="false"
     fit-margin-top="0"
     fit-margin-left="0"
     fit-margin-right="0"
     fit-margin-bottom="0"
     inkscape:window-width="1920"
     inkscape:window-height="1017"
     inkscape:window-x="-8"
     inkscape:window-y="-8"
     inkscape:window-maximized="1" />
  <metadata
     id="metadata7873">
    <rdf:RDF>
      <cc:Work
         rdf:about="">
        <dc:format>image/svg+xml</dc:format>
        <dc:type
           rdf:resource="http://purl.org/dc/dcmitype/StillImage" />
        <dc:title></dc:title>
      </cc:Work>
    </rdf:RDF>
  </metadata>
  <g
     inkscape:label="Layer 1"
     inkscape:groupmode="layer"
     id="layer1"
     transform="translate(-158.63356,-69.729595)">
    <g
       transform="matrix(0.35277777,0,0,-0.35277777,59.214461,195.52976)"
       id="g5277">
      <g
         id="g5279"
         clip-path="url(#clipPath5283)">
        <g
           id="g5285"
           transform="translate(288.726,350.4639)">
          <path
             d="m 0,0 c -0.181,-0.223 -0.312,-0.408 -0.467,-0.569 -0.218,-0.225 -0.322,-0.492 -0.363,-0.795 -0.014,-0.105 -0.003,-0.197 0.094,-0.247 0.108,-0.055 0.209,-0.02 0.278,0.077 0.067,0.093 0.108,0.207 0.184,0.29 C 0.042,-0.9 0.045,-0.489 0,0 m 16.425,-35.358 c -0.033,0.077 -0.082,0.161 -0.105,0.251 -0.079,0.316 -0.26,0.583 -0.451,0.829 -0.358,0.46 -0.835,0.727 -1.442,0.682 -0.304,-0.023 -0.451,-0.191 -0.499,-0.496 -0.021,-0.138 -0.073,-0.276 -0.137,-0.4 -0.157,-0.306 -0.356,-0.592 -0.491,-0.906 -0.272,-0.635 -0.691,-1.133 -1.229,-1.564 -0.575,-0.462 -1.236,-0.771 -1.851,-1.16 -0.18,-0.114 -0.38,-0.165 -0.6,-0.172 -0.199,-0.007 -0.396,-0.065 -0.594,-0.1 -0.081,-0.015 -0.162,-0.032 -0.257,-0.051 0.005,0.055 -10e-4,0.085 0.011,0.107 0.228,0.429 0.289,0.889 0.262,1.367 -0.019,0.316 -0.017,0.635 -0.064,0.947 -0.025,0.171 -0.106,0.348 -0.208,0.49 -0.195,0.272 -0.465,0.33 -0.79,0.226 -0.346,-0.111 -0.652,-0.277 -0.914,-0.525 -0.222,-0.21 -0.426,-0.442 -0.66,-0.639 C 6.076,-36.749 5.73,-37.007 5.385,-37.266 5.079,-37.495 4.752,-37.698 4.46,-37.943 4.2,-38.16 3.931,-38.352 3.627,-38.5 2.976,-38.815 2.285,-39.014 1.601,-39.233 1.546,-39.251 1.488,-39.262 1.436,-39.285 0.943,-39.504 0.43,-39.5 -0.09,-39.419 c -0.435,0.069 -0.871,0.133 -1.307,0.199 -0.066,0.011 -0.132,0.028 -0.198,0.034 -0.137,0.013 -0.167,0.089 -0.162,0.216 0.016,0.393 0.022,0.787 0.029,1.18 0.007,0.417 -0.185,0.743 -0.505,0.983 -0.303,0.229 -0.42,0.492 -0.327,0.871 0.073,0.295 0.087,0.604 0.138,0.904 0.048,0.282 0.109,0.561 0.164,0.841 0.041,0.205 0.081,0.411 0.124,0.616 0.106,0.505 0.213,1.01 0.32,1.514 0.012,0.057 0.023,0.113 0.039,0.168 0.189,0.634 0.381,1.266 0.569,1.9 0.051,0.174 0.078,0.356 0.137,0.528 0.176,0.517 0.364,1.029 0.543,1.545 0.056,0.163 0.089,0.334 0.143,0.497 0.164,0.49 0.337,0.977 0.498,1.468 0.056,0.171 0.084,0.351 0.128,0.526 0.021,0.083 0.035,0.173 0.076,0.246 0.226,0.399 0.447,0.798 0.722,1.17 0.41,0.555 0.771,1.145 1.148,1.723 0.11,0.169 0.192,0.357 0.312,0.517 0.132,0.174 0.286,0.333 0.443,0.487 0.102,0.099 0.234,0.168 0.34,0.266 0.555,0.514 1.11,1.029 1.658,1.551 0.566,0.54 0.997,1.191 1.44,1.829 0.249,0.359 0.536,0.682 0.807,1.021 0.118,0.149 0.238,0.297 0.367,0.436 0.325,0.351 0.664,0.689 0.98,1.047 0.124,0.14 0.206,0.319 0.297,0.485 0.147,0.265 0.291,0.532 0.426,0.804 0.062,0.125 0.107,0.26 0.145,0.396 0.035,0.127 0.036,0.266 0.077,0.391 0.204,0.616 0.163,1.247 -10e-4,1.844 -0.123,0.448 -0.35,0.888 -0.762,1.182 C 8.492,-9.873 8.252,-9.719 8.063,-9.52 7.738,-9.178 7.345,-9.152 6.923,-9.191 6.675,-9.215 6.427,-9.24 6.181,-9.273 5.573,-9.354 5.016,-9.561 4.499,-9.899 4.113,-10.151 4.04,-10.523 4.044,-10.92 c 0.004,-0.292 0.082,-0.583 0.132,-0.911 -0.097,0 -0.198,0 -0.299,-0.001 -0.125,0 -0.26,0.029 -0.373,-0.008 -0.403,-0.132 -0.77,0.008 -1.14,0.125 -0.28,0.089 -0.449,0.045 -0.598,-0.203 -0.285,-0.47 -0.277,-0.944 0.005,-1.413 0.054,-0.09 0.117,-0.175 0.175,-0.264 0.004,-0.006 -10e-4,-0.018 -0.003,-0.059 -0.097,0.008 -0.196,0.012 -0.293,0.027 -0.179,0.027 -0.36,0.047 -0.533,0.097 -0.102,0.029 -0.198,0.1 -0.282,0.17 -0.072,0.06 -0.117,0.152 -0.187,0.217 -0.114,0.105 -0.24,0.162 -0.412,0.135 -0.33,-0.052 -0.665,-0.075 -0.945,-0.105 -0.722,0.279 -1.096,0.827 -1.389,1.447 0.014,0.019 0.029,0.038 0.043,0.058 0.142,-0.063 0.283,-0.13 0.428,-0.187 0.097,-0.037 0.199,-0.078 0.301,-0.085 0.237,-0.016 0.33,0.146 0.213,0.355 -0.051,0.092 -0.11,0.179 -0.16,0.271 -0.018,0.032 -0.022,0.072 -0.035,0.121 0.283,0.164 0.605,-0.118 0.898,0.091 -0.014,0.28 -0.233,0.418 -0.424,0.559 -0.184,0.135 -0.397,0.231 -0.59,0.355 -0.055,0.035 -0.128,0.124 -0.116,0.164 0.022,0.068 0.095,0.137 0.164,0.168 0.084,0.038 0.186,0.045 0.281,0.05 0.143,0.008 0.29,0.02 0.431,0.001 0.353,-0.046 0.561,0.121 0.696,0.427 0.049,0.11 0.118,0.211 0.171,0.303 -0.16,0.307 -0.557,0.207 -0.718,0.489 0.063,0.188 0.227,0.292 0.39,0.275 0.263,-0.028 0.528,0.015 0.794,-0.081 0.344,-0.124 0.726,0.186 0.737,0.552 0.014,0.477 -0.305,0.808 -0.787,0.815 -0.087,10e-4 -0.173,0 -0.26,0.005 -0.417,0.023 -0.681,-0.186 -0.862,-0.546 -0.088,-0.177 -0.202,-0.345 -0.327,-0.499 -0.193,-0.24 -0.378,-0.477 -0.495,-0.769 -0.08,-0.2 -0.221,-0.376 -0.328,-0.566 -0.159,-0.284 -0.29,-0.586 -0.473,-0.852 -0.184,-0.267 -0.422,-0.496 -0.63,-0.746 -0.123,-0.148 -0.33,-0.239 -0.329,-0.474 0,-0.016 -0.019,-0.034 -0.034,-0.046 -0.398,-0.324 -0.761,-0.689 -1.208,-0.955 -0.49,-0.291 -1.011,-0.333 -1.555,-0.252 -0.072,0.011 -0.144,0.055 -0.206,0.099 -0.482,0.344 -0.805,0.784 -0.82,1.403 -10e-4,0.034 0.01,0.068 0.022,0.142 0.067,-0.073 0.136,-0.114 0.147,-0.167 0.04,-0.188 0.178,-0.31 0.275,-0.461 0.145,-0.225 0.34,-0.325 0.596,-0.341 0.332,-0.022 0.645,0.011 0.942,0.19 0.379,0.228 0.742,0.468 1.027,0.818 0.168,0.206 0.388,0.368 0.563,0.569 0.13,0.147 0.238,0.318 0.334,0.49 0.237,0.427 0.469,0.857 0.688,1.294 0.186,0.372 0.36,0.749 0.518,1.134 0.062,0.153 0.045,0.336 0.097,0.495 0.063,0.187 0.136,0.38 0.25,0.539 0.121,0.167 0.152,0.346 0.163,0.533 0.01,0.174 -0.113,0.328 -0.288,0.338 -0.147,0.008 -0.302,-0.02 -0.446,-0.059 -0.183,-0.049 -0.356,-0.135 -0.538,-0.188 -0.327,-0.094 -0.443,-0.233 -0.446,-0.573 -0.002,-0.181 -10e-4,-0.362 -10e-4,-0.579 -0.112,0 -0.25,0.002 -0.387,-0.001 -0.123,-0.002 -0.224,0.039 -0.305,0.133 -0.113,0.131 -0.267,0.144 -0.423,0.13 -0.169,-0.016 -0.267,-0.114 -0.26,-0.284 0.007,-0.16 0.044,-0.319 0.073,-0.477 0.031,-0.167 0.069,-0.333 0.118,-0.566 -0.211,0.157 -0.404,0.257 -0.538,0.41 -0.138,0.158 -0.217,0.366 -0.327,0.561 -0.256,-0.151 -0.283,-0.466 -0.542,-0.596 -0.224,-0.113 -0.412,-0.294 -0.651,-0.47 -0.014,0.125 -0.039,0.226 -0.034,0.325 0.022,0.449 0.05,0.898 0.082,1.346 0.021,0.286 0.049,0.572 0.083,0.856 0.012,0.094 0.034,0.194 0.08,0.274 0.208,0.353 0.279,0.753 0.37,1.14 0.043,0.179 0.123,0.319 0.205,0.47 0.087,0.159 0.164,0.324 0.25,0.484 0.017,0.031 0.058,0.048 0.073,0.06 0.127,-0.047 0.239,-0.088 0.374,-0.138 0.223,0.26 0.446,0.532 0.681,0.793 0.281,0.313 0.577,0.614 0.857,0.928 0.107,0.119 0.191,0.26 0.283,0.394 0.123,0.179 0.234,0.359 0.437,0.478 0.262,0.154 0.421,0.404 0.528,0.695 0.237,0.647 0.685,1.165 1.044,1.691 C -0.744,1.474 -0.57,1.313 -0.403,1.16 0.034,1.413 0.258,1.795 0.452,2.203 0.514,2.333 0.594,2.454 0.658,2.582 0.856,2.975 1.05,3.37 1.247,3.763 1.286,3.84 1.333,3.913 1.376,3.988 1.451,4.119 1.529,4.248 1.601,4.381 1.688,4.54 1.753,4.715 1.859,4.86 1.941,4.972 2.064,5.06 2.183,5.136 2.236,5.17 2.347,5.172 2.391,5.138 2.428,5.109 2.426,4.999 2.406,4.936 2.364,4.799 2.294,4.671 2.245,4.536 2.172,4.332 2.061,4.133 2.178,3.904 2.199,3.862 2.167,3.793 2.16,3.737 2.145,3.606 2.13,3.475 2.111,3.302 2.208,3.348 2.264,3.373 2.319,3.399 2.388,3.432 2.459,3.498 2.524,3.493 2.87,3.464 3.088,3.701 3.334,3.872 3.516,3.998 3.682,4.133 3.92,4.15 4.029,4.157 4.152,4.207 4.236,4.277 4.467,4.469 4.763,4.574 4.956,4.816 4.98,4.845 5.012,4.869 5.042,4.892 5.285,5.078 5.517,5.267 5.703,5.522 5.868,5.748 6.108,5.918 6.34,6.135 6.333,6.047 6.329,5.97 6.321,5.893 6.287,5.57 6.266,5.244 6.212,4.924 6.178,4.72 6.113,4.516 6.028,4.327 5.848,3.926 5.646,3.535 5.442,3.117 5.518,3.096 5.568,3.075 5.619,3.07 6.155,3.025 6.662,3.144 7.155,3.344 7.35,3.424 7.545,3.508 7.749,3.558 8.46,3.735 8.991,4.189 9.486,4.687 9.753,4.955 9.975,5.269 10.222,5.567 10.429,5.217 10.338,4.866 10.291,4.522 10.264,4.324 10.203,4.132 10.168,3.936 10.076,3.414 9.814,2.993 9.427,2.643 9.226,2.461 9.161,2.258 9.298,2.006 9.381,1.854 9.444,1.693 9.526,1.54 9.645,1.318 9.81,1.258 10.054,1.342 c 0.218,0.074 0.434,0.151 0.651,0.228 0.484,0.171 0.99,0.219 1.496,0.262 0.083,0.007 0.186,0.015 0.25,-0.025 0.324,-0.199 0.68,-0.173 1.034,-0.176 0.038,0 0.076,0.004 0.114,0.004 0.008,0 0.017,-0.009 0.039,-0.02 C 13.613,1.575 13.599,1.522 13.564,1.5 13.322,1.346 13.078,1.197 12.832,1.05 12.766,1.011 12.675,1.001 12.627,0.949 12.359,0.652 12.1,0.347 11.839,0.043 11.829,0.031 11.835,0.006 11.833,-0.035 c 0.063,0.004 0.124,0.001 0.183,0.013 0.532,0.106 1.085,0.127 1.582,0.383 0.041,0.021 0.096,0.036 0.138,0.026 0.271,-0.063 0.53,0.041 0.795,0.048 0.16,0.004 0.369,-0.097 0.442,-0.242 0.076,-0.149 0.043,-0.301 -0.095,-0.444 -0.026,-0.027 -0.053,-0.058 -0.085,-0.077 -0.503,-0.289 -0.705,-0.817 -0.997,-1.271 -0.157,-0.243 -0.193,-0.502 0.042,-0.775 0.159,0.081 0.334,0.168 0.507,0.257 0.051,0.026 0.095,0.078 0.148,0.085 0.501,0.072 0.987,0.247 1.502,0.222 0.286,-0.013 0.578,0.006 0.858,-0.045 0.47,-0.086 0.934,-0.205 1.395,-0.333 0.306,-0.086 0.301,-0.104 0.342,-0.458 -0.043,-0.01 -0.086,-0.029 -0.13,-0.031 -0.451,-0.019 -0.832,-0.211 -1.176,-0.483 -0.124,-0.098 -0.248,-0.149 -0.41,-0.174 -0.334,-0.053 -0.609,-0.242 -0.77,-0.544 -0.153,-0.286 -0.271,-0.589 -0.392,-0.859 0.117,-0.08 0.243,-0.157 0.358,-0.247 0.175,-0.138 0.356,-0.254 0.58,-0.299 0.207,-0.04 0.409,-0.103 0.615,-0.147 0.138,-0.029 0.28,-0.058 0.421,-0.058 0.261,-10e-4 0.481,-0.114 0.707,-0.218 0.095,-0.044 0.192,-0.108 0.291,-0.113 0.491,-0.024 0.804,-0.319 1.08,-0.678 0.11,-0.143 0.221,-0.284 0.328,-0.428 0.028,-0.038 0.041,-0.085 0.059,-0.122 -0.082,-0.147 -0.179,-0.122 -0.296,-0.065 -0.163,0.079 -0.343,0.124 -0.498,0.214 -0.244,0.142 -0.483,0.08 -0.72,0.013 -0.269,-0.076 -0.518,-0.196 -0.734,-0.382 -0.147,-0.128 -0.223,-0.281 -0.241,-0.471 -0.057,-0.608 0.269,-1.053 0.84,-1.241 0.189,-0.061 0.392,-0.076 0.586,-0.124 0.078,-0.019 0.166,-0.055 0.217,-0.112 0.499,-0.556 0.93,-1.165 1.339,-1.79 0.013,-0.021 0.015,-0.05 0.036,-0.125 -0.316,0.221 -0.637,0.217 -0.96,0.176 -0.189,-0.024 -0.381,-0.036 -0.534,-0.182 -0.04,-0.039 -0.122,-0.044 -0.186,-0.048 -0.513,-0.033 -0.914,-0.48 -0.932,-1.008 -0.013,-0.392 0.162,-0.721 0.304,-1.064 0.099,-0.238 0.251,-0.42 0.468,-0.565 0.277,-0.186 0.538,-0.398 0.805,-0.599 0.031,-0.023 0.063,-0.046 0.087,-0.075 0.388,-0.461 0.803,-0.903 1.153,-1.392 0.217,-0.304 0.413,-0.619 0.689,-0.877 0.064,-0.059 0.091,-0.158 0.104,-0.278 -0.126,0.057 -0.252,0.11 -0.376,0.17 -0.298,0.144 -0.607,0.225 -0.943,0.217 -0.148,-0.004 -0.296,0.047 -0.445,0.07 -0.305,0.046 -0.607,0.087 -0.886,-0.11 -0.195,-0.137 -0.415,-0.24 -0.603,-0.385 -0.171,-0.133 -0.338,-0.283 -0.462,-0.458 -0.13,-0.182 -0.169,-0.418 -0.087,-0.632 0.186,-0.487 0.414,-0.954 0.879,-1.247 0.086,-0.054 0.186,-0.094 0.285,-0.118 0.236,-0.059 0.443,-0.285 0.46,-0.525 0.01,-0.144 -0.036,-0.273 -0.158,-0.351 -0.12,-0.077 -0.247,-0.151 -0.382,-0.193 -0.402,-0.123 -0.751,-0.335 -1.057,-0.613 -0.525,-0.477 -0.839,-1.081 -1.034,-1.758 -0.096,-0.337 -0.13,-0.675 -0.117,-1.022 0.008,-0.211 0.026,-0.426 -0.004,-0.632 -0.088,-0.611 0.174,-1.098 0.51,-1.567 0.048,-0.067 0.101,-0.147 0.107,-0.224 0.035,-0.431 0.298,-0.667 0.666,-0.822 0.035,-0.014 0.074,-0.021 0.11,-0.033 0.027,-0.009 0.053,-0.021 0.08,-0.033 0.12,-0.363 0.375,-0.614 0.676,-0.827 0.063,-0.045 0.143,-0.072 0.19,-0.128 0.302,-0.363 0.733,-0.516 1.146,-0.682 0.402,-0.161 0.832,-0.259 1.266,-0.201 0.249,0.033 0.493,0.14 0.728,0.241 0.154,0.066 0.291,0.177 0.426,0.28 0.048,0.037 0.08,0.106 0.101,0.167 0.089,0.251 0.259,0.447 0.429,0.641 0.05,0.057 0.135,0.083 0.2,0.121 0.128,-0.323 0.249,-0.611 0.354,-0.905 0.027,-0.075 0.011,-0.169 0.003,-0.253 -0.011,-0.104 -0.053,-0.207 -0.05,-0.31 0.019,-0.702 -0.285,-1.275 -0.71,-1.798 -0.248,-0.304 -0.498,-0.606 -0.759,-0.899 -0.559,-0.628 -1.232,-1.119 -1.925,-1.587 -0.647,-0.438 -1.345,-0.775 -2.057,-1.085 -0.228,-0.099 -0.473,-0.162 -0.698,-0.267 -0.372,-0.173 -0.735,-0.366 -1.116,-0.558"
             style="fill:#fff;fill-opacity:1;fill-rule:nonzero;stroke:none"
             id="path5287"
             inkscape:connector-curvature="0" />
        </g>
      </g>
    </g>
  </g>
</svg>
