<!-- Generated by IcoMoon.io -->
<svg version="1.1" xmlns="http://www.w3.org/2000/svg" width="32" height="32" viewBox="0 0 32 32">
<title>fimirach-ally-hq</title>
<path d="M25.852 6.109c-0.043 0.079-0.065 0.18-0.129 0.237-0.216 0.201-0.424 0.439-0.677 0.584-0.302 0.173-0.36 0.785-0.137 1.058 0.403 0.496 0.771 1.030 1.116 1.577 0.259 0.417 0.489 0.864 0.684 1.317 0.216 0.511 0.396 1.037 0.562 1.563 0.115 0.36 0.245 0.742 0.237 1.109-0.014 0.922 0.749 0.699 1.224 0.871 0.526 0.187 1.087 0.288 1.628 0.46 0.093 0.029 0.201 0.367 0.165 0.396-0.18 0.151-0.396 0.266-0.62 0.345-0.201 0.072-0.424 0.094-0.634 0.122-0.338 0.058-0.684 0.151-1.022 0.151-0.41 0-0.591 0.115-0.634 0.562-0.065 0.605-0.216 1.195-0.36 1.786-0.173 0.684-0.345 1.375-0.584 2.037-0.165 0.453-0.446 0.871-0.706 1.288-0.266 0.432-0.67 0.807-0.828 1.267-0.086 0.266 0.151 0.684 0.316 0.986 0.194 0.36 0.482 0.67 0.727 1.001 0.108 0.144 0.295 0.309 0.28 0.453-0.043 0.374-0.475 0.381-0.893 0.072-0.388-0.288-0.843-0.489-1.217-0.792-0.663-0.54-1.001 0.065-1.432 0.352-0.598 0.403-1.152 0.914-1.815 1.166-1.181 0.453-2.433 0.72-3.629 1.13-0.194 0.065-0.288 0.482-0.381 0.756-0.151 0.446-0.266 0.907-0.396 1.368-0.194 0.727-0.396 1.454-0.576 2.189-0.079 0.331-0.237 0.525-0.605 0.468-0.022 0-0.050-0.022-0.050-0.036-0.014-0.065 0-0.137-0.029-0.187-0.043-0.101-0.151-0.194-0.158-0.295-0.043-0.533-0.007-1.080-0.101-1.606-0.129-0.72-0.417-1.418-0.511-2.138-0.122-0.929-0.893-0.584-1.375-0.771-0.677-0.259-1.418-0.374-2.095-0.634-0.569-0.216-1.116-0.503-1.62-0.843-0.641-0.439-1.209-0.979-1.843-1.425-0.151-0.108-0.489-0.065-0.677 0.036-0.489 0.259-0.914 0.634-1.411 0.857-0.259 0.122-0.612 0.029-0.922 0.029 0.043-0.194 0.022-0.432 0.137-0.569 0.324-0.396 0.742-0.727 1.044-1.137 0.194-0.259 0.403-0.67 0.324-0.929-0.129-0.46-0.475-0.857-0.713-1.288-0.129-0.23-0.23-0.482-0.331-0.727-0.18-0.41-0.381-0.821-0.518-1.245-0.137-0.432-0.216-0.879-0.309-1.317-0.072-0.345-0.129-0.699-0.18-1.051-0.029-0.223-0.058-0.453-0.043-0.684 0.022-0.569-0.475-0.446-0.756-0.525-0.576-0.165-1.181-0.223-1.771-0.352-0.072-0.014-0.165-0.316-0.137-0.331 0.18-0.129 0.374-0.252 0.584-0.316 0.446-0.137 0.9-0.23 1.346-0.338 0.23-0.058 0.584-0.036 0.67-0.18 0.194-0.316 0.245-0.713 0.367-1.073 0.201-0.605 0.403-1.217 0.634-1.807 0.137-0.352 0.345-0.677 0.519-1.015 0.158-0.302 0.288-0.62 0.468-0.9 0.209-0.331 0.548-0.598 0.677-0.95 0.079-0.209-0.108-0.533-0.201-0.792-0.065-0.187-0.165-0.367-0.273-0.533-0.122-0.187-0.288-0.352-0.417-0.54-0.194-0.266-0.367-0.555-0.562-0.835-0.216-0.302-0.453-0.605-0.677-0.907-0.187-0.259-0.381-0.526-0.562-0.792-0.022-0.029 0.029-0.108-0.014-0.173 0.029-0.058 0.050-0.115 0.072-0.151 0.108-0.036 0.223-0.094 0.345-0.108 0.065-0.007 0.144 0.058 0.201 0.101 0.165 0.129 0.331 0.266 0.496 0.396 0.194 0.158 0.381 0.324 0.584 0.468 0.223 0.165 0.475 0.288 0.706 0.446 0.352 0.259 0.692 0.54 1.051 0.799 0.18 0.137 0.388 0.237 0.591 0.36 0.151 0.086 0.316 0.266 0.446 0.245 0.288-0.050 0.569-0.173 0.828-0.309 0.273-0.144 0.518-0.36 0.792-0.519 0.432-0.252 0.871-0.489 1.324-0.706 0.273-0.137 0.569-0.23 0.864-0.324 0.338-0.108 0.684-0.223 1.037-0.288 0.273-0.058 0.562-0.036 0.835-0.079 0.245-0.043 0.496-0.101 0.72-0.209 0.050-0.029-0.036-0.28 0.007-0.41 0.043-0.165 0.165-0.302 0.237-0.46 0.072-0.173 0.122-0.352 0.173-0.533 0.137-0.439 0.266-0.886 0.396-1.324 0.079-0.273 0.137-0.555 0.223-0.821 0.022-0.058 0.144-0.072 0.216-0.108 0.093-0.043 0.18-0.093 0.266-0.137 0.036 0.108 0.079 0.216 0.101 0.331 0.093 0.453 0.194 0.907 0.266 1.368 0.050 0.309 0.022 0.641 0.093 0.943 0.093 0.424 0.158 0.9 0.41 1.231 0.158 0.209 0.627 0.158 0.95 0.252 0.641 0.173 1.288 0.345 1.922 0.54 0.316 0.093 0.641 0.209 0.936 0.36 0.424 0.216 0.843 0.46 1.245 0.713 0.439 0.273 0.843 0.641 1.31 0.835 0.194 0.079 0.526-0.165 0.792-0.266 0.273-0.101 0.54-0.237 0.821-0.288 0.173-0.050 0.374 0.050 0.562 0.093l0.002-0.004zM5.485 19.262c0.014 0.022 0.058 0.101 0.101 0.18 0.475 0.864 0.828 1.843 1.461 2.57 0.936 1.065 2.009 2.045 3.153 2.887 1.274 0.936 2.765 1.49 4.384 1.504 1.238 0.007 2.491-0.022 3.715-0.194 0.727-0.108 1.432-0.489 2.109-0.821 0.634-0.302 1.231-0.684 1.822-1.065 0.381-0.245 0.749-0.54 1.087-0.843 0.259-0.23 0.482-0.512 0.699-0.792 0.453-0.576 0.95-1.13 1.324-1.757 0.324-0.533 0.526-1.145 0.742-1.743 0.201-0.555 0.403-1.109 0.512-1.685s0.101-1.166 0.144-1.75c0.029-0.352 0.101-0.72 0.065-1.066-0.043-0.439-0.18-0.871-0.273-1.31-0.086-0.417-0.122-0.864-0.273-1.26-0.187-0.511-0.46-1.001-0.713-1.483-0.252-0.475-0.489-0.965-0.814-1.396-0.41-0.548-0.886-1.058-1.368-1.548-0.324-0.331-0.706-0.612-1.080-0.886-0.338-0.252-0.699-0.475-1.065-0.684-0.396-0.23-0.785-0.482-1.217-0.627-0.648-0.209-1.332-0.331-1.994-0.489-0.46-0.108-0.922-0.23-1.389-0.302-0.396-0.065-0.799-0.122-1.195-0.093-0.62 0.050-1.231 0.144-1.836 0.273-0.612 0.137-1.217 0.309-1.807 0.518-0.345 0.122-0.634 0.381-0.965 0.555-0.18 0.093-0.424 0.086-0.584 0.209-0.504 0.374-1.008 0.763-1.454 1.202-0.511 0.496-0.965 1.066-1.454 1.592-0.029 0.036-0.165-0.029-0.194 0.007-0.122 0.137-0.23 0.288-0.324 0.446-0.259 0.432-0.526 0.857-0.756 1.31-0.194 0.381-0.367 0.785-0.496 1.195s-0.23 0.828-0.288 1.253c-0.129 0.878-0.266 1.757-0.331 2.643-0.029 0.403 0.093 0.821 0.144 1.224 0.029 0.245 0.050 0.496 0.093 0.735 0.093 0.482 0.201 0.95 0.316 1.49l0.001-0.002z"></path>
<path d="M5.434 5.856c0.007 0 0.014 0 0.022-0.007v0.007c-0.007 0-0.014 0-0.022 0.007 0.007 0.007 0 0 0-0.007z"></path>
<path d="M25.852 6.109c0.007 0.022 0.014 0.036 0.022 0.058h-0.007c-0.007-0.014-0.007-0.036-0.014-0.058h-0.001z"></path>
<path d="M5.859 4.323c0 0-0.007 0-0.007-0.007 0 0 0-0.007 0.007-0.007 0 0 0.007 0 0.007 0.007l-0.007 0.007z"></path>
<path d="M7.184 9.182c0.007 0.007 0.007 0.014 0.007 0.022l-0.007 0.007c-0.007-0.007-0.007-0.014-0.014-0.022 0.007-0.007 0.007-0.007 0.014-0.007z"></path>
<path d="M6.954 9.514v-0.007h0.007v0.014c0-0.007 0-0.007-0.007-0.007z"></path>
<path d="M15.031 24.832c-0.459-0.14-1.048-0.599-1.218-0.948-0.25-0.519-0.22-0.519 0.27-0.020 0.439 0.459 0.918 0.669 1.507 0.669 0.459 0 1.428-0.519 2.077-1.118 0.529-0.489 0.579-0.579 0.679-1.138s0.13-0.609 0.419-0.699c0.299-0.090 0.319-0.12 0.319-0.589 0-0.569 0.22-1.038 0.589-1.288 0.25-0.16 0.26-0.16 0.26 0.050 0 0.13-0.070 0.309-0.16 0.399-0.16 0.18-0.2 0.329-0.23 0.869 0 0.13-0.2 0.429-0.439 0.679-0.309 0.309-0.499 0.629-0.649 1.108-0.19 0.559-0.329 0.759-0.849 1.258-0.339 0.319-0.769 0.649-0.958 0.729-0.359 0.15-1.188 0.17-1.617 0.040z"></path>
<path d="M16.688 23.135c-0.040-0.060 0.070-0.349 0.24-0.649s0.309-0.659 0.309-0.799c0-0.309 0.16-0.329 0.24-0.020 0.13 0.489 0.060 1.228-0.12 1.398-0.21 0.19-0.569 0.22-0.669 0.070z"></path>
<path d="M13.973 23.055c-0.339-0.22-0.449-1.198-0.18-1.707 0.13-0.27 0.689-0.599 0.809-0.479 0.030 0.030-0.030 0.22-0.14 0.439-0.19 0.379-0.23 0.938-0.080 1.398 0.050 0.16 0.020 0.25-0.12 0.319-0.1 0.050-0.23 0.070-0.29 0.030z"></path>
<path d="M12.775 22.705c-0.18-0.18-0.429-0.409-0.559-0.529-0.16-0.13-0.29-0.399-0.359-0.749-0.070-0.29-0.21-0.629-0.319-0.749s-0.3-0.639-0.449-1.248c-0.25-1.018-0.389-1.288-0.978-1.997-0.17-0.2-0.369-0.589-0.439-0.849-0.080-0.27-0.17-0.599-0.21-0.739-0.11-0.339 0.050-0.869 0.409-1.368 0.25-0.339 0.29-0.469 0.23-0.699-0.050-0.15-0.070-0.319-0.050-0.379 0.010-0.050 0.020-0.449 0.010-0.879-0.020-0.469 0.020-0.839 0.090-0.918 0.090-0.1 0.080-0.19-0.010-0.359-0.1-0.19-0.080-0.3 0.090-0.629 0.11-0.23 0.25-0.629 0.309-0.899 0.22-0.938 1.468-2.366 2.526-2.885 1.468-0.719 3.115-0.889 4.612-0.479 0.988 0.27 1.118 0.359 2.256 1.497 0.928 0.938 0.958 0.978 1.168 1.757 0.29 1.018 0.329 2.576 0.090 3.055-0.14 0.28-0.14 0.339-0.020 0.479 0.1 0.11 0.12 0.21 0.060 0.309-0.14 0.21-0.12 0.509 0.030 0.689 0.17 0.2 0.389 1.098 0.389 1.557 0 0.419-0.2 1.288-0.369 1.617-0.070 0.13-0.349 0.519-0.609 0.859l-0.489 0.619-0.060-0.499c-0.040-0.339-0.020-0.589 0.080-0.769 0.17-0.349 0.329-0.359 0.329-0.030 0 0.609 0.439 0.040 0.539-0.699 0.070-0.519-0.070-1.517-0.24-1.687-0.060-0.060-0.14 0.020-0.22 0.2-0.12 0.29-0.898 1.228-1.118 1.358-0.060 0.040-0.309-0.070-0.549-0.23-0.299-0.19-0.569-0.29-0.829-0.29-0.21 0-0.379 0.020-0.379 0.040 0 0.010 0.2 0.339 0.449 0.719 0.329 0.499 0.449 0.779 0.449 1.048 0 0.469-0.090 0.529-0.609 0.389-0.869-0.24-1.168 0.12-0.799 0.948 0.12 0.26 0.21 0.599 0.21 0.759 0 0.28-0.020 0.29-0.499 0.29-0.27 0-0.499 0.040-0.499 0.080 0 0.050 0.060 0.29 0.14 0.549 0.14 0.469 0.080 1.158-0.14 1.567-0.28 0.529-0.958 0.649-1.358 0.24-0.23-0.23-0.25-0.309-0.21-0.839 0.030-0.389 0.13-0.739 0.309-1.038 0.459-0.789 0.3-0.968-0.599-0.659-0.319 0.11-0.609 0.2-0.659 0.2-0.3 0 0.22-0.988 0.809-1.537 0.379-0.359 0.389-0.579 0.040-0.859-0.23-0.18-0.25-0.23-0.12-0.339 0.080-0.070 0.429-0.18 0.789-0.25 0.559-0.1 0.719-0.1 1.098 0.040 0.24 0.090 0.549 0.22 0.679 0.309 0.2 0.13 0.23 0.13 0.28-0.010 0.14-0.349-0.499-0.739-1.278-0.779-0.549-0.030-1.208 0.13-1.478 0.369-0.080 0.080-0.24 0.16-0.349 0.18s-0.2 0.11-0.2 0.22c0 0.23-0.849 0.579-1.088 0.439-0.329-0.19-0.19-0.579 0.419-1.138 0.309-0.299 0.659-0.569 0.769-0.599 0.11-0.040 0.319-0.2 0.459-0.349 0.29-0.319 0.689-0.359 1.587-0.19 1.348 0.25 1.258 0.25 1.118 0.070-0.21-0.25-0.1-0.399 0.389-0.519 0.509-0.13 0.619-0.359 0.23-0.529-0.24-0.12-0.25-0.14-0.12-0.349 0.080-0.12 0.379-0.349 0.659-0.499 0.549-0.3 0.689-0.519 0.27-0.409-0.489 0.12-0.27-0.29 0.609-1.138 0.469-0.459 0.839-0.849 0.819-0.869-0.090-0.090-1.537 0.799-1.977 1.198-0.869 0.809-2.825 0.889-3.764 0.16-0.15-0.12-0.499-0.369-0.779-0.569-1.238-0.859-1.338-0.889-1.308-0.479 0 0.17 0.13 0.359 0.339 0.519 0.359 0.27 0.419 0.469 0.12 0.369-0.28-0.090-0.26-0.040 0.2 0.439 0.509 0.539 0.779 1.028 0.589 1.098-0.080 0.020 0.050 0.2 0.369 0.479 0.479 0.419 0.479 0.439 0.29 0.589-0.11 0.080-0.29 0.17-0.399 0.19s-0.599 0.13-1.098 0.25c-0.489 0.12-0.988 0.24-1.098 0.27-0.329 0.080-1.028-0.699-1.108-1.238-0.070-0.469-0.24-0.589-0.24-0.17 0 0.309-0.2 1.048-0.319 1.178-0.12 0.15-0.1 0.799 0.050 0.978 0.16 0.2 0.569 0.329 0.569 0.18 0-0.060-0.050-0.21-0.11-0.319-0.080-0.15-0.080-0.23 0-0.309s0.18-0.040 0.369 0.15l0.26 0.26-0.16 0.559c-0.26 0.869 0.030 1.597 0.709 1.807 0.29 0.080 0.389 0.479 0.24 0.898-0.2 0.559-0.14 0.898 0.25 1.368 0.2 0.23 0.489 0.519 0.639 0.629 0.349 0.24 0.569 0.849 0.319 0.839-0.1 0-0.309-0.14-0.489-0.319zM16.509 18.273c-0.18-0.18-1.068-0.26-1.218-0.11s0.070 0.23 0.709 0.26c0.649 0.020 0.669 0.010 0.509-0.15zM12.146 11.564c0-0.11-0.589-0.359-0.669-0.28-0.030 0.040 0 0.13 0.070 0.22 0.13 0.16 0.599 0.21 0.599 0.060zM18.305 11.594c-0.030-0.030-0.12-0.040-0.19-0.010-0.080 0.030-0.050 0.060 0.060 0.060 0.11 0.010 0.17-0.020 0.13-0.050zM17.637 11.484c0-0.11-0.579-0.459-0.998-0.599-0.579-0.19-1.478-0.16-2.067 0.090-0.469 0.19-0.679 0.369-0.449 0.379 1.498 0.080 2.176 0.13 2.206 0.16 0.080 0.070 1.308 0.040 1.308-0.030zM19.234 10.356c0-0.050-0.070-0.1-0.16-0.1-0.080 0-0.12 0.050-0.090 0.1 0.030 0.060 0.1 0.1 0.16 0.1 0.050 0 0.090-0.040 0.090-0.1zM18.395 10.117c-0.18-0.15-0.24-0.26-0.17-0.3 0.14-0.090 0.14-0.26 0-0.26-0.060 0-0.449-0.14-0.869-0.309-0.699-0.28-0.839-0.3-1.468-0.24-0.379 0.030-0.988 0.14-1.348 0.24-0.529 0.15-0.609 0.19-0.419 0.25 0.329 0.11 0.27 0.24-0.15 0.28-0.399 0.030-0.549 0.22-0.25 0.309 0.11 0.020 0.629 0 1.168-0.050 0.659-0.070 1.058-0.060 1.268 0.010 0.17 0.060 0.519 0.11 0.769 0.12 0.25 0 0.639 0.040 0.859 0.080 0.22 0.050 0.509 0.090 0.649 0.090l0.25 0.010-0.29-0.23zM13.244 10.156c0-0.12-0.28-0.25-0.359-0.17-0.090 0.090 0.060 0.27 0.22 0.27 0.080 0 0.14-0.050 0.14-0.1zM17.856 8.26c-0.529-0.439-1.727-0.589-2.765-0.349-0.938 0.22-1.128 0.419-0.29 0.289 0.779-0.11 1.967-0.070 2.586 0.1 0.689 0.19 0.729 0.18 0.469-0.040z"></path>
<path d="M14.841 9.557c0-0.050 0.15-0.1 0.329-0.1 0.24 0 0.28 0.030 0.17 0.1-0.2 0.13-0.499 0.13-0.499 0z"></path>
<path d="M15.72 9.388c0.070-0.030 0.16-0.020 0.19 0.010 0.040 0.030-0.020 0.060-0.13 0.050-0.11 0-0.14-0.030-0.060-0.060z"></path>
<path d="M16.419 9.388c0.070-0.030 0.16-0.020 0.19 0.010 0.040 0.030-0.020 0.060-0.13 0.050-0.11 0-0.14-0.030-0.060-0.060z"></path>
<path d="M12.605 21.138c-0.309-0.379-0.319-0.449-0.050-1.068 0.23-0.539 1.138-1.527 1.408-1.527 0.25 0 0.23 0.12-0.060 0.389-0.319 0.299-0.639 1.108-0.739 1.847-0.040 0.329-0.12 0.609-0.18 0.629s-0.23-0.1-0.379-0.27z"></path>
<path d="M18.216 21.228c-0.14-0.080-0.18-0.23-0.18-0.699 0-0.389-0.070-0.779-0.21-1.098-0.12-0.27-0.19-0.519-0.16-0.549s0.17 0.020 0.319 0.12c0.399 0.26 0.759 1.058 0.779 1.717 0.020 0.499 0 0.569-0.18 0.589-0.11 0.020-0.28-0.020-0.369-0.080z"></path>
<path d="M19.214 19.391c-0.030-0.030-0.030-0.359 0-0.729 0.030-0.439-0.010-0.849-0.11-1.188-0.090-0.29-0.12-0.529-0.080-0.529 0.29 0 0.799 1.078 0.809 1.677 0 0.509-0.389 0.998-0.619 0.769z"></path>
<path d="M11.507 18.582c-0.2-0.19-0.21-0.659-0.020-1.018 0.329-0.629 1.198-1.218 1.797-1.218 0.17 0 0.14 0.060-0.2 0.429-0.429 0.439-0.938 1.258-0.938 1.497 0 0.13-0.3 0.469-0.429 0.469-0.030 0-0.13-0.070-0.21-0.16z"></path>
<path d="M15.221 15.028c-0.399-0.23-0.679-0.699-0.679-1.128 0-0.379 0.16-0.28 0.579 0.349 0.309 0.459 0.429 0.559 0.699 0.579 0.379 0.040 0.779-0.18 0.928-0.519 0.11-0.24 0.679-0.509 0.809-0.379 0.12 0.12-0.28 0.689-0.729 1.018-0.509 0.369-1.068 0.399-1.607 0.080z"></path>
</svg>
