<!-- Generated by IcoMoon.io -->
<svg version="1.1" xmlns="http://www.w3.org/2000/svg" width="32" height="32" viewBox="0 0 32 32">
<title>fyreslayers</title>
<path d="M8.785 31.999h-0.681c-0.109-0.024-0.221-0.042-0.327-0.077-0.143-0.047-0.283-0.108-0.424-0.164 0.089-0.11 0.163-0.237 0.268-0.331 1.004-0.904 1.811-1.942 2.228-3.246 0.061-0.193 0.094-0.419 0.057-0.614-0.058-0.31-0.347-0.153-0.537-0.191-0.827-0.166-1.564 0.317-1.545 1.169 0.015 0.672-0.253 0.914-0.815 1.039-0.253 0.056-0.494 0.185-0.747 0.211-0.237 0.025-0.345-0.094-0.197-0.354 0.192-0.337 0.417-0.677 0.51-1.044 0.433-1.703 0.826-3.416 1.231-5.126 0.128-0.541 0.249-1.084 0.39-1.703 0.223 0.343 0.415 0.645 0.614 0.94 0.209 0.309 0.384 0.335 0.681 0.122 0.185-0.131 0.37-0.262 0.564-0.379 0.602-0.367 1.23-0.654 2.020-0.559-0.056 0.121-0.093 0.234-0.154 0.332-0.393 0.639-0.866 1.253-0.925 2.029-0.064 0.835-0.068 1.676-0.065 2.514 0.001 0.216 0.098 0.444 0.196 0.644 0.37 0.752 0.704 1.152 1.533 1.162 0.617 0.007 1.235 0.003 1.853 0.027 0.443 0.017 0.842-0.071 1.21-0.329 0.482-0.336 0.966-0.713 1.095-1.291 0.107-0.478 0.266-1.007-0.026-1.504-0.041-0.071-0.051-0.172-0.043-0.257 0.050-0.538-0.264-0.864-0.657-1.146-0.142-0.102-0.293-0.193-0.436-0.295-0.331-0.236-0.324-0.492 0.061-0.62 0.459-0.154 0.944-0.234 1.42-0.336 0.155-0.033 0.319-0.067 0.472-0.050 0.481 0.053 0.94 0.037 1.351-0.257 0.163-0.117 0.331-0.228 0.526-0.362-0.276-0.176-0.559-0.335-0.817-0.528-0.278-0.206-0.572-0.412-0.787-0.677-0.189-0.234-0.043-0.536 0.244-0.566 0.295-0.031 0.608-0.054 0.891 0.012 0.436 0.101 0.856 0.28 1.3 0.433-0.159-0.301-0.304-0.576-0.451-0.849-0.515-0.954-0.024-2 0.832-2.408 0.343-0.164 0.678-0.343 1.007-0.51-0.269-0.209-0.527-0.388-0.759-0.596-0.483-0.435-0.478-0.968-0.025-1.447 0.472-0.499 1.020-0.807 1.775-0.732-0.049-0.202-0.033-0.433-0.139-0.527-0.465-0.418-0.991-0.77-1.444-1.201-0.323-0.308-0.829-0.578-0.593-1.18 0.261-0.666 0.262-1.346 0.147-2.040-0.107-0.646-0.189-1.295-0.291-1.997-0.139 0.217-0.243 0.401-0.367 0.57-0.378 0.512-0.752 1.026-1.151 1.521-0.192 0.238-0.474 0.332-0.732 0.108-0.239-0.205-0.126-0.458 0.013-0.681 0.305-0.487 0.255-1.014 0.213-1.595-0.237 0.145-0.428 0.262-0.617 0.381-1.068 0.671-2.080 1.426-3.293 1.858-0.809 0.288-1.566 0.725-2.348 1.089-0.415 0.193-0.596 0.119-0.82-0.286-0.145-0.261-0.273-0.553-0.485-0.751-0.613-0.573-1.325-0.985-2.149-1.198-0.402-0.105-0.788-0.273-1.25-0.437 0.174-0.099 0.284-0.188 0.409-0.227 0.604-0.194 1.214-0.368 1.818-0.563 0.367-0.119 0.719-0.154 1.093-0.001 0.164 0.068 0.375 0.065 0.554 0.035 0.115-0.020 0.273-0.133 0.299-0.233 0.030-0.121-0.018-0.327-0.108-0.397-0.226-0.173-0.486-0.387-0.748-0.411-0.898-0.082-1.804-0.093-2.707-0.121-0.415-0.013-0.831-0.003-1.307-0.003 0.668-0.826 1.035-1.112 1.819-1.278 0.473-0.1 0.969-0.102 1.455-0.129 0.397-0.023 0.554-0.221 0.473-0.616-0.105-0.505-0.466-0.776-1.073-0.906-0.581-0.124-1.171-0.204-1.814-0.311 0.082-0.123 0.1-0.172 0.134-0.199 1.206-0.989 2.567-0.958 3.93-0.439 0.465 0.177 0.879 0.482 1.323 0.716 0.262 0.138 0.544 0.18 0.755-0.077 0.215-0.261 0.083-0.517-0.131-0.692-0.406-0.33-0.826-0.645-1.267-0.928-0.422-0.271-0.876-0.495-1.407-0.789 0.163-0.031 0.209-0.050 0.254-0.046 1.238 0.109 2.411 0.483 3.528 0.994 0.661 0.302 1.354 0.578 1.88 1.141 0.177 0.189 0.501 0.285 0.775 0.333 0.396 0.070 0.626-0.227 0.483-0.612-0.094-0.254-0.26-0.484-0.414-0.711-0.269-0.398-0.552-0.784-0.83-1.174 0.022-0.025 0.044-0.051 0.066-0.076 0.977 0.298 1.949 0.642 2.602 1.49 0.337 0.438 0.549 0.977 0.79 1.485 0.116 0.246 0.233 0.445 0.535 0.444 0.316-0.002 0.447-0.211 0.488-0.479 0.043-0.284 0.057-0.574 0.070-0.862 0.010-0.267 0.002-0.534 0.002-0.819 1.198 0.356 1.891 1.181 2.301 2.203 0.377 0.94 0.542 1.951 0.499 2.983-0.006 0.165 0.127 0.463 0.23 0.479 0.217 0.034 0.493-0.024 0.677-0.147 0.172-0.116 0.257-0.363 0.382-0.551 0.105-0.16 0.209-0.32 0.367-0.561 0.157 0.288 0.333 0.482 0.367 0.699 0.133 0.825 0.215 1.659 0.327 2.49 0.038 0.283 0.063 0.584 0.182 0.836 0.075 0.16 0.305 0.323 0.48 0.339 0.15 0.014 0.325-0.171 0.476-0.286 0.056-0.041 0.073-0.133 0.11-0.209 0.044 0.089 0.077 0.155 0.11 0.221v1.059c-0.076 0.262-0.131 0.533-0.236 0.784-0.198 0.474-0.395 0.941-0.93 1.175-0.139 0.059-0.25 0.348-0.237 0.52 0.008 0.094 0.299 0.222 0.468 0.233 0.225 0.014 0.456-0.073 0.727-0.123-0.012 0.156 0.004 0.297-0.036 0.42-0.223 0.709-0.475 1.404-1.104 1.879-0.108 0.082-0.194 0.199-0.271 0.312-0.162 0.235-0.235 0.495-0.016 0.724 0.224 0.234 0.494 0.21 0.756 0.043 0.164-0.105 0.328-0.21 0.58-0.371-0.26 0.824-0.44 1.56-1.175 1.958-0.242 0.131-0.499 0.234-0.739 0.369-0.103 0.059-0.176 0.172-0.263 0.259 0.13 0.041 0.27 0.132 0.389 0.111 0.209-0.036 0.407-0.14 0.721-0.258-0.103 0.252-0.145 0.406-0.223 0.538-0.529 0.894-1.417 1.306-2.313 1.708-0.145 0.066-0.393 0.177-0.387 0.253 0.014 0.201 0.093 0.445 0.235 0.577 0.199 0.186 0.172 0.303 0.013 0.46-0.297 0.29-0.572 0.612-0.902 0.858-0.313 0.235-0.67 0.428-1.035 0.57-0.335 0.131-0.71 0.154-1.058 0.253-0.22 0.062-0.431 0.176-0.4 0.468 0.029 0.279 0.242 0.366 0.471 0.412 0.094 0.019 0.199-0.013 0.299-0.022 0.198-0.019 0.396-0.037 0.594-0.056 0.014 0.031 0.028 0.061 0.041 0.091-0.247 0.152-0.487 0.319-0.744 0.452-0.699 0.363-1.429 0.673-2.102 1.077-0.626 0.375-0.875 0.834-0.486 1.622 0.103 0.208 0.056 0.335-0.108 0.447-0.725 0.492-1.41 1.065-2.187 1.448-0.891 0.44-1.86 0.728-2.806 1.050-1.125 0.382-2.268 0.699-3.462 0.793-0.305 0.024-0.607 0.097-0.91 0.148z"></path>
<path d="M12.92 11.454c-0.436 0.231-0.897 0.349-1.104 0.849 0.514 0.008 0.882-0.272 1.104-0.849zM13.225 17.654c0.132 0.011 0.182 0.005 0.223 0.021 0.679 0.254 1.136-0.069 1.083-0.795-0.013-0.179-0.127-0.355-0.214-0.524-0.057-0.114-0.194-0.311-0.216-0.301-0.168 0.079-0.369 0.167-0.462 0.314-0.194 0.313-0.312 0.674-0.492 0.997-0.335 0.605-0.693 1.199-1.059 1.826 0.117 0.009 0.189 0.022 0.261 0.021 0.27-0.004 0.517-0.025 0.464-0.414-0.008-0.051 0.15-0.166 0.242-0.18 0.382-0.058 0.466-0.195 0.314-0.559-0.046-0.111-0.081-0.228-0.144-0.406zM22.091 13.693c-0.792 0.023-1.305 0.396-1.522 1.11-0.171 0.562-0.293 1.14 0.316 1.56 0.203 0.139 0.117 0.283-0.030 0.394-0.39 0.293-0.798 0.564-1.177 0.873-0.131 0.107-0.254 0.288-0.28 0.451-0.094 0.597-0.017 1.177 0.309 1.705 0.046 0.074 0.087 0.153 0.121 0.234 0.013 0.031 0.003 0.073 0.003 0.167-0.128-0.013-0.255-0.017-0.377-0.041-0.589-0.12-1.169-0.281-1.769-0.008-0.265 0.12-0.425 0.319-0.258 0.559 0.185 0.264 0.442 0.49 0.705 0.683 0.206 0.152 0.465 0.235 0.707 0.334 0.246 0.1 0.263 0.26 0.056 0.372-0.309 0.166-0.659 0.404-0.974 0.382-0.911-0.065-1.827-0.005-2.603 0.409-0.666 0.356-1.562 0.358-1.977 1.181-0.17 0.335-0.259 0.616-0.032 0.988 0.135-0.191 0.269-0.365 0.386-0.549 0.314-0.496 0.931-0.672 1.44-0.403 0.218 0.115 0.504 0.181 0.639 0.36 0.841 1.119 0.869 2.715-0.717 3.393-0.122 0.052-0.267 0.065-0.401 0.067-0.567 0.007-1.136-0.015-1.702 0.007-1.222 0.048-1.654-0.649-1.74-1.627-0.081-0.941-0.055-1.892 0.344-2.771 0.409-0.901 0.995-1.669 1.826-2.247 0.646-0.449 1.268-0.936 1.875-1.437 0.715-0.592 1.283-1.31 1.59-2.197 0.090-0.263 0.089-0.564 0.094-0.847 0.001-0.061-0.195-0.195-0.222-0.177-0.137 0.089-0.362 0.235-0.348 0.33 0.172 1.156-0.761 1.659-1.36 2.356-0.113 0.131-0.276 0.219-0.404 0.339-0.929 0.868-1.534 0.891-2.555 0.087-0.088-0.069-0.176-0.139-0.233-0.183-0.272 0.156-0.516 0.307-0.768 0.441-1.111 0.59-2.354-0.609-2.418-1.522-0.035-0.482 0.214-0.859 0.634-0.948 0.009 0.023 0.029 0.046 0.026 0.068-0.096 0.896 0.119 1.119 1.019 1.028 0.734-0.075 1.185-0.554 1.522-1.15 0.189-0.336 0.346-0.699 0.463-1.067 0.208-0.654 0.66-1.043 1.264-1.298 0.054-0.023 0.098-0.069 0.15-0.107-0.265-0.234-1.14-0.266-1.503-0.037-0.502 0.319-0.774 0.746-0.445 1.425-0.594-0.092-0.838-0.559-1.247-0.805-0.548 0.547-0.272 1.207-0.335 1.881-0.2-0.211-0.424-0.402-0.592-0.636-0.254-0.353-0.481-0.697-1.003-0.649-0.162 0.015-0.337-0.084-0.502-0.14-0.643-0.22-1.284-0.445-1.97-0.682-0.001 0.008 0.011-0.086 0.026-0.203-0.771-0.368-1.316-0.969-1.765-1.773 0.424 0.201 0.785 0.376 1.149 0.544 0.536 0.247 1.098 0.225 1.661 0.143 0.083-0.012 0.202-0.048 0.232-0.108 0.264-0.527 0.83-0.621 1.267-0.888 0.912-0.557 1.672-1.274 2.359-2.081 0.063-0.073 0.247-0.154 0.278-0.124 0.216 0.198 0.373 0.061 0.575-0.030 0.624-0.284 1.247-0.581 1.896-0.795 1.504-0.498 2.873-1.227 4.173-2.231-0.009 0.159 0.010 0.326-0.032 0.477-0.096 0.349-0.221 0.69-0.336 1.034-0.106 0.311 0.013 0.478 0.341 0.498 0.508 0.030 0.909-0.193 1.227-0.553 0.272-0.308 0.491-0.664 0.744-0.991 0.075-0.097 0.185-0.169 0.279-0.252 0.078 0.105 0.22 0.206 0.225 0.315 0.053 1.021 0.194 2.055-0.297 3.025-0.039 0.076-0.036 0.174-0.076 0.248-0.175 0.319-0.014 0.449 0.27 0.551 0.643 0.232 1.147 0.662 1.586 1.172 0.078 0.090 0.116 0.216 0.195 0.369z"></path>
</svg>
