<!-- Generated by IcoMoon.io -->
<svg version="1.1" xmlns="http://www.w3.org/2000/svg" width="32" height="32" viewBox="0 0 32 32">
<title>hedonites-of-slaanesh</title>
<path d="M8.058 31.861c-2.308-0.401-4.491-2.183-5.52-4.491-0.728-1.656-0.728-4.491 0.025-6.173 1.455-3.237 4.968-5.069 8.431-4.416 0.828 0.151 1.581 0.276 1.706 0.276 0.226 0 1.706-1.982 1.706-2.283 0-0.1-0.527-0.401-1.179-0.652-0.878-0.326-1.832-0.452-3.588-0.427-2.785 0.025-4.592 0.577-6.549 1.982-1.48 1.054-1.305 0.502 0.326-1.029 2.208-2.108 4.516-2.961 7.854-2.986 1.581 0 2.584 0.125 3.337 0.452 1.38 0.552 1.731 0.552 1.932-0.075 0.1-0.351-0.050-0.753-0.452-1.255-1.782-2.108-2.158-5.671-0.853-8.155 0.728-1.38 1.832-2.81 2.032-2.61 0.075 0.075-0.050 0.627-0.251 1.23-0.853 2.409-0.151 5.545 1.681 7.628 2.384 2.71 7.327 3.011 10.262 0.602 1.23-1.004 1.355-0.878 0.477 0.527-1.932 3.162-5.445 4.642-8.983 3.789-1.204-0.276-1.33-0.276-1.656 0.151-0.301 0.427-0.251 0.552 0.376 1.229 0.979 1.029 2.208 3.739 2.559 5.646 0.427 2.534-0.427 6.147-1.932 7.904l-0.427 0.502 0.176-0.502c0.527-1.606 0.878-3.387 0.878-4.391 0-2.409-1.28-5.746-2.76-7.151l-0.703-0.677-0.778 1.129c-0.427 0.627-0.778 1.204-0.778 1.28 0 0.1 0.326 0.602 0.728 1.154 0.953 1.305 1.38 3.187 1.179 4.968-0.552 4.667-4.592 7.653-9.259 6.825z"></path>
</svg>
