<!-- Generated by IcoMoon.io -->
<svg version="1.1" xmlns="http://www.w3.org/2000/svg" width="32" height="32" viewBox="0 0 32 32">
<title>factions-lumineth-realm-lords</title>
<path d="M14.227 31.892c-2.701-0.327-4.911-1.33-5.504-2.496-0.716-1.371-0.225-3.438 1.064-4.399 0.471-0.368 0.798-0.716 0.716-0.818-0.082-0.082-0.041-0.082 0.082-0.020 0.123 0.082 0.614-0.020 1.085-0.205 0.614-0.246 0.778-0.389 0.593-0.532-0.184-0.123-0.164-0.143 0.102-0.061 0.593 0.184 1.944-0.634 2.517-1.555 0.491-0.778 0.532-0.982 0.45-2.66-0.082-1.76-0.102-1.842-0.798-2.496-1.085-1.064-1.412-1.023-1.883 0.184-0.205 0.573-0.512 1.535-0.655 2.148-0.532 2.189-0.552 2.189-1.821 2.21-0.634 0-1.207-0.082-1.269-0.184-0.061-0.123 0.020-0.491 0.184-0.859 0.43-0.88 1.535-3.683 2.005-5.013 0.368-1.064 0.368-1.085-0.020-1.473-0.225-0.225-0.532-0.409-0.675-0.409-0.164 0-0.45-0.184-0.634-0.389-0.286-0.327-0.327-0.593-0.225-1.269 0.102-0.573 0.061-0.9-0.102-1.003s-0.041-0.205 0.307-0.286c0.348-0.082 0.655-0.041 0.798 0.102 0.164 0.184 0.143 0.205-0.082 0.102-0.164-0.102 0.082 0.225 0.573 0.696 0.471 0.471 1.023 0.818 1.207 0.778 0.778-0.143 2.987-5.852 2.496-6.446-0.286-0.327-0.941-0.348-1.044-0.061-0.041 0.123-0.266 0.246-0.512 0.266-0.266 0-0.512 0.143-0.552 0.286-0.061 0.143-0.266 0.266-0.471 0.266-0.471 0.020-0.962 0.409-1.146 0.88-0.082 0.225-0.246 0.307-0.368 0.225-0.164-0.082-0.184-0.061-0.102 0.082s0.041 0.246-0.082 0.246c-0.123 0-0.184 0.082-0.102 0.184 0.061 0.102-0.143 0.164-0.45 0.143-0.389-0.041-0.593-0.184-0.614-0.45-0.082-0.532 0.962-1.964 1.637-2.292 0.307-0.143 0.655-0.45 0.778-0.675 0.123-0.246 0.348-0.368 0.512-0.307 0.327 0.123 0.941-0.061 0.818-0.266-0.041-0.061 0.307-0.143 0.778-0.164 0.9-0.061 1.35-0.45 1.35-1.207 0-0.778-0.43-0.941-1.657-0.573-0.614 0.184-1.187 0.409-1.289 0.512-0.123 0.102-0.348 0.184-0.532 0.184-0.348 0-1.207 0.778-2.026 1.821-0.471 0.573-0.655 0.716-0.573 0.409 0.020-0.061-0.102-0.286-0.266-0.491-0.286-0.348-0.266-0.368 0.102-0.246 0.409 0.143 0.409 0.143 0.020-0.164-0.307-0.225-0.327-0.307-0.102-0.307 0.164 0 0.389 0.061 0.512 0.143 0.102 0.102-0.020-0.020-0.266-0.246-0.266-0.246-0.471-0.552-0.471-0.716 0-0.184 0.082-0.164 0.286 0.102 0.266 0.368 0.286 0.368 0.184-0.164-0.061-0.307-0.041-0.552 0.061-0.512 0.266 0.061 2.394-1.207 2.189-1.31-0.082-0.061-0.061-0.061 0.082-0.041 0.123 0.041 0.737-0.123 1.33-0.327 0.614-0.205 1.698-0.491 2.435-0.634 1.166-0.205 1.555-0.184 2.865 0.123 0.839 0.205 1.923 0.552 2.435 0.778s1.044 0.389 1.207 0.368c0.143-0.020 0.205 0.041 0.143 0.143s0.368 0.43 0.962 0.716l1.084 0.512-0.082 0.9c-0.102 1.391-0.164 1.473-0.737 1.044-0.266-0.205-0.45-0.43-0.389-0.512 0.041-0.102-0.123-0.164-0.389-0.184-0.45 0-0.45-0.020-0.061-0.184s0.389-0.184-0.041-0.184c-0.614-0.020-1.084-0.225-1.084-0.471 0-0.123 0.143-0.143 0.327-0.082 0.184 0.082 0.266 0.041 0.164-0.102-0.082-0.123-0.389-0.164-0.737-0.102-0.368 0.061-0.552 0.041-0.471-0.082 0.061-0.123 0.102-0.205 0.061-0.205s-0.573-0.184-1.187-0.409c-1.555-0.573-1.78-0.532-1.903 0.246s0.409 1.391 1.207 1.391c0.286 0 0.839 0.143 1.248 0.307 0.389 0.164 0.88 0.307 1.064 0.307s0.696 0.471 1.125 1.044c1.105 1.473 1.228 2.783 0.389 3.826-0.205 0.246-0.532 0.675-0.737 0.962-0.246 0.348-0.512 0.491-0.696 0.409-0.266-0.082-0.266-0.061-0.082 0.184 0.184 0.225 0.143 0.307-0.205 0.389-0.225 0.061-0.368 0.205-0.307 0.327 0.246 0.368 0.982 0.123 1.473-0.491 0.716-0.921 1.003-0.818 1.064 0.368 0.041 1.125-0.246 1.657-1.084 1.862-0.818 0.205-0.798 0.593 0.082 2.68 0.675 1.555 0.88 1.923 1.105 2.005 0.184 0.082 0.184 0.123 0 0.123-0.368 0.020 0.123 1.044 0.491 1.044 0.164 0 0.246 0.082 0.184 0.184-0.061 0.082 0 0.45 0.143 0.818 0.286 0.778 0.020 1.044-0.982 1.044-0.859 0-1.044-0.164-1.494-1.33-0.716-1.78-1.923-4.297-2.128-4.42-0.123-0.082-0.102-0.184 0.061-0.246 0.205-0.082 0.205-0.123 0.041-0.123-0.266-0.020-0.798 0.348-1.637 1.146-0.45 0.43-0.471 0.593-0.471 3.028 0 2.721-0.205 3.56-1.003 4.277-0.246 0.225-0.389 0.532-0.327 0.737 0.061 0.225-0.061 0.43-0.348 0.573-0.266 0.123-0.348 0.225-0.205 0.225 0.143 0.020 0.471-0.102 0.716-0.266 0.246-0.143 1.228-0.327 2.189-0.389 0.962-0.041 1.473-0.041 1.125 0.041-0.532 0.102-0.471 0.143 0.655 0.389 1.555 0.307 3.049 1.514 3.253 2.599 0.082 0.45 0.205 0.655 0.368 0.573 0.164-0.102 0.164-0.061 0 0.164-0.143 0.164-0.307 0.593-0.389 0.962-0.164 0.818-1.044 1.698-2.271 2.292-0.757 0.389-1.35 0.471-3.213 0.532-1.269 0.020-2.865-0.020-3.54-0.102zM15.7 30.091c0.348-0.348 0.368-0.348 0.225 0-0.123 0.307 0 0.348 0.941 0.348 1.494 0 3.11-0.512 3.601-1.146l0.409-0.512 0.082 0.471c0.061 0.266 0.102 0.041 0.082-0.491 0-0.552-0.082-0.982-0.143-0.982-0.082 0-0.266-0.225-0.409-0.491-0.327-0.634-1.555-1.146-2.721-1.146-1.105 0-2.66 0.552-2.987 1.064s0.020 0.982 0.716 0.982c0.286 0 0.491 0.123 0.491 0.286s0.164 0.348 0.368 0.389c0.286 0.082 0.246 0.123-0.164 0.266l-0.512 0.164 0.512 0.143c0.368 0.102 0.225 0.143-0.552 0.164-0.941 0.020-1.166-0.061-1.739-0.614-0.593-0.552-0.614-0.593-0.164-0.389 0.491 0.225 0.491 0.205-0.041-0.205-0.45-0.348-0.573-0.614-0.573-1.228 0-0.43 0.143-0.921 0.307-1.105 0.164-0.164 0.307-0.389 0.307-0.512s0.123-0.246 0.266-0.246c0.123-0.020-0.082-0.082-0.471-0.164-0.798-0.143-0.88-0.082-2.169 1.125-0.634 0.593-0.9 1.023-0.9 1.391 0 1.105 1.698 2.169 3.581 2.271 0.552 0.020 1.044 0.164 1.085 0.286 0.102 0.307 0.143 0.286 0.573-0.123zM14.698 28.863c-0.082-0.061-0.205-0.061-0.286 0-0.061 0.082 0 0.143 0.143 0.143s0.205-0.061 0.143-0.143zM14.841 25.405c0.082-0.225 0.041-0.246-0.286-0.020-0.225 0.123-0.409 0.307-0.409 0.389 0 0.246 0.573-0.061 0.696-0.368zM16.601 14.499c0-0.102-0.123-0.246-0.246-0.286-0.143-0.061-0.082-0.123 0.143-0.143 0.512-0.020 1.535-0.9 1.535-1.33 0-0.164-0.225-0.778-0.512-1.371-0.286-0.573-0.512-1.187-0.512-1.33 0-0.266-0.368-0.368-1.105-0.286-0.327 0.020-0.348-0.020-0.102-0.327 0.266-0.327 0.246-0.348-0.061-0.082-0.205 0.143-0.368 0.45-0.368 0.655s-0.307 0.962-0.675 1.678c-0.655 1.269-0.655 1.33-0.286 1.576 0.205 0.123 0.327 0.286 0.266 0.348-0.143 0.143 1.289 1.064 1.678 1.085 0.123 0 0.246-0.082 0.246-0.184zM20.243 11.164c0.225-0.286 0.205-0.327-0.102-0.286-0.205 0.041-0.348 0.123-0.307 0.184 0.020 0.082 0.041 0.246 0.041 0.389 0 0.123 0.020 0.184 0.061 0.143 0.020-0.041 0.164-0.246 0.307-0.43zM17.215 9.486c0-0.041-0.184-0.123-0.409-0.184s-0.368-0.020-0.286 0.082c0.102 0.184 0.696 0.266 0.696 0.102zM19.875 9.118c1.432-1.044 0.757-2.865-1.33-3.581-1.146-0.389-1.412 0.102-0.798 1.535 0.368 0.9 1.289 2.496 1.432 2.496 0.061 0 0.368-0.205 0.696-0.45zM23.271 3.695c-0.327-0.573-0.327-0.573-0.266-0.061 0.041 0.286 0.164 0.696 0.266 0.921 0.143 0.348 0.184 0.368 0.246 0.061 0.041-0.184-0.082-0.593-0.246-0.921zM22.678 3.306c-0.061-0.061-0.246-0.082-0.389-0.020-0.164 0.061-0.102 0.123 0.123 0.123 0.225 0.020 0.348-0.041 0.266-0.102z"></path>
<path d="M17.071 29.887c0.307-0.041 0.798-0.041 1.125 0 0.307 0.041 0.041 0.082-0.573 0.082s-0.88-0.041-0.552-0.082z"></path>
<path d="M11.649 31.728c0.143-0.061 0.327-0.041 0.389 0.020 0.082 0.061-0.041 0.123-0.266 0.102-0.225 0-0.286-0.061-0.123-0.123z"></path>
<path d="M8.068 27.984c0-0.614 0.041-0.88 0.082-0.552 0.041 0.307 0.041 0.798 0 1.125-0.041 0.307-0.082 0.041-0.082-0.573z"></path>
<path d="M8.416 20.822c0-0.143 0.061-0.205 0.143-0.143 0.061 0.082 0.061 0.205 0 0.286-0.082 0.061-0.143 0-0.143-0.143z"></path>
<path d="M9.030 12.432c0-0.143 0.061-0.205 0.143-0.143 0.061 0.082 0.061 0.205 0 0.286-0.082 0.061-0.143 0-0.143-0.143z"></path>
<path d="M21.512 10.816c0-0.123 0.082-0.266 0.205-0.327s0.143 0.020 0.082 0.184c-0.143 0.368-0.286 0.43-0.286 0.143z"></path>
<path d="M9.132 6.703c0.061-0.102 0.164-0.205 0.225-0.205s0.041 0.102-0.020 0.205c-0.061 0.123-0.164 0.205-0.225 0.205s-0.041-0.082 0.020-0.205z"></path>
</svg>
